<svg xmlns="http://www.w3.org/2000/svg" viewBox="0 0 17441 11811"><g><path fill="#3C3" fill-rule="nonzero" stroke="#000" stroke-width="50" d="M7448 3829h4519L9707 1569 7448 3829zm1130-1130"/><path fill="#3C3" fill-rule="nonzero" stroke="#000" stroke-width="50" d="M7448 6082h4519L9707 3822 7448 6082zm1130-1130"/><path fill="#3C3" fill-rule="nonzero" stroke="#000" stroke-width="50" d="M7448 8365h4519L9707 6105 7448 8365zm1130-1130"/><polygon fill="#ff0" stroke="#000" stroke-width="50" points="9290,8373 9290,10793 10134,10793 10134,8373"/><circle cx="5625" cy="2880" r="1008" fill="#ff0" stroke="#2B2A29" stroke-width="50"/><polygon fill="#3C3" stroke="#000" stroke-width="50" points="13899,8112 14315,8814 14730,9517 14320,10220 13911,10924 13495,10222 13080,9520 13490,8816"/><polygon fill="#3C3" stroke="#000" stroke-width="50" points="15908,8112 16324,8814 16739,9517 16329,10220 15920,10924 15504,10222 15089,9520 15499,8816"/><polygon fill="#3C3" stroke="#000" stroke-width="50" points="5591,8112 6006,8814 6421,9517 6012,10220 5602,10924 5187,10222 4771,9520 5181,8816"/><polygon fill="#3C3" stroke="#000" stroke-width="50" points="3526,8112 3941,8814 4357,9517 3947,10220 3537,10924 3122,10222 2707,9520 3116,8816"/><polygon fill="#3C3" stroke="#000" stroke-width="50" points="1431,8112 1846,8814 2261,9517 1852,10220 1442,10924 1027,10222 611,9520 1021,8816"/></g></svg>