<svg xmlns="http://www.w3.org/2000/svg" viewBox="0 0 17441 11811"><polygon fill="#fff" stroke="#2B2A29" stroke-width="50" points="10501,1293 9767,2252 9033,3210 9760,4169 10487,5127 11221,4169 11955,3210 11228,2252"/><path fill="red" fill-rule="nonzero" stroke="#2B2A29" stroke-width="50" d="M10515 10703l-20-5504-2742 2762 2762 2742zM9134 9332"/><path fill="red" fill-rule="nonzero" stroke="#2B2A29" stroke-width="50" d="M10512 8493l12-3346 1667 1679-1679 1667zm839-834"/><polygon fill="red" stroke="#2B2A29" stroke-width="50" points="12199,6884 10556,8497 10564,10704 12233,8874"/><path fill="#00f" fill-rule="nonzero" stroke="#2B2A29" stroke-width="50" d="M10465 10826L6555 6952l18 3892 3892-18zm-1946 9"/><path fill="#00f" fill-rule="nonzero" stroke="#2B2A29" stroke-width="50" d="M4269 9171l2186-2211 12 2198-2198 13zm1099-7"/><path fill="#3C3" fill-rule="nonzero" stroke="#2B2A29" stroke-width="50" d="M2612 9189h2478l-1239 1239-1239-1239zm620 620"/></svg>