<svg xmlns="http://www.w3.org/2000/svg" viewBox="0 0 17441 11811"><g><path fill="#0CF" fill-rule="nonzero" stroke="#2B2A29" stroke-width="50" d="M13873 6604h1707l-853-854-854 854zm427-427"/><path fill="#0CF" fill-rule="nonzero" stroke="#2B2A29" stroke-width="50" d="M15580 6615h1184l-592 592-592-592zm296 296"/><path fill="#0CF" fill-rule="nonzero" stroke="#2B2A29" stroke-width="50" d="M6792 6591h3499L8541 4841 6792 6591zm875-875"/><polygon fill="#0CF" stroke="#2B2A29" stroke-width="50" points="919,5669 1514,6256 2108,6844 2671,6727 3234,6611 2639,6023 2044,5436 1482,5552"/><path fill="#0CF" fill-rule="nonzero" stroke="#2B2A29" stroke-width="50" d="M10319 6616h3500l-1750 1749-1750-1749zm875 875"/><path fill="#0CF" fill-rule="nonzero" stroke="#2B2A29" stroke-width="50" d="M3242 6616h3499L4992 8365 3242 6616zm875 875"/></g></svg>