<svg xmlns="http://www.w3.org/2000/svg" width="210mm" height="297mm" shape-rendering="geometricPrecision" text-rendering="geometricPrecision" image-rendering="optimizeQuality" fill-rule="evenodd" clip-rule="evenodd" viewBox="0 0 21000 29700"><path fill="#A5C032" fill-rule="nonzero" d="M17457 17328c0 245-2900 444-6476 444-3577 0-6477-199-6477-444 0-246 2900-445 6477-445 3576 0 6476 199 6476 445z"/><path fill="#A5C032" fill-rule="nonzero" d="M17236 17031c0 246-2801 445-6255 445-3455 0-6256-199-6256-445 0-245 2801-445 6256-445 3454 0 6255 200 6255 445z"/><path fill="#FCE09E" fill-rule="nonzero" d="M5586 14968s-93 55-251 55c-145 0-263-55-263-55v1014h514v-1014zM6100 14968s-93 55-251 55c-145 0-263-55-263-55v1014h514v-1014zM6614 14968s-93 55-251 55c-145 0-263-55-263-55v1014h514v-1014zM7141 14968s-92 55-251 55c-145 0-263-55-263-55v1014h514v-1014z"/><path fill="#8F7C5D" fill-rule="nonzero" d="M5070 15992h2078z"/><path fill="#AF533F" fill-rule="nonzero" d="M5087 16192l-17-200h2078l-17 200z"/><path fill="#804336" fill-rule="nonzero" d="M7114 16378l-17 206H5121l-17-206z"/><path fill="#974C3A" fill-rule="nonzero" d="M7131 16192l-17 193v6H5104v-6l-17-193z"/><path fill="#55342F" fill-rule="nonzero" d="M6067 16594h64v-599h-64zM5557 16594h64v-599h-64zM5104 16594h64l-79-599h-64zM6585 16594h64v-599h-64zM7101 16594h-63l79-599h63z"/><path fill="#55342F" fill-rule="nonzero" d="M4900 16630h2248v-72H4900z"/><path fill="#713D35" fill-rule="nonzero" d="M6082 16106c0 7 6 13 14 13 7 0 13-6 13-13 0-8-6-14-13-14-8 0-14 6-14 14zM6082 16292c0 7 6 13 14 13 7 0 13-6 13-13 0-8-6-14-13-14-8 0-14 6-14 14zM6082 16483c0 8 6 14 14 14 7 0 13-6 13-14 0-7-6-14-13-14-8 0-14 7-14 14zM5575 16106c0 7 7 13 14 13s14-6 14-13c0-8-7-14-14-14s-14 6-14 14zM5575 16292c0 7 7 13 14 13s14-6 14-13c0-8-7-14-14-14s-14 6-14 14zM5575 16483c0 8 7 14 14 14s14-6 14-14c0-7-7-14-14-14s-14 7-14 14zM6603 16106c0 7 6 13 14 13 7 0 13-6 13-13 0-8-6-14-13-14-8 0-14 6-14 14zM6603 16292c0 7 6 13 14 13 7 0 13-6 13-13 0-8-6-14-13-14-8 0-14 6-14 14zM6603 16483c0 8 6 14 14 14 7 0 13-6 13-14 0-7-6-14-13-14-8 0-14 7-14 14zM5057 16106c0 7 6 13 13 13 8 0 14-6 14-13 0-8-6-14-14-14-7 0-13 6-13 14zM5083 16292c0 7 6 13 14 13 7 0 13-6 13-13 0-8-6-14-13-14-8 0-14 6-14 14zM5104 16483c0 8 7 14 14 14s14-6 14-14c0-7-7-14-14-14s-14 7-14 14zM7144 16106c0 7-6 13-13 13-8 0-14-6-14-13 0-8 6-14 14-14 7 0 13 6 13 14zM7118 16292c0 7-6 13-14 13-7 0-13-6-13-13 0-8 6-14 13-14 8 0 14 6 14 14zM7096 16483c0 8-6 14-13 14-8 0-14-6-14-14 0-7 6-14 14-14 7 0 13 7 13 14z"/><path fill="#D09633" fill-rule="nonzero" d="M6585 14978c0-17 14-32 32-32 17 0 32 15 32 32v1010c0 18-15 32-32 32-18 0-32-14-32-32v-1010zM7117 14978c0-17 14-32 31-32 18 0 32 15 32 32v1010c0 18-14 32-32 32-17 0-31-14-31-32v-1010zM6060 14978c0-17 14-32 32-32s32 15 32 32v1010c0 18-14 32-32 32s-32-14-32-32v-1010zM5561 14978c0-17 15-32 32-32 18 0 32 15 32 32v1010c0 18-14 32-32 32-17 0-32-14-32-32v-1010zM5032 14978c0-17 14-32 32-32s32 15 32 32v1010c0 18-14 32-32 32s-32-14-32-32v-1010z"/><path fill="#55342F" fill-rule="nonzero" d="M4991 16028h2237v-72H4991z"/><path fill="#392C29" fill-rule="nonzero" d="M6593 16989h39v-751h-39z"/><path fill="#392C29" fill-rule="nonzero" d="M6237 16634h751v-40h-751z"/><path fill="#392C29" fill-rule="nonzero" d="M6864 16893l28-28-531-531-28 28z"/><path fill="#392C29" fill-rule="nonzero" d="M6892 16362l-28-28-531 531 28 28z"/><path fill="#392C29" fill-rule="nonzero" d="M6272 16614c0-188 152-341 340-341s341 153 341 341-153 340-341 340-340-152-340-340zm-56 0c0 219 177 396 396 396s397-177 397-396-178-397-397-397-396 178-396 397z"/><path fill="#392C29" fill-rule="nonzero" d="M6487 16614c0 69 56 125 125 125 70 0 126-56 126-125s-56-125-126-125c-69 0-125 56-125 125z"/><path fill="#D09633" fill-rule="nonzero" d="M6553 16614c0 33 27 59 59 59 33 0 60-26 60-59s-27-59-60-59c-32 0-59 26-59 59z"/><path fill="#392C29" fill-rule="nonzero" d="M5567 16989h40v-751h-40z"/><path fill="#392C29" fill-rule="nonzero" d="M5211 16634h751v-40h-751z"/><path fill="#392C29" fill-rule="nonzero" d="M5838 16893l28-28-531-531-28 28z"/><path fill="#392C29" fill-rule="nonzero" d="M5866 16362l-28-28-531 531 28 28z"/><path fill="#392C29" fill-rule="nonzero" d="M5246 16614c0-188 153-341 341-341s340 153 340 341-152 340-340 340-341-152-341-340zm-56 0c0 219 178 396 397 396s397-177 397-396-178-397-397-397-397 178-397 397z"/><path fill="#392C29" fill-rule="nonzero" d="M5462 16614c0 69 56 125 125 125s125-56 125-125-56-125-125-125-125 56-125 125z"/><path fill="#D09633" fill-rule="nonzero" d="M5528 16614c0 33 26 59 59 59s59-26 59-59-26-59-59-59-59 26-59 59z"/><path fill="#55342F" fill-rule="nonzero" d="M4779 16595c0-27 22-49 49-49s49 22 49 49c0 28-22 50-49 50s-49-22-49-50zm-50 0c0 55 44 99 99 99 54 0 99-44 99-99 0-54-45-99-99-99-55 0-99 45-99 99z"/><path fill="#F6F7F7" fill-rule="nonzero" d="M11410 10673s-602 906-1708 1926c-1158 1067-2398 1291-2398 1291h8213s-1201-360-2398-1276c-720-551-1709-1941-1709-1941z"/><path fill="#D12427" fill-rule="nonzero" d="M12959 9812v221s330 66 443 66c436 1 481-235 481-235-133 29-118 41-273 41-243 0-457-112-651-93z"/><path fill="#B02827" fill-rule="nonzero" d="M12959 9812l131 148-131 73z"/><path fill="#D12427" fill-rule="nonzero" d="M12111 9793s232 19 490 129c240 104 489 38 489 38l-41 298s-202 59-502 59c-216 0-436-88-436-88v-436z"/><path fill="#B02827" fill-rule="nonzero" d="M12270 9901l-159-108v212z"/><path fill="#D12427" fill-rule="nonzero" d="M11407 9905s188 45 401 45c237 0 462-45 462-45l-31 419s-131 69-431 69c-216 0-401-52-401-52v-436z"/><path fill="#B2B1B3" fill-rule="nonzero" d="M11387 10731h49V9612h-49z"/><path fill="#F6F7F7" fill-rule="nonzero" d="M6693 17062h3768l1268-1803 441 339 190-1708H7618l-260 1331z"/><path fill="#D12427" fill-rule="nonzero" d="M11600 15707l-379 275v-2092h379z"/><path fill="#F6F7F7" fill-rule="nonzero" d="M12170 17062h3880l-843-3172h-3037z"/><path fill="#D12427" fill-rule="nonzero" d="M15517 13899h-379s-1078-322-2209-1369c-900-833-1519-1857-1519-1857s809 1106 1614 1755c1241 999 2493 1471 2493 1471z"/><path fill="#D12427" fill-rule="nonzero" d="M14638 13899h-380s-818-478-1613-1326c-760-810-1235-1900-1235-1900s440 905 1390 1855c825 825 1838 1371 1838 1371z"/><path fill="#D12427" fill-rule="nonzero" d="M13878 13899h-379s-521-383-1130-1278c-511-751-959-1948-959-1948s475 1092 1073 1876c576 754 1395 1350 1395 1350z"/><path fill="#D12427" fill-rule="nonzero" d="M13119 13899h-380s-426-556-751-1328c-194-461-578-1898-578-1898s249 889 771 1855c379 701 938 1371 938 1371z"/><path fill="#D12427" fill-rule="nonzero" d="M12360 13899h-380s-130-487-324-1479c-208-1058-246-1747-246-1747s299 1282 417 1705c243 872 533 1521 533 1521zM7304 13890h379s1078-321 2209-1368c900-833 1518-1858 1518-1858s-808 1107-1613 1755c-1241 1000-2493 1471-2493 1471z"/><path fill="#D12427" fill-rule="nonzero" d="M8183 13899h380s818-478 1613-1326c760-810 1234-1900 1234-1900s-439 905-1389 1855c-825 825-1838 1371-1838 1371z"/><path fill="#D12427" fill-rule="nonzero" d="M8943 13899h379s521-383 1130-1278c511-751 958-1948 958-1948s-474 1092-1072 1876c-576 754-1395 1350-1395 1350z"/><path fill="#D12427" fill-rule="nonzero" d="M9702 13899h380s426-556 751-1328c194-461 577-1898 577-1898s-248 889-770 1855c-379 701-938 1371-938 1371z"/><path fill="#D12427" fill-rule="nonzero" d="M10461 13899h380s130-487 324-1479c208-1058 245-1747 245-1747s-299 1282-416 1705c-243 872-533 1521-533 1521z"/><path fill="#D12427" fill-rule="nonzero" d="M11410 10673l190 3217h-379z"/><path fill="#B2B1B3" fill-rule="nonzero" d="M11314 9664l97-152 98 152z"/><path fill="#D33C26" fill-rule="nonzero" d="M7680 13885c0 888-882 3177-882 3177h-581s703-822 1345-3177h118zM7679 17062h-542s562-1293 1076-3177h171c0 710-705 3177-705 3177zM8560 17062h-503s421-1764 807-3177h225c0 533-529 3177-529 3177zM9442 17062h-466s281-2235 538-3177h280c0 355-352 3177-352 3177zM10323 17062h-427s141-2706 269-3177h334c0 178-176 3177-176 3177zM10816 17062h388v-3177h-388zM15104 13885c0 888 882 3177 882 3177h580s-702-822-1345-3177h-117zM15104 17062h542s-561-1293-1075-3177h-172c0 710 705 3177 705 3177zM14223 17062h504s-422-1764-807-3177h-226c0 533 529 3177 529 3177zM13342 17062h465s-281-2235-538-3177h-280c0 355 353 3177 353 3177zM12461 17062h426s-140-2706-269-3177h-334c0 178 177 3177 177 3177zM11580 17062h388v-3177h-388z"/><path fill="#FDC704" fill-rule="nonzero" d="M11008 11178l403-531 404 531z"/><path fill="#482A26" fill-rule="nonzero" d="M12828 16146c-380-641-792-1900-792-1900-223-150-1296-30-1296-30-121 895-1242 2850-1242 2850h3877s-168-280-547-920z"/><path fill="#D12427" fill-rule="nonzero" d="M11037 13935s-133 1421-638 2489c-287 606-377 688-377 688h-620s317-275 696-939c749-1315 879-2238 879-2238h60z"/><path fill="#F6F7F7" fill-rule="nonzero" d="M11278 11131l130-450h7l130 450z"/><path fill="#A24532" fill-rule="nonzero" d="M11877 11148c0 17-14 30-30 30h-871c-17 0-30-13-30-30 0-16 13-30 30-30h871c16 0 30 14 30 30z"/><path fill="#FDC704" fill-rule="nonzero" d="M10880 13885s-157 1422-753 2489c-340 607-445 688-445 688h-732s374-275 821-939c885-1315 1038-2238 1038-2238h71z"/><path fill="#D12427" fill-rule="nonzero" d="M11745 13935s133 1421 639 2489c287 606 377 688 377 688h620s-317-275-696-939c-749-1315-879-2238-879-2238h-61z"/><path fill="#E0D5D7" fill-rule="nonzero" d="M15418 14556c-45-143-90-292-135-449h146v399c0 17-4 34-11 50z"/><path fill="#D6CBCB" fill-rule="nonzero" d="M12162 14611c-78-218-126-365-126-365-18-11-41-22-68-30v-109h202v497c-3 2-5 5-8 7zM15027 14720c-84 0-162-14-226-37-56-184-113-377-169-576h486c20 171 58 371 108 585-58 18-126 28-199 28zm-804 0c-28 0-56-1-82-4-53-204-107-409-161-609h434c18 155 50 344 91 552-73 38-172 61-282 61zm-772 0c-41-222-84-432-126-613h384c15 135 38 306 68 497-63 65-184 110-326 116zm-724-8c-22-237-44-448-67-605h343c11 127 28 294 48 484-21-26-33-55-33-85 0 98-123 180-291 206zm-404-60c-68-38-109-90-109-146 0 35-16 68-44 98v-497h124c7 137 17 327 29 545z"/><path fill="#B73628" fill-rule="nonzero" d="M15226 14692c-50-214-88-414-108-585h165c45 157 90 306 135 449-26 58-97 107-192 136zM14801 14683c-106-39-176-104-176-177 0 60-46 114-120 153-41-208-73-397-91-552h218c56 199 113 392 169 576zM14141 14716c-183-21-320-107-320-210 0 35-16 69-44 98-30-191-53-362-68-497h271c54 200 108 405 161 609zM13420 14720c-166 0-308-53-369-129-20-190-37-357-48-484h322c42 181 85 391 126 613h-31zM12616 14720c-116 0-220-26-293-68-12-218-22-408-29-545h366c23 157 45 368 67 605-35 5-72 8-111 8zM11968 14216c-31-10-68-18-108-24-8-31-14-60-20-85h128v109z"/><path fill="#402A27" fill-rule="nonzero" d="M12008 14693c-70-206-117-375-148-501 40 6 77 14 108 24 27 8 50 19 68 30 0 0 48 147 126 365-36 35-90 63-154 82z"/><path fill="#D6CBCB" fill-rule="nonzero" d="M11204 14179v-72h17v72h-17z"/><path fill="#B32827" fill-rule="nonzero" d="M11221 14179v-72h359v64h-69c-97 0-196 3-290 8z"/><path fill="#B73628" fill-rule="nonzero" d="M10833 14207c6-36 12-69 16-100h94c-6 27-13 58-22 92-33 3-63 6-88 8zm173-15c5-31 8-59 12-85h186v72c-71 4-138 9-198 13zM11775 14181c-60-5-127-9-195-10v-64h185c3 23 6 48 10 74z"/><path fill="#402A27" fill-rule="nonzero" d="M11812 14720c-222 0-402-96-402-214 0 118-179 214-401 214-31 0-60-2-89-5 40-208 68-388 86-523 60-4 127-9 198-13h17c94-5 193-8 290-8h69c68 1 135 5 195 10 19 137 47 323 88 537-16 2-33 2-51 2zm-1034-38c-12-5-25-10-36-16 40-176 69-333 91-459 25-2 55-5 88-8-30 123-76 286-143 483z"/><path fill="#B32827" fill-rule="nonzero" d="M10920 14715c-51-6-99-18-142-33 67-197 113-360 143-483 9-34 16-65 22-92h75c-4 26-7 54-12 85-18 135-46 315-86 523z"/><path fill="#E0D5D7" fill-rule="nonzero" d="M7392 14471v-364h108c-36 126-72 247-108 364z"/><path fill="#D6CBCB" fill-rule="nonzero" d="M8598 14720c-128 0-242-32-315-81 39-200 69-382 86-532h435c-54 201-109 407-162 612-15 1-29 1-44 1zm-804 0c-87 0-168-15-234-40 49-209 86-405 105-573h487c-58 204-116 401-173 589-55 15-118 24-185 24zm1539-3c-154-14-279-75-320-155 27-174 48-330 61-455h385c-42 181-85 389-126 610zm724-12c-149-31-254-109-254-199 0 46-27 89-74 124 22-206 40-387 51-523h344c-23 156-45 364-67 598zm403-33c12-227 23-424 30-565h265c-30 108-76 254-144 431-3-10-4-21-4-32 0 67-57 126-147 166z"/><path fill="#B73628" fill-rule="nonzero" d="M7560 14680c-102-39-168-102-168-174v-35c36-117 72-238 108-364h165c-19 168-56 364-105 573zM7979 14696c57-188 115-385 173-589h217c-17 150-47 332-86 532-55-37-87-83-87-133 0 83-88 154-217 190zM8642 14719c53-205 108-411 162-612h270c-13 125-34 281-61 455-9-18-14-37-14-56 0 110-156 201-357 213zM9401 14720c-23 0-46-1-68-3 41-221 84-429 126-610h321c-11 136-29 317-51 523-73 55-193 90-328 90zM10205 14720c-52 0-102-5-148-15 22-234 44-442 67-598h366c-7 141-18 338-30 565-70 30-158 48-255 48z"/><path fill="#D9A11B" fill-rule="nonzero" d="M10742 14666c-69-32-116-77-131-128 68-177 114-323 144-431h94c-4 31-10 64-16 100-22 126-51 283-91 459z"/><path fill="#B32827" fill-rule="nonzero" d="M11863 14718c-41-214-69-400-88-537-4-26-7-51-10-74h75c6 25 12 54 20 85 31 126 78 295 148 501-44 13-93 22-145 25z"/><path fill="#FDC704" fill-rule="nonzero" d="M11902 13885s157 1422 754 2489c339 607 445 688 445 688h732s-374-275-821-939c-885-1315-1038-2238-1038-2238h-72z"/><path fill="#FDC704" fill-rule="nonzero" d="M7304 13890v302c0 227 183 411 410 411s411-184 411-411c0 227 184 411 411 411 226 0 410-184 410-411 0 227 184 411 411 411s411-184 411-411c0 227 184 411 410 411 227 0 411-184 411-411 0 227 184 411 411 411s410-184 410-411c0 227 184 411 411 411s411-184 411-411c0 227 184 411 411 411 226 0 410-184 410-411 0 227 184 411 411 411s411-184 411-411c0 227 184 411 410 411 227 0 411-184 411-411 0 227 184 411 411 411s410-184 410-411v-302H7304z"/><path fill="#A24532" fill-rule="nonzero" d="M15629 13924c0 30-25 54-54 54H7235c-29 0-53-24-53-54s24-54 53-54h8340c29 0 54 24 54 54z"/><path fill="#E73D41" fill-rule="nonzero" d="M12270 9905l-31 419-150-7 110-58-133-37 124-62-99-36 110-69-108-64zM13090 9960l-41 298-90-33 65-62-77-33 87-45-75-41z"/><path fill="#FEFEFE" fill-rule="nonzero" d="M11545 9682c0 18-15 33-33 33h-201c-18 0-33-15-33-33s15-33 33-33h201c18 0 33 15 33 33z"/><path fill="#F6F7F7" fill-rule="nonzero" d="M12521 14502c0 440-499 796-1115 796s-1116-356-1116-796c0-439 500-795 1116-795s1115 356 1115 795z"/><path fill="none" stroke="#A24532" stroke-width="227.36" d="M12521 14502c0 440-499 796-1115 796s-1116-356-1116-796c0-439 500-795 1116-795s1115 356 1115 795z"/><path fill="#A5C032" fill-rule="nonzero" d="M17122 17010H4828c-179 0-324 144-324 323h12941c0-179-144-323-323-323z"/></svg>