<svg xmlns="http://www.w3.org/2000/svg" width="210mm" height="297mm" shape-rendering="geometricPrecision" text-rendering="geometricPrecision" image-rendering="optimizeQuality" fill-rule="evenodd" clip-rule="evenodd" viewBox="0 0 21000 29700"><g fill-rule="nonzero"><g fill="#DFD199"><path d="M10848 13131c-5 33 0 51 7 70 9 19 19 35 47 54 21-26 19-55 9-78s-30-44-63-46zM10698 9636c95-83 196-162 286-260 92-97 166-212 217-336 26-63 41-124 67-170 15-27 39-51 65-65-26 48-53 97-77 148 56-54 109-112 162-172 2-2 4-6 6-9 5-15-3-31-18-36l-7-2c-40-13-84-7-119 10-36 15-67 43-89 73-46 60-66 124-93 177-55 109-123 210-203 302-81 91-174 179-260 277-84 98-164 210-194 338 71-108 161-194 257-275zM8178 8728l78 94c50 61 100 122 148 186 49 63 96 129 151 195-7-85-33-167-68-244-33-72-76-140-125-202-2-10-4-20-6-29l-16-61c-6-20-15-47-43-72-33-25-80-36-125 4-22 23-26 57-19 81 6 23 16 37 25 48zm68-53c-7 4-5-2-6-3 2 0 4 1 6 3z"/><path d="M15885 12152c-33-143-121-271-240-351-58-41-129-66-191-83-27-8-52-15-77-24-17-8-34-15-50-22-17-10-33-20-48-33 3 6 7 12 11 18-89-36-181-64-278-83-22-8-45-15-68-20-84-20-170-25-253-33-168-12-339-21-511-1-172 19-338 61-501 101l-488 124c-163 43-325 82-489 120-99 24-199 45-300 65-1-8-3-16-5-24 0-1 1-1 1-1 3-6 4-17 2-28-1-11-6-21-12-30-8-13-21-22-35-28 0 0 0-1-1-1l1 1c-6-2-11-3-17-4-21-2-45 5-60 30 10 27 10 42 10 53 0 10-1 16 0 18 1 1 3 2 5 3 3 0 6 1 12 7 6 5 15 12 25 19-39 8-77 16-116 23-220 40-442 70-665 88-189-3-365-17-502-32v-9c0-370 152-457-87-435-85 8-154 18-204 23 25-17 53-38 82-64-9 12-18 25-24 42 40 4 69-9 96-25 26-17 50-39 63-76-40-4-69 8-96 24-2 2-4 3-6 5 95-91 193-213 236-306 29-62 52-106 70-145 8-12 15-25 21-38 37-69 67-137 94-212 13-38 23-78 29-119 3-21 5-42 6-63 0-22 3-39-6-74-4-16-15-38-35-54 28-32 47-72 59-113 4-15 6-29 8-44 2-14 3-29 2-48-2-18-6-36-15-56-2-4-5-8-7-13 13-6 30-14 47-23 11-1 22-3 33-5 35-6 72-15 111-35 19-9 38-22 56-38 17-16 33-38 41-58 10-19 13-37 19-54 4-17 8-32 23-50-22-10-48-1-69 10-8 5-16 11-23 16 10-22 16-47 13-72-40 20-70 30-101 41-31 12-63 25-95 44-33 20-65 46-90 82-16 25-29 56-29 87-2 1-5 3-7 4-23-4-46-1-64 7-24 12-39 27-51 42-22 29-33 59-39 91-10 57 4 116 40 156 2 9 5 17 8 26-6 2-12 5-16 8-38 20-73 45-103 74-61 57-108 125-141 198-7 14-12 28-18 42 2-15 1-31 0-47 2-19 3-38 4-57 1-33 2-69-5-109-7-38-27-83-63-107-11-8-24-14-38-17-65-80-151-94-177-96 1-28-5-58-13-81-15-44-33-80-55-117-11-18-23-38-42-58s-47-39-74-46c-15-4-29-6-42-6-14-14-29-27-44-41-3-2-5-4-8-7 1 0 2 0 3-1 46-22 91-54 117-102l-137 8c42-16 85-36 125-66-51-18-100-24-149-26s-98 2-147 13c-30 6-59 16-88 29-7-2-97-21-192-38-29-25-67-42-108-46-36-4-72 3-103 19-54-2-77-8-184 42-23-10-46-17-71-22-38-7-79-8-118-1-27 5-49 12-75 20-24-13-44-26-58-43-24-29-44-68-64-113-20-44-43-97-75-142-33-45-68-86-108-121-79-70-163-127-254-179 55 89 123 167 183 245 29 39 58 77 80 118 23 39 40 81 62 129 21 47 47 101 94 145 23 21 53 39 80 51s52 18 76 25c8 2 15 4 23 6-28 18-53 36-76 54-44 11-85 34-117 66-36 37-61 81-75 126-6 18-10 37-12 55-12 24-16 39-16 39s-18 0-48 25c-6 2-11 5-15 7-28 16-54 36-78 58-47 45-85 101-109 163-50 126-38 277 30 397 19 33 42 63 68 91 0 32 33 66 79 98 6 16 14 31 24 46 9 12 19 24 30 36-14-10-30-18-46-25-33-14-69-24-111-22 11 34 26 61 43 85-21 10-41 21-62 36-25-10-51-17-81-18 5-5 9-10 14-16-24-25-56-34-86-34-14 0-28 2-41 6-9-10-16-26-21-45-4-27-9-54-14-80-3-19-5-36-8-45v-1c-18-89-37-177-59-265-19-84-54-173-108-249-28-37-55-72-104-105-24-16-56-29-93-29-18 1-34 4-49 10 3-32 7-104-27-125-3-6-6-12-10-19-10-11-20-31-61-32-9 1-16 4-24 7-5-16-9-39-15-72-10-63-46-132-85-183 4-2 8-4 11-5 9-5 14-7 15-11 1-3-1-8-6-17-4-10-11-22-18-49-23-16-43-14-60-8-11 4-19 13-25 22-23-6-42 1-52 31-1 2-1 5-1 8-9-1-17 3-25 11-9 9-17 23-21 49 9 25 15 38 20 48 3 4 5 7 7 9 1 8 3 14 3 18 2 7 4 14 6 20 18 53 55 97 103 121 13 7 27 12 42 15 10 10 19 17 25 19 25 8 11 33 22 85 0 1-1 1-1 1 1 32 9 64 26 92 9 15 21 29 35 40 5 8 8 14 12 20-12 22-21 46-28 69-12 51-14 102-5 150 3 16 7 32 12 47 9 62 37 141 98 241 26 43 51 82 75 118 2 20 9 40 19 58 19 33 38 67 57 100 23 40 64 66 109 73 80 78 155 122 242 165-18 45-34 86-49 126-30 3-60 10-91 25 20 21 41 36 62 49-8 21-16 41-24 61-15 2-31 4-47 8 10 13 20 23 32 33-20 52-37 99-50 141-31 2-63 6-98 14 12 12 24 21 37 30-162-18-426-57-713-103-113-30-225-64-336-99-36-12-73-23-110-34 11-31 9-65-2-97-13-41-46-80-91-100-48-21-102-16-142 8-36 20-64 62-59 100-41-11-81-23-121-35-178-47-357-87-536-124-359-72-719-131-1080-187-180-27-367-49-553-31-166 18-323 67-476 123-87 16-169 38-240 69-34 5-68 17-99 35-43 24-80 57-114 92-33 35-62 74-90 112-27 38-54 77-77 124-24 46-37 107-30 162 5 55 22 103 38 148 33 88 69 176 115 262 47 85 104 167 178 236 74 67 156 120 239 165 165 88 332 170 505 243-82-65-166-126-251-186 285 125 329 147 329 147s-110 285 162 269c47 21 100 33 154 33 70 0 137-25 190-60 52-35 94-77 129-128-2 15-5 44-7 83-15 15-28 35-37 56-16 41-21 86-13 131 17 83 70 148 129 195 39 67 97 124 181 158 335 134 620 151 938 101 28-5 56-10 85-16 5 0 10 0 16-1 107-5 219-22 322-67 42-17 82-40 118-67 79-29 129-50 129-50s39 23 143 1c16 7 31 12 48 17 63 18 132 18 196-2 65-19 123-56 166-105 41-47 70-105 74-166 11-11 19-20 23-25 1 6 4 13 9 18 8 7 18 12 29 15 22 4 38 5 58 5 38-1 76-8 112-21 71-25 133-66 187-108 55-43 104-87 155-133 29-27 59-55 87-85 6 1 13 3 20 5 61 13 118 40 177 45-19 29-36 59-49 92 44-14 84-34 121-56 10 7 22 14 35 24-16 14-30 29-42 45-20 26-37 51-50 92 43-2 75-26 98-55 13-16 22-36 27-57 9 7 15 14 20 21-16 47-25 97-19 149 10-11 19-21 28-31 0 31 16 57 99 76 4 1 6 1 10 2-5 36-4 73 2 110-77-11-140-18-123 4-18-14-36-21-53-26-22-6-43-7-64-4s-41 11-60 23-38 28-55 56c24 23 47 32 69 39 22 6 43 7 64 4s41-10 60-22 38-28 55-56c3 2 6 4 10 7 164 106 339 65 211 138-24-25-49-37-74-45-26-7-53-9-79-5-25 3-50 12-74 27-22 15-44 34-60 65 31 18 56 24 81 29 22 3 43 3 64 1-50 25-87 45-96 60-10-1-22-1-34-1-60 0-112 7-160 18-48 2-95 8-142 16-83 13-164 34-243 61-40 14-77 28-117 46-21 9-47 22-69 45-3 3-5 7-8 10-35 24-66 52-91 81-18-1-35 2-53 10-15 7-33 21-44 39-12 17-19 38-20 63 0 19 5 40 17 59-14 7-26 14-38 22-46 32-85 75-114 123-58 96-83 201-110 296-43 158-95 310-208 429-98 50-186 102-140 135 8 6 15 9 22 13-16 5-25 11-33 13-3 8-27-5-17-25-12-4-27 9-30 23-5 14-4 32 9 49 23 27 56 33 77 36 20 3 41 4 61 3-29 59-40 122-37 186-41 66-84 133-118 210-36 82-65 175-52 276 6 50 30 102 66 136 17 15 34 27 52 37v9c0 30 0 61-47 157-7 3-15 7-22 12-30 20-65 64-47 122 2 5 4 8 7 12-9 46-8 95 1 141-7 8-15 15-21 23-12 19-21 41-25 67-5 25-2 57 11 84 12 27 35 54 68 67 32 13 67 9 88 0 47-19 64-46 100-71-18-13-38-18-58-20 101-77 30 26-6-130-17-76-7-163 9-240 9-14 14-36 11-50 14-61 29-112 29-138 0-6 1-12 2-19 30-87 67-162 111-236 31-53 65-105 98-158 21-1 43-8 59-28 18-26 17-56 6-81 39-71 74-146 96-229 12-48 17-100 10-151-6-37-19-73-41-102-2-16-3-28-5-36 19-6 37-21 47-40 12-21 18-43 24-64 9-45 16-78 30-113 20-51 48-101 75-155 7-1 14-3 22-5-4-6-8-10-12-14 7-13 13-26 19-40 36-77 63-157 82-240 7-30 12-61 16-92 34-76 57-127 57-127s39-129 174-165c3 0 5 1 7 1-1-1-2-2-2-3 19-5 41-7 65-8 13 9 27 15 42 19 25 14 51 24 76 31 37 11 75 16 112 18 37 1 74 0 117-12 22-6 43-16 62-30 3-3 6-5 8-8 12 0 24-1 35-2 14 15 29 24 44 30 20 8 40 11 60 9 18-1 36-8 53-18-12 28-22 57-29 86-13 45-20 96-14 145 4 32 16 65 36 90-73 14-184 66-224 248-60 85-95 185-109 286-7 51-10 102-8 152 3 50 4 103 22 156 16 53 53 105 97 135 25 16 50 28 75 38 12 29 22 47 29 56-7 8-15 15-23 23-61 23-178 96-145 310-10 54-13 110-9 165 7 100 41 199 92 282 49 81 112 151 186 209-58 59-215 254-89 525 7 14 14 28 20 42 24 61 56 118 96 169 78 122 144 186 173 211 3 7 7 15 11 21-5 11-14 31-22 59-19 41-32 86-37 132-9 85 4 172 37 251 32 80 82 151 150 206 25 21 54 37 84 50 53 77 54 77 54 77s326 551 584 467c2 1 3 2 6 3 21 9 55 12 82 5s46-19 62-31c31-22 54-43 78-68 47-48 89-99 125-153 37-55 70-105 102-166 30-60 34-132 10-190 14-8 30-18 48-31 33-15 65-34 94-60 40-33 70-73 99-111 28-39 52-77 78-118 24-41 47-85 64-133 16-48 27-98 29-148 4-49 1-98-6-145-4-24-8-47-14-70-3-9-4-19-8-29 40-26 103-81 149-185 30-50 55-104 70-161 24-85 30-174 22-260-3-43-11-85-22-127-5-18-11-37-17-55 50-13 162-70 175-316 49-91 68-199 65-297-4-104-21-197-45-296-13-49-33-100-65-144-18-23-40-44-64-60 22-13 44-27 66-42 84-60 89-153 45-216 3-16 4-34 5-52 4-24 8-49 13-73 8-48 10-102 2-154-16-106-69-198-134-271-50-57-107-105-170-145 62-40 70-106 45-163 1-7 2-14 3-20 1-37 3-72-3-110 66 6 144 13 218 15 18 11 39 17 61 19 37 9 75 15 114 16 34 1 69-3 102-10 6-2 12-3 18-5 17 3 31 6 43 9 13 65-1 130-6 200l-27 264-12 133c-3 46-9 100 10 154s49 86 60 120c12 35 9 79-13 120 26-14 47-39 59-70 1 43-3 80-11 115-8 32-16 96-21 171-5 31-11 63-15 95-12 93-25 182-22 283 3 49 10 102 30 152 19 51 51 97 85 132 68 72 143 116 194 198 0-6-1-11-1-17 2 8 5 16 6 24 23 116 3 79 1 208-8 40-9 81-2 121 4 22 10 44 18 64l5 10c-2 2-4 4-5 6-13 15-20 34-20 53 3 29 23 47 43 50-3 36-18 69-52 99-39 35-85 60-121 77-64 30-95 36-2 23 1 26 18 51 41 66 29 20 71 25 109 9s63-51 69-85c3-22-1-45-11-63 36-37 56-94 62-186 1-12 0-22 1-33v-17c0-154-45-203-1-292 47-94 105-64 87-279 9-44 1-82 0-123-4-41-11-77-18-116-13-76-32-152-55-226-7-24-16-49-25-73 0-5-1-9-1-14-11-159 52 42 12-72 9 0 17 1 26 0 31-2 65-16 87-41 20-24 29-59 14-83-14 23-33 31-50 34-16 4-30-2-46-6-22-9-48-22-75-37-2-4-3-9-5-13 9 2 18 2 27 1-13-5-24-12-33-21-18-52-33-97-47-139-1-35 1-71-2-109-6-108-23-216-50-320s-63-206-105-304c-20-49-43-97-66-144-8-84-2-138-50-197 5-15 8-31 7-46-2-31-14-54-27-73-26-36-64-61-101-73-45-13-86-17-125-17-8-2-16-4-25-6-1 0-3-1-6-2s-15-6-18-6c-9-6-24-17 4 5-34-27-65-46-109-46-38 0-83 17-109 46-4 4-7 8-11 13-46-1-94-3-142-5-6-7-11-16-14-27 2-1 3-2 5-4 19-21 37-44 56-78-18-7-34-10-50-11 36-124 118-174-35-174-55 0-117 8-172 15-5-9-10-17-16-25 39-29 70-57 103-86 35-32 71-62 109-104-16-1-31 1-45 4-4-10-23-14-65-11-47 3-104 18-158 33 3-27 3-53 0-78 36-24 71-53 102-88 13 8 27 17 42 22-4-22-8-41-11-61 6-9 14-19 20-29 21-33 38-61 53-84 18 12 35 26 51 46 11-25 6-55-3-82-3-7-7-14-10-21 17-26 29-42 36-55 26 3 53 6 79 8 49 37 115 46 173 13 11-6 21-14 31-22 10-2 20-5 29-7 38 29 73 60 108 94 13 19 25 37 38 55 68 99 140 199 231 286 26 25 54 49 83 71 252 294 648 245 648 245s58 14 149 35c161 89 344 140 528 159 237 27 475 2 705-38 8-2 15-4 23-5 68-9 132-23 189-40 44-9 90-20 136-40 61-25 124-72 156-140 16-33 25-73 20-113-6-41-24-75-44-102-41-53-82-87-124-129l-127-121-4-4c-39-40-66-66-66-66s3 2 8 3c53 58 113 111 186 152 115 62 249 87 377 78 107-6 210-36 304-80 16 0 31-1 46-2 419-33 436-385 436-385l4-2c1 5 1 9 2 14 25 15 42 18 57 19s27-2 37-9 17-17 22-31c3-11 5-23 4-39l92-36s181-45 347-220c43-37 82-82 111-132 74-123 99-276 67-420zm-5665 6319c-7 7-13 15-20 22 1-5 3-10 4-15 6-12 11-23 17-35-1 9-1 18-1 28zm587-7443c-7 3-14 6-20 10-72 50-113 126-103 211-10 6-20 11-30 17-22 15-42 31-61 48-9 0-17 1-24 1 30-19 55-43 74-72 23-36 33-80 24-117 7-11 17-23 26-34 36-17 68-43 93-73 24-30 43-63 56-97-8 31-14 63-20 95-5 3-10 7-15 11zm-1852 2973c-54 36-55 7-70-32 18 1 36 1 56-1 18-2 37-4 61-8-5 9-19 22-47 41zm3417-2069v4c-1 0-1 1-2 1 0-2 1-4 2-5zm-3719-624c-1-1-3-2-4-3 1-1 1-2 2-3 1 2 2 4 2 6zm-1678 403c4 1 6 1 10 2 28 17 56 24 74 58l-156-45c28-14 52-15 72-15zm-2378-308c112-2 223 11 334 29-193-8-447-14-681 14 116-24 231-43 347-43zm-1015 548c-4 28-7 56-8 85-4-28-1-55 8-85zm1661 1236c10-7 15-12 15-12s-1 4-2 10c-4 0-9 2-13 2zm2531 242c2 1 6 3 12 4 0 0-1 1-1 0-4 0-8-1-11-4zm1114 157c29-37 53-74 75-109 28-11 17-29 76 23 0 11 11 27 38 49 1 0 1 1 2 2 0 9-2 18-2 27s1 18 1 26c-42 4-120-8-190-18zm-1624 1997c1-1 1-2 1-4 0 2 0 3-1 4zm352-294c-3-13-5-18-5-18s6-15 21-49c1 23-1 46-16 67zm1231-790c9-39 25-76 44-114 9-17 19-34 29-51-11 45-18 83-22 114-22 44-26 94-7 135-2-1-19-2-45 0-7-28-5-57 1-84zm-204 1020c-28-35-40-71-45-112-4-41-3-86 0-132 1-14 2-26 3-39 16 137 35 232 53 297-4-5-8-9-11-14zm130 1039c32 49 53 70 53 70s-7 6-18 17c-11-30-23-58-35-87zm1505 1847c3-13 4-27 3-40-1-16-5-31-10-46 8-23 13-38 13-38s17-6 44-21c-1 55-19 105-50 145zm412-963l-4 22c-5-21-11-31-11-31s7-2 18-8c-1 5-2 11-3 17zm327-1725c-24-93-48-153-63-187 1-1 3-1 4-2 40 56 53 122 59 189zm192-1722c-1 0-3-1-5-1 2 0 4 0 5 1zm-6-1c-1 0-1-1-2-1 1 0 1 1 2 1zm-347 25c-5-1-10-4-15-6l15 6zm-291-356c14-8 27-15 40-23-7 14-12 29-15 45-7-8-16-15-25-22zm-23-130c-82 23-159 46-191 36 2-11 4-22 5-33 43-11 90-27 136-50 15 16 31 32 50 47zm3573-197c-8-1-17-3-25-5 8 2 17 3 25 5z"/></g><g fill="#8A6B4F"><path d="M12256 15880c-24-245-85-343-97-526s73 110-12-146c-86-257-123-343-172-611-48-269-97-294-122-440-24-147 13-208-110-306-122-97-110-85-281-122-171-36-366 49-342-110 25-159 147-220-24-220s-428 74-257-24 330-196 171-183c-159 12-427 146-354 12 73-135 293-171 61-183-232-13-501-25-782 0-281 24-586-135-476-13s219 232 110 196c-110-37-306-61-184 36 182 145-464-48-293 62s354 61 196 146c-104 56-208 96-223 124-10-1-21-2-34-2-232 0-354 110-525 123-171 12-294 122-355 219-61 98-61 159-61 159s-134 61-146 257c-13 195-74 391-123 452-48 61-415 183-329 244 85 61 158-24 146 61-12 86-12 159-73 306-61 146-208 232-147 391s74 171 74 207c0 37 0 74-86 233-86 158 24 452 134 366 110-85 37 25 0-134-36-159 49-367 49-428s61-146 135-318c73-171 195-207 207-452 13-244-12-293-12-293s37-85 135-330c97-244 232-537 232-537s61-208 305-171c244 36 550 0 550 0s61 49 391 36c330-12 1014 13 1014 13l452-37s257 37 452 37c196 0 306 36 306 36s-86 391-25 599 73 330 49 427c-24 98-49 465 37 624 85 158 195 293 220 415 24 122 0 73 0 232s97 281-13 379-281 122-110 98c171-25 245-61 257-257 12-195-49-244 0-342s110-61 85-305zm-2993-2187c-76 50-47-28-99-81 135 18 201 13 99 81zM12660 11510s91 298-103 337c-195 39-273 0-273 104 0 103-25 194-90 168s-221-78-298 13c-78 91-65 104-117 156s-104 52-208 104c-103 51-103 90-181 116s-246-91-337-52-363 221-169 286c195 64 597 116 700-39 104-156 143-182 143-182s52 65 194-13c143-78 156-129 195-155s91 129 168-26c78-156 13-117 130-156s117 26 195-130c77-155 168-389 51-531zM7500 12003c169 64 169 38 234 181 64 143 52 117 194 195 143 77 104 142 221 207 116 65 181 104 350 156 168 51 116 51 233 77s220 104 350-26c130-129 169-259-259-298 0 0-195 13-286-65-90-77-142 26-194-142-52-169-130-104-220-182-91-78-156-129-247-142-90-13-39 0-155-65-117-65-156 39-182-130-26-168-39-168-104-298-64-130-233-182-181-104s130 26 130 195c0 168-52 376 116 441z"/></g><g fill="#fff" fill-opacity=".38"><path d="M11078 11678s753 134 1357 33c603-100 1256-268 1909-402 654-134 1039-84 1424 117 386 202 536 553 352 838s-452 352-452 352l-218 84s-17 352-436 385c-418 34-921-151-921-151s402 369 302 553c-101 184-503 235-872 218-368-17-971-168-971-168s-402 51-654-251c-251-301-409-550-740-643-332-94-868-915-80-965zM8715 11745c-340-32-1491-218-1976-335-486-118-1073-268-1475-285s-1105-34-1290 268c-184 302-117 905 386 1122 502 218 569 252 569 252s-117 301 185 268c301-34 452-168 452-168s-84 503 251 637 620 151 938 100c319-50 670-201 670-201s84 51 336-67c251-117 318-217 318-217s67 67 385-168 168-268 486-302c318-33 1005-787-235-904z"/></g><path fill="#FFD84F" d="M9330 10946s-305-88-457 304-233 575-196 696c87 283-109 283 22 436 130 152 130 87 174 304 43 218 65 174 174 261s-65 174 131 218c195 43 21-109 282 130 262 240 131 196 131 196s-239 87-326 392c-87 304-66 391-66 391s-348-43-304 501c43 544 130 587 130 587s-283 44-152 436c131 391 261 522 261 522s-261 217-109 544c153 326 305 435 305 435s-131 217 65 500l196 283s348 588 609 457 392-566 392-566 239-87 348-413 43-435 43-435 196-66 240-392c43-326-22-413-22-413s239 0 196-479c-44-479-152-653-152-653s217-65 152-457c-65-391-370-522-370-522s152-22 43-304c-108-283-413-414-413-414l-196-239s370 22 544-261 131-153 153-348c21-196-44-218 87-283 130-65 239-22 108-196-130-174-326 0-130-174s130-129 130-283c0-370 153-457-87-435-239 22-348 65-283-65 66-131 218-240 66-218-153 22-261 22-261 22l-305 43-522-65-631-43z"/><path fill="#8A6B4F" d="M9460 10989s-369-131-369-239c0-109-153-218-44-479s196-261 196-261 65-218 348-370 283-130 370-130 391 65 391 65 109 0 283 152 261 348 261 348 174 0 240 196c65 196 87 283-66 435-152 152-174 261-174 261l-304 66s152 239 217 652c66 414 44 675-152 914s-457 326-674 283c-218-44-523-152-675-500-152-349-109-457-109-457s22-718 261-936z"/><path fill="#8A6B4F" d="M9129 11102s-208-134-257-146-49-147-61-184c-12-36-122-464-232-549-110-86-183-74-183-74s24-134-37-146-73 36-98-110c-24-147-183-330-220-220-36 110 122 305 159 318 37 12-12 61 61 183l74 122s-172 98 36 440 332 430 502 514 402-13 256-148zM11487 10247s-281 147-318 342c-37 196-85 379-159 477-73 97-122 207-49 256 74 49 367-244 452-427 86-184 123-220 135-379s24-306 24-306 37-97 37-171v-110s293-122 195-171c-97-48-171 25-183 61-12 37-85 49-134 110-49 62-61 208 0 318z"/><g fill="#CF9A48"><path d="M9298 14346c610 102 1219 179 1800-84 180-82 24-347-156-266-496 224-1044 140-1562 52-194-32-277 265-82 298zM9069 15236c173 61 355 95 542 110 594 111 1278 148 1747-185 146-104 55-309-119-282-495 78-1074 203-1605 158-154-30-300-64-430-96-21-6-42-6-60-4-182-56-258 234-75 299zM11159 15617c-633 327-1353 280-2039 199-126-14-178 140-133 232 21 45 52 82 89 115 8 35 31 67 75 88 143 71 308 95 475 100 133 14 262 16 361 18 446 10 874-95 1277-282 86-40 92-135 52-205 173-92 18-356-157-265zM11160 16614c53-138-118-227-226-174-487 233-1017 316-1552 237-79-12-139 31-170 88-73 24-130 115-101 188 169 426 653 379 1039 339 177-19 498-29 674-148 170-63 321-161 352-349 9-51-6-102-34-139 6-14 13-28 18-42zM10639 17374c-341 74-682 148-1023 221-82-26-187 16-205 103-32 73-9 172 68 208 90 95 249 116 394 118 5 0 11 1 16 2-5 10-9 21-12 34-37 156 79 298 226 321 21 16 44 28 70 34 87 22 161-13 226-69 111-96 176-273 76-397 153-42 282-118 356-248 27-49 23-103-1-148 10-95-68-206-191-179z"/></g><g fill="#5B3F1C"><path d="M11066 15925c-565 269-1140 268-1748 191-196-24-194 284 0 309 668 84 1288 59 1904-233 179-86 22-351-156-267zM10824 16801c-341 139-980 396-1335 206-163-87-308 137-187 244 14 64 61 122 143 130 548 53 1089 50 1529-323 114-96-8-315-150-257zM10585 17572c-213 41-427 83-640 124-39 1-77 2-117 2-46-1-81 16-106 41-37 7-75 15-112 22-195 37-112 335 82 297 94-18 189-37 283-55 236-10 468-54 692-134 188-66 114-335-82-297zM10281 18154c-14-1-28-1-42 0h-104c-80 0-157 71-154 154 3 69 48 129 112 148 27 21 60 35 95 34 32-2 59-11 84-28h9c81 0 158-70 154-154-4-91-68-144-154-154zm1 302h-1c5-4 11-7 16-11-8 5-13 9-15 11zM11121 15211c74-33 32-142-38-143-327-6-631 156-958 179-347 25-687-33-1013-152-65-23-104 42-90 95-45 32-50 119 20 141 694 222 1415 177 2079-120zM9291 14335l213 12c120 22 240 29 363 21 99-7 99-148 0-154-50-3-100-6-151-9-10-24-32-43-67-43h-274c-22 0-40 8-52 21-11-1-21-1-32-2-99-6-99 149 0 154zM10340 14397c64-8 125-20 186-35 80-10 156-32 232-67 13-5 22-13 28-22 16-7 31-13 46-20 79-39 24-166-59-141-115 35-229 70-344 105-11 4-20 9-28 16-20 3-40 7-61 10-97 11-98 166 0 154z"/></g><g fill="#FFEDB5"><path d="M10112 14052c64 37 137 56 212 38 85-19 154-84 184-164 4-3 9-6 13-9 75-60 51-201-31-242-28-14-57-24-86-32-35-18-75-28-118-27-24 0-46 4-68 9-72 8-142 31-204 75-58 42-82 102-71 161-6 59 29 125 77 154 29 17 60 29 92 37zM10455 14967c160-31 367-130 310-328-14-47-56-99-108-108-39-6-78-10-117-12-1 0-2-1-3-1h-14c-110-4-219 8-328 44-22 7-41 18-56 33-4 0-8 1-12 2-22 3-40 13-56 27-94 57-81 230 36 278 95 76 220 89 348 65zM10547 15468h-1c-16-20-35-37-55-50-107-66-253-15-289 107-21 70-1 145 45 199 30 72 106 117 185 95 65-18 131-36 197-54 78-22 133-111 107-190-28-88-103-119-189-107zM10417 16491h-26c-80 0-158 71-154 154s68 154 154 154h26c80 0 158-71 154-154-4-84-68-154-154-154z"/></g><g fill="#5B3F1C"><path d="M10363 11016c-57-30-116-55-177-74 8-2 17-5 25-7 41 20 85 18 124 1 33-1 68-12 98-32 19 16 39 31 60 46 8 5 16 9 25 13 67 61 149 90 239 37 290-170-167-404-116-473 118-159-149-313-266-155-3 3-4 7-7 10-15 4-30 9-45 16-35-13-77-13-126 5-71-61-134-73-189-54-64-80-201-91-254 1-93-132-339-55-277 119 34 93 18 173-56 241-137 126 48 326 191 238 35 7 71 3 104-19 9-6 17-12 26-18 13 12 28 23 44 32-44 19-84 47-119 86-220 53-381 171-421 472-41 312 63 620 246 870-37 60-39 143 23 199 5 9 11 18 18 26 71 86 160 148 263 185 8 6 17 12 27 17 42 25 84 50 127 74 68 38 153 11 201-43 144-18 281-78 393-177 20-8 40-21 57-43 8-10 15-21 23-32 0 1 1 1 1 1 1-2 3-5 4-7 44-61 83-127 115-197 167-288 316-592 131-920-134-239-301-378-512-438zm-578 292c92-24 208-15 304-21 69-5 137 6 199 27 81 51 145 133 187 217 99 204 95 486 0 705-1 1-2 3-3 5-30 3-59 17-85 43-20 22-41 44-63 67-95 35-176 94-248 176-20 1-40 0-61-2-24-15-48-30-72-46 5-39-8-81-47-117-188-175-324-398-347-659-18-202 4-335 236-395zM7880 15190c0-65-48-134-113-149-67-15-139 10-174 71-50 85-61 181-40 277 13 59 70 102 128 110 65 9 116-22 153-74 40-54 53-125 46-192v-43zm-307 81c-1 7-2 11 0 0zM8801 13628c-39-9-78-4-112 12h-5c-23 0-47-1-70-1-81-1-158 72-154 154 3 85 67 153 154 154 39 1 78 2 117 2 76 1 146-31 177-105 36-85-13-195-107-216zm-72 13c14-4 16-1 0 0zM11526 13688c-2 0-3-1-7-2-3-1-15-6-18-7-9-5-24-16 4 5-34-26-65-45-109-45-38 0-83 17-109 45-51 56-68 165 0 218 18 15 36 27 54 38 27 31 67 51 114 52 18 1 36 1 54 1 81 2 158-72 154-154-4-84-60-137-137-151zm-8-1c-2-1-4-1-6-1 2 0 4 0 6 1zm-7-2h-2 2zM10789 13329h-15c-81 0-158 71-154 154 3 84 67 154 154 154h15c80 0 157-71 154-154-4-83-68-154-154-154zM11972 15134c-90 0-145 71-154 154-2 24-3 48-5 72-5 14-8 28-9 43-2 27-2 55 0 81v88c-1 88 61 137 130 146 25 7 52 8 76 1 85-23 125-108 108-190-3-11-3-23-4-35 2-68 5-137 12-206 9-83-76-154-154-154zM11384 12816c50-28 90-78 102-135 17-79-23-170-107-190-70-16-152 16-182 84-46 49-61 128-24 186 46 71 136 98 211 55zM12039 12414c2-6 2-14 3-21 1-3 1-7 2-11 0-3 1-7 1-10 2-42-13-84-43-120-29-34-79-51-123-50-67 1-122 41-148 102-1 3-2 7-4 11-18 24-28 54-27 87 4 79 68 161 154 154 89-6 158-55 185-142zM12489 12043c-47-74-133-95-210-56l-30 15c-72 36-98 144-55 211 47 74 133 94 211 55 9-5 19-10 29-15 72-36 99-144 55-210zM8098 12142c-33-62-107-103-178-80-72 24-124 97-110 174-3 20-2 41 4 61 22 67 77 107 143 111 67 20 147 1 182-67 37-70 20-151-41-199zM8530 12675c57-57 61-162 0-218-61-57-157-61-218 0l-15 15c-57 57-61 161 0 217 62 57 157 61 218 0 5-4 10-9 15-14zM8522 11011c31 54 94 82 154 74 54-7 120-51 128-110 6-44 10-84-4-127-12-40-34-77-65-106-11-11-25-20-40-27-49-38-121-48-174-14-71 46-98 136-55 211 18 33 37 66 56 99zM11308 10994c2-10 4-19 7-29v-1l6-12c9-11 17-23 25-35 44-63 17-155-40-199-51-40-139-45-191 2-6 3-13 6-20 10-82 57-123 146-97 245 6 23 17 43 32 60 19 32 48 57 88 66 77 18 173-23 190-107z"/></g><g fill="#BCA795"><path d="M9141 10222l-15 15c-57 57-61 162 0 218 61 57 157 61 218 0l15-15c57-57 61-161 0-218-62-56-157-61-218 0zM11085 10299c-16-25-40-46-67-59-1-1-1-2-2-3-26-26-70-46-109-45-40 2-81 15-109 45-29 33-39 66-45 109-8 62 23 115 59 161 40 50 136 59 187 24 10-7 21-14 31-21 67-45 103-137 55-211zM9893 10083c110-36 202-144 152-264-39-91-133-134-228-140-89-5-165 30-234 84-66 51-49 149-6 208 2 7 6 14 10 21 0 1 1 2 1 3 3 5 7 9 10 14 12 17 26 32 44 43 74 46 168 58 251 31zM10477 9782c-49-37-116-40-173-27-16 3-31 11-45 20-49 16-92 52-105 105-14 62 8 145 71 174 84 38 171 43 252-5 46-28 76-79 76-133 0-60-32-99-76-134zM10321 11865c-64-59-151-57-216-1h-1c-10 7-19 15-28 22-7-28-21-55-43-76-36-36-93-56-145-49h-3c-4 1-9 2-13 3-5 1-10 1-14 3-83 26-126 105-108 189 4 18 8 35 11 52 13 60 71 103 128 111 53 7 102-13 136-51 5 14 11 28 18 40 24 39 59 59 101 76 33 14 73 7 105-9 38-9 72-32 89-69 14-30 21-60 22-89 14-53 1-115-39-152z"/></g><g fill="#fff"><path d="M9235 10161c-11 0-22 2-32 6-32 1-67 22-72 55v4c-4 8-8 17-11 27-2 8-3 15-3 23-2 12-2 24 1 37 16 56 81 85 133 60 10-3 20-8 29-15 18-12 32-29 39-52 1-4 1-8 2-11 1-5 3-10 4-15 6-54-29-119-90-119zM10975 10268c-55-32-127-6-158 47-30 50-17 124 36 154 43 25 88 10 118-22 15-8 28-19 37-33 29-48 17-117-33-146z"/></g><g fill="#16230F"><path d="M9739 10556c-4-90-35-181-98-244 20 86 34 165 37 246 4 82-5 161-18 249 59-68 82-161 79-251zM9755 10868c39-52 55-113 61-174 4-62-2-125-33-182-18 62-23 119-29 177-3 58-7 115 1 179zM9855 10659c-2 57-7 112-3 175 42-48 60-110 64-172 3-61-8-125-46-177-10 63-11 118-15 174zM9973 10707c1 39 2 76 17 120 33-34 43-77 44-120 0-42-11-86-44-120-15 45-16 82-17 120zM10196 10675c-4 40 0 81 26 118 23-39 29-74 35-111 3-36 5-72-7-115-35 29-49 69-54 108zM10382 10690c-1-45-2-88-18-138-33 42-43 90-44 137 1 48 10 96 41 138 17-49 19-93 21-137zM10483 10519c-26 48-28 101-21 151 9 50 29 99 69 137 5-54-1-100-8-147-9-46-17-92-40-141zM9592 10079c-1-35-16-56-33-74-19-17-41-30-76-30 1 35 16 56 33 74 19 17 41 30 76 30zM9632 9930c-16-14-38-24-68-14 3 31 14 46 27 59 15 12 31 21 62 22 7-31-5-52-21-67zM9714 9930c-1-31-11-44-23-56-13-10-28-17-58-14-6 29 4 47 18 61 15 12 35 19 63 9zM10445 9912c-24 25-40 62-28 100 34-20 53-38 72-58 19-21 36-41 54-76-39-9-74 9-98 34zM10530 10073c32-19 49-36 65-55 15-20 28-40 39-76-38-5-67 14-87 38-19 24-31 58-17 93zM10681 10097c7-17 11-35 1-65-31 4-47 21-57 40-8 20-10 44 8 69 29-13 40-27 48-44zM9302 11797c13 102 45 203 105 288-14-102-33-198-44-295-13-97-19-194-29-297-38 97-44 202-32 304zM9531 11973c-10-65-17-129-34-199-32 65-36 138-27 207 10 70 35 138 83 192-3-72-14-135-22-200zM9693 12248c-9-57-24-103-38-151-16-47-30-93-55-145-24 53-20 111-4 164 17 52 47 102 97 132zM9885 12317c-16-47-37-81-58-117-22-34-42-68-77-104-13 49 1 96 25 136 25 40 61 74 110 85zM10029 12310c-6-39-18-64-32-88-16-25-31-47-62-71-17 36-8 72 9 102 18 29 45 54 85 57zM10236 12103c-31 30-44 65-53 100-6 36-9 72 7 113 32-30 45-65 54-100 6-36 9-72-8-113zM10306 12261c37-28 54-65 65-104 9-40 11-81-9-123-29 36-41 71-51 108-8 37-14 74-5 119zM10442 12165c47-27 75-71 92-118 16-47 22-99 3-150-29 45-45 87-61 129-14 44-28 86-34 139zM10626 11893c-7 57-16 113-17 177 46-46 68-107 78-168 8-61 4-126-27-183-18 62-25 117-34 174zM10737 11826c1 45-1 88 4 141 41-36 57-89 58-140 0-52-15-106-55-143-7 54-5 97-7 142zM9493 12474c12-41 16-71 21-103 4-31 8-61 8-104-41 17-63 56-69 96-5 40 5 84 40 111zM10263 12636c-14-75-40-149-89-211 4 79 17 149 28 221 13 72 24 143 46 218 27-74 27-152 15-228zM8974 12969c-19 27-37 52-49 92 42-1 74-25 97-54 22-29 38-66 29-108-36 22-57 45-77 70zM11156 12822c-5 33 0 52 7 71 9 18 20 34 47 54 21-27 19-55 10-79-11-22-31-43-64-46zM11058 13549c30-34 59-67 84-114-53 7-96 37-130 73-32 37-58 82-61 135 45-29 75-61 107-94zM11120 13199c-57-3-109 23-150 58-40 37-72 85-76 142 46-32 80-64 117-96 36-32 71-62 109-104zM11279 11171c-40-3-69 9-96 25-26 18-49 39-63 77 40 3 69-9 96-25 26-18 50-39 63-77zM11476 12369c-18 6-35 18-45 35s-13 40-1 56c14-13 25-18 36-22 10-4 20-8 29-11 20-8 47-12 78-34-13-14-28-22-44-26-17-5-35-4-53 2zM11671 12658c-6 6-12 11-19 18-8 6-16 14-31 23 9 16 27 23 43 23 17 0 33-6 46-16 12-11 22-25 25-42 3-16 0-35-14-46-12 12-21 19-29 25-8 5-14 10-21 15zM11998 12466c-37 9-57 20-79 33-21 14-40 28-65 56 33 20 70 13 98-4 27-17 49-47 46-85zM12157 12231c-2-30-18-44-35-51-18-7-39-7-62 12 12 28 24 38 39 45 15 5 31 7 58-6zM15649 12475c-17-8-36-13-64-1 4 30 17 44 32 54 17 9 36 13 64 1-4-30-17-44-32-54zM15714 12408c-11-3-22-2-46 11-3 28 11 41 25 47 16 5 35 3 50-21-11-25-19-32-29-37zM13896 12653c-38 4-75 10-114 33 38 25 79 30 119 28 39-3 79-13 114-44-43-18-80-19-119-17zM13364 13426c-2 35 12 59 31 77s43 31 78 26c-5-34-19-53-36-71-18-15-38-28-73-32zM13568 13491c-13-32-26-47-41-61-17-13-33-23-66-31-9 33 6 60 26 78 21 17 49 28 81 14zM7474 11917c-3-23-13-47-43-61-17 28-19 47-18 68 3 20 9 39 31 62 26-20 32-45 30-69zM4927 11708c28-28 65-49 105-67 80-38 163-71 247-115-95-4-188 21-274 60-42 20-87 48-116 92-29 42-39 101-14 143 1-47 24-85 52-113zM5316 11751c57-43 104-85 156-123 51-40 104-74 161-118-72-3-141 26-198 69-56 43-103 102-119 172zM4606 11951c-49 6-97 17-144 28-95 24-183 49-282 65 48 17 99 21 149 18 51-3 100-13 147-24 96-24 184-54 280-82-49-11-100-10-150-5zM7105 13230c-23 37-43 77-46 127 44-23 73-57 98-93 23-37 42-76 46-126-44 23-73 56-98 92zM6340 13399c35-2 54-13 72-28 17-16 32-33 39-67-34-7-59 4-79 21-19 17-34 40-32 74zM6300 13256c-37-11-67-5-95 5-27 13-52 29-70 63 36 11 66 5 94-6 27-12 52-28 71-62zM9290 14113c1 33 9 66 26 94 17 29 43 53 74 61-15-28-23-54-29-79-6-26-9-52-9-77-2-53 8-107 7-171-44 46-69 106-69 172zM9457 14030c-28 41-38 87-30 137 5 24 15 48 31 67 17 20 40 35 65 36-11-23-17-41-23-60-5-18-10-36-13-55-8-37-10-79-30-125zM9545 14200c16 32 46 61 87 63-9-39-19-63-31-90-13-25-25-49-50-81-24 33-21 74-6 108zM9679 14161c-8 36 7 65 27 86 22 20 51 35 86 26-12-34-26-52-43-70-18-16-36-30-70-42zM9900 14229c-18-14-36-25-70-33-7 35 10 62 32 81 23 17 54 27 86 12-16-31-31-46-48-60zM10051 14291c7-28 0-42-9-53-11-9-26-16-53-9-7 28 0 42 9 53 11 9 25 16 53 9zM10529 14187c-7 13-12 27-5 56 29 4 45-8 56-22 10-15 14-35-1-60-29 4-41 13-50 26zM10722 14182c12-24 17-53 0-84-30 18-43 35-54 54-10 20-18 39-17 74 35-1 57-21 71-44zM10832 14160c-6-2-10 9-2 15 10 6 18 1 23-2 9-7 13-9 18-15 10-9 17-21 22-33 8-25 9-54-13-81-27 21-37 39-45 60-4 11-7 21-7 33 0 5-1 15 1 18 1 2 3 1 8 5 2 3-6 5-5 0zM11038 14083c6-26 4-56-21-80-24 25-32 43-38 64-5 21-8 41 0 74 34-7 51-32 59-58zM9020 15020c11 69 49 137 111 170-24-65-41-120-50-180-10-59-11-117-8-186-49 51-63 127-53 196zM9215 14956c-14 61-9 122 16 180 13 29 31 56 56 77 24 21 55 36 87 37-21-24-37-46-51-69-13-22-26-45-36-70-23-48-38-102-72-155zM9380 15052c-14 47 2 95 29 131 29 36 71 64 120 62-25-41-48-69-71-99-24-30-45-59-78-94zM9559 15120c-8 42 12 79 40 104s68 41 108 29c-24-34-45-54-67-74-23-20-45-39-81-59zM10112 15184c1 28 10 38 22 44 12 5 26 5 47-12-1-27-11-38-22-44-12-4-26-4-47 12zM10626 15119c-8 16-13 33-6 63 31 1 49-15 60-34 9-19 13-42-4-68-30 11-41 24-50 39zM10784 15054c-13 30-24 60-25 102 40-13 64-43 81-76 14-33 21-71 5-110-31 27-47 55-61 84zM10931 15117c46-4 81-35 102-71 21-37 30-83 10-125-29 36-45 64-63 94-17 31-33 59-49 102zM11102 14980c-7 20-11 42-1 73 33-9 48-28 58-49 9-22 12-46-5-76-30 14-42 32-52 52zM9157 16086c-33-56-56-114-80-183-25 70-10 149 26 214 37 64 98 117 171 131-47-56-86-105-117-162zM9520 16278c-34-45-65-78-95-115s-56-74-92-117c-11 56 10 112 44 156 36 42 86 75 143 76zM9680 16267c-22-43-46-72-70-104-25-30-49-59-86-89-8 48 11 92 38 128 29 35 69 63 118 65zM9808 16243c-11-40-29-64-48-88-21-23-42-44-78-61-7 40 9 74 31 101 23 26 54 47 95 48zM9895 16100c-2 38 12 65 29 88 19 23 41 43 78 51 1-38-12-65-29-88-19-23-41-43-78-51zM10229 16177c15-27 9-48-1-65-12-15-30-28-60-25-5 30 0 45 9 60 10 13 23 24 52 30zM10359 16040c-14 26-11 44-4 59 8 15 21 27 50 31 14-26 12-44 5-59-9-15-22-27-51-31zM10611 16040c-10 39-21 76-23 124 44-22 69-63 82-106 13-44 14-92-11-135-24 42-36 79-48 117zM10723 16136c41-24 65-63 79-103 13-42 17-87-3-130-29 38-42 74-55 111-12 37-22 74-21 122zM10897 15984c-12 50-24 100-23 159 44-39 68-91 83-144 13-53 17-110-3-165-29 51-43 100-57 150zM11021 16103c40-35 61-81 75-128 11-48 15-98-4-148-30 44-44 88-56 133-11 45-20 90-15 143zM11153 16087c38-44 56-95 68-146 10-52 14-106-3-162-32 49-46 98-57 149-10 51-17 102-8 159zM9375 17144c32 22 70 36 108 32-31-21-55-44-76-68-21-25-40-51-56-79-34-55-58-119-101-181-4 74 10 147 48 213 20 32 45 62 77 83zM9439 16946c3 59 33 111 72 153 39 40 90 72 150 77-35-47-71-82-106-120-36-36-70-73-116-110zM9845 17212c-30-46-62-79-94-114-33-33-64-67-108-100 1 56 28 104 63 143 37 37 84 67 139 71zM9990 17171c-17-40-42-64-70-85-28-19-59-36-101-40 11 42 37 68 65 90 29 21 63 36 106 35zM10147 17150c-21-34-42-51-65-69-24-16-47-31-86-40 1 40 23 69 50 90 28 19 63 31 101 19zM10352 17159c-15-34-33-52-54-70-21-16-43-29-80-37-1 38 18 65 42 85 24 19 55 32 92 22zM10537 17104c-21-30-39-43-59-57-21-12-41-21-77-27-2 37 20 63 45 80 26 15 59 22 91 4zM10662 17088c-2-33-16-51-33-65-18-13-38-22-70-17 2 33 16 51 32 65 18 13 39 23 71 17zM10791 17034c12-25 5-39-4-49-11-9-26-13-50 0-3 27 1 38 8 45 9 7 20 10 46 4zM9548 17617c-20 63-5 132 27 189 33 56 85 104 150 118-36-54-68-99-96-149-29-49-52-99-81-158zM9870 17909c-28-50-54-88-79-129-27-41-49-82-81-129-16 56 0 114 28 161 30 47 75 86 132 97zM10058 17898c-23-44-48-75-73-107-27-31-52-61-91-92-6 50 15 95 43 131 30 35 71 64 121 68zM10214 17899c0-43-16-75-35-104-21-28-46-54-86-69 0 43 16 75 35 104 21 29 46 54 86 69zM10223 17740c-9 31-2 52 8 71 12 18 28 33 61 39 9-31 2-53-9-71-12-18-28-34-60-39zM10406 17703c-9 36-9 58-7 83 4 24 9 46 27 78 30-22 38-56 35-86-5-30-20-61-55-75zM10571 17719c-1 29-3 56 1 97 39-16 57-55 61-92 2-37-10-78-45-101-11 40-14 67-17 96zM10685 17620c-6 23-8 46 3 79 33-12 48-36 56-61 7-26 8-54-13-82-27 21-38 42-46 64zM9436 10184c-19-18-43-32-69-40-27-7-55-11-89 0 8 34 20 57 32 78 13 20 27 37 43 52s34 28 55 38c22 11 46 21 81 26 7-34 2-63-8-89-10-25-25-48-45-65zM10752 10455c12-51 34-96 67-145 33-48 75-95 112-153-66 16-126 43-182 87-54 42-101 110-117 183-17 72-11 143 3 207 8 33 14 61 31 99 9 18 25 38 47 44 20 7 45 2 53-15-17 5-29-5-36-14-6-10-7-19-6-32 1-23 6-60 7-89 5-62 9-120 21-172zM10066 10560c6 53 19 103 45 152 26-50 38-98 52-144 12-45 26-86 38-133s22-100 17-156c-4-54-23-113-67-149-5 55-16 97-29 141-13 42-28 85-40 133-13 48-21 103-16 156zM10135 10015c24-12 34-21 43-30 7-8 9-15 8-22-1-6-7-11-17-15-11-4-25-7-52-8-23 13-34 22-42 30-8 9-10 16-9 22 2 6 7 11 18 16 11 3 25 7 51 7zM10837 9878c-11-18-23-38-42-58-18-20-47-39-74-47-57-14-104 0-146 26 43 25 83 41 105 62 11 10 16 19 24 32l28 49c21 36 49 71 76 100 27 31 54 52 75 97 33-40 24-102 9-144-15-44-33-80-55-117z"/><path d="M10094 10896c70 50 155 76 237 94 71 16 138 28 206 41 49 64 101 122 143 183 50 68 81 140 103 219s35 164 48 251c6 44 15 90 21 131 7 42 11 84-9 127 42-25 61-79 70-125 0-5 1-9 2-14 34 21 71 33 109 41 46 9 93 11 140 6 46-5 92-17 135-36 43-20 83-45 117-85-51-9-95-10-139-10-43 1-85 4-127 9-42 4-83 11-126 20-34 7-69 16-106 30 4-33 7-65 9-98 0-9 0-17 1-25 32 15 67 22 101 25 44 3 89-3 131-15 42-13 83-33 118-60s67-60 86-105c-48 2-88 10-127 18s-76 18-112 29c-37 11-73 23-109 37-29 12-57 23-88 39 1-34-1-69-5-105 22 6 45 9 67 8 39-1 77-10 112-27 34-16 66-40 91-69 25-30 45-65 50-108-42 7-75 18-107 29-31 11-59 24-87 37-29 13-56 28-84 45-16 10-32 20-49 32-3-22-8-43-14-65-2-8-6-16-8-24 21-3 41-9 59-17 32-13 60-31 86-52 25-21 47-47 65-76s33-62 37-103c-41 5-73 18-103 32-29 15-55 33-79 53-24 21-46 44-65 70-8 11-15 23-22 36-18-40-40-78-67-111 24-7 46-16 67-27 34-18 65-41 92-67s50-56 69-90c19-33 34-70 38-115-43 11-77 30-108 49-32 20-60 43-85 68-26 25-49 52-70 83-13 20-25 40-35 63-7-7-13-15-21-21-15-15-31-28-47-41 6 0 12-1 17-2 17-5 29-11 39-20 10-10 18-22 23-38 1-2 2-5 2-8 19-4 37-9 55-16 46-20 84-51 111-92 25-40 36-92 19-133-23 84-96 120-160 134-65 11-139-5-219-19-82-17-169-21-250-21-83 0-162 2-248 1zm502 145c18 3 36 6 55 7-2 8-2 15-2 23-17-10-35-20-53-30zM10332 9693c-2 2-4 3-6 4-44 28-85 69-98 122 51-17 92-25 135-33 42-7 85-14 130-23 44-9 92-22 138-44 45-22 91-54 116-102l-137 8c43-16 85-36 125-66-51-18-100-24-149-26-48-2-98 1-147 12s-99 30-143 60-83 72-98 124c51-15 92-27 134-36zM11006 9327c95-82 196-161 287-259 91-97 165-213 216-336 26-63 42-124 67-170 16-27 39-52 65-65-26 48-53 97-77 148 57-54 109-113 162-172 3-3 5-6 6-10 5-14-3-30-18-35l-7-2c-39-13-83-7-119 9s-67 44-89 74c-46 60-65 124-93 176-55 110-123 211-203 303-81 91-173 179-259 277-85 98-165 210-195 338 71-109 161-194 257-276z"/><path d="M9204 9314c23 39 40 81 62 129 22 47 47 101 94 145 24 21 53 39 80 50 27 12 52 19 76 26 98 28 198 52 301 66-37-27-76-52-115-74 24 3 49 6 75 7 37 1 74 1 119-8-4-6-8-11-12-16 28-14 52-20 75-24 29-4 55-4 80-2 25 3 52 8 82 18 31 9 63 22 105 38 0-90-78-168-175-178-49-6-99 9-136 39-27 21-47 51-53 84-18-17-37-32-57-44-35-20-72-33-111-40s-79-8-119-1c-27 4-49 12-75 19-24-12-44-25-57-43-25-28-45-68-65-113-20-44-43-96-75-141-33-45-68-86-108-121-79-70-163-127-254-179 55 89 123 167 183 244 29 40 59 78 80 119zM8486 8420l79 94c50 61 99 122 148 186 48 63 96 129 150 195-7-86-33-168-68-244-33-72-75-140-125-202l-6-30-16-60c-6-20-14-48-43-72-33-26-80-36-124 4-23 22-27 57-20 81 6 23 16 37 25 48zm69-53c-8 4-6-2-6-3 1 0 3 1 6 3zM9242 12186c-3 31 3 61 11 89 18 58 41 106 65 157 32 65 69 127 108 188-50 17-95 42-137 71-45 32-87 69-123 112s-67 92-89 145c-21 54-34 112-27 171 42-42 75-82 110-120l100-116c33-39 66-80 97-123 28-40 55-82 76-130 20 29 38 59 59 87l12 15c-49 19-93 48-131 81-44 39-81 85-111 135s-53 105-66 162-18 116-5 176c37-48 66-94 95-140l82-135 79-136c23-41 46-83 67-129 23 28 50 56 81 80-44 32-79 72-109 115-33 48-57 102-74 157-17 56-27 114-27 172 1 58 9 117 33 173 27-55 45-106 63-157 17-52 33-102 49-152 15-50 29-101 43-153 12-47 25-94 33-147 6 4 11 8 17 12 21 12 42 22 63 31-27 38-47 77-65 118-21 52-36 106-45 161-10 55-14 111-11 168 4 56 12 113 34 169 29-53 47-106 62-158 15-53 27-105 36-158s15-106 18-160c2-42 3-84-1-128 25 9 50 16 75 22 8 2 15 3 23 4-7 7-10 16-10 23-42 93-62 188-71 285-4 51-5 102-1 154 5 52 12 104 32 157 30-48 47-98 62-148 14-50 24-100 29-151 12-102 11-205-17-311l-1-4c98 17 199 16 293-10-68-13-133-29-196-49-11-30-18-58-22-87-4-33-5-67-3-101 1-35 4-71 4-108 0-22-1-44-4-66 27 3 54 5 79 3 13 0 25-1 37-2-18 57-20 117-13 175 9 67 29 134 72 190 4-70-4-133-11-197-8-56-16-112-33-170 38-3 76-10 114-23-51-32-100-52-150-69-51-14-96-29-143-44-45-19-92-34-145-50-52-13-105-24-164-24 22 28 47 51 72 72-28 29-45 67-53 106-10 51-4 107 29 151 15-52 22-95 31-140 6-31 12-62 18-97 9 7 17 14 26 20 25 18 54 35 84 50-27 46-42 100-45 153-3 65 11 132 45 188-25-13-49-26-69-42-36-26-65-62-97-106-64-86-128-172-191-260-10-15-21-30-32-45 11-16 18-30 24-45 4-11 9-21 12-34 2-6 4-13 1-15-1-1-2-2-2-3-2-1-3-4-2-4 2-2 8 0 5 4 6 4 12-6 10-13 0-3-4-8-10-10-3-2-8-2-12-2-16 4-22 10-28 14-14 10-24 24-31 39-2 5-3 11-4 16-8-11-16-23-23-34-26-42-51-90-30-144-21 18-35 49-36 79zm531 420c2-47 9-93 17-141 10 4 19 10 29 14 21 6 42 11 64 16-19 56-34 112-38 175 0 39 4 79 19 117 9 24 23 47 42 65-29-10-59-20-87-32-13-6-27-13-40-19-6-68-10-131-6-195zM8899 12299c56-19 111-43 162-74 52-31 101-67 142-115-63 2-121 13-178 25-56 13-111 29-165 47s-108 39-161 62c-52 25-105 50-157 87 62 13 123 12 182 6 60-6 118-19 175-38zM8973 12493c48-32 93-69 132-112 38-43 72-91 94-148-58 20-106 47-155 73-47 27-93 54-138 83s-89 60-133 92c-44 33-88 67-130 111 61 4 119-7 174-25 55-17 108-43 156-74z"/><path d="M9075 12634c39-38 73-82 100-129 27-49 48-100 55-158-50 30-90 63-129 96-39 34-76 68-112 102-36 35-71 71-105 109-34 39-69 78-100 127 58-5 110-25 159-50 48-26 93-59 132-97zM9061 12687c-40 37-78 78-112 122-34 45-66 91-89 148 58-19 107-47 155-77 46-31 90-65 130-103 40-37 79-78 113-124 17-23 32-48 46-74 6-13 12-26 17-40l8-22c2-4 2-9 1-14 0-4-4-11-8-9 5 5-4 11-8 12l-19 11-36 22c-23 15-47 29-69 45-45 32-88 65-129 103zM9998 13232c4-47 3-95-2-142-7-48-16-96-38-145-29 45-45 91-59 138-12 46-20 93-24 140-3 47-3 94 3 142s15 96 38 145c29-45 45-91 59-138 12-46 20-93 23-140zM10150 13373c12-50 17-102 15-154-2-51-11-102-28-152s-40-86-54-139c-38 43-39 107-42 154-1 48-1 96 1 143s5 94 11 142c7 48 14 97 31 150 34-44 53-93 66-144zM10200 13054c0 45 3 88 7 130 4 43 9 86 17 130 8 43 16 88 34 137 33-41 51-87 63-134 10-47 13-96 8-144-4-48-16-95-35-140-20-44-46-86-86-120-8 51-8 97-8 141zM10969 12332c-48-10-98-16-151-6 36 39 75 67 113 94 39 27 78 50 119 71 40 21 82 40 125 57 45 16 90 31 143 38-23-49-55-87-91-120-37-34-77-62-120-84-44-23-90-40-138-50zM11273 12318c-38-34-82-62-128-84-47-22-96-38-147-46-51-7-104-9-158 5 42 36 85 62 126 86 42 24 84 46 126 66s86 39 131 56c45 16 92 32 146 42-23-51-58-90-96-125z"/><path d="M11302 12067c-40-14-81-24-122-32 39 2 78 1 116-6 46-9 92-23 135-51-46-23-90-35-133-46-43-10-86-16-129-20s-86-5-130-3c-45 3-90 7-139 21 37 36 80 57 123 74 20 8 39 13 59 18-27-2-54-3-81-3-51 2-102 7-156 23 1-11 1-23 0-34-41 52-82 92-126 122l-146 91c-49 32-98 64-148 98-49 35-98 70-147 115h26c18 61 35 113 48 169 15 57 23 114 36 179 36-58 39-129 24-194-16-61-49-119-102-155 51-1 100-10 147-24 7 13 11 27 16 42 7 26 14 52 20 78 10 38 19 76 30 116-29 36-58 72-89 105-52 52-108 98-183 133 29 6 59 6 89 2v4c-1 6-1 12-1 19-4 0-8 1-11 2-9 2-13 4-13 6s4 4 13 6c3 1 7 2 11 2-2 81 5 154 16 227 7 42 15 84 25 126 12 43 23 86 45 132 28-42 41-88 50-135 7-46 8-93 2-139-9-74-34-146-78-209 12-1 19-2 26-4 9-2 13-4 13-6s-4-4-13-6-21-4-43-6c-6-8-11-16-18-24 35-7 69-21 100-38 9 39 18 75 27 109l37 123c13 41 27 83 44 125s37 86 69 128c19-49 25-97 26-145 0-49-6-97-21-144-15-48-38-93-69-132-25-31-54-58-89-78l6-3c23-15 44-32 65-50 14 46 32 86 50 124 21 40 43 78 66 115 24 37 49 73 77 108 29 36 59 71 100 105 7-53 0-102-13-148-14-47-34-91-60-131-26-41-57-78-94-109-35-29-73-55-120-70 20-18 39-36 57-56 26 39 56 70 84 99l91 89c29 28 55 54 84 88 30 33 65 74 116 92-11-51-17-93-32-140-15-46-45-94-82-129-36-35-79-62-124-80-41-16-82-27-128-29 15-17 29-35 42-53 11-14 21-28 31-43 28 35 57 64 86 92 33 32 67 61 102 89s70 55 108 81c39 29 76 43 109 84 11-25 6-56-3-82-10-26-22-49-36-69-28-42-62-79-101-110-38-31-82-57-128-75-40-15-82-25-127-26 19-30 36-62 51-95 31 30 64 55 96 78 41 29 83 55 125 80 43 24 87 46 133 65 46 20 94 38 149 49-23-51-58-92-95-129-38-36-81-67-126-93-46-25-94-46-145-59-41-10-83-17-126-17 5-13 10-25 15-39 26-78 29-166 3-242 30-43 49-93 51-144 45 32 92 52 140 70 49 16 99 29 150 37 50 8 101 12 153 11 52-2 104-7 158-24-47-34-95-55-144-72zm-516 134c-13 40-27 78-43 113 0-2-1-4-2-6-7-13-19-25-32-33 2-2 5-3 7-5 24-22 48-44 70-69zm-212 376c-4 6-9 12-13 18 1-27-2-55-8-81-8-29-19-57-37-83-7-12-17-24-29-33 29-10 56-21 83-35l5 13 21 57c9 24 19 47 30 73-17 23-34 47-52 71zm89-125c-2-15-5-29-10-42-9-22-21-42-38-59-2-3-5-5-8-8 11-6 22-11 32-18 12-7 22-15 33-23 5 14 10 25 16 37 7 11 14 22 25 35-4 6-7 12-11 18-11 21-25 40-39 60zM10053 11616c7 61 16 139 65 192 1-69 20-124 32-190 11-64 18-128 20-193 3-64 1-128-6-193s-17-130-40-196c-28 63-44 127-56 191-12 65-18 129-21 194-2 65-1 130 6 195zM11604 9774c-17 26-31 60-29 93-25-6-51-4-71 5-24 12-39 27-51 41-22 30-33 59-39 91-11 63 6 129 50 168 5-57 20-101 42-137 10-17 23-34 35-45 2 4 3 8 4 12 3 7 4 18 6 30l4 35c3 33 4 69 4 106-12-3-25-5-35-4-36 2-61 16-78 26-38 20-73 45-103 73-60 58-108 126-141 199-12 25-22 51-31 77 3-12 6-24 8-37 5-34 8-69 9-102s3-69-5-109c-6-38-27-83-63-108-33-24-84-31-112-4 36 2 57 24 69 47 12 22 11 45 9 73-2 26-9 56-14 89l-15 95c-10 61-21 118-44 170-24 53-56 103-114 144 73 10 148-34 195-92 25-29 43-62 56-97-16 66-26 133-32 200-1 1-3 1-4 3l4 2c-3 34-5 67-6 101 10-28 21-56 31-84l42 29 73 46c14-38-9-77-39-97-18-12-40-17-62-15 15-40 30-80 46-118 26 21 47 36 69 52 27 17 52 34 90 53 4-44-22-81-55-104-28-18-62-28-96-20 19-43 39-84 61-123 33 18 64 29 92 43 19 8 36 18 53 28l18 12c-6 17-12 35-18 52-26 67-55 133-98 188-42 57-99 104-171 129 77 3 155-35 215-87 61-54 106-122 142-191s66-137 93-213c13-37 23-77 29-118 3-21 5-42 6-63 0-22 3-39-6-75-4-16-15-38-35-53 28-32 48-72 59-114 4-14 7-28 8-43 2-14 3-29 2-48-2-18-6-36-15-56-4-8-10-18-17-27 33-6 60-9 90-14 35-6 73-15 111-35 19-9 38-22 56-38 17-17 33-38 42-58 9-19 12-37 18-54 4-17 9-32 24-51-23-9-49 0-70 11-8 5-16 10-23 16 10-23 17-47 13-72-40 20-70 29-101 41s-62 25-94 44c-33 19-66 46-91 82zm11 101c-1 3-2 7-3 10-2-1-4-2-6-4l9-6zm-113 426c4-2 6-3 9-4v18c0 16-1 33-3 49-2 13-4 26-7 38-7-5-15-10-23-14-23-11-48-17-74-18 5-5 10-10 16-14 26-21 53-40 82-55zm-50 275l-1-1c-15-22-37-38-61-50-33-14-68-19-103-15 27-40 55-78 87-111 26 18 51 31 77 44 12 6 24 12 37 17-1 2-1 4-1 5-10 36-22 74-35 111zM8021 9798c1 8 3 14 4 18 1 7 3 14 5 20 18 53 56 97 103 121 22 12 52 19 73 20 17 1 31-2 45 5-1 2-3 2-4 4-13 15-16 30-19 41-5 20-6 33-6 50 0 32 9 64 25 91 13 21 29 40 52 53-15 25-25 51-32 77-13 50-15 101-6 150 18 96 60 176 102 250 42 76 93 149 155 213 62 62 139 113 223 132-149-89-226-238-292-388-12-29-24-58-35-86 42-32 75-59 112-83 29-19 58-35 91-54 13 27 25 55 36 85-43-9-85 15-109 49-25 36-35 86-9 124 24-37 40-62 59-88 18-26 35-48 61-81 2 5 4 10 6 14 20 57 41 113 63 170-42-14-86 3-116 31-30 30-50 75-35 118 33-30 54-51 78-74 22-22 44-42 74-72 31 83 65 165 102 246-6 4-12 7-18 11-24 17-47 45-56 79-4 16-4 36 0 53 6 18 17 35 34 40 16-32 35-36 50-45s29-16 44-27c14-10 28-22 44-36l35-35c10 36 25 64 41 91 18 28 38 52 60 75 23 22 48 42 76 59 26 16 53 30 88 40-1 2-3 4-5 7-11 19-20 39-29 60-19-26-40-47-63-67-31-26-64-47-99-65s-71-32-112-43c-40-9-97-16-135 17 42 21 62 46 92 70 30 26 64 48 99 65 35 18 72 33 111 42 31 7 62 13 95 13-13 39-21 79-27 119-28-29-60-48-92-63-33-16-68-27-104-34-35-6-72-9-109-7-37 3-75 9-114 28 31 32 64 51 97 67 34 16 68 27 103 33 35 7 71 10 108 7 36-2 72-8 111-25-4 27-6 53-7 79-22-9-44-16-65-23-38-11-75-19-113-25-38-5-77-8-116-9-40 1-81 3-127 14 30 37 66 61 104 80 39 19 79 31 121 37 41 6 84 6 126 0 23-4 46-10 68-19 0 37 1 75 3 114-46-15-88-22-130-29-45-6-88-10-132-12s-88-2-133-1c-45 3-91 6-142 18 37 37 81 60 127 78 45 16 93 26 142 28 48 3 97-2 144-14 43-12 86-29 124-58 1 12 1 23 2 35 2 18 6 37 10 56-38 4-75 8-111 11l-162 17c-55 6-109 13-165 24s-113 23-171 48c57 26 114 40 173 48 58 8 117 9 176 3 60-7 119-22 175-47 34-15 67-35 96-60 8 26 18 50 29 72 4 8 8 15 12 22-56 1-109 9-160 18-58 11-113 25-167 38l-163 40c-55 14-110 24-173 39 54 36 117 52 180 58 63 4 126-2 185-17 60-15 117-38 171-67 47-26 92-57 133-96 21 39 42 76 70 113 35 45 86 89 145 92-49-30-75-75-93-123-19-47-34-101-50-151-14-51-24-96-23-147-2-49 1-104 2-158 2-108 4-209 40-302 33-89 93-175 149-267 40 6 79 7 118 6 90-4 173-20 253-29 40-4 87-6 134-21 46-16 91-54 95-101-30 34-70 42-106 41-38 0-77-11-122-15-91-9-178-2-259 2-82 3-156 3-229-21-39-13-78-30-112-56 12 4 23 9 35 11 38 9 82 8 119-8 147-67 178-250 102-351 27 121-47 238-133 260-38 8-82-8-121-40-38-31-74-73-99-119-51-92-70-201-46-307 12-53 33-106 64-154 14-24 32-47 52-69 9-10 19-19 30-21 10-2 28 5 27 21 2-4 2-8 2-13 39-29 68-63 95-93 28-32 53-61 79-86 24-24 51-47 81-67 31-19 64-37 114-47-33-40-92-52-144-45-53 8-101 34-139 72-36 36-61 81-75 126-13 43-19 86-14 133-5-9-14-17-25-19-19-5-38 4-52 12-28 16-54 35-78 57-47 45-85 101-109 164-50 126-37 277 31 396 33 59 77 111 135 151 5 30 17 59 35 84 9 13 20 25 31 36-15-9-30-17-47-24-33-14-69-24-111-22 13 40 32 70 52 98 20 27 43 52 67 73 25 22 52 41 82 58 17 9 35 18 55 25-33 31-62 67-88 106-3-33-13-63-26-90-16-31-37-58-61-82s-52-44-83-60c-29-13-61-24-98-26 5-4 9-9 15-15-25-26-56-34-87-35-18 1-37 5-54 12-23-149-53-295-88-441-20-84-55-173-109-249-28-37-55-72-104-105-24-16-56-29-93-29s-70 16-94 34c-7 6-12 11-17 17 2-11 3-21 5-30 3-25 4-47 4-70-1-10 0-24-2-31 1-7-9 13-26 9-14-4 2-10 15-9 15-2 35 0 52-11-10-16-14-29-23-43-10-11-20-32-61-32-13 1-25 6-35 13-2-7-5-14-9-20-8-12-18-21-26-29-19-15-28-28-39-42 0-1-1-1-1-2 15 6 31 13 48 17-12-48-33-88-56-124-6-10-12-19-19-27-2-3-7-10-14-16 18-13 29-19 38-24 9-4 14-6 15-10 2-3-1-8-5-17-5-10-12-23-18-49-23-16-44-15-61-8-16 6-27 19-32 35-6 15-4 32 5 47 0 2 2 3 2 4-7 1-14 2-21 4-2-5-4-9-6-13-6-10-15-16-24-17s-18 3-27 12c-8 9-16 23-21 49 9 25 15 38 20 47 3 5 5 8 7 10zm1280 1191c41 26 88 39 135 49 4 1 7 1 11 1-29 20-58 41-85 64-7-21-16-41-26-59-15-25-33-46-53-66 6 4 12 8 18 11zm-809-554c-42 29-76 74-81 127-13-34-23-67-29-100 28-25 55-49 83-72 27-22 55-43 83-64 1 1 2 2 3 2 19 23 35 49 50 75-38-1-77 11-109 32zm-109-106c8-30 26-59 45-73 20-13 23-14 48-1 14 7 29 22 44 38-34 10-66 27-94 49-19 16-36 36-51 57 0-24 1-48 8-70zm-296-508c0 1 1 1 2 1-9-2-9-5-9-5s1 0 7 4zM7991 12522c22 7 46 7 68-2 21-9 42-25 52-54-24-21-37-33-50-43-12-9-22-15-33-18-11-4-23-4-38-4l-65 6c-9 30-1 55 12 75 13 19 32 33 54 40zM8455 12628c-14 5-29 12-54 26-3 28 5 47 15 63 12 14 27 24 43 27 16 4 34 2 50-6 16-9 32-23 41-51-17-23-27-36-37-46-10-9-18-15-27-17s-19 0-31 4zM8158 13103c-14 8-31 14-44 20-6 2-14 3-21 2-7 0-14-3-16-12-6 8-1 22 7 29 9 7 18 12 29 15 22 4 38 5 58 5 38-1 76-8 112-21 71-25 133-66 188-108 54-44 104-87 154-133 50-47 100-94 146-151-29 5-56 13-84 22 2-5 3-10 4-16-7-26-10-39-12-49-3-9-4-14-7-15-2 0-6 3-12 10-7 8-16 18-35 36-9 25-8 40-4 53 1 2 2 3 3 5-18 8-36 17-54 26-62 32-122 72-175 114-54 42-103 84-155 119-26 18-53 35-82 49zM7629 13326c-53 3-107-2-170-10 36 53 94 88 157 106s132 17 197-2c64-19 122-56 166-105 42-49 72-110 74-174-48 41-91 74-137 100-45 27-91 47-138 61s-97 22-149 24zM7424 13306c-175 128-370 150-574 159-102 4-209 10-313 21-53 5-106 14-157 20-51 8-101 12-154 3 43 35 100 49 154 58 54 7 106 12 158 15 106 7 210 11 318 6 107-5 219-22 322-67 103-43 198-116 246-215zM5727 13261c-54-40-101-84-126-137-24-55-35-124 5-193-38 14-69 49-86 89-16 40-21 86-12 131 18 92 81 162 146 209 67 48 138 81 214 104 75 21 154 32 233 22l-195-111c-62-37-124-75-179-114zM5568 12876c-64 11-120 31-173 45-54 15-102 24-151 24-49 1-100-6-154-17-55-10-112-25-176-33 38 52 86 92 142 124 55 30 121 50 190 50 69-1 137-25 190-60 53-36 96-80 132-133zM4188 12314c-60-61-110-133-151-211-44-77-79-161-114-246-18-42-34-81-40-119-6-37-2-71 11-110 14-39 37-79 58-120 21-40 44-79 69-116 49-75 112-142 204-168-47 0-96 13-138 38-43 24-80 57-113 92s-63 73-91 112c-27 38-54 77-77 124-24 46-37 106-30 162 5 54 22 103 38 148 33 88 69 176 115 262 47 85 104 167 178 236 74 67 156 120 239 164 165 89 332 171 505 244-147-117-301-223-455-325-75-53-149-104-208-167z"/><path d="M5439 11161l614 121c-23-3-46-8-69-11 151 59 303 112 456 162 14 67 51 130 94 181 9 12 19 23 28 35 10 10 19 27 28 41 5 7 9 13 16 22 7 8 15 16 23 23 17 14 34 25 51 34 34 18 64 30 95 42s62 23 94 32c65 19 130 35 201 39-49-51-104-90-160-127-28-18-57-35-86-50l-85-44c-13-6-24-13-33-20-4-3-9-7-12-10-5-4-10-12-16-18-11-12-19-24-34-36-14-12-29-23-44-34-51-33-98-68-150-107 64 20 128 41 192 60 221 67 445 127 669 186 49 12 99 25 149 37 0 3-1 6-1 9 2 14 8 28 20 39 13 12 29 22 57 25 20-20 30-33 38-45v-1c138 32 277 62 418 82 231 33 470 43 699-2-233-7-458-43-682-93-62-14-124-29-187-45 95 21 191 39 287 53 182 23 366 36 549 26-366-29-715-122-1062-232-36-12-73-23-109-34 10-31 8-65-2-97-14-41-47-80-92-100-48-21-102-16-142 8-36 20-64 61-59 100-40-11-81-24-121-35-178-47-357-87-536-125-359-71-719-130-1079-186-181-27-368-49-554-31-186 20-361 79-532 143 178-38 357-84 535-83 179-4 356 30 534 66zm1844 242c25 1 45 7 60 14 18 8 37 19 59 37 11 9 22 19 34 31-74-23-149-45-224-67 28-14 51-15 71-15z"/><path d="M4690 11491c162-1 320-17 475-14 155 1 312 21 474 29 81 5 162 5 244 0 40-3 88-7 126-35 38-27 55-83 28-117 14 39-16 76-45 87-32 13-69 10-107 5-79-10-157-23-236-36-156-26-317-53-482-56-166-1-327 21-484 42-158 19-313 35-475 24 151 62 320 73 482 71zM8279 11995c93-10 187-25 280-52-94-24-188-36-281-44-94-8-187-11-281-10-93 2-188 8-282 22s-188 37-276 80c97 7 189 12 281 16 30 1 59 2 88 3-1 9-1 17-1 24 0 14 1 24 5 33 4 8 11 15 23 24 11 8 26 17 51 32 26-14 38-34 43-54 5-19 2-40-6-57 25 0 50 1 76 1 93-1 187-8 280-18z"/><path d="M8233 12147c-18 6-35 17-48 40 14 26 22 40 30 52 8 11 15 18 24 23 8 4 18 5 32 5 14-1 30-3 59-8 12-27 9-49 2-68-8-18-22-32-39-40-13-6-28-8-43-7 7-1 13-1 20-3 37-7 73-18 108-33 35-16 71-34 105-64-41-21-81-28-121-32-39-2-78 1-116 8-38 8-75 21-111 39-35 18-69 41-99 76 44 14 83 17 122 18 25 0 50-3 75-6zM5182 12329l-41 45c-27 30-57 58-85 88-58 59-117 117-176 181 85-20 164-59 237-106 37-23 70-51 104-79 17-14 32-29 48-44l23-23c8-9 14-14 26-29 5-8 12-18 16-32 1-2 1-4 2-7 56 24 115 38 175 48 74 10 149 12 223 5 75-6 148-21 219-45 64-22 126-50 183-90 1 21 3 41 7 60 10 48 25 87 48 131 12 22 30 45 52 62 8 6 16 9 23 13-81 25-155 65-220 112-85 62-159 133-229 208 172-109 345-227 534-243 47-4 97-4 149-6 53-2 107-8 158-17 99-17 192-43 284-59-59 26-116 57-168 96-59 43-113 93-160 150-40 49-75 102-101 161-26 3-52 5-78 10-105 19-208 50-306 92-99 41-193 92-276 160 105-21 205-46 305-69s200-43 299-62c101-16 203-33 304-57 77-16 153-34 229-58-32 37-59 77-83 117-55 91-95 182-159 267 94-52 163-140 230-216 33-39 67-74 102-105s75-54 117-76c85-44 184-76 280-110 89-33 177-68 265-108 21 35 40 71 57 108-61 45-117 95-168 151-53 59-101 123-139 196 74-36 139-80 203-124l187-131c62-43 123-82 189-126 65-44 134-97 172-171-73 35-143 58-216 86-72 26-147 62-212 108-4-51-15-101-30-150-4-13-18-21-31-19l-7 1c-102 20-205 43-306 71-102 26-202 56-301 111-43 23-83 54-119 89-91-8-182-9-271-6-66 3-131 9-196 16 44-28 85-57 126-86l167-121 166-122c39-30 79-61 119-94 38-1 76-1 115 0 102 0 212 2 318-32 52-17 98-37 143-51 45-15 93-22 143-28 99-14 207-19 301-64-101 19-200 7-304 3-31 0-64 1-96 3 29-16 52-43 56-75-43 8-73 1-99-6-25-8-48-19-74-32-27-13-50-24-74-40-22-16-48-26-58-70-20 11-32 35-34 60 0 25 5 49 16 70 21 42 59 73 96 91 19 9 41 17 63 20-36 9-71 19-104 26-68 14-138 16-212 13 14-60 14-119 6-178-11-65-32-133-79-186 1 70 9 132 18 196 9 55 19 111 40 167-20-1-41-2-62-3-100-7-212-7-317 13-104 20-202 48-298 69-48 11-95 19-143 24-50 4-102 8-156 18-11 2-22 6-34 8-3-15-10-30-12-41-5-17-6-36-8-55-3-40-11-86-19-125-9-40-18-78-25-116-3-19-7-39-8-59-2-11-2-22-2-33 0-3 0-8-1-13h2c111-17 211-34 315-36 103-2 210 5 321 6 110 0 226-7 331-50-112-8-215-28-323-46-106-18-217-36-332-33-116 2-231 32-331 65-49 14-92 22-122-1-31-20-43-71-51-121 17-4 34-8 52-15 38-15 82-45 99-92 16-46 7-90-8-125-31-73-99-123-169-129 61 32 102 89 112 147 5 28 3 58-9 74-11 17-29 27-56 33-25 6-55 7-86 6-32-1-65-4-99-7-66-5-134-11-204-15-71-2-143-1-215 12s-140 32-204 57c-131 46-251 101-387 130 51 8 102 9 153 5-17 86 16 181 67 253 25 38 57 71 89 102 8 8 16 15 25 22 2 3 5 5 8 7l-3 3-21 22zm38-12c1 1 0 1 0 0zm-62-206c-56-53-105-112-138-191 87-6 174-26 257-43 133-30 255-47 388-38l203 9c35 0 70 0 106-2 19-1 38-2 58-6-7 22-12 44-13 68-2 30 4 63 25 93 21 29 57 47 91 53 21 5 41 5 60 4-8 8-15 16-22 25-14 22-25 46-30 71-6 25-9 50-8 75-70-1-136 3-201 7l-211 18-210 20c-57 7-115 14-175 24 0-5 0-10-2-15-7-32-24-47-36-58-13-11-20-16-28-21l-24-18c-32-23-61-49-90-75z"/><path d="M8155 12607c70-15 133-34 198-48s134-29 204-55c48-19 98-45 138-82 34 17 69 17 101 9 35-11 69-30 89-68-42-6-73 0-105 8-21 7-41 14-61 25 6-7 13-13 18-21-72 20-136 28-204 35-35 4-72 7-108 12 2-1 4-1 6-3 9-7 19-16 35-37 8-25 10-38 10-49 0-10-2-16-6-18s-10-1-18 5c-9 7-19 16-35 36-8 25-10 39-10 50 0 10 2 16 6 18-29 4-58 8-87 15-73 16-142 45-203 77l-187 98c73 18 149 7 219-7zM11907 13133c-83-79-160-169-242-257-83-88-173-175-281-235 74 98 138 196 206 295s140 199 231 286c181 176 442 277 687 244-118-34-227-76-328-131-101-56-192-123-273-202zM14414 13254c-41-53-82-88-124-130l-126-120c-86-79-171-158-259-233 69 94 142 184 214 274l111 133c35 44 79 89 105 131s26 74 6 111c-20 38-56 64-103 81-45 17-100 28-157 39-57 12-113 22-169 32-225 42-450 70-676 65-225-8-451-50-663-147 186 142 421 217 656 242 237 26 475 2 705-39 57-10 115-22 171-35s116-23 178-49c60-25 123-72 155-140 16-33 25-73 20-113-5-41-24-75-44-102z"/><path d="M14656 13044c-111 8-223-4-328-42-106-39-206-107-313-168 74 98 158 191 272 254 115 63 249 88 377 79 130-7 254-49 364-109 111-59 208-138 289-230-112 51-219 103-329 143-109 40-220 66-332 73zM15516 12611c-15-1-27 3-36 10-10 7-18 17-22 31-4 15-7 32-2 60 25 14 42 18 57 19s27-3 37-9c10-7 17-17 22-32 4-14 6-32 1-60-24-14-41-18-57-19zM16194 11844c-34-143-121-271-241-351-58-42-129-66-191-83-63-18-124-35-175-79 29 63 95 102 152 135 59 31 110 62 155 103 89 81 155 188 179 302 27 114 14 238-32 349-44 114-138 205-230 303 61-28 119-61 175-102 55-41 104-95 140-157 74-123 99-276 68-420zM11522 11767c167 22 336 26 506 26 169-3 338-18 507-39 336-41 667-116 994-198l164-44c-18 22-29 49-38 70-13 33-30 55-50 76-40 42-94 73-152 100-57 27-125 50-190 86-33 17-65 40-94 65-14 14-27 27-38 43-6 7-14 16-16 27-4 10-2 26 8 29-5-9 2-15 8-20s12-6 21-10c16-7 32-13 48-18 32-11 65-18 98-26 66-17 135-32 207-64 69-32 139-81 180-157 21-36 30-82 29-119-1-32-5-59 2-88l301-80c162-47 322-90 484-119 162-27 328-31 496-33 85-2 168-6 250 4 81 10 163 34 227 90-55-66-138-104-222-122-84-20-170-25-253-33-168-12-339-21-511-1-172 18-338 61-501 101l-488 124c-163 43-325 82-488 120-111 26-222 49-333 72 3-9 9-13 13-17 6-4 12-9 15-15 4-6 4-17 2-28-1-11-6-21-12-30-11-18-31-30-52-32s-45 5-60 30c10 27 10 42 10 53 0 10-1 15 1 18 1 1 2 2 5 2 2 0 6 1 12 8 5 5 14 12 24 19-39 7-77 15-116 23-329 59-661 99-998 107z"/><path d="M13696 13291c25 7 50 11 74 14 48 5 95 11 145 11-42-27-85-48-128-69-45-20-80-39-111-67-65-60-138-127-212-184-74-59-151-115-231-166-47-31-96-61-147-88 14 1 27 3 41 4 201 18 394 1 590 28-184-77-389-89-577-123-47-9-94-19-139-31-46-13-91-30-137-45-91-30-187-63-281-91-111-32-223-60-336-85 38-12 71-39 93-75 27 2 55-1 78-9 36-13 65-31 90-52s45-43 65-68c17-22 33-46 46-74 40 1 80 2 120 2l540-7c179 0 359 5 541 8-174-54-355-86-537-104s-364-19-544-20c-180 1-359 1-538-5-178-6-355-24-535-54 164 79 345 126 527 150 127 18 254 25 381 29-16 4-31 8-45 13-30 10-58 23-83 35s-48 23-68 30c-21 8-37 12-55 12l-27 1h-1c-23 2-41 22-39 45 2 40-3 84-21 140-76-16-153-32-231-44-195-32-393-52-591-53l571 147c189 50 378 100 564 156 95 26 185 56 282 84 49 13 96 28 146 39 12 3 25 5 37 7 50 62 104 119 161 173 48 47 99 91 151 135-83-31-167-58-251-83-168-51-341-89-512-121-86-14-164-32-243-61-79-27-158-63-240-94-162-64-326-125-495-174 148 95 300 180 455 261 72 39 146 75 224 109-5 4-11 8-15 12-11 11-17 23-19 36-2 12 1 26 9 39 9 14 22 27 47 39 26-11 40-22 50-32s15-20 16-31c2-10-1-20-7-31 65 21 132 36 195 48 172 30 341 62 512 93 122 23 245 45 368 66 64 50 128 97 203 143 22 13 48 25 74 32zM12616 13435c0-61-12-119-40-176-30-57-76-101-119-137s-88-68-137-97-100-55-160-71c27 56 61 101 98 145 37 43 77 82 120 118s83 64 119 99c37 34 72 79 119 119z"/><path d="M13085 13135c-28-33-58-65-99-92-5 49 2 93 12 135s25 81 44 119c19 39 45 79 83 111 37 31 94 54 141 36-36-34-50-65-66-98s-30-68-48-104c-18-37-41-73-67-107zM12574 11784c5-3 4-3-2-4h-26c-36 1-71 12-102 32-7 5-14 10-21 17-9 7-16 15-22 24-6 10-11 21-12 33-2 12 4 25 13 30 10-19 24-14 35-15 6 0 12 0 17 2 7 1 14 0 21 1 27 0 52 0 77-1l19-1c9-1 23-1 43-9 21-8 39-29 43-42 6-14 7-23 7-29-2-19 1-44 21-79-38-15-84 4-110 41-6 8-10 13-11 12-3 0 3-9 10-12zM11872 12249c13-9 24-21 36-35 12-16 26-32 45-59-23-25-52-32-80-31s-55 12-77 28c-21 17-38 41-46 67-7 27-7 58 11 86 31-12 50-21 68-29 17-9 31-17 43-27zM12996 12299c-96-13-194-21-294-17 89 46 180 80 273 110 92 30 185 56 280 77 96 23 187 32 273 65 87 28 182 62 279 81-76-65-153-121-243-170-42-27-93-44-140-60-48-15-95-25-142-36-95-21-190-38-286-50zM14106 11915c-33 64-69 115-112 158-42 44-88 78-139 103-13 7-36 14-62 42-13 15-25 44-21 70s14 38 17 43c15 24 27 49 35 76 1 2 2 3 2 3-12 10-27 22-37 34-24 30-41 66-43 102 27-24 53-43 81-55 14-7 25-10 43-15 9-3 25-9 39-29 13-22 11-44 11-54-1-35-10-69-22-101 3-2 6-3 11-5 70-34 128-91 164-158 36-66 51-144 33-214zm-274 490c-2 1-4 3-5 4 1-1 2-3 4-6 5-5 6-2 1 2zm58-133c-1-4-1-4 0 0zM15211 12229c-40-17-79-37-117-57-47-27-95-55-144-83-1-1-1-2-2-3h-3c-27-16-54-32-82-47-81-43-171-78-261-100s-181-34-275-34c80 49 163 87 243 125 81 37 157 76 235 118 17 9 35 19 53 28-21 25-41 51-59 78-20 30-38 61-55 95-9 19-18 40-26 62-5-4-8-7-13-10-23-13-44-16-61-17-16-1-27-1-40-2-26 0-51 0-76 1-50 2-101 3-151 9-100 10-200 26-298 58 101 19 200 29 299 38 49 5 98 7 148 11l73 5c27 1 49 3 46 4-1 0 3 2 9 10l23 29c17 20 34 40 53 58 37 37 75 72 118 102 84 61 178 108 279 131-77-69-149-134-216-204-32-35-65-69-95-107-14-18-30-37-44-56l-18-23c23-10 44-22 64-36 33-25 61-56 84-90 21-31 37-66 47-103 35 15 71 29 108 41 45 15 92 24 140 28 24 1 47 2 72 0 24-2 51-10 67-27-45 8-84-16-125-32zM15739 11695c38-10 76-26 105-51-72 25-147 16-222 13-75-4-148-14-222-24-148-22-297-48-450-64-77-6-155-11-233-9-79 3-159 13-232 28-74 12-145 24-215 17-71-5-142-29-197-83 33 72 108 119 185 143 79 23 161 22 238 18 5-1 10-1 15-1 21 40 43 75 64 112 28 45 53 90 89 138 12-60-6-120-36-170-20-32-45-60-76-82 123-7 241-3 364 9 17 30 39 56 60 81 32 37 64 71 82 110 15 41 27 86 43 135 15 47 33 94 56 139 2-51-3-101-9-150-6-48-16-100-35-151-25-50-65-87-104-118-18-15-36-28-54-42 143 13 288 33 437 36 77 2 155-2 232-12 39-6 77-11 115-22zM8967 13373c21-3 41-10 60-22 20-13 39-29 56-57-25-23-48-32-70-39-22-6-43-7-64-4-20 3-40 10-60 22-19 13-38 29-55 57 24 23 47 32 69 39 22 6 44 7 64 4zM9168 13512c22-4 45-10 67-21 23-11 46-24 70-50-24-26-50-38-76-46s-53-9-78-5c-26 3-51 12-74 26-23 16-45 34-61 66 31 18 57 24 81 29 25 4 48 4 71 1zM9191 13661c19 1 37 1 59-1 21-3 45-5 79-12-3-35-23-61-46-79-24-19-53-29-83-31s-60 4-86 19-49 38-58 72c34 11 57 17 78 22s39 8 57 10z"/><path d="M9199 14077c38-76 81-147 130-214 49-68 104-131 164-191s127-115 198-173c-91 11-180 47-258 98-76 50-145 114-199 188-12-18-28-31-45-42-25-14-52-21-80-22-27 0-55 6-80 19s-48 32-62 64c31 17 54 25 77 31 22 6 42 9 63 9 20 1 40-1 63-6 11-2 22-5 34-9-11 18-22 36-32 54-16-11-30-18-44-23-19-6-37-8-55-6-18 1-35 7-52 17-18 10-35 23-54 49 18 26 38 38 58 47 20 8 40 11 60 9 18-2 36-8 53-18-11 28-21 57-29 86-13 45-20 96-14 145s30 102 73 123c-22-41-21-82-12-121 8-39 24-76 43-114zM8910 15255c44 30 91 47 140 59l-5-5c42 26 85 47 130 65 63 25 130 44 199 54 137 21 285 4 407-68-70-14-136-20-200-28s-126-17-189-26c-64-9-128-18-194-26-61-6-124-11-190-6-21-21-41-41-57-63-28-35-40-71-45-112-3-41-3-86 1-133 3-46 6-91 13-136 25-179 88-346 230-486-98 25-183 95-242 180-60 86-96 187-110 289-7 51-10 102-8 152 3 50 5 102 23 156 15 53 52 105 97 134z"/><path d="M9119 16343c-35-89-74-172-104-255-31-83-49-166-56-250-6-84-3-170 13-256 15-86 41-172 73-262-148 123-224 329-209 528 8 100 41 199 92 281 51 84 115 155 191 214zM8939 13946c18-15 34-36 35-59-44 11-71-1-104-7-22-5-48-9-74-12h12c-22-38-34-63-46-91-10-23-18-44-27-72 7-3 13-6 20-8 76-31 152-64 227-107-86-7-170 0-253 14-82 14-164 35-243 62-39 14-77 28-117 45-21 10-46 23-69 46-22 21-36 49-41 79-6 29-4 61 12 89 16 29 51 51 83 48 16-1 33-6 45-18s14-19 17-23c6-9 31-6 50 0-13-15-29-37-63-31-18 4-27 16-32 15-4 1-9-1-13-3-10-5-12-12-13-21 0-9 1-21 6-31 14-22 25-31 60-41 11-3 22-7 32-10 7 30 27 59 61 65 2-37 1-58-2-81v-3l24-9 36-12c-3 15-4 32-1 49 5 20 15 40 31 55 5 5 11 9 17 12-24 8-48 17-72 33 37 27 74 41 110 52 38 10 75 16 112 17s74 1 118-11c21-6 42-16 62-31zm-288-72c-3 1-5 2-8 2-5-10-8-20-11-30-4-13-8-26-10-40-4-16-7-34-12-53l93-36c-10 27-9 58 3 84 9 20 22 38 40 50 12 8 25 14 38 16-7 0-14-2-20-2-38-1-75 2-113 9zM8202 13970c-3-6-1-9 1-10 3 0 4 2 4 1v-10c0-5 0-10 4-19 5-18 22-41 35-74-33-14-64-15-97 0-16 7-33 20-45 39-12 17-19 38-20 63 0 19 6 41 17 59-13 6-26 14-38 22-46 32-85 75-114 123-58 96-83 201-109 295-53 191-115 371-284 498 106-15 201-87 267-173 25-34 45-69 64-105 14 13 30 22 48 28 2 1 4 1 6 1-3 13-6 25-8 37-8 45-3 95 3 133 5 39 12 77-17 110 21-4 42-21 53-42 13-21 19-43 24-65 9-44 17-77 30-112 20-52 48-101 76-155 7-1 13-3 21-6-4-5-8-9-12-13 7-13 13-26 20-40 35-77 62-157 81-240 19-82 29-167 23-253-44 75-79 149-114 222l-102 219c-6 14-13 28-19 42-19-2-39 0-60 8 12 17 25 29 40 38-8 19-16 39-23 59-1-1-3-1-5-2-15-4-30-7-46-7 21-48 38-99 52-148 29-101 43-199 77-286 23-57 54-112 101-156 13 7 26 11 39 12 41 1 68-17 89-46-29-21-54-34-62-47z"/><path d="M7902 14993c24 67 14 129-7 188-22-24-52-41-84-49-46-11-99-5-137 25-1-5-1-11-3-16-2-8-5-15-9-22 35-13 69-32 94-53 30-24 49-49 89-70-37-32-92-26-131-17-40 9-69 18-102 27s-65 19-99 30c-16 6-25 11-32 14-4 8-28-5-17-25-13-4-27 9-31 23-5 14-3 32 9 49 23 27 56 33 77 36 40 6 80 4 119-7 0 25-10 49-21 72-18 35-42 71-63 107-44 71-92 143-129 226-36 83-65 176-52 277 7 50 31 101 67 135s76 54 118 70c-26-37-54-70-70-106-18-34-21-68-19-104 5-64 29-130 57-195 23 26 52 40 83 49 11 2 22 3 34 4-10 22-20 46-28 69-33 91-49 193-27 287 30-91 68-169 114-246 31-53 65-105 98-158 21-1 43-8 59-28 18-26 17-56 6-81 39-71 74-146 96-229 12-49 17-100 10-151-8-51-30-102-69-131zm-106 199c29 7 56 15 86 24-4 9-8 19-12 28-8 18-18 35-27 53-5-2-11-3-16-5-23-6-45-8-68-10-33-1-67 1-101 11 7-25 13-51 17-79 2-16 2-32 0-49 46 10 83 17 121 27zm-155 154c3-8 5-18 8-26 36 15 71 21 107 24 21 0 41 0 62-3-20 36-42 73-64 111l-50-6c-33-4-66-8-100-11 13-29 26-58 37-89zm-18 251c-28-6-55-11-88-10 1-1 2-3 3-5 19-43 40-87 60-132 31 17 63 32 96 43 10 3 20 6 31 9-20 35-40 71-58 108-15-5-29-10-44-13zM7466 16140c-3-1-10 2-20 5-8 4-16 8-24 13-30 20-65 65-47 123 11 26 31 40 51 46 21 6 49-2 53-22-19-7-19-20-19-28 1-8 5-16 10-15 10 7 11 5 21-2 3-2 5-3 8-5 2-2 7-4 15-9 8-6 19-12 31-26 13-14 20-43 15-59s-9-17-13-23l-14-16c-12-10-22-21-39-29-10 15-15 29-20 43l-5 21c-2 6-2 16-6 13-3-4-1-20 3-25 3-6 3-5 0-5zM7466 16569c0-3-3-6-6-13-6-11-10-32-7-66s10-69 4-116c-38 20-71 48-95 83-12 19-21 41-25 67-4 25-1 57 11 84 13 27 35 53 68 67 33 13 67 9 89-1 46-18 63-46 99-71-38-27-90-18-117-24-14-2-19-7-21-10zM11732 14992c42-22 71-72 73-127 0-48-17-89-23-121 27 38 70 56 112 62 20 1 40 0 59-4 7 26 13 53 19 79 12 50 19 102 42 159 22 55 78 106 135 96-51-19-73-68-77-113-6-46-1-100-5-155-5-108-23-216-50-320-27-105-63-206-105-304-20-50-43-98-67-146-24-45-48-103-98-131 11 19 18 38 23 58-9-20-22-39-36-55 12-7 24-15 36-27 20-19 36-55 33-86-2-31-14-54-27-73-26-36-64-61-100-73-74-22-139-18-197-15-117 6-235 3-357-4 109 56 230 88 354 100 60 7 118 9 158 28 20 9 34 20 42 33 2 3 3 5 4 6-6 5-26 14-49 19-25 7-50 11-76 13-52 4-105-5-161-18-97-22-201-63-309-73-9-9-19-17-28-24-13-11-26-21-39-32 17-9 33-18 47-29 21-15 41-32 60-53s38-44 56-78c-36-14-70-13-102-7-32 7-61 20-87 39-23 17-42 39-58 64-37-28-75-55-115-81 22-11 41-23 59-36 20-14 38-30 56-49s37-40 56-73c-34-17-67-18-99-14-31 5-60 18-85 37-26 18-47 42-61 70-3 5-5 11-7 16-11-7-22-13-34-19l-6-3 54-59 56-57c21-20 43-41 75-68-35-25-78-28-117-19s-75 30-103 60c-28 29-47 66-54 106v3c-16-4-33-8-50-11-50-7-104-3-148 18 85 9 151 47 215 91 2 5 5 10 8 14 1-2 3-3 4-5 5 4 11 8 16 12 70 54 141 118 218 174 38 28 76 56 115 82 39 25 60 44 79 78 17 34 29 80 41 124 6 21 9 43 9 64-1 20-6 42-26 57 25-2 48-24 59-49 11-24 15-51 18-76 2-50 4-99-11-154-8-26-20-53-39-76 81 43 157 91 248 128 58 25 124 40 192 42 35 1 69-3 102-10 17-5 36-9 56-18 21 73 5 145-1 222l-26 264-13 133c-3 45-8 99 11 154 18 54 48 85 59 120 12 35 9 79-13 120zm166-413c3 14 7 27 10 41-30-2-60-1-95 14 28 31 61 42 95 48 5 0 11 0 16 1 6 22 11 45 17 67-13-2-27-4-40-6-37-3-73-7-120-2 0-5-2-9-2-13-3-34 2-72 11-116s16-90 20-136c8-83 8-166 1-249 4 15 6 31 10 46 24 103 50 204 77 305z"/><path d="M12248 15192c-16 3-30-2-45-7-30-10-67-31-103-51-37-20-77-43-123-61-45-17-97-31-150-21 36 39 66 71 99 103s70 62 114 87c15 8 31 15 47 21-2 43-1 83 0 123-38-13-76-26-113-42-46-17-89-37-136-58-5-86-14-172-34-259-30 91-47 184-60 276-12 93-25 182-21 283 2 49 9 102 29 152 20 51 51 97 86 132 68 72 142 116 193 197 1-48-19-97-43-139-24-43-51-81-75-118-22-38-42-71-50-109-2-7-3-15-5-23 33 32 78 50 123 54 49 4 101-9 139-40 13 77 35 147 42 212 4 66-10 138-45 211 73-38 126-116 141-204 10-46 1-86 0-128-4-42-11-78-17-116-14-77-33-152-56-226-16-56-38-113-67-167 25 6 50 10 79 8 31-2 66-16 87-41 20-24 29-59 14-83-13 23-32 31-50 34zm-159 235c1 10 1 21 2 31 1 27 4 53 7 80-48-4-90-8-134-16-40-6-78-16-120-27 0-53 0-108-3-163 32 30 70 53 110 70 44 17 91 26 138 25zm-103 244c-43-4-85-12-134-22-3-22-5-45-6-69-1-15-1-30-1-45 32 24 70 41 109 48 49 8 102 3 147-19 4 36 9 72 16 108-48 2-89 2-131-1zM12166 16436l-10-54c-6-36-13-71-21-109-9-38-17-76-32-122-35 34-54 76-65 119-10 44-11 90-3 134 4 22 10 43 18 64l5 10c-2 2-4 4-5 6-13 15-20 34-19 52 3 40 40 60 63 49-18-17-13-39-4-40 4-1 9-1 11 2 6 1-11 8 15 5 12-1 39-15 47-37 9-21 6-36 5-46l-5-33zm-87 29c7-5 14-8 15-7 3 1-5 3-15 7zM12082 16686c-18 29-36 40-50 49-13 8-24 10-29 13-6 2-15 7-30 12-16 4-36 10-70 3-11 34 10 70 39 89 30 20 71 25 109 9 38-17 63-51 69-85 6-35-6-74-38-90zM11324 15098c33-41 55-90 68-138 15-48 20-93 29-141 8-47 10-101 2-153-15-106-69-198-133-271-65-74-142-133-226-178 50 83 104 157 148 234 44 76 78 154 89 233 6 39 6 79 4 124l-8 134c-4 44-9 85-24 124s-39 76-78 106c50-4 96-35 129-74zM11356 15263c-32-42-77-78-127-86 75 67 91 157 98 246 5 93 13 192 16 282 2 92-5 178-33 263-23 69-57 136-93 207-90 22-173 43-257 62-85 19-170 34-255 50l-258 46c-87 17-175 35-263 63 90 23 180 31 271 33 90 1 182-5 272-21s179-42 263-80c83-37 161-86 225-151-8 16-16 32-25 49 84-54 157-127 208-219 52-92 71-203 68-305-4-103-21-197-45-295-13-50-33-100-65-144zM9251 17058c-41-71-74-144-99-219-25-74-41-152-47-232-5-81-1-163 13-251-61 67-96 156-109 247-12 91-4 186 26 275 29 88 78 169 138 237 60 67 133 123 216 157-50-74-97-143-138-214z"/><path d="M11244 16371c-7-20-12-41-20-61l-11-30c-2-4-7-13-12-16-3-3-15-6-16 2 5-5 8 1 9 5 2 5 1 6 0 12l-4 31-7 62c-4 41-9 81-14 120-10 79-24 155-44 229-21 73-48 144-84 213-36 68-80 132-137 197 35-9 67-24 98-43 1 4 1 7 2 10 0 7-4 21-6 32l-12 68c-8 45-17 89-28 131-22 85-59 156-105 233-48 77-90 160-140 225-44 60-112 105-182 156-11-4-23-5-29 5 6 0 10 3 12 7-1 1-3 2-4 3h5c2 3 3 7 4 10 3 8 2 17 4 28 2 21 4 40 5 60 2 33 1 64 0 103-25 27-51 55-75 82-43 44-84 90-129 128-4 3-8 6-11 9 9-51 8-102 3-153-7-53-19-106-42-156 12-4 24-8 35-13 25-9 55-23 73-46-7 42-7 80-5 119 5 47 10 93 31 143 28-47 33-98 31-147-5-50-18-100-52-141-2 5-2 10-3 15-29 6-54 1-81-3-31-3-62-7-92-8-61-3-120-3-178-1l-175 9c-55 4-110 7-171 13-75-24-123-73-166-126-43-56-77-120-104-184-27-66-46-134-55-205-8-72-7-145 7-226-60 57-94 141-103 225-9 86 4 173 37 252s82 151 150 206c33 28 72 49 114 62 31 9 63 12 93 8-21 60 0 132 39 185 42 57 99 97 151 133 51 37 105 71 158 106l80 51c29 16 47 33 93 52 22 9 55 12 82 5s47-19 63-31c30-23 53-44 78-68 46-49 89-99 124-153 37-55 70-105 102-166 32-63 36-140 7-198 1 60-18 113-51 155 3-13 4-26 3-39-1-25-8-50-21-72-5-9-12-19-21-27 82-13 166-39 235-100 40-33 70-73 99-111 28-39 53-77 78-118 24-41 47-85 64-133 16-48 28-98 30-148 3-49 0-98-7-145-4-24-8-47-13-70-4-12-4-23-12-37-2-4-6-7-9-9 40-26 77-58 108-95 58-68 100-149 123-234 24-85 30-174 22-260-3-43-11-85-21-127zm-1382 1796c-6-23-9-45-10-70 36 8 72 13 108 16-7 12-12 26-15 40-8 31-7 63 0 94 5 17 12 33 21 48-16-8-31-16-47-24-27-34-46-68-57-104zm-199-143c7-1 13-3 19-5 38 29 80 50 124 65-11 31-12 67-3 100 4 13 10 24 16 36-27-15-52-31-75-50-42-35-76-84-81-146zm404 325c-6-3-13-7-19-10-20-37-33-71-43-108s-14-74-14-116c15 0 31 0 46-1 30 0 60-3 90-8-8 60-2 119 9 176 10 45 24 89 45 131-11-6-21-12-31-17l-83-47zm189 77c-10 7-18 11-22 12-4 0-3 0-11-2-1 0-2-1-2-1-4-57-14-111-25-166-12-55-26-111-46-167 23-4 47-8 71-14 8-2 17-5 26-7-2 53 3 104 8 156 7 55 16 110 32 166-11 9-21 17-31 23zM10069 14453c97-12 193-32 286-68-99-15-194-22-289-29l-283-17-283-14c-95-4-191-8-290-4 88 46 181 76 276 99 96 22 193 36 290 42 98 6 196 2 293-9zM10676 14379c51 1 101-5 149-19 49-13 95-34 138-61 42-28 81-62 110-108-54 1-101 9-147 18s-90 20-134 32c-44 13-87 27-131 43-44 17-89 34-135 62 48 24 99 31 150 33zM10046 15370c103 24 206 35 312 36 105 0 213-10 317-40 105-30 195-76 287-102 47-14 101-27 151-51 51-26 92-59 129-96-51 13-100 32-148 38-47 9-96 8-150 14-110 13-210 52-303 78-94 27-191 46-291 63-100 18-202 33-304 60zM9306 16415c66 17 128 23 192 28 63 4 127 4 191-1s128-14 193-36c-61-30-124-47-187-60-63-14-126-22-189-26-64-4-128-3-188-1-61 2-118 2-185-13 38 59 108 91 173 109z"/><path d="M9749 17238c-46-10-92-12-134-13h-124c-42 1-82-1-133-7 20 48 65 81 111 101 47 20 96 28 144 29 47 1 92-5 135-13 44-10 85-20 135-36-39-35-88-51-134-61zM10323 17327c60 5 114 10 181 2 71-10 129-46 176-80 48-35 87-71 141-104-63-18-130 0-185 18-56 19-104 38-150 44-48 6-111 11-168 23-57 13-115 29-172 57 60 23 119 33 177 40z"/></g></g></svg>