<svg xmlns="http://www.w3.org/2000/svg" width="210mm" height="297mm" shape-rendering="geometricPrecision" text-rendering="geometricPrecision" image-rendering="optimizeQuality" fill-rule="evenodd" clip-rule="evenodd" viewBox="0 0 21000 29700"><g fill-rule="nonzero"><path fill="#E3E1E0" d="M18316 17721c0-136-35-247-79-247-43 0-78 111-78 247 0 137 35 248 78 248 44 0 79-111 79-248z"/><path fill="#F2F2F3" d="M18446 17446c0 94-245 170-404 170-158 0-169-76-169-170 0-93 11-169 169-169 159 0 404 76 404 169z"/><path fill="#295B97" d="M17341 16235h115v-1738h-115z"/><path fill="#4186C3" d="M15069 16140c-168-104-336-209-504-314 628-1006 1702-1640 2877-1710 50-3 98 14 134 48s57 81 58 130c0 91 1 182 2 272 0 75-58 137-133 141-994 51-1904 584-2434 1433z"/><path fill="#F2F2F3" d="M10208 12984H6291l-839 2605h4756z"/><path fill="#E3E1E0" d="M14653 15714H3774l854-1605h4148l9 625h5868z"/><path fill="#295B97" d="M17847 17228c-101 126-253 199-415 199l-7669-2-2154-1-3086-1c-489 0-954-212-1275-582l-1086-1252-565-651h5649c101 0 199 31 282 87l429 294c99 67 216 103 335 103l6239 10c564 1 1125 86 1664 251l1429 440c121 37 212 136 240 260l27 124 61 273c35 158-4 323-105 448z"/><path fill="#264D7D" d="M17847 17228c-101 126-253 199-415 199l-7669-2-5240-2c-481 0-938-205-1257-563l-18-19-1086-1252h1947c1155 0 2294 208 3364 608 549 205 1140 310 1727 310h8691l61 273c6 26 10 53 11 80 9 132-32 264-116 368z"/><path fill="#295B97" d="M8859 14347H4264c0-131 109-238 244-238h4351v238zM10208 12984H5987c0-131 100-238 224-238h3997v238zM10208 13505h4222c0-131-100-238-224-238h-3998v238z"/><path fill="#E3E1E0" d="M13986 14497h94v-992h-94zM10391 14497h62v-580h-62zM10696 14497h62v-580h-62zM11001 14497h62v-580h-62zM11305 14497h63v-580h-63zM11610 14497h63v-580h-63zM11915 14497h62v-580h-62zM12220 14497h62v-580h-62zM12524 14497h63v-580h-63zM12829 14497h63v-580h-63zM13134 14497h63v-580h-63zM13439 14497h62v-580h-62zM13744 14497h62v-580h-62z"/><path fill="#BD2828" d="M17847 17228c-101 126-253 199-415 199l-7669-2-5240-2c-481 0-938-205-1257-563h14697c9 132-32 264-116 368z"/><path fill="#264D7D" d="M6897 14001h-599c-90 0-155-78-129-154l224-666c17-50 69-85 129-85h375c74 0 134 54 134 120v665c0 66-60 120-134 120z"/><path fill="#264D7D" d="M6897 13096h-375c-60 0-112 35-129 85l-224 666c-26 76 39 154 129 154h599c74 0 134-54 134-120v-665c0-66-60-120-134-120zm0 39c50 0 91 36 91 81v665c0 45-41 81-91 81h-599c-30 0-56-12-73-33-17-20-22-46-14-71l224-666c11-34 46-57 87-57h375z"/><path fill="#CEE8E8" d="M6897 14001h-599c-90 0-155-78-129-154l224-666c17-50 69-85 129-85h375c74 0 134 54 134 120v665c0 66-60 120-134 120z"/><path fill="#A6A4A1" d="M6897 13096h-375c-60 0-112 35-129 85l-224 666c-26 76 39 154 129 154h599c74 0 134-54 134-120v-665c0-66-60-120-134-120zm0 39c50 0 91 36 91 81v665c0 45-41 81-91 81h-599c-30 0-56-12-73-33-17-20-22-46-14-71l224-666c11-34 46-57 87-57h375z"/><path fill="#264D7D" d="M7306 14001h591c75 0 135-54 135-120v-665c0-66-60-120-135-120h-591c-74 0-134 54-134 120v665c0 66 60 120 134 120z"/><path fill="#264D7D" d="M7897 13096h-591c-74 0-134 54-134 120v665c0 66 60 120 134 120h591c75 0 135-54 135-120v-665c0-66-60-120-135-120zm0 39c50 0 91 36 91 81v665c0 45-41 81-91 81h-591c-50 0-90-36-90-81v-665c0-45 40-81 90-81h591z"/><path fill="#CEE8E8" d="M7306 14001h591c75 0 135-54 135-120v-665c0-66-60-120-135-120h-591c-74 0-134 54-134 120v665c0 66 60 120 134 120z"/><path fill="#A6A4A1" d="M7897 13096h-591c-74 0-134 54-134 120v665c0 66 60 120 134 120h591c75 0 135-54 135-120v-665c0-66-60-120-135-120zm0 39c50 0 91 36 91 81v665c0 45-41 81-91 81h-591c-50 0-90-36-90-81v-665c0-45 40-81 90-81h591z"/><path fill="#264D7D" d="M8307 14001h591c74 0 134-54 134-120v-665c0-66-60-120-134-120h-591c-75 0-135 54-135 120v665c0 66 60 120 135 120z"/><path fill="#264D7D" d="M8898 13096h-591c-75 0-135 54-135 120v665c0 66 60 120 135 120h591c74 0 134-54 134-120v-665c0-66-60-120-134-120zm0 39c50 0 90 36 90 81v665c0 45-40 81-90 81h-591c-50 0-91-36-91-81v-665c0-45 41-81 91-81h591z"/><path fill="#CEE8E8" d="M8307 14001h591c74 0 134-54 134-120v-665c0-66-60-120-134-120h-591c-75 0-135 54-135 120v665c0 66 60 120 135 120z"/><path fill="#A6A4A1" d="M8898 13096h-591c-75 0-135 54-135 120v665c0 66 60 120 135 120h591c74 0 134-54 134-120v-665c0-66-60-120-134-120zm0 39c50 0 90 36 90 81v665c0 45-40 81-90 81h-591c-50 0-91-36-91-81v-665c0-45 41-81 91-81h591z"/><path fill="#264D7D" d="M9307 14001h591c74 0 134-54 134-120v-665c0-66-60-120-134-120h-591c-74 0-134 54-134 120v665c0 66 60 120 134 120z"/><path fill="#264D7D" d="M9898 13096h-591c-74 0-134 54-134 120v665c0 66 60 120 134 120h591c74 0 134-54 134-120v-665c0-66-60-120-134-120zm0 39c50 0 91 36 91 81v665c0 45-41 81-91 81h-591c-50 0-91-36-91-81v-665c0-45 41-81 91-81h591z"/><path fill="#CEE8E8" d="M9307 14001h591c74 0 134-54 134-120v-665c0-66-60-120-134-120h-591c-74 0-134 54-134 120v665c0 66 60 120 134 120z"/><path fill="#A6A4A1" d="M9898 13096h-591c-74 0-134 54-134 120v665c0 66 60 120 134 120h591c74 0 134-54 134-120v-665c0-66-60-120-134-120zm0 39c50 0 91 36 91 81v665c0 45-41 81-91 81h-591c-50 0-91-36-91-81v-665c0-45 41-81 91-81h591z"/><path fill="#CEE8E8" d="M5044 14870h-594c-59 0-97-62-71-115l149-295c14-26 41-43 71-43h445c44 0 79 35 79 79v295c0 44-35 79-79 79z"/><path fill="#A6A4A1" d="M5044 14417h-445c-30 0-57 17-71 43l-149 295c-26 53 12 115 71 115h594c44 0 79-35 79-79v-295c0-44-35-79-79-79zm0 31c27 0 48 21 48 48v295c0 26-21 48-48 48h-594c-17 0-32-8-41-23s-10-32-2-47l149-295c8-16 25-26 43-26h445z"/><path fill="#CEE8E8" d="M5286 14870h461c44 0 80-35 80-79v-295c0-44-36-79-80-79h-461c-44 0-79 35-79 79v295c0 44 35 79 79 79z"/><path fill="#A6A4A1" d="M5747 14417h-461c-44 0-79 35-79 79v295c0 44 35 79 79 79h461c44 0 80-35 80-79v-295c0-44-36-79-80-79zm0 31c27 0 48 21 48 48v295c0 26-21 48-48 48h-461c-26 0-48-22-48-48v-295c0-27 22-48 48-48h461z"/><path fill="#CEE8E8" d="M5982 14870h461c44 0 79-35 79-79v-295c0-44-35-79-79-79h-461c-44 0-80 35-80 79v295c0 44 36 79 80 79z"/><path fill="#A6A4A1" d="M6443 14417h-461c-44 0-80 35-80 79v295c0 44 36 79 80 79h461c44 0 79-35 79-79v-295c0-44-35-79-79-79zm0 31c27 0 48 21 48 48v295c0 26-21 48-48 48h-461c-27 0-48-22-48-48v-295c0-27 21-48 48-48h461z"/><path fill="#CEE8E8" d="M6683 14870h462c44 0 79-35 79-79v-295c0-44-35-79-79-79h-462c-43 0-79 35-79 79v295c0 44 36 79 79 79z"/><path fill="#A6A4A1" d="M7145 14417h-462c-43 0-79 35-79 79v295c0 44 36 79 79 79h462c44 0 79-35 79-79v-295c0-44-35-79-79-79zm0 31c26 0 48 21 48 48v295c0 26-22 48-48 48h-462c-26 0-48-22-48-48v-295c0-27 22-48 48-48h462z"/><path fill="#CEE8E8" d="M7385 14870h462c43 0 79-35 79-79v-295c0-44-36-79-79-79h-462c-44 0-79 35-79 79v295c0 44 35 79 79 79z"/><path fill="#A6A4A1" d="M7847 14417h-462c-44 0-79 35-79 79v295c0 44 35 79 79 79h462c43 0 79-35 79-79v-295c0-44-36-79-79-79zm0 31c26 0 47 21 47 48v295c0 26-21 48-47 48h-462c-26 0-48-22-48-48v-295c0-27 22-48 48-48h462z"/><path fill="#CEE8E8" d="M8087 14870h461c44 0 80-35 80-79v-295c0-44-36-79-80-79h-461c-44 0-80 35-80 79v295c0 44 36 79 80 79z"/><path fill="#A6A4A1" d="M8548 14417h-461c-44 0-80 35-80 79v295c0 44 36 79 80 79h461c44 0 80-35 80-79v-295c0-44-36-79-80-79zm0 31c27 0 48 21 48 48v295c0 26-21 48-48 48h-461c-27 0-48-22-48-48v-295c0-27 21-48 48-48h461z"/><path fill="#F2F2F3" d="M14812 14734H8832c0-131 143-237 318-237h5353c170 0 309 106 309 237z"/><path fill="#FEFEFE" d="M11445 14743c30-10 48-41 43-73-6-31-33-54-65-54h-801s-492 0-1267 647c-29 25-40 65-27 101s47 60 86 60h907c44 0 85-19 114-51 253-283 571-470 1010-630z"/><path fill="#A6A4A1" d="M7602 12746h496v-189h-496z"/><path fill="#E3E1E0" d="M7963 12198c-6-31-33-53-65-53h-71c-46 0-86 33-95 78l-64 333h363l-68-358z"/><path fill="#E3E1E0" d="M7850 12261c-18 0-33-14-33-33 0-9 5-924 473-1612 10-16 31-19 46-9s19 30 9 45c-457 672-462 1567-462 1576 0 19-15 33-33 33z"/><path fill="#295B97" d="M10208 14001h3872v-85h-3872z"/><path fill="#CEE8E8" d="M9199 16019c0 92-75 167-167 167s-167-75-167-167 75-167 167-167 167 75 167 167z"/><path fill="#F2F2F3" d="M9032 15885c-74 0-134 60-134 134s60 134 134 134 134-60 134-134-60-134-134-134zm0 333c-110 0-200-89-200-199s90-200 200-200 200 90 200 200-90 199-200 199z"/><path fill="#CEE8E8" d="M10453 16019c0 92-74 167-166 167s-167-75-167-167 75-167 167-167 166 75 166 167z"/><path fill="#F2F2F3" d="M10287 15885c-74 0-134 60-134 134s60 134 134 134 134-60 134-134-60-134-134-134zm0 333c-110 0-200-89-200-199s90-200 200-200 199 90 199 200-89 199-199 199z"/><path fill="#CEE8E8" d="M11708 16019c0 92-74 167-166 167s-167-75-167-167 75-167 167-167 166 75 166 167z"/><path fill="#F2F2F3" d="M11542 15885c-74 0-134 60-134 134s60 134 134 134c73 0 133-60 133-134s-60-134-133-134zm0 333c-111 0-200-89-200-199s89-200 200-200c110 0 199 90 199 200s-89 199-199 199z"/><path fill="#CEE8E8" d="M12963 16019c0 92-75 167-167 167s-166-75-166-167 74-167 166-167 167 75 167 167z"/><path fill="#F2F2F3" d="M12796 15885c-74 0-134 60-134 134s60 134 134 134 134-60 134-134-60-134-134-134zm0 333c-110 0-199-89-199-199s89-200 199-200 200 90 200 200-90 199-200 199z"/><path fill="#CEE8E8" d="M14218 16019c0 92-75 167-167 167s-167-75-167-167 75-167 167-167 167 75 167 167z"/><path fill="#F2F2F3" d="M14051 15885c-74 0-134 60-134 134s60 134 134 134 134-60 134-134-60-134-134-134zm0 333c-110 0-200-89-200-199s90-200 200-200 200 90 200 200-90 199-200 199z"/><path fill="#A22826" d="M18042 17427c0 188 17 340-821 340-837 0-2331-152-2331-340s1494-340 2331-340c838 0 821 152 821 340z"/><path fill="#E3E1E0" d="M18316 17180c0-137-35-248-79-248-43 0-78 111-78 248 0 136 35 247 78 247 44 0 79-111 79-247z"/><path fill="#C7D6E6" d="M4370 14287c0-69 56-125 126-125h2495c-1040 11-1999 37-2621 125zM6074 12928c0-69 56-125 125-125h2496c-1039 10-2078 20-2621 125zM2263 15423c-60 0-119-22-161-69l-300-334h5418c-2489 38-4141 151-4876 390-26 9-54 13-81 13z"/><path fill="#25446D" d="M3238 15610c69 127 85 252 36 279s-145-55-215-182c-69-127-85-252-36-279s145 55 215 182z"/><path fill="#E5BFC2" d="M15042 17467c-43 0-66-8-66-26-38-129 1140-316 2068-316 272 0 522 16 714 55-114-9-230-12-345-12-524 0-1050 74-1477 149-428 75-759 150-894 150z"/><path fill="#F2F9FA" d="M6223 13889l224-657c17-50 63-83 116-83h327c-306 61-499 373-667 740zM4415 14790l150-297c10-20 31-33 54-33h168c-151 30-262 171-372 330zM7244 13899v-647c0-51 41-93 93-93h380c-287 36-401 355-473 740zM5256 14809v-300c0-27 22-49 50-49h200c-151 19-211 145-250 349zM5949 14809v-300c0-27 22-49 50-49h200c-151 19-211 145-250 349zM6649 14809v-300c0-27 22-49 49-49h201c-152 19-212 145-250 349zM7353 14809v-300c0-27 22-49 49-49h201c-152 19-212 145-250 349zM8039 14757v-261c0-9 2-17 7-24 8-8 19-12 32-12h200c-138 17-200 124-239 297z"/><path fill="#E9E8E8" d="M8028 14809v-300c0-15 7-28 18-37-5 7-7 15-7 24v261c-4 16-7 34-11 52z"/><path fill="#F2F9FA" d="M8239 13899v-647c0-51 42-93 93-93h380c-287 36-400 355-473 740zM9246 13899v-647c0-51 42-93 94-93h380c-287 36-401 355-474 740zM8945 16113c-22-18-38-42-45-69-1-8-2-17-2-25 0-74 60-134 134-134h3c-64 38-95 113-90 228z"/><path fill="#FCFBFB" d="M8900 16044c-6-25-5-53 5-78 21-51 69-82 121-82 3 0 6 0 9 1h-3c-74 0-134 60-134 134 0 8 1 17 2 25z"/><path fill="#F2F9FA" d="M10196 16113c-9-7-18-16-25-26-11-20-18-43-18-68 0-74 60-134 133-134-64 38-95 113-90 228z"/><path fill="#FCFBFB" d="M10171 16087c-24-35-31-80-14-121 20-51 69-82 120-82 3 0 7 0 10 1h-1c-73 0-133 60-133 134 0 25 7 48 18 68z"/><path fill="#F2F9FA" d="M11455 16113c-23-18-38-42-45-69-2-8-2-17-2-25 0-74 60-134 134-134h2c-63 38-94 113-89 228z"/><path fill="#FCFBFB" d="M11410 16044c-6-25-5-53 5-78 20-51 69-82 120-82 4 0 7 0 10 1h-3c-74 0-134 60-134 134 0 8 0 17 2 25z"/><path fill="#F2F9FA" d="M12706 16113c-10-7-18-17-25-27-12-19-19-43-19-67 0-74 60-134 134-134-64 38-95 113-90 228z"/><path fill="#FCFBFB" d="M12681 16086c-24-34-31-79-14-120 20-51 68-82 120-82 3 0 6 0 9 1-74 0-134 60-134 134 0 24 7 48 19 67z"/><path fill="#F2F9FA" d="M13957 16113c-1-1-3-2-5-4-22-24-35-55-35-90 0-73 58-132 130-134-64 38-95 113-90 228z"/><path fill="#FCFBFB" d="M13952 16109c-39-35-55-92-34-143 20-51 69-82 120-82 3 0 6 0 10 1h-1c-72 2-130 61-130 134 0 35 13 66 35 90z"/></g></svg>