<svg xmlns="http://www.w3.org/2000/svg" width="210mm" height="297mm" shape-rendering="geometricPrecision" text-rendering="geometricPrecision" image-rendering="optimizeQuality" fill-rule="evenodd" clip-rule="evenodd" viewBox="0 0 21000 29700"><g fill-rule="nonzero"><path fill="#EEEDEE" d="M15724 21119c0 513-2069 929-4621 929s-4621-416-4621-929 2069-929 4621-929 4621 416 4621 929z"/><path fill="#9D9C9E" d="M14592 21119c0 387-1562 701-3489 701s-3489-314-3489-701 1562-702 3489-702 3489 315 3489 702z"/><path fill="#BB7C6A" d="M9072 16016s-659-541-572-1810c88-1268 1045-2501 2739-2444 1695 58 2502 1384 2571 2871 0 0 35 796-553 1591 0 0 565-426 1487-357 923 69 911 807 865 1291s-507 1084-1349 1095c0 0-340 18-715-69 0 0 75 369-11 703 0 0-565 29-600 41-34 11-934 1003-957 1043-23 41-190 663-86 876 104 214 196 415 196 415s-1182 398-2150-51c0 0 92-715 115-779 23-63-58-530-121-634s-980-876-1020-893c-41-18-352-214-352-214l-23-92s-133-571 52-957c0 0-1580 173-2104-836-525-1008 242-1752 1008-1689 767 64 1580 899 1580 899z"/><path fill="#F8C8A3" d="M12607 15507c0 754-693 1365-1547 1365-855 0-1548-611-1548-1365s693-1365 1548-1365c854 0 1547 611 1547 1365z"/><path fill="#CA8979" d="M9960 12261s-779 173-1202 1539c0 0-839-277-951-847-113-571 484-1617 1236-1678 752-60 899 847 917 986z"/><path fill="#F8C8A3" d="M9599 12452s-20-402-389-482c-369-81-847 559-772 1066 0 0 35 227 478 338 0 0 234-594 683-922z"/><path fill="#CA8979" d="M12486 12465s779 173 1202 1539c0 0 839-276 951-847 113-571-484-1617-1236-1677-752-61-899 847-917 985z"/><path fill="#F8C8A3" d="M12847 12656s20-401 389-482 847 559 772 1067c0 0-34 226-478 338 0 0-234-595-683-923z"/><path fill="#553C4D" d="M10497 13898c0 229-186 414-414 414-229 0-414-185-414-414 0-228 185-414 414-414 228 0 414 186 414 414z"/><path fill="#FEFEFE" d="M10131 13750c0 95-77 172-171 172-95 0-172-77-172-172 0-94 77-171 172-171 94 0 171 77 171 171z"/><path fill="#553C4D" d="M12536 13898c0 229-185 414-413 414-229 0-414-185-414-414 0-228 185-414 414-414 228 0 413 186 413 414z"/><path fill="#FEFEFE" d="M12171 13750c0 95-77 172-172 172-94 0-171-77-171-172 0-94 77-171 171-171 95 0 172 77 172 171z"/><path fill="#553C4D" d="M11611 14760s-510-285-1016 0c0 0-26 527 508 631 0 0 430-43 508-618v-13z"/><path fill="#E63535" d="M10301 15836s194 540 778 541c567 0 666-519 666-519s-372 65-601-112c-22-17-65-91-65-91s-233 173-255 181c-21 9-322 39-390 22s-133-22-133-22z"/><path fill="#814133" d="M11529 16433s-450 342-981 0c0 0 115 303 490 316 389 13 491-316 491-316z"/><path fill="#F8C8A3" d="M12424 19001c0 986-656 1786-1466 1786-809 0-1465-800-1465-1786s656-1785 1465-1785c810 0 1466 799 1466 1785z"/><path fill="#CA8979" d="M9962 19205c554 699 490 1672-144 2175-634 502-1597 343-2151-355-554-699-489-1672 145-2175s1596-344 2150 355z"/><path fill="#F8C8A3" d="M9790 19843c320 404 253 991-151 1311-403 321-990 253-1311-152-320-403-253-991 151-1311s991-252 1311 152zM7934 19939c89 111 70 274-42 362-111 89-273 70-362-42-88-111-70-274 42-362 111-89 274-70 362 42zM9241 18903c88 111 69 274-42 362-112 89-274 70-363-42-88-111-69-273 42-362 112-88 274-70 363 42zM8383 19162c88 112 69 274-42 363-112 88-274 70-363-42-88-112-70-274 42-362 112-89 274-70 363 41z"/><path fill="#CA8979" d="M11941 19205c-554 699-489 1672 145 2175 633 502 1596 343 2150-355 554-699 489-1672-144-2175-634-503-1597-344-2151 355z"/><path fill="#F8C8A3" d="M12113 19843c-320 404-252 991 151 1311 404 321 991 253 1311-152 320-403 253-991-151-1311-403-320-990-252-1311 152zM13969 19939c-88 111-70 274 42 362 112 89 274 70 362-42 89-111 70-274-42-362-111-89-273-70-362 42zM12663 18903c-89 111-70 274 42 362 111 89 274 70 362-42 88-111 70-273-42-362-111-88-274-70-362 42zM13521 19162c-89 112-70 274 42 363 111 88 274 70 362-42 89-112 70-274-42-362-111-89-274-70-362 41z"/><path fill="#814133" d="M11079 15607s-223 307-582 178c-360-130-434-424-343-658 0 0-92-129-366-52 0 0 185-25 295 104 0 0-201 563 351 755 460 160 645-227 645-227v-100zM11079 15607s224 307 583 178c360-130 433-424 343-658 0 0 92-129 366-52 0 0-185-25-295 104 0 0 201 563-351 755-460 160-646-227-646-227v-100z"/><path fill="#AA5447" d="M13749 13871c-32-119-69-228-107-326 338-117 366-304 366-304 18-120 5-248-31-371 296-197 393-531 393-531s230 219 190 738c-40 518-811 794-811 794z"/><path fill="#F3A26E" d="M13642 13545c-134-344-283-541-275-541h1c43 4 85 7 125 7 201 0 360-59 484-141 36 123 49 251 31 371 0 0-28 187-366 304z"/><path fill="#AA5447" d="M8697 13682s-653-294-726-692 111-677 111-677-90 709 545 986c0 0 6-11 18-30 46 27 101 53 169 76-49 107-90 221-117 337z"/><path fill="#F3A26E" d="M8814 13345c-68-23-123-49-169-76 71-111 347-512 759-763 0 0-373 364-590 839z"/><path fill="#352A2F" d="M12130 14254h-7c-259-4-343-250-343-250s138 112 343 116h5c201 0 358-249 358-249 1 170-103 383-356 383zM10080 14254h-8c-258-4-342-250-342-250s138 112 342 116h6c201 0 358-249 358-249 1 170-103 383-356 383z"/><path fill="#944B3E" d="M12658 16433s868-670 1065-1518c0 0-92 787-600 1332 0 0-42 95-465 186z"/><path fill="#352A2F" d="M11088 15339c-471-151-441-536-441-536s200 145 413 145c25 0 50-2 76-7 237-43 393-138 393-138-30 437-441 536-441 536z"/><path fill="#F3A26E" d="M11506 15763c-92 0-270-32-427-242 0 0-95 236-402 236-43 0-90-5-142-16-434-89-339-537-339-537s37 305 399 380c51 11 97 15 138 15 256 0 346-170 346-170s161 194 392 194c19 0 38-1 58-4 262-37 470-335 470-335s52 390-431 473c0 0-23 6-62 6zM11603 16146c39-48 68-97 90-141 364-64 430-389 430-389s-23 506-520 530zm-1145-55c-171-68-271-259-271-259s64 56 163 106c25 44 60 98 108 153z"/><path fill="#E42425" d="M11553 16147c-342 0-493-175-493-175s-86 147-401 147c-35 0-72-2-111-6-32-3-62-11-90-22-48-55-83-109-108-153 81 40 185 77 298 77 140 0 293-56 431-230 0 0 86 232 469 232 21 0 41-1 63-2 29-2 56-5 82-10-22 44-51 93-90 141-17 1-34 1-50 1z"/><path fill="#944B3E" d="M9493 16224l-340-208c-462-404-519-1101-519-1101 196 640 859 1309 859 1309zM14087 18183c-641 0-998-322-998-322s237 43 568 43c574 0 1431-129 1825-838 0 0 21 841-917 1060-173 41-333 57-478 57zM8378 17540c-287 0-714-39-1172-217-815-317-798-1176-798-1176 246 1028 1440 1172 2092 1172 254 0 426-22 426-22l-185 219s-138 24-363 24zM11070 21369c-576 0-989-164-989-164 179-103 258-418 258-418 214 111 465 144 689 144 329 0 598-72 598-72 26 270 242 398 242 398-283 83-554 112-798 112z"/><path fill="#AA5447" d="M9008 21558c-137 0-292-17-466-62 0 0-660-225-875-666 0 0 313 160 705 223 182 200 434 303 689 303 203 0 407-66 578-202 328-259 434-695 291-1066 87-280 78-529 62-650 0 0 651 968-179 1824 0 0-250 296-805 296z"/><path fill="#F3A26E" d="M9061 21356c-255 0-507-103-689-303 98 16 201 26 305 26 240 0 487-53 695-209 315-236 478-522 558-782 143 371 37 807-291 1066-171 136-375 202-578 202z"/><path fill="#AA5447" d="M12944 21558c-555 0-804-296-804-296-831-856-180-1824-180-1824-14 111-23 330 43 582-185 385-87 859 261 1134 171 136 376 202 579 202 250 0 499-100 681-294 417-57 761-232 761-232-214 441-874 666-874 666-175 45-330 62-467 62z"/><path fill="#F3A26E" d="M12843 21356c-203 0-408-66-579-202-348-275-446-749-261-1134 72 277 234 593 578 850 207 156 454 209 694 209 85 0 168-6 249-17-182 194-431 294-681 294z"/><path fill="#E4BEB6" d="M8170 12313v-208s409-744 966-744c9 0 19 0 28 1 571 26 666 805 666 805s-157-615-596-615h-16c-638 22-1048 761-1048 761zM12698 12448l-133-69s144-807 709-819h14c558 0 938 675 938 675s-433-565-888-571h-6c-451 0-623 715-623 715l-11 69z"/><path fill="#C89483" d="M11160 12536c-537 0-973-139-973-312 0-172 436-311 973-311s973 139 973 311c0 173-436 312-973 312zM8430 16700c-45 0-93-1-143-3-911-35-2282-923-1359-1306 140-58 283-83 424-83 787 0 1524 766 1524 766 139 130 420 359 420 359s-87 267-866 267zM14327 17219c-866 0-2155-172-1638-581 128-101 312-93 599-261 172-101 714-369 1333-369 128 0 260 11 392 38 770 157 357 1141-492 1170-61 2-126 3-194 3z"/><path fill="#944B3E" d="M13506 18537s-179-43-384-43c-40 0-80 1-121 5 0 0 239-273 122-524l342 208s35 307 41 354z"/></g></svg>