<svg xmlns="http://www.w3.org/2000/svg" width="210mm" height="297mm" shape-rendering="geometricPrecision" text-rendering="geometricPrecision" image-rendering="optimizeQuality" fill-rule="evenodd" clip-rule="evenodd" viewBox="0 0 21000 29700"><g fill-rule="nonzero"><path fill="#8EA931" d="M5106 20641c0 141 1737 255 3880 255 2142 0 3879-114 3879-255 0-140-1737-254-3879-254-2143 0-3880 114-3880 254z"/><path fill="#ECA74B" d="M8873 12660s-772-191-1023 131c-252 322 34 287 13 520-22 232-476 423-739 161-263-263 117-2124 1966-1595l-217 783z"/><path fill="#CB5C27" d="M7202 13340c42-66 97-127 177-104l-3-8c-5-16 8-29 22-30 56-4 88 53 134 81 54 32 139 89 182 4 32-71-11-126-44-184-34-59-91-103-119-164-3-6 4-15 11-10 122 75 281 315 201 412-58 69-131 74-219 40-47-18-102-52-137-95l-9 2c-34-2-62-8-96 3-37 13-64 46-84 78-18 29-34 4-16-25z"/><path fill="#ECA74B" d="M13125 13888s624 493 986 305c363-189 87-276 203-479s609-188 740 160c130 348-986 1885-2450 638l521-624z"/><path fill="#CB5C27" d="M14289 13777c6-13 39-24 39-9-2 139 19 251 132 337 204 156 345-14 374-45l5 4c-18 58-80 224-352 152-152-40-272-278-198-439z"/><path fill="#CB5C27" d="M14423 14181l9-2c16 20 21 43 31 67 16 33 40 62 69 84 46 35 127 24 181 37 32 8 33 59 0 66-84 17-143-26-203-75-46-36-101-116-87-177z"/><path fill="#ECA74B" d="M11510 19442l-441-2408-1226 304 1263 2264z"/><path fill="#025F52" d="M11110 19536s-19 321 194 519c0 0 1173-248 1552-543 0 0-806-267-1345-268l-401 292z"/><path fill="#2A2624" d="M11776 19286c28-59 110-114 170-68l5 18c-12 41-39 74-55 113-26 65-15 134-10 201 7 81-122 97-140 20-22-95-12-196 30-284zM12053 19547c0-62 22-129 56-181 14-23 90-116 122-66 21 35 11 80 5 118-6 43-15 85-20 129-4 44-33 81-81 81-45 1-82-36-82-81z"/><path fill="#FDFAE0" d="M11513 19541c-73 113-127 270-136 404-1 7 10 8 12 1 48-131 87-268 133-401l-9-4zM11622 19676c-43 94-81 188-106 288-9 36 41 48 55 15 39-96 49-199 55-302l-4-1zM11764 19729l-12-1c-24 55-45 110-71 164-18 37 36 70 56 33 30-59 52-131 27-196z"/><path fill="#ECA74B" d="M5770 15521l1729 699-73-970-1510-132z"/><path fill="#025F52" d="M6093 15128s-159-279-446-328c0 0-846 849-1002 1304 0 0 822-218 1273-512l175-464z"/><path fill="#2A2624" d="M5586 15467c51 50 70 117 79 186 8 63 10 159-42 202-21 19-63 7-71-21-12-49 10-102 8-153-1-59-22-112-43-166-14-39 37-79 69-48z"/><path fill="#FDFAE0" d="M5713 15048c-25 6-62 4-88 3-33-2-64 15-93 27-50 23-130 57-154 109-14 32 2 74 42 72 54-1 102-46 142-79 25-20 50-38 75-59 26-22 42-56 78-67l-2-6zM5551 15310c-16 6-31 12-47 18-14 6-42 23-57 19-28-8-58 21-71 41-9 14 3 30 17 31 24 1 58-6 72-28 16-28 65-48 93-65 8-5 3-20-7-16zM5471 15472c-59 21-135 16-179 67-15 17-7 51 21 49 70-4 109-67 164-103 6-4 2-15-6-13z"/><path fill="#054C51" d="M8940 14585c11-15 26-21 40-21l-305-166c-453 613-840 703-1396 724-4 39-7 81-10 125 282 5 564-5 818-146 240-133 399-295 577-498 27-31 72 9 55 42-263 506-893 825-1457 730-2 59-5 120-6 183 317-54 608-53 905-223 333-189 560-441 779-750z"/><path fill="#054C51" d="M11247 15792l-2224-1205c8 12 10 29 0 47-305 554-1093 1124-1768 973-6 405 16 847 79 961 1501 293 2119-250 2119-250l160 1289c515 129 1045 192 1582 210-37-286 20-587 2-877-24-377-76-742-150-1112-10-51 67-73 79-21 76 332 141 679 163 1019 21 313 66 691-45 992 44 1 88 3 133 3 44-1216-130-2029-130-2029z"/><path fill="#FDFAE0" d="M8719 14645c17-33-28-73-55-42-178 203-337 365-577 498-254 141-536 151-818 146-2 41-5 84-7 128 564 95 1194-224 1457-730zM8980 14564l43 23c-9-15-25-23-43-23zM7185 15571c-9 2-8 15 0 17 23 7 47 13 70 19 0-17 1-33 1-49-23 4-47 8-71 13z"/><path fill="#FDFAE0" d="M9023 14634c10-18 8-35 0-47l-43-23c-14 0-29 6-40 21-219 309-446 561-779 750-297 170-588 169-905 223 0 16-1 32-1 49 675 151 1463-419 1768-973zM11199 17854c3 17 26 12 31 0s9-24 14-36c-17 0-33-1-49-1 1 12 2 24 4 37z"/><path fill="#FDFAE0" d="M11289 16826c-22-340-87-687-163-1019-12-52-89-30-79 21 74 370 126 735 150 1112 18 290-39 591-2 877 16 0 32 1 49 1 111-301 66-679 45-992z"/><path fill="#FAB913" d="M12517 13279l811 537s-101 826-681 1044l-682-522-521 1551s-1363 58-2973-1421l928-1493-870-87s-29-682 334-1160c0 0 1624 232 3654 1551z"/><path fill="#D53926" d="M14930 18536c0 591-479 1070-1071 1070-591 0-1071-479-1071-1070 0-592 480-1071 1071-1071 592 0 1071 479 1071 1071zM15017 17955c-5-14-28-12-28 4 4 192 36 383 38 577s-30 384-49 576c-2 29 42 33 49 7 96-350 113-819-10-1164zM15300 18172c-7-26-43-19-46 7-19 189-29 376-62 564-27 150-92 290-103 442-4 47 57 52 79 22 195-263 219-728 132-1035zM12874 17788c-190 162-285 503-253 744 3 21 38 20 42 0 22-124 32-246 67-368 36-129 102-245 158-365 4-10-6-18-14-11zM12656 17824c-51 24-83 53-113 102-30 52-60 119-53 179 5 38 58 63 79 22 22-44 26-92 40-139 15-51 38-104 59-153 3-8-4-15-12-11z"/><path fill="#ECA74B" d="M13578 9562s432 1121 577 1489c144 368-10 1207-650 1639s-2296 746-2696 410-753-624-753-624-400 192-752-224c-339-401-100-860 289-1023 16-6 63-24 47-18-47 18-670-1181 99-1725 768-544 2943-1781 3839 76z"/><path fill="#F7AB0F" d="M10813 13104v-1 1zm-2-2l-2-2c-400-336-753-624-753-624s-91 44-226 44c135 0 226-44 226-44s353 288 753 624l2 2zm-982-582h-6 6zm-509-251c-1 0-1-1-2-1 1 0 1 1 2 1zm-5-5s-1-1-2-1c1 0 2 1 2 1z"/><path fill="#CFD074" d="M9593 11229c8-3 26-10 38-15-12 5-30 12-38 15zm17-49c-83-120-287-574-248-1015-39 441 165 895 248 1015z"/><path fill="#E4E199" d="M13931 10476c-157-405-328-849-350-907 22 58 194 502 350 907zm-350-907c-2-4-2-6-3-7 1 1 1 3 3 7zm-3-7zm0 0zm0 0c-1-3-3-6-4-9 1 3 3 6 4 9zm-7-15c-2-3-3-6-5-9 2 3 3 6 5 9zm-6-12c-1-2-2-5-3-7 1 2 2 5 3 7zm-3826-49c1-1 3-2 5-4-2 2-4 3-5 4zm10-7l1-1-1 1zm13-9c1-1 2-2 3-2-1 0-2 1-3 2zm21-15c479-332 1423-878 2293-879-870 1-1814 547-2293 879zm2296-879h-1 1z"/><path fill="#E99A3F" d="M11244 13210c-186 0-338-31-431-106v-1c-1 0-1-1-2-1l-2-2c-400-336-753-624-753-624s-91 44-226 44h-7c-142-2-328-52-503-251-1 0-1-1-2-1-1-1-2-2-3-4 0 0-1-1-2-1-3-4-6-8-9-11-113-134-162-274-162-408 0-267 192-506 451-615 8-3 26-10 38-15 4-1 7-2 9-3h-1c-5 0-16-11-29-31-83-120-287-574-248-1015 23-252 125-501 377-679 1-1 3-2 5-4 2-1 4-2 5-3l1-1c4-3 8-5 12-8 1-1 2-2 3-2 6-5 12-9 18-13 479-332 1423-878 2293-879h3c580 1 1127 243 1483 952 1 2 2 5 3 7 1 1 1 2 1 3 2 3 3 6 5 9l3 6c1 3 3 6 4 9 1 1 1 3 3 7 22 58 193 502 350 907-106-198-253-666-373-854-30-48-55-67-79-67-98 0-186 315-602 371-158 22-304 31-440 31-282 0-521-38-732-76-211-37-393-75-564-75-127 0-246 20-366 77-670 316-961 1082-640 1817 171 390 445 749 708 1083 135 172 293 324 475 426-25 1-50 1-74 1zm-1601-1483c-116 0-14 408 38 452 42 35 99 51 154 51 85 0 165-38 175-106 19-134-167-314-337-390-11-5-22-7-30-7z"/><path fill="#60605F" d="M11246 11213c87-54 195-83 286-61 10-56 1-122-30-185-61-124-182-190-270-146-89 43-111 179-50 303 17 35 39 64 64 89z"/><path fill="#FDFAE0" d="M11462 10932c29 59 18 125-24 145-42 21-100-11-129-71s-18-125 24-145c42-21 99 11 129 71z"/><path fill="#E9A046" d="M11352 11773c-232 0-416-91-437-228-19-132 118-266 326-337 1 2 3 3 5 5 7-5 15-9 23-14 43-13 88-23 135-30s94-10 139-10c232 0 417 90 437 227 24 164-194 332-488 376-48 7-95 11-140 11z"/><path fill="#54453E" d="M11246 11213c-2-2-4-3-5-5 9-3 19-6 28-9-8 5-16 9-23 14z"/><path fill="#CB5C27" d="M10894 11464s382-396 973-222c0 0-430-394-973 222z"/><path fill="#60605F" d="M13251 10461c-90 24-177 78-222 155-42-31-78-83-99-147-41-126-6-253 79-284 84-31 185 46 226 172 12 35 16 71 16 104z"/><path fill="#FDFAE0" d="M13044 10354c19 61 68 98 108 83s56-76 37-136c-20-61-69-98-109-83-40 14-56 76-36 136z"/><path fill="#E9A046" d="M13139 11080c-84 0-154-26-191-79-65-93-28-245 79-387 1 0 2 1 2 2 45-77 132-131 222-155 0-15-1-32-3-48 69-34 150-51 226-51 103 0 197 31 242 94 89 128 28 302-188 473-126 100-271 151-389 151z"/><path fill="#54453E" d="M13029 10616c0-1-1-2-2-2 40-54 91-107 149-156 22-17 46-32 72-45 2 16 3 33 3 48-90 24-177 78-222 155z"/><path fill="#CB5C27" d="M13594 10380s-455 4-699 549c0 0 132-692 699-549z"/><path fill="#562D25" d="M9180 10115s-203-377 87-841 464-594 464-594l-131 536s392-739 1363-899c972-159 1711 87 2088-58s493-304 493-304 14 435-160 580 464-87 464-87-145 1145-1333 1334c-1189 188-1740-363-2175 449-31 57-58 29-58 29s333 609-102 1290c0 0-391-391-725-217 0 0-348-29-565-493-218-464 290-725 290-725z"/><path fill="#D97823" d="M9835 12230c-55 0-112-16-154-51-52-44-154-452-38-452 8 0 19 2 30 7 170 76 356 256 337 390-10 68-90 106-175 106z"/><path fill="#FDFAE0" d="M12678 11299c-311 0-578 177-701 433 382-50 759-115 1071-343-110-57-236-90-370-90z"/><path fill="#CB5C27" d="M13048 11389c-312 228-689 293-1071 343-47 96-73 202-73 315 0 413 347 748 774 748 428 0 775-335 775-748 0-284-164-531-405-658z"/></g></svg>