<svg xmlns="http://www.w3.org/2000/svg" width="210mm" height="297mm" shape-rendering="geometricPrecision" text-rendering="geometricPrecision" image-rendering="optimizeQuality" fill-rule="evenodd" clip-rule="evenodd" viewBox="0 0 21000 29700"><g fill-rule="nonzero"><path fill="#D0A365" d="M10757 13915l-8-8c-1115-1115-1935-1396-2589-716-193 201-316 438-410 720-134 405-481 826-919 862-1039 86-1766 450-2308 992-1028 1028-690 2468 427 3585 31 31 109 108 186 186 77 77 155 154 186 186 1117 1116 2557 1454 3585 426 541-541 906-1268 992-2307 36-438 457-785 862-920 281-93 519-216 720-409 679-654 399-1474-716-2589l-8-8z"/><path fill="#705749" d="M10703 13960c-723-723-1300-1070-1769-1065-266 2-503 115-724 345-170 177-295 397-393 693-136 411-501 871-980 910-948 79-1689 396-2264 972-929 929-762 2297 427 3485l372 372c1188 1188 2556 1356 3485 427 575-576 893-1316 972-2264 39-480 499-844 910-980 295-98 516-223 693-394 230-221 342-457 345-723 5-469-343-1047-1065-1769l-9-9zm-5803 5439c-1248-1248-1416-2694-426-3684 599-599 1368-930 2351-1012 416-34 737-446 859-814 104-317 240-554 425-746 245-255 522-386 823-389 516-5 1109 346 1867 1103l-26 41 41-25c758 758 1109 1351 1103 1867-2 301-133 578-388 822-193 186-430 321-746 426-368 122-780 443-815 859-81 982-412 1751-1012 2351-989 989-2435 822-3684-427l-372-372z"/><path fill="#705749" d="M8420 16251c-314-314-314-823 0-1137s823-314 1137 0 314 823 0 1137-823 314-1137 0z"/><path fill="#705749" d="M8341 16331c-358-358-358-938 0-1296s938-358 1296 0 358 938 0 1296-938 358-1296 0z"/><path fill="#FEFEFE" d="M9587 15084c-330-330-867-330-1197 0s-330 867 0 1197 867 330 1197 0 330-867 0-1197zm-1296 1297c-385-385-385-1011 0-1396s1011-385 1396 0c384 385 384 1011 0 1396-385 384-1011 384-1396 0z"/><path fill="#705749" d="M9633 15039c-355-355-933-355-1288 0s-355 933 0 1288 933 355 1288 0 355-933 0-1288zm-1387 1387c-410-410-410-1077 0-1486 409-410 1076-410 1486 0 410 409 410 1076 0 1486s-1077 410-1486 0z"/><path fill="#705749" d="M9779 14893c-436-436-1145-436-1580 0-436 435-436 1144 0 1580 435 436 1144 436 1580 0s436-1145 0-1580zm-1630 1629c-463-463-463-1216 0-1679s1217-463 1680 0 463 1216 0 1679c-463 464-1217 464-1680 0zM5836 16511l323-324 2325 2326-323 323z"/><path fill="#A6A4A1" d="M15541 8909l-432-433 65-65 433 432zM15763 9131l432 432 66-66-432-432z"/><path fill="#E3E1E0" d="M15005 8534l-86-85c-29-30-29-77 0-107l126-126c30-29 77-29 107 0l86 86c29 29 29 77 0 106l-127 126c-29 30-77 30-106 0zM16137 9667l86 86c30 29 77 29 106 0l127-127c29-29 29-77 0-106l-86-86c-30-29-77-29-106 0l-127 127c-29 29-29 76 0 106z"/><path fill="#A6A4A1" d="M15020 9480l-432-433 66-65 432 432zM15192 9652l432 432 66-66-432-432z"/><path fill="#E3E1E0" d="M14484 9106l-86-86c-29-30-29-77 0-106l127-127c29-29 77-29 106 0l86 86c29 29 29 77 0 106l-127 127c-29 29-76 29-106 0zM15566 10187l86 86c29 30 77 30 106 0l127-126c29-29 29-77 0-106l-86-86c-30-30-77-30-107 0l-126 126c-29 29-29 77 0 106z"/><path fill="#A6A4A1" d="M16043 8318l-433-432 66-66 432 433zM16353 8629l433 432 65-65-432-433z"/><path fill="#705749" d="M14468 9540l-5311 5158 816 817 5158-5311z"/><path fill="#D0A365" d="M14562 9446l-94 94 663 664 95-94z"/><path fill="#FAFBFB" d="M14214 9828l-32 32 630 629 32-32zM13909 10134l-32 32 629 629 32-32zM13603 10440l-32 32 629 629 32-32zM13297 10745l-32 33 629 629 32-32zM12980 11040l-32 32 652 652 32-32zM12666 11338l-32 32 668 667 31-32zM12353 11636l-32 32 682 683 32-32zM12047 11942l-32 32 682 683 32-32zM11727 12237l-32 32 708 707 32-32zM11434 12530l-32 32 707 708 32-32zM11140 12824l-32 32 708 707 32-31zM10847 13117l-32 32 707 708 32-32zM10543 13401l-32 32 728 728 32-32zM10288 13656l-32 32 728 728 32-32zM10032 13912l-32 32 728 727 32-32zM9767 14157l-32 32 748 748 32-32zM9512 14412l-32 32 748 748 32-32zM9246 14658l-32 32 768 767 32-32z"/><path fill="#705749" d="M16541 8130c-46-46-249-265-249-265-83-73-130-112-235-76l-320 157c-68 24-123 74-153 139-200 440-540 728-892 1075-31 30-55 68-69 109l-61 177 664 664 177-61c41-14 79-38 109-69 347-352 635-692 1074-892 66-30 116-85 140-153l156-320c37-105-2-153-76-235 0 0-218-203-265-250z"/><path fill="#E3E1E0" d="M15507 7944l-86-86c-30-29-30-76 0-106l126-126c29-30 77-30 106 0l86 86c30 29 30 77 0 106l-126 126c-29 30-77 30-106 0zM16727 9165l86 86c30 29 77 29 107 0l126-126c29-30 29-77 0-107l-86-85c-29-30-77-30-106 0l-127 126c-29 29-29 77 0 106z"/><path fill="#FAFBFB" d="M13383 11288c-27-28-27-73 1-101 29-28 74-29 102-1 27 28 27 73-1 101s-74 29-102 1zM12781 11891c-28-28-28-73 1-101 28-28 73-29 101-1 28 27 27 73-1 101s-74 29-101 1zM12163 12509c-28-28-27-73 1-101 28-29 73-29 101-1 28 27 27 73-1 101s-74 29-101 1zM11282 13390c-28-28-28-73 1-101 28-28 73-29 101-1 27 28 27 73-1 101s-74 29-101 1zM10463 14209c-28-28-28-73 1-101 28-28 73-29 101-1 28 27 27 73-1 101s-74 29-101 1zM9959 14713c-28-27-28-73 0-101 29-28 74-29 102-1 27 28 27 73-1 101s-74 29-101 1z"/><path fill="#918D8C" d="M7022 17556l-31-31 7786-7786 1162-1585 35 25-1164 1588zM7147 17681l-31-31 7786-7786 1590-1166 26 34-1588 1165z"/><path fill="#918D8C" d="M6908 17442l-31-31 7786-7785 754-909 33 27-755 911zM7260 17794l-30-30 7786-7786 912-756 27 33-910 755z"/><path fill="#918D8C" d="M6794 17328l-30-30 7781-7782 347-240 25 35-344 238zM7374 17908l-30-30 7782-7782 235-341 35 25-237 343z"/><path fill="#E3E1E0" d="M14930 9324c-29 30-76 30-106 0-29-29-29-77 0-106 30-29 77-29 106 0 30 29 30 77 0 106zM15348 9741c-30 30-30 77 0 106 29 30 76 30 106 0 29-29 29-76 0-106-30-29-77-29-106 0zM15466 8763c-29 29-77 29-106 0s-29-77 0-106 77-29 106 0c30 29 30 77 0 106zM15908 9205c-29 30-29 77 0 106 30 30 77 30 107 0 29-29 29-76 0-106-30-29-77-29-107 0zM15996 8201c-29 30-76 30-106 0-29-29-29-76 0-106 30-29 77-29 106 0 30 30 30 77 0 106zM16470 8675c-29 30-29 77 0 107 30 29 77 29 106 0 30-30 30-77 0-107-29-29-76-29-106 0z"/><path fill="#FEFEFE" d="M6536 16999l88-89 1137 1137-88 89z"/></g></svg>