<svg xmlns="http://www.w3.org/2000/svg" width="210mm" height="297mm" shape-rendering="geometricPrecision" text-rendering="geometricPrecision" image-rendering="optimizeQuality" fill-rule="evenodd" clip-rule="evenodd" viewBox="0 0 21000 29700"><g fill-rule="nonzero"><path fill="#A56839" d="M3874 8060c-214-164-428-121-556-264-129-143-286-214-243 0s150 542 396 585 403-321 403-321zM7497 14101c-186 314-628 884-927 1098-300 214-942 585-970 870-29 286 86 927 228 1056 143 128 243 214 185 371-57 157-114 199 86 214 200 14 357 114 314 385s-114 656-214 756-414-756-485-899-157-328-257-371-57-242-100-485c-42-242-57-713-157-898-99-186-171-634 0-809 172-176 942-846 999-1046 57-199 185-528 214-713 28-185 1084 471 1084 471zM12318 13336c-160 305 214 736 414 936s842 998 1041 1355c200 357 577 1298 531 1583-46 286-274 1013-488 1170s-770 401-713 479c57 77 757 363 942 149s171-471 327-585c157-114 499-57 406-314-92-257-63-1041-78-1327-14-285 0-1141-42-1298-43-156-771-1540-756-1797 14-257-1384-730-1584-351z"/><path fill="#252422" d="M13959 10563c299-299 641-656 970-770 328-114 1434-137 1626 923s-171 1744-271 2187c-100 442-86 898 0 1155 85 257-271-80-314-297s-185-31-57 354 371 585 542 699c228 152-292 152-603-57-424-285-282-864-396-824-114 39-203 539-144 781 59 243-198 86-226-314-29-399-100-1184-15-1369 86-185 115-685-71-456-186 228-285-86-57-371 228-286 396-573 369-929-27-355-335-926-1008-426-673 499-345-286-345-286z"/><path fill="#D48747" d="M3471 7454c206 110 488 377 631 409 143 33 357 25 642 0 285-24 942-210 1640 404 699 613 1470 1569 1869 1783s984 813 1968 770c985-43 1741-485 2625-514 884-28 1542-27 1932 771 391 797 506 1368 0 2117-506 750-406 1393 108 1728 513 334 366 562 85 905-280 342-670 1312-599 1555 72 242 114 399 29 513-86 114 94 296 61 483s-159 758-417 544c-257-214-429-998-343-1441 86-442 405-1027 602-1426s-134-926-425-1133c-291-208-1047-815-1147-989-100-175-285-283-1041 0-756 282-1783 510-2440 482-656-29-1198-243-1198-72s15 1498 72 1712 28 656-15 842c-42 185-28 727 15 884 42 157 157 571 57 756s-414 327-428 549c-15 221-285 264-685 278-399 15-585-114-200-399s714-471 728-613c14-143 157-414 128-628-28-214-171-770-228-1027s-43-628-86-785c-42-157-242-1469-399-1569s-884-408-1084-746-371-751-271-1151c100-399 14-841-86-1084-100-242-335-1184-474-1355s-282 86-553 328c-271 243-585 485-741 742-157 257-457 456-735 371-278-86-407-371-321-642s414-1384 414-1541 28-328 71-485 93-513 239-599c146-85 246-108 146-318-89-187-243-423-180-421 8 0 19 4 34 12z"/><path fill="#252422" d="M4254 7701c171-30 292 21 385 72 80 43 140 87 194 80 116-15 353-125 695-82 343 44 1075 415 1322 672 248 256 837 865 989 1055s704 599 970 761 476 391 276 457c-83 28-141 14-189 0-68-19-115-38-182 56-114 162-199 369-228 503-28 135-124 544-285 620-162 76 114-847-10-875-123-29-114 713-228 760-114 48 38-608-124-703-161-95-95 314-218 314-124 0-76 190-200 199-124 10 0-713-86-780-44-34-55 48-76 130-19 75-46 150-114 137-142-29-161-656-247-704-86-47-25 447-189 457-163 9-115-894-230-932-59-20-108 56-150 131-38 70-69 139-97 135-57-10-47-675-142-827-95-153-181-362-257-533-38-86-77-32-114 22-37 53-72 106-105 26-66-162-123-590-276-647-152-57-475-257-580-257-104 0-542 66-599-9-57-76-228-181 95-238zM2970 10801c122 31 200 181 162 276s-162 219-162 133-81-430 0-409zM3646 9251c13-124-19-190 133-200 152-9 244 48 284 0 39-47-18 133-123 200-104 67-299 46-294 0z"/><path fill="#A56839" d="M4987 9893c442-442-83-903-300-1156-114-132 601 291 630 685s-330 471-330 471zM8139 14015c200-299 300-1013 157-1326 0 0 305 339 145 908-161 569-302 418-302 418zM7069 14201c-15-260-560-599-772-1127 0 0-36 308 317 700s455 427 455 427z"/><path fill="#FEFEFE" d="M3771 10761c-28 198-175 427-331 605l331-605z"/><path fill="#252422" d="M3728 10755c-26 182-168 408-321 582-16 18-14 46 4 62 19 16 46 14 62-4 158-183 310-414 341-628 4-24-13-46-37-50-24-3-46 14-49 38z"/><path fill="#D6D4D2" d="M3761 11140v-1 1zm1-2c14-19 27-39 40-60-13 21-26 41-40 60zm41-61c156-257 470-499 741-742 210-188 343-384 457-384 5 0 10 1 15 2-5-1-10-1-16-1-113 0-246 196-456 383-271 243-585 485-741 742z"/><path fill="#B06E3B" d="M3605 11305c114-286 264-499 366-679 339-595 677-1268 506-1968-6-26-17-48-29-67v-7c80 40 163 84 245 131-5-2-9-2-12-2-10 0-9 7 6 24 217 253 742 714 300 1156 0 0 97-21 187-97-73 72-107 110-158 157-5-1-10-2-15-2-114 0-247 196-457 384-271 243-585 485-741 742-1 0-1 1-1 1-13 21-26 41-40 60-1 0-1 1-1 1v1c-45 61-98 117-156 165zm1701-1723c11-47 16-100 11-160-1-14-3-28-6-42 16 64 17 131-5 202zm-112-447c-67-91-152-174-234-243 95 74 177 155 234 243z"/><path fill="#8A5834" d="M4987 9893c442-442-83-903-300-1156-15-17-16-24-6-24 3 0 7 0 12 2 94 54 186 113 267 177 82 69 167 152 234 243 0 1 1 1 1 2 51 80 96 159 116 243 3 14 5 28 6 42 5 60 0 113-11 160-21 67-63 138-132 214-90 76-187 97-187 97z"/><path fill="#D6D4D2" d="M6572 15198v-1 1zm1-1c0-1 1-1 1-1s-1 0-1 1zm2-2zm2-1z"/><path fill="#8A5834" d="M6301 18634c-319-371-551-863-662-1326-68-285-117-571-195-855-98-358-174-668 98-964 296-322 980-819 1103-1341 21 12 42 23 63 34 169 167 297 302 377 495-171 209-357 407-508 517-1 0-1 1-2 1 0 1-1 1-1 1s-1 0-1 1h-1v1c-1 0-2 1-2 1-300 214-942 585-970 870-3 30-5 64-5 100 1 314 105 841 233 956 115 103 202 179 202 286 0 26-5 54-17 85-26 74-53 122-53 154 0 37 33 52 139 60 178 12 321 93 321 301 0 25-2 54-7 84-27 167-64 378-112 539z"/><path fill="#B06E3B" d="M6708 14182c-21-11-42-22-63-34 1-8 3-16 5-24l58 58z"/><path fill="#D6D4D2" d="M14462 18379v-1c167-59 390-55 318-264 72 210-151 206-318 265zm318-266v-1 1zm-1-1v-1 1zm0-2zm-84-1525c-1-44-1-91-2-141 1 50 1 97 2 141zm-3-291c81-167 168-319 248-427-80 108-167 260-248 427zm248-427l1-1-1 1zm1-2h0zm1-1zm27-34zm1-1zm1-1v-1c146-178 256-325 256-472 0 147-110 294-256 472v1zm144-3285c-8-15-18-25-30-26v-1c12 2 23 11 31 25 0 1-1 1-1 2zm-16-552v-1c6-8 11-17 16-25v1c-5 8-11 16-16 25zm-319-910v-1 1zm-245-370c32-14 62-25 92-34-30 9-60 20-92 34z"/><path fill="#8A5834" d="M14462 18378c33-187-147-369-61-483 85-114 43-271-29-513-49-167 119-675 320-1088 0 51 1 102 1 150 1 50 1 97 2 141 1 79 3 147 5 197 15 286-14 1070 78 1327 1 0 1 1 1 1v2h1v2c72 209-151 205-318 264z"/><path fill="#252422" d="M15116 12541c-8-14-19-23-31-25 37-176 40-349 14-525 5-9 11-17 16-25 12 102 26 203 42 305-2 12-2 25-4 37-11 79-25 156-37 233zm-581-1830c-127-137-271-230-431-293 17-17 35-34 52-51 157 104 314 207 471 310-30 9-60 20-92 34z"/><path fill="#B06E3B" d="M14270 18907c-183-382-256-774-237-1203 19-442 252-803 451-1182 261-499 300-1046-4-1533-57-92-125-176-199-255-74-203-132-411-199-616-7-21-17-39-27-55-78-497 227-1045 304-1522 59-361 17-734-51-1091-74-390-234-802-494-1110 102 18 198 43 289 79 0-1 1-1 1-1 160 63 304 156 431 293h-1c91 98 172 218 244 366 1 1 2 2 2 3v1c163 333 277 627 318 911 1-1 1-1 1-2v1c26 176 23 349-14 525v1h-1c-46 216-144 437-306 677-227 337-332 652-332 928 0 338 157 615 440 800 247 160 341 296 341 433 0 147-110 294-256 472v1c-1 0-1 0-1 1l-1 1c-9 11-18 22-27 34v1h-1v1l-1 1c-80 108-167 260-248 427-201 413-369 921-320 1088 72 242 114 399 29 513-86 114 94 296 61 483v1c-21 121-82 403-192 528z"/><path fill="#D6D4D2" d="M9367 14417zm4 0c648-1 1584-213 2292-474-708 261-1644 473-2292 474zm-114-2h-6c-472-21-885-137-1079-137 194 0 607 116 1079 137h6zm-1204-71v-1c0-48 43-65 119-65-76 0-119 17-119 65v1zm3638-411c1-1 1-1 2-1-1 0-1 0-2 1zm59-22s1 0 2-1c-1 1-2 1-2 1zm2-1c265-95 455-140 595-149v1c-140 9-329 53-595 148z"/><path fill="#8A5834" d="M12835 14056c-116-96-116-209-284-276-1-1-3-1-5-2 95 28 147 86 186 155 17 30 53 72 103 123zm-485-290l-2-4h-1v-1c13-1 25-1 37-2-14 2-25 4-34 7z"/><path fill="#B06E3B" d="M7017 19365c280-267 587-506 766-860 254-500 68-1219 11-1746-29-267-57-533-86-800 3-19 5-39 3-61-48-495-7-989-1-1485 68-377 313-707 359-1098 24-199 89-312 70-511-6-62 24-225 0-292 75 62 131 129 176 201-12-16-19-24-19-24 143 313 43 1027-157 1326 0 0 17 18 46 18 54 0 151-64 256-436 54-191 55-357 33-492 6 20 12 41 19 62-1 122-4 236 28 339 3 29 4 57 7 86 15 141 116 211 218 211 14 0 28-1 41-4 159 80 368 107 583 107 275 0 558-43 757-73 493-75 990-177 1434-409 242-127 407-325 539-549 45-24 81-66 99-130l5-16c35-25 65-63 82-115 59-173 128-352 259-479l-3 30c-8 94-32 227-24 345-24 438 1 886 185 1276 43 91 75 192 132 270-50-51-86-93-103-123-39-69-91-127-186-155-30-11-89-20-137-20-9 0-17 1-25 1-12 1-24 1-37 2-140 9-330 54-595 149-1 1-2 1-2 1l-57 21c-1 0-1 0-2 1-10 3-19 7-28 10-708 261-1644 473-2292 474h-4c-38 0-74-1-110-2h-6c-472-21-885-137-1079-137-76 0-119 17-119 65v1c0 173 15 1497 72 1711 23 86 32 208 32 336 0 191-21 394-47 506-18 77-25 218-25 367 0 205 15 426 40 517 30 112 96 353 97 550 0 80-11 152-40 206-100 185-414 327-428 549-15 221-285 264-685 278-18 1-35 1-52 1z"/><path fill="#8A5834" d="M8185 14033c-29 0-46-18-46-18 200-299 300-1013 157-1326 0 0 7 8 19 24 74 119 116 251 159 392 22 135 21 301-33 492-105 372-202 436-256 436z"/><path fill="#D6D4D2" d="M8818 10264h-1 1zm-2-1c-1 0-1 0-1-1 0 1 0 1 1 1zm-2-1l-1-1 1 1zm-2-2h-1 1zM4821 7854c-50 0-107-41-182-81-17-10-36-19-56-29 20 10 39 19 56 29 75 40 132 81 182 81 4 0 8-1 11-1h2c98-13 279-92 535-92 50 0 104 3 159 10-55-7-109-10-159-10-255 0-437 78-534 92h-3c-3 1-7 1-11 1z"/><path fill="#B06E3B" d="M8383 11807c-21-6-46-14-73-23 96-154 155-408 176-509 29-134 114-341 228-503 40-55 72-71 106-71 24 0 48 7 76 15 18 5 37 11 59 14-37 170-155 334-224 488-47 104-94 208-143 311-25 53-53 106-82 158-29 54-85 89-51 89 4 0 9 0 15-1-35 5-64 17-87 32zm-231-84c-43-17-87-36-130-55 56-213 71-649 162-649 3 0 5 0 7 1 84 19-17 452-39 703zm-236-102c-82-37-147-67-167-78-68-35-136-71-204-108 15-26 37-44 76-44 110 0 69-329 175-329 12 0 27 5 43 15 105 61 78 356 77 544zm-554-291c-211-127-411-271-576-447-23-24-47-40-71-51 0-1-1-2-1-3 150-17 104-459 173-459 3 0 7 1 11 3 86 48 105 675 247 704 6 1 11 1 16 1 56 0 81-69 98-138s28-138 57-138c6 0 12 3 19 8 51 40 28 309 27 520zm-750-675c-45-81-87-166-128-253-32-70-113-108-192-108-46 0-91 13-126 40-7-25-15-51-21-77-23-93-36-190-48-286-39-292-89-542-270-781-49-66-118-93-185-93-17 0-35 2-53 6-34-97-79-186-133-266 26-44 35-99 14-164-140-426-645-628-1067-628h-18c-6-23-13-47-20-70 148-3 330-27 393-27 105 0 428 200 580 257 153 57 210 485 276 647 12 29 25 41 37 41 22 0 45-34 68-67 23-34 47-67 70-67 15 0 29 12 44 45 76 171 162 380 257 533 95 152 85 817 142 827h3c27 0 57-67 94-135 37-67 80-135 131-135 7 0 13 1 19 4 82 27 81 495 133 757zM4832 7853h3-2-1z"/><path fill="#252422" d="M8310 11784c-47-17-102-38-158-61 22-251 123-684 39-703-2-1-4-1-7-1-91 0-106 436-162 649-37-16-73-32-106-47 1-188 28-483-77-544-16-10-31-15-43-15-106 0-65 329-175 329-39 0-61 18-76 44-62-34-123-69-183-105 1-211 24-480-27-520-7-5-13-8-19-8-29 0-40 69-57 138s-42 138-98 138c-5 0-10 0-16-1-142-29-161-656-247-704-4-2-8-3-11-3-69 0-23 442-173 459-36-57-69-114-102-174-52-262-51-730-133-757-6-3-12-4-19-4-51 0-94 68-131 135-37 68-67 135-94 135h-3c-57-10-47-675-142-827-95-153-181-362-257-533-15-33-29-45-44-45-23 0-47 33-70 67-23 33-46 67-68 67-12 0-25-12-37-41-66-162-123-590-276-647-152-57-475-257-580-257-63 0-245 24-393 27-29-95-66-187-110-274 35-6 68-9 99-9 91 0 166 23 229 52 20 10 39 19 56 29 75 40 132 81 182 81 4 0 8 0 11-1h3c97-14 279-92 534-92 50 0 104 3 159 10 343 44 1075 415 1322 672 248 256 837 865 989 1055s704 599 970 761c1 0 2 1 2 1h1c0 1 1 1 1 1l1 1h1c0 1 0 1 1 1 0 0 1 0 1 1h1c83 51 160 109 221 167-47 34-78 90-73 169 3 43-1 87-11 130-22-3-41-9-59-14-28-8-52-15-76-15-34 0-66 16-106 71-114 162-199 369-228 503-21 101-80 355-176 509z"/></g></svg>