<svg xmlns="http://www.w3.org/2000/svg" width="210mm" height="297mm" shape-rendering="geometricPrecision" text-rendering="geometricPrecision" image-rendering="optimizeQuality" fill-rule="evenodd" clip-rule="evenodd" viewBox="0 0 21000 29700"><defs><linearGradient id="a" gradientUnits="userSpaceOnUse" x1="8249.54" y1="9878.5" x2="9224.45" y2="11542.6"><stop offset="0" stop-color="#638637"/><stop offset="1" stop-color="#516731"/></linearGradient><linearGradient id="b" gradientUnits="userSpaceOnUse" x1="8252.5" y1="10566.9" x2="8632.45" y2="11155.2"><stop offset="0" stop-color="#9AA92E"/><stop offset="1" stop-color="#567033"/></linearGradient><linearGradient id="c" gradientUnits="userSpaceOnUse" x1="8534.25" y1="12728.9" x2="11268" y2="14362.7"><stop offset="0" stop-color="#F194A1"/><stop offset="1" stop-color="#DB5C6A"/></linearGradient><linearGradient id="d" gradientUnits="userSpaceOnUse" x1="8512.44" y1="12735.7" x2="11197.1" y2="14398.9"><stop offset="0" stop-color="#F194A1"/><stop offset="1" stop-color="#DB5C6A"/></linearGradient><linearGradient id="e" gradientUnits="userSpaceOnUse" x1="9606.24" y1="12779.7" x2="10655.7" y2="13821.1"><stop offset="0" stop-color="#E37F8A"/><stop offset="1" stop-color="#D13842"/></linearGradient><linearGradient id="f" gradientUnits="userSpaceOnUse" x1="9540.53" y1="12716" x2="10621.2" y2="13796.9"><stop offset="0" stop-color="#E37F8A"/><stop offset="1" stop-color="#D13842"/></linearGradient><linearGradient id="g" gradientUnits="userSpaceOnUse" x1="8153.31" y1="11885.6" x2="8432.93" y2="12310.7"><stop offset="0" stop-color="#FEFEFE"/><stop offset="1" stop-color="#E37F8A"/></linearGradient><linearGradient id="h" gradientUnits="userSpaceOnUse" x1="8634.34" y1="11429.5" x2="9313.6" y2="11485.8"><stop offset="0" stop-color="#FEFEFE"/><stop offset="1" stop-color="#E37F8A"/></linearGradient><linearGradient id="i" gradientUnits="userSpaceOnUse" x1="7616.67" y1="13518.9" x2="8308.5" y2="13518.9"><stop offset="0" stop-color="#FEFEFE"/><stop offset="1" stop-color="#E37F8A"/></linearGradient><linearGradient id="j" gradientUnits="userSpaceOnUse" x1="7360.72" y1="12793.6" x2="7715.27" y2="12812.2"><stop offset="0" stop-color="#FEFEFE"/><stop offset="1" stop-color="#E37F8A"/></linearGradient><linearGradient id="k" gradientUnits="userSpaceOnUse" x1="10066.3" y1="12046.3" x2="10244.9" y2="12350.6"><stop offset="0" stop-color="#E37F8A"/><stop offset="1" stop-color="#D84D5A"/></linearGradient><linearGradient id="l" gradientUnits="userSpaceOnUse" x1="11812.5" y1="15607.6" x2="13227.9" y2="15679.5"><stop offset="0" stop-color="#BA2827"/><stop offset=".561" stop-color="#AC2827"/><stop offset="1" stop-color="#8B2E33"/></linearGradient><radialGradient id="m" gradientUnits="userSpaceOnUse" gradientTransform="matrix(.78686 .44947 -1.33064 1.43007 21217 -11258)" cx="11562.4" cy="14092.8" r="185.58" fx="11562.4" fy="14092.8"><stop offset="0" stop-color="#F9E8EA"/><stop offset="1" stop-color="#D13842"/></radialGradient><radialGradient id="n" gradientUnits="userSpaceOnUse" gradientTransform="matrix(1.29583 .30738 -.61204 2.05567 5203 -18848)" cx="12075.4" cy="14338.2" r="189.51" fx="12075.4" fy="14338.2"><stop offset="0" stop-color="#E58890"/><stop offset="1" stop-color="#D13842"/></radialGradient><radialGradient id="o" gradientUnits="userSpaceOnUse" gradientTransform="matrix(.7279 .55377 -1.80906 1.93774 29597 -20633)" cx="12819.9" cy="14432.2" r="174.8" fx="12819.9" fy="14432.2"><stop offset="0" stop-color="#E58890"/><stop offset="1" stop-color="#D13842"/></radialGradient><linearGradient id="p" gradientUnits="userSpaceOnUse" x1="10765.8" y1="16204.3" x2="12386.8" y2="16095.6"><stop offset="0" stop-color="#F9E7E9"/><stop offset="1" stop-color="#D13842"/></linearGradient><radialGradient id="q" gradientUnits="userSpaceOnUse" gradientTransform="matrix(1.40894 -1.28594 1.05251 .80338 -19465 18737)" cx="12484.8" cy="13643.2" r="165.88" fx="12484.8" fy="13643.2"><stop offset="0" stop-color="#F9E8EA"/><stop offset="1" stop-color="#D13842"/></radialGradient><linearGradient id="r" gradientUnits="userSpaceOnUse" x1="13141" y1="16584.1" x2="13886.9" y2="16641.9"><stop offset="0" stop-color="#F7DDE1"/><stop offset="1" stop-color="#D13842"/></linearGradient><linearGradient id="s" gradientUnits="userSpaceOnUse" x1="12744.5" y1="14604.7" x2="12743.5" y2="14108.9"><stop offset="0" stop-color="#FAEBEE"/><stop offset="1" stop-color="#DC616D"/></linearGradient><linearGradient id="t" gradientUnits="userSpaceOnUse" x1="14803.2" y1="16229.3" x2="13948.4" y2="16230.3"><stop offset="0" stop-color="#D02F3A"/><stop offset="1" stop-color="#A72C32"/></linearGradient><linearGradient id="u" gradientUnits="userSpaceOnUse" x1="14289.2" y1="16798.3" x2="15428.6" y2="17331.7"><stop offset="0" stop-color="#C63039"/><stop offset="1" stop-color="#DB5C6A"/></linearGradient><linearGradient id="v" gradientUnits="userSpaceOnUse" x1="11573.1" y1="13957.1" x2="11827.9" y2="14254.5"><stop offset="0" stop-color="#FEFEFE"/><stop offset="1" stop-color="#D84D5A"/></linearGradient><linearGradient id="w" gradientUnits="userSpaceOnUse" x1="15345.7" y1="17740.1" x2="14129.5" y2="16545.9"><stop offset="0" stop-color="#F194A1"/><stop offset="1" stop-color="#DB5C6A"/></linearGradient></defs><path fill="url(#a)" d="M8890 10826c-91-702 847-935 965-1524 149 425-153 752-229 1130 16 46-10 126-12 152 244-176 513-318 825-381 273 2 557 31 775-114-79 210-379 273-572 305-141 174-234 361-279 584-414 472-1151 434-1588 762-154 97-290 185-393 318-224-116-225-33-445-77-182-107-628-165-838-165-131 170-239 124-406 254 134-205 200-425 266-648 255-145 1129 77 1410 26-2-149-633-500-660-635-59-513 139-961 139-1461 131 664 494 1169 1042 1474z"/><path fill="url(#b)" d="M7888 9711c-239 1208-116 1111 588 1563 35-192-120-77-420-723 438 592 892 453 924 437-136-57-816-626-907-706-95-229-185-381-185-571z"/><path fill="#9BAA2E" fill-rule="nonzero" d="M9670 10635c79-221 365-336 588-403 362-84 733-8 992-202-189 444-610 433-1076 387-373 88-453 292-630 538 59-128 90-231 126-320zM6980 11543c116-136 181-95 320-67 284 161 597 216 907 185 32-94 109-142 152-185-489 76-910-197-1362-152-112 55-11 147-17 219z"/><path fill="#4A572D" fill-rule="nonzero" d="M9266 10971c0-387 138-591 353-806 45-173 129-553 219-673 89 551-269 778-269 1110-75 241-97 308-303 369z"/><path fill="#4A572D" fill-rule="nonzero" d="M9770 9593c46 202-56 662-336 757-321 149-437 286-504 621-18-219-6-440 67-605 149-78 272-154 387-218 121-64 297-466 386-555zM10073 10904c4-192 82-303 185-420-176-5-255 69-387 168 7 137-37 255-67 353 143 29 182-43 269-101z"/><path fill="#97A82E" fill-rule="nonzero" d="M9830 9419c-75 225-137 470-261 656-268 189-477 240-634 523 14-168 88-319 179-440 144-178 366-270 500-403 107-102 122-229 216-336z"/><path fill="#D13843" fill-rule="nonzero" d="M12369 12480c0-427 40-618-356-822-91-455-433-536-932-411-581-577-1347-184-1347-184-459-91-734-98-1064 321-353 106-580 396-775 735-703 52-701 1201-403 1375-128 481 34 861 439 1041 161 380 358 653 712 794 141 447 381 521 822 521 408 313 881 315 1315 55 410-174 735-305 822-740 359-230 398-451 465-822 326-343 360-745 137-1041 187-260 165-517 165-822z"/><path fill="#E37F8A" fill-rule="nonzero" d="M8141 13098c-230 62-420 110-548 353-187 422 13 704 495 583 96-173 174-332 141-583-46-116-91-216-88-353zm-371-831c-256 142-384 182-371 565 79-7 186 36 371-158 10-102 40-280 0-407zm748-759c-496 249-693 391-530 1146 137-291 720 153 624-682 0-200-114-266-94-464zm1211-453c-520-11-1341 116-947 864 249 0 624 90 743-201 337-321 125-195 204-663zm594-61c-131 1-271 28-418 67 63 198 64 203 135 312 380 303 1086 785 964-58-164-210-463-323-681-321z"/><path fill="#C63038" fill-rule="nonzero" d="M12072 11730c-45-1-93 4-144 13 119 268 190 595-118 823-79 143-120 260-323 353 72 611-327 758-327 758-39 45-530 349-614 388-279 218-495 389-882 206-368 286-816 277-1087-147-357 179-812 320-1000-323-25 123-40 243-49 361 78 161 214 289 403 373 161 380 358 653 712 794 142 447 380 521 822 521 407 313 881 315 1315 55 410-174 735-305 822-740 359-230 398-451 465-822 326-342 360-745 138-1041 186-260 164-517 164-822 0-374 31-566-227-745-23-3-46-5-70-5z"/><path fill="url(#c)" d="M7630 14158c92 202-67 281 308 308-96 523 324 916 973 756-478 55-670-272-768-628 94-34 185-80 282-102-432 0-412-35-795-334zm4733-1873c-27 325-29 647-283 848-50 92-65 175-176 247 409 164 358 914-142 884 68 169 128 571-300 653-81 445-254 961-777 565-168 420-560 568-1122 283 141-93 469-170 503-477-201 134-930 327-847-123-140 122-347 157-553 224 144 390 379 461 799 461 407 313 881 315 1315 55 410-174 735-305 822-740 359-230 398-451 465-822 326-342 360-745 138-1041 186-260 164-517 164-822v-167c-2-9-4-19-6-28z"/><path fill="url(#d)" d="M10864 11899c-77 384-394 725-950 565 21 112 45 201 77 273-111-36-228-62-333-94 60 223-58 386-129 514-174 105-353 150-539 205 7 166 237 232 283 257 370 2 540-207 744-411 51-179 225-169 359-205-7-12-16-21-24-32 79 9 169 11 281 6 130-72 279-182 411-359 55-278 152-579-180-719zm-1309-847c265 199 284 359 308 642-180 486-373 586-847 539 125 143 279 194 436 256 249-31 476-270 616-410 78-187 218-184 437-206-146-111-257-107-411-154-4-425-269-532-539-667z"/><path fill="url(#e)" d="M8839 13535c-118 175-128 388-178 587 175 81 234 21 373-56 45-261-195-531-195-531zm578-51c-83 0-168 20-280 70-50 165-90 272-91 455 33 23 51 180 163 109 70-14 343-6 456-72 19-66 141-114 73-256-18-85-17-176-55-254-102-31-183-52-266-52zm1044-514c-16-1-32-1-49 1-265 48-460 89-528 437 60 135 50 216 255 309 232 0 440 17 656-91 36-82 76-163 127-236-47-107-74-197-219-274-67-50-135-136-242-146zm770-512c-51 0-105 7-163 21-88 135-229 19-201 309 185 246 244 431 638 383 74-65 214-174 310-291-42-109-53-221-164-310-138-62-267-114-420-112zm-2368-34c-209 161-229 274-273 419-129 361 166 332 237 474 256 66 489-100 674-201 111-96 76-251 91-382-241-335-368-527-729-310z"/><path fill="url(#f)" d="M10394 12916c138 54 268 82 419 109 71 82 135 169 200 255 168 379 25 606-291 693 314 52 528-200 637-347 10-125 100-137 146-200-318-25-461-134-547-419-188-112-354-112-564-91z"/><path fill="#BA3036" fill-rule="nonzero" d="M9811 13335c-50 129 123 349 145 383 7 162 110 145 165 218 287 115 561 98 765-54-92 247-346 422-638 364-198 174-473 200-765 200 67-195 314-94 401-382 60-256-22-475-73-729z"/><path fill="#C63038" fill-rule="nonzero" d="M7934 12406c71 128 195 219 292 328l273 54c24 7 49 13 73 19-15 153-79 161-164 255-113 24-215 50-328 73-160 20-309 110-437 182 133-61 270-172 364-255 89-37 39-144 55-201-64-180-109-274-128-455z"/><path fill="url(#g)" d="M7916 12257c81-374 306-500 577-668 97 44 60 205 76 258-137 136-183 262-319 365-98 92-155 271-167 334-117-98-131-171-167-289z"/><path fill="url(#h)" d="M8690 11711c19-430 312-555 532-577 132 113 85 185 45 319-95 85-178 156-273 227-20 219-174 203-304 31z"/><path fill="url(#i)" d="M7637 13861c-72-360 117-617 465-671 38-63 100-25 150-37v223c-104 28-175 49-261 75-77 243-148 295-354 410z"/><path fill="url(#j)" d="M7711 12259c-402 238-451 871-223 1099-21-159 145-252 167-280 90-80 185-118 261-167 26-390 28-478-205-652z"/><path fill="url(#k)" d="M10213 11900c-247 158-444 342-402 617 59 85 144 144 206 206 254 141 506-125 657-314 403-307-231-440-461-509z"/><path fill="#D9525E" fill-rule="nonzero" d="M11432 11757c-136 8-238 72-296 288 15 76 29 189 104 209 179-54 340-46 539-35-9-54-3-235-70-435-102-16-196-32-277-27zm-279-408c211 208 128 321 122 383 124-53 252-97 365-139-137-243-263-221-487-244z"/><path fill="#D13A44" fill-rule="nonzero" d="M9566 14663c144-243 234-354 520-411 148 36 304 29 455 43 15 206-98 436-130 542-304 305-757 267-845-174z"/><path fill="#D9525E" fill-rule="nonzero" d="M10606 14230c159 243 96 454 65 672-206 213-325 255-585 281 179-101 277-180 412-281 127-181 109-401 130-607l-22-65z"/><path fill="#D13843" fill-rule="nonzero" d="M11270 13749c98-44 145 45 215 66 78 242-26 434-116 613h-331c-181 8-137-106-157-190 85-280 238-372 389-489z"/><path fill="#D13A44" fill-rule="nonzero" d="M8835 14577c164 28 307 66 481 66 49 133 73 235 99 365-89 177-155 196-331 232-157-95-275-176-398-299-20-197 43-222 149-364zM8024 14560c85 111 275 79 414 67 87 143 90 286 199 430-150 31-247-30-365-66-164-114-167-296-248-431z"/><path fill="#D0313C" fill-rule="nonzero" d="M11709 13698c1-156 185-253 230-282 217-2 243 112 265 335 0 63-194 237-194 248-137 28-60 39-195 53-60-81-92-183-106-354z"/><path fill="#F6D9DE" fill-rule="nonzero" d="M8603 12933c0-119 42-234 63-352 147-170 240-166 434-186 99-42 187 37 269 83-136 66-297 97-434 124-6 305-156 331-332 331z"/><path fill="#FEFEFE" fill-rule="nonzero" d="M7320 12975c34-145 69-290 103-435 7-14 14-28 21-41 78-138 183-174 290-228 7 112 54 149 83 228 35 171-137 109-207 165-93 186-165 217-290 311z"/><path fill="#EFB9BF" fill-rule="nonzero" d="M9167 13550c-84 280-16 417 0 497 48-165 166-300 231-397 62-5 116-78 149-100-129 35-272 11-380 0zm-332-16c-119 188-197 276-132 546 43-216 56-235 265-347-54-81 45-100-133-199z"/><path fill="#F2C7CA" fill-rule="nonzero" d="M10265 11338c71-109 224-179 315-252-129-81-248-55-378-84-119-15-248 26-335 42 18 72 26 108 42 168 137 119 209 82 356 126z"/><path fill="#E16876" fill-rule="nonzero" d="M9595 14905c117 267 345 287 582 366 221 85 316 30 473-108-22-246 44-410 44-646 18 279-104 315-259 431-313 142-634 231-840-43z"/><path fill="#E6939C" fill-rule="nonzero" d="M10022 13650c-180-237-108-360 111-555 85-67 122 81 167 111-170 165-259 211-259 518l-19-74z"/><path fill="#F2C7CA" fill-rule="nonzero" d="M10029 12060c-30 170 125 167 181 240-64 76-74 189-106 271-178 45-174-31-210-150 3-176 44-240 135-361zM10164 12000c63 95 154 157 241 225-2-125 88-97 136-150-120-119-231-89-377-75z"/><path fill="#FEFEFE" fill-rule="nonzero" d="M8775 12521c-199 124-153 191-190 395 92-36 135-172 147-190 72-107 151-167 219-234-64-26-120 20-176 29z"/><path fill="#A62826" fill-rule="nonzero" d="M9151 13421c247 8 400-80 520-360-58-514-90-577 260-20 218-231 452-207 721-180-325 48-522 188-741 380-222 90-125 216-60 380-49-120-121-161-200-240-161 62-355 40-500 40z"/><path fill="#BA3036" fill-rule="nonzero" d="M8571 13221c156 125 284 165 480 200 198 22 75 33 140 60-197-18-259 18-400 80-155 74-160 284-200 420-34-251-20-521-20-760z"/><path fill="#A62826" fill-rule="nonzero" d="M10134 14130c405 141 772-186 955-330 94-137 68-239 73-294 76 33 137 46 165 55 155 26 252-37 349-110-4 171-81 162-184 239 72 164 74 313 74 495-3-263-114-377-294-477-53 140-149 184-275 294-98 127-148 218-220 349 37 218 180 238 312 238 38 223-65 227-184 331 16-122-50-233-73-312-113-350-422-325-698-478z"/><path fill="#D13843" fill-rule="nonzero" d="M12408 18460c219 153 590 280 902 136 381 24 836 75 1111-276 213-8 423-91 585-257 395-14 667-164 686-563 175-114 314-210 251-491 133-190 189-359 145-656 92-230 72-529-61-748-36-279-60-442-280-618-24-228-177-515-718-625-7-199-666-542-815-519-146-302-532-392-935-437-367-148-708 14-977 270-409-343-1491 420-872 1019-430-138-805 398-619 840-157 44-321 700 79 951-183 174-99 529 35 671 57 420 229 833 681 833 189 251 462 489 802 470z"/><path fill="url(#l)" d="M11970 14720c69 363 230 564 559 585 22-129-19-221-46-335 33-160 84-290 131-419 75-113 123-213 190-310 54 273-83 497-210 681-9 120 26 340 36 379 67 71 111 70 193 83-8 369 115 651 400 827-13 123-89 210-99 362-285 61-477 241-543 491-92-279-375-213-565-148 81-350-260-327-528-317 269-178 9-249-164-207 416-177 686-345 136-566 232-190 463-225 453-510 71-2 142-5 212-7-107-172-192-237-382-334 99-33 186 4 271 35-25-117-37-233-44-290z"/><path fill="#C63038" fill-rule="nonzero" d="M14630 13994c119 120 250 247 208 353 873 132 679 488-151 174 66 253 81 403-151 476 717-66 596 608 349 963 493 542 157 957-505 915-67 258-253 471-646 427 123 248 34 396-105 508-12 138-207 165-420 173-263 474-956 229-1017-221-19-105 7-180 35-260-24-40-60-12-90-19-128 225-329 359-478 432-470-42 16-697 114-889-164 136-635 552-809 264-1 21-2 41-3 61 82 344 263 639 645 639 189 251 462 490 802 470 219 153 590 280 902 136 381 24 836 75 1111-276 213-8 423-91 585-257 395-14 667-164 686-563 175-114 314-210 251-491 132-191 189-359 145-656 92-230 72-529-61-748-36-279-60-442-280-618-24-229-177-515-718-625-4-107-198-257-399-368z"/><path fill="url(#m)" d="M11835 14505c62-342 148-526 399-709-134-539-1077 226-981 511 0 0 452 92 582 198z"/><path fill="url(#n)" d="M11990 14799c4-299 5-665 214-890 101-52 292-161 350-71-94 18-142 95-183 124 31 64 86 28 131 42 77-99 148-87 267-92-104 176-237 249-326 423-74 267-148 543-453 464z"/><path fill="url(#o)" d="M12653 14927c-14-465 324-859 804-828 42 27 73 68 110 102 64 192-75 319-135 487-163 247-523 478-779 239z"/><path fill="url(#p)" d="M12183 16863c-88 5-199 69-326 157-200 160-349 373-358 534 42 293 350 188 530-74 89-175 247-232 340-423-33-146-98-199-186-194zm-531-212c-22-1-46 3-74 12-315 47-440 165-606 444-63 392 492 283 554-20 99-106 266-186 287-354-50-42-95-81-161-82zm-513-166c-92 6-186 71-213 102-89 149-54 223-4 355 111-140 208-240 399-325-39-108-110-138-182-132zm-289-916c-181 43-187 182-164 361 7 200 29 333 225 391-57-117-56-198-1-332 9-151 20-214 166-317-65-23-160-58-226-103zm500-869c-13 1-29 3-46 6-55 17-274 82-344 236-193 156-309 685 160 499 51-313 122-344 393-496-5-43-32-101-17-152-44-55-53-98-146-93z"/><path fill="url(#q)" d="M12326 13693c219-196 516-422 823-312 58 20 36 20 60 33-18 124-97 188-190 266-44 162-132 146-230 149-145-145-261-143-463-136z"/><path fill="url(#r)" d="M12468 17135c-155 151-178 364-171 569 21 63 34 128 55 190 102-149 243-196 375-241-141-161-213-326-259-519v1zm572-493c-120 3-150 62-225 132-203 192-157 325-123 568 99 191 146 264 299 325 5-177 29-301 105-411 39-149 177-207 290-263-217-45-281-144-288-349-21-2-40-2-58-2zm246-448c-95 223-99 261-31 468 116 129 209 213 368 239 215-203 157-416 95-675-156-23-286-38-432-32zm414-1142c-343 12-539 149-826 365-13 226 37 441 281 482 260-36 440-169 623-347 24-148 46-352-78-500z"/><path fill="url(#s)" d="M13063 14195c-228 182-358 429-253 666-1-230 208-398 275-462 120-77 251-129 372-189-137-11-258-20-394-15zm-967-125c-130 130-76 360-97 543 87 169 95 97 209 138 202-238 244-504 500-689-138 33-177 106-256 170-169-21-245-58-356-162z"/><path fill="#DB5C6A" fill-rule="nonzero" d="M14608 14962c-95 0-202 28-318 93 428 112 581 343 511 827 496-117 321-922-193-920zm-493-801c-99 6-211 28-336 67l-58 16c304-11 690 44 830 364 77 95 143 214 202 328-19-521-208-801-638-775z"/><path fill="url(#t)" d="M12342 18057c-57 62-109 170-331 114 142 132 270 318 351 17 11 18-53 150 135 126 158-6 206-84 362-86-198-13-356-20-517-171zm1419-285c-154 155-285 288-546 224-59 72-95 113-153 195 153 107 297 195 465-46 41-9 199-34 243-140-3-77-6-155-9-233zm627-810c-134 218-317 490-644 344 104 172 41 279 48 495l58-3c148-35 237-113 402-175 23-99-25-154 109-222 75-149 76-259 27-439zm-619-2711c10 263 3 550-174 769 227 11 371 128 480 263 162 468 46 635-226 860 326 102 522 433 528 665 87-140 124-289 129-464 72-103 157-140 237-267-81-4-175-11-258-13 133-17 238-53 307-191-67-21-114 0-170-61-245-98-245-259-187-497-78 18-122 21-200 52 63-68 95-48 73-171-49-61-96-128-154-208-2-78 2-148 15-224-61-44-148-126-252-137-41-120-83-253-148-376z"/><path fill="url(#u)" d="M14146 18078c-109 305-457 499-816 306-38 55-107 114-155 183-197 47-401-31-633-25 220 57 468 127 731 54 424-15 1039 76 1173-302-148 96-195 177-400 161 103-110 124-201 100-377zm881-324c-22 1-44 5-66 3-61 290-298 354-451 519 380-50 478-228 581-507-21-14-42-16-64-15zm480-1038c-93 232-109 496-418 534-22 84-67 164-55 278 6 26-21 62 19 80l16-1 211-7c239-194 490-480 227-884zm307-1041c205 293 252 612-160 668 86 56 156 56 259 52 96 178 117 465 24 649 153-164 186-453 133-716 69-135 204-646-256-653zm-389-242c255 316 111 622-62 1008 312-152 620-662 62-1008zm256-378c280 145 139 422 68 525 96 45 195 8 269-10 12-271-86-449-337-515zm-177-472c81 138 71 235-17 348-43-118-134-232-300-300 176 86 185 219 211 410 28 229-4 243-159 337 141-49 150-69 253-120 30-83 37-202-2-318 94 2 180 58 263 76 40-232-94-325-249-433z"/><path fill="#AC2C33" fill-rule="nonzero" d="M15165 16680c-139 304-389 261-670 300 258 180 289 334 314 604-26 299-350 370-635 380-53 55 17 100 21 129 13 198-141 301-198 347 198-5 234-69 317-189 49-82 7-41 14-82 295 15 348-143 425-356 128-98 109-158 152-265-51-220 75-337 145-475-20-163 58-281 115-393zm481-618c-12 92 13 180-56 262-118 127-206 171-414 210 358 54 498 301 510 646-143 240-365 376-566 474 253 41 520-30 540-311 175-142 118-343 107-604-13-30-55-194-139-254 164-132 231-281 18-423z"/><path fill="#BA3036" fill-rule="nonzero" d="M14349 17406c99 32 197 69 295 103 204 311-222 331-472 390-100 534-424 480-859 453-311 432-511 342-874 48-1-22-1-43-2-65 230 65 398-67 547-117 385 126 748 70 814-338 338 6 634-123 551-474z"/><path fill="#F7DBDF" fill-rule="nonzero" d="M11606 17431c111-341 356-486 650-576 18 324-404 445-650 576zM12419 13834c-376 140-439 354-399 670 53-27 111-130 144-169 80-24 114-86 159-129-31-195 3-256 96-372zM11210 14752c-371 65-386 307-403 574-94 182 64 69 86 93 67 44 78-43 107-59-66-294 4-441 210-608z"/><path fill="#BA3036" fill-rule="nonzero" d="M12322 17948c291 134 499-108 594-199 358 3 469-279 540-552 20-45 34-86 50-125 419 2 506-485 420-848 538 265 253 1332-303 1049 319 423-113 674-537 647-150 328-637 314-764 28z"/><path fill="url(#v)" d="M11306 14242c8-310 377-416 522-471-12 95 65 143 96 210-128 70-147 174-191 283-143-54-275-43-427-22z"/><path fill="#DB5C6A" fill-rule="nonzero" d="M14221 13992c-515-65-748-283-1018-82 79-154 149-163 270-201 345-123 571 139 748 283z"/><path fill="url(#w)" d="M15246 14424c161 139 291 228 334 529 97 16 100-27 161 112 205 105 160 346 58 533 173 161 390 583 79 741 90 185 186 498 12 691-67-23-84-62-171-59 68 202 74 504-199 647-159 192-263 365-537 294-111 308-341 377-656 271-177 348-550 429-983 245-240 117-574 172-796 16 29-42 58-117 112-161-250 122-646 145-813-101 126-17 206-21 295-141-250 9-452-24-619-135-130-34-326-75-412-233-1 15-1 29-2 43 107 164 264 274 497 274 189 251 462 490 802 470 219 153 590 280 902 136 381 24 836 75 1111-276 213-8 423-91 585-257 395-14 667-164 686-563 175-113 314-210 251-491 132-191 189-359 145-656 92-230 71-529-61-749-36-278-60-441-280-617-21-194-136-429-501-563z"/><path fill="#EE7995" fill-rule="nonzero" d="M13402 13422c382 2 619 157 865 385 350 69 634 205 717 447 278 130 447 133 505 379-316-2-564-110-707-182-184-158 65-113 89-155-134-231-254-240-480-209-171-41-153-165-179-240-152-285-645-282-840-215-140-69 25-173 30-210z"/><path fill="#A62826" fill-rule="nonzero" d="M13814 14459c88 118 19 402 16 425 85 76 149 142 214 223 140-71 289-96 446-101-204 33-242 64-271 240 54 331 63 617-52 902 197 92 261 310 226 526-31 260 93 271 241 295-63 45-155 67-216 81-82 368-501 429-636 558 40-158-6-253-48-339 761 256 627-557 404-926-83-97-168-131-275-197 242-252 296-550 247-908-164-85-290-205-483-250 213-115 173-308 187-529z"/><path fill="#A62826" fill-rule="nonzero" d="M15052 15836c98 92 44 214 67 326-278-170-648-355-872 86-127-11-167-115-225-156 159 6 201-92 283-133 254 59 525-34 747-123z"/><path fill="#FEFEFE" fill-rule="nonzero" d="M13045 16710c-47 3-62 22-93 51-108 104-159 175-232 281-23 93-17 204 10 284 36 13 45 36 68 69 43-152 101-263 193-387 30-33 79-57 104-75-49-75-55-144-50-223zm240-406c-4 74-28 131-4 214 2 52-1 105 24 153 47 59 93 103 188 141-48-89-62-170-15-272-13-53-11-119-36-176-52-20-122 28-157-60zm132-1183c-19 0-37 3-54 19-19 39 46 88-154 309-94 68-214 101-255 203 85 105 120 168 282 183 55-76 120-136 186-214 59-147 81-300 51-499-18 3-37-1-56-1zm-492-708c-150 95-76 147-131 254l5 125c56-32 90-87 136-130 85 33 104-88 136-114 13-105-97-90-146-135zm-1144-492c-85 98-201 65-353 40-70 72-134 294-137 301 41 77 171 97 218 123 61-175 176-320 272-464zm37-56c-11 18-25 37-37 56 13-16 26-33 37-56z"/></svg>