<svg xmlns="http://www.w3.org/2000/svg" width="210mm" height="297mm" shape-rendering="geometricPrecision" text-rendering="geometricPrecision" image-rendering="optimizeQuality" fill-rule="evenodd" clip-rule="evenodd" viewBox="0 0 21000 29700"><g fill-rule="nonzero"><path fill="#F5E7F2" d="M7702 15553c-1369-938-2266-2513-2266-4297 0-2876 2330-5207 5206-5207 2875 0 5206 2331 5206 5207 0 1755-868 3307-2199 4250l39-399 49-508H7609l60 619-40 1 41 8 32 326z"/><path fill="#EBECEC" d="M10642 19560c-1725 0-3122-302-3122-674 0-132 173-254 472-358l36 375c0 166 600 309 1526 374 335 23 712 36 1119 36 342 0 663-9 955-26 1018-58 1690-208 1690-384l34-353c262 99 412 214 412 336 0 372-1398 674-3122 674z"/><path fill="#C96DA8" d="M7609 14599l419 4304c0 226 1112 410 2645 410s2645-184 2645-410l419-4304H7609z"/><path fill="#D293C0" d="M9366 14599l188 4678c-926-65-1526-208-1526-374l-419-4304h1757z"/><path fill="#AD569B" d="M11817 14599l-189 4688c1018-58 1690-208 1690-384l419-4304h-1920z"/><path fill="#EFEEEF" d="M11297 17472c-104-104-217-182-323-231 106-49 219-127 323-231 262-262 365-583 231-718-135-134-456-31-718 231-104 104-182 216-231 323-49-107-128-219-231-323-262-262-583-365-718-231-134 135-31 456 231 718 103 104 216 182 323 231-107 49-220 127-323 231-262 262-365 583-231 718 135 134 456 31 718-231 103-104 182-216 231-323 49 107 127 219 231 323 262 262 583 365 718 231 134-135 31-456-231-718zM7901 17595c38 71 92 143 160 211 206 206 459 288 565 182s24-359-182-565c-81-82-170-143-254-182 84-39 173-100 254-182 206-206 288-459 182-565s-359-24-565 182c-82 81-143 170-182 254-14-31-32-63-52-95l74 760zM13246 17806c81-81 143-170 182-254 5 12 11 24 18 36l80-817c-41 53-74 107-98 159-39-84-101-173-182-254-206-206-459-288-565-182s-24 359 182 565c81 82 170 143 254 182-84 39-173 100-254 182-206 206-288 459-182 565s359 24 565-182z"/><path fill="#EFEEEE" d="M13557 16451l92-945z"/><path fill="#E5D7E5" d="M13649 15506l39-399-39 399zm-5979-279l-41-8 40-1 1 9z"/><path fill="#BD63A2" d="M11757 16077l-2351-489-17-415 2407-62z"/><path fill="#CA85B8" d="M9406 15588l-1736-361-1-9 1720-45z"/><path fill="#A74F97" d="M13557 16451l-1800-374 39-966 1896-49-4 45-39 399-92 945z"/><path fill="#C96DA8" d="M7275 13979v1061c0 222 1522 402 3398 402s3398-180 3398-402v-1061H7275z"/><path fill="#D293C0" d="M9202 15402v-1423H7275v1061c0 160 787 298 1927 362z"/><path fill="#AD569B" d="M12039 13979v1429c1196-62 2032-203 2032-368v-1061h-2032z"/><path fill="#FEFEFE" d="M14071 13979c0 154-1522 279-3398 279s-3398-125-3398-279 1522-279 3398-279 3398 125 3398 279z"/><path fill="#6B3E2D" d="M13920 13942c0 134-1454 243-3247 243s-3247-109-3247-243 1454-242 3247-242 3247 108 3247 242z"/><path fill="#84A733" d="M10537 14075c-223-6064-78-8572-77-8597l207 12c-1 25-145 2526 78 8577l-208 8zM12125 14061l-208-2c94-6918 1291-7568 1342-7592l90 187-45-94 48 92c-11 7-1136 722-1227 7409zM9366 14041C8340 7828 8041 7195 8029 7172l179-105c31 48 325 657 1363 6940l-205 34z"/><path fill="#6C9938" d="M13764 8372c-977 1415-783 2735-1244 4051-372 1062-369 1656-369 1656l-264-176s86-395 335-1457c291-1246 235-2728 1542-4074zM7975 8533c869 1484 577 2785 938 4132 292 1087 405 1374 405 1374l269 36s-208-287-378-1365c-198-1264-31-2737-1234-4177z"/><path fill="#598739" d="M10901 7396c790 1766 421 3178 708 4724 232 1249 305 2020 305 2020l237-61s-138-647-246-1870c-128-1433 125-3053-1004-4813z"/><path fill="#598739" d="M12222 6450c9-146 357 4316 290 5394-68 1078-245 1719-245 1719l-116 516s-231-1223-166-2268c66-1046 139-3843 237-5361z"/><path fill="#FDDE5B" d="M11214 4228c-1 472-252 767-560 766s-558-297-556-769c1-387 379-772 514-897 26-25 67-24 93 0 134 126 510 513 509 900z"/><path fill="#FDDE5B" d="M11036 5862c-407-237-537-602-382-868 155-267 536-335 943-98 336 195 480 715 520 894 8 35-12 71-47 81-176 53-699 185-1034-9z"/><path fill="#FDDE5B" d="M9711 4891c409-235 789-165 943 103 153 267 21 631-388 866-336 192-858 57-1034 3-34-11-54-46-46-81 42-179 189-698 525-891z"/><path fill="#FDCC49" d="M11597 5096c-409 235-790 165-943-102-154-268-22-632 387-866 336-193 859-58 1034-4 35 11 55 46 47 82-42 178-189 698-525 890z"/><path fill="#FDCC49" d="M10093 5759c2-471 253-766 561-765s557 297 556 768c-1 388-379 772-514 897-27 25-67 25-94 0-134-126-510-512-509-900z"/><path fill="#FDCC49" d="M10271 4126c408 236 538 601 383 868-155 266-536 334-944 97-335-195-479-715-520-894-8-35 13-70 47-81 176-53 699-185 1034 10z"/><path fill="#FCD34D" d="M11341 5002l-516 270-363-543 447-373z"/><path fill="#EDB109" d="M10980 4973c12 180-125 336-306 347-180 11-335-126-347-306-11-180 126-335 306-347 181-11 336 126 347 306z"/><path fill="#F18D1C" d="M11783 4637c3 56-85 104-95 155-11 54 51 133 28 180-25 49-125 46-161 87-35 40-20 140-65 169-45 30-130-22-182-5-50 17-87 111-142 114-55 4-103-85-155-95-53-11-132 52-180 28s-46-125-86-160c-40-36-140-21-170-66-29-44 23-130 5-182-16-50-110-87-114-142-3-55 85-103 96-155 10-53-52-132-28-180s124-46 160-86c35-40 20-140 65-170 45-29 131 23 182 6 50-17 87-111 142-115 55-3 103 86 155 96 54 11 132-52 180-28s46 125 86 160c41 36 140 21 170 66 30 44-22 130-5 182 17 50 111 86 114 141z"/><path fill="#FCD34D" d="M11606 4649c17 266-185 495-451 512s-495-186-512-452 185-495 451-512 496 185 512 452z"/><path fill="#EDB109" d="M11419 4660c10 163-113 303-276 313-162 11-303-113-313-276-10-162 113-302 276-313 163-10 303 114 313 276z"/><path fill="#FDDE5B" d="M14384 6433c-219 332-469 366-609 152-139-215-115-597 103-929 180-274 530-283 648-278 24 1 42 29 43 65 3 182-6 716-185 990z"/><path fill="#FDDE5B" d="M13547 7464c-75-450 35-798 228-879 194-81 398 135 473 586 62 370-112 838-177 993-12 30-38 41-59 24-104-84-403-354-465-724z"/><path fill="#FDDE5B" d="M13395 5858c294 118 434 431 380 727s-282 461-576 343c-242-97-416-554-471-715-11-31-4-70 16-89 102-98 409-363 651-266z"/><path fill="#FDCC49" d="M14156 7312c-294-118-435-431-381-727s282-461 577-343c241 96 416 554 470 714 11 32 4 71-16 90-102 98-409 363-650 266z"/><path fill="#FDCC49" d="M13167 6737c219-332 469-367 608-152 140 214 116 597-103 929-180 274-529 283-648 278-23-1-42-29-42-65-3-182 5-716 185-990z"/><path fill="#FDCC49" d="M14003 5706c75 450-34 798-228 879-193 81-398-136-473-586-62-370 113-838 177-993 13-30 39-41 59-24 105 84 403 353 465 724z"/><path fill="#EDB109" d="M14458 6956l-580-44-20-654 577-79z"/><path fill="#EDB109" d="M14052 6740c-52 159-170 219-264 133s-130-285-79-444c52-159 170-218 264-132s130 285 79 443z"/><path fill="#F18D1C" d="M14991 6881c-15 49-73 43-93 81-22 40-16 140-42 168s-74-27-104-12-53 108-84 109c-30 2-56-88-87-101-29-12-76 48-104 22s-24-127-46-163c-23-38-80-26-96-72-17-46 15-130 7-182-9-51-62-91-63-145-1-53 50-99 58-152 7-51-28-132-13-180 15-49 73-43 94-81 22-40 15-140 41-167 27-29 75 27 105 11 29-15 52-107 83-109s57 88 87 101c30 12 76-48 104-22 28 27 25 127 47 163 22 38 80 27 96 72 16 46-16 130-7 182 9 51 62 91 63 145s-51 99-58 152c-7 51 27 132 12 180z"/><path fill="#FCD34D" d="M14947 6797c-73 235-241 322-376 195s-185-420-112-654c73-235 241-322 376-195s185 420 112 654z"/><path fill="#EDB109" d="M14807 6708c-45 143-147 197-230 119-82-77-113-256-68-400 44-143 147-196 229-119 83 78 113 257 69 400z"/><path fill="#598739" d="M9122 5162c865 3954 612 5237 868 6464 255 1227 553 1937 553 1937l266-55s-19-807-266-1997c-248-1190-81-2528-1421-6349zM7530 9661s972 2717 1260 3394c287 678 546 1030 546 1030l140-40s-102-462-381-1119-1565-3265-1565-3265z"/><path fill="#6C9938" d="M12222 4957c-881 2531-637 5486-879 6873s-534 2255-534 2255h-313s-8-1018 226-2364c235-1345 492-4427 1500-6764zM9892 6923c-459 2039-9 4307-74 5402-64 1097-221 1775-221 1775l-261-15s-71-726-8-1788c63-1063-10-3474 564-5374z"/><path fill="#FDDE5B" d="M8770 7478c-468 60-793-151-832-457-39-305 223-591 691-650 384-49 814 276 956 393 28 23 33 64 12 93-108 150-443 572-827 621z"/><path fill="#FDDE5B" d="M7127 7513c182-435 527-611 811-492 285 120 401 489 219 924-150 357-647 567-819 631-34 12-72-4-86-37-76-167-275-669-125-1026z"/><path fill="#FDDE5B" d="M7918 6073c286 375 266 762 20 948-245 187-623 103-908-272-235-308-169-844-137-1025 6-35 38-60 74-56 183 18 717 97 951 405z"/><path fill="#FDCC49" d="M7958 7970c-285-375-265-762-20-949 246-186 624-102 909 273 235 308 168 844 137 1025-6 35-38 60-74 56-183-18-717-97-952-405z"/><path fill="#FDCC49" d="M7107 6565c468-60 792 151 831 456 39 306-222 592-690 651-384 49-815-276-956-393-28-24-33-64-12-93 108-150 443-572 827-621z"/><path fill="#FDCC49" d="M8750 6530c-182 435-527 611-812 491-284-119-400-488-218-923 150-357 647-567 819-631 34-12 71 3 86 36 76 168 275 669 125 1027z"/><path fill="#F18D1C" d="M8432 7080c4 55-85 103-95 155-11 53 52 132 28 180s-125 46-160 86c-36 40-21 140-66 170-44 30-130-23-182-5-50 16-87 110-142 114-55 3-103-85-155-96-53-10-132 52-180 28s-45-124-86-160c-40-35-140-20-170-65-29-45 23-131 6-182-17-50-111-87-115-142-3-55 86-103 96-155 11-54-52-132-28-180s125-46 160-86c36-41 21-140 66-170 44-30 130 23 182 5 50-17 86-111 141-114 56-3 104 85 156 95 53 11 132-51 179-28 49 25 46 125 87 161 40 35 139 20 169 65s-22 131-5 182c17 50 111 87 114 142z"/><path fill="#FCD34D" d="M8256 7091c17 266-186 496-452 512-266 17-495-185-512-451s185-496 452-512c266-17 495 185 512 451z"/><path fill="#EDB109" d="M8068 7103c11 163-113 303-276 313-162 10-302-113-313-276-10-163 114-303 276-313 163-10 303 113 313 276z"/></g></svg>