<svg xmlns="http://www.w3.org/2000/svg" width="210mm" height="297mm" shape-rendering="geometricPrecision" text-rendering="geometricPrecision" image-rendering="optimizeQuality" fill-rule="evenodd" clip-rule="evenodd" viewBox="0 0 21000 29700"><path fill="#ECCCB0" fill-rule="nonzero" d="M4180 13583l-757-553c-31-22-73-16-95 15-22 30-16 73 14 95l758 553c30 22 73 16 95-15 22-30 15-73-15-95zM4073 13745l-658-354c-33-17-75-5-92 28-18 33-6 75 27 92l659 354c33 18 74 5 92-28 17-33 5-74-28-92zM3884 14339l-684 193c-36 11-57 48-46 84 10 37 47 58 83 47l684-193c36-10 57-48 47-84s-48-57-84-47zM3997 14546l-658 551c-29 24-33 67-9 96 24 28 67 32 96 8l658-551c29-24 33-67 9-96s-67-32-96-8zM4087 14673l-1040 1251c-24 29-20 72 9 96s72 20 96-9l1040-1251c24-28 20-71-9-95s-72-20-96 8zM4138 14942l-588 1123c-18 33-5 75 28 92 34 17 75 5 92-29l588-1123c17-33 5-74-29-92-33-17-74-4-91 29zM4283 15062l-308 1126c-10 36 12 73 48 83s73-11 83-47l309-1126c10-36-12-74-48-84s-74 12-84 48z"/><path fill="#A56839" fill-rule="nonzero" d="M7730 9968c-30-730 104-1519-432-1504s-789 819-848 1102c-60 283-30 1578-119 1801-90 224-209 655 0 715 208 59 1071-521 1176-789 104-268 223-1325 223-1325zM6926 18156c238 417 357 715 298 923-60 209-104 432-521 506-417 75-774 373-760 537 15 163 599 163 895 178s1205-1057 1175-1295-1087-849-1087-849zM10678 19273c-104 238-387 491-402 640s104 328 610 298c507-30 745-804 507-938-239-134-715 0-715 0z"/><path fill="#D48747" fill-rule="nonzero" d="M9219 8464c-279-360-570-225-972 206-402 432-815 1179-993 1700-179 521-328 953-388 1176-59 223 105 744 246 893 142 149 725 640 924 432 200-209 736-1221 989-1951 253-729 343-1607 328-1905s-1-379-134-551z"/><path fill="#ECCCB0" fill-rule="nonzero" d="M9025 8628c-236 211-461 402-655 833-193 432-595 2391-446 2625 148 234 625-659 818-1166 194-506 417-1354 417-1682 0-327 33-759-134-610z"/><path fill="#D48747" fill-rule="nonzero" d="M8266 13362c387 224 1236 45 1906-164 670-208 2025-193 3231 596s2024 1370 2322 2352c298 983 491 1757 447 2100-23 176 29 155 103 134 70-20 159-40 224 104 134 298 30 837-298 1185-327 348-372 444-848 500-477 57-3454 146-3871 131s-238-223-566-417c-327-193-1280-953-1474-893-193 60-446 595-774 908-327 313-119 317-834 404-714 88-1578 181-1667 0-90-180-30-520 610-633s840-695 789-962c-19-100-58-90-144-80-143 17-414 34-928-471-819-804-1280-2099-1280-2442 0-342-60-610 253-684 313-75 2799-1668 2799-1668z"/><path fill="#A56839" fill-rule="nonzero" d="M11824 19805c584-51 1133-95 1686-7-11-28-22-56-31-86-16-49-23-95-26-140-43-102-82-206-117-313-484-263-1013-486-1528-509-881-38-944 540-789 1188 259-81 544-109 805-133z"/><path fill="#D48747" fill-rule="nonzero" d="M13343 19228c-566-119-968-164-1370-119s-848 63-908 560-207 530 462 632c670 103 2486-61 2486-61l-670-1012zM6569 11471c-332 42-551 343-938 492s-685 387-849 670-655 997-759 1206c-104 208-209 610 0 938 208 327 506 357 759 536 124 87 267 75 416 62 155-14 318-27 477 72 313 193 909 267 1534 0 625-268 1146-1206 1146-1504s76-849-207-1117c-284-268-612-268-820-580-208-313-283-834-759-775z"/><path fill="#A56839" fill-rule="nonzero" d="M4041 14025c71 82 131 186 190 156 60-30 97-32 179-76 82-43 179-132 179-132s-15 163-127 282c-112 120-179 164-264 97-86-67-157-327-157-327z"/><path fill="#A56839" fill-rule="nonzero" d="M4210 14420l73 312 66-15-56-39-2 4c-7 8-25 33-44 54l-28 28-9 7-2 1 6 11-4-12-2 1 6 11-4-12c-36 12-55 51-43 86 11 36 50 55 86 44 27-10 44-25 61-39 48-44 89-104 91-106l17-25-80-342c-8-37-45-59-82-51-36 9-59 45-50 82z"/><path fill="#A56839" fill-rule="nonzero" d="M4290 14750c21 36 50 63 88 94 112 92 292 198 410 242 36 13 75-5 88-40 13-36-5-75-41-88-62-22-165-77-253-134-45-29-86-59-118-85-31-25-54-50-56-55-18-33-60-45-92-26-33 18-45 60-26 92z"/><path fill="#ECCCB0" fill-rule="nonzero" d="M5281 14472v-66l-27 61c5 1 11 5 27 5v-66l-27 61 23-52-35 45 12 7 23-52-35 45 17-22-18 21 1 1 17-22-18 21 15 16c68 72 276 318 465 544 94 113 184 222 251 302 66 80 109 132 109 132 24 29 67 33 96 9s33-67 9-96c0 0-208-251-418-503-106-126-211-251-293-346-41-47-75-87-101-115-12-14-23-26-31-34l-13-12-10-8-11-6c-5-2-12-5-28-6-38 0-68 31-68 68 0 38 30 68 68 68zM4996 14498l670 885c23 30 65 36 95 14 30-23 36-66 13-96l-670-886c-22-30-65-35-95-13-30 23-36 66-13 96zM4989 14799l551 1139c16 34 57 48 91 31 33-16 48-57 31-91l-551-1139c-16-33-57-47-91-31-33 16-47 57-31 91z"/><path fill="#252422" fill-rule="nonzero" d="M5921 13310c37-82 28-264 75-388 81-220 342-343 536-141 171 179 29 388-97 447-127 60-313 45-395 82s-119 0-119 0z"/><path fill="#FEFEFE" fill-rule="nonzero" d="M6333 12917c0 56-44 100-99 100-56 0-101-44-101-100 0-55 45-100 101-100 55 0 99 45 99 100z"/><path fill="#D6D4D2" fill-rule="nonzero" d="M6332 11363v-1 1zm1-1zm0-1zm0-1c23-63 37-200 48-370v-1c-10 171-25 308-48 371zm1392-1974c0-101-2-198-7-289 8 91 11 186 12 282-1 1-1 1-1 2-2 2-3 3-4 5z"/><path fill="#8A5834" fill-rule="nonzero" d="M6266 11557c15-47 50-152 65-190 0-1 1-3 1-4v-1h1v-1-1c23-63 38-200 48-371 227-369 431-750 603-1158 182-430 380-893 343-1361l1-5c273 9 362 287 390 632 5 91 7 188 7 289-78 115-162 273-246 453-90 182-166 359-220 516-167 425-315 873-395 1171-62-37-135-59-223-59-23 0-47 1-72 4-51 7-100 19-147 37-54 16-106 34-156 49z"/><path fill="#B06E3B" fill-rule="nonzero" d="M7259 10355c54-157 130-334 220-516-75 159-149 335-220 516zm470-974c0-1 0-1 1-2 0 1-1 1-1 2zM6861 11536c-35-19-73-36-113-50-35-12-71-17-108-17-70 0-145 17-218 39 47-18 96-30 147-37 25-3 49-4 72-4 88 0 161 22 223 59-1 4-2 7-3 10zM5782 15503c-112-17-223-37-328-56l-39-80c87 6 174 26 260 80 33 20 69 39 107 56zm1399-45c9-4 19-7 28-11 425-182 802-674 1000-1064-59 220-137 428-239 562-142 133-276 271-442 375-26 17-47 34-66 53-101 41-189 66-281 85z"/><path fill="#D6D4D2" fill-rule="nonzero" d="M8361 13406h-1v-1s1 0 1 1z"/><path fill="#B06E3B" fill-rule="nonzero" d="M8361 13419c0-4-1-9-1-13h1v13z"/><path fill="#D6D4D2" fill-rule="nonzero" d="M8168 12847v-1 1zm-2-2zm-1-2h-1 1zm-2-1v-1 1zm-1-2c-1 0-1-1-1-1 0 1 0 1 1 1zm-2-2h-1 1zm-2-1v-1 1zm-1-2s-1 0-1-1c0 1 1 1 1 1zm-2-2h-1 1zm-2-1v-1 1zm-1-2c-1 0-1 0-1-1 0 1 0 1 1 1zm-2-2h-1 1zm678-1407l1-1-1 1zm1-2c74-170 140-337 194-492-54 155-120 322-194 492zm195-494v-1 1zm195-2461c0-1-1-1-1-2 0 1 1 1 1 2z"/><path fill="#B06E3B" fill-rule="nonzero" d="M8104 12787c-151-127-311-188-458-268 11-13 21-28 30-44 79-143 156-287 230-432 5 18 11 32 18 43 16 26 37 38 61 38 191 0 586-754 757-1204 194-506 417-1354 417-1682 0-282 24-641-75-641-16 0-35 10-59 31-13 12-26 24-40 36-10-200-19-261-16-393 86 26 168 87 249 191 0 1 1 1 1 2 133 172 119 253 134 551 1 21 1 45 1 71 0 349-93 1156-329 1834 0 2 0 3-1 4v1c0 1-1 2-1 2-54 155-120 322-194 492v1l-1 1c-238 551-546 1123-724 1366z"/><path fill="#C3A58A" fill-rule="nonzero" d="M7985 12124c-24 0-45-12-61-38-7-11-13-25-18-43 399-776 719-1577 901-2418 113-289 199-506 185-823-2-53-5-98-7-138 14-12 27-24 40-36 24-21 43-31 59-31 99 0 75 359 75 641 0 328-223 1176-417 1682-171 450-566 1204-757 1204z"/><path fill="#B06E3B" fill-rule="nonzero" d="M6419 15562c-194 0-418-25-637-59-38-17-74-36-107-56-86-54-173-74-260-80l-24-49c82 8 162 14 240 19l35 46c13 18 34 27 54 27 14 0 29-4 41-13 18-13 27-33 27-53 49 1 97 1 142 1h62c55 66 89 108 89 108 13 16 33 24 53 24 15 0 30-5 43-15 29-24 33-67 9-96 0 0-8-10-22-27h6c1398-88 1760-1625 1410-2758 23-17 46-37 66-62 147 80 307 141 458 268l-2 2c15 13 31 23 46 37 0 1 1 1 1 2h1c0 1 1 1 1 1 0 1 0 1 1 1 0 0 0 1 1 1v1c1 0 1 0 1 1h1c0 1 1 1 1 1 0 1 1 1 1 1s0 1 1 1v1c1 0 1 0 1 1h1c0 1 1 1 1 1s0 1 1 1c0 0 0 1 1 1v1c1 0 1 0 1 1h1c0 1 1 1 1 2 1 0 1 1 2 1v1c133 140 179 349 192 557v2c0 4 1 9 1 13-2 88-42 548-152 964-198 390-575 882-1000 1064-9 4-19 7-28 11-142 30-291 45-504 84-77 14-164 20-258 20z"/><path fill="#C3A58A" fill-rule="nonzero" d="M6134 15477c-20 0-40-8-53-24 0 0-34-42-89-108 62-1 119-3 172-6 14 17 22 27 22 27 24 29 20 72-9 96-13 10-28 15-43 15z"/><path fill="#D6D4D2" fill-rule="nonzero" d="M5041 15384c-92 0-179-15-259-71l-2-2 2 2c80 56 167 71 259 71 51 0 104-5 157-9 5-1 9-1 13-2v1c-58 5-114 10-170 10z"/><path fill="#B06E3B" fill-rule="nonzero" d="M5210 15421c0-16 1-32 1-47v-1c18-1 36-2 54-4l24 49c-10-1-19-1-28-1-17 0-34 1-51 4z"/><path fill="#D6D4D2" fill-rule="nonzero" d="M4778 15310v-1 1z"/><path fill="#B06E3B" fill-rule="nonzero" d="M5041 15384c-92 0-179-15-259-71l-2-2c-1 0-1-1-2-1v-1c-120-83-250-135-376-200 260 94 550 154 829 190l34 70c-18 2-36 3-54 4-4 1-8 1-13 2-53 4-106 9-157 9z"/><path fill="#C3A58A" fill-rule="nonzero" d="M5720 15410c-20 0-41-9-54-27l-35-46c54 3 106 5 157 7 0 20-9 40-27 53-12 9-27 13-41 13zM5454 15447c-47-8-92-17-136-25-10-2-20-3-29-4l-24-49-34-70c54 8 107 14 160 19l24 49 39 80z"/><path fill="#D6D4D2" fill-rule="nonzero" d="M6621 20405h-1 1zm1 0c323 0 765-49 1167-97-402 48-844 97-1167 97zm1172-98l21-3-21 3zm22-3c6-1 12-1 18-2 715-87 507-91 834-404 328-313 581-848 774-908-193 60-446 595-774 908-327 313-119 317-834 404-6 1-12 1-18 2zm1627-1314c7-2 15-3 24-3h9-10c-9 0-17 1-23 3z"/><path fill="#8A5834" fill-rule="nonzero" d="M6145 20244c-37-8-68-18-97-29l19 3c24 1 48 2 73 3 1 8 3 15 5 23z"/><path fill="#B06E3B" fill-rule="nonzero" d="M6621 20405h-1c-242 0-416-27-453-103-9-18-16-38-21-58h-1c-2-8-4-15-5-23 25 1 51 2 78 2 744 0 1785-338 2056-1051 111-291-57-550-272-757 8-72 56-141 120-163 48-6 97-12 144-19 15-3 28-7 41-10 473 189 905 426 1169 764h-9c-9 0-17 1-24 3h-1c-193 60-446 595-774 908-327 313-119 317-834 404-6 1-12 1-18 2h-1l-21 3c-2 0-3 0-5 1-402 48-844 97-1167 97h-1z"/><path fill="#D6D4D2" fill-rule="nonzero" d="M12162 20335c-250 0-474-9-634-33-18-1-33-1-46-2 13 1 28 1 46 2 160 24 384 33 634 33h71-71zm74 0h0zm-1457-121c-29 0-57-1-84-2 27 1 55 2 84 2 34 0 70-1 107-3-37 2-73 3-107 3zm-85-2h-1 1zm4657-42zm1 0c0-1 1-1 1-1 476-56 521-152 848-500 235-249 355-597 355-884 0 287-120 635-355 884-327 348-372 444-848 500 0 0-1 0-1 1zm1147-1686v-2 2zm-2-6l-1-1 1 1zm-215-100c23-7 47-12 71-12-24 0-48 5-71 12zm73-12h-1 1zm-630-2220c0-1-1-3-1-5 0 2 1 4 1 5zm-2-6c0-2-1-3-1-4 0 1 1 2 1 4zm-2-6c0-1 0-3-1-5 1 2 1 4 1 5zm-2-6c0-1 0-2-1-3 1 1 1 2 1 3zm-1-6c-1-1-1-2-1-3 0 1 0 2 1 3zm-2-7c-1 0-1-1-1-2 0 1 0 2 1 2zm-2-5s0-1-1-1c1 0 1 1 1 1z"/><path fill="#8A5834" fill-rule="nonzero" d="M10779 20214c-29 0-57-1-84-2h-2c-189-12-299-62-359-127 47-52 80-121 87-207 5-74 3-146-2-217 58 43 119 84 193 125 49 27 107 40 166 40 15 0 29-1 43-2 36 23 68 43 95 59 42 25 75 50 103 75-17 103-18 167 33 213-52 22-107 36-166 40-37 2-73 3-107 3z"/><path fill="#B06E3B" fill-rule="nonzero" d="M11528 20302c-18-1-33-1-46-2-107-3-174-20-221-46 70 16 157 31 266 47 1 0 1 0 1 1zm2485-62l-430-650c2-44-4-89-16-131 1396-1221 1599-3378 793-5009 671 499 1138 984 1353 1659 1 0 1 1 1 1 0 1 1 2 1 3s0 2 1 2c0 2 0 3 1 4 0 1 0 2 1 3v3c1 1 1 2 1 3 1 0 1 1 1 1 1 2 1 4 1 5 1 1 1 1 1 2s1 2 1 4c0 0 0 1 1 1 0 2 1 4 1 5 269 889 453 1607 453 1990 0 40-2 77-6 110-16 118 3 148 39 148 18 0 40-8 64-14 2-1 5-2 7-2 23-7 47-12 71-12h2c49 0 100 23 141 111l1 1c0 1 1 3 2 4v2c38 84 57 188 57 301 0 287-120 635-355 884-327 348-372 444-848 500 0 0-1 0-1 1h-1c-183 21-719 47-1338 70zm-2994-282c-28-25-61-50-103-75-27-16-59-36-95-59 43-5 86-17 124-35 17 41 38 75 64 105 3 14 7 29 10 44 1 0 2-1 3-1l-3 21z"/><path fill="#8A5834" fill-rule="nonzero" d="M11019 19938c-3-15-7-30-10-44 5 6 11 12 18 18-2 9-3 17-5 25-1 0-2 1-3 1z"/><path fill="#B06E3B" fill-rule="nonzero" d="M12162 20335c-250 0-474-9-634-33 0-1 0-1-1-1-109-16-196-31-266-47h-1c-106-24-171-49-207-83h-1c-51-46-50-110-33-213l3-21c2-8 3-16 5-25 116 114 303 141 481 141 85 0 169-6 241-12 474-35 947-142 1423-142 27 0 55 0 83 1h12c203 0 308-150 316-310l430 650c-5 1-990 89-1776 95h-75z"/></svg>