<svg xmlns="http://www.w3.org/2000/svg" width="210mm" height="297mm" shape-rendering="geometricPrecision" text-rendering="geometricPrecision" image-rendering="optimizeQuality" fill-rule="evenodd" clip-rule="evenodd" viewBox="0 0 21000 29700"><g fill-rule="nonzero"><path fill="#F4ACBC" d="M17006 10536c69-158 186-508 311-408 125 101 226 671 377 554 151-118 145-307 201-416 79-156 94 147 0 432-76 230-336 355-470 119-80-141-142-114-204-87-42 18-84 36-131 2-118-84-84-196-84-196z"/><path fill="#EF94AA" d="M9295 13831c163 415 415 918 540 1245 126 327 219 917 214 1170-12 692-386 680-375 768s61 62 161 62c101 0-50 26 76 101 126 76 541 101 629-151 88-251 138-805 88-1170-50-364-269-2146-657-2249-387-103-676 224-676 224zM13484 14309c176 314 314 289 138 692-176 402-352 968-528 1031-177 63-592 378-642 491-26 59 50 46 115 33 60-11 110-23 62 21-173 158 565 34 691 34s214-75 327-163c113-89 642-1296 805-1397 164-100 227-390 189-641-38-252 38-541-164-554-201-13-993 453-993 453zM8313 9415c-328-339-943-779-1170-830-226-50-704-126-717 0-12 126 76 315 340 478 264 164 566 491 679 730 114 239 986-256 868-378z"/><path fill="#F4ACBC" d="M6879 9592c-340 221-704 365-994 402-289 38-553 189-691 139-139-51-176-240-265-151-88 88-402 603-352 729s0 239 239 478 1042 1070 1609 1233c568 164 602 403 950 579 347 176 599 455 825 586 227 131 1346 558 1623 684s365 365 465 742c101 378 335 1158 406 1510 72 352-116 893-255 1019-138 126-302 201-276 264 25 63 214 0 214 0s-139 138 12 176 528 25 579-100c50-126 100-428 151-327 50 100 138 226 176 75 37-151-25-478 0-767 25-290 25-504 88-768s340-1358 503-1459 1245-101 1434-75c189 25 1069-96 1314-206 246-109 460-411 598-235 139 176 189 733 227 1127 37 395-126 1112-176 1314-51 201-252 594-177 668 41 39 92-3 140-45 42-38 83-75 112-57 63 38-13 214 176 163 189-50 239-226 315-314 37-43 43-14 48 15 5 31 8 61 39 10 63-101 89-327 114-642 25-314 38-628 126-880s62-881 113-969c50-88 629-868 855-1748 227-881 302-1950-226-2629-528-680-1132-1062-2214-946-1082 115-3007 518-3510 405-503-114-1308-365-2050-491-743-126-1686 113-2265 491z"/><path fill="#F6C0CB" d="M8653 10070c-252-327-971-873-1278-883-307-11-689-15-647 228 43 244 139 504 252 743s679 692 868 905c189 214 286 378 476 227 191-151 329-415 329-818v-402z"/><path fill="#252422" d="M6640 10409c113-88 190-160 327-93 137 68 189 206 76 219s-139-170-227-123c-88 48-176-3-176-3zM4561 10794c306 326 696 474 1132 473 33 0 59-26 59-59s-26-59-59-59c-410-1-761-135-1045-436-23-24-60-25-84-3s-25 60-3 84z"/><path fill="#D6D4D2" d="M10967 17883zm0 0zm0-1h1c43-109 86-348 130-348 7 0 14 7 21 21 33 67 83 145 125 145 20 0 38-20 51-70 9-37 12-83 12-138 0 55-3 101-12 138-13 50-31 70-51 70-42 0-92-78-125-145-7-14-14-21-21-21-44 0-87 239-130 348h-1zm322-863c0-52 1-105 6-156 25-290 25-504 88-768s340-1358 503-1459c109-67 626-89 1015-89 194 0 356 5 419 14 6 0 12 1 19 1-7 0-13-1-19-1-63-9-225-14-419-14-389 0-906 22-1015 89-163 101-440 1195-503 1459s-63 478-88 768c-5 51-6 104-6 156zm2030-408h1c126 0 214-75 327-163 113-89 642-1296 805-1397 133-82 200-288 199-497 1 209-66 415-199 497-163 101-692 1308-805 1397-113 88-201 163-327 163h-1zm2145-1234c0-46-2-89-5-130-38-394-88-951-227-1127-30-38-64-54-100-54h-6 6c37 0 70 16 100 54 139 176 189 733 227 1127 3 41 5 84 5 130zm-1792-778c-8-17-17-34-29-51 12 17 22 33 31 50-1 0-1 1-2 1zm969-189c-3-18-5-36-7-54v-1h1c2 18 3 37 6 55zm2504-1652zm469-1814zm0 0c114 0 230-100 279-241-49 141-165 241-279 241zm-188-125c0-1 0-1-1-2-11-20-23-37-34-51 11 14 23 31 34 51 1 1 1 1 1 2zm-210-87c2-1 3-1 5-2 22-10 45-19 68-21-25 2-49 13-73 23zm678-30v-3 3zm-241-4zm0 0c13 0 27-5 41-16-14 11-28 16-41 16zm242 0c0-1 0-2 1-3-1 1-1 2-1 3zm0-432v-1 1zm-492-2c-25-55-50-101-77-127 27 26 52 72 77 127zm493 0c15-28 27-40 37-40-10 0-22 12-37 40zm-688-122zm1-1zm0-1h0zm1 0l1-1-1 1zm1-1l1-1-1 1zm1-1c10-9 20-16 31-21-11 5-21 12-31 21zm114-1c-2-2-3-4-5-6 2 2 3 4 5 6zm-408-4c-1-2-2-3-3-4 1 1 2 2 3 4zm402-2l-1-1 1 1zm-405-2l-3-3 3 3zm-3-4c-1-1-2-2-2-3 0 1 1 2 2 3zm-3-4c-1 0-1-1-2-2 1 1 1 2 2 2zm-3-3c0-1-1-2-2-2 1 0 2 1 2 2zm337-1zm1 0l1-1-1 1zm1-1zm0 0h0zm1 0l1-1-1 1zm1-1h0zm1 0zm1 0zm-345-1c-1 0-2-1-2-2 0 1 1 2 2 2zm346 0zm2 0zm-351-3l-2-2 2 2zm-3-3c0-1-1-2-1-2s1 1 1 2zm-2-4c-1 0-2-1-2-2 0 1 1 2 2 2zm-3-3c-1-1-1-2-2-3 1 1 1 2 2 3zm-3-3c-3-5-7-9-10-14 3 5 7 9 10 14zm-11-14c-1-1-1-2-2-3 1 1 1 2 2 3zm-3-4c0-1-1-2-2-3 1 1 2 2 2 3zm-2-3l-3-3 3 3zm-3-4c-1-1-2-1-2-2 0 1 1 2 2 2zm-3-3c-1-1-1-2-2-3 1 1 1 2 2 3zm-2-3l-3-3 3 3zm-3-4l-3-3 3 3zm-3-3c-5-7-11-13-16-20 5 7 11 13 16 20zm-16-20l-3-3 3 3zm-3-4l-3-3 3 3zm-3-3l-3-3 3 3zm-3-3c-1-1-2-2-3-4 1 2 2 3 3 4zm-3-4c-407-491-872-804-1568-853 696 49 1161 362 1568 853z"/><path fill="#CC8A96" d="M17614 10944c-70 0-138-38-188-125 0-1 0-1-1-2-11-20-23-37-34-51-34-44-65-57-94-57h-8c-23 2-46 11-68 21-2 1-3 1-5 2-37-125-84-245-143-357 40-91 85-186 135-233l1-1v-1h1l1-1 1-1c10-9 20-16 31-21h1l1-1h1l1-1h2c0-1 1-1 1-1h2c6-2 13-4 20-4 14 0 30 6 45 18l2 2 1 1h1c2 2 3 4 5 6 27 26 52 72 77 127 79 173 155 433 250 434 13 0 27-5 41-16 151-118 145-307 201-416v-1l1-1c15-28 27-40 37-40 43 0 38 240-37 471-1 1-1 2-1 3 0 0 0 1-1 1v3c-1 0-1 1-1 1-49 141-165 241-279 241z"/><path fill="#C57384" d="M12752 16657c-41 0-76-2-102-7 452-136 851-556 1101-1016 123-159 223-336 293-523 8-21 12-43 14-65 19-35 36-71 46-113 38-156-48-321-207-364-25-7-50-10-75-10-52 0-103 14-148 39-9-17-19-33-31-50 339-34 820-116 991-192 2 18 4 36 7 54 7 47 10 95 10 144 1 209-66 415-199 497-163 101-692 1308-805 1397-113 88-201 163-327 163h-1c-79 1-381 46-567 46z"/><path fill="#CC8A96" d="M10815 17975c70-168 110-355 135-541 113-819 88-1679 110-2505 1-37-5-69-14-98 16-115 35-230 62-342 136-560 762-841 1316-934 441-11 878-58 1304-154 1145-260 2163-1067 2254-2292 51-688-223-1436-718-1936 696 49 1161 362 1568 853 1 2 2 3 3 4l3 3 3 3v1l3 3c5 7 11 13 16 20l3 3v1l3 3c1 1 1 2 2 3 0 0 1 0 1 1s1 1 2 2v1l3 3c1 1 2 2 2 3l1 1c1 1 1 2 2 3h1c3 5 7 9 10 14h1c1 1 1 2 2 3 0 0 0 1 1 1 0 1 1 2 2 2 0 1 0 1 1 2 0 0 1 1 1 2 1 0 1 0 1 1l2 2 1 1c0 1 1 2 2 2v2c1 0 2 1 2 2l1 1c1 1 1 2 2 2 0 1 0 1 1 1 0 1 1 2 2 3v1l3 3c1 1 2 2 3 4 59 76 110 158 155 243v-1c59 112 106 232 143 357 0 0-1 0-1 1 181 622 97 1374-70 2025 0 1 0 2-1 4-226 880-805 1660-855 1748-51 88-25 717-113 969s-101 566-126 880c-25 315-51 541-114 642-12 20-20 28-25 28-9 0-11-19-14-38-3-18-7-37-19-37-6 0-16 6-29 22-76 88-126 264-315 314-23 7-42 9-58 9-114 0-63-139-118-172-5-3-11-5-17-5-27 0-60 31-95 62-35 30-71 61-104 61-12 0-24-5-36-16-11-11-16-30-16-55-1-136 150-443 193-613 45-181 181-778 181-1184 0-46-2-89-5-130-38-394-88-951-227-1127-30-38-63-54-100-54h-6c-131 6-302 204-491 289h-1v1c-171 76-652 158-991 192-103 10-192 16-256 16-19 0-35-1-48-2-7 0-13-1-19-1-63-9-225-14-419-14-389 0-906 22-1015 89-163 101-440 1195-503 1459s-63 478-88 768c-5 51-6 104-6 156 0 172 18 344 18 473 0 55-3 101-12 138-13 50-31 70-51 70-42 0-92-78-125-145-7-14-14-21-21-21-44 0-87 239-130 348h-1v1c-19 44-78 73-152 92zM7949 11402c-96 0-211-20-329-86-312-172-238-391-221-683 0 0 1 0 1 1 14 14 198 209 396 383 16 15 33 29 49 43l3 3c138 156 226 286 338 286 8 0 16-1 24-2 2 1 3 2 3 2s-108 53-264 53z"/><path fill="#CF9BA3" d="M8186 11349c-112 0-200-130-338-286l-3-3c176 150 342 270 365 287-8 1-16 2-24 2zm-786-715c0-1-1-1-1-1s1 0 1 1z"/></g></svg>