<svg xmlns="http://www.w3.org/2000/svg" width="210mm" height="297mm" shape-rendering="geometricPrecision" text-rendering="geometricPrecision" image-rendering="optimizeQuality" fill-rule="evenodd" clip-rule="evenodd" viewBox="0 0 21000 29700"><g fill-rule="nonzero"><path fill="#7F8689" d="M17076 11649c0 198-60 358-133 358-74 0-134-160-134-358s60-358 134-358c73 0 133 160 133 358z"/><path fill="#BA8358" d="M4823 13134h10864v-1196H4823z"/><path fill="#616768" d="M7565 13198c0 562-455 1017-1017 1017s-1017-455-1017-1017 455-1017 1017-1017 1017 455 1017 1017z"/><path fill="#FEFEFE" d="M7241 13198c0 383-310 694-693 694s-694-311-694-694 311-693 694-693 693 310 693 693z"/><path fill="#DADCE1" d="M7164 13198c0 341-276 617-616 617-341 0-617-276-617-617 0-340 276-616 617-616 340 0 616 276 616 616z"/><path fill="#FEFEFE" d="M7124 13198c0 319-258 577-576 577-319 0-577-258-577-577 0-318 258-576 577-576 318 0 576 258 576 576z"/><path fill="#DADCE1" d="M6972 13198c0 234-190 424-424 424s-424-190-424-424 190-424 424-424 424 190 424 424z"/><path fill="#FEFEFE" d="M6944 13198c0 219-177 396-396 396s-397-177-397-396 178-396 397-396 396 177 396 396z"/><path fill="#DADCE1" d="M6578 12672c0 16-14 30-30 30-17 0-30-14-30-30 0-17 13-30 30-30 16 0 30 13 30 30zM6941 12847c-12 12-31 12-42 0-12-11-12-31 0-42 11-12 30-12 42 0 12 11 12 31 0 42zM7074 13228c-16 0-30-13-30-30 0-16 14-30 30-30 17 0 30 14 30 30 0 17-13 30-30 30zM6899 13592c-12-12-12-31 0-43 11-12 30-12 42 0s12 31 0 43c-12 11-31 11-42 0zM6518 13724c0-16 13-30 30-30 16 0 30 14 30 30 0 17-14 30-30 30-17 0-30-13-30-30zM6154 13549c12-12 31-12 43 0s12 31 0 43c-12 11-31 11-43 0-11-12-11-31 0-43zM6021 13168c17 0 31 14 31 30 0 17-14 30-31 30-16 0-30-13-30-30 0-16 14-30 30-30zM6197 12805c12 11 12 31 0 42-12 12-31 12-43 0-11-11-11-31 0-42 12-12 31-12 43 0z"/><path fill="#616768" d="M15235 13198c0 562-455 1017-1017 1017s-1017-455-1017-1017 455-1017 1017-1017 1017 455 1017 1017z"/><path fill="#FEFEFE" d="M14911 13198c0 383-310 694-693 694s-694-311-694-694 311-693 694-693 693 310 693 693z"/><path fill="#DADCE1" d="M14834 13198c0 341-276 617-616 617s-617-276-617-617c0-340 277-616 617-616s616 276 616 616z"/><path fill="#FEFEFE" d="M14794 13198c0 319-258 577-576 577-319 0-577-258-577-577 0-318 258-576 577-576 318 0 576 258 576 576z"/><path fill="#DADCE1" d="M14642 13198c0 234-190 424-424 424s-424-190-424-424 190-424 424-424 424 190 424 424z"/><path fill="#FEFEFE" d="M14614 13198c0 219-177 396-396 396s-397-177-397-396 178-396 397-396 396 177 396 396z"/><path fill="#DADCE1" d="M14248 12672c0 16-13 30-30 30s-30-14-30-30c0-17 13-30 30-30s30 13 30 30zM14611 12847c-12 12-31 12-42 0-12-11-12-31 0-42 11-12 30-12 42 0 12 11 12 31 0 42zM14744 13228c-17 0-30-13-30-30 0-16 13-30 30-30s30 14 30 30c0 17-13 30-30 30zM14569 13592c-12-12-12-31 0-43 11-12 30-12 42 0s12 31 0 43c-12 11-31 11-42 0zM14188 13724c0-16 13-30 30-30s30 14 30 30c0 17-13 30-30 30s-30-13-30-30zM13824 13549c12-12 31-12 43 0s12 31 0 43c-12 11-31 11-43 0-12-12-12-31 0-43zM13692 13168c16 0 29 14 29 30 0 17-13 30-29 30-17 0-31-13-31-30 0-16 14-30 31-30zM13867 12805c12 11 12 31 0 42-12 12-31 12-43 0-12-11-12-31 0-42 12-12 31-12 43 0z"/><path fill="#E18C46" d="M4223 13086s-200-83-230-273c-30-189 34-1793 64-2086 30-294 76-459 76-459s-74-26-53-96c21-71 68-182 79-200 0 0 89-660 136-801 47-140 261-664 488-763 226-99 2032-222 2546-239 514-16 4964-41 5380-41s2010 49 2320 103c310 53 571 172 592 210 20 39 75 226 88 239 13 14 337 493 390 581s489 759 511 816c23 58 84 198 116 245 33 47 119 201 124 239 5 39 70 1064 70 1158 0 93-110 863-110 951s-11 402-36 435-146 71-176 71h-1179s-65-44-80-129-182-602-220-676c-37-75-221-410-849-410-627 0-790 137-924 429-133 291-226 786-695 786H8185s-131 17-271-246c-139-262-356-480-1237-480-882 0-1252-71-1413 553 0 0-23 174-109 174h-642s-161-28-290-91z"/><path fill="#C98149" d="M14463 11824c56 0 547 14 735 480 37 93 65 177 89 252 102 313 148 455 652 455h569c12-105 84-776 40-1293-70-805-174-1333-286-1450-154-159-200-227-381-657-170-400-403-850-438-916h-2607v3130l1627-1zm2060 1220h-584c-525 0-580-169-680-477-25-74-52-158-89-250-183-454-686-460-707-460l-2 1h-1640c-8 0-15-8-15-17V8678c0-9 7-16 15-16h2631c5 0 10 3 13 8s259 495 443 927c188 443 232 500 374 647 162 167 255 993 296 1471 46 535-32 1232-41 1308 0 2 1 3 1 5 0 9-7 16-15 16z"/><path fill="#C98149" d="M16695 10268c-15-30-32-65-47-99H4080c0 1-1 2-1 3-21 70 53 96 53 96h12563z"/><path fill="#757B7E" d="M16610 10077c-22-57-458-728-511-816s-378-567-390-581c-13-13-68-200-88-239-21-38-283-157-592-210-310-54-1904-103-2320-103s-4866 25-5380 41c-514 17-2320 140-2547 239-226 99-440 623-487 763-47 141-136 801-136 801-11 18-59 129-79 200-5 15-5 28-2 39h12590c-23-50-46-103-58-134z"/><path fill="#646869" d="M5043 9835h-317c-18 0-33-15-33-35 0-19 15-35 33-35h317c18 0 32 16 32 35 0 20-14 35-32 35zM5073 9721h-317c-18 0-32-16-32-35s14-35 32-35h317c18 0 32 16 32 35s-14 35-32 35zM5103 9606h-317c-18 0-32-15-32-35 0-19 14-35 32-35h317c18 0 33 16 33 35 0 20-15 35-33 35zM5134 9492h-318c-17 0-32-16-32-35s15-35 32-35h318c17 0 32 16 32 35s-15 35-32 35zM5164 9378h-317c-18 0-33-16-33-36 0-19 15-35 33-35h317c18 0 32 16 32 35 0 20-14 36-32 36zM5194 9263h-317c-18 0-32-16-32-35s14-35 32-35h317c18 0 32 16 32 35s-14 35-32 35zM5224 9149h-317c-18 0-32-16-32-35 0-20 14-36 32-36h317c18 0 32 16 32 36 0 19-14 35-32 35zM5255 9034h-318c-18 0-32-16-32-35s14-35 32-35h318c17 0 32 16 32 35s-15 35-32 35zM5285 8920h-318c-17 0-32-16-32-35 0-20 15-35 32-35h318c17 0 32 15 32 35 0 19-15 35-32 35zM4593 8581c-12 16-23 31-34 48h11128c-5-15-10-31-16-48H4593z"/><path fill="#E1E2E6" d="M16610 10077c-22-57-458-728-511-816s-378-567-390-581c-3-2-5-9-9-18h-44s465 1025 579 1264c85 177 295 200 396 200-8-19-16-36-21-49z"/><path fill="#646869" d="M12836 10211V8695h2607c35 66 268 516 438 916 158 375 213 475 327 600h42c-118-125-170-206-342-614-184-432-440-922-443-927s-8-8-13-8h-2631c-8 0-15 7-15 16v1533h30z"/><path fill="#CECED3" d="M15791 10003l-553-1178c-9-19-27-31-46-31h-2178c-28 0-52 25-52 54v1184c0 30 24 54 52 54h2733c29 0 52-24 52-54 0-11-3-21-8-29z"/><path fill="#E8E9EE" d="M15740 9974l-536-1118c-8-18-26-29-45-29h-2108c-27 0-50 23-50 52v1122c0 29 23 52 50 52h2646c28 0 50-23 50-52 0-9-2-19-7-27z"/><path fill="#C98149" d="M14052 10855c0 105-125 189-278 189s-277-84-277-189c0-104 124-189 277-189s278 85 278 189z"/><path fill="#E8E9EE" d="M13833 10915h-444c-33 0-60-27-60-60s27-60 60-60h444c33 0 60 27 60 60s-27 60-60 60z"/><path fill="#7F8689" d="M4538 13392h-376c-185 0-337-151-337-337v-194c0-186 152-337 337-337h376c185 0 337 151 337 337v194c0 186-152 337-337 337zM16667 13392h-376c-185 0-336-151-336-337v-194c0-186 151-337 336-337h376c185 0 337 151 337 337v194c0 186-152 337-337 337z"/><path fill="#CECED3" d="M8598 9996H6391c-185 0-337-151-337-336v-588c0-185 152-337 337-337h2207c185 0 336 152 336 337v588c0 185-151 336-336 336z"/><path fill="#E8E9EE" d="M8547 9942H6442c-185 0-337-152-337-337v-479c0-185 152-336 337-336h2105c185 0 336 151 336 336v479c0 185-151 337-336 337z"/><path fill="#CECED3" d="M11955 9996H9749c-185 0-337-151-337-336v-588c0-185 152-337 337-337h2206c186 0 337 152 337 337v588c0 185-151 336-337 336z"/><path fill="#E8E9EE" d="M11905 9942H9800c-185 0-337-152-337-337v-479c0-185 152-336 337-336h2105c185 0 337 151 337 336v479c0 185-152 337-337 337z"/></g></svg>