<svg xmlns="http://www.w3.org/2000/svg" width="210mm" height="297mm" shape-rendering="geometricPrecision" text-rendering="geometricPrecision" image-rendering="optimizeQuality" fill-rule="evenodd" clip-rule="evenodd" viewBox="0 0 21000 29700"><g fill-rule="nonzero"><path fill="#312F2D" d="M6855 9563c-398-126-829-207-1229-91-400 115-754 476-743 892 9 347 250 636 444 923 365 543 591 1178 652 1828 22 238 30 498 185 680 167 197 450 238 708 261 973 83 1954 81 2927-7 158-14 319-31 466-91 147-59 344-191 356-364 6-74-15-148-39-219-202-599-500-1222-872-1733-451-620-1026-1151-1683-1547-368-223-762-403-1172-532z"/><path fill="#312F2D" d="M6874 14495c-102 96-193 204-284 311-111 131-222 261-333 392-45 54-93 112-103 181-10 70 35 153 105 156 86 3 170-106 241-58 54 37 24 128-32 162s-126 36-186 62-112 99-77 154c63 100 230-47 333 11 76 43 53 165-12 222-66 57-156 76-229 123-72 47-127 150-75 219 61 83 192 33 277-26 84-60 205-122 280-51 65 62 30 176-33 241s-149 108-198 185c-48 76-29 206 61 220 119 17 176-180 296-181 104-1 142 150 90 240-53 90-151 141-222 217-72 76-107 211-26 275 189 150 371-257 578-45 74 76 92 195 72 300s-73 201-123 295c-193 360-363 731-510 1112-36 92-71 189-62 288s75 199 174 215c88 13 175-47 221-125 45-77 58-169 70-258 33-255 67-510 100-765 12-92 25-185 63-269s107-159 196-181c204-52 250 143 214 296-24 105-42 240 49 297 76 48 179 1 239-66 59-67 96-153 159-217 64-63 175-96 241-35 57 52 50 144 26 218s-61 149-48 225c18 108 139 178 246 162 108-16 197-101 241-200 45-99 52-211 49-320-3-88-11-182 29-261 39-79 150-129 219-73 47 39 55 110 98 154 50 51 138 48 200 12 62-37 104-101 139-163 297-527 317-1159 353-1762 37-603 111-1242 484-1718 75-94 161-182 209-293 48-110 48-254-39-337-79-75-200-79-309-79-501 0-1001 5-1502 8-462 3-923-35-1359 147-217 91-419 220-590 383z"/><path fill="#82D1E2" d="M6929 11218c33-106 143-183 254-178 80 4 154 45 234 58 45 8 98 0 137-22 28-16 61-17 91-8 97 30 198 45 299 45 29 0 59-1 89-4 68-6 129 48 131 117 0 31 3 63 6 94 9 80 27 159 53 239 3 11-182 75-200 81-71 22-143 38-217 48-71 10-150 19-222 12-53-6-121-8-165-41-34-24-57-52-99-66-93-33-199-32-283-84-94-59-141-184-108-291zM8256 10776c-29 61-51 126-66 193-7 31-33 55-64 62-124 25-254 24-378-2-43-9-72-21-105-50-38-34-57-79-93-115-43-45-98-84-123-144-45-108 53-233 168-259 115-25 232 19 339 66 98 43 194 90 287 140 39 21 53 69 35 109zM6889 12172c-54-67-22-175 47-227 69-51 161-59 247-53 103 7 235 16 278-78 3-5 4-10 6-14 7-25 29-41 54-40 34 3 68 4 103 4 196 0 392-41 571-121 27-12 58 0 69 27 48 114 112 228 193 340 18 25 9 62-19 75-9 5-18 9-27 14-224 107-464 182-709 221-123 19-247 30-371 31-53 1-93 10-142-18-39-22-71-55-114-72-63-25-141-33-186-89z"/><path fill="#82D1E2" d="M7080 12965c-67-29-143-29-214-46s-145-63-156-136c-11-79 60-148 135-178s158-37 230-74c28-15 55-38 74-65 22-32 57-52 96-51 18 0 35 1 53 1 399 0 798-92 1157-268 46-22 101-10 135 28 1 2 2 3 4 4 43 49 88 96 135 141 67 64 34 175-57 194-233 48-461 151-691 263l-17 7c-226 110-457 222-697 276-42 10-87-5-114-39-19-24-45-45-73-57zM9273 12860c-230 73-455 161-673 262-225 105-443 225-653 358-41 27-77 61-117 87-45 30-118 31-170 34-128 8-255-10-382-23-82-8-168-18-235-66-67-47-105-146-59-214 41-60 131-77 175-130 12-15 28-26 47-29 273-48 533-174 786-297l16-7c326-158 647-298 978-285 14 1 28 6 40 14 83 58 170 112 260 160 58 31 50 116-13 136zM8310 10809c18-39 67-53 104-31 143 88 282 184 414 288 148 117 289 244 422 379 17 18 24 44 18 69-46 197-47 412-2 625 31 145 83 290 155 434 32 64-37 131-100 98-99-53-194-112-285-178v-4h-6c-142-103-273-220-389-351-235-265-376-550-408-825-20-178 9-354 77-504z"/><path fill="#C6E8E8" d="M9066 13395c-202 71-394 167-580 271-35 19-74 27-114 23-121-12-242-24-363-37-61-6-80-85-29-118 222-141 455-267 694-376 240-108 487-200 740-274 49-14 112-51 164-30 29 11 48 55 65 79 25 33 51 66 78 99 39 48 79 95 120 140 39 43 7 110-50 107-227-11-473 28-725 116z"/><path fill="#C6E8E8" d="M10031 13384c30 15 55 35 80 61 62 63 131 120 197 179 22 19 26 52 7 74-18 21-39 41-63 59-147 109-352 88-523 71-336-35-671-69-1007-103-54-5-67-78-19-103 125-63 252-120 384-167 175-61 358-102 544-112 113-6 232-13 342 18 22 6 41 14 58 23zM10368 13388c30 78-69 143-131 86-168-152-326-309-467-482-231-285-379-576-441-866-31-142-39-285-27-422 6-71 96-100 142-46 225 263 420 552 577 861 143 280 232 575 346 866 0 1 1 2 1 3z"/><path fill="#05B5CD" d="M5367 9897c-13 26-24 58-8 82 17 27 55 28 87 26 116-9 231-28 344-58 45-11 90-25 129-52 38-26 69-68 72-114 9-156-210-142-310-119-131 29-251 115-314 235zM5400 10189c-38 13-76 28-107 53-31 26-54 65-50 105 5 50 50 89 99 101 49 13 100 4 149-7 88-20 175-47 258-82 111-47 213-199 42-256-106-35-291 51-391 86zM5410 10674c-56 37-95 109-73 172 15 46 59 79 107 91 47 11 97 4 144-9 59-17 118-46 155-95s49-122 15-173c-65-98-272-38-348 14zM5660 11056c-41 16-83 33-116 62-32 29-55 74-45 117 12 53 70 85 124 84 55-1 105-29 149-61 31-22 61-47 82-80 34-52 39-144-30-173-52-22-117 32-164 51zM5727 11604c49 45 133 45 182 0 27-25 43-61 43-98-1-57-42-110-96-125-131-36-231 128-129 223zM5878 11821c-2 24 4 48 10 72 16 60 31 121 47 182 4 16 8 33 18 47 22 29 65 35 98 20s56-46 69-80c22-56 21-121-3-176-29-67-228-229-239-65zM6146 11687c44-15 75-59 77-106 4-96-121-143-185-74-72 77 1 217 108 180zM5790 10446c-21 25-31 62-15 90 11 20 33 32 54 38 45 13 96 7 132-22 35-29 51-83 30-124-42-82-156-33-201 18zM5963 9970c-22 22-34 56-21 84 11 26 41 40 70 45 44 8 93-2 126-31 33-30 48-83 27-122-44-84-156-23-202 24zM5930 10737c42-14 92 0 98 57 4 48-41 94-89 88-31-4-59-29-66-59-10-42 20-74 57-86zM6078 10326c22-31 69-40 101-19 31 21 42 68 22 100-19 33-65 45-99 27-33-18-47-64-30-98l6-10zM6081 12332c-16 7-26 24-32 40-38 92-31 201 19 287 21 37 59 73 100 64 38-8 58-49 65-87 11-63 0-129-30-185-15-28-81-134-122-119zM6304 12315c114-42 52-225-63-191-122 35-62 238 63 191zM6195 9766c15 22 43 33 69 38 27 4 54 5 80 13 65 21 113 88 181 90 56 1 107-49 113-105s-28-112-75-142c-62-38-160-44-232-39-63 4-199 57-136 145zM6772 9926c17 45 64 78 113 78 48-1 95-34 111-80 10-28 9-59-3-86-15-32-45-57-80-64-89-20-174 62-141 152zM6181 13273c29 33 78 50 118 34 55-20 77-87 79-145 2-85-24-170-74-238-72-102-182-43-176 72 2 41 13 78 13 120-1 57 0 112 40 157zM6305 12716c-11 26-14 56-3 82 19 44 80 61 123 40 44-22 67-73 64-121-2-33-17-67-44-86-70-48-117 29-140 85zM5109 10407c-8-6-16-12-25-11-14 1-23 16-29 29-30 76-33 174 5 249 27 53 91 97 147 58 31-22 109-124 104-163-7-53-159-131-202-162zM5310 10028c-6-27-29-47-50-65-19-16-43-34-68-28-23 5-37 27-48 48-22 42-146 298-31 277 69-12 213-162 197-232z"/><path fill="#626260" d="M7180 10473c-1-105-77-198-170-246-93-49-200-60-305-64-59-1-119-1-175 15-57 17-110 51-138 103-35 65-24 145 3 214 53 136 166 248 303 299 108 40 282 58 384-10 80-53 99-225 98-311zM6306 10987c-61 36-107 105-103 176 5 80 67 145 137 183s151 56 229 43c138-24 302-209 189-347-88-106-343-119-452-55zM6508 11644c-64 47-114 127-93 203 14 52 58 91 108 110 101 39 228-6 282-100 42-73 43-219-37-272-71-46-202 17-260 59zM6506 12508c32 43 97 47 147 27 111-44 216-291 45-322-132-25-274 186-192 295zM6624 13443c61 8 121-24 163-69 117-128 40-426-164-331-148 69-209 372 1 400z"/><path fill="#82D1E2" d="M7877 15908c-5 3-9 6-14 9-32 21-49 19-85 20-68 1-151 29-205-29-58-64-11-166 44-231 56-66 125-140 106-224-3-10-6-20-11-29-11-23-7-51 13-66 345-259 767-418 1196-449 31-2 57 22 57 53-1 22 1 44 4 66 4 23-9 46-30 56-106 48-208 103-307 164-148 90-288 194-419 309-65 58-127 118-187 181-55 57-98 124-162 170z"/><path fill="#C6E8E8" d="M8297 16463c-14 17-36 27-58 23-92-14-212 52-292-6-75-55-50-171-16-259 26-70 49-159 17-220-12-24-10-52 7-73 272-328 621-598 1006-778 28-13 60-4 79 20 10 14 34 29 41 43 34 72-46 169-78 226-47 81-94 162-144 241-98 159-203 314-314 465-80 108-162 214-248 318z"/><path fill="#82D1E2" d="M8907 16570c-47 76-93 151-134 229-13 26-20 66-44 83-29 20-69 17-102 24-40 9-73 27-108 48-57 36-130 96-200 59-81-42-61-163-24-246 25-58 50-128 40-186-5-32 1-65 21-90 238-290 453-598 644-920 42-71 83-143 122-215 20-37 29-63 70-79 37-14 77-18 115-10 21 4 42 11 58 24 36 30 24 64 16 104-9 45-19 90-29 134-22 90-48 178-76 265-58 175-130 345-215 508-29 57-61 113-93 168-20 34-41 67-61 100zM7661 15327c-20 16-45 21-69 15-42-9-88-11-129-5-104 14-218 46-306-10-99-64-109-214-50-316 58-101 164-165 268-221 217-118 444-220 676-304 414-150 848-247 1286-287 14-1 33-3 54-6 84-9 125 99 56 148-98 69-189 148-272 235-54 58-116 131-157 219-12 28-39 46-70 48-463 27-920 200-1287 484z"/><path fill="#82D1E2" d="M9648 15117c55-38 125 23 94 82-212 404-312 868-273 1323 12 136 35 271 39 407s-14 277-77 397c-64 120-181 218-317 233-135 15-283-68-317-200-21-84 2-171 0-257-1-35-9-71-23-103-7-15-7-32-1-47 47-121 118-236 188-348 20-34 41-68 61-101 227-379 381-809 449-1246 3-20 15-37 33-47 51-27 98-60 144-93z"/><path fill="#C6E8E8" d="M10301 14432c-17 58-52 109-95 151-59 57-115 115-167 177-9 10-19 19-30 27l-397 278c-75 52-152 106-238 133-91 28-182 18-243-27-74-54-108-168-81-276 28-113 106-206 171-275 188-197 420-351 674-447 21-7 43-11 65-9 219 15 395 80 341 268z"/><path fill="#05B5CD" d="M7443 15723c34-35 61-80 64-129 4-48-20-101-64-122-51-25-112-5-165 16-73 29-150 60-201 120-52 59-71 156-20 216 34 39 90 55 141 46 80-13 189-91 245-147zM7501 16118c-48 52-60 141-12 193 25 28 63 41 101 42 37 1 74-10 109-25 45-19 88-48 115-89 27-42 36-97 13-141-58-110-261-50-326 20zM7325 16119c37 25 92 17 123-15 27-28 36-73 21-109s-55-60-94-56c-83 9-124 132-50 180zM7919 16830c35 37 96 40 143 20 66-27 230-174 145-251-68-61-209-6-264 46-49 46-76 130-24 185zM8399 17272c17 67 87 116 155 110 42-4 80-26 107-57 28-31 45-70 52-111 6-34 6-70-7-101-12-32-37-60-70-70-112-33-264 120-237 229zM6914 15477c5 33 35 60 68 67 33 6 69-5 96-26 21-16 38-40 42-67 4-37-21-75-56-86-53-16-160 51-150 112zM7067 16084c19 40 76 57 114 34s48-81 21-117c-55-72-175 0-135 83zM7569 16571c10 46 55 84 103 83 29 0 57-13 79-33 31-27 50-68 46-109-3-41-31-80-70-93-80-27-174 74-158 152zM7698 16836c12 32 48 53 81 47 43-6 73-52 70-96-2-30-19-60-46-71-61-26-125 67-105 120zM8057 16978c-12 39-5 85 23 115 29 29 81 36 111 9 105-94-86-287-134-124zM6869 15304c27 18 65 8 88-15 22-22 32-55 36-86 4-29 2-61-19-80-75-66-188 127-105 181zM8686 17619c46 19 104-6 122-52s-9-104-56-120c-107-38-173 128-66 172zM7348 16195c36 15 56 61 42 97-14 37-59 57-96 44-96-33-39-180 54-141z"/><g><path fill="#312F2D" d="M15003 9563c397-126 828-207 1229-91 400 115 754 476 743 892-9 347-250 636-444 923-365 543-592 1178-652 1828-23 238-31 498-185 680-167 197-451 238-708 261-974 83-1954 81-2927-7-159-14-319-31-467-91-146-59-344-191-356-364-5-74 16-148 40-219 202-599 500-1222 872-1733 451-620 1026-1151 1683-1547 368-223 762-403 1172-532z"/><path fill="#312F2D" d="M14983 14495c102 96 193 204 284 311 111 131 222 261 334 392 45 54 93 112 103 181 10 70-35 153-105 156-86 3-170-106-241-58-54 37-24 128 32 162s126 36 186 62 112 99 77 154c-64 100-231-47-334 11-75 43-53 165 13 222s155 76 228 123 128 150 76 219c-62 83-193 33-277-26-84-60-205-122-280-51-66 62-30 176 33 241s149 108 197 185c49 76 29 206-60 220-119 17-176-180-296-181-104-1-142 150-90 240s151 141 222 217 107 211 25 275c-188 150-370-257-577-45-75 76-92 195-72 300s73 201 123 295c192 360 363 731 510 1112 36 92 71 189 62 288s-76 199-174 215c-89 13-176-47-221-125-46-77-58-169-70-258-34-255-67-510-101-765-12-92-24-185-62-269-39-84-107-159-197-181-203-52-249 143-213 296 24 105 41 240-50 297-76 48-179 1-238-66-60-67-96-153-160-217-63-63-175-96-241-35-57 52-49 144-25 218s61 149 48 225c-19 108-139 178-247 162-107-16-196-101-241-200-44-99-52-211-48-320 3-88 11-182-29-261s-151-129-219-73c-47 39-55 110-98 154-51 51-139 48-201 12-62-37-103-101-139-163-296-527-316-1159-353-1762-36-603-110-1242-483-1718-75-94-161-182-209-293-49-110-48-254 39-337 79-75 200-79 309-79 500 0 1001 5 1501 8 463 3 923-35 1359 147 218 91 419 220 590 383z"/><path fill="#82D1E2" d="M14928 11218c-32-106-142-183-253-178-81 4-155 45-234 58-46 8-98 0-138-22-27-16-60-17-90-8-97 30-198 45-299 45-30 0-59-1-89-4-69-6-130 48-131 117-1 31-3 63-6 94-9 80-27 159-53 239-4 11 182 75 200 81 70 22 143 38 217 48 71 10 150 19 221 12 53-6 121-8 165-41 34-24 57-52 100-66 93-33 198-32 282-84 95-59 142-184 108-291zM13602 10776c28 61 50 126 66 193 7 31 32 55 64 62 124 25 253 24 377-2 44-9 73-21 106-50 38-34 57-79 92-115 44-45 99-84 124-144 45-108-53-233-168-259-115-25-233 19-340 66-97 43-193 90-287 140-38 21-52 69-34 109zM14968 12172c55-67 23-175-46-227-69-51-162-59-248-53-102 7-234 16-278-78-2-5-4-10-5-14-8-25-29-41-55-40-34 3-68 4-102 4-196 0-392-41-572-121-26-12-57 0-68 27-48 114-113 228-193 340-19 25-9 62 19 75 9 5 17 9 26 14 224 107 464 182 710 221 123 19 247 30 371 31 53 1 93 10 141-18 40-22 72-55 115-72 62-25 140-33 185-89z"/><path fill="#82D1E2" d="M14778 12965c67-29 143-29 213-46 71-17 146-63 156-136 12-79-59-148-134-178s-159-37-230-74c-28-15-55-38-74-65-22-32-58-52-96-51-18 0-36 1-53 1-399 0-798-92-1157-268-46-22-101-10-135 28l-4 4c-43 49-88 96-135 141-67 64-34 175 56 194 233 48 461 151 692 263l16 7c226 110 458 222 698 276 42 10 87-5 113-39 19-24 46-45 74-57zM12585 12860c229 73 454 161 673 262 225 105 443 225 653 358 41 27 77 61 117 87 45 30 117 31 169 34 128 8 256-10 383-23 82-8 167-18 234-66 67-47 106-146 60-214-41-60-131-77-175-130-12-15-28-26-47-29-274-48-533-174-786-297l-17-7c-326-158-646-298-977-285-14 1-28 6-40 14-83 58-170 112-260 160-58 31-50 116 13 136zM13548 10809c-18-39-67-53-104-31-144 88-282 184-414 288-149 117-290 244-422 379-18 18-24 44-18 69 45 197 47 412 1 625-31 145-82 290-154 434-32 64 36 131 100 98 99-53 194-112 285-178l-1-4h7c142-103 272-220 389-351 235-265 376-550 407-825 20-178-8-354-76-504z"/><path fill="#C6E8E8" d="M12792 13395c202 71 394 167 579 271 35 19 75 27 115 23 121-12 242-24 363-37 60-6 80-85 28-118-222-141-454-267-694-376-239-108-486-200-739-274-49-14-113-51-165-30-28 11-47 55-65 79-25 33-50 66-77 99-39 48-79 95-121 140-38 43-6 110 50 107 227-11 474 28 726 116z"/><path fill="#C6E8E8" d="M11827 13384c-30 15-55 35-81 61-61 63-130 120-196 179-22 19-26 52-7 74 18 21 39 41 63 59 147 109 352 88 523 71 336-35 671-69 1007-103 54-5 67-78 19-103-125-63-253-120-384-167-175-61-359-102-544-112-114-6-232-13-343 18-21 6-40 14-57 23zM11490 13388c-30 78 69 143 131 86 167-152 326-309 467-482 231-285 379-576 441-866 30-142 39-285 27-422-7-71-96-100-143-46-225 263-419 552-577 861-142 280-232 575-345 866-1 1-1 2-1 3z"/><path fill="#05B5CD" d="M16490 9897c14 26 24 58 9 82-17 27-56 28-87 26-116-9-231-28-344-58-45-11-91-25-129-52-39-26-69-68-72-114-10-156 209-142 309-119 132 29 251 115 314 235zM16458 10189c38 13 76 28 107 53 31 26 53 65 49 105-5 50-50 89-98 101-49 13-100 4-149-7-88-20-175-47-258-82-111-47-214-199-43-256 107-35 292 51 392 86zM16448 10674c55 37 94 109 73 172-15 46-60 79-107 91-47 11-98 4-145-9-59-17-117-46-154-95-38-49-49-122-15-173 65-98 272-38 348 14zM16198 11056c41 16 83 33 115 62 33 29 56 74 46 117-12 53-70 85-125 84-54-1-104-29-148-61-31-22-61-47-82-80-34-52-40-144 29-173 52-22 117 32 165 51zM16131 11604c-49 45-133 45-182 0-27-25-43-61-43-98 0-57 42-110 96-125 131-36 231 128 129 223zM15980 11821c1 24-5 48-11 72-15 60-31 121-46 182-4 16-9 33-19 47-21 29-65 35-97 20-33-15-56-46-69-80-23-56-22-121 3-176 29-67 228-229 239-65zM15712 11687c-44-15-75-59-77-106-4-96 121-143 185-74 72 77-1 217-108 180zM16068 10446c21 25 31 62 15 90-11 20-33 32-55 38-44 13-95 7-131-22s-51-83-30-124c42-82 156-33 201 18zM15895 9970c21 22 34 56 21 84-12 26-42 40-70 45-45 8-93-2-126-31-34-30-48-83-27-122 44-84 155-23 202 24zM15928 10737c-42-14-92 0-98 57-5 48 41 94 88 88 32-4 59-29 67-59 10-42-21-74-57-86zM15780 10326c-22-31-69-40-101-19s-42 68-23 100c20 33 66 45 99 27s48-64 31-98l-6-10zM15776 12332c17 7 26 24 33 40 38 92 30 201-19 287-21 37-59 73-101 64-37-8-57-49-64-87-12-63 0-129 29-185 15-28 82-134 122-119zM15554 12315c-115-42-52-225 63-191 122 35 62 238-63 191zM15663 9766c-15 22-43 33-70 38-26 4-54 5-79 13-65 21-113 88-181 90-57 1-107-49-113-105s27-112 75-142c61-38 160-44 232-39 63 4 198 57 136 145zM15086 9926c-17 45-64 78-113 78-49-1-96-34-111-80-10-28-9-59 3-86 14-32 45-57 79-64 89-20 174 62 142 152zM15676 13273c-29 33-77 50-118 34-55-20-77-87-78-145-2-85 24-170 73-238 73-102 182-43 177 72-2 41-14 78-13 120 0 57 0 112-41 157zM15553 12716c10 26 14 56 3 82-20 44-80 61-124 40-43-22-67-73-63-121 2-33 17-67 44-86 70-48 117 29 140 85zM16749 10407c7-6 15-12 25-11 14 1 23 16 28 29 30 76 34 174-4 249-27 53-91 97-147 58-32-22-109-124-104-163 6-53 159-131 202-162zM16548 10028c6-27 28-47 49-65 20-16 43-34 68-28 23 5 38 27 49 48 21 42 146 298 31 277-69-12-213-162-197-232z"/><path fill="#626260" d="M14678 10473c1-105 77-198 170-246 93-49 200-60 305-64 59-1 118-1 175 15 56 17 110 51 138 103 34 65 23 145-3 214-54 136-167 248-303 299-108 40-282 58-384-10-80-53-100-225-98-311zM15551 10987c62 36 107 105 103 176-4 80-67 145-137 183-69 38-150 56-228 43-138-24-302-209-190-347 88-106 343-119 452-55zM15350 11644c64 47 113 127 93 203-15 52-59 91-109 110-101 39-227-6-281-100-42-73-44-219 37-272 71-46 202 17 260 59zM15352 12508c-32 43-98 47-148 27-110-44-216-291-44-322 132-25 274 186 192 295zM15234 13443c-61 8-122-24-163-69-117-128-40-426 163-331 148 69 210 372 0 400z"/><path fill="#82D1E2" d="M13981 15908c4 3 9 6 13 9 33 21 50 19 86 20 68 1 151 29 204-29 58-64 12-166-43-231-56-66-125-140-106-224 2-10 6-20 10-29 12-23 8-51-13-66-344-259-766-418-1196-449-30-2-57 22-56 53 0 22-1 44-4 66-4 23 8 46 30 56 105 48 208 103 307 164 148 90 288 194 418 309 65 58 128 118 188 181 54 57 98 124 162 170z"/><path fill="#C6E8E8" d="M13561 16463c14 17 36 27 58 23 92-14 212 52 291-6 76-55 50-171 17-259-27-70-49-159-18-220 12-24 10-52-6-73-272-328-621-598-1006-778-28-13-61-4-79 20-11 14-35 29-42 43-34 72 46 169 79 226 46 81 94 162 143 241 99 159 204 314 315 465 79 108 162 214 248 318z"/><path fill="#82D1E2" d="M12951 16570c47 76 93 151 134 229 13 26 20 66 43 83 29 20 70 17 103 24 39 9 73 27 107 48 57 36 130 96 201 59 80-42 60-163 24-246-25-58-50-128-40-186 5-32-1-65-22-90-237-290-453-598-643-920-42-71-83-143-123-215-20-37-29-63-69-79-37-14-77-18-116-10-20 4-41 11-57 24-36 30-25 64-17 104 9 45 19 90 30 134 22 90 47 178 76 265 58 175 129 345 214 508 30 57 61 113 94 168 20 34 40 67 61 100zM14197 15327c19 16 45 21 69 15 42-9 88-11 129-5 103 14 218 46 306-10 99-64 108-214 50-316-59-101-164-165-268-221-217-118-444-220-677-304-414-150-847-247-1286-287-14-1-32-3-54-6-84-9-124 99-55 148 97 69 188 148 271 235 54 58 117 131 157 219 13 28 40 46 71 48 463 27 920 200 1287 484z"/><path fill="#82D1E2" d="M12209 15117c-55-38-124 23-93 82 212 404 311 868 272 1323-11 136-34 271-38 407s13 277 77 397 181 218 316 233c136 15 283-68 317-200 22-84-1-171 1-257 1-35 8-71 23-103 6-15 6-32 0-47-46-121-118-236-187-348-21-34-42-68-62-101-226-379-381-809-448-1246-3-20-16-37-33-47-51-27-98-60-145-93z"/><path fill="#C6E8E8" d="M11557 14432c17 58 52 109 95 151 59 57 115 115 167 177 9 10 19 19 29 27l398 278c74 52 151 106 237 133 92 28 183 18 244-27 74-54 107-168 81-276-28-113-107-206-172-275-187-197-419-351-674-447-20-7-43-11-65-9-219 15-395 80-340 268z"/><path fill="#05B5CD" d="M14415 15723c-35-35-61-80-65-129-3-48 20-101 64-122 52-25 113-5 166 16 73 29 149 60 201 120 52 59 70 156 19 216-33 39-90 55-141 46-79-13-188-91-244-147zM14357 16118c48 52 60 141 12 193-25 28-64 41-101 42-38 1-75-10-109-25-45-19-88-48-115-89-28-42-36-97-13-141 58-110 261-50 326 20zM14533 16119c-38 25-92 17-124-15-27-28-36-73-20-109 15-36 55-60 93-56 83 9 124 132 51 180zM13938 16830c-35 37-95 40-142 20-67-27-230-174-145-251 68-61 208-6 264 46 49 46 76 130 23 185zM13458 17272c-16 67-86 116-155 110-41-4-79-26-107-57-27-31-44-70-51-111-6-34-6-70 6-101 13-32 38-60 71-70 112-33 263 120 236 229zM14944 15477c-5 33-35 60-68 67-34 6-69-5-96-26-21-16-39-40-42-67-4-37 20-75 56-86 53-16 160 51 150 112zM14791 16084c-19 40-76 57-114 34s-49-81-22-117c56-72 175 0 136 83zM14288 16571c-10 46-54 84-102 83-29 0-58-13-80-33-30-27-49-68-45-109 3-41 31-80 70-93 80-27 174 74 157 152zM14160 16836c-12 32-48 53-82 47-43-6-72-52-69-96 2-30 18-60 46-71 60-26 125 67 105 120zM13801 16978c11 39 5 85-23 115-29 29-81 36-112 9-104-94 86-287 135-124zM14988 15304c-27 18-65 8-87-15-23-22-32-55-36-86-4-29-2-61 19-80 75-66 187 127 104 181zM13171 17619c-45 19-104-6-122-52-17-46 10-104 56-120 108-38 174 128 66 172zM14509 16195c-36 15-55 61-41 97 14 37 59 57 96 44 95-33 39-180-55-141z"/></g><g><path fill="#312F2D" d="M12725 9956c2-80-61-146-141-149-79-2-146 61-148 141-2 64 38 118 95 139-152 1449-1433 2505-1446 2516-17 14-19 38-6 54 8 10 19 14 30 14 9 0 17-2 24-8 14-11 1320-1088 1475-2570 65-12 115-68 117-137zM9133 9956c-2-80 61-146 140-149 80-2 147 61 149 141 2 64-39 118-95 139 151 1449 1432 2505 1446 2516 16 14 19 38 5 54-7 10-18 14-30 14-8 0-17-2-24-8-13-11-1320-1088-1474-2570-65-12-115-68-117-137z"/><path fill="#312F2D" d="M11356 12814c0-165-191-299-427-299s-427 134-427 299c0 166 191 299 427 299s427-133 427-299zM11217 15825v24c-1 92-2 183-4 271-3 101-7 199-12 294-6 94-12 184-20 270-9 105-20 203-33 294-52 384-131 628-219 628s-167-244-220-628c-12-91-23-189-33-294-7-86-14-176-19-270-5-95-10-193-12-294-3-88-4-179-4-271v-24c0-92 1-182 3-269 2-93 6-183 10-270 6-103 12-201 20-294 14-161 32-308 52-434 53-318 124-514 203-514s150 196 202 514c21 126 38 273 52 434 8 93 15 191 20 294 5 87 8 177 10 270 3 87 4 177 4 269z"/><path fill="#4D4B49" d="M11562 13791c0 447-284 809-633 809-350 0-633-362-633-809 0-448 283-810 633-810 349 0 633 362 633 810zM11203 15286h-549c6-103 12-201 20-294h509c8 93 15 191 20 294zM11217 15825v24h-576v-24c0-92 1-182 3-269h569c3 87 4 177 4 269zM11213 16120c-3 101-7 199-12 294h-544c-5-95-10-193-12-294h568zM11181 16684c-9 105-20 203-33 294h-439c-12-91-23-189-33-294h505z"/><path fill="#4D4B49" fill-opacity=".302" d="M10908 12516v5085c-79-34-150-269-199-623-12-91-23-189-33-294-7-86-14-176-19-270-5-95-10-193-12-294-3-88-4-179-4-271v-24c0-92 1-182 3-269 2-93 6-183 10-270 6-103 12-201 20-294 14-161 32-308 52-434v-1c-250-108-430-410-430-766 0-330 154-612 374-739-102-55-168-140-168-238 0-160 180-291 406-298z"/></g></g></svg>