<svg xmlns="http://www.w3.org/2000/svg" width="210mm" height="297mm" shape-rendering="geometricPrecision" text-rendering="geometricPrecision" image-rendering="optimizeQuality" fill-rule="evenodd" clip-rule="evenodd" viewBox="0 0 21000 29700"><defs><linearGradient id="a" gradientUnits="userSpaceOnUse" x1="8346.55" y1="10499.3" x2="7260.37" y2="10333.7"><stop offset="0" stop-color="#2F2E33"/><stop offset="1" stop-color="#373849"/></linearGradient><radialGradient id="b" gradientUnits="userSpaceOnUse" gradientTransform="matrix(.54582 .46577 -1.65607 .94493 18467 -3149)" cx="7825.54" cy="9005.02" r="214.71" fx="7825.54" fy="9005.02"><stop offset="0" stop-color="#909EBD"/><stop offset="1" stop-color="#7B82B1"/></radialGradient><radialGradient id="c" gradientUnits="userSpaceOnUse" gradientTransform="matrix(1.15649 .53213 -1.25426 1.80742 10433 -11890)" cx="8175.01" cy="9337.62" r="196.02" fx="8175.01" fy="9337.62"><stop offset="0" stop-color="#DFE2EA"/><stop offset="1" stop-color="#7B82B1"/></radialGradient><radialGradient id="d" gradientUnits="userSpaceOnUse" gradientTransform="matrix(.47637 .53517 -2.13331 1.19527 25116 -6572)" cx="8769.6" cy="9620.54" r="212.59" fx="8769.6" fy="9620.54"><stop offset="0" stop-color="#909EBD"/><stop offset="1" stop-color="#373849"/></radialGradient><linearGradient id="e" gradientUnits="userSpaceOnUse" x1="6670.71" y1="10778.1" x2="7981.92" y2="10779.8"><stop offset="0" stop-color="#B5BED3"/><stop offset="1" stop-color="#373849"/></linearGradient><radialGradient id="f" gradientUnits="userSpaceOnUse" gradientTransform="matrix(1.70381 -.86529 .70042 .84972 -12323 8859)" cx="8700.68" cy="8850.95" r="181.77" fx="8700.68" fy="8850.95"><stop offset="0" stop-color="#909EBD"/><stop offset="1" stop-color="#4B5076"/></radialGradient><linearGradient id="g" gradientUnits="userSpaceOnUse" x1="8235.38" y1="11280" x2="8947.36" y2="11566"><stop offset="0" stop-color="#909EBD"/><stop offset="1" stop-color="#373849"/></linearGradient><linearGradient id="h" gradientUnits="userSpaceOnUse" x1="10194.2" y1="10303.4" x2="9923.77" y2="10321.6"><stop offset="0" stop-color="#55597A"/><stop offset="1" stop-color="#373849"/></linearGradient><linearGradient id="i" gradientUnits="userSpaceOnUse" x1="9976.5" y1="11441.7" x2="9255.19" y2="11321"><stop offset="0" stop-color="#373849"/><stop offset="1" stop-color="#2F2E33"/></linearGradient><linearGradient id="j" gradientUnits="userSpaceOnUse" x1="9497.87" y1="11698.2" x2="10103.9" y2="12530.9"><stop offset="0" stop-color="#34323B"/><stop offset="1" stop-color="#44435C"/></linearGradient><linearGradient id="k" gradientUnits="userSpaceOnUse" x1="7491.67" y1="11548.5" x2="7284.3" y2="11772.4"><stop offset="0" stop-color="#CFD3DE"/><stop offset="1" stop-color="#5A627D"/></linearGradient><linearGradient id="l" gradientUnits="userSpaceOnUse" x1="7141.18" y1="9634.07" x2="7179.16" y2="9855.82"><stop offset="0" stop-color="#DFE2EA"/><stop offset="1" stop-color="#828CB5"/></linearGradient><linearGradient id="m" gradientUnits="userSpaceOnUse" x1="9967.37" y1="12811" x2="9436.12" y2="11556.4"><stop offset="0" stop-color="#55597A"/><stop offset="1" stop-color="#373849"/></linearGradient><linearGradient id="n" gradientUnits="userSpaceOnUse" x1="7632.08" y1="9178.66" x2="7875.18" y2="9148.11"><stop offset="0" stop-color="#DFE2EA"/><stop offset="1" stop-color="#828CB5"/></linearGradient><linearGradient id="o" gradientUnits="userSpaceOnUse" x1="8695.28" y1="9782.14" x2="9114.69" y2="9564.22"><stop offset="0" stop-color="#DFE2EA"/><stop offset="1" stop-color="#51556E"/></linearGradient><linearGradient id="p" gradientUnits="userSpaceOnUse" x1="8681.64" y1="10536.1" x2="9094.81" y2="10542.5"><stop offset="0" stop-color="#DFE2EA"/><stop offset="1" stop-color="#575C77"/></linearGradient><linearGradient id="q" gradientUnits="userSpaceOnUse" x1="8617.87" y1="11394.2" x2="8800.11" y2="11406"><stop offset="0" stop-color="#DFE2EA"/><stop offset="1" stop-color="#42445A"/></linearGradient><linearGradient id="r" gradientUnits="userSpaceOnUse" x1="8608.6" y1="11385.7" x2="8802.09" y2="11425.5"><stop offset="0" stop-color="#DFE2EA"/><stop offset="1" stop-color="#42445A"/></linearGradient><linearGradient id="s" gradientUnits="userSpaceOnUse" x1="10806" y1="10617.2" x2="10546.6" y2="10607.2"><stop offset="0" stop-color="#484C69"/><stop offset="1" stop-color="#34333E"/></linearGradient><linearGradient id="t" gradientUnits="userSpaceOnUse" x1="9699.4" y1="12396.3" x2="9517.04" y2="11987.6"><stop offset="0" stop-color="#55597A"/><stop offset="1" stop-color="#34333E"/></linearGradient><linearGradient id="u" gradientUnits="userSpaceOnUse" x1="8453.18" y1="12471.5" x2="8275.71" y2="13041.9"><stop offset="0" stop-color="#313036"/><stop offset="1" stop-color="#55597A"/></linearGradient><linearGradient id="v" gradientUnits="userSpaceOnUse" x1="14207.6" y1="10283.4" x2="13922.1" y2="11202.2"><stop offset="0" stop-color="#B8C52C"/><stop offset="1" stop-color="#417738"/></linearGradient><linearGradient id="w" gradientUnits="userSpaceOnUse" x1="15994.7" y1="10650.6" x2="15067.5" y2="11190.9"><stop offset="0" stop-color="#B8C52C"/><stop offset="1" stop-color="#568639"/></linearGradient><linearGradient id="x" gradientUnits="userSpaceOnUse" x1="10679.5" y1="11672.2" x2="11305.7" y2="12152.5"><stop offset="0" stop-color="#4E547F"/><stop offset="1" stop-color="#373849"/></linearGradient><linearGradient id="y" gradientUnits="userSpaceOnUse" x1="36637.4" y1="-11358.3" x2="34748.8" y2="-10163.5"><stop offset="0" stop-color="#909EBD"/><stop offset="1" stop-color="#687694"/></linearGradient><linearGradient id="z" gradientUnits="userSpaceOnUse" x1="52070.4" y1="-23903.1" x2="48904.4" y2="-22111.9"><stop offset="0" stop-color="#909EBD"/><stop offset="1" stop-color="#687694"/></linearGradient><linearGradient id="A" gradientUnits="userSpaceOnUse" x1="14852.6" y1="12903.3" x2="14602.4" y2="13272"><stop offset="0" stop-color="#909EBD"/><stop offset="1" stop-color="#373849"/></linearGradient><linearGradient id="B" gradientUnits="userSpaceOnUse" x1="36940.4" y1="-11968.2" x2="35042.5" y2="-10612.1"><stop offset="0" stop-color="#909EBD"/><stop offset="1" stop-color="#687694"/></linearGradient><linearGradient id="C" gradientUnits="userSpaceOnUse" x1="52807.4" y1="-15937.8" x2="50082.7" y2="-13863.9"><stop offset="0" stop-color="#909EBD"/><stop offset="1" stop-color="#687694"/></linearGradient><linearGradient id="D" gradientUnits="userSpaceOnUse" x1="40106.2" y1="-12815.6" x2="38378.7" y2="-10937.7"><stop offset="0" stop-color="#909EBD"/><stop offset="1" stop-color="#687694"/></linearGradient><linearGradient id="E" gradientUnits="userSpaceOnUse" x1="13848.8" y1="13146.8" x2="13505.8" y2="13584.3"><stop offset="0" stop-color="#909EBD"/><stop offset="1" stop-color="#373849"/></linearGradient><linearGradient id="F" gradientUnits="userSpaceOnUse" x1="54053.1" y1="-24588.9" x2="51268.2" y2="-21882"><stop offset="0" stop-color="#909EBD"/><stop offset="1" stop-color="#687694"/></linearGradient><linearGradient id="G" gradientUnits="userSpaceOnUse" x1="54554.3" y1="-20687.8" x2="52094.8" y2="-17931.3"><stop offset="0" stop-color="#909EBD"/><stop offset="1" stop-color="#687694"/></linearGradient><linearGradient id="H" gradientUnits="userSpaceOnUse" x1="52305.6" y1="-14776.5" x2="49707.4" y2="-12669.7"><stop offset="0" stop-color="#909EBD"/><stop offset="1" stop-color="#687694"/></linearGradient><linearGradient id="I" gradientUnits="userSpaceOnUse" x1="13023.2" y1="12700" x2="12798.6" y2="12967.2"><stop offset="0" stop-color="#909EBD"/><stop offset="1" stop-color="#373849"/></linearGradient><linearGradient id="J" gradientUnits="userSpaceOnUse" x1="11822.1" y1="10622.8" x2="12133.7" y2="10897.6"><stop offset="0" stop-color="#BBC2D6"/><stop offset=".149" stop-color="#8390AE"/><stop offset="1" stop-color="#3E4059"/></linearGradient><linearGradient id="K" gradientUnits="userSpaceOnUse" x1="52966" y1="-20045" x2="51486.9" y2="-17118.9"><stop offset="0" stop-color="#909EBD"/><stop offset="1" stop-color="#687694"/></linearGradient><linearGradient id="L" gradientUnits="userSpaceOnUse" x1="53064.6" y1="-25608" x2="51859" y2="-22276.5"><stop offset="0" stop-color="#909EBD"/><stop offset="1" stop-color="#687694"/></linearGradient><linearGradient id="M" gradientUnits="userSpaceOnUse" x1="52155.3" y1="-27092.4" x2="49313.3" y2="-24403.7"><stop offset="0" stop-color="#909EBD"/><stop offset="1" stop-color="#687694"/></linearGradient><linearGradient id="N" gradientUnits="userSpaceOnUse" x1="53786.7" y1="-24870.9" x2="52298.2" y2="-21579.5"><stop offset="0" stop-color="#909EBD"/><stop offset="1" stop-color="#687694"/></linearGradient><linearGradient id="O" gradientUnits="userSpaceOnUse" x1="55201" y1="-20236" x2="53289.4" y2="-17235.1"><stop offset="0" stop-color="#909EBD"/><stop offset="1" stop-color="#687694"/></linearGradient><linearGradient id="P" gradientUnits="userSpaceOnUse" x1="11993" y1="13040.5" x2="11758.1" y2="13317"><stop offset="0" stop-color="#909EBD"/><stop offset="1" stop-color="#373849"/></linearGradient><linearGradient id="Q" gradientUnits="userSpaceOnUse" x1="10941.8" y1="11524.5" x2="11282.4" y2="11799.9"><stop offset="0" stop-color="#BBC2D6"/><stop offset=".149" stop-color="#8390AE"/><stop offset="1" stop-color="#3E4059"/></linearGradient><linearGradient id="R" gradientUnits="userSpaceOnUse" x1="12803.3" y1="15249" x2="12986.1" y2="15606.4"><stop offset="0" stop-color="#909EBD"/><stop offset="1" stop-color="#373849"/></linearGradient><linearGradient id="S" gradientUnits="userSpaceOnUse" x1="47400.8" y1="-21249.1" x2="45261.7" y2="-18637.4"><stop offset="0" stop-color="#909EBD"/><stop offset="1" stop-color="#687694"/></linearGradient><linearGradient id="T" gradientUnits="userSpaceOnUse" x1="11964.7" y1="14731.5" x2="11933.8" y2="15067.3"><stop offset="0" stop-color="#909EBD"/><stop offset="1" stop-color="#373849"/></linearGradient><linearGradient id="U" gradientUnits="userSpaceOnUse" x1="12128.6" y1="15248.2" x2="12087.6" y2="15589.9"><stop offset="0" stop-color="#909EBD"/><stop offset="1" stop-color="#373849"/></linearGradient><linearGradient id="V" gradientUnits="userSpaceOnUse" x1="11528.1" y1="13960.4" x2="11272.5" y2="14336.8"><stop offset="0" stop-color="#909EBD"/><stop offset="1" stop-color="#373849"/></linearGradient><linearGradient id="W" gradientUnits="userSpaceOnUse" x1="11120.9" y1="13099.7" x2="11118" y2="13392.2"><stop offset="0" stop-color="#C0C8D3"/><stop offset="1" stop-color="#4E536A"/></linearGradient><linearGradient id="X" gradientUnits="userSpaceOnUse" x1="10417.8" y1="11991.6" x2="10691.2" y2="12234"><stop offset="0" stop-color="#BBC2D6"/><stop offset=".149" stop-color="#8390AE"/><stop offset="1" stop-color="#3E4059"/></linearGradient><linearGradient id="Y" gradientUnits="userSpaceOnUse" x1="11187.9" y1="-48952.6" x2="11162" y2="-44769.1"><stop offset="0" stop-color="#909EBD"/><stop offset="1" stop-color="#687694"/></linearGradient><linearGradient id="Z" gradientUnits="userSpaceOnUse" x1="55190.3" y1="-29448.3" x2="51659" y2="-27507.7"><stop offset="0" stop-color="#909EBD"/><stop offset="1" stop-color="#687694"/></linearGradient><linearGradient id="aa" gradientUnits="userSpaceOnUse" x1="53539.2" y1="-28868.2" x2="50107.6" y2="-27724.6"><stop offset="0" stop-color="#909EBD"/><stop offset="1" stop-color="#687694"/></linearGradient><linearGradient id="ab" gradientUnits="userSpaceOnUse" x1="54606.8" y1="-28587" x2="51328.9" y2="-26148.4"><stop offset="0" stop-color="#909EBD"/><stop offset="1" stop-color="#687694"/></linearGradient><linearGradient id="ac" gradientUnits="userSpaceOnUse" x1="12994.4" y1="11920.7" x2="12965.1" y2="12171.3"><stop offset="0" stop-color="#DFE2EA"/><stop offset="1" stop-color="#687694"/></linearGradient><linearGradient id="ad" gradientUnits="userSpaceOnUse" x1="12058.1" y1="11957.1" x2="12273.7" y2="12350.7"><stop offset="0" stop-color="#DFE2EA"/><stop offset="1" stop-color="#687694"/></linearGradient><linearGradient id="ae" gradientUnits="userSpaceOnUse" x1="13700.7" y1="13351.9" x2="13843.3" y2="13565.1"><stop offset="0" stop-color="#C9D0DA"/><stop offset="1" stop-color="#7689A3"/></linearGradient><linearGradient id="af" gradientUnits="userSpaceOnUse" x1="11357.4" y1="13935.3" x2="11307.8" y2="14042.2"><stop offset="0" stop-color="#C0C8D3"/><stop offset="1" stop-color="#4E536A"/></linearGradient><linearGradient id="ag" gradientUnits="userSpaceOnUse" x1="11936.5" y1="12995.9" x2="11871.8" y2="13237.8"><stop offset="0" stop-color="#C9D0DA"/><stop offset="1" stop-color="#4C5169"/></linearGradient><linearGradient id="ah" gradientUnits="userSpaceOnUse" x1="11122.2" y1="12120.3" x2="11250.8" y2="12569.7"><stop offset="0" stop-color="#DFE2EA"/><stop offset="1" stop-color="#687694"/></linearGradient><linearGradient id="ai" gradientUnits="userSpaceOnUse" x1="12476.1" y1="13765.2" x2="12377.7" y2="14008.2"><stop offset="0" stop-color="#C9D0DA"/><stop offset="1" stop-color="#687694"/></linearGradient><linearGradient id="aj" gradientUnits="userSpaceOnUse" x1="12093.1" y1="11318.6" x2="12060.5" y2="11492.4"><stop offset="0" stop-color="#C9D0DA"/><stop offset="1" stop-color="#4C5169"/></linearGradient><linearGradient id="ak" gradientUnits="userSpaceOnUse" x1="14243" y1="10909.5" x2="14395.7" y2="11327.4"><stop offset="0" stop-color="#C0C8D3"/><stop offset="1" stop-color="#4E536A"/></linearGradient><linearGradient id="al" gradientUnits="userSpaceOnUse" x1="14054.8" y1="12156.6" x2="14023.2" y2="12348.5"><stop offset="0" stop-color="#DFE2EA"/><stop offset="1" stop-color="#687694"/></linearGradient><linearGradient id="am" gradientUnits="userSpaceOnUse" x1="14694.7" y1="13646.2" x2="14895.3" y2="14136.3"><stop offset="0" stop-color="#909EBD"/><stop offset="1" stop-color="#373849"/></linearGradient><linearGradient id="an" gradientUnits="userSpaceOnUse" x1="11189.9" y1="10691.1" x2="11401.6" y2="10887.6"><stop offset="0" stop-color="#BBC2D6"/><stop offset=".149" stop-color="#8390AE"/><stop offset="1" stop-color="#3E4059"/></linearGradient></defs><path fill="#373849" fill-rule="nonzero" d="M7434 12866c146 169 424 346 721 284 312 93 681 222 997-20 180 33 377 4 553-105 334 63 598-11 713-342 175-62 315-117 332-364 158-135 247-266 283-523 135-175 191-430 135-639 39-241 60-382-81-571 36-196-20-466-446-660 45-169-422-581-552-591-48-280-348-429-674-543-270-193-595-123-884 42-257-366-1351 69-981 688-325-197-772 181-726 588-142 7-442 526-170 812-196 112-213 425-136 570-57 363-16 741 362 827 96 246 265 498 554 547z"/><path fill="url(#a)" d="M7995 9646c-32 318 52 517 322 597 51-104 40-189 45-290 67-128 142-227 213-327 92-80 156-155 236-223-22 238-192 400-344 530-37 99-62 291-64 326 38 71 76 79 141 106-98 307-65 567 130 769-42 100-127 159-173 285-254-4-459 111-576 308-8-251-261-249-436-231 155-278-136-323-362-366 268-98 69-207-87-205 392-68 660-159 255-448 241-116 442-101 504-342 60 11 120 23 180 34-47-164-102-235-237-352 91-9 154 39 218 80 8-102 27-202 35-251z"/><path fill="#34333D" fill-rule="nonzero" d="M10399 9541c71 123 148 255 86 336 698 276 448 538-169 117-7 225-32 354-244 371 616 80 347 622 53 873 278 549-106 833-649 672-120 204-328 348-646 236 41 231-70 338-214 406-44 113-214 99-394 65-337 348-856 11-795-378 10-92 50-149 94-211-10-39-48-22-71-33-163 164-364 239-507 272-383-125 186-582 316-725-171 83-668 343-742 69-7 17-12 33-17 50-18 304 61 586 380 658 96 246 265 498 554 547 146 169 424 346 721 284 312 93 680 222 997-20 180 33 377 4 553-105 334 63 598-11 713-342 175-62 315-117 332-364 158-135 247-266 283-523 135-175 191-430 135-639 39-240 60-382-81-572 36-196-20-465-446-659 24-91-101-253-242-385z"/><path fill="url(#b)" d="M7936 9440c136-275 253-413 509-519 21-477-957-14-947 243-50 104 202 481 438 276z"/><path fill="url(#c)" d="M7992 9716c77-250 169-556 400-706 97-24 284-80 310 7-83-3-142 53-184 69 11 60 66 40 99 60 89-68 146-45 246-26-130 128-260 164-377 293-128 209-259 427-494 303z"/><path fill="url(#d)" d="M8515 9949c104-393 484-659 878-542 28 31 44 71 66 106 6 173-142 253-234 383-197 176-555 302-710 53z"/><path fill="url(#e)" d="M7642 11484c-75-13-184 20-311 69-207 96-385 247-432 381-38 253 246 223 461 37 118-129 264-147 389-290 9-129-32-185-107-197zm-391-279c-19-5-40-6-66-4-274-20-408 55-616 258-150 316 342 330 469 88 109-70 267-106 327-243-32-44-59-85-114-99zm-388-237c-79-11-173 25-204 46-111 108-100 176-91 297 127-96 233-162 414-197-6-98-58-137-119-146zm-15-822c-162 1-201 117-227 271-43 169-58 285 91 371-18-109 3-177 82-279 45-125 70-176 217-234-48-32-119-79-163-129zm633-634c-11-2-24-3-39-4-51 4-249 17-346 133-201 94-429 515 9 449 121-254 188-266 452-342 7-37-2-90 23-131-23-54-20-92-99-105z"/><path fill="url(#f)" d="M8547 8852c232-123 536-256 766-105 43 28 25 23 42 39-46 100-127 139-225 186-77 129-146 98-229 82-86-149-183-170-354-202z"/><path fill="url(#g)" d="M7813 11765c-167 98-240 272-284 446 2 56-4 113-1 169 122-105 252-119 373-131-78-162-97-313-88-484zm601-304c-102-20-142 23-222 68-217 122-212 242-243 453 35 179 57 248 169 329 48-148 99-247 190-325 69-117 199-140 308-165-171-79-199-174-155-348-17-5-33-9-47-12zm316-330c-135 170-147 200-142 387 65 131 122 218 249 270 230-129 234-319 247-548-125-49-230-85-354-109zm629-879c-290-55-487 23-781 150-66 187-78 377 116 457 226 19 409-58 606-172 57-120 127-287 59-435z"/><path fill="url(#h)" d="M10141 10349c-79-18-176-15-289 18 330 174 401 398 222 791 444-5 497-713 67-809zm-213-765c-85-14-184-17-298-8l-53 3c257 48 566 168 604 462 41 95 66 207 87 314 113-441 25-711-340-771z"/><path fill="url(#i)" d="M7479 12515c-63 41-133 122-305 33 86 138 146 318 289 80 5 18-82 116 82 132 133 25 193-32 324-4-163-48-292-84-390-241zm1257 30c-167 101-309 188-512 85-67 48-107 76-177 134 102 118 201 220 401 50 37-1 174 9 238-72 16-65 33-131 50-197zm725-560c-166 157-386 350-623 166 44 163-36 242-83 424l49 9c133-2 226-50 379-71 44-79 18-134 146-166 101-110 128-203 132-362zm155-2391c-58 222-135 462-337 611 188 53 279 178 337 312 20 423-119 541-403 678 248 148 329 463 277 658 107-101 176-219 223-365 86-73 166-87 265-178-67-19-144-43-213-60 115 11 212 0 304-102-51-30-95-22-128-83-180-129-140-264-32-453-70 1-107-5-180 6 69-45 91-22 103-130-26-60-49-126-77-203 17-66 38-124 68-186-40-48-92-133-177-162-4-108-7-228-30-343z"/><path fill="url(#j)" d="M8982 12875c-167 235-506 331-758 101-46 39-117 76-175 125-177 2-328-103-523-142 169 90 360 196 598 185 358 67 850 260 1055-31-147 52-206 111-374 59 113-73 154-145 177-297zm817-105c-19-3-38-4-56-10-123 231-337 240-506 350 331 30 457-101 612-316-14-15-31-21-50-24zm569-848c32 176-124 464-392 437-39 66-97 124-115 222-1 23-33 49-4 71l14 3 183-18c403-27 552-703 314-715zm604-746c99 284 60 561-299 530 58 63 117 76 204 92 36 168-17 412-141 549 168-109 268-345 289-575 91-100 331-503-53-596zm-265-277c135 313-140 582-380 873 275 173 755-417 380-873zm308-269c198 175 12 381-73 453 69 56 161 44 227 43 77-225 40-393-154-496zm-31-429c34 131 2 210-101 288-6-107-54-219-176-307 126 105 101 218 75 383-33 197-63 203-217 252 130-14 143-29 242-52 45-64 81-163 77-267 78 19 136 83 201 113 91-187 2-290-101-410z"/><path fill="url(#k)" d="M7019 11850c177-265 287-302 555-322 41 6 287 28 177 135-550 535-602 276-732 187z"/><path fill="#DFE2EA" fill-rule="nonzero" d="M8590 8988c-349 46-455 214-499 486 50-13 125-88 162-114 73-5 117-51 165-78 22-169 65-215 172-294z"/><path fill="url(#l)" d="M7481 9507c-326-16-528 206-608 427-124 135 36 70 48 94 46 50 76-21 104-29 638-315 558-420 456-492z"/><path fill="#34323B" fill-rule="nonzero" d="M7490 12420c209 168 443 4 545-55 299 71 461-145 589-360 27-34 49-65 72-95 351 81 544-311 562-632 384 324-119 1165-514 822 162 415-261 544-609 441-207 247-610 143-645-121z"/><path fill="#454767" fill-rule="nonzero" d="M10058 9462c-415-152-556-379-831-262 104-114 165-108 275-117 320-37 444 225 556 379z"/><path fill="url(#m)" d="M10807 10019c101 147 187 246 149 507 77 31 90-4 107 124 145 127 48 320-84 458 105 168 182 563-117 637 29 172 32 452-162 582-50-33-54-69-129-82 8 182-62 436-326 504-180 131-310 257-522 145-169 237-378 252-616 103-234 258-566 255-882 19-230 53-523 36-670-138 35-29 78-86 134-113-239 55-576-1-655-239 110 9 178 22 282-63-212-39-373-105-484-229-101-54-254-125-288-274-4 12-7 23-11 35 48 158 152 280 347 324 96 246 265 498 554 547 146 169 424 346 721 284 312 93 681 222 997-21 180 34 377 5 553-104 334 63 598-11 713-342 175-62 315-117 332-364 158-135 247-266 283-523 135-175 191-430 135-639 39-241 60-382-81-571 31-167-8-386-280-567z"/><path fill="#4B5075" fill-rule="nonzero" d="M9514 8829c319 74 479 249 628 487 276 124 480 292 488 511 201 162 341 196 329 413-264-62-444-199-546-287-115-167 83-82 113-112-54-220-153-250-350-267-132-67-87-167-90-235-56-268-470-359-649-340-100-84 64-140 77-170z"/><path fill="#2F2E33" fill-rule="nonzero" d="M9602 9777c44 115-84 340-93 359 53 79 90 147 125 228 134-33 265-26 398-1-180-10-219 8-286 151-38 287-101 528-268 746 142 114 141 310 59 484-90 212 11 245 128 293-63 26-146 26-200 27-160 293-526 265-670 347 72-125 57-213 43-293 573 359 662-348 567-700-45-97-108-142-180-217 264-166 383-406 431-715-116-102-192-227-342-301 207-56 221-226 288-408z"/><path fill="#2F2E33" fill-rule="nonzero" d="M10296 11166c59 96-17 188-26 286-189-195-453-420-750-93-103-33-110-128-149-173 131 35 191-40 269-59 198 98 448 71 656 39z"/><path fill="#DFE2EA" fill-rule="nonzero" d="M8080 8900c-14 13-30 27-45 40 15-11 30-23 45-40z"/><path fill="url(#n)" d="M8094 8987c-88 62 343-412-364-80-77 46-185 221-189 226-82 188 190 367 337 260 95-135 101-304 216-406z"/><path fill="url(#o)" d="M9104 9379c-150 52-387 206-460 286l-102 250c-34 174 222 86 270 58 63 44 394-317 427-333 37-85-106-214-135-261z"/><path fill="url(#p)" d="M9106 10257c-16-4-32-5-50 5-26 29-202-13-424 134-113 46-77 174-45 218 45 105 59 163 191 207 64-53 133-91 208-144 86-112 141-236 166-409-16-1-31-8-46-11z"/><path fill="url(#q)" d="M8711 11126c-22 61-130 188-130 261-12 45 38 103 46 148 26 59 53 104 123 154-18-83-10-154 54-231 3-47 21-102 14-154-38-27-99-98-107-178z"/><path fill="url(#r)" d="M8401 11519c-41-6-57 6-90 25-117 66-177 117-265 191-42 74-64 168-62 240 27 19 29 39 40 71 74-119 150-201 257-288 34-22 81-33 106-43-22-72-10-131 14-196z"/><path fill="#55597A" fill-rule="nonzero" d="M10102 11301c316 288 69 639-275 682 233-132 362-457 275-682z"/><path fill="url(#s)" d="M10707 10194c144 292-21 552-251 735 750 31 669-951 251-735z"/><path fill="url(#t)" d="M9559 12107c269 286-419 736-726 549-30 474-509 319-720 266 107 87 601 456 967 129 61-59 131-190 147-223 563-90 485-206 621-390 72-169-107-259-289-331zm1265-1002c12 200 11 311-199 572-130 84-215 104-398 98 462 321 133 786-268 879 407 57 696-312 564-760 169-80 498-374 301-789z"/><path fill="url(#u)" d="M8813 12707c-100 229-191 337-660 257-316 129-476 139-678-143 5-18-107-82-103-100 188 200 466 60 604 51 496 291 747 139 837-65z"/><path fill="#93AE2F" fill-rule="nonzero" d="M15998 9354c135 92 190 231 260 371-704 495-1446 987-2010 1673-120-99-198-192-319-282 621-963 1586-1458 2069-1762z"/><path fill="#B8C52C" fill-rule="nonzero" d="M15998 9438c68 60 162 172 216 243-993 604-1386 1039-1750 1284 153-588 725-1033 1534-1527z"/><path fill="#CCD467" fill-rule="nonzero" d="M16073 9535c69 60 1 10 55 82-1104 659-1474 1191-1664 1348 559-724 803-936 1609-1430z"/><path fill="url(#v)" d="M16661 11088c-457 54-844-531-1387-352-360 99-728 253-1050 497 401-488 104-1298 263-1948-204 410-960 636-1029 1157 12 64 15 126 4 184-11-65-11-126-4-184-47-260-248-558-393-783-433-356-1092-898-1659-983 992 565 1376 1112 1567 2240 651 49 1232 763 1843 1083 46-29 92-61 138-94 59 54 139 118 236 211 716-126 1037 202 1623 538-428-379-775-906-1337-1059 393-197 778-357 1185-507z"/><path fill="#729937" fill-rule="nonzero" d="M14424 9428c-225 402-139 1085-369 1448-87-68-443 14-549-571 79-346 628-693 918-877z"/><path fill="#B8C52C" fill-rule="nonzero" d="M15493 11602c-87-2-123 43-193 79 234 119 475 132 666 289 311 209 540 586 856 668-249-159-410-426-607-635-344-340-491-351-722-401z"/><path fill="url(#w)" d="M15574 10779c306-24 793 450 1060 316-260-68-506-155-715-311-455-147-936-32-1369 264 339-121 700-309 1024-269z"/><path fill="#647E35" fill-rule="nonzero" d="M14211 9585c-202 363-103 981-432 1238-109-25-185-155-255-241-107-233 146-590 687-997z"/><path fill="url(#x)" d="M15185 12600c288 369 533 932-96 1129 179 469-209 963-700 832 200 398-206 714-587 731-115 87-264 160-406 204-177 355-563 429-914 277-350 175-630 300-900-21-307 54-742 1-742-409-331 91-861-422-712-768-377-282-576-875-42-1133-166-262-202-453 13-653-39-141-17-294 139-372 47-506 181-535 528-714-8-166 112-319 268-407-197-394 212-843 649-771 317-159 563-181 744 162 311-640 1306-647 1344 144 520-476 1003 67 980 597 558 206 795 643 434 1172z"/><path fill="#2F2E33" fill-rule="nonzero" d="M12386 15247c-37-77-106-149-212-210-260 22-490-16-578-323 117-74 244-115 122-258-425 116-611-540-566-866-42-10-113-81-197-44-84 124-278 249-403 115-75 9-156 25-245-9-132 398-20 630 308 963-47 234-16 409 206 564 101 345 285 508 623 433-93-98-193-257-242-416-171-97-331-223-281-472 156 7 263 25 360 170 11 234 52 544 320 661 308 613 988 101 785-308zm942-932c74 151 80 300-73 432-328 221-349-5-600-148-52-209 127-387 218-569 226-17 263-34 363 135 36 50 68 100 92 150zm-48-1726c9 16 16 34 24 52 31 649-987 549-915-77 114-89 305-149 350-307 95-17 190-19 298 91 107 62 185 126 243 241zm753 504c113 207 41 546-145 756-217 55-218 117-388 1-9-49-216-25-297-283-31-98-72-175-63-250 26-212 260-233 379-378 274-67 437 13 514 154zm310-878c24 47 47 103 68 167 54 338-123 574-468 311-636-211 34-1194 400-478zm803-481c-81-145-289-235-486-277-178 201-409 308-609 54-21 64-25 140-109 197-169 152-394 319-600 71-173-184-493-385-395-678-204 10-554-151-287-431-58 21-149 23-216 125-41-80-83-138-145-201 87 173 26 276-122 412 185-93 304-5 385 179 172 271-10 462-279 622 64 82 135 166 162 280-20 483-646 761-942 333 89 92 226 144 396 149-245-260-310-662 134-779-403-80-729-527-154-766-138-6-202-40-271-171-92 275-406 529-600 159-96 482 496 230 596 642-151 222-394 347-682 277 164 67 282 140 481 87-26 148 0 271 66 362 34 104 92 223 150 329 117 9 221 9 341 26 121 240 377 392 452 661-130 82-342 99-534 136-186 9-372-243-386-442 7-159 160-598-153-481-53 27-109 49-153 88l114 227c-102 214-170 346 0 591 136 87 326 146 408 332-81 200 7 417 163 609 84-79 193-177 245-298-45-163-89-277-23-438 700-275 659 916-51 749 1 43-1 125-18 183 78 32 222 39 320 136-16 87-17 167-21 262 65 62 166 139 215 232-68 136-82 291-22 460 60 110 189 159 359-27-115-148-344-296-215-494 239-92 420 182 605 331 103-80 240-144 367-206-169-7-279-33-355-227 83-203 88-382 376-364 136 20 453-10 429-215-242-10-471-187-443-446 663-116 921 906 1064 178-205 10-375-144-464-293 189-120 339-61 551-57 66-50 167-127 276-127-2-43 5-71-5-119 225-113 373-303 78-411-111 125-193 188-324 75 256-129 202-788 556-334-75-148-149-281-233-420 20-111 78-201 114-319-78-53-129-97-128-210 73-129 71-236 22-323z"/><path fill="#363446" fill-rule="nonzero" d="M14598 11610c-443 394 436 1194 611 667 117-406-158-694-611-667z"/><path fill="#474963" fill-rule="nonzero" d="M10867 13155c-163-324-304-453-668-289-142 428 343 621 668 289zm838 709c-82-163-291-291-653-219-79 75-263 204-96 371 600 597 906 160 749-152zm-196-1354c-201-402-361-532-756-184 11 231 552 461 756 184zm1139 1207c-61-131-237-172-590 48-123 149-116 128-23 313 326 651 748-73 613-361zm-227-1684c-5-12-11-23-17-34-114-188-400-213-662 12 180 230 445 297 692 337 33-126 25-233-13-315zm-143-1215c-122-242-428-421-616-103 160 254 324 315 616 103zm235 420c-6-14-13-27-20-39-128-218-445-275-753-24 36 417 374 519 790 407 35-133 25-251-17-344zm733 1366c-107-228-393-351-683-160 1 351 314 586 701 514 42-126 30-251-18-354zm828 600c-118-223-455-362-730-165 168 334 301 509 645 602 148-139 156-303 85-437zm-571-2646c-238-461-925-180-844 286 242-56 552 66 885-183-11-38-25-72-41-103zm998 1967c-199-315-261-536-651-433-53 292 459 895 651 433zm-689-1440c-153-354-514-161-770 1 473 450 1124 977 798 77-8-28-18-54-28-78zm761-51c-79-182-255-263-543-140 32 368 264 605 582 555 20-160 8-306-39-415z"/><path fill="url(#y)" d="M14917 11949c-134-320-432 98-143 194-38 279 367 92 167-120-7-28-15-53-24-74z"/><path fill="url(#z)" d="M14321 11108c-15-29-31-57-46-86-69-108-162-66-228 15-17 138 98 182 149 316 50 86 104 55 192 21 23-93-20-180-67-266z"/><path fill="url(#A)" d="M14831 12811c-21-53-52-93-100-101 6 178-160 223-166 374-9 100 76 157 127 199 126-25 181-63 185-174-6-83-11-210-46-298z"/><path fill="url(#B)" d="M14324 12294c-253-506-709 20-217 220-45 436 527 231 265-105-15-43-31-82-48-115z"/><path fill="url(#C)" d="M13813 11349c-41-103-132-150-252-104-163-214-307-6-291 182 37 126 119 147 218 108 165 119 367 327 349-66-2-45-10-86-24-120z"/><path fill="url(#D)" d="M13259 10620c-22-54-76-90-139-90-442 1-203 620 139 204 15-42 13-82 0-114z"/><path fill="url(#E)" d="M13993 13495c18-376-280-525-480-499-385-43-469 379-27 526 69 164 68 258 234 213 121 75 267 18 272-110 25-43-1-82 1-130z"/><path fill="url(#F)" d="M13221 12025c-9-18-21-37-33-57-75-160-171-224-320-167-98 21-97 86-105 153 37 105 90 119 160 138 66 19 107 69 149 115 63 78 108 26 167-11 24-62 12-114-18-171z"/><path fill="url(#G)" d="M14162 14045c-77-167-242-168-358 2-22 117 40 139 120 185 119 65 210 5 265-106-7-30-16-57-27-81z"/><path fill="url(#H)" d="M14255 14627c-27-58-56-6-83-11-36 119-118 93-207 77-48 65-32 82-11 159 145 195 339-42 312-192-3-14-7-24-11-33z"/><path fill="url(#I)" d="M13280 12821c-40-158-480-572-708-254-197 259 3 387 232 428 196 285 429 84 476-174z"/><path fill="url(#J)" d="M12203 10681c-22-34-63-60-101-91-133-271-509-74-442 173 90 147 162 139 276 107 152 88 193 70 255-54 38-60 35-101 12-135z"/><path fill="url(#K)" d="M12298 11497c-43-76-85-68-142-65-81-164-233-54-326 19 22 159 124 169 247 184 137-13 228 27 221-138z"/><path fill="url(#L)" d="M13805 14864c-58-48-94-33-156-22-59-78-110-115-185-152-118 39-155 117-181 218 76 111 162 97 283 76 134 40 286 51 239-120z"/><path fill="url(#M)" d="M12344 12018c-34-63-84-104-165-125-106 44-185 90-229 178-39 127 48 205 142 283 181-61 283 42 301-196-13-56-28-102-49-140z"/><path fill="url(#N)" d="M13387 14265c-64-51-94-43-174-40-104-22-116-80-167-115-53-53-120-47-186-44-101 73-160 208-181 309 67 137 134 114 247 94 67 32 135 35 204 43 206 67 297-50 257-247z"/><path fill="url(#O)" d="M12669 13932c-64-112-168-123-230 0-181-176-312-272-421-6 37 91 92 146 153 196 15 95 52 91 113 116 73-53 117-31 188-22 177 57 216-92 221-229-7-21-15-39-24-55z"/><path fill="url(#P)" d="M12217 13163c-131-37-197-126-295-206-71-134-96-169-210-149-97 60-150 124-185 211 62 156 53 344 206 351 105-37 134 9 209 92 90 76 229-50 326-88-7-73-31-143-51-211z"/><path fill="url(#Q)" d="M11427 11716c-286-532-532-393-610-150 0 97 269 254 345 292 123-51 209-30 265-142z"/><path fill="url(#R)" d="M13087 15387c-9-3-17-7-26-11-28-42-62-80-90-125-22-25-44-45-67-61l-2-10c-96-56-137-49-229-3-3 8-3 16-4 24-23 27-41 62-53 107 58 126 113 210 180 255 2 17 4 33 9 57 65 26 96 6 159-26 69 4 119-23 182-54-26-50-39-101-59-153z"/><path fill="url(#S)" d="M11323 12468c-141-171-205-178-400-54-27 82-4 136 33 210 43-24 84 9 106 11 154 142 348 60 261-167z"/><path fill="url(#T)" d="M12272 14825c-38-63-93-72-169-97-148-241-324-165-487 8 23 94 96 94 185 98-69 68-50 66-46 141 80 85 147 77 254 36 114-100 196-26 294-102-9-35-19-63-31-84z"/><path fill="url(#U)" d="M12443 15270c-10-20-31-39-56-67-198-29-380 18-570 114-23 96 75 129 145 163 17 48 40 61 66 94 155-2 301-139 402-229 22-34 23-55 13-75z"/><path fill="url(#V)" d="M11762 14070c-34-61-86-112-136-129-97-231-242-198-432-155-65 86-112 196-116 294 105 132 184 129 316 123 43 39-2 71-3 101 12 107 56 96 134 105 58-36 117-45 178-62 124-46 115-176 59-277z"/><path fill="url(#W)" d="M11278 13205c-60-128-182-169-339-91-14 70-8 107-18 164 45 53 101 77 163 108 99 103 173 94 233-25-5-61-19-113-39-156z"/><path fill="url(#X)" d="M10682 11786c-60-41-266 105-286 151-74 54-74 269-96 335 17 68 189 14 224 52 125-30 236-190 262-268 2-39-101-241-104-270z"/><path fill="url(#Y)" d="M10577 12824c-78-31-161-49-232-46-29 59-38 125-46 182 82 95 125 129 250 172 79-4 147-51 216-79 23-100-49-122-113-194-24-13-49-25-75-35z"/><path fill="url(#Z)" d="M10839 13906c-44-82-110-87-197-80-53 82-92 164-108 254 32 86 89 135 152 178 55-15 93-54 131-84 33-86 12-146 40-228-6-15-12-28-18-40z"/><path fill="url(#aa)" d="M11201 14777c-25-38-94-74-122-98-61 26-107 70-152 113l120 239c15 79 55 146 95 225 37-10 70-41 98-59 28-121-8-297-39-420z"/><path fill="url(#ab)" d="M10163 13740c-37-84-101-93-171-87-47 56-58 85-79 149l65 130c52 14 67-17 113-29 47-42 55-98 72-163z"/><path fill="#C9D0DA" fill-rule="nonzero" d="M12659 12522c245-104 347 75 521 259-61 175-120 115-241 7-195-80-289-67-280-266z"/><path fill="url(#ac)" d="M13194 12116c2-331-244-476-423-222 83 147 328 173 423 222z"/><path fill="url(#ad)" d="M12361 11984c-223-208-325-90-487 36 123 175 328 368 438 341 69-18 100-123 49-377z"/><path fill="url(#ae)" d="M13324 13110c400-137 520 293 596 453-100 109-633-361-596-453z"/><path fill="url(#af)" d="M11056 13828c32 135 466 373 606 323 57-21-2-138-190-420-300-171-524-85-416 97z"/><path fill="url(#ag)" d="M12279 13252c-61-143-344-345-451-425-93-36-151 44-228 67-38 94-34 99-12 174 232 77 526 253 691 184z"/><path fill="url(#ah)" d="M11404 12221c-157-61-336-61-467-22 33 196 178 244 258 353 443 141 318-46 209-331z"/><path fill="#DFE2EA" fill-rule="nonzero" d="M13279 10553c-97-128-164 6-257 10 25 51 99 196 105 209 310-41 125-180 152-219z"/><path fill="#C9D0DA" fill-rule="nonzero" d="M12780 14156c-64 58 13 90 19 133 181 64 329 62 442 28-163-214-214-228-461-161z"/><path fill="url(#ai)" d="M12694 13955c-83-327-384-339-479-229-132 105-94 227 5 272 174 79 408 250 474-43z"/><path fill="#414360" fill-rule="nonzero" d="M15101 12927c263-32 291 224 254 431-84-50-153-26-223-37-124-191-208-256-31-394zM14973 11818c67 88 121 204 179 320 239-38 84-486-179-320zM14849 13611c295 150 242 332 224 558-330 51-315-446-224-558z"/><path fill="#C9D0DA" fill-rule="nonzero" d="M11220 14725c-238-60-268 47-227 133 51 108 213 183 227-133z"/><path fill="#34323B" fill-rule="nonzero" d="M10909 12076c-393 313-138 814 335 908-315 117-643-324-889-229 151-32 88-297-33-318 319-77 320-273 587-361zM10121 13426c203 269 380 234 587 72 17 208-267 335-382 538 94 169 179 357 269 537-414 77-595-127-733-487 596 315 324-294 259-660zM12376 12641c-51 441 418 732 766 512-401 597-1090-37-766-512zM13645 12167c-165 391 130 599 408 691 100 67 141 14 237 24-491 77-1136-117-645-715z"/><path fill="url(#aj)" d="M12399 11505c170-259-212-286-335-315-68-27-111 33-169 50-28 70-25 73-8 129 172 57 390 188 512 136z"/><path fill="url(#ak)" d="M14036 11007c157-359 537-110 569 216-239 18-412-15-569-216z"/><path fill="url(#al)" d="M14294 12153c-218-117-383-255-441 70 141 239 635 317 441-70z"/><path fill="url(#am)" d="M14855 13685c-60-126-118-209-271-132-33 128 41 244 103 366 121-6 133 45 116 142 226 144 233-55 116-240-24-47-44-94-64-136z"/><path fill="url(#an)" d="M11036 10981c86 463 689-200 542-384-257-47-478 133-542 384z"/></svg>