<svg xmlns="http://www.w3.org/2000/svg" width="210mm" height="297mm" shape-rendering="geometricPrecision" text-rendering="geometricPrecision" image-rendering="optimizeQuality" fill-rule="evenodd" clip-rule="evenodd" viewBox="0 0 21000 29700"><defs><linearGradient id="a" gradientUnits="userSpaceOnUse" x1="9181.48" y1="13291.2" x2="12241.4" y2="17837.4"><stop offset="0" stop-color="#F0857C"/><stop offset="1" stop-color="#EC6B5E"/></linearGradient><linearGradient id="b" gradientUnits="userSpaceOnUse" x1="9181.48" y1="13291.2" x2="12241.4" y2="17837.4"><stop offset="0" stop-color="#C5302A"/><stop offset="1" stop-color="#BD2A28"/></linearGradient><linearGradient id="c" gradientUnits="userSpaceOnUse" x1="4001.2" y1="13569.1" x2="16392.4" y2="13569.1"><stop offset="0" stop-color="#EB6159"/><stop offset="1" stop-color="#DE2427"/></linearGradient><linearGradient id="d" gradientUnits="userSpaceOnUse" x1="4001.31" y1="13569.1" x2="16392.4" y2="13569.1"><stop offset="0" stop-color="#EB6159"/><stop offset="1" stop-color="#DE2427"/></linearGradient><linearGradient id="e" gradientUnits="userSpaceOnUse" x1="4001.2" y1="13569.1" x2="16392.4" y2="13569.1"><stop offset="0" stop-color="#C92927"/><stop offset="1" stop-color="#B82828"/></linearGradient><linearGradient id="f" gradientUnits="userSpaceOnUse" x1="3917.21" y1="12291.8" x2="16248.2" y2="12291.8"><stop offset="0" stop-color="#EDEB8C"/><stop offset="1" stop-color="#FBC351"/></linearGradient><linearGradient id="g" gradientUnits="userSpaceOnUse" x1="3917.21" y1="12291.8" x2="16307" y2="12291.8"><stop offset="0" stop-color="#EDEB8C"/><stop offset="1" stop-color="#FBC351"/></linearGradient><linearGradient id="h" gradientUnits="userSpaceOnUse" x1="3917.21" y1="12291.8" x2="16308.5" y2="12291.8"><stop offset="0" stop-color="#C3512E"/><stop offset="1" stop-color="#C64027"/></linearGradient><linearGradient id="i" gradientUnits="userSpaceOnUse" x1="3917.21" y1="12291.8" x2="16308.4" y2="12291.8"><stop offset="0" stop-color="#C3512E"/><stop offset="1" stop-color="#C64027"/></linearGradient><linearGradient id="j" gradientUnits="userSpaceOnUse" x1="3917.21" y1="11412.4" x2="16308.5" y2="11412.4"><stop offset="0" stop-color="#EB6159"/><stop offset="1" stop-color="#DE2427"/></linearGradient><linearGradient id="k" gradientUnits="userSpaceOnUse" x1="3917.25" y1="11412.5" x2="16308.2" y2="11412.5"><stop offset="0" stop-color="#EB6159"/><stop offset="1" stop-color="#DE2427"/></linearGradient><linearGradient id="l" gradientUnits="userSpaceOnUse" x1="3918.32" y1="11412.4" x2="16308.4" y2="11412.4"><stop offset="0" stop-color="#C92927"/><stop offset="1" stop-color="#B82828"/></linearGradient><linearGradient id="m" gradientUnits="userSpaceOnUse" x1="4001.24" y1="13569.1" x2="16392.4" y2="13569.1"><stop offset="0" stop-color="#B92828"/><stop offset="1" stop-color="#A82827"/></linearGradient><linearGradient id="n" gradientUnits="userSpaceOnUse" x1="4068.35" y1="12291.8" x2="16204.4" y2="12291.8"><stop offset="0" stop-color="#E0E37B"/><stop offset="1" stop-color="#F7B43E"/></linearGradient><linearGradient id="o" gradientUnits="userSpaceOnUse" x1="3917.21" y1="12291.8" x2="16308.5" y2="12291.8"><stop offset="0" stop-color="#B44C2C"/><stop offset="1" stop-color="#B83C28"/></linearGradient><linearGradient id="p" gradientUnits="userSpaceOnUse" x1="4028.37" y1="11412.4" x2="15659.4" y2="11412.4"><stop offset="0" stop-color="#F39991"/><stop offset="1" stop-color="#EF7C7B"/></linearGradient><linearGradient id="q" gradientUnits="userSpaceOnUse" x1="4080.71" y1="13569.1" x2="15610.5" y2="13569.1"><stop offset="0" stop-color="#F39991"/><stop offset="1" stop-color="#EF7C7B"/></linearGradient></defs><path fill="url(#a)" d="M10183 18363c-3118 0-5650-1579-5690-3537 742 1290 3011 2284 5614 2284 3152 0 5192-917 5763-2217-95 1927-2605 3470-5687 3470z"/><path fill="#C85253" fill-rule="nonzero" d="M15870 14893c1-17 2-34 2-51 12-14 25-28 37-43-12 32-25 63-39 94zm-11377-67c-11-18-21-37-31-56 10 13 20 25 30 38 0 6 0 12 1 18z"/><path fill="url(#b)" d="M10107 17110c-2603 0-4872-994-5614-2284-1-6-1-12-1-18 943 1135 3142 1930 5705 1930 2536 0 4717-779 5675-1896 0 17-1 34-2 51-571 1300-2611 2217-5763 2217z"/><path fill="url(#c)" d="M10197 16738c-2563 0-4762-795-5705-1930-10-13-20-25-30-38-297-370-461-776-461-1201 0-162 24-322 70-478 15 36 31 73 48 109 45 274 146 540 373 741 390 344 1059 519 1187 749 360 650 1442 604 2331 768 475 88 527 300 1124 300 228 0 537-31 979-112 56-11 111-15 168-15 149 0 311 29 542 59 231 29 531 58 955 58 39 0 78 0 119-1 1023-12 1183-323 1573-407 1487-321 1193-773 1867-1032 526-202 799-826 910-1423 95 220 145 449 145 684 0 437-172 852-483 1230-12 15-25 29-37 43-958 1117-3139 1896-5675 1896zm-5831-2631c-2 0-5 1-6 2-74 60 148 570 717 1005 221 168 818 457 1093 457 65 0 112-16 131-54 102-198-344-137-1107-690-480-348-767-720-828-720z"/><path fill="url(#d)" d="M16247 12885c-2-5-4-11-6-15 47-212 67-429 67-634 0 196-18 420-61 649z"/><path fill="url(#e)" d="M9134 15758c-597 0-649-212-1124-300-889-164-1971-118-2331-768-128-230-797-405-1187-749-227-201-328-467-373-741 87 183 208 355 373 500 390 344 1059 519 1187 749 360 650 1442 605 2331 769 475 88 527 299 1124 299 229 0 537-31 979-112 56-10 111-14 168-14 149 0 311 29 542 58s531 59 955 59c39 0 78-1 119-1 1023-13 1183-324 1573-408 1080-233 1220-535 1475-782 0 0 0-1 1-1 388-247 671-342 835-539 239-239 384-566 460-907 2 4 4 10 6 15-111 597-384 1221-910 1423-674 259-380 711-1867 1032-390 84-550 395-1573 407-41 1-80 1-119 1-424 0-724-29-955-58-231-30-393-59-542-59-57 0-112 4-168 15-442 81-751 112-979 112z"/><path fill="url(#f)" d="M9134 15517c-597 0-649-211-1124-299-889-164-1971-119-2331-769-128-230-797-405-1187-749-165-145-286-317-373-500-17-36-33-73-48-109-115-289-154-594-154-855 0-137 17-271 50-403 390 1644 3038 2945 6216 2945 937 0 1769-93 2493-255-422 101-893 188-1420 255 0 0 952 49 1716 49 382 0 717-12 863-49 436-109 719-213 1110-461-255 247-395 549-1475 782-390 84-550 395-1573 408-41 0-80 1-119 1-424 0-724-30-955-59s-393-58-542-58c-57 0-112 4-168 14-442 81-750 112-979 112zm5468-1699c885-491 1431-1114 1635-1729-24 109-249 980-1635 1729zm1179-41l4-4c164-201 584-787 454-1692 16-49 30-98 42-147 18 99 27 200 27 302 0 205-20 422-67 634-76 341-221 668-460 907zm527-1541z"/><path fill="url(#g)" d="M16281 11934c-7-37-15-73-24-110 34-134 51-272 51-411 0-74-4-147-14-220 24 123 35 248 33 374-1 121-17 243-46 367zm-12314-101c-33-138-50-278-50-420 0 139 18 277 52 411-1 3-1 6-2 9z"/><path fill="url(#h)" d="M10183 14778c-3178 0-5826-1301-6216-2945 1-3 1-6 2-9 394 1556 2995 2758 6144 2758s5749-1202 6144-2758c9 37 17 73 24 110-12 49-26 98-42 147v-3s-1 4-2 11c-204 615-750 1238-1635 1729-485 263-1114 511-1926 705-724 162-1556 255-2493 255z"/><path fill="url(#i)" d="M3917 11413c0-480 192-927 538-1328-2 13-3 26-4 39-343 393-534 830-534 1289z"/><path fill="url(#j)" d="M10113 14582c-3149 0-5750-1202-6144-2758-34-134-52-272-52-411 0-459 191-896 534-1289-4 57-6 116-4 175 45 1463 2565 3270 5750 3270 3752 0 5676-1559 5676-2966 0-137-16-273-48-406 1-4 2-8 2-11 258 313 419 652 467 1007 10 73 14 146 14 220 0 139-17 277-51 411-395 1556-2995 2758-6144 2758zm-6196-3169zm369-120c-172 0-15 485 206 785 297 403 534 887 1605 1375 670 305 1480 458 1864 458 385 0 345-153-684-458-2102-624-1945-1254-2688-1964-147-139-244-196-303-196z"/><path fill="url(#k)" d="M4455 10085c8-77 21-153 41-228 3 55 8 110 15 165-19 21-38 42-56 63z"/><path fill="#AF2928" fill-rule="nonzero" d="M4451 10124c1-13 2-26 4-39 18-21 37-42 56-63 1 10 2 20 4 31-22 23-43 47-64 71z"/><path fill="url(#l)" d="M10197 13569c-3185 0-5705-1807-5750-3270-2-59 0-118 4-175 21-24 42-48 64-71 260 1828 2698 3260 5668 3260 2891 0 5278-1357 5642-3116 32 133 48 269 48 406 0 1407-1924 2966-5676 2966z"/><path fill="#F0857C" fill-rule="nonzero" d="M15873 9729c0 1980-2548 3584-5690 3584-3143 0-5691-1604-5691-3584s2548-3585 5691-3585c3142 0 5690 1605 5690 3585z"/><path fill="#FBE3DF" fill-rule="nonzero" d="M4865 9729c-313 315 665 1503 2369 2106 1894 670 3990 422 4022 58 27-320-1755 274-3906-480-1996-701-2241-1930-2485-1684z"/><path fill="#EC6B5E" fill-rule="nonzero" d="M6205 12292s5684 1874 8023-1316c1893-2583-2105-4851-3540-4817 0 0 3963 115 5030 2739 408 1004 47 2121-965 3017-1727 1531-6011 2055-8548 377z"/><path fill="#F4A6A1" fill-rule="nonzero" d="M6188 9461c-309 0-521-95-608-343-196-557 862-1607 2892-2113 735-184 1391-260 1945-260 1115 0 1820 310 1939 686 243 771-1606 900-3355 1344-1171 297-2189 686-2813 686z"/><path fill="url(#m)" d="M14945 14317c95-93 207-179 392-250 175-67 322-167 444-290-164 197-447 292-835 539-1 0-1 1-1 1z"/><path fill="url(#n)" d="M12972 14827c-764 0-1716-49-1716-49 527-67 998-154 1420-255 760-169 1403-414 1926-705 1386-749 1611-1620 1635-1729 0-2 1-5 2-8 130 905-290 1491-454 1692l-4 4c-122 123-269 223-444 290-185 71-297 157-392 250-391 248-674 352-1110 461-146 37-481 49-863 49z"/><path fill="url(#o)" d="M12676 14523c812-194 1441-442 1926-705-523 291-1166 536-1926 705zm3561-2434c1-7 2-11 2-11v3c-1 3-2 6-2 8z"/><path fill="url(#p)" d="M7961 13911c-384 0-1194-153-1864-458-1071-488-1308-972-1605-1375-221-300-378-785-206-785 59 0 156 57 303 196 743 710 586 1340 2688 1964 1029 305 1069 458 684 458z"/><path fill="url(#q)" d="M6170 15571c-275 0-872-289-1093-457-569-435-791-945-717-1005 1-1 4-2 6-2 61 0 348 372 828 720 763 553 1209 492 1107 690-19 38-66 54-131 54z"/><path fill="#FBE3DF" fill-rule="nonzero" d="M4446 13115c10-2 500 207 617 454 116 248-365 219-496 0s-409-402-121-454zM5529 14107s175 180 317 365c142 187 240 338 546 355s153-234-76-310c-230-77-372-230-481-328-109-99-568-261-306-82z"/></svg>