<svg xmlns="http://www.w3.org/2000/svg" width="210mm" height="297mm" shape-rendering="geometricPrecision" text-rendering="geometricPrecision" image-rendering="optimizeQuality" fill-rule="evenodd" clip-rule="evenodd" viewBox="0 0 21000 29700"><g fill-rule="nonzero"><path fill="#DAD9DA" d="M16279 19097c0 1009-2497 1827-5577 1827s-5577-818-5577-1827 2497-1826 5577-1826 5577 817 5577 1826z"/><path fill="#6B442F" d="M15670 14045v4664l-187 89-997 473-1926 913-143 74v-4692l143-67 2923-1366z"/><path fill="#65402E" d="M15670 14045v4664l-187 89-997 473c-61-426-175-843-342-1239-347-832-908-1493-1727-1845v-621l143-67 2923-1366 187-88z"/><path fill="#55372C" d="M12417 15677v737l3254-1522v-736zM12417 19419v737l3254-1522v-737z"/><path fill="#65402E" d="M12417 15567v737l3254-1522v-737zM12417 19505v737l3254-1522v-737z"/><path fill="#C07927" d="M5700 14420v4692l3254-1692v-4521z"/><path fill="#A4623B" d="M12417 15566v4692l-144-24-2653-453-3737-638-183-31v-4692l183 31 6390 1090z"/><path fill="#975637" d="M12411 15568v4689l-145-23-2653-451c-37-933-430-1851-1091-2509-738-735-1787-1141-2822-1088v-1766l176 33 6390 1091 145 24z"/><path fill="#6B442F" d="M12417 16368v-715l-6717-1147v716zM12417 20193v-716l-6717-1147v716z"/><path fill="#975637" d="M12417 16282v-715l-6717-1147v716z"/><path fill="#6B442F" d="M9433 15940l36-314c22-195-119-372-315-394s-372 119-394 315l-36 323c-65 17-117 72-125 142l-42 373c-26 235 143 446 377 473l114 12c234 27 446-142 472-377l42-373c10-85-47-161-129-180z"/><path fill="#975637" d="M12417 20258v-706l-6717-1147v716z"/><path fill="#65402E" d="M15670 14045l-3253 1521-5511-940-1206-206 3253-1521 1209 206z"/><path fill="#E1AA19" d="M15670 14045l-3253 1521-5511-940 3256-1521z"/><path fill="#D28F21" d="M8749 14094c-91-70-246-133-430-165-184-31-352-24-461 12l-104-18-21 122c-20 117 210 253 513 305 304 52 566 1 586-116l21-122-104-18z"/><path fill="#E4B811" d="M8853 14112c-20 116-282 168-586 116-303-52-533-189-513-305s282-168 586-116c303 52 533 188 513 305z"/><path fill="#D28F21" d="M9414 14486c-91-70-246-133-430-164-184-32-351-25-460 11l-105-18-21 123c-20 116 210 253 514 305 303 52 565 0 585-116l21-123-104-18z"/><path fill="#E4B811" d="M9518 14504c-20 116-282 168-585 116-304-52-534-189-514-305s282-168 586-116 533 189 513 305z"/><path fill="#D28F21" d="M9531 13936c-105-45-272-67-457-53-186 15-347 64-444 126l-105 8 10 124c9 118 266 193 573 168 307-24 548-140 539-257l-10-124-106 8z"/><path fill="#E4B811" d="M9637 13928c9 117-232 233-539 257-307 25-564-50-573-168-10-117 232-233 539-257 307-25 563 50 573 168z"/><path fill="#D28F21" d="M10191 14434c-105-46-272-68-458-53-185 15-346 64-443 125l-105 9 10 124c9 117 266 193 573 168s548-140 538-258l-9-123-106 8z"/><path fill="#E4B811" d="M10297 14426c9 117-232 232-539 257s-564-51-573-168c-10-118 231-233 538-258 307-24 564 51 574 169z"/><path fill="#D28F21" d="M10251 14076c-96-63-256-113-442-130s-352 3-458 47l-105-9-12 124c-10 117 230 235 536 263 307 28 564-45 575-162l12-124-106-9z"/><path fill="#E4B811" d="M10357 14085c-11 118-269 190-575 162-307-28-547-146-536-263 10-118 268-190 574-162 307 28 547 146 537 263z"/><path fill="#D28F21" d="M9818 13716c-96-63-256-113-442-130s-352 3-458 48l-105-10-12 124c-10 117 230 235 536 263 307 28 564-44 575-162l11-124-105-9z"/><path fill="#E4B811" d="M9923 13725c-10 118-268 190-574 162-307-28-547-146-536-263 10-117 268-190 574-162 307 28 547 146 536 263z"/><path fill="#D28F21" d="M10954 14699c-107-42-274-59-459-38-185 22-344 75-439 140l-105 12 14 124c13 117 272 184 578 149s544-159 530-276l-14-123-105 12z"/><path fill="#E4B811" d="M11059 14687c13 117-224 240-530 275s-565-31-578-149c-14-117 224-240 530-275s565 31 578 149z"/><path fill="#D28F21" d="M11131 14523c-100-57-263-96-449-101-187-5-352 27-454 78l-106-3-3 125c-3 118 244 219 552 227s560-81 563-199l3-125-106-2z"/><path fill="#E4B811" d="M11237 14525c-3 118-255 208-563 200s-555-110-552-228 255-207 563-199 555 109 552 227z"/><path fill="#D28F21" d="M11070 14265c-85-77-236-151-417-196s-348-51-460-23l-102-26-31 121c-28 114 191 268 489 342 299 75 565 43 593-71l31-121-103-26z"/><path fill="#E4B811" d="M11173 14291c-29 114-295 147-593 72-299-75-518-228-489-343 28-114 294-146 592-72 299 75 518 229 490 343z"/><path fill="#D28F21" d="M11816 14923c-86-77-236-151-417-196s-349-51-460-23l-103-26-30 121c-29 114 190 267 489 342s564 43 593-72l30-120-102-26z"/><path fill="#E4B811" d="M11918 14949c-28 114-294 146-593 71-298-74-517-228-489-342 29-115 294-147 593-72s518 228 489 343z"/><path fill="#D28F21" d="M12135 14388c-112-23-280-12-459 40s-327 131-409 211l-102 29 35 120c32 113 299 136 595 50 296-85 509-246 476-360l-34-119-102 29z"/><path fill="#E4B811" d="M12237 14359c33 113-181 274-477 360-296 85-562 63-595-51-32-113 181-274 477-360 296-85 562-62 595 51z"/><path fill="#D28F21" d="M12721 14883c-105-47-272-70-457-56-186 14-347 61-444 122l-106 8 9 124c9 118 265 195 572 172s549-137 540-254l-9-124-105 8z"/><path fill="#E4B811" d="M12826 14875c9 117-233 231-540 254s-563-54-572-172 233-232 540-254c308-23 564 54 572 172z"/><path fill="#D28F21" d="M13142 14620c-109-38-276-48-460-20-185 29-341 89-433 157l-105 17 19 123c18 116 279 173 584 126 304-47 536-180 518-297l-19-123-104 17z"/><path fill="#E4B811" d="M13246 14603c18 117-214 250-518 297-305 47-566-10-584-126-18-117 214-250 519-297 304-47 565 10 583 126z"/><path fill="#D28F21" d="M13161 14539c-92-69-249-129-433-156-184-28-352-18-460 20l-105-16-19 123c-17 116 215 248 520 295 304 46 565-11 583-127l19-123-105-16z"/><path fill="#E4B811" d="M13266 14555c-18 116-279 173-584 127-304-46-537-179-519-295 18-117 279-174 584-127 304 46 537 178 519 295z"/><path fill="#D28F21" d="M13938 14340c-92-68-249-128-433-156s-352-18-460 20l-105-16-19 123c-17 117 215 249 520 295 304 46 565-10 583-127l19-123-105-16z"/><path fill="#E4B811" d="M14043 14356c-18 117-279 174-584 127-304-46-537-178-519-295 18-116 279-173 584-127 304 46 537 178 519 295z"/><path fill="#D28F21" d="M13738 14141c-107-41-274-57-460-34-185 22-343 77-437 142l-106 13 15 124c15 117 274 182 580 145 305-37 542-162 528-279l-15-124-105 13z"/><path fill="#E4B811" d="M13843 14128c14 118-222 242-528 279s-565-28-580-145c-14-117 223-242 529-279 305-37 565 28 579 145z"/><path fill="#D28F21" d="M11817 14278c-92-68-249-128-433-156-185-28-352-17-460 21l-105-16-19 123c-18 116 215 248 519 295 305 46 566-11 584-128l19-123-105-16z"/><path fill="#E4B811" d="M11922 14294c-18 117-279 174-584 128-304-47-537-179-519-295 18-117 279-174 583-128 305 47 537 179 520 295z"/><path fill="#D28F21" d="M11629 14202c-93-69-249-128-434-156-184-28-352-18-460 20l-105-16-18 123c-18 117 215 249 519 295 305 46 566-11 584-127l18-123-104-16z"/><path fill="#E4B811" d="M11733 14218c-17 116-279 173-583 127-305-46-537-178-520-295 18-117 279-174 584-127 304 46 537 178 519 295z"/><path fill="#D28F21" d="M11260 13885c-92-68-249-128-434-156-184-28-351-17-460 20l-104-15-19 122c-18 117 215 249 519 296 305 46 566-11 584-128l18-123-104-16z"/><path fill="#E4B811" d="M11364 13901c-17 117-279 174-583 128-305-47-537-179-519-295 17-117 279-174 583-128 304 47 537 179 519 295z"/><path fill="#D28F21" d="M8529 14159c-106-45-272-67-458-53-186 15-346 64-443 126l-106 8 10 124c10 118 266 193 573 168 307-24 549-140 539-257l-10-124-105 8z"/><path fill="#E4B811" d="M8639 14150c10 118-231 233-538 258s-564-51-573-168c-10-118 231-233 538-258s564 51 573 168zM12560 15499v4685l-143 74-144-24v-4693l144 25z"/><path fill="#E1AA19" d="M12560 15499v4685l-143 74v-4692z"/><path fill="#E4B811" d="M5883 14451v4692l-183-31v-4692z"/><path fill="#E1AA19" d="M15670 14045l1 4674-187 89-1-4675z"/><path fill="#E4B811" d="M13223 19127v737l-806 394-930-149v-716l122 22c154 26 296-94 296-252v-156c0-70 55-127 125-127h387l282-103c83-31 171 30 171 118 0 146 120 254 252 254 34 0 68-7 101-22z"/><path fill="#E1AA19" d="M15029 19020v-736l65-31c113-53 186-167 186-292 0-160 103-301 255-351l136-43v1152l-642 301z"/><path fill="#E4B811" d="M6356 19234v-728l-67-12c-116-21-189-114-189-239 0-160-106-273-261-279l-139-6v1153l656 111z"/><path fill="#E1AA19" d="M13223 19127v737l-806 394v-1378l282-103c83-31 171 30 171 118 0 146 120 254 252 254 34 0 68-7 101-22z"/><path fill="#E4B811" d="M9661 13113l-2984 443-482-82-264-44c-5-58-6-115-8-172-3-60-8-109-8-167-21-2125 1495-2775 2518-2422 3 2 6 2 9 3 1483 520 1219 2441 1219 2441z"/><path fill="#975637" d="M14045 11925c-3 4-144 273-337 638-413 784-1060 2013-1060 2013l-5837-1041-134 21c-3-15-6-29-7-46-174-1026 137-2484 1712-2484 115 0 222 10 318 27 2 0 2 0 3 2 285 52 492 179 640 344 156 35 4693 542 4702 526z"/><path fill="#A4623B" d="M14045 11925c-3 4-144 273-337 638l-765 505-5114-731c284-831 1512-938 1512-938h2c156 35 4693 542 4702 526z"/><path fill="#E4B811" d="M15649 14134s324-1987-1169-2502c-1077-372-2513 732-2541 2165l727 779 2983-442z"/><path fill="#E4B811" d="M12666 14576l-6735-1147v-715l6688 1142 25 387z"/><path fill="#D28F21" d="M8874 13234l-92 141s931 176 937 181c6 4 91-104 91-104l-936-218z"/><path fill="#6B442F" d="M15650 14134l-536 79-124 19-359 54-396 58-130 19-828 123-125 19-486 71c-84-454-73-1000 102-1468 86-230 211-440 384-611 39-39 81-76 125-111 213-168 485-284 828-324 42-4 85-9 130-10 44-3 89-4 136-4 249 0 454 45 619 122 43 21 84 43 124 67 813 514 536 1897 536 1897z"/><path fill="#65402E" d="M15650 14134l-536 79-124 19-359 54c-94-354-287-676-570-905-357-287-857-396-1293-273 86-230 211-440 384-611 39-39 81-76 125-111 213-168 485-284 828-324 42-4 85-9 130-10 44-3 89-4 136-4 249 0 454 45 619 122 43 21 84 43 124 67 813 514 536 1897 536 1897z"/><path fill="#4C443A" d="M9073 15080c196 22 337 198 315 394l-48 425-202-23 45-404c10-84-51-160-135-169s-160 51-169 135l-46 404-202-22 48-426c22-195 198-336 394-314z"/><path fill="#6A5F4E" d="M9259 15460l-20 184-28 240-202-22 30-273 16-131c9-85-51-160-136-169-83-10-160 51-169 135l-17 150-29 254-201-23 22-199 12-101 14-125c17-152 128-271 268-306 40-10 83-13 126-8 195 21 336 197 314 394z"/><path fill="#5D5345" d="M8525 15606c69-17 138-27 208-32l-29 254-201-23 22-199zM9239 15644l-28 240-202-22 30-273c29 5 57 11 86 18 39 10 77 21 114 37z"/><path fill="#4C443A" d="M8777 16697l267 30c192 21 365-117 387-309l53-480c9-75-45-142-120-150l-692-78c-75-8-142 45-151 120l-53 480c-22 192 116 365 309 387z"/><path fill="#6A5F4E" d="M9350 15954l-42 372c-26 235-238 404-472 378l-114-14c-60-7-116-25-166-55-143-81-230-243-211-417l42-372c7-61 46-111 99-134 26-12 55-17 85-13l632 70c91 11 157 93 147 185z"/><path fill="#4C443A" d="M8920 16085c0-62-50-112-112-112-61 0-112 50-112 112 0 36 18 66 44 87l-74 222 207 31-23-236c41-17 70-57 70-104z"/><path fill="#766B5A" d="M8580 16584c-6 16-14 34-24 51-143-81-230-243-211-417l42-372c7-61 46-111 99-134 56 77 80 171 97 265 20 107 31 216 33 324 2 95-2 193-36 283zM8823 15176c-10 63-44 118-81 170-42 57-89 112-154 141-17 9-34 14-51 18l14-125c17-152 128-271 268-306 7 34 9 68 4 102z"/><path fill="#D28F21" d="M9056 15443l-6 56-24 205-191-16c-31-2-58-13-82-31-36-27-60-72-60-121v-9c6-83 81-138 164-130l199 46z"/><path fill="#E4B811" d="M9050 15499l-24 205-191-16c-31-2-58-13-82-31 2-31 12-62 27-89 34-56 100-90 166-91 35-1 71 7 104 22z"/><path fill="#975637" d="M12666 14576l-6735-1147-16-338 6729 1152z"/><path fill="#D28F21" d="M9370 13031c-77-8-134-73-132-150 3-96 9-224 13-323 3-83 75-147 159-140 78 7 138 74 135 152l-13 321c-3 84-78 149-162 140zm369 479l71-58 59-854c16-248-170-464-418-485-263-23-491 182-497 446l-17 783 802 168z"/><path fill="#E4B811" d="M9299 13032c-76-8-134-73-131-150 3-96 8-224 12-323 4-83 76-146 159-140 79 7 138 74 135 153l-13 320c-3 85-77 149-162 140zm440 478l59-910c16-249-170-465-418-486-263-22-491 182-497 446l-15 703-2 80 873 167z"/><path fill="#F1CA4E" d="M7834 10671c-373-38-721 114-993 365-235 217-529 602-521 934 1 30 43 54 66 27 188-229 253-528 458-758 260-293 603-450 990-491 49-6 49-71 0-77zM6333 12144c-5-17-30-23-39-5-14 26-24 49-30 79s-4 59-3 90c1 26 40 41 53 14 14-29 28-55 31-86 3-34-1-61-12-92zM9696 12520c-15-72-49-132-93-191-15-19-52-9-43 18 20 61 31 124 42 187 10 56 0 122 29 171 14 23 44 20 58 0 35-51 19-127 7-185zM9680 12870c-1-31-44-37-53-8-10 35-19 68-24 104-5 35 1 63 7 97 5 28 46 25 53 0 10-32 18-59 19-93s-1-67-2-100zM14095 11656c-560-72-1338 422-1476 988-8 36 35 61 62 36 182-174 282-399 490-556 276-210 576-354 924-392 49-5 49-69 0-76zM12517 12874c-14 47-25 90-29 139-2 28 41 39 53 14 23-43 37-85 50-133 14-47-60-68-74-20z"/><path fill="#A4623B" d="M6862 16525c-15 0-15 24 0 24 16 0 16-24 0-24z"/></g></svg>