<svg xmlns="http://www.w3.org/2000/svg" width="210mm" height="297mm" shape-rendering="geometricPrecision" text-rendering="geometricPrecision" image-rendering="optimizeQuality" fill-rule="evenodd" clip-rule="evenodd" viewBox="0 0 21000 29700"><defs><linearGradient id="a" gradientUnits="userSpaceOnUse" x1="10028" y1="10342.9" x2="9415.35" y2="16607.5"><stop offset="0" stop-color="#C46A75"/><stop offset="1" stop-color="#6D2C51"/></linearGradient><linearGradient id="b" gradientUnits="userSpaceOnUse" x1="10054.2" y1="10342.9" x2="9443.7" y2="16607.5"><stop offset="0" stop-color="#D9888F"/><stop offset="1" stop-color="#922F6C"/></linearGradient><linearGradient id="c" gradientUnits="userSpaceOnUse" x1="10045.7" y1="10342.9" x2="9430.44" y2="16607.5"><stop offset="0" stop-color="#8A4650"/><stop offset="1" stop-color="#4F2A3D"/></linearGradient><linearGradient id="d" gradientUnits="userSpaceOnUse" x1="10045.2" y1="10342.9" x2="9430.03" y2="16607.5"><stop offset="0" stop-color="#B35866"/><stop offset="1" stop-color="#632A49"/></linearGradient><linearGradient id="e" gradientUnits="userSpaceOnUse" x1="10045.7" y1="10342.9" x2="9430.44" y2="16607.5"><stop offset="0" stop-color="#FFFDF1"/><stop offset="1" stop-color="#FDFAEB"/></linearGradient><linearGradient id="f" gradientUnits="userSpaceOnUse" x1="10045.7" y1="10342.9" x2="9430.44" y2="16607.5"><stop offset="0" stop-color="#E4D81C"/><stop offset="1" stop-color="#AA952A"/></linearGradient><linearGradient id="g" gradientUnits="userSpaceOnUse" x1="9178.5" y1="10342.9" x2="8648.94" y2="16607.5"><stop offset="0" stop-color="#D7C50B"/><stop offset="1" stop-color="#8B5D28"/></linearGradient><linearGradient id="h" gradientUnits="userSpaceOnUse" x1="10042.7" y1="10342.9" x2="9428.32" y2="16607.5"><stop offset="0" stop-color="#D7C50B"/><stop offset="1" stop-color="#8B5D28"/></linearGradient><linearGradient id="i" gradientUnits="userSpaceOnUse" x1="10045.7" y1="10342.9" x2="9430.44" y2="16607.5"><stop offset="0" stop-color="#E4D81C"/><stop offset="1" stop-color="#AA952A"/></linearGradient><linearGradient id="j" gradientUnits="userSpaceOnUse" x1="10265.9" y1="10342.9" x2="9682.54" y2="16607.5"><stop offset="0" stop-color="#EBB7C7"/><stop offset="1" stop-color="#B5418F"/></linearGradient><linearGradient id="k" gradientUnits="userSpaceOnUse" x1="10078.7" y1="10342.9" x2="9471.76" y2="16607.5"><stop offset="0" stop-color="#EBB7C7"/><stop offset="1" stop-color="#B5418F"/></linearGradient><linearGradient id="l" gradientUnits="userSpaceOnUse" x1="10033.9" y1="10342.9" x2="9422.26" y2="16607.5"><stop offset="0" stop-color="#D26073"/><stop offset="1" stop-color="#7B2A50"/></linearGradient><linearGradient id="m" gradientUnits="userSpaceOnUse" x1="10761.1" y1="10343" x2="10245.3" y2="16607.5"><stop offset="0" stop-color="#D26073"/><stop offset="1" stop-color="#7B2A50"/></linearGradient><linearGradient id="n" gradientUnits="userSpaceOnUse" x1="10045.7" y1="10342.9" x2="9430.44" y2="16607.5"><stop offset="0" stop-color="#B35866"/><stop offset="1" stop-color="#632A49"/></linearGradient><linearGradient id="o" gradientUnits="userSpaceOnUse" x1="10021.6" y1="10342.9" x2="9409.32" y2="16607.5"><stop offset="0" stop-color="#D7C50B"/><stop offset="1" stop-color="#8B5D28"/></linearGradient><linearGradient id="p" gradientUnits="userSpaceOnUse" x1="10045.7" y1="10342.9" x2="9430.41" y2="16607.5"><stop offset="0" stop-color="#D7C50B"/><stop offset="1" stop-color="#8B5D28"/></linearGradient><linearGradient id="q" gradientUnits="userSpaceOnUse" x1="10045.7" y1="10342.9" x2="9430.44" y2="16607.5"><stop offset="0" stop-color="#EFE323"/><stop offset="1" stop-color="#CAB71C"/></linearGradient><linearGradient id="r" gradientUnits="userSpaceOnUse" x1="8935.95" y1="10342.9" x2="8471.48" y2="16607.5"><stop offset="0" stop-color="#EFE323"/><stop offset="1" stop-color="#CAB71C"/></linearGradient><linearGradient id="s" gradientUnits="userSpaceOnUse" x1="10045.7" y1="10342.9" x2="9430.44" y2="16607.5"><stop offset="0" stop-color="#EFE323"/><stop offset="1" stop-color="#CAB71C"/></linearGradient><linearGradient id="t" gradientUnits="userSpaceOnUse" x1="9427.94" y1="10342.9" x2="8903.38" y2="16607.4"><stop offset="0" stop-color="#EFE323"/><stop offset="1" stop-color="#CAB71C"/></linearGradient></defs><path fill="#7D4980" fill-rule="nonzero" d="M5537 11976c695-784 1986 168 3132 504 887 259 2128-27 3341-312 1966-463 3858-926 4057 928 359 3353-4170 3571-6528 2934-2688-726-5093-2823-4002-4054z"/><path fill="#A25B95" fill-rule="nonzero" d="M7411 12909c469-646 914-357 1808-187 701 133 1785-104 2865-342 1714-377 3417-753 3564 348 337 2547-2897 3016-4732 2707-2091-351-4241-1513-3505-2526z"/><path fill="#58375B" fill-rule="nonzero" d="M5733 12629c3710 2517 7439 2032 9900 1231-149 2852-8781 2330-9900-1231z"/><path fill="#6F4073" fill-rule="nonzero" d="M16067 13096c-30-282-99-510-202-693 323 3174-3995 3292-6236 2687-2154-582-4097-2003-4043-3164-16 16-33 32-49 50-1091 1231 1314 3328 4002 4054 2358 637 6887 419 6528-2934z"/><path fill="#B6BA29" fill-rule="nonzero" d="M3829 8889c-65 209 278 1327 681 1686 964 860 237 1455 531 1679 141 108 1236-679 1223-909-13-231-865-176-1498-755-600-548-603-1249-527-1619l-410-82z"/><path fill="#979A2F" fill-rule="nonzero" d="M4670 10597c-403-360-729-1452-664-1661l-177-47c-65 209 278 1327 681 1686 964 860 237 1455 531 1679 22 17 67 12 128-9-146-258 394-852-499-1648z"/><path fill="#979A2F" fill-rule="nonzero" d="M6712 12098s867 37 1305-289c0 0-215-145-907-252 198-74 403-205 403-205-214-100-787-13-1171 19-413-59-800-28-1010 207-138 155-203 368-220 607-189 395-171 1386-171 1386 95-87 192-268 281-475 147 568 394 1073 473 1161 0 0 209-1062 147-1629 0 0 534 346 1438 187 0 0-289-553-568-717z"/><path fill="#B6BA29" fill-rule="nonzero" d="M6639 11941s917 7 1290-181c0 0-355-162-807-301 195-69 334-128 334-128-211-93-713-76-1092-46-407-54-788-26-995 193-137 145-254 323-270 545-187 369-117 1314-117 1314 95-81 191-250 278-443 145 530 389 1001 466 1083 0 0 207-990 145-1519 0 0 523 336 1347 263 0 0-304-627-579-780z"/><path fill="#C77EB3" fill-rule="nonzero" d="M13321 12797c-98 492 2070 895 2237 18 168-876-2106-671-2237-18zM12218 12917c-8 147 594 189 606-73 12-263-596-123-606 73z"/><path fill="#8B457F" fill-rule="nonzero" d="M8068 15095c0-211 2000 419 1986 685s-1986-336-1986-685zM14845 15276c104 158-671 566-799 360-128-205 626-622 799-360z"/><path fill="#6F4073" fill-rule="nonzero" d="M7844 14410l98-623 434 175 139 881z"/><path fill="#979A2F" fill-rule="nonzero" d="M4968 13459c94-327 532-1734 196-2144l-177 820c-20 375-33 850-19 1324z"/><path fill="#979A2F" fill-rule="nonzero" d="M5173 11832s257 74 578-163l-661 923 83-760z"/><path fill="#D1D123" fill-rule="nonzero" d="M5770 11818l1249 783s-522-956-965-1002l-284 219zM5518 12121l175 1478s226-1329 77-1776l-252 298z"/><path fill="#D1D123" fill-rule="nonzero" d="M6047 11612l1695 127s-1049-462-1529-392l-166 265zM5822 11349c72-105 430-144 209 57-221 200-388 206-209-57z"/><path fill="url(#a)" d="M11813 16315h0zm3704-2418c138-329 190-716 131-1169-73-545-527-728-1176-728-661 0-1523 190-2388 380s-1733 380-2404 380c-166 0-321-11-461-38-474-90-822-214-1114-214-259 0-474 97-694 401-145 199-178 404-122 608-467-219-937-480-1407-788 1-26 1-52 1-77 109 58 434 205 931 205 142 0 298-12 466-42 0 0-46-89-120-206-71-131-199-352-339-510 144-1 412-13 679-74 315 132 638 276 954 386h1c1 0 2 1 4 1l1 1c1 0 2 0 3 1h2c1 1 1 1 2 1s2 1 3 1c0 0 1 0 1 1 65 22 130 43 194 61 1 1 3 1 4 2 245 71 517 101 807 101 763 0 1656-206 2534-413 879-207 1743-414 2448-414 632 0 1136 166 1407 649 60 588-40 1071-256 1464-31 10-61 20-92 30z"/><path fill="url(#b)" d="M11748 14505c-1105 0-2287-165-3499-594l-307-124-1 9c-217-84-434-177-652-279-56-204-23-409 122-608 220-304 435-401 694-401 292 0 640 124 1114 214 140 27 295 38 461 38 671 0 1539-190 2404-380s1727-380 2388-380c649 0 1103 183 1176 728 59 453 7 840-131 1169-1064 336-2353 608-3769 608zm2905-2274c-591 0-1263 220-1332 566-56 282 630 534 1259 534 469 0 907-141 978-516 79-411-381-584-905-584zm-2028 468c-174 0-401 99-407 218-4 71 133 117 278 117 156 0 322-54 328-190 5-104-86-145-199-145z"/><path fill="url(#c)" d="M11906 15377c-824 0-1635-114-2277-287-389-105-771-238-1136-391l-117-737-127-51c1212 429 2394 594 3499 594 1416 0 2705-272 3769-608 31-10 61-20 92-30-617 1121-2182 1510-3703 1510zm-4060-981c-872-453-1587-1018-1966-1585 1-28 2-55 2-82 470 308 940 569 1407 788 218 102 435 195 652 279l-95 600z"/><path fill="url(#d)" d="M11813 16315c-824 0-1630-111-2274-285-3-1-6-1-9-2h-1c-3-1-5-2-8-3h-1c-1556-424-3013-1307-3750-2213 16-108 32-229 46-355 29-200 56-433 64-646 379 567 1094 1132 1966 1585l-2 14 671 433-22-144c365 153 747 286 1136 391 642 173 1453 287 2277 287 1521 0 3086-389 3703-1510 216-393 316-876 256-1464 23 41 43 84 63 130 5 11 9 22 14 33 18 46 36 94 51 144v2c15 51 28 106 39 162 3 14 6 28 9 43 10 55 19 112 25 173 1 2 1 4 1 6 14 126 20 248 20 365 2 2151-2193 2853-4273 2854h-1zm-3640-1262c-66 0-105 12-105 42 0 289 1350 751 1824 751 99 0 159-20 162-66 12-229-1469-727-1881-727zm6482 139c-279 0-708 286-609 444 25 40 74 57 136 57 259 0 747-290 663-417-40-59-108-84-190-84z"/><path fill="url(#e)" d="M5695 14256zm-754-685zm3069-1757zm3-3h0zm-84-51zm0 0zm0 0zm-416-408zm0 0l-1-1 1 1zm-2-1zm-1147-66c-3 0-6-1-10-1 4 0 7 1 10 1zm-143-15c-12-11-27-21-44-30 17 9 32 19 44 30zm-44-30c-1 0-1-1-2-1 1 0 1 1 2 1zm-2-1s-1 0-1-1c0 1 1 1 1 1zm-1-1h-2 2zm-2-1h-1 1zm-2 0v-1 1zm-1-1c-1 0-1-1-1-1s0 1 1 1zm-2-1zm-1185-475zm-4-3zm-9-6c-1 0-1 0-1-1 0 1 0 1 1 1zm-4-3h-1 1zm-4-3zm-2-1s-1 0-1-1c0 1 1 1 1 1zm-4-3h-1 1zm-3-2c-1 0-1-1-1-1s0 1 1 1zm-4-3h-1 1zm-3-2h-1 1zm-3-2c-1 0-1-1-1-1s0 1 1 1zm-4-3s-1 0-1-1c0 1 1 1 1 1zm-3-2c-1 0-1-1-2-1 1 0 1 1 2 1zm-3-2l-2-2 2 2zm-4-3l-1-1 1 1zm-3-2l-2-2 2 2zm-3-2c-1-1-2-2-3-2 1 0 2 1 3 2zm-4-3l-2-2 2 2zm-3-3c-1 0-1-1-2-1 1 0 1 1 2 1zm-4-2c0-1-1-1-2-2 1 1 2 1 2 2zm-3-2c-1-1-1-2-2-2 1 0 1 1 2 2zm-3-3c-1-1-2-1-3-2 1 1 2 1 3 2zm-4-3s-1-1-2-1c1 0 2 1 2 1zm-3-2l-2-2 2 2zm-3-2l-3-3 3 3zm-3-3c-1-1-2-1-3-2 1 0 2 1 3 2zm-4-3c-1 0-2-1-2-2 0 1 1 2 2 2zm-3-2c-1-1-2-2-3-2 1 0 2 1 3 2zm-3-3c-1 0-2-1-3-2 1 1 2 2 3 2zm-4-2c-1-1-2-2-3-2 1 0 2 1 3 2zm-3-3c-1-1-2-2-3-2 1 0 2 1 3 2zm-3-2l-3-3 3 3zm-4-3c-1-1-2-2-3-2 1 0 2 1 3 2zm-3-3c-1-1-2-1-3-2 1 1 2 1 3 2zm-4-3c-1 0-2-1-2-2 0 1 1 2 2 2zm-3-2c-1-1-2-2-3-2 1 0 2 1 3 2zm-3-3c-1 0-2-1-3-2 1 1 2 2 3 2zm-4-3c-1 0-2-1-2-2 0 1 1 2 2 2zm-3-2l-3-3 3 3zm-3-3c-1-1-2-1-3-2 1 1 2 1 3 2zm-3-3c-2 0-2-1-3-2 1 1 1 2 3 2zm-4-2l-3-3 3 3zm-3-3c-1-1-2-2-3-2 1 0 2 1 3 2zm-3-3c-1-1-2-1-3-2 1 1 2 1 3 2zm-4-3c-1 0-2-1-3-2 1 1 2 2 3 2zm-3-2l-3-3 3 3zm-4-3l-3-3c2 1 2 2 3 3zm-3-3c-1-1-2-1-3-2 1 1 2 1 3 2zm-3-3c-1 0-2-1-3-2 1 1 2 2 3 2zm-3-2l-3-3 3 3zm-4-3l-3-3 3 3zm-3-3l-3-3 3 3zm-3-3c-1-1-2-2-3-2 1 0 2 1 3 2zm-4-3c-1-1-1-2-2-2 1 0 1 1 2 2zm-3-3c-1-1-2-2-3-2 1 0 2 1 3 2zm-3-2l-3-3 3 3zm-3-3l-3-3 3 3zm-4-3l-3-3 3 3zm-3-3l-3-3 3 3zm-3-3l-3-3 3 3zm-3-3l-3-3 3 3zm-4-3l-3-3 3 3zm-3-3l-3-3 3 3zm-242-3zm-3-2v-1 1zm-2-3h-1 1zm-3-2l-1-1 1 1zm-3-3zm-3-2v-1 1z"/><path fill="url(#f)" d="M5272 11592c-18-114-52-209-108-277l-1 4c-58-215-196-458-493-722-403-360-729-1452-664-1661l-177-47 410 82c-20 96-34 214-34 347 0 377 117 866 561 1272l3 3 3 3h1l3 3 3 3 3 3 3 3h1l3 3 3 3c1 0 2 1 3 2 0 0 0 1 1 1s1 1 2 2c1 0 1 0 1 1 1 0 2 1 3 2l3 3 3 3h1l3 3c1 1 2 2 3 2v1c1 1 2 1 3 2l3 3h1l3 3c1 1 2 2 3 2 0 1 1 1 1 1 1 1 2 1 3 2v1c1 0 2 1 3 2l3 3h1c1 1 1 2 3 2v1c1 1 2 1 3 2l3 3h1c0 1 1 2 2 2 0 1 1 1 1 1 1 1 2 2 3 2v1c1 0 2 1 3 2h1c0 1 1 2 2 2l1 1c1 1 2 1 3 2v1c1 0 2 1 3 2h1l3 3c1 0 2 1 3 2v1c1 0 2 1 3 2h1c1 1 2 2 3 2v1c1 0 2 1 3 2h1c0 1 1 2 2 2 0 0 0 1 1 1 1 1 2 1 3 2l3 3h1l2 2 1 1c1 0 2 1 2 1l1 1c1 1 2 1 3 2 0 0 0 1 1 1s1 1 2 2h1c1 1 2 1 2 2 1 0 1 1 2 1s1 1 2 1c0 1 1 1 1 1l2 2c1 0 1 1 1 1 1 0 2 1 3 2h1l2 2s1 1 2 1l1 1c1 1 1 1 2 1l2 2s1 0 1 1c1 0 1 1 2 1 1 1 1 1 2 1 0 1 1 1 1 1 1 1 2 1 3 2 0 0 0 1 1 1s1 1 2 2h1l2 2h1c1 1 2 2 3 2 0 0 0 1 1 1l2 2h1c1 1 2 2 3 2 0 1 1 1 1 1s1 1 2 1l3 3h1c1 1 2 2 3 2 0 1 0 1 1 1l9 6c2 1 3 2 4 3 463 312 975 368 1185 475h1s0 1 1 1h1v1h2v1h2c0 1 1 1 1 1 1 0 1 1 2 1 17 9 32 19 44 30-64-6-127-9-188-9-275 0-515 59-664 217-34 36-66 74-97 114z"/><path fill="url(#g)" d="M4984 12184c-119-262 396-820-457-1594-1-1-2-2-3-2v-1c-1 0-2-1-2-2h-1c-1-1-1-2-2-2l-1-1-2-2c-1-1-2-2-3-2v-1c-1 0-2-1-3-2-369-329-689-1296-689-1616 0-29 3-53 8-70l177 47c-65 209 261 1301 664 1661 297 264 435 507 493 722l-176 816c-1 16-2 33-3 49z"/><path fill="url(#h)" d="M5695 14257c-79-88-326-593-473-1161-89 207-186 388-281 475 0-3-6-304 22-640-2 172 0 350 5 528 11-37 26-88 44-150 84-88 170-242 248-415 145 530 389 1001 466 1083 0 0 48-226 90-520-14 126-30 247-46 355-38 254-74 438-75 444v1zm0-1zm1119-1399c-497 0-822-147-931-205-1-69-5-134-12-194 0 0 426 274 1115 274 75 0 152-4 232-11 0 0-21-44-58-112 74 117 120 206 120 206-168 30-324 42-466 42zm7-758c-60-68-122-124-182-158h10c103 0 923-5 1275-179 65 28 93 47 93 47-1 0-2 1-3 2h-1l-3 3c-141 103-326 168-511 211h1c-267 61-535 73-679 74zm1196-290zm-771-310c-40-14-82-27-124-40 183-65 317-121 333-127 20 5 39 11 56 19h1l1 1c-2 1-122 78-267 147z"/><path fill="url(#i)" d="M5726 13977c-77-82-321-553-466-1083-78 173-164 327-248 415 62-215 158-563 219-915l520-725c-190 140-357 172-462 174 1-90-4-175-17-251 31-40 63-78 97-114 149-158 389-217 664-217 61 0 124 3 188 9h1c43 4 88 8 132 14 4 0 7 1 10 1 166-13 356-23 535-23 228 0 439 17 557 69l-1 1c-16 6-150 62-333 127 42 13 84 26 124 40 388 127 677 258 683 261l-5 2c-352 174-1172 179-1275 179h-10c60 34 122 90 182 158 140 158 268 379 339 510 37 68 58 112 58 112-80 7-157 11-232 11-689 0-1115-274-1115-274 7 60 11 125 12 194 0 25 0 51-1 77 0 27-1 54-2 82-8 213-35 446-64 646-42 294-90 520-90 520zm495-2707zm143 15zm1092 46zm-1 1zm474 428zm-2159 63l-252 298 175 1478s226-1329 77-1776zm284-224l-284 219 1249 783s-456-834-877-982l1600 120s-907-399-1420-399c-39 0-75 2-109 7l-158 252h-1zm-24-336c-71 0-173 35-208 86-94 139-93 203-37 203 49 0 142-52 246-146 114-104 74-143-1-143z"/><path fill="url(#j)" d="M14580 13331c-629 0-1315-252-1259-534 69-346 741-566 1332-566 524 0 984 173 905 584-71 375-509 516-978 516z"/><path fill="url(#k)" d="M12496 13034c-145 0-282-46-278-117 6-119 233-218 407-218 113 0 204 41 199 145-6 136-172 190-328 190z"/><path fill="url(#l)" d="M9892 15846c-474 0-1824-462-1824-751 0-30 39-42 105-42 412 0 1893 498 1881 727-3 46-63 66-162 66z"/><path fill="url(#m)" d="M14182 15693c-62 0-111-17-136-57-99-158 330-444 609-444 82 0 150 25 190 84 84 127-404 417-663 417z"/><path fill="url(#n)" d="M8515 14843l-671-433 2-14 95-600 1-9 307 124 127 51 117 737z"/><path fill="url(#o)" d="M4968 13459c-5-178-7-356-5-528v-1c2-268 11-522 22-745 0 0 0-1-1-1 1-16 2-33 3-49l176-816 1-4c56 68 90 163 108 277 13 76 18 161 17 251h-12c-65 0-104-11-104-11l-83 760 141-198c-61 352-157 700-219 915-18 62-33 113-44 150z"/><path fill="url(#p)" d="M5090 12592l83-760s39 11 104 11h12c105-2 272-34 462-174l-520 725-141 198z"/><path fill="url(#q)" d="M7019 12601l-1249-783 284-219h1l-8 13 95 7c421 148 877 982 877 982z"/><path fill="url(#r)" d="M5693 13599l-175-1478 252-298c149 447-77 1776-77 1776z"/><path fill="url(#s)" d="M7742 11739l-1600-120-95-7 8-13 158-252c34-5 70-7 109-7 513 0 1420 399 1420 399z"/><path fill="url(#t)" d="M5785 11552c-56 0-57-64 37-203 35-51 137-86 208-86 75 0 115 39 1 143-104 94-197 146-246 146z"/></svg>