<svg xmlns="http://www.w3.org/2000/svg" width="210mm" height="297mm" shape-rendering="geometricPrecision" text-rendering="geometricPrecision" image-rendering="optimizeQuality" fill-rule="evenodd" clip-rule="evenodd" viewBox="0 0 21000 29700"><path fill="#BAA98C" d="M6853 14654s77-311 185-84c107 227 143 442-84 944-227 501-913 2274-1015 2364-101 89-424 95-454 101-29 6-47-18 120-155s233-424 567-1069c334-644 669-1886 681-2101zm331-5466c-203-221-496-501-1176-442-681 60-776 335-955 418-180 84-341 215-430 317-90 101-12 355-48 471-36 117 107 129 93 153-15 24 92 125 44 191-47 65-68 134-83 185s131 48 119 101c-12 54 9 90 6 150-3 59 36 65 57 110s188 188 74 421c-113 233-59 167-161 376-101 209-304 96 66 979 370 884 585 872 764 1409 179 538 131 1242-84 2126-214 883-370 1361-549 1480-179 120-331 159-477 156-147-3-215-93-341-15-125 77-242 143-382 167s-188-3-176 66c12 68 179 116 179 116s-9 95 81 89c89-6 203-95 239-77 35 18 6 57 92 63 87 6 143-36 185-42s39-33 152 6c114 39 415 77 415 77s-65 87-155 224c-89 138-167 158-83 179 83 21 238-21 220 6-17 27-137 215-62 296 74 80 146 77 212-6 65-84 33-266 128-340 96-75 146-114 140-99s-6 340-92 451c-87 110-161 197-87 248 75 50 167 32 218-39 51-72 248-573 230-526-18 48-143 379-81 418 63 39 156 0 186-83 29-84 89-400 167-460 77-60 239-90 316-78 78 12 260 39 406-44 146-84 260-180 260-180s0-352 143-609c143-256 770-1325 770-1325s394 1039 382 1182c-11 143-164 182-414 209-251 27-442-60-598 81-155 140-319 474-241 510 77 36 143-42 188-24s39 93 143 51c105-42 194-122 218-128s233-60 382 24c149 83 346 125 448 23 101-101 66-119 221-119s328 48 346-72c18-119-143-1188-143-1188s525 556 931 687 597 12 740 72c144 59 323 89 221 155-101 65-280 185-489 179s-335 36-484 42-376 113-394 227c-18 113 18 191 173 143s317-72 317-36-78 155 24 173c101 18 209-24 209-24s59 108 167 66c107-42 137-72 167-66s89 90 209 36c119-54 101-72 191-72 89 0 298 72 495-5 197-78 424-102 406-335s-6-633 24-633-149 30 854 484 1564 501 2125 167c562-334 932-812 1672-573 741 239 1075 752 1326 692 250-59 131-441-323-752-454-310-1301-728-1839-549-537 179-824 692-1731 812-908 119-1923-788-1923-788s84-753-167-1660c-250-908-1421-2388-2125-2997-705-609-1123-699-1134-770-12-72-520-645-669-908s-66-292-60-400c6-107 60-42-72-442-131-400-313-558-313-558z"/><path fill="#9E8D74" d="M8656 16821s525 556 931 687 597 12 740 72c20 8 40 15 60 22 37-9 65-21 83-35 155-132-84-311-424-735-341-424-765-1325-765-1325s-47 24-12 358c36 334 323 776 120 704-203-71-728-668-908-859-179-191 24 860 175 1111zM7518 16625c118-202 206-353 206-353s394 1039 382 1182c-11 143-164 182-414 209-251 27-442-60-598 81-36 33-73 76-107 124 54-12 139-42 241-81 251-95 232 60 740-17 507-78 436-215 316-693-119-478-394-1421-298-1731 0 0-508-30-627 352-58 186 49 571 159 927z"/><path fill="#817665" d="M4783 11507c-11 29-27 68-59 132-101 209-304 96 66 979 370 884 585 872 764 1409 179 538 131 1242-84 2126-214 883-370 1361-549 1480-179 120-331 159-477 156-147-3-215-93-341-15-125 77-242 143-382 167s-188-3-176 66c12 68 179 116 179 116s-9 95 81 89c89-6 203-95 239-77 35 18 6 57 92 63 87 6 143-36 185-42s39-33 152 6c114 39 415 77 415 77s-60 80-144 208c269-33 545-88 716-170 187-88 285-225 338-338-131 32-292 36-313 40-29 6-47-18 120-155l6-5c-278 73-674 158-700 106-36-72 185-125 567-1021 383-895 227-3104 394-2973 168 131 251 263 657 310 406 48 836-119 645-143s-812-179-1146-442c-335-262-741-430-1003-991-245-523-322-894-242-1158zm39-105c-8 20-14 35-18 49 6-17 13-33 18-49z"/><path fill="#736551" d="M4888 18239v1c-4 5-68 90-155 223-89 138-167 158-83 179 83 21 238-21 220 6-17 27-137 215-62 296 74 80 146 77 212-6 65-84 33-266 128-340 96-75 146-114 140-99s-6 340-92 451c-87 110-161 197-87 248 75 50 167 32 218-39 51-72 248-573 230-526-18 48-143 379-81 418 63 39 156 0 186-83 29-84 89-400 167-460 77-60 239-90 316-78 78 12 260 39 406-44 146-84 260-180 260-180s0-352 143-609c143-256 770-1325 770-1325s728-1135 847-1565c120-430 197-710 197-710s1296 185 1654 567 693 860 501 740c-191-119-1026-549-1337 0-310 549 794 1755 908 2018 84 196 101 311 83 371 4 12-4 26-29 42-101 65-280 185-489 179s-335 36-484 42-376 113-394 227c-18 113 18 191 173 143s317-72 317-36-78 155 24 173c101 18 209-24 209-24s59 108 167 66c107-42 137-72 167-66s89 90 209 36c119-54 101-72 191-72 89 0 298 72 495-5 197-78 424-102 406-335s-6-633 24-633-149 30 854 484 1564 501 2125 167c562-334 932-812 1672-573 741 239 1075 752 1326 692 250-59 131-441-323-752-454-310-1301-728-1839-549-537 179-824 692-1731 812-908 119-1923-788-1923-788s84-753-167-1660c-250-908-1421-2388-2125-2997-212-184-1630-1439-1771-1629-166 251 300 437-272 1179-573 742 130 2013-24 2472-154 458-140 400-246 687-12 139-61 308-165 539-125 276-390 939-619 1493-200 492-358 852-396 871-101 89-424 95-454 101-14 3-25-1-15-20-29 7-60 15-93 24-329 96-444 195-489 256z"/><path fill="#85775F" d="M11563 17430c30 0-149 30 854 484s1564 501 2125 167c562-334 932-812 1672-573 741 239 1075 752 1326 692 79-19 122-70 128-142-76 2-163-6-261-38-406-131-961-633-1564-686-603-54-472 47-770 227-299 179-732 623-1445 549-714-75-1809-794-1935-836-125-42-137 84-130 156z"/><path fill="#736551" d="M7160 9162c-202-216-498-473-1152-416-636 56-761 300-921 400 164-5 236 180 439 163 203-18 412-150 848-42 436 107 645 233 716 42 19-50 46-98 70-147z"/><path fill="#A28466" d="M5409 9546c-6 167 376 687 388 872s-150 173-96 388 319 749 675 800c355 51 430-125 519-239 88-111-21-167 79-516 6-22 32-106 139-230 135-156 64-576 194-749 72-96 96-251 39-224s-188-84-266-170c-77-87-268 56-501 56s-484-209-723-155-447 167-447 167z"/><path fill="#BEA089" d="M6346 10063c-75 77-263 307-388 241-126-65-412-334-349-429 62-96 71-180 289-200 218-21 424-69 478 65 53 135-30 323-30 323zM6582 9797c27 152 32 331 182 490 149 158 245 155 337-21 93-176 209-353 87-484-123-131-230-164-362-125-131 38-244 140-244 140z"/><path fill="#93785E" d="M5779 10526c-11 27-28 49-43 71-17 30-32 62-43 93-5 30-10 43 8 116s83 292 243 487c12-134 26-333 142-463 117-131 200-251 287-212 86 39 238 113 304 113s105-71 170-47c32 11 81 89 127 167 1-1 101-179 106-191-57-40-202-103-325-317-123-213-218-453-173-546 128-264-140-27-130 125-5 167-59 595-324 505-152-52-179-93-233-42-30 28-74 79-116 141z"/><path fill="#4E4A4A" d="M6048 10048c85 0 154-65 154-144 0-78-69-143-154-143s-154 65-154 143c0 79 69 144 154 144zM6832 10057c85 0 155-69 155-154s-70-154-155-154c-86 0-155 69-155 154s69 154 155 154zM6544 10596c-60-35-136-69-144-41-7 29 88 58 105 87 16 28 58 34 67 9 9-26-35-59-35-59l7 4zM6715 10640c23-18 61-64 76-62 16 3 23 18-5 48-27 31-28 76-54 61-25-15-17-47-17-47z"/><path fill="#35302F" d="M6901 11156c-108-10-440 49-843-49-12-3 301 124 843 49z"/><path fill="#35302F" fill-rule="nonzero" d="M6901 11156l2-16c-10-1-22-1-34-1-66 0-170 9-303 9-142 0-315-11-504-57l-4-1-5 1-7 4-5 12c1 6 3 8 4 10l3 3 4 2c5 2 19 8 44 15 73 22 235 59 470 59 100 0 213-7 337-24v-32l-2 16-2-16c-123 17-235 24-333 24-161 0-288-18-373-36-43-9-75-18-97-25-11-3-19-6-24-8l-6-2-1-1-5 11 6-10-1-1-5 11 6-10-8 13 10-12-2-1-8 13 10-12-10 13 12-10-2-3-10 13 12-10-12 10h16c0-6-3-9-4-10l-12 10h16-16l11 11 5-11h-16l11 11-11-11 3 16 8-5-11-11 3 16-3-16v16h3l-3-16v16-15l-4 15h4v-15l-4 15c192 47 368 58 512 58 134 0 240-10 303-10 12 0 22 0 31 1l1-16-2-16 2 16z"/><path fill="#CDBFAA" d="M6684 11986c-30 6-341 59-645-42-585-195-836-857-836-800 0 90 155 591 239 812s-72 245-131 412c-60 167-180 54 143 400 322 346 170 289 576 564s991 764 925 484c-65-281-322-878-221-1009 102-132 389-317 257-347-131-29-251-220-143-328 107-107 149-197 84-197-66 0-248 51-248 51z"/><path fill="#A49787" d="M6896 11462c-21 15-274 260-522 203-751-172-816-1130-842-1158 36 1410 1214 1429 1364 955z"/><path fill="#CDBFAA" d="M5520 10008c-116-215-308-370-427-385s-325-84-242 21c84 104 176 218 153 233-24 15-81-54-66 56 15 111 80 126 101 233 21 108-173 81-9 224 165 143 442 78 532 140 89 63 170 30 116-125s-158-397-158-397z"/><path fill="#EEEDEE" d="M6102 9930c32 0 59-26 59-57s-27-57-59-57c-33 0-60 26-60 57s27 57 60 57zM6908 9920c33 0 60-26 60-57s-27-57-60-57-60 26-60 57 27 57 60 57z"/><path fill="#BAA98C" fill-rule="nonzero" d="M4780 11333s72-134 201-259c129-124 265-191 265-191s-72 134-201 258c-128 124-265 192-265 192zM4713 11385s6-43 28-110 63-157 131-241c69-84 148-143 209-178 30-18 56-31 74-38 17-7 29-12 29-12s-35 41-73 85c-45 52-103 123-167 201-63 78-121 150-162 204-36 47-69 89-69 89z"/><path fill="#BAA98C" fill-rule="nonzero" d="M4737 11248s48-129 151-251c103-123 222-192 222-192s-48 129-151 251c-103 123-222 192-222 192z"/><path fill="#BAA98C" fill-rule="nonzero" d="M4737 11221s40-143 135-288c96-145 213-237 213-237s-39 143-135 288-213 237-213 237z"/><path fill="#BAA98C" fill-rule="nonzero" d="M4725 11135s36-145 129-293 208-244 208-244-36 145-130 293c-93 148-207 244-207 244z"/><path fill="#BAA98C" fill-rule="nonzero" d="M4782 10969s20-131 95-265c75-133 176-218 176-218s-20 130-95 264c-75 133-176 219-176 219z"/><path fill="#BAA98C" fill-rule="nonzero" d="M4774 10935s-3-38 6-98c8-61 29-143 73-226 44-81 101-145 147-185s79-59 79-59-16 35-42 88-61 124-103 200c-41 77-81 145-110 197-30 51-50 83-50 83z"/><path fill="#BAA98C" fill-rule="nonzero" d="M4725 10889s15-147 85-304c71-157 170-266 170-266s-15 146-85 304c-71 157-170 266-170 266z"/><path fill="#BAA98C" fill-rule="nonzero" d="M4705 10820s-6-36-3-95c3-57 17-138 54-219 37-80 89-144 130-184 42-40 73-60 73-60s-13 35-34 86c-22 52-51 122-85 197s-68 142-93 192-42 83-42 83z"/><path fill="#BAA98C" fill-rule="nonzero" d="M4652 10714s22-139 99-283c76-144 180-240 180-240s-22 139-99 283c-76 145-180 240-180 240z"/><path fill="#BAA98C" fill-rule="nonzero" d="M4605 10646s0-36 13-92 40-132 90-204c49-73 110-125 158-157 47-33 81-47 81-47s-19 32-48 79c-30 47-69 110-115 177s-90 127-124 171c-33 45-55 73-55 73zM4587 10499s-1-36 12-93c13-56 40-133 92-205 69-97 159-153 208-177l25-11-4 20c-6 28-10 44-10 44s-7-15-15-43l20 9c-48 69-111 159-149 212-52 71-179 244-179 244z"/><path fill="#BAA98C" fill-rule="nonzero" d="M4530 10299s44-114 140-215 207-151 207-151-44 113-140 214c-95 102-207 152-207 152z"/><path fill="#BAA98C" fill-rule="nonzero" d="M4469 10163s4-8 12-20c8-14 21-32 41-52 38-40 105-87 191-106 85-18 166-3 217 18 26 10 47 21 59 30 12 8 20 14 20 14h-24c-16-1-37 0-63 2-51 2-118 12-190 27-71 15-136 35-184 54-24 9-44 17-58 24-13 6-21 9-21 9zM4472 10079s5-26 27-62 63-82 122-109c60-27 121-28 162-20 21 3 38 8 49 13 10 4 16 7 16 7s-29 13-60 26c-54 25-102 47-128 59-27 12-75 33-129 58-30 14-59 28-59 28z"/><path fill="#BAA98C" fill-rule="nonzero" d="M4440 10004s4-7 11-18c6-12 18-28 34-47 33-36 90-79 164-97 75-18 146-6 191 12 23 8 41 18 52 25s18 12 18 12-9 1-21 2c-14 1-32 4-54 7-45 6-102 17-164 32-61 15-117 31-160 46-42 14-71 26-71 26z"/><path fill="#BAA98C" fill-rule="nonzero" d="M4497 9887s11-26 41-59c29-34 80-73 146-91s130-10 172 3c21 7 38 14 49 21 10 5 16 9 16 9s-33 8-67 17c-40 9-90 24-145 39-55 16-106 29-146 40-33 11-66 21-66 21z"/><path fill="#BAA98C" fill-rule="nonzero" d="M4470 9888s10-30 39-74c28-43 78-97 147-136 70-39 142-53 194-54 26-1 47 0 61 2s22 3 22 3-34 19-71 39c-64 37-122 69-160 91-39 21-97 53-161 89-37 21-71 40-71 40z"/><path fill="#BAA98C" fill-rule="nonzero" d="M4412 9816s5-9 11-23c8-15 20-36 38-60 35-48 96-108 180-147s169-47 229-43c30 2 54 6 70 10 15 4 24 6 24 6s-9 4-24 8c-16 5-38 13-64 22-53 18-122 47-196 81-73 34-140 68-188 97-24 15-44 27-58 36-13 8-22 13-22 13z"/><path fill="#BAA98C" fill-rule="nonzero" d="M4441 9758s4-11 11-28 20-41 39-70c38-56 108-127 206-170 97-44 196-49 264-40 34 5 61 11 78 18 17 5 28 9 28 9s-12 2-29 5c-19 2-44 8-75 15-63 13-144 40-228 77-85 38-158 81-210 119-26 18-48 34-61 46-14 11-23 19-23 19z"/><path fill="#BAA98C" fill-rule="nonzero" d="M4498 9684s5-11 14-29 25-44 47-74c43-60 119-135 222-186 103-52 209-67 283-65 37 0 67 3 87 7 19 4 32 6 32 6s-13 3-31 9c-20 4-48 13-81 24-68 21-156 56-249 102-92 46-173 95-231 136-29 20-52 38-68 50l-25 20z"/><path fill="#BAA98C" fill-rule="nonzero" d="M4542 9640s5-11 14-29c10-18 26-44 48-74 43-61 115-138 213-198s200-89 274-100c37-6 67-8 88-8h32s-50 24-106 52c-64 32-149 80-239 135-91 55-171 109-230 152-49 37-94 70-94 70z"/><path fill="#BAA98C" fill-rule="nonzero" d="M4583 9478s7-10 18-25c11-16 29-38 53-63 48-50 125-112 223-155 99-42 197-55 266-55 35 0 64 2 82 5 19 3 30 4 30 4s-49 18-104 37c-63 23-147 56-237 95-91 39-173 76-233 106-51 27-98 51-98 51z"/><path fill="#BAA98C" fill-rule="nonzero" d="M4613 9421s6-11 15-27c10-17 27-40 51-67 47-54 127-118 233-154 105-36 208-34 278-20 35 7 63 16 81 23 17 7 28 12 28 12s-12 1-30 2c-20 1-47 5-80 10-67 9-155 29-248 61-92 31-174 69-233 102-29 16-53 31-69 41s-26 17-26 17zM4642 11618s5-43 27-109c21-66 61-154 126-238 66-84 143-144 202-181s99-52 99-52-152 194-227 290-227 290-227 290z"/><path fill="#BAA98C" fill-rule="nonzero" d="M4682 11629s43-124 139-240c96-117 210-182 210-182s-42 124-138 241c-97 116-211 181-211 181z"/><path fill="#BAA98C" fill-rule="nonzero" d="M4720 11656s10-108 71-212c61-103 151-164 151-164s-10 108-71 212c-62 103-151 164-151 164zM7557 9727s1 4 6 5l12-6v7c-34-43-101-126-178-215-54-65-105-125-144-168-33-37-64-72-64-72s37 8 92 35c55 26 127 73 187 145 86 100 117 213 126 267l1 6-1 1c-5 11-16 12-21 11-6-1-10-4-13-6-5-6-3-10-3-10z"/><path fill="#BAA98C" fill-rule="nonzero" d="M7601 9814s-25-34-52-71c-32-43-78-98-128-155-51-58-99-110-138-147-33-32-64-62-64-62s10 2 24 4c15 3 38 9 65 18 53 20 124 59 182 125 58 67 89 142 101 197 6 28 9 51 9 67 1 15 1 24 1 24z"/><path fill="#BAA98C" fill-rule="nonzero" d="M7568 9863s-103-59-185-167c-81-107-110-223-110-223s103 60 184 167c82 108 111 223 111 223z"/><path fill="#BAA98C" fill-rule="nonzero" d="M7590 9985s-103-72-183-193-106-244-106-244 104 72 183 193c80 121 106 244 106 244z"/><path fill="#BAA98C" fill-rule="nonzero" d="M7602 10002s-94-76-161-198c-67-121-80-242-80-242s95 76 161 198c67 121 80 242 80 242z"/><path fill="#BAA98C" fill-rule="nonzero" d="M7655 10165s-85-184-117-255-114-256-114-256 8 5 20 12c13 8 31 21 52 38 41 35 92 92 127 168 34 76 43 152 42 206s-10 87-10 87z"/><path fill="#BAA98C" fill-rule="nonzero" d="M7642 10237s-15-28-36-71c-21-44-48-102-75-166s-48-125-64-170c-15-45-25-76-25-76s27 15 64 50 81 90 111 161c29 71 36 141 35 191-2 51-10 81-10 81z"/><path fill="#BAA98C" fill-rule="nonzero" d="M7635 10292s-90-96-147-236c-58-140-61-271-61-271s89 96 147 236c57 140 61 271 61 271zM7526 10368s-70-75-102-183c-33-109-14-210-14-210s70 75 102 183c33 109 14 210 14 210z"/><path fill="#BAA98C" fill-rule="nonzero" d="M7588 10489s-93-83-157-212-74-254-74-254 93 84 157 213c64 128 74 253 74 253z"/><path fill="#BAA98C" fill-rule="nonzero" d="M7708 10510s-26 0-65-13c-38-12-89-38-130-85-41-46-61-100-68-139-8-40-5-66-5-66s19 18 46 44c27 27 62 61 97 100 34 39 64 78 87 108s38 51 38 51z"/><path fill="#BAA98C" fill-rule="nonzero" d="M7748 10492s-106-58-191-165c-86-108-119-224-119-224s105 58 191 166c86 107 119 223 119 223z"/><path fill="#BAA98C" fill-rule="nonzero" d="M7727 10428s-72-6-121-53c-49-48-56-119-56-119s72 5 121 52c49 48 56 120 56 120zM7814 10689s-123-60-233-174c-111-114-168-239-168-239s123 60 234 174 167 239 167 239z"/><path fill="#BAA98C" fill-rule="nonzero" d="M7756 10733s-101-47-183-142c-81-96-112-203-112-203s101 47 183 142c81 96 112 203 112 203z"/><path fill="#BAA98C" fill-rule="nonzero" d="M7734 10844s-80-31-132-104c-52-72-57-158-57-158s80 32 133 104c52 72 56 158 56 158z"/><path fill="#BAA98C" fill-rule="nonzero" d="M7732 10963s-90-73-151-189c-60-117-68-233-68-233s90 73 151 190c60 116 68 232 68 232z"/><path fill="#BAA98C" fill-rule="nonzero" d="M7693 11122s-83-88-133-216c-49-128-45-248-45-248s83 87 132 215 46 249 46 249z"/><path fill="#BAA98C" fill-rule="nonzero" d="M7710 11384s-73-86-107-207c-35-121-19-231-19-231s73 85 108 206c34 121 18 232 18 232z"/><path fill="#BAA98C" fill-rule="nonzero" d="M7675 11604s-78-119-119-280c-40-160-28-302-28-302s78 119 118 279c41 161 29 303 29 303z"/><path fill="#BAA98C" fill-rule="nonzero" d="M7508 11230s80 204 132 471l-91-2c3-11 5-23 7-36 26-135 26-263 18-356-4-47-9-85-13-112-5-25-8-41-8-41s8 13 21 37 30 60 46 106c31 92 56 232 28 383-3 13-6 27-9 40l-50 239-40-241c-45-269-41-488-41-488z"/><path fill="#BAA98C" fill-rule="nonzero" d="M7488 11790s19 8 48 23l-23 10c-10-56-22-152-15-260 11-171 66-307 66-307s37 142 26 313c-7 108-31 201-49 256l-9 29-14-19c-20-28-30-45-30-45z"/><path fill="#BAA98C" fill-rule="nonzero" d="M7471 11897s-1-33 1-82c1-50 3-116 8-188s13-138 19-187 11-82 11-82 17 27 35 76 33 120 28 199c-6 80-32 148-56 194-25 46-46 70-46 70zM7364 11898s-30-114-11-247c20-133 81-234 81-234s30 115 11 247c-20 133-81 234-81 234z"/><path fill="#BAA98C" fill-rule="nonzero" d="M7251 12029s14-42 29-85c18-52 38-121 57-197 19-75 35-145 44-199 7-46 14-89 14-89s4 9 11 23c6 14 14 36 21 64 14 56 22 138 0 224-22 87-68 155-107 197-19 22-37 37-49 47l-20 15z"/><path fill="#BAA98C" fill-rule="nonzero" d="M7262 12055s4-26 13-65c8-39 19-89 35-142s35-101 49-138 25-62 25-62 13 23 21 65c9 41 12 100-6 161-19 61-54 109-84 139-30 29-53 42-53 42z"/><path fill="#BAA98C" fill-rule="nonzero" d="M7334 12017s-4-136 46-286c49-149 133-256 133-256s4 136-45 285c-49 150-134 257-134 257zM7181 12072s-23-76 2-152c26-76 90-123 90-123s24 77-2 153c-25 75-90 122-90 122z"/><path fill="#736551" fill-rule="nonzero" d="M8864 14323s-58-122-96-280-42-292-42-292 58 121 96 279 42 293 42 293z"/><path fill="#736551" fill-rule="nonzero" d="M8896 14296s-42-96-60-220-5-228-5-228 43 96 60 220c18 124 5 228 5 228zM8962 14264s-45-103-66-235-10-244-10-244 44 103 65 235c21 133 11 244 11 244zM9007 14235s-28-76-27-170c0-94 28-170 28-170s28 76 27 170c0 94-28 170-28 170z"/><path fill="#736551" fill-rule="nonzero" d="M9070 14172s-37-69-49-159c-11-90 7-166 7-166s37 69 48 159c12 90-6 166-6 166z"/><path fill="#736551" fill-rule="nonzero" d="M9287 14172s-31-5-77-25c-47-18-109-53-164-108-55-54-91-115-111-161-20-47-26-77-26-77s19 25 50 62c31 38 75 86 126 137 51 50 101 93 139 124 32 24 63 48 63 48zM9218 14295s7-4 9-11-3-14-3-13c0-1 6 4 13 3 8 0 11-10 12-9 0 1 7-4 16 7 8 8 9 28-2 39s-31 9-39 1c-9-9-6-18-6-17z"/><path fill="#736551" fill-rule="nonzero" d="M9371 14281s2 18 5 50l1 11-13-4c-51-16-140-53-220-126-63-57-106-122-130-171-26-49-35-82-35-82s22 27 57 66c36 40 86 93 146 146 74 68 146 121 190 151l-13 8c7-31 12-49 12-49z"/><path fill="#736551" fill-rule="nonzero" d="M9354 14238s-24-2-59-17c-34-15-80-46-114-94-33-49-46-103-47-141-1-19 0-34 1-44 2-10 3-16 3-16s3 6 6 15c4 10 9 23 17 39 14 32 37 73 66 115s59 78 84 103 43 40 43 40z"/><path fill="#736551" fill-rule="nonzero" d="M9324 14229s-69-58-124-148c-55-89-77-177-77-177s69 58 124 148c56 90 77 177 77 177z"/><path fill="#736551" fill-rule="nonzero" d="M9429 14255s-24-10-60-34c-35-24-80-64-115-119-36-55-54-113-61-155s-6-68-6-68 16 29 33 59c19 36 48 83 80 134 33 50 64 96 89 129l40 54zM9450 14242s-72-81-131-197c-60-116-83-222-83-222s73 81 132 197c59 115 82 222 82 222z"/><path fill="#736551" fill-rule="nonzero" d="M9534 14248s-27-6-66-26c-38-20-88-57-127-113-38-56-55-117-59-160-3-22-3-40-2-52 1-11 1-18 1-18s3 7 7 17c5 12 12 27 20 45 18 38 45 86 79 136s70 93 98 123c29 30 49 48 49 48zM9614 14330s-74-84-134-204c-60-119-84-229-84-229s74 85 134 204c60 120 84 229 84 229z"/><path fill="#736551" fill-rule="nonzero" d="M9705 14304s-26-10-62-36c-37-25-84-67-122-125-37-58-56-118-64-162s-7-71-7-71 16 30 33 62c21 38 51 88 85 141 35 53 68 101 94 135 22 29 43 56 43 56z"/><path fill="#736551" fill-rule="nonzero" d="M9772 14315s-28-4-70-22c-41-17-96-51-140-106-44-54-66-115-74-159-5-22-7-40-7-53v-19s4 7 9 17c5 12 13 27 24 46 21 37 52 85 92 133 39 49 79 90 111 118s55 45 55 45zM9866 14312s-90-53-175-143c-86-90-135-182-135-182s90 54 175 144c85 89 135 181 135 181z"/><path fill="#736551" fill-rule="nonzero" d="M9896 14358s-85-74-162-185c-76-111-116-216-116-216s85 74 162 185 116 216 116 216z"/><path fill="#736551" fill-rule="nonzero" d="M9957 14427s-79-79-148-194-101-222-101-222 80 79 148 194c69 115 101 222 101 222z"/><path fill="#736551" fill-rule="nonzero" d="M10024 14495s-75-83-136-201c-62-119-88-228-88-228s75 84 137 202c62 119 87 227 87 227z"/><path fill="#736551" fill-rule="nonzero" d="M10083 14482s-75-74-137-182-88-209-88-209 75 74 137 182c62 107 88 209 88 209z"/><path fill="#736551" fill-rule="nonzero" d="M10157 14622s-20-39-41-81c-26-50-62-116-103-189-41-72-80-137-109-185-25-39-48-77-48-77s28 20 70 60c40 39 92 99 135 175s68 151 81 206c12 56 15 91 15 91zM10270 14595s-77-75-142-185c-66-110-95-214-95-214s77 75 142 185c66 111 95 214 95 214z"/><path fill="#736551" fill-rule="nonzero" d="M10383 14788s-76-96-139-229c-62-133-88-253-88-253s76 96 139 229c62 133 88 253 88 253z"/><path fill="#736551" fill-rule="nonzero" d="M10432 14809s-89-112-168-267c-79-154-119-292-119-292s89 112 169 267c79 154 118 292 118 292zM10526 14894s-83-117-155-275-104-298-104-298 83 117 155 275c71 158 104 298 104 298z"/><path fill="#736551" fill-rule="nonzero" d="M10558 14926s-73-119-131-278c-58-158-79-296-79-296s73 119 131 277c58 159 79 297 79 297z"/><path fill="#736551" fill-rule="nonzero" d="M10597 14991s-68-127-119-294c-50-166-65-310-65-310s68 127 119 294 65 310 65 310zM10665 15068s-41-100-57-228c-16-129-1-236-1-236s40 100 56 229c16 128 2 235 2 235z"/><path fill="#736551" fill-rule="nonzero" d="M10690 15100s-34-74-43-168c-8-94 13-172 13-172s35 74 43 167c8 94-13 173-13 173z"/><path fill="#736551" fill-rule="nonzero" d="M10737 15146s-33-85-39-191c-6-107 17-195 17-195s33 85 39 191c6 107-17 195-17 195z"/><path fill="#736551" fill-rule="nonzero" d="M10783 15193s-34-74-42-168 13-173 13-173 34 74 42 168-13 173-13 173zM10845 15224s-33-68-39-153c-7-86 16-157 16-157s33 67 39 153c7 85-16 157-16 157z"/><path fill="#736551" fill-rule="nonzero" d="M10873 15270s-31-61-35-137c-4-77 21-141 21-141s31 61 35 138c3 77-21 140-21 140z"/><path fill="#736551" fill-rule="nonzero" d="M10971 15411s-47-84-72-195-19-207-19-207 48 84 73 195 18 207 18 207zM10569 14775s-44-97-63-221c-20-124-8-229-8-229s43 97 63 221c19 124 8 229 8 229zM9429 14441s-12-1-32-2c-20-2-50-7-86-18s-77-30-119-57c-42-28-84-64-121-109-36-46-63-95-81-142-17-47-27-91-30-129-3-37-2-68 1-88 3-19 5-32 5-32s2 13 4 32c1 10 3 23 6 37 4 13 6 29 12 46 9 35 25 74 45 115 21 41 48 84 81 126 34 41 70 76 105 106 36 29 71 53 103 69 31 17 58 29 77 35 18 7 30 11 30 11z"/><path fill="#736551" fill-rule="nonzero" d="M9390 14471s-11 12-26 30l-3 4-6-4c-44-29-126-92-192-188-48-71-78-144-94-197-16-54-20-89-20-89s22 38 46 77c28 47 68 110 114 177 62 92 122 169 155 210l-9-1c20-11 35-19 35-19z"/><path fill="#736551" fill-rule="nonzero" d="M9344 14419s-21-6-52-26c-30-20-69-55-97-103-28-49-38-100-40-136-1-37 4-59 4-59l24 52c14 31 36 72 60 115 25 43 49 82 69 111l32 46zM9326 14305s-75-69-138-172-90-201-90-201 75 69 138 172c62 103 90 201 90 201z"/><path fill="#736551" fill-rule="nonzero" d="M9407 14240s-7 14-17 33l-4 7-8-8c-34-31-95-93-155-172-88-119-137-231-137-231s94 79 182 197c59 80 101 156 122 198h-11c16-14 28-24 28-24zM9461 14221s-76-48-144-129-102-165-102-165 76 48 145 129c68 81 101 165 101 165zM9585 14283s-79-68-147-170c-68-103-100-202-100-202s78 68 147 171c68 102 100 201 100 201zM9715 14279s-63-59-110-149c-48-89-61-175-61-175s63 60 110 149c47 90 61 175 61 175z"/><path fill="#736551" fill-rule="nonzero" d="M9724 14236s-59-53-102-134-53-160-53-160 60 53 102 134c43 81 53 160 53 160z"/><path fill="#736551" fill-rule="nonzero" d="M9762 14264s-54-55-89-136c-34-81-37-157-37-157s54 54 89 135c34 81 37 158 37 158zM8697 14556s-46-134-69-305c-22-170-13-312-13-312s46 134 69 305c23 170 13 312 13 312z"/><path fill="#736551" fill-rule="nonzero" d="M8668 14744s-38-168-50-377c-13-209 5-380 5-380s38 168 50 377c13 209-5 380-5 380z"/><path fill="#736551" fill-rule="nonzero" d="M8640 14621s-28-131-29-293c0-163 28-294 28-294s28 131 28 293c0 163-27 294-27 294zM8741 14575s-39-175-53-393 2-397 2-397 39 175 53 393-2 397-2 397z"/><path fill="#736551" fill-rule="nonzero" d="M8675 14652s9-39 21-100c12-62 24-146 30-240s6-179 2-242c-1-31-3-56-5-74-2-17-2-28-2-28s4 10 10 26c7 16 16 41 25 72 17 61 32 151 26 250-7 99-34 185-59 244-26 59-48 92-48 92zM8608 14745s-28-149-29-332c-1-184 27-333 27-333s28 149 29 332c1 184-27 333-27 333z"/><path fill="#736551" fill-rule="nonzero" d="M8567 14826s3-51 6-106c3-65 6-154 6-252s-2-186-5-252c-2-55-5-105-5-105s16 37 33 101 33 155 33 256c-1 102-17 192-35 256-17 64-33 102-33 102z"/><path fill="#736551" fill-rule="nonzero" d="M8585 14804s-47-127-71-289-16-297-16-297 47 127 71 289 16 297 16 297z"/><path fill="#736551" fill-rule="nonzero" d="M8532 14902s4-50 8-105c4-65 8-154 8-252 1-97-1-186-4-251-3-55-6-106-6-106s16 37 33 102c17 63 34 154 33 256-1 101-19 192-37 255-18 64-35 101-35 101z"/><path fill="#736551" fill-rule="nonzero" d="M8553 15026s12-282 19-446c5-127 12-302 16-406l8 3c-21 13-34 21-34 21l28-28 5-7 2 10c14 69 39 226 31 409-5 125-24 237-41 316-18 80-34 128-34 128z"/><path fill="#736551" fill-rule="nonzero" d="M8492 15055s9-56 18-118c11-73 24-173 34-283 11-111 18-211 21-285 2-62 5-119 5-119s12 44 23 118 18 177 7 291-38 214-63 284c-24 71-45 112-45 112z"/><path fill="#736551" fill-rule="nonzero" d="M8422 15242s7-58 15-123c10-76 20-180 29-294 9-115 14-219 17-296 1-65 3-124 3-124s13 46 24 123c12 76 21 183 12 301s-34 222-57 296c-24 74-43 117-43 117z"/><path fill="#736551" fill-rule="nonzero" d="M8353 15324s13-50 32-129c19-80 41-190 59-313 28-181 36-340 39-410l8 3c-20 14-32 23-32 23l25-30 6-7 2 10c13 69 36 232 7 419-18 127-55 237-88 313-32 77-58 121-58 121z"/><path fill="#736551" fill-rule="nonzero" d="M8443 15290s8-58 18-123c12-76 25-180 36-295s18-220 21-297c3-65 5-124 5-124s13 46 23 123c11 77 17 185 6 303-11 119-39 223-64 297-25 73-45 116-45 116zM8280 15436l7-7c5-4 11-11 19-19 15-18 32-48 43-87 24-78 21-197 36-326 26-259 75-467 75-467s7 213-20 472c-7 65-14 126-23 182-9 57-22 109-42 149-19 41-44 68-63 83-10 7-18 12-24 15-5 3-8 5-8 5z"/><path fill="#736551" fill-rule="nonzero" d="M8236 15476s4-13 10-34c7-22 16-53 26-92 20-77 43-185 58-304 16-120 21-229 21-310 0-40 0-72-1-95-1-21-1-35-1-35s4 13 10 34c6 22 13 54 20 94 14 80 22 194 6 319-16 124-53 232-87 306-17 38-32 67-44 86-11 19-18 31-18 31z"/><path fill="#736551" fill-rule="nonzero" d="M8128 15708s17-50 41-130 51-191 74-315c22-124 35-237 40-321 4-41 6-75 6-99 1-22 2-36 2-36s3 14 7 36c4 23 9 57 13 99 8 84 9 203-14 331s-65 239-102 315c-19 38-35 68-47 89-12 19-20 31-20 31z"/><path fill="#736551" fill-rule="nonzero" d="M8048 15830s15-53 31-110c19-68 41-162 60-266 18-105 30-200 36-270s9-115 9-115 11 43 19 114c8 72 10 172-9 281-20 108-56 202-89 266-32 64-57 100-57 100z"/><path fill="#736551" fill-rule="nonzero" d="M7908 15962s20-53 42-113c26-70 59-166 90-274 32-107 57-206 73-279 14-62 26-118 26-118s4 46 2 122c-3 75-15 180-47 291-33 111-80 205-118 270-39 65-68 101-68 101zM7834 16030s5-151 45-330 99-318 99-318-5 151-45 330-99 318-99 318z"/><path fill="#736551" fill-rule="nonzero" d="M7810 16105s19-50 39-105c24-64 53-154 82-253 28-100 51-191 65-258 12-58 23-110 23-110s6 43 5 113-10 167-40 270-73 191-110 250c-36 60-64 93-64 93z"/><path fill="#736551" fill-rule="nonzero" d="M7767 16278s19-48 38-101c23-62 51-147 77-243 25-95 45-183 56-248 9-56 18-106 18-106s8 40 10 108c2 67-4 161-30 261-27 99-70 184-105 240-36 57-64 89-64 89z"/><path fill="#736551" fill-rule="nonzero" d="M7796 16359s41-203 123-441c83-239 176-423 176-423s-41 202-123 441c-83 238-176 423-176 423z"/><path fill="#736551" fill-rule="nonzero" d="M7780 16265s26-178 91-387c64-209 143-370 143-370s-26 178-90 387c-65 209-144 370-144 370z"/><path fill="#736551" fill-rule="nonzero" d="M7491 16559s10-13 25-34c17-21 40-53 67-92 56-79 127-191 196-319 68-128 122-249 157-339 17-45 31-81 40-107 8-24 14-40 14-40s-2 17-6 42c-4 27-11 66-22 114-22 94-64 224-134 357-71 132-156 238-223 309-34 36-62 63-83 81-19 17-31 28-31 28z"/><path fill="#736551" fill-rule="nonzero" d="M7564 16725s15-48 31-99c19-61 40-145 60-238 19-93 32-179 39-242 6-53 11-103 11-103s10 39 17 103c7 65 7 156-13 253-20 98-56 181-88 238-32 56-57 88-57 88z"/><path fill="#736551" fill-rule="nonzero" d="M7531 16816s5-10 14-27c9-16 20-42 34-72 28-62 60-149 86-247s40-189 46-257c4-33 6-60 6-80 1-18 2-30 2-30s3 12 7 29c5 19 10 47 13 81 8 69 7 168-20 271-28 104-75 190-116 246-20 29-38 50-51 64s-21 22-21 22zM7439 16960s20-180 77-393 130-379 130-379-20 180-77 393-130 379-130 379z"/><path fill="#736551" fill-rule="nonzero" d="M7351 16974s16-48 34-99c21-62 48-145 76-238 39-125 70-236 86-295l13 4c-17 22-29 37-29 37s7-18 17-44l13-34v39c0 61-6 180-47 309-29 96-70 177-104 233-33 56-59 88-59 88z"/><path fill="#736551" fill-rule="nonzero" d="M7298 16970s21-47 43-99c36-88 71-171 98-238s61-151 96-239c21-52 40-100 40-100s-2 41-13 108c-11 66-32 157-71 252s-87 175-126 230-67 86-67 86z"/><path fill="#736551" fill-rule="nonzero" d="M7197 17207s30-58 64-123c39-76 88-183 136-302 49-120 87-230 113-311 21-71 40-133 40-133s-1 53-13 139c-12 85-38 203-88 326s-113 225-164 295-88 109-88 109z"/><path fill="#736551" fill-rule="nonzero" d="M7100 17389s25-57 54-121c33-74 76-178 122-292 45-114 85-219 112-296 24-66 45-124 45-124s-3 50-18 132c-14 81-41 192-88 309-46 117-103 216-149 284-45 69-78 108-78 108zM7074 17436s6-151 48-329c41-179 101-318 101-318s-6 151-47 330-102 317-102 317z"/><path fill="#736551" fill-rule="nonzero" d="M7017 17468s4-138 43-300c38-162 96-287 96-287s-4 138-42 300-97 287-97 287z"/><path fill="#736551" fill-rule="nonzero" d="M6960 17698s-9-152 13-336c22-183 67-329 67-329s10 152-12 336c-22 183-68 329-68 329zM6847 17823s-8-129 15-283 69-275 69-275 9 129-14 283-70 275-70 275zM6758 17898s-18-99-5-219c12-120 50-214 50-214s18 100 5 220c-13 119-50 213-50 213zM6637 18085s-6-110 20-238c27-128 75-226 75-226s6 109-20 237-75 227-75 227z"/><path fill="#736551" fill-rule="nonzero" d="M6600 18178s-22-82-15-180c7-99 41-176 41-176s21 81 14 180c-7 98-40 176-40 176zM5898 14354s-53-115-84-264c-32-149-30-276-30-276s53 115 84 264c32 149 30 276 30 276z"/><path fill="#736551" fill-rule="nonzero" d="M5830 14419s-38-91-51-206c-14-115 3-212 3-212s39 91 52 206-4 212-4 212z"/><path fill="#736551" fill-rule="nonzero" d="M5765 14487s4-24 7-62c3-37 5-87 3-142-1-54-6-104-12-141-5-37-10-61-10-61s17 17 37 52c19 34 39 87 41 149 2 61-15 115-32 151-18 36-34 54-34 54z"/><path fill="#736551" fill-rule="nonzero" d="M5773 14620s-45-91-67-211c-22-119-13-221-13-221s46 92 68 211c22 120 12 221 12 221z"/><path fill="#736551" fill-rule="nonzero" d="M5739 14899s-35-109-44-245c-8-137 13-249 13-249s35 109 43 245c9 137-12 249-12 249z"/><path fill="#736551" fill-rule="nonzero" d="M5789 15081s-49-98-77-226c-28-127-23-237-23-237s50 98 78 226c27 127 22 237 22 237z"/><path fill="#736551" fill-rule="nonzero" d="M5788 15267s-46-106-69-242-15-251-15-251 46 106 69 242 15 251 15 251zM5708 15440s-42-103-59-235c-18-133-5-244-5-244s42 104 60 236c17 132 4 243 4 243z"/><path fill="#736551" fill-rule="nonzero" d="M5718 15640s-36-87-46-198c-10-110 9-203 9-203s36 87 46 198c11 111-9 203-9 203z"/><path fill="#736551" fill-rule="nonzero" d="M5670 15939s-1-45-2-94c-2-58-5-137-10-224-4-86-9-165-14-223-4-49-8-94-8-94s16 32 35 88 38 136 43 226-6 172-19 229c-12 58-25 92-25 92zM5635 16151s-29-110-30-247c-2-136 25-247 25-247s29 110 30 247c2 136-25 247-25 247z"/><path fill="#736551" fill-rule="nonzero" d="M5613 16414s5-41 11-83c6-51 12-121 14-197s0-145-3-197c-4-43-7-83-7-83s17 28 34 78c18 50 34 122 32 204-3 81-23 153-43 202s-38 76-38 76z"/><path fill="#736551" fill-rule="nonzero" d="M5541 16649s4-9 10-23c6-15 14-37 24-64 18-53 36-128 45-212 8-83 6-160-2-217-3-28-7-50-10-66l-5-25s5 8 13 22c8 13 19 35 29 63 22 55 39 137 30 229-9 91-43 169-75 218-16 25-31 44-42 56-10 11-17 19-17 19z"/><path fill="#736551" fill-rule="nonzero" d="M5522 16755s8-32 19-83c10-50 21-119 29-195s10-146 10-197-2-84-2-84 15 28 30 80c14 51 26 125 18 207-9 81-35 152-59 199s-45 73-45 73z"/><path fill="#736551" fill-rule="nonzero" d="M5497 16959s3-10 7-25c4-16 10-39 16-67 13-56 25-133 30-219 4-85 0-163-6-221-4-28-7-51-10-68-2-15-4-25-4-25s5 9 12 22c8 15 18 37 29 65 20 56 39 138 34 230s-32 172-58 226c-14 26-26 47-35 61-9 12-15 21-15 21z"/><path fill="#736551" fill-rule="nonzero" d="M5489 17094s7-39 14-81c9-49 19-116 27-189 9-74 15-142 18-191 2-42 4-82 4-82s13 29 24 79 19 122 10 200c-10 78-34 146-56 192s-41 72-41 72zM5412 17130s2-34 5-70c3-43 6-100 8-164 2-63 3-120 2-163 0-36-1-71-1-71s14 24 28 66c15 42 28 102 26 170s-19 128-36 168c-17 41-32 64-32 64z"/><path fill="#736551" fill-rule="nonzero" d="M5322 17281s10-29 23-75c14-46 29-108 42-177 12-70 20-134 23-181 4-47 4-78 4-78s13 27 24 76c11 48 17 118 4 193-14 75-45 138-72 179s-48 63-48 63zM5240 17330s-6-87 21-185c26-98 74-170 74-170s6 87-21 184c-26 98-74 171-74 171z"/><path fill="#736551" fill-rule="nonzero" d="M5150 17481s17-27 39-69c23-42 49-102 71-169 21-67 34-131 41-179 3-23 5-43 6-57 1-13 1-21 1-21s3 8 7 20c5 13 10 33 13 58 8 50 8 122-15 196-24 74-66 133-101 168-18 18-33 32-44 40s-18 13-18 13z"/><path fill="#736551" fill-rule="nonzero" d="M5122 17653s15-28 35-73c20-44 42-106 62-176 18-70 30-135 35-183 3-25 5-44 6-59 1-13 1-21 1-21s3 8 7 20c5 13 10 34 14 59 9 50 11 123-10 199s-59 137-92 176-58 58-58 58z"/><path fill="#736551" fill-rule="nonzero" d="M5004 17861s5-8 14-20 21-30 35-53c28-45 62-108 91-181 29-74 49-143 59-195 6-26 10-47 12-62s3-24 3-24 2 9 5 23c4 15 7 37 8 65 3 55-4 134-35 213-32 80-82 141-122 179-20 19-37 33-50 41-12 8-20 14-20 14z"/><path fill="#736551" fill-rule="nonzero" d="M4971 17949s14-30 29-62c18-37 40-89 64-146 23-57 44-109 58-148 12-33 24-65 24-65s5 27 4 70-9 103-35 165c-25 61-62 109-92 140s-52 46-52 46z"/><path fill="#736551" fill-rule="nonzero" d="M4949 17922s11-80 55-163c45-82 105-136 105-136s-11 80-56 162c-44 83-104 137-104 137zM4836 17981s20-93 75-192c55-98 124-165 124-165s-21 94-75 192c-55 99-124 165-124 165z"/><path fill="#736551" fill-rule="nonzero" d="M4809 18029s10-88 54-181c44-94 105-158 105-158s-11 88-54 181c-44 94-105 158-105 158zM4971 17932s-19-28-10-49c9-22 41-28 41-28s19 28 10 49c-8 21-41 28-41 28zM5397 17851s-2 13-12 29c-10 17-30 37-58 45-29 9-57 3-74-5-18-9-26-18-26-18l28-10c16-6 35-14 56-20 20-6 41-10 57-14 15-3 29-7 29-7zM9646 16061s-6-8-16-20-24-32-38-57c-29-50-60-128-67-219-6-90 13-171 34-226 11-27 22-48 30-62 8-13 13-21 13-21s-2 9-5 24c-3 16-7 39-11 66-7 56-11 132-5 215s21 158 37 212c7 27 14 49 20 64 5 14 8 24 8 24z"/><path fill="#736551" fill-rule="nonzero" d="M9634 16152s-28-83-28-186c0-102 28-185 28-185s28 83 28 185c0 103-28 186-28 186z"/><path fill="#736551" fill-rule="nonzero" d="M9662 16322s-27-129-26-287 30-285 30-285 27 128 25 286c-1 158-29 286-29 286zM9783 16417s-18-21-39-61c-21-39-43-98-48-166-6-69 6-131 20-173 13-42 27-66 27-66v71c0 42 3 100 8 163s12 120 19 163c7 35 13 69 13 69z"/><path fill="#736551" fill-rule="nonzero" d="M10364 17275c-16-43-38-108-58-184 8 11 17 22 25 33 2 7 3 14 5 21 11 43 24 82 37 116-2 3-6 8-9 14zm96-45c-7-23-15-44-22-63 8-10 10-27-4-37-7-4-12-8-18-13-20-40-37-65-37-65s0 13 1 34l-3-3c-31-98-70-168-70-168s-1 42 6 104c-3-5-6-9-9-14-8-39-22-74-42-107-4-20-8-39-10-55-7-46-13-88-13-88s-10 33-15 89v4l-3-2c-30-98-62-165-62-165s0 49 8 123c-4-7-7-13-12-20-8-12-20-13-30-8-9-28-17-54-23-75-10-36-19-70-19-70s-6 26-8 70c-18-51-35-84-35-84s-1 11-1 28c-18-54-43-103-77-148-16-44-39-86-69-127l-6-5c-1-5-2-10-4-14-4-14-17-18-28-16l-2-5v-17c-1-13-1-22-1-22s-3 7-7 18l-4-12c5-11 2-25-9-30-2-7-5-14-7-21-2-27-4-48-4-48s-2 6-5 14c-6-23-11-46-15-70-4-23-31-20-41-3-15-58-28-94-28-94s-14 117 3 258c16 141 58 252 58 252s4-33 5-84c9 46 23 87 39 119 19 65 49 120 77 155 19 24 34 40 44 50 19 43 36 70 36 70s2-30 0-75c25 81 57 138 57 138s1-28 0-70l10 14c24 94 58 162 58 162s3-33 2-84c14 21 28 42 40 64 6 12 16 14 26 10l6 9c11 12 21 21 29 29 28 87 55 145 55 145s1-16-1-44c26 60 57 106 79 134l10 13 4-14c3-12 5-21 7-28 23 57 43 94 43 94s0-38-5-94c30 90 73 155 73 155s3-91-27-193z"/><path fill="#736551" fill-rule="nonzero" d="M10519 17514s-43-74-62-173-8-184-8-184 43 75 63 173c19 99 7 184 7 184z"/><path fill="#736551" fill-rule="nonzero" d="M10560 17651s-32-85-36-192 20-194 20-194 32 85 36 192-20 194-20 194z"/><path fill="#736551" fill-rule="nonzero" d="M10543 17744s-31-71-36-161c-4-90 21-164 21-164s31 72 35 161c4 90-20 164-20 164z"/></svg>