<svg xmlns="http://www.w3.org/2000/svg" width="210mm" height="297mm" shape-rendering="geometricPrecision" text-rendering="geometricPrecision" image-rendering="optimizeQuality" fill-rule="evenodd" clip-rule="evenodd" viewBox="0 0 21000 29700"><path fill="#FDC46E" fill-rule="nonzero" d="M10138 14523s369 1322 584 1676c215 353 277 815 261 1091-15 277-1014 2644-1030 2829-15 184 231 430 200 738-30 307-153 569-215 753-61 184-46 369-46 369s-138 31-169-292 61-492 123-692c61-200-138-415-138-630s983-2798 999-3075c15-276-769-2290-877-2521-107-230 308-246 308-246z"/><path fill="#FFDB8E" fill-rule="nonzero" d="M9366 14723s77 2152 154 2444c76 292 230 692 169 861-62 169 61 2414 61 2859 0 446-15 877 31 969s246 154 261 215c16 62-184 0-476 16-292 15-892 30-892 30s108-200 292-200c185 0 538-92 538-92s-107-3766-138-3997c-31-230-400-3089-400-3089l400-16z"/><path fill="#F06E64" fill-rule="nonzero" d="M9427 15024s4 346 153 529 261-185 261-185 163 145 266 96c104-48 161-265 161-265s135 222 280 59-408-600-408-600l-713 366z"/><path fill="#F48975" fill-rule="nonzero" d="M8793 14853s-143 315-86 544c58 229 315-57 315-57s86 200 201 200c114 0 257-171 257-171s29 257 229 171c201-86-114-715-114-715l-802 28z"/><path fill="#F06E64" fill-rule="nonzero" d="M5945 7668c86-1116 1718-1460 2634-544s629 1861-229 2662c-859 802-974 1002-773 1403 200 401 1030-2204 3750-1775 2719 430 3177 2519 3063 3206-115 688-1890 315-2577 1489s-3349 1260-4752-57c-1402-1317-1230-2863-515-3664 716-802 1317-1317 1088-1718s-802 200-802 200l-887-1202z"/><g fill="#EF4D56" fill-rule="nonzero"><path d="M6832 8870s573-601 802-200c142 249-36 542-363 921 581-340 1245-1094 735-1579-545-519-1395 208-1550 349l376 509zM14390 12620c11-65 16-142 15-230-24 17-48 35-72 59-659 629-1546-143-2176 515s-1489 1088-3750 1002c-1550-59-2158-1153-2388-1836 67 623 378 1298 1042 1922 1403 1317 4065 1231 4752 57s2462-801 2577-1489z"/></g><path fill="#F48975" fill-rule="nonzero" d="M6131 8083s329-272 472-672c144-401 587-487 816-144 229 344-1045 1031-1045 1031l-243-215z"/><path fill="#EF4D56" fill-rule="nonzero" d="M11327 9414c-2720-429-3550 2176-3750 1775-201-401-86-601 773-1403 786-733 1091-1587 435-2428 278 485 401 1120-235 1713-1260 1173-1632 1746-1260 2347 373 601 602 115 831 115s1202 887 1975 830 1782 959 816 1431c-72 35 1622-439 1733-391 766-339 1664-300 1745-783 114-687-344-2776-3063-3206z"/><path fill="#fff" fill-rule="nonzero" d="M5945 7668s-1059 888-1174 1804c-114 916 945 1660 945 1660s-114-802 200-1260c315-458 916-1002 916-1002s-372-916-887-1202z"/><path fill="#333" fill-rule="nonzero" d="M5965 9804c-365-301-877-375-1185-390-3 19-6 38-9 58-114 916 945 1660 945 1660s-114-802 200-1260c16-22 33-45 49-68z"/><path fill="#D1D1CC" fill-rule="nonzero" d="M6832 8870s-113-277-300-575c-386 341-912 858-1102 1291-315 716 286 1546 286 1546s-114-802 200-1260c315-458 916-1002 916-1002z"/><path fill="#232323" fill-rule="nonzero" d="M5965 9804c-153-126-331-212-510-270-9 17-18 35-25 52-315 716 286 1546 286 1546s-114-802 200-1260c16-22 33-45 49-68z"/><path fill="#F48975" fill-rule="nonzero" d="M8870 9983c1492-1028 3373-712 4632-139 1260 572 2205 1631 2205 1918 0 286-630-258-630-258s944 1532 773 2068c-172 537-830-866-830-866s458 1775 286 2004-598-1574-900-1918c0 0 187 974 0 1117-188 143-302-1002-990-1661 0 0 773 1160 315 1324-458 165-400-1023-1946-1545 0 0 799 604 585 771-213 166-1043-564-2389-771-1345-208-2394-1160-1111-2044z"/><path fill="#F06E64" fill-rule="nonzero" d="M14590 12220c115 343 601-287-200-1231-435-513-1023-1169-1936-1510-1064-265-2312-266-3388 379-163 240-263 590 142 930 716 602 2196 480 2978 802 486 200 200-429-258-573 0 0 1369 433 1746 1031 344 544 430-115 29-744 0 0 773 572 887 916z"/><path fill="#EF4D56" fill-rule="nonzero" d="M9953 9872c-73 507 629 258 1517 458 887 201 1374 802 1574 802 201 0-57-401-57-401s515 544 773 286c258-257-610-910-2147-1316-973-258-1632-29-1660 171z"/><path fill="#333" fill-rule="nonzero" d="M7160 7407c0 86-70 156-156 156s-156-70-156-156 70-156 156-156 156 70 156 156z"/><path fill="#fff" fill-rule="nonzero" d="M6961 7357c0 20-16 36-36 36s-36-16-36-36 16-36 36-36 36 16 36 36z"/></svg>