<svg xmlns="http://www.w3.org/2000/svg" width="210mm" height="297mm" shape-rendering="geometricPrecision" text-rendering="geometricPrecision" image-rendering="optimizeQuality" fill-rule="evenodd" clip-rule="evenodd" viewBox="0 0 21000 29700"><path fill="#EEEDEE" fill-rule="nonzero" d="M18007 17694c0 147-3543 267-7913 267-4371 0-7914-120-7914-267s3543-267 7914-267c4370 0 7913 120 7913 267z"/><path fill="#616060" d="M10476 15267h2364v-3474h-2364z"/><path fill="#403E3D" d="M2991 16857h13057v-2195H2991z"/><path fill="#E2981A" d="M2513 15267h10536v1590H5799c3-38 5-77 5-116 0-655-531-1186-1186-1186s-1186 531-1186 1186c0 39 2 78 5 116h-924v-1590z"/><path fill="#EBB905" d="M2513 16264v593h924c-3-38-5-77-5-116 0-170 36-331 100-477H2513zm10536 0H5704c64 146 100 307 100 477 0 39-2 78-5 116h7250v-593z"/><path fill="#FECC00" d="M13605 16854l-875 3v-1590h110v-3473c264-3 810-4 1064 47 298 59 1794 2147 1885 2185 91 37 965 441 1366 739v2082l-1188 1c4-35 5-71 5-107 0-655-531-1186-1186-1186s-1186 531-1186 1186c0 38 2 76 5 113z"/><path fill="#EDA117" d="M15818 14038c179 79 963 450 1337 727-87 15-278 30-278 30s-1110-509-1148-532c-23-14 33-121 89-225z"/><path fill="#F3BE00" d="M12950 14120l-7 2078h518c403-929 1320-981 2074-806l-7-1272h-2578z"/><path fill="#4E4A4A" d="M14266 12152c500 545 1299 1634 1487 1840-63 3-148 5-148 5l-1454-1845h115zM12950 14120h2578s-1438-1969-1604-1969h-974v1969z"/><path fill="#767475" d="M14873 14120h655s-147-224-349-521c-106 179-229 388-306 521z"/><path fill="#EEEDEE" d="M16996 15770c14 6 30 8 48 8h110c74 0 80-822 0-822h-169c-39 0-42 793 11 814z"/><path fill="#ED7C1C" d="M16995 15771c43 0 43-814-9-814h-70c-247 13-216 815 79 814z"/><path fill="#4E4A4A" d="M15650 16289c250 477 65 1067-412 1316-477 250-1066 65-1316-412-249-477-65-1066 412-1316 477-249 1067-65 1316 412zm-592 972c288-150 399-505 248-792-150-287-505-398-792-248s-399 505-248 792c150 288 505 399 792 248z"/><path fill="#EEEDEE" d="M15394 16423c176 336 46 751-290 926-336 176-750 46-926-290s-46-750 290-926c336-175 750-46 926 290z"/><path fill="#4E4A4A" d="M14996 16632c60 115 15 258-100 319-116 60-259 15-320-100-60-116-15-259 101-319 115-61 258-16 319 100zM14687 16280c32 61 8 137-53 169-61 31-137 8-169-53-31-61-8-137 53-169s137-8 169 53zM14325 16840c61-32 136-8 169 53 31 61 8 137-53 169s-137 8-169-53-8-137 53-169zM14885 17202c-32-61-8-136 53-168s137-9 169 53c32 61 8 136-53 168s-137 8-169-53zM15247 16642c-61 32-136 8-168-53s-9-136 53-168c61-32 136-9 168 52s8 137-53 169z"/><path fill="#616060" d="M15079 13504l137 11c127 11 114 717-73 696l-122-11 58-696z"/><path fill="#9D9C9E" d="M15079 13504l110 9-58 697-110-10z"/><path fill="#DBDADB" d="M16364 15919h923c134 0 244 110 244 244v441c0 133-110 243-244 243h-923c-134 0-244-110-244-243v-441c0-134 110-244 244-244z"/><path fill="#4E4A4A" d="M5500 17158c-230 486-811 695-1298 465s-696-811-466-1298 812-695 1299-465c486 229 695 811 465 1298zm-1133 114c294 139 644 13 782-280 139-293 13-643-280-782-293-138-643-13-782 280-138 294-13 644 280 782z"/><path fill="#EEEDEE" d="M5239 17034c-162 343-571 489-914 328-343-162-489-571-327-914s570-489 913-327 489 570 328 913z"/><path fill="#4E4A4A" d="M4832 16842c-56 118-197 169-315 113s-169-197-113-315 197-168 315-113c118 56 169 197 113 315zM4926 16384c-29 62-104 89-166 59-63-29-89-104-60-166 30-62 104-89 166-60 63 30 89 104 60 167zM4261 16433c62 30 89 104 59 167-29 62-104 89-166 59-62-29-89-104-60-166 30-63 104-89 167-60zM4310 17099c30-63 104-90 167-60 62 29 88 104 59 166-29 63-104 89-166 60-63-30-89-104-60-166zM4976 17049c-63-29-90-104-60-166 29-63 104-89 166-60 62 30 89 104 60 166-30 63-104 89-166 60z"/><path fill="#DBDADB" d="M2375 15919h669v938h-669c-146 0-266-120-266-266v-406c0-146 120-266 266-266z"/><path fill="#ED7C1C" d="M16276 15054h149c25 0 45 20 45 45v278c0 25-20 45-45 45h-149c-25 0-45-20-45-45v-278c0-25 20-45 45-45zM2455 15854h213v-476h-213z"/><path fill="#BDBBBA" d="M2513 15267h10278v-4401H2513z"/><path fill="#EEEDEC" d="M2726 15054h9852v-3975H2726z"/></svg>