<svg xmlns="http://www.w3.org/2000/svg" width="210mm" height="297mm" shape-rendering="geometricPrecision" text-rendering="geometricPrecision" image-rendering="optimizeQuality" fill-rule="evenodd" clip-rule="evenodd" viewBox="0 0 21000 29700"><g fill-rule="nonzero"><path fill="#423C3A" d="M12551 15072c1 57 1 151-2 297-4 285-89 460-358 728s-947 238-1182 0c-133-134-233-317-303-498-51-132-86-262-107-373-762-85-1433-310-1807-639-582-512-852-743-1331-1138l244-23s286 278 927 817c640 539 781 562 1704 792 924 231 2169-16 2718-512 548-496 497-1300 497-1300l176 47c25 711-363 1471-1176 1802z"/><path fill="#492A29" d="M13727 13270l13-49-176-47c-16-4-33-1-46 10-12 10-19 26-18 43v3c0 6 1 23 1 49 0 92-9 294-74 523s-186 483-408 683c-195 177-489 325-827 427-339 102-722 159-1096 159-259 0-514-27-747-86-462-115-727-178-951-277s-414-235-733-504c-320-270-551-473-702-610-76-68-132-119-168-153-19-17-32-30-41-39-9-8-13-13-13-13-11-10-26-15-41-14l-243 23c-21 2-38 16-44 36-7 20 0 41 16 54 478 396 747 625 1329 1137 194 171 461 312 775 421 314 110 676 188 1060 230l6-51-51 10c26 137 72 300 142 460 69 159 162 316 282 438 69 70 166 120 277 154 110 34 234 51 359 51 117 0 235-15 342-48s204-84 277-156c136-136 229-251 288-372 60-120 84-245 86-393 1-95 2-168 2-224 0-29 0-53-1-73h-51l19 48c405-165 708-434 909-750s300-680 300-1035c0-22 0-44-1-67-1-22-16-41-38-47l-13 49-51 2c1 21 1 42 1 63 0 336-95 681-285 980s-476 553-860 710c-20 8-32 27-32 48v72c0 55 0 128-2 223-2 138-23 244-74 349-52 105-137 212-269 344-57 57-139 102-235 131-95 29-204 44-312 44-115 0-230-16-329-47-99-30-182-75-234-128-108-109-196-256-261-407-66-152-111-308-135-438-4-22-22-39-45-41-377-42-732-119-1037-225-306-107-562-243-741-401-583-513-853-744-1332-1139l-33 39 5 51 244-23-5-51-36 37c1 1 288 279 930 819 320 270 520 415 758 520 237 104 506 168 967 283 243 60 505 88 772 88 385 0 777-58 1125-163 349-106 655-258 867-449 240-217 369-490 437-731 69-242 78-453 78-551 0-37-1-58-1-59l-51 3-13 50 176 47 13-50-51 2 51-2z"/><path fill="#D74C47" d="M13801 13504c103 214 329 214 567 550s380 814 253 1315c-127 500 61 918 61 918s-524-231-763-799c-239-567-179-1755-179-1755l61-229z"/><path fill="#492A29" d="M13801 13504l-46 22c29 60 67 107 111 145 64 58 137 100 214 159 78 58 160 133 246 254 171 242 291 560 291 905 0 119-14 242-46 367-33 131-45 257-45 371 0 338 107 577 109 581l47-21 20-47h-1c-12-6-141-66-294-192-153-125-329-315-441-580-76-180-122-435-149-692-26-258-32-518-32-714 0-98 1-179 3-237 1-28 1-51 2-66s1-23 1-23l-51-3 49 14 62-230-50-13-46 22 46-22-49-13-62 229-1 11s-7 133-7 331 7 462 34 724c27 263 73 524 156 722 124 294 321 500 486 632 166 133 300 193 303 194 19 8 42 4 57-11s19-38 10-57c-4-10-100-233-100-539 0-107 12-224 43-346 33-133 49-264 49-392 0-369-128-707-310-964-123-175-247-264-347-333-50-35-93-65-129-97s-64-66-87-113c-9-20-29-31-51-29-21 2-39 17-44 38l49 13z"/><path fill="#B63B31" d="M14590 16179c-51-31-114-74-183-131-109-90-231-213-333-373 39-148 69-303 80-457 4-47 5-94 5-141 0-332-80-658-166-908-43-125-88-232-125-311-19-40-35-73-49-98-4-6-7-12-10-18 11-18 19-39 20-62 1-13 2-25 2-36v-7c11 12 23 23 35 34 27 25 57 47 87 69 21 144 65 348 155 595 183 504 164 649 196 1007 11 125 96 290 222 411 3 178 35 327 64 426z"/><path fill="#3F2A28" d="M14682 16287s-366-162-626-547c6-21 12-43 18-65 102 160 224 283 333 373 69 57 132 100 183 131-29-99-61-248-64-426 17 17 35 32 53 47 13 288 103 487 103 487zm-729-2547c-30-22-60-44-87-69-12-11-24-22-35-34-1-39-7-70-14-103 34 56 77 97 127 135 2 22 5 45 9 71z"/><path fill="#D74C47" d="M14103 15214c-51 692-478 1409-478 1409s-2-16-5-45c-18-159-92-699-267-937-239-323-223-679 114-1027l4-5c272-279 214-649 120-820 0 0 102-111 153-51 52 59 410 785 359 1476z"/><path fill="#B63B31" d="M13671 16430c84-265 155-598 102-877-70-360-208-625-289-883 7-9 16-17 24-26 158-162 213-355 212-524 0-105-20-200-49-278 22-10 41-20 59-31 3 5 5 10 8 14 47 90 127 270 195 493 68 224 124 491 124 759 0 44-2 89-5 134-25 336-142 684-254 947-46 107-90 200-127 272z"/><path fill="#492A29" d="M13591 13789l-45 25c38 69 72 182 72 306 0 148-46 312-183 453-197 201-295 413-295 623 0 165 61 326 171 476 47 62 89 155 123 257 51 153 87 329 109 465 11 68 19 127 24 168 2 21 4 37 5 49 1 11 2 17 2 17 2 22 18 40 40 45 21 5 44-5 55-24 1-1 109-182 223-451s236-625 262-980c4-47 5-94 5-141 0-332-80-658-166-908-43-125-88-232-125-311-19-40-35-73-49-98-7-13-13-23-19-32-6-10-11-16-17-24-9-11-22-21-36-27-13-6-27-8-41-8-24 0-44 7-62 16-26 13-48 30-64 43-16 14-26 25-27 26-15 16-18 40-7 60l45-25 37 35-7-7 7 7-7-7 7 7c1-1 16-16 34-30 9-7 19-14 28-18 8-4 15-5 16-5h1l1-4-3 4h2l1-4-3 4 2-2-2 1v1l2-2-2 1 1 1 2 3c5 8 16 26 30 51 47 90 127 270 195 493 68 224 124 491 124 759 0 44-2 89-5 134-25 336-142 684-254 947-56 131-111 241-151 318-20 39-37 69-48 90-6 10-10 18-13 23s-5 8-5 8l44 26 51-5c0-1-17-178-60-391-21-107-49-223-85-331-37-108-81-208-137-285-101-137-152-275-152-415 0-177 82-362 266-552 158-162 213-355 212-524 0-143-37-269-84-356l-45 25 37 35-37-35z"/><path fill="#D74C47" d="M13829 13680c-10 135-205 179-458 274-72 28-150 60-230 99-354 177-1621 893-3476 558-1081-195-1967-610-2204-711-17-7-30-13-41-16-154-59-221-131-191-364s100-189 47-464l3911-396 2429-246s124 170 183 392c27 102 40 216 20 329-63 357 24 370 10 545z"/><path fill="#B63B31" d="M10634 14330c-344 0-701-27-1052-96-1272-249-1956-416-2116-457-11 36-13 78-5 123-17-7-30-13-41-16-130-49-198-109-198-266 0-29 2-62 7-98 22-173 66-193 66-304 0-39-5-89-19-160l3911-396 2430 19 182 127c18 68 30 142 30 216 0 38-3 75-10 113-17 97-23 169-23 225 0 136 35 183 35 284 0 11-1 23-2 36-1 23-9 44-20 62-17 26-44 49-79 69-18 11-37 21-59 31-29 13-60 25-95 38-24 9-48 18-74 27-40 14-82 29-125 46-2 0-4 1-6 1 119-108 282-266 282-321-162 107-492 260-739 345-228 78-1188 352-2280 352zm-3145-875c-121 0-103 73-33 102 62 25 102 24 105 46 41 16 95 38 168 69 299 124 1447 562 2931 562 197 0 401-7 609-25 1773-147 2263-650 2345-732 8-23 2-39-23-39-14 0-35 5-62 17-122 52-698 351-2305 489-269 23-529 34-776 34-1227 0-2157-251-2579-421-188-76-308-102-380-102z"/><path fill="#492A29" d="M7277 13056l-51 10c13 69 18 115 18 149 0 49-8 72-22 113s-32 95-44 185c-5 38-7 73-7 105 0 43 4 81 14 115 15 52 44 94 82 126 38 31 84 53 135 73 17 6 49 20 91 38 299 130 1143 508 2162 692 347 62 674 88 978 88 669 0 1229-126 1659-271 215-73 397-150 543-218 147-67 258-126 329-162 172-86 338-135 468-185 65-26 121-52 166-87 22-17 42-37 56-61 15-25 24-53 27-82 1-14 1-28 1-40 0-57-10-99-19-140-8-40-16-81-16-144 0-53 6-122 22-217 8-40 11-81 11-121 0-170-56-328-112-445-55-116-110-192-111-193-11-15-28-23-46-21l-6340 642c-14 2-27 9-35 21-9 11-12 26-10 40l51-10 5 51 6339-642-5-51-42 30 1 1c5 6 56 79 106 186 49 107 97 248 96 391 0 34-2 69-8 104-18 99-24 173-24 234 0 72 9 123 18 166 9 42 17 74 17 118 0 10-1 20-2 32-1 14-4 25-11 36-12 20-36 41-74 62-57 31-141 61-241 96-100 36-214 78-334 138-73 36-182 94-326 161-431 200-1175 479-2159 479-299 0-619-26-960-87-574-104-1093-270-1488-418-198-74-364-143-491-197-64-28-117-51-160-70s-74-32-96-40c-62-23-102-47-126-77-13-15-22-32-28-55-7-22-11-50-11-86 0-27 2-57 7-92 10-82 25-124 39-165 14-40 28-83 28-146 0-43-6-96-20-168l-50 9 5 51-5-51z"/><path fill="#34302E" d="M7044 11706c-333-162-470-666-470-666s931 26 1383 43c453 17 1072-278 1072-278s166 551-423 884-1562 17-1562 17z"/><path fill="#E3AB22" d="M6267 11177s66-248 605-265 658 103 1290 0c632-102 1213-265 1213-265l-35 209s-677 312-1073 372c-395 60-1158-309-1570 98l-430-149z"/><path fill="#34302E" d="M13976 11706c333-162 469-666 469-666s-930 26-1382 43c-453 17-1072-278-1072-278s-166 551 423 884 1562 17 1562 17z"/><path fill="#492A29" d="M6267 11177l50 13-28-7 27 8 1-1-28-7 27 8 1-2c4-11 25-61 103-113s215-105 453-113c37-1 71-1 104-1 149 0 264 10 375 21 110 11 217 22 346 22 127 0 276-10 472-42 635-103 1218-266 1219-267l-14-49-50-8-36 208 51 9-22-47s-10 5-29 14c-67 30-240 106-439 181s-425 149-590 174c-28 4-59 6-92 6-118 0-265-25-422-51-158-26-326-52-490-52-109 0-216 11-317 43s-197 84-278 165l36 37 16-49-429-148-17 48 50 13-50-13-17 48 430 149c18 6 39 2 53-12 69-68 148-112 237-140 88-28 184-39 286-39 153 0 317 25 473 51 157 26 307 52 439 52 37 0 73-2 107-7 206-32 475-126 696-212 220-86 390-164 390-165 16-7 27-21 29-38l36-208c3-18-4-35-17-47s-31-16-48-11c0 0-8 2-25 7-119 32-632 168-1182 257-192 31-335 41-456 41-123 0-225-11-336-22-111-10-231-22-385-22-34 0-69 1-107 2-277 9-440 77-534 149s-116 146-118 154c-7 26 7 53 32 61l17-48z"/><path fill="#E3AB22" d="M14804 11177s-65-248-605-265c-539-17-658 103-1290 0-632-102-1213-265-1213-265l35 209s677 312 1073 372c395 60 1158-309 1570 98l430-149z"/><path fill="#492A29" d="M14804 11177l49-13c-1-8-24-82-118-154s-257-140-534-149c-38-1-73-2-107-2-154 0-274 12-385 22-111 11-213 22-336 22-121 0-264-10-456-41-314-51-616-117-840-171-111-26-203-50-267-66-32-9-57-16-74-20-17-5-26-7-26-7-17-5-35-1-48 11s-19 29-17 47l36 208c2 17 13 31 29 38 0 1 170 79 391 165 220 86 489 180 695 212 34 5 70 7 107 7 132 0 282-26 439-52s320-51 473-51c102 0 199 11 287 39s167 72 237 140c13 14 34 18 52 12l430-149c25-8 39-35 32-61l-49 13-17-48-429 148 16 49 36-37c-81-81-176-133-278-165-101-32-208-43-317-43-164 0-332 26-490 52-157 26-304 51-422 51-33 0-64-2-92-6-189-29-456-121-673-206-109-43-205-83-274-113-35-15-63-28-82-36-19-9-29-14-29-14l-22 47 51-9-36-208-50 8-14 49c1 1 584 164 1219 267 196 32 345 42 472 42 129 0 236-11 346-22 111-11 226-21 375-21 33 0 67 0 104 1 262 9 401 73 475 129 37 28 57 54 69 73 6 9 9 17 11 21l2 4v1l27-8-28 7 1 1 27-8-28 7 50-13-17-48 17 48z"/><path fill="#423C3A" d="M12121 10174c-668-411-2242-541-3144 0-759 456-1137 1117-1170 1656l2630 286v25l116-13 116 13v-26l2615-285c-33-539-411-1192-1163-1656z"/><path fill="#492A29" d="M12121 10174l27-43c-185-114-432-205-714-268-281-64-596-99-916-99-560 0-1135 107-1568 366-771 463-1159 1137-1194 1697-1 27 19 51 46 54l2629 285 6-50-51-1v26c-1 15 6 29 16 39 11 9 26 14 40 12l111-12 111 12c14 2 29-3 40-13 11-9 17-23 16-38v-26h-51l6 51 2614-285c28-3 48-27 46-54-35-560-424-1225-1187-1696l-27 43-27 44c740 456 1108 1097 1139 1615l51-3-6-51-2615 286c-26 2-45 25-45 51v26l51-1 6-50-117-13h-11l-116 13 6 50 51 1v-26c0-26-19-49-46-51l-2629-286-6 51 52 3c31-518 397-1167 1144-1615 409-245 968-352 1515-351 312 0 621 34 894 95 273 62 511 150 682 256l27-44z"/><path fill="#F4D735" d="M14205 11109c-503 34-570 305-913 394s-785-241-1195-659-691-418-913-401-270 148-325 324c-64 206-190 442-290 587-99-145-226-381-290-587-55-176-102-307-324-324s-504-17-914 401c-409 418-775 748-1118 659s-486-360-990-394-666 68-666 68c43 102 99 271 99 271s285 169 610 339c324 171 2791 508 2791 508h1605s2466-337 2791-508c324-170 574-188 574-188s92-319 134-421c0 0-162-103-666-69z"/><path fill="#492A29" d="M14205 11109l-3-51c-261 17-417 99-542 185-63 43-119 86-178 122-60 37-123 68-203 88-33 9-68 13-104 13-146 1-316-69-495-188s-366-285-546-470c-174-177-328-283-466-344-138-62-261-78-367-78-43 0-83 3-121 6-60 4-111 17-155 38-65 31-111 80-142 136-32 57-52 119-73 186-61 198-186 433-283 574l42 28 42-28c-96-141-222-376-283-574-28-89-54-171-109-239-27-34-62-63-106-83-43-21-94-34-154-38-38-3-79-6-122-6-106 0-229 16-367 78-138 61-292 167-465 344-182 186-354 352-516 471-81 59-160 106-235 138s-147 49-216 49c-35 0-68-4-102-13-160-41-277-126-422-212-144-85-317-166-578-183-73-5-139-8-199-8-358 0-487 77-497 84-21 13-30 40-20 63 20 49 45 116 64 171 10 27 18 51 24 68 6 18 9 28 9 28 4 12 12 22 23 28 0 0 286 169 612 341 24 12 55 24 92 37 140 46 377 97 657 150 839 159 2058 326 2059 326h1619s617-84 1275-190c329-53 668-111 946-167 139-28 263-55 363-81 50-13 94-26 131-38 38-13 68-25 93-37 325-172 611-338 611-339 11-6 19-16 23-28 0 0 4-10 10-28 17-52 57-166 88-240 9-23 1-50-20-63-10-6-140-85-500-84-59 0-125 2-197 7l3 51 4 51c70-5 133-7 190-7 173 0 287 19 356 36 34 9 58 18 72 24 7 3 12 6 15 7l2 1v1l17-27-17 26v1l17-27-17 26 27-43-47-20c-44 106-100 275-100 276l49 16-26-44s-18 10-49 28c-96 55-317 180-559 308-16 8-43 19-77 30-130 43-366 95-643 148-418 79-931 160-1341 221-204 31-383 57-510 75s-203 28-203 28l7 51v-51H9767v51l7-51s-39-5-107-14c-238-34-838-120-1413-216-288-48-569-98-796-146-113-24-212-47-292-69-79-21-138-42-167-57-161-85-313-170-425-233-55-32-101-58-133-76-32-19-49-29-49-29l-26 44 48-16c0-1-56-169-100-275l-47 20 27 43-16-26 16 27v-1l-16-26 16 27 1-1c12-6 130-67 442-67 58 0 122 2 192 7 243 17 394 88 533 170 139 81 266 175 448 223 42 10 85 16 128 16 86 0 171-21 256-57 128-55 254-143 384-252 130-110 263-240 400-380 167-171 310-268 434-323s229-68 325-68c39 0 77 2 114 5 50 4 88 14 118 28 44 22 72 51 97 95 25 43 44 100 64 165 67 214 194 451 297 601 9 14 25 23 42 23s33-9 42-23c103-150 231-387 297-601 27-88 52-158 91-204 19-24 41-42 70-56 30-14 68-24 119-28 36-3 74-5 113-5 97 0 202 13 326 68 123 55 266 152 434 323 183 187 374 358 562 483 188 124 374 205 552 206 44 0 88-6 130-16 91-24 165-60 230-101 98-60 177-128 275-182 99-54 217-98 399-110l-4-51z"/><path fill="#423C3A" d="M14773 11450s-143 380-360 790c-193 363-446 750-712 915-565 349-2013 704-3175 704-1502 0-2626-355-3191-704-129-81-253-214-367-372-383-530-653-1335-653-1335 229-161 660-86 997 116 336 202 599 430 963 255 363-174 673-420 930-728 259-309 754-478 841-202 77 247 234 756 478 913 210-157 448-666 526-913 87-276 578-107 836 202 258 308 566 554 929 728 363 175 625-53 962-255 336-202 767-275 996-114z"/><path fill="#34302E" d="M14413 12240c-193 363-446 750-712 915-565 349-2013 704-3175 704-1502 0-2626-355-3191-704-129-81-253-214-367-372 136 58 300 139 493 254 819 487 2972 675 4969 80 1021-305 1596-584 1983-877z"/><path fill="#492A29" d="M6318 11464c0 1 114 342 300 728 93 194 204 398 329 578 124 179 262 334 413 428 288 179 715 356 1258 490 544 133 1204 222 1960 222 585 0 1240-89 1822-222 290-67 562-144 798-227 236-84 435-172 581-263 151-94 288-249 413-428 186-270 343-595 454-854 110-259 175-451 175-452 9-27-5-56-32-65s-56 6-65 33c0 0-2 5-5 15-26 73-147 413-326 773-90 179-194 364-308 523-113 160-237 292-360 368-136 85-330 171-561 253-694 245-1723 444-2586 444-748 0-1400-89-1935-220s-953-306-1229-477c-132-81-263-226-383-400-180-259-335-580-444-835-54-128-97-239-127-318-15-40-26-72-34-93-4-11-6-19-8-25s-3-8-3-8c-9-27-38-42-65-33s-41 38-32 65z"/><path fill="#FEFEFE" d="M11511 13315c-110 57-365-64-391-203-5-26-8-49-9-71 90 46 187 72 331 133 61 26 111 47 150 63-20 32-46 61-81 78zm164-174c13-22 20-36 20-36-23-8-48 5-55 29l-5 13c-44-20-103-45-169-71-121-48-295-128-344-150 8-33 17-59 19-77 1-6-17-12-23-10-7 4-23 8-39 44l-8-25-2 21c-85-42-175-79-267-129-556-318-989-735-989-735-131 27-287-45-381-103-54-36-66-56-66-56-75 1012 1703 1201 1703 1201 0 33-29 66-27 98 11 134 180 306 420 236 53-16 106-82 152-147 6 3 9 5 14 7 4 17 11 33 24 46 38 38 100 38 138 0 38-39 38-101-1-139-30-31-77-36-114-17z"/><path fill="#423C3A" d="M9656 13255c9 8 18 15 28 20 12 6 28 9 47 9 99 0 246-81 275-167-29 12-60 23-93 35-48 18-101 38-163 64l-94 39zm171 198c-41 0-83-7-124-19-44-13-88-49-141-114l-7 9c-27 27-63 42-101 42-39 0-75-15-102-42-55-56-55-147 1-203 18-19 41-31 66-37l-5-11 51-17c9-3 18-4 28-4 26 0 51 11 67 31 45-20 89-38 131-55 99-39 235-100 307-133-5-17-9-32-10-47l-2-20 15-11c13-15 35-15 51-15h11l14-1c6 3 19 6 39 41 76-37 155-81 236-125 543-311 975-729 980-734l17-17 24 5c15 3 32 5 49 5 113 0 237-66 301-105 50-33 73-53 73-53l68-59 7 90c72 964-1396 1205-1680 1243 3 18 6 39 4 61-11 139-165 295-368 295z"/><path fill="#FEFEFE" d="M9582 13237c39-16 89-37 150-63 144-61 241-87 331-133-1 22-3 45-8 71-27 139-282 260-392 203-35-17-61-46-81-78zm-197-79c-38 38-39 100 0 139 38 38 99 38 138 0 13-13 20-29 24-46 5-2 9-4 15-7 46 65 101 131 154 147 240 70 426-102 436-236 3-32-5-65-5-98 0 0 1756-188 1681-1200 0 0-25 21-80 58-94 57-253 133-384 105 0 0-434 422-990 740-92 51-183 77-268 119l-3-21-7 25c-17-36-33-50-40-54-5-3-23 8-23 15 2 18 11 46 19 79-48 22-223 103-344 151-66 27-125 52-169 72l-4-13c-8-23-33-36-56-29 0 0 7 15 20 37-37-19-83-14-114 17z"/><path fill="#34302E" d="M12549 15369c-4 285-89 460-358 728s-947 238-1182 0c-133-134-233-317-303-498 473 140 765 597 1263 371s582-898 582-898c1 57 1 151-2 297z"/></g></svg>