<svg xmlns="http://www.w3.org/2000/svg" width="210mm" height="297mm" shape-rendering="geometricPrecision" text-rendering="geometricPrecision" image-rendering="optimizeQuality" fill-rule="evenodd" clip-rule="evenodd" viewBox="0 0 21000 29700"><defs><linearGradient id="a" gradientUnits="userSpaceOnUse" x1="10406.6" y1="11571.5" x2="11428.5" y2="11694.9"><stop offset="0" stop-color="#91ACBD"/><stop offset=".431" stop-color="#91ACBD"/><stop offset=".6" stop-color="#D0DCE4"/><stop offset=".78" stop-color="#91ACBD"/><stop offset="1" stop-color="#91ACBD"/></linearGradient><linearGradient id="b" gradientUnits="userSpaceOnUse" x1="10372.9" y1="11571.5" x2="11445.9" y2="11694.9"><stop offset="0" stop-color="#CCDAE3"/><stop offset=".431" stop-color="#CCDAE3"/><stop offset=".6" stop-color="#E7EFF3"/><stop offset=".78" stop-color="#CCDAE3"/><stop offset="1" stop-color="#CCDAE3"/></linearGradient><linearGradient id="c" gradientUnits="userSpaceOnUse" x1="4926.47" y1="12936.9" x2="5852.55" y2="12381.2"><stop offset="0" stop-color="#91ACBD"/><stop offset=".431" stop-color="#91ACBD"/><stop offset=".6" stop-color="#D0DCE4"/><stop offset=".78" stop-color="#91ACBD"/><stop offset="1" stop-color="#91ACBD"/></linearGradient><linearGradient id="d" gradientUnits="userSpaceOnUse" x1="4936.67" y1="12936.9" x2="5855.97" y2="12381.2"><stop offset="0" stop-color="#CCDAE3"/><stop offset=".431" stop-color="#CCDAE3"/><stop offset=".6" stop-color="#E7EFF3"/><stop offset=".78" stop-color="#CCDAE3"/><stop offset="1" stop-color="#CCDAE3"/></linearGradient><linearGradient id="e" gradientUnits="userSpaceOnUse" x1="13843" y1="11243.9" x2="15160.2" y2="12071.8"><stop offset="0" stop-color="#91ACBD"/><stop offset=".431" stop-color="#91ACBD"/><stop offset=".6" stop-color="#D0DCE4"/><stop offset=".78" stop-color="#91ACBD"/><stop offset="1" stop-color="#91ACBD"/></linearGradient><linearGradient id="f" gradientUnits="userSpaceOnUse" x1="13905.4" y1="11243.9" x2="15270.9" y2="12071.7"><stop offset="0" stop-color="#CCDAE3"/><stop offset=".431" stop-color="#CCDAE3"/><stop offset=".6" stop-color="#E7EFF3"/><stop offset=".78" stop-color="#CCDAE3"/><stop offset="1" stop-color="#CCDAE3"/></linearGradient></defs><path fill="url(#a)" d="M11294 12649c-70-16-141-31-213-45 107-1050 228-2249 311-3078 8 3 16 5 25 6h8c49 0 90-37 94-86l46-508c5-52-33-98-85-103h-18c21-207 33-328 33-328h-4c-157 0-262 48-332 109 70-66 178-121 344-121 8 0 16 0 24 1 435 87 392 441 392 441l-625 3712z"/><path fill="#FEFEFE" fill-rule="nonzero" d="M11425 9532h-8c-52-5-91-51-86-103l46-508c5-52 51-91 103-86s90 51 85 103l-46 508c-4 49-45 86-94 86z"/><path fill="#888A8B" fill-rule="nonzero" d="M10874 12567c-3 0-6-1-8-1l155-3709s19-138 138-241c-108 102-125 231-125 231l-160 3720z"/><path fill="url(#b)" d="M11081 12604c-68-13-137-26-207-37l160-3720s17-129 125-231c70-61 175-109 332-109h4s-12 121-33 328c-44 4-81 40-85 86l-46 508c-4 43 22 83 61 97-83 829-204 2028-311 3078z"/><path fill="#FEFEFE" fill-rule="nonzero" d="M11392 9526c-39-14-65-54-61-97l46-508c4-46 41-82 85-86-18 175-41 412-70 691z"/><path fill="url(#c)" d="M6314 13643c-595-964-1333-2156-1825-2949 8-2 15-6 23-10 44-28 57-87 29-131l-273-430c-18-29-48-45-80-45-17 0-34 5-50 15-5 3-10 7-14 11-111-178-175-281-175-281-125 96-180 198-199 289 16-99 73-213 218-317 96-47 180-65 252-65 223 0 328 176 328 176l1926 3627c-54 36-108 73-160 110z"/><path fill="#FEFEFE" fill-rule="nonzero" d="M4461 10698c-31 0-62-15-80-44l-272-430c-28-45-15-103 29-131s102-14 130 30l273 430c28 44 15 103-29 131-16 10-33 14-51 14z"/><path fill="#888A8B" fill-rule="nonzero" d="M6157 13759l-2370-3369s-70-123-37-278c-25 147 41 261 41 261l2373 3381c-2 2-4 4-7 5z"/><path fill="url(#d)" d="M6164 13754l-2373-3381s-66-114-41-261c19-91 74-193 199-289 0 0 64 103 175 281-33 31-40 81-15 120l272 430c18 29 49 44 80 44 10 0 19-1 28-4 492 793 1230 1985 1825 2949-51 37-101 74-150 111z"/><path fill="#FEFEFE" fill-rule="nonzero" d="M4461 10698c-31 0-62-15-80-44l-272-430c-25-39-18-89 15-120 92 150 218 352 365 590-9 3-18 4-28 4z"/><path fill="#5E70B3" fill-rule="nonzero" d="M3741 18652c0-3402 2758-6161 6161-6161s6162 2759 6162 6161H3741z"/><path fill="#555FA6" fill-rule="nonzero" d="M3741 18652h12323c0-3332-2646-6044-5951-6155l-601 5290-5771 865z"/><path fill="#985D45" fill-rule="nonzero" d="M3189 20331h13291v-1797H3189z"/><path fill="#B6785C" fill-rule="nonzero" d="M3689 20331h4439v-1797H3689z"/><path fill="url(#e)" d="M12573 15945c-16 0-33-4-47-11-2-1-4-3-6-4 135-195 2695-4565 4010-6812 9 8 19 16 29 22 22 13 46 19 70 19 48 0 96-26 122-71l375-656c38-67 15-153-52-191-8-4-16-8-24-11 156-267 247-422 247-422-132-61-248-85-349-85-63 0-119 9-170 24 57-19 122-32 194-32 108 0 232 27 374 97 533 386 257 836 257 836l-3642 5369-1261 1858c-31 44-82 70-127 70z"/><path fill="#FEFEFE" fill-rule="nonzero" d="M16629 9159c-24 0-48-6-70-19-67-38-90-124-52-191l376-656c38-67 124-90 191-52s90 124 52 191l-375 656c-26 45-74 71-122 71z"/><path fill="#888A8B" fill-rule="nonzero" d="M13551 13687c-3-2-6-4-9-7l2899-5693s112-175 337-240c-209 70-312 234-312 234l-2915 5706z"/><path fill="#B3C2E5" fill-rule="nonzero" d="M13551 13688c-3-2-7-4-10-7l1-1c3 3 6 5 9 7v1z"/><path fill="#AFB9DE" fill-rule="nonzero" d="M12515 15937c-52-28-68-105-35-171l1061-2085c3 3 7 5 10 7l-1060 2075c-31 63-18 137 29 167-3 4-5 7-5 7z"/><path fill="url(#f)" d="M12520 15930c-47-30-60-104-29-167l1060-2075v-1l2915-5706s103-164 312-234c51-15 107-24 170-24 101 0 217 24 349 85 0 0-91 155-247 422-15-5-30-8-46-8-48 0-95 26-121 71l-376 656c-32 56-21 125 23 169-1315 2247-3875 6617-4010 6812z"/><path fill="#FEFEFE" fill-rule="nonzero" d="M16530 9118c-44-44-55-113-23-169l376-656c26-45 73-71 121-71 16 0 31 3 46 8-132 225-310 529-520 888z"/><path fill="#555FA6" fill-rule="nonzero" d="M12054 15442c55-202 245-276 423-166l520 323c177 110 203 323 57 472l-52 53c-146 150-414 188-597 86l-154-87c-182-102-286-351-231-553l34-128z"/></svg>