<?xml version="1.0" encoding="UTF-8"?>
<!DOCTYPE svg PUBLIC "-//W3C//DTD SVG 1.1//EN" "http://www.w3.org/Graphics/SVG/1.1/DTD/svg11.dtd">
<!-- Creator: CorelDRAW -->
<svg xmlns="http://www.w3.org/2000/svg" xml:space="preserve" width="174.413mm" height="254.847mm" version="1.1" shape-rendering="geometricPrecision" text-rendering="geometricPrecision" image-rendering="optimizeQuality" fill-rule="evenodd" clip-rule="evenodd"
viewBox="0 0 17441 25485"
 xmlns:xlink="http://www.w3.org/1999/xlink">
 <rect fill="#FEFEFE" width="17441" height="25485"/>
 <g id="Слой_x0020_1">
  <metadata id="CorelCorpID_0Corel-Layer"/>
  <rect fill="none" stroke="#2B2A29" stroke-width="20" width="17441" height="11811"/>
  <rect fill="none" stroke="#2B2A29" stroke-width="20" y="13674" width="17441" height="11811"/>
  <polygon fill="#33CC33" stroke="#2B2A29" stroke-width="50" points="8772,5913 8155,4858 7539,3802 8155,2746 8772,1690 9389,2746 10006,3802 9389,4858 "/>
  <polygon fill="#33CC33" stroke="#2B2A29" stroke-width="50" points="8742,10099 8125,9043 7509,7988 8125,6932 8742,5876 9359,6932 9976,7988 9359,9043 "/>
  <polygon fill="fuchsia" stroke="#2B2A29" stroke-width="50" points="4617,3462 8745,5862 6111,1347 "/>
  <polygon fill="#33CC33" stroke="#2B2A29" stroke-width="50" points="11179,1753 8788,5887 13298,3243 "/>
  <polygon fill="fuchsia" stroke="#2B2A29" stroke-width="50" points="12917,8287 8764,5930 11445,10418 "/>
  <polygon fill="#33CC33" stroke="#2B2A29" stroke-width="50" points="6354,10054 8721,5906 4227,8577 "/>
  <polygon fill="fuchsia" stroke="#2B2A29" stroke-width="50" points="4542,5886 5597,5269 6653,4653 7709,5269 8764,5886 7709,6503 6653,7120 5597,6503 "/>
  <polygon fill="fuchsia" stroke="#2B2A29" stroke-width="50" points="8765,5896 9821,5279 10876,4663 11932,5279 12988,5896 11932,6513 10876,7130 9821,6513 "/>
  <circle fill="#33CC33" stroke="black" stroke-width="50" cx="1570" cy="10253" r="1143"/>
  <circle fill="#33CC33" stroke="black" stroke-width="50" cx="15921" cy="1575" r="1143"/>
 </g>
</svg>
