<?xml version="1.0" encoding="UTF-8"?>
<!DOCTYPE svg PUBLIC "-//W3C//DTD SVG 1.1//EN" "http://www.w3.org/Graphics/SVG/1.1/DTD/svg11.dtd">
<!-- Creator: CorelDRAW -->
<svg xmlns="http://www.w3.org/2000/svg" xml:space="preserve" width="174.413mm" height="254.847mm" version="1.1" shape-rendering="geometricPrecision" text-rendering="geometricPrecision" image-rendering="optimizeQuality" fill-rule="evenodd" clip-rule="evenodd"
viewBox="0 0 17441 25485"
 xmlns:xlink="http://www.w3.org/1999/xlink">
 <rect fill="#FEFEFE" width="17441" height="25485"/>
 <g id="Слой_x0020_1">
  <metadata id="CorelCorpID_0Corel-Layer"/>
  <rect fill="none" stroke="#2B2A29" stroke-width="20" width="17441" height="11811"/>
  <rect fill="none" stroke="#2B2A29" stroke-width="20" y="13674" width="17441" height="11811"/>
  <circle fill="yellow" stroke="black" stroke-width="50" cx="8736" cy="4387" r="938"/>
  <circle fill="red" stroke="black" stroke-width="50" cx="8732" cy="2036" r="938"/>
  <circle fill="red" stroke="black" stroke-width="50" transform="matrix(0.370602 0.667941 -0.667941 0.370602 10789.6 3242.15)" r="1228"/>
  <circle fill="red" stroke="black" stroke-width="50" transform="matrix(-0.400275 0.650593 -0.650593 -0.400275 10741.1 5614.56)" r="1228"/>
  <circle fill="red" stroke="black" stroke-width="50" transform="matrix(-0.763831 -0.0072952 0.0072952 -0.763831 8718.85 6737.55)" r="1228"/>
  <circle fill="red" stroke="black" stroke-width="50" transform="matrix(-0.413417 -0.642321 0.642321 -0.413417 6762.4 5663.23)" r="1228"/>
  <circle fill="red" stroke="black" stroke-width="50" transform="matrix(0.34726 -0.680368 0.680368 0.34726 6640.47 3322.57)" r="1228"/>
  <rect fill="#33CC33" stroke="black" stroke-width="50" x="8248" y="8488" width="1016" height="2495"/>
  <polygon fill="#33CC33" stroke="black" stroke-width="50" points="11650,7416 11411,8344 11173,9272 10334,9734 9495,10197 9734,9269 9972,8341 10811,7879 "/>
  <polygon fill="#33CC33" stroke="black" stroke-width="50" points="5858,7416 6097,8344 6336,9272 7175,9734 8014,10197 7775,9269 7536,8341 6697,7879 "/>
  <rect fill="#33CC33" stroke="black" stroke-width="50" transform="matrix(1.02521E-014 -0.387098 0.950542 2.51747E-014 13393.3 6412.65)" width="2625" height="2625"/>
  <rect fill="#33CC33" stroke="black" stroke-width="50" transform="matrix(1.02521E-014 -0.387098 0.950542 2.51747E-014 1518.63 6412.65)" width="2625" height="2625"/>
 </g>
</svg>
