<?xml version="1.0" encoding="UTF-8"?>
<!DOCTYPE svg PUBLIC "-//W3C//DTD SVG 1.1//EN" "http://www.w3.org/Graphics/SVG/1.1/DTD/svg11.dtd">
<!-- Creator: CorelDRAW -->
<svg xmlns="http://www.w3.org/2000/svg" xml:space="preserve" width="174.413mm" height="254.847mm" version="1.1" shape-rendering="geometricPrecision" text-rendering="geometricPrecision" image-rendering="optimizeQuality" fill-rule="evenodd" clip-rule="evenodd"
viewBox="0 0 17441 25485"
 xmlns:xlink="http://www.w3.org/1999/xlink">
 <rect fill="#FEFEFE" width="17441" height="25485"/>
 <g id="Слой_x0020_1">
  <metadata id="CorelCorpID_0Corel-Layer"/>
  <rect fill="none" stroke="#2B2A29" stroke-width="20" width="17441" height="11811"/>
  <rect fill="none" stroke="#2B2A29" stroke-width="20" y="13674" width="17441" height="11811"/>
  <polygon fill="yellow" stroke="black" stroke-width="50" points="8721,3493 9927,4699 11134,5906 9927,7112 8721,8319 7514,7112 6308,5906 7514,4699 "/>
  <path fill="yellow" fill-rule="nonzero" stroke="black" stroke-width="50" d="M360 7161l4300 4300 -4300 0 0 -4300zm2150 2150m0 2150m-2150 -2150"/>
  <path fill="#00CCFF" fill-rule="nonzero" stroke="black" stroke-width="50" d="M17086 7151l-4300 4300 4300 0 0 -4300zm-2150 2150m0 2150m2150 -2150"/>
  <path fill="#00CCFF" fill-rule="nonzero" stroke="black" stroke-width="50" d="M17085 4664l-4300 -4300 4300 0 0 4300zm-2150 -2150m0 -2150m2150 2150"/>
  <path fill="#00CCFF" fill-rule="nonzero" stroke="black" stroke-width="50" d="M372 4670l4300 -4300 -4300 0 0 4300zm2150 -2150m0 -2150m-2150 2150"/>
 </g>
</svg>
