<?xml version="1.0" encoding="UTF-8"?>
<!DOCTYPE svg PUBLIC "-//W3C//DTD SVG 1.1//EN" "http://www.w3.org/Graphics/SVG/1.1/DTD/svg11.dtd">
<!-- Creator: CorelDRAW -->
<svg xmlns="http://www.w3.org/2000/svg" xml:space="preserve" width="174.413mm" height="254.847mm" version="1.1" shape-rendering="geometricPrecision" text-rendering="geometricPrecision" image-rendering="optimizeQuality" fill-rule="evenodd" clip-rule="evenodd"
viewBox="0 0 17441 25485"
 xmlns:xlink="http://www.w3.org/1999/xlink">
 <rect fill="#FEFEFE" width="17441" height="25485"/>
 <g id="Слой_x0020_1">
  <metadata id="CorelCorpID_0Corel-Layer"/>
  <g id="_1250565312">
   <rect fill="none" stroke="#2B2A29" stroke-width="20" width="17441" height="11811"/>
   <rect fill="none" stroke="#2B2A29" stroke-width="20" y="13674" width="17441" height="11811"/>
  </g>
  <g id="_1250563840">
   <rect fill="#00CCFF" stroke="black" stroke-width="50" x="2601" y="7078" width="3048" height="3048"/>
   <rect fill="none" stroke="#2B2A29" stroke-width="50" x="5684" y="7078" width="3048" height="3048"/>
   <rect fill="#00CCFF" stroke="black" stroke-width="50" transform="matrix(1.81145E-014 -0.874619 0.683965 2.31639E-014 8720.67 10126.4)" width="4826" height="2540"/>
   <rect fill="#00CCFF" stroke="black" stroke-width="50" transform="matrix(1.81145E-014 -0.874619 0.683965 2.31639E-014 13059.6 10126.4)" width="4826" height="2540"/>
   <path fill="red" fill-rule="nonzero" stroke="black" stroke-width="50" d="M8723 1842l6159 4036 -6159 0 0 -4036zm3080 2018m0 2018m-3080 -2018"/>
   <path fill="red" fill-rule="nonzero" stroke="black" stroke-width="50" d="M8732 3020l-6160 4036 6160 0 0 -4036zm-3080 2018m0 2018m3080 -2018"/>
   <rect fill="red" stroke="black" stroke-width="50" transform="matrix(1.69941E-014 -0.684209 0.641661 1.8121E-014 3752.26 5201.73)" width="4826" height="2540"/>
  </g>
 </g>
</svg>
