<?xml version="1.0" encoding="UTF-8"?>
<!DOCTYPE svg PUBLIC "-//W3C//DTD SVG 1.1//EN" "http://www.w3.org/Graphics/SVG/1.1/DTD/svg11.dtd">
<!-- Creator: CorelDRAW -->
<svg xmlns="http://www.w3.org/2000/svg" xml:space="preserve" width="174.413mm" height="254.847mm" version="1.1" shape-rendering="geometricPrecision" text-rendering="geometricPrecision" image-rendering="optimizeQuality" fill-rule="evenodd" clip-rule="evenodd"
viewBox="0 0 17441 25485"
 xmlns:xlink="http://www.w3.org/1999/xlink">
 <rect fill="#FEFEFE" width="17441" height="25485"/>
 <g id="Слой_x0020_1">
  <metadata id="CorelCorpID_0Corel-Layer"/>
  <g id="_1336315056">
   <rect fill="none" stroke="#2B2A29" stroke-width="20" width="17441" height="11811"/>
   <rect fill="none" stroke="#2B2A29" stroke-width="20" y="13674" width="17441" height="11811"/>
  </g>
  <g id="_1272225696">
   <polygon fill="#00CCFF" stroke="black" stroke-width="50" points="10334,8945 10334,5819 16587,5819 "/>
   <polygon fill="none" stroke="black" stroke-width="50" points="10636,8803 11866,11338 13054,10758 11824,8228 "/>
   <polygon fill="none" stroke="black" stroke-width="50" points="12305,7998 13536,10529 14848,9888 13618,7357 "/>
   <polygon fill="none" stroke="black" stroke-width="50" points="9979,4080 8632,2654 6706,3017 8053,4439 "/>
   <polygon fill="none" stroke="black" stroke-width="50" points="15148,5102 13802,3677 11876,4039 13222,5461 "/>
   <polygon fill="#00CCFF" stroke="#2B2A29" stroke-width="50" points="10911,2989 11377,3530 11843,4071 11665,4947 11487,5823 10911,5823 10336,5823 10158,4947 9980,4071 10446,3530 "/>
   <polygon fill="none" stroke="#2B2A29" stroke-width="50" points="5388,3803 5709,4474 6031,5145 6818,5379 7605,5612 7283,4941 6961,4269 6174,4036 "/>
   <polygon fill="#00CCFF" stroke="black" stroke-width="50" points="3230,8191 3626,9675 4022,11160 3230,11160 2438,11160 2834,9675 "/>
   <rect fill="#00CCFF" stroke="black" stroke-width="50" transform="matrix(2.22087E-014 -0.986533 0.838553 2.61279E-014 3238.54 8163.14)" width="4826" height="2540"/>
   <circle fill="white" stroke="black" stroke-width="50" cx="4304" cy="2175" r="1128"/>
   <polygon fill="none" stroke="#2B2A29" stroke-width="50" points="3220,3803 2898,4474 2576,5145 1790,5379 1003,5612 1325,4941 1647,4269 2433,4036 "/>
   <polygon fill="#00CCFF" stroke="black" stroke-width="50" points="5342,8147 6797,8640 8252,9132 7814,9791 7375,10450 6359,9299 "/>
   <circle fill="white" stroke="black" stroke-width="50" cx="10978" cy="1862" r="1128"/>
  </g>
 </g>
</svg>
