<?xml version="1.0" encoding="UTF-8"?>
<!DOCTYPE svg PUBLIC "-//W3C//DTD SVG 1.1//EN" "http://www.w3.org/Graphics/SVG/1.1/DTD/svg11.dtd">
<!-- Creator: CorelDRAW -->
<svg xmlns="http://www.w3.org/2000/svg" xml:space="preserve" width="174.413mm" height="254.847mm" version="1.1" shape-rendering="geometricPrecision" text-rendering="geometricPrecision" image-rendering="optimizeQuality" fill-rule="evenodd" clip-rule="evenodd"
viewBox="0 0 17441 25485"
 xmlns:xlink="http://www.w3.org/1999/xlink">
 <rect fill="#FEFEFE" width="17441" height="25485"/>
 <g id="Слой_x0020_1">
  <metadata id="CorelCorpID_0Corel-Layer"/>
  <rect fill="none" stroke="#2B2A29" stroke-width="20" width="17441" height="11811"/>
  <rect fill="none" stroke="#2B2A29" stroke-width="20" y="13674" width="17441" height="11811"/>
  <polygon fill="none" stroke="#2B2A29" stroke-width="50" points="2922,8511 3347,9248 3772,9984 3346,10720 2921,11456 2071,11455 1221,11455 796,10718 371,9982 797,9246 1222,8510 2072,8511 "/>
  <polygon fill="red" stroke="black" stroke-width="50" points="16242,378 16666,1114 17091,1851 16665,2586 16240,3322 15390,3322 14540,3321 14115,2585 13691,1848 14116,1112 14542,377 15392,377 "/>
  <polyline fill="none" stroke="black" stroke-width="46.98" points="11019,3528 11096,3533 11172,3537 11248,3546 11325,3560 11397,3578 11469,3596 11541,3623 11608,3650 11676,3681 11738,3713 11806,3749 11864,3789 11927,3830 11981,3874 12040,3924 12089,3973 12139,4027 12188,4081 12233,4140 12273,4198 12314,4261 12350,4324 12386,4387 12417,4454 12444,4526 12467,4594 12485,4666 12503,4742 12516,4814 12525,4890 12534,4967 12534,5048 12534,5124 12525,5201 12516,5277 12503,5353 12485,5425 12467,5497 12444,5569 12417,5637 12386,5704 12350,5771 12314,5834 12273,5893 12233,5956 12188,6010 12139,6068 12089,6118 12040,6172 11981,6216 11927,6261 11864,6306 11806,6342 11738,6383 11676,6414 11608,6446 11541,6473 11469,6495 11397,6518 11325,6531 11248,6545 11172,6558 11096,6563 11019,6563 10938,6563 10862,6558 10785,6545 10714,6531 10637,6518 10565,6495 10498,6473 10426,6446 10358,6414 10295,6383 10233,6342 10170,6306 10111,6261 10053,6216 9999,6172 9945,6118 9895,6068 9846,6010 9801,5956 9761,5893 9720,5834 9684,5771 9648,5704 9621,5637 9594,5569 9567,5497 9549,5425 9531,5353 9518,5277 9509,5201 9504,5124 9500,5048 9504,4967 9509,4890 9518,4814 9531,4742 9549,4666 9567,4594 9594,4526 9621,4454 9648,4387 9684,4324 9720,4261 9761,4198 9801,4140 9846,4081 9895,4027 9945,3973 9999,3924 10053,3874 10111,3830 10170,3789 10233,3749 10295,3713 10358,3681 10426,3650 10498,3623 10565,3596 10637,3578 10714,3560 10785,3546 10862,3537 10938,3533 11019,3528 "/>
  <polyline fill="none" stroke="black" stroke-width="46.98" points="4951,3865 5027,3870 5103,3874 5180,3883 5256,3897 5328,3915 5400,3933 5472,3960 5540,3987 5607,4018 5670,4050 5737,4086 5796,4126 5859,4167 5913,4212 5971,4261 6021,4310 6070,4364 6119,4418 6164,4477 6205,4535 6245,4598 6281,4661 6317,4724 6349,4791 6376,4863 6398,4931 6416,5003 6434,5079 6448,5151 6457,5228 6466,5304 6466,5385 6466,5461 6457,5538 6448,5614 6434,5691 6416,5762 6398,5834 6376,5906 6349,5974 6317,6041 6281,6109 6245,6172 6205,6234 6164,6293 6119,6347 6070,6405 6021,6455 5971,6509 5913,6554 5859,6599 5796,6644 5737,6679 5670,6720 5607,6751 5540,6783 5472,6810 5400,6832 5328,6855 5256,6868 5180,6882 5103,6895 5027,6900 4951,6900 4870,6900 4793,6895 4717,6882 4645,6868 4569,6855 4497,6832 4429,6810 4357,6783 4290,6751 4227,6720 4164,6679 4101,6644 4043,6599 3984,6554 3930,6509 3876,6455 3827,6405 3777,6347 3732,6293 3692,6234 3652,6172 3616,6109 3580,6041 3553,5974 3526,5906 3499,5834 3481,5762 3463,5691 3449,5614 3440,5538 3436,5461 3431,5385 3436,5304 3440,5228 3449,5151 3463,5079 3481,5003 3499,4931 3526,4863 3553,4791 3580,4724 3616,4661 3652,4598 3692,4535 3732,4477 3777,4418 3827,4364 3876,4310 3930,4261 3984,4212 4043,4167 4101,4126 4164,4086 4227,4050 4290,4018 4357,3987 4429,3960 4497,3933 4569,3915 4645,3897 4717,3883 4793,3874 4870,3870 4951,3865 "/>
  <polygon fill="red" stroke="black" stroke-width="50" points="8775,3303 8775,6788 7191,6788 7191,3303 "/>
 </g>
</svg>
