<?xml version="1.0" encoding="UTF-8"?>
<!DOCTYPE svg PUBLIC "-//W3C//DTD SVG 1.1//EN" "http://www.w3.org/Graphics/SVG/1.1/DTD/svg11.dtd">
<!-- Creator: CorelDRAW -->
<svg xmlns="http://www.w3.org/2000/svg" xml:space="preserve" width="174.413mm" height="254.847mm" version="1.1" shape-rendering="geometricPrecision" text-rendering="geometricPrecision" image-rendering="optimizeQuality" fill-rule="evenodd" clip-rule="evenodd"
viewBox="0 0 17441 25485"
 xmlns:xlink="http://www.w3.org/1999/xlink">
 <rect fill="#FEFEFE" width="17441" height="25485"/>
 <g id="Слой_x0020_1">
  <metadata id="CorelCorpID_0Corel-Layer"/>
  <g id="_1510016928">
   <rect fill="none" stroke="#2B2A29" stroke-width="20" width="17441" height="11811"/>
   <rect fill="none" stroke="#2B2A29" stroke-width="20" y="13674" width="17441" height="11811"/>
  </g>
  <g id="_1326711072">
   <g>
    <polygon fill="blue" stroke="#2B2A29" stroke-width="50" points="3397,7468 3031,8326 2664,9185 3038,10040 3411,10895 3778,10037 4144,9179 3771,8323 "/>
    <polygon fill="#33CC33" stroke="#2B2A29" stroke-width="50" points="866,8571 1237,9427 1609,10284 2487,10601 3365,10918 2993,10061 2622,9205 1744,8888 "/>
    <polygon fill="#33CC33" stroke="#2B2A29" stroke-width="50" points="5950,8571 5578,9427 5207,10284 4329,10601 3451,10918 3823,10061 4194,9205 5072,8888 "/>
   </g>
   <g>
    <polygon fill="blue" stroke="#2B2A29" stroke-width="50" points="14225,7468 13858,8326 13492,9185 13865,10040 14239,10895 14605,10037 14972,9179 14598,8323 "/>
    <polygon fill="#33CC33" stroke="#2B2A29" stroke-width="50" points="11693,8571 12065,9427 12436,10284 13314,10601 14192,10918 13821,10061 13449,9205 12571,8888 "/>
    <polygon fill="#33CC33" stroke="#2B2A29" stroke-width="50" points="16777,8571 16406,9427 16034,10284 15156,10601 14279,10918 14650,10061 15021,9205 15899,8888 "/>
   </g>
   <g>
    <polygon fill="#33CC33" stroke="#2B2A29" stroke-width="50" points="6261,7974 6391,8899 6520,9823 7281,10363 8042,10903 7913,9979 7784,9054 7023,8514 "/>
    <rect fill="#33CC33" stroke="#2B2A29" stroke-width="50" x="8071" y="6056" width="1521" height="4861"/>
    <polygon fill="#33CC33" stroke="#2B2A29" stroke-width="50" points="11400,7974 11271,8899 11142,9823 10381,10363 9620,10903 9749,9979 9878,9054 10639,8514 "/>
    <circle fill="blue" stroke="black" stroke-width="50" cx="8864" cy="4956" r="928"/>
   </g>
  </g>
  <circle fill="yellow" stroke="black" stroke-width="50" cx="2420" cy="2247" r="1063"/>
 </g>
</svg>
