<?xml version="1.0" encoding="UTF-8"?>
<!DOCTYPE svg PUBLIC "-//W3C//DTD SVG 1.1//EN" "http://www.w3.org/Graphics/SVG/1.1/DTD/svg11.dtd">
<!-- Creator: CorelDRAW -->
<svg xmlns="http://www.w3.org/2000/svg" xml:space="preserve" width="174.413mm" height="254.847mm" version="1.1" shape-rendering="geometricPrecision" text-rendering="geometricPrecision" image-rendering="optimizeQuality" fill-rule="evenodd" clip-rule="evenodd"
viewBox="0 0 17441 25485"
 xmlns:xlink="http://www.w3.org/1999/xlink">
 <rect fill="#FEFEFE" width="17441" height="25485"/>
 <g id="Слой_x0020_1">
  <metadata id="CorelCorpID_0Corel-Layer"/>
  <g id="_1510020064">
   <rect fill="none" stroke="#2B2A29" stroke-width="20" width="17441" height="11811"/>
   <rect fill="none" stroke="#2B2A29" stroke-width="20" y="13674" width="17441" height="11811"/>
  </g>
  <g id="_1510017568">
   <polygon fill="none" stroke="black" stroke-width="50" points="9691,4808 9691,9576 6040,9576 "/>
   <polygon fill="red" stroke="black" stroke-width="50" points="9691,4808 9691,9576 13337,9576 "/>
   <polyline fill="none" stroke="black" stroke-width="50" points="9645,2063 9717,2067 9784,2071 9856,2079 9923,2092 9991,2105 10058,2126 10121,2147 10185,2172 10248,2197 10307,2227 10366,2261 10421,2294 10476,2332 10526,2375 10577,2417 10627,2463 10674,2509 10716,2560 10758,2611 10796,2665 10834,2720 10868,2775 10897,2834 10922,2893 10948,2956 10973,3019 10990,3083 11007,3150 11019,3218 11028,3285 11032,3352 11032,3424 11032,3496 11028,3563 11019,3631 11007,3698 10990,3766 10973,3829 10948,3892 10922,3955 10897,4014 10868,4073 10834,4128 10796,4183 10758,4238 10716,4288 10674,4339 10627,4385 10577,4432 10526,4474 10476,4516 10421,4554 10366,4588 10307,4621 10248,4651 10185,4676 10121,4701 10058,4723 9991,4739 9923,4756 9856,4769 9784,4777 9717,4782 9645,4786 9573,4782 9502,4777 9434,4769 9363,4756 9295,4739 9232,4723 9165,4701 9101,4676 9042,4651 8983,4621 8924,4588 8869,4554 8815,4516 8760,4474 8709,4432 8663,4385 8617,4339 8570,4288 8532,4238 8494,4183 8456,4128 8423,4073 8393,4014 8364,3955 8338,3892 8317,3829 8300,3766 8284,3698 8271,3631 8262,3563 8258,3496 8254,3424 8258,3352 8262,3285 8271,3218 8284,3150 8300,3083 8317,3019 8338,2956 8364,2893 8393,2834 8423,2775 8456,2720 8490,2665 8532,2611 8570,2560 8617,2509 8663,2463 8709,2417 8760,2375 8815,2332 8869,2294 8924,2261 8983,2227 9042,2197 9101,2172 9165,2147 9232,2126 9295,2105 9363,2092 9434,2079 9502,2071 9573,2067 9645,2063 "/>
   <polygon fill="red" stroke="black" stroke-width="50" points="12803,1165 12874,2796 11365,3293 10370,1991 11251,663 "/>
   <polygon fill="none" stroke="black" stroke-width="50" points="14290,5792 11887,7656 10973,6480 13377,4616 "/>
   <g>
    <polygon fill="red" points="5949,4714 8359,6563 7451,7739 5041,5890 "/>
    <path id="1" fill="black" fill-rule="nonzero" d="M8375 6543l4 35 -35 5 -2410 -1849 30 -40 2411 1849zm0 0l19 16 -15 19 -4 -35zm-904 1212l-35 4 -4 -35 907 -1176 40 30 -908 1177zm0 0l-15 19 -20 -15 35 -4zm-2445 -1845l-5 -35 36 -4 2410 1849 -31 39 -2410 -1849zm0 0l-20 -15 15 -20 5 35zm903 -1211l35 -5 5 35 -908 1177 -40 -31 908 -1176zm0 0l16 -20 19 15 -35 5z"/>
   </g>
   <polygon fill="red" stroke="black" stroke-width="50" points="10355,9578 12252,9586 13302,11167 11405,11159 "/>
   <polygon fill="red" stroke="black" stroke-width="50" points="9040,9584 8007,11177 6110,11207 7143,9613 "/>
   <polygon fill="none" stroke="black" stroke-width="50" points="2103,7285 3367,5873 5243,6135 3983,7551 "/>
   <polygon fill="red" stroke="black" stroke-width="50" points="16381,8084 16381,11064 14859,11064 14859,8084 "/>
   <polygon fill="red" stroke="black" stroke-width="50" points="2693,8084 2693,11064 1176,11064 1176,8084 "/>
  </g>
 </g>
</svg>
