<?xml version="1.0" encoding="UTF-8"?>
<!DOCTYPE svg PUBLIC "-//W3C//DTD SVG 1.1//EN" "http://www.w3.org/Graphics/SVG/1.1/DTD/svg11.dtd">
<!-- Creator: CorelDRAW -->
<svg xmlns="http://www.w3.org/2000/svg" xml:space="preserve" width="174.413mm" height="254.847mm" version="1.1" shape-rendering="geometricPrecision" text-rendering="geometricPrecision" image-rendering="optimizeQuality" fill-rule="evenodd" clip-rule="evenodd"
viewBox="0 0 17441 25485"
 xmlns:xlink="http://www.w3.org/1999/xlink">
 <rect fill="#FEFEFE" width="17441" height="25485"/>
 <g id="Слой_x0020_1">
  <metadata id="CorelCorpID_0Corel-Layer"/>
  <g id="_1218474384">
   <rect fill="none" stroke="#2B2A29" stroke-width="20" width="17441" height="11811"/>
   <rect fill="none" stroke="#2B2A29" stroke-width="20" y="13674" width="17441" height="11811"/>
  </g>
  <polygon fill="fuchsia" stroke="black" stroke-width="50" points="8533,1508 7907,2806 8646,4040 9272,2744 "/>
  <g>
   <polygon fill="fuchsia" points="12230,4060 10773,3824 9782,4853 11236,5089 "/>
   <path id="1" fill="black" fill-rule="nonzero" d="M10776 3809l1457 236 -5 30 -1457 -236 -9 -25 14 -5zm-14 5l5 -6 9 1 -14 5zm-992 1028l992 -1028 23 20 -992 1029 -14 4 -9 -25zm9 25l-29 -4 20 -21 9 25zm1455 237l-1455 -237 5 -29 1455 236 9 25 -14 5zm14 -5l-6 6 -8 -1 14 -5zm994 -1029l-994 1029 -23 -20 994 -1029 14 -5 9 25zm-9 -25l29 5 -20 20 -9 -25z"/>
  </g>
  <polygon fill="fuchsia" stroke="black" stroke-width="50" points="10925,8129 10661,6712 9335,6155 9598,7570 "/>
  <polygon fill="fuchsia" stroke="black" stroke-width="50" points="6561,8274 7830,7590 7955,6157 6688,6839 "/>
  <polygon fill="fuchsia" stroke="black" stroke-width="50" points="5080,4202 6129,5190 7528,4856 6481,3869 "/>
  <polygon fill="yellow" stroke="#2B2A29" stroke-width="50" points="8644,4047 9197,4449 9751,4851 9539,5502 9328,6152 8644,6152 7960,6152 7748,5502 7537,4851 8090,4449 "/>
  <g>
   <g>
    <polygon fill="#33CC33" points="13781,1033 12198,2884 14333,6554 "/>
    <path id="1" fill="black" fill-rule="nonzero" d="M12189 2868l1583 -1851 18 32 -1583 1851 -20 -3 2 -29zm-2 29l-10 -16 12 -13 -2 29zm2135 3670l-2135 -3670 22 -26 2135 3670 3 10 -25 16zm25 -16l8 73 -33 -57 25 -16zm-551 -5521l551 5521 -29 6 -551 -5521 5 -19 24 13zm-24 -13l20 -24 4 37 -24 -13z"/>
   </g>
   <ellipse fill="#00CCFF" stroke="black" stroke-width="50" transform="matrix(0.684757 -0.131511 0.0802351 0.603585 15272.3 6896.24)" rx="2498" ry="953"/>
   <g>
    <polygon fill="#33CC33" points="15123,927 16706,2778 14571,6448 "/>
    <path id="1" fill="black" fill-rule="nonzero" d="M16715 2762l2 29 -21 3 -1583 -1851 19 -32 1583 1851zm0 0l11 13 -9 16 -2 -29zm-2133 3699l-26 -16 4 -10 2134 -3670 23 26 -2135 3670zm0 0l-33 58 7 -74 26 16zm526 -5537l24 -13 5 19 -551 5521 -30 -6 552 -5521zm0 0l4 -36 20 23 -24 13z"/>
   </g>
  </g>
  <g>
   <g>
    <polygon fill="#33CC33" points="2135,4534 552,6385 2687,10055 "/>
    <path id="1" fill="black" fill-rule="nonzero" d="M543 6368l1583 -1850 18 32 -1583 1851 -20 -3 2 -30zm-2 30l-10 -16 12 -14 -2 30zm2135 3670l-2135 -3670 22 -27 2135 3670 3 11 -25 16zm25 -16l8 73 -33 -57 25 -16zm-551 -5521l551 5521 -29 6 -551 -5521 5 -19 24 13zm-24 -13l20 -24 4 37 -24 -13z"/>
   </g>
   <ellipse fill="#00CCFF" stroke="black" stroke-width="50" transform="matrix(0.684757 -0.131511 0.0802351 0.603585 3626.31 10396.8)" rx="2498" ry="953"/>
   <g>
    <polygon fill="#33CC33" points="3477,4428 5060,6279 2925,9949 "/>
    <path id="1" fill="black" fill-rule="nonzero" d="M5069 6263l2 29 -21 3 -1583 -1851 19 -32 1583 1851zm0 0l11 13 -9 16 -2 -29zm-2133 3699l-26 -16 4 -10 2134 -3671 23 27 -2135 3670zm0 0l-33 57 7 -73 26 16zm526 -5537l24 -13 5 19 -551 5521 -30 -6 552 -5521zm0 0l4 -37 20 24 -24 13z"/>
   </g>
  </g>
 </g>
</svg>
