<?xml version="1.0" encoding="UTF-8"?>
<!DOCTYPE svg PUBLIC "-//W3C//DTD SVG 1.1//EN" "http://www.w3.org/Graphics/SVG/1.1/DTD/svg11.dtd">
<!-- Creator: CorelDRAW -->
<svg xmlns="http://www.w3.org/2000/svg" xml:space="preserve" width="174.413mm" height="254.847mm" version="1.1" shape-rendering="geometricPrecision" text-rendering="geometricPrecision" image-rendering="optimizeQuality" fill-rule="evenodd" clip-rule="evenodd"
viewBox="0 0 17441 25485"
 xmlns:xlink="http://www.w3.org/1999/xlink">
 <rect fill="#FEFEFE" width="17441" height="25485"/>
 <g id="Слой_x0020_1">
  <metadata id="CorelCorpID_0Corel-Layer"/>
  <rect fill="none" stroke="#2B2A29" stroke-width="20" width="17441" height="11811"/>
  <rect fill="none" stroke="#2B2A29" stroke-width="20" y="13674" width="17441" height="11811"/>
  <rect fill="none" stroke="#2B2A29" stroke-width="20" x="372" y="357" width="5821" height="3064"/>
  <line fill="none" stroke="#2B2A29" stroke-width="20" x1="372" y1="357" x2="6193" y2= "3421" />
  <polygon fill="fuchsia" stroke="black" stroke-width="50" points="372,357 372,3421 6193,3421 "/>
  <polygon fill="#00CCFF" stroke="black" stroke-width="50" points="6193,357 372,357 6193,3421 "/>
  <rect fill="none" stroke="#2B2A29" stroke-width="20" x="11264" y="8381" width="5821" height="3064"/>
  <line fill="none" stroke="#2B2A29" stroke-width="20" x1="17085" y1="11445" x2="11264" y2= "8381" />
  <polygon fill="fuchsia" stroke="black" stroke-width="50" points="17085,11445 17085,8381 11264,8381 "/>
  <polygon fill="#00CCFF" stroke="black" stroke-width="50" points="11264,11445 17063,11441 11264,8381 "/>
  <polygon fill="#00CCFF" stroke="black" stroke-width="50" points="3640,7695 4180,8630 4719,9565 4178,10500 3638,11434 2559,11434 1479,11433 940,10498 401,9562 941,8628 1481,7693 2561,7694 "/>
  <polygon fill="fuchsia" stroke="black" stroke-width="50" points="16044,371 16583,1306 17122,2242 16582,3176 16042,4111 14962,4110 13883,4109 13344,3174 12804,2239 13345,1304 13885,370 14965,370 "/>
  <circle fill="#00CCFF" stroke="black" stroke-width="50" cx="8721" cy="5906" r="1778"/>
 </g>
</svg>
