<?xml version="1.0" encoding="UTF-8"?>
<!DOCTYPE svg PUBLIC "-//W3C//DTD SVG 1.1//EN" "http://www.w3.org/Graphics/SVG/1.1/DTD/svg11.dtd">
<!-- Creator: CorelDRAW -->
<svg xmlns="http://www.w3.org/2000/svg" xml:space="preserve" width="174.413mm" height="254.847mm" version="1.1" shape-rendering="geometricPrecision" text-rendering="geometricPrecision" image-rendering="optimizeQuality" fill-rule="evenodd" clip-rule="evenodd"
viewBox="0 0 17441 25485"
 xmlns:xlink="http://www.w3.org/1999/xlink">
 <rect fill="#FEFEFE" width="17441" height="25485"/>
 <g id="Слой_x0020_1">
  <metadata id="CorelCorpID_0Corel-Layer"/>
  <g id="_1221555248">
   <rect fill="none" stroke="#2B2A29" stroke-width="20" width="17441" height="11811"/>
   <rect fill="none" stroke="#2B2A29" stroke-width="20" y="13674" width="17441" height="11811"/>
  </g>
  <g id="_1221554256">
   <path fill="none" fill-rule="nonzero" stroke="#2B2A29" stroke-width="20" d="M5375 4263l6653 3291 -6653 0 0 -3291zm3326 1645m0 1646m-3326 -1646"/>
   <path fill="#00CCFF" fill-rule="nonzero" stroke="#2B2A29" stroke-width="20" d="M12048 7551l-6654 -3291 6654 0 0 3291zm-3327 -1645m0 -1646m3327 1646"/>
   <polygon fill="#FF3399" stroke="#2B2A29" stroke-width="20" points="12054,6036 13069,5450 14084,4864 14084,6036 14084,7208 13069,6622 "/>
   <polygon fill="#FF3399" stroke="#2B2A29" stroke-width="20" points="5358,6036 4343,5450 3328,4864 3328,6036 3328,7208 4343,6622 "/>
  </g>
 </g>
</svg>
