<?xml version="1.0" encoding="UTF-8"?>
<!DOCTYPE svg PUBLIC "-//W3C//DTD SVG 1.1//EN" "http://www.w3.org/Graphics/SVG/1.1/DTD/svg11.dtd">
<!-- Creator: CorelDRAW -->
<svg xmlns="http://www.w3.org/2000/svg" xml:space="preserve" width="174.413mm" height="254.847mm" version="1.1" shape-rendering="geometricPrecision" text-rendering="geometricPrecision" image-rendering="optimizeQuality" fill-rule="evenodd" clip-rule="evenodd"
viewBox="0 0 17441 25485"
 xmlns:xlink="http://www.w3.org/1999/xlink">
 <rect fill="#FEFEFE" width="17441" height="25485"/>
 <g id="Слой_x0020_1">
  <metadata id="CorelCorpID_0Corel-Layer"/>
  <g id="_1221562256">
   <rect fill="none" stroke="#2B2A29" stroke-width="20" width="17441" height="11811"/>
   <rect fill="none" stroke="#2B2A29" stroke-width="20" y="13674" width="17441" height="11811"/>
  </g>
  <g id="_1221561008">
   <polygon fill="yellow" stroke="#2B2A29" stroke-width="50" points="9950,9509 8884,8606 7818,7704 8146,6346 8473,4988 9539,5890 10606,6793 10278,8151 "/>
   <polygon fill="yellow" stroke="black" stroke-width="50" points="9072,3161 9132,3883 9193,4606 8525,4887 7856,5168 7382,4619 6908,4070 7284,3450 7659,2829 8366,2995 "/>
   <path fill="#FF6600" fill-rule="nonzero" stroke="#2B2A29" stroke-width="50" d="M2657 4270l5371 2306 -4349 1250 -1022 -3556zm2686 1153m511 1778m-2686 -1153"/>
   <path fill="#FF6600" fill-rule="nonzero" stroke="#2B2A29" stroke-width="50" d="M12763 976l-2998 5019 4256 -1539 -1258 -3480zm-1499 2509m629 1740m1499 -2509"/>
   <polygon fill="#FF6600" stroke="#2B2A29" stroke-width="50" points="13986,7698 13008,7988 12030,8279 11331,7535 10632,6792 11610,6501 12589,6211 13287,6954 "/>
   <polygon fill="#FF6600" stroke="#2B2A29" stroke-width="50" points="5678,10431 6634,10074 7590,9717 7701,8703 7811,7689 6855,8045 5899,8402 5789,9417 "/>
  </g>
 </g>
</svg>
