<?xml version="1.0" encoding="UTF-8"?>
<!DOCTYPE svg PUBLIC "-//W3C//DTD SVG 1.1//EN" "http://www.w3.org/Graphics/SVG/1.1/DTD/svg11.dtd">
<!-- Creator: CorelDRAW -->
<svg xmlns="http://www.w3.org/2000/svg" xml:space="preserve" width="174.413mm" height="254.847mm" version="1.1" shape-rendering="geometricPrecision" text-rendering="geometricPrecision" image-rendering="optimizeQuality" fill-rule="evenodd" clip-rule="evenodd"
viewBox="0 0 17441 25485"
 xmlns:xlink="http://www.w3.org/1999/xlink">
 <rect fill="#FEFEFE" width="17441" height="25485"/>
 <g id="Слой_x0020_1">
  <metadata id="CorelCorpID_0Corel-Layer"/>
  <g id="_1216848624">
   <rect fill="none" stroke="#2B2A29" stroke-width="20" width="17441" height="11811"/>
   <rect fill="none" stroke="#2B2A29" stroke-width="20" y="13674" width="17441" height="11811"/>
  </g>
  <circle fill="none" stroke="#2B2A29" stroke-width="50" cx="8723" cy="4374" r="1158"/>
  <rect fill="blue" stroke="#2B2A29" stroke-width="50" x="7928" y="5594" width="1711" height="3591"/>
  <polygon fill="white" stroke="#2B2A29" stroke-width="50" points="7883,6686 7118,6852 6352,7017 5768,6473 5183,5929 5948,5764 6713,5598 7298,6142 "/>
  <polygon fill="white" stroke="#2B2A29" stroke-width="50" points="9688,6686 10453,6852 11218,7017 11803,6473 12388,5929 11623,5764 10858,5598 10273,6142 "/>
  <path fill="#00CCFF" fill-rule="nonzero" stroke="#2B2A29" stroke-width="50" d="M9650 9212l1552 1275 -1555 -4 3 -1271zm776 637m-1 636m-776 -637"/>
  <path fill="#00CCFF" fill-rule="nonzero" stroke="#2B2A29" stroke-width="50" d="M7912 9212l-1552 1275 1555 -4 -3 -1271zm-776 637m2 636m776 -637"/>
  <path fill="#33CC33" fill-rule="nonzero" stroke="#2B2A29" stroke-width="50" d="M10551 3191l-3582 -5 1793 -1788 1789 1793zm-1791 -2m-894 -897m1790 3"/>
 </g>
</svg>
