<?xml version="1.0" encoding="UTF-8"?>
<!DOCTYPE svg PUBLIC "-//W3C//DTD SVG 1.1//EN" "http://www.w3.org/Graphics/SVG/1.1/DTD/svg11.dtd">
<!-- Creator: CorelDRAW -->
<svg xmlns="http://www.w3.org/2000/svg" xml:space="preserve" width="174.413mm" height="254.847mm" version="1.1" shape-rendering="geometricPrecision" text-rendering="geometricPrecision" image-rendering="optimizeQuality" fill-rule="evenodd" clip-rule="evenodd"
viewBox="0 0 17441 25485"
 xmlns:xlink="http://www.w3.org/1999/xlink">
 <rect fill="#FEFEFE" width="17441" height="25485"/>
 <g id="Слой_x0020_1">
  <metadata id="CorelCorpID_0Corel-Layer"/>
  <g id="_1216850448">
   <rect fill="none" stroke="#2B2A29" stroke-width="20" width="17441" height="11811"/>
   <rect fill="none" stroke="#2B2A29" stroke-width="20" y="13674" width="17441" height="11811"/>
  </g>
  <polygon fill="#FF6600" stroke="#2B2A29" stroke-width="50" points="8731,2778 9354,3712 9977,4646 9356,5577 8736,6509 8112,5575 7489,4641 8110,3710 "/>
  <path fill="white" fill-rule="nonzero" stroke="#2B2A29" stroke-width="50" d="M10655 1553l-542 2815 -1136 -1678 1678 -1137zm-271 1408m-839 568m271 -1407"/>
  <path fill="white" fill-rule="nonzero" stroke="#2B2A29" stroke-width="50" d="M6869 1544l541 2815 1137 -1678 -1678 -1137zm270 1408m839 568m-270 -1407"/>
  <path fill="#FF6600" fill-rule="nonzero" stroke="#2B2A29" stroke-width="50" d="M8791 6665l16 4369 2177 -2192 -2193 -2177zm8 2185m1096 1088m-7 -2185"/>
  <path fill="#FF6600" fill-rule="nonzero" stroke="#2B2A29" stroke-width="50" d="M8686 6656l21 4369 -2195 -2174 2174 -2195zm10 2184m-1087 1098m-10 -2185"/>
  <path fill="white" fill-rule="nonzero" stroke="#2B2A29" stroke-width="50" d="M5263 7813l1999 2054 -2026 -27 27 -2027zm1000 1027m-14 1013m-1000 -1027"/>
 </g>
</svg>
