<?xml version="1.0" encoding="UTF-8"?>
<!DOCTYPE svg PUBLIC "-//W3C//DTD SVG 1.1//EN" "http://www.w3.org/Graphics/SVG/1.1/DTD/svg11.dtd">
<!-- Creator: CorelDRAW -->
<svg xmlns="http://www.w3.org/2000/svg" xml:space="preserve" width="174.413mm" height="254.847mm" version="1.1" shape-rendering="geometricPrecision" text-rendering="geometricPrecision" image-rendering="optimizeQuality" fill-rule="evenodd" clip-rule="evenodd"
viewBox="0 0 17441 25485"
 xmlns:xlink="http://www.w3.org/1999/xlink">
 <rect fill="#FEFEFE" width="17441" height="25485"/>
 <g id="Слой_x0020_1">
  <metadata id="CorelCorpID_0Corel-Layer"/>
  <g id="_1223914064">
   <rect fill="none" stroke="#2B2A29" stroke-width="20" width="17441" height="11811"/>
   <rect fill="none" stroke="#2B2A29" stroke-width="20" y="13674" width="17441" height="11811"/>
  </g>
  <rect fill="blue" stroke="#2B2A29" stroke-width="50" x="7369" y="2537" width="2272" height="6601"/>
  <path fill="none" fill-rule="nonzero" stroke="#2B2A29" stroke-width="50" d="M4884 10451l2439 -2984 0 2984 -2439 0zm1219 -1492m1220 0m-1220 1492"/>
  <rect fill="red" stroke="#2B2A29" stroke-width="50" x="7367" y="9146" width="2276" height="937"/>
  <path fill="none" fill-rule="nonzero" stroke="#2B2A29" stroke-width="50" d="M12085 10451l-2439 -2984 0 2984 2439 0zm-1219 -1492m-1220 0m1220 1492"/>
  <path fill="white" fill-rule="nonzero" stroke="#2B2A29" stroke-width="50" d="M7072 2544l2866 0 -1433 -1433 -1433 1433zm1433 0m717 -716m-1434 0"/>
  <circle fill="yellow" stroke="#2B2A29" stroke-width="50" cx="8540" cy="4151" r="711"/>
 </g>
</svg>
