<?xml version="1.0" encoding="UTF-8"?>
<!DOCTYPE svg PUBLIC "-//W3C//DTD SVG 1.1//EN" "http://www.w3.org/Graphics/SVG/1.1/DTD/svg11.dtd">
<!-- Creator: CorelDRAW -->
<svg xmlns="http://www.w3.org/2000/svg" xml:space="preserve" width="174.413mm" height="254.847mm" version="1.1" shape-rendering="geometricPrecision" text-rendering="geometricPrecision" image-rendering="optimizeQuality" fill-rule="evenodd" clip-rule="evenodd"
viewBox="0 0 17441 25485"
 xmlns:xlink="http://www.w3.org/1999/xlink">
 <rect fill="#FEFEFE" width="17441" height="25485"/>
 <g id="Слой_x0020_1">
  <metadata id="CorelCorpID_0Corel-Layer"/>
  <g id="_1216324128">
   <rect fill="none" stroke="#2B2A29" stroke-width="20" width="17441" height="11811"/>
   <rect fill="none" stroke="#2B2A29" stroke-width="20" y="13674" width="17441" height="11811"/>
  </g>
  <polygon fill="white" stroke="#2B2A29" stroke-width="50" points="10501,1293 9767,2252 9033,3210 9760,4169 10487,5127 11221,4169 11955,3210 11228,2252 "/>
  <path fill="red" fill-rule="nonzero" stroke="#2B2A29" stroke-width="50" d="M10515 10703l-20 -5504 -2742 2762 2762 2742zm-10 -2752m-1381 -1371m10 2752"/>
  <path fill="red" fill-rule="nonzero" stroke="#2B2A29" stroke-width="50" d="M10512 8493l12 -3346 1667 1679 -1679 1667zm6 -1673m839 -834m-6 1673"/>
  <polygon fill="red" stroke="#2B2A29" stroke-width="50" points="12199,6884 10556,8497 10564,10704 12233,8874 "/>
  <path fill="blue" fill-rule="nonzero" stroke="#2B2A29" stroke-width="50" d="M10465 10826l-3910 -3874 18 3892 3892 -18zm-1955 -1937m-1946 9m1955 1937"/>
  <path fill="blue" fill-rule="nonzero" stroke="#2B2A29" stroke-width="50" d="M4269 9171l2186 -2211 12 2198 -2198 13zm1093 -1106m1099 -6m-1093 1105"/>
  <path fill="#33CC33" fill-rule="nonzero" stroke="#2B2A29" stroke-width="50" d="M2612 9189l2478 0 -1239 1239 -1239 -1239zm1239 0m620 620m-1239 0"/>
 </g>
</svg>
