<?xml version="1.0" encoding="UTF-8"?>
<!DOCTYPE svg PUBLIC "-//W3C//DTD SVG 1.1//EN" "http://www.w3.org/Graphics/SVG/1.1/DTD/svg11.dtd">
<!-- Creator: CorelDRAW -->
<svg xmlns="http://www.w3.org/2000/svg" xml:space="preserve" width="174.413mm" height="254.847mm" version="1.1" shape-rendering="geometricPrecision" text-rendering="geometricPrecision" image-rendering="optimizeQuality" fill-rule="evenodd" clip-rule="evenodd"
viewBox="0 0 17441 25485"
 xmlns:xlink="http://www.w3.org/1999/xlink">
 <rect fill="#FEFEFE" width="17441" height="25485"/>
 <g id="Слой_x0020_1">
  <metadata id="CorelCorpID_0Corel-Layer"/>
  <g id="_1232405936">
   <rect fill="none" stroke="#2B2A29" stroke-width="20" width="17441" height="11811"/>
   <rect fill="none" stroke="#2B2A29" stroke-width="20" y="13674" width="17441" height="11811"/>
  </g>
  <g id="_1232404080">
   <path fill="#00CCFF" fill-rule="nonzero" stroke="#2B2A29" stroke-width="50" d="M3835 7649l3642 -3643 0 3643 -3642 0zm1821 -1821m1821 0m-1821 1821"/>
   <path fill="#00CCFF" fill-rule="nonzero" stroke="#2B2A29" stroke-width="50" d="M11304 4672l-3642 -3643 0 3643 3642 0zm-1821 -1822m-1821 0m1821 1822"/>
   <rect fill="red" stroke="#2B2A29" stroke-width="50" x="8620" y="4867" width="2623" height="2623"/>
   <path fill="#00CCFF" fill-rule="nonzero" stroke="#2B2A29" stroke-width="50" d="M11468 7549l0 -2632 1316 1316 -1316 1316zm0 -1316m658 -658m0 1316"/>
   <path fill="#33CC33" fill-rule="nonzero" stroke="#2B2A29" stroke-width="50" d="M7528 7819l3683 0 -1841 1839 -1842 -1839zm1842 0m920 919m-1841 0"/>
   <path fill="yellow" fill-rule="nonzero" stroke="#2B2A29" stroke-width="50" d="M6085 7806l1366 1365 0 -1365 -1366 0zm683 683m683 0m-683 -683"/>
   <polygon fill="#00CCFF" stroke="#2B2A29" stroke-width="50" points="7542,9332 7545,7965 9329,9788 9329,10949 "/>
   <polygon fill="#00CCFF" stroke="#2B2A29" stroke-width="50" points="11204,9333 11201,7965 9417,9788 9417,10949 "/>
   <path fill="yellow" fill-rule="nonzero" stroke="#2B2A29" stroke-width="50" d="M11386 9229l1318 -1413 -1365 48 47 1365zm659 -707m-24 -682m-658 706"/>
  </g>
 </g>
</svg>
