<?xml version="1.0" encoding="UTF-8"?>
<!DOCTYPE svg PUBLIC "-//W3C//DTD SVG 1.1//EN" "http://www.w3.org/Graphics/SVG/1.1/DTD/svg11.dtd">
<!-- Creator: CorelDRAW -->
<svg xmlns="http://www.w3.org/2000/svg" xml:space="preserve" width="174.413mm" height="254.847mm" version="1.1" shape-rendering="geometricPrecision" text-rendering="geometricPrecision" image-rendering="optimizeQuality" fill-rule="evenodd" clip-rule="evenodd"
viewBox="0 0 17441 25485"
 xmlns:xlink="http://www.w3.org/1999/xlink">
 <rect fill="#FEFEFE" width="17441" height="25485"/>
 <g id="Слой_x0020_1">
  <metadata id="CorelCorpID_0Corel-Layer"/>
  <g id="_1232406896">
   <rect fill="none" stroke="#2B2A29" stroke-width="20" width="17441" height="11811"/>
   <rect fill="none" stroke="#2B2A29" stroke-width="20" y="13674" width="17441" height="11811"/>
  </g>
  <rect fill="yellow" stroke="#2B2A29" stroke-width="50" transform="matrix(2.10687E-014 -1.32893 0.795509 3.51961E-014 8052.27 4175.84)" width="804" height="3344"/>
  <path fill="blue" fill-rule="nonzero" stroke="#2B2A29" stroke-width="50" d="M10843 4309l-3075 3048 13 -3061 3062 13zm-1538 1524m-1530 -7m1537 -1524"/>
  <path fill="red" fill-rule="nonzero" stroke="#2B2A29" stroke-width="50" d="M10913 4382l-29 6150 -3061 -3090 3090 -3060zm-15 3075m-1544 1530m14 -3075"/>
  <path fill="blue" fill-rule="nonzero" stroke="#2B2A29" stroke-width="50" d="M10837 10605l-3061 -3062 0 3062 3061 0zm-1530 -1531m-1531 0m1531 1531"/>
  <polygon fill="#FE8F00" stroke="#2B2A29" stroke-width="50" points="9455,1083 9225,1631 8995,2179 9220,2519 9446,2860 9676,2312 9907,1764 9681,1424 "/>
 </g>
</svg>
