<?xml version="1.0" encoding="UTF-8"?>
<!DOCTYPE svg PUBLIC "-//W3C//DTD SVG 1.1//EN" "http://www.w3.org/Graphics/SVG/1.1/DTD/svg11.dtd">
<!-- Creator: CorelDRAW -->
<svg xmlns="http://www.w3.org/2000/svg" xml:space="preserve" width="174.413mm" height="254.847mm" version="1.1" shape-rendering="geometricPrecision" text-rendering="geometricPrecision" image-rendering="optimizeQuality" fill-rule="evenodd" clip-rule="evenodd"
viewBox="0 0 17441 25485"
 xmlns:xlink="http://www.w3.org/1999/xlink">
 <rect fill="#FEFEFE" width="17441" height="25485"/>
 <g id="Слой_x0020_1">
  <metadata id="CorelCorpID_0Corel-Layer"/>
  <g id="_1232413808">
   <rect fill="none" stroke="#2B2A29" stroke-width="20" width="17441" height="11811"/>
   <rect fill="none" stroke="#2B2A29" stroke-width="20" y="13674" width="17441" height="11811"/>
  </g>
  <g id="_1232412304">
   <path fill="blue" fill-rule="nonzero" stroke="#2B2A29" stroke-width="50" d="M14315 6603l-4620 4640 -10 -4630 4630 -10zm-2310 2320m-2315 5m2310 -2320"/>
   <path fill="#61F1FF" fill-rule="nonzero" stroke="#2B2A29" stroke-width="50" d="M8296 6477l3866 -13 -1939 -1926 -1927 1939zm1933 -6m964 -970m-1934 6"/>
   <rect fill="#FF3399" stroke="#2B2A29" stroke-width="50" x="7972" y="1016" width="3362" height="3362"/>
   <path fill="white" fill-rule="nonzero" stroke="#2B2A29" stroke-width="50" d="M10408 4517l1907 1936 14 -1921 -1921 -15zm953 968m961 7m-953 -968"/>
   <polygon fill="#6699FF" stroke="#2B2A29" stroke-width="50" points="9976,4521 6936,4513 4929,6483 8057,6466 "/>
   <path fill="#61F1FF" fill-rule="nonzero" stroke="#2B2A29" stroke-width="50" d="M14329 6482l-1912 -1932 -10 1922 1922 10zm-956 -966m-961 -5m956 966"/>
   <path fill="#00CCFF" fill-rule="nonzero" stroke="#2B2A29" stroke-width="50" d="M4949 6618l4642 4618 -12 -4630 -4630 12zm2321 2309m2315 -6m-2321 -2309"/>
  </g>
 </g>
</svg>
