<svg height="388pt" viewBox="-25 0 388 388.092" width="388pt" xmlns="http://www.w3.org/2000/svg"><path d="m164.578125 154.933594c3.515625-5.21875 4.980469-11.539063 4.285156-17.792969-5.464843-49.101563-21.574219-87.101563-27.234375-95.394531-2.949218-4.316406-7-4.265625-9.953125.042968-3.925781 5.71875-4.484375 16.78125-1.207031 23.890626zm0 0" fill="#99783d"/><path d="m164.578125 161.757812c-.253906 0-.515625-.011718-.773437-.042968-2.53125-.289063-4.695313-1.960938-5.605469-4.34375l-34.105469-89.25c-4.089844-8.820313-3.289062-22.554688 1.957031-30.203125 2.746094-4.003907 6.527344-6.210938 10.632813-6.210938h.015625c4.089843 0 7.84375 2.207031 10.5625 6.191407 7.253906 10.621093 23.035156 50.414062 28.386719 98.488281.882812 7.933593-1.039063 15.871093-5.40625 22.359375-1.277344 1.894531-3.410157 3.011718-5.664063 3.011718zm-27.878906-115.039062c-1.835938 3.855469-2.28125 11.21875-.027344 16.101562l23.652344 61.867188c-6.1875-39.960938-18.640625-69.621094-23.625-77.96875zm-1.160157-1.660156"/><path d="m171.253906 150.101562s4.175782-107.175781 87.871094-143.273437c0 0 14.386719 90.007813-87.871094 143.273437zm0 0" fill="#83d816"/><path d="m171.257812 156.925781c-1.273437 0-2.539062-.351562-3.65625-1.058593-2.050781-1.300782-3.257812-3.601563-3.164062-6.035157.039062-1.132812 1.21875-28.238281 12.960938-60.1875 15.710937-42.757812 43.039062-73.566406 79.019531-89.085937 1.941406-.832032 4.148437-.734375 5.996093.289062 1.84375 1.011719 3.117188 2.816406 3.449219 4.898438.15625.953125 13.949219 95.5-91.453125 150.40625-.992187.519531-2.074218.773437-3.152344.773437zm81.699219-139.5625c-54.710937 29.222657-69.605469 93.121094-73.523437 120.335938 67.019531-40.367188 73.691406-97.898438 73.523437-120.335938zm0 0"/><path d="m329.636719 212.972656c0-47.132812-35.433594-85.347656-79.140625-85.347656-13.453125 0-26.109375 3.644531-37.203125 10.027344-13.164063 10.871094-28.796875 16.628906-44.59375 17.203125-15.796875-.574219-31.433594-6.332031-44.601563-17.203125-11.09375-6.382813-23.75-10.027344-37.199218-10.027344-43.710938 0-79.140626 38.210938-79.140626 85.347656-6.722656 65.238282 26.511719 113.234375 54.570313 141.4375 9.679687 9.730469 20.988281 17.140625 33.183594 22.074219 18.671875 7.546875 39.476562 5.976563 57.59375-3l.09375-.046875.003906-.003906c8.425781-8.859375 22.566406-8.859375 30.992187 0l.003907.003906.089843.046875c18.121094 8.980469 38.933594 10.546875 57.605469 2.992187 12.199219-4.9375 23.511719-12.355468 33.195313-22.089843 28.054687-28.203125 61.265625-76.195313 54.546875-141.414063zm0 0" fill="#ee5281"/><path d="m216.929688 388.09375c-12.050782 0-24.285157-2.847656-35.671876-8.488281-.710937-.359375-1.453124-.882813-2.007812-1.460938-2.773438-2.917969-6.523438-4.523437-10.558594-4.523437-4.027344 0-7.773437 1.605468-10.542968 4.519531-.503907.527344-1.085938.972656-1.730469 1.316406-20.585938 10.195313-43.617188 11.382813-63.46875 3.355469-13.3125-5.386719-25.246094-13.320312-35.460938-23.585938-29.570312-29.722656-63.359375-79.265624-56.558593-146.605468.179687-50.664063 38.671874-91.820313 85.964843-91.820313 14.125 0 28.167969 3.777344 40.605469 10.929688.328125.195312.648438.414062.941406.65625 11.753906 9.707031 25.753906 15.113281 40.5 15.644531 14.253906-.53125 28.253906-5.9375 40-15.640625.292969-.246094.613282-.464844.941406-.660156 12.441407-7.152344 26.488282-10.929688 40.613282-10.929688 47.292968 0 85.789062 41.15625 85.964844 91.820313 6.808593 67.324218-26.972657 116.867187-56.53125 146.578125-10.226563 10.285156-22.167969 18.226562-35.480469 23.605469-8.722657 3.535156-18.066407 5.289062-27.519531 5.289062zm-28.703126-20.289062c16.527344 7.925781 35.132813 8.792968 51.105469 2.347656 11.597657-4.6875 22-11.613282 30.917969-20.582032 27.535156-27.671874 59-73.71875 52.59375-135.898437-.019531-.234375-.035156-.46875-.035156-.699219 0-43.292968-32.441406-78.523437-72.3125-78.523437-11.558594 0-23.074219 3.0625-33.324219 8.847656-13.988281 11.394531-30.648437 17.746094-48.230469 18.375-18.066406-.625-34.730468-6.980469-48.726562-18.375-10.386719-5.871094-21.589844-8.847656-33.316406-8.847656-39.875 0-72.316407 35.230469-72.316407 78.523437 0 .230469-.011719.464844-.03125.699219-6.40625 62.191406 25.078125 108.246094 52.617188 135.925781 8.910156 8.945313 19.308593 15.867188 30.902343 20.5625 15.9375 6.4375 34.511719 5.570313 51.097657-2.355468 5.273437-5.066407 12.152343-7.839844 19.519531-7.839844h.007812c7.375 0 14.257813 2.773437 19.53125 7.839844zm148.238282-154.832032h.066406zm0 0"/><path d="m291.503906 226.179688c0-32.136719-26.902344-58.1875-60.09375-58.1875-10.21875 0-19.828125 2.484374-28.25 6.835937-9.996094 7.410156-21.871094 11.335937-33.867187 11.726563-11.996094-.386719-23.871094-4.316407-33.867188-11.726563-8.425781-4.351563-18.035156-6.835937-28.253906-6.835937-33.1875 0-60.09375 26.050781-60.09375 58.1875-5.105469 44.472656 20.132813 77.195312 41.441406 96.421874 7.347657 6.632813 15.933594 11.6875 25.199219 15.046876 14.175781 5.148437 29.972656 4.078124 43.734375-2.042969l.070313-.03125.003906-.003907c6.398437-6.039062 17.136718-6.039062 23.53125 0l.003906.003907.070312.027343c13.761719 6.125 29.566407 7.191407 43.746094 2.042969 9.265625-3.363281 17.855469-8.421875 25.207032-15.058593 21.300781-19.226563 46.523437-51.945313 41.417968-96.40625zm0 0" fill="#ffdd95"/><path d="m205.925781 347.726562c-9.320312 0-18.773437-1.972656-27.566406-5.878906-.707031-.316406-1.425781-.78125-1.988281-1.308594-3.773438-3.558593-10.386719-3.558593-14.160156 0-.546876.515626-1.179688.941407-1.859376 1.246094-15.832031 7.039063-33.621093 7.847656-48.964843 2.285156-10.269531-3.726562-19.5-9.238281-27.441407-16.390624-22.832031-20.613282-48.914062-54.996094-43.691406-101.894532.21875-35.671875 30.152344-64.617187 66.917969-64.617187 10.90625 0 21.761719 2.625 31.386719 7.597656.328125.167969.640625.367187.933594.582031 8.679687 6.4375 19.066406 10.03125 30.027343 10.394532 10.507813-.363282 20.894531-3.953126 29.574219-10.394532.292969-.214844.605469-.414062.933594-.582031 9.625-4.972656 20.480468-7.597656 31.386718-7.597656 36.765626 0 66.699219 28.945312 66.921876 64.617187 5.222656 46.886719-20.847657 81.261719-43.675782 101.867188-7.914062 7.148437-17.148437 12.667968-27.445312 16.40625-6.757813 2.453125-13.984375 3.667968-21.289063 3.667968zm-98.753906-172.90625c-29.375 0-53.265625 23.039063-53.265625 51.359376 0 .257812-.015625.519531-.046875.777343-4.738281 41.320313 18.71875 72.070313 39.234375 90.582031 6.617188 5.964844 14.34375 10.570313 22.953125 13.691407 11.757813 4.265625 25.464844 3.722656 37.757813-1.484375 8.785156-7.414063 22.171874-7.414063 30.972656 0 12.3125 5.222656 26.007812 5.765625 37.773437 1.476562 8.632813-3.132812 16.359375-7.746094 22.960938-13.703125 20.507812-18.515625 43.953125-49.246093 39.214843-90.5625-.035156-.257812-.046874-.519531-.046874-.777343 0-28.320313-23.894532-51.359376-53.265626-51.359376-8.6875 0-16.980468 1.964844-24.660156 5.839844-10.828125 7.878906-23.6875 12.277344-37.234375 12.71875-13.992187-.441406-26.859375-4.839844-37.6875-12.71875-7.679687-3.875-15.972656-5.839844-24.660156-5.839844zm191.160156 51.359376h.066407zm0 0"/><path d="m214.878906 257.621094c0 10.671875-8.675781 19.324218-19.378906 19.324218-10.707031 0-19.382812-8.652343-19.382812-19.324218v-28.984375zm0 0" fill="#99783d"/><path d="m195.5 283.773438c-14.453125 0-26.207031-11.726563-26.207031-26.148438v-28.984375c0-2.589844 1.460937-4.945313 3.765625-6.105469 2.308594-1.148437 5.082031-.90625 7.148437.636719l38.761719 28.988281c1.726562 1.285156 2.738281 3.3125 2.738281 5.464844-.003906 14.421875-11.757812 26.148438-26.207031 26.148438zm-12.554688-41.507813v15.359375c0 6.886719 5.632813 12.492188 12.550782 12.492188 5.839844 0 10.761718-3.984376 12.152344-9.371094zm0 0"/><path d="m118.265625 257.621094c0 10.671875 8.363281 19.324218 18.683594 19.324218 10.320312 0 18.6875-8.652343 18.6875-19.324218v-28.984375zm0 0" fill="#99783d"/><path d="m136.953125 283.773438c-14.066406 0-25.515625-11.726563-25.515625-26.148438 0-2.105469.972656-4.097656 2.640625-5.390625l37.375-28.988281c2.058594-1.59375 4.851563-1.886719 7.191406-.738282 2.339844 1.144532 3.820313 3.523438 3.820313 6.132813v28.984375c0 14.421875-11.445313 26.148438-25.511719 26.148438zm-11.5-23.082032c1.300781 5.40625 5.964844 9.425782 11.5 9.425782 6.539063 0 11.859375-5.605469 11.859375-12.492188v-15.050781zm0 0"/></svg>