<?xml version="1.0" encoding="iso-8859-1"?>
<!-- Generator: Adobe Illustrator 21.0.0, SVG Export Plug-In . SVG Version: 6.00 Build 0)  -->
<svg xmlns="http://www.w3.org/2000/svg" xmlns:xlink="http://www.w3.org/1999/xlink" version="1.1" id="Capa_1" x="0px" y="0px" viewBox="0 0 44.851 44.851" style="enable-background:new 0 0 44.851 44.851;" xml:space="preserve" width="512" height="512">
<g>
	<g id="_Group__519_">
		<ellipse id="_Path__610_" style="fill:#FFE500;" cx="3.885" cy="20.041" rx="3.31" ry="2.94"/>
		<ellipse id="_Path_2_602_" style="fill:#FFE500;" cx="40.965" cy="20.041" rx="3.31" ry="2.94"/>
		<path id="_Path_3_599_" style="fill:#FFF48C;" d="M3.885,19.251c1.3-0.037,2.501,0.691,3.07,1.86c0.156-0.335,0.238-0.7,0.24-1.07    c-0.075-1.733-1.54-3.077-3.272-3.002c-0.013,0.001-0.025,0.001-0.038,0.002c-1.732-0.095-3.213,1.231-3.308,2.962    c-0.001,0.013-0.001,0.025-0.002,0.038c-0.001,0.369,0.077,0.734,0.23,1.07C1.38,19.942,2.583,19.215,3.885,19.251z"/>
		<path id="_Path_4_594_" style="fill:#FFF48C;" d="M40.965,19.251c1.302-0.036,2.505,0.691,3.08,1.86    c0.153-0.336,0.231-0.701,0.23-1.07c-0.201-1.828-1.846-3.147-3.674-2.946c-1.551,0.171-2.775,1.395-2.946,2.946    c0.002,0.37,0.084,0.735,0.24,1.07C38.465,19.942,39.666,19.214,40.965,19.251z"/>
		<path style="fill:#45413C;" d="M3.886,23.481c-2.101,0-3.81-1.543-3.81-3.44s1.709-3.44,3.81-3.44s3.81,1.543,3.81,3.44    S5.987,23.481,3.886,23.481z M3.886,17.601c-1.549,0-2.81,1.095-2.81,2.44s1.261,2.44,2.81,2.44s2.81-1.095,2.81-2.44    S5.435,17.601,3.886,17.601z"/>
		<path style="fill:#45413C;" d="M40.965,23.481c-2.101,0-3.81-1.543-3.81-3.44s1.709-3.44,3.81-3.44    c2.102,0,3.811,1.543,3.811,3.44S43.067,23.481,40.965,23.481z M40.965,17.601c-1.549,0-2.81,1.095-2.81,2.44    s1.261,2.44,2.81,2.44c1.55,0,2.811-1.095,2.811-2.44S42.515,17.601,40.965,17.601z"/>
		
			<ellipse id="_Ellipse__590_" style="opacity:0.15;fill:#45413C;enable-background:new    ;" cx="22.425" cy="42.861" rx="21.85" ry="1.99"/>
		<path id="_Rectangle__209_" style="fill:#FFE500;" d="M2.995,31.591h38.86c0.608,0,1.1,0.492,1.1,1.1v3.32    c0,1.215-0.985,2.2-2.2,2.2l0,0H4.095c-1.215,0-2.2-0.985-2.2-2.2l0,0v-3.32C1.895,32.084,2.388,31.591,2.995,31.591z"/>
		<path id="_Path_7_524_" style="fill:#FFF48C;" d="M41.855,31.591H2.995c-0.608,0-1.1,0.492-1.1,1.1v2.82    c0-0.608,0.492-1.1,1.1-1.1h38.86c0.608,0,1.1,0.492,1.1,1.1v-2.82C42.955,32.084,42.463,31.591,41.855,31.591z"/>
		<path style="fill:#45413C;" d="M40.755,38.711H4.096c-1.489,0-2.7-1.211-2.7-2.699v-3.32c0-0.882,0.718-1.6,1.6-1.6h38.86    c0.882,0,1.6,0.718,1.6,1.6v3.32C43.455,37.5,42.244,38.711,40.755,38.711z M2.995,32.092c-0.331,0-0.6,0.269-0.6,0.6v3.32    c0,0.937,0.763,1.699,1.7,1.699h36.66c0.938,0,1.7-0.763,1.7-1.699v-3.32c0-0.331-0.269-0.6-0.6-0.6H2.995z"/>
		<path id="_Path_8_497_" style="fill:#00B8F0;" d="M35.005,21.691H9.845l1.06-7.26c0.52-3.58,3.3-6.29,6.52-6.29h10    c3.23,0,6,2.66,6.53,6.29L35.005,21.691z"/>
		<path id="_Path_9_464_" style="fill:#4ACFFF;" d="M15.595,21.691h11.5l5.42-10.84c-1.164-1.667-3.057-2.675-5.09-2.71h-4    L15.595,21.691z"/>
		<path style="fill:#45413C;" d="M35.005,22.191H9.846c-0.145,0-0.283-0.063-0.378-0.173c-0.095-0.11-0.137-0.256-0.116-0.399    l1.06-7.26c0.556-3.829,3.572-6.717,7.015-6.717h10c3.502,0,6.456,2.825,7.025,6.717l1.05,7.261    c0.021,0.144-0.022,0.29-0.117,0.399S35.151,22.191,35.005,22.191z M10.424,21.191h24.004l-0.968-6.688    c-0.496-3.396-3.034-5.861-6.035-5.861h-10c-2.95,0-5.54,2.52-6.025,5.861L10.424,21.191z"/>
		<path id="_Compound_Path__104_" style="fill:#FFE500;" d="M41.605,25.471c-0.275-2.096-1.571-3.92-3.46-4.87l-1.09-6.82    c-0.8-5-4.64-8.65-9.12-8.65h-11c-4.48,0-8.32,3.64-9.12,8.65l-1.11,6.82c-1.889,0.95-3.185,2.774-3.46,4.87l-0.69,6.15h39.74    L41.605,25.471z M10.325,19.701h-0.19l0.77-5.29c0.52-3.56,3.3-6.27,6.52-6.27h10c3.23,0,6,2.66,6.53,6.29l0.77,5.29h-0.19    c-4.018-0.486-8.063-0.713-12.11-0.68C18.382,19.002,14.341,19.222,10.325,19.701z"/>
		<g id="_Group_2_344_">
			<path id="_Path_11_397_" style="fill:#FFF48C;" d="M3.245,27.951c0.273-2.095,1.57-3.916,3.46-4.86l1.09-6.82     c0.8-5,4.64-8.65,9.12-8.65h11c4.48,0,8.32,3.64,9.12,8.65l1.09,6.82c1.89,0.944,3.187,2.765,3.46,4.86l0.41,3.67h0.28     l-0.69-6.15c-0.275-2.096-1.571-3.92-3.46-4.87l-1.09-6.82c-0.8-5-4.64-8.65-9.12-8.65h-11c-4.48,0-8.32,3.64-9.12,8.65     l-1.09,6.82c-1.889,0.95-3.185,2.774-3.46,4.87l-0.69,6.15h0.28L3.245,27.951z"/>
		</g>
		<path style="fill:#45413C;" d="M42.295,32.121H2.555c-0.142,0-0.278-0.061-0.373-0.167c-0.095-0.105-0.14-0.247-0.125-0.389    l0.69-6.149c0.287-2.187,1.589-4.087,3.503-5.141l1.07-6.575c0.839-5.254,4.882-9.069,9.613-9.069h11    c4.729,0,8.772,3.815,9.614,9.071l1.05,6.574c1.914,1.054,3.216,2.954,3.502,5.13c0,0.004,0,0.007,0.001,0.01l0.689,6.149    c0.016,0.142-0.029,0.283-0.124,0.389C42.574,32.06,42.438,32.121,42.295,32.121z M3.115,31.121h38.621l-0.626-5.589    c-0.256-1.933-1.447-3.608-3.188-4.484c-0.144-0.072-0.244-0.209-0.27-0.368l-1.09-6.82c-0.764-4.768-4.392-8.229-8.626-8.229h-11    c-4.237,0-7.865,3.46-8.626,8.229l-1.11,6.822c-0.026,0.158-0.126,0.294-0.269,0.366c-1.743,0.876-2.935,2.554-3.189,4.489    L3.115,31.121z M34.726,20.221h-0.19c-4.041-0.485-8.089-0.707-12.106-0.68c-4.001-0.037-8.062,0.182-12.045,0.656    c-0.02,0.002-0.039,0.003-0.059,0.003h-0.19c-0.145,0-0.283-0.063-0.378-0.173c-0.095-0.11-0.138-0.255-0.117-0.399l0.77-5.29    c0.558-3.818,3.573-6.698,7.015-6.698h10c3.502,0,6.456,2.825,7.025,6.717l0.771,5.29c0.021,0.144-0.021,0.29-0.117,0.399    C35.009,20.158,34.871,20.221,34.726,20.221z M23.199,18.538c3.642,0,7.319,0.212,10.942,0.632l-0.681-4.667    c-0.496-3.396-3.034-5.862-6.035-5.862h-10c-2.948,0-5.539,2.512-6.025,5.842l-0.679,4.668c3.878-0.443,7.821-0.649,11.709-0.61    C22.686,18.539,22.942,18.538,23.199,18.538z"/>
		<path id="_Path_12_370_" style="fill:#ADC4D9;" d="M30.425,31.591h-15.95l0.2-1.63c0.137-2.006,1.743-3.599,3.75-3.72h8    c1.996,0.135,3.585,1.724,3.72,3.72L30.425,31.591z"/>
		<path id="_Path_13_351_" style="fill:#8CA4B8;" d="M18.425,28.501h8c1.762,0.088,3.24,1.361,3.59,3.09h0.41l-0.2-1.63    c-0.14-2.024-1.773-3.623-3.8-3.72h-8c-1.996,0.135-3.585,1.724-3.72,3.72l-0.2,1.63h0.33    C15.185,29.862,16.663,28.59,18.425,28.501z"/>
		<path style="fill:#45413C;" d="M30.425,32.092h-15.95c-0.143,0-0.28-0.062-0.375-0.169c-0.095-0.107-0.139-0.25-0.122-0.392    l0.2-1.631c0.151-2.224,1.965-4.022,4.216-4.158l8.03-0.001c2.269,0.153,4.067,1.952,4.22,4.186l0.273,1.581    c0.024,0.145-0.016,0.294-0.111,0.406C30.712,32.026,30.573,32.092,30.425,32.092z M15.04,31.092h14.792l-0.18-1.047    c-0.124-1.787-1.523-3.187-3.262-3.305l-7.965,0.001c-1.721,0.104-3.131,1.504-3.251,3.254L15.04,31.092z"/>
		<circle id="_Path_15_303_" style="fill:#FFAA54;" cx="9.175" cy="25.631" r="2.65"/>
		<circle id="_Path_16_290_" style="fill:#FFAA54;" cx="35.675" cy="25.631" r="2.65"/>
		<path id="_Path_17_258_" style="fill:#FFCC99;" d="M9.175,25.021c1.07,0.001,2.036,0.643,2.45,1.63    c0.564-1.35-0.073-2.903-1.423-3.467S7.3,23.257,6.735,24.607c-0.273,0.654-0.273,1.39,0,2.044    C7.148,25.668,8.109,25.026,9.175,25.021z"/>
		<path id="_Path_18_224_" style="fill:#FFCC99;" d="M35.675,25.021c1.067,0.005,2.027,0.647,2.44,1.63    c0.564-1.35-0.073-2.903-1.423-3.467c-1.35-0.564-2.903,0.073-3.467,1.423c-0.273,0.654-0.273,1.39,0,2.044    C33.64,25.664,34.605,25.022,35.675,25.021z"/>
		<path style="fill:#45413C;" d="M9.176,28.781c-1.737,0-3.15-1.413-3.15-3.149c0-1.737,1.413-3.15,3.15-3.15s3.15,1.413,3.15,3.15    C12.325,27.368,10.912,28.781,9.176,28.781z M9.176,23.481c-1.186,0-2.15,0.965-2.15,2.15s0.964,2.149,2.15,2.149    s2.15-0.964,2.15-2.149S10.361,23.481,9.176,23.481z"/>
		<path style="fill:#45413C;" d="M35.675,28.781c-1.736,0-3.149-1.413-3.149-3.149c0-1.737,1.413-3.15,3.149-3.15    c1.737,0,3.15,1.413,3.15,3.15C38.825,27.368,37.412,28.781,35.675,28.781z M35.675,23.481c-1.186,0-2.149,0.965-2.149,2.15    s0.964,2.149,2.149,2.149s2.15-0.964,2.15-2.149S36.861,23.481,35.675,23.481z"/>
		<path id="_Rectangle_3_167_" style="fill:#87898C;" d="M3.885,38.211h7.28l0,0v3.47c0,0.646-0.524,1.17-1.17,1.17h-4.95    c-0.646,0-1.17-0.524-1.17-1.17v-3.47l0,0H3.885z"/>
		<rect id="_Rectangle_4_150_" x="3.885" y="38.211" style="fill:#656769;" width="7.28" height="2.32"/>
		<path id="_Rectangle_5_119_" style="fill:#87898C;" d="M33.685,38.211h7.28l0,0v3.47c0,0.642-0.518,1.165-1.16,1.17h-4.95    c-0.646,0-1.17-0.524-1.17-1.17C33.685,41.681,33.685,38.211,33.685,38.211z"/>
		<rect id="_Rectangle_6_111_" x="33.685" y="38.211" style="fill:#656769;" width="7.28" height="2.32"/>
		<path style="fill:#45413C;" d="M9.995,43.351h-4.95c-0.921,0-1.67-0.749-1.67-1.67v-3.471c0-0.276,0.224-0.5,0.5-0.5h7.29    c0.276,0,0.5,0.224,0.5,0.5v3.471C11.665,42.602,10.916,43.351,9.995,43.351z M4.375,38.711v2.971c0,0.369,0.301,0.67,0.67,0.67    h4.95c0.37,0,0.67-0.301,0.67-0.67v-2.971H4.375z"/>
		<path style="fill:#45413C;" d="M34.856,43.351c-0.921,0-1.67-0.749-1.67-1.67v-3.471c0-0.276,0.224-0.5,0.5-0.5h7.279    c0.276,0,0.5,0.224,0.5,0.5v3.471c0,0.912-0.742,1.661-1.654,1.67H34.856z M34.186,38.711v2.971c0,0.369,0.301,0.67,0.67,0.67    h4.95c0.361-0.003,0.659-0.304,0.659-0.67v-2.971H34.186z"/>
		<path id="_Path_21_162_" style="fill:#FFAA54;" d="M25.425,0.501h-6c-1.317-0.003-2.435,0.966-2.62,2.27l-0.38,2.36h12l-0.34-2.36    C27.899,1.452,26.758,0.478,25.425,0.501z"/>
		<path id="_Path_22_149_" style="fill:#FFCC99;" d="M16.805,4.511c0.18-1.308,1.299-2.282,2.62-2.28h6    c1.321-0.002,2.44,0.972,2.62,2.28l0.09,0.62h0.29l-0.34-2.36c-0.187-1.32-1.327-2.293-2.66-2.27h-6    c-1.317-0.003-2.435,0.966-2.62,2.27l-0.38,2.36h0.25L16.805,4.511z"/>
		<path style="fill:#45413C;" d="M28.425,5.631h-12c-0.146,0-0.286-0.064-0.38-0.176c-0.095-0.111-0.137-0.259-0.113-0.404    l0.38-2.36c0.216-1.531,1.553-2.69,3.108-2.69c0.002,0,0.004,0,0.007,0h5.994c1.566-0.045,2.938,1.133,3.16,2.7l0.34,2.358    c0.021,0.144-0.022,0.289-0.117,0.398C28.708,5.568,28.571,5.631,28.425,5.631z M17.012,4.631h10.835L27.59,2.843    c-0.151-1.069-1.082-1.877-2.156-1.841c-0.003,0-0.006,0-0.009,0h-6c-0.001,0-0.003,0-0.005,0c-1.061,0-1.972,0.79-2.12,1.84    L17.012,4.631z"/>
	</g>
</g>















</svg>
