<?xml version="1.0" encoding="iso-8859-1"?>
<!-- Generator: Adobe Illustrator 21.0.0, SVG Export Plug-In . SVG Version: 6.00 Build 0)  -->
<svg xmlns="http://www.w3.org/2000/svg" xmlns:xlink="http://www.w3.org/1999/xlink" version="1.1" id="Capa_1" x="0px" y="0px" viewBox="0 0 45.806 45.806" style="enable-background:new 0 0 45.806 45.806;" xml:space="preserve" width="512" height="512">
<g>
	<path style="fill:#6DD627;" d="M33.843,5.806l-2.16-0.29c-0.471-0.058-0.807-0.487-0.749-0.958c0.007-0.059,0.02-0.116,0.039-0.172   c0.256-0.747-0.143-1.56-0.89-1.816c-0.391-0.134-0.822-0.092-1.18,0.116l-2.37,1.43c-0.411,0.249-0.946,0.117-1.195-0.294   c-0.017-0.028-0.032-0.056-0.045-0.086l-1.09-2.4c-0.329-0.718-1.178-1.033-1.896-0.704c-0.312,0.143-0.561,0.393-0.704,0.704   l-1.09,2.4c-0.201,0.436-0.718,0.627-1.154,0.425c-0.029-0.014-0.058-0.029-0.086-0.045l-2.37-1.43   c-0.671-0.417-1.553-0.21-1.969,0.46c-0.225,0.362-0.276,0.806-0.141,1.21c0.153,0.45-0.088,0.938-0.538,1.091   c-0.056,0.019-0.113,0.032-0.172,0.039l-2.12,0.32c-0.783,0.099-1.338,0.815-1.239,1.599c0.054,0.425,0.296,0.804,0.659,1.031   l2.41,1.53h18.22l2.41-1.56c0.655-0.441,0.829-1.329,0.389-1.985C34.589,6.09,34.238,5.867,33.843,5.806z"/>
	<path style="fill:#9CEB60;" d="M33.843,5.806l-2.16-0.29c-0.471-0.058-0.807-0.487-0.749-0.958c0.007-0.059,0.02-0.116,0.039-0.172   c0.256-0.747-0.143-1.56-0.89-1.816c-0.391-0.134-0.822-0.092-1.18,0.116l-2.37,1.43c-0.411,0.249-0.946,0.117-1.195-0.294   c-0.017-0.028-0.032-0.056-0.045-0.086l-1.09-2.4c-0.329-0.718-1.178-1.033-1.896-0.704c-0.312,0.143-0.561,0.393-0.704,0.704   l-1.09,2.4c-0.201,0.436-0.718,0.627-1.154,0.425c-0.029-0.014-0.058-0.029-0.086-0.045l-2.37-1.43   c-0.671-0.417-1.553-0.21-1.969,0.46c-0.225,0.362-0.276,0.806-0.141,1.21c0.153,0.45-0.088,0.938-0.538,1.091   c-0.056,0.019-0.113,0.032-0.172,0.039l-2.12,0.32c-0.788,0.111-1.336,0.839-1.225,1.627c0.018,0.129,0.054,0.254,0.105,0.373   c0.235-0.401,0.656-0.656,1.12-0.68l2.16-0.21c0.54-0.06,0.88-0.47,0.71-0.86c-0.42-1,1-1.82,2.11-1.28l2.33,1.03   c0.429,0.213,0.95,0.091,1.24-0.29l1.09-1.79c0.552-0.718,1.582-0.852,2.3-0.3c0.113,0.087,0.214,0.188,0.3,0.3l1.09,1.83   c0.301,0.367,0.82,0.472,1.24,0.25l2.37-1c1.14-0.54,2.53,0.31,2.11,1.28c-0.17,0.39,0.17,0.8,0.71,0.86l2.16,0.21   c0.444,0.03,0.846,0.272,1.08,0.65c0.317-0.729-0.017-1.578-0.747-1.895C34.097,5.859,33.972,5.824,33.843,5.806z"/>
	<path style="fill:#45413C;" d="M32.013,10.466h-18.22c-0.095,0-0.188-0.027-0.268-0.078l-2.41-1.53   c-0.49-0.307-0.814-0.814-0.887-1.391c-0.065-0.511,0.073-1.017,0.389-1.425s0.771-0.667,1.283-0.732l2.108-0.319   c0.274-0.082,0.375-0.287,0.311-0.475c-0.184-0.548-0.115-1.143,0.189-1.634c0.56-0.905,1.753-1.184,2.658-0.622l2.365,1.427   c0.126,0.061,0.228,0.064,0.319,0.031c0.093-0.034,0.167-0.103,0.208-0.192l1.089-2.397c0.194-0.422,0.531-0.76,0.952-0.952   c0.468-0.215,0.992-0.235,1.476-0.055c0.483,0.18,0.868,0.537,1.083,1.005l1.091,2.401c0.124,0.209,0.354,0.265,0.527,0.159   l2.368-1.43c0.492-0.285,1.071-0.342,1.601-0.161c0.487,0.167,0.882,0.513,1.108,0.977c0.228,0.463,0.26,0.986,0.093,1.475   c-0.027,0.166-0.001,0.26,0.059,0.336c0.059,0.076,0.144,0.124,0.239,0.136l2.166,0.291c0.003,0,0.006,0.001,0.01,0.001   c0.531,0.082,1.008,0.384,1.308,0.831c0.594,0.883,0.358,2.084-0.524,2.679l-2.418,1.565   C32.203,10.438,32.109,10.466,32.013,10.466z M13.939,9.466h17.927l2.286-1.48c0.418-0.281,0.531-0.86,0.245-1.286   c-0.144-0.214-0.371-0.359-0.625-0.399l-2.155-0.289c-0.354-0.043-0.677-0.225-0.9-0.512c-0.224-0.286-0.322-0.642-0.278-1.002   c0.01-0.087,0.03-0.179,0.061-0.27c0.082-0.239,0.066-0.491-0.043-0.714c-0.109-0.223-0.3-0.39-0.534-0.47   c-0.256-0.087-0.535-0.06-0.768,0.075l-2.361,1.426c-0.651,0.391-1.491,0.181-1.882-0.463c-0.01-0.017-0.063-0.119-0.071-0.137   l-1.091-2.401c-0.103-0.225-0.288-0.396-0.521-0.483c-0.232-0.086-0.484-0.077-0.711,0.026c-0.203,0.093-0.366,0.255-0.458,0.458   l-1.089,2.398c-0.154,0.335-0.428,0.588-0.771,0.715c-0.345,0.125-0.716,0.111-1.048-0.042c-0.017-0.008-0.119-0.063-0.135-0.072   l-2.369-1.429c-0.44-0.273-1.016-0.14-1.286,0.296c-0.146,0.236-0.18,0.523-0.091,0.787c0.24,0.709-0.142,1.483-0.852,1.724   c-0.09,0.03-0.182,0.051-0.274,0.062L12.038,6.3c-0.258,0.033-0.478,0.158-0.63,0.354c-0.152,0.197-0.219,0.44-0.188,0.687   c0.035,0.278,0.191,0.522,0.428,0.67L13.939,9.466z"/>
	
		<ellipse id="_Ellipse__518_" style="opacity:0.15;fill:#45413C;enable-background:new    ;" cx="22.903" cy="44.306" rx="11.5" ry="1.5"/>
	<path style="fill:#FF6242;" d="M25.013,6.356h-4.22c-12.22,0-19.8,12.94-12.89,22.45l8.78,11.68c1.478,1.927,3.782,3.04,6.21,3   c2.428,0.04,4.732-1.073,6.21-3l8.8-11.68C44.813,19.296,37.233,6.356,25.013,6.356z"/>
	<path style="fill:#FF866E;" d="M20.793,11.806h4.22c7.235-0.149,13.585,4.791,15.22,11.84c1.82-8.44-5.11-17.29-15.22-17.29h-4.22   c-10.11,0-17,8.85-15.22,17.29C7.208,16.596,13.558,11.657,20.793,11.806z"/>
	<path style="fill:#45413C;" d="M22.753,43.987c-2.511,0-4.925-1.188-6.466-3.196L7.503,29.107c-3.168-4.36-3.595-9.83-1.146-14.636   c2.707-5.314,8.239-8.615,14.436-8.615h4.22c6.196,0,11.728,3.301,14.436,8.614c2.448,4.807,2.022,10.276-1.142,14.63   l-8.805,11.687c-1.571,2.047-4.044,3.259-6.618,3.199C22.84,43.987,22.797,43.987,22.753,43.987z M20.793,6.856   c-5.819,0-11.009,3.092-13.544,8.068c-2.275,4.465-1.879,9.545,1.059,13.588l8.775,11.673c1.373,1.789,3.532,2.862,5.802,2.801   c2.304,0.064,4.446-1.012,5.822-2.805l8.797-11.676c2.933-4.036,3.329-9.116,1.054-13.581c-2.535-4.977-7.726-8.068-13.544-8.068   H20.793z"/>
	<g>
		<ellipse id="_Path__533_" style="fill:#E04122;" cx="22.903" cy="11.336" rx="1" ry="1.75"/>
		<path style="fill:#45413C;" d="M22.903,13.586c-0.855,0-1.5-0.967-1.5-2.25s0.645-2.25,1.5-2.25s1.5,0.967,1.5,2.25    S23.758,13.586,22.903,13.586z M22.903,10.086c-0.145,0-0.5,0.438-0.5,1.25s0.355,1.25,0.5,1.25s0.5-0.438,0.5-1.25    S23.048,10.086,22.903,10.086z"/>
	</g>
	<g>
		<ellipse id="_Path_2_525_" style="fill:#E04122;" cx="12.903" cy="13.586" rx="1" ry="1.75"/>
		<path style="fill:#45413C;" d="M12.903,15.836c-0.855,0-1.5-0.967-1.5-2.25s0.645-2.25,1.5-2.25s1.5,0.967,1.5,2.25    S13.758,15.836,12.903,15.836z M12.903,12.336c-0.145,0-0.5,0.438-0.5,1.25s0.355,1.25,0.5,1.25s0.5-0.438,0.5-1.25    S13.048,12.336,12.903,12.336z"/>
	</g>
	<g>
		<ellipse id="_Path_3_522_" style="fill:#E04122;" cx="32.903" cy="13.586" rx="1" ry="1.75"/>
		<path style="fill:#45413C;" d="M32.902,15.836c-0.855,0-1.5-0.967-1.5-2.25s0.645-2.25,1.5-2.25s1.5,0.967,1.5,2.25    S33.758,15.836,32.902,15.836z M32.902,12.336c-0.146,0-0.5,0.438-0.5,1.25s0.354,1.25,0.5,1.25s0.5-0.438,0.5-1.25    S33.048,12.336,32.902,12.336z"/>
	</g>
	<g>
		<path id="_Path_4_516_" style="fill:#FF866E;" d="M22.903,33.496L22.903,33.496c-1.143,0.001-2.102-0.863-2.22-2l-0.24-3    c-0.022-0.275,0.183-0.516,0.458-0.538c0.014-0.001,0.028-0.002,0.042-0.002h3.96c0.276-0.001,0.501,0.222,0.502,0.498    c0,0.014,0,0.028-0.002,0.042l-0.24,3C25.048,32.651,24.063,33.522,22.903,33.496z"/>
		<path style="fill:#45413C;" d="M22.955,33.996c-0.02,0-0.039-0.001-0.058-0.001c-1.402-0.002-2.567-1.054-2.712-2.448    l-0.241-3.012c-0.044-0.549,0.367-1.031,0.917-1.076c0.025-0.003,0.092-0.002,0.116-0.002l3.925-0.001c0.001,0,0.002,0,0.004,0    c0.264,0,0.514,0.103,0.702,0.29c0.19,0.188,0.295,0.438,0.296,0.706c0,0.024-0.004,0.09-0.007,0.113l-0.236,2.97    C25.523,32.931,24.34,33.996,22.955,33.996z M22.902,32.995c0.017-0.002,0.035,0.001,0.053,0.001c0.875,0,1.623-0.674,1.71-1.551    l0.239-2.99l-3.961,0.001l0.238,2.999c0.091,0.873,0.831,1.54,1.72,1.54C22.901,32.995,22.902,32.995,22.902,32.995z"/>
	</g>
	<g>
		<circle id="_Path_5_508_" style="fill:#45413C;" cx="30.403" cy="20.496" r="1.5"/>
		<path style="fill:#45413C;" d="M30.402,22.496c-1.103,0-2-0.897-2-2s0.897-2,2-2s2,0.897,2,2S31.505,22.496,30.402,22.496z     M30.402,19.496c-0.552,0-1,0.449-1,1s0.448,1,1,1s1-0.449,1-1S30.954,19.496,30.402,19.496z"/>
	</g>
	<g>
		<circle id="_Path_6_474_" style="fill:#45413C;" cx="15.403" cy="20.496" r="1.5"/>
		<path style="fill:#45413C;" d="M15.403,22.496c-1.103,0-2-0.897-2-2s0.897-2,2-2s2,0.897,2,2S16.506,22.496,15.403,22.496z     M15.403,19.496c-0.551,0-1,0.449-1,1s0.449,1,1,1s1-0.449,1-1S15.954,19.496,15.403,19.496z"/>
	</g>
	<path id="_Path_7_450_" style="fill:#E04122;" d="M35.403,26.676c0,0.56-0.81,1-1.82,1s-1.82-0.44-1.82-1s0.82-1,1.82-1   S35.403,26.126,35.403,26.676z"/>
	<path id="_Path_8_427_" style="fill:#E04122;" d="M14.043,26.676c0,0.56-0.82,1-1.82,1s-1.82-0.44-1.82-1s0.81-1,1.82-1   S14.043,26.126,14.043,26.676z"/>
</g>















</svg>
