<?xml version="1.0" encoding="iso-8859-1"?>
<!-- Generator: Adobe Illustrator 21.0.0, SVG Export Plug-In . SVG Version: 6.00 Build 0)  -->
<svg xmlns="http://www.w3.org/2000/svg" xmlns:xlink="http://www.w3.org/1999/xlink" version="1.1" id="Capa_1" x="0px" y="0px" viewBox="0 0 44.846 44.846" style="enable-background:new 0 0 44.846 44.846;" xml:space="preserve" width="512" height="512">
<g>
	<g id="_Group__465_">
		
			<ellipse id="_Ellipse__532_" style="opacity:0.15;fill:#45413C;enable-background:new    ;" cx="22.426" cy="42.343" rx="21.92" ry="1.83"/>
		<path id="_Path__545_" style="fill:#FFFFFF;" d="M44.346,31.853c-0.004-1.081-0.355-2.133-1-3c0.015-0.216,0.015-0.434,0-0.65    c0.006-1.555-0.697-3.028-1.91-4v-0.22c0.002-1.897-1.05-3.638-2.73-4.52c0.01-0.116,0.01-0.234,0-0.35    c0.111-0.725-0.229-1.445-0.86-1.82c0.124-0.363,0.204-0.739,0.24-1.12c0.016-1.949-1.18-3.703-3-4.4    c-0.03-0.899-0.677-1.658-1.56-1.83c-0.178-2.08-1.629-3.83-3.64-4.39c-0.333-1.074-1.336-1.799-2.46-1.78l0,0    c-1.032-1.609-2.808-2.588-4.72-2.6c-1.101-0.005-2.174,0.346-3.06,1c-0.329-0.067-0.664-0.1-1-0.1    c-2.043,0.011-3.847,1.335-4.47,3.28c-1.122,0.116-1.981,1.052-2,2.18c0.002,0.165,0.019,0.329,0.05,0.49    c-1.72,0.82-3.83,2.57-3.83,4.61c0.002,0.365,0.066,0.727,0.19,1.07c-1.64,0.81-2.17,2.17-2.22,4.11    c-0.97,0.167-1.674,1.016-1.66,2c0,0.172,0.02,0.343,0.06,0.51c-1.365,1.098-2.111,2.792-2,4.54l0,0    c-2.24,1.498-2.931,4.478-1.58,6.81c-1.408,2.446-0.566,5.57,1.88,6.978c0.255,0.147,0.523,0.271,0.8,0.372    c0.374,0.991,1.321,1.648,2.38,1.65c0.136,0.01,0.274,0.01,0.41,0c0.941,0.918,2.206,1.428,3.52,1.42    c0.974,0.122,1.963-0.013,2.87-0.39h18.76c1.344,0.579,2.819,0.783,4.27,0.59c2.227-0.343,4.035-1.979,4.6-4.16    c1.214-0.213,2.099-1.268,2.1-2.5v-0.06C43.79,34.603,44.358,33.257,44.346,31.853z"/>
		<g id="_Group_2_309_">
			<path id="_Path_2_537_" style="fill:#F0F0F0;" d="M42.776,31.743v0.06c-0.001,1.232-0.886,2.287-2.1,2.5     c-0.562,2.182-2.372,3.819-4.6,4.16c-1.75,0.33-3.63-0.69-4.27-1h-18.76c-0.873,0.505-1.862,0.773-2.87,0.78     c-1.314,0.008-2.579-0.502-3.52-1.42c-0.136,0.015-0.274,0.015-0.41,0c-1.062-0.001-2.012-0.663-2.38-1.66     c-1.366-0.497-2.457-1.551-3-2.9c-0.246,0.603-0.372,1.249-0.37,1.9c0,2.147,1.343,4.065,3.36,4.8     c0.355,1.018,1.312,1.703,2.39,1.71c0.136,0.01,0.274,0.01,0.41,0c0.941,0.918,2.206,1.428,3.52,1.42     c0.974,0.122,1.963-0.013,2.87-0.39h18.76c1.344,0.579,2.819,0.783,4.27,0.59c2.227-0.343,4.035-1.979,4.6-4.16     c1.214-0.213,2.099-1.268,2.1-2.5v-0.06c1.006-0.963,1.574-2.297,1.57-3.69c0.002-0.651-0.124-1.297-0.37-1.9     C43.705,30.648,43.296,31.248,42.776,31.743z"/>
		</g>
		<path style="fill:#4F4B45;" d="M35.008,42.864c-1.134,0-2.255-0.224-3.304-0.66H13.144c-0.96,0.382-2.003,0.514-3.029,0.386    c-1.309,0.015-2.627-0.488-3.648-1.409c-0.086-0.001-0.171-0.001-0.256-0.008c-1.148-0.001-2.227-0.7-2.722-1.76    c-0.232-0.095-0.458-0.205-0.672-0.329c-1.298-0.746-2.228-1.955-2.618-3.401c-0.365-1.355-0.216-2.768,0.418-4.008    c-1.249-2.43-0.552-5.432,1.639-7.063c-0.025-1.707,0.695-3.348,1.968-4.484c-0.012-0.105-0.019-0.21-0.018-0.315    c-0.016-1.091,0.669-2.042,1.676-2.389c0.081-1.386,0.459-2.97,2.111-3.965c-0.063-0.268-0.095-0.543-0.097-0.821    c0-2.161,1.972-3.946,3.789-4.901c-0.005-0.066-0.008-0.132-0.008-0.198c0.021-1.281,0.915-2.355,2.127-2.629    c0.771-1.996,2.678-3.324,4.84-3.335c0.298,0,0.594,0.024,0.885,0.071c0.925-0.628,2.036-0.971,3.155-0.971    c0.008,0,0.016,0,0.024,0c2.001,0.013,3.846,0.983,4.989,2.608c1.135,0.087,2.139,0.815,2.573,1.866    c1.96,0.649,3.404,2.367,3.712,4.404c0.825,0.295,1.424,1.009,1.57,1.875c1.843,0.838,3.05,2.708,3.033,4.75    c-0.029,0.328-0.083,0.631-0.159,0.92c0.582,0.498,0.88,1.256,0.782,2.033c0,0.015,0.001,0.029,0.002,0.043    c1.687,1.007,2.722,2.817,2.725,4.797c1.224,1.07,1.916,2.6,1.91,4.235c0.011,0.15,0.014,0.322,0.008,0.498    c0.646,0.929,0.988,2.013,0.992,3.147c0.012,1.465-0.561,2.888-1.577,3.937c-0.087,1.328-0.968,2.414-2.193,2.765    c-0.697,2.229-2.599,3.875-4.924,4.234C35.771,42.838,35.389,42.864,35.008,42.864z M13.046,41.203h18.76    c0.068,0,0.136,0.014,0.198,0.041c1.26,0.543,2.646,0.736,4.005,0.553c2.021-0.312,3.667-1.8,4.183-3.79    c0.05-0.189,0.205-0.332,0.397-0.366c0.977-0.172,1.686-1.017,1.687-2.008c0-0.137,0.056-0.326,0.154-0.421    c0.91-0.872,1.427-2.095,1.416-3.355c0-0.001,0-0.001,0-0.002c-0.004-0.98-0.315-1.915-0.901-2.704    c-0.071-0.095-0.105-0.213-0.098-0.332c0.014-0.193,0.014-0.388,0-0.581c0.004-1.446-0.624-2.762-1.724-3.645    c-0.118-0.095-0.188-0.238-0.188-0.39v-0.221c0.002-1.717-0.941-3.279-2.462-4.077c-0.178-0.094-0.282-0.285-0.266-0.485    c0.007-0.088,0.007-0.178,0-0.267c-0.004-0.039-0.002-0.078,0.004-0.117c0.08-0.527-0.164-1.043-0.621-1.314    c-0.204-0.121-0.295-0.368-0.218-0.592c0.11-0.323,0.183-0.662,0.215-1.006c0.012-1.688-1.064-3.267-2.681-3.886    c-0.188-0.072-0.314-0.249-0.321-0.45c-0.022-0.67-0.498-1.228-1.156-1.356c-0.219-0.042-0.384-0.226-0.402-0.448    c-0.159-1.862-1.476-3.45-3.275-3.951c-0.164-0.045-0.294-0.171-0.344-0.333c-0.265-0.856-1.081-1.45-1.974-1.428    c-0.163,0.003-0.336-0.084-0.43-0.23c-0.944-1.473-2.553-2.359-4.303-2.37c-0.969,0.02-1.966,0.316-2.76,0.902    c-0.114,0.083-0.258,0.115-0.396,0.087c-0.294-0.06-0.597-0.09-0.9-0.09c-1.829,0.01-3.435,1.188-3.994,2.933    c-0.061,0.189-0.227,0.325-0.425,0.345c-0.87,0.09-1.537,0.817-1.551,1.69c0.001,0.122,0.015,0.255,0.041,0.387    c0.043,0.224-0.07,0.448-0.275,0.546c-1.765,0.841-3.545,2.454-3.545,4.159c0.002,0.307,0.056,0.611,0.161,0.901    c0.086,0.239-0.021,0.505-0.25,0.618c-1.329,0.656-1.891,1.721-1.941,3.674c-0.006,0.239-0.18,0.439-0.415,0.48    c-0.732,0.126-1.256,0.757-1.245,1.5c0,0.139,0.015,0.271,0.046,0.4c0.045,0.188-0.022,0.385-0.173,0.506    c-1.236,0.995-1.915,2.536-1.814,4.12c0.011,0.178-0.073,0.348-0.221,0.447c-2.015,1.348-2.641,4.046-1.425,6.143    c0.089,0.155,0.09,0.346,0.001,0.5c-0.614,1.067-0.776,2.311-0.456,3.499c0.32,1.189,1.084,2.182,2.152,2.796    c0.228,0.132,0.47,0.244,0.721,0.336c0.137,0.05,0.246,0.157,0.297,0.293c0.298,0.792,1.067,1.325,1.913,1.327    c0.147,0.01,0.261,0.009,0.374,0.001c0.138-0.015,0.282,0.041,0.385,0.142c0.852,0.83,1.934,1.288,3.168,1.277    c0.95,0.116,1.854-0.009,2.681-0.352C12.915,41.216,12.98,41.203,13.046,41.203z"/>
		<path id="_Rectangle__180_" style="fill:#656769;" d="M14.136,24.343h16.58c0.608,0,1.1,0.492,1.1,1.1v16.23l0,0h-18.77l0,0    v-16.23C13.046,24.84,13.533,24.349,14.136,24.343z"/>
		<rect id="_Path_4_529_" x="13.046" y="37.483" style="fill:#525252;" width="18.77" height="4.19"/>
		<path style="fill:#4F4B45;" d="M31.816,42.173h-18.77c-0.276,0-0.5-0.224-0.5-0.5V25.444c0-0.874,0.711-1.592,1.585-1.601    c0.001,0,0.003,0,0.005,0h16.58c0.882,0,1.6,0.718,1.6,1.601v16.229C32.316,41.95,32.092,42.173,31.816,42.173z M13.546,41.173    h17.77V25.444c0-0.331-0.269-0.601-0.6-0.601H14.139c-0.327,0.004-0.593,0.273-0.593,0.601V41.173z"/>
		<path style="fill:#4F4B45;" d="M14.006,14.353c-0.245,0-0.458-0.179-0.494-0.428c-0.195-1.336,0.73-2.604,2.062-2.826    c0.089-0.012,0.177-0.02,0.263-0.023c0.399-1.192,1.44-2.085,2.705-2.278c0.185-0.024,0.369-0.032,0.547-0.031    c0.339-0.726,1.017-1.26,1.818-1.406c0.274-0.049,0.533,0.131,0.582,0.402c0.05,0.271-0.13,0.532-0.402,0.582    c-0.564,0.103-1.026,0.527-1.177,1.08c-0.066,0.241-0.298,0.393-0.547,0.364c-0.226-0.029-0.455-0.029-0.68,0    c-0.983,0.15-1.78,0.915-1.974,1.9c-0.051,0.26-0.291,0.435-0.557,0.399c-0.142-0.02-0.286-0.02-0.427,0    c-0.783,0.131-1.338,0.892-1.222,1.692c0.04,0.273-0.149,0.527-0.422,0.567C14.054,14.352,14.03,14.353,14.006,14.353z"/>
		<path style="fill:#4F4B45;" d="M34.426,19.453c-0.274,0-0.498-0.222-0.5-0.497c-0.004-0.604-0.497-1.094-1.101-1.094    c-0.004,0-0.008-0.001-0.01,0c-0.132,0-0.258-0.052-0.352-0.145c-0.095-0.093-0.148-0.221-0.148-0.354    c-0.004-1.191-0.978-2.161-2.17-2.161c-0.376,0.003-0.751,0.105-1.082,0.294c-0.125,0.071-0.274,0.085-0.409,0.039    c-0.136-0.046-0.245-0.148-0.301-0.281c-0.15-0.362-0.477-0.571-0.91-0.583c-0.294,0.011-0.508-0.206-0.518-0.482    s0.206-0.507,0.482-0.517c0.628-0.018,1.224,0.265,1.603,0.745c0.36-0.139,0.743-0.212,1.131-0.215c1.594,0,2.917,1.18,3.141,2.71    c0.934,0.208,1.637,1.04,1.644,2.037c0.002,0.276-0.221,0.501-0.497,0.503C34.428,19.453,34.427,19.453,34.426,19.453z"/>
		<path style="fill:#4F4B45;" d="M5.959,32.415c-0.146,0-0.287-0.064-0.383-0.192c-0.792-1.088-0.656-2.54,0.245-3.439    c-0.296-0.889-0.015-1.882,0.745-2.482c0.124-0.092,0.251-0.17,0.384-0.234c-0.126-1.298,0.435-2.587,1.498-3.375    c0.22-0.166,0.534-0.119,0.7,0.104c0.164,0.222,0.118,0.535-0.104,0.699c-0.866,0.643-1.278,1.738-1.049,2.792    c0.057,0.263-0.104,0.523-0.364,0.591c-0.166,0.043-0.32,0.116-0.457,0.218c-0.473,0.374-0.609,1.045-0.31,1.587    c0.122,0.221,0.06,0.497-0.144,0.646c-0.352,0.256-0.583,0.634-0.651,1.064c-0.068,0.43,0.036,0.86,0.292,1.213    c0.162,0.222,0.123,0.545-0.098,0.708C6.171,32.381,6.065,32.415,5.959,32.415z"/>
		<path style="fill:#4F4B45;" d="M36.338,35.673c-0.001,0-0.002,0-0.002,0c-0.276,0-0.5-0.225-0.5-0.5c0-0.276,0.224-0.5,0.5-0.5    l0,0c0.001,0,0.001,0,0.002,0c1.482,0,2.688-1.205,2.69-2.688c0-0.58-0.192-1.156-0.542-1.621    c-0.136-0.181-0.134-0.43,0.005-0.607c0.154-0.199,0.241-0.447,0.244-0.699c-0.004-0.647-0.556-1.153-1.198-1.173    c-0.068,0.001-0.14,0.008-0.209,0.021c-0.198,0.04-0.396-0.048-0.508-0.213c-0.112-0.167-0.113-0.383-0.004-0.551    c0.451-0.693,0.255-1.625-0.438-2.076c-0.259-0.168-0.56-0.258-0.865-0.241c-0.324,0.007-0.507-0.208-0.517-0.483    c-0.009-0.275,0.207-0.507,0.483-0.517c0.521-0.024,1.012,0.122,1.443,0.403c0.56,0.364,0.944,0.925,1.082,1.578    c0.08,0.378,0.072,0.76-0.02,1.124c0.993,0.204,1.743,1.079,1.75,2.131c-0.004,0.35-0.092,0.691-0.252,0.995    c0.354,0.578,0.545,1.252,0.545,1.931C40.027,34.02,38.372,35.673,36.338,35.673z"/>
	</g>
</g>















</svg>
