<?xml version="1.0" encoding="iso-8859-1"?>
<!-- Generator: Adobe Illustrator 21.0.0, SVG Export Plug-In . SVG Version: 6.00 Build 0)  -->
<svg xmlns="http://www.w3.org/2000/svg" xmlns:xlink="http://www.w3.org/1999/xlink" version="1.1" id="Capa_1" x="0px" y="0px" viewBox="0 0 43.101 43.101" style="enable-background:new 0 0 43.101 43.101;" xml:space="preserve" width="512" height="512">
<g>
	<g id="_Group__457_">
		
			<ellipse id="_Ellipse__523_" style="opacity:0.15;fill:#45413C;enable-background:new    ;" cx="22.307" cy="41.121" rx="15.16" ry="1.98"/>
		<path id="_Compound_Path__98_" style="fill:#FFFFFF;" d="M37.237,40.161c0.737-0.737,1.078-1.78,0.92-2.81    c1.029,0.149,2.068-0.192,2.81-0.92c1.217-1.357,1.103-3.443-0.254-4.66c-1.254-1.124-3.153-1.124-4.406,0    c-0.16,0.16-8.86-7.93-8.86-7.93l-2.83,2.8c0,0,8.08,8.7,7.92,8.86c-1.357,1.217-1.471,3.303-0.254,4.66    c1.217,1.357,3.303,1.471,4.66,0.254c0.089-0.08,0.174-0.165,0.254-0.254H37.237z"/>
		<g id="_Group_2_304_">
			<path id="_Path__536_" style="fill:#F0F0F0;" d="M38.907,34.411c0.282,2.041-1.143,3.924-3.184,4.206     c-1.136,0.157-2.282-0.217-3.106-1.016c-0.293-0.289-0.534-0.628-0.71-1c-0.7,1.677,0.092,3.604,1.769,4.303     c1.677,0.7,3.604-0.092,4.303-1.769c0.231-0.554,0.306-1.16,0.218-1.754c1.029,0.149,2.068-0.192,2.81-0.92     c0.76-0.755,1.1-1.836,0.91-2.89C41.083,34.274,39.985,34.581,38.907,34.411z"/>
		</g>
		<path style="fill:#45413C;" d="M34.745,41.758c-0.069,0-0.141-0.002-0.211-0.006c-1.014-0.056-1.944-0.502-2.622-1.258    s-1.021-1.729-0.966-2.743c0.048-0.868,0.382-1.676,0.951-2.315c-0.957-1.191-5.042-5.651-7.646-8.455    c-0.184-0.197-0.178-0.505,0.015-0.695l2.83-2.801c0.19-0.188,0.496-0.191,0.692-0.011c2.829,2.632,7.349,6.776,8.488,7.683    c1.449-1.049,3.427-0.963,4.771,0.242c0.756,0.678,1.202,1.608,1.258,2.622c0.055,1.014-0.288,1.988-0.966,2.744    c-0.719,0.708-1.671,1.101-2.645,1.119c-0.011,0.978-0.402,1.929-1.104,2.63c-0.037,0.037-0.079,0.067-0.125,0.092    c-0.061,0.062-0.123,0.122-0.188,0.18C36.575,41.418,35.682,41.758,34.745,41.758z M25.314,26.656    c8.076,8.699,8.016,8.761,7.577,9.198c-0.577,0.519-0.906,1.204-0.946,1.951c-0.041,0.747,0.212,1.465,0.711,2.021    c0.5,0.558,1.186,0.887,1.933,0.927c0.74,0.042,1.464-0.212,2.021-0.711c0.075-0.067,0.148-0.141,0.217-0.217    c0.042-0.046,0.092-0.084,0.146-0.111c0.561-0.616,0.817-1.461,0.69-2.287c-0.024-0.157,0.027-0.315,0.139-0.428    s0.271-0.163,0.427-0.144c0.871,0.128,1.762-0.167,2.388-0.781c0.478-0.534,0.73-1.253,0.689-1.999    c-0.04-0.747-0.369-1.433-0.927-1.933c-1.063-0.954-2.671-0.956-3.738,0c-0.421,0.42-0.479,0.482-9.183-7.61L25.314,26.656z     M37.238,40.161h0.01H37.238z"/>
		<path id="_Path_2_528_" style="fill:#BF8256;" d="M24.327,5.801l11.36,11.37c1.253,1.216,1.994,2.865,2.07,4.61    c0.08,2.4-0.89,5.86-5.1,10.07c-7.11,7.11-12,4.8-14.06,2.71c-2.83-2.82-2.72-3.87-4.61-5.75s-2.81-0.71-7.37-5.29L24.327,5.801z"/>
		<path id="_Path_3_525_" style="fill:#915E3A;" d="M20.867,32.171c-3.25-3.26-3.25-4.38-5.41-6.56c-1.84-1.88-2.84-1.26-6.46-4.51    l-2.38,2.42c4.56,4.56,5.49,3.4,7.37,5.29s1.78,2.93,4.61,5.75c1.77,1.78,5.56,3.72,11-0.13    C26.495,35.418,23.101,34.54,20.867,32.171z"/>
		<path style="fill:#45413C;" d="M23.578,37.158c-0.01,0-0.02,0-0.029,0c-2.703-0.01-4.486-1.411-5.308-2.246    c-1.589-1.583-2.277-2.631-2.884-3.555c-0.487-0.741-0.908-1.382-1.722-2.191c-0.673-0.669-1.186-0.903-1.895-1.229    c-1.171-0.536-2.629-1.203-5.477-4.063c-0.194-0.195-0.194-0.511,0.001-0.706l17.71-17.72c0.094-0.094,0.221-0.146,0.354-0.146    l0,0c0.133,0,0.26,0.053,0.354,0.146l11.359,11.37c1.345,1.304,2.134,3.061,2.217,4.941c0.076,2.298-0.771,5.971-5.246,10.446    C29.724,35.491,26.55,37.158,23.578,37.158z M7.326,23.519c2.486,2.437,3.781,3.028,4.83,3.509    c0.743,0.34,1.385,0.634,2.184,1.429c0.888,0.883,1.356,1.597,1.853,2.352c0.581,0.884,1.238,1.885,2.757,3.398    c0.716,0.728,2.263,1.942,4.603,1.951c0.009,0,0.018,0,0.025,0c2.697,0,5.633-1.567,8.726-4.66c4.221-4.221,5.023-7.604,4.953-9.7    c-0.07-1.619-0.752-3.136-1.918-4.268L24.328,6.508L7.326,23.519z"/>
		
			<ellipse id="_Path_5_510_" transform="matrix(0.7071 -0.7071 0.7071 0.7071 -5.8393 15.2287)" style="fill:#DEA47A;" cx="15.463" cy="14.663" rx="12.52" ry="8.1"/>
		<path id="_Path_6_472_" style="fill:#BF8256;" d="M21.197,17.511c-4.89,4.89-11.42,6.29-14.58,3.12    c-0.838-0.855-1.389-1.948-1.58-3.13c-0.47,2.138,0.118,4.371,1.58,6c3.16,3.16,9.69,1.76,14.58-3.13c3.6-3.6,5.3-8.08,4.69-11.46    C25.255,12.195,23.615,15.201,21.197,17.511z"/>
		<path style="fill:#45413C;" d="M11.118,25.693c-1.919,0-3.627-0.59-4.861-1.823C2.904,20.517,4.306,13.658,9.382,8.582l0,0    c2.432-2.432,5.339-4.107,8.187-4.718c2.925-0.627,5.448-0.062,7.101,1.593c3.353,3.353,1.951,10.211-3.125,15.288    C18.336,23.953,14.415,25.693,11.118,25.693z M10.089,9.289C5.402,13.976,4,20.199,6.964,23.163    c2.964,2.964,9.188,1.562,13.874-3.125c4.686-4.687,6.088-10.911,3.125-13.874c-1.405-1.406-3.601-1.876-6.185-1.322    C15.117,5.412,12.386,6.991,10.089,9.289L10.089,9.289z"/>
		<path id="_Compound_Path_3_4_" style="fill:#FFFFFF;" d="M6.767,0.901c-1.21,0.666-1.88,2.013-1.68,3.38    c-1.367-0.2-2.714,0.47-3.38,1.68c-0.56,0.99-0.56,2.2,0,3.19c0.89,1.584,2.895,2.147,4.48,1.257    c0.264-0.148,0.507-0.333,0.72-0.547c0.12-0.12,3.87,3.24,5.83,5c0.656,0.59,1.661,0.56,2.28-0.07l0.56-0.56    c0.63-0.619,0.66-1.624,0.07-2.28c-1.77-2-5.12-5.71-5-5.83c1.288-1.282,1.292-3.365,0.01-4.653    c-0.214-0.215-0.456-0.399-0.72-0.547C8.956,0.363,7.755,0.355,6.767,0.901z"/>
		<g id="_Group_3_245_">
			<path id="_Path_8_428_" style="fill:#F0F0F0;" d="M11.617,3.831c-0.06,0.08-0.11,0.16-0.17,0.23c-0.06,0.07,0,0.1,0.14,0.24     C11.607,4.145,11.617,3.988,11.617,3.831z"/>
			<path id="_Path_9_397_" style="fill:#F0F0F0;" d="M15.617,14.241c-0.44-0.049-0.852-0.242-1.17-0.55c-2.27-2.07-6.61-6-6.72-5.9     c-1.49,1.49-4.29,1-5.7-1.2C1.906,6.39,1.802,6.18,1.717,5.961c-0.56,0.99-0.56,2.2,0,3.19c0.89,1.584,2.895,2.147,4.48,1.257     c0.264-0.148,0.507-0.333,0.72-0.547c0.12-0.12,3.87,3.24,5.83,5c0.656,0.59,1.661,0.56,2.28-0.07L15.617,14.241z"/>
		</g>
		<path style="fill:#45413C;" d="M13.842,15.786c-0.513,0-1.027-0.184-1.439-0.554c-2.952-2.65-4.775-4.244-5.436-4.752    c-0.167,0.136-0.346,0.257-0.535,0.364c-1.824,1.022-4.138,0.373-5.161-1.449C0.63,8.261,0.63,6.851,1.272,5.715    c0.661-1.202,1.931-1.946,3.281-1.968c0.022-1.35,0.767-2.62,1.973-3.283l0,0c1.132-0.626,2.534-0.617,3.659,0.023    c0.302,0.169,0.581,0.382,0.827,0.629c0.714,0.717,1.106,1.67,1.104,2.682c-0.002,0.878-0.3,1.709-0.848,2.381    c0.589,0.76,2.505,2.913,3.709,4.265l1.044,1.175c0.769,0.854,0.729,2.16-0.094,2.968l-0.557,0.557    C14.952,15.571,14.398,15.786,13.842,15.786z M6.859,9.331c0.448,0,1.511,0.935,6.212,5.158c0.458,0.413,1.157,0.391,1.59-0.048    l0.563-0.563c0.443-0.436,0.465-1.134,0.052-1.592l-1.045-1.176C9.861,6.2,9.861,6.2,10.294,5.767    c0.529-0.526,0.82-1.227,0.822-1.972c0.001-0.745-0.287-1.446-0.813-1.975c-0.181-0.182-0.387-0.338-0.611-0.464    c-0.827-0.47-1.853-0.476-2.683-0.019c0,0,0,0-0.001,0c-1.022,0.562-1.595,1.715-1.426,2.87c0.023,0.156-0.029,0.314-0.141,0.426    C5.33,4.746,5.173,4.801,5.015,4.776C3.858,4.609,2.707,5.18,2.145,6.202C1.672,7.039,1.672,8.073,2.142,8.905    c0.366,0.651,0.962,1.12,1.679,1.321c0.716,0.2,1.47,0.112,2.121-0.253c0.225-0.126,0.43-0.282,0.61-0.464    C6.652,9.409,6.73,9.331,6.859,9.331z M6.767,0.901h0.01H6.767z"/>
	</g>
</g>















</svg>
