<?xml version="1.0" encoding="iso-8859-1"?>
<!-- Generator: Adobe Illustrator 21.0.0, SVG Export Plug-In . SVG Version: 6.00 Build 0)  -->
<svg xmlns="http://www.w3.org/2000/svg" xmlns:xlink="http://www.w3.org/1999/xlink" version="1.1" id="Capa_1" x="0px" y="0px" viewBox="0 0 44.91 44.91" style="enable-background:new 0 0 44.91 44.91;" xml:space="preserve" width="512" height="512">
<g>
	<g id="_Group__502_">
		
			<ellipse id="_Ellipse__573_" style="opacity:0.15;fill:#45413C;enable-background:new    ;" cx="22.455" cy="43.06" rx="20.34" ry="1.85"/>
		<g>
			<path id="_Rectangle__192_" style="fill:#FFFFFF;" d="M5.195,31.91h34.52c0.679,0,1.23,0.551,1.23,1.23v8.63     c0,0.342-0.278,0.62-0.62,0.62H4.585c-0.342,0-0.62-0.278-0.62-0.62v-8.61c-0.011-0.679,0.531-1.239,1.21-1.25     C5.182,31.91,5.188,31.91,5.195,31.91z"/>
			<path style="fill:#45413C;" d="M40.325,42.89H4.585c-0.618,0-1.12-0.503-1.12-1.12V33.16c-0.008-0.454,0.166-0.892,0.487-1.224     s0.753-0.519,1.215-0.526c0.002,0,0.025,0,0.028,0h34.52c0.954,0,1.73,0.775,1.73,1.729v8.63     C41.445,42.387,40.942,42.89,40.325,42.89z M5.175,32.41c-0.187,0.003-0.369,0.082-0.505,0.222     c-0.135,0.141-0.208,0.325-0.205,0.521v8.617c0,0.066,0.054,0.12,0.12,0.12h35.74c0.066,0,0.12-0.054,0.12-0.12v-8.63     c0-0.402-0.328-0.729-0.73-0.729H5.175z"/>
		</g>
		<rect id="_Rectangle_2_171_" x="5.815" y="3.58" style="fill:#FFFFFF;" width="33.28" height="28.35"/>
		<rect id="_Rectangle_3_147_" x="5.815" y="3.58" style="fill:#E0E0E0;" width="33.28" height="2.62"/>
		<path style="fill:#45413C;" d="M39.095,32.43H5.815c-0.276,0-0.5-0.224-0.5-0.5V3.58c0-0.276,0.224-0.5,0.5-0.5h33.28    c0.276,0,0.5,0.224,0.5,0.5v28.35C39.595,32.206,39.372,32.43,39.095,32.43z M6.315,31.43h32.28V4.08H6.315V31.43z"/>
		<path id="_Rectangle_5_101_" style="fill:#87898C;" d="M5.815,0.5h33.29c0.679,0,1.23,0.551,1.23,1.23v0.62    c0,0.679-0.551,1.23-1.23,1.23H5.815c-0.679,0-1.23-0.551-1.23-1.23V1.73C4.585,1.051,5.136,0.5,5.815,0.5z"/>
		<path id="_Path__586_" style="fill:#BDBEC0;" d="M39.095,0.5H5.815c-0.679,0-1.23,0.551-1.23,1.23l0,0v0.62    c-0.001,0.158,0.03,0.314,0.09,0.46c0.188-0.465,0.639-0.77,1.14-0.77h33.28c0.501,0,0.952,0.305,1.14,0.77    c0.06-0.146,0.091-0.302,0.09-0.46V1.73C40.325,1.051,39.774,0.5,39.095,0.5z"/>
		<path style="fill:#45413C;" d="M39.105,4.08H5.815c-0.954,0-1.73-0.776-1.73-1.73V1.73C4.085,0.776,4.861,0,5.815,0h33.29    c0.954,0,1.729,0.776,1.729,1.73v0.62C40.835,3.304,40.059,4.08,39.105,4.08z M5.815,1c-0.402,0-0.73,0.328-0.73,0.73v0.62    c0,0.402,0.328,0.73,0.73,0.73h33.29c0.402,0,0.729-0.328,0.729-0.73V1.73c0-0.402-0.327-0.73-0.729-0.73H5.815z"/>
		<rect id="_Rectangle_7_94_" x="17.525" y="34.4" style="fill:#00B8F0;" width="9.86" height="8.01"/>
		<polygon id="_Path_2_578_" style="fill:#4ACFFF;" points="19.455,42.41 24.195,42.41 27.385,34.4 27.385,34.4 22.645,34.4   "/>
		<path style="fill:#45413C;" d="M27.385,42.91h-9.859c-0.276,0-0.5-0.224-0.5-0.5V34.4c0-0.276,0.224-0.5,0.5-0.5h9.859    c0.276,0,0.5,0.224,0.5,0.5v8.01C27.885,42.687,27.661,42.91,27.385,42.91z M18.025,41.91h8.859V34.9h-8.859V41.91z"/>
		<rect id="_Rectangle_9_78_" x="8.895" y="35.01" style="fill:#00B8F0;" width="3.7" height="4.31"/>
		<polygon id="_Path_3_575_" style="fill:#4ACFFF;" points="10.185,39.33 12.595,39.33 12.595,35.01 11.905,35.01   "/>
		<rect id="_Rectangle_10_65_" x="9.515" y="24.54" style="fill:#00B8F0;" width="3.7" height="4.31"/>
		<polygon id="_Path_4_570_" style="fill:#4ACFFF;" points="10.795,28.85 13.205,28.85 13.205,24.54 12.515,24.54   "/>
		<rect id="_Rectangle_11_55_" x="31.705" y="24.54" style="fill:#00B8F0;" width="3.7" height="4.31"/>
		<polygon id="_Path_5_559_" style="fill:#4ACFFF;" points="32.985,28.85 35.395,28.85 35.395,24.54 34.705,24.54   "/>
		<rect id="_Rectangle_12_51_" x="24.305" y="24.54" style="fill:#00B8F0;" width="3.7" height="4.31"/>
		<polygon id="_Path_6_521_" style="fill:#4ACFFF;" points="25.595,28.85 28.005,28.85 28.005,24.54 27.305,24.54   "/>
		<rect id="_Rectangle_13_41_" x="16.905" y="24.54" style="fill:#00B8F0;" width="3.7" height="4.31"/>
		<polygon id="_Path_7_500_" style="fill:#4ACFFF;" points="18.195,28.85 20.605,28.85 20.605,24.54 19.915,24.54   "/>
		<rect id="_Rectangle_14_30_" x="9.515" y="15.91" style="fill:#00B8F0;" width="3.7" height="4.31"/>
		<polygon id="_Path_8_473_" style="fill:#4ACFFF;" points="10.795,20.22 13.205,20.22 13.205,15.91 12.515,15.91   "/>
		<rect id="_Rectangle_15_20_" x="31.705" y="15.91" style="fill:#00B8F0;" width="3.7" height="4.31"/>
		<polygon id="_Path_9_440_" style="fill:#4ACFFF;" points="32.985,20.22 35.395,20.22 35.395,15.91 34.705,15.91   "/>
		<rect id="_Rectangle_16_12_" x="24.305" y="15.91" style="fill:#00B8F0;" width="3.7" height="4.31"/>
		<polygon id="_Path_10_406_" style="fill:#4ACFFF;" points="25.595,20.22 28.005,20.22 28.005,15.91 27.305,15.91   "/>
		<rect id="_Rectangle_17_9_" x="16.905" y="15.91" style="fill:#00B8F0;" width="3.7" height="4.31"/>
		<polygon id="_Path_11_375_" style="fill:#4ACFFF;" points="18.195,20.22 20.605,20.22 20.605,15.91 19.915,15.91   "/>
		<rect id="_Rectangle_18_4_" x="9.515" y="7.28" style="fill:#00B8F0;" width="3.7" height="4.31"/>
		<polygon id="_Path_12_350_" style="fill:#4ACFFF;" points="10.795,11.59 13.205,11.59 13.205,7.28 12.515,7.28   "/>
		<rect id="_Rectangle_19_4_" x="31.705" y="7.28" style="fill:#00B8F0;" width="3.7" height="4.31"/>
		<polygon id="_Path_13_331_" style="fill:#4ACFFF;" points="32.985,11.59 35.395,11.59 35.395,7.28 34.705,7.28   "/>
		<rect id="_Rectangle_20_4_" x="24.305" y="7.28" style="fill:#00B8F0;" width="3.7" height="4.31"/>
		<polygon id="_Path_14_305_" style="fill:#4ACFFF;" points="25.595,11.59 28.005,11.59 28.005,7.28 27.305,7.28   "/>
		<rect id="_Rectangle_21" x="16.905" y="7.28" style="fill:#00B8F0;" width="3.7" height="4.31"/>
		<polygon id="_Path_15_286_" style="fill:#4ACFFF;" points="18.195,11.59 20.605,11.59 20.605,7.28 19.915,7.28   "/>
		<path style="fill:#45413C;" d="M13.215,29.35h-3.7c-0.276,0-0.5-0.224-0.5-0.5v-4.31c0-0.276,0.224-0.5,0.5-0.5h3.7    c0.276,0,0.5,0.224,0.5,0.5v4.31C13.715,29.126,13.491,29.35,13.215,29.35z M10.015,28.35h2.7v-3.31h-2.7V28.35z"/>
		<path style="fill:#45413C;" d="M35.405,29.35h-3.7c-0.276,0-0.5-0.224-0.5-0.5v-4.31c0-0.276,0.224-0.5,0.5-0.5h3.7    c0.276,0,0.5,0.224,0.5,0.5v4.31C35.905,29.126,35.681,29.35,35.405,29.35z M32.205,28.35h2.7v-3.31h-2.7V28.35z"/>
		<path style="fill:#45413C;" d="M28.005,29.35h-3.699c-0.276,0-0.5-0.224-0.5-0.5v-4.31c0-0.276,0.224-0.5,0.5-0.5h3.699    c0.276,0,0.5,0.224,0.5,0.5v4.31C28.505,29.126,28.281,29.35,28.005,29.35z M24.805,28.35h2.699v-3.31h-2.699V28.35z"/>
		<path style="fill:#45413C;" d="M20.605,29.35h-3.7c-0.276,0-0.5-0.224-0.5-0.5v-4.31c0-0.276,0.224-0.5,0.5-0.5h3.7    c0.276,0,0.5,0.224,0.5,0.5v4.31C21.105,29.126,20.882,29.35,20.605,29.35z M17.405,28.35h2.7v-3.31h-2.7V28.35z"/>
		<path style="fill:#45413C;" d="M13.215,20.72h-3.7c-0.276,0-0.5-0.224-0.5-0.5v-4.31c0-0.276,0.224-0.5,0.5-0.5h3.7    c0.276,0,0.5,0.224,0.5,0.5v4.31C13.715,20.497,13.491,20.72,13.215,20.72z M10.015,19.72h2.7v-3.31h-2.7V19.72z"/>
		<path style="fill:#45413C;" d="M35.405,20.72h-3.7c-0.276,0-0.5-0.224-0.5-0.5v-4.31c0-0.276,0.224-0.5,0.5-0.5h3.7    c0.276,0,0.5,0.224,0.5,0.5v4.31C35.905,20.497,35.681,20.72,35.405,20.72z M32.205,19.72h2.7v-3.31h-2.7V19.72z"/>
		<path style="fill:#45413C;" d="M28.005,20.72h-3.699c-0.276,0-0.5-0.224-0.5-0.5v-4.31c0-0.276,0.224-0.5,0.5-0.5h3.699    c0.276,0,0.5,0.224,0.5,0.5v4.31C28.505,20.497,28.281,20.72,28.005,20.72z M24.805,19.72h2.699v-3.31h-2.699V19.72z"/>
		<path style="fill:#45413C;" d="M20.605,20.72h-3.7c-0.276,0-0.5-0.224-0.5-0.5v-4.31c0-0.276,0.224-0.5,0.5-0.5h3.7    c0.276,0,0.5,0.224,0.5,0.5v4.31C21.105,20.497,20.882,20.72,20.605,20.72z M17.405,19.72h2.7v-3.31h-2.7V19.72z"/>
		<path style="fill:#45413C;" d="M13.215,12.09h-3.7c-0.276,0-0.5-0.224-0.5-0.5V7.28c0-0.276,0.224-0.5,0.5-0.5h3.7    c0.276,0,0.5,0.224,0.5,0.5v4.31C13.715,11.866,13.491,12.09,13.215,12.09z M10.015,11.09h2.7V7.78h-2.7V11.09z"/>
		<path style="fill:#45413C;" d="M35.405,12.09h-3.7c-0.276,0-0.5-0.224-0.5-0.5V7.28c0-0.276,0.224-0.5,0.5-0.5h3.7    c0.276,0,0.5,0.224,0.5,0.5v4.31C35.905,11.866,35.681,12.09,35.405,12.09z M32.205,11.09h2.7V7.78h-2.7V11.09z"/>
		<path style="fill:#45413C;" d="M28.005,12.09h-3.699c-0.276,0-0.5-0.224-0.5-0.5V7.28c0-0.276,0.224-0.5,0.5-0.5h3.699    c0.276,0,0.5,0.224,0.5,0.5v4.31C28.505,11.866,28.281,12.09,28.005,12.09z M24.805,11.09h2.699V7.78h-2.699V11.09z"/>
		<path style="fill:#45413C;" d="M20.605,12.09h-3.7c-0.276,0-0.5-0.224-0.5-0.5V7.28c0-0.276,0.224-0.5,0.5-0.5h3.7    c0.276,0,0.5,0.224,0.5,0.5v4.31C21.105,11.866,20.882,12.09,20.605,12.09z M17.405,11.09h2.7V7.78h-2.7V11.09z"/>
		<rect id="_Rectangle_34" x="32.315" y="35.01" style="fill:#00B8F0;" width="3.7" height="4.31"/>
		<polygon id="_Path_16_273_" style="fill:#4ACFFF;" points="33.625,39.33 36.045,39.33 36.045,35.01 35.345,35.01   "/>
		<path style="fill:#45413C;" d="M12.595,39.82h-3.7c-0.276,0-0.5-0.224-0.5-0.5V35.01c0-0.276,0.224-0.5,0.5-0.5h3.7    c0.276,0,0.5,0.224,0.5,0.5v4.311C13.095,39.597,12.871,39.82,12.595,39.82z M9.395,38.82h2.7V35.51h-2.7V38.82z"/>
		<path style="fill:#45413C;" d="M36.015,39.82h-3.7c-0.276,0-0.5-0.224-0.5-0.5V35.01c0-0.276,0.224-0.5,0.5-0.5h3.7    c0.276,0,0.5,0.224,0.5,0.5v4.311C36.515,39.597,36.292,39.82,36.015,39.82z M32.815,38.82h2.7V35.51h-2.7V38.82z"/>
		<path style="fill:#45413C;" d="M22.455,42.91c-0.276,0-0.5-0.224-0.5-0.5V34.4c0-0.276,0.224-0.5,0.5-0.5s0.5,0.224,0.5,0.5v8.01    C22.955,42.687,22.731,42.91,22.455,42.91z"/>
		<path id="_Rectangle_37" style="fill:#87898C;" d="M17.295,31.32h10.33c0.679,0,1.23,0.551,1.23,1.23v0.62    c0,0.679-0.551,1.23-1.23,1.23h-10.33c-0.679,0-1.23-0.551-1.23-1.23v-0.62C16.065,31.871,16.616,31.32,17.295,31.32z"/>
		<path id="_Path_18_210_" style="fill:#BDBEC0;" d="M27.615,31.32h-10.32c-0.679,0-1.23,0.551-1.23,1.23v0.61    c0.001,0.16,0.028,0.319,0.08,0.47c0.208-0.445,0.658-0.727,1.15-0.72h10.32c0.501,0,0.952,0.305,1.14,0.77    c0.06-0.149,0.091-0.309,0.09-0.47V32.6c0.028-0.679-0.5-1.251-1.179-1.279C27.649,31.32,27.632,31.32,27.615,31.32z"/>
		<path style="fill:#45413C;" d="M27.625,34.9h-10.33c-0.954,0-1.73-0.776-1.73-1.73v-0.62c0-0.954,0.776-1.729,1.73-1.729h10.33    c0.954,0,1.73,0.775,1.73,1.729v0.62C29.355,34.124,28.579,34.9,27.625,34.9z M17.295,31.82c-0.402,0-0.73,0.327-0.73,0.729v0.62    c0,0.402,0.328,0.73,0.73,0.73h10.33c0.402,0,0.73-0.328,0.73-0.73v-0.62c0-0.402-0.328-0.729-0.73-0.729H17.295z"/>
	</g>
</g>















</svg>
