<?xml version="1.0" encoding="iso-8859-1"?>
<!-- Generator: Adobe Illustrator 21.0.0, SVG Export Plug-In . SVG Version: 6.00 Build 0)  -->
<svg xmlns="http://www.w3.org/2000/svg" xmlns:xlink="http://www.w3.org/1999/xlink" version="1.1" id="Capa_1" x="0px" y="0px" viewBox="0 0 44.663 44.663" style="enable-background:new 0 0 44.663 44.663;" xml:space="preserve" width="512" height="512">
<g>
	<g id="_Group__481_">
		
			<ellipse id="_Ellipse__551_" style="opacity:0.15;fill:#45413C;enable-background:new    ;" cx="22.894" cy="43.033" rx="12.53" ry="1.63"/>
		<path id="_Path__564_" style="fill:#E5F8FF;" d="M17.584,42.193l-8.07-4.42c-2.79-1.52-4-4.6-2.8-6.88l8.91-16.29    c0.686-1.228,1.696-2.245,2.92-2.94l0,0l16.15,8.84l0,0c0.071,1.39-0.241,2.774-0.9,4l-8.91,16.33    C23.634,43.103,20.374,43.713,17.584,42.193z"/>
		<path id="_Path_2_556_" style="fill:#E5FFF9;" d="M32.994,26.003l-8.11,14.83c-1.25,2.27-4.52,2.88-7.31,1.35l-8.06-4.41    c-2.79-1.52-4-4.6-2.8-6.88l2.68-4.89L32.994,26.003z"/>
		<polygon id="_Path_3_553_" style="fill:#FFFFFF;" points="30.534,30.503 33.004,26.003 9.394,26.003 6.934,30.503   "/>
		<path style="fill:#45413C;" d="M20.758,43.527c-1.126,0-2.314-0.291-3.427-0.901l-8.06-4.409c-2.992-1.631-4.34-5.021-3.004-7.559    l2.684-4.898c0.089-0.161,0.258-0.262,0.443-0.262h23.6c0.179,0,0.344,0.094,0.435,0.247s0.094,0.344,0.009,0.5l-8.11,14.83    C24.452,42.665,22.695,43.527,20.758,43.527z M9.693,26.508l-2.537,4.629C6.08,33.18,7.244,35.962,9.755,37.33l8.061,4.41    c2.538,1.391,5.51,0.875,6.625-1.15l7.701-14.082H9.693z"/>
		<path style="fill:#45413C;" d="M20.752,43.527c-1.121,0-2.303-0.288-3.41-0.891c0,0,0,0-0.001,0l-8.07-4.42    c-2.992-1.631-4.34-5.021-3.004-7.559l8.914-16.297c0.734-1.313,1.81-2.397,3.113-3.137c0.153-0.086,0.339-0.088,0.492-0.004    l16.15,8.84c0.154,0.084,0.253,0.242,0.262,0.417c0.075,1.482-0.257,2.957-0.96,4.264l-8.911,16.333    C24.452,42.664,22.693,43.527,20.752,43.527z M17.825,41.75c2.535,1.381,5.503,0.859,6.616-1.16l8.909-16.329    c0.57-1.06,0.861-2.249,0.848-3.453l-15.644-8.563c-1.036,0.643-1.893,1.539-2.489,2.606L7.156,31.136    C6.08,33.18,7.244,35.962,9.755,37.33L17.825,41.75z"/>
		<path id="_Rectangle__184_" style="fill:#4AEFF7;" d="M21.547,5.857l16.309,8.922c0.514,0.281,0.702,0.925,0.421,1.439    l-2.121,3.878c-0.281,0.514-0.925,0.702-1.439,0.421l-16.309-8.922c-0.514-0.281-0.702-0.925-0.421-1.439l2.121-3.878    C20.39,5.764,21.034,5.576,21.547,5.857z"/>
		<path id="_Path_6_499_" style="fill:#A6FBFF;" d="M18.404,11.593l0.54,0.3l0,0c0.92-1.687,3.033-2.309,4.72-1.39l13.65,7.47    l1-1.75c0.286-0.511,0.104-1.157-0.407-1.443c-0.004-0.002-0.009-0.005-0.013-0.007l-16.35-8.91    c-0.513-0.282-1.158-0.094-1.439,0.419c0,0,0,0.001-0.001,0.001l-2.12,3.87c-0.282,0.513-0.094,1.158,0.419,1.439    C18.403,11.593,18.403,11.593,18.404,11.593z"/>
		<path style="fill:#45413C;" d="M35.223,21.151c-0.253,0-0.511-0.062-0.748-0.191l-16.309-8.922    c-0.367-0.2-0.633-0.532-0.751-0.933c-0.117-0.401-0.071-0.825,0.129-1.191l2.121-3.877c0.2-0.367,0.532-0.634,0.933-0.751    c0.402-0.117,0.824-0.071,1.19,0.129l16.309,8.921c0.757,0.414,1.036,1.366,0.623,2.124L36.6,20.337    C36.316,20.856,35.778,21.151,35.223,21.151z M21.039,6.231c-0.052,0-0.104,0.007-0.156,0.022    c-0.142,0.042-0.26,0.136-0.331,0.266l-2.122,3.878c-0.071,0.13-0.087,0.28-0.046,0.422c0.042,0.142,0.136,0.26,0.266,0.331    l16.309,8.922c0.271,0.146,0.607,0.047,0.754-0.221l2.121-3.877c0.146-0.269,0.048-0.606-0.221-0.753L21.305,6.3c0,0,0,0,0,0    C21.222,6.254,21.131,6.231,21.039,6.231z"/>
		<path id="_Path_7_478_" style="fill:#FFF48C;" d="M35.914,8.963L35.914,8.963c-0.68-1.146-0.812-2.536-0.36-3.79l0.23-0.68    c0.791-1.268,0.406-2.936-0.86-3.73c-1.353-0.635-2.966-0.059-3.61,1.29l-0.44,0.61c-0.817,1.052-2.058,1.689-3.39,1.74l0,0    c-1.755,0.051-3.396,0.879-4.48,2.26l0,0l13.38,7.32l0,0C36.972,12.322,36.8,10.486,35.914,8.963z"/>
		<g id="_Group_2_320_">
			<path id="_Path_8_453_" style="fill:#FFFACF;" d="M27.484,7.043c1.332-0.051,2.573-0.688,3.39-1.74l0.44-0.56     c0.644-1.349,2.257-1.925,3.61-1.29c0.387,0.21,0.704,0.53,0.91,0.92c0.713-1.253,0.312-2.845-0.91-3.61     c-1.353-0.635-2.966-0.059-3.61,1.29l-0.44,0.61c-0.817,1.052-2.058,1.689-3.39,1.74c-1.754,0.053-3.395,0.881-4.48,2.26     l1.95,1.07C25.728,7.301,26.597,7.064,27.484,7.043z"/>
		</g>
		<path style="fill:#45413C;" d="M36.384,14.488c-0.084,0-0.167-0.021-0.242-0.062l-13.38-7.32c-0.13-0.071-0.223-0.196-0.252-0.341    s0.006-0.296,0.097-0.413c1.181-1.504,2.953-2.398,4.863-2.453c1.181-0.045,2.278-0.608,3.006-1.545l0.428-0.596    c0.717-1.516,2.637-2.203,4.235-1.452c1.533,0.958,1.998,2.908,1.105,4.402l-0.212,0.627c-0.406,1.125-0.29,2.35,0.316,3.37    c0,0.001,0.001,0.002,0.002,0.004c0.962,1.654,1.147,3.638,0.509,5.442c-0.049,0.14-0.157,0.25-0.295,0.303    C36.506,14.477,36.444,14.488,36.384,14.488z M23.799,6.522l12.278,6.717c0.32-1.361,0.112-2.797-0.599-4.021    c-0.759-1.28-0.905-2.817-0.399-4.217l0.227-0.671c0.013-0.037,0.029-0.072,0.05-0.105c0.642-1.029,0.327-2.391-0.7-3.035    c-1.042-0.487-2.362-0.014-2.886,1.08l-0.485,0.688c-0.922,1.187-2.296,1.893-3.78,1.949C26.092,4.948,24.772,5.53,23.799,6.522z"/>
		<path style="fill:#45413C;" d="M19.453,17.088c-0.082,0-0.166-0.02-0.243-0.062l-3.77-2.07c-0.244-0.134-0.333-0.441-0.2-0.686    c0.135-0.245,0.441-0.333,0.686-0.2l3.77,2.07c0.244,0.134,0.333,0.441,0.2,0.686C19.804,16.994,19.632,17.088,19.453,17.088z"/>
		<path style="fill:#45413C;" d="M16.653,22.198c-0.082,0-0.166-0.02-0.243-0.063l-3.77-2.069c-0.244-0.134-0.333-0.441-0.2-0.686    c0.134-0.245,0.44-0.333,0.686-0.2l3.77,2.07c0.244,0.134,0.333,0.441,0.2,0.686C17.004,22.103,16.831,22.198,16.653,22.198z"/>
		<path style="fill:#45413C;" d="M13.783,27.458c-0.082,0-0.165-0.02-0.242-0.062l-3.78-2.069c-0.245-0.135-0.334-0.441-0.2-0.686    c0.134-0.246,0.439-0.336,0.686-0.201l3.78,2.069c0.245,0.135,0.334,0.441,0.2,0.686C14.135,27.363,13.962,27.458,13.783,27.458z"/>
		<path style="fill:#45413C;" d="M11.163,32.238c-0.082,0-0.166-0.02-0.243-0.063l-3.77-2.07c-0.244-0.134-0.333-0.441-0.2-0.686    c0.135-0.244,0.442-0.336,0.686-0.199l3.77,2.07c0.244,0.134,0.333,0.441,0.2,0.686C11.514,32.143,11.342,32.238,11.163,32.238z"/>
	</g>
</g>















</svg>
