<?xml version="1.0" encoding="iso-8859-1"?>
<!-- Generator: Adobe Illustrator 21.0.0, SVG Export Plug-In . SVG Version: 6.00 Build 0)  -->
<svg xmlns="http://www.w3.org/2000/svg" xmlns:xlink="http://www.w3.org/1999/xlink" version="1.1" id="Capa_1" x="0px" y="0px" viewBox="0 0 47 47" style="enable-background:new 0 0 47 47;" xml:space="preserve" width="512" height="512">
<g>
	<g id="_Group__487_">
		
			<ellipse id="_Ellipse__558_" style="opacity:0.15;fill:#45413C;enable-background:new    ;" cx="24.76" cy="45.33" rx="11.16" ry="1.67"/>
		<g id="_Group_2_325_">
			<g>
				<path id="_Path__572_" style="fill:#00B8F0;" d="M33.83,43.36c-0.55-1.06-3.33-1.91-6.94-2.16      c-0.457-0.026-0.815-0.402-0.82-0.86v-7.07h-2.62v7.07c-0.005,0.458-0.363,0.834-0.82,0.86c-3.61,0.25-6.39,1.1-6.94,2.16      c-0.102,0.202-0.021,0.449,0.181,0.551c0.006,0.003,0.013,0.006,0.019,0.009c0.85,0.44,3.58,1.58,8.87,1.58s8-1.14,8.87-1.58      c0.207-0.092,0.301-0.334,0.209-0.541C33.836,43.372,33.833,43.366,33.83,43.36z"/>
				<path style="fill:#45413C;" d="M24.76,46c-5.364,0-8.151-1.145-9.101-1.636c-0.462-0.233-0.642-0.782-0.416-1.229      c0.764-1.473,4.298-2.222,7.352-2.434c0.2-0.012,0.353-0.172,0.354-0.366v-7.065c0-0.276,0.224-0.5,0.5-0.5h2.62      c0.276,0,0.5,0.224,0.5,0.5v7.07c0.002,0.189,0.155,0.35,0.349,0.361c3.059,0.212,6.591,0.96,7.354,2.427      c0.007,0.011,0.012,0.021,0.016,0.03c0.211,0.479,0.002,1.017-0.456,1.219C32.886,44.857,30.059,46,24.76,46z M16.183,43.508      C17.01,43.918,19.667,45,24.76,45c4.961,0,7.608-1.017,8.575-1.492c-0.511-0.724-2.84-1.557-6.479-1.809      c-0.711-0.041-1.278-0.636-1.286-1.354v-6.575h-1.62v6.57c-0.007,0.723-0.574,1.318-1.291,1.359      C19.022,41.951,16.692,42.785,16.183,43.508z M33.38,43.581c0.003,0.006,0.007,0.014,0.007,0.014s0-0.002-0.002-0.004      C33.384,43.587,33.382,43.584,33.38,43.581z M33.381,43.58h0.01H33.381z M33.404,43.473c-0.001,0.001-0.003,0.001-0.004,0.002      C33.401,43.474,33.403,43.474,33.404,43.473z M16.097,43.464c0,0.001,0.001,0.001,0.001,0.001      C16.097,43.465,16.097,43.465,16.097,43.464z"/>
			</g>
			<g id="_Group_3_261_">
				<path id="_Path_2_563_" style="fill:#00B8F0;" d="M32.62,9.67c0-1-3.52-1.74-7.86-1.74S16.9,8.71,16.9,9.67l-1.32,16.17      c0.001,5.07,4.111,9.179,9.181,9.179c5.069-0.001,9.178-4.11,9.179-9.179L32.62,9.67z"/>
				<path id="_Path_3_560_" style="fill:#4ACFFF;" d="M32.95,13.71l-0.33-4c0-1-3.52-1.74-7.86-1.74S16.9,8.75,16.9,9.71      l-1.32,16.13c-0.007,1.466,0.336,2.913,1,4.22c3.72-1.796,7.076-4.265,9.9-7.28C29.019,20.048,31.194,17,32.95,13.71z"/>
				<ellipse id="_Ellipse_2_323_" style="fill:#00B8F0;" cx="24.76" cy="9.67" rx="7.86" ry="1.75"/>
				<path style="fill:#45413C;" d="M24.759,35.518c-2.585,0-5.015-1.006-6.843-2.834s-2.835-4.259-2.836-6.845l1.321-16.21      C16.4,7.901,21.655,7.43,24.76,7.43c0.853,0,8.304,0.063,8.359,2.216l1.318,16.153c0.001,5.377-4.341,9.719-9.677,9.72      C24.761,35.518,24.76,35.518,24.759,35.518z M24.76,8.43c-4.526,0-7.162,0.814-7.365,1.271l-1.316,16.18      c0.001,2.277,0.905,4.457,2.544,6.097c1.639,1.639,3.818,2.541,6.136,2.541c0.001,0,0.001,0,0.002,0      c4.784-0.001,8.678-3.895,8.679-8.679L32.121,9.71c-0.001-0.009-0.002-0.018-0.002-0.027C31.922,9.23,29.316,8.43,24.76,8.43z       M33.119,9.67h0.01H33.119z"/>
				<path style="fill:#45413C;" d="M24.76,11.92c-3.105,0-8.36-0.474-8.36-2.25c0-0.276,0.224-0.5,0.5-0.5s0.5,0.224,0.5,0.5      c0.192,0.431,2.822,1.25,7.36,1.25c4.577,0,7.188-0.813,7.362-1.269c0-0.276,0.223-0.491,0.498-0.491      c0.276,0,0.499,0.233,0.499,0.51C33.119,11.857,25.616,11.92,24.76,11.92z"/>
			</g>
			<g>
				<path id="_Path_6_507_" style="fill:#6DD627;" d="M13.25,12.16c-0.405,0.258-0.943,0.138-1.201-0.267      c-0.027-0.042-0.05-0.086-0.069-0.133c-1.152-2.918,0.28-6.217,3.197-7.369c2.209-0.872,4.726-0.278,6.313,1.489      c0.314,0.356,0.279,0.9-0.077,1.214C21.372,7.13,21.327,7.162,21.28,7.19L13.25,12.16z"/>
				<path style="fill:#45413C;" d="M12.785,12.795c-0.454,0-0.898-0.225-1.159-0.634c-0.042-0.066-0.079-0.137-0.109-0.211      c-0.609-1.542-0.581-3.221,0.076-4.735c0.657-1.515,1.864-2.682,3.4-3.288c2.39-0.944,5.151-0.293,6.868,1.62      c0.243,0.276,0.363,0.626,0.34,0.989c-0.023,0.362-0.186,0.694-0.458,0.934c-0.065,0.057-0.135,0.108-0.21,0.152l-8.018,4.963      C13.289,12.727,13.035,12.795,12.785,12.795z M17.252,4.497c-0.637,0-1.279,0.117-1.892,0.359      c-1.287,0.508-2.299,1.487-2.85,2.756s-0.574,2.677-0.066,3.964c0.136,0.221,0.366,0.271,0.537,0.162      c0.001-0.001,0.003-0.002,0.005-0.003l8.03-4.97c0.138-0.11,0.181-0.198,0.187-0.293c0.006-0.096-0.025-0.188-0.089-0.261      C20.118,5.099,18.698,4.497,17.252,4.497z"/>
			</g>
			<g id="_Group_4_214_">
				<path id="_Path_7_485_" style="fill:#FF8A14;" d="M18.64,16.23l-0.88,9.61c0,3.866,3.134,7,7,7s7-3.134,7-7l-0.87-9.61H18.64z"/>
				<path id="_Path_8_460_" style="fill:#FF6242;" d="M24.76,25.84c-2.338,0.081-4.673-0.227-6.91-0.91l-0.08,0.91      c0,3.866,3.134,7,7,7s7-3.134,7-7l-0.08-0.91C29.446,25.615,27.104,25.923,24.76,25.84z"/>
				<ellipse id="_Ellipse_3_305_" style="fill:#FF8A14;" cx="24.76" cy="16.23" rx="6.12" ry="0.87"/>
				<g>
					<path id="_Path_9_432_" style="fill:#BF8DF2;" d="M26.94,17.54h2.63v-6.48c-0.871,0.142-1.749,0.238-2.63,0.29V17.54z"/>
					<path style="fill:#45413C;" d="M29.57,18.04h-2.63c-0.276,0-0.5-0.224-0.5-0.5v-6.19c0-0.265,0.206-0.483,0.471-0.499       c0.861-0.051,1.729-0.146,2.579-0.285c0.145-0.024,0.292,0.018,0.404,0.113c0.111,0.095,0.176,0.234,0.176,0.381v6.48       C30.07,17.816,29.846,18.04,29.57,18.04z M27.44,17.04h1.63v-5.399c-0.54,0.076-1.085,0.134-1.63,0.176V17.04z"/>
				</g>
				<path id="_Path_10_396_" style="fill:#FFAA54;" d="M30.88,16.23c0,0.48-2.74,0.87-6.12,0.87s-6.12-0.39-6.12-0.87l-0.88,9.61      c-0.003,1.117,0.265,2.219,0.78,3.21c2.973-1.666,5.671-3.781,8-6.27c1.624-1.783,3.108-3.689,4.44-5.7L30.88,16.23z"/>
				<path id="_Path_11_366_" style="fill:#FF866E;" d="M17.85,24.93l-0.08,0.91c-0.003,1.117,0.265,2.219,0.78,3.21      c1.663-0.954,3.248-2.037,4.74-3.24C21.442,25.793,19.608,25.496,17.85,24.93z"/>
			</g>
			<g>
				<path id="_Path_12_342_" style="fill:#9F5AE5;" d="M30.58,6.28l3.36-4L31.76,0.5l-3.88,4.93c-0.609,0.768-0.941,1.72-0.94,2.7      v3.22c0.881-0.052,1.759-0.148,2.63-0.29v-2C29.568,8.043,29.926,7.058,30.58,6.28z"/>
				<path style="fill:#45413C;" d="M26.94,11.85c-0.127,0-0.25-0.048-0.343-0.136c-0.101-0.094-0.157-0.226-0.157-0.364V8.13      c-0.001-1.087,0.371-2.156,1.048-3.01l3.88-4.929c0.083-0.105,0.204-0.173,0.338-0.188c0.133-0.013,0.267,0.025,0.371,0.11      l2.18,1.78c0.104,0.084,0.169,0.207,0.182,0.34s-0.029,0.266-0.115,0.369l-3.36,4c-0.577,0.688-0.895,1.561-0.893,2.458v2.001      c0,0.245-0.178,0.454-0.42,0.494c-0.883,0.144-1.785,0.243-2.681,0.295C26.959,11.849,26.95,11.85,26.94,11.85z M29.57,11.06      h0.01H29.57z M31.838,1.209l-3.566,4.53c-0.538,0.679-0.833,1.528-0.832,2.39v2.685c0.545-0.044,1.09-0.105,1.63-0.183V9.06      c-0.002-1.131,0.398-2.233,1.127-3.102c0,0,0,0,0,0l3.034-3.612L31.838,1.209z"/>
			</g>
		</g>
	</g>
</g>















</svg>
