<?xml version="1.0" encoding="iso-8859-1"?>
<!-- Generator: Adobe Illustrator 21.0.0, SVG Export Plug-In . SVG Version: 6.00 Build 0)  -->
<svg xmlns="http://www.w3.org/2000/svg" xmlns:xlink="http://www.w3.org/1999/xlink" version="1.1" id="Capa_1" x="0px" y="0px" viewBox="0 0 45.813 45.813" style="enable-background:new 0 0 45.813 45.813;" xml:space="preserve" width="512" height="512">
<g>
	<path id="_Path__621_" style="fill:#FF8A14;" d="M30.638,19.452c0,0,3-4.67,3.45-5c0.696-0.235,1.463-0.119,2.06,0.31   c0.35,0.3-0.61,5.22-0.61,5.22L30.638,19.452z"/>
	<path id="_Path_2_613_" style="fill:#FFAA54;" d="M34.088,16.452c0.67-0.229,1.407-0.137,2,0.25c0.162-0.655,0.183-1.337,0.06-2   c-0.597-0.429-1.364-0.545-2.06-0.31c-0.48,0.35-3.45,5-3.45,5l1.22,0.13C32.531,18.449,33.276,17.423,34.088,16.452z"/>
	<path style="fill:#45413C;" d="M35.538,20.482c-0.018,0-0.035-0.001-0.054-0.003l-4.9-0.53c-0.172-0.019-0.322-0.125-0.397-0.281   c-0.074-0.156-0.063-0.34,0.03-0.486c0.917-1.428,3.102-4.786,3.575-5.133c0.042-0.03,0.088-0.054,0.136-0.07   c0.849-0.286,1.786-0.145,2.513,0.378c0.261,0.221,0.604,0.516-0.411,5.722C35.982,20.314,35.775,20.482,35.538,20.482z    M31.498,19.042l3.636,0.393c0.339-1.812,0.632-3.8,0.592-4.358c-0.396-0.24-0.905-0.313-1.384-0.181   C34.007,15.261,32.728,17.145,31.498,19.042z"/>
	
		<ellipse id="_Ellipse__600_" style="opacity:0.15;fill:#45413C;enable-background:new    ;" cx="23.478" cy="32.492" rx="17.34" ry="1.58"/>
	<path id="_Path_4_605_" style="fill:#00B8F0;" d="M19.598,18.632c0.88-1.531,1.863-3.001,2.94-4.4c0.258-0.334,0.698-0.47,1.1-0.34   c3.05,0.952,6.006,2.184,8.83,3.68c0.557,0.654,1.034,1.372,1.42,2.14L19.598,18.632z"/>
	<path id="_Path_5_594_" style="fill:#4ACFFF;" d="M22.558,18.852l3.87,0.29l3.05-3.05c-0.88-0.39-1.89-0.81-2.94-1.21   L22.558,18.852z"/>
	<path style="fill:#45413C;" d="M33.888,20.212c-0.013,0-0.025,0-0.038-0.001l-14.289-1.08c-0.171-0.013-0.324-0.113-0.404-0.265   c-0.081-0.152-0.077-0.334,0.008-0.483c0.889-1.544,1.89-3.043,2.978-4.456c0.386-0.501,1.049-0.707,1.65-0.511   c3.068,0.958,6.067,2.208,8.91,3.714c0.056,0.03,0.105,0.069,0.146,0.118c0.583,0.683,1.083,1.437,1.486,2.24   c0.08,0.161,0.068,0.354-0.032,0.503C34.21,20.129,34.054,20.212,33.888,20.212z M20.437,18.194l12.561,0.949   c-0.255-0.411-0.538-0.804-0.849-1.175c-2.763-1.457-5.676-2.668-8.659-3.6c-0.206-0.063-0.426,0.003-0.556,0.169   C22.036,15.703,21.198,16.93,20.437,18.194z"/>
	<path style="fill:#45413C;" d="M41.408,21.892c-0.276,0-0.5-0.224-0.5-0.5v-5.06c0-0.276,0.224-0.5,0.5-0.5s0.5,0.224,0.5,0.5v5.06   C41.908,21.668,41.685,21.892,41.408,21.892z"/>
	<g>
		<path id="_Path_8_509_" style="fill:#FF6242;" d="M41.408,12.242l3.55,1.56c0.276,0.097,0.421,0.4,0.324,0.676    c-0.053,0.152-0.173,0.271-0.324,0.324l-3.55,1.57V12.242z"/>
		<path style="fill:#45413C;" d="M41.408,16.872c-0.096,0-0.19-0.027-0.272-0.081c-0.142-0.092-0.228-0.25-0.228-0.419v-4.13    c0-0.169,0.085-0.326,0.227-0.418c0.142-0.094,0.319-0.107,0.475-0.039l3.55,1.56c0.225,0.077,0.434,0.265,0.553,0.513    c0.118,0.248,0.134,0.528,0.042,0.787c-0.103,0.295-0.333,0.525-0.63,0.629l-3.514,1.556    C41.546,16.857,41.477,16.872,41.408,16.872z M41.908,13.024v2.579l2.848-1.259L41.908,13.024z"/>
	</g>
	<path id="_Path_9_475_" style="fill:#FFE500;" d="M1.438,19.242c-0.551,0.034-0.97,0.509-0.936,1.06   c0.008,0.128,0.041,0.254,0.096,0.37c0.94,2.36,3.46,7.51,8.05,9.57c5.4,2.43,28.95,0.86,33.87,0.5c0.552,0,1-0.448,1-1   c0.086-1.14,0.062-2.285-0.07-3.42c-0.485-1.718-1.156-3.377-2-4.95c0,0-6.57-2.56-21.81-2.76   C8.868,18.492,3.618,18.962,1.438,19.242z"/>
	<path id="_Path_10_439_" style="fill:#EBCB00;" d="M42.478,27.392c-5.11,0.36-29.53,1.93-35.14-0.5   c-2.886-1.412-5.265-3.683-6.81-6.5c0.01,0.096,0.033,0.191,0.07,0.28c0.94,2.36,3.46,7.51,8.05,9.57   c5.4,2.43,28.95,0.86,33.87,0.5c0.552,0,1-0.448,1-1c0.084-1.052,0.084-2.108,0-3.16C43.399,27.058,42.97,27.393,42.478,27.392z"/>
	<path style="fill:#45413C;" d="M22.295,32.066c-5.997,0-11.534-0.325-13.853-1.368c-4.824-2.165-7.418-7.604-8.309-9.841   c-0.071-0.145-0.119-0.332-0.131-0.525c-0.051-0.819,0.57-1.528,1.386-1.588c2.251-0.287,7.611-0.75,18.254-0.632   C34.801,18.31,41.358,20.8,41.63,20.906c0.11,0.043,0.203,0.125,0.259,0.229c0.86,1.602,1.547,3.302,2.041,5.051   c0.151,1.241,0.176,2.424,0.088,3.593c0.001,0.79-0.672,1.463-1.499,1.463C39.795,31.442,30.604,32.066,22.295,32.066z    M16.312,19.093c-8.423,0-12.838,0.392-14.811,0.645c-0.011,0.001-0.021,0.002-0.033,0.003c-0.275,0.017-0.485,0.255-0.468,0.53   c0.004,0.064,0.02,0.126,0.048,0.185c0.859,2.155,3.313,7.314,7.803,9.33c5.313,2.39,28.946,0.8,33.63,0.457   c0.312-0.001,0.536-0.226,0.536-0.501c0.085-1.144,0.062-2.262-0.067-3.361c-0.441-1.544-1.07-3.114-1.854-4.604   c-1.121-0.386-7.833-2.486-21.466-2.665C18.462,19.099,17.356,19.093,16.312,19.093z M1.438,19.242h0.01H1.438z"/>
	<g>
		<path id="_Path_12_380_" style="fill:#FFFFFF;" d="M43.208,25.492c-0.264-0.769-0.567-1.523-0.91-2.26    c-4.974-0.697-9.981-1.134-15-1.31c-12.22-0.59-26.45-0.53-26.45-0.53c0.314,0.718,0.664,1.419,1.05,2.1c3.49,0,15.15,0,25.4,0.53    C32.627,24.179,37.941,24.67,43.208,25.492z"/>
		<path style="fill:#45413C;" d="M43.208,25.992c-0.025,0-0.052-0.002-0.077-0.006c-5.223-0.815-10.555-1.308-15.848-1.464    c-6.804-0.353-15.341-0.53-25.385-0.53c-0.18,0-0.346-0.097-0.435-0.254c-0.394-0.696-0.755-1.418-1.073-2.146    c-0.067-0.154-0.053-0.332,0.039-0.473s0.249-0.227,0.417-0.227c0.142,0.002,14.383-0.053,26.476,0.531    c5.008,0.175,10.072,0.617,15.045,1.314c0.168,0.023,0.313,0.131,0.384,0.284c0.348,0.747,0.661,1.523,0.93,2.309    c0.058,0.166,0.023,0.349-0.09,0.483C43.495,25.927,43.354,25.992,43.208,25.992z M2.192,22.992    c9.934,0.004,18.389,0.182,25.131,0.531c5.043,0.148,10.131,0.602,15.127,1.348c-0.153-0.399-0.318-0.794-0.493-1.182    c-4.851-0.67-9.788-1.097-14.677-1.268c-10.456-0.505-22.524-0.53-25.654-0.531C1.804,22.262,1.993,22.63,2.192,22.992z"/>
	</g>
</g>















</svg>
