<?xml version="1.0" encoding="iso-8859-1"?>
<!-- Generator: Adobe Illustrator 21.0.0, SVG Export Plug-In . SVG Version: 6.00 Build 0)  -->
<svg xmlns="http://www.w3.org/2000/svg" xmlns:xlink="http://www.w3.org/1999/xlink" version="1.1" id="Capa_1" x="0px" y="0px" viewBox="0 0 45.33 45.33" style="enable-background:new 0 0 45.33 45.33;" xml:space="preserve" width="512" height="512">
<g>
	<g id="_Group__520_">
		
			<ellipse id="_Ellipse__592_" style="opacity:0.15;fill:#45413C;enable-background:new    ;" cx="23.34" cy="40.415" rx="19.54" ry="1.95"/>
		<path id="_Path__612_" style="fill:#FFFCE5;" d="M18.64,29.025H1.38v-7.19c0.002-1.53,0.395-3.034,1.14-4.37l4.43-7.86    c0.851-1.52,2.458-2.461,4.2-2.46h7.49V29.025z"/>
		<path id="_Path_2_604_" style="fill:#FFFFFF;" d="M11.15,7.145c-1.742-0.001-3.349,0.94-4.2,2.46l-4.42,7.86    c-0.751,1.334-1.147,2.839-1.15,4.37v3.29c0.002-1.528,0.398-3.03,1.15-4.36l4.42-7.87c0.855-1.515,2.46-2.451,4.2-2.45h7.49v-3.3    H11.15z"/>
		<path style="fill:#45413C;" d="M18.64,29.525H1.38c-0.276,0-0.5-0.224-0.5-0.5v-7.189c0.002-1.612,0.419-3.207,1.204-4.614    L6.515,9.36c0.938-1.674,2.712-2.714,4.631-2.714c0.001,0,0.003,0,0.004,0h7.49c0.276,0,0.5,0.224,0.5,0.5v21.879    C19.14,29.301,18.917,29.525,18.64,29.525z M1.88,28.525h16.26V7.645h-6.99c-0.001,0-0.002,0-0.003,0    c-1.559,0-2.999,0.844-3.76,2.204l-4.431,7.861c-0.701,1.257-1.073,2.684-1.076,4.125V28.525z"/>
		<path id="_Rectangle__210_" style="fill:#FF6242;" d="M1.78,29.025h41.77c0.707,0,1.28,0.573,1.28,1.28v4.06    c0,0.707-0.573,1.28-1.28,1.28H1.78c-0.707,0-1.28-0.573-1.28-1.28v-4.06C0.5,29.598,1.073,29.025,1.78,29.025z"/>
		<path id="_Path_4_596_" style="fill:#FF866E;" d="M43.55,29.025H1.78c-0.707,0-1.28,0.573-1.28,1.28l0,0v2.66    c0-0.707,0.573-1.28,1.28-1.28h41.77c0.707-0.006,1.284,0.563,1.29,1.27c0,0.003,0,0.007,0,0.01v-2.66    c0-0.707-0.573-1.28-1.28-1.28C43.557,29.025,43.553,29.025,43.55,29.025z"/>
		<path style="fill:#45413C;" d="M43.55,36.145H1.78c-0.981,0-1.78-0.798-1.78-1.779v-4.061c0-0.981,0.798-1.78,1.78-1.78h41.77    c0.981,0,1.78,0.799,1.78,1.78v4.061C45.33,35.347,44.531,36.145,43.55,36.145z M1.78,29.525c-0.43,0-0.78,0.35-0.78,0.78v4.061    c0,0.43,0.35,0.779,0.78,0.779h41.77c0.431,0,0.78-0.35,0.78-0.779v-4.061c0-0.431-0.35-0.78-0.78-0.78H1.78z"/>
		<path id="_Rectangle_3_168_" style="fill:#FFF48C;" d="M19.94,3.465h23c0.718,0,1.3,0.582,1.3,1.3v24.26l0,0h-25.6l0,0V4.765    C18.64,4.047,19.222,3.465,19.94,3.465z"/>
		<path id="_Path_5_585_" style="fill:#FFFACF;" d="M42.89,3.465H19.94c-0.718,0-1.3,0.582-1.3,1.3v3.31c0-0.718,0.582-1.3,1.3-1.3    h22.95c0.72,0,1.305,0.58,1.31,1.3v-3.31C44.195,4.045,43.61,3.465,42.89,3.465z"/>
		<path style="fill:#45413C;" d="M44.24,29.525h-25.6c-0.276,0-0.5-0.224-0.5-0.5V4.765c0-0.992,0.808-1.8,1.8-1.8h23    c0.992,0,1.8,0.808,1.8,1.8v24.26C44.74,29.301,44.517,29.525,44.24,29.525z M19.14,28.525h24.6V4.765c0-0.441-0.358-0.8-0.8-0.8    h-23c-0.441,0-0.8,0.359-0.8,0.8V28.525z"/>
		<circle id="_Path_6_547_" style="fill:#656769;" cx="10.01" cy="35.645" r="4.72"/>
		<circle id="_Path_7_526_" style="fill:#656769;" cx="34.35" cy="35.645" r="4.72"/>
		<path id="_Path_8_499_" style="fill:#525252;" d="M10.01,32.795c2.245,0.002,4.179,1.581,4.63,3.78    c0.507-2.557-1.156-5.041-3.713-5.547C8.37,30.521,5.887,32.183,5.38,34.74c-0.12,0.606-0.12,1.229,0,1.835    C5.831,34.376,7.765,32.797,10.01,32.795z"/>
		<path id="_Path_9_466_" style="fill:#525252;" d="M34.35,32.795c2.245,0.002,4.179,1.581,4.63,3.78    c0.507-2.557-1.156-5.041-3.713-5.547c-2.557-0.507-5.041,1.156-5.547,3.713c-0.12,0.606-0.12,1.229,0,1.835    C30.171,34.376,32.105,32.797,34.35,32.795z"/>
		<path style="fill:#45413C;" d="M10.01,40.865c-2.878,0-5.22-2.342-5.22-5.221c0-2.878,2.342-5.22,5.22-5.22    c2.878,0,5.22,2.342,5.22,5.22C15.23,38.524,12.888,40.865,10.01,40.865z M10.01,31.425c-2.327,0-4.22,1.893-4.22,4.22    s1.893,4.221,4.22,4.221c2.327,0,4.22-1.894,4.22-4.221S12.337,31.425,10.01,31.425z"/>
		<path style="fill:#45413C;" d="M34.35,40.865c-2.878,0-5.22-2.342-5.22-5.221c0-2.878,2.342-5.22,5.22-5.22    c2.879,0,5.221,2.342,5.221,5.22C39.57,38.524,37.229,40.865,34.35,40.865z M34.35,31.425c-2.327,0-4.22,1.893-4.22,4.22    s1.893,4.221,4.22,4.221s4.221-1.894,4.221-4.221S36.677,31.425,34.35,31.425z"/>
		<g>
			<rect id="_Rectangle_5_122_" x="1.38" y="22.345" style="fill:#FF6242;" width="17.26" height="6.67"/>
			<path style="fill:#45413C;" d="M18.64,29.515H1.38c-0.276,0-0.5-0.224-0.5-0.5v-6.67c0-0.276,0.224-0.5,0.5-0.5h17.26     c0.276,0,0.5,0.224,0.5,0.5v6.67C19.14,29.291,18.917,29.515,18.64,29.515z M1.88,28.515h16.26v-5.67H1.88V28.515z"/>
		</g>
		<path style="fill:#00B8F0;" d="M13.47,10.625h-7.1l-3.85,6.84c-0.11,0.2-0.21,0.41-0.31,0.62h9.35c0.386-0.003,0.751-0.175,1-0.47    l1.91-2.31c0.195-0.232,0.302-0.527,0.3-0.83v-2.54C14.77,11.215,14.19,10.631,13.47,10.625z"/>
		<path id="_Path_12_372_" style="fill:#4ACFFF;" d="M13.47,10.625h-3.05l-4,7.46h5.12c0.386-0.002,0.752-0.174,1-0.47l1.91-2.31    c0.195-0.232,0.302-0.527,0.3-0.83v-2.54C14.75,11.223,14.182,10.641,13.47,10.625z"/>
		<path style="fill:#45413C;" d="M2.21,18.585c-0.171,0-0.331-0.088-0.423-0.233c-0.092-0.146-0.103-0.327-0.028-0.482    c0.104-0.218,0.208-0.437,0.323-0.646l3.853-6.844c0.088-0.158,0.255-0.255,0.436-0.255h7.1c0.001,0,0.002,0,0.004,0    c0.99,0.007,1.796,0.819,1.796,1.81v2.54c0.002,0.418-0.146,0.828-0.417,1.151l-1.908,2.308c-0.346,0.411-0.849,0.647-1.381,0.651    H2.21z M3.026,17.585h8.534c0.236-0.002,0.463-0.108,0.617-0.292l1.908-2.307c0.121-0.144,0.186-0.324,0.185-0.509v-2.542    c0-0.443-0.36-0.806-0.802-0.81H6.663L3.026,17.585z"/>
		<g>
			<path style="fill:#FF8A14;" d="M3.66,23.505c0-1-0.81-1.81-1.81-1.81c-0.003,0-0.007,0-0.01,0H0.77v3.67h1.07     c1,0.006,1.815-0.8,1.821-1.799C3.661,23.546,3.661,23.525,3.66,23.505z"/>
			<path style="fill:#45413C;" d="M1.851,25.865c-0.005,0-0.009,0-0.014,0H0.77c-0.276,0-0.5-0.224-0.5-0.5v-3.67     c0-0.276,0.224-0.5,0.5-0.5h1.07c1.284,0,2.32,1.036,2.32,2.31c0,0.02,0,0.058,0,0.061c-0.003,0.62-0.247,1.199-0.686,1.633     C3.039,25.629,2.463,25.865,1.851,25.865z M1.27,24.865h0.57c0.381,0.023,0.683-0.132,0.932-0.378     c0.249-0.246,0.387-0.574,0.389-0.925l0.5-0.058h-0.5c0-0.722-0.588-1.31-1.31-1.31H1.27V24.865z"/>
		</g>
		<path style="fill:#45413C;" d="M44.2,10.235H18.64c-0.276,0-0.5-0.224-0.5-0.5s0.224-0.5,0.5-0.5H44.2c0.276,0,0.5,0.224,0.5,0.5    S44.477,10.235,44.2,10.235z"/>
		<path style="fill:#45413C;" d="M44.2,16.745H18.64c-0.276,0-0.5-0.224-0.5-0.5c0-0.276,0.224-0.5,0.5-0.5H44.2    c0.276,0,0.5,0.224,0.5,0.5C44.7,16.521,44.477,16.745,44.2,16.745z"/>
		<path style="fill:#45413C;" d="M44.2,23.415H18.64c-0.276,0-0.5-0.224-0.5-0.5s0.224-0.5,0.5-0.5H44.2c0.276,0,0.5,0.224,0.5,0.5    S44.477,23.415,44.2,23.415z"/>
		<g>
			<circle id="_Path_16_293_" style="fill:#DAEDF7;" cx="10.01" cy="35.645" r="1.55"/>
			<path style="fill:#45413C;" d="M10.01,37.696c-1.13,0-2.05-0.92-2.05-2.051c0-1.13,0.919-2.05,2.05-2.05s2.05,0.92,2.05,2.05     C12.06,36.776,11.14,37.696,10.01,37.696z M10.01,34.595c-0.579,0-1.05,0.471-1.05,1.05s0.471,1.051,1.05,1.051     s1.05-0.472,1.05-1.051S10.589,34.595,10.01,34.595z"/>
		</g>
		<g>
			<circle id="_Path_17_262_" style="fill:#DAEDF7;" cx="34.35" cy="35.645" r="1.55"/>
			<path style="fill:#45413C;" d="M34.35,37.696c-1.13,0-2.05-0.92-2.05-2.051c0-1.13,0.92-2.05,2.05-2.05     c1.131,0,2.051,0.92,2.051,2.05C36.4,36.776,35.48,37.696,34.35,37.696z M34.35,34.595c-0.579,0-1.05,0.471-1.05,1.05     s0.471,1.051,1.05,1.051s1.051-0.472,1.051-1.051S34.929,34.595,34.35,34.595z"/>
		</g>
	</g>
</g>















</svg>
