<?xml version="1.0" encoding="iso-8859-1"?>
<!-- Generator: Adobe Illustrator 21.0.0, SVG Export Plug-In . SVG Version: 6.00 Build 0)  -->
<svg xmlns="http://www.w3.org/2000/svg" xmlns:xlink="http://www.w3.org/1999/xlink" version="1.1" id="Capa_1" x="0px" y="0px" viewBox="0 0 46 46" style="enable-background:new 0 0 46 46;" xml:space="preserve" width="512" height="512">
<g>
	
		<ellipse id="_Ellipse__552_" style="opacity:0.15;fill:#45413C;enable-background:new    ;" cx="20.379" cy="44.39" rx="14.5" ry="1.61"/>
	<g>
		<path id="_Path__567_" style="fill:#FFFFFF;" d="M11.869,10.08c1.314-2.251,0.555-5.142-1.696-6.456S5.031,3.069,3.717,5.32    s-0.555,5.142,1.696,6.456c0.721,0.421,1.541,0.643,2.376,0.644h0.44l0,0c-0.004,1.425,1.147,2.583,2.572,2.588    c1.425,0.004,2.583-1.147,2.588-2.572c0.003-1.014-0.588-1.935-1.51-2.355H11.869z"/>
		<path style="fill:#45413C;" d="M10.808,15.508c-0.003,0-0.006,0-0.009,0c-1.528-0.005-2.796-1.126-3.032-2.588    c-0.916-0.004-1.816-0.25-2.607-0.712c-2.485-1.451-3.327-4.654-1.875-7.14c1.452-2.486,4.657-3.327,7.14-1.875    c1.205,0.703,2.063,1.833,2.417,3.182c0.311,1.182,0.201,2.409-0.304,3.504c0.837,0.569,1.354,1.526,1.352,2.559    C13.884,14.132,12.502,15.508,10.808,15.508z M7.8,3.478c-0.36,0-0.722,0.046-1.079,0.141c-1.09,0.286-2.004,0.98-2.572,1.953    c-1.173,2.01-0.493,4.599,1.517,5.772c0.644,0.376,1.378,0.575,2.125,0.576h0.439c0.133,0,0.26,0.053,0.354,0.147    s0.146,0.222,0.146,0.354c-0.002,0.556,0.213,1.079,0.605,1.473c0.392,0.394,0.913,0.612,1.469,0.614c0.002,0,0.004,0,0.006,0    c1.144,0,2.077-0.929,2.081-2.074c0.002-0.808-0.467-1.548-1.198-1.89c-0.104-0.042-0.194-0.116-0.25-0.215    c-0.089-0.155-0.093-0.347-0.003-0.501c0.568-0.974,0.724-2.11,0.437-3.2c-0.286-1.09-0.98-2.004-1.954-2.572    C9.266,3.674,8.538,3.478,7.8,3.478z"/>
	</g>
	<g>
		<circle id="_Ellipse_2_326_" style="fill:#FFFFFF;" cx="18.459" cy="3.08" r="2.58"/>
		<path style="fill:#45413C;" d="M18.459,6.16c-1.698,0-3.08-1.382-3.08-3.08S16.761,0,18.459,0s3.08,1.382,3.08,3.08    S20.157,6.16,18.459,6.16z M18.459,1c-1.147,0-2.08,0.933-2.08,2.08s0.933,2.08,2.08,2.08s2.08-0.933,2.08-2.08S19.606,1,18.459,1    z"/>
	</g>
	<path id="_Path_2_557_" style="fill:#E5F8FF;" d="M37.099,34.22c3.085,0.131,5.691-2.264,5.821-5.349   c0.131-3.085-2.264-5.691-5.349-5.821c-0.158-0.007-0.315-0.007-0.473,0h-2.15v3.44h2.15c1.187,0.001,2.149,0.964,2.149,2.151   c-0.001,1.186-0.962,2.148-2.149,2.149h-3.86v3.43H37.099z"/>
	<path id="_Path_3_554_" style="fill:#FFFFFF;" d="M36.239,24.77c3.087,0,5.59,2.503,5.59,5.59c0,0.555-0.078,1.107-0.23,1.64   c1.828-2.488,1.293-5.987-1.195-7.815c-0.958-0.704-2.116-1.084-3.305-1.085h-2.15v1.72L36.239,24.77z"/>
	<path style="fill:#45413C;" d="M37.342,34.725c-0.084,0-0.169-0.001-0.254-0.005h-3.849c-0.276,0-0.5-0.224-0.5-0.5v-3.43   c0-0.276,0.224-0.5,0.5-0.5h3.859c0.908-0.001,1.648-0.74,1.649-1.648c0-0.91-0.74-1.65-1.649-1.651h-2.149   c-0.276,0-0.5-0.224-0.5-0.5v-3.44c0-0.276,0.224-0.5,0.5-0.5h2.149c0.151-0.006,0.322-0.007,0.495,0   c3.354,0.142,5.968,2.987,5.827,6.342c-0.069,1.625-0.768,3.126-1.965,4.227C40.323,34.16,38.871,34.725,37.342,34.725z    M33.739,33.72h3.359c0.007,0,0.014,0,0.021,0c1.355,0.075,2.657-0.417,3.659-1.337c1.001-0.92,1.584-2.174,1.642-3.533   c0.118-2.804-2.066-5.182-4.87-5.3c-0.143-0.008-0.284-0.008-0.431,0h-1.671v2.44h1.649c1.461,0.001,2.649,1.19,2.649,2.651   c-0.001,1.459-1.189,2.647-2.649,2.648h-3.359V33.72z"/>
	<path style="fill:#FFFFFF;" d="M4.879,19.5v9c-0.139,8.697,6.799,15.861,15.496,16c0.001,0,0.003,0,0.004,0   c8.697-0.137,15.637-7.299,15.5-15.996c0-0.001,0-0.003,0-0.004v-9H4.879z"/>
	<path style="fill:#E8F4FA;" d="M20.379,39c-6.45,0-12.08-2.79-15.11-6.94c1.492,7.179,7.778,12.354,15.11,12.44   c7.332-0.086,13.618-5.261,15.11-12.44C32.459,36.21,26.829,39,20.379,39z"/>
	<path style="fill:#45413C;" d="M20.386,45c-8.979-0.144-16.151-7.55-16.008-16.508V19.5c0-0.276,0.224-0.5,0.5-0.5h31   c0.276,0,0.5,0.224,0.5,0.5v9C36.519,37.455,29.345,44.859,20.386,45z M5.379,20v8.5C5.244,36.915,11.975,43.865,20.383,44   c8.396-0.132,15.128-7.08,14.996-15.488V20H5.379z"/>
	<g>
		<ellipse style="fill:#E8F4FA;" cx="20.379" cy="19.5" rx="15.5" ry="2"/>
		<path style="fill:#45413C;" d="M20.379,22c-1.638,0-16-0.07-16-2.5s14.362-2.5,16-2.5s16,0.07,16,2.5S22.016,22,20.379,22z     M5.47,19.5c0.972,0.647,6.474,1.5,14.908,1.5s13.937-0.853,14.908-1.5c-0.972-0.647-6.474-1.5-14.908-1.5S6.442,18.853,5.47,19.5    z M35.406,19.605h0.01H35.406z"/>
	</g>
	<g>
		<path id="_Path_5_540_" style="fill:#FFB0CA;" d="M23.699,32.94c0.475-0.002,0.862,0.381,0.864,0.856    c0,0.069-0.008,0.137-0.024,0.204c-0.601,2.298-2.951,3.673-5.248,3.072c-1.504-0.393-2.678-1.568-3.072-3.072    c-0.116-0.461,0.163-0.928,0.624-1.044c0.071-0.018,0.143-0.027,0.216-0.026L23.699,32.94z"/>
		<path style="fill:#45413C;" d="M20.387,37.714c-0.408,0-0.818-0.053-1.224-0.159c-1.676-0.438-2.99-1.751-3.429-3.429    c-0.184-0.73,0.258-1.472,0.985-1.654c0.112-0.028,0.225-0.042,0.339-0.042l6.639,0.011c0.001,0,0.003,0,0.005,0    c0.36,0,0.7,0.14,0.957,0.395c0.258,0.255,0.4,0.597,0.402,0.96c0,0.109-0.013,0.216-0.037,0.319    c-0.327,1.253-1.115,2.293-2.222,2.94C22.058,37.49,21.229,37.714,20.387,37.714z M17.058,33.43    c-0.286,0.06-0.402,0.256-0.354,0.448c0.346,1.323,1.386,2.363,2.713,2.71c0.982,0.258,2.006,0.116,2.882-0.396    c0.876-0.513,1.5-1.336,1.757-2.317c0.007-0.172-0.031-0.262-0.1-0.329c-0.068-0.068-0.143-0.111-0.255-0.104    c-0.001,0-0.002,0-0.003,0L17.058,33.43z"/>
	</g>
	<g>
		<path id="_Path_6_502_" style="fill:#FF87AF;" d="M20.379,37.23c1.325-0.001,2.574-0.618,3.38-1.67    c-1.017-0.619-2.19-0.934-3.38-0.91c-1.19-0.024-2.363,0.291-3.38,0.91C17.804,36.612,19.054,37.229,20.379,37.23z"/>
		<path style="fill:#45413C;" d="M20.379,37.73C20.379,37.73,20.379,37.73,20.379,37.73c-1.472-0.001-2.884-0.699-3.777-1.867    c-0.086-0.112-0.121-0.257-0.094-0.396c0.026-0.139,0.11-0.261,0.231-0.335c1.101-0.669,2.368-1.009,3.65-0.981    c1.275-0.029,2.529,0.313,3.629,0.981c0.121,0.074,0.205,0.196,0.231,0.335c0.026,0.14-0.008,0.284-0.094,0.396    C23.262,37.031,21.85,37.729,20.379,37.73z M17.795,35.698c0.692,0.653,1.622,1.031,2.583,1.032    c0.962-0.001,1.892-0.379,2.584-1.032c-0.801-0.378-1.676-0.563-2.574-0.548C19.474,35.135,18.597,35.32,17.795,35.698z"/>
	</g>
	<path id="_Path_7_479_" style="fill:#FFCCDD;" d="M11.789,30.79c0,0.47,0.57,0.86,1.29,0.86s1.3-0.39,1.3-0.86   s-0.58-0.86-1.29-0.86S11.789,30.31,11.789,30.79z"/>
	<path style="fill:#45413C;" d="M12.648,29.57c-0.256,0-0.475-0.196-0.498-0.456c-0.042-0.477,0.104-0.94,0.411-1.307   c0.307-0.367,0.738-0.592,1.215-0.634c0.478-0.045,0.94,0.104,1.307,0.41c0.366,0.308,0.591,0.738,0.634,1.215   c0.009,0.106,0.009,0.209,0,0.313c-0.022,0.274-0.256,0.479-0.54,0.456c-0.275-0.022-0.479-0.265-0.457-0.54   c0.004-0.048,0.004-0.096,0-0.144c-0.019-0.208-0.118-0.398-0.28-0.534s-0.365-0.199-0.576-0.181s-0.401,0.118-0.537,0.279   c-0.136,0.162-0.2,0.367-0.182,0.577c0.024,0.275-0.179,0.518-0.454,0.542C12.678,29.569,12.663,29.57,12.648,29.57z"/>
	<path id="_Path_9_422_" style="fill:#FFCCDD;" d="M28.969,30.79c0,0.47-0.57,0.86-1.29,0.86s-1.3-0.39-1.3-0.86   s0.58-0.86,1.29-0.86C28.379,29.93,28.969,30.31,28.969,30.79z"/>
	<path style="fill:#45413C;" d="M25.538,29.57c-0.256,0-0.474-0.195-0.497-0.455c-0.01-0.106-0.01-0.211,0-0.317   c0.042-0.476,0.268-0.907,0.634-1.214c0.367-0.309,0.834-0.453,1.308-0.41c0.982,0.087,1.712,0.957,1.625,1.94   c-0.023,0.274-0.271,0.471-0.542,0.454c-0.275-0.024-0.479-0.267-0.454-0.542c0.038-0.434-0.284-0.818-0.718-0.856   c-0.217-0.02-0.416,0.045-0.576,0.181c-0.162,0.136-0.262,0.326-0.28,0.536c-0.004,0.047-0.004,0.093,0,0.139   c0.024,0.275-0.179,0.519-0.453,0.543C25.568,29.569,25.553,29.57,25.538,29.57z"/>
</g>















</svg>
