<?xml version="1.0" encoding="iso-8859-1"?>
<!-- Generator: Adobe Illustrator 21.0.0, SVG Export Plug-In . SVG Version: 6.00 Build 0)  -->
<svg xmlns="http://www.w3.org/2000/svg" xmlns:xlink="http://www.w3.org/1999/xlink" version="1.1" id="Capa_1" x="0px" y="0px" viewBox="0 0 44.5 44.5" style="enable-background:new 0 0 44.5 44.5;" xml:space="preserve" width="512" height="512">
<g>
	<path id="_Path__594_" style="opacity:0.15;fill:#45413C;enable-background:new    ;" d="M44.5,43.09c0,1-10,1.3-22.25,1.3   S0,44.08,0,43.09s10-1.81,22.25-1.81S44.5,42.09,44.5,43.09z"/>
	<g id="_Group__507_">
		<path id="_Rectangle__195_" style="fill:#FFFFFF;" d="M5.03,0.61h34.44c1.966,0,3.56,1.594,3.56,3.56v34.44    c0,1.966-1.594,3.56-3.56,3.56H5.03c-1.966,0-3.56-1.594-3.56-3.56V4.17C1.47,2.204,3.064,0.61,5.03,0.61z"/>
		<path style="fill:#45413C;" d="M39.47,42.67H5.03c-2.238,0-4.06-1.821-4.06-4.06V4.17c0-2.239,1.821-4.06,4.06-4.06h34.44    c2.239,0,4.061,1.821,4.061,4.06v34.44C43.53,40.848,41.709,42.67,39.47,42.67z M5.03,1.11c-1.687,0-3.06,1.373-3.06,3.06v34.44    c0,1.688,1.373,3.06,3.06,3.06h34.44c1.688,0,3.061-1.372,3.061-3.06V4.17c0-1.688-1.373-3.06-3.061-3.06H5.03z"/>
		<path id="_Rectangle_3_154_" style="fill:#00B8F0;" d="M5.63,3.58h33.24c0.657,0,1.19,0.533,1.19,1.19v33.24    c0,0.657-0.533,1.19-1.19,1.19H5.63c-0.657,0-1.19-0.533-1.19-1.19V4.77C4.44,4.113,4.973,3.58,5.63,3.58z"/>
		<path id="_Rectangle_4_137_" style="fill:#009FD9;" d="M4.44,34.63h35.62l0,0v3.38c0,0.657-0.533,1.19-1.19,1.19H5.63    c-0.657,0-1.19-0.533-1.19-1.19V34.63L4.44,34.63z"/>
		<path style="fill:#45413C;" d="M38.87,39.7H5.63c-0.932,0-1.69-0.758-1.69-1.689V4.77c0-0.932,0.758-1.69,1.69-1.69h33.24    c0.932,0,1.689,0.758,1.689,1.69v33.24C40.56,38.942,39.802,39.7,38.87,39.7z M5.63,4.08c-0.38,0-0.69,0.31-0.69,0.69v33.24    c0,0.38,0.31,0.689,0.69,0.689h33.24c0.38,0,0.689-0.31,0.689-0.689V4.77c0-0.38-0.31-0.69-0.689-0.69H5.63z"/>
		<path id="_Path_2_586_" style="fill:#FFAA54;" d="M12.83,11.48c0,0,0.81-1.91,4.26-2s5.35,3.85,5.72,5.44s-0.56,5-0.56,5    L12.83,11.48z"/>
		<path id="_Path_3_583_" style="fill:#FFCC99;" d="M17.09,10.93c3.45,0,5.35,3.85,5.72,5.44c0,0.1,0,0.19,0.05,0.29    c0.061-0.566,0.044-1.138-0.05-1.7c-0.37-1.59-2.27-5.49-5.72-5.44s-4.26,2-4.26,2l0.66,0.59    C14.51,11.299,15.788,10.88,17.09,10.93z"/>
		<path style="fill:#45413C;" d="M22.25,20.42c-0.122,0-0.241-0.044-0.333-0.127l-9.42-8.44c-0.159-0.143-0.21-0.371-0.127-0.568    c0.039-0.09,0.979-2.208,4.707-2.305c3.61-0.074,5.768,3.884,6.22,5.827c0.394,1.693-0.525,5.101-0.564,5.245    c-0.045,0.167-0.175,0.299-0.341,0.348C22.345,20.413,22.297,20.42,22.25,20.42z M13.477,11.388l8.486,7.603    c0.266-1.185,0.58-3.015,0.36-3.958c-0.376-1.616-2.23-5.174-5.22-5.053C14.836,10.039,13.847,10.916,13.477,11.388z"/>
		<g>
			<rect id="_Rectangle_6_102_" x="22.25" y="3.58" style="fill:#FFE500;" width="2.89" height="35.62"/>
			<path style="fill:#45413C;" d="M25.14,39.7h-2.89c-0.276,0-0.5-0.224-0.5-0.5V3.58c0-0.276,0.224-0.5,0.5-0.5h2.89     c0.276,0,0.5,0.224,0.5,0.5V39.2C25.64,39.476,25.416,39.7,25.14,39.7z M22.75,38.7h1.89V4.08h-1.89V38.7z"/>
		</g>
		<path id="_Path_5_567_" style="fill:#FFAA54;" d="M29.19,21.09c0.71-0.788,1.755-1.19,2.81-1.08c2.07,0,3.31,1.66,3.13,4    s1.52,2.42,1.52,2.42s-0.26,3.11-3.73,2.19s-3.73-3.23-3.73-3.23V21.09z"/>
		<path style="fill:#FFCC99;" d="M35.17,24.9c-0.042-0.282-0.042-0.568,0-0.85c0.18-2.38-1.06-4-3.13-4    c-1.055-0.11-2.1,0.292-2.81,1.08v1.92c0.71-0.788,1.755-1.19,2.81-1.08c1.682-0.022,3.067,1.318,3.1,3L35.17,24.9z"/>
		<path style="fill:#45413C;" d="M34.112,29.291c-0.408,0-0.849-0.063-1.32-0.188c-3.757-0.996-4.086-3.549-4.099-3.657L28.69,21.09    c0-0.124,0.046-0.243,0.128-0.334c0.813-0.904,2.018-1.365,3.233-1.243c0.004,0,0.007,0,0.011,0c0.993,0,1.89,0.375,2.544,1.08    c0.767,0.828,1.13,2.056,1.021,3.456c-0.051,0.673,0.063,1.179,0.343,1.503c0.297,0.346,0.693,0.379,0.71,0.38    c0.133,0.01,0.26,0.072,0.347,0.174c0.086,0.102,0.133,0.234,0.121,0.367c-0.005,0.061-0.138,1.495-1.279,2.3    C35.379,29.118,34.791,29.291,34.112,29.291z M29.69,21.291v4.099c0.007,0.021,0.295,1.935,3.357,2.746    c0.955,0.254,1.709,0.193,2.238-0.178c0.453-0.315,0.673-0.808,0.777-1.158c-0.258-0.098-0.563-0.271-0.832-0.575    c-0.472-0.534-0.674-1.292-0.6-2.253c0.086-1.12-0.184-2.079-0.76-2.701C33.411,20.774,32.764,20.51,32,20.51    C31.118,20.42,30.286,20.713,29.69,21.291z"/>
		<path id="_Path_7_508_" style="fill:#FFFFFF;" d="M31.4,26.69v-2.08c0.006-2.563-2.067-4.644-4.63-4.65c-0.007,0-0.013,0-0.02,0    h-4.5l-0.1-0.34c-0.653-2.239-1.667-4.357-3-6.27c-0.689-0.973-1.808-1.551-3-1.55h-2.1l-1.29-2.29c0,0-1.67,2-0.71,3.49    c-0.269,0.392-0.431,0.847-0.47,1.32l-0.33,3.57c-0.049,0.783,0.546,1.457,1.329,1.506c0.606,0.038,1.17-0.314,1.401-0.876l0.38-1    c0.942-0.185,1.685-0.912,1.89-1.85c-0.11,1.22-0.44,4.32-1.3,5.92c-0.264,0.533-0.381,1.127-0.34,1.72v1.41    c0.06,0.721-0.389,1.386-1.08,1.6l-0.42,0.14c-0.735,0.261-1.291,0.873-1.48,1.63l-0.62,2.42c-0.079,0.33,0.108,0.665,0.43,0.77    l1.26,0.38c0.339,0.099,0.695-0.096,0.793-0.436c0.002-0.008,0.005-0.016,0.007-0.024l0.37-1.48    c0.109-0.434,0.453-0.771,0.89-0.87c0.974-0.188,1.903-0.558,2.74-1.09c0.695,0.344,1.455,0.535,2.23,0.56    c4.35,0.2,5.19-1.78,5.19-1.78c0.25,1.83,2.18,2.13,3.51,2.13s1.88,1.88,0.6,2.17s-0.89,2.33-0.89,2.33h2.71    c0.444-0.01,0.839-0.286,1-0.7l1.27-3.25c0.37-0.958-0.107-2.035-1.065-2.405C31.846,26.734,31.624,26.692,31.4,26.69z"/>
		<g id="_Group_2_338_">
			<path id="_Path_8_481_" style="fill:#F0F0F0;" d="M29.11,28.85c1.18-0.35,0.63-2.15-0.68-2.15s-3.26-0.3-3.51-2.13     c0,0-0.84,2-5.19,1.79c-0.776-0.028-1.536-0.223-2.23-0.57c-0.836,0.535-1.766,0.908-2.74,1.1c-0.44,0.093-0.787,0.432-0.89,0.87     l-0.37,1.47c-0.085,0.343-0.433,0.552-0.776,0.467c-0.008-0.002-0.016-0.004-0.024-0.007l-1.26-0.38l-0.11-0.05l-0.32,1.25     c-0.079,0.33,0.108,0.665,0.43,0.77l1.26,0.38c0.339,0.099,0.695-0.096,0.793-0.436c0.002-0.008,0.005-0.016,0.007-0.024     l0.37-1.48c0.109-0.434,0.453-0.771,0.89-0.87c0.974-0.188,1.903-0.558,2.74-1.09c0.695,0.344,1.455,0.535,2.23,0.56     c4.35,0.2,5.19-1.78,5.19-1.78c0.25,1.83,2.18,2.13,3.51,2.13C28.669,28.669,28.903,28.731,29.11,28.85z"/>
			<path id="_Path_9_448_" style="fill:#F0F0F0;" d="M31.87,30.5c-0.161,0.414-0.556,0.69-1,0.7h-2.43     c-0.347,0.606-0.454,1.319-0.3,2h2.71c0.444-0.01,0.839-0.286,1-0.7l1.27-3.25c0.207-0.532,0.156-1.131-0.14-1.62L31.87,30.5z"/>
		</g>
		<path style="fill:#45413C;" d="M28.14,33.67c-0.24,0-0.446-0.171-0.491-0.406c-0.179-0.934-0.111-2.599,1.271-2.91    c0.092-0.021,0.372-0.085,0.331-0.453c-0.034-0.304-0.312-0.73-0.821-0.73c-1.859,0-3.138-0.566-3.705-1.617    c-0.733,0.639-2.206,1.406-5.018,1.267c-0.753-0.024-1.485-0.189-2.175-0.492c-0.83,0.49-1.729,0.831-2.677,1.015    c-0.239,0.055-0.436,0.248-0.5,0.501l-0.37,1.479c-0.097,0.335-0.291,0.577-0.558,0.724c-0.266,0.146-0.574,0.18-0.867,0.096    l-1.265-0.382c-0.577-0.188-0.911-0.786-0.772-1.365l0.622-2.427c0.23-0.919,0.902-1.659,1.796-1.978l0.43-0.144    c0.481-0.148,0.781-0.593,0.74-1.083L14.11,23.31c-0.045-0.647,0.09-1.331,0.392-1.942c0.421-0.785,0.772-2.101,1.023-3.802    c-0.24,0.162-0.506,0.29-0.791,0.375l-0.287,0.756c-0.317,0.772-1.085,1.254-1.899,1.197c-1.057-0.066-1.863-0.98-1.797-2.037    l0.331-3.584c0.037-0.45,0.171-0.891,0.39-1.288c-0.802-1.721,0.83-3.708,0.904-3.796c0.106-0.125,0.266-0.191,0.429-0.178    c0.164,0.015,0.31,0.109,0.39,0.252l1.146,2.036h1.808c0.001,0,0.003,0,0.005,0c1.351,0,2.623,0.658,3.403,1.762    c1.365,1.958,2.396,4.11,3.066,6.398h4.126c2.855,0.006,5.156,2.316,5.15,5.151v1.636c0.113,0.025,0.226,0.06,0.335,0.103    c1.214,0.468,1.82,1.837,1.352,3.051l-1.271,3.252c-0.235,0.604-0.807,1.003-1.455,1.018H28.14z M28.589,32.67h2.261    c0.232-0.005,0.446-0.155,0.534-0.381l1.271-3.25c0.27-0.698-0.08-1.487-0.779-1.757c-0.153-0.06-0.314-0.091-0.479-0.092    c-0.274-0.002-0.496-0.226-0.496-0.5v-2.08c0.004-2.284-1.849-4.145-4.131-4.15h-4.52c-0.222,0-0.417-0.146-0.479-0.359l-0.1-0.34    c-0.64-2.192-1.626-4.253-2.931-6.125C18.148,12.8,17.182,12.3,16.154,12.3c-0.001,0-0.002,0-0.004,0H14.05    c-0.181,0-0.347-0.097-0.436-0.254l-0.893-1.585c-0.349,0.611-0.716,1.548-0.251,2.269c0.109,0.169,0.106,0.388-0.008,0.554    c-0.219,0.32-0.352,0.692-0.384,1.078l-0.331,3.575c-0.031,0.492,0.355,0.93,0.862,0.961c0.398,0.015,0.758-0.204,0.908-0.567    l0.375-0.987c0.061-0.161,0.202-0.28,0.371-0.313c0.747-0.146,1.335-0.722,1.498-1.466c0.056-0.258,0.302-0.428,0.564-0.387    c0.261,0.04,0.445,0.276,0.422,0.539c-0.177,1.965-0.556,4.621-1.357,6.112c-0.216,0.438-0.316,0.943-0.282,1.449l0.001,1.444    c0.079,0.92-0.509,1.792-1.432,2.077l-0.41,0.137c-0.569,0.202-1.003,0.682-1.153,1.277l-0.621,2.423    c-0.016,0.068,0.027,0.146,0.102,0.17l1.249,0.377c0.057,0.017,0.15-0.033,0.168-0.097l0.372-1.485    c0.156-0.621,0.64-1.095,1.263-1.236c0.932-0.181,1.795-0.524,2.583-1.024c0.148-0.094,0.333-0.103,0.49-0.026    c0.634,0.313,1.315,0.484,2.025,0.508c3.874,0.185,4.708-1.467,4.716-1.484c0.095-0.2,0.314-0.319,0.53-0.285    c0.22,0.033,0.393,0.202,0.422,0.422c0.154,1.126,1.168,1.697,3.015,1.697c1.022,0,1.726,0.823,1.814,1.619    c0.085,0.752-0.359,1.371-1.104,1.539C28.615,31.447,28.565,32.191,28.589,32.67z"/>
		<g>
			<path id="_Rectangle_7_102_" style="fill:#00DFEB;" d="M22.25,19.96h5.16c0.304,0,0.55,0.246,0.55,0.55v2.22     c0,0.646-0.524,1.17-1.17,1.17l0,0h-3.37c-0.646,0-1.17-0.524-1.17-1.17V19.96L22.25,19.96z"/>
			<path style="fill:#45413C;" d="M26.79,24.4h-3.37c-0.921,0-1.67-0.749-1.67-1.67v-2.77c0-0.276,0.224-0.5,0.5-0.5h5.16     c0.579,0,1.05,0.471,1.05,1.05v2.22C28.46,23.651,27.711,24.4,26.79,24.4z M22.75,20.465v2.265c0,0.369,0.301,0.67,0.67,0.67     h3.37c0.369,0,0.67-0.301,0.67-0.67v-2.22L22.75,20.465z"/>
		</g>
		<path style="fill:#45413C;" d="M12.878,32.185c-0.09,0-0.183-0.011-0.274-0.033l-1.309-0.394    c-0.577-0.188-0.911-0.786-0.772-1.365l0.622-2.427c0.23-0.919,0.902-1.659,1.796-1.978l0.43-0.144    c0.481-0.148,0.781-0.593,0.74-1.083L14.11,23.28c0-0.276,0.224-0.5,0.5-0.5s0.5,0.224,0.5,0.5v1.44    c0.079,0.92-0.509,1.792-1.432,2.077l-0.41,0.137c-0.569,0.202-1.003,0.682-1.153,1.277l-0.621,2.423    c-0.016,0.068,0.027,0.146,0.101,0.17l1.25,0.377c0.072,0.018,0.151-0.027,0.17-0.103l0.371-1.479    c0.156-0.621,0.64-1.095,1.263-1.236c1.686-0.371,2.835-0.978,3.159-1.666c0.625-1.289,0.36-1.894,0.357-1.899    c-0.112-0.244-0.016-0.542,0.223-0.664c0.24-0.121,0.527-0.043,0.658,0.192c0.056,0.1,0.523,1.028-0.336,2.802    c-0.591,1.258-2.416,1.897-3.843,2.211c-0.251,0.058-0.448,0.251-0.512,0.504l-0.37,1.479    C13.856,31.839,13.39,32.185,12.878,32.185z"/>
	</g>
</g>















</svg>
