<?xml version="1.0" encoding="iso-8859-1"?>
<!-- Generator: Adobe Illustrator 21.0.0, SVG Export Plug-In . SVG Version: 6.00 Build 0)  -->
<svg xmlns="http://www.w3.org/2000/svg" xmlns:xlink="http://www.w3.org/1999/xlink" version="1.1" id="Capa_1" x="0px" y="0px" viewBox="0 0 43.85 43.85" style="enable-background:new 0 0 43.85 43.85;" xml:space="preserve" width="512" height="512">
<g>
	<g id="_Group__477_">
		
			<ellipse id="_Ellipse__546_" style="opacity:0.15;fill:#45413C;enable-background:new    ;" cx="22.175" cy="42.17" rx="18.5" ry="1.68"/>
		<g id="_Group_2_317_">
			<g id="_Group_3_255_">
				<g>
					<path id="_Path__560_" style="fill:#BF8256;" d="M38.435,24.53H4.795v15.7c0,0.619,0.501,1.12,1.12,1.12h31.4       c0.619,0,1.12-0.501,1.12-1.12V24.53z"/>
					<path style="fill:#45413C;" d="M37.315,41.85H5.915c-0.894,0-1.62-0.727-1.62-1.619v-15.7c0-0.276,0.224-0.5,0.5-0.5h33.64       c0.276,0,0.5,0.224,0.5,0.5v15.7C38.935,41.123,38.208,41.85,37.315,41.85z M5.295,25.03v15.2c0,0.342,0.278,0.619,0.62,0.619       h31.399c0.342,0,0.62-0.277,0.62-0.619v-15.2H5.295z"/>
				</g>
				<g>
					<rect id="_Path_2_552_" x="4.795" y="31.26" style="fill:#FFE3CF;" width="33.64" height="5.61"/>
					<path style="fill:#45413C;" d="M38.435,37.37H4.795c-0.276,0-0.5-0.224-0.5-0.5v-5.61c0-0.276,0.224-0.5,0.5-0.5h33.64       c0.276,0,0.5,0.224,0.5,0.5v5.61C38.935,37.147,38.711,37.37,38.435,37.37z M5.295,36.37h32.64v-4.61H5.295V36.37z"/>
				</g>
			</g>
			<g id="_Group_4_208_">
				<path id="_Path_3_548_" style="fill:#FF6242;" d="M19.375,29.58c0-0.928,0.752-1.68,1.68-1.68s1.68,0.752,1.68,1.68v0.56      c0,0.619,0.501,1.12,1.119,1.121c0.619,0,1.12-0.501,1.121-1.119c0,0,0-0.001,0-0.001v-0.56c0-0.309,0.251-0.56,0.56-0.56      c0.309,0,0.56,0.251,0.56,0.56v1.56c-0.022,1.127,0.765,2.108,1.87,2.33c1.226,0.204,2.385-0.624,2.589-1.849      c0.02-0.119,0.03-0.24,0.031-0.361v-2.8c0,0.928,0.752,1.68,1.68,1.68c0.928,0,1.68-0.752,1.68-1.68V27.9      c-0.059-0.621,0.397-1.173,1.019-1.231c0.621-0.059,1.173,0.397,1.231,1.019c0.007,0.071,0.007,0.142,0,0.212v1.12      c0.001,1.221,0.663,2.346,1.73,2.94c0.551,0.282,1.225,0.064,1.507-0.487c0.081-0.159,0.123-0.335,0.123-0.513v-6.43      c0-3.3-6.27-8.18-14.86-9.21c-0.612-0.07-1.231,0.031-1.79,0.29l-17.93,8.32c-0.78,0.363-1.285,1.14-1.3,2v8      c0.001,0.315,0.256,0.569,0.571,0.569c0.033,0,0.066-0.003,0.099-0.009c1.526-0.314,2.639-1.633,2.69-3.19      c-0.012-0.828,0.547-1.556,1.35-1.76c0.918-0.171,1.8,0.434,1.971,1.351c0.018,0.099,0.028,0.198,0.029,0.299v0.66      c0,0.928,0.753,1.68,1.681,1.679c0.927,0,1.679-0.752,1.679-1.679V30.7c0-0.309,0.25-0.56,0.56-0.56      c0.309,0,0.56,0.25,0.56,0.56c0,0,0,0,0,0.001v1.56c-0.022,1.127,0.765,2.108,1.87,2.33c1.226,0.204,2.385-0.624,2.589-1.849      c0.02-0.119,0.03-0.24,0.031-0.361L19.375,29.58z"/>
				<path style="fill:#45413C;" d="M17.106,35.121c-0.149,0-0.301-0.013-0.453-0.038c-1.359-0.272-2.315-1.463-2.288-2.833V30.7      h-0.12v1.149c0,1.202-0.978,2.18-2.179,2.18s-2.18-0.978-2.181-2.18v-0.659c0-0.067-0.007-0.138-0.02-0.206      C9.806,30.671,9.63,30.4,9.368,30.22c-0.262-0.178-0.579-0.246-0.891-0.188c-0.55,0.141-0.95,0.662-0.942,1.262      c-0.06,1.819-1.33,3.325-3.089,3.688c-0.033,0.006-0.166,0.019-0.199,0.019c-0.59,0-1.07-0.479-1.071-1.068V25.93      c0.019-1.053,0.642-2.012,1.589-2.453l17.932-8.32c0.641-0.297,1.349-0.413,2.056-0.333c8.76,1.05,15.304,5.991,15.304,9.707      v6.43c0.001,0.254-0.061,0.511-0.178,0.74c-0.197,0.385-0.532,0.671-0.944,0.804c-0.411,0.133-0.85,0.099-1.235-0.099      c-1.239-0.689-2.001-1.983-2.003-3.385v-1.12c0.006-0.087,0.006-0.126,0.002-0.164c-0.016-0.169-0.096-0.32-0.225-0.428      c-0.131-0.108-0.295-0.156-0.461-0.142c-0.346,0.032-0.602,0.341-0.568,0.687l0.002,0.606c0,1.202-0.978,2.18-2.18,2.18      c-0.435,0-0.84-0.128-1.18-0.348v0.968c-0.001,0.152-0.014,0.299-0.038,0.445c-0.121,0.723-0.517,1.356-1.114,1.784      c-0.597,0.427-1.325,0.595-2.05,0.474c-1.36-0.272-2.315-1.463-2.288-2.833v-1.55h-0.12v0.56c0,0.894-0.727,1.621-1.62,1.621      c-0.894-0.001-1.62-0.729-1.62-1.621v-0.56c0-0.65-0.529-1.18-1.18-1.18s-1.18,0.529-1.18,1.18c0,0.001,0,0.002,0,0.004      l-0.02,2.8c0,0.146-0.013,0.293-0.038,0.439C19.594,34.166,18.426,35.121,17.106,35.121z M24.316,15.798      c-0.412,0-0.822,0.09-1.199,0.265L5.185,24.383c-0.602,0.281-0.999,0.892-1.01,1.556v7.991l0.071,0.569l0.01-0.501      c1.293-0.266,2.235-1.383,2.279-2.715c-0.015-1.041,0.695-1.967,1.727-2.228c0.606-0.115,1.188,0.009,1.671,0.34      c0.482,0.33,0.807,0.829,0.915,1.404c0.024,0.128,0.037,0.257,0.037,0.389v0.661c0,0.65,0.53,1.18,1.181,1.18      c0.65,0,1.179-0.529,1.179-1.18V30.7c0-0.585,0.476-1.061,1.06-1.061s1.06,0.476,1.06,1.06v1.561      c-0.018,0.896,0.6,1.666,1.468,1.84c0.938,0.158,1.839-0.489,1.998-1.441c0.016-0.093,0.023-0.187,0.024-0.28l0.02-2.801      c0.001-1.2,0.979-2.177,2.18-2.177c1.202,0,2.18,0.978,2.18,2.18v0.56c0,0.342,0.278,0.62,0.621,0.621      c0.341,0,0.619-0.278,0.619-0.62V29.58c0-0.585,0.476-1.061,1.061-1.061c0.584,0,1.06,0.476,1.06,1.061v1.56      c-0.018,0.896,0.6,1.665,1.469,1.84c0.444,0.077,0.908-0.032,1.288-0.305c0.381-0.271,0.632-0.675,0.709-1.136      c0.017-0.096,0.023-0.189,0.024-0.283V28.46c0-0.276,0.224-0.5,0.5-0.5s0.5,0.224,0.5,0.5c0,0.65,0.529,1.18,1.18,1.18      c0.65,0,1.18-0.529,1.18-1.18v-0.56c-0.082-0.848,0.577-1.645,1.473-1.729c0.428-0.04,0.856,0.089,1.191,0.367      c0.336,0.277,0.543,0.669,0.584,1.103c0.01,0.101,0.01,0.204,0,0.308l0.002,1.071c0.002,1.039,0.566,1.998,1.474,2.504      c0.132,0.066,0.297,0.08,0.458,0.029c0.157-0.051,0.285-0.16,0.36-0.308c0.045-0.088,0.069-0.186,0.068-0.282V24.53      c0-2.781-5.751-7.674-14.42-8.714C24.529,15.804,24.422,15.798,24.316,15.798z M19.375,29.58h0.01H19.375z"/>
				<path style="fill:#E04122;" d="M36.195,25.03H9.285c-0.276,0-0.5-0.224-0.5-0.5s0.224-0.5,0.5-0.5h26.91      c0.276,0,0.5,0.224,0.5,0.5S36.471,25.03,36.195,25.03z"/>
			</g>
		</g>
		<g id="_Group_5_162_">
			<g>
				<path id="_Path_6_495_" style="fill:#FFFEF2;" d="M29.465,20.05v-9c0-0.619-0.501-1.12-1.12-1.12l0,0h-2.25      c-0.619,0-1.12,0.501-1.12,1.12c0,0,0,0,0,0v9c0.484,0.762,1.35,1.194,2.25,1.12C28.121,21.24,28.983,20.809,29.465,20.05z"/>
				<path style="fill:#45413C;" d="M26.961,21.678c-0.936,0-1.866-0.507-2.408-1.36c-0.051-0.08-0.078-0.173-0.078-0.268v-9      c0-0.893,0.727-1.62,1.62-1.62h2.25c0.894,0,1.62,0.727,1.62,1.62v9c0,0.095-0.027,0.188-0.078,0.268      c-0.582,0.917-1.612,1.433-2.701,1.351C27.112,21.675,27.036,21.678,26.961,21.678z M25.475,19.896      c0.396,0.536,1.044,0.829,1.709,0.776c0.752,0.054,1.388-0.243,1.781-0.776V11.05c0-0.342-0.278-0.62-0.62-0.62h-2.25      c-0.342,0-0.62,0.278-0.62,0.62V19.896z M29.465,20.05h0.01H29.465z"/>
			</g>
			<g>
				<path id="_Path_7_474_" style="fill:#FFE500;" d="M24.645,4.41c-0.34,1.43,0.545,2.865,1.975,3.205s2.865-0.545,3.205-1.975l0,0      c0.46-1.94-2.5-2.26-2.43-5.14C25.943,1.33,24.935,2.763,24.645,4.41z"/>
				<path style="fill:#45413C;" d="M27.236,8.188c-0.241,0-0.486-0.028-0.73-0.086c-0.822-0.195-1.519-0.699-1.962-1.417      c-0.441-0.715-0.578-1.558-0.389-2.375c0.321-1.793,1.411-3.339,2.992-4.243c0.157-0.089,0.351-0.088,0.504,0.005      c0.155,0.092,0.248,0.261,0.244,0.441c-0.031,1.3,0.655,1.993,1.319,2.662c0.647,0.652,1.38,1.391,1.098,2.581      C29.967,7.208,28.666,8.188,27.236,8.188z M26.968,1.394c-0.959,0.772-1.612,1.868-1.831,3.103      c-0.002,0.01-0.004,0.019-0.006,0.029c-0.134,0.562-0.04,1.142,0.263,1.633c0.304,0.492,0.78,0.836,1.342,0.97      c1.156,0.275,2.327-0.445,2.604-1.604c0.147-0.621-0.185-0.991-0.835-1.646C27.909,3.279,27.197,2.561,26.968,1.394z       M24.645,4.41h0.01H24.645z"/>
			</g>
		</g>
	</g>
</g>















</svg>
