<svg height="512pt" viewBox="-72 0 511 512" width="512pt" xmlns="http://www.w3.org/2000/svg"><path d="m314.898438 139.632812h-262.027344v-86.289062c0-25.320312 20.523437-45.84375 45.84375-45.84375h170.339844c25.320312 0 45.847656 20.523438 45.847656 45.84375v86.289062zm0 0" fill="#6163aa"/><path d="m181.730469 36.503906h31.949219v78.0625h-31.949219zm0 0" fill="#c5ee09"/><path d="m235.554688 36.503906h31.949218v78.0625h-31.949218zm0 0" fill="#c5ee09"/><path d="m28.382812 155.691406h311.003907v269.988282h-311.003907zm0 0" fill="#ffe5c0"/><path d="m349.53125 177.074219h-331.292969c-5.652343 0-10.238281-4.582031-10.238281-10.238281v-44.171876c0-11.308593 9.167969-20.472656 20.472656-20.472656h310.824219c11.304687 0 20.472656 9.164063 20.472656 20.472656v44.171876c0 5.65625-4.582031 10.238281-10.238281 10.238281zm0 0" fill="#fef5e3"/><path d="m348.1875 428.382812v76.121094h-328.601562v-76.121094c0-48.757812 39.523437-88.28125 88.28125-88.28125h152.039062c41.867188 0 76.929688 29.144532 86 68.257813 1.492188 6.429687 2.28125 13.132813 2.28125 20.023437zm0 0" fill="#a7acd3"/><path d="m348.1875 428.382812v39.773438c-17.628906-6.480469-30.199219-23.425781-30.199219-43.304688v-6.253906c0-5.652344 4.582031-10.238281 10.238281-10.238281h17.679688c1.492188 6.429687 2.28125 13.132813 2.28125 20.023437zm0 0" fill="#c5ee09"/><path d="m281.207031 342.691406v161.8125h-194.644531v-161.8125c6.820312-1.6875 13.953125-2.589844 21.304688-2.589844h152.039062c7.347656 0 14.484375.902344 21.300781 2.589844zm0 0" fill="#6163aa"/><path d="m317.988281 221.9375c0 74.0625-60.039062 134.101562-134.101562 134.101562s-134.101563-60.039062-134.101563-134.101562 60.039063-134.101562 134.101563-134.101562 134.101562 60.039062 134.101562 134.101562zm0 0" fill="#a7acd3"/><path d="m317.988281 221.941406c0 74.0625-60.039062 134.101563-134.101562 134.101563-3.257813 0-6.472657-.113281-9.664063-.347657 69.546875-4.953124 124.429688-62.945312 124.429688-133.753906s-54.882813-128.800781-124.429688-133.753906c3.191406-.238281 6.40625-.347656 9.664063-.347656 74.0625 0 134.101562 60.039062 134.101562 134.101562zm0 0" fill="#898ec9"/><path d="m283.476562 219.886719c0 34.46875-17.515624 64.851562-44.128906 82.722656-15.851562 10.660156-34.929687 16.867187-55.460937 16.867187-20.535157 0-39.609375-6.207031-55.464844-16.867187-26.613281-17.871094-44.128906-48.253906-44.128906-82.722656 0-55 44.589843-72.191407 99.59375-72.191407 55 0 99.589843 17.191407 99.589843 72.191407zm0 0" fill="#2de0c7"/><path d="m216.515625 188.269531c18.292969 0 33.121094 14.832031 33.121094 33.125v45.886719c0 13.003906-3.777344 25.121094-10.289063 35.328125-15.851562 10.660156-34.929687 16.867187-55.460937 16.867187-20.535157 0-39.609375-6.207031-55.464844-16.867187-6.515625-10.207031-10.289063-22.324219-10.289063-35.328125v-45.886719c0-18.292969 14.828126-33.125 33.121094-33.125zm0 0" fill="#ffd4a1"/><path d="m249.636719 221.398438v45.882812c0 13.003906-3.777344 25.121094-10.289063 35.328125-4.332031 2.917969-8.914062 5.492187-13.6875 7.703125 6.574219-11.164062 10.335938-24.160156 10.335938-38.03125v-52.410156c0-13.148438-6.710938-24.730469-16.894532-31.507813 17.082032 1.320313 30.535157 15.605469 30.535157 33.035157zm0 0" fill="#ffc183"/><path d="m273.140625 360.183594h-178.507813c-9.566406 0-17.324218-7.753906-17.324218-17.320313v-10.839843c0-9.566407 7.753906-17.324219 17.324218-17.324219h178.507813c9.566406 0 17.320313 7.757812 17.320313 17.324219v10.839843c0 9.566407-7.753907 17.320313-17.320313 17.320313zm0 0" fill="#c5ee09"/><path d="m247.097656 416.160156h-23.179687c-5.65625 0-10.238281-4.582031-10.238281-10.234375v-5.265625c0-5.652344 4.582031-10.234375 10.238281-10.234375h23.179687c5.65625 0 10.238282 4.582031 10.238282 10.234375v5.265625c0 5.652344-4.585938 10.234375-10.238282 10.234375zm0 0" fill="#ff5c3c"/><path d="m120.859375 55.613281h-23.988281c-5.273438 0-9.550782-4.277343-9.550782-9.554687s4.277344-9.554688 9.550782-9.554688h23.988281c5.277344 0 9.554687 4.28125 9.554687 9.554688 0 5.277344-4.277343 9.554687-9.554687 9.554687zm0 0" fill="#2de0c7"/><path d="m339.296875 94.691406h-16.898437v-41.347656c0-29.414062-23.925782-53.34375-53.34375-53.34375h-170.339844c-29.414063 0-53.34375 23.929688-53.34375 53.34375v41.347656h-16.898438c-15.421875 0-27.972656 12.546875-27.972656 27.972656v44.175782c0 9.777344 7.957031 17.734375 17.738281 17.734375h2.644531v116.097656c0 4.144531 3.355469 7.5 7.5 7.5 4.140626 0 7.5-3.355469 7.5-7.5v-116.097656h11.410157c-3.257813 11.910156-5.011719 24.433593-5.011719 37.363281 0 34.34375 12.238281 67 34.605469 92.75-4.375 4.480469-7.078125 10.597656-7.078125 17.335938v8.4375c-13.046875 5.648437-24.585938 14.070312-33.925782 24.726562v-31.855469c0-4.140625-3.359374-7.5-7.5-7.5-4.144531 0-7.5 3.359375-7.5 7.5v54.671875c0 .078125.007813.152344.011719.230469-5.785156 12.5-8.808593 26.128906-8.808593 40.152344v76.113281c0 4.144531 3.355468 7.5 7.5 7.5h328.601562c4.140625 0 7.5-3.355469 7.5-7.5v-76.113281c0-14.03125-3.132812-27.601563-8.804688-39.90625 0-.050781.003907-.09375.003907-.144531v-203.761719h2.648437c9.777344 0 17.734375-7.957031 17.734375-17.738281v-44.171876c0-15.425781-12.550781-27.972656-27.972656-27.972656zm-278.925781-41.347656c0-21.140625 17.199218-38.34375 38.34375-38.34375h170.339844c21.144531 0 38.347656 17.203125 38.347656 38.34375v41.347656h-32.398438v-58.1875c0-4.144531-3.355468-7.5-7.5-7.5h-31.949218c-4.140626 0-7.5 3.355469-7.5 7.5v50.894532c-2.265626-.746094-4.558594-1.4375-6.875-2.070313v-48.824219c0-4.144531-3.359376-7.5-7.5-7.5h-31.949219c-4.140625 0-7.5 3.355469-7.5 7.5v44.167969c-18.730469 1.269531-36.472657 6.191406-52.519531 14.066406-.269532-.03125-.546876-.046875-.824219-.046875h-60.515625zm199.632812 41.347656h-14.039062c-.964844-.472656-1.933594-.933594-2.910156-1.382812v-49.304688h16.949218zm-53.824218-12.59375c-5.550782-.882812-11.207032-1.4375-16.949219-1.652344v-36.441406h16.949219zm-187.941407 87.476563c-1.507812 0-2.738281-1.226563-2.738281-2.738281v-44.171876c0-7.152343 5.820312-12.972656 12.972656-12.972656h69.195313c-20.027344 15.417969-35.832031 36.0625-45.34375 59.882813zm133.015625 26.195312h65.261719c14.128906 0 25.625 11.496094 25.625 25.625v45.886719c0 10.628906-2.882813 20.96875-8.332031 30.011719-6.027344 3.894531-12.570313 7.125-19.550782 9.5625-.285156.097656-.558593.21875-.824218.347656h-58.917969c-.023437-.007813-.046875-.019531-.074219-.027344-7.332031-2.472656-14.183594-5.816406-20.472656-9.871093-5.453125-9.046876-8.335938-19.390626-8.335938-30.019532v-45.890625c0-14.128906 11.492188-25.625 25.621094-25.625zm-2.367187 212.890625c-4.140625 0-7.5 3.359375-7.5 7.5v80.839844h-10.28125v-106.574219c0-4.144531-3.355469-7.5-7.5-7.5-4.140625 0-7.5 3.355469-7.5 7.5v106.574219h-22.042969v-129.328125c.191406.003906.378906.015625.570312.015625h178.507813c.191406 0 .378906-.011719.566406-.015625v129.328125h-117.320312v-80.839844c0-4.140625-3.359375-7.5-7.5-7.5zm12.03125-86.457031v30.480469h-15.929688v-30.480469zm61.863281 0v30.480469h-15.929688v-30.480469zm-30.929688 30.484375h-15.933593v-30.484375h15.933593zm81.289063-30.484375c5.414063 0 9.820313 4.40625 9.820313 9.820313v10.839843c0 5.417969-4.40625 9.820313-9.820313 9.820313h-4.425781v-30.480469zm-19.425781 30.484375h-15.929688v-30.484375h15.929688zm-123.726563 0h-15.929687v-30.484375h15.929687zm-30.933593 0h-4.425782c-5.414062 0-9.820312-4.40625-9.820312-9.820312v-10.84375c0-5.414063 4.40625-9.820313 9.820312-9.820313h4.425782zm-71.96875 122.476562h10.75c4.144531 0 7.5-3.359374 7.5-7.5 0-4.144531-3.355469-7.5-7.5-7.5h-10.75v-6.734374h10.75c4.144531 0 7.5-3.355469 7.5-7.5 0-4.144532-3.355469-7.5-7.5-7.5h-10.75v-10.042969c0-16.585938 4.984374-32.515625 14.417968-46.074219 8.117188-11.671875 19.003906-20.890625 31.710938-26.921875 1.527344 2.601563 3.511718 4.902344 5.847656 6.789063v134.820312h-51.976562zm261.621093 21.835938v-134.820312c2.332031-1.886719 4.316407-4.183594 5.84375-6.78125 19.328125 9.207031 34.046875 25.761718 41.246094 45.460937h-7.574219c-9.777344 0-17.734375 7.957031-17.734375 17.738281v6.253906c0 20.597657 11.941407 39.355469 30.199219 48.238282v23.910156zm51.980469-68.613281v27.167969c-9.382812-7.191407-15.199219-18.5-15.199219-30.703126v-6.253906c0-1.507812 1.226563-2.738281 2.734375-2.738281h11.472656c.652344 4.105469.992188 8.292969.992188 12.527344zm-8.800781-150.929688h-5.027344c-4.140625 0-7.5 3.359375-7.5 7.5 0 4.144531 3.359375 7.5 7.5 7.5h5.027344v3.382813h-5.027344c-4.140625 0-7.5 3.355468-7.5 7.5 0 4.144531 3.359375 7.5 7.5 7.5h5.027344v3.382812h-5.027344c-4.140625 0-7.5 3.355469-7.5 7.5 0 4.140625 3.359375 7.5 7.5 7.5h5.027344v3.378906h-5.027344c-4.140625 0-7.5 3.359376-7.5 7.5 0 4.144532 3.359375 7.5 7.5 7.5h5.027344v17.714844c-9.195313-10.53125-20.714844-19.105468-33.925781-24.835937v-8.457031c0-6.746094-2.710938-12.871094-7.09375-17.351563 6.535156-7.535156 12.277343-15.726563 17.089843-24.453125 2-3.625.679688-8.1875-2.945312-10.1875-3.628907-2-8.1875-.679688-10.191407 2.945312-4.878906 8.847657-10.824218 17.089844-17.675781 24.554688-1.304687-.214844-2.640625-.328125-4.003906-.328125h-27.242187c27.757812-19.75 45.074218-52.070313 45.074218-87.3125 0-36.355469-18.578125-79.691406-107.085937-79.691406-12.785157 0-24.621094.921875-35.175781 2.734375-4.082032.703125-6.824219 4.582031-6.121094 8.664062.703125 4.082032 4.574218 6.824219 8.664062 6.121094 9.71875-1.671875 20.695313-2.519531 32.632813-2.519531 28.75 0 51.113281 4.824219 66.464843 14.34375 17.238282 10.6875 25.621094 27.15625 25.621094 50.347656 0 20.960937-7.128906 40.71875-19.414062 56.53125.378906-3.019531.578125-6.070313.578125-9.140625v-14.585938c.261719.128907.511719.269532.78125.390626 1.011719.464843 2.078125.683593 3.121093.683593 2.84375 0 5.5625-1.621093 6.824219-4.375 1.726563-3.765625.074219-8.214843-3.691406-9.941406-3.804687-1.746094-6.125-4.898437-7.035156-6.328125v-11.734375c0-5.847656-1.25-11.40625-3.484375-16.433594l6.089844-6.089843c2.929687-2.929688 2.929687-7.679688 0-10.605469-2.929688-2.929688-7.679688-2.929688-10.605469 0l-4.171875 4.167969c-6.527344-6.410157-15.199219-10.636719-24.828125-11.492188-1.359375-.398438-9.414063-3.242188-9.414063-14.570312 0-4.144532-3.359375-7.5-7.5-7.5s-7.5 3.355468-7.5 7.5c0 5.726562 1.257813 10.488281 3.207032 14.402343h-30.085938c1.949219-3.914062 3.203125-8.675781 3.203125-14.402343 0-4.144532-3.355469-7.5-7.5-7.5-4.140625 0-7.5 3.355468-7.5 7.5 0 10.910156-7.425781 13.949218-9.453125 14.574218-9.613281.863282-18.273438 5.085938-24.789062 11.488282l-4.167969-4.167969c-2.929688-2.929688-7.679688-2.929688-10.609375 0-2.925782 2.929687-2.925782 7.675781 0 10.605469l6.089844 6.089843c-2.234376 5.027344-3.484376 10.585938-3.484376 16.433594v11.75c-.875 1.390625-3.1875 4.546875-7.035156 6.3125-3.765625 1.726563-5.417968 6.179687-3.691406 9.945313 1.265625 2.75 3.980469 4.375 6.824219 4.375 1.046875 0 2.109375-.222657 3.121093-.6875.269532-.121094.519532-.257813.78125-.386719v14.582031c0 3.101562.207032 6.179688.589844 9.226562-12.300781-15.800781-19.421875-35.574218-19.421875-56.617187 0-25.21875 9.957031-42.574219 30.4375-53.0625 3.6875-1.886719 5.144531-6.40625 3.257813-10.09375-1.886719-3.6875-6.40625-5.148437-10.09375-3.257813-25.617188 13.117188-38.605469 35.460938-38.605469 66.410157 0 35.347656 17.289063 67.59375 45.050781 87.3125h-27.214844c-1.375 0-2.71875.117187-4.03125.332031-21.507812-23.414062-33.320312-53.691406-33.320312-85.59375 0-69.808594 56.792969-126.605469 126.605469-126.605469 69.808593 0 126.601562 56.796875 126.601562 126.605469 0 9.988281-1.175781 19.953125-3.492187 29.621094-.964844 4.027344 1.515625 8.078125 5.546875 9.042968 4.023437.972657 8.074219-1.515624 9.039062-5.546874 2.59375-10.808594 3.90625-21.953126 3.90625-33.117188 0-12.929688-1.75-25.457031-5.011719-37.363281h11.410157zm20.382812-110.621093c0 1.511718-1.226562 2.738281-2.738281 2.738281h-34.082031c-9.515625-23.816407-25.320313-44.464844-45.347657-59.882813h69.195313c7.152344 0 12.972656 5.820313 12.972656 12.972656zm0 0"/><path d="m167.171875 271.300781c0 4.144531 3.359375 7.5 7.5 7.5h13.195313c4.144531 0 7.5-3.355469 7.5-7.5 0-4.140625-3.355469-7.5-7.5-7.5h-5.695313v-32.535156c0-4.144531-3.359375-7.5-7.5-7.5s-7.5 3.355469-7.5 7.5zm0 0"/><path d="m151.132812 226.085938h-.085937c-.03125 0-.058594 0-.085937 0-4.101563 0-7.40625 3.304687-7.453126 7.417968-.046874 4.140625 3.320313 7.539063 7.460938 7.582032h.082031c4.105469 0 7.453125-3.300782 7.5-7.414063.042969-4.144531-3.273437-7.539063-7.417969-7.585937zm0 0"/><path d="m216.890625 226.085938h-.085937c-.03125 0-.058594 0-.085938 0-4.101562 0-7.40625 3.304687-7.453125 7.417968-.046875 4.140625 3.320313 7.539063 7.460937 7.582032h.082032c4.105468 0 7.453125-3.300782 7.5-7.414063.046875-4.144531-3.277344-7.539063-7.417969-7.585937zm0 0"/><path d="m207.863281 221.09375h16.605469c4.140625 0 7.5-3.355469 7.5-7.5 0-4.140625-3.359375-7.5-7.5-7.5h-16.605469c-4.140625 0-7.5 3.359375-7.5 7.5 0 4.144531 3.359375 7.5 7.5 7.5zm0 0"/><path d="m143.304688 221.09375h16.601562c4.144531 0 7.5-3.355469 7.5-7.5 0-4.140625-3.355469-7.5-7.5-7.5h-16.601562c-4.144532 0-7.5 3.359375-7.5 7.5 0 4.144531 3.355468 7.5 7.5 7.5zm0 0"/><path d="m220.902344 271.792969c-3.4375-2.3125-8.097656-1.398438-10.40625 2.039062-13.066406 19.4375-34.933594 12.355469-35.9375 12.019531-3.902344-1.351562-8.160156.710938-9.527344 4.605469-1.371094 3.910157.6875 8.191407 4.597656 9.5625 3.78125 1.324219 9.105469 2.375 15.113282 2.375 12.371093 0 27.628906-4.464843 38.203124-20.191406 2.308594-3.4375 1.398438-8.097656-2.042968-10.410156zm0 0"/><path d="m223.917969 423.660156h23.179687c9.78125 0 17.738282-7.957031 17.738282-17.734375v-5.265625c0-9.777344-7.957032-17.734375-17.738282-17.734375h-23.179687c-9.78125 0-17.738281 7.957031-17.738281 17.734375v5.265625c0 9.777344 7.957031 17.734375 17.738281 17.734375zm-2.738281-23c0-1.507812 1.226562-2.734375 2.738281-2.734375h23.179687c1.511719 0 2.738282 1.226563 2.738282 2.734375v5.265625c0 1.507813-1.226563 2.734375-2.738282 2.734375h-23.179687c-1.511719 0-2.738281-1.226562-2.738281-2.734375zm0 0"/><path d="m257.457031 429.644531-.105469-.003906c-.023437 0-.046874 0-.070312 0-4.109375 0-7.460938 3.316406-7.5 7.433594-.039062 4.140625 3.289062 7.53125 7.429688 7.566406l.109374.003906h.070313c4.109375 0 7.457031-3.3125 7.496094-7.433593.039062-4.140626-3.289063-7.53125-7.429688-7.566407zm0 0"/><path d="m257.457031 446.53125-.105469-.003906c-.023437 0-.046874 0-.070312 0-4.109375 0-7.460938 3.3125-7.5 7.433594-.039062 4.140624 3.289062 7.53125 7.429688 7.566406l.109374.003906h.070313c4.109375 0 7.457031-3.316406 7.496094-7.433594.039062-4.140625-3.289063-7.53125-7.429688-7.566406zm0 0"/><path d="m137.914062 46.058594c0-9.402344-7.648437-17.054688-17.054687-17.054688h-23.988281c-9.402344 0-17.050782 7.652344-17.050782 17.054688s7.648438 17.054687 17.050782 17.054687h23.988281c9.402344 0 17.054687-7.652343 17.054687-17.054687zm-17.054687 2.054687h-23.988281c-1.132813 0-2.050782-.921875-2.050782-2.054687 0-1.132813.917969-2.054688 2.050782-2.054688h23.988281c1.132813 0 2.054687.921875 2.054687 2.054688 0 1.132812-.921874 2.054687-2.054687 2.054687zm0 0"/></svg>