<svg height="512pt" viewBox="-16 0 512 512.0005" width="512pt" xmlns="http://www.w3.org/2000/svg"><path d="m25.953125 257.066406c0 53.644532 19.382813 102.765625 51.523437 140.730469.011719.011719.011719.011719.023438.023437 39.976562 47.203126 99.679688 77.171876 166.378906 77.171876 59.453125 0 113.332032-23.796876 152.648438-62.394532 35.59375-34.933594 59.253906-82 64.273437-134.507812.667969-6.925782 1.003907-13.933594 1.003907-21.023438 0-66.703125-29.964844-126.40625-77.171876-166.382812-13.347656-11.304688-28.082031-21.042969-43.90625-28.898438-29.175781-14.496094-62.058593-22.648437-96.847656-22.648437-90.632812 0-168.347656 55.324219-201.199218 134.050781-10.773438 25.828125-16.726563 54.152344-16.726563 83.878906zm0 0" fill="#9bf2e5"/><path d="m25.953125 257.066406c0 53.644532 19.382813 102.765625 51.523437 140.730469.011719.011719.011719.011719.023438.023437 39.976562 47.203126 99.679688 77.171876 166.378906 77.171876v-435.851563c-90.632812 0-168.347656 55.320313-201.199218 134.050781-10.773438 25.824219-16.726563 54.148438-16.726563 83.875zm0 0" fill="#5100cb"/><path d="m243.878906 474.992188c59.453125 0 113.328125-23.796876 152.644532-62.394532 35.597656-34.933594 59.253906-82 64.277343-134.507812.667969-6.925782 1.003907-13.933594 1.003907-21.023438 0-66.703125-29.96875-126.40625-77.171876-166.382812h-.011718c32.132812 37.96875 51.515625 87.078125 51.515625 140.714844 0 7.089843-.335938 14.097656-1.003907 21.023437-5.019531 52.507813-28.679687 99.574219-64.273437 134.511719-39.320313 38.582031-93.195313 62.390625-152.648437 62.390625-53.648438 0-102.746094-19.382813-140.714844-51.503907 39.976562 47.203126 99.683594 77.171876 166.382812 77.171876zm0 0" fill="#2de0c7"/><path d="m202.929688 132.136719v39.714843c0 25.929688 17.28125 47.820313 40.949218 54.796876 5.125 1.503906 10.542969 2.3125 16.148438 2.3125h38.125c2.574218 0 5.03125 1.015624 6.84375 2.832031l22.9375 22.929687c1.820312 1.820313 4.277344 2.835938 6.839844 2.835938h28.960937c2.5625 0 5.023437 1.023437 6.839844 2.832031l14.863281 14.863281c1.8125 1.820313 4.277344 2.835938 6.84375 2.835938h68.519531c.667969-6.925782 1.003907-13.933594 1.003907-21.023438 0-66.710937-29.964844-126.414062-77.171876-166.382812h-.007812c-13.347656-11.304688-28.074219-21.03125-43.898438-28.898438v65.207032c0 2.5625-1.027343 5.027343-2.835937 6.839843l-16.957031 16.945313c-1.808594 1.816406-4.265625 2.832031-6.839844 2.832031h-26.128906c-5.34375 0-9.671875-4.320313-9.671875-9.671875v-43.292969c0-5.355469-4.34375-9.6875-9.6875-9.6875h-35.300781c-3.261719 0-6.308594 1.644531-8.097657 4.375l-20.6875 31.492188c-1.046875 1.578125-1.589843 3.429687-1.589843 5.3125zm0 0" fill="#84e507"/><path d="m243.878906 226.648438v-135.691407h-10.574218c-3.261719 0-6.308594 1.640625-8.097657 4.371094l-20.6875 31.496094c-1.046875 1.578125-1.589843 3.429687-1.589843 5.3125v39.714843c0 25.929688 17.28125 47.820313 40.949218 54.796876zm0 0" fill="#898ec9"/><path d="m435.132812 252.421875c-.835937 8.710937-2.175781 17.277344-4.015624 25.667969h29.683593c.667969-6.925782 1.003907-13.933594 1.003907-21.023438 0-66.710937-29.96875-126.417968-77.171876-166.382812h-.011718c32.132812 37.96875 51.515625 87.078125 51.515625 140.714844 0 7.089843-.335938 14.097656-1.003907 21.023437zm0 0" fill="#69cc00"/><path d="m25.953125 257.066406c0 53.65625 19.394531 102.785156 51.546875 140.753906l.007812.007813c39.976563 47.203125 99.671876 77.160156 166.371094 77.160156 59.453125 0 113.332032-23.792969 152.648438-62.390625h-80.917969c-2.5625 0-5.019531-1.015625-6.839844-2.835937l-20.742187-20.738281c-1.816406-1.820313-2.832032-4.28125-2.832032-6.84375v-74.847657c0-5.335937-4.34375-9.675781-9.6875-9.675781h-116.015624c-2.5625 0-5.023438-1.015625-6.839844-2.835938l-23.179688-23.175781c-1.820312-1.820312-2.835937-4.277343-2.835937-6.851562v-51.609375c0-2.5625-1.015625-5.019532-2.835938-6.839844l-30.320312-30.3125c-1.820313-1.820312-4.277344-2.84375-6.839844-2.84375h-43.960937c-10.773438 25.828125-16.726563 54.152344-16.726563 83.878906zm0 0" fill="#84e507"/><path d="m339.3125 412.597656c-34.632812 23.191406-76.28125 36.726563-121.101562 36.726563-53.648438 0-102.734376-19.382813-140.703126-51.492188 39.976563 47.203125 99.671876 77.160157 166.371094 77.160157 59.453125 0 113.332032-23.796876 152.648438-62.394532zm0 0" fill="#69cc00"/><path d="m243.878906 297.660156v177.332032c-66.699218 0-126.394531-29.957032-166.371094-77.160157l-.007812-.011719c-32.15625-37.96875-51.546875-87.097656-51.546875-140.753906 0-29.726562 5.953125-58.050781 16.726563-83.878906h43.960937c2.5625 0 5.019531 1.027344 6.839844 2.847656l30.324219 30.3125c1.820312 1.820313 2.832031 4.277344 2.832031 6.839844v51.605469c0 2.574219 1.015625 5.03125 2.835937 6.851562l23.179688 23.179688c1.820312 1.820312 4.277344 2.835937 6.839844 2.835937zm0 0" fill="#898ec9"/><path d="m243.878906 447.816406v27.175782c-66.699218 0-126.394531-29.957032-166.371094-77.160157 37.96875 32.109375 87.054688 51.492188 140.703126 51.492188 8.679687 0 17.25-.515625 25.667968-1.507813zm0 0" fill="#6163aa"/><path d="m442.261719 419.570312c0 28.753907-23.308594 52.058594-52.058594 52.058594-28.753906 0-52.0625-23.304687-52.0625-52.058594 0-28.75 23.308594-52.058593 52.0625-52.058593 28.75 0 52.058594 23.308593 52.058594 52.058593zm0 0" fill="#fda736"/><path d="m442.261719 419.570312c0 28.753907-23.304688 52.0625-52.058594 52.0625-5.246094 0-10.300781-.773437-15.066406-2.214843 21.417969-6.453125 37.007812-26.328125 37.007812-49.847657 0-23.519531-15.589843-43.394531-37.007812-49.847656 4.765625-1.441406 9.820312-2.210937 15.066406-2.210937 28.753906 0 52.058594 23.304687 52.058594 52.058593zm0 0" fill="#fd8f07"/><path d="m149.066406 61.34375c0 35.265625-28.777344 64.042969-64.042968 64.042969-22.433594 0-42.167969-11.53125-53.605469-28.992188-.730469-1.117187.449219-2.492187 1.660156-1.929687 8.191406 3.808594 17.324219 5.933594 26.957031 5.933594 35.46875 0 64.042969-28.574219 64.042969-64.042969 0-9.632813-2.125-18.765625-5.933594-26.960938-.5625-1.210937.8125-2.390625 1.929688-1.65625 17.460937 11.4375 28.992187 31.171875 28.992187 53.605469zm0 0" fill="#fed370"/><path d="m306.125 318.253906v24.777344c0 4.140625 3.359375 7.5 7.5 7.5s7.5-3.359375 7.5-7.5v-24.777344c0-4.140625-3.359375-7.5-7.5-7.5s-7.5 3.359375-7.5 7.5zm0 0"/><path d="m167.929688 372.246094v-.097656c0-4.144532-3.359376-7.5-7.5-7.5-4.140626 0-7.5 3.355468-7.5 7.5v.097656c0 4.144531 3.359374 7.5 7.5 7.5 4.140624 0 7.5-3.355469 7.5-7.5zm0 0"/><path d="m410.566406 233.042969c4.140625 0 7.5-3.355469 7.5-7.5v-.097657c0-4.144531-3.359375-7.5-7.5-7.5-4.144531 0-7.5 3.355469-7.5 7.5v.097657c0 4.144531 3.355469 7.5 7.5 7.5zm0 0"/><path d="m396.527344 233.109375c-4.140625 0-7.496094 3.359375-7.496094 7.5v.101563c0 4.140624 3.355469 7.5 7.496094 7.5 4.144531 0 7.5-3.359376 7.5-7.5v-.101563c0-4.140625-3.355469-7.5-7.5-7.5zm0 0"/><path d="m183.214844 355.09375v-.101562c0-4.140626-3.355469-7.5-7.5-7.5-4.140625 0-7.5 3.359374-7.5 7.5v.101562c0 4.140625 3.359375 7.5 7.5 7.5 4.144531 0 7.5-3.359375 7.5-7.5zm0 0"/><path d="m177.617188 137.570312c-4.140626 0-7.5 3.359376-7.5 7.5v24.867188c0 4.140625 3.359374 7.5 7.5 7.5 4.140624 0 7.5-3.359375 7.5-7.5v-24.867188c0-4.140624-3.359376-7.5-7.5-7.5zm0 0"/><path d="m42.769531 412.070312c-.015625 0-.027343 0-.039062 0-4.125 0-7.480469 3.335938-7.5 7.464844l-.015625 3.011719c-.019532 4.140625 3.324218 7.515625 7.464844 7.535156h.039062c4.125 0 7.476562-3.332031 7.496094-7.460937l.015625-3.011719c.019531-4.144531-3.320313-7.519531-7.460938-7.539063zm0 0"/><path d="m50.136719 450.273438c.019531-4.140626-3.320313-7.515626-7.460938-7.535157-.015625 0-.027343 0-.039062 0-4.125 0-7.480469 3.332031-7.5 7.460938l-.015625 3.015625c-.019532 4.140625 3.320312 7.515625 7.464844 7.535156h.039062c4.125 0 7.476562-3.335938 7.496094-7.464844zm0 0"/><path d="m59.554688 428.964844-3.015626-.015625c-4.160156.011719-7.515624 3.324219-7.535156 7.464843-.019531 4.140626 3.320313 7.515626 7.460938 7.535157l3.015625.015625h.035156c4.125 0 7.480469-3.332032 7.5-7.460938.019531-4.144531-3.320313-7.519531-7.460937-7.539062zm0 0"/><path d="m28.886719 428.871094-3.011719-.015625c-.015625 0-.027344 0-.039062 0-4.125 0-7.480469 3.335937-7.5 7.464843-.019532 4.140626 3.320312 7.515626 7.464843 7.535157l3.011719.015625h.039062c4.125 0 7.476563-3.335938 7.496094-7.464844.023438-4.140625-3.320312-7.515625-7.460937-7.535156zm0 0"/><path d="m65.898438 465.875-.015626 3.011719c-.019531 4.140625 3.320313 7.515625 7.460938 7.535156h.039062c4.125 0 7.480469-3.332031 7.5-7.460937l.015626-3.011719c.019531-4.144531-3.320313-7.519531-7.464844-7.539063-4.1875-.011718-7.515625 3.320313-7.535156 7.464844zm0 0"/><path d="m73.339844 489.078125c-.011719 0-.023438 0-.039063 0-4.125 0-7.476562 3.332031-7.5 7.460937l-.011719 3.015626c-.019531 4.140624 3.320313 7.515624 7.460938 7.535156h.039062c4.125 0 7.476563-3.335938 7.5-7.464844l.011719-3.011719c.023438-4.140625-3.320312-7.515625-7.460937-7.535156zm0 0"/><path d="m90.21875 475.304688-3.011719-.015626c-4.121093-.023437-7.519531 3.324219-7.539062 7.464844s3.320312 7.515625 7.464843 7.535156l3.011719.015626h.039063c4.125 0 7.476562-3.332032 7.5-7.460938.019531-4.144531-3.324219-7.519531-7.464844-7.539062zm0 0"/><path d="m59.554688 475.210938-3.015626-.015626c-.011718 0-.023437 0-.039062 0-4.121094 0-7.476562 3.335938-7.496094 7.464844-.019531 4.140625 3.320313 7.515625 7.460938 7.535156l3.015625.015626h.035156c4.125 0 7.480469-3.335938 7.5-7.464844.019531-4.140625-3.320313-7.515625-7.460937-7.535156zm0 0"/><path d="m27.289062 389.003906h.109376c4.140624 0 7.5-3.355468 7.5-7.5 0-4.140625-3.359376-7.5-7.5-7.5h-.109376c-4.140624 0-7.5 3.359375-7.5 7.5 0 4.144532 3.359376 7.5 7.5 7.5zm0 0"/><path d="m153.621094 479.488281h-.109375c-4.140625 0-7.5 3.359375-7.5 7.5 0 4.144531 3.359375 7.5 7.5 7.5h.109375c4.140625 0 7.5-3.355469 7.5-7.5 0-4.140625-3.359375-7.5-7.5-7.5zm0 0"/><path d="m7.640625 125.296875h-.105469c-.011718 0-.023437 0-.035156 0-4.125 0-7.4804688 3.332031-7.5 7.464844-.0195312 4.140625 3.324219 7.515625 7.464844 7.535156h.109375.035156c4.125 0 7.480469-3.335937 7.5-7.46875.015625-4.140625-3.324219-7.515625-7.46875-7.53125zm0 0"/><path d="m27.203125 148.648438h.105469.035156c4.125 0 7.480469-3.335938 7.5-7.464844.019531-4.144532-3.324219-7.515625-7.464844-7.535156h-.109375c-.011719 0-.023437 0-.035156 0-4.125 0-7.480469 3.335937-7.5 7.464843-.015625 4.140625 3.324219 7.515625 7.46875 7.535157zm0 0"/><path d="m90.09375 258.265625h.109375.035156c4.125 0 7.480469-3.335937 7.5-7.464844.015625-4.144531-3.324219-7.515625-7.46875-7.535156h-.105469c-.011718 0-.023437 0-.035156 0-4.125 0-7.480468 3.335937-7.5 7.464844-.019531 4.144531 3.324219 7.515625 7.464844 7.535156zm0 0"/><path d="m73.375 275.335938h-.105469c-.011719 0-.023437 0-.035156 0-4.125 0-7.480469 3.335937-7.5 7.46875-.019531 4.140624 3.324219 7.511718 7.464844 7.53125h.109375.035156c4.125 0 7.480469-3.335938 7.5-7.464844.015625-4.140625-3.324219-7.515625-7.46875-7.535156zm0 0"/><path d="m127.667969 140.480469h-.109375c-.011719 0-.023438 0-.035156 0-4.125 0-7.480469 3.335937-7.5 7.464843-.015626 4.144532 3.324218 7.515626 7.46875 7.535157h.105468.035156c4.125 0 7.480469-3.335938 7.5-7.464844.019532-4.144531-3.324218-7.515625-7.464843-7.535156zm0 0"/><path d="m449.761719 419.570312c0-15.746093-6.15625-30.074218-16.167969-40.734374 7.082031-11.023438 13.234375-22.6875 18.28125-34.742188 1.601562-3.820312-.199219-8.214844-4.019531-9.8125-3.820313-1.601562-8.214844.195312-9.816407 4.019531-4.480468 10.699219-9.882812 21.074219-16.089843 30.914063-9.199219-5.820313-20.082031-9.203125-31.746094-9.203125-27.851563 0-51.292969 19.21875-57.773437 45.089843h-16.816407c-.582031 0-1.128906-.226562-1.539062-.640624l-20.746094-20.742188c-.410156-.414062-.636719-.960938-.636719-1.542969v-74.839843c0-9.472657-7.707031-17.175782-17.179687-17.175782h-24.132813v-54.300781c2.832032.382813 5.714844.597656 8.648438.597656h38.125c.582031 0 1.125.222657 1.539062.640625l22.9375 22.929688c3.246094 3.246094 7.558594 5.03125 12.148438 5.03125h28.957031c.570313 0 1.140625.238281 1.542969.640625l14.84375 14.84375c3.1875 3.207031 7.621094 5.046875 12.160156 5.046875h60.097656c-1.03125 7.585937-2.480468 15.152344-4.335937 22.589844-1.003907 4.019531 1.441406 8.089843 5.460937 9.089843.609375.152344 1.21875.226563 1.820313.226563 3.363281 0 6.417969-2.277344 7.269531-5.6875 2.707031-10.839844 4.613281-21.945313 5.671875-33 .6875-7.132813 1.039063-14.449219 1.039063-21.746094 0-35.929688-8.679688-71.695312-25.101563-103.4375-1.902344-3.675781-6.429687-5.117188-10.105469-3.214844-3.679687 1.90625-5.121094 6.429688-3.214844 10.109375 15.539063 30.039063 23.421876 62.523438 23.421876 96.542969 0 4.523438-.15625 9.046875-.441407 13.523438h-61.582031c-.578125 0-1.132812-.226563-1.542969-.636719l-14.871093-14.875c-3.253907-3.234375-7.5625-5.015625-12.132813-5.015625h-28.960937c-.582032 0-1.128907-.226563-1.539063-.640625l-22.925781-22.917969c-3.238282-3.253906-7.554688-5.046875-12.160156-5.046875h-38.121094c-2.953125 0-5.839844-.273437-8.652344-.769531v-122.222656h17.230469c1.203125 0 2.179687.976562 2.179687 2.179687v43.292969c0 9.472656 7.707032 17.179687 17.179688 17.179687h26.125c4.605468 0 8.921875-1.792969 12.144531-5.03125l16.960937-16.949219c3.195313-3.199218 5.03125-7.625 5.03125-12.148437v-52.691406c11.144532 6.375 21.722657 13.78125 31.558594 22.113281 12.734375 10.785156 24.1875 23.085938 34.046875 36.5625 1.46875 2.007812 3.746094 3.074219 6.058594 3.074219 1.535156 0 3.085937-.472657 4.421875-1.445313 3.34375-2.445312 4.070312-7.140625 1.625-10.480468-10.554688-14.433594-22.820312-27.605469-36.457031-39.15625-13.898438-11.773438-29.183594-21.832032-45.417969-29.894532-29.054688-14.4375-60.199219-22.253906-92.683594-23.296875v-20.285156c0-4.140625-3.359375-7.496094-7.5-7.496094-4.144531 0-7.5 3.355469-7.5 7.496094v20.289063c-28.039062.902343-55.148437 6.882812-80.785156 17.820312-3.230469-19.570312-14.464844-37.03125-31.40625-48.128906-3.335938-2.1875-7.601562-1.902344-10.617188.703125-3.011718 2.601562-3.90625 6.777343-2.230468 10.390625 3.476562 7.476562 5.238281 15.480468 5.238281 23.800781 0 15.148437-5.867187 29.359375-16.523437 40.015625s-24.867188 16.523438-40.015626 16.523438c-8.316406 0-16.324218-1.761719-23.800781-5.234376-3.613281-1.679687-7.789062-.78125-10.390625 2.226563-2.605468 3.015625-2.890625 7.28125-.703125 10.617187 8.320313 12.703126 20.214844 22.195313 33.894531 27.515626-9.253906 13.234374-17.078124 27.410156-23.285156 42.28125-11.480468 27.519531-17.300781 56.710937-17.300781 86.761718 0 48.449219 15.140625 94.621094 43.789063 133.53125 1.46875 1.996094 3.742187 3.054688 6.046874 3.054688 1.542969 0 3.101563-.476563 4.4375-1.460938 3.335938-2.457031 4.050782-7.152344 1.59375-10.488281-26.734374-36.3125-40.867187-79.410156-40.867187-124.636719 0-26.382812 4.804687-52.046875 14.285156-76.371094h38.898438c.574219 0 1.132812.234376 1.539062.636719l30.320313 30.320313c.410156.410156.636718.957031.636718 1.539062v51.605469c0 4.589844 1.785157 8.902344 5.03125 12.148437l23.183594 23.183594c3.246094 3.246094 7.558594 5.03125 12.148438 5.03125h76.882812v162.1875c-53.46875-1.863281-103.453125-23.574218-141.449218-61.648437-2.925782-2.929688-7.675782-2.933594-10.605469-.011719-2.933594 2.925781-2.9375 7.675781-.011719 10.609375 40.828125 40.910156 94.582031 64.191406 152.066406 66.058594v20.289062c0 4.140625 3.355469 7.5 7.5 7.5 4.140625 0 7.496094-3.359375 7.496094-7.5v-20.289062c32.621094-1.089844 64.808594-9.285157 93.789062-23.871094 10.929688 12.632813 27.058594 20.648437 45.035157 20.648437 32.84375-.003906 59.5625-26.722656 59.5625-59.5625zm-213.382813-204.125c-15.445312-8.410156-25.953125-24.796874-25.953125-43.589843v-39.71875c0-.421875.121094-.828125.363281-1.199219l20.6875-31.5c.402344-.613281 1.082032-.976562 1.820313-.976562h3.082031zm96.851563-148.9375v60.476563c0 .574219-.234375 1.136719-.640625 1.539063l-16.972656 16.964843c-.402344.402344-.941407.625-1.527344.625h-26.121094c-1.203125 0-2.183594-.976562-2.183594-2.179687v-43.292969c0-9.472656-7.703125-17.179687-17.175781-17.179687h-17.230469v-36.679688c28.601563.984375 56.082032 7.605469 81.851563 19.726562zm-273.191407 41.390626c19.15625 0 37.132813-7.425782 50.621094-20.917969 13.488282-13.488281 20.917969-31.464844 20.917969-50.621094 0-2.597656-.136719-5.167969-.40625-7.714844 6.679687 9.414063 10.394531 20.777344 10.394531 32.699219 0 15.054688-5.898437 29.238281-16.601562 39.945312-10.703125 10.703126-24.890625 16.597657-39.941406 16.597657-11.925782 0-23.289063-3.714844-32.699219-10.394531 2.542969.269531 5.117187.40625 7.714843.40625zm99.457032 182.261718c-.582032 0-1.128906-.226562-1.539063-.636718l-23.183593-23.1875c-.40625-.402344-.640626-.964844-.640626-1.539063v-51.605469c0-4.589844-1.785156-8.902344-5.03125-12.148437l-30.316406-30.316407c-3.246094-3.246093-7.558594-5.03125-12.148437-5.03125h-32.34375c5.6875-11.777343 12.480469-23.023437 20.28125-33.578124 3.429687.503906 6.921875.769531 10.449219.769531 19.058593 0 37.011718-7.457031 50.546874-20.996094 12.519532-12.515625 19.820313-28.808594 20.855469-46.261719 25.25-11.558594 52.101563-17.882812 79.953125-18.84375v36.675782h-3.082031c-5.808594 0-11.175781 2.898437-14.359375 7.746093l-20.667969 31.472657c-1.859375 2.808593-2.84375 6.078124-2.84375 9.457031v39.71875c0 27.273437 17 50.640625 40.953125 60.097656v58.207031zm91.882812 177.183594v-162.183594h24.132813c1.199219 0 2.175781.976563 2.175781 2.179688v74.835937c0 4.589844 1.789062 8.902344 5.035156 12.148438l20.742188 20.742187c3.246094 3.246094 7.558594 5.035156 12.148437 5.035156h15.042969c.078125 9.253907 2.28125 18.007813 6.144531 25.804688-26.472656 13.035156-55.75 20.375-85.421875 21.4375zm138.824219-3.214844c-8.113281 0-15.71875-2.1875-22.277344-5.988281l26.632813-26.632813c2.929687-2.929687 2.929687-7.679687 0-10.605468-2.929688-2.929688-7.679688-2.929688-10.605469 0l-27.601563 27.597656c-6.667968-7.789062-10.710937-17.894531-10.710937-28.929688 0-22.742187 17.132813-41.546874 39.164063-44.222656l-9.097657 9.097656c-2.925781 2.929688-2.925781 7.675782 0 10.605469 1.464844 1.464844 3.386719 2.195313 5.304688 2.195313s3.839843-.730469 5.304687-2.195313l17.800782-17.804687c17.773437 5.863281 30.644531 22.613281 30.644531 42.324218 0 24.570313-19.988281 44.558594-44.558594 44.558594zm0 0"/><path d="m452.777344 473.246094c-2.917969-2.941406-7.667969-2.953125-10.605469-.03125-2.9375 2.917968-2.953125 7.667968-.03125 10.605468l7.804687 7.847657c1.464844 1.476562 3.390626 2.210937 5.316407 2.210937 1.914062 0 3.824219-.726562 5.289062-2.179687 2.9375-2.921875 2.953125-7.667969.03125-10.605469zm0 0"/><path d="m475.5 452.125-10.683594-2.894531c-3.996094-1.085938-8.113281 1.277343-9.199218 5.277343-1.082032 3.996094 1.277343 8.113282 5.277343 9.199219l10.679688 2.894531c.65625.179688 1.316406.265626 1.96875.265626 3.300781 0 6.328125-2.199219 7.234375-5.542969 1.082031-3.996094-1.28125-8.117188-5.277344-9.199219zm0 0"/><path d="m432.554688 491.878906c-1.058594-4-5.164063-6.390625-9.167969-5.328125-4.003907 1.058594-6.390625 5.164063-5.332031 9.167969l2.832031 10.699219c.890625 3.363281 3.925781 5.582031 7.246093 5.582031.636719 0 1.28125-.082031 1.925782-.25 4.003906-1.0625 6.390625-5.167969 5.328125-9.171875zm0 0"/></svg>