<svg height="512pt" viewBox="-14 0 511 512" width="512pt" xmlns="http://www.w3.org/2000/svg"><path d="m223.214844 410.109375h37.542968v58.757813h-37.542968zm0 0" fill="#ffc850"/><path d="m223.214844 410.109375h25.59375v58.757813h-25.59375zm0 0" fill="#feb644"/><path d="m445.363281 44.953125h-61.105469v33.710937h53.476563c2.351563 0 4.257813 1.90625 4.257813 4.257813v118.972656c0 45.476563-28.199219 84.945313-66.296876 104.121094-7.554687 17.917969-19.738281 33.453125-35.027343 45.089844 74.765625-8.546875 135.03125-72.195313 135.03125-149.210938v-126.601562c.003906-16.757813-13.582031-30.339844-30.335938-30.339844zm0 0" fill="#feb644"/><path d="m457.734375 78.664062h-20c2.351563 0 4.257813 1.90625 4.257813 4.257813v118.972656c0 45.476563-28.199219 84.945313-66.292969 104.117188-7.558594 17.921875-19.738281 33.453125-35.03125 45.09375 9.144531-1.046875 18.066406-2.917969 26.691406-5.535157 9.460937-8.441406 17.46875-18.476562 23.578125-29.679687 3.453125-6.332031 8.558594-11.632813 14.671875-15.460937 32.972656-20.65625 56.382813-57.101563 56.382813-98.535157v-118.972656c0-2.351563-1.90625-4.257813-4.257813-4.257813zm0 0" fill="#f9972d"/><path d="m108.277344 306.011719c-38.09375-19.171875-66.292969-58.640625-66.292969-104.117188v-118.972656c0-2.351563 1.902344-4.257813 4.253906-4.257813h53.476563v-33.710937h-61.105469c-16.753906 0-30.335937 13.585937-30.335937 30.339844v126.601562c0 77.015625 60.265624 140.664063 135.03125 149.210938-15.289063-11.640625-27.472657-27.175781-35.027344-45.09375zm0 0" fill="#feb644"/><path d="m28.273438 201.894531v-126.601562c0-16.757813 13.585937-30.339844 30.339843-30.339844h-20.003906c-16.753906 0-30.335937 13.582031-30.335937 30.339844v126.601562c0 77.011719 60.265624 140.664063 135.03125 149.210938-2.304688-1.753907-4.53125-3.609375-6.6875-5.535157-61.910157-18.785156-108.34375-76.078124-108.34375-143.675781zm0 0" fill="#f9972d"/><path d="m332.269531 494.488281v-17.699219c0-5.480468-4.441406-9.921874-9.921875-9.921874h-160.722656c-5.476562 0-9.917969 4.441406-9.917969 9.921874v17.699219c0 5.480469 4.441407 9.921875 9.917969 9.921875h160.722656c5.480469 0 9.921875-4.441406 9.921875-9.921875zm0 0" fill="#feb644"/><path d="m290.792969 401.167969v-17.699219c0-5.480469-4.441407-9.925781-9.921875-9.925781h-77.769532c-5.480468 0-9.921874 4.445312-9.921874 9.925781v17.699219c0 5.476562 4.441406 9.921875 9.921874 9.921875h77.769532c5.480468-.003906 9.921875-4.445313 9.921875-9.921875zm0 0" fill="#feb644"/><path d="m97.714844 42.953125v222.644531c0 60.472656 49.476562 109.949219 109.945312 109.949219h68.652344c60.46875 0 109.945312-49.476563 109.945312-109.949219v-222.644531zm0 0" fill="#ffc850"/><path d="m127.714844 265.597656v-222.644531h-30v222.644531c0 60.472656 49.476562 109.949219 109.949218 109.949219h30c-60.472656-.003906-109.949218-49.476563-109.949218-109.949219zm0 0" fill="#feb644"/><path d="m397.792969 7.410156h-311.609375c-5.480469 0-9.921875 4.441406-9.921875 9.921875v17.699219c0 5.480469 4.441406 9.921875 9.921875 9.921875h311.609375c5.476562 0 9.917969-4.441406 9.917969-9.921875v-17.699219c0-5.480469-4.441407-9.921875-9.917969-9.921875zm0 0" fill="#feb644"/><path d="m275.703125 173.316406h-30.125c-2.277344 0-3.589844-2.59375-2.238281-4.429687l19.515625-26.527344c5.269531-7.160156 3.734375-17.230469-3.425781-22.496094-7.15625-5.265625-17.226563-3.734375-22.496094 3.425781l-41.621094 56.582032c-7.808594 10.613281-.199219 25.625 12.960938 25.625h30.121093c2.28125 0 3.589844 2.589844 2.242188 4.425781l-19.25 26.164063c-5.128907 6.976562-4.191407 16.917968 2.53125 22.378906 7.179687 5.832031 17.695312 4.429687 23.121093-2.941406l41.625-56.582032c7.804688-10.613281.199219-25.625-12.960937-25.625zm0 0" fill="#feb644"/><g fill="#f9972d"><path d="m225.3125 179.871094 39.324219-53.460938c-1.09375-2.519531-2.832031-4.800781-5.207031-6.550781-7.15625-5.261719-17.230469-3.730469-22.496094 3.429687l-41.625 56.582032c-7.804688 10.609375-.195313 25.621094 12.960937 25.621094h30.003907c-13.160157.003906-20.765626-15.007813-12.960938-25.621094zm0 0"/><path d="m251.390625 236.085938 19.246094-26.164063c1.351562-1.835937.039062-4.425781-2.238281-4.425781h-30.003907c2.28125 0 3.589844 2.589844 2.242188 4.425781l-19.25 26.164063c-5.128907 6.976562-4.191407 16.917968 2.53125 22.378906 7.179687 5.832031 17.695312 4.429687 23.121093-2.941406l2.328126-3.164063c-2.167969-5.199219-1.527344-11.445313 2.023437-16.273437zm0 0"/><path d="m322.347656 480.90625h-160.722656c-4.46875 0-8.246094-2.957031-9.488281-7.019531-.277344.917969-.433594 1.890625-.433594 2.902343v17.699219c0 5.476563 4.441406 9.921875 9.921875 9.921875h160.722656c5.476563 0 9.921875-4.445312 9.921875-9.921875v-17.699219c0-1.011718-.152343-1.984374-.433593-2.902343-1.242188 4.0625-5.019532 7.019531-9.488282 7.019531zm0 0"/><path d="m280.871094 387.585938h-77.769532c-4.46875 0-8.246093-2.957032-9.488281-7.019532-.277343.917969-.429687 1.890625-.429687 2.898438v17.699218c0 5.480469 4.441406 9.921876 9.917968 9.921876h77.769532c5.480468 0 9.921875-4.441407 9.921875-9.921876v-17.699218c0-1.007813-.152344-1.980469-.433594-2.898438-1.242187 4.0625-5.019531 7.019532-9.488281 7.019532zm0 0"/><path d="m397.792969 21.453125h-311.609375c-4.46875 0-8.246094-2.957031-9.488282-7.019531-.28125.917968-.433593 1.890625-.433593 2.898437v17.699219c0 5.480469 4.441406 9.921875 9.921875 9.921875h311.609375c5.476562 0 9.917969-4.441406 9.917969-9.921875v-17.699219c0-1.007812-.152344-1.980469-.429688-2.898437-1.242188 4.0625-5.019531 7.019531-9.488281 7.019531zm0 0"/></g><path d="m137.980469 358.371094c13.980469 10.273437 30.300781 17.53125 48.007812 20.804687-.363281 1.402344-.582031 2.867188-.582031 4.382813v17.699218c0 9.605469 7.816406 17.421876 17.425781 17.421876h12.609375v40.777343h-54.085937c-9.605469 0-17.421875 7.8125-17.421875 17.421875v17.699219c0 9.605469 7.8125 17.421875 17.421875 17.421875h62.855469c4.144531 0 7.503906-3.359375 7.503906-7.5 0-4.144531-3.359375-7.5-7.503906-7.5h-62.855469c-1.335938 0-2.421875-1.089844-2.421875-2.421875v-17.699219c0-1.335937 1.085937-2.421875 2.421875-2.421875h160.71875c1.335937 0 2.421875 1.085938 2.421875 2.421875v17.699219c0 1.335937-1.085938 2.421875-2.421875 2.421875h-62.859375c-4.140625 0-7.5 3.355469-7.5 7.5 0 4.140625 3.359375 7.5 7.5 7.5h62.859375c9.605469 0 17.421875-7.816406 17.421875-17.421875v-17.699219c0-9.605468-7.8125-17.421875-17.421875-17.421875h-54.089844v-40.777343h12.613281c9.605469 0 17.421875-7.816407 17.421875-17.421876v-17.699218c0-1.515625-.214843-2.980469-.578125-4.382813 17.707032-3.273437 34.027344-10.53125 48.007813-20.804687 78.125-10.050782 137.480469-76.949219 137.480469-156.386719v-36.898437c0-4.144532-3.355469-7.5-7.5-7.5-4.144532 0-7.5 3.355468-7.5 7.5v36.898437c0 63.964844-42.207032 118.894531-101.546876 136.667969 6.804688-8.1875 12.519532-17.3125 16.921876-27.148438 39.492187-21.015625 65.914062-62.46875 65.914062-109.519531v-123.230469c0-4.140625-3.355469-7.5-7.5-7.5h-48.230469v-18.710937h51.601563c12.59375 0 22.839844 10.246093 22.839844 22.839843v54.699219c0 4.140625 3.355468 7.5 7.5 7.5 4.144531 0 7.5-3.359375 7.5-7.5v-54.699219c0-20.867187-16.972657-37.839843-37.839844-37.839843h-30.335938c.109375-.792969.1875-1.597657.1875-2.421875v-17.699219c0-9.605469-7.816406-17.421875-17.421875-17.421875h-311.609375c-9.605468 0-17.421875 7.816406-17.421875 17.421875v17.699219c0 .824218.078125 1.628906.1875 2.421875h-30.335937c-20.863282 0-37.839844 16.972656-37.839844 37.839843v126.597657c0 79.339843 59.257812 146.328125 137.480469 156.390625zm-45.265625-69.289063c-27.21875-20.390625-43.503906-52.300781-43.503906-87.097656v-115.730469h40.730468v177.433594c0 8.71875.964844 17.214844 2.773438 25.394531zm160.269531 170.375h-22.539063v-40.777343h22.539063zm27.613281-78.320312c1.335938 0 2.421875 1.085937 2.421875 2.417969v17.699218c0 1.335938-1.085937 2.421875-2.421875 2.421875-15.019531 0-61.355468 0-77.765625 0-1.335937 0-2.421875-1.085937-2.421875-2.421875v-17.699218c0-1.332032 1.085938-2.417969 2.421875-2.417969zm153.621094-294.882813v115.730469c0 34.796875-16.285156 66.710937-43.503906 87.097656 1.8125-8.179687 2.773437-16.675781 2.773437-25.394531v-177.433594zm-55.730469 177.433594c0 56.042969-45.613281 102.445312-102.449219 102.445312h-68.648437c-56.980469 0-102.449219-46.644531-102.449219-102.445312 0-7.558594 0-203.375 0-211.144531h273.546875zm-295-228.566406v-17.699219c0-1.335937 1.085938-2.421875 2.421875-2.421875h311.609375c1.335938 0 2.421875 1.085938 2.421875 2.421875v17.699219c0 1.335937-1.085937 2.417968-2.417968 2.421875-5.726563 0-304.835938 0-311.617188 0-1.332031-.003907-2.417969-1.085938-2.417969-2.421875zm-67.988281 40.261718c0-12.59375 10.246094-22.839843 22.839844-22.839843h51.601562v18.710937h-48.230468c-4.144532 0-7.5 3.359375-7.5 7.5v123.230469c0 47.066406 26.4375 88.511719 65.914062 109.519531 4.402344 9.835938 10.117188 18.960938 16.925781 27.148438-59.339843-17.773438-101.550781-72.703125-101.550781-136.667969zm0 0"/><path d="m208 213.085938h20.789062l-13.984374 19.011718c-7.707032 10.480469-5.453126 25.273438 5.023437 32.980469 10.476563 7.710937 25.273437 5.457031 32.980469-5.019531l41.625-56.585938c11.433594-15.546875.300781-37.570312-19.003906-37.570312h-20.792969l13.988281-19.011719c7.726562-10.5 5.480469-25.253906-5.023438-32.980469-10.480468-7.707031-25.273437-5.453125-32.980468 5.023438l-41.625 56.582031c-11.4375 15.546875-.296875 37.570313 19.003906 37.570313zm-6.921875-28.679688 41.625-56.582031c2.808594-3.820313 8.195313-4.636719 12.011719-1.832031 3.824218 2.816406 4.640625 8.183593 1.828125 12.011718l-22.773438 30.957032c-3.628906 4.933593-.105469 11.945312 6.039063 11.945312h35.625c7.023437 0 11.085937 8.011719 6.917968 13.679688l-41.625 56.582031c-2.808593 3.816406-8.195312 4.636719-12.007812 1.832031-3.816406-2.808594-4.636719-8.195312-1.832031-12.011719l22.773437-30.957031c1.679688-2.277344 1.929688-5.308594.652344-7.832031-1.277344-2.523438-3.863281-4.113281-6.691406-4.113281h-35.621094c-7.023438 0-11.09375-8.007813-6.921875-13.679688zm0 0"/></svg>