<svg height="512pt" viewBox="-98 0 512 512" width="512pt" xmlns="http://www.w3.org/2000/svg"><path d="m55.632812 97.652344h205.367188v33.429687h-205.367188zm0 0" fill="#d8dce5"/><path d="m55.632812 97.652344h30.003907v33.429687h-30.003907zm0 0" fill="#c3c8d1"/><path d="m270.019531 71.964844v-48.054688c0-9.074218-7.421875-16.5-16.496093-16.5h-190.414063c-9.074219 0-16.496094 7.425782-16.496094 16.5v48.054688zm0 0" fill="#ffc850"/><path d="m93.113281 7.410156h-30.003906c-9.074219 0-16.496094 7.425782-16.496094 16.5v48.054688h30v-48.054688c0-9.074218 7.425781-16.5 16.5-16.5zm0 0" fill="#feb644"/><path d="m272.941406 69.964844h-229.25c-8.164062 0-14.78125 6.617187-14.78125 14.78125 0 8.160156 6.617188 14.777344 14.78125 14.777344h229.25c8.164063 0 14.78125-6.617188 14.78125-14.777344 0-8.164063-6.617187-14.78125-14.78125-14.78125zm0 0" fill="#feb644"/><path d="m272.941406 80.855469h-229.25c-4.621094 0-8.746094-2.125-11.457031-5.445313-2.074219 2.546875-3.324219 5.792969-3.324219 9.332032 0 8.164062 6.617188 14.78125 14.78125 14.78125h229.25c8.164063 0 14.78125-6.617188 14.78125-14.78125 0-3.539063-1.25-6.785157-3.324218-9.332032-2.710938 3.324219-6.835938 5.445313-11.457032 5.445313zm0 0" fill="#f9972d"/><path d="m261.945312 129.082031h-207.257812c-25.800781 0-46.914062 21.113281-46.914062 46.917969v281.492188c0 25.804687 21.113281 46.917968 46.914062 46.917968h207.257812c25.800782 0 46.914063-21.113281 46.914063-46.917968v-281.492188c0-25.804688-21.113281-46.917969-46.914063-46.917969zm0 0" fill="#e4eaf8"/><path d="m37.773438 457.492188v-281.492188c0-25.804688 21.113281-46.917969 46.917968-46.917969h-30.003906c-25.800781 0-46.914062 21.113281-46.914062 46.917969v281.492188c0 25.804687 21.113281 46.917968 46.914062 46.917968h30.003906c-25.804687 0-46.917968-21.113281-46.917968-46.917968zm0 0" fill="#d8dce5"/><path d="m241.066406 268.933594c-23.804687 0-41.101562-17.296875-41.101562-41.101563 0-4.691406.757812-9.199219 2.140625-13.425781h-138.910157c-6.804687 0-12.375 5.570312-12.375 12.375v179.929688c0 6.804687 5.570313 12.375 12.375 12.375h179.929688c6.804688 0 12.375-5.570313 12.375-12.375v-140.261719c-4.515625 1.605469-9.371094 2.484375-14.433594 2.484375zm0 0" fill="#00aaf0"/><path d="m80.824219 406.710938v-179.929688c0-6.804688 5.566406-12.375 12.375-12.375h-30.003907c-6.804687 0-12.375 5.570312-12.375 12.375v179.929688c0 6.804687 5.570313 12.375 12.375 12.375h30.003907c-6.808594 0-12.375-5.570313-12.375-12.375zm0 0" fill="#059adb"/><path d="m185.570312 301.277344h-29.65625c-1.902343 0-2.992187-2.160156-1.867187-3.691406l19.175781-26.066407c5.0625-6.878906 3.585938-16.5625-3.292968-21.625-6.878907-5.058593-16.5625-3.585937-21.625 3.292969l-40.011719 54.394531c-7.503907 10.199219-.191407 24.628907 12.457031 24.628907h29.65625c1.902344 0 2.996094 2.164062 1.871094 3.695312l-18.917969 25.710938c-4.929687 6.707031-4.027344 16.265624 2.433594 21.511718 6.902343 5.609375 17.011719 4.261719 22.226562-2.828125l40.011719-54.390625c7.503906-10.199218.191406-24.632812-12.460938-24.632812zm0 0" fill="#ffc850"/><path d="m163.359375 361.617188 18.917969-25.710938c1.125-1.53125.03125-3.695312-1.867188-3.695312h-29.65625c-12.652344 0-19.964844-14.429688-12.460937-24.628907l37.054687-50.371093c-.996094-2.832032-2.820312-5.402344-5.417968-7.316407-6.878907-5.058593-16.5625-3.585937-21.625 3.292969l-40.011719 54.394531c-7.503907 10.199219-.191407 24.628907 12.457031 24.628907h29.65625c1.902344 0 2.996094 2.164062 1.867188 3.695312l-18.914063 25.710938c-4.933594 6.707031-4.03125 16.265624 2.429687 21.511718 6.902344 5.609375 17.011719 4.261719 22.226563-2.828125l3.015625-4.097656c-1.589844-4.769531-.84375-10.265625 2.328125-14.585937zm0 0" fill="#feb644"/><path d="m270.519531 259.285156c.34375-.324218.6875-.640625 1.023438-.976562 16.832031-16.832032 16.832031-44.121094 0-60.953125-16.832031-16.835938-44.125-16.835938-60.957031 0-.332032.332031-.652344.679687-.972657 1.023437zm0 0" fill="#ffc850"/><path d="m240.589844 197.355469c4.535156-4.535157 9.832031-7.839844 15.476562-9.929688-15.304687-5.671875-33.179687-2.367187-45.480468 9.929688-.332032.332031-.652344.679687-.972657 1.023437l19.511719 19.515625c1.777344-7.527343 5.59375-14.671875 11.464844-20.539062zm0 0" fill="#feb644"/><path d="m210.585938 258.308594c16.835937 16.835937 44.125 16.832031 60.957031 0l-60.957031-60.953125c-16.832032 16.832031-16.832032 44.121093 0 60.953125zm0 0" fill="#feb644"/><path d="m240.589844 258.308594c-11.378906-11.375-15.054688-27.53125-11.050782-42.003906l-18.949218-18.949219c-16.835938 16.832031-16.835938 44.121093 0 60.953125 12.296875 12.296875 30.175781 15.601562 45.480468 9.925781-5.644531-2.085937-10.945312-5.386719-15.480468-9.925781zm0 0" fill="#f9972d"/><path d="m185.296875 293.867188h-19.410156l13.105469-17.8125c7.519531-10.222657 5.335937-24.585938-4.890626-32.109376-10.222656-7.523437-24.589843-5.335937-32.109374 4.890626l-40.015626 54.390624c-11.132812 15.132813-.289062 36.574219 18.5 36.574219h19.414063l-13.105469 17.816407c-7.523437 10.226562-5.335937 24.585937 4.890625 32.109374 10.195313 7.5 24.605469 5.3125 32.109375-4.890624l40.015625-54.390626c11.132813-15.136718.289063-36.578124-18.503906-36.578124zm6.417969 27.6875-40.011719 54.394531c-2.601563 3.539062-7.601563 4.296875-11.136719 1.695312-3.546875-2.609375-4.308594-7.589843-1.699218-11.136719l21.894531-29.757812c3.628906-4.933594.105469-11.945312-6.042969-11.945312h-34.242188c-6.511718 0-10.28125-7.429688-6.414062-12.6875l40.011719-54.390626c2.609375-3.550781 7.589843-4.304687 11.136719-1.699218 3.539062 2.605468 4.3125 7.582031 1.695312 11.140625l-21.890625 29.757812c-3.628906 4.933594-.105469 11.945313 6.042969 11.945313h34.238281c6.515625 0 10.285156 7.425781 6.417969 12.683594zm0 0"/><path d="m262.726562 406.800781v-133.257812c48.667969-23.441407 31.191407-96.222657-21.933593-96.222657-20.570313 0-38.148438 12.210938-46.089844 29.675782h-131.78125c-10.957031 0-19.871094 8.914062-19.871094 19.875v179.929687c0 10.957031 8.914063 19.875 19.871094 19.875h179.933594c10.957031 0 19.871093-8.917969 19.871093-19.875zm-51.847656-198.1875 49.222656 49.222657c-32.214843 20.796874-69.839843-17.386719-49.222656-49.222657zm59.824219 38.613281-49.21875-49.21875c5.703125-3.699218 12.351563-5.6875 19.308594-5.6875 28.125 0 45.175781 31.261719 29.910156 54.90625zm-212.652344 159.574219v-179.929687c0-2.640625 2.230469-4.875 4.871094-4.875h127.613281c-1.734375 14.933594 3.082032 30.3125 14.476563 41.707031 11.648437 11.648437 27.515625 16.4375 42.714843 14.347656v128.75c0 2.640625-2.230468 4.875-4.871093 4.875h-179.933594c-2.640625 0-4.871094-2.234375-4.871094-4.875zm0 0"/><path d="m175.546875 512h86.125c30.003906 0 54.414063-24.410156 54.414063-54.417969v-129.933593c0-4.144532-3.355469-7.503907-7.5-7.503907-4.140626 0-7.5 3.359375-7.5 7.503907v129.933593c0 21.734375-17.683594 39.417969-39.414063 39.417969h-86.125c-4.144531 0-7.5 3.355469-7.5 7.5 0 4.140625 3.355469 7.5 7.5 7.5zm0 0"/><path d="m54.417969 512h86.125c4.144531 0 7.5-3.359375 7.5-7.5 0-4.144531-3.355469-7.5-7.5-7.5h-86.125c-21.734375 0-39.417969-17.683594-39.417969-39.417969v-281.492187c0-21.734375 17.683594-39.417969 39.417969-39.417969h207.253906c21.730469 0 39.414063 17.683594 39.414063 39.417969v116.554687c0 4.140625 3.359374 7.5 7.5 7.5 4.144531 0 7.5-3.359375 7.5-7.5v-116.554687c0-27.785156-20.9375-50.757813-47.859376-54.007813v-14.96875h4.441407c12.285156 0 22.28125-9.992187 22.28125-22.277343 0-10.71875-7.605469-19.6875-17.699219-21.804688v-39.03125c0-13.234375-10.765625-24-24-24h-190.414062c-13.230469 0-23.996094 10.765625-23.996094 24v39.027344c-10.097656 2.117187-17.703125 11.089844-17.703125 21.808594 0 12.285156 9.996093 22.277343 22.28125 22.277343h4.441406v14.96875c-26.921875 3.246094-47.859375 26.222657-47.859375 54.003907v281.496093c0 30.007813 24.410156 54.417969 54.417969 54.417969zm-.578125-488c0-4.960938 4.035156-9 8.996094-9h190.414062c4.960938 0 8.996094 4.039062 8.996094 9v38.554688h-208.40625zm-17.699219 60.835938c0-4.015626 3.265625-7.28125 7.277344-7.28125h229.25c4.015625 0 7.28125 3.265624 7.28125 7.28125 0 4.011718-3.265625 7.277343-7.28125 7.277343-11.390625 0-220.367188 0-229.25 0-4.011719 0-7.277344-3.265625-7.277344-7.277343zm217.085937 22.277343v14.558594h-190.363281v-14.558594zm0 0"/></svg>