<svg height="512pt" viewBox="-54 0 512 512.00113" width="512pt" xmlns="http://www.w3.org/2000/svg"><path d="m132.722656 180.003906c38.003906 15.6875 80.136719 8.0625 102.9375.117188-2.070312-2.769532-4.253906-5.46875-6.574218-8.070313-16.523438-18.53125-26.921876-41.710937-29.785157-66.375l-6.570312-56.660156c-17.132813 0-100.917969 0-118.011719 0l-6.570312 56.660156c-2.828126 24.390625-13.046876 47.324219-29.253907 65.753907 21.027344-5.535157 52.089844-8.648438 93.828125 8.574218zm0 0" fill="#e4eaf8"/><path d="m132.722656 180.003906c38.003906 15.6875 80.136719 8.0625 102.9375.117188-2.070312-2.769532-4.253906-5.46875-6.574218-8.070313-16.523438-18.53125-26.921876-41.710937-29.785157-66.375l-6.570312-56.660156c-17.132813 0-100.917969 0-118.011719 0l-6.570312 56.660156c-2.828126 24.390625-13.046876 47.324219-29.253907 65.753907 21.027344-5.535157 52.089844-8.648438 93.828125 8.574218zm0 0" fill="#e4eaf8"/><path d="m72.550781 167.058594c13.699219-17.160156 22.921875-38.3125 25.597657-61.382813l6.574218-56.660156c-13.625 0-24.847656 0-30.003906 0l-6.570312 56.660156c-2.828126 24.390625-13.046876 47.324219-29.253907 65.753907 9.253907-2.4375 20.457031-4.402344 33.65625-4.371094zm0 0" fill="#d8dce5"/><path d="m120.617188 365.347656c0-75.851562 60.726562-137.507812 136.214843-139.023437-4.042969-18.304688-12.3125-35.519531-24.277343-50.199219-21.515626 7.757812-62.746094 15.644531-99.851563.332031-41.03125-16.933593-71.292969-13.34375-91.441406-7.785156-.945313 1.140625-1.910157 2.269531-2.898438 3.378906-19.703125 22.097657-30.589843 50.671875-30.589843 80.277344v225.980469c0 14.414062 11.683593 26.097656 26.097656 26.097656h199.707031c2.726563 0 5.355469-.417969 7.824219-1.195312-68.164063-8.949219-120.785156-67.257813-120.785156-137.863282zm0 0" fill="#ffc850"/><path d="m37.773438 478.308594v-225.984375c0-29.605469 10.890624-58.175781 30.589843-80.273438 2.28125-2.558593 4.445313-5.230469 6.507813-7.988281-13.308594-.007812-24.496094 2.09375-33.609375 4.605469-.945313 1.144531-1.910157 2.273437-2.898438 3.382812-19.703125 22.097657-30.589843 50.667969-30.589843 80.273438v225.984375c0 14.414062 11.683593 26.097656 26.097656 26.097656h30c-14.410156 0-26.097656-11.683594-26.097656-26.097656zm0 0" fill="#feb644"/><path d="m176.289062 476.640625h-168.515624v1.667969c0 14.414062 11.683593 26.097656 26.097656 26.097656h199.707031c2.726563 0 5.355469-.417969 7.824219-1.195312-24.21875-3.179688-46.480469-12.589844-65.113282-26.570313zm0 0" fill="#feb644"/><path d="m37.773438 478.308594v-1.671875h-30v1.671875c0 14.414062 11.683593 26.097656 26.097656 26.097656h30c-14.410156 0-26.097656-11.683594-26.097656-26.097656zm0 0" fill="#f9972d"/><path d="m91.058594 305.195312c0 7.359376-5.96875 13.328126-13.328125 13.328126-7.363281 0-13.328125-5.96875-13.328125-13.328126 0-7.359374 5.964844-13.328124 13.328125-13.328124 7.359375 0 13.328125 5.96875 13.328125 13.328124zm0 0" fill="#feb644"/><path d="m199.261719 7.410156h-131.074219c-6.601562 0-12 5.402344-12 12v18.605469c0 6.601563 5.398438 12 12 12h131.074219c6.597656 0 12-5.398437 12-12v-18.605469c0-6.597656-5.398438-12-12-12zm0 0" fill="#d8dce5"/><path d="m199.261719 23.515625h-131.074219c-5.214844 0-9.671875-3.378906-11.316406-8.054687-.4375 1.242187-.683594 2.566406-.683594 3.949218v18.605469c0 6.597656 5.398438 12 12 12h131.074219c6.597656 0 12-5.402344 12-12v-18.605469c0-1.382812-.25-2.707031-.6875-3.949218-1.640625 4.675781-6.097657 8.054687-11.3125 8.054687zm0 0" fill="#c3c8d1"/><path d="m398.734375 364.542969c0 77.242187-62.621094 139.863281-139.863281 139.863281-77.242188 0-139.859375-62.621094-139.859375-139.863281 0-77.242188 62.617187-139.859375 139.859375-139.859375 77.242187 0 139.863281 62.617187 139.863281 139.859375zm0 0" fill="#ffc850"/><path d="m149.011719 364.542969c0-72.175781 54.671875-131.574219 124.859375-139.058594-4.929688-.527344-9.929688-.800781-15-.800781-77.242188 0-139.859375 62.617187-139.859375 139.859375 0 77.242187 62.617187 139.863281 139.859375 139.863281 5.070312 0 10.070312-.277344 15-.804688-70.1875-7.484374-124.859375-66.882812-124.859375-139.058593zm0 0" fill="#feb644"/><path d="m367.222656 364.542969c0 59.839843-48.511718 108.351562-108.351562 108.351562s-108.347656-48.511719-108.347656-108.351562c0-59.839844 48.507812-108.347657 108.347656-108.347657s108.351562 48.507813 108.351562 108.347657zm0 0" fill="#ffc850"/><path d="m188.511719 364.542969c0-53.359375 38.574219-97.707031 89.355469-106.6875-6.167969-1.09375-12.515626-1.664063-18.996094-1.664063-59.839844 0-108.347656 48.511719-108.347656 108.351563 0 59.839843 48.507812 108.347656 108.347656 108.347656 6.480468 0 12.828125-.570313 18.996094-1.660156-50.78125-8.980469-89.355469-53.328125-89.355469-106.6875zm0 0" fill="#feb644"/><path d="m77.457031 284.457031c-11.484375 0-20.828125 9.34375-20.828125 20.828125s9.34375 20.828125 20.828125 20.828125 20.828125-9.34375 20.828125-20.828125-9.34375-20.828125-20.828125-20.828125zm0 26.65625c-3.214843 0-5.828125-2.613281-5.828125-5.828125s2.613282-5.828125 5.828125-5.828125c3.210938 0 5.828125 2.613281 5.828125 5.828125s-2.617187 5.828125-5.828125 5.828125zm0 0"/><path d="m106.925781 250.351562c-4.597656-.910156-8.960937 2.589844-8.960937 7.359376 0 4.171874 3.40625 7.503906 7.5 7.503906 4.019531 0 7.5-3.28125 7.5-7.503906 0-3.492188-2.425782-6.609376-6.039063-7.359376zm0 0"/><path d="m259.402344 250.207031c-63.507813 0-115.226563 51.6875-115.226563 115.230469 0 31.355469 12.726563 60.453125 33.75 81.480469 72.382813 72.382812 196.703125 20.640625 196.703125-81.480469 0-63.511719-51.691406-115.230469-115.226562-115.230469zm75.945312 180.566407-57.835937-57.835938h81.835937c-1.632812 22.003906-10.40625 42.054688-24 57.835938zm-175.894531-57.835938h81.839844l-57.832031 57.835938c-13.597657-15.78125-22.371094-35.832032-24.007813-57.835938zm24.007813-72.835938 57.832031 57.835938h-81.839844c1.636719-22.003906 10.410156-42.054688 24.007813-57.835938zm83.441406-34.613281c22.007812 1.636719 42.054687 10.410157 57.835937 24.003907l-57.835937 57.835937zm-15 81.839844-57.835938-57.832031c15.785156-13.597656 35.832032-22.371094 57.835938-24.007813zm0 36.21875v81.835937c-22.003906-1.636718-42.050782-10.40625-57.835938-24.003906zm15 0 57.835937 57.832031c-15.78125 13.597656-35.828125 22.371094-57.835937 24.003906zm10.609375-25.609375 57.835937-57.835938c13.59375 15.78125 22.367188 35.832032 24 57.835938zm0 0"/><path d="m398.300781 355.378906c4.109375-.515625 7.023438-4.265625 6.507813-8.378906-9.046875-72.042969-69.980469-126.605469-142.386719-128.085938-5.3125-19.554687-15.136719-37.328124-28.007813-51.765624-15.578124-17.472657-25.238281-38.996094-27.933593-62.246094l-5.613281-48.390625c9.875-.949219 17.621093-9.289063 17.621093-19.40625v-17.605469c0-10.75-8.746093-19.5-19.5-19.5h-131.074219c-10.75 0-19.5 8.75-19.5 19.5v17.605469c0 10.117187 7.75 18.457031 17.625 19.40625l-5.613281 48.390625c-2.746093 23.671875-12.917969 45.5625-27.933593 62.246094-20.917969 23.460937-32.492188 53.777343-32.492188 85.265624v224.316407c0 21.871093 16.210938 35.265625 33.597656 35.265625h199.707032c2.835937 0 5.640624-.375 8.371093-1.074219 80.367188 9.738281 153.148438-47.539063 163.132813-127.046875.515625-4.109375-2.398438-7.859375-6.507813-8.378906-4.101562-.519532-7.859375 2.398437-8.375 6.507812-8.230469 65.558594-64.34375 114.992188-130.523437 114.992188-72.828125 0-131.558594-59.351563-131.558594-131.558594 0-69.984375 56.011719-128.25 125.542969-131.414062h.011719c68.65625-3.125 128.035156 47.238281 136.527343 114.847656.515625 4.109375 4.261719 7.015625 8.375 6.507812zm-334.886719-318.273437v-17.605469c0-2.4375 2.0625-4.5 4.5-4.5h131.074219c2.4375 0 4.5 2.0625 4.5 4.5v17.605469c0 2.441406-2.0625 4.5-4.5 4.5-4.417969 0-126.527343 0-131.074219 0-2.4375 0-4.5-2.058594-4.5-4.5zm17.714844 19.5h104.644532l5.804687 50.023437c2.816406 24.285156 12.355469 46.898438 27.652344 65.792969-13.878907 3.726563-37.375 7.949219-62.546875 3.386719-4.074219-.738282-7.980469 1.964844-8.71875 6.042968-.738282 4.074219 1.964844 7.976563 6.042968 8.71875 32.289063 5.855469 61.980469-1.289062 75.609376-5.554687 7.644531 10.308594 13.558593 22.003906 17.347656 34.390625-124.210938 10.402344-179.050782 162.058594-90.933594 249.824219h-141.03125v-216.816407c0-23.773437 7.460938-46.769531 21.191406-65.914062 4.082032-5.6875 7.054688-8.820312 9.011719-11.101562 23.429687-5.996094 47.257813-4.765626 72.765625 3.753906 3.925781 1.3125 8.175781-.808594 9.488281-4.738282 1.3125-3.925781-.808593-8.175781-4.738281-9.488281-22.433594-7.492187-43.777344-9.871093-64.746094-7.199219 17.382813-28.941406 17.175782-49.5625 23.15625-101.121093zm-47.53125 440.390625c-7.9375 0-15.113281-5.125-17.644531-12.765625h157.601563c6.714843 4.855469 13.820312 9.125 21.226562 12.765625zm0 0"/></svg>