<svg height="512pt" viewBox="0 -6 512.00035 512" width="512pt" xmlns="http://www.w3.org/2000/svg"><path d="m210.421875 250.351562h-41.332031v-121.5625h41.332031zm0 0" fill="#5fbf32"/><path d="m208.421875 128.804688h102.582031c33.542969 0 60.734375 27.214843 60.734375 60.78125 0 33.570312-27.191406 60.78125-60.734375 60.78125h-102.582031zm0 0" fill="#00c3ff"/><path d="m68.507812 128.789062h102.582032v121.558594h-102.582032c-33.542968 0-60.734374-27.210937-60.734374-60.777344 0-33.570312 27.191406-60.78125 60.734374-60.78125zm0 0" fill="#6fd844"/><path d="m210.421875 493.207031h-41.332031v-121.578125h41.332031zm0 0" fill="#5fbf32"/><path d="m169.089844 463.199219h41.332031v30.007812h-41.332031zm0 0" fill="#54af25"/><path d="m208.421875 371.632812h102.582031c33.542969 0 60.734375 27.214844 60.734375 60.785157 0 33.574219-27.191406 60.789062-60.734375 60.789062h-102.582031zm0 0" fill="#00c3ff"/><path d="m311.003906 463.199219h-102.582031v30.007812h102.582031c33.542969 0 60.734375-27.214843 60.734375-60.789062 0-5.175781-.652343-10.203125-1.867187-15.003907-6.679688 26.316407-30.5 45.785157-58.867188 45.785157zm0 0" fill="#00aaf0"/><path d="m68.507812 371.632812h102.582032v121.574219h-102.582032c-33.542968 0-60.734374-27.214843-60.734374-60.789062 0-33.570313 27.191406-60.785157 60.734374-60.785157zm0 0" fill="#6fd844"/><path d="m9.640625 417.414062c-1.214844 4.800782-1.867187 9.828126-1.867187 15.003907 0 33.574219 27.191406 60.789062 60.734374 60.789062h102.582032v-30.007812h-102.582032c-28.367187 0-52.191406-19.46875-58.867187-45.785157zm0 0" fill="#5fbf32"/><path d="m169.089844 220.359375h41.332031v30.007813h-41.332031zm0 0" fill="#54af25"/><path d="m311.003906 220.359375h-102.582031v30.007813h102.582031c33.542969 0 60.734375-27.21875 60.734375-60.789063 0-5.179687-.652343-10.207031-1.867187-15.003906-6.679688 26.316406-30.5 45.785156-58.867188 45.785156zm0 0" fill="#00aaf0"/><path d="m9.640625 174.574219c-1.214844 4.796875-1.867187 9.824219-1.867187 15.003906 0 33.570313 27.191406 60.789063 60.734374 60.789063h102.582032v-30.007813h-102.582032c-28.367187 0-52.191406-19.46875-58.867187-45.785156zm0 0" fill="#5fbf32"/><path d="m169.089844 7.410156h41.332031v121.46875h-41.332031zm0 0" fill="#00aaf0"/><path d="m171.089844 7.410156h-102.582032c-33.542968 0-60.734374 27.191406-60.734374 60.738282 0 33.539062 27.191406 60.730468 60.734374 60.730468h102.582032zm0 0" fill="#00c3ff"/><path d="m311.003906 7.410156h-102.582031v121.46875h102.582031c33.542969 0 60.734375-27.191406 60.734375-60.730468 0-33.542969-27.191406-60.738282-60.734375-60.738282zm0 0" fill="#6fd844"/><path d="m169.089844 250.269531h41.332031v121.46875h-41.332031zm0 0" fill="#00aaf0"/><path d="m169.089844 341.839844v29.898437h41.332031v-29.898437zm0 0" fill="#059adb"/><path d="m171.089844 250.269531h-102.582032c-33.542968 0-60.734374 27.191407-60.734374 60.734375 0 33.542969 27.191406 60.734375 60.734374 60.734375h102.582032zm0 0" fill="#00c3ff"/><path d="m9.632812 296.054688c-1.210937 4.785156-1.859374 9.792968-1.859374 14.949218 0 33.542969 27.191406 60.734375 60.734374 60.734375h102.582032v-29.898437h-102.582032c-28.382812 0-52.214843-19.472656-58.875-45.785156zm0 0" fill="#00aaf0"/><path d="m311.003906 250.269531h-102.582031v121.46875h102.582031c33.542969 0 60.734375-27.191406 60.734375-60.734375 0-33.542968-27.191406-60.734375-60.734375-60.734375zm0 0" fill="#6fd844"/><path d="m311.003906 341.839844h-102.582031v29.898437h102.582031c33.542969 0 60.734375-27.1875 60.734375-60.730469 0-5.160156-.648437-10.167968-1.859375-14.953124-6.664062 26.3125-30.492187 45.785156-58.875 45.785156zm0 0" fill="#5fbf32"/><path d="m169.089844 98.980469v29.898437h41.332031v-29.898437zm0 0" fill="#059adb"/><path d="m9.632812 53.195312c-1.210937 4.785157-1.859374 9.792969-1.859374 14.953126 0 33.539062 27.191406 60.730468 60.734374 60.730468h102.582032v-29.898437h-102.582032c-28.382812 0-52.214843-19.472657-58.875-45.785157zm0 0" fill="#00aaf0"/><path d="m311.003906 98.980469h-102.582031v29.898437h102.582031c33.542969 0 60.734375-27.191406 60.734375-60.730468 0-5.160157-.648437-10.167969-1.859375-14.953126-6.664062 26.3125-30.492187 45.785157-58.875 45.785157zm0 0" fill="#5fbf32"/><path d="m300.816406 382.59375c1.929688-23.28125 11.796875-46.019531 29.570313-63.792969 7.90625-7.90625 16.792969-14.21875 26.257812-18.992187-38.328125-19.332032-86.277343-13.015625-118.285156 18.992187-.226563.226563-.441406.453125-.660156.679688zm0 0" fill="#ffc850"/><path d="m268.542969 318.371094c16.25-16.25 36.585937-25.921875 57.699219-29.019532-31.058594-4.554687-63.800782 5.117188-87.707032 29.019532-.332031.332031-.65625.675781-.984375 1.011718l16.761719 16.761719c3.992188-6.304687 8.730469-12.277343 14.230469-17.773437zm0 0" fill="#feb644"/><path d="m330.386719 463.351562c-22.132813-22.132812-32.300781-52.265624-29.476563-81.996093l-62.550781-62.554688c-39.917969 39.917969-39.917969 104.632813 0 144.550781 32.007813 32.007813 79.957031 38.320313 118.285156 18.992188-9.785156-4.933594-18.78125-11.515625-26.257812-18.992188zm0 0" fill="#feb644"/><path d="m473.488281 464.765625c.339844-.328125.679688-.652344 1.011719-.988281 40.15625-40.152344 40.15625-105.253906 0-145.40625-40.152344-40.152344-105.253906-40.152344-145.40625 0-.335938.332031-.65625.675781-.988281 1.011718zm0 0" fill="#f97a7a"/><path d="m359.101562 318.371094c16.25-16.25 36.585938-25.921875 57.699219-29.019532-31.058593-4.554687-63.804687 5.117188-87.707031 29.019532-.335938.332031-.65625.675781-.988281 1.011718l16.761719 16.761719c3.996093-6.304687 8.734374-12.277343 14.234374-17.773437zm0 0" fill="#f25c5c"/><path d="m329.09375 318.371094c-40.152344 40.152344-40.152344 105.253906 0 145.40625 40.152344 40.15625 105.253906 40.15625 145.40625 0zm0 0" fill="#f25c5c"/><path d="m359.101562 463.777344c-35.019531-35.019532-39.480468-88.992188-13.449218-128.851563l-16.558594-16.554687c-40.152344 40.152344-40.152344 105.253906 0 145.40625 23.90625 23.90625 56.65625 33.578125 87.714844 29.019531-21.117188-3.097656-41.453125-12.765625-57.707032-29.019531zm0 0" fill="#d83f3f"/><path d="m268.542969 463.777344c-35.019531-35.019532-39.480469-88.992188-13.449219-128.851563l-16.558594-16.554687c-40.152344 40.152344-40.152344 105.253906 0 145.40625 23.90625 23.90625 56.65625 33.578125 87.71875 29.019531-21.117187-3.097656-41.457031-12.765625-57.710937-29.019531zm0 0" fill="#f9972d"/><path d="m373.835938 285.257812c-6.246094-15.1875-17.757813-27.40625-31.988282-34.738281 16.066406-8.183593 28.578125-22.628906 34.144532-40.863281 1.210937-3.964844-1.019532-8.15625-4.980469-9.367188-3.96875-1.210937-8.15625 1.023438-9.367188 4.984376-6.878906 22.527343-27.339843 37.664062-50.914062 37.664062h-95.078125v-106.464844h95.078125c23.414062 0 44.402343 15.671875 51.039062 38.109375 1.175781 3.972657 5.351563 6.242188 9.320313 5.066407 3.976562-1.175782 6.242187-5.347657 5.066406-9.320313-5.390625-18.230469-18.171875-32.964844-34.449219-41.324219 22.09375-11.304687 37.257813-34.292968 37.257813-60.765625 0-37.628906-30.609375-68.238281-68.234375-68.238281-7.253907 0-227.695313 0-242.496094 0-37.625 0-68.234375 30.609375-68.234375 68.238281 0 26.449219 15.136719 49.414063 37.191406 60.730469-49.554687 25.4375-49.476562 96.078125 0 121.46875-49.554687 25.4375-49.472656 96.078125 0 121.46875-22.054687 11.320312-37.191406 34.285156-37.191406 60.734375 0 37.625 30.609375 68.238281 68.238281 68.238281h239.019531c16.890626.472656 33.660157-2.976562 49.082032-10.105468 8.609375 3.976562 17.75 6.84375 27.265625 8.488281 4.085937.707031 7.964843-2.03125 8.671875-6.113281.703125-4.082032-2.03125-7.964844-6.113282-8.667969-71.542968-12.375-103.734374-98.617188-55.820312-154.75l133.5 133.5c-12.902344 11.035156-28.398438 18.339843-45.230469 21.25-4.082031.707031-6.816406 4.585937-6.113281 8.667969.707031 4.078124 4.578125 6.824218 8.671875 6.117187 86.753906-15.003906 121.632813-122.839844 58.792969-185.675781-28.699219-28.703125-69.476563-38.148438-106.128906-28.332032zm-78.191407 80.582032-46.71875-46.71875c25.453125-21.734375 60.023438-28.085938 90.785157-18.015625-22.070313 15.375-37.847657 38.386719-44.066407 64.734375zm44.074219 115.382812c-44.875 14.691406-93.082031-6.230468-113.828125-47.257812-17.207031-34.011719-12.367187-75.21875 12.425781-104.234375l54.574219 54.574219c-2.460937 39.433593 16.050781 75.433593 46.828125 96.917968zm-139.070312-238.285156h-22.328126v-106.464844h22.328126zm-22.328126 15.003906h22.328126v106.464844h-22.328126zm181.300782 32.183594c-.558594.238281-2.242188.976562-3.246094 1.4375-51.808594-24.011719-112.496094-3.972656-140.722656 44.167969v-77.789063h95.078125c21.363281 0 40.589843 12.941406 48.890625 32.183594zm4.339844-221.886719c0 29.351563-23.878907 53.230469-53.230469 53.230469h-95.078125v-106.464844h95.078125c29.351562 0 53.230469 23.878906 53.230469 53.234375zm-163.3125 53.230469h-22.328126v-106.464844h22.328126zm-185.644532-53.230469c0-29.355469 23.878906-53.234375 53.234375-53.234375h95.078125v106.464844h-95.078125c-29.355469 0-53.234375-23.878906-53.234375-53.230469zm0 121.46875c0-29.355469 23.878906-53.234375 53.234375-53.234375h95.078125v106.464844h-95.078125c-29.355469 0-53.234375-23.878906-53.234375-53.230469zm0 121.464844c0-29.351563 23.878906-53.230469 53.234375-53.230469h95.078125v106.464844h-95.078125c-29.355469 0-53.234375-23.878906-53.234375-53.234375zm0 121.46875c0-29.351563 23.878906-53.230469 53.234375-53.230469h95.078125v106.464844h-95.078125c-29.355469 0-53.234375-23.878906-53.234375-53.234375zm163.316406-53.230469h22.328126v106.464844h-22.328126zm37.332032 106.464844v-39.3125c9.585937 16.394531 23.25 29.90625 39.28125 39.3125zm258.800781-33.253906-133.5-133.5c61.492187-52.457032 156.144531-8.273438 156.144531 72.046875 0 22.777343-7.992187 44.328125-22.644531 61.453125zm0 0"/></svg>