<svg height="512pt" viewBox="0 -33 512.00024 512" width="512pt" xmlns="http://www.w3.org/2000/svg"><path d="m444.746094 65.113281-79.039063-51.996093c1.628907 2.257812 2.601563 5.023437 2.601563 8.023437v24.042969l62.382812 40.753906c5.753906 3.886719 13.558594 2.363281 17.4375-3.382812 3.882813-5.75 2.367188-13.558594-3.382812-17.441407zm0 0" fill="#e4eaf8"/><path d="m88.417969 21.136719c0-2.332031.585937-4.527344 1.613281-6.453125l-76.71875 50.429687c-5.75 3.878907-7.265625 11.691407-3.382812 17.4375 3.878906 5.75 11.683593 7.269531 17.4375 3.386719l61.050781-39.855469zm0 0" fill="#d8dce5"/><path d="m367.847656 13.304688-29.050781 55.535156c-2.25 4.296875-6.699219 6.992187-11.546875 6.992187-8.679688 0-189.09375 0-197.773438 0-4.847656 0-9.296874-2.695312-11.546874-6.992187l-29.050782-55.535156c-1.546875 2.222656-2.460937 4.917968-2.460937 7.832031v403.722656c0 7.578125 6.144531 13.726563 13.726562 13.726563h256.4375c7.582031 0 13.730469-6.148438 13.730469-13.726563 0-7.773437 0-402.257813 0-403.722656 0-2.910157-.917969-5.609375-2.464844-7.832031zm0 0" fill="#ffc850"/><path d="m116.417969 424.859375v-358.910156l-27.539063-52.644531c-1.546875 2.222656-2.460937 4.917968-2.460937 7.832031v403.722656c0 7.578125 6.144531 13.726563 13.726562 13.726563h30c-7.582031 0-13.726562-6.144532-13.726562-13.726563zm0 0" fill="#feb644"/><path d="m356.582031 7.410156c-11.261719 0-245.195312 0-256.4375 0-5.25 0-9.804687 2.949219-12.117187 7.273438l29.902344 57.15625c2.25 4.296875 6.699218 6.992187 11.546874 6.992187h197.769532c4.851562 0 9.300781-2.691406 11.550781-6.992187l29.898437-57.15625c-2.308593-4.324219-6.863281-7.273438-12.113281-7.273438zm0 0" fill="#e4eaf8"/><path d="m147.933594 71.839844-26.242188-50.160156c-3.324218-6.359376 1.121094-14.1875 8.296875-14.269532h.15625c-16.550781 0-27.75 0-30 0-5.246093 0-9.804687 2.945313-12.113281 7.273438l29.898438 57.15625c2.25 4.296875 6.699218 6.992187 11.546874 6.992187h30.003907c-4.851563 0-9.300781-2.695312-11.546875-6.992187zm0 0" fill="#d8dce5"/><path d="m370.3125 389v-98.917969c-5.90625-3.710937-278.011719-174.769531-283.894531-178.46875v98.917969c5.554687 3.492188 282.082031 177.328125 283.894531 178.46875zm0 0" fill="#feb644"/><path d="m116.417969 130.472656c-17.523438-11.015625-28.851563-18.136718-30-18.859375v98.917969c1.082031.679688 12.421875 7.808594 30 18.859375zm0 0" fill="#f9972d"/><path d="m492.710938 240.039062h-159.195313v58.277344c0-18.925781 15.414063-34.269531 34.425781-34.269531h124.429688c6.492187 0 12.078125-4.96875 12.386718-11.421875.324219-6.894531-5.195312-12.585938-12.046874-12.585938zm0 0" fill="#00aaf0"/><path d="m363.515625 240.039062h-30v58.277344c0-17.429687 13.078125-31.8125 30-33.976562zm0 0" fill="#059adb"/><path d="m194.71875 241.792969h122.066406l-33.988281-33.984375c-14.875-14.878906-39.214844-14.878906-54.09375 0zm0 0" fill="#ad7b64"/><path d="m270.753906 199.695312c-13.941406-5.902343-30.730468-3.203124-42.050781 8.113282l-33.984375 33.984375h30.003906l33.984375-33.984375c3.558594-3.558594 7.664063-6.257813 12.046875-8.113282zm0 0" fill="#9e6b57"/><path d="m334.300781 240.039062h-165.859375c-6.371094 0-11.890625 4.820313-12.316406 11.179688-.464844 7.011719 5.085938 12.839844 12 12.828125 6.671875-.011719 11.96875 5.65625 11.96875 12.324219v46.4375c0 35.226562 28.558594 63.785156 63.785156 63.785156h26.636719c35.226563 0 63.785156-28.558594 63.785156-63.785156zm0 0" fill="#00c3ff"/><path d="m210.097656 322.808594v-46.4375c0-6.667969-5.300781-12.335938-11.96875-12.324219-6.914062.011719-12.46875-5.816406-12-12.828125.421875-6.359375 5.945313-11.179688 12.316406-11.179688h-30.003906c-6.371094 0-11.890625 4.820313-12.316406 11.179688-.464844 7.011719 5.085938 12.839844 12 12.828125 6.671875-.011719 11.96875 5.65625 11.96875 12.324219v46.4375c0 35.226562 28.558594 63.785156 63.785156 63.785156h26.636719c.5625 0 1.121094-.027344 1.683594-.042969-34.449219-.894531-62.101563-29.078125-62.101563-63.742187zm0 0" fill="#00aaf0"/><path d="m31.292969 92.242188 47.351562-31.960938v364.664062c0 11.707032 9.523438 21.230469 21.226563 21.230469h256.441406c11.703125 0 21.226562-9.523437 21.226562-21.230469 0-7.136718 0-146.003906 0-153.308593h114.617188c10.625 0 19.328125-8.15625 19.820312-18.570313.535157-11.398437-8.609374-20.441406-19.480468-20.441406h-114.957032v-67.109375c0-4.144531-3.355468-7.5-7.5-7.5-4.144531 0-7.5 3.355469-7.5 7.5v67.109375c-15.964843 0-28.808593 0-45.289062 0-18.277344-18.273438-11.671875-11.671875-30.46875-30.46875-14.265625-14.265625-36.425781-16.976562-53.648438-6.910156l-139.488281-87.6875c0-7.089844 0-58.441406 0-65.351563l17.367188 33.199219c3.554687 6.792969 10.523437 11.015625 18.195312 11.015625h81.382813c4.144531 0 7.5-3.355469 7.5-7.5s-3.355469-7.5-7.5-7.5h-81.382813c-2.066406 0-3.945312-1.136719-4.902343-2.96875l-27.527344-52.621094c.964844-.554687 2.066406-.832031 3.09375-.832031h256.441406c1.023438 0 2.125.273438 3.09375.832031l-27.527344 52.621094c-.957031 1.832031-2.835937 2.96875-4.902344 2.96875h-81.382812c-4.144531 0-7.5 3.355469-7.5 7.5 0 4.140625 3.355469 7.5 7.5 7.5h81.382812c7.667969 0 14.640626-4.222656 18.191407-11.015625l17.371093-33.203125v88.3125c0 4.140625 3.355469 7.5 7.5 7.5 4.144532 0 7.5-3.359375 7.5-7.5v-71.128906l48.683594 32.859375c9.214844 6.21875 21.660156 3.769531 27.851563-5.40625 6.207031-9.191406 3.789062-21.648438-5.402344-27.851563l-76.03125-51.316406c-4.027344-4.863281-10.066406-7.671875-16.332031-7.671875h-256.4375c-6.882813 0-13.492188 3.371094-17.511719 9.25-.046875.074219-.097656.144531-.144531.214844l-73.371094 49.523437c-9.191406 6.199219-11.609375 18.660157-5.40625 27.851563 6.207031 9.195312 18.660156 11.609375 27.855469 5.402344zm408.988281-20.820313c2.308594 1.558594 2.929688 4.699219 1.359375 7.023437-1.539063 2.28125-4.667969 2.957032-7.023437 1.363282l-57.078126-38.523438v-12.210937zm-83.972656 359.753906h-256.4375c-3.433594 0-6.226563-2.792969-6.226563-6.226562v-200.753907l56.160157 35.304688c3.136718 7.683594 10.453124 12.136719 18.027343 12.136719h.042969c2.503906 0 4.449219 2.300781 4.449219 4.824219v46.4375c0 39.296874 31.96875 71.285156 71.285156 71.285156h26.632813c21.628906 0 41.027343-9.695313 54.109374-24.957032l38.1875 24.003907v31.71875c0 3.433593-2.792968 6.226562-6.230468 6.226562zm6.230468-158.910156v4.332031l-4.574218-2.875c1.613281-.675781 2.949218-1.097656 4.574218-1.457031zm0 103.25-29.632812-18.628906c5.691406-10.453125 8.621094-22.167969 8.621094-33.988281v-24.492188c0-4.960938 1.351562-9.976562 4.34375-14.566406l16.667968 10.476562zm129.953126-127.886719c2.578124 0 4.621093 2.148438 4.5 4.730469-.109376 2.355469-2.28125 4.273437-4.835938 4.273437h-122.117188c-11.085937 0-20.015624 2.589844-28.511718 9.730469v-18.734375zm-165.964844 50.777344v24.492188c0 30.949218-25.160156 56.28125-56.285156 56.28125h-26.632813c-31.035156 0-56.285156-25.246094-56.285156-56.28125v-46.4375c0-10.726563-8.570313-19.824219-19.445313-19.824219-.015625 0-.027344 0-.046875 0-2.636719 0-4.667969-2.234375-4.492187-4.828125.152344-2.304688 2.320312-4.179688 4.832031-4.179688h158.359375v50.777344zm-50.355469-85.640625 19.859375 19.863281h-81.105469l19.859375-19.863281c.011719-.007813.023438-.019531.035156-.03125 11.4375-11.378906 30.011719-11.304687 41.351563.03125zm-55.171875-7.425781-27.289062 27.289062h-25.542969c-7.222657 0-13.773438 3.902344-17.246094 9.851563l-57.277344-36.003907v-81.199218zm-203.765625-133.917969 61.410156-41.449219v12.214844l-55.746093 37.621094c-2.34375 1.585937-5.476563.933594-7.027344-1.363282-1.5625-2.316406-.953125-5.460937 1.363281-7.023437zm0 0"/></svg>