<svg height="512pt" viewBox="-105 0 512 512" width="512pt" xmlns="http://www.w3.org/2000/svg"><path d="m113.234375 169.929688c-.289063-2.160157-.457031-4.347657-.457031-6.558594v-92.347656c-.722656.105468-1.457032.175781-2.210938.175781h-55.300781c-.75 0-1.488281-.070313-2.210937-.175781v92.347656c0 2.210937-.164063 4.398437-.457032 6.558594zm0 0" fill="#e4eaf8"/><path d="m83.054688 71.199219h-27.789063c-.75 0-1.488281-.070313-2.210937-.175781v92.347656c0 2.210937-.164063 4.398437-.457032 6.558594h30c.292969-2.160157.460938-4.347657.460938-6.558594v-92.171875zm0 0" fill="#d8dce5"/><path d="m98.546875 7.410156h-31.261719c-4.433594 0-8.023437 3.59375-8.023437 8.023438v30.347656h47.308593v-30.347656c0-4.429688-3.59375-8.023438-8.023437-8.023438zm0 0" fill="#9e6b57"/><path d="m90.941406 7.410156h-23.65625c-4.429687 0-8.023437 3.59375-8.023437 8.023438v30.347656h23.65625v-30.347656c0-4.429688 3.589843-8.023438 8.023437-8.023438zm0 0" fill="#875848"/><path d="m35.113281 201.335938-9.398437 7.722656c-11.359375 9.335937-17.941406 23.261718-17.941406 37.964844v235.277343c0 12.210938 9.902343 22.109375 22.113281 22.109375h101.59375c-7.804688 0-14.1875-6.386718-14.1875-14.1875v-201c0-6.996094 5.136719-12.835937 11.824219-13.972656v-37.257812c0-7.804688 6.382812-14.191407 14.1875-14.191407h8.914062c-2.996094-5.589843-7.078125-10.613281-12.101562-14.738281l-9.398438-7.726562c-10.640625-8.746094-17.089844-21.523438-17.863281-35.1875h-59.878907c-.773437 13.664062-7.222656 26.441406-17.863281 35.1875zm0 0" fill="#ffc850"/><path d="m37.773438 482.300781v-235.277343c0-14.703126 6.585937-28.628907 17.941406-37.964844l9.402344-7.722656c10.640624-8.746094 17.089843-21.523438 17.859374-35.191407h-30c-.773437 13.667969-7.222656 26.445313-17.863281 35.191407l-9.398437 7.722656c-11.359375 9.335937-17.941406 23.261718-17.941406 37.964844v235.277343c0 12.210938 9.898437 22.109375 22.109374 22.109375h30.003907c-12.210938 0-22.113281-9.898437-22.113281-22.109375zm0 0" fill="#feb644"/><path d="m130.164062 278.035156h150.175782c.8125 0 1.605468.085938 2.386718.214844v-40.257812c0-7.804688-6.4375-14.191407-14.304687-14.191407h-126.339844c-7.867187 0-14.304687 6.386719-14.304687 14.191407v40.257812c.78125-.128906 1.574218-.214844 2.386718-.214844zm0 0" fill="#e4eaf8"/><path d="m157.78125 237.988281c0-7.800781 6.4375-14.1875 14.300781-14.1875h-30c-7.867187 0-14.304687 6.386719-14.304687 14.1875v40.261719c.777344-.128906 1.570312-.214844 2.386718-.214844h27.617188zm0 0" fill="#d8dce5"/><path d="m294.644531 333.492188v-44.269532c0-7.800781-6.4375-14.1875-14.304687-14.1875h-150.175782c-7.867187 0-14.304687 6.386719-14.304687 14.1875v44.269532zm0 0" fill="#00c3ff"/><path d="m160.164062 275.035156h-30c-7.867187 0-14.304687 6.386719-14.304687 14.1875v44.269532h30.003906v-44.269532c0-7.800781 6.433594-14.1875 14.300781-14.1875zm0 0" fill="#00aaf0"/><path d="m115.859375 445.953125v44.269531c0 7.800782 6.4375 14.1875 14.304687 14.1875h150.175782c7.867187 0 14.304687-6.386718 14.304687-14.1875v-44.269531zm0 0" fill="#00c3ff"/><path d="m145.863281 490.222656v-44.269531h-30.003906v44.269531c0 7.800782 6.4375 14.1875 14.304687 14.1875h30c-7.867187 0-14.300781-6.386718-14.300781-14.1875zm0 0" fill="#00aaf0"/><path d="m115.859375 331.492188h178.785156v116.460937h-178.785156zm0 0" fill="#00aaf0"/><path d="m115.859375 331.492188h30.003906v116.460937h-30.003906zm0 0" fill="#059adb"/><path d="m110.566406 42.78125h-55.300781c-8.640625 0-15.710937 7.070312-15.710937 15.710938 0 8.640624 7.070312 15.707031 15.710937 15.707031h55.300781c8.640625 0 15.710938-7.066407 15.710938-15.707031 0-8.640626-7.070313-15.710938-15.710938-15.710938zm0 0" fill="#d8dce5"/><path d="m110.566406 55.449219h-55.300781c-5.128906 0-9.691406-2.503907-12.5625-6.335938-1.964844 2.625-3.148437 5.867188-3.148437 9.378907 0 8.640624 7.070312 15.707031 15.710937 15.707031h55.300781c8.640625 0 15.710938-7.066407 15.710938-15.707031 0-3.511719-1.183594-6.753907-3.148438-9.378907-2.871094 3.832031-7.433594 6.335938-12.5625 6.335938zm0 0" fill="#c3c8d1"/><path d="m290.046875 270.007812v-31.929687c0-11.957031-9.730469-21.6875-21.6875-21.6875h-112.148437c-3.171876-4.917969-7.054688-9.296875-11.605469-13.039063-9.460938-7.773437-24.601563-17.632812-24.601563-39.890624v-83.808594c7.960938-3.683594 13.5-11.738282 13.5-21.074219 0-11.605469-8.566406-21.25-19.707031-22.945313v-20.109374c0-8.5625-6.960937-15.523438-15.523437-15.523438h-31.261719c-8.5625 0-15.523438 6.964844-15.523438 15.523438v20.109374c-11.140625 1.695313-19.703125 11.339844-19.703125 22.945313 0 9.332031 5.535156 17.390625 13.496094 21.074219v83.8125c0 22.347656-15.164062 32.132812-24.601562 39.890625-13.140626 10.796875-20.679688 26.746093-20.679688 43.757812v235.277344c0 16.328125 13.285156 29.609375 29.609375 29.609375h32.613281c4.140625 0 7.5-3.355469 7.5-7.5s-3.359375-7.5-7.5-7.5h-32.613281c-8.054687 0-14.609375-6.554688-14.609375-14.609375v-235.277344c0-12.503906 5.542969-24.230469 15.203125-32.167969 9.273437-7.621093 24.753906-17.597656 29.136719-41.207031h46.605468c4.800782 25.785157 22.730469 34.875 31.566407 43.363281-9.566407 2.546876-16.167969 11.1875-16.167969 20.976563v31.925781c-7.019531 3.570313-11.824219 10.925782-11.824219 19.3125v200.996094c0 2.347656.40625 4.695312 1.054688 6.6875h-13.347657c-4.144531 0-7.503906 3.355469-7.503906 7.5s3.359375 7.5 7.503906 7.5h182.957032c11.957031 0 21.6875-9.730469 21.6875-21.6875v-87.710938c0-4.144531-3.355469-7.5-7.5-7.5-4.144532 0-7.5 3.355469-7.5 7.5v37.941407h-162.351563v-101.460938h162.351563v28.515625c0 4.144532 3.355468 7.503906 7.5 7.503906 4.144531 0 7.5-3.359374 7.5-7.503906v-78.28125c0-8.410156-4.8125-15.710937-11.824219-19.308594zm-185.042969-111.273437h-44.722656v-76.945313h44.722656zm-38.515625-143.210937c0-.289063.234375-.523438.523438-.523438h31.261719c.289062 0 .523437.234375.523437.523438v19.847656h-32.308594zm-11.492187 34.847656h55.296875c4.527343 0 8.210937 3.683594 8.210937 8.207031 0 4.085937-3.003906 7.472656-6.917968 8.097656-.050782.007813-.101563.007813-.152344.015625-.222656.03125-.421875.054688-.605469.070313-.179687.011719-.355469.027343-.535156.027343h-55.300781c-.175782 0-.351563-.015624-.527344-.027343-.1875-.015625-.390625-.039063-.625-.074219-.050782-.007812-.105469-.007812-.15625-.011719-3.90625-.628906-6.902344-4.015625-6.902344-8.09375.003906-4.527343 3.6875-8.210937 8.214844-8.210937zm220.050781 187.707031v29.546875h-138.703125v-29.546875c0-3.6875 3-6.6875 6.6875-6.6875h125.328125c3.6875 0 6.6875 3 6.6875 6.6875zm11.824219 217.464844v34.769531c0 3.6875-3 6.6875-6.6875 6.6875h-148.976563c-3.6875 0-6.6875-3-6.6875-6.6875v-34.769531zm-162.347656-131.460938v-34.765625c0-3.636718 3.0625-6.691406 6.683593-6.691406h148.976563c3.625 0 6.6875 2.945312 6.6875 6.691406v34.765625zm0 0"/></svg>