<svg height="496pt" viewBox="0 0 496 496" width="496pt" xmlns="http://www.w3.org/2000/svg"><path d="m262.398438 411.199219c6.082031 8.082031 15.523437 12.800781 25.601562 12.800781h168v-224h32v240c0 8.800781-7.199219 16-16 16h-192c0 8.800781-3.601562 16.800781-9.359375 22.640625-5.839844 5.757813-13.839844 9.359375-22.640625 9.359375s-16.800781-3.601562-22.640625-9.359375c-5.757813-5.839844-9.359375-13.839844-9.359375-22.640625h-192c-8.800781 0-16-7.199219-16-16v-240h32v224h168c10.078125 0 19.519531-4.71875 25.601562-12.800781l14.398438-19.199219zm0 0" fill="#b4dd7f"/><path d="m296 136c-26.480469 0-48 21.519531-48 48v208l14.398438 19.199219c6.082031 8.082031 15.523437 12.800781 25.601562 12.800781h168v-288zm0 0" fill="#e6e9ed"/><path d="m424 168v112h-144v-112zm0 0" fill="#fcd770"/><path d="m376 224-48 24v-48zm0 0" fill="#ff826e"/><path d="m200 136h-64v80l-32 48-32-48v-80h-32v288h168c10.078125 0 19.519531-4.71875 25.601562-12.800781l14.398438-19.199219v-208c0-26.480469-21.519531-48-48-48zm0 0" fill="#e6e9ed"/><path d="m136 216-32 48-32-48zm0 0" fill="#838f9b"/><path d="m136 136v80h-32v-176h32zm0 0" fill="#ffc729"/><path d="m104 40v176h-32v-176zm0 0" fill="#fcd770"/><path d="m136 24v16h-64v-16c0-8.800781 7.199219-16 16-16h32c8.800781 0 16 7.199219 16 16zm0 0" fill="#969faa"/><path d="m464 192v-64h-168c-20.34375 0-38.191406 10.902344-48 27.175781-9.808594-16.273437-27.65625-27.175781-48-27.175781h-56v-104c0-13.230469-10.769531-24-24-24h-32c-13.230469 0-24 10.769531-24 24v104h-32v64h-32v248c0 13.230469 10.769531 24 24 24h184.808594c3.71875 18.230469 19.871094 32 39.191406 32s35.480469-13.769531 39.191406-32h184.808594c13.230469 0 24-10.769531 24-24v-248zm-208-8c0-22.054688 17.945312-40 40-40h152v272h-160c-7.511719 0-14.6875-3.585938-19.199219-9.59375l-12.800781-17.070312zm-176 24v-160h16v160zm41.054688 16-17.054688 25.574219-17.054688-25.574219zm6.945312-16h-16v-160h16zm-40-192h32c4.414062 0 8 3.585938 8 8v8h-48v-8c0-4.414062 3.585938-8 8-8zm-40 128h16v74.425781l40 60 40-60v-74.425781h56c22.054688 0 40 17.945312 40 40v205.335938l-12.800781 17.0625c-4.511719 6.015624-11.6875 9.601562-19.199219 9.601562h-160zm432 296c0 4.414062-3.585938 8-8 8h-200v8c0 13.230469-10.769531 24-24 24s-24-10.769531-24-24v-8h-200c-4.414062 0-8-3.585938-8-8v-232h16v224h176c12.511719 0 24.488281-5.976562 32-16l8-10.664062 8 10.671874c7.511719 10.015626 19.488281 15.992188 32 15.992188h176v-224h16zm0 0"/><path d="m432 160h-160v128h160zm-16 112h-128v-96h128zm0 0"/><path d="m320 187.054688v73.890624l73.886719-36.945312zm16 25.890624 22.113281 11.054688-22.113281 11.054688zm0 0"/><path d="m272 304h160v16h-160zm0 0"/><path d="m272 336h128v16h-128zm0 0"/><path d="m416 336h16v16h-16zm0 0"/><path d="m64 288h160v16h-160zm0 0"/><path d="m64 320h160v16h-160zm0 0"/><path d="m208 352h16v16h-16zm0 0"/><path d="m64 352h128v16h-128zm0 0"/><path d="m160 256h64v16h-64zm0 0"/><path d="m160 224h64v16h-64zm0 0"/><path d="m160 192h64v16h-64zm0 0"/><path d="m160 160h64v16h-64zm0 0"/></svg>