<svg height="496pt" viewBox="-64 0 496 496" width="496pt" xmlns="http://www.w3.org/2000/svg"><path d="m344 402.558594v85.441406h-64v-141.359375l31.199219 10.398437c19.601562 6.5625 32.800781 24.882813 32.800781 45.519532zm0 0" fill="#969faa"/><path d="m200 378v110h-32v-110l16-10zm0 0" fill="#69d6f4"/><path d="m88 346.640625v141.359375h-64v-85.441406c0-20.636719 13.199219-38.957032 32.800781-45.519532zm0 0" fill="#969faa"/><path d="m280 346.640625v141.359375h-32v-152zm0 0" fill="#fcd770"/><path d="m120 408v80h-32v-141.359375l32-10.640625zm0 0" fill="#fcd770"/><path d="m248 408v80h-48v-110zm0 0" fill="#e6e9ed"/><path d="m168 378v110h-48v-80zm0 0" fill="#e6e9ed"/><path d="m248 336v72l-64-40 40-40zm0 0" fill="#ccd1d9"/><path d="m184 368-64 40v-72l24-8zm0 0" fill="#ccd1d9"/><path d="m359.921875 215.039062c.078125.640626.078125 1.28125.078125 1.921876 0 8.320312-6.71875 15.039062-15.039062 15.039062h-1.921876c-8.320312 0-15.039062-6.71875-15.039062-15.039062 0-.640626 0-1.28125.078125-1.921876l6.960937-55.117187c.5625-4.480469 4.402344-7.921875 8.960938-7.921875s8.398438 3.441406 8.960938 7.921875zm0 0" fill="#fcd770"/><path d="m360 16v32c0 4.398438-3.601562 8-8 8h-336c-4.398438 0-8-3.601562-8-8v-32c0-4.398438 3.601562-8 8-8h336c4.398438 0 8 3.601562 8 8zm0 0" fill="#aab2bd"/><path d="m312 56v64s-7.441406 2.480469-21.441406 5.519531c-21.4375 4.640625-58.160156 10.480469-106.558594 10.480469s-85.121094-5.839844-106.558594-10.480469c-14-3.039062-21.441406-5.519531-21.441406-5.519531v-64zm0 0" fill="#838f9b"/><path d="m296 160v48c0-8.800781-3.601562-16.800781-9.359375-22.640625-5.839844-5.757813-13.839844-9.359375-22.640625-9.359375v-24l-5.039062 3.039062c-23.121094 13.839844-48.480469 23.679688-74.960938 28.960938l.878906-1.679688c4.640625-9.441406 7.121094-19.761718 7.121094-30.320312-26.160156 15.679688-56.160156 24-86.640625 24h-1.359375c-17.679688 0-32 14.320312-32 32v-48c0-12 1.921875-23.601562 5.441406-34.480469 21.4375 4.640625 58.160156 10.480469 106.558594 10.480469s85.121094-5.839844 106.558594-10.480469c3.519531 10.878907 5.441406 22.480469 5.441406 34.480469zm0 0" fill="#b27946"/><g fill="#f0d0b4"><path d="m224 301.28125v26.71875l-40 40-40-40v-26.71875c11.761719 6.796875 25.441406 10.71875 40 10.71875s28.238281-3.921875 40-10.71875zm0 0"/><path d="m296 208c0 17.679688-14.320312 32-32 32h-.398438c.238282-2.640625.398438-5.28125.398438-8v-56c8.800781 0 16.800781 3.601562 22.640625 9.359375 5.757813 5.839844 9.359375 13.839844 9.359375 22.640625zm0 0"/><path d="m184 184c26.480469-5.28125 51.839844-15.121094 74.960938-28.960938l5.039062-3.039062v80c0 2.71875-.160156 5.359375-.398438 8-2.640624 26.238281-17.839843 48.71875-39.601562 61.28125-11.761719 6.796875-25.441406 10.71875-40 10.71875s-28.238281-3.921875-40-10.71875c-6.078125-3.519531-11.601562-7.761719-16.558594-12.722656-12.722656-12.71875-21.203125-29.679688-23.042968-48.558594-.238282-2.640625-.398438-5.28125-.398438-8v-56h1.359375c30.480469 0 60.480469-8.320312 86.640625-24 0 10.558594-2.480469 20.878906-7.121094 30.320312zm0 0"/><path d="m104 176v56c0 2.71875.160156 5.359375.398438 8h-.398438c-8.800781 0-16.800781-3.601562-22.640625-9.359375-5.757813-5.839844-9.359375-13.839844-9.359375-22.640625 0-17.679688 14.320312-32 32-32zm0 0"/></g><path d="m152 200c0 4.417969-3.582031 8-8 8s-8-3.582031-8-8 3.582031-8 8-8 8 3.582031 8 8zm0 0"/><path d="m232 200c0 4.417969-3.582031 8-8 8s-8-3.582031-8-8 3.582031-8 8-8 8 3.582031 8 8zm0 0"/><path d="m168 248h-16c0 17.648438 14.351562 32 32 32s32-14.351562 32-32h-16c0 8.824219-7.175781 16-16 16s-16-7.175781-16-16zm0 0"/><path d="m368 48v-32c0-8.824219-7.175781-16-16-16h-336c-8.824219 0-16 7.175781-16 16v32c0 8.824219 7.175781 16 16 16h32v61.769531l5.472656 1.824219c.597656.199219 5.4375 1.765625 13.976563 3.855469-2.28125 9.292969-3.449219 18.863281-3.449219 28.550781v48c0 19.703125 14.351562 36.023438 33.425781 39.304688 4.292969 24.367187 18.605469 45.296874 38.574219 58.351562v16.574219l-81.710938 27.234375c-22.898437 7.640625-38.289062 28.992187-38.289062 53.136718v93.398438h336v-93.398438c0-24.144531-15.390625-45.496093-38.289062-53.128906l-81.710938-27.242187v-16.574219c19.960938-13.046875 34.265625-33.96875 38.574219-58.328125 18.921875-3.152344 33.425781-19.527344 33.425781-39.328125v-48c0-9.6875-1.167969-19.246094-3.449219-28.558594 8.539063-2.082031 13.378907-3.65625 13.976563-3.855468l5.472656-1.816407v-61.769531h16v82.0625c-4.742188 2.546875-8.214844 7.226562-8.929688 12.882812l-6.886718 55.125c-.121094.953126-.183594 1.90625-.183594 2.867188 0 12.71875 10.34375 23.0625 23.0625 23.0625h1.875c12.71875 0 23.0625-10.34375 23.0625-23.0625 0-.960938-.0625-1.914062-.175781-2.859375l-6.886719-55.140625c-.714844-5.648438-4.183594-10.328125-8.929688-12.875v-82.0625c8.816407 0 15.992188-7.175781 15.992188-16zm-23.0625 176h-1.875c-3.894531 0-7.0625-3.167969-7.0625-7.0625 0-.289062.015625-.578125.054688-.875l6.890624-55.125c.070313-.539062.527344-.9375 1.054688-.9375s.984375.398438 1.054688.929688l6.890624 55.140624c.039063.289063.054688.578126.054688.867188 0 3.894531-3.167969 7.0625-7.0625 7.0625zm-328.9375-208h336v32h-336zm168 128c2.015625 0 3.929688-.046875 5.902344-.070312l-2.015625 1.207031c-23.023438 13.816406-49.125 21.605469-75.878907 22.71875v-15.855469h-16v16.808594c-5.945312 1.214844-11.328124 3.855468-16 7.390625v-16.199219c0-8.535156 1.054688-16.960938 3.089844-25.144531 22.390625 4.390625 56.742188 9.144531 100.902344 9.144531zm-104 64c0-10.414062 6.710938-19.214844 16-22.527344v45.046875c-9.289062-3.304687-16-12.105469-16-22.519531zm61.839844 129.152344 29.390625 29.390625-43.230469 27.023437v-51.796875zm114.160156 9.945312 16 5.335938v127.566406h-16zm-16 132.902344h-32v-87.566406l32 20zm-48-97.566406v97.566406h-16v-97.566406l8-5zm-80 97.566406h-16v-127.566406l16-5.335938zm16-67.558594 32-20v87.558594h-32zm-96-9.839844c0-17.25 10.992188-32.496093 27.351562-37.953124l20.648438-6.878907v122.230469h-48zm304 0v77.398438h-48v-122.230469l20.648438 6.878907c16.359374 5.457031 27.351562 20.703124 27.351562 37.953124zm-96-60.832031v51.796875l-43.230469-27.015625 29.390625-29.390625zm-24-17.082031-32 32-32-32v-10.800781c9.9375 3.898437 20.703125 6.113281 32 6.113281s22.0625-2.214844 32-6.113281zm40-92.6875c0 39.695312-32.296875 72-72 72s-72-32.304688-72-72v-48.128906c24.398438-.917969 48.320312-6.894532 70.238281-17.511719-1.0625 4.273437-2.582031 8.433594-4.550781 12.367187l-8.160156 16.320313 16.039062-3.207031c24.761719-4.953125 48.417969-13.648438 70.433594-25.871094zm16-1.472656v-45.046875c9.289062 3.3125 16 12.113281 16 22.527343 0 10.417969-6.710938 19.207032-16 22.519532zm16-70.527344v16.207031c-4.671875-3.535156-10.054688-6.183593-16-7.390625v-30.9375l-17.144531 10.28125c-18.101563 10.863282-37.480469 19.097656-57.757813 24.558594 1.917969-6.734375 2.902344-13.726562 2.902344-20.71875v-8.222656c36.511719-.96875 65.304688-5.074219 84.910156-8.921875 2.035156 8.183593 3.089844 16.609375 3.089844 25.144531zm16-46c-14.585938 3.984375-57.527344 14-120 14s-105.414062-10.015625-120-14v-50h240zm0 0"/></svg>