<svg height="512pt" viewBox="0 -116 512 512" width="512pt" xmlns="http://www.w3.org/2000/svg"><path d="m502 64.988281v-34.988281c0-11.050781-8.960938-20-20-20h-452c-11.050781 0-20 8.949219-20 20v34.988281c41.421875 0 75 33.582031 75 75 0 41.421875-33.578125 75-75 75v35.011719c0 11.050781 8.949219 20 20 20h452c11.039062 0 20-8.949219 20-20v-35.011719c-41.421875 0-75-33.578125-75-75 0-41.417969 33.578125-75 75-75zm-246 115.011719c-22.089844 0-40-17.910156-40-40s17.910156-40 40-40 40 17.910156 40 40-17.910156 40-40 40zm0 0" fill="#61d89d"/><g fill="#26b56a"><path d="m85 139.988281c0 41.421875-33.578125 75-75 75v-150c41.421875 0 75 33.582031 75 75zm0 0"/><path d="m502 64.988281v150c-41.421875 0-75-33.578125-75-75 0-41.417969 33.578125-75 75-75zm0 0"/><path d="m296 140c0 22.089844-17.910156 40-40 40s-40-17.910156-40-40 17.910156-40 40-40 40 17.910156 40 40zm0 0"/></g><path d="m482 0h-452c-16.539062 0-30 13.460938-30 30v220c0 16.539062 13.460938 30 30 30h452c16.539062 0 30-13.460938 30-30v-220c0-16.539062-13.460938-30-30-30zm-462 75.761719c71.300781 11.023437 71.78125 117.359375 0 128.457031zm116 184.238281h-106c-5.511719 0-10-4.488281-10-10v-25.589844c40.046875-5.328125 72.019531-37.929687 74.796875-78.609375 3.042969-44.640625-30.359375-84.832031-74.796875-90.222656v-25.578125c0-5.511719 4.488281-10 10-10h106zm110 0h-90v-240h90v71.011719c-51.910156 10.5625-51.921875 87.414062 0 97.976562zm-20-120c0-38.675781 60-38.652344 60 0 0 38.636719-60 38.710938-60 0zm130 120h-90v-71.011719c51.910156-10.5625 51.921875-87.414062 0-97.976562v-71.011719h90zm136-10c0 5.511719-4.488281 10-10 10h-106v-240h106c5.511719 0 10 4.488281 10 10v25.578125c-69.824219 8.46875-99.753906 97.007813-48.703125 145.816406 13.089844 12.519531 30.578125 21.199219 48.703125 23.015625zm0-45.78125c-71.273438-10.867188-71.363281-117.578125 0-128.457031zm0 0"/><path d="m256.019531 150c-5.523437 0-10.003906-4.476562-10.003906-10s4.472656-10 9.992187-10h.011719c5.523438 0 10 4.476562 10 10s-4.476562 10-10 10zm0 0"/></svg>