<svg height="512pt" viewBox="-32 0 512 512" width="512pt" xmlns="http://www.w3.org/2000/svg"><path d="m49.957031 502h-39.957031v-432.023438c0-10.988281 8.988281-19.976562 19.976562-19.976562 10.988282 0 19.980469 8.988281 19.980469 19.976562zm0 0" fill="#757679"/><path d="m49.957031 30c0-11.046875-8.945312-20-19.980469-20-11.03125 0-19.976562 8.953125-19.976562 20s8.945312 20 19.976562 20c11.035157 0 19.980469-8.953125 19.980469-20zm0 0" fill="#757679"/><path d="m437.984375 280.160156v-220l.015625.003906c-179.804688.039063-179.820312 39.957032-359.625 39.996094v220l.023438.082032c179.804687-.039063 179.796874-40.039063 359.601562-40.078126-179.804688.039063-179.796875 40.039063-359.601562 40.078126" fill="#ffea77"/><path d="m59.960938 30c0-16.539062-13.449219-30-29.980469-30s-29.980469 13.460938-29.980469 30c0 7.679688 2.898438 14.691406 7.660156 20-4.769531 5.308594-7.660156 12.320312-7.660156 19.980469v432.019531c0 5.519531 4.480469 10 10 10h39.960938c5.519531 0 10-4.480469 10-10v-432.019531c0-7.660157-2.890626-14.671875-7.660157-19.980469 4.757813-5.308594 7.660157-12.320312 7.660157-20zm-29.980469-10c5.5 0 9.980469 4.488281 9.980469 10s-4.480469 10-9.980469 10-9.980469-4.488281-9.980469-10 4.480469-10 9.980469-10zm9.980469 472h-19.960938v-422.019531c0-5.5 4.480469-9.980469 9.980469-9.980469s9.980469 4.480469 9.980469 9.980469zm0 0"/><path d="m78.398438 330.242188c-.007813 0-.019532 0-.027344 0-.007813 0-.011719 0-.023438 0-2.546875-.011719-4.871094-.980469-6.632812-2.558594-.515625-.464844-.984375-.984375-1.398438-1.550782-.839844-1.148437-1.4375-2.484374-1.726562-3.929687-.136719-.675781-.214844-1.378906-.214844-2.042969v-220c0-5.523437 4.476562-10 9.996094-10 88.808594-.019531 131.960937-9.609375 177.648437-19.761718 44.691407-9.929688 90.90625-20.199219 181.761719-20.238282.472656-.007812.960938.015625 1.441406.078125 5.167969.644531 8.96875 5.140625 8.761719 10.320313v219.039062c.011719.1875.015625.375.015625.5625 0 5.523438-4.476562 10-9.996094 10-88.804687.023438-131.949218 9.628906-177.632812 19.800782-44.722656 9.960937-90.96875 20.261718-181.972656 20.28125zm9.976562-220.125v200.082031c82.121094-.710938 123.71875-9.972657 167.652344-19.757813 43.050781-9.585937 87.515625-19.488281 171.957031-20.230468v-200.003907c-82.105469.710938-123.691406 9.953125-167.628906 19.71875-43.058594 9.566407-87.53125 19.449219-171.980469 20.191407zm0 0"/><path d="m254.753906 249.5c-5.523437 0-10.003906-4.476562-10.003906-10s4.472656-10 9.992188-10h.011718c5.523438 0 10 4.476562 10 10s-4.476562 10-10 10zm0 0"/><path d="m318.148438 219.441406-19.796876 9.910156c-1.152343.609376-2.402343.96875-3.660156 1.097657-.332031.03125-.660156.050781-.992187.050781-.429688 0-.859375-.03125-1.289063-.078125-2.359375-.3125-4.628906-1.453125-6.300781-3.402344-.007813-.007812-.007813-.007812-.007813-.019531l-30.113281-35.160156-30.667969 35.230468c-1.679687 1.929688-3.941406 3.058594-6.300781 3.351563-.410156.046875-.828125.078125-1.25.078125-.339843 0-.679687-.019531-1.019531-.050781-1.25-.128907-2.488281-.5-3.640625-1.097657l-21.789063-10.910156c-4.941406-2.472656-6.941406-8.480468-4.460937-13.421875 2.46875-4.941406 8.46875-6.941406 13.421875-4.460937l15.039062 7.53125 27.519532-31.609375-16.679688-19.480469c-1.609375-1.878906-2.398437-4.191406-2.398437-6.488281 0-2.820313 1.179687-5.632813 3.488281-7.613281 4.199219-3.589844 10.511719-3.097657 14.101562 1.101562l14.757813 17.230469 15.0625-17.300781c3.617187-4.160157 9.9375-4.601563 14.097656-.96875 2.269531 1.96875 3.441407 4.75 3.441407 7.539062 0 2.328125-.8125 4.671875-2.460938 6.570312l-16.988281 19.519532 26.949219 31.46875 12.988281-6.5c4.929687-2.480469 10.941406-.480469 13.410156 4.460937 2.46875 4.941407.480469 10.949219-4.460937 13.421875zm0 0"/></svg>