<svg height="511pt" viewBox="0 -55 511.99998 511" width="511pt" xmlns="http://www.w3.org/2000/svg"><path d="m416.117188 390.5h-320.234376c-53.9375 0-94.523437-45.84375-84.339843-95.265625l25.671875-124.535156c4.859375-23.582031 26.972656-40.625 52.710937-40.625h332.152344c25.734375 0 47.851563 17.042969 52.710937 40.625l25.667969 124.535156c10.1875 49.421875-30.402343 95.265625-84.339843 95.265625zm0 0" fill="#49b7e8"/><path d="m396.019531 302.023438h-280.039062c-11 0-20-9-20-20v-60.164063c0-11.046875 8.953125-20 20-20h280.039062c11 0 20 9 20 20v60.164063c0 11-9 20-20 20zm0 0" fill="#595959"/><path d="m510.25 293.21875-25.664062-124.539062c-5.808594-28.160157-32.09375-48.609376-62.507813-48.609376h-27.582031c-9.992188-67.558593-68.289063-119.570312-138.496094-119.570312s-128.503906 52.011719-138.496094 119.570312h-27.582031c-30.414063 0-56.699219 20.449219-62.507813 48.609376l-25.664062 124.539062c-5.210938 25.292969 1.339844 51.519531 17.992188 71.941406 18.300781 22.460938 46.054687 35.339844 76.140624 35.339844h320.234376c30.085937 0 57.839843-12.878906 76.140624-35.339844 16.652344-20.421875 23.203126-46.648437 17.992188-71.941406zm-254.25-272.71875c59.15625 0 108.441406 43.089844 118.234375 99.570312h-236.46875c9.792969-56.480468 59.078125-99.570312 118.234375-99.570312zm220.746094 332.03125c-14.480469 17.777344-36.585938 27.96875-60.628906 27.96875h-320.234376c-24.042968 0-46.148437-10.191406-60.628906-27.96875-13.03125-15.980469-17.972656-35.609375-13.910156-55.28125l25.660156-124.53125c3.902344-18.917969 21.953125-32.648438 42.917969-32.648438h26.0625v20.679688c0 5.519531 4.480469 10 10 10s10-4.480469 10-10v-20.039062c0-.210938 0-.429688.011719-.640626h240.007812c.011719.210938.011719.429688.011719.640626v20.039062c0 5.519531 4.476563 10 10 10 5.519531 0 10-4.480469 10-10v-20.679688h26.0625c20.960937 0 39.015625 13.730469 42.914063 32.648438l25.664062 124.53125c4.0625 19.671875-.878906 39.300781-13.910156 55.28125zm0 0"/><path d="m396.015625 191.859375h-280.03125c-16.542969 0-30.003906 13.460937-30.003906 30v60.160156c0 16.539063 13.460937 30 30.003906 30h280.03125c16.542969 0 30.003906-13.460937 30.003906-30v-60.160156c0-16.539063-13.460937-30-30.003906-30zm10.003906 90.160156c0 5.519531-4.492187 10-10.003906 10h-280.03125c-5.511719 0-10.003906-4.480469-10.003906-10v-30.578125h235.597656c5.523437 0 10.003906-4.480468 10.003906-10 0-5.53125-4.480469-10-10.003906-10h-235.597656v-9.582031c0-5.519531 4.492187-10 10.003906-10h280.03125c5.511719 0 10 4.480469 10 10v60.160156zm0 0"/><path d="m376.597656 251.433594c-5.523437 0-10.003906-4.476563-10.003906-10 0-5.523438 4.472656-10 9.996094-10h.007812c5.523438 0 10.003906 4.476562 10.003906 10 0 5.523437-4.480468 10-10.003906 10zm0 0"/></svg>