<svg height="512pt" viewBox="-50 0 512 512" width="512pt" xmlns="http://www.w3.org/2000/svg"><path d="m360.832031 133.632812-24.660156 25.714844c-2.101563-1.878906-4.234375-3.691406-6.394531-5.460937-10.285156-8.390625-21.214844-15.589844-32.621094-21.582031l31.1875-32.507813zm0 0" fill="#ffea77"/><path d="m358.058594 182.191406c-8.390625-10.292968-17.992188-19.871094-28.28125-28.300781-10.277344-8.390625-21.21875-15.589844-32.617188-21.589844-28.460937-14.949219-59.800781-22.429687-91.160156-22.429687-43.921875 0-87.832031 14.667968-123.78125 44.019531-5.101562 4.167969-10.050781 8.640625-14.808594 13.398437-4.792968 4.789063-9.273437 9.761719-13.472656 14.902344-62.519531 76.699219-58.320312 189.667969 12.601562 261.5.289063.289063.578126.589844.871094.886719 8.976563 8.980469 18.617188 16.910156 28.757813 23.792969 66.109375 44.839844 153.53125 44.839844 219.652343.007812 10.136719-6.878906 19.777344-14.808594 28.769532-23.800781.296875-.296875.589844-.589844.867187-.878906 70.921875-71.828125 73.367188-187.699219 12.601563-261.507813-4.214844-5.121094 0 0 0 0zm-48.820313 227.019532c-57.007812 57.027343-149.460937 57.027343-206.480469 0-56.898437-56.921876-57.019531-149.121094-.347656-206.191407.109375-.121093.226563-.238281.347656-.359375.441407-.449218.890626-.890625 1.339844-1.332031 56.671875-55.257813 147.132813-55.257813 203.800782 0 .449218.441406.898437.882813 1.339843 1.332031.121094.121094.242188.238282.351563.359375 56.667968 57.070313 56.546875 149.269531-.351563 206.191407zm0 0" fill="#757679"/><path d="m309.242188 409.210938c-57.019532 57.03125-149.46875 57.03125-206.484376 0-56.898437-56.921876-57.019531-149.117188-.351562-206.191407.109375-.117187.230469-.238281.351562-.359375.441407-.449218.890626-.890625 1.339844-1.328125 56.667969-55.261719 147.136719-55.261719 203.804688 0 .449218.4375.898437.878907 1.339844 1.328125.121093.121094.242187.242188.351562.359375 56.664062 57.074219 56.546875 149.269531-.351562 206.191407zm0 0" fill="#fff"/><path d="m271.089844 70.011719h-130.179688c-5.5 0-10-4.5-10-10v-30.011719c0-11 9-20 20-20h110.179688c11 0 20 9 20 20v30.011719c0 5.5-4.5 10-10 10zm0 0" fill="#ff5964"/><path d="m206 461.984375c-41.671875 0-80.847656-16.230469-110.3125-45.703125-29.398438-29.410156-45.625-68.507812-45.691406-110.09375-.066406-41.527344 15.992187-80.625 45.214844-110.113281.148437-.15625.304687-.3125.460937-.472657.433594-.441406.9375-.9375 1.441406-1.429687 29.289063-28.5625 67.957031-44.289063 108.886719-44.289063 40.925781 0 79.597656 15.726563 108.882812 44.289063.503907.492187 1.007813.984375 1.5 1.484375.113282.113281.257813.265625.410157.421875 29.21875 29.484375 45.277343 68.582031 45.210937 110.109375-.066406 41.582031-16.292968 80.679688-45.6875 110.089844 0 0 0 0-.003906.003906-29.464844 29.472656-68.640625 45.703125-110.3125 45.703125zm-96.269531-252.15625c-.074219.082031-.148438.160156-.226563.238281-25.535156 25.714844-39.566406 59.84375-39.507812 96.089844.054687 36.257812 14.203125 70.34375 39.832031 95.984375 25.6875 25.695313 59.839844 39.84375 96.171875 39.84375 36.328125 0 70.480469-14.148437 96.167969-39.84375 25.632812-25.640625 39.777343-59.726563 39.835937-95.984375.054688-36.246094-13.976562-70.371094-39.507812-96.089844-.097656-.09375-.191406-.195312-.285156-.296875l-.042969-.035156c-.457031-.46875-.855469-.855469-1.253907-1.246094-25.523437-24.890625-59.234374-38.601562-94.917968-38.601562-35.679688 0-69.390625 13.707031-94.917969 38.601562-.390625.386719-.789063.773438-1.175781 1.167969-.027344.027344-.050782.050781-.074219.074219zm0 0"/><path d="m365.808594 175.871094c-4.820313-5.941406-9.960938-11.574219-15.421875-16.902344l17.660156-18.410156c3.710937-3.867188 3.710937-9.980469 0-13.847656l-32.488281-33.839844c-1.890625-1.960938-4.488282-3.070313-7.210938-3.070313h-.007812c-2.722656 0-5.320313 1.109375-7.210938 3.070313l-26.082031 27.1875c-24.636719-11.796875-51.660156-18.609375-79.046875-19.949219v-20.097656h55.089844c11.027344 0 20-8.972657 20-20v-30.011719c0-16.539062-13.460938-30-30-30h-110.179688c-16.542968 0-30 13.460938-30 30v30.011719c0 11.027343 8.96875 20 20 20h55.089844v20.109375c-43.820312 2.140625-86.132812 18.289062-120.113281 46.027344-5.386719 4.402343-10.617188 9.140624-15.546875 14.070312-4.941406 4.929688-9.691406 10.203125-14.152344 15.652344-31.929688 39.167968-48.25 88.648437-45.980469 139.339844 2.292969 51.027343 23.320313 99.148437 59.261719 135.550781.238281.238281.46875.488281.75.769531.039062.039062.078125.078125.121094.117188 9.269531 9.273437 19.4375 17.679687 30.21875 25 34.101562 23.121093 74.011718 35.351562 115.429687 35.351562h.011719c41.410156 0 81.328125-12.21875 115.429688-35.351562 10.777343-7.308594 20.949218-15.71875 30.230468-24.988282.328125-.332031.648438-.648437.949219-.96875 35.878906-36.363281 56.890625-84.460937 59.179687-135.472656 2.28125-50.6875-14.050781-100.179688-45.980468-139.347656-4.390625-5.390625 31.929687 39.167968 0 0zm-37.460938-61.632813 18.632813 19.402344-11.511719 11.988281c-3.640625-3.183594-7.730469-6.101562-11.699219-8.800781-3.429687-2.398437-6.929687-4.6875-10.5-6.867187zm-187.4375-54.226562v-30.011719c0-5.511719 4.488282-10 10-10h110.179688c5.507812 0 10 4.488281 10 10v30.011719zm250.898438 254.316406c-2.058594 46.070313-21.050782 89.523437-53.46875 122.34375-.019532.027344-.050782.058594-.082032.089844-.230468.238281-.480468.488281-.738281.75-8.390625 8.386719-17.582031 15.988281-27.3125 22.589843-30.777343 20.867188-66.820312 31.898438-104.21875 31.898438-37.398437 0-73.429687-11.03125-104.210937-31.898438-9.707032-6.601562-18.867188-14.171874-27.238282-22.53125-.308593-.320312-.621093-.640624-.878906-.910156-32.421875-32.820312-51.402344-76.269531-53.472656-122.339844-2.050781-45.78125 12.691406-90.460937 41.492188-125.800781 4.027343-4.929687 8.339843-9.699219 12.800781-14.160156 4.457031-4.460937 9.199219-8.738281 14.058593-12.71875 32.988282-26.941406 74.710938-41.769531 117.460938-41.769531 30.058594 0 59.929688 7.339844 86.410156 21.238281.027344.011719.058594.019531.089844.039063 0 0 .007812 0 .007812.011718 1.359376.710938 2.710938 1.441406 4.0625 2.199219 8.097657 4.519531 15.886719 9.679687 23.226563 15.371094 6.230469 4.847656 12.136719 10.042969 17.722656 15.628906 4.519531 4.519531 8.820313 9.28125 12.789063 14.152344 28.820312 35.347656 43.558594 80.039062 41.5 125.816406-2.058594 46.070313 2.058594-45.777344 0 0zm0 0"/><path d="m206 411.902344c-27.171875 0-54.34375-10.332032-75.03125-30.996094-3.90625-3.902344-3.910156-10.234375-.007812-14.140625 3.902343-3.90625 10.234374-3.914063 14.144531-.007813 33.574219 33.542969 88.214843 33.542969 121.792969 0 33.453124-33.421874 33.546874-87.898437.207031-121.433593-.0625-.058594-.125-.125-.183594-.1875-.035156-.03125-.078125-.074219-.097656-.097657-.238281-.242187-.480469-.476562-.71875-.710937-7.371094-7.175781-15.832031-12.910156-25.15625-17.042969-5.050781-2.234375-7.332031-8.144531-5.09375-13.191406 2.238281-5.050781 8.144531-7.328125 13.195312-5.09375 11.5 5.097656 21.933594 12.160156 31.007813 21 .335937.328125.671875.65625 1 .992188.109375.109374.214844.21875.320312.324218 41.003906 41.34375 40.859375 108.417969-.347656 149.589844-20.6875 20.664062-47.859375 30.996094-75.03125 30.996094zm0 0"/><path d="m163.789062 357.101562c-2.558593 0-5.121093-.976562-7.074218-2.929687-3.902344-3.910156-3.898438-10.242187.007812-14.144531l42.207032-42.167969c3.910156-3.902344 10.242187-3.898437 14.144531.007813 3.902343 3.90625 3.898437 10.238281-.007813 14.140624l-42.210937 42.167969c-1.949219 1.953125-4.507813 2.925781-7.066407 2.925781zm0 0"/><path d="m206.019531 220.039062c-5.523437 0-10.003906-4.476562-10.003906-10 0-5.523437 4.472656-10 9.992187-10h.011719c5.523438 0 10 4.476563 10 10 0 5.523438-4.476562 10-10 10zm0 0"/></svg>