<svg height="512pt" viewBox="0 -1 512 512" width="512pt" xmlns="http://www.w3.org/2000/svg"><path d="m482 352h-452c-11 0-20-9-20-20v-260c0-11 9-20 20-20h452c11 0 20 9 20 20v260c0 11-9 20-20 20zm0 0" fill="#fff"/><path d="m331 50h-150v-20c0-11.046875 8.953125-20 20-20h110c11.046875 0 20 8.953125 20 20zm0 0" fill="#595959"/><path d="m346 392h-180c-11.046875 0-20-8.953125-20-20v-20h220v20c0 11.046875-8.953125 20-20 20zm0 0" fill="#595959"/><path d="m436.855469 153.042969c0-16.550781-13.429688-29.964844-30-29.964844-16.566407 0-30 13.414063-30 29.964844s13.433593 29.964843 30 29.964843c16.570312 0 30-13.414062 30-29.964843zm0 0" fill="#93ff83"/><path d="m134.144531 293.753906c0-16.550781-13.433593-29.964844-30-29.964844-16.570312 0-30 13.414063-30 29.964844 0 16.550782 13.429688 29.964844 30 29.964844 16.566407 0 30-13.414062 30-29.964844zm0 0" fill="#93ff83"/><path d="m482 42h-141v-12c0-16.539062-13.460938-30-30-30h-110c-16.539062 0-30 13.460938-30 30v12h-141c-16.539062 0-30 13.460938-30 30v260c0 16.539062 13.460938 30 30 30h106v10c0 16.539062 13.460938 30 30 30h.628906l-35.007812 94.53125c-1.921875 5.179688.730468 10.929688 5.910156 12.847656 5.167969 1.921875 10.929688-.730468 12.847656-5.910156l37.582032-101.46875h136.078124l37.582032 101.46875c1.5 4.042969 5.320312 6.53125 9.378906 6.53125 1.148438 0 2.328125-.199219 3.46875-.621094 5.179688-1.917968 7.832031-7.667968 5.910156-12.847656l-35.007812-94.53125h.628906c16.539062 0 30-13.460938 30-30v-10h106c16.539062 0 30-13.460938 30-30v-260c0-16.539062-13.460938-30-30-30zm-291-12c0-5.511719 4.488281-10 10-10h110c5.511719 0 10 4.488281 10 10v10h-130zm165 342c0 5.511719-4.488281 10-10 10h-180c-5.511719 0-10-4.488281-10-10v-10h200zm136-40c0 5.511719-4.488281 10-10 10h-452c-5.511719 0-10-4.488281-10-10v-260c0-5.511719 4.488281-10 10-10h452c5.511719 0 10 4.488281 10 10zm0 0"/><path d="m283.5 102.648438h-90c-5.523438 0-10-4.480469-10-10 0-5.523438 4.476562-10 10-10h90c5.523438 0 10 4.476562 10 10 0 5.519531-4.476562 10-10 10zm0 0"/><path d="m318.519531 102.648438c-5.523437 0-10.003906-4.480469-10.003906-10 0-5.523438 4.472656-10 9.996094-10h.007812c5.523438 0 10 4.476562 10 10 0 5.519531-4.476562 10-10 10zm0 0"/><path d="m406.855469 193.007812c-22.054688 0-40-17.929687-40-39.964843 0-22.035157 17.945312-39.964844 40-39.964844 22.058593 0 40 17.929687 40 39.964844 0 22.035156-17.941407 39.964843-40 39.964843zm0-59.929687c-11.027344 0-20 8.957031-20 19.964844 0 11.007812 8.972656 19.964843 20 19.964843 11.03125 0 20-8.957031 20-19.964843 0-11.007813-8.96875-19.964844-20-19.964844zm0 0"/><path d="m104.144531 333.71875c-22.058593 0-40-17.929688-40-39.964844s17.941407-39.964844 40-39.964844c22.054688 0 40 17.929688 40 39.964844s-17.945312 39.964844-40 39.964844zm0-59.929688c-11.03125 0-20 8.957032-20 19.964844 0 11.007813 8.96875 19.964844 20 19.964844 11.027344 0 20-8.957031 20-19.964844 0-11.007812-8.972656-19.964844-20-19.964844zm0 0"/><path d="m445.21875 327.070312c-1.96875 2.03125-4.578125 3.050782-7.199219 3.050782-2.5 0-5-.929688-6.941406-2.800782l-14.386719-13.878906-13.902344 14.367188c-1.960937 2.03125-4.578124 3.050781-7.1875 3.050781-2.511718 0-5.011718-.929687-6.953124-2.808594-3.96875-3.839843-4.078126-10.171875-.238282-14.140625l13.878906-14.359375-14.367187-13.859375c-3.980469-3.832031-4.09375-10.160156-.261719-14.140625 3.828125-3.972656 10.160156-4.089843 14.140625-.25l14.390625 13.878907 13.898438-14.378907c3.839844-3.972656 10.171875-4.070312 14.140625-.242187 3.96875 3.839844 4.078125 10.171875.238281 14.152344l-13.878906 14.359374 14.371094 13.859376c3.980468 3.832031 4.089843 10.160156.257812 14.140624zm0 0"/><path d="m125.789062 186.589844c-1.96875 2.039062-4.578124 3.058594-7.199218 3.058594-2.5 0-5-.929688-6.941406-2.796876l-14.386719-13.882812-13.902344 14.371094c-1.960937 2.03125-4.578125 3.050781-7.1875 3.050781-2.5 0-5.011719-.929687-6.953125-2.8125-3.96875-3.839844-4.078125-10.167969-.238281-14.136719l13.878906-14.363281-14.371094-13.859375c-3.976562-3.839844-4.089843-10.167969-.257812-14.140625 3.839843-3.976563 10.167969-4.089844 14.140625-.257813l14.390625 13.878907 13.898437-14.371094c3.839844-3.96875 10.167969-4.078125 14.140625-.238281 3.96875 3.839844 4.078125 10.171875.238281 14.140625l-13.878906 14.359375 14.371094 13.859375c3.980469 3.839843 4.089844 10.171875.257812 14.140625zm0 0"/><path d="m303.921875 293.511719c-1.960937 2.039062-4.582031 3.058593-7.203125 3.058593-2.5 0-5-.929687-6.9375-2.800781l-14.390625-13.878906-13.902344 14.371094c-1.957031 2.027343-4.566406 3.046875-7.1875 3.046875-2.5 0-5.011719-.929688-6.949219-2.808594-3.972656-3.839844-4.082031-10.171875-.242187-14.140625l13.878906-14.359375-14.367187-13.859375c-3.972656-3.839844-4.089844-10.171875-.25-14.140625 3.828125-3.980469 10.160156-4.089844 14.128906-.261719l14.398438 13.882813 13.890624-14.371094c3.839844-3.96875 10.171876-4.078125 14.140626-.238281 3.96875 3.839843 4.082031 10.167969.242187 14.136719l-13.882813 14.351562 14.382813 13.871094c3.96875 3.839844 4.078125 10.167968.25 14.140625zm0 0"/><path d="m357 154.058594c-.53125 5.492187-5.421875 9.5-10.898438 8.992187-.472656-.050781-28.351562-2.472656-64.871093 6.558594-41.941407 10.371094-77.621094 30.8125-106.308594 60.890625l19.089844.898438c5.519531.261718 9.777343 4.953124 9.519531 10.460937-.25 5.359375-4.671875 9.53125-9.980469 9.53125-.160156 0-.320312 0-.480469-.011719l-39.558593-1.859375c-.171875 0-.332031-.007812-.492188-.03125-.210937-.007812-.429687-.039062-.640625-.066406-.128906-.011719-.25-.03125-.378906-.0625-.25-.039063-.5-.097656-.75-.167969-.21875-.050781-.429688-.113281-.648438-.191406-.320312-.101562-.632812-.21875-.941406-.371094-.128906-.050781-.261718-.117187-.390625-.1875-.191406-.089844-.371093-.191406-.550781-.300781-.078125-.039063-.148438-.089844-.230469-.140625-.207031-.128906-.410156-.261719-.597656-.410156-.0625-.039063-.128906-.089844-.191406-.140625-.210938-.160157-.410157-.320313-.597657-.488281-.023437-.019532-.042968-.03125-.050781-.050782-.230469-.210937-.441406-.421875-.652343-.648437-.507813-.550781-.957032-1.171875-1.328126-1.832031-.171874-.300782-.320312-.601563-.449218-.910157-.0625-.140625-.121094-.28125-.179688-.429687-.0625-.148438-.113281-.300782-.160156-.449219-.140625-.449219-.261719-.910156-.339844-1.390625-.011718-.03125-.019531-.058594-.019531-.089844l-6.53125-39.261718c-.101563-.546876-.140625-1.097657-.140625-1.648438 0-4.800781 3.460938-9.039062 8.359375-9.851562 5.449219-.910157 10.601563 2.773437 11.5 8.222656l3.0625 18.390625c39.136719-40.972657 84.367187-59.042969 117.046875-67.011719 39.78125-9.699219 69.542969-6.980469 70.792969-6.859375 5.5.53125 9.519531 5.417969 8.988281 10.917969zm0 0"/></svg>