<svg height="512pt" viewBox="0 0 512 512" width="512pt" xmlns="http://www.w3.org/2000/svg"><path d="m125.167969 130.183594c0-66.375 49.257812-120.183594 146.046875-120.183594 96.792968 0 204.46875 53.808594 204.46875 120.183594" fill="#757679"/><path d="m501.71875 230.847656h-372.574219c-11.046875 0-20-8.953125-20-20v-80.148437h372.574219c11.046875 0 20 8.953125 20 20zm0 0" fill="#494949"/><path d="m443.765625 366.824219-157.523437-21.3125c-16.0625-2.175781-31.042969-7.101563-44.414063-14.210938-37.90625-20.167969-62.867187-57.933593-62.867187-100.453125h322.757812l-21.203125 111.449219c-3.042969 16.011719-19.332031 26.882813-36.75 24.527344zm0 0" fill="#757679"/><path d="m364.347656 331.636719c0 33.183593-26.902344 60.085937-60.089844 60.085937-33.183593 0-60.085937-26.902344-60.085937-60.085937 0-33.1875 26.902344-60.089844 60.085937-60.089844 33.1875 0 60.089844 26.902344 60.089844 60.089844zm0 0" fill="#ffea77"/><path d="m324.285156 331.636719c0 11.058593-8.964844 20.027343-20.027344 20.027343s-20.027343-8.96875-20.027343-20.027343c0-11.0625 8.964843-20.03125 20.027343-20.03125s20.027344 8.96875 20.027344 20.03125zm0 0" fill="#757679"/><path d="m485.34375 120.898438c-4.0625-31.476563-28.734375-61.167969-70.507812-84.429688-41.59375-23.179688-93.890626-36.46875-143.46875-36.46875-48.183594 0-88.316407 13.050781-116.042969 37.730469-23.601563 21.019531-37.519531 50.210937-39.769531 82.96875h-6.34375c-.011719 0-.019532 0-.019532 0-.242187 0-.480468.011719-.722656.03125-.238281.007812-.480469.039062-.707031.078125-.03125 0-.0625 0-.082031.011718-.210938.03125-.417969.070313-.628907.109376-.25.058593-.5.121093-.742187.199218-.179688.050782-.359375.109375-.539063.179688-.757812.269531-1.492187.652344-2.191406 1.121094l-99.195313 67.460937c-2.742187 1.859375-4.382812 4.949219-4.382812 8.257813v208.8125c0 .1875 0 .378906.0195312.558593 0 .128907.0117188.25.03125.378907.0078126.160156.0195313.320312.0507808.480468.019532.152344.039063.292969.078126.441406.019531.109376.039062.230469.070312.339844.078125.378906.179688.75.320312 1.121094.050782.140625.101563.277344.160157.417969.050781.152343.109375.289062.179687.429687.050782.121094.109375.242188.179688.359375.039062.101563.101562.191407.148437.292969.101563.199219.222657.390625.339844.578125.480469.742187 1.042969 1.402344 1.664063 1.980469l92.097656 94.25c.5625.621094 1.222656 1.179687 1.953125 1.660156.167969.109375.347656.21875.527343.320312.050782.03125.113282.058594.160157.089844.132812.070313.261719.140625.390625.199219.132812.0625.261718.121094.390625.179687.398437.179688.808593.332032 1.230469.449219.210937.0625.429687.121094.652343.160157.199219.050781.398438.082031.597657.113281.089843.019531.191406.027343.289062.039062.101562.019531.203125.027344.292969.027344.117187.023437.238281.03125.367187.03125.191406.011719.371094.019531.5625.019531h98.625c4.570313 0 8.574219-3.109375 9.691406-7.539062l20.414063-80.519532.269531-1.058593c0-.011719 0-.011719 0-.011719l3.25-12.820312.109375 11.949218c0 49.691406 50.269531 90.121094 112.0625 90.121094s112.070313-40.429688 112.070313-90.121094v-45.949218c15.730468-3.730469 28.316406-15.769532 31.359375-31.769532l21.160156-111.179687.050781-.261719c.121094-.617188.179688-1.25.179688-1.867188v-80.152343c.003906-15.398438-11.671875-28.128907-26.652344-29.800781zm-316.703125-68.226563c24.003906-21.371094 59.523437-32.671875 102.726563-32.671875 45.597656 0 95.59375 12.691406 133.734374 33.941406 34.128907 19.019532 55.410157 42.910156 59.921876 66.757813h-329.410157c2.113281-27.199219 13.417969-50.578125 33.027344-68.027344zm-69.4375 96.929687v61.25c0 11.007813 5.964844 20.660157 14.839844 25.867188l-34.25 8.519531-.011719-82.4375zm42.054687 161.429688v-60.472656l28.484376-7.089844c1.570312 14.472656 5.84375 28.453125 12.4375 41.351562zm51.445313-9.203125c4.914063 6.710937 10.539063 12.980469 16.800781 18.710937l-28.886718 44.132813-33.289063-33.78125zm-23.289063 79.972656-24.746093 37.800781-57.800781-49.992187 43.234374-27.679687zm-48.167968-57.960937-41.441406 26.539062-.011719-84.527344 41.453125-10.3125zm-101.234375-120.390625 39.761719-27.039063.007812 73.808594-39.769531 9.902344zm0 77.269531 39.769531-9.890625.011719 92.371094-39.78125 25.480469zm81.203125 205.261719-75.472656-77.21875 43.554687-27.890625 64.316406 55.617187zm92.382812 5.898437h-72.320312l27.605468-42.1875 45.441407 39.296875zm6.230469-24.570312-39.890625-34.5 23.84375-36.4375 27.0625 27.449218zm16.761719-66.160156-21.59375-21.910157 30.296875-46.277343c2.402343 1.609374 4.871093 3.160156 7.402343 4.640624zm37.71875-69.507813c0-.859375.019531-1.71875.070312-2.582031.019532-.429688.039063-.847656.082032-1.269532.027343-.488281.078124-.980468.128906-1.46875 2.660156-25.140624 24.003906-44.78125 49.835937-44.78125 27.636719 0 50.117188 22.472657 50.117188 50.101563 0 4.410156-.570313 8.6875-1.652344 12.769531-1.851563 7.011719-5.191406 13.429688-9.652344 18.878906-9.195312 11.25-23.183593 18.441407-38.8125 18.441407-21.582031 0-40.011719-13.699219-47.054687-32.859375-1.890625-5.109375-2.953125-10.621094-3.054688-16.359375v-.070313c-.007812-.269531-.007812-.53125-.007812-.800781zm184.929687 90.238281c0 18.179688-9.292969 35.480469-26.152343 48.722656-17.578126 13.796876-40.980469 21.398438-65.90625 21.398438-24.914063 0-48.316407-7.601562-65.894532-21.398438-16.871094-13.242187-26.15625-30.542968-26.15625-48.8125l-.367187-40.710937c12.707031 12.75 30.273437 20.652344 49.664062 20.652344 26.074219 0 48.867188-14.300781 60.945313-35.449219l73.867187 9.988281zm31.710938-81.449218c-1.703125 8.929687-9.957031 15.558593-19.652344 16.570312-1.441406.148438-2.910156.179688-4.390625.070312-.519531-.039062-1.042969-.089843-1.5625-.160156l-72.507812-9.800781c1.128906-4.980469 1.71875-10.160156 1.71875-15.46875 0-38.652344-31.457032-70.101563-70.128907-70.101563-33.316406 0-61.28125 23.351563-68.375 54.539063-1.640625-1.109375-3.234375-2.25-4.792969-3.429687-1.601562-1.207032-3.164062-2.449219-4.671874-3.726563-20.933594-17.613281-34.269532-41.910156-37-68.070313h300.320312zm21.039062-119.578126h-312.929687c-.171875 0-.339844 0-.511719.007813.070313-.007813.152344-.007813.222656-.007813h-49.546875c-5.523437 0-10.007812-4.492187-10.007812-10v-23.460937h80.675781c5.523437 0 10.003906-4.480469 10.003906-10 0-5.53125-4.480469-10-10.003906-10h-80.675781v-26.691406h362.769531c5.511719 0 10.003906 4.492187 10.003906 10zm0 0"/><path d="m234.976562 187.386719c-5.523437 0-10.007812-4.476563-10.007812-10 0-5.523438 4.472656-10 10-10h.007812c5.527344 0 10.007813 4.476562 10.007813 10 0 5.523437-4.480469 10-10.007813 10zm0 0"/></svg>