<svg height="512pt" viewBox="-6 0 512 512" width="512pt" xmlns="http://www.w3.org/2000/svg"><path d="m424.289062 40.664062v-.167968l-92.476562-30.496094h-162.601562l-93.496094 30.496094v.167968l-65.710938 242.722657 36.335938 134.222656 10.738281 39.664063 58.898437-15.621094-42.847656-158.265625 43.742188-161.570313h11.6875v380.183594h243.902344v-380.183594h10.675781l43.738281 161.570313-42.847656 158.265625 58.960937 15.800781 47.015625-174.066406zm0 0" fill="#0579bb"/><g fill="#fff"><path d="m279.640625 120.378906 92.78125-96.757812-41.832031-13.621094-80.652344 80.652344-80.652344-80.652344-41.832031 13.621094 92.769531 96.746094 29.652344 31.054687.0625-.066406.066406.066406zm0 0"/><path d="m128.558594 402.40625h243.945312v40h-243.945312zm0 0"/><path d="m46.667969 418.636719 58.851562-15.769531 10.355469 38.632812-58.855469 15.769531zm0 0"/><path d="m384.027344 441.652344 58.960937 15.800781 10.433594-38.636719-58.9375-15.773437zm0 0"/></g><path d="m499.652344 280.769531-65.511719-241.96875c-.609375-3.601562-3.167969-6.628906-6.71875-7.800781l-92.480469-30.5c-1.007812-.328125-2.070312-.5-3.128906-.5h-162.53125c-.257812 0-.519531.0117188-.777344.03125-.210937.0195312-.410156.0390625-.613281.0585938-.566406.0898442-1.136719.2187502-1.699219.3984372l-41.828125 13.621094-51.75 16.878906c-3.570312 1.160157-6.128906 4.203125-6.75 7.8125l-65.511719 241.96875c-.46875 1.710938-.46875 3.519531 0 5.230469l42.371094 156.539062.351563 1.28125 4.347656 16.070313c.992187 3.628906 3.859375 6.257813 7.28125 7.097656.230469.0625.460937.113281.6875.140625.03125.011719.0625.011719.09375.011719.238281.050781.476563.078125.71875.097656.03125.011719.058594.011719.089844.011719.238281.019531.488281.03125.738281.03125.320312 0 .652344-.019531.972656-.050781.167969-.011719.328125-.03125.488282-.058594.160156-.023437.320312-.050781.480468-.082031.21875-.039063.449219-.089844.667969-.148438l58.902344-15.621094s.007812-.011718.019531-.011718v50.691406c0 5.519531 4.46875 10 10 10h243.898438c5.523437 0 10-4.480469 10-10v-50.410156l57.929687 15.519531c.871094.230469 1.742187.339844 2.601563.339844.25 0 .5-.007813.742187-.027344.128906-.011719.25-.023437.367187-.042969.089844 0 .179688-.007812.261719-.027344.148438-.023437.289063-.042968.4375-.070312.160157-.03125.320313-.0625.480469-.101562.140625-.03125.28125-.070313.421875-.109376.050781-.011718.089844-.019531.140625-.039062.128906-.042969.257812-.082031.390625-.132812.148437-.039063.308594-.097657.457031-.167969.109375-.039063.210938-.082031.320313-.128907.222656-.089843.441406-.203124.652343-.3125.476563-.25.929688-.550781 1.359376-.867187.429687-.320313.828124-.683594 1.199218-1.070313.351563-.363281.667969-.75.960938-1.171874.128906-.179688.25-.371094.359375-.558594.03125-.03125.050781-.070313.070312-.109375.121094-.203125.230469-.410157.328125-.621094.070313-.128906.132813-.261719.191406-.402344.070313-.148437.140626-.308593.191407-.46875.039062-.078125.066406-.167969.089843-.25.027344-.058593.046876-.121093.058594-.179687.070313-.167969.121094-.351563.167969-.53125l10.433594-38.636719 36.578125-135.433594c.46875-1.707031.46875-3.507812 0-5.21875zm-193.199219-260.769531-56.511719 56.511719-56.507812-56.511719zm-139.902344 1.410156 76.320313 76.308594c3.902344 3.910156 10.230468 3.910156 14.140625 0l76.3125-76.308594 20.859375 6.789063-81.761719 85.261719-.007813.007812-22.472656 23.542969-22.5-23.5625-81.75-85.25zm-102.417969 423.648438-.011718-.039063-.019532.011719-2.359374-8.8125-.558594-2.078125-2.261719-8.421875 39.511719-10.589844.027344-.007812 2.820312 10.539062.089844.339844 2.320312 8.558594zm50.757813-45.679688c.011719-.007812.011719-.007812 0-.007812l-31.398437-115.980469 35.070312-129.550781v259.089844zm247.570313 92.621094h-223.898438v-39.589844h223.898438zm.042968-59.589844h-223.941406v-20h223.941406zm20-23.390625v.011719l-.042968.140625v-251.570313l34.050781 125.789063-31.679688 117.039063zm53.429688 36.191407-39.632813-10.621094 5.230469-19.308594 39.621094 10.597656zm10.4375-38.640626-39.609375-10.601562 29.769531-109.96875c.460938-1.710938.460938-3.519531 0-5.230469l-43.738281-161.558593c-1.179688-4.359376-5.140625-7.390626-9.660157-7.390626h-10.671874c-5.519532 0-10 4.480469-10 10v59.179688h-69.457032c-5.519531 0-10 4.480469-10 10s4.480469 10 10 10h69.457032v191.410156h-223.898438v-270.589844c0-5.519531-4.480469-10-10-10h-11.691406c-4.519532 0-8.46875 3.03125-9.660156 7.390626l-43.738282 161.558593c-.460937 1.710938-.460937 3.519531 0 5.230469l29.730469 109.820312-39.53125 10.601563-33.308594-123.03125 63.640625-235.082031 40.578125-13.230469 88.410157 92.191406 29.648437 31.058594c1.320313 1.382813 3.011719 2.320313 4.84375 2.773437.816406.207032 1.65625.320313 2.519531.320313 2.730469 0 5.347656-1.121094 7.230469-3.09375l29.636719-31.039063 88.570312-92.367187 40.550782 13.367187 63.648437 235.101563zm0 0"/><path d="m253.023438 201c-5.523438 0-10.003907-4.476562-10.003907-10s4.472657-10 9.992188-10h.011719c5.523437 0 10 4.476562 10 10s-4.476563 10-10 10zm0 0"/></svg>