<svg height="512pt" viewBox="0 -1 512 512" width="512pt" xmlns="http://www.w3.org/2000/svg"><path d="m482 352h-452c-11 0-20-9-20-20v-260c0-11 9-20 20-20h452c11 0 20 9 20 20v260c0 11-9 20-20 20zm0 0" fill="#fff"/><path d="m331 50h-150v-20c0-11.046875 8.953125-20 20-20h110c11.046875 0 20 8.953125 20 20zm0 0" fill="#595959"/><path d="m346 392h-180c-11.046875 0-20-8.953125-20-20v-20h220v20c0 11.046875-8.953125 20-20 20zm0 0" fill="#595959"/><path d="m66 132h380v180h-380zm0 0" fill="#61d89d"/><path d="m286.894531 222c0-15.292969-13.832031-27.691406-30.894531-27.691406s-30.894531 12.398437-30.894531 27.691406 13.832031 27.691406 30.894531 27.691406 30.894531-12.398437 30.894531-27.691406zm0 0" fill="#61d89d"/><path d="m482 42h-141v-12c0-16.539062-13.460938-30-30-30h-110c-16.539062 0-30 13.460938-30 30v12h-141c-16.539062 0-30 13.460938-30 30v260c0 16.539062 13.460938 30 30 30h106v10c0 16.539062 13.460938 30 30 30h.628906l-35.007812 94.53125c-1.921875 5.179688.730468 10.929688 5.910156 12.847656 5.179688 1.910156 10.929688-.730468 12.847656-5.910156l37.582032-101.46875h136.078124l37.582032 101.46875c1.5 4.042969 5.320312 6.53125 9.378906 6.53125 1.148438 0 2.328125-.199219 3.46875-.621094 5.179688-1.917968 7.832031-7.667968 5.910156-12.847656l-35.007812-94.53125h.628906c16.539062 0 30-13.460938 30-30v-10h106c16.539062 0 30-13.460938 30-30v-260c0-16.539062-13.460938-30-30-30zm-291-12c0-5.511719 4.488281-10 10-10h110c5.511719 0 10 4.488281 10 10v10h-130zm165 342c0 5.511719-4.488281 10-10 10h-180c-5.511719 0-10-4.488281-10-10v-10h200zm136-40c0 5.511719-4.488281 10-10 10h-452c-5.511719 0-10-4.488281-10-10v-260c0-5.511719 4.488281-10 10-10h452c5.511719 0 10 4.488281 10 10zm0 0"/><path d="m283.5 102.648438h-90c-5.523438 0-10-4.480469-10-10 0-5.523438 4.476562-10 10-10h90c5.523438 0 10 4.476562 10 10 0 5.519531-4.476562 10-10 10zm0 0"/><path d="m318.519531 102.648438c-5.523437 0-10.003906-4.480469-10.003906-10 0-5.523438 4.472656-10 9.996094-10h.007812c5.523438 0 10 4.476562 10 10 0 5.519531-4.476562 10-10 10zm0 0"/><path d="m446 122h-380c-5.519531 0-10 4.480469-10 10v180c0 5.519531 4.480469 10 10 10h380c5.519531 0 10-4.480469 10-10v-180c0-5.519531-4.480469-10-10-10zm-370 58.988281c21.648438 4.03125 37.929688 20.890625 37.929688 41 0 20.121094-16.28125 36.980469-37.929688 41.011719zm85.039062 121.011719h-85.039062v-18.75c32.738281-4.421875 57.929688-30.210938 57.929688-61.261719 0-31.039062-25.191407-56.828125-57.929688-61.238281v-18.75h85.039062zm169.921876 0h-149.921876v-160h149.921876zm105.039062 0h-85.039062v-160h85.039062v18.75c-32.738281 4.410156-57.929688 30.199219-57.929688 61.238281 0 31.050781 25.191407 56.839844 57.929688 61.261719zm0-39c-21.648438-4.03125-37.929688-20.890625-37.929688-41.011719 0-20.109375 16.28125-36.96875 37.929688-41zm0 0"/><path d="m256 259.691406c-22.550781 0-40.894531-16.90625-40.894531-37.691406 0-20.78125 18.34375-37.691406 40.894531-37.691406 22.546875 0 40.894531 16.910156 40.894531 37.691406 0 20.785156-18.347656 37.691406-40.894531 37.691406zm0-55.382812c-11.523438 0-20.894531 7.9375-20.894531 17.691406s9.371093 17.691406 20.894531 17.691406c11.519531 0 20.894531-7.9375 20.894531-17.691406s-9.375-17.691406-20.894531-17.691406zm0 0"/></svg>