<svg height="512pt" viewBox="-71 0 512 512" width="512pt" xmlns="http://www.w3.org/2000/svg"><path d="m30 502h310c11.046875 0 20-8.953125 20-20v-386.433594c0-11.046875-8.953125-20-20-20h-310c-11.046875 0-20 8.953125-20 20v386.433594c0 11.046875 8.953125 20 20 20zm0 0" fill="#fff"/><path d="m137 40.019531h16c.011719-16.582031 14.332031-30.019531 32-30.019531s31.988281 13.4375 32 30.019531h16c17.601562 0 32 13.515625 32 30.035157 0 16.519531-14.398438 30.035156-32 30.035156h-96c-17.601562 0-32-13.515625-32-30.035156 0-16.519532 14.398438-30.035157 32-30.035157zm0 0" fill="#fcc85e"/><path d="m300.457031 432.714844c0-16.570313-13.417969-30-29.964843-30-16.550782 0-29.964844 13.429687-29.964844 30 0 16.566406 13.414062 30 29.964844 30 16.546874 0 29.964843-13.433594 29.964843-30zm0 0" fill="#93ff83"/><path d="m108.742188 151c0-16.570312-13.414063-30-29.964844-30-16.546875 0-29.964844 13.429688-29.964844 30s13.417969 30 29.964844 30c16.550781 0 29.964844-13.429688 29.964844-30zm0 0" fill="#90f3ff"/><path d="m340 65.570312h-65.269531c-2.339844-19.96875-20.160157-35.550781-41.730469-35.550781h-7.328125c-4.683594-17.238281-21.140625-30.019531-40.671875-30.019531s-35.988281 12.78125-40.671875 30.019531h-7.328125c-21.570312 0-39.390625 15.582031-41.730469 35.550781h-65.269531c-16.539062 0-30 13.449219-30 30v386.429688c0 16.539062 13.460938 30 30 30h310c16.539062 0 30-13.460938 30-30v-386.429688c0-16.550781-13.460938-30-30-30zm-224.441406 0c2.242187-8.898437 11.011718-15.550781 21.441406-15.550781h16c5.519531 0 10-4.46875 10-9.988281.011719-11.050781 9.878906-20.03125 22-20.03125s21.988281 8.980469 22 20.03125c0 5.519531 4.480469 9.988281 10 9.988281h16c10.429688 0 19.199219 6.652344 21.441406 15.550781.367188 1.441407.558594 2.949219.558594 4.488282 0 6.25-3.160156 11.839844-8.101562 15.511718-3.796876 2.820313-8.636719 4.519532-13.898438 4.519532h-96c-5.261719 0-10.101562-1.699219-13.898438-4.519532-4.941406-3.671874-8.101562-9.261718-8.101562-15.511718 0-1.539063.191406-3.046875.558594-4.488282zm234.441406 416.429688c0 5.511719-4.488281 10-10 10h-310c-5.511719 0-10-4.488281-10-10v-386.429688c0-5.519531 4.488281-10 10-10h68.28125c6.367188 14.390626 21.328125 24.519532 38.71875 24.519532h96c17.390625 0 32.351562-10.128906 38.71875-24.519532h68.28125c5.511719 0 10 4.480469 10 10zm0 0"/><path d="m270.492188 472.714844c-22.039063 0-39.964844-17.945313-39.964844-40 0-22.058594 17.925781-40 39.964844-40 22.035156 0 39.964843 17.941406 39.964843 40 0 22.054687-17.929687 40-39.964843 40zm0-60c-11.011719 0-19.964844 8.972656-19.964844 20s8.953125 20 19.964844 20c11.007812 0 19.964843-8.972656 19.964843-20s-8.957031-20-19.964843-20zm0 0"/><path d="m78.777344 191c-22.035156 0-39.960938-17.945312-39.960938-40s17.925782-40 39.960938-40c22.039062 0 39.964844 17.945312 39.964844 40s-17.925782 40-39.964844 40zm0-60c-11.007813 0-19.960938 8.972656-19.960938 20s8.953125 20 19.960938 20c11.011718 0 19.964844-8.972656 19.964844-20s-8.953126-20-19.964844-20zm0 0"/><path d="m161.96875 452.078125c-1.957031 2.03125-4.578125 3.050781-7.1875 3.050781-2.511719 0-5.011719-.929687-6.953125-2.808594l-14.347656-13.878906-13.871094 14.378906c-1.96875 2.03125-4.578125 3.050782-7.199219 3.050782-2.5 0-5-.929688-6.941406-2.800782-3.980469-3.832031-4.089844-10.160156-.257812-14.140624l13.878906-14.390626-14.371094-13.898437c-3.96875-3.832031-4.078125-10.171875-.238281-14.140625 3.839843-3.96875 10.167969-4.070312 14.140625-.230469l14.347656 13.878907 13.871094-14.378907c3.839844-3.96875 10.171875-4.089843 14.140625-.25 3.980469 3.832031 4.089843 10.160157.257812 14.140625l-13.878906 14.390625 14.371094 13.890625c3.96875 3.839844 4.078125 10.167969.238281 14.136719zm0 0"/><path d="m313.441406 228.660156c-1.960937 2.03125-4.570312 3.050782-7.191406 3.050782-2.5 0-5.011719-.941407-6.949219-2.8125l-14.359375-13.878907-13.863281 14.371094c-1.957031 2.03125-4.578125 3.058594-7.199219 3.058594-2.5 0-5-.929688-6.9375-2.808594-3.980468-3.832031-4.089844-10.160156-.261718-14.140625l13.878906-14.390625-14.367188-13.890625c-3.972656-3.839844-4.082031-10.167969-.242187-14.140625 3.839843-3.976563 10.171875-4.078125 14.140625-.238281l14.351562 13.878906 13.867188-14.378906c3.839844-3.96875 10.171875-4.089844 14.140625-.25 3.980469 3.832031 4.089843 10.160156.261719 14.140625l-13.882813 14.390625 14.371094 13.898437c3.972656 3.832031 4.082031 10.171875.242187 14.140625zm0 0"/><path d="m270.492188 338.070312c-5.523438 0-10-4.476562-10-10v-.324218c0-15.511719-16.722657-28.136719-37.273438-28.136719-43.289062 0-78.507812-29.277344-78.507812-65.269531v-12.542969l-14.679688 11.859375c-4.296875 3.46875-10.59375 2.800781-14.0625-1.496094-1.496094-1.851562-2.222656-4.074218-2.222656-6.277344 0-2.917968 1.273437-5.8125 3.71875-7.785156l30.964844-25.011718c0-.003907.003906-.007813.007812-.007813 1.71875-1.386719 3.78125-2.117187 5.863281-2.207031.617188-.023438 1.242188.007812 1.859375.097656.003906 0 .007813 0 .011719.003906 1.476563.214844 2.914063.761719 4.191406 1.644532h.003907c.238281.164062.46875.335937.691406.519531l30.898437 24.957031c4.296875 3.472656 4.96875 9.769531 1.496094 14.0625-3.46875 4.296875-9.765625 4.96875-14.0625 1.496094l-14.679687-11.855469v12.542969c0 24.960937 26.246093 45.269531 58.507812 45.269531 31.582031 0 57.269531 21.59375 57.269531 48.136719v.320312c.003907 5.527344-4.472656 10.003906-9.996093 10.003906zm0 0"/><path d="m112.519531 328.789062c-1.960937 2.03125-4.570312 3.050782-7.191406 3.050782-2.5 0-5.007813-.929688-6.949219-2.808594l-14.359375-13.882812-13.859375 14.371093c-1.960937 2.039063-4.582031 3.058594-7.199218 3.058594-2.5 0-5-.929687-6.941407-2.796875-3.96875-3.839844-4.089843-10.171875-.25-14.140625l13.878907-14.390625-14.378907-13.898438c-3.96875-3.839843-4.070312-10.171874-.238281-14.140624 3.839844-3.972657 10.167969-4.082032 14.140625-.242188l14.359375 13.890625 13.867188-14.378906c3.832031-3.980469 10.160156-4.089844 14.140624-.261719 3.972657 3.839844 4.089844 10.171875.25 14.140625l-13.878906 14.390625 14.371094 13.898438c3.96875 3.839843 4.078125 10.171874.238281 14.140624zm0 0"/><path d="m270.511719 372.671875c-5.523438 0-10.003907-4.476563-10.003907-10s4.46875-10 9.992188-10h.011719c5.523437 0 10 4.476563 10 10s-4.476563 10-10 10zm0 0"/></svg>