<svg height="496pt" viewBox="0 0 496 495" width="496pt" xmlns="http://www.w3.org/2000/svg"><path d="m167.921875 392.65625c18 2 18.878906 23.84375 38.636719 23.84375 20.640625 0 20.640625-24 41.28125-24 20.71875 0 20.71875 24 41.359375 24s20.640625-24 41.359375-24c20.640625 0 20.640625 24 41.28125 24 18.878906 0 20.558594-20 36.398437-23.441406 1.523438-.402344 3.121094-.558594 4.960938-.558594 20.722656 0 20.722656 24 41.441406 24 20.640625 0 20.640625-24 41.359375-24v72c-20.71875 0-20.71875 24-41.359375 24-20.71875 0-20.71875-24-41.441406-24-20.640625 0-20.640625 24-41.359375 24-20.640625 0-20.640625-24-41.28125-24-20.71875 0-20.71875 24-41.359375 24s-20.640625-24-41.359375-24c-20.640625 0-20.640625 24-41.28125 24-20.71875 0-20.71875-24-41.359375-24s-20.640625 24-41.277344 24c-20.640625 0-20.640625-24-41.363281-24-20.636719 0-20.636719 24-41.277344 24s-20.640625-24-41.28125-24v-72c20.640625 0 20.640625 24 41.28125 24s20.640625-24 41.277344-24c20.722656 0 20.722656 24 41.363281 24 20.636719 0 20.636719-24 41.277344-24 .960937 0 1.839843.078125 2.722656.15625zm0 0" fill="#69d6f4"/><path d="m441.199219 278.097656c8.480469-2.558594 16.402343-7.199218 22.800781-13.597656 0 50.71875-21.441406 96.398438-55.761719 128.558594-15.839843 3.441406-17.519531 23.441406-36.398437 23.441406-20.640625 0-20.640625-24-41.28125-24-20.71875 0-20.71875 24-41.359375 24s-20.640625-24-41.359375-24c-20.640625 0-20.640625 24-41.28125 24-19.757813 0-20.636719-21.84375-38.636719-23.84375-33.363281-31.199219-54.640625-75.277344-55.84375-123.597656-.878906-34.082032 7.921875-66.082032 23.921875-93.359375l.398438-.722657c-3.359376-1.679687-6.558594-3.597656-9.679688-5.679687-6.480469-4.398437-12.398438-9.597656-17.4375-15.519531-10-11.597656-16.960938-25.839844-19.839844-41.519532-1.28125-7.039062-1.679687-14.398437-1.203125-21.917968 2.960938-44.160156 40-80.082032 84.242188-81.761719 50.238281-1.921875 91.519531 38.160156 91.519531 87.921875 0 15.917969-4.238281 29.597656-11.679688 41.359375-12.480468 19.917969-20.320312 42.480469-20.320312 66v1.359375c-24.480469 8.878906-43.441406 29.917969-47.199219 56.640625-6.402343 44.480469 27.917969 82.640625 71.199219 82.640625l40 .476562h7.519531c22.320313 0 40.480469-18.160156 40.480469-40.476562l-.078125-.800781c18.316406-3.679688 32.078125-19.839844 32.078125-39.199219h-16c11.039062 0 21.039062-4.480469 28.320312-11.683594 7.199219-7.277344 11.679688-17.277344 11.679688-28.316406h-24l1.679688-.800781c20.082031-10.082031 38.398437-23.28125 54.320312-39.199219l6 6c11.519531 11.519531 18 27.199219 18 43.4375 0 9.601562-2.238281 19.039062-6.480469 27.519531zm0 0" fill="#fcd770"/><path d="m360 264.5h16c0 19.359375-13.761719 35.519531-32.078125 39.199219l.078125.800781c0 22.316406-18.160156 40.476562-40.480469 40.476562h-7.519531l-40-.476562c-43.28125 0-77.601562-38.160156-71.199219-82.640625 3.757813-26.722656 22.71875-47.761719 47.199219-56.640625 8.238281-3.039062 17.199219-4.71875 26.320312-4.71875 19.601563 0 38.71875 4.558594 56.078126 13.199219 14.242187 7.117187 29.839843 10.800781 45.761718 10.800781h39.839844c0 11.039062-4.480469 21.039062-11.679688 28.316406-7.28125 7.203125-17.28125 11.683594-28.320312 11.683594zm0 0" fill="#ffc729"/><path d="m126.71875 169.296875-18.160156 10.882813c-13.4375 8.078124-28.878906 12.320312-44.558594 12.320312-13.28125 0-24-10.722656-24-24h4.238281c22.5625 0 44.722657-4.960938 65.042969-14.722656 5.039062 5.921875 10.957031 11.121094 17.4375 15.519531zm0 0" fill="#ff826e"/><path d="m89.441406 112.257812c2.878906 15.679688 9.839844 29.921876 19.839844 41.519532-20.320312 9.761718-42.480469 14.722656-65.042969 14.722656h-6.796875c-7.441406 0-13.441406-6-13.441406-13.441406 0-6.242188 4.238281-11.601563 10.238281-13.121094 14.320313-3.597656 27.839844-10 39.761719-18.878906l14-10.558594zm0 0" fill="#ff826e"/><path d="m160 80.5c0 8.835938-7.164062 16-16 16s-16-7.164062-16-16c0-8.839844 7.164062-16 16-16s16 7.160156 16 16zm0 0" fill="#ffc729"/><path d="m469.246094 399.273438c-5.222656 6.058593-8.246094 9.226562-14.628906 9.226562-6.386719 0-9.410157-3.167969-14.632813-9.226562-3.578125-4.144532-8.082031-9.261719-14.777344-12.253907 29.890625-33.539062 46.792969-77.320312 46.792969-122.519531v-19.3125l-12.03125 12.03125c2.640625-7.449219 4.03125-15.34375 4.03125-23.242188 0-18.566406-7.230469-36.023437-20.359375-49.152343l-11.640625-11.636719-5.65625 5.65625c-15.304688 15.300781-32.878906 27.972656-52.238281 37.65625h-13.976563c-14.554687 0-29.128906-3.441406-42.144531-9.953125-18.382813-9.191406-39.023437-14.046875-59.6875-14.046875-6.097656 0-12.03125.726562-17.785156 1.964844 1.695312-17.550782 8.007812-35.460938 18.609375-52.34375 8.542968-13.597656 12.878906-28.941406 12.878906-45.621094 0-26.347656-10.457031-50.921875-29.449219-69.1875-18.984375-18.261719-43.992187-27.78125-70.34375-26.734375-48.304687 1.863281-88.695312 41.0625-91.976562 89.230469-.414063 6.152344-.222657 12.21875.503906 18.144531l-11.566406 8.671875c-11.0625 8.296875-23.480469 14.210938-36.902344 17.5625-9.578125 2.390625-16.265625 10.957031-16.265625 20.832031 0 10.300781 7.296875 18.910157 16.984375 20.984375 3.398437 14.023438 15.96875 24.496094 31.015625 24.496094 17.152344 0 33.984375-4.664062 48.695312-13.488281l12.015626-7.210938c-14.269532 27.480469-21.4375 58.195313-20.648438 89.472657 1.105469 43.527343 18.320312 85.800781 47.730469 118.394531-5.914063 3.054687-9.992188 7.765625-13.304688 11.613281-5.214843 6.058594-8.230469 9.21875-14.59375 9.21875-6.359375 0-9.367187-3.160156-14.582031-9.21875-5.367188-6.238281-12.71875-14.78125-26.710938-14.78125-13.992187 0-21.355468 8.542969-26.722656 14.78125-5.214844 6.058594-8.230468 9.21875-14.597656 9.21875-6.351562 0-9.371094-3.160156-14.578125-9.21875-5.367187-6.238281-12.710937-14.78125-26.703125-14.78125v16c6.351562 0 9.367188 3.15625 14.574219 9.214844 5.371093 6.238281 12.714843 14.785156 26.707031 14.785156 14 0 21.351562-8.546875 26.71875-14.785156 5.214844-6.058594 8.230469-9.214844 14.601562-9.214844 6.359376 0 9.367188 3.15625 14.582032 9.214844 5.367187 6.238281 12.710937 14.785156 26.710937 14.785156s21.351563-8.546875 26.722657-14.785156c5.214843-6.058594 8.222656-9.214844 14.589843-9.214844 6.367188 0 9.386719 3.15625 14.609375 9.222656 5.367188 6.230469 12.71875 14.777344 26.71875 14.777344s21.359375-8.546875 26.730469-14.785156c5.222656-6.058594 8.238281-9.214844 14.605469-9.214844 6.367187 0 9.386718 3.15625 14.609375 9.214844 5.367187 6.238281 12.71875 14.785156 26.726562 14.785156 14.007813 0 21.359375-8.546875 26.738281-14.777344 5.214844-6.066406 8.230469-9.222656 14.605469-9.222656 6.359375 0 9.386719 3.15625 14.601563 9.214844 5.367187 6.238281 12.71875 14.785156 26.71875 14.785156 14.007812 0 21.367187-8.546875 26.738281-14.777344 5.222656-6.054687 8.246094-9.222656 14.621094-9.222656 6.386719 0 9.410156 3.167969 14.632812 9.222656 5.375 6.238282 12.738281 14.777344 26.753907 14.777344 14.015624 0 21.375-8.539062 26.75-14.777344 5.226562-6.054687 8.25-9.222656 14.632812-9.222656v-16c-14.007812 0-21.375 8.535156-26.753906 14.773438zm-158.414063-178.414063c15.230469 7.613281 32.28125 11.640625 49.304688 11.640625h30.855469c-3.558594 13.78125-16.105469 24-30.992188 24h-48v16h48c2.398438 0 4.734375-.234375 7.039062-.578125-3.367187 14.054687-15.960937 24.578125-31.039062 24.578125h-48v16h46.878906c-3.589844 14.03125-16.230468 24.476562-31.367187 24.476562l-47.511719-.476562c-18.566406 0-36.199219-8.058594-48.375-22.097656-12.34375-14.230469-17.648438-32.488282-14.945312-51.398438 4.449218-31.074218 32.65625-54.503906 65.617187-54.503906 18.191406 0 36.359375 4.269531 52.535156 12.359375zm-274.679687-71.152344c15.503906-3.882812 29.839844-10.703125 42.625-20.289062l5.726562-4.296875c2.871094 9.058594 7.054688 17.570312 12.34375 25.3125-16.71875 6.570312-34.671875 10.066406-52.625 10.066406h-6.742187c-3.023438 0-5.480469-2.457031-5.480469-5.480469 0-2.519531 1.703125-4.699219 4.152344-5.3125zm27.847656 34.792969c-5.96875 0-11.121094-3.320312-13.871094-8.179688 19.671875-.742187 39.222656-5.101562 57.304688-12.886718 1.671875 1.71875 3.453125 3.335937 5.253906 4.929687l-8.222656 4.933594c-12.226563 7.328125-26.21875 11.203125-40.464844 11.203125zm322.496094 214.773438c-5.222656 6.058593-8.25 9.226562-14.625 9.226562-6.359375 0-9.382813-3.160156-14.597656-9.21875-5.371094-6.238281-12.722657-14.78125-26.722657-14.78125s-21.359375 8.542969-26.734375 14.773438c-5.214844 6.066406-8.242187 9.226562-14.609375 9.226562-6.367187 0-9.382812-3.160156-14.605469-9.21875-5.371093-6.238281-12.730468-14.78125-26.730468-14.78125s-21.351563 8.542969-26.726563 14.773438c-5.214843 6.066406-8.234375 9.226562-14.609375 9.226562-6.367187 0-9.382812-3.160156-14.597656-9.21875-4.433594-5.144531-10.273438-11.773438-20.015625-13.976562-31.84375-30.695313-50.761719-72.847657-51.875-116.4375-.734375-29.296876 6.175781-58.042969 19.890625-83.609376 7.167969 2.929688 14.734375 5.105469 22.703125 6.214844l2.207031-15.839844c-41.34375-5.773437-71.503906-43-68.664062-84.734374 2.726562-40.128907 36.382812-72.777344 76.632812-74.335938 21.917969-.792969 42.824219 7.0625 58.640625 22.289062 15.832031 15.214844 24.542969 35.695313 24.542969 57.648438 0 13.804688-3.40625 25.941406-10.425781 37.109375-13.285157 21.160156-20.597657 43.9375-21.414063 66.152344-24.863281 11.007812-43.398437 33.601562-47.320312 60.976562-3.328125 23.230469 3.488281 46.617188 18.695312 64.152344 15.21875 17.542969 37.257813 27.609375 60.367188 27.609375l40.097656.476562h7.519531c24.9375 0 45.519531-18.925781 48.175781-43.167968 18.304688-6.359375 31.578126-23.46875 32.234376-43.757813 14.359374-8.304687 24.070312-23.800781 24.070312-41.550781v-8h-2.390625c9.261719-6.257812 18.070313-13.152344 26.285156-20.792969l.433594.429688c10.105469 10.105469 15.671875 23.546875 15.671875 37.839843 0 8.265626-1.953125 16.539063-5.648438 23.929688l-6.710937 13.414062c-3.335937.753907-6.769531 1.179688-10.273437 1.179688h-1.367188v16h1.367188c10.585937 0 20.761718-2.609375 29.808593-7.515625-3.953125 39.722656-22.128906 77.160156-51.160156 104.921875-8.296875 2.671875-13.480469 8.671875-17.519531 13.367188zm0 0"/><path d="m469.246094 471.273438c-5.222656 6.058593-8.246094 9.226562-14.628906 9.226562-6.386719 0-9.410157-3.167969-14.632813-9.226562-5.375-6.238282-12.746094-14.773438-26.753906-14.773438-14.007813 0-21.367188 8.542969-26.734375 14.773438-5.222656 6.058593-8.25 9.226562-14.625 9.226562-6.359375 0-9.382813-3.160156-14.597656-9.21875-5.371094-6.238281-12.722657-14.78125-26.722657-14.78125s-21.359375 8.542969-26.734375 14.773438c-5.214844 6.066406-8.242187 9.226562-14.609375 9.226562-6.367187 0-9.382812-3.160156-14.605469-9.21875-5.371093-6.238281-12.730468-14.78125-26.730468-14.78125s-21.351563 8.542969-26.726563 14.773438c-5.214843 6.066406-8.234375 9.226562-14.609375 9.226562-6.367187 0-9.382812-3.160156-14.597656-9.21875-5.371094-6.238281-12.730469-14.78125-26.730469-14.78125s-21.351562 8.542969-26.71875 14.78125c-5.214843 6.058594-8.230469 9.21875-14.59375 9.21875-6.359375 0-9.367187-3.160156-14.582031-9.21875-5.367188-6.238281-12.71875-14.78125-26.710938-14.78125-13.992187 0-21.355468 8.542969-26.722656 14.78125-5.214844 6.058594-8.230468 9.21875-14.597656 9.21875-6.351562 0-9.371094-3.160156-14.578125-9.21875-5.367187-6.238281-12.710937-14.78125-26.703125-14.78125v16c6.351562 0 9.367188 3.15625 14.574219 9.214844 5.371093 6.238281 12.714843 14.785156 26.707031 14.785156 14 0 21.351562-8.546875 26.71875-14.785156 5.214844-6.058594 8.230469-9.214844 14.601562-9.214844 6.359376 0 9.367188 3.15625 14.582032 9.214844 5.367187 6.238281 12.710937 14.785156 26.710937 14.785156s21.351563-8.546875 26.722657-14.785156c5.214843-6.058594 8.222656-9.214844 14.589843-9.214844 6.367188 0 9.386719 3.15625 14.609375 9.222656 5.367188 6.230469 12.71875 14.777344 26.71875 14.777344s21.359375-8.546875 26.730469-14.785156c5.222656-6.058594 8.238281-9.214844 14.605469-9.214844 6.367187 0 9.386718 3.15625 14.609375 9.214844 5.367187 6.238281 12.71875 14.785156 26.726562 14.785156 14.007813 0 21.359375-8.546875 26.738281-14.777344 5.214844-6.066406 8.230469-9.222656 14.605469-9.222656 6.359375 0 9.386719 3.15625 14.601563 9.214844 5.367187 6.238281 12.71875 14.785156 26.71875 14.785156 14.007812 0 21.367187-8.546875 26.738281-14.777344 5.222656-6.054687 8.246094-9.222656 14.621094-9.222656 6.386719 0 9.410156 3.167969 14.632812 9.222656 5.375 6.238282 12.738281 14.777344 26.753907 14.777344 14.015624 0 21.375-8.539062 26.75-14.777344 5.226562-6.054687 8.25-9.222656 14.632812-9.222656v-16c-14.007812 0-21.375 8.535156-26.753906 14.773438zm0 0"/><path d="m144 56.5c-13.230469 0-24 10.765625-24 24 0 13.230469 10.769531 24 24 24s24-10.769531 24-24c0-13.234375-10.769531-24-24-24zm0 32c-4.40625 0-8-3.59375-8-8 0-4.410156 3.59375-8 8-8s8 3.589844 8 8c0 4.40625-3.59375 8-8 8zm0 0"/></svg>