<svg height="496pt" viewBox="0 -1 496 496" width="496pt" xmlns="http://www.w3.org/2000/svg"><path d="m248 434.488281 14.800781-33.28125c5.519531-12.480469 13.277344-23.757812 22.71875-33.277343 9.441407-9.601563 20.558594-17.523438 32.960938-23.203126 39.917969-18.398437 86.960937-11.839843 120.320312 16.800782l1.199219.960937c-53.121094 16-104.320312 37.917969-152.480469 65.441407l-39.519531 22.558593zm0 0" fill="#a0d468"/><path d="m248 450.488281-39.519531-22.558593c-48.160157-27.523438-99.359375-49.441407-152.480469-65.441407l1.199219-.960937c33.359375-28.640625 80.402343-35.199219 120.320312-16.800782 12.402344 5.679688 23.519531 13.601563 32.960938 23.203126 9.441406 9.519531 17.199219 20.796874 22.71875 33.277343l14.800781 33.28125zm0 0" fill="#a0d468"/><g fill="#fcd770"><path d="m296 78.40625h16c0 13.28125-5.359375 25.28125-14.078125 33.921875-8.640625 8.71875-20.640625 14.078125-33.921875 14.078125h-16c0-26.476562 21.519531-48 48-48zm0 0"/><path d="m296 150.40625h16c0 26.480469-21.519531 48-48 48h-16c0-26.476562 21.519531-48 48-48zm0 0"/><path d="m296 222.40625h16c0 26.480469-21.519531 48-48 48h-16c0-26.476562 21.519531-48 48-48zm0 0"/><path d="m200 78.40625c26.480469 0 48 21.523438 48 48h-16c-26.480469 0-48-21.519531-48-48zm0 0"/><path d="m200 150.40625c26.480469 0 48 21.523438 48 48h-16c-26.480469 0-48-21.519531-48-48zm0 0"/><path d="m200 294.40625c26.480469 0 48 21.523438 48 48h-16c-26.480469 0-48-21.519531-48-48zm0 0"/><path d="m296 294.40625h16c0 26.480469-21.519531 48-48 48h-16c0-26.476562 21.519531-48 48-48zm0 0"/><path d="m200 222.40625c26.480469 0 48 21.523438 48 48h-16c-26.480469 0-48-21.519531-48-48zm0 0"/></g><path d="m272 58.40625c0 12.800781-5.121094 25.121094-14.160156 34.160156l-9.839844 9.839844-9.839844-9.839844c-9.039062-9.039062-14.160156-21.359375-14.160156-34.160156 0-12.796875 5.121094-25.117188 14.160156-34.160156l9.839844-9.839844 9.839844 9.839844c9.039062 9.042968 14.160156 21.363281 14.160156 34.160156zm0 0" fill="#ffc729"/><path d="m256 455.152344 35.449219-20.257813c47.589843-27.191406 98.34375-48.964843 150.847656-64.71875l14.03125-4.214843-12.320313-10.546876c-35.664062-30.574218-86.28125-37.597656-128.910156-17.917968-26.210937 12.097656-47.136718 33.191406-59.105468 59.433594v-46.523438h8c30.878906 0 56-25.117188 56-56v-8h-24c-15.664063 0-29.824219 6.480469-40 16.882812v-24.882812h8c30.878906 0 56-25.117188 56-56v-8h-24c-15.664063 0-29.824219 6.480469-40 16.882812v-24.882812h8c30.878906 0 56-25.117188 56-56v-8h-24c-15.664063 0-29.824219 6.480469-40 16.882812v-24.882812h8c30.878906 0 56-25.117188 56-56v-8h-24c-4.015626 0-7.921876.472656-11.695313 1.273438l.960937-1.917969c11.148438-22.304688 27.589844-42 47.535157-56.960938l-9.601563-12.800781c-17.535156 13.144531-32.535156 29.664062-44.144531 48.28125-2.023437-11.175781-7.34375-21.472656-15.542969-29.671875l-15.503906-15.511719-15.511719 15.511719c-8.199219 8.199219-13.519531 18.496094-15.542969 29.671875-11.601562-18.609375-26.609374-35.121094-44.144531-48.2734375l-9.601562 12.8007815c19.945312 14.960937 36.386719 34.65625 47.535156 56.960937l.945313 1.886719c-3.769532-.808594-7.671876-1.25-11.679688-1.25h-24v8c0 30.882812 25.121094 56 56 56h8v24.882812c-10.175781-10.402343-24.335938-16.882812-40-16.882812h-24v8c0 30.882812 25.121094 56 56 56h8v24.882812c-10.175781-10.402343-24.335938-16.882812-40-16.882812h-24v8c0 30.882812 25.121094 56 56 56h8v24.882812c-10.175781-10.402343-24.335938-16.882812-40-16.882812h-24v8c0 30.882812 25.121094 56 56 56h8v46.539062c-11.96875-26.25-32.886719-47.34375-59.105469-59.441406-42.628906-19.6875-93.246093-12.664062-128.902343 17.910156l-12.328126 10.546876 14.03125 4.214843c52.503907 15.753907 103.257813 37.527344 150.847657 64.71875l35.457031 20.257813v23.253906h-208v16h432v-16h-208zm40-152.746094h7.191406c-3.710937 18.234375-19.878906 32-39.191406 32h-7.191406c3.710937-18.230469 19.871094-32 39.191406-32zm0-72h7.191406c-3.710937 18.234375-19.878906 32-39.191406 32h-7.191406c3.710937-18.230469 19.871094-32 39.191406-32zm0-72h7.191406c-3.710937 18.234375-19.878906 32-39.191406 32h-7.191406c3.710937-18.230469 19.871094-32 39.191406-32zm7.191406-72c-3.710937 18.234375-19.878906 32-39.191406 32h-7.191406c3.710937-18.230469 19.878906-32 39.191406-32zm-59.390625-56.484375 4.199219-4.203125 4.199219 4.203125c7.609375 7.613281 11.800781 17.726563 11.800781 28.484375 0 10.761719-4.191406 20.875-11.800781 28.488281l-4.199219 4.203125-4.199219-4.203125c-7.609375-7.613281-11.800781-17.726562-11.800781-28.488281 0-10.757812 4.191406-20.871094 11.800781-28.484375zm-11.800781 88.484375c-19.320312 0-35.480469-13.765625-39.191406-32h7.191406c19.320312 0 35.480469 13.769531 39.191406 32zm0 72c-19.320312 0-35.480469-13.765625-39.191406-32h7.191406c19.320312 0 35.480469 13.769531 39.191406 32zm0 72c-19.320312 0-35.480469-13.765625-39.191406-32h7.191406c19.320312 0 35.480469 13.769531 39.191406 32zm0 72c-19.320312 0-35.480469-13.765625-39.191406-32h7.191406c19.320312 0 35.480469 13.769531 39.191406 32zm38.105469 70.058594c10.308593-23.183594 28.664062-41.808594 51.703125-52.441406 13.933594-6.429688 28.847656-9.574219 43.679687-9.574219 20.152344 0 40.152344 5.808593 57.335938 17.03125-48.382813 15.640625-95.175781 36.296875-139.320313 61.519531l-27.503906 15.726562v-.519531zm-57.617188 16.542968c-44.136719-25.214843-90.9375-45.878906-139.320312-61.519531 29.839843-19.503906 68.160156-22.632812 101.023437-7.457031 23.03125 10.632812 41.394532 29.257812 51.695313 52.441406l14.113281 31.734375v.519531zm0 0"/><path d="m0 478.40625h16v16h-16zm0 0"/><path d="m480 478.40625h16v16h-16zm0 0"/></svg>