<svg height="496pt" viewBox="-32 0 496 496" width="496pt" xmlns="http://www.w3.org/2000/svg"><path d="m328 24v304h-32v-304c0-8.800781 7.199219-16 16-16 4.398438 0 8.398438 1.761719 11.28125 4.71875 2.957031 2.882812 4.71875 6.882812 4.71875 11.28125zm0 0" fill="#d3a06c"/><path d="m352 344v32h-80v-32c0-8.800781 7.199219-16 16-16h48c8.800781 0 16 7.199219 16 16zm0 0" fill="#969faa"/><path d="m424 392v80c0 8.800781-7.199219 16-16 16-4.398438 0-8.398438-1.761719-11.28125-4.71875-2.957031-2.882812-4.71875-6.882812-4.71875-11.28125v-48c0-8.800781-7.199219-16-16-16-4.398438 0-8.398438 1.761719-11.28125 4.71875-2.957031 2.882812-4.71875 6.882812-4.71875 11.28125v48c0 8.800781-7.199219 16-16 16-4.398438 0-8.398438-1.761719-11.28125-4.71875-2.957031-2.882812-4.71875-6.882812-4.71875-11.28125v-48c0-8.800781-7.199219-16-16-16-4.398438 0-8.398438 1.761719-11.28125 4.71875-2.957031 2.882812-4.71875 6.882812-4.71875 11.28125v48c0 8.800781-7.199219 16-16 16-4.398438 0-8.398438-1.761719-11.28125-4.71875-2.957031-2.882812-4.71875-6.882812-4.71875-11.28125v-48c0-8.800781-7.199219-16-16-16-4.398438 0-8.398438 1.761719-11.28125 4.71875-2.957031 2.882812-4.71875 6.882812-4.71875 11.28125v48c0 8.800781-7.199219 16-16 16-4.398438 0-8.398438-1.761719-11.28125-4.71875-2.957031-2.882812-4.71875-6.882812-4.71875-11.28125v-80c0-8.800781 7.199219-16 16-16h192c8.800781 0 16 7.199219 16 16zm0 0" fill="#e6e9ed"/><path d="m104 24v304h-32v-304c0-8.800781 7.199219-16 16-16 4.398438 0 8.398438 1.761719 11.28125 4.71875 2.957031 2.882812 4.71875 6.882812 4.71875 11.28125zm0 0" fill="#d3a06c"/><path d="m168 456v32h-160v-32zm0 0" fill="#aab2bd"/><path d="m168 392v64h-160v-64c0-35.359375 28.640625-64 64-64h32c35.359375 0 64 28.640625 64 64zm0 0" fill="#e6e9ed"/><path d="m104 376v16h-32v-16c0-8.800781 7.199219-16 16-16 4.398438 0 8.398438 1.761719 11.28125 4.71875 2.957031 2.882812 4.71875 6.882812 4.71875 11.28125zm0 0" fill="#838f9b"/><path d="m408 368h-48v-24c0-13.230469-10.769531-24-24-24v-296c0-13.230469-10.769531-24-24-24s-24 10.769531-24 24v296c-13.230469 0-24 10.769531-24 24v24h-48c-13.230469 0-24 10.769531-24 24v80c0 13.230469 10.769531 24 24 24s24-10.769531 24-24v-48c0-4.414062 3.585938-8 8-8s8 3.585938 8 8v48c0 13.230469 10.769531 24 24 24s24-10.769531 24-24v-48c0-4.414062 3.585938-8 8-8s8 3.585938 8 8v48c0 13.230469 10.769531 24 24 24s24-10.769531 24-24v-48c0-4.414062 3.585938-8 8-8s8 3.585938 8 8v48c0 13.230469 10.769531 24 24 24s24-10.769531 24-24v-80c0-13.230469-10.769531-24-24-24zm-104-344c0-4.40625 3.585938-8 8-8s8 3.59375 8 8v296h-16zm112 448c0 4.414062-3.585938 8-8 8s-8-3.585938-8-8v-48c0-13.230469-10.769531-24-24-24s-24 10.769531-24 24v48c0 4.414062-3.585938 8-8 8s-8-3.585938-8-8v-48c0-13.230469-10.769531-24-24-24s-24 10.769531-24 24v48c0 4.414062-3.585938 8-8 8s-8-3.585938-8-8v-48c0-13.230469-10.769531-24-24-24s-24 10.769531-24 24v48c0 4.414062-3.585938 8-8 8s-8-3.585938-8-8v-80c0-4.414062 3.585938-8 8-8h88v-16h-24v-24c0-4.414062 3.585938-8 8-8h48c4.414062 0 8 3.585938 8 8v24h-24v16h88c4.414062 0 8 3.585938 8 8zm0 0"/><path d="m88 352c-13.230469 0-24 10.769531-24 24v24h48v-24c0-13.230469-10.769531-24-24-24zm8 32h-16v-8c0-4.414062 3.585938-8 8-8s8 3.585938 8 8zm0 0"/><path d="m112 320.472656v-296.472656c0-13.230469-10.769531-24-24-24s-24 10.769531-24 24v296.472656c-35.945312 3.992188-64 34.527344-64 71.527344v104h176v-104c0-37-28.054688-67.535156-64-71.527344zm-24-304.472656c4.414062 0 8 3.59375 8 8v296h-16v-296c0-4.40625 3.585938-8 8-8zm72 432h-24v16h24v16h-144v-16h104v-16h-104v-56c0-30.871094 25.128906-56 56-56h32c30.871094 0 56 25.128906 56 56zm0 0"/></svg>