<svg height="496pt" viewBox="0 0 496 496" width="496pt" xmlns="http://www.w3.org/2000/svg"><path d="m488 264v8c0 13.28125-10.71875 24-24 24h-16l-7.519531-40h39.519531c4.398438 0 8 3.601562 8 8zm0 0" fill="#ccd1d9"/><path d="m183.519531 256-7.519531 40h-16c-13.28125 0-24-10.71875-24-24v-8c0-2.238281.878906-4.160156 2.320312-5.679688 1.519532-1.441406 3.441407-2.320312 5.679688-2.320312zm0 0" fill="#ccd1d9"/><g fill="#ffeaa7"><path d="m64 200 32 56-.480469 1.441406c-29.917969-9.921875-54.878906-30.5625-70.398437-57.441406zm0 0"/><path d="m191.519531 213.199219-8 42.800781h-7.519531l-32-56h40zm0 0"/><path d="m144 200 32 56h-32c-2.238281 0-4.160156.878906-5.679688 2.320312l-2.320312-2.320312-32-56zm0 0"/><path d="m136 256 2.320312 2.320312c-1.441406 1.519532-2.320312 3.441407-2.320312 5.679688-14.160156 0-27.761719-2.320312-40.480469-6.558594l.480469-1.441406-32-56h40zm0 0"/></g><path d="m264 136c0 11.039062-1.359375 21.761719-4 32h-33.441406c-15.4375 0-28.636719 10.960938-31.4375 26.078125l-3.601563 19.121094-7.519531-13.199219h-158.878906c-2.800782-4.800781-5.28125-9.839844-7.359375-15.039062-6.320313-15.039063-9.761719-31.601563-9.761719-48.960938s3.441406-33.921875 9.761719-48.960938c12.878906-31.359374 37.917969-56.398437 69.277343-69.277343 15.039063-6.320313 31.601563-9.761719 48.960938-9.761719s33.921875 3.441406 48.960938 9.761719c31.359374 12.878906 56.398437 37.917969 69.277343 69.277343 6.320313 15.039063 9.761719 31.601563 9.761719 48.960938zm0 0" fill="#e6e9ed"/><path d="m136 88 16 56-16 24-16-24zm0 0" fill="#ffc729"/><path d="m464 418.640625-28 18.640625c-2.558594 1.757812-5.679688 2.71875-8.878906 2.71875h-43.121094l-6.800781-40.800781c-1.359375-8.398438-4.320313-16.238281-8.640625-23.199219h36.800781c.878906 0 1.761719 0 2.640625-.078125v20c0 6.636719 5.441406 12.078125 12.078125 12.078125 2.5625 0 5.042969-.800781 7.121094-2.238281l52.800781-37.761719v31.441406c0 5.359375-2.640625 10.320313-7.121094 13.277344zm0 0" fill="#ff826e"/><path d="m480 334.640625v33.359375l-52.800781 37.761719c-2.078125 1.4375-4.558594 2.238281-7.121094 2.238281-6.636719 0-12.078125-5.441406-12.078125-12.078125v-20c5.921875-.5625 11.679688-2.722656 16.558594-6.320313l54.320312-40.800781c.722656 1.839844 1.121094 3.839844 1.121094 5.839844zm0 0" fill="#fcd770"/><path d="m320.398438 344.558594c-2.71875-.398438-5.519532-.558594-8.398438-.558594 21.839844 0 43.441406-3.359375 64-9.921875l16.640625-6.078125c12.800781-5.28125 25.039063-11.761719 36.640625-19.519531l18.71875-12.480469 27.28125 27.28125c1.597656 1.597656 2.796875 3.519531 3.597656 5.519531l-54.320312 40.800781c-4.878906 3.597657-10.636719 5.757813-16.558594 6.320313-.878906.078125-1.761719.078125-2.640625.078125h-36.800781c-3.679688-6.238281-8.398438-11.679688-13.839844-16.320312-9.519531-8.078126-21.359375-13.519532-34.320312-15.121094zm0 0" fill="#ff826e"/><path d="m464 418.640625v53.359375c0 8.800781-7.199219 16-16 16h-40c-8.800781 0-16-7.199219-16-16v-32h35.121094c3.199218 0 6.320312-.960938 8.878906-2.71875zm0 0" fill="#838f9b"/><path d="m191.519531 213.199219 3.601563-19.121094c2.800781-15.117187 16-26.078125 31.4375-26.078125h170.882812c15.4375 0 28.636719 10.960938 31.4375 26.078125l11.601563 61.921875 7.519531 40h-32l-14.878906-89.28125c-.640625-3.917969-4-6.71875-7.921875-6.71875h-162.398438c-3.921875 0-7.28125 2.800781-7.921875 6.71875l-14.878906 89.28125h-32l7.519531-40zm0 0" fill="#ff826e"/><path d="m448 296-18.71875 12.480469c-11.601562 7.757812-23.839844 14.238281-36.640625 19.519531l-16.640625 6.078125c-20.558594 6.5625-42.160156 9.921875-64 9.921875-41.761719 0-82.558594-12.320312-117.28125-35.519531l-18.71875-12.480469zm0 0" fill="#fc6e51"/><path d="m401.121094 206.71875 14.878906 89.28125h-208l14.878906-89.28125c.640625-3.917969 4-6.71875 7.921875-6.71875h162.398438c3.921875 0 7.28125 2.800781 7.921875 6.71875zm0 0" fill="#69d6f4"/><path d="m368.558594 376c4.320312 6.960938 7.28125 14.800781 8.640625 23.199219l6.800781 40.800781h-32v-4.800781c0-9.199219-.878906-18.320313-2.640625-27.199219-4.320313-23.039062-14.160156-44.800781-28.960937-63.441406 12.960937 1.601562 24.800781 7.042968 34.320312 15.121094 5.441406 4.640624 10.160156 10.082031 13.839844 16.320312zm0 0" fill="#aab2bd"/><path d="m352 435.199219v4.800781h-80v-4.800781c0-9.199219.878906-18.320313 2.640625-27.199219h74.71875c1.761719 8.878906 2.640625 18 2.640625 27.199219zm0 0" fill="#e6e9ed"/><path d="m349.359375 408h-74.71875c4.320313-23.039062 14.160156-44.800781 28.960937-63.441406 2.71875-.398438 5.519532-.558594 8.398438-.558594s5.679688.160156 8.398438.558594c14.800781 18.640625 24.640624 40.402344 28.960937 63.441406zm0 0" fill="#e6e9ed"/><path d="m303.601562 344.558594c-20.320312 2.5625-38 14.402344-48.160156 31.441406h-36.800781c-.878906 0-1.761719 0-2.640625-.078125-5.921875-.5625-11.679688-2.722656-16.558594-6.320313l-54.320312-40.800781c.800781-2 2-3.921875 3.597656-5.519531l27.28125-27.28125 18.71875 12.480469c34.722656 23.199219 75.519531 35.519531 117.28125 35.519531-2.878906 0-5.679688.160156-8.398438.558594zm0 0" fill="#ff826e"/><path d="m255.441406 376c10.160156-17.039062 27.839844-28.878906 48.160156-31.441406-14.800781 18.640625-24.640624 40.402344-28.960937 63.441406-1.761719 8.878906-2.640625 18-2.640625 27.199219v4.800781h-32l6.800781-40.800781c1.359375-8.398438 4.320313-16.238281 8.640625-23.199219zm0 0" fill="#aab2bd"/><path d="m160 418.640625-8.878906-5.921875c-4.480469-2.957031-7.121094-7.917969-7.121094-13.277344v-31.441406l52.800781 37.761719c2.078125 1.4375 4.558594 2.238281 7.121094 2.238281 6.636719 0 12.078125-5.441406 12.078125-12.078125v-20c.878906.078125 1.761719.078125 2.640625.078125h36.800781c-4.320312 6.960938-7.28125 14.800781-8.640625 23.199219l-6.800781 40.800781h-43.121094c-3.199218 0-6.320312-.960938-8.878906-2.71875zm0 0" fill="#ff826e"/><path d="m232 440v32c0 8.800781-7.199219 16-16 16h-40c-8.800781 0-16-7.199219-16-16v-53.359375l28 18.640625c2.558594 1.757812 5.679688 2.71875 8.878906 2.71875zm0 0" fill="#838f9b"/><path d="m216 376v19.921875c0 6.636719-5.441406 12.078125-12.078125 12.078125-2.5625 0-5.042969-.800781-7.121094-2.238281l-52.800781-37.761719v-33.359375c0-2 .398438-4 1.121094-5.839844l54.320312 40.800781c4.878906 3.597657 10.636719 5.757813 16.558594 6.320313zm0 0" fill="#fcd770"/><path d="m496 272v-8c0-8.824219-7.175781-16-16-16h-32.863281l-10.382813-55.375c-3.546875-18.90625-20.074218-32.625-39.304687-32.625h-127.601563c1.398438-7.886719 2.152344-15.921875 2.152344-24 0-74.992188-61.007812-136-136-136s-136 61.007812-136 136c0 72.289062 56.734375 131.414062 128 135.59375v.40625c0 16.617188 12.769531 30.152344 28.992188 31.695312l-13.960938 13.960938c-4.535156 4.527344-7.03125 10.558594-7.03125 16.96875v64.816406c0 8.039063 3.992188 15.503906 10.6875 19.964844l5.3125 3.539062v49.054688c0 13.230469 10.769531 24 24 24h40c13.230469 0 24-10.769531 24-24v-24h144v24c0 13.230469 10.769531 24 24 24h40c13.230469 0 24-10.769531 24-24v-49.054688l5.3125-3.546874c6.695312-4.453126 10.6875-11.917969 10.6875-19.957032v-64.816406c0-6.410156-2.496094-12.441406-7.03125-16.96875l-13.960938-13.960938c16.222657-1.542968 28.992188-15.078124 28.992188-31.695312zm-24 91.886719-49.496094 35.351562c-2.558594 1.816407-6.503906-.222656-6.503906-3.359375v-13.453125c4.785156-1.328125 9.351562-3.441406 13.328125-6.425781l42.671875-32zm-52.273438-.6875c-4.117187 3.097656-9.230468 4.800781-14.390624 4.800781h-32.304688c-5.472656-7.960938-12.464844-14.6875-20.496094-19.9375 8.730469-1.636719 17.394532-3.664062 25.890625-6.359375l-4.839843-15.246094c-19.953126 6.335938-40.664063 9.542969-61.585938 9.542969-38.910156 0-76.574219-11.121094-109.304688-32h218.703126c-10.09375 6.441406-20.742188 12.046875-31.78125 16.601562l6.109374 14.796876c13.242188-5.46875 26.015626-12.277344 37.960938-20.238282l13.296875-8.863281 20.839844 20.839844zm-170.285156 68.800781 5.246094-31.449219c3.039062-18.246093 14.273438-33.199219 29.550781-41.496093-12.589843 22.175781-19.558593 47.3125-20.101562 72.9375h-14.695313zm-52.601562 0c-1.582032 0-3.121094-.464844-4.441406-1.34375l-36.839844-24.558594c-2.230469-1.488281-3.558594-3.976562-3.558594-6.65625v-15.898437l40.191406 28.714843c3.433594 2.445313 7.472656 3.742188 11.6875 3.742188 11.097656 0 20.121094-9.023438 20.121094-20.121094v-11.878906h18.664062c-1.664062 4.441406-2.953124 9.089844-3.761718 13.929688l-5.679688 34.070312zm-97.480469-224 27.152344 47.519531c-8.289063-.65625-16.34375-2.128906-24.078125-4.382812l-24.648438-43.136719zm18.425781 0h21.574219l22.855469 40h-18.214844c-1.089844 0-2.144531.113281-3.175781.320312zm61.574219 0 3.769531 6.601562-5.328125 28.421876-20.015625-35.023438zm10.953125 107.160156c24.734375 16.496094 52.289062 27.519532 81.121094 32.9375-8.019532 5.238282-15 11.964844-20.464844 19.910156h-32.304688c-5.160156 0-10.273437-1.703124-14.398437-4.800781l-48.089844-36.0625 20.839844-20.839843zm125.765625 37.023438c3.816406 5.054687 7.335937 10.3125 10.402344 15.816406h-28.960938c3.066407-5.503906 6.59375-10.761719 10.402344-15.816406 1.351563-.09375 2.703125-.183594 4.078125-.183594s2.726562.089844 4.078125.183594zm-26.054687 31.816406h43.960937c2.085937 5.230469 3.953125 10.550781 5.390625 16h-54.742188c1.4375-5.449219 3.296876-10.769531 5.390626-16zm-95.359376-8c3.984376 2.992188 8.550782 5.097656 13.335938 6.425781v13.453125c0 3.136719-3.953125 5.167969-6.503906 3.351563l-49.496094-35.34375v-19.886719zm86.808594 40h61.054688c.753906 5.296875 1.207031 10.632812 1.335937 16h-63.71875c.121094-5.367188.574219-10.703125 1.328125-16zm58.289063-56.9375c15.277343 8.289062 26.511719 23.25 29.550781 41.496094l5.246094 31.441406h-14.695313c-.542969-25.632812-7.511719-50.769531-20.101562-72.9375zm81.269531-163.488281 17.328125 92.425781h-15.582031l-13.769532-82.640625c-1.304687-7.742187-7.9375-13.359375-15.785156-13.359375h-17.222656v16h17.222656l13.328125 80h-189.109375l13.328125-80h129.230469v-16h-129.222656c-7.839844 0-14.480469 5.617188-15.785156 13.375l-13.769532 82.625h-15.582031l14.222656-75.839844.226563-.128906-.152344-.261719 3.03125-16.183593c2.136719-11.355469 12.046875-19.585938 23.582031-19.585938h170.890625c11.542969 0 21.453125 8.230469 23.589844 19.574219zm-194.480469-35.574219c-19.015625 0-35.335937 13.433594-39.125 32h-157.480469c-.496093-.929688-.90625-1.902344-1.378906-2.847656l14.402344-5.96875-6.128906-14.785156-14.441406 5.984374c-3.253907-9.640624-5.292969-19.824218-5.992188-30.382812h31.59375v-16h-31.59375c.707031-10.558594 2.738281-20.742188 6.007812-30.390625l14.441407 5.984375 6.128906-14.785156-14.398437-5.96875c4.636718-9.335938 10.421874-17.96875 17.222656-25.734375l22.320312 22.320312 11.3125-11.3125-22.320312-22.320312c7.765625-6.800781 16.398437-12.585938 25.734375-17.226563l5.96875 14.402344 14.785156-6.128906-5.984375-14.441406c9.632812-3.253907 19.816406-5.292969 30.375-5.992188v31.59375h16v-31.59375c10.558594.707031 20.742188 2.738281 30.390625 6.007812l-5.984375 14.441407 14.785156 6.128906 5.96875-14.398437c9.335938 4.636718 17.96875 10.421874 25.734375 17.222656l-22.320312 22.320312 11.3125 11.3125 22.320312-22.320312c6.800781 7.765625 12.585938 16.398437 17.226563 25.734375l-14.402344 5.96875 6.128906 14.785156 14.441406-5.984375c3.269532 9.648438 5.300782 19.832031 6.007813 30.390625h-31.609375v16h31.726562c-.351562 5.390625-1.09375 10.738281-2.160156 16h-27.015625zm-186.328125 48h19.136719l18.953125 33.175781c-14.945312-8.238281-27.871094-19.625-38.089844-33.175781zm103.777344 64v-8h29.863281l-4.503906 24h-9.359375c-8.824219 0-16-7.175781-16-16zm80 200c0 4.414062-3.585938 8-8 8h-40c-4.414062 0-8-3.585938-8-8v-38.382812l15.527344 10.351562c3.953125 2.640625 8.5625 4.03125 13.3125 4.03125h27.160156zm232 0c0 4.414062-3.585938 8-8 8h-40c-4.414062 0-8-3.585938-8-8v-24h27.160156c4.742188 0 9.34375-1.390625 13.3125-4.03125l15.527344-10.351562zm12.441406-65.902344-36.832031 24.550782c-1.335937.878906-2.875 1.351562-4.449219 1.351562h-36.382812l-5.679688-34.070312c-.808594-4.839844-2.097656-9.488282-3.761718-13.929688h18.664062v11.878906c0 11.097656 9.023438 20.121094 20.121094 20.121094 4.214844 0 8.253906-1.296875 11.6875-3.753906l40.191406-28.703125v15.898437c0 2.679688-1.328125 5.167969-3.558594 6.65625zm11.558594-134.097656c0 8.824219-7.175781 16-16 16h-9.359375l-4.503906-24h29.863281zm0 0"/><path d="m111.289062 145.359375 24.710938 37.066406 24.710938-37.066406-24.710938-86.480469zm24.710938 8.214844-7.289062-10.933594 7.289062-25.519531 7.289062 25.519531zm0 0"/><path d="m384 72c19.007812 0 36.871094 7.480469 50.3125 21.054688l11.375-11.246094c-16.472656-16.640625-38.375-25.808594-61.6875-25.808594s-45.214844 9.167969-61.6875 25.808594l11.375 11.246094c13.441406-13.574219 31.304688-21.054688 50.3125-21.054688zm0 0"/><path d="m423.289062 104.441406c-10.488281-10.609375-24.449218-16.441406-39.289062-16.441406s-28.800781 5.832031-39.289062 16.441406l11.378906 11.246094c7.453125-7.535156 17.375-11.6875 27.910156-11.6875s20.457031 4.152344 27.910156 11.6875zm0 0"/><path d="m367.113281 127.0625 11.375 11.25c2.953125-2.984375 8.078125-2.984375 11.03125 0l11.375-11.25c-9.023437-9.109375-24.765625-9.109375-33.78125 0zm0 0"/><path d="m128 448h-16v32h-16v-56h-16v56h-16v-80h-16v80h-16v-104h-16v104h-16v16h144v-16h-16zm0 0"/></svg>