<svg height="496pt" viewBox="0 0 496 496" width="496pt" xmlns="http://www.w3.org/2000/svg"><path d="m314.160156 408h-194.160156v-48.640625c0-22.878906 16.160156-42.558594 38.558594-47.039063l81.441406-16.320312s8 24 40 24 40-24 40-24l81.441406 16.320312c22.398438 4.480469 38.558594 24.160157 38.558594 47.039063v48.640625zm0 0" fill="#fcd770"/><path d="m241.839844 137.199219c-6.160156 9.28125-16.480469 14.800781-27.601563 14.800781h-4.878906c-.480469 0-.878906 0-1.359375.078125-16.160156.5625-30.320312 12.640625-31.839844 28.800781-.082031 1.042969-.160156 2.082032-.160156 3.121094v-66.238281c0-25.921875 10.480469-49.28125 27.441406-66.320313 17.039063-16.960937 40.398438-27.441406 66.320313-27.441406 31.4375 0 60.71875 15.679688 78.078125 41.761719l4.160156 6.238281c18.800781 4.71875 32 21.601562 32 40.960938v71.039062c0-1.039062-.078125-2.078125-.160156-3.121094-1.519532-16.160156-15.679688-28.238281-31.839844-28.800781-.480469-.078125-.878906-.078125-1.359375-.078125h-4.878906c-11.121094 0-21.441407-5.519531-27.601563-14.800781-3.839844-5.757813-10.320312-9.199219-17.28125-9.199219-3.199218 0-6.398437.71875-9.277344 2.160156l-11.601562 5.839844-11.601562-5.839844c-2.878907-1.441406-6.078126-2.160156-9.277344-2.160156-6.960938 0-13.441406 3.441406-17.28125 9.199219zm0 0" fill="#b27946"/><g fill="#f0d0b4"><path d="m320 270.238281v25.761719s-8 24-40 24-40-24-40-24v-25.761719l1.121094-1.679687c11.199218 7.28125 24.558594 11.441406 38.878906 11.441406s27.679688-4.160156 38.878906-11.441406zm0 0"/><path d="m352 208v-55.921875c16.160156.5625 30.320312 12.640625 31.839844 28.800781.082031 1.042969.160156 2.082032.160156 3.121094 0 17.601562-14.320312 32-32 32l-.480469-.078125c.320313-2.640625.480469-5.28125.480469-7.921875zm0 0"/><path d="m208 208v-55.921875c.480469-.078125.878906-.078125 1.359375-.078125h4.878906c11.121094 0 21.441407-5.519531 27.601563-14.800781 3.839844-5.757813 10.320312-9.199219 17.28125-9.199219 3.199218 0 6.398437.71875 9.277344 2.160156l11.601562 5.839844 11.601562-5.839844c2.878907-1.441406 6.078126-2.160156 9.277344-2.160156 6.960938 0 13.441406 3.441406 17.28125 9.199219 6.160156 9.28125 16.480469 14.800781 27.601563 14.800781h4.878906c.480469 0 .878906 0 1.359375.078125v55.921875c0 2.640625-.160156 5.28125-.480469 7.921875-2.398437 22.078125-14.800781 41.199219-32.640625 52.636719-11.199218 7.28125-24.558594 11.441406-38.878906 11.441406s-27.679688-4.160156-38.878906-11.441406c-4.320313-2.796875-8.402344-6-12-9.679688-11.28125-11.199218-18.882813-26.238281-20.640625-42.957031-.320313-2.640625-.480469-5.28125-.480469-7.921875zm0 0"/><path d="m208 208c0 2.640625.160156 5.28125.480469 7.921875l-.480469.078125c-17.679688 0-32-14.398438-32-32 0-1.039062.078125-2.078125.160156-3.121094 1.519532-16.160156 15.679688-28.238281 31.839844-28.800781zm0 0"/></g><path d="m72 8v32c-17.679688 0-32 14.320312-32 32h-32c0-35.359375 28.640625-64 64-64zm0 0" fill="#fc6e51"/><path d="m104 72 28.320312 21.28125c-8.71875 24.878906-32.398437 42.71875-60.320312 42.71875v-32c17.679688 0 32-14.320312 32-32zm0 0" fill="#fc6e51"/><path d="m136 72c0 7.441406-1.28125 14.640625-3.679688 21.28125l-28.320312-21.28125c0-17.679688-14.320312-32-32-32v-32c35.359375 0 64 28.640625 64 64zm0 0" fill="#fc6e51"/><path d="m72 104v32c-35.359375 0-64-28.640625-64-64h32c0 17.679688 14.320312 32 32 32zm0 0" fill="#b4dd7f"/><path d="m104 72c0 17.671875-14.328125 32-32 32s-32-14.328125-32-32 14.328125-32 32-32 32 14.328125 32 32zm0 0" fill="#ffeaa7"/><path d="m72 144c23.382812 0 44.566406-11.222656 57.902344-29.449219l14.898437 141.449219h47.199219v-16h-32.800781l-15.605469-148.304688-32.035156-24.015624c-1.894532-17.34375-14.71875-31.441407-31.558594-34.871094v-16.207032c19.585938 2.78125 36.335938 15.65625 43.929688 34.398438l14.832031-6c-11.066407-27.335938-37.265625-45-66.761719-45-39.703125 0-72 32.296875-72 72s32.296875 72 72 72zm-55.359375-64h16.167969c3.191406 15.648438 15.542968 28 31.191406 31.191406v16.167969c-24.472656-3.527344-43.832031-22.886719-47.359375-47.359375zm63.359375 47.398438v-16.207032c13.566406-2.765625 24.542969-12.472656 29.335938-25.191406l13.167968 9.878906c-8.097656 17.136719-23.976562 28.890625-42.503906 31.519532zm16-55.398438c0 13.230469-10.769531 24-24 24s-24-10.769531-24-24 10.769531-24 24-24 24 10.769531 24 24zm-32-55.359375v16.167969c-15.648438 3.191406-28 15.542968-31.191406 31.191406h-16.167969c3.527344-24.472656 22.886719-43.832031 47.359375-47.359375zm0 0"/><path d="m328 176c0 4.417969-3.582031 8-8 8s-8-3.582031-8-8 3.582031-8 8-8 8 3.582031 8 8zm0 0"/><path d="m248 176c0 4.417969-3.582031 8-8 8s-8-3.582031-8-8 3.582031-8 8-8 8 3.582031 8 8zm0 0"/><path d="m280 256c17.648438 0 32-14.351562 32-32h-16c0 8.824219-7.175781 16-16 16s-16-7.175781-16-16h-16c0 17.648438 14.351562 32 32 32zm0 0"/><path d="m324.40625 305.039062 75.441406 15.089844c18.632813 3.726563 32.152344 20.222656 32.152344 39.222656v48.648438h16v-48.648438c0-26.589843-18.929688-49.695312-45.015625-54.910156l-74.984375-14.992187v-17.601563c15.496094-11.679687 26.648438-28.792968 30.488281-48.527344 8.824219-1.464843 17.023438-5.710937 23.121094-12.417968 6.679687-7.34375 10.144531-16.992188 10.167969-26.894532h.222656v-71.015624c0-22.023438-14.222656-41.265626-34.976562-47.863282l-2.519532-3.792968c-18.917968-28.390626-50.582031-45.335938-84.703125-45.335938-56.136719 0-101.800781 45.664062-101.800781 101.800781v66.199219h.222656c.023438 9.910156 3.488282 19.550781 10.167969 26.894531 6.089844 6.707031 14.296875 10.953125 23.121094 12.417969 3.847656 19.742188 15 36.855469 30.488281 48.527344v17.601562l-74.984375 14.992188c-26.085937 5.222656-45.015625 28.328125-45.015625 54.917968v48.648438h16v-48.648438c0-19 13.519531-35.496093 32.160156-39.222656l75.441406-15.089844c5.230469 8.6875 17.839844 22.960938 44.398438 22.960938s39.167969-14.273438 44.40625-22.960938zm45.363281-104.894531c-2.679687 2.953125-6.082031 5.039063-9.769531 6.359375v-44.777344c8.609375 3.265626 15.023438 10.839844 15.886719 19.898438.65625 6.871094-1.519531 13.453125-6.117188 18.519531zm-99.96875-168.144531c28.757813 0 55.445313 14.28125 71.390625 38.199219l5.871094 8.808593 3 .753907c15.273438 3.8125 25.9375 17.476562 25.9375 33.222656v39.695313c-4.679688-3.542969-10.089844-6.152344-16-7.503907v-9.175781h-16v7.785156c-7.742188-.546875-14.847656-4.464844-19.183594-10.984375-5.34375-8.015625-14.28125-12.800781-23.914062-12.800781-4.4375 0-8.871094 1.046875-12.855469 3.03125l-8.046875 4.023438-8.046875-4.023438c-3.976563-1.984375-8.417969-3.03125-12.847656-3.03125-9.632813 0-18.570313 4.785156-23.914063 12.800781-4.34375 6.519531-11.4375 10.445313-19.183594 10.984375v-7.785156h-16v9.175781c-5.910156 1.351563-11.320312 3.960938-16 7.503907v-34.878907c-.007812-47.304687 38.488282-85.800781 85.792969-85.800781zm-85.6875 149.617188c.863281-9.058594 7.277344-16.632813 15.886719-19.898438v44.777344c-3.6875-1.3125-7.089844-3.40625-9.769531-6.359375-4.597657-5.058594-6.773438-11.640625-6.117188-18.519531zm31.886719 26.382812v-48.105469c13.121094-.550781 25.175781-7.230469 32.496094-18.222656 3.464844-5.191406 10.71875-7.105469 16.304687-4.328125l15.199219 7.601562 15.183594-7.601562c5.59375-2.777344 12.847656-.863281 16.3125 4.328125 7.320312 10.992187 19.375 17.664063 32.496094 18.222656v48.105469c0 35.289062-28.710938 64-64 64-35.289063 0-63.992188-28.710938-63.992188-64zm64 104c-22.28125 0-30.175781-13.617188-32-17.566406v-13.160156c9.808594 4.300781 20.625 6.726562 32 6.726562s22.191406-2.425781 32-6.726562v13.183593c-1.734375 3.824219-9.550781 17.542969-32 17.542969zm0 0"/><path d="m400 0h96v16h-96zm0 0"/><path d="m400 32h96v16h-96zm0 0"/><path d="m400 64h96v16h-96zm0 0"/><path d="m440 96h16v16h-16zm0 0"/><path d="m408 96h16v16h-16zm0 0"/><path d="m472 96h16v16h-16zm0 0"/><path d="m0 176h128v16h-128zm0 0"/><path d="m16 208h112v16h-112zm0 0"/><path d="m32 240h96v16h-96zm0 0"/><path d="m0 448h128v16h-128zm0 0"/><path d="m0 416h40v16h-40zm0 0"/><path d="m56 416h40v16h-40zm0 0"/><path d="m0 384h96v16h-96zm0 0"/><path d="m368 256h90.726562l21.921876 51.152344 14.703124-6.304688-26.078124-60.847656h-101.273438zm0 0"/><path d="m408 208h88v16h-88zm0 0"/><path d="m408 176h88v16h-88zm0 0"/><path d="m154.847656 480h-154.847656v16h165.152344l42.128906-92.6875-14.5625-6.625zm0 0"/><path d="m319.71875 397.894531-15.4375 4.210938 25.605469 93.894531h166.113281v-16h-153.886719zm0 0"/><path d="m352 448h144v16h-144zm0 0"/><path d="m352 416h16v16h-16zm0 0"/><path d="m384 416h16v16h-16zm0 0"/><path d="m416 416h16v16h-16zm0 0"/></svg>