<svg height="496pt" viewBox="0 0 496 496" width="496pt" xmlns="http://www.w3.org/2000/svg"><path d="m488 456v32h-112v-32zm0 0" fill="#b4dd7f"/><path d="m120 456v32h-112v-32zm0 0" fill="#b4dd7f"/><path d="m375.28125 240c-19.359375-51.441406-69.042969-88-127.28125-88s-107.921875 36.558594-127.28125 88c-5.679688 14.960938-8.71875 31.121094-8.71875 48h5.679688c-8.160157 0-15.28125 5.28125-17.601563 13.039062l-17.679687 58.960938c-.398438 1.441406-1.117188 2.71875-2.078126 3.839844-10.480468-23.121094-16.320312-48.800782-16.320312-75.839844 0-8.71875.640625-17.28125 1.839844-25.679688 3.839844-28.082031 14.160156-54.160156 29.199218-76.640624 33.039063-49.28125 89.199219-81.679688 152.960938-81.679688s119.921875 32.398438 152.960938 81.679688c15.039062 22.480468 25.359374 48.558593 29.199218 76.640624 1.199219 8.398438 1.839844 16.960938 1.839844 25.679688 0 27.039062-5.839844 52.71875-16.320312 75.839844-.960938-1.121094-1.679688-2.398438-2.078126-3.839844l-17.679687-58.960938c-1.761719-5.839843-6.242187-10.320312-11.921875-12.160156 0-.320312 0-.558594 0-.878906 0-16.878906-3.039062-33.039062-8.71875-48zm0 0" fill="#838f9b"/><path d="m272 421.921875c44.078125-7.921875 80.800781-36.960937 99.199219-76.320313l19.519531 58.558594c-33.757812 41.359375-85.117188 67.839844-142.71875 67.839844-57.199219 0-108.238281-26.078125-142-66.960938l-.878906-.320312 18.71875-56.320312 2.71875.882812c18.960937 37.519531 54.800781 65.039062 97.441406 72.640625 7.761719 1.359375 15.839844 2.078125 24 2.078125s16.238281-.71875 24-2.078125zm0 0" fill="#838f9b"/><path d="m420.800781 190.238281 49.757813 63.921875c.960937 1.199219 1.601562 2.640625 2 4.160156l15.121094 60.320313c.242187.878906.320312 1.839844.320312 2.71875v69.28125c0 .878906-.078125 1.839844-.320312 2.71875l-15.679688 62.640625h-80v-48l-1.28125-3.839844-19.519531-58.558594-10.238281-30.800781c-.640626-1.839843-.960938-3.839843-.960938-5.761719v-2.71875c0-9.28125 6.960938-17.039062 16-18.160156.71875-.082031 1.519531-.160156 2.320312-.160156 2 0 3.917969.320312 5.679688.878906 5.679688 1.839844 10.160156 6.320313 11.921875 12.160156l17.679687 58.960938c.398438 1.441406 1.117188 2.71875 2.078126 3.839844 2.082031 2.558594 5.28125 4.160156 8.71875 4.160156 4.5625 0 8.722656-2.800781 10.402343-7.039062l11.839844-29.601563c.878906-2.160156 1.039063-4.558594.480469-6.878906l-14.640625-58.402344c-.320313-1.359375-.878907-2.636719-1.761719-3.839844l-.558594.082031c-3.839844-28.082031-14.160156-54.160156-29.199218-76.640624 2.160156-1.039063 4.558593-1.679688 7.117187-1.679688 5.042969 0 9.683594 2.320312 12.722656 6.238281zm0 0" fill="#f0d0b4"/><path d="m136 309.039062c0 1.921876-.320312 3.921876-.960938 5.761719l-11.199218 33.597657-18.71875 56.320312-1.121094 3.28125v48h-80l-15.679688-62.640625c-.242187-.878906-.320312-1.839844-.320312-2.71875v-69.28125c0-.878906.078125-1.839844.320312-2.71875l15.121094-60.320313c.398438-1.519531 1.039063-2.960937 2-4.160156l49.757813-63.921875c3.039062-3.917969 7.679687-6.238281 12.722656-6.238281 2.558594 0 4.957031.640625 7.117187 1.679688-15.039062 22.480468-25.359374 48.558593-29.199218 76.640624l-.558594-.082031c-.882812 1.203125-1.441406 2.480469-1.761719 3.839844l-14.640625 58.402344c-.558594 2.320312-.398437 4.71875.480469 6.878906l11.839844 29.601563c1.679687 4.238281 5.839843 7.039062 10.402343 7.039062 3.4375 0 6.636719-1.601562 8.71875-4.160156.960938-1.121094 1.679688-2.398438 2.078126-3.839844l17.679687-58.960938c2.320313-7.757812 9.441406-13.039062 17.601563-13.039062 10.082031 0 18.320312 8.238281 18.320312 18.320312zm0 0" fill="#f0d0b4"/><path d="m375.28125 240c5.679688 14.960938 8.71875 31.121094 8.71875 48v.878906c-1.761719-.558594-3.679688-.878906-5.679688-.878906-.800781 0-1.601562.078125-2.320312.160156v-.160156h-40c-11.601562 0-22.398438 3.121094-31.761719 8.480469l-.238281-.480469c0-20.480469-8.160156-40.160156-22.640625-54.640625l-1.359375-1.359375zm0 0" fill="#ccd1d9"/><path d="m216 240-1.359375 1.359375c-14.480469 14.480469-22.640625 34.160156-22.640625 54.640625l-.238281.480469c-9.363281-5.359375-20.160157-8.480469-31.761719-8.480469h-48c0-16.878906 3.039062-33.039062 8.71875-48zm0 0" fill="#ccd1d9"/><path d="m304 296 .238281.480469c-19.277343 10.960937-32.238281 31.757812-32.238281 55.519531v69.921875c-7.761719 1.359375-15.839844 2.078125-24 2.078125s-16.238281-.71875-24-2.078125v-69.921875c0-23.761719-12.960938-44.558594-32.238281-55.519531l.238281-.480469c0-20.480469 8.160156-40.160156 22.640625-54.640625l1.359375-1.359375h64l1.359375 1.359375c14.480469 14.480469 22.640625 34.160156 22.640625 54.640625zm0 0" fill="#b4dd7f"/><path d="m264 288c0 8.835938-7.164062 16-16 16s-16-7.164062-16-16 7.164062-16 16-16 16 7.164062 16 16zm0 0" fill="#fcd770"/><path d="m496 390.617188v-69.234376c0-1.566406-.191406-3.144531-.574219-4.664062l-15.089843-60.375c-.664063-2.625-1.839844-5.03125-3.480469-7.136719l-49.703125-63.902343c-5.417969-6.953126-14.535156-10.160157-23.023438-8.847657-34.863281-48.65625-91.839844-80.457031-156.128906-80.457031-64.273438 0-121.230469 31.785156-156.097656 80.414062-8.496094-1.308593-17.628906 1.921876-23.054688 8.890626l-49.6875 63.886718c-1.65625 2.121094-2.832031 4.519532-3.496094 7.167969l-15.089843 60.359375c-.382813 1.519531-.574219 3.097656-.574219 4.664062v69.234376c0 1.566406.191406 3.144531.574219 4.664062l13.179687 52.71875h-13.753906v48h128v-48h-16v-24.550781c35.921875 36.101562 84.535156 56.550781 136 56.550781 51.519531 0 100.078125-20.414062 136-56.527344v24.527344h-16v48h128v-48h-13.753906l13.179687-52.71875c.382813-1.519531.574219-3.097656.574219-4.664062zm-248-278.617188c97.046875 0 176 78.953125 176 176 0 17.96875-2.703125 35.488281-7.953125 52.320312l-12.460937-41.542968c-1.960938-6.546875-6.265626-11.777344-11.800782-15.058594-2.289062-77.40625-65.824218-139.71875-143.785156-139.71875s-141.496094 62.3125-143.785156 139.71875c-5.535156 3.28125-9.839844 8.511719-11.800782 15.058594l-12.460937 41.542968c-5.25-16.839843-7.953125-34.34375-7.953125-52.320312 0-97.046875 78.953125-176 176-176zm191.351562 214.40625c.167969.671875.121094 1.371094-.136718 2.007812l-11.816406 29.53125c-.207032.519532-.613282.847657-1.03125 1.152344 5.183593-12.96875 8.921874-26.355468 11.136718-40.066406zm-86-9.046875 9.207032 27.632813c-16.679688 33.449218-47.160156 57.609374-82.558594 66.824218v-59.816406c0-30.871094 25.121094-56 56-56h18.128906c-1.359375 3.183594-2.128906 6.679688-2.128906 10.351562v2.671876c0 2.832031.457031 5.640624 1.351562 8.335937zm-211.480468-21.359375h18.128906c30.878906 0 56 25.128906 56 56v59.921875c-35.246094-9.019531-65.335938-32.683594-82.304688-66.257813l-.582031.296876 9.535157-28.601563c.894531-2.695313 1.351562-5.503906 1.351562-8.335937v-2.671876c0-3.671874-.769531-7.167968-2.128906-10.351562zm169.273437-11.488281c-1.769531-13.160157-6.496093-25.609375-13.960937-36.511719h72.328125c3.351562 10.167969 5.390625 20.894531 6.089843 32h-39.601562c-8.742188 0-17.097656 1.648438-24.855469 4.511719zm-178.066406-52.511719c20.824219-42.550781 64.441406-72 114.921875-72s94.097656 29.449219 114.921875 72zm-6.589844 16h72.328125c-7.464844 10.902344-12.191406 23.351562-13.960937 36.511719-7.757813-2.863281-16.113281-4.511719-24.855469-4.511719h-39.59375c.691406-11.105469 2.730469-21.832031 6.082031-32zm73.695313 44.289062c.878906-16.65625 7.59375-32.210937 19.222656-44.289062h57.1875c11.628906 12.070312 18.34375 27.625 19.222656 44.289062-19.175781 12.941407-31.816406 34.878907-31.816406 59.710938v62.921875c-5.273438.671875-10.609375 1.078125-16 1.078125-5.40625 0-10.734375-.382812-16-1.039062v-62.960938c0-24.832031-12.640625-46.769531-31.816406-59.710938zm-141.695313 26.734376c2.222657 13.71875 5.960938 27.105468 11.144531 40.074218-.417968-.296875-.832031-.625-1.039062-1.144531l-11.816406-29.527344c-.257813-.648437-.304688-1.347656-.136719-2.019531zm53.511719 160.976562h-96v-16h96zm-81.742188-32-14.257812-57.382812.097656-70.023438 15.078125-60.328125c.113281-.457031.3125-.867187.601563-1.226563l45.191406-58.109374c-9.074219 17.742187-15.496094 37.046874-18.671875 57.429687-1.152344 1.777344-2.058594 3.695313-2.578125 5.777344l-14.597656 58.398437c-.984375 3.945313-.714844 8.03125.808594 11.824219l11.8125 29.542969c2.9375 7.34375 9.960937 12.097656 17.882812 12.097656 8.566406 0 15.984375-5.511719 18.445312-13.726562l17.671876-58.898438c1.320312-4.414062 5.304687-7.375 9.914062-7.375 5.703125 0 10.34375 4.640625 10.34375 10.351562v2.671876c0 1.121093-.175781 2.214843-.527344 3.273437l-31.472656 94.40625v41.296875zm217.742188 16c-51.640625 0-100.160156-22.449219-133.695312-61.625l12.328124-36.96875c26.320313 41.378906 71.582032 66.59375 121.367188 66.59375 49.335938 0 95.144531-25.640625 121.367188-66.59375l12.320312 36.960938c-33.542969 39.191406-81.992188 61.632812-133.6875 61.632812zm232 16h-96v-16h96zm-80-32v-41.296875l-31.472656-94.40625c-.351563-1.058594-.527344-2.152344-.527344-3.273437v-2.671876c0-5.710937 4.640625-10.351562 10.34375-10.351562 4.609375 0 8.59375 2.960938 9.914062 7.375l17.671876 58.898438c2.460937 8.214843 9.878906 13.726562 18.445312 13.726562 7.921875 0 14.945312-4.753906 17.882812-12.113281l11.820313-29.542969c1.515625-3.785156 1.785156-7.863281.800781-11.816406l-14.597656-58.414063c-.519531-2.074219-1.425781-3.984375-2.578125-5.761719-3.167969-20.375-9.597656-39.679687-18.664063-57.414062l45.191407 58.109375c.273437.34375.472656.761719.585937 1.183594l15.183594 61.152343-.097656 70.023438-14.148438 56.59375zm0 0"/><path d="m272 288c0-13.230469-10.769531-24-24-24s-24 10.769531-24 24 10.769531 24 24 24 24-10.769531 24-24zm-32 0c0-4.414062 3.59375-8 8-8s8 3.585938 8 8-3.59375 8-8 8-8-3.585938-8-8zm0 0"/><path d="m248 16c19 0 36.871094 7.480469 50.320312 21.054688l11.367188-11.246094c-16.472656-16.640625-38.382812-25.808594-61.6875-25.808594s-45.214844 9.167969-61.679688 25.808594l11.367188 11.246094c13.441406-13.574219 31.3125-21.054688 50.3125-21.054688zm0 0"/><path d="m287.289062 48.441406c-10.496093-10.609375-24.449218-16.441406-39.289062-16.441406s-28.792969 5.832031-39.289062 16.441406l11.367187 11.246094c7.464844-7.535156 17.386719-11.6875 27.921875-11.6875s20.457031 4.152344 27.921875 11.6875zm0 0"/><path d="m231.113281 71.0625 11.375 11.25c2.953125-2.984375 8.070313-2.984375 11.023438 0l11.375-11.25c-9.007813-9.109375-24.765625-9.109375-33.773438 0zm0 0"/></svg>