<svg height="496pt" viewBox="0 0 496 496" width="496pt" xmlns="http://www.w3.org/2000/svg"><path d="m296 80c8.800781 0 16 7.199219 16 16 0 4.398438-1.761719 8.398438-4.71875 11.28125-2.882812 2.957031-6.882812 4.71875-11.28125 4.71875h-18l-6.71875-31.839844.71875-.160156zm0 0" fill="#ccd1d9"/><path d="m48.71875 80.160156-6.71875 31.839844h-18c-4.398438 0-8.398438-1.761719-11.28125-4.71875-2.957031-2.882812-4.71875-6.882812-4.71875-11.28125 0-8.800781 7.199219-16 16-16h24zm0 0" fill="#ccd1d9"/><path d="m272 216v24c0 4.398438-3.601562 8-8 8h-32c-4.398438 0-8-3.601562-8-8v-24h40c2.640625 0 5.28125-.320312 7.761719-.960938zm0 0" fill="#838f9b"/><path d="m48 216 .238281-.960938c2.480469.640626 5.121094.960938 7.761719.960938h40v24c0 4.398438-3.601562 8-8 8h-32c-4.398438 0-8-3.601562-8-8zm0 0" fill="#838f9b"/><path d="m296 176v8c0 14.960938-10.320312 27.601562-24.238281 31.039062-2.480469.640626-5.121094.960938-7.761719.960938h-72v-16h-64v16h-72c-2.640625 0-5.28125-.320312-7.761719-.960938-13.917969-3.4375-24.238281-16.078124-24.238281-31.039062v-8l33.441406 6.71875c4.320313.800781 8.796875 1.28125 13.277344 1.28125 15.121094 0 28.480469-9.679688 33.28125-24l.320312-3.039062c16.71875 1.757812 35.601563 3.039062 55.679688 3.039062 20.800781 0 39.519531-1.121094 55.679688-2.71875l.320312 2.71875c4.800781 14.320312 18.160156 24 33.28125 24 4.480469 0 8.957031-.480469 13.277344-1.28125zm0 0" fill="#ffeaa7"/><path d="m192 216v16h-64v-32h64zm0 0" fill="#ccd1d9"/><path d="m215.679688 157.28125c46.082031-4.5625 72.320312-13.28125 72.320312-13.28125l2.640625-1.359375 2 4c2.238281 4.398437 3.359375 9.28125 3.359375 14.320313v15.039062l-33.441406 6.71875c-4.320313.800781-8.796875 1.28125-13.277344 1.28125-15.121094 0-28.480469-9.679688-33.28125-24zm0 0" fill="#e6e9ed"/><path d="m32 144s29.121094 8.320312 72.320312 12.960938l-.320312 3.039062c-4.800781 14.320312-18.160156 24-33.28125 24-4.480469 0-8.957031-.480469-13.277344-1.28125l-33.441406-6.71875v-15.039062c0-5.039063 1.121094-9.921876 3.359375-14.320313l2-4zm0 0" fill="#e6e9ed"/><path d="m280 121.359375 10.640625 21.28125-2.640625 1.359375s-26.238281 8.71875-72.320312 13.28125c-16.160157 1.597656-34.878907 2.71875-55.679688 2.71875-20.078125 0-38.960938-1.28125-55.679688-3.039062-43.199218-4.640626-72.320312-12.960938-72.320312-12.960938l-2.640625-1.359375 10.640625-21.28125zm0 0" fill="#fcd770"/><path d="m280 121.359375h-31.28125v-1.359375l-17.199219-73.839844c-.878906-3.601562-4.078125-6.160156-7.839843-6.160156h-127.359376c-3.761718 0-6.960937 2.558594-7.839843 6.160156l-17.199219 73.839844v1.359375h-31.28125l2-9.359375 6.71875-31.839844 9.921875-46.800781c3.121094-14.800781 16.160156-25.359375 31.28125-25.359375h140.15625c15.121094 0 28.160156 10.558594 31.28125 25.359375l9.921875 46.800781 6.71875 31.839844zm0 0" fill="#ffeaa7"/><path d="m248.71875 120v1.359375h-177.4375v-1.359375l17.199219-73.839844c.878906-3.601562 4.078125-6.160156 7.839843-6.160156h127.359376c3.761718 0 6.960937 2.558594 7.839843 6.160156zm0 0" fill="#69d6f4"/><path d="m136 296v16c0 8.800781-3.601562 16.800781-9.359375 22.640625-5.839844 5.757813-13.839844 9.359375-22.640625 9.359375-17.679688 0-32-14.320312-32-32v-16zm0 0" fill="#ccd1d9"/><path d="m328 328v32h-32v-32zm0 0" fill="#838f9b"/><path d="m488 456v32h-176v-32zm0 0" fill="#cf9e76"/><path d="m472 208v248h-144v-248c0-4.398438 3.601562-8 8-8h128c4.398438 0 8 3.601562 8 8zm0 0" fill="#fcd770"/><path d="m360 232h80v48h-80zm0 0" fill="#69d6f4"/><path d="m480 448v-240c0-8.824219-7.175781-16-16-16h-128c-8.824219 0-16 7.175781-16 16v112h-32v16h-32v124c0 11.03125-8.976562 20-20 20s-20-8.96875-20-20v-12h-16v12c0 19.847656 16.152344 36 36 36s36-16.152344 36-36v-108h16v16h32v80h-16v48h192v-48zm-176-96v-16h16v16zm32-144h128v240h-128zm144 272h-160v-16h160zm0 0"/><path d="m352 224v64h96v-64zm80 48h-64v-32h64zm0 0"/><path d="m415.160156 315.574219-14.320312-7.148438-29.785156 59.574219h32.808593l-19.214843 44.847656 14.703124 6.304688 28.785157-67.152344h-31.191407zm0 0"/><path d="m200 368h16v-8c0-17.648438-14.351562-32-32-32s-32 14.351562-32 32v100c0 11.03125-8.976562 20-20 20s-20-8.96875-20-20v-108.808594c18.230469-3.71875 32-19.871094 32-39.191406v-24h-16v-16h-16v16h-16v-16h-16v16h-16v24c0 19.3125 13.769531 35.472656 32 39.191406v108.808594c0 19.847656 16.152344 36 36 36s36-16.152344 36-36v-100c0-8.824219 7.175781-16 16-16s16 7.175781 16 16zm-120-56v-8h48v8c0 13.230469-10.769531 24-24 24s-24-10.769531-24-24zm0 0"/><path d="m200 384h16v16h-16zm0 0"/><path d="m200 416h16v16h-16zm0 0"/><path d="m104 240v-16h16v16h80v-16h16v16c0 8.824219 7.175781 16 16 16h32c8.824219 0 16-7.175781 16-16v-19.390625c14.105469-6.195313 24-20.25 24-36.609375v-23.070312c0-6.175782-1.464844-12.371094-4.222656-17.890626l-11.519532-23.039062h7.742188c13.230469 0 24-10.769531 24-24s-10.769531-24-24-24h-18.273438l-8.527343-40.28125c-3.894531-18.382812-20.351563-31.71875-39.136719-31.71875h-140.125c-18.785156 0-35.242188 13.335938-39.136719 31.71875l-8.527343 40.28125h-18.273438c-13.230469 0-24 10.769531-24 24s10.769531 24 24 24h7.742188l-11.519532 23.039062c-2.757812 5.519532-4.222656 11.714844-4.222656 17.890626v23.070312c0 16.359375 9.894531 30.414062 24 36.609375v19.390625c0 8.824219 7.175781 16 16 16h32c8.824219 0 16-7.175781 16-16zm80-16h-48v-16h48zm80 16h-32v-16h32zm-230.375-87.28125c8.382812 2.167969 30.03125 7.289062 59.679688 11.007812-4.929688 7.511719-13.304688 12.273438-22.601563 12.273438-3.933594 0-7.871094-.390625-11.703125-1.160156l-27-5.398438v-8.511718c0-2.808594.65625-5.570313 1.625-8.210938zm7.023438-14.757812 4.296874-8.585938h230.109376l4.386718 8.777344c-15.007812 4.054687-57.617187 13.847656-119.441406 13.847656-56.167969 0-102.839844-10.007812-119.351562-14.039062zm245.777343 14.871093c.933594 2.609375 1.574219 5.328125 1.574219 8.097657v8.511718l-27 5.398438c-3.832031.769531-7.769531 1.160156-11.703125 1.160156-9.128906 0-17.386719-4.585938-22.335937-11.855469 30.773437-3.664062 51.230468-8.929687 59.464843-11.3125zm9.574219-64.832031c4.40625 0 8 3.585938 8 8s-3.59375 8-8 8h-11.496094l-3.382812-16zm-229.542969-52.96875c2.335938-11.023438 12.207031-19.03125 23.480469-19.03125h140.132812c11.273438 0 21.144532 8.007812 23.480469 19.03125l16.585938 78.34375h-14.761719l-16.0625-69c-1.703125-7.285156-8.113281-12.375-15.59375-12.375h-95.71875v16h95.71875l15.21875 65.375h-157.875l15.226562-65.375h15.710938v-16h-15.710938c-7.480468 0-13.890624 5.089844-15.585937 12.375l-16.070313 69h-14.761718zm-50.457031 60.96875c0-4.414062 3.59375-8 8-8h14.886719l-3.382813 16h-11.503906c-4.40625 0-8-3.585938-8-8zm16.183594 89.792969 23.679687 4.734375c4.855469.976562 9.847657 1.472656 14.839844 1.472656 17.449219 0 32.890625-10.519531 39.585937-26.382812 15.199219 1.429687 31.941407 2.382812 49.710938 2.382812 18.382812 0 34.984375-.847656 49.824219-2.128906 6.761719 15.730468 22.121093 26.128906 39.472656 26.128906 4.992187 0 9.984375-.496094 14.839844-1.472656l23.679687-4.734375c-.9375 12.382812-11.199218 22.207031-23.816406 22.207031h-64v-16h-80v16h-64c-12.617188 0-22.878906-9.824219-23.816406-22.207031zm23.816406 38.207031h32v16h-32zm0 0"/></svg>