<svg height="491pt" viewBox="-89 0 491 491.312" width="491pt" xmlns="http://www.w3.org/2000/svg"><path d="m248.15625 83.3125 8 8v16l-8 8 8 8v16l-8 8 8 8v64h-64v-176l32-32 32 32v32zm0 0" fill="#ffeaa7"/><path d="m168.15625 219.3125h112c13.28125 0 24 10.71875 24 24v176c0 13.28125-10.71875 24-24 24h-96c0-22.082031-17.921875-40-40-40v-160c0-13.28125 10.71875-24 24-24zm0 0" fill="#b4dd7f"/><g fill="#ccd1d9"><path d="m144.15625 403.3125c22.078125 0 40 17.917969 40 40h-16c-2.640625 0-5.199219-.402344-7.519531-1.28125-9.601563-3.121094-16.480469-12.078125-16.480469-22.71875zm0 0"/><path d="m272.15625 315.3125h-90.480469c13.121094-37.28125 48.640625-64 90.480469-64zm0 0"/><path d="m181.675781 315.3125h90.480469v64h-96v-32c0-11.199219 1.917969-22 5.519531-32zm0 0"/></g><path d="m176.179688 307.3125h-.023438v.0625c-5.136719 12.304688-8 25.792969-8 39.9375v40h112v-144h-8c-43.175781 0-80.273438 26.457031-95.976562 64zm87.976562-47.640625v47.640625h-70.359375c13.429687-26.214844 39.640625-44.855469 70.359375-47.640625zm-80 111.640625v-24c0-8.320312 1.191406-16.367188 3.359375-24h76.640625v48zm0 0"/><path d="m200.15625 339.3125h16v16h-16zm0 0"/><path d="m232.15625 339.3125h16v16h-16zm0 0"/><path d="m232.15625 275.3125h16v16h-16zm0 0"/><path d="m280.15625 211.3125h-16v-59.3125l-4.6875-4.6875 4.6875-4.6875v-22.625l-4.6875-4.6875 4.6875-4.6875v-22.625l-4.6875-4.6875 4.6875-4.6875v-38.625l-40-40-40 40v171.3125h-16c-17.648438 0-32 14.351562-32 32v168h-96c-22.054688 0-40 17.945312-40 40s17.945312 40 40 40h2.457031c4.597657 0 9.125-.792969 13.453125-2.335938l106.785156-38.136718-.023437-.070313c1.734375.300781 3.496094.542969 5.328125.542969h112c17.648438 0 32-14.351562 32-32v-176c0-17.648438-14.351562-32-32-32zm-80-164.6875 16-16v124.6875h16v-124.6875l16 16v25.375l-11.3125 11.3125 11.3125 11.3125v9.375l-11.3125 11.3125 11.3125 11.3125v9.375l-11.3125 11.3125 11.3125 11.3125v52.6875h-16v-40h-16v40h-16zm-149.480469 427.285156c-2.589843.929688-5.3125 1.402344-8.0625 1.402344h-2.457031c-13.230469 0-24-10.769531-24-24 0-13.234375 10.769531-24 24-24h97.136719c1.285156 4.96875 3.726562 9.429688 7.039062 13.160156zm101.480469-54.597656v-6.863281c11.191406 2.910156 19.960938 11.671875 22.863281 22.863281h-6.863281c-8.824219 0-16-7.175781-16-16zm144 0c0 8.824219-7.175781 16-16 16h-88.71875c-3.386719-20.054688-19.226562-35.886719-39.28125-39.28125v-152.71875c0-8.824219 7.175781-16 16-16h112c8.824219 0 16 7.175781 16 16zm0 0"/><path d="m168.15625 243.3125h16v16h-16zm0 0"/></svg>