<svg height="480pt" viewBox="-63 0 479 480" width="480pt" xmlns="http://www.w3.org/2000/svg"><path d="m40.5 72h272c17.671875 0 32 14.328125 32 32v336c0 17.671875-14.328125 32-32 32h-272c-17.671875 0-32-14.328125-32-32v-336c0-17.671875 14.328125-32 32-32zm0 0" fill="#fee5b5"/><path d="m168.5 120h16v352h-16zm0 0" fill="#e9cfb7"/><path d="m232.5 200h64v64c0 8.835938-7.164062 16-16 16h-32c-8.835938 0-16-7.164062-16-16zm0 0" fill="#fff"/><path d="m224.5 8h-96l-32 64h40v48h80v-48h40zm0 0" fill="#e9cfb7"/><path d="m128.5 152-32-80 32-64 48 112zm0 0" fill="#ac8168"/><path d="m224.5 152 32-80-32-64-48 112zm0 0" fill="#ac8168"/><path d="m261.445312 64-29.746093-59.574219c-.070313-.136719-.175781-.226562-.246094-.355469-.074219-.125-.136719-.328124-.234375-.46875-.15625-.207031-.324219-.402343-.503906-.585937-.175782-.234375-.363282-.457031-.566406-.671875-.320313-.292969-.660157-.5625-1.023438-.800781-.207031-.160157-.421875-.3125-.640625-.453125-.507813-.285156-1.042969-.511719-1.601563-.675782-.105468-.050781-.214843-.089843-.328124-.125-.667969-.1875-1.359376-.2812495-2.054688-.289062h-96c-1.40625.00390625-2.785156.378906-4 1.089844-.152344.09375-.28125.207031-.433594.308594-.417968.296874-.808594.632812-1.167968 1-.175782.1875-.328126.386718-.496094.585937-.167969.199219-.382813.398437-.542969.640625-.160156.238281-.152344.328125-.238281.480469-.089844.152343-.175782.214843-.242188.34375l-29.824218 59.550781h-51.054688c-22.082031.027344-39.972656 17.917969-40 40v336c.027344 22.082031 17.917969 39.972656 40 40h272c22.082031-.027344 39.972656-17.917969 40-40v-336c-.027344-22.082031-17.917969-39.972656-40-40zm-84.945312 35.695312-8.441406-19.695312h16.882812zm34.214844-39.199218 14.34375-33.488282 22.640625 45.351563-27 67.511719-34.253907-22.839844zm1.648437-44.496094-20.566406 48h-30.59375l-20.566406-48zm-84.421875 11.007812 14.34375 33.449219 24.238282 56.574219-34.253907 22.839844-26.96875-67.511719zm-111.441406 412.992188v-336c0-13.253906 10.746094-24 24-24h50.585938l29.980468 74.976562c.898438 2.238282 2.757813 3.953126 5.058594 4.667969 2.304688.714844 4.808594.351563 6.816406-.988281l35.558594-23.710938v329.054688h-128c-13.253906 0-24-10.746094-24-24zm320-336v336c0 13.253906-10.746094 24-24 24h-128v-329.054688l35.558594 23.710938c1.316406.875 2.859375 1.34375 4.441406 1.34375 3.273438.003906 6.214844-1.988281 7.433594-5.023438l29.980468-74.976562h50.585938c13.253906 0 24 10.746094 24 24zm0 0"/><path d="m296.5 192h-64c-4.417969 0-8 3.582031-8 8v64c0 13.253906 10.746094 24 24 24h32c13.253906 0 24-10.746094 24-24v-64c0-4.417969-3.582031-8-8-8zm-8 72c0 4.417969-3.582031 8-8 8h-32c-4.417969 0-8-3.582031-8-8v-56h48zm0 0"/></svg>