<svg height="480pt" viewBox="0 -24 480 480" width="480pt" xmlns="http://www.w3.org/2000/svg"><path d="m472 136h-64v-48c0-32 24-80 32-80s32 48 32 80zm0 0" fill="#e9cfb7"/><path d="m56 72h112c8.835938 0 16 7.164062 16 16s-7.164062 16-16 16h-112c-8.835938 0-16-7.164062-16-16s7.164062-16 16-16zm0 0" fill="#60a2d7"/><path d="m56 40h112c8.835938 0 16 7.164062 16 16s-7.164062 16-16 16h-112c-8.835938 0-16-7.164062-16-16s7.164062-16 16-16zm0 0" fill="#a3d4f7"/><path d="m56 8h112c8.835938 0 16 7.164062 16 16s-7.164062 16-16 16h-112c-8.835938 0-16-7.164062-16-16s7.164062-16 16-16zm0 0" fill="#60a2d7"/><path d="m24 104h384v32h-384c-8.835938 0-16-7.164062-16-16s7.164062-16 16-16zm0 0" fill="#ee638c"/><g fill="#4f3328"><path d="m72 432c-3.277344 0-6.222656-1.996094-7.433594-5.039062-1.214844-3.042969-.449218-6.515626 1.929688-8.769532l304-288c3.207031-3.039062 8.273437-2.902344 11.3125.304688 3.039062 3.207031 2.902344 8.273437-.304688 11.3125l-304 288c-1.488281 1.40625-3.457031 2.191406-5.503906 2.191406zm0 0"/><path d="m376 432c-2.046875 0-4.015625-.785156-5.503906-2.191406l-304-288c-3.207032-3.039063-3.34375-8.105469-.304688-11.3125 3.039063-3.207032 8.105469-3.34375 11.3125-.304688l304 288c2.378906 2.253906 3.144532 5.726563 1.929688 8.769532-1.210938 3.042968-4.15625 5.039062-7.433594 5.039062zm0 0"/><path d="m472 128h-448c-4.417969 0-8-3.582031-8-8s-3.582031-8-8-8-8 3.582031-8 8c0 13.253906 10.746094 24 24 24h448c4.417969 0 8-3.582031 8-8s-3.582031-8-8-8zm0 0"/></g><path d="m440 0c-17.601562 0-40 59.65625-40 88v8h-209.472656c3.078125-8.261719 1.21875-17.554688-4.800782-24 8.320313-9.042969 8.320313-22.957031 0-32 6.390626-7.003906 8.035157-17.121094 4.195313-25.785156-3.84375-8.667969-12.441406-14.2421878-21.921875-14.214844h-112c-9.484375-.0429688-18.097656 5.53125-21.945312 14.199219-3.847657 8.667969-2.207032 18.792969 4.183593 25.800781-8.320312 9.042969-8.320312 22.957031 0 32-6.015625 6.445312-7.875 15.738281-4.796875 24h-9.441406c-13.253906 0-24 10.746094-24 24s10.746094 24 24 24h44.800781l143.566407 136-145.871094 138.191406c-3.207032 3.039063-3.34375 8.105469-.304688 11.3125 3.039063 3.207032 8.105469 3.34375 11.3125.304688l146.496094-138.792969 146.496094 138.792969c3.207031 3.039062 8.273437 2.902344 11.3125-.304688 3.039062-3.207031 2.902344-8.273437-.304688-11.3125l-145.871094-138.191406 143.566407-136h92.800781c4.417969 0 8-3.582031 8-8v-48c0-28.34375-22.398438-88-40-88zm-392 56c0-4.417969 3.582031-8 8-8h112c4.417969 0 8 3.582031 8 8s-3.582031 8-8 8h-112c-4.417969 0-8-3.582031-8-8zm8-40h112c4.417969 0 8 3.582031 8 8s-3.582031 8-8 8h-112c-4.417969 0-8-3.582031-8-8s3.582031-8 8-8zm-8 72c0-4.417969 3.582031-8 8-8h112c4.417969 0 8 3.582031 8 8s-3.582031 8-8 8h-112c-4.417969 0-8-3.582031-8-8zm-32 32c0-4.417969 3.582031-8 8-8h376v16h-376c-4.417969 0-8-3.582031-8-8zm208 148.984375-131.921875-124.984375h263.84375zm240-140.984375h-48v-40c1.871094-25.027344 10.136719-49.160156 24-70.078125 13.863281 20.917969 22.128906 45.050781 24 70.078125zm0 0"/></svg>