<svg height="480pt" viewBox="0 -96 480 480" width="480pt" xmlns="http://www.w3.org/2000/svg"><path d="m8 255.992188h464v24h-464zm0 0" fill="#ac8168"/><path d="m475.863281 240.992188-227.863281-125.71875v-36.082032c20.625-4.210937 34.457031-23.683594 31.640625-44.542968-2.816406-20.859376-21.316406-35.96875-42.316406-34.5585942-21.003907 1.4101562-37.320313 18.8515622-37.324219 39.9023442 0 4.417968 3.582031 8 8 8s8-3.582032 8-8c0-13.253907 10.746094-24 24-24s24 10.746093 24 24c0 13.253906-10.746094 24-24 24-4.417969 0-8 3.582031-8 8v43.28125l-227.863281 125.71875c-2.550781 1.40625-4.136719 4.085937-4.136719 7v32c0 4.417968 3.582031 8 8 8h464c4.417969 0 8-3.582032 8-8v-32c0-2.914063-1.585938-5.59375-4.136719-7zm-235.863281-111.863282 200.9375 110.863282h-401.875zm224 142.863282h-448v-16h448zm0 0"/></svg>