<svg height="512pt" viewBox="-26 0 512 512.002" width="512pt" xmlns="http://www.w3.org/2000/svg"><path d="m430.058594 372.714844h-14.625v82.578125h14.625c7.34375 0 13.351562-5.6875 13.351562-12.640625v-57.296875c0-6.949219-6.007812-12.640625-13.351562-12.640625zm0 0" fill="#feca57"/><path d="m433.769531 373.226562c-1.179687-.324218-2.421875-.511718-3.710937-.511718h-14.625v82.578125h14.625c1.289062 0 2.53125-.183594 3.710937-.507813zm0 0" fill="#f4b537"/><path d="m31.273438 372.714844h14.886718v82.578125h-14.886718c-7.472657 0-13.589844-5.6875-13.589844-12.640625v-57.296875c0-6.949219 6.117187-12.640625 13.589844-12.640625zm0 0" fill="#feca57"/><path d="m36.019531 442.652344v-57.296875c0-5.84375 4.324219-10.777344 10.140625-12.207031v-.433594h-14.886718c-7.472657 0-13.589844 5.6875-13.589844 12.640625v57.296875c0 6.953125 6.117187 12.640625 13.589844 12.640625h14.886718v-.429688c-5.816406-1.429687-10.140625-6.367187-10.140625-12.210937zm0 0" fill="#f4b537"/><path d="m251.546875 398.949219h39.171875v32.398437h-39.171875zm0 0" fill="#e4eaf8"/><path d="m169.542969 398.949219h39.335937v32.398437h-39.335937zm0 0" fill="#e4eaf8"/><path d="m251.546875 408.773438h39.171875v22.574218h-39.171875zm0 0" fill="#c7d2e5"/><path d="m169.542969 408.773438h39.335937v22.574218h-39.335937zm0 0" fill="#c7d2e5"/><path d="m403.203125 323.675781h-101.382813c-7.546874 0-13.722656 6.175781-13.722656 13.722657v153.214843c0 7.546875 6.175782 13.722657 13.722656 13.722657h101.382813c7.546875 0 13.71875-6.175782 13.71875-13.722657v-153.214843c0-7.546876-6.171875-13.722657-13.71875-13.722657zm0 0" fill="#576574"/><path d="m323.101562 490.613281v-153.214843c0-7.546876 6.175782-13.722657 13.722657-13.722657h-35.003907c-7.546874 0-13.722656 6.175781-13.722656 13.722657v153.214843c0 7.546875 6.175782 13.722657 13.722656 13.722657h35.003907c-7.546875 0-13.722657-6.175782-13.722657-13.722657zm0 0" fill="#3e4b5a"/><path d="m57.894531 323.675781h101.382813c7.546875 0 13.71875 6.175781 13.71875 13.722657v153.214843c0 7.546875-6.171875 13.722657-13.71875 13.722657h-101.382813c-7.546875 0-13.722656-6.175782-13.722656-13.722657v-153.214843c0-7.546876 6.175781-13.722657 13.722656-13.722657zm0 0" fill="#576574"/><path d="m79.175781 490.613281v-153.214843c0-7.546876 6.175781-13.722657 13.722657-13.722657h-35.003907c-7.546875 0-13.722656 6.175781-13.722656 13.722657v153.214843c0 7.546875 6.175781 13.722657 13.722656 13.722657h35.003907c-7.546876 0-13.722657-6.175782-13.722657-13.722657zm0 0" fill="#3e4b5a"/><path d="m312.683594 247.449219h-164.269532c-19.3125 0-35.929687-12.085938-42.6875-29.0625v59.933593c0 7.367188 5.972657 13.339844 13.339844 13.339844h69.367188c9.367187 0 16.957031 7.59375 16.957031 16.960938v17.054687h50.3125v-17.054687c0-9.367188 7.59375-16.960938 16.960937-16.960938h69.363282c7.367187 0 13.339844-5.972656 13.339844-13.339844v-59.933593c-6.757813 16.976562-23.371094 29.0625-42.683594 29.0625zm0 0" fill="#fcd486"/><path d="m140.730469 278.320312v-31.527343c-15.949219-2.71875-29.160157-13.730469-35.003907-28.40625v59.933593c0 7.367188 5.972657 13.339844 13.339844 13.339844h35.003906c-7.367187 0-13.339843-5.972656-13.339843-13.339844zm0 0" fill="#feca57"/><path d="m223.4375 291.660156h-35.003906c9.367187 0 16.960937 7.59375 16.960937 16.960938v17.054687h35v-17.054687c0-9.367188-7.59375-16.960938-16.957031-16.960938zm0 0" fill="#feca57"/><path d="m294.09375 7.335938h-127.089844c-7.546875 0-13.722656 6.175781-13.722656 13.71875v115.105468c0 7.542969 6.175781 13.71875 13.722656 13.71875h127.089844c7.546875 0 13.722656-6.175781 13.722656-13.71875v-115.105468c0-7.542969-6.175781-13.71875-13.722656-13.71875zm0 0" fill="#576574"/><path d="m188.285156 136.160156v-115.105468c0-7.542969 6.171875-13.71875 13.71875-13.71875h-35c-7.546875 0-13.722656 6.175781-13.722656 13.71875v115.105468c0 7.542969 6.175781 13.71875 13.722656 13.71875h35c-7.546875 0-13.71875-6.175781-13.71875-13.71875zm0 0" fill="#3e4b5a"/><path d="m268.777344 121.867188h-76.457032c-4.542968 0-8.257812 3.714843-8.257812 8.253906v19.757812h92.96875v-19.757812c0-4.539063-3.710938-8.253906-8.253906-8.253906zm0 0" fill="#3e4b5a"/><path d="m227.320312 121.867188h-35c-4.542968 0-8.257812 3.714843-8.257812 8.253906v19.757812h35.003906v-19.757812c0-4.539063 3.714844-8.253906 8.253906-8.253906zm0 0" fill="#374451"/><path d="m205.394531 323.675781v131.207031c0 10.683594 8.660157 19.34375 19.339844 19.34375h11.625c10.683594 0 19.34375-8.660156 19.34375-19.34375v-131.207031zm0 0" fill="#576574"/><path d="m240.394531 454.882812v-131.207031h-35v131.207031c0 10.683594 8.660157 19.34375 19.339844 19.34375h11.625c4.398437 0 8.441406-1.488281 11.691406-3.960937-4.644531-3.53125-7.65625-9.097656-7.65625-15.382813zm0 0" fill="#3e4b5a"/><path d="m344.890625 149.878906h-228.683594c-7.546875 0-13.71875 6.175782-13.71875 13.722656v39.921876c0 25.257812 20.667969 45.925781 45.925781 45.925781h164.269532c25.257812 0 45.925781-20.667969 45.925781-45.925781v-39.921876c0-7.546874-6.175781-13.722656-13.71875-13.722656zm0 0" fill="#feca57"/><path d="m137.488281 203.523438v-39.921876c0-7.546874 6.175781-13.722656 13.722657-13.722656h-35.003907c-7.546875 0-13.71875 6.175782-13.71875 13.722656v39.921876c0 25.257812 20.667969 45.925781 45.925781 45.925781h35.003907c-25.261719 0-45.929688-20.667969-45.929688-45.925781zm0 0" fill="#f4b537"/><path d="m255.65625 66.460938c0 13.863281-11.242188 25.105468-25.105469 25.105468-13.867187 0-25.109375-11.242187-25.109375-25.105468 0-13.867188 11.242188-25.109376 25.109375-25.109376 13.863281 0 25.105469 11.242188 25.105469 25.109376zm0 0" fill="#ff6b6b"/><path d="m240.445312 66.460938c0-7.058594 2.914063-13.433594 7.605469-17.996094-4.523437-4.398438-10.695312-7.113282-17.503906-7.113282-13.863281 0-25.105469 11.242188-25.105469 25.109376 0 13.863281 11.242188 25.105468 25.105469 25.105468 6.808594 0 12.980469-2.714844 17.503906-7.113281-4.691406-4.5625-7.605469-10.9375-7.605469-17.992187zm0 0" fill="#ee5253"/><path d="m386.179688 346.449219h-68.253907c-4.144531 0-7.503906 3.359375-7.503906 7.503906 0 4.140625 3.359375 7.5 7.503906 7.5h68.253907c4.144531 0 7.5-3.359375 7.5-7.5 0-4.144531-3.355469-7.503906-7.5-7.503906zm0 0"/><path d="m386.179688 376.5625h-68.253907c-4.144531 0-7.503906 3.355469-7.503906 7.5 0 4.140625 3.359375 7.5 7.503906 7.5h68.253907c4.144531 0 7.5-3.359375 7.5-7.5 0-4.144531-3.355469-7.5-7.5-7.5zm0 0"/><path d="m386.179688 406.671875h-68.253907c-4.144531 0-7.503906 3.355469-7.503906 7.5 0 4.140625 3.359375 7.5 7.503906 7.5h68.253907c4.144531 0 7.5-3.359375 7.5-7.5 0-4.144531-3.355469-7.5-7.5-7.5zm0 0"/><path d="m386.179688 436.78125h-68.253907c-4.144531 0-7.503906 3.355469-7.503906 7.5 0 4.140625 3.359375 7.5 7.503906 7.5h68.253907c4.144531 0 7.5-3.359375 7.5-7.5 0-4.144531-3.355469-7.5-7.5-7.5zm0 0"/><path d="m386.179688 466.890625h-68.253907c-4.144531 0-7.503906 3.355469-7.503906 7.5 0 4.140625 3.359375 7.5 7.503906 7.5h68.253907c4.144531 0 7.5-3.359375 7.5-7.5 0-4.144531-3.355469-7.5-7.5-7.5zm0 0"/><path d="m142.253906 346.449219h-68.253906c-4.144531 0-7.5 3.359375-7.5 7.503906 0 4.140625 3.355469 7.5 7.5 7.5h68.253906c4.144532 0 7.5-3.359375 7.5-7.5 0-4.144531-3.355468-7.503906-7.5-7.503906zm0 0"/><path d="m142.253906 376.5625h-68.253906c-4.144531 0-7.5 3.355469-7.5 7.5 0 4.140625 3.355469 7.5 7.5 7.5h68.253906c4.144532 0 7.5-3.359375 7.5-7.5 0-4.144531-3.355468-7.5-7.5-7.5zm0 0"/><path d="m142.253906 406.671875h-68.253906c-4.144531 0-7.5 3.355469-7.5 7.5 0 4.140625 3.355469 7.5 7.5 7.5h68.253906c4.144532 0 7.5-3.359375 7.5-7.5 0-4.144531-3.355468-7.5-7.5-7.5zm0 0"/><path d="m142.253906 436.78125h-68.253906c-4.144531 0-7.5 3.355469-7.5 7.5 0 4.140625 3.355469 7.5 7.5 7.5h68.253906c4.144532 0 7.5-3.359375 7.5-7.5 0-4.144531-3.355468-7.5-7.5-7.5zm0 0"/><path d="m142.253906 466.890625h-68.253906c-4.144531 0-7.5 3.355469-7.5 7.5 0 4.140625 3.355469 7.5 7.5 7.5h68.253906c4.144532 0 7.5-3.359375 7.5-7.5 0-4.144531-3.355468-7.5-7.5-7.5zm0 0"/><path d="m451.710938 24.652344c-2.628907-3.199219-7.355469-3.660156-10.554688-1.03125-3.203125 2.632812-3.664062 7.359375-1.03125 10.558594 11.855469 14.421874 1.582031 36.332031-17.179688 36.332031-18.75 0-29.046874-21.902344-17.183593-36.332031 2.632812-3.199219 2.167969-7.925782-1.03125-10.558594-3.199219-2.628906-7.925781-2.167969-10.554688 1.03125-17.769531 21.613281-6.09375 54.480468 21.265625 60.097656v77.617188c-6.382812 2.265624-11.453125 7.332031-13.714844 13.71875h-36.074218v-12.320313c0-11.703125-9.523438-21.222656-21.222656-21.222656h-30.507813c.605469-1.964844.933594-4.054688.933594-6.21875v-52.199219c0-4.140625-3.355469-7.5-7.5-7.5-4.140625 0-7.5 3.359375-7.5 7.5v52.199219c0 3.429687-2.789063 6.21875-6.21875 6.21875h-9.5625v-12.257813c0-8.6875-7.070313-15.753906-15.757813-15.753906h-76.457031c-8.6875 0-15.753906 7.066406-15.753906 15.753906v12.257813h-9.5625c-3.429688 0-6.222657-2.789063-6.222657-6.21875v-115.101563c0-3.429687 2.792969-6.222656 6.222657-6.222656h127.09375c3.429687 0 6.21875 2.792969 6.21875 6.222656v27.898438c0 4.144531 3.355469 7.503906 7.5 7.503906s7.5-3.359375 7.5-7.503906v-27.898438c0-11.703125-9.519531-21.222656-21.21875-21.222656h-127.09375c-11.699219 0-21.222657 9.519531-21.222657 21.222656v115.101563c0 2.164062.332032 4.25.9375 6.21875h-30.507812c-11.703125 0-21.222656 9.519531-21.222656 21.222656v12.316406h-36.074219c-2.265625-6.382812-7.332031-11.449219-13.714844-13.714843v-77.617188c27.398438-5.625 39.007813-38.519531 21.265625-60.097656-2.632812-3.199219-7.359375-3.660156-10.554687-1.03125-3.203125 2.632812-3.664063 7.359375-1.03125 10.558594 11.855469 14.421874 1.582031 36.332031-17.183594 36.332031-18.746094 0-29.042969-21.902344-17.179687-36.332031 2.632812-3.199219 2.171874-7.925782-1.03125-10.558594-3.195313-2.628906-7.925782-2.167969-10.554688 1.03125-17.769531 21.613281-6.09375 54.480468 21.265625 60.097656v77.617188c-8.730469 3.097656-15.003906 11.4375-15.003906 21.21875 0 12.410156 10.09375 22.507812 22.503906 22.507812 9.785156 0 18.121094-6.273438 21.21875-15.007812h36.074219v10.601562c0 6.4375 1.144531 12.613281 3.242187 18.328125v58.472656c0 11.492188 9.347657 20.839844 20.839844 20.839844h69.363281c5.21875 0 9.460938 4.242187 9.460938 9.460937v82.828126h-17.394532v-54.054688c0-11.699219-9.523437-21.21875-21.222656-21.21875h-101.382812c-11.699219 0-21.21875 9.519531-21.21875 21.21875v27.820312h-6.347656c-11.105469 0-20.140626 9.035157-20.140626 20.140626v57.296874c0 11.105469 9.035157 20.140626 20.140626 20.140626h6.347656v27.820312c0 11.703125 9.519531 21.222656 21.21875 21.222656h101.382812c11.703125 0 21.222656-9.519531 21.222656-21.222656v-51.765625h17.394532v16.035156c0 14.800781 12.042968 26.839844 26.84375 26.839844h11.625c14.800781 0 26.84375-12.039063 26.84375-26.839844v-16.035156h17.394531v51.765625c0 11.703125 9.523437 21.222656 21.222656 21.222656h101.382813c11.699218 0 21.21875-9.523437 21.21875-21.222656v-27.816406h6.351562c11.105469 0 20.140625-9.039063 20.140625-20.144532v-57.296874c0-11.105469-9.035156-20.140626-20.140625-20.140626h-6.351562v-27.820312c0-11.699219-9.519532-21.21875-21.21875-21.21875h-30.332032c-4.144531 0-7.5 3.359375-7.5 7.5s3.355469 7.5 7.5 7.5h30.328126c3.429687 0 6.222656 2.789062 6.222656 6.21875v153.21875c0 3.429688-2.792969 6.21875-6.222656 6.21875h-101.378907c-3.429687 0-6.222656-2.789062-6.222656-6.21875 0-7.292969 0-145.894531 0-153.21875 0-3.429688 2.792969-6.21875 6.222656-6.21875h36.046875c4.144532 0 7.5-3.359375 7.5-7.5s-3.355468-7.5-7.5-7.5h-36.046875c-11.703125 0-21.222656 9.519531-21.222656 21.21875v54.054688h-17.398437c0-8.648438 0-73.347657 0-82.828126 0-5.214843 4.246093-9.460937 9.460937-9.460937h69.367187c11.492188 0 20.839844-9.347656 20.839844-20.839844v-58.46875c2.097656-5.71875 3.238282-11.894531 3.238282-18.328125v-10.605468h36.074218c3.097656 8.734374 11.4375 15.007812 21.21875 15.007812 12.410156 0 22.507813-10.097656 22.507813-22.507812 0-9.78125-6.273438-18.121094-15.007813-21.21875v-77.617188c27.402344-5.625 39.015625-38.519531 21.269532-60.097656zm-414.476563 166.4375c-4.136719 0-7.503906-3.367188-7.503906-7.503906 0-4.140626 3.367187-7.507813 7.503906-7.507813 4.140625 0 7.507813 3.367187 7.507813 7.507813 0 4.136718-3.367188 7.503906-7.507813 7.503906zm-1.019531 256.871094h-6.347656c-2.785157 0-5.140626-2.355469-5.140626-5.140626v-57.300781c0-2.785156 2.351563-5.136719 5.140626-5.136719h6.347656zm128.824218 42.816406c0 3.429687-2.792968 6.222656-6.222656 6.222656h-101.382812c-3.429688 0-6.21875-2.792969-6.21875-6.222656 0-17.109375 0-136.785156 0-153.214844 0-3.429688 2.789062-6.21875 6.21875-6.21875h101.382812c3.429688 0 6.222656 2.789062 6.222656 6.21875zm32.394532-66.765625h-17.394532v-17.394531h17.394532zm226.53125-43.628907h6.347656c2.785156 0 5.140625 2.351563 5.140625 5.140626v57.296874c0 2.785157-2.355469 5.140626-5.140625 5.140626h-6.347656zm-232.859375-250.097656c0-.394531.359375-.753906.753906-.753906h76.460937c.394532 0 .753907.359375.753907.753906v12.257813h-77.96875zm56.636719 324.761719c0 6.53125-5.308594 11.84375-11.839844 11.84375h-11.625c-6.527344 0-11.84375-5.3125-11.84375-11.84375 0-12.519531 0-109.980469 0-123.703125h35.308594zm32.398437-48.429687v17.394531h-17.398437v-17.394531zm67.269531-128.128907c0 3.21875-2.617187 5.835938-5.839844 5.835938h-69.363281c-13.488281 0-24.464843 10.976562-24.464843 24.460937v7.554688h-35.308594v-7.554688c0-13.484375-10.972656-24.460937-24.460938-24.460937h-69.363281c-3.222656 0-5.839844-2.617188-5.839844-5.835938v-36.648437c9.765625 8.570312 22.222657 13.277344 35.1875 13.277344h164.269531c12.726563 0 25.246094-4.558594 35.183594-13.277344zm3.238282-76.800781c0 21.4375-17.792969 38.425781-38.425782 38.425781h-164.265625c-20.515625 0-38.425781-16.867187-38.425781-38.425781v-37.921875c0-3.429687 2.789062-6.21875 6.21875-6.21875h228.679688c3.429687 0 6.222656 2.789063 6.222656 6.21875v37.921875zm79.800781-18.101562c0 4.136718-3.367188 7.503906-7.503907 7.503906-4.140624 0-7.507812-3.367188-7.507812-7.503906 0-4.140626 3.367188-7.507813 7.507812-7.507813 4.136719 0 7.503907 3.367187 7.503907 7.507813zm0 0"/><path d="m197.480469 66.625c0 17.980469 14.628906 32.605469 32.609375 32.605469 17.976562 0 32.605468-14.625 32.605468-32.605469s-14.628906-32.609375-32.605468-32.609375c-17.980469 0-32.609375 14.628906-32.609375 32.609375zm50.214843 0c0 9.707031-7.898437 17.605469-17.605468 17.605469-9.707032 0-17.605469-7.898438-17.605469-17.605469s7.898437-17.605469 17.605469-17.605469c9.707031-.003906 17.605468 7.898438 17.605468 17.605469zm0 0"/></svg>