<svg height="512pt" viewBox="0 -27 512 512" width="512pt" xmlns="http://www.w3.org/2000/svg"><path d="m7.960938 205.621094v209.421875c0 19.011719 15.554687 34.566406 34.566406 34.566406h427.859375c19.015625 0 34.570312-15.554687 34.570312-34.566406v-209.421875c0-19.015625-15.554687-34.570313-34.570312-34.570313-10.246094 0-415.710938 0-427.859375 0-19.011719 0-34.566406 15.554688-34.566406 34.570313zm0 0" fill="#576574"/><path d="m42.960938 415.042969v-209.421875c0-19.015625 15.554687-34.570313 34.570312-34.570313-20.105469 0-32.984375 0-35.003906 0-19.011719 0-34.566406 15.554688-34.566406 34.570313v209.421875c0 19.011719 15.554687 34.566406 34.566406 34.566406h35.003906c-19.015625 0-34.570312-15.554687-34.570312-34.566406zm0 0" fill="#3e4b5a"/><path d="m101.234375 419.550781h317.050781c2.402344 0 4.507813-2.109375 4.507813-4.507812v-209.421875c0-2.402344-2.105469-4.511719-4.507813-4.511719-12.898437 0-293.996094 0-317.050781 0zm0 0" fill="#8ac2ff"/><path d="m138.238281 201.109375c-19.148437 0-32.660156 0-37.003906 0v218.441406h37.003906zm0 0" fill="#6fb1ff"/><path d="m68.082031 205.621094v175.886718h35.152344v-180.398437h-30.644531c-2.402344 0-4.507813 2.109375-4.507813 4.511719zm0 0" fill="#54a0ff"/><path d="m68.082031 379.507812v35.535157c0 2.398437 2.105469 4.507812 4.507813 4.507812h30.644531v-40.039062h-35.152344zm0 0" fill="#ff6b6b"/><path d="m462.917969 293.253906c-9.390625 0-17.074219 7.683594-17.074219 17.078125 0 9.390625 7.683594 17.074219 17.074219 17.074219s17.074219-7.683594 17.074219-17.074219c0-9.394531-7.683594-17.078125-17.074219-17.078125zm0 0" fill="#3e4b5a"/><path d="m469.402344 310.332031c0-4.832031 2.042968-9.199219 5.296875-12.316406-3.070313-2.9375-7.21875-4.761719-11.78125-4.761719-9.390625 0-17.074219 7.683594-17.074219 17.078125 0 9.390625 7.683594 17.074219 17.074219 17.074219 4.5625 0 8.710937-1.820312 11.78125-4.761719-3.253907-3.113281-5.296875-7.484375-5.296875-12.3125zm0 0" fill="#374451"/><path d="m436.191406 36.359375h-349.460937c-4.167969 0-7.042969 4.179687-5.550781 8.074219l63.144531 164.757812h234.269531l63.144531-164.757812c1.492188-3.894532-1.378906-8.074219-5.546875-8.074219zm0 0" fill="#feca57"/><path d="m122.214844 36.359375h-35.484375c-4.167969 0-7.042969 4.179687-5.550781 8.074219l63.144531 164.757812h35.488281l-63.144531-164.757812c-1.492188-3.894532 1.378906-8.074219 5.546875-8.074219zm0 0" fill="#f4b537"/><path d="m249.882812 62.363281v-26.972656c0-2.890625-2.347656-5.234375-5.234374-5.234375h-53.535157c-2.894531 0-5.234375 2.34375-5.234375 5.234375v26.972656zm0 0" fill="#c7d2e5"/><path d="m226.113281 30.15625h-35c-2.894531 0-5.234375 2.34375-5.234375 5.234375v26.972656h35v-26.972656c0-2.890625 2.34375-5.234375 5.234375-5.234375zm0 0" fill="#bac7db"/><path d="m393.773438 43.664062c-.75-.136718-1.320313-.742187-1.378907-1.5-1.507812-19.484374-17.792969-34.828124-37.667969-34.828124-14.648437 0-27.347656 8.339843-33.617187 20.527343-.363281.710938-1.179687 1.0625-1.941406.832031-1.816407-.550781-3.742188-.851562-5.734375-.851562-9.027344 0-16.636719 6.050781-19.011719 14.316406-.203125.710938-.863281 1.1875-1.605469 1.183594-.003906 0-.011718 0-.015625 0-9.984375 0-18.214843 8.40625-19.558593 18.019531h10.40625c4.972656 0 8 4.027344 8 8.996094v12.519531c.152343.003906.296874.023438.445312.023438h97.855469c10.96875 0 20.160156-8.976563 20.070312-19.945313-.078125-9.644531-7.058593-17.640625-16.246093-19.292969zm0 0" fill="#54a0ff"/><path d="m322.652344 69.359375c0-15.898437-9.566406-29.59375-23.242188-35.664063-2.3125 2.328126-4.054687 5.222657-4.988281 8.460938-.203125.714844-.863281 1.1875-1.605469 1.1875-.003906 0-.011718 0-.015625 0-9.984375 0-18.214843 8.40625-19.558593 18.015625h10.40625c4.972656 0 8 4.03125 8 9v12.519531c.152343.003906.296874.019532.445312.019532h30.558594zm0 0" fill="#338def"/><path d="m283.652344 60.363281h-131.546875c-4.96875 0-8.996094 4.027344-8.996094 8.996094v136.65625l53.980469 140.847656h95.5625v-277.503906c0-4.96875-4.03125-8.996094-9-8.996094zm0 0" fill="#e4eaf8"/><path d="m178.109375 69.359375c0-4.96875 4.03125-8.996094 9-8.996094h-35.003906c-4.96875 0-8.996094 4.027344-8.996094 8.996094v136.65625l35 91.328125zm0 0" fill="#c7d2e5"/><path d="m393.929688 158.925781c0-3.367187-2.730469-6.09375-6.097657-6.09375h-91.085937c-3.367188 0-6.09375 2.730469-6.09375 6.09375v187.9375h35.175781l68.101563-177.679687zm0 0" fill="#e4eaf8"/><path d="m325.859375 158.925781c0-3.367187 2.730469-6.09375 6.09375-6.09375h-35.207031c-3.367188 0-6.09375 2.730469-6.09375 6.09375v187.9375h35.175781l.03125-.074219zm0 0" fill="#c7d2e5"/><path d="m487.035156 310.496094c0-13.550782-11.023437-24.578125-24.574218-24.578125-13.554688 0-24.578126 11.027343-24.578126 24.578125 0 13.550781 11.023438 24.574218 24.578126 24.574218 13.550781.003907 24.574218-11.023437 24.574218-24.574218zm-34.152344 0c0-5.28125 4.296876-9.574219 9.578126-9.574219 5.277343 0 9.574218 4.292969 9.574218 9.574219 0 5.277344-4.296875 9.574218-9.574218 9.574218-5.28125 0-9.578126-4.292968-9.578126-9.574218zm0 0"/><path d="m30.0625 292.375v36.238281c0 4.144531 3.355469 7.503907 7.5 7.503907 4.140625 0 7.5-3.359376 7.5-7.503907v-36.238281c0-4.140625-3.359375-7.5-7.5-7.5-4.144531 0-7.5 3.359375-7.5 7.5zm0 0"/><path d="m315.394531 185.734375h53.144531c4.140626 0 7.5-3.355469 7.5-7.5s-3.359374-7.5-7.5-7.5h-53.144531c-4.140625 0-7.5 3.355469-7.5 7.5s3.359375 7.5 7.5 7.5zm0 0"/><path d="m171.054688 185.734375h92.144531c4.140625 0 7.5-3.355469 7.5-7.5s-3.359375-7.5-7.5-7.5h-92.144531c-4.144532 0-7.5 3.355469-7.5 7.5s3.355468 7.5 7.5 7.5zm0 0"/><path d="m171.054688 213.804688h92.144531c4.140625 0 7.5-3.359376 7.5-7.503907 0-4.140625-3.359375-7.5-7.5-7.5h-92.144531c-4.144532 0-7.5 3.359375-7.5 7.5 0 4.144531 3.355468 7.503907 7.5 7.503907zm0 0"/><path d="m263.199219 241.871094c4.140625 0 7.5-3.359375 7.5-7.5 0-4.144532-3.359375-7.5-7.5-7.5h-92.144531c-4.144532 0-7.5 3.355468-7.5 7.5 0 4.140625 3.355468 7.5 7.5 7.5zm0 0"/><path d="m171.054688 101.527344h92.144531c4.140625 0 7.5-3.355469 7.5-7.5 0-4.144532-3.359375-7.5-7.5-7.5h-92.144531c-4.144532 0-7.5 3.355468-7.5 7.5 0 4.144531 3.355468 7.5 7.5 7.5zm0 0"/><path d="m171.054688 129.597656h92.144531c4.140625 0 7.5-3.355468 7.5-7.5 0-4.144531-3.359375-7.5-7.5-7.5h-92.144531c-4.144532 0-7.5 3.355469-7.5 7.5 0 4.144532 3.355468 7.5 7.5 7.5zm0 0"/><path d="m171.054688 157.664062h92.144531c4.140625 0 7.5-3.355468 7.5-7.5 0-4.140624-3.359375-7.5-7.5-7.5h-92.144531c-4.144532 0-7.5 3.359376-7.5 7.5 0 4.144532 3.355468 7.5 7.5 7.5zm0 0"/><path d="m512 327.996094c0-4.140625-3.355469-7.5-7.5-7.5s-7.5 3.359375-7.5 7.5v87.210937c0 14.925781-12.144531 27.066407-27.070312 27.066407h-196.429688c-4.140625 0-7.5 3.359374-7.5 7.5 0 4.144531 3.359375 7.5 7.5 7.5h196.429688c23.195312 0 42.070312-18.871094 42.070312-42.066407zm0 0"/><path d="m42.070312 457.277344h196.429688c4.144531 0 7.5-3.359375 7.5-7.503906 0-4.140626-3.355469-7.5-7.5-7.5h-196.429688c-14.925781 0-27.070312-12.140626-27.070312-27.066407v-209.421875c0-14.925781 12.144531-27.066406 27.070312-27.066406h82.019532l5.773437 15.058594c-6.726562 0-50.960937 0-57.734375 0-6.507812 0-12.007812 5.5-12.007812 12.007812v209.421875c0 6.511719 5.496094 12.011719 12.007812 12.011719h345.695313c6.511719 0 12.011719-5.5 12.011719-12.011719v-209.421875c0-6.511718-5.5-12.007812-12.011719-12.007812h-25.6875l5.773437-15.0625h72.019532c14.925781 0 27.066406 12.144531 27.066406 27.070312v87.207032c0 4.144531 3.359375 7.503906 7.5 7.503906 4.144531 0 7.5-3.359375 7.5-7.503906v-87.207032c0-23.199218-18.871094-42.070312-42.066406-42.070312h-66.269532l47.714844-124.503906c1.484375-3.867188-.449219-8.207032-4.316406-9.6875-3.875-1.488282-8.207032.449218-9.6875 4.316406l-43.441406 113.347656c-1.945313-1.078125-4.179688-1.691406-6.554688-1.691406h-87.683594v-54.929688h89.796875c7.308594 0 14.472657-2.996094 19.652344-8.222656 5.167969-5.207031 7.980469-12.054688 7.917969-19.28125-.09375-11.613281-7.511719-21.730469-18.171875-25.492188-3.695313-21.378906-22.535157-37.570312-44.621094-37.570312-15.539063 0-29.738281 7.828125-38.039063 20.703125-1.078124-.128906-2.164062-.191406-3.253906-.191406-10.6875 0-20.34375 6.328125-24.753906 15.8125-9.484375 1.46875-17.53125 7.910156-21.125 16.699219h-10.171875v-17.464844c0-7.023438-5.714844-12.734375-12.734375-12.734375h-53.535156c-7.023438 0-12.734375 5.710937-12.734375 12.734375v17.46875h-26.269531c-9.097657 0-16.5 7.402344-16.5 16.5v96.128906l-50.519532-131.8125c-1.480468-3.867188-5.816406-5.804688-9.6875-4.320312-3.867187 1.484374-5.800781 5.820312-4.316406 9.6875l47.714844 124.507812h-76.269532c-23.199218-.003906-42.070312 18.871094-42.070312 42.066406v209.421875c0 23.195313 18.871094 42.070313 42.070312 42.070313zm53.207032-45.0625h-20.15625v-25.039063h20.15625zm0-40.042969h-20.15625v-163.394531h20.15625zm290.691406-211.675781v7.464844l-12.523438 32.675781c-1.316406-1.140625-3.027343-1.835938-4.90625-1.835938h-53.144531c-4.140625 0-7.5 3.359375-7.5 7.5 0 4.144531 3.359375 7.503907 7.5 7.503907h53.003907l-5.007813 13.066406h-47.996094c-4.140625 0-7.5 3.355468-7.5 7.5 0 4.140625 3.359375 7.5 7.5 7.5h42.246094l-5.007813 13.066406h-37.238281c-4.140625 0-7.5 3.355469-7.5 7.5s3.359375 7.5 7.5 7.5h31.488281l-5.007812 13.066406h-26.480469c-4.140625 0-7.5 3.359375-7.5 7.5 0 4.144532 3.359375 7.503906 7.5 7.503906h20.730469l-5.007812 13.066407h-15.722657c-4.140625 0-7.5 3.355469-7.5 7.5s3.359375 7.5 7.5 7.5h9.972657l-5.15625 13.453125h-20.519532v-179.03125zm-93.621094-109.484375h.011719c4.070313 0 7.691406-2.71875 8.816406-6.617188 1.5-5.230469 6.351563-8.882812 11.796875-8.882812 1.210938 0 2.40625.175781 3.558594.527343 4.230469 1.277344 8.765625-.644531 10.789062-4.582031 5.222657-10.148437 15.546876-16.457031 26.949219-16.457031 15.714844 0 28.976563 12.257812 30.1875 27.90625.320313 4.148438 3.414063 7.5625 7.527344 8.304688 5.792969 1.042968 10.027344 6.078124 10.078125 11.976562.023438 3.195312-1.242188 6.246094-3.570312 8.59375-2.417969 2.441406-5.617188 3.785156-9 3.785156h-89.800782v-6.039062c0-8.285156-6.199218-15.257813-14.269531-16.351563 1.984375-1.367187 4.378906-2.164062 6.925781-2.164062zm-99.429687-13.1875h49.003906v15.203125h-49.003906zm-42.769531 31.703125c0-.828125.675781-1.5 1.5-1.5h97.773437 33.769531c.828125 0 1.5.671875 1.5 1.5v89.5625 180.441406h-82.902344l-5.15625-13.453125h66.566407c4.144531 0 7.5-3.359375 7.5-7.5 0-4.144531-3.355469-7.503906-7.5-7.503906h-72.316407l-5.007812-13.066407h77.324219c4.144531 0 7.5-3.355468 7.5-7.5 0-4.144531-3.355469-7.5-7.5-7.5h-83.074219l-5.007812-13.066406h88.082031c4.144531 0 7.5-3.359375 7.5-7.5 0-4.144531-3.355469-7.503906-7.5-7.503906h-92.144531c-.554688 0-1.09375.066406-1.617188.179688l-19.285156-50.324219v-135.265625zm-14.535157 139.25 50.109375 130.753906h-4.5625c-4.140625 0-7.5 3.355469-7.5 7.5 0 4.140625 3.359375 7.5 7.5 7.5h15.472656 144.207032c4.140625 0 7.5-3.359375 7.5-7.5 0-4.144531-3.359375-7.5-7.5-7.5h-4.5625l50.109375-130.753906h28.445312v203.4375h-304.554687c0-15.59375 0-197.09375 0-203.4375zm0 0"/></svg>