<svg height="512pt" viewBox="0 -12 512.00036 512" width="512pt" xmlns="http://www.w3.org/2000/svg"><path d="m151.8125 228.039062h209.914062v-114.648437c0-58.566406-47.125-106.046875-105.261718-106.054687-58.132813.007812-105.257813 47.488281-105.257813 106.054687v114.710937c.203125-.023437.398438-.0625.605469-.0625zm0 0" fill="#54a0ff"/><path d="m186.207031 113.390625c0-52.558594 37.957031-96.183594 87.757813-104.585937-5.691406-.960938-11.535156-1.46875-17.5-1.46875-58.132813.007812-105.257813 47.488281-105.257813 106.054687v114.710937c.203125-.023437.398438-.0625.605469-.0625h34.394531zm0 0" fill="#338def"/><path d="m315.082031 124.890625c0 32.378906-26.25 58.625-58.628906 58.625s-58.625-26.246094-58.625-58.625 26.246094-58.625 58.625-58.625 58.628906 26.246094 58.628906 58.625zm0 0" fill="#fcd486"/><path d="m232.828125 124.890625c0-26.28125 17.296875-48.523437 41.128906-55.96875-5.527343-1.726563-11.40625-2.65625-17.503906-2.65625-32.375 0-58.625 26.246094-58.625 58.625s26.25 58.625 58.625 58.625c6.097656 0 11.976563-.929687 17.503906-2.65625-23.832031-7.445313-41.128906-29.6875-41.128906-55.96875zm0 0" fill="#feca57"/><path d="m151.207031 253.335938v24.988281l13.632813 14.296875h183.253906l13.632812-14.296875v-24.90625c-220.78125 0-209.6875.042969-210.519531-.082031zm0 0" fill="#576574"/><path d="m186.628906 253.417969c-38.078125 0-34.585937.042969-35.421875-.082031v24.988281l13.632813 14.296875h21.789062zm0 0" fill="#3e4b5a"/><path d="m364.117188 226.410156h-212.304688c-2.964844 0-5.371094 2.40625-5.371094 5.371094v20.046875c0 2.964844 2.40625 5.371094 5.371094 5.371094h212.304688c2.96875 0 5.371093-2.40625 5.371093-5.371094v-20.046875c0-2.964844-2.402343-5.371094-5.371093-5.371094zm0 0" fill="#8ac2ff"/><path d="m181.445312 251.828125v-20.046875c0-2.964844 2.402344-5.371094 5.371094-5.371094h-35c-2.96875 0-5.375 2.40625-5.375 5.371094v20.046875c0 2.964844 2.40625 5.371094 5.375 5.371094h35c-2.96875 0-5.371094-2.40625-5.371094-5.371094zm0 0" fill="#6fb1ff"/><path d="m164.839844 287.253906 25.066406 21.164063c2.679688-.886719 5.53125-1.363281 8.488281-1.363281 12.3125 0 22.785157 8.265624 26.667969 19.800781h62.808594c3.882812-11.535157 14.355468-19.800781 26.667968-19.800781 2.957032 0 5.808594.476562 8.488282 1.363281l25.066406-21.164063zm0 0" fill="#3e4b5a"/><path d="m186.628906 287.253906h-21.789062l21.789062 18.394532zm0 0" fill="#374451"/><path d="m281.589844 124.890625c0 13.878906-11.253906 25.132813-25.136719 25.132813-13.878906 0-25.132813-11.253907-25.132813-25.132813 0-13.882813 11.253907-25.132813 25.132813-25.132813 13.882813 0 25.136719 11.25 25.136719 25.132813zm0 0" fill="#feca57"/><path d="m266.320312 124.890625c0-7.074219 2.929688-13.464844 7.636719-18.03125-4.527343-4.394531-10.695312-7.101563-17.503906-7.101563-13.878906 0-25.132813 11.25-25.132813 25.132813 0 13.878906 11.253907 25.132813 25.132813 25.132813 6.808594 0 12.976563-2.707032 17.503906-7.101563-4.707031-4.566406-7.636719-10.957031-7.636719-18.03125zm0 0" fill="#f4b537"/><path d="m287.960938 332.996094c0-3.46875.605468-6.796875 1.714843-9.890625h-66.671875c1.105469 3.09375 1.714844 6.421875 1.714844 9.890625 0 10.253906-5.257812 19.292968-13.257812 24.625 5.789062 3.214844 12.464843 5.054687 19.574218 5.054687h50.609375c7.109375 0 13.785157-1.839843 19.570313-5.054687-7.996094-5.332032-13.253906-14.371094-13.253906-24.625zm0 0" fill="#e4eaf8"/><path d="m288.597656 339.050781c-2.261718.390625-4.578125.613281-6.953125.613281h-50.609375c-2.371094 0-4.691406-.222656-6.949218-.613281-1.617188 7.703125-6.242188 14.316407-12.625 18.570313 5.789062 3.210937 12.464843 5.054687 19.574218 5.054687h50.609375c7.109375 0 13.785157-1.84375 19.570313-5.054687-6.375-4.253906-11.003906-10.867188-12.617188-18.570313zm0 0" fill="#c7d2e5"/><path d="m189.90625 307.40625-67.25-54.066406c-1.007812 11.5625-8.964844 21.132812-19.679688 24.5l67.25 54.066406c1.007813-11.5625 8.964844-21.132812 19.679688-24.5zm0 0" fill="#e4eaf8"/><path d="m94.488281 279.136719c-9.054687 0-17.113281-4.261719-22.289062-10.886719l-63.429688 192.136719c-2.722656 8.242187 1.753907 17.128906 9.996094 19.847656 8.238281 2.722656 17.125-1.753906 19.84375-9.996094l63.429687-192.128906c-2.40625.664063-4.933593 1.027344-7.550781 1.027344zm0 0" fill="#e4eaf8"/><path d="m29.769531 460.386719 59.96875-181.652344c-7.09375-1.203125-13.289062-5.046875-17.539062-10.484375l-63.429688 192.136719c-2.722656 8.242187 1.753907 17.128906 9.996094 19.847656 5.539063 1.832031 11.367187.394531 15.417969-3.242187-4.488282-4.042969-6.429688-10.496094-4.414063-16.605469zm0 0" fill="#c7d2e5"/><path d="m323.027344 307.40625 67.246094-54.066406c1.007812 11.5625 8.96875 21.132812 19.683593 24.5l-67.25 54.066406c-1.007812-11.5625-8.96875-21.132812-19.679687-24.5zm0 0" fill="#e4eaf8"/><path d="m136.113281 270.183594c1.070313-1.144532 2.046875-2.375 2.917969-3.683594l-16.375-13.160156c-1.007812 11.5625-8.964844 21.132812-19.679688 24.5l67.25 54.066406c.421876-4.839844 2.074219-9.328125 4.628907-13.160156l-37.464844-30.121094c-5.722656-4.601562-6.289063-13.082031-1.277344-18.441406zm0 0" fill="#c7d2e5"/><path d="m357.441406 296.621094 37.460938-30.121094c-2.550782-3.832031-4.207032-8.316406-4.628906-13.160156l-67.246094 54.066406c10.710937 3.367188 18.671875 12.9375 19.679687 24.5l16.371094-13.160156c-.867187-1.308594-1.84375-2.539063-2.914063-3.683594-5.015624-5.363281-4.445312-13.839844 1.277344-18.441406zm0 0" fill="#c7d2e5"/><path d="m418.441406 279.136719c9.058594 0 17.117188-4.261719 22.292969-10.886719l63.429687 192.136719c2.722657 8.242187-1.753906 17.128906-9.996093 19.847656-8.238281 2.722656-17.125-1.753906-19.84375-9.996094l-63.429688-192.128906c2.402344.664063 4.933594 1.027344 7.546875 1.027344zm0 0" fill="#e4eaf8"/><path d="m490.988281 458.765625-60.234375-182.457031c-3.71875 1.808594-7.894531 2.828125-12.3125 2.828125-2.613281 0-5.144531-.363281-7.546875-1.027344l63.425781 192.128906c2.722657 8.238281 11.609376 12.714844 19.847657 9.996094 5.183593-1.710937 8.875-5.863281 10.222656-10.761719-6-.585937-11.386719-4.613281-13.402344-10.707031zm0 0" fill="#c7d2e5"/><path d="m343.71875 334.394531c0 15.867188-12.863281 28.730469-28.730469 28.730469-15.871093 0-28.734375-12.863281-28.734375-28.730469 0-15.871093 12.863282-28.734375 28.734375-28.734375 15.867188 0 28.730469 12.863282 28.730469 28.734375zm0 0" fill="#c7d2e5"/><path d="m321.257812 334.394531c0-9.28125 4.402344-17.527343 11.230469-22.78125-4.847656-3.730469-10.914062-5.953125-17.5-5.953125-15.867187 0-28.734375 12.863282-28.734375 28.734375 0 15.867188 12.867188 28.730469 28.734375 28.730469 6.585938 0 12.652344-2.222656 17.5-5.953125-6.828125-5.253906-11.230469-13.5-11.230469-22.777344zm0 0" fill="#bac7db"/><path d="m226.679688 334.394531c0 15.890625-12.882813 28.773438-28.777344 28.773438-15.890625 0-28.773438-12.882813-28.773438-28.773438 0-15.894531 12.882813-28.777343 28.773438-28.777343 15.894531 0 28.777344 12.882812 28.777344 28.777343zm0 0" fill="#c7d2e5"/><path d="m204.128906 334.394531c0-9.308593 4.421875-17.578125 11.273438-22.835937-4.847656-3.722656-10.914063-5.941406-17.5-5.941406-15.890625 0-28.773438 12.882812-28.773438 28.777343 0 15.890625 12.882813 28.773438 28.773438 28.773438 6.585937 0 12.652344-2.21875 17.5-5.941407-6.851563-5.257812-11.273438-13.527343-11.273438-22.832031zm0 0" fill="#bac7db"/><path d="m124.007812 252.085938c0 16.300781-13.214843 29.519531-29.519531 29.519531-16.300781 0-29.515625-13.21875-29.515625-29.519531 0-16.300782 13.214844-29.515626 29.515625-29.515626 16.304688 0 29.519531 13.214844 29.519531 29.515626zm0 0" fill="#54a0ff"/><path d="m111.992188 228.320312c-4.898438-3.613281-10.949219-5.75-17.503907-5.75-16.300781 0-29.515625 13.214844-29.515625 29.515626 0 16.300781 13.214844 29.519531 29.515625 29.519531 6.554688 0 12.605469-2.140625 17.503907-5.753907-16.027344-11.820312-16.015626-35.722656 0-47.53125zm0 0" fill="#338def"/><path d="m447.960938 252.085938c0 16.300781-13.214844 29.519531-29.519532 29.519531-16.300781 0-29.515625-13.21875-29.515625-29.519531 0-16.300782 13.214844-29.515626 29.515625-29.515626 16.304688 0 29.519532 13.214844 29.519532 29.515626zm0 0" fill="#54a0ff"/><path d="m435.945312 228.320312c-4.898437-3.613281-10.949218-5.75-17.503906-5.75-16.300781 0-29.515625 13.214844-29.515625 29.515626 0 16.300781 13.214844 29.519531 29.515625 29.519531 6.554688 0 12.605469-2.140625 17.503906-5.753907-16.03125-11.820312-16.007812-35.726562 0-47.53125zm0 0" fill="#338def"/><path d="m496.0625 487.523438c12.152344-4.015626 18.777344-17.167969 14.765625-29.320313l-62.265625-188.613281c3.300781-5.417969 5.207031-11.777344 5.207031-18.570313 0-19.730469-16.050781-35.785156-35.785156-35.785156-19.382813 0-35.203125 15.496094-35.753906 34.746094l-6.019531 4.839843c.203124-.910156.320312-1.855468.320312-2.828124v-20.042969c0-5.285157-3.199219-9.828125-7.761719-11.8125v-52.445313c0-4.144531-3.359375-7.5-7.5-7.5-4.144531 0-7.503906 3.355469-7.503906 7.5v51.382813h-195.515625v-106.300781c0-53.902344 43.851562-97.761719 97.753906-97.773438.003906 0 .011719.003906.011719.003906.007813 0 .011719-.003906.011719-.003906 53.898437.023438 97.738281 43.875 97.738281 97.773438v19.914062c0 4.144531 3.359375 7.5 7.5 7.5 4.144531 0 7.5-3.355469 7.5-7.5v-19.914062c0-62.175782-50.582031-112.7656255-112.757813-112.773438-62.175781.0078125-112.757812 50.597656-112.757812 112.773438v109.1875c-2.90625 2.363281-4.765625 5.960937-4.765625 9.984374v20.046876c0 2.300781.609375 4.453124 1.671875 6.324218l-10.367188-8.335937c-.554687-19.253907-16.375-34.746094-35.757812-34.746094-19.730469 0-35.785156 16.050781-35.785156 35.78125 0 6.796875 1.90625 13.15625 5.207031 18.570313l-62.265625 188.617187c-4.964844 15.035156 6.261719 30.492187 22.027344 30.492187 9.742187 0 18.839844-6.191406 22.058594-15.941406l60.304687-182.667968 56.597656 45.507812c.554688 19.253906 16.375 34.746094 35.757813 34.746094 5.78125 0 11.242187-1.386719 16.082031-3.832032 5.703125 2.503907 11.894531 3.832032 18.152344 3.832032h7.835937c4.144532 0 7.503906-3.355469 7.503906-7.5 0-4.140625-3.359374-7.5-7.503906-7.5h-7.835937c-1.617188 0-3.234375-.128906-4.824219-.386719 4.355469-6.28125 6.695312-13.816406 6.324219-22.324219h44.679687c-.363281 8.375 1.894532 15.941406 6.324219 22.324219-1.589844.257813-3.207031.386719-4.824219.386719h-4.839844c-4.144531 0-7.5 3.359375-7.5 7.5 0 4.144531 3.355469 7.5 7.5 7.5h4.839844c6.257813 0 12.449219-1.328125 18.152344-3.832032 23.4375 11.84375 51.09375-4.914062 51.839844-30.914062l56.597656-45.507812 60.300781 182.667968c4.015625 12.15625 17.164063 18.78125 29.324219 14.769532zm-342.578125-253.449219h208.046875v15.789062h-208.046875zm200.28125 30.792969v7.996093l-8.773437 7.054688h-177.96875l-8.773438-7.054688v-7.996093zm-322.738281 203.183593c-1.417969 4.300781-6.074219 6.648438-10.371094 5.226563-4.300781-1.417969-6.652344-6.050782-5.226562-10.371094l59.878906-181.375c4.875 3.003906 10.371094 4.691406 15.601562 5.136719zm63.003906-196.25c-11.53125 0-20.785156-9.410156-20.785156-20.785156 0-11.457031 9.324218-20.78125 20.785156-20.78125s20.78125 9.324219 20.78125 20.78125c0 11.523437-9.390625 20.785156-20.78125 20.785156zm71.597656 47.320313-49.582031-39.863282c4.382813-3.40625 7.90625-7.792968 10.289063-12.804687l49.582031 39.863281c-4.382813 3.410156-7.90625 7.792969-10.289063 12.804688zm32.304688 36.21875c-13.726563 0-24.058594-13.292969-19.828125-27.003906 2.664062-8.480469 10.597656-14.5625 19.828125-14.5625 11.394531 0 20.785156 9.3125 20.785156 20.785156 0 11.375-9.261719 20.78125-20.785156 20.78125zm84.621094-37.710938h-53.09375c-7.167969-13.359375-22.480469-21.203125-38.207032-18.230468l-5.574218-4.480469h140.65625l-5.574219 4.480469c-15.609375-2.949219-30.953125 4.746093-38.207031 18.230468zm31.523437 37.710938c-8.53125 0-16.03125-5.203125-19.199219-12.851563-5.722656-13.804687 4.636719-28.714843 19.199219-28.714843 11.585937 0 20.785156 9.460937 20.785156 20.785156 0 11.457031-9.324219 20.78125-20.785156 20.78125zm32.308594-36.21875c-2.382813-5.011719-5.90625-9.394532-10.289063-12.804688l49.582032-39.863281c2.382812 5.011719 5.90625 9.394531 10.289062 12.804687zm71.597656-47.320313c-11.554687 0-20.78125-9.429687-20.78125-20.785156 0-11.457031 9.320313-20.78125 20.78125-20.78125s20.78125 9.324219 20.78125 20.78125c.003906 11.425781-9.308594 20.785156-20.78125 20.785156zm63 196.25-59.878906-181.382812c.230469-.019531 1.867187-.214844 2.269531-.273438.207031-.03125.40625-.070312.609375-.105469 4.539063-.765624 8.847656-2.375 12.722656-4.757812l59.875 181.371094c1.417969 4.300781-.925781 8.957031-5.226562 10.375-4.296875 1.417968-8.953125-.921875-10.371094-5.226563zm0 0"/><path d="m223.359375 125.054688c0 17.996093 14.640625 32.636718 32.636719 32.636718 17.992187 0 32.632812-14.640625 32.632812-32.636718 0-17.992188-14.640625-32.632813-32.632812-32.632813-17.996094 0-32.636719 14.640625-32.636719 32.632813zm50.269531 0c0 9.722656-7.910156 17.632812-17.632812 17.632812s-17.632813-7.910156-17.632813-17.632812c0-9.722657 7.910157-17.632813 17.632813-17.632813s17.632812 7.910156 17.632812 17.632813zm0 0"/><path d="m189.867188 125.054688c0 36.464843 29.664062 66.128906 66.128906 66.128906 36.460937 0 66.125-29.664063 66.125-66.128906 0-36.460938-29.664063-66.125-66.125-66.125-36.464844 0-66.128906 29.664062-66.128906 66.125zm117.253906 0c0 28.191406-22.933594 51.125-51.125 51.125s-51.125-22.933594-51.125-51.125c0-28.191407 22.933594-51.125 51.125-51.125s51.125 22.933593 51.125 51.125zm0 0"/></svg>