<svg height="512pt" viewBox="0 0 512 512.001" width="512pt" xmlns="http://www.w3.org/2000/svg"><path d="m419.128906 449.820312h-325.339844c-17.269531 0-31.316406-14.046874-31.316406-31.316406v-325.339844c0-17.265624 14.050782-31.316406 31.316406-31.316406h325.339844c17.269532 0 31.316406 14.050782 31.316406 31.316406v325.339844c0 17.269532-14.046874 31.316406-31.316406 31.316406zm0 0" fill="#1dd1a1"/><path d="m97.476562 418.503906v-325.339844c0-17.265624 14.046876-31.316406 31.316407-31.316406h-35.003907c-17.269531 0-31.316406 14.050782-31.316406 31.316406v325.339844c0 17.265625 14.050782 31.316406 31.316406 31.316406h35.003907c-17.269531 0-31.316407-14.046874-31.316407-31.316406zm0 0" fill="#15ba8b"/><path d="m410.261719 96.644531h-307.605469c-2.976562 0-5.386719 2.410157-5.386719 5.386719v307.605469c0 2.976562 2.410157 5.386719 5.386719 5.386719h307.605469c2.976562 0 5.386719-2.410157 5.386719-5.386719v-307.605469c0-2.972656-2.410157-5.386719-5.386719-5.386719zm0 0" fill="#e4eaf8"/><path d="m132.269531 409.636719v-307.605469c0-2.976562 2.414063-5.386719 5.390625-5.386719h-35.003906c-2.976562 0-5.386719 2.410157-5.386719 5.386719v307.605469c0 2.976562 2.410157 5.386719 5.386719 5.386719h35.003906c-2.976562 0-5.390625-2.410157-5.390625-5.386719zm0 0" fill="#c7d2e5"/><path d="m345.753906 357.128906h-178.589844c-6.597656 0-12-5.402344-12-12v-178.585937c0-6.601563 5.402344-12.003907 12-12.003907h178.589844c6.597656 0 12 5.402344 12 12.003907v178.585937c0 6.597656-5.402344 12-12 12zm0 0" fill="#1dd1a1"/><path d="m190.167969 345.128906v-178.585937c0-6.601563 5.398437-12.003907 12-12.003907h-35.003907c-6.597656 0-12 5.402344-12 12.003907v178.585937c0 6.597656 5.402344 12 12 12h35.003907c-6.601563 0-12-5.402344-12-12zm0 0" fill="#15ba8b"/><path d="m409.800781 89.308594h-307.601562c-7.109375 0-12.890625 5.78125-12.890625 12.890625v307.601562c0 7.109375 5.78125 12.890625 12.890625 12.890625h307.601562c7.109375 0 12.890625-5.78125 12.890625-12.890625v-307.601562c0-7.109375-5.78125-12.890625-12.890625-12.890625zm-2.109375 318.382812h-303.378906v-303.382812h303.378906zm0 0"/><path d="m504.5 131.664062c4.144531 0 7.5-3.359374 7.5-7.5 0-4.144531-3.355469-7.503906-7.5-7.503906h-47.011719v-23.332031c0-21.402344-17.414062-38.816406-38.816406-38.816406h-23.332031v-47.011719c0-4.140625-3.359375-7.5-7.5-7.5-4.144532 0-7.503906 3.359375-7.503906 7.5v47.011719h-50.917969v-47.011719c0-4.140625-3.355469-7.5-7.5-7.5-4.140625 0-7.5 3.359375-7.5 7.5v47.011719h-50.917969v-47.011719c0-4.140625-3.355469-7.5-7.5-7.5-4.140625 0-7.5 3.359375-7.5 7.5v47.011719h-50.917969v-47.011719c0-4.140625-3.355469-7.5-7.5-7.5s-7.5 3.359375-7.5 7.5v47.011719h-50.917969v-47.011719c0-4.140625-3.355468-7.5-7.5-7.5-4.144531 0-7.5 3.359375-7.5 7.5v47.011719h-23.332031c-21.40625 0-38.816406 17.414062-38.816406 38.816406v23.332031h-47.015625c-4.140625 0-7.5 3.359375-7.5 7.503906 0 4.140626 3.359375 7.5 7.5 7.5h47.015625v50.917969h-47.015625c-4.140625 0-7.5 3.355469-7.5 7.5 0 4.140625 3.359375 7.5 7.5 7.5h47.015625v50.917969h-47.015625c-4.140625 0-7.5 3.359375-7.5 7.5 0 4.144531 3.359375 7.5 7.5 7.5h47.015625v50.917969h-47.015625c-4.140625 0-7.5 3.359375-7.5 7.5 0 4.144531 3.359375 7.503906 7.5 7.503906h47.015625v50.917969h-47.015625c-4.140625 0-7.5 3.355468-7.5 7.5 0 4.140625 3.359375 7.5 7.5 7.5h47.015625v23.332031c0 21.402344 17.410156 38.816406 38.816406 38.816406h23.332031v47.011719c0 4.144531 3.355469 7.5 7.5 7.5 4.140626 0 7.5-3.355469 7.5-7.5v-47.011719h50.917969v47.011719c0 4.144531 3.355469 7.5 7.5 7.5 4.140625 0 7.5-3.355469 7.5-7.5v-47.011719h50.917969v47.011719c0 4.144531 3.355469 7.5 7.5 7.5s7.5-3.355469 7.5-7.5v-47.011719h50.917969v47.011719c0 4.144531 3.355469 7.5 7.5 7.5s7.5-3.355469 7.5-7.5v-47.011719h50.917969v47.011719c0 4.144531 3.359374 7.5 7.5 7.5 4.144531 0 7.5-3.355469 7.5-7.5v-47.011719h23.332031c21.40625 0 38.816406-17.414062 38.816406-38.816406v-23.332031h47.015625c4.140625 0 7.5-3.359375 7.5-7.5 0-4.144532-3.359375-7.5-7.5-7.5h-47.015625v-50.917969h47.015625c4.140625 0 7.5-3.359375 7.5-7.503906 0-4.140625-3.359375-7.5-7.5-7.5h-47.015625v-50.917969h47.015625c4.140625 0 7.5-3.355469 7.5-7.5 0-4.140625-3.359375-7.5-7.5-7.5h-47.015625v-50.917969h47.015625c4.140625 0 7.5-3.359375 7.5-7.5 0-4.144531-3.359375-7.5-7.5-7.5h-47.015625v-50.917969zm-62.015625 287.007813c0 13.128906-10.683594 23.8125-23.8125 23.8125h-325.339844c-13.132812 0-23.816406-10.683594-23.816406-23.8125v-325.34375c0-13.128906 10.683594-23.8125 23.816406-23.8125h325.335938c13.132812 0 23.816406 10.683594 23.816406 23.8125zm0 0"/><path d="m320.394531 329.320312c4.144531 0 7.5-3.355468 7.5-7.5v-6.421874c4.085938-.070313 7.371094-3.398438 7.371094-7.496094s-3.285156-7.421875-7.371094-7.492188v-6.425781c0-4.140625-3.355469-7.5-7.5-7.5-4.140625 0-7.5 3.359375-7.5 7.5v6.417969h-17.195312v-6.417969c0-4.140625-3.355469-7.5-7.5-7.5s-7.5 3.359375-7.5 7.5v6.417969h-17.199219v-6.417969c0-4.140625-3.355469-7.5-7.5-7.5-4.140625 0-7.5 3.359375-7.5 7.5v6.417969h-17.195312v-6.417969c0-4.140625-3.359376-7.5-7.5-7.5-4.144532 0-7.503907 3.359375-7.503907 7.5v6.417969h-17.195312v-6.417969c0-4.140625-3.355469-7.5-7.5-7.5s-7.5 3.359375-7.5 7.5v6.417969h-.546875c-4.144532 0-7.5 3.359375-7.5 7.5 0 4.144531 3.355468 7.5 7.5 7.5h.546875v6.417968c0 4.144532 3.355469 7.5 7.5 7.5s7.5-3.355468 7.5-7.5v-6.417968h17.195312v6.417968c0 4.144532 3.359375 7.5 7.503907 7.5 4.140624 0 7.5-3.355468 7.5-7.5v-6.417968h17.195312v6.417968c0 4.144532 3.359375 7.5 7.5 7.5 4.144531 0 7.5-3.355468 7.5-7.5v-6.417968h17.199219v6.417968c0 4.144532 3.355469 7.5 7.5 7.5s7.5-3.355468 7.5-7.5v-6.417968h17.195312v6.417968c0 4.144532 3.359375 7.5 7.5 7.5zm0 0"/><path d="m231.300781 190.179688c0-4.144532-3.355469-7.5-7.5-7.5-4.140625 0-7.5 3.355468-7.5 7.5v6.417968h-17.195312v-6.417968c0-4.144532-3.359375-7.5-7.5-7.5-4.144531 0-7.5 3.355468-7.5 7.5v6.417968h-.546875c-4.144532 0-7.5 3.355469-7.5 7.5 0 4.140625 3.355468 7.5 7.5 7.5h.546875v6.417969c0 4.140625 3.355469 7.5 7.5 7.5 4.140625 0 7.5-3.359375 7.5-7.5v-6.417969h17.195312v6.417969c0 4.140625 3.359375 7.5 7.5 7.5 4.144531 0 7.5-3.359375 7.5-7.5v-6.417969h17.199219v6.417969c0 4.140625 3.355469 7.5 7.5 7.5s7.5-3.359375 7.5-7.5v-6.417969h17.199219v6.417969c0 4.140625 3.355469 7.5 7.5 7.5 4.140625 0 7.5-3.359375 7.5-7.5v-6.417969h17.195312v6.417969c0 4.140625 3.355469 7.5 7.5 7.5s7.5-3.359375 7.5-7.5v-6.425781c4.082031-.070313 7.371094-3.394532 7.371094-7.492188s-3.289063-7.425781-7.371094-7.496094v-6.421874c0-4.144532-3.355469-7.5-7.5-7.5s-7.5 3.355468-7.5 7.5v6.417968h-17.195312v-6.417968c0-4.144532-3.359375-7.5-7.5-7.5-4.144531 0-7.5 3.355468-7.5 7.5v6.417968h-17.199219v-6.417968c0-4.144532-3.355469-7.5-7.5-7.5s-7.5 3.355468-7.5 7.5v6.417968h-17.199219zm0 0"/><path d="m130.058594 137.65625h4.253906c4.144531 0 7.5-3.359375 7.5-7.5 0-4.144531-3.355469-7.5-7.5-7.5h-4.253906c-4.140625 0-7.5 3.355469-7.5 7.5 0 4.140625 3.359375 7.5 7.5 7.5zm0 0"/><path d="m377.6875 137.65625h4.253906c4.144532 0 7.5-3.359375 7.5-7.5 0-4.144531-3.355468-7.5-7.5-7.5h-4.253906c-4.140625 0-7.5 3.355469-7.5 7.5 0 4.140625 3.359375 7.5 7.5 7.5zm0 0"/><path d="m130.058594 389.34375h4.253906c4.144531 0 7.5-3.355469 7.5-7.5 0-4.140625-3.355469-7.5-7.5-7.5h-4.253906c-4.140625 0-7.5 3.359375-7.5 7.5 0 4.144531 3.359375 7.5 7.5 7.5zm0 0"/><path d="m377.6875 389.34375h4.253906c4.144532 0 7.5-3.355469 7.5-7.5 0-4.140625-3.355468-7.5-7.5-7.5h-4.253906c-4.140625 0-7.5 3.359375-7.5 7.5 0 4.144531 3.359375 7.5 7.5 7.5zm0 0"/><path d="m273.5 162.207031h71.792969c2.441406 0 4.5 2.058594 4.5 4.5v71.792969c0 4.140625 3.359375 7.5 7.5 7.5 4.144531 0 7.5-3.359375 7.5-7.5v-71.792969c0-10.753906-8.746094-19.503906-19.5-19.503906h-71.792969c-4.140625 0-7.5 3.359375-7.5 7.503906 0 4.140625 3.359375 7.5 7.5 7.5zm0 0"/><path d="m166.707031 364.792969h178.585938c10.753906 0 19.5-8.746094 19.5-19.5v-71.792969c0-4.140625-3.355469-7.5-7.5-7.5-4.140625 0-7.5 3.359375-7.5 7.5v71.792969c0 2.4375-2.058594 4.5-4.5 4.5h-178.585938c-2.441406 0-4.5-2.0625-4.5-4.5v-178.585938c0-2.441406 2.058594-4.5 4.5-4.5h71.792969c4.140625 0 7.5-3.359375 7.5-7.5 0-4.144531-3.359375-7.503906-7.5-7.503906h-71.792969c-10.753906 0-19.5 8.75-19.5 19.503906v178.585938c0 10.753906 8.746094 19.5 19.5 19.5zm0 0"/></svg>