<svg height="512pt" viewBox="-80 0 512 512.001" width="512pt" xmlns="http://www.w3.org/2000/svg"><path d="m176.117188 7.335938c-48.316407 0-87.484376 39.164062-87.484376 87.480468v35.242188c5.847657-5.421875 16.125-8.367188 24.246094-7.28125v-4.359375c0-3.464844 2.957032-6.203125 6.386719-5.941407 33.824219 2.429688 66.289063-8.320312 92.3125-25.320312 2.429687-1.589844 5.648437-1.195312 7.621094.929688 22.253906 23.914062 20.160156 22.992187 20.160156 26.113281v8.558593c8.898437-1.332031 18.753906 1.417969 24.238281 6.519532v-34.460938c0-48.316406-39.164062-87.480468-87.480468-87.480468zm0 0" fill="#576574"/><path d="m118.023438 94.816406c0-43.304687 31.46875-79.257812 72.785156-86.246094-4.777344-.808593-9.683594-1.234374-14.695313-1.234374-48.316406 0-87.480469 39.164062-87.480469 87.480468v35.242188c5.847657-5.421875 16.125-8.367188 24.242188-7.28125v-4.359375c0-3.039063 2.277344-5.515625 5.148438-5.90625zm0 0" fill="#3e4b5a"/><path d="m240.195312 118.902344v49.703125c0 .539062-.027343 1.070312-.039062 1.605469 17.585938 2.664062 31.363281-10.042969 31.363281-25.652344 0-15.640625-13.789062-28.285156-31.324219-25.65625zm0 0" fill="#ffbeab"/><path d="m263.542969 125.882812c-5.695313-5.433593-13.988281-8.382812-23.347657-6.980468v49.703125c0 .539062-.027343 1.070312-.039062 1.605469 9.386719 1.421874 17.6875-1.539063 23.390625-6.980469v-37.347657zm0 0" fill="#f7af9f"/><path d="m219.199219 85.144531c-1.972657-2.121093-5.191407-2.515625-7.621094-.929687-26.023437 17.003906-60.449219 27.75-94.269531 25.320312-3.429688-.257812-6.390625 2.480469-6.390625 5.945313v52.261719c0 33.589843 26.320312 64.269531 66.128906 64.269531 35.4375 0 64.269531-28.832031 64.269531-64.269531v-56.484376c0-3.121093.136719-2.195312-22.117187-26.113281zm0 0" fill="#ffcdbf"/><path d="m140.308594 167.742188v-58.511719c-7.628906.722656-15.328125.855469-23 .304687-3.429688-.257812-6.390625 2.480469-6.390625 5.945313v52.261719c0 33.589843 26.316406 64.269531 66.128906 64.269531 4.875 0 9.613281-.5625 14.179687-1.597657-31.160156-6.675781-50.917968-33.574218-50.917968-62.671874zm0 0" fill="#ffbeab"/><path d="m175.976562 281.570312c19.257813 0 35.835938-11.453124 43.316407-27.914062l-.292969-.113281c-3.351562-1.296875-5.5625-4.523438-5.5625-8.121094v-27.699219c-10.355469 7.144532-22.890625 11.339844-36.394531 11.339844-14.136719 0-26.554688-3.882812-36.714844-10.371094v26.417969c0 3.785156-2.324219 7.179687-5.851563 8.550781l-1.535156.59375c7.605469 16.140625 24.011719 27.316406 43.035156 27.316406zm0 0" fill="#ffbeab"/><path d="m175.578125 229.035156c-13.527344-.257812-25.445313-4.078125-35.25-10.34375v26.417969c0 3.785156-2.324219 7.179687-5.851563 8.550781l-1.535156.59375c7.550782 16.027344 23.78125 27.152344 42.636719 27.308594zm0 0" fill="#f7af9f"/><path d="m310.140625 288.839844-18.453125-7.148438-112 112c-1.011719 1.015625-2.65625 1.015625-3.667969 0l-112.519531-112.515625-19.773438 7.664063s-35.769531 14.703125-35.769531 55.480468v143.765626c0 9 7.296875 16.300781 16.300781 16.300781h305.351563c9.003906 0 16.300781-7.300781 16.300781-16.300781v-143.769532c0-40.773437-35.769531-55.476562-35.769531-55.476562zm0 0" fill="#e4eaf8"/><path d="m42.960938 488.085938v-165.132813c0-17.800781 6.816406-30.628906 14.496093-39.4375l-13.730469 5.324219s-35.769531 14.703125-35.769531 55.476562v143.765625c0 9.003907 7.296875 16.300781 16.300781 16.300781h35.003907c-9.003907 0-16.300781-7.296874-16.300781-16.296874zm0 0" fill="#c7d2e5"/><path d="m264.09375 271.007812-84.40625 84.40625c-1.011719 1.011719-2.65625 1.011719-3.667969 0l-84.933593-84.933593-29.027344 11.25 113.957031 113.960937c1.015625 1.015625 2.65625 1.015625 3.671875 0l113.441406-113.441406zm0 0" fill="#feca57"/><path d="m176.019531 357.414062c1.011719 1.011719 2.65625 1.011719 3.667969 0l85.847656-85.847656-46.535156-18.023437c-.917969-.355469-1.738281-.867188-2.464844-1.480469-6.53125 15.90625-22.167968 27.109375-40.429687 27.109375-17.949219 0-33.367188-10.828125-40.089844-26.308594-.484375.304688-.992187.582031-1.542969.792969l-44.832031 17.382812zm0 0" fill="#54a0ff"/><path d="m55.015625 146.0625c0 12.320312 10.167969 22.308594 22.714844 22.308594v-44.613282c-12.546875 0-22.714844 9.984376-22.714844 22.304688zm0 0" fill="#c7d2e5"/><path d="m71.464844 146.0625c0-5.960938 2.386718-11.371094 6.265625-15.375v-6.929688c-12.546875 0-22.714844 9.984376-22.714844 22.304688s10.167969 22.308594 22.714844 22.308594v-6.933594c-3.878907-4-6.265625-9.414062-6.265625-15.375zm0 0" fill="#bac7db"/><path d="m103.5 111.03125h-18.644531c-4.144531 0-7.53125 3.386719-7.53125 7.53125v55.515625c0 4.140625 3.386719 7.53125 7.53125 7.53125h18.644531c4.140625 0 7.53125-3.390625 7.53125-7.53125 0-6.785156 0-49.507813 0-55.515625 0-4.144531-3.390625-7.53125-7.53125-7.53125zm0 0" fill="#e4eaf8"/><path d="m98.917969 174.078125v-55.515625c0-3.636719 2.613281-6.691406 6.058593-7.382812-.480468-.097657-.972656-.148438-1.476562-.148438h-18.644531c-4.144531 0-7.53125 3.390625-7.53125 7.53125v55.515625c0 4.144531 3.386719 7.53125 7.53125 7.53125h18.644531c.503906 0 .996094-.050781 1.476562-.148437-3.445312-.691407-6.058593-3.746094-6.058593-7.382813zm0 0" fill="#c7d2e5"/><path d="m138.566406 163.761719h-27.9375c-6.597656 0-12-5.398438-12-12v-11.398438c0-6.597656 5.402344-12 12-12h27.9375c6.601563 0 12 5.402344 12 12v11.398438c0 6.601562-5.398437 12-12 12zm0 0" fill="#54a0ff"/><path d="m133.273438 151.761719v-11.398438c0-5.433593 3.667968-10.050781 8.648437-11.511719-1.066406-.3125-2.191406-.488281-3.355469-.488281h-27.9375c-6.597656 0-12 5.402344-12 12v11.398438c0 6.601562 5.402344 12 12 12h27.9375c1.164063 0 2.285156-.175781 3.355469-.488281-4.980469-1.460938-8.648437-6.074219-8.648437-11.511719zm0 0" fill="#338def"/><path d="m284.578125 349.945312c-4.144531 0-7.5 3.359376-7.5 7.5v139.554688h-83.101563c-4.144531 0-7.5 3.355469-7.5 7.5s3.355469 7.5 7.5 7.5h135.175782c13.121094 0 23.800781-10.675781 23.800781-23.800781v-56.628907c0-4.144531-3.359375-7.5-7.5-7.5-4.144531 0-7.503906 3.355469-7.503906 7.5v56.628907c0 4.851562-3.945313 8.800781-8.796875 8.800781h-37.074219v-139.554688c0-4.140624-3.355469-7.5-7.5-7.5zm0 0"/><path d="m131.613281 246.601562c-.011719.007813-.023437.011719-.035156.019532-.019531.011718-.027344.015625-.042969.027344-.074218.042968-.144531.097656-.230468.128906-9.371094 3.636718-81.714844 31.679687-90.746094 35.183594-.046875.019531-.09375.035156-.144532.054687-1.648437.679687-40.414062 17.136719-40.414062 62.417969v143.765625c0 13.125 10.679688 23.800781 23.800781 23.800781h135.175781c4.144532 0 7.5-3.355469 7.5-7.5s-3.355468-7.5-7.5-7.5h-83.101562v-139.554688c0-4.140624-3.355469-7.5-7.5-7.5s-7.5 3.359376-7.5 7.5v139.554688h-37.074219c-4.851562 0-8.800781-3.949219-8.800781-8.800781v-143.765625c0-34.699219 29.28125-47.757813 31.074219-48.523438l13.675781-5.300781 110.503906 110.5s.003906.003906.003906.003906c3.9375 3.933594 10.339844 3.933594 14.273438-.003906l109.988281-109.984375 12.347657 4.78125c1.996093.855469 31.082031 13.941406 31.082031 48.527344v52.132812c0 4.144532 3.359375 7.5 7.503906 7.5 4.140625 0 7.5-3.355468 7.5-7.5v-52.132812c0-45.28125-38.769531-61.738282-40.417969-62.417969-.046875-.019531-.09375-.039063-.144531-.058594-9.054687-3.507812-79.742187-30.882812-91.140625-35.296875-.097656-.035156-.210938-.109375-.332031-.210937-.011719-.011719-.027344-.019531-.039063-.03125-.246094-.222657-.402344-.539063-.402344-.882813v-20.910156c14.621094-11.339844 24.746094-28.1875 27.25-47.40625 17.855469-1.183594 30.824219-15.636719 30.824219-32.496094 0-7.871094-2.847656-15.386718-7.921875-21.230468v-28.507813c.003906-52.375-42.605468-94.984375-94.980468-94.984375s-94.980469 42.609375-94.980469 94.984375v9.335937c-5.796875 1.71875-10.136719 6.839844-10.699219 13.039063-12.851562 3.3125-22.375 15-22.375 28.871094 0 13.859375 9.511719 25.539062 22.347656 28.859375.445313 7.894531 6.988282 14.1875 14.992188 14.1875h18.640625c.878906 0 1.734375-.09375 2.570312-.238282 4.59375 15.027344 13.882813 27.71875 26.226563 36.632813v19.554687c0 .558594-.300782 1.070313-.757813 1.375zm-61.714843-87.613281c-4.367188-2.574219-7.304688-7.332031-7.304688-12.761719 0-5.425781 2.9375-10.183593 7.304688-12.761718zm209.328124 126.214844-101.832031 101.832031-102.355469-102.355468c8.933594-3.460938 7-2.710938 12.296876-4.765626l82.917968 82.917969s.003906 0 .003906.003907c3.9375 3.933593 10.339844 3.929687 14.273438-.003907l82.394531-82.390625zm-45.875-155.519531h-42.382812c-2.039062 0-3.988281.832031-5.402344 2.296875l-7.335937 7.617187c-.164063.167969-.363281.253906-.597657.253906-.003906 0-.007812 0-.007812 0-.230469 0-.433594-.082031-.597656-.242187l-7.722656-7.726563c-1.40625-1.40625-3.316407-2.195312-5.304688-2.195312h-9.152344c-3.503906-5.21875-9.449218-8.65625-16.191406-8.65625h-20.046875c0-2.039062.027344-2.71875-.066406-3.707031 31.730469 1.769531 66.496093-7.289063 95.582031-25.957031 11.324219 12.160156 17.320312 18.390624 19.226562 20.746093zm30.199219 15.039062c0 8.5625-6.171875 15.976563-15.199219 17.347656v-34.6875c9.027344 1.363282 15.199219 8.8125 15.199219 17.339844zm-159.945312-22.359375c-7.382813 2.890625-12.398438 10.109375-12.398438 18.152344v11.425781c0 8.175782 5.152344 15.304688 12.382813 18.148438l-.015625 4.1875-18.671875-.035156.03125-55.546876c9.792968.015626 5.835937.007813 18.671875.042969zm-7.9375-18.667969v-8.710937c0-44.101563 35.878906-79.984375 79.980469-79.984375 44.105468 0 79.984374 35.882812 79.984374 79.984375v18.710937c-2.34375-.726562-4.777343-1.203124-7.277343-1.414062v-.910156c0-6.488282-.851563-6.148438-24.128907-31.171875-4.460937-4.792969-11.707031-5.695313-17.214843-2.097657-26.78125 17.496094-59.4375 26.289063-89.601563 24.121094-2.933594-.222656-6.109375.582032-8.695312 2.382813-3.117188-1.140625-5-.910157-13.046875-.910157zm10.539062 48.230469v-11.394531c0-2.15625 1.640625-4.503906 4.898438-4.503906h27.539062c2.4375 0 4.5 2.0625 4.5 4.503906v11.394531c0 2.441407-2.0625 4.5-4.5 4.5h-27.539062c-3.246094 0-4.898438-2.34375-4.898438-4.5zm12.316407 23.890625c.121093-.800781.085937-2.796875.085937-4.386718h20.050781c10.742188 0 19.484375-8.742188 19.484375-19.488282v-7.257812h2.75l5.527344 5.53125c6.265625 6.261718 16.453125 6.175781 22.605469-.210938l5.128906-5.320312h39.195312v23.222656c0 30.980469-25.171874 56.769531-56.769531 56.769531-33.425781 0-54.539062-24.109375-58.058593-48.859375zm88.824218 77.207032c-13.429687 24.476562-48.324218 25.058593-62.683594 1.246093 1.71875-2.648437 2.707032-5.777343 2.707032-9.046875v-11.136718c9.402344 3.824218 19.59375 5.589843 29.210937 5.589843 9.425781 0 19.519531-1.933593 28.898438-6.082031v11.941406c0 2.65625.671875 5.214844 1.867187 7.488282zm12.132813 9.042968 32.152343 12.449219-74.238281 74.238281-74.769531-74.765625c5.8125-2.253906 23.339844-9.050781 29.5-11.4375 20.101562 32.464844 67.644531 32.261719 87.355469-.484375zm0 0"/></svg>