<svg height="511pt" viewBox="0 -9 511.99894 511" width="511pt" xmlns="http://www.w3.org/2000/svg"><path d="m447.414062 139.183594c-2.726562-.492188-4.804687-2.703125-5.019531-5.464844-5.488281-70.90625-64.757812-126.738281-137.074219-126.738281-53.3125 0-99.527343 30.347656-122.339843 74.699219-1.328125 2.585937-4.296875 3.871093-7.074219 3.027343-6.605469-2.003906-13.609375-3.085937-20.871094-3.085937-32.847656 0-60.542968 22.011718-69.171875 52.085937-.746093 2.59375-3.15625 4.320313-5.855469 4.320313-.015624 0-.03125 0-.046874 0-40.070313 0-72.492188 32.742187-71.96875 72.929687.511718 39.554688 33.484374 71.023438 73.042968 71.023438h352.46875c39.917969 0 73.371094-32.660157 73.042969-72.578125-.285156-35.097656-25.699219-64.199219-59.132813-70.21875zm0 0" fill="#54a0ff"/><path d="m190.085938 81.621094c7.257812 0 14.261718 1.085937 20.867187 3.085937 2.78125.84375 5.746094-.441406 7.074219-3.027343 20.28125-39.425782 59.058594-67.765626 104.871094-73.578126-5.753907-.734374-11.621094-1.121093-17.578126-1.121093-53.3125 0-99.527343 30.34375-122.339843 74.699219-.058594.113281-.136719.210937-.203125.320312 2.40625-.242188 4.839844-.378906 7.308594-.378906zm0 0" fill="#338def"/><path d="m43.039062 210.957031c-.523437-40.1875 31.898438-72.929687 71.96875-72.929687h.046876c2.703124 0 5.109374-1.722656 5.855468-4.320313 7.039063-24.527343 26.761719-43.6875 51.617188-49.925781-5.601563-1.402344-11.457032-2.160156-17.492188-2.160156-32.847656 0-60.542968 22.007812-69.171875 52.085937-.746093 2.59375-3.15625 4.320313-5.855469 4.320313-.015624 0-.03125 0-.046874 0-40.070313 0-72.492188 32.742187-71.96875 72.929687.511718 39.554688 33.484374 71.019531 73.042968 71.019531h35.046875c-39.558593 0-72.53125-31.464843-73.042969-71.019531zm0 0" fill="#338def"/><path d="m89 379.433594c0 10.21875-8.285156 18.507812-18.507812 18.507812-10.21875 0-18.503907-8.289062-18.503907-18.507812 0-10.222656 8.285157-18.507813 18.503907-18.507813 10.222656 0 18.507812 8.285157 18.507812 18.507813zm0 0" fill="#feca57"/><path d="m77.066406 379.433594c0-5.378906 2.308594-10.203125 5.96875-13.585938-3.300781-3.046875-7.695312-4.921875-12.542968-4.921875-10.21875 0-18.503907 8.285157-18.503907 18.507813 0 10.21875 8.285157 18.507812 18.503907 18.507812 4.847656 0 9.242187-1.878906 12.542968-4.925781-3.660156-3.378906-5.96875-8.207031-5.96875-13.582031zm0 0" fill="#f4b537"/><path d="m238.324219 467.128906c0 10.222656-8.285157 18.507813-18.507813 18.507813s-18.507812-8.285157-18.507812-18.507813c0-10.21875 8.285156-18.507812 18.507812-18.507812s18.507813 8.289062 18.507813 18.507812zm0 0" fill="#feca57"/><path d="m226.390625 467.128906c0-5.375 2.304687-10.203125 5.964844-13.582031-3.296875-3.046875-7.691407-4.925781-12.539063-4.925781-10.21875 0-18.507812 8.289062-18.507812 18.507812 0 10.222656 8.289062 18.507813 18.507812 18.507813 4.847656 0 9.242188-1.875 12.539063-4.921875-3.660157-3.382813-5.964844-8.207032-5.964844-13.585938zm0 0" fill="#f4b537"/><path d="m303.296875 467.128906c0 10.222656-8.285156 18.507813-18.503906 18.507813-10.222657 0-18.507813-8.285157-18.507813-18.507813 0-10.21875 8.285156-18.507812 18.507813-18.507812 10.21875 0 18.503906 8.289062 18.503906 18.507812zm0 0" fill="#feca57"/><path d="m291.363281 467.128906c0-5.375 2.308594-10.203125 5.96875-13.582031-3.300781-3.046875-7.695312-4.925781-12.539062-4.925781-10.222657 0-18.507813 8.289062-18.507813 18.507812 0 10.222656 8.285156 18.507813 18.507813 18.507813 4.84375 0 9.238281-1.875 12.539062-4.921875-3.660156-3.382813-5.96875-8.207032-5.96875-13.585938zm0 0" fill="#f4b537"/><path d="m452.621094 379.433594c0 10.21875-8.285156 18.507812-18.507813 18.507812-10.21875 0-18.507812-8.289062-18.507812-18.507812 0-10.222656 8.289062-18.507813 18.507812-18.507813 10.222657 0 18.507813 8.285157 18.507813 18.507813zm0 0" fill="#feca57"/><path d="m440.6875 379.433594c0-5.378906 2.304688-10.203125 5.96875-13.585938-3.300781-3.046875-7.695312-4.921875-12.542969-4.921875-10.21875 0-18.507812 8.285157-18.507812 18.507813 0 10.21875 8.289062 18.507812 18.507812 18.507812 4.847657 0 9.242188-1.878906 12.542969-4.925781-3.664062-3.378906-5.96875-8.207031-5.96875-13.582031zm0 0" fill="#f4b537"/><path d="m145.742188 310.042969v62.03125h-50.789063c-3.238281-10.695313-13.179687-18.507813-24.921875-18.507813-14.351562 0-26.03125 11.679688-26.03125 26.03125 0 14.355469 11.679688 26.03125 26.03125 26.03125 11.738281 0 21.683594-7.808594 24.921875-18.507812h58.3125c4.15625 0 7.523437-3.367188 7.523437-7.523438v-69.554687c0-4.15625-3.367187-7.523438-7.523437-7.523438s-7.523437 3.367188-7.523437 7.523438zm-75.707032 80.539062c-6.058594 0-10.984375-4.925781-10.984375-10.984375 0-6.054687 4.925781-10.980468 10.984375-10.980468 6.054688 0 10.980469 4.925781 10.980469 10.980468 0 6.058594-4.925781 10.984375-10.980469 10.984375zm0 0"/><path d="m219.355469 302.519531c-4.15625 0-7.523438 3.367188-7.523438 7.523438v132.332031c-10.695312 3.238281-18.507812 13.183594-18.507812 24.921875 0 14.351563 11.679687 26.03125 26.03125 26.03125 14.355469 0 26.03125-11.679687 26.03125-26.03125 0-11.738281-7.808594-21.683594-18.507813-24.921875v-132.332031c0-4.15625-3.367187-7.523438-7.523437-7.523438zm10.984375 164.777344c0 6.054687-4.925782 10.980469-10.980469 10.980469-6.058594 0-10.984375-4.925782-10.984375-10.980469 0-6.058594 4.925781-10.984375 10.984375-10.984375 6.054687 0 10.980469 4.925781 10.980469 10.984375zm0 0"/><path d="m350.421875 302.519531c-4.15625 0-7.527344 3.367188-7.527344 7.523438v69.554687c0 4.15625 3.371094 7.523438 7.527344 7.523438h58.3125c3.238281 10.699218 13.179687 18.507812 24.917969 18.507812 14.355468 0 26.03125-11.675781 26.03125-26.03125 0-14.351562-11.675782-26.03125-26.03125-26.03125-11.734375 0-21.679688 7.8125-24.917969 18.507813h-50.789063v-62.03125c0-4.15625-3.371093-7.523438-7.523437-7.523438zm83.230469 66.09375c6.058594 0 10.984375 4.929688 10.984375 10.984375 0 6.054688-4.925781 10.984375-10.984375 10.984375-6.054688 0-10.980469-4.929687-10.980469-10.984375 0-6.054687 4.925781-10.984375 10.980469-10.984375zm0 0"/><path d="m284.332031 302.519531c-4.15625 0-7.527343 3.367188-7.527343 7.523438v132.332031c-10.695313 3.238281-18.503907 13.183594-18.503907 24.921875 0 14.351563 11.675781 26.03125 26.03125 26.03125 14.351563 0 26.03125-11.679687 26.03125-26.03125 0-11.738281-7.8125-21.683594-18.507812-24.921875v-132.332031c0-4.15625-3.367188-7.523438-7.523438-7.523438zm10.980469 164.777344c0 6.054687-4.925781 10.980469-10.980469 10.980469-6.058593 0-10.984375-4.925782-10.984375-10.980469 0-6.058594 4.925782-10.984375 10.984375-10.984375 6.054688 0 10.980469 4.925781 10.980469 10.984375zm0 0"/><path d="m145.742188 238.992188v11.160156c0 4.15625 3.367187 7.523437 7.523437 7.523437s7.523437-3.367187 7.523437-7.523437v-11.160156c0-4.152344-3.367187-7.523438-7.523437-7.523438s-7.523437 3.371094-7.523437 7.523438zm0 0"/><path d="m211.832031 238.992188v11.160156c0 4.15625 3.367188 7.523437 7.523438 7.523437s7.523437-3.367187 7.523437-7.523437v-11.160156c0-4.152344-3.367187-7.523438-7.523437-7.523438s-7.523438 3.371094-7.523438 7.523438zm0 0"/><path d="m284.332031 231.46875c-4.15625 0-7.527343 3.371094-7.527343 7.523438v11.160156c0 4.15625 3.371093 7.523437 7.527343 7.523437s7.523438-3.367187 7.523438-7.523437v-11.160156c0-4.152344-3.367188-7.523438-7.523438-7.523438zm0 0"/><path d="m342.894531 238.992188v11.160156c0 4.15625 3.371094 7.523437 7.527344 7.523437s7.523437-3.367187 7.523437-7.523437v-11.160156c0-4.152344-3.367187-7.523438-7.523437-7.523438s-7.527344 3.371094-7.527344 7.523438zm0 0"/><path d="m292.730469 7.46875c-.585938-4.113281-4.402344-6.976562-8.511719-6.386719-45.960938 6.554688-86.179688 35.011719-107.820312 76.230469-42.359376-12.097656-85.597657 12.78125-97.898438 53.363281-43.84375.535157-79.066406 36.464844-78.4921875 80.546875.5624995 43.253906 36.7031255 78.445313 80.5664065 78.445313h352.46875c35.460937 0 67.257812-23.597657 77.328125-57.386719 1.1875-3.980469-1.078125-8.171875-5.0625-9.359375-3.980469-1.1875-8.171875 1.078125-9.359375 5.0625-8.183594 27.457031-34.050781 46.636719-62.90625 46.636719h-352.472657c-35.671874 0-65.0625-28.53125-65.519531-63.59375-.464843-35.886719 28.378907-65.3125 64.488281-65.3125h.007813c6.054687 0 11.433594-4.015625 13.085937-9.769532 9.714844-33.855468 45.789063-54.433593 80.625-43.871093 6.246094 1.894531 12.953126-.960938 15.949219-6.785157 19.277344-37.476562 55.589844-63.386718 97.136719-69.308593 4.113281-.585938 6.972656-4.398438 6.386719-8.511719zm0 0"/><path d="m434.433594 134.464844c.472656 6.136718 5.074218 11.191406 11.1875 12.289062 25.785156 4.644532 46 24.210938 51.496094 49.84375.757812 3.53125 3.878906 5.949219 7.347656 5.949219.523437 0 1.054687-.054687 1.585937-.167969 4.0625-.871094 6.648438-4.871094 5.78125-8.933594-6.707031-31.277343-31.171875-55.230468-62.492187-61.300781-5.863282-68.636719-59.5625-123.886719-128.105469-131.597656-4.128906-.4609375-7.851563 2.507813-8.316406 6.636719-.464844 4.128906 2.507812 7.851562 6.636719 8.316406 61.765624 6.949219 110.078124 56.980469 114.878906 118.964844zm0 0"/></svg>