<svg height="512pt" viewBox="-109 0 512 512" width="512pt" xmlns="http://www.w3.org/2000/svg"><path d="m251.949219 7.335938h-209.417969c-19.015625 0-34.570312 15.554687-34.570312 34.570312v427.859375c0 19.011719 15.554687 34.566406 34.570312 34.566406h209.417969c19.015625 0 34.570312-15.554687 34.570312-34.566406 0-10.25 0-415.714844 0-427.859375 0-19.015625-15.554687-34.570312-34.570312-34.570312zm0 0" fill="#576574"/><path d="m42.960938 469.765625v-427.859375c0-19.015625 15.554687-34.570312 34.570312-34.570312h-35.003906c-19.011719 0-34.566406 15.554687-34.566406 34.570312v427.859375c0 19.011719 15.554687 34.566406 34.566406 34.566406h35.003906c-19.015625.003907-34.570312-15.554687-34.570312-34.566406zm0 0" fill="#3e4b5a"/><path d="m147.238281 445.21875c-9.390625 0-17.074219 7.683594-17.074219 17.074219 0 9.394531 7.683594 17.078125 17.074219 17.078125 9.394531 0 17.078125-7.683594 17.078125-17.078125 0-9.390625-7.683594-17.074219-17.078125-17.074219zm0 0" fill="#3e4b5a"/><path d="m153.722656 462.292969c0-4.832031 2.042969-9.199219 5.296875-12.3125-3.070312-2.9375-7.21875-4.761719-11.78125-4.761719-9.390625 0-17.074219 7.683594-17.074219 17.074219 0 9.394531 7.683594 17.078125 17.074219 17.078125 4.5625 0 8.710938-1.824219 11.78125-4.761719-3.253906-3.117187-5.296875-7.484375-5.296875-12.316406zm0 0" fill="#374451"/><path d="m38.019531 100.609375v317.050781c0 2.402344 2.109375 4.507813 4.511719 4.507813h209.417969c2.402343 0 4.511719-2.105469 4.511719-4.507813 0-12.894531 0-293.996094 0-317.050781zm0 0" fill="#8ac2ff"/><path d="m72.964844 100.609375h-34.945313v317.050781c0 2.402344 2.109375 4.507813 4.511719 4.507813h30.433594zm0 0" fill="#6fb1ff"/><path d="m65.964844 195.152344v93.554687c0 3.605469 2.054687 6.894531 5.289062 8.476563l75.984375 37.175781v-99.445313zm0 0" fill="#feca57"/><path d="m65.964844 195.152344v93.554687c0 3.605469 2.054687 6.894531 5.289062 8.476563l29.714844 14.539062v-99.445312zm0 0" fill="#f4b537"/><path d="m147.238281 234.914062v99.445313l75.984375-37.175781c3.238282-1.582032 5.292969-4.871094 5.292969-8.476563v-93.554687zm0 0" fill="#f4b537"/><path d="m151.183594 159.59375c-2.503906-1.152344-5.382813-1.152344-7.886719 0l-77.332031 35.558594 81.273437 39.761718 81.277344-39.761718zm0 0" fill="#fcd486"/><path d="m151.183594 159.59375c-2.503906-1.152344-5.382813-1.152344-7.886719 0l-77.332031 35.558594 34.957031 17.101562 82.394531-37.886718zm0 0" fill="#feca57"/><path d="m251.949219 67.457031h-175.886719v35.152344h180.394531v-30.644531c0-2.402344-2.105469-4.507813-4.507812-4.507813zm0 0" fill="#54a0ff"/><path d="m78.0625 67.457031h-35.535156c-2.402344 0-4.507813 2.105469-4.507813 4.507813v30.644531h40.039063v-35.152344zm0 0" fill="#ff6b6b"/><path d="m72.964844 67.457031h-30.4375c-2.402344 0-4.507813 2.105469-4.507813 4.507813v30.644531h34.941407v-35.152344zm0 0" fill="#ee5253"/><path d="m122.203125 462.460938c0 13.550781 11.027344 24.574218 24.578125 24.574218s24.574219-11.023437 24.574219-24.574218c0-13.554688-11.023438-24.578126-24.574219-24.578126s-24.578125 11.023438-24.578125 24.578126zm34.152344 0c0 5.277343-4.296875 9.574218-9.574219 9.574218-5.28125 0-9.574219-4.296875-9.574219-9.574218 0-5.28125 4.292969-9.578126 9.574219-9.578126 5.277344 0 9.574219 4.296876 9.574219 9.578126zm0 0"/><path d="m164.902344 45.0625c4.140625 0 7.5-3.359375 7.5-7.5 0-4.144531-3.359375-7.5-7.5-7.5h-36.242188c-4.140625 0-7.5 3.355469-7.5 7.5 0 4.140625 3.359375 7.5 7.5 7.5zm0 0"/><path d="m263.5 417.824219c0-3.132813 0-342.570313 0-345.695313 0-6.507812-5.5-12.007812-12.011719-12.007812-10.488281 0-199.230469 0-209.417969 0-6.511718 0-12.011718 5.5-12.011718 12.007812v345.695313c0 6.511719 5.5 12.011719 12.011718 12.011719h209.417969c6.511719 0 12.011719-5.5 12.011719-12.011719zm-218.4375-342.703125h25.039062v20.152344h-25.039062zm203.4375 339.714844h-203.4375v-304.558594h203.4375zm0-319.5625h-163.398438v-20.152344h163.398438zm0 0"/><path d="m62.382812 188.5h-.007812c-2.703125 1.257812-4.367188 3.945312-4.367188 6.816406v99.445313c0 2.863281 1.628907 5.476562 4.203126 6.738281l81.273437 39.761719c2.003906.984375 4.519531 1.015625 6.59375 0l81.273437-39.761719c2.574219-1.261719 4.203126-3.875 4.203126-6.738281v-99.445313c0-2.898437-1.734376-5.589844-4.34375-6.804687-.007813 0-.015626-.007813-.023438-.011719-.003906 0-.011719-.003906-.015625-.003906l-81.257813-37.367188c-1.988281-.914062-4.273437-.914062-6.265624 0l-81.261719 37.367188s-.003907 0-.003907.003906zm158.171876 101.582031-66.273438 32.421875v-82.742187l66.273438-32.425781zm-73.773438-123.882812 63.777344 29.328125-63.777344 31.203125-63.777344-31.203125zm-73.773438 41.136719 66.273438 32.425781v82.742187l-66.273438-32.421875zm0 0"/><path d="m164.28125 15h87.207031c14.929688 0 27.070313 12.144531 27.070313 27.070312v196.429688c0 4.140625 3.359375 7.5 7.5 7.5 4.144531 0 7.5-3.359375 7.5-7.5v-196.429688c.003906-23.199218-18.871094-42.070312-42.070313-42.070312h-87.207031c-4.140625 0-7.5 3.359375-7.5 7.5 0 4.144531 3.359375 7.5 7.5 7.5zm0 0"/><path d="m42.070312 512h209.417969c23.199219 0 42.070313-18.875 42.070313-42.070312v-196.429688c0-4.140625-3.355469-7.5-7.5-7.5-4.140625 0-7.5 3.359375-7.5 7.5v196.429688c0 14.925781-12.144532 27.070312-27.070313 27.070312h-209.417969c-14.925781 0-27.070312-12.144531-27.070312-27.070312v-427.859376c0-14.925781 12.144531-27.070312 27.070312-27.070312h87.210938c4.140625 0 7.5-3.355469 7.5-7.5 0-4.140625-3.359375-7.5-7.5-7.5h-87.210938c-23.199218 0-42.070312 18.875-42.070312 42.070312v427.859376c0 23.195312 18.871094 42.070312 42.070312 42.070312zm0 0"/></svg>