<svg height="512pt" viewBox="0 -64 512.001 512" width="512pt" xmlns="http://www.w3.org/2000/svg"><path d="m297.449219 317.011719v-36.875c-22.402344-.578125-45.28125-.683594-68.449219-.289063v37.164063c0 8.679687-4.125 16.738281-10.894531 21.296875l-12.8125 8.617187c38.601562-1.230469 78.511719-1.058593 116.640625.523438l-13.589844-9.140625c-6.769531-4.558594-10.894531-12.617188-10.894531-21.296875zm0 0" fill="#c7d2e5"/><path d="m263.921875 279.636719c-11.101563-.050781-21.816406-.011719-34.921875.210937v37.164063c0 8.679687-4.125 16.738281-10.894531 21.296875l-12.808594 8.617187c14.882813-.472656 30.058594-.730469 45.351563-.785156 15.351562-16.285156 13.273437-14.757813 13.273437-66.503906zm0 0" fill="#bac7db"/><path d="m32.210938 59.59375c16.09375 4.953125 39.503906 9.292969 68.191406 12.710938 3.773437.449218 6.617187 3.640624 6.617187 7.4375v185.324218c20.023438-2.226562 42.410157-4.011718 66.492188-5.269531 2.476562-4.542969 7.191406-7.722656 12.738281-7.960937 48.511719-2.082032 102.847656-2.03125 154.089844.648437 5.550781.292969 10.234375 3.515625 12.667968 8.089844 24.363282 1.515625 46.75 3.585937 66.417969 6.105469v-188.671876c0-3.742187 2.777344-6.910156 6.484375-7.417968 22.621094-3.113282 41.292969-6.835938 54.804688-10.996094-104.757813-24.105469-343.695313-24.117188-448.503906 0zm0 0" fill="#54a0ff"/><path d="m100.402344 72.304688c3.773437.449218 6.621094 3.640624 6.621094 7.4375v185.324218c10.09375-1.125 20.792968-2.132812 32-3.019531v-184.304687c0-12.742188-6.414063-24.132813-16.332032-30.933594-36.601562 3.144531-67.671875 7.535156-90.480468 12.785156 16.09375 4.953125 39.503906 9.292969 68.191406 12.710938zm0 0" fill="#338def"/><path d="m41.222656 62.109375c95.691406-24.378906 334.730469-24.394531 430.476563 0 21.144531-5.386719 33.257812-11.640625 33.257812-18.3125 0-20.230469-111.257812-36.632813-248.5-36.632813-137.242187 0-248.5 16.402344-248.5 36.632813.003907 6.671875 12.125 12.925781 33.265625 18.3125zm0 0" fill="#6fb1ff"/><path d="m7.960938 43.796875c0 6.671875 12.121093 12.921875 33.261718 18.3125 20.589844-5.246094 49.765625-9.664063 84.671875-12.851563-5.46875-4.683593-12.328125-7.839843-19.941406-8.746093-45.703125-5.445313-64.652344-10.347657-72.175781-12.988281-16.515625 4.902343-25.816406 10.429687-25.816406 16.273437zm0 0" fill="#54a0ff"/><path d="m339.558594 377.332031c-.269532 0-.539063-.007812-.808594-.023437-48.667969-2.542969-101.992188-2.746094-151.191406-.632813-8.410156.347657-15.542969-6.175781-15.902344-14.597656-.363281-8.421875 6.171875-15.539063 14.59375-15.902344 48.519531-2.082031 102.847656-2.03125 154.089844.648438 8.421875.441406 14.886718 7.621093 14.449218 16.039062-.425781 8.148438-7.167968 14.46875-15.230468 14.46875zm0 0" fill="#e4eaf8"/><path d="m339.558594 358.328125c-.269532 0-.539063-.003906-.808594-.019531-50.234375-2.625-103.621094-2.675782-151.191406-.632813-5.058594.207031-9.640625-2.078125-12.578125-5.757812-2.21875 2.78125-3.492188 6.332031-3.324219 10.160156.359375 8.421875 7.492188 14.945313 15.902344 14.597656 47.566406-2.042969 100.953125-1.992187 151.191406.632813.269531.015625.539062.023437.808594.023437 8.066406 0 14.804687-6.320312 15.230468-14.46875.203126-3.878906-1.074218-7.480469-3.316406-10.296875-2.808594 3.519532-7.121094 5.761719-11.914062 5.761719zm0 0" fill="#c7d2e5"/><path d="m318.6875 84.820312h-110.925781c-4.328125 0-7.832031 3.507813-7.832031 7.832032v77.855468l33.589843-33.589843c3.058594-3.058594 8.015625-3.058594 11.078125 0l26.816406 24.894531 15.433594-15.433594c3.058594-3.058594 8.019532-3.058594 11.078125 0l28.59375 28.59375v-82.320312c0-4.324219-3.503906-7.832032-7.832031-7.832032zm0 0" fill="#feca57"/><path d="m234.191406 84.820312h-26.429687c-4.328125 0-7.832031 3.507813-7.832031 7.832032v77.855468l33.589843-33.589843c.214844-.214844.4375-.410157.671875-.59375zm0 0" fill="#f4b537"/><path d="m244.597656 134.917969c-3.058594-3.058594-8.019531-3.058594-11.078125 0l-33.589843 33.589843v35.070313c0 4.328125 3.503906 7.832031 7.832031 7.832031h14.050781l50.640625-50.636718zm0 0" fill="#1dd1a1"/><path d="m234.191406 134.324219c-.230468.183593-.457031.378906-.671875.59375l-33.589843 33.589843v35.070313c0 4.328125 3.503906 7.832031 7.832031 7.832031h14.050781l12.375-12.375v-64.710937zm0 0" fill="#15ba8b"/><path d="m102.402344 104.9375c-56.378906-6.71875-94.441406-14.992188-94.441406-26.507812v215.90625c0 11.429687 37.511718 21.632812 93.152343 28.351562 4.203125.507812 7.910157-2.765625 7.910157-6.996094v-203.320312c0-3.796875-2.847657-6.988282-6.621094-7.433594zm0 0" fill="#6fb1ff"/><path d="m42.960938 95.617188c-22.011719-4.847657-35-10.464844-35-17.1875v215.90625c0 6.722656 12.988281 13.019531 35 18.433593zm0 0" fill="#54a0ff"/><path d="m102.402344 70.304688c-56.378906-6.714844-94.441406-14.992188-94.441406-26.507813v36.632813c0 11.515624 38.0625 19.789062 94.441406 26.507812 3.773437.445312 6.621094 3.636719 6.621094 7.4375v-36.632812c0-3.796876-2.847657-6.988282-6.621094-7.4375zm0 0" fill="#8ac2ff"/><path d="m42.960938 60.984375c-22.011719-4.847656-35-10.464844-35-17.1875v36.632813c0 6.722656 12.988281 12.339843 35 17.1875zm0 0" fill="#6fb1ff"/><path d="m423.914062 103.21875c-3.710937.511719-6.488281 3.675781-6.488281 7.421875v201.292969c0 4.285156 3.796875 7.570312 8.046875 6.976562 47.722656-6.675781 79.484375-14.113281 79.484375-24.574218v-215.90625c0 10.574218-32.410156 18.105468-81.042969 24.789062zm0 0" fill="#6fb1ff"/><path d="m423.914062 68.589844c-3.710937.507812-6.488281 3.675781-6.488281 7.421875v36.628906c0-3.742187 2.777344-6.910156 6.488281-7.417969 48.632813-6.6875 81.042969-14.21875 81.042969-24.792968v-36.632813c0 10.578125-32.410156 18.105469-81.042969 24.792969zm0 0" fill="#8ac2ff"/><path d="m339.558594 282.992188c-.269532 0-.539063-.003907-.808594-.019532-50.238281-2.746094-103.617188-2.796875-151.191406-.664062-8.410156.363281-15.542969-6.453125-15.902344-15.253906-.363281-8.800782 6.171875-16.242188 14.59375-16.617188 48.519531-2.175781 102.847656-2.125 154.089844.675781 8.421875.460938 14.886718 7.964844 14.449218 16.761719-.425781 8.515625-7.167968 15.117188-15.230468 15.117188zm0 0" fill="#e4eaf8"/><path d="m339.558594 263.992188c-.269532 0-.539063-.007813-.808594-.023438-50.238281-2.742188-103.617188-2.796875-151.191406-.660156-5.246094.226562-9.992188-2.339844-12.910156-6.4375-2.015626 2.835937-3.148438 6.382812-2.992188 10.183594.359375 8.800781 7.492188 15.621093 15.902344 15.253906 47.574218-2.132813 100.953125-2.082032 151.191406.664062.269531.015625.539062.023438.808594.023438 8.066406 0 14.804687-6.605469 15.230468-15.117188.191407-3.859375-.941406-7.464844-2.988281-10.339844-2.792969 3.929688-7.261719 6.453126-12.242187 6.453126zm0 0" fill="#c7d2e5"/><path d="m318.6875 211.410156c4.324219 0 7.832031-3.503906 7.832031-7.832031v-30.605469l-28.59375-28.59375c-3.058593-3.058594-8.019531-3.058594-11.078125 0l-67.035156 67.03125zm0 0" fill="#29e5af"/><path d="m234.191406 211.410156v-14.375l-14.378906 14.375zm0 0" fill="#1dd1a1"/><path d="m79.191406 10.636719c-70.191406 10.347656-79.191406 23.246093-79.191406 33.324219v250.539062c0 12.390625 16.046875 18.859375 30.027344 23.117188 16.269531 4.953124 39.058594 9.21875 67.730468 12.683593 8.683594 1.046875 16.308594-5.746093 16.308594-14.445312v-43.882813c15.484375-1.605468 32.113282-2.9375 49.636719-3.976562.003906.078125-.003906.152344 0 .230468.535156 12.546876 11.207031 22.304688 23.71875 21.769532 11.015625-.472656 22.246094-.828125 33.617187-1.070313v28.019531c0 5.746094-2.859374 11.15625-7.460937 14.128907l-11.054687 7.136719c-5.730469.183593-11.417969.394531-17.054688.636718-12.566406.539063-22.308594 11.144532-21.765625 23.714844.535156 12.527344 11.210937 22.316406 23.71875 21.773438 18.832031-.808594 38.4375-1.28125 58.277344-1.402344 4.140625-.023438 7.480469-3.402344 7.453125-7.542969-.023438-4.128906-3.378906-7.457031-7.5-7.457031-.015625 0-.03125 0-.046875 0-20.019531.121094-39.8125.597656-58.816407 1.414062-4.273437.144532-7.917968-3.152344-8.101562-7.425781-.183594-4.289063 3.140625-7.902344 7.425781-8.085937 48.894531-2.097657 103.484375-1.964844 153.378907.644531 4.28125.222656 7.570312 3.871093 7.347656 8.15625-.222656 4.246093-3.824219 7.574219-8.160156 7.347656-18.523438-.96875-38.011719-1.605469-57.914063-1.898437-.039063 0-.074219 0-.113281 0-4.089844 0-7.4375 3.285156-7.496094 7.390624-.0625 4.144532 3.25 7.550782 7.390625 7.609376 19.714844.289062 39.011719.921874 57.367187 1.882812 12.613282.648438 23.25-9.039062 23.90625-21.546875.65625-12.566406-8.980468-23.261719-21.546874-23.921875-5.425782-.285156-10.917969-.53125-16.449219-.757812l-11.871094-7.664063c-4.601563-2.972656-7.460937-8.386719-7.460937-14.128906v-27.671875c11.328124.335937 22.492187.78125 33.421874 1.351562 12.527344.644532 23.34375-8.960937 23.90625-21.757812 17.746094 1.238281 34.382813 2.785156 49.648438 4.609375v40.621093c0 8.851563 7.847656 15.628907 16.582031 14.40625 74.40625-10.410156 83.949219-23.640624 83.949219-34.007812v-93.566406c0-4.140625-3.355469-7.5-7.5-7.5s-7.5 3.359375-7.5 7.5v93.109375c-1.035156 1.382812-10.308594 11.066406-70.53125 19.539062 0-21.527343.007812-195.65625.007812-198.765625 37.210938-5.113281 58.492188-10.933594 70.523438-16.773437v67.890625c0 4.144531 3.355469 7.5 7.5 7.5s7.5-3.355469 7.5-7.5c0-6.765625 0-119.316406 0-121.972656 0-47.566407-300.320312-52.851563-432.808594-33.324219zm345.332032 13.972656c64.054687 8.816406 71.074218 18.851563 72.074218 19.351563-4.613281 4.734374-19.050781 8.902343-25.386718 10.574218-97.539063-24.023437-332.8125-24.042968-430.414063 0-6.203125-1.640625-20.894531-6.011718-25.394531-10.574218 25.125-25.671876 260.378906-39.820313 409.121094-19.351563zm-325.460938 290.738281c-72.367188-8.78125-82.953125-19.824218-84.0625-21.304687v-195.953125c20.605469 9.9375 61.25 15.742187 84.0625 18.449218zm0-213.90625c-72.371094-8.777344-82.953125-19.820312-84.0625-21.304687v-18.671875c20.683594 9.945312 61.402344 15.753906 84.058594 18.453125v-.011719h.003906zm129.558594 236.148438c4.742187-5.640625 7.417968-12.902344 7.417968-20.644532v-28.261718c18.675782-.21875 37.988282-.113282 53.453126.21875v28.042968c0 7.867188 2.765624 15.242188 7.652343 20.921876-22.898437-.546876-46.074219-.636719-68.523437-.277344zm110.058594-61.941406c-49.984376-2.613282-103.78125-2.707032-151.890626-.640626-4.273437.128907-7.917968-3.152343-8.101562-7.425781-.179688-4.246093 3.15625-7.902343 7.425781-8.085937 48.410157-2.078125 102.464844-2.019532 153.378907.644531 4.234374.222656 7.570312 3.878906 7.347656 8.15625-.222656 4.265625-3.84375 7.574219-8.160156 7.351563zm85.753906-212.324219c-7.394532 1.015625-12.964844 7.398437-12.964844 14.851562v180.195313c-16.796875-1.96875-35.167969-3.609375-54.789062-4.882813-4.164063-5.089843-10.164063-8-16.40625-8.328125-50.789063-2.652344-105.277344-2.773437-154.804688-.648437-6.335938.269531-12.34375 3.148437-16.496094 8.15625-19.417968 1.066406-37.832031 2.480469-54.90625 4.222656 0-6.144531 0-168.636719 0-176.984375 0-7.582031-5.6875-13.984375-13.230468-14.882812h-.003907c-7.964843-.949219-14.601562-1.851563-20.5625-2.738282 96.777344-14.425781 254.804688-14.40625 351.4375-.003906-2.488281.371094-4.871093.710938-7.273437 1.042969zm72.566406 16.8125c-1.035156 1.382812-10.308594 11.070312-70.523438 19.535156v-21.488281c20.070313-2.757813 52.414063-7.976563 70.523438-16.769532zm0 0"/><path d="m318.230469 77.484375h-110.929688c-8.453125 0-15.332031 6.878906-15.332031 15.332031v110.929688c0 8.453125 6.878906 15.332031 15.332031 15.332031h110.929688c8.453125 0 15.332031-6.878906 15.332031-15.332031 0-46.398438 0-63.859375 0-110.929688 0-8.453125-6.878906-15.332031-15.332031-15.332031zm-101.984375 126.59375h-8.945313c-.179687 0-.332031-.152344-.332031-.332031v-31.964844l31.398438-31.394531c.128906-.128907.339843-.128907.46875 0l20.550781 20.550781zm102.316406-.332031c0 .179687-.148438.332031-.332031.332031h-80.765625c5.484375-5.488281 47.664062-47.667969 54.230468-54.230469.128907-.132812.339844-.132812.46875-.003906l26.398438 26.402344zm0-48.714844-15.792969-15.792969c-5.980469-5.976562-15.707031-5.976562-21.683593 0l-11.09375 11.09375-20.550782-20.550781c-5.980468-5.980469-15.707031-5.976562-21.683594 0l-20.789062 20.785156v-57.75c0-.179687.148438-.332031.332031-.332031h110.925781c.183594 0 .332032.152344.332032.332031v62.214844zm0 0"/></svg>