<svg height="512pt" viewBox="-101 0 512 512.001" width="512pt" xmlns="http://www.w3.org/2000/svg"><path d="m151.101562 293.378906c6.246094 0 12.265626.960938 17.921876 2.734375v-47.046875h-35.421876v46.921875c5.535157-1.691406 11.410157-2.609375 17.5-2.609375zm0 0" fill="#e4eaf8"/><path d="m151.101562 403.042969c-6.089843 0-11.964843-.917969-17.5-2.609375v54.992187h35.421876v-55.117187c-5.65625 1.773437-11.675782 2.734375-17.921876 2.734375zm0 0" fill="#e4eaf8"/><g fill="#c7d2e5"><path d="m156.367188 249.066406h-22.769532v46.921875c5.539063-1.691406 11.414063-2.609375 17.503906-2.609375 1.773438 0 3.527344.085938 5.265626.238282zm0 0"/><path d="m156.367188 402.804688c-1.734376.152343-3.492188.238281-5.265626.238281-6.089843 0-11.964843-.917969-17.5-2.609375v54.992187h22.765626zm0 0"/><path d="m173.351562 249.066406 9.570313-38.269531-10.042969-5.796875c-6.285156 3.871094-13.679687 6.105469-21.605468 6.105469-7.921876 0-15.316407-2.234375-21.601563-6.105469l-9.96875 5.753906 9.578125 38.3125zm0 0"/></g><path d="m129.671875 205-9.96875 5.753906 9.582031 38.3125h28.011719l-9.535156-38.125c-6.59375-.558594-12.746094-2.652344-18.089844-5.941406zm0 0" fill="#bac7db"/><path d="m301.691406 241.816406-111.855468-64.578125c-.777344 12.929688-7.914063 24.144531-18.328126 30.558594l89.851563 51.875c14.738281 8.511719 33.585937 3.460937 42.09375-11.277344 1.332031-2.300781.542969-5.246093-1.761719-6.578125zm0 0" fill="#e4eaf8"/><path d="m288.246094 259.675781-77.292969-44.628906c-5.664063-3.269531-6.878906-10.777344-2.765625-15.855469 2.0625-2.542968 3.804688-5.355468 5.171875-8.371094l-23.523437-13.582031c-.777344 12.929688-7.914063 24.144531-18.328126 30.558594l89.851563 51.878906c9.191406 5.304688 19.980469 5.335938 28.863281 1.035157-.664062-.320313-1.324218-.660157-1.976562-1.035157zm0 0" fill="#c7d2e5"/><path d="m151.277344 136.246094c6.359375 0 12.351562 1.546875 17.640625 4.265625v-102.363281c0-17.015626-13.796875-30.8125-30.816407-30.8125-2.660156 0-4.816406 2.15625-4.816406 4.816406v128.539062c5.375-2.832031 11.496094-4.445312 17.992188-4.445312zm0 0" fill="#e4eaf8"/><path d="m159.238281 16.65625c-5.597656-5.746094-13.414062-9.320312-22.070312-9.320312-2.660157 0-4.816407 2.15625-4.816407 4.8125v128.542968c5.375-2.835937 11.492188-4.445312 17.992188-4.445312 3.0625 0 6.039062.367187 8.894531 1.042968zm0 0" fill="#c7d2e5"/><path d="m112.71875 177.238281-89.339844 51.578125c-14.738281 8.511719-19.785156 27.355469-11.277344 42.09375 1.328126 2.304688 4.273438 3.09375 6.578126 1.761719l112.367187-64.875c-10.414063-6.414063-17.546875-17.628906-18.328125-30.558594zm0 0" fill="#e4eaf8"/><path d="m50.269531 228.816406 65.8125-37.996094c-1.894531-4.183593-3.070312-8.761718-3.363281-13.582031l-89.339844 51.578125c-14.738281 8.511719-19.785156 27.355469-11.277344 42.09375 1.332032 2.304688 4.273438 3.09375 6.578126 1.761719l17.0625-9.851563c-3.175782-12.964843 2.382812-26.992187 14.527343-34.003906zm0 0" fill="#c7d2e5"/><path d="m210.933594 348.210938c0 33.042968-26.789063 59.832031-59.832032 59.832031-33.042968 0-59.832031-26.789063-59.832031-59.832031 0-33.046876 26.789063-59.832032 59.832031-59.832032 33.042969 0 59.832032 26.785156 59.832032 59.832032zm0 0" fill="#feca57"/><path d="m126.273438 348.210938c0-26.953126 17.824218-49.738282 42.328124-57.222657-5.535156-1.691406-11.410156-2.609375-17.5-2.609375-33.042968 0-59.832031 26.789063-59.832031 59.832032 0 33.042968 26.789063 59.832031 59.832031 59.832031 6.089844 0 11.964844-.917969 17.5-2.609375-24.503906-7.484375-42.328124-30.269532-42.328124-57.222656zm0 0" fill="#f4b537"/><path d="m191.980469 174.882812c0 22.460938-18.207031 40.667969-40.667969 40.667969s-40.667969-18.207031-40.667969-40.667969c0-22.460937 18.207031-40.667968 40.667969-40.667968s40.667969 18.207031 40.667969 40.667968zm0 0" fill="#8ac2ff"/><path d="m133.410156 174.882812c0-18.507812 12.367188-34.117187 29.285156-39.042968-3.613281-1.050782-7.429687-1.625-11.382812-1.625-22.460938 0-40.667969 18.207031-40.667969 40.667968 0 22.460938 18.207031 40.667969 40.667969 40.667969 3.953125 0 7.769531-.574219 11.382812-1.625-16.917968-4.925781-29.285156-20.535156-29.285156-39.042969zm0 0" fill="#6fb1ff"/><path d="m164.988281 174.882812c0 7.550782-6.125 13.675782-13.675781 13.675782-7.554688 0-13.675781-6.125-13.675781-13.675782 0-7.554687 6.121093-13.675781 13.675781-13.675781 7.550781 0 13.675781 6.121094 13.675781 13.675781zm0 0" fill="#54a0ff"/><path d="m162.695312 167.308594c-2.449218-3.675782-6.632812-6.101563-11.382812-6.101563-7.554688 0-13.675781 6.121094-13.675781 13.675781 0 7.554688 6.121093 13.675782 13.675781 13.675782 4.75 0 8.933594-2.425782 11.382812-6.101563-3.046874-4.570312-3.070312-10.546875 0-15.148437zm0 0" fill="#338def"/><path d="m180.789062 477.847656v-16.289062c0-6.148438-4.988281-11.132813-11.136718-11.132813h-36.679688c-6.152344 0-11.136718 4.984375-11.136718 11.132813v16.289062zm0 0" fill="#3e4b5a"/><path d="m122.097656 459.179688c-.167968.769531-.261718 1.5625-.261718 2.378906v16.289062h58.953124v-16.289062c0-.816406-.09375-1.609375-.261718-2.378906-8.738282 0-50.554688 0-58.429688 0zm0 0" fill="#374451"/><path d="m193.546875 474.847656c-9.277344 0-76.621094 0-84.472656 0-4.671875 0-8.496094 3.824219-8.496094 8.496094v12.496094c0 4.671875 3.824219 8.492187 8.496094 8.492187h84.472656c4.675781 0 8.496094-3.820312 8.496094-8.492187v-12.496094c0-4.671875-3.820313-8.496094-8.496094-8.496094zm0 0" fill="#576574"/><path d="m193.546875 485.667969c-9.273437 0-76.621094 0-84.472656 0-3.582031 0-6.660157-2.253907-7.902344-5.410157-.378906.960938-.59375 2-.59375 3.085938v12.496094c0 4.671875 3.824219 8.496094 8.496094 8.496094h84.472656c4.671875 0 8.496094-3.824219 8.496094-8.496094v-12.496094c0-1.085938-.214844-2.125-.59375-3.085938-1.238281 3.15625-4.316407 5.410157-7.902344 5.410157zm0 0" fill="#3e4b5a"/><path d="m150.820312 154.554688c-11.300781 0-20.492187 9.191406-20.492187 20.492187s9.191406 20.492187 20.492187 20.492187c11.296876 0 20.492188-9.191406 20.492188-20.492187s-9.195312-20.492187-20.492188-20.492187zm0 25.984374c-3.027343 0-5.492187-2.464843-5.492187-5.492187s2.464844-5.492187 5.492187-5.492187c3.027344 0 5.488282 2.464843 5.488282 5.492187s-2.460938 5.492187-5.488282 5.492187zm0 0"/><path d="m257.152344 266.335938c18.339844 10.585937 41.75 4.316406 52.335937-14.023438 3.40625-5.894531 1.390625-13.421875-4.503906-16.824219l-108.078125-62.398437c-.644531-15.359375-8.832031-28.792969-20.949219-36.699219v-98.074219c0-21.128906-17.1875-38.316406-38.3125-38.316406-6.792969 0-12.316406 5.523438-12.316406 12.316406v124.300782c-11.921875 7.9375-19.957031 21.261718-20.59375 36.472656l-85.5625 49.398437c-18.339844 10.585938-24.613281 34-14.023437 52.339844 3.390624 5.875 10.929687 7.90625 16.820312 4.507813l94.417969-54.511719 4.519531 18.0625c-2.109375 1.328125-3.515625 3.667969-3.515625 6.34375 0 4.144531 3.359375 7.5 7.5 7.5h.75v29.148437c-24.777344 9.949219-42.328125 34.203125-42.328125 62.5 0 28.289063 17.550781 52.546875 42.328125 62.496094v33.542969c-6.882813 2.742187-11.765625 9.460937-11.765625 17.308593v5.789063h-5.257812c-8.820313 0-15.996094 7.175781-15.996094 15.996094v12.492187c0 8.820313 7.175781 15.996094 15.996094 15.996094h24.523437c4.144531 0 7.5-3.355469 7.5-7.5s-3.355469-7.5-7.5-7.5h-24.523437c-.53125 0-.996094-.464844-.996094-.996094v-12.496094c0-.527343.464844-.992187.996094-.992187h84.472656c.527344 0 .996094.464844.996094.992187v12.496094c0 .527344-.46875.996094-.996094.996094h-24.945313c-4.144531 0-7.5 3.355469-7.5 7.5 0 4.140625 3.355469 7.5 7.5 7.5h24.945313c8.820312 0 15.996094-7.175781 15.996094-15.996094v-12.496094c0-8.816406-7.175782-15.996093-15.996094-15.996093h-5.261719v-5.789063c0-7.84375-4.882813-14.5625-11.761719-17.304687v-33.710938c19.125-7.8125 34.148438-24.214843 39.664063-45.078125 1.0625-4.003906-1.328125-8.109375-5.332031-9.167968-4.007813-1.0625-8.109376 1.328124-9.167969 5.332031-7.304688 27.613281-35.648438 44.496093-63.78125 37.226562-22.488281-5.863281-39.136719-26.34375-39.136719-50.644531s16.648438-44.78125 39.140625-50.644531c26.5-6.847657 53.679687 7.773437 62.613281 33.445312 1.359375 3.910157 5.636719 5.980469 9.546875 4.617188 3.914063-1.363281 5.980469-5.636719 4.621094-9.550781-6.484375-18.625-20.632813-33.039063-38.167969-40.207032v-29.304687h.679688c4.144531 0 7.5-3.359375 7.5-7.5 0-2.648438-1.375-4.96875-3.445313-6.304688l4.515625-18.066406zm-240.222656-1.410157c-4.632813-10.648437-.699219-23.421875 9.742187-29.445312l80.226563-46.320313c2.058593 6.390625 5.691406 12.636719 10.546874 17.730469zm123.710937 150.039063c6.59375.984375 13.667969.988281 20.425781-.0625v28.1875h-20.425781zm-11.761719 46.757812c0-1.78125 1.191406-3.632812 4.261719-3.632812h36.054687c2.003907 0 3.632813 1.628906 3.632813 3.632812v5.789063h-43.949219zm11.449219-446.570312c11.597656 1.335937 20.628906 11.214844 20.628906 23.164062v91.726563c-7.0625-1.589844-14.148437-1.4375-20.628906.078125zm20.738281 266.695312c-6.953125-1.082031-13.957031-1.027344-20.425781-.0625v-25.054687h20.425781zm4.570313-40.117187h-29.558594l-6.179687-24.710938.792968-.453125c12.753906 6.1875 27.71875 6.078125 40.253906 0 .429688.246094.523438.300782.859376.496094zm-14.816407-35.546875c-17.0625 0-31.136718-13.882813-31.136718-31.136719 0-17.246094 14.074218-31.136719 31.136718-31.136719 17.140626 0 31.132813 13.960938 31.132813 31.136719 0 17.042969-13.855469 31.136719-31.132813 31.136719zm43.917969-17.023438 100.285157 57.898438c-6.890626 9.3125-19.914063 12.324218-30.371094 6.285156l-80.460938-46.453125c4.601563-4.820313 8.386719-11.023437 10.546875-17.730469zm0 0"/><path d="m136.527344 384.691406c3.210937 2.617188 7.9375 2.136719 10.554687-1.078125l24.820313-30.460937c.003906-.003906.007812-.007813.011718-.011719l.019532-.027344c.011718-.011719.019531-.027343.027344-.039062 3.964843-4.929688.386718-12.199219-5.84375-12.199219h-15.167969l14.882812-18.265625c2.617188-3.210937 2.136719-7.933594-1.074219-10.550781-3.214843-2.617188-7.9375-2.132813-10.554687 1.078125l-24.820313 30.464843c-.003906.003907-.007812.003907-.011718.007813l-.019532.027344c-.011718.015625-.019531.027343-.027343.042969-3.894531 4.835937-.515625 12.195312 5.84375 12.195312h15.167969l-14.882813 18.265625c-2.617187 3.210937-2.136719 7.933594 1.074219 10.550781zm0 0"/></svg>