<svg height="511pt" viewBox="1 -2 511.99975 511" width="511pt" xmlns="http://www.w3.org/2000/svg"><path d="m14.902344 275.675781c-9.261719-13.109375-9.261719-30.726562 0-43.835937 117.910156-166.886719 365.265625-166.792969 483.109375 0 9.261719 13.109375 9.261719 30.726562 0 43.835937-117.941407 166.933594-365.304688 166.738281-483.109375 0zm0 0" fill="#fcd486"/><path d="m49.90625 275.675781c-9.265625-13.109375-9.265625-30.726562 0-43.835937 55.179688-78.101563 138.707031-119.625 224.042969-124.617188-96.992188-5.671875-196.328125 35.847656-259.042969 124.617188-9.265625 13.109375-9.265625 30.726562-.003906 43.835937 62.683594 88.722657 162.050781 130.285157 259.078125 124.613281-85.371094-4.996093-168.921875-46.550781-224.074219-124.613281zm0 0" fill="#feca57"/><path d="m41.167969 250.394531c-1.421875 2.011719-1.421875 4.710938 0 6.722657 105.003906 148.613281 325.546875 148.65625 430.578125 0 1.421875-2.011719 1.421875-4.710938 0-6.722657-105-148.613281-325.550782-148.652343-430.578125 0zm0 0" fill="#feca57"/><path d="m76.171875 257.117188c-1.421875-2.011719-1.421875-4.710938 0-6.722657 48.742187-68.988281 122.371094-105.929687 197.78125-110.878906-87.0625-5.710937-176.507813 31.226563-232.785156 110.878906-1.417969 2.011719-1.417969 4.710938 0 6.722657 56.269531 79.640624 145.722656 116.59375 232.796875 110.878906-75.421875-4.949219-149.054688-41.898438-197.792969-110.878906zm0 0" fill="#f4b537"/><path d="m363.515625 253.757812c0 59.125-47.929687 107.058594-107.058594 107.058594-59.125 0-107.058593-47.933594-107.058593-107.058594 0-59.128906 47.933593-107.0625 107.058593-107.0625 59.128907 0 107.058594 47.933594 107.058594 107.0625zm0 0" fill="#54a0ff"/><path d="m193.34375 253.757812c0-51.597656 36.5-94.664062 85.085938-104.800781-66.730469-13.921875-129.03125 37.046875-129.03125 104.800781 0 67.867188 62.417968 118.695313 129.03125 104.796876-48.585938-10.136719-85.085938-53.203126-85.085938-104.796876zm0 0" fill="#338def"/><path d="m53.761719 54.210938c0 9.160156-7.425781 16.585937-16.585938 16.585937-9.160156 0-16.585937-7.425781-16.585937-16.585937 0-9.15625 7.425781-16.582032 16.585937-16.582032 9.160157 0 16.585938 7.425782 16.585938 16.582032zm0 0" fill="#54a0ff"/><path d="m48.675781 42.277344c-2.980469-2.875-7.03125-4.648438-11.5-4.648438-9.160156 0-16.585937 7.425782-16.585937 16.582032 0 14.597656 17.578125 22.066406 28.085937 11.9375-6.785156-6.542969-6.773437-17.339844 0-23.871094zm0 0" fill="#338def"/><path d="m492.324219 54.210938c0 9.160156-7.425781 16.585937-16.585938 16.585937-9.160156 0-16.582031-7.425781-16.582031-16.585937 0-9.15625 7.421875-16.582032 16.582031-16.582032 9.160157 0 16.585938 7.425782 16.585938 16.582032zm0 0" fill="#54a0ff"/><path d="m487.242188 42.277344c-3.253907-3.128906-7.765626-4.960938-12.714844-4.605469-8.273438.589844-14.964844 7.457031-15.355469 15.742187-.707031 15.058594 17.359375 23.054688 28.070313 12.734376-6.789063-6.542969-6.777344-17.339844 0-23.871094zm0 0" fill="#338def"/><path d="m53.761719 453.300781c0 9.160157-7.425781 16.585938-16.585938 16.585938-9.160156 0-16.585937-7.425781-16.585937-16.585938 0-9.160156 7.425781-16.585937 16.585937-16.585937 9.160157 0 16.585938 7.425781 16.585938 16.585937zm0 0" fill="#54a0ff"/><path d="m48.675781 441.367188c-2.980469-2.875-7.03125-4.652344-11.5-4.652344-9.160156 0-16.585937 7.425781-16.585937 16.585937 0 14.59375 17.578125 22.0625 28.085937 11.933594-6.785156-6.542969-6.773437-17.339844 0-23.867187zm0 0" fill="#338def"/><path d="m492.324219 453.300781c0 9.160157-7.425781 16.585938-16.585938 16.585938-9.160156 0-16.582031-7.425781-16.582031-16.585938 0-9.160156 7.421875-16.585937 16.582031-16.585937 9.160157 0 16.585938 7.425781 16.585938 16.585937zm0 0" fill="#54a0ff"/><path d="m487.242188 441.367188c-3.253907-3.132813-7.765626-4.960938-12.714844-4.609376-8.273438.589844-14.964844 7.457032-15.355469 15.742188-.707031 15.0625 17.359375 23.058594 28.070313 12.734375-6.789063-6.542969-6.777344-17.339844 0-23.867187zm0 0" fill="#338def"/><path d="m273.042969 483.089844c0 9.160156-7.425781 16.585937-16.585938 16.585937-9.160156 0-16.585937-7.425781-16.585937-16.585937 0-9.15625 7.425781-16.582032 16.585937-16.582032 9.160157 0 16.585938 7.425782 16.585938 16.582032zm0 0" fill="#54a0ff"/><path d="m267.957031 471.15625c-2.980469-2.875-7.03125-4.652344-11.5-4.652344-9.160156 0-16.585937 7.425782-16.585937 16.585938 0 14.597656 17.578125 22.066406 28.085937 11.933594-6.785156-6.539063-6.773437-17.335938 0-23.867188zm0 0" fill="#338def"/><path d="m272.875 24.421875c0 9.160156-7.425781 16.585937-16.585938 16.585937-9.160156 0-16.585937-7.425781-16.585937-16.585937s7.425781-16.585937 16.585937-16.585937c9.160157 0 16.585938 7.425781 16.585938 16.585937zm0 0" fill="#54a0ff"/><path d="m267.789062 12.488281c-2.980468-2.875-7.03125-4.652343-11.5-4.652343-9.160156 0-16.585937 7.425781-16.585937 16.585937 0 14.59375 17.574219 22.0625 28.085937 11.933594-6.785156-6.542969-6.773437-17.335938 0-23.867188zm0 0" fill="#338def"/><path d="m369.617188 98.023438c3.238281 2.597656 7.957031 2.074218 10.546874-1.148438l28.121094-34.996094h44.109375c3.160157 9.621094 12.222657 16.585938 22.886719 16.585938 13.277344 0 24.082031-10.804688 24.082031-24.085938s-10.804687-24.085937-24.082031-24.085937c-10.664062 0-19.726562 6.96875-22.886719 16.585937h-47.707031c-2.269531 0-4.421875 1.03125-5.84375 2.800782l-30.375 37.796874c-2.59375 3.230469-2.078125 7.953126 1.148438 10.546876zm105.664062-52.730469c5.007812 0 9.082031 4.074219 9.082031 9.085937 0 5.007813-4.074219 9.085938-9.082031 9.085938-5.011719 0-9.085938-4.078125-9.085938-9.085938 0-5.011718 4.074219-9.085937 9.085938-9.085937zm0 0"/><path d="m280.085938 24.585938c0-13.28125-10.804688-24.085938-24.085938-24.085938s-24.085938 10.804688-24.085938 24.085938c0 10.664062 6.964844 19.722656 16.585938 22.882812v25.8125c0 4.144531 3.355469 7.503906 7.5 7.503906 4.140625 0 7.5-3.359375 7.5-7.503906v-25.8125c9.617188-3.160156 16.585938-12.21875 16.585938-22.882812zm-24.085938 9.085937c-5.011719 0-9.085938-4.074219-9.085938-9.085937 0-5.007813 4.074219-9.085938 9.085938-9.085938 5.007812 0 9.085938 4.078125 9.085938 9.085938 0 5.011718-4.078126 9.085937-9.085938 9.085937zm0 0"/><path d="m12.632812 54.378906c0 13.28125 10.804688 24.085938 24.085938 24.085938 10.660156 0 19.722656-6.96875 22.882812-16.585938h44.109376l28.121093 34.996094c2.59375 3.226562 7.3125 3.742188 10.546875 1.148438 3.226563-2.597657 3.742188-7.316407 1.148438-10.546876l-30.375-37.796874c-1.421875-1.769532-3.574219-2.800782-5.847656-2.800782h-47.703126c-3.160156-9.621094-12.21875-16.585937-22.882812-16.585937-13.28125 0-24.085938 10.804687-24.085938 24.085937zm33.167969 0c0 5.007813-4.074219 9.085938-9.082031 9.085938-5.011719 0-9.085938-4.078125-9.085938-9.085938 0-5.011718 4.074219-9.085937 9.085938-9.085937 5.007812 0 9.082031 4.074219 9.082031 9.085937zm0 0"/><path d="m142.015625 410.273438c-3.230469-2.59375-7.949219-2.082032-10.546875 1.148437l-27.757812 34.542969h-44.109376c-3.160156-9.621094-12.21875-16.585938-22.882812-16.585938-13.28125 0-24.085938 10.804688-24.085938 24.085938s10.804688 24.085937 24.085938 24.085937c10.664062 0 19.722656-6.96875 22.882812-16.585937h47.707032c2.269531 0 4.421875-1.03125 5.847656-2.804688l30.007812-37.34375c2.59375-3.226562 2.082032-7.949218-1.148437-10.542968zm-105.296875 52.277343c-5.011719 0-9.085938-4.074219-9.085938-9.085937 0-5.007813 4.074219-9.085938 9.085938-9.085938 5.007812 0 9.082031 4.078125 9.082031 9.085938 0 5.007812-4.074219 9.085937-9.082031 9.085937zm0 0"/><path d="m263.5 460.371094v-23.5c0-4.144532-3.359375-7.5-7.5-7.5-4.144531 0-7.5 3.355468-7.5 7.5v23.5c-9.621094 3.160156-16.585938 12.222656-16.585938 22.882812 0 13.28125 10.804688 24.089844 24.085938 24.089844s24.085938-10.808594 24.085938-24.089844c0-10.660156-6.96875-19.71875-16.585938-22.882812zm-7.5 31.972656c-5.011719 0-9.085938-4.078125-9.085938-9.085938 0-5.011718 4.074219-9.085937 9.085938-9.085937 5.007812 0 9.085938 4.074219 9.085938 9.085937 0 5.007813-4.078126 9.085938-9.085938 9.085938zm0 0"/><path d="m475.28125 429.378906c-10.664062 0-19.722656 6.964844-22.886719 16.585938h-44.109375l-28.121094-34.996094c-2.59375-3.226562-7.3125-3.742188-10.542968-1.148438-3.230469 2.597657-3.746094 7.316407-1.148438 10.546876l30.371094 37.796874c1.425781 1.769532 3.574219 2.800782 5.847656 2.800782h47.707032c3.160156 9.621094 12.21875 16.585937 22.882812 16.585937 13.28125 0 24.085938-10.804687 24.085938-24.085937s-10.804688-24.085938-24.085938-24.085938zm0 33.171875c-5.011719 0-9.085938-4.074219-9.085938-9.085937 0-5.007813 4.074219-9.085938 9.085938-9.085938 5.007812 0 9.082031 4.078125 9.082031 9.085938 0 5.007812-4.074219 9.085937-9.082031 9.085937zm0 0"/><path d="m273.9375 99.902344c-4.136719-.261719-7.683594 2.914062-7.925781 7.050781-.242188 4.132813 2.914062 7.683594 7.050781 7.925781 87.875 5.144532 167.464844 49.410156 218.367188 121.453125 7.433593 10.523438 7.433593 24.660157 0 35.183594-115.117188 162.929687-355.886719 162.726563-470.859376 0-7.433593-10.523437-7.433593-24.660156.003907-35.183594 50.902343-72.050781 130.496093-116.320312 218.363281-121.457031 4.132812-.242188 7.289062-3.789062 7.050781-7.925781-.242187-4.136719-3.804687-7.300781-7.925781-7.050781-92.449219 5.40625-176.1875 51.976562-229.742188 127.777343-11.09375 15.699219-11.09375 36.796875 0 52.496094 120.953126 171.191406 374.578126 170.957031 495.363282 0 11.089844-15.699219 11.089844-36.796875-.003906-52.496094-53.546876-75.789062-137.285157-122.363281-229.742188-127.773437zm0 0"/><path d="m454.746094 241.136719c2.605468 3.222656 7.328125 3.722656 10.550781 1.113281 3.21875-2.605469 3.71875-7.328125 1.113281-10.546875-111.746094-138.132813-327.335937-133.363281-431.824218 14.53125-3.25 4.597656-3.25 10.777344 0 15.375 104.878906 148.4375 320.503906 152.140625 431.824218 14.53125 2.605469-3.222656 2.105469-7.945313-1.113281-10.550781-3.222656-2.605469-7.945313-2.105469-10.550781 1.117187-41.363282 51.132813-99.285156 83.433594-163.25 92.152344 44.640625-15.082031 75.261718-57.207031 75.261718-104.9375 0-47.757813-30.621093-89.847656-75.242187-104.929687 63.949219 8.726562 121.875 41.019531 163.230469 92.144531zm-407.222656 12.785156c41.390624-58.03125 103.253906-95.277344 172.738281-104.859375-44.507813 15.148438-75.019531 57.21875-75.019531 104.859375 0 47.65625 30.503906 89.699219 75.011718 104.855469-69.484375-9.589844-131.34375-46.828125-172.730468-104.855469zm136.894531 7.5c.53125 12.402344 2.363281 24.414063 5.402343 35.636719-4.484374 3.347656-8.734374 7.039062-12.707031 11.078125-9.589843-13.910157-15.273437-29.964844-16.578125-46.714844zm-23.882813-15c1.34375-17.25 7.277344-33.226563 16.578125-46.714844 3.972657 4.039063 8.222657 7.730469 12.707031 11.078125-3.039062 11.222656-4.871093 23.234375-5.402343 35.636719zm34.308594 65.769531c3.464844 8.707032 7.816406 17.042969 13.371094 24.6875-7.769532-4.507812-15.070313-10.164062-21.582032-17.015625 2.597657-2.730469 5.34375-5.285156 8.210938-7.671875zm-8.210938-124.214844c6.324219-6.648437 13.589844-12.390624 21.585938-17.015624-5.546875 7.628906-9.902344 15.964843-13.375 24.691406-2.867188-2.386719-5.613281-4.945313-8.210938-7.675782zm61.867188 160.828126c-20.164062-4.660157-33.9375-26.050782-41.015625-45.507813 12.414063-7.304687 26.40625-11.75 41.015625-12.886719zm0-73.425782c-16.0625 1.078125-31.503906 5.609375-45.375 13.152344-2.011719-8.613281-3.257812-17.71875-3.695312-27.109375h49.070312zm0-28.957031h-49.070312c.4375-9.390625 1.683593-18.496094 3.695312-27.109375 13.871094 7.542969 29.3125 12.074219 45.375 13.152344zm0-28.988281c-14.609375-1.136719-28.597656-5.582032-41.015625-12.886719 7.050781-19.382813 20.859375-40.875 41.015625-45.507813zm15 15.03125c16.058594-1.078125 31.5-5.609375 45.375-13.152344 2.007812 8.613281 3.253906 17.71875 3.691406 27.109375h-49.066406zm0 28.957031h49.066406c-.4375 9.386719-1.683594 18.496094-3.691406 27.109375-13.875-7.546875-29.316406-12.074219-45.375-13.15625zm0 87.382813v-58.394532c14.605469 1.136719 28.597656 5.582032 41.011719 12.886719-7.066407 19.4375-20.890625 40.894531-41.011719 45.507813zm40.28125-11.925782c5.554688-7.644531 9.90625-15.976562 13.371094-24.6875 2.867187 2.386719 5.613281 4.941406 8.210937 7.671875-6.324219 6.65625-13.5625 12.367188-21.582031 17.015625zm31.105469-28.746094c-3.972657-4.035156-8.226563-7.726562-12.707031-11.074218 3.035156-11.222656 4.871093-23.234375 5.398437-35.636719h23.886719c-1.304688 16.710937-6.972656 32.777344-16.578125 46.710937zm0-108.425781c9.296875 13.488281 15.234375 29.464844 16.578125 46.714844h-23.886719c-.527344-12.40625-2.363281-24.417969-5.398437-35.636719 4.480468-3.347656 8.734374-7.039062 12.707031-11.078125zm-9.519531-11.730469c-2.601563 2.734376-5.34375 5.289063-8.214844 7.675782-3.472656-8.730469-7.828125-17.0625-13.371094-24.691406 7.992188 4.621093 15.261719 10.367187 21.585938 17.015624zm-20.855469 16.570313c-12.414063 7.304687-26.40625 11.75-41.011719 12.886719v-58.394532c20.109375 4.609376 33.9375 26.046876 41.011719 45.507813zm0 0"/></svg>