<svg height="511pt" viewBox="-95 0 511 511.99919" width="511pt" xmlns="http://www.w3.org/2000/svg"><path d="m171.664062 3.878906c-6.207031-2.601562-13.167968-2.601562-19.375 0-84.4375 35.425782-143.746093 118.875-143.746093 216.179688 0 97.492187 59.539062 181.074218 144.238281 216.378906 5.871094 2.449219 12.519531 2.449219 18.390625 0 84.699219-35.304688 144.238281-118.886719 144.238281-216.378906 0-97.304688-59.308594-180.753906-143.746094-216.179688zm0 0" fill="#29e5af"/><path d="m43.773438 220.058594c0-94.230469 55.621093-175.46875 135.816406-212.675782-2.613282-1.214843-5.257813-2.382812-7.925782-3.503906-6.207031-2.605468-13.167968-2.605468-19.375 0-84.4375 35.425782-143.746093 118.875-143.746093 216.179688 0 97.492187 59.539062 181.074218 144.238281 216.378906 5.871094 2.449219 12.519531 2.449219 18.390625 0 2.835937-1.179688 5.640625-2.421875 8.417969-3.710938-80.195313-37.210937-135.816406-118.441406-135.816406-212.667968zm0 0" fill="#1dd1a1"/><path d="m123.730469 145.128906c0 8.421875-6.828125 15.246094-15.25 15.246094-8.417969 0-15.246094-6.824219-15.246094-15.246094s6.828125-15.246094 15.246094-15.246094c8.421875 0 15.25 6.824219 15.25 15.246094zm0 0" fill="#e4eaf8"/><path d="m118.808594 133.933594c-2.714844-2.507813-6.335938-4.050782-10.328125-4.050782-8.417969 0-15.246094 6.824219-15.246094 15.246094s6.828125 15.246094 15.246094 15.246094c3.992187 0 7.613281-1.542969 10.328125-4.050781-6.558594-6.054688-6.5625-16.332031 0-22.390625zm0 0" fill="#c7d2e5"/><path d="m230.71875 145.128906c0 8.421875-6.824219 15.246094-15.246094 15.246094s-15.25-6.824219-15.25-15.246094 6.828125-15.246094 15.25-15.246094 15.246094 6.824219 15.246094 15.246094zm0 0" fill="#e4eaf8"/><path d="m225.800781 133.933594c-2.71875-2.507813-6.339843-4.050782-10.328125-4.050782-8.421875 0-15.25 6.824219-15.25 15.246094 0 13.28125 15.84375 20.179688 25.578125 11.195313-6.558593-6.054688-6.5625-16.332031 0-22.390625zm0 0" fill="#c7d2e5"/><path d="m242.21875 323.214844c0 8.417968-6.824219 15.246094-15.246094 15.246094s-15.25-6.828126-15.25-15.246094c0-8.421875 6.828125-15.25 15.25-15.25s15.246094 6.828125 15.246094 15.25zm0 0" fill="#e4eaf8"/><path d="m237.300781 312.019531c-2.71875-2.507812-6.339843-4.054687-10.328125-4.054687-8.421875 0-15.25 6.828125-15.25 15.25 0 8.417968 6.828125 15.246094 15.25 15.246094 3.988282 0 7.609375-1.542969 10.328125-4.054688-6.5625-6.050781-6.5625-16.328125 0-22.386719zm0 0" fill="#c7d2e5"/><path d="m112.230469 323.214844c0 8.417968-6.828125 15.246094-15.246094 15.246094-8.421875 0-15.25-6.828126-15.25-15.246094 0-8.421875 6.828125-15.25 15.25-15.25 8.417969 0 15.246094 6.828125 15.246094 15.25zm0 0" fill="#e4eaf8"/><path d="m107.308594 312.019531c-2.714844-2.507812-6.335938-4.054687-10.324219-4.054687-8.421875 0-15.25 6.828125-15.25 15.25 0 8.417968 6.828125 15.246094 15.25 15.246094 3.988281 0 7.609375-1.542969 10.324219-4.054688-6.558594-6.050781-6.5625-16.328125 0-22.386719zm0 0" fill="#c7d2e5"/><path d="m177.222656 253.652344c0 8.421875-6.824218 15.25-15.246094 15.25-8.421874 0-15.246093-6.828125-15.246093-15.25 0-8.417969 6.824219-15.246094 15.246093-15.246094 8.421876 0 15.246094 6.828125 15.246094 15.246094zm0 0" fill="#e4eaf8"/><path d="m172.304688 242.460938c-2.71875-2.511719-6.335938-4.054688-10.328126-4.054688-8.417968 0-15.246093 6.828125-15.246093 15.246094 0 8.421875 6.828125 15.25 15.246093 15.25 3.992188 0 7.609376-1.546875 10.328126-4.054688-6.558594-6.050781-6.5625-16.332031 0-22.386718zm0 0" fill="#c7d2e5"/><path d="m307.105469 209.484375c.191406 4.0625 3.542969 7.226563 7.566406 7.226563.117187 0 .238281 0 .359375-.007813 4.183594-.195313 7.414062-3.742187 7.21875-7.925781-4.300781-92.257813-60.289062-171.117188-139.855469-208.070313-3.796875-1.765625-8.304687-.113281-10.066406 3.683594-1.765625 3.796875-.117187 8.304687 3.679687 10.066406 76.921876 35.722657 127.15625 110.453125 131.097657 195.027344zm0 0"/><path d="m15.660156 220.226562c0-87.941406 51.5625-168.710937 131.359375-205.765624 3.796875-1.765626 5.445313-6.273438 3.679688-10.070313-1.761719-3.796875-6.265625-5.445313-10.066407-3.683594-83.328124 38.699219-140.132812 122.871094-140.132812 219.519531 0 48.695313 14.410156 95.644532 41.664062 135.769532 26.605469 39.160156 63.6875 69.453125 107.238282 87.609375 1.472656.613281 2.988281 1.109375 4.53125 1.488281v59.324219c0 4.1875 3.390625 7.582031 7.578125 7.582031 4.191406 0 7.582031-3.394531 7.582031-7.582031v-59.328125c1.542969-.378906 3.058594-.871094 4.53125-1.488282 81.972656-34.167968 138.53125-110.160156 147.609375-198.320312.429687-4.164062-2.597656-7.886719-6.761719-8.316406-4.171875-.433594-7.890625 2.597656-8.320312 6.761718-8.457032 82.160157-60.925782 153.035157-137.058594 185.324219v-70.230469c5.386719-1.148437 24.585938-8.152343 42.855469-17.875 17.171875 14.253907 42.636719-2.320312 36.511719-23.816406 15.082031-11.9375 28.203124-25.394531 39.046874-40.066406 2.488282-3.367188 1.777344-8.113281-1.589843-10.601562-3.367188-2.488282-8.113281-1.773438-10.601563 1.589843-9.898437 13.394531-21.871094 25.714844-35.640625 36.695313-3.722656-2.640625-8.265625-4.199219-13.167969-4.199219-14.375 0-25.246093 13.210937-22.371093 27.375-11.140625 5.882813-22.894531 10.960937-35.042969 15.140625v-67.714844c8.230469-2.90625 14.308594-10.402344 15.144531-19.402344 42.773438-15.152343 78.320313-39.078124 103.050781-69.433593 2.644532-3.246094 2.15625-8.019531-1.089843-10.664063-3.25-2.644531-8.019531-2.15625-10.664063 1.089844-22.71875 27.882812-55.476562 50-95.023437 64.238281-2.722657-4.074219-6.71875-7.226562-11.417969-8.886719v-55.371093c3.621094-.988281 17.363281-5.835938 31.835938-13.675781 17.78125 13.976562 43.011718-3.917969 35.675781-25.328126 7.421875-6.828124 14.058593-14.164062 19.757812-21.875 2.488281-3.367187 1.773438-8.113281-1.59375-10.601562-3.367187-2.488281-8.109375-1.777344-10.601562 1.59375-4.914063 6.648438-10.625 13-17 18.957031-17.167969-10.855469-38.957031 4.636719-34.402344 24.425781-7.570313 4.042969-15.496094 7.566407-23.671875 10.519532v-121.230469c0-4.1875-3.390625-7.582031-7.578125-7.582031s-7.582031 3.394531-7.582031 7.582031v121.234375c-8.175782-2.953125-16.101563-6.476562-23.671875-10.519531.378906-1.648438.585937-3.359375.585937-5.121094 0-17.894531-19.816406-28.898437-34.988281-19.308594-6.375-5.953125-12.082031-12.304687-17-18.957031-2.488281-3.367188-7.234375-4.078125-10.601563-1.589844-3.367187 2.488282-4.078124 7.234375-1.589843 10.601563 5.699219 7.710937 12.335937 15.046875 19.753906 21.871093-.792969 2.320313-1.230469 4.800782-1.230469 7.382813 0 18.964844 21.957032 29.699219 36.90625 17.949219 13.066406 7.078125 26.867188 12.316406 31.835938 13.675781v55.371094c-4.695313 1.65625-8.695313 4.808593-11.414063 8.886719-39.550781-14.242188-72.308593-36.355469-95.023437-64.242188-2.640625-3.242188-7.417969-3.734375-10.667969-1.089844-3.242187 2.644532-3.730469 7.417969-1.085937 10.667969 24.726562 30.355469 60.273437 54.28125 103.046874 69.433594.835938 8.996093 6.914063 16.496093 15.144532 19.402343v67.714844c-12.144532-4.179687-23.898438-9.261718-35.039063-15.140625 4.097657-20.195312-18.730469-35.09375-35.542969-23.175781-13.769531-10.984375-25.742187-23.304688-35.636718-36.695312-2.488282-3.367188-7.234375-4.078126-10.601563-1.589844-3.367187 2.488281-4.078125 7.234375-1.59375 10.601562 10.84375 14.671875 23.964844 28.125 39.050781 40.066406-6.117187 21.472657 19.320313 38.082032 36.507813 23.816407 18.304687 9.738281 37.523437 16.738281 42.855469 17.875v70.226562c-84.042969-35.636719-138.273438-117.445312-138.273438-208.824219zm210.847656 95.488282c4.226563 0 7.664063 3.4375 7.664063 7.664062 0 4.226563-3.4375 7.667969-7.664063 7.667969-4.226562 0-7.667968-3.441406-7.667968-7.667969 0-4.226562 3.441406-7.664062 7.667968-7.664062zm-11.5-178.085938c4.226563 0 7.667969 3.441406 7.667969 7.667969s-3.441406 7.664063-7.667969 7.664063c-4.226562 0-7.667968-3.4375-7.667968-7.664063s3.441406-7.667969 7.667968-7.667969zm-106.988281 15.335938c-4.230469 0-7.667969-3.441406-7.667969-7.667969 0-2.21875.789063-3.46875 1.71875-4.828125 4.53125-5.570312 13.613282-2.382812 13.613282 4.828125 0 4.226563-3.4375 7.667969-7.664063 7.667969zm45.980469 99.332031c.003906-.019531.007812-.042969.015625-.0625 1.894531-8.960937 15.164063-7.628906 15.164063 1.585937 0 4.230469-3.4375 7.667969-7.667969 7.667969-4.84375 0-8.472657-4.453125-7.511719-9.191406zm-57.480469 78.75c-4.230469 0-7.667969-3.4375-7.667969-7.667969 0-4.226562 3.4375-7.664062 7.667969-7.664062 4.226563 0 7.664063 3.4375 7.664063 7.664062 0 4.230469-3.4375 7.667969-7.664063 7.667969zm0 0"/></svg>