<svg height="512pt" viewBox="-76 0 512 512.00125" width="512pt" xmlns="http://www.w3.org/2000/svg"><path d="m52.90625 66.023438v149.046874c0 4.355469 2.484375 8.332032 6.394531 10.246094l121.238281 59.316406v-156.164062zm0 0" fill="#54a0ff"/><path d="m180.539062 128.46875v156.164062l121.234376-59.316406c3.914062-1.914062 6.394531-5.890625 6.394531-10.246094v-149.046874zm0 0" fill="#338def"/><path d="m185.304688 9.527344c-3.023438-1.390625-6.507813-1.390625-9.53125 0l-122.867188 56.496094 127.632812 62.445312 127.628907-62.445312zm0 0" fill="#8ac2ff"/><path d="m185.304688 9.527344c-3.023438-1.390625-6.507813-1.390625-9.53125 0l-122.867188 56.496094 35.582031 17.410156 128.769531-59.210938zm0 0" fill="#6fb1ff"/><path d="m52.90625 66.023438v149.046874c0 4.355469 2.480469 8.332032 6.394531 10.246094l28.609375 13.996094v-156.164062zm0 0" fill="#338def"/><path d="m302.558594 399.503906c-1.925782 1.214844-4.191406 1.929688-6.621094 1.929688h-230.796875c-2.429687 0-4.699219-.714844-6.621094-1.929688l-37.042969 75.238282h318.125zm0 0" fill="#c7d2e5"/><path d="m65.140625 401.433594c-2.429687 0-4.699219-.714844-6.621094-1.929688l-37.042969 75.238282h40.25l36.09375-73.308594zm0 0" fill="#bac7db"/><path d="m340.640625 472.742188h-320.207031c-6.859375 0-12.472656 5.613281-12.472656 12.476562v6.929688c0 6.859374 5.613281 12.476562 12.472656 12.476562h320.207031c6.863281 0 12.476563-5.617188 12.476563-12.476562v-6.929688c0-6.863281-5.613282-12.476562-12.476563-12.476562zm0 0" fill="#e4eaf8"/><path d="m42.960938 492.148438v-6.929688c0-6.863281 5.613281-12.476562 12.476562-12.476562h-35c-6.863281 0-12.476562 5.613281-12.476562 12.476562v6.929688c0 6.859374 5.613281 12.476562 12.476562 12.476562h35c-6.863281-.003906-12.476562-5.617188-12.476562-12.476562zm0 0" fill="#c7d2e5"/><path d="m308.414062 390.957031v-6.929687c0-6.863282-5.617187-12.476563-12.476562-12.476563h-230.796875c-6.863281 0-12.476563 5.613281-12.476563 12.476563v6.929687c0 6.859375 5.613282 12.476563 12.476563 12.476563h230.796875c6.863281 0 12.476562-5.617188 12.476562-12.476563zm0 0" fill="#e4eaf8"/><path d="m87.664062 390.957031v-6.929687c0-6.863282 5.617188-12.476563 12.476563-12.476563h-35c-6.863281 0-12.476563 5.613281-12.476563 12.476563v6.929687c0 6.859375 5.613282 12.476563 12.476563 12.476563h35c-6.863281 0-12.476563-5.613282-12.476563-12.476563zm0 0" fill="#c7d2e5"/><path d="m0 485.09375v6.929688c0 11.015624 8.960938 19.976562 19.976562 19.976562h320.207032c11.015625 0 19.976562-8.960938 19.976562-19.976562v-6.929688c0-9.75-7.023437-17.875-16.277344-19.617188l-32.53125-62.5625c2.5625-3.359374 4.105469-7.539062 4.105469-12.082031v-6.929687c0-11.015625-8.960937-19.976563-19.976562-19.976563h-97.898438c-4.144531 0-7.5 3.359375-7.5 7.5 0 4.144531 3.355469 7.5 7.5 7.5h97.898438c2.695312 0 4.972656 2.28125 4.972656 4.976563v6.929687c0 2.78125-2.382813 4.976563-4.972656 4.976563h-230.800781c-2.613282 0-4.972657-2.210938-4.972657-4.976563v-6.929687c0-2.695313 2.277344-4.976563 4.972657-4.976563h97.898437c4.144531 0 7.5-3.355469 7.5-7.5 0-4.140625-3.355469-7.5-7.5-7.5h-97.898437c-11.015626 0-19.976563 8.960938-19.976563 19.976563v6.929687c0 4.542969 1.542969 8.722657 4.105469 12.082031l-32.53125 62.5625c-9.253906 1.742188-16.277344 9.867188-16.277344 19.617188zm61.726562-74.507812c.738282.113281 2.011719.222656 2.953126.222656h230.796874c.945313 0 2.21875-.109375 2.957032-.222656l28.355468 54.53125h-293.417968zm-41.75 69.535156h320.207032c2.695312 0 4.972656 2.277344 4.972656 4.972656v6.929688c0 2.699218-2.277344 4.976562-4.972656 4.976562h-320.207032c-2.695312 0-4.976562-2.277344-4.976562-4.976562v-6.929688c0-2.695312 2.28125-4.972656 4.976562-4.972656zm0 0"/><path d="m172.578125 317.710938v28.417968c0 4.144532 3.355469 7.5 7.5 7.5s7.5-3.355468 7.5-7.5v-28.417968c0-4.140626-3.355469-7.5-7.5-7.5s-7.5 3.359374-7.5 7.5zm0 0"/><path d="m86.789062 274.636719c-3.644531 1.964843-5.007812 6.511719-3.042968 10.160156l34.953125 64.890625c1.964843 3.648438 6.519531 5.007812 10.160156 3.046875 3.644531-1.964844 5.011719-6.515625 3.046875-10.160156l-34.957031-64.890625c-1.960938-3.648438-6.511719-5.011719-10.160157-3.046875zm0 0"/><path d="m263.207031 277.683594-34.953125 64.890625c-1.964844 3.644531-.601562 8.195312 3.046875 10.160156 3.644531 1.960937 8.195313.601563 10.160157-3.046875l34.953124-64.890625c1.964844-3.648437.601563-8.195313-3.046874-10.160156-3.644532-1.964844-8.195313-.601563-10.160157 3.046875zm0 0"/><path d="m191.859375 429.5h-23.5625c-4.144531 0-7.5 3.355469-7.5 7.5 0 4.140625 3.355469 7.5 7.5 7.5h23.5625c4.144531 0 7.503906-3.359375 7.503906-7.5 0-4.144531-3.359375-7.5-7.503906-7.5zm0 0"/><path d="m44.949219 222.351562c0 2.867188 1.628906 5.480469 4.203125 6.738282l127.628906 62.445312c1.976562.960938 4.476562 1.035156 6.59375 0l127.628906-62.445312c2.574219-1.257813 4.207032-3.871094 4.207032-6.738282v-58.714843c0-4.144531-3.359376-7.503907-7.5-7.503907-4.144532 0-7.503907 3.359376-7.503907 7.503907v54.035156l-112.628906 55.105469v-139.464844l112.628906-55.105469v50.425781c0 4.140626 3.359375 7.5 7.503907 7.5 4.140624 0 7.5-3.359374 7.5-7.5v-62.445312c0-.015625-.003907-.035156-.003907-.050781 0-.011719.003907-.027344 0-.039063-.03125-2.84375-1.742187-5.496094-4.332031-6.707031-.011719-.003906-.023438-.011719-.03125-.015625l-.007812-.003906s-.003907 0-.007813-.003906l-127.617187-58.679688c-1.988282-.917969-4.277344-.917969-6.265626 0l-127.617187 58.679688s-.003906.003906-.003906.003906l-.007813.003906c-2.609375 1.195312-4.367187 3.875-4.367187 6.8125zm135.128906-206.59375 110.136719 50.640626c-5.226563 2.554687-104.726563 51.238281-110.136719 53.882812l-110.132813-53.882812zm-120.128906 62.449219 112.628906 55.105469v139.464844l-112.628906-55.105469zm0 0"/></svg>