<?xml version="1.0" encoding="iso-8859-1"?>
<!-- Generator: Adobe Illustrator 21.0.0, SVG Export Plug-In . SVG Version: 6.00 Build 0)  -->
<svg xmlns="http://www.w3.org/2000/svg" xmlns:xlink="http://www.w3.org/1999/xlink" version="1.1" id="Capa_1" x="0px" y="0px" viewBox="0 0 512 512" style="enable-background:new 0 0 512 512;" xml:space="preserve" width="512" height="512">
<g>
	<rect x="188.364" y="401.474" style="fill:#FABC00;" width="30.129" height="110.526"/>
	<rect x="188.361" y="355.099" style="fill:#00AB00;" width="146.748" height="77.23"/>
	<rect x="261.735" y="355.099" style="fill:#008040;" width="73.374" height="77.23"/>
	<polygon style="fill:#60DA4D;" points="369.917,149.52 369.917,374.08 153.552,374.08 153.552,145.583 183.681,145.583    183.681,145.904 261.735,147.551 354.843,149.52  "/>
	<polygon style="fill:#00B863;" points="369.917,149.52 369.917,374.08 261.735,374.08 261.735,147.551 354.843,149.52  "/>
	<polygon style="fill:#FF7816;" points="395.688,110.934 395.688,157.484 127.782,157.484 127.782,110.934 261.735,0  "/>
	<rect x="19.699" y="47.032" style="fill:#FABC00;" width="30.129" height="30.129"/>
	<rect x="81.505" y="47.032" style="fill:#FABC00;" width="30.129" height="30.129"/>
	<rect x="50.707" y="15.564" style="fill:#FABC00;" width="30.129" height="30.129"/>
	<rect x="50.707" y="78.479" style="fill:#FABC00;" width="30.129" height="30.129"/>
	<rect x="400.366" y="239.846" style="fill:#FF9600;" width="30.129" height="30.129"/>
	<rect x="462.172" y="239.846" style="fill:#FF9600;" width="30.129" height="30.129"/>
	<rect x="431.373" y="208.378" style="fill:#FF9600;" width="30.129" height="30.129"/>
	<rect x="431.373" y="271.293" style="fill:#FF9600;" width="30.129" height="30.129"/>
	<g>
		<g>
			<polygon style="fill:#00AB00;" points="369.917,199.785 369.917,232.253 322.002,251.466 261.735,227.292 261.725,227.292      201.457,251.466 153.552,232.253 153.552,199.785 201.457,218.997 261.725,194.833 261.735,194.833 322.002,218.997    "/>
			<polygon style="fill:#00AB00;" points="369.917,199.785 369.917,232.253 322.002,251.466 261.735,227.292 261.725,227.292      201.457,251.466 153.552,232.253 153.552,199.785 201.457,218.997 261.725,194.833 261.735,194.833 322.002,218.997    "/>
		</g>
	</g>
	<g>
		<g>
			<polygon style="fill:#00AB00;" points="369.917,284.035 369.917,316.494 322.002,335.706 261.735,311.543 261.725,311.543      201.457,335.706 153.552,316.494 153.552,284.035 201.457,303.247 261.725,279.084 261.735,279.084 322.002,303.247    "/>
			<polygon style="fill:#00AB00;" points="369.917,284.035 369.917,316.494 322.002,335.706 261.735,311.543 261.725,311.543      201.457,335.706 153.552,316.494 153.552,284.035 201.457,303.247 261.725,279.084 261.735,279.084 322.002,303.247    "/>
		</g>
	</g>
	<polygon style="fill:#008040;" points="322.002,218.997 369.917,199.785 369.917,232.253 322.002,251.466 261.735,227.292    261.735,194.833  "/>
	<polygon style="fill:#008040;" points="322.002,303.247 369.917,284.035 369.917,316.494 322.002,335.706 261.735,311.543    261.735,279.084  "/>
	<polygon style="fill:#FF4B00;" points="395.688,110.934 395.688,157.484 261.735,157.484 261.735,0  "/>
</g>















</svg>
