<?xml version="1.0" encoding="iso-8859-1"?>
<!-- Generator: Adobe Illustrator 21.0.0, SVG Export Plug-In . SVG Version: 6.00 Build 0)  -->
<svg xmlns="http://www.w3.org/2000/svg" xmlns:xlink="http://www.w3.org/1999/xlink" version="1.1" id="Capa_1" x="0px" y="0px" viewBox="0 0 512 512" style="enable-background:new 0 0 512 512;" xml:space="preserve" width="512" height="512">
<g>
	<path style="fill:#703700;" d="M512,98.56v80.95l-5.01,4.48c-15.78,14.09-29.15,30.66-41.16,48.35   c-5.69,8.36-11.06,16.97-16.25,25.68c-6.69,11.23-13.07,22.64-19.39,33.94c-38.59,69.01-78.49,140.37-177.23,148.29l-2.4-29.9   c1.04-0.09,2.07-0.19,3.1-0.29l12.84-102.89l-4.61-14.27c43.05-13.92,72-50.62,102.65-89.49c3.16-4.01,6.33-8.02,9.52-12.03   c6.24-7.82,12.59-15.59,19.15-23.11c27.02-30.93,57.8-57.58,100.86-66.15L512,98.56z"/>
	<path style="fill:#BD6100;" d="M465.83,232.34c-5.69,8.36-11.06,16.97-16.25,25.68l-75.52-66.64c6.24-7.82,12.59-15.59,19.15-23.11   L465.83,232.34z"/>
	<path style="fill:#FF8800;" d="M272.28,226.19v149.67c0,75.07-61.07,136.14-136.14,136.14S0,450.93,0,375.86V226.19H272.28z"/>
	<rect y="279" style="fill:#BD6100;" width="272.28" height="30"/>
	<path style="fill:#EBDED9;" d="M222.42,104.61c0.13,1.43,0.19,2.86,0.19,4.31c0,25.69-20.9,46.59-46.59,46.59h-9.08   c-2.1,17.87-14.35,32.68-30.8,38.49c-4.85,1.72-10.06,2.65-15.48,2.65H62.82c-25.69,0-46.6-20.91-46.6-46.6s20.91-46.59,46.6-46.59   h9.08c2.02-17.25,13.49-31.64,29.08-37.85c-1.13-4.3-1.72-8.76-1.72-13.27c0-23.48,15.54-43.4,36.88-50.01   C141.03,0.82,146.22,0,151.6,0h68.35c28.85,0,52.33,23.48,52.33,52.34C272.28,80.37,250.13,103.32,222.42,104.61z"/>
	<path style="fill:#BD6100;" d="M272.28,226.19v149.67c0,75.07-61.07,136.14-136.14,136.14V226.19H272.28z"/>
	<path style="fill:#C9BBB6;" d="M136.14,194V2.33C141.03,0.82,146.22,0,151.6,0h68.35c28.85,0,52.33,23.48,52.33,52.34   c0,28.03-22.15,50.98-49.86,52.27c0.13,1.43,0.19,2.86,0.19,4.31c0,25.69-20.9,46.59-46.59,46.59h-9.08   C164.84,173.38,152.59,188.19,136.14,194z"/>
	<rect x="136.14" y="279" style="fill:#703700;" width="136.14" height="30"/>
</g>















</svg>
