<?xml version="1.0" encoding="iso-8859-1"?>
<!-- Generator: Adobe Illustrator 21.0.0, SVG Export Plug-In . SVG Version: 6.00 Build 0)  -->
<svg xmlns="http://www.w3.org/2000/svg" xmlns:xlink="http://www.w3.org/1999/xlink" version="1.1" id="Capa_1" x="0px" y="0px" viewBox="0 0 512.06 512.06" style="enable-background:new 0 0 512.06 512.06;" xml:space="preserve" width="512" height="512">
<g>
	<path style="fill:#BD6100;" d="M512.06,114.3v283.46l-6.19,4.49c-67.7,49.12-156.42,76.16-249.84,76.16S73.89,451.37,6.19,402.25   L0,397.76V114.3l6.19-4.49c67.7-49.12,156.42-76.16,249.84-76.16s182.14,27.04,249.84,76.16L512.06,114.3z"/>
	<path style="fill:#703700;" d="M512.06,256.03v141.73l-6.19,4.49c-67.7,49.12-156.42,76.16-249.84,76.16S73.89,451.37,6.19,402.25   L0,397.76V256.03H512.06z"/>
	<g>
		<rect x="0.03" y="310.28" style="fill:#BD6100;" width="512" height="30"/>
		<rect x="0.03" y="171.78" style="fill:#FF8800;" width="512" height="30"/>
	</g>
	<rect x="145.697" y="226.03" style="fill:#FF8800;" width="57.333" height="30"/>
	<rect x="223.565" y="226.03" style="fill:#FF8800;" width="28.986" height="30"/>
	<g>
		<path style="fill:#FF8800;" d="M157.49,43.57v424.92l-18.78-4.9c-20.93-5.46-41.32-12.44-60.61-20.75l-9.07-3.9V73.12l9.07-3.9    c19.29-8.31,39.69-15.29,60.61-20.75L157.49,43.57z"/>
		<path style="fill:#FF8800;" d="M443.03,73.12v365.82l-9.07,3.9c-19.29,8.31-39.68,15.29-60.61,20.75l-18.78,4.9V43.57l18.78,4.9    c20.92,5.46,41.32,12.44,60.61,20.75L443.03,73.12z"/>
	</g>
	<path style="fill:#BD6100;" d="M69.03,256.03h88.46v212.46l-18.78-4.9c-20.93-5.46-41.32-12.44-60.61-20.75l-9.07-3.9V256.03z"/>
	<path style="fill:#BD6100;" d="M443.03,256.03v182.91l-9.07,3.9c-19.29,8.31-39.68,15.29-60.61,20.75l-18.78,4.9V256.03H443.03z"/>
</g>















</svg>
