<?xml version="1.0" encoding="iso-8859-1"?>
<!-- Generator: Adobe Illustrator 21.0.0, SVG Export Plug-In . SVG Version: 6.00 Build 0)  -->
<svg xmlns="http://www.w3.org/2000/svg" xmlns:xlink="http://www.w3.org/1999/xlink" version="1.1" id="Capa_1" x="0px" y="0px" viewBox="0 0 512 512" style="enable-background:new 0 0 512 512;" xml:space="preserve" width="512" height="512">
<g>
	<g>
		<g>
			<g>
				<path style="fill:#FF7816;" d="M183.48,368.4v-46.743c0-39.99,32.53-72.52,72.52-72.52c19.37,0,37.58,7.54,51.28,21.24      c13.69,13.7,21.24,31.91,21.24,51.28V368.4h146.39v-46.743c0-58.47-22.77-113.45-64.12-154.79      c-41.35-41.35-96.32-64.12-154.79-64.12s-113.44,22.77-154.79,64.12c-41.35,41.34-64.12,96.32-64.12,154.79V368.4H183.48z"/>
			</g>
		</g>
	</g>
	<path style="fill:#FF4B00;" d="M328.52,321.656V368.4h146.39v-46.743c0-58.47-22.77-113.45-64.12-154.79   c-41.35-41.35-96.32-64.12-154.79-64.12v146.39c19.37,0,37.58,7.54,51.28,21.24C320.97,284.076,328.52,302.286,328.52,321.656z"/>
	<g>
		<g>
			<g>
				<path style="fill:#60DA4D;" d="M183.48,368.4v-46.743c0-39.99,32.53-72.52,72.52-72.52c19.37,0,37.58,7.54,51.28,21.24      c13.69,13.7,21.24,31.91,21.24,51.28V368.4h49.69v-46.743c0-67.39-54.82-122.21-122.21-122.21s-122.21,54.82-122.21,122.21      V368.4H183.48z"/>
			</g>
		</g>
	</g>
	<rect x="405.563" y="98.41" style="fill:#FF9600;" width="30" height="30"/>
	<rect x="467.104" y="98.41" style="fill:#FF9600;" width="30" height="30"/>
	<rect x="436.438" y="67.077" style="fill:#FF9600;" width="30" height="30"/>
	<rect x="436.438" y="129.723" style="fill:#FF9600;" width="30" height="30"/>
	<rect x="27.012" y="87.757" style="fill:#FABC00;" width="30" height="30"/>
	<rect x="88.554" y="87.757" style="fill:#FABC00;" width="30" height="30"/>
	<rect x="57.887" y="56.423" style="fill:#FABC00;" width="30" height="30"/>
	<rect x="57.887" y="119.069" style="fill:#FABC00;" width="30" height="30"/>
	<path style="fill:#00B863;" d="M328.52,321.656V368.4h49.69v-46.743c0-67.39-54.82-122.21-122.21-122.21v49.69   c19.37,0,37.58,7.54,51.28,21.24C320.97,284.076,328.52,302.286,328.52,321.656z"/>
	<path style="fill:#FABC00;" d="M133.79,368.4v-46.743c0-67.39,54.82-122.21,122.21-122.21s122.21,54.82,122.21,122.21V368.4h47   v-46.743c0-93.31-75.91-169.21-169.21-169.21s-169.21,75.9-169.21,169.21V368.4H133.79z"/>
	<path style="fill:#FF9600;" d="M378.21,321.656V368.4h47v-46.743c0-93.31-75.91-169.21-169.21-169.21v47   C323.39,199.446,378.21,254.266,378.21,321.656z"/>
	<g>
		<path style="fill:#FFF1F1;" d="M47.576,360.425c0.068,0,0.135,0.005,0.202,0.005c2.609-36.558,33.071-65.412,70.294-65.412    c37.285,0,67.789,28.951,70.308,65.596c24.344,2.091,43.454,22.501,43.454,47.386c0,26.275-21.3,47.576-47.576,47.576H47.576    C21.3,455.577,0,434.276,0,408.001C0,381.726,21.3,360.425,47.576,360.425z"/>
	</g>
	<g>
		<g>
			<path style="fill:#EBDED9;" d="M464.424,360.425c-0.068,0-0.135,0.005-0.202,0.005c-2.609-36.558-33.071-65.412-70.294-65.412     c-37.285,0-67.789,28.951-70.308,65.596c-24.344,2.091-43.454,22.501-43.454,47.386c0,26.275,21.3,47.576,47.576,47.576h136.682     c26.275,0,47.576-21.3,47.576-47.576C512,381.726,490.7,360.425,464.424,360.425z"/>
		</g>
	</g>
</g>















</svg>
