<?xml version="1.0" encoding="iso-8859-1"?>
<!-- Generator: Adobe Illustrator 21.0.0, SVG Export Plug-In . SVG Version: 6.00 Build 0)  -->
<svg xmlns="http://www.w3.org/2000/svg" xmlns:xlink="http://www.w3.org/1999/xlink" version="1.1" id="Capa_1" x="0px" y="0px" viewBox="0 0 512 512" style="enable-background:new 0 0 512 512;" xml:space="preserve" width="512" height="512">
<g>
	<polygon style="fill:#FFF1F1;" points="322.77,92.568 322.77,233.028 256,201.948 189.23,233.028 189.23,92.568  "/>
	<polygon style="fill:#60DA4D;" points="144.422,92.568 129.422,92.568 55.878,92.568 40.879,92.568 25.878,92.568 25.878,233.029    92.65,201.946 159.422,233.029 159.422,92.568  "/>
	<polygon style="fill:#FF4B00;" points="471.122,92.568 456.122,92.568 382.578,92.568 367.578,92.568 352.578,92.568    352.578,233.029 419.35,201.946 486.122,233.029 486.122,92.568  "/>
	<polygon style="fill:#EBDED9;" points="322.77,92.568 322.77,233.028 256,201.948 256,92.568  "/>
	<rect y="77.568" style="fill:#2F5994;" width="512" height="30"/>
	<rect x="256" y="77.568" style="fill:#183158;" width="256" height="30"/>
	<polygon style="fill:#FFF1F1;" points="322.77,293.971 322.77,434.431 256,403.351 189.23,434.431 189.23,293.971  "/>
	<polygon style="fill:#60DA4D;" points="144.422,293.971 129.422,293.971 55.878,293.971 40.879,293.971 25.878,293.971    25.878,434.432 92.65,403.349 159.422,434.432 159.422,293.971  "/>
	<polygon style="fill:#FF4B00;" points="471.122,293.971 456.122,293.971 382.578,293.971 367.578,293.971 352.578,293.971    352.578,434.432 419.35,403.349 486.122,434.432 486.122,293.971  "/>
	<polygon style="fill:#EBDED9;" points="322.77,293.971 322.77,434.431 256,403.351 256,293.971  "/>
	<rect y="278.971" style="fill:#2F5994;" width="512" height="30"/>
	<rect x="256" y="278.971" style="fill:#183158;" width="256" height="30"/>
</g>















</svg>
