<?xml version="1.0" encoding="iso-8859-1"?>
<!-- Generator: Adobe Illustrator 21.0.0, SVG Export Plug-In . SVG Version: 6.00 Build 0)  -->
<svg xmlns="http://www.w3.org/2000/svg" xmlns:xlink="http://www.w3.org/1999/xlink" version="1.1" id="Capa_1" x="0px" y="0px" viewBox="0 0 512 512" style="enable-background:new 0 0 512 512;" xml:space="preserve" width="512" height="512">
<g>
	<path style="fill:#00AB00;" d="M355.559,512c-63.186,0-114.591-51.405-114.591-114.591V270.036h30v127.373   c0,46.644,37.947,84.591,84.591,84.591V512z"/>
	<path style="fill:#60DA4D;" d="M473.36,298.29c-20.35,20.36-49.74,26.17-75.26,17.47c8.7,25.52,2.89,54.9-17.47,75.26   c-28.51,28.52-74.75,28.52-103.27,0c-13.59-13.59-20.69-31.21-21.32-49.02l-0.03-71.96h-0.02L255.96,342   c-0.01,0.42-0.03,0.83-0.06,1.25c-0.91,17.38-7.99,34.5-21.26,47.77c-28.52,28.52-74.76,28.52-103.27,0   c-20.36-20.36-26.17-49.74-17.47-75.26c-25.52,8.7-54.91,2.89-75.26-17.47c-28.52-28.52-28.52-74.75,0-103.27   c13.59-13.59,31.21-20.69,49.02-21.33l100.21-0.02l-50.88-50.91c-12.14-13.04-19.58-30.51-19.58-49.74   C117.41,32.69,150.1,0,190.43,0c28.71,0,53.54,16.58,65.47,40.67c0.03,0.07,0.07,0.13,0.1,0.2C267.89,16.67,292.78,0,321.57,0   c40.33,0,73.02,32.69,73.02,73.02c0,19.23-7.44,36.7-19.58,49.74l-50.88,50.91l100.21,0.02c17.81,0.64,35.43,7.74,49.02,21.33   C501.88,223.54,501.88,269.77,473.36,298.29z"/>
	<path style="fill:#00B863;" d="M473.36,298.29c-20.35,20.36-49.74,26.17-75.26,17.47c8.7,25.52,2.89,54.9-17.47,75.26   c-28.51,28.52-74.75,28.52-103.27,0c-13.59-13.59-20.69-31.21-21.32-49.02l-0.03-71.96h-0.02L255.96,342   c-0.01,0.42-0.03,0.83-0.06,1.25V40.67c0.03,0.07,0.07,0.13,0.1,0.2C267.89,16.67,292.78,0,321.57,0   c40.33,0,73.02,32.69,73.02,73.02c0,19.23-7.44,36.7-19.58,49.74l-50.88,50.91l100.21,0.02c17.81,0.64,35.43,7.74,49.02,21.33   C501.88,223.54,501.88,269.77,473.36,298.29z"/>
</g>















</svg>
