<svg height="511pt" viewBox="0 0 511.99992 511" width="511pt" xmlns="http://www.w3.org/2000/svg"><path d="m43.945312 237.210938h332.75v254.296874h-332.75zm0 0" fill="#a2abb8"/><path d="m407.605469 256.570312h-394.574219c-1.988281 0-3.171875-2.21875-2.066406-3.875l14.675781-22.058593 10.011719-15.058594 13.023437-19.566406 10.019531-15.0625 16.113282-24.226563c.460937-.691406 1.246094-1.113281 2.078125-1.113281h266.292969c.832031 0 1.605468.410156 2.066406 1.105469l16.265625 24.234375 10.109375 15.0625 13.132812 19.566406 10.113282 15.058594 14.808593 22.058593c1.113281 1.648438-.070312 3.875-2.070312 3.875zm0 0" fill="#ffc14f"/><path d="m317.207031 254.082031v237.425781h-213.773437v-237.425781l106.886718-98.472656 16.285157 15zm0 0" fill="#c8d2dc"/><path d="m317.207031 254.082031v237.425781h-179.488281v-221.601562c0-5.332031 2.089844-10.453125 5.8125-14.269531l83.074219-85.027344zm0 0" fill="#dce6eb"/><path d="m252.871094 490.449219h-85.101563v-156.988281c0-3.214844 2.605469-5.820313 5.820313-5.820313h73.460937c3.214844 0 5.820313 2.605469 5.820313 5.820313zm0 0" fill="#ae583e"/><path d="m408.65625 504.339844h-396.667969c-2.464843 0-4.457031-1.996094-4.457031-4.457032v-13.964843c0-2.460938 1.996094-4.457031 4.457031-4.457031h396.667969c2.460938 0 4.457031 1.996093 4.457031 4.457031v13.964843c0 2.460938-1.996093 4.457032-4.457031 4.457032zm0 0" fill="#127d4f"/><path d="m147.417969 481.460938h-121.59375c-1.214844-2.773438-1.890625-5.835938-1.890625-9.058594 0-11.484375 8.527344-20.972656 19.589844-22.488282 1.246093-.171874 2.28125-1.046874 2.628906-2.25 3.9375-13.59375 16.476562-23.535156 31.347656-23.535156 4.960938 0 9.667969 1.117188 13.882812 3.105469 3.433594 1.613281 6.539063 3.8125 9.1875 6.464844 4.628907 4.628906 7.871094 10.632812 9.058594 17.359375.398438 2.25 2.910156 3.363281 4.847656 2.136718 3.925782-2.488281 8.683594-3.804687 13.753907-3.441406 11.066406.78125 20.089843 9.695313 20.984375 20.75.320312 3.917969-.351563 7.640625-1.796875 10.957032zm0 0" fill="#1ab975"/><path d="m394.824219 481.460938h-121.59375c-1.214844-2.773438-1.886719-5.835938-1.886719-9.058594 0-11.484375 8.523438-20.972656 19.597656-22.488282 1.246094-.171874 2.269532-1.046874 2.621094-2.25 3.945312-13.59375 16.476562-23.535156 31.34375-23.535156 4.960938 0 9.667969 1.117188 13.886719 3.105469 3.433593 1.613281 6.535156 3.8125 9.1875 6.464844 4.625 4.628906 7.878906 10.632812 9.0625 17.359375.402343 2.25 2.902343 3.363281 4.839843 2.136718 3.9375-2.488281 8.6875-3.804687 13.765626-3.441406 11.054687.78125 20.082031 9.695313 20.984374 20.75.320313 3.917969-.363281 7.640625-1.808593 10.957032zm0 0" fill="#1ab975"/><path d="m147.417969 481.460938h-93.824219c-1.214844-2.773438-1.886719-5.835938-1.886719-9.058594 0-11.484375 8.523438-20.972656 19.585938-22.488282 1.246093-.171874 2.28125-1.046874 2.632812-2.25 2.621094-9.054687 9.054688-16.484374 17.457031-20.429687 3.433594 1.613281 6.539063 3.8125 9.1875 6.464844 4.628907 4.628906 7.871094 10.632812 9.058594 17.359375.398438 2.25 2.910156 3.363281 4.847656 2.136718 3.925782-2.488281 8.683594-3.804687 13.753907-3.441406 11.066406.78125 20.089843 9.695313 20.984375 20.75.320312 3.917969-.351563 7.640625-1.796875 10.957032zm0 0" fill="#1ed688"/><path d="m394.824219 481.460938h-93.824219c-1.214844-2.773438-1.886719-5.835938-1.886719-9.058594 0-11.484375 8.523438-20.972656 19.597657-22.488282 1.246093-.171874 2.269531-1.046874 2.621093-2.25 2.628907-9.054687 9.066407-16.484374 17.460938-20.429687 3.433593 1.613281 6.535156 3.8125 9.1875 6.464844 4.625 4.628906 7.878906 10.632812 9.0625 17.359375.402343 2.25 2.902343 3.363281 4.839843 2.136718 3.9375-2.488281 8.6875-3.804687 13.765626-3.441406 11.054687.78125 20.082031 9.695313 20.984374 20.75.320313 3.917969-.363281 7.640625-1.808593 10.957032zm0 0" fill="#1ed688"/><path d="m317.210938 315.335938h-20.863282c-2.773437 0-5.019531-2.246094-5.019531-5.019532v-14.699218c0-2.773438 2.246094-5.019532 5.019531-5.019532h20.863282zm0 0" fill="#5f6c75"/><path d="m317.210938 340.074219h-37.996094c-2.773438 0-5.023438-2.246094-5.023438-5.019531v-14.699219c0-2.769531 2.25-5.019531 5.023438-5.019531h37.996094zm0 0" fill="#7e8b96"/><path d="m103.433594 394.199219h25.882812v19.71875c0 2.773437-2.25 5.019531-5.019531 5.019531h-20.863281zm0 0" fill="#7e8b96"/><path d="m103.433594 369.460938h37.996094c2.773437 0 5.019531 2.246093 5.019531 5.019531v19.71875h-43.015625zm0 0" fill="#5f6c75"/><path d="m331.957031 252.65625-112.882812-112.882812c-4.804688-4.804688-12.683594-4.824219-17.503907 0l-112.882812 112.882812c-4.800781 4.800781-4.800781 12.582031 0 17.378906l4.617188 4.621094c4.800781 4.796875 12.582031 4.796875 17.382812 0l99.632812-99.636719 99.636719 99.636719c4.800781 4.796875 12.582031 4.796875 17.382813 0l4.617187-4.621094c4.800781-4.796875 4.800781-12.578125 0-17.378906zm0 0" fill="#f29500"/><path d="m400.078125 303.488281c-5.964844 3.082031-12.269531 5.933594-18.925781 8.503907-2.167969.84375-4.578125.84375-6.757813 0-118.601562-45.863282-123.984375-177.027344-123.261719-211.84375.101563-4.730469 3.746094-8.585938 8.445313-9.015626 57.25-5.203124 95.007813-54.378906 110.390625-78.796874 3.613281-5.75 11.996094-5.75 15.613281 0 3.613281 5.734374 8.453125 12.832031 14.507813 20.402343 19.675781 24.6875 52.078125 54.417969 95.882812 58.394531 4.707032.429688 8.339844 4.285157 8.441406 9.015626.695313 32.859374-4.074218 151.554687-104.335937 203.339843zm0 0" fill="#1ab975"/><path d="m400.078125 303.488281c-100.25-51.796875-105.007813-170.480469-104.324219-203.339843.097656-4.730469 3.742188-8.585938 8.441406-9.015626 43.804688-3.976562 76.203126-33.707031 95.894532-58.394531 19.675781 24.6875 52.078125 54.417969 95.882812 58.394531 4.707032.429688 8.339844 4.285157 8.441406 9.015626.695313 32.859374-4.074218 151.554687-104.335937 203.339843zm0 0" fill="#1ed688"/><path d="m193.253906 386.667969c-4.160156 0-7.53125 3.371093-7.53125 7.53125v17.992187c0 4.160156 3.371094 7.53125 7.53125 7.53125 4.15625 0 7.527344-3.371094 7.527344-7.53125v-17.992187c0-4.160157-3.367188-7.53125-7.527344-7.53125zm0 0"/><path d="m511.945312 99.988281c-.179687-8.546875-6.757812-15.582031-15.292968-16.355469-54.828125-4.980468-91.484375-54.328124-104.695313-75.3125-6.601562-10.453124-21.800781-10.398437-28.363281 0-13.214844 20.984376-49.871094 70.332032-104.699219 75.3125-8.535156.773438-15.109375 7.808594-15.289062 16.355469-.300781 15.417969.769531 31.988281 3.101562 48.089844h-8.675781l-13.632812-13.632813c-7.761719-7.761718-20.390626-7.761718-28.152344 0l-13.636719 13.632813h-105.71875c-3.367187 0-6.488281 1.675781-8.34375 4.46875l-63.855469 95.984375c-4.425781 6.65625.347656 15.570312 8.34375 15.570312h23.382813v179.847657c-12.179688 4.394531-20.640625 16.398437-19.972657 29.980469h-4.457031c-6.609375 0-11.988281 5.378906-11.988281 11.988281v13.964843c0 6.609376 5.378906 11.988282 11.988281 11.988282h65.34375c4.160157 0 7.53125-3.371094 7.53125-7.53125s-3.371093-7.53125-7.53125-7.53125h-62.273437v-7.816406h390.523437v7.816406h-298.128906c-4.15625 0-7.53125 3.371094-7.53125 7.53125s3.375 7.53125 7.53125 7.53125h301.203125c6.609375 0 11.984375-5.378906 11.984375-11.988282v-13.964843c0-6.609375-5.375-11.984375-11.984375-11.984375h-4.460938c.691407-13.671875-7.855468-25.570313-19.972656-29.984375v-125.066407c16.75-6.515624 32.160156-15.03125 45.824219-25.332031 3.324219-2.511719 3.984375-7.230469 1.476563-10.550781-2.5-3.316406-7.21875-3.976562-10.542969-1.476562-12.632813 9.527343-26.96875 17.429687-42.550781 23.453124-1.851563.722657-33.109376-12.042968-57.277344-34.96875-44.589844-42.085937-63.75-108.734374-62.488282-169.707031.019532-.863281.703126-1.589843 1.59375-1.667969 49.359376-4.480468 89.691407-40.394531 116.085938-82.277343.664062-1.074219 2.210938-1.0625 2.871094 0 26.414062 41.917969 66.730468 77.796875 116.074218 82.277343.890626.078126 1.585938.804688 1.59375 1.675782 1.523438 55.128906-15.085937 119.636718-54.546874 161.96875-2.839844 3.039062-2.671876 7.808594.371093 10.640625 3.042969 2.839843 7.8125 2.671875 10.644531-.371094 42.207032-45.273437 59.769532-112.261719 58.59375-172.558594zm-432.355468 63.152344h87.960937l-17.8125 17.808594h-81.996093zm-21.867188 32.871094h76.964844l-19.566406 19.566406h-70.421875zm-35.28125 53.03125 12.238282-18.40625h65.382812c-17.460938 17.519531-17.039062 16.894531-18.214844 18.40625-6.90625 0-52.40625 0-59.40625 0zm65.542969 30.941406c2.296875 2.300781 5.019531 3.90625 7.921875 4.839844v136.234375c-14.128906-7.316406-31.699219-5.652344-44.429688 5.171875v-162.128907h26.285157c1.261719 9.09375 7.585937 12.671876 10.222656 15.882813zm53.714844 193.945313c-24.074219 0-85.410157 0-110.160157 0-.808593-8.070313 4.949219-15.445313 13.019532-16.558594 4.246094-.59375 7.636718-3.59375 8.828125-7.609375 3.089843-10.652344 13-18.101563 24.105469-18.101563 12.492187 0 22.660156 9.066406 24.726562 20.703125 1.320312 7.5 9.789062 11.289063 16.285156 7.199219 10.523438-6.671875 24.433594 1.691406 23.195313 14.367188zm183.039062-180.910157c13.285157 10.109375 28.101563 18.449219 44.425781 25.007813v124.527344c-2.089843.332031-4.125.882812-6.09375 1.644531-1.949218-5.933594-5.273437-11.335938-9.769531-15.832031-12.769531-12.769532-28.050781-11.664063-28.5625-11.765626 0-.113281 0-116.914062 0-123.582031zm17.921875 146c9.648438 9.648438 4.222656 17.34375 13.191406 21.304688 3.273438 1.445312 7.027344 1.15625 10.058594-.761719 10.441406-6.652344 24.441406 1.625 23.195313 14.367188-21.804688 0-88.085938 0-110.148438 0-.832031-8.285157 5.144531-15.476563 13.011719-16.558594 4.183594-.582032 7.648438-3.5625 8.824219-7.609375 5.300781-18.28125 28.328125-24.253907 41.867187-10.742188zm-32.984375-106.472656h-27.953125v-9.679687h27.953125zm0-24.742187h-10.816406v-9.679688h10.816406zm-1.027343-24.738282h-17.320313c-4.160156 0-7.53125 3.371094-7.53125 7.53125v17.210938h-9.601563c-4.160156 0-7.53125 3.367187-7.53125 7.527344v24.742187c0 4.160156 3.371094 7.527344 7.53125 7.527344h35.480469v72.027343c-10.25 4.238282-18.570312 12.632813-22.488281 23.324219-14.324219 3.332031-24.183594 16.75-23.332031 30.972657h-3.453125v-72.703126c0-4.160156-3.371094-7.53125-7.53125-7.53125-4.15625 0-7.527344 3.371094-7.527344 7.53125v71.648438h-70.042969v-137.703125h70.042969v35.933594c0 4.15625 3.371094 7.527343 7.527344 7.527343 4.160156 0 7.53125-3.371093 7.53125-7.527343v-37.644531c0-7.359376-5.988282-13.351563-13.347656-13.351563h-73.460938c-7.363281 0-13.351562 5.992187-13.351562 13.351563v140.46875h-3.453126c1.132813-21.523438-20.59375-37.707032-41.132812-29.730469-1.125-3.414063-2.691406-6.65625-4.691406-9.648438v-8.082031h18.351562c4.15625 0 7.53125-3.371094 7.53125-7.53125v-17.210938h9.601563c4.160156 0 7.53125-3.371093 7.53125-7.527343v-24.742188c0-4.160156-3.371094-7.527343-7.53125-7.527343h-35.484375v-78.292969c4.605468-2.300781 5.691406-4.304688 99.355468-97.96875 103.132813 103.121093 95.15625 95.542969 98.328126 97.398437zm-186.863282 118.664063v9.679687h-10.820312v-9.679687zm-10.820312-15.0625v-9.679688h27.957031v9.679688c-9.632813 0-18.222656 0-27.957031 0zm157.667968-163.980469c-8.976562-8.976562-33.046874-33.046875-41.734374-41.738281-10.285157-9.46875-12.359376-15.046875-18.675782-13.160157-2.761718.796876 5.074219-6.390624-102.859375 101.542969-1.859375 1.859375-4.878906 1.859375-6.738281 0-.347656-.347656-4.816406-4.816406-4.617188-4.617187-1.808593-1.808594-1.882812-4.847656 0-6.738282 92.003907-92.003906 62.574219-62.578124 112.890626-112.878906 1.855468-1.859375 4.988281-1.859375 6.847656 0 22.773437 22.773438 13.171875 13.175782 41.144531 41.132813 3.644531 12.625 8.253906 24.902343 13.742187 36.457031zm0 0"/><path d="m419.535156 119.015625-51.9375 92.28125-33.15625-29.304687c-3.117187-2.757813-7.875-2.460938-10.628906.652343-2.753906 3.117188-2.460938 7.875.65625 10.628907 41.757812 36.035156 40.054688 37.363281 45.121094 37.363281 2.726562 0 5.230468-1.472657 6.5625-3.835938l56.507812-100.402343c2.039063-3.621094.753906-8.214844-2.871094-10.253907-3.621093-2.039062-8.214843-.753906-10.253906 2.871094zm0 0"/></svg>