<svg height="512pt" viewBox="0 -5 512.00203 512" width="512pt" xmlns="http://www.w3.org/2000/svg"><path d="m479.214844 7.597656h-446.429688c-13.910156 0-25.1875 11.277344-25.1875 25.191406v31.675782c0 13.910156 11.277344 25.1875 25.1875 25.1875h17.179688v.675781c0 36.027344 23.222656 66.632813 55.523437 77.664063 18.46875 6.296874 7.652344 4.113281 274.484375 4.386718 45.339844 0 82.0625-36.757812 82.0625-82.050781v-.675781h17.179688c13.910156 0 25.1875-11.277344 25.1875-25.1875v-31.675782c0-13.914062-11.277344-25.191406-25.1875-25.191406zm0 0" fill="#c8d2dc"/><path d="m504.402344 32.785156v31.671875c0 13.917969-11.273438 25.191407-25.1875 25.191407h-446.429688c-13.914062 0-25.1875-11.273438-25.1875-25.191407v-31.671875c0-13.90625 11.273438-25.191406 25.1875-25.191406h446.429688c13.914062 0 25.1875 11.285156 25.1875 25.191406zm0 0" fill="#909ba6"/><path d="m504.402344 32.785156v31.660156h-425.765625c-13.90625 0-25.1875-11.28125-25.1875-25.1875v-31.664062h425.765625c13.914062 0 25.1875 11.285156 25.1875 25.191406zm0 0" fill="#a2abb8"/><path d="m462.035156 90.324219c0 22.660156-9.1875 43.167969-24.035156 58.019531-8.761719 8.757812-19.496094 15.554688-31.488281 19.648438-4.871094 1.660156-9.957031 2.886718-15.195313 3.605468-3.707031.515625-7.492187.78125-11.34375.78125h-247.945312c-3.851563 0-7.636719-.265625-11.34375-.78125-5.238282-.71875-10.324219-1.945312-15.195313-3.605468-32.300781-11.03125-55.523437-41.640626-55.523437-77.667969zm0 0" fill="#c8d2dc"/><path d="m184.515625 15.195312h294.699219c7.058594 0 13.414062 4.195313 16.1875 10.6875 1.234375 2.882813 4.039062 4.613282 6.988281 4.613282 5.40625 0 9.132813-5.550782 6.980469-10.582032-5.167969-12.097656-17.003906-19.914062-30.15625-19.914062h-294.699219c-4.195313 0-7.59375 3.402344-7.59375 7.597656 0 4.195313 3.398437 7.597656 7.59375 7.597656zm0 0"/><path d="m504.402344 45.410156c-4.195313 0-7.59375 3.402344-7.59375 7.597656v11.453126c0 9.703124-7.894532 17.59375-17.59375 17.59375-63.859375.046874-370.289063.199218-446.429688 0-9.699218 0-17.59375-7.890626-17.59375-17.59375v-31.671876c0-9.703124 7.894532-17.59375 17.59375-17.59375h121.347656c4.195313 0 7.59375-3.402343 7.59375-7.597656 0-4.195312-3.398437-7.59374975-7.59375-7.59374975h-121.347656c-18.078125-.00390625-32.785156 14.70312475-32.785156 32.78515575v31.671876c0 18.078124 14.707031 32.789062 32.785156 32.789062h9.859375c.449219 5.84375 1.453125 11.617188 3.023438 17.234375.9375 3.359375 3.988281 5.554687 7.3125 5.554687 5.027343 0 8.671875-4.800781 7.320312-9.640624-1.140625-4.074219-1.925781-8.25-2.351562-12.480469h47.535156v62.03125c-12.960937-4.914063-24.398437-13.449219-33.058594-24.984375-2.515625-3.355469-7.277343-4.03125-10.632812-1.515625-3.355469 2.519531-4.035157 7.28125-1.519531 10.636719 17.117187 22.804687 43.269531 35.886718 71.75 35.886718h247.957031c47.101562 0 85.839843-36.515625 89.386719-82.726562h9.847656c18.078125 0 32.789062-14.707032 32.789062-32.785156v-11.453126c-.003906-4.195312-3.402344-7.597656-7.601562-7.597656zm-341.75 119.371094h-30.628906c-3.84375 0-7.628907-.292969-11.34375-.851562v-66.007813h41.972656zm57.167968 0h-41.976562v-66.859375h41.976562zm57.167969 0h-41.976562v-66.859375h41.976562zm57.167969 0h-41.976562v-66.859375h41.976562zm57.164062-.875c-9.390624 1.441406-13.511718.644531-41.972656.875v-66.859375h41.972656zm15.195313-4.027344v-61.957031h47.535156c-2.890625 28.394531-21.808593 52.109375-47.535156 61.957031zm0 0"/><path d="m256 187.386719c-4.195312 0-7.597656 3.402343-7.597656 7.597656v20.257813c0 4.195312 3.402344 7.597656 7.597656 7.597656s7.597656-3.402344 7.597656-7.597656v-20.257813c0-4.195313-3.402344-7.597656-7.597656-7.597656zm0 0"/><path d="m256 339.316406c-4.195312 0-7.597656 3.402344-7.597656 7.597656v20.257813c0 4.195313 3.402344 7.59375 7.597656 7.59375s7.597656-3.398437 7.597656-7.59375v-20.257813c0-4.195312-3.402344-7.597656-7.597656-7.597656zm0 0"/><path d="m256 389.960938c-4.195312 0-7.597656 3.398437-7.597656 7.59375v20.257812c0 4.195312 3.402344 7.597656 7.597656 7.597656s7.597656-3.402344 7.597656-7.597656v-20.257812c0-4.195313-3.402344-7.59375-7.597656-7.59375zm0 0"/><path d="m256 238.03125c-4.195312 0-7.597656 3.402344-7.597656 7.597656v20.253906c0 4.195313 3.402344 7.597657 7.597656 7.597657s7.597656-3.402344 7.597656-7.597657v-20.253906c0-4.195312-3.402344-7.597656-7.597656-7.597656zm0 0"/><path d="m256 288.671875c-4.195312 0-7.597656 3.402344-7.597656 7.597656v20.257813c0 4.195312 3.402344 7.597656 7.597656 7.597656s7.597656-3.402344 7.597656-7.597656v-20.257813c0-4.195312-3.402344-7.597656-7.597656-7.597656zm0 0"/><path d="m155.257812 384.214844c-4.074218-1.011719-8.191406 1.46875-9.203124 5.542968l-4.882813 19.660157c-1.007813 4.070312 1.472656 8.191406 5.542969 9.203125 4.074218 1.011718 8.195312-1.472656 9.203125-5.542969l4.882812-19.660156c1.011719-4.070313-1.472656-8.191407-5.542969-9.203125zm0 0"/><path d="m197.367188 222.242188c3.40625 0 6.507812-2.308594 7.367187-5.765626l4.878906-19.660156c1.011719-4.074218-1.46875-8.195312-5.542969-9.203125-4.074218-1.011719-8.191406 1.46875-9.203124 5.539063l-4.878907 19.664062c-1.1875 4.785156 2.4375 9.425782 7.378907 9.425782zm0 0"/><path d="m182.664062 242.304688-4.878906 19.660156c-1.1875 4.789062 2.4375 9.429687 7.378906 9.429687 3.40625 0 6.507813-2.3125 7.367188-5.769531l4.878906-19.660156c1.011719-4.070313-1.46875-8.191406-5.542968-9.203125-4.070313-1.011719-8.1875 1.472656-9.203126 5.542969zm0 0"/><path d="m185.207031 295.117188c1.011719-4.074219-1.46875-8.191407-5.542969-9.203126-4.074218-1.011718-8.191406 1.46875-9.203124 5.542969l-4.878907 19.660157c-1.191406 4.789062 2.4375 9.429687 7.375 9.429687 3.410157 0 6.511719-2.3125 7.367188-5.769531zm0 0"/><path d="m167.460938 335.0625c-4.074219-1.007812-8.191407 1.472656-9.203126 5.542969l-4.878906 19.660156c-1.191406 4.789063 2.4375 9.429687 7.375 9.429687 3.410156 0 6.511719-2.3125 7.367188-5.769531l4.882812-19.660156c1.011719-4.070313-1.472656-8.191406-5.542968-9.203125zm0 0"/><path d="m40.304688 359.132812c-3.53125-2.265624-8.226563-1.234374-10.496094 2.296876l-10.929688 17.054687c-2.265625 3.53125-1.234375 8.230469 2.296875 10.492187 3.546875 2.273438 8.238281 1.222657 10.496094-2.296874l10.929687-17.050782c2.265626-3.535156 1.234376-8.230468-2.296874-10.496094zm0 0"/><path d="m52.597656 347.542969c2.5 0 4.949219-1.234375 6.402344-3.496094l10.929688-17.054687c2.265624-3.53125 1.238281-8.230469-2.296876-10.496094-3.53125-2.265625-8.230468-1.234375-10.492187 2.296875l-10.933594 17.054687c-3.261719 5.089844.460938 11.695313 6.390625 11.695313zm0 0"/><path d="m122.292969 231.226562c-3.53125-2.265624-8.230469-1.238281-10.496094 2.296876l-10.929687 17.050781c-2.265626 3.535156-1.238282 8.230469 2.296874 10.496093 3.539063 2.269532 8.234376 1.230469 10.492188-2.296874l10.933594-17.054688c2.261718-3.53125 1.234375-8.230469-2.296875-10.492188zm0 0"/><path d="m94.964844 273.859375c-3.53125-2.261719-8.230469-1.234375-10.496094 2.296875l-10.929688 17.054688c-3.265624 5.089843.460938 11.695312 6.386719 11.695312 2.503907 0 4.953125-1.234375 6.402344-3.496094l10.933594-17.054687c2.261719-3.53125 1.234375-8.230469-2.296875-10.496094zm0 0"/><path d="m151.917969 199.085938c2.265625-3.535157 1.238281-8.230469-2.296875-10.496094-3.53125-2.265625-8.230469-1.234375-10.492188 2.296875l-10.933594 17.054687c-3.261718 5.089844.460938 11.695313 6.390626 11.695313 2.5 0 4.949218-1.234375 6.402343-3.496094zm0 0"/><path d="m346.417969 311.117188-4.878907-19.660157c-1.011718-4.074219-5.128906-6.554687-9.203124-5.542969-4.074219 1.007813-6.554688 5.128907-5.542969 9.203126l4.878906 19.660156c.859375 3.457031 3.960937 5.765625 7.367187 5.765625 4.933594 0 8.570313-4.632813 7.378907-9.425781zm0 0"/><path d="m365.945312 389.757812c-1.011718-4.074218-5.128906-6.554687-9.203124-5.542968-4.070313 1.011718-6.554688 5.132812-5.542969 9.203125l4.882812 19.660156c1.007813 4.070313 5.128907 6.550781 9.203125 5.542969 4.070313-1.011719 6.550782-5.132813 5.542969-9.203125zm0 0"/><path d="m358.621094 360.265625-4.878906-19.660156c-1.011719-4.074219-5.128907-6.550781-9.203126-5.542969-4.074218 1.011719-6.554687 5.132812-5.542968 9.203125l4.878906 19.660156c.859375 3.457031 3.960938 5.769531 7.367188 5.769531 4.9375 0 8.570312-4.636718 7.378906-9.429687zm0 0"/><path d="m314.589844 245.964844 4.878906 19.660156c1.011719 4.074219 5.132812 6.554688 9.203125 5.542969 4.074219-1.011719 6.554687-5.128907 5.542969-9.203125l-4.878906-19.660156c-1.011719-4.070313-5.132813-6.550782-9.203126-5.542969-4.074218 1.011719-6.554687 5.132812-5.542968 9.203125zm0 0"/><path d="m317.128906 193.152344c-1.007812-4.070313-5.125-6.550782-9.203125-5.539063-4.070312 1.007813-6.554687 5.128907-5.542969 9.203125l4.882813 19.660156c.859375 3.457032 3.957031 5.765626 7.367187 5.765626 4.933594 0 8.566407-4.632813 7.378907-9.425782zm0 0"/><path d="m436.167969 303.707031c3.53125-2.265625 4.558593-6.964843 2.296875-10.496093l-10.933594-17.054688c-2.265625-3.53125-6.964844-4.558594-10.492188-2.296875-3.535156 2.265625-4.5625 6.964844-2.296874 10.496094l10.929687 17.054687c2.261719 3.527344 6.957031 4.5625 10.496094 2.296875zm0 0"/><path d="m463.496094 346.34375c3.53125-2.265625 4.558594-6.964844 2.296875-10.496094l-10.933594-17.054687c-2.261719-3.53125-6.960937-4.558594-10.492187-2.296875-3.53125 2.265625-4.5625 6.964844-2.296876 10.496094l10.929688 17.054687c2.261719 3.523437 6.957031 4.5625 10.496094 2.296875zm0 0"/><path d="m400.203125 233.523438c-2.265625-3.535157-6.964844-4.5625-10.496094-2.296876-3.53125 2.261719-4.558593 6.960938-2.296875 10.492188l10.933594 17.054688c2.257812 3.527343 6.953125 4.566406 10.492188 2.296874 3.53125-2.265624 4.5625-6.960937 2.296874-10.496093zm0 0"/><path d="m482.191406 361.429688c-2.265625-3.535157-6.964844-4.558594-10.496094-2.296876-3.53125 2.261719-4.5625 6.960938-2.296874 10.492188l10.929687 17.054688c2.253906 3.515624 6.945313 4.570312 10.496094 2.296874 3.53125-2.265624 4.5625-6.960937 2.296875-10.496093zm0 0"/><path d="m372.871094 190.886719c-2.261719-3.535157-6.960938-4.558594-10.492188-2.296875-3.53125 2.261718-4.5625 6.960937-2.296875 10.492187l10.929688 17.054688c1.453125 2.265625 3.902343 3.5 6.402343 3.5 5.925782 0 9.652344-6.605469 6.390626-11.695313zm0 0"/><path d="m200.988281 441.628906c-5.652343-1.988281-8.257812-8.503906-5.472656-13.851562l13.917969-26.710938c1.941406-3.722656.496094-8.308594-3.226563-10.246094-3.71875-1.9375-8.308593-.496093-10.246093 3.226563l-13.917969 26.710937c-7.046875 13.523438-.460938 30.15625 13.910156 35.203126 5.535156 1.949218 8.1875 8.28125 5.589844 13.613281l-10.664063 21.890625c-2.480468 5.089844 1.289063 10.921875 6.824219 10.921875 2.816406 0 5.519531-1.570313 6.835937-4.269531l10.664063-21.890626c6.546875-13.429687-.070313-29.628906-14.214844-34.597656zm0 0"/><path d="m76.433594 399.328125-22.0625 20.511719c-11.167969 10.382812-10.53125 28.253906 1.316406 37.828125 4.554688 3.675781 4.957031 10.53125.710938 14.699219l-17.378907 17.050781c-4.847656 4.757812-1.441406 13.019531 5.320313 13.019531 5.34375 0 6.0625-3.832031 22.703125-19.226562 10.644531-10.449219 9.878906-27.925782-1.808594-37.363282-4.625-3.738281-4.957031-10.753906-.519531-14.882812l22.0625-20.507813c3.074218-2.859375 3.246094-7.664062.390625-10.738281-2.855469-3.070312-7.664063-3.25-10.734375-.390625zm0 0"/><path d="m316.039062 394.046875c-1.9375-3.722656-6.527343-5.164063-10.246093-3.226563-3.722657 1.9375-5.167969 6.523438-3.230469 10.246094l13.917969 26.714844c2.777343 5.324219.203125 11.851562-5.472657 13.847656-14.09375 4.953125-20.777343 21.125-14.210937 34.601563l10.664063 21.886719c1.84375 3.789062 6.402343 5.332031 10.15625 3.503906 3.769531-1.835938 5.335937-6.382813 3.5-10.15625l-10.664063-21.890625c-2.570313-5.273438-.003906-11.644531 5.59375-13.609375 14.386719-5.054688 20.945313-21.695313 13.90625-35.203125zm0 0"/><path d="m455.601562 472.363281c-4.179687-4.097656-3.917968-10.960937.710938-14.699219 11.863281-9.582031 12.46875-27.457031 1.316406-37.828124l-22.0625-20.507813c-3.070312-2.859375-7.878906-2.679687-10.734375.390625-2.855469 3.074219-2.683593 7.878906.390625 10.734375l22.0625 20.511719c4.355469 4.050781 4.195313 11.074218-.519531 14.882812-5.554687 4.484375-8.9375 11.144532-9.28125 18.273438s2.378906 14.085937 7.472656 19.085937c16.671875 15.425781 17.367188 19.230469 22.703125 19.230469 6.765625 0 10.164063-8.265625 5.320313-13.019531zm0 0"/></svg>