<svg height="512pt" viewBox="-115 0 512 512" width="512pt" xmlns="http://www.w3.org/2000/svg"><path d="m274.414062 33.644531v444.710938c0 14.417969-11.6875 26.09375-26.105468 26.09375h-214.664063c-14.417969 0-26.09375-11.675781-26.09375-26.09375v-444.710938c0-14.417969 11.675781-26.09375 26.09375-26.09375h214.664063c14.417968 0 26.105468 11.675781 26.105468 26.09375zm0 0" fill="#60c8dd"/><path d="m213.460938 7.550781-6.671876 38.714844c-.503906 2.929687-3.050781 5.074219-6.019531 5.074219h-118.679687c-2.929688 0-5.4375-2.074219-6-4.941406l-7.589844-38.847657zm0 0" fill="#2cb3cd"/><path d="m247.1875 89.777344v374.726562c0 7.160156-5.808594 12.96875-12.96875 12.96875h-186.476562c-7.15625 0-12.964844-5.808594-12.964844-12.96875v-374.726562c0-7.160156 5.808594-12.96875 12.964844-12.96875h186.476562c7.160156 0 12.96875 5.808594 12.96875 12.96875zm0 0" fill="#c2eaf2"/><path d="m247.1875 89.777344v374.726562c0 7.160156-5.808594 12.96875-12.96875 12.96875h-154.101562c-7.15625 0-12.964844-5.808594-12.964844-12.96875v-374.726562c0-7.160156 5.808594-12.96875 12.964844-12.96875h154.101562c7.160156 0 12.96875 5.808594 12.96875 12.96875zm0 0" fill="#def4f8"/><path d="m248.308594 0c-18.855469 0-194.988282 0-214.664063 0-18.550781 0-33.644531 15.09375-33.644531 33.644531v310.292969c0 4.167969 3.378906 7.550781 7.550781 7.550781s7.550781-3.382812 7.550781-7.550781v-310.292969c0-10.226562 8.316407-18.542969 18.542969-18.542969h28.636719l6.402344 32.75c1.253906 6.398438 6.894531 11.039063 13.40625 11.039063h118.679687c6.667969 0 12.332031-4.769531 13.460938-11.339844l5.589843-32.449219h28.488282c10.230468 0 18.554687 8.316407 18.554687 18.542969v444.710938c0 10.226562-8.324219 18.542969-18.554687 18.542969h-214.664063c-10.226562 0-18.542969-8.316407-18.542969-18.542969v-104.21875c0-4.167969-3.378906-7.550781-7.550781-7.550781s-7.550781 3.382812-7.550781 7.550781v104.21875c0 18.550781 15.09375 33.644531 33.644531 33.644531h214.664063c18.558594 0 33.652344-15.09375 33.652344-33.644531v-444.710938c0-18.550781-15.09375-33.644531-33.652344-33.644531zm-48.753906 43.789062h-116.28125l-5.605469-28.6875h126.832031zm0 0"/><path d="m180.660156 69.261719h-132.921875c-11.308593 0-20.511719 9.199219-20.511719 20.511719v374.734374c0 11.308594 9.203126 20.511719 20.511719 20.511719h186.484375c11.3125 0 20.515625-9.203125 20.515625-20.511719v-374.734374c0-11.308594-9.203125-20.511719-20.515625-20.511719h-26.382812c-4.167969 0-7.546875 3.378906-7.546875 7.550781 0 4.167969 3.378906 7.546875 7.546875 7.546875h26.382812c2.984375 0 5.414063 2.429687 5.414063 5.414063v374.734374c0 2.984376-2.429688 5.414063-5.414063 5.414063h-186.484375c-2.984375 0-5.414062-2.429687-5.414062-5.414063v-374.734374c0-2.984376 2.429687-5.414063 5.414062-5.414063h132.921875c4.171875 0 7.550782-3.378906 7.550782-7.546875 0-4.171875-3.378907-7.550781-7.550782-7.550781zm0 0"/><path d="m188.460938 29.746094c0 4.171875-3.382813 7.550781-7.550782 7.550781-4.171875 0-7.550781-3.378906-7.550781-7.550781 0-4.167969 3.378906-7.546875 7.550781-7.546875 4.167969 0 7.550782 3.378906 7.550782 7.546875zm0 0"/><path d="m98.664062 36.652344h50.113282c4.171875 0 7.550781-3.378906 7.550781-7.550782 0-4.167968-3.378906-7.546874-7.550781-7.546874h-50.113282c-4.171874 0-7.550781 3.378906-7.550781 7.546874 0 4.171876 3.378907 7.550782 7.550781 7.550782zm0 0"/><path d="m118.480469 230.558594c3.910156-1.445313 5.910156-5.789063 4.464843-9.699219-1.445312-3.910156-5.785156-5.914063-9.699218-4.464844-31.277344 11.554688-52.296875 41.734375-52.296875 75.089844 0 44.128906 35.902343 80.03125 80.03125 80.03125 44.132812 0 80.03125-35.902344 80.03125-80.03125 0-33.554687-21.183594-63.796875-52.714844-75.246094-3.917969-1.421875-8.25.601563-9.671875 4.519531-1.421875 3.921876.601562 8.25 4.519531 9.675782 25.582031 9.289062 42.769531 33.820312 42.769531 61.050781 0 35.804687-29.128906 64.929687-64.933593 64.929687-35.800781 0-64.929688-29.125-64.929688-64.929687 0-27.066406 17.050781-51.550781 42.429688-60.925781zm0 0"/><path d="m148.53125 272.359375v-82.046875c0-4.167969-3.378906-7.550781-7.550781-7.550781s-7.550781 3.382812-7.550781 7.550781v82.046875c0 4.167969 3.378906 7.550781 7.550781 7.550781s7.550781-3.382812 7.550781-7.550781zm0 0"/></svg>