<svg height="511pt" viewBox="1 -73 511.99899 511" width="511pt" xmlns="http://www.w3.org/2000/svg"><path d="m479.960938 310h-23.265626v-285.777344c0-8.929687-7.242187-16.171875-16.171874-16.171875h-370.460938c-8.929688 0-16.171875 7.242188-16.171875 16.171875v285.777344h-23.265625c-13.132812 0-23.78125 10.648438-23.78125 23.78125s10.648438 23.78125 23.78125 23.78125h449.335938c13.132812 0 23.78125-10.648438 23.78125-23.78125 0-13.136719-10.648438-23.78125-23.78125-23.78125zm0 0" fill="#4b5055"/><path d="m456.695312 320.074219h-402.800781v-295.851563c0-8.929687 7.238281-16.171875 16.167969-16.171875h370.460938c8.929687 0 16.171874 7.242188 16.171874 16.171875zm0 0" fill="#7cd2e3"/><path d="m423.84375 53.113281v215.152344c0 7.519531-6.101562 13.621094-13.632812 13.621094h-309.832032c-7.535156 0-13.636718-6.101563-13.636718-13.621094v-215.152344c0-7.53125 6.101562-13.625 13.636718-13.625h309.832032c7.53125 0 13.632812 6.09375 13.632812 13.625zm0 0" fill="#c8d2dc"/><path d="m423.84375 53.113281v215.152344c0 7.519531-6.101562 13.621094-13.632812 13.621094h-279.625c-7.53125 0-13.632813-6.101563-13.632813-13.621094v-215.152344c0-7.53125 6.101563-13.625 13.632813-13.625h279.625c7.53125 0 13.632812 6.09375 13.632812 13.625zm0 0" fill="#dce6eb"/><path d="m503.746094 333.773438c0 6.578124-2.660156 12.519531-6.96875 16.816406-4.3125 4.3125-10.25 6.96875-16.816406 6.96875h-449.335938c-13.128906 0-23.78125-10.644532-23.78125-23.785156 0-6.5625 2.65625-12.503907 6.96875-16.804688 4.308594-4.308594 10.25-6.96875 16.8125-6.96875h449.335938c11.699218 0 21.4375 8.460938 23.410156 19.597656.253906 1.359375.375 2.746094.375 4.175782zm0 0" fill="#2cb3cd"/><path d="m503.371094 329.597656h-446.675782c-11.699218 0-21.4375-8.460937-23.398437-19.597656h446.664063c11.699218 0 21.4375 8.460938 23.410156 19.597656zm0 0" fill="#44bfd7"/><path d="m306.949219 127.253906v113.128906c0 2.65625-2.152344 4.8125-4.8125 4.8125h-101.265625c-2.660156 0-4.8125-2.15625-4.8125-4.8125v-113.128906l55.441406-51.082031 12.835938 11.832031zm0 0" fill="#1ab975"/><path d="m306.949219 127.253906v113.128906c0 2.65625-2.152344 4.8125-4.8125 4.8125h-80.402344v-111.136718c0-4.339844 1.8125-8.476563 5.015625-11.425782l37.585938-34.628906zm0 0" fill="#1ed688"/><g fill="#f44545"><path d="m389.921875 223.082031c0 10.84375-8.792969 19.636719-19.636719 19.636719s-19.632812-8.792969-19.632812-19.636719 8.789062-19.632812 19.632812-19.632812 19.636719 8.789062 19.636719 19.632812zm0 0"/><path d="m389.921875 78.410156c0 10.84375-8.792969 19.636719-19.636719 19.636719s-19.632812-8.792969-19.632812-19.636719 8.789062-19.632812 19.632812-19.632812 19.636719 8.789062 19.636719 19.632812zm0 0"/><path d="m160.808594 200.359375c0 10.84375-8.792969 19.636719-19.636719 19.636719s-19.632813-8.792969-19.632813-19.636719 8.789063-19.636719 19.632813-19.636719 19.636719 8.792969 19.636719 19.636719zm0 0"/></g><path d="m79.902344 53.113281v215.148438c0 11.675781 9.5 21.175781 21.175781 21.175781h309.84375c11.675781 0 21.175781-9.5 21.175781-21.175781v-215.148438c0-11.679687-9.5-21.179687-21.175781-21.179687h-309.84375c-11.675781 0-21.175781 9.5-21.175781 21.179687zm337.09375 0v215.148438c0 3.347656-2.726563 6.070312-6.074219 6.070312h-309.84375c-3.347656 0-6.074219-2.722656-6.074219-6.070312v-215.148438c0-3.351562 2.726563-6.074219 6.074219-6.074219h309.84375c3.347656 0 6.074219 2.722657 6.074219 6.074219zm0 0"/><path d="m480.667969 302.449219h-15.714844v-278.226563c0-13.082031-10.640625-23.722656-23.722656-23.722656h-288.972657c-4.171874 0-7.550781 3.378906-7.550781 7.550781s3.378907 7.550781 7.550781 7.550781h288.972657c4.75 0 8.617187 3.867188 8.617187 8.621094v278.226563c-17.734375 0-370.960937 0-387.695312 0v-278.226563c0-4.753906 3.867187-8.621094 8.617187-8.621094h51.28125c4.171875 0 7.550781-3.378906 7.550781-7.550781s-3.378906-7.550781-7.550781-7.550781h-51.28125c-13.082031 0-23.722656 10.640625-23.722656 23.722656v278.226563h-15.714844c-17.277343 0-31.332031 14.054687-31.332031 31.328125 0 17.277344 14.054688 31.335937 31.332031 31.335937h36.492188c4.171875 0 7.550781-3.382812 7.550781-7.554687 0-4.167969-3.378906-7.550782-7.550781-7.550782h-36.492188c-8.949219 0-16.226562-7.28125-16.226562-16.230468 0-8.945313 7.277343-16.226563 16.226562-16.226563h449.335938c8.949219 0 16.226562 7.28125 16.226562 16.226563 0 8.949218-7.277343 16.230468-16.226562 16.230468h-382.636719c-4.171875 0-7.550781 3.382813-7.550781 7.550782 0 4.171875 3.378906 7.554687 7.550781 7.554687h382.636719c17.273437 0 31.332031-14.058593 31.332031-31.335937 0-17.273438-14.054688-31.328125-31.332031-31.328125zm0 0"/><path d="m141.171875 227.546875c12.734375 0 23.449219-8.804687 26.386719-20.640625h20.945312v38.292969c0 4.171875 3.382813 7.550781 7.554688 7.550781h110.890625c4.171875 0 7.550781-3.378906 7.550781-7.550781v-13.558594h29.988281c3.59375 10.808594 13.796875 18.628906 25.796875 18.628906 14.992188 0 27.1875-12.195312 27.1875-27.1875 0-14.992187-12.195312-27.1875-27.1875-27.1875-12.734375 0-23.445312 8.804688-26.382812 20.644531h-29.402344v-15.785156c0-4.171875-3.378906-7.550781-7.550781-7.550781s-7.550781 3.378906-7.550781 7.550781v36.894532h-95.789063v-107.085938l47.894531-44.121094 47.890625 44.121094v39.984375c0 4.171875 3.382813 7.550781 7.554688 7.550781s7.550781-3.378906 7.550781-7.550781v-26.304687l8.722656 8.003906c3.066406 2.8125 7.84375 2.625 10.671875-.457032 2.820313-3.070312 2.617188-7.847656-.457031-10.667968l-14.65625-13.453125h51.503906c4.171875 0 7.550782-3.378907 7.550782-7.550781v-15.59375c11.328124-3.28125 19.636718-13.742188 19.636718-26.109376 0-14.992187-12.195312-27.1875-27.1875-27.1875-14.992187 0-27.1875 12.195313-27.1875 27.1875 0 12.367188 8.308594 22.828126 19.636719 26.109376v8.042968h-60.410156c-.214844-.199218-.367188-.339844-.480469-.441406-.007812-.007812-.019531-.019531-.035156-.035156.007812.007812.011718.015625.019531.019531-.011719-.007813-.019531-.019531-.03125-.027344-.03125-.027343-.082031-.074219-.152344-.140625-.003906-.003906-.007812-.007812-.011719-.007812-.003906-.003906-.007812-.011719-.011718-.011719h.003906c-.050781-.042969-.046875-.039063-.015625-.011719-1.308594-1.199218-8.878906-8.148437-44.996094-41.296875-.15625-.085937-2.625-2.578125-6.484375-1.867187-4.015625.738281-.308594-.753906-80.46875 72.378906-3.070312 2.820312-3.273437 7.597656-.449218 10.667969 2.824218 3.070312 7.601562 3.273437 10.671874.453125l8.621094-7.925782v47.480469h-21.53125c-3.597656-10.804687-13.800781-18.625-25.800781-18.625-14.988281 0-27.1875 12.195313-27.1875 27.1875 0 14.988281 12.199219 27.183594 27.1875 27.183594zm229.113281-16.546875c6.664063 0 12.085938 5.421875 12.085938 12.082031 0 6.664063-5.421875 12.085938-12.085938 12.085938-6.660156 0-12.082031-5.421875-12.082031-12.085938 0-6.660156 5.421875-12.082031 12.082031-12.082031zm-12.082031-132.589844c0-6.660156 5.421875-12.082031 12.082031-12.082031 6.664063 0 12.085938 5.421875 12.085938 12.082031 0 6.664063-5.421875 12.085938-12.085938 12.085938-6.660156 0-12.082031-5.421875-12.082031-12.085938zm-217.03125 109.867188c6.664063 0 12.085937 5.417968 12.085937 12.082031s-5.421874 12.082031-12.085937 12.082031c-6.660156 0-12.082031-5.417968-12.082031-12.082031s5.421875-12.082031 12.082031-12.082031zm0 0"/></svg>