<svg height="496pt" viewBox="0 0 496 496" width="496pt" xmlns="http://www.w3.org/2000/svg"><g fill="#cf9e76"><path d="m488 328.800781v8.160157c0 6.160156-1.039062 12.238281-3.039062 18.078124-4.242188 12.082032-12.5625 22.480469-23.679688 29.601563l-8.5625 5.359375c-1.4375-3.121094-3.4375-6-5.917969-8.558594l-44.402343-46.082031c-2.957032-3.121094-6.636719-5.359375-10.636719-6.398437l.238281-.960938 5.28125-2.480469c20.398438-9.679687 33.359375-29.519531 33.359375-51.199219 0-5.679687 4.800781-10.320312 10.800781-10.320312 5.519532 0 10.878906 1.679688 15.277344 4.878906 9.839844 7.121094 17.679688 16.242188 23.042969 26.480469 5.359375 10.242187 8.238281 21.679687 8.238281 33.441406zm0 0"/><path d="m232.238281 328.960938c-7.597656 3.597656-9.199219 4.878906-10.636719 6.398437l-44.402343 46.082031c-2.480469 2.558594-4.480469 5.4375-5.917969 8.558594l-8.5625-5.359375c-11.117188-7.121094-19.4375-17.519531-23.679688-29.601563-2-5.839843-3.039062-11.917968-3.039062-18.078124v-8.160157c0-11.761719 2.878906-23.199219 8.238281-33.441406 5.363281-10.238281 13.203125-19.359375 23.042969-26.480469 4.398438-3.199218 9.757812-4.878906 15.277344-4.878906 6 0 10.800781 4.640625 10.800781 10.320312 0 21.679688 12.960937 41.519532 33.359375 51.199219l5.28125 2.480469zm0 0"/><path d="m360 159.039062v8.160157c0 11.761719-2.878906 23.199219-8.238281 33.441406-5.363281 10.238281-13.203125 19.359375-23.042969 26.480469-4.398438 3.199218-9.757812 4.878906-15.277344 4.878906-6 0-10.800781-4.640625-10.800781-10.320312 0-21.679688-12.960937-41.519532-33.359375-51.199219l-5.28125-2.480469-.238281-.960938c4-1.039062 7.679687-3.277343 10.636719-6.398437l44.402343-46.082031c2.480469-2.558594 4.480469-5.4375 5.917969-8.558594l8.5625 5.359375c11.117188 7.121094 19.4375 17.519531 23.679688 29.601563 2 5.839843 3.039062 11.917968 3.039062 18.078124zm0 0"/><path d="m93.601562 160.640625c1.4375 1.519531 3.039063 2.800781 10.636719 6.398437l-.238281.960938-5.28125 2.480469c-20.398438 9.679687-33.359375 29.519531-33.359375 51.199219 0 5.679687-4.800781 10.320312-10.800781 10.320312-5.519532 0-10.878906-1.679688-15.277344-4.878906-9.839844-7.121094-17.679688-16.242188-23.042969-26.480469-5.359375-10.242187-8.238281-21.679687-8.238281-33.441406v-8.160157c0-6.160156 1.039062-12.238281 3.039062-18.078124 4.242188-12.082032 12.5625-22.480469 23.679688-29.601563l8.5625-5.359375c1.4375 3.121094 3.4375 6 5.917969 8.558594zm0 0"/></g><path d="m452.71875 390c2.160156 4.480469 3.28125 9.441406 3.28125 14.480469 0 8.640625-3.28125 16.960937-9.199219 23.039062l-33.601562 34.960938c-5.917969 6.078125-13.839844 9.519531-22.160157 9.519531-6.320312 0-12.320312-1.921875-17.4375-5.441406l-.082031-.078125c1.601563-3.921875 2.480469-8.160157 2.480469-12.402344 0-2.238281-.238281-4.476563-.71875-6.71875l-21.839844-102.398437 18.480469-12.722657c4-2.796875 8.636719-4.238281 13.359375-4.238281 2.238281 0 4.398438.320312 6.480469.960938 4 1.039062 7.679687 3.277343 10.636719 6.398437l44.402343 46.082031c2.480469 2.558594 4.480469 5.4375 5.917969 8.558594zm0 0" fill="#dfb28b"/><path d="m171.28125 390c1.4375-3.121094 3.4375-6 5.917969-8.558594l44.402343-46.082031c1.4375-1.519531 3.039063-2.800781 10.636719-6.398437 2.082031-.640626 4.242188-.960938 6.480469-.960938 4.722656 0 9.359375 1.441406 13.359375 4.238281l18.480469 12.722657-21.839844 102.398437c-1.4375 6.402344-.71875 13.039063 1.761719 19.121094l-.082031.078125c-5.117188 3.519531-11.117188 5.441406-17.359376 5.441406-8.398437 0-16.320312-3.441406-22.238281-9.519531l-33.601562-34.960938c-5.917969-6.078125-9.199219-14.398437-9.199219-23.039062 0-5.039063 1.121094-10 3.28125-14.480469zm0 0" fill="#dfb28b"/><path d="m324.71875 106c-1.4375 3.121094-3.4375 6-5.917969 8.558594l-44.402343 46.082031c-2.957032 3.121094-6.636719 5.359375-10.636719 6.398437-2.082031.640626-4.242188.960938-6.480469.960938-4.722656 0-9.359375-1.441406-13.359375-4.238281l-18.480469-12.722657 21.839844-102.398437c1.4375-6.402344.71875-13.039063-1.761719-19.121094l.082031-.078125c5.117188-3.519531 11.117188-5.441406 17.4375-5.441406 8.320313 0 16.242188 3.441406 22.160157 9.519531l33.601562 34.960938c5.917969 6.078125 9.199219 14.398437 9.199219 23.039062 0 5.039063-1.121094 10-3.28125 14.480469zm0 0" fill="#dfb28b"/><path d="m120 41.921875c0 2.238281.238281 4.476563.71875 6.71875l21.839844 102.398437-18.480469 12.722657c-4 2.796875-8.636719 4.238281-13.359375 4.238281-2.238281 0-4.398438-.320312-6.480469-.960938-7.597656-3.597656-9.199219-4.878906-10.636719-6.398437l-44.402343-46.082031c-2.480469-2.558594-4.480469-5.4375-5.917969-8.558594-2.160156-4.480469-3.28125-9.441406-3.28125-14.480469 0-8.640625 3.28125-16.960937 9.199219-23.039062l33.601562-34.960938c5.917969-6.078125 13.839844-9.519531 22.238281-9.519531 6.242188 0 12.242188 1.921875 17.359376 5.441406l.082031.078125c-1.601563 3.921875-2.480469 8.160157-2.480469 12.402344zm0 0" fill="#dfb28b"/><path d="m270.558594 344.960938.5625-2.722657c1.757812-8.238281 9.519531-14.238281 18.558594-14.238281h44.640624c9.039063 0 16.800782 6 18.558594 14.238281l.5625 2.722657 21.839844 102.398437c.480469 2.242187.71875 4.480469.71875 6.71875 0 4.242187-.878906 8.480469-2.480469 12.402344-.960937 2.160156-2.078125 4.238281-3.441406 6.160156-6.71875 9.597656-18.15625 15.359375-30.316406 15.359375h-55.523438c-12.160156 0-23.597656-5.761719-30.316406-15.359375-1.363281-1.921875-2.480469-4-3.441406-6.160156-2.480469-6.082031-3.199219-12.71875-1.761719-19.121094zm0 0" fill="#f0d0b4"/><path d="m225.441406 151.039062-.5625 2.722657c-1.757812 8.238281-9.519531 14.238281-18.558594 14.238281h-44.640624c-9.039063 0-16.800782-6-18.558594-14.238281l-.5625-2.722657-21.839844-102.398437c-.480469-2.242187-.71875-4.480469-.71875-6.71875 0-4.242187.878906-8.480469 2.480469-12.402344.960937-2.160156 2.078125-4.238281 3.441406-6.160156 6.71875-9.597656 18.15625-15.359375 30.316406-15.359375h55.523438c12.160156 0 23.597656 5.761719 30.316406 15.359375 1.363281 1.921875 2.480469 4 3.441406 6.160156 2.480469 6.082031 3.199219 12.71875 1.761719 19.121094zm0 0" fill="#f0d0b4"/><path d="m495.992188 328.769531c-.023438-25.945312-12.96875-50.761719-34.609376-66.371093-5.726562-4.125-12.816406-6.398438-19.957031-6.398438-10.371093 0-18.808593 8.207031-18.808593 18.296875 0 18.71875-11 35.558594-28.714844 43.949219l-4.804688 2.273437c-7.539062-.910156-15.363281.703125-21.738281 5.121094l-9.953125 6.886719c-4.765625-7.566406-13.445312-12.527344-23.070312-12.527344h-44.664063c-9.632813 0-18.304687 4.960938-23.070313 12.527344l-9.953124-6.886719c-6.382813-4.417969-14.207032-6.039063-21.746094-5.121094l-4.789063-2.261719c-17.722656-8.402343-28.722656-25.242187-28.722656-43.960937 0-10.089844-8.4375-18.296875-18.804687-18.296875-7.144532 0-14.234376 2.273438-19.960938 6.398438-21.648438 15.609374-34.585938 40.425781-34.609375 66.371093l-.015625 8.167969c0 7.085938 1.175781 14.078125 3.519531 20.773438 4.792969 13.714843 14.351563 25.664062 26.9375 33.648437l3.207031 2.039063c-.976562 3.585937-1.664062 7.273437-1.664062 11.097656 0 10.792968 4.054688 20.945312 11.433594 28.59375l33.613281 34.910156c7.34375 7.625 17.539063 12 27.953125 12 4.960938 0 9.785156-1.054688 14.328125-2.886719.03125.046875.046875.101563.078125.152344 8.21875 11.726563 22 18.734375 36.859375 18.734375h55.46875c14.859375 0 28.640625-7.007812 36.859375-18.734375.03125-.050781.054688-.105469.085938-.152344 4.542968 1.832031 9.359374 2.886719 14.320312 2.886719 10.414062 0 20.609375-4.375 27.953125-12l33.613281-34.894531c7.378906-7.65625 11.433594-17.816407 11.433594-28.609375 0-3.824219-.6875-7.511719-1.671875-11.105469l3.207031-2.039063c12.585938-7.984374 22.152344-19.9375 26.9375-33.648437 2.351563-6.6875 3.527344-13.679687 3.527344-20.765625zm-328.953126 49.085938c-9.550781-6.070313-16.808593-15.101563-20.414062-25.429688-1.746094-4.984375-2.625-10.203125-2.625-15.472656l.007812-8.167969c.015626-20.832031 10.480469-40.792968 27.96875-53.402344 3.023438-2.183593 6.785157-3.382812 10.597657-3.382812 1.523437 0 2.808593 1.054688 2.808593 2.296875 0 22.511719 11.875 42.839844 31.320313 54.75-.277344.273437-.605469.472656-.878906.753906l-44.390625 46.101563c-.945313.976562-1.671875 2.105468-2.496094 3.152344zm49.527344 79.046875-33.613281-34.902344c-4.417969-4.59375-6.953125-10.96875-6.953125-17.503906s2.535156-12.902344 6.953125-17.503906l44.390625-46.097657c5.3125-5.503906 13.984375-6.414062 20.191406-2.109375l14.066406 9.734375-20.722656 97.136719c-1.183594 5.542969-1.101562 11.246094.082032 16.734375-8.273438 3.074219-18.015626 1.113281-24.394532-5.488281zm146.921875 11.1875c-5.230469 7.453125-14.113281 11.910156-23.753906 11.910156h-55.46875c-9.648437 0-18.523437-4.457031-23.753906-11.921875-3.984375-5.671875-5.390625-12.445313-3.984375-19.070313l22.417968-105.085937c.976563-4.585937 5.488282-7.921875 10.71875-7.921875h44.664063c5.230469 0 9.742187 3.335938 10.71875 7.929688l22.417969 105.070312c1.414062 6.632812.007812 13.40625-3.976563 19.089844zm77.558594-46.089844-33.613281 34.894531c-6.371094 6.617188-16.105469 8.570313-24.386719 5.503907 1.183594-5.488282 1.257813-11.199219.082031-16.742188l-20.730468-97.121094 14.066406-9.734375c6.207031-4.304687 14.878906-3.394531 20.183594 2.101563l44.390624 46.113281c4.425782 4.570313 6.960938 10.953125 6.960938 17.480469s-2.535156 12.917968-6.953125 17.503906zm36.328125-69.566406c-3.605469 10.328125-10.855469 19.359375-20.414062 25.429687l-1.890626 1.199219c-.832031-1.054688-1.558593-2.175781-2.496093-3.152344l-44.398438-46.109375c-.273437-.28125-.589843-.480469-.871093-.753906 19.449218-11.902344 31.320312-32.230469 31.320312-54.75 0-1.242187 1.285156-2.296875 2.808594-2.296875 3.8125 0 7.574218 1.199219 10.597656 3.382812 17.496094 12.609376 27.953125 32.570313 27.96875 53.402344v8.167969c0 5.269531-.878906 10.488281-2.625 15.480469zm0 0"/><path d="m128.648438 170.359375 9.953124-6.886719c4.765626 7.566406 13.4375 12.527344 23.0625 12.527344h44.664063c9.632813 0 18.304687-4.960938 23.070313-12.527344l9.953124 6.886719c5.335938 3.6875 11.542969 5.640625 17.96875 5.640625 1.351563 0 2.671876-.238281 4.007813-.414062l4.566406 2.15625c17.722657 8.402343 28.722657 25.242187 28.722657 43.960937 0 10.089844 8.4375 18.296875 18.808593 18.296875 7.140625 0 14.230469-2.273438 19.957031-6.398438 21.648438-15.609374 34.585938-40.425781 34.609376-66.371093l.007812-8.167969c0-7.085938-1.175781-14.078125-3.519531-20.773438-4.792969-13.714843-14.351563-25.664062-26.9375-33.648437l-3.207031-2.039063c.984374-3.585937 1.664062-7.273437 1.664062-11.097656 0-10.792968-4.054688-20.945312-11.433594-28.59375l-33.613281-34.910156c-10.847656-11.246094-28.023437-14.496094-42.234375-9.023438-.046875-.074218-.078125-.160156-.125-.234374-8.21875-11.734376-22-18.742188-36.859375-18.742188h-55.46875c-14.859375 0-28.640625 7.007812-36.859375 18.734375-.054688.074219-.078125.160156-.132812.242187-14.21875-5.472656-31.386719-2.222656-42.234376 9.03125l-33.605468 34.894532c-7.378906 7.648437-11.433594 17.808594-11.433594 28.601562 0 3.824219.6875 7.511719 1.671875 11.105469l-3.207031 2.03125c-12.585938 7.984375-22.152344 19.933594-26.9375 33.648437-2.351563 6.695313-3.527344 13.6875-3.527344 20.773438l.0078125 8.167969c.0234375 25.945312 12.9687495 50.761719 34.6093755 66.371093 5.726562 4.125 12.816406 6.398438 19.957031 6.398438 10.371093 0 18.808593-8.207031 18.808593-18.296875 0-18.71875 11-35.558594 28.714844-43.949219l4.574219-2.167968c1.335937.175781 2.65625.414062 4.007813.414062 6.425781 0 12.632812-1.953125 17.96875-5.640625zm200.3125-52.214844c9.550781 6.070313 16.808593 15.101563 20.414062 25.429688 1.746094 4.984375 2.625 10.203125 2.625 15.472656l-.007812 8.167969c-.015626 20.832031-10.480469 40.792968-27.96875 53.402344-3.023438 2.183593-6.785157 3.382812-10.597657 3.382812-1.523437 0-2.808593-1.054688-2.808593-2.296875 0-22.519531-11.875-42.847656-31.328126-54.757813.277344-.273437.613282-.472656.886719-.753906l44.390625-46.09375c.945313-.976562 1.671875-2.105468 2.503906-3.160156zm-49.527344-79.046875 33.613281 34.910156c4.417969 4.578126 6.953125 10.960938 6.953125 17.496094s-2.535156 12.910156-6.953125 17.503906l-44.390625 46.097657c-5.3125 5.503906-13.992188 6.40625-20.191406 2.109375l-14.066406-9.75 20.722656-97.136719c1.175781-5.542969 1.101562-11.238281-.074219-16.726563 8.273437-3.058593 18.023437-1.105468 24.386719 5.496094zm-146.921875-11.1875c5.230469-7.453125 14.113281-11.910156 23.753906-11.910156h55.46875c9.648437 0 18.523437 4.457031 23.753906 11.921875 3.984375 5.671875 5.390625 12.445313 3.984375 19.070313l-22.417968 105.085937c-.976563 4.585937-5.488282 7.921875-10.71875 7.921875h-44.664063c-5.230469 0-9.742187-3.335938-10.71875-7.929688l-22.425781-105.070312c-1.40625-6.632812 0-13.40625 3.984375-19.089844zm-77.558594 46.089844 33.613281-34.894531c6.371094-6.617188 16.105469-8.5625 24.386719-5.503907-1.183594 5.488282-1.257813 11.191407-.074219 16.742188l20.722656 97.128906-14.066406 9.734375c-6.207031 4.296875-14.886718 3.394531-20.183594-2.101562l-44.390624-46.105469c-4.425782-4.59375-6.960938-10.96875-6.960938-17.496094s2.535156-12.910156 6.953125-17.503906zm2.429687 147.703125c0 1.242187-1.285156 2.296875-2.808593 2.296875-3.8125 0-7.574219-1.199219-10.597657-3.382812-17.496093-12.609376-27.953124-32.570313-27.96875-53.402344l-.007812-8.167969c0-5.269531.878906-10.488281 2.625-15.480469 3.605469-10.328125 10.855469-19.359375 20.414062-25.429687l1.890626-1.199219c.832031 1.054688 1.558593 2.175781 2.496093 3.152344l44.398438 46.109375c.273437.28125.601562.480469.878906.746093-19.445313 11.910157-31.320313 32.238282-31.320313 54.757813zm0 0"/></svg>