<svg height="499pt" viewBox="-1 0 499 499.312" width="499pt" xmlns="http://www.w3.org/2000/svg"><path d="m328.15625 491.3125h-160c0-17.679688 14.320312-32 32-32h96c17.679688 0 32 14.320312 32 32zm0 0" fill="#838f9b"/><path d="m288.15625 427.3125v32h-80v-32zm0 0" fill="#ccd1d9"/><path d="m232.15625 235.3125h32v192h-32zm0 0" fill="#969faa"/><path d="m272.15625 35.3125-8 24h-32l-8-24 24-24zm0 0" fill="#b4dd7f"/><path d="m304.15625 91.3125h-112c0-17.679688 14.320312-32 32-32h48c17.679688 0 32 14.320312 32 32zm0 0" fill="#fcd770"/><path d="m256.15625 203.3125h32v32h-80v-32zm0 0" fill="#ccd1d9"/><path d="m320.15625 91.3125v32h-144v-32zm0 0" fill="#ccd1d9"/><g fill="#fcd770"><path d="m264.15625 123.3125-8 80h-16l-8-80zm0 0"/><path d="m304.15625 123.3125-16 80h-32l8-80zm0 0"/><path d="m232.15625 123.3125 8 80h-32l-16-80zm0 0"/></g><path d="m296.15625 451.3125v-32h-24v-176h24v-39.207031l14.558594-72.792969h17.441406v-48h-16.808594c-3.519531-17.265625-18.246094-30.335938-36.191406-31.695312l6.160156-18.464844-33.160156-33.152344-33.160156 33.152344 6.160156 18.464844c-17.945312 1.359374-32.671875 14.429687-36.191406 31.695312h-16.808594v48h17.441406l14.558594 72.792969v39.207031h24v176h-24v32c-19.3125 0-35.472656 13.765625-39.191406 32h-128.808594v16h432v-16h-128.808594c-3.71875-18.234375-19.878906-32-39.191406-32zm-14.558594-256h-16.601562l6.398437-64h23zm-34.203125 0-6.398437-64h14.320312l-6.402344 64zm.761719-172.6875 14.839844 14.847656-4.609375 13.839844h-20.472657l-4.605468-13.832031zm-24 44.6875h48c10.414062 0 19.214844 6.710938 22.527344 16h-93.054688c3.3125-9.289062 12.109375-16 22.527344-16zm-40 32h128v16h-128zm40.757812 32 6.402344 64h-16.746094l-12.679687-64zm-8.757812 80h64.097656l-.097656 16h-64zm24 32h16v176h-16zm-24 192h64v16h-64zm-16 32h96c10.414062 0 19.214844 6.710938 22.527344 16h-141.054688c3.3125-9.289062 12.109375-16 22.527344-16zm0 0"/><path d="m480.15625 483.3125h16v16h-16zm0 0"/><path d="m.15625 483.3125h16v16h-16zm0 0"/><path d="m62.21875 313.9375 11.3125 11.308594 14.625-14.621094v20.6875h16v-20.6875l14.625 14.621094 11.3125-11.308594-14.625-14.625h20.6875v-16h-20.6875l14.625-14.625-11.3125-11.3125-14.625 14.625v-20.6875h-16v20.6875l-14.625-14.625-11.3125 11.3125 14.625 14.625h-20.6875v16h20.6875zm17.9375-16v-13.25l9.375-9.375h13.25l9.375 9.375v13.25l-9.375 9.375h-13.25zm0 0"/><path d="m366.21875 65.9375 11.3125 11.308594 14.625-14.621094v20.6875h16v-20.6875l14.625 14.621094 11.3125-11.308594-14.625-14.625h20.6875v-16h-20.6875l14.625-14.625-11.3125-11.3125-14.625 14.625v-20.6875h-16v20.6875l-14.625-14.625-11.3125 11.3125 14.625 14.625h-20.6875v16h20.6875zm17.9375-16v-13.25l9.375-9.375h13.25l9.375 9.375v13.25l-9.375 9.375h-13.25zm0 0"/></svg>