<svg height="499pt" viewBox="-53 0 499 499.312" width="499pt" xmlns="http://www.w3.org/2000/svg"><path d="m152.15625 459.3125v32h-144v-32zm0 0" fill="#cf9e76"/><path d="m136.15625 427.3125v32h-112v-32zm0 0" fill="#dfb28b"/><path d="m96.15625 291.3125v136h-32v-368h32zm0 0" fill="#ccd1d9"/><path d="m104.15625 35.3125-8 24h-32l-8-24 24-24zm0 0" fill="#fcd770"/><path d="m296.15625 83.3125h88v208h-88zm0 0" fill="#ef7385"/><path d="m184.15625 83.3125h112v208h-112zm0 0" fill="#e6e9ed"/><path d="m96.15625 83.3125h88v208h-88zm0 0" fill="#3bafda"/><path d="m392.15625 299.3125v-224h-288v-14.695312l9.152344-27.464844-33.152344-33.152344-33.152344 33.152344 9.152344 27.464844v358.695312h-40v32h-16v48h160v-48h-16v-32h-40v-120zm-200-16v-192h96v192zm184 0h-72v-192h72zm-200-192v192h-72v-192zm-96-68.6875 14.847656 14.847656-4.617187 13.839844h-20.460938l-4.617187-13.839844zm64 460.6875h-128v-16h128zm-16-32h-96v-16h96zm-56-32v-352h16v352zm0 0"/></svg>