<svg height="496pt" viewBox="0 0 496 496" width="496pt" xmlns="http://www.w3.org/2000/svg"><path d="m472 72h-448c-8.800781 0-16 7.199219-16 16v384c0 8.800781 7.199219 16 16 16h448c8.800781 0 16-7.199219 16-16v-384c0-8.800781-7.199219-16-16-16zm0 0" fill="#e6e9ed"/><path d="m456 421.359375c0 9.519531-3.839844 18.242187-10.160156 24.480469-6.238282 6.320312-14.960938 10.160156-24.480469 10.160156-6.480469 0-12.800781-1.839844-18.160156-5.199219-5.359375-3.28125-9.839844-8.082031-12.800781-13.921875l-2-4c-2.71875-5.4375-8.238282-8.878906-14.320313-8.878906h-34.078125c-15.441406 0-28-12.558594-28-28 0-7.679688 3.121094-14.71875 8.238281-19.761719 5.042969-5.117187 12.082031-8.238281 19.761719-8.238281h16.480469c6.878906 0 12.960937-4.398438 15.199219-10.960938l2.242187-6.71875c6.636719-20.082031 16.558594-38.960937 29.277344-55.921874 3.039062-4 7.761719-6.398438 12.800781-6.398438 8.800781 0 16 7.199219 16 16v1.519531c0 20.082031 4.078125 40 12 58.480469l.398438.960938c7.679687 17.839843 11.601562 37.039062 11.601562 56.398437zm0 0" fill="#b4dd7f"/><path d="m272 304c13.28125 0 24 10.71875 24 24 0 6.640625-2.71875 12.640625-7.039062 16.960938-4.320313 4.320312-10.320313 7.039062-16.960938 7.039062h-10.078125c-7.683594 0-13.921875 6.238281-13.921875 13.921875 0 4.957031-2 9.519531-5.28125 12.796875-3.277344 3.28125-7.839844 5.28125-12.796875 5.28125h-14.480469c-4.722656 0-9.363281-1.921875-12.722656-5.28125l-14.640625-14.640625c-2.636719-2.636719-6.15625-4.078125-9.839844-4.078125h-12.316406c-7.683594 0-13.921875 6.238281-13.921875 13.921875v18.796875c0 12.882812-10.398438 23.28125-23.28125 23.28125-10 0-18.878906-6.398438-22-15.921875l-7.519531-22.558594c-1.917969-5.679687-7.277344-9.519531-13.277344-9.519531-7.683594 0-13.921875-6.238281-13.921875-13.921875v-44.316406c0-3.683594-1.441406-7.203125-4.078125-9.839844l-21.28125-21.28125c-4.242187-4.242187-6.640625-10-6.640625-16 0-6.242187 2.558594-11.921875 6.640625-16 4.078125-4.082031 9.757813-6.640625 16-6.640625h19.4375c7.683594 0 13.921875-6.238281 13.921875-13.921875v-8.71875c0-6-2.398438-11.757813-6.640625-16l-2.71875-2.71875c-4.242187-4.242187-6.640625-10-6.640625-16 0-6.242187 2.558594-11.921875 6.640625-16 4.078125-4.082031 9.757813-6.640625 16-6.640625h2.71875c12.480469 0 22.640625-10.160156 22.640625-22.640625v-5.359375c0-15.441406 12.558594-28 28-28 7.679688 0 14.71875 3.121094 19.761719 8.238281 5.117187 5.042969 8.238281 12.082031 8.238281 19.761719v4.078125c0 4.960937 2.558594 9.441406 6.800781 12l33.199219 19.921875.558594.640625c-5.519532 4.71875-8.558594 9.917969-8.558594 15.359375 0 14.800781 22.480469 27.761719 56 34.640625v23.597656c0 3.683594-1.441406 7.203125-4.078125 9.839844l-15.84375 15.84375c-2.636719 2.636719-4.078125 6.15625-4.078125 9.839844v12.316406c0 7.683594 6.238281 13.921875 13.921875 13.921875zm0 0" fill="#b4dd7f"/><path d="m272 218.640625c-33.519531-6.878906-56-19.839844-56-34.640625 0-5.441406 3.039062-10.640625 8.558594-15.359375 13.679687-11.679687 42.402344-20.5625 77.519531-23.519531l25.921875 38.878906 25.921875-38.878906c49.359375 4.160156 86.078125 20 86.078125 38.878906 0 22.078125-50.160156 40-112 40-20.398438 0-39.519531-1.921875-56-5.359375zm0 0" fill="#fcd770"/><path d="m392 69.441406c0 .878906 0 1.757813-.078125 2.558594-.480469 11.199219-4 22.078125-10.242187 31.441406l-27.757813 41.679688-25.921875 38.878906-25.921875-38.878906-27.757813-41.679688c-6.242187-9.363281-9.761718-20.242187-10.242187-31.441406-.078125-.800781-.078125-1.679688-.078125-2.558594 0-16.960937 6.878906-32.320312 18-43.441406s26.480469-18 43.441406-18h5.117188c33.921875 0 61.441406 27.519531 61.441406 61.441406zm0 0" fill="#ef7385"/><path d="m360 72c0 17.671875-14.328125 32-32 32s-32-14.328125-32-32 14.328125-32 32-32 32 14.328125 32 32zm0 0" fill="#fcd770"/><path d="m328 112c22.054688 0 40-17.945312 40-40s-17.945312-40-40-40-40 17.945312-40 40 17.945312 40 40 40zm0-64c13.230469 0 24 10.769531 24 24s-10.769531 24-24 24-24-10.769531-24-24 10.769531-24 24-24zm0 0"/><path d="m472 64h-72.273438c-2.773437-35.753906-32.6875-64-69.132812-64h-5.1875c-36.445312 0-66.359375 28.246094-69.132812 64h-232.273438c-13.230469 0-24 10.769531-24 24v384c0 13.230469 10.769531 24 24 24h448c13.230469 0 24-10.769531 24-24v-384c0-13.230469-10.769531-24-24-24zm-146.59375-48h5.1875c29.445312 0 53.40625 23.960938 53.40625 53.40625 0 10.578125-3.105469 20.824219-8.96875 29.625l-47.03125 70.542969-47.03125-70.542969c-5.863281-8.808594-8.96875-19.046875-8.96875-29.625 0-29.445312 23.960938-53.40625 53.40625-53.40625zm-63.453125 296h10.046875c8.824219 0 16 7.175781 16 16s-7.175781 16-16 16h-10.046875c-12.105469 0-21.953125 9.839844-21.953125 21.945312 0 5.550782-4.503906 10.054688-10.046875 10.054688h-14.472656c-2.6875 0-5.207031-1.046875-7.113281-2.945312l-14.625-14.621094c-4.140626-4.152344-9.652344-6.433594-15.519532-6.433594h-12.269531c-12.105469 0-21.953125 9.839844-21.953125 21.945312v18.816407c0 8.40625-6.839844 15.238281-15.246094 15.238281-6.570312 0-12.386718-4.183594-14.464844-10.433594l-7.519531-22.558594c-2.992187-8.976562-11.363281-15.007812-20.816406-15.007812-3.289063 0-5.953125-2.664062-5.953125-5.945312v-44.277344c0-5.855469-2.28125-11.371094-6.433594-15.511719l-21.285156-21.289063c-2.722656-2.738281-4.28125-6.496093-4.28125-10.351562 0-8.066406 6.558594-14.625 14.632812-14.625h19.421876c12.097656 0 21.945312-9.839844 21.945312-21.945312v-8.679688c0-8.183594-3.183594-15.871094-8.96875-21.648438l-2.75-2.757812c-2.722656-2.730469-4.28125-6.488281-4.28125-10.34375 0-8.066406 6.558594-14.625 14.632812-14.625h2.742188c16.890625 0 30.625-13.742188 30.625-30.625v-5.375c0-11.03125 8.976562-20 20-20s20 8.96875 20 20v4.105469c0 7.664062 4.078125 14.863281 10.65625 18.824219l25.679688 15.40625c-2.734376 4.144531-4.335938 8.671874-4.335938 13.664062 0 19.390625 23.929688 33.214844 56 40.910156v17.3125c0 1.585938-.617188 3.082032-1.742188 4.203125l-15.832031 15.832031c-4.144531 4.148438-6.425781 9.652344-6.425781 15.519532v12.277344c0 12.105468 9.847656 21.945312 21.953125 21.945312zm-37.953125-128c0-11.265625 28.222656-25.761719 74.089844-30.441406l29.910156 44.867187 29.910156-44.867187c45.867188 4.679687 74.089844 19.175781 74.089844 30.441406 0 13.046875-40.511719 32-104 32s-104-18.953125-104-32zm256 288c0 4.414062-3.59375 8-8 8h-448c-4.40625 0-8-3.585938-8-8v-384c0-4.414062 3.59375-8 8-8h232.832031c1.527344 9.9375 5.175781 19.441406 10.824219 27.902344l20.480469 30.722656c-24.023438 3.214844-48.382813 9.765625-63.855469 20.214844l-29.394531-17.640625c-1.773438-1.0625-2.886719-3.023438-2.886719-5.09375v-4.105469c0-19.847656-16.152344-36-36-36s-36 16.152344-36 36v5.375c0 8.066406-6.558594 14.625-14.632812 14.625h-2.742188c-16.890625 0-30.625 13.742188-30.625 30.625 0 8.183594 3.183594 15.871094 8.96875 21.648438l2.75 2.757812c2.722656 2.730469 4.28125 6.488281 4.28125 10.34375v8.679688c0 3.28125-2.664062 5.945312-5.953125 5.945312h-19.414063c-16.898437 0-30.632812 13.742188-30.632812 30.625 0 8.183594 3.183594 15.871094 8.976562 21.65625l21.289063 21.285156c1.117187 1.128906 1.734375 2.617188 1.734375 4.210938v44.277344c0 12.105468 9.847656 21.945312 21.953125 21.945312 2.558594 0 4.832031 1.632812 5.640625 4.070312l7.519531 22.5625c4.261719 12.78125 16.175781 21.367188 29.640625 21.367188 17.230469 0 31.246094-14.015625 31.246094-31.238281v-18.816407c0-3.28125 2.664062-5.945312 5.953125-5.945312h12.269531c1.59375 0 3.082032.617188 4.210938 1.742188l14.621094 14.625c4.914062 4.921874 11.457031 7.632812 18.425781 7.632812h14.472656c14.359375 0 26.046875-11.6875 26.046875-26.054688 0-3.28125 2.664062-5.945312 5.953125-5.945312h10.046875c17.648438 0 32-14.351562 32-32s-14.351562-32-32-32h-10.046875c-3.289063 0-5.953125-2.664062-5.953125-5.945312v-12.277344c0-1.585938.617188-3.082032 1.742188-4.203125l15.832031-15.832031c4.144531-4.148438 6.425781-9.652344 6.425781-15.519532v-14.132812c15.351562 2.558594 31.800781 3.910156 48 3.910156 58.167969 0 120-16.824219 120-48 0-25.824219-40.632812-40.089844-80.136719-45.375l20.480469-30.722656c5.648438-8.460938 9.296875-17.964844 10.824219-27.902344h72.832031c4.40625 0 8 3.585938 8 8zm0 0"/><path d="m451.351562 360.847656c-7.527343-17.582031-11.351562-36.183594-11.351562-55.3125v-1.535156c0-13.230469-10.769531-24-24-24-7.503906 0-14.679688 3.585938-19.199219 9.601562-13.265625 17.6875-23.519531 37.277344-30.503906 58.230469l-2.234375 6.695313c-1.09375 3.28125-4.140625 5.472656-7.589844 5.472656h-16.472656c-19.847656 0-36 16.152344-36 36s16.152344 36 36 36h34.113281c3.046875 0 5.789063 1.695312 7.152344 4.425781l2.007813 4.023438c7.269531 14.527343 21.878906 23.550781 38.117187 23.550781 23.496094 0 42.609375-19.121094 42.609375-42.609375 0-20.589844-4.113281-40.628906-12.222656-59.550781zm-29.960937 87.152344c-10.144531 0-19.261719-5.640625-23.796875-14.710938l-2.007812-4.023437c-4.097657-8.175781-12.320313-13.265625-21.472657-13.265625h-34.113281c-11.023438 0-20-8.96875-20-20s8.976562-20 20-20h16.472656c10.34375 0 19.496094-6.59375 22.765625-16.414062l2.234375-6.699219c6.4375-19.320313 15.902344-37.382813 28.128906-53.6875 1.503907-2.007813 3.894532-3.199219 6.398438-3.199219 4.40625 0 8 3.585938 8 8v1.535156c0 21.296875 4.257812 42.03125 12.648438 61.609375l.421874.984375c7.25 16.933594 10.929688 34.847656 10.929688 53.261719 0 14.671875-11.9375 26.609375-26.609375 26.609375zm0 0"/></svg>