<svg height="496pt" viewBox="0 0 496 496" width="496pt" xmlns="http://www.w3.org/2000/svg"><path d="m344 424v64h-32v-96h32zm0 0" fill="#e6e9ed"/><path d="m280 392h32v96h-32zm0 0" fill="#e6e9ed"/><path d="m184 392h32v96h-32zm0 0" fill="#e6e9ed"/><path d="m184 392v96h-32v-96zm0 0" fill="#e6e9ed"/><path d="m216 392h64v96h-64zm0 0" fill="#838f9b"/><path d="m472 424v64h-128v-64zm0 0" fill="#e6e9ed"/><path d="m152 424v64h-128v-64zm0 0" fill="#e6e9ed"/><g fill="#b4dd7f"><path d="m376 392h32v32h-32zm0 0"/><path d="m440 392h32v32h-32zm0 0"/><path d="m344 392h32v32h-32zm0 0"/><path d="m408 392h32v32h-32zm0 0"/><path d="m88 392h32v32h-32zm0 0"/><path d="m24 392h32v32h-32zm0 0"/><path d="m56 392h32v32h-32zm0 0"/><path d="m120 392h32v32h-32zm0 0"/></g><path d="m344 360v32h-192v-32zm0 0" fill="#b27946"/><path d="m484.71875 372.71875c2.082031 2.082031 3.28125 4.960938 3.28125 8 0 6.242188-5.039062 11.28125-11.28125 11.28125h-132.71875v-32h8l-26.160156-30.160156 2.160156-1.839844h112zm0 0" fill="#cf9e76"/><path d="m170.160156 329.839844-26.160156 30.160156h8v32h-132.71875c-6.242188 0-11.28125-5.039062-11.28125-11.28125 0-3.039062 1.199219-5.917969 3.28125-8l44.71875-44.71875h112zm0 0" fill="#cf9e76"/><path d="m288 240v46.160156l-40-46.160156zm0 0" fill="#e6e9ed"/><path d="m320 240v80l-1.519531 1.28125-30.480469-35.121094v-46.160156zm0 0" fill="#e6e9ed"/><path d="m328 328-2.160156 1.839844-7.359375-8.558594 1.519531-1.28125v-80h32v88zm0 0" fill="#e6e9ed"/><path d="m248 240-40 46.160156v-46.160156zm0 0" fill="#e6e9ed"/><path d="m144 240h64v46.160156l-37.839844 43.679688-2.160156-1.839844h-24zm0 0" fill="#e6e9ed"/><path d="m312 360h-128l64-72zm0 0" fill="#e6e9ed"/><path d="m208 286.160156 40-46.160156 40 46.160156 30.480469 35.121094 7.359375 8.558594 26.160156 30.160156h-40l-64-72-64 72h-40l26.160156-30.160156zm0 0" fill="#fcd770"/><path d="m368 208v32h-240v-32zm0 0" fill="#aab2bd"/><path d="m152 159.679688h192v1.039062 47.28125h-192v-47.28125c0-.320312 0-.71875 0-1.039062zm0 0" fill="#e6e9ed"/><path d="m344 159.679688h-192c.320312-30.480469 13.921875-59.359376 37.441406-78.878907l58.558594-48.800781 58.558594 48.800781c23.519531 19.519531 37.121094 48.398438 37.441406 78.878907zm0 0" fill="#fcd770"/><path d="m240 320h16v16h-16zm0 0"/><path d="m496 380.6875c0-5.160156-2.007812-10.007812-5.65625-13.65625l-47.03125-47.03125h-83.3125v-72h16v-48h-24v-39.289062c0-33.335938-14.6875-64.695313-40.304688-86.039063l-55.695312-46.414063v-28.257812h-16v28.257812l-55.695312 46.414063c-25.617188 21.335937-40.304688 52.695313-40.304688 86.039063v39.289062h-24v48h16v72h-83.3125l-47.03125 47.03125c-3.648438 3.648438-5.65625 8.496094-5.65625 13.65625 0 9.511719 6.929688 17.390625 16 18.976562v96.335938h464v-96.335938c9.070312-1.585937 16-9.464843 16-18.976562zm-152-60.6875h-16v.097656l-.078125-.097656h.078125v-72h16zm120 80v16h-16v-16zm-32 16h-16v-16h16zm-32 0h-16v-16h16zm-32 0h-16v-16h16zm-32 64h-16v-80h16zm-304-80h16v16h-16zm32 0h16v16h-16zm32 0h16v16h-16zm32 0h16v16h-16zm32 0h16v80h-16zm32 0h16v80h-16zm32 0h48v80h-48zm64 0h16v80h-16zm-128-16v-16h176v16zm136-100.832031v-35.167969h16v53.632812zm-16-18.457031-14.480469-16.710938h14.480469zm-49.519531-16.710938-14.480469 16.710938v-16.710938zm-30.480469 35.167969-16 18.464843v-53.632812h16zm48-30.953125 86.480469 99.785156h-18.886719l-67.59375-76.039062-67.59375 76.039062h-18.886719zm46.183594 99.785156h-92.367188l46.183594-51.960938zm-99.640625-265.039062 53.457031-44.546876 53.457031 44.546876c19.613281 16.34375 31.679688 39.558593 34.046875 64.695312h-175.007812c2.367187-25.136719 14.433594-48.351562 34.046875-64.695312zm-34.542969 80.695312h176v32.34375h-176zm-24 48.34375h224v16h-108.34375l-3.65625-4.214844-3.65625 4.214844h-108.34375zm16 32h16v72h.078125l-.078125.097656v-.097656h-16zm-135.03125 130.34375 42.34375-42.34375h94.902344l-27.734375 32h17.519531v16h-124.6875c-1.824219 0-3.3125-1.488281-3.3125-3.3125 0-.871094.351562-1.726562.96875-2.34375zm15.03125 53.65625h112v48h-112zm320 48v-48h112v48zm124.6875-96h-124.6875v-16h17.519531l-27.734375-32h94.902344l42.34375 42.34375c.617188.617188.96875 1.472656.96875 2.34375 0 1.824219-1.488281 3.3125-3.3125 3.3125zm0 0"/><path d="m240 176h16v16h-16zm0 0"/><path d="m272 176h16v16h-16zm0 0"/><path d="m304 176h16v16h-16zm0 0"/><path d="m208 176h16v16h-16zm0 0"/><path d="m176 176h16v16h-16zm0 0"/></svg>