<svg height="496pt" viewBox="0 -32 496 496" width="496pt" xmlns="http://www.w3.org/2000/svg"><path d="m288 368v56h-80v-56zm0 0" fill="#e6e9ed"/><path d="m176 368h32v56h-63.679688v-.640625l31.519532-55.679687zm0 0" fill="#69d6f4"/><path d="m320.160156 367.679688 31.519532 55.679687v.640625h-63.679688v-56h32zm0 0" fill="#69d6f4"/><path d="m360.320312 423.359375v.640625h-8.640624v-.640625l-31.519532-55.679687 35.917969-63.839844 35.921875 63.519531zm0 0" fill="#3bafda"/><path d="m248 367.359375v.640625h-72l-.160156-.320312 36.160156-64zm0 0" fill="#3bafda"/><path d="m284 303.679688 36.160156 64-.160156.320312h-72v-.640625zm0 0" fill="#3bafda"/><path d="m391.28125 241.199219 36.480469 62.878906-35.761719 63.28125-35.921875-63.519531zm0 0" fill="#69d6f4"/><path d="m486.320312 405.039062c1.121094 1.921876 1.679688 4.160157 1.679688 6.320313 0 6.960937-5.679688 12.640625-12.640625 12.640625h-51.679687v-.640625l-31.679688-56 35.761719-63.28125zm0 0" fill="#3bafda"/><g fill="#69d6f4"><path d="m320 240 36.078125 63.839844-35.917969 63.839844-36.160156-64zm0 0"/><path d="m423.679688 423.359375v.640625h-63.359376v-.640625l31.679688-56zm0 0"/><path d="m248 239.921875 36 63.757813-36 63.679687-36-63.679687zm0 0"/><path d="m248 112.640625 36 63.679687-36 63.601563-36-63.601563zm0 0"/><path d="m104.71875 241.199219 35.203125 62.640625-35.921875 63.519531-35.761719-63.28125zm0 0"/></g><path d="m144.320312 423.359375v.640625h-8.640624v-.640625l-31.679688-56 35.921875-63.519531 35.917969 63.839844zm0 0" fill="#3bafda"/><path d="m318.320312 115.519531 36.480469 62.878907-34.800781 61.601562-36-63.679688zm0 0" fill="#69d6f4"/><path d="m176 240 36 63.679688-36.160156 64-35.917969-63.839844zm0 0" fill="#69d6f4"/><path d="m391.28125 241.199219-35.203125 62.640625-36.078125-63.839844 34.800781-61.601562zm0 0" fill="#3bafda"/><path d="m212 176.320312 36 63.601563-36 63.757813-36-63.679688zm0 0" fill="#3bafda"/><path d="m177.679688 115.519531 34.320312 60.800781-36 63.679688-34.800781-61.601562zm0 0" fill="#69d6f4"/><path d="m141.199219 178.398438 34.800781 61.601562-36.078125 63.839844-35.203125-62.640625zm0 0" fill="#3bafda"/><path d="m68.238281 304.078125 35.761719 63.28125-32 56.640625h-51.359375c-6.960937 0-12.640625-5.679688-12.640625-12.640625 0-2.160156.558594-4.398437 1.679688-6.320313zm0 0" fill="#3bafda"/><path d="m135.679688 423.359375v.640625h-63.679688l32-56.640625zm0 0" fill="#69d6f4"/><path d="m284 176.320312 36 63.679688-36 63.679688-36-63.757813zm0 0" fill="#3bafda"/><path d="m214.078125 52.71875 33.921875 59.921875-36 63.679687-34.320312-60.800781zm0 0" fill="#3bafda"/><path d="m281.921875 52.71875 36.398437 62.800781-34.320312 60.800781-36-63.679687zm0 0" fill="#3bafda"/><path d="m281.921875 52.640625v.078125l-33.921875 59.921875-33.921875-59.921875v-.078125l21.921875-37.679687c2.480469-4.320313 7.039062-6.960938 12-6.960938s9.519531 2.640625 12 6.960938zm0 0" fill="#69d6f4"/><path d="m493.214844 401.046875-226.277344-390.144531c-3.914062-6.726563-11.160156-10.902344-18.9375-10.902344s-15.023438 4.175781-18.9375 10.902344l-226.277344 390.144531c-1.816406 3.136719-2.785156 6.714844-2.785156 10.34375 0 11.363281 9.246094 20.609375 20.609375 20.609375h454.78125c11.363281 0 20.609375-9.246094 20.609375-20.609375 0-3.628906-.96875-7.207031-2.785156-10.34375zm-231.855469-41.046875 22.640625-40.046875 22.640625 40.046875zm-72 0 22.640625-40.046875 22.640625 40.046875zm85.449219-56.3125-26.808594 47.433594-26.808594-47.433594 26.808594-47.429688zm-17.617188-63.6875 26.808594-47.433594 26.808594 47.433594-26.808594 47.433594zm-45.191406 47.433594-26.808594-47.433594 26.808594-47.433594 26.808594 47.433594zm-9.191406 16.253906-26.96875 47.710938-26.742188-47.542969 26.902344-47.597657zm90.382812 0 26.808594-47.429688 26.902344 47.597657-26.742188 47.542969zm36-63.6875 25.71875-45.511719 27.160156 46.832031-26.007812 46.230469zm-9.191406-16.265625-26.808594-47.429687 25.257813-44.6875 27.152343 46.816406zm-36-63.6875-26.808594-47.429687 24.792969-43.863282 27.160156 46.820313zm-9.191406 16.265625-26.808594 47.421875-26.808594-47.429687 26.808594-47.433594zm-62.808594-16.265625-25.144531-44.480469 27.152343-46.8125 24.792969 43.871094zm-9.191406 16.257813-26.808594 47.4375-25.609375-45.300782 27.160156-46.824218zm-36 63.695312-26.878906 47.558594-26.007813-46.230469 27.15625-46.832031zm-36.082032 63.832031-26.726562 47.296875-26.535156-46.945312 27.136718-46.792969zm9.167969 16.304688 26.746094 47.542969-26.640625 47.136718-26.808594-47.433594zm-17.605469 95.863281h-36.578124l18.289062-32.351562zm58.03125-40h19.679688v40h-42.289062zm35.679688 0h64v40h-64zm80 0h19.679688l22.609374 40h-42.289062zm60 38.816406-26.640625-47.136718 26.746094-47.542969 26.703125 47.246093zm36-31.175781 18.289062 32.359375h-36.578124zm-26.726562-79.808594 26.125-46.441406 27.136718 46.792969-26.535156 46.945312zm-122.371094-284.894531c1.058594-1.808594 3.007812-2.9375 5.097656-2.9375s4.039062 1.128906 5.097656 2.9375l19.582032 33.757812-24.679688 43.65625-24.679688-43.65625zm-226.902344 392.453125c0-.804687.214844-1.605469.625-2.3125l51.535156-88.847656 26.65625 47.152343-27.488281 48.617188h-46.71875c-2.546875 0-4.609375-2.0625-4.609375-4.609375zm459.390625 4.609375h-46.71875l-27.480469-48.617188 26.65625-47.152343 51.535156 88.859375c.402344.695312.617188 1.496094.617188 2.300781 0 2.546875-2.0625 4.609375-4.609375 4.609375zm0 0"/></svg>