<svg height="496pt" viewBox="0 0 496 496" width="496pt" xmlns="http://www.w3.org/2000/svg"><path d="m326.398438 264h65.601562v96h-64v-80c0-5.519531-.558594-10.878906-1.601562-16zm0 0" fill="#dfb28b"/><path d="m104 264h65.601562c-1.042968 5.121094-1.601562 10.480469-1.601562 16v80h-64zm0 0" fill="#dfb28b"/><path d="m296 280v80h-32v-32c0-4.398438-1.761719-8.398438-4.71875-11.28125-2.882812-2.957031-6.882812-4.71875-11.28125-4.71875-8.800781 0-16 7.199219-16 16v32h-32v-80zm0 0" fill="#ecc19c"/><path d="m136 392v96h-32v-48c0-4.398438-1.761719-8.398438-4.71875-11.28125-2.882812-2.957031-6.882812-4.71875-11.28125-4.71875-8.800781 0-16 7.199219-16 16v48h-32v-96zm0 0" fill="#ecc19c"/><path d="m296 392v96h-32v-48c0-4.398438-1.761719-8.398438-4.71875-11.28125-2.882812-2.957031-6.882812-4.71875-11.28125-4.71875-8.800781 0-16 7.199219-16 16v48h-32v-96zm0 0" fill="#ecc19c"/><path d="m456 392v96h-32v-48c0-4.398438-1.761719-8.398438-4.71875-11.28125-2.882812-2.957031-6.882812-4.71875-11.28125-4.71875-8.800781 0-16 7.199219-16 16v48h-32v-96zm0 0" fill="#ecc19c"/><path d="m488 248v112h-32v-48c0-4.398438-1.761719-8.398438-4.71875-11.28125-2.882812-2.957031-6.882812-4.71875-11.28125-4.71875-8.800781 0-16 7.199219-16 16v48h-32v-96h16v-16zm0 0" fill="#ecc19c"/><path d="m104 264v96h-32v-48c0-4.398438-1.761719-8.398438-4.71875-11.28125-2.882812-2.957031-6.882812-4.71875-11.28125-4.71875-8.800781 0-16 7.199219-16 16v48h-32v-112h80v16zm0 0" fill="#ecc19c"/><g fill="#f5e0cd"><path d="m456 392h32v96h-32zm0 0"/><path d="m8 392h32v96h-32zm0 0"/><path d="m136 392h32v96h-32zm0 0"/><path d="m328 392h32v96h-32zm0 0"/><path d="m296 392h32v96h-32zm0 0"/><path d="m168 392h32v96h-32zm0 0"/><path d="m296 280h32v80h-32zm0 0"/><path d="m168 280h32v80h-32zm0 0"/></g><path d="m392 264h-65.601562c-2.398438-11.839844-7.4375-22.71875-14.398438-32h96v32zm0 0" fill="#b27946"/><path d="m136 232h48c-6.960938 9.28125-12 20.160156-14.398438 32h-81.601562v-32zm0 0" fill="#b27946"/><path d="m328 280h-160c0-5.519531.558594-10.878906 1.601562-16 2.398438-11.839844 7.4375-22.71875 14.398438-32 2.320312-3.039062 4.800781-5.921875 7.441406-8.558594 2.636719-2.640625 5.519532-5.121094 8.558594-7.441406 13.359375-10 30-16 48-16s34.640625 6 48 16c6.078125 4.558594 11.441406 9.921875 16 16 6.960938 9.28125 12 20.160156 14.398438 32 1.042968 5.121094 1.601562 10.480469 1.601562 16zm0 0" fill="#cf9e76"/><path d="m296 152v64c-13.359375-10-30-16-48-16s-34.640625 6-48 16v-64zm0 0" fill="#ecc19c"/><path d="m304 152h56v80h-48c-4.558594-6.078125-9.921875-11.441406-16-16v-64zm0 0" fill="#f5e0cd"/><path d="m200 152v64c-3.039062 2.320312-5.921875 4.800781-8.558594 7.441406-2.640625 2.636719-5.121094 5.519532-7.441406 8.558594h-48v-80zm0 0" fill="#f5e0cd"/><path d="m344 152h-40c0-45.679688-20-89.121094-54.640625-118.878906l-1.359375-1.121094 31.601562 15.839844c39.4375 19.679687 64.398438 60 64.398438 104.160156zm0 0" fill="#cf9e76"/><path d="m248 32-1.359375 1.121094c-34.640625 29.757812-54.640625 73.199218-54.640625 118.878906h-40c0-44.160156 24.960938-84.480469 64.398438-104.160156zm0 0" fill="#cf9e76"/><path d="m249.359375 33.121094c34.640625 29.757812 54.640625 73.199218 54.640625 118.878906h-112c0-45.679688 20-89.121094 54.640625-118.878906l1.359375-1.121094zm0 0" fill="#dfb28b"/><path d="m104 440v48h-32v-48c0-8.800781 7.199219-16 16-16 4.398438 0 8.398438 1.761719 11.28125 4.71875 2.957031 2.882812 4.71875 6.882812 4.71875 11.28125zm0 0" fill="#b27946"/><path d="m264 440v48h-32v-48c0-8.800781 7.199219-16 16-16 4.398438 0 8.398438 1.761719 11.28125 4.71875 2.957031 2.882812 4.71875 6.882812 4.71875 11.28125zm0 0" fill="#b27946"/><path d="m424 440v48h-32v-48c0-8.800781 7.199219-16 16-16 4.398438 0 8.398438 1.761719 11.28125 4.71875 2.957031 2.882812 4.71875 6.882812 4.71875 11.28125zm0 0" fill="#b27946"/><path d="m456 312v48h-32v-48c0-8.800781 7.199219-16 16-16 4.398438 0 8.398438 1.761719 11.28125 4.71875 2.957031 2.882812 4.71875 6.882812 4.71875 11.28125zm0 0" fill="#b27946"/><path d="m264 328v32h-32v-32c0-8.800781 7.199219-16 16-16 4.398438 0 8.398438 1.761719 11.28125 4.71875 2.957031 2.882812 4.71875 6.882812 4.71875 11.28125zm0 0" fill="#b27946"/><path d="m72 312v48h-32v-48c0-8.800781 7.199219-16 16-16 4.398438 0 8.398438 1.761719 11.28125 4.71875 2.957031 2.882812 4.71875 6.882812 4.71875 11.28125zm0 0" fill="#b27946"/><path d="m416 240v-16h-48v-80h-16.28125c-2.78125-44.214844-28.488281-83.328125-68.542969-103.351562l-27.175781-13.59375v-27.054688h-16v27.054688l-27.175781 13.59375c-40.046875 20.023437-65.761719 59.144531-68.542969 103.351562h-16.28125v80h-48v16h-80v256h496v-256zm64 16v96h-16v-40c0-13.230469-10.769531-24-24-24s-24 10.769531-24 24v40h-16v-80h16v-16zm-64 224h-16v-40c0-4.40625 3.585938-8 8-8s8 3.59375 8 8zm-8-64c-13.230469 0-24 10.769531-24 24v40h-16v-80h80v80h-16v-40c0-13.230469-10.769531-24-24-24zm-152 64h-16v-40c0-4.40625 3.585938-8 8-8s8 3.59375 8 8zm-8-64c-13.230469 0-24 10.769531-24 24v40h-16v-80h80v80h-16v-40c0-13.230469-10.769531-24-24-24zm-152 64h-16v-40c0-4.40625 3.585938-8 8-8s8 3.59375 8 8zm-8-64c-13.230469 0-24 10.769531-24 24v40h-16v-80h80v80h-16v-40c0-13.230469-10.769531-24-24-24zm56-16h16v80h-16zm32 0h16v80h-16zm128 0h16v80h-16zm32 0h16v80h-16zm-320-16v-16h464v16zm48-32h-16v-40c0-4.40625 3.585938-8 8-8s8 3.59375 8 8zm96.40625-80c-.238281 2.640625-.40625 5.296875-.40625 8v72h-48v-80zm87.59375-229.089844c28.503906 26.28125 45.480469 62.449219 47.566406 101.089844h-95.132812c2.085937-38.640625 19.0625-74.808594 47.566406-101.089844zm40 117.089844v41.710938c-12.015625-6.160157-25.59375-9.710938-40-9.710938s-27.984375 3.550781-40 9.710938v-41.710938zm-40 48c37 0 67.558594 28.046875 71.550781 64h-143.101562c3.992187-35.953125 34.550781-64 71.550781-64zm88 144v-72c0-2.703125-.167969-5.359375-.40625-8h48.40625v80zm-80 0h-16v-24c0-4.40625 3.585938-8 8-8s8 3.59375 8 8zm-8-48c-13.230469 0-24 10.769531-24 24v24h-16v-64h80v64h-16v-24c0-13.230469-10.769531-24-24-24zm-56-16v64h-16v-64zm112 0h16v64h-16zm144 64h-16v-40c0-4.40625 3.585938-8 8-8s8 3.59375 8 8zm-48-96h-67.40625c-1.585938-5.585938-3.707031-10.929688-6.304688-16h73.710938zm-84.167969-32c-3.558593-4.304688-7.519531-8.265625-11.832031-11.832031v-52.167969h48v64zm19.871094-80h-23.917969c-1.488281-30.785156-11.5625-60.214844-28.761718-85.214844 30.585937 18.152344 50.113281 49.742188 52.679687 85.214844zm-122.726563-85.214844c-17.199218 24.992188-27.273437 54.429688-28.761718 85.214844h-23.917969c2.566406-35.472656 22.09375-67.0625 52.679687-85.214844zm-68.976562 101.214844h48v52.167969c-4.304688 3.558593-8.265625 7.519531-11.832031 11.832031h-36.167969zm-48 80h73.710938c-2.597657 5.070312-4.71875 10.414062-6.304688 16h-67.40625zm-16 16v16h16v80h-16v-40c0-13.230469-10.769531-24-24-24s-24 10.769531-24 24v40h-16v-96zm-64 144h16v80h-16zm448 80v-80h16v80zm0 0"/><path d="m160 176h16v16h-16zm0 0"/><path d="m320 176h16v16h-16zm0 0"/></svg>