<svg height="496pt" viewBox="-15 0 495 496" width="496pt" xmlns="http://www.w3.org/2000/svg"><path d="m232.5 344h-64v-64c0 23.679688 12.878906 44.398438 32 55.441406 9.359375 5.4375 20.320312 8.558594 32 8.558594zm0 0" fill="#dfb28b"/><path d="m296.5 280v64h-64c11.679688 0 22.640625-3.121094 32-8.558594 19.121094-11.042968 32-31.761718 32-55.441406zm0 0" fill="#dfb28b"/><path d="m296.5 216v32h-8.558594c-5.601562-9.761719-13.679687-17.839844-23.441406-23.441406-9.359375-5.4375-20.320312-8.558594-32-8.558594zm0 0" fill="#dfb28b"/><path d="m200.5 216h32c-11.679688 0-22.640625 3.121094-32 8.558594-9.761719 5.601562-17.839844 13.679687-23.441406 23.441406h-8.558594v-32zm0 0" fill="#dfb28b"/><path d="m240.5 293.839844 24 41.601562c-9.359375 5.4375-20.320312 8.558594-32 8.558594s-22.640625-3.121094-32-8.558594l24-41.601562c2.320312 1.359375 5.121094 2.160156 8 2.160156s5.679688-.800781 8-2.160156zm0 0" fill="#f5e0cd"/><path d="m224.5 293.839844-24 41.601562c-19.121094-11.042968-32-31.761718-32-55.441406h48c0 5.921875 3.199219 11.039062 8 13.839844zm0 0" fill="#f5e0cd"/><path d="m248.5 280h48c0 23.679688-12.878906 44.398438-32 55.441406l-24-41.601562c4.800781-2.800782 8-7.917969 8-13.839844zm0 0" fill="#f5e0cd"/><path d="m264.5 224.558594-24 41.601562c-2.320312-1.359375-5.121094-2.160156-8-2.160156s-5.679688.800781-8 2.160156l-24-41.601562c9.359375-5.4375 20.320312-8.558594 32-8.558594s22.640625 3.121094 32 8.558594zm0 0" fill="#f5e0cd"/><path d="m296.5 280h-48c0-5.921875-3.199219-11.039062-8-13.839844l24-41.601562c9.761719 5.601562 17.839844 13.679687 23.441406 23.441406 5.4375 9.359375 8.558594 20.320312 8.558594 32zm0 0" fill="#f5e0cd"/><path d="m200.5 224.558594 24 41.601562c-4.800781 2.800782-8 7.917969-8 13.839844h-48c0-11.679688 3.121094-22.640625 8.558594-32 5.601562-9.761719 13.679687-17.839844 23.441406-23.441406zm0 0" fill="#f5e0cd"/><path d="m240.5 266.160156c4.800781 2.800782 8 7.917969 8 13.839844s-3.199219 11.039062-8 13.839844c-2.320312 1.359375-5.121094 2.160156-8 2.160156s-5.679688-.800781-8-2.160156c-4.800781-2.800782-8-7.917969-8-13.839844s3.199219-11.039062 8-13.839844c2.320312-1.359375 5.121094-2.160156 8-2.160156s5.679688.800781 8 2.160156zm0 0" fill="#b27946"/><path d="m440.5 8v32h-128v-32zm0 0" fill="#f5e0cd"/><path d="m152.5 8v32h-128v-32zm0 0" fill="#f5e0cd"/><g fill="#cf9e76"><path d="m392.5 40h32v32h-32zm0 0"/><path d="m328.5 40v32h-32v-32zm0 0"/><path d="m328.5 40h32v32h-32zm0 0"/><path d="m360.5 40h32v32h-32zm0 0"/><path d="m456.5 40v32h-32v-32zm0 0"/><path d="m72.5 40h32v32h-32zm0 0"/><path d="m40.5 40h32v32h-32zm0 0"/><path d="m168.5 40v32h-32v-32zm0 0"/><path d="m40.5 40v32h-32v-32zm0 0"/><path d="m104.5 40h32v32h-32zm0 0"/></g><path d="m424.5 376h32v112h-32zm0 0" fill="#f5e0cd"/><path d="m424.5 344h32v32h-32zm0 0" fill="#cf9e76"/><path d="m456.5 248v96h-160v-96zm-32 64v-32h-32v32zm-64 0v-32h-32v32zm0 0" fill="#ecc19c"/><path d="m424.5 216h32v32h-32zm0 0" fill="#b27946"/><path d="m424.5 168h32v48h-32zm0 0" fill="#cf9e76"/><path d="m456.5 72v96h-160v-96zm-32 64v-32h-32v32zm-64 0v-32h-32v32zm0 0" fill="#ecc19c"/><path d="m424.5 376v112h-32v-64c0-4.398438-1.761719-8.398438-4.71875-11.28125-2.882812-2.957031-6.882812-4.71875-11.28125-4.71875-8.800781 0-16 7.199219-16 16v64h-32v-112zm0 0" fill="#ecc19c"/><path d="m392.5 344h32v32h-32zm0 0" fill="#cf9e76"/><path d="m392.5 280h32v32h-32zm0 0" fill="#f5e0cd"/><path d="m392.5 216h32v32h-32zm0 0" fill="#b27946"/><path d="m392.5 168h32v48h-32zm0 0" fill="#cf9e76"/><path d="m392.5 104h32v32h-32zm0 0" fill="#f5e0cd"/><path d="m392.5 424v64h-32v-64c0-8.800781 7.199219-16 16-16 4.398438 0 8.398438 1.761719 11.28125 4.71875 2.957031 2.882812 4.71875 6.882812 4.71875 11.28125zm0 0" fill="#cf9e76"/><path d="m360.5 344h32v32h-32zm0 0" fill="#cf9e76"/><path d="m360.5 216h32v32h-32zm0 0" fill="#b27946"/><path d="m360.5 168h32v48h-32zm0 0" fill="#cf9e76"/><path d="m328.5 344h32v32h-32zm0 0" fill="#cf9e76"/><path d="m328.5 280h32v32h-32zm0 0" fill="#f5e0cd"/><path d="m328.5 216h32v32h-32zm0 0" fill="#b27946"/><path d="m328.5 168h32v48h-32zm0 0" fill="#cf9e76"/><path d="m328.5 104h32v32h-32zm0 0" fill="#f5e0cd"/><path d="m296.5 376h32v112h-32zm0 0" fill="#f5e0cd"/><path d="m296.5 344h32v32h-32zm0 0" fill="#cf9e76"/><path d="m296.5 216h32v32h-32zm0 0" fill="#b27946"/><path d="m296.5 168h32v48h-32zm0 0" fill="#cf9e76"/><path d="m296.5 376v112h-48v-64c0-4.398438-1.761719-8.398438-4.71875-11.28125-2.882812-2.957031-6.882812-4.71875-11.28125-4.71875-8.800781 0-16 7.199219-16 16v64h-48v-112zm0 0" fill="#ecc19c"/><path d="m264.5 344h32v32h-32zm0 0" fill="#cf9e76"/><path d="m264.5 168h32v48h-32zm0 0" fill="#cf9e76"/><path d="m232.5 344h32v32h-32zm0 0" fill="#cf9e76"/><path d="m232.5 168h32v48h-32zm0 0" fill="#cf9e76"/><path d="m248.5 424v64h-32v-64c0-8.800781 7.199219-16 16-16 4.398438 0 8.398438 1.761719 11.28125 4.71875 2.957031 2.882812 4.71875 6.882812 4.71875 11.28125zm0 0" fill="#cf9e76"/><path d="m200.5 344h32v32h-32zm0 0" fill="#cf9e76"/><path d="m200.5 168h32v48h-32zm0 0" fill="#cf9e76"/><path d="m168.5 344h32v32h-32zm0 0" fill="#cf9e76"/><path d="m168.5 168h32v48h-32zm0 0" fill="#cf9e76"/><path d="m136.5 376h32v112h-32zm0 0" fill="#f5e0cd"/><path d="m136.5 344h32v32h-32zm0 0" fill="#cf9e76"/><path d="m168.5 280v64h-160v-96h160zm-32 32v-32h-32v32zm-64 0v-32h-32v32zm0 0" fill="#ecc19c"/><path d="m136.5 216h32v32h-32zm0 0" fill="#b27946"/><path d="m136.5 168h32v48h-32zm0 0" fill="#cf9e76"/><path d="m168.5 72v96h-160v-96zm-32 64v-32h-32v32zm-64 0v-32h-32v32zm0 0" fill="#ecc19c"/><path d="m136.5 376v112h-32v-64c0-4.398438-1.761719-8.398438-4.71875-11.28125-2.882812-2.957031-6.882812-4.71875-11.28125-4.71875-8.800781 0-16 7.199219-16 16v64h-32v-112zm0 0" fill="#ecc19c"/><path d="m104.5 344h32v32h-32zm0 0" fill="#cf9e76"/><path d="m104.5 280h32v32h-32zm0 0" fill="#f5e0cd"/><path d="m104.5 216h32v32h-32zm0 0" fill="#b27946"/><path d="m104.5 168h32v48h-32zm0 0" fill="#cf9e76"/><path d="m104.5 104h32v32h-32zm0 0" fill="#f5e0cd"/><path d="m104.5 424v64h-32v-64c0-8.800781 7.199219-16 16-16 4.398438 0 8.398438 1.761719 11.28125 4.71875 2.957031 2.882812 4.71875 6.882812 4.71875 11.28125zm0 0" fill="#cf9e76"/><path d="m72.5 344h32v32h-32zm0 0" fill="#cf9e76"/><path d="m72.5 216h32v32h-32zm0 0" fill="#b27946"/><path d="m72.5 168h32v48h-32zm0 0" fill="#cf9e76"/><path d="m40.5 344h32v32h-32zm0 0" fill="#cf9e76"/><path d="m40.5 280h32v32h-32zm0 0" fill="#f5e0cd"/><path d="m40.5 216h32v32h-32zm0 0" fill="#b27946"/><path d="m40.5 168h32v48h-32zm0 0" fill="#cf9e76"/><path d="m40.5 104h32v32h-32zm0 0" fill="#f5e0cd"/><path d="m8.5 376h32v112h-32zm0 0" fill="#f5e0cd"/><path d="m8.5 344h32v32h-32zm0 0" fill="#cf9e76"/><path d="m8.5 216h32v32h-32zm0 0" fill="#b27946"/><path d="m8.5 168h32v48h-32zm0 0" fill="#cf9e76"/><path d="m448.5 32v-32h-144v32h-16v128h-112v-128h-16v-32h-144v32h-16v464h464v-464zm-96 16v16h-16v-16zm16 0h16v16h-16zm32 0h16v16h-16zm32 0h16v16h-16zm-112-32h112v16h-112zm0 32v16h-16v-16zm-16 32h144v80h-144zm80 400h-16v-56c0-4.40625 3.59375-8 8-8s8 3.59375 8 8zm-8-80c-13.230469 0-24 10.769531-24 24v56h-16v-96h80v96h-16v-56c0-13.230469-10.769531-24-24-24zm-280 80h-16v-56c0-4.40625 3.59375-8 8-8s8 3.59375 8 8zm-8-80c-13.230469 0-24 10.769531-24 24v56h-16v-96h80v96h-16v-56c0-13.230469-10.769531-24-24-24zm312-160v-16h16v16zm-64 0v-16h16v16zm32-16h16v16h-16zm32-16v-32h16v32zm-16 0h-16v-32h16zm-32 0h-16v-32h16zm-32 0h-16v-32h16zm0 16v16h-16v-16zm-110.527344 64c.992188 2.777344 2.464844 5.289062 4.34375 7.488281l-16.425781 28.457031c-11.015625-8.699218-18.664063-21.417968-20.75-35.9375h32.832031zm30.527344-8c0 4.40625-3.59375 8-8 8s-8-3.59375-8-8 3.59375-8 8-8 8 3.59375 8 8zm-28.761719 51.96875 16.402344-28.410156c1.414063.265625 2.863281.441406 4.359375.441406s2.945312-.175781 4.359375-.441406l16.402344 28.410156c-6.425781 2.574219-13.425781 4.03125-20.761719 4.03125s-14.335938-1.457031-20.761719-4.03125zm55.371094-8.03125-16.425781-28.457031c1.878906-2.199219 3.351562-4.710938 4.34375-7.488281h32.832031c-2.085937 14.527343-9.734375 27.253906-20.75 35.945312zm-12.082031-51.9375c-.992188-2.777344-2.472656-5.289062-4.34375-7.488281l16.425781-28.457031c11.015625 8.699218 18.664063 21.417968 20.75 35.9375h-32.832031zm-1.765625-43.96875-16.402344 28.410156c-1.414063-.265625-2.863281-.441406-4.359375-.441406s-2.945312.175781-4.359375.441406l-16.402344-28.410156c6.425781-2.574219 13.425781-4.03125 20.761719-4.03125s14.335938 1.457031 20.761719 4.03125zm-55.371094 8.03125 16.425781 28.457031c-1.878906 2.199219-3.351562 4.710938-4.34375 7.488281h-32.832031c2.085937-14.527343 9.734375-27.253906 20.75-35.945312zm-10.542969 99.9375h-10.847656v-10.847656c3.222656 3.992187 6.855469 7.625 10.847656 10.847656zm101.152344-10.847656v10.847656h-10.847656c3.992187-3.222656 7.625-6.855469 10.847656-10.847656zm0-90.304688c-3.222656-3.992187-6.855469-7.625-10.847656-10.847656h10.847656zm-48-26.847656v-32h16v32zm-16 0h-16v-32h16zm-48 26.847656v-10.847656h10.847656c-3.992187 3.222656-7.625 6.855469-10.847656 10.847656zm-16 5.152344h-16v-16h16zm-112 0v-16h16v16zm32-16h16v16h-16zm32 0h16v16h-16zm32-16v-32h16v32zm-16 0h-16v-32h16zm-32 0h-16v-32h16zm-32 0h-16v-32h16zm-32 0h-16v-32h16zm0 16v16h-16v-16zm128 32v80h-144v-80zm-80 112v-16h16v16zm-48-16v16h-16v-16zm16 0h16v16h-16zm64 16v-16h16v16zm32-16h16v16h-16zm32 0h16v16h-16zm32 0h16v16h-16zm32 0h16v16h-16zm32 0h16v16h-16zm32 0h16v16h-16zm32 0h16v16h-16zm32 16v-16h16v16zm32 0v-16h16v16zm32-16h16v16h-16zm-128-16v-80h144v80zm128-96v-16h16v16zm0-32v-32h16v32zm-144 0h-16v-32h16zm-96-32v32h-16v-32zm-176-16v-80h144v80zm48-112v16h-16v-16zm96 16h-16v-16h16zm-32 0h-16v-16h16zm-32 0h-16v-16h16zm-64-48h112v16h-112zm0 32v16h-16v-16zm-16 336h16v96h-16zm128 96v-96h16v96zm96 0h-16v-56c0-4.40625 3.59375-8 8-8s8 3.59375 8 8zm16 0v-56c0-13.230469-10.769531-24-24-24s-24 10.769531-24 24v56h-32v-96h112v96zm48-96h16v96h-16zm128 96v-96h16v96zm0 0"/><path d="m80.5 320v-48h-48v48zm-32-32h16v16h-16zm0 0"/><path d="m144.5 272h-48v48h48zm-16 32h-16v-16h16zm0 0"/><path d="m320.5 320h48v-48h-48zm16-32h16v16h-16zm0 0"/><path d="m384.5 272v48h48v-48zm32 32h-16v-16h16zm0 0"/><path d="m32.5 144h48v-48h-48zm16-32h16v16h-16zm0 0"/><path d="m96.5 96v48h48v-48zm32 32h-16v-16h16zm0 0"/><path d="m320.5 144h48v-48h-48zm16-32h16v16h-16zm0 0"/><path d="m384.5 96v48h48v-48zm32 32h-16v-16h16zm0 0"/></svg>