<svg height="512pt" viewBox="-37 0 512 512" width="512pt" xmlns="http://www.w3.org/2000/svg"><path d="m61.921875 25.621094h314.058594v270.039062h-314.058594zm0 0" fill="#f9b200"/><g fill="#f80"><path d="m251.332031 295.660156h-64.722656c5.882813-11.929687 18.179687-20.160156 32.363281-20.160156 14.179688 0 26.46875 8.230469 32.359375 20.160156zm0 0"/><path d="m92.5 287.289062v8.371094h-30.582031v-30.804687h8.148437c12.371094 0 22.433594 10.066406 22.433594 22.433593zm0 0"/><path d="m375.984375 264.855469v30.804687h-30.582031v-8.371094c0-12.367187 10.0625-22.433593 22.433594-22.433593zm0 0"/><path d="m92.5 25.621094v8.371094c0 12.371093-10.0625 22.433593-22.433594 22.433593h-8.148437v-30.804687zm0 0"/><path d="m375.984375 25.621094v30.804687h-8.148437c-12.371094 0-22.433594-10.0625-22.433594-22.433593v-8.371094zm0 0"/></g><path d="m92.511719 56.210938h252.878906v208.859374h-252.878906zm0 0" fill="#e3f4ff"/><path d="m243.242188 146.945312c0 26.695313-21.640626 48.335938-48.335938 48.335938-26.691406 0-48.332031-21.640625-48.332031-48.335938 0-26.691406 21.640625-48.332031 48.332031-48.332031 26.695312 0 48.335938 21.640625 48.335938 48.332031zm0 0" fill="#4e7693"/><path d="m345.390625 56.210938v110.796874l-127.042969-110.796874zm0 0" fill="#9be058"/><path d="m345.390625 56.210938v208.859374h-199.261719l111.828125-174.316406 22.160157-34.542968zm0 0" fill="#fc3e81"/><path d="m345.390625 56.210938v110.796874l-87.433594-76.253906 22.160157-34.542968zm0 0" fill="#43a3f9"/><path d="m80.261719 287.289062v16.300782c0 5.628906-4.5625 10.191406-10.191407 10.191406h-16.300781c-5.628906 0-10.1875-4.5625-10.1875-10.191406v-16.300782c0-3.277343 1.550781-6.1875 3.949219-8.058593 1.71875-1.332031 3.878906-2.128907 6.238281-2.128907h16.300781c5.628907 0 10.191407 4.558594 10.191407 10.1875zm0 0" fill="#ffdf46"/><path d="m67.621094 311.558594c0 .75-.019532 1.492187-.070313 2.222656h-13.78125c-5.628906 0-10.1875-4.5625-10.1875-10.191406v-16.300782c0-3.277343 1.550781-6.1875 3.949219-8.058593 11.890625 5.910156 20.089844 18.179687 20.089844 32.328125zm0 0" fill="#f9b200"/><path d="m394.320312 287.289062v16.300782c0 5.628906-4.558593 10.191406-10.1875 10.191406h-16.300781c-5.632812 0-10.191406-4.5625-10.191406-10.191406v-16.300782c0-5.628906 4.558594-10.1875 10.191406-10.1875h16.300781c2.359376 0 4.519532.796876 6.238282 2.128907 2.398437 1.871093 3.949218 4.78125 3.949218 8.058593zm0 0" fill="#ffdf46"/><path d="m394.320312 287.289062v16.300782c0 5.628906-4.558593 10.191406-10.1875 10.191406h-13.78125c-.050781-.730469-.070312-1.472656-.070312-2.222656 0-14.148438 8.191406-26.429688 20.089844-32.328125 2.398437 1.871093 3.949218 4.78125 3.949218 8.058593zm0 0" fill="#f9b200"/><path d="m70.066406 44.1875h-16.292968c-5.632813 0-10.199219-4.566406-10.199219-10.199219v-16.289062c0-5.632813 4.566406-10.199219 10.199219-10.199219h16.292968c5.632813 0 10.199219 4.566406 10.199219 10.199219v16.289062c0 5.632813-4.566406 10.199219-10.199219 10.199219zm0 0" fill="#ffdf46"/><path d="m384.128906 44.1875h-16.292968c-5.632813 0-10.199219-4.566406-10.199219-10.199219v-16.289062c0-5.632813 4.566406-10.199219 10.199219-10.199219h16.292968c5.632813 0 10.195313 4.566406 10.195313 10.199219v16.289062c0 5.632813-4.5625 10.199219-10.195313 10.199219zm0 0" fill="#ffdf46"/><path d="m187.199219 111.871094c0 12.953125-10.5 23.453125-23.453125 23.453125s-23.453125-10.5-23.453125-23.453125 10.5-23.453125 23.453125-23.453125 23.453125 10.5 23.453125 23.453125zm0 0" fill="#ffdf46"/><path d="m312.636719 383.914062c-39.070313 0-74.5-16.019531-90.269531-40.8125-3.773438-5.941406-2.023438-13.820312 3.917968-17.597656s13.816406-2.023437 17.597656 3.917969c11.027344 17.34375 38.660157 28.996094 68.753907 28.996094s57.722656-11.652344 68.753906-28.996094c3.777344-5.941406 11.65625-7.695313 17.597656-3.917969 5.941407 3.777344 7.691407 11.65625 3.914063 17.597656-15.765625 24.792969-51.199219 40.8125-90.265625 40.8125zm0 0" fill="#fc3e81"/><path d="m125.265625 383.914062c-39.070313 0-74.5-16.019531-90.269531-40.8125-3.773438-5.941406-2.023438-13.820312 3.917968-17.597656 5.941407-3.777344 13.816407-2.023437 17.597657 3.917969 11.027343 17.34375 38.660156 28.996094 68.753906 28.996094s57.722656-11.652344 68.753906-28.996094c3.777344-5.941406 11.65625-7.695313 17.597657-3.917969 5.941406 3.777344 7.691406 11.65625 3.914062 17.597656-15.765625 24.792969-51.199219 40.8125-90.265625 40.8125zm0 0" fill="#fc3e81"/><path d="m21.871094 322.304688h19.375v182.195312h-19.375zm0 0" fill="#9cc6db"/><path d="m55.621094 311.5625c0 13.285156-10.769532 24.058594-24.058594 24.058594s-24.058594-10.773438-24.058594-24.058594c0-13.289062 10.769532-24.0625 24.058594-24.0625s24.058594 10.773438 24.058594 24.0625zm0 0" fill="#ffdf46"/><path d="m7.53125 312.847656c.710938 13.265625 12.054688 23.453125 25.320312 22.742188 3.167969-.167969 6.148438-.941406 8.859376-2.210938-9.019532-3.082031-15.714844-11.390625-16.257813-21.492187-.539063-10.101563 5.230469-19.070313 13.867187-23.097657-2.828124-.972656-5.875-1.421874-9.042968-1.253906-13.269532.710938-23.457032 12.042969-22.746094 25.3125zm0 0" fill="#f9b200"/><path d="m209.28125 322.304688h19.375v182.195312h-19.375zm0 0" fill="#9cc6db"/><path d="m243.027344 311.5625c0 13.285156-10.773438 24.058594-24.058594 24.058594-13.289062 0-24.0625-10.773438-24.0625-24.058594 0-13.289062 10.773438-24.0625 24.0625-24.0625 13.285156 0 24.058594 10.773438 24.058594 24.0625zm0 0" fill="#ffdf46"/><path d="m243.03125 311.558594c0 13.285156-10.777344 24.066406-24.066406 24.066406-3.171875 0-6.191406-.613281-8.964844-1.734375 8.84375-3.558594 15.082031-12.21875 15.082031-22.332031 0-10.117188-6.238281-18.765625-15.082031-22.324219 2.773438-1.121094 5.792969-1.734375 8.964844-1.734375 13.289062.003906 24.066406 10.769531 24.066406 24.058594zm0 0" fill="#f9b200"/><path d="m396.652344 322.304688h19.375v182.195312h-19.375zm0 0" fill="#9cc6db"/><path d="m430.398438 311.5625c0 13.285156-10.769532 24.058594-24.058594 24.058594-13.289063 0-24.0625-10.773438-24.0625-24.058594 0-13.289062 10.773437-24.0625 24.0625-24.0625 13.289062 0 24.058594 10.773438 24.058594 24.0625zm0 0" fill="#ffdf46"/><path d="m430.402344 311.558594c0 13.285156-10.777344 24.066406-24.066406 24.066406-3.171876 0-6.1875-.613281-8.964844-1.734375 8.84375-3.558594 15.082031-12.21875 15.082031-22.332031 0-10.117188-6.238281-18.765625-15.082031-22.324219 2.777344-1.121094 5.792968-1.734375 8.964844-1.734375 13.289062.003906 24.066406 10.769531 24.066406 24.058594zm0 0" fill="#f9b200"/><path d="m171.820312 33.117188h178.316407v.871093c0 9.761719 7.9375 17.699219 17.699219 17.699219h.644531v70.566406c0 4.140625 3.359375 7.5 7.5 7.5 4.144531 0 7.5-3.359375 7.5-7.5v-70.566406h.648437c9.757813 0 17.695313-7.9375 17.695313-17.695312v-16.296876c0-9.757812-7.9375-17.695312-17.695313-17.695312h-16.292968c-9.761719 0-17.699219 7.9375-17.699219 17.695312v.421876h-178.316407c-4.140624 0-7.5 3.359374-7.5 7.5 0 4.144531 3.359376 7.5 7.5 7.5zm193.316407-15.421876c0-1.484374 1.210937-2.695312 2.699219-2.695312h16.292968c1.484375 0 2.695313 1.210938 2.695313 2.695312v16.292969c0 1.488281-1.210938 2.699219-2.695313 2.699219h-16.292968c-1.488282 0-2.699219-1.210938-2.699219-2.699219zm0 0"/><path d="m92.511719 171.410156c-4.140625 0-7.5 3.359375-7.5 7.5v86.160156c0 4.144532 3.359375 7.5 7.5 7.5h252.878906c4.140625 0 7.5-3.355468 7.5-7.5v-208.859374c0-4.144532-3.359375-7.5-7.5-7.5h-252.878906c-4.140625 0-7.5 3.355468-7.5 7.5v90.042968c0 4.140625 3.359375 7.5 7.5 7.5 4.144531 0 7.5-3.359375 7.5-7.5v-82.542968h115.523437l32.613282 28.441406-11.414063 17.792968c-10.5-11.929687-25.554687-18.832031-41.828125-18.832031-2.59375 0-5.1875.191407-7.746094.546875-5.679687-6.570312-14.066406-10.742187-23.414062-10.742187-17.070313 0-30.957032 13.886719-30.957032 30.953125 0 8.035156 3.082032 15.363281 8.117188 20.871094-1.210938 4.621093-1.832031 9.386718-1.832031 14.203124 0 24.785157 16.542969 46.410157 39.648437 53.433594l-36.691406 57.191406h-42.019531v-78.65625c0-4.144531-3.355469-7.503906-7.5-7.503906zm245.378906-20.894531-70.125-61.15625 16.453125-25.648437h53.671875zm-99.535156-86.804687h28.039062l-10.058593 15.679687zm-74.609375 32.203124c8.796875 0 15.953125 7.160157 15.953125 15.957032s-7.15625 15.953125-15.953125 15.953125-15.957032-7.15625-15.957032-15.953125 7.160157-15.957032 15.957032-15.957032zm-9.671875 51.03125c0-1.863281.132812-3.714843.378906-5.546874 2.933594.925781 6.054687 1.425781 9.289063 1.425781 17.070312 0 30.957031-13.886719 30.957031-30.953125 0-1.960938-.191407-3.878906-.542969-5.738282.25-.003906.5-.019531.75-.019531 13.367188 0 25.609375 6.367188 33.277344 17.160157l-40.921875 63.789062c-19.050781-3.609375-33.1875-20.519531-33.1875-40.117188zm105.5-44.824218 78.316406 68.296875v87.152343h-178.039063zm0 0"/><path d="m223.160156 202.046875c-.03125 0-.0625 0-.09375 0-4.140625.050781-7.457031 3.488281-7.40625 7.628906.050782 4.109375 3.394532 7.410157 7.496094 7.410157h.09375c4.140625-.050782 7.457031-3.449219 7.40625-7.59375v-.078126c-.050781-4.109374-3.394531-7.367187-7.496094-7.367187zm0 0"/><path d="m223.160156 225.292969c-.03125 0-.0625.003906-.09375.003906-4.144531.050781-7.460937 3.488281-7.40625 7.628906.050782 4.109375 3.398438 7.410157 7.496094 7.410157.03125 0 .0625 0 .09375-.003907 4.144531-.050781 7.460938-3.449219 7.40625-7.589843v-.082032c-.050781-4.105468-3.398438-7.367187-7.496094-7.367187zm0 0"/><path d="m243.027344 202.046875c-4.144532 0-7.5 3.394531-7.5 7.539063 0 4.140624 3.355468 7.5 7.5 7.5 4.144531 0 7.5-3.359376 7.5-7.5v-.082032c0-4.140625-3.359375-7.457031-7.5-7.457031zm0 0"/><path d="m243.027344 225.296875c-4.144532 0-7.5 3.394531-7.5 7.539063 0 4.140624 3.355468 7.5 7.5 7.5 4.144531 0 7.5-3.359376 7.5-7.5v-.082032c0-4.140625-3.359375-7.457031-7.5-7.457031zm0 0"/><path d="m262.894531 202.046875c-4.140625 0-7.5 3.394531-7.5 7.539063 0 4.140624 3.359375 7.5 7.5 7.5 4.144531 0 7.5-3.359376 7.5-7.5v-.082032c0-4.140625-3.355469-7.457031-7.5-7.457031zm0 0"/><path d="m262.894531 225.296875c-4.140625 0-7.5 3.394531-7.5 7.539063 0 4.140624 3.359375 7.5 7.5 7.5 4.144531 0 7.5-3.359376 7.5-7.5v-.082032c0-4.140625-3.355469-7.457031-7.5-7.457031zm0 0"/><path d="m121.101562 203.09375h16.175782c4.140625 0 7.5-3.359375 7.5-7.5 0-4.144531-3.359375-7.5-7.5-7.5h-16.175782c-4.140624 0-7.5 3.355469-7.5 7.5 0 4.140625 3.359376 7.5 7.5 7.5zm0 0"/><path d="m121.101562 221.179688h16.175782c4.140625 0 7.5-3.355469 7.5-7.5 0-4.144532-3.359375-7.5-7.5-7.5h-16.175782c-4.140624 0-7.5 3.355468-7.5 7.5 0 4.144531 3.359376 7.5 7.5 7.5zm0 0"/><path d="m121.101562 239.265625h16.175782c4.140625 0 7.5-3.355469 7.5-7.5 0-4.140625-3.359375-7.5-7.5-7.5h-16.175782c-4.140624 0-7.5 3.359375-7.5 7.5 0 4.144531 3.359376 7.5 7.5 7.5zm0 0"/><path d="m437.898438 311.5625c0-17.402344-14.15625-31.558594-31.558594-31.558594-2 0-3.957032.191406-5.855469.550782-2.65625-6.425782-8.984375-10.957032-16.355469-10.957032h-.648437v-114.683594c0-4.144531-3.355469-7.5-7.5-7.5-4.140625 0-7.5 3.355469-7.5 7.5v114.683594h-.644531c-9.757813 0-17.695313 7.9375-17.695313 17.695313v.871093h-110.019531c-5.597656-5.070312-13.023438-8.160156-21.152344-8.160156-8.132812 0-15.554688 3.089844-21.15625 8.160156h-110.046875v-.871093c0-9.757813-7.941406-17.695313-17.699219-17.695313h-.644531v-217.910156h.644531c9.757813 0 17.699219-7.9375 17.699219-17.695312v-.875h51.394531c4.144532 0 7.5-3.355469 7.5-7.5 0-4.140626-3.355468-7.5-7.5-7.5h-51.394531v-.417969c0-9.761719-7.941406-17.699219-17.699219-17.699219h-16.292968c-9.757813 0-17.695313 7.9375-17.695313 17.695312v16.292969c0 9.761719 7.9375 17.699219 17.695313 17.699219h.648437v217.90625h-.648437c-7.375 0-13.699219 4.535156-16.355469 10.960938-1.898438-.359376-3.855469-.554688-5.859375-.554688-17.402344 0-31.558594 14.15625-31.558594 31.5625 0 11.066406 5.730469 20.8125 14.375 26.449219v166.488281c0 4.144531 3.355469 7.5 7.5 7.5 4.140625 0 7.5-3.355469 7.5-7.5v-161.464844c.722656.050782 1.449219.085938 2.183594.085938.738281 0 1.464844-.035156 2.191406-.085938v161.464844c0 4.144531 3.355469 7.5 7.5 7.5 4.140625 0 7.5-3.355469 7.5-7.5v-136.253906c19.785156 14.683594 47.289062 23.167968 76.515625 23.167968 29.242187 0 56.734375-8.480468 76.515625-23.164062v136.25c0 4.144531 3.359375 7.5 7.5 7.5 4.144531 0 7.5-3.355469 7.5-7.5v-161.464844c.726562.050782 1.453125.085938 2.1875.085938.738281 0 1.464844-.035156 2.191406-.085938v161.464844c0 4.144531 3.355469 7.5 7.5 7.5 4.140625 0 7.5-3.355469 7.5-7.5v-136.222656c19.78125 14.660156 47.269532 23.136718 76.476563 23.136718 29.242187 0 56.734375-8.480468 76.519531-23.164062v136.25c0 4.144531 3.355469 7.5 7.5 7.5s7.5-3.355469 7.5-7.5v-161.464844c.722656.050782 1.449219.085938 2.1875.085938.734375 0 1.464844-.035156 2.1875-.085938v161.464844c0 4.144531 3.355469 7.5 7.5 7.5s7.5-3.355469 7.5-7.5v-166.492188c8.640625-5.636718 14.367188-15.382812 14.367188-26.445312zm-386.824219-277.574219v-16.292969c0-1.484374 1.210937-2.695312 2.699219-2.695312h16.292968c1.488282 0 2.695313 1.210938 2.695313 2.695312v16.292969c0 1.488281-1.207031 2.699219-2.695313 2.699219h-16.292968c-1.488282 0-2.699219-1.210938-2.699219-2.699219zm314.0625 253.304688c0-1.488281 1.210937-2.695313 2.699219-2.695313h16.292968c1.324219 0 2.425782.960938 2.648438 2.226563-5.988282 4.746093-10.21875 11.613281-11.546875 19.460937h-7.394531c-1.488282 0-2.695313-1.210937-2.695313-2.699218v-16.292969zm2.699219 33.988281h8.480468c.183594.566406.386719 1.125.597656 1.671875-.667968.769531-1.296874 1.570313-1.851562 2.441406-9.554688 15.027344-35.226562 25.523438-62.425781 25.523438s-52.871094-10.496094-62.425781-25.519531c-.546876-.863282-1.171876-1.660157-1.832032-2.417969 1.382813-3.542969 2.148438-7.394531 2.148438-11.417969 0-2.910156-.40625-5.722656-1.144532-8.398438h100.753907v.421876c0 9.757812 7.9375 17.695312 17.699219 17.695312zm-179.285157-18.117188c-.738281 2.675782-1.144531 5.488282-1.144531 8.398438 0 4.015625.765625 7.855469 2.140625 11.390625-.671875.769531-1.300781 1.570313-1.855469 2.441406-9.554687 15.027344-35.226562 25.523438-62.425781 25.523438s-52.871094-10.496094-62.425781-25.519531c-.554688-.875-1.1875-1.679688-1.855469-2.445313.210937-.550781.414063-1.105469.59375-1.671875h8.488281c9.757813 0 17.699219-7.9375 17.699219-17.695312v-.421876zm-134.777343-18.566406h16.292968c1.488282 0 2.699219 1.207032 2.699219 2.695313v16.292969c0 1.488281-1.210937 2.695312-2.699219 2.695312h-7.398437c-1.324219-7.84375-5.554688-14.710938-11.542969-19.457031.222656-1.261719 1.320312-2.226563 2.648438-2.226563zm-38.773438 26.964844c0-9.132812 7.429688-16.558594 16.558594-16.558594 9.132812 0 16.558594 7.425782 16.558594 16.558594 0 9.128906-7.425782 16.558594-16.558594 16.558594-9.128906 0-16.558594-7.429688-16.558594-16.558594zm186.78125 36.84375c-16.972656 17.546875-45.480469 28.007812-76.515625 28.007812-31.019531 0-59.542969-10.460937-76.519531-28.007812v-10.398438c1.058594-.6875 2.070312-1.433593 3.03125-2.238281 13.214844 18.128907 42.25 30.148438 73.488281 30.148438s60.269531-12.015625 73.484375-30.148438c.960938.804688 1.976562 1.550781 3.03125 2.242188zm.625-36.84375c0-9.132812 7.429688-16.558594 16.5625-16.558594 9.128906 0 16.558594 7.425782 16.558594 16.558594 0 9.128906-7.429688 16.558594-16.558594 16.558594-9.132812 0-16.5625-7.429688-16.5625-16.558594zm186.746094 36.839844c-16.972656 17.554687-45.476563 28.011718-76.515625 28.011718-30.996094 0-59.5-10.445312-76.480469-27.972656v-10.433594c1.046875-.683593 2.054688-1.421874 3.007812-2.21875 13.21875 18.121094 42.246094 30.128907 73.472657 30.128907 31.238281 0 60.273437-12.015625 73.484375-30.148438.964844.808594 1.976562 1.554688 3.03125 2.242188zm.628906-36.839844c0-9.132812 7.429688-16.558594 16.558594-16.558594 9.132812 0 16.558594 7.425782 16.558594 16.558594 0 9.128906-7.425782 16.558594-16.558594 16.558594-9.128906 0-16.558594-7.429688-16.558594-16.558594zm0 0"/></svg>