<svg height="512pt" viewBox="0 -25 512 512" width="512pt" xmlns="http://www.w3.org/2000/svg"><path d="m326.160156 91.832031h-171.75c-5.523437 0-10-4.476562-10-10v-53.707031c0-5.523438 4.476563-10 10-10h137.039063c3.394531 0 6.558593 1.722656 8.398437 4.574219l34.710938 53.703125c4.300781 6.65625-.476563 15.429687-8.398438 15.429687zm0 0" fill="#fd6096"/><path d="m209.25 81.207031h-171.75c-5.523438 0-10-4.476562-10-10v-53.707031c0-5.523438 4.476562-10 10-10h137.039062c3.394532 0 6.558594 1.722656 8.398438 4.570312l34.710938 53.707032c4.300781 6.652344-.476563 15.429687-8.398438 15.429687zm0 0" fill="#9be058"/><path d="m504.5 59.292969v320.347656c0 5.519531-4.480469 10-10 10h-477c-5.519531 0-10-4.480469-10-10v-320.347656c0-5.519531 4.480469-10 10-10h477c5.519531 0 10 4.480469 10 10zm0 0" fill="#edb48a"/><path d="m485.320312 163.3125v226.328125h-461.832031v-13.089844c0-12.140625 9.871094-22 22-22h106.871094v-191.238281c0-12.140625 9.871094-22 22-22h288.960937c12.128907 0 22 9.859375 22 22zm0 0" fill="#e29c6d"/><path d="m504.5 59.292969v320.347656c0 5.519531-4.480469 10-10 10h-36.730469c5.519531 0 10-4.480469 10-10v-320.347656c0-5.519531-4.480469-10-10-10h36.730469c5.519531 0 10 4.480469 10 10zm0 0" fill="#e29c6d"/><path d="m164.359375 163.308594v291.097656h246.515625c34.488281 0 62.445312-27.957031 62.445312-62.445312v-228.652344c0-5.523438-4.476562-10-10-10h-288.960937c-5.519531 0-10 4.476562-10 10zm0 0" fill="#64bdff"/><path d="m473.320312 163.3125v228.648438c0 34.488281-27.960937 62.441406-62.441406 62.441406h-19.339844c34.492188 0 62.449219-27.953125 62.449219-62.441406v-228.648438c0-5.53125-4.476562-10-10-10h19.332031c5.519532 0 10 4.46875 10 10zm0 0" fill="#43a3f9"/><path d="m334.472656 366.546875c5.519532 0 10 4.476563 10 10v15.417969c0 34.484375 27.953125 62.4375 62.4375 62.4375h-308.980468c-34.484376 0-62.445313-27.957032-62.445313-62.441406v-15.414063c0-5.523437 4.480469-10 10-10zm0 0" fill="#1685fb"/><path d="m350 211.464844h81.253906v27.226562h-81.253906zm0 0" fill="#9be058"/><path d="m7.5 130.125c4.140625 0 7.5-3.359375 7.5-7.5v-63.332031c0-1.378907 1.121094-2.5 2.5-2.5h340.753906c4.144532 0 7.5-3.359375 7.5-7.5 0-4.144531-3.355468-7.5-7.5-7.5h-37.136718l-14.96875-23.164063c-3.238282-5.011718-8.734376-8.003906-14.699219-8.003906h-100.515625l-1.695313-2.625c-3.238281-5.007812-8.734375-8-14.699219-8h-137.039062c-9.648438 0-17.5 7.851562-17.5 17.5v24.292969h-2.5c-9.648438 0-17.5 7.847656-17.5 17.5v63.332031c0 4.140625 3.359375 7.5 7.5 7.5zm283.949219-104.5c.851562 0 1.636719.429688 2.101562 1.144531l9.707031 15.023438h-92.179687l-10.449219-16.167969zm-256.449219-8.125c0-1.378906 1.121094-2.5 2.5-2.5h137.039062c.855469 0 1.640626.425781 2.101563 1.144531l16.578125 25.648438h-158.21875zm0 0"/><path d="m494.5 41.792969h-103.585938c-4.140624 0-7.5 3.355469-7.5 7.5 0 4.140625 3.359376 7.5 7.5 7.5h103.585938c1.378906 0 2.5 1.121093 2.5 2.5v320.347656c0 1.378906-1.121094 2.5-2.5 2.5h-13.679688v-218.832031c0-9.652344-7.851562-17.5-17.5-17.5h-201.398437c-4.144531 0-7.5 3.355468-7.5 7.5 0 4.140625 3.355469 7.5 7.5 7.5h201.398437c1.378907 0 2.5 1.121094 2.5 2.5v228.652344c0 30.296874-24.644531 54.941406-54.941406 54.941406h-3.96875c-30.292968 0-54.9375-24.644532-54.9375-54.9375v-15.417969c0-9.648437-7.851562-17.5-17.5-17.5h-162.613281v-195.738281c0-1.378906 1.121094-2.5 2.5-2.5h54.902344c4.140625 0 7.5-3.359375 7.5-7.5 0-4.144532-3.359375-7.5-7.5-7.5h-54.902344c-9.648437 0-17.5 7.847656-17.5 17.5v195.738281h-111.375c-9.648437 0-17.5 7.851563-17.5 17.5v5.589844h-10.484375c-1.378906 0-2.5-1.121094-2.5-2.5v-224.351563c0-4.144531-3.359375-7.5-7.5-7.5s-7.5 3.355469-7.5 7.5v224.351563c0 9.648437 7.851562 17.5 17.5 17.5h10.699219c2.660156 36.15625 32.90625 64.765625 69.730469 64.765625h312.949218c36.820313 0 67.070313-28.609375 69.730469-64.765625h13.890625c9.648438 0 17.5-7.851563 17.5-17.5v-320.34375c0-9.652344-7.851562-17.5-17.5-17.5zm-396.570312 405.109375c-30.296876 0-54.945313-24.644532-54.945313-54.941406v-15.414063c0-1.378906 1.125-2.5 2.5-2.5h288.984375c1.378906 0 2.5 1.121094 2.5 2.5v15.417969c0 22.257812 10.453125 42.121094 26.707031 54.9375zm0 0"/><path d="m209.042969 279.046875h15.175781c4.140625 0 7.5-3.355469 7.5-7.5 0-4.140625-3.359375-7.5-7.5-7.5h-15.175781c-4.140625 0-7.5 3.359375-7.5 7.5 0 4.144531 3.359375 7.5 7.5 7.5zm0 0"/><path d="m240.734375 271.546875c0 4.144531 3.359375 7.5 7.5 7.5h183.019531c4.144532 0 7.5-3.355469 7.5-7.5 0-4.140625-3.355468-7.5-7.5-7.5h-183.019531c-4.140625 0-7.5 3.359375-7.5 7.5zm0 0"/><path d="m431.253906 289.046875h-222.210937c-4.140625 0-7.5 3.359375-7.5 7.5 0 4.144531 3.359375 7.5 7.5 7.5h222.210937c4.140625 0 7.5-3.355469 7.5-7.5 0-4.140625-3.359375-7.5-7.5-7.5zm0 0"/><path d="m431.253906 314.046875h-222.210937c-4.140625 0-7.5 3.359375-7.5 7.5 0 4.144531 3.359375 7.5 7.5 7.5h222.210937c4.140625 0 7.5-3.355469 7.5-7.5 0-4.140625-3.359375-7.5-7.5-7.5zm0 0"/><path d="m431.253906 246.191406c4.144532 0 7.5-3.355468 7.5-7.5v-27.226562c0-4.144532-3.355468-7.5-7.5-7.5h-81.253906c-4.144531 0-7.5 3.355468-7.5 7.5v27.226562c0 4.144532 3.355469 7.5 7.5 7.5zm-73.753906-27.226562h66.253906v12.226562h-66.253906zm0 0"/></svg>