<svg height="512pt" viewBox="0 -14 512.00012 512" width="512pt" xmlns="http://www.w3.org/2000/svg"><path d="m488.429688 465.371094h-101.40625l-29.992188-52.195313-33.988281-.339843c-3.324219-.03125-6.003907-2.738282-6.003907-6.0625v-44.210938h-20.707031c-3.265625 0-5.941406-2.578125-6.066406-5.839844-.527344-14.21875-.09375-51.371094 16.445313-77.355468.257812-.402344.511718-.796876.777343-1.191407 4.851563-7.3125 13.15625-14.085937 17.59375-19.476562h123.519531c2.648438 6.5625 4.429688 13.554687 5.183594 20.847656.703125 6.734375.535156 13.726563-.628906 20.851563l-14.992188 87.667968c-.242187 1.417969.070313 2.871094.875 4.0625zm0 0" fill="#fecbaa"/><path d="m488.433594 465.371094h-15.792969l-49.394531-73.246094c-.804688-1.1875-1.113282-2.640625-.875-4.058594l14.992187-87.671875c1.167969-7.125 1.332031-14.117187.632813-20.851562-.757813-7.289063-2.539063-14.28125-5.1875-20.847657h15.796875c2.648437 6.566407 4.429687 13.558594 5.179687 20.847657.707032 6.734375.535156 13.726562-.625 20.851562l-14.992187 87.671875c-.246094 1.417969.070312 2.875.875 4.058594zm0 0" fill="#ffae85"/><path d="m453.160156 300.398438-14.273437 83.453124c-.578125 3.375-4.027344 5.4375-7.273438 4.351563l-40.691406-13.644531c-2.46875-.828125-4.136719-3.144532-4.136719-5.753906v-76.617188h-20.382812c-1.457032 0-2.796875-.511719-3.839844-1.371094-1.363281-1.109375-2.226562-2.800781-2.226562-4.691406v-28.972656h87.625c5.585937 13.003906 7.71875 27.804687 5.199218 43.246094zm0 0" fill="#fedfc5"/><path d="m476.246094 435.140625c-12.441406 4.300781-65.835938 22.101563-102.113282 23.921875-3.222656.160156-5.742187 2.828125-5.742187 6.054688v4.40625c0 3.347656 2.71875 6.066406 6.066406 6.066406h123.976563c3.554687 0 6.332031-3.035156 6.046875-6.578125-.636719-7.964844-4.667969-21.742188-22.992188-33.25-1.570312-.984375-3.492187-1.226563-5.242187-.621094zm0 0" fill="#9be058"/><path d="m452.242188 272.945312h-140.898438c-18.152344 0-32.867188-14.71875-32.867188-32.871093v-30.320313c0-3.347656 2.714844-6.066406 6.066407-6.066406h122.179687c28.488282 0 51.585938 23.097656 51.585938 51.589844v11.601562c0 3.347656-2.714844 6.066406-6.066406 6.066406zm0 0" fill="#ffeb96"/><path d="m23.570312 465.371094h101.40625l29.992188-52.195313 33.988281-.339843c3.324219-.03125 6.003907-2.738282 6.003907-6.0625v-44.210938h20.707031c3.265625 0 5.941406-2.578125 6.066406-5.839844.527344-14.21875.09375-51.371094-16.445313-77.355468-.257812-.402344-.511718-.796876-.777343-1.191407-4.851563-7.3125-13.15625-14.085937-17.59375-19.476562h-123.519531c-2.648438 6.5625-4.429688 13.554687-5.183594 20.847656-.703125 6.734375-.535156 13.726563.628906 20.851563l14.992188 87.667968c.242187 1.417969-.070313 2.871094-.875 4.0625zm0 0" fill="#c97f4c"/><path d="m23.566406 465.371094h15.792969l49.394531-73.246094c.804688-1.1875 1.113282-2.640625.875-4.058594l-14.992187-87.671875c-1.167969-7.125-1.332031-14.117187-.632813-20.851562.757813-7.289063 2.539063-14.28125 5.1875-20.847657h-15.796875c-2.648437 6.566407-4.429687 13.558594-5.179687 20.847657-.703125 6.734375-.535156 13.726562.628906 20.851562l14.988281 87.671875c.25 1.417969-.070312 2.875-.875 4.058594zm0 0" fill="#aa6344"/><path d="m58.839844 300.398438 14.273437 83.453124c.578125 3.375 4.027344 5.4375 7.273438 4.351563l40.691406-13.644531c2.46875-.828125 4.136719-3.144532 4.136719-5.753906v-76.617188h20.386718c1.453126 0 2.796876-.511719 3.839844-1.371094 1.359375-1.109375 2.222656-2.800781 2.222656-4.691406v-28.972656h-87.625c-5.585937 13.003906-7.714843 27.804687-5.199218 43.246094zm0 0" fill="#89b4c9"/><path d="m35.757812 435.140625c12.4375 4.300781 65.832032 22.101563 102.109376 23.921875 3.222656.160156 5.742187 2.828125 5.742187 6.054688v4.40625c0 3.347656-2.714844 6.066406-6.066406 6.066406h-123.976563c-3.554687 0-6.332031-3.035156-6.046875-6.578125.636719-7.964844 4.667969-21.742188 22.992188-33.25 1.570312-.984375 3.492187-1.226563 5.246093-.621094zm0 0" fill="#43a3f9"/><path d="m59.757812 272.945312h140.898438c18.152344 0 32.867188-14.71875 32.867188-32.871093v-30.320313c0-3.347656-2.714844-6.066406-6.066407-6.066406h-122.179687c-28.488282 0-51.585938 23.097656-51.585938 51.589844v11.601562c0 3.347656 2.71875 6.066406 6.066406 6.066406zm0 0" fill="#4e7693"/><path d="m38.5 17.5v118.976562c0 5.523438 4.476562 10 10 10h128.15625l41.40625 26.839844c6.652344 4.308594 15.4375-.464844 15.4375-8.394531v-147.421875c0-5.523438-4.476562-10-10-10h-175c-5.523438 0-10 4.476562-10 10zm0 0" fill="#43a3f9"/><path d="m473.476562 17.5v118.976562c0 5.523438-4.480468 10-10 10h-128.15625l-41.40625 26.839844c-6.652343 4.308594-15.4375-.464844-15.4375-8.394531v-147.421875c0-5.523438 4.476563-10 10-10h175c5.519532 0 10 4.476562 10 10zm0 0" fill="#9be058"/><path d="m511.957031 468.414062c-.703125-8.800781-5.082031-25.566406-26.484375-39.003906-3.523437-2.210937-7.78125-2.707031-11.679687-1.355468-.351563.121093-.753907.257812-1.203125.410156l-26.898438-39.890625 14.867188-86.972657c1.335937-8.171874 1.496094-16.375.5-24.433593 2.902344-2.492188 4.75-6.175781 4.75-10.289063v-11.605468c0-32.578126-26.507813-59.085938-59.089844-59.085938h-122.175781c-7.480469 0-13.566407 6.085938-13.566407 13.566406v30.320313c0 17.792969 11.578126 32.925781 27.589844 38.285156-15.792968 27.351563-16.34375 63.722656-15.789062 78.640625.269531 7.324219 6.226562 13.0625 13.554687 13.0625h13.207031v36.707031c0 7.402344 6.023438 13.488281 13.429688 13.566407l29.699219.296874 18.070312 31.445313c-5.707031 1.617187-9.847656 6.851563-9.847656 13.035156v4.40625c0 7.480469 6.085937 13.566407 13.566406 13.566407h123.980469c3.773438 0 7.402344-1.589844 9.960938-4.359376 2.5625-2.777343 3.859374-6.535156 3.558593-10.3125zm-66.191406-169.28125-13.894531 81.246094-37.589844-12.605468v-75.585938c0-4.140625-3.355469-7.5-7.5-7.5h-18.945312v-4.242188h78.492187c.632813 6.183594.453125 12.457032-.5625 18.6875zm-159.792969-59.058593v-28.886719h120.746094c24.3125 0 44.089844 19.777344 44.089844 44.085938v10.171874h-139.464844c-13.988281 0-25.371094-11.378906-25.371094-25.371093zm71.136719 165.605469-32.570313-.328126v-10.035156c1.925782-.066406 4.089844-.207031 6.382813-.460937 11.214844-1.261719 19.894531-4.648438 25.792969-10.070313 5.554687-5.105468 8.492187-11.996094 8.492187-19.929687 0-4.144531-3.359375-7.5-7.5-7.5-4.144531 0-7.5 3.355469-7.5 7.5 0 3.769531-1.152343 6.589843-3.628906 8.871093-5.183594 4.78125-14.890625 6.289063-22.039063 6.597657v-17.757813c0-4.144531-3.359374-7.503906-7.5-7.503906h-19.320312c-.4375-15.082031.507812-49.410156 16.015625-72.738281.402344-.605469.851563-1.230469 1.347656-1.878907h37.753907v5.679688c0 4.09375 1.816406 7.921875 4.957031 10.480469 2.414062 1.988281 5.46875 3.085937 8.605469 3.085937h12.882812v69.113282c0 5.835937 3.71875 11.003906 9.257812 12.867187l40.691407 13.640625c1.101562.371094 2.234375.582031 3.375.648438.074219.121093.136719.242187.21875.363281l24.941406 36.988281c-17.988281 5.640625-46.496094 13.761719-70.746094 16.996094l-23.484375-40.867188c-1.324218-2.304687-3.769531-3.734375-6.425781-3.761718zm18.78125 62.40625v-1.609376c36.089844-2.164062 86.382813-18.597656 102.148437-24.019531 13.617188 8.730469 17.820313 18.484375 18.800782 25.628907zm0 0"/><path d="m227.460938 196.1875h-75.980469c-4.140625 0-7.5 3.359375-7.5 7.5 0 4.144531 3.359375 7.5 7.5 7.5h74.546875v28.886719c0 13.988281-11.378906 25.371093-25.371094 25.371093h-139.464844v-10.167968c0-24.3125 19.777344-44.089844 44.089844-44.089844h13.539062c4.140626 0 7.5-3.355469 7.5-7.5 0-4.140625-3.359374-7.5-7.5-7.5h-13.539062c-32.582031 0-59.089844 26.507812-59.089844 59.089844v11.601562c0 4.109375 1.847656 7.792969 4.742188 10.285156-.992188 8.0625-.824219 16.273438.515625 24.496094l14.859375 86.914063-26.898438 39.894531c-.449218-.152344-.851562-.292969-1.203125-.414062-3.898437-1.351563-8.15625-.855469-11.683593 1.355468-21.398438 13.4375-25.773438 30.203125-26.4804692 39.003906-.3007808 3.773438.9960932 7.535157 3.5625002 10.3125 2.554687 2.769532 6.1875 4.359376 9.960937 4.359376h123.976563c7.480469 0 13.566406-6.085938 13.566406-13.5625v-4.40625c0-6.1875-4.136719-11.421876-9.847656-13.039063l18.070312-31.441406 29.703125-.300781c7.402344-.074219 13.425782-6.160157 13.425782-13.5625v-36.707032h13.207031c7.332031 0 13.285156-5.738281 13.558593-13.066406.554688-14.914062 0-51.285156-15.792968-78.640625 16.015625-5.355469 27.59375-20.488281 27.59375-38.285156v-30.316407c0-7.484374-6.085938-13.570312-13.566406-13.570312zm-161.789063 84.257812h78.492187v4.246094h-18.945312c-4.144531 0-7.5 3.355469-7.5 7.5v75.585938l-37.589844 12.601562-13.882812-81.191406c-1.023438-6.273438-1.203125-12.558594-.574219-18.742188zm70.4375 187.640626h-120.949219c.980469-7.144532 5.183594-16.898438 18.800782-25.628907 14.609374 5.023438 58.875 19.5 94.007812 23.316407.074219.007812.148438.015624.222656.023437 2.695313.289063 5.347656.523437 7.917969.679687zm78.171875-113.023438h-19.320312c-4.140626 0-7.5 3.359375-7.5 7.503906v17.757813c-7.148438-.308594-16.855469-1.816407-22.039063-6.59375-2.476563-2.285157-3.628906-5.105469-3.628906-8.875 0-4.140625-3.355469-7.5-7.5-7.5-4.140625 0-7.5 3.359375-7.5 7.5 0 7.933593 2.9375 14.824219 8.492187 19.933593 5.898438 5.421876 14.578125 8.808594 25.792969 10.066407 2.292969.257812 4.457031.394531 6.382813.460937v10.039063l-32.566407.324219c-2.660156.027343-5.105469 1.457031-6.429687 3.761718l-23.484375 40.863282c-24.25-3.230469-52.757813-11.351563-70.746094-16.992188l24.945313-36.992188c.078124-.117187.144531-.238281.21875-.359374 1.136718-.066407 2.269531-.277344 3.375-.648438l40.695312-13.644531c5.53125-1.859375 9.25-7.03125 9.25-12.863281v-69.117188h12.882812c3.136719 0 6.191407-1.09375 8.578126-3.058594 3.167968-2.585937 4.984374-6.414062 4.984374-10.503906v-5.683594h37.746094c.496094.648438.960938 1.285156 1.355469 1.878906 15.507813 23.332032 16.453125 57.664063 16.015625 72.742188zm0 0"/><path d="m170.558594 309.09375h-.078125c-4.140625 0-7.460938 3.359375-7.460938 7.5 0 4.144531 3.398438 7.5 7.539063 7.5s7.5-3.355469 7.5-7.5c0-4.140625-3.359375-7.5-7.5-7.5zm0 0"/><path d="m341.519531 309.09375h-.078125c-4.140625 0-7.460937 3.359375-7.460937 7.5 0 4.144531 3.398437 7.5 7.539062 7.5s7.5-3.355469 7.5-7.5c0-4.140625-3.359375-7.5-7.5-7.5zm0 0"/><path d="m48.5 153.980469h125.9375l39.542969 25.628906c2.890625 1.871094 6.199219 2.816406 9.519531 2.816406 2.867188 0 5.742188-.703125 8.355469-2.125 5.640625-3.066406 9.144531-8.957031 9.144531-15.378906v-147.421875c0-9.648438-7.851562-17.5-17.5-17.5h-175c-9.648438 0-17.5 7.851562-17.5 17.5v118.980469c0 9.648437 7.851562 17.5 17.5 17.5zm-2.5-136.480469c0-1.378906 1.121094-2.5 2.5-2.5h175c1.378906 0 2.5 1.121094 2.5 2.5v147.421875c0 1.296875-.816406 1.933594-1.304688 2.199219-.492187.265625-1.46875.605468-2.554687-.101563l-41.40625-26.835937c-1.214844-.785156-2.632813-1.207032-4.078125-1.207032h-128.15625c-1.378906 0-2.5-1.121093-2.5-2.5zm0 0"/><path d="m280.117188 180.300781c2.617187 1.421875 5.488281 2.125 8.359374 2.125 3.316407 0 6.628907-.945312 9.515626-2.816406l39.546874-25.632813h48.269532c4.140625 0 7.5-3.355468 7.5-7.5 0-4.140624-3.359375-7.5-7.5-7.5h-50.488282c-1.449218 0-2.863281.421876-4.078124 1.207032l-41.40625 26.839844c-1.085938.703124-2.066407.363281-2.554688.097656s-1.304688-.902344-1.304688-2.195313v-147.425781c0-1.378906 1.121094-2.5 2.5-2.5h104.832032c4.140625 0 7.5-3.355469 7.5-7.5s-3.359375-7.5-7.5-7.5h-104.835938c-9.648437 0-17.5 7.851562-17.5 17.5v147.421875c0 6.421875 3.503906 12.3125 9.144532 15.378906zm0 0"/><path d="m425.964844 15h37.511718c1.375 0 2.5 1.121094 2.5 2.5v118.976562c0 1.378907-1.125 2.5-2.5 2.5h-45.007812c-4.144531 0-7.5 3.359376-7.5 7.5 0 4.144532 3.355469 7.5 7.5 7.5h45.007812c9.648438 0 17.5-7.851562 17.5-17.5v-118.976562c0-9.648438-7.851562-17.5-17.5-17.5h-37.511718c-4.140625 0-7.5 3.355469-7.5 7.5s3.359375 7.5 7.5 7.5zm0 0"/><path d="m73.382812 60.925781h15.175782c4.144531 0 7.5-3.355469 7.5-7.5 0-4.140625-3.355469-7.5-7.5-7.5h-15.175782c-4.140624 0-7.5 3.359375-7.5 7.5 0 4.144531 3.359376 7.5 7.5 7.5zm0 0"/><path d="m112.574219 60.925781h86.074219c4.144531 0 7.5-3.355469 7.5-7.5 0-4.140625-3.355469-7.5-7.5-7.5h-86.074219c-4.140625 0-7.5 3.359375-7.5 7.5 0 4.144531 3.359375 7.5 7.5 7.5zm0 0"/><path d="m73.382812 85.925781h125.265626c4.140624 0 7.5-3.355469 7.5-7.5 0-4.140625-3.359376-7.5-7.5-7.5h-125.265626c-4.140624 0-7.5 3.359375-7.5 7.5 0 4.144531 3.359376 7.5 7.5 7.5zm0 0"/><path d="m73.382812 110.925781h125.265626c4.140624 0 7.5-3.355469 7.5-7.5 0-4.140625-3.359376-7.5-7.5-7.5h-125.265626c-4.140624 0-7.5 3.359375-7.5 7.5 0 4.144531 3.359376 7.5 7.5 7.5zm0 0"/><path d="m313.351562 60.925781h15.175782c4.140625 0 7.5-3.355469 7.5-7.5 0-4.140625-3.359375-7.5-7.5-7.5h-15.175782c-4.140624 0-7.5 3.359375-7.5 7.5 0 4.144531 3.359376 7.5 7.5 7.5zm0 0"/><path d="m438.617188 60.925781c4.140624 0 7.5-3.355469 7.5-7.5 0-4.140625-3.359376-7.5-7.5-7.5h-86.074219c-4.144531 0-7.5 3.359375-7.5 7.5 0 4.144531 3.355469 7.5 7.5 7.5zm0 0"/><path d="m313.351562 85.925781h125.265626c4.140624 0 7.5-3.355469 7.5-7.5 0-4.140625-3.359376-7.5-7.5-7.5h-125.265626c-4.140624 0-7.5 3.359375-7.5 7.5 0 4.144531 3.359376 7.5 7.5 7.5zm0 0"/><path d="m313.351562 110.925781h125.265626c4.140624 0 7.5-3.355469 7.5-7.5 0-4.140625-3.359376-7.5-7.5-7.5h-125.265626c-4.140624 0-7.5 3.359375-7.5 7.5 0 4.144531 3.359376 7.5 7.5 7.5zm0 0"/></svg>