<svg height="512pt" viewBox="0 -21 512.00013 512" width="512pt" xmlns="http://www.w3.org/2000/svg"><path d="m465.058594 27.824219v345.199219c0 5.519531-4.480469 10-10 10h-437.558594c-5.519531 0-10-4.480469-10-10v-345.199219c0-11.21875 9.101562-20.320313 20.320312-20.320313h416.917969c11.222657 0 20.320313 9.101563 20.320313 20.320313zm0 0" fill="#e3f4ff"/><path d="m465.058594 361.253906v11.769532c0 5.519531-4.480469 10-10 10h-93.171875l-23.648438-23.652344c-6.921875-6.917969-8.019531-17.46875-3.351562-25.570313l-27.398438-27.390625c-25.351562 17.390625-55.3125 26.753906-86.722656 26.753906-41.070313 0-79.671875-15.992187-108.714844-45.023437-59.941406-59.941406-59.941406-157.484375 0-217.425781 29.042969-29.027344 67.644531-45.019532 108.714844-45.019532 41.058594 0 79.671875 15.992188 108.703125 45.019532 29.039062 29.042968 45.027344 67.652344 45.027344 108.714844 0 31.410156-9.359375 61.371093-26.757813 86.730468l27.390625 27.382813c3.1875-1.839844 6.808594-2.851563 10.589844-2.851563 5.660156 0 10.988281 2.210938 14.988281 6.21875zm0 0" fill="#bddff4"/><path d="m465.058594 27.824219v345.199219c0 5.519531-4.480469 10-10 10h-21.871094c5.523438 0 10.003906-4.480469 10.003906-10v-345.199219c0-11.21875-9.101562-20.320313-20.324218-20.320313h21.871093c11.222657 0 20.320313 9.101563 20.320313 20.320313zm0 0" fill="#bddff4"/><path d="m465.058594 27.824219v34.980469h-457.558594v-34.980469c0-11.230469 9.101562-20.320313 20.320312-20.320313h416.917969c11.222657 0 20.320313 9.101563 20.320313 20.320313zm0 0" fill="#9be058"/><path d="m320.945312 62.804688h-200.371093c27.867187-24.007813 63.019531-37.109376 100.191406-37.109376 37.160156 0 72.320313 13.101563 100.179687 37.109376zm0 0" fill="#1cc939"/><path d="m465.058594 27.824219v34.980469h-21.867188v-34.980469c0-11.21875-9.101562-20.320313-20.324218-20.320313h21.871093c11.222657 0 20.320313 9.101563 20.320313 20.320313zm0 0" fill="#1cc939"/><path d="m299.265625 281.214844 23.277344-23.28125 64.171875 64.171875-23.28125 23.277343zm0 0" fill="#9be058"/><path d="m362.5 179.429688c0 78.277343-63.457031 141.734374-141.738281 141.734374-78.277344 0-141.734375-63.457031-141.734375-141.734374 0-78.28125 63.457031-141.738282 141.734375-141.738282 78.28125 0 141.738281 63.457032 141.738281 141.738282zm0 0" fill="#618baa"/><path d="m302.847656 261.507812c-.402344.398438-.800781.789063-1.203125 1.167969-22.707031 22.09375-52.21875 33.03125-81.667969 32.832031-7.542968-.039062-15.082031-.828124-22.492187-2.347656-21.230469-4.3125-41.480469-14.621094-58.050781-30.921875-.25-.230469-.5-.480469-.75-.730469-45.339844-45.332031-45.339844-118.832031 0-164.164062 45.332031-45.332031 118.832031-45.332031 164.164062 0 45.328125 45.332031 45.328125 118.832031 0 164.164062zm0 0" fill="#fc3e81"/><path d="m301.644531 160.886719v101.789062c-22.707031 22.09375-52.21875 33.03125-81.667969 32.832031-7.542968-.039062-15.082031-.828124-22.492187-2.347656v-132.273437c0-28.761719 23.320313-52.082031 52.082031-52.082031 14.378906 0 27.398438 5.828124 36.820313 15.25 9.429687 9.429687 15.257812 22.449218 15.257812 36.832031zm0 0" fill="#1cc939"/><path d="m301.644531 160.886719v101.789062c-8.558593 8.332031-18.089843 15.070313-28.21875 20.230469v-122.019531c0-14.382813-5.828125-27.402344-15.261719-36.832031-6.21875-6.21875-14-10.871094-22.710937-13.308594 4.492187-1.273438 9.222656-1.941406 14.113281-1.941406 14.378906 0 27.398438 5.828124 36.820313 15.25 9.429687 9.429687 15.257812 22.449218 15.257812 36.832031zm0 0" fill="#00ad00"/><path d="m219.976562 225.386719v70.121093c-7.542968-.039062-15.082031-.828124-22.492187-2.347656-21.230469-4.3125-41.480469-14.621094-58.050781-30.921875v-36.851562c0-22.242188 18.03125-40.269531 40.269531-40.269531 6.382813 0 12.421875 1.488281 17.78125 4.128906 3.980469 1.960937 7.589844 4.558594 10.699219 7.671875 7.28125 7.277343 11.792968 17.347656 11.792968 28.46875zm0 0" fill="#c0ff66"/><path d="m219.976562 225.386719v70.121093c-7.542968-.039062-15.082031-.828124-22.492187-2.347656-1.871094-.382812-3.730469-.8125-5.582031-1.28125v-66.492187c0-11.121094-4.507813-21.191407-11.789063-28.46875-3.109375-3.113281-6.71875-5.710938-10.699219-7.671875-1.21875-.601563-2.480468-1.140625-3.761718-1.621094 4.382812-1.617188 9.113281-2.507812 14.050781-2.507812 6.382813 0 12.421875 1.488281 17.78125 4.128906 3.980469 1.960937 7.589844 4.558594 10.699219 7.671875 7.28125 7.277343 11.792968 17.347656 11.792968 28.46875zm0 0" fill="#9be058"/><path d="m501.8125 427.996094-32.480469 32.480468c-3.59375 3.59375-9.425781 3.59375-13.019531 0l-109.585938-109.585937c-3.59375-3.59375-3.59375-9.421875 0-13.019531l32.480469-32.480469c3.59375-3.59375 9.421875-3.59375 13.019531 0l109.585938 109.585937c3.59375 3.597657 3.59375 9.425782 0 13.019532zm0 0" fill="#618baa"/><path d="m392.226562 305.386719 109.589844 109.589843c3.59375 3.59375 3.59375 9.425782 0 13.019532l-12.941406 12.941406c3.59375-3.59375 3.59375-9.425781 0-13.019531l-109.589844-109.585938c-3.59375-3.59375-9.425781-3.59375-13.019531 0l12.941406-12.941406c3.59375-3.59375 9.425781-3.59375 13.019531-.003906zm0 0" fill="#4e7693"/><path d="m283.816406 375.523438h-72.335937c-4.140625 0-7.5 3.355468-7.5 7.5 0 4.140624 3.359375 7.5 7.5 7.5h72.335937c4.144532 0 7.5-3.359376 7.5-7.5 0-4.144532-3.355468-7.5-7.5-7.5zm0 0"/><path d="m308.148438 92.042969c-48.183594-48.183594-126.585938-48.1875-174.773438 0-48.183594 48.183593-48.183594 126.585937 0 174.773437 24.09375 24.089844 55.742188 36.136719 87.386719 36.136719 31.648437 0 63.292969-12.046875 87.386719-36.136719 48.1875-48.1875 48.1875-126.589844 0-174.773437zm-164.164063 10.605469c21.167969-21.167969 48.972656-31.75 76.777344-31.75 27.804687 0 55.613281 10.582031 76.78125 31.75 38.027343 38.027343 41.890625 97.472656 11.605469 139.859374v-12.171874h1.359374c4.140626 0 7.5-3.355469 7.5-7.5 0-4.140626-3.359374-7.5-7.5-7.5h-1.359374v-12.574219h1.359374c4.140626 0 7.5-3.359375 7.5-7.5s-3.359374-7.5-7.5-7.5h-1.359374v-12.125h1.359374c4.140626 0 7.5-3.359375 7.5-7.5 0-4.144531-3.359374-7.5-7.5-7.5h-1.367187c-.066406-15.820313-6.253906-30.6875-17.453125-41.886719-4.777344-4.777344-10.230469-8.632812-16.136719-11.503906l1.976563-4.40625c1.699218-3.777344.007812-8.214844-3.769532-9.914063-3.777343-1.695312-8.214843-.007812-9.914062 3.769531l-2.582031 5.75c-3.8125-.753906-7.722657-1.140624-11.695313-1.140624-3.859375 0-7.628906.382812-11.285156 1.085937l-2.554688-5.695313c-1.699218-3.777343-6.136718-5.464843-9.917968-3.769531-3.777344 1.699219-5.464844 6.136719-3.769532 9.914063l1.914063 4.257812c-6.585937 3.152344-12.5 7.484375-17.480469 12.707032l-4.847656-3.21875c-3.453125-2.289063-8.105469-1.351563-10.398438 2.101562-2.292968 3.449219-1.351562 8.101562 2.097657 10.394531l4.21875 2.804688c-3.636719 6.5-6.085938 13.746093-7.066407 21.449219h-4.464843c-4.144531 0-7.5 3.359374-7.5 7.5 0 4.140624 3.355469 7.5 7.5 7.5h3.972656v10.398437c-3.347656-.734375-6.78125-1.117187-10.28125-1.117187-4.242187 0-8.359375.5625-12.277344 1.605468l-3.605469-5.261718c-2.34375-3.417969-7.011718-4.292969-10.425781-1.949219-3.417969 2.34375-4.289062 7.011719-1.949219 10.425781l2.074219 3.023438c-6.648437 4.375-12.148437 10.359374-15.929687 17.402343l-2.234375-.707031c-3.953125-1.242188-8.164063.953125-9.40625 4.902344-1.242188 3.949218.953125 8.164062 4.902343 9.40625l1.828126.574218c-.480469 2.714844-.746094 5.5-.746094 8.347657v16.496093c-29.804688-42.34375-25.789063-101.394531 12.050781-139.234374zm2.949219 122.738281c0-1.28125.082031-2.542969.226562-3.789063l2.75.867188c.75.234375 1.507813.347656 2.253906.347656 3.1875 0 6.144532-2.046875 7.152344-5.25 1.242188-3.953125-.949218-8.164062-4.902344-9.40625l-2.136718-.671875c2.527344-3.859375 5.84375-7.152344 9.71875-9.652344l1.878906 2.742188c1.453125 2.121093 3.804688 3.261719 6.195312 3.261719 1.460938 0 2.9375-.425782 4.234376-1.316407 3.195312-2.191406 4.164062-6.421875 2.351562-9.757812 1.003906-.09375 2.019531-.148438 3.046875-.148438 5.074219 0 9.941406 1.132813 14.46875 3.359375 1.644531.8125 3.210937 1.757813 4.695313 2.832032l-.554688.644531c-2.699219 3.144531-2.335938 7.878906.808594 10.578125 1.414062 1.214844 3.152344 1.808594 4.878906 1.808594 1.6875 0 3.363281-.578126 4.730469-1.6875 2.445312 4.640624 3.742187 9.839843 3.742187 15.238281v7.421875h-6.058594c-4.140624 0-7.5 3.359375-7.5 7.5 0 4.144531 3.359376 7.5 7.5 7.5h6.058594v13.6875h-6.058594c-4.140624 0-7.5 3.359375-7.5 7.5 0 4.144531 3.359376 7.5 7.5 7.5h6.058594v11.144531c-23.710937-1.800781-46.9375-11.335937-65.539062-28.605469zm80.542968 51.027343c3.628907-.523437 6.421876-3.640624 6.421876-7.414062 0-3.777344-2.792969-6.890625-6.421876-7.414062v-13.859376c3.628907-.523437 6.421876-3.636718 6.421876-7.414062s-2.792969-6.890625-6.421876-7.414062v-7.511719c0-9.816407-2.953124-19.175781-8.417968-27.078125l1.847656-2.152344c2.695312-3.144531 2.335938-7.878906-.808594-10.578125-3.144531-2.695313-7.878906-2.335937-10.574218.808594l-.867188 1.007812c-1.183594-.902343-2.410156-1.75-3.671875-2.535156v-16.523437h1.011719c4.140625 0 7.5-3.359376 7.5-7.5 0-4.144532-3.359375-7.5-7.5-7.5h-.359375c.816406-4.757813 2.378906-9.261719 4.578125-13.378907.757812.246094 1.535156.378907 2.3125.378907 2.425781 0 4.808594-1.179688 6.253906-3.351563 1.71875-2.59375 1.621094-5.863281 0-8.300781 3.375-3.226563 7.242188-5.9375 11.492188-7.984375 1.429687 1.921875 3.667968 3.039062 6.011718 3.039062 1.027344 0 2.070313-.214843 3.066406-.660156 2.628907-1.183594 4.242188-3.695313 4.410157-6.382813 1.902343-.25 3.835937-.390624 5.804687-.390624 2.105469 0 4.191406.152343 6.242188.4375.183594 2.671874 1.796875 5.160156 4.410156 6.332031.996094.449219 2.039062.660156 3.066406.660156 2.28125 0 4.46875-1.058594 5.902344-2.894531 4.347656 2.136718 8.367188 4.988281 11.894531 8.515625 8.363281 8.367187 12.992188 19.464843 13.058594 31.277343h-3.617187c-4.144532 0-7.5 3.359376-7.5 7.5 0 4.144532 3.355468 7.503907 7.5 7.503907h3.621093v12.125h-3.621093c-4.144532 0-7.5 3.355469-7.5 7.5 0 4.140625 3.355468 7.5 7.5 7.5h3.621093v12.574219h-3.621093c-4.144532 0-7.5 3.359374-7.5 7.5 0 4.140624 3.355468 7.5 7.5 7.5h3.621093v29.117187c-18.941406 17.386719-42.601562 26.816406-66.671875 28.292969v-11.332032zm0 0"/><path d="m507.113281 409.675781-34.679687-34.679687c.074218-.65625.125-1.3125.125-1.972656v-345.203126c0-15.339843-12.480469-27.820312-27.820313-27.820312h-116.261719c-4.140624 0-7.5 3.359375-7.5 7.5s3.359376 7.5 7.5 7.5h116.261719c7.070313 0 12.820313 5.75 12.820313 12.820312v27.484376h-153.925782c-49.964843-33.382813-115.777343-33.382813-165.742187 0h-122.890625v-27.484376c0-7.070312 5.75-12.820312 12.820312-12.820312h267.996094c4.140625 0 7.5-3.359375 7.5-7.5s-3.359375-7.5-7.5-7.5h-267.996094c-15.339843 0-27.820312 12.480469-27.820312 27.820312v345.203126c0 9.648437 7.851562 17.5 17.5 17.5h161.320312c4.140626 0 7.5-3.359376 7.5-7.5 0-4.144532-3.359374-7.5-7.5-7.5h-161.320312c-1.378906 0-2.5-1.125-2.5-2.5v-302.71875h103.972656c-1.257812 1.179687-2.507812 2.371093-3.734375 3.597656-58.1875 58.1875-58.1875 152.867187 0 211.054687 29.09375 29.089844 67.308594 43.640625 105.523438 43.640625 30.644531 0 61.277343-9.363281 87.21875-28.066406l32.773437 32.777344c-2.71875 3.058594-4.222656 6.945312-4.222656 11.074218 0 4.460938 1.738281 8.65625 4.890625 11.8125l19.328125 19.328126h-44.269531c-4.144531 0-7.5 3.359374-7.5 7.5 0 4.140624 3.355469 7.5 7.5 7.5h59.269531l75.257812 75.257812c3.15625 3.15625 7.351563 4.894531 11.8125 4.894531 4.464844 0 8.660157-1.738281 11.816407-4.894531l32.476562-32.480469c6.515625-6.515625 6.515625-17.113281 0-23.625zm-49.554687-339.371093v289.8125l-60.027344-60.027344c-6.277344-6.277344-16.335938-6.488282-22.890625-.667969l-32.773437-32.777344c42.027343-58.289062 36.84375-140.320312-15.578126-192.742187-1.226562-1.226563-2.476562-2.417969-3.734374-3.597656zm-331.714844 204.042968c-52.339844-52.339844-52.339844-137.5 0-189.839844 26.167969-26.167968 60.542969-39.253906 94.917969-39.253906s68.75 13.085938 94.921875 39.253906c52.339844 52.339844 52.339844 137.503907 0 189.839844-26.171875 26.171875-60.542969 39.257813-94.921875 39.253906-34.371094-.003906-68.753907-13.085937-94.917969-39.253906zm200.445312 10.609375c2.128907-2.128906 4.167969-4.3125 6.140626-6.535156l31.570312 31.570313-12.671875 12.671874-31.570313-31.566406c2.222657-1.972656 4.402344-4.015625 6.53125-6.140625zm25.242188 59.425781c0-.324218.085938-.792968.5-1.207031l32.480469-32.480469c.410156-.414062.882812-.5 1.207031-.5.320312 0 .792969.085938 1.207031.5l93.953125 93.953126-34.894531 34.890624-93.953125-93.953124c-.414062-.410157-.5-.882813-.5-1.203126zm144.976562 78.3125-32.480468 32.480469c-.410156.410157-.882813.5-1.203125.5-.324219 0-.792969-.089843-1.207031-.5l-5.027344-5.027343 34.894531-34.894532 5.023437 5.027344c.664063.664062.664063 1.746094 0 2.414062zm0 0"/><path d="m53.941406 28.191406c-.015625 0-.03125 0-.046875 0-4.140625.023438-7.480469 3.441406-7.453125 7.585938.027344 4.125 3.378906 7.453125 7.5 7.453125h.046875c4.140625-.027344 7.480469-3.40625 7.453125-7.546875v-.078125c-.027344-4.125-3.378906-7.414063-7.5-7.414063zm0 0"/><path d="m73.425781 28.191406c-.015625 0-.03125 0-.046875 0-4.140625.023438-7.476562 3.441406-7.453125 7.585938.027344 4.125 3.378907 7.453125 7.5 7.453125h.046875c4.144532-.027344 7.480469-3.40625 7.453125-7.546875v-.078125c-.027343-4.125-3.378906-7.414063-7.5-7.414063zm0 0"/><path d="m92.910156 28.191406c-.015625 0-.03125 0-.046875 0-4.140625.023438-7.480469 3.441406-7.453125 7.585938.027344 4.125 3.378906 7.453125 7.5 7.453125h.046875c4.140625-.027344 7.480469-3.40625 7.453125-7.546875v-.078125c-.027344-4.125-3.378906-7.414063-7.5-7.414063zm0 0"/><path d="m52.5625 312.117188h4.105469c4.140625 0 7.5-3.359376 7.5-7.5 0-4.144532-3.359375-7.5-7.5-7.5h-4.105469c-4.140625 0-7.5 3.355468-7.5 7.5 0 4.140624 3.359375 7.5 7.5 7.5zm0 0"/><path d="m100.097656 297.117188h-25.566406c-4.144531 0-7.5 3.355468-7.5 7.5 0 4.140624 3.355469 7.5 7.5 7.5h25.566406c4.140625 0 7.5-3.359376 7.5-7.5 0-4.144532-3.355468-7.5-7.5-7.5zm0 0"/><path d="m100.097656 316.933594h-47.535156c-4.140625 0-7.5 3.355468-7.5 7.5 0 4.140625 3.359375 7.5 7.5 7.5h47.535156c4.144532 0 7.5-3.359375 7.5-7.5 0-4.144532-3.355468-7.5-7.5-7.5zm0 0"/><path d="m100.097656 336.746094h-47.535156c-4.140625 0-7.5 3.359375-7.5 7.5 0 4.144531 3.359375 7.5 7.5 7.5h47.535156c4.144532 0 7.5-3.355469 7.5-7.5 0-4.140625-3.355468-7.5-7.5-7.5zm0 0"/><path d="m424.632812 256.71875c4.140626 0 7.5-3.355469 7.5-7.5v-154.582031c0-4.140625-3.359374-7.5-7.5-7.5-4.140624 0-7.5 3.359375-7.5 7.5v154.585937c0 4.140625 3.359376 7.496094 7.5 7.496094zm0 0"/><path d="m238.972656 149.335938c-4.140625 0-7.5 3.355468-7.5 7.5v11.09375c0 4.140624 3.359375 7.5 7.5 7.5s7.5-3.359376 7.5-7.5v-11.09375c0-4.144532-3.359375-7.5-7.5-7.5zm0 0"/><path d="m238.972656 183.289062c-4.140625 0-7.5 3.359376-7.5 7.5v11.09375c0 4.144532 3.359375 7.5 7.5 7.5s7.5-3.355468 7.5-7.5v-11.09375c0-4.140624-3.359375-7.5-7.5-7.5zm0 0"/><path d="m170.0625 226.390625c-4.140625 0-7.5 3.355469-7.5 7.5v11.09375c0 4.140625 3.359375 7.5 7.5 7.5 4.144531 0 7.5-3.359375 7.5-7.5v-11.09375c0-4.144531-3.355469-7.5-7.5-7.5zm0 0"/></svg>