<svg height="511pt" viewBox="-57 0 511 511.99874" width="511pt" xmlns="http://www.w3.org/2000/svg"><path d="m362.21875 487.261719h-171.085938l-50.601562-88.054688-57.339844-.574219c-5.609375-.058593-10.128906-4.621093-10.128906-10.234374v-74.585938h-34.933594c-5.507812 0-10.027344-4.347656-10.234375-9.855469-.890625-23.984375-.160156-86.660156 27.742188-130.5.433593-.679687.867187-1.347656 1.308593-2.015625 8.191407-12.332031 22.199219-23.761718 29.683594-32.855468h208.394532c4.46875 11.070312 7.472656 22.867187 8.742187 35.171874 1.1875 11.363282.90625 23.15625-1.0625 35.175782l-25.289063 147.910156c-.410156 2.386719.121094 4.839844 1.472657 6.847656zm0 0" fill="#fecbaa"/><path d="m362.21875 487.265625h-23.566406l-83.335938-123.578125c-1.355468-2-1.875-4.457031-1.472656-6.84375l25.285156-147.910156c1.976563-12.019532 2.261719-23.816406 1.070313-35.175782-1.277344-12.304687-4.269531-24.101562-8.75-35.167968h23.570312c4.476563 11.066406 7.472657 22.863281 8.75 35.167968 1.1875 11.359376.902344 23.15625-1.070312 35.175782l-25.285157 147.910156c-.402343 2.386719.117188 4.839844 1.472657 6.84375zm0 0" fill="#ffae85"/><path d="m303.765625 173.757812c-.855469.101563-1.722656.160157-2.605469.160157h-237.707031c-2.644531 0-5.253906-.152344-7.8125-.460938.429687-.679687.863281-1.347656 1.308594-2.015625 8.1875-12.332031 22.195312-23.761718 29.679687-32.855468h208.394532c4.46875 11.070312 7.472656 22.867187 8.742187 35.171874zm0 0" fill="#ffae85"/><path d="m302.710938 208.933594-24.082032 140.796875c-.972656 5.691406-6.792968 9.175781-12.269531 7.339843l-68.648437-23.015624c-4.171876-1.40625-6.984376-5.3125-6.984376-9.707032v-129.257812h-34.390624c-2.457032 0-4.714844-.867188-6.476563-2.316406-2.296875-1.875-3.753906-4.726563-3.753906-7.917969v-48.875h147.832031c9.425781 21.933593 13.019531 46.90625 8.773438 72.953125zm0 0" fill="#c97f4c"/><path d="m341.65625 436.261719c-20.984375 7.253906-111.070312 37.285156-172.273438 40.355469-5.433593.273437-9.683593 4.777343-9.683593 10.214843v7.433594c0 5.652344 4.582031 10.234375 10.234375 10.234375h209.160156c5.992188 0 10.679688-5.121094 10.199219-11.09375-1.074219-13.4375-7.871094-36.683594-38.792969-56.097656-2.644531-1.660156-5.890625-2.066406-8.84375-1.046875zm0 0" fill="#f80"/><path d="m301.164062 162.621094h-237.710937c-30.625 0-55.453125-24.828125-55.453125-55.453125v-51.15625c0-5.652344 4.582031-10.234375 10.234375-10.234375h206.128906c48.066407 0 87.03125 38.96875 87.03125 87.035156v19.574219c.003907 5.652343-4.578125 10.234375-10.230469 10.234375zm0 0" fill="#aa6344"/><path d="m370.390625 156.25c0 71.953125-58.328125 130.277344-130.277344 130.277344s-130.277343-58.324219-130.277343-130.277344c0-71.949219 58.328124-130.277344 130.277343-130.277344s130.277344 58.328125 130.277344 130.277344zm0 0" fill="#fc3e81"/><path d="m370.390625 156.246094c0 71.953125-58.324219 130.285156-130.277344 130.285156s-130.273437-58.332031-130.273437-130.285156c0-3.75.160156-7.460938.472656-11.136719 5.65625 66.730469 61.601562 119.128906 129.804688 119.128906 68.199218 0 124.144531-52.398437 129.800781-119.128906.316406 3.675781.472656 7.386719.472656 11.136719zm0 0" fill="#f01054"/><path d="m212.746094 174.699219h54.730468c2.667969-22.179688 11.535157-43.230469 25.214844-61.183594 8.453125-11.09375 13.46875-24.941406 13.46875-39.964844 0-37.535156-31.308594-67.757812-69.238281-65.972656-34.039063 1.601563-61.53125 29.375-62.8125 63.425781-.605469 16.175782 4.605469 31.113282 13.710937 42.886719 13.707032 17.726563 22.320313 38.746094 24.925782 60.808594zm0 0" fill="#ffdf46"/><path d="m306.164062 73.550781c0 15.023438-5.019531 28.871094-13.472656 39.964844-13.679687 17.953125-22.546875 38.996094-25.210937 61.183594h-15.710938c2.660157-22.1875 11.53125-43.230469 25.210938-61.183594 8.453125-11.09375 13.472656-24.941406 13.472656-39.964844 0-33.820312-25.433594-61.722656-58.214844-65.589843 1.550781-.175782 3.113281-.304688 4.683594-.382813 37.925781-1.789063 69.242187 28.441406 69.242187 65.972656zm0 0" fill="#f9b200"/><path d="m267.117188 232.636719h-54.011719c-5.421875 0-9.820313-4.394531-9.820313-9.820313v-40.261718c0-5.425782 4.398438-9.820313 9.820313-9.820313h54.011719c5.425781 0 9.820312 4.398437 9.820312 9.820313v40.261718c0 5.425782-4.394531 9.820313-9.820312 9.820313zm0 0" fill="#a7c7d3"/><path d="m396.773438 492.808594c-2.59375-32.347656-27.605469-52.632813-42.285157-61.851563-4.613281-2.894531-10.183593-3.546875-15.28125-1.785156-1.941406.671875-3.867187 1.328125-5.78125 1.980469l-48.316406-71.652344c-.277344-.410156-.382813-.902344-.300781-1.390625l4.144531-24.226563c.699219-4.082031-2.046875-7.957031-6.128906-8.65625-4.089844-.699218-7.957031 2.046876-8.65625 6.128907l-2.917969 17.054687c-.003906.019532-.007812.035156-.011719.054688-.121093.71875-.558593 1.113281-.902343 1.320312-.347657.207032-.898438.402344-1.59375.171875l-68.640626-23.015625c-1.121093-.375-1.875-1.417968-1.875-2.59375v-36.839844c13.214844 4.226563 27.289063 6.519532 41.886719 6.519532 14.3125 0 28.269531-2.167969 41.519531-6.335938l-1.925781 11.253906c-.695312 4.082032 2.046875 7.957032 6.128907 8.65625.429687.070313.855468.105469 1.273437.105469 3.585937 0 6.757813-2.582031 7.382813-6.234375l3.433593-20.085937c14.949219-6.917969 28.683594-16.566407 40.582031-28.710938 2.902344-2.957031 2.855469-7.707031-.105468-10.605469-2.957032-2.898437-7.707032-2.851562-10.605469.105469-23.289063 23.765625-54.429687 36.851563-87.683594 36.851563-67.699219 0-122.777343-55.078125-122.777343-122.777344 0-23.460938 6.636718-46.261719 19.191406-65.9375 8.484375-13.300781 19.382812-24.773438 32.074218-33.875-1.117187 4.617188-1.800781 9.390625-1.984374 14.28125-.648438 17.222656 4.777343 34.183594 15.269531 47.757812 11.246093 14.542969 18.84375 31.453126 22.214843 49.308594-4.976562 3.046875-8.3125 8.515625-8.3125 14.765625v40.265625c0 9.550782 7.769532 17.320313 17.320313 17.320313h54.007813c9.550781 0 17.320312-7.769531 17.320312-17.320313v-40.265625c0-6.238281-3.328125-11.703125-8.292969-14.753906 3.414063-17.714844 11.113281-34.773437 22.511719-49.738281 9.816406-12.882813 15.007812-28.273438 15.007812-44.511719 0-5.839844-.691406-11.554687-1.996093-17.082031 12.671875 9.101562 23.558593 20.5625 32.035156 33.847656 12.554687 19.679688 19.1875 42.480469 19.1875 65.9375 0 21.511719-5.640625 42.675781-16.316406 61.199219-2.066407 3.589843-.832031 8.175781 2.753906 10.242187 1.179687.679688 2.46875 1.003906 3.738281 1.003906 2.59375 0 5.117188-1.347656 6.503906-3.757812 11.984376-20.796875 18.320313-44.550781 18.320313-68.6875 0-26.320312-7.449219-51.910156-21.542969-74.003906-13.519531-21.195313-32.515625-38.253906-54.972656-49.417969-2.992188-4.480469-6.492188-8.675781-10.5-12.5-14.683594-14.011719-33.953125-21.203125-54.304688-20.2421875-23.835937 1.1210935-44.847656 13.8750005-57.484374 32.6210935-3.480469 1.722657-6.875 3.59375-10.1875 5.59375-.160157-.007812-.320313-.023437-.484376-.023437h-96.417968c-4.144532 0-7.5 3.359375-7.5 7.5 0 4.144531 3.355468 7.5 7.5 7.5h76.570312c-9.472656 8.429687-17.792968 18.160156-24.6875 28.96875-13.890625 21.777344-21.3125 46.949218-21.523437 72.875h-38.902344c-26.441406 0-47.953125-21.511719-47.953125-47.953125v-51.15625c0-1.507813 1.226562-2.734375 2.734375-2.734375h21.097656c4.144531 0 7.5-3.359375 7.5-7.5s-3.355469-7.5-7.5-7.5h-21.097656c-9.78125 0-17.734375 7.957031-17.734375 17.734375v51.15625c0 30.035156 21.148438 55.210937 49.335938 61.453125-29.390626 45.429687-30.386719 109.847656-29.429688 135.617187.351562 9.574219 8.136719 17.078125 17.722656 17.078125h27.429688v67.082032c0 9.679687 7.875 17.636718 17.558594 17.734374l53.054687.53125 35.789063 62.28125c-1.214844.085938-2.203126.144532-2.953126.179688-9.425781.472656-16.808593 8.25-16.808593 17.707031v7.433594c0 9.777344 7.953125 17.734375 17.734375 17.734375h209.160156c4.933594 0 9.675781-2.078125 13.019531-5.699219 3.355469-3.632812 5.054688-8.550781 4.660157-13.492187zm-154.011719-359.355469c0 .785156-1.15625 1.695313-2.648438 1.695313-1.492187 0-2.648437-.910157-2.648437-1.695313v-3.808594c.867187.125 1.746094.210938 2.648437.210938.902344 0 1.78125-.085938 2.648438-.210938zm-5.296875 16.484375c.867187.125 1.746094.210938 2.648437.210938.902344 0 1.78125-.085938 2.648438-.210938v15.296875h-5.296875zm-26.679688 50.429688h58.652344v4.640624h-58.652344zm58.652344-17.8125v2.8125h-58.648438v-2.8125c0-.207032.035157-.40625.085938-.597657.601562.152344 1.226562.242188 1.871094.242188h54.734375c.644531 0 1.269531-.089844 1.871093-.246094.050782.195313.085938.390625.085938.601563zm-2.320312 42.582031h-54.011719c-1.277344 0-2.320313-1.039063-2.320313-2.320313v-2.808594h58.652344v2.808594c0 1.28125-1.039062 2.320313-2.320312 2.320313zm-29.84375-210.070313c16.207031-.761718 31.558593 4.960938 43.25 16.113282 11.695312 11.160156 18.140624 26.207031 18.140624 42.371093 0 12.921875-4.128906 25.167969-11.9375 35.421875-12.863281 16.878906-21.523437 36.179688-25.347656 56.261719h-3.617187v-56.824219c0-4.140625-3.359375-7.5-7.5-7.5-4.144531 0-7.5 3.359375-7.5 7.5v4.746094c0 .785156-1.15625 1.695312-2.648438 1.695312-1.492187 0-2.648437-.910156-2.648437-1.695312v-4.746094c0-4.140625-3.355469-7.5-7.5-7.5-4.140625 0-7.5 3.359375-7.5 7.5v56.824219h-3.59375c-3.789063-20.261719-12.375-39.449219-25.113282-55.929687-8.351562-10.800782-12.667968-24.304688-12.152343-38.019532 1.132812-30.109375 25.585937-54.800781 55.667969-56.21875zm-90.238282 380.40625c-1.324218-2.304687-3.769531-3.738281-6.425781-3.765625l-57.34375-.574219c-1.492187-.015624-2.707031-1.242187-2.707031-2.734374v-24.382813h.113281c13.441406 0 40.050781-1.996094 55.835937-16.503906 8.398438-7.722657 12.660157-17.757813 12.660157-29.832031 0-4.140626-3.359375-7.5-7.5-7.5s-7.5 3.359374-7.5 7.5c0 7.800781-2.550781 13.941406-7.792969 18.769531-6.589844 6.070312-17.605469 10.144531-31.855469 11.78125-5.355469.617187-10.253906.773437-13.960937.773437v-35.1875c0-4.140625-3.355469-7.5-7.5-7.5h-34.929688c-1.480468 0-2.679687-1.15625-2.734375-2.636718-2.734375-73.75 18.53125-114.144532 27.800781-128.09375 1.144532-1.71875 2.515626-3.558594 4.070313-5.464844h35.765625c4.992188 49.722656 36.535156 91.730468 80.195312 111.605468v42.621094c0 7.625 4.863282 14.382813 12.101563 16.816406l68.648437 23.015626c1.753907.589843 3.570313.878906 5.378907.878906.582031 0 1.164062-.039063 1.738281-.097656.429688 1.015624.953125 1.996093 1.582031 2.925781l45.964844 68.171875c-62.570313 20.269531-106.46875 28.15625-130.339844 31.214844zm234.054688 100.652344c-.300782.328125-.960938.875-1.996094.875h-209.160156c-1.507813 0-2.734375-1.226562-2.734375-2.734375v-7.433594c0-1.457031 1.125-2.652343 2.558593-2.722656 61.226563-3.074219 148.929688-31.972656 174.347657-40.757813.785156-.273437 1.660156-.160156 2.410156.308594 12.296875 7.722656 33.234375 24.527344 35.304687 50.34375.085938 1.070313-.417968 1.789063-.730468 2.121094zm0 0"/><path d="m108.09375 230.878906c-3.714844-1.828125-8.214844-.300781-10.042969 3.417969-.542969 1.105469-1.792969 2.289063-3.667969 2.289063s-3.125-1.183594-3.671874-2.289063c-1.828126-3.714844-6.324219-5.246094-10.039063-3.417969-3.71875 1.828125-5.246094 6.324219-3.417969 10.042969 3.238282 6.578125 9.800782 10.664063 17.128906 10.664063 7.324219 0 13.886719-4.085938 17.125-10.664063 1.832032-3.71875.300782-8.214844-3.414062-10.042969zm0 0"/></svg>