<svg height="512pt" viewBox="-8 0 511 512" width="512pt" xmlns="http://www.w3.org/2000/svg"><path d="m224.71875 21.003906h49.523438v471h-49.523438zm0 0" fill="#64bdff"/><path d="m19.75 90.785156h459.460938v85h-459.460938zm0 0" fill="#64bdff"/><path d="m76.929688 101.703125-.007813 63.164063c0 6.03125 4.886719 10.917968 10.917969 10.917968h27.6875c6.03125 0 10.917968-4.886718 10.917968-10.917968v-20.8125h98.273438v246.734374h-70.171875c-6.027344 0-10.917969 4.890626-10.917969 10.917969v27.691407c0 6.027343 4.890625 10.917968 10.917969 10.917968h189.867187c6.027344 0 10.914063-4.890625 10.914063-10.917968v-27.691407c0-6.027343-4.886719-10.917969-10.914063-10.917969h-70.171874v-246.734374h98.261718v20.8125c0 6.03125 4.890625 10.917968 10.917969 10.917968h27.691406c6.027344 0 10.917969-4.886718 10.917969-10.917968v-63.164063c0-6.027344-4.890625-10.917969-10.917969-10.917969h-323.269531c-6.027344 0-10.914062 4.886719-10.914062 10.917969zm0 0" fill="#fd6096"/><path d="m69.421875 252.773438c0 4.140624 3.355469 7.5 7.5 7.5 4.140625 0 7.5-3.359376 7.5-7.5v-2c0-4.140626-3.359375-7.5-7.5-7.5-4.144531 0-7.5 3.359374-7.5 7.5zm0 0"/><path d="m76.921875 206.273438c4.140625 0 7.5-3.359376 7.5-7.5v-2c0-4.140626-3.359375-7.5-7.5-7.5-4.144531 0-7.5 3.359374-7.5 7.5v2c0 4.140624 3.355469 7.5 7.5 7.5zm0 0"/><path d="m84.421875 304.773438c0-4.140626-3.359375-7.5-7.5-7.5-4.144531 0-7.5 3.359374-7.5 7.5v2c0 4.140624 3.355469 7.5 7.5 7.5 4.140625 0 7.5-3.359376 7.5-7.5zm0 0"/><path d="m69.421875 225.773438c0 4.140624 3.355469 7.5 7.5 7.5 4.140625 0 7.5-3.359376 7.5-7.5v-2c0-4.140626-3.359375-7.5-7.5-7.5-4.144531 0-7.5 3.359374-7.5 7.5zm0 0"/><path d="m69.421875 279.773438c0 4.140624 3.355469 7.5 7.5 7.5 4.140625 0 7.5-3.359376 7.5-7.5v-2c0-4.140626-3.359375-7.5-7.5-7.5-4.144531 0-7.5 3.359374-7.5 7.5zm0 0"/><path d="m76.921875 45.007812c4.140625 0 7.5-3.359374 7.5-7.5v-2c0-4.140624-3.359375-7.5-7.5-7.5-4.144531 0-7.5 3.359376-7.5 7.5v2c0 4.140626 3.355469 7.5 7.5 7.5zm0 0"/><path d="m76.921875 72.007812c4.140625 0 7.5-3.359374 7.5-7.5v-2c0-4.140624-3.359375-7.5-7.5-7.5-4.144531 0-7.5 3.359376-7.5 7.5v2c0 4.140626 3.355469 7.5 7.5 7.5zm0 0"/><path d="m76.921875 18.007812c4.140625 0 7.5-3.359374 7.5-7.5v-2c0-4.140624-3.359375-7.5-7.5-7.5-4.144531 0-7.5 3.359376-7.5 7.5v2c0 4.140626 3.355469 7.5 7.5 7.5zm0 0"/><path d="m126.445312 243.273438c-4.140624 0-7.5 3.359374-7.5 7.5v2c0 4.140624 3.359376 7.5 7.5 7.5 4.144532 0 7.5-3.359376 7.5-7.5v-2c0-4.140626-3.355468-7.5-7.5-7.5zm0 0"/><path d="m126.445312 189.273438c-4.140624 0-7.5 3.359374-7.5 7.5v2c0 4.140624 3.359376 7.5 7.5 7.5 4.144532 0 7.5-3.359376 7.5-7.5v-2c0-4.140626-3.355468-7.5-7.5-7.5zm0 0"/><path d="m126.445312 216.273438c-4.140624 0-7.5 3.359374-7.5 7.5v2c0 4.140624 3.359376 7.5 7.5 7.5 4.144532 0 7.5-3.359376 7.5-7.5v-2c0-4.140626-3.355468-7.5-7.5-7.5zm0 0"/><path d="m126.445312 45.007812c4.144532 0 7.5-3.359374 7.5-7.5v-2c0-4.140624-3.355468-7.5-7.5-7.5-4.140624 0-7.5 3.359376-7.5 7.5v2c0 4.140626 3.359376 7.5 7.5 7.5zm0 0"/><path d="m126.445312 18.007812c4.144532 0 7.5-3.359374 7.5-7.5v-2c0-4.140624-3.355468-7.5-7.5-7.5-4.140624 0-7.5 3.359376-7.5 7.5v2c0 4.140626 3.359376 7.5 7.5 7.5zm0 0"/><path d="m126.445312 72.007812c4.144532 0 7.5-3.359374 7.5-7.5v-2c0-4.140624-3.355468-7.5-7.5-7.5-4.140624 0-7.5 3.359376-7.5 7.5v2c0 4.140626 3.359376 7.5 7.5 7.5zm0 0"/><path d="m414.53125 252.773438c0 4.140624 3.359375 7.5 7.5 7.5s7.5-3.359376 7.5-7.5v-2c0-4.140626-3.359375-7.5-7.5-7.5s-7.5 3.359374-7.5 7.5zm0 0"/><path d="m422.03125 206.273438c4.140625 0 7.5-3.359376 7.5-7.5v-2c0-4.140626-3.359375-7.5-7.5-7.5s-7.5 3.359374-7.5 7.5v2c0 4.140624 3.359375 7.5 7.5 7.5zm0 0"/><path d="m414.53125 225.773438c0 4.140624 3.359375 7.5 7.5 7.5s7.5-3.359376 7.5-7.5v-2c0-4.140626-3.359375-7.5-7.5-7.5s-7.5 3.359374-7.5 7.5zm0 0"/><path d="m414.53125 279.773438c0 4.140624 3.359375 7.5 7.5 7.5s7.5-3.359376 7.5-7.5v-2c0-4.140626-3.359375-7.5-7.5-7.5s-7.5 3.359374-7.5 7.5zm0 0"/><path d="m429.53125 306.773438v-2c0-4.140626-3.359375-7.5-7.5-7.5s-7.5 3.359374-7.5 7.5v2c0 4.140624 3.359375 7.5 7.5 7.5s7.5-3.359376 7.5-7.5zm0 0"/><path d="m422.03125 45.007812c4.140625 0 7.5-3.359374 7.5-7.5v-2c0-4.140624-3.359375-7.5-7.5-7.5s-7.5 3.359376-7.5 7.5v2c0 4.140626 3.359375 7.5 7.5 7.5zm0 0"/><path d="m422.03125 18.007812c4.140625 0 7.5-3.359374 7.5-7.5v-2c0-4.140624-3.359375-7.5-7.5-7.5s-7.5 3.359376-7.5 7.5v2c0 4.140626 3.359375 7.5 7.5 7.5zm0 0"/><path d="m422.03125 72.007812c4.140625 0 7.5-3.359374 7.5-7.5v-2c0-4.140624-3.359375-7.5-7.5-7.5s-7.5 3.359376-7.5 7.5v2c0 4.140626 3.359375 7.5 7.5 7.5zm0 0"/><path d="m365.007812 225.773438c0 4.140624 3.355469 7.5 7.5 7.5 4.140626 0 7.5-3.359376 7.5-7.5v-2c0-4.140626-3.359374-7.5-7.5-7.5-4.144531 0-7.5 3.359374-7.5 7.5zm0 0"/><path d="m372.507812 206.273438c4.140626 0 7.5-3.359376 7.5-7.5v-2c0-4.140626-3.359374-7.5-7.5-7.5-4.144531 0-7.5 3.359374-7.5 7.5v2c0 4.140624 3.355469 7.5 7.5 7.5zm0 0"/><path d="m380.007812 252.773438v-2c0-4.140626-3.359374-7.5-7.5-7.5-4.144531 0-7.5 3.359374-7.5 7.5v2c0 4.140624 3.355469 7.5 7.5 7.5 4.140626 0 7.5-3.359376 7.5-7.5zm0 0"/><path d="m372.507812 18.007812c4.140626 0 7.5-3.359374 7.5-7.5v-2c0-4.140624-3.359374-7.5-7.5-7.5-4.144531 0-7.5 3.359376-7.5 7.5v2c0 4.140626 3.355469 7.5 7.5 7.5zm0 0"/><path d="m372.507812 72.007812c4.140626 0 7.5-3.359374 7.5-7.5v-2c0-4.140624-3.359374-7.5-7.5-7.5-4.144531 0-7.5 3.359376-7.5 7.5v2c0 4.140626 3.355469 7.5 7.5 7.5zm0 0"/><path d="m372.507812 45.007812c4.140626 0 7.5-3.359374 7.5-7.5v-2c0-4.140624-3.359374-7.5-7.5-7.5-4.144531 0-7.5 3.359376-7.5 7.5v2c0 4.140626 3.355469 7.5 7.5 7.5zm0 0"/><path d="m404.3125 398.289062h2c4.140625 0 7.5-3.355468 7.5-7.5 0-4.140624-3.359375-7.5-7.5-7.5h-2c-4.140625 0-7.5 3.359376-7.5 7.5 0 4.144532 3.359375 7.5 7.5 7.5zm0 0"/><path d="m431.3125 398.289062h2c4.140625 0 7.5-3.355468 7.5-7.5 0-4.140624-3.359375-7.5-7.5-7.5h-2c-4.140625 0-7.5 3.359376-7.5 7.5 0 4.144532 3.359375 7.5 7.5 7.5zm0 0"/><path d="m458.3125 398.289062h2c4.140625 0 7.5-3.355468 7.5-7.5 0-4.140624-3.359375-7.5-7.5-7.5h-2c-4.140625 0-7.5 3.359376-7.5 7.5 0 4.144532 3.359375 7.5 7.5 7.5zm0 0"/><path d="m377.3125 398.289062h2c4.140625 0 7.5-3.355468 7.5-7.5 0-4.140624-3.359375-7.5-7.5-7.5h-2c-4.140625 0-7.5 3.359376-7.5 7.5 0 4.144532 3.359375 7.5 7.5 7.5zm0 0"/><path d="m380.695312 432.816406h-2c-4.140624 0-7.5 3.355469-7.5 7.5 0 4.140625 3.359376 7.5 7.5 7.5h2c4.144532 0 7.5-3.359375 7.5-7.5 0-4.144531-3.355468-7.5-7.5-7.5zm0 0"/><path d="m407.695312 432.816406h-2c-4.140624 0-7.5 3.355469-7.5 7.5 0 4.140625 3.359376 7.5 7.5 7.5h2c4.144532 0 7.5-3.359375 7.5-7.5 0-4.144531-3.355468-7.5-7.5-7.5zm0 0"/><path d="m434.695312 432.816406h-2c-4.140624 0-7.5 3.355469-7.5 7.5 0 4.140625 3.359376 7.5 7.5 7.5h2c4.144532 0 7.5-3.359375 7.5-7.5 0-4.144531-3.355468-7.5-7.5-7.5zm0 0"/><path d="m488.695312 432.816406h-2c-4.140624 0-7.5 3.355469-7.5 7.5 0 4.140625 3.359376 7.5 7.5 7.5h2c4.144532 0 7.5-3.359375 7.5-7.5 0-4.144531-3.355468-7.5-7.5-7.5zm0 0"/><path d="m461.695312 432.816406h-2c-4.140624 0-7.5 3.355469-7.5 7.5 0 4.140625 3.359376 7.5 7.5 7.5h2c4.144532 0 7.5-3.359375 7.5-7.5 0-4.144531-3.355468-7.5-7.5-7.5zm0 0"/><path d="m121.640625 383.289062h-2c-4.144531 0-7.5 3.359376-7.5 7.5 0 4.144532 3.355469 7.5 7.5 7.5h2c4.140625 0 7.5-3.355468 7.5-7.5 0-4.140624-3.359375-7.5-7.5-7.5zm0 0"/><path d="m67.640625 383.289062h-2c-4.144531 0-7.5 3.359376-7.5 7.5 0 4.144532 3.355469 7.5 7.5 7.5h2c4.140625 0 7.5-3.355468 7.5-7.5 0-4.140624-3.359375-7.5-7.5-7.5zm0 0"/><path d="m94.640625 383.289062h-2c-4.144531 0-7.5 3.359376-7.5 7.5 0 4.144532 3.355469 7.5 7.5 7.5h2c4.140625 0 7.5-3.355468 7.5-7.5 0-4.140624-3.359375-7.5-7.5-7.5zm0 0"/><path d="m40.640625 383.289062h-2c-4.144531 0-7.5 3.359376-7.5 7.5 0 4.144532 3.355469 7.5 7.5 7.5h2c4.140625 0 7.5-3.355468 7.5-7.5 0-4.140624-3.359375-7.5-7.5-7.5zm0 0"/><path d="m66.253906 432.816406h-2c-4.140625 0-7.5 3.355469-7.5 7.5 0 4.140625 3.359375 7.5 7.5 7.5h2c4.144532 0 7.5-3.359375 7.5-7.5 0-4.144531-3.355468-7.5-7.5-7.5zm0 0"/><path d="m120.253906 432.816406h-2c-4.140625 0-7.5 3.355469-7.5 7.5 0 4.140625 3.359375 7.5 7.5 7.5h2c4.144532 0 7.5-3.359375 7.5-7.5 0-4.144531-3.355468-7.5-7.5-7.5zm0 0"/><path d="m93.253906 432.816406h-2c-4.140625 0-7.5 3.355469-7.5 7.5 0 4.140625 3.359375 7.5 7.5 7.5h2c4.144532 0 7.5-3.359375 7.5-7.5 0-4.144531-3.355468-7.5-7.5-7.5zm0 0"/><path d="m39.253906 432.816406h-2c-4.140625 0-7.5 3.355469-7.5 7.5 0 4.140625 3.359375 7.5 7.5 7.5h2c4.144532 0 7.5-3.359375 7.5-7.5 0-4.144531-3.355468-7.5-7.5-7.5zm0 0"/><path d="m12.253906 432.816406h-2c-4.140625 0-7.5 3.355469-7.5 7.5 0 4.140625 3.359375 7.5 7.5 7.5h2c4.144532 0 7.5-3.359375 7.5-7.5 0-4.144531-3.355468-7.5-7.5-7.5zm0 0"/><path d="m488.699219 168.285156h-59.5c.210937-1.109375.332031-2.246094.332031-3.417968v-63.164063c0-1.167969-.121094-2.308594-.332031-3.417969h59.5c4.144531 0 7.5-3.355468 7.5-7.5 0-4.140625-3.355469-7.5-7.5-7.5h-206.957031v-75.785156c0-4.140625-3.355469-7.5-7.5-7.5-4.140626 0-7.5 3.359375-7.5 7.5v75.785156h-34.523438v-75.785156c0-4.140625-3.359375-7.5-7.5-7.5-4.144531 0-7.5 3.359375-7.5 7.5v75.785156h-206.960938c-4.140624 0-7.5 3.359375-7.5 7.5 0 4.144532 3.359376 7.5 7.5 7.5h59.5c-.207031 1.109375-.328124 2.246094-.328124 3.414063l-.007813 63.167969c0 1.160156.113281 2.300781.320313 3.417968h-61.742188c-4.140625 0-7.5 3.359375-7.5 7.5 0 4.144532 3.359375 7.5 7.5 7.5h209.21875v200.003906h-14.539062c-4.140626 0-7.5 3.359376-7.5 7.5 0 4.144532 3.359374 7.5 7.5 7.5h14.539062v34.527344h-62.671875c-1.882813 0-3.417969-1.535156-3.417969-3.417968v-27.691407c0-1.882812 1.535156-3.417969 3.417969-3.417969h15.472656c4.140625 0 7.5-3.355468 7.5-7.5 0-4.140624-3.359375-7.5-7.5-7.5h-15.472656c-10.15625 0-18.417969 8.261719-18.417969 18.417969v27.691407c0 10.15625 8.261719 18.417968 18.417969 18.417968h62.671875v56.683594c0 4.140625 3.355469 7.5 7.5 7.5 4.140625 0 7.5-3.359375 7.5-7.5v-56.683594h34.523438v56.683594c0 4.140625 3.359374 7.5 7.5 7.5 4.144531 0 7.5-3.359375 7.5-7.5v-56.683594h62.671874c10.15625 0 18.417969-8.261718 18.417969-18.417968v-27.691407c0-10.15625-8.261719-18.417969-18.417969-18.417969h-62.671874v-93.289062c0-4.140625-3.355469-7.5-7.5-7.5-4.140626 0-7.5 3.359375-7.5 7.5v142.8125h-34.523438v-249.527344h34.523438v72.714844c0 4.140625 3.359374 7.5 7.5 7.5 4.144531 0 7.5-3.359375 7.5-7.5v-72.714844h206.957031c4.144531 0 7.5-3.355468 7.5-7.5 0-4.140625-3.355469-7.5-7.5-7.5zm-206.957031 230.003906h62.671874c1.882813 0 3.417969 1.535157 3.417969 3.417969v27.691407c0 1.882812-1.535156 3.417968-3.417969 3.417968h-62.671874zm-193.902344-230.003906c-1.234375 0-2.042969-.625-2.417969-1s-1-1.183594-1-2.417968l.007813-63.164063c0-1.882813 1.53125-3.417969 3.414062-3.417969h129.375v38.269532h-90.773438c-4.140624 0-7.5 3.359374-7.5 7.5v20.8125c0 1.886718-1.535156 3.417968-3.417968 3.417968zm45.773437 0c.210938-1.109375.332031-2.246094.332031-3.417968v-13.3125h83.273438v16.730468zm98.605469 0v-70h34.523438v70zm151.203125 0c-1.882813 0-3.414063-1.53125-3.414063-3.417968v-20.8125c0-4.140626-3.359374-7.5-7.5-7.5h-39.828124c-4.140626 0-7.5 3.359374-7.5 7.5 0 4.140624 3.359374 7.5 7.5 7.5h32.328124v13.3125c0 1.171874.121094 2.308593.328126 3.417968h-83.59375v-16.730468h18.277343c4.140625 0 7.5-3.359376 7.5-7.5 0-4.140626-3.359375-7.5-7.5-7.5h-18.277343v-38.269532h129.371093c1.882813 0 3.417969 1.535156 3.417969 3.417969v63.164063c0 1.886718-1.535156 3.417968-3.417969 3.417968zm0 0"/></svg>