<?xml version="1.0" encoding="iso-8859-1"?>
<!-- Generator: Adobe Illustrator 19.0.0, SVG Export Plug-In . SVG Version: 6.00 Build 0)  -->
<svg xmlns="http://www.w3.org/2000/svg" xmlns:xlink="http://www.w3.org/1999/xlink" version="1.1" id="Capa_1" x="0px" y="0px" viewBox="0 0 512 512" style="enable-background:new 0 0 512 512;" xml:space="preserve" width="512" height="512">
<g>
	<polygon style="fill:#C0C8D2;" points="361,427.5 316,427.5 286,442.5 316,457.5 361,457.5  "/>
	<rect x="151" y="427.5" style="fill:#DAE0E7;" width="165" height="30"/>
	<rect x="346" y="336.845" style="fill:#A6B0BD;" width="30" height="167.655"/>
	<rect x="136" y="336.845" style="fill:#A6B0BD;" width="30" height="167.655"/>
	<path style="fill:#FF4E51;" d="M256,7.5v390c107.695,0,195-87.304,195-195S363.695,7.5,256,7.5z"/>
	<path style="fill:#FF7149;" d="M421,202.5c0-107.696-73.873-195-165-195c-107.696,0-195,87.304-195,195s87.304,195,195,195   C347.127,397.5,421,310.196,421,202.5z"/>
	<path style="fill:#FFF7E8;" d="M256,37.5v330c91.127,0,165-73.873,165-165S347.127,37.5,256,37.5z"/>
	<path style="fill:#FFFFFF;" d="M391,202.5c0-91.127-60.442-165-135-165c-91.127,0-165,73.873-165,165s73.873,165,165,165   C330.558,367.5,391,293.627,391,202.5z"/>
	<path style="fill:#FF4E51;" d="M256,97.5v210c57.99,0,105-47.01,105-105C361,144.51,313.99,97.5,256,97.5z"/>
	<path style="fill:#FF7149;" d="M331,202.5c0-57.99-33.579-105-75-105c-57.99,0-105,47.01-105,105c0,57.99,47.01,105,105,105   C297.421,307.5,331,260.49,331,202.5z"/>
	<path style="fill:#FFEAC3;" d="M256,157.5v90c24.853,0,45-20.147,45-45C301,177.647,280.853,157.5,256,157.5z"/>
	<path style="fill:#FFF7E8;" d="M271,202.5c0-24.853-6.716-45-15-45c-24.853,0-45,20.147-45,45c0,24.853,20.147,45,45,45   C264.284,247.5,271,227.353,271,202.5z"/>
	<circle style="fill:#FF4E51;" cx="256" cy="202.5" r="15"/>
	<path d="M256,225c12.406,0,22.5-10.093,22.5-22.5S268.406,180,256,180s-22.5,10.093-22.5,22.5S243.594,225,256,225z M256,195   c4.136,0,7.5,3.364,7.5,7.5s-3.364,7.5-7.5,7.5s-7.5-3.364-7.5-7.5S251.864,195,256,195z"/>
	<path d="M377.97,80.524c-30.646-30.646-71.355-48.532-114.627-50.363c-43.003-1.823-84.816,12.31-117.736,39.786   c-3.18,2.654-3.606,7.383-0.952,10.563c2.653,3.18,7.384,3.607,10.563,0.952c62.919-52.512,154.121-48.357,212.145,9.667   c29.748,29.748,46.131,69.3,46.131,111.369c0,42.07-16.383,81.622-46.131,111.37c-61.408,61.41-161.329,61.409-222.737,0   c-58.024-58.024-62.181-149.227-9.668-212.145c2.654-3.18,2.229-7.91-0.952-10.563c-3.178-2.654-7.909-2.229-10.563,0.952   c-27.476,32.92-41.605,74.732-39.786,117.736c1.83,43.272,19.717,83.98,50.362,114.626c33.629,33.629,77.803,50.443,121.976,50.443   c44.174,0,88.348-16.814,121.977-50.443c32.58-32.581,50.523-75.899,50.523-121.976C428.493,156.424,410.55,113.105,377.97,80.524z   "/>
	<path d="M458.5,202.5C458.5,90.841,367.659,0,256,0S53.5,90.841,53.5,202.5c0,63.376,29.273,120.037,75,157.196V504.5   c0,4.142,3.357,7.5,7.5,7.5h30c4.143,0,7.5-3.358,7.5-7.5V465h165v39.5c0,4.142,3.357,7.5,7.5,7.5h30c4.143,0,7.5-3.358,7.5-7.5   V359.696C429.227,322.537,458.5,265.876,458.5,202.5z M158.5,497h-15V370.791c4.856,3.257,9.861,6.306,15,9.141V497z M338.5,420   h-165v-32.583C198.712,398.709,226.634,405,256,405s57.288-6.291,82.5-17.583V420z M173.5,450v-15h165v15H173.5z M368.5,497h-15   V379.933c5.139-2.835,10.144-5.885,15-9.141V497z M256,390c-103.388,0-187.5-84.112-187.5-187.5S152.612,15,256,15   s187.5,84.112,187.5,187.5S359.388,390,256,390z"/>
	<path d="M256,315c62.033,0,112.5-50.467,112.5-112.5S318.033,90,256,90s-112.5,50.467-112.5,112.5S193.967,315,256,315z M256,105   c53.762,0,97.5,43.738,97.5,97.5S309.762,300,256,300s-97.5-43.738-97.5-97.5S202.238,105,256,105z"/>
	<path d="M256,255c28.948,0,52.5-23.551,52.5-52.5S284.948,150,256,150s-52.5,23.551-52.5,52.5S227.052,255,256,255z M256,165   c20.678,0,37.5,16.822,37.5,37.5S276.678,240,256,240s-37.5-16.822-37.5-37.5S235.322,165,256,165z"/>
</g>















</svg>
