<?xml version="1.0" encoding="iso-8859-1"?>
<!-- Generator: Adobe Illustrator 19.0.0, SVG Export Plug-In . SVG Version: 6.00 Build 0)  -->
<svg xmlns="http://www.w3.org/2000/svg" xmlns:xlink="http://www.w3.org/1999/xlink" version="1.1" id="Capa_1" x="0px" y="0px" viewBox="0 0 512 512" style="enable-background:new 0 0 512 512;" xml:space="preserve" width="512" height="512">
<g>
	<polygon style="fill:#8C98A7;" points="221,7.5 206,77.5 306,77.5 291,7.5  "/>
	<polygon style="fill:#8C98A7;" points="456.465,105.033 406.967,55.535 346.863,94.426 417.574,165.137  "/>
	<polygon style="fill:#8C98A7;" points="434.5,206 434.5,306 504.5,291 504.5,221  "/>
	<polygon style="fill:#8C98A7;" points="346.863,417.574 406.967,456.465 456.465,406.967 417.574,346.863  "/>
	<polygon style="fill:#8C98A7;" points="221,504.5 291,504.5 306,434.5 206,434.5  "/>
	<polygon style="fill:#8C98A7;" points="55.535,406.967 105.033,456.465 165.137,417.574 94.426,346.863  "/>
	<polygon style="fill:#8C98A7;" points="77.5,206 7.5,221 7.5,291 77.5,306  "/>
	<polygon style="fill:#8C98A7;" points="55.535,105.033 94.426,165.137 165.137,94.426 105.033,55.535  "/>
	<path style="fill:#A6B0BD;" d="M256.001,50.999c-113.04,0-205,91.97-205,205c0,113.04,91.96,205,205,205   c113.04,0,205-91.96,205-205C461.001,142.969,369.041,50.999,256.001,50.999z"/>
	<path style="fill:#728192;" d="M256,416c-88.224,0-160-71.776-160-160S167.776,96,256,96s160,71.776,160,160S344.224,416,256,416z"/>
	<path style="fill:#FFEAC3;" d="M257.366,126.009v259.984c71.053-0.739,128.635-58.768,128.635-129.992   S328.419,126.748,257.366,126.009z"/>
	<path style="fill:#FFFFFF;" d="M257.366,126.009c-0.455-0.008-0.91-0.008-1.365-0.008c-71.679,0-130,58.321-130,130   s58.321,130,130,130c0.455,0,0.91,0,1.365-0.008c54.506-0.902,98.635-58.874,98.635-129.992S311.872,126.911,257.366,126.009z"/>
	<path style="fill:#FFB739;" d="M256,211v90c24.853,0,45-20.147,45-45S280.853,211,256,211z"/>
	<path style="fill:#FFD17E;" d="M271,256c0-24.853-6.716-45-15-45c-24.853,0-45,20.147-45,45s20.147,45,45,45   C264.284,301,271,280.853,271,256z"/>
	<path d="M256,88.5c-38.886,0-76.803,13.685-106.769,38.532c-3.188,2.644-3.63,7.373-0.986,10.561   c2.645,3.188,7.373,3.629,10.561,0.986C186.086,115.958,220.603,103.5,256,103.5c84.089,0,152.5,68.411,152.5,152.5   S340.089,408.5,256,408.5S103.5,340.089,103.5,256c0-35.397,12.458-69.914,35.079-97.193c2.644-3.188,2.203-7.917-0.986-10.561   c-3.189-2.643-7.916-2.202-10.561,0.986C102.185,179.197,88.5,217.114,88.5,256c0,92.36,75.14,167.5,167.5,167.5   S423.5,348.36,423.5,256S348.36,88.5,256,88.5z"/>
	<path d="M506.071,213.667l-43.953-9.418c-5.066-20.183-13.062-39.427-23.821-57.333l24.464-37.808   c1.921-2.969,1.507-6.877-0.994-9.377l-49.498-49.498c-2.501-2.502-6.411-2.915-9.377-0.994l-37.808,24.464   c-17.906-10.759-37.15-18.754-57.333-23.821l-9.418-43.952C297.592,2.471,294.537,0,291,0h-70c-3.537,0-6.592,2.471-7.333,5.929   l-9.418,43.953c-20.182,5.066-39.425,13.062-57.332,23.821l-37.809-24.465c-2.969-1.921-6.877-1.507-9.377,0.994L50.232,99.729   c-2.501,2.5-2.915,6.409-0.994,9.377l24.465,37.81c-10.758,17.906-18.753,37.149-23.819,57.331l-43.956,9.419   C2.471,214.408,0,217.463,0,221v70c0,3.537,2.471,6.592,5.929,7.333l43.955,9.419c5.066,20.182,13.062,39.425,23.819,57.332   l-24.465,37.809c-1.921,2.969-1.507,6.877,0.994,9.377l49.498,49.498c2.5,2.501,6.409,2.913,9.377,0.994l37.809-24.465   c17.906,10.758,37.15,18.753,57.332,23.819l9.419,43.955c0.741,3.458,3.797,5.929,7.333,5.929h70c3.537,0,6.592-2.471,7.333-5.929   l9.419-43.955c20.182-5.065,39.426-13.061,57.333-23.819l37.808,24.464c2.969,1.921,6.876,1.507,9.377-0.994l49.498-49.498   c2.501-2.5,2.915-6.409,0.994-9.377l-24.463-37.807c10.758-17.905,18.754-37.15,23.821-57.334l43.952-9.418   c3.458-0.741,5.929-3.797,5.929-7.333v-70C512,217.463,509.529,214.408,506.071,213.667z M497,284.937l-42.647,9.139   c-2.855,0.612-5.096,2.825-5.743,5.673c-4.946,21.787-13.533,42.455-25.522,61.43c-1.562,2.472-1.545,5.625,0.043,8.08   l23.742,36.693l-40.923,40.923l-36.693-23.743c-2.454-1.588-5.608-1.605-8.08-0.043c-18.977,11.989-39.645,20.575-61.428,25.52   c-2.848,0.646-5.062,2.887-5.673,5.743L284.937,497h-57.874l-9.139-42.65c-0.612-2.855-2.825-5.096-5.673-5.743   c-21.784-4.945-42.451-13.532-61.427-25.521c-2.472-1.562-5.626-1.544-8.08,0.043l-36.695,23.744l-40.923-40.923l23.744-36.695   c1.588-2.455,1.605-5.608,0.043-8.08c-11.989-18.976-20.575-39.643-25.521-61.427c-0.646-2.848-2.887-5.061-5.743-5.673L15,284.937   v-57.874l42.65-9.139c2.855-0.612,5.096-2.825,5.743-5.673c4.945-21.784,13.532-42.45,25.521-61.426   c1.562-2.472,1.545-5.625-0.043-8.08l-23.744-36.696l40.923-40.923l36.695,23.744c2.454,1.588,5.609,1.606,8.081,0.043   c18.976-11.99,39.644-20.577,61.427-25.522c2.848-0.646,5.062-2.887,5.673-5.743L227.063,15h57.874l9.139,42.647   c0.612,2.855,2.825,5.096,5.673,5.743c21.786,4.946,42.453,13.533,61.429,25.522c2.471,1.562,5.626,1.545,8.08-0.043l36.693-23.743   l40.923,40.923l-23.743,36.693c-1.588,2.455-1.605,5.608-0.043,8.08c11.99,18.977,20.577,39.645,25.522,61.429   c0.646,2.848,2.887,5.061,5.743,5.673L497,227.063V284.937z"/>
	<path d="M256,393.5c75.818,0,137.5-61.682,137.5-137.5S331.818,118.5,256,118.5S118.5,180.182,118.5,256S180.182,393.5,256,393.5z    M256,133.5c67.547,0,122.5,54.953,122.5,122.5S323.547,378.5,256,378.5S133.5,323.547,133.5,256S188.453,133.5,256,133.5z"/>
	<path d="M188.5,263.5h15.544c1.276,8.881,4.775,17.053,9.925,23.924l-11.002,11.002c-2.929,2.929-2.929,7.678,0,10.606   c1.464,1.464,3.384,2.197,5.303,2.197s3.839-0.732,5.303-2.197l11.002-11.002c6.871,5.15,15.044,8.649,23.924,9.925V323.5   c0,4.142,3.358,7.5,7.5,7.5s7.5-3.358,7.5-7.5v-15.544c8.881-1.276,17.053-4.775,23.924-9.925l11.002,11.002   c1.464,1.464,3.384,2.197,5.303,2.197s3.839-0.732,5.303-2.197c2.929-2.929,2.929-7.678,0-10.606l-11.002-11.002   c5.15-6.871,8.649-15.043,9.925-23.924H323.5c4.142,0,7.5-3.358,7.5-7.5s-3.358-7.5-7.5-7.5h-15.544   c-1.276-8.881-4.775-17.053-9.925-23.924l11.002-11.002c2.929-2.929,2.929-7.678,0-10.606c-2.929-2.929-7.678-2.929-10.606,0   l-11.002,11.002c-6.871-5.15-15.044-8.649-23.924-9.925V188.5c0-4.142-3.358-7.5-7.5-7.5s-7.5,3.358-7.5,7.5v15.544   c-8.881,1.276-17.053,4.775-23.924,9.925l-11.002-11.002c-2.929-2.929-7.678-2.929-10.606,0c-2.929,2.929-2.929,7.678,0,10.606   l11.002,11.002c-5.15,6.871-8.649,15.043-9.925,23.924H188.5c-4.142,0-7.5,3.358-7.5,7.5S184.358,263.5,188.5,263.5z M256,218.5   c20.678,0,37.5,16.822,37.5,37.5s-16.822,37.5-37.5,37.5s-37.5-16.822-37.5-37.5S235.322,218.5,256,218.5z"/>
</g>















</svg>
