<?xml version="1.0" encoding="iso-8859-1"?>
<!-- Generator: Adobe Illustrator 19.0.0, SVG Export Plug-In . SVG Version: 6.00 Build 0)  -->
<svg xmlns="http://www.w3.org/2000/svg" xmlns:xlink="http://www.w3.org/1999/xlink" version="1.1" id="Capa_1" x="0px" y="0px" viewBox="0 0 512 512" style="enable-background:new 0 0 512 512;" xml:space="preserve" width="512" height="512">
<g>
	<path style="fill:#FFD17E;" d="M256,7.5v497c137.243,0,248.5-111.257,248.5-248.5S393.243,7.5,256,7.5z"/>
	<path style="fill:#FFEAC3;" d="M474.5,256C474.5,118.757,376.674,7.5,256,7.5C118.757,7.5,7.5,118.757,7.5,256   c0,55.461,18.175,106.673,48.885,148.019L37.5,474.5l70.48-18.885C149.327,486.325,200.539,504.5,256,504.5   C376.674,504.5,474.5,393.243,474.5,256z"/>
	<path style="fill:#FF4E51;" d="M387.642,235.629L327.747,97.794l-19.629,9.621L256,436.294c79.126,0,143.5-64.374,143.5-143.5   C399.5,272.963,395.509,253.728,387.642,235.629z"/>
	<path style="fill:#FF7149;" d="M354.5,292.794c0-19.831-2.739-39.066-8.14-57.165l-38.243-128.214l-16.89,8.278L256,76.294   l-35.228,39.399l-36.519-17.899l-59.892,137.829c-7.871,18.104-11.861,37.34-11.861,57.171c0,79.126,64.374,143.5,143.5,143.5   C310.313,436.294,354.5,371.92,354.5,292.794z"/>
	<path style="fill:#FF9441;" d="M345.453,253.962l-40.703-93.668l-24.819,12.165L256,145.294l0,245c53.848,0,97.5-43.652,97.5-97.5   C353.5,278.992,350.626,265.862,345.453,253.962z"/>
	<path style="fill:#FFB739;" d="M308.5,292.794c0-23.74-4.652-46.62-13.096-64.423L256,145.294l-23.931,27.165l-24.819-12.165   l-40.703,93.668c-5.173,11.899-8.047,25.029-8.047,38.832c0,53.848,43.652,97.5,97.5,97.5   C284.948,390.294,308.5,346.556,308.5,292.794z"/>
	<path style="fill:#FFEAC3;" d="M295.41,258.116L256,213.375v131.92c28.949,0,52.5-23.552,52.5-52.5   C308.5,280.013,303.852,267.699,295.41,258.116z"/>
	<path style="fill:#FFFFFF;" d="M278.5,292.794c0-12.781-1.992-25.096-5.61-34.679L256,213.375l-39.413,44.745   c-8.439,9.579-13.087,21.894-13.087,34.675c0,28.948,23.551,52.5,52.5,52.5C268.407,345.294,278.5,321.743,278.5,292.794z"/>
	<path d="M437.02,74.98C388.667,26.629,324.38,0,256,0S123.333,26.629,74.98,74.98C26.629,123.333,0,187.62,0,256   c0,54.179,16.658,105.808,48.21,149.55l-17.954,67.009c-0.693,2.589,0.046,5.35,1.94,7.245c1.896,1.895,4.659,2.634,7.245,1.94   l67.009-17.955C150.191,495.342,201.82,512,256,512c68.38,0,132.667-26.629,181.02-74.98C485.371,388.667,512,324.38,512,256   S485.371,123.333,437.02,74.98z M256,497c-52.155,0-101.793-16.393-143.548-47.406c-1.307-0.971-2.878-1.479-4.472-1.479   c-0.648,0-1.302,0.084-1.941,0.256l-57.933,15.523l15.522-57.933c0.593-2.213,0.143-4.574-1.224-6.413   C31.393,357.791,15,308.153,15,256C15,123.112,123.112,15,256,15s241,108.112,241,241S388.888,497,256,497z"/>
	<path d="M261.628,208.418c-1.424-1.617-3.474-2.543-5.628-2.543s-4.204,0.926-5.628,2.543l-39.412,44.743   c-9.647,10.951-14.96,25.026-14.96,39.634c0,9.951,2.501,19.82,7.232,28.539c1.975,3.639,6.526,4.991,10.169,3.015   c3.641-1.976,4.99-6.528,3.015-10.169c-3.543-6.529-5.416-13.924-5.416-21.385c0-10.954,3.983-21.508,11.216-29.719L256,224.722   l33.782,38.351c7.233,8.213,11.218,18.769,11.218,29.723c0,24.813-20.187,45-45,45c-7.462,0-14.856-1.873-21.385-5.417   c-3.642-1.975-8.193-0.626-10.17,3.014c-1.976,3.641-0.627,8.193,3.014,10.17c8.719,4.732,18.588,7.233,28.541,7.233   c33.084,0,60-26.916,60-60c0-14.606-5.313-28.683-14.962-39.637L261.628,208.418z"/>
	<path d="M334.625,94.806c-0.816-1.879-2.366-3.342-4.289-4.05c-1.922-0.705-4.05-0.596-5.891,0.305l-31.415,15.396l-31.439-35.161   c-1.423-1.592-3.456-2.501-5.591-2.501s-4.168,0.909-5.591,2.501l-31.439,35.161l-31.415-15.396c-1.84-0.9-3.968-1.01-5.891-0.305   c-1.923,0.708-3.473,2.171-4.289,4.05l-59.892,137.827C109.2,251.687,105,271.928,105,292.795c0,83.262,67.738,151,151,151   s151-67.738,151-151c0-20.866-4.199-41.106-12.479-60.155L334.625,94.806z M256,428.795c-74.99,0-136-61.01-136-136   c0-18.797,3.781-37.026,11.24-54.183l56.763-130.627l29.469,14.442c3.019,1.481,6.651,0.771,8.892-1.735L256,87.547l29.637,33.146   c2.241,2.507,5.874,3.218,8.892,1.735l29.469-14.442l56.767,130.634C388.22,255.771,392,273.998,392,292.795   C392,367.785,330.99,428.795,256,428.795z"/>
	<path d="M311.629,157.306c-0.816-1.879-2.366-3.342-4.289-4.05c-1.922-0.705-4.051-0.597-5.891,0.305l-19.677,9.644l-20.145-22.867   c-1.424-1.616-3.474-2.542-5.628-2.542s-4.204,0.926-5.628,2.542l-20.145,22.867l-19.677-9.644c-1.84-0.901-3.967-1.01-5.891-0.305   c-1.923,0.708-3.473,2.171-4.289,4.05l-40.702,93.667c-5.752,13.23-8.669,27.302-8.669,41.822c0,57.897,47.103,105,105,105   s105-47.103,105-105c0-14.521-2.917-28.592-8.668-41.821L311.629,157.306z M256,382.795c-49.626,0-90-40.374-90-90   c0-12.45,2.498-24.509,7.426-35.843l37.573-86.467l17.77,8.708c3.039,1.49,6.694,0.761,8.929-1.776L256,156.641l18.303,20.776   c2.234,2.536,5.893,3.265,8.929,1.776l17.77-8.708l37.574,86.468c4.927,11.333,7.425,23.392,7.425,35.842   C346,342.421,305.626,382.795,256,382.795z"/>
</g>















</svg>
