<?xml version="1.0" encoding="iso-8859-1"?>
<!-- Generator: Adobe Illustrator 19.0.0, SVG Export Plug-In . SVG Version: 6.00 Build 0)  -->
<svg xmlns="http://www.w3.org/2000/svg" xmlns:xlink="http://www.w3.org/1999/xlink" version="1.1" id="Capa_1" x="0px" y="0px" viewBox="0 0 512 512" style="enable-background:new 0 0 512 512;" xml:space="preserve" width="512" height="512">
<g>
	<polygon style="fill:#C0C8D2;" points="67.5,202.5 67.5,262.5 82.5,292.5 97.5,262.5 97.5,202.5  "/>
	<polygon style="fill:#C0C8D2;" points="347,202.5 317,202.5 317,262.5 332,292.5 347,262.5  "/>
	<rect x="67.5" y="262.5" style="fill:#DAE0E7;" width="30" height="212"/>
	<rect x="317" y="262.5" style="fill:#DAE0E7;" width="30" height="212"/>
	<polygon style="fill:#57697D;" points="407,37.5 7.5,37.5 7.5,232.5 407,232.5 504.5,135  "/>
	<polygon style="fill:#FF9441;" points="394.574,67.5 364.574,67.5 364.574,202.5 394.574,202.5 462.074,135  "/>
	<polygon style="fill:#FFB739;" points="364.574,67.5 37.5,67.5 37.5,202.5 364.574,202.5 432.074,135  "/>
	<path d="M509.803,129.697l-97.5-97.5C410.897,30.79,408.989,30,407,30H7.5C3.358,30,0,33.358,0,37.5v195c0,4.142,3.358,7.5,7.5,7.5   H60v234.5c0,4.142,3.358,7.5,7.5,7.5h30c4.142,0,7.5-3.358,7.5-7.5V240h204.5v234.5c0,4.142,3.358,7.5,7.5,7.5h30   c4.142,0,7.5-3.358,7.5-7.5V240H407c1.989,0,3.897-0.79,5.303-2.197l97.5-97.5C512.732,137.375,512.732,132.626,509.803,129.697z    M90,467H75V240h15V467z M339.5,467h-15V240h15V467z M403.894,225H15V45h388.894l90,90L403.894,225z"/>
	<path d="M394.574,60H37.5c-4.142,0-7.5,3.358-7.5,7.5v135c0,4.142,3.358,7.5,7.5,7.5h30c4.142,0,7.5-3.358,7.5-7.5   s-3.358-7.5-7.5-7.5H45V75h346.467l60,60l-60,60H97.5c-4.142,0-7.5,3.358-7.5,7.5s3.358,7.5,7.5,7.5h297.074   c1.989,0,3.897-0.79,5.303-2.197l67.5-67.5c2.929-2.929,2.929-7.678,0-10.606l-67.5-67.5C398.471,60.79,396.563,60,394.574,60z"/>
</g>















</svg>
