<?xml version="1.0" encoding="iso-8859-1"?>
<!-- Generator: Adobe Illustrator 19.0.0, SVG Export Plug-In . SVG Version: 6.00 Build 0)  -->
<svg xmlns="http://www.w3.org/2000/svg" xmlns:xlink="http://www.w3.org/1999/xlink" version="1.1" id="Capa_1" x="0px" y="0px" viewBox="0 0 512 512" style="enable-background:new 0 0 512 512;" xml:space="preserve" width="512" height="512">
<g>
	<polygon style="fill:#60BA4D;" points="504.498,413.5 474.5,413.5 454.5,323.5 504.498,383.5  "/>
	<polygon style="fill:#85CF75;" points="7.498,413.5 7.498,383.5 256,323.5 474.5,323.5 474.5,413.5  "/>
	<polygon style="fill:#53A143;" points="504.498,383.5 504.498,98.5 474.498,98.5 380.748,241 474.498,383.5  "/>
	<polygon style="fill:#60BA4D;" points="474.498,98.5 7.498,98.5 7.498,383.5 474.498,383.5 474.498,323.5 425.748,241    474.498,158.5  "/>
	<path style="fill:#85CF75;" d="M444.498,353.5h-377c0-16.57-13.43-30-30-30v-165c16.57,0,30-13.43,30-30h377   c0,16.57,13.43,30,30,30v165C457.928,323.5,444.498,336.93,444.498,353.5z"/>
	<path style="fill:#FFFFFF;" d="M105.499,253.5c8.29,0,15-6.72,15-15s-6.71-15-15-15c-8.28,0-15,6.72-15,15   S97.219,253.5,105.499,253.5z"/>
	<path style="fill:#FFFFFF;" d="M406.499,253.5c-8.29,0-15-6.72-15-15s6.71-15,15-15c8.28,0,15,6.72,15,15   S414.779,253.5,406.499,253.5z"/>
	<path style="fill:#53A143;" d="M256.001,323.5v-165c45.563,0,82.5,36.937,82.5,82.5S301.564,323.5,256.001,323.5z"/>
	<path style="fill:#60BA4D;" d="M308.501,241c0,45.563-23.505,82.5-52.5,82.5c-45.564,0-82.5-36.937-82.5-82.5   s36.936-82.5,82.5-82.5C284.996,158.5,308.501,195.437,308.501,241z"/>
	<path d="M504.5,391c4.142,0,7.5-3.358,7.5-7.5v-285c0-4.142-3.358-7.5-7.5-7.5H7.5C3.358,91,0,94.358,0,98.5v315   c0,4.142,3.358,7.5,7.5,7.5h497c4.142,0,7.5-3.358,7.5-7.5s-3.358-7.5-7.5-7.5H15v-15H504.5z M15,106h482v270H15V106z"/>
	<path d="M128,238.5c0-12.407-10.093-22.5-22.5-22.5S83,226.093,83,238.5S93.093,261,105.5,261S128,250.907,128,238.5z M98,238.5   c0-4.136,3.364-7.5,7.5-7.5s7.5,3.364,7.5,7.5s-3.364,7.5-7.5,7.5S98,242.636,98,238.5z"/>
	<path d="M429,238.5c0-12.407-10.093-22.5-22.5-22.5S384,226.093,384,238.5s10.093,22.5,22.5,22.5S429,250.907,429,238.5z    M399,238.5c0-4.136,3.364-7.5,7.5-7.5s7.5,3.364,7.5,7.5s-3.364,7.5-7.5,7.5S399,242.636,399,238.5z"/>
	<path d="M474.5,151c-12.407,0-22.5-10.093-22.5-22.5c0-4.142-3.358-7.5-7.5-7.5h-377c-4.142,0-7.5,3.358-7.5,7.5   c0,12.407-10.093,22.5-22.5,22.5c-4.142,0-7.5,3.358-7.5,7.5v65c0,4.142,3.358,7.5,7.5,7.5s7.5-3.358,7.5-7.5v-58.253   c14.671-2.99,26.256-14.576,29.247-29.247h363.507c2.99,14.671,14.576,26.256,29.247,29.247v151.507   c-14.671,2.99-26.256,14.576-29.247,29.247H74.247c-2.99-14.671-14.576-26.256-29.247-29.247V253.5c0-4.142-3.358-7.5-7.5-7.5   s-7.5,3.358-7.5,7.5v70c0,4.142,3.358,7.5,7.5,7.5c12.407,0,22.5,10.093,22.5,22.5c0,4.142,3.358,7.5,7.5,7.5h377   c4.142,0,7.5-3.358,7.5-7.5c0-12.407,10.093-22.5,22.5-22.5c4.142,0,7.5-3.358,7.5-7.5v-165C482,154.358,478.642,151,474.5,151z"/>
	<path d="M346.001,241c0-49.626-40.374-90-90-90s-90,40.374-90,90s40.374,90,90,90S346.001,290.626,346.001,241z M181.001,241   c0-41.355,33.645-75,75-75s75,33.645,75,75s-33.645,75-75,75S181.001,282.355,181.001,241z"/>
</g>















</svg>
