<?xml version="1.0" encoding="iso-8859-1"?>
<!-- Generator: Adobe Illustrator 19.0.0, SVG Export Plug-In . SVG Version: 6.00 Build 0)  -->
<svg xmlns="http://www.w3.org/2000/svg" xmlns:xlink="http://www.w3.org/1999/xlink" version="1.1" id="Capa_1" x="0px" y="0px" viewBox="0 0 512 512" style="enable-background:new 0 0 512 512;" xml:space="preserve" width="512" height="512">
<g>
	<path style="fill:#FF4E51;" d="M489.5,241h-30v30h30c8.284,0,15-6.716,15-15C504.5,247.716,497.784,241,489.5,241z"/>
	<path style="fill:#FF7149;" d="M474.5,256c0-8.284-6.716-15-15-15h-69.187v30H459.5C467.784,271,474.5,264.284,474.5,256z"/>
	<path style="fill:#FF4E51;" d="M410.503,80.284l-21.213,21.213l21.213,21.213l21.213-21.213c5.858-5.858,5.858-15.355,0-21.213   C425.858,74.426,416.361,74.426,410.503,80.284z"/>
	<path style="fill:#FF7149;" d="M410.503,101.497c-5.858-5.858-15.355-5.858-21.213,0l-48.922,48.922l21.213,21.213l48.922-48.922   C416.361,116.853,416.361,107.355,410.503,101.497z"/>
	<path style="fill:#FF4E51;" d="M241,22.5v30h30v-30c0-8.284-6.716-15-15-15C247.716,7.5,241,14.216,241,22.5z"/>
	<path style="fill:#FF7149;" d="M256,37.5c-8.284,0-15,6.716-15,15v69.187h30V52.5C271,44.216,264.284,37.5,256,37.5z"/>
	<path style="fill:#FF4E51;" d="M80.284,101.497l21.213,21.213l21.213-21.213l-21.213-21.213c-5.858-5.858-15.355-5.858-21.213,0   C74.426,86.142,74.426,95.639,80.284,101.497z"/>
	<path style="fill:#FF7149;" d="M101.497,101.497c-5.858,5.858-5.858,15.355,0,21.213l48.922,48.922l21.213-21.213l-48.922-48.922   C116.853,95.639,107.355,95.639,101.497,101.497z"/>
	<path style="fill:#FF4E51;" d="M22.5,271h30v-30h-30c-8.284,0-15,6.716-15,15C7.5,264.284,14.216,271,22.5,271z"/>
	<path style="fill:#FF7149;" d="M37.5,256c0,8.284,6.716,15,15,15h69.187v-30H52.5C44.216,241,37.5,247.716,37.5,256z"/>
	<path style="fill:#FF4E51;" d="M101.497,431.716l21.213-21.213l-21.213-21.213l-21.213,21.213c-5.858,5.858-5.858,15.355,0,21.213   C86.142,437.574,95.639,437.574,101.497,431.716z"/>
	<path style="fill:#FF7149;" d="M101.497,410.503c5.858,5.858,15.355,5.858,21.213,0l48.922-48.922l-21.213-21.213l-48.922,48.922   C95.639,395.147,95.639,404.645,101.497,410.503z"/>
	<path style="fill:#FF4E51;" d="M271,489.5v-30h-30v30c0,8.284,6.716,15,15,15C264.284,504.5,271,497.784,271,489.5z"/>
	<path style="fill:#FF7149;" d="M256,474.5c8.284,0,15-6.716,15-15v-69.187h-30V459.5C241,467.784,247.716,474.5,256,474.5z"/>
	<path style="fill:#FF4E51;" d="M431.716,410.503l-21.213-21.213l-21.213,21.213l21.213,21.213c5.858,5.858,15.355,5.858,21.213,0   C437.574,425.858,437.574,416.361,431.716,410.503z"/>
	<path style="fill:#FF7149;" d="M410.503,410.503c5.858-5.858,5.858-15.355,0-21.213l-48.922-48.922l-21.213,21.213l48.922,48.922   C395.147,416.361,404.645,416.361,410.503,410.503z"/>
	<path style="fill:#FF9441;" d="M256,91c-90.981,0-165,74.019-165,165s74.019,165,165,165s165-74.019,165-165S346.981,91,256,91z    M256,376c-66.168,0-120-53.832-120-120s53.832-120,120-120s120,53.832,120,120S322.168,376,256,376z"/>
	<path style="fill:#FF4E51;" d="M256,181v150c41.355,0,75-33.645,75-75S297.355,181,256,181z"/>
	<path style="fill:#FF7149;" d="M301,256c0-41.355-20.187-75-45-75c-41.355,0-75,33.645-75,75s33.645,75,75,75   C280.813,331,301,297.355,301,256z"/>
	<path style="fill:#FFB739;" d="M256,211v90c24.813,0,45-20.187,45-45S280.813,211,256,211z"/>
	<path style="fill:#FFD17E;" d="M271,256c0-24.813-6.729-45-15-45c-24.813,0-45,20.187-45,45s20.187,45,45,45   C264.271,301,271,280.813,271,256z"/>
	<circle style="fill:#FF4E51;" cx="256" cy="256" r="15"/>
	<path d="M346.8,166.589c-0.198-0.258-0.408-0.509-0.644-0.745c-0.236-0.236-0.487-0.446-0.745-0.643   C322.382,142.52,290.8,128.5,256,128.5c-34.8,0-66.384,14.02-89.413,36.702c-0.257,0.198-0.508,0.407-0.743,0.643   s-0.445,0.486-0.642,0.743C142.52,189.617,128.5,221.2,128.5,256c0,34.799,14.019,66.382,36.7,89.411   c0.198,0.258,0.408,0.509,0.644,0.745c0.236,0.236,0.487,0.445,0.744,0.643c23.03,22.681,54.612,36.7,89.412,36.7   c34.801,0,66.384-14.021,89.414-36.703c0.257-0.197,0.507-0.406,0.742-0.642c0.235-0.235,0.445-0.486,0.642-0.743   C369.48,322.383,383.5,290.8,383.5,256C383.5,221.201,369.481,189.618,346.8,166.589z M340.636,330.029l-21.269-21.27   c10.431-12.507,17.225-28.136,18.777-45.26h30.1C366.565,288.885,356.432,311.993,340.636,330.029z M143.756,263.5h30.1   c1.551,17.124,8.346,32.753,18.777,45.26l-21.269,21.27C155.568,311.993,145.435,288.885,143.756,263.5z M171.364,181.971   l21.269,21.27c-10.431,12.507-17.225,28.136-18.777,45.26h-30.1C145.435,223.115,155.568,200.007,171.364,181.971z M256,323.5   c-37.22,0-67.5-30.28-67.5-67.5s30.28-67.5,67.5-67.5s67.5,30.28,67.5,67.5S293.22,323.5,256,323.5z M308.76,192.633   c-12.507-10.431-28.136-17.226-45.26-18.777v-30.101c25.384,1.679,48.493,11.812,66.529,27.608L308.76,192.633z M248.5,173.856   c-17.124,1.551-32.753,8.346-45.26,18.777l-21.269-21.27c18.036-15.796,41.145-25.928,66.529-27.608V173.856z M203.24,319.367   c12.507,10.431,28.136,17.226,45.26,18.777v30.101c-25.384-1.679-48.493-11.812-66.529-27.608L203.24,319.367z M263.5,338.144   c17.124-1.551,32.753-8.346,45.26-18.777l21.269,21.27c-18.036,15.796-41.145,25.928-66.529,27.608V338.144z M338.144,248.5   c-1.551-17.124-8.346-32.753-18.777-45.26l21.269-21.27c15.796,18.036,25.929,41.145,27.608,66.53H338.144z"/>
	<path d="M278.5,256c0-12.407-10.094-22.5-22.5-22.5s-22.5,10.093-22.5,22.5s10.094,22.5,22.5,22.5S278.5,268.407,278.5,256z    M248.5,256c0-4.136,3.364-7.5,7.5-7.5s7.5,3.364,7.5,7.5s-3.364,7.5-7.5,7.5S248.5,260.136,248.5,256z"/>
	<path d="M489.5,233.5h-62.467c-4.025-30.76-16.188-58.991-34.246-82.467l44.231-44.232c4.25-4.25,6.591-9.9,6.591-15.911   c0-6.01-2.341-11.66-6.59-15.91c-4.25-4.25-9.9-6.59-15.91-6.59c-6.01,0-11.66,2.34-15.91,6.59l-44.233,44.232   C337.49,101.155,309.26,88.992,278.5,84.967V22.5C278.5,10.093,268.406,0,256,0s-22.5,10.093-22.5,22.5v62.467   c-30.76,4.025-58.991,16.188-82.468,34.246l-44.232-44.232c-4.25-4.25-9.9-6.59-15.91-6.59s-11.66,2.341-15.909,6.59   c-4.25,4.25-6.591,9.9-6.591,15.91c0,6.01,2.341,11.661,6.59,15.91l44.232,44.233C101.155,174.51,88.992,202.74,84.967,233.5H22.5   C10.094,233.5,0,243.593,0,256s10.094,22.5,22.5,22.5h62.467c4.025,30.76,16.188,58.991,34.246,82.467l-44.231,44.232   c-4.25,4.25-6.591,9.9-6.591,15.911c0,6.01,2.341,11.66,6.59,15.91c4.25,4.25,9.9,6.59,15.91,6.59c6.01,0,11.66-2.34,15.91-6.59   l44.233-44.232c23.476,18.057,51.707,30.221,82.467,34.245V489.5c0,12.407,10.094,22.5,22.5,22.5s22.5-10.093,22.5-22.5v-62.467   c30.76-4.025,58.991-16.188,82.467-34.246l44.232,44.232c4.25,4.25,9.9,6.59,15.91,6.59s11.66-2.341,15.909-6.59   c4.25-4.25,6.591-9.9,6.591-15.91s-2.341-11.66-6.59-15.91l-44.232-44.233c18.058-23.477,30.221-51.708,34.246-82.467H489.5   c12.406,0,22.5-10.093,22.5-22.5S501.906,233.5,489.5,233.5z M256,413.5c-86.846,0-157.5-70.654-157.5-157.5S169.154,98.5,256,98.5   S413.5,169.154,413.5,256S342.846,413.5,256,413.5z M415.807,85.587c1.416-1.417,3.3-2.196,5.303-2.196   c2.004,0,3.887,0.78,5.304,2.197c1.416,1.417,2.196,3.3,2.196,5.303c0,2.003-0.78,3.887-2.197,5.304l-43.31,43.31   c-3.381-3.686-6.92-7.225-10.607-10.606L415.807,85.587z M248.5,22.5c0-4.136,3.364-7.5,7.5-7.5s7.5,3.364,7.5,7.5v61.173   c-2.488-0.107-4.986-0.173-7.5-0.173s-5.012,0.066-7.5,0.173V22.5z M85.587,96.193c-1.416-1.417-2.196-3.299-2.196-5.303   c0-2.003,0.78-3.886,2.197-5.303c1.416-1.417,3.3-2.197,5.303-2.197s3.887,0.78,5.303,2.197l43.31,43.311   c-3.686,3.381-7.225,6.92-10.606,10.606L85.587,96.193z M22.5,263.5c-4.136,0-7.5-3.364-7.5-7.5s3.364-7.5,7.5-7.5h61.173   c-0.107,2.488-0.173,4.986-0.173,7.5s0.066,5.012,0.173,7.5H22.5z M96.193,426.413c-1.416,1.417-3.3,2.196-5.303,2.196   c-2.004,0-3.887-0.78-5.304-2.197c-1.416-1.417-2.196-3.3-2.196-5.303c0-2.003,0.78-3.887,2.197-5.304l43.31-43.31   c3.381,3.686,6.92,7.225,10.607,10.606L96.193,426.413z M263.5,489.5c0,4.136-3.364,7.5-7.5,7.5s-7.5-3.364-7.5-7.5v-61.173   c2.488,0.107,4.986,0.173,7.5,0.173s5.012-0.066,7.5-0.173V489.5z M426.413,415.807c1.416,1.417,2.196,3.3,2.196,5.303   s-0.78,3.886-2.197,5.303c-1.416,1.417-3.3,2.197-5.303,2.197s-3.887-0.78-5.303-2.197l-43.31-43.31   c3.686-3.381,7.225-6.92,10.606-10.606L426.413,415.807z M489.5,263.5h-61.173c0.107-2.488,0.173-4.986,0.173-7.5   s-0.066-5.012-0.173-7.5H489.5c4.136,0,7.5,3.364,7.5,7.5S493.636,263.5,489.5,263.5z"/>
	<path d="M256,203.5c-7.912,0-15.526,1.728-22.632,5.135c-3.734,1.791-5.311,6.271-3.52,10.006c1.792,3.735,6.272,5.31,10.006,3.52   c5.064-2.429,10.496-3.66,16.146-3.66c20.678,0,37.5,16.822,37.5,37.5s-16.822,37.5-37.5,37.5s-37.5-16.822-37.5-37.5   c0-5.648,1.231-11.081,3.66-16.147c1.791-3.735,0.215-8.214-3.521-10.005c-3.732-1.79-8.214-0.216-10.005,3.521   c-3.407,7.106-5.135,14.721-5.135,22.631c0,28.949,23.552,52.5,52.5,52.5s52.5-23.551,52.5-52.5S284.948,203.5,256,203.5z"/>
</g>















</svg>
