<?xml version="1.0" encoding="iso-8859-1"?>
<!-- Generator: Adobe Illustrator 19.0.0, SVG Export Plug-In . SVG Version: 6.00 Build 0)  -->
<svg xmlns="http://www.w3.org/2000/svg" xmlns:xlink="http://www.w3.org/1999/xlink" version="1.1" id="Capa_1" x="0px" y="0px" viewBox="0 0 512 512" style="enable-background:new 0 0 512 512;" xml:space="preserve" width="512" height="512">
<g>
	<path style="fill:#3D5168;" d="M286,7.5h-30l15,49.643h30V22.5C301,14.25,294.25,7.5,286,7.5z"/>
	<path style="fill:#57697D;" d="M256,7.5h-30c-8.25,0-15,6.75-15,15v34.643h60V22.5C271,14.25,264.25,7.5,256,7.5z"/>
	<path style="fill:#3D5168;" d="M101.497,59.071L80.284,80.284l45.709,24.496l21.213-21.213L122.71,59.071   C116.877,53.237,107.331,53.237,101.497,59.071z"/>
	<path style="fill:#57697D;" d="M80.284,80.284l-21.213,21.213c-5.834,5.834-5.834,15.38,0,21.213l24.496,24.496l42.426-42.426   l-24.496-24.496C95.663,74.45,86.118,74.45,80.284,80.284z"/>
	<path style="fill:#3D5168;" d="M452.929,101.497l-21.213-21.213l-24.496,45.709l21.213,21.213l24.496-24.496   C458.763,116.877,458.763,107.331,452.929,101.497z"/>
	<path style="fill:#57697D;" d="M431.716,80.284l-21.213-21.213c-5.834-5.834-15.38-5.834-21.213,0l-24.496,24.496l42.426,42.426   l24.496-24.496C437.55,95.664,437.55,86.118,431.716,80.284z"/>
	<path style="fill:#1E8AFF;" d="M256,37.5l75,467h30c11.971,0,22.3-7.013,27.113-17.153l65.38-137.775   C466.957,321.207,474.5,289.486,474.5,256C474.5,135.326,376.674,37.5,256,37.5z"/>
	<path style="fill:#54A5FF;" d="M358.113,487.347l65.38-137.775C436.957,321.207,444.5,289.486,444.5,256   c0-120.674-84.394-218.5-188.5-218.5C135.326,37.5,37.5,135.326,37.5,256c0,33.486,7.543,65.207,21.006,93.572l65.38,137.776   C128.7,497.487,139.029,504.5,151,504.5h180C342.97,504.5,353.3,497.487,358.113,487.347z"/>
	<path style="fill:#233952;" d="M256,444.5C152.06,444.5,67.5,359.939,67.5,256S152.06,67.5,256,67.5S444.5,152.061,444.5,256   S359.939,444.5,256,444.5z"/>
	<path style="fill:#60BA4D;" d="M376,196h-30v120h30c16.5,0,30-13.5,30-30v-60C406,209.5,392.5,196,376,196z"/>
	<path style="fill:#85CF75;" d="M376,286v-60c0-16.5-13.5-30-30-30H136c-16.5,0-30,13.5-30,30v60c0,16.5,13.5,30,30,30h210   C362.5,316,376,302.5,376,286z"/>
	<path d="M98.5,226v60c0,20.678,16.822,37.5,37.5,37.5h240c20.678,0,37.5-16.822,37.5-37.5v-60c0-20.678-16.822-37.5-37.5-37.5H136   C115.322,188.5,98.5,205.322,98.5,226z M398.5,226v60c0,12.407-10.093,22.5-22.5,22.5H136c-12.407,0-22.5-10.093-22.5-22.5v-60   c0-12.407,10.093-22.5,22.5-22.5h240C388.407,203.5,398.5,213.593,398.5,226z"/>
	<path d="M211,173.5c4.142,0,7.5-3.358,7.5-7.5s-3.358-7.5-7.5-7.5h-30c-4.142,0-7.5,3.358-7.5,7.5s3.358,7.5,7.5,7.5H211z"/>
	<path d="M271,173.5c4.142,0,7.5-3.358,7.5-7.5s-3.358-7.5-7.5-7.5h-30c-4.142,0-7.5,3.358-7.5,7.5s3.358,7.5,7.5,7.5H271z"/>
	<path d="M331,173.5c4.142,0,7.5-3.358,7.5-7.5s-3.358-7.5-7.5-7.5h-30c-4.142,0-7.5,3.358-7.5,7.5s3.358,7.5,7.5,7.5H331z"/>
	<path d="M136,338.5c-4.142,0-7.5,3.358-7.5,7.5s3.358,7.5,7.5,7.5h240c4.142,0,7.5-3.358,7.5-7.5s-3.358-7.5-7.5-7.5H136z"/>
	<path d="M361,293.5c12.407,0,22.5-10.093,22.5-22.5v-30c0-12.407-10.093-22.5-22.5-22.5s-22.5,10.093-22.5,22.5v30   C338.5,283.407,348.593,293.5,361,293.5z M353.5,241c0-4.136,3.364-7.5,7.5-7.5s7.5,3.364,7.5,7.5v30c0,4.136-3.364,7.5-7.5,7.5   s-7.5-3.364-7.5-7.5V241z"/>
	<path d="M301,293.5c12.407,0,22.5-10.093,22.5-22.5v-30c0-12.407-10.093-22.5-22.5-22.5s-22.5,10.093-22.5,22.5v30   C278.5,283.407,288.593,293.5,301,293.5z M293.5,241c0-4.136,3.364-7.5,7.5-7.5s7.5,3.364,7.5,7.5v30c0,4.136-3.364,7.5-7.5,7.5   s-7.5-3.364-7.5-7.5V241z"/>
	<path d="M211,293.5c12.407,0,22.5-10.093,22.5-22.5v-30c0-12.407-10.093-22.5-22.5-22.5s-22.5,10.093-22.5,22.5v30   C188.5,283.407,198.593,293.5,211,293.5z M203.5,241c0-4.136,3.364-7.5,7.5-7.5s7.5,3.364,7.5,7.5v30c0,4.136-3.364,7.5-7.5,7.5   s-7.5-3.364-7.5-7.5V241z"/>
	<path d="M128.5,241v30c0,12.407,10.093,22.5,22.5,22.5s22.5-10.093,22.5-22.5v-30c0-12.407-10.093-22.5-22.5-22.5   S128.5,228.593,128.5,241z M143.5,241c0-4.136,3.364-7.5,7.5-7.5s7.5,3.364,7.5,7.5v30c0,4.136-3.364,7.5-7.5,7.5   s-7.5-3.364-7.5-7.5V241z"/>
	<path d="M256,248.5c4.136,0,7.5-3.365,7.5-7.5c0-4.136-3.364-7.5-7.5-7.5c-4.135,0-7.5,3.364-7.5,7.5   C248.5,245.135,251.864,248.5,256,248.5z"/>
	<path d="M256,278.5c4.136,0,7.5-3.365,7.5-7.5c0-4.136-3.364-7.5-7.5-7.5c-4.135,0-7.5,3.364-7.5,7.5   C248.5,275.135,251.864,278.5,256,278.5z"/>
	<path d="M448.608,137.638l9.625-9.625c8.772-8.772,8.772-23.047,0-31.82l-42.427-42.426c-4.238-4.238-9.888-6.572-15.91-6.572   s-11.672,2.334-15.91,6.572l-9.625,9.625c-20.376-12.574-42.562-21.764-65.862-27.281V22.5C308.5,10.093,298.407,0,286,0h-60   c-12.407,0-22.5,10.093-22.5,22.5v13.611c-23.299,5.517-45.486,14.707-65.862,27.281l-9.625-9.625   c-8.773-8.771-23.047-8.772-31.82,0L53.768,96.194c-4.238,4.238-6.572,9.888-6.572,15.91s2.334,11.672,6.572,15.91l9.625,9.625   C41.643,172.883,30,213.544,30,256c0,33.844,7.312,66.408,21.73,96.787l65.38,137.777C123.292,503.586,136.595,512,151,512h210   c14.405,0,27.708-8.414,33.889-21.437l65.38-137.775C474.688,322.409,482,289.844,482,256   C482,213.544,470.357,172.883,448.608,137.638z M394.593,64.374c2.925-2.924,7.683-2.924,10.606,0l42.426,42.426   c2.924,2.924,2.925,7.683,0,10.607l-7.489,7.489c-7.239-10.122-15.355-19.727-24.331-28.702s-18.58-17.091-28.702-24.331   L394.593,64.374z M218.5,22.5c0-4.136,3.364-7.5,7.5-7.5h60c4.136,0,7.5,3.364,7.5,7.5v10.591C281.223,31.052,268.693,30,256,30   s-25.223,1.052-37.5,3.091V22.5z M64.374,117.407c-1.405-1.405-2.179-3.288-2.179-5.303c0-2.015,0.774-3.898,2.179-5.304   L106.8,64.374c2.926-2.924,7.683-2.923,10.607,0l7.489,7.489c-10.122,7.239-19.727,15.355-28.702,24.331   s-17.091,18.58-24.331,28.702L64.374,117.407z M446.718,346.357l-65.38,137.774C377.627,491.949,369.644,497,361,497H151   c-8.644,0-16.627-5.051-20.338-12.868l-65.38-137.776C51.824,318.002,45,287.602,45,256c0-116.346,94.654-211,211-211   s211,94.654,211,211C467,287.602,460.176,318.002,446.718,346.357z"/>
	<path d="M256,60c-46.505,0-91.629,16.652-127.062,46.888c-3.151,2.689-3.525,7.423-0.836,10.574   c2.688,3.151,7.422,3.524,10.574,0.836C171.395,90.377,213.062,75,256,75c99.804,0,181,81.196,181,181s-81.196,181-181,181   S75,355.804,75,256c0-42.938,15.377-84.605,43.298-117.325c2.689-3.151,2.314-7.885-0.836-10.574   c-3.151-2.69-7.885-2.315-10.574,0.836C76.652,164.371,60,209.495,60,256c0,108.075,87.925,196,196,196s196-87.925,196-196   S364.075,60,256,60z"/>
</g>















</svg>
