<?xml version="1.0" encoding="iso-8859-1"?>
<!-- Generator: Adobe Illustrator 19.0.0, SVG Export Plug-In . SVG Version: 6.00 Build 0)  -->
<svg xmlns="http://www.w3.org/2000/svg" xmlns:xlink="http://www.w3.org/1999/xlink" version="1.1" id="Capa_1" x="0px" y="0px" viewBox="0 0 512 512" style="enable-background:new 0 0 512 512;" xml:space="preserve" width="512" height="512">
<g>
	<path style="fill:#FFD17E;" d="M256,459.5v-407l72.5,30c16.5,0,30,13.5,30,30v42.476l30.924,42.452   C409.277,224.669,421,258.213,421,294.5C421,385.627,347.127,459.5,256,459.5z"/>
	<path style="fill:#FFEAC3;" d="M328.5,112.5v42.476l30.924,42.452C379.277,224.669,391,258.213,391,294.5   c0,91.127-60.442,165-135,165c-91.127,0-165-73.873-165-165c0-36.287,11.723-69.831,31.576-97.072l30.924-42.452V112.5   c0-16.5,13.5-30,30-30l72.5-30l42.5,30C315,82.5,328.5,96,328.5,112.5z"/>
	<path style="fill:#FFB739;" d="M286,142.509c0,16.569-13.431,30-30,30l-30-120h60V142.509z"/>
	<path style="fill:#FFD17E;" d="M226,142.509v-90h30v120C239.431,172.509,226,159.078,226,142.509z"/>
	<rect x="283.502" y="7.5" style="fill:#8B9EA4;" width="59.997" height="75"/>
	<polygon style="fill:#A3BBC0;" points="168.5,82.5 168.5,7.5 313.5,7.5 313.5,82.5 256,82.5  "/>
	<path style="fill:#A3BBC0;" d="M343.5,82.5h-30v-30h30c8.284,0,15,6.716,15,15S351.784,82.5,343.5,82.5z"/>
	<path style="fill:#BDDBE0;" d="M313.5,82.5h-145c-8.284,0-15-6.716-15-15s6.716-15,15-15h145c8.284,0,15,6.716,15,15   S321.784,82.5,313.5,82.5z"/>
	<path d="M256,512c-4.142,0-7.5-3.358-7.5-7.5v-15c0-4.142,3.358-7.5,7.5-7.5c4.143,0,7.5,3.358,7.5,7.5v15   C263.5,508.642,260.143,512,256,512z"/>
	<path d="M175.634,496.017c-0.957,0-1.929-0.184-2.867-0.573c-3.827-1.585-5.644-5.973-4.059-9.799l5.74-13.858   c1.584-3.827,5.973-5.644,9.799-4.059c3.827,1.585,5.644,5.973,4.059,9.799l-5.74,13.858   C181.37,494.273,178.577,496.017,175.634,496.017z"/>
	<path d="M107.508,450.492c-1.919,0-3.839-0.732-5.303-2.197c-2.929-2.929-2.929-7.678,0-10.606l10.606-10.606   c2.929-2.929,7.678-2.929,10.606,0c2.929,2.929,2.929,7.678,0,10.606l-10.606,10.606   C111.347,449.76,109.427,450.492,107.508,450.492z"/>
	<path d="M61.988,382.365c-2.943,0-5.736-1.744-6.932-4.632c-1.585-3.827,0.232-8.214,4.059-9.799l13.858-5.74   c3.828-1.584,8.213,0.232,9.799,4.059c1.585,3.827-0.232,8.214-4.059,9.799l-13.858,5.74   C63.917,382.181,62.945,382.365,61.988,382.365z"/>
	<path d="M61,302H46c-4.142,0-7.5-3.358-7.5-7.5s3.358-7.5,7.5-7.5h15c4.142,0,7.5,3.358,7.5,7.5S65.142,302,61,302z"/>
	<path d="M336.366,496.017c-2.943,0-5.735-1.744-6.932-4.632l-5.74-13.858c-1.586-3.827,0.231-8.214,4.059-9.799   c3.827-1.586,8.214,0.232,9.799,4.059l5.74,13.858c1.586,3.827-0.231,8.214-4.059,9.799   C338.295,495.833,337.322,496.017,336.366,496.017z"/>
	<path d="M404.492,450.492c-1.919,0-3.839-0.732-5.304-2.197l-10.606-10.606c-2.929-2.929-2.929-7.678,0-10.606   c2.93-2.929,7.678-2.929,10.607,0l10.606,10.606c2.929,2.929,2.929,7.678,0,10.606C408.331,449.76,406.411,450.492,404.492,450.492   z"/>
	<path d="M450.012,382.365c-0.957,0-1.929-0.184-2.867-0.573l-13.858-5.74c-3.827-1.585-5.645-5.973-4.059-9.799   c1.585-3.827,5.975-5.643,9.799-4.059l13.858,5.74c3.827,1.585,5.645,5.973,4.059,9.799   C455.747,380.622,452.955,382.365,450.012,382.365z"/>
	<path d="M466,302h-15c-4.143,0-7.5-3.358-7.5-7.5s3.357-7.5,7.5-7.5h15c4.143,0,7.5,3.358,7.5,7.5S470.143,302,466,302z"/>
	<path d="M395.486,193.012L366,152.534V112.5c0-10.08-4.005-19.237-10.498-25.982C361.804,82.526,366,75.496,366,67.5   c0-9.777-6.271-18.114-15-21.21V7.5c0-4.142-3.357-7.5-7.5-7.5h-175c-4.142,0-7.5,3.358-7.5,7.5v38.79   c-8.729,3.096-15,11.432-15,21.21c0,7.996,4.196,15.026,10.498,19.018C150.005,93.263,146,102.42,146,112.5v40.034l-29.485,40.477   C94.917,222.646,83.5,257.741,83.5,294.5C83.5,389.617,160.883,467,256,467c95.117,0,172.5-77.383,172.5-172.5   C428.5,257.741,417.084,222.647,395.486,193.012z M168.5,60c4.142,0,7.5-3.358,7.5-7.5V15h160v30H198.5c-4.142,0-7.5,3.358-7.5,7.5   s3.358,7.5,7.5,7.5h145c4.136,0,7.5,3.364,7.5,7.5s-3.364,7.5-7.5,7.5h-175c-4.136,0-7.5-3.364-7.5-7.5S164.364,60,168.5,60z    M226.848,166.062c6.88,8.5,17.39,13.947,29.152,13.947c11.762,0,22.271-5.447,29.151-13.947l33.188,112.096l-8.484-5.09   c-2.374-1.424-5.341-1.425-7.717,0l-21.145,12.685l-21.141-12.685c-1.188-0.712-2.522-1.069-3.858-1.069   c-1.335,0-2.671,0.356-3.859,1.069l-21.14,12.685l-21.14-12.685c-2.375-1.425-5.343-1.425-7.718,0l-8.479,5.087L226.848,166.062z    M234.79,150.009h42.42c-3.096,8.729-11.433,15-21.21,15C246.222,165.009,237.886,158.739,234.79,150.009z M278.5,135.009h-45V90   h45V135.009z M256,452c-86.846,0-157.5-70.654-157.5-157.5c0-33.563,10.421-65.602,30.138-92.656l30.924-42.452   c0.935-1.283,1.438-2.829,1.438-4.416V112.5c0-12.407,10.093-22.5,22.5-22.5h35v51.422l-44.691,150.948   c-0.878,2.965,0.154,6.165,2.599,8.059c1.345,1.042,2.966,1.571,4.594,1.571c1.33,0,2.666-0.354,3.858-1.069l21.139-12.685   l21.14,12.685c2.375,1.425,5.343,1.425,7.718,0l21.14-12.685l21.141,12.685c2.375,1.424,5.342,1.425,7.717,0l21.145-12.685   l21.145,12.685c1.192,0.715,2.527,1.069,3.857,1.069c4.163,0,7.521-3.358,7.521-7.5c0-0.938-0.172-1.836-0.486-2.665L293.5,141.422   V90h35c12.406,0,22.5,10.093,22.5,22.5v42.476c0,1.587,0.503,3.133,1.438,4.416l30.925,42.454   c19.717,27.053,30.138,59.092,30.138,92.654C413.5,381.346,342.846,452,256,452z"/>
</g>















</svg>
