<?xml version="1.0" encoding="iso-8859-1"?>
<!-- Generator: Adobe Illustrator 19.0.0, SVG Export Plug-In . SVG Version: 6.00 Build 0)  -->
<svg xmlns="http://www.w3.org/2000/svg" xmlns:xlink="http://www.w3.org/1999/xlink" version="1.1" id="Capa_1" x="0px" y="0px" viewBox="0 0 512.133 512.133" style="enable-background:new 0 0 512.133 512.133;" xml:space="preserve" width="512" height="512">
<g>
	<path style="fill:#FF876C;" d="M414.566,162.633c16.57,0,30,13.43,30,30v120h-60v-120   C384.566,176.063,397.996,162.633,414.566,162.633z"/>
	<path style="fill:#FF9E90;" d="M444.566,97.633c-16.57,0-30,13.43-30,30v120h60v-120   C474.566,111.063,461.136,97.633,444.566,97.633z"/>
	<path style="fill:#FF9E90;" d="M474.566,67.633c-4.51,0-8.79,1-12.63,2.79l-13.15,250.93l-54.22,128.28l101.885-143.385   c4.779-6.725,8.115-19.365,8.115-27.615v-181C504.566,81.063,491.136,67.633,474.566,67.633z"/>
	<path style="fill:#FFB4B3;" d="M474.566,97.633v196c0,8.25-2.6,20.72-5.78,27.72l-74.22,128.28v55H271.155v-30l32.411-113.57   l141-113.43v-150c0-12.06,7.11-22.45,17.37-27.21C469.396,75.183,474.566,85.583,474.566,97.633z"/>
	<path style="fill:#FFCAD6;" d="M393.36,226.42c11.71-11.72,30.71-11.72,42.42,0c5.86,5.85,8.79,13.53,8.79,21.21   c0,7.68-2.93,15.36-8.79,21.21L331.155,373.474v41.158c0,33-27,60-60,60V373.544c0-16.57,6.68-31.6,17.53-42.46L393.36,226.42z"/>
	<path style="fill:#FF876C;" d="M97.566,162.633c-16.57,0-30,13.43-30,30v120h60v-120   C127.566,176.063,114.136,162.633,97.566,162.633z"/>
	<path style="fill:#FF9E90;" d="M67.566,97.633c-16.57,0-30,13.43-30,30v120h60v-120C97.566,111.063,84.136,97.633,67.566,97.633z"/>
	<polygon style="fill:#FF9E90;" points="240.978,474.633 240.978,504.633 210.978,504.633 150.978,384.364  "/>
	<path style="fill:#FFB4B3;" d="M223.448,331.084L118.78,226.42c-6.37-6.38-14.9-9.28-23.24-8.72l115.438,248.843   c8.84,5.14,19.09,8.09,30,8.09V373.544C240.978,356.974,234.298,341.944,223.448,331.084z"/>
	<path style="fill:#FFB4B3;" d="M203.566,366.133l-136-118.5v-150c0-16.57-13.43-30-30-30s-30,13.43-30,30v181   c0,8.25,3.336,20.89,8.115,27.615l101.885,143.385v55h93.412v-38.09L203.566,366.133z"/>
	<path style="fill:#FFCAD6;" d="M210.978,373.544v92.998c-17.9-10.41-30-29.82-30-51.91v-41.158L76.353,268.84   c-5.86-5.85-8.79-13.53-8.79-21.21c0-7.68,2.93-15.36,8.79-21.21c5.33-5.34,12.19-8.25,19.18-8.72c5.77,0.47,11.44,3.38,15.85,8.72   l85.115,104.665C205.468,341.944,210.978,356.974,210.978,373.544z"/>
	<path style="fill:#FF2B59;" d="M315.95,7.5c-2.523,0-5.014,0.131-7.472,0.374L256.066,257.5c0.006-0.003,135-79.147,135-174.895   C391.066,41.126,357.435,7.5,315.95,7.5z"/>
	<path style="fill:#FF4E51;" d="M361.066,82.605c0-38.947-23.063-70.966-52.589-74.731c-21.373,2.112-40.109,13.179-52.411,29.399   C242.35,19.188,220.635,7.5,196.183,7.5c-41.486,0-75.117,33.626-75.117,75.105c0,95.748,134.994,174.892,135,174.895   C256.071,257.497,361.066,178.353,361.066,82.605z"/>
	<path d="M135.066,232.1v-39.467c0-18.11-12.904-33.261-30-36.745v-28.255c0-18.334-13.229-33.627-30.64-36.86   c-3.233-17.411-18.526-30.64-36.86-30.64c-20.678,0-37.5,16.822-37.5,37.5v181c0,9.137,3.554,23.59,9.501,31.959l100.499,141.434   v52.607c0,4.142,3.358,7.5,7.5,7.5h123.412c4.142,0,7.5-3.358,7.5-7.5V373.544c0-18.075-7.007-35.037-19.73-47.763L135.066,232.1z    M120.066,192.633v24.999c-4.535-3.405-9.672-5.648-15-6.727v-39.481C113.796,174.519,120.066,182.855,120.066,192.633z    M90.066,127.633v83.273c-5.328,1.079-10.466,3.318-15,6.724V106.423C83.796,109.519,90.066,117.855,90.066,127.633z    M233.478,497.133H125.066v-47.5c0-1.557-0.484-3.075-1.386-4.344L21.795,301.904c-3.584-5.044-6.729-15.919-6.729-23.271v-181   c0-12.407,10.093-22.5,22.5-22.5s22.5,10.093,22.5,22.5v150.5c0,0.259,0.013,0.516,0.039,0.769   c0.308,9.175,3.956,18.259,10.944,25.248l104.625,104.625c2.929,2.929,7.678,2.929,10.606,0c2.929-2.929,2.929-7.678,0-10.606   L81.656,263.542c-8.772-8.772-8.772-23.047,0-31.82c4.241-4.24,9.767-6.411,15.335-6.552c0.19,0.014,0.381,0.029,0.575,0.029   s0.385-0.015,0.575-0.029c5.568,0.141,11.095,2.312,15.335,6.552l8.781,8.781c0.012,0.012,95.884,95.884,95.884,95.884   c9.89,9.892,15.337,23.088,15.337,37.157V497.133z"/>
	<path d="M474.566,60.133c-18.334,0-33.626,13.229-36.86,30.64c-17.411,3.233-30.64,18.526-30.64,36.86v28.255   c-17.096,3.484-30,18.635-30,36.745V232.1l-93.683,93.683c-12.723,12.725-19.729,29.687-19.729,47.762v131.088   c0,4.142,3.357,7.5,7.5,7.5h123.412c4.143,0,7.5-3.358,7.5-7.5v-52.607l100.499-141.434c5.947-8.371,9.501-22.823,9.501-31.959   v-181C512.066,76.955,495.244,60.133,474.566,60.133z M422.066,127.633c0-9.777,6.271-18.114,15-21.21v111.206   c-4.534-3.405-9.672-5.644-15-6.723V127.633z M407.066,171.423v39.481c-5.328,1.079-10.465,3.322-15,6.727v-24.999   C392.066,182.855,398.337,174.519,407.066,171.423z M497.066,278.633c0,7.352-3.145,18.226-6.729,23.271L388.453,445.289   c-0.902,1.269-1.387,2.788-1.387,4.344v47.5H278.654V373.544c0-14.069,5.446-27.265,15.337-37.156l104.666-104.666   c8.771-8.772,23.047-8.772,31.818,0c4.25,4.25,6.591,9.9,6.591,15.91c0,6.01-2.341,11.66-6.591,15.91L325.851,368.167   c-2.929,2.929-2.929,7.678,0,10.606c2.93,2.929,7.678,2.929,10.607,0l104.624-104.625c6.868-6.867,10.744-15.93,10.974-25.605   c0.007-0.136,0.011-0.273,0.011-0.411v-150.5c0-12.407,10.094-22.5,22.5-22.5s22.5,10.093,22.5,22.5V278.633z"/>
	<path d="M376.388,154.213c14.717-24.286,22.179-48.378,22.179-71.608C398.566,37.057,361.505,0,315.949,0   c-22.968,0-44.332,9.262-59.883,25.692C240.516,9.262,219.152,0,196.183,0c-16.275,0-32.033,4.741-45.572,13.71   c-3.453,2.288-4.398,6.941-2.11,10.395s6.941,4.397,10.395,2.11C169.97,18.878,182.864,15,196.183,15   c21.339,0,40.988,9.77,53.908,26.806c1.418,1.87,3.629,2.968,5.976,2.968s4.558-1.098,5.976-2.968   C274.963,24.77,294.611,15,315.949,15c37.284,0,67.617,30.328,67.617,67.605c0,81.551-105.99,152.529-127.504,166.091   c-9.67-6.079-36.287-23.64-62.522-48.355c-29.64-27.924-64.973-71.017-64.973-117.735c0-13.32,3.88-26.215,11.222-37.289   c2.289-3.453,1.345-8.106-2.107-10.395c-3.451-2.29-8.107-1.345-10.395,2.107c-8.976,13.54-13.72,29.3-13.72,45.577   c0,23.196,7.44,47.251,22.114,71.5c11.521,19.038,27.527,38.268,47.574,57.153c33.919,31.954,67.596,51.875,69.013,52.708   c1.172,0.689,2.486,1.034,3.8,1.034c1.305,0,2.611-0.34,3.779-1.021c0.342-0.2,34.609-20.331,68.862-52.56   C348.797,192.517,364.839,173.27,376.388,154.213z"/>
</g>















</svg>
