<svg height="496pt" viewBox="-36 0 496 496" width="496pt" xmlns="http://www.w3.org/2000/svg"><path d="m370.816406 50.105469-18.816406-5.792969-40-12.3125h-208l-52.238281 17.414062c-26.136719 8.714844-43.761719 33.160157-43.761719 60.714844v281.871094h64v96h80c22.097656 0 40-17.902344 40-40v3h.289062c.566407 4.808594 1.957032 9.496094 4.136719 13.839844 7.09375 14.199218 21.597657 23.160156 37.460938 23.160156h118.113281v-96h64v-280.734375c0-28.097656-18.328125-52.90625-45.183594-61.160156zm0 0" fill="#ff826e"/><path d="m208 168-72-56 24-24-32-8-24-56 40-16h128l40 16-24 56-32 8 24 24zm0 0" fill="#e6e9ed"/><path d="m272 8c-10.585938 52.9375-30.191406 103.664062-57.976562 149.960938l-6.023438 10.039062-6.023438-10.039062c-27.785156-46.296876-47.390624-97.023438-57.976562-149.960938zm0 0" fill="#e9573f"/><path d="m320 248-32 16-32-16v-48h64zm0 0" fill="#e6e9ed"/><path d="m72 392h-16l16-304zm0 0" fill="#e9573f"/><path d="m352 392h16l-16-304zm0 0" fill="#e9573f"/><path d="m424 111.273438c0-31.808594-20.425781-59.464844-50.832031-68.816407l-53.335938-16.410156 2.753907-6.421875-49.050782-19.625h-131.070312l-49.050782 19.617188 2.808594 6.542968-46.992187 15.664063c-29.445313 9.816406-49.230469 37.265625-49.230469 68.304687v289.871094h64v96h88c16.976562 0 31.886719-8.878906 40.425781-22.222656 9.175781 13.832031 24.542969 22.222656 41.460938 22.222656h126.113281v-96h64zm-212.863281 39.117187-2.128907 3.730469-.167968-.28125c-25.703125-42.816406-44.0625-89.160156-54.871094-137.839844h108.175781c-9.9375 47.246094-27.039062 92.449219-51.007812 134.390625zm-48.609375-53.605469c5.59375 13.671875 11.816406 27.09375 18.671875 40.230469l-33.136719-25.769531zm91.679687.734375 13.730469 13.726563-30.503906 23.722656c6.132812-12.25 11.726562-24.746094 16.773437-37.449219zm7.121094-19.09375c6.769531-19.402343 12.304687-39.242187 16.542969-59.457031l23.535156 9.414062-19.199219 44.824219zm-123.097656-59.503906c4.488281 20.324219 10.265625 40.253906 17.304687 59.71875l-21.75-5.441406-19.199218-44.824219zm13.769531 461.078125h-72v-392h-16v296h-48v-273.871094c0-24.144531 15.382812-45.496094 38.289062-53.128906l48.253907-16.089844 19.664062 45.882813 22.144531 5.535156-20.414062 20.414063 75.253906 58.539062-15.191406 26.589844v248.242187c0 .628907.089844 1.253907.113281 1.886719h-.113281c0 17.648438-14.351562 32-32 32zm256-96h-48v-296h-16v392h-110.113281c-12.917969 0-24.535157-7.175781-30.3125-18.726562-2.34375-4.6875-3.574219-9.929688-3.574219-15.160157v-243.984375l18.273438-31.976562 73.789062-57.398438-20.414062-20.417968 22.144531-5.535157 19.703125-45.96875 54.976562 16.910157c23.640625 7.28125 39.527344 28.785156 39.527344 53.53125zm0 0"/><path d="m248 252.945312 40 20 40-20v-60.945312h-80zm16-44.945312h48v35.054688l-24 12-24-12zm0 0"/><path d="m216 224h16v16h-16zm0 0"/><path d="m216 288h16v16h-16zm0 0"/><path d="m216 352h16v16h-16zm0 0"/><path d="m216 416h16v16h-16zm0 0"/></svg>