<svg height="496pt" viewBox="-7 0 496 496" width="496pt" xmlns="http://www.w3.org/2000/svg"><path d="m397.839844 384h3.273437l72-16-42.234375-260.425781c-3.503906-21.671875-19.359375-39.285157-40.535156-45.0625l-13.230469-3.609375v158.167968c0 56.378907 7.0625 112.417969 20.726563 166.929688zm0 0" fill="#f0d0b4"/><path d="m401.113281 384 72-16-42.234375-260.425781c-3.511718-21.671875-19.359375-39.285157-40.535156-45.0625l-13.230469-3.609375-40-10.902344h-192l-40 10.902344-13.226562 3.609375c-21.175781 5.777343-37.03125 23.390625-40.542969 45.0625l-42.230469 260.425781 72 16h3.269531c-5.414062 21.59375-11.765624 42.96875-19.269531 64l1.285157.648438c51.769531 25.871093 108.839843 39.351562 166.714843 39.351562 2.933594-8.800781 5.597657-17.679688 8-26.617188v-.175781c.535157 2.007813 1.167969 3.992188 1.726563 6 1.945312 6.96875 3.976562 13.921875 6.273437 20.800781 57.871094 0 114.941407-13.480468 166.710938-39.351562l1.289062-.65625c-7.503906-21.03125-13.855469-42.40625-19.273437-64zm0 0" fill="#ecc19c"/><path d="m289.113281 96 40 32-8.210937 20.519531c-15.382813 38.472657-43.566406 70.464844-79.789063 90.585938-36.21875-20.128907-64.410156-52.121094-79.792969-90.585938l-8.207031-20.519531 40-32-64-24 48-64h128l48 64zm0 0" fill="#cf9e76"/><path d="m289.113281 8v43.761719c0 65.773437-16.503906 130.496093-48 188.238281-31.496093-57.742188-48-122.472656-48-188.238281v-43.761719zm0 0" fill="#e6e9ed"/><path d="m284.792969 108.761719c2.757812-18.824219 4.320312-37.859375 4.320312-57v-11.761719l-48 36zm0 0" fill="#ccd1d9"/><path d="m193.113281 51.761719c0 19.148437 1.558594 38.175781 4.328125 57l43.671875-32.761719-48-36zm0 0" fill="#ccd1d9"/><path d="m216.230469 94.65625 16.882812 33.34375h16l16.757813-33.433594-24.757813-18.566406zm0 0" fill="#ff826e"/><path d="m249.113281 128h-16l-16.472656 57.175781c6.792969 18.792969 14.839844 37.167969 24.472656 54.824219 9.628907-17.65625 17.679688-36.023438 24.472657-54.816406zm0 0" fill="#ff826e"/><path d="m89.113281 344 4 .71875c-2.5625 13.441406-5.441406 26.800781-8.800781 40.082031l-3.199219-.800781-72-16 6.558594-40.238281 1.441406.238281zm0 0" fill="#b27946"/><path d="m466.550781 327.761719 6.5625 40.238281-72 16-3.203125.800781c-3.359375-13.28125-6.238281-26.640625-8.796875-40.082031l4-.71875 72-16zm0 0" fill="#b27946"/><path d="m407.71875 390.726562 74.496094-16.558593-43.4375-267.871094c-4.007813-24.703125-22.191406-44.921875-46.335938-51.503906l-53.089844-14.472657-30.238281-40.320312h-136l-30.242187 40.320312-53.09375 14.480469c-24.144532 6.574219-42.328125 26.800781-46.335938 51.503907l-43.441406 267.871093 74.496094 16.558594c-4.871094 18.371094-10.496094 36.585937-16.929688 54.585937l-2.375 6.65625 7.625 3.832032c52.617188 26.296875 111.496094 40.191406 170.296875 40.191406h5.765625l1.824219-5.472656c.144531-.4375.257813-.902344.402344-1.34375.140625.449218.269531.894531.414062 1.34375l1.824219 5.472656h5.769531c58.796875 0 117.679688-13.894531 170.300781-40.199219l7.609376-3.832031-2.375-6.65625c-6.433594-18-12.054688-36.207031-16.929688-54.585938zm-3.789062-15.550781c-1.929688-8.039062-3.722657-16.097656-5.355469-24.191406l61.457031-13.65625 3.976562 24.503906zm-63.625-306.917969-44.769532 16.78125c.9375-11.0625 1.578125-22.160156 1.578125-33.277343v-35.761719h4zm-101.160157 67.742188h3.933594l14.027344 49.070312c-4.664063 12.664063-10 25.074219-15.984375 37.203126-5.984375-12.128907-11.320313-24.539063-15.984375-37.203126zm15.304688-60 26.527343-19.894531c-.144531 12.71875-.953124 25.40625-2.351562 38.03125zm1.246093 20.9375-11.527343 23.0625h-6.113281l-11.527344-23.0625 14.585937-10.9375zm-52.09375-2.800781c-1.410156-12.625-2.210937-25.3125-2.355468-38.03125l26.53125 19.894531zm9.910157 12.558593 11.046875 22.105469-8.3125 29.085938c-4.292969-14.992188-7.6875-30.222657-10.140625-45.640625zm52.457031 51.191407-8.3125-29.085938 11.046875-22.105469 7.410156 5.550782c-2.457031 15.417968-5.839843 30.648437-10.144531 45.640625zm15.144531-121.886719-40 30-40-30v-20h80zm-91.679687 73.183594c5.308594 36.558594 15.628906 72.296875 30.6875 106.0625-22.632813-18.398438-40.457032-42.398438-51.378906-69.695313l-6-15.015625zm103.359375 0 26.6875 21.351562-6 15.015625c-10.921875 27.296875-28.746094 51.296875-51.382813 69.695313 15.0625-33.765625 25.382813-69.503906 30.695313-106.0625zm-111.679688-93.183594h4v35.761719c0 11.125.640625 22.214843 1.566407 33.285156l-44.769532-16.78125zm-162.898437 345.832031 3.976562-24.503906 61.457032 13.65625c-1.632813 8.09375-3.425782 16.160156-5.351563 24.191406zm209.105468 118.121094c-52.535156-.847656-104.960937-13.242187-152.3125-35.992187 25.289063-73.144532 38.105469-149.441407 38.105469-226.890626v-97.070312h-16v97.070312c0 39.808594-3.511719 79.296876-10.394531 118.203126l-61.957031-13.769532 34.476562-212.640625c3-18.527343 16.648438-33.6875 34.753907-38.625l33.246093-9.0625-10.925781 14.578125 60.816406 22.804688-33.640625 26.914062 10.414063 26.03125c14.28125 35.703125 39.394531 66.207032 71.378906 87.273438l-8.167969 4.519531v96.808594c0 40.972656 5.34375 81.542969 15.742188 121.023437-1.726563 6.304688-3.550781 12.625-5.535157 18.824219zm27.582032 0c-14.460938-45.265625-21.789063-92.289063-21.789063-139.847656v-87.402344l11.886719-6.597656c37.710938-20.953125 67.3125-54.554688 83.335938-94.609375l10.40625-26.03125-33.636719-26.914063 60.816406-22.808593-10.929687-14.574219 33.246093 9.0625c18.105469 4.9375 31.746094 20.097656 34.753907 38.625l34.480468 212.640625-61.960937 13.769531c-6.886719-38.898437-10.398438-78.386719-10.398438-118.195313v-97.070312h-16v97.070312c0 77.457032 12.816407 153.746094 38.101563 226.890626-47.367188 22.757812-99.78125 35.144531-152.3125 35.992187zm0 0"/><path d="m297.113281 344h64v16h-64zm0 0"/><path d="m121.113281 344h64v16h-64zm0 0"/><path d="m249.113281 296h16v16h-16zm0 0"/><path d="m249.113281 336h16v16h-16zm0 0"/></svg>