<svg height="496pt" viewBox="0 0 496 496" width="496pt" xmlns="http://www.w3.org/2000/svg"><path d="m200 256v40h-21.761719c-15.277343 0-28.398437-10.800781-31.359375-25.761719l-2.878906-14.238281zm0 0" fill="#dfb28b"/><path d="m264 296c0 8.800781 7.199219 16 16 16h16c-4.398438 0-8 3.601562-8 8 0 13.28125 10.71875 24 24 24h-32c-4.398438 0-8.398438 1.761719-11.28125 4.71875-2.957031 2.882812-4.71875 6.882812-4.71875 11.28125 0 8.800781 7.199219 16 16 16-4.398438 0-8.398438 1.761719-11.28125 4.71875-1.117188 1.042969-2.078125 2.320312-2.796875 3.679688l-1.921875-.398438h-240c-8.800781 0-16-7.199219-16-16v-208c0-8.800781 7.199219-16 16-16h272v104h-16c-8.800781 0-16 7.199219-16 16zm0 0" fill="#cf9e76"/><path d="m264 264v80c0 4.398438-3.601562 8-8 8h-48c-4.398438 0-8-3.601562-8-8v-88h64zm0 0" fill="#838f9b"/><path d="m264 208v48h-216c-4.398438 0-8-3.601562-8-8v-40zm0 0" fill="#838f9b"/><path d="m264 184v24h-224v-24c0-4.398438 3.601562-8 8-8h208c4.398438 0 8 3.601562 8 8zm0 0" fill="#aab2bd"/><path d="m488 320v144h-32v-144zm0 0" fill="#4fc1e9"/><g fill="#f0d0b4"><path d="m328 344c8.800781 0 16 7.199219 16 16 0 4.398438-1.761719 8.398438-4.71875 11.28125-2.882812 2.957031-6.882812 4.71875-11.28125 4.71875h-48c-8.800781 0-16-7.199219-16-16 0-4.398438 1.761719-8.398438 4.71875-11.28125 2.882812-2.957031 6.882812-4.71875 11.28125-4.71875zm0 0"/><path d="m328 376c8.800781 0 16 7.199219 16 16 0 4.398438-1.761719 8.398438-4.71875 11.28125-2.882812 2.957031-6.882812 4.71875-11.28125 4.71875h-48c-8.800781 0-16-7.199219-16-16 0-2.71875.71875-5.359375 1.921875-7.601562.71875-1.359376 1.679687-2.636719 2.796875-3.679688 2.882812-2.957031 6.882812-4.71875 11.28125-4.71875zm0 0"/><path d="m328 440c8.800781 0 16 7.199219 16 16 0 4.398438-1.761719 8.398438-4.71875 11.28125-2.882812 2.957031-6.882812 4.71875-11.28125 4.71875h-48c-8.800781 0-16-7.199219-16-16 0-4.398438 1.761719-8.398438 4.71875-11.28125 2.882812-2.957031 6.882812-4.71875 11.28125-4.71875zm0 0"/><path d="m328 408c8.800781 0 16 7.199219 16 16 0 4.398438-1.761719 8.398438-4.71875 11.28125-2.882812 2.957031-6.882812 4.71875-11.28125 4.71875h-48c-8.800781 0-16-7.199219-16-16 0-4.398438 1.761719-8.398438 4.71875-11.28125 2.882812-2.957031 6.882812-4.71875 11.28125-4.71875zm0 0"/><path d="m384 472v-104l.238281-.558594c-10.558593-4.800781-20.238281-11.441406-28.558593-19.761718l-3.679688-3.679688h-40c-13.28125 0-24-10.71875-24-24 0-4.398438 3.601562-8 8-8h98.640625c3.519531 0 6.878906 1.121094 9.597656 3.199219l23.523438 17.601562c2.71875 2.078125 6.078125 3.199219 9.597656 3.199219h18.640625v120h-32l-24 16zm0 0"/></g><path d="m355.679688 347.679688c8.320312 8.320312 18 14.960937 28.558593 19.761718l-.238281.558594v112c0 4.398438-3.601562 8-8 8h-48c-4.398438 0-8-3.601562-8-8v-8h8c4.398438 0 8.398438-1.761719 11.28125-4.71875 2.957031-2.882812 4.71875-6.882812 4.71875-11.28125 0-8.800781-7.199219-16-16-16 4.398438 0 8.398438-1.761719 11.28125-4.71875 2.957031-2.882812 4.71875-6.882812 4.71875-11.28125 0-8.800781-7.199219-16-16-16 4.398438 0 8.398438-1.761719 11.28125-4.71875 2.957031-2.882812 4.71875-6.882812 4.71875-11.28125 0-8.800781-7.199219-16-16-16 4.398438 0 8.398438-1.761719 11.28125-4.71875 2.957031-2.882812 4.71875-6.882812 4.71875-11.28125 0-8.800781-7.199219-16-16-16h24zm0 0" fill="#838f9b"/><path d="m392 248h16c8.800781 0 16 7.199219 16 16v32c0 8.800781-7.199219 16-16 16h-128c-8.800781 0-16-7.199219-16-16v-32c0-8.800781 7.199219-16 16-16h32v32h64v-32zm0 0" fill="#aab2bd"/><path d="m376 248v32h-64v-32zm0 0" fill="#ffeaa7"/><path d="m392 56v192h-32v-192c0-4.398438-1.761719-8.398438-4.71875-11.28125-2.882812-2.957031-6.882812-4.71875-11.28125-4.71875-8.800781 0-16 7.199219-16 16v192h-32v-192c0-26.480469 21.519531-48 48-48 13.28125 0 25.28125 5.359375 33.921875 14.078125 8.71875 8.640625 14.078125 20.640625 14.078125 33.921875zm0 0" fill="#e6e9ed"/><path d="m360 56v192h-32v-192c0-8.800781 7.199219-16 16-16 4.398438 0 8.398438 1.761719 11.28125 4.71875 2.957031 2.882812 4.71875 6.882812 4.71875 11.28125zm0 0" fill="#fcd770"/><path d="m448 328h-10.664062c-1.710938 0-3.414063-.566406-4.800782-1.601562l-12.792968-9.589844c7.273437-4.128906 12.257812-11.855469 12.257812-20.808594v-32c0-13.230469-10.769531-24-24-24h-8v-184c0-30.871094-25.121094-56-56-56s-56 25.128906-56 56v80h-32v-24c0-13.230469-10.769531-24-24-24h-128c-13.230469 0-24 10.769531-24 24v24h-56c-13.230469 0-24 10.769531-24 24v208c0 13.230469 10.769531 24 24 24h232c0 6.167969 2.40625 11.742188 6.238281 16-3.839843 4.257812-6.238281 9.832031-6.238281 16s2.40625 11.742188 6.238281 16c-3.839843 4.257812-6.238281 9.832031-6.238281 16 0 13.230469 10.769531 24 24 24h32c0 8.824219 7.175781 16 16 16h48c8.824219 0 16-7.175781 16-16h10.425781l24-16h21.574219v8h48v-160h-48zm-32-64v32c0 4.414062-3.59375 8-8 8h-128c-4.40625 0-8-3.585938-8-8v-32c0-4.414062 3.59375-8 8-8h24v32h80v-32h24c4.40625 0 8 3.585938 8 8zm-144 160c0-4.414062 3.59375-8 8-8h48c4.40625 0 8 3.585938 8 8s-3.59375 8-8 8h-48c-4.40625 0-8-3.585938-8-8zm0-32c0-4.414062 3.59375-8 8-8h48c4.40625 0 8 3.585938 8 8s-3.59375 8-8 8h-48c-4.40625 0-8-3.585938-8-8zm-224-144v-32h152v-16h-152v-16h208v16h-40v16h40v32h-16v16h16v80h-48v-80h16v-16zm144 40h-13.769531c-11.398438 0-21.292969-8.121094-23.535157-19.296875l-.933593-4.703125h38.238281zm144 72c0 4.414062-3.59375 8-8 8h-48c-4.40625 0-8-3.585938-8-8s3.59375-8 8-8h48c4.40625 0 8 3.585938 8 8zm-56-24c-2.816406 0-5.488281.574219-8 1.472656v-18.953125c2.511719.90625 5.183594 1.480469 8 1.480469 0 5.855469 1.695312 11.273438 4.449219 16zm40-80h48v16h-48zm32-16h-16v-184c0-4.414062 3.59375-8 8-8s8 3.585938 8 8zm-8-224c22.054688 0 40 17.945312 40 40v184h-16v-184c0-13.230469-10.769531-24-24-24s-24 10.769531-24 24v184h-16v-184c0-22.054688 17.945312-40 40-40zm-248 96c0-4.414062 3.59375-8 8-8h128c4.40625 0 8 3.585938 8 8v24h-144zm-72 264c-4.40625 0-8-3.585938-8-8v-208c0-4.414062 3.59375-8 8-8h264v88h-8c-2.816406 0-5.488281.574219-8 1.472656v-57.472656c0-8.824219-7.175781-16-16-16h-208c-8.824219 0-16 7.175781-16 16v64c0 8.824219 7.175781 16 16 16h89.441406l1.566406 7.839844c3.726563 18.640625 20.222657 32.160156 39.222657 32.160156h13.769531v40c0 8.824219 7.175781 16 16 16h48c0 6.167969 2.40625 11.742188 6.238281 16zm256 88c-4.40625 0-8-3.585938-8-8s3.59375-8 8-8h48c4.40625 0 8 3.585938 8 8s-3.59375 8-8 8zm48 16c13.230469 0 24-10.769531 24-24 0-6.167969-2.40625-11.742188-6.238281-16 3.839843-4.257812 6.238281-9.832031 6.238281-16s-2.40625-11.742188-6.238281-16c3.839843-4.257812 6.238281-9.832031 6.238281-16s-2.40625-11.742188-6.238281-16c3.839843-4.257812 6.238281-9.832031 6.238281-16 0-1.894531-.273438-3.71875-.695312-5.496094 7.429687 7.207032 15.734374 13.183594 24.695312 17.824219v107.671875zm93.574219-32-24 16h-5.574219v-85.03125c10.214844 3.269531 20.96875 5.03125 32 5.03125v-16c-23.664062 0-45.902344-9.207031-62.625-25.9375l-6.054688-6.0625h-43.320312c-8.824219 0-16-7.175781-16-16h98.664062c1.710938 0 3.414063.566406 4.800782 1.601562l23.464844 17.589844c4.125 3.105469 9.238281 4.808594 14.398437 4.808594h10.671875v104zm42.425781-120h16v128h-16zm0 0"/><path d="m454.222656 214.222656 11.3125 11.3125c19.648438-19.648437 30.464844-45.757812 30.464844-73.535156s-10.816406-53.886719-30.464844-73.535156l-11.3125 11.3125c16.625 16.621094 25.777344 38.71875 25.777344 62.222656s-9.152344 45.601562-25.777344 62.222656zm0 0"/><path d="m431.601562 191.601562 11.308594 11.308594c13.601563-13.597656 21.089844-31.6875 21.089844-50.910156s-7.488281-37.3125-21.089844-50.910156l-11.308594 11.308594c10.574219 10.578124 16.398438 24.648437 16.398438 39.601562s-5.824219 29.023438-16.398438 39.601562zm0 0"/><path d="m420.289062 180.28125c7.550782-7.554688 11.710938-17.59375 11.710938-28.28125s-4.160156-20.726562-11.710938-28.28125l-11.3125 11.3125c4.527344 4.527344 7.023438 10.5625 7.023438 16.96875s-2.496094 12.441406-7.023438 16.96875zm0 0"/></svg>