<svg height="497pt" viewBox="0 0 497.36 497" width="497pt" xmlns="http://www.w3.org/2000/svg"><path d="m200 432.179688c0-8.800782 7.199219-16 16-16h8l.238281-.078126 14.160157 32.078126h-22.398438c-4.398438 0-8.398438-1.757813-11.28125-4.71875-2.957031-2.882813-4.71875-6.882813-4.71875-11.28125zm0 0" fill="#838f9b"/><path d="m168 368.179688c0-8.800782 7.199219-16 16-16h12.160156l14.078125 32h-26.238281c-4.398438 0-8.398438-1.757813-11.28125-4.71875-2.957031-2.882813-4.71875-6.882813-4.71875-11.28125zm0 0" fill="#838f9b"/><path d="m408 208.179688h77.039062c-3.757812 15.359374-10.878906 29.601562-20.800781 41.679687l-.238281-1.679687h-144l-48 40h-4.558594l-3.441406-24 24-64h-24l1.359375-8h142.640625l5.199219 1.921874zm0 0" fill="#e6e9ed"/><path d="m144 192.179688h80l-8 40h24v32h-72v24h-133.359375c-14.71875 0-26.640625-11.917969-26.640625-26.640626 0-8.398437 3.921875-16.320312 10.640625-21.359374l21.359375-16h72zm0 0" fill="#e6e9ed"/><path d="m384 248.179688 20 37.921874c-6.800781 1.359376-13.761719 2.078126-20.71875 2.078126h-111.28125l48-40zm0 0" fill="#fcd770"/><path d="m488 56.179688v127.28125c0 8.480468-1.039062 16.71875-2.960938 24.71875h-77.039062l5.199219-14.078126 50.800781-137.921874zm0 0" fill="#969faa"/><path d="m464.238281 249.859375 23.761719 150.320313h-24l-60-114.078126-20-37.921874h80zm0 0" fill="#969faa"/><path d="m267.441406 288.179688 28.558594 200h-32l-23.199219-162.238282 23.199219-61.761718zm0 0" fill="#fcd770"/><path d="m240.800781 325.941406 23.199219 162.238282h-8l-17.601562-40-14.160157-32.078126-14-31.921874-14.078125-32-28.160156-64v-24h72v64zm0 0" fill="#ccd1d9"/><path d="m288 200.179688-24 64-23.199219 61.761718-.800781-5.761718v-88h-24l16-80h40l-6.640625 40-1.359375 8zm0 0" fill="#fcd770"/><path d="m375.601562 72.179688h.398438c22.078125 0 40 17.921874 40 40 0 22.082031-17.921875 40-40 40h-256c-22.078125 0-40-17.917969-40-40 0-22.078126 17.921875-40 40-40h.398438c4-36 34.5625-64 71.601562-64 22.640625 0 42.800781 10.480468 56 26.800781 13.199219-16.320313 33.359375-26.800781 56-26.800781 37.039062 0 67.601562 28 71.601562 64zm0 0" fill="#e6e9ed"/><path d="m144 192.179688-32 32h-72c7.519531-10.078126 17.28125-18.078126 28.238281-23.519532 10.960938-5.519531 23.121094-8.480468 35.761719-8.480468zm0 0" fill="#69d6f4"/><path d="m497.359375 408.179688-24.664063-156.246094c15-19.601563 23.304688-43.738282 23.304688-68.472656v-135.28125h-37.574219l-50.425781 136.847656v-.847656h-96v16h90.414062l-5.894531 16h77.761719c-3.066406 8.535156-7.394531 16.601562-12.753906 24h-144.421875l-43.296875 36.074218-1.601563-11.1875 27.335938-72.886718h-26.101563l5.328125-32h97.230469c26.472656 0 48-21.527344 48-48 0-24.273438-18.121094-44.335938-41.535156-47.511719-7.28125-37.191407-39.878906-64.488281-78.464844-64.488281-21.160156 0-41.105469 8.25-56 22.90625-14.894531-14.65625-34.839844-22.90625-56-22.90625-38.585938 0-71.183594 27.296874-78.464844 64.488281-23.414062 3.175781-41.535156 23.238281-41.535156 47.511719 0 26.472656 21.527344 48 48 48h102.238281l-16 80h25.761719v16h-72v24h-125.335938c-10.289062 0-18.664062-8.375-18.664062-18.664063 0-5.839844 2.792969-11.429687 7.464844-14.9375l19.199218-14.398437h72.648438l32-32h52.6875v-16h-96c-27.167969 0-53.128906 12.792968-69.6875 34.273437l-20.457031 15.328125c-8.679688 6.511719-13.855469 16.878906-13.855469 27.734375 0 19.121094 15.542969 34.664063 34.664062 34.664063h128.121094l21.125 48.007812c-13.199218.054688-23.910156 10.792969-23.910156 23.992188 0 13.230468 10.769531 24 24 24h21.023438l7.207031 16.382812c-11.4375 1.824219-20.230469 11.671875-20.230469 23.617188 0 13.230468 10.769531 24 24 24h17.183594l17.601562 40h54.445313l-28.566407-200h106.617188c5.4375 0 10.863281-.535157 16.246094-1.320313l59.640625 113.320313zm-77.878906-208 50.105469-136h10.414062v119.28125c0 5.632812-.496094 11.222656-1.472656 16.71875zm-294.792969 0-16 16h-49.808594c12.679688-10.175782 28.617188-16 45.121094-16zm332.480469 56 21.480469 136h-9.816407l-71.574219-136zm-231.40625-32 16-80h-121.761719c-17.648438 0-32-14.351563-32-32 0-17.648438 14.351562-32 32-32 10.160156 0 19.496094 4.664062 25.601562 12.808593l12.796876-9.609375c-7.152344-9.519531-17.253907-15.816406-28.589844-18.144531 6.777344-28.445313 32.214844-49.054687 62.191406-49.054687 19.40625 0 37.542969 8.679687 49.777344 23.824218l6.222656 7.695313 6.222656-7.703125c12.234375-15.136719 30.371094-23.816406 49.777344-23.816406 29.976562 0 55.414062 20.609374 62.191406 49.046874-11.328125 2.328126-21.4375 8.625-28.589844 18.144532l12.796876 9.609375c6.105468-8.136719 15.441406-12.800781 25.601562-12.800781 17.648438 0 32 14.351562 32 32 0 17.648437-14.351562 32-32 32h-110.777344l-10.671875 64h21.898438l-28.449219 75.878906v-59.878906zm-41.761719 152c-4.414062 0-8-3.582032-8-8 0-4.414063 3.585938-8 8-8h6.945312l7.039063 16zm32 64c-4.414062 0-8-3.582032-8-8 0-4.414063 3.585938-8 8-8h3.105469l7.039062 16zm-40-153.679688v-14.320312h56v100.121093l5.328125-14.214843 14.34375 100.40625zm94.945312 193.679688-21.90625-153.320313 11.464844-30.574219 26.273438 183.894532zm112.335938-200h-89.175781l28.796875-24h56.273437l12.417969 23.585937c-2.769531.238281-5.546875.414063-8.3125.414063zm0 0"/><path d="m152 216.179688h16v16h-16zm0 0"/><path d="m184 216.179688h16v16h-16zm0 0"/></svg>