<svg height="496pt" viewBox="0 0 496 496" width="496pt" xmlns="http://www.w3.org/2000/svg"><path d="m248 464c0 13.28125 10.71875 24 24 24h-240c-13.28125 0-24-10.71875-24-24s10.71875-24 24-24h240c-13.28125 0-24 10.71875-24 24zm0 0" fill="#dfb28b"/><path d="m32 440c-13.28125 0-24 10.71875-24 24v-320c0-13.28125 10.71875-24 24-24h8v320zm0 0" fill="#dfb28b"/><path d="m264 120v320h-224v-320zm0 0" fill="#cf9e76"/><path d="m72 376h160v32h-160zm0 0" fill="#fcd770"/><path d="m210.640625 222.320312c-13.039063-18.398437-34.402344-30.320312-58.640625-30.320312-24.160156 0-45.519531 11.921875-58.558594 30.160156-8.480468 11.761719-13.441406 26.238282-13.441406 41.839844s4.960938 30 13.359375 41.761719c13.039063 18.316406 34.480469 30.238281 58.640625 30.238281s45.601562-11.921875 58.558594-30.238281c8.480468-11.761719 13.441406-26.242188 13.441406-41.761719s-4.960938-29.921875-13.359375-41.679688zm0 0" fill="#69d6f4"/><g fill="#e6e9ed"><path d="m296 40v48h-192v-80h160c17.679688 0 32 14.320312 32 32zm0 0"/><path d="m296 88v256c0 17.679688-14.320312 32-32 32v-256h-160v-32zm0 0"/><path d="m296 344v-304c0-17.679688 14.320312-32 32-32h160v368h-160c-17.679688 0-32-14.320312-32-32zm0 0"/></g><path d="m456 40v128h-24v-8c0-11.039062-4.480469-21.039062-11.679688-28.320312-7.28125-7.199219-17.28125-11.679688-28.320312-11.679688 13.28125 0 24-10.71875 24-24s-10.71875-24-24-24-24 10.71875-24 24 10.71875 24 24 24c-22.078125 0-40 17.921875-40 40v8h-24v-128zm0 0" fill="#ffeaa7"/><path d="m432 160v8h-80v-8c0-22.078125 17.921875-40 40-40 11.039062 0 21.039062 4.480469 28.320312 11.679688 7.199219 7.28125 11.679688 17.28125 11.679688 28.320312zm0 0" fill="#ff826e"/><path d="m416 96c0 13.253906-10.746094 24-24 24s-24-10.746094-24-24 10.746094-24 24-24 24 10.746094 24 24zm0 0" fill="#f0d0b4"/><path d="m152 344c44.113281 0 80-35.886719 80-80s-35.886719-80-80-80-80 35.886719-80 80 35.886719 80 80 80zm0-96c7.359375 0 14.664062-1 21.511719-2.519531 1.527343 5.894531 2.488281 12.105469 2.488281 18.519531s-.960938 12.625-2.488281 18.519531c-6.847657-1.519531-14.152344-2.519531-21.511719-2.519531s-14.664062 1-21.511719 2.519531c-1.527343-5.894531-2.488281-12.105469-2.488281-18.519531s.960938-12.625 2.488281-18.519531c6.847657 1.519531 14.152344 2.519531 21.511719 2.519531zm-16.070312-17.742188c5.085937-11.234374 11.511718-20.347656 16.070312-26.050781 4.566406 5.714844 10.992188 14.824219 16.078125 26.058594-5.222656 1.046875-10.652344 1.734375-16.078125 1.734375-5.40625 0-10.847656-.695312-16.070312-1.742188zm32.140624 67.484376c-5.085937 11.234374-11.511718 20.347656-16.070312 26.050781-4.566406-5.714844-10.992188-14.824219-16.078125-26.058594 5.222656-1.046875 10.652344-1.734375 16.078125-1.734375 5.40625 0 10.847656.695312 16.070312 1.742188zm-53.03125-10.8125c-8.320312 2.886718-15.03125 6.007812-19.023437 8.023437-5.09375-9.183594-8.015625-19.730469-8.015625-30.953125s2.921875-21.769531 8.015625-30.945312c3.992187 2.015624 10.703125 5.136718 19.023437 8.023437-1.878906 7.210937-3.039062 14.898437-3.039062 22.921875s1.160156 15.710938 3.039062 22.929688zm-9.359374 21.109374c3.585937-1.710937 8.625-3.917968 14.59375-6 3.832031 9 8.453124 16.808594 12.765624 23.097657-10.558593-3.289063-19.910156-9.273438-27.359374-17.097657zm65.28125 17.089844c4.3125-6.28125 8.925781-14.089844 12.757812-23.082031 5.96875 2.074219 11 4.289063 14.59375 5.992187-7.441406 7.832032-16.800781 13.808594-27.351562 17.089844zm37.023437-30.183594c-3.992187-2.015624-10.703125-5.136718-19.023437-8.023437 1.878906-7.210937 3.039062-14.898437 3.039062-22.921875s-1.160156-15.710938-3.039062-22.929688c8.320312-2.886718 15.03125-6.007812 19.023437-8.023437 5.09375 9.183594 8.015625 19.730469 8.015625 30.953125s-2.921875 21.769531-8.015625 30.945312zm-9.664063-74.984374c-3.585937 1.710937-8.625 3.917968-14.59375 6-3.832031-9-8.453124-16.808594-12.765624-23.097657 10.558593 3.289063 19.910156 9.273438 27.359374 17.097657zm-65.28125-17.089844c-4.3125 6.28125-8.925781 14.089844-12.757812 23.082031-5.96875-2.074219-11-4.289063-14.59375-5.992187 7.441406-7.832032 16.800781-13.808594 27.351562-17.089844zm0 0"/><path d="m64 416h176v-48h-176zm16-32h144v16h-144zm0 0"/><path d="m64 144h16v16h-16zm0 0"/><path d="m96 144h112v16h-112zm0 0"/><path d="m224 144h16v16h-16zm0 0"/><path d="m328 0c-13.128906 0-24.703125 6.449219-32 16.246094-7.296875-9.796875-18.871094-16.246094-32-16.246094h-168v112h-64c-17.648438 0-32 14.351562-32 32v320c0 17.648438 14.351562 32 32 32h240v-16c-8.824219 0-16-7.175781-16-16s7.175781-16 16-16v-64.808594c9.808594-2 18.222656-7.679687 24-15.4375 7.296875 9.796875 18.871094 16.246094 32 16.246094h168v-384zm-296 128v304c-5.855469 0-11.273438 1.695312-16 4.449219v-292.449219c0-8.824219 7.175781-16 16-16zm212.296875 352h-212.296875c-8.824219 0-16-7.175781-16-16s7.175781-16 16-16h212.296875c-2.738281 4.710938-4.296875 10.175781-4.296875 16s1.558594 11.289062 4.296875 16zm-196.296875-48v-304h208v304zm224-65.472656v-254.527344h-160v-96h152c13.230469 0 24 10.769531 24 24v304c0 10.414062-6.710938 19.214844-16 22.527344zm208 1.472656h-152c-13.230469 0-24-10.769531-24-24v-304c0-13.230469 10.769531-24 24-24h152zm0 0"/><path d="m320 176h144v-144h-144zm56-80c0-8.824219 7.175781-16 16-16s16 7.175781 16 16-7.175781 16-16 16-16-7.175781-16-16zm16 32c17.648438 0 32 14.351562 32 32h-64c0-17.648438 14.351562-32 32-32zm-56-80h112v112h-8c0-18.078125-10.046875-33.839844-24.855469-42.023438 5.457031-5.746093 8.855469-13.449218 8.855469-21.976562 0-17.648438-14.351562-32-32-32s-32 14.351562-32 32c0 8.527344 3.398438 16.230469 8.855469 21.976562-14.808594 8.183594-24.855469 23.945313-24.855469 42.023438h-8zm0 0"/><path d="m320 192h144v16h-144zm0 0"/><path d="m320 224h144v16h-144zm0 0"/><path d="m320 256h144v16h-144zm0 0"/><path d="m320 288h144v16h-144zm0 0"/><path d="m320 320h144v16h-144zm0 0"/><path d="m128 80h64v16h-64zm0 0"/><path d="m208 80h64v16h-64zm0 0"/><path d="m128 48h144v16h-144zm0 0"/></svg>