<svg height="496pt" viewBox="0 0 496 496" width="496pt" xmlns="http://www.w3.org/2000/svg"><path d="m256 312h56v64c0 26.480469-21.519531 48-48 48h-88v-72c0-4.398438 1.761719-8.398438 4.71875-11.28125 2.882812-2.957031 6.882812-4.71875 11.28125-4.71875 8.800781 0 16 7.121094 16 16v16.480469c.078125 8.640625 6.960938 15.519531 15.519531 15.519531h.480469c8.800781-.238281 16-7.601562 16-16.398438 0-25.28125 0-55.601562 0-55.601562zm0 0" fill="#e6e9ed"/><path d="m144 312v112h-88c-26.480469 0-48-21.519531-48-48v-64zm0 0" fill="#e6e9ed"/><g fill="#b4dd7f"><path d="m240 312v55.601562c0 8.796876-7.199219 16.160157-16 16.398438-.160156 0-.320312 0-.480469 0-8.558593 0-15.441406-6.878906-15.519531-15.519531v-16.480469c0-8.878906-7.199219-16-16-16-4.398438 0-8.398438 1.761719-11.28125 4.71875-2.957031 2.882812-4.71875 6.882812-4.71875 11.28125v88c0 8.800781 7.199219 16 16 16h224c4.640625 0 8.800781 2 11.679688 5.199219 2.71875 2.800781 4.320312 6.640625 4.320312 10.800781 0 4.398438-1.761719 8.398438-4.71875 11.28125-2.882812 2.957031-6.882812 4.71875-11.28125 4.71875h-392c-8.800781 0-16-7.199219-16-16 0-4.398438 1.761719-8.398438 4.71875-11.28125 2.882812-2.957031 6.882812-4.71875 11.28125-4.71875h104c8.800781 0 16-7.199219 16-16v-128zm0 0"/><path d="m77.359375 88c-8 0-15.519531 1.679688-22.238281 4.878906l-14.402344-50.480468c-.238281-.796876-.398438-1.597657-.558594-2.398438-.082031-.800781-.160156-1.601562-.160156-2.480469v-3.757812c0-9.839844 7.921875-17.761719 17.761719-17.761719 8.316406 0 15.519531 5.761719 17.359375 13.921875l12.878906 58.078125-.238281.960938c-3.203125-.640626-6.480469-.960938-9.839844-.960938zm0 0"/><path d="m40.160156 40c.160156.800781.320313 1.601562.558594 2.398438l14.402344 50.480468c-5.839844 2.5625-11.042969 6.242188-15.519532 10.722656-2.640624 2.636719-5.042968 5.519532-7.042968 8.71875l-.558594-.320312-21.921875-43.921875c-1.359375-2.636719-2.078125-5.679687-2.078125-8.636719 0-5.363281 2.160156-10.242187 5.679688-13.761718 3.519531-3.519532 8.398437-5.679688 13.761718-5.679688zm0 0"/></g><path d="m55.121094 92.878906c6.71875-3.199218 14.238281-4.878906 22.238281-4.878906h.5625c3.359375 0 6.636719.320312 9.839844.960938 17.4375 3.277343 32.160156 15.039062 39.117187 31.359374 1.199219 2.71875 2.160156 5.601563 2.882813 8.640626l5.597656 23.277343 7.601563 32.082031 1.519531 6.320313.320312 1.359375.71875 1.839844c-10.238281 3.921875-17.519531 13.839844-17.519531 25.519531v1.28125c0 2.238281.238281 4.480469.800781 6.640625l6.960938 27.757812c-4.640625-4.398437-10.800781-7.039062-17.683594-7.039062-4 0-7.917969.960938-11.519531 2.71875l-9.277344 4.640625c-.082031-.078125-.242188-.238281-.320312-.320313-4.320313-4.320312-10.320313-7.039062-16.960938-7.039062-2.480469 0-4.878906.398438-7.121094 1.121094l-8.878906-1.121094-35.921875-86.160156c-2.71875-6.480469-4.078125-13.441406-4.078125-20.480469 0-10.800781 3.121094-20.71875 8.558594-29.039063 2-3.199218 4.402344-6.082031 7.042968-8.71875 4.476563-4.480468 9.679688-8.160156 15.519532-10.722656zm0 0" fill="#fc6e51"/><path d="m192 248 .558594 1.761719c-3.4375 1.277343-6.398438 3.277343-8.957032 5.839843-4.722656 4.71875-7.601562 11.117188-7.601562 18.320313v2.878906c0 2.160157.238281 4.238281.800781 6.320313l7.199219 28.878906h-48l7.199219-28.878906c.5625-2.082032.800781-4.160156.800781-6.320313v-2.878906c0-7.203125-2.878906-13.601563-7.601562-18.320313-.238282-.242187-.398438-.402343-.636719-.5625l-6.960938-27.757812c-.5625-2.160156-.800781-4.402344-.800781-6.640625v-1.28125c0-11.679687 7.28125-21.597656 17.519531-25.519531 3.039063-1.199219 6.402344-1.839844 9.839844-1.839844 6.082031 0 11.839844 2 16.480469 5.519531 3.839844 2.800781 6.878906 6.71875 8.71875 11.28125.480468.960938.800781 2 1.121094 3.039063zm0 0" fill="#ff826e"/><path d="m269.28125 248 2.878906.71875c-1.921875.402344-3.839844 1.121094-5.601562 2l-9.277344 4.640625c-.082031-.078125-.242188-.238281-.320312-.320313-4.320313-4.320312-10.320313-7.039062-16.960938-7.039062-6.800781 0-12.960938 2.800781-17.28125 7.359375l-9.277344-4.640625c-3.601562-1.757812-7.519531-2.71875-11.519531-2.71875-3.363281 0-6.480469.640625-9.363281 1.761719l-.558594-1.761719-10.320312-36.160156c-.320313-1.039063-.640626-2.078125-1.121094-3.039063l1.839844-.800781c8.320312-14.320312 23.839843-24 41.601562-24 5.28125 0 10.398438.878906 15.121094 2.480469 15.277344 5.039062 27.199218 17.597656 31.277344 33.359375 1.042968 3.839844 1.601562 7.921875 1.601562 12.160156 0 5.601562-.960938 10.960938-2.71875 16zm0 0" fill="#ff826e"/><path d="m155.359375 192c-3.4375 0-6.800781.640625-9.839844 1.839844l-.71875-1.839844-.320312-1.359375c-.320313-2.160156-.480469-4.402344-.480469-6.640625 0-26.480469 21.519531-48 48-48s48 21.519531 48 48l-.878906 2.480469c-4.722656-1.601563-9.839844-2.480469-15.121094-2.480469-17.761719 0-33.28125 9.679688-41.601562 24l-1.839844.800781c-1.839844-4.5625-4.878906-8.480469-8.71875-11.28125-4.640625-3.519531-10.398438-5.519531-16.480469-5.519531zm0 0" fill="#ff826e"/><path d="m216.71875 282.878906 7.28125 29.121094h-40l-7.199219-28.878906c-.5625-2.082032-.800781-4.160156-.800781-6.320313v-2.878906c0-7.203125 2.878906-13.601563 7.601562-18.320313 2.558594-2.5625 5.519532-4.5625 8.957032-5.839843 2.882812-1.121094 6-1.761719 9.363281-1.761719 4 0 7.917969.960938 11.519531 2.71875l9.277344 4.640625c-4.160156 4.320313-6.71875 10.160156-6.71875 16.640625v5.039062c0 2 .238281 3.921876.71875 5.839844zm0 0" fill="#b4dd7f"/><path d="m296.800781 256c4.480469 4.640625 7.199219 10.878906 7.199219 17.921875v2.878906c0 2.160157-.238281 4.238281-.800781 6.320313l-7.199219 28.878906h-40l7.28125-29.121094c.480469-1.917968.71875-3.839844.71875-5.839844v-5.039062c0-6.480469-2.558594-12.320312-6.71875-16.640625l9.277344-4.640625c1.761718-.878906 3.679687-1.597656 5.601562-2 1.917969-.480469 3.917969-.71875 5.917969-.71875 7.203125 0 13.601563 2.878906 18.320313 7.601562.160156.160157.242187.238282.402343.398438zm0 0" fill="#b4dd7f"/><path d="m257.28125 255.359375c4.160156 4.320313 6.71875 10.160156 6.71875 16.640625v5.039062c0 2-.238281 3.921876-.71875 5.839844l-7.28125 29.121094h-32l-7.28125-29.121094c-.480469-1.917968-.71875-3.839844-.71875-5.839844v-5.039062c0-6.480469 2.558594-12.320312 6.71875-16.640625 4.320312-4.558594 10.480469-7.359375 17.28125-7.359375 6.640625 0 12.640625 2.71875 16.960938 7.039062.078124.082032.238281.242188.320312.320313zm0 0" fill="#a0d468"/><path d="m56.71875 282.878906 7.28125 29.121094h-40l-7.199219-28.878906c-.5625-2.082032-.800781-4.160156-.800781-6.320313v-2.878906c0-7.203125 2.878906-13.601563 7.601562-18.320313 4.71875-4.722656 11.117188-7.601562 18.320313-7.601562 4 0 7.917969.960938 11.519531 2.71875l9.277344 4.640625c-4.160156 4.320313-6.71875 10.160156-6.71875 16.640625v5.039062c0 2 .238281 3.921876.71875 5.839844zm0 0" fill="#b4dd7f"/><path d="m135.761719 255.039062c.238281.160157.398437.320313.636719.5625 4.722656 4.71875 7.601562 11.117188 7.601562 18.320313v2.878906c0 2.160157-.238281 4.238281-.800781 6.320313l-7.199219 28.878906h-40l7.28125-29.121094c.480469-1.917968.71875-3.839844.71875-5.839844v-5.039062c0-6.480469-2.558594-12.320312-6.71875-16.640625l9.277344-4.640625c3.601562-1.757812 7.519531-2.71875 11.519531-2.71875 6.882813 0 13.042969 2.640625 17.683594 7.039062zm0 0" fill="#b4dd7f"/><path d="m56.71875 282.878906c-.480469-1.917968-.71875-3.839844-.71875-5.839844v-5.039062c0-6.480469 2.558594-12.320312 6.71875-16.640625 2.722656-2.878906 6.242188-5.039063 10.160156-6.238281 2.242188-.722656 4.640625-1.121094 7.121094-1.121094 6.640625 0 12.640625 2.71875 16.960938 7.039062.078124.082032.238281.242188.320312.320313 4.160156 4.320313 6.71875 10.160156 6.71875 16.640625v5.039062c0 2-.238281 3.921876-.71875 5.839844l-7.28125 29.121094h-32zm0 0" fill="#a0d468"/><path d="m400 48c48.640625 0 88 46.558594 88 104 0 38.078125-17.28125 71.359375-43.121094 89.441406-8.160156-8.082031-17.359375-15.203125-27.277344-21.042968 22.238282-9.519532 38.398438-36.476563 38.398438-68.398438 0-39.761719-25.039062-72-56-72-2.71875 0-5.359375.238281-8 .71875v-32.320312c2.640625-.238282 5.28125-.398438 8-.398438zm0 0" fill="#838f9b"/><path d="m392 48.398438v15.601562h-96.078125c-.402344-5.199219-3.441406-9.761719-8.082031-12.078125l-31.679688-15.84375c-4.960937-2.476563-8.160156-7.597656-8.160156-13.277344 0-8.160156 6.640625-14.800781 14.800781-14.800781h129.199219zm0 0" fill="#ccd1d9"/><path d="m278.078125 248c-2 0-4 .238281-5.917969.71875l-2.878906-.71875c1.757812-5.039062 2.71875-10.398438 2.71875-16 0-4.238281-.558594-8.320312-1.601562-12.160156l1.601562-.398438c7.601562-4.402344 15.601562-8.082031 24-11.042968v-143.199219c0-.398438 0-.800781-.078125-1.199219h96.078125v144.398438c8.960938 3.121093 17.519531 7.121093 25.519531 12h.082031c9.917969 5.839843 19.117188 12.960937 27.277344 21.042968 11.28125 11.039063 20.722656 23.917969 27.921875 38.160156l-.800781.398438c-63.519531 0-142.71875-23.601562-175.199219-24-.160156-.160156-.242187-.238281-.402343-.398438-4.71875-4.722656-11.117188-7.601562-18.320313-7.601562zm0 0" fill="#e6e9ed"/><path d="m296.800781 256c32.480469.398438 111.679688 24 175.199219 24l.800781-.398438c9.757813 19.277344 15.199219 41.199219 15.199219 64.398438 0 48.320312-23.761719 91.039062-60.320312 117.199219-2.878907-3.199219-7.039063-5.199219-11.679688-5.199219h-224c-8.800781 0-16-7.199219-16-16v-16h88c26.480469 0 48-21.519531 48-48v-64h-16l7.199219-28.878906c.5625-2.082032.800781-4.160156.800781-6.320313v-2.878906c0-7.042969-2.71875-13.28125-7.199219-17.921875zm0 0" fill="#ffeaa7"/><path d="m424 328c0 8.835938-7.164062 16-16 16s-16-7.164062-16-16 7.164062-16 16-16 16 7.164062 16 16zm0 0" fill="#e6e9ed"/><path d="m376 408c0 8.835938-7.164062 16-16 16s-16-7.164062-16-16 7.164062-16 16-16 16 7.164062 16 16zm0 0" fill="#e6e9ed"/><path d="m448 480h16v16h-16zm0 0"/><path d="m480 480h16v16h-16zm0 0"/><path d="m72 272h16v16h-16zm0 0"/><path d="m232 272h16v16h-16zm0 0"/><path d="m408 320c1.40625 0 2.792969.367188 4 1.0625l8-13.847656c-3.632812-2.101563-7.785156-3.214844-12-3.214844-13.230469 0-24 10.769531-24 24s10.769531 24 24 24 24-10.769531 24-24h-16c0 4.40625-3.585938 8-8 8s-8-3.59375-8-8 3.585938-8 8-8zm0 0"/><path d="m384 408c0-13.230469-10.769531-24-24-24s-24 10.769531-24 24 10.769531 24 24 24 24-10.769531 24-24zm-32 0c0-4.40625 3.585938-8 8-8s8 3.59375 8 8-3.585938 8-8 8-8-3.59375-8-8zm0 0"/><path d="m496 152c0-61.761719-43.0625-112-96-112v-40h-137.167969c-12.59375 0-22.832031 10.238281-22.832031 22.832031 0 8.695313 4.832031 16.527344 12.617188 20.425781l31.597656 15.796876c2.335937 1.160156 3.785156 3.503906 3.785156 6.113281v137.664062c-4.457031 1.769531-8.800781 3.824219-13.070312 6.007813-5.496094-12.03125-15.113282-21.769532-27.058594-27.425782-1.367188-29.671874-25.871094-53.414062-55.871094-53.414062-20.238281 0-37.960938 10.832031-47.800781 26.96875l-6.648438-27.871094c-5.222656-21.851562-21.621093-38.335937-42.535156-44.417968l-12.121094-54.503907c-2.636719-11.878906-12.972656-20.175781-25.132812-20.175781-13.601563 0-24.65625 10.632812-25.585938 24h-4.761719c-15.117187 0-27.414062 12.304688-27.414062 27.414062 0 4.226563 1 8.457032 2.886719 12.265626l20.378906 40.746093c-4.625 8.621094-7.265625 18.453125-7.265625 28.910157 0 8.152343 1.585938 16.089843 4.71875 23.59375l32.050781 76.902343c-3.503906-1.183593-7.183593-1.832031-10.882812-1.832031-18.6875 0-33.886719 15.199219-33.886719 33.886719v2.921875c0 2.777344.34375 5.542968 1.015625 8.222656l4.746094 18.96875h-13.761719v72c0 30.878906 25.128906 56 56 56h80v8c0 4.40625-3.585938 8-8 8h-48v16h48c13.230469 0 24-10.769531 24-24v-64h-16v40h-80c-22.054688 0-40-17.945312-40-40v-56h120v40h16v-56h-5.761719l4.746094-18.960938c.671875-2.679687 1.015625-5.445312 1.015625-8.222656v-2.921875c0-8.804687-3.457031-16.765625-8.984375-22.796875l-6.441406-25.777344c-.382813-1.527343-.574219-3.105468-.574219-4.6875v-1.273437c0-10.671875 8.6875-19.359375 19.359375-19.359375 8.601563 0 16.257813 5.777344 18.617187 14.039062l9.054688 31.714844c-9.054688 6.085938-15.03125 16.421875-15.03125 28.132813v2.921875c0 2.777344.34375 5.542968 1.015625 8.222656l4.746094 18.96875h-5.761719v16h64l-.015625 47.585938c-.007813 4.429687-3.769531 8.285156-8.207031 8.414062-2.089844-.007812-4.007813-.6875-5.472656-2.105469-1.472657-1.421875-2.273438-3.335937-2.273438-5.40625l-.023438-16.503906c-.015624-13.222656-10.785156-23.984375-24.007812-23.984375-13.230469 0-24 10.769531-24 24v88c0 13.230469 10.769531 24 24 24h56v-16h-56c-4.414062 0-8-3.59375-8-8v-8h80c30.871094 0 56-25.121094 56-56v-72h-13.761719l4.746094-18.960938c.671875-2.679687 1.015625-5.445312 1.015625-8.222656v-2.921875c0-3.023437-.527344-5.902343-1.273438-8.695312 11.921876 1.542969 26.992188 4.410156 43.6875 7.609375 34.050782 6.519531 76.058594 14.503906 113.28125 15.085937 7.890626 17.289063 12.304688 36.320313 12.304688 56.105469 0 41.839844-19.480469 81.457031-52.328125 107.160156-3.472656-1.953125-7.414063-3.160156-11.671875-3.160156h-152v16h152c4.414062 0 8 3.59375 8 8s-3.585938 8-8 8h-392c-4.414062 0-8-3.59375-8-8s3.585938-8 8-8h40v-16h-40c-13.230469 0-24 10.769531-24 24s10.769531 24 24 24h392c13.230469 0 24-10.769531 24-24 0-3.121094-.640625-6.078125-1.726562-8.816406 36.261718-28.734375 57.726562-72.726563 57.726562-119.183594 0-38.414062-14.632812-74.433594-39.351562-101.777344 24.71875-21.039062 39.351562-53.984375 39.351562-90.222656zm-16 0c0 31.550781-13.257812 61.070312-34.777344 78.910156-3.992187-3.574218-8.175781-6.949218-12.558594-10.101562 19.144532-14.175782 31.335938-40.113282 31.335938-68.808594 0-44.113281-28.710938-80-64-80v-16c44.113281 0 80 43.0625 80 96zm-80-64c26.472656 0 48 28.710938 48 64 0 26.433594-12.113281 49.59375-30.359375 59.28125-5.664063-3.144531-11.519531-6.023438-17.640625-8.457031zm-169.761719 216-5.765625-23.070312c-.304687-1.273438-.472656-2.585938-.472656-3.882813v-5.046875c0-8.824219 7.175781-16 16-16s16 7.175781 16 16v5.046875c0 1.304687-.167969 2.609375-.480469 3.882813l-5.757812 23.070312zm-182.238281-270.238281c0-5.386719 4.375-9.761719 9.761719-9.761719 4.597656 0 8.511719 3.144531 9.511719 7.640625l10.757812 48.414063c-.238281 0-.464844-.054688-.703125-.054688-5.863281 0-11.519531.878906-16.894531 2.414062l-12.058594-42.222656c-.246094-.863281-.375-1.765625-.375-2.679687zm-30.792969 30.773437c-.792969-1.582031-1.207031-3.359375-1.207031-5.121094 0-6.292968 5.121094-11.414062 11.414062-11.414062h6.546876l11.695312 40.921875c-4.25 2.574219-8.199219 5.597656-11.695312 9.101563zm14.792969 76.800782c0-25 20.335938-45.335938 45.886719-45.335938 15.21875 0 28.816406 7.535156 37.089843 19.398438l-29.175781 8.335937 4.390625 15.386719 31.5625-9.015625c.0625.246093.175782.460937.230469.710937l3.785156 15.871094-47.96875 13.617188 4.375 15.390624 47.304688-13.429687 3.917969 16.4375-31.613282 9.03125 4.390625 15.386719 22.175781-6.335938c-5.128906 6.144532-8.351562 13.949219-8.351562 22.574219v1.273437c0 2.894532.359375 5.792969 1.0625 8.574219l2.839844 11.378907c-1.886719-.328126-3.804688-.585938-5.789063-.585938-5.234375 0-10.480469 1.238281-15.160156 3.574219l-4.59375 2.296875c-5.199219-3.671875-11.519531-5.871094-18.359375-5.871094-3.496094 0-6.792969.703125-9.945312 1.742188l-34.566407-82.972657c-2.320312-5.546875-3.488281-11.417969-3.488281-17.433593zm32.480469 139.59375c-.3125-1.273438-.480469-2.585938-.480469-3.882813v-5.046875c0-8.824219 7.175781-16 16-16s16 7.175781 16 16v5.046875c0 1.304687-.167969 2.609375-.480469 3.882813l-5.757812 23.070312h-19.523438zm-39.953125.222656c-.351563-1.417969-.527344-2.871094-.527344-4.335938v-2.921875c0-9.871093 8.023438-17.894531 17.886719-17.894531 2.761719 0 5.527343.65625 8 1.886719l1.210937.601562c-1.9375 4.121094-3.097656 8.671875-3.097656 13.511719v5.046875c0 2.609375.320312 5.21875.960938 7.761719l4.800781 19.191406h-23.523438zm81.710937 22.847656 4.800781-19.191406c.640626-2.542969.960938-5.152344.960938-7.761719v-5.046875c0-4.839844-1.160156-9.390625-3.097656-13.503906l1.210937-.601563c2.472657-1.238281 5.238281-1.886719 8-1.886719 9.863281-.007812 17.886719 8.015626 17.886719 17.878907v2.921875c0 1.472656-.175781 2.925781-.527344 4.335937l-5.710937 22.855469zm49.121094-120c-1.144531 0-2.214844.230469-3.328125.335938-.007812-.113282-.03125-.222657-.03125-.335938 0-22.054688 17.945312-40 40-40 19.496094 0 35.726562 14.039062 39.246094 32.519531-2.382813-.304687-4.78125-.519531-7.246094-.519531-16.472656 0-31.945312 7.40625-42.488281 19.703125-6.566407-7.222656-15.976563-11.703125-26.152344-11.703125zm34.472656 27.273438c7.238281-11.890626 20.222657-19.273438 34.167969-19.273438 22.054688 0 40 17.945312 40 40 0 4.128906-.710938 8.152344-1.9375 12.023438l-3.703125 1.847656c-5.199219-3.671875-11.519531-5.871094-18.359375-5.871094s-13.160156 2.199219-18.367188 5.871094l-4.59375-2.296875c-4.671874-2.335938-9.910156-3.574219-15.152343-3.574219-1.277344 0-2.496094.238281-3.742188.375zm-5.304687 69.878906c-.351563-1.417969-.527344-2.871094-.527344-4.335938v-2.921875c0-9.871093 8.023438-17.894531 17.886719-17.894531 2.761719 0 5.527343.65625 8 1.886719l1.210937.601562c-1.9375 4.121094-3.097656 8.671875-3.097656 13.511719v5.046875c0 2.609375.320312 5.21875.960938 7.761719l4.800781 19.191406h-23.523438zm119.472656 94.847656c0 22.054688-17.945312 40-40 40h-80v-64c0-4.414062 3.585938-8 8-8s8.007812 3.585938 8.007812 8l.023438 16.503906c.007812 6.425782 2.535156 12.417969 7.136719 16.871094 4.585937 4.457031 10.664062 6.808594 17.078125 6.617188 13.082031-.382813 23.738281-11.328126 23.746094-24.398438l.007812-47.59375h56zm-37.761719-72 4.800781-19.191406c.640626-2.542969.960938-5.152344.960938-7.761719v-5.046875c0-4.839844-1.160156-9.390625-3.097656-13.503906l1.210937-.601563c2.472657-1.238281 5.238281-1.886719 8-1.886719 9.863281-.007812 17.886719 8.015626 17.886719 17.878907v2.921875c0 1.472656-.175781 2.925781-.527344 4.335937l-5.710937 22.855469zm91.195313-46.910156c-23.257813-4.457032-43.53125-8.3125-57.554688-8.953125-5.613281-4.753907-12.71875-7.730469-20.558594-8.007813.382813-2.6875.679688-5.386718.679688-8.128906 0-2.519531-.222656-4.984375-.550781-7.414062 6.191406-3.347657 12.597656-6.328126 19.222656-8.675782l5.328125-1.886718v-142.023438h48v-16h-50.136719c-2.101562-4.761719-5.625-8.824219-10.488281-11.257812l-31.589844-15.789063c-2.335937-1.167969-3.785156-3.511719-3.785156-6.121094 0-3.769531 3.070312-6.832031 6.832031-6.832031h121.167969v40h-16v16h16v142.023438l5.328125 1.886718c29.488281 10.441406 53.640625 30.457032 69.609375 55.746094-33.609375-1.578125-70.859375-8.695312-101.503906-14.566406zm0 0"/></svg>