<svg height="496pt" viewBox="0 0 496 496" width="496pt" xmlns="http://www.w3.org/2000/svg"><path d="m232 8-16 112h-32l16-112zm0 0" fill="#ffeaa7"/><path d="m184 120h40c22.078125 0 40 17.921875 40 40 0 11.039062-4.480469 21.039062-11.679688 28.320312-7.28125 7.199219-17.28125 11.679688-28.320312 11.679688h-176c-13.28125 0-24-10.71875-24-24 0-6.640625 2.71875-12.640625 7.039062-16.960938 4.320313-4.320312 10.320313-7.039062 16.960938-7.039062h34.960938c-7.441407 0-14.160157-3.039062-19.039063-7.921875-4.882813-4.878906-7.921875-11.597656-7.921875-19.039063 0-12.398437 8.398438-23.117187 20.398438-26.160156l4.800781-1.199218c12.5625-3.121094 24.402343-8.398438 34.960937-15.441407 10.640625-7.039062 20.078125-15.839843 27.839844-26.238281l9.359375 9.359375c14.480469 14.480469 22.640625 34.160156 22.640625 54.640625zm0 0" fill="#e6e9ed"/><path d="m280 208v16c0 4.398438-3.601562 8-8 8h-256c-4.398438 0-8-3.601562-8-8v-16c0-4.398438 3.601562-8 8-8h256c4.398438 0 8 3.601562 8 8zm0 0" fill="#fcd770"/><path d="m252 360-9.28125 98.960938c-1.519531 16.480468-15.359375 29.039062-31.839844 29.039062h-133.757812c-16.480469 0-30.320313-12.558594-31.839844-29.039062l-21.28125-226.960938h240l-1.519531 15.839844-7.441407 80.082031zm0 0" fill="#ffeaa7"/><path d="m144 272c44.160156 0 80 35.839844 80 80s-35.839844 80-80 80-80-35.839844-80-80 35.839844-80 80-80zm0 0" fill="#e6e9ed"/><path d="m184 337.199219c0 4.480469-.878906 8.960937-2.71875 13.039062l-1.441406 3.363281-3.839844-1.601562-16-16-16 16-16-16-16 16-3.839844 1.601562-1.441406-3.363281c-1.839844-4.078125-2.71875-8.558593-2.71875-13.039062 0-9.199219 3.679688-17.4375 9.761719-23.4375 6-6.082031 14.238281-9.761719 23.4375-9.761719h13.601562c18.320313 0 33.199219 14.878906 33.199219 33.199219zm0 0" fill="#b4dd7f"/><path d="m179.839844 353.601562-13.519532 31.679688c-3.839843 8.957031-12.640624 14.71875-22.320312 14.71875s-18.480469-5.761719-22.320312-14.71875l-13.519532-31.679688 3.839844-1.601562 16-16 16 16 16-16 16 16zm0 0" fill="#ff826e"/><path d="m472 360-12.480469 100c-2 16-15.597656 28-31.757812 28h-216.882813c16.480469 0 30.320313-12.558594 31.839844-29.039062l9.28125-98.960938zm0 0" fill="#b4dd7f"/><path d="m488 336v16c0 4.398438-3.601562 8-8 8h-228l3.039062-32.078125.960938.078125h224c4.398438 0 8 3.601562 8 8zm0 0" fill="#a0d468"/><path d="m427.121094 280h20.878906c13.28125 0 24 10.71875 24 24 0 6.640625-2.71875 12.640625-7.039062 16.960938-4.320313 4.320312-10.320313 7.039062-16.960938 7.039062h-192l-.960938-.078125 7.441407-80.082031 1.519531.160156h92.878906c28.480469 0 56.722656-5.441406 83.121094-16 0 17.039062-4.558594 33.601562-12.878906 48zm0 0" fill="#e6e9ed"/><path d="m440 176c0 35.359375-28.640625 64-64 64h-16c0-35.359375 28.640625-64 64-64zm0 0" fill="#b4dd7f"/><path d="m360 224c0 13.253906-10.746094 24-24 24s-24-10.746094-24-24 10.746094-24 24-24 24 10.746094 24 24zm0 0" fill="#ff826e"/><path d="m144 408c12.929688 0 24.566406-7.671875 29.65625-19.550781l15.015625-35.035157c2.207031-5.167968 3.328125-10.621093 3.328125-16.230468 0-22.703125-18.480469-41.183594-41.183594-41.183594h-13.625c-22.710937 0-41.191406 18.480469-41.191406 41.183594 0 5.609375 1.121094 11.0625 3.335938 16.222656l15.007812 35.027344c5.089844 11.894531 16.726562 19.566406 29.65625 19.566406zm14.945312-25.855469c-2.5625 5.992188-8.433593 9.855469-14.945312 9.855469s-12.382812-3.863281-14.953125-9.855469l-10.757813-25.113281 9.710938-9.71875 16 16 16-16 9.710938 9.710938zm-21.761718-70.144531h13.625c13.886718 0 25.191406 11.304688 25.191406 25.183594 0 1.082031-.183594 2.121094-.320312 3.175781l-15.679688-15.671875-16 16-16-16-15.679688 15.679688c-.136718-1.054688-.320312-2.101563-.320312-3.183594 0-13.878906 11.304688-25.183594 25.183594-25.183594zm0 0"/><path d="m144 424c-39.695312 0-72-32.304688-72-72 0-16.558594 5.777344-32.742188 16.257812-45.550781l-12.386718-10.136719c-12.816406 15.664062-19.871094 35.441406-19.871094 55.6875 0 48.519531 39.480469 88 88 88 20.246094 0 40.023438-7.054688 55.6875-19.871094l-10.136719-12.386718c-12.808593 10.480468-28.992187 16.257812-45.550781 16.257812zm0 0"/><path d="m144 264c-20.246094 0-40.023438 7.054688-55.6875 19.871094l10.136719 12.386718c12.808593-10.480468 28.992187-16.257812 45.550781-16.257812 39.695312 0 72 32.304688 72 72 0 16.558594-5.777344 32.742188-16.257812 45.550781l12.386718 10.136719c12.816406-15.664062 19.871094-35.441406 19.871094-55.6875 0-48.519531-39.480469-88-88-88zm0 0"/><path d="m192 144h16v16h-16zm0 0"/><path d="m480 320h-4.449219c2.753907-4.726562 4.449219-10.144531 4.449219-16 0-17.648438-14.351562-32-32-32h-8.023438c5.261719-12.632812 8.023438-26.238281 8.023438-40v-11.816406l-10.976562 4.382812c-4.152344 1.664063-8.359376 3.144532-12.582032 4.539063 14.429688-13.167969 23.558594-32.074219 23.558594-53.105469v-8h-24c-26.863281 0-50.296875 14.816406-62.664062 36.671875-5.855469-7.648437-14.984376-12.671875-25.335938-12.671875-17.648438 0-32 14.351562-32 32 0 5.855469 1.695312 11.273438 4.449219 16h-36.449219c8.824219 0 16-7.175781 16-16v-16c0-8.824219-7.175781-16-16-16h-12.320312c7.632812-8.503906 12.320312-19.695312 12.320312-32 0-26.054688-20.878906-47.289062-46.785156-47.9375l16.007812-112.0625h-48.160156l-13.34375 93.40625c-4.109375-12.550781-11.078125-24.078125-20.6875-33.695312l-15.886719-15.894532-5.542969 7.382813c-14.386718 19.167969-35.105468 32.929687-58.34375 38.746093l-4.785156 1.191407c-15.585937 3.894531-26.472656 17.839843-26.472656 33.910156 0 6.992187 2.113281 13.480469 5.664062 18.953125h-5.664062c-17.648438 0-32 14.351562-32 32 0 5.855469 1.695312 11.273438 4.449219 16h-4.449219c-8.824219 0-16 7.175781-16 16v16c0 8.824219 7.175781 16 16 16h.710938l20.601562 219.734375c1.933594 20.671875 19.054688 36.265625 39.832031 36.265625h350.609375c20.132813 0 37.199219-15.0625 39.6875-35.039062l11.621094-92.960938h.9375c8.824219 0 16-7.175781 16-16v-16c0-8.824219-7.175781-16-16-16zm-56-136h7.433594c-3.898438 27.105469-27.265625 48-55.433594 48h-7.433594c3.898438-27.105469 27.265625-48 55.433594-48zm-104 40c0-8.824219 7.175781-16 16-16s16 7.175781 16 16-7.175781 16-16 16-16-7.175781-16-16zm36.921875 32c25.414063 0 50.34375-4.113281 74.285156-12.222656-1.328125 9.839844-4.414062 19.359375-8.941406 28.222656h-94.265625v16h120c8.824219 0 16 7.175781 16 16s-7.175781 16-16 16h-184.214844l6-64zm-134.144531-240-13.714844 96h-15.839844l13.714844-96zm-190.777344 160c0-8.824219 7.175781-16 16-16h128v-16h-93.046875c-10.449219 0-18.953125-8.503906-18.953125-18.953125 0-8.710937 5.902344-16.277344 14.351562-18.390625l4.785157-1.191406c23.824219-5.960938 45.34375-19.160156 61.480469-37.535156l3.101562 3.101562c11.175781 11.175781 18.015625 25.503906 19.785156 40.976562h-47.503906v16h104c17.648438 0 32 14.351563 32 32 0 17.648438-14.351562 32-32 32h-176c-8.824219-.007812-16-7.183593-16-16.007812zm-16 32h256l.007812 16h-256.007812zm61.144531 272c-12.464843 0-22.738281-9.351562-23.898437-21.761719l-20.460938-218.238281h222.429688l-20.460938 218.238281c-1.160156 12.402344-11.433594 21.761719-23.898437 21.761719zm374.421875-21.023438c-1.496094 11.984376-11.734375 21.023438-23.8125 21.023438h-184.859375c4.273438-5.71875 7.082031-12.632812 7.792969-20.265625l8.601562-91.734375h203.65625zm28.433594-106.976562h-219.214844l1.503906-16h217.710938zm0 0"/><path d="m296 272h16v16h-16zm0 0"/></svg>