<svg height="496pt" viewBox="0 0 496 496" width="496pt" xmlns="http://www.w3.org/2000/svg"><path d="m215.980469 384c0 57.4375-46.5625 104-104 104-57.441407 0-104-46.5625-104-104s46.558593-104 104-104c57.4375 0 104 46.5625 104 104zm0 0" fill="#e6e9ed"/><path d="m175.980469 384c0 35.347656-28.65625 64-64 64-35.347657 0-64-28.652344-64-64s28.652343-64 64-64c35.34375 0 64 28.652344 64 64zm0 0" fill="#ccd1d9"/><path d="m463.980469 31.679688v1.761718c0 4.320313-1.203125 8.480469-3.363281 12.160156l-44.636719 74.398438-.320313 1.121094-27.523437-8.480469c-1.359375-.402344-2.636719-.878906-3.917969-1.359375l33.917969-88.082031c3.523437-9.121094 12.320312-15.199219 22.160156-15.199219 6.5625 0 12.480469 2.640625 16.722656 6.960938 4.320313 4.238281 6.960938 10.160156 6.960938 16.71875zm0 0" fill="#dfb28b"/><path d="m384.21875 111.28125c1.28125.480469 2.558594.957031 3.917969 1.359375l27.523437 8.480469 22.320313 6.878906c15.4375 4.71875 26 19.039062 26 35.199219 0 10.160156-4.160157 19.359375-10.800781 26-6.640626 6.640625-15.839844 10.800781-26 10.800781h-211.199219c-17.683594 0-32-14.320312-32-32 0-8.800781 3.597656-16.800781 9.359375-22.640625 5.839844-5.757813 13.839844-9.359375 22.640625-9.359375h56c0-24.320312 14.316406-46.398438 36.558593-56.238281l35.441407-15.761719 5.039062 12.71875c6.480469 15.921875 19.199219 28.480469 35.199219 34.5625zm0 0" fill="#e6e9ed"/><path d="m487.980469 200v32h-320v-32zm0 0" fill="#ffeaa7"/><path d="m487.980469 232v16c0 88.398438-71.601563 160-160 160h-.242188c-1.519531-17.121094-9.039062-33.28125-21.28125-45.519531l-8.160156-8.160157c-11.117187-11.121093-20.316406-23.921874-27.277344-37.839843-6.960937-13.921875-11.679687-28.960938-13.921875-44.558594-.640625-4.5625-4.558594-7.921875-9.117187-7.921875-4.5625 0-8.480469 3.359375-9.121094 7.921875-3.761719 26.238281-14.640625 50.878906-31.199219 71.277344-.882812-2.078125-1.839844-4.160157-2.882812-6.160157-.957032-1.839843-1.917969-3.597656-2.957032-5.359374-1.28125-2.320313-2.640624-4.480469-4.160156-6.640626-.722656-1.117187-1.523437-2.160156-2.320312-3.199218-2.082032-2.800782-4.320313-5.519532-6.722656-8.078125-.878907-.960938-1.757813-1.921875-2.636719-2.800781-1.683594-1.679688-3.363281-3.28125-5.121094-4.800782-.960937-.878906-1.921875-1.679687-2.878906-2.480468-.082031 0-.082031-.078126-.082031-.078126-6.398438-17.363281-9.917969-36.082031-9.917969-55.601562v-16zm0 0" fill="#fcd770"/><path d="m327.738281 408c-1.519531-17.121094-9.039062-33.28125-21.28125-45.519531l-8.160156-8.160157c-11.117187-11.121093-20.316406-23.921874-27.277344-37.839843-6.960937-13.921875-11.679687-28.960938-13.921875-44.558594-.640625-4.5625-4.558594-7.921875-9.117187-7.921875-4.5625 0-8.480469 3.359375-9.121094 7.921875-3.761719 26.238281-14.640625 50.878906-31.199219 71.277344-3.121094 3.839843-6.480468 7.601562-10 11.121093l-8.160156 8.160157c-5.601562 5.597656-10.160156 11.917969-13.601562 18.878906-.878907 1.601563-1.601563 3.28125-2.320313 4.960937-3.679687 8.878907-5.597656 18.398438-5.597656 28.160157v.398437c.078125 16.800782 5.839843 32.242188 15.4375 44.640625 13.441406 17.28125 34.480469 28.480469 58.082031 28.480469h12.957031c20.242188 0 38.640625-8.238281 52-21.519531 13.28125-13.359375 21.523438-31.761719 21.523438-52 0-2.160157-.082031-4.320313-.242188-6.480469zm0 0" fill="#e6e9ed"/><path d="m283.820312 385.121094-8.160156-8.160156c-10.722656-10.722657-20-22.882813-27.679687-36-7.683594 13.117187-16.960938 25.277343-27.683594 36l-8.160156 8.160156c-7.839844 7.839844-12.15625 18.238281-12.15625 29.359375 0 6.398437 1.4375 12.480469 4.078125 17.839843 6.640625 14 20.960937 23.679688 37.441406 23.679688h12.957031c22.882813 0 41.523438-18.640625 41.523438-41.519531 0-11.121094-4.320313-21.519531-12.160157-29.359375zm0 0" fill="#ccd1d9"/><path d="m127.980469 144-17.84375 31.28125c-9.277344 16.160156-14.15625 34.558594-14.15625 53.199219 0 12.878906 2.316406 25.679687 6.878906 37.757812l5.199219 13.839844c-28.320313 1.042969-53.761719 13.441406-71.839844 32.800781 6.078125-6.71875 10.960938-14.480468 14.320312-22.800781 3.519532-8.636719 5.441407-17.839844 5.441407-27.359375 0-9.679688-1.921875-19.359375-5.683594-28.320312l-34.316406-82.398438h4.238281c10.960938 0 21.441406 3.121094 30.398438 8.640625 8.960937 5.597656 16.402343 13.597656 21.363281 23.359375l7.519531-12.558594c5.117188-8.5625 12.320312-15.363281 20.636719-20.082031 8.320312-4.800781 17.921875-7.359375 27.84375-7.359375zm0 0" fill="#a0d468"/><path d="m143.980469 384c0 17.671875-14.328125 32-32 32-17.675781 0-32-14.328125-32-32s14.324219-32 32-32c17.671875 0 32 14.328125 32 32zm0 0" fill="#e6e9ed"/><path d="m55.980469 384c0-15.761719 6.757812-30.902344 18.550781-41.542969l-10.71875-11.871093c-15.144531 13.660156-23.832031 33.132812-23.832031 53.414062 0 38.910156 30.484375 70.488281 69.40625 71.871094l.566406-15.984375c-30.261719-1.078125-53.972656-25.628907-53.972656-55.886719zm0 0"/><path d="m111.980469 408c-13.234375 0-24-10.769531-24-24 0-7.367188 3.421875-14.246094 9.398437-18.878906l-9.800781-12.640625c-9.917969 7.679687-15.597656 19.167969-15.597656 31.519531 0 22.054688 17.941406 40 40 40 2.054687 0 4.039062-.273438 6.015625-.574219l-2.433594-15.816406c-1.175781.183594-2.351562.390625-3.582031.390625zm0 0"/><path d="m111.980469 344c-2.058594 0-4.042969.273438-6.019531.574219l2.433593 15.816406c1.175781-.183594 2.351563-.390625 3.585938-.390625 13.230469 0 24 10.769531 24 24 0 7.367188-3.425781 14.246094-9.402344 18.878906l9.800781 12.640625c9.917969-7.679687 15.601563-19.167969 15.601563-31.519531 0-22.054688-17.945313-40-40-40zm0 0"/><path d="m281.347656 371.304688c-2.761718-2.753907-5.417968-5.609376-7.976562-8.542969l-12.082032 10.484375c2.800782 3.234375 5.714844 6.363281 8.746094 9.386718l8.113282 8.121094c6.246093 6.238282 9.832031 14.878906 9.832031 23.710938 0 18.136718-14.1875 32.847656-32.296875 33.511718l.582031 15.984376c26.753906-.976563 47.714844-22.722657 47.714844-49.496094 0-13.03125-5.289063-25.808594-14.507813-35.03125zm0 0"/><path d="m207.980469 414.464844c0-8.832032 3.582031-17.472656 9.820312-23.722656l8.113281-8.109376c3.03125-3.03125 5.945313-6.160156 8.746094-9.394531l-12.082031-10.484375c-2.558594 2.933594-5.214844 5.796875-7.976563 8.550782l-8.117187 8.121093c-9.21875 9.230469-14.503906 22.007813-14.503906 35.039063 0 26.78125 20.957031 48.519531 47.703125 49.503906l.582031-15.984375c-18.101563-.671875-32.285156-15.390625-32.285156-33.519531zm0 0"/><path d="m461.433594 192c6.570312-7.800781 10.546875-17.847656 10.546875-28.816406 0-19.792969-12.714844-37.007813-31.632813-42.832032l-12.882812-3.960937 39.992187-66.648437c2.960938-4.925782 4.523438-10.566407 4.523438-16.308594v-1.722656c0-17.488282-14.226563-31.710938-31.714844-31.710938-13.023437 0-24.917969 8.167969-29.597656 20.328125l-30.808594 80.105469c-10.519531-5.929688-18.785156-15.25-23.375-26.722656l-8.160156-20.390626-43.042969 19.128907c-22.613281 10.054687-37.902344 31.351562-40.71875 55.558593h-48.582031c-22.058594 0-40 17.945313-40 40 0 9.039063 3.125 17.296876 8.207031 24h-24.207031v56c0 12.542969 1.535156 24.871094 4.246093 36.945313-15.328124-8.074219-32.585937-12.6875-50.679687-12.9375l-3.222656-8.566406c-4.210938-11.226563-6.34375-22.976563-6.34375-34.953125 0-17.257813 4.519531-34.296875 13.085937-49.28125l24.695313-43.214844h-13.78125c-22.539063 0-43.738281 12-55.328125 31.328125l-.898438 1.496094c-12.328125-15.566407-31.101562-24.824219-51.550781-24.824219h-16.222656l38.949219 93.480469c3.351562 8.039062 5.050781 16.535156 5.050781 25.246093 0 16.496094-6.53125 32.65625-18.394531 45.511719-22.582032 24.503907-33.007813 57.664063-28.589844 90.976563 6.605468 49.992187 47.816406 90.386718 97.972656 96.050781 4.304688.488281 8.601562.726563 12.875.726563 25.894531-.007813 50.832031-8.902344 70.847656-25.222657 14.847656 15.511719 35.703125 25.230469 58.824219 25.230469h12.917969c44.578125 0 80.863281-35.96875 81.480468-80.398438 88.945313-4.195312 160.066407-77.648437 160.066407-167.601562v-56zm-35.839844-165.929688c2.320312-6.023437 8.21875-10.070312 14.671875-10.070312 8.664063 0 15.714844 7.046875 15.714844 15.710938v1.722656c0 2.839844-.777344 5.636718-2.242188 8.078125l-42.023437 70.03125-16.984375-5.222657zm-233.613281 141.929688c0-13.230469 10.765625-24 24-24h96v-16h-31.386719c2.703125-17.878906 14.34375-33.449219 31.191406-40.9375l27.847656-12.375 1.992188 4.976562c7.839844 19.617188 23.929688 34.433594 44.121094 40.640626l49.894531 15.351562c12.171875 3.734375 20.339844 14.808594 20.339844 27.527344 0 15.886718-12.929688 28.816406-28.816407 28.816406h-211.183593c-13.234375 0-24-10.769531-24-24zm-91.210938 311.359375c-42.957031-4.839844-78.246093-39.4375-83.917969-82.230469-3.785156-28.59375 5.144532-57.039062 24.496094-78.039062 14.597656-15.824219 22.632813-35.84375 22.632813-56.363282 0-10.832031-2.113281-21.390624-6.28125-31.398437l-29.457031-70.6875c15.703124 2.519531 29.296874 12.359375 36.578124 26.933594l6.511719 13.035156 15.03125-25.058594c6.03125-10.054687 15.519531-17.472656 26.40625-21.085937l-9.605469 16.816406c-9.929687 17.398438-15.183593 37.183594-15.183593 57.214844 0 13.902344 2.476562 27.550781 7.367187 40.558594l7.261719 19.335937 7.59375-.3125c.589844-.03125 1.175781-.078125 1.777344-.078125 36.957031 0 70.199219 20.984375 86.246093 53.894531-2.023437 2.320313-4.070312 4.609375-6.246093 6.785157l-8.121094 8.121093c-1.3125 1.3125-2.503906 2.710938-3.710937 4.085938-9.296876-27.605469-34.761719-47.671875-65.578126-48.765625l-.566406 15.984375c28.847656 1.03125 51.6875 23.390625 53.765625 51.6875-4.757812 10.101562-7.40625 21.136719-7.695312 32.589843-2.894531 4.875-6.414063 9.335938-10.65625 13.160157l10.71875 11.871093c.914062-.8125 1.632812-1.789062 2.496093-2.652343 2.160157 8.382812 5.601563 16.246093 10.136719 23.367187-20.015625 16.4375-45.816406 24.207032-72 21.230469zm153.671875.640625h-12.917968c-36.144532 0-65.542969-29.398438-65.542969-65.535156 0-10.792969 2.605469-21.175782 7.492187-30.464844h.507813c0-.289062-.042969-.566406-.042969-.855469 2.976562-5.449219 6.730469-10.511719 11.242188-15.023437l8.109374-8.121094c23.363282-23.367188 38.808594-54.238281 43.472657-86.945312.089843-.597657.609375-1.054688 1.21875-1.054688.605469 0 1.125.457031 1.214843 1.054688 4.664063 32.707031 20.109376 63.578124 43.472657 86.945312l8.117187 8.121094c12.378906 12.375 19.195313 28.832031 19.195313 46.34375 0 36.136718-29.402344 65.535156-65.539063 65.535156zm80.152344-80.335938c-2.941406-16.144531-10.648438-31.007812-22.496094-42.863281l-8.117187-8.113281c-20.929688-20.933594-34.761719-48.597656-38.953125-77.894531-1.207032-8.433594-8.535156-14.792969-17.046875-14.792969-8.523438 0-15.851563 6.359375-17.050781 14.792969-2.917969 20.421875-10.613282 39.992187-22.046876 57.101562-6.417968-11.101562-14.585937-20.847656-24.070312-28.972656-5.808594-16.320313-8.832031-33.425781-8.832031-50.921875v-8h248v-16h-248v-16h304v16h-40v16h40v8c0 81.574219-64.648438 148.167969-145.386719 151.664062zm0 0"/><path d="m357.980469 364.207031 4 15.488281c38.550781-9.960937 70.726562-36.261718 88.277343-72.175781l-14.375-7.03125c-15.496093 31.703125-43.886718 54.925781-77.902343 63.71875zm0 0"/><path d="m441.980469 285.503906 15.191406 5c1.832031-5.550781 3.3125-11.28125 4.398437-17.007812l-15.71875-2.984375c-.953124 5.03125-2.257812 10.082031-3.871093 14.992187zm0 0"/><path d="m343.980469 128h16v16h-16zm0 0"/><path d="m415.980469 160h16v16h-16zm0 0"/><path d="m207.980469 160h16v16h-16zm0 0"/><path d="m287.980469 160h16v16h-16zm0 0"/></svg>