<svg height="496pt" viewBox="0 0 496.368 496" width="496pt" xmlns="http://www.w3.org/2000/svg"><path d="m288 384.183594c0 2.640625.320312 5.28125.960938 7.761718l-.960938.238282h-264c-8.800781 0-16-7.199219-16-16 0-4.398438 1.761719-8.398438 4.71875-11.28125 2.882812-2.957032 6.882812-4.71875 11.28125-4.71875h272l1.359375 1.359375c-5.757813 5.839843-9.359375 13.839843-9.359375 22.640625zm0 0" fill="#fcd770"/><path d="m294.160156 402.984375-9.679687 58.480469c-2.558594 15.4375-15.921875 26.71875-31.601563 26.71875h-185.757812c-15.679688 0-29.042969-11.28125-31.601563-26.71875l-11.519531-69.28125h264l.960938-.238282c1.039062 4 2.800781 7.757813 5.199218 11.039063zm0 0" fill="#e6e9ed"/><path d="m248 104.183594 1.441406 32h237.117188l1.441406-32zm0 0" fill="#ccd1d9"/><path d="m448 136.183594h-198.558594l2.078125 46c8-4.398438 29.441407-14 60.480469-14 15.28125 0 36.320312 4.640625 59.199219 10.480468 37.121093 9.28125 79.121093 21.519532 108.800781 21.519532l3.601562.160156 2.957032-64.160156zm0 0" fill="#e6e9ed"/><path d="m395.519531 456.183594h.960938 59.519531c17.679688 0 32 14.320312 32 32h-136c17.679688 0 32-14.320313 32-32zm0 0" fill="#838f9b"/><g fill="#ff826e"><path d="m480 200.183594c-29.679688 0-71.679688-12.238282-108.800781-21.519532-22.878907-5.839843-43.917969-10.480468-59.199219-10.480468-31.039062 0-52.480469 9.601562-60.480469 14l3.839844 84.480468c1.761719 1.761719 3.199219 3.761719 4.402344 5.921876 1.4375-.160157 2.796875-.402344 4.238281-.402344 17.679688 0 32 14.320312 32 32 0 10-4.640625 18.800781-11.839844 24.71875 2.398438 4.5625 3.839844 9.761718 3.839844 15.28125 0 5.839844-1.519531 11.28125-4.320312 16h12.320312l1.359375 1.359375c5.839844-5.757813 13.839844-9.359375 22.640625-9.359375 1.441406 0 2.878906.082031 4.320312.320312 5.441407-9.679687 15.679688-16.320312 27.679688-16.320312s22.320312 6.640625 27.761719 16.402344c1.4375-.160157 2.796875-.402344 4.238281-.402344 17.679688 0 32 14.320312 32 32 0 10-4.640625 18.800781-11.839844 24.71875 2.398438 4.5625 3.839844 9.761718 3.839844 15.28125 0 14.960937-10.238281 27.441406-24.078125 30.960937 0 .398438.078125.640625.078125 1.039063h11.519531.960938c42.398437-.480469 77.039062-34 78.960937-76.398438l8.160156-179.441406zm0 0"/><path d="m136 264.183594c17.679688 0 32 14.320312 32 32 0 1.121094-.078125 2.160156-.160156 3.28125-1.679688 16.160156-15.28125 28.71875-31.839844 28.71875-.398438 0-.71875-.078125-1.121094-.078125-3.519531 13.839843-15.917968 24.078125-30.878906 24.078125-5.519531 0-10.558594-1.519532-15.121094-3.917969-5.839844 7.277344-14.800781 11.917969-24.878906 11.917969-17.679688 0-32-14.320313-32-32 0-1.441406.078125-2.878906.320312-4.320313-9.679687-5.4375-16.320312-15.679687-16.320312-27.679687s6.640625-22.320313 16.398438-27.757813c-.160157-1.441406-.398438-2.800781-.398438-4.242187 0-17.679688 14.320312-32 32-32 10 0 18.800781 4.640625 24.71875 11.839844 4.5625-2.398438 9.761719-3.839844 15.28125-3.839844 14.960938 0 27.441406 10.242187 30.960938 24.082031.398437 0 .640624-.082031 1.039062-.082031zm0 0"/><path d="m284.160156 328.902344c2.398438 4.5625 3.839844 9.761718 3.839844 15.28125 0 5.839844-1.519531 11.28125-4.320312 16h-103.359376c-2.71875-4.71875-4.320312-10.160156-4.320312-16 0-5.519532 1.519531-10.558594 3.921875-15.121094-7.28125-5.839844-11.921875-14.796875-11.921875-24.878906 0-1.597656.078125-3.121094.398438-4.640625 2.160156-15.519531 15.523437-27.359375 31.601562-27.359375 1.441406 0 2.878906.082031 4.320312.320312 5.441407-9.679687 15.679688-16.320312 27.679688-16.320312 9.359375 0 17.761719 4.082031 23.359375 10.480468 1.761719 1.761719 3.199219 3.761719 4.402344 5.921876 1.4375-.160157 2.796875-.402344 4.238281-.402344 17.679688 0 32 14.320312 32 32 0 10-4.640625 18.800781-11.839844 24.71875zm0 0"/><path d="m404.160156 408.902344c2.398438 4.5625 3.839844 9.761718 3.839844 15.28125 0 14.960937-10.238281 27.441406-24.078125 30.960937 0 .398438.078125.640625.078125 1.039063 0 17.679687-14.320312 32-32 32s-32-14.320313-32-32c0-.398438.078125-.71875.078125-1.121094-13.839844-3.519531-24.078125-15.917969-24.078125-30.878906 0-5.519532 1.519531-10.558594 3.921875-15.121094-2.242187-1.757812-4.160156-3.757812-5.761719-6.078125-2.398437-3.28125-4.160156-7.039063-5.199218-11.039063-.640626-2.480468-.960938-5.121093-.960938-7.761718 0-8.800782 3.601562-16.800782 9.359375-22.640625 5.839844-5.757813 13.839844-9.359375 22.640625-9.359375 1.441406 0 2.878906.082031 4.320312.320312 5.441407-9.679687 15.679688-16.320312 27.679688-16.320312s22.320312 6.640625 27.761719 16.402344c1.4375-.160157 2.796875-.402344 4.238281-.402344 17.679688 0 32 14.320312 32 32 0 10-4.640625 18.800781-11.839844 24.71875zm0 0"/></g><path d="m376 392.183594h-16c0 4.417968-3.59375 8-8 8s-8-3.582032-8-8h-16c0 13.230468 10.769531 24 24 24s24-10.769532 24-24zm0 0"/><path d="m232 336.183594c13.230469 0 24-10.769532 24-24h-16c0 4.417968-3.59375 8-8 8s-8-3.582032-8-8h-16c0 13.230468 10.769531 24 24 24zm0 0"/><path d="m96 296.183594c0-13.230469-10.769531-24-24-24v16c4.40625 0 8 3.585937 8 8 0 4.417968-3.59375 8-8 8v16c13.230469 0 24-10.769532 24-24zm0 0"/><path d="m456 448.183594h-9.910156c21.566406-15.144532 36.085937-39.695313 37.375-68.007813l12.902344-283.992187h-107.039063l8.894531-72.96875c.488282-4.007813 3.90625-7.03125 7.945313-7.03125h89.832031v-16h-89.832031c-12.113281 0-22.351563 9.074218-23.824219 21.097656l-9.136719 74.902344h-133.574219l7.039063 154.894531c-4.617187-1.855469-9.566406-2.894531-14.671875-2.894531-12.550781 0-24.320312 6.023437-31.832031 16.007812-.054688 0-.113281-.007812-.167969-.007812-11.519531 0-21.832031 4.96875-29.136719 12.785156-6.070312-10.960938-17.03125-18.6875-29.992187-20.289062-6.078125-14.375-20.3125-24.496094-36.871094-24.496094-4.6875 0-9.214844.839844-13.441406 2.34375-7.300782-6.597656-16.671875-10.34375-26.558594-10.34375-22.054688 0-40 17.945312-40 40v.167968c-9.984375 7.511719-16 19.28125-16 31.832032 0 12.558594 6.023438 24.328125 16.007812 31.832031 0 .054687-.007812.113281-.007812.167969 0 9.039062 3.128906 17.296875 8.207031 24h-8.207031c-13.230469 0-24 10.769531-24 24 0 10.792968 7.207031 19.839844 17.03125 22.847656l10.625 63.722656c3.222656 19.375 19.816406 33.429688 39.457031 33.429688h185.78125c19.640625 0 36.234375-14.054688 39.457031-33.429688l2.679688-16.066406c4.234375 6.160156 10.152344 11.136719 17.25 14.160156 2.3125 19.871094 19.238281 35.335938 39.71875 35.335938h144v-8c0-22.054688-17.945312-40-40-40zm-47.167969-1.246094c4.496094-6.472656 7.167969-14.296875 7.167969-22.753906 0-4.6875-.839844-9.207032-2.34375-13.441406 6.601562-7.300782 10.34375-16.664063 10.34375-26.558594 0-22.054688-17.945312-40-40-40-.054688 0-.121094 0-.167969 0-5.695312-7.566406-13.847656-12.839844-22.921875-14.960938l17.152344-140.628906c2.890625.742188 5.785156 1.484375 8.714844 2.246094 31.078125 8.023437 63.0625 16.222656 88.503906 17.160156l-7.792969 171.449219c-1.550781 34.015625-26.34375 61.488281-58.65625 67.488281zm-88.664062-102.746094c-.054688 0-.113281-.007812-.167969-.007812-9.039062 0-17.296875 3.128906-24 8.207031v-.207031h-.894531c.535156-2.625.894531-5.296875.894531-8 0-4.6875-.839844-9.207032-2.34375-13.441406 6.601562-7.300782 10.34375-16.664063 10.34375-26.558594 0-22.054688-17.945312-40-40-40-.054688 0-.121094 0-.167969 0-.183593-.238282-.390625-.449219-.574219-.679688l-3.480468-76.535156c9.382812-4.34375 27.453125-10.785156 52.222656-10.785156 12.910156 0 30.703125 3.65625 50.414062 8.480468l-17.589843 144.265626c-9.761719 1.824218-18.609375 7.214843-24.65625 15.261718zm-61.175781-174.28125-1.167969-25.726562h109.527343l-2.984374 24.496094c-20.023438-4.847657-38.277344-8.496094-52.367188-8.496094-23.152344 0-41.230469 5.0625-53.007812 9.726562zm220.640624-57.726562-.730468 16h-30.902344v16h30.175781l-2.175781 47.839844c-23.679688-.839844-54.894531-8.839844-85.222656-16.671876-3.617188-.9375-7.210938-1.863281-10.761719-2.765624l3.457031-28.402344h48.527344v-16h-46.574219l1.949219-16zm-108.375 0-1.953124 16h-112.207032l-.730468-16zm-171.257812 168c8.542969 0 16.511719 4.601562 20.792969 12.007812l13.847656-8.015625c-3.871094-6.695312-9.601563-11.953125-16.265625-15.414062 3.976562-2.832031 8.648438-4.578125 13.625-4.578125 8.558594 0 16.535156 4.726562 20.824219 12.34375l2.648437 4.703125 6.28125-.816407c.734375-.101562 1.46875-.230468 2.246094-.230468 13.230469 0 24 10.769531 24 24 0 4.3125-1.3125 8.417968-3.511719 12.054687-4.96875-5.070312-11.242187-8.925781-18.488281-10.796875l-3.992188 15.503906c10.59375 2.726563 17.992188 12.277344 17.992188 23.238282 0 2.769531-.640625 5.433594-1.550781 8h-92.882813c-.925781-2.566406-1.566406-5.230469-1.566406-8 0-1.0625.265625-2.113282.414062-3.160156 4.792969 2.03125 10.058594 3.160156 15.585938 3.160156v-16c-13.230469 0-24-10.769532-24-24 0-13.230469 10.769531-24 24-24zm-29.558594 50.703125c-1.585937 4.320312-2.441406 8.769531-2.441406 13.296875 0 2.703125.359375 5.375.894531 8h-41.125c5.558594-4.152344 10.085938-9.679688 12.902344-16.273438 9.632813-1.125 18.183594-5.734375 24.488281-12.46875 1.488282 2.6875 3.230469 5.183594 5.28125 7.445313zm-130.441406-2.703125c0-8.542969 4.601562-16.511719 12-20.800782l-8-13.839843c-6.703125 3.871093-11.953125 9.59375-15.414062 16.265625-2.84375-3.976563-4.585938-8.648438-4.585938-13.625 0-8.558594 4.726562-16.535156 12.335938-20.816406l4.671874-3.414063-.769531-5.417969c-.101562-.773437-.238281-1.542968-.238281-2.351562 0-13.230469 10.769531-24 24-24 4.3125 0 8.40625 1.3125 12.054688 3.511718-5.070313 4.96875-8.925782 11.25-10.789063 18.496094l15.496094 3.984375c2.726562-10.589843 12.277343-17.992187 23.238281-17.992187 13.230469 0 24 10.769531 24 24 0 4.222656-1.113281 8.367187-3.199219 11.992187l13.839844 8.015625c3.261719-5.640625 5.03125-12.03125 5.261719-18.558594 9.34375 3.277344 16.097656 12.101563 16.097656 22.550782 0 13.230468-10.769531 24-23.480469 24.023437l-7.765625-.398437-1.609375 6.289062c-2.976562 11.671875-14.519531 19.183594-26.289062 17.605469 2.023437-4.773437 3.144531-10.015625 3.144531-15.519531h-16c0 13.230468-10.769531 24-24 24s-24-10.769532-24-24zm-16 40h259.390625c-2.160156 4.914062-3.390625 10.304687-3.390625 16h-256c-4.40625 0-8-3.582032-8-8 0-4.414063 3.59375-8 8-8zm252.566406 91.945312c-1.933594 11.613282-11.894531 20.054688-23.679687 20.054688h-185.773438c-11.785156 0-21.738281-8.441406-23.671875-20.054688l-10-59.945312h249.941406c.6875 1.558594 1.554688 3.007812 2.425782 4.464844zm51.410156-3.394531.335938-7.8125-6.222656-1.585937c-10.648438-2.710938-18.089844-12.238282-18.089844-23.152344 0-1.0625.265625-2.113282.414062-3.160156 4.792969 2.03125 10.058594 3.160156 15.585938 3.160156v-16c-13.230469 0-24-10.769532-24-24 0-13.230469 10.769531-24 24-24 8.542969 0 16.511719 4.601562 20.792969 12.007812l13.847656-8.015625c-3.871094-6.695312-9.601563-11.953125-16.265625-15.414062 3.976562-2.832031 8.648438-4.578125 13.625-4.578125 8.558594 0 16.535156 4.726562 20.824219 12.34375l2.648437 4.703125 6.28125-.816407c.734375-.101562 1.46875-.230468 2.246094-.230468 13.230469 0 24 10.769531 24 24 0 4.3125-1.3125 8.417968-3.511719 12.054687-4.96875-5.070312-11.242187-8.925781-18.488281-10.796875l-3.992188 15.503906c10.59375 2.726563 17.992188 12.277344 17.992188 23.238282 0 13.230468-10.769531 24-24 24-4.222656 0-8.367188-1.113282-11.992188-3.199219l-8.023437 13.839844c5.640625 3.265625 12.03125 5.03125 18.566406 5.265625-3.277343 9.34375-12.101562 16.09375-22.550781 16.09375-13.230469 0-24-10.769532-24.023438-23.449219zm55.816407 23.449219c3.535156-4.671875 6.183593-10.054688 7.390625-16h64.816406c10.433594 0 19.328125 6.6875 22.632812 16zm0 0"/><path d="m432 232.183594h16v16h-16zm0 0"/><path d="m400 296.183594h16v16h-16zm0 0"/><path d="m312 192.183594h16v16h-16zm0 0"/><path d="m440 336.183594h16v16h-16zm0 0"/><path d="m320 296.183594h16v16h-16zm0 0"/><path d="m280 232.183594h16v16h-16zm0 0"/></svg>