<svg height="496pt" viewBox="0 0 496 496" width="496pt" xmlns="http://www.w3.org/2000/svg"><path d="m202 88h-106c0-44.160156 35.839844-80 80-80s80 35.839844 80 80zm0 0" fill="#fcd770"/><g fill="#ccd1d9"><path d="m168 88c-15.761719 31.601562-24 66.398438-24 101.679688v10.320312h-48c0-40.71875 17.441406-79.441406 47.839844-106.480469l6.160156-5.519531zm0 0"/><path d="m208.160156 93.519531c30.398438 27.039063 47.839844 65.761719 47.839844 106.480469h-48v-10.320312c0-15.441407-1.601562-30.71875-4.640625-45.679688l-3.359375-14.078125c-3.921875-14.402344-9.28125-28.480469-16-41.921875h18zm0 0"/><path d="m184 88c6.71875 13.441406 12.078125 27.519531 16 41.921875l3.359375 14.078125c3.039063 14.960938 4.640625 30.238281 4.640625 45.679688v10.320312h-64v-10.320312c0-35.28125 8.238281-70.078126 24-101.679688zm0 0"/></g><path d="m339.28125 204.71875c2.957031 2.882812 4.71875 6.882812 4.71875 11.28125 0 8.800781-7.199219 16-16 16h-112l-8 24h-64l-8-24h-112c-4.398438 0-8.398438-1.761719-11.28125-4.71875-2.957031-2.882812-4.71875-6.882812-4.71875-11.28125 0-8.800781 7.199219-16 16-16h304c4.398438 0 8.398438 1.761719 11.28125 4.71875zm0 0" fill="#969faa"/><path d="m216 232-8 24h-64l-8-24h-104l11.519531 184.238281 4.480469-.238281s32-16 80-16c46.71875 0 123.761719 30.320312 179.519531 31.921875 1.121094.078125 2.242188.078125 3.359375.078125-1.4375-5.121094-3.4375-10.160156-5.757812-15.039062-7.679688-16.242188-10.882813-34.960938-8.160156-54.722657 2.160156-15.679687 8.398437-30.316406 17.519531-42.71875l5.519531-87.519531zm0 0" fill="#e6e9ed"/><path d="m128 400c46.71875 0 123.761719 30.320312 179.519531 31.921875l-1.679687 26.078125c-1.039063 16.878906-15.039063 30-31.917969 30h-195.84375c-16.878906 0-30.878906-13.121094-31.917969-30l-2.640625-41.761719 4.480469-.238281s32-16 80-16zm0 0" fill="#ffeaa7"/><path d="m193.28125 296c1.597656 10.238281 4.796875 20.160156 9.4375 29.441406l1.921875 3.839844c2.238281 4.398438 3.359375 9.277344 3.359375 14.238281v.480469c0 17.679688-14.320312 32-32 32-8.800781 0-16.800781-3.601562-22.640625-9.359375-5.757813-5.839844-9.359375-13.839844-9.359375-22.640625v-.480469c0-2.558593.320312-5.039062.878906-7.519531l6.960938-16c3.28125-7.679688 5.601562-15.761719 6.878906-24 .882812-5.28125 1.28125-10.640625 1.28125-16h32c0 5.359375.398438 10.71875 1.28125 16zm0 0" fill="#ffeaa7"/><path d="m310.878906 432c-1.4375-5.121094-3.4375-10.160156-5.757812-15.039062-7.679688-16.242188-10.882813-34.960938-8.160156-54.722657 2.160156-15.679687 8.398437-30.316406 17.519531-42.71875 12.878906-17.597656 31.679687-30.800781 53.441406-36.398437 8.878906-2.320313 17.519531-3.28125 25.839844-3.121094 14.558593.320312 28.796875-3.601562 40.796875-11.839844 4.960937-3.441406 11.441406-5.039062 18.242187-3.679687 9.359375 1.839843 16.960938 9.441406 18.71875 18.800781.640625 3.277344.640625 6.398438 0 9.359375-2.800781 14.398437 1.039063 29.121094 7.359375 42.398437 7.679688 16.242188 10.882813 34.960938 8.160156 54.640626-5.277343 38-33.839843 69.519531-70.960937 79.199218-8.796875 2.320313-17.519531 3.28125-25.839844 3.121094-14.558593-.320312-28.796875 3.601562-40.796875 11.839844-4.960937 3.441406-11.441406 5.039062-18.242187 3.679687-9.359375-1.757812-16.960938-9.441406-18.71875-18.800781-.640625-3.277344-.640625-6.398438 0-9.359375 1.757812-9.121094.878906-18.398437-1.601563-27.359375zm0 0" fill="#fcd770"/><path d="m486.078125 331.664062c-6.589844-13.953124-8.832031-26.566406-6.679687-37.503906v-.015625c.792968-4.046875.792968-8.191406 0-12.320312-2.40625-12.632813-12.488282-22.769531-25.078126-25.199219-8.617187-1.679688-17.257812.09375-24.34375 4.976562-10.273437 7.078126-22.71875 10.605469-36.046874 10.421876-9.328126-.121094-18.769532.953124-28.027344 3.359374-15.765625 4.097657-30.054688 11.898438-42 22.28125l3.609375-57.664062h.488281c13.230469 0 24-10.769531 24-24s-10.769531-24-24-24h-64.425781c-1.925781-35.984375-16.636719-70.039062-41.503907-96h41.929688v-8c0-48.519531-39.480469-88-88-88s-88 39.480469-88 88v8h41.9375c-24.867188 25.960938-39.585938 60.015625-41.503906 96h-64.433594c-13.230469 0-24 10.769531-24 24s10.769531 24 24 24h.488281l13.65625 218.496094c1.3125 21.023437 18.847657 37.503906 39.917969 37.503906h195.875c13.871094 0 26.09375-7.214844 33.285156-18.097656 4.296875 8.882812 12.570313 15.5625 22.449219 17.480468 2.121094.417969 4.230469.617188 6.328125.617188 6.433594 0 12.664062-1.910156 18.007812-5.59375 10.28125-7.070312 22.734376-10.621094 36.046876-10.421875 9.351562.152344 18.800781-.953125 28.050781-3.367187 40.308593-10.480469 71.199219-44.960938 76.855469-85.816407 2.839843-20.410156-.242188-40.855469-8.882813-59.136719zm-283.230469-232.199218c26.6875 23.71875 42.601563 57.09375 44.71875 92.535156h-31.566406v-2.335938c0-15.839843-1.617188-31.753906-4.800781-47.273437l-15.671875 3.21875c2.96875 14.460937 4.472656 29.285156 4.472656 44.054687v2.335938h-48v-2.335938c0-32.257812 7.335938-64.503906 21.105469-93.664062h5.816406c5.46875 11.585938 10 23.664062 13.367187 36.007812l15.4375-4.199218c-2.949218-10.839844-6.71875-21.480469-11.191406-31.808594h2.433594zm-26.847656-83.464844c37 0 67.566406 28.046875 71.558594 64h-143.117188c3.992188-35.953125 34.558594-64 71.558594-64zm-26.847656 83.464844 3.886718-3.464844h2.433594c-12.753906 29.457031-19.472656 61.566406-19.472656 93.664062v2.335938h-31.574219c2.125-35.441406 18.039063-68.824219 44.726563-92.535156zm-133.152344 116.535156c0-4.414062 3.59375-8 8-8h304c4.40625 0 8 3.585938 8 8s-3.59375 8-8 8h-117.769531l-8 24h-52.46875l-8-24h-117.761719c-4.40625 0-8-3.585938-8-8zm114.230469 24 8 24h75.53125l8-24h89.71875l-3 48h-108.007813c-.234375-2.664062-.472656-5.328125-.472656-8h-16c0 16.9375 4 33.894531 11.574219 49.046875l1.890625 3.777344c1.664062 3.3125 2.535156 7.023437 2.535156 11.175781 0 13.230469-10.769531 24-24 24s-24-10.769531-24-24.449219c0-1.910156.222656-3.816406.671875-5.65625l-15.535156-3.796875c-.753907 3.078125-1.136719 6.261719-1.136719 9.902344 0 22.054688 17.945312 40 40 40s40-17.945312 40-40.449219c0-6.175781-1.464844-12.367187-4.222656-17.886719l-1.890625-3.777343c-2.847657-5.695313-5-11.726563-6.628907-17.886719h104.230469l-.800781 12.792969c-9.167969 13.078125-15.414062 28.214843-17.65625 44.382812-2.832031 20.425781.242188 40.878907 8.890625 59.175781.492187 1.054688.796875 2.039063 1.246094 3.082032-25.558594-1.96875-55.222657-9.128906-84.089844-16.128906-32.421875-7.871094-63.046875-15.304688-87.078125-15.304688-37.257812 0-65.105469 9.207031-77.105469 14.015625l-6.382812-102.015625h104.25c-1.160157 4.351562-2.523438 8.65625-4.3125 12.847656l14.710937 6.296875c5.863282-13.710937 8.839844-28.234375 8.839844-43.144531h-16c0 2.6875-.175781 5.34375-.398438 8h-108.089843l-3-48zm143.707031 240h-195.875c-12.636719 0-23.167969-9.878906-23.949219-22.503906l-2.160156-34.511719c3.511719-1.671875 33.078125-14.984375 76.046875-14.984375 22.121094 0 51.839844 7.207031 83.304688 14.847656 29.871093 7.25 60.582031 14.671875 87.710937 16.625l-1.128906 18.015625c-.78125 12.632813-11.3125 22.511719-23.949219 22.511719zm205.183594-91.390625c-4.777344 34.503906-30.914063 63.65625-65.03125 72.519531-7.84375 2.039063-15.898438 2.976563-23.722656 2.847656-16.773438-.304687-32.375 4.253907-45.421876 13.246094-3.519531 2.425782-7.875 3.296875-12.226562 2.449219-6.132812-1.183594-11.238281-6.328125-12.40625-12.496094-.410156-2.121093-.410156-4.222656-.015625-6.246093 2.832031-14.371094.175781-30.328126-7.914063-47.433594-7.3125-15.472656-9.910156-32.808594-7.503906-50.136719 4.792969-34.511719 30.9375-63.65625 65.058594-72.511719 7.320312-1.886718 14.75-2.847656 22.109375-2.847656.527344 0 1.058594.007812 1.578125.015625 16.703125.230469 32.390625-4.253906 45.429688-13.246094 3.519531-2.417969 7.847656-3.289062 12.21875-2.449219 6.132812 1.183594 11.238281 6.328126 12.40625 12.496094.410156 2.121094.410156 4.222656.007812 6.261719-2.832031 14.363281-.167969 30.3125 7.914062 47.425781 7.328126 15.457032 9.917969 32.785156 7.519532 50.105469zm0 0"/><path d="m377.976562 321.832031c4.679688-1.214843 9.40625-1.832031 14.0625-1.832031v-16c-6.007812 0-12.09375.792969-18.09375 2.351562zm0 0"/><path d="m320.71875 365.566406c-1.964844 14.25.144531 28.464844 6.128906 41.105469 7 14.808594 10.550782 29.175781 10.550782 42.742187h16c0-15.941406-4.0625-32.621093-12.085938-49.582031-4.640625-9.824219-6.28125-20.902343-4.738281-32.0625 2.304687-16.511719 12.5625-31.539062 27.449219-40.175781l-8.03125-13.839844c-19.121094 11.078125-32.296876 30.453125-35.273438 51.8125zm0 0"/><path d="m72 440h16v16h-16zm0 0"/><path d="m128 424h16v16h-16zm0 0"/><path d="m184 448h16v16h-16zm0 0"/><path d="m256 448h16v16h-16zm0 0"/><path d="m160 32h16v16h-16zm0 0"/><path d="m128 48h16v16h-16zm0 0"/></svg>