<svg height="403pt" viewBox="-22 0 403 403.08652" width="403pt" xmlns="http://www.w3.org/2000/svg"><path d="m353.117188 107.8125c0-55.757812-45.199219-100.953125-100.953126-100.953125 0 0-120.1875-4.808594-221.140624 153.835937 0 0-28.84375 48.074219-23.480469 97.261719 8.019531 73.554688 66.355469 132.859375 140.171875 137.933594 88.476562 6.082031 162.136718-63.890625 162.136718-151.066406 0-8.050781-.636718-15.949219-1.855468-23.65625-2.359375-14.898438 2.757812-29.84375 13.695312-40.230469 19.34375-18.378906 31.425782-44.328125 31.425782-73.125zm0 0" fill="#99783d"/><path d="m158.554688 403.085938c-3.753907 0-7.519532-.125-11.308594-.386719-76.359375-5.253907-137.964844-65.8125-146.492188-144.007813-5.546875-50.886718 23.1875-99.464844 24.414063-101.511718 101.972656-160.257813 222.1875-157.40625 227.265625-157.1406255 59.160156-.0039063 107.511718 48.3398435 107.511718 107.7734375 0 29.800781-11.917968 57.527344-33.558593 78.074219-9.292969 8.820312-13.644531 21.605469-11.652344 34.210937 1.292969 8.148438 1.945313 16.46875 1.945313 24.722656 0 43.691407-18.324219 85.863282-50.277344 115.699219-29.644532 27.671875-67.582032 42.566407-107.847656 42.566407zm92.976562-389.40625c-9.40625 0-120.957031 3.289062-214.75 150.679687-.179688.308594-27.496094 46.613281-22.453125 92.851563 7.804687 71.613281 64.097656 127.066406 133.851563 131.863281 40.640624 2.8125 79.292968-10.886719 108.902343-38.535157 29.199219-27.257812 45.945313-65.792968 45.945313-105.71875 0-7.539062-.601563-15.140624-1.773438-22.585937-2.699218-17.039063 3.179688-34.332031 15.734375-46.253906 18.898438-17.941407 29.308594-42.144531 29.308594-68.167969 0-51.898438-42.226563-94.125-94.132813-94.125-.058593 0-.269531-.007812-.632812-.007812zm0 0"/><path d="m112.738281 128.292969c-1.144531 0-2.3125-.285157-3.378906-.898438-3.273437-1.867187-4.414063-6.042969-2.539063-9.316406.375-.644531 9.300782-15.972656 27.21875-20.476563 12.507813-3.140624 25.980469-.308593 40.015626 8.464844 3.191406 1.992188 4.164062 6.207032 2.167968 9.40625-2 3.203125-6.203125 4.179688-9.410156 2.167969-10.753906-6.71875-20.65625-8.992187-29.4375-6.796875-12.148438 3.058594-18.640625 13.902344-18.703125 14.011719-1.257813 2.203125-3.558594 3.4375-5.933594 3.4375zm0 0"/><path d="m295.425781 85.792969c-2.644531 0-5.164062-1.546875-6.273437-4.140625-12.277344-28.652344-50.257813-24.792969-50.660156-24.738282-3.667969.417969-7.113282-2.28125-7.539063-6.035156-.414063-3.746094 2.285156-7.117187 6.03125-7.539062 1.960937-.226563 48.480469-4.933594 64.714844 32.941406 1.484375 3.464844-.121094 7.472656-3.589844 8.960938-.871094.378906-1.785156.550781-2.683594.550781zm0 0"/><path d="m261.765625 234.828125c-3.058594 0-5.839844-2.070313-6.613281-5.175781-7.992188-31.980469-39.304688-28.726563-40.632813-28.527344-3.796875.390625-7.140625-2.234375-7.585937-5.957031-.449219-3.734375 2.183594-7.128907 5.917968-7.59375 15.382813-1.953125 46.78125 3.714843 55.542969 38.773437.917969 3.652344-1.308593 7.359375-4.96875 8.273438-.550781.136718-1.113281.207031-1.660156.207031zm0 0"/><path d="m59.867188 263.664062c-.800782 0-1.609376-.136718-2.394532-.433593-3.53125-1.324219-5.320312-5.257813-4-8.785157.28125-.746093 7.046875-18.324218 24.847656-25.785156 12.238282-5.140625 26.386719-4.234375 42.003907 2.714844 3.449219 1.53125 4.996093 5.566406 3.46875 9.011719-1.535157 3.449219-5.5625 5-9.015625 3.464843-12.039063-5.347656-22.539063-6.238281-31.179688-2.597656-12.234375 5.121094-17.292968 17.851563-17.339844 17.980469-1.023437 2.746094-3.632812 4.429687-6.390624 4.429687zm0 0"/></svg>