<svg height="390pt" viewBox="0 0 390 390.68459" width="390pt" xmlns="http://www.w3.org/2000/svg"><path d="m195.652344 281.457031c-82.226563 0-153.449219 41.632813-188.480469 102.402344h376.960937c-35.03125-60.769531-106.253906-102.402344-188.480468-102.402344zm0 0" fill="#99783d"/><path d="m384.132812 390.683594h-376.960937c-2.441406 0-4.695313-1.300782-5.914063-3.414063-1.2187495-2.105469-1.2187495-4.710937 0-6.816406 37.625-65.273437 112.113282-105.820313 194.390626-105.820313 82.28125 0 156.769531 40.546876 194.394531 105.820313 1.21875 2.105469 1.21875 4.710937 0 6.816406-1.21875 2.113281-3.472657 3.414063-5.910157 3.414063zm-364.679687-13.652344h352.398437c-36.847656-55.027344-103.207031-88.746094-176.199218-88.746094-72.992188 0-139.351563 33.71875-176.199219 88.746094zm0 0"/><path d="m339.96875 122.894531c0 15.082031-14.109375 27.691407-14.109375 27.691407s-14.105469-12.609376-14.105469-27.691407c0-15.085937 14.105469-27.316406 14.105469-27.316406s14.109375 12.230469 14.109375 27.316406zm0 0" fill="#feda38"/><path d="m325.859375 157.410156c-1.628906 0-3.253906-.578125-4.546875-1.734375-.675781-.601562-16.386719-14.851562-16.386719-32.785156 0-17.988281 15.785157-31.886719 16.460938-32.472656 2.574219-2.226563 6.371093-2.226563 8.945312 0 .675781.585937 16.460938 14.484375 16.460938 32.472656 0 17.933594-15.714844 32.183594-16.386719 32.785156-1.292969 1.15625-2.921875 1.734375-4.546875 1.734375zm0-51.84375c-3.320313 4.140625-7.28125 10.503906-7.28125 17.324219 0 6.835937 3.945313 13.308594 7.28125 17.566406 3.332031-4.25 7.28125-10.730469 7.28125-17.566406 0-6.820313-3.957031-13.1875-7.28125-17.324219zm0 0"/><path d="m358.417969 168.199219c-10.667969 10.667969-29.558594 9.609375-29.558594 9.609375s-1.058594-18.894532 9.609375-29.558594c10.664062-10.667969 29.285156-9.339844 29.285156-9.339844s1.332032 18.625-9.335937 29.289063zm0 0" fill="#feda38"/><path d="m330.265625 184.65625c-1.015625 0-1.648437-.027344-1.789063-.039062-3.472656-.191407-6.238281-2.957032-6.433593-6.433594-.050781-.890625-1.085938-22.082032 11.59375-34.757813 12.726562-12.726562 33.714843-11.382812 34.605469-11.320312 3.386718.238281 6.082031 2.933593 6.320312 6.320312.066406.886719 1.40625 21.871094-11.320312 34.597657-10.695313 10.707031-27.46875 11.632812-32.976563 11.632812zm30.433594-38.683594c-5.28125.578125-12.582031 2.277344-17.40625 7.105469-4.828125 4.824219-6.621094 12.199219-7.273438 17.566406 5.367188-.652343 12.738281-2.449219 17.574219-7.273437 4.824219-4.828125 6.523438-12.121094 7.105469-17.398438zm0 0"/><path d="m293.300781 168.199219c10.667969 10.667969 29.558594 9.609375 29.558594 9.609375s1.058594-18.894532-9.605469-29.558594c-10.667968-10.667969-29.289062-9.339844-29.289062-9.339844s-1.328125 18.625 9.335937 29.289063zm0 0" fill="#feda38"/><path d="m321.453125 184.65625c-5.507813 0-22.273437-.925781-32.980469-11.632812-12.71875-12.726563-11.378906-33.710938-11.3125-34.597657.238282-3.386719 2.933594-6.078125 6.320313-6.320312.898437-.058594 21.878906-1.40625 34.597656 11.320312 12.679687 12.679688 11.644531 33.867188 11.59375 34.761719-.195313 3.472656-2.960937 6.238281-6.433594 6.433594-.140625.011718-.773437.035156-1.785156.035156zm-23.328125-21.285156c4.804688 4.808594 12.195312 6.601562 17.574219 7.261718-.652344-5.363281-2.449219-12.726562-7.273438-17.554687-4.828125-4.824219-12.121093-6.523437-17.398437-7.105469.578125 5.273438 2.277344 12.570313 7.097656 17.398438zm0 0"/><path d="m358.417969 209.890625c-10.667969 10.667969-29.558594 9.605469-29.558594 9.605469s-1.058594-18.890625 9.609375-29.554688c10.664062-10.667968 29.285156-9.339844 29.285156-9.339844s1.332032 18.621094-9.335937 29.289063zm0 0" fill="#feda38"/><path d="m330.265625 226.351562c-1.019531 0-1.648437-.027343-1.789063-.039062-3.472656-.191406-6.238281-2.960938-6.433593-6.433594-.050781-.894531-1.085938-22.085937 11.59375-34.765625 12.726562-12.726562 33.742187-11.375 34.605469-11.316406 3.386718.242187 6.082031 2.933594 6.320312 6.320313.066406.886718 1.40625 21.875-11.320312 34.601562-10.695313 10.707031-27.46875 11.632812-32.976563 11.632812zm30.433594-38.6875c-5.28125.574219-12.582031 2.273438-17.40625 7.101563-4.808594 4.804687-6.601563 12.191406-7.261719 17.574219 5.367188-.65625 12.734375-2.449219 17.5625-7.277344 4.824219-4.824219 6.523438-12.117188 7.105469-17.398438zm0 0"/><path d="m293.300781 209.890625c10.667969 10.667969 29.558594 9.605469 29.558594 9.605469s1.058594-18.890625-9.605469-29.554688c-10.667968-10.667968-29.289062-9.339844-29.289062-9.339844s-1.328125 18.621094 9.335937 29.289063zm0 0" fill="#feda38"/><path d="m321.453125 226.351562c-5.507813 0-22.273437-.925781-32.980469-11.632812-12.71875-12.726562-11.378906-33.714844-11.3125-34.597656.238282-3.386719 2.933594-6.082032 6.320313-6.320313.871093-.074219 21.871093-1.414062 34.597656 11.3125 12.679687 12.679688 11.644531 33.875 11.59375 34.765625-.195313 3.472656-2.960937 6.242188-6.433594 6.433594-.140625.011719-.773437.039062-1.785156.039062zm-23.328125-21.289062c4.804688 4.808594 12.195312 6.601562 17.574219 7.261719-.652344-5.367188-2.449219-12.734375-7.273438-17.558594-4.808593-4.808594-12.113281-6.507813-17.398437-7.09375.578125 5.273437 2.277344 12.574219 7.097656 17.390625zm0 0"/><path d="m358.417969 248.371094c-10.667969 10.667968-29.558594 9.609375-29.558594 9.609375s-1.058594-18.890625 9.609375-29.558594c10.664062-10.667969 29.285156-9.335937 29.285156-9.335937s1.332032 18.621093-9.335937 29.285156zm0 0" fill="#feda38"/><path d="m330.265625 264.832031c-1.015625 0-1.648437-.027343-1.789063-.039062-3.472656-.195313-6.238281-2.960938-6.433593-6.433594-.050781-.894531-1.085938-22.082031 11.59375-34.761719 12.726562-12.726562 33.714843-11.386718 34.605469-11.320312 3.386718.242187 6.082031 2.933594 6.320312 6.320312.066406.886719 1.40625 21.871094-11.320312 34.597656-10.695313 10.710938-27.46875 11.636719-32.976563 11.636719zm30.433594-38.6875c-5.28125.582031-12.582031 2.28125-17.40625 7.105469-4.828125 4.828125-6.621094 12.199219-7.273438 17.566406 5.367188-.652344 12.738281-2.445312 17.574219-7.273437 4.824219-4.824219 6.523438-12.117188 7.105469-17.398438zm0 0"/><path d="m293.300781 248.371094c10.667969 10.667968 29.558594 9.609375 29.558594 9.609375s1.058594-18.890625-9.605469-29.558594c-10.667968-10.667969-29.289062-9.335937-29.289062-9.335937s-1.328125 18.621093 9.335937 29.285156zm0 0" fill="#feda38"/><path d="m321.453125 264.832031c-5.507813 0-22.273437-.925781-32.980469-11.632812-12.71875-12.726563-11.378906-33.714844-11.3125-34.597657.238282-3.386718 2.933594-6.082031 6.320313-6.320312.898437-.0625 21.878906-1.40625 34.597656 11.320312 12.679687 12.679688 11.644531 33.867188 11.59375 34.757813-.195313 3.472656-2.960937 6.238281-6.433594 6.433594-.140625.011719-.773437.039062-1.785156.039062zm-23.328125-21.289062c4.804688 4.808593 12.195312 6.601562 17.574219 7.261719-.652344-5.359376-2.449219-12.726563-7.273438-17.554688-4.828125-4.824219-12.121093-6.523438-17.398437-7.105469.578125 5.273438 2.277344 12.574219 7.097656 17.398438zm0 0"/><path d="m358.417969 290.0625c-10.667969 10.667969-29.558594 9.605469-29.558594 9.605469s-1.058594-18.890625 9.609375-29.554688c10.664062-10.667969 29.285156-9.339843 29.285156-9.339843s1.332032 18.621093-9.335937 29.289062zm0 0" fill="#feda38"/><path d="m330.265625 306.527344c-1.019531 0-1.648437-.027344-1.789063-.042969-3.472656-.191406-6.238281-2.957031-6.433593-6.433594-.050781-.890625-1.085938-22.085937 11.59375-34.765625 12.726562-12.726562 33.714843-11.394531 34.605469-11.320312 3.386718.242187 6.082031 2.933594 6.320312 6.320312.066406.886719 1.40625 21.878906-11.320312 34.605469-10.695313 10.707031-27.46875 11.636719-32.976563 11.636719zm30.417969-38.695313c-5.273438.582031-12.566406 2.285157-17.390625 7.105469-4.808594 4.808594-6.601563 12.195312-7.261719 17.574219 5.367188-.652344 12.734375-2.445313 17.5625-7.273438 4.804688-4.808593 6.511719-12.121093 7.089844-17.40625zm0 0"/><path d="m293.300781 290.0625c10.667969 10.667969 29.558594 9.605469 29.558594 9.605469s1.058594-18.890625-9.605469-29.554688c-10.667968-10.667969-29.289062-9.339843-29.289062-9.339843s-1.328125 18.621093 9.335937 29.289062zm0 0" fill="#feda38"/><path d="m321.453125 306.527344c-5.507813 0-22.273437-.929688-32.980469-11.632813-12.71875-12.726562-11.378906-33.722656-11.3125-34.609375.238282-3.382812 2.933594-6.078125 6.320313-6.316406.898437-.0625 21.878906-1.40625 34.597656 11.320312 12.679687 12.679688 11.644531 33.871094 11.59375 34.765626-.195313 3.472656-2.960937 6.238281-6.433594 6.433593-.140625.011719-.773437.039063-1.785156.039063zm-23.328125-21.289063c4.804688 4.804688 12.195312 6.597657 17.574219 7.261719-.652344-5.367188-2.449219-12.734375-7.273438-17.5625-4.828125-4.824219-12.121093-6.523438-17.398437-7.105469.578125 5.277344 2.277344 12.578125 7.097656 17.40625zm0 0"/><path d="m325.359375 390.683594c-.007813 0-.007813 0-.015625 0-3.773438-.003906-6.820312-3.074219-6.8125-6.839844l.5-233.273438c.007812-3.765624 3.0625-6.8125 6.828125-6.8125h.011719c3.773437.007813 6.820312 3.074219 6.8125 6.839844l-.5 233.273438c-.003906 3.765625-3.058594 6.8125-6.824219 6.8125zm0 0"/><path d="m216.585938 34.148438c0 15.082031-14.105469 27.691406-14.105469 27.691406s-14.109375-12.609375-14.109375-27.691406c0-15.085938 14.109375-27.3125 14.109375-27.3125s14.105469 12.226562 14.105469 27.3125zm0 0" fill="#feda38"/><path d="m202.480469 68.664062c-1.628907 0-3.253907-.582031-4.546875-1.734374-.675782-.601563-16.390625-14.851563-16.390625-32.785157 0-17.988281 15.789062-31.890625 16.460937-32.472656 2.574219-2.230469 6.375-2.230469 8.949219 0 .671875.585937 16.460937 14.484375 16.460937 32.472656 0 17.933594-15.714843 32.183594-16.390624 32.785157-1.292969 1.15625-2.917969 1.734374-4.542969 1.734374zm0-51.84375c-3.320313 4.140626-7.28125 10.503907-7.28125 17.324219 0 6.832031 3.945312 13.308594 7.28125 17.566407 3.332031-4.253907 7.277343-10.734376 7.277343-17.566407 0-6.820312-3.953124-13.1875-7.277343-17.324219zm0 0"/><path d="m235.035156 79.453125c-10.664062 10.667969-29.554687 9.605469-29.554687 9.605469s-1.0625-18.890625 9.605469-29.554688c10.667968-10.667968 29.289062-9.339844 29.289062-9.339844s1.328125 18.625-9.339844 29.289063zm0 0" fill="#feda38"/><path d="m206.886719 95.910156c-1.015625 0-1.648438-.027344-1.789063-.039062-3.472656-.191406-6.238281-2.957032-6.433594-6.433594-.054687-.894531-1.085937-22.082031 11.59375-34.757812 12.71875-12.714844 33.714844-11.394532 34.597657-11.320313 3.386719.238281 6.082031 2.933594 6.320312 6.316406.066407.890625 1.414063 21.875-11.3125 34.601563-10.699219 10.707031-27.46875 11.632812-32.976562 11.632812zm30.417969-38.6875c-5.28125.582032-12.574219 2.289063-17.390626 7.109375-4.828124 4.824219-6.621093 12.199219-7.277343 17.566407 5.371093-.65625 12.742187-2.449219 17.574219-7.273438 4.808593-4.808594 6.507812-12.113281 7.09375-17.402344zm0 0"/><path d="m169.921875 79.453125c10.664063 10.667969 29.554687 9.605469 29.554687 9.605469s1.0625-18.890625-9.605468-29.554688c-10.667969-10.667968-29.289063-9.339844-29.289063-9.339844s-1.328125 18.625 9.339844 29.289063zm0 0" fill="#feda38"/><path d="m198.070312 95.910156c-5.503906 0-22.273437-.925781-32.976562-11.632812-12.726562-12.726563-11.382812-33.710938-11.316406-34.597656.242187-3.386719 2.933594-6.078126 6.320312-6.320313.894532-.074219 21.886719-1.398437 34.601563 11.320313 12.679687 12.679687 11.644531 33.867187 11.59375 34.757812-.195313 3.476562-2.960938 6.242188-6.4375 6.4375-.136719.011719-.769531.035156-1.785157.035156zm-30.425781-38.6875c.574219 5.273438 2.273438 12.574219 7.101563 17.402344 4.804687 4.804688 12.191406 6.597656 17.574218 7.257812-.65625-5.359374-2.449218-12.726562-7.273437-17.550781-4.828125-4.828125-12.121094-6.527343-17.402344-7.109375zm0 0"/><path d="m235.035156 121.144531c-10.664062 10.667969-29.554687 9.605469-29.554687 9.605469s-1.0625-18.890625 9.605469-29.558594c10.667968-10.664062 29.289062-9.335937 29.289062-9.335937s1.328125 18.621093-9.339844 29.289062zm0 0" fill="#feda38"/><path d="m206.886719 137.605469c-1.023438 0-1.648438-.027344-1.789063-.039063-3.472656-.195312-6.238281-2.960937-6.433594-6.433594-.054687-.894531-1.085937-22.085937 11.59375-34.769531 12.726563-12.726562 33.71875-11.371093 34.597657-11.3125 3.386719.242188 6.082031 2.933594 6.320312 6.320313.066407.886718 1.414063 21.871094-11.3125 34.597656-10.699219 10.710938-27.46875 11.636719-32.976562 11.636719zm30.417969-38.6875c-5.273438.574219-12.566407 2.28125-17.390626 7.101562-4.808593 4.804688-6.601562 12.191407-7.261718 17.570313 5.367187-.652344 12.734375-2.445313 17.558594-7.273438 4.808593-4.804687 6.507812-12.117187 7.09375-17.398437zm0 0"/><path d="m169.921875 121.144531c10.664063 10.667969 29.554687 9.605469 29.554687 9.605469s1.0625-18.890625-9.605468-29.558594c-10.667969-10.664062-29.289063-9.335937-29.289063-9.335937s-1.328125 18.621093 9.339844 29.289062zm0 0" fill="#feda38"/><path d="m198.070312 137.605469c-5.503906 0-22.273437-.925781-32.976562-11.632813-12.726562-12.726562-11.382812-33.714844-11.316406-34.601562.242187-3.382813 2.933594-6.078125 6.320312-6.316406.875-.066407 21.875-1.414063 34.601563 11.3125 12.679687 12.679687 11.644531 33.875 11.59375 34.765624-.195313 3.472657-2.960938 6.238282-6.4375 6.433594-.136719.011719-.769531.039063-1.785157.039063zm-30.425781-38.679688c.574219 5.273438 2.28125 12.570313 7.101563 17.390625 4.804687 4.808594 12.191406 6.601563 17.574218 7.261719-.65625-5.367187-2.449218-12.734375-7.273437-17.558594-4.808594-4.808593-12.121094-6.507812-17.402344-7.09375zm0 0"/><path d="m235.035156 159.625c-10.664062 10.667969-29.554687 9.609375-29.554687 9.609375s-1.0625-18.894531 9.605469-29.558594c10.667968-10.667969 29.289062-9.339843 29.289062-9.339843s1.328125 18.625-9.339844 29.289062zm0 0" fill="#feda38"/><path d="m206.886719 176.085938c-1.015625 0-1.648438-.027344-1.789063-.039063-3.472656-.195313-6.238281-2.960937-6.433594-6.433594-.054687-.894531-1.085937-22.082031 11.59375-34.761719 12.71875-12.710937 33.714844-11.386718 34.597657-11.320312 3.386719.242188 6.082031 2.933594 6.320312 6.320312.066407.886719 1.414063 21.871094-11.3125 34.597657-10.699219 10.707031-27.46875 11.636719-32.976562 11.636719zm30.417969-38.6875c-5.28125.578124-12.574219 2.285156-17.390626 7.105468-4.828124 4.828125-6.621093 12.199219-7.277343 17.566406 5.371093-.652343 12.742187-2.445312 17.574219-7.273437 4.808593-4.804687 6.507812-12.113281 7.09375-17.398437zm0 0"/><path d="m169.921875 159.625c10.664063 10.667969 29.554687 9.609375 29.554687 9.609375s1.0625-18.894531-9.605468-29.558594c-10.667969-10.667969-29.289063-9.339843-29.289063-9.339843s-1.328125 18.625 9.339844 29.289062zm0 0" fill="#feda38"/><path d="m198.070312 176.085938c-5.503906 0-22.273437-.929688-32.976562-11.632813-12.726562-12.726563-11.382812-33.714844-11.316406-34.601563.242187-3.382812 2.933594-6.078124 6.320312-6.316406.894532-.070312 21.886719-1.402344 34.601563 11.320313 12.679687 12.679687 11.644531 33.863281 11.59375 34.757812-.195313 3.472657-2.960938 6.238281-6.4375 6.433594-.136719.011719-.769531.039063-1.785157.039063zm-30.425781-38.6875c.574219 5.273437 2.273438 12.574218 7.101563 17.398437 4.804687 4.808594 12.191406 6.601563 17.574218 7.261719-.65625-5.363282-2.449218-12.726563-7.273437-17.554688-4.828125-4.824218-12.121094-6.527344-17.402344-7.105468zm0 0"/><path d="m235.035156 201.316406c-10.664062 10.667969-29.554687 9.605469-29.554687 9.605469s-1.0625-18.890625 9.605469-29.554687c10.667968-10.667969 29.289062-9.339844 29.289062-9.339844s1.328125 18.621094-9.339844 29.289062zm0 0" fill="#feda38"/><path d="m206.886719 217.777344c-1.023438 0-1.648438-.027344-1.789063-.039063-3.472656-.191406-6.238281-2.957031-6.433594-6.433593-.054687-.890626-1.085937-22.085938 11.59375-34.765626 12.71875-12.71875 33.714844-11.394531 34.597657-11.320312 3.386719.242188 6.082031 2.933594 6.320312 6.320312.066407.886719 1.414063 21.878907-11.3125 34.605469-10.699219 10.707031-27.46875 11.632813-32.976562 11.632813zm30.417969-38.691406c-5.273438.578124-12.574219 2.285156-17.390626 7.105468-4.808593 4.804688-6.601562 12.195313-7.261718 17.574219 5.367187-.652344 12.734375-2.449219 17.558594-7.273437 4.808593-4.808594 6.507812-12.121094 7.09375-17.40625zm0 0"/><path d="m169.921875 201.316406c10.664063 10.667969 29.554687 9.605469 29.554687 9.605469s1.0625-18.890625-9.605468-29.554687c-10.667969-10.667969-29.289063-9.339844-29.289063-9.339844s-1.328125 18.621094 9.339844 29.289062zm0 0" fill="#feda38"/><path d="m198.070312 217.777344c-5.503906 0-22.273437-.925782-32.976562-11.632813-12.726562-12.726562-11.382812-33.71875-11.316406-34.605469.242187-3.386718 2.933594-6.078124 6.320312-6.320312.894532-.070312 21.886719-1.40625 34.601563 11.320312 12.679687 12.683594 11.644531 33.875 11.59375 34.769532-.195313 3.472656-2.960938 6.238281-6.4375 6.433594-.136719.007812-.769531.035156-1.785157.035156zm-30.425781-38.691406c.574219 5.28125 2.273438 12.578124 7.101563 17.40625 4.804687 4.804687 12.191406 6.597656 17.574218 7.257812-.65625-5.367188-2.449218-12.730469-7.273437-17.558594-4.828125-4.824218-12.121094-6.527344-17.402344-7.105468zm0 0"/><path d="m202.480469 390.683594c-3.773438 0-6.828125-3.050782-6.828125-6.824219v-322.023437c0-3.773438 3.054687-6.824219 6.828125-6.824219 3.773437 0 6.824219 3.050781 6.824219 6.824219v322.023437c0 3.773437-3.050782 6.824219-6.824219 6.824219zm0 0"/><path d="m93.203125 122.894531c0 15.082031-14.105469 27.691407-14.105469 27.691407s-14.109375-12.609376-14.109375-27.691407c0-15.085937 14.109375-27.316406 14.109375-27.316406s14.105469 12.230469 14.105469 27.316406zm0 0" fill="#feda38"/><path d="m79.097656 157.410156c-1.625 0-3.253906-.578125-4.546875-1.734375-.671875-.601562-16.386719-14.851562-16.386719-32.785156 0-17.988281 15.789063-31.886719 16.460938-32.472656 2.574219-2.226563 6.375-2.226563 8.945312 0 .675782.585937 16.460938 14.484375 16.460938 32.472656 0 17.933594-15.710938 32.183594-16.386719 32.785156-1.292969 1.15625-2.917969 1.734375-4.546875 1.734375zm0-51.84375c-3.320312 4.140625-7.28125 10.503906-7.28125 17.324219 0 6.835937 3.949219 13.308594 7.28125 17.566406 3.335938-4.25 7.28125-10.730469 7.28125-17.566406 0-6.820313-3.953125-13.1875-7.28125-17.324219zm0 0"/><path d="m111.65625 168.199219c-10.667969 10.667969-29.558594 9.609375-29.558594 9.609375s-1.058594-18.894532 9.605469-29.558594c10.667969-10.667969 29.289063-9.339844 29.289063-9.339844s1.328124 18.625-9.335938 29.289063zm0 0" fill="#feda38"/><path d="m83.503906 184.65625c-1.011718 0-1.644531-.027344-1.785156-.039062-3.472656-.191407-6.238281-2.957032-6.433594-6.433594-.054687-.890625-1.089844-22.082032 11.59375-34.757813 12.71875-12.722656 33.726563-11.382812 34.597656-11.320312 3.386719.238281 6.078126 2.933593 6.320313 6.320312.066406.886719 1.40625 21.871094-11.3125 34.597657-10.699219 10.707031-27.472656 11.632812-32.980469 11.632812zm30.421875-38.683594c-5.28125.578125-12.574219 2.285156-17.394531 7.105469-4.824219 4.824219-6.621094 12.199219-7.273438 17.566406 5.367188-.652343 12.742188-2.449219 17.574219-7.273437 4.800781-4.808594 6.507813-12.113282 7.09375-17.398438zm-2.265625 22.226563h.066406zm0 0"/><path d="m46.539062 168.199219c10.667969 10.667969 29.558594 9.609375 29.558594 9.609375s1.058594-18.894532-9.609375-29.558594c-10.664062-10.667969-29.285156-9.339844-29.285156-9.339844s-1.332031 18.625 9.335937 29.289063zm0 0" fill="#feda38"/><path d="m74.691406 184.65625c-5.507812 0-22.273437-.925781-32.980468-11.632812-12.726563-12.726563-11.386719-33.710938-11.320313-34.597657.242187-3.386719 2.933594-6.078125 6.320313-6.320312.882812-.058594 21.878906-1.414063 34.605468 11.320312 12.683594 12.679688 11.648438 33.867188 11.59375 34.761719-.191406 3.472656-2.957031 6.238281-6.433594 6.433594-.136718.011718-.769531.035156-1.785156.035156zm-30.433594-38.671875c.582032 5.273437 2.289063 12.566406 7.105469 17.386719 4.808594 4.808594 12.195313 6.601562 17.574219 7.261718-.652344-5.363281-2.445312-12.726562-7.273438-17.554687-4.804687-4.808594-12.117187-6.511719-17.40625-7.09375zm0 0"/><path d="m111.65625 209.890625c-10.667969 10.667969-29.558594 9.605469-29.558594 9.605469s-1.058594-18.890625 9.605469-29.554688c10.667969-10.667968 29.289063-9.339844 29.289063-9.339844s1.328124 18.621094-9.335938 29.289063zm0 0" fill="#feda38"/><path d="m83.503906 226.351562c-1.019531 0-1.644531-.027343-1.785156-.039062-3.472656-.191406-6.238281-2.960938-6.433594-6.433594-.054687-.894531-1.089844-22.085937 11.59375-34.765625 12.726563-12.726562 33.71875-11.375 34.597656-11.316406 3.386719.242187 6.078126 2.933594 6.320313 6.320313.066406.886718 1.40625 21.875-11.3125 34.601562-10.699219 10.707031-27.472656 11.632812-32.980469 11.632812zm30.421875-38.6875c-5.28125.582032-12.574219 2.28125-17.394531 7.101563-4.804688 4.804687-6.597656 12.191406-7.257812 17.574219 5.367187-.65625 12.730468-2.449219 17.558593-7.277344 4.800781-4.804688 6.507813-12.117188 7.09375-17.398438zm-2.265625 22.226563h.066406zm0 0"/><path d="m46.539062 209.890625c10.667969 10.667969 29.558594 9.605469 29.558594 9.605469s1.058594-18.890625-9.609375-29.554688c-10.664062-10.667968-29.285156-9.339844-29.285156-9.339844s-1.332031 18.621094 9.335937 29.289063zm0 0" fill="#feda38"/><path d="m74.691406 226.351562c-5.507812 0-22.273437-.925781-32.980468-11.632812-12.726563-12.726562-11.386719-33.714844-11.320313-34.597656.242187-3.386719 2.933594-6.082032 6.320313-6.320313.882812-.074219 21.878906-1.414062 34.605468 11.3125 12.683594 12.679688 11.648438 33.875 11.59375 34.765625-.191406 3.472656-2.957031 6.242188-6.433594 6.433594-.136718.011719-.769531.039062-1.785156.039062zm-30.433594-38.679687c.582032 5.273437 2.289063 12.574219 7.105469 17.390625 4.808594 4.808594 12.195313 6.601562 17.574219 7.261719-.652344-5.367188-2.445312-12.734375-7.273438-17.558594-4.804687-4.808594-12.117187-6.507813-17.40625-7.09375zm0 0"/><path d="m111.65625 248.371094c-10.667969 10.667968-29.558594 9.609375-29.558594 9.609375s-1.058594-18.890625 9.605469-29.558594c10.667969-10.667969 29.289063-9.335937 29.289063-9.335937s1.328124 18.621093-9.335938 29.285156zm0 0" fill="#feda38"/><path d="m83.503906 264.832031c-1.011718 0-1.644531-.027343-1.785156-.039062-3.472656-.195313-6.238281-2.960938-6.433594-6.433594-.054687-.894531-1.089844-22.082031 11.59375-34.761719 12.71875-12.71875 33.726563-11.378906 34.597656-11.320312 3.386719.242187 6.078126 2.933594 6.320313 6.320312.066406.886719 1.40625 21.871094-11.3125 34.597656-10.699219 10.710938-27.472656 11.636719-32.980469 11.636719zm30.421875-38.6875c-5.28125.582031-12.574219 2.289063-17.394531 7.105469-4.824219 4.828125-6.621094 12.199219-7.273438 17.566406 5.367188-.652344 12.742188-2.445312 17.574219-7.273437 4.800781-4.804688 6.507813-12.109375 7.09375-17.398438zm-2.265625 22.226563h.066406zm0 0"/><path d="m46.539062 248.371094c10.667969 10.667968 29.558594 9.609375 29.558594 9.609375s1.058594-18.890625-9.609375-29.558594c-10.664062-10.667969-29.285156-9.335937-29.285156-9.335937s-1.332031 18.621093 9.335937 29.285156zm0 0" fill="#feda38"/><path d="m74.691406 264.832031c-5.507812 0-22.273437-.925781-32.980468-11.632812-12.726563-12.726563-11.386719-33.714844-11.320313-34.597657.242187-3.386718 2.933594-6.082031 6.320313-6.320312.882812-.066406 21.878906-1.421875 34.605468 11.320312 12.683594 12.679688 11.648438 33.867188 11.59375 34.757813-.191406 3.472656-2.957031 6.238281-6.433594 6.433594-.136718.011719-.769531.039062-1.785156.039062zm-30.433594-38.671875c.582032 5.273438 2.289063 12.566406 7.105469 17.386719 4.808594 4.804687 12.195313 6.597656 17.574219 7.257813-.652344-5.359376-2.445312-12.726563-7.273438-17.550782-4.804687-4.808594-12.117187-6.515625-17.40625-7.09375zm0 0"/><path d="m111.65625 290.0625c-10.667969 10.667969-29.558594 9.605469-29.558594 9.605469s-1.058594-18.890625 9.605469-29.554688c10.667969-10.667969 29.289063-9.339843 29.289063-9.339843s1.328124 18.621093-9.335938 29.289062zm0 0" fill="#feda38"/><path d="m83.503906 306.527344c-1.019531 0-1.644531-.027344-1.785156-.042969-3.472656-.191406-6.238281-2.957031-6.433594-6.433594-.054687-.890625-1.089844-22.085937 11.59375-34.765625 12.71875-12.710937 33.726563-11.378906 34.597656-11.320312 3.386719.242187 6.078126 2.933594 6.320313 6.320312.066406.886719 1.40625 21.878906-11.3125 34.605469-10.699219 10.707031-27.472656 11.636719-32.980469 11.636719zm30.421875-38.695313c-5.28125.582031-12.574219 2.285157-17.394531 7.105469-4.804688 4.808594-6.597656 12.195312-7.257812 17.574219 5.367187-.652344 12.730468-2.445313 17.558593-7.273438 4.800781-4.808593 6.507813-12.121093 7.09375-17.40625zm-2.265625 22.234375h.066406zm0 0"/><path d="m46.539062 290.0625c10.667969 10.667969 29.558594 9.605469 29.558594 9.605469s1.058594-18.890625-9.609375-29.554688c-10.664062-10.667969-29.285156-9.339843-29.285156-9.339843s-1.332031 18.621093 9.335937 29.289062zm0 0" fill="#feda38"/><path d="m74.691406 306.527344c-5.507812 0-22.273437-.929688-32.980468-11.632813-12.726563-12.726562-11.386719-33.722656-11.320313-34.609375.242187-3.382812 2.933594-6.078125 6.320313-6.316406.882812-.070312 21.878906-1.421875 34.605468 11.320312 12.683594 12.679688 11.648438 33.871094 11.59375 34.765626-.191406 3.472656-2.957031 6.238281-6.433594 6.433593-.136718.011719-.769531.039063-1.785156.039063zm-30.433594-38.683594c.582032 5.273438 2.289063 12.574219 7.105469 17.394531 4.808594 4.804688 12.195313 6.597657 17.574219 7.257813-.652344-5.367188-2.445312-12.734375-7.273438-17.558594-4.804687-4.808594-12.117187-6.511719-17.40625-7.09375zm0 0"/><path d="m79.097656 390.683594c-3.773437 0-6.824218-3.050782-6.824218-6.824219v-233.277344c0-3.773437 3.050781-6.824219 6.824218-6.824219 3.773438 0 6.828125 3.050782 6.828125 6.824219v233.277344c0 3.773437-3.054687 6.824219-6.828125 6.824219zm0 0"/></svg>