<svg height="415pt" viewBox="-82 0 415 415.86688" width="415pt" xmlns="http://www.w3.org/2000/svg"><path d="m120.9375 374.90625c-3.773438 0-6.828125-3.054688-6.828125-6.824219v-184.320312c0-3.773438 3.054687-6.828125 6.828125-6.828125s6.824219 3.054687 6.824219 6.828125v184.320312c0 3.769531-3.050781 6.824219-6.824219 6.824219zm0 0"/><path d="m73.148438 361.253906h95.574218v47.785156h-95.574218zm0 0" fill="#8c6b37"/><path d="m168.722656 415.867188h-95.574218c-3.773438 0-6.824219-3.058594-6.824219-6.828126v-47.785156c0-3.769531 3.050781-6.828125 6.824219-6.828125h95.574218c3.773438 0 6.828125 3.058594 6.828125 6.828125v47.785156c0 3.769532-3.054687 6.828126-6.828125 6.828126zm-88.746094-13.652344h81.917969v-34.132813h-81.917969zm0 0"/><path d="m243.816406 146.214844c0-17.675782-10.359375-32.890625-25.308594-40.023438 3.109376-5.78125 4.949219-12.347656 4.949219-19.375 0-22.683594-18.390625-41.074218-41.074219-41.074218-3.480468 0-6.835937.476562-10.0625 1.289062-8.359374-23.417969-30.671874-40.207031-56.960937-40.207031-33.429687 0-60.53125 27.101562-60.53125 60.535156 0 .347656.042969.683594.050781 1.03125-27.09375 5.054687-47.617187 28.78125-47.617187 57.339844 0 20.304687 10.378906 38.171875 26.109375 48.632812-.050782 1.085938-.164063 2.15625-.164063 3.257813 0 37.011718 30.007813 67.019531 67.023438 67.019531 8.386719 0 16.382812-1.609375 23.78125-4.425781 7.398437 2.816406 15.394531 4.425781 23.78125 4.425781 33.425781 0 61.039062-24.5 66.09375-56.503906 17.402343-5.996094 29.929687-22.480469 29.929687-41.921875zm0 0" fill="#83d816"/><path d="m147.789062 251.46875c-8.054687 0-16.039062-1.34375-23.78125-3.996094-7.738281 2.652344-15.726562 3.996094-23.78125 3.996094-40.664062 0-73.757812-33.042969-73.847656-73.691406-16.316406-12.3125-25.945312-31.484375-25.945312-52.042969 0-29.476563 19.753906-55.039063 47.707031-62.785156 2.28125-35.089844 31.558594-62.949219 67.21875-62.949219 26.394531 0 50.289063 15.570312 61.175781 39.292969 28.910156-3.757813 53.746094 19.179687 53.746094 47.523437 0 5.671875-1 11.199219-2.988281 16.496094 14.367187 9.363281 23.347656 25.558594 23.347656 42.902344 0 20.453125-12.195313 38.820312-30.738281 46.898437-7.21875 34.042969-36.941406 58.355469-72.113282 58.355469zm-23.78125-18.078125c.820313 0 1.648438.148437 2.429688.445313 6.929688 2.640624 14.117188 3.976562 21.351562 3.976562 29.75 0 54.707032-21.339844 59.355469-50.738281.390625-2.496094 2.125-4.570313 4.511719-5.390625 15.15625-5.21875 25.335938-19.472656 25.335938-35.46875 0-14.355469-8.414063-27.648438-21.429688-33.863282-1.683594-.804687-2.964844-2.261718-3.546875-4.039062-.578125-1.777344-.40625-3.710938.472656-5.359375 2.746094-5.097656 4.140625-10.527344 4.140625-16.136719 0-18.882812-15.359375-34.246094-34.246094-34.246094-2.746093 0-5.492187.355469-8.390624 1.085938-3.414063.863281-6.914063-1.019531-8.09375-4.324219-7.621094-21.339843-27.925782-35.675781-50.53125-35.675781-29.617188 0-53.707032 24.09375-53.707032 53.707031l.042969.902344c.0625 3.335937-2.292969 6.230469-5.574219 6.839844-24.359375 4.542969-42.039062 25.839843-42.039062 50.632812 0 17.289063 8.621094 33.34375 23.0625 42.945313 2 1.328125 3.152344 3.617187 3.039062 6.015625l-.074218 1.199219c-.039063.570312-.082032 1.140624-.082032 1.722656 0 33.191406 27 60.195312 60.195313 60.195312 7.234375 0 14.421875-1.335937 21.355469-3.976562.777343-.300782 1.601562-.449219 2.421874-.449219zm0 0"/><path d="m77.4375 115.492188c0 9.910156-8.03125 17.941406-17.941406 17.941406s-17.941406-8.03125-17.941406-17.941406c0-9.90625 8.03125-17.9375 17.941406-17.9375s17.941406 8.03125 17.941406 17.9375zm0 0" fill="#fcad3a"/><path d="m59.496094 140.261719c-13.652344 0-24.765625-11.113281-24.765625-24.769531s11.113281-24.765626 24.765625-24.765626 24.765625 11.109376 24.765625 24.765626-11.113281 24.769531-24.765625 24.769531zm0-35.882813c-6.128906 0-11.113282 4.988282-11.113282 11.113282 0 6.128906 4.984376 11.113281 11.113282 11.113281 6.125 0 11.113281-4.984375 11.113281-11.113281 0-6.125-4.988281-11.113282-11.113281-11.113282zm0 0"/><path d="m132.050781 60.878906c0 9.910156-8.03125 17.941406-17.941406 17.941406s-17.941406-8.03125-17.941406-17.941406c0-9.90625 8.03125-17.9375 17.941406-17.9375s17.941406 8.03125 17.941406 17.9375zm0 0" fill="#fcad3a"/><path d="m114.109375 85.648438c-13.652344 0-24.765625-11.113282-24.765625-24.769532s11.113281-24.765625 24.765625-24.765625 24.765625 11.109375 24.765625 24.765625-11.113281 24.769532-24.765625 24.769532zm0-35.882813c-6.125 0-11.113281 4.988281-11.113281 11.113281 0 6.128906 4.988281 11.113282 11.113281 11.113282s11.113281-4.984376 11.113281-11.113282c0-6.125-4.988281-11.113281-11.113281-11.113281zm0 0"/><path d="m138.875 135.972656c0 9.910156-8.03125 17.941406-17.9375 17.941406-9.910156 0-17.941406-8.03125-17.941406-17.941406 0-9.90625 8.03125-17.941406 17.941406-17.941406 9.90625 0 17.9375 8.035156 17.9375 17.941406zm0 0" fill="#fcad3a"/><path d="m120.9375 160.742188c-13.65625 0-24.769531-11.113282-24.769531-24.769532s11.113281-24.765625 24.769531-24.765625c13.652344 0 24.765625 11.109375 24.765625 24.765625s-11.113281 24.769532-24.765625 24.769532zm0-35.882813c-6.128906 0-11.117188 4.988281-11.117188 11.113281 0 6.128906 4.988282 11.113282 11.117188 11.113282 6.125 0 11.113281-4.984376 11.113281-11.113282 0-6.125-4.988281-11.113281-11.113281-11.113281zm0 0"/><path d="m97.917969 190.585938c0 9.910156-8.035157 17.941406-17.941407 17.941406-9.910156 0-17.941406-8.03125-17.941406-17.941406 0-9.90625 8.03125-17.941407 17.941406-17.941407 9.90625 0 17.941407 8.035157 17.941407 17.941407zm0 0" fill="#fcad3a"/><path d="m79.976562 215.355469c-13.652343 0-24.769531-11.113281-24.769531-24.769531s11.117188-24.765626 24.769531-24.765626c13.652344 0 24.765626 11.109376 24.765626 24.765626s-11.113282 24.769531-24.765626 24.769531zm0-35.882813c-6.128906 0-11.113281 4.988282-11.113281 11.113282 0 6.128906 4.984375 11.113281 11.113281 11.113281 6.125 0 11.113282-4.984375 11.113282-11.113281 0-6.125-4.988282-11.113282-11.113282-11.113282zm0 0"/><path d="m179.835938 190.585938c0 9.910156-8.03125 17.941406-17.941407 17.941406-9.90625 0-17.9375-8.03125-17.9375-17.941406 0-9.90625 8.03125-17.941407 17.9375-17.941407 9.910157 0 17.941407 8.035157 17.941407 17.941407zm0 0" fill="#fcad3a"/><path d="m161.894531 215.355469c-13.652343 0-24.765625-11.113281-24.765625-24.769531s11.113282-24.765626 24.765625-24.765626c13.65625 0 24.769531 11.109376 24.769531 24.765626s-11.113281 24.769531-24.769531 24.769531zm0-35.882813c-6.125 0-11.113281 4.988282-11.113281 11.113282 0 6.128906 4.988281 11.113281 11.113281 11.113281 6.128907 0 11.117188-4.984375 11.117188-11.113281 0-6.125-4.988281-11.113282-11.117188-11.113282zm0 0"/><path d="m200.316406 115.492188c0 9.910156-8.03125 17.941406-17.941406 17.941406-9.90625 0-17.9375-8.03125-17.9375-17.941406 0-9.90625 8.03125-17.9375 17.9375-17.9375 9.910156 0 17.941406 8.03125 17.941406 17.9375zm0 0" fill="#fcad3a"/><path d="m182.375 140.261719c-13.652344 0-24.765625-11.113281-24.765625-24.769531s11.113281-24.765626 24.765625-24.765626c13.65625 0 24.769531 11.109376 24.769531 24.765626s-11.113281 24.769531-24.769531 24.769531zm0-35.882813c-6.125 0-11.113281 4.988282-11.113281 11.113282 0 6.128906 4.988281 11.113281 11.113281 11.113281 6.128906 0 11.113281-4.984375 11.113281-11.113281 0-6.125-4.984375-11.113282-11.113281-11.113282zm0 0"/></svg>