<svg height="411pt" viewBox="0 -29 411.02467 411" width="411pt" xmlns="http://www.w3.org/2000/svg"><path d="m303.1875 76.933594s78.8125 3.453125 100.871094-70.082032v44.964844c0 33.289063-19.203125 63.6875-49.457032 77.574219-12.148437 5.574219-27.285156 11.375-46.136718 17.175781zm0 0" fill="#8c6b37"/><path d="m308.464844 153.394531c-1.359375 0-2.703125-.40625-3.847656-1.183593-1.714844-1.167969-2.804688-3.054688-2.960938-5.128907l-5.277344-69.632812c-.144531-1.941407.546875-3.855469 1.902344-5.253907 1.355469-1.398437 3.339844-2.214843 5.191406-2.082031 2.988282.082031 73.8125 2.214844 94.046875-65.226562.976563-3.246094 4.199219-5.316407 7.527344-4.792969 3.355469.492188 5.839844 3.367188 5.839844 6.753906v44.96875c0 36-20.976563 68.882813-53.4375 83.777344-13.335938 6.121094-29.144531 12.015625-46.980469 17.5-.65625.199219-1.332031.300781-2.003906.300781zm2.070312-69.839843 4.085938 53.902343c13.933594-4.554687 26.398437-9.34375 37.132812-14.273437 27.628906-12.675782 45.480469-40.6875 45.480469-71.367188v-14.226562c-25.488281 38.089844-69.132813 44.832031-86.699219 45.964844zm0 0"/><path d="m107.839844 76.933594s-78.8125 3.453125-100.871094-70.082032v44.964844c0 33.289063 19.203125 63.6875 49.457031 77.574219 12.148438 5.574219 27.285157 11.375 46.136719 17.175781zm0 0" fill="#8c6b37"/><path d="m102.5625 153.394531c-.671875 0-1.347656-.101562-2.003906-.300781-17.839844-5.484375-33.644532-11.378906-46.984375-17.5-32.457031-14.894531-53.433594-47.777344-53.433594-83.777344v-44.96875c0-3.386718 2.484375-6.261718 5.835937-6.753906 3.34375-.527344 6.558594 1.546875 7.53125 4.792969 20.296876 67.65625 93.332032 65.214843 94.03125 65.226562 1.941407-.078125 3.847657.675781 5.207032 2.074219 1.359375 1.402344 2.046875 3.3125 1.902344 5.261719l-5.277344 69.632812c-.15625 2.074219-1.246094 3.960938-2.960938 5.128907-1.144531.777343-2.488281 1.183593-3.847656 1.183593zm-88.769531-115.808593v14.230468c0 30.679688 17.851562 58.691406 45.476562 71.363282 10.738281 4.933593 23.203125 9.71875 37.136719 14.273437l4.085938-53.898437c-17.5625-1.132813-61.207032-7.875-86.699219-45.96875zm0 0"/><path d="m404.058594 129.359375c-44.121094-37.460937-80.890625 0-80.890625 0v-25.136719c0-16.738281-9.28125-32.039062-23.96875-39.523437l-38.550781-19.640625c-7.242188-3.6875-15.230469-5.609375-23.328126-5.609375h-63.613281c-8.097656 0-16.085937 1.917969-23.328125 5.609375l-38.550781 19.640625c-14.691406 7.484375-23.96875 22.785156-23.96875 39.523437v25.136719s-36.769531-37.460937-80.890625 0c0 0-7.355469 52.449219 80.890625 59.941406l42.699219 78.292969.496094 1.511719c-8.472657 8.191406-13.785157 19.746093-13.785157 32.585937 0 25.289063 20.492188 45.699219 45.476563 44.933594 24.148437-.738281 61.382812-.738281 85.53125 0 24.984375.765625 45.476562-19.644531 45.476562-44.933594 0-12.839844-5.3125-24.394531-13.785156-32.585937l.496094-1.511719 42.703125-78.292969c88.246093-7.492187 80.890625-59.941406 80.890625-59.941406zm0 0" fill="#eac583"/><path d="m249.652344 353.476562c-.527344 0-1.054688-.007812-1.585938-.023437-23.859375-.734375-61.246094-.734375-85.105468 0-13.738282.421875-26.796876-4.652344-36.734376-14.292969-10.179687-9.867187-15.78125-23.171875-15.78125-37.464844 0-12.613281 4.386719-24.46875 12.457032-33.882812l-39.296875-72.050781c-33.933594-3.449219-58.109375-13.933594-71.886719-31.207031-13.941406-17.472657-11.617188-35.386719-11.511719-36.140626.234375-1.660156 1.066407-3.171874 2.339844-4.261718 33.039063-28.046875 62.792969-17.804688 78.484375-8.351563v-11.582031c0-19.425781 10.613281-36.898438 27.699219-45.605469l38.554687-19.632812c8.152344-4.164063 17.292969-6.363281 26.421875-6.363281h63.613281c9.132813 0 18.273438 2.199218 26.429688 6.363281l38.542969 19.632812c17.089843 8.707031 27.703125 26.179688 27.703125 45.605469v11.585938c15.691406-9.472657 45.4375-19.699219 78.480468 8.347656 1.273438 1.089844 2.105469 2.601562 2.339844 4.261718.105469.75 2.429688 18.667969-11.507812 36.140626-13.78125 17.273437-37.953125 27.757812-71.886719 31.207031l-39.300781 72.050781c8.070312 9.414062 12.460937 21.269531 12.460937 33.882812 0 14.292969-5.601562 27.597657-15.785156 37.464844-9.550781 9.269532-21.976563 14.316406-35.144531 14.316406zm-44.140625-14.230468c15.464843 0 30.925781.1875 42.976562.554687 9.976563.292969 19.546875-3.394531 26.808594-10.441406 7.503906-7.273437 11.632813-17.097656 11.632813-27.664063 0-10.554687-4.15625-20.386718-11.707032-27.6875-1.878906-1.820312-2.554687-4.554687-1.734375-7.046874l.496094-1.507813c.128906-.386719.292969-.765625.488281-1.125l42.703125-78.292969c1.097657-2.015625 3.132813-3.339844 5.417969-3.535156 31.324219-2.660156 54.082031-11.710938 65.816406-26.179688 7.808594-9.628906 8.929688-19.214843 8.980469-23.597656-37.804687-29.949218-68.054687.105469-69.347656 1.417969-1.941407 1.980469-4.890625 2.585937-7.457031 1.539063-2.566407-1.046876-4.242188-3.546876-4.242188-6.320313v-25.136719c0-14.265625-7.757812-27.082031-20.246094-33.449218l-38.546875-19.632813c-6.246093-3.179687-13.246093-4.867187-20.230469-4.867187h-63.613281c-6.988281 0-13.980469 1.6875-20.226562 4.867187l-38.554688 19.636719c-12.488281 6.363281-20.242187 19.179687-20.242187 33.445312v25.140625c0 2.773438-1.675782 5.273438-4.242188 6.320313-2.566406 1.050781-5.511718.4375-7.457031-1.542969-1.289063-1.292969-31.789063-31.152344-69.355469-1.417969.050782 4.359375 1.167969 13.960938 8.988282 23.601563 11.734374 14.464843 34.492187 23.519531 65.816406 26.179687 2.28125.191406 4.320312 1.519532 5.417968 3.53125l42.699219 78.292969c.199219.359375.363281.742187.492188 1.128906l.496093 1.503907c.820313 2.496093.144532 5.226562-1.738281 7.046874-7.550781 7.300782-11.707031 17.132813-11.707031 27.6875 0 10.566407 4.132812 20.394532 11.632812 27.667969 7.265626 7.046875 16.808594 10.753907 26.8125 10.4375 12.050782-.367187 27.511719-.554687 42.972657-.554687zm0 0"/><path d="m264.09375 302.273438c0 7.847656-6.359375 14.210937-14.207031 14.210937-7.847657 0-14.207031-6.363281-14.207031-14.210937 0-7.84375 6.359374-14.207032 14.207031-14.207032 7.847656 0 14.207031 6.363282 14.207031 14.207032zm0 0" fill="#8c6b37"/><path d="m249.886719 323.308594c-11.597657 0-21.03125-9.433594-21.03125-21.035156 0-11.597657 9.433593-21.03125 21.03125-21.03125 11.597656 0 21.03125 9.433593 21.03125 21.03125 0 11.601562-9.433594 21.035156-21.03125 21.035156zm0-28.414063c-4.070313 0-7.378907 3.3125-7.378907 7.378907 0 4.066406 3.308594 7.382812 7.378907 7.382812 4.070312 0 7.378906-3.316406 7.378906-7.382812 0-4.066407-3.308594-7.378907-7.378906-7.378907zm0 0"/><path d="m175.347656 302.273438c0 7.847656-6.363281 14.207031-14.207031 14.207031-7.847656 0-14.207031-6.359375-14.207031-14.207031 0-7.84375 6.359375-14.203126 14.207031-14.203126 7.84375 0 14.207031 6.359376 14.207031 14.203126zm0 0" fill="#8c6b37"/><path d="m161.140625 323.308594c-11.597656 0-21.035156-9.433594-21.035156-21.035156 0-11.597657 9.4375-21.03125 21.035156-21.03125s21.03125 9.433593 21.03125 21.03125c0 11.601562-9.433594 21.035156-21.03125 21.035156zm0-28.414063c-4.070313 0-7.378906 3.3125-7.378906 7.378907 0 4.066406 3.308593 7.382812 7.378906 7.382812s7.378906-3.316406 7.378906-7.382812c0-4.066407-3.308593-7.378907-7.378906-7.378907zm0 0"/><path d="m253.300781 193.386719c-15.429687 0-27.984375-12.550781-27.984375-27.984375 0-3.773438 3.058594-6.828125 6.828125-6.828125s6.828125 3.054687 6.828125 6.828125c0 7.90625 6.429688 14.332031 14.328125 14.332031 7.898438 0 14.328125-6.425781 14.328125-14.332031 0-3.773438 3.058594-6.828125 6.828125-6.828125s6.824219 3.054687 6.824219 6.828125c0 15.433594-12.550781 27.984375-27.980469 27.984375zm0 0"/><path d="m164.554688 193.386719c-15.429688 0-27.984376-12.550781-27.984376-27.984375 0-3.773438 3.058594-6.828125 6.828126-6.828125 3.769531 0 6.824218 3.054687 6.824218 6.828125 0 7.90625 6.433594 14.332031 14.332032 14.332031 7.898437 0 14.328124-6.425781 14.328124-14.332031 0-3.773438 3.054688-6.828125 6.828126-6.828125 3.769531 0 6.824218 3.054687 6.824218 6.828125 0 15.433594-12.550781 27.984375-27.980468 27.984375zm0 0"/></svg>