<svg height="413pt" viewBox="0 -19 413.23861 413" width="413pt" xmlns="http://www.w3.org/2000/svg"><path d="m257.070312 252.886719s10.097657-50.488281 60.589844-50.488281c0 0 0 50.488281-60.589844 50.488281zm0 0" fill="#83d816"/><path d="m257.070312 259.714844c-2.046874 0-3.980468-.917969-5.28125-2.5-1.292968-1.582032-1.8125-3.660156-1.414062-5.664063.113281-.5625 11.839844-55.980469 67.285156-55.980469 3.773438 0 6.828125 3.058594 6.828125 6.828126 0 .574218-.773437 57.316406-67.417969 57.316406zm52.898438-50.035156c-27.082031 3.320312-38.90625 23.898437-43.558594 35.910156 32.457032-3.398438 41.203125-24.484375 43.558594-35.910156zm0 0"/><path d="m161.136719 252.886719s-10.097657-50.488281-60.589844-50.488281c0 0 0 50.488281 60.589844 50.488281zm0 0" fill="#83d816"/><path d="m161.136719 259.714844c-66.640625 0-67.414063-56.742188-67.414063-57.316406 0-3.769532 3.050782-6.828126 6.824219-6.828126 55.449219 0 67.167969 55.421876 67.28125 55.980469.398437 2.003907-.117187 4.085938-1.414063 5.664063-1.300781 1.582031-3.234374 2.5-5.277343 2.5zm-52.835938-50.019532c2.441407 11.414063 11.300781 32.445313 43.441407 35.886719-4.699219-12.011719-16.574219-32.535156-43.441407-35.886719zm0 0"/><path d="m201.53125 252.886719s10.097656-50.488281 60.589844-50.488281c0 0 0 50.488281-60.589844 50.488281zm0 0" fill="#83d816"/><path d="m201.527344 259.714844c-2.046875 0-3.980469-.917969-5.28125-2.5-1.292969-1.582032-1.8125-3.660156-1.410156-5.664063.113281-.5625 11.839843-55.980469 67.285156-55.980469 3.773437 0 6.828125 3.058594 6.828125 6.828126 0 .574218-.777344 57.316406-67.421875 57.316406zm52.902344-50.035156c-27.082032 3.320312-38.910157 23.898437-43.5625 35.910156 32.460937-3.398438 41.207031-24.484375 43.5625-35.910156zm0 0"/><path d="m211.628906 252.886719s-10.097656-50.488281-60.589844-50.488281c0 0 0 50.488281 60.589844 50.488281zm0 0" fill="#83d816"/><path d="m211.628906 259.714844c-66.640625 0-67.414062-56.742188-67.414062-57.316406 0-3.769532 3.054687-6.828126 6.828125-6.828126 55.4375 0 67.164062 55.417969 67.277343 55.980469.402344 2.003907-.117187 4.085938-1.410156 5.664063-1.300781 1.582031-3.234375 2.5-5.28125 2.5zm-52.832031-50.019532c2.4375 11.414063 11.296875 32.445313 43.4375 35.886719-4.707031-12.011719-16.574219-32.535156-43.4375-35.886719zm0 0"/><path d="m206.582031 252.863281c-3.773437 0-6.828125-3.054687-6.828125-6.824219v-149.675781c0-3.769531 3.054688-6.824219 6.828125-6.824219 3.773438 0 6.828125 3.054688 6.828125 6.824219v149.675781c0 3.769532-3.054687 6.824219-6.828125 6.824219zm0 0"/><path d="m254.324219 72.359375c5.226562-4.882813 8.511719-11.820313 8.511719-19.535156 0-14.78125-11.980469-26.761719-26.757813-26.761719-4.292969 0-8.332031 1.035156-11.925781 2.828125-2.273438-12.476563-13.171875-21.941406-26.304688-21.941406-14.78125 0-26.761718 11.980469-26.761718 26.757812 0 .105469.015624.203125.015624.308594-1.253906-.179687-2.53125-.308594-3.839843-.308594-14.777344 0-26.757813 11.980469-26.757813 26.761719 0 9.460938 4.921875 17.757812 12.335938 22.519531-5.226563 4.882813-8.515625 11.816407-8.515625 19.535157 0 14.777343 11.984375 26.761718 26.761719 26.761718 4.625 0 8.976562-1.175781 12.773437-3.242187 3.472656 10.75 13.550781 18.53125 25.457031 18.53125 13.597656 0 24.800782-10.148438 26.507813-23.28125 1.332031.203125 2.6875.34375 4.078125.34375 14.777344 0 26.757812-11.980469 26.757812-26.761719 0-9.460938-4.925781-17.757812-12.335937-22.515625zm0 0" fill="#fcad3a"/><path d="m209.3125 151.402344c-12.136719 0-23.046875-6.441406-28.976562-16.589844-2.996094.855469-6.113282 1.296875-9.246094 1.296875-18.527344 0-33.59375-15.066406-33.59375-33.589844 0-6.65625 2.019531-13.160156 5.691406-18.648437-6.054688-6.199219-9.511719-14.53125-9.511719-23.402344 0-17.757812 13.851563-32.339844 31.320313-33.511719 3.199218-15.394531 16.71875-26.835937 32.851562-26.835937 13.527344 0 25.425782 8.046875 30.699219 19.96875 2.457031-.570313 4.96875-.859375 7.527344-.859375 18.519531 0 33.585937 15.066406 33.585937 33.589843 0 6.660157-2.019531 13.164063-5.683594 18.648438 6.050782 6.199219 9.511719 14.53125 9.511719 23.40625 0 18.101562-14.394531 32.90625-32.332031 33.566406-4.488281 13.445313-17.222656 22.960938-31.84375 22.960938zm-25.457031-32.183594c.859375 0 1.71875.160156 2.53125.484375 1.886719.753906 3.339843 2.308594 3.960937 4.238281 2.671875 8.257813 10.292969 13.804688 18.964844 13.804688 9.96875 0 18.453125-7.453125 19.738281-17.332032.234375-1.820312 1.195313-3.46875 2.660157-4.574218 1.46875-1.105469 3.320312-1.554688 5.136718-1.296875 1 .152343 2.011719.265625 3.050782.265625 10.992187 0 19.933593-8.941406 19.933593-19.9375 0-6.800782-3.441406-13.074219-9.199219-16.773438-1.773437-1.136718-2.921874-3.027344-3.113281-5.125-.1875-2.101562.601563-4.167968 2.140625-5.605468 4.09375-3.824219 6.347656-8.992188 6.347656-14.546876 0-10.988281-8.941406-19.933593-19.933593-19.933593-3.082031 0-6.070313.707031-8.875 2.109375-1.917969.957031-4.179688.957031-6.097657 0-1.921874-.964844-3.28125-2.769532-3.660156-4.882813-1.730468-9.46875-9.96875-16.339843-19.59375-16.339843-10.992187 0-19.933594 8.941406-19.933594 19.933593 0 1.984375-.855468 4.019531-2.355468 5.316407-1.492188 1.292968-3.484375 2.027343-5.441406 1.746093-.9375-.136719-1.882813-.238281-2.859376-.238281-10.992187 0-19.933593 8.941406-19.933593 19.933594 0 6.804687 3.441406 13.074218 9.195312 16.773437 1.773438 1.136719 2.917969 3.03125 3.113281 5.128907.183594 2.09375-.601562 4.164062-2.140624 5.601562-4.09375 3.824219-6.347657 8.996094-6.347657 14.550781 0 10.988281 8.945313 19.933594 19.941407 19.933594 3.316406 0 6.605468-.835937 9.503906-2.40625 1.019531-.550781 2.136718-.828125 3.265625-.828125zm0 0"/><path d="m228.429688 75.761719c0 12.667969-10.269532 22.9375-22.9375 22.9375-12.667969 0-22.9375-10.269531-22.9375-22.9375s10.269531-22.9375 22.9375-22.9375c12.667968 0 22.9375 10.269531 22.9375 22.9375zm0 0" fill="#feda38"/><path d="m205.496094 105.523438c-16.414063 0-29.765625-13.351563-29.765625-29.761719 0-16.414063 13.351562-29.765625 29.765625-29.765625 16.40625 0 29.757812 13.351562 29.757812 29.765625 0 16.410156-13.351562 29.761719-29.757812 29.761719zm0-45.875c-8.886719 0-16.113282 7.230468-16.113282 16.113281 0 8.882812 7.226563 16.109375 16.113282 16.109375 8.878906 0 16.105468-7.226563 16.105468-16.109375 0-8.882813-7.226562-16.113281-16.105468-16.113281zm0 0"/><path d="m257.292969 248.6875c-1.183594 0-2.386719-.308594-3.484375-.957031-3.242188-1.929688-4.300782-6.117188-2.375-9.355469l80.550781-135.398438c1.929687-3.238281 6.109375-4.300781 9.359375-2.378906 3.242188 1.929688 4.300781 6.117188 2.375 9.359375l-80.550781 135.394531c-1.273438 2.144532-3.546875 3.335938-5.875 3.335938zm0 0"/><path d="m162.933594 249.519531c-2.160156 0-4.285156-1.023437-5.613282-2.933593l-87.625-126.132813c-2.152343-3.089844-1.386718-7.347656 1.714844-9.496094 3.097656-2.15625 7.351563-1.382812 9.496094 1.710938l87.628906 126.132812c2.152344 3.09375 1.386719 7.351563-1.714844 9.5-1.1875.824219-2.546874 1.21875-3.886718 1.21875zm0 0"/><path d="m120.648438 102.738281c5.226562-4.882812 8.511718-11.816406 8.511718-19.535156 0-14.78125-11.980468-26.761719-26.761718-26.761719-4.289063 0-8.328126 1.035156-11.921876 2.832032-2.273437-12.476563-13.171874-21.945313-26.304687-21.945313-14.78125 0-26.761719 11.980469-26.761719 26.761719 0 .101562.011719.203125.015625.304687-1.257812-.179687-2.53125-.304687-3.839843-.304687-14.777344 0-26.757813 11.980468-26.757813 26.757812 0 9.464844 4.921875 17.757813 12.335937 22.519532-5.226562 4.882812-8.515624 11.816406-8.515624 19.535156 0 14.78125 11.980468 26.761718 26.761718 26.761718 4.625 0 8.976563-1.175781 12.769532-3.238281 3.472656 10.75 13.554687 18.53125 25.460937 18.53125 13.597656 0 24.796875-10.152343 26.507813-23.28125 1.332031.203125 2.6875.34375 4.078124.34375 14.777344 0 26.757813-11.984375 26.757813-26.761719 0-9.464843-4.925781-17.761718-12.335937-22.519531zm0 0" fill="#fcad3a"/><path d="m75.640625 181.78125c-12.140625 0-23.046875-6.441406-28.972656-16.589844-3 .855469-6.128907 1.300782-9.261719 1.300782-18.519531 0-33.585938-15.070313-33.585938-33.589844 0-6.660156 2.019532-13.160156 5.6875-18.648438-6.046874-6.195312-9.507812-14.53125-9.507812-23.40625 0-17.738281 13.820312-32.308594 31.257812-33.507812 3.136719-15.296875 16.703126-26.839844 32.90625-26.839844 13.527344 0 25.425782 8.050781 30.699219 19.972656 2.457031-.574218 4.976563-.859375 7.535157-.859375 18.519531 0 33.585937 15.070313 33.585937 33.589844 0 6.660156-2.019531 13.160156-5.683594 18.648437 6.042969 6.195313 9.503907 14.527344 9.503907 23.40625 0 18.097657-14.386719 32.898438-32.324219 33.5625-4.488281 13.445313-17.21875 22.960938-31.839844 22.960938zm-25.460937-32.183594c.863281 0 1.722656.160156 2.535156.488282 1.886718.75 3.339844 2.304687 3.957031 4.238281 2.675781 8.257812 10.292969 13.804687 18.96875 13.804687 9.964844 0 18.453125-7.453125 19.738281-17.335937.234375-1.816407 1.191406-3.46875 2.660156-4.574219 1.46875-1.101562 3.328126-1.570312 5.132813-1.296875 1 .15625 2.015625.265625 3.046875.265625 10.992188 0 19.933594-8.941406 19.933594-19.933594 0-6.804687-3.441406-13.078125-9.191406-16.773437-1.773438-1.136719-2.921876-3.03125-3.113282-5.128907-.1875-2.097656.601563-4.164062 2.140625-5.601562 4.089844-3.828125 6.34375-8.992188 6.34375-14.546875 0-10.992187-8.9375-19.9375-19.933593-19.9375-3.085938 0-6.074219.710937-8.878907 2.109375-1.917969.960938-4.179687.960938-6.097656 0-1.921875-.960938-3.28125-2.769531-3.660156-4.882812-1.730469-9.464844-9.96875-16.339844-19.59375-16.339844-10.992188 0-19.933594 8.945312-19.933594 19.933594 0 1.980468-.847656 4.015624-2.347656 5.308593-1.488281 1.300781-3.421875 2.042969-5.425781 1.753907-.941407-.132813-1.894532-.238282-2.875-.238282-10.992188 0-19.933594 8.945313-19.933594 19.9375 0 6.804688 3.441406 13.078125 9.191406 16.773438 1.773438 1.136718 2.921875 3.03125 3.113281 5.128906.1875 2.097656-.597656 4.164062-2.140625 5.601562-4.089844 3.828126-6.34375 8.992188-6.34375 14.546876 0 10.992187 8.9375 19.9375 19.933594 19.9375 3.324219 0 6.613281-.832032 9.511719-2.410157 1.015625-.546875 2.136719-.828125 3.261719-.828125zm0 0"/><path d="m94.753906 106.140625c0 12.667969-10.269531 22.9375-22.9375 22.9375-12.667968 0-22.9375-10.269531-22.9375-22.9375s10.269532-22.9375 22.9375-22.9375c12.667969 0 22.9375 10.269531 22.9375 22.9375zm0 0" fill="#feda38"/><path d="m71.816406 135.90625c-16.40625 0-29.761718-13.355469-29.761718-29.765625 0-16.40625 13.351562-29.761719 29.761718-29.761719s29.765625 13.355469 29.765625 29.761719c0 16.410156-13.355469 29.765625-29.765625 29.765625zm0-45.875c-8.882812 0-16.109375 7.226562-16.109375 16.109375s7.226563 16.109375 16.109375 16.109375c8.886719 0 16.109375-7.226562 16.109375-16.109375s-7.222656-16.109375-16.109375-16.109375zm0 0"/><path d="m394.074219 96.664062c5.226562-4.886718 8.515625-11.820312 8.515625-19.535156 0-14.78125-11.980469-26.761718-26.761719-26.761718-4.289063 0-8.328125 1.035156-11.925781 2.828124-2.269532-12.476562-13.171875-21.941406-26.304688-21.941406-14.777344 0-26.757812 11.980469-26.757812 26.757813 0 .105469.011718.203125.015625.308593-1.257813-.179687-2.53125-.308593-3.839844-.308593-14.78125 0-26.761719 11.980469-26.761719 26.761719 0 9.460937 4.925782 17.757812 12.335938 22.519531-5.226563 4.882812-8.511719 11.816406-8.511719 19.535156 0 14.777344 11.980469 26.761719 26.761719 26.761719 4.625 0 8.972656-1.175782 12.769531-3.242188 3.472656 10.75 13.554687 18.53125 25.457031 18.53125 13.597656 0 24.800782-10.148437 26.511719-23.28125 1.332031.203125 2.6875.34375 4.074219.34375 14.78125 0 26.761718-11.980468 26.761718-26.761718-.003906-9.460938-4.925781-17.757813-12.339843-22.515626zm0 0" fill="#fcad3a"/><path d="m349.066406 175.703125c-12.136718 0-23.046875-6.4375-28.972656-16.589844-3 .859375-6.121094 1.300781-9.261719 1.300781-18.519531 0-33.585937-15.066406-33.585937-33.585937 0-6.660156 2.019531-13.164063 5.6875-18.652344-6.046875-6.195312-9.507813-14.527343-9.507813-23.402343 0-17.742188 13.820313-32.3125 31.261719-33.511719 3.132812-15.296875 16.699219-26.839844 32.910156-26.839844 13.527344 0 25.425782 8.050781 30.695313 19.96875 2.457031-.570313 4.972656-.855469 7.53125-.855469 18.523437 0 33.589843 15.070313 33.589843 33.589844 0 6.660156-2.023437 13.160156-5.6875 18.648438 6.050782 6.195312 9.511719 14.53125 9.511719 23.40625 0 18.097656-14.394531 32.898437-32.332031 33.5625-4.484375 13.449218-17.21875 22.960937-31.839844 22.960937zm-25.457031-32.179687c.859375 0 1.710937.160156 2.53125.484374 1.886719.753907 3.339844 2.308594 3.960937 4.238282 2.671876 8.257812 10.292969 13.804687 18.964844 13.804687 9.964844 0 18.453125-7.449219 19.738282-17.332031.234374-1.820312 1.195312-3.46875 2.660156-4.574219 1.46875-1.105469 3.320312-1.554687 5.136718-1.296875 1 .152344 2.011719.265625 3.042969.265625 10.996094 0 19.941407-8.941406 19.941407-19.933593 0-6.804688-3.441407-13.074219-9.199219-16.769532-1.773438-1.140625-2.921875-3.03125-3.113281-5.128906-.1875-2.097656.601562-4.164062 2.140624-5.605469 4.09375-3.824219 6.347657-8.996093 6.347657-14.546875 0-10.992187-8.941407-19.9375-19.933594-19.9375-3.089844 0-6.074219.707032-8.882813 2.109375-1.917968.957031-4.179687.960938-6.097656-.003906-1.921875-.960937-3.28125-2.769531-3.667968-4.882813-1.710938-9.46875-9.953126-16.335937-19.578126-16.335937-10.992187 0-19.941406 8.941406-19.941406 19.933594 0 1.980469-.847656 4.011719-2.347656 5.308593-1.484375 1.296876-3.425781 2.042969-5.425781 1.753907-.941407-.132813-1.894531-.238281-2.875-.238281-10.992188 0-19.933594 8.941406-19.933594 19.9375 0 6.804687 3.441406 13.078124 9.195313 16.773437 1.773437 1.136719 2.917968 3.027344 3.113281 5.125.183593 2.101563-.601563 4.167969-2.140625 5.605469-4.09375 3.824218-6.347656 8.992187-6.347656 14.546875 0 10.992187 8.9375 19.933593 19.933593 19.933593 3.324219 0 6.613281-.832031 9.507813-2.40625 1.015625-.550781 2.140625-.828124 3.269531-.828124zm0 0"/><path d="m368.179688 100.066406c0 12.667969-10.269532 22.9375-22.9375 22.9375-12.667969 0-22.9375-10.269531-22.9375-22.9375 0-12.667968 10.269531-22.9375 22.9375-22.9375 12.667968 0 22.9375 10.269532 22.9375 22.9375zm0 0" fill="#feda38"/><path d="m345.242188 129.832031c-16.40625 0-29.761719-13.355469-29.761719-29.765625s13.351562-29.765625 29.761719-29.765625c16.414062 0 29.765624 13.355469 29.765624 29.765625s-13.351562 29.765625-29.765624 29.765625zm0-45.878906c-8.878907 0-16.109376 7.226563-16.109376 16.109375s7.226563 16.113281 16.109376 16.113281c8.886718 0 16.113281-7.230469 16.113281-16.113281s-7.226563-16.109375-16.113281-16.109375zm0 0"/><path d="m336.28125 238.214844c0 71.636718-58.070312 129.707031-129.707031 129.707031s-129.707031-58.070313-129.707031-129.707031zm0 0" fill="#99783d"/><path d="m206.574219 374.746094c-75.285157 0-136.53125-61.25-136.53125-136.53125 0-3.769532 3.050781-6.828125 6.824219-6.828125h259.414062c3.773438 0 6.828125 3.058593 6.828125 6.828125 0 75.28125-61.25 136.53125-136.535156 136.53125zm-122.691407-129.703125c3.550782 64.59375 57.222657 116.050781 122.691407 116.050781s119.140625-51.457031 122.695312-116.050781zm0 0"/><path d="m268.660156 278.484375h-33.71875c-3.773437 0-6.828125-3.054687-6.828125-6.824219 0-3.773437 3.054688-6.828125 6.828125-6.828125h33.71875c3.773438 0 6.828125 3.054688 6.828125 6.828125 0 3.769532-3.054687 6.824219-6.828125 6.824219zm0 0"/><path d="m192.226562 278.484375h-106.824218c-3.773438 0-6.828125-3.054687-6.828125-6.824219 0-3.773437 3.054687-6.828125 6.828125-6.828125h106.828125c3.773437 0 6.824219 3.054688 6.824219 6.828125 0 3.769532-3.054688 6.824219-6.828126 6.824219zm0 0"/></svg>