<svg height="412pt" viewBox="-47 0 412 412.07979" width="412pt" xmlns="http://www.w3.org/2000/svg"><path d="m167.230469 241.640625c5.726562 135.402344 51.542969 163.609375 51.542969 163.609375h-131.726563s45.820313-28.207031 51.546875-163.609375zm0 0" fill="#8c6b37"/><path d="m218.769531 412.078125h-131.722656c-3.050781 0-5.734375-2.027344-6.570313-4.964844-.828124-2.941406.390626-6.074219 2.992188-7.671875.359375-.238281 42.851562-29.253906 48.300781-158.089844.15625-3.652343 3.160157-6.535156 6.820313-6.535156h28.640625c3.660156 0 6.664062 2.882813 6.820312 6.535156 5.445313 128.835938 47.9375 157.851563 48.367188 158.132813 2.539062 1.644531 3.71875 4.785156 2.867187 7.683594-.859375 2.902343-3.484375 4.910156-6.515625 4.910156zm-115.285156-13.652344h98.855469c-14.582032-18.484375-36.886719-60.855469-41.613282-149.957031h-15.625c-4.730468 89.101562-27.035156 131.472656-41.617187 149.957031zm0 0"/><path d="m289.21875 177.148438c12.730469-8.140626 21.191406-22.367188 21.191406-38.597657 0-25.304687-20.511718-45.816406-45.816406-45.816406-4.441406 0-8.722656.664063-12.785156 1.84375.835937-3.347656 1.328125-6.828125 1.328125-10.4375 0-23.722656-19.230469-42.953125-42.953125-42.953125-1.453125 0-2.890625.078125-4.308594.214844-5.019531-19.859375-22.953125-34.578125-44.371094-34.578125-23.492187 0-42.824218 17.683593-45.480468 40.457031-5.859376-3.839844-12.855469-6.097656-20.382813-6.097656-20.5625 0-37.230469 16.667968-37.230469 37.230468 0 .96875.074219 1.917969.144532 2.871094-.046876 0-.09375-.007812-.144532-.007812-28.464844 0-51.542968 23.078125-51.542968 51.542968 0 16.6875 7.960937 31.476563 20.257812 40.898438-12.148438 7.585938-20.257812 21.039062-20.257812 36.417969 0 23.722656 19.230468 42.957031 42.953124 42.957031 12.933594 0 24.5-5.742188 32.375-14.785156 17.3125 19.566406 42.535157 31.964844 70.714844 31.964844 29.832032 0 56.390625-13.855469 73.707032-35.441407 7.773437 11.035157 20.589843 18.261719 35.113281 18.261719 23.722656 0 42.953125-19.230469 42.953125-42.957031 0-13.257813-6.019532-25.109375-15.464844-32.988281zm0 0" fill="#83d816"/><path d="m152.914062 277.105469c-26.527343 0-51.976562-10.507813-70.878906-29.054688-8.953125 7.617188-20.34375 11.871094-32.210937 11.871094-27.449219 0-49.7851565-22.328125-49.7851565-49.777344 0-14.253906 5.9921875-27.503906 16.3593755-36.855469-10.484376-10.8125-16.3593755-25.148437-16.3593755-40.460937 0-29.929687 22.6406255-54.667969 51.6914065-57.996094 1.828125-22.617187 20.824219-40.46875 43.910156-40.46875 5.351563 0 10.605469.964844 15.546875 2.839844 6.636719-21.753906 26.839844-37.203125 50.320312-37.203125 22.21875 0 41.773438 13.878906 49.324219 34.367188 27.152344.347656 49.132813 22.542968 49.132813 49.777343 0 .65625-.011719 1.316407-.039063 1.976563 1.554688-.144532 3.113281-.214844 4.667969-.214844 29.023438 0 52.644531 23.617188 52.644531 52.648438 0 15.195312-6.472656 29.371093-17.640625 39.285156 7.648438 8.945312 11.914063 20.339844 11.914063 32.304687 0 27.449219-22.332031 49.78125-49.78125 49.78125-13.273438 0-25.917969-5.34375-35.183594-14.609375-19.128906 20.300782-45.527344 31.789063-73.632813 31.789063zm-70.71875-45.617188c1.953126 0 3.816407.835938 5.113282 2.304688 16.679687 18.851562 40.59375 29.660156 65.601562 29.660156 26.6875 0 51.613282-11.984375 68.378906-32.886719 1.347657-1.675781 3.394532-2.703125 5.542969-2.550781 2.136719.066406 4.132813 1.136719 5.367188 2.890625 6.777343 9.621094 17.816406 15.363281 29.53125 15.363281 19.921875 0 36.128906-16.207031 36.128906-36.128906 0-10.738281-4.742187-20.855469-13.015625-27.75-1.667969-1.390625-2.578125-3.5-2.4375-5.671875.136719-2.171875 1.296875-4.148438 3.132812-5.320312 11.296876-7.226563 18.046876-19.507813 18.046876-32.847657 0-21.5-17.496094-38.992187-38.996094-38.992187-3.621094 0-7.28125.53125-10.886719 1.578125-2.347656.671875-4.871094.046875-6.640625-1.644531-1.757812-1.695313-2.472656-4.203126-1.878906-6.578126.746094-2.980468 1.125-5.933593 1.125-8.773437 0-19.921875-16.207032-36.128906-36.125-36.128906-1.230469 0-2.449219.070312-3.648438.183593-3.253906.320313-6.453125-1.84375-7.289062-5.121093-4.371094-17.324219-19.890625-29.425781-37.746094-29.425781-19.773438 0-36.410156 14.800781-38.699219 34.425781-.273437 2.351562-1.746093 4.390625-3.890625 5.390625-2.144531 1.007812-4.65625.828125-6.632812-.472656-4.964844-3.257813-10.71875-4.980469-16.644532-4.980469-16.761718 0-30.398437 13.636719-30.398437 30.402343 0 .757813.058594 1.503907.117187 2.246094.140626 1.890625-.511718 3.816406-1.804687 5.210938-1.289063 1.386718-3.097656 2.238281-4.996094 2.238281-.003906 0-.011719 0-.015625 0-24.796875 0-44.847656 20.054687-44.847656 44.710937 0 13.988282 6.410156 26.917969 17.582031 35.476563 1.78125 1.363281 2.777344 3.511719 2.667969 5.746094-.105469 2.238281-1.300781 4.277343-3.203125 5.464843-10.675781 6.664063-17.046875 18.117188-17.046875 30.628907 0 19.921875 16.207031 36.125 36.128906 36.125 10.417969 0 20.339844-4.53125 27.226563-12.433594 1.300781-1.484375 2.910156-2.457031 5.152343-2.339844zm0 0"/><path d="m161.5 225.558594c-3.628906 0-6.648438-2.855469-6.8125-6.515625-5.421875-119.1875-62.554688-130.941407-63.132812-131.046875-3.707032-.671875-6.167969-4.226563-5.496094-7.933594.675781-3.707031 4.203125-6.148438 7.9375-5.5 2.792968.507812 68.417968 13.921875 74.328125 143.863281.175781 3.765625-2.738281 6.953125-6.503907 7.128907-.109374 0-.214843.003906-.320312.003906zm0 0"/><path d="m145.589844 144.648438c-3.640625 0-6.65625-2.875-6.8125-6.542969-.878906-21.035157 4.773437-37.859375 16.792968-50.015625 20.0625-20.277344 50.402344-19.582032 51.667969-19.546875 3.765625.117187 6.726563 3.269531 6.613281 7.035156-.121093 3.761719-3.226562 6.777344-7.019531 6.613281-.359375-.003906-25.8125-.476562-41.621093 15.570313-9.199219 9.347656-13.507813 22.726562-12.792969 39.777343.160156 3.765626-2.765625 6.945313-6.53125 7.101563-.101563.003906-.195313.007813-.296875.007813zm0 0"/><path d="m201.585938 225.558594c-3.347657 0-6.265626-2.453125-6.753907-5.859375-.105469-.742188-2.460937-18.359375 9.746094-30.953125 9.285156-9.585938 23.953125-13.355469 43.585937-11.160156 3.746094.414062 6.449219 3.789062 6.035157 7.535156-.414063 3.75-3.828125 6.5-7.539063 6.03125-15.222656-1.691406-26.074218.699218-32.273437 7.097656-7.480469 7.714844-6.054688 19.402344-6.035157 19.515625.53125 3.734375-2.058593 7.191406-5.792968 7.722656-.328125.046875-.652344.070313-.972656.070313zm0 0"/><path d="m92.769531 156.832031c-3.058593.003907-5.839843-2.070312-6.617187-5.167969-3.144532-12.582031-8.890625-21.378906-17.082032-26.160156-12.023437-7.027344-25.859374-3.328125-25.996093-3.289062-3.644531.996094-7.390625-1.113282-8.402344-4.730469-1.015625-3.617187 1.066406-7.375 4.679687-8.40625.785157-.226563 19.324219-5.351563 36.433594 4.53125 11.578125 6.691406 19.523438 18.378906 23.613282 34.738281.914062 3.660156-1.308594 7.367188-4.964844 8.28125-.558594.140625-1.113282.203125-1.664063.203125zm0 0"/></svg>