<svg xmlns="http://www.w3.org/2000/svg" viewBox="0 0 17441 11811"><rect width="5821" height="3064" x="372" y="357" fill="none" stroke="#2B2A29" stroke-width="20"/><line x1="372" x2="6193" y1="357" y2="3421" fill="none" stroke="#2B2A29" stroke-width="20"/><polygon fill="#f0f" stroke="#000" stroke-width="50" points="372,357 372,3421 6193,3421"/><polygon fill="#0CF" stroke="#000" stroke-width="50" points="6193,357 372,357 6193,3421"/><rect width="5821" height="3064" x="11264" y="8381" fill="none" stroke="#2B2A29" stroke-width="20"/><line x1="17085" x2="11264" y1="11445" y2="8381" fill="none" stroke="#2B2A29" stroke-width="20"/><polygon fill="#f0f" stroke="#000" stroke-width="50" points="17085,11445 17085,8381 11264,8381"/><polygon fill="#0CF" stroke="#000" stroke-width="50" points="11264,11445 17063,11441 11264,8381"/><polygon fill="#0CF" stroke="#000" stroke-width="50" points="3640,7695 4180,8630 4719,9565 4178,10500 3638,11434 2559,11434 1479,11433 940,10498 401,9562 941,8628 1481,7693 2561,7694"/><polygon fill="#f0f" stroke="#000" stroke-width="50" points="16044,371 16583,1306 17122,2242 16582,3176 16042,4111 14962,4110 13883,4109 13344,3174 12804,2239 13345,1304 13885,370 14965,370"/><circle cx="8721" cy="5906" r="1778" fill="#0CF" stroke="#000" stroke-width="50"/></svg>