<svg xmlns="http://www.w3.org/2000/svg" viewBox="0 0 17441 11811"><g><polygon fill="#ff0" stroke="#2B2A29" stroke-width="50" points="9950,9509 8884,8606 7818,7704 8146,6346 8473,4988 9539,5890 10606,6793 10278,8151"/><polygon fill="#ff0" stroke="#000" stroke-width="50" points="9072,3161 9132,3883 9193,4606 8525,4887 7856,5168 7382,4619 6908,4070 7284,3450 7659,2829 8366,2995"/><path fill="#F60" fill-rule="nonzero" stroke="#2B2A29" stroke-width="50" d="M2657 4270l5371 2306-4349 1250-1022-3556zm511 1778"/><path fill="#F60" fill-rule="nonzero" stroke="#2B2A29" stroke-width="50" d="M12763 976L9765 5995l4256-1539-1258-3480zm629 1740"/><polygon fill="#F60" stroke="#2B2A29" stroke-width="50" points="13986,7698 13008,7988 12030,8279 11331,7535 10632,6792 11610,6501 12589,6211 13287,6954"/><polygon fill="#F60" stroke="#2B2A29" stroke-width="50" points="5678,10431 6634,10074 7590,9717 7701,8703 7811,7689 6855,8045 5899,8402 5789,9417"/></g></svg>