<svg xmlns="http://www.w3.org/2000/svg" viewBox="0 0 17441 11811"><path fill="#CCC" fill-rule="nonzero" stroke="#2B2A29" stroke-width="50" d="M8428 10214l-61-5598-2769 2830 2830 2768zM7013 8830"/><path fill="#fff" fill-rule="nonzero" stroke="#2B2A29" stroke-width="50" d="M9252 11190L5551 7610l61 3641 3640-61zm-1820 30"/><path fill="#CCC" fill-rule="nonzero" stroke="#2B2A29" stroke-width="50" d="M10220 6297L8482 4614l27 1710 1711-27zm-856 14"/><path fill="#fff" fill-rule="nonzero" stroke="#2B2A29" stroke-width="50" d="M9331 6401l1217 1178-19-1197-1198 19zm599-10"/><rect width="3090" height="3090" fill="#CCC" stroke="#2B2A29" stroke-width="50" transform="matrix(.396 -.396 -.396 -.396 8413.52 4536.7)"/><polygon fill="none" stroke="#2B2A29" stroke-width="50" points="8277,2040 7699,1470 7122,899 6575,1012 6029,1125 6606,1696 7184,2266 7730,2153"/><path fill="#fff" fill-rule="nonzero" stroke="#2B2A29" stroke-width="50" d="M8519 2031L9716 833v1198H8519zm599 0"/></svg>