<?xml version="1.0" encoding="iso-8859-1"?>
<!-- Generator: Adobe Illustrator 19.0.0, SVG Export Plug-In . SVG Version: 6.00 Build 0)  -->
<svg version="1.1" id="Layer_1" xmlns="http://www.w3.org/2000/svg" xmlns:xlink="http://www.w3.org/1999/xlink" x="0px" y="0px"
	 viewBox="0 0 512 512" style="enable-background:new 0 0 512 512;" xml:space="preserve">
<g>
	<g>
		<path d="M92.191,410.176c-1.856-5.568-7.851-8.64-13.483-6.741l-20.416,6.805c-5.589,1.856-8.597,7.893-6.741,13.483
			c1.493,4.48,5.653,7.296,10.112,7.296c1.109,0,2.24-0.171,3.371-0.555l20.416-6.805C91.039,421.803,94.047,415.765,92.191,410.176
			z"/>
	</g>
</g>
<g>
	<g>
		<path d="M269.173,362.667h-21.504c-5.888,0-10.667,4.779-10.667,10.667c0,5.888,4.779,10.667,10.667,10.667h21.504
			c5.888,0,10.667-4.779,10.667-10.667C279.839,367.445,275.061,362.667,269.173,362.667z"/>
	</g>
</g>
<g>
	<g>
		<path d="M458.122,403.755l-19.243-9.621c-5.291-2.624-11.691-0.512-14.315,4.779c-2.624,5.269-0.491,11.669,4.779,14.315
			l19.243,9.621c1.536,0.768,3.157,1.131,4.757,1.131c3.925,0,7.68-2.155,9.557-5.909C465.525,412.8,463.391,406.4,458.122,403.755z
			"/>
	</g>
</g>
<g>
	<g>
		<path d="M400.394,374.891l-18.411-9.216l-2.112-5.952c-1.963-5.547-8-8.427-13.611-6.507c-5.547,1.963-8.469,8.064-6.507,13.611
			l3.563,10.069c1.088,3.029,3.563,4.843,6.336,5.931c0.64,0.533,1.195,1.152,1.963,1.536l19.243,9.621
			c1.536,0.768,3.157,1.131,4.757,1.131c3.925,0,7.68-2.155,9.557-5.909C407.797,383.936,405.663,377.536,400.394,374.891z"/>
	</g>
</g>
<g>
	<g>
		<path d="M219.402,231.637c-5.952-0.704-11.157,3.499-11.84,9.344l-2.368,20.075c-0.683,5.845,3.499,11.157,9.344,11.84
			c0.427,0.043,0.832,0.064,1.259,0.064c5.333,0,9.941-3.989,10.581-9.408l2.368-20.075
			C229.429,237.632,225.247,232.32,219.402,231.637z"/>
	</g>
</g>
<g>
	<g>
		<path d="M212.298,291.904c-5.888-0.725-11.157,3.499-11.84,9.344l-2.368,20.075c-0.683,5.845,3.499,11.157,9.344,11.84
			c0.427,0.043,0.832,0.064,1.259,0.064c5.333,0,9.963-3.989,10.581-9.408l2.368-20.075
			C222.325,297.899,218.143,292.587,212.298,291.904z"/>
	</g>
</g>
<g>
	<g>
		<path d="M344.33,258.987l-7.104-20.139c-1.963-5.547-8.043-8.405-13.611-6.507c-5.547,1.963-8.469,8.064-6.507,13.611
			l7.104,20.139c1.557,4.373,5.675,7.104,10.069,7.104c1.173,0,2.368-0.213,3.541-0.597
			C343.37,270.635,346.293,264.533,344.33,258.987z"/>
	</g>
</g>
<g>
	<g>
		<path d="M322.997,198.528l-7.104-20.16c-1.963-5.547-8-8.405-13.611-6.507c-5.547,1.963-8.469,8.064-6.507,13.611l7.104,20.16
			c1.557,4.373,5.675,7.104,10.069,7.104c1.173,0,2.368-0.192,3.541-0.597C322.037,210.176,324.959,204.075,322.997,198.528z"/>
	</g>
</g>
<g>
	<g>
		<path d="M365.663,319.424l-7.104-20.139c-1.963-5.547-8.021-8.427-13.611-6.507c-5.547,1.963-8.469,8.064-6.507,13.611
			l7.104,20.139c1.557,4.373,5.675,7.104,10.069,7.104c1.173,0,2.368-0.192,3.541-0.597
			C364.703,331.072,367.626,324.971,365.663,319.424z"/>
	</g>
</g>
<g>
	<g>
		<path d="M511.903,436.971c-0.021-0.576-0.107-1.109-0.213-1.685c-0.171-0.875-0.448-1.707-0.853-2.517
			c-0.149-0.299-0.128-0.64-0.299-0.917l-256-426.667c-0.021-0.043-0.085-0.064-0.107-0.107c-0.171-0.256-0.341-0.491-0.533-0.747
			c-0.149-0.192-0.299-0.363-0.469-0.533c-0.277-0.32-0.576-0.533-0.875-0.811c-0.533-0.491-1.045-1.003-1.664-1.387
			c-0.085-0.064-0.149-0.149-0.256-0.213c-0.149-0.085-0.32-0.107-0.491-0.192c-0.32-0.149-0.661-0.213-1.003-0.341
			c-0.704-0.277-1.365-0.533-2.133-0.64c-0.128-0.021-0.235-0.107-0.384-0.128c-0.128-0.021-0.235,0.043-0.363,0.021
			c-0.213-0.021-0.448,0-0.661-0.021C245.471,0.107,245.343,0,245.194,0c-0.235,0-0.448,0.171-0.683,0.192
			c-0.277,0.021-0.512-0.043-0.789,0c-0.107,0.021-0.235-0.021-0.363,0c-0.064,0-0.085,0.043-0.149,0.064
			c-0.107,0.021-0.213,0.107-0.32,0.128c-0.277,0.064-0.533,0.107-0.789,0.192c-0.085,0.021-0.192,0-0.277,0.043
			c-0.363,0.128-0.597,0.405-0.939,0.555c-0.171,0.085-0.384,0.128-0.555,0.213c-0.171,0.107-0.384,0.107-0.555,0.213
			c-0.107,0.064-0.213,0.128-0.32,0.192c-0.128,0.085-0.192,0.213-0.32,0.299c-0.213,0.171-0.427,0.32-0.64,0.491
			c-0.363,0.32-0.64,0.683-0.96,1.045s-0.704,0.64-0.981,1.045c-0.085,0.107-0.085,0.256-0.171,0.384
			c-0.085,0.149-0.213,0.256-0.299,0.405c-0.021,0.021-0.043,0.043-0.064,0.064L1.354,432.192c-0.043,0.064-0.021,0.149-0.064,0.213
			c-0.363,0.704-0.491,1.472-0.704,2.24c-0.171,0.597-0.448,1.152-0.491,1.771c-0.043,0.491,0.128,0.981,0.149,1.493
			c0.043,0.875,0,1.771,0.256,2.603c0.021,0.064,0.064,0.085,0.085,0.149c0,0.021,0,0.043,0,0.043
			c0.021,0.043,0.064,0.064,0.085,0.107c0.661,1.877,1.899,3.392,3.413,4.608c0.341,0.277,0.619,0.533,0.981,0.768
			c0.299,0.192,0.512,0.491,0.853,0.661l128,64c0.299,0.149,0.661,0.107,0.981,0.235c0.512,0.192,0.939,0.533,1.515,0.661
			c0.789,0.192,1.557,0.256,2.304,0.256h202.667c0.661,0,1.344-0.064,2.069-0.192c0.32-0.064,0.555-0.277,0.875-0.363
			c0.341-0.085,0.704-0.064,1.024-0.192l160-64c0.341-0.149,0.576-0.448,0.896-0.619c0.491-0.256,0.875-0.576,1.323-0.896
			c1.088-0.789,1.941-1.749,2.667-2.88c0.192-0.299,0.555-0.448,0.725-0.768c0.128-0.235,0.107-0.512,0.213-0.768
			c0.085-0.213,0.277-0.363,0.341-0.576c0.107-0.384,0.021-0.789,0.107-1.195C511.818,438.677,511.946,437.845,511.903,436.971z
			 M112.778,403.328c1.493,4.48,5.653,7.296,10.112,7.296c1.109,0,2.261-0.192,3.371-0.555l20.416-6.805
			c1.067-0.341,1.92-0.981,2.773-1.6l-18.24,83.989l-99.989-49.984c0.277-1.664,0.299-3.371-0.277-5.077
			c-0.491-1.472-1.28-2.731-2.261-3.797L219.359,80.128l-66.944,307.904c-2.453-4.373-7.552-6.656-12.48-4.992l-20.416,6.805
			C113.93,391.701,110.922,397.739,112.778,403.328z M151.946,490.667l23.104-106.304c1.877,3.456,5.205,5.845,9.067,5.845
			c1.109,0,2.24-0.192,3.349-0.555L204.597,384c5.909,0,9.728-4.779,9.728-10.667c0-0.789-0.427-1.429-0.619-2.155l0.853-7.189
			c0.683-5.845-3.499-11.157-9.344-11.84c-5.845-0.768-11.136,3.499-11.84,9.344l-0.448,3.84l-12.203,4.075
			c-1.045,0.363-1.92,0.981-2.773,1.6l35.669-164.032c1.6,2.987,4.395,5.269,8,5.675c0.427,0.043,0.832,0.064,1.259,0.064
			c5.333,0,9.963-4.011,10.581-9.408l2.347-20.075c0.704-5.845-3.499-11.157-9.344-11.84c-1.877-0.235-3.648,0.235-5.312,0.939
			l4.544-20.928c0.96,0.427,1.92,0.853,3.008,0.981c0.427,0.043,0.832,0.064,1.259,0.064c5.333,0,9.963-3.989,10.581-9.408
			l2.368-20.075c0.64-5.547-3.136-10.475-8.512-11.563l4.245-19.499c4.608-0.704,8.448-4.245,9.003-9.109l0.363-3.157
			l56.128,286.933c-1.579,1.856-2.624,4.181-2.624,6.805c0,4.096,2.389,7.552,5.781,9.323l21.141,107.968H151.946z M482.335,427.776
			c-0.981,1.941-1.088,4.032-0.853,6.037l-132.053,52.821L329.333,384h4.373c5.909,0,10.667-4.779,10.667-10.667
			c0-5.888-4.779-10.667-10.667-10.667h-8.555l-42.176-215.616c1.963,3.072,5.035,5.248,8.64,5.248c1.173,0,2.368-0.213,3.541-0.597
			c5.547-1.963,8.469-8.064,6.507-13.611l-7.104-20.16c-1.963-5.547-8.021-8.427-13.611-6.507c-1.792,0.64-3.179,1.792-4.331,3.136
			l-4.501-23.019c0.576-0.107,1.152-0.107,1.728-0.299c2.176-0.768,3.797-2.283,5.035-4.053l203.968,339.947
			C482.698,427.371,482.463,427.52,482.335,427.776z"/>
	</g>
</g>
<g>
</g>
<g>
</g>
<g>
</g>
<g>
</g>
<g>
</g>
<g>
</g>
<g>
</g>
<g>
</g>
<g>
</g>
<g>
</g>
<g>
</g>
<g>
</g>
<g>
</g>
<g>
</g>
<g>
</g>
</svg>
