<?xml version="1.0" encoding="iso-8859-1"?>
<!-- Generator: Adobe Illustrator 19.0.0, SVG Export Plug-In . SVG Version: 6.00 Build 0)  -->
<svg version="1.1" id="Layer_1" xmlns="http://www.w3.org/2000/svg" xmlns:xlink="http://www.w3.org/1999/xlink" x="0px" y="0px"
	 viewBox="0 0 511.83 511.83" style="enable-background:new 0 0 511.83 511.83;" xml:space="preserve">
<g>
	<g>
		<path d="M511.603,435.606c-0.171-1.131-0.448-2.176-0.96-3.2c-0.085-0.192-0.064-0.405-0.171-0.576L265.139,5.164
			c-0.128-0.213-0.341-0.363-0.469-0.576c-0.405-0.597-0.875-1.067-1.365-1.557c-0.469-0.469-0.896-0.896-1.451-1.28
			c-0.619-0.427-1.301-0.704-2.005-0.981c-0.427-0.171-0.747-0.469-1.195-0.597c-0.213-0.064-0.405,0-0.597-0.043
			c-0.683-0.149-1.387-0.128-2.112-0.128c-0.747,0-1.472-0.021-2.176,0.128c-0.192,0.043-0.384-0.021-0.576,0.043
			c-0.427,0.107-0.747,0.405-1.152,0.576c-0.725,0.299-1.408,0.576-2.048,1.024c-0.533,0.363-0.96,0.789-1.408,1.237
			c-0.512,0.512-1.003,1.003-1.408,1.621c-0.128,0.192-0.32,0.299-0.427,0.491c-0.021,0.021-0.043,0.021-0.064,0.064L1.352,431.852
			c-0.107,0.192-0.085,0.448-0.192,0.64c-0.448,0.917-0.704,1.899-0.875,2.923c-0.085,0.469-0.256,0.917-0.277,1.408
			c-0.043,1.429,0.171,2.859,0.725,4.267c0.021,0.064,0,0.149,0.043,0.213c0,0,0,0,0,0.021s0,0.043,0,0.043
			c0.619,1.451,1.557,2.645,2.667,3.648c0.363,0.32,0.811,0.491,1.216,0.768c0.853,0.576,1.707,1.088,2.667,1.408
			c0.213,0.064,0.363,0.256,0.576,0.299l245.333,64c0.875,0.235,1.792,0.341,2.688,0.341c0.896,0,1.813-0.107,2.667-0.341
			l245.333-64c0.725-0.192,1.28-0.683,1.92-1.024c0.576-0.277,1.109-0.469,1.621-0.853c1.387-1.024,2.517-2.304,3.264-3.883
			c0.085-0.149,0.256-0.213,0.32-0.384c0.64-1.515,0.832-3.072,0.768-4.608C511.795,436.353,511.667,435.99,511.603,435.606z
			 M255.901,52.14l82.155,310.315H173.768L255.901,52.14z M224.968,85.676l-74.027,279.701L35.784,414.742L224.968,85.676z
			 M255.901,490.113L43.357,434.689l118.72-50.88h187.627l118.699,50.859L255.901,490.113z M360.883,365.377L286.835,85.654
			l189.227,329.067L360.883,365.377z"/>
	</g>
</g>
<g>
</g>
<g>
</g>
<g>
</g>
<g>
</g>
<g>
</g>
<g>
</g>
<g>
</g>
<g>
</g>
<g>
</g>
<g>
</g>
<g>
</g>
<g>
</g>
<g>
</g>
<g>
</g>
<g>
</g>
</svg>
