<?xml version="1.0" encoding="iso-8859-1"?>
<!-- Generator: Adobe Illustrator 19.0.0, SVG Export Plug-In . SVG Version: 6.00 Build 0)  -->
<svg version="1.1" id="Layer_1" xmlns="http://www.w3.org/2000/svg" xmlns:xlink="http://www.w3.org/1999/xlink" x="0px" y="0px"
	 viewBox="0 0 512 512" style="enable-background:new 0 0 512 512;" xml:space="preserve">
<g>
	<g>
		<path d="M436.864,72.384c-0.107-0.491-0.107-1.003-0.299-1.472c-0.533-1.429-1.323-2.731-2.368-3.797l-64-64
			C368.192,1.131,365.483,0,362.645,0H191.979c-1.92,0-3.819,0.512-5.483,1.515l-106.667,64c-0.341,0.192-0.512,0.555-0.811,0.789
			c-0.725,0.533-1.344,1.131-1.92,1.835c-0.384,0.491-0.725,0.981-1.024,1.536c-0.427,0.768-0.683,1.579-0.896,2.475
			c-0.107,0.427-0.384,0.789-0.448,1.216c-0.021,0.213,0.085,0.427,0.064,0.64c-0.021,0.235-0.128,0.427-0.128,0.661v362.667
			c0,2.837,1.109,5.547,3.115,7.552l64,64c0.491,0.491,1.152,0.768,1.728,1.152s1.067,0.875,1.707,1.131
			c1.301,0.533,2.688,0.832,4.117,0.832H320c1.813,0,3.435-0.555,4.928-1.365c0.171-0.085,0.384-0.064,0.555-0.149l106.667-64
			c3.221-1.941,5.184-5.397,5.184-9.152V74.667C437.333,73.856,437.035,73.152,436.864,72.384z M138.667,475.584L96,432.917v-332.48
			l42.667,42.667V475.584z M309.333,490.667H160V149.333h149.333V490.667z M317.035,128H153.749l-51.221-51.221l92.437-55.445
			h163.285l51.221,51.221L317.035,128z M416,431.296l-85.333,51.2V144.704L416,93.504V431.296z"/>
	</g>
</g>
<g>
</g>
<g>
</g>
<g>
</g>
<g>
</g>
<g>
</g>
<g>
</g>
<g>
</g>
<g>
</g>
<g>
</g>
<g>
</g>
<g>
</g>
<g>
</g>
<g>
</g>
<g>
</g>
<g>
</g>
</svg>
