<?xml version="1.0" encoding="iso-8859-1"?>
<!-- Generator: Adobe Illustrator 19.0.0, SVG Export Plug-In . SVG Version: 6.00 Build 0)  -->
<svg version="1.1" id="Layer_1" xmlns="http://www.w3.org/2000/svg" xmlns:xlink="http://www.w3.org/1999/xlink" x="0px" y="0px"
	 viewBox="0 0 512 512" style="enable-background:new 0 0 512 512;" xml:space="preserve">
<g>
	<g>
		<path d="M457.579,70.144c-0.107-0.235-0.299-0.405-0.427-0.64c-0.789-1.408-1.877-2.539-3.179-3.456
			c-0.213-0.149-0.277-0.405-0.491-0.533l-106.667-64C345.173,0.533,343.275,0,341.333,0H170.667c-1.92,0-3.819,0.533-5.483,1.536
			l-106.667,64c-0.213,0.128-0.277,0.384-0.491,0.512c-1.301,0.917-2.368,2.027-3.157,3.413c-0.128,0.256-0.341,0.427-0.469,0.704
			c-0.64,1.365-1.067,2.88-1.067,4.501v362.667c0,4.587,2.944,8.661,7.296,10.112l192,64c1.088,0.341,2.24,0.555,3.371,0.555
			c1.131,0,2.283-0.192,3.371-0.555l192-64c4.352-1.451,7.296-5.525,7.296-10.112V74.667
			C458.667,73.024,458.24,71.531,457.579,70.144z M245.333,486.528L74.667,429.653V89.451l170.667,56.896V486.528z M256,127.445
			L89.365,71.893l84.267-50.56h164.757l84.245,50.56L256,127.445z M437.333,429.653l-170.667,56.875V146.325l170.667-56.896V429.653
			z"/>
	</g>
</g>
<g>
</g>
<g>
</g>
<g>
</g>
<g>
</g>
<g>
</g>
<g>
</g>
<g>
</g>
<g>
</g>
<g>
</g>
<g>
</g>
<g>
</g>
<g>
</g>
<g>
</g>
<g>
</g>
<g>
</g>
</svg>
