<?xml version="1.0" encoding="iso-8859-1"?>
<!-- Generator: Adobe Illustrator 19.0.0, SVG Export Plug-In . SVG Version: 6.00 Build 0)  -->
<svg version="1.1" id="Layer_1" xmlns="http://www.w3.org/2000/svg" xmlns:xlink="http://www.w3.org/1999/xlink" x="0px" y="0px"
	 viewBox="0 0 511.995 511.995" style="enable-background:new 0 0 511.995 511.995;" xml:space="preserve">
<g>
	<g>
		<path d="M425.944,223.995c0-0.533-0.235-1.003-0.299-1.515c-0.064-0.512-0.064-1.024-0.213-1.515
			c-0.064-0.235-0.149-0.469-0.235-0.704c-0.256-0.683-0.661-1.237-1.024-1.835c-0.021-0.021-0.021-0.064-0.043-0.085
			c-0.213-0.32-0.277-0.704-0.512-1.024l-0.213-0.256c-0.021-0.021-0.021-0.043-0.043-0.043L252.973,4.048
			c-0.107-0.128-0.192-0.256-0.299-0.363c-0.384-0.448-0.875-0.683-1.323-1.045c-0.512-0.427-0.96-0.896-1.536-1.216
			c-0.811-0.469-1.707-0.704-2.603-0.939c-0.363-0.085-0.661-0.32-1.045-0.384c-0.064,0-0.107,0.021-0.171,0
			c-2.667-0.363-5.44,0.235-7.744,1.941c-0.341,0.235-0.619,0.469-0.917,0.747c0,0.021-0.021,0.021-0.021,0.021
			c-0.512,0.469-0.832,1.067-1.216,1.621c-0.235,0.32-0.491,0.576-0.704,0.939c-0.085,0.171-0.256,0.277-0.341,0.448l-147.84,277.12
			c-0.021,0.043,0,0.085-0.043,0.128c-0.171,0.341-0.192,0.725-0.341,1.088c-0.235,0.619-0.405,1.195-0.533,1.856
			c-0.107,0.576-0.213,1.131-0.235,1.728c0,0.299-0.021,0.576,0,0.896c0.021,0.469,0.149,0.917,0.256,1.387
			c0.149,0.747,0.363,1.429,0.683,2.133c0.149,0.32,0.149,0.683,0.32,1.003c0.021,0.064,0.085,0.085,0.107,0.149
			c0.064,0.021,0.064,0.107,0.085,0.149c0.128,0.213,0.384,0.299,0.512,0.512c0.192,0.277,0.256,0.619,0.491,0.875l179.947,213.333
			c0.192,0.213,0.469,0.363,0.683,0.555c0.619,0.619,1.28,1.152,2.027,1.6c0.235,0.149,0.405,0.384,0.661,0.512
			c0.043,0.021,0.107,0.021,0.149,0.043c0.192,0.085,0.384,0.128,0.576,0.213c1.28,0.533,2.624,0.896,4.053,0.896
			c0.789,0,1.579-0.085,2.389-0.256c0.064-0.021,0.085-0.064,0.149-0.064c0.043,0,0.085,0,0.128-0.021
			c0.107-0.021,0.192-0.149,0.299-0.171c0.661-0.192,1.216-0.512,1.792-0.811c0.32-0.171,0.661-0.235,0.96-0.448
			c0.555-0.363,0.981-0.789,1.451-1.237c0.341-0.32,0.597-0.619,0.896-0.96c0.448-0.533,0.875-1.067,1.216-1.685
			c0.064-0.107,0.192-0.149,0.235-0.277l138.667-277.333c0.043-0.085,0.043-0.192,0.085-0.299c0.235-0.533,0.32-1.109,0.491-1.664
			c0.107-0.405,0.384-0.747,0.448-1.152c0.021-0.171-0.043-0.341-0.021-0.512c0.021-0.256,0.085-0.512,0.085-0.768
			C425.88,224.208,425.944,224.102,425.944,223.995z M247.576,62.758l40.533,150.549h-63.104L247.576,62.758z M293.848,234.64
			l11.499,42.667h-69.483l-9.856-42.667H293.848z M224.898,70.246l-22.037,146.965l-79.872,44.096L224.898,70.246z M213.976,277.307
			h-75.904l67.328-37.163L213.976,277.307z M119.64,298.64h99.264l37.397,162.027L119.64,298.64z M275.864,450.641l-35.072-152
			h65.493L275.864,450.641z M302.744,425.168l26.155-130.773l58.859-39.253L302.744,425.168z M315.949,234.64h64.085l-54.336,36.224
			L315.949,234.64z M310.21,213.307L268.184,57.19l124.885,156.117H310.21z"/>
	</g>
</g>
<g>
</g>
<g>
</g>
<g>
</g>
<g>
</g>
<g>
</g>
<g>
</g>
<g>
</g>
<g>
</g>
<g>
</g>
<g>
</g>
<g>
</g>
<g>
</g>
<g>
</g>
<g>
</g>
<g>
</g>
</svg>
