<svg xmlns="http://www.w3.org/2000/svg" viewBox="0 0 17441 11811"><rect width="4826" height="2540" fill="red" stroke="#000" stroke-width="50" transform="matrix(0 -.85965 .85 0 425.79 4485.24)"/><circle cx="1505" cy="5819" r="1143" fill="#fff" stroke="#000" stroke-width="50"/><path fill="none" stroke="#2B2A29" stroke-width="50" d="M382 8902l3848 2522H382V8902zm0 1261"/><path fill="red" fill-rule="nonzero" stroke="#2B2A29" stroke-width="50" d="M2359 7646l3849 2522H2359V7646zm0 1261"/><polygon fill="red" stroke="#000" stroke-width="50" points="9472,4607 9846,5257 10221,5906 9845,6556 9470,7205 8720,7205 7970,7204 7595,6554 7221,5905 7596,5255 7972,4606 8722,4606"/><rect width="4826" height="2540" fill="red" stroke="#2B2A29" stroke-width="50" transform="matrix(0 .85965 -.85 0 17073.1 7275.26)"/><circle cx="15994" cy="5942" r="1143" fill="#fff" stroke="#000" stroke-width="50"/><path fill="none" stroke="#2B2A29" stroke-width="50" d="M17117 2858L13269 337h3848v2521zm0-1261"/><path fill="red" fill-rule="nonzero" stroke="#2B2A29" stroke-width="50" d="M15139 4114l-3848-2521h3848v2521zm0-1261"/></svg>