<svg xmlns="http://www.w3.org/2000/svg" viewBox="0 0 17441 11811"><polygon fill="#00f" points="1662,4866 1662,7126 7152,7126"/><polygon fill="none" stroke="#000" stroke-width="49.09" points="1662,4866 1662,7126 7152,7126"/><polygon fill="#00f" points="7152,7126 7152,4866 1662,4866"/><polygon fill="none" stroke="#000" stroke-width="49.09" points="7144,7112 7152,4866 1735,4866"/><polygon fill="none" stroke="#000" stroke-width="49.09" points="7152,7126 9412,7126 9410,1736"/><polygon fill="#00f" points="9412,1637 7152,1637 7152,7126"/><polygon fill="none" stroke="#000" stroke-width="49.09" points="9401,1637 7152,1637 7162,7035"/><polygon fill="#00f" points="9412,4543 9412,7126 11673,7126 11673,4543"/><polygon fill="none" stroke="#000" stroke-width="49.09" points="9412,4543 9412,7126 11673,7126 11673,4543"/><polyline fill="none" stroke="#000" stroke-width="49.09" points="3600,7449 3535,7454 3471,7458 3406,7462 3341,7475 3277,7488 3216,7501 3156,7518 3096,7540 3040,7561 2984,7587 2932,7613 2881,7643 2829,7678 2777,7708 2734,7746 2687,7781 2644,7820 2605,7863 2566,7906 2528,7949 2497,7996 2463,8044 2437,8091 2411,8143 2386,8194 2368,8246 2351,8298 2334,8354 2325,8409 2317,8465 2312,8521 2308,8582 2312,8638 2317,8698 2325,8754 2334,8810 2351,8866 2368,8918 2386,8969 2411,9021 2437,9073 2463,9120 2497,9167 2528,9215 2566,9258 2605,9301 2644,9339 2687,9383 2734,9417 2777,9451 2829,9486 2881,9520 2932,9546 2984,9576 3040,9602 3096,9624 3156,9641 3216,9662 3277,9675 3341,9688 3406,9697 3471,9705 3535,9710 3600,9710 3669,9710 3733,9705 3798,9697 3862,9688 3923,9675 3983,9662 4043,9641 4103,9624 4159,9602 4215,9576 4271,9546 4323,9520 4375,9486 4422,9451 4469,9417 4512,9383 4555,9339 4599,9301 4637,9258 4672,9215 4706,9167 4736,9120 4766,9073 4792,9021 4814,8969 4835,8918 4853,8866 4865,8810 4878,8754 4887,8698 4891,8638 4891,8582 4891,8521 4887,8465 4878,8409 4865,8354 4853,8298 4835,8246 4814,8194 4792,8143 4766,8091 4736,8044 4706,7996 4672,7949 4637,7906 4599,7863 4555,7820 4512,7781 4469,7746 4422,7708 4375,7678 4323,7643 4271,7613 4215,7587 4159,7561 4103,7540 4043,7518 3983,7501 3923,7488 3862,7475 3798,7462 3733,7458 3669,7454 3600,7449"/><polyline fill="none" stroke="#000" stroke-width="49.09" points="8443,7449 8379,7454 8314,7458 8250,7462 8185,7475 8120,7488 8060,7501 8000,7518 7940,7540 7884,7561 7828,7587 7776,7613 7724,7643 7673,7678 7621,7708 7578,7746 7531,7781 7488,7820 7449,7863 7410,7906 7371,7949 7341,7996 7307,8044 7281,8091 7255,8143 7229,8194 7212,8246 7195,8298 7178,8354 7169,8409 7160,8465 7156,8521 7152,8582 7156,8638 7160,8698 7169,8754 7178,8810 7195,8866 7212,8918 7229,8969 7255,9021 7281,9073 7307,9120 7341,9167 7371,9215 7410,9258 7449,9301 7488,9339 7531,9383 7578,9417 7621,9451 7673,9486 7724,9520 7776,9546 7828,9576 7884,9602 7940,9624 8000,9641 8060,9662 8120,9675 8185,9688 8250,9697 8314,9705 8379,9710 8443,9710 8512,9710 8577,9705 8641,9697 8706,9688 8766,9675 8827,9662 8887,9641 8947,9624 9003,9602 9059,9576 9115,9546 9167,9520 9218,9486 9266,9451 9313,9417 9356,9383 9399,9339 9442,9301 9481,9258 9515,9215 9550,9167 9580,9120 9610,9073 9636,9021 9658,8969 9679,8918 9696,8866 9709,8810 9722,8754 9731,8698 9735,8638 9735,8582 9735,8521 9731,8465 9722,8409 9709,8354 9696,8298 9679,8246 9658,8194 9636,8143 9610,8091 9580,8044 9550,7996 9515,7949 9481,7906 9442,7863 9399,7820 9356,7781 9313,7746 9266,7708 9218,7678 9167,7643 9115,7613 9059,7587 9003,7561 8947,7540 8887,7518 8827,7501 8766,7488 8706,7475 8641,7462 8577,7458 8512,7454 8443,7449"/><polygon fill="#3C3" stroke="#000" stroke-width="49.09" points="11995,8095 11995,9387 16516,9387 16516,8095"/></svg>