<svg xmlns="http://www.w3.org/2000/svg" viewBox="0 0 17441 11811"><polygon fill="#ff0" stroke="#2B2A29" stroke-width="50" points="7104,3205 8790,4453 10477,5700 9746,7628 9015,9556 7328,8309 5641,7062 6372,5134"/><path fill="#963" fill-rule="nonzero" stroke="#2B2A29" stroke-width="50" d="M2689 4050l3767 826-1471-2296-2296 1470zm1148-735"/><path fill="#963" fill-rule="nonzero" stroke="#2B2A29" stroke-width="50" d="M7088 8183L3433 9412l2442 1213 1213-2442zm-606 1221"/><path fill="#963" fill-rule="nonzero" stroke="#2B2A29" stroke-width="50" d="M8607 839l534 3819 1643-2176L8607 839zm1089 821"/><polygon fill="#fff" stroke="#2B2A29" stroke-width="50" points="10510,5696 11239,4572 11968,3449 13138,4038 14307,4627 13578,5750 12849,6874 11679,6285"/><path fill="#963" fill-rule="nonzero" stroke="#2B2A29" stroke-width="50" d="M9853 7549l1279 3637 1179-2458-2458-1179zm1229 589"/></svg>