<svg xmlns="http://www.w3.org/2000/svg" viewBox="0 0 17441 11811"><path fill="red" stroke="#000" stroke-width="50" d="M0 0h4826v2540H0z" transform="matrix(0 -.85965 .85 0 425.79 4485.24)"/><circle cx="1505" cy="5819" r="1143" fill="#fff" stroke="#000" stroke-width="50"/><path fill="none" stroke="#2B2A29" stroke-width="50" d="M382 8902l3848 2522H382V8902zm0 1261"/><path fill="red" stroke="#2B2A29" stroke-width="50" d="M2359 7646l3849 2522H2359V7646zm0 1261"/><path fill="red" stroke="#000" stroke-width="50" d="M9472 4607l374 650 375 649-376 650-375 649h-750l-750-1-375-650-374-649 375-650 376-649h750z"/><path fill="red" stroke="#2B2A29" stroke-width="50" d="M0 0h4826v2540H0z" transform="matrix(0 .85965 -.85 0 17073.1 7275.26)"/><circle cx="15994" cy="5942" r="1143" fill="#fff" stroke="#000" stroke-width="50"/><path fill="none" stroke="#2B2A29" stroke-width="50" d="M17117 2858L13269 337h3848v2521zm0-1261"/><path fill="red" stroke="#2B2A29" stroke-width="50" d="M15139 4114l-3848-2521h3848v2521zm0-1261"/></svg>