<svg xmlns="http://www.w3.org/2000/svg" viewBox="0 0 17441 11811"><path fill="#FF9" d="M11887 5830l-1040 2980-5367-1869z"/><path fill="#ff0" stroke="#000" stroke-width="50.2" d="M11887 5830l-1040 2980-5367-1869z"/><path fill="#FF9" d="M10914 8738l-2588 2311-3995-4474z"/><path fill="#ff0" stroke="#000" stroke-width="50.2" d="M10914 8738l-2588 2311-3995-4474z"/><path fill="#FF9" d="M9664 4171l2193 1650 758-1010-2189-1650z"/><path fill="#ff0" stroke="#000" stroke-width="50.2" d="M9664 4171l2193 1650 758-1010-2189-1650z"/><path fill="#FF9" d="M9045 2155l619 2029 1250-1713-618-2025z"/><path fill="#ff0" stroke="#000" stroke-width="50.2" d="M9045 2155l619 2029 1250-1713-618-2025z"/><path fill="#FF9" d="M12425 964l-2104-534 635 2079 2109 530z"/><path fill="#ff0" stroke="#000" stroke-width="50.2" d="M12425 964l-2104-534 635 2079 2109 530z"/><path fill="red" d="M9917 9677l-1574 1376 2066 332 1574-1376z"/><path fill="red" stroke="#000" stroke-width="50.2" d="M9917 9677l-1574 1376 2066 332 1574-1376z"/></svg>