<svg xmlns="http://www.w3.org/2000/svg" viewBox="0 0 17441 11811"><path fill="none" stroke="#000" stroke-width="50" d="M16654 9110l-920 1519-1780 49 920-1522z"/><circle cx="9077" cy="5443" r="1100" fill="#CCC" stroke="#2B2A29" stroke-width="50"/><circle cx="13913" cy="2598" r="1100" fill="#ff0" stroke="#2B2A29" stroke-width="50"/><circle cx="13875" cy="8211" r="1100" fill="#f0f" stroke="#2B2A29" stroke-width="50"/><path fill="#fff" stroke="#000" stroke-width="50" d="M8255 6232v3125H3426z"/><path fill="#CCC" stroke="#000" stroke-width="50" d="M8255 6232v3125H3426z"/><path fill="#fff" stroke="#000" stroke-width="50" d="M9206 10861l-974-1492-1780 11 973 1489z"/><path fill="#CCC" stroke="#000" stroke-width="50" d="M9206 10861l-974-1492-1780 11 973 1489z"/><path fill="#fff" stroke="#000" stroke-width="50" d="M5312 3460l920 1519 1781 49-921-1523z"/><path fill="#CCC" stroke="#000" stroke-width="50" d="M5312 3460l920 1519 1781 49-921-1523z"/><path fill="#fff" stroke="#000" stroke-width="50" d="M8346 1403l-852 1561 852 1564 852-1564z"/><path fill="#CCC" stroke="#000" stroke-width="50" d="M8346 1403l-852 1561 852 1564 852-1564z"/><path fill="#fff" stroke="#000" stroke-width="50" d="M6198 10861l-969-1492-1781 11 974 1489z"/><path fill="#CCC" stroke="#000" stroke-width="50" d="M6198 10861l-969-1492-1781 11 974 1489z"/><path fill="none" stroke="#000" stroke-width="50" d="M11126 9113l920 1519 1780 49-920-1523z"/><path fill="#CCC" stroke="#000" stroke-width="50" d="M696 7804l920 1519 1781 49-921-1522z"/></svg>