<svg xmlns="http://www.w3.org/2000/svg" viewBox="0 0 17441 11811"><circle cx="5275" cy="7774" r="837" fill="#ff0" stroke="#2B2A29" stroke-width="20"/><path fill="#F39" stroke="#2B2A29" stroke-width="20" d="M2484 5557l1978 1978H2484V5557zm0 989"/><path fill="#F39" stroke="#2B2A29" stroke-width="20" d="M7408 4918L5490 6954l-59-1977 1977-59zm-989 30"/><path fill="#F39" stroke="#2B2A29" stroke-width="20" d="M8700 8762L6118 7686l1829-753 753 1829zm-377-915"/><path fill="#F39" stroke="#2B2A29" stroke-width="20" d="M5944 11275l-209-2789 1499 1290-1290 1499zm645-750"/><path fill="#F39" stroke="#2B2A29" stroke-width="20" d="M2470 9973l2383-1464-460 1924-1923-460zm961 230"/><path fill="#0CF" stroke="#2B2A29" stroke-width="50" d="M10572 354l1229 4222-2806-1929 1577-2293zm-788 1146"/><path fill="#0CF" stroke="#2B2A29" stroke-width="50" d="M17059 4739l-4372 466 2849 1863 1523-2329zm-762 1165"/><path fill="#3C3" stroke="#2B2A29" stroke-width="50" d="M11522 4578l-622 449-623 449-680-354-681-355 622-449 623-449 681 355z"/><path fill="#3C3" stroke="#2B2A29" stroke-width="50" d="M13557 7841l-586-496-585-496 180-746 180-747 586 496 585 496-180 746z"/><path fill="#ff0" stroke="#000" stroke-width="50" d="M11270 6270l-178-515-179-516 435-329 435-329 447 312 448 311-158 522-159 522-545 11z"/><path fill="#ff0" stroke="#000" stroke-width="50" d="M13190 3515l179 516 179 515-435 329-435 329-448-311-447-312 158-522 158-522 546-11z"/></svg>