<svg xmlns="http://www.w3.org/2000/svg" viewBox="0 0 17441 11811"><path fill="none" stroke="#2B2A29" stroke-width="50" d="M7679 4864h2083v2083H7679z"/><path fill="#ff0" stroke="#000" stroke-width="50" d="M10377 2849l-313 996-312 995-1044 10-1043 10-332-988-332-989 838-622 838-621 850 605z"/><path fill="#ff0" stroke="#000" stroke-width="50" d="M11745 7618l-989-331-989-331 9-1043 9-1043 995-314 995-313 606 849 605 849-620 839z"/><path fill="#ff0" stroke="#000" stroke-width="50" d="M7044 8950l319-993 320-993 1043-3 1043-3 325 991 326 991-842 616-842 615-846-610z"/><path fill="#ff0" stroke="#000" stroke-width="50" d="M5673 4234l994 318 993 317 5 1044 5 1043-990 327-991 327-617-841-617-841 609-847z"/><path fill="#F39" stroke="#2B2A29" stroke-width="50" d="M12025 2597l-174 747-174 748-746 180-746 180 174-748 174-747 746-180z"/><path fill="#F39" stroke="#2B2A29" stroke-width="50" d="M12012 9227l-747-178-746-178-176-747-176-747 746 178 747 178 176 747z"/><path fill="#F39" stroke="#2B2A29" stroke-width="50" d="M5438 9236l170-748 169-749 745-185 744-185-169 749-169 748-745 185z"/><path fill="#F39" stroke="#2B2A29" stroke-width="50" d="M5404 2609l748 173 748 172 181 746 182 745-748-172-748-172-182-746z"/></svg>