<svg xmlns="http://www.w3.org/2000/svg" viewBox="0 0 17441 11811"><path fill="#CCC" stroke="#2B2A29" stroke-width="69.943" d="M9760.15 10205.6V9080.917h4677.788V10205.6z"/><path fill="#900" stroke="#2B2A29" stroke-width="50" d="M12145 1448l1180 1334 1179 1333H9786l1180-1333z"/><path fill="#ff0" stroke="#2B2A29" stroke-width="50" d="M9777 4259h1125v4678H9777z"/><path fill="#ff0" stroke="#2B2A29" stroke-width="50" d="M13323 4259h1125v4678h-1125z"/><path fill="#3C3" stroke="#2B2A29" stroke-width="50" d="M3892 4974h1239v5153H3892z"/><path fill="#0CF" stroke="#000" stroke-width="50" d="M4534 2980l438 318 438 318-167 515-167 515H3993l-167-515-167-514 437-318z"/><path fill="#0CF" stroke="#000" stroke-width="50" d="M6836 4289l-51 539-50 539-528 118-528 119-276-466-276-465 358-407 357-406 497 215z"/><path fill="#0CF" stroke="#000" stroke-width="50" d="M2192 4326l489-232 489-231 372 393 371 393-259 475-260 475-531-100-532-99-70-537z"/></svg>