<svg xmlns="http://www.w3.org/2000/svg" viewBox="0 0 17441 11811"><path fill="none" stroke="#2B2A29" stroke-width="50" d="M8823 2873l933 655 934 655 1005-540 1004-540-934-655-933-656-1005 541z"/><path fill="#ff0" stroke="#000" stroke-width="50" d="M7746 5896l-308-890-309-889 751-568 750-568 772 538 772 538-273 901-273 901-941 18z"/><path fill="#00f" stroke="#000" stroke-width="50" d="M9665 5892l310 917 311 917-777 579-776 579-791-559-790-560 288-925 288-924 968-12z"/><path fill="none" stroke="#2B2A29" stroke-width="50" d="M8475 2895l-925 667-925 667-1011-527-1012-527 925-667 925-667 1012 527z"/><path fill="#ff0" stroke="#2B2A29" stroke-width="50" d="M8955 8966l677-512 678-512-86 1122-86 1122-592-610z"/><path fill="#ff0" stroke="#2B2A29" stroke-width="50" d="M8493 9006l-677-513-677-512 86 1122 86 1122 591-610z"/><path fill="#ff0" stroke="#2B2A29" stroke-width="50" d="M11344 5556l56 847 55 848-890-689-889-690 834-158z"/><path fill="#ff0" stroke="#2B2A29" stroke-width="50" d="M6036 5572l-56 847-55 848 890-690 889-689-834-158z"/></svg>