<svg xmlns="http://www.w3.org/2000/svg" viewBox="0 0 17441 11811"><path fill="#CCC" stroke="#2B2A29" stroke-width="50" d="M0 0h804v3344H0z" transform="matrix(0 -2.49349 2.57471 0 4123.54 8949.19)"/><path fill="none" stroke="#2B2A29" stroke-width="50" d="M3275 6938L8153 970v5968H3275zm2439 0"/><path fill="#F39" stroke="#2B2A29" stroke-width="50" d="M8760 3201h1973v3744H8760z"/><path fill="#0CF" stroke="#2B2A29" stroke-width="50" d="M2258 9405l780 2 780 2 298 719 297 718-780-1-780-2-297-719z"/><path fill="#0CF" stroke="#2B2A29" stroke-width="50" d="M6601 9405l-780 2-780 2-297 719-298 718 780-1 780-2 298-719z"/><path fill="#0CF" stroke="#2B2A29" stroke-width="50" d="M6622 9405l780 2 780 2 298 719 297 718-780-1-780-2-297-719z"/><path fill="#0CF" stroke="#2B2A29" stroke-width="50" d="M10965 9405l-780 2-780 2-297 719-298 718 780-1 780-2 298-719z"/><path fill="#0CF" stroke="#2B2A29" stroke-width="50" d="M10969 9405l780 2 780 2 297 719 298 718-781-1-780-2-297-719z"/><path fill="#0CF" stroke="#2B2A29" stroke-width="50" d="M15312 9405l-781 2-780 2-297 719-297 718 780-1 780-2 297-719z"/></svg>