<svg xmlns="http://www.w3.org/2000/svg" viewBox="0 0 17441 11811"><path fill="#ff0" stroke="#000" stroke-width="50" d="M9228 4010l295 850 295 851-718 543-718 544-739-515-738-515 261-861 261-862 900-18z"/><path fill="#0CF" stroke="#000" stroke-width="50" d="M6623 1211l703 563 703 562-317 842-317 843-900-41-899-42-239-868-238-868 752-495z"/><path fill="#0CF" stroke="#000" stroke-width="50" d="M11704 2403l-326 840-326 839-899-51-899-50-230-871-229-871 757-487 757-487 697 569z"/><path fill="#0CF" stroke="#000" stroke-width="50" d="M12125 7545l-899-45-899-45-235-869-236-869 754-492 754-492 701 564 701 565-320 842z"/><path fill="#0CF" stroke="#000" stroke-width="50" d="M7348 9559l-235-869-234-870 754-492 754-491 701 565 701 565-321 841-321 841-900-45z"/><path fill="#0CF" stroke="#000" stroke-width="50" d="M3957 5613l757-488 757-487 698 569 697 569-326 840-326 839-898-51-899-50-230-871z"/><path fill="#3C3" stroke="#2B2A29" stroke-width="50" d="M2917 1084l-270 795-270 796 628 553 629 553 270-795 270-796-629-553z"/><path fill="#3C3" stroke="#2B2A29" stroke-width="50" d="M1203 5192l373-752 372-753 836 54 835 54-372 753-372 753-836-54z"/><path fill="#3C3" stroke="#2B2A29" stroke-width="50" d="M15653 6852l-459 703-459 704-823-153-823-153 458-704 459-703 824 153z"/><path fill="#3C3" stroke="#2B2A29" stroke-width="50" d="M13479 10736l362-758 363-757-559-624-559-624-362 758-362 757 558 624z"/></svg>