<svg xmlns="http://www.w3.org/2000/svg" viewBox="0 0 17441 11811"><path fill="#F39" stroke="#2B2A29" stroke-width="50" d="M5157 6378h3342L6828 4707 5157 6378zm835-836"/><path fill="#ff0" stroke="#2B2A29" stroke-width="50" d="M7439 9652l1391 1399-1395-4 4-1395zm-2 698"/><path fill="#ff0" stroke="#2B2A29" stroke-width="50" d="M7421 9613L6029 8214l1396 4-4 1395zm2-698"/><path fill="#ff0" stroke="#2B2A29" stroke-width="50" d="M7987 2478L9945 520v1958H7987zm979 0"/><path fill="#FF8DE2" stroke="#2B2A29" stroke-width="50" d="M0 0h3090v3090H0z" transform="matrix(0 -.61543 -.39482 0 10257 4526.07)"/><path fill="#F39" stroke="#2B2A29" stroke-width="50" d="M6932 4671h3343L8604 6342 6932 4671zm836 836"/><path fill="#FF8DE2" stroke="#2B2A29" stroke-width="50" d="M6040 8116l539-815 538-816 672-3 672-3-539 816-538 816-672 2z"/></svg>