<svg xmlns="http://www.w3.org/2000/svg" width="283" height="267" viewBox="0 0 212 200"><path d="M118 196c-1-7-10-14-19-14-10 0-20 6-20 14 7 2 22 7 39 0zm0 0" fill="#9b9a9a"/><path d="M118 196c-1-7-10-14-19-14l-12 3-2 6v7c8 2 20 3 33-2zm0 0" fill="#acaaab"/><path d="M118 196c-1-7-10-14-19-14h-5c-4 5-5 12-2 17 7 1 16 1 26-3zm0 0" fill="#babbbc"/><path d="M80 196c3 1 10 4 19 4a50 50 0 0 0 19-4c-1-7-10-14-19-14s-19 6-19 14zm19 4c-9 0-16-2-20-4 0-8 10-14 20-14 9 0 18 7 19 14a50 50 0 0 1-19 4zm0 0" fill="#605f64"/><path d="M80 192l-1 4c7 2 22 7 39 0l-1-4c-16 6-30 3-37 0zm0 0" fill="#d4d3d1"/><path d="M118 196l-1-4c-14 5-25 4-33 2l1 4c8 2 20 3 33-2zm0 0" fill="#e7e8e7"/><path d="M118 196l-1-4c-10 4-19 4-26 3l1 4c7 1 16 1 26-3zm0 0" fill="#fefefe"/><path d="M80 196c3 1 10 4 19 4a50 50 0 0 0 19-4l-2-3a52 52 0 0 1-36-1v4zm19 4c-9 0-16-2-20-4l1-4a53 53 0 0 0 37 0l1 4a50 50 0 0 1-19 4zm0 0" fill="#605f64"/><path d="M103 182c0 3-2 4-4 4s-3-1-3-4v-18c0-2 1-4 3-4s4 2 4 4zm0 0" fill="#9b9a9a"/><path d="M103 182c0 3-2 4-3 4-2 0-3-1-3-4v-18c0-2 1-4 3-4 1 0 3 2 3 4zm0 0" fill="#acaaab"/><path d="M103 182c0 3-1 4-2 4l-1-4v-18l1-4 2 4zm0 0" fill="#babbbc"/><path d="M99 160c-2 0-3 2-3 4v18c0 2 1 4 3 4s3-2 3-4v-18c0-2-1-4-3-4zm0 27c-2 0-3-2-3-5v-18c0-2 1-4 3-4s4 2 4 4v18c0 3-2 5-4 5zm0 0" fill="#605f64"/><path d="M123 103c2 3-3 9 1 18-5 6-5 15-4 17l-2-1c0 5-5 12-7 13l-2-2c-3 4-7 7-10 7-9 0-10-9-9-14-8 8-9-1-9-4l-1-8-3 1c-2-1-4-8-3-11 1-4 3-9 2-10h-4c-2-10-1-13 1-16v-7h-3c5-4 6-15 6-17 1-2 4-6 6-14 2-9 12-13 17-12 7-3 15 3 17 8 1 6 3 9 4 11-1 5 2 15 4 18h-4c7 6 5 19 6 23h-3zm21-7c-2-1-4-1-7 1 2-3 2-6 1-14 0-7 8-10 4-16-1 2-5 6-8 7 1-4 1-10-1-14-1-3 1-9 1-9l-5 1c1-1 2-6 0-11-1-5-6-8-6-12-1 1-1 7-4 7 2-14-7-11-7-21-2 0-5 6-4 10-3 0-4-2-3-8 2-5 2-11-6-17-2 4-10 11-6 21 2 5 1 10-1 10-3 0-2-5-2-6 0-2-1-5-4-6 0 6-14 11-12 21-2-5-5-5-10-4 3 2 5 6 2 11-4 4-3 8 0 12 2 4 0 12-6 8-3 2-5 8-3 14 1 5 3 9-1 6-1-1-1 11 2 16 2 6 4 10-3 8 1 1 0 12 7 16 1 0-1 3-4 3 2 1 4 3 4 8s2 12 11 12l-4 2 8 8c4 4 10 4 17 4 0 0 5 3 11 0 5 1 13-2 17-6 4-5 5-8 10-10l-5-1c4-2 8-6 9-15 1-6 5-8 5-8l-5-1c2-3 3-8 3-16 0-6 2-10 5-11zm0 0" fill="#d02426"/><path d="M76 69c1-2 4-6 6-14 2-9 12-13 17-12 7-3 15 3 17 8 1 6 3 9 4 11-1 5 2 15 4 18h-4c7 6 5 19 6 23h-3c2 3-3 9 1 18-5 6-5 15-4 17l-2-1c0 5-5 12-7 13l-2-2c-3 4-7 7-10 7-9 0-10-9-9-14-8 8-9-1-9-4l-1-8-3 1c-2-1-4-8-3-11 1-4 3-9 2-10h-4c-2-10-1-13 1-16v-7h-3c5-4 6-15 6-17zM65 84c-1 2 1 3 3 4 0 5-4 11-2 17l2 1c1 4 1 6 3 8 3 7-4 20 6 25 1 0 0 2-2 2 2 0 2 2 2 2 2 5 5 10 11 9-2 6 0 12 7 11 3-1 3-3 5-5l1 2c4 2 9 0 11-4h-3v-2c5-1 6-6 9-9 1-1 4 2 6 0 0-1 0-2 2-2l9-8 1-3c1-6 5-8 5-8l-5-1c2-3 3-8 3-16 0-6 2-10 5-11-2-1-4-1-7 1 2-3 2-6 1-14 0-7 8-10 4-16-1 2-5 6-8 7 1-4 1-10-1-14-1-3 1-9 1-9l-5 1c1-1 2-6 0-11-1-5-6-8-6-12-1 1-1 7-4 7 2-14-7-11-7-21-2 0-5 6-4 10-3 0-4-2-3-8 2-5 2-11-6-17-2 4-10 11-6 21 2 5 1 10-1 10-3 0-2-5-2-6 0-2-1-5-4-6 0 6-14 11-12 21-2-5-5-5-10-4 3 2 5 6 2 11-4 4-3 8 0 12 1 3 0 8-2 9 0 5 2 10 1 16zm0 0" fill="#e32124"/><path d="M71 72c4-2 1-8 4-11 1-1 1 0 2 1l5-19c6 2 7-5 11-7 1 1 1 4 3 2 2-1 2-5 3-6 2 2 3 6 7 7 3 1 2-5 4-2l8 14c1-1 0-5 2-4 4 4-1 12 4 16 0 1 3 2 4 0-1 7-4 12-2 18l2 1c-1 2-2 5-1 7s3 2 4 2l8-1-1-7c0-7 8-10 4-16-1 2-5 6-8 7 1-4 1-10-1-14-1-3 1-9 1-9l-5 1c1-1 2-6 0-11-1-5-6-8-6-12-1 1-1 7-4 7 2-14-7-11-7-21-2 0-5 6-4 10-3 0-4-2-3-8 2-5 2-11-6-17-2 4-10 11-6 21 2 5 1 10-1 10-3 0-2-5-2-6 0-2-1-5-4-6 0 6-14 11-12 21-2-5-5-5-10-4 3 2 5 6 2 11-4 4-3 8 0 12v7c2 1 5 3 5 6zm0 0" fill="#e42d24"/><path d="M90 141c0 3 0 8 2 11 2 2 4 3 7 3s7-3 10-8l2 3c3-1 7-8 6-13h1l2 1c-1-3-1-12 4-17-3-5-2-10-2-13v-5l2-1 2 1-1-5c0-5 1-14-5-17v-1h3c-2-4-4-13-3-18l-5-11c-1-4-7-9-13-9l-3 1h-1c-5 0-14 4-16 12s-4 12-6 14c0 2 0 13-5 17h2v8c-2 3-3 5-1 15h1l3-1h1v1l-3 10c-1 3 0 7 1 9l2 2 3-1 1 7v1l1 4c1 4 4 4 8 0zm9 14c-3 0-5-1-7-3-2-3-3-7-2-10l-5 3c-2 0-3-1-4-4v-5l-1-7-3 1-2-2c-1-2-2-6-1-9l2-10-3 1h-1v-1c-2-10-1-13 0-16h1v-7h-3c5-4 6-15 6-17 1-2 4-6 5-14 3-8 12-13 17-13h4c7 0 13 5 14 9s2 8 5 10v1c-1 5 1 15 3 18v1l-2-1h-2c6 5 6 13 6 18v5h-3v5c-1 3-1 8 1 13-5 6-5 14-4 17h1-1l-2-1c0 6-4 12-7 14v-1l-2-2c-3 4-7 7-10 7zm-5 9h1a11 11 0 0 0 10 0h2c6 0 11-3 15-6l2-3c2-3 4-6 8-7l-5-1h-1 1c3-2 8-6 9-15 0-5 4-8 5-8l-5-1h-1 1c1-2 3-7 3-16 0-5 2-9 4-11h-1c-2 0-4 0-5 2l-1 1v-2c2-3 3-5 2-14 0-3 1-6 3-8 1-3 3-5 1-7-1 1-5 6-8 6 1-4 1-9-1-14v-9l-2 1-2 1h-1l1-1c1-2 2-6 0-11 0-3-2-5-3-6-2-2-3-3-3-5l-1 2c0 2-1 5-3 5v-1c1-7-1-10-4-13l-4-8-1 1c-1 2-3 6-1 9v1h-1l-3-2v-7c2-5 2-11-6-16l-2 3c-3 4-7 10-4 17 1 4 2 8 1 9l-2 1-2-1v-5c0-2-1-4-4-6l-4 7c-5 4-9 8-7 14h-1c-1-3-3-4-6-4h-3l3 4c0 2 0 4-2 7-4 5-2 9 0 12v7l-4 2-2-1c-2 2-5 8-3 14v1c1 3 2 5 1 6h-2c-1 0-1 10 2 15 1 3 3 6 2 8h-5l1 3c1 4 1 10 6 12v2c0 1-1 2-3 2 1 1 3 3 3 8 1 6 2 11 11 12l-3 2 7 8c3 3 6 4 13 4h4zm6 2l-6-2h-4c-5 0-10 0-13-4l-8-8-1-1h1l3-1c-8-1-10-7-10-12s-2-6-4-8v-1l1 1c2 0 3-2 3-2v-1c-5-3-6-9-7-13v-4 1c2 1 4 1 4-1 1-1 0-4-1-7-3-4-4-14-3-16h1l2 1-1-6-1-1c-2-6 1-12 4-14l2 1c2 0 3-1 3-2 1-2 2-5 1-7-3-3-5-7-1-12 2-3 2-5 2-7s-1-3-3-4l4-1c3 0 5 1 6 4-1-6 4-10 7-13s5-5 5-7c3 1 4 4 4 6v1l1 4 1 1 1-1v-9c-4-7 1-13 4-18l1-3h1c8 6 8 11 6 17l1 7 2 1c-1-3 0-7 2-9l2-2v1c0 4 2 6 4 8s4 5 4 13l2-4 1-3c0 2 1 3 3 5l4 7c1 4 0 9-1 11l2-1h3s-2 6-1 9c2 5 2 10 1 14 3-1 7-5 8-7 3 3 1 6-1 9-1 2-3 4-2 7 0 8 0 10-2 14l5-2h2v1c-3 2-4 5-5 11 1 9-1 13-3 15l5 1v1s-4 2-5 8c-1 9-5 13-9 15l5 1 1 1h-1c-4 1-5 3-8 7l-2 2c-3 4-9 6-15 6h-2l-5 2zm0 0" fill="#902724"/><path d="M144 96c-2-1-4-1-7 1 2-3 2-6 1-14 0-7 8-10 4-16-1 2-5 6-8 7 1-4 1-10-1-14-1-3 1-9 1-9l-5 1c1-1 2-6 0-11-1-5-6-8-6-12-1 1-1 7-4 7 2-14-7-11-7-21-2 0-5 6-4 10-3 0-4-2-3-8 2-5 2-11-6-17-2 4-10 11-6 21 2 5 1 10-1 10-3 0-2-5-2-6 0-2-1-5-4-6 0 6-14 11-12 21-2-5-5-5-10-4 3 2 5 6 2 11-4 4-3 8 0 12 2 4 0 12-6 8-3 2-5 8-3 14 1 5 3 9-1 6-1-1-1 11 2 16 2 6 4 10-3 8 1 1 0 12 7 16 1 0-1 3-4 3 2 1 4 3 4 8s2 12 11 12l-4 2 8 8c4 4 10 4 17 4-4-2-10-1-13-6 2-1 4-1 4-3-4-1-11-16-16-17l4-1c-3-1-7-6-6-12l1 2c1-1 2-10-4-12h4c-3-3-5-5-6-9l-1-11 4 4c1-2-1-8-2-10-2-3 3-12 3-15l1 4c-1 2 2 5 3 2 2-3 0-8 0-12 1-4 4-11 0-15 1-1 5 4 5 4 0-4 0-9 3-12s4-7 4-9l4 3c0-2 2-4 6-5 3-2 8-7 6-12 2 0 3 4 3 8 0 3 1 4 5 6-1-2 1-5 1-5 0 2 3 6 6 7 4 1 5 6 5 8 1-2 3-3 3-6 1 2 4 7 3 13s0 9 2 10 3-2 3-3c2 1 2 8 0 14-2 5-1 7 0 7l3-1c1 1-4 5-3 6 0 1 3-2 3 0 1 2 0 6-2 9-3 3-3 8 0 9 2 1 2-5 2-5 1 1 5 8-1 15-4 5-6 10-3 13 0-2 1-6 4-6 0 2 1 9-5 13-5 4-3 7-3 7l4-2c-2 1-2 3-2 6-1 2-10 4-12 9h4c-2 2-4 7-13 10 5 1 13-2 17-6 4-5 5-8 10-10l-5-1c4-2 8-6 9-15 1-6 5-8 5-8l-5-1c2-3 3-8 3-16 0-6 2-10 5-11zm0 0" fill="#db4225"/><path d="M144 96c-2-1-4-1-7 1 2-3 2-6 1-14 0-7 8-10 4-16-1 2-5 6-8 7 1-4 1-10-1-14-1-3 1-9 1-9l-5 1c1-1 2-6 0-11-1-5-6-8-6-12-1 1-1 7-4 7 2-14-7-11-7-21-2 0-5 6-4 10-3 0-4-2-3-8 2-5 2-11-6-17 0 9-8 11-3 20 2 5-2 11-4 11-3 0-2-5-2-6 0-2-1-5-4-6 3 8-14 15-11 25-2-5-6-9-11-8 3 2 5 6 2 11-4 4-3 8 0 12 2 4 0 12-6 8-3 2-5 8-3 14 1 5 3 8 0 7l1 11c0 1 2 1 1 2 0 4 0 10 5 12-3 1-7 0-6 4 1 3 5 4 6 7 1 2 1 7-3 7 3 4 2 10 7 12 3 1 3 6 9 6 0 3-2 6 0 9l3 3 1 1c3 2 8 2 13 2-4-2-10-1-13-6 2-1 4-1 4-3-4-1-11-16-16-17l4-1c-3-1-7-6-6-12l1 2c1-1 2-10-4-12h4c-3-3-5-5-6-9l-1-11 4 4c1-2-1-8-2-10-2-3 3-12 3-15l1 4c-1 2 2 5 3 2 2-3 0-8 0-12 1-4 4-11 0-15 1-1 5 4 5 4 0-4 0-9 3-12s4-7 4-9l4 3c0-2 2-4 6-5 3-2 8-7 6-12 2 0 3 4 3 8 0 3 1 4 5 6-1-2 1-5 1-5 0 2 3 6 6 7 4 1 5 6 5 8 1-2 3-3 3-6 1 2 4 7 3 13s0 9 2 10 3-2 3-3c2 1 2 8 0 14-2 5-1 7 0 7l3-1-2 3c2-1 3-1 5 1 3 3-3 7-1 9 1 2-2 5 1 7 2 1 4 1 5-2l-6 17c6 2-3 7 1 11l1 3c-2 4-7 5-4 10-3 0-3 2-3 4l-2 1a13 13 0 0 1-2 5c-1 2-3 3-5 3 1 1 2 2 1 3l-5 7 6-4c4-5 5-8 10-10l-5-1c4-2 8-6 9-15 1-6 5-8 5-8l-5-1c2-3 3-8 3-16 0-6 2-10 5-11zm0 0" fill="#ed6e1e"/><path d="M60 72c4-2 8-2 9-7s-5-8-3-12l3-6c2-3 0-7-3-9 2 2 2 5 0 9-4 4-3 8 0 12 2 4 0 12-6 8-3 2-5 8-3 14l1 4h1c1-5-2-11 1-13zm0 0" fill="#f39513"/><path d="M104 26c1 2 3 4 5 2 3-2 2-5 2-9l7 19c0 2 4-1 6-4 4 7 1 15 3 20 1 2 4 1 6-1l1-2-5 1c1-1 2-6 0-11-1-5-6-8-6-12-1 1-1 7-4 7 2-14-7-11-7-21-2 0-5 6-4 10-3 0-4-2-3-8 2-5 2-10-5-16l1 2c2 8-3 16 3 23zm29 50l6-1c-4 5-1 12-1 18V83c0-7 8-10 4-16-1 2-5 6-8 7V63l-1 13zm0 0" fill="#f18d16"/><path d="M70 152l7 8c3 3 6 4 13 4h3l-3-1c-4-1-7-1-9-4l-1-1h3l1-3c-2 0-4-4-7-8-2-4-6-8-8-8l-2-1h2l4-1c-3-1-7-7-6-12v-1 1l1 2v-9l-4-3h-1 5l-6-9-1-8v-4 1c2 0 3 2 4 3 1-1-1-7-2-9s0-7 1-11l2-4v-1 1l1 4 1 2v1l2-1v-6-6l1-2c0-5 2-10-2-13h1l5 3c0-4 0-9 3-11 3-3 4-7 3-9h1l3 3c1-3 4-5 7-6s7-6 6-11v-1c2 1 3 5 3 9 1 3 1 4 5 6-1-3 1-5 1-5l1-1v1c0 2 2 6 5 7 4 1 5 5 5 8l1-2c1-1 2-2 1-4v-1l1 1c1 1 5 6 3 13 0 6 0 9 2 10 2 0 3-2 3-3 2 1 2 8 0 14l-1 7h1l1-1h3l-2 3-2 3h1l2-1 1 1-3 9c-2 2-2 5-1 7l1 2h1v-5h1l2 4c1 2 1 7-3 12-3 3-6 8-4 11 1-2 2-5 5-6v1c1 3 1 9-5 13-4 3-4 6-3 7l4-3h1l-1 1c-2 1-2 2-2 4v2l-4 3c-3 1-6 3-8 6h4v1c-2 2-4 6-12 9h1c6 0 11-3 15-6l2-3c2-3 4-6 8-7l-5-1h-1 1c3-2 8-6 9-15 0-5 4-8 5-8l-5-1h-1 1c1-2 3-7 3-16 0-5 2-9 4-11h-1c-2 0-4 0-5 2l-1 1v-2c2-3 3-5 2-14 0-3 1-6 3-8 1-3 3-5 1-7-1 1-5 6-8 6 1-4 1-9-1-14v-9l-2 1-2 1h-1l1-1c1-2 2-6 0-11 0-3-2-5-3-6-2-2-3-3-3-5l-1 2c0 2-1 5-3 5v-1c1-7-1-10-4-13l-4-8-1 1c-1 2-3 6-1 9v1h-1l-3-2v-7c2-5 2-11-6-16l-2 3c-3 4-7 10-4 17 1 4 2 8 1 9l-2 1-2-1v-5c0-2-1-4-4-6l-4 7c-5 4-9 8-7 14h-1c-1-3-3-4-6-4h-3l3 4c0 2 0 4-2 7-4 5-2 9 0 12v7l-4 2-2-1c-2 2-5 8-3 14v1c1 3 2 5 1 6h-2c-1 0-1 10 2 15 1 3 3 6 2 8h-5l1 3c1 4 1 10 6 12v2c0 1-1 2-3 2 1 1 3 3 3 8 1 6 2 11 11 12l-3 2zm20 12c-5 0-10 0-13-4l-8-8-1-1h1l3-1c-8-1-10-7-10-12s-2-6-4-8v-1l1 1c2 0 3-2 3-2v-1c-5-3-6-9-7-13v-4 1c2 1 4 1 4-1 1-1 0-4-1-7-3-4-4-14-3-16h1l2 1-1-6-1-1c-2-6 1-12 4-14l2 1c2 0 3-1 3-2 1-2 2-5 1-7-3-3-5-7-1-12 2-3 2-5 2-7s-1-3-3-4l4-1c3 0 5 1 6 4-1-6 4-10 7-13s5-5 5-7c3 1 4 4 4 6v1l1 4 1 1 1-1v-9c-4-7 1-13 4-18l1-3h1c8 6 8 11 6 17l1 7 2 1c-1-3 0-7 2-9l2-2v1c0 4 2 6 4 8s4 5 4 13l2-4 1-3c0 2 1 3 3 5l4 7c1 4 0 9-1 11l2-1h3s-2 6-1 9c2 5 2 10 1 14 3-1 7-5 8-7 3 3 1 6-1 9-1 2-3 4-2 7 0 8 0 10-2 14l5-2h2v1c-3 2-4 5-5 11 1 9-1 13-3 15l5 1v1s-4 2-5 8c-1 9-5 13-9 15l5 1 1 1h-1c-4 1-5 3-8 7l-2 2c-3 4-9 6-15 6h-3 1c8-3 11-7 12-9l-1-1-2 1v-1c1-3 5-5 8-6l4-3v-2l1-4-3 2h-1s-1-3 4-7 5-10 5-13c-3 1-4 4-4 6h-1c-2-3-1-7 3-13 4-5 4-9 3-11l-1-3-1 4h-1l-2-2c-1-2 0-5 1-7 3-3 4-7 3-9v-1l-2 1h-1c-1 0 0-2 2-3l1-3-2 1h-2c-1-1-1-3 1-8s1-11 0-12c0 0-1 2-3 2-3-1-3-4-2-10s-2-10-3-12l-2 4-1 1v1-1c0-2-2-7-5-8s-5-4-6-6c0 0-2 2-1 4h1-1c-4-2-5-3-5-6s-1-7-3-8c2 5-2 10-6 12-5 2-6 4-6 5v1l-1-1-3-3c0 2-1 6-4 9s-3 8-2 12h-1s-3-4-5-4c3 3 2 9 1 13l-1 2 1 6-1 6-2 2-1-1-1-3v-4l-1 5c-1 3-3 8-2 9 2 3 3 9 2 11l-3-4v11l6 9h1-3l2 3c2 4 1 8 1 9h-1l-1-1c-1 5 3 10 7 11v1l-4 1c3 1 5 4 8 8 2 4 5 7 7 8 0 2-1 2-2 3l-2 1c2 3 6 3 9 4l4 1h2-6zm0 0" fill="#c62e27"/><path d="M104 115s12 14 29 17c6 1 13 5 16 9 2 3 6 12 14 6 3 1 7-2 9-6-5-6-45-34-45-34l-23 8zm0 0" fill="#e98f1a"/><path d="M110 113s9 12 27 15c6 1 12 6 14 10s4 15 12 9c3 1 7-2 9-6-5-6-45-34-45-34l-17 6zm0 0" fill="#f2ab09"/><path d="M105 115c1 2 12 14 28 16 6 2 13 6 16 10h1c1 3 4 8 8 8l5-2c3 0 7-2 8-6-4-6-42-32-44-34-5 3-20 7-22 8zm53 34c-4 0-7-5-9-8-3-4-10-8-16-9-17-3-29-17-29-17l23-8c2 1 40 28 45 34-2 5-5 7-9 7l-5 1zm0 0" fill="#a23d26"/><path d="M166 135c-3 9-11 10-15 10 3 3 6 6 12 2 3 1 7-2 9-6l-6-6zm0 0" fill="#efdb83"/><path d="M166 135c-3 9-11 10-15 10 3 3 6 4 9 1 3 1 8-2 9-6l-3-5zm0 0" fill="#fcefb2"/><path d="M152 145c2 2 4 4 6 4l5-2c3 0 7-2 8-6l-5-5c-3 7-10 9-14 9zm6 4c-3 0-5-1-7-4v-1h1c4 0 11-1 13-9h1l6 6c-2 4-5 7-8 7h-1l-5 1zm0 0" fill="#c3a223"/><path d="M164 148c-4-1-5-4-5-4s1 3 5 3zm0 0" fill="#c3a223"/><path d="M146 101s4-3 13-4c8-2 13-7 15-10 3-3 8-7 14-5l-1-4c-4-1-8-4-18 6-7 7-16 9-28 6 0 4 5 11 5 11zm0 0" fill="#e98f1a"/><path d="M144 97l15-3c8-1 13-8 15-11 3-3 10-5 14-1l-1-4c-4-1-8-4-18 6-7 7-16 9-28 6 0 4 3 7 3 7zm0 0" fill="#f2ab09"/><path d="M141 90l5 10c1 0 5-3 13-4s12-6 15-9v-1c2-2 6-4 10-4h4l-1-4h-2l-3-1c-3 0-7 1-13 7-5 5-12 7-19 7l-9-1zm5 11c-1 0-5-7-6-11h1l9 1c7 0 13-2 19-7 5-5 9-7 13-7h3l2 1 1 4v1l-4-1c-4 0-8 3-10 5v1c-3 2-7 7-15 9-9 1-13 4-13 4zm0 0" fill="#a23d26"/><path d="M67 105s-17 7-37 7c-4 0-6 12-16 7-4 1-9-1-10-6-3-2-8-12 4-16 2-2 19-5 28 0l31 8zm0 0" fill="#e98f1a"/><path d="M30 107c5-3 12 2 17-1l4-5-15-4c-9-5-26-2-28 0-4 1-5 3-6 4 8 7 16 14 28 6zm0 0" fill="#f2ab09"/><path d="M12 103c5 4 19 7 18-2l-3-6c-7-1-14 0-18 2l3 6zm0 0" fill="#f6b508"/><path d="M14 119l5 1c3 0 5-3 7-5l4-4h2c17 0 31-5 34-6l-30-7v-1c-4-2-9-2-13-2L8 97v1c-4 1-7 3-7 6-1 4 1 8 3 9 1 4 4 6 8 6h2zm5 1l-5-1-2 1c-4 0-7-3-8-7-2-1-4-5-4-9 1-2 2-5 8-7 1-1 7-3 15-3a3502 3502 0 0 0 44 10l1 1h-1s-17 7-37 7l-4 3c-1 3-4 5-7 5zm0 0" fill="#a23d26"/><path d="M15 107c-7-2-7-7-7-10-12 4-7 14-4 16 1 5 6 7 10 6 10 5 12-7 16-7-1-3-9-3-15-5zm0 0" fill="#efdb83"/><path d="M15 107c-7-2-7-7-7-10-12 4-5 13-4 13 1 5 4 8 9 6 9 5 9-4 13-6l-11-3zm0 0" fill="#fcefb2"/><path d="M14 119l5 1c3 0 5-3 7-5l4-4-9-2-6-2c-7-2-7-6-7-9-5 1-7 3-7 6-1 4 1 8 3 9 1 4 4 6 8 6h2zm5 1l-5-1-2 1c-4 0-7-3-8-7-2-1-4-5-4-9 1-2 2-5 8-7 0 3 1 8 7 10l6 2c5 0 8 1 9 3l-4 3c-1 3-4 5-7 5zm0 0" fill="#c3a223"/><path d="M58 100s26 34 69 9c13-7 14-23 4-23-11 0-25-3-35-16l-38 30zm0 0" fill="#e98f1a"/><path d="M97 101c6 0 13 5 19 6s13-3 19-5c5-7 4-16-4-16-11 0-25-3-35-16L61 98c15 8 24 2 36 3zm0 0" fill="#f2ab09"/><path d="M108 85c-1 3-5 5-8 5 0 5 7 8 11 10 10 2 18 0 26-4 2-5 0-10-6-10-7 0-15-2-23-6a10 10 0 0 1 0 5zm0 0" fill="#f6b508"/><path d="M58 100c2 2 15 18 38 18 10 0 20-3 31-9 8-4 12-13 10-18 0-3-3-5-6-5-16 0-28-6-35-16l-38 30zm38 19c-24 0-38-19-38-19l38-30v-1 1c8 10 19 15 35 16 3 0 6 2 7 5 1 5-2 14-11 19-10 6-21 9-31 9zm0 0" fill="#a23d26"/><path d="M101 105c-11-4-23 2-30 6 12 7 31 13 56-2h1c-9 1-19-2-27-4zm0 0" fill="#efdb83"/><path d="M92 113c8 3 19 2 26-4l-17-4-11-1c2 3 0 8 2 9zm0 0" fill="#fcefb2"/><path d="M71 111c8 5 17 7 25 7 10 0 20-3 31-9h-5l-19-3-2-1-7-1c-8 0-17 4-23 7zm25 8c-9 0-17-3-25-8 6-3 14-7 23-7l8 1h2c5 2 12 4 18 4h6l1-1v1l-2 1c-10 6-21 9-31 9zm0 0" fill="#c3a223"/><path d="M90 100s0 20-33 27c-1 2-4 12-12 8-3 2-9-1-11-6-3-1-9-7-4-13 6-6 10-4 10-4 5-4 19-5 24-10zm0 0" fill="#e98f1a"/><path d="M90 100s-2 18-41 25c-1 2 4 14-4 10-3 2-9-1-11-6-3-1-9-7-4-13 6-6 10-4 10-4 5-4 19-5 24-10zm0 0" fill="#f2ab09"/><path d="M53 122c4 0 5-4 8-5 11-3 22-6 29-15v-2l-26 2c-5 5-16 6-22 9 0 5 5 10 11 11zm0 0" fill="#f6b508"/><path d="M49 136l-4-1c-3 2-9-1-12-6l-5-5c-1-2-1-5 2-8 6-6 9-5 10-4 2-2 6-3 10-4 5-1 11-3 14-6-3 3-9 5-14 6-4 1-8 2-10 4s-4-2-10 4c-2 2-2 5-1 7 0 3 3 5 5 5v1c2 5 8 7 11 6h6c3-1 4-5 5-7l1-1v-1c16-3 25-10 29-16 4-5 4-10 4-10s1 5-4 11c-4 5-12 12-29 16v1c-1 2-3 7-6 8h-2zm0 0" fill="#a23d26"/><path d="M40 112s-4-2-10 4c-5 6 1 12 4 13 2 5 8 8 11 6 8 4 11-6 12-8l-10-3c-7-4-7-9-7-12zm0 0" fill="#efdb83"/><path d="M40 112s-4-2-10 4c-5 6 1 10 4 10 2 5 6 8 9 6 8 5 9-6 7-7l-3-1c-7-4-7-9-7-12zm0 0" fill="#fcefb2"/><path d="M45 135l4 1c4 0 6-6 7-8v-1l-10-3c-6-3-6-9-6-12h-2c-1 0-4 0-8 4-2 2-2 5-1 7 0 3 3 5 5 5v1c2 4 6 6 9 6h2zm4 1l-4-1-2 1c-3 0-7-3-10-7l-5-5c-1-2-1-5 2-8 4-4 7-5 8-5l2 1c0 3 1 8 7 12l10 2v2c-2 3-4 8-8 8zm0 0" fill="#c3a223"/><path d="M46 135c-4-1-4-9-4-9s0 7 4 9zm-12-5c-2-5 3-10 3-10s-5 5-3 10zm0 0" fill="#c3a223"/><path d="M17 45s-3 6-3 12l5-2c-1 3-7 12 20 35 1 6 3 13 14 18l-1-5c4 2 18 4 22 3l-2-5c5 0 16-2 23-6l-4-6c3 0 12-1 14-5 0-5-2-14-4-15l6 5c1-3 2-19-4-27 2-1 5 3 5 3 0-4-3-19-15-25h7c-2-2-13-18-37-11-5-5-12-10-24-5l4 3c-21 0-27 25-26 33zm0 0" fill="#823b24"/><path d="M108 50c0-4-3-19-15-25h7c-2-2-13-18-37-11-5-5-12-10-24-5l4 3c-21 0-27 25-26 33 0 0-3 6-3 12l5-2c-1 2-4 8 7 21 3-6 9-12 16-9 6 3 7 14 10 22 1 1 1 5 3 4s3-5 4-4c6 7 13 6 21 6l-7-7c7 1 13-2 20-3-1-3-5-4-6-7 3 1 7 2 8 0 3-4-3-11 0-14 3-4 10 3 12 8 1-5 1-18-4-25 2-1 5 3 5 3zm0 0" fill="#913e25"/><path d="M88 25c4 0 7-2 7-2-3-2-11-14-34-7-6-6-11-11-19-7l5 4c-21 0-31 24-30 32 0 0-3 6-3 12l5-2c0 1-2 4 0 9l3-1c6-4 7-10 10-17 2-4 1-8 6-8 2 0 2-5 3-8 2-4 6-5 10-6-5 6-3 12-3 13 4-1 9-1 14 5 8 15 4 17 6 19 10 8 1 22 14 22-3-1-3-4-4-7v-3c4-1 8 1 11 2 1-6-1-13 6-15 3-1 6 1 8 4-3-8-3-16-3-24l5 1c-2-5-9-12-17-16zm0 0" fill="#9f3e26"/><path d="M19 55c-1 4-5 14 20 35 2 7 4 13 14 18l-2-5h1c3 2 13 3 19 3h2l-1-5c5 0 16-2 22-6l-3-6c4 0 11-1 13-5 0-5-2-14-4-15h1l6 5c1-4 2-19-4-27v-1c2 0 4 2 4 3 1-4-2-18-14-23l-1-1h7l-1-2c-3-3-10-10-23-10l-12 1c-5-4-9-7-15-7l-9 2 4 3v1h-1c-7 0-13 2-17 8-6 8-9 19-8 24 0 0-3 6-3 12 2-2 5-2 5-2zm34 54c-10-5-13-12-14-19-25-21-22-31-20-35l-5 2c-1-6 2-11 3-12-1-5 1-16 8-24 4-6 10-9 17-9l-3-3-1-1h1l9-1c6 0 10 2 15 7l12-2c13 0 20 8 24 11l1 2h1-1l-6 1c12 6 14 20 14 24-1 0-3-3-5-3 6 8 6 24 4 27v1l-1-1-5-5c2 3 4 11 4 15v1c-2 3-10 4-13 5l3 5c-6 4-18 6-23 6 0 1 0 3 2 5l-3 1c-6 0-16-2-19-4l1 5zm0 0" fill="#473025"/><path d="M32 38c0 7-5 13-13 13-7 0-12-6-12-13 0-6 5-12 12-12 8 0 13 6 13 12zm0 0" fill="#f2ab09"/><path d="M32 38c0 7-3 10-10 10S9 44 9 38c0-7 3-12 10-12 8 0 13 6 13 12zm0 0" fill="#f6b508"/><path d="M19 27c-6 0-12 5-12 11 0 7 6 12 12 12 8 0 13-5 13-12 0-6-5-11-13-11zm0 24c-7 0-13-6-13-13 0-6 6-12 13-12 8 0 13 6 13 12 0 7-5 13-13 13zm0 0" fill="#a23d26"/><path d="M25 48s-9 0-9-8c1-6 12-2 13 2l-4 6zm0 0" fill="#efdb83"/><path d="M27 44s-11 4-11-4c1-6 12-2 13 2-1 3-2 2-2 2zm0 0" fill="#fcefb2"/><path d="M20 37c-1 0-3 1-3 3-1 2 0 4 1 5 2 3 6 3 7 3l4-6c0-2-5-5-9-5zm5 11c-1 0-5 0-8-3l-1-5c0-2 2-3 4-3 4 0 9 2 10 5v1h-1l-4 5zm0 0" fill="#c3a223"/><path d="M23 56s-4-12 11-20l-2 10zm0 0" fill="#9f3e26"/><path d="M24 46c3-8 10-10 10-10-14 8-11 20-11 21 0 0-2-6 1-11zm21 3c-5-19 4-22 4-22s-9 4-3 21zm0 0" fill="#473025"/><path d="M97 47c1 7-5 12-12 13-7 0-13-5-14-11 0-7 6-12 13-13 6 0 13 5 13 11zm0 0" fill="#f2ab09"/><path d="M93 47c1 6-3 9-10 9-8 1-11-1-12-7 0-7 6-12 13-13 6 0 9 4 9 11zm0 0" fill="#f6b508"/><path d="M85 36h-1c-4 1-7 2-9 4-2 3-4 6-3 9 0 6 6 11 13 10 7 0 12-6 12-12-1-6-6-11-12-11zm-1 24c-7 0-12-5-13-11 0-3 1-6 4-9 2-2 5-4 9-4 7 0 13 5 13 11 1 7-5 12-12 13h-1zm0 0" fill="#a23d26"/><path d="M74 51s3-8 10-7c5 2 7 11-4 13l-6-6zm0 0" fill="#efdb83"/><path d="M74 51s3-8 10-7c5 2 4 9-7 10l-3-3zm0 0" fill="#fcefb2"/><path d="M74 51l6 5c5 0 7-3 8-6 0-2-2-5-4-6h-1c-6 0-8 6-9 7zm5 6l-5-6s3-7 9-7h1c2 1 4 4 4 6 0 4-3 6-8 7zm0 0" fill="#c3a223"/><path d="M30 81s1 5-1 8c-1 3-2 13 13 13 5 0 7-2 6-12-1-5 1-5 1-5s12 5 19-6c4-7 3-16-6-17 2-4 2-12-3-16-4-4-12-5-14-1-4-5-12-4-16 3s-2 16 2 21c2 3-1 12-1 12zm0 0" fill="#e98f1a"/><path d="M30 81s1 5-1 8c-1 3-2 13 13 13 5 0 7-2 6-12v-9s14 5 18-3c4-6 5-15-4-16 2-4 2-12-3-16-4-4-12-5-14-1-4-5-12-4-16 3s-2 16 2 21c2 3-1 12-1 12zm0 0" fill="#f2ab09"/><path d="M49 73c2 0 4 3 6 4 6 2 14-4 11-10 0-3-4-2-7-4 6-6 2-18-7-20-3-1-6 0-7 2-4-5-12-4-16 3s-2 16 2 21l1 1c5 3 11 3 17 3zm0 0" fill="#f6b508"/><path d="M30 81v8c-1 1-2 5 0 8 1 2 4 5 12 5l4-2c2-1 2-5 2-10-1-3 0-4 1-5v-1 1l7 1c3 0 8-1 12-7 2-5 3-10 1-13-1-2-3-4-7-4 2-3 2-12-3-16-2-2-6-3-9-3l-5 2h-1c-1-2-3-3-6-3s-6 2-8 6c-4 7-3 15 2 21 1 3-1 11-2 12zm12 21c-8 0-11-3-13-5v-8c2-3 1-8 1-8 0-1 3-9 1-12-5-6-6-14-2-21 2-4 5-6 9-6l7 2 5-2c3 0 7 2 9 4 5 4 5 12 4 15 3 1 5 2 7 5 1 3 1 9-2 13-3 6-8 7-12 7l-7-1-1 5c1 6 0 9-1 11l-5 1zm0 0" fill="#a23d26"/><path d="M50 80c2-4 0-6-8-7-3 0-4-4-12-6l1 2c2 3-1 12-1 12s1 5-1 8c-1 3-2 13 13 13 5 0 7-2 6-12-1-5 1-5 1-5l1-5zm0 0" fill="#efdb83"/><path d="M50 80c2-4 0-6-8-7-3 0-4-4-12-6l1 2c2 3-1 12-1 12s5 3 3 7c-2 2-4 10 8 10 4 1 6-1 5-10 0-6 3-6 4-8zm0 0" fill="#fcefb2"/><path d="M30 81v8c-1 1-2 5 0 8 1 2 4 5 12 5l4-2c2-1 2-5 2-10-1-3 0-4 1-5l1-5 1-4c-1-1-4-2-9-2l-4-3-8-4 2 2c1 3-1 11-2 12zm12 21c-8 0-11-3-13-5v-8c2-3 1-8 1-8 0-1 3-9 1-12l-1-2h-1 1l9 4 3 2c5 1 8 1 9 3v4c-2 2-2 5-2 5l-1 5c1 6 0 9-1 11l-5 1zm0 0" fill="#c3a223"/><path d="M33 84s1 3-1 5 2 7 6 6c4 0 6-8 5-12l-10 1zm0 0" fill="#4a2a27"/><path d="M34 86l-1-2-1 5c-2 2 0 4 2 6v-9zm0 0" fill="#702621"/><path d="M43 83l-7 1c-1 2-3 9 2 11 4 0 6-8 5-12zm0 0" fill="#eb615f"/><path d="M40 86c-1-2-3-1-4 0-1 3-2 7 2 9 2 0 5-6 2-9zm0 0" fill="#ef7e7c"/><path d="M36 84c0 3-2 9 2 11 2 0 3-2 4-3 1-2 2-6 1-9l-7 1zm2 11c-5-2-3-8-2-11l7-1c1 3 1 7-1 10l-4 2zm0 0" fill="#e7403d"/><path d="M33 84c0 1 1 3-1 5v3c1 1 3 3 5 3h1c2 0 3-2 4-3 1-2 2-6 1-9l-9 1h-1zm4 12c-3 0-5-2-5-4v-3c2-2 1-5 1-5h1l9-1c1 3 1 7-1 10l-4 2-1 1zm0 0" fill="#c3a223"/><path d="M32 48l6-2c2-1-3-3-6 2zm0 0" fill="#823b24"/><path d="M37 45c-1 0-3 0-4 3l5-2 1-1h-2zm-5 4v-1c2-3 4-3 5-3h2v1l-7 3zm0 0" fill="#473025"/><path d="M55 54l-4-5c-2-1 4-1 4 5zm0 0" fill="#823b24"/><path d="M50 49h1l4 4-1-3-3-1h-1zm5 6v-1l-5-4v-1h1l3 1 1 4zm0 0" fill="#473025"/><path d="M53 62c-1 5-4 8-7 7-2-1-4-5-3-9 1-5 4-8 7-7 3 0 4 4 3 9zm0 0" fill="#f2ab09"/><path d="M51 63c0 4-3 6-6 6-2-1-3-4-3-8 2-4 4-7 7-6 2 0 3 4 2 8zm0 0" fill="#d8d6d5"/><path d="M49 66l3-4c0-4-1-7-3-7-3-1-5 2-7 6l1 5h6zm0 0" fill="#fefefe"/><path d="M48 55c-3 0-5 2-5 6v5l2 3h1c2 0 5-3 5-6v-5c0-2-2-3-3-3zm-2 14h-1c-1 0-2-1-2-3l-1-5c1-4 3-6 6-6h1l2 2 1 6c-1 4-3 6-6 6zm0 0" fill="#252422"/><path d="M49 62l-3 3c-1 0-2-2-1-4 0-2 1-3 2-3 2 0 2 2 2 4zm0 0" fill="#2ca6de"/><path d="M47 58c-1 0-2 1-2 3l1 4 3-3-2-4zm-1 7c-1 0-2-2-1-4 0-2 1-3 2-3 2 0 2 2 2 4s-2 3-3 3zm0 0" fill="#4c6bb1"/><path d="M37 57c-2 3-6 5-8 4s-2-6 0-9 5-4 7-3 3 5 1 8zm0 0" fill="#f2ab09"/><path d="M36 59c-2 3-6 5-8 4s-1-6 1-9 5-5 7-4 2 5 0 9zm0 0" fill="#d8d6d5"/><path d="M36 50c-2-1-5 1-7 4l-2 5c2 2 6 2 9 0 2-4 2-8 0-9zm0 0" fill="#fefefe"/><path d="M34 50l-5 4c-2 3-2 5-2 7l1 2h2c2 0 4-2 6-4 2-4 2-7 0-8l-2-1zm-4 13h-2l-1-2c0-2 0-4 2-7 1-3 3-4 5-4h2c2 1 2 5 0 9-1 2-4 4-6 4zm0 0" fill="#252422"/><path d="M35 57l-3 3c-1-1-2-2-1-4l3-3c1 1 2 2 1 4zm0 0" fill="#2ca6de"/><path d="M34 54l-3 2 1 3c1 0 2 0 3-2l-1-3zm-2 6c-1-1-2-2-1-4l3-3c1 1 2 2 1 4s-1 3-3 3zm0 0" fill="#4c6bb1"/><path d="M55 21s4-6 9-8v1l-9 7zm0 0" fill="#473025"/><path d="M69 45s10 1 15 20c0 0-9-4-12-10l-3-10zm0 0" fill="#9f3e26"/><path d="M84 65c-5-19-15-20-15-20s5 0 10 7c4 5 5 13 5 13zm0 0" fill="#473025"/><path d="M116 106s5 20 35 21c2 0 4 4 11 7 1 2 3 6 8 9 4 3 9 2 10-1 3 0 7-3 6-10 1-3 1-7-4-9-4-2-10 1-12 1-1-2-7-6-9-10s-6 3-11-10c-4-13-12-21-25-19l-9 21zm0 0" fill="#e98f1a"/><path d="M116 106s6 17 36 18c2 1 4 6 12 8 0 2 1 8 6 11 4 3 9 2 10-1 3 0 7-3 6-10 1-3 1-7-4-9-4-2-10 1-12 1-2-2-7-6-9-10s-6 3-11-10c-4-13-12-21-25-19l-9 21zm0 0" fill="#f2ab09"/><path d="M150 119c9 1 12 13 19 12 3 0 2-5 0-9-2-2-7-4-8-8-2-4-6 3-11-10-4-13-12-21-25-19 0 0-4 4-5 8-2 2-2 5-2 8 4 14 19 17 32 18zm0 0" fill="#f6b508"/><path d="M175 145c-2 0-4 0-5-2-5-3-8-7-8-9l-8-5-3-2c-16-1-24-7-29-11l-6-7v-3s1 4 6 10c5 4 14 10 29 11l3 1c1 2 3 4 8 5 1 3 3 7 8 10 2 2 4 2 7 2l3-3c2 0 3-1 5-3 0-1 2-3 0-7 2-1 2-3 1-5l-4-4h-8l-4 1-2-2-8-8-2-1c-2 0-5-1-8-9-4-14-13-20-26-18v-1c13-2 22 5 26 19 3 8 6 8 8 8l3 2c1 3 4 6 7 7l2 2h12c3 1 4 2 5 4l-1 5c1 4 0 6-1 7-1 2-3 3-5 3 0 2-2 3-3 3h-2zm0 0" fill="#a23d26"/><path d="M170 143c4 3 9 2 10-1 3 0 7-3 6-10 1-3 1-7-4-9-4-2-10 1-12 1 2 1 4 6 2 10-2 3-5 4-7 4 1 2 2 4 5 5zm0 0" fill="#efdb83"/><path d="M170 143c4 3 6 2 7-1 3-1 7-2 5-8 2-3 3-8-1-10h-11c2 1 4 6 2 10-2 3-5 4-7 4 1 2 2 4 5 5zm0 0" fill="#fcefb2"/><path d="M165 139l5 4 5 2c2 0 4-1 5-3 2 0 3-1 5-3 0-1 2-3 0-7 2-1 2-3 1-5l-4-4-3-1-5 1-3 1c2 2 3 6 1 10-2 3-5 4-7 5zm10 6c-2 0-4 0-5-2l-5-4-1-1h1c2 0 5-1 7-5 2-3 0-8-2-9l-1-1h5l5-1 3 1c3 1 4 2 5 4l-1 5c1 4 0 6-1 7-1 2-3 3-5 3 0 2-2 3-5 3zm0 0" fill="#c3a223"/><path d="M180 135l-3-1s7 1 9-2c-1 2-4 3-6 3zm0 8c-4 0-7-4-7-4s3 4 8 3l-1 1zM15 120c-5-4-3-10-3-10-1 7 3 9 3 9zm-11-6c-1-4 1-7 1-7-2 3-1 7-1 7zm0 0" fill="#c3a223"/><path d="M183 77l1 5c0 2 7 6 15 0 6-5 10-12 12-12h-8l2-1c-2-1-5 1-7 1-3-2-15 0-15 7zm0 0" fill="#823b24"/><path d="M203 70l2-1c-2-1-5 1-7 1-3-2-15 0-15 7l1 2h1c3 1 4 5 8 3 2-1 3-5 5-7l1 3c3-4 7-7 12-8h-8zm0 0" fill="#913e25"/><path d="M205 69c-2-1-5 1-7 1-3-2-11-1-14 3 1 3 5 6 6 5 4-4 7-5 12-5l6-3h-5l2-1zm0 0" fill="#9f3e26"/><path d="M183 77s2 2 2 5c0 1 2 3 5 3l9-3 7-7 5-5h-2l-6 1h-1v-1l2-1h-2l-4 1-3-1c-5 0-12 2-12 8zm7 8c-3 0-6-1-6-3 0-3-2-5-2-5 0-6 8-8 13-8h4v1l3-1h4-1l-2 1h9v1h-1l-5 4-7 7c-4 3-7 3-9 3zm0 0" fill="#252422"/><path d="M27 65s-9 3-8 12c2 4 6 7 10 5 1 4 5 5 9 4 5 0 7-3 6-9zm0 0" fill="#efdb83"/><path d="M27 65s-9 3-8 12c2 4 5 5 9 3 2 4 6 5 10 4 5 0 7-1 6-7zm0 0" fill="#fcefb2"/><path d="M37 87c-3 0-7-1-8-5h-6l-4-5c-2-9 8-12 8-12 0 1-9 4-7 12 0 2 1 3 3 5h6c1 4 6 5 9 4 5 0 7-3 6-9l1 3c0 4-2 6-7 6l-1 1zm0 0" fill="#c3a223"/><path d="M29 84c-2-3-1-6-1-6s-1 3 1 5zm0 0" fill="#c3a223"/><path d="M46 91c-3-8-8-7-9-7v-1c7 0 9 8 9 8zm5-10c-7-3-12-1-12-1h-1c8-2 13 1 13 1zm-11-5c5-5 9-4 9-4-5 0-9 4-9 4zM14 86s3-6 9-7v1s-6 0-9 6zm-4-8s4-5 12-2-7-2-12 2zm11-5s-2-4-9-3c0 0 7-2 9 3zm0 0" fill="#63605f"/><path d="M26 65s11-4 12-12c0 0 3 3-1 9-2 3-11 3-11 3zm0 0" fill="#f2ab09"/><path d="M29 65s9-4 9-12c0 0 3 4 0 10-2 3-9 2-9 2zm0 0" fill="#f6b508"/><path d="M26 65s11-4 12-12c-1 8-12 12-12 12zm0 0" fill="#252422"/><path d="M29 75s-7-6-5-10c1-2 5-1 7 0 2 2 8 1 8 5 0 3-7 6-10 5zm0 0" fill="#2d2b29"/><path d="M29 74s-7-5-5-9c1-2 5-1 7 0 2 2 7 0 7 5 0 3-6 4-9 4zm0 0" fill="#383533"/><path d="M29 73s-7-4-5-8c1-2 5-1 7 0 2 2 5 0 5 4s-4 4-7 4zm0 0" fill="#464341"/><path d="M29 75h1l5-1c2-1 4-2 4-4 0-3-3-3-5-4l-3-1-4-1-3 1c-1 4 5 9 5 10zm1 1l-1-1s-7-6-5-10c0-1 1-2 3-2l4 2 3 1c2 0 6 1 6 4l-4 4-6 2zm0 0" fill="#292826"/><path d="M34 57l-2 2v-2l1-2 1 2zm0 0" fill="#252422"/><path d="M34 55h-1l1-1v1zm-2 1v-1 1zm0 0" fill="#f8f8f9"/><path d="M48 62l-2 2-1-3c0-1 1-2 2-1l1 2zm0 0" fill="#252422"/><path d="M48 60h-1v-1l1 1zm-2 1h-1l1-1v1zm-9 29l-1 1v-1-2l1 2zm0 0" fill="#f8f8f9"/><path d="M32 67h-2l-1-1h1l2 1zm0 0" fill="#6b6f67"/><path d="M118 196c-1-7-10-14-19-14-10 0-20 6-20 14 7 2 22 7 39 0zm0 0" fill="#9b9a9a"/><path d="M118 196c-1-7-10-14-19-14l-12 3-2 6v7c8 2 20 3 33-2zm0 0" fill="#acaaab"/><path d="M118 196c-1-7-10-14-19-14h-5c-4 5-5 12-2 17 7 1 16 1 26-3zm0 0" fill="#babbbc"/><path d="M80 196c3 1 10 4 19 4a50 50 0 0 0 19-4c-1-7-10-14-19-14s-19 6-19 14zm19 4c-9 0-16-2-20-4 0-8 10-14 20-14 9 0 18 7 19 14a50 50 0 0 1-19 4zm0 0" fill="#605f64"/><path d="M80 192l-1 4c7 2 22 7 39 0l-1-4c-16 6-30 3-37 0zm0 0" fill="#d4d3d1"/><path d="M118 196l-1-4c-14 5-25 4-33 2l1 4c8 2 20 3 33-2zm0 0" fill="#e7e8e7"/><path d="M118 196l-1-4c-10 4-19 4-26 3l1 4c7 1 16 1 26-3zm0 0" fill="#fefefe"/><path d="M80 196c3 1 10 4 19 4a50 50 0 0 0 19-4l-2-3a52 52 0 0 1-36-1v4zm19 4c-9 0-16-2-20-4l1-4a53 53 0 0 0 37 0l1 4a50 50 0 0 1-19 4zm0 0" fill="#605f64"/><path d="M103 182c0 3-2 4-4 4s-3-1-3-4v-18c0-2 1-4 3-4s4 2 4 4zm0 0" fill="#9b9a9a"/><path d="M103 182c0 3-2 4-3 4-2 0-3-1-3-4v-18c0-2 1-4 3-4 1 0 3 2 3 4zm0 0" fill="#acaaab"/><path d="M103 182c0 3-1 4-2 4l-1-4v-18l1-4 2 4zm0 0" fill="#babbbc"/><path d="M99 160c-2 0-3 2-3 4v18c0 2 1 4 3 4s3-2 3-4v-18c0-2-1-4-3-4zm0 27c-2 0-3-2-3-5v-18c0-2 1-4 3-4s4 2 4 4v18c0 3-2 5-4 5zm0 0" fill="#605f64"/><path d="M137 97c2-3 2-6 1-14 0-7 8-10 4-16-1 2-5 6-8 7 1-4 1-10-1-14v-9l-13 18c1 4 2 9 4 11h-4c7 6 5 19 6 23h-3c2 3-3 9 1 18-5 6-5 15-4 17l-2-1c0 5-5 12-7 13l-2-2c-3 4-7 7-10 7-9 0-10-9-9-14-8 8-9-1-9-4l-1-8-3 1-3-4-12 9v3c0 5 2 12 11 12l-4 2 8 8c4 4 10 4 17 4 0 0 5 3 11 0 5 1 13-2 17-6 4-5 5-8 10-10l-5-1c4-2 8-6 9-15 1-6 5-8 5-8l-5-1c2-3 3-8 3-16 0-6 2-10 5-11-2-1-4-1-7 1zm0 0" fill="#d02426"/><path d="M137 97c2-3 2-6 1-14 0-7 8-10 4-16-1 2-5 6-8 7 1-4 1-10-1-14v-9l-13 18c1 4 2 9 4 11h-4c7 6 5 19 6 23h-3c2 3-3 9 1 18-5 6-5 15-4 17l-2-1c0 5-5 12-7 13l-2-2c-3 4-7 7-10 7-9 0-10-9-9-14-8 8-9-1-9-4l-1-8-3 1-3-4-3 2c0 5 2 9 6 11 1 0 0 2-2 2 2 0 2 2 2 2 2 5 5 10 11 9-2 6 0 12 7 11 3-1 3-3 5-5l1 2c4 2 9 0 11-4h-3v-2c5-1 6-6 9-9 1-1 4 2 6 0 0-1 0-2 2-2l9-8 1-3c1-6 5-8 5-8l-5-1c2-3 3-8 3-16 0-6 2-10 5-11-2-1-4-1-7 1zm0 0" fill="#e32124"/><path d="M142 67c-1 2-5 6-8 7 1-4 1-10-1-14v-9c-2 5-6 9-9 13 1 1 3 1 4-1-1 7-4 12-2 18l2 1c-1 2-2 5-1 7s3 2 4 2l8-1-1-7c0-7 8-10 4-16zm0 0" fill="#e42d24"/><path d="M126 98c0-5 0-13-6-18h2l2 1v-1c-2-2-3-7-3-11h-1l3 11h-3v1c6 3 5 12 5 17l1 5-2-1-2 1v5c0 3-1 8 2 13-5 5-5 14-4 17l-2-1h-1c1 5-3 12-6 13l-2-3c-3 5-7 8-10 8s-5-1-7-3c-2-3-2-8-2-11-4 4-7 4-8 0l-1-4v-1l-1-7-3 1-2-2v-2h-1l1 2 2 2 3-1 1 7v5c1 3 2 4 4 4l5-3c-1 3 0 7 2 10 2 2 4 3 7 3s7-3 10-7l2 2v1c3-2 7-8 7-14a40 40 0 0 1 2 1h1-1c-1-3-1-11 4-17-2-5-2-10-1-13v-5h3v-5zm0 0" fill="#902724"/><path d="M144 95h-2l-5 2c2-4 2-6 2-14-1-3 1-5 2-7 2-3 4-6 1-9-1 2-5 6-8 7 1-4 1-9-1-14-1-2 0-7 1-9l-1 1v8c2 5 2 10 1 14 3 0 7-5 8-6 2 2 0 4-1 7-2 2-3 5-3 8 1 9 0 11-2 14v2l1-1c1-2 3-2 5-2h1c-2 2-4 6-4 11 0 9-2 14-3 16h-1 1l5 1c-1 0-5 3-5 8-1 9-6 13-9 15h-1 1l5 1c-4 1-6 4-8 7l-2 3c-4 3-9 6-15 6h-2l-5 1-5-1h-5c-7 0-10-1-13-4l-7-8 3-2c-9-1-10-6-11-12v-3 3c0 5 2 11 10 12l-3 1h-1l1 1 8 8c3 4 8 4 13 4h4l6 2 5-2h2c6 0 12-2 15-6l2-2c3-4 4-6 8-7h1l-1-1-5-1c4-2 8-6 9-15 1-6 5-8 5-8v-1l-5-1c2-2 4-6 3-15 1-6 2-9 5-11v-1zm0 0" fill="#902724"/><path d="M62 138c0 5 2 12 11 12l-4 2 8 8c4 4 10 4 17 4-4-2-10-1-13-6 2-1 4-1 4-3-4-1-11-16-16-17l4-1c-2 0-4-3-5-6l-6 4v3zm75-41c2-3 2-6 1-14 0-7 8-10 4-16-1 2-5 6-8 7 1-4 1-10-1-14v-9l-8 12h1c2 1 3-2 3-3 2 1 2 8 0 14-2 5-1 7 0 7l3-1c1 1-4 5-3 6 0 1 3-2 3 0 1 2 0 6-2 9-3 3-3 8 0 9 2 1 2-5 2-5 1 1 5 8-1 15-4 5-6 10-3 13 0-2 1-6 4-6 0 2 1 9-5 13-5 4-3 7-3 7l4-2c-2 1-2 3-2 6-1 2-10 4-12 9h4c-2 2-4 7-13 10 5 1 13-2 17-6 4-5 5-8 10-10l-5-1c4-2 8-6 9-15 1-6 5-8 5-8l-5-1c2-3 3-8 3-16 0-6 2-10 5-11-2-1-4-1-7 1zm0 0" fill="#db4225"/><path d="M137 97c2-3 2-6 1-14 0-7 8-10 4-16-1 2-5 6-8 7 1-4 1-10-1-14v-9l-8 12h1c2 1 3-2 3-3 2 1 2 8 0 14-2 5-1 7 0 7l3-1-2 3c2-1 3-1 5 1 3 3-3 7-1 9 1 2-2 5 1 7 2 1 4 1 5-2l-6 17c6 2-3 7 1 11l1 3c-2 4-7 5-4 10-3 0-3 2-3 4l-2 1a13 13 0 0 1-2 5c-1 2-3 3-5 3 1 1 2 2 1 3l-5 7 6-4c4-5 5-8 10-10l-5-1c4-2 8-6 9-15 1-6 5-8 5-8l-5-1c2-3 3-8 3-16 0-6 2-10 5-11-2-1-4-1-7 1zm-69 46c3 1 3 6 9 6 0 3-2 6 0 9l3 3 1 1c3 2 8 2 13 2-4-2-10-1-13-6 2-1 4-1 4-3-4-1-11-16-16-17l4-1c-2 0-4-3-5-6l-5 4c1 3 1 6 5 8zm0 0" fill="#ed6e1e"/><path d="M133 51l-1 2h1v-2zm9 16c-1 2-5 6-8 7V63l-1 13 6-1c-4 5-1 12-1 18V83c0-7 8-10 4-16zm0 0" fill="#f18d16"/><path d="M73 137l-4 1h-2l2 1c2 0 6 4 8 8 3 4 5 8 7 8l-1 3h-3l1 1c2 3 5 3 9 4l3 1h-3c-7 0-10-1-13-4l-7-8 3-2c-9-1-10-6-11-12v-3 3c0 5 2 11 10 12l-3 1h-1l1 1 8 8c3 4 8 4 13 4h6-2l-4-1c-3-1-7-1-9-4l2-1c1-1 2-1 2-3-2-1-5-4-7-8-3-4-5-7-8-8l4-1v-1c-3-1-5-3-6-6 1 3 3 6 5 6zm71-42h-2l-5 2c2-4 2-6 2-14-1-3 1-5 2-7 2-3 4-6 1-9-1 2-5 6-8 7 1-4 1-9-1-14-1-2 0-7 1-9l-1 1v8c2 5 2 10 1 14 3 0 7-5 8-6 2 2 0 4-1 7-2 2-3 5-3 8 1 9 0 11-2 14v2l1-1c1-2 3-2 5-2h1c-2 2-4 6-4 11 0 9-2 14-3 16h-1 1l5 1c-1 0-5 3-5 8-1 9-6 13-9 15h-1 1l5 1c-4 1-6 4-8 7l-2 3c-4 3-9 6-15 6h-1c8-3 10-7 12-9v-1h-4c2-3 5-5 8-6l4-3v-2c0-2 0-3 2-4l1-1h-1l-4 3c-1-1-1-4 3-7 6-4 6-10 5-13v-1c-3 1-4 4-5 6-2-3 1-8 4-11 4-5 4-10 3-12l-2-4h-1v5h-1l-1-2c-1-2-1-5 1-7l3-9-1-1-2 1h-1l2-3 2-3h-3l-1 1h-1l1-7c2-6 2-13 0-14 0 1-1 3-3 3h-1 1c2 0 3-2 3-2 1 1 2 7 0 12s-2 7-1 8h2l2-1-1 3c-2 1-3 3-2 3h1l2-1v1c1 2 0 6-3 9-1 2-2 5-1 7l2 2h1l1-4 1 3c1 2 1 6-3 11-4 6-5 10-3 13h1c0-2 1-5 4-6 0 3 0 9-5 13s-4 7-4 7h1l3-2-1 4v2l-4 3c-3 1-7 3-8 6v1l2-1 1 1c-1 2-4 6-12 9h-1 3c6 0 12-2 15-6l2-2c3-4 4-6 8-7h1l-1-1-5-1c4-2 8-6 9-15 1-6 5-8 5-8v-1l-5-1c2-2 4-6 3-15 1-6 2-9 5-11v-1zm0 0" fill="#c62e27"/></svg>