<svg height="133pt" viewBox="0 0 98 133" width="98pt" xmlns="http://www.w3.org/2000/svg"><path d="m21.78 93.65a48.33 48.33 0 0 1 -21.78-40.35c0-26.85 21.93-48.6 49-48.6s49 21.75 49 48.6c0 15.9-7.71 30.15-19.81 39l.6-5.4h-57.62l.45 5.85zm0 0" fill="#e9f2fb"/><path d="m49.9 132.96c-16.17 0-29.33-2.7-29.33-6.3 0-1.05 1.51-2.25 4.08-3.15l.46 3.6c0 1.5 5.6 2.85 14.36 3.44 3.03.3 6.66.46 10.44.46 3.18 0 6.2-.15 9.07-.3 9.53-.6 15.88-1.95 15.88-3.6l.3-3.6c2.57.9 4.09 2.1 4.09 3.15 0 3.6-13.16 6.3-29.34 6.3zm0 0" fill="#ebecec"/><path d="m21.17 86.9 3.94 40.2c0 2.1 10.43 3.9 24.8 3.9 14.52 0 24.95-1.8 24.95-3.9l3.93-40.2zm0 0" fill="#7bb5e3"/><path d="m37.66 86.9 1.81 43.65c-8.77-.6-14.36-1.94-14.36-3.44l-3.94-40.2zm0 0" fill="#9ac0e7"/><path d="m60.64 86.9-1.66 43.8c9.53-.6 15.88-1.94 15.88-3.6l3.93-40.2zm0 0" fill="#3b9cd6"/><path d="m26.47 102.5a2.97 2.97 0 0 1 -3.03-2.7 3.03 3.03 0 0 1 2.72-3.3h.3c1.52 0 2.73 1.2 2.88 2.7.15 1.66-1.06 3.15-2.57 3.3zm0 0" fill="#d1e2f4"/><path d="m42.65 113.3c-1.67 0-2.88-1.05-3.02-2.7a2.89 2.89 0 0 1 2.72-3.14h.3a2.82 2.82 0 0 1 2.87 2.7 2.9 2.9 0 0 1 -2.72 3.14zm0 0" fill="#c4def3"/><path d="m30.55 128.76a3.09 3.09 0 0 1 -3.03-2.7c-.14-1.65 1.07-3 2.73-3.3h.3c1.51 0 2.87 1.2 3.02 2.7a3.03 3.03 0 0 1 -2.72 3.3zm0 0" fill="#d1e2f4"/><path d="m57.32 128.3a2.97 2.97 0 0 1 -3.03-2.7c-.15-1.5 1.06-3 2.73-3.14h.3c.75 0 1.36.15 1.96.6l-.3 4.8c-.3.3-.9.44-1.36.44zm0 0" fill="#c4def3"/><path d="m58.98 127.86.3-4.8c.6.6.91 1.2 1.06 2.1 0 1.04-.45 2.1-1.36 2.7zm0 0" fill="#a8d3ef"/><path d="m52.18 99.5a3 3 0 0 1 -2.12-.9l3.33.75c-.3 0-.6.15-.91.15zm0 0" fill="#c4def3"/><path d="m66.09 111.2a3.08 3.08 0 0 1 -3.02-2.7 3.03 3.03 0 0 1 2.72-3.3h.3c1.51 0 2.87 1.2 3.02 2.7a3.03 3.03 0 0 1 -2.72 3.3zm6.2-20.55c.45-.3.9-.45 1.51-.6h.3c.61 0 1.06.15 1.52.45zm0 0" fill="#a8d3ef"/><path d="m60.2 100.7-6.81-1.35a3.01 3.01 0 0 0 1.81-3.15 3.1 3.1 0 0 0 -3.02-2.7s-.16 0-.3.15c-1.52.15-2.88 1.5-2.58 3.15 0 .75.3 1.35.76 1.8l-12.1-2.4-.15-4.05 22.68-1.05zm0 0" fill="#6ca5d1"/><path d="m37.96 96.2-16.34-3.45 16.19-.6zm0 0" fill="#8cafd5"/><path d="m77.13 104.16-16.94-3.46.3-9.6 11.8-.45c-.76.6-1.36 1.65-1.2 2.7a3.08 3.08 0 0 0 3.02 2.7h.3a3.03 3.03 0 0 0 2.72-3.3 3.4 3.4 0 0 0 -1.51-2.25l2.72-.15zm0 0" fill="#338ec6"/><path d="m53.39 99.35-3.33-.74a2.49 2.49 0 0 1 -.76-1.8c-.3-1.65 1.06-3 2.58-3.16.14-.15.3-.15.3-.15a3.1 3.1 0 0 1 3.02 2.7c.15 1.35-.6 2.7-1.81 3.15zm0 0" fill="#b4cce1"/><path d="m74.1 96.05a3.08 3.08 0 0 1 -3.02-2.7c-.15-1.05.45-2.1 1.2-2.7l3.34-.15a3.4 3.4 0 0 1 1.5 2.25 3.03 3.03 0 0 1 -2.71 3.3h-.3zm0 0" fill="#98c1dc"/><path d="m18 81.2v9.9c0 1.95 14.21 3.75 31.9 3.75 17.7 0 32.07-1.8 32.07-3.75v-9.9zm0 0" fill="#7bb5e3"/><path d="m36.14 94.4v-13.2h-18.14v9.9c0 1.5 7.4 2.7 18.14 3.3zm0 0" fill="#9ac0e7"/><path d="m62.76 81.2v13.35c11.35-.6 19.2-1.95 19.2-3.45v-9.9zm0 0" fill="#3b9cd6"/><path d="m81.97 81.2c0 1.35-14.37 2.55-32.06 2.55-17.7 0-31.91-1.2-31.91-2.55 0-1.5 14.21-2.7 31.9-2.7 17.7 0 32.07 1.2 32.07 2.7zm0 0" fill="#fefefe"/><path d="m80.46 80.75c0 1.35-13.61 2.25-30.56 2.25-16.79 0-30.55-.9-30.55-2.25 0-1.2 13.76-2.25 30.55-2.25 16.94 0 30.55 1.05 30.55 2.25zm0 0" fill="#6a4531"/><path d="m50.66 80.3-1.36-.15 1.52-60.9h1.36zm0 0" fill="#476b34"/><path d="m48.24 3.04c.15-.6.3-1.2.6-1.8.46-.6.92-1.04 1.67-1.2 1.51-.3 2.72 1.05 3.48 2.4s.9 3 1.06 4.5c.15 5.4-.9 10.8-2.72 15.76-.3.75-.6 1.35-.91 2.1-.15.15-.3.45-.45.45-.3 0-.46-.3-.6-.45-.91-1.96-.76-4.05-.91-6.16-.3-5.1-2.58-10.64-1.22-15.6zm0 0" fill="#c7c4e3"/><path d="m51.12 13.1c-.3 0-.46-.3-.46-.75v-10.96c0-.44.16-.9.46-.9.15 0 .45.46.45.9v10.96c0 .44-.3.74-.45.74zm0 0" fill="#f6a30a"/><path d="m45.82 1.1c.3-.3.76-.46 1.21-.46 1.36 0 2.58.6 3.63 1.5 1.06.9 1.67 2.1 2.27 3.3 1.21 2.85 1.21 5.86 1.36 9 0 3.46 0 7.36-2.11 10.06-.3.45-.76.75-1.21.75l-.46-.45c-.9-.9-1.2-1.96-1.66-3a97.36 97.36 0 0 1 -3.18-11.4c-.3-1.8-.6-3.45-.6-5.1 0-1.2-.16-3.46.75-4.2zm0 0" fill="#cdbbdc"/><path d="m56.56 1.1c-.3-.3-.76-.46-1.06-.46a5.3 5.3 0 0 0 -3.63 1.5 8.09 8.09 0 0 0 -2.26 3.3c-1.22 2.85-1.22 5.86-1.37 9 0 1.65.3 3.46.6 5.1.31 1.96.31 3.75.46 5.56.16 1.65.3 2.7.6 4.2.61 2.55 0 3.75.92 4.8 1.05 1.2 1.2-1.5 1.36-1.96 0-1.8-.3-3.6.3-5.24.45-1.65.6-3.45 1.06-5.1a75.18 75.18 0 0 0 3.32-11.4c.3-1.8.46-3.45.46-5.1 0-1.2.15-3.46-.76-4.2zm0 0" fill="#dbdaee"/><path d="m54.6 20.75a44.3 44.3 0 0 1 2.72-5.4c1.81-3.3 3.47-6.15 3.78-10.06 0-1.5-.3-3.45-1.67-4.2-.9-.3-1.8-.3-2.57.16-.75.3-1.5.9-1.96 1.64-2.72 3.15-3.63 7.5-3.78 11.7v8.55c0 2.56.6 6 1.06 8.7 0-3 .15-4.2.75-6.14.46-1.65 1.06-3.3 1.67-4.95zm0 0" fill="#b4a3cf"/><path d="m51.42 19.25c1.36-1.5 3.03-2.7 4.54-4.05 1.2-1.2 2.41-2.4 3.32-3.75-.6 1.34-1.36 2.55-1.96 3.9a44.3 44.3 0 0 0 -2.72 5.4c-.6 1.65-1.21 3.3-1.67 4.95-.6 1.94-.75 3.14-.75 6.15-.46-2.7-1.06-6.15-1.06-8.7v-3.45c.15-.15.15-.3.3-.45zm0 0" fill="#a085bc"/><path d="m47.49 21.35c-.76-1.8-1.67-3.6-2.58-5.4-1.8-3.3-3.62-6.16-3.77-10.06-.16-1.5.15-3.44 1.66-4.2.75-.3 1.66-.3 2.57.15.76.3 1.36.9 1.97 1.66 2.72 3.14 3.48 7.5 3.63 11.7.15 2.85.15 5.7.15 8.55a77.4 77.4 0 0 1 -.9 8.1c-.31-3-.46-3.6-.92-5.55a32.83 32.83 0 0 0 -1.81-4.95zm0 0" fill="#b4a3cf"/><path d="m50.66 19.84c-1.36-1.5-3.02-2.7-4.53-4.04a39.59 39.59 0 0 1 -3.33-3.76c.6 1.35 1.36 2.56 2.11 3.9.91 1.8 1.82 3.6 2.58 5.4.75 1.66 1.36 3.3 1.81 4.96.46 1.95.6 2.54.91 5.55.45-2.7.76-5.55.9-8.1v-3.45zm0 0" fill="#a085bc"/><path d="m65.18 80.3-1.36-.15 6.96-59.7 1.36.14zm0 0" fill="#476b34"/><path d="m71.68 5.45c.3-.6.6-1.2 1.06-1.66.46-.45 1.06-.9 1.67-.9 1.5 0 2.57 1.35 3.18 2.86.45 1.5.45 3.14.14 4.8a41.37 41.37 0 0 1 -5.29 15c-.3.6-.76 1.2-1.21 1.8-.15.3-.3.45-.45.45-.3 0-.46-.3-.46-.6-.6-1.95-.15-4.06 0-6.16.46-4.95-.75-10.94 1.36-15.6zm0 0" fill="#c7c4e3"/><path d="m72.9 15.95c-.3-.15-.46-.45-.3-.9l1.8-10.8c0-.46.31-.75.61-.75.15 0 .3.45.15.9l-1.66 10.8c-.15.45-.46.75-.6.75zm0 0" fill="#f6a30a"/><path d="m69.72 3.04c.3-.15.76-.15 1.2-.15a5.6 5.6 0 0 1 3.35 2.11 7.88 7.88 0 0 1 1.66 3.6c.76 3 .3 6-.15 9-.45 3.45-1.06 7.36-3.63 9.76-.46.3-.91.6-1.36.45l-.46-.45a8.43 8.43 0 0 1 -1.05-3.3c-.61-3.9-1.22-7.8-1.22-11.85 0-1.66 0-3.45.3-5.1.16-1.06.31-3.3 1.37-4.06zm0 0" fill="#cdbbdc"/><path d="m80.3 4.84c-.3-.3-.6-.45-1.05-.45-1.36-.3-2.73 0-3.78.75a10.3 10.3 0 0 0 -2.88 2.86c-1.5 2.54-2.11 5.7-2.72 8.7-.3 1.64-.3 3.45-.3 5.25s-.3 3.6-.46 5.55c-.15 1.5 0 2.55 0 4.2 0 2.55-.6 3.75 0 4.8.91 1.34 1.52-1.2 1.67-1.65.3-1.8.3-3.6 1.2-5.25.76-1.5 1.06-3.3 1.98-4.8a70.3 70.3 0 0 0 4.99-10.8c.6-1.5 1.2-3.16 1.35-4.95.3-1.05.76-3.3 0-4.2zm0 0" fill="#dbdaee"/><path d="m75.16 24.05c1.06-1.8 2.27-3.3 3.48-4.95 2.27-3 4.54-5.55 5.45-9.3.3-1.5.3-3.46-1.06-4.35-.76-.6-1.67-.6-2.57-.46-.76.3-1.51.76-2.12 1.35-3.33 2.7-4.84 6.9-5.6 11.1-.6 2.7-1.06 5.56-1.51 8.26s-.45 6.15-.45 8.85c.6-3 1.06-4.2 1.81-5.85a27.7 27.7 0 0 1 2.57-4.65zm0 0" fill="#b4a3cf"/><path d="m72.29 21.95c1.51-1.2 3.33-2.1 5.14-3.16a73.63 73.63 0 0 0 3.93-3.3l-2.72 3.6c-1.21 1.66-2.42 3.16-3.48 4.96a27.7 27.7 0 0 0 -2.57 4.65 22.52 22.52 0 0 0 -1.81 5.85c0-2.7 0-6.16.45-8.85.15-1.2.45-2.25.6-3.45.16-.16.3-.16.46-.3zm0 0" fill="#a085bc"/><path d="m68.05 23.45a62.3 62.3 0 0 0 -1.66-5.7c-1.36-3.6-2.57-6.75-2.12-10.5.16-1.66.76-3.46 2.27-3.9.91-.3 1.82 0 2.57.44.6.45 1.21 1.2 1.67 1.96 2.11 3.6 2.26 8.1 1.66 12.3-.45 2.7-.76 5.55-1.36 8.25-.45 2.7-1.2 5.4-2.12 7.95a33.5 33.5 0 0 0 0-5.55c-.15-1.8-.45-3.6-.9-5.25zm0 0" fill="#b4a3cf"/><path d="m71.38 22.4c-1.06-1.65-2.57-3.15-3.78-4.65a26.38 26.38 0 0 1 -2.72-4.36c.46 1.5.9 2.86 1.51 4.36a62.3 62.3 0 0 1 1.66 5.7c.46 1.65.76 3.45.91 5.25s.15 2.4 0 5.55c.91-2.55 1.67-5.25 2.12-7.95.3-1.2.45-2.25.6-3.46-.15-.14-.15-.3-.3-.44zm0 0" fill="#a085bc"/><path d="m34.03 21.35c-.46-1.35-.76-1.05-.3.3 3.17 12.59 8.92 35.25 10.87 42.45 2.88 10.2 5 15.9 5 15.9l.6-.9s-1.36-6.9-4.09-16.8c-1.96-7.05-8.46-28.8-12.1-40.95zm19.2-.6c-.3-1.36-.6-1.05-.3.45 2.12 12.75 6.05 35.7 7.56 43.05 1.97 10.5 3.63 16.35 3.63 16.35l.91-.9s-.9-7.05-2.87-17.1c-1.37-7.2-6.2-29.4-8.93-41.85zm-35.53.6c-.46-1.35-.76-.9-.3.45 3.62 12.45 10.12 34.8 12.4 42a215.06 215.06 0 0 0 5.44 15.75l.75-.9s-1.66-6.9-4.69-16.8c-2.26-6.9-9.52-28.5-13.6-40.5zm0 0" fill="#62a439"/><path d="m68.05 22.25c.46-1.2 1.06-.45.61.9-4.39 13.5-8.47 27.6-12.55 41.1-1.66 5.4-2.88 10.95-4.7 16.2-.3-.3-1.65 0-1.95-.15 1.05-5.85 3.17-12.15 4.53-17.7a314.8 314.8 0 0 1 14.06-40.35zm-21.02 0c.46-1.36 1.06-.75.76.75-2.72 13.8-5.14 28.35-7.71 42.3-1.06 5.55-1.51 10.8-2.72 16.05-.61 0-1.07 0-1.37-.15.46-5.85 1.06-11.7 1.82-17.25 2.12-14.55 5.74-29.56 9.22-41.7zm36.15 1.8c.45-1.35.9-.6.45.75-4.38 13.5-8.77 27.6-13 41.1-1.82 5.25-3.33 10.05-5.15 15.15-.3-.15-.6.3-.9.15a186.03 186.03 0 0 1 4.08-16.95 296.38 296.38 0 0 1 14.52-40.2zm0 0" fill="#3c853c"/><path d="m87.41 36.35c.61-.76.61.3 0 1.2-5.44 8.7-11.03 19.2-16.63 30.45-3.93 7.95-6.35 12.6-6.35 12.6-.16-.3-.16-.45-.46-.75 0 0 2.12-6 5.9-14.1 5.9-12.6 12.25-22.65 17.54-29.4zm-32.21-8.25c.3-.9.76 0 .6 1.05-1.8 10.5-3.02 22.65-4.08 35.4-.6 9.15-1.06 14.55-1.06 14.55-.3-.3-.45-.3-.75-.45 0 0-.3-6.45.15-15.6.76-14.1 2.87-26.25 5.14-34.95zm0 0" fill="#62a439"/><path d="m62.46 26.6c0-1.2-.45-1.2-.45.15.15 11.55.3 32.25.6 39 .3 9.6 1.06 15.3 1.06 15.3h1.2s.31-6.15 0-15.45c-.3-6.45-1.65-27.3-2.4-39zm0 0" fill="#3c853c"/><path d="m35.39 80.3-6.96-59.7 1.36-.15 6.8 59.7zm0 0" fill="#476b34"/><path d="m28.89 5.45c-.3-.6-.6-1.2-1.06-1.66-.45-.45-1.06-.9-1.67-.9-1.66 0-2.72 1.35-3.17 2.86-.6 1.5-.46 3.14-.3 4.8a41.45 41.45 0 0 0 5.29 15c.45.6.9 1.2 1.2 1.8.16.3.31.45.61.45.16 0 .3-.3.46-.6.6-1.95.15-4.06 0-6.16-.6-4.95.75-10.94-1.36-15.6zm0 0" fill="#c7c4e3"/><path d="m27.68 15.95c.15-.15.3-.45.3-.9l-1.82-10.8c-.15-.46-.3-.75-.6-.75s-.3.45-.3.9l1.81 10.8c0 .45.3.75.6.75zm0 0" fill="#f6a30a"/><path d="m30.7 3.04c-.3-.15-.75-.15-1.06-.15a6.47 6.47 0 0 0 -3.48 2.11 9.8 9.8 0 0 0 -1.66 3.6c-.6 3-.15 6 .15 9 .6 3.45 1.21 7.36 3.78 9.76.3.3.76.6 1.21.45.3-.16.46-.3.6-.45.61-1.05.76-2.1.91-3.3.76-3.9 1.37-7.8 1.37-11.85 0-1.66 0-3.45-.3-5.1-.16-1.06-.46-3.3-1.52-4.06zm0 0" fill="#cdbbdc"/><path d="m20.27 4.84c.14-.3.6-.45.9-.45 1.36-.3 2.72 0 3.94.75 1.05.75 1.96 1.8 2.72 2.86 1.66 2.54 2.27 5.7 2.87 8.7.3 1.64.15 3.45.15 5.25s.3 3.6.45 5.55c.16 1.5.16 2.55.16 4.2-.16 2.55.6 3.75-.16 4.8-.9 1.34-1.5-1.2-1.5-1.65-.46-1.8-.46-3.6-1.21-5.25-.91-1.5-1.21-3.3-1.97-4.8a70.68 70.68 0 0 1 -5.14-10.8c-.6-1.5-1.07-3.16-1.37-4.95-.15-1.05-.75-3.3.16-4.2zm0 0" fill="#dbdaee"/><path d="m25.4 24.05c-1.05-1.8-2.26-3.3-3.47-4.95-2.42-3-4.54-5.55-5.45-9.3-.3-1.5-.3-3.46 1.06-4.35.6-.6 1.67-.6 2.42-.46.91.3 1.66.76 2.27 1.35 3.18 2.7 4.69 6.9 5.6 11.1.45 2.7 1.06 5.56 1.36 8.26.45 2.7.45 6.15.45 8.85-.6-3-.9-4.2-1.66-5.85a45.49 45.49 0 0 0 -2.57-4.65zm0 0" fill="#b4a3cf"/><path d="m28.28 21.95c-1.66-1.2-3.48-2.1-5.14-3.16a40.9 40.9 0 0 1 -3.93-3.3c.75 1.2 1.81 2.4 2.72 3.6 1.2 1.66 2.42 3.16 3.48 4.96.9 1.5 1.81 3 2.57 4.65.75 1.65 1.06 2.85 1.66 5.85 0-2.7 0-6.16-.45-8.85l-.46-3.45c-.14-.16-.3-.16-.45-.3zm0 0" fill="#a085bc"/><path d="m32.52 23.45c.45-1.95 1.05-3.9 1.66-5.7 1.2-3.6 2.57-6.75 2.11-10.5-.15-1.66-.75-3.46-2.41-3.9-.76-.3-1.67 0-2.42.44a5.22 5.22 0 0 0 -1.67 1.96c-2.27 3.6-2.27 8.1-1.66 12.3.3 2.7.76 5.55 1.21 8.25s1.36 5.4 2.12 7.95c-.16-3.16 0-3.75.15-5.55s.45-3.6.9-5.25zm0 0" fill="#b4a3cf"/><path d="m29.04 22.4c1.2-1.65 2.57-3.15 3.78-4.65a26.62 26.62 0 0 0 2.72-4.36c-.3 1.5-.9 2.86-1.36 4.36-.6 1.8-1.21 3.75-1.66 5.7a29.08 29.08 0 0 0 -.91 5.25c-.15 1.8-.3 2.4-.15 5.55-.76-2.55-1.67-5.25-2.12-7.95-.15-1.2-.3-2.25-.6-3.46.15-.14.3-.3.3-.44zm0 0" fill="#a085bc"/><path d="m12.1 36.35c-.6-.76-.6.3-.15 1.2 5.6 8.85 11.19 19.2 16.78 30.45 3.93 7.95 6.36 12.6 6.36 12.6.45 0 .75.15.9 0 0 0-2.57-6.75-6.35-14.85-5.9-12.6-12.25-22.65-17.54-29.4zm0 0" fill="#62a439"/><path d="m37.96 26.6c.15-1.2.6-1.2.6.15-.15 11.55-.3 32.25-.6 39-.3 9.6-1.21 15.3-1.21 15.3h-1.06s-.45-6.15 0-15.45c.15-6.45 1.52-27.3 2.27-39zm9.07-.9c-.15-1.36.3-1.36.46 0 .9 11.4 2.57 32.1 2.87 38.85.46 9.6.15 15.45.15 15.45h-1.05s-.92-6-1.37-15.3c-.3-6.45-.9-27.45-1.06-39zm0 0" fill="#3c853c"/></svg>