<svg height="176" viewBox="0 0 96 132" width="128" xmlns="http://www.w3.org/2000/svg"><path d="m96 127.5h-79.9l8.32-37.23 20.15-90.27h22.95l20.15 90.27zm0 0" fill="#50382a"/><path d="m24.31 120.95 25.55-114.4h12.37l25.55 114.4zm0 0" fill="#d0a365"/><path d="m30.73 131.62h-3.16a2.96 2.96 0 0 1 -2.92-2.9v-1.22h9v1.23c0 1.56-1.24 2.89-2.92 2.89zm53.79 0h-3.15a2.89 2.89 0 0 1 -2.93-2.9v-1.22h9v1.23c0 1.56-1.35 2.89-2.92 2.89zm0 0" fill="#a6a4a1"/><path d="m49.86 90.27h12.37v-83.71h-12.37zm0 0" fill="#fafbfb"/><path d="m55.04 90.27h2.02v-83.71h-2.02zm0 0" fill="#615e5c"/><path d="m59.98 12.9h-7.76c-.45 0-.9-.45-.9-1 0-.56.45-.9.9-.9h7.76c.45 0 .9.34.9.9 0 .55-.45 1-.9 1zm0 11.23h-7.76c-.45 0-.9-.45-.9-1 0-.56.45-1 .9-1h7.76c.45 0 .9.44.9 1 0 .55-.45 1-.9 1zm0 11.11h-7.76a.88.88 0 0 1 -.9-.89c0-.55.45-1 .9-1h7.76c.45 0 .9.45.9 1 0 .56-.45.9-.9.9zm0 11.22h-7.76c-.45 0-.9-.44-.9-.88 0-.56.45-1 .9-1h7.76c.45 0 .9.44.9 1 0 .44-.45.88-.9.88zm0 11.24h-7.76c-.45 0-.9-.45-.9-.9 0-.55.45-1 .9-1h7.76c.45 0 .9.45.9 1 0 .45-.45.9-.9.9zm0 11.22h-7.76c-.45 0-.9-.44-.9-1 0-.44.45-.89.9-.89h7.76c.45 0 .9.45.9.9 0 .55-.45 1-.9 1zm0 11.23h-7.76c-.45 0-.9-.44-.9-1s.45-.89.9-.89h7.76c.45 0 .9.33.9.9 0 .55-.45.99-.9.99zm0 0" fill="#615e5c"/><path d="m58.41 96.05-1.8 1.22-56.61-81.37 1.8-1.22zm0 0" fill="#e3e1e0"/><path d="m24.98 43.69-5.84 4-7.77-6.33 10.47-7zm0 0" fill="#a6a4a1"/><path d="m96 127.5h-79.9l8.32-37.23h63.25zm0 0" fill="#a05027"/></svg>