<svg height="133pt" viewBox="0 0 158 133" width="158pt" xmlns="http://www.w3.org/2000/svg"><path d="m91.38 60.92c-.15.3 0 .61 0 .92l.6.6c.3-.3.3-.76.15-.9-.15-.31-.3-.62-.75-.62zm-1.81-43.82c1.06-.92 2.41-1.98 3.47-3.2 1.2-1.22 2.11-2.6 2.72-4.13.3-.91.45-1.68.75-2.13.3-.46.45-.76.9-.92-.45.61-.75 1.22-1.05 1.83.75-.6 1.36-1.37 2.12-2.14 0-.3 0-.45-.15-.45h-.16c-.45-.3-1.06-.16-1.5 0-.46.3-.76.61-1.06.92-.6.76-.76 1.52-1.22 2.28-.6 1.38-1.5 2.6-2.41 3.82l-3.32 3.36c-.91 1.22-1.97 2.6-2.27 4.27.76-1.37 1.97-2.44 3.18-3.5zm-31.27-11.3 1.06 1.22 1.81 2.3c.6.76 1.2 1.68 1.81 2.44a10.18 10.18 0 0 0 -.9-3.06c-.3-.91-.9-1.82-1.51-2.6v-.3l-.3-.76c0-.3-.16-.61-.46-.92-.45-.3-1.06-.46-1.51 0-.3.3-.45.77-.3 1.08.15.3.15.45.3.6zm.9-.6c-.15 0-.15-.16-.15-.16l.16.16zm0 0" fill="#dfd199"/><path d="m153.75 48.7a7.16 7.16 0 0 0 -3.02-4.42 5.55 5.55 0 0 0 -2.41-1.07c-.3-.16-.6-.16-.91-.3-.15-.16-.45-.16-.6-.31s-.46-.15-.6-.3c0 0 .14 0 .14.15a22.83 22.83 0 0 0 -3.47-1.08c-.3 0-.6-.14-.75-.14-1.06-.31-2.12-.46-3.18-.46-2.11-.16-4.23-.3-6.34 0-2.12.15-4.23.76-6.2 1.22l-6.03 1.53c-1.97.6-4.08 1.07-6.04 1.52-1.21.3-2.57.61-3.78.76v-.3-.3c0-.16 0-.3-.15-.3a25 25 0 0 1 -.45-.47h-.16c-.3 0-.6 0-.75.3.15.47.15.62.15.77v.15l.15.15c.15 0 .15.16.3.3-.45 0-.9.17-1.36.17-2.72.6-5.58.9-8.3 1.21-2.27-.15-4.54-.3-6.2-.45v-.16c0-4.58 1.97-5.64-1.06-5.34-1.05 0-1.96.15-2.56.3.3-.3.75-.6 1.06-.91-.16.15-.3.3-.3.61.45 0 .9-.16 1.2-.3.3-.31.6-.46.76-1.07-.46 0-.91.15-1.21.3v.15a28.1 28.1 0 0 0 2.87-3.81c.3-.76.6-1.37.9-1.84 0-.15.16-.3.16-.45.44-.92.9-1.68 1.2-2.75.15-.46.3-.92.3-1.37.16-.31.16-.62.16-.77v-1.07c-.16-.15-.3-.46-.45-.6.3-.47.6-.92.6-1.38.15-.16.15-.46.15-.61v-.61c0-.15 0-.46-.15-.62 0-.14 0-.14-.15-.14.3-.16.45-.31.6-.31s.3-.16.46-.16c.44 0 .9-.15 1.35-.45.3 0 .46-.15.76-.46.15-.16.3-.46.45-.61.16-.3.16-.46.3-.76 0-.16 0-.46.3-.62-.3-.15-.6 0-.9.16-.15 0-.15.15-.3.15.15-.3.15-.61.15-.92-.45.3-.9.46-1.21.61-.46.16-.75.31-1.2.46-.46.3-.76.61-1.07 1.07-.3.3-.45.77-.45 1.07-.3 0-.6 0-.9.15s-.46.3-.6.46c-.31.46-.46.77-.46 1.22-.16.76 0 1.38.45 1.99 0 0 .15.15.15.3h-.15l-1.36.92a7.04 7.04 0 0 0 -1.66 2.6c-.15.15-.15.3-.3.45v-.6c0-.16 0-.47.15-.62 0-.46 0-.92-.15-1.37 0-.46-.3-1.07-.76-1.37-.15-.16-.3-.16-.45-.16a2.97 2.97 0 0 0 -2.27-1.22c0-.46 0-.77-.15-1.07a4.65 4.65 0 0 0 -.6-1.53c-.15-.15-.3-.45-.6-.61-.16-.3-.6-.45-.9-.61-.16 0-.32-.15-.47-.15-.14-.16-.45-.3-.6-.46v-.14c.6-.15 1.06-.61 1.37-1.22l-1.67.15c.6-.3 1.05-.46 1.51-.92-.6-.15-1.2-.3-1.81-.3-.6 0-1.21 0-1.81.15-.3.15-.76.3-1.06.46-.16-.15-1.21-.31-2.42-.46-.3-.3-.75-.61-1.36-.61-.45-.15-.9 0-1.2.15-.76 0-.91 0-2.27.61-.3-.15-.6-.3-.9-.3a2.54 2.54 0 0 0 -1.52 0c-.3 0-.6.15-.9.15-.3-.15-.45-.3-.76-.46-.3-.3-.45-.91-.75-1.37a5.28 5.28 0 0 0 -.91-1.84 11.6 11.6 0 0 0 -4.53-3.66c.75 1.07 1.5 1.98 2.27 3.05.45.47.75.92 1.05 1.38s.46 1.07.75 1.68c.31.6.61 1.22 1.21 1.83.3.15.6.46.91.61.3.15.75.15 1.06.3h.15c-.3.31-.6.47-.9.77a3.9 3.9 0 0 0 -1.37.77c-.45.45-.75 1.06-1.06 1.68 0 .14 0 .45-.14.6-.15.31-.15.46-.15.46s-.16 0-.61.3c0 .16-.15.16-.15.16-.3.16-.6.46-.9.77a4.62 4.62 0 0 0 -1.37 1.98 6.48 6.48 0 0 0 .3 5.03c.3.3.61.77.91 1.07 0 .47.3.77.9 1.23.16.15.16.45.3.6l.46.46c-.3-.14-.45-.3-.6-.3-.46-.15-.9-.3-1.36-.3.15.46.3.76.45 1.06-.15.16-.45.3-.75.46-.3-.15-.6-.3-.9-.3l.14-.16c-.3-.3-.76-.46-1.05-.46-.3 0-.46 0-.6.16 0-.16-.16-.3-.16-.61-.15-.3-.15-.61-.3-1.07v-.46c-.3-1.22-.45-2.29-.76-3.36-.3-1.07-.75-2.14-1.36-3.05-.3-.46-.6-.91-1.2-1.38a2.9 2.9 0 0 0 -1.21-.3h-.6c0-.3.14-1.22-.3-1.53-.16 0-.16-.15-.16-.15-.15-.15-.3-.46-.76-.46-.15 0-.15 0-.3.16 0-.3-.14-.61-.14-.92a6.56 6.56 0 0 0 -1.06-2.3s0-.14.15-.14c0 0 .14 0 .14-.16l-.14-.15c0-.16-.15-.3-.15-.61-.3-.15-.61-.15-.76-.15-.15.15-.3.15-.3.3-.3 0-.6 0-.6.46-.16 0-.31.15-.31.15-.15.16-.3.3-.3.61.15.3.15.46.15.62l.15.14v.16c0 .15.15.3.15.3.16.61.6 1.22 1.2 1.53.16.16.31.16.62.16 0 .15.15.3.3.3.3 0 .14.3.14 1.07 0 .3.16.76.46 1.07 0 .3.16.45.3.61.15 0 .15.15.15.15-.15.3-.15.61-.3.92a3.64 3.64 0 0 0 0 1.83c0 .3 0 .46.15.6 0 .77.46 1.84 1.21 3.06.3.46.6 1.07.9 1.38 0 .3.16.6.16.76.3.46.6.92.75 1.22.3.62.76.92 1.36.92 1.06 1.07 1.96 1.52 3.02 2.14-.3.6-.45 1.06-.6 1.52-.46 0-.76.16-1.21.3.3.3.6.47.75.62 0 .3-.14.6-.14.76-.3 0-.46.16-.61.16 0 .14.15.3.3.45-.15.61-.45 1.23-.6 1.68-.3 0-.76.16-1.21.16l.45.45c-1.96-.3-5.29-.76-8.76-1.37-1.5-.3-2.87-.76-4.23-1.23l-1.36-.45c.16-.3.16-.76 0-1.23a2.7 2.7 0 0 0 -1.05-1.21c-.6-.16-1.36-.16-1.81.15-.46.3-.76.76-.76 1.22-.45-.16-1.06-.3-1.51-.46-2.11-.6-4.38-1.07-6.65-1.52a202.4 202.4 0 0 0 -13.29-2.3c-2.26-.3-4.53-.61-6.95-.45-1.96.3-3.92.91-5.88 1.52-1.06.3-1.97.46-2.88.92-.45 0-.9.15-1.2.45-.6.31-1.06.77-1.52 1.08-.3.46-.75.9-1.05 1.52-.3.46-.6.92-.9 1.53-.31.6-.46 1.22-.46 1.98.15.77.3 1.23.45 1.84.46 1.07.9 2.29 1.51 3.36s1.21 1.98 2.11 2.9c.91.76 1.97 1.53 3.03 1.98 1.97 1.23 4.08 2.14 6.19 3.05-.9-.76-1.96-1.52-3.02-2.29a121.6 121.6 0 0 1 4.08 1.84s-1.36 3.66 1.96 3.36a4.07 4.07 0 0 0 4.23-.3c.6-.47 1.21-.93 1.66-1.54 0 .16-.15.46-.15.92-.15.3-.3.45-.46.76-.14.46-.3 1.07-.14 1.68.14.92.9 1.84 1.66 2.44.45.77 1.2 1.53 2.11 1.99a20.67 20.67 0 0 0 11.63 1.22c.45-.15.76-.15 1.06-.15h.3c1.21-.15 2.57-.31 3.93-.92a7.18 7.18 0 0 0 1.51-.76l1.5-.77s.46.31 1.82 0c.15.16.3.16.6.31.76.16 1.67.16 2.42 0 .76-.3 1.51-.76 2.12-1.37.45-.62.76-1.23.9-1.99 0-.15.15-.3.15-.45 0 .14.15.3.15.3.16.15.3.15.46.15.15 0 .45.16.6.16.45-.16 1.06-.16 1.36-.3.9-.31 1.66-.93 2.42-1.38.6-.61 1.2-1.07 1.96-1.68l1.06-1.07h.15c.75.3 1.51.6 2.27.6-.3.47-.46.77-.61 1.23a6.95 6.95 0 0 0 1.51-.76c.15.15.15.15.46.3-.3.15-.46.46-.6.61-.16.3-.46.61-.62 1.07.61 0 .91-.3 1.22-.6.15-.17.3-.47.3-.77l.3.3c-.16.61-.3 1.22-.3 1.84.14-.16.3-.3.45-.3 0 .3.15.6 1.2.9h.16c-.15.46-.15.92 0 1.38-1.06-.16-1.81-.3-1.5 0-.31-.16-.46-.16-.77-.3h-.75c-.3 0-.45.14-.75.3-.16.15-.46.3-.61.6.3.31.45.47.76.62h.9c.15 0 .45-.15.6-.3.3-.16.61-.31.76-.77 0 .16 0 .16.15.16 1.97 1.37 4.23.76 2.57 1.68-.3-.31-.6-.47-.9-.47-.3-.14-.61-.14-.91-.14-.45.14-.76.14-1.06.3-.16.3-.45.46-.6.91.3.16.6.3.9.3h.76c-.6.31-1.06.62-1.06.77h-.45c-.76 0-1.37.16-1.97.3-.6 0-1.2 0-1.81.16-1.06.15-1.96.46-3.02.76-.45.16-.9.31-1.36.62-.3 0-.6.14-.9.45 0 .16-.16.16-.16.16-.45.3-.75.6-1.06 1.07-.3 0-.45 0-.75.14-.15 0-.3.16-.45.47-.15.15-.3.45-.3.76 0 .15.15.45.3.76-.3 0-.46.16-.6.3-.46.31-1.06.93-1.37 1.54a11.9 11.9 0 0 0 -1.35 3.66 11.72 11.72 0 0 1 -2.57 5.34c-1.21.61-2.27 1.23-1.66 1.68 0 .16.14.16.14.16-.14.15-.3.15-.3.15-.14.15-.45 0-.3-.3-.15 0-.3.15-.3.3-.15.15 0 .45.15.61.15.3.6.45.91.45h.75a6.5 6.5 0 0 0 -.45 2.44c-.6.77-1.06 1.54-1.51 2.6a6.13 6.13 0 0 0 -.6 3.37c0 .6.3 1.37.75 1.68.3.3.46.45.76.6 0 .46 0 .77-.6 2-.16 0-.16.14-.31.14-.45.3-.76.76-.6 1.53 0 .15 0 .15.15.15a3.71 3.71 0 0 0 0 1.83c-.16 0-.3.16-.3.3-.16.16-.3.47-.3.77s0 .77.14 1.07c.15.3.46.6.76.77.45.14.9.14 1.2 0 .46-.16.76-.46 1.22-.77-.3-.15-.46-.3-.76-.3 1.2-.92.45.3 0-1.68a6.39 6.39 0 0 1 0-2.9c.15-.31.15-.46.15-.62.15-.76.45-1.52.45-1.83v-.15c.3-1.07.76-2.14 1.36-3.05.3-.61.76-1.22 1.21-1.99.3 0 .46 0 .75-.3.16-.3.16-.62 0-1.07.46-.77.91-1.68 1.22-2.75.15-.61.15-1.38.15-1.98-.15-.47-.3-.92-.46-1.23-.15-.15-.15-.3-.15-.45.3 0 .46-.3.6-.47.16-.3.3-.6.3-.91.16-.46.16-.92.3-1.37.32-.61.61-1.23 1.07-1.84 0-.15.15-.15.15-.15s0-.16-.15-.16c.15-.14.15-.3.3-.45a23.8 23.8 0 0 0 1.05-3.05c0-.3.16-.76.16-1.23l.75-1.52s.46-1.53 2.12-1.99v-.15h.9c.15 0 .3.15.46.15l.9.46c.46.16.91.16 1.37.16.6 0 1.05 0 1.5-.16.3 0 .6-.15.76-.3l.15-.16h.45l.46.46h.75c.3 0 .46 0 .75-.15-.15.3-.3.61-.45 1.07-.15.61-.15 1.22-.15 1.83 0 .3.15.77.45 1.07-.9.15-2.26.76-2.71 3.05a8.3 8.3 0 0 0 -1.36 3.66c-.16.61-.16 1.23-.16 1.84s0 1.37.3 1.98c.16.61.61 1.38 1.22 1.68l.9.46c.15.45.3.61.3.76l-.3.3c-.76.31-2.11 1.23-1.66 3.82-.15.77-.3 1.38-.15 2.15 0 1.21.45 2.44 1.05 3.5.61.92 1.52 1.83 2.43 2.6a5.73 5.73 0 0 0 -1.21 6.57c.15.15.15.3.3.45a10 10 0 0 0 1.2 2.14c.91 1.53 1.82 2.3 2.12 2.6 0 .15.15.3.15.3-.15.16-.15.46-.3.77-.3.46-.46 1.07-.46 1.68-.14 1.06 0 2.14.46 3.05a6.7 6.7 0 0 0 1.81 2.6c.3.3.76.45 1.06.6l.76 1.07s3.92 6.87 7.24 5.8c.3.16.76.16 1.06.16.3-.16.6-.3.76-.46.3-.3.6-.46.9-.76.6-.62 1.21-1.38 1.52-2 .44-.75.9-1.36 1.35-2.12.3-.77.46-1.54.15-2.3.16-.15.3-.3.6-.45.31-.16.76-.47 1.06-.77.46-.3.91-.91 1.22-1.37a8.3 8.3 0 0 0 1.05-1.38c.3-.6.6-1.07.75-1.67.16-.61.3-1.22.3-1.84.16-.61 0-1.22 0-1.83 0-.3-.14-.6-.14-.91 0-.16-.16-.31-.16-.31.46-.46 1.21-1.07 1.82-2.44.45-.61.76-1.23.9-1.99.3-1.06.3-2.13.3-3.2 0-.61-.14-1.08-.3-1.53 0-.3-.14-.61-.14-.76.6-.16 1.96-.92 2.1-3.97.61-1.07.91-2.44.76-3.67 0-1.37-.15-2.44-.45-3.66a3.48 3.48 0 0 0 -.9-1.84c-.16-.3-.46-.6-.76-.76.3-.15.6-.3.75-.6 1.06-.77 1.21-1.84.6-2.6 0-.31 0-.46.16-.77 0-.3 0-.61.15-.92v-1.83a7.86 7.86 0 0 0 -1.66-3.36 8.02 8.02 0 0 0 -2.12-1.82c.76-.62.91-1.38.6-2.15v-.15-1.37c.77 0 1.67.15 2.58.15.3.16.6.16.75.16.45.14 1.06.3 1.5.3.47 0 .76 0 1.22-.16h.76c.15.92 0 1.68 0 2.6l-.46 3.2-.15 1.68c0 .62 0 1.23.15 2 .3.6.6 1.06.75 1.52s.15.91-.14 1.52c.3-.3.6-.6.75-.91 0 .46 0 .91-.15 1.38-.15.45-.15 1.21-.3 2.13 0 .46-.16.76-.16 1.22-.14 1.22-.3 2.3-.3 3.52.16.6.16 1.37.45 1.98.16.61.61 1.22 1.06 1.53.76.92 1.66 1.52 2.42 2.6 0-.16 0-.16-.15-.31.15.15.15.3.15.3.3 1.53 0 1.07 0 2.6a2.55 2.55 0 0 0 0 1.53c0 .3.15.6.15.76l.15.15-.15.15c-.15.16-.15.46-.15.62 0 .3.3.6.46.6 0 .46-.16.92-.61 1.22-.45.47-1.05.77-1.51 1.08-.76.3-1.2.46 0 .15 0 .45.15.76.46.91.44.31.9.31 1.35.16.46-.31.76-.62.9-1.07 0-.3 0-.61-.14-.77.45-.6.75-1.22.75-2.44v-.3-.3c0-1.84-.6-2.45 0-3.67.6-1.07 1.36-.77 1.06-3.51.15-.46 0-.92 0-1.53 0-.46-.15-.92-.15-1.37a19.9 19.9 0 0 0 -.76-2.91c0-.3-.15-.6-.3-.91v-.16c-.15-1.98.6.61.15-.91h.3c.46 0 .91-.16 1.06-.46.3-.3.45-.76.16-1.07-.16.3-.3.46-.61.46-.15 0-.3 0-.45-.15-.3 0-.6-.16-1.06-.46v-.16h.3c-.15 0-.3-.14-.3-.14a12.4 12.4 0 0 1 -.6-1.84v-1.4c-.16-1.37-.3-2.59-.76-3.96-.3-1.22-.75-2.6-1.2-3.82l-.92-1.83c0-.92 0-1.68-.6-2.44.15-.16.15-.3.15-.47 0-.45-.15-.76-.3-.9-.3-.47-.9-.78-1.36-.92-.45-.3-1.06-.3-1.5-.3h-.31c-.15-.16-.3-.16-.3-.16-.16 0-.3-.16 0 0-.3-.3-.76-.46-1.22-.46-.6 0-1.05.15-1.35.46l-.15.15h-1.82c0-.15-.15-.15-.15-.3.3-.31.46-.62.76-1.07-.15 0-.45-.16-.6-.16.45-1.52 1.5-2.14-.45-2.14-.76 0-1.52.16-2.12.16-.15-.16-.15-.16-.15-.3.45-.3.75-.77 1.2-1.07.46-.47.9-.77 1.36-1.23h-.6c0-.15-.3-.15-.75-.15-.61 0-1.37.15-1.97.46v-1.05c.45-.3.9-.6 1.2-1.07.16.15.46.15.61.3-.15-.3-.15-.45-.15-.76 0-.15.15-.3.3-.3.15-.46.46-.77.61-1.07.15.15.45.3.6.46a1 1 0 0 0 0-.92c0-.16-.14-.16-.14-.3.14-.3.3-.46.44-.62h.91c.6.46 1.51.62 2.27.16 0 0 .14-.16.3-.3h.3c.6.3 1.06.76 1.36 1.21.15.16.3.46.45.61.9 1.23 1.82 2.44 2.88 3.51.45.47.75.61 1.05.92 3.18 3.67 8 3.05 8 3.05s.76.31 1.82.46a15.14 15.14 0 0 0 6.64 1.98c2.87.31 5.9 0 8.61-.45h.3c.91-.15 1.67-.3 2.42-.61.6 0 1.05-.15 1.66-.46a4.2 4.2 0 0 0 1.96-1.68c.15-.45.3-.92.15-1.53 0-.45-.3-.91-.44-1.21-.61-.62-1.06-1.07-1.51-1.68l-1.67-1.38v-.16l-.76-.76c.76.76 1.37 1.38 2.27 2a8.64 8.64 0 0 0 4.68.9 9.99 9.99 0 0 0 3.78-1.06h.6c5.14-.3 5.44-4.74 5.44-4.74v.16c.3.15.6.15.75.15.16 0 .3 0 .46-.15.15 0 .15-.16.3-.3v-.46l1.21-.47s2.12-.6 4.23-2.75a4.73 4.73 0 0 0 1.36-1.68c.9-1.52 1.2-3.5.9-5.18zm-70.22 78.94c0 .15-.16.3-.16.3v-.15c.16-.15.16-.3.16-.45zm7.4-93.13c-.16.15-.3.15-.3.15a3.25 3.25 0 0 0 -1.37 2.75s-.15.15-.3.15c-.3.15-.45.3-.76.61h-.3c.3-.3.76-.61.9-.92.31-.45.46-.91.31-1.52.15 0 .15-.16.3-.3.46-.31.91-.62 1.22-.92.3-.46.44-.76.6-1.23 0 .31-.16.77-.16 1.23h-.15zm-22.98 37.25c-.75.45-.75.15-.9-.46.3.15.45.15.76 0h.75c-.15 0-.3.3-.6.46zm-24.47-28.71v.16c.46.15.76.3.91.61l-1.8-.46c.3-.3.6-.3.9-.3zm-29.44-3.81c1.36 0 2.72.15 4.07.46-2.4-.15-5.58-.3-8.45.15 1.5-.3 2.87-.61 4.38-.61zm8.01 22.28.15-.16v.16zm31.26 3.06s.16 0 .16.14zm13.75 1.98c.45-.46.76-.92.9-1.37.46-.16.31-.3 1.06.3 0 .15.15.3.46.6v.78c-.6 0-1.52-.16-2.42-.31zm-20.09 25.05v-.16zm4.38-3.66v-.3s0-.17.15-.62c0 .3 0 .61-.15.92zm15.26-9.93c.15-.46.3-.91.6-1.38 0-.3.15-.45.3-.76-.15.61-.3 1.07-.3 1.53-.3.46-.3 1.07 0 1.68h-.6c-.16-.46-.16-.77 0-1.07zm-2.57 12.67c-.3-.3-.45-.76-.45-1.37a3.21 3.21 0 0 1 0-1.68v-.46c.14 1.83.45 2.9.6 3.82 0-.16-.15-.16-.15-.3zm1.66 13.13c.46.61.6.77.6.77s0 .15-.14.3c-.16-.46-.3-.77-.46-1.07zm18.58 23.06v-.46-.62c0-.3.15-.45.15-.45s.15-.15.45-.3c0 .75-.15 1.37-.6 1.83zm5.13-12.06v.3c-.15-.3-.15-.46-.15-.46h.15zm4.08-21.53c-.3-1.22-.6-1.99-.76-2.45.46.77.6 1.53.76 2.45zm2.42-21.53c-.15 0-.15-.15-.15-.15s0 .15.15.15zm-4.38.31c-.15-.16-.15-.16-.3-.16.15 0 .15 0 .3.16zm-3.62-4.59c.14 0 .3-.15.45-.3-.16.3-.16.46-.16.6-.15 0-.3-.14-.3-.3zm-.3-1.52c-1.07.3-1.98.45-2.42.45 0-.14 0-.3.15-.45.45-.16 1.05-.3 1.66-.61l.6.61zm44.25-2.44c-.15-.16-.3-.16-.3-.16s.15 0 .3.16zm0 0" fill="#dfd199"/><path d="m108.75 95.27c-.3-3.06-1.06-4.27-1.21-6.56-.15-2.3.9 1.37-.15-1.83-1.06-3.21-1.52-4.28-2.12-7.64s-1.2-3.67-1.5-5.5.14-2.6-1.37-3.81c-1.5-1.22-1.35-1.07-3.47-1.53-2.11-.45-4.54.61-4.23-1.37.3-1.99 1.81-2.75-.3-2.75s-5.29.92-3.17-.3c2.1-1.23 4.07-2.45 2.1-2.3-1.95.16-5.28 1.84-4.37.16.9-1.68 3.63-2.14.75-2.3a68.1 68.1 0 0 0 -9.66 0c-3.48.31-7.25-1.67-5.9-.15 1.37 1.53 2.72 2.9 1.37 2.45-1.36-.47-3.78-.77-2.27.45 2.27 1.84-5.74-.6-3.63.76 2.12 1.38 4.39.77 2.43 1.84-1.22.61-2.57 1.22-2.72 1.52h-.45c-2.88 0-4.39 1.38-6.5 1.54a5.71 5.71 0 0 0 -4.38 2.74c-.75 1.22-.75 1.99-.75 1.99s-1.66.76-1.82 3.2c-.15 2.44-.9 4.89-1.51 5.65-.6.76-5.13 2.3-4.08 3.06 1.06.76 1.97-.3 1.81.76-.15 1.06-.15 1.98-.9 3.81-.76 1.84-2.57 2.9-1.82 4.9.76 1.98.91 2.13.91 2.58 0 .47 0 .92-1.05 2.9-1.06 2 .3 5.66 1.66 4.58 1.36-1.06.45.31 0-1.67-.46-1.99.6-4.58.6-5.34 0-.77.76-1.84 1.66-3.98.9-2.13 2.42-2.6 2.57-5.65s-.15-3.66-.15-3.66.46-1.07 1.66-4.12c1.21-3.06 2.87-6.72 2.87-6.72s.75-2.6 3.78-2.14c3.01.46 6.79 0 6.79 0s.76.61 4.83.46c4.08-.15 12.54.15 12.54.15l5.6-.45s3.17.45 5.58.45c2.43 0 3.78.46 3.78.46s-1.06 4.9-.3 7.49c.75 2.59.9 4.12.6 5.33-.3 1.23-.6 5.8.46 7.8 1.06 1.98 2.41 3.66 2.72 5.19.3 1.52 0 .9 0 2.9 0 1.98 1.2 3.5-.16 4.73-1.35 1.22-3.47 1.53-1.35 1.22 2.11-.3 3.02-.77 3.17-3.2.15-2.45-.6-3.06 0-4.28s1.36-.77 1.06-3.82zm-37-27.32c-.92.6-.61-.3-1.21-1.07 1.66.3 2.4.15 1.2 1.07zm41.98-27.34s1.2 3.67-1.2 4.28c-2.42.46-3.33 0-3.33 1.22 0 1.37-.45 2.44-1.21 2.14s-2.72-.92-3.62.15c-1.06 1.07-.9 1.23-1.51 1.99-.6.6-1.21.6-2.57 1.22-1.21.6-1.21 1.22-2.27 1.52-.9.3-3.02-1.22-4.07-.76-1.22.61-4.54 2.9-2.12 3.67 2.42.76 7.4 1.37 8.6-.47 1.37-1.98 1.82-2.29 1.82-2.29s.6.77 2.42-.15c1.8-1.06 1.96-1.68 2.42-1.98.45-.31 1.05 1.68 2.1-.31.92-1.98.16-1.52 1.52-1.98 1.5-.46 1.5.3 2.42-1.53 1.06-1.98 2.1-4.88.6-6.72zm-63.73 6.11c1.96.92 1.96.61 2.87 2.3.75 1.82.6 1.52 2.41 2.43 1.66.92 1.2 1.83 2.72 2.6 1.36.76 2.26 1.38 4.23 1.99 2.11.6 1.5.6 3.02.9 1.36.31 2.71 1.38 4.23-.3 1.66-1.68 2.11-3.2-3.18-3.66 0 0-2.4.15-3.47-.91-1.2-.92-1.81.3-2.42-1.68-.75-2.14-1.66-1.38-2.72-2.3-1.2-1.06-1.96-1.68-3.16-1.82-1.06-.16-.46 0-1.82-.77-1.5-.77-1.96.46-2.26-1.68s-.46-2.14-1.36-3.66c-.76-1.68-2.88-2.3-2.27-1.37.76 1.06 1.66.3 1.66 2.44 0 2.13-.6 4.73 1.51 5.49zm0 0" fill="#8a6b4f"/><path d="m94.25 42.75s9.21 1.68 16.76.3c7.4-1.21 15.56-3.35 23.56-4.88 8.16-1.68 12.84-1.06 17.67 1.38 4.84 2.6 6.65 6.86 4.38 10.53-2.26 3.51-5.58 4.43-5.58 4.43l-2.72.92s-.15 4.42-5.44 4.88c-5.13.46-11.33-1.83-11.33-1.83s4.99 4.57 3.78 6.87c-1.36 2.3-6.34 2.9-10.88 2.74-4.53-.3-11.93-2.13-11.93-2.13s-4.98.61-8.15-3.21c-3.17-3.66-5.14-6.87-9.22-7.94-4.08-1.22-10.72-11.45-.9-12.06zm-29.3.77c-4.23-.3-18.43-2.75-24.47-4.13-6.04-1.52-13.3-3.35-18.28-3.66-4.99-.16-13.6-.3-15.85 3.36-2.28 3.82-1.51 11.3 4.67 14.04 6.2 2.75 7.1 3.2 7.1 3.2s-1.5 3.83 2.27 3.37 5.59-2.14 5.59-2.14-1.05 6.26 3.17 7.94a20.64 20.64 0 0 0 11.63 1.38c3.93-.77 8.15-2.6 8.15-2.6s1.06.61 4.23-.76c3.18-1.53 3.93-2.75 3.93-2.75s.76.76 4.84-2.14c3.92-2.9 1.96-3.36 5.89-3.82 3.92-.3 12.53-9.77-2.87-11.3zm0 0" fill="#fff" fill-opacity=".38"/><path d="m72.65 33.59s-3.78-1.07-5.74 3.82c-1.81 4.88-2.87 7.18-2.42 8.7 1.06 3.52-1.36 3.52.3 5.34 1.51 1.99 1.51 1.23 2.12 3.82.6 2.75.76 2.3 2.11 3.36 1.37 1.07-.75 2.14 1.66 2.74 2.43.47.3-1.37 3.48 1.54 3.32 3.05 1.66 2.44 1.66 2.44s-3.02 1.06-4.08 4.88-.75 4.9-.75 4.9-4.38-.47-3.78 6.25c.46 6.87 1.67 7.48 1.67 7.48s-3.63.46-1.97 5.34c1.66 4.9 3.17 6.57 3.17 6.57s-3.17 2.75-1.2 6.87c1.8 3.97 3.77 5.34 3.77 5.34s-1.66 2.75.75 6.26l2.42 3.51s4.23 7.49 7.55 5.8c3.17-1.67 4.83-7.01 4.83-7.01s3.03-1.23 4.23-5.2c1.36-4.12.6-5.5.6-5.5s2.42-.76 3.02-4.88c.46-4.12-.3-5.19-.3-5.19s2.88 0 2.42-5.96c-.6-5.95-1.96-8.24-1.96-8.24s2.72-.77 1.96-5.65c-.75-4.88-4.53-6.56-4.53-6.56s1.81-.3.46-3.82c-1.37-3.51-5.14-5.2-5.14-5.2l-2.42-2.9s4.69.16 6.8-3.35c2.11-3.52 1.5-1.84 1.81-4.28.3-2.44-.45-2.74 1.06-3.5 1.66-.92 3.02-.31 1.36-2.45-1.52-2.29-3.93 0-1.52-2.29 2.43-2.14 1.52-1.53 1.52-3.52 0-4.57 1.97-5.64-1.06-5.5-2.87.32-4.22.93-3.47-.75s2.72-3.05.75-2.75c-1.81.3-3.17.3-3.17.3l-3.77.61-6.5-.9zm0 0" fill="#ffd84f"/><path d="m74.16 34.05s-4.53-1.53-4.53-2.9c0-1.38-1.96-2.75-.6-6.11 1.36-3.2 2.4-3.2 2.4-3.2s.91-2.75 4.39-4.59c3.47-1.98 3.47-1.68 4.53-1.68s4.84.77 4.84.77 1.35 0 3.47 1.98a12.67 12.67 0 0 1 3.32 4.28s2.12 0 2.87 2.44c.9 2.44 1.2 3.67-.75 5.5-1.81 1.98-2.12 3.2-2.12 3.2l-3.78.92s1.82 2.9 2.72 8.09c.76 5.2.46 8.55-1.96 11.45-2.42 3.05-5.59 4.12-8.3 3.51-2.73-.46-6.5-1.83-8.32-6.26-1.94-4.27-1.34-5.65-1.34-5.65s.3-9 3.17-11.75zm0 0" fill="#8a6b4f"/><path d="m70.08 35.57s-2.57-1.68-3.17-1.82c-.6-.16-.6-1.84-.75-2.3-.16-.45-1.52-5.95-2.87-7.02-1.36-1.07-2.27-.91-2.27-.91s.3-1.68-.45-1.84c-.76-.15-.91.46-1.21-1.37s-2.27-4.13-2.72-2.75c-.45 1.37 1.5 3.82 1.96 3.97.45.15-.15.76.76 2.29l.9 1.53s-2.11 1.22.46 5.65c2.57 4.27 4.07 5.34 6.19 6.41 2.11 1.07 4.98-.16 3.17-1.84zm29.15-10.84s-3.47 1.84-3.93 4.43c-.45 2.45-1.05 4.73-1.96 5.96-.9 1.22-1.5 2.6-.6 3.2.9.61 4.53-3.05 5.59-5.34 1.05-2.29 1.5-2.75 1.66-4.73.15-2.14.3-3.97.3-3.97s.45-1.23.45-2.14v-1.37s3.63-1.53 2.42-2.14-2.11.3-2.27.76c-.15.46-1.06.61-1.66 1.38-.6.76-.75 2.59 0 3.96zm0 0" fill="#8a6b4f"/><path d="m72.2 76.04c7.55 1.37 15.1 2.28 22.2-1.08 2.26-.9.3-4.27-1.81-3.2-6.2 2.75-13 1.68-19.34.61-2.42-.46-3.47 3.36-1.05 3.67zm-2.87 11.14c2.1.77 4.38 1.22 6.8 1.38 7.24 1.37 15.7 1.83 21.59-2.3 1.82-1.22.6-3.81-1.5-3.51-6.2.92-13.3 2.6-19.95 1.98-1.8-.3-3.62-.76-5.28-1.21h-.76c-2.27-.77-3.17 2.9-.9 3.66zm25.82 4.73c-7.85 4.13-16.61 3.52-25.22 2.6-1.51-.15-2.11 1.68-1.66 2.9.3.46.75 1.07 1.2 1.38 0 .45.3.9.92 1.07 1.8.91 3.77 1.21 5.88 1.37 1.66.15 3.18.15 4.38.15 5.6.16 10.88-1.22 15.86-3.51 1.06-.46 1.2-1.68.6-2.6 2.12-1.07.3-4.43-1.96-3.36zm0 12.52c.76-1.68-1.36-2.75-2.72-2.13a32 32 0 0 1 -19.18 2.9 1.91 1.91 0 0 0 -2.11 1.22c-.91.3-1.66 1.37-1.21 2.29 1.96 5.34 8 4.73 12.84 4.27 2.11-.3 6.19-.46 8.3-1.83 2.12-.91 3.93-2.13 4.38-4.43 0-.61-.15-1.22-.45-1.68 0-.3.15-.45.15-.61zm-6.35 9.47c-4.22.92-8.45 1.98-12.68 2.9a1.9 1.9 0 0 0 -2.57 1.22c-.3.92-.15 2.14.91 2.6 1.06 1.22 3.02 1.52 4.83 1.52h.16c0 .16 0 .31-.16.46-.45 1.83 1.06 3.67 2.87 3.97.3.15.46.3.91.46 1.06.3 1.96-.15 2.72-.92 1.36-1.22 2.26-3.36.9-4.88 1.97-.61 3.48-1.53 4.38-3.21.46-.6.3-1.22 0-1.83.16-1.23-.75-2.6-2.26-2.3zm0 0" fill="#cf9a48"/><path d="m94.1 95.88c-7.1 3.36-14.2 3.36-21.6 2.3-2.57-.31-2.42 3.66 0 3.96 8.15 1.07 15.86.77 23.55-2.9 2.12-1.06.16-4.43-1.95-3.36zm-3.03 10.84c-4.22 1.84-12.08 5.04-16.46 2.6-2.11-1.07-3.93 1.83-2.41 3.06.14.91.75 1.52 1.8 1.67 6.8.61 13.45.61 18.9-3.97 1.5-1.22 0-3.97-1.83-3.36zm-3.02 9.78c-2.57.45-5.28.91-7.85 1.52h-1.5c-.46 0-.92.16-1.22.46-.45.15-.9.3-1.5.3-2.43.46-1.37 4.28 1.05 3.67 1.2-.15 2.42-.46 3.47-.61 3.03-.16 5.9-.61 8.61-1.68 2.27-.76 1.36-4.12-1.06-3.66zm-3.77 7.17h-1.81c-.91 0-1.82.92-1.82 1.99 0 .91.6 1.68 1.37 1.82.3.3.75.47 1.2.47.3 0 .75-.16 1.06-.3 1.06 0 1.97-.93 1.97-2 0-1.06-.77-1.83-1.97-1.98zm.15 3.81h-.15c.15 0 .15 0 .3-.14zm10.27-40.6c.9-.31.45-1.68-.45-1.84-4.08 0-7.86 1.99-11.78 2.3-4.38.3-8.61-.46-12.54-1.84-.9-.3-1.36.46-1.2 1.07-.46.46-.62 1.52.3 1.83a34.78 34.78 0 0 0 25.67-1.52zm-22.65-11c.9.16 1.8.16 2.72.16 1.5.3 2.86.45 4.52.3 1.21 0 1.21-1.83 0-1.83-.75-.15-1.36-.15-1.96-.15-.15-.3-.45-.61-.76-.61h-3.46c-.3 0-.46.14-.61.3h-.45c-1.22-.16-1.22 1.83 0 1.83zm12.98.92c.76-.16 1.66-.3 2.42-.46.9-.15 1.81-.46 2.87-.91.15 0 .15-.16.3-.3.15 0 .3-.17.6-.17.9-.45.3-2.13-.75-1.83-1.51.46-2.87.92-4.22 1.38-.16 0-.3.15-.46.15s-.45.15-.76.15c-1.2.15-1.2 2 0 2zm0 0" fill="#5b3f1c"/><path d="m82.31 72.37c.76.46 1.66.76 2.57.46a3 3 0 0 0 2.27-1.99l.15-.15c.9-.76.6-2.44-.3-3.05-.46-.16-.75-.3-1.21-.3-.3-.31-.9-.46-1.36-.46-.3.15-.6.15-.9.15-.91.15-1.67.45-2.42.92-.76.6-1.06 1.37-.91 2.13-.15.61.3 1.53.9 1.83.31.3.76.46 1.21.46zm4.23 11.45c1.97-.3 4.53-1.53 3.78-4.12-.15-.61-.6-1.22-1.36-1.22-.45-.16-.9-.16-1.36-.3h-.15-.15c-1.36 0-2.72.14-4.08.6-.15.15-.45.31-.6.46h-.15c-.3 0-.45.16-.76.3-1.06.77-.9 2.9.45 3.51 1.21.92 2.72 1.08 4.38.77zm1.06 6.26-.6-.61c-1.37-.76-3.18-.15-3.63 1.37-.3.92 0 1.84.6 2.45.3.91 1.22 1.52 2.28 1.22.75-.15 1.66-.46 2.41-.61.9-.31 1.66-1.38 1.36-2.45a2.14 2.14 0 0 0 -2.42-1.37zm-1.51 12.82h-.46c-.9 0-1.8.92-1.8 2 0 1.06.75 1.82 1.8 1.82h.46c.9 0 1.82-.76 1.82-1.83s-.76-1.98-1.82-1.98zm0 0" fill="#ffedb5"/><path d="m85.34 34.36c-.76-.3-1.37-.61-2.12-.92h.3c.45.15 1.06.15 1.51 0 .45 0 .76-.16 1.22-.46.14.3.44.46.75.61 0 0 .15.16.3.16.75.76 1.81 1.06 2.87.45 3.62-2.13-1.97-5.04-1.36-5.95 1.51-1.98-1.81-3.82-3.33-1.84v.16c-.3 0-.45 0-.6.15a2.6 2.6 0 0 0 -1.5 0c-.91-.76-1.67-.92-2.42-.61-.76-1.07-2.42-1.22-3.18 0-1.05-1.68-4.23-.76-3.32 1.53.3 1.07.15 2.13-.75 2.9-1.66 1.67.6 4.12 2.41 3.05.3 0 .75 0 1.2-.3.16 0 .31-.16.31-.16.15.15.46.3.6.3-.6.32-1.05.62-1.5 1.23-2.72.61-4.68 2.14-5.14 5.8-.6 3.97.75 7.79 3.02 10.84a2.1 2.1 0 0 0 .3 2.6c0 .15.15.15.15.3a7.32 7.32 0 0 0 3.33 2.3c0 .14.15.14.3.14.45.47 1.06.77 1.5 1.07.92.46 1.97 0 2.58-.6a8.25 8.25 0 0 0 4.83-2.15c.3-.15.45-.3.76-.6 0-.16.15-.3.3-.47a7.74 7.74 0 0 0 1.36-2.44c2.1-3.66 3.93-7.48 1.66-11.6-1.66-2.9-3.77-4.73-6.34-5.5zm-7.1 3.66c1.05-.3 2.57-.15 3.78-.15.75-.16 1.66 0 2.41.3a5.7 5.7 0 0 1 2.26 2.75 10.85 10.85 0 0 1 0 8.7v.15c-.3 0-.75.16-1.06.46-.3.3-.44.61-.75.92a8.5 8.5 0 0 0 -3.02 2.13h-.75c-.3-.15-.61-.3-.91-.6 0-.47-.15-.92-.6-1.38-2.42-2.29-4.08-5.03-4.39-8.25-.15-2.59.16-4.26 3.03-5.03zm-23.56 48.55c0-.77-.6-1.53-1.52-1.84a2.04 2.04 0 0 0 -2.11.92 4.76 4.76 0 0 0 -.46 3.51c.16.77.91 1.23 1.52 1.38.9.15 1.5-.31 1.96-.92.46-.76.6-1.53.6-2.44v-.61zm-3.78 1.07c-.15.15-.15.15 0 0zm15.1-20.61c-.45 0-.9 0-1.36.3-.3-.15-.6-.15-.9-.15a2 2 0 0 0 -1.97 1.98 2 2 0 0 0 1.96 1.99h1.37c1.06 0 1.8-.46 2.26-1.38a2.06 2.06 0 0 0 -1.36-2.74zm-.9.3c.15-.15.3-.15 0 0zm34.58.46h-.3c0-.15-.3-.3.16 0-.46-.3-.92-.61-1.37-.61s-1.06.3-1.35.6c-.6.78-.91 2.15 0 2.76.14.15.45.3.6.46.45.45.9.6 1.51.6h.6c1.06.16 1.96-.76 1.96-1.83-.15-1.06-.75-1.68-1.8-1.98zm0 0h-.14zm-9.05-4.43h-.16a2 2 0 0 0 -1.96 1.99c0 .92.9 1.83 1.96 1.83h.16c1.05 0 1.96-.91 1.96-1.83-.16-1.07-.91-1.99-1.97-1.99zm14.64 22.6c-1.06 0-1.8.92-1.96 1.99v.76c0 .3-.15.45-.15.61v2.13c0 1.07.75 1.68 1.66 1.84h.9c1.06-.3 1.51-1.38 1.37-2.45v-.45c0-.77 0-1.68.14-2.44 0-1.07-1.05-1.99-1.96-1.99zm-7.25-29.01c.6-.3 1.06-.91 1.21-1.68.3-1.07-.3-2.14-1.36-2.44-.76-.15-1.82.3-2.11 1.06-.6.62-.91 1.68-.3 2.3.45.92 1.65 1.37 2.56.76zm8.01-5.04c.15 0 .15-.15.15-.3v-.16c0-.61-.15-1.06-.6-1.52-.31-.46-.91-.61-1.52-.61-.75 0-1.5.45-1.8 1.22v.15c-.31.3-.31.61-.31 1.07 0 .92.76 1.99 1.82 1.99 1.2-.16 1.95-.77 2.26-1.84zm5.59-4.58c-.6-.92-1.66-1.22-2.57-.76-.15 0-.15.15-.3.15-.91.46-1.21 1.83-.76 2.75.6.92 1.66 1.07 2.57.6.15 0 .3-.14.45-.14.9-.46 1.2-1.84.6-2.6zm-54.22 1.22c-.46-.76-1.37-1.37-2.27-1.07a2 2 0 0 0 -1.36 2.15v.76a2.3 2.3 0 0 0 1.82 1.52c.9.16 1.8 0 2.26-.91.45-.92.3-1.84-.46-2.45zm5.28 6.57c.76-.61.76-1.99 0-2.6a1.9 1.9 0 0 0 -2.72 0s-.15 0-.15.16c-.76.6-.76 1.98 0 2.75.76.6 1.96.76 2.72 0 0-.16.15-.16.15-.31zm-.15-20.76a1.8 1.8 0 0 0 1.96.91c.6 0 1.51-.6 1.51-1.38.16-.6.16-1.06 0-1.52a2.96 2.96 0 0 0 -.75-1.37c-.15-.16-.3-.3-.6-.3-.61-.47-1.36-.62-2.12-.16-.9.46-1.21 1.67-.6 2.6.14.45.45.75.6 1.22zm34.58-.16v-.45s.16 0 .16-.16c0-.15.15-.3.3-.46.45-.76.15-1.83-.6-2.44-.61-.46-1.67-.61-2.27 0-.15 0-.15.15-.3.15-1.06.77-1.5 1.84-1.21 3.05.15.3.3.62.45.77.15.46.6.77 1.06.77.9.3 2.12-.16 2.41-1.23zm0 0" fill="#5b3f1c"/><path d="m70.23 24.43c0 .16-.15.16-.15.3-.75.62-.75 1.99 0 2.75.75.61 1.97.77 2.72 0 0-.15 0-.15.15-.3.76-.61.76-1.98 0-2.75-.75-.61-1.96-.76-2.72 0zm24.02 1.07c-.15-.3-.46-.6-.76-.77-.45-.45-.9-.6-1.36-.6-.6 0-1.06.15-1.36.6-.45.3-.45.77-.6 1.38-.15.77.3 1.37.75 1.98.46.62 1.67.77 2.27.3.15-.14.3-.14.45-.3.75-.61 1.2-1.68.6-2.59zm-14.65-2.75c1.36-.46 2.42-1.83 1.81-3.36-.45-1.07-1.66-1.68-2.87-1.68-1.06-.15-1.97.3-2.87 1.07-.76.61-.6 1.83 0 2.6 0 0 0 .15.15.3 0 0 0 .16.15.16 0 .15.3.45.46.6.9.47 2.1.61 3.16.31zm7.1-3.82c-.45-.45-1.36-.45-2.12-.3-.15 0-.3.15-.45.3-.6.16-1.22.61-1.36 1.23-.15.76.14 1.83.9 2.28 1.06.47 2.12.47 3.02-.15.6-.3 1.06-.91 1.06-1.68 0-.76-.45-1.22-1.06-1.68zm-1.82 26.11c-.9-.76-1.97-.76-2.72 0-.14.16-.3.16-.3.3-.15-.45-.3-.75-.6-1.06-.45-.3-1.21-.61-1.81-.46h-.16-.15a1.97 1.97 0 0 0 -1.36 2.45c0 .14.15.3.15.6.16.77.91 1.22 1.52 1.38.75 0 1.36-.16 1.66-.61.14.15.14.3.3.45.3.46.75.77 1.2.92.46.15.92.15 1.36-.15.46 0 .91-.3 1.06-.77.16-.45.3-.76.3-1.06.15-.76 0-1.53-.45-2zm0 0" fill="#bca795"/><path d="m71.44 23.67c-.15 0-.3.15-.45.15-.45 0-.76.3-.9.61v.16s0 .14-.16.3v.76c.15.62 1.06 1.07 1.66.76.15 0 .3-.14.3-.14.3-.16.45-.47.6-.77v-.15-.15c.16-.61-.3-1.53-1.05-1.53zm21.46 1.37c-.61-.3-1.52 0-1.98.61-.3.62-.15 1.53.46 1.99.6.3 1.2 0 1.51-.3l.45-.46c.3-.61.15-1.38-.45-1.84zm0 0" fill="#fff"/><g fill="#16230f"><path d="m77.63 28.7c0-1.22-.45-2.29-1.2-3.05.3 1.07.44 1.99.44 3.06 0 1.06 0 1.98-.14 3.05.6-.76.9-1.99.9-3.05zm.15 3.82c.6-.61.76-1.37.76-2.13.15-.77 0-1.53-.3-2.3-.3.77-.3 1.54-.46 2.3zm1.36-2.59c-.15.76-.15 1.37-.15 2.28.6-.6.76-1.37.9-2.13 0-.92-.14-1.68-.6-2.3-.15.77-.15 1.54-.15 2.15zm1.36.61a3 3 0 0 0 .3 1.53c.3-.46.45-.92.45-1.53a3 3 0 0 0 -.44-1.53c-.31.61-.31 1.07-.31 1.53zm2.72-.31c0 .46 0 .92.46 1.38.14-.46.3-.92.3-1.38.15-.46.15-.91 0-1.37-.45.3-.6.77-.76 1.37zm2.41.16c0-.62 0-1.07-.3-1.68-.3.45-.45 1.06-.45 1.68 0 .6 0 1.22.46 1.68.14-.62.3-1.23.3-1.68zm1.22-2.14c-.3.6-.3 1.22-.3 1.83.14.61.45 1.22.9 1.68 0-.61 0-1.22-.15-1.83a4 4 0 0 0 -.45-1.68zm-11.03-5.5c0-.46-.15-.76-.45-.91-.16-.3-.46-.46-.9-.46 0 .46.14.76.44.91.15.3.46.46.9.46zm.45-1.98c-.15-.16-.45-.16-.75-.16 0 .46.15.61.3.77.15.15.3.3.75.3.16-.46 0-.61-.3-.91zm1.06 0c0-.3-.15-.46-.3-.61-.16-.16-.3-.16-.76-.16 0 .3.16.61.3.77.16.15.46.15.76 0zm9.07-.16c-.31.3-.46.77-.31 1.23.3-.16.6-.46.9-.77.16-.15.3-.46.61-.91-.45-.16-.9.15-1.2.45zm1.05 1.99c.3-.16.6-.46.75-.61l.46-.92c-.46-.15-.75.15-1.06.46-.15.3-.3.61-.15 1.07zm1.81.3c.15-.15.15-.46 0-.76-.3 0-.6.3-.6.46a.98.98 0 0 0 0 .92c.45-.16.6-.3.6-.61zm-17.06 21.38c.14 1.22.6 2.44 1.35 3.5-.15-1.21-.44-2.43-.6-3.66-.15-1.21-.15-2.44-.3-3.66a7.86 7.86 0 0 0 -.45 3.82zm2.86 2.13c-.15-.76-.15-1.68-.45-2.44-.3.76-.45 1.68-.3 2.6.15.76.46 1.68 1.06 2.29 0-.91-.16-1.68-.3-2.45zm1.97 3.36c0-.61-.3-1.22-.46-1.82a8.77 8.77 0 0 0 -.6-1.84c-.3.77-.3 1.37-.15 2.14.3.6.6 1.22 1.21 1.52zm2.42.93a3.03 3.03 0 0 0 -.76-1.38c-.3-.46-.45-.92-.9-1.37-.16.6 0 1.21.3 1.67s.75.92 1.36 1.07zm1.8-.16c-.14-.46-.3-.77-.44-1.07-.16-.31-.31-.61-.76-.92-.15.46-.15.92.15 1.38.15.3.6.6 1.05.6zm2.57-2.44c-.45.3-.6.76-.75 1.22 0 .45 0 .91.15 1.37.46-.3.6-.76.6-1.22.15-.46.15-.92 0-1.38zm.76 1.98c.45-.45.76-.92.9-1.37.15-.46.15-1.07-.14-1.53-.3.46-.46.91-.6 1.37-.16.46-.16.92-.16 1.53zm1.82-1.22c.45-.46.9-.91 1.05-1.53.15-.61.3-1.22 0-1.83-.3.46-.45 1.07-.76 1.53-.15.6-.3 1.06-.3 1.83zm2.26-3.51c-.15.76-.3 1.52-.3 2.29.6-.61.9-1.37 1.05-2.14 0-.77 0-1.53-.3-2.29-.3.76-.45 1.52-.45 2.14zm1.36-.76v1.68c.45-.47.75-1.07.75-1.68 0-.62-.14-1.38-.75-1.84zm-15.42 8.09c.17-.47.17-.92.31-1.23v-1.37c-.45.15-.75.76-.75 1.22-.15.46 0 1.07.45 1.38zm9.53 1.98a5.61 5.61 0 0 0 -1.06-2.6c0 .92.15 1.83.3 2.75.16.92.3 1.83.6 2.75.3-.92.3-1.99.16-2.9zm-16.02 4.27c-.15.31-.44.62-.6 1.07.6 0 .9-.3 1.21-.6.3-.47.45-.92.45-1.38-.45.3-.75.46-1.06.91zm27.04-1.98c0 .46 0 .76.15.92 0 .3.15.45.6.76.15-.3.15-.76 0-1.07-.14-.3-.3-.45-.75-.61zm-1.2 9.15c.44-.45.75-.75 1.05-1.37-.6 0-1.2.47-1.66.92-.3.46-.6.92-.75 1.68.6-.45 1.05-.76 1.36-1.22zm.75-4.42c-.6 0-1.36.3-1.8.77-.47.46-.92 1.07-.92 1.83.45-.46.91-.92 1.36-1.23.45-.45.9-.76 1.36-1.37zm1.96-25.34c-.45 0-.75.15-1.2.3-.3.3-.61.47-.76 1.07.45 0 .9-.15 1.2-.46.31-.14.61-.45.76-.91zm2.42 14.96c-.15.15-.45.3-.45.46-.15.3-.15.45 0 .76.14-.15.3-.3.45-.3 0 0 .15-.15.3-.15.3-.16.6-.16.9-.46-.14-.16-.3-.16-.45-.3h-.75zm2.42 3.66-.16.16c-.14.15-.3.3-.45.3.16.31.3.31.6.31.16 0 .3 0 .6-.16.16-.14.16-.3.31-.45 0-.3 0-.46-.3-.61l-.3.3c-.15 0-.15.15-.3.15zm4.07-2.44c-.45.16-.75.3-.9.46-.3.15-.6.3-.9.77.44.14.9.14 1.2-.16.46-.15.6-.6.6-1.07zm1.97-2.89c0-.31-.15-.62-.45-.62-.16-.15-.46-.15-.76.15.15.3.3.47.45.61.3 0 .45 0 .76-.15zm43.19 3.05c-.15-.16-.45-.16-.75 0 0 .3.15.6.45.6.15.16.46.16.76 0 0-.3-.15-.45-.46-.6zm.91-.77c-.15-.15-.3-.15-.6 0 0 .46.15.61.3.61.15.16.45.16.6-.15-.15-.3-.3-.46-.3-.46zm-22.5 3.05c-.46 0-.91 0-1.51.31.45.3 1.05.46 1.5.46.46-.16 1.07-.16 1.36-.61-.45-.16-.9-.3-1.35-.16zm-6.64 9.63c0 .45.14.76.45.91.14.3.44.46.9.3 0-.3-.3-.6-.46-.76-.14-.3-.44-.45-.9-.45zm2.55.76c-.14-.3-.3-.62-.6-.76-.15-.16-.3-.3-.75-.3-.15.3 0 .75.3.9.3.31.6.31 1.05.16zm-75.51-19.7c0-.3-.15-.61-.45-.76-.16.46-.3.61-.3.91.14.16.14.47.45.77.3-.3.45-.61.3-.92zm-31.41-2.6c.3-.3.75-.6 1.2-.76 1.06-.45 2.12-.91 3.17-1.52-1.2 0-2.41.3-3.47.76-.45.3-1.06.61-1.36 1.22-.46.46-.6 1.22-.3 1.68.15-.46.3-.91.75-1.38zm4.83.62c.6-.62 1.2-1.07 1.81-1.53.76-.6 1.36-.91 2.11-1.53-.9 0-1.8.3-2.57.92a3.5 3.5 0 0 0 -1.35 2.14zm-8.91 2.43c-.6.17-1.21.17-1.66.31-1.21.3-2.27.62-3.48.92a7.3 7.3 0 0 0 3.63-.16c1.2-.3 2.26-.6 3.47-.9-.6-.16-1.2-.16-1.96-.16zm30.95 16.04c-.3.46-.45.91-.6 1.53.6-.3.91-.62 1.2-1.07.31-.46.61-1.07.61-1.68-.44.3-.9.76-1.2 1.22zm-9.36 2.14c.3 0 .6-.16.76-.46.3-.15.45-.3.6-.77-.45-.14-.75 0-1.05.31-.16.16-.45.46-.3.92zm-.6-1.83c-.45-.16-.75 0-1.2 0-.31.15-.61.46-.77.91.46 0 .76 0 1.06-.15.46-.16.76-.3.9-.76zm37.01 10.68c0 .46.15.92.3 1.23.3.3.6.6.9.76-.14-.3-.14-.61-.3-1.07 0-.3-.15-.6-.15-.92 0-.6.15-1.37.15-2.13-.6.6-.9 1.37-.9 2.13zm2.11-1.06a4.1 4.1 0 0 0 -.45 1.82c.15.31.3.62.45.77.15.3.45.46.75.46-.14-.3-.14-.46-.3-.76 0-.16 0-.47-.15-.61 0-.46 0-1.07-.3-1.68zm1.05 2.13c.16.46.6.76 1.06.92 0-.61-.15-.92-.3-1.23-.15-.3-.3-.6-.6-.9-.3.3-.3.9-.16 1.21zm1.67-.45c-.15.45.15.76.3 1.06.3.31.6.46 1.06.31-.15-.3-.3-.61-.46-.76-.3-.3-.45-.47-.9-.61zm2.72.91a2.4 2.4 0 0 0 -.9-.46c0 .46.14.76.44 1.07.3.16.76.3 1.06.16-.15-.47-.3-.62-.6-.77zm1.96.77c0-.3 0-.62-.15-.77-.16 0-.3-.15-.6 0-.16.3-.16.46 0 .61.15.16.3.16.75.16zm5.89-1.38c-.15.15-.15.46-.15.76.45 0 .6-.15.75-.3s.15-.46 0-.76c-.45.14-.45.14-.6.3zm2.42 0c.15-.3.15-.6 0-1.07-.46.15-.6.46-.76.61-.15.3-.15.61-.15.92.45 0 .6-.15.9-.46zm1.36-.3c-.16 0-.16.14-.16.14.16.16.3 0 .3 0 .16 0 .16-.14.3-.14.16-.16.16-.3.31-.46 0-.3 0-.61-.15-.92-.45.15-.6.46-.6.76 0 0-.16.16-.16.31v.3h.16zm2.41-.92a.94.94 0 0 0 -.15-1.07c-.3.3-.45.61-.45.76-.15.3-.15.61 0 1.07.3-.15.6-.46.6-.76zm-24.92 11.76c.16.76.6 1.68 1.36 2.13-.3-.92-.45-1.52-.6-2.29-.15-.76-.15-1.52-.15-2.29-.6.61-.76 1.53-.6 2.45zm2.42-.92c-.15.76-.15 1.53.15 2.3.15.3.45.75.76.9.3.3.6.46 1.06.46-.3-.3-.46-.45-.61-.76-.16-.3-.3-.6-.45-.92-.3-.6-.46-1.22-.91-1.98zm2.11 1.23c-.3.6 0 1.2.3 1.67.3.46.91.76 1.51.76-.3-.45-.6-.92-.9-1.22-.3-.46-.6-.76-.9-1.22zm2.12.9c0 .47.15.92.6 1.23.3.3.76.61 1.21.45-.3-.45-.45-.76-.75-.91-.3-.3-.61-.6-1.06-.77zm6.94.77c0 .3 0 .46.16.6.15 0 .3 0 .6-.14 0-.46-.16-.46-.3-.62-.15 0-.3 0-.46.16zm6.35-.77c-.15.16-.15.3-.15.77.45 0 .6-.16.75-.46.15-.15.15-.46 0-.91-.45.15-.6.3-.6.6zm1.97-.9c-.16.45-.31.75-.31 1.37.45-.16.75-.62.9-1.07.16-.3.3-.77.16-1.38-.46.46-.6.77-.75 1.07zm1.8.9c.46-.15.9-.45 1.21-.9.3-.47.3-1.08.15-1.69-.45.46-.6.92-.75 1.22-.3.46-.45.77-.6 1.37zm2.12-1.83a.96.96 0 0 0 0 .92c.3 0 .6-.3.6-.6a.98.98 0 0 0 0-.93c-.3.16-.45.46-.6.61zm-24.16 13.9c-.3-.76-.61-1.37-.91-2.3-.3.93-.15 1.84.3 2.6a2.93 2.93 0 0 0 2.11 1.69 9.71 9.71 0 0 1 -1.5-2zm4.52 2.43c-.45-.6-.75-1.06-1.2-1.51-.3-.47-.6-.92-1.06-1.38-.15.61.15 1.38.46 1.83.44.62 1.05 1.07 1.8 1.07zm1.97-.14c-.3-.61-.61-.92-.9-1.37-.31-.31-.61-.77-1.07-1.07 0 .6.15 1.07.61 1.52.3.46.75.92 1.36.92zm1.66-.3c-.15-.46-.45-.77-.6-1.07-.3-.31-.61-.61-1.06-.77 0 .46.15.92.45 1.22s.6.62 1.2.62zm1.06-1.84c0 .46.15.77.3 1.07.3.3.6.6 1.06.6 0-.45-.15-.75-.46-1.06-.15-.3-.45-.45-.9-.61zm4.08.92c.14-.31.14-.62 0-.76-.15-.16-.3-.31-.77-.31 0 .3 0 .61.16.76.15.16.3.3.6.3zm1.66-1.68c-.15.3-.15.6-.15.76.15.16.3.3.75.46.15-.46.15-.61 0-.76-.15-.31-.3-.46-.6-.46zm3.16 0c-.14.46-.3.92-.3 1.53.46-.31.76-.77.91-1.23.15-.61.15-1.22-.15-1.68-.3.46-.45.92-.45 1.38zm1.37 1.22c.45-.3.75-.76.9-1.22a3.2 3.2 0 0 0 0-1.68c-.3.46-.6.92-.75 1.37-.15.46-.15.92-.15 1.53zm2.11-1.84c-.15.62-.3 1.23-.3 1.99.6-.61.9-1.22 1.05-1.83.16-.76.16-1.37 0-2.14a4.5 4.5 0 0 0 -.75 1.98zm1.52 1.38c.45-.46.75-.91.9-1.52.15-.62.15-1.23 0-1.84-.45.46-.6 1.07-.76 1.68-.15.46-.15 1.07-.15 1.68zm1.65-.15c.46-.61.6-1.23.76-1.83.14-.61.3-1.38 0-1.99-.3.61-.6 1.22-.6 1.83a4.3 4.3 0 0 0 -.16 1.99zm-22.05 13.28c.45.15.9.46 1.36.3-.3-.3-.6-.45-.9-.75-.3-.31-.45-.77-.76-1.08-.46-.6-.75-1.52-1.2-2.28 0 .91.14 1.82.6 2.74.3.3.6.76.9 1.07zm.76-2.59c.15.76.45 1.52.9 1.98.6.46 1.21.92 1.97.92-.46-.62-.91-1.07-1.36-1.53-.46-.46-.9-.91-1.51-1.37zm5.13 3.35c-.45-.6-.75-.91-1.2-1.37-.46-.46-.76-.92-1.36-1.22 0 .61.3 1.22.75 1.68s1.06.91 1.8.91zm1.81-.45c-.3-.46-.6-.76-.9-1.07a1.7 1.7 0 0 0 -1.2-.46c.14.46.44.77.75 1.07.3.3.75.46 1.36.46zm1.82-.31c-.15-.45-.46-.61-.76-.91-.3-.16-.6-.3-1.05-.46 0 .46.3.92.6 1.22.3.15.75.3 1.2.15zm2.57.15c-.16-.46-.3-.6-.61-.91-.3-.15-.6-.3-1.05-.46 0 .46.3.77.6 1.07s.6.46 1.06.3zm2.26-.76c-.15-.3-.45-.46-.6-.6-.3-.16-.6-.31-1.06-.47 0 .46.3.92.6 1.07.3.16.76.3 1.06 0zm1.66-.15c-.15-.46-.3-.61-.45-.77-.15-.15-.46-.3-.91-.3 0 .46.16.61.45.92.16.15.46.15.91.15zm1.52-.61c.14-.31.14-.62 0-.62-.16-.14-.31-.3-.61 0v.47c.15.15.3.15.6.15zm-15.42 7.17c-.15.92 0 1.68.46 2.45.3.6 1.06 1.22 1.81 1.52-.45-.76-.9-1.37-1.21-1.98-.3-.62-.6-1.22-1.06-2zm4.09 3.67c-.46-.62-.76-1.07-1.06-1.53-.3-.61-.6-1.07-.91-1.68-.3.77 0 1.38.3 1.99.3.6.9 1.06 1.66 1.22zm2.26-.16c-.3-.46-.6-.91-.9-1.22-.3-.45-.61-.76-1.07-1.22-.14.6.16 1.22.46 1.68.45.46.9.76 1.5.76zm1.97 0c0-.46-.16-.91-.46-1.22-.3-.3-.6-.61-1.05-.92 0 .62.14.92.45 1.38.3.3.6.6 1.06.76zm.15-1.98c-.15.46-.15.76 0 .92.14.3.45.46.75.46.15-.31.15-.62 0-.77-.15-.3-.46-.46-.75-.61zm2.26-.46c-.15.46-.15.77-.15 1.07s.15.6.3 1.07c.45-.3.45-.76.45-1.07 0-.46-.15-.77-.6-1.07zm1.96.3v1.23c.46-.3.76-.76.76-1.23 0-.45-.15-.9-.46-1.21-.15.45-.3.76-.3 1.21zm1.51-1.22c-.15.31-.15.46 0 .92.3-.15.6-.46.6-.76.16-.31.16-.62-.14-1.07-.3.3-.46.61-.46.92zm-15.55-93.13c-.15-.15-.46-.3-.75-.45a1.63 1.63 0 0 0 -1.22 0c.16.45.3.76.45.91.16.3.3.46.46.77.3.15.45.3.75.45s.6.15 1.06.3c0-.45 0-.75-.15-1.06-.15-.3-.3-.61-.6-.92zm16.31 3.51a4.2 4.2 0 0 1 .9-1.83c.3-.61.91-1.22 1.36-1.98-.9.15-1.66.6-2.26 1.06a4.63 4.63 0 0 0 -1.51 2.3 7.43 7.43 0 0 0 0 2.6c.15.45.3.76.45 1.21.15.3.3.46.6.61.16 0 .61 0 .61-.15-.15 0-.3-.15-.45-.15v-.46-1.07c.15-.76.15-1.53.3-2.14zm-8.47 1.22c0 .62.16 1.38.61 2 .3-.62.46-1.23.6-1.84.16-.61.31-1.07.46-1.68.16-.61.3-1.22.16-1.98 0-.61-.3-1.38-.76-1.84-.15.61-.3 1.23-.46 1.68-.15.61-.3 1.07-.45 1.68s-.3 1.37-.15 1.99zm.77-6.86c.3-.16.44-.16.6-.3.15-.16.15-.16.15-.32 0 0-.15-.15-.3-.15s-.3-.15-.6-.15c-.3.15-.46.3-.46.45-.15 0-.15.16-.15.31 0 0 0 .16.15.16h.6zm8.76-1.68c-.16-.16-.3-.46-.46-.77-.3-.15-.6-.46-1.06-.46-.6-.3-1.2 0-1.66.3.46.31.9.47 1.21.77l.3.3.3.62c.31.45.6.92 1.06 1.37.3.3.6.62.91 1.23.3-.61.3-1.38.15-1.84-.3-.61-.45-1.07-.75-1.52zm0 0"/><path d="m82.02 32.98c.9.61 1.95.91 3.01 1.07.76.3 1.66.46 2.42.61.6.77 1.36 1.53 1.81 2.29.6.76 1.06 1.68 1.36 2.75.15.91.3 1.98.45 3.05.16.6.3 1.22.3 1.68.16.46.16 1.07 0 1.53.46-.3.61-.92.76-1.53v-.15c.46.3.9.45 1.36.45.6.16 1.2.16 1.81.16l1.66-.46c.46-.3 1.06-.6 1.37-1.07-.61-.15-1.06-.15-1.67-.15-.6 0-1.05 0-1.5.15-.6 0-1.06.16-1.67.16-.3.15-.76.3-1.2.45v-1.22-.3c.44.15.9.3 1.35.3.46 0 1.06 0 1.51-.15.6-.15 1.06-.46 1.51-.76s.9-.77 1.06-1.38c-.6 0-1.06.15-1.5.31-.46 0-.92.15-1.37.3l-1.36.46c-.45.15-.76.3-1.2.46v-1.22h.9c.45 0 .9-.16 1.36-.3a2.1 2.1 0 0 0 1.06-.92c.3-.31.6-.76.6-1.23-.45 0-.9.16-1.2.3-.46.17-.76.31-1.22.47-.3.15-.6.3-1.06.6-.14 0-.3.16-.6.31 0-.3 0-.45-.15-.76v-.3c.15 0 .45-.15.75-.15.3-.16.6-.47 1.06-.77.3-.15.46-.61.76-.91.15-.31.45-.77.45-1.23-.45 0-.9.16-1.2.3-.46.31-.76.46-1.07.77-.3.16-.6.46-.75.76-.15.16-.3.3-.3.46-.3-.46-.45-.92-.9-1.37.3 0 .6-.16.9-.3.45-.16.75-.46 1.05-.77.46-.46.76-.77.91-1.22.3-.46.46-.92.46-1.38-.46.15-.91.3-1.37.62-.3.14-.75.45-1.05.76-.3.3-.6.76-.76 1.06-.15.3-.3.47-.45.77-.15 0-.15-.15-.3-.15-.15-.31-.46-.46-.6-.62h.3c.15 0 .3-.14.45-.3.15 0 .15-.15.3-.46.15-.15.45-.15.6-.3.61-.15 1.07-.62 1.37-1.07.3-.61.45-1.23.3-1.68-.3 1.07-1.21 1.52-1.97 1.68-.75.15-1.8-.16-2.72-.3-1.05-.16-2.11-.16-3.17-.16zm6.18 1.83h.76v.3c-.3-.15-.45-.3-.76-.3zm-3.17-16.95h-.15c-.45.46-1.06.92-1.2 1.53.6-.15 1.2-.3 1.66-.3.6-.16 1.05-.16 1.66-.3.45-.16 1.05-.31 1.66-.62.6-.3 1.2-.61 1.51-1.22l-1.81.15c.6-.3 1.05-.46 1.66-.92-.76-.14-1.36-.3-1.97-.3-.6 0-1.2 0-1.8.16-.62.14-1.22.3-1.67.76-.6.3-1.05.91-1.2 1.52.6-.15 1.05-.3 1.65-.46zm8.31-4.58c1.21-1.07 2.42-1.98 3.48-3.2a12.84 12.84 0 0 0 2.72-4.28c.3-.76.45-1.52.9-2.14.15-.3.45-.6.76-.76l-.91 1.83c.6-.6 1.36-1.37 1.96-2.13v-.16c.15-.15 0-.3-.15-.46h-.15a2 2 0 0 0 -1.36.16c-.45.15-.9.6-1.2.91-.62.77-.77 1.53-1.06 2.3-.76 1.22-1.51 2.6-2.57 3.66-1.06 1.22-2.12 2.3-3.17 3.51-1.06 1.22-2.12 2.6-2.42 4.28.9-1.38 1.96-2.44 3.17-3.52zm0 0"/><path d="m70.99 13.13c.3.46.45 1.07.75 1.68.3.46.6 1.23 1.2 1.68.31.3.61.61 1.07.76.3.16.6.16.9.3 1.21.31 2.42.62 3.63.77l-1.36-.91c.3 0 .6.15.91.15.45 0 .9 0 1.5-.15 0-.16-.14-.16-.14-.16.3-.15.6-.3.9-.3.3-.15.76-.15 1.06 0 .3 0 .6 0 .9.15.46.15.76.31 1.37.46 0-1.07-.91-2.14-2.12-2.3-.6 0-1.36.16-1.81.62-.3.16-.46.61-.6 1.07-.16-.3-.46-.46-.76-.61-.3-.3-.9-.46-1.36-.46a2.14 2.14 0 0 0 -1.36 0c-.46 0-.6.16-1.06.16-.15-.16-.45-.31-.6-.47-.3-.45-.6-.91-.9-1.52a6.3 6.3 0 0 0 -.91-1.68 4.36 4.36 0 0 0 -1.37-1.53c-.9-.91-1.95-1.52-3.01-2.29.6 1.22 1.5 2.14 2.26 3.06.3.6.6 1.07.9 1.52zm-8.92-11.15 1.06 1.07c.6.77 1.21 1.53 1.82 2.45.6.76 1.2 1.52 1.8 2.44 0-1.07-.3-2.14-.75-3.05a14.95 14.95 0 0 0 -1.66-2.6v-.29l-.15-.77c-.15-.3-.3-.6-.6-.92-.46-.3-.91-.45-1.52 0-.3.31-.3.77-.3 1.07.16.31.3.47.3.61zm.91-.76c-.15.16 0 0-.15 0zm8.46 47.79c0 .46.15.76.15 1.22l.9 1.84c.31.91.76 1.68 1.22 2.44-.6.15-1.06.45-1.66.92-.61.3-1.06.76-1.51 1.37a5.28 5.28 0 0 0 -1.06 1.83c-.3.61-.46 1.37-.3 2.14.44-.61.9-1.07 1.36-1.53l1.2-1.53c.3-.46.76-.91 1.2-1.52.31-.46.61-.92.92-1.53.3.3.45.77.75 1.07 0 0 0 .15.16.15-.61.3-1.22.61-1.66 1.07a4.75 4.75 0 0 0 -1.37 1.68c-.45.61-.6 1.22-.75 1.98-.3.77-.3 1.53-.16 2.14a6.7 6.7 0 0 0 1.22-1.68l1.06-1.68.9-1.68c.3-.6.6-1.07.9-1.67.15.45.61.76.9 1.07-.44.3-.9.9-1.35 1.37-.3.61-.6 1.37-.9 1.98-.16.77-.3 1.38-.3 2.14s.14 1.52.45 2.13c.3-.6.45-1.21.75-1.98.15-.6.45-1.22.6-1.83l.46-1.83c.15-.61.3-1.22.45-1.98.15.14.15.14.3.14.16.16.46.31.76.46-.46.46-.6.92-.9 1.53-.16.61-.46 1.22-.46 1.99-.15.61-.15 1.37-.15 2.13 0 .61.15 1.37.45 1.99.3-.62.46-1.22.76-1.99l.45-1.83c0-.76.15-1.37.15-2.14v-1.52c.3.15.6.15.9.3h.3c-.14.15-.14.15-.14.3a14.9 14.9 0 0 0 -.9 3.52v1.98c.14.62.14 1.23.44 2 .3-.62.6-1.24.76-1.84.15-.61.3-1.38.3-1.99.15-1.22.15-2.44-.15-3.82v-.15c1.2.3 2.41.3 3.63 0-.91-.15-1.66-.46-2.42-.6-.15-.46-.3-.77-.3-1.08v-1.37-1.37-.77h1.36c-.15.77-.15 1.53-.15 2.14.15.92.45 1.68.9 2.44 0-.92 0-1.68-.15-2.44 0-.76-.15-1.37-.3-2.14.45 0 .9-.15 1.36-.3-.6-.47-1.21-.61-1.81-.92-.76-.15-1.21-.3-1.82-.46-.6-.3-1.2-.46-1.81-.6a8.5 8.5 0 0 0 -1.96-.31c.15.3.45.6.75.91-.3.3-.45.77-.6 1.22-.15.61 0 1.37.3 1.99.3-.76.3-1.23.45-1.83 0-.3.16-.77.16-1.23.14.16.3.16.44.3.31.16.61.46 1.06.62-.45.61-.6 1.22-.6 1.99 0 .76.15 1.52.6 2.28-.45-.15-.75-.3-.9-.6-.46-.31-.76-.77-1.21-1.23-.76-1.06-1.66-2.13-2.42-3.36-.15-.15-.15-.3-.3-.45.15-.3.15-.46.3-.61 0-.16 0-.31.15-.46v-.16h-.15v-.15s.15 0 .15.15l.16-.15-.16-.15h-.15c-.3 0-.3.16-.45.16-.15.14-.15.3-.3.45v.15c-.15 0-.3-.15-.3-.3-.3-.61-.6-1.22-.46-1.84-.15.16-.45.62-.45.92zm6.65 5.35c0-.61.15-1.23.15-1.84.15.16.3.16.45.16.15.15.45.15.76.3a4.9 4.9 0 0 0 -.46 2.14c0 .45 0 .92.15 1.52.15.3.3.47.61.77a6.9 6.9 0 0 1 -1.06-.46c-.3 0-.45-.15-.6-.15zm-10.88-3.82c.75-.31 1.36-.61 2.12-.91.6-.47 1.2-.92 1.66-1.54a9 9 0 0 0 -2.11.3c-.77.16-1.52.47-2.12.62-.6.3-1.37.46-1.97.76s-1.35.62-1.96 1.07c.76.16 1.51.16 2.27.16.75-.16 1.5-.3 2.11-.46zm.9 2.29c.61-.31 1.22-.76 1.67-1.38.45-.45.9-1.06 1.2-1.83-.75.31-1.36.61-1.96.92-.6.3-1.2.76-1.66 1.07-.6.3-1.2.76-1.66 1.22-.6.3-1.06.76-1.66 1.37a8.7 8.7 0 0 0 2.12-.3c.75-.31 1.35-.62 1.95-1.07zm0 0"/><path d="m69.48 54.66c.45-.46.9-1.07 1.2-1.68.3-.46.6-1.22.6-1.83-.6.3-1.05.76-1.5 1.06-.45.47-1.06.92-1.36 1.38l-1.36 1.37c-.45.47-.9.92-1.2 1.53.75 0 1.35-.3 1.96-.61.6-.3 1.06-.76 1.66-1.22zm-.15.61c-.6.46-1.06 1.07-1.51 1.53a8.17 8.17 0 0 0 -1.06 1.99 8.4 8.4 0 0 0 1.96-1.08c.45-.3 1.06-.76 1.51-1.22.6-.45 1.06-1.06 1.51-1.53l.46-.9c.14-.31.14-.47.3-.62v-.16c.15-.15.15-.15.15-.3 0 0-.15-.15-.15 0l-.16.15h-.14l-.46.3c-.3.32-.6.46-.9.62-.61.46-1.06.76-1.51 1.22zm11.47 6.87c.16-.6 0-1.22 0-1.83s-.15-1.07-.45-1.68c-.3.46-.6 1.07-.76 1.68-.14.61-.3 1.06-.3 1.68v1.83l.46 1.83c.45-.6.6-1.22.75-1.68.15-.6.3-1.22.3-1.83zm1.97 1.83c.14-.6.14-1.37.14-1.98 0-.62-.14-1.22-.3-1.83-.3-.77-.6-1.23-.75-1.84-.45.61-.45 1.38-.45 1.99v1.68c0 .61 0 1.22.15 1.83 0 .61.15 1.22.3 1.83.45-.45.76-1.06.9-1.68zm.6-4.12v1.68c.16.61.16 1.07.3 1.68 0 .46.15 1.07.46 1.68.3-.46.6-1.07.75-1.68.15-.6.15-1.22 0-1.84 0-.6-.15-1.21-.45-1.67a2.6 2.6 0 0 0 -1.06-1.53zm9.53-9.01a4.4 4.4 0 0 0 -1.98 0c.46.46 1.06.77 1.51 1.23.46.3.9.6 1.36.76.6.3 1.06.6 1.66.76.46.16 1.06.46 1.66.46-.15-.61-.6-1.07-1.06-1.53-.44-.3-.9-.76-1.5-1.07-.45-.15-1.06-.45-1.66-.61zm3.76-.14c-.45-.47-1.05-.77-1.66-1.08-.6-.3-1.2-.46-1.81-.46-.6-.15-1.21-.15-1.96 0 .6.47 1.06.77 1.66 1.07.45.3.9.61 1.5.77.46.3 1.06.6 1.66.76.46.15 1.06.45 1.82.45-.3-.6-.76-1.06-1.2-1.52zm0 0"/><path d="m96.96 47.64c-.45-.3-1.05-.3-1.5-.46.45 0 .9 0 1.5-.15.46 0 1.06-.16 1.67-.62a3.9 3.9 0 0 0 -1.67-.45c-.6-.16-1.05-.3-1.66-.3-.45 0-1.05-.16-1.5 0-.61 0-1.21 0-1.82.14.45.47 1.06.77 1.51.92.3.16.46.3.76.3h-1.06c-.6 0-1.21 0-1.81.31v-.45c-.6.6-1.06 1.07-1.67 1.52l-1.8 1.07c-.61.46-1.22.76-1.82 1.22s-1.2.92-1.81 1.52h.3c.3.77.45 1.38.6 2.15.16.6.3 1.37.45 2.13.46-.76.46-1.53.31-2.44a3.06 3.06 0 0 0 -1.2-1.84c.6 0 1.2-.14 1.8-.3 0 .16.15.3.15.46.16.3.16.61.3.91.16.61.16 1.08.3 1.53-.3.46-.6.92-1.04 1.38a6.05 6.05 0 0 1 -2.28 1.52c.3.16.76.16 1.06.16v.15c0 .15 0 .15-.15.15h-.15l.15.15h.15c0 .92.16 1.84.3 2.75 0 .61.15 1.07.3 1.68.16.46.16 1.07.46 1.68.45-.6.6-1.22.6-1.68.16-.6.16-1.22 0-1.83 0-.92-.3-1.83-.9-2.6h.3c.16 0 .16-.15.16-.15h-.16c-.15 0-.15-.15-.46-.15-.15 0-.15-.15-.3-.3.46 0 .92-.16 1.21-.47l.46 1.38.45 1.53c.15.45.3 1.07.46 1.52.3.61.45 1.07.9 1.68.15-.61.3-1.22.3-1.83 0-.6 0-1.22-.3-1.83-.15-.61-.45-1.07-.76-1.68-.3-.3-.75-.61-1.2-.91h.15c.3-.31.6-.47.75-.62.16.46.45 1.07.6 1.53l.91 1.37.91 1.38c.3.46.75.91 1.2 1.37.16-.77 0-1.37-.14-1.98a7.06 7.06 0 0 0 -.76-1.53c-.3-.61-.6-1.07-1.06-1.38-.45-.45-.9-.76-1.5-.91l.6-.61c.3.46.75.76 1.06 1.22l1.2 1.07 1.06 1.07c.3.46.76.91 1.36 1.22-.15-.76-.15-1.22-.46-1.83a3.17 3.17 0 0 0 -.9-1.53c-.45-.46-1.06-.76-1.51-1.07-.6-.15-1.06-.3-1.66-.3.15-.31.45-.46.6-.77 0-.15.15-.3.3-.45.3.45.76.76 1.06 1.07.45.45.9.76 1.21 1.21l1.36.92c.6.46 1.06.61 1.36 1.07a1 1 0 0 0 0-.92 2.6 2.6 0 0 0 -.45-.91c-.3-.61-.76-1.07-1.2-1.37a3.62 3.62 0 0 0 -1.67-.92c-.46-.31-.91-.31-1.52-.31.16-.45.46-.92.61-1.22.45.3.75.61 1.2.91.46.47 1.07.77 1.52 1.07.6.31 1.06.47 1.66.77s1.2.46 1.81.6c-.3-.6-.6-1.21-1.2-1.67a9.2 9.2 0 0 0 -3.32-1.84c-.46-.14-.92-.14-1.52-.14 0-.16.16-.3.16-.61.3-.92.44-2 0-2.91.44-.6.75-1.21.75-1.83.45.3 1.05.62 1.66.76.6.3 1.2.46 1.8.62.77 0 1.37.15 1.98 0 .6 0 1.2 0 1.95-.31-.6-.3-1.2-.61-1.8-.76zm-6.33 1.68c-.16.45-.31.91-.61 1.37v-.15c0-.15-.15-.31-.45-.31l.14-.15c.3-.3.61-.45.92-.76zm-2.72 4.57c0 .16 0 .16-.16.3v-1.06c-.15-.3-.3-.61-.45-1.06-.15-.16-.3-.31-.45-.31.45-.15.75-.3 1.06-.46v.15l.3.76c.15.31.3.47.45.92-.3.15-.46.46-.75.76zm1.2-1.52c0-.16-.15-.3-.15-.46-.15-.3-.3-.6-.45-.76l-.15-.15c.15 0 .3-.16.45-.16l.3-.3c.15.15.15.3.3.46 0 .15.16.3.3.45l-.14.16c-.16.3-.3.6-.46.76zm-7.55-10.38c0 .76.15 1.68.75 2.29 0-.76.3-1.53.46-2.3.14-.75.14-1.67.14-2.43.16-.76 0-1.68 0-2.44-.14-.77-.3-1.54-.44-2.45-.45.77-.6 1.68-.76 2.45-.15.76-.3 1.52-.3 2.44 0 .76 0 1.52.15 2.44zm19.18-23.06c-.3.3-.45.77-.45 1.07-.3 0-.6 0-.75.16-.31.15-.61.3-.77.45-.14.46-.3.77-.44 1.23-.16.76.15 1.52.6 1.98.15-.6.3-1.22.6-1.68.15-.15.3-.46.46-.6v.59l.15.46v1.22h-.46c-.45 0-.75.15-.9.3l-1.36.92c-.6.76-1.2 1.53-1.66 2.44-.15.47-.3.77-.46 1.07.15-.15.15-.3.15-.46 0-.45.16-.91.16-1.37 0-.3 0-.76-.16-1.22 0-.6-.3-1.07-.75-1.38-.45-.3-1.06-.45-1.36-.15.45 0 .76.3.9.62a1 1 0 0 1 0 .91c0 .3 0 .77-.14 1.07l-.15 1.22a8.8 8.8 0 0 1 -.61 2.14c-.3.6-.6 1.37-1.36 1.83.91.15 1.81-.46 2.41-1.22.3-.31.61-.77.76-1.22-.3.91-.45 1.68-.45 2.59 0 .46 0 .92-.15 1.22l.45-.92.45.31.9.61c.31-.45 0-1.06-.44-1.22-.15-.15-.46-.3-.76-.15.15-.61.46-1.07.6-1.53.3.3.6.46.91.61.3.3.61.46 1.06.77 0-.61-.3-1.07-.6-1.38-.46-.15-.9-.3-1.21-.3.14-.46.45-.92.75-1.53.3.3.76.46 1.06.61s.45.15.76.3l.14.16c0 .3-.14.46-.14.6-.46.93-.76 1.69-1.21 2.45a5.98 5.98 0 0 1 -2.27 1.54c1.05.15 1.96-.46 2.72-1.07a8.76 8.76 0 0 0 1.82-2.29c.45-.92.75-1.83 1.05-2.74.15-.47.3-.92.46-1.54v-.76-.92c-.16-.14-.3-.45-.46-.6.3-.46.6-.92.75-1.53v-.46c.15-.15.15-.3 0-.6 0-.16 0-.47-.14-.77 0 0-.15-.16-.15-.3.44 0 .75-.16 1.05-.16.45 0 .9-.15 1.36-.46.3-.15.45-.3.75-.46.16-.15.46-.46.46-.77.15-.14.15-.45.3-.6 0-.16.15-.46.3-.61-.3-.16-.6 0-.9.15-.16 0-.16 0-.3.15.14-.3.3-.6.14-.91-.44.3-.75.3-1.2.45-.46.16-.76.3-1.21.61-.3.31-.75.62-1.06 1.07zm.15 1.23s0 .15-.15.15c0-.15 0-.15.15-.15zm-1.5 5.34h.15v.77c0 .14 0 .3-.16.45l-.15-.15c-.3-.16-.6-.16-1.06-.16.16-.14.16-.14.3-.3.3-.15.6-.46.91-.6zm-.62 3.36c-.14-.15-.44-.46-.75-.61-.3-.16-.75-.16-1.2-.16.3-.45.6-.91 1.05-1.37.3.16.6.3.9.61.16 0 .3 0 .46.15zm-42.43-9.62s0 .15.15.15v.3c.15.62.76 1.23 1.2 1.53.31.16.76.16.91.16.3 0 .45 0 .6.15-.15.15-.3.46-.3.46v.76c0 .3 0 .77.3 1.07.16.3.31.46.6.61-.14.3-.29.6-.44 1.07a3.8 3.8 0 0 0 0 1.83c.15 1.22.75 2.14 1.2 3.06.61 1.06 1.21 1.98 1.97 2.74a6.33 6.33 0 0 0 2.72 1.68c-1.81-1.22-2.72-3.05-3.63-4.88-.15-.3-.3-.77-.45-1.07.6-.46 1.06-.77 1.5-1.07.31-.15.62-.46 1.06-.61.16.3.3.6.46 1.07-.46-.16-1.06.15-1.36.6-.3.47-.45 1.08-.15 1.54.3-.46.6-.77.76-1.07.3-.46.45-.61.75-1.07l.15.15c.15.76.45 1.37.76 2.14-.6-.15-1.06 0-1.51.46-.3.3-.61.91-.46 1.37.46-.3.76-.61 1.06-.92.3-.3.6-.45.9-.91.46 1.07.76 2.14 1.21 3.05 0 .16-.14.16-.14.16-.3.3-.6.6-.77 1.06v.62c.16.3.3.45.46.45.15-.3.45-.45.6-.45.16-.16.3-.31.6-.31l.46-.46.45-.46c.15.46.31.76.61 1.07.15.3.45.6.76.92.15.3.45.6.9.76.3.16.6.46 1.06.46v.15c-.15.3-.3.46-.46.76-.15-.3-.44-.6-.75-.91-.45-.3-.75-.46-1.2-.77-.46-.15-.92-.45-1.37-.45-.6-.15-1.2-.31-1.66.15.45.3.76.6 1.06.91.45.3.76.62 1.2.77.46.15.91.46 1.37.46.45.15.75.15 1.2.15-.14.6-.3 1.07-.3 1.53-.3-.3-.75-.61-1.2-.77-.3-.15-.76-.3-1.22-.46h-1.35c-.45 0-.91 0-1.36.3.3.47.75.62 1.2.93.3.15.76.3 1.22.3a4.2 4.2 0 0 0 2.72-.15c0 .3-.16.6-.16.92-.15-.16-.45-.16-.75-.31-.46-.15-.91-.15-1.37-.3h-1.5c-.45 0-.91 0-1.51.15.3.46.75.76 1.2.91.6.3 1.06.46 1.52.46.6.15 1.06.15 1.66 0 .14 0 .45-.15.75-.15v1.37a5.48 5.48 0 0 0 -1.5-.3c-.62-.15-1.06-.15-1.67-.15h-1.67c-.6 0-1.05 0-1.8.14.45.47 1.05.77 1.66.92.6.3 1.05.46 1.66.46.6 0 1.2 0 1.81-.15.6-.16 1.06-.46 1.51-.76.16.15.16.3.16.45v.62c-.46.14-.91.14-1.37.14l-1.96.3c-.6 0-1.36.17-2.11.32-.6 0-1.36.15-1.97.6.6.32 1.36.46 2.12.46.6.16 1.35.16 2.11.16.75-.16 1.51-.3 2.12-.61.45-.16.9-.46 1.2-.76l.46.9s0 .17.15.31c-.75 0-1.36 0-1.97.16-.75.15-1.5.3-2.11.46l-1.96.6c-.76.16-1.37.32-2.27.46a4.2 4.2 0 0 0 2.27.62c.75.15 1.5 0 2.26-.16a8.89 8.89 0 0 0 2.12-.76c.6-.46 1.2-.76 1.66-1.22l.9 1.38c.46.6 1.07 1.06 1.82 1.06-.6-.3-.91-.92-1.21-1.53-.15-.45-.45-1.21-.6-1.83a7.52 7.52 0 0 1 -.3-1.83v-1.98c0-1.38.14-2.6.6-3.82.3-1.07 1.05-2.14 1.8-3.36.46.15.91.15 1.52.15 1.06 0 2.11-.3 3.02-.3.45-.15 1.06-.15 1.66-.31.6-.3 1.2-.76 1.2-1.22-.3.3-.9.46-1.35.46s-.9-.16-1.5-.16c-1.07-.15-2.13 0-3.18 0-1.06 0-1.97 0-2.87-.3-.45-.15-.9-.3-1.36-.6h.45c.46.14 1.06.14 1.51 0 1.81-.93 2.12-3.22 1.21-4.43.3 1.52-.6 3.05-1.66 3.2-.46.15-.9 0-1.51-.46-.46-.3-.9-.92-1.2-1.53a5.42 5.42 0 0 1 -.61-3.81 4.1 4.1 0 0 1 .9-1.83c.16-.3.3-.61.6-.92.16-.16.16-.3.3-.3.16 0 .46.14.46.3v-.16c.46-.45.76-.76 1.2-1.22.31-.3.61-.76.92-1.06.3-.3.6-.62 1.05-.77.3-.3.76-.46 1.36-.6-.45-.47-1.2-.62-1.8-.62a3.49 3.49 0 0 0 -2.58 2.44c-.15.61-.3 1.07-.15 1.68-.15 0-.3-.15-.3-.15-.3-.15-.6 0-.76.15-.3.15-.6.46-.9.62a6.11 6.11 0 0 0 -1.05 7.02c.44.76 1.05 1.37 1.66 1.98.15.3.3.61.44 1.07.16.15.3.3.46.3-.15 0-.46-.15-.6-.3-.46-.15-.91-.3-1.36-.15.15.45.45.76.6 1.22l.9.91c.3.16.6.47.91.61.3.16.46.3.76.3-.45.47-.76.93-1.06 1.38-.15-.45-.15-.76-.3-1.06-.3-.46-.46-.76-.75-1.07-.3-.3-.77-.61-1.06-.76-.45-.16-.76-.3-1.22-.3l.16-.17c-.3-.3-.76-.45-1.06-.45s-.45 0-.76.15a34.6 34.6 0 0 0 -1.06-5.5 7.32 7.32 0 0 0 -1.35-3.2c-.3-.46-.6-.92-1.2-1.22a1.7 1.7 0 0 0 -1.22-.46c-.45 0-.9.3-1.2.46 0 .15 0 .15-.16.3v-.45c.15-.3.15-.61.15-.92v-.3c0-.16-.15.14-.3.14-.3-.15 0-.15.15-.15s.46 0 .6-.15c-.14-.15-.14-.3-.3-.6-.15 0-.15-.32-.75-.32-.15 0-.3 0-.45.16v-.31c-.15-.15-.3-.15-.45-.3-.16-.16-.3-.3-.46-.61.15.15.46.15.6.3a5.55 5.55 0 0 0 -.75-1.68s-.15-.16-.15-.3l-.15-.16c.15-.15.3-.3.45-.3s.15-.16.15-.16v-.15c-.15-.15-.15-.3-.3-.6-.3-.31-.45-.16-.76-.16-.15.15-.3.3-.3.46-.15.15-.15.45 0 .6h-.3v-.15c-.15 0-.15-.15-.3-.15s-.3 0-.3.15c-.15.16-.3.31-.3.62.15.3.15.45.3.61v.15zm15.86 14.81c.6.3 1.05.46 1.66.61h.14c-.3.3-.76.61-1.06.91 0-.3-.15-.6-.3-.76-.15-.3-.45-.61-.6-.92 0 .16.15.16.15.16zm-9.97-6.87c-.6.3-.91.91-1.06 1.53-.15-.31-.3-.76-.3-1.23.3-.3.6-.6 1.06-.91.3-.3.6-.46.9-.77h.15c.15.3.46.61.6.92-.45 0-1.05.16-1.35.46zm-1.36-1.38c.15-.3.3-.76.6-.9.16-.17.16-.17.6 0 .16.14.3.3.46.45-.46.15-.76.3-1.21.6-.15.32-.45.46-.6.77 0-.3 0-.61.15-.92zm-3.62-6.26-.16-.15zm-1.22 33.74h.76c.3-.15.6-.3.75-.76-.3-.15-.45-.3-.6-.45-.15-.16-.3-.16-.45-.31h-1.36c0 .45 0 .76.15 1.07.15.15.45.3.75.45zm5.74 1.38c-.15 0-.45.15-.75.3 0 .31.15.61.3.77.15.15.3.3.45.3h.6c.3-.15.46-.3.61-.76l-.45-.46c-.15-.15-.3-.3-.46-.3 0 0-.14 0-.3.15zm-3.77 5.8c-.15.15-.3.31-.46.31h-.3s-.15 0-.15-.16c-.15.16 0 .31 0 .46.16 0 .3.16.45.16h.76c.45 0 .9 0 1.36-.16.9-.3 1.66-.91 2.27-1.37.75-.61 1.36-1.07 1.96-1.68s1.2-1.22 1.8-1.98c-.44.15-.74.3-1.05.3v-.15c0-.31-.15-.46-.15-.62v-.14c-.15 0-.15 0-.15.14-.15 0-.3.16-.45.47-.16.3-.16.45-.16.6h.16c-.3.16-.45.3-.76.3-.75.47-1.5.93-2.11 1.54-.6.45-1.36 1.07-1.97 1.37-.3.31-.6.46-1.05.61zm-6.5 2.9c-.6 0-1.35 0-2.11-.15.45.61 1.2 1.07 1.96 1.38a4.4 4.4 0 0 0 2.42-.16 4.2 4.2 0 0 0 2.11-1.22c.46-.6.91-1.37.91-2.14-.6.46-1.2.92-1.66 1.22a8.7 8.7 0 0 1 -3.63 1.07zm-2.57-.31c-2.1 1.68-4.53 1.84-7.1 2-1.2.15-2.56.15-3.77.3-.76 0-1.36.15-1.96.3-.6 0-1.2.15-1.97 0 .6.46 1.21.62 1.97.76a9 9 0 0 1 1.96.16c1.21 0 2.57.15 3.93 0 1.36 0 2.72-.3 3.92-.77a5.93 5.93 0 0 0 3.02-2.75zm-20.99-.6c-.6-.46-1.2-.92-1.51-1.68-.3-.61-.45-1.53 0-2.45-.45.3-.75.61-1.06 1.23-.15.45-.15 1.06-.15 1.52a5.23 5.23 0 0 0 1.81 2.75c.91.46 1.82.91 2.72 1.22.91.3 1.82.46 2.88.3l-2.42-1.37c-.76-.45-1.51-.92-2.27-1.52zm-1.96-4.74c-.76.16-1.51.3-2.11.61-.61.16-1.22.3-1.82.3s-1.2-.14-1.96-.3c-.6-.15-1.36-.3-2.12-.45a5.88 5.88 0 0 0 1.67 1.68c.75.3 1.5.61 2.41.61.9 0 1.66-.3 2.26-.77a5.76 5.76 0 0 0 1.67-1.68zm-17.07-7.01a10.1 10.1 0 0 1 -1.81-2.6c-.6-1.07-1.06-2.14-1.51-3.2l-.46-1.38a4.68 4.68 0 0 1 .91-2.9c.3-.46.46-1.07.75-1.53a5.96 5.96 0 0 1 2.57-2.14c-.6 0-1.2.3-1.66.6-.6.32-1.06.62-1.35 1.08-.46.46-.76.92-1.22 1.37-.3.46-.6 1.07-.9 1.68-.3.46-.45 1.23-.45 1.99.15.6.3 1.22.6 1.83.3 1.07.75 2.14 1.36 3.2.6 1.07 1.36 2.14 2.27 3.06.9.76 1.8 1.52 2.87 1.99 2.11 1.06 4.07 2.13 6.19 3.05-1.82-1.37-3.62-2.75-5.59-4.12-.91-.61-1.81-1.23-2.57-1.99zm0 0"/><path d="m24.47 36.19 7.55 1.52c-.3 0-.6 0-.9-.15 1.95.76 3.77 1.53 5.73 2.14.16.76.6 1.53 1.06 2.14l.45.45c.15.16.15.46.3.62l.16.14c.14.16.3.3.3.3.3.32.45.32.6.47.45.3.9.46 1.21.61.46.16.75.16 1.21.3.75.3 1.66.47 2.41.47-.6-.61-1.2-1.08-1.96-1.53-.3-.15-.6-.46-1.05-.62l-1.06-.6c-.15 0-.3-.16-.3-.16-.16-.15-.16-.15-.3-.15 0 0 0-.15-.15-.3-.16-.16-.16-.3-.46-.47-.15-.14-.3-.14-.45-.3l-1.82-1.37c.75.3 1.5.46 2.26.76 2.72.77 5.59 1.53 8.3 2.29l1.82.46v.15c0 .16.15.3.3.46.15.15.3.3.76.3.14-.3.3-.45.45-.6 1.66.45 3.32.76 5.13 1.07 2.88.45 5.74.6 8.61 0a53.84 53.84 0 0 1 -8.45-1.23l-2.27-.45c1.2.14 2.42.45 3.47.6 2.27.31 4.54.46 6.8.31-4.53-.3-8.76-1.53-13.14-2.9l-1.36-.46c.15-.3.15-.76 0-1.22a2.06 2.06 0 0 0 -1.06-1.22 1.9 1.9 0 0 0 -1.8.15c-.46.15-.76.76-.76 1.22-.46-.15-.91-.3-1.52-.46-2.1-.61-4.38-1.06-6.49-1.52-4.53-.92-8.91-1.68-13.44-2.3-2.26-.45-4.53-.6-6.8-.45-2.41.3-4.53.91-6.64 1.83 2.27-.45 4.37-1.06 6.64-1.06s4.38.3 6.65.76zm22.8 3.05c.3 0 .46.15.76.15.15.16.45.3.76.46 0 .15.14.3.3.46l-2.72-.92c.3-.15.6-.15.9-.15zm0 0"/><path d="m15.1 40.3c2.11 0 4.08-.14 5.9-.14 1.96 0 3.93.3 5.88.45h3.03c.45-.15 1.05-.15 1.5-.45.6-.3.76-1.07.46-1.53.15.46-.3.92-.6 1.07-.46.15-.91.15-1.36.15-.91-.15-1.97-.3-2.88-.46-1.96-.3-3.92-.76-6.04-.76-1.96 0-3.92.3-5.88.6-1.97.16-3.93.47-5.9.32 1.81.76 3.93.91 5.9.76zm44.41 6.42c1.2-.15 2.42-.3 3.47-.76-1.05-.3-2.26-.46-3.47-.46-1.06-.15-2.26-.15-3.48-.15-1.06 0-2.26.15-3.47.3-1.2.15-2.26.46-3.32.92 1.06.15 2.26.15 3.47.3h1.06v.77l.3.3c.15 0 .3.15.6.31.3-.16.46-.46.61-.61 0-.3 0-.46-.15-.77h.9c1.22 0 2.42 0 3.48-.15zm0 0"/><path d="m59.05 48.55c-.3.16-.45.3-.6.46.15.46.3.62.3.76l.3.3h.46c.15 0 .3 0 .75-.14.15-.3 0-.61 0-.77-.15-.3-.3-.45-.45-.6h-.6.3l1.36-.47c.3-.14.76-.45 1.2-.76a2.89 2.89 0 0 0 -1.5-.45c-.46 0-.91 0-1.36.15-.46 0-.91.15-1.36.45-.46.16-.9.47-1.21.92.45.15.9.3 1.36.3.45 0 .75-.15 1.05-.15zm-37.75 2.29-.6.61c-.31.3-.61.76-1.06 1.07-.6.76-1.37 1.53-2.12 2.3a9.81 9.81 0 0 0 2.87-1.38l1.36-.92c.15-.15.3-.45.6-.61l.3-.3c0-.16.16-.16.3-.3 0-.16.16-.31.16-.47.76.3 1.5.46 2.26.46.91.15 1.82.15 2.72.15.91-.15 1.82-.3 2.72-.61.76-.3 1.51-.61 2.26-1.07v.77c.16.6.3 1.07.61 1.67l.76.77s.15 0 .15.15c-.9.3-1.81.76-2.72 1.38a14.75 14.75 0 0 0 -2.72 2.6c2.12-1.38 4.23-2.91 6.5-3.06.6 0 1.2 0 1.96-.16.6 0 1.2 0 1.96-.14 1.2-.16 2.27-.47 3.48-.77-.76.3-1.51.77-2.12 1.22-.76.61-1.36 1.23-1.97 1.84-.45.6-.9 1.37-1.2 2.13h-1.06c-1.2.3-2.57.76-3.77 1.22-1.21.46-2.42 1.22-3.33 1.98 1.2-.3 2.42-.6 3.78-.9 1.2-.16 2.41-.47 3.63-.77 1.2-.15 2.56-.3 3.77-.61.9-.3 1.96-.46 2.87-.77a8.2 8.2 0 0 0 -1.06 1.38c-.6 1.22-1.2 2.29-1.96 3.35 1.2-.6 1.96-1.67 2.87-2.59.3-.6.75-.91 1.2-1.37.46-.3.9-.61 1.51-.92 1.06-.6 2.27-.92 3.48-1.37l3.18-1.37c.3.45.6.9.75 1.37-.75.45-1.51 1.22-2.12 1.83-.6.76-1.2 1.53-1.66 2.44.91-.46 1.66-.91 2.57-1.52l2.27-1.68c.75-.46 1.5-.92 2.26-1.53.9-.61 1.66-1.22 2.11-2.14-.9.46-1.66.76-2.56 1.07-.9.3-1.81.77-2.72 1.37 0-.6-.15-1.21-.3-1.83 0-.15-.3-.3-.45-.3-1.37.3-2.57.6-3.78.92-1.37.3-2.57.76-3.78 1.37-.45.3-1.06.76-1.51 1.07h-3.32c-.76 0-1.67.15-2.42.15.6-.3 1.06-.77 1.52-1.07l2.1-1.52 2.12-1.54c.45-.3.9-.76 1.36-1.06a2.56 2.56 0 0 1 1.51 0c1.21 0 2.57 0 3.93-.46.6-.16 1.2-.46 1.8-.61.47-.15 1.07-.3 1.67-.46 1.21-.15 2.57-.15 3.78-.76-1.2.3-2.41.15-3.78 0-.3 0-.75 0-1.2.15.45-.3.6-.61.75-1.06-.6.14-.9.14-1.21 0l-.9-.47c-.46-.15-.61-.3-.91-.45-.3-.16-.6-.31-.76-.92a.85.85 0 0 0 -.45.76c0 .3 0 .61.15.92.3.46.76.92 1.2 1.07.31.15.61.3.76.3-.45.16-.75.3-1.2.3-.91.16-1.66.31-2.72.16.3-.76.3-1.37.15-2.14a5.15 5.15 0 0 0 -.9-2.28c0 .76 0 1.52.14 2.44.15.61.3 1.37.46 1.98h-.76a11.43 11.43 0 0 0 -3.93.15l-3.62.92c-.6.15-1.2.15-1.82.3-.6 0-1.2 0-1.95.16-.16 0-.3.15-.46.15 0-.15 0-.46-.15-.46v-.76c0-.46-.16-1.07-.3-1.53 0-.6-.15-1.07-.3-1.52v-.76c-.16-.16-.16-.16-.16-.31v-.16c1.51-.3 2.72-.45 3.93-.45 1.36-.16 2.72 0 4.08 0s2.72 0 4.07-.62c-1.35-.14-2.71-.3-4.07-.6-1.2-.16-2.57-.46-4.08-.3-1.36 0-2.87.3-4.08.76-.6.14-1.2.3-1.5 0-.46-.31-.61-.92-.61-1.54.15 0 .45-.14.6-.14.46-.31 1.06-.62 1.21-1.23s.15-1.07 0-1.52a3.23 3.23 0 0 0 -2.11-1.68 3.1 3.1 0 0 1 1.36 1.83c0 .46 0 .76-.15.92-.16.3-.3.45-.6.45-.46.16-.77.16-1.22.16-.3 0-.75-.16-1.21-.16-.75 0-1.66-.15-2.41-.15-.91 0-1.81 0-2.72.15-.9.16-1.66.3-2.57.61-1.5.62-3.02 1.38-4.68 1.68.6.15 1.2.15 1.81.15a3.87 3.87 0 0 0 .91 3.06c.3.46.6.91 1.06 1.37.15 0 .15.16.3.16 0 .15 0 .15.14.15h-.14zm-.31-2.75a6.83 6.83 0 0 1 -1.81-2.29c1.2-.15 2.27-.45 3.18-.6 1.66-.3 3.17-.61 4.83-.47l2.56.16c.46 0 .91 0 1.36-.16h.6c0 .3-.14.62-.14.92s.15.76.3 1.07c.3.46.75.61 1.2.76h.76c-.15 0-.3.16-.3.3l-.46.93v.91h-2.56l-2.57.31-2.57.3c-.75 0-1.5.16-2.26.3v-.3c0-.3-.3-.6-.46-.6-.15-.16-.15-.31-.3-.31l-.3-.3c-.46-.31-.75-.62-1.06-.93zm0 0"/><path d="m58 54.36c.9-.16 1.66-.47 2.41-.61.91-.16 1.66-.31 2.57-.77a3.7 3.7 0 0 0 1.66-.91c.46.14.91.14 1.36 0 .45 0 .76-.31 1.06-.77-.45-.15-.9 0-1.36.15-.15 0-.45.16-.75.3.15-.14.15-.3.3-.3l-2.57.46c-.45 0-.9 0-1.36.16 0 0 .15 0 .15-.16.16 0 .16-.15.46-.46 0-.3.14-.45.14-.61l-.14-.15h-.16l-.45.46c-.15.3-.15.46-.15.6v.32c-.3 0-.6.14-1.06.14-.9.16-1.66.62-2.42.92l-2.4 1.23c.9.3 1.96.15 2.71 0zm46.52 6.56c-1.06-1.07-1.97-2.13-3.03-3.2a15.86 15.86 0 0 0 -3.47-2.9c.91 1.22 1.66 2.43 2.57 3.66a15.4 15.4 0 0 0 2.87 3.5 9.84 9.84 0 0 0 8.45 3.06c-1.5-.45-2.86-.92-4.07-1.68a13.54 13.54 0 0 1 -3.32-2.44zm30.96 1.53c-.45-.61-1.05-1.08-1.5-1.68l-1.52-1.53c-1.06-.92-2.12-1.99-3.32-2.9.9 1.22 1.8 2.29 2.72 3.51l1.35 1.68c.45.46.91 1.07 1.36 1.52.3.62.3.92 0 1.38-.3.61-.6.92-1.2 1.07-.61.3-1.37.3-1.97.46l-2.11.45c-2.72.47-5.6.92-8.31.77-2.87 0-5.59-.61-8.3-1.83 2.26 1.83 5.28 2.74 8.15 3.05 2.87.3 5.88 0 8.76-.45.6-.16 1.36-.3 2.12-.47.6-.15 1.35-.3 2.1-.6a3.8 3.8 0 0 0 1.97-1.84c.15-.3.3-.92.3-1.37-.15-.46-.3-.92-.6-1.22zm0 0"/><path d="m138.5 59.85c-1.36 0-2.72-.15-4.07-.6-1.37-.46-2.57-1.38-3.94-2.14a10.13 10.13 0 0 0 3.48 3.2 9.6 9.6 0 0 0 4.68 1.06 11.2 11.2 0 0 0 4.38-1.37 13.28 13.28 0 0 0 3.63-2.9l-4.09 1.83c-1.35.46-2.71.77-4.07.92zm10.57-5.49c-.15 0-.3 0-.45.15 0 .15-.15.15-.15.45-.15.16-.15.31-.15.61.45.3.6.3.75.3.16 0 .3 0 .45-.14.16 0 .3-.16.3-.3v-.77c-.3-.15-.44-.3-.75-.3zm8.46-9.63a7.22 7.22 0 0 0 -3.02-4.27 5.14 5.14 0 0 0 -2.27-1.07c-.9-.3-1.66-.46-2.26-1.07.45.77 1.2 1.38 1.97 1.68.75.46 1.35.77 1.8 1.38 1.21.91 1.96 2.29 2.27 3.82a7 7 0 0 1 -.45 4.27c-.46 1.37-1.66 2.6-2.72 3.81.76-.3 1.36-.76 2.11-1.21.6-.62 1.2-1.23 1.66-2 .91-1.52 1.21-3.5.91-5.34zm-57.85-.91c2.12.3 4.23.3 6.35.3 1.96 0 4.08-.15 6.19-.45 4.23-.46 8.3-1.53 12.39-2.44l1.96-.62-.46.92c-.15.46-.45.61-.6.92-.46.6-1.2.9-1.96 1.22-.6.3-1.51.6-2.26 1.06-.46.3-.92.62-1.22.92l-.45.46c0 .16-.15.3-.15.3-.15.16-.15.3 0 .47 0-.16 0-.16.15-.31 0 0 .15 0 .3-.16.15 0 .3-.14.6-.14.31-.16.77-.31 1.21-.31.76-.3 1.66-.46 2.57-.92a4.1 4.1 0 0 0 2.12-1.83c.3-.46.45-1.07.45-1.53 0-.45-.16-.76 0-1.07l3.78-1.06c1.96-.62 3.92-1.07 5.89-1.53 1.96-.3 4.08-.3 6.19-.3a9.77 9.77 0 0 1 3.02 0c1.05.15 2.11.45 2.87 1.07a5.96 5.96 0 0 0 -2.72-1.54c-1.05-.14-2.11-.3-3.17-.3-2.11-.15-4.23-.3-6.35 0-2.11.16-4.23.76-6.18 1.22l-6.05 1.53c-1.96.46-4.08 1.07-6.04 1.53l-4.08.91c0-.15.16-.15.16-.3 0 0 .15 0 .15-.16 0 0 .14-.15 0-.3 0-.15 0-.31-.15-.46-.16-.15-.3-.3-.61-.3-.3 0-.6 0-.76.3.15.3.15.61.15.61v.3c.16 0 .16 0 .16.16.15 0 .3.15.3.15-.46.15-.9.3-1.36.3a83.87 83.87 0 0 1 -12.39 1.38zm0 0"/><path d="m126.57 62.9c.3 0 .6.15.9.15.6 0 1.21.16 1.82.16-.46-.3-1.06-.6-1.52-.92a2.82 2.82 0 0 1 -1.35-.76c-.91-.76-1.81-1.68-2.72-2.29-.91-.76-1.81-1.53-2.87-2.13-.6-.31-1.21-.77-1.81-1.07h.6c2.42.3 4.83 0 7.25.45-2.26-1.06-4.83-1.22-7.1-1.68-.6 0-1.2-.15-1.81-.3-.45-.15-1.05-.46-1.66-.62-1.06-.3-2.27-.76-3.48-1.06-1.35-.46-2.71-.76-4.07-1.07.45-.15.75-.46 1.05-.92.3 0 .76 0 1.06-.15s.76-.46 1.05-.61c.3-.3.61-.61.77-.92.3-.3.45-.6.6-.91h14.8a31.48 31.48 0 0 0 -6.65-1.22c-2.11-.31-4.38-.31-6.64-.31h-6.65c-2.27-.15-4.37-.3-6.65-.76a19.02 19.02 0 0 0 6.5 1.99c1.51.14 3.17.3 4.69.3-.16 0-.3.15-.46.15-.45.15-.75.3-1.06.46-.3.15-.6.3-.9.3-.15.16-.46.16-.61.16h-.45c-.15.15-.45.3-.45.61 0 .46 0 1.07-.16 1.83a40.38 40.38 0 0 0 -10.27-1.22l7.1 1.83c2.27.61 4.69 1.22 6.95 1.83 1.2.46 2.26.76 3.48 1.07.6.16 1.2.46 1.8.6h.46c.6.77 1.36 1.54 1.96 2.15.6.6 1.36 1.22 1.97 1.68l-3.18-.91a29.4 29.4 0 0 0 -6.34-1.54c-1.05-.3-1.96-.45-3.02-.76-.9-.45-1.96-.92-2.87-1.22-2.11-.76-4.08-1.52-6.2-2.14 1.82 1.07 3.78 2.14 5.6 3.2.9.47 1.81.92 2.87 1.38-.15 0-.15.16-.15.16-.16.15-.3.3-.3.45 0 .16 0 .3.14.47.16.14.3.3.6.45.31-.15.46-.15.61-.3.16-.15.16-.31.16-.46v-.3c.75.14 1.5.45 2.26.6 2.26.31 4.23.77 6.35 1.07 1.5.31 3.01.61 4.68.92.75.6 1.5 1.07 2.41 1.68.3.15.61.3.9.46zm-13.29 1.83c0-.76-.15-1.52-.6-2.28-.3-.61-.91-1.22-1.37-1.68-.6-.46-1.2-.92-1.66-1.22-.75-.3-1.36-.62-2.11-.92.45.76.75 1.37 1.21 1.83.45.61 1.05 1.07 1.5 1.53.6.46 1.06.76 1.52 1.22l1.5 1.52zm0 0"/><path d="m119.02 60.92c-.3-.46-.76-.76-1.21-1.07 0 .61 0 1.07.15 1.68.15.46.3.92.6 1.38.15.61.46 1.06.9 1.37.61.45 1.22.76 1.83.45-.46-.3-.61-.76-.76-1.21-.3-.3-.46-.77-.6-1.23zm-6.34-16.95c.14 0 .14 0 0 0h-.3c-.47 0-.91.15-1.22.46-.15 0-.15.16-.3.16l-.3.3c0 .15-.15.3-.15.46 0 .15.15.3.15.3.15-.15.3-.15.45-.15h1.66c.15 0 .3 0 .6-.15.16 0 .46-.31.46-.46.15-.16.15-.3.15-.3 0-.31 0-.62.15-1.07-.45-.16-.9 0-1.35.45 0 .15 0 .15-.16.15 0 0 .16 0 .16-.15zm-8.62 5.96.46-.46c.15-.31.3-.46.45-.76-.15-.31-.6-.46-.9-.46s-.76.15-.91.46c-.3.15-.6.45-.6.76-.16.3-.16.76.15 1.07.3-.15.6-.31.75-.31.3-.15.45-.3.6-.3zm13.9.61c-1.21-.15-2.42-.31-3.62-.31 1.05.61 2.26 1.07 3.32 1.38 1.2.46 2.26.76 3.47 1.07 1.2.15 2.26.3 3.32.76 1.21.3 2.26.76 3.48 1.07a10.95 10.95 0 0 0 -3.02-2.14c-.46-.46-1.06-.61-1.66-.76-.6-.3-1.21-.3-1.82-.46-1.06-.31-2.26-.46-3.47-.61zm13.74-4.89c-.45.76-.9 1.53-1.36 1.99-.6.61-1.2.91-1.8 1.37-.16 0-.46.15-.77.46-.14.16-.3.6-.14.92 0 .3.14.45.14.45l.46.92v.15c-.15 0-.3.16-.46.3-.3.47-.45.92-.6 1.38.45-.3.76-.6 1.06-.76.15 0 .3 0 .45-.15.15 0 .46-.16.6-.3.15-.31.15-.62.15-.77 0-.46-.14-.77-.3-1.22h.16a6.13 6.13 0 0 0 1.96-2c.46-.91.6-1.82.46-2.74zm-3.47 6.1v.02c.15 0 .15 0 0 0zm17.07-2.12c-.45-.16-.9-.47-1.36-.77-.6-.3-1.21-.61-1.81-1.07-.46-.15-.76-.31-1.06-.61a21.97 21.97 0 0 0 -3.32-1.22c-1.06-.3-2.12-.46-3.32-.46 1.05.6 1.95 1.07 3.01 1.68 1.06.46 1.97.91 2.87 1.37.3.16.46.3.6.46-.14.3-.45.62-.6.92-.3.3-.45.76-.75 1.22-.15.15-.15.46-.3.76 0-.15-.15-.15-.15-.15-.3-.15-.61-.15-.76-.15-.15-.16-.3-.16-.45-.16h-1.06c-.6.16-1.2.16-1.81.16-1.21.15-2.42.3-3.63.76 1.2.3 2.42.3 3.63.46.6.15 1.2.15 1.81.15h.9c.3 0 .61.15.61.15l.15.15.3.31c.15.3.3.46.61.77.45.45.9.91 1.5 1.21a9.82 9.82 0 0 0 3.33 1.68c-.9-.91-1.81-1.68-2.57-2.59-.45-.46-.9-.91-1.2-1.38-.16-.15-.31-.45-.61-.6l-.15-.3c.3-.17.6-.31.75-.47.45-.3.76-.76 1.06-1.07.3-.45.45-.91.6-1.37l1.36.46c.46.3 1.06.3 1.66.46h.91c.3 0 .6-.16.9-.46-.6.15-1.05-.16-1.66-.3zm6.65-6.73c.44-.15.9-.3 1.2-.6-.9.3-1.81.15-2.72.15-.9 0-1.81-.16-2.72-.3-1.81-.31-3.62-.62-5.58-.77-.91-.15-1.97-.15-2.88-.15-1.05 0-1.96.15-2.87.3-.9.15-1.8.3-2.72.3a5 5 0 0 1 -2.41-1.06 3.9 3.9 0 0 0 2.27 1.83c1.05.3 2.11.15 3.02.15h.15c.3.46.6.92.75 1.37.46.61.76 1.23 1.2 1.84.16-.76-.14-1.53-.44-2.14-.3-.46-.61-.77-1.06-1.07 1.5-.15 3.02 0 4.53.16.3.3.46.6.76.91a8 8 0 0 1 1.05 1.38c.15.6.3 1.07.46 1.67.3.61.45 1.22.75 1.84 0-.62 0-1.38-.15-2 0-.44-.15-1.2-.45-1.82-.3-.61-.75-1.07-1.21-1.53-.3-.15-.45-.3-.75-.45 1.8.14 3.62.45 5.44.45 1.05 0 1.95 0 2.86-.15.46-.16 1.06-.16 1.52-.3zm-83.84 21.07c.16-.15.46-.15.77-.3.14-.15.45-.46.6-.76-.3-.3-.6-.46-.76-.46a.93.93 0 0 0 -.9 0c-.15 0-.46 0-.76.15-.15.15-.45.45-.6.76.3.3.6.46.9.46.15.15.46.15.75.15zm2.43 1.68c.3 0 .6-.15.9-.3s.45-.3.76-.62c-.15-.3-.6-.45-.91-.6h-.9c-.3 0-.61.15-.91.3-.3.16-.6.46-.76.92.3.15.6.3.9.3zm.29 1.83h.76c.3 0 .6 0 .9-.15 0-.45-.15-.76-.44-.92-.3-.3-.76-.45-1.06-.45-.45 0-.76 0-1.06.3-.3.15-.6.46-.76.92.45 0 .76.15.91.15.3.15.6.15.75.15zm0 0"/><path d="m70.99 72.68c.45-.92.9-1.84 1.5-2.6.62-.92 1.37-1.68 2.12-2.44.76-.76 1.51-1.37 2.42-2.14a8.71 8.71 0 0 0 -5.6 3.5c-.14-.14-.44-.3-.6-.44-.3-.16-.6-.31-1.05-.31-.3 0-.6.15-.9.3-.31.16-.61.3-.77.77.3.15.61.3.91.3.3.15.6.15.76.15h.76c.14 0 .3-.14.45-.14-.16.14-.3.45-.3.6-.3-.15-.46-.15-.6-.15-.31-.15-.47-.15-.76-.15-.16 0-.3.15-.6.15-.16.15-.46.3-.62.61.16.46.46.61.77.61.14.15.45.15.6.15.3 0 .45-.15.75-.15-.15.3-.3.61-.45 1.07-.16.46-.16 1.07-.16 1.68.16.61.46 1.38.92 1.68-.31-.6-.31-1.07-.15-1.53.15-.61.3-1.07.6-1.52zm-3.63 14.8c.6.3 1.21.61 1.81.77-.15 0-.15-.16-.15-.16.6.31 1.06.62 1.66.92.76.31 1.52.46 2.43.61 1.66.31 3.46 0 4.98-.91-.76-.15-1.66-.15-2.42-.3-.76 0-1.51-.16-2.27-.32-.9-.14-1.66-.3-2.41-.3-.76-.15-1.51-.15-2.42-.15-.3-.16-.46-.46-.75-.76-.3-.47-.46-.92-.46-1.38-.15-.46 0-1.07 0-1.68 0-.6 0-1.07.15-1.68a9.98 9.98 0 0 1 2.88-6.1 5.54 5.54 0 0 0 -3.03 2.28 7.74 7.74 0 0 0 -1.36 3.68c-.15.61-.15 1.22-.15 1.83.15.61.15 1.22.3 1.98.15.61.6 1.23 1.21 1.68zm0 0"/><path d="m69.93 101.07c-.45-1.07-.9-2.13-1.2-3.2-.46-1.07-.62-1.99-.77-3.06 0-1.06 0-2.13.15-3.2.16-1.07.61-2.14.91-3.36-1.8 1.52-2.72 4.12-2.57 6.56.16 1.38.46 2.6 1.22 3.51a9.8 9.8 0 0 0 2.26 2.75zm-2.26-29.92c.3-.3.44-.46.44-.76-.44.15-.75 0-1.2-.16-.3 0-.6-.15-.9-.15h.15a7.9 7.9 0 0 1 -.6-1.07c-.17-.3-.31-.6-.31-.92l.14-.14a10.1 10.1 0 0 0 2.88-1.38c-1.06 0-2.11 0-3.17.3-.91.16-1.97.3-3.03.77l-1.35.45c-.3.16-.6.31-.91.62-.3.3-.45.61-.45 1.06-.15.31-.15.77.15 1.07.15.3.6.61 1.06.61.15 0 .3-.15.45-.3l.3-.3h.6c-.15-.16-.45-.46-.75-.31-.3 0-.45.15-.45.15h-.15c-.16-.15-.16-.15-.16-.3v-.3c.16-.32.3-.47.76-.62.15 0 .3 0 .45-.15 0 .45.3.76.76.91v-1.07s.15-.15.3-.15.3-.15.45-.15c-.15.15-.15.46 0 .6 0 .31.16.47.3.77 0 0 .16 0 .16.16-.3 0-.46.15-.76.3.46.46.9.61 1.36.76.45 0 .9.16 1.36.16.45 0 .9 0 1.36-.16.3 0 .6-.15.76-.3zm-3.48-.92h-.15c0-.15 0-.3-.15-.46 0-.14 0-.3-.16-.45 0-.16 0-.46-.14-.61.45-.15.9-.3 1.2-.46-.15.3-.15.76 0 1.07.16.15.3.45.6.61.16 0 .3.15.46.15h-.3c-.45 0-.9 0-1.36.15zm0 0"/><path d="m58.6 71.45v-.15h.15c-.15 0-.15-.15-.15-.15s.15-.15.15-.3c0-.16.3-.46.46-.92-.46-.16-.91-.16-1.21 0-.3.15-.46.3-.6.6-.15.16-.31.47-.31.77 0 .15.16.46.3.77-.14 0-.3.14-.45.14a7.3 7.3 0 0 0 -1.51 1.54c-.6 1.21-.9 2.6-1.36 3.81-.6 2.3-1.36 4.58-3.48 6.1a4.92 4.92 0 0 0 3.33-2.13c.3-.46.6-.76.76-1.22.14.15.45.15.6.3h.15c-.15.16-.15.31-.15.46-.15.61 0 1.22 0 1.68.15.46.15.92-.15 1.38.3 0 .46-.3.6-.61.15-.16.3-.47.3-.77l.46-1.38c.15-.6.6-1.21.9-1.97h.3l-.15-.16c0-.15.15-.3.15-.61.46-.91.76-1.83 1.06-2.9.16-1.07.3-2.14.3-3.2-.6.91-1.05 1.83-1.5 2.74l-1.21 2.75c0 .15-.15.3-.15.6h-.76c.16.31.3.47.45.47-.15.3-.15.6-.3.76h-.6c.3-.6.45-1.37.6-1.98.3-1.23.6-2.44.9-3.51.31-.77.77-1.38 1.37-1.99.15.15.3.15.45.15.45 0 .75-.15 1.06-.61a3 3 0 0 1 -.76-.46zm0 0"/><path d="m54.97 84.13c.16.91.16 1.67-.15 2.44-.3-.3-.6-.6-1.05-.6-.6-.17-1.21-.17-1.66.3v-.3c-.15 0-.15-.17-.15-.17.45-.15.9-.45 1.2-.76.3-.3.6-.61 1.06-.76-.45-.46-1.2-.3-1.66-.3-.45.14-.9.3-1.2.3-.46.15-.91.3-1.21.45-.31 0-.31.16-.46.16 0 .15-.3 0-.15-.3-.15 0-.45.14-.45.3 0 .15 0 .3.15.61.3.3.6.46.9.46.45 0 1.06 0 1.51-.16 0 .3-.15.61-.3.92a6 6 0 0 1 -.76 1.37c-.6.92-1.2 1.84-1.66 2.75a7 7 0 0 0 -.6 3.52 3.75 3.75 0 0 0 2.26 2.59c-.3-.45-.6-.91-.75-1.37-.3-.46-.3-.77-.3-1.22 0-.92.3-1.68.76-2.45.3.3.6.46.9.61h.45c-.15.3-.15.61-.3.92a5.67 5.67 0 0 0 -.3 3.5c.3-1.06.76-2.13 1.36-3.04.46-.61.75-1.38 1.2-1.99.3 0 .61-.15.76-.3.16-.3.16-.77 0-1.07a7.06 7.06 0 0 0 1.22-2.9c.14-.61.3-1.23.14-1.84 0-.6-.3-1.21-.76-1.67zm-1.35 2.6c.3 0 .6.15 1.06.3 0 0-.15.15-.15.3-.16.15-.3.46-.3.62h-.31c-.15-.16-.45-.16-.76-.16-.45 0-.9 0-1.35.16.15-.3.3-.62.3-1.07v-.61c.6.14 1.05.3 1.5.45zm-1.97 1.83s.16-.16.16-.31c.44.15.9.3 1.35.3h.76l-.9 1.38-.61-.16h-1.2c.14-.45.3-.76.44-1.21zm-.15 3.2c-.45-.15-.75-.15-1.2-.15h.15c.14-.61.45-1.22.75-1.68.3.15.76.3 1.05.46.16.15.3.15.46.15-.3.46-.46.91-.75 1.37-.15-.15-.3-.15-.46-.15zm-1.96 6.72s-.15 0-.3.15c-.15 0-.15 0-.3.16-.3.15-.76.76-.61 1.52.15.3.46.46.76.61.15 0 .6-.15.6-.3-.3-.16-.3-.31-.3-.31 0-.15.15-.3.15-.3.15.15.15.15.3 0h.15s0-.15.16-.15l.3-.31c.14-.15.3-.61.14-.76 0-.16 0-.16-.14-.31l-.15-.16-.46-.45c-.15.3-.15.45-.3.61v.46c-.15-.15-.15-.31 0-.31zm0 5.34-.15-.15s-.15-.3 0-.76c0-.46.15-.92 0-1.37-.46.14-.9.45-1.21.91-.15.3-.15.6-.3.91 0 .3 0 .62.15 1.07.15.3.45.61.9.77.3.15.76.15 1.06 0 .6-.16.76-.61 1.21-.92-.45-.3-1.05-.16-1.36-.3-.3 0-.3 0-.3-.16zm52.71-19.69c.6-.3.9-.92.9-1.53s-.15-1.07-.3-1.53c.46.46.92.77 1.52.77h.6c.15.3.3.6.3.91.16.61.3 1.38.45 1.98.31.77 1.06 1.38 1.82 1.23-.76-.3-.9-.92-1.06-1.37v-1.99c-.15-1.37-.3-2.75-.6-3.97-.45-1.38-.76-2.6-1.36-3.82-.3-.6-.46-1.22-.75-1.83-.3-.6-.61-1.22-1.22-1.68 0 .3.16.46.16.77 0-.3-.16-.46-.46-.62l.46-.45c.3-.16.45-.61.45-1.07 0-.3-.16-.61-.3-.92-.3-.45-.76-.76-1.21-.92-.9-.3-1.82-.14-2.42-.14-1.51.14-3.02 0-4.53 0 1.35.6 2.87 1.06 4.38 1.21.75.16 1.51.16 1.97.3.3.17.44.31.6.47 0 .15-.3.3-.6.3-.3.16-.61.16-.91.16-.6 0-1.37 0-1.97-.16-1.2-.3-2.56-.91-3.92-.91 0-.16-.15-.3-.3-.3l-.46-.46c.15-.16.3-.16.6-.31.16-.3.46-.46.76-.77.15-.15.45-.45.6-.91-.45-.16-.9-.16-1.2-.16-.46.16-.76.31-1.06.62-.3.15-.6.45-.76.76-.45-.46-.9-.76-1.36-1.07.16-.15.46-.3.6-.45.31-.16.46-.3.76-.62.16-.15.46-.45.76-.92-.46-.14-.9-.14-1.36-.14-.3 0-.76.3-1.06.45-.3.3-.45.61-.75.92v.15c-.15 0-.3-.15-.45-.15v-.16l.6-.6.75-.77c.15-.3.46-.6.91-.91-.45-.3-1.06-.3-1.51-.16-.45 0-.91.3-1.2.77-.46.3-.61.76-.76 1.22v.15c-.16-.15-.3-.15-.61-.15-.6-.15-1.2-.15-1.8.15 1.05.15 1.8.6 2.71 1.22v.16l.15-.16c0 .16.15.16.15.16l2.72 2.28 1.36.92c.45.3.75.61 1.06 1.07.15.3.3.92.45 1.53.15.3.15.45.15.76 0 .3-.15.45-.3.76.3 0 .6-.3.75-.61 0-.3.15-.6.15-1.07 0-.61 0-1.22-.15-1.83 0-.3-.3-.76-.45-.92 1.06.46 1.96 1.07 3.02 1.53.76.3 1.51.46 2.42.61.45 0 .9-.15 1.2-.15.3-.15.46-.15.76-.3.3.91 0 1.83 0 2.74l-.45 5.04c-.16.61-.16 1.22.15 1.99.15.61.6 1.06.6 1.37.15.45.15 1.07-.15 1.53zm2.12-5.2c0 .31 0 .47.15.62-.46 0-.75 0-1.21.15.3.3.75.46 1.2.6h.16c.15.31.15.62.15.77h-.45c-.46 0-.9-.15-1.51 0v-.15c0-.46 0-.92.14-1.52.16-.47.16-1.08.3-1.68v-3.06c0 .15 0 .3.16.46.3 1.37.6 2.6.9 3.81zm0 0"/><path d="m108.75 86.72c-.3 0-.46 0-.6-.15-.46-.16-.92-.3-1.37-.6-.45-.32-.9-.62-1.51-.77-.45-.16-1.2-.47-1.8-.3.44.45.74.9 1.2 1.37.45.3.9.76 1.51 1.06.15 0 .3.15.45.15v1.68c-.45-.3-.9-.45-1.36-.6-.6-.16-1.06-.47-1.66-.77 0-1.07-.15-2.14-.45-3.2-.3 1.21-.6 2.29-.76 3.5-.15 1.07-.3 2.3-.15 3.52 0 .6 0 1.22.3 1.83.3.76.6 1.22 1.06 1.68.9.92 1.82 1.52 2.42 2.44 0-.61-.3-1.22-.6-1.68-.3-.61-.61-1.07-.91-1.52-.3-.46-.46-.92-.6-1.38v-.15c.3.3.9.61 1.5.61.61 0 1.21-.15 1.67-.46.14.92.45 1.83.6 2.6 0 .76-.15 1.68-.6 2.6.9-.46 1.5-1.38 1.66-2.45.15-.6.15-1.07 0-1.68 0-.46 0-.92-.16-1.37a16.2 16.2 0 0 0 -.75-2.9c-.15-.77-.45-1.38-.75-2.14.3.15.6.15.9.15.45 0 .9-.15 1.2-.46.16-.3.31-.76.16-1.06-.15.3-.45.3-.6.45zm-1.97 2.9v1.38c-.6 0-1.06-.16-1.66-.16l-1.35-.45c0-.62-.16-1.23-.16-1.99.45.46.9.61 1.36.92.6.15 1.21.3 1.81.3zm-1.35 3.06c-.46 0-1.06-.16-1.66-.3v-.93-.45c.3.3.75.45 1.35.6.6 0 1.2 0 1.81-.3 0 .46 0 .91.16 1.38zm2.27 9.62-.16-.76c0-.47-.15-.92-.3-1.38 0-.46-.15-.92-.31-1.53-.45.46-.75.92-.9 1.53v1.68c.15.3.15.61.3.76v.15c-.15.3-.3.46-.3.77 0 .46.45.76.75.6-.15-.3-.15-.45 0-.45 0-.15.15-.15.15 0h.16c.14 0 .45-.15.6-.46.15-.3 0-.46 0-.6zm-1.07.3.15-.15s0 .15-.15.15zm0 2.75c-.15.3-.45.45-.6.61-.16.15-.3.15-.46.15 0 0-.14.16-.3.16-.15.15-.45.15-.9 0-.16.45.15.91.6 1.21.3.16.75.3 1.21 0 .6-.14.9-.6.9-1.06.15-.31 0-.92-.45-1.07zm-9.36-19.85c.45-.46.6-1.07.75-1.68.3-.6.3-1.22.46-1.83 0-.61.14-1.22 0-1.83a6.95 6.95 0 0 0 -1.66-3.52 7.48 7.48 0 0 0 -2.72-2.13c.6 1.06 1.2 1.98 1.8 2.9.46.91.92 1.99 1.06 2.9.15.46.15 1.06 0 1.53v1.68c-.14.6-.14 1.07-.3 1.52-.3.61-.45 1.07-1.05 1.37.6 0 1.2-.45 1.66-.9zm.45 1.98a3.9 3.9 0 0 0 -1.67-1.07 4.28 4.28 0 0 1 1.22 3.22c.15 1.06.15 2.28.15 3.5.15 1.07 0 2.14-.3 3.21-.3.92-.76 1.68-1.21 2.6-1.06.3-2.12.6-3.18.76-1.05.3-2.1.46-3.16.6l-3.18.62c-1.05.3-2.11.46-3.32.76 1.2.3 2.27.46 3.47.46 1.06 0 2.27 0 3.33-.3 1.05-.16 2.26-.46 3.32-.92a8.21 8.21 0 0 0 2.72-1.98c-.15.3-.15.46-.3.6a6.45 6.45 0 0 0 2.56-2.74c.6-1.07.9-2.44.9-3.82-.14-1.22-.3-2.44-.6-3.66a9.03 9.03 0 0 0 -.75-1.84zm-26.12 22.6c-.46-.92-.92-1.83-1.21-2.74-.3-.92-.46-2-.61-2.91 0-1.07 0-2.13.15-3.2a5.63 5.63 0 0 0 -1.36 3.05 8.9 8.9 0 0 0 .3 3.5 9.4 9.4 0 0 0 1.81 2.92 7.76 7.76 0 0 0 2.57 1.98c-.6-.92-1.2-1.84-1.66-2.6zm0 0"/><path d="m96.21 101.38c0-.15-.16-.46-.16-.76l-.14-.31c0-.15-.15-.15-.15-.15 0-.16-.15-.16-.15 0 0-.16 0 0 0 0v.61l-.16.77c0 .45 0 .91-.15 1.52l-.45 2.74c-.3.92-.6 1.84-1.06 2.76-.45.76-1.06 1.68-1.81 2.44.45-.16.91-.3 1.2-.61l.16.15c0 .16-.15.3-.15.46l-.15.76c0 .61-.15 1.22-.3 1.68-.3 1.07-.76 1.99-1.36 2.9-.6.92-1.06 1.98-1.67 2.9-.6.62-1.35 1.22-2.26 1.83-.15 0-.3 0-.3.16h.15c-.15 0-.15.15-.15.15h.15v.46c0 .15.15.46.15.76v1.22c-.3.3-.6.77-.9 1.07-.6.46-1.07 1.07-1.67 1.53 0 .15-.15.15-.15.15.15-.6.15-1.22 0-1.83a4.3 4.3 0 0 0 -.45-1.99c.15-.15.3-.15.45-.15a3 3 0 0 0 .9-.61c-.15.46-.15.92-.15 1.53.15.46.15 1.07.46 1.68.3-.46.45-1.22.3-1.84a2.3 2.3 0 0 0 -.6-1.68v.16h-1.06c-.3-.16-.76-.16-1.05-.16h-2.28l-2.1.16c-.76 0-1.37 0-2.12.15a4.55 4.55 0 0 1 -2.12-1.68c-.45-.61-.9-1.37-1.2-2.29-.46-.76-.6-1.68-.76-2.44-.15-.92 0-1.83.16-2.9a5.11 5.11 0 0 0 -1.37 2.9c0 1.06.15 2.14.46 3.05a5.67 5.67 0 0 0 1.96 2.6c.3.3.9.61 1.36.76.3.15.75.15 1.2.15-.3.77 0 1.68.46 2.29.45.77 1.2 1.23 1.8 1.68.61.46 1.37.92 1.98 1.37l1.06.62c.3.15.6.3 1.05.6.3.16.75.16 1.06 0 .3 0 .6-.14.75-.3.46-.3.6-.61.9-.92.61-.6 1.22-1.21 1.67-1.82.46-.77.75-1.38 1.21-2.14a2.8 2.8 0 0 0 .15-2.45c0 .77-.3 1.38-.76 1.99.15-.15.15-.46.15-.6 0-.32-.15-.62-.3-.92l-.3-.31a4.86 4.86 0 0 0 2.87-1.23c.6-.45.9-.9 1.36-1.37.3-.45.6-.91.9-1.52.3-.47.6-1.07.76-1.68.3-.61.3-1.23.46-1.84 0-.6 0-1.22-.16-1.83 0-.3-.15-.46-.15-.76 0-.16 0-.3-.15-.46 0-.15 0-.15-.15-.15.6-.3 1.05-.77 1.36-1.23a6.68 6.68 0 0 0 1.51-2.9c.3-1.06.45-2.14.3-3.2 0-.6-.15-1.07-.3-1.68zm-17.07 22.44c0-.15-.15-.46-.15-.76.46 0 .9.15 1.36.15 0 .15-.15.31-.15.46-.15.45-.15.76 0 1.22 0 .15.15.46.3.61-.3-.15-.45-.15-.6-.3-.3-.46-.6-.92-.76-1.38zm-2.41-1.68.14-.15c.46.46 1.06.61 1.67.92-.15.3-.15.76-.15 1.22.15.15.15.3.3.46-.45-.16-.76-.47-1.06-.61-.45-.46-.9-1.07-.9-1.84zm4.98 3.97h-.3c-.16-.45-.3-.91-.45-1.37s-.15-.92-.15-1.53h.44c.46 0 .77 0 1.22-.15-.16.76 0 1.53.15 2.29 0 .61.3 1.07.45 1.68l-.3-.3zm2.26 1.07-.15.16c-.14 0-.14 0-.14-.16-.15-.6-.3-1.38-.46-1.98-.15-.77-.3-1.38-.45-2.14.3 0 .6-.15.76-.15.15 0 .3 0 .44-.16-.15.77 0 1.38 0 1.99l.46 2.14c-.15 0-.3.15-.46.3zm-2.27-49.77c1.21-.16 2.43-.46 3.49-.77-1.22-.3-2.28-.3-3.48-.45l-3.47-.15-3.63-.16c-1.06-.15-2.27-.15-3.47-.15a9.65 9.65 0 0 0 3.32 1.22c1.2.3 2.42.46 3.63.61 1.2 0 2.41 0 3.62-.15zm7.56-.91c.6 0 1.2 0 1.81-.31a3.3 3.3 0 0 0 1.66-.76 3.6 3.6 0 0 0 1.37-1.23c-.6 0-1.2 0-1.81.16-.61.15-1.06.3-1.67.45-.45.15-1.05.31-1.5.46-.61.3-1.21.46-1.82.77.6.3 1.36.45 1.96.45zm-7.85 12.36a17 17 0 0 0 7.85 0c1.2-.46 2.42-.91 3.47-1.22.6-.3 1.22-.46 1.97-.76.6-.31 1.06-.61 1.51-1.23-.6.31-1.2.46-1.82.62-.6 0-1.2 0-1.8.14-1.36.16-2.57.62-3.78.92-1.2.31-2.42.62-3.62.76-1.22.31-2.42.47-3.78.77zm-9.07 13.13c.77.15 1.52.3 2.27.3.76.16 1.66.16 2.42 0 .75 0 1.5-.15 2.42-.45-.76-.3-1.52-.61-2.42-.77-.76-.15-1.51-.3-2.26-.3h-2.27c-.76 0-1.51 0-2.42-.15.46.76 1.36 1.06 2.26 1.37zm0 0"/><path d="m77.78 112.22c-.6-.15-1.2-.15-1.66-.15h-3.17c.16.61.76.91 1.36 1.22.6.3 1.21.3 1.81.3s1.06 0 1.66-.15c.46-.15 1.06-.15 1.67-.46-.46-.46-1.06-.6-1.67-.76zm7.1 1.22h2.27c.9-.15 1.51-.61 2.11-1.06.6-.47 1.06-.92 1.81-1.23-.75-.3-1.66 0-2.26.15-.76.31-1.36.46-1.96.61-.6 0-1.37.16-1.97.3-.75.17-1.5.31-2.26.62.75.3 1.5.46 2.26.61zm0 0"/></g></svg>