<svg height="133pt" viewBox="0 0 134 133" width="134pt" xmlns="http://www.w3.org/2000/svg"><path d="m39 64.31c-.68 3.73-.2 9.17 2.5 13.67 2.6 4.48 4.52 9.07 5.1 12.61.67 3.63 3.75 6.88 4.52 9.17.77 2.3 1.73 6.5 2.4 8.8.58 2.3 1.07 7.26 0 9.17-1.15 1.81-4.52 6.59-4.52 8.6 0 2 3.85 0 3.85 0s1.83 3.15 4.04 1.9c2.22-1.23 6.07-8.02 6.07-11.27s.67-18.91 0-22.45c-.58-3.54-3.57-14.53-7.8-18.54-4.14-4.02-16.17-11.66-16.17-11.66zm59 16.53c2.98 4.2 5.77 12.43 5.29 15.58-.39 3.15-1.64 11.85-3.56 13.1a7.85 7.85 0 0 0 -3.08 6.68c.28 2.39 1.25 2.58 1.25 2.58l1.25-.57s1.35 1.53 2.02 1.53c.58 0 4.62-.67 5.1-1.91.48-1.25-1.73-8.6 0-8.13 1.74.39 2.7 3.25 2.99 1.63.29-1.53 0-4.3 0-5.54 0-1.25 2.5-7.27 2.3-10.33-.09-3.15-.86-6.2 0-8.21.97-2 .97-4.68-.76-7.46-1.74-2.77-3.28-5.25-4.62-4.97-1.45.39-8.19 6.02-8.19 6.02zm-83.17-70.62c.96-2.48 2.8-7.93 5.3-9.17 2.5-1.24 3.94-.96 6.06 0 2.21.95-.3.95-2.12 1.72-1.92.77-3.75 5.54-4.23 7.45-.48 1.82-5.01 0-5.01 0zm0 0" fill="#a56839"/><path d="m20.99 9.07c2.11-2.86 4.14-7.73 10.2-8.77 6.07-1.06 11.27 1.43 7.6 1.9-3.55.4-7.3.87-9.33 3.45-2.02 2.58-1.73 5.16-3.27 5.35-1.54.29-5.97-.86-5.2-1.92zm0 0" fill="#a56839"/><path d="m13.58 11.75c-3.56-.95-12.32-5.15-13.38-3.05-1.06 2 2.98 5.64 4.82 7.26 1.92 1.53 5 2.29 6.25 1.53 1.25-.77 2.3-5.74 2.3-5.74zm0 0" fill="#d48747"/><path d="m.2 8.7c2.7-.48 7.32 3.25 9.62 4.2 2.41 1.05 2.99.86 2.41 3.25-.67 2.39-2.21 2.58-4.71 1.15-2.5-1.34-5.68-3.82-6.55-5.55-.87-1.62-.77-3.05-.77-3.05zm0 0" fill="#a56839"/><path d="m19.16 8.12c-3.66.58-4.9 1.44-6.73 3.25-1.84 1.82-4.43 5.83-3.86 8.6.68 2.78 2.02 3.73-.09 6.02-2.02 2.3-4.05 7.07-3.66 8.98.48 1.82.68 4.78 2.02 5.74.58.38 1.35.38 2.21.38.97 0 2.13 0 3.38.67 2.21 1.24 1.34 10.32 0 12.8-1.36 2.5 3.84-2.77 4.43-5.82.66-3.16 2.2-6.03 2.3-4.69.2 1.43-1.64 8.22-2.6 9.27-.95 1.15 3.37-.57 5.5-5.54 2.01-4.97 1.34-9.46 2.3-9.46s1.63 3.25 2.7 6.98c1.53 5.44 8.37 16.9 10.87 20.44s5.58 8.03 8.67 11.76c3.17 3.72 9.04 5.83 10.3 8.31 1.24 2.5 2.78 10.04 2.5 11.95-.2 1.24-.87 3.44-.68 5.83 0 1.14 15.12-7.84 15.12-8.41-.1-3.54 0-7.46-.1-8.9-.1-1.33.67-1.14 4.04-.37.96.2 15.11-5.26 18.1-5.93 2.98-.57 11.64-3.15 14.82-3.63 3.08-.38 3.66 3.25 4.33 7.36.58 4.1 1.25 5.35 3.56 6.02 2.31.57 3.57.57 3.57 2.77 0 .57 0 1.91-.1 3.73-.39 5.35 5-5.74 6.35-6.88.57-.39 4.8-2.2 4.72-2.68-1.35-3.82-3.18-7.36-3.27-9.17-.2-2-1.65-12.23.48-10.04 2.02 2.1 3.65 7.27 1.63-2.86-2.02-10.03-3.56-22.27-1.54-20.64 2.5 1.81 3.46 3.82 1.44-1.63-1.82-4.68-6.06-5.83-6.92-7.54-.77-1.73.48-2.59-3.38-5.55-3.94-2.96-7.21-8.22-15.59-9.17-8.37-.87-17.42.38-23.87 2.77-6.35 2.48-14.63 7.93-20.7 8.22-2.78.19-4.52.1-5.96.1-1.63 0-2.7 0-4.14.18-2.7.48-6.83.96-9.05-1.05-2.21-2-5.96-8.79-6.25-11.09-.3-2.38-2.99-10.98-7.9-11.08-5-.1-7.02-.28-8.95 0zm0 0" fill="#d48747"/><path d="m16.75 19.59c.2-1.91.88-3.16 2.5-4.3.49-.38 1.84-1.72 2.6-2.58a22.15 22.15 0 0 1 5.78-4.59c-4.62-.1-6.64-.28-8.47 0-1.54.29-2.7.58-3.66.95-.2.49-.48.97-.86 1.35-2.21 2.2-4.23 8.21-.48 9.93.86.3 1.25.48 1.63.38.29-.38.59-.76.96-1.14zm115.8 65.65a6.36 6.36 0 0 1 -3.57.19l-.86 2.3c-.58 1.52-1.35 3.53-2.6 4.58-1.25.96-2.3 1.62-3.36 1.91-.3 4.69-1.07 15.87-2.03 17.58-1.06 2-3.37 6.22-3.37 8.03 0 1.24.68 1.15 1.45.96.29 0 .67-.1 1.06 0 .86.28.77 2 2.89 1.05 2.2-.86 4.42-3.25 4.52-5.07.2-1.81 1.15-6.68 1.73-9.74.68-3.06-1.35-15.3 0-16.44 1.45-1.05 2.7-2.87 3.75.67 1.06 3.53 2.6 1.24 1.45-3.06-.29-1.05-.68-2-1.06-2.96zm-58.71 7.93-.1.1c-2.5 2.48-5.49 2-8.28.57-.1.57-.2 1.24-.48 2.39-.29 1.14-.96 2.86-1.93 3.63a9.81 9.81 0 0 1 -4.33 2.2c-.1 1.53 0 3.24.67 4.97 1.55 3.72.1 8.98 0 10.99 0 2-1.53 5.53-2.5 6.97-.96 1.34-1.73 3.73-2.02 4.78-.28 1.05 2.99 1.05 3.95 1.05.86 0 1.34 2.68 3.37 1.72 2.02-.95 2.69-2.77 3.47-3.54.77-.76.86-1.04.77-3.24-.2-2.2 1.34-2.78 1.34-4.69 0-1.81-1.06-4.77-1.34-8.5-.3-3.73.77-7.36 1.34-9.75.68-2.3.87-2.58 2.7-.57 1.82 2 3.75 2.29 4.52 1.52.77-.76-.97-3.05-1.06-6.97-.1-1.15-.1-2.39-.1-3.63zm34.74-19.87c-2.4-.1-5.2-.39-7.5.28-2.8.86-4.53 3.82-7.42 4.78-3.37 1.15-6.74 1.62-10.1 2.1-4.04.67-6.94 1.53-7.22 5.17 1.15.18 2.7.57 4.71.95a36.78 36.78 0 0 0 14.83-.3c2.98-.56 11.64-9.45 14.82-9.93h.77c0-1.9-.2-2.87-2.89-3.06zm0 0" fill="#f6f5f6"/><path d="m29.46 16.05c-.58-2.3-1.92-10.03.96-10.4 2.99-.4 5.59 3.8 5.88 6.2.38 2.49-.3 6.21-1.26 8.4zm0 0" fill="#d48747"/><path d="m32.54 16.72c-.29-1.43-.29-2.38-1.35-3.82-1.06-1.34-2.69-2.77-1.83-4.3.77-1.53 1.06-3.06 3.86-.48 2.79 2.58 2.02 4.3 1.15 5.93-.87 1.52-1.83 2.67-1.83 2.67zm0 0" fill="#a56839"/><path d="m20.99 21.02c-.2-.47 1.44-2.3 2.4-2.86a4.1 4.1 0 0 1 3.66 0c1.06.67.68 3.15-1.15 2.86s-2.5-.76-2.5-.76-2.31 1.24-2.41.76zm0 0" fill="#fefefe"/><path d="m5.2 33.73c.1.48.87 1.44 1.07 1.63.28.09 1.53-.29 2.4-.86.77-.48 2.31-2 1.63-2.3-.67-.29-.67.3-1.34.86-.77.48-1.44 1.53-2.12 1.24-.77-.28-1.73-1.9-1.63-.57zm0 0" fill="#f4acbc"/><path d="m5.3 39.18c.58.38 1.45.57 2.41.57a7.9 7.9 0 0 0 2.99-.57 27.3 27.3 0 0 0 3.46-1.63c1.25-.57 2.3-1.14 2.3-1.14.3-.2.4-.58.3-.86a.77.77 0 0 0 -.87-.29s-1.06.57-2.31 1.15c-1.15.67-2.6 1.34-3.37 1.62-.67.29-1.64.48-2.5.48-.77 0-1.44-.19-1.73-.38-.3-.2-.68-.2-.87.1-.2.28-.1.66.2.95zm21.27-19.88c0 .29-.58.48-1.35.48s-1.43-.2-1.43-.48c0-.2.66-.47 1.43-.47s1.35.28 1.35.47zm0 0" fill="#252422"/><path d="m61.41 132.73c.2 0 .48 0 .78-.19 2.02-.95 2.69-2.77 3.47-3.54.57-.57.77-.95.77-2.1 0 1.15-.2 1.53-.77 2.1-.78.77-1.45 2.59-3.47 3.54-.3.19-.58.19-.78.19zm43.32-13.76c.77-.28 1.35-.67 1.54-1.14-.2.47-.77.86-1.54 1.14zm1.54-1.14c.1-.1.1-.3.1-.49 0 .2 0 .39-.1.49zm-6.26-33.45c0-.1-.1-.29-.19-.48.1.2.2.29.3.47h-.1zm10.79-4.59s0-.1-.1-.1c.1 0 .1.1.1.1zm-1.74-2.77c.58-.29 1.15-.57 1.54-.57-.39 0-.96.28-1.54.57zm0 0" fill="#d6d4d2"/><path d="m102.23 119.54c.2-11.94 9.24-23.89 4.04-35.54-.48-1.05-1.54-1.54-2.6-1.54-.86 0-1.73.39-2.3.96-.49.3-.87.67-1.26.95-.1-.18-.2-.28-.29-.47 2.99-2.2 6.74-5.45 9.24-6.88.49.76 1.06 1.72 1.64 2.68.1 0 .1.1.1.1a9.08 9.08 0 0 1 1.44 4.58c0 1.05-.3 2-.67 2.87a6.95 6.95 0 0 0 -.39 2.57c0 1.63.3 3.64.39 5.64v.29c0 3.16-2.31 8.79-2.31 10.04 0 .85.1 2.28.1 3.72 0 .67 0 1.34-.1 1.82-.1.38-.2.47-.3.47-.48 0-1.34-1.81-2.69-2.1 0-.1-.1-.1-.1-.1-.38 0-.57.58-.57 1.35 0 1.71.77 4.96.77 6.4 0 .19 0 .38-.1.48-.2.47-.77.86-1.54 1.14-.77.29-1.73.48-2.5.57zm0 0" fill="#8a5834"/><path d="m73.93 96.8c-.1-.76-.1-1.62-.1-2.58-.1-3.25 0-6.6-.1-7.93.1 1.25.1 4.1.1 7.17v1.63c0 .56 0 1.14.1 1.71zm-.2-10.51c-.09-.67.1-.95.78-.95.48 0 1.06.09 1.83.28.28 0 .67.1.96.2.19 0 .38.09.48.09-.19-.1-.48-.1-.67-.2-.2 0-.4-.08-.58-.08a9.98 9.98 0 0 0 -1.92-.3c-.77 0-.97.3-.87.96zm39.57-8.7a2.5 2.5 0 0 0 -1.83-1.24h-.77.78c.76.1 1.43.58 1.82 1.24zm0 0" fill="#d6d4d2"/><path d="m69.6 94.99c-.87 0-1.74-.2-2.6-.48 3.18-9.27 4.8-18.06 3.27-27.24a58.06 58.06 0 0 0 16.75 2.39c2.8 0 5.58-.19 8.08-.57 7.03-1.15 12.9-4.68 16.75-10.13.4 4.49.68 9.18 1.06 13.66.1 1.63.3 3.25.39 4.97a2.5 2.5 0 0 0 -1.83-1.24c0-1.9-.2-2.87-2.89-3.06-1.25 0-2.5-.1-3.75-.1-1.35 0-2.6.1-3.76.4-2.79.85-4.52 3.81-7.4 4.77-3.38 1.15-6.75 1.62-10.12 2.1-4.03.67-6.92 1.53-7.21 5.17a7.66 7.66 0 0 0 -1.83-.3c-.67 0-.87.3-.77.96.1 1.34 0 4.68.1 7.93v-1.05l-.1.1a5.7 5.7 0 0 1 -4.14 1.72zm8.18-9.08c-.1 0-.3-.1-.48-.1.19 0 .38.1.48.1zm0 0" fill="#b06e3b"/><path d="m95.88 86.29h.19-.2zm14.72-9.84" fill="#d6d4d2"/><path d="m61.41 132.73c-.28 0-.57-.1-.77-.19-.38-.2-.66-.57-.86-.95 5.2-7.65 5.49-17.69 4.81-27.14a2.9 2.9 0 0 0 1.35-2.59c0-1.62-.1-3.24-.28-4.87 0-.19.09-.38.18-.67.39-.38.77-.76.96-1.43.1-.1.1-.28.2-.38.86.28 1.73.48 2.6.48a5.7 5.7 0 0 0 4.14-1.72l.1-.1v1.05c0 .96 0 1.82.09 2.58.1 3.16 1.25 5.26 1.25 6.4 0 .2-.1.48-.2.57-.28.3-.66.39-1.05.39-.96 0-2.22-.57-3.47-1.91-.86-.96-1.34-1.34-1.63-1.34-.49 0-.67.67-1.06 1.91-.48 2.1-1.45 5.16-1.45 8.41 0 .48 0 .96.1 1.34.3 3.73 1.35 6.69 1.35 8.5 0 1.82-1.34 2.48-1.34 4.4v1.43c0 1.15-.2 1.53-.77 2.1-.78.77-1.45 2.59-3.47 3.54-.3.19-.58.19-.78.19zm25.99-45.48a30 30 0 0 1 -6.35-.67c-1.25-.2-2.3-.48-3.27-.67-.1 0-.3-.1-.48-.1-.3-.1-.67-.19-.96-.19.28-3.63 3.18-4.5 7.21-5.16 3.37-.48 6.74-.95 10.11-2.1 2.89-.96 4.62-3.92 7.41-4.78 1.16-.29 2.4-.38 3.76-.38 1.25 0 2.5.1 3.75.1 2.7.18 2.9 1.14 2.9 3.05h-.78l-.1.1c-.39 0-.96.28-1.54.57-2.5 1.43-6.25 4.69-9.24 6.88-1.54 1.15-2.89 2.1-3.75 2.39h-.2c-1.92.38-5 .96-8.47.96zm0 0" fill="#ccc9ca"/><path d="m27.15 45.58s0-.1-.1-.19c.1.1.1.19.1.19zm8.86-26.37v-.28zm.29-7.35v-.1zm-8.2-3.74c.3-.67.58-1.43 1.16-2.2-.58.77-.87 1.53-1.16 2.2zm1.36-2.48c2.01-2.58 5.77-3.06 9.33-3.44h.1-.1c-3.56.38-7.32.86-9.34 3.44zm.95 0h.39zm8.49-3.44c.28-.1.47-.1.67-.2-.2.1-.39.1-.67.2zm.67-.2" fill="#d6d4d2"/><path d="m28.11 8.12h-.48c-.67 0-1.25-.1-1.83-.1-.19-.09-.48-.09-.67-.18.39-.39.77-.86 1.16-1.34 2.02-2.49 3.36-4.5 6.54-5.45 1.35-.48 2.8-.67 4.24-.67h.67c1.93.48 2.89 1.25 1.83 1.62-.2.1-.39.1-.67.2h-.1c-3.56.38-7.32.86-9.34 3.44-.1.1-.1.19-.19.28-.58.77-.87 1.53-1.16 2.2zm0 0" fill="#8a5834"/><path d="m12.23 55.23v-.1c0-.09 0-.28.2-.56.77-1.34 1.34-4.88 1.34-7.94 0-2.29-.38-4.3-1.34-4.87-1.16-.67-2.22-.67-3.18-.67h-.39c-.77 0-1.44 0-2.02-.38 0 0-.1 0-.1-.1a2.7 2.7 0 0 1 -.76-1.14c.48.19 1.06.28 1.73.28a7.9 7.9 0 0 0 2.99-.57 27.3 27.3 0 0 0 3.46-1.63c1.25-.57 2.3-1.14 2.3-1.14.3-.2.4-.58.3-.86-.2-.2-.39-.38-.58-.38-.1 0-.2.1-.29.1 0 0-.48.18-1.06.56 2.5-4.58 6.35-7.83 8.57-12.42a21.6 21.6 0 0 1 3.08-.66c3.27-.77 4.52-3.26 4.23-5.74l4.33 3.25c.3-.67.58-1.34.77-2.2.1.29.1.57.2.86v.28c.19.96.96 2.78 1.92 4.7-1.25.85-1.92 2.38-.86 4 .19.3.28.58.48.86.86 7.36-.48 19.98-6.36 24.66l-.19.1-.29.18a57.16 57.16 0 0 1 -3.56-8.02v-.1s0-.1-.1-.19v-.1c-1.06-3.72-1.73-6.97-2.7-6.97-.95 0-.28 4.49-2.3 9.46-1.73 4-4.81 5.92-5.49 5.92-.1 0-.1-.1-.1-.1 0-.08 0-.18.1-.28.87-1.05 2.7-7.36 2.6-9.08v-.19c0-.19-.1-.38-.2-.38-.47 0-1.63 2.49-2.1 5.07-.48 2.48-4.05 6.49-4.63 6.49zm-3.93-16.82c.96-.19 1.82-.57 2.69-1.05.2.1.29.1.38.2-.38.19-.86.38-1.15.47-.58.2-1.25.38-1.92.38zm20.3-27.9a7.3 7.3 0 0 0 -.67-1.15 2.71 2.71 0 0 0 -.96-.86c.2-.19.48-.28.67-.38h.48c.2 0 .39 0 .58.1-.1.67-.1 1.43-.1 2.3zm0 0" fill="#b06e3b"/><path d="m26.96 8.5a2.96 2.96 0 0 0 -1.16-.47c.58 0 1.16.1 1.83.1-.2.09-.48.18-.67.37zm0 0" fill="#ccc9ca"/><path d="m35.04 20.26-4.33-3.26a8.63 8.63 0 0 0 -.86-2.67 8.9 8.9 0 0 0 -1.26-3.83c0-.86 0-1.62.1-2.3.2-1.43.67-2.38 1.73-2.57h.39c2.7 0 5.1 3.72 5.49 6.11v.1c.28 1.81 0 4.2-.49 6.21-.19.86-.48 1.53-.77 2.2zm-4.14-13.57c-.77 0-1.05.95-1.54 1.9-.86 1.54.77 2.97 1.83 4.3 1.06 1.45 1.06 2.4 1.35 3.83 0 0 .96-1.15 1.83-2.67.87-1.63 1.64-3.35-1.15-5.93-1.06-1.05-1.83-1.43-2.32-1.43zm0 0" fill="#b06e3b"/><path d="m32.54 16.72c-.29-1.43-.29-2.38-1.35-3.82-1.06-1.34-2.69-2.77-1.83-4.3.49-.96.77-1.91 1.54-1.91.49 0 1.26.38 2.32 1.43 2.79 2.58 2.02 4.3 1.15 5.93-.87 1.52-1.83 2.67-1.83 2.67zm0 0" fill="#8a5834"/><path d="m7.71 39.75c-.67 0-1.25-.1-1.73-.28l-.3-.58c.97-.1 1.74-.19 2.6-.48.68 0 1.35-.19 1.93-.38.29-.1.77-.28 1.15-.48.3.1.59.1.87.1a2.8 2.8 0 0 0 2.5-1.53c0-.1.1-.19.1-.29.58-.38 1.06-.57 1.06-.57.1 0 .19-.1.29-.1.2 0 .38.2.57.4.1.27 0 .65-.28.85 0 0-1.06.57-2.31 1.14a27.3 27.3 0 0 1 -3.46 1.63 7.9 7.9 0 0 1 -2.99.57zm0 0" fill="#252422"/><path d="m54.87 128.53c-.67-.39-1.25-1.15-1.64-1.63.4.48.97 1.15 1.73 1.44 0 .1-.09.1-.09.19zm-2.02-2.2" fill="#d6d4d2"/><path d="m54.96 128.34a4.36 4.36 0 0 1 -1.73-1.44c-.18-.29-.38-.57-.38-.57l-.39.19c3.95-6.78 3.76-15.1 2.5-22.93-1.91-11.75-9.8-20.74-15.3-30.87-.1-.19-.29-.38-.38-.57-.29-1.06-.48-4.2-.58-5.16 1.54 2.1 3.27 4.49 5 6.78.68 1.05 1.45 1.91 2.13 2.77.28.29.47.58.77.96a24.82 24.82 0 0 0 4.9 4.01c1.64 1.15 3.28 2.1 4.82 3.54 1.05 1.53 1.34 3.15 2.02 5.35.48 2 .87 4.2 1.05 5.73-.09 2.58-.96 4.3-.77 7.26.1 3.16 1.45 6.12 1.45 8.5v.1c-.1 2.49-.58 4.78-.68 6.03v.2c-.48 2.18-1.25 4.29-2.21 6.3-.1.18-.19.38-.29.47-.28.48-.67 1.15-.96 1.82-.29.48-.57 1.05-.97 1.53zm0 0" fill="#8a5834"/><path d="m59.4 96.13a55.15 55.15 0 0 0 -1.06-5.73 16.4 16.4 0 0 1 1.05 5.73zm-7.9-14.62a24.82 24.82 0 0 1 -4.9-4.01c-.3-.38-.49-.67-.77-.96a28.57 28.57 0 0 0 5.67 4.97zm-7.8-7.74c-1.73-2.3-3.46-4.68-5-6.78 1.64 1.81 3.85 5.25 5 6.78zm0 0" fill="#b06e3b"/><path d="m55.93 126.8c.29-.66.68-1.33.96-1.8.1-.1.2-.3.29-.48-.38.76-.77 1.52-1.25 2.29zm3.46-8.59v-.2c.1-1.24.59-3.53.68-6.01.1 2.1-.2 4.2-.68 6.21zm0 0" fill="#ccc9ca"/><path d="m121.1 122.13c-.87 0-1.06-.67-1.55-1.15.49.48.68 1.14 1.54 1.14.3 0 .68-.1 1.07-.28 2.2-.86 4.42-3.25 4.52-5.07.2-1.81 1.15-6.68 1.73-9.74.1-.48.1-1.05.1-1.82 0 .77 0 1.34-.1 1.82-.58 3.06-1.54 7.93-1.73 9.74-.1 1.82-2.31 4.21-4.52 5.07-.4.19-.77.28-1.07.28zm12.5-33.93c-.09-.19-.09-.28-.19-.48.1.2.1.3.2.48zm0 0" fill="#d6d4d2"/><path d="m125.14 92.6c-.1-.96-.29-1.91-.48-2.78 1.63-4.58.29-10.03-.48-14.7-1.64-9.28-4.82-18.45-5.79-27.82-.28-2.67-.47-5.26-.66-7.74.29-2.96.09-6.02-.59-8.98a18.18 18.18 0 0 0 -4.52-8.12c-.1-.2-.28-.39-.38-.58 4.14 2.01 6.55 5.26 9.33 7.36 3.86 2.96 2.6 3.82 3.38 5.55.86 1.71 5.1 2.86 6.92 7.54.77 2.1 1.06 3.06 1.06 3.44 0 .1 0 .1-.09.1-.2 0-1.16-.96-2.41-1.91-.1-.1-.2-.2-.29-.2-.48 0-.67.96-.67 2.58 0 3.83 1.16 11.57 2.5 18.26.67 3.25.96 4.87.96 5.63 0 .3-.09.39-.2.39-.37 0-1.34-2-2.4-3.16-.19-.28-.38-.38-.58-.38-.38 0-.57 1.06-.57 2.49 0 2.67.57 6.68.68 7.93.09 1.81 1.92 5.35 3.26 9.17l-.57-1.43c-.68.19-1.35.28-2.12.28-.48 0-.96 0-1.45-.09l-.86 2.3c-.58 1.52-1.35 3.53-2.6 4.58-.1.1-.29.19-.38.29zm0 0" fill="#b06e3b"/><path d="m121.1 122.13c-.87 0-1.06-.67-1.55-1.15l.29-.29c6.07-7.74 6.74-18.35 5.3-28.1.09-.09.29-.18.38-.28 1.25-1.05 2.02-3.06 2.6-4.59l.86-2.29c.49.1.97.1 1.45.1.77 0 1.44-.1 2.12-.29l.57 1.43.3 1.05c.1.2.1.3.19.48.28 1.05.38 2.1.38 2.87 0 1.24-.29 1.91-.67 1.91-.39 0-.77-.48-1.16-1.72-.48-1.53-.96-2.1-1.53-2.1-.68 0-1.45.86-2.22 1.43-.39.28-.48 1.43-.48 2.96 0 3.25.57 8.6.57 11.66 0 .77 0 1.34-.09 1.82-.58 3.06-1.54 7.93-1.73 9.74-.1 1.82-2.31 4.21-4.52 5.07-.4.19-.77.28-1.07.28zm0 0" fill="#ccc9ca"/></svg>