<svg height="133pt" viewBox="0 0 133 133" width="133pt" xmlns="http://www.w3.org/2000/svg"><path d="m70.5 6.1h-1.9c-26.3.96-49.8 17.4-58.73 42.3-9.4 24.92-.94 54.05 19.74 70.5s50.28 18.8 72.84 5.17c23.03-14.1 34.31-40.89 29.6-67.2-5.62-29.14-31.95-49.82-61.55-50.77zm0 0" fill="#c9bb9e"/><path d="m64.39 0h-1.89c-26.32.94-49.8 17.4-58.74 42.3-9.4 24.9-.94 54.04 19.74 70.49s50.29 18.8 72.84 5.17c23.03-14.1 34.31-40.89 29.14-67.2-5.17-29.14-31.96-49.82-61.1-50.76zm0 0" fill="#fefefe"/><path d="m116.08 63.45a52.55 52.55 0 0 1 -52.63 52.63 52.55 52.55 0 0 1 -52.65-52.63 52.55 52.55 0 0 1 52.65-52.65 52.55 52.55 0 0 1 52.63 52.64zm0 0" fill="#c2e5f3"/><path d="m89.77 23.96a41.12 41.12 0 0 0 -24.45-7.98c-.93 0-1.87.47-1.87 1.88 0 .94.94 1.41 1.87 1.88 8 0 15.98 2.82 22.56 7.05.94.47 1.89.47 2.35-.47.94-.94.47-1.88-.46-2.36zm-41.83-3.75c-.48-.94-1.42-1.41-2.35-.94-17.4 7.05-29.14 23.5-29.61 42.3 0 .93.47 1.88 1.88 1.88.94 0 1.41-.95 1.88-1.89.47-16.91 11.28-32.42 27.26-39 .94 0 1.4-1.41.94-2.35zm0 0" fill="#fefcf7"/><g fill="#533a2b"><path d="m63.45 12.69a50.55 50.55 0 0 0 -50.76 50.76 50.55 50.55 0 0 0 50.76 50.75 50.55 50.55 0 0 0 50.75-50.75 50.55 50.55 0 0 0 -50.75-50.76zm0 105.27c-30.08 0-54.05-24.44-54.05-54.51a53.76 53.76 0 0 1 54.05-54.05c30.07 0 54.51 23.97 54.51 54.05a54.56 54.56 0 0 1 -54.51 54.51zm0 0"/><path d="m63.45 39.48a86.76 86.76 0 0 1 -39.01-9.4l2.82-2.82a80.31 80.31 0 0 0 36.19 8.46c12.68 0 24.9-2.82 36.18-8.46l2.35 2.35c-11.75 6.1-25.37 9.87-38.53 9.87zm0 61.56a82.24 82.24 0 0 1 -48.88-15.98l1.41-2.82a81.83 81.83 0 0 0 47.47 15.51c16.92 0 34.3-6.1 47.93-16.45l.94 3.76a82.24 82.24 0 0 1 -48.87 15.98zm0-29.6c-18.8 0-37.6-7.05-52.17-19.27l2.35-2.35a77.12 77.12 0 0 0 49.82 17.86c18.32 0 36.18-6.12 49.81-17.86l2.35 2.35c-14.57 12.22-33.37 19.27-52.16 19.27zm0 0"/><path d="m63.45 12.69c-14.1 0-25.85 22.56-25.85 50.76s11.74 50.75 25.85 50.75c14.56 0 25.84-22.56 25.84-50.75 0-28.2-11.28-50.76-25.84-50.76zm0 105.27c-16.45 0-29.61-23.96-29.61-54.51s13.16-54.05 29.6-54.05c16.45 0 29.61 23.5 29.61 54.05 0 30.54-13.16 54.51-29.6 54.51zm0 0"/><path d="m61.56 116.08h3.76v-105.28h-3.76zm0 0"/></g></svg>