<svg height="133pt" viewBox="0 0 239 133" width="239pt" xmlns="http://www.w3.org/2000/svg"><g fill-rule="evenodd"><path d="m121.18 127.32h-4.2s.91.2 2.18.2c1.29 0 2.38-.2 2.38-.2zm0 0" fill="#b0aeac"/><path d="m121.54 127.32s-1.1.2-2.38.2c-1.27 0-2.18-.2-2.18-.2h-.55s1.28.2 2.73.2c1.65 0 2.93-.2 2.93-.2zm0 0" fill="#b0aeac"/><path d="m122.1 127.32s-1.29.2-2.94.2c-1.45 0-2.73-.2-2.73-.2h-.55s1.46.2 3.28.2c1.83 0 3.29-.2 3.29-.2zm0 0" fill="#b0aeac"/><path d="m122.45 127.32s-1.46.2-3.29.2c-1.82 0-3.28-.2-3.28-.2h-.37s1.65.2 3.65.2c2.2 0 3.84-.2 3.84-.2zm0 0" fill="#b0aeac"/><path d="m123 127.32s-1.64.2-3.84.2c-2 0-3.65-.2-3.65-.2h-.54c0 .2 2.01.2 4.2.2 2.37 0 4.2 0 4.2-.2zm0 0" fill="#b0aeac"/><path d="m123.36 127.32c0 .2-1.82.2-4.2.2-2.18 0-4.2 0-4.2-.2h-.35c0 .2 2 .2 4.55.2 2.57 0 4.75 0 4.75-.2zm0 0" fill="#b0aeac"/><path d="m123.91 127.32c0 .2-2.18.2-4.75.2-2.55 0-4.55 0-4.55-.2h-.56c0 .2 2.38.2 5.11.2 2.93 0 5.11 0 5.11-.2zm0 0" fill="#b0aeac"/><path d="m124.27 127.32c0 .2-2.18.2-5.1.2-2.74 0-5.12 0-5.12-.2h-.35c0 .2 2.37.2 5.46.2 3.11 0 5.66 0 5.66-.2zm0 0" fill="#b0aeac"/><path d="m124.82 127.32c0 .2-2.55.2-5.66.2-3.09 0-5.46 0-5.46-.2h-.56c0 .2 2.74.2 6.02.2 3.48 0 6.03 0 6.03-.2zm0 0" fill="#b0aeac"/><path d="m125.19 127.32c0 .2-2.55.2-6.03.2-3.28 0-6.02 0-6.02-.2h-.35c0 .2 2.91.2 6.37.2 3.66 0 6.57 0 6.57-.2zm0 0" fill="#b0aeac"/><path d="m125.73 127.32c0 .2-2.91.2-6.57.2-3.46 0-6.37 0-6.37-.2h-.56c0 .2 3.1.37 6.93.37 3.84 0 7.13-.18 7.13-.37zm0 0" fill="#b0aeac"/><path d="m126.29 127.32c0 .2-3.29.37-7.13.37-3.82 0-6.93-.18-6.93-.37h-.55c0 .2 3.48.37 7.48.37 4.2 0 7.49-.18 7.49-.37zm0 0" fill="#b0aeac"/><path d="m126.65 127.32c0 .2-3.29.37-7.49.37-4 0-7.48-.18-7.48-.37h-.36c0 .2 3.47.37 7.84.37 4.4 0 8.04-.18 8.04-.37zm0 0" fill="#b0aeaa"/><path d="m127.2 127.32c0 .2-3.65.37-8.04.37-4.37 0-7.84-.18-7.84-.37h-.55c0 .2 3.84.37 8.4.37 4.74 0 8.39-.18 8.39-.37zm0 0" fill="#b0aeaa"/><path d="m127.56 127.32c0 .2-3.65.37-8.4.37-4.55 0-8.39-.18-8.39-.37h-.36c0 .2 4.01.37 8.75.37 4.94 0 8.95-.18 8.95-.37zm0 0" fill="#b0aeaa"/><path d="m128.1 127.32c0 .2-4 .37-8.94.37-4.74 0-8.75-.18-8.75-.37h-.55c0 .2 4.2.37 9.3.37 5.11 0 9.31-.18 9.31-.37zm0 0" fill="#b0aeaa"/><path d="m128.47 127.32c0 .2-4.2.37-9.3.37-5.12 0-9.31-.18-9.31-.37h-.36c0 .2 4.38.37 9.66.37 5.48 0 9.86-.18 9.86-.37zm0 0" fill="#b0aeaa"/><path d="m129.02 127.32c0 .2-4.38.37-9.86.37-5.28 0-9.66-.18-9.66-.37h-.55c0 .2 4.56.37 10.21.37 5.66 0 10.23-.18 10.23-.37zm0 0" fill="#b0aeaa"/><path d="m129.39 127.32c0 .2-4.57.37-10.23.37-5.65 0-10.21-.18-10.21-.37h-.36c0 .2 4.74.37 10.57.37 6.03 0 10.77-.18 10.77-.37zm0 0" fill="#b0aeaa"/><path d="m129.93 127.32c0 .2-4.74.37-10.77.37-5.83 0-10.57-.18-10.57-.37h-.56c0 .2 4.93.56 11.13.56 6.22 0 11.33-.37 11.33-.56zm0 0" fill="#b0aeaa"/><path d="m130.49 127.32c0 .2-5.12.56-11.33.56-6.2 0-11.13-.37-11.13-.56h-.35c0 .2 5.1.56 11.48.56 6.57 0 11.68-.37 11.68-.56zm0 0" fill="#b0aeaa"/><path d="m130.84 127.32c0 .2-5.1.56-11.68.56-6.37 0-11.48-.37-11.48-.56h-.55c0 .37 5.47.56 12.03.56 6.76 0 12.23-.19 12.23-.56zm0 0" fill="#b0aeaa"/><path d="m131.4 127.32c0 .37-5.48.56-12.24.56-6.56 0-12.03-.19-12.03-.56h-.56c0 .37 5.66.56 12.6.56 6.93 0 12.59-.19 12.59-.56zm0 0" fill="#b0aca9"/><path d="m131.76 127.32c0 .37-5.66.56-12.6.56-6.93 0-12.59-.19-12.59-.56h-.36c0 .37 5.84.56 12.95.56 7.3 0 13.14-.19 13.14-.56zm0 0" fill="#b0aca9"/><path d="m132.3 127.32c0 .37-5.83.56-13.14.56-7.1 0-12.95-.19-12.95-.56h-.55c0 .37 6.02.56 13.5.56 7.49 0 13.51-.19 13.51-.56zm0 0" fill="#b0aca9"/><path d="m132.67 127.32c0 .37-6.02.56-13.5.56-7.49 0-13.51-.19-13.51-.56h-.36c0 .37 6.2.56 13.86.56 7.86 0 14.05-.19 14.05-.56zm0 0" fill="#b0aca9"/><path d="m133.21 127.32c0 .37-6.2.56-14.05.56-7.66 0-13.86-.19-13.86-.56h-.55c0 .37 6.57.56 14.41.56 8.04 0 14.42-.19 14.42-.56zm0 0" fill="#b0aca9"/><path d="m133.58 127.32c0 .37-6.38.56-14.42.56-7.84 0-14.41-.19-14.41-.56h-.36c0 .37 6.57.56 14.77.56 8.22 0 14.97-.19 14.97-.56zm0 0" fill="#b0aca9"/><path d="m134.13 127.32c0 .37-6.75.56-14.97.56-8.2 0-14.77-.19-14.77-.56h-.55c0 .37 6.93.74 15.32.74 8.59 0 15.52-.37 15.52-.74zm0 0" fill="#b0aca9"/><path d="m134.68 127.32c0 .37-6.93.74-15.52.74-8.39 0-15.32-.37-15.32-.74h-.36c0 .37 6.93.74 15.68.74 8.77 0 15.88-.37 15.88-.74zm0 0" fill="#b0aca9"/><path d="m135.04 127.32c0 .37-7.11.74-15.88.74-8.75 0-15.68-.37-15.68-.74h-.55c0 .37 7.3.74 16.23.74 9.13 0 16.43-.37 16.43-.74zm0 0" fill="#b0aca9"/><path d="m135.59 127.32c0 .37-7.3.74-16.43.74-8.94 0-16.23-.37-16.23-.74h-.56c0 .37 7.68.74 16.8.74 9.3 0 16.78-.37 16.78-.74zm0 0" fill="#b0aca9"/><path d="m135.95 127.32c0 .37-7.48.74-16.79.74-9.11 0-16.78-.37-16.78-.74h-.36c0 .37 7.66.74 17.14.74 9.5 0 17.34-.37 17.34-.74zm0 0" fill="#b0aca9"/><path d="m136.5 127.32c0 .37-7.84.74-17.34.74-9.48 0-17.14-.37-17.14-.74h-.56c0 .37 8.04.74 17.7.74 9.86 0 17.7-.37 17.7-.74zm0 0" fill="#b0aca9"/><path d="m136.87 127.32c0 .37-7.85.74-17.7.74-9.67 0-17.7-.37-17.7-.74h-.36c0 .37 8.02.74 18.05.74 10.05 0 18.25-.37 18.25-.74zm0 0" fill="#b0aca9"/><path d="m137.41 127.32c0 .37-8.2.74-18.25.74-10.03 0-18.05-.37-18.05-.74h-.56c0 .37 8.4.74 18.61.74 10.41 0 18.62-.37 18.62-.74zm0 0" fill="#b0aca9"/><path d="m137.78 127.32c0 .37-8.2.74-18.62.74-10.21 0-18.6-.37-18.6-.74h-.37c0 .37 8.58.74 18.97.74 10.6 0 19.17-.37 19.17-.74zm0 0" fill="#b0aca9"/><path d="m138.33 127.32c0 .37-8.58.74-19.17.74-10.4 0-18.97-.37-18.97-.74h-.55c0 .37 8.76.93 19.52.93 10.77 0 19.53-.56 19.53-.93zm0 0" fill="#b0aca9"/><path d="m138.7 127.32c0 .37-8.77.93-19.54.93-10.76 0-19.52-.56-19.52-.93h-.36c0 .56 8.94.93 19.88.93 11.14 0 20.08-.37 20.08-.93zm0 0" fill="#b0aca9"/><path d="m139.24 127.32c0 .56-8.94.93-20.08.93-10.94 0-19.88-.37-19.88-.93h-.55c0 .56 9.12.93 20.43.93 11.33 0 20.63-.37 20.63-.93zm0 0" fill="#b0aca9"/><path d="m139.79 127.32c0 .56-9.3.93-20.63.93-11.3 0-20.43-.37-20.43-.93h-.55c0 .56 9.5.93 20.98.93 11.68 0 21-.37 21-.93zm0 0" fill="#b0aca9"/><path d="m140.15 127.32c0 .56-9.3.93-20.99.93-11.48 0-20.98-.37-20.98-.93h-.36c0 .56 9.49.93 21.34.93 11.87 0 21.54-.37 21.54-.93zm0 0" fill="#b0aca9"/><path d="m140.7 127.32c0 .56-9.67.93-21.54.93-11.85 0-21.34-.37-21.34-.93h-.55c0 .56 9.86.93 21.9.93 12.22 0 21.9-.37 21.9-.93zm0 0" fill="#b0aca9"/><path d="m141.07 127.32c0 .56-9.68.93-21.9.93-12.04 0-21.9-.37-21.9-.93h-.36c0 .56 10.03.93 22.25.93 12.42 0 22.45-.37 22.45-.93zm0 0" fill="#b0aca9"/><path d="m141.6 127.32c0 .56-10.02.93-22.44.93-12.22 0-22.25-.37-22.25-.93h-.56c0 .56 10.22.93 22.81.93 12.6 0 22.82-.37 22.82-.93zm0 0" fill="#b0aca9"/><path d="m141.98 127.32c0 .56-10.22.93-22.82.93-12.59 0-22.8-.37-22.8-.93h-.36c0 .56 10.4.93 23.16.93 12.97 0 23.36-.37 23.36-.93zm0 0" fill="#b0aca9"/><path d="m142.52 127.32c0 .56-10.4.93-23.36.93-12.77 0-23.16-.37-23.16-.93h-.56c0 .56 10.59.93 23.72.93 13.14 0 23.73-.37 23.73-.93zm0 0" fill="#b0aca9"/><path d="m142.9 127.32c0 .56-10.6.93-23.74.93-13.13 0-23.72-.37-23.72-.93h-.36c0 .56 10.77 1.1 24.08 1.1 13.51 0 24.28-.54 24.28-1.1zm0 0" fill="#b0aca9"/><path d="m143.44 127.32c0 .56-10.77 1.1-24.28 1.1-13.31 0-24.08-.54-24.08-1.1h-.54c0 .56 11.12 1.1 24.62 1.1 13.7 0 24.82-.54 24.82-1.1zm0 0" fill="#b0aca9"/><path d="m143.98 127.32c0 .56-11.12 1.1-24.82 1.1-13.5 0-24.62-.54-24.62-1.1h-.37c0 .56 11.13 1.1 25 1.1s25.18-.54 25.18-1.1zm0 0" fill="#b0aca9"/><path d="m144.35 127.32c0 .56-11.31 1.1-25.19 1.1-13.86 0-25-.54-25-1.1h-.54c0 .56 11.5 1.1 25.54 1.1 14.24 0 25.73-.54 25.73-1.1zm0 0" fill="#b0aca9"/><path d="m144.9 127.32c0 .56-11.5 1.1-25.74 1.1-14.05 0-25.54-.54-25.54-1.1h-.55c0 .56 11.68 1.1 26.1 1.1 14.41 0 26.1-.54 26.1-1.1zm0 0" fill="#b0aca9"/><path d="m145.26 127.32c0 .56-11.68 1.1-26.1 1.1-14.41 0-26.1-.54-26.1-1.1h-.35c0 .56 11.86 1.1 26.45 1.1 14.79 0 26.65-.54 26.65-1.1zm0 0" fill="#b0aca7"/><path d="m145.8 127.32c0 .56-11.85 1.1-26.64 1.1-14.6 0-26.45-.54-26.45-1.1h-.55c0 .56 12.23 1.1 27 1.1 14.42 0 26.1-.36 27.02-1.1zm0 0" fill="#b0aca7"/><path d="m146.18 127.32c-.92.74-12.6 1.1-27.02 1.1-14.77 0-27-.54-27-1.1h-.36c0 .74 12.22 1.1 27.36 1.1 13.33 0 24.47-.36 27.02-.9zm0 0" fill="#b0aca7"/><path d="m146.18 127.51c-2.56.55-13.69.92-27.02.92-15.14 0-27.36-.37-27.36-1.1h-.56c0 .73 12.6 1.1 27.92 1.1 12.97 0 23.73-.37 27.02-.74zm0 0" fill="#b0aca7"/><path d="m146.18 127.7c-3.29.36-14.06.73-27.02.73-15.32 0-27.92-.37-27.92-1.1h-.36c0 .73 12.6 1.28 28.28 1.28 12.6 0 23.18-.36 27.02-.92zm0 0" fill="#b0aca7"/><path d="m146.18 127.7c-3.84.55-14.42.91-27.02.91-15.68 0-28.28-.55-28.28-1.29h-.54c0 .74 12.95 1.3 28.82 1.3 12.42 0 22.82-.37 27.02-.93zm0 0" fill="#aeaba7"/><path d="m146.18 127.7c-4.2.55-14.6.91-27.02.91-15.87 0-28.82-.55-28.82-1.29h-.37c0 .74 13.14 1.3 29.2 1.3 12.04 0 22.44-.37 27-.74zm0 0" fill="#aeaba7"/><path d="m146.18 127.88c-4.57.37-14.97.73-27.02.73-16.05 0-29.19-.55-29.19-1.29h-.54c0 .74 13.31 1.3 29.73 1.3 12.05 0 22.27-.37 27.02-.74zm0 0" fill="#aeaba7"/><path d="m146.18 127.88c-4.75.37-14.97.73-27.02.73-16.42 0-29.73-.55-29.73-1.29v.2c2.55.73 14.96 1.1 29.73 1.1 11.87 0 21.9-.37 27.02-.74zm-56.75-.56" fill="#aeaba7"/><path d="m146.18 127.88c-5.11.37-15.15.73-27.02.73-14.77 0-27.18-.36-29.73-1.1v.18c3.28.56 15.32.92 29.73.92 11.68 0 21.73-.18 27.02-.73zm0 0" fill="#aeaba7"/><path d="m146.18 127.88c-5.3.55-15.34.73-27.02.73-14.41 0-26.45-.36-29.73-.92 3.82.56 15.68.92 29.73.92 11.5 0 21.54-.18 27.02-.55zm0 0" fill="#aeaba7"/><path d="m146.18 128.06c-5.48.37-15.52.55-27.02.55-14.05 0-25.9-.36-29.73-.92 4.37.56 16.05.92 29.73.92 11.5 0 21.36-.18 27.02-.55zm0 0" fill="#aeaba7"/><path d="m146.18 128.06c-5.66.37-15.52.55-27.02.55-13.68 0-25.36-.36-29.73-.92v.19c4.74.55 16.23.73 29.73.73 11.33 0 21.36-.18 27.02-.55zm0 0" fill="#aeaba7"/><path d="m146.18 128.06c-5.66.37-15.7.55-27.02.55-13.5 0-25-.18-29.73-.73 5.1.55 16.42.91 29.73.91 11.33 0 21.18-.36 27.02-.73zm0 0" fill="#aeaba7"/><path d="m146.18 128.06c-5.84.37-15.7.73-27.02.73-13.31 0-24.62-.36-29.73-.91 5.28.55 16.6.91 29.73.91 11.14 0 21-.36 27.02-.73zm0 0" fill="#aeaba7"/><path d="m146.18 128.06c-6.03.37-15.88.73-27.02.73-13.13 0-24.45-.36-29.73-.91v.18c5.46.37 16.78.73 29.73.73 11.14 0 21-.18 27.02-.54zm0 0" fill="#aeaba7"/><path d="m146.18 128.25c-6.03.36-15.88.54-27.02.54 10.96 0 20.81-.18 27.02-.54zm0 0a519.71 519.71 0 0 0 .19 0zm0 0" fill="#aeaba7"/><path d="m146.36 128.25c-6.2.36-16.06.54-27.2.54-12.59 0-23.72-.36-29.73-.73 6.2.55 17.14.73 29.73.73 11.33 0 21.36-.18 27.75-.54zm0 0" fill="#aeaba7"/><path d="m146.91 128.25c-6.39.36-16.42.54-27.75.54-12.59 0-23.53-.18-29.73-.73 6.2.55 17.33.73 29.73.73 11.68 0 21.9-.18 28.47-.54zm0 0" fill="#aeaba7"/><path d="m147.63 128.25c-6.56.36-16.79.54-28.47.54-12.4 0-23.53-.18-29.73-.73v.19c6.37.36 17.33.54 29.73.54 11.87 0 22.45-.18 29.02-.54zm0 0" fill="#aeaba7"/><path d="m148.18 128.25c-6.57.36-17.15.54-29.02.54-12.4 0-23.36-.18-29.73-.54 6.57.36 17.51.54 29.73.54 12.23 0 23-.18 29.57-.54zm0 0" fill="#aeaba7"/><path d="m148.73 128.25c-6.57.36-17.34.54-29.57.54-12.22 0-23.16-.18-29.73-.54h-.2c6.57.36 17.53.73 29.93.73 12.42 0 23.55-.37 30.12-.73zm0 0" fill="#aeaba7"/><path d="m149.28 128.25c-6.57.36-17.7.73-30.12.73-12.4 0-23.36-.37-29.92-.73h-.73c6.75.36 18.06.73 30.65.73 12.79 0 23.92-.37 30.67-.73zm0 0" fill="#aeaba7"/><path d="m149.83 128.25c-6.75.36-17.88.73-30.67.73-12.59 0-23.9-.37-30.65-.73h-.55c6.75.36 18.25.73 31.2.73 12.97 0 24.47-.37 31.21-.73zm0 0" fill="#aeaba7"/><path d="m150.37 128.25c-6.75.36-18.25.73-31.2.73a619.6 619.6 0 0 1 -31.21-.73h-.55c6.94.36 18.62.73 31.75.73 13.33 0 25.01-.37 31.76-.73zm0 0" fill="#aeaba7"/><path d="m150.92 128.25c-6.75.36-18.43.73-31.76.73-13.13 0-24.81-.37-31.75-.73h-.54c6.93.36 18.79.73 32.3.73 13.5 0 25.54-.37 32.3-.73zm0 0" fill="#aeaba7"/><path d="m151.47 128.25c-6.76.36-18.8.73-32.3.73-13.51 0-25.37-.37-32.3-.73h-.55c6.93.36 19.16.73 32.84.73 13.88 0 25.92-.37 33.04-.73zm6.93-.93" fill="#aeaba7"/><path d="m158.4 127.32v.2c.19 0 .37-.2.37-.2zm-6.2.93c-7.12.36-19.16.73-33.04.73-13.68 0-25.9-.37-32.84-.73h-.55c7.12.36 19.34.73 33.4.73 14.04 0 26.46-.37 33.58-.73zm0 0" fill="#aeaba7"/><path d="m158.77 127.32s-.18.2-.37.2v.17c.56-.18.91-.18.91-.37zm-6.02.93c-7.12.36-19.54.73-33.59.73s-26.27-.37-33.39-.73h-.54c7.11.54 19.7.73 33.93.73 14.42 0 27.02-.19 34.13-.73zm0 0" fill="#aeaba7"/><path d="m159.31 127.32c0 .2-.35.2-.91.37.91 0 1.28-.18 1.28-.37zm-6.02.93c-7.11.54-19.7.73-34.13.73-14.23 0-26.82-.19-33.93-.73h-.56c7.13.54 19.9.73 34.5.73s27.37-.19 34.67-.73zm0 0" fill="#aeaba7"/><path d="m159.68 127.32c0 .2-.37.37-1.28.37v.19c1.1-.19 1.83-.37 1.83-.56zm-5.84.93c-7.3.54-20.07.73-34.68.73-14.6 0-27.36-.19-34.49-.73h-.54c7.11.54 20.26.92 35.03.92 14.97 0 27.93-.38 35.23-.92zm0 0" fill="#aeaba7"/><path d="m160.23 127.32c0 .2-.73.37-1.83.56 1.46-.19 2.2-.37 2.2-.56zm-5.84.93c-7.3.54-20.26.92-35.23.92-14.77 0-27.92-.38-35.03-.92h-.55c7.3.54 20.44.92 35.58.92 15.16 0 28.47-.38 35.78-.92zm0 0" fill="#aeaba7"/><path d="m160.6 127.32c0 .2-.74.37-2.2.56 1.83-.19 2.74-.37 2.74-.56zm-5.66.93c-7.3.54-20.62.92-35.78.92-15.14 0-28.28-.38-35.58-.92h-.54c7.3.54 20.8.92 36.12.92 15.52 0 29.02-.38 36.14-.92zm0 0" fill="#aeaba7"/><path d="m161.14 127.32c0 .2-.91.37-2.74.56v.18c2.01-.18 3.28-.55 3.28-.74zm-5.84.93c-7.12.54-20.62.92-36.14.92-15.32 0-28.82-.38-36.12-.92h-.55c7.3.54 20.99.92 36.67.92 15.7 0 29.39-.38 36.7-.92zm-78.1-.93h-.37.36v.2c-.18 0-.36-.2-.36-.2zm0 0" fill="#aeaba7"/><path d="m161.68 127.32c0 .2-1.27.56-3.28.74 2.37-.18 3.65-.55 3.65-.74zm-5.83.93c-7.3.54-20.99.92-36.69.92-15.68 0-29.38-.38-36.67-.92h-.54c7.48.54 21.34.92 37.21.92 16.07 0 29.93-.38 37.23-.92zm-78.66-.74c-.18 0-.36-.19-.36-.19h-.37c0 .2.18.2.73.37zm0 0" fill="#aeaba7"/><path d="m162.05 127.32c0 .2-1.28.56-3.65.74 2.56-.18 4.2-.37 4.2-.74zm-5.66.93c-7.3.54-21.16.92-37.23.92-15.87 0-29.73-.38-37.21-.92h-.56c7.48.54 21.54.92 37.77.92 16.25 0 30.49-.38 37.78-.92zm-79.2-.56c-.55-.18-.73-.18-.73-.37h-.54c0 .2.54.37 1.27.37zm0 0" fill="#aeaba7"/><path d="m162.6 127.32c0 .37-1.64.56-4.2.74v.19c2.93-.37 4.56-.56 4.56-.93zm-5.66.93c-7.3.54-21.53.92-37.78.92-16.23 0-30.29-.38-37.77-.92h-.55c7.48.54 21.9.92 38.32.92 16.62 0 30.84-.38 38.33-.92zm-79.75-.56c-.73 0-1.27-.18-1.27-.37h-.56c0 .2.74.37 1.83.56zm0 0" fill="#aeaaa7"/><path d="m162.96 127.32c0 .37-1.63.56-4.56.93 3.28-.37 5.11-.56 5.11-.93zm-5.47.93c-7.49.54-21.71.92-38.33.92-16.42 0-30.84-.38-38.32-.92h-.54c7.66.54 22.08.92 38.86.92 16.8 0 31.4-.38 38.88-.92zm-80.3-.37c-1.1-.19-1.83-.37-1.83-.56h-.35c0 .2.72.37 2.18.56zm0 0" fill="#aeaaa7"/><path d="m163.51 127.32c0 .37-1.83.56-5.11.93h-.36c-7.48.54-22.09.92-38.88.92-16.78 0-31.2-.38-38.86-.92h-.37c7.48.54 22.27.92 39.23.92 24.82 0 44.72-.74 44.72-1.85zm-86.32.56c-1.46-.19-2.18-.37-2.18-.56h-.55c0 .2 1.1.37 2.73.74zm0 0" fill="#aeaaa7"/><path d="m163.88 127.32c0 1.1-19.9 1.85-44.72 1.85-16.96 0-31.75-.38-39.23-.92h-.55c7.49.54 22.64.92 39.78.92 25.01 0 45.26-.74 45.26-1.85zm-86.69.74c-1.64-.37-2.73-.55-2.73-.74h-.37c0 .2 1.1.56 3.1.74zm0 0" fill="#aeaaa7"/><path d="m164.42 127.32c0 1.1-20.25 1.85-45.26 1.85-17.14 0-32.3-.38-39.78-.92h-.54c7.66.54 22.81 1.1 40.32 1.1 25.19 0 45.63-.92 45.63-2.03zm-87.23.74c-2-.18-3.1-.55-3.1-.74h-.54c0 .2 1.27.56 3.64.74zm0 0" fill="#aeaaa7"/><path d="m164.79 127.32c0 1.1-20.44 2.03-45.63 2.03-17.5 0-32.66-.56-40.32-1.1h-.55c7.66.54 23.17 1.1 40.87 1.1 25.55 0 46.18-.92 46.18-2.03zm-87.6.74c-2.37-.18-3.64-.55-3.64-.74h-.37c0 .37 1.46.56 4.01.74zm0 0" fill="#aeaaa7"/><path d="m165.34 127.32c0 1.1-20.63 2.03-46.18 2.03-17.7 0-33.2-.56-40.87-1.1h-.54c7.66.54 23.36 1.1 41.41 1.1 25.73 0 46.54-.92 46.54-2.03zm-88.15.74c-2.55-.18-4-.37-4-.74h-.55c0 .37 1.63.56 4.55.93zm0 0" fill="#aeaaa7"/><path d="m165.7 127.32c0 1.1-20.8 2.03-46.54 2.03-18.05 0-33.75-.56-41.41-1.1h-.56c-2.92-.37-4.55-.56-4.55-.93h-.37c0 1.1 20.98 2.03 46.9 2.03 26.1 0 47.08-.92 47.08-2.03zm0 0" fill="#aeaaa7"/><path d="m166.25 127.32c0 1.1-20.99 2.03-47.09 2.03-25.9 0-46.89-.92-46.89-2.03h-.55c0 1.1 21.35 2.03 47.44 2.03 26.29 0 47.64-.92 47.64-2.03zm0 0" fill="#aeaaa5"/><path d="m166.8 127.32c0 1.1-21.35 2.03-47.64 2.03-26.1 0-47.44-.92-47.44-2.03h-.55c0 1.1 21.54 2.03 48 2.03s48-.92 48-2.03zm0 0" fill="#aeaaa5"/><path d="m167.16 127.32c0 1.1-21.53 2.03-48 2.03-26.45 0-48-.92-48-2.03h-.35c0 1.1 21.71 2.03 48.35 2.03 26.84 0 48.55-.92 48.55-2.03zm0 0" fill="#aeaaa5"/><path d="m167.7 127.32c0 1.1-21.7 2.03-48.54 2.03-26.64 0-48.35-.92-48.35-2.03h-.54c0 1.1 21.89 2.03 48.9 2.03 27 0 48.9-.92 48.9-2.03zm0 0" fill="#aeaaa5"/><path d="m168.07 127.32c0 1.1-21.9 2.03-48.9 2.03-27.01 0-48.9-.92-48.9-2.03h-.37c0 1.1 22.08 2.03 49.26 2.03 27.38 0 49.46-.92 49.46-2.03zm0 0" fill="#aeaaa5"/><path d="m168.62 127.32c0 1.1-22.08 2.03-49.46 2.03-27.18 0-49.26-.92-49.26-2.03h-.55c0 1.1 22.45 2.22 49.81 2.22 27.56 0 49.83-1.11 49.83-2.22zm0 0" fill="#aeaaa5"/><path d="m168.99 127.32c0 1.1-22.27 2.22-49.83 2.22-27.36 0-49.8-1.11-49.8-2.22h-.38c0 1.1 22.45 2.22 50.18 2.22 27.93 0 50.38-1.11 50.38-2.22zm0 0" fill="#aeaaa5"/><path d="m169.54 127.32c0 1.1-22.45 2.22-50.38 2.22-27.73 0-50.18-1.11-50.18-2.22h-.54c0 1.1 22.8 2.22 50.72 2.22 28.12 0 50.74-1.11 50.74-2.22zm0 0" fill="#aeaaa5"/><path d="m169.9 127.32c0 1.1-22.62 2.22-50.74 2.22-27.92 0-50.72-1.11-50.72-2.22h-.37c0 1.3 22.81 2.22 51.1 2.22 25.54 0 46.53-.75 50.55-1.85l.36-.37zm0 0" fill="#aeaaa5"/><path d="m169.72 127.7c-4.02 1.1-25 1.84-50.56 1.84-28.28 0-51.09-.93-51.09-2.22h-.54c0 1.3 23.17 2.22 51.63 2.22 24.82 0 45.63-.75 50.56-1.85zm0 0" fill="#aeaaa5"/><path d="m169.72 127.7c-4.93 1.1-25.74 1.84-50.56 1.84-28.46 0-51.63-.93-51.63-2.22h-.56c0 1.3 23.37 2.22 52.2 2.22 25.18 0 46.17-.75 51.1-1.85zm0 0" fill="#aeaaa5"/><path d="m170.27 127.7c-4.93 1.1-25.92 1.84-51.1 1.84-28.83 0-52.2-.93-52.2-2.22h-.36c0 1.3 23.54 2.22 52.55 2.22 25.38 0 46.54-.75 51.65-1.85zm0 0" fill="#aeaaa5"/><path d="m170.81 127.7c-5.1 1.1-26.27 1.84-51.65 1.84-29.01 0-52.55-.93-52.55-2.22h-.54c0 1.3 23.9 2.22 53.1 2.22 25.72 0 47.08-.75 52.01-1.85zm0 0" fill="#aeaaa5"/><path d="m171.18 127.7c-4.93 1.1-26.29 1.84-52.02 1.84-29.19 0-53.1-.93-53.1-2.22h-.18l.37.37c3.82 1.1 26.1 1.85 52.91 1.85 25.92 0 47.46-.75 52.57-1.85zm-105.3-.38h.19zm0 0" fill="#aeaaa5"/><path d="m171.73 127.7c-5.11 1.1-26.65 1.84-52.57 1.84-26.82 0-49.09-.75-52.91-1.85h.18-.18c5.1 1.1 26.82 2.02 52.91 2.02 26.29 0 48-.92 52.93-2.02zm0 0" fill="#aeaaa5"/><path d="m172.1 127.7c-4.94 1.1-26.65 2.01-52.94 2.01-26.1 0-47.8-.92-52.91-2.02h-.37c4.93 1.1 27.01 2.02 53.28 2.02 26.47 0 48.55-.92 53.48-2.02zm0 0" fill="#aeaaa5"/><path d="m172.64 127.7c-4.93 1.1-27.01 2.01-53.48 2.01-26.27 0-48.35-.92-53.28-2.02h-.55c4.94 1.1 27.2 2.02 53.83 2.02 26.65 0 48.91-.92 54.02-2.02zm0 0" fill="#aeaaa5"/><path d="m173.18 127.7c-5.1 1.1-27.37 2.01-54.02 2.01-26.64 0-48.9-.92-53.83-2.02h-.54c5.1 1.1 27.55 2.02 54.37 2.02 27.02 0 49.46-.92 54.4-2.02zm0 0" fill="#aeaaa5"/><path d="m173.55 127.7c-4.93 1.1-27.37 2.01-54.39 2.01-26.82 0-49.26-.92-54.37-2.02h-.37c4.93 1.1 27.56 2.02 54.74 2.02 27.2 0 49.83-.92 54.94-2.02zm0 0" fill="#aeaaa5"/><path d="m174.1 127.7c-5.11 1.1-27.74 2.01-54.94 2.01-27.18 0-49.8-.92-54.74-2.02h-.55c5.11 1.29 27.93 2.02 55.3 2.02 27.55 0 50.37-.73 55.3-2.02zm0 0" fill="#aeaaa5"/><path d="m174.46 127.7c-4.92 1.28-27.74 2.01-55.3 2.01-27.36 0-50.18-.73-55.28-2.02h-.37c4.93 1.29 28.1 2.02 55.65 2.02 27.75 0 50.74-.73 55.85-2.02zm0 0" fill="#aeaaa5"/><path d="m175.01 127.7c-5.1 1.28-28.1 2.01-55.85 2.01-27.55 0-50.72-.73-55.65-2.02h-.55c5.11 1.29 28.28 2.02 56.2 2.02 27.93 0 51.29-.73 56.4-2.02zm0 0" fill="#aeaaa5"/><path d="m175.56 127.7c-5.11 1.28-28.47 2.01-56.4 2.01-27.92 0-51.09-.73-56.2-2.02h-.55c5.12 1.29 28.65 2.02 56.75 2.02 28.3 0 51.83-.73 56.77-2.02zm0 0" fill="#aeaaa5"/><path d="m175.93 127.7c-4.94 1.28-28.47 2.01-56.77 2.01-28.1 0-51.63-.73-56.75-2.02h-.36c5.11 1.29 28.65 2.21 57.11 2.21 28.47 0 52.2-.92 57.3-2.2zm0 0" fill="#aeaaa5"/><path d="m176.47 127.7c-5.11 1.28-28.84 2.2-57.3 2.2-28.47 0-52.01-.92-57.12-2.2h-.55c5.11 1.28 29.02 2.2 57.66 2.2 28.84 0 52.75-.92 57.68-2.2zm0 0" fill="#aeaaa5"/><path d="m176.84 127.7c-4.93 1.28-28.84 2.2-57.68 2.2-28.64 0-52.55-.92-57.66-2.2h-.36c4.93 1.28 29.2 2.2 58.02 2.2 29.02 0 53.11-.92 58.22-2.2zm0 0" fill="#aeaba5"/><path d="m177.38 127.7c-5.1 1.28-29.2 2.2-58.22 2.2-28.82 0-53.1-.92-58.02-2.2h-.55c5.1 1.28 29.38 2.2 58.57 2.2 29.39 0 53.66-.92 58.77-2.2zm0 0" fill="#aeaba7"/><path d="m177.93 127.7c-5.11 1.28-29.38 2.2-58.77 2.2-29.19 0-53.46-.92-58.57-2.2h-.55c5.11 1.28 29.74 2.2 59.12 2.2 29.57 0 54.02-.92 59.14-2.2zm0 0" fill="#b0aca7"/><path d="m178.3 127.7c-5.12 1.28-29.57 2.2-59.14 2.2-29.38 0-54-.92-59.12-2.2h-.36c5.1 1.28 29.75 2.2 59.48 2.2 29.75 0 54.57-.92 59.68-2.2zm0 0" fill="#b0aca7"/><path d="m178.84 127.7c-5.11 1.28-29.93 2.2-59.68 2.2-29.73 0-54.37-.92-59.48-2.2h-.55c5.11 1.28 30.1 2.2 60.03 2.2 30.12 0 54.94-.92 60.05-2.2zm0 0" fill="#b0aea8"/><path d="m179.2 127.7c-5.1 1.28-29.92 2.2-60.04 2.2-29.92 0-54.92-.92-60.03-2.2h-.36c5.1 1.28 30.1 2.2 60.4 2.2s55.47-.92 60.58-2.2zm0 0" fill="#b2afa8"/><path d="m179.75 127.7c-5.1 1.28-30.29 2.2-60.59 2.2-30.29 0-55.28-.92-60.4-2.2h-.54c5.1 1.28 30.47 2.2 60.94 2.2 30.67 0 56.03-.92 61.14-2.2zm0 0" fill="#b2afaa"/><path d="m180.3 127.7c-5.1 1.28-30.47 2.2-61.14 2.2-30.47 0-55.83-.92-60.94-2.2h-.55c5.1 1.28 30.84 2.2 61.5 2.2 30.83 0 56.39-.92 61.5-2.2zm0 0" fill="#b2b1ab"/><path d="m180.67 127.7c-5.11 1.28-30.67 2.2-61.5 2.2-30.66 0-56.4-.92-61.5-2.2h-.37c5.11 1.28 30.84 2.38 61.86 2.38 31.04 0 56.94-1.1 62.05-2.39zm0 0" fill="#b5b2ad"/><path d="m181.21 127.7c-5.1 1.28-31.01 2.38-62.05 2.38-31.02 0-56.75-1.1-61.86-2.39h-.54c5.11 1.29 31.2 2.4 62.4 2.4 31.4 0 57.3-1.11 62.42-2.4zm0 0" fill="#b5b3ad"/><path d="m181.58 127.7c-5.11 1.28-31.02 2.38-62.42 2.38-31.2 0-57.29-1.1-62.4-2.39h-.37c5.11 1.29 31.21 2.4 62.77 2.4 31.58 0 57.86-1.11 62.97-2.4zm0 0" fill="#b5b3ad"/><path d="m182.13 127.7c-5.11 1.28-31.4 2.38-62.97 2.38-31.56 0-57.66-1.1-62.77-2.39h-.54c5.1 1.48 31.56 2.4 63.31 2.4 31.95 0 58.22-.92 63.51-2.4zm0 0" fill="#b6b4af"/><path d="m182.67 127.7c-5.29 1.47-31.56 2.38-63.5 2.38-31.76 0-58.21-.91-63.32-2.39h-.37c5.11 1.48 31.75 2.4 63.68 2.4 32.13 0 58.77-.92 63.88-2.4zm0 0" fill="#b6b4af"/><path d="m183.04 127.7c-5.11 1.47-31.75 2.38-63.88 2.38-31.93 0-58.57-.91-63.68-2.39h-.55c5.11 1.48 31.94 2.4 64.23 2.4 32.31 0 59.31-.92 64.43-2.4zm0 0" fill="#b9b6b0"/><path d="m183.59 127.7c-5.12 1.47-32.12 2.38-64.43 2.38-32.3 0-59.12-.91-64.23-2.39h-.54c5.29 1.48 32.3 2.4 64.77 2.4 32.67 0 59.68-.92 64.8-2.4zm0 0" fill="#b9b6b2"/><path d="m183.95 127.7c-5.11 1.47-32.12 2.38-64.79 2.38-32.47 0-59.48-.91-64.77-2.39h-.37c5.1 1.48 32.3 2.4 65.14 2.4 32.86 0 60.23-.92 65.34-2.4zm0 0" fill="#b9b6b2"/><path d="m184.5 127.7c-5.11 1.47-32.48 2.38-65.34 2.38-32.84 0-60.03-.91-65.14-2.39h-.55c5.12 1.48 32.67 2.4 65.7 2.4 33.2 0 60.58-.92 65.7-2.4zm0 0" fill="#b9b8b3"/><path d="m184.86 127.7c-5.1 1.47-32.48 2.38-65.7 2.38-33.02 0-60.57-.91-65.69-2.39h-.36c5.1 1.48 32.66 2.58 66.05 2.58 33.4 0 61.14-1.1 66.25-2.58zm0 0" fill="#bab8b5"/><path d="m185.41 127.7c-5.1 1.47-32.84 2.57-66.25 2.57-33.39 0-60.94-1.1-66.05-2.58h-.55c5.11 1.48 33.03 2.58 66.6 2.58 33.77 0 61.5-1.1 66.8-2.58zm0 0" fill="#bab8b5"/><path d="m185.96 127.7c-5.3 1.47-33.03 2.57-66.8 2.57-33.57 0-61.49-1.1-66.6-2.58h-.55c5.3 1.48 33.4 2.58 67.15 2.58 33.95 0 62.05-1.1 67.16-2.58zm0 0" fill="#bdb9b5"/><path d="m186.32 127.7c-5.1 1.47-33.21 2.57-67.16 2.57-33.75 0-61.86-1.1-67.15-2.58h-.36c5.1 1.48 33.39 2.58 67.51 2.58 34.13 0 62.42-1.1 67.71-2.58zm0 0" fill="#bdbbb7"/><path d="m186.87 127.7c-5.29 1.47-33.58 2.57-67.7 2.57-34.13 0-62.41-1.1-67.52-2.58h-.56c5.3 1.48 33.77 2.58 68.07 2.58 34.5 0 62.97-1.1 68.08-2.58zm0 0" fill="#bdbbb7"/><path d="m187.24 127.7c-5.12 1.47-33.58 2.57-68.08 2.57-34.3 0-62.77-1.1-68.07-2.58h-.36c5.12 1.48 33.76 2.58 68.43 2.58 34.68 0 63.51-1.1 68.62-2.58zm0 0" fill="#bdbbb7"/><path d="m187.78 127.7c-5.1 1.47-33.94 2.57-68.62 2.57-34.67 0-63.31-1.1-68.43-2.58h-.54c5.1 1.48 34.13 2.58 68.97 2.58 35.04 0 63.88-1.1 69.17-2.58zm0 0" fill="#bfbcb9"/><path d="m188.33 127.7c-5.3 1.47-34.13 2.57-69.17 2.57-34.84 0-63.87-1.1-68.97-2.58h-.55c5.3 1.48 34.49 2.58 69.52 2.58 35.23 0 64.43-1.1 69.54-2.58zm0 0" fill="#bfbcb9"/><path d="m188.7 127.7c-5.11 1.47-34.3 2.57-69.54 2.57-35.03 0-64.23-1.1-69.52-2.58h-.36c5.1 1.48 34.48 2.58 69.88 2.58 35.41 0 64.8-1.1 70.08-2.58zm0 0" fill="#bfbcb9"/><path d="m189.24 127.7c-5.29 1.47-34.67 2.57-70.08 2.57-35.4 0-64.77-1.1-69.88-2.58h-.56c5.3 1.48 34.86 2.76 70.44 2.76 35.78 0 65.34-1.28 70.45-2.76zm0 0" fill="#c1beba"/><path d="m189.6 127.7c-5.1 1.47-34.66 2.75-70.44 2.75-35.58 0-65.14-1.28-70.44-2.76h-.36c5.11 1.66 34.85 2.76 70.8 2.76 35.96 0 65.7-1.1 71-2.76zm0 0" fill="#c1bebb"/><path d="m190.15 127.7c-5.29 1.65-35.03 2.75-70.99 2.75-35.95 0-65.69-1.1-70.8-2.76h-.55c5.3 1.66 35.23 2.76 71.35 2.76 36.5 0 66.44-1.1 71.55-2.76h-.56zm0 0" fill="#c1c0bc"/><path d="m190.71 127.7c-5.11 1.65-35.05 2.75-71.55 2.75-36.12 0-66.05-1.1-71.35-2.76h-.36c5.11 1.66 35.4 2.76 71.71 2.76 37.23 0 67.71-1.28 72.1-2.76h-.55zm0 0" fill="#c1c0bc"/><path d="m191.25 127.7c-4.38 1.47-34.86 2.75-72.09 2.75-36.3 0-66.6-1.1-71.7-2.76h-.57c5.3 1.66 35.6 2.76 72.27 2.76 38.33 0 69.72-1.28 73-2.94-.36.18-.54.18-.9.18zm0 0" fill="#c4c1be"/><path d="m192.17 127.51c-3.29 1.66-34.68 2.94-73 2.94-36.68 0-66.97-1.1-72.28-2.76h-.54c5.3 1.66 35.95 2.76 72.81 2.76 39.8 0 72.27-1.28 73.55-2.94zm0 0" fill="#c4c1be"/><path d="m192.71 127.51c-1.28 1.66-33.75 2.94-73.55 2.94-36.86 0-67.51-1.1-72.8-2.76h-.37c5.1 1.66 35.96 2.76 73.17 2.76 40.89 0 74.1-1.47 74.1-3.13-.18 0-.37 0-.55.2zm0 0" fill="#c6c3bf"/><path d="m193.26 127.32c0 1.66-33.21 3.13-74.1 3.13-37.21 0-68.07-1.1-73.17-2.76h-.55c5.1 1.66 36.14 2.76 73.72 2.76 41.25 0 74.64-1.28 74.64-3.13l-.18-.18c-.18 0-.18.18-.36.18zm0 0" fill="#c6c3bf"/><path d="m193.63 127.14.17.18c0 1.85-33.39 3.13-74.64 3.13-37.58 0-68.61-1.1-73.72-2.76h-.55c4.57 1.66 36.14 2.76 74.27 2.76 41.43 0 75.01-1.28 75.01-3.13 0-.18 0-.18-.18-.36-.19.18-.19.18-.37.18zm0 0" fill="#c5c3c0"/><path d="m194 126.96c.17.18.17.18.17.36 0 1.85-33.58 3.13-75 3.13-38.14 0-69.71-1.1-74.28-2.76h-.72c3.28 1.48 35.58 2.95 75 2.95 41.8 0 75.55-1.47 75.55-3.32 0-.18-.18-.18-.55-.36zm0 0" fill="#c5c3c0"/><path d="m194.17 126.96c.37.18.55.18.55.36 0 1.85-33.76 3.32-75.56 3.32-39.41 0-71.7-1.47-75-2.95-.36-.18-.55-.18-.73-.18 1.65 1.66 34.86 3.13 75.73 3.13 41.98 0 75.93-1.47 75.93-3.32 0-.18-.18-.36-.74-.54 0 .18-.18.18-.18.18zm0 0" fill="#c8c6c1"/><path d="m194.35 126.78c.56.18.74.36.74.54 0 1.85-33.95 3.32-75.93 3.32-40.87 0-74.08-1.47-75.73-3.13-.18-.19-.36-.19-.54-.19 0 1.85 34.12 3.32 76.27 3.32 42.17 0 76.47-1.47 76.47-3.32 0-.18-.36-.36-1.1-.54zm-151.46.54" fill="#c8c6c3"/><path d="m42.89 127.32c-.2 0-.37-.18-.37-.18-.18 0-.18.18-.18.18zm151.65-.54c.73.18 1.1.36 1.1.54 0 1.85-34.31 3.32-76.48 3.32-42.15 0-76.27-1.47-76.27-3.32h-.55c0 1.85 34.5 3.32 76.82 3.32 42.52 0 76.84-1.47 76.84-3.32 0-.18-.37-.36-1.28-.54zm0 0" fill="#cac6c3"/><path d="m42.34 127.32s0-.18.18-.18h-.37c-.18 0-.18 0-.18.18zm152.38-.54c.91.18 1.28.36 1.28.54 0 1.85-34.32 3.32-76.84 3.32-42.33 0-76.82-1.47-76.82-3.32h-.37c0 1.85 34.5 3.32 77.2 3.32s77.37-1.47 77.37-3.32c0-.18-.54-.54-1.63-.73zm0 0" fill="#cac6c3"/><path d="m41.97 127.32c0-.18 0-.18.18-.18 0-.18-.18-.18-.18-.18-.36.18-.54.18-.54.36zm152.94-.73c1.09.19 1.63.55 1.63.73 0 1.85-34.66 3.32-77.38 3.32-42.7 0-77.19-1.47-77.19-3.32h-.54c0 1.85 34.85 3.32 77.73 3.32 43.08 0 77.75-1.47 77.75-3.32 0-.18-.54-.54-2-.73zm0 0" fill="#cac8c4"/><path d="m41.43 127.32c0-.18.18-.18.54-.36h-.36c-.37 0-.55.18-.55.36zm153.48-.73c1.46.19 2 .55 2 .73 0 1.85-34.67 3.32-77.75 3.32-42.88 0-77.73-1.47-77.73-3.32h-.37c0 1.85 35.04 3.32 78.1 3.32 43.26 0 78.3-1.47 78.3-3.32 0-.36-.74-.54-2.37-.73zm0 0" fill="#ccc9c4"/><path d="m41.06 127.32c0-.18.18-.36.55-.36 0-.18 0-.18-.18-.18-.55.18-.91.36-.91.54zm154.03-.73c1.63.19 2.37.37 2.37.73 0 1.85-35.04 3.32-78.3 3.32-43.06 0-78.1-1.47-78.1-3.32h-.54c0 1.85 35.21 3.32 78.64 3.32 43.44 0 78.84-1.47 78.84-3.32 0-.36-1.09-.54-2.73-.91zm0 0" fill="#cccac6"/><path d="m40.52 127.32c0-.18.36-.36.91-.54-.91.18-1.46.36-1.46.54zm154.75-.91c1.64.37 2.73.55 2.73.91 0 1.85-35.4 3.32-78.84 3.32-43.43 0-78.64-1.47-78.64-3.32h-.55c0 1.85 35.58 3.32 79.2 3.32 43.8 0 79.2-1.47 79.2-3.32 0-.36-1.1-.73-3.1-.91zm0 0" fill="#cccac6"/><path d="m39.97 127.32c0-.18.55-.36 1.46-.54l-.2-.19c-1.08.19-1.63.55-1.63.73zm155.3-.91c2 .18 3.1.55 3.1.91 0 1.85-35.4 3.32-79.2 3.32-43.62 0-79.2-1.47-79.2-3.32h-.37c0 1.85 35.59 3.5 79.56 3.5 44 0 79.75-1.65 79.75-3.5 0-.36-1.27-.73-3.46-.91zm0 0" fill="#cccac8"/><path d="m39.6 127.32c0-.18.55-.54 1.64-.73h-.18c-1.28.19-2 .55-2 .73zm155.85-.91c2.19.18 3.46.55 3.46.91 0 1.85-35.76 3.5-79.75 3.5-43.97 0-79.56-1.65-79.56-3.5h-.55c0 1.85 35.96 3.5 80.11 3.5 44.35 0 80.12-1.65 80.12-3.5 0-.36-1.28-.73-3.83-1.1zm0 0" fill="#cccac8"/><path d="m39.05 127.32c0-.18.73-.54 2.01-.73h-.18c-1.47.19-2.19.37-2.19.73zm156.4-1.1c2.55.37 3.83.74 3.83 1.1 0 1.85-35.77 3.5-80.12 3.5-44.15 0-80.1-1.65-80.1-3.5h-.37c0 1.85 35.95 3.5 80.47 3.5 44.54 0 80.67-1.65 80.67-3.5 0-.36-1.46-.73-4.2-1.1zm0 0" fill="#cecbc8"/><path d="m38.7 127.32c0-.36.71-.54 2.18-.73v-.18c-1.83.37-2.74.55-2.74.91zm156.93-1.1c2.74.37 4.2.74 4.2 1.1 0 1.85-36.13 3.5-80.67 3.5-44.52 0-80.47-1.65-80.47-3.5h-.55c0 1.85 36.32 3.5 81.02 3.5 44.9 0 81.04-1.65 81.04-3.5 0-.36-1.65-.73-4.57-1.1zm0 0" fill="#cecbc8"/><path d="m38.14 127.32c0-.36.91-.54 2.74-.91h-.18c-2 .18-2.92.55-2.92.91zm157.5-1.1c2.9.37 4.56.74 4.56 1.1 0 1.85-36.15 3.5-81.04 3.5-44.7 0-81.02-1.65-81.02-3.5h-.36c0 1.85 36.5 3.5 81.38 3.5 45.09 0 81.58-1.65 81.58-3.5 0-.36-1.83-.91-4.92-1.28zm0 0" fill="#d0ceca"/><path d="m37.78 127.32c0-.36.91-.73 2.92-.91-2.2.18-3.47.55-3.47.91zm158.04-1.28c3.1.37 4.92.92 4.92 1.28 0 1.85-36.5 3.5-81.58 3.5-44.89 0-81.38-1.65-81.38-3.5h-.55c0 2.03 36.68 3.5 81.93 3.5 45.26 0 81.95-1.47 81.95-3.5 0-.36-1.83-.91-5.29-1.28zm0 0" fill="#d0cecc"/><path d="m37.23 127.32c0-.36 1.27-.73 3.47-.91l-.18-.19c-2.38.37-3.66.74-3.66 1.1zm158.59-1.28c3.46.37 5.29.92 5.29 1.28 0 2.03-36.69 3.5-81.95 3.5-45.25 0-81.93-1.47-81.93-3.5h-.37c0 2.03 36.87 3.5 82.3 3.5 45.63 0 82.5-1.47 82.5-3.5 0-.54-2.01-.91-5.84-1.28zm0 0" fill="#d0cecc"/><path d="m36.86 127.32c0-.36 1.28-.73 3.66-1.1-2.74.37-4.2.74-4.2 1.1zm158.96-1.28c3.83.37 5.84.74 5.84 1.28 0 2.03-36.87 3.5-82.5 3.5-45.43 0-82.3-1.47-82.3-3.5h-.54c0 2.03 37.04 3.5 82.84 3.5s83.04-1.47 83.04-3.5c0-.54-2.18-.91-6.2-1.28zm0 0" fill="#d0cfce"/><path d="m36.32 127.32c0-.36 1.46-.73 4.2-1.1h-.2c-2.91.37-4.37.74-4.37 1.1zm159.68-1.28c4.02.37 6.2.74 6.2 1.28 0 2.03-37.23 3.5-83.04 3.5-45.8 0-82.84-1.47-82.84-3.5h-.37c0 2.03 37.23 3.5 83.21 3.5 46.18 0 83.4-1.47 83.4-3.5 0-.54-2.36-.91-6.56-1.46zm0 0" fill="#d2d0ce"/><path d="m35.95 127.32c0-.36 1.46-.73 4.38-1.1v-.18c-3.29.37-4.92.92-4.92 1.28zm160.05-1.46c4.2.55 6.57.92 6.57 1.46 0 2.03-37.23 3.5-83.4 3.5-45.99 0-83.22-1.47-83.22-3.5h-.54c0 2.03 37.58 3.5 83.75 3.5 46.36 0 83.95-1.47 83.95-3.5 0-.54-2.55-.91-7.11-1.46zm0 0" fill="#d2d0ce"/><path d="m35.4 127.32c0-.36 1.64-.91 4.93-1.28h-.18c-3.29.37-5.3.92-5.3 1.28zm160.6-1.46c4.56.55 7.11.92 7.11 1.46 0 2.03-37.59 3.5-83.95 3.5-46.17 0-83.75-1.47-83.75-3.5h-.55c0 2.03 37.78 3.68 84.3 3.68 46.54 0 84.32-1.65 84.32-3.68 0-.54-2.56-1.1-7.3-1.46zm0 0" fill="#d4d1ce"/><path d="m34.86 127.32c0-.36 2-.91 5.29-1.28-3.65.37-5.66.74-5.66 1.28zm161.32-1.46c4.74.36 7.3.92 7.3 1.46 0 2.03-37.78 3.68-84.32 3.68-46.52 0-84.3-1.65-84.3-3.68h-.37c0 2.03 37.96 3.68 84.67 3.68 46.91 0 84.87-1.65 84.87-3.68 0-.54-2.92-1.1-7.85-1.46zm0 0" fill="#d4d3d1"/><path d="m34.5 127.32c0-.54 2-.91 5.65-1.28-4.02.37-6.2.74-6.2 1.28zm161.68-1.46c4.93.36 7.85.92 7.85 1.46 0 2.03-37.96 3.68-84.87 3.68-46.71 0-84.67-1.65-84.67-3.68h-.54c0 2.03 38.13 3.68 85.21 3.68 47.09 0 85.23-1.65 85.23-3.68 0-.54-2.91-1.1-8.21-1.64zm0 0" fill="#d4d3d1"/><path d="m33.95 127.32c0-.54 2.18-.91 6.2-1.28l-.18-.18c-4.2.55-6.4.92-6.4 1.46zm162.23-1.64c5.3.54 8.21 1.1 8.21 1.64 0 2.03-38.14 3.68-85.23 3.68-47.08 0-85.21-1.65-85.21-3.68h-.37c0 2.03 38.32 3.68 85.58 3.68 47.46 0 85.78-1.65 85.78-3.68 0-.54-3.1-1.1-8.57-1.64zm0 0" fill="#d4d3d1"/><path d="m33.58 127.32c0-.54 2.2-.91 6.39-1.46-4.39.55-6.93.92-6.93 1.46zm162.79-1.64c5.46.54 8.57 1.1 8.57 1.64 0 2.03-38.32 3.68-85.78 3.68-47.26 0-85.58-1.65-85.58-3.68h-.54c0 2.03 38.68 3.68 86.12 3.68 47.64 0 86.14-1.65 86.14-3.68 0-.54-3.1-1.1-8.93-1.64zm0 0" fill="#d6d4d2"/><path d="m33.04 127.32c0-.54 2.54-.91 6.93-1.46h-.19c-4.56.36-7.11.92-7.11 1.46zm163.33-1.64c5.83.54 8.93 1.1 8.93 1.64 0 2.03-38.5 3.68-86.14 3.68-47.44 0-86.12-1.65-86.12-3.68h-.37c0 2.03 38.69 3.68 86.5 3.68s86.68-1.65 86.68-3.68c0-.54-3.46-1.1-9.48-1.64zm0 0" fill="#d7d5d3"/><path d="m32.67 127.32c0-.54 2.55-1.1 7.11-1.46-4.92.36-7.66.92-7.66 1.46zm163.7-1.64c6.02.54 9.48 1.1 9.48 1.64 0 2.03-38.87 3.68-86.69 3.68-47.8 0-86.5-1.65-86.5-3.68h-.54c0 2.03 39.05 3.68 87.04 3.68 48.2 0 87.24-1.65 87.24-3.68 0-.54-3.65-1.28-9.86-1.64zm0 0" fill="#d8d6d3"/><path d="m32.12 127.32c0-.54 2.74-1.1 7.66-1.46v-.18c-5.29.54-8.03 1.1-8.03 1.64zm164.42-1.64c6.2.36 9.86 1.1 9.86 1.64 0 2.03-39.05 3.68-87.24 3.68-48 0-87.04-1.65-87.04-3.68h-.37c0 2.03 39.06 3.68 87.41 3.68 48.37 0 87.6-1.65 87.6-3.68 0-.54-3.65-1.28-10.22-1.83zm0 0" fill="#d8d8d6"/><path d="m31.75 127.32c0-.54 2.74-1.1 8.03-1.64h-.18c-5.29.54-8.4 1.1-8.4 1.64zm164.8-1.83c6.56.55 10.22 1.29 10.22 1.83 0 2.03-39.24 3.68-87.6 3.68s-87.42-1.65-87.42-3.68h-.54c0 2.03 39.41 3.68 87.95 3.68 48.73 0 88.15-1.65 88.15-3.68 0-.73-4-1.28-10.77-1.83zm0 0" fill="#d8d8d6"/><path d="m31.2 127.32c0-.54 3.11-1.1 8.4-1.64-5.65.54-8.94 1.1-8.94 1.64zm165.34-1.83c6.76.55 10.77 1.1 10.77 1.83 0 2.03-39.42 3.68-88.15 3.68-48.54 0-87.95-1.65-87.95-3.68h-.55c0 2.03 39.78 3.86 88.5 3.86 48.91 0 88.52-1.83 88.52-3.86 0-.73-4.02-1.28-11.14-1.83zm0 0" fill="#dbd9d6"/><path d="m30.66 127.32c0-.54 3.29-1.1 8.94-1.64-6.02.54-9.3 1.1-9.3 1.64zm165.88-1.83c7.12.55 11.14 1.1 11.14 1.83 0 2.03-39.6 3.86-88.52 3.86-48.72 0-88.5-1.83-88.5-3.86h-.37c0 2.03 39.78 3.86 88.87 3.86 49.1 0 89.06-1.83 89.06-3.86 0-.73-4.2-1.28-11.5-1.83zm0 0" fill="#dbd9d6"/><path d="m30.3 127.32c0-.54 3.28-1.1 9.3-1.64-6.2.36-9.85 1.1-9.85 1.64zm166.42-1.83c7.3.55 11.5 1.1 11.5 1.83 0 2.03-39.97 3.86-89.06 3.86s-88.87-1.83-88.87-3.86h-.54c0 2.03 40.15 3.86 89.41 3.86 49.46 0 89.43-1.83 89.43-3.86 0-.73-4.2-1.28-11.87-1.83zm0 0" fill="#dbd9d8"/><path d="m29.75 127.32c0-.54 3.65-1.28 9.85-1.64l-.19-.2c-6.37.56-10.03 1.11-10.03 1.84zm166.97-1.83c7.67.55 11.87 1.1 11.87 1.83 0 2.03-39.97 3.86-89.43 3.86-49.26 0-89.41-1.83-89.41-3.86h-.37c0 2.22 40.15 3.86 89.78 3.86 49.65 0 89.98-1.64 89.98-3.86 0-.73-4.57-1.46-12.42-2.01zm0 0" fill="#dcdbd9"/><path d="m29.38 127.32c0-.73 3.66-1.28 10.03-1.83-6.74.55-10.57 1.1-10.57 1.83zm167.34-2.01c7.85.55 12.42 1.28 12.42 2.01 0 2.22-40.33 3.86-89.98 3.86-49.63 0-89.78-1.64-89.78-3.86h-.54c0 2.22 40.51 3.86 90.32 3.86 50 0 90.34-1.64 90.34-3.86 0-.73-4.56-1.46-12.78-2.01zm0 0" fill="#dcdbd9"/><path d="m28.84 127.32c0-.73 3.83-1.28 10.57-1.83-7.1.55-10.94 1.1-10.94 1.83zm167.88-2.01c8.22.55 12.78 1.28 12.78 2.01 0 2.22-40.33 3.86-90.34 3.86-49.8 0-90.32-1.64-90.32-3.86h-.37c0 2.22 40.51 3.86 90.7 3.86s90.88-1.64 90.88-3.86c0-.73-4.75-1.46-13.14-2.01zm0 0" fill="#dcdbd9"/><path d="m28.47 127.32c0-.73 3.83-1.28 10.94-1.83-7.29.55-11.49 1.1-11.49 1.83zm168.44-2.01c8.4.55 13.14 1.28 13.14 2.01 0 2.22-40.7 3.86-90.89 3.86-50.18 0-90.7-1.64-90.7-3.86h-.54c0 2.22 40.88 3.86 91.24 3.86 50.56 0 91.26-1.64 91.26-3.86 0-.73-4.94-1.46-13.51-2.01zm0 0" fill="#dcdbdb"/><path d="m27.92 127.32c0-.73 4.2-1.28 11.5-1.83l-.19-.18c-7.48.73-11.68 1.28-11.68 2.01zm168.99-2.01c8.57.55 13.5 1.28 13.5 2.01 0 2.22-40.69 3.86-91.25 3.86-50.36 0-91.24-1.64-91.24-3.86h-.37c0 2.22 41.07 3.86 91.61 3.86 50.74 0 91.8-1.64 91.8-3.86 0-.73-5.1-1.46-14.05-2.01zm0 0" fill="#dcdddc"/><path d="m27.55 127.32c0-.73 4.2-1.28 11.68-2.01-7.84.55-12.22 1.28-12.22 2.01zm169.36-2.01c8.94.55 14.05 1.28 14.05 2.01 0 2.22-41.06 3.86-91.8 3.86-50.54 0-91.6-1.64-91.6-3.86h-.56c0 2.22 41.24 3.86 92.15 3.86 50.92 0 92.35-1.64 92.35-3.86 0-.73-5.3-1.46-14.6-2.2zm0 0" fill="#dfdedc"/><path d="m27.01 127.32c0-.73 4.38-1.46 12.22-2.01-8.02.55-12.77 1.28-12.77 2.01zm169.9-2.2c9.3.74 14.6 1.47 14.6 2.2 0 2.22-41.43 3.86-92.35 3.86-50.91 0-92.15-1.64-92.15-3.86h-.55c0 2.22 41.61 4.05 92.7 4.05 51.29 0 92.72-1.83 92.72-4.05 0-.73-5.48-1.46-14.79-2.2zm0 0" fill="#dfdedc"/><path d="m26.46 127.32c0-.73 4.75-1.46 12.77-2.01-8.39.55-13.13 1.28-13.13 2.01zm170.63-2.2c9.3.74 14.78 1.47 14.78 2.2 0 2.22-41.42 4.05-92.7 4.05-51.1 0-92.7-1.83-92.7-4.05h-.37c0 2.22 41.6 4.05 93.06 4.05 51.48 0 93.26-1.83 93.26-4.05 0-.73-5.65-1.64-15.33-2.2zm0 0" fill="#dfdedc"/><path d="m26.1 127.32c0-.73 4.74-1.46 13.13-2.01h-.18c-8.58.55-13.5 1.28-13.5 2.01zm170.99-2.2c9.68.56 15.33 1.47 15.33 2.2 0 2.22-41.78 4.05-93.26 4.05-51.46 0-93.06-1.83-93.06-4.05h-.55c0 2.22 41.98 4.05 93.61 4.05 51.83 0 93.63-1.83 93.63-4.05 0-.91-5.84-1.64-15.7-2.2zm0 0" fill="#e0dfdd"/><path d="m25.55 127.32c0-.73 4.92-1.46 13.5-2.01-8.76.55-13.87 1.28-13.87 2.01zm171.54-2.2c9.86.56 15.7 1.29 15.7 2.2 0 2.22-41.8 4.05-93.63 4.05-51.63 0-93.6-1.83-93.6-4.05h-.38c0 2.22 42.16 4.05 93.98 4.05 52.02 0 94.17-1.83 94.17-4.05 0-.91-6.02-1.64-16.24-2.2zm0 0" fill="#e0dfdd"/><path d="m25.18 127.32c0-.73 5.11-1.46 13.87-2.01v-.19c-9.12.74-14.41 1.47-14.41 2.2zm171.91-2.2c10.22.56 16.24 1.29 16.24 2.2 0 2.22-42.15 4.05-94.17 4.05-51.82 0-93.98-1.83-93.98-4.05h-.54c0 2.22 42.33 4.05 94.52 4.05 52.2 0 94.54-1.83 94.54-4.05 0-.91-6.02-1.64-16.61-2.2zm0 0" fill="#e3e1e0"/><path d="m24.64 127.32c0-.73 5.29-1.46 14.41-2.2-9.49.74-14.78 1.47-14.78 2.2zm172.45-2.2c10.59.56 16.6 1.29 16.6 2.2 0 2.22-42.33 4.05-94.53 4.05s-94.52-1.83-94.52-4.05h-.37c0 2.22 42.52 4.05 94.9 4.05 52.56 0 95.08-1.83 95.08-4.05 0-.91-6.4-1.64-16.97-2.38zm0 0" fill="#e3e1e0"/><path d="m24.27 127.32c0-.73 5.3-1.46 14.78-2.2h-.18c-9.49.56-15.14 1.47-15.14 2.2zm173-2.38c10.59.74 16.98 1.47 16.98 2.38 0 2.22-42.52 4.05-95.09 4.05-52.37 0-94.89-1.83-94.89-4.05h-.54c0 2.22 42.7 4.05 95.43 4.05 52.75 0 95.45-1.83 95.45-4.05 0-.91-6.39-1.64-17.33-2.38zm0 0" fill="#e3e3e1"/><path d="m23.73 127.32c0-.73 5.65-1.64 15.14-2.2-9.85.56-15.51 1.29-15.51 2.2zm173.55-2.38c10.94.74 17.33 1.47 17.33 2.38 0 2.22-42.7 4.05-95.45 4.05-52.73 0-95.43-1.83-95.43-4.05h-.37c0 2.22 42.89 4.05 95.8 4.05 53.11 0 96-1.83 96-4.05 0-.91-6.57-1.64-17.88-2.38zm0 0" fill="#e3e3e1"/><path d="m23.36 127.32c0-.91 5.66-1.64 15.5-2.2-10.21.56-16.05 1.29-16.05 2.2zm173.92-2.38c11.31.74 17.88 1.47 17.88 2.38 0 2.22-42.89 4.05-96 4.05-52.91 0-95.8-1.83-95.8-4.05h-.55c0 2.22 43.26 4.05 96.35 4.05 53.3 0 96.55-1.83 96.55-4.05 0-.91-6.94-1.64-18.43-2.38zm0 0" fill="#e5e4e1"/><path d="m22.81 127.32c0-.91 5.84-1.64 16.06-2.2v-.18c-10.4.74-16.42 1.47-16.42 2.38zm174.47-2.38c11.49.74 18.43 1.47 18.43 2.38 0 2.22-43.26 4.05-96.55 4.05-53.1 0-96.35-1.83-96.35-4.05h-.36c0 2.22 43.25 4.23 96.71 4.23 53.48 0 96.91-2.01 96.91-4.23 0-.91-6.93-1.83-18.8-2.38zm0 0" fill="#e5e4e3"/><path d="m22.45 127.32c0-.91 6.02-1.64 16.42-2.38-10.77.74-16.97 1.47-16.97 2.38zm174.83-2.38c11.86.55 18.8 1.47 18.8 2.38 0 2.22-43.44 4.23-96.92 4.23-53.46 0-96.71-2.01-96.71-4.23h-.55c0 2.22 43.61 4.23 97.26 4.23 53.85 0 97.46-2.01 97.46-4.23 0-.91-7.12-1.83-19.16-2.57zm0 0" fill="#e5e4e3"/><path d="m21.9 127.32c0-.91 6.2-1.64 16.97-2.38h-.18c-10.77.74-17.33 1.47-17.33 2.38zm175.56-2.57c12.04.74 19.16 1.66 19.16 2.57 0 2.22-43.61 4.23-97.46 4.23-53.65 0-97.26-2.01-97.26-4.23h-.54c0 2.4 43.8 4.23 97.8 4.23 54.02 0 97.82-1.84 97.82-4.23 0-.91-7.3-1.83-19.52-2.57zm0 0" fill="#e7e5e3"/><path d="m21.36 127.32c0-.91 6.56-1.64 17.33-2.38-11.14.74-17.7 1.47-17.7 2.38zm176.1-2.57c12.22.74 19.52 1.66 19.52 2.57 0 2.4-43.8 4.23-97.82 4.23-54 0-97.8-1.84-97.8-4.23h-.37c0 2.4 43.97 4.23 98.17 4.23 54.4 0 98.37-1.84 98.37-4.23 0-.91-7.48-1.83-20.07-2.57zm0 0" fill="#e7e7e6"/><path d="m20.99 127.32c0-.91 6.56-1.64 17.7-2.38-11.5.55-18.25 1.47-18.25 2.38zm176.47-2.57c12.6.74 20.07 1.66 20.07 2.57 0 2.4-43.98 4.23-98.37 4.23-54.2 0-98.17-1.84-98.17-4.23h-.55c0 2.4 44.35 4.23 98.72 4.23 54.57 0 98.74-1.84 98.74-4.23 0-.91-7.67-1.83-20.44-2.57zm0 0" fill="#e7e7e6"/><path d="m20.44 127.32c0-.91 6.75-1.83 18.25-2.38-11.68.55-18.62 1.47-18.62 2.38zm177.02-2.57c12.77.74 20.44 1.66 20.44 2.57 0 2.4-44.17 4.23-98.74 4.23-54.37 0-98.72-1.84-98.72-4.23h-.37c0 2.4 44.35 4.23 99.1 4.23 54.93 0 99.28-1.84 99.28-4.23 0-.91-7.86-1.83-21-2.57zm0 0" fill="#e7e8e7"/><path d="m20.07 127.32c0-.91 6.94-1.83 18.62-2.38v-.19c-12.05.74-19.16 1.66-19.16 2.57zm177.39-2.57c13.13.74 20.99 1.66 20.99 2.57 0 2.4-44.35 4.23-99.29 4.23-54.74 0-99.09-1.84-99.09-4.23h-.54c0 2.4 44.71 4.23 99.63 4.23 55.12 0 99.65-1.84 99.65-4.23 0-.91-7.85-1.83-21.35-2.57zm0 0" fill="#e9e9e7"/><path d="m19.53 127.32c0-.91 7.11-1.83 19.16-2.57h-.19c-12.22.74-19.34 1.66-19.34 2.57zm177.93-2.57c13.5.74 21.35 1.66 21.35 2.57 0 2.4-44.53 4.23-99.65 4.23-54.92 0-99.63-1.84-99.63-4.23h-.37c0 2.4 44.72 4.23 100 4.23 55.3 0 100.2-1.84 100.2-4.23 0-1.1-8.22-2.01-21.72-2.75zm0 0" fill="#e9e9e7"/><path d="m19.16 127.32c0-.91 7.12-1.83 19.34-2.57-12.4.74-19.88 1.66-19.88 2.57zm178.48-2.75c13.5.74 21.72 1.65 21.72 2.75 0 2.4-44.9 4.23-100.2 4.23-55.28 0-100-1.84-100-4.23h-.54c0 2.4 45.07 4.23 100.54 4.23 55.67 0 100.74-1.84 100.74-4.23 0-1.1-8.4-2.01-22.26-2.75zm0 0" fill="#e9e9e9"/><path d="m18.62 127.32c0-.91 7.48-1.83 19.88-2.57-12.77.74-20.25 1.66-20.25 2.57zm179.02-2.75c13.87.74 22.26 1.65 22.26 2.75 0 2.4-45.07 4.23-100.74 4.23-55.47 0-100.54-1.84-100.54-4.23h-.37c0 2.4 45.08 4.23 100.91 4.23 55.85 0 101.11-1.84 101.11-4.23 0-1.1-8.4-2.01-22.63-2.75zm0 0" fill="#e9e9e9"/><path d="m18.25 127.32c0-.91 7.48-1.83 20.25-2.57-13.14.74-20.8 1.66-20.8 2.57zm179.39-2.75c14.24.74 22.63 1.65 22.63 2.75 0 2.4-45.26 4.23-101.1 4.23s-100.92-1.84-100.92-4.23h-.55c0 2.4 45.44 4.42 101.46 4.42 56.22 0 101.66-2.03 101.66-4.42 0-1.1-8.77-2.01-23.18-2.75zm0 0" fill="#ebeae9"/><path d="m17.7 127.32c0-.91 7.66-1.83 20.8-2.57v-.18c-13.32.74-21.34 1.84-21.34 2.75zm179.94-2.75c14.41.74 23.18 1.65 23.18 2.75 0 2.4-45.44 4.42-101.66 4.42-56.02 0-101.46-2.03-101.46-4.42h-.54c0 2.4 45.8 4.42 102 4.42 56.4 0 102.02-2.03 102.02-4.42 0-1.1-8.76-2.01-23.54-2.75zm0 0" fill="#ebeaea"/><path d="m17.16 127.32c0-.91 8.02-2.01 21.34-2.75-13.68.74-21.71 1.65-21.71 2.75zm180.48-2.75c14.78.74 23.54 1.65 23.54 2.75 0 2.4-45.62 4.42-102.02 4.42-56.2 0-102-2.03-102-4.42h-.37c0 2.4 45.8 4.42 102.37 4.42 56.59 0 102.57-2.03 102.57-4.42 0-1.1-9.13-2.01-24.1-2.75zm0 0" fill="#ebecec"/><path d="m16.79 127.32c0-1.1 8.03-2.01 21.71-2.75h-.18c-13.68.74-22.08 1.65-22.08 2.75zm180.85-2.75c14.96.74 24.09 1.65 24.09 2.75 0 2.4-45.98 4.42-102.57 4.42-56.57 0-102.37-2.03-102.37-4.42h-.55c0 2.4 46.17 4.42 102.92 4.42 56.94 0 102.93-2.03 102.93-4.42 0-1.1-9.13-2.01-24.27-2.93zm0 0" fill="#ebecec"/><path d="m16.24 127.32c0-1.1 8.4-2.01 22.08-2.75-14.05.74-22.45 1.65-22.45 2.75zm181.58-2.93c15.14.92 24.27 1.83 24.27 2.93 0 2.4-45.99 4.42-102.93 4.42-56.75 0-102.92-2.03-102.92-4.42h-.36c0 2.4 46.17 4.42 103.28 4.42 57.13 0 103.48-2.03 103.48-4.42 0-1.1-9.3-2.01-24.82-2.93zm0 0" fill="#eeedec"/><path d="m15.88 127.32c0-1.1 8.4-2.01 22.44-2.75-14.41.74-22.99 1.65-22.99 2.75zm181.94-2.93c15.51.92 24.82 1.83 24.82 2.93 0 2.4-46.35 4.42-103.48 4.42-57.11 0-103.28-2.03-103.28-4.42h-.55c0 2.4 46.54 4.42 103.83 4.42 57.49 0 103.85-2.03 103.85-4.42 0-1.1-9.5-2.2-25.19-2.93zm0 0" fill="#eeedec"/><path d="m15.33 127.32c0-1.1 8.58-2.01 23-2.75-14.6.74-23.37 1.65-23.37 2.75zm182.5-2.93c15.68.73 25.18 1.83 25.18 2.93 0 2.4-46.36 4.42-103.85 4.42-57.29 0-103.83-2.03-103.83-4.42h-.37c0 2.4 46.72 4.42 104.2 4.42 57.68 0 104.4-2.03 104.4-4.42 0-1.1-9.68-2.2-25.74-2.93zm0 0" fill="#efefef"/><path d="m14.96 127.32c0-1.1 8.77-2.01 23.36-2.75v-.18c-14.96.92-23.9 1.83-23.9 2.93zm182.86-2.93c16.06.73 25.73 1.83 25.73 2.93 0 2.4-46.71 4.42-104.39 4.42-57.48 0-104.2-2.03-104.2-4.42h-.54c0 2.4 46.9 4.42 104.74 4.42 57.86 0 104.76-2.03 104.76-4.42 0-1.1-9.85-2.2-26.1-2.93zm0 0" fill="#efefef"/><path d="m14.42 127.32c0-1.1 8.94-2.01 23.9-2.93-15.14.92-24.27 1.83-24.27 2.93zm183.4-2.93c16.25.73 26.1 1.83 26.1 2.93 0 2.4-46.9 4.42-104.76 4.42-57.85 0-104.74-2.03-104.74-4.42h-.37c0 2.4 47.09 4.42 105.11 4.42 58.22 0 105.3-2.03 105.3-4.42 0-1.1-10.03-2.2-26.64-2.93zm0 0" fill="#efefef"/><path d="m14.05 127.32c0-1.1 9.13-2.01 24.27-2.93h-.18c-15.33.73-24.64 1.83-24.64 2.93zm183.77-2.93c16.6.73 26.65 1.83 26.65 2.93 0 2.4-47.09 4.42-105.3 4.42-58.03 0-105.12-2.03-105.12-4.42h-.55c0 2.58 47.27 4.6 105.66 4.6 58.4 0 105.85-2.02 105.85-4.6 0-1.1-10.22-2.2-27.19-2.93zm0 0" fill="#efeff0"/><path d="m13.5 127.32c0-1.1 9.31-2.2 24.64-2.93-15.7.73-25.18 1.83-25.18 2.93zm184.32-2.93c16.97.73 27.2 1.83 27.2 2.93 0 2.58-47.46 4.6-105.86 4.6-58.39 0-105.66-2.02-105.66-4.6h-.54c0 2.58 47.63 4.6 106.2 4.6 58.77 0 106.22-2.02 106.22-4.6 0-1.1-10.4-2.2-27.38-3.11zm0 0" fill="#eff1f1"/><path d="m12.96 127.32c0-1.1 9.49-2.2 25.18-2.93-15.87.73-25.55 1.83-25.55 2.93zm185.04-3.11c16.98.91 27.38 2.01 27.38 3.11 0 2.58-47.45 4.6-106.22 4.6-58.57 0-106.2-2.02-106.2-4.6h-.37c0 2.58 47.81 4.6 106.57 4.6 58.96 0 106.77-2.02 106.77-4.6 0-1.1-10.59-2.2-27.93-3.11zm0 0" fill="#f2f2f1"/><path d="m12.6 127.32c0-1.1 9.67-2.2 25.54-2.93-16.24.73-26.1 1.83-26.1 2.93zm185.4-3.11c17.34.91 27.93 2.01 27.93 3.11 0 2.58-47.81 4.6-106.77 4.6-58.76 0-106.57-2.02-106.57-4.6h-.54c0 2.58 48 4.6 107.11 4.6 59.14 0 107.13-2.02 107.13-4.6 0-1.28-10.76-2.2-28.29-3.11zm0 0" fill="#f2f2f1"/><path d="m12.05 127.32c0-1.1 9.85-2.2 26.1-2.93-16.43.73-26.47 1.83-26.47 2.93zm185.95-3.11c17.53.91 28.3 1.83 28.3 3.11 0 2.58-48 4.6-107.14 4.6-59.12 0-107.11-2.02-107.11-4.6h-.37c0 2.58 48.18 4.6 107.48 4.6 59.5 0 107.68-2.02 107.68-4.6 0-1.28-10.95-2.38-28.84-3.11zm0 0" fill="#f3f3f3"/><path d="m11.68 127.32c0-1.1 10.04-2.2 26.46-2.93v-.18c-16.78.91-27 2.01-27 3.11zm186.32-3.11c17.9.73 28.84 1.83 28.84 3.11 0 2.58-48.18 4.6-107.68 4.6-59.3 0-107.48-2.02-107.48-4.6h-.55c0 2.58 48.36 4.6 108.03 4.6 59.68 0 108.05-2.02 108.05-4.6 0-1.28-10.96-2.38-29.2-3.11zm0 0" fill="#f3f3f3"/><path d="m11.13 127.32c0-1.1 10.23-2.2 27.01-3.11-17.15.91-27.37 2.01-27.37 3.11zm186.87-3.11c18.25.73 29.2 1.83 29.2 3.11 0 2.58-48.36 4.6-108.04 4.6-59.67 0-108.03-2.02-108.03-4.6h-.36c0 2.58 48.54 4.6 108.4 4.6 60.04 0 108.58-2.02 108.58-4.6 0-1.28-11.31-2.38-29.75-3.11zm0 0" fill="#f3f3f3"/><path d="m10.77 127.32c0-1.1 10.22-2.2 27.37-3.11h-.18c-17.15.91-27.74 1.83-27.74 3.11zm187.23-3.11c18.44.73 29.75 1.83 29.75 3.11 0 2.58-48.54 4.6-108.59 4.6-59.85 0-108.4-2.02-108.4-4.6h-.54c0 2.58 48.9 4.6 108.94 4.6 60.23 0 108.96-2.02 108.96-4.6 0-1.28-11.32-2.38-30.12-3.3zm0 0" fill="#f4f4f4"/><path d="m10.22 127.32c0-1.28 10.59-2.2 27.74-3.11-17.52.73-28.1 1.83-28.1 3.11zm187.78-3.3c18.8.92 30.12 2.02 30.12 3.3 0 2.58-48.73 4.6-108.96 4.6-60.03 0-108.94-2.02-108.94-4.6h-.36c0 2.58 48.9 4.6 109.3 4.6 60.6 0 109.5-2.02 109.5-4.6 0-1.28-11.68-2.38-30.47-3.3zm0 0" fill="#f6f5f4"/><path d="m9.86 127.32c0-1.28 10.58-2.38 28.1-3.11-17.7.73-28.65 1.83-28.65 3.11zm188.33-3.3c18.8.92 30.47 2.02 30.47 3.3 0 2.58-48.9 4.6-109.5 4.6-60.4 0-109.3-2.02-109.3-4.6h-.56c0 2.58 49.28 4.79 109.85 4.79 60.77 0 110.05-2.2 110.05-4.79 0-1.28-11.86-2.38-31.02-3.3zm0 0" fill="#f6f5f4"/><path d="m9.3 127.32c0-1.28 10.95-2.38 28.66-3.11-18.07.73-29.2 1.83-29.2 3.11zm188.9-3.3c19.15.92 31.01 2.02 31.01 3.3 0 2.58-49.28 4.79-110.05 4.79-60.57 0-109.85-2.2-109.85-4.79h-.55c0 2.58 49.46 4.79 110.4 4.79 60.96 0 110.42-2.2 110.42-4.79 0-1.28-12.05-2.38-31.39-3.3zm0 0" fill="#f6f5f6"/><path d="m8.76 127.32c0-1.28 11.13-2.38 29.2-3.11v-.19c-18.43.92-29.57 2.02-29.57 3.3zm189.43-3.3c19.34.92 31.39 2.02 31.39 3.3 0 2.58-49.46 4.79-110.42 4.79-60.94 0-110.4-2.2-110.4-4.79h-.36c0 2.58 49.64 4.79 110.77 4.79 61.33 0 110.97-2.2 110.97-4.79 0-1.28-12.23-2.38-31.94-3.3zm0 0" fill="#f6f5f6"/><path d="m8.4 127.32c0-1.28 11.13-2.38 29.56-3.3-18.62.92-30.11 2.02-30.11 3.3zm189.8-3.3c19.7.92 31.93 2.02 31.93 3.3 0 2.58-49.64 4.79-110.97 4.79-61.13 0-110.77-2.2-110.77-4.79h-.54c0 2.58 49.82 4.79 111.31 4.79 61.5 0 111.33-2.2 111.33-4.79 0-1.28-12.22-2.57-32.3-3.3zm0 0" fill="#f6f8f9"/><path d="m7.85 127.32c0-1.28 11.49-2.38 30.1-3.3-18.97.92-30.47 2.02-30.47 3.3zm190.34-3.3c20.08.73 32.3 2.02 32.3 3.3 0 2.58-49.82 4.79-111.33 4.79-61.49 0-111.31-2.2-111.31-4.79h-.37c0 2.58 50 4.79 111.68 4.79 61.88 0 111.88-2.2 111.88-4.79 0-1.28-12.6-2.57-32.85-3.3zm0 0" fill="#f6f8f9"/><path d="m7.48 127.32c0-1.28 11.5-2.38 30.48-3.3h-.18c-18.99.92-30.84 2.02-30.84 3.3zm190.71-3.3c20.26.73 32.85 2.02 32.85 3.3 0 2.58-50 4.79-111.88 4.79-61.68 0-111.68-2.2-111.68-4.79h-.54c0 2.58 50.36 4.79 112.22 4.79 62.05 0 112.24-2.2 112.24-4.79 0-1.28-12.59-2.57-33.2-3.48zm0 0" fill="#f8f8f9"/><path d="m6.94 127.32c0-1.28 11.85-2.38 30.84-3.3-19.35.92-31.21 2.02-31.21 3.3zm191.25-3.48c20.62.91 33.21 2.2 33.21 3.48 0 2.58-50.19 4.79-112.24 4.79-61.86 0-112.22-2.2-112.22-4.79h-.37c0 2.58 50.37 4.79 112.6 4.79s112.78-2.2 112.78-4.79c0-1.28-12.96-2.57-33.76-3.48zm0 0" fill="#f8f8f9"/><path d="m6.57 127.32c0-1.28 11.86-2.38 31.2-3.3-19.7.73-31.75 2.02-31.75 3.3zm191.62-3.48c20.8.91 33.76 2.2 33.76 3.48 0 2.58-50.55 4.79-112.79 4.79-62.22 0-112.59-2.2-112.59-4.79h-.55c0 2.76 50.74 4.79 113.14 4.79 62.6 0 113.16-2.03 113.16-4.79 0-1.28-12.96-2.57-33.95-3.48zm0 0" fill="#faf9f9"/><path d="m6.02 127.32c0-1.28 12.05-2.57 31.76-3.3-19.9.73-32.12 2.02-32.12 3.3zm192.35-3.48c20.99.91 33.95 2.2 33.95 3.48 0 2.76-50.56 4.79-113.16 4.79-62.4 0-113.14-2.03-113.14-4.79h-.36c0 2.76 50.73 4.79 113.5 4.79 62.79 0 113.7-2.03 113.7-4.79 0-1.28-13.32-2.57-34.49-3.48zm0 0" fill="#faf9f9"/><path d="m5.66 127.32c0-1.28 12.22-2.57 32.12-3.3v-.18c-20.26.91-32.67 2.2-32.67 3.48zm192.71-3.48c21.17.91 34.5 2.2 34.5 3.48 0 2.76-50.92 4.79-113.7 4.79s-113.52-2.03-113.52-4.79h-.55c0 2.76 51.1 4.96 114.05 4.96 63.15 0 114.25-2.2 114.25-4.96 0-1.46-13.5-2.57-35.04-3.48zm0 0" fill="#fafbfb"/><path d="m5.1 127.32c0-1.28 12.42-2.57 32.68-3.48-20.44.91-33.04 2.2-33.04 3.48zm193.27-3.48c21.53.91 35.04 2.02 35.04 3.48 0 2.76-51.1 4.96-114.25 4.96-62.96 0-114.05-2.2-114.05-4.96h-.37c0 2.76 51.28 4.96 114.42 4.96 63.33 0 114.61-2.2 114.61-4.96 0-1.46-13.5-2.57-35.4-3.48zm0 0" fill="#fafbfb"/><path d="m4.74 127.32c0-1.28 12.6-2.57 33.04-3.48-20.81.91-33.58 2.2-33.58 3.48zm193.63-3.48c21.9.91 35.4 2.02 35.4 3.48 0 2.76-51.28 4.96-114.6 4.96-63.15 0-114.43-2.2-114.43-4.96h-.54c0 2.76 51.46 4.96 114.96 4.96 63.51 0 115.16-2.2 115.16-4.96 0-1.46-13.87-2.75-35.95-3.48zm0 0" fill="#fafbfb"/><path d="m4.2 127.32c0-1.28 12.77-2.57 33.58-3.48-21 .91-34.13 2.2-34.13 3.48zm194.17-3.48c22.08.73 35.95 2.02 35.95 3.48 0 2.76-51.65 4.96-115.16 4.96-63.5 0-114.96-2.2-114.96-4.96h-.55c0 2.76 51.83 4.96 115.51 4.96 63.88 0 115.53-2.2 115.53-4.96 0-1.46-13.87-2.75-36.32-3.67zm0 0" fill="#fafbfb"/><path d="m3.65 127.32c0-1.28 13.14-2.57 34.13-3.48h-.18c-21.18.91-34.31 2.02-34.31 3.48zm194.72-3.67c22.45.92 36.32 2.2 36.32 3.67 0 2.76-51.65 4.96-115.53 4.96-63.68 0-115.5-2.2-115.5-4.96h-.37c0 2.76 51.82 4.96 115.87 4.96 64.07 0 116.07-2.2 116.07-4.96 0-1.46-14.23-2.75-36.86-3.67zm0 0" fill="#fcfdfe"/><path d="m3.29 127.32c0-1.46 13.13-2.57 34.3-3.48-21.54.91-34.85 2.02-34.85 3.48zm195.08-3.67c22.63.92 36.86 2.2 36.86 3.67 0 2.76-52 4.96-116.07 4.96-64.05 0-115.87-2.2-115.87-4.96h-.55c0 2.76 52.2 4.96 116.42 4.96 64.43 0 116.44-2.2 116.44-4.96 0-1.46-14.24-2.75-37.23-3.67zm0 0" fill="#fcfdfe"/><path d="m2.74 127.32c0-1.46 13.31-2.57 34.86-3.48v-.19c-21.73.92-35.23 2.2-35.23 3.67zm195.63-3.67c23 .92 37.23 2.2 37.23 3.67 0 2.76-52.01 4.96-116.44 4.96-64.23 0-116.42-2.2-116.42-4.96h-.37c0 2.76 52.38 4.96 116.8 4.96 64.6 0 116.98-2.2 116.98-4.96 0-1.46-14.6-2.75-37.6-3.67zm0 0" fill="#fcfdfe"/><path d="m2.37 127.32c0-1.46 13.5-2.75 35.23-3.67-22.1.92-35.78 2.2-35.78 3.67zm196.18-3.67c23 .92 37.6 2.2 37.6 3.67 0 2.76-52.38 4.96-116.99 4.96-64.41 0-116.79-2.2-116.79-4.96h-.55c0 2.76 52.57 4.96 117.34 4.96 64.8 0 117.35-2.2 117.35-4.96 0-1.46-14.6-2.75-37.96-3.67zm0 0" fill="#fefefe"/><path d="m1.82 127.32c0-1.46 13.69-2.75 35.78-3.67-22.27.92-36.14 2.2-36.14 3.67zm196.73-3.67c23.36.92 37.96 2.2 37.96 3.67 0 2.76-52.56 4.96-117.35 4.96-64.77 0-117.34-2.2-117.34-4.96h-.36c0 2.76 52.74 4.96 117.7 4.96 65.16 0 117.9-2.2 117.9-4.96 0-1.46-14.79-2.75-38.51-3.67zm0 0" fill="#fefefe"/><path d="m1.46 127.32c0-1.46 13.87-2.75 36.14-3.67-22.64.92-36.69 2.2-36.69 3.67zm197.09-3.67c23.72.92 38.5 2.2 38.5 3.67 0 2.76-52.73 4.96-117.89 4.96-64.96 0-117.7-2.2-117.7-4.96h-.56c0 2.76 52.92 4.96 118.25 4.96 65.34 0 118.27-2.2 118.27-4.96 0-1.46-14.97-2.75-38.88-3.67zm0 0" fill="#fefefe"/><path d="m.91 127.32c0-1.46 14.05-2.75 36.69-3.67-22.81.92-37.05 2.2-37.05 3.67zm197.64-3.67c23.91.92 38.88 2.2 38.88 3.67 0 2.76-52.93 4.96-118.27 4.96-65.33 0-118.25-2.2-118.25-4.96h-.36c0 2.76 53.1 5.15 118.61 5.15 65.7 0 118.81-2.39 118.81-5.15 0-1.46-15.15-2.93-39.42-3.85zm0 0" fill="#fefefe"/><path d="m.55 127.32c0-1.46 14.24-2.75 37.05-3.67h-.74c-22.63.92-36.86 2.2-36.86 3.67zm198-3.85c24.27.92 39.42 2.39 39.42 3.85 0 2.76-53.1 5.15-118.8 5.15-65.52 0-118.62-2.39-118.62-5.15h-.55c0 .2.37.37.91.74h.55s.19.19.36.19c.18 0 .37 0 .55.18h.74c.18 0 .35.18.72.18.19 0 .37 0 .73.18h.73c.37 0 .73.19.91.19.37 0 .74 0 1.1.19h.91c.36 0 .73.18 1.1.18h1.28c.36.19.72.19 1.09.19.55 0 .91 0 1.28.17h1.46c.37 0 .91.2 1.46.2h1.46c.36.17.91.17 1.45.17h1.65c.55.19.92.19 1.64.19.55 0 1.1 0 1.65.18h1.63c.74 0 1.28 0 1.83.19h1.83c.73 0 1.27 0 2 .18h1.82c.74 0 1.47 0 2.02.18h2.18c.56 0 1.28 0 2.01.18h4.39c.73.2 1.45.2 2.19.2h2.18c.91 0 1.65 0 2.38.17h4.74c.92 0 1.64.19 2.55.19h4.93c.92 0 1.64.17 2.55.17h5.11c.92 0 1.83 0 2.75.2h10.94l2.74.17h17.52l3.1.2h24.28c1.1 0 2.01 0 3.1-.2h17.34c.92 0 1.83 0 2.93-.17h10.94c.74-.2 1.65-.2 2.55-.2h5.29c.73 0 1.64-.17 2.55-.17h4.94c.9 0 1.63-.2 2.37-.2h4.74l2.37-.17h2.37l2.2-.19h4.37c.56-.18 1.28-.18 2.02-.18h2c.72-.18 1.46-.18 2-.18h2.02c.54-.18 1.27-.18 1.82-.18h1.82c.74-.2 1.28-.2 1.82-.2h1.83c.55-.17 1.1-.17 1.65-.17.54 0 1.1 0 1.64-.19h1.64c.55 0 .92 0 1.46-.18h1.46c.55 0 .91-.19 1.46-.19h1.28c.55-.17.91-.17 1.28-.17.36 0 .91 0 1.27-.2h1.1c.36 0 .73-.17 1.1-.17.73 0 1.45-.19 2-.19.73-.19 1.28-.19 1.82-.19.2-.18.55-.18.74-.18.18 0 .54-.18.72-.18h.56c.18-.18.35-.18.54-.18.18 0 .36-.2.55-.2h.37c.18-.17.36-.17.36-.17.36-.19.73-.37.73-.56 0-.18-.18-.18-.18-.18l-.19-.18c-2.55-1.47-17.33-2.57-39.6-3.49zm0 0" fill="#fefefe"/><path d="m0 127.32c0 .2.37.37.91.74-.54-.37-.91-.55-.91-.74 0-1.46 14.23-2.75 36.86-3.67-22.63.92-36.86 2.2-36.86 3.67zm237.79.56c.36-.19.73-.37.73-.56 0-.18-.18-.18-.18-.18s.18 0 .18.18c0 .2-.37.37-.73.56zm.55-.74-.19-.18zm-.19-.18c-2.55-1.47-17.33-2.57-39.6-3.49 22.27.92 37.05 2.02 39.6 3.49zm-200.55-3.3h-.56zm0 0" fill="#fefefe"/><path d="m89.97 14.74s2.55 0 2.92-.92c.54-1.1 2.37-7.71 6.39-11.2 3.1-2.75 11.31-2.57 16.06-2.57 4.74 0 12.95-.18 16.05 2.57 4.02 3.49 5.84 10.1 6.4 11.2.36.92 2.9.92 2.9.92l.2 2.76c-8.76.55-5.3-4.96-11.32-10.84-1.46-1.46-2.92-.92-6.93-.18-1.28.36-13.33.36-14.6 0-4.02-.74-5.48-1.28-6.93.18-6.03 5.88-2.56 11.4-11.33 10.84zm0 0" fill="#403a39"/><path d="m85.4 13.46h3.84c.9 0 1.82.73 1.82 1.83v3.13c0 .91-.91 1.83-1.82 1.83h-3.84a1.84 1.84 0 0 1 -1.83-1.83v-3.13c0-1.1.74-1.83 1.83-1.83zm56.03 0h3.83c1.1 0 1.83.73 1.83 1.83v3.13c0 .91-.73 1.83-1.83 1.83h-3.83c-.91 0-1.82-.92-1.82-1.83v-3.13c0-1.1.91-1.83 1.82-1.83zm0 0" fill="#4e4a4a"/><path d="m47.26 17.86h141.07a11.8 11.8 0 0 1 11.69 11.76v85.77c0 6.6-5.3 11.93-11.7 11.93h-141.05c-6.38 0-11.68-5.32-11.68-11.93v-85.77a11.8 11.8 0 0 1 11.68-11.76zm0 0" fill="#e31e24"/><path d="m46 17.5h20.43l-31.21 32.32v-21.5c0-6.05 4.93-10.82 10.77-10.82zm0 0" fill="#484544"/><path d="m58.22 22.09c.55 0 .9-.37.9-.92s-.35-1.1-.9-1.1-1.1.55-1.1 1.1.55.92 1.1.92zm-19.72 21.12c.55 0 .91-.56.91-.92 0-.55-.36-1.1-.91-1.1-.54 0-1.09.55-1.09 1.1 0 .36.55.92 1.09.92zm2.38-19.65c.55 0 .92-.37.92-.92s-.37-.92-.92-.92-.91.37-.91.92.36.92.91.92zm0 0" fill="#616060"/><path d="m46 127.7h20.43l-31.21-32.16v21.5c0 5.87 4.93 10.64 10.77 10.64zm0 0" fill="#484544"/><path d="m58.22 125.12c.55 0 .9-.55.9-.91 0-.56-.35-1.1-.9-1.1s-1.1.54-1.1 1.1c0 .36.55.91 1.1.91zm-19.72-21.12c.55 0 .91-.37.91-.91 0-.56-.36-1.11-.91-1.11-.54 0-1.09.55-1.09 1.1s.55.92 1.09.92zm2.38 19.65c.55 0 .92-.54.92-1.1 0-.55-.37-.92-.92-.92s-.91.37-.91.92c0 .56.36 1.1.91 1.1zm0 0" fill="#616060"/><path d="m189.98 17.5h-20.26l31.02 32.32v-21.5a10.7 10.7 0 0 0 -10.76-10.82zm0 0" fill="#484544"/><path d="m177.93 22.09c.54 0 .91-.37.91-.92s-.37-1.1-.91-1.1c-.55 0-1.1.55-1.1 1.1s.55.92 1.1.92zm19.71 21.12c.55 0 .9-.56.9-.92 0-.55-.35-1.1-.9-1.1s-1.1.55-1.1 1.1c0 .36.55.92 1.1.92zm-2.55-19.65c.54 0 1.09-.37 1.09-.92s-.55-.92-1.1-.92c-.54 0-.9.37-.9.92s.36.92.9.92zm0 0" fill="#616060"/><path d="m189.98 127.7h-20.26l31.02-32.15v21.5c0 5.87-4.74 10.64-10.76 10.64zm0 0" fill="#484544"/><path d="m177.93 125.12c.54 0 .91-.55.91-.91 0-.56-.37-1.1-.91-1.1-.55 0-1.1.54-1.1 1.1 0 .36.55.91 1.1.91zm19.71-21.12c.55 0 .9-.37.9-.91 0-.56-.35-1.11-.9-1.11s-1.1.55-1.1 1.1.55.92 1.1.92zm-2.55 19.65c.54 0 1.09-.54 1.09-1.1 0-.55-.55-.92-1.1-.92-.54 0-.9.37-.9.92 0 .56.36 1.1.9 1.1zm0 0" fill="#616060"/><path d="m79.2 128.06h8.21v-111.3h-8.2zm0 0" fill="#a1642f"/><path d="m77.2 16.76h12.23v14.7a3.87 3.87 0 0 1 -3.84 3.85h-4.56a4 4 0 0 1 -3.84-3.86zm0 0" fill="#645f52"/><path d="m83.21 32.38c.74 0 1.28-.56 1.28-1.3 0-.73-.54-1.46-1.28-1.46-.72 0-1.26.73-1.26 1.47 0 .73.54 1.29 1.26 1.29zm0 0" fill="#9d9c9e"/><path d="m77.2 128.25h12.23v-14.7a3.87 3.87 0 0 0 -3.84-3.85h-4.56a4 4 0 0 0 -3.84 3.85zm0 0" fill="#645f52"/><path d="m83.21 115.39c.74 0 1.28-.56 1.28-1.3 0-.73-.54-1.46-1.28-1.46-.72 0-1.26.73-1.26 1.47 0 .73.54 1.29 1.26 1.29zm0 0" fill="#9d9c9e"/><path d="m148.18 128.06h8.21v-111.3h-8.21zm0 0" fill="#a1642f"/><path d="m146.18 16.76h12.22v14.7a4 4 0 0 1 -3.83 3.85h-4.57a3.87 3.87 0 0 1 -3.82-3.86zm0 0" fill="#645f52"/><path d="m152.2 32.38c.73 0 1.28-.56 1.28-1.3 0-.73-.55-1.46-1.28-1.46s-1.28.73-1.28 1.47c0 .73.55 1.29 1.28 1.29zm0 0" fill="#9d9c9e"/><path d="m146.18 128.25h12.22v-14.7a4 4 0 0 0 -3.83-3.85h-4.57a3.87 3.87 0 0 0 -3.82 3.85zm0 0" fill="#645f52"/><path d="m152.2 115.39c.73 0 1.28-.56 1.28-1.3 0-.73-.55-1.46-1.28-1.46s-1.28.73-1.28 1.47c0 .73.55 1.29 1.28 1.29zm0 0" fill="#9d9c9e"/></g><path d="m200.02 96.3v-33.45 33.45l.72-.74zm0 0" fill="#eeedee"/><path d="m146.36 128.25h-.18zm.55 0h-.55zm.72 0h-.72zm.55 0h-.55zm-58.75 0v-.2zm62.77 0h-.73zm-65.33 0h-.55zm65.88 0h-.55zm5.65-.74v-.19zm0-.19h.37zm-72.08.93h-.55zm66.97 0h-.54zm5.1-.56v-.18zm.38-.37h.54zm-73 .93h-.54zm68.07 0h-.55zm5.47-.93h.37zm-74.08.93h-.56zm69.17 0h-.56zm4-.37v-.19zm1.28-.56h.55zm-75 .93h-.55zm70.26 0h-.55zm5.29-.93h.36zm-76.1.93h-.55zm71.17 0h-.36zm5.3-.93h.54zm-77.02.93h-.54zm-6.38-.93h-.37.36v.2zm78.65.93h-.55zm2.55-.2v-.17zm2.74-.73h.54zm-78.1.93h-.55zm73.36 0h-.55zm5.28-.93h.37zm-79.2.93h-.53zm-5.29-.56v-.18zm79.75.56h-.55zm5.11-.93h.55zm-80.1.93h-.56zm75.54 0h-.55zm.9 0v-.2zm4.2-.93h.37zm-81.2.93h-.55zm-4.2-.37v-.19zm80.85.37h-.55zm4.92-.93h.55zm-82.12.93h-.54zm77.56 0h-.36zm5.11-.93h.37zm-83.21.93h-.37zm-3.1-.2v-.17zm86.68-.73h.54zm-83.95.93h-.55zm84.49-.93h.37zm-85.04.93h-.54zm85.41-.93h.55zm-85.95.93h-.55zm86.5-.93h.36zm-87.05.93h-.54zm-1.1 0v-.2zm0 0" fill="#9f9e99" fill-rule="evenodd"/><path d="m165.7 127.32h.55zm-87.95.93h-.56zm0 0" fill="#9f9e98" fill-rule="evenodd"/><path d="m170.08 127.32h-11.68v-13.77c0-1.46-.91-2.75-2-3.3v-19.29c17.7-6.8 32.84-16.53 43.62-28.1v33.44zm-23.9 0h-56.75v-13.77c0-1.46-.74-2.75-2.02-3.3v-8.64c2.74.19 5.48.19 8.22.19 18.8 0 36.5-2.76 52.55-7.9v16.35c-1.27.55-2 1.84-2 3.3zm-68.99 0h-11.31l-30.3-31.58v-4.4a161.48 161.48 0 0 0 43.62 9.72v9.19a3.78 3.78 0 0 0 -2 3.3zm0 0" fill="#ae3029"/><path d="m66.43 127.7h-20.44c-.91 0-1.65 0-2.56-.19a10.97 10.97 0 0 1 -8.21-10.46v-21.5l.36.19 30.3 31.58zm-8.21-4.6c-.55 0-1.1.55-1.1 1.1 0 .37.55.92 1.1.92s.9-.55.9-.91c0-.56-.35-1.1-.9-1.1zm-17.34-1.47c-.55 0-.91.37-.91.92 0 .56.36 1.1.91 1.1s.92-.54.92-1.1c0-.55-.37-.92-.92-.92zm-2.38-19.65c-.54 0-1.09.55-1.09 1.1s.55.92 1.09.92c.55 0 .91-.37.91-.91 0-.56-.36-1.11-.91-1.11zm0 0" fill="#434140"/><path d="m58.22 125.12c-.55 0-1.1-.55-1.1-.91 0-.56.55-1.1 1.1-1.1s.9.54.9 1.1c0 .36-.35.91-.9.91zm-19.72-21.12c-.54 0-1.09-.37-1.09-.91 0-.56.55-1.11 1.09-1.11.55 0 .91.55.91 1.1s-.36.92-.91.92zm2.38 19.65c-.55 0-.91-.54-.91-1.1 0-.55.36-.92.91-.92s.92.37.92.92c0 .56-.37 1.1-.92 1.1zm0 0" fill="#5a5959"/><path d="m189.98 127.7h-20.26l.36-.38 29.94-31.03.72-.74v21.5c0 4.95-3.46 9.17-8.21 10.46-.73.18-1.64.18-2.55.18zm-12.05-4.6c-.55 0-1.1.55-1.1 1.1 0 .37.55.92 1.1.92.54 0 .91-.55.91-.91 0-.56-.37-1.1-.91-1.1zm17.16-1.47c-.55 0-.92.37-.92.92 0 .56.37 1.1.92 1.1.54 0 1.09-.54 1.09-1.1 0-.55-.55-.92-1.1-.92zm2.55-19.65c-.55 0-1.1.55-1.1 1.1s.55.92 1.1.92.9-.37.9-.91c0-.56-.35-1.11-.9-1.11zm0 0" fill="#434140"/><path d="m177.93 125.12c-.55 0-1.1-.55-1.1-.91 0-.56.55-1.1 1.1-1.1.54 0 .91.54.91 1.1 0 .36-.37.91-.91.91zm19.71-21.12c-.55 0-1.1-.37-1.1-.91 0-.56.55-1.11 1.1-1.11s.9.55.9 1.1-.35.92-.9.92zm-2.55 19.65c-.55 0-.92-.54-.92-1.1 0-.55.37-.92.92-.92.54 0 1.09.37 1.09.92 0 .56-.55 1.1-1.1 1.1zm0 0" fill="#5a5959"/><path d="m79.2 110.25v-9.19c2.75.37 5.47.55 8.21.55v8.64a3.05 3.05 0 0 0 -1.82-.55h-4.56c-.73 0-1.28.18-1.83.55zm0 0" fill="#935c2f"/><path d="m89.43 128.25h-12.24v-14.7c0-1.46.92-2.75 2.01-3.3.55-.37 1.1-.55 1.83-.55h4.56c.73 0 1.28.18 1.82.55 1.28.55 2.02 1.84 2.02 3.3zm-6.22-15.62c-.72 0-1.26.73-1.26 1.47 0 .73.54 1.29 1.26 1.29.74 0 1.28-.56 1.28-1.3 0-.73-.54-1.46-1.28-1.46zm0 0" fill="#5c584b"/><path d="m83.21 115.39c-.72 0-1.26-.56-1.26-1.3 0-.73.54-1.46 1.26-1.46.74 0 1.28.73 1.28 1.47 0 .73-.54 1.29-1.28 1.29zm0 0" fill="#8d8b8d"/><path d="m148.18 110.25v-16.35c2.74-.92 5.48-1.83 8.21-2.94v19.29a3.5 3.5 0 0 0 -1.82-.55h-4.57a3.1 3.1 0 0 0 -1.82.55zm0 0" fill="#935c2f"/><path d="m158.4 128.25h-12.22v-14.7c0-1.46.73-2.75 2-3.3a3.1 3.1 0 0 1 1.82-.55h4.57c.55 0 1.28.18 1.82.55 1.1.55 2 1.84 2 3.3zm-6.2-15.62c-.73 0-1.28.73-1.28 1.47 0 .73.55 1.29 1.28 1.29s1.28-.56 1.28-1.3c0-.73-.55-1.46-1.28-1.46zm0 0" fill="#5c584b"/><path d="m152.2 115.39c-.73 0-1.28-.56-1.28-1.3 0-.73.55-1.46 1.28-1.46s1.28.73 1.28 1.47c0 .73-.55 1.29-1.28 1.29zm0 0" fill="#8d8b8d"/></svg>