<svg height="133pt" viewBox="0 0 377 133" width="377pt" xmlns="http://www.w3.org/2000/svg"><path d="m225.96 53.87a6 6 0 0 1 -5.77-5.82v-41.01a6 6 0 0 1 5.77-5.81h19.41a6 6 0 0 1 5.76 5.8 6 6 0 0 1 -5.75 5.83h-13.95v35.2c0 3.06-2.43 5.81-5.47 5.81zm0 0" fill="#4e5352"/><path d="m237.5 14.08h12.73c.3 0 .9-.31.9-.6v-12.88c0-.3-.6-.61-.9-.61h-12.73zm0 0" fill="#4e5352"/><path d="m282.98 60.62-14.86-30.92c-.3-.92-1.51-1.54-2.72-1.54h-79.17a3.2 3.2 0 0 0 -2.74 1.54l-14.56 30.92c-.6.6-.3 1.52 0 2.45.62.6 1.52 1.22 2.43 1.22h108.9c.92 0 1.81-.62 2.43-1.22.6-.93.6-1.85.3-2.45zm0 0" fill="#7e71b1"/><path d="m268.13 37.34h-46.11v17.46h54.3zm0 0" fill="#4c4f4f"/><path d="m55.8 90-10.93-43.46c-.3-.31-.6-.31-.91-.31h-13.34c-.6 0-.92.3-.92.3v43.47c0 .31.31.6.92.6h24.56c.3 0 .62-.29.62-.6zm0 5.2-10.93 36.73c-.3 0-.6.32-.91.32h-13.34c-.6 0-.92-.32-.92-.32v-36.73c0-.3.31-.3.92-.3h24.56c.3 0 .62 0 .62.3zm-40.66 24.8c0 4.9-3.33 9.19-7.57 9.19-3.95 0-7.29-4.3-7.29-9.2 0-4.88 3.34-27.24 7.29-27.24 4.24 0 7.57 22.36 7.57 27.24zm-14.86-55.7c0-4.9 3.34-8.9 7.29-8.9 4.24 0 7.57 4 7.57 8.9 0 5.19-3.33 27.22-7.57 27.22-3.95 0-7.29-22.02-7.29-27.22zm0 0" fill="#656a6c"/><path d="m340.02 60.3h-222.05c-4.24 0-8.18.61-11.82 1.54-.31 0-.6 0-.92.3l-99.8 29.09c-.9.3-1.51.6-1.51 1.22 0 .6.62.92 1.51 1.23l99.8 29.07c.32.31.61.31.92.31 3.64.92 7.58 1.53 11.82 1.53h222.05c20.32 0 36.7-14.38 36.7-32.14 0-17.75-16.38-32.14-36.7-32.14zm0 0" fill="#7690c9"/><path d="m315.75 92.45c0 10.1-7.9 18.36-17.9 18.36s-18.2-8.26-18.2-18.36 8.2-18.37 18.2-18.37 17.9 8.26 17.9 18.37zm0 0" fill="#e8e9ee"/><path d="m312.11 92.45c0 7.96-6.37 14.4-14.27 14.4a14.31 14.31 0 0 1 -14.25-14.4 14.3 14.3 0 0 1 14.25-14.39 14.3 14.3 0 0 1 14.27 14.4zm0 0" fill="#b4b6bc"/><path d="m298.15 78.06h-1.51l-12.74 13.17c-.31.3-.31.91-.31 1.22 0 2.45.62 4.6 1.82 6.73l19.41-19.58a16.2 16.2 0 0 0 -6.67-1.54zm10.31 4.59-20.01 20.52a13.27 13.27 0 0 0 6.07 3.37l17.28-17.45c-.6-2.45-1.82-4.6-3.34-6.44zm0 0" fill="#ced0d6"/><path d="m254.48 92.45c0 10.1-8.2 18.36-18.2 18.36-10.02 0-17.9-8.26-17.9-18.36s7.88-18.37 17.9-18.37c10 0 18.2 8.26 18.2 18.37zm0 0" fill="#e8e9ee"/><path d="m250.53 92.45a14.3 14.3 0 0 1 -14.26 14.4 14.31 14.31 0 0 1 -14.25-14.4 14.3 14.3 0 0 1 14.25-14.39 14.3 14.3 0 0 1 14.26 14.4zm0 0" fill="#b4b6bc"/><path d="m236.58 78.06h-1.22l-13.03 13.17v1.22c0 2.45.6 4.6 1.51 6.73l19.41-19.58a16.2 16.2 0 0 0 -6.67-1.54zm10.32 4.59-20.02 20.52a17.16 17.16 0 0 0 6.07 3.37l17.58-17.45c-.6-2.45-1.81-4.6-3.64-6.44zm0 0" fill="#ced0d6"/><path d="m192.9 92.45c0 10.1-8.19 18.36-18.2 18.36s-17.9-8.26-17.9-18.36 7.89-18.37 17.9-18.37 18.2 8.26 18.2 18.37zm0 0" fill="#e8e9ee"/><path d="m189.25 92.45c0 7.96-6.67 14.4-14.55 14.4a14.3 14.3 0 0 1 -14.25-14.4 14.3 14.3 0 0 1 14.25-14.39c7.88 0 14.55 6.42 14.55 14.4zm0 0" fill="#b4b6bc"/><path d="m175 78.06h-1.21l-13.05 13.17v1.22c0 2.45.62 4.6 1.52 6.73l19.42-19.58a15.22 15.22 0 0 0 -6.68-1.54zm10.61 4.59-20.32 20.52a16.33 16.33 0 0 0 6.38 3.37l17.29-17.45c-.6-2.45-1.83-4.6-3.35-6.44zm0 0" fill="#ced0d6"/></svg>