<svg xmlns="http://www.w3.org/2000/svg" width="171" height="267" viewBox="0 0 128 200"><path d="M17 26c0 2-3 4-5 4-3 0-5-2-5-4 0-3 2-5 5-5 2 0 5 2 5 5zm0 0" fill="#f0b307"/><path d="M14 24c0 2-1 4-3 4s-4-2-4-4a3 3 0 0 1 4-3c2 0 3 2 3 3zm0 0" fill="#f6e500"/><path d="M12 21a4 4 0 0 0-4 5c0 2 1 4 4 4 2 0 4-2 4-4 0-3-2-5-4-5zm0 9c-3 0-5-2-5-4 0-3 2-5 5-5a5 5 0 1 1 0 9zm0 0" fill="#e85222"/><path d="M61 5c0 3-2 5-5 5-2 0-5-2-5-5s3-5 5-5c3 0 5 2 5 5zm0 0" fill="#6689c5"/><path d="M59 4c0 2-2 4-4 4s-3-2-3-4 1-3 3-3 4 1 4 3zm0 0" fill="#92aedb"/><path d="M56 1c-2 0-4 2-4 4a4 4 0 0 0 4 4c3 0 4-2 4-4 1-2-1-4-4-4zm0 9c-3 0-5-2-5-5a5 5 0 1 1 10 0c0 3-2 5-5 5zm0 0" fill="#4460a8"/><path d="M109 16c0 3-2 5-4 5-3 0-5-2-5-5 0-2 2-5 5-5 2 0 4 3 4 5zm0 0" fill="#ec69a3"/><path d="M107 15c0 2-1 4-3 4s-4-2-4-4 2-4 4-4 3 2 3 4zm0 0" fill="#ef9ec4"/><path d="M105 12c-3 0-5 2-5 4 0 3 2 5 5 5a4 4 0 0 0 4-5c0-2-2-4-4-4zm0 9c-3 0-5-2-5-5s2-5 5-5c2 0 4 2 4 5s-2 5-4 5zm0 0" fill="#df2a78"/><path d="M123 62c0 2-2 4-4 4-3 0-5-2-5-4 0-3 2-5 5-5 2 0 4 2 4 5zm0 0" fill="#e32124"/><path d="M121 61c0 2-1 3-3 3s-4-1-4-3 2-4 4-4 3 2 3 4zm0 0" fill="#e84246"/><path d="M119 57c-3 0-5 2-5 5 0 2 2 4 5 4a4 4 0 0 0 4-4c0-3-2-5-4-5zm0 9c-3 0-5-2-5-4 0-3 2-5 5-5 2 0 4 2 4 5 0 2-2 4-4 4zm0 0" fill="#af2827"/><path d="M10 69c0 3-2 5-5 5s-5-2-5-5c0-2 2-4 5-4s5 2 5 4zm0 0" fill="#a35da0"/><path d="M7 68c0 2-1 4-3 4s-4-2-4-4a3 3 0 0 1 4-3 3 3 0 0 1 3 3zm0 0" fill="#be88bb"/><path d="M5 65a4 4 0 0 0-4 4 4 4 0 0 0 4 5c2 0 4-2 4-5 0-2-2-4-4-4zm0 9c-3 0-5-2-5-5 0-2 2-5 5-5s5 3 5 5c0 3-2 5-5 5zm0 0" fill="#8b4894"/><path d="M42 71s-4-5-8-1 0 12 7 8c1-1 2-6 1-7zm0 0" fill="#fbd2a2"/><path d="M37 69l-3 1c-2 2-2 4-1 5 1 2 2 4 4 4l4-2 1-4v-2s-2-2-5-2zm0 10c-2 0-4-1-5-3-1-3 0-5 2-7l3-1c3 0 5 2 5 2l1 3-2 5-4 1zm0 0" fill="#e8711f"/><path d="M36 73l2-1c1 0 2 0 3 2h-1l-2-2-2 1v0zm0 0" fill="#e8711f"/><path d="M81 68s4-4 8-1c4 4 0 12-7 8-1 0-2-6-1-7zm0 0" fill="#fbd2a2"/><path d="M82 75l4 1c2 0 3-1 4-3s1-4-1-6l-3-1c-3 0-5 2-5 2v3l1 4zm4 2l-4-1-2-5 1-3s2-2 5-2l3 1c2 2 3 4 2 6s-3 4-5 4zm0 0" fill="#e8711f"/><path d="M87 72v-1a2 2 0 0 0-2-1l-2 2-1-1 3-2 2 1v2zm0 0" fill="#e8711f"/><path d="M84 74c0 12-10 21-23 21-12 0-22-9-22-21 0-11 10-20 22-20 13 0 23 9 23 20zm0 0" fill="#f4af67"/><path d="M81 73c0 11-10 19-21 19-12 0-21-8-21-19s9-19 21-19c11 0 21 8 21 19zm0 0" fill="#fbd2a2"/><path d="M61 54c-12 0-22 9-22 20s10 20 22 20c12 1 22-9 22-20S73 54 61 54zm0 41c-12 0-22-9-22-21 0-11 10-21 22-21 13 0 23 10 23 21 0 12-10 21-23 21zm0 0" fill="#e8711f"/><path d="M47 63s2-4 7-3v1c-4-2-6 2-6 2h-1zm25-2v-1s-3-3-7-1v1h1c3-2 6 1 6 1zm0 0" fill="#252422"/><path d="M68 68c-1-2 0-5 2-5 2-1 3 1 4 4 1 2 0 5-2 5-2 1-4-1-4-4zm0 0" fill="#dad9da"/><path d="M68 67c-1-2 0-4 2-4 1-1 3 1 4 3l-2 4c-2 1-4-1-4-3zm0 0" fill="#fefefe"/><path d="M70 63l-2 2v3c0 2 2 4 3 4h1l2-5c-1-2-2-4-4-4zm1 10c-1 0-3-2-4-5l1-3c0-2 1-2 2-3 2 0 4 2 4 5 1 3 0 5-2 6h-1zm0 0" fill="#e8711f"/><path d="M70 67c-1-1 0-2 1-2 1-1 1 0 2 1l-1 3-2-2zm0 0" fill="#5093cf"/><path d="M71 67v-1l1 1v1l-1-1zm0 0" fill="#252422"/><path d="M71 65l-1 2 1 2h1v-3l-1-1zm0 4l-2-2 2-3 2 2-1 3h-1zm0 0" fill="#444f9b"/><path d="M69 72s0 2 4 1l3-2c-5-2-7 1-7 1zm0 0" fill="#fbd2a2"/><path d="M69 72s0-2 3-2c2-1 4 1 4 1-5-2-7 1-7 1zm0 0" fill="#e8711f"/><path d="M55 69c0-3-1-5-3-5-1-1-3 1-4 4l2 5c2 1 4-1 5-4zm0 0" fill="#dad9da"/><path d="M55 68l-2-5c-2 0-3 2-4 4l2 5c2 0 3-1 4-4zm0 0" fill="#fefefe"/><path d="M52 64c-2 0-3 2-4 4l2 5h1c1 0 3-2 3-4v-3l-2-2zm-1 10l-1-1c-2 0-3-3-2-5 0-3 2-5 4-5h1l2 2v4c-1 3-2 5-4 5zm0 0" fill="#e8711f"/><path d="M50 68l1-2c1-1 2 0 2 1 1 2 0 3-1 3l-2-2zm0 0" fill="#5093cf"/><path d="M51 68l1-2 1 2-1 1-1-1zm0 0" fill="#252422"/><path d="M51 66v2l1 2 1-1v-2l-2-1zm1 4l-2-2v-2l1-1 2 2v2l-1 1zm0 0" fill="#444f9b"/><path d="M48 72s0 2 2 2c3 1 5-1 5-1s-3-3-7-1zm0 0" fill="#fbd2a2"/><path d="M55 73c-1 0-3-3-7-1l4-1c2 0 3 2 3 2zm0 0" fill="#e8711f"/><path d="M67 75c0 2-2 4-5 4s-6-2-6-4c0-3 3-5 6-5s5 2 5 5zm0 0" fill="#bd2727"/><path d="M66 74c0 2-2 3-5 3-2 0-5-1-5-3s3-4 5-4c3 0 5 2 5 4zm0 0" fill="#e01f25"/><path d="M64 72l-2 1-3-1 3-1 2 1zm0 0" fill="#ec676a"/><path d="M62 70c-3 0-6 2-6 5 0 2 3 4 6 4s5-2 5-4c0-3-2-5-5-5zm0 10c-4 0-6-3-6-5 0-3 2-5 6-5 3 0 6 2 6 5 0 2-3 5-6 5zm0 0" fill="#742621"/><path d="M77 77c-2-4-8-2-7 2 0 2-3 4-9 4-5 0-8-2-8-4 1-4-5-6-7-2-2 3-1 6 3 6 1 4 7 7 12 7 6 0 12-3 13-7 4 0 5-3 3-6zm0 0" fill="#e01f25"/><path d="M50 75l-4 2-1 4 4 2c1 4 7 7 12 7 6 0 12-3 13-7l4-2-1-4-4-2-2 1-1 3c0 2-2 5-9 5-6 0-8-3-8-5l-1-3-2-1zm11 15c-5 0-11-3-13-6l-3-3v-4c2-2 3-2 5-2l3 1v3c0 2 2 4 8 4s9-2 9-4v-3l3-1c2 0 3 0 4 2 1 1 2 3 1 4l-3 3c-2 3-8 6-14 6zm0 0" fill="#742621"/><path d="M75 79h-1l-2-1 1 1c0 3-5 8-11 8s-11-4-12-8l1-1-3 1h2c1 4 5 9 12 9 6 0 11-5 12-9h1zm0 0" fill="#742621"/><path d="M44 54s4-12-4-15c3-3 14 3 18 11-3 9-12 7-14 4zm0 0" fill="#f9b101"/><path d="M44 54s4-12-4-15c3-3 13 5 14 12-3 10-8 6-10 3zm0 0" fill="#fde200"/><path d="M44 54l6 2c2 0 6-1 8-6-4-7-11-11-16-11h-1c6 3 4 14 3 15zm6 3c-3 0-5-2-6-3 0 0 3-11-4-15l2-1c5 0 13 5 16 11v1c-2 6-6 7-8 7zm0 0" fill="#de4924"/><path d="M73 53s0-14 6-18c-8-2-14 7-16 11-1 4 6 13 10 7zm0 0" fill="#f9b101"/><path d="M69 51s1-13 10-16c-8-2-14 7-16 11-1 4 2 11 6 5zm0 0" fill="#fde200"/><path d="M77 35c-7 0-12 7-13 11-1 1 0 4 1 6 2 1 3 3 5 3l3-2c0-2 0-14 5-18h-1zm-7 20c-2 0-4-1-5-3-2-2-2-5-2-6 1-4 6-12 14-12h2v1c-6 4-6 18-6 18l-3 2zm0 0" fill="#de4924"/><path d="M80 62s4-20 17-22c-8-6-23 2-30 10-1-9-1-18 4-26-13 1-18 14-20 28-15-10-25-5-29-2 9-1 16 4 18 19 6-16 32-15 40-7zm0 0" fill="#f9b101"/><path d="M95 39c-8-4-26 5-29 15-2-4-6-21 5-30-13 1-18 14-20 31-16-11-25-8-29-5 9-1 16 4 18 19 5-13 24-15 35-10 2-10 13-19 20-20zm0 0" fill="#fde200"/><path d="M24 50c9 0 15 6 16 18 3-7 12-12 22-12 7 0 14 2 17 6l4-10c4-7 8-11 13-12l-6-2c-8 0-18 7-22 12l-1 1v-1c-1-8-2-17 3-25-13 1-17 16-19 27-6-4-12-6-17-6s-8 2-11 4h1zm15 20v-1c-1-12-6-19-15-19h-3 1c2-2 6-4 12-4 5 0 11 1 17 5 2-11 6-26 20-27h1-1c-5 9-4 18-3 25 4-5 14-11 22-11 3 0 5 0 7 2h1-1c-12 2-17 22-17 22v1h-1c-3-4-9-6-17-6-11 0-19 4-22 12zm0 0" fill="#de4924"/><path d="M25 52l-3 3-3-3c0-1 1-3 3-3a3 3 0 0 1 3 3zm0 0" fill="#f9b101"/><path d="M23 51l-2 3a2 2 0 0 1-2-3l2-2a2 2 0 0 1 2 2zm0 0" fill="#fde200"/><path d="M22 49c-2 0-3 1-3 3 0 1 1 3 3 3s2-2 2-3c0-2-1-3-2-3zm0 6c-2 0-4-1-4-3a3 3 0 0 1 4-4c1 0 3 2 3 4s-2 3-3 3zm0 0" fill="#de4924"/><path d="M76 24c0 2-1 3-3 3s-3-1-3-3c0-1 1-3 3-3s3 2 3 3zm0 0" fill="#f9b101"/><path d="M75 24c0 1-1 2-3 2l-2-2c0-2 1-3 2-3 2 0 3 1 3 3zm0 0" fill="#fde200"/><path d="M73 22c-2 0-3 1-3 2 0 2 1 3 3 3s3-1 3-3l-3-2zm0 6c-2 0-3-2-3-4a3 3 0 0 1 3-3c2 0 3 1 3 3s-1 4-3 4zm0 0" fill="#de4924"/><path d="M82 34c0 2-1 3-2 3-2 0-3-1-3-3 0-1 1-2 3-2l2 2zm0 0" fill="#f9b101"/><path d="M81 34l-2 2-2-2 2-2 2 2zm0 0" fill="#fde200"/><path d="M80 32l-3 2c0 2 2 3 3 3s2-1 2-3l-2-2zm0 5c-2 0-3-1-3-3 0-1 1-2 3-2s2 1 2 2c0 2-1 3-2 3zm0 0" fill="#de4924"/><path d="M42 39c0 2-1 3-3 3-1 0-2-1-2-3l2-2c2 0 3 1 3 2zm0 0" fill="#f9b101"/><path d="M40 39a2 2 0 0 1-1 2l-2-2 2-2 1 2zm0 0" fill="#fde200"/><path d="M39 37l-2 2c0 2 1 2 2 2l3-2c0-2-2-2-3-2zm0 5c-1 0-2-1-2-3l2-2 3 2c0 2-1 3-3 3zm0 0" fill="#de4924"/><path d="M101 41c0 2-1 3-3 3-1 0-3-1-3-3l3-3c2 0 3 2 3 3zm0 0" fill="#f9b101"/><path d="M100 41l-2 2-3-2c0-1 1-2 3-2a2 2 0 0 1 2 2zm0 0" fill="#fde200"/><path d="M98 39l-3 2c0 2 2 3 3 3 2 0 3-1 3-3 0-1-1-2-3-2zm0 6c-2 0-3-2-3-4 0-1 1-3 3-3a3 3 0 0 1 4 3c0 2-2 4-4 4zm0 0" fill="#de4924"/><path d="M67 93l2 6c-2 4-8 3-9 1l1-7zm0 0" fill="#f4af67"/><path d="M65 97v-4h-4v6c2 0 3 0 4-2zm0 0" fill="#fbd2a2"/><path d="M61 100l3 1c1 0 3 0 4-2l-2-6h-5v7zm3 2l-4-2 1-7 6-1v1l2 6c-1 2-3 3-5 3zm0 0" fill="#e8711f"/><path d="M107 95s-14 10-31 11c0 11-4 24-5 26l-12 1s-6-12-7-23c-9 2-23 1-28-3-3-5 1-8 3-8s14 6 27 3c7-1 11 1 19-3 12 0 27-9 30-10s7 5 4 6zm0 0" fill="#5291cd"/><path d="M54 108zm0 0" fill="#71b1e1"/><path d="M104 89h-1c-3 1-18 10-30 10-8 4-12 2-19 3-13 3-25-3-27-3l-4 2c4 6 21 10 31 7l-2 5 6 17c4 0 10 0 12-3 5-7 4-17 4-24 10-1 20-2 28-9l2-5zm0 0" fill="#54c4f1"/><path d="M59 132l4 1 7-1c2-2 6-16 5-26h1c17-1 31-11 31-11l1-2c-1-2-2-4-4-4h-1l-2 1c-5 3-17 9-28 10-5 2-8 2-12 2h-7a43 43 0 0 1-24-2l-3-1-4 3 1 5c3 2 11 4 19 4l9-1c1 11 7 21 7 22zm4 1h-4s-6-11-7-22l-9 1c-8 0-16-2-19-4v-1c-2-2-2-4-1-6l4-2 3 1c3 1 9 3 16 3l8-1 5-1h2c4 0 7 0 12-2 10 0 23-7 28-9a41 41 0 0 1 2-1l1-1c2 0 4 2 4 4 1 2 0 3-1 4 0 0-14 9-31 11 1 10-4 23-5 25l-8 1zm0 0" fill="#465ca5"/><path d="M60 97s-6-3-11 5c2 0 4 4 8 3-3 4 0 7 0 10 2-3 5-2 7-9 1 6 5 6 7 10 0-4 2-5 1-10 2 2 6 1 7 3 0-4-1-6-3-8l6-3c-2-1-6-6-13-2 0 4-2 6-5 6s-5-3-4-5zm0 0" fill="#f9b101"/><path d="M60 102c-2 3-5 7-2 9l2-1 5-8h-1c-3 0-5-3-4-5 0 0-6-2-11 6 4-2 8 2 11-1zm0 0" fill="#fce900"/><path d="M79 109zm0 0" fill="#fcdd00"/><path d="M73 99c2 1 6 0 8-1-2-1-6-6-12-2 0 4-1 5-4 6-2 4 1 8 5 10v-11c2 4 5 3 7 6 0-3-2-7-4-8zm0 0" fill="#fce900"/><path d="M64 105v1c1 4 2 5 4 7l3 2v-3l1-6v-1c1 2 3 2 4 2l3 2c0-4-1-6-3-8h-1 1l4-2 1-1-1-1-6-2c-2 0-3 0-5 2l-1 4-4 1-3-1-2-4h-2c-2 0-5 1-8 5l3 1 3 2 2-1h1l-1 1c-2 3-1 5 0 7v2l2-2c2-1 3-2 4-6zm7 12v-1l-3-3c-2-1-3-3-4-6-1 4-3 5-5 6l-2 2v1-1l-1-3v-7h-1l-3-1-3-1h-1l1-1c2-5 6-6 8-6l3 1 1 4 3 1 4-2v-4h1l5-2c3 0 4 2 6 3h2l1 1h-1l-2 1-3 2c2 2 2 4 2 8l1 1h-1l-3-2-3-2-1 6-1 4zm0 0" fill="#de4924"/><path d="M85 98l-2 2-2-2 2-2 2 2zm0 0" fill="#f9b101"/><path d="M84 98l-1 1-1-1 1-1 1 1zm0 0" fill="#fce900"/><path d="M83 97l-1 1 1 1 2-1-2-1zm0 3l-2-2 2-2 2 2-2 2zm0 0" fill="#de4924"/><path d="M81 110l-1 2-2-2 2-1 1 1zm0 0" fill="#f9b101"/><path d="M81 110l-2 1-1-1 1-1 2 1zm0 0" fill="#fce900"/><path d="M80 109l-2 1 2 2 1-2-1-1zm0 3l-2-2 2-2 2 2-2 2zm0 0" fill="#de4924"/><path d="M73 117l-2 2-2-2 2-1 2 1zm0 0" fill="#f9b101"/><path d="M72 117l-1 1a1 1 0 0 1-1-1l1-1 1 1zm0 0" fill="#fce900"/><path d="M71 116l-1 1 1 2 1-2-1-1zm0 3l-2-2 2-2 2 2-2 2zm0 0" fill="#de4924"/><path d="M59 115l-2 2-2-2 2-1 2 1zm0 0" fill="#f9b101"/><path d="M58 115l-1 1a1 1 0 1 1 0-2l1 1zm0 0" fill="#fce900"/><path d="M57 114l-1 1 1 2 1-2-1-1zm0 3a2 2 0 0 1-2-2l2-2 2 2-2 2zm0 0" fill="#de4924"/><path d="M50 103l-2 2-1-2 1-2 2 2zm0 0" fill="#f9b101"/><path d="M49 103l-1 1-1-1 1-2 1 2zm0 0" fill="#fce900"/><path d="M48 102l-1 1 1 1 2-1-2-1zm0 3l-2-2 2-2 2 2-2 2zm0 0" fill="#de4924"/><path d="M68 96l2 1c0 1 1 6-6 7-6 0-5-7-5-7h2c0 2 1 4 4 3 3 0 3-3 3-4zm0 0" fill="#5291cd"/><path d="M68 96l1 1c0 1 0 5-5 6-6 0-5-6-5-6h2c0 2 1 4 4 3 3 0 3-3 3-4zm0 0" fill="#54c4f1"/><path d="M59 97l1 5 4 1c3 0 4-1 5-2l1-4h-2l-1 2-2 2h-1l-3-1v-3h-2zm5 7l-4-2c-2-2-2-5-2-5v-1h1l2 1 1 2 2 1h1l2-1v-3h1l2 1v4c-1 1-2 3-6 3zm0 0" fill="#465ca5"/><path d="M105 88l1-5c1-3-1-6 1-6s4 3 4 7c3-3 7-4 8-4v3c2-1 4 1 2 3 3 0 3 3 0 3 3 2 2 4-1 4h-5l-6 3c0 5-3 6-4 3-3 1-4-1-3-4-3 0-2-2-1-4-5 0-4-3-3-4 2-1 5-1 7 1zm0 0" fill="#f4af67"/><path d="M107 94h-2v-3l-1 1 1-3v-1c-2-2-5-2-7-1-1 1-2 4 2 4h1a4 4 0 0 0-1 2c1 1 2 2 3 1-1 1-1 3 1 4l2-1 1 1 1-2-1-2zm14-5c3 0 3-3 0-3 2-2 0-4-2-3v-3c-1 0-5 1-8 4 0-4-2-7-4-7s0 3-1 6l-1 4 3 6c2 1 6 0 7-2 2 2 5 1 8 0l-2-2zm0 0" fill="#fbd2a2"/><path d="M106 98v1l1 1h1l1-4v-1c3 0 5-2 5-2h1l4-1 1 1 2-1c1-1 0-2-1-2l-1-1h1l2-2-2-1h-1 1v-2l-1-1h-1v-2-1c-2 0-5 1-8 4l-1 1v-1c1-2 0-5-1-6l-2-1v1 5l-1 2-1 3-4-1h-3v2c0 1 1 2 3 2l-1 3 2 1 1-1v1l-1 3 2 1h1zm1 3l-2-2-3-1v-3l-2-1v-2l-3-3 1-2 3-1 3 1 1-3 1-2v-2-3h1l2 1 2 5 8-3h1v2l2 2v2l1 1c1 1 0 2-1 2l1 3-3 1h-5l-6 3-1 5h-1zm0 0" fill="#e76021"/><path d="M109 96l-5-8h1s0 3 4 7zm0 0M105 94l2-1-2 1zm-1-3l1-1-1 1zm11 0c0-4-2-5-2-5l2 2v3zm1-4l5-1-5 1zm-1-2l4-3v1l-4 2zm2 5l4-1v1h-4zm0 0" fill="#e76021"/><path d="M22 98c0-3-2-3-3-4-1-2 0-6-2-5-2 0-3 4-1 8-5-3-9-3-10-2s1 2 1 2c-2 0-3 3-1 4-2 1-2 4 1 3-2 3 0 4 2 4l5-2 6 1c2 5 5 5 5 2 3 0 4-2 2-5 3-1 2-2 0-4 4-1 3-4 1-4-1-1-5 0-6 2zm0 0" fill="#f4af67"/><path d="M22 105l2-1-1-2 2-1-3-2v-1c1-2 5-3 6-2 2 0 3 2 0 4h-1l1 1v1l-2 2v3h-2c0 1 0 2-1 1l-2-2 1-1zm-15-1c-3 1-3-2-1-3-2-1-1-4 1-4 0 0-2-1-1-2s5-1 10 2c-2-4-1-8 1-8 2-1 1 3 2 5l3 3c0 3 0 5-2 7-1 2-4 2-6 0-2 2-5 3-8 2l1-2zm0 0" fill="#fbd2a2"/><path d="M25 108h1l1-1c1-1 0-2-1-3h1l1-1-1-3 3-3-2-1h-2l-3 2-1 1v-1c0-2-1-2-2-3l-1-1-1-3-1-2-2 1 1 6v1h-1c-4-3-7-2-8-2l-1 1 1 1 1 1H7 6l-1 1 1 2h1-1l-1 2 2 1h1l-1 1v2h3l4-1h1l5 1h1l2 4h1l1-2v-1zm-2 3l-3-4c-3 1-5 0-6-1l-4 1-1 1-3-1 1-2c-2 0-3-1-3-2l2-2-1-2 1-2v-1-1l1-1 8 2v-6l2-2h1l1 3v2l2 2 1 2 4-1 2-1 2 2c0 1 0 2-2 3l1 3-2 1 1 3c0 1-1 2-3 2l-1 2h-1zm0 0" fill="#e76021"/><path d="M21 107l2-9h-1s1 3-2 9zm0 0" fill="#e76021"/><path d="M24 104l-2-1 2 1zm0-3l-2-1v1h2zm-11 3c-1-3 1-6 1-6l-1 3v3zm-2-3H6h5zm1-3l-5-1v1h5zm0 6H7v1l5-1zm0 0" fill="#e76021"/><path d="M65 159l1 6c1 2 0 6-1 10s0 4 1 7l-6 3v-17c-1-2-2-4-2-9 0-3 7-3 7 0zm0 0" fill="#fbd2a2"/><path d="M58 159l2 8v18l5-3v-1-6c1-4 2-8 0-10v-6l-3-2-4 2zm1 27l1-1v-17l-1-1-2-8c1-2 3-2 5-2 1 0 3 0 3 2l1 6v10 7l-6 4zm0 0" fill="#b92827"/><path d="M61 177l-1 2h5v-3l-4 1zm0 0" fill="#e32124"/><path d="M61 178v1h4v-2l-4 1zm-1 2v-3h1l4-1v3l-5 1zm1 0" fill="#b92827"/><path d="M66 173v-2l-6 1v2l6-1zm0 0" fill="#e32124"/><path d="M61 172v2l4-1 1-2-5 1zm0 3h-1v-1-2h1l5-1 1-1-1 1v3l-5 1zm0 0" fill="#b92827"/><path d="M66 165l-7 2 1 1v1c2 0 5 0 6-2v-2zm0 0" fill="#e32124"/><path d="M60 167v2c2 0 4 0 6-2v-1l-6 1zm0 3v-1-1l-1-1v-1l1 1 6-2 1 2v1l-7 2zm0 0" fill="#b92827"/><path d="M65 160l-7 2v2l7-1v-3zm0 0" fill="#e32124"/><path d="M58 162l1 2c1 0 4 0 6-2v-2l-6 2h-1zm0 3v-1-3h1l6-1v-1 4l-7 2zm0 0" fill="#b92827"/><path d="M65 180l2 3s1 2-2 5l-5 7c-1 4-3 5-6 4-3 0-3-3-2-6 0 3 2 4 4 2l3-10c1-2 4-5 6-5zm0 0" fill="#4ca83c"/><path d="M65 180l2 3s1 2-2 5l-5 7c-1 4-3 5-6 4-3 0-3-3-2-6 0 3 2 4 4 2l3-10c1-2 4-5 6-5zm0 0" fill="#4ca83c"/><path d="M58 196c4-9 5-6 7-11 1-1-1-2-1-5l-5 5-3 10c-2 2-4 1-4-2l-1 4 1 1c2 2 5 0 6-2zm0 0" fill="#82bb31"/><path d="M52 195v3l2 1h1c3 0 4-1 5-4l5-7c3-3 2-5 1-5l-1-2c-2 0-5 2-6 5l-1 3-2 7h-4v-1zm3 5h-1l-3-2 1-5v-1 1l1 2 1 1 1-1 3-6 1-4c1-2 3-5 6-5s1 2 2 3c0 0 2 2-1 5-3 2-4 4-5 7-2 3-3 5-6 5zm0 0" fill="#266e38"/><path d="M117 150l-8 2-12-5-6-3c-2-1-4 5-3 6 2 1 5 5 11 6l13 1c3-1 6-6 5-7zm0 0" fill="#fbd2a2"/><path d="M91 144l-3 3v3h1c2 2 5 5 10 5l4 1h9c2 0 4-3 5-5l-4 1h-4l-6-2-6-3-3-1-3-2zm21 13l-9-1h-4c-5 0-9-4-11-5a2 2 0 0 0 0-1v-3l3-4 4 2 2 2 7 3 5 2 4-1 4-1v1c0 2-3 5-5 6zm0 0" fill="#b92827"/><path d="M109 152h-1l-1 4h2a17 17 0 0 0 1-4h-1zm0 0" fill="#e32124"/><path d="M107 156h2a9 9 0 0 0 1-4h-1-1l-1 4zm2 1v-1h-3l2-4h3-1l-1 4zm0 0" fill="#b92827"/><path d="M103 150c0 3-2 5-3 6h3c2-2 2-4 2-5l-2-1zm0 0" fill="#e32124"/><path d="M101 155l2 1 2-5-2-1c0 3-1 4-2 5zm2 1h-3l3-6v-1l1 1 2 1-3 5zm0 0" fill="#b92827"/><path d="M101 149a11 11 0 0 0-3-1c0 3-3 5-4 6l3 1 4-6zm0 0" fill="#e32124"/><path d="M95 154a7 7 0 0 0 2 1l3-6a22 22 0 0 0-2-1c0 3-2 5-3 6zm2 2a13 13 0 0 1-3-1v-1l4-6v-1l3 1v1c0 1-1 4-4 7zm0 0" fill="#b92827"/><path d="M96 146l-3-1c0 3-2 5-3 6l2 2 4-7zm0 0" fill="#e32124"/><path d="M90 151l2 1c2-1 3-4 3-5a8 8 0 0 1-1-1l-1-1c0 3-2 5-3 6zm2 2h-1l-2-2c2-1 3-3 4-6v-1l2 1 1 1v1l-4 6zm0 0" fill="#b92827"/><path d="M110 156l4 3c2 0 4-1 4-4 1-2 7-5 9-9 2-3 0-6-3-6-3-1-4 1-4 4 1-3 3-3 4-3l1 4-10 6c0 1-5 3-5 5zm0 0" fill="#4ca83c"/><path d="M116 155l3-4c3-3 8-5 9-8-1-2-2-3-4-3-3-1-4 1-4 4 1-3 3-3 4-3l1 4-10 6c0 1-4 2-5 5 2 1 5 2 6-1zm0 0" fill="#82bb31"/><path d="M111 156l3 2h1l3-3 4-4 5-5v-4l-3-2-3 1a3 3 0 0 0-1 2c1-2 3-2 4-2l1 1v3c-1 2-9 5-10 6l-2 2-2 3zm4 3h-1l-4-2c0-2 2-4 3-5l1-1 1-1 9-5 1-2-1-1h-1c-1 0-2 0-3 2v2l-1-2 2-4 3-1a5 5 0 0 1 4 3l-1 4-5 5-3 4c-1 3-3 4-4 4zm0 0" fill="#266e38"/><path d="M73 144s-1 1-4 1c-2 4-1 12-2 14-2 2-9 6-13 0-3-7 3-27 4-28 3 1 12 1 14-1 5 1 18 10 20 12 2 3 0 11-6 11s-13-9-13-9zm0 0" fill="#f9b101"/><path d="M92 142c-2-2-15-11-20-12-2 2-11 2-14 1-1 1-5 16-5 24l3 3c3 2 7 2 8-3l2-8 1-5s2 2 5 0l1-2c3 6 9 8 16 7l4-3a4 4 0 0 0-1-2zm0 0" fill="#fde200"/><path d="M58 132c-1 2-7 21-4 26 2 3 3 4 6 4s6-2 7-3v-6l2-9h1l3-1s7 10 13 10c3 0 5-2 6-4v-6c-2-3-15-11-20-13l-10 2h-4zm2 30c-2 0-4 0-6-3-3-7 3-27 3-28h1l4 1 10-2c5 1 18 9 20 12 2 2 2 4 0 7-1 3-3 4-6 5-5 0-12-8-13-10l-3 1h-1l-1 8-1 6c-1 1-4 3-7 3zm0 0" fill="#de4924"/><path d="M72 129l1 2c0 1-8 3-16 1v-3s8 2 15 0zm0 0" fill="#4ca83c"/><path d="M72 129l1 1s-8 4-16 1v-2s8 2 15 0zm0 0" fill="#82bb31"/><path d="M58 130l-1 2 6 1 10-2-1-2-8 1h-6zm5 3h-6v-4h1l6 1 8-2 2 3-4 2h-7zm0 0" fill="#266e38"/><path d="M72 66h-2l1-1 1 1zm-20 1h-1v-1l1 1zm0 0" fill="#fefefe"/></svg>