<svg xmlns="http://www.w3.org/2000/svg" width="134pt" height="133pt" viewBox="0 0 134 133"><path d="M86.57 117.79c0 .07.08.07.08.15-.54.15-.76.08-.08-.15zm37.77-73.8c2.37-1.59 4.82-3.04 6.65-5.3 5.35-6.6 2.75-14.57-2.75-20.03-7.19-7.05-14.53-5.7-22.63-3.41-4.2-3.88-8.95-6.9-15.37-5.39-4.51 1.06-7.64 3.64-9.4 6.98a13.7 13.7 0 0 0-10.78-1.22 13.87 13.87 0 0 0-9.94 10.1C47.82 14.33 29.62.82 14.62 8.5a6.96 6.96 0 0 0-3.66 2.35 6.76 6.76 0 0 0-2.37 3.63c-5.35 10.1-.23 20.64 5.74 30.34A85.6 85.6 0 0 0 24.8 58.4a13.58 13.58 0 0 0-6.27 8.5 13 13 0 0 0 1.3 10.39 13.53 13.53 0 0 0-6.88 8.8c-1.84 6.6 1.3 11.45 5.35 15.77-2.22 7.44-3.9 14.71 2.22 21.32 8.25 8.94 18.88 8.87 25.76-1.37 6.27-9.1 12.31-18.43 18.35-27.68 4.05 3.33 8.1 6.67 12.16 10.08-.77 2.58-1.46 5.16-1.54 7.74-.3 7.05 4.21 12.74 9.26 17.14 6.5 5.62 14.76 4.48 19.87-2.28 1-1.28 2-2.65 2.9-4.01 4.06.52 8.12-.16 11.56-3.19 4.28-3.72 5.5-8.27 4.89-13.12 1.37-.99 2.75-1.9 4.05-2.96 6.88-5.08 7.95-13.35 2.22-19.8-4.44-5-10.1-9.32-17.13-9.1-2.6.16-5.27.76-7.87 1.52-3.52-4.25-7.11-8.42-10.7-12.67 10.01-6.52 20.02-13.04 30.04-19.49zm0 0" fill="#c9bb9e"/><path d="M80.3 111.57s0 .08.08.08c-.54.15-.84.15-.08-.08zm37.77-73.87c2.37-1.52 4.82-3.04 6.65-5.24 5.35-6.67 2.68-14.56-2.83-20.02-7.1-7.13-14.44-5.69-22.55-3.42-4.29-3.86-8.95-6.97-15.36-5.45-4.6 1.06-7.73 3.71-9.49 6.97a13.42 13.42 0 0 0-10.7-1.13 13.7 13.7 0 0 0-10.02 10.08C41.47 8.12 23.34-5.46 8.36 2.27a7.06 7.06 0 0 0-3.74 2.35A7.48 7.48 0 0 0 2.25 8.2c-5.28 10.09-.23 20.63 5.73 30.41a90.84 90.84 0 0 0 10.55 13.58 13.75 13.75 0 0 0-6.34 8.42 13.57 13.57 0 0 0 1.3 10.4 13.89 13.89 0 0 0-6.89 8.87c-1.76 6.52 1.38 11.37 5.36 15.77-2.23 7.43-3.83 14.64 2.29 21.24 8.18 8.95 18.8 8.88 25.76-1.29 6.2-9.18 12.24-18.43 18.35-27.68 4.05 3.33 8.1 6.67 12.08 10.01a35.35 35.35 0 0 0-1.53 7.81c-.3 6.98 4.28 12.74 9.33 17.14 6.42 5.61 14.75 4.48 19.88-2.35.92-1.29 1.9-2.58 2.9-3.95 4.05.54 8.1-.15 11.55-3.18 4.2-3.8 5.42-8.34 4.9-13.12 1.37-.99 2.66-1.97 4.04-2.96 6.88-5.08 7.95-13.43 2.22-19.8-4.44-5-10.1-9.32-17.2-9.1-2.6.08-5.2.76-7.8 1.52-3.6-4.25-7.11-8.5-10.7-12.67l30.04-19.56zm0 0" fill="#fefefe"/><path d="M40.4 72.96l-5.28 5.24-11.16-11.08a3.68 3.68 0 0 1 0-5.23 3.75 3.75 0 0 1 5.27 0zm0 0" fill="#f9d62c"/><path d="M26.63 62.57c-.53 0-1 .23-1.38.61-.38.3-.6.84-.6 1.36 0 .54.23 1 .6 1.37l9.87 9.79 2.83-2.74L28 63.18c-.38-.38-.92-.6-1.38-.6zm8.49 18.13L22.73 68.34a5.09 5.09 0 0 1-1.6-3.8c0-1.5.53-2.88 1.6-3.86a5.56 5.56 0 0 1 7.8 0l12.39 12.28zm0 0" fill="#533a2b"/><path d="M34.81 92.23l-5.27 5.23L18.38 86.4a3.68 3.68 0 0 1 0-5.23 3.75 3.75 0 0 1 5.27 0zm0 0" fill="#f9d62c"/><path d="M21.05 81.84c-.53 0-1.07.15-1.37.53-.39.38-.62.83-.62 1.36 0 .54.23 1 .62 1.37l9.86 9.86 2.75-2.73-9.86-9.86a1.85 1.85 0 0 0-1.38-.53zm8.49 18.05L17.15 87.6a5.34 5.34 0 0 1-1.6-3.87c0-1.44.53-2.8 1.6-3.86a5.48 5.48 0 0 1 7.72 0l12.47 12.36zm0 0" fill="#533a2b"/><path d="M58.97 66.67l-29.74 44.9a2.64 2.64 0 0 1-4.12.38l-3.52-3.49c-.69-.68-1-1.67-.77-2.58l16.6-60c.15-.37.68-.52.99-.22L58.9 65.9c.15.23.23.53.07.76zm0 0" fill="#fefefc"/><path d="M57.44 65.68zm-18.8-17.37l-16.06 58.03c-.08.3 0 .68.23.9l3.52 3.5c.3.3.61.3.76.3.16-.08.46-.15.69-.46L56.9 66.52zm-11.62 66.22c-1.23 0-2.3-.46-3.14-1.3l-3.6-3.56a4.34 4.34 0 0 1-1.14-4.24l16.59-60c.23-.76.84-1.44 1.68-1.59.77-.23 1.68 0 2.22.53L60.12 64.7c.77.75.92 1.97.3 2.95l-29.66 44.9a4.84 4.84 0 0 1-3.28 1.98h-.46zm0 0" fill="#533a2b"/><path d="M76.48 37.24l5.2-5.23-11.16-11.08a3.66 3.66 0 0 0-5.2 0 3.68 3.68 0 0 0 0 5.23zm0 0" fill="#f9d62c"/><path d="M67.92 21.61a1.9 1.9 0 0 0-1.38 3.26l9.94 9.87L79.23 32l-9.94-9.86a1.83 1.83 0 0 0-1.37-.54zm8.56 18.06l-12.46-12.3a5.37 5.37 0 0 1 0-7.65 5.58 5.58 0 0 1 7.8 0l12.38 12.3zm0 0" fill="#533a2b"/><path d="M95.82 31.7l5.28-5.23L89.94 15.4a3.76 3.76 0 0 0-5.28 0 3.68 3.68 0 0 0 0 5.23zm0 0" fill="#f9d62c"/><path d="M87.34 16.08a2 2 0 0 0-1.45.53 1.9 1.9 0 0 0 0 2.73l9.93 9.86 2.75-2.73-9.86-9.86a1.95 1.95 0 0 0-1.37-.53zm8.48 18.05L83.44 21.84a5.37 5.37 0 0 1 0-7.66 5.48 5.48 0 0 1 7.72 0l12.46 12.29zm0 0" fill="#533a2b"/><path d="M70.06 55.6l45.26-29.44a2.61 2.61 0 0 0 .46-4.09l-3.6-3.56a2.74 2.74 0 0 0-2.6-.69l-60.4 16.46c-.45.15-.6.68-.3.99l20.5 20.25c.14.23.45.23.68.08zm0 0" fill="#fefefc"/><path d="M51.56 35.42l18.35 18.2 44.5-28.9a.9.9 0 0 0 .38-.68c0-.15 0-.45-.24-.75l-3.6-3.5a.87.87 0 0 0-.9-.3zm17.58 18.73zm.61 3.34a2.4 2.4 0 0 1-1.68-.68L47.66 36.48c-.61-.6-.84-1.44-.61-2.2.23-.83.84-1.44 1.6-1.67l60.48-16.45c1.53-.46 3.2 0 4.35 1.13l3.52 3.5c1 .98 1.45 2.27 1.3 3.63a4.27 4.27 0 0 1-1.99 3.19L71.05 57.1c-.38.23-.84.38-1.3.38zm0 0" fill="#533a2b"/><path d="M19.52 11c-5.27-1.98-10.47 3.1-8.4 8.34 4.2 10.77 8.63 18.58 18.88 28.75l11.3 11.22 48.33 40.05a31.65 31.65 0 0 0 12.54 6.37c2.6.6 5.04-1.75 4.35-4.4a31.18 31.18 0 0 0-6.42-12.44L59.81 40.95 48.42 29.73C38.25 19.64 30.38 15.17 19.52 11zm0 0" fill="#c2e5f3"/><path d="M42.54 58.02L90.77 98a29.9 29.9 0 0 0 11.78 6c.92.22 1.53-.23 1.76-.46.23-.23.76-.83.53-1.74a30.88 30.88 0 0 0-6.04-11.76L58.52 42.17 47.2 30.95C36.95 20.85 29.08 16.6 18.83 12.67a4.64 4.64 0 0 0-5.04 1.06 4.5 4.5 0 0 0-1 5c3.9 10.09 8.18 17.98 18.43 28.14zm60.55 49.53c-.47 0-.92-.08-1.38-.15a34.66 34.66 0 0 1-13.23-6.68l-48.39-40.2-11.4-11.22C18.08 38.68 13.57 30.56 9.44 19.95a8.1 8.1 0 0 1 1.91-8.73 8.16 8.16 0 0 1 8.8-1.81c10.62 4.09 18.88 8.5 29.58 19.1l11.4 11.39 40.36 47.85c3.21 3.8 5.5 8.35 6.73 13.13.54 1.89 0 3.8-1.38 5.08a5.1 5.1 0 0 1-3.74 1.6zm0 0" fill="#533a2b"/><path d="M115.85 87.68l-15.52 11.07c-.3.23-.53.53-.76.84L88.4 114.9c-.54.75-1.53.83-2.14.23l-4.13-4.1a6.64 6.64 0 0 1-1.76-6.6l5.05-17.52a3.21 3.21 0 0 1 2.21-2.2l17.59-4.93a6.9 6.9 0 0 1 6.65 1.67l4.12 4.1c.62.6.54 1.67-.15 2.12zm0 0" fill="#f9d62c"/><path d="M107.06 81.23c-.46 0-.92.08-1.37.23L88.1 86.4c-.46.15-.84.53-1 1.06l-5.04 17.44a4.98 4.98 0 0 0 1.3 4.86l3.82 3.8 10.94-15.03c.3-.45.76-.83 1.22-1.13l15.14-10.85-3.82-3.8c-1-.98-2.3-1.5-3.6-1.5zm-19.8 36.03c-.84 0-1.68-.3-2.22-.9l-4.13-4.1c-2.21-2.2-3.05-5.39-2.21-8.35l4.97-17.45a5 5 0 0 1 3.44-3.4l17.66-4.94a8.58 8.58 0 0 1 8.4 2.13l4.06 4.09c.7.69 1 1.6.91 2.5a3.07 3.07 0 0 1-1.3 2.28l-15.43 11.07c-.16.15-.31.23-.39.38l-11.16 15.4a3.4 3.4 0 0 1-2.37 1.3h-.23zm0 0" fill="#533a2b"/><path d="M45.67 37.16c.69-.6 1.83-.53 2.44.16L68 59.16c.68.68.6 1.82-.08 2.5a1.9 1.9 0 0 1-2.53-.15L45.52 39.67a1.78 1.78 0 0 1 .15-2.5zm0 0M35.27 25.79c.77-.61 1.84-.53 2.53.15l5.43 5.92c.6.75.53 1.82-.16 2.5-.77.68-1.83.6-2.52-.15L35.2 28.3c-.7-.68-.62-1.82.07-2.5zm0 0" fill="#fefcf7"/></svg>