<svg xmlns="http://www.w3.org/2000/svg" width="232" height="265" viewBox="0 0 174 199"><path d="M116 56h-2c-2 0-3-2-3-6 1-25-9-31-9-32-2-1-3-3-1-7 1-2 5-2 7-1 1 1 12 9 11 40 0 4-1 6-3 6zm0 0" fill="#655433"/><path d="M116 48c-21 1-25 16-25 17-1 2 2 14-15 34-16 22-18 44-18 44 0 50 51 50 59 50V48h-1zm0 0" fill="#efa314"/><path d="M156 100c-17-21-15-33-15-35 0-1-4-16-23-17h-1v145c6 0 57 0 57-50 0 0-1-22-18-43zm0 0" fill="#f9b543"/><path d="M171 3c-54-14-54 22-53 24 5-5 31-20 53-24zm0 0" fill="#5a7f37"/><path d="M118 27c24 31 53-23 53-24-22 4-48 19-53 24zm0 0" fill="#639239"/><path d="M38 195l-1-2 1 2zm-21-9l-1-2 1 2zm-1-2l-1-1 1 1zm9 6l-1-1 1 1zm2 1l-1-1 1 1zm76-42c0-1-2-20-15-37-15-17-15-28-15-34v-1l-3-5c-5-5-9-7-16-7h-2c-15 1-18 11-19 13v1c0 6-1 17-14 33a65 65 0 0 0-16 37c0 18 7 30 21 37 11 6 23 6 28 6h2c6 0 18 0 28-6 15-7 21-19 21-37zm-8 31l-1 1 1-1zm0 0" fill="#fee8be"/><path d="M9 178l-1-1 1 1zm21 14l-1-1 1 1zm59-6l-1 1 1-1zm12-14l-1 1 1-1zm-4 6l-2 1 2-1zm-4 4l-1 1 1-1zm-7 5l-1 1 1-1zm-7 4l-3 1 3-1zm-69-12l-1-1 1 1zm88-2l-1 1 1-1zm1-1l-1 1 1-1zm1-2l-1 2 1-2zm-66 19l-1-1 1 1zM7 174l-1-1 1 1zm0 0" fill="#f9b543"/><path d="M37 70s9-5 11 6c3 11 4 32-4 53-7 20-14 13-12 33 0 18 17 25 17 28v3l2 2V72s-7-12-14-2zm0 0" fill="#fcd08f"/><path d="M55 72s1-7-2 4c-2 11-4 32 4 53 8 20 14 13 13 33 0 18-18 25-18 28v3l-1 2V72s-3-11 4 0zm0 0" fill="#fcd08f"/><path d="M32 83s6-17 12-13c5 4 5 5 9 5 3 0 10-10 14-5 5 7 6 13 8 15l-1-9-8-10-12-2-9 1-9 4-4 8zm0 0" fill="#fabe60"/><path d="M54 192h-2c-5 0-17 0-28-6-14-7-21-19-21-37 0-1 2-20 16-37 13-16 14-27 14-33v-1c1-2 4-12 19-13h2c7 0 11 2 16 7l3 5v1c0 6 0 17 15 34 13 17 15 36 15 37 0 18-6 30-21 37-10 6-22 6-28 6zm41-12v-1l2-1 1-1 1-1 1-2v-1l1-1v-1l1-1v-1l1-1v-4h1v-3l1-1v-11s-1-20-15-39C77 95 76 83 75 80v-4l-4-8c-4-3-9-5-17-7h-2c-18 2-22 15-22 16-1 2 2 14-13 33-16 19-17 39-17 39v8l1 1v5l1 1v3h1v2l2 1v1l1 1v1l1 1v2h1v1l1 1 1 1v1h1v1h1v1h2v1h1l1 1 1 2h1v1h2v1h1v1h3l1 1h1l1 1h2l1 1h3l1 1h3l1 2h7v1h16v-1h8v-2h4v-1h3l3-1h1v-1h2v-1h2v-1h1l1-1h2l1-1h1v-2h1v-1h1l1-1v-1h1l1-1zm0 0" fill="#fabe60"/><path d="M52 69c-3 0-4-1-3-3 0-16-5-19-5-19-2-1-2-3-1-5 1-1 2-2 4-1 0 0 8 6 7 25 0 2-1 3-2 3zm0 0" fill="#655433"/><path d="M40 161c0-3 4-8 6-8 1 0 2 6 1 9 0 5-2 5-3 5-2-2-5-3-4-6zm22 0c0-3-2-8-5-8s-3 6-2 9c0 5 2 5 5 5 2-2 3-3 2-6zm-11 29c5 0 6 8 6 8l-3-2v2l-1-2-1 2-1-2-3 3v-3l-2 3s0-9 5-9zm0 0" fill="#5b3626"/></svg>