<svg xmlns="http://www.w3.org/2000/svg" width="264" height="133pt" viewBox="0 0 198 133"><path d="M62 57.38c-4.1 0-4.24-6.51-.14-6.51 4.23 0 4.36 6.51.13 6.51zm0 0" fill="#cf9e47"/><path d="M56.44 132.17c-5.28 0-10.45-1.2-14.94-4-1.45-.92-2.64-1.99-3.96-3.05-3.04-2.4-5.55-5.46-8.2-8.52-2.25-2.66-4.5-5.99-7.27-8.51-.53-.4-1.2-.8-1.71-1.2-3.3-1.73-7.15-.93-10.32-3.06-.52-.4-1.05-.93-1.58-1.34a9.48 9.48 0 0 1-4.1-6.78C3.3 88.66 9.78 83.73 14.8 80.14c6.21-4.26 12.82-7.98 19.7-11.04 21.01 8.24 42.16 15.44 63.3 18.23.54 2.4.94 4.92.8 7.58a35.68 35.68 0 0 1-10.58 23.82c-7.92 7.59-20.08 13.44-31.58 13.44zm88.02-41.65h-1.71a37.87 37.87 0 0 1-12.43-2.93c13.88-1.73 27.76-6.13 41.9-13.97a87.42 87.42 0 0 0 12.03-7.73c-.4 1.08-.93 2-1.59 3.07-7.66 12.5-23.39 21.56-38.2 21.56zm-17.44-61.88a113.48 113.48 0 0 1 21.02-11.98c4.35-1.86 8.99-3.45 13.74-4.65a94.2 94.2 0 0 1-12.03 9.97c-7.13 4-14.8 6-22.73 6.66zm0 0" fill="#d3a54f"/><path d="M130.32 87.6a47.43 47.43 0 0 1-9.64-5.73c-1.33-.94-2.39-2-3.57-2.93a79.3 79.3 0 0 1-7.27-6.78c-2.25-1.73-5.16-3.33-7.8-3.33-1.45 0-2.78.53-3.83 1.86-1.86 2.13-1.86 5.59-1.6 8.25.14 2.93.8 5.6 1.2 8.39-21.15-2.8-42.3-9.99-63.31-18.23l5.94-2.4a162.72 162.72 0 0 1 29.61-8.39c8.86-1.6 18.1-2.66 26.17-7.04 6.48-3.6 12.16-8.53 17.98-13.18 2.25.27 4.62.4 7 .4 9 0 17.71-1.6 26.17-5.32 11.37-5.2 19.96-13.71 27.63-23.3a8.47 8.47 0 0 1 5.42 2.67 11.52 11.52 0 0 1 4.63 8.51c.12 4.13-3.44 6.52-2.9 10.79.38 4.92 2.9 9.57 3.55 14.36 1.06 6.4 1.06 13.58-1.45 19.7a87.42 87.42 0 0 1-12.03 7.72c-14.14 7.84-28.02 12.24-41.9 13.97zM93.2 71.21c-3.18 0-2.91 4.8.12 4.8 3.17 0 2.9-4.8-.12-4.8zm56.56-49.24a94.2 94.2 0 0 0 12.03-9.97c.53-.13 1.06-.26 1.45-.4-.52.67-1.05 1.2-1.71 1.73a50.34 50.34 0 0 1-11.77 8.64zm0 0" fill="#cf9e47"/><path d="M121.2 38.49c-2.38 0-4.75-.13-7-.4.66-.54 1.45-1.07 2.11-1.6 3.57-2.66 7.14-5.32 10.7-7.85 7.94-.67 15.6-2.66 22.74-6.66a50.34 50.34 0 0 0 11.77-8.64c.66-.53 1.2-1.06 1.71-1.73 3.44-.8 6.88-1.34 10.32-1.73H175c-7.67 9.58-16.26 18.1-27.63 23.29a64.06 64.06 0 0 1-26.17 5.32zm0 0" fill="#dbb568"/><path d="M93.31 76.01c-3.03 0-3.3-4.79-.12-4.79 3.03 0 3.3 4.8.12 4.8zm0 0" fill="#bc7f28"/><path d="M181.6 36.36c-.79-4.79-3.3-9.45-3.7-14.24-.4-4.39 3.18-6.78 2.91-10.9-.4-5.6-4.49-10.4-9.9-9.86-8.73.8-17.59 3.33-25.65 6.78-11.5 4.93-21.67 12.25-31.6 19.7-6.6 5.06-12.8 10.91-20.08 14.9-8.06 4.4-17.44 5.33-26.3 7.06a162.36 162.36 0 0 0-29.48 8.38 124.23 124.23 0 0 0-25.64 13.45C7 75.08.66 80.13 1.58 87.2a10.4 10.4 0 0 0 4.24 6.78c3.17 2.13 7 1.33 10.3 3.06 4.24 2.26 7.41 7.32 10.58 11.05 3.17 3.72 6.34 7.58 10.58 10.24 14.53 9.05 35.02 1.6 46.52-9.45a34.53 34.53 0 0 0 10.57-23.81c.27-5.46-1.58-10.52-1.98-15.97-.13-2.66-.27-6.13 1.58-8.26 3.7-4.39 10.58.27 13.62 3.2 2.77 2.8 5.68 5.46 8.86 7.98 6.6 4.93 13.74 8.25 22.07 8.65 15.2.8 31.99-8.51 40.05-21.56 3.96-6.65 4.1-15.17 3.04-22.75zm0 0" fill="#c0392d"/><path d="M180.02 35.03c-.66-4.79-3.17-9.45-3.7-14.24-.4-4.26 3.18-6.65 2.91-10.91-.27-5.46-4.36-10.38-9.92-9.85-8.72.93-17.45 3.46-25.5 6.79-11.5 4.93-21.81 12.24-31.72 19.82-6.62 4.93-12.7 10.78-20.1 14.77-7.92 4.4-17.31 5.46-26.17 7.06a161.75 161.75 0 0 0-29.47 8.38A120.47 120.47 0 0 0 10.7 70.3C5.55 73.9-.93 78.8.13 85.86a9.64 9.64 0 0 0 4.23 6.79c3.17 2.12 7 1.33 10.18 3.06 4.23 2.4 7.53 7.45 10.57 11.04 3.3 3.73 6.35 7.59 10.7 10.25 14.42 9.05 35.04 1.6 46.4-9.32a35.55 35.55 0 0 0 10.71-23.95c.13-5.46-1.72-10.51-1.99-15.83-.26-2.8-.26-6.13 1.6-8.39 3.56-4.26 10.57.27 13.47 3.2a73 73 0 0 0 9 7.98c6.46 5.06 13.74 8.25 22.07 8.65 15.2.8 31.98-8.52 39.9-21.56 4.1-6.65 4.24-15.17 3.05-22.75zm0 0" fill="#eb6053"/><path d="M168 17.86c-11.5-15.7-35.04.27-46.27 8.12-7.13 4.93-15.2 12.5-14.01 22.1.66 6.11 5.55 11.83 9.78 15.82 5.03 4.8 12.3 8.65 19.3 9.85 13.08 2.4 27.63-7.31 34.9-17.96 7.8-11.58 4.23-27.29-3.7-37.93zm0 0M48.51 115.4c12.82.4 29.2-5.72 35.03-17.83 3.17-6.39 4.35-14.5 3.43-21.56-.8-5.72-2.5-13.04-6.87-17.3-7-6.51-17.97-4.39-26.17-1.6C41.11 61.78 14.41 71.37 20.23 90c3.95 12.77 14.4 24.88 28.28 25.4zm0 0" fill="#2e3f50"/><path d="M146.84 39.82c.4-8.91.93-17.84 1.46-26.75.13-.26.13-.66.13-1.06-1.45.4-2.9.8-4.36 1.33v.4c-.53 8.91-.92 17.83-1.32 26.74-.53 11.18-.93 22.49-1.2 33.67 1.47 0 2.78-.13 4.24-.4.39-10.65.52-23.95 1.05-33.93zm0 0M124.64 23.98c-.4 6.8-.66 13.71-.92 20.5-.4 7.85-.67 15.7-.93 23.55a38.21 38.21 0 0 0 10.3 4.79c.94-8.78 1.73-17.7 2.39-26.62l1.59-24.61c0-1.73.26-3.46.4-5.32-4.77 2.39-9.26 5.18-12.83 7.71zm0 0M60.14 83.6c.4-8.92.92-17.84 1.45-26.75.14-.53.14-1.2.27-1.86-1.59.26-3.04.66-4.5 1.06v1.47c-.52 8.92-.92 17.83-1.32 26.74-.53 10.25-.8 20.5-1.06 30.74 1.2-.13 2.38-.27 3.57-.53l1.59-30.88zm0 0M38.06 63.63c-.4 8.26-.78 16.37-1.05 24.63-.4 7.71-.66 15.57-.93 23.28 3.18 2 6.75 3.2 10.44 3.73.93-8.38 1.6-16.77 2.25-25.28l1.59-24.63c.13-2.26.4-4.65.53-7.18-3.84 1.46-8.33 3.2-12.83 5.45zm0 0" fill="#2a728b"/></svg>