<svg xmlns="http://www.w3.org/2000/svg" width="143pt" height="133pt" viewBox="0 0 143 133"><path d="M32.72 125.48h53.14c19.43-9.77 32.71-31.03 32.71-54.31 0-22.28-18.57-41.38-36.71-51.58H36.57C18.57 29.79 0 48.89 0 71.17c0 23.28 13.29 44.54 32.72 54.31zm0 0" fill="#ded4d0"/><path d="M26.71.04l9.86 19.55h45.29V5.94zm0 0" fill="#c52c2a"/><path d="M4.86 72.75c1.14 19.97 13 38.8 30 47.41H83.7c17-8.62 28.86-27.44 29.86-47.41zm0 0" fill="#8c5427"/><path d="M81.86 7.09s1.57.14 4.28.14c1.29 0 3 0 4.86.14 1.86 0 4.14 0 6.57.15 2.43.14 5 .43 8 1 2.86.44 6 1.44 9.14 3.02 3 1.44 5.86 3.74 8.15 6.32a35.75 35.75 0 0 1 5.85 8.2c1.58 3.01 3 5.89 4.15 8.9.57 1.44 1.14 2.87 1.57 4.46.57 1.43 1 2.87 1.43 4.3.43 1.3.85 2.74 1.28 4.17.43 1.3.72 2.73 1.15 4.02.71 2.59 1.28 5.04 1.85 7.33.57 2.3 1 4.46 1.43 6.18.43 1.87.72 3.6 1 4.88.14.73.29 1.3.43 1.73a2.5 2.5 0 0 1-2 3.02c-1.29.29-2.57-.43-3-1.87l-.43-1.58c-.28-1.44-.86-3.02-1.28-4.74-.58-1.87-1.15-3.88-1.72-6.03-.71-2.3-1.43-4.6-2.28-7.2-.43-1.29-.86-2.43-1.29-3.87-.43-1.3-.86-2.59-1.43-3.88-.43-1.3-1-2.73-1.57-4.02-.57-1.3-1.14-2.73-1.71-4.03a66.93 66.93 0 0 0-4.15-7.76 39.73 39.73 0 0 0-5.14-6.6 22.14 22.14 0 0 0-6.14-4.17c-4.29-1.87-9.29-2.16-13.72-2.16-2.14 0-4.28 0-6.14.15-1.86 0-3.43.14-4.86.14-2.71.14-4.14.14-4.14.14zm0 0M32.72 133.24h53.14v-7.76H32.72zm0 0" fill="#e03432"/><path d="M75.29 125.48h-16c3.14-1.44 6-3.3 8.7-5.32h15.72c.15-.14.29-.28.43-.28a51.85 51.85 0 0 1-8.85 5.6zm32.57-52.73H92v-1.58c0-22.28-18.43-41.38-36.57-51.58h15.86c18.14 10.2 36.57 29.3 36.57 51.58v1.58zm0 0" fill="#e8e2e0"/><path d="M83.71 120.16H68a61.82 61.82 0 0 0 24-47.41h15.86a61.65 61.65 0 0 1-23.72 47.13c-.14 0-.28.14-.43.28zm0 0" fill="#af6928"/></svg>