<svg xmlns="http://www.w3.org/2000/svg" width="168" height="267" viewBox="0 0 126 200"><path d="M119 166c0 18-24 32-59 32s-63-18-60-32c4-17 25-21 56-21 35 0 63-3 63 21zm0 0" fill="#62ae38"/><path d="M119 156c-3-4-7-7-10-7 3 17-39 24-56 21-21-4-28-18-32-25-10 4-17 11-21 21 21 32 130 14 119-10zm0 0" fill="#7cb932"/><path d="M70 145H56c-31 0-52 4-56 21 0 4 0 7 4 14 10 11 35 18 56 18 17 0 31-4 42-11 14-3 17-14 17-21 0-10-3-14-14-17-7-4-21-4-35-4zm-10 53c-11 0-25 0-32-4-10-3-17-10-24-14-4-7-4-10-4-14 4-21 21-21 56-21h14c14 0 28 0 35 4 11 3 18 7 18 17 0 7-7 18-21 25-11 3-25 7-42 7zm0 0" fill="#416633"/><path d="M95 156c3 0 7 0 14 3s10 0 10-3c-3-7-14-11-28-11-3 4 0 11 4 11zm0 0" fill="#437c39"/><path d="M119 156c-3-4-7-7-10-7 0 3 0 7-4 7 0 3 4 3 4 3 7 4 10 0 10-3zm0 0" fill="#4c913c"/><path d="M98 156c4 0 4 0 11 3s10 0 10-3c-3-7-14-11-28-11-3 0-3 4 0 7 0 0 0 4 4 4h3zm18 3h-7c-7-3-7-3-11-3h-3c-4 0-4-4-4-4-3-3-3-7 0-7 14 0 25 4 28 11 0 3-3 3-3 3zm0 0" fill="#416633"/><path d="M56 191c-35-4-49-18-56-25 0 18 28 32 60 32s59-14 59-28c-10 17-31 21-63 21zm0 0" fill="#f9d353"/><path d="M109 180c-11 7-28 11-53 11-35-4-49-18-56-25 0 11 7 18 21 25 53 17 88-7 88-11zm0 0" fill="#fbe850"/><path d="M0 166c0 4 4 11 7 14 11 11 32 18 53 18 14 0 31-4 42-7 10-7 17-14 17-21-10 17-28 21-52 21H56c-35-4-49-14-56-25zm60 32c-21 0-42-7-53-18-7-3-7-10-7-14 7 7 21 21 56 21 4 4 7 4 11 4 24 0 42-4 52-21 0 7-7 14-17 21-11 7-28 7-42 7zm0 0" fill="#e0981c"/><path d="M28 149s-10 3-14 17c0 7 11 7 14 4 7-7 11-7 14-11l-14-10zm0 0" fill="#437c39"/><path d="M14 166c0 7 11 7 14 4s4-7 7-7c-7-4-10-7-10-11-4 4-11 7-11 14zm0 0" fill="#4c913c"/><path d="M28 149s-10 3-14 17v4c4 3 4 3 7 3 0 0 4-3 7-3 4-7 7-7 11-11h3c-3-3-10-10-14-10zm-7 24c-3 0-3 0-7-3v-4c4-14 14-17 14-17l14 10h-3c-4 4-7 4-11 11-3 0-7 3-7 3zm0 0" fill="#416633"/><path d="M53 163s-7 14 3 21c4 3 11-4 7-21H53zm0 0" fill="#437c39"/><path d="M56 184c4 0 11-4 7-14H49c0 3 0 10 7 14zm0 0" fill="#4c913c"/><path d="M53 163c-4 0-7 14 3 21h4l3-4s4-7 0-17H53zm7 21h-4c-10-7-3-21-3-21h10c4 10 0 17 0 17l-3 4zm0 0" fill="#416633"/><path d="M91 156s11 14 4 21c-7 3-14-11-21-14 7-4 17-7 17-7zm0 0" fill="#437c39"/><path d="M95 177c3-4 3-7 0-14-4 3-7 7-14 7 3 3 10 10 14 7zm0 0" fill="#4c913c"/><path d="M74 163c3 3 7 3 10 7 0 3 4 7 7 7h4c0-4 3-4 3-7s-7-14-7-14l-17 7zm17 14c-3 0-7-4-10-7 0-4-4-4-7-7 7-4 17-7 17-7s7 10 7 14-3 7-3 7h-4zm0 0" fill="#416633"/><path d="M81 124s3-14 21-20c14-7 17-11 21-14 0 0 3 0 0 3 0 14-25 14-25 38-10-3-17-7-17-7zm0 0" fill="#62ae38"/><path d="M123 93v-3c-4 3-7 7-21 14-18 6-21 20-21 20h3c7-20 35-20 39-31zm0 0" fill="#7cb932"/><path d="M84 121s0-11 21-18c4-3 7-3 7-3s-3 4-14 7c-7 3-10 10-14 14zm0 0" fill="#8dbf2d"/><path d="M81 124l17 7c0-14 7-21 14-24s11-7 11-14c3-3 0-3 0-3-4 3-7 10-21 14-18 3-21 17-21 20zm17 7c-10-3-17-7-17-7s3-17 21-20c14-7 17-11 21-14 3 0 3 3 0 3 0 7-4 11-11 14-7 7-14 10-14 24zm0 0" fill="#416633"/><path d="M98 110c4-3 4-7 4-7-4 1-7 1-7 4l3 3zm0 0" fill="#437c39"/><path d="M102 104c-4 0-7 0-7 3l3 3c0-3 0-3 4-3v-3zm0 0" fill="#4c913c"/><path d="M95 107l3 3c4-3 4-7 4-7-4 1-7 1-7 4zm3 3l-3-3c0-3 3-3 7-3v6h-4zm0 0" fill="#416633"/><path d="M91 117l-3-3c-4 0-7 3-7 7 3 0 7 0 10-4zm0 0" fill="#437c39"/><path d="M88 114c-4 0-7 3-7 7h7c0-4 0-4 3-4l-3-3zm0 0" fill="#4c913c"/><path d="M81 121h3c4 0 4 0 4-4 3 0 0-3 0-3-4 0-4 3-7 7zm3 0h-3c0-4 3-7 7-7l3 3c-3 4-3 4-7 4zm0 0" fill="#416633"/><path d="M102 107c-11 7-14 17-14 21 3 0 7 0 10 3 0-24 25-24 25-38v-3c0 10-7 14-21 17zm0 0" fill="#fdd227"/><path d="M102 107c-11 7-14 17-14 21h7c0-21 24-21 28-35v-3c0 10-7 14-21 17zm0 0" fill="#fade39"/><path d="M88 128c3 0 7 0 10 3 0-14 7-21 14-24s11-7 11-14c0 7-7 7-14 14h-7c-11 7-14 17-14 21zm10 3c-3-3-7-3-10-3 0-4 3-14 14-21h7c7-7 14-7 14-17h3c0 3-3 3-3 3 0 7-4 11-11 14-7 7-14 10-14 24zm0 0" fill="#e0981c"/><path d="M98 121c-3 0-7-4-7-4s4 4 7 4zm7-7c-3 0-7-4-7-4s4 4 7 4zm7-7l-3-3 3 3zm0 0" fill="#e0981c"/><path d="M53 65s7 11-11 35c-14 21-21 38-14 52 7 11 35 25 70 7 14-10 7-31-10-35-4-3-18-7-28-3 0-11 21-38 14-56H53zm0 0" fill="#62ae38"/><path d="M88 124c-4-3-21-7-32-3 0-7 14-24 18-42V69c-7 0-14 3-21 0 0 7 0 17-11 31-7 14 0 28 4 42 3 14 24 24 45 14 14-4 14-28-3-32zm0 0" fill="#7cb932"/><path d="M95 128c-7-7-25-7-32-7-3 3-7 7-3 10 3 7 17 4 17 4-3 0-3 10-17 7-14-7-11-18 3-38 7-18 7-28 7-35 0 0 0 3-3 3 3 7-4 21-11 28-3 10-14 35-7 42 11 17 32 17 42 10 11-3 7-17 4-24zm0 0" fill="#8dbf2d"/><path d="M60 121s-7 10 0 14c3 3 10 7 17 0-3 3-3 7-17 3-7 0-11-7-4-21 4 0 4 4 4 4zm0 0" fill="#62ae38"/><path d="M53 65s3 4 0 11c0 3 0 14-11 24-17 24-21 38-14 52 4 7 18 14 35 14 14 0 25-3 35-7 4-3 7-10 7-17s-7-18-17-18c-4-3-11-3-21-3h-7c0-4 3-7 3-14 7-10 14-28 11-42H53zm10 101c-17 0-31-7-35-14-3-7-3-14-3-21 3-10 10-17 17-31 7-10 11-21 11-24V65h21c7 14-4 32-11 45 0 4-3 7-3 11h7c10 0 17 0 21 3 10 0 17 11 17 18s-3 14-7 17c-10 4-21 7-35 7zm0 0" fill="#416633"/><path d="M46 142c-4-14 10-42 14-49 3-7 10-17 7-28H53s7 11-11 35c-14 21-21 38-14 52 7 11 32 21 63 11-14 0-38 0-45-21zm0 0" fill="#fdd227"/><path d="M42 145c-7-21 11-41 14-52 4-3 11-14 7-24-3 3-3 3-10 0 0 7 0 17-11 31-14 21-21 38-14 52 7 11 32 21 63 11-17 3-42 0-49-18zm0 0" fill="#fade39"/><path d="M53 65s3 4 0 11c0 3 0 14-11 24-17 24-21 38-14 52 4 7 18 14 35 14 11 0 18 0 28-3H81c-14 0-32-4-35-21-4-14 7-32 10-42 4-3 4-7 4-7v-3c3-7 10-18 3-25H53zm10 101c-17 0-31-7-35-14-3-7-3-14-3-21 3-10 10-17 17-31 7-10 11-21 11-24V65h14c3 7 0 18-4 25l-3 3c0 4 0 4-4 7-3 10-14 28-10 42 3 17 21 21 35 21h10c-7 3-17 3-28 3zm0 0" fill="#e0981c"/><path d="M21 34S35 2 46 6c7 0 10 3 10 3h7c4 0 7-10 18-3 10 3 14 21 17 31 0 4-21 18-42 14-14 0-31-14-35-17zm0 0" fill="#62ae38"/><path d="M21 34S35 2 46 6c7 0 10 3 10 3h7c4 0 7-10 18-3 10 7 10 21 14 31-4 4-18 18-39 14-14 0-31-14-35-17zm0 0" fill="#7cb932"/><path d="M21 34c4 3 21 17 35 17h4c21 0 35-10 38-14v-7C95 23 88 9 81 6c-4-4-4-4-7-4s-7 4-11 7h-7s-3-3-10-3C35 6 25 30 21 34zm39 17h-4c-14 0-31-14-35-17 0 0 14-32 25-28 7 0 10 3 10 3h7c4-3 7-7 11-7s3 0 7 4c7 3 14 17 17 24v7l-10 7c-7 4-18 7-28 7zm0-38l-4-4zm0 0" fill="#416633"/><path d="M53 30c-4 7-7 14-11 14-7 0-7-10-7-17 4-11 7-18 14-14 4 0 7 7 4 17zm0 0" fill="#37402b"/><path d="M53 30c-4 11-7 18-11 14-7 0-7-7-7-17 4-7 7-14 14-14 4 0 7 10 4 17zm0 0" fill="#e5e7e1"/><path d="M53 34v-4c3-7 0-17-4-17-7 0-10 7-14 14v3c7 4 11 4 18 4zm0 0" fill="#fefefe"/><path d="M46 13c-4 0-7 7-11 14v14c0 3 4 3 7 3s7-3 11-14V20c0-4-4-7-4-7h-3zm-4 31c-3 0-7 0-7-3V27c4-7 7-14 11-14h3s4 3 4 7v10c-4 11-7 14-11 14zm42-17c4 7 0 17-3 17-4 4-11-3-14-14-4-10 0-17 3-21 7 0 11 7 14 18zm0 0" fill="#37402b"/><path d="M84 27c4 10 0 17-3 21-4 0-11-7-14-14-4-11 0-21 3-21 7 0 11 3 14 14zm0 0" fill="#e5e7e1"/><path d="M84 27c-3-11-7-14-14-14-3 0-7 10-3 21l3 3c11 0 14-10 14-10zm0 0" fill="#fefefe"/><path d="M74 13h-4s-3 3-3 7v14c3 7 7 14 14 14 3 0 3-4 3-7V27c-3-7-7-14-10-14zm7 35c-7 0-11-7-14-14V20c0-4 3-7 3-7h4c3 0 7 7 10 14 0 7 4 10 0 14 0 3 0 7-3 7zm0 0" fill="#37402b"/><path d="M46 44S25 23 14 34c-7 7 4 31 35 35 18 0 42-4 56-14 7-7 7-18 0-21-3-4-14-7-28 10-7-3-21-14-31 0zm0 0" fill="#fdd227"/><path d="M46 44S25 23 14 34c-7 7 7 28 39 31 17 0 35-3 45-10 11-11 11-18 7-21-7-4-14-7-28 10-7-3-21-14-31 0zm0 0" fill="#fade39"/><path d="M46 44S25 23 18 34c-7 7 3 24 35 28 17 3 31 0 42-11 10-7 10-14 7-17-7-4-11-4-25 10-7-3-21-14-31 0zm0 0" fill="#fcea8b"/><path d="M46 44s-4 7-21 0c10 11 28 14 35 14 17-3 31-14 35-17-7 0-11 7-18 3s-21-14-31 0zm0 0" fill="#fade39"/><path d="M46 44s-4 7-21 0c10 11 28 11 35 11 14 0 31-11 35-14-7 0-11 7-18 3s-21-10-31 0zm0 0" fill="#fcea8b"/><path d="M21 30s-3 0-7 4c0 0-3 3 0 10 0 4 4 11 11 14l24 11h11c7 0 31-4 45-14 4-4 7-11 4-14 0-4 0-7-4-7 0-4-3-4-7-4-7 0-14 4-21 14 0 0-3 0-3-3-4 0-11-4-18-4-3 0-7 0-10 7-4 0-14-14-25-14zm39 39H49c-7-4-17-4-24-11-7-3-11-10-11-14-3-7-3-10 0-10 4-4 7-4 7-4 11 0 21 11 25 11 3-4 7-4 10-4 7 0 14 4 18 4 0 3 3 3 3 3 7-10 14-14 21-14 4 0 7 0 7 4 4 0 7 3 7 7 0 3-3 10-7 14-14 14-38 14-45 14zM39 48l7-7-7 7zm0 0" fill="#e0981c"/><path d="M53 51s-4 0-4-3c-3 0-3-4 0-4h4v7zm0 0" fill="#36522f"/><path d="M53 48v-4h-4c-3 0-3 4-3 4 3 0 7 3 7 0zm0 0" fill="#2f3a2b"/><path d="M49 44c-3 0-3 4-3 4h3c0 3 0 3 4 3v-7h-4zm4 7c-4 0-4 0-4-3h-3v-4h7v7zm0 0" fill="#416633"/><path d="M70 44v4c0 3-3 3-3 3v-3c0-4 3-4 3-4zm0 0" fill="#36522f"/><path d="M70 44s-3 0-3 4v3s3-3 3-7zm0 0" fill="#2f3a2b"/><path d="M70 44s-3 0-3 4v3c3 0 3 0 3-3v-4zm-3 7v-3c0-4 3-4 3-4v7h-3zm0 0" fill="#416633"/><path d="M53 58c-4 0-11 7-14 14-4 11-11 18-18 11-7-4-7-4-10-4 0 4 3 4 3 7 0 0 0 7 7 7 0 4-3 4-3 4-4-4-4-4-7 0h3c4 3 11 10 21 0 7-11 11-32 25-39h-7zm0 0" fill="#b02827"/><path d="M53 58c-4 0-11 7-14 14-4 11-11 18-18 11-7-4-7-4-10-4 3 4 3 4 3 7 0 0 0 7 7 7 0 0 0 4-3 4h-4c4 3 11 7 21-4 11-17 11-35 25-35h-7zm0 0" fill="#cc2527"/><path d="M11 97h3c4 3 7 3 11 3s7 0 10-3 4-11 7-14c4-11 7-21 18-25h-7c-4 0-11 7-14 14-4 11-11 14-14 14 0 0-4 0-4-3-3 0-7-4-7-4h-3v4c3 0 3 0 3 3s4 7 7 7c0 4-3 4-3 4-4 0-4-4-4-4l-3 4zm14 7c-4 0-7-4-11-7h-3c0-4 3-4 3-4h4c0 4 3 0 3 0-3 0-7-3-7-7 0-3 0-3-3-3v-4h3s4 0 7 4c0 3 4 3 4 3 3 0 10-3 14-14s10-14 14-14h10-3c-7 4-14 14-18 25-3 3-3 10-7 14s-7 7-10 7zm0 0" fill="#942824"/><path d="M32 90s7-7 10-21c4-4 7-11 14-11-7 0-10 7-14 14-3 11-10 18-10 18zm0 0" fill="#942824"/><path d="M49 30c0 4-3 7-7 7 0 0-3-3 0-7 0-3 0-7 4-7s3 4 3 7zm0 0" fill="#4c7abc"/><path d="M49 30c0-3 0-7-3-7s-4 4-4 7v4s4 0 7-4zm0 0" fill="#5aa7dc"/><path d="M46 23c-4 0-4 4-4 7v7h4s3-3 3-7v-3c0-4-3-4-3-4zm0 14h-4v-3c-3 0-3-4 0-4 0-3 0-7 4-7 0 0 3 0 3 4v3c0 4-3 7-3 7zm0 0" fill="#4660a8"/><path d="M81 30c0 4 0 7-4 7 0 0-3 0-3-3-4-7-4-11 0-11s3 4 7 7zm0 0" fill="#4c7abc"/><path d="M81 30c-4-3-4-7-7-7s-4 4 0 11v3l7-7zm0 0" fill="#5aa7dc"/><path d="M74 23s0 4-4 4c0 3 0 3 4 3 0 4 0 7 3 7s4-3 4-7c-4-3-4-7-7-7zm3 14c-3 0-3-3-7-3v-7c4 0 4-4 4-4 3 0 7 4 7 7s0 7-4 7zm0 0" fill="#4660a8"/><path d="M67 138s-4 0-7-3c-7-4-4-11 0-14v-4 4c-4 3-4 10 0 14 7 3 10 3 17 0-3 3-7 3-10 3zm0 0" fill="#416633"/><path d="M70 124c-7 0-10 7-10 11 3 3 7 3 10 3 14-10 7-21 0-14zm0 0" fill="#437c39"/><path d="M70 124c-7 0-10 4-10 7 3 4 10 7 14 4 7-7 3-14-4-11zm0 0" fill="#4c913c"/><path d="M60 135c3 0 7 3 7 3h3c7-7 7-10 7-14l-3-3s-4 0-4 3c-7 0-10 7-10 11zm7 3s-4 0-7-3c0-4 3-11 10-11 0-3 0-3 4-3s3 3 3 3c0 4 0 7-7 14h-3zm0 0" fill="#416633"/><path d="M56 131s-7 4-3 11c0 3 7 10 10 3 4-3 4-7 4-7-4 0-7-3-7-3-4 0-4-4-4-4zm0 0" fill="#437c39"/><path d="M53 135s-4 3 0 7c0 3 7 10 10 3 4-3 4-3 4-7-7 0-11 0-14-3zm0 0" fill="#4c913c"/><path d="M56 131c-3 4-7 4-3 11 0 3 3 7 7 7l3-4c4-3 4-7 0-7 0 0 0-3-3-3s-4 0-4-4zm4 18c-4 0-7-4-7-7-4-7 3-11 3-11l4 4c3 0 3 3 7 3 0 0 0 4-4 7l-3 4zm0 0" fill="#416633"/><path d="M91 142c0-4-7-7-14-7-3 0-7 3-7 3 0 4 7 11 11 11 3 3 10 0 10-7zm0 0" fill="#437c39"/><path d="M91 142c0-4-7-7-14-7 0 3-3 3-7 3 4 4 7 11 11 11 3 3 10 0 10-7zm0 0" fill="#4c913c"/><path d="M70 138c0 4 7 11 11 11h3c4 0 4 0 7-4v-3c0-4-7-7-10-7h-4c-3 0-7 3-7 3zm14 11h-3c-4 0-11-7-11-11 0 0 4-3 7-3h4c3 0 10 3 10 7v3c-3 4-3 4-7 4zm0 0" fill="#416633"/><path d="M63 107c-3 0-7 3-10 7 0 3 3 7 7 7 0 0 3-7 3-14zm0 0" fill="#437c39"/><path d="M53 114c0 3 0 3 3 7 4-4 4-11 7-14-3 0-7 3-10 7zm0 0" fill="#4c913c"/><path d="M63 107c-3 0-7 3-10 7v3l3 4h4v-4c3-3 3-7 3-7v-3zm-3 14h-4l-3-4v-3c3-4 7-7 10-7v10c-3 0-3 4-3 4zm0 0" fill="#416633"/><path d="M63 90c0 3 4 7 4 10 3-3 3-7 7-14-4 0-7 0-11 4zm0 0" fill="#437c39"/><path d="M63 90c0 3 0 7 4 10 0-7 3-10 3-14 0 0-3 0-7 4zm0 0" fill="#4c913c"/><path d="M70 86l-3 4c-4 3 0 7 0 10 3-3 3-10 7-14h-4zm-3 14c0-3-4-7-4-10 4-4 7-4 11-4 0 4-4 11-7 14zm0 0" fill="#416633"/><path d="M63 79c-7 0-10-3-10-3s7 7 14 3h-4zm-3 18c-7 0-11-7-11-7s4 7 11 3v4zm-11 13c-7 0-10-3-10-3s3 3 14 3h-4zm-10 18c-7 0-11-4-11-4s7 4 18 4h-7zm3 21c-14 0-17-4-17-4s3 7 24 4h-7zm14 17s7-3 7-7h4c-4 4-11 7-11 7zm42 25c-7 0-10-4-10-4s3 4 10 4zm-21 7c-10 0-14-7-14-7s4 7 14 7zm-24 0c-14-4-18-11-18-11s4 7 18 11zm-32-7c-7-4-7-11-7-11s0 4 7 11zm0 0" fill="#e0981c"/><path d="M67 97l3-7c-3 0-7 0-3 7zm-7 13l-4 7c-3 0-3-3 4-7zm-7 25s-4 7 3 10c4 4 7 0 7-3 0 0-3-4-10-7zm7-4s7 4 14 4c0-4 7-11 0-11-4-3-11 0-14 7zm14 11s3-4 3-7c4 0 14 0 14 10 0 4-14 7-17-3zm0 0" fill="#5a973a"/><path d="M56 58c-3 0-7 0-10-3-14-4-21-11-21-11s7 7 21 11c10 3 28 3 49-14-11 7-21 14-28 14-4 3-7 3-11 3zm0 0" fill="#e0981c"/><path d="M46 65s-4 14-11 25c-3 3-10 14-21 7 4 0 11 0 11-4 0 0-11-3-11-10 4 0 7 7 14 3 11-7 11-21 25-28 0 0-7 4-11 14L32 90c3 0 14-25 14-25zm0 0" fill="#e01f25"/><path d="M32 34s3-25 17-21c4 0 11 7 4 24 3-3 7-3 14 0-4-7-4-24 3-28 7 0 18 11 18 25 0-4 3-4 3-4 0-3-7-24-17-24-7 0-11 7-14 10 0 0-4-10-14-10-7 0-18 10-21 24 3 0 7 4 7 4zm0 0" fill="#8dbf2d"/><path d="M60 16v-3c0-4 0-4 3 0l-3 3zm0 0" fill="#8dbf2d"/><path d="M56 72v4s4 3 7 3v-7h-7zm0 0" fill="#fcea8b"/><path d="M49 30c-3 4-3 7-3 7-4 0-4-3-4-7 0-3 4-3 4-3l3 3zm0 0" fill="#252422"/><path d="M46 27v3s-4 0-4-3h4zm0 7v3s-4 0-4-3h4zm0 0" fill="#fefefe"/><path d="M74 34l3 3c0-3 4-3 0-7 0-3 0-3-3-3v7zm0 0" fill="#252422"/><path d="M74 30h3v-3h-3v3zm0 0" fill="#fefefe"/><path d="M95 107l3-3c4 0 0 3 0 3zm-11 14c4-4 4-7 4-7-4 0-4 7-4 7zm0 0" fill="#5a973a"/><path d="M112 104v3s11-7 11-14c0 4-4 7-11 11zm-10 6v4c0-4 3-7 10-7h-3l-7 3zm-11 7l4 4c0-4 3-7 7-7-4 0-4 0-4-4 0 4-3 7-7 7zm0 4h4v3h-4v-3zm0 0" fill="#fcea8b"/><path d="M25 156s0 3 7 7c-4 3-11 10-14 7s0-11 7-14zm24 14l14 3c0 4 0 7-3 7-4 4-11-3-11-10zm35 0s7 0 11-4c3 4 0 7 0 11-4 0-11-7-11-7zm25-14v-7c3 3 10 7 7 10 0 0-4 0-7-3zm0 0" fill="#5a973a"/><path d="M56 79h7l-7 14c-3 0-7-3-7-3 4 0 7-11 7-11zm-7 14l4 4s-4 10-7 13c-4 0-4-3-7-3l10-14zm-10 17h7c-4 4-4 11-4 18-3 0-10-4-10-4 0-3 3-14 7-14zm-11 18s7 3 11 0c0 7 0 10 3 21-3 0-10 0-14-7v-14zm0 21s4 14 28 17c0-3 4-3 4-3s-11-4-18-11c0 0-7 0-14-3zm32 17s10 0 21-3c-4 3-14 0-18 0 0 3 0 3-3 3zm-60 4s0 7 14 14c-3-4 0-4 0-4L0 170zm14 10s4 4 4 7c7 4 17 7 24 7l-7-7s-14-3-21-7zm25 7s3 7 7 7h21l-4-3c-3 0-17 0-24-4zm28 4s0 3 3 3c11 0 21-3 21-3l-3-4c-4 4-21 4-21 4zm24-4v4l11-7zm0 0" fill="#fcea8b"/></svg>