<svg height="176" viewBox="0 0 105 132" width="140" xmlns="http://www.w3.org/2000/svg"><path d="m40.1 100.75 10.56 30.83h-50.65v-18.55c0-7.13 4.62-13.4 11.42-15.66l18.67-6.17c-1.6 3.65 10 9.56 10 9.56zm24.8 0-10.56 30.83h50.65v-18.55c0-7.13-4.62-13.4-11.42-15.66l-18.67-6.17c1.6 3.65-10 9.56-10 9.56zm0 0" fill="#e0312a"/><path d="m52.17 131.58h-1.5c-8.21-11.24-17.64-21.27-29.9-28.4l11.6-3.93-19.9-9.38c15.83-2.43 14.04-10.01 27.53-12.82l-1.04 9.27zm.56 0h1.6c8.12-11.24 17.55-21.27 29.9-28.4l-11.6-3.93 19.9-9.38c-15.93-2.43-14.13-10.01-27.53-12.82l1.04 9.27zm0 0" fill="#4a4644"/><path d="m52.92 86.7h-.65c-6.8 0-9.72-1.04-13.3-5.16v-2.72c2.64 3.1 5 4.4 8.86 4.87 1.32.19 2.74.19 4.44.19h1.22c1.7 0 3.2 0 4.43-.19 3.87-.47 6.23-1.78 8.96-4.87v2.72c-3.68 4.12-6.6 5.15-13.4 5.15h-.56zm0 0" fill="#f4c993"/><path d="m52.55 131.58h-.38l-13.2-45.27v-4.77c3.58 4.12 6.5 5.15 13.3 5.15h1.22c6.8 0 9.71-1.03 13.4-5.15v4.77l-13.3 45.27zm0 0" fill="#f4c993"/><path d="m79.33 43.4-.1-.1-.37.1h-.1c-.47.18-.84.37-1.31.74-.1 1.13-.66 14.53-.66 15.28.09 0 .28.1.37.1.47.09.95 0 1.42-.2 1.98-.65 3.77-3.55 4.43-7.12.66-4.5-.75-8.43-3.2-8.8zm0 0" fill="#fcd7a9"/><path d="m76.4 44.99c-.18.19-.28.37-.46.65v-.18l-.2.18s.3-20.71.2-21.27c-3.59 1.78-11.23.75-19.53-.19-11.4-1.4-23.95-2.81-28.48 3.1 0 .46 2.08 18.36 2.08 18.36l-.19-.18v.18c-.1-.28-.28-.46-.47-.65-.38-.28-.66-.66-1.04-.85a3.71 3.71 0 0 0 -1.32-.75h-.1l-.37-.1-.1.1h-.47c-2.45.38-3.87 4.31-3.11 8.81.56 3.57 2.36 6.47 4.34 7.12.47.2.94.29 1.41.2.2 0 .29-.1.47-.1 1.04 5.15 2.55 9.18 4.34 11.9 2.26 3.19 3.96 5.63 5.56 7.5 2.65 3.1 5 4.4 8.87 4.87 1.32.19 2.74.19 4.44.19h1.22c1.7 0 3.2 0 4.43-.19 3.87-.47 6.23-1.78 8.96-4.87 1.51-1.87 3.21-4.31 5.47-7.5 1.8-2.72 3.3-6.75 4.44-11.9 0-.75.56-14.15.66-15.28-.38.19-.66.57-1.04.85zm0 0" fill="#fcd7a9"/><path d="m30.1 31.96c-.1.56-.19 1.12-.19 1.68 1.32 15.38 4.06 29.25 11.04 38.52 0 0-13.11-6.37-12.26-5.71.37.28 1.13-20.8-.76-22.4-.38-.38-.75-.57-.94-.66h-.1l-.37-.1-.1.1h-.37l-.85-10.39a19.91 19.91 0 0 1 5.66-14.53c5.37-5.71 10.75-7.59 21.5-7.59h1.03c10.76 0 16.14 1.88 21.6 7.6a20.21 20.21 0 0 1 5.57 14.52l-.85 10.4h-.38l-.1-.1-.37.1h-.1c-.18.1-.47.28-.94.66-1.88 1.6-1.03 22.68-.66 22.4.76-.66-12.35 5.71-12.35 5.71 6.98-9.27 9.71-23.14 11.03-38.52 0-.56 0-1.12-.1-1.68-7.35-5.34-38.38-5.34-45.64 0zm0 0" fill="#4a4644"/><path d="m28.78 103.84c0 .75-.66 1.4-1.41 1.4-.76 0-1.32-.65-1.32-1.4s.56-1.4 1.32-1.4c.75 0 1.41.65 1.41 1.4zm4.62 3.46c0 .76-.56 1.41-1.32 1.41-.75 0-1.41-.65-1.41-1.4s.66-1.31 1.41-1.31c.76 0 1.32.56 1.32 1.3zm-1.5-11.61c0 .56-.38.94-.95.94s-.94-.38-.94-.94.37-.94.94-.94.94.38.94.94zm-4.72-2.44c0 .56-.57 1.13-1.13 1.13-.67 0-1.23-.57-1.23-1.13 0-.65.56-1.21 1.23-1.21.56 0 1.13.56 1.13 1.21zm-5.85-2.72c0 .75-.66 1.41-1.42 1.41-.75 0-1.41-.66-1.41-1.4 0-.76.66-1.41 1.41-1.41.76 0 1.42.65 1.42 1.4zm16.6 20.62c0 .75-.66 1.4-1.42 1.4-.75 0-1.41-.65-1.41-1.4s.66-1.4 1.41-1.4c.76 0 1.42.65 1.42 1.4zm3.58 4.31c0 .66-.47 1.22-1.22 1.22-.66 0-1.23-.56-1.23-1.22 0-.75.56-1.3 1.23-1.3.75 0 1.22.55 1.22 1.3zm3.39 3.84c0 .66-.46 1.13-1.12 1.13s-1.14-.47-1.14-1.13c0-.65.48-1.12 1.14-1.12s1.13.47 1.13 1.12zm3.22 4.41c0 .47-.38.84-.85.84a.84.84 0 0 1 -.85-.84c0-.47.37-.85.85-.85.47 0 .85.38.85.85zm28.67-19.87c0 .75.56 1.4 1.4 1.4.76 0 1.33-.65 1.33-1.4s-.57-1.4-1.32-1.4c-.85 0-1.41.65-1.41 1.4zm-4.72 3.46c0 .76.66 1.41 1.41 1.41.76 0 1.42-.65 1.42-1.4s-.66-1.31-1.42-1.31c-.75 0-1.41.56-1.41 1.3zm1.6-11.61c0 .56.38.94.95.94.47 0 .94-.38.94-.94a.94.94 0 0 0 -.94-.94c-.57 0-.95.38-.95.94zm4.73-2.44c0 .56.46 1.13 1.12 1.13s1.23-.57 1.23-1.13c0-.65-.57-1.21-1.23-1.21s-1.13.56-1.13 1.21zm5.84-2.72c0 .75.66 1.41 1.41 1.41.76 0 1.42-.66 1.42-1.4 0-.76-.66-1.41-1.42-1.41-.75 0-1.41.65-1.41 1.4zm-16.6 20.62c0 .75.66 1.4 1.41 1.4.76 0 1.41-.65 1.41-1.4s-.65-1.4-1.4-1.4c-.76 0-1.42.65-1.42 1.4zm-3.68 4.31c0 .66.57 1.22 1.32 1.22.66 0 1.23-.56 1.23-1.22 0-.75-.57-1.3-1.23-1.3-.75 0-1.32.55-1.32 1.3zm-3.3 3.84c0 .66.47 1.13 1.13 1.13s1.13-.47 1.13-1.13c0-.65-.47-1.12-1.13-1.12s-1.13.47-1.13 1.12zm-3.3 4.41c0 .47.37.84.85.84.47 0 .84-.37.84-.84a.84.84 0 0 0 -.84-.85.85.85 0 0 0 -.85.85zm0 0" fill="#fafbfb"/><path d="m77.07 43.4a21.3 21.3 0 0 0 -1.98 2.8h-1.6c-.48 3.1-1.8 5.35-3.5 6.75a9.07 9.07 0 0 1 -5.84 2.16c-4.34 0-9.15-3.38-9.53-10.97a2.58 2.58 0 0 0 -1.6-.56c-.75 0-1.04.19-1.7.56-.28 7.6-5.19 10.97-9.52 10.97-3.97 0-8.4-2.81-9.34-8.9h-1.32a7.31 7.31 0 0 0 -1.8-2.82h3.21c.85-1.68 3.02-2.15 3.96-2.43 1.98-.38 4.44-.57 6.6-.57 4.06 0 6.7.75 7.74 2.25a3.96 3.96 0 0 1 4.34 0c1.03-1.5 3.68-2.25 7.73-2.25 2.17 0 4.53.2 6.51.57.94.28 3.2.75 3.96 2.43zm0 0" fill="#4a4644"/><path d="m47.08 51.45c.94-2.06 1.6-4.87 1.8-8.25.56.28.93.75.93 1.13-.1 3.28-1.22 5.53-2.73 7.12zm-7.55 1.69c-2.92-1.03-5.47-3.75-5.75-8.34-.1-1.03.57-1.7 2.26-2.07-.38.38-.57.85-.47 1.5.19 4.32 1.89 7.22 3.96 8.9zm30.09-1.31a23 23 0 0 0 1.79-8.25c.56.37.94.75 1.04 1.22-.2 3.18-1.23 5.53-2.83 7.03zm-7.92 1.12c-2.83-1.03-5.48-3.75-5.76-8.34 0-1.03.66-1.69 2.27-2.06-.38.37-.48.84-.48 1.5.2 4.3 1.9 7.22 3.97 8.9zm0 0" fill="#6d6967"/><g fill="#4a4644"><path d="m78.4 41.9c-.39.55-.1-19.22-31.32-7.97-11.51 4.12-27.45 2.71-34.9-14.72-3.4-7.96-1.13-19.77-1.5-19.21.37-.56 1.4 6.09 8.2 8.9 6.32 3.47 18.39 3 32.25 1.78 13.87-1.22 22.73 3.47 25.75 12 3.5 7.97 1.13 19.77 1.51 19.21zm0 0"/><path d="m75.09 23.62c0 .28-2.55-2.63-7.73-3.84-5.1-1.5-12.83-1.4-21.6-1.03-8.68.46-15.75-1.6-20.1-5.35-4.43-3.37-6.12-8.43-6.22-8.24.1-.2 2.55 2.62 7.74 3.93 5.09 1.5 12.92 1.4 21.6.94 8.67-.38 15.75 1.68 20.09 5.34 4.43 3.47 6.22 8.53 6.22 8.25zm0 0"/></g></svg>