<svg height="134pt" viewBox="0 0 67 134" width="67pt" xmlns="http://www.w3.org/2000/svg"><path d="m2.67 38.27c.15-1.48 1.04-4.45 7.56-6.82.74-.3 2.07-.74 3.56-1.33 8.74-3.11 17.34-6.37 19.56-8.15h.3c2.22 1.78 10.82 5.04 19.42 8.15 1.63.6 2.81 1.04 3.7 1.33 6.37 2.37 7.41 5.48 7.41 6.82zm54.99-9.33c-.74-.3-2.07-.9-3.55-1.34-5.34-1.92-16.31-5.92-18.68-7.7v-3.85-.15c3.26-1.19 5.19-3.85 5.19-7.1a7.27 7.27 0 0 0 -14.53 0h4a3.29 3.29 0 0 1 3.26-3.26 3.29 3.29 0 0 1 3.26 3.25c0 1.93-1.48 2.82-2.66 3.26-1.04.3-2.82 1.33-2.67 4.15v3.85c-2.67 1.78-13.2 5.63-18.39 7.55-1.62.45-2.81 1.04-3.7 1.34-11.41 4.29-9.04 10.95-8.89 11.25l1.19.89h63.9l1.32-.89c0-.3 2.37-6.96-9.04-11.25zm0 0" fill="#8e5748"/><path d="m64.18 37.82h-4v-1.03h3.7c.16.44.3.73.3 1.03zm-58.84 0h-2.52c0-.3.14-.59.3-1.03h2.22zm-5.2-.59c-.44-1.63-.29-6.22 9.05-9.78.89-.29 2.08-.88 3.7-1.33 5.2-1.92 15.72-5.77 18.39-7.55v1.48c-3.56 1.78-10.53 4.3-17.5 6.96-1.48.44-2.81.89-3.55 1.33-1.78.6-3.26 1.34-4.45 2.08-4 2.37-5.33 4.88-5.63 6.81zm31.14-21.92v-.6c-.15-2.36 1.03-3.4 2.07-3.84v1.33a3.64 3.64 0 0 0 -2.07 3.1zm0 0" fill="#2e2925"/><path d="m64.18 37.82c0-.3-.14-.59-.3-1.03h.3zm-61.36 0h-2.52s-.15-.14-.15-.59c.3-1.93 1.63-4.44 5.63-6.81-2.96 2.07-4.15 4.3-4.15 6.37h1.47c-.15.44-.3.73-.3 1.03zm30.53-17.33v-1.63a20 20 0 0 1 -2.07 1.19v-4.75a3.64 3.64 0 0 1 2.07-3.11zm0 0" fill="#b25d45"/><path d="m26.24 7.31h-.15a7.27 7.27 0 0 1 14.53-.3h-.15a7.34 7.34 0 0 0 -7.12-5.47 7.18 7.18 0 0 0 -7.11 5.77zm0 0" fill="#2e2925"/><path d="m30.09 7.31h-3.85a7.18 7.18 0 0 1 7.11-5.77 7.34 7.34 0 0 1 7.12 5.48h-3.87c-.15-1.63-1.63-2.82-3.26-2.82a3.17 3.17 0 0 0 -3.24 3.1zm0 0" fill="#b25d45"/><path d="m30.09 7.31a3.17 3.17 0 0 1 3.26-3.11 3.17 3.17 0 0 1 3.26 3.11h2.08a5.35 5.35 0 0 0 -10.67 0zm0 0" fill="#8e5748"/><path d="m5.34 117.5h33.94v-80.7h-33.94zm0 0" fill="#e74e39"/><path d="m12.15 117.5h3.12v-78.63h-3.12zm0 0" fill="#d72526"/><path d="m15.27 133.95h33.94v-97.16h-33.94zm0 0" fill="#ac8bbf"/><path d="m48.91 130.4h-25.93v-91.55h3.26v89.16h22.66zm0 0" fill="#8562a6"/><path d="m26.24 128.02h33.94v-91.22h-33.94zm0 0" fill="#afc521"/><path d="m26.24 118.1v3.26l33.94-14.52v-3.26zm0-19.26v3.26l33.94-14.5v-3.26zm0 9.63v3.26l33.94-14.52v-3.25zm33.94 14.37-12.3 5.18h7.4l4.9-2.07zm-33.94 4.89v.3h6.67l27.27-11.71v-3.1zm0-86.5v3.26l18.08-7.7h-7.41zm33.06-4.44-33.07 14.07v3.26l33.95-14.52v-2.8zm-33.06 23.69v3.26l33.94-14.66v-3.11zm0 19.26v3.1l33.94-14.5v-3.12zm0-9.64v3.12l33.94-14.51v-3.12zm0 19.12v3.26l33.94-14.52v-3.26zm0 0" fill="#f2dbc6"/><path d="m5.34 38.86h6.81v-2.07h-6.81zm0 0" fill="#ec694b"/><path d="m12.15 38.86h3.12v-2.07h-3.12zm0 0" fill="#df2925"/><path d="m15.27 38.86h7.7v-2.07h-7.7zm0 0" fill="#cbb3d7"/><path d="m22.98 38.86h3.26v-2.07h-3.26zm0 0" fill="#a680b8"/><path d="m54.25 38.86h-14.97l5.04-2.07h14.97zm-22.38 0h-5.63v-2.07h10.66zm0 0" fill="#cad40e"/><path d="m39.28 38.86h-7.4l5.03-2.07h7.41zm20.75 0h-5.78l5.04-2.07h.74zm0 0" fill="#f7e7d8"/></svg>