<svg height="133pt" viewBox="0 0 208 133" width="208pt" xmlns="http://www.w3.org/2000/svg"><path d="m19.84 123.58h173.2v-10.08h-173.2zm88.34-63.92v-11.3c-.16-1.37 0-5.64 0-5.8.15 0 .3-.15.6-.3 10.14-3.2 16.2-10.98 16.2-20.9a21.33 21.33 0 0 0 -21.21-21.36c-11.62 0-21.15 9.6-21.15 21.36h8.78c0-6.87 5.6-12.52 12.4-12.52s12.4 5.65 12.4 12.52c0 8.09-6.35 11.3-10.13 12.5-4.84 1.54-7.11 5.35-6.66 11.45v15.87zm0 0" fill="#d6d4d4"/><path d="m182.9 123.58h-6.35a14.84 14.84 0 0 1 -1.36-3.2c-.76-2.15-1.97-4.43-3.18-6.87h6.05a76.43 76.43 0 0 1 4.7 9.15c0 .3.14.61.14.92zm-151.72 0h-6.36v-.46a82.74 82.74 0 0 1 4.85-9.61h6.2a61.43 61.43 0 0 0 -3.48 7.17c-.3 1.07-.76 1.98-1.21 2.9zm0 0" fill="#aeabaa"/><path d="m35.41 119h110.59v-3.2h-110.6zm0 0" fill="#e9e8e8"/><path d="m207.1 115.8-.75.3.6-.46a9.28 9.28 0 0 0 -1.36-3.05c-8.01-16.32-26.77-32.19-53.7-38.75-18.75-4.57-31-8.7-37.36-11.13h-20.43c-5.9 2.28-18.61 6.7-38.42 11.59-26.91 6.4-45.68 22.43-53.69 38.75-.6.76-.9 1.83-1.37 2.9v.16l.16.3-.16-.16a10.2 10.2 0 0 0 -.6 3.51c0 7.17 5.75 12.82 12.7 12.82 5.76 0 10.74-3.81 12.1-9.46 3.95-9.76 12.86-23.34 26.33-32.95a64.29 64.29 0 0 1 9.38-5.34c2.72-1.38 9.83-3.36 16.79-5.35 9.53-2.59 20.27-5.64 26.92-8.7 6.8 2.9 16.95 5.81 26.02 8.4 6.96 1.83 14.07 3.81 16.8 5.19a68.38 68.38 0 0 1 9.23 5.18c13.6 9.77 22.53 23.5 26.46 33.11a12.33 12.33 0 0 0 12.1 9.46 12.6 12.6 0 0 0 12.71-12.66c0-1.23-.15-2.28-.45-3.67zm0 0" fill="#443f43"/><path d="m.02 119.92v-.16zm56.12-45.77h.15zm.6-.16h.16zm.16 0s.15 0 .15-.15c0 .15-.15.15-.15.15zm.3-.15c.15 0 .3 0 .6-.15-.3.15-.45.15-.6.15zm.6-.15h.3zm.3 0c.16 0 .16 0 .16-.15 0 .15 0 .15-.15.15zm.31-.15c.46 0 .9-.16 1.36-.31-.45.15-.9.3-1.36.3zm1.36-.31h.15zm.15 0c.16 0 .16 0 .3-.15-.14.15-.14.15-.3.15zm.3-.15h.15-.14zm1.66-.46h.02zm11.66-3.05c.15-.16.15-.16.3-.16-.15 0-.15 0-.3.16zm.3-.16" fill="#352f2c"/><path d="m.17 121.75c-.15-.61-.15-1.22-.15-1.83v-.16c0-1.06.15-2.28.6-3.5l.16.15-.16-.3v-.16c.46-1.07.76-2.14 1.37-2.9 8.01-16.32 26.78-32.35 53.71-38.75.15 0 .15-.15.15-.15h.44s.15 0 .15-.16h.46s.15 0 .15-.15h.15c.15 0 .3 0 .6-.15h.3c.16 0 .16 0 .16-.15h.15c.46 0 .9-.16 1.36-.31h.15c.16 0 .16 0 .3-.15h.47c0-.16 0-.16.15-.16h.3s.15 0 .15-.14c.3 0 .46 0 .6-.16h.16c4.08-1.07 8.01-2.14 11.5-3.05.15-.16.15-.16.3-.16 5.75-1.67 10.44-3.2 14.07-4.42v3.67c-7.1 2.44-17.7 5.8-32.22 9.3-26.93 6.56-45.7 22.44-53.71 38.75-.6.92-.9 1.84-1.37 2.9v.15l.16.3-.16-.14c-.3.6-.3 1.22-.45 1.83zm0 0" fill="#534a52"/><path d="m151.59 73.69h-.3zm-.3 0c-14.22-3.51-24.66-6.71-31.62-9.15 6.96 2.44 17.4 5.64 31.62 9.15zm0 0" fill="#352f2c"/><path d="m207.41 121.3c-.15-.62-.15-1.08-.3-1.7l-.76.16.6-.46c-.3-1.07-.75-2.12-1.36-3.05-8.01-16.17-26.77-32.19-53.7-38.75a409.89 409.89 0 0 1 -32.22-9.15v-3.81c6.96 2.44 17.4 5.64 31.62 9.15h.3s.16 0 .16.15h.14c26.93 6.56 45.69 22.43 53.7 38.75.6.92 1.07 1.83 1.37 3.05l-.6.47.75-.32c.3 1.39.45 2.44.45 3.67 0 .6 0 1.22-.15 1.83zm0 0" fill="#534a52"/><path d="m119.67 62.7a7.13 7.13 0 0 0 -7.1-7.16h-4.39v-3.67h4.38c3.93 0 7.11 3.2 7.11 7.17zm-31.76 0v-3.66a7.13 7.13 0 0 1 7.11-7.17h4.38v3.67h-4.38c-3.93 0-7.11 3.2-7.11 7.17zm0 0" fill="#352f2c"/><path d="m108.18 55.54h-8.78v-3.67h8.78zm0 0" fill="#dad7d7"/><path d="m178.06 113.51a79.65 79.65 0 0 0 -21.77-23.96 68.38 68.38 0 0 0 -9.24-5.18c-2.72-1.38-9.83-3.36-16.79-5.19-2.72-.77-5.44-1.52-8.16-2.44 2.72.92 5.44 1.67 8.16 2.44 6.96 1.83 14.07 3.81 16.8 5.19a68.38 68.38 0 0 1 9.23 5.18 79.65 79.65 0 0 1 21.77 23.96zm0 0" fill="#2a2825"/><path d="m194.85 132.12a12.33 12.33 0 0 1 -12.1-9.46 76.43 76.43 0 0 0 -4.69-9.15 79.65 79.65 0 0 0 -21.77-23.96 68.38 68.38 0 0 0 -9.24-5.18c-2.72-1.38-9.83-3.36-16.79-5.19-2.72-.77-5.44-1.52-8.16-2.44-6.36-1.83-12.72-3.82-17.56-5.8h9.99c6.35 2.29 18.6 6.56 37.36 10.99 26.93 6.55 45.69 22.58 53.7 38.9.46.77.91 1.68 1.21 2.75 0 .15 0 .3-.14.46l-.3.15h.3a12.58 12.58 0 0 1 -11.35 7.93h-.3zm0 0" fill="#3a3537"/><path d="m12.73 132.58h-.16zm-.46 0" fill="#2a2825"/><path d="m12.73 132.58h-.16-.14-.16a12.44 12.44 0 0 1 -11.5-8.54c.31-1.07.76-2 1.22-2.75 8.01-16.33 26.78-32.34 53.71-38.89 19.8-4.74 32.5-9.17 38.4-11.46h9.83c-6.64 3.06-17.23 5.96-26.61 8.54-6.96 2-14.07 3.97-16.8 5.35a64.29 64.29 0 0 0 -9.37 5.34 81.1 81.1 0 0 0 -21.48 23.34 82.74 82.74 0 0 0 -4.85 9.6v.47c-1.66 5.34-6.5 9-12.1 9zm0 0" fill="#3a3537"/><path d="m119.52 59.04a7.1 7.1 0 0 0 -6.96-7.17h-17.7c-3.93 0-7.1 3.2-7.1 7.17v8.55a7.1 7.1 0 0 0 7.1 7.01h17.7c3.79 0 6.96-3.2 6.96-7.01zm0 0" fill="#443f43"/><path d="m110.9 61.48c0 1.53-3.33 2.75-7.26 2.75-3.94 0-7.1-1.22-7.1-2.75 0-1.52 3.16-2.75 7.1-2.75 3.93 0 7.26 1.23 7.26 2.75zm0 0" fill="#f6f4f1"/><path d="m119.52 31.89-3.33-2.3a13.87 13.87 0 0 0 2.42-7.77l3.79 2.28a19.4 19.4 0 0 1 -2.88 7.79zm0 0" fill="#e9e8e8"/><path d="m91.4 12.97-3.19-1.99a16.7 16.7 0 0 1 6.5-6.1l3.18 2.75a16.98 16.98 0 0 0 -6.5 5.34zm0 0" fill="#f8f8f9"/></svg>