<svg xmlns="http://www.w3.org/2000/svg" width="253" height="265" viewBox="0 0 190 199"><path d="M97 25s5-12 26-21l1-3-2-1c-22 11-28 24-28 24-1 1 0 2 1 3 1 0 2 0 2-2zm0 0" fill="#3c3733"/><path d="M97 24S92 11 70 0l-3 1 1 3c11 5 16 10 21 15l4 5v1h1-1 1-1c1 2 2 2 3 2l1-3zm0 0" fill="#3c3733"/><path d="M125 44c0 15-13 27-28 27S70 59 70 44c0-16 12-28 27-28s28 12 28 28zM2 123h186l2-2-2-2H2l-2 2 2 2zm22-56l18 16 3-1v-4L27 64h-3v3zm139-3l-18 14v4l3 1 18-16v-3h-3zm3 111l-18-16c-1-1-3-1-3 1v3l18 15h3v-3zm-139 3l18-15v-3c0-2-2-2-3-1l-18 16v3h3zm0 0" fill="#3c3733"/><path d="M173 121a78 78 0 0 1-156 0 78 78 0 0 1 156 0zm0 0" fill="#3c3733"/><path d="M95 43a78 78 0 0 0-31 150c10 4 31-11 31-35V43zm0 0c43 0 79 35 79 78 0 33-21 60-49 72-9 4-30-11-30-35V43zm0 0" fill="#ee7993"/><path d="M64 193h7l5-3c4-2 7-5 9-8a44 44 0 0 0 8-22h4c0 4 0 8 2 11 1 4 3 8 6 11 2 3 5 6 9 8 1 2 4 2 5 3h6l-6 1-6-2-10-8a31 31 0 0 1-10-24h4l-4 13c-1 4-4 7-6 11l-10 8-6 2-7-1zm0 0" fill="#b74252"/><path d="M93 164l2-119 2 119zm0 0" fill="#b74252"/><path d="M65 73c16 0 21-18 15-28-13 2-23 7-32 13 2 8 7 15 17 15zm5 8c-24 0-24 35 0 35 23 0 23-35 0-35zm-41 31c-5 0-10 2-13 5v4c0 8 2 16 3 23 4 2 6 3 10 3 23 0 23-35 0-35zm34 34c-23 0-23 35 0 35 22 0 22-35 0-35zm66 6c-23 0-23 36 0 36 24 0 24-36 0-36zm-6-66c-22 0-22 35 0 35s23-35 0-35zm22-25c-9-8-20-13-31-16-4 11 2 24 16 24 7 0 11-3 15-8zm20 84l5-1c2-7 4-15 4-23l-1-10-8-2c-23 0-23 36 0 36zm0 0" fill="#fefefe"/></svg>