<svg height="133pt" viewBox="0 0 134 133" width="134pt" xmlns="http://www.w3.org/2000/svg" xmlns:xlink="http://www.w3.org/1999/xlink"><linearGradient id="a" gradientTransform="matrix(.09442 0 0 .09447 .01 0)" gradientUnits="userSpaceOnUse" x1="233.7" x2="380.03" y1="86.6" y2="336.37"><stop offset="0" stop-color="#638637"/><stop offset="1" stop-color="#516731"/></linearGradient><linearGradient id="b" gradientTransform="matrix(.09442 0 0 .09447 .01 0)" gradientUnits="userSpaceOnUse" x1="234.15" x2="291.17" y1="189.92" y2="278.22"><stop offset="0" stop-color="#9aa92e"/><stop offset="1" stop-color="#567033"/></linearGradient><linearGradient id="c"><stop offset="0" stop-color="#f194a1"/><stop offset="1" stop-color="#db5c6a"/></linearGradient><linearGradient id="d" gradientTransform="matrix(.09442 0 0 .09447 .01 0)" gradientUnits="userSpaceOnUse" x1="276.43" x2="686.75" xlink:href="#c" y1="514.42" y2="759.64"/><linearGradient id="e" gradientTransform="matrix(.09442 0 0 .09447 .01 0)" gradientUnits="userSpaceOnUse" x1="273.16" x2="676.11" xlink:href="#c" y1="515.45" y2="765.08"/><linearGradient id="f"><stop offset="0" stop-color="#e37f8a"/><stop offset="1" stop-color="#d13842"/></linearGradient><linearGradient id="g" gradientTransform="matrix(.09442 0 0 .09447 .01 0)" gradientUnits="userSpaceOnUse" x1="437.33" x2="594.84" xlink:href="#f" y1="522.05" y2="678.36"/><linearGradient id="h" gradientTransform="matrix(.09442 0 0 .09447 .01 0)" gradientUnits="userSpaceOnUse" x1="427.47" x2="589.67" xlink:href="#f" y1="512.49" y2="674.73"/><linearGradient id="i"><stop offset="0" stop-color="#fefefe"/><stop offset="1" stop-color="#e37f8a"/></linearGradient><linearGradient id="j" gradientTransform="matrix(.09442 0 0 .09447 .01 0)" gradientUnits="userSpaceOnUse" x1="219.26" x2="261.23" xlink:href="#i" y1="387.85" y2="451.65"/><linearGradient id="k" gradientTransform="matrix(.09442 0 0 .09447 .01 0)" gradientUnits="userSpaceOnUse" x1="291.46" x2="393.41" xlink:href="#i" y1="319.4" y2="327.84"/><linearGradient id="l" gradientTransform="matrix(.09442 0 0 .09447 .01 0)" gradientUnits="userSpaceOnUse" x1="138.71" x2="242.55" xlink:href="#i" y1="633" y2="633"/><linearGradient id="m" gradientTransform="matrix(.09442 0 0 .09447 .01 0)" gradientUnits="userSpaceOnUse" x1="100.29" x2="153.51" xlink:href="#i" y1="524.13" y2="526.93"/><linearGradient id="n" gradientTransform="matrix(.09442 0 0 .09447 .01 0)" gradientUnits="userSpaceOnUse" x1="506.38" x2="533.19" y1="411.97" y2="457.64"><stop offset="0" stop-color="#e37f8a"/><stop offset="1" stop-color="#d84d5a"/></linearGradient><linearGradient id="o" gradientTransform="matrix(.09442 0 0 .09447 .01 0)" gradientUnits="userSpaceOnUse" x1="768.48" x2="980.92" y1="946.5" y2="957.3"><stop offset="0" stop-color="#ba2827"/><stop offset=".56" stop-color="#ac2827"/><stop offset="1" stop-color="#8b2e33"/></linearGradient><linearGradient id="p"><stop offset="0" stop-color="#f9e8ea"/><stop offset="1" stop-color="#d13842"/></linearGradient><radialGradient id="q" cx="730.94" cy="719.14" gradientTransform="matrix(.0743 .04246 -.12564 .1351 105.1 -60.27)" gradientUnits="userSpaceOnUse" r="22.24" xlink:href="#p"/><linearGradient id="r"><stop offset="0" stop-color="#e58890"/><stop offset="1" stop-color="#d13842"/></linearGradient><radialGradient id="s" cx="807.94" cy="755.97" gradientTransform="matrix(.12235 .02904 -.05779 .1942 21.16 -98.82)" gradientUnits="userSpaceOnUse" r="22.71" xlink:href="#r"/><radialGradient id="t" cx="919.68" cy="770.07" gradientTransform="matrix(.06873 .05232 -.17081 .18306 155.14 -116.3)" gradientUnits="userSpaceOnUse" r="20.95" xlink:href="#r"/><linearGradient id="u" gradientTransform="matrix(.09442 0 0 .09447 .01 0)" gradientUnits="userSpaceOnUse" x1="611.37" x2="854.67" y1="1036.06" y2="1019.75"><stop offset="0" stop-color="#f9e7e9"/><stop offset="1" stop-color="#d13842"/></linearGradient><radialGradient id="v" cx="869.39" cy="651.65" gradientTransform="matrix(.13303 -.12148 .09938 .0759 -98.28 117.71)" gradientUnits="userSpaceOnUse" r="19.88" xlink:href="#p"/><linearGradient id="w" gradientTransform="matrix(.09442 0 0 .09447 .01 0)" gradientUnits="userSpaceOnUse" x1="967.88" x2="1079.83" y1="1093.07" y2="1101.74"><stop offset="0" stop-color="#f7dde1"/><stop offset="1" stop-color="#d13842"/></linearGradient><linearGradient id="x" gradientTransform="matrix(.09442 0 0 .09447 .01 0)" gradientUnits="userSpaceOnUse" x1="908.36" x2="908.21" y1="795.96" y2="721.55"><stop offset="0" stop-color="#faebee"/><stop offset="1" stop-color="#dc616d"/></linearGradient><linearGradient id="y" gradientTransform="matrix(.09442 0 0 .09447 .01 0)" gradientUnits="userSpaceOnUse" x1="1217.37" x2="1089.06" y1="1039.81" y2="1039.97"><stop offset="0" stop-color="#d02f3a"/><stop offset="1" stop-color="#a72c32"/></linearGradient><linearGradient id="z" gradientTransform="matrix(.09442 0 0 .09447 .01 0)" gradientUnits="userSpaceOnUse" x1="1140.21" x2="1311.23" y1="1125.22" y2="1205.27"><stop offset="0" stop-color="#c63039"/><stop offset="1" stop-color="#db5c6a"/></linearGradient><linearGradient id="A" gradientTransform="matrix(.09442 0 0 .09447 .01 0)" gradientUnits="userSpaceOnUse" x1="732.55" x2="770.78" y1="698.77" y2="743.4"><stop offset="0" stop-color="#fefefe"/><stop offset="1" stop-color="#d84d5a"/></linearGradient><linearGradient id="B" gradientTransform="matrix(.09442 0 0 .09447 .01 0)" gradientUnits="userSpaceOnUse" x1="1298.79" x2="1116.25" xlink:href="#c" y1="1266.58" y2="1087.33"/><path d="m31.17 21.64c-1.32-10.02 11.99-13.24 13.69-21.64 2.08 6.04-2.17 10.67-3.3 16.06.28.66-.1 1.8-.2 2.17a30.38 30.38 0 0 1 11.71-5.48c3.88.1 7.94.47 11.05-1.6-1.14 3.02-5.38 3.87-8.12 4.34a18.89 18.89 0 0 0 -3.96 8.32c-5.86 6.6-16.34 6.14-22.48 10.76-2.26 1.43-4.15 2.65-5.56 4.54-3.22-1.7-3.22-.47-6.33-1.13-2.65-1.52-8.88-2.37-11.9-2.37-1.9 2.46-3.4 1.8-5.76 3.7 1.89-2.94 2.83-6.05 3.78-9.27 3.58-2.08 15.95 1.14 20.01.38-.1-2.08-8.96-7.09-9.34-8.97-.85-7.28 1.89-13.61 1.89-20.7 1.88 9.36 7.08 16.54 14.82 20.89zm0 0" fill="url(#a)" fill-rule="evenodd"/><path d="m16.91 5.76c-3.4 17.2-1.6 15.78 8.4 22.2.48-2.74-1.7-1.03-5.94-10.2 6.13 8.31 12.65 6.42 13.02 6.14-1.88-.85-11.52-8.88-12.84-10-1.32-3.23-2.64-5.4-2.64-8.14zm0 0" fill="url(#b)" fill-rule="evenodd"/><path d="m42.21 18.9c1.14-3.13 5.2-4.73 8.31-5.68 5.2-1.22 10.4-.18 14.07-2.92-2.64 6.33-8.68 6.14-15.2 5.47-5.28 1.33-6.42 4.16-8.97 7.66.85-1.8 1.33-3.22 1.8-4.54zm-38.14 12.84c1.7-1.89 2.55-1.32 4.53-.94a21.46 21.46 0 0 0 12.85 2.65c.47-1.33 1.6-1.99 2.16-2.65-6.89 1.13-12.84-2.75-19.25-2.08-1.61.76-.2 2.08-.29 3.02zm0 0" fill="#9baa2e"/><path d="m36.46 23.71c0-5.57 1.98-8.4 5-11.43.66-2.46 1.89-7.84 3.11-9.54 1.32 7.74-3.77 10.96-3.77 15.68-1.13 3.4-1.42 4.35-4.34 5.3zm0 0" fill="#4a572d"/><path d="m43.63 4.16c.66 2.83-.76 9.35-4.72 10.67-4.62 2.17-6.23 4.06-7.18 8.88-.28-3.12-.09-6.33.95-8.6 2.08-1.13 3.87-2.17 5.47-3.11 1.7-.95 4.25-6.62 5.48-7.84zm4.25 18.61c.1-2.74 1.23-4.35 2.64-6.05-2.45 0-3.58 1.04-5.47 2.46.1 1.89-.57 3.59-.94 5 2.07.38 2.54-.65 3.77-1.41zm0 0" fill="#4a572d"/><path d="m44.48 1.7c-1.04 3.12-1.98 6.61-3.68 9.26-3.87 2.65-6.8 3.4-8.97 7.46a12.9 12.9 0 0 1 2.46-6.33c2.07-2.45 5.19-3.78 7.08-5.66 1.6-1.43 1.79-3.23 3.11-4.73zm0 0" fill="#97a82e"/><path d="m80.45 45.06c0-6.04.57-8.78-5-11.61-1.32-6.52-6.14-7.66-13.22-5.86-8.3-8.22-19.07-2.65-19.07-2.65-6.52-1.23-10.48-1.32-15.1 4.63-5.01 1.51-8.22 5.57-10.96 10.4-10 .75-10 17-5.76 19.45-1.8 6.9.47 12.19 6.23 14.74 2.27 5.48 5.1 9.26 10.1 11.34 1.99 6.32 5.38 7.37 11.62 7.37 5.76 4.44 12.46 4.44 18.6.75 5.86-2.46 10.48-4.35 11.7-10.48 5.1-3.21 5.67-6.43 6.62-11.62 4.63-4.92 5.1-10.59 1.88-14.84 2.65-3.68 2.36-7.27 2.36-11.62zm0 0" fill="#d13843"/><path d="m20.5 53.85c-3.21.85-5.95 1.51-7.74 5-2.65 5.95.19 9.92 6.98 8.22 1.42-2.45 2.55-4.72 2.08-8.21-.66-1.7-1.32-3.12-1.32-5.01zm-5.2-11.81c-3.68 1.98-5.47 2.55-5.28 8.03 1.13-.1 2.64.47 5.28-2.27.1-1.41.57-3.96 0-5.76zm10.58-10.77c-7.08 3.59-9.82 5.57-7.46 16.25 1.89-4.16 10.1 2.17 8.78-9.64 0-2.83-1.6-3.77-1.32-6.61zm17.18-6.43c-7.36-.09-19.06 1.7-13.4 12.29 3.49 0 8.78 1.23 10.48-2.84 4.81-4.63 1.8-2.83 2.92-9.45zm8.4-.84c-1.88 0-3.86.38-5.94.94.94 2.83.94 2.93 1.89 4.44 5.47 4.25 15.39 11.15 13.7-.85-2.28-2.93-6.53-4.53-9.65-4.53zm0 0" fill="#e37f8a"/><path d="m76.2 34.39c-.56 0-1.32.09-1.98.18 1.7 3.88 2.65 8.51-1.7 11.72-1.13 1.99-1.7 3.68-4.53 5 .95 8.7-4.62 10.78-4.62 10.78-.57.66-7.56 4.91-8.78 5.47-3.97 3.12-7 5.49-12.47 2.94-5.19 4.06-11.52 3.87-15.39-2.08-5.1 2.55-11.52 4.53-14.16-4.63-.38 1.8-.57 3.5-.76 5.2a10.82 10.82 0 0 0 5.76 5.19c2.27 5.48 5.1 9.26 10.1 11.34 1.99 6.32 5.38 7.37 11.62 7.37 5.76 4.44 12.46 4.44 18.6.75 5.86-2.46 10.48-4.35 11.7-10.48 5.1-3.21 5.67-6.43 6.62-11.62 4.63-4.92 5.1-10.59 1.88-14.84 2.65-3.68 2.36-7.27 2.36-11.62 0-5.29.48-8.03-3.2-10.58-.29 0-.66-.1-1.04-.1zm0 0" fill="#c63038"/><path d="m13.32 68.87c1.23 2.83-.94 3.97 4.35 4.34-1.42 7.47 4.62 13.04 13.78 10.77-6.8.76-9.53-3.87-10.86-8.97 1.33-.47 2.55-1.14 3.97-1.42-6.14 0-5.86-.47-11.24-4.72zm67.04-26.55c-.38 4.63-.38 9.17-3.97 12-.75 1.32-.94 2.46-2.54 3.5 5.85 2.36 5.1 12.94-1.99 12.56.94 2.37 1.8 8.12-4.25 9.26-1.13 6.33-3.58 13.6-11.04 8.03-2.36 5.95-7.93 8.03-15.87 3.97 1.99-1.32 6.61-2.37 7.09-6.7-2.84 1.88-13.13 4.61-12-1.8-1.98 1.7-4.9 2.26-7.83 3.2 2.08 5.48 5.38 6.53 11.33 6.53 5.76 4.44 12.46 4.44 18.6.75 5.86-2.46 10.48-4.35 11.7-10.48 5.1-3.21 5.67-6.43 6.62-11.62 4.63-4.92 5.1-10.59 1.88-14.84 2.65-3.68 2.36-7.27 2.36-11.62v-2.36c0-.1-.1-.28-.1-.38zm0 0" fill="url(#d)" fill-rule="evenodd"/><path d="m59.12 36.84c-1.05 5.39-5.57 10.3-13.41 8.03.29 1.52.57 2.84 1.04 3.88-1.6-.57-3.21-.95-4.72-1.33.84 3.12-.85 5.49-1.8 7.28-2.45 1.51-5 2.08-7.65 2.83.1 2.36 3.3 3.31 3.97 3.69 5.29 0 7.65-2.93 10.58-5.86.75-2.45 3.2-2.36 5.1-2.84-.1-.18-.29-.37-.38-.47 1.13.1 2.45.1 3.96.1a18.87 18.87 0 0 0 5.86-5.1c.75-3.97 2.17-8.22-2.55-10.2zm-18.51-12c3.68 2.84 3.96 5.1 4.34 9.08-2.55 6.9-5.28 8.3-11.99 7.65 1.7 2.08 3.97 2.74 6.14 3.59 3.59-.38 6.8-3.78 8.78-5.77 1.04-2.64 3.02-2.64 6.14-2.93-2.08-1.6-3.59-1.5-5.77-2.17-.09-6.04-3.86-7.56-7.64-9.45zm0 0" fill="url(#e)" fill-rule="evenodd"/><path d="m30.41 59.99c-1.7 2.55-1.8 5.58-2.45 8.31 2.45 1.23 3.3.38 5.19-.76.65-3.68-2.75-7.54-2.75-7.54zm8.22-.66c-1.23 0-2.36.28-3.97.94-.75 2.36-1.32 3.87-1.32 6.52.47.28.76 2.55 2.36 1.51.94-.19 4.82-.09 6.42-1.04.28-.94 1.99-1.6 1.04-3.58-.28-1.24-.2-2.55-.76-3.7a15.08 15.08 0 0 0 -3.77-.65zm14.82-7.28c-.29-.1-.47-.1-.75 0-3.78.66-6.52 1.24-7.47 6.15.86 1.98.77 3.11 3.6 4.43 3.3 0 6.22.2 9.34-1.32a16.2 16.2 0 0 1 1.8-3.3c-.67-1.52-1.04-2.84-3.12-3.88-.94-.75-1.89-1.98-3.4-2.08zm10.86-7.27c-.66 0-1.51.1-2.27.28-1.23 1.9-3.3.28-2.83 4.35 2.55 3.5 3.4 6.14 8.97 5.48 1.04-.95 3.12-2.46 4.44-4.16-.57-1.51-.76-3.12-2.37-4.34-1.97-.95-3.77-1.7-5.94-1.61zm-33.52-.47c-3.02 2.26-3.3 3.87-3.87 5.95-1.89 5.1 2.36 4.63 3.3 6.7 3.69.95 7-1.4 9.64-2.83 1.5-1.42 1.03-3.59 1.23-5.48-3.4-4.72-5.2-7.46-10.3-4.34zm0 0" fill="url(#g)" fill-rule="evenodd"/><path d="m52.5 51.3c1.9.75 3.79 1.13 5.86 1.5a34.1 34.1 0 0 1 2.84 3.6c2.45 5.39.37 8.6-4.07 9.82 4.44.76 7.46-2.83 8.98-4.9.18-1.8 1.41-1.9 2.07-2.84-4.43-.38-6.51-1.89-7.74-5.96-2.65-1.6-5-1.6-7.93-1.22zm0 0" fill="url(#h)" fill-rule="evenodd"/><path d="m44.2 57.15c-.66 1.9 1.8 5.01 2.08 5.48.1 2.27 1.5 2.08 2.36 3.12 4.06 1.6 7.93 1.32 10.76-.85a7.74 7.74 0 0 1 -8.97 5.2c-2.83 2.45-6.7 2.83-10.86 2.83.95-2.73 4.44-1.32 5.66-5.39.86-3.68-.28-6.8-1.03-10.39zm0 0" fill="#ba3036"/><path d="m17.57 44.02c1.04 1.8 2.83 3.12 4.16 4.63 1.32.29 2.55.57 3.87.76.37.1.66.19 1.04.28-.2 2.17-1.14 2.27-2.36 3.6-1.51.37-3.02.75-4.63 1.03-2.27.28-4.35 1.61-6.14 2.64 1.89-.84 3.78-2.45 5.1-3.67 1.32-.48.57-2 .85-2.84-.94-2.56-1.6-3.88-1.89-6.43zm0 0" fill="#c63038"/><path d="m17.38 41.95c1.14-5.39 4.35-7.1 8.12-9.55 1.42.66.86 2.93 1.14 3.69-1.99 1.89-2.64 3.68-4.53 5.2a9.22 9.22 0 0 0 -2.37 4.71c-1.7-1.42-1.88-2.46-2.36-4.06zm0 0" fill="url(#j)" fill-rule="evenodd"/><path d="m28.33 34.2c.29-6.15 4.44-7.93 7.56-8.22 1.89 1.6 1.13 2.64.57 4.53a40.93 40.93 0 0 1 -3.88 3.22c-.28 3.11-2.45 2.93-4.25.47zm0 0" fill="url(#k)" fill-rule="evenodd"/><path d="m13.41 64.62c-1.03-5.1 1.61-8.69 6.62-9.45.47-.94 1.42-.38 2.08-.57v3.22c-1.52.38-2.46.66-3.7 1.04-1.12 3.4-2.06 4.16-5 5.76zm0 0" fill="url(#l)" fill-rule="evenodd"/><path d="m14.46 41.95c-5.76 3.4-6.42 12.37-3.22 15.58-.28-2.27 2.08-3.59 2.46-3.96 1.23-1.14 2.55-1.7 3.68-2.37.29-5.57.38-6.8-2.92-9.25zm0 0" fill="url(#m)" fill-rule="evenodd"/><path d="m49.86 36.84c-3.49 2.27-6.23 4.82-5.66 8.8.85 1.12 2.08 1.97 2.92 2.92 3.6 1.98 7.18-1.8 9.35-4.54 5.67-4.34-3.3-6.23-6.6-7.18zm0 0" fill="url(#n)" fill-rule="evenodd"/><path d="m67.14 34.86c-1.89.1-3.3.95-4.16 4.06.2 1.04.39 2.65 1.52 2.93 2.45-.75 4.81-.66 7.55-.47-.1-.76 0-3.31-.94-6.15a14.93 14.93 0 0 0 -3.97-.37zm-3.87-5.86c2.93 3.03 1.8 4.63 1.7 5.48 1.7-.75 3.59-1.42 5.19-1.98-1.98-3.5-3.77-3.12-6.89-3.5zm0 0" fill="#d9525e"/><path d="m40.7 76.05c2.08-3.5 3.31-5 7.37-5.85 2.17.46 4.34.37 6.52.56.18 2.93-1.43 6.23-1.9 7.74-4.24 4.35-10.66 3.78-11.99-2.45zm0 0" fill="#d13a44"/><path d="m55.43 69.9c2.27 3.4 1.42 6.43.95 9.55-2.93 3.03-4.63 3.6-8.31 3.97 2.55-1.42 3.97-2.55 5.86-3.97 1.78-2.65 1.6-5.76 1.88-8.69zm0 0" fill="#d9525e"/><path d="m64.88 63.1c1.41-.66 2.07.58 3.01.86 1.14 3.49-.37 6.24-1.6 8.7h-4.72c-2.55.18-1.89-1.43-2.17-2.66 1.13-3.96 3.3-5.29 5.48-6.9zm0 0" fill="#d13843"/><path d="m30.41 74.82c2.27.38 4.35.95 6.8.95.66 1.89 1.04 3.3 1.42 5.1-1.33 2.55-2.27 2.83-4.72 3.3a28.41 28.41 0 0 1 -5.67-4.15c-.28-2.84.66-3.22 2.17-5.2zm-11.51-.28c1.22 1.6 3.87 1.13 5.85.94 1.22 2.08 1.32 4.06 2.83 6.14-2.17.47-3.49-.47-5.2-.94-2.35-1.61-2.35-4.16-3.49-6.14zm0 0" fill="#d13a44"/><path d="m71.1 62.35c0-2.27 2.65-3.59 3.22-4.06 3.11 0 3.49 1.6 3.77 4.82 0 .85-2.73 3.3-2.73 3.5-1.9.37-.85.56-2.74.75-.85-1.14-1.32-2.65-1.51-5.01zm0 0" fill="#d0313c"/><path d="m27.1 51.49c0-1.7.58-3.3.86-5.01 2.08-2.36 3.4-2.36 6.14-2.64 1.41-.57 2.64.56 3.86 1.22-1.98.95-4.24 1.33-6.13 1.7-.1 4.35-2.27 4.73-4.72 4.73zm0 0" fill="#f6d9de"/><path d="m8.89 52.05c.47-1.98 1.04-4.06 1.5-6.14.1-.18.2-.37.29-.57 1.13-1.98 2.55-2.45 4.06-3.2.1 1.6.75 2.07 1.22 3.2.48 2.46-1.98 1.52-2.92 2.37-1.32 2.64-2.36 3.02-4.15 4.34zm0 0" fill="#fefefe"/><path d="m35.04 60.27c-1.13 3.97-.19 5.86 0 7 .75-2.37 2.36-4.25 3.3-5.58.86-.1 1.7-1.13 2.18-1.42-1.9.48-3.88.1-5.48 0zm-4.64-.27c-1.7 2.64-2.83 3.97-1.89 7.75.57-3.03.76-3.31 3.69-4.92-.76-1.13.66-1.41-1.8-2.83zm0 0" fill="#efb9bf"/><path d="m50.62 28.91c1.04-1.6 3.21-2.55 4.43-3.6-1.79-1.13-3.49-.75-5.28-1.22-1.7-.19-3.5.38-4.82.66.28.95.38 1.52.66 2.36 1.9 1.7 2.93 1.14 5 1.8zm0 0" fill="#f2c7ca"/><path d="m41.18 79.45c1.6 3.78 4.82 4.06 8.21 5.2 3.12 1.22 4.44.47 6.7-1.51-.28-3.5.67-5.87.67-9.17.19 3.97-1.52 4.44-3.69 6.14-4.43 1.98-8.96 3.21-11.89-.66zm0 0" fill="#e16876"/><path d="m47.22 61.69c-2.55-3.4-1.6-5.1 1.51-7.94 1.23-.94 1.8 1.23 2.36 1.61-2.36 2.36-3.59 3.02-3.59 7.37zm0 0" fill="#e6939c"/><path d="m47.31 39.11c-.47 2.46 1.8 2.36 2.55 3.4-.94 1.04-1.03 2.65-1.5 3.88-2.56.66-2.47-.48-3.03-2.18.1-2.45.67-3.4 1.98-5.1zm1.89-.85c.94 1.32 2.17 2.27 3.4 3.21 0-1.8 1.23-1.42 1.99-2.17-1.7-1.7-3.3-1.23-5.39-1.04zm0 0" fill="#f2c7ca"/><path d="m29.56 45.63c-2.83 1.8-2.17 2.74-2.74 5.67 1.32-.57 1.9-2.46 2.08-2.74 1.04-1.51 2.17-2.36 3.12-3.31-.95-.38-1.7.29-2.46.38zm0 0" fill="#fefefe"/><path d="m34.85 58.38c3.49.1 5.67-1.13 7.36-5.1-.84-7.27-1.23-8.12 3.68-.28 3.13-3.21 6.43-2.93 10.2-2.55-4.53.66-7.36 2.74-10.48 5.38-3.11 1.32-1.79 3.12-.84 5.39-.66-1.7-1.7-2.27-2.84-3.4-2.26.94-5 .56-7.08.56zm0 0" fill="#a62826"/><path d="m26.64 55.55c2.17 1.8 4.06 2.36 6.8 2.83 2.83.38 1.03.48 1.97.85-2.73-.19-3.68.29-5.66 1.14-2.17 1.04-2.27 4.06-2.83 5.95-.47-3.5-.28-7.37-.28-10.77zm0 0" fill="#ba3036"/><path d="m48.83 68.5c5.66 1.98 10.85-2.65 13.5-4.73 1.32-1.9.94-3.4 1.04-4.16 1.03.47 1.88.66 2.35.76 2.17.38 3.5-.48 4.91-1.51-.1 2.45-1.13 2.27-2.64 3.4 1.04 2.26 1.04 4.44 1.04 6.99 0-3.78-1.6-5.39-4.16-6.8-.75 1.98-2.07 2.64-3.86 4.15-1.42 1.9-2.08 3.12-3.12 5 .57 3.12 2.55 3.41 4.43 3.41.57 3.12-.94 3.21-2.64 4.63.28-1.7-.66-3.3-1.04-4.44-1.6-4.91-5.94-4.54-9.81-6.7zm0 0" fill="#a62826"/><path d="m81.02 129.9c3.12 2.17 8.3 3.96 12.75 1.89 5.38.38 11.9 1.03 15.77-3.88a12.44 12.44 0 0 0 8.3-3.68c5.58-.2 9.45-2.36 9.73-7.94 2.45-1.7 4.43-3.02 3.5-6.99 1.88-2.74 2.73-5.1 2.07-9.35a12.32 12.32 0 0 0 -.85-10.58c-.47-3.97-.85-6.23-3.97-8.78-.37-3.22-2.45-7.28-10.2-8.8-.08-2.83-9.43-7.74-11.51-7.36-2.08-4.35-7.56-5.57-13.22-6.23-5.2-2.08-10.1.18-13.88 3.87-5.85-4.92-21.15 5.95-12.37 14.36-6.04-1.9-11.43 5.66-8.78 12-2.17.56-4.53 9.91 1.13 13.4-2.54 2.56-1.42 7.57.47 9.55.85 5.96 3.31 11.81 9.64 11.81 2.73 3.6 6.6 6.99 11.42 6.7zm0 0" fill="#d13843"/><path d="m74.79 76.8c.94 5.2 3.3 8.04 7.93 8.32.28-1.8-.28-3.12-.66-4.73.47-2.26 1.23-4.15 1.89-5.95 1.03-1.6 1.7-3.02 2.64-4.44.76 3.88-1.13 7.09-2.92 9.73-.2 1.7.37 4.82.47 5.4.94.93 1.6.93 2.73 1.12-.09 5.2 1.61 9.26 5.67 11.72-.19 1.7-1.23 3.02-1.42 5.1-3.96.85-6.7 3.5-7.64 6.99-1.33-3.97-5.29-3.02-8.03-2.08 1.14-5-3.68-4.63-7.46-4.53 3.78-2.46.1-3.5-2.36-2.93 5.95-2.46 9.73-4.91 1.98-8.03 3.22-2.65 6.52-3.12 6.43-7.18.94-.1 1.98-.1 2.92-.1-1.51-2.45-2.64-3.4-5.38-4.72 1.41-.47 2.64 0 3.87.47-.38-1.7-.57-3.3-.66-4.16zm0 0" fill="url(#o)" fill-rule="evenodd"/><path d="m112.46 66.5c1.7 1.71 3.6 3.5 3.02 5.02 12.38 1.89 9.63 6.98-2.17 2.45.95 3.6 1.14 5.76-2.17 6.8 10.2-.95 8.5 8.6 5 13.6 7 7.75 2.18 13.61-7.17 13.04-.94 3.6-3.59 6.61-9.16 6.05 1.7 3.5.47 5.57-1.5 7.18-.2 1.98-2.94 2.36-5.96 2.45-3.68 6.71-13.5 3.21-14.45-3.11-.19-1.52.1-2.55.57-3.69-.38-.56-.85-.18-1.32-.28a15.2 15.2 0 0 1 -6.8 6.14c-6.6-.57.28-9.92 1.7-12.65-2.36 1.97-9.07 7.84-11.52 3.77v.85c1.14 4.91 3.68 9.07 9.07 9.07 2.73 3.6 6.6 6.99 11.42 6.7 3.12 2.18 8.3 3.97 12.75 1.9 5.38.38 11.9 1.03 15.77-3.88a12.44 12.44 0 0 0 8.3-3.68c5.58-.2 9.45-2.36 9.73-7.94 2.45-1.7 4.43-3.02 3.5-6.99 1.88-2.74 2.73-5.1 2.07-9.35a12.32 12.32 0 0 0 -.85-10.58c-.47-3.97-.85-6.23-3.97-8.78-.37-3.22-2.45-7.28-10.2-8.8 0-1.6-2.73-3.68-5.66-5.28zm0 0" fill="#c63038"/><g fill-rule="evenodd"><path d="m72.9 73.78c.85-4.82 2.08-7.46 5.67-10.01-1.89-7.65-15.3 3.21-13.88 7.18 0 0 6.33 1.32 8.2 2.83zm0 0" fill="url(#q)"/><path d="m75.07 77.94c.1-4.25.1-9.45 3.02-12.56 1.42-.76 4.16-2.36 5.01-1.05-1.32.29-1.98 1.33-2.65 1.7.48.95 1.23.48 1.9.67 1.13-1.42 2.07-1.23 3.77-1.33-1.51 2.46-3.4 3.5-4.63 6.05-1.04 3.78-2.08 7.65-6.42 6.52zm0 0" fill="url(#s)"/><path d="m84.52 79.73c-.2-6.52 4.53-12.19 11.33-11.71.66.38 1.03.94 1.6 1.41.85 2.75-1.04 4.54-1.89 6.9-2.36 3.6-7.45 6.8-11.04 3.4zm0 0" fill="url(#t)"/><path d="m77.8 107.23c-1.21.09-2.82.94-4.61 2.17-2.84 2.26-4.91 5.3-5.1 7.65.66 4.15 5 2.65 7.55-1.14 1.23-2.45 3.5-3.2 4.81-5.95-.47-2.07-1.41-2.83-2.64-2.73zm-7.55-3.03c-.28 0-.65.1-1.03.19-4.44.66-6.24 2.36-8.6 6.33-.84 5.48 7 3.97 7.94-.28 1.32-1.52 3.68-2.65 4.06-5.1-.76-.57-1.42-1.14-2.37-1.14zm-7.27-2.36a5.72 5.72 0 0 0 -3.02 1.51c-1.22 2.08-.75 3.12 0 5a13.32 13.32 0 0 1 5.67-4.62c-.57-1.51-1.6-1.99-2.65-1.9zm-4.05-12.95c-2.55.57-2.64 2.56-2.36 5.1.09 2.84.47 4.73 3.2 5.58-.75-1.7-.75-2.83 0-4.72.1-2.17.29-3.03 2.37-4.53a16 16 0 0 1 -3.21-1.43zm7.08-12.37c-.19 0-.38.1-.66.1-.76.28-3.87 1.13-4.82 3.4-2.83 2.17-4.43 9.63 2.17 7.08.76-4.53 1.8-4.91 5.67-7.08-.1-.57-.48-1.42-.29-2.17-.65-.76-.75-1.33-2.07-1.33zm0 0" fill="url(#u)"/><path d="m79.89 62.25c3.02-2.73 7.27-5.95 11.61-4.43.85.28.47.28.85.47-.28 1.8-1.32 2.64-2.64 3.78-.66 2.36-1.9 2.07-3.3 2.17-2.09-2.08-3.7-2.08-6.52-1.99zm0 0" fill="url(#v)"/><path d="m81.87 111.1c-2.17 2.08-2.55 5.1-2.46 8.03.29.94.48 1.8.76 2.74 1.51-2.17 3.5-2.84 5.38-3.5a16.14 16.14 0 0 1 -3.68-7.27zm8.12-7c-1.7 0-2.17.86-3.2 1.9-2.93 2.64-2.27 4.53-1.8 8.02 1.41 2.65 2.07 3.7 4.24 4.63.1-2.54.48-4.34 1.52-5.85.56-2.08 2.55-2.93 4.15-3.78-3.11-.57-3.96-1.98-4.15-4.91h-.76zm3.5-6.42c-1.42 3.21-1.42 3.78-.47 6.7 1.6 1.8 2.92 3.03 5.19 3.41 3.02-2.93 2.26-5.95 1.41-9.63a46.8 46.8 0 0 0 -6.14-.48zm5.85-16.15c-4.91.18-7.65 2.08-11.71 5.2-.19 3.2.48 6.23 3.97 6.8 3.68-.48 6.22-2.37 8.78-4.92.38-2.07.66-5-1.04-7.08zm0 0" fill="url(#w)"/><path d="m90.27 69.43c-3.2 2.55-5.1 6.05-3.58 9.36 0-3.21 2.92-5.58 3.87-6.52 1.7-1.04 3.58-1.8 5.29-2.64-1.9-.2-3.6-.29-5.58-.2zm-13.67-1.79c-1.9 1.8-1.05 5.1-1.43 7.66 1.23 2.45 1.43 1.41 3.03 1.97 2.83-3.4 3.4-7.17 7.08-9.73-1.98.39-2.55 1.42-3.68 2.37a7.72 7.72 0 0 1 -5-2.27zm0 0" fill="url(#x)"/></g><path d="m112.18 80.3a9.4 9.4 0 0 0 -4.54 1.32c6.15 1.52 8.32 4.82 7.27 11.72 7-1.7 4.54-13.13-2.73-13.04zm-6.99-11.43c-1.41.1-3.02.47-4.72.94l-.85.3c4.34-.2 9.82.65 11.7 5.09a30.2 30.2 0 0 1 2.94 4.73c-.29-7.38-2.93-11.34-9.07-11.06zm0 0" fill="#db5c6a"/><path d="m80.07 124.14c-.84.84-1.5 2.45-4.71 1.6 2.07 1.89 3.87 4.54 5 .28.19.28-.75 2.08 1.89 1.8 2.27-.1 2.92-1.23 5.2-1.23-2.84-.2-5.1-.29-7.38-2.45zm20.12-4.07c-2.17 2.27-4.06 4.16-7.74 3.22-.85 1.03-1.33 1.6-2.18 2.73 2.18 1.52 4.25 2.84 6.61-.66.57-.09 2.83-.47 3.4-1.98 0-1.04-.1-2.18-.1-3.3zm8.87-11.43c-1.88 3.02-4.53 6.9-9.16 4.82 1.52 2.45.67 3.97.76 7.08l.76-.1c2.17-.46 3.4-1.6 5.76-2.44.28-1.43-.38-2.18 1.5-3.12 1.04-2.18 1.04-3.69.38-6.24zm-8.78-38.44c.2 3.67.1 7.74-2.46 10.85 3.22.2 5.3 1.9 6.8 3.79 2.27 6.6.67 8.97-3.2 12.18 4.62 1.42 7.36 6.14 7.45 9.45a13.15 13.15 0 0 0 1.9-6.61c1.03-1.42 2.17-1.99 3.3-3.78a44 44 0 0 0 -3.59-.2c1.89-.27 3.3-.75 4.34-2.73-.94-.28-1.6 0-2.45-.85-3.5-1.32-3.5-3.69-2.65-7-1.13.2-1.7.29-2.83.67.95-.94 1.32-.66 1.04-2.36-.66-.85-1.32-1.9-2.17-2.93 0-1.14 0-2.18.19-3.21-.85-.67-2.08-1.8-3.6-1.99-.56-1.7-1.12-3.59-2.07-5.28zm0 0" fill="url(#y)" fill-rule="evenodd"/><path d="m105.67 124.42c-1.61 4.34-6.52 7.09-11.62 4.34-.57.76-1.51 1.61-2.17 2.65-2.83.66-5.67-.48-8.97-.38 3.12.85 6.61 1.8 10.39.76 5.94-.19 14.73 1.03 16.61-4.25-2.07 1.32-2.73 2.45-5.66 2.26 1.42-1.6 1.7-2.83 1.42-5.38zm12.46-4.53h-.95c-.85 4.15-4.24 5-6.41 7.36 5.37-.66 6.79-3.21 8.3-7.18-.37-.18-.66-.18-.94-.18zm6.8-14.74c-1.32 3.3-1.51 7-5.95 7.55-.28 1.23-.94 2.37-.76 3.97.1.38-.28.85.29 1.13h.19l3.01-.18c3.4-2.74 7-6.71 3.21-12.47zm4.34-14.74c2.93 4.15 3.59 8.6-2.27 9.45 1.23.75 2.18.75 3.69.75 1.31 2.46 1.7 6.52.28 9.17 2.17-2.37 2.64-6.43 1.98-10.11.94-1.99 2.84-9.17-3.68-9.26zm-5.48-3.5c3.59 4.54 1.51 8.88-.94 14.36 4.44-2.17 8.78-9.45.94-14.36zm3.59-5.29c3.97 1.99 1.98 5.96.94 7.37 1.42.66 2.84.1 3.88-.1.09-3.86-1.23-6.41-4.82-7.27zm-2.46-6.7c1.14 1.88.95 3.3-.28 4.9a6.95 6.95 0 0 0 -4.25-4.24c2.46 1.22 2.65 3.12 3.03 5.76.37 3.3-.1 3.5-2.27 4.82 1.98-.66 2.08-.95 3.58-1.7a7.42 7.42 0 0 0 -.09-4.53c1.42.09 2.65.84 3.78 1.12.56-3.3-1.32-4.62-3.5-6.14zm0 0" fill="url(#z)" fill-rule="evenodd"/><path d="m120.1 104.58c-1.97 4.34-5.56 3.78-9.53 4.25 3.69 2.55 4.06 4.82 4.44 8.6-.38 4.25-4.9 5.29-8.97 5.38-.75.76.19 1.42.28 1.9.2 2.73-1.98 4.24-2.83 4.9 2.83-.09 3.3-1.04 4.54-2.74.66-1.13.1-.57.18-1.13 4.16.19 4.92-2.08 6.05-5 1.8-1.42 1.51-2.28 2.17-3.78-.75-3.12 1.03-4.82 1.98-6.8-.28-2.27.85-3.98 1.7-5.58zm6.8-8.7c-.18 1.33.2 2.56-.84 3.7-1.6 1.79-2.83 2.45-5.85 2.92 5.1.85 7.08 4.34 7.26 9.16-2.07 3.4-5.19 5.4-8.02 6.8 3.59.57 7.36-.46 7.65-4.44 2.45-1.98 1.7-4.9 1.5-8.59-.18-.38-.74-2.74-1.97-3.6 2.35-1.88 3.3-3.96.28-5.94zm0 0" fill="#ac2c33"/><path d="m108.5 114.88c1.41.47 2.83 1.03 4.24 1.5 2.84 4.45-3.2 4.73-6.7 5.5-1.42 7.64-6.04 6.88-12.18 6.4-4.43 6.15-7.27 4.92-12.37.77-.1-.38-.1-.66-.1-.95 3.31.95 5.67-.94 7.75-1.7 5.48 1.8 10.67 1.04 11.62-4.72 4.72.1 8.96-1.8 7.74-6.8zm0 0" fill="#ba3036"/><path d="m69.7 115.25c1.5-4.81 5-6.9 9.15-8.12.28 4.53-5.76 6.33-9.16 8.12zm11.51-51.01c-5.38 1.98-6.23 5-5.67 9.54.76-.37 1.51-1.89 1.99-2.36 1.13-.38 1.6-1.22 2.26-1.9-.38-2.73 0-3.58 1.42-5.28zm-17.18 13.03c-5.3.95-5.48 4.35-5.67 8.13-1.41 2.65.85 1.04 1.13 1.32 1.04.67 1.13-.56 1.52-.84-.86-4.17.1-6.24 3.02-8.6zm0 0" fill="#f7dbdf"/><path d="m79.8 122.63c4.15 1.89 7.08-1.52 8.4-2.84 5.1 0 6.6-3.97 7.65-7.84.28-.66.47-1.23.75-1.8 5.95.1 7.18-6.8 5.95-12 7.55 3.78 3.59 18.9-4.34 14.84 4.52 6.04-1.6 9.64-7.56 9.26-2.17 4.63-9.06 4.44-10.86.38zm0 0" fill="#ba3036"/><path d="m65.35 70.1c.19-4.44 5.38-5.96 7.45-6.7-.18 1.31.95 1.98 1.33 2.92-1.8 1.04-2.08 2.45-2.65 4.06-2.07-.75-3.96-.66-6.13-.28zm0 0" fill="url(#A)" fill-rule="evenodd"/><path d="m106.7 66.5c-7.27-.93-10.57-3.96-14.45-1.13 1.14-2.17 2.18-2.35 3.88-2.83 4.9-1.8 8.02 1.89 10.57 3.97zm0 0" fill="#db5c6a"/><path d="m121.24 72.65c2.27 1.98 4.06 3.2 4.72 7.46 1.33.28 1.42-.38 2.27 1.6 2.93 1.52 2.27 4.92.85 7.56 2.46 2.27 5.47 8.32 1.13 10.5 1.23 2.64 2.65 7.07.2 9.82-1.05-.29-1.23-.86-2.46-.86.94 2.84 1.03 7.18-2.84 9.17-2.26 2.74-3.77 5.2-7.65 4.16-1.5 4.44-4.81 5.38-9.25 3.87-2.54 4.91-7.83 6.05-13.97 3.5-3.4 1.6-8.12 2.45-11.24.19.38-.57.86-1.61 1.6-2.27-3.58 1.7-9.15 2.08-11.51-1.42 1.8-.29 2.93-.29 4.15-1.98-3.58.09-6.41-.38-8.78-1.9-1.89-.56-4.62-1.13-5.85-3.3v.57a8.1 8.1 0 0 0 6.99 3.87c2.73 3.6 6.6 6.99 11.42 6.7 3.12 2.18 8.3 3.97 12.75 1.9 5.38.38 11.9 1.03 15.77-3.88a12.44 12.44 0 0 0 8.3-3.68c5.58-.2 9.45-2.36 9.73-7.94 2.45-1.6 4.43-3.02 3.5-6.99 1.88-2.74 2.73-5.1 2.07-9.35a12.32 12.32 0 0 0 -.85-10.58c-.47-3.97-.85-6.23-3.97-8.78-.28-2.74-1.88-6.05-7.08-7.94zm0 0" fill="url(#B)" fill-rule="evenodd"/><path d="m95.09 58.48c5.38 0 8.78 2.17 12.27 5.38 4.91 1.04 8.97 2.93 10.1 6.34 3.97 1.88 6.43 1.88 7.18 5.38a22.2 22.2 0 0 1 -10-2.55c-2.56-2.27.94-1.61 1.32-2.17-1.9-3.32-3.69-3.41-6.9-3.03-2.36-.57-2.17-2.26-2.45-3.4-2.17-4.06-9.16-3.97-12-3.02-1.88-.95.38-2.46.48-2.93zm0 0" fill="#ee7995"/><path d="m100.95 73.12c1.22 1.7.28 5.67.18 6.04a18.95 18.95 0 0 1 3.02 3.12 16.3 16.3 0 0 1 6.33-1.41c-2.84.47-3.4.94-3.78 3.4.76 4.72.85 8.78-.75 12.85 2.74 1.22 3.68 4.34 3.2 7.46-.46 3.68 1.33 3.78 3.4 4.15-.84.67-2.16.95-3.01 1.14-1.23 5.2-7.18 6.04-9.07 7.93.57-2.26-.1-3.59-.66-4.81 10.76 3.58 8.88-7.94 5.67-13.13-1.14-1.42-2.36-1.9-3.87-2.84 3.49-3.59 4.25-7.75 3.49-12.85-2.27-1.22-4.06-2.92-6.8-3.49 3.02-1.7 2.46-4.44 2.65-7.56zm0 0" fill="#a62826"/><path d="m118.5 92.68c1.32 1.32.57 3.02.95 4.63-3.97-2.46-9.16-5.1-12.37 1.22-1.8-.19-2.36-1.7-3.2-2.26 2.26.09 2.82-1.32 4.05-1.9 3.59.86 7.37-.47 10.58-1.7zm0 0" fill="#a62826"/><path d="m90.08 105.05c-.75 0-.94.29-1.31.76-1.61 1.42-2.27 2.45-3.31 3.97a6.98 6.98 0 0 0 .1 3.96c.56.19.65.57.94 1.05a17.5 17.5 0 0 1 2.73-5.49 6.2 6.2 0 0 1 1.52-1.04 4.93 4.93 0 0 1 -.67-3.2zm3.4-5.76c-.09 1.04-.46 1.89-.09 3.02 0 .76 0 1.51.29 2.18.75.85 1.31 1.5 2.73 1.98a3.78 3.78 0 0 1 -.28-3.87c-.19-.76-.1-1.61-.47-2.46-.76-.28-1.7.38-2.18-.85zm1.8-16.81c-.29 0-.48.09-.76.28-.28.56.66 1.32-2.17 4.44-1.32.94-3.02 1.41-3.58 2.83 1.22 1.51 1.7 2.36 3.96 2.65.75-1.14 1.7-1.99 2.64-3.03.85-2.17 1.14-4.25.76-7.08-.28 0-.57 0-.85-.1zm-6.9-10.02c-2.17 1.42-1.13 2.08-1.88 3.6v1.79c.85-.48 1.32-1.24 1.98-1.8 1.23.47 1.5-1.33 1.89-1.7.19-1.42-1.32-1.23-1.98-1.9zm-16.24-7c-1.22 1.42-2.83.95-5 .58-1.03 1.03-1.89 4.16-1.98 4.25.56 1.13 2.45 1.41 3.12 1.79.84-2.45 2.45-4.54 3.86-6.61zm.48-.75" fill="#fefefe"/></svg>