<svg xmlns="http://www.w3.org/2000/svg" width="110pt" height="176" viewBox="0 0 110 132"><defs><linearGradient id="a" gradientUnits="userSpaceOnUse" x1="553.67" y1="951.45" x2="826.25" y2="1242.37" gradientTransform="matrix(.06873 0 0 .06815 .02 0)"><stop offset="0" stop-color="#91acbd"/><stop offset=".43" stop-color="#91acbd"/><stop offset=".6" stop-color="#d0dce4"/><stop offset=".78" stop-color="#91acbd"/><stop offset="1" stop-color="#91acbd"/></linearGradient><linearGradient id="b" gradientUnits="userSpaceOnUse" x1="571.43" y1="951.45" x2="852.2" y2="1242.37" gradientTransform="matrix(.06873 0 0 .06815 .02 0)"><stop offset="0" stop-color="#ccdae3"/><stop offset=".43" stop-color="#ccdae3"/><stop offset=".6" stop-color="#e7eff3"/><stop offset=".78" stop-color="#ccdae3"/><stop offset="1" stop-color="#ccdae3"/></linearGradient><linearGradient id="c" gradientUnits="userSpaceOnUse" x1="569.64" y1="951.46" x2="850.95" y2="1242.37" gradientTransform="matrix(.06873 0 0 .06815 .02 0)"><stop offset="0" stop-color="#7997ab"/><stop offset=".43" stop-color="#7997ab"/><stop offset=".6" stop-color="#b3c4d1"/><stop offset=".78" stop-color="#7997ab"/><stop offset="1" stop-color="#7997ab"/></linearGradient><linearGradient id="d" gradientUnits="userSpaceOnUse" x1="569.64" y1="951.45" x2="850.95" y2="1242.37" gradientTransform="matrix(.06873 0 0 .06815 .02 0)"><stop offset="0" stop-color="#aec3d0"/><stop offset=".43" stop-color="#aec3d0"/><stop offset=".6" stop-color="#c9d6de"/><stop offset=".78" stop-color="#aec3d0"/><stop offset="1" stop-color="#aec3d0"/></linearGradient></defs><path d="M36.38 112.8c-11.96-9.62-18-21.47-15.33-30.2 1.51-4.9 5.84-8.1 11.82-8.65 5.84-.48 12.72 2.52 19.93 5.72 11.55 5.04 23.37 10.22 33.54 3.28 8.04-5.46 11.07-13.64 9.14-24.2a47.39 47.39 0 0 0-5.7-15l1.65-.95v-1.98c1.3 0 1.64.69 3.36 4.02.83 1.7 2.07 4.5 3.1 7.78 4.53 14.38 1.23 26.24-9.28 33.46-11.96 8.24-25.5 2.31-37.4-2.93-6.73-2.94-13.12-5.8-18-5.32-4.46.4-7.42 2.46-8.45 5.93-1.78 5.86 1.85 16.22 14.09 26.04zm0 0" fill="#de3e42"/><path d="M4.97 128.95c-.49 0-.83-.14-1.17-.41 0-.07 0-.07-.07-.07 1.65-1.43 22.13-21.54 44.13-43.14.4.2.89.4 1.43.61 1.38.61 2.75 1.23 4.2 1.85L6.55 128.34c-.48.4-1.03.6-1.58.6zm51.82-43.96c-2-.82-3.99-1.7-5.99-2.53v-.06c13.06-12.88 26.4-25.97 36.3-35.78.06.2.2.34.34.47a2.15 2.15 0 0 0 2.96-.07l7.83-7.9c.82-.82.82-2.11 0-2.93-.14-.06-.21-.14-.35-.2 3.3-3.2 5.16-5.12 5.16-5.12-2.61-2.1-5.02-2.8-7-2.8h-.22.62c2.06 0 4.6.76 7.29 3.08 6.18 7.5.55 12.81.55 12.81zm0 0" fill-rule="evenodd" fill="url(#a)"/><path d="M96.44 24.74c-4.81 0-7.9 2.73-8.25 3.07l-.14.07L88 28 1.46 123.77c-1.92 2.18-1.92 5.38.07 7.22.9.82 2.13 1.23 3.44 1.23 1.3 0 2.6-.41 3.71-1.3v-.06h.07l97.73-84.38h.07v-.07c.06-.06 7.83-7.63-.21-17.37l-.41-.41c-2.96-2.6-6.2-3.9-9.49-3.9zm0 3.34c2.06 0 4.6.75 7.29 3.07 6.18 7.5.55 12.81.55 12.81L6.55 128.34c-.48.4-1.03.6-1.58.6-.49 0-.83-.13-1.17-.4-.62-.61-.55-1.77.14-2.6l86.52-95.68s2.34-2.18 5.98-2.18zm0 0" fill="#37322d"/><path d="M88.88 47.64c-.55 0-1.03-.2-1.44-.55a2.11 2.11 0 0 1-.07-2.93l7.9-7.9a2.15 2.15 0 0 1 2.96-.07c.82.82.82 2.11 0 2.93l-7.84 7.9c-.41.41-.96.62-1.51.62zm0 0" fill="#37322d"/><path d="M3.73 128.47c-.55-.61-.48-1.7.2-2.52L42.7 83.08c1.85.75 3.37 1.43 5.16 2.25-22 21.6-42.48 41.7-44.13 43.14zM50.8 82.4c-2.05-.88-3.36-1.57-5.35-2.39l45.01-49.75s2.13-1.98 5.36-2.18h.21c1.99 0 4.4.68 7 2.8 0 0-1.85 1.9-5.15 5.1a1.8 1.8 0 0 0-1.16-.34c-.48 0-1.03.21-1.45.62l-7.9 7.9c-.62.68-.76 1.7-.28 2.46-9.9 9.81-23.23 22.9-36.29 35.78zm0 0" fill-rule="evenodd" fill="url(#b)"/><path d="M3.66 128.54c-.69-.61-.62-1.77.14-2.6l86.32-95.68s2.27-2.12 5.7-2.18a9.41 9.41 0 0 0-5.36 2.18L45.45 80h-.07l-2.82 3c.07.07.07.07.14.07L3.94 125.95c-.69.82-.76 1.9-.21 2.52-.07 0-.07.07-.07.07zm0 0M87.1 46.62a2.05 2.05 0 0 1 .27-2.46l7.9-7.9c.42-.4.97-.62 1.45-.62.4 0 .82.07 1.16.35-2.74 2.65-6.45 6.33-10.79 10.63zm0 0" fill="#949799"/><path d="M87.37 44.57C78.43 25.08 79.05 10.02 89.22 0l6.33 6.27c-7.22 7.16-7.22 18.81 0 34.7zm0 0" fill="#37322d"/><path d="M89.7 43.55c-8.45-18.47-8.03-32.5 1.31-41.78l2.75 2.73c-8.04 7.97-8.25 20.58-.55 37.48zm0 0" fill="#de3e42"/><path d="M53.49 87.79c-1.45-.62-2.82-1.24-4.2-1.85-.54-.2-1.02-.4-1.43-.61l2.94-2.93v.06c2 .83 4 1.7 5.99 2.53zm0 0" fill-rule="evenodd" fill="url(#c)"/><path d="M53.55 87.85s0-.06-.06-.06l3.3-2.8s.07 0 .07.07zm0 0" fill="#322f2b"/><path d="M47.86 85.33c-1.8-.82-3.3-1.5-5.16-2.25l2.75-3.07c2 .82 3.3 1.5 5.35 2.39l-2.94 2.93zm0 0" fill-rule="evenodd" fill="url(#d)"/><path d="M42.7 83.08c-.07 0-.07 0-.14-.07l2.82-3h.07zm0 0" fill="#7c848a"/><path d="M75.34 92.62c-8.73 0-17.52-3.82-25.08-7.16-6.46-2.86-12.58-5.52-16.84-5.17l-.82-8.8c6.6-.6 13.67 2.53 21.23 5.87 10.86 4.77 22.06 9.67 31.13 3.54l5.1 7.3a25.71 25.71 0 0 1-14.72 4.42zm0 0" fill="#37322d"/><path d="M75.34 90.17c-8.18 0-16.42-3.68-24.05-7.02-6.8-2.94-13.2-5.8-18.08-5.32l-.34-3.88c5.84-.48 12.72 2.52 19.93 5.72 11.55 5.04 23.37 10.22 33.54 3.28l2.27 3.13a23.1 23.1 0 0 1-13.27 4.09zm0 0" fill="#de3e42"/></svg>