<svg height="133pt" viewBox="0 0 156 133" width="208" xmlns="http://www.w3.org/2000/svg"><path d="m43.3 60.95 112.7-.33v.44c0 7.94-6.21 14.32-14.1 14.32l-98.49.22zm0 0" fill="#cde3e2"/><path d="m78.95 60.84 77.05-.22-27.87.11h-3.44zm0 0" fill="#78726c"/><path d="m82.6 63.3 2.45-2.46h-6.1l45.74-.1 1.22 2.45zm54.86-.22-1.22-2.35h-8.1l27.86-.11v.44c0 .68 0 1.35-.1 2.02zm0 0" fill="#e2efef"/><path d="m66.95 75.6 8.66-.1v.1zm0 0" fill="#282724"/><path d="m66.95 75.6 2.89-2.9a9.49 9.49 0 0 0 2.55-5.15l4.45-4.47v.22h5.77l-3.56 3.58a9.4 9.4 0 0 1 -2.55 7.83l-.9.78zm0 0" fill="#748495"/><path d="m76.84 63.3v-.22l2.1-2.24h6.11l-2.44 2.46zm0 0" fill="#838c9f"/><path d="m33.54 75.6h29.64c5 0 9.1-4.14 9.1-9.28a9.01 9.01 0 0 0 -9.1-9.05h-19.22zm0 0" fill="#138595"/><path d="m33.86 48.1c3.89 0 7 3.12 7.1 7.04v4.25c0 3.91-3.1 7.04-6.98 7.04l-17.88.12c-3.78 0-7-3.14-7-7.05v-4.25a7 7 0 0 1 7-7.05zm-33.86 7.14v4.25c0 8.95 7.21 16.21 16.21 16.21l17.77-.1c8.88 0 16.1-7.27 16.1-16.22v-4.25a16.34 16.34 0 0 0 -16.22-16.21h-17.76c-8.89.11-16.1 7.38-16.1 16.33zm0 0" fill="#138595"/><path d="m63.18 62.07a4.35 4.35 0 1 1 0 8.72 4.35 4.35 0 0 1 -4.33-4.36c0-2.46 1.89-4.36 4.33-4.36zm0 0" fill="#253d56"/><path d="m69.61 70.34 65.07-65.86-.33-.33a14 14 0 0 0 -19.99.12l-55.06 55.79zm0 0" fill="#cde3e2"/><path d="m72.4 67.55c.1-1.23.1-2.46-.23-3.58l60.51-61.27c.56.44 1.11.89 1.67 1.45l.33.33-55.73 56.36-2.11 2.24zm0 0" fill="#aabfc5"/><path d="m106.81 28.86-5.66-11.18 13.21-13.41c.67-.68 1.34-1.35 2.1-1.8l5.56 10.96zm25.54 46.52-6.44-12.2 11.55-.1 6.1 12.19c-.33 0-.77.11-1.1.11h-.56zm0 0" fill="#e8f2f2"/><path d="m125.91 63.19-1.22-2.46h11.55l1.22 2.35zm0 0" fill="#f3f9f8"/><path d="m55.63 100.09a6.99 6.99 0 0 0 0-9.95l-3-3.02a6.87 6.87 0 0 0 -9.88 0l-21.76 22.03a6.97 6.97 0 0 0 0 9.95l3 3.02a6.97 6.97 0 0 0 9.87 0zm-38.09 28.51-3-3.01a16.2 16.2 0 0 1 0-22.93l21.76-22.03a16.04 16.04 0 0 1 22.77-.11l3 3.02a16.35 16.35 0 0 1 0 23.04l-21.67 22.02a16.16 16.16 0 0 1 -22.87 0zm0 0" fill="#1bafd7"/><path d="m35.97 80.97 20.88-21.13a8.97 8.97 0 0 1 12.88-.12 9.23 9.23 0 0 1 .11 12.98l-13.55 13.75zm0 0" fill="#1bafd7"/><path d="m66.4 69.34a4.42 4.42 0 0 0 0-6.15 4.34 4.34 0 0 0 -6.1 0 4.4 4.4 0 0 0 0 6.15 4.33 4.33 0 0 0 6.1 0zm0 0" fill="#cde3e2"/><path d="m65.29 68.23c1-1.12 1-2.8 0-3.92a2.67 2.67 0 0 0 -3.89 0 2.72 2.72 0 0 0 0 3.92c1.1 1.11 2.78 1 3.89 0zm0 0" fill="#404048"/><path d="m16.1 75.71h.11l17.33-.1-17.33.1h-.1zm-7-16.21v-1.34zm31.87-.1v-1.24zm0 0" fill="#292825"/><path d="m16.1 75.71c-8.89 0-16.1-7.26-16.1-16.21v-1.34h9.1v1.34a7.06 7.06 0 0 0 7 7.05l17.88-.12a7.06 7.06 0 0 0 6.99-7.04v-1.23h9.1v1.23c0 8.95-7.21 16.21-16.09 16.21h-.44l-17.33.11h-.1zm0 0" fill="#177684"/><path d="m28.98 133.3c-4.11 0-8.22-1.57-11.44-4.7l-3-3.01 3 3.01a16.34 16.34 0 0 0 11.44 4.7c4.11 0 8.22-1.57 11.43-4.7l21.66-22.02-21.67 22.02a16.34 16.34 0 0 1 -11.43 4.7zm-7.99-14.19s0-.12-.12-.12c.12 0 .12.11.12.11zm-.44-.57h-.12.11zm-.12 0v-.11zm31.42-32.09a7.07 7.07 0 0 1 0 0zm0 0" fill="#292825"/><path d="m28.98 133.3c-4.11 0-8.22-1.57-11.44-4.7l-3-3.01a7.3 7.3 0 0 1 -1.44-1.68c-1-1.23-1.77-2.68-2.22-4.14l8.88-9.06a7 7 0 0 0 .67 7.72v.11h.11v.11h.11v.11l.11.11.11.12c.12 0 .12.11.12.11l3 3.02a7.11 7.11 0 0 0 9.87 0l21.77-22.03a7.08 7.08 0 0 0 2.1-5.03c0-1.79-.77-3.58-2.1-4.92l-3-3.02c-.22-.22-.44-.45-.78-.67a7.07 7.07 0 0 0 -4.1-1.46c-1.11 0-2.23.34-3.11.79l1.88-2.02 9.77 2.7 4.22-4.37 1.56 1.45a16.23 16.23 0 0 1 0 23.04l-21.67 22.02a16.34 16.34 0 0 1 -11.43 4.7zm0 0" fill="#159bc1"/><path d="m56.3 86.45-9.78-2.69 14.1-14.08c.78.66 1.78.89 2.67.89 1.1 0 2.22-.34 3.1-1.23a4.46 4.46 0 0 0 .34-5.81l3.33-3.47a9.23 9.23 0 0 1 -.22 12.64l-9.33 9.39zm0 0" fill="#159bc1"/><path d="m63.29 70.57c-.9 0-1.89-.23-2.67-.9l1.11-1.22c.45.44 1 .55 1.56.55.77 0 1.44-.22 2-.77.89-1.02 1-2.47.22-3.59l1.22-1.11a4.46 4.46 0 0 1 -.33 5.81c-.9.9-2 1.23-3.11 1.23zm0 0" fill="#99caca"/><path d="m63.29 69c-.56 0-1.11-.1-1.56-.55l3.78-3.8a2.88 2.88 0 0 1 -.22 3.58c-.56.55-1.23.77-2 .77zm0 0" fill="#363c42"/></svg>