<svg height="133pt" viewBox="0 0 255 133" width="340" xmlns="http://www.w3.org/2000/svg"><path d="m144.09 132.96c-61.1 0-110.77-4.33-110.77-9.78s49.68-9.78 110.77-9.78c61.25 0 110.91 4.33 110.91 9.78s-49.66 9.78-110.91 9.78zm0 0" fill="#e0e0e2"/><g fill-rule="evenodd"><path d="m240.88 117.09c-.48-1.13-1.59-3.85-2.54-4.33-2.39-.96-5.4 1.77-7.61 3.2-2.55 1.77-1.6 3.05-.16 3.21 2.7.16 8.88.32 9.99-.48s.31-1.6.31-1.6zm0 0" fill="#8d8578"/><path d="m105.37 119.33c-.8-2.24-1.12-6.73-5.56-4.16-4.44 2.56-7.46 6.1-4.76 6.25 2.86.16 9.04.48 10.16-.32.94-.97.16-1.77.16-1.77zm0 0" fill="#878173"/><path d="m86.32 72.52c-2.7-4.33-11.9-1.93-17.6-4.17-5.89-2.09-5.1-3.54-5.89-1.93-.94 1.44-7.13 17.31-19.51 20.04-12.38 2.89-21.59 6.25-23.01 4.65-1.42-1.76-1.58-1.6-1.42-2.08.16-.32 1.9-1.29 4.12-3.2 2.22-1.94 3.02-3.21 3.02-3.21s-3.66 3.84-5.08 4.64c-1.44.81-2.22 1.93-2.86 1.61s-1.1-2.4-1.27-2.57c-.32-.16-2.7-1.6-2.7-4.16.17-2.73-1.43-5.14-2.53-7.22-1.12-1.93-.48-3.53-.8-4.01s2.54-4.8 3.97-7.06c1.43-2.08 1.27-.16 3.49-2.4l2.22-2.4s2.7-3.37 5.87-4.66c3.18-1.28 3.65-.64 5.71-3.69 2.07-2.88 2.38-10.25 2.38-10.25s-3.33-.8-4.76-5.3c-1.26-4.33-.95-11.22-.31-10.42.47.97 5.07 1.77 9.68 4.5 4.76 2.55 5.24 3.2 5.24 3.2s6.97-4.5 10.78-8.66c3.97-4.17 30.94-22.61 40.15-23.57 9.2-.96 42.05 3.85 58.08 4.49 16.03.47 19.03-3.05 38.72-1.76 19.83 1.28 26.97 6.25 32.05 10.74 5.07 4.48 9.2 13.94 13.01 23.72 3.8 9.95 5.24 24.7 9.36 30.3 4.13 5.62 6.99 6.9 6.03 7.4-.95.47-6.35-2.9-8.89-5.94-2.37-3.2-4.44-10.91-5.86-16.68-1.44-5.61-1.28-6.73-1.28-6.73s-1.42 7.53-1.42 11.54c.16 3.84 0 9.62 7.46 18.76 7.6 9.3 10.47 9.14 9.83 12.67-.48 3.37-4.44 10.26-3.17 16.68 1.43 6.41 3.17 8.98 2.38 11.22-.63 2.4-5.71 3.36-10 3.2-4.44-.16-6.82.32-7.46-1.44-.64-1.6-.16-2.89 1.28-3.84a5.19 5.19 0 0 0 2.69-4.02c.16-1.76 2.07-5.44-2.38-15.39-4.6-10.1-17.93-19.08-17.93-19.08s-4.6 5.62-5.87 15.56c-1.43 9.94 2.06 13.15-1.59 16.2-3.8 3.03-10 4.16-11.74 5.76-1.9 1.6-1.74 7.54-3.81 9.14s-11.9 1.77-13.8 1.6c-2.07-.32-.16-1.92-.16-1.92s-5.72-.96-6.66-2.09c-.8-1.28 0-1.12 1.58-2.4 1.43-1.28 5.24-1.77 6.03-2.88.8-1.13 7.3-5.14 9.36-10.58 2.06-5.46 5.24-15.72 5.08-19.4-.32-3.53-3.02-8.83-5.4-13.96-2.54-5.13-2.54-6.09-2.85-6.26-.31 0-4.6 10.75-26.98 12.67-22.21 2.09-39.67-3.2-39.67-3.2s-2.7 5.6-3.02 10.26c-.31 4.65 2.39 7.86 1.12 13.63s-4.3 11.54-4.13 14.27c.16 2.57 3.01 6.25.64 7.7-2.38 1.6-15.71 3.04-15.71.96-.16-2.09.32-6.1 2.7-10.27 2.22-4.17 1.58-11.7.63-15.87-.8-4.01-1.43-8.82-2.07-8.18-.62.8-11.57 7.38-11.57 9.46 0 1.93.95 2.73 3.48 6.1 2.54 3.36 5.4 3.84 5.56 6.89s-3.5 11.38-6.2 12.5c-2.53 1.29-3.96 1.13-3.64-1.12.16-2.23-2.22-7.21-5.56-10.74-3.32-3.53-6.66-11.22-5.23-15.87 1.43-4.8 4.77-14.91 6.03-17 1.11-2.08 2.06-4.48 2.06-4.48zm0 0" fill="#fcd5a6"/><path d="m220.4 77.96c-1.58-1.28-2.7-1.92-2.7-1.92s-4.6 5.62-5.86 15.56c-1.43 9.94 2.06 13.15-1.59 16.2-3.8 3.03-10 4.16-11.74 5.76-1.9 1.6-1.74 7.54-3.81 9.14-.47.32-1.27.64-2.38.8 1.43-1.76 2.54-2.24 2.23-5.93-.32-4.65-3.98-8.5-1.92-7.7 2.07.8 3.98 4.17 4.3 2.73.3-1.44-.96-5.3.15-4.33.96.96 1.9 1.44 2.54 1.76.47.48 2.7 1.61 5.24-1.44 2.7-2.89.16-6.57 1.74-6.73 1.74-.32 4.76 3.68 4.76 1.6 0-2.24-2.38-7.06-2.38-8.01.16-1.13.64-9.15 2.38-12.83 1.9-3.69 6.35-6.74 13.33-16.36 6.82-9.62 9.68-14.1 9.2-12.99-.48.8-8.09 12.67-13.48 24.7zm0 0" fill="#b1a09b"/><path d="m236.43 45.74c-.16-.97-.79-6.26-3.02-12.51-2.22-6.41-7.93-13.63-7.93-13.63 8.57 16.52 17.46 29.35-7.77 56.44 0 0 13.33 8.98 17.93 19.08 4.45 9.95 2.54 13.63 2.38 15.4a5.19 5.19 0 0 1 -2.7 4c-1.43.96-1.9 2.25-1.27 3.86.64 1.75 3.02 1.27 7.46 1.43 4.29.16 9.37-.8 10-3.2.8-2.24-.95-4.8-2.38-11.22-1.27-6.42 2.7-13.31 3.17-16.68.64-3.53-2.22-3.37-9.83-12.67-7.46-9.14-7.3-14.92-7.46-18.76 0-4 1.42-11.54 1.42-11.54zm0 .48c-.16-.32 0-.48 0-.48zm0 0" fill="#9e9690"/><path d="m235.95 42.53-1.74 3.05c-.32 6.41-2.86 13.47-9.52 22.28-.32.33-.47.8-.63 1.13-1.6 3.37-3.65 5.6-.95 3.53 2.85-2.25 9.52-6.1 8.4-4.66-1.1 1.6-6.34 8.98-4.12 7.86 2.22-1.29 6.02-2.25 5.88-1.13-.16 1.3-1.12 4.66-.16 5.62 1.1.96 4.12-.64 4.28.32.16.97 3.97 1.45 5.87 3.68 1.9 2.25 3.96 1.13 3.01 5.94-.95 4.97-1.9 4.65-1.43 10.26.32 5.61 2.54 11.4 2.7 9.62.32-1.92-1.58-8.01 0-12.83 1.6-4.8.48-6.9 2.54-6.9.63 0 1.28.17 1.74.17a4.2 4.2 0 0 0 .48-1.76c.64-3.53-2.22-3.37-9.83-12.67-7.46-9.14-7.3-14.92-7.46-18.76 0-2.24.48-5.45.79-8.01v-1.45c0-.8.15-2.08.47-3.21-.16-.64-.16-1.28-.32-2.08zm0 0" fill="#a8a19d"/><path d="m188.35 108.75a15.22 15.22 0 0 0 2.7-4.32c2.06-5.46 5.24-15.72 5.08-19.4-.32-3.53-3.02-8.83-5.4-13.96-2.54-5.13-2.54-6.09-2.85-6.26 0 0-.16.17-.31.5-.96-2.58-1.92-7.55 2.38-13.8 5.86-8.82 14.75-15.07 13.64-12.83-.95 2.24-2.38 6.09-2.38 6.09s10.79-.8 12.21-.16c1.44.65-12.37 6.9-10.94 6.57 1.27-.32 13.32 2.25 10.16 3.21-3.02.8-12.23 1.61-13.34 7.22-.95 5.6 5.4 6.09 5.08 9.14-.32 3.2-2.54 3.2-2.22 6.25.32 2.89 2.86 4.34 1.59 5.77-1.27 1.44-2.7 2.25-2.54 3.21.31 1.12 5.23 6.42 3.49 6.42-1.59.15-5.4 0-5.4 0s-3.49 0-2.37.8c.94.8 8.72 9.78 7.45 8.82-1.27-.97-9.36-4.98-7.61-2.25 1.74 2.73 4.12 6.57 3.17 6.41-.95 0-3.97-2.56-4.92-1.6s-3.65 4.01-6.5 4.17zm0 0" fill="#aba29a"/><path d="m187.88 64.81c-.31 0-4.6 10.75-26.98 12.67-22.21 2.09-39.67-3.2-39.67-3.2s-.47 1.12-1.11 2.88c-.79-.32-1.1-.64-1.1-.64 3.48-4 4.75-9.46 4.12-17.63-.48-8.19-3.5-21.81-1.75-20.05 1.75 1.92 10.95 20.69 12.38 16.52 1.27-4.02.32-12.35 3.02-10.27 2.7 2.09 6.66 7.7 7.3 5.14.78-2.57-3.66-20.2-2.23-18.77 1.43 1.45 7.3 25.98 10.31 21.5 3.18-4.34 1.75-15.4 4.13-11.72 2.54 3.69 7.14 15.72 7.78 8.99.8-6.58-2.38-21.66-.64-19.57 1.6 2.25 9.36 27.42 9.84 21.81s-1.9-26.93 1.27-20.85c3.17 6.25 7.93 24.22 7.93 24.22s.64-7.54 1.59-11.4c2.7-11.53 16.5-22.92 13.32-19.87-14.59 13.63-10.14 28.06-8.4 22.6 4.44-12.5 11.1-14.1 11.1-14.1-8.08 5.93-11.26 14.1-11.58 21.97-.16 8.01-.32 8.81-.63 9.77zm0 0" fill="#aba29a"/><path d="m101.71 86.94c0-.16-.16-.16-.32-.16-.62.8-11.57 7.38-11.57 9.46 0 .96.15 1.61.79 2.57-2.39-.8-3.8-1.29-2.39-4 2.23-4.5 8.89-5.94 11.75-9.3 2.86-3.21-.95-5.3 1.27-6.74 2.37-1.29 3.97.96 5.55 0 1.75-.97 5.4-2.73 9.2-4.66 3.97-2.07 3.65-2.56 4.29-3.52.8-.96 3.8-2.73 3.96-9.95 0-7.37-2.53-10.26-3.64-15.22-1.1-4.82 3.96-14.12 3.96-14.12s-3 8.02-2.54 12.5c.48 4.66 3.34 11.07 3.82 15.89.32 4.8-1.28 9.3-1.28 9.3s2.54-1.61 2.86-6.74-1.26-10.1-1.26-10.1 2.84 3.05 3.16 7.54c.32 4.48-3 11.86-3 11.86s2.84 1.76 1.74 2.24c-1.28.64-5.08.16-6.83.48-1.74.5-17.77 10.43-19.52 12.67zm0 0" fill="#aba29a"/><path d="m86.32 72.52a2.8 2.8 0 0 0 -.64-.8c.32-.81.48-1.13.48-1.13.48-.48 2.22-1.76 7.14-1.6 5.08.16 9.05 1.12 6.99 1.12-2.22-.16-15.24 3.36-11.75 3.68 3.5.16 8.57 2.57 7.62 2.25-.8-.16-8.88 2.57-9.84 5.13-.94 2.72 2.22 5.61 0 6.41-2.22.97-4.92 2.25-4.44 4.02.32 1.44-2.22 5.44-3.97 6.57-.16-1.6-.16-3.05.32-4.17 1.43-4.8 4.77-14.91 6.03-17 1.11-2.08 2.06-4.48 2.06-4.48zm0 0" fill="#b2a3a0"/><path d="m34.43 88.71c-.47-.48-.63-.97-.63-2.09 0-1.28-1.43.64-3.33 2.25-1.75 1.76-4.28 1.6-5.56 1.12-1.42-.48 2.06-4.8 2.22-6.42 0-1.75-.94 1.45-3.01 4.66-1.27 1.92-2.39 2.72-3.01 3.2 1.9.33 6.66-.96 13.32-2.72zm51.89-16.2c-2.7-4.32-11.9-1.92-17.6-4.16-5.89-2.09-5.1-3.54-5.89-1.93-.94 1.44-4.28 15.88-19.51 20.04-14.76 4.33-3.49-1.44-5.4-1.12 1.12-1.29 4.6-2.88 3.02-4.17-2.38-1.6 4.44-.8 5.86-4.49 1.44-3.69.65-5.3 3.34-6.73 2.86-1.6 4.77-3.37 4.77-8.34.15-4.81-1.12-16.2.8-11.86 1.74 4.32 2.52 12.98 4.74 14.42 2.23 1.61 9.53 2.25 9.37.64 0-1.44-4.77-9.77-2.23-18.11 2.7-8.34 9.37-22.45 7.95-15.08-1.44 7.38-6.67 24.38-1.44 29.34 5.24 4.82 11.11 7.39 12.38 6.58 1.12-.8-1.58-2.4-.48-5.13.96-2.56 7.62-4.65 6.35-3.84-1.27.8-5.7 4.96-5.23 6.57.32 1.44.79 1.44.79 1.44s-.16-3.37 5.23-3.85c5.4-.48 11.9 3.21 9.84 3.05-2.05 0-12.21-1.29-13.48.16-1.28 1.6-2.54 6.42-3.18 6.58zm0 0" fill="#aba29a"/><path d="m31.57 66.58c1.28.48 1.75.64 1.12 1.77-.8.96-.8 1.44-2.22 1.12-1.27-.48-2.06-.8-1.75-.96.8-.32.16-1.3.8-1.77.31-.32 1.42-.48 2.05-.16zm0 0" fill="#8f8482"/><path d="m34.43 40.45s-3.33-.8-4.76-5.3c-1.11-3.85-.95-9.94-.47-10.42 0 4.97 2.37 13.47 8.1 13.8 3 .15 3.48.15 5.86-.98 0 0 0-.16.16-.31 1.1-2.73.8-4.33.8-4.81h.16s.15 0 .3-.16c.48.32.96.8 1.28 2.24.32 1.77.32 3.53.64 2.4.3-.95 0-4.16-.48-5.6 1.74-1.29 4.28-3.06 6.5-5.13.64.8 3.18 2.4 3.18 6.09 0 3.85-1.27 7.7-1.11 6.09.16-1.6-2.7-8.34-2.54-8.02 0 .32.95 5.14-.32 8.34-1.43 3.04-3.33 5.6-2.85 4.33.3-1.45 0-6.1 0-6.1s.62 2.57-2.08 4.5c-2.68 1.76-5.7 2.56-4.6 1.76.96-.8 2.55-3.53 2.23-3.2-.31.32-6.98 2.24-6.2 1.92.49-.17 1.75-.49 3.03-1.6-1.9.95-4.44 1.43-6.83.16zm0 0" fill="#aba29a"/><path d="m32.05 66.9c-.8-.16-1.9 0-2.53.8-.64.65-.64 1.13.31 1.29.8 0 2.06.32 2.54-.64.48-.81-.32-1.45-.32-1.45zm-15.23 10.9c-1.11.49-2.22.49-2.06 1.29.15.8 1.1.48 1.9 1.28.63.64.8 1.6 1.27.97.48-.65.64-2.41.16-3.05-.64-.49-1.27-.49-1.27-.49zm0 0" fill="#4c4849"/><path d="m16.03 63.37s-1.43.8-6.5-4.64c-5.1-5.46-7.63-10.91-9.22-13.96-1.44-2.56 2.86 22.13 10.79 26.62 3.96-.8 7.3-7.38 4.92-8.02zm0 0" fill="#cbb58b"/><path d="m16.03 63.37c-.96.32-1.74 5.14-3.8 5.14-2.07 0-5.57-5.78-7.94-11.07-2.23-5.29-3.65-11.86-3.97-12.67-.16-.16-.16-.16-.32 0-.16 2.57 3.96 22.6 11.1 26.62 3.97-.8 7.3-7.38 4.93-8.02zm0 0" fill="#b8a57f"/><path d="m25.55 54.07c-1.28-.64-3.34-1.44-4.92-3.53-1.9-2.24-2.06-3.68-2.38-3.04-.48.64-.64 5.3.48 8.18 1.26 3.05 1.1 4.48 3.32 3.85 1.44-.32 3.82-2.41 4.92-3.53.64-.64-.78-1.6-1.42-1.93zm0 0" fill="#cbb58b"/><path d="m19.05 48.3c-.48-.8-.64-1.12-.8-.8-.48.64-.64 5.3.48 8.18 1.26 3.05 1.1 4.48 3.32 3.85 1.44-.32 3.82-2.41 4.92-3.53.32-.16.16-.64-.15-.96-.63.8-3.97 3.69-5.23 2.72-1.12-1.12-2.54-4.33-2.7-7.22-.16-1.27.16-1.91.16-2.24zm0 0" fill="#b8a57f"/><path d="m22.05 81.5c.32-4.98-8.25-4.18-8.25-4.18-4.6-1.12 10.47-5.12 13.02-11.06.47 2.4 1.27 4.49 2.7 4.49 1.58 0 6.66-2.56 5.71-.96-1.11 1.6-2.22 3.84-5.71 4.16-3.5.32-8.41 2.57-8.41 2.57 2.85.16 4.92 6.57-.16 8.82-2.54 1.28-3.82.96-3.5.8 2.38-1.12 4.44-1.28 4.6-4.64zm0 0" fill="#aba29a"/><path d="m92.82 116.45c-1.42 0-4.28 0-4.91 1.76s-1.59 4.81.16 4.97c1.9 0 5.55-.64 6.5-1.76.96-1.13.64-2.4.16-3.05-.31-.64-1.9-1.92-1.9-1.92zm0 0" fill="#9d9385"/><path d="m98.07 113.08c-2.07-.96-4.93.48-5.87 1.45-.96.95-.16 3.36.62 4.64.8 1.28 1.28 2.25 3.34.64 2.07-1.6 1.9-6.73 1.9-6.73zm0 0" fill="#a39a8b"/><path d="m103.46 94.96c.95 4.17 1.59 11.7-.63 15.87-2.38 4.18-2.86 8.18-2.7 10.27 0 2.08 13.33.64 15.7-.97 2.38-1.44-.47-5.12-.63-7.7-.16-2.72 2.86-8.5 4.13-14.26 1.27-5.77-1.43-8.98-1.12-13.63.33-4.65 3.02-10.27 3.02-10.27-1.74.5-17.77 10.43-19.52 12.67.64.97 1.12 4.66 1.75 8.02zm0 0" fill="#9e9690"/><path d="m107.59 120.6c-.96-2.22-4.6-6.72-6.66-4.96-1.9 1.93-6.51 6.9-3.66 7.06 2.7.16 8.88.32 10-.48 1.1-.8.32-1.61.32-1.61zm0 0" fill="#a39a8b"/><path d="m184.23 119.17c-.48-1.12-1.43-4.32-2.54-4.16a38.6 38.6 0 0 0 -7.61 3.2c-2.54 1.6-1.6 3.05-.16 3.05 2.85.32 8.88.48 9.99-.32 1.11-.97.32-1.77.32-1.77zm0 0" fill="#8a8376"/><path d="m188.2 122.22c-.95-2.25-4.61-6.74-6.67-4.82-1.9 1.77-6.5 6.75-3.65 6.9 2.7.17 8.89.33 10-.48 1.1-.8.31-1.6.31-1.6zm53.63-4.01c-.8-2.4-2.86-6.25-5.56-4.81-2.7 1.45-7.46 6.57-4.76 6.73 2.86.32 9.05.48 10-.32 1.1-.96.32-1.6.32-1.6zm0 0" fill="#a39a8b"/><path d="m212.16 14.95c.32.48-10.95-5.13-18.89-5.77-7.77-.8-6.82-2.09-2.86 5.6 3.98 7.7-3 5.78-3 5.78-2.39-5.45-7.62-7.05-14.77.96-4.44 4.82-18.57 11.39-10.62 3.37 8.08-8.34 4.6-14.59-1.44-15.07-6.03-.48-15.39-3.53-13.96-3.69 1.43 0 21.26 1.76 27.77-.15 6.66-2.1 5.56-1.93 11.58-1.93 23.01.32 26.03 10.26 26.19 10.9zm-101.56-5.45c-14.6-1.29-24.12 6.9-30.94 14.59 0 0 0-5.78 16.5-15.4 3.97-2.24-16.98 5.94-14.44 4.18 18.25-13.31 25.71-9.62 46.02-5.78 10.3 1.93 17.93 1.44 15.07 2.57-2.7 1.12-13.33-.16-10.95 5.45 5.56 12.66 2.86 25.97 2.86 25.97-2.54-5.44-1.74-29.5-24.12-31.58zm0 0" fill="#aba29a"/><path d="m13.33 65.46c-.32 1.12-.48 1.28-1.43.8-1.11-.64-3.81-4.17-5.71-6.9-1.75-2.56-3.81-7.53-3.01-7.2.78.47 5.23 8 7.13 9.61 1.43 1.28 2.54 1.92 3.18 2.08.47.16 0 .96-.16 1.61zm12.07-10.42c-.49.8-1.28 1.6-2.23 1.28-1.12-.16-2.06-1.12-3.02-3.53-.95-2.25-1.26-3.68-.64-2.72.8.95 1.6 2.08 3.66 3.52 1.9 1.45 2.22 1.45 2.22 1.45zm0 0" fill="#d7b9a6"/></g></svg>