<svg height="133pt" viewBox="0 0 161 133" width="161pt" xmlns="http://www.w3.org/2000/svg"><path d="m78.22 35.7s-2.08-2.35 8.86-10.46c10.95-8.11 21.24-15.7 21.24-15.7s22.68-16.08 40.4 7.99c17.59 24.06-6.26 41.2-6.26 41.2l-17.59 13.07s-4.82 3.8-5.86 2.35c-.91-1.3-3.26-8.23-4.17-11.11-1.05-3 1.04-9.81 6-14 5.07-4.18 14.59-10.72 14.59-10.72s5.08-5.89-.13-12.95c-5.22-7.06-13.17-4.31-13.17-4.31s-5.99 2.48-2.6 7.32c3.26 4.84 5.21 7.46 2.34 9.55-2.86 2.09-14.2 2.61-21.37 2.48-7.16-.13-19.8 0-22.28-4.7zm0 0" fill="#9b979c"/><g fill="#d6d4d4"><path d="m56.85 63.82c1.7-1.44 3.65-2.87 5.86-4.57 31.28-23.68 39.75-29.3 39.75-29.43l-5.08-7.71c-.26.25-8.48 5.75-40.27 29.81-5.08 3.92-9.13 7.2-12.5 9.94-12 10.07-14.73 14.65-25.81 24.46 4.3-.66 8.6-.26 12.5 1.18 13.17-11.51 11.74-12.82 25.55-23.68zm0 0"/><path d="m108.06 70.23a2777.94 2777.94 0 0 1 -24.36 17.66c-32.72 23.67-49.91 30.34-54.87 33.08l-.78.53a12.57 12.57 0 0 1 -16.42-3.4 12.83 12.83 0 0 1 2.6-17.65 12.63 12.63 0 0 1 17.6 2.74 13.1 13.1 0 0 1 1.69 11.77c2.6-1.7 6-3.66 9.77-6.01a20.54 20.54 0 0 0 -4.16-11.25 21.48 21.48 0 0 0 -30.24-4.58 21.8 21.8 0 0 0 -4.7 30.34c6.92 9.29 19.69 11.64 29.2 5.5 4.95-2.75 22.68-9.68 55.78-33.5 15.76-11.5 25.67-18.69 31.66-23.27zm0 0"/><path d="m129.3 65.65-5.73-7.19c-.14.13-3.65 3-15.51 11.77l12.77 1.96c6.26-4.71 8.34-6.4 8.47-6.54zm0 0"/></g><path d="m126.82 70.36.79-.65c-.13 0-.4.26-.79.65zm0 0" fill="#2a2825"/><path d="m122.66 72.32c-.26 0-.53-.13-.66-.26a1.74 1.74 0 0 1 -.39-.52c1.18-.79 2.09-1.57 2.87-2.1.13.13.26.4.4.53a1 1 0 0 0 .64.26c1.05 0 2.87-1.18 4.04-1.96l-1.82 1.3-.13.14-.79.65c-1.16.78-3.12 1.96-4.16 1.96zm0 0" fill="#7d767c"/><path d="m128.4 43.29 2.86-2.1c-.4.27-.91.66-1.31.92l-1.56 1.18zm0 0" fill="#2a2825"/><path d="m118.23 62.52c-.13-.66-.4-1.18-.52-1.7-.92-2.88 1.17-9.68 6.12-13.87 1.3-1.18 2.86-2.36 4.56-3.66l1.56-1.18c-1.17.91-2.34 1.84-3.26 2.62-4.95 4.32-7.03 10.99-6.12 14 .13.39.4 1.04.52 1.7-.65.52-1.7 1.3-2.86 2.09zm0 0" fill="#7d767c"/><path d="m138.55 35.96c.66-1.04 3-4.57 1.44-9.15l2.87-2.1c1.82 5.37-1.7 9.3-1.7 9.3l-2.6 1.95zm0 0" fill="#7d767c"/><path d="m124.74 35.84v-.13zm.13-.13c.52-.4.79-.8 1.04-1.18v-.14c-.25.53-.52.92-1.04 1.32zm0 0" fill="#2a2825"/><path d="m121.61 71.54c-.91-1.7-2.34-6.02-3.38-9.02a42.3 42.3 0 0 0 2.86-2.1c1.04 2.88 2.48 7.2 3.39 9.03-.78.52-1.7 1.3-2.87 2.09zm0 0" fill="#aeabaa"/><path d="m84.09 31.39s-2.22-2.35 8.72-10.46a2178.6 2178.6 0 0 0 21.24-15.7s22.81-16.09 40.4 7.98c17.73 24.06-6.12 41.2-6.12 41.2l-17.73 13.07s-4.83 3.8-5.74 2.5c-1.04-1.45-3.39-8.38-4.3-11.25-.91-3.01 1.17-9.68 6.12-14 4.97-4.19 14.48-10.73 14.48-10.73s5.08-5.75-.13-12.94c-5.21-7.06-13.16-4.32-13.16-4.32s-5.87 2.48-2.61 7.33c3.39 4.97 5.21 7.45 2.35 9.54-2.87 2.1-14.2 2.75-21.38 2.49-7.16-.14-19.8 0-22.14-4.71zm0 0" fill="#d6d4d4"/><path d="m31.3 87.5a23.77 23.77 0 0 0 -8.59-1.44c-1.3 0-2.6 0-3.91.26 1.3-.26 2.6-.26 3.91-.26 3 0 5.86.39 8.6 1.44 13.16-11.51 11.73-12.82 25.54-23.68 1.7-1.44 3.65-2.87 5.86-4.57 11.47-8.63 19.81-14.91 25.8-19.36-5.99 4.45-14.33 10.73-25.8 19.36-2.21 1.7-4.17 3.13-5.86 4.57-13.81 10.86-12.38 12.18-25.55 23.68zm71.94-47.08c6.9 0 15.77-.66 18.5-2.36-2.73 1.7-11.6 2.35-18.5 2.35zm-2.6 0h-2.62 2.6zm-25.16-2.23c1.04-.78 1.96-1.57 2.87-2.23-.91.66-1.83 1.45-2.87 2.23zm46.26-.13v-.13zm-34.4-12.96" fill="#453d37"/><path d="m103.24 40.41h-2.6-2.62c-2.87-.13-6.26-.26-9.52-.52 1.18-.78 2.1-1.57 3-2.22 4.04.52 8.6.52 11.86.52.9.13 1.7.13 2.74.13 5.86 0 13.16-.52 16.8-1.7a3 3 0 0 1 -1.03 1.3h-.14v.14c-2.73 1.7-11.6 2.35-18.5 2.35zm-24.9-4.45-.12-.25s-.13-.27-.13-.66c0-1.18 1.04-3.92 8.99-9.81l.13-.13h.13c.78-.65 1.7-1.3 2.48-1.96-10.7 8.11-8.6 10.33-8.6 10.33 0 .13 0 .27.13.27-.91.78-1.96 1.43-3 2.21zm0 0" fill="#ada8ad"/><path d="m31.3 87.5a23.77 23.77 0 0 0 -8.59-1.44c-1.3 0-2.6 0-3.91.26 11.07-9.8 13.8-14.39 25.8-24.46 3.38-2.74 7.43-6.02 12.5-9.94 4.05-3 7.7-5.76 10.95-8.24 2.61-1.96 5.09-3.79 7.43-5.5 1.04-.77 1.96-1.56 2.87-2.22 1.04-.78 2.09-1.43 3-2.21 1.43 2.35 5.6 3.52 10.16 3.92-.9.65-1.82 1.44-3 2.22-5.99 4.45-14.33 10.73-25.8 19.36-2.21 1.7-4.17 3.13-5.86 4.57-13.81 10.86-12.38 12.18-25.55 23.68zm0 0" fill="#dfdcdc"/><path d="m91.64 21.84c.13 0 .26-.13.4-.26-.14.13-.27.26-.4.26zm0 0" fill="#453d37"/><path d="m89.95 23.15c.52-.4 1.04-.92 1.7-1.31.12 0 .25-.13.39-.26.12-.13.39-.26.51-.4-.78.66-1.7 1.32-2.6 1.97zm0 0" fill="#ada8ad"/><path d="m123.05 36.62c.13-.52.26-.91.13-1.44 1.04-.26 1.95-.52 2.73-.65-.25.39-.52.78-1.04 1.18h-.13v.13c-.4.26-1.04.52-1.7.78zm0 0" fill="#423d37"/><path d="m106.1 38.32c-1.03 0-1.82 0-2.73-.13-3.26 0-7.82 0-11.86-.52 1.04-.79 2.08-1.44 2.87-2.1 4.17.4 8.6.53 11.85.53h7.44a91.7 91.7 0 0 0 9.5-.92c.14.53 0 .92-.12 1.44h-.14c-3.64 1.18-10.94 1.7-16.8 1.7zm-24.75-4.57c-.13 0-.13-.14-.13-.27 0 0-2.1-2.22 8.6-10.33h.13c.9-.65 1.82-1.31 2.6-1.97-10.55 7.86-8.46 10.2-8.46 10.2 0 .14 0 .14.13.27-.92.66-1.83 1.44-2.87 2.1zm0 0" fill="#969094"/><path d="m91.51 37.67c-4.56-.4-8.73-1.57-10.16-3.92 1.04-.66 1.95-1.44 2.87-2.1 1.42 2.35 5.6 3.4 10.16 3.92-.79.66-1.83 1.31-2.87 2.1zm0 0" fill="#bdbab9"/><path d="m135.43 25.5h-.13zm-6-4.44c-1.3-.4-2.6-.52-3.77-.52h-1.31 1.3c1.17 0 2.48.12 3.78.52zm0 0" fill="#453d37"/><path d="m137.12 28.9c-.39-1.04-.91-2.1-1.69-3.26v-.14h-.13v-.13a12.35 12.35 0 0 0 -5.87-4.31c-1.3-.4-2.6-.52-3.77-.52h-1.31c0-.14.13-.27.13-.4.13-.53.4-.92.78-1.3a11.5 11.5 0 0 1 12.9 4.45 9.28 9.28 0 0 1 1.84 3.51zm0 0" fill="#ada8ad"/><path d="m139.99 26.8a9.28 9.28 0 0 0 -1.83-3.52 11.5 11.5 0 0 0 -12.9-4.45 7.3 7.3 0 0 1 2.61-2.1s1.56-.52 3.65-.52c2.73 0 6.64.92 9.51 4.85.26.39.4.65.65 1.05.52.78.91 1.7 1.18 2.6zm0 0" fill="#969094"/><path d="m154.71 13.47c0-.13-.12-.13-.26-.26.14.13.26.13.26.26zm0 0" fill="#453d37"/><path d="m113.66 36.1c4.7-.26 9.52-.66 12.25-1.57-.78.13-1.69.39-2.73.65-2.61.4-6.13.78-9.52.92zm12.39-1.7c.12 0 .25-.13.38-.13l.4-.13.13-.14.25-.13h.14l.26-.26c-.4.26-.92.53-1.56.78zm-41.96-3.01s-2.1-2.35 8.46-10.2c.13-.13.13-.13.26-.13v-.13a2178.6 2178.6 0 0 0 21.24-15.7s-10.29 7.72-21.24 15.7v.13c-10.81 7.98-8.71 10.33-8.71 10.33zm58.77-6.68 13.03-9.54zm-1.18-2.6c-.26-.4-.4-.66-.65-1.05.26.39.4.65.65 1.05zm-17.33-1.57c0-.14.13-.27.13-.4 0 .13-.13.26-.13.4zm31.54-5.37c-.27-.4-.4-.65-.66-.92-.25-.39-.52-.65-.78-1.04.14.13.26.13.26.26.4.65.79 1.18 1.18 1.7zm0 0" fill="#dfdcdc"/><path d="m4.46 123.72-.26-.26zm4.7-13.08c0-3.92 1.82-7.71 5.08-10.2a13.13 13.13 0 0 0 0 0 12.83 12.83 0 0 0 -5.08 10.2zm30.1-12.81v-.13zm0 0" fill="#453d37"/><path d="m5.9 125.43c-.52-.53-1.04-1.05-1.44-1.7l-.26-.27a22.1 22.1 0 0 1 -4.17-12.82c0-6.66 3-13.34 8.86-17.52a21.18 21.18 0 0 1 12.77-4.32c6.65 0 13.3 3.14 17.46 8.9h.14v.13c.52.65.9 1.3 1.3 2.1l-7.43 5.48c-.39-.78-.78-1.57-1.3-2.22a12.4 12.4 0 0 0 -10.17-5.1c-2.6 0-5.07.78-7.42 2.36a12.83 12.83 0 0 0 -5.08 10.2 12.2 12.2 0 0 0 4.17 9.28zm0 0" fill="#dfdcdc"/><path d="m125.26 24.07a4.59 4.59 0 0 1 -.91-3.14v1.18l.13.12v.27l.13.25.13.27v.13l.13.4.13.12c.13.13.13.26.26.4zm-.91-3.14v-.27-.12zm0 0" fill="#665f5a"/><path d="m125.91 34.53v-.14zm-1.56-13.87v-.12zm0 0" fill="#e4e2e2"/><path d="m108.97 36.1h-2.74 7.44zm-24.75-4.45c-.13-.13-.13-.13-.13-.26 0 .13 0 .13.13.26zm0 0" fill="#bab8ba"/><path d="m127.87 16.73s1.56-.52 3.65-.52c-2.09 0-3.65.53-3.65.53zm3.65-.52" fill="#bab8ba"/><path d="m125.26 24.07a5.08 5.08 0 0 1 -.91-3.41v.27c-.13.91.13 1.96.9 3.14zm29.2-10.86v-.13zm0-.13-.14-.13.13.13zm-40.4-7.85c.26-.13 7.68-5.23 17.2-5.23-9.52 0-16.94 5.1-17.2 5.23zm17.19-5.23" fill="#7f7874"/><path d="m108.97 36.1h-2.74c-3.25 0-7.68-.14-11.85-.53-4.56-.52-8.74-1.57-10.16-3.92-.13-.13-.13-.13-.13-.26 0 0-2.1-2.35 8.72-10.33v-.13a2178.6 2178.6 0 0 0 21.24-15.7c.27-.13 7.7-5.23 17.2-5.23 7.17 0 15.51 2.88 23.07 12.95l.13.13v.13c.26.4.53.65.78 1.04.27.27.4.53.66.92l-13.03 9.54a9.37 9.37 0 0 0 -1.18-2.6c-.26-.4-.4-.66-.65-1.05a11.5 11.5 0 0 0 -9.51-4.85c-2.09 0-3.65.53-3.65.53-.39.13-1.7.91-2.61 2.1-.39.38-.65.77-.78 1.3 0 .13-.13.26-.13.4v.12a5.08 5.08 0 0 0 .9 3.4c2.23 3.27 3.79 5.5 3.79 7.2 0 .92-.4 1.7-1.43 2.35l-.26.26h-.14l-.25.13-.14.14-.39.13c-.13 0-.26.12-.38.12h-.14v.14c-2.73.91-7.55 1.3-12.25 1.57h-4.7zm0 0" fill="#e9e8e8"/></svg>