<svg xmlns="http://www.w3.org/2000/svg" width="269" height="267" viewBox="0 0 202 200"><path d="M41 152h1c3 1 7 1 6-3 0 0 6 5 8 11 1 7-14-7-15-8zm0 0" fill="#f08518"/><path d="M52 155l-1-1-4-2 1-2 4 5zm0 0" fill="#da5824"/><path d="M93 156c-1-3-4-4-7-5h-6l-3 8-4 5-5 4-2 3-3-1v-1a10 10 0 0 0-1-2h-1v-3l-2-7-2-6-3-2-2-1-3-2h-3l2 4 4 5-1-1-4-2-3-1v1a37 37 0 0 0-2 0l-3-1-2 1 1 1 3 3 7 7 8 9 3 6 3 4 2 5 3 1h2l2 2 1 3 1-2v-2c2-2 1-5 0-7l-1-4 1-3 1-1 4-5 1-2 4-4a39 39 0 0 1 4-3l5-4h1zm0 0" fill="#e53324"/><path d="M61 164zm-2-7zm-12-11h1-1zm0 0" fill="#b05935"/><path d="M61 166l-1-1v-1l-3-6-5-3a3 3 0 0 1-1-1l1 1-4-5-2-3v-1h2c0 2 2 3 3 4h-1v1h1a73 73 0 0 0 3 3l-2 1h1l1-1 1 1 2 2h-1v1l1-1 2 2v-2l2 7v2zm0 0" fill="#a52826"/><path d="M78 155zm-41-3zm7 0v-1 1zm0-1zm0 0" fill="#b05935"/><path d="M72 193zm1 0l-2-3-2-4a3 3 0 0 1 1-1h3a2 2 0 0 0 0-1l-1-1v-2-1a8 8 0 0 0 0-1l-1-2-1-1-1-1-1-1v-1l3-1h2-1l2-3 1 1 1-1h-2l3-3 2-3 1 1-1-1h1l1-3h2a9 9 0 0 0-2-1v-1l-3-1v-2l10 4-1 1a39 39 0 0 0-4 3l-4 4-1 2-4 5-1 1-1 2v1l1 4 1 5-1 2a6 6 0 0 1 0 2v2zm-9-6l-2-3 1 2 1 1zm2-1h-2l3-4a6 6 0 0 0 0 1v2l-1 1zm-2 0l-1-1-3-8c-2-5-3-10-7-14l-8-8v-1 1l-1-3v-1 1l3 4 2 2 2 3h1l3 3h-1 1a34 34 0 0 1 3 4v1a21 21 0 0 1 2 4h-1 1l2 5a4 4 0 0 1-1 0h1v2h-1 1a4 4 0 0 0 2 1l2 1-2 4zm5-1v-1a21 21 0 0 1-1-2v-1l1 3h1a2 2 0 0 0-1 1zm-2-4v-1l1 1a3 3 0 0 0-1 0zm-10-9l-5-7-5-4-5-5c-1-1-4-3-4-5h1l2 2 1 1h-1v1l1-1 2 3h1l2 2v1h-1 1l3 2-2-3-1-1c3 3 9 8 10 14zm-20-20l1-1-1 1zm0 0" fill="#a52826"/><path d="M72 193h0zm0 0" fill="#b05935"/><path d="M72 193l-1-3-2-2h-2l-3-1-1-1a7 7 0 0 1 0-1l1 1h2l1-1v-2-1h1l1 2v1l-1 2h1v-1l2 4 2 3h-1zm-4-12zm0 0" fill="#742721"/><path d="M62 184a81 81 0 0 0 0-2l-3-4-3-6-8-9-7-7-3-3 3 3 7 7 8 9 3 6 3 4v2zm0 0" fill="#b05935"/><path d="M47 158l-2-3 2 3zm-9-7zm0 0" fill="#a52826"/><path d="M62 184a81 81 0 0 0 0-2l-3-4-3-6-8-9-7-7-3-3-1-1 1 1 3 3 7 7 8 9 3 6 3 4v2zm0 0" fill="#7a3123"/><path d="M63 186l-1-2a81 81 0 0 0 0-2l-3-4-3-6-8-9-7-7-3-3-1-1 1-1c0 2 3 4 4 5l5 5 5 4 5 7c-1-6-7-11-10-14l-2-3v-1 1l8 8c4 4 5 9 7 14l3 8v1zm0 0" fill="#742721"/><path d="M63 186v-1 1zm0 0" fill="#502a26"/><path d="M70 185v-1a3 3 0 0 1 1 0h2v1a3 3 0 0 0-1-1l-2 1zm0 0" fill="#d32326"/><path d="M69 186v-1l1-1v1l-1 1zm4-1v-1 1zm0 0" fill="#942824"/><path d="M69 187h-1l1-2v2zm0 0" fill="#682722"/><path d="M66 182l1-1-1 1zm0 0" fill="#d32326"/><path d="M64 186l2-4 1-1h1l-1 1-3 4zm0 0" fill="#942824"/><path d="M68 181a6 6 0 0 1 4-1v1h-4zm0 0" fill="#d32326"/><path d="M68 182a9 9 0 0 1 0-1 4 4 0 0 0 0 1zm4-1v-1 1zm0 0" fill="#942824"/><path d="M64 186zm3-4l1-1v1h-1zm0 0" fill="#682722"/><path d="M63 180h-1l9-3-4 2-4 1zm0 0" fill="#d32326"/><path d="M62 180h-1 1zm9-3zm0 0" fill="#942824"/><path d="M62 178l3-3-3 3zm0 0" fill="#d32326"/><path d="M61 178a4 4 0 0 0 1 0 2 2 0 0 1-1 0zm0 0" fill="#942824"/><path d="M69 175l-4-4 3 3 1 1zm0 0" fill="#d32326"/><path d="M69 175l-1-1 1 1zm0 0" fill="#942824"/><path d="M72 172l-4-4h1a67 67 0 0 0 3 4zm0 0" fill="#d32326"/><path d="M72 172h1zm0 0" fill="#942824"/><path d="M74 169l-1-1-2-2 2 2 1 1zm0 0" fill="#d32326"/><path d="M75 170l-1-1h2l-1 1zm0 0" fill="#942824"/><path d="M77 166l-3-2 3 2zm0 0" fill="#d32326"/><path d="M77 166zm0 0" fill="#942824"/><path d="M79 163l-3-2 3 2zm0 0" fill="#d32326"/><path d="M80 164l-1-1 1 1zm0 0" fill="#942824"/><path d="M81 160a110 110 0 0 1-3-2l3 1v1zm0 0" fill="#d32326"/><path d="M83 160h-2v-1l2 1zm0 0" fill="#942824"/><path d="M62 167h-1 1zm0 0" fill="#dd5824"/><path d="M67 175c-2 0-3-2-3-3l-1-2-1 2a4 4 0 0 1-2 1l2-1 1-2a123 123 0 0 1-2-3l-1 1-2 1a1 1 0 0 1 0-1 3 3 0 0 0 2-1v-1-1l-2-5-1 3-2 1 2-2v-3l-3-2v2c-1 1-1 2-3 2l2-2 1-2-2-2 2 1 3 3 3 5v1l1 2h1a155 155 0 0 1 1 3l4 5zm0 0" fill="#d32326"/><path d="M60 165v-1l-3-5-3-3-2-1 5 3 3 6v1zm0 8h-1 1zm-2-4v-1 1zm-3-5h-1 1zm-4-3zm0 0" fill="#942824"/><path d="M49 158l1-1 1-1-2 2zm0 0" fill="#d32326"/><path d="M49 158zm0 0" fill="#942824"/><path d="M47 155l1-2c1 1-1 2-1 2zm-5-1l1-1-1 1zm0 0" fill="#d32326"/><path d="M41 155v-1h1a2 2 0 0 1-1 1zm0 0" fill="#942824"/><path d="M45 157h-1l1-1h1l-1 1zm0 0" fill="#d32326"/><path d="M44 157h1-1zm0 0" fill="#942824"/><path d="M47 160v-1h1l-1 1zm0 0" fill="#d32326"/><path d="M46 160h0zm2-1zm0 0" fill="#942824"/><path d="M51 151a1 1 0 0 0 0-1l2-1-2 2zm0 0" fill="#d32326"/><path d="M51 151h-1v-1h1a1 1 0 0 1 0 1zm0 0" fill="#942824"/><path d="M54 154a11 11 0 0 0 2-2h1a4 4 0 0 1-3 2zm0 0" fill="#d32326"/><path d="M53 155h-1l2-1a4 4 0 0 1-1 1zm0 0" fill="#942824"/><path d="M57 157l1-1-1 1zm0 0" fill="#d32326"/><path d="M56 158v-1h1l-1 1zm0 0" fill="#942824"/><path d="M66 175l-4-7-4-6c-2-6-8-8-13-10l8 5 5 6 3 6c2 2 2 5 4 6h1zm12-17c0 2-3 4-5 6l-3 4c-1 1-2 3-4 3v1l4-3 4-4 5-7h-1zm-22-7l-2-2-5-3 6 5 4 7c-1-3-1-5-3-7zm16 29l-2-4h-1c2 2 2 4 2 5l1 4h1l-1-5zm0 0" fill="#f59d0e"/><path d="M107 184s3 0 4 3l-2 6s-2 1 3 2c5 0 4 3 4 3 0 1 3-2 10-2 8 0 12-1 11-6s-10-4-15-5c-5 0-10-3-15-1zm0 0" fill="#f08518"/><path d="M115 195zm-4-9l-1-1 1 1zm0 0" fill="#e0b5a0"/><path d="M115 195h-3-1l7-1h2a44 44 0 0 0 1 0l-3 1h-3zm-1-5l3-1v-1l-5-2h-1l-1-1h1l7 2 3 2h-1-2l-4 1zm0 0" fill="#da5824"/><path d="M146 187l-3-4-2-1v-1-4l1-5c2-1 1-2-1-4l-2-1-1-3-2-5h-1c-1-2-4-1-6 0-2 0-6 1-5 3v1c3 2 6 4 8 8l1 10-3 3h-5l-8-2c-4-1-8-2-11 2h-1l1 1h4c3 0 5 0 8 2l3 2h-1l-8 2c-1 0-6 2-6 4h3l9-1h6-3l-3 1-2 2c-2 0-3 2-2 3l3-1h2l3-1h7c4 0 7-2 10-4l2-3 1-3h4v-1zm0 0" fill="#e53324"/><path d="M118 189h0zm0 0" fill="#982e25"/><path d="M106 184zm0 0" fill="#b05935"/><path d="M125 189h-1a1 1 0 0 0-1 0h-1a26 26 0 0 0-3 0h-1 3l-3-2-7-2h-4-1l-1-1h1v-1h5v0l5 1h1l-1 2 1-2 5 2-1 2 2-2 1 1h3v2l1-2h1c-1 1-1 2-3 2h-1zm0 0" fill="#a52826"/><path d="M106 195v-1 1zm0 0" fill="#b05935"/><path d="M107 196l-1-1v-1h2l5-1v0a43 43 0 0 1 6-1v2l1-2 4 1v1l1-1 3-1v0h2a9 9 0 0 0 1 0l1 1h-4a200 200 0 0 1-8 1h-2l-7 1h-2l-2 1zm25-3v-2l3-2v1l-1 2h-1l-1 1zm11-9c-2-1-4-3-4-5h1v-1l-1 1 1-4v-1h1a3 3 0 0 0-1-1l1-2 2-1-1 2-1 2v8l2 1v1zm0 0" fill="#a52826"/><path d="M133 178l-1-7a8 8 0 0 0-1-2l1 2 1 7zm0 0" fill="#b05935"/><path d="M130 185l-1-1h1l3-3v-3l-1-7a25 25 0 0 0-1-2l1 1 1 3 1 3v2h-1l1 1-1 3-1 1-1 2h-1zm0 0" fill="#a52826"/><path d="M141 169v-1zm-12-1l-2-3a29 29 0 0 1 2 3zm0 0" fill="#b05935"/><path d="M141 169l-3-2-1-1h1-1l-2-2v2l-3-2v2l-1 1-2-1v2a29 29 0 0 0-2-3l-1-1 4 1h1l-1-1v-2l3 2v-1-1h2l2 1 1 1 1 3 2 1v1zm-9-2a10 10 0 0 1-1 0h1zm0 0" fill="#a52826"/><path d="M115 200l2-1h2l3-1a67 67 0 0 1 5 0 34 34 0 0 1 3 0c3 0 7-2 9-4l2-3 1-3h3-3l-1 3a10 10 0 0 1-2 3c-2 2-6 4-9 4h-8l-3 1h-2l-2 1zm-1-1zm0 0" fill="#b05935"/><path d="M115 200h-1a2 2 0 0 1 0-1v-1h2l4-1h1l1 1v-1l3-1h3v0a22 22 0 0 0 6-1 7 7 0 0 1-1 2l1-2 3-2 1-1v0l2-4 1 1-1-2 1-2 1 1 2 1h1l1-1v2h-4l-1 3a10 10 0 0 1-2 3c-2 2-6 4-9 4h-8l-3 1h-2l-2 1zm0 0" fill="#a52826"/><path d="M111 183l-1-1v-1h1v2zm0 0" fill="#d32326"/><path d="M111 184v-1 1zm0 0" fill="#942824"/><path d="M117 184l-1-2 1 2zm0 0" fill="#d32326"/><path d="M116 186l1-2-1 2zm0 0" fill="#942824"/><path d="M123 186h-1v-3l1 3zm0 0" fill="#d32326"/><path d="M121 188l1-2h1l-2 2zm0 0" fill="#942824"/><path d="M127 187v-2l1 2h-1zm0 0" fill="#d32326"/><path d="M127 189v-1-1h1l-1 2zm0 0" fill="#942824"/><path d="M113 193v-1l-2-1h1l1 1v1zm0 0" fill="#d32326"/><path d="M113 194v-1 1zm0 0" fill="#942824"/><path d="M120 192h-1l-1-2v-1l2 3zm0 0" fill="#d32326"/><path d="M119 194v-2h1l-1 2zm0 0" fill="#942824"/><path d="M125 193h-1l-1-4h1l1 4zm0 0" fill="#d32326"/><path d="M124 189h-1 1zm0 5v-1h1l-1 1zm0 0" fill="#942824"/><path d="M128 192l-2-2v-1l2 3zm0 0" fill="#d32326"/><path d="M128 193a19 19 0 0 1 0-1v1zm0 0" fill="#942824"/><path d="M132 193zm-1-1c0-2-1-3-2-3l3 2-1 1zm0 0" fill="#d32326"/><path d="M132 193h-1v-1l1-1v2zm0 0" fill="#942824"/><path d="M121 197a3 3 0 0 0 0-1l-2-1h2l1 2h-1zm0 0" fill="#d32326"/><path d="M122 198l-1-1h1v1zm0 0" fill="#942824"/><path d="M128 196l-1-2h-1 1l1 2zm0 0" fill="#d32326"/><path d="M128 198v-2 2zm0 0" fill="#942824"/><path d="M134 195l-1-2 1 2zm0 0" fill="#d32326"/><path d="M133 197a7 7 0 0 0 1-2l-1 2zm0 0" fill="#942824"/><path d="M138 192l-2-1h-1l1-1 2 2zm0 0" fill="#d32326"/><path d="M138 194v-2 2zm0 0" fill="#942824"/><path d="M136 190c-2-2-3-3-6-3v-1h1c2 0 4 2 5 4zm4-2a4 4 0 0 0-1-2l-2-1-3-1a6 6 0 0 0-2 0 6 6 0 0 1 3 0 7 7 0 0 1 5 2v2zm0 0" fill="#d32326"/><path d="M141 189l-1-1v-1l1 2zm0 0" fill="#942824"/><path d="M143 184a10 10 0 0 0-10-2l3-1 2 1 5 2zm-6-5h-3v-1l2 1h3-2zm0 0" fill="#d32326"/><path d="M139 179l1-1v1h-1zm-5 0l-1-1h1v1zm0 0" fill="#942824"/><path d="M134 175v-1l4-1a7 7 0 0 1 2 0v1h-3l-3 1zm0 0" fill="#d32326"/><path d="M140 174v-1l1 1zm0 0" fill="#942824"/><path d="M133 171h-1l7-2v1l-6 1zm-3-4h0zm2 0v-1h2l-2 1zm0 0" fill="#d32326"/><path d="M131 167l1-1v1h-1zm7-1h-1 1zm-3 0zm0 0" fill="#942824"/><path d="M129 188l-5 2-5-1c-4 0-7 2-11 4l6-2a16 16 0 0 1 6-1h6l3-2zm6-8l-2 2-1 1a11 11 0 0 1-2 4l3-3 2-4zm0-4l-1-5c0-2-3-3-4-5v1c1 1 3 2 3 4l1 4v4h1v-3zm1 13l-4 4-7 1h-6l-4 4a26 26 0 0 1 2-2l3-1 7-1h5l3-4 1-1zm-6-4l-6-1-6-2c-4-1-8-2-11 0v1c4-2 8-1 12 0l5 2h6zm15 1l-3-3-3-3 2 3 2 1 2 2zm0 0" fill="#f59d0e"/><path d="M200 121c0-1-2-4-4-3l-2 2v3c1-1 1-2 2-1l1 1-4 2h-1l-5-2-3-3a9 9 0 0 0-1 0l8-5a75 75 0 0 0 5-4l3-2-5-2-5-1-7-3 3-2v-1h-6l-3-1-12-7-7-4-7-5-14-9c-7-5-10-8-18-7l-11 2-10 2-4 1h-5l-1-2-3-2c-2-4 2-7 4-9l7-7 5-8a46 46 0 0 0 2-2v-2 1a5 5 0 0 0 1-2v2l1-4 1-3-2-11A34 34 0 0 0 86 3l-7-2h-4l1-1a12 12 0 0 0-11 3h1l1-2V0v1h-1c-6 0-12 4-16 8s-6 8-7 13a28 28 0 0 0 8 29l4 4 4 3v5l-1 2-1 2a38 38 0 0 1-6 6 118 118 0 0 0-15 13l-3 3-3 9a53 53 0 0 0 12 28l10 10a100 100 0 0 0 72 28 21 21 0 0 1 3 3v-1l-1-2 4 1h1l-1-1v-2l3 2v-1-1h6l-1-1h6l8-2c5-1 9-4 14-7l15-7 14-8 2-2v-1l-5-1 5-2c2-1 3-2 3-4l2-2-2-4zm0 0" fill="#e7e1d4"/><path d="M148 140h-2l-4-2a53 53 0 0 1-5-2h2l3-1 3-1 2-1h1l2 1 3 1 5-1 5-1v1c-4 3-10 6-15 6zm0 0" fill="#423934"/><path d="M192 139a67 67 0 0 0 3-2 65 65 0 0 1-3 2zm-8-19zm0 0" fill="#483e3b"/><path d="M43 79l1-1-1 1zm0 0" fill="#f2eee2"/><path d="M125 163l-10-5-10-2c4 2 9 2 12 5v1h-1l-6-1h-7a77 77 0 0 1-13-3 84 84 0 0 1-13-4l-2-1a113 113 0 0 1-11-7h3l-4-6 2 1-2-6-2-7 6 8c13 14 25 16 45 18 5 0 12 0 17 3v-3l3 3h1l1-8c3 2 7 3 10 3l7-1c6-1 12-3 17-7l-12-1c-4 0-7-1-11-3h1a30 30 0 0 0 8 1h2a50 50 0 0 0 4 0 23 23 0 0 0 4-1l3-1 8 1h3l-7 1 3 1 4-1h4c-4 4-9 6-14 8l-8 3-7 2h5a26 26 0 0 1-16 6l-5-2-2-4 1 7h1l-1 1-5-2v2l-3-2 1 3-4-2 1 2h-1zm0 0" fill="#dacfb5"/><path d="M183 103zm-2-3h-1 1zm-73-31h2-2zm0 0" fill="#f2eee2"/><path d="M127 137h-2c-4 0-8-3-13-4v3c-5-2-11-2-15-6-4-2-8-5-9-10v4c-11-2-14-15-15-24v-1l-3 3 1-4v-1l-1 1 1-2h-5l8-2-3-2 3-1-3-1c2-2 4-2 6-2v1l1-1v3a20 20 0 0 0 2-3h1l-3 6 5-4v1l-3 5-2 6 1 1c1 5 5 8 9 11l1-2a33 33 0 0 0 17 14v-1-1l4 3a35 35 0 0 0 15 4h5l2-1-4 1 9 5-10 1zm28-10h-2a22 22 0 0 0-2 0l-3-4-4-5-4-4-3-3-5-3a145 145 0 0 0-15-1h-1l8 1 8 3 5 5 2 6h-8l-7-2 2 3-6-1c1 0 2 1 2 3 1 0 0 0 0 0l-6-2-5-2c-4-1-7-3-10-6h1l2-1a15 15 0 0 0 2 0h-1a9 9 0 0 0 2-1l-6-1-5-2-7-9c-1-2-3-5-1-6l8-1-4-3 4-1-7-3 4-4 5-2-4-2 4-2a65 65 0 0 1-3 0v-1l14-7h-1a73 73 0 0 1 2 0v-1a49 49 0 0 0-4 2l-8 6c-2 1 5 3 8 4h-2c-3 0-10 3-9 6 0 4 9 9 12 10l-9-3h-1l4 4-4-1a6 6 0 0 0-1 0h-2c-2 2 1 6 2 7 2 3 4 6 7 7h3l6-1h1l1-1-8-5h1l9 2 10 1 10 2 7 1h3c-3-5-6-9-11-11 3 0 5 1 7 3l7 4c3 2 6 2 9 2h10v-1l-5-5h1a6 6 0 0 0-1-1l9 2 8-2h2v1l-6 3h-3l-6-1 5 3-6 3h-1l-1 1h-1l-3-1h-1l-5 1h-4 2l13 1 6 2 4 2v1l-5 3-4 3a21 21 0 0 1-7 0h-3 3a37 37 0 0 0 2 1l-4 2h-4 1l3 2h-2zm26-11l-12-6 2-1 4-2a41 41 0 0 0 5-2l-4 4v1l6 1 5 1a8 8 0 0 0 1 0 9 9 0 0 0 3-1l-4 1h-3-1l3 1v1l-4 1a6 6 0 0 1-1 0v1zm18-7h-1 1zm-43-12a26 26 0 0 0-1 0l-3-1 4 1zM77 87l-3-1h1l2 1zm0 0" fill="#dacfb5"/><path d="M156 141h4a50 50 0 0 1-4 0zm-6 0a30 30 0 0 1-4-1h2c5 0 11-3 15-6v-1h-1l-4 1-5 1a10 10 0 0 1-3-1l-2-1h-1l-2 1-3 1-3 1h-2l-9-5 4-1h12l2-1a6 6 0 0 1 2 0l4 1h4l4-1 6-3h1l8 3h0l-11 8-14 4zm-7-10v1l7 1 3 1h3l14-2 3-1-16 1h-2l-12-1zm20-2h-1l-4 1 5 1 11-1h-2l-5-1h-4zm12 0zm-9-2l-2 1 9 1a47 47 0 0 0 2 0l-9-2zm-2 13a18 18 0 0 0 6-2l4-4 4-1a91 91 0 0 1 10 0h1-6l-8 1v1l8-1h5v1l-5-1-10 2v1l14-2h1c-2 3-6 4-10 5h-3l-8-1-3 1zm0 0" fill="#3f362f"/><path d="M127 167a21 21 0 0 0-3-3 21 21 0 0 1 3 3zm-49-12l-3-2 3 2zm0 0" fill="#e9dec9"/><path d="M88 159l-10-4a86 86 0 0 0 10 4zm0 0" fill="#962825"/><path d="M127 167zm0 0" fill="#d1c09f"/><path d="M127 167a21 21 0 0 0-3-3 169 169 0 0 1-36-5 86 86 0 0 1-10-4l-3-2 2 1a84 84 0 0 0 13 4 77 77 0 0 0 13 3h7l6 1h1v-1c-3-3-8-3-12-5l10 2 10 5h1l-1-2 4 2-1-3 3 2v-2l5 2 1-1h-1l-1-7 2 4 5 2h2c5-1 10-3 14-6h-5l7-2 8-3c5-2 10-4 14-8h-4l-4 1-3-1 7-1h5l4 1h3l2-2-11 6-15 7c-5 3-9 6-14 7a61 61 0 0 1-14 2l1 1-2 1a37 37 0 0 1-2-1h-2v2l-3-2v2l1 1h-1l-4-1 1 2zm0 0" fill="#c4ae86"/><path d="M178 140c4-1 8-2 10-5h2-2v-1h5l-4 3 1 1-4 1-7 1h1-2zm14-1zm1-5l-4-1h-1l5 1zm0 0" fill="#3a322b"/><path d="M180 120h2a21 21 0 0 0-2 0zm0 0" fill="#c4ae86"/><path d="M193 133a72 72 0 0 0-15-2l3-2-5-2-5-1v-1a75 75 0 0 1 9-5 21 21 0 0 1 2 0 8 8 0 0 1 2 0l3 3 5 2 5-2-1-1h-1l-1 1a2 2 0 0 1 0-1v-2l2-2h1l3 3 2 3v1l-2 2c0 2-1 3-3 4l-5 2h1zm-12-12c-2 0-4 1-3 2l11 4h1c1 0 5-1 7-3l1-1c-2 2-5 3-8 3h-1l-3-2-4-3h-1zm16-2l1 1 3 3v1c0-2-2-4-3-5l-1-1-2 3 1-1 1-1zm0 0" fill="#3a322b"/><path d="M154 125a9 9 0 0 1-1 0h1zm7-2a37 37 0 0 1-2-1l2 1zm14-8zm-71-1h2a15 15 0 0 1-2 0zm82-2h-2 2zm0 0" fill="#c4ae86"/><path d="M196 111l2-1h1l-3 1zm0 0" fill="#e9dec9"/><path d="M153 110h-3 4-1zm0 0" fill="#c4ae86"/><path d="M181 104l1-1-1 1zm0 0" fill="#d1c09f"/><path d="M182 103zM97 71l4-1-4 1zm0 0" fill="#e9dec9"/><path d="M164 140a18 18 0 0 0 6-2l4-4 4-1-4 1-4 4a18 18 0 0 1-6 2zm0 0" fill="#3a322b"/><path d="M192 139zm0 0" fill="#423832"/><path d="M197 134l-4-1h1l3 1zm0 0" fill="#e9dec9"/><path d="M125 130c-4 0-9-1-13-3l-5-5-3-4 1 5h-1c-3-1-7-4-9-7l9-2-2 1h-1c3 3 6 5 10 6l5 2 6 2s1 0 0 0c0-2-1-3-2-3l6 1-2-3 7 2h8l-2-6-5-5-8-3-8-1h10l6 1 5 3 3 3 4 4 4 5 3 4h6l-3-2 7 1v1h-1l-5 1h-1l-5-1-3-3-3-5c-2-4-5-7-8-8-2-2-5-2-7-3h-2l10 4 6 6c2 3 2 6 2 10l-5 1-3-1-6-4 5 5h-1-3l-3-2-3-2-3-2c2 2 5 4 5 7h-2zm35-4l-7-1h4l4-2 6 1a16 16 0 0 1-7 2zm7-3l-10-1h2-3 3a47 47 0 0 0 7 0l4-3 5-3v-1l3 3-9 5h-2zm0 0" fill="#c4ae86"/><path d="M184 121v-1zm0 0" fill="#e9dec9"/><path d="M180 105v-1h1l-1 1zm0 0" fill="#d1c09f"/><path d="M183 117a9 9 0 0 1-3-1l-6-3-6-3 8-3 4-3v1a41 41 0 0 1-5 2l-4 2-2 1 12 6v-1a6 6 0 0 0 1 0l4-1v-1l-3-1h1l5 2v1l-5 2h-1zm-8-2l-4-2-6-2-13-1h1l13 1a19 19 0 0 1 9 4zm0 0" fill="#c4ae86"/><path d="M107 69h1-1zm0 0" fill="#e9dec9"/><path d="M107 69h1a8 8 0 0 1-1 0zm0 0" fill="#dcccab"/><path d="M98 115l-4-1c-5-2-5-8-7-12a31 31 0 0 1 0 9c-3-3-7-7-7-12l3-6 4-5-4 1h-1c2-3 5-6 8-6h1l-3-2v-2l2-1 2 1h1l-1-2-1-1 2-2 3-1 3-2 2-1a270 270 0 0 1 7-1h1l-14 7v1h3l-4 2 4 2-5 2-4 4 7 3-4 1 4 3-8 1c-2 1 0 4 1 6l7 9 5 2 6 1a9 9 0 0 1-2 1 35 35 0 0 1-4 1h-3zm0 0" fill="#c4ae86"/><path d="M196 108h-1 1zm0 0" fill="#e9dec9"/><path d="M191 111a22 22 0 0 0 4-3h1a16 16 0 0 0-1 0l-4 3zm0 0" fill="#d1c09f"/><path d="M190 113h-1l-3-1h1l4-1 4-3 3 1h1l-1 1-4 2-4 1zm0 0" fill="#c4ae86"/><path d="M182 100h-1 2-1zm0 0" fill="#e9dec9"/><path d="M182 104l1-1h-1v1zm1-4zm0 0zm0 0" fill="#d1c09f"/><path d="M182 100h-1 2-1zm1 0zm0 0" fill="#dcccab"/><path d="M164 110h-10l5-1h1l3 1h1l1-1h1l6-3-5-3 6 1h3l6-3v-1a12 12 0 0 0-1 0h4v1l-2 2-1 1-3 1h-9l3 1c1 0 1 0 0 0l-5 3-4 1zm0 0" fill="#c4ae86"/><path d="M180 104h2v-1l-1 1h-1zm0 0" fill="#bca375"/><path d="M154 141h0zm6 0l4-1-4 1zm27 0l-4-1h-3 8l4-1-2 2h-3zm-62-10h-3l-12-4-4-3v2l-10-5-7-9-1 2c-4-3-8-6-9-11l-1-1 2-6 3-5v-1l-5 4 3-6h-1a20 20 0 0 1-2 3v-3l-1-1-2-1h3l-3-2a30 30 0 0 1 14-2l-3-3 5-1a26 26 0 0 0-3-2h-1l7-4 3-1 4-1-2 1-3 2-3 1-2 2 1 1 1 2h-1l-2-1-2 1v2l3 2h-1c-3 0-6 3-8 6h1l4-1a22 22 0 0 0-7 11c0 5 4 9 7 12h1l-1-9c2 4 2 10 7 12l4 1h3a35 35 0 0 0 4-1h-1l-9 2c2 3 6 6 9 7h1l-1-5 3 4 5 5c4 2 9 3 13 3h2c0-3-3-5-5-7l3 2 3 2 3 2h4l-5-5 6 4 3 1 5-1c0-4 0-7-2-10l-6-6-10-4h2a22 22 0 0 1 15 11l3 5 3 3 5 1h1l5-1h1v-1l-7-1h-1l7 1 7-2a52 52 0 0 1-6-1l-2-1a11 11 0 0 1-2 0l10 1h2l9-5-3-3a40 40 0 0 0-2-1 19 19 0 0 0-7-3l-13-1h7a33 33 0 0 1 4 0l4-1 5-3c1 0 1 0 0 0l-3-1h9l3-1h-2l-4 3-8 3 6 3 6 3a9 9 0 0 0 3 1h1l5-2v-1l-5-2h2l3 1h1l4-1 4-2-2 1a75 75 0 0 1-5 4l-8 5h1a5 5 0 0 0-1 0h-3l-6 3-4 2h-2l-9 4-4 1a8 8 0 0 1-1-1l-6-1a20 20 0 0 1-10 2h-1-5l-2 1h-5zm0 0" fill="#b09562"/><path d="M154 141a28 28 0 0 1-4 0l14-4 11-8h0l-8-3h-1l-6 3a17 17 0 0 1-4 1 8 8 0 0 1-1 0h-3l-4-1h-2l-2 1h-12 9l7-2 6 1 1 1 4-1 9-4h2l4-2 6-3-1 1a75 75 0 0 0-8 5l5 1 5 2-3 2v1a59 59 0 0 1 3 0 72 72 0 0 1 16 2l1 1h-1l-2 2a67 67 0 0 1-3 2l-4 1h-8-1l7-1 4-1-1-1 4-3 1 1v-1a7 7 0 0 0-1 0l-5-1h-10l-4 1-4 4a18 18 0 0 1-6 2l-4 1h-4-2zm30-21a8 8 0 0 0-2 0h2zm0 0" fill="#362f28"/><path d="M77 89v-1h1l-1 1zm0 0" fill="#b09562"/><path d="M36 86zm0 0" fill="#d1bd96"/><path d="M93 72h0zm0 0" fill="#b09562"/><path d="M103 23A34 34 0 0 0 86 3l-7-2h-4l1-1a12 12 0 0 0-11 3h1l1-2V0v1h-1c-6 0-12 4-16 8s-6 8-7 13a28 28 0 0 0 8 29l4 4 4 3v5l-1 2-1 2a38 38 0 0 1-6 6 118 118 0 0 0-15 13l-3 3-3 9a53 53 0 0 0 12 28l10 10a141 141 0 0 0 12 10h3l-4-6 2 1-2-6-2-7 3 1-2-3s0-1 0 0l3 1c-1-3-3-7-6-9h1l4 1-2-3 3 1-1-4-3-3v-1l3 1-2-2v-1h4l-5-6h7l-3-2 3-1-3-1c-1 0-1 0 0 0 2-2 6-3 9-3l-3-2 3-1-3-1c-1 0-1 0 0 0 2-2 5-2 7-2l-4-2h4l-3-2c4-2 9-3 14-2l-3-3 5-1a26 26 0 0 0-3-2h-1l7-4h-6l-1-2-3-2c-2-4 2-7 4-9l7-7 5-8a46 46 0 0 0 2-2v-2 1a5 5 0 0 0 1-2v2l1-4 1-3-2-11zm0 0" fill="#9b532f"/><path d="M67 146a9 9 0 0 1-1 0l-10-8c-6-6-11-13-15-21a32 32 0 0 1-1-27 26 26 0 0 1 1-2l2-1h1l1 4 4-7h1v1l4-4h1l-1 3 4-4a15 15 0 0 1 1-1l-5 10-1-4-5 12-1-2c-2 2-2 4-2 7l-2-2v8l3 7h1l-1-3 9 8h1c-2-3-4-7-4-10l5 3v-1l-2-9 5 3v-1l-2-8 4 2-1-5h6a15 15 0 0 0-2-3l4-2a3 3 0 0 1-1 0l4-2c1-1-1-2-2-2 3-3 8-4 13-4l-5-3h6v-1a16 16 0 0 0-4-1l2-1-1-1 3-1-4 1h-1-1l-2 2h-1a23 23 0 0 0 0-1l2-3a2 2 0 0 1 1 0l3 1c0-1 1-2 3-2l4 2c1 0 0 0 0 0l-5 4h2l5 1h1l-5 1 3 3a19 19 0 0 0-3-1 30 30 0 0 0-11 3l3 2h-4l4 2h-1c-2 0-4 0-6 2l3 1-3 1 3 2c-3 0-7 1-9 3h-1 1l3 1-3 1 3 2a16 16 0 0 1-3 0h-4l5 6h-4v1l2 2-3-1v1l3 3 1 3v1l-3-1 2 3-4-1h-1c3 2 5 6 6 9l-3-1 2 3a91 91 0 0 1-3-1l2 7 2 6-2-1 4 6zm0 0" fill="#7d3d25"/><path d="M63 83l1-6 1 4c0-2 1-3 3-5v3l5-5a75 75 0 0 0-2 2l2-2h1l1 1-4 2-1 1-3 4v-4l-4 5zm0 0" fill="#7d3d25"/><path d="M66 146h-2a141 141 0 0 1-12-10l-10-10a53 53 0 0 1-11-24v1l1-3a22 22 0 0 1 5-8v3l2-4 2-3a26 26 0 0 0-1 3l-2 13c0 4 1 9 3 13a82 82 0 0 0 25 29zm24-68l-5-1h-2l5-4s1 0 0 0l-4-2c-2 0-3 1-3 2l-3-1a2 2 0 0 0-1 0l-2 3-1-1h-1l-2 2a75 75 0 0 1 2-2 35 35 0 0 1 2-2v2l2-3h1l2 1 2-2 2-1h1l2 1 1 2h5a22 22 0 0 1 1 0l-7 4h1l3 2h-1zm0 0" fill="#653326"/><path d="M32 100l4-8 1 1v2l2-4 4-4h1l1 4 4-7h1v1l4-4h1l-1 3 4-4 5-4 2 5c0-2 1-3 3-5v3l7-7v2l2-3c1-1 2 0 3 1 0-2 1-3 2-2l3-1-1-1c-2-4 2-7 4-9l7-7 5-8a46 46 0 0 0 2-2v-2 1a5 5 0 0 0 1-2v2l1-4 1-3-2-11A34 34 0 0 0 86 3l-7-2h-4l1-1a12 12 0 0 0-11 3h1l1-2V0v1h-1c-6 0-12 4-16 8s-6 8-7 13a28 28 0 0 0 8 29l4 4 4 3v5l-1 2-1 2a38 38 0 0 1-6 6 118 118 0 0 0-15 13l-3 3-3 9 1 5 1-3zm0 0" fill="#fafbfb"/><path d="M50 84v1l6-8h1v2l6-11 4-6 1-6c-4 1-6 4-9 6v1l-1 2-1 2a38 38 0 0 1-6 6 118 118 0 0 0-15 13l-3 3-3 9 1 5 1-3 4-8 1 1v2l2-4 4-4h1l1 4 4-7h1zm0 0" fill="#9fa69f"/><path d="M41 83l5-4-1 3c2-3 5-4 8-6l-2 3 18-10-2 4c2-3 4-4 6-5l2 3 2-6c-1 2 1 3 2 4l1-5 1 3 2-3 1 2c-1-2 2-5 4-7l7-7 5-8a46 46 0 0 0 2-2v-2 1a5 5 0 0 0 1-2v2l1-4 1-3-2-11A34 34 0 0 0 86 3l-7-2h-4l1-1a12 12 0 0 0-11 3h1l1-2V0v1h-1c-6 0-12 4-16 8s-6 8-7 13a28 28 0 0 0 8 29l4 4 4 3v5l-1 2-1 2a38 38 0 0 1-6 6 118 118 0 0 0-12 10l4-3-2 3zm0 0" fill="#188e56"/><path d="M41 83zm0 0" fill="#226138"/><path d="M39 83l4-3-4 3zm12-4a131 131 0 0 1 8-5l-8 5zm0 0" fill="#4b6b58"/><path d="M41 83l2-3-4 3 4-4a119 119 0 0 1 12-9l2-3 1-2 1-2-1 2-1 2a38 38 0 0 1-6 6l-4 2 7-4 5-5 3-4c2-3 4-6 8-6l4-1-2 1c-4 1-3 5-5 8s-4 7-8 10a131 131 0 0 0-8 5l2-3c-3 2-6 3-8 6l1-2v-1l-5 4zm10-4zm24-25l-3-1-6-1-4-2c-3-2-1-6-1-9 1-2 2-6-1-7l-7-2-2-1-1-3v-2l-3-4a21 21 0 0 1-1-1l-2-2a4 4 0 0 1 2 1l2 2 3 5v2l2 2h5c4 0 4-4 7-6l1-1v-2l1-8h-1l-3 3-2 5a13 13 0 0 1 3-10l-2 5-1 1 4-5 2-1h1l3 1s1 0 0 0v-1l-4-2h1c2 0 4 1 6 5h-3l1 3 2 2 1 1h2l4 2-6-1h-1a18 18 0 0 1 2 0h2l-3-1c-5 0-10 3-10 8l-1 2c0 4 1 8 4 11 2 3 6 4 10 5h4c5 0 10-1 14-4 0 3-2 5-5 6a42 42 0 0 1-2 1c-4 2-9 4-14 4zm0 0" fill="#226138"/><path d="M74 55l6-1-6 1zm0 0" fill="#235a34"/><path d="M47 75l4-2a60 60 0 0 0 6-6l1-2 1-2v-5l-4-3-4-4h3c1-1 3-1 3-3l1-2 1-3 1-5v-1-1l-6-3c-2 0-4 0-5-2l1-3 1 3 2 1 7 2c3 1 2 5 1 7 0 3-2 7 1 9l4 2a46 46 0 0 0 9 2c5 0 10-2 14-4l-6 3a106 106 0 0 1-3 1l-6 1-4 1c-4 0-6 3-8 6l-3 4-5 5-7 4zm3-49h-1l-2-4 3 4zm0 0" fill="#2a3f2d"/><path d="M64 12l1-2h2l-3 2zm0 0" fill="#26512f"/><path d="M61 18l1-1 2-5 3-2 4 2v1c1 0 0 0 0 0l-3-1h-1l-2 1-4 5zm0 0" fill="#2a3a2c"/><path d="M65 29c1-3 3-5 6-7a16 16 0 0 1 3 0c-4 1-8 3-9 7zm0 0" fill="#26512f"/><path d="M65 29c0-5 5-8 10-8l3 1h-4a16 16 0 0 0-3 0c-3 2-5 4-6 7zm0 0" fill="#2a3a2c"/><path d="M119 94l-10-4 3-1h2l2 1 3 4zm27-8h-3l-2-2-2-1h1l4 1 2 2zm15 15h-2c-2 0-4-2-5-4h1a48 48 0 0 1 8 4h-2zm2-1l-1-1-6-2c3 0 6 1 7 3zm0 0" fill="#d1c09f"/><path d="M163 101a28 28 0 0 0-2-1l-6-3h1l6 2 1 1 1 1h-1zm0 0" fill="#c4ae86"/><path d="M141 104l-5-2-3-1a7 7 0 0 1-1-2h3l3 1 3 4zm-6-9l-5-2h3l2 2zm0 0" fill="#d1c09f"/><path d="M60 36l-6-3c-2 0-4 0-5-2l1-3v-2h-1c0-2-2-3-3-5l-3-2-4 4-3 4-16 10-7 5-6 4-7 2 2 3c2 2 4 2 6 2 1 2 3 2 5 2h8c7-2 13-4 19-4h14c1-1 3-1 3-3l1-2 1-3 1-5v-2zm0 0" fill="#fab600"/><path d="M12 49a22 22 0 0 1-6-1v-1l4-1 5-3 11-7 6-4 5-2 4-6 1-4 5 6c1 2 0 4-1 7-1 1-3 3-5 3l-2-3-3-2-4 2-3 4v3c0 2 0 3-2 4l-4 2-4 2-7 1zm0 0" fill="#fbec42"/><path d="M6 46zm0 0" fill="#fcde38"/><path d="M7 47v-1H6 5h2l6-4 7-5 16-10 3-4 2-3h1l-5 7-3 3a199 199 0 0 0-7 4l-12 8-8 5zm0 0" fill="#fbec42"/><path d="M6 47h1l8-5 12-8a199 199 0 0 1 7-4l3-4 5-6-1 4-4 6-5 2a346 346 0 0 0-6 4l-11 7-5 3-4 1zm0 0" fill="#fefefe"/><path d="M5 53zm0 0" fill="#3d3633"/><path d="M2 51l-2-3 5-2v1l1 1-1 3-5-3 2 3zm0 0" fill="#3d3227"/><path d="M6 48l-1-1v-1h2v1H5h1v1zm0 0" fill="#3e3729"/><path d="M5 47h0zm0 0" fill="#3d3633"/><path d="M30 41l-1-1v-2l4-4 2-2 2 1 1 2v1l-2 1-4 1-2 3zm0-2a24 24 0 0 1 2-2l2-1h3l-1-3h-1a1 1 0 0 0-1 0l-2 2-2 3v1zM17 55l-3-1 29-6a37 37 0 0 0 8-3l1-1h4-1l-1-1h2c2 0 3-3 4-5v-3 3l-1 5 1-2-1 1-2 2-1 2-1 2c-3 2-6 2-9 2h-4l-8 1-14 3-3 1zm0 0" fill="#ea841b"/><path d="M10 53H7 6h1-2v-2h3l2 1 13-2 15-4c4 0 8-1 12-4v-3-2c0 1-1 3 1 5l-1 2-2 1-2 1-11 2-11 3a128 128 0 0 1-9 2h-5zm0 0" fill="#ea841b"/><path d="M5 53l-3-2-2-3 5 3v2zm0 0" fill="#3b2e26"/><path d="M54 43h-2 2zm0 0" fill="#ea841b"/><path d="M7 53zm0 0" fill="#eebf62"/><path d="M15 55h-2c-2 0-4 0-5-2l2 1 4-1 8-1a902 902 0 0 0 33-8h1-4l-1 1-3 1a37 37 0 0 1-5 2l-29 6 3 1 3-1 14-3 8-1h4c3 0 6 0 9-2l1-2 1-2 2-2 1-1-1 2-1 3-1 2c0 2-2 2-3 3h-3l-1 1-2-1h-8c-6 0-12 2-19 4h-6zm-5-2H7h8-5zm0 0" fill="#d95e25"/><path d="M7 53zm41-8l2-1h-1l-1 1zm0 0" fill="#d95e25"/><path d="M30 39v-1l2-3 2-2a1 1 0 0 1 1 0h1l1 3h-3l-2 1a24 24 0 0 0-2 2zm0 0" fill="#252422"/><path d="M8 54l-1-1h1zm0 0" fill="#e28f1d"/><path d="M54 43l-3-2-1-4 1 5 3 1zm0 0" fill="#dd6123"/><path d="M7 53a1 1 0 0 0-1 0h1zm8 0l9-2 11-3 11-2 2-1-6 2-13 3-14 3zm35-9l1-2c-2-2-1-4-1-5l1 4 3 2 1 1-1-1h-2l-1-1-1 2zm0 0" fill="#cf4826"/><path d="M8 54v-1a6 6 0 0 0-1 0h1zm0 0" fill="#d16426"/><path d="M10 54H8v-1H7h8l14-3 13-3 6-2 1-1h1l1-2 1 1-3 2-3 1-24 6-8 1-4 1zm45-10a6 6 0 0 1-1-1l1 1zm0 0" fill="#c13927"/><path d="M71 20c0-3-1-6-3-5l-1 5 1 3 4-1a6 6 0 0 0-1-2zm0 0" fill="#252422"/><path d="M69 16l1 2-1-2c0-1-1-1 0 0zm0 0" fill="#fefefe"/><path d="M53 9l10-7 4-1c-5 0-11 3-15 6-3 3-6 6-7 10l8-8zm20-9c-3 0-6 2-8 4 2-2 5-3 8-3zm20 8c-6-5-13-8-20-6h-1c7-1 14 2 20 7 6 4 10 14 12 21v-2c-1-7-6-15-11-20zM75 22c-4 0-8 3-4 4s8 0 9-2c1-1-3-2-5-2zm-8 4v0zm0 0" fill="#70b74d"/><path d="M53 39c-2 0-3 0-2-3 0-1 1-2 3-2l3 1c3 0 0 3-2 4h-2zm0 0" fill="#fbec42"/><path d="M99 45l-5 5-4 5-4 5c-2 1-2 3-3 5l8-10 4-4 4-6zm0 0" fill="#70b74d"/><path d="M160 91l-7-5-7-4-14-9c-5-3-9-5-14-5l-14 4v1l6-2h8c5 0 9 3 13 5l14 7 8 4 7 4s1 0 0 0zm-22 29l-2-5-2-2c-1-2-3-3-6-4l-7-1h-7c-1 0-1 0 0 0 4 1 9 1 13 3l6 3 5 6zm35-4c-1-2-3-3-5-3l-7-2-7 1-8-1v1l13 1 7 1 3 1 4 2v-1zm20-8l-10-4 10 5v-1zm0 0" fill="#fefefe"/><path d="M64 91c0-6 2-10 6-13v1l1-2a28 28 0 0 1 3-2v1l-6 6a21 21 0 0 0-4 9zm0 0" fill="#ca7d43"/><path d="M70 79v-1a10 10 0 0 1 1-1l-1 2zm0 0" fill="#b96536"/><path d="M62 93c0-3 0-7 3-10l-2 4a28 28 0 0 0-1 6zm5-6l6-9a20 20 0 0 1 2-2l1 1v-1a15 15 0 0 1 4-2h1a19 19 0 0 0-5 4l-9 9zm0 0" fill="#ca7d43"/><path d="M76 77a5 5 0 0 0-1-1h1v1zm5-3a5 5 0 0 0-1 0l4-1-3 1zm0 0" fill="#b96536"/><path d="M201 124v-1l-3-3-1-1-1 1-1 1 2-3 1 1c1 1 3 3 3 5zm-11 3h-1l-11-4c-1-1 1-2 3-2h1l4 3 3 2h1c3 0 6-1 8-3l-1 1c-2 2-6 3-7 3zm0 0" fill="#594e49"/><path d="M194 134c-6-1-13-2-19 0v1h19zm0 0" fill="#6d6461"/><path d="M173 137v-1l10-2 5 1h-1l-14 2zm0 0" fill="#564c47"/><path d="M190 135h-2 2zm0 0" fill="#544a45"/><path d="M175 129h-2l-9-1 2-1 9 2zm-12 2l-5-1 4-1h5l5 1h2l-11 1zm0 0" fill="#564c47"/><path d="M153 134l-3-1-7-1v-1l12 1h2l16-1-3 1-14 2h-3zm0 0" fill="#4e433d"/></svg>