<svg height="133pt" viewBox="0 0 366 133" width="488" xmlns="http://www.w3.org/2000/svg"><path d="m365.26 127.29c0 3.08-81.76 5.65-182.5 5.65-101 0-182.76-2.56-182.76-5.65 0-3.08 81.76-5.66 182.76-5.66 100.74 0 182.5 2.58 182.5 5.66zm0 0" fill="#eeedee"/><g fill-rule="evenodd"><path d="m39.73 108.27 295.54-1.55 6.41-48.06-316.82 1.55zm0 0" fill="#4e4a4a"/><path d="m353.21 70.74s-.76-27.5-20.5-29.81c-19.73-2.57-76.65-7.47-76.65-7.47s-1.02-.25-4.35-2.04c-15.91-12.08-42.81-31.36-63.57-31.36-5.9 0-103.3.5-137.14.76h-34.86s1.04 3.61 2.57 5.92c.77 1.03 3.84 3.6 6.41 5.66-7.18 10-18.46 31.1-18.46 31.1s-1.53 5.9-1.53 11.82c.25 5.65.25 28.02.25 28.02l36.14-.26s12.05-18 32.56-19.28c20.5-1.28 43.32 17.22 39.47 43.96l147.64-.52s-1.28-42.67 36.91-43.18c0 0 19.75-2.83 31.8 13.62h23.31zm0 0" fill="#aa5843"/><path d="m351.67 60.71c-1.53-5.66-4.61-12.58-10.24-16.45h-23.08c-.24 1.29-.24 2.57-.24 4.12 0 6.94 3.32 12.6 7.16 12.33zm0 0" fill="#fefefe"/><path d="m299.64 60.45c10.77-.24 20.51 3.87 28.2 10.55l25.37-.26v17.22l.26 5.92s-3.59 10.27-11.53 12.84h-6.67l.26-6.42a48.37 48.37 0 0 0 -3.08-12.34l-.25-.26-.26-.25v-.52l-.26-.25-.26-.5s0-.27-.24-.53l-.26-.26v-.26l-.26-.5-.26-.26v-.26l-.26-.26c-.25-.26-.25-.51-.5-.51v-.26l-.26-.52-.26-.26-.26-.24v-.26l-.77-.78-.26-.5-.24-.27-.78-.78c0-.24-.26-.24-.26-.5l-.25-.26-.51-.52-.26-.24-.26-.27-.25-.25c-.25-.27-.25-.27-.52-.52l-.25-.25-.25-.26-.52-.52-.52-.26v-.26c-.24 0-.5-.24-.5-.24l-.52-.26-.24-.26-.52-.52-.27-.25c-.25 0-.25-.26-.5-.26l-.26-.26-.52-.26-.25-.26h-.25l-.26-.24c-.26-.26-.52-.26-.52-.52h-.24l-.52-.26-.26-.26-.5-.25h-.27s-.26-.26-.52-.26c-.25-.26-.5-.26-.76-.52l-.52-.26h-.24c-.26-.26-.52-.26-.52-.26l-.26-.24c-.26 0-.5 0-.76-.26h-.27l-.25-.26h-.26l-.5-.26h-.27c-.26 0-.5-.26-.76-.26s-.52-.25-.78-.25h-.25l-.51-.25h-.26c-.26 0-.26 0-.5-.27h-1.03v-.25h-.78c-.26 0-.5 0-.76-.27h-1.03c-.25 0-.52-.24-.77-.24h-2.81l-.52-.26h-1.79l-.26.26h-2.82c-.26 0-.51 0-.51.24h-1.29c-.26 0-.26 0-.52.27h-1.03c-.25.25-.51.25-.76.25h-.26l-.51.27h-.27c-.24 0-.5.25-.76.25s-.5 0-.76.25h-.26l-.52.26h-.25c-.25 0-.52.26-.77.26-.27.26-.5.26-.77.26l-.26.26h-.5l-.26.24c-.26 0-.26.26-.52.26h-.26l-.5.26-.26.26-.51.26h-.26c-.26.26-.26.26-.52.26l-.26.25-.5.26-.26.26-.52.26c-.24.26-.5.26-.76.5h-.26l-.25.26-.26.26c-.26 0-.51.26-.51.26l-.26.26c-.25 0-.25.25-.5.25l-.53.52-.5.26-.26.26c0 .24-.26.24-.52.5h-.25l-.25.52h-.27l-.25.26v.26c-.26 0-.26.25-.5.25l-1.3 1.28c-.25.26-.25.52-.5.52l-.27.26-.25.5-.51.52c0 .26-.26.26-.52.52v.26l-.5.5-.27.53c-.25.26-.52.5-.76.76v.26l-.52.52-.26.5v.27c-.24.26-.24.52-.5.52v.24l-.26.52-.52.52v.26s0 .24-.25.5l-.25.26v.27l-.26.5v.26l-.26.26a36.17 36.17 0 0 0 -3.07 14.9c0 1.29 0 2.58.26 3.86l-6.68.26c0-1.54-.26-2.83-.26-4.11a45.3 45.3 0 0 1 2.57-14.65c.26-.26.26-.78.26-1.03l.26-.25.26-.52v-.27l.24-.5.26-.52s0-.26.26-.52l.26-.5.26-.52.24-.26v-.5l.26-.53.26-.26.26-.5c.25-.26.25-.52.5-.78v-.25l.53-.52v-.25l.26-.52c.24 0 .24-.24.24-.24l.52-.52c0-.26.26-.26.26-.52l.26-.5.24-.26.26-.52.52-.25.25-.52.26-.26c0-.26.26-.52.52-.52l.25-.24.25-.52.26-.26.52-.5.26-.27c0-.26.24-.26.5-.52v-.26c.26 0 .52-.24.76-.5l1.55-1.55c.26-.26.52-.26.77-.52l.25-.26.26-.24.52-.26.24-.26.52-.26c0-.26.26-.26.52-.5.25-.26.5-.53.76-.53l.27-.25.5-.27.26-.24.52-.52h.24c.26-.26.52-.26.78-.52h.26c.25-.26.5-.26.76-.5h.26l.51-.27.26-.25c.26 0 .52-.27.52-.27l.24-.25c.26 0 .52-.25.78-.25l.5-.26.52-.26h.26l.5-.26.53-.26c.25 0 .5-.24.76-.24h.26c.26-.26.26-.26.52-.26l.5-.26h.52l.24-.26c.27 0 .52 0 .79-.26h.25c.25 0 .5-.26.77-.26h.26c.25 0 .5-.25.76-.25h.26c.26 0 .5 0 .77-.26h.25c.26 0 .52 0 .77-.26h1.28l.78-.26h1.28c.25-.26.76-.26 1.02-.26h3.34zm-298.87 18.52 41.53-.26-2.06 11.05h-1.54v.26l.25 14.13c0 2.33-2.05 4.12-4.35 4.12l-28.46.25a4.5 4.5 0 0 1 -4.36-4.37v-13.87-.26h-.77zm0 0" fill="#616060"/><path d="m110.22 108c.25-2.04.51-3.85.51-5.9 0-19.8-16.14-35.73-35.89-35.73-19.73.26-35.88 16.45-35.63 36.24 0 1.8.27 3.87.52 5.66h-6.67c-.24-1.8-.5-3.6-.5-5.66a42.6 42.6 0 0 1 42.28-42.66c23.34 0 42.3 19.02 42.56 42.41 0 1.8-.26 3.6-.52 5.4zm0 0" fill="#616060"/><path d="m1.02 78.97 38.98-.27a42.9 42.9 0 0 1 34.85-18.76 42.29 42.29 0 0 1 40 28.01h-6.92a36.26 36.26 0 0 0 -33.08-21.59 36.16 36.16 0 0 0 -32.55 21.86l-41.28.26zm0 0" fill="#616060"/><path d="m8.46 40.4c-1.28 1.81-1.8 3.1-1.8 3.1s-1.53 6.16-1.29 11.82v20.56h8.22l-.26-35.47zm0 0" fill="#e22227"/><path d="m5.38 75.88h11.54v-22.35l-11.55.24zm0 0" fill="#fdd81a"/><path d="m152.5 33.98 88.44-.25c-14.61-8.23-30.5-27.25-55.62-27h-33.07zm-70.73-27.24v27.24h62.3v-27.24zm-61.77 27.5h53.33v-27.49h-27.44c-10.52 2.3-20.25 19.02-25.9 27.5zm0 0" fill="#454142"/><path d="m159.43 44.52v-1.02c0-.78.78-1.55 1.54-1.55l16.16-.26c.76 0 1.52.78 1.52 1.8v.77zm-73.83.26v-1.02c0-.78.53-1.55 1.3-1.55h16.4c.77 0 1.27.77 1.27 1.55v1.02zm0 0" fill="#3a2e26"/><path d="m112.53 109.55 151.49-2.05v-6.42l-151.49 1.79zm0 0" fill="#616060"/><path d="m233.26 39.13c3.33 1.02 17.17.25 17.94-2.83 1.03-3.1-11.02-10.8-17.94-10.02zm0 0" fill="#c0705d"/><path d="m355.78 70.74-16.16.26c-2.04 0-4.09 1.8-3.83 4.12v19.27c0 2.31 1.79 4.1 4.1 4.1h16.15c2.3 0 4.1-1.79 4.1-4.1l-.25-19.53c0-2.31-1.8-4.12-4.11-4.12zm0 0" fill="#616060"/><path d="m89.71 118.04c-8.46 8.48-22.05 8.48-30.75 0-8.46-8.49-8.46-22.11 0-30.84 8.46-8.49 22.04-8.49 30.75 0 8.47 8.48 8.47 22.1 0 30.84zm-36.4 5.91a30.13 30.13 0 0 0 42.3-.26c11.53-11.82 11.53-30.84-.26-42.41a29.88 29.88 0 0 0 -42.28.26 30.07 30.07 0 0 0 .24 42.41zm0 0" fill="#454241"/><path d="m74.34 77.95c13.57-.27 24.6 10.79 24.6 24.41 0 13.87-10.77 24.93-24.6 24.93a24.49 24.49 0 0 1 -24.62-24.68 24.48 24.48 0 0 1 24.62-24.66zm0 0" fill="#fefefe"/><path d="m74.34 80.77c-12.05 0-21.8 10.02-21.8 21.84 0 12.09 10 21.85 21.8 21.85a22.16 22.16 0 0 0 21.77-22.1c0-11.83-9.98-21.59-21.77-21.59zm0 0" fill="#5c5b5e"/><path d="m78.7 108.52c2.82-3.08 2.82-7.96 0-10.79a7.9 7.9 0 0 0 -10.77 0 7.93 7.93 0 0 0 0 10.8c3.08 2.82 7.94 2.82 10.76 0zm0 0" fill="#727074"/><path d="m71.77 106.72h3.07l2.06-2.05v-3.09l-2.06-2.04h-3.07l-2.04 2.04v3.1zm0 19.8-1.28-16.45-12.57 10.8-2.05-2.32 10.51-12.6-16.4-1.28v-3.09l16.4-1.28-10.76-12.6 2.3-2.05 12.58 10.53 1.28-16.45h3.07l1.28 16.45 12.57-10.78 2.05 2.3-10.5 12.6 16.4 1.03v3.35l-16.4 1.29 10.75 12.59-2.3 2.04-12.58-10.53-1.02 16.45zm0 0" fill="#fefefe"/><path d="m315.02 118.04a21.76 21.76 0 0 1 -30.75 0 21.9 21.9 0 0 1 -.27-30.84 21.76 21.76 0 0 1 30.75 0 21.9 21.9 0 0 1 .26 30.84zm-36.4 5.91c11.54 11.56 30.5 11.3 42.04-.26 11.54-11.82 11.54-30.84-.25-42.41a29.58 29.58 0 0 0 -42.04.26 30.07 30.07 0 0 0 .26 42.41zm0 0" fill="#454241"/><path d="m299.38 77.95c13.6-.27 24.62 10.79 24.87 24.41 0 13.87-11.02 24.93-24.6 24.93-13.6 0-24.6-10.8-24.87-24.68a24.64 24.64 0 0 1 24.6-24.66zm0 0" fill="#fefefe"/><path d="m299.38 80.77c-12.04 0-21.79 10.02-21.53 21.84a21.8 21.8 0 0 0 21.8 21.85 21.95 21.95 0 0 0 21.53-22.1 21.74 21.74 0 0 0 -21.8-21.59zm0 0" fill="#5c5b5e"/><path d="m303.75 108.52c3.07-3.08 3.07-7.96 0-10.79a7.58 7.58 0 0 0 -10.52 0 7.47 7.47 0 0 0 0 10.8 7.58 7.58 0 0 0 10.52 0zm0 0" fill="#727074"/><path d="m297.08 106.72h2.82l2.05-2.05v-3.09l-2.05-2.04h-2.82l-2.05 2.04v3.1zm0 19.8-1.28-16.45-12.56 10.8-2.3-2.32 10.76-12.6-16.41-1.28v-3.09l16.41-1.28-10.76-12.6 2.04-2.05 12.56 10.53 1.28-16.45h3.08l1.29 16.45 12.55-10.79 2.3 2.3-10.76 12.6 16.42 1.03v3.35l-16.42 1.29 10.76 12.6-2.04 2.04-12.57-10.53-1.27 16.45zm0 0" fill="#fefefe"/><path d="m213.01 6.74s-1.54 1.55-1.28 1.8c0 .25 41.78 25.96 41.78 25.96l2.55-1.04c-13.31-8.46-22.04-16.19-43.05-26.72zm0 0" fill="#454142"/></g></svg>