<svg xmlns="http://www.w3.org/2000/svg" width="413" height="267" viewBox="0 0 310 200"><path d="M80 191h11l4-3 1-7 3-3 1-7-2-5v-18l4-14H86l-13 39zm162-99l1 13v14l9 27 7 13 3 5-1 5-7 6-6 18-7 3h-13l-7-1 1-5 3-4h4l4-1 4-1 6-12-3-10-11-15-3-36 9-25zm0 0" fill="#9e572b"/><path d="M0 44v2l3 3 2 4 3 2v2l3 4h2l10-4 5 6v21l-1 4 2 1 4-1 3 6v4l3 2 3 1-2 3v3l1-1h2v4l1 4 2-1h2l2 5 8 13 4 3 4 7v17l1 20-3 4-6 4-6 6v3h5l1 2h17l6-2 1-8 2-4 3-5 2-4-4-6 1-11 3-13 4-7h18l12 3 7-1 3-4 6-1 14-4 15-6 12-4 12 2 5 4 6 16 4 14 11 14v4l-15 14-4 1-3-1-4 2-2 1-3 4-1 3 9 2h9l11-3 11-12 13-14-4-9-1-29 5-23 2-17 8 23 9 25 14 14 11 9 2-3-21-19-10-25-10-31-13-18-10-9-17-8-7-1-21 2-21 1-37-2-6-3-5-6-5-3-8-9-14-12L67 4l-8-4-13 2-21 6-2 4-1 5 2 4-4 4-5 5-1 2zm0 0" fill="#c77839"/><path d="M216 149l-4-17 1-16 3-13V88l-7-5-11 2-6 9-3 8-15 6-25 7h-19l-29-3-24-8h-1L44 91l-16-7-1 4 2 1 4-1 3 6v4l3 2 3 1-2 3v3l1-1h2v4l1 4 2-1h2l2 5 8 13 4 3 3 7 7-10v16l4 20 1 11-2 10-7 2-5 3-1 4h13l6-2 1-8 2-4 3-5 2-4-4-6 1-11 3-13 4-7h18l12 3 7-1 3-4 6-1 14-4 15-6 12-4 12 2 5 4 6 15 4 15 11 14v4l-13 13 2 1 2-2 3-1 9-6 4-6-2-7zm35-32l-7-20-2-6-3 1-4 12-5 25 1 15 3 11 1 2-1-24 5-23 2-17 8 23 4 10zm-13 53h-2l-7 7-13 14-8 4-1 4 8-2 11-12 13-14zm0 0" fill="#b46534"/><path d="M62 188l-3 2-3 3v2h1l1 2v-4zm136 4h-9l-2 2 3-1h6zm0 0" fill="#b46534"/><path d="M244 86l-13-18-10-9-17-8-7-1-21 2-21 1-37-2-6-3-5-6-2 3 3 9 19 2 25 2 25 1 13-4 9-1 8 3 24 14 10 13 5 9v1zm0 0" fill="#e08d4e"/><path d="M284 159l-2 5 6 7 6 3 8-1 8-1-4-6-15-8h-5zm-116-35l12-4 12 2 5 4-2-6v-9l-2-6-8 4-18 10-11 3-23 3-23-4-9-7-5-9 5-7 1-5 3-11-3-10-1-6 2-2 2-5 2-2 5-4h4l2-2-6-3-5-6-5-3-8-9-14-12L67 4l-8-4-13 2-21 6-2 4-1 5 2 4 3-1 3 3 6 7-4 14-3 15-1 5v20l-1 4 2 1 4-1 3 6v4l3 2 3 1-2 3v3l1-1h2v4l1 4 2-1h2l2 5 8 13 4 3 4 7v1l1-2 7-7 4-11 8-2 7 3 1 7-1 7h18l12 3 7-1 3-4 6-1 14-4zm0 0" fill="#713422"/><path d="M66 50l4-14-6-21-14-5-9 1-8 7-1 5v1l4 6-4 14-3 15-1 5v16l3-1 4-5 8-7 15-7zm9-37l6 9 12 12 10 11 9 5 1 3h3l2-2-6-3-5-6-5-3-8-9-14-12zm0 0" fill="#9f3c26"/><path d="M53 4l7-3-1-1-13 2-21 6-2 4-1 5 2 4h2l1-6 12-8zm0 0" fill="#9f3c26"/><path d="M47 25h3l5 6 1 7-1 7-4 7-2 5-1 4v-4l2-6 2-8v-7l-2-4-2 4-1 5-2 2v6l-1 1-1-6 2-6 2-7-2-2zm-4 30l-1 6-4 3-4 4-2 5 1-1 5-6 4-2 2-2 1-4v-4zm0 0" fill="#713422"/><path d="M41 57l-1 3-2 1-3 1 3-2 2-3v-4l1-1zm0 0" fill="#713422"/><path d="M25 56l-4 2 2-1 5 6v2l4-7-1-4zm0 0" fill="#9f3c26"/><path d="M23 34v1l-2 1h-5v-1l3-1zm0 0" fill="#e08d4e"/><path d="M20 32l4 1v1l-3 1-2-1-3 1zm0 0" fill="#623b27"/><path d="M20 33v-3h1l2 1 1 2zm0 0" fill="#b46534"/><path d="M20 56l-1-4-3-3-4-1H7l-2-2H3l-2 2 2 1 2 4 3 2v2l3 4h2l7-3zm0 0" fill="#ecc083"/><path d="M0 46l3 3 1 2v-3l2-2v-2l-4 2zm0 0" fill="#713422"/><path d="M14 56h4l1-1 1-2v-4l-2-4-3 1-1 2 1 4-1 2zm0 0" fill="#e08d4e"/><path d="M7 54l5 1h7v1l-1 1-2-1h-2l-3-1H7zm0 0" fill="#623b27"/><path d="M36 22l4 4 3 8 3-4 1-7-3-4-5 1zm0 0" fill="#c77839"/><path d="M38 24l2 2 2 4 3-4-1-3-2-1zm0 0" fill="#b46534"/><path d="M67 30l7 4 4 7 4 8 3 6 1 4-19-11-5-11zm0 0" fill="#9f3c26"/><path d="M89 56l-9-9-7-2-5-7-2 8-4 7-8 7-2 6-2 10-4 11-4 8-6 3 3 2 3 1-2 3v3l1-1h2v4l1 4 2-1h2l2 5 4 7 3-3 2-6 3-6 3-9 2 6-2 8 2 1 5-7-1-10 1-14 4-10 11-1 8-3zM68 23v4l2 3 2 2v-2l-1-4-1-3zm0 0" fill="#9f3c26"/><path d="M66 37l1 1-2 7-3 6-4 3-3 3-1 2h-1l2-5 4-4 4-6 1-6 1-4zm3 12l-3 6v11l-1 3 1 1 1-3 2-9 2-7 2-5h-3zm0 0" fill="#713422"/><path d="M78 34l1 5 3 5 3 5 3 3 3 4 1 1 1-1-4-6-5-8-4-7-2-4-4-3v4zM46 69l-5 3-1 7-2 4-2 3h1l3-2 2-7 3-4 3-3 1-3zm10-59l3-4 4-1 3 2v1h-4l-3 2zm-7-2l3-2 3-1 1 1-2 1-2 2zm44 51l4 3 2 3v-1l-2-5zm1 4v2h3v-1zm0 13l3 4 2 5 1 3h1l-1-4v-4l-2-4-3-3-3 1zm-2-29l6 2 3 4 1 2 2 1 1-1-2-1-1-3-2-3-2-2h-4l-3-3-1 2zM78 78l2 5 4 3 4 2h1l-4-4-1-4v-2zm0 0" fill="#9f3c26"/><path d="M7 49v1-1zm1 0v1h1v-1zm2 1l1 1v-1zm3 0h-1l1 1v-1zm2 0h1v-1zm-7 1v1-1zm2 0v1h1v-1zm3 1h-1 1zm2 0l1 1v-1zm-6 1H8h1zm2 0v1h1v-1h-1zm3 0v1h1v-1zm0 0" fill="#c77839"/></svg>