<svg xmlns="http://www.w3.org/2000/svg" width="164" height="265" viewBox="0 0 123 199"><path d="M52 94c-23-4-45 12-49 34-4 23 11 45 34 49s45-12 49-34c4-23-11-44-34-49zm0 0" fill="#fefefe"/><path d="M107 81l-4 3c-6-12-21-20-35-22l1-7c1-7-11-8-11-1l-1 8c-9 1-17 5-22 15-19 36-18 74 1 84s51-12 70-48c3-7 3-19 3-19l6-5c5-5-2-13-8-8zm0 0" fill="#a8a5a4"/><path d="M39 76c-7 11-11 21-13 32 2-2 4-2 7-2 2 1 3 3 3 6l3 1 12 2h1c5 2 9 5 12 9 2-3 5-4 7-3 4 1 5 6 3 10 7-7 14-14 19-24 17-28-38-60-54-31zm0 0" fill="#c2bbb7"/><path d="M123 80l-2-1v-3h-3l-1-3c-1 0-2 0-2 2h-1l-1 1c-3 2-5 7-3 9s6 1 9-1l1-1 1-1c2 0 2-1 2-2zM68 46h-2l-2-2-2 2-2-2-2 3 1 1-1 2c0 3 1 8 4 8 3 1 6-3 6-7v-2h1c1-2 0-3-1-3zm0 0" fill="#3c4343"/><path d="M73 54l-2 9c-1 21 35 9 40-19 6-32-21-43-22-44-2 31-6 15-16 54zm0 0" fill="#a8a5a4"/><path d="M89 5c-2 24-9 15-14 47-1 12 12 12 22 4l5-5 3-5c3-10 2-22-7-33h1c-5-6-9-7-10-8zm0 0" fill="#c2bbb7"/><path d="M110 22l-26 2 2-5 20-4 4 7zm2 18l-33-6 2-5 31 2v9zm-6 17L76 43l1-5 33 12-4 7zM93 70L74 53l1-5 25 17-7 5zM89 0c1 1 6 2 12 9l-14 4 2-13zm0 0" fill="#3c4343"/><path d="M12 183c2-18 11-24 10-26-2-2-3-8-5-7-4 4-16 25-15 31 0 7 8 13 10 2zm0 0" fill="#c2bbb7"/><path d="M3 175c-1 2-2 5-1 6 0 7 8 13 10 2v-4l-1-1-8-3zm0 0" fill="#3c4343"/><path d="M36 190c13-13 13-23 15-23s8-3 8-1c0 6-10 28-15 31-5 5-15 2-8-7zm0 0" fill="#c2bbb7"/><path d="M48 193l-4 4c-5 5-15 2-8-7l3-2h2l7 5zm0 0" fill="#3c4343"/><path d="M60 169c-2 7-15 9-28 5s-22-14-19-21c2-7 15-10 28-5 13 4 21 14 19 21zm0 0" fill="#a8a5a4"/><path d="M33 167c9 3 36 9 41-3 5-16-2-40-23-47s-41 8-46 24c-4 10 20 22 28 26zm0 0" fill="#a8a5a4"/><path d="M63 159c4-14-2-36-18-42h-1c-17-7-33 7-37 20-2 10 17 21 24 24s29 9 32-2zm0 0" fill="#c2bbb7"/><path d="M67 158c4-13-2-34-19-39h-1c-17-6-34 7-39 20-2 8 18 19 25 22 7 2 30 7 34-3zm3-32c2 0 4 3 3 6l-2 3v1l4-4c1-5-1-9-4-10-2-1-5 1-7 3l2 2c1-1 2-2 4-1zm0 0" fill="#c2bbb7"/><path d="M25 116c1-3 3-4 6-4l2 4 3-1c0-3-2-5-4-6-4-1-8 1-9 6v5l1-1 1-3zm0 0" fill="#c2bbb7"/><path d="M73 132c1-3-1-6-3-6-2-1-3 0-4 1l5 8 2-3zm-42-20c-3 0-5 1-6 4l-1 3 9-3-2-4zm0 0" fill="#3c4343"/><path d="M47 157c-1 3-6 5-11 4-4-2-7-6-6-10s6-5 10-3c5 2 9 5 7 9zm0 0" fill="#fefefe"/><path d="M73 146c-4-6-22-11-28-11-5-3-22-10-29-8-4 1-6 12-3 13 6 4 23 4 30 2 3 5 18 16 25 17 3 0 7-10 5-13zm0 0" fill="#fefefe"/><path d="M40 137c-4-3-16-8-23-6-4 1-14 9-12 11 7 3 28 2 34 0l1-5zm8 3c5 0 17 3 22 9 2 3 5 16 3 15-8-1-24-15-27-20-1-1 1-4 2-4zm0 0" fill="#3c4343"/><path d="M31 140c-1 2-3 3-5 3-2-1-3-3-2-6 1-2 3-3 5-3 2 1 3 3 2 6zm0 0" fill="#fefefe"/><path d="M29 139l-2 2c-1-1-2-2-1-3l2-2c1 0 2 2 1 3zm0 0" fill="#3c4343"/><path d="M59 149c-1 3-3 4-4 3-2 0-3-3-2-5s3-4 5-3c1 0 2 3 1 5zm0 0" fill="#fefefe"/><path d="M58 149c0 1-2 2-3 1l-1-3c1-1 2-2 3-1l1 3zm0 0" fill="#3c4343"/><path d="M27 137h-1v-1l1-1v2zm29 9l-1 1v-1l1-1v1zm0 0" fill="#fefefe"/><path d="M43 154c0 1-3 3-6 2-2-1-4-4-3-5 1-2 3-1 5 0 3 1 5 1 4 3zm0 0" fill="#3c4343"/><path d="M38 152h-2l-1-1 2-1c1 1 2 1 1 2zm0 0" fill="#fefefe"/><path d="M36 160c1 3 7 2 7-1h-1c0 2-4 2-5 0l-1 1zm0 0" fill="#3c4343"/><path d="M37 177c-23-4-38-26-34-49 4-22 26-38 49-34 23 5 38 26 34 49-4 22-26 38-49 34zm19-88c-26-4-51 13-55 39-5 26 12 50 38 55 26 4 51-13 56-39S82 94 56 89zm0 0" fill="#c2e3e2"/></svg>