<svg xmlns="http://www.w3.org/2000/svg" width="429" height="267" viewBox="0 0 322 200"><path d="M91 40l-16 9-15 27-8 30-7 23-10 10-11 2-11-4-6-11-5-1-2 4 7 18 15 4 13 1 11-6 17-21 7-29 3-27 8-17zm0 0" fill="#c94927"/><path d="M63 71l1-3 6 3-2 2zm-5 13l1-4 5 2h4l1 3h-7zm-3 9l2-5 4 3 6 1 1 3-6 1zm-1 8l-1-1 2-3 4 3h7l1 2-6 1-7-2zm-3 8l8 5h7l-1 1-3 3h-7l-5-4zm-6 20l1-1 3 4 7 2-3 3h-4l-6-6zm0 0" fill="#765d57"/><path d="M130 110l-4 15-11 18-10 9-5 4v3l10 12 7 6 10 2 4 1 3 6 1 4-3 1h-3l-1 2h-17l-3-2v-2l-4-5-3-1-6-10-10-11-7-7v-4l5-6 3-16 19-32zm0 0" fill="#d6b69e"/><path d="M105 134l8 1 5 3-3 5-5-3-5-3-8 1v-2l8-2zm9-10l6 2h5l-3 5h-5l-5-4c-1-2-5-3-5-3l-9 1-1-3h12l5 2zm0 0" fill="#765d57"/><path d="M254 111l-6 22-3 32-1 6 1 4 5 3 5 6v3l-3 2-2 1-12 1-11-7 11-71zm0 0" fill="#d6b69e"/><path d="M233 149h5l8-3v3l-12 4zm1-8l4-2 8-2 2-2-1 3v1l-9 4-5 1zm0 0" fill="#765d57"/><path d="M294 11l-1-7-3-4-5 2-3 5zm0 0" fill="#ee8324"/><path d="M319 41l3-4-1-3-14-10-3-7v-3l-11-5-11-3-9 1-11 5-8 9-10 4-18 6-6 2-5 4h-30l-27 1-22 1-27-4-19 3-12 12-13 27v27l-4 18-10 16-10 7v5l4 5 8 31 3 4 4 5 10 1h8l1-2 5-1v-6l-5-3-9-2-3-10-3-18 5-4 19-16 15-15 10-9 11 2 18 9 18 3 21-5 16-3 14 3 4 5 2 16-1 29-3 6 3 5-1 8 2 3 5 3 2 4 10 2 10-2 1-1 3-1 1-5-7-7-6-2-2-5 5-34 3-21 10-5 6-8 3-15 7-10 9-10 4-14 5-6 11-2 8 4 5 1 1-3 1-4 3-3 3-4zm0 0" fill="#e85222"/><path d="M69 180h-6l-5-8-3-13 5-17 15-15 7-15 2-20 3-14 7-4 7 8 15 7 22-1h29l34 10 14 2 15-14 9-21 13-11 9-12-5-10-10-7 8-4 1-1 5 2h9l-1 5v20l14 7 2 2-3 4-4 14-9 10-7 10-3 15-6 8-10 5v1l-10-1-7 4-6 21-3 7 1-14-2-16-4-5-14-3-16 3-21 5-18-3-18-9-11-2-10 9-15 15-19 16-4 4 2 18zm0 0" fill="#c94927"/><path d="M294 24l1 1 2 1h4v-1l-3-1zm0 0" fill="#ee8324"/><path d="M298 22h-5l1 2 2 1 2-1 3 1zm0 0" fill="#2e3836"/><path d="M298 22l-1-2-1-1-2 2v1zm0 0" fill="#c94927"/><path d="M258 109l-6 8-9 4-5-6 3-5 4-6 4-19 9-8 7-9 6-8 5-8-6-3-3-1-2-3 1-3 1-10v-6l6-1 12-1 6 5 4 2 1 6 6 1 7 1 7-3 4 2-1 3-1 2-3 4-3 3-1 4-1 3-5-1-8-4-11 2-5 6-4 14-9 10-7 10zm0 0" fill="#f6ddcb"/><path d="M315 37l1-2 4 1h2v1l-3 4-2-2zm0 0" fill="#2e3836"/><path d="M104 116c1-2 7-10 7-12l8-2 7 4 10 2 24 3 45-3h8l5 8 3 18-1 28-3 11-2 6-2-4 3-6 1-29-2-16-4-5-14-3-16 3-21 5-18-3-18-9-11-2-10 9v1l1-4zm0 0" fill="#f6ddcb"/><path d="M69 150l-4 4 2 17-3-2-1-7-1-7 4-8 9-6 12-6zm0 0" fill="#d6b69e"/><path d="M77 196l-1-5-3-3-1-1h2l2 2 2 4v3zm165 3l1-2v-3l-3-4v-1l3 2 2 4v3h-1zm0 0" fill="#c94927"/><path d="M299 20l-1-3-3-1-3 1-1 2h2l2-1h2zm-6-7l-2 1-2 3v2h-2l1-3 2-3 3-1zm0 0" fill="#2e3836"/><path d="M310 40l1 3-3 2-7 2-4 1-2-1 1-6 4-2zm0 0" fill="#d6b69e"/><path d="M290 23l3 2v4l3 1h3l1 1-1 1-1-1h-5l-2-1-2-4-1-1zm0 0" fill="#2e3836"/><path d="M303 33l-5 2h-5l-4 1-4-3-2-4 1-4v-3l-3-2h-1l2 2v2l-1 4 1 4 3 4 4 1h7l7-3zm-11 17l-2-5-1-2-5-2-6-2-3-4v-9l-1-2-3-2v2l2 1 1 3v4l1 5 2 4 2 2 7 1 3 2 1 4zm-13-3l-5-2-2-3-1-3-2-1 2 4 2 4 2 2 4 1zm0 0" fill="#765d57"/><path d="M272 19l3-3 2-4 2-4 2 1v3l-3 4-3 3-3 1zm11-6l2-3 4-1v2l-4 3-4 3h-1zm15 1l2-2 4 2v1l-1 1-4-1-4-1zm-43 80l1-4 1-8-1-6-4-5-2-8-1-11 1-7-1-5-2-6-1 1 2 7v7l-2 11 2 7 5 10 1 6v7l-1 5 3 3 2 1v-1zm-13 24l-2 2-5-2-5-8-4-9-1-9v-8l-1-6v-3h1l1 5 1 16 3 8 4 8 2 5zm-24-15l1 6 1 3 2 3-1 3-3-6-2-4 1-6zm-24-32l2 2 1 11-1 8 1 5 2 6 1 6-1 1-2-6-3-6-1-9-2-13 3-5zM81 62l-1 6-3 6-2 3-3 1 2-3 3-5 1-5v-3zm139-29l-3 15v10l2 9 1 7 1 3 1 3v9l-1 1-1-5-2-9-3-9-1-10V37h1zm-15 13l2 8 1 13v7l1 7 2 5 2 4v4h-1l-1-4-3-10-2-9-3-13V44l1-7h3zm-14 15l-1 6-2-1v-9l-2-10 1-10h6l-2 8v16zm-12-18l-3 13v20l-2 7-2 4h-1l1-7-2-9V55l1-15 1-3h8zm-21 1l2-6 5-1-1 5-2 8v14l-1 4-2-1 1-6v-7l-2-10zm-24-5l-1 6-2 6-1 6v4h-1l-1-8 4-11-1-4zm1 28l4-10 5-14v-4l6-1-3 10-2 7-4 9-4 8-4 5v5h-2l2-8 2-7zm91-36h2v1l-1 9 2 11 1 3 1 8h-1v-4l-1-4-3-7V36zm23 77l-1-3-6-6-4-6-1-10-1-10-1-7-2-5-2-4 1-14 2-8 1-5v-2h2v1l-2 6-2 12v8l4 8v8l1 11 3 12 5 4 4 2 1 7v4l-1-1zm0 0" fill="#2e3836"/><path d="M240 32l-1 8 1 5-1 2-1-4v-9l1-7 2-1zm0 0" fill="#2e3836"/><path d="M274 61l4 2 1 1v3l-1-1-5-3-2-4-1-3 1 1zm0 0" fill="#765d57"/><path d="M258 29l2 1v9l1 8 3 7 6 7 3 6 1 5 1 4-3 3-3-4-2-9-3-8-4-6-1-9V33l-1-4zm-39 104l4 1 2 5-1 1-1-2-2-3h-5v-6zm-2 15v-5l4 1 3 4 2 2v1l-4-2zM111 89v-4l1-6v-8-10l1-7 3-6 2-11 1-1 5 1-3 11-6 7-2 12 1 10v7l-2 5zM99 45l-3 14v23l-1 8-1 4-2-2 1-9-1-10V58l2-11 3-10 6-1-4 9zm27 31l1-5h1l-1 9-3 8v8l1 7 4 9v2l-5-2-1-4-3-14 1-12 5-6zm-20 28l3 8v1l-3 4-2-5-2-10-1-9 1-9 3-11v-4h2l-2 8-1 8v9l2 10zm-21-1l-1-8v-8l2 3a313 313 0 0 0 2 19l6 12 2 6-3 2-1-3-4-12-3-11zm-8 38l1-12 1-11-1-8v-3l2 3 1 6v8l1 10-1 6-5 4 1-3zm-17-2h1l6 5c1 1 3 3 3 5l-1 1-1 1-1-3-5-6-3-2zm-7 17l5-1 1 2-8 3-5 1-1-6zm0 0" fill="#2e3836"/><path d="M68 183l2-1 7 2h-1l-9 3-7-1 3-2zm0 0" fill="#ee8324"/><path d="M60 122h3l6-2 3-2 1 1-5 5-11 5zm16-23l-5 7-7 4-1 1 1-7h3l7-7 2-6 4-4h1l-3 5-2 7zm0 0" fill="#2e3836"/><path d="M281 11l-2 5-3 5-5-1-3-5 3-5 3-1zm0 0" fill="#ee8324"/><path d="M277 12l3 2-1 2-2 4-5-2-1-3 3-3zm0 0" fill="#c94927"/><path d="M226 188v-2l6-2 4-2 6 2 2 3-10 1zm0 0" fill="#ee8324"/><path d="M182 98V88l1-9 1-7v-5l1 1v20l2 11 2 8 5 5 6 4v1l-3-1-8 2-4-5-3-5-1-5 1-5zm0 0" fill="#2e3836"/><path d="M185 113l-3-5-1-5 1-5v-6l4 1 1 6 2 8 5 5 6 4v1l-3-1-8 2zm0 0" fill="#372f2c"/><path d="M185 113l-2-3 7-1 4 3 6 4v1l-3-1-8 2zm0 0" fill="#765d57"/><path d="M161 81l-1-7h1l1 6v8l-1 11c-1 1 3 9 3 10a114 114 0 0 0 10 12l-10 2v-1c-2-1-4-6-5-8l-2-10 2-12 2-11zm0 0" fill="#2e3836"/><path d="M162 88l-1 11c-1 1 3 9 3 10a114 114 0 0 0 10 12l-10 2v-1c-2-1-4-6-5-8l-2-10 2-12 1-4h2zm0 0" fill="#372f2c"/><path d="M158 111h8a131 131 0 0 0 8 10l-10 2v-1c-2-1-4-6-5-8l-1-3zm0 0" fill="#765d57"/><path d="M194 96h2l1 1 2 6 1 6-1 1-2-6-3-6v-2zm0 0" fill="#372f2c"/><path d="M148 86l-3 8-3 7 2 9 5 6v3h-1l-3-5-4-5-4-7 3-6 4-5 3-7zm0 0" fill="#2e3836"/><path d="M144 91l1-3h2l-2 6-3 7 2 9 5 6v3h-1l-3-5-4-5-4-7 3-6 4-5zm0 0" fill="#372f2c"/><path d="M144 109v1l5 6v3h-1l-3-5-4-5zm0 0" fill="#765d57"/><path d="M225 90l1-1 1 7 3 8 4 8 2 5 6 1-2 2-5-2-5-8-4-9-1-9v-2zm12-20v1l1 11 3 12 5 4 4 2 1 7v4l-1-1-1-2-1-3-6-6-4-6-1-10-1-10zm0 0" fill="#372f2c"/><path d="M249 108l-1-3-3-3 1-4 4 2 1 7v4l-1-1zm0 0" fill="#765d57"/><path d="M250 63l2 8 4 5 1 6-1 8-1 4 3 4v1l-2-1-3-3 1-5v-7l-1-6-5-10-2-7v-1l3-2 1 6zm0 0" fill="#372f2c"/><path d="M256 78l1 4-1 8-1 4 3 4v1l-2-1-3-3 1-5v-9zm0 0" fill="#765d57"/><path d="M259 44l2-1v4l3 7 6 7 3 6 1 5 1 4-3 3-3-4-2-9-3-8-4-6-1-8zm1-5v1l-1-3v-4l-1-4 2 1zm0 0" fill="#372f2c"/><path d="M267 65l3-4 3 6 1 5 1 4-3 3-3-4-2-9v-1zm0 0" fill="#765d57"/><path d="M296 49v-2h2l5 1 6 1h4l-1 1h-1l-3-1h-11zm0 0" fill="#2e3836"/></svg>