<svg height="133pt" viewBox="0 0 114 133" width="152" xmlns="http://www.w3.org/2000/svg"><path d="m110.88 11.09c.11.22-2.25 3.13-3.16 5.48-1.58 4.7-4.74 8.62-7.78 10.41-2.15 1.34-3.62 5.15-5.64 7.17-1.81 2.69-3.5 6.38-5.53 8.17-2.26 2.13-3.4 7.72-5.65 9.4-2.14 1.57-2.6 7.06-4.17 9.3-1.47 1.9-2.49 6.16-3.95 7.5-1.36 1.23-1.8 4.7-3.16 5.93-1.25 1.12-1.8 5.04-2.14 7.5-.34.11-.57.11-.9.23.67-2.91 1.12-6.61.33-8.96-1.35-4.03-2.48-8.4-2.26-13.43.23-2.7-1.01-5.38 0-7.95.68-1.68.46-3.48.34-5.15 0-2.58.45-5.04 1.47-7.28 2.03-4.82 3.27-10.41 5.75-14.78 2.26-4.03 4.18-8.4 6.66-11.75 2.94-3.92 5.98-7.73 9.25-9.74 3.05-1.91 7-3.7 10.16-2.7 2.48.9 5.76.45 7.22 3.7.9 1.9 3.16 6.95 3.16 6.95zm0 0" fill="#499d3c"/><path d="m87.07 16.23c.34-2.8.79-5.93 1.92-8.5.9-2.02 2.03-3.59 3.28-5.27-.34.23-.8.34-1.25.45a16.44 16.44 0 0 0 -2.82 4.93c-1.36 4.25-2.03 8.95-2.82 13.43a82.9 82.9 0 0 1 -2.83 11.09l1.36-2.02a82.45 82.45 0 0 0 3.16-14.1zm0 0" fill="#cedd8a"/><path d="m78.16 39.18c.11-.55.22-1.22.45-1.9v-.44c.56-2.25 1.02-4.7.9-7.06 0-.33 0-.56-.11-.78-.34-3.03-.9-5.94-.23-9.3.23-.78.23-1.57.45-2.35.23-1 .68-2.01 1.24-2.9a89.32 89.32 0 0 1 2.03-3.25c.12-.23.23-.45.46-.79.11-.1.22-.34.34-.45.67-.89 1.24-1.67 1.69-2.35.9-1.34 1.69-2.35 2.7-3.36a4.25 4.25 0 0 1 1.7-1c-.68 1-1.47 2.13-1.92 3.36-1.7 4.36-2.48 9.4-3.27 14.21-.23 1.23-.45 2.58-.79 3.8-.11.35-.11.9-.23 1.35-.68 3.03-1.46 5.82-2.25 8.62-.8 1.35-1.47 2.7-2.15 4.03-.34.79-.79 1.68-1.12 2.58-.34.56-.57 1.23-.8 1.8.23-1.24.57-2.47.9-3.82zm0 0" fill="#499d3c"/><path d="m85.38 21.27c.79-4.48 1.46-9.18 2.82-13.43.57-1.8 1.7-3.47 2.82-4.93-.23.11-.45.11-.68.23-.11 0-.33.1-.56.1-.68 1.01-1.47 2.13-1.92 3.37-1.7 4.36-2.48 9.4-3.27 14.21-.23 1.23-.45 2.58-.79 3.8-.11.35-.11.9-.23 1.35-.68 3.03-1.46 5.82-2.25 8.62.34-.67.79-1.34 1.13-2.01 0 0 .1-.12.1-.22a82.9 82.9 0 0 0 2.83-11.09zm-6.88 8.4c.1 3.7-.34 7.72-.91 11.53.23-.67.34-1.34.57-2.02.22-.67.34-1.56.45-2.34.56-2.25 1.13-4.7.9-7.06-.34-3.58-1.01-6.38-.34-10.08.23-.78.23-1.57.45-2.35.23-1 .68-2.01 1.24-2.9.8-1.35 1.59-2.7 2.49-4.04-.68.79-1.35 1.57-2.26 2.47-.23.22-.45.55-.68.78-.45.9-.78 1.68-1.01 2.46-1.24 4.48-1.02 9.18-.9 13.55zm0 0" fill="#cedd8a"/><path d="m77.59 41.2c.57-3.8 1.02-7.84.9-11.53-.1-4.37-.33-9.07.9-13.55.23-.78.57-1.57 1.02-2.46-.45.45-.78.9-1.12 1.34-1.58 4.37-1.92 9.3-2.04 13.89-.1 5.37-.45 10.85-.9 16.34.22-.67.56-1.46.9-2.24.12-.56.23-1.23.34-1.8zm0 0" fill="#cedd8a"/><path d="m77.25 28.89c.12-4.6.46-9.52 2.04-13.89a20.95 20.95 0 0 0 -2.04 4.6c-.56 2.12-.9 4.36-1.01 6.49a85.02 85.02 0 0 0 -.11 9.18 79.2 79.2 0 0 1 -.79 12.65c.34-.9.56-1.8 1.01-2.69.45-5.49.8-10.97.9-16.34zm0 0" fill="#cedd8a"/><path d="m75.34 47.92c.56-4.15.9-8.4.78-12.65-.1-3.03-.1-6.05.12-9.18.11-2.13.45-4.37 1.01-6.5a16.4 16.4 0 0 1 -1.01 2.13 33.06 33.06 0 0 0 -.68 4.48c-.45 8.4-.56 16.9-1.58 25.4zm0 0" fill="#cedd8a"/><path d="m75.56 26.2c.12-1.45.34-2.91.68-4.48-.22.33-.34.67-.56 1-1.92 8.63-1.36 17.36-1.59 25.87 0 1.12-.1 2.35-.22 3.58.11-.22.11-.33.11-.56 1.02-8.5 1.13-17.02 1.58-25.41zm0 0" fill="#cedd8a"/><path d="m72.07 36.61.1-5.15zm-1.81 6.83c0 .45.11.9.11 1.34.22 1.24.34 2.47.68 3.58.45 2.47.79 4.93 1.13 7.4l.34 2.35c0-.23.1-.57.1-.79.12-.78.35-1.56.46-2.23.11-.23.11-.45.23-.68v-.22c.33-3.81-.12-11.31-.12-11.31s.34 3.36.34 5.04c.11 2.12 0 4.25-.22 6.27 0-.23 0-.45.1-.56.12-.56.35-1 .46-1.46.11-1.23.22-2.46.22-3.58.23-8.5-.33-17.24 1.59-25.86-.23.33-.57.78-.8 1.23-.22.22-.33.45-.45.67-.22.23-.34.45-.45.56a42.16 42.16 0 0 0 -1.13 3.13s.68-2.12 1.13-3.13c-.56 1-1.24 2.01-1.69 3.13-.56 1.35-.9 2.7-1.24 4.04s-.68 2.8-1.13 4.03c-.11 2.46.22 4.7.34 7.05zm0 0" fill="#499d3c"/><path d="m70.37 49.82c.45 2.02 1.13 4.03 1.36 6.16.34 1.68.34 3.7.22 5.6.23-1.24.34-2.35.57-3.47l-.34-2.35c-.34-2.47-.68-4.93-1.13-7.4-.34-1.23-.46-2.34-.68-3.58 0-.45-.11-.89-.11-1.34-.12-2.35-.45-4.6-.34-7.05-.11.45-.34.78-.45 1.23-.23 3.13-.11 5.93.23 8.95.1 1.12.34 2.13.67 3.25zm0 0" fill="#cedd8a"/><path d="m70.93 55.98c-1.35-3.59-2.48-7.73-2.36-12.32l.33-4.81c0 .11-.1.33-.22.56-.11.33-.34.56-.45.9-.12.55-.23 1-.23 1.56-.34 3.36-.56 6.94.45 9.97.57 1.9 1.36 3.8 2.03 5.82.11.55.34 1 .45 1.57.23.56.46 1.23.46 1.9l.34 2.57v-.78c.1-2.46 0-5.04-.8-6.94zm0 0" fill="#cedd8a"/><path d="m70.93 55.98c.8 1.9.9 4.48.8 6.94.1-.12.1-.22.1-.45 0-.22.12-.45.12-.78v-.12c.12-1.9.12-3.91-.22-5.59-.23-2.13-.9-4.14-1.36-6.16a16.95 16.95 0 0 1 -.67-3.25 47.45 47.45 0 0 1 -.23-8.95c-.11.45-.34.78-.57 1.23l-.33 4.81c-.12 4.6 1 8.73 2.36 12.32zm0 0" fill="#cedd8a"/><path d="m67.21 46.13c.12-1.13.12-2.24.34-3.36a17.16 17.16 0 0 0 -.34 3.35zm0 0" fill="#417b39"/><path d="m69.02 63.59a15.47 15.47 0 0 1 -2.03-4.36c-.12.22-.12.44-.12.56v.78c.34 1.56.9 3.25 1.7 4.48.67 1.11 1.57 1.9 2.02 3.69.12.56.23 1.12.23 1.68 0-.22.11-.56.11-.78-.22-2.46-.9-4.48-1.91-6.05zm0 0" fill="#cedd8a"/><path d="m66.87 51.84c0-.12 0-.12.12-.23.22-.56.34-1.23.34-1.9.1 1.34.45 2.68 1.01 3.8 1.24 2.58 2.48 5.27 2.93 8.62.23 1.12.23 2.47.12 3.7 0 .45-.12.9-.12 1.35a9.66 9.66 0 0 0 -.22 1.79c0 .22-.12.44-.12.67-.22-2.46-.9-4.48-1.91-6.05a15.47 15.47 0 0 1 -2.03-4.36c0-1.8-.45-3.47-.57-5.16 0-.67.12-1.34.45-2.23zm0 0" fill="#499d3c"/><path d="m71.27 62.13c.23 1.12.23 2.47.12 3.7.11-.67.22-1.45.34-2.13l-.34-2.57c0-.67-.23-1.34-.46-1.9-.1-.57-.34-1.02-.45-1.57-.67-2.02-1.46-3.92-2.03-5.82-1.01-3.03-.79-6.61-.45-9.97 0-.56.11-1 .23-1.57-.34.9-.57 1.68-.68 2.47-.22 1.12-.22 2.23-.34 3.35.12 1.13.12 2.36.12 3.59.1 1.34.45 2.68 1.01 3.8 1.24 2.58 2.48 5.27 2.93 8.62zm-.9 12.1c.11-.45.11-.9.22-1.34a12.96 12.96 0 0 0 -2.48-6.95c-.67-.9-.9-2.46-1.24-3.8.12 1.23.23 2.46.46 3.7.45 2 1.57 3.13 2.14 4.91.45 1.02.67 2.25.9 3.48zm0 0" fill="#cedd8a"/><path d="m70.04 77.92c0-.22.1-.45.1-.67v-.9c.12-.67.23-1.45.23-2.12a15.88 15.88 0 0 0 -.9-3.48c-.57-1.78-1.7-2.9-2.14-4.92a50.89 50.89 0 0 0 1.8 7.39c.11.34.23.9.34 1.34.23 1.12.45 2.13.57 3.36zm0 0" fill="#499d3c"/><path d="m70.6 72.89c0-.8.11-1.69.22-2.47 0-.56-.1-1.12-.23-1.68-.45-1.79-1.35-2.58-2.02-3.7a14.3 14.3 0 0 1 -1.7-4.47v1.56c.34 1.35.57 2.92 1.24 3.81a12.96 12.96 0 0 1 2.48 6.95zm13.88-43.22c.22-.34.45-.56.67-.78 1.58-4.6 2.83-9.4 4.06-14a78.7 78.7 0 0 1 4.86-13.1c-.34.11-.79.33-1.13.45a113.63 113.63 0 0 0 -6.2 19.03c-.57 2.8-1.47 5.6-2.26 8.4zm0 0" fill="#cedd8a"/><path d="m86.73 21.27c1.58-6.6 3.61-13.1 6.21-19.03-.23.11-.45.22-.67.22a27.24 27.24 0 0 0 -3.28 5.27c-1.13 2.57-1.58 5.7-1.92 8.5a82.45 82.45 0 0 1 -3.16 14.11c.23-.22.45-.45.57-.67.79-2.8 1.69-5.6 2.25-8.4zm0 0" fill="#cedd8a"/><path d="m89.55 22.61 3.73-9.61zm.34.9 6.32-16.68zm-4.74 5.38c.12-.12.12-.23.23-.23.23-.22.45-.34.67-.56 1.93-5.37 3.5-10.64 4.86-16.23.9-3.25 3.39-9.4 3.39-9.4s-2.5 6.15-3.39 9.4l-1.7 6.71c-.9 3.36-1.9 6.5-3.16 9.52.12-.11.24-.11.24-.23l.1-.1 1.02-1.01.23-.23c.56-.56 1.13-.9 1.57-1.45.23-.22.68-1.01.8-1.35a44.84 44.84 0 0 0 1.8-3.24c.34-.67.68-1.35.9-2.02.9-1.79 1.59-3.8 2.26-5.82a61.26 61.26 0 0 1 2.37-6.38 19.74 19.74 0 0 1 1.8-3.02c.68-1.01 1.59-1.68 2.49-2.24-.34-.12-.8-.34-1.13-.56v.1c-.34-.21-.68-.33-.9-.44-.46-.11-.9-.11-1.35-.11-.46.1-1.02.22-1.48.45-.56.22-1.12.44-1.69.78-.33.11-.67.34-1.01.56a78.7 78.7 0 0 0 -4.86 13.1c-1.23 4.6-2.48 9.4-4.06 14zm0 0" fill="#499d3c"/><path d="m98.36 5.48a9.76 9.76 0 0 1 3.5-4.36c-.12 0-.23-.11-.23-.11-.34-.12-1.58 1.11-1.92 1.34-.45.56-.79 1.23-1.24 1.8a28.95 28.95 0 0 0 -2.15 4.58c-.67 1.8-1.24 3.7-1.91 5.49a56.8 56.8 0 0 1 -5.2 10.86l.12-.11c.34-.34.68-.67 1.13-1.01 1.01-2.02 2.14-4.26 3.04-6.6 1.7-3.93 3.27-7.96 4.86-11.88zm0 0" fill="#cedd8a"/><path d="m98.25 7.05c.9-2.35 2.36-4.36 3.94-5.82-.11 0-.22-.1-.34-.1a9.76 9.76 0 0 0 -3.5 4.35c-1.58 3.92-3.15 7.95-4.85 11.87-.9 2.35-2.03 4.6-3.04 6.6.45-.44.9-.77 1.47-1.22a162.9 162.9 0 0 0 6.32-15.68zm0 0" fill="#cedd8a"/><path d="m93.96 20.71.45-.9c1.35-2.46 2.82-4.92 3.61-8.28.56-3.13 1.46-6.15 3.04-8.28a9.63 9.63 0 0 1 1.92-1.8c-.22 0-.56-.1-.79-.22a14.8 14.8 0 0 0 -3.94 5.82 175.16 175.16 0 0 1 -6.32 15.68c.56-.45 1.01-.9 1.57-1.23.23-.23.34-.45.46-.79zm0 0" fill="#cedd8a"/><path d="m105.35 1.9c-.67-.1-1.46-.22-2.37-.45a9.63 9.63 0 0 0 -1.92 1.8c-1.58 2.13-2.48 5.15-3.04 8.28a14.92 14.92 0 0 1 -1.02 3.13c.23-.33.34-.67.57-1.11a53.98 53.98 0 0 1 7.78-11.65zm0 0" fill="#cedd8a"/><path d="m94.3 20.15a429 429 0 0 0 8.91-14 9.54 9.54 0 0 1 3.72-3.35 4.46 4.46 0 0 0 -1.58-.9 53.98 53.98 0 0 0 -7.78 11.65c-.23.44-.34.78-.57 1.11-.79 1.91-1.7 3.59-2.6 5.16 0 .1-.1.22-.1.33zm0 0" fill="#cedd8a"/><path d="m101.85 10.75c1.81-2.7 3.5-5.16 5.98-6.5l-.1-.1c-.24-.57-.46-1.01-.8-1.35a9.54 9.54 0 0 0 -3.72 3.36 429 429 0 0 1 -8.91 14c-.12.21-.23.44-.34.55-.12.34-.23.56-.46.79.34-.23.57-.34.9-.56 2.5-3.25 5.08-6.6 7.45-10.2zm0 0" fill="#cedd8a"/><path d="m106.03 7.84c.68-.79 1.46-1.46 2.37-1.57-.11-.68-.34-1.34-.57-2.02-2.48 1.34-4.17 3.8-5.98 6.5-2.37 3.58-4.96 6.94-7.44 10.19.1-.12.22-.12.34-.23 3.72-4.36 7.44-8.73 11.28-12.87zm0 0" fill="#cedd8a"/><path d="m106.03 7.84c.68-.79 1.46-1.46 2.37-1.57l.34 1.23c0 .23.11.34.11.56-.56.23-1.7.9-1.7.9s1.14-.67 1.7-.9c.11.34.22.67.22 1.01.12.22.23.45.23.56.23.44.34.78.57 1 .22.23.45.34.79.46-1.8.89-3.5 2-5.08 3.46-.34.23-.8.34-1.13.56-.22.12-.56.23-.79.34-.57.34-1.13.56-1.7.9a17.06 17.06 0 0 0 -2.93 2.01c-.33.22-.67.56-1.01.78-.68.23-1.25.56-1.92.9l-1.35.67c3.72-4.36 7.44-8.73 11.28-12.87zm0 0" fill="#499d3c"/><path d="m69.7 80.16c.1-.22.1-.45.1-.67.12-.56.12-1.01.24-1.57-.12-1.23-.34-2.24-.57-3.36a24.8 24.8 0 0 1 -.68 7.62c.23 0 .34-.12.57-.12.1-.44.22-.9.22-1.34.12-.11.12-.33.12-.56zm0 0" fill="#417b39"/><path d="m86.62 32.58c2.03.9 3.95 2.69 5.87 3.24.22.12.56 0 .8-.1.21-.57.67-1.01 1-1.57l.23-.23c-2.82.67-5.3-1.23-7.56-2.8a3.78 3.78 0 0 0 -3.27-.44c-.46.55-.9 1.23-1.24 1.9v.11c.22-.11.44-.23.56-.33a6.6 6.6 0 0 1 3.61.22zm-5.42 9.18a5.2 5.2 0 0 0 -2.25 1.68c.34-.45.9-.67 1.24-.78.45-.11.9-.23 1.35-.23 1.13.12 2.26.67 3.39.9 1.02.22 2.14 0 3.16-.67.1-.11.22-.11.34-.23-.12 0-.12 0-.23-.11-2.15-1.23-4.63-1.23-7-.56zm0 0" fill="#acc653"/><path d="m90.46 40.53v-.12h-.12c-2.7-.1-5.41-1-8-1.34-2.15-.22-4.3 3.48-5.65 5.71-.12.22-.34.45-.45.67-.22.67-.45 1.35-.8 2.02a13.61 13.61 0 0 1 3.5-4.03 5.2 5.2 0 0 1 2.26-1.68c2.37-.67 4.85-.67 7 .56.11.11.11.11.23.11.22-.11.44-.33.56-.56.45-.33.9-.9 1.47-1.34zm0 0" fill="#acc653"/><path d="m90.34 36.5-1.34-.9zm-14.1 8.95c.11-.22.33-.45.45-.67 1.47-2.23 3.5-5.93 5.64-5.71 2.6.34 5.3 1.23 8.01 1.34h.12c.22-.33.56-.78.79-1.23.1-.11.1-.11.1-.22.35-.56.69-1.12 1.03-1.8.33-.44.56-.89.9-1.45-.23.11-.57.23-.8.11-1.91-.55-3.83-2.34-5.86-3.24a6.6 6.6 0 0 0 -3.6-.22c-.13.1-.35.22-.57.33l-1.02 1.68c-.68 1.34-1.36 2.58-2.03 3.92-.34.67-.68 1.45-1.02 2.12a94.06 94.06 0 0 0 -2.14 5.04zm-2.14 21.95c.9-.9 1.92-1.68 2.81-2.69-.22.56-.34 1-.56 1.45-.11.34-.22.57-.33.8-.23.44-.46.89-.68 1.22l-.34.34c-.45.33-.8 1-1.13 1.9-.23.45-.45 1-.56 1.45a7.88 7.88 0 0 1 -1.47 2.58c-.11.11-.11.11-.23.34-.22.33-.45.78-.68 1.45a15.3 15.3 0 0 0 -.56 2.13c-.23 1.12-.45 2.35-.67 3.58-.12 0-.23 0-.34.11.1-.44.22-.9.22-1.34.12-.11.23-1 .23-1.23 0-.45.1-.79.1-1.12.13-.34.13-.78.23-1.12v-.9c.12-.1.12-.22.12-.33v-.79c.11-.22.11-.44.11-.67 1.02-2.69 2.15-5.37 3.72-7.16zm0 0" fill="#417b39"/><path d="m75.79 64.71c-2.26 1.68-4.06 4.6-5.3 8.5 0 .46-.12.9-.12 1.35 1.02-2.69 2.15-5.37 3.72-7.16.91-.9 1.93-1.68 2.82-2.69.12-.22.23-.56.34-.78.12-.11.12-.34.23-.45-.57.34-1.13.9-1.7 1.23zm0 0" fill="#acc653"/><path d="m77.25 62.92c-2.48 1.9-4.73 3.7-6.32 7.61 0 .22-.1.45-.22.56 0 .78-.12 1.46-.23 2.13 1.25-3.92 3.05-6.83 5.3-8.5.57-.34 1.13-.9 1.7-1.24.23-.45.45-.9.68-1.23-.34.22-.57.45-.9.67zm0 0" fill="#acc653"/><path d="m75.56 62.47c-2.03.78-3.27 4.48-4.4 7.5 1.7-3.58 3.72-5.26 6.1-7.05.33-.22.56-.45.9-.67.22-.45.45-.9.79-1.23l.67-1.01a11.3 11.3 0 0 1 -4.06 2.46zm0 0" fill="#acc653"/><path d="m77.59 55.53c1.13-.67 2.6-.56 3.84-.67-.11.34-.23.78-.45 1.23-.23.9-.45 1.68-.8 2.46-.1.56-.33 1-.56 1.46a11.3 11.3 0 0 1 -4.06 2.46c-2.03.78-3.27 4.48-4.4 7.5v.11c-.1.12-.1.34-.23.45 0 .22-.1.45-.22.56.11-.45.11-.9.22-1.34.12-.56.12-1.12.23-1.68 1.24-4.93 3.27-10.75 6.43-12.54zm0 0" fill="#417b39"/><path d="m77.59 55.53c1.13-.67 2.6-.56 3.84-.67.23-.79.45-1.46.79-1.9-.34.22-.68.44-1.02.56-.56.1-1.01-.12-1.58-.12-.1.12-.33 0-.45 0-3.27.79-6.09 5.94-7.56 10.86-.11 1.35-.34 2.58-.45 3.81 1.24-4.93 3.27-10.75 6.43-12.54zm0 0" fill="#acc653"/><path d="m79.29 52.4c-1.36.1-2.72.9-3.84 2.12-1.7 1.68-2.82 4.7-3.61 7.61v.34c-.11.67-.11 1.23-.23 1.8 1.47-4.93 4.29-10.08 7.56-10.87.12 0 .34.12.45 0 .57 0 1.02.23 1.58.12.34-.12.68-.34 1.02-.57.23-.56.57-1 .9-1.23.11 0 .23-.11.23-.22-1.35.78-2.7.78-4.06.9zm0 0" fill="#acc653"/><path d="m75.1 48.48c0 .11-.1.22-.1.33.1-.22.22-.45.45-.78-.11.11-.23.33-.34.45zm0 0" fill="#417b39"/><path d="m89 41.87c-.91 1-2.16 1.57-3.17 1.57-1.13-.11-2.37-.56-3.5-.9a3.22 3.22 0 0 0 -1.8 0c-.57.23-1.13.45-1.7.9-1.24 1-2.37 2.35-3.38 4.03l-.34 1.01c.11-.12.23-.34.34-.45a13.14 13.14 0 0 1 2.25-3.03c2.36-1.78 4.84-1 7.33-.33.79.22 1.7-.11 2.48-.67.46-.67.9-1.23 1.25-1.68.67-.45 1.12-1.12 1.69-1.8-.57.46-1.02.9-1.47 1.35zm-12.2 9.85c-1.8 1.01-3.38 3.7-4.28 6.5-.23 1.23-.34 2.35-.57 3.47 0 .22 0 .33-.11.44.79-2.9 1.92-5.93 3.6-7.6a6.08 6.08 0 0 1 3.85-2.14c.9-.1 1.8-.1 2.7-.33-.33 0-.67 0-.9-.11-1.47-.34-2.82-1.01-4.29-.23zm0 0" fill="#acc653"/><path d="m83.35 51.5c.34-.34.68-.79 1.01-1.34-.56.34-1.13.55-1.57.45-1.02-.23-2.04-.79-3.05-.9-1.13 0-2.26.22-3.28.56-1.35.44-2.25 2.01-3.15 3.58v.56c-.34 1.23-.57 2.57-.8 3.8.9-2.8 2.49-5.48 4.3-6.49 1.46-.78 2.81-.11 4.28.23.23.1.57.1.9.1.46-.1.9-.33 1.36-.55zm0 0" fill="#acc653"/><path d="m79.85 46.24-1.13.1zm3.27-.9-6.66 1.57zm-9.81 8.51c.9-1.57 1.8-3.14 3.15-3.58 1.02-.34 2.15-.56 3.28-.56 1.01.11 2.03.67 3.05.9.44.1 1.01-.11 1.57-.45.23-.45.57-1 .8-1.57.33-.56.56-1.12.9-1.68.23-.56.45-1.12.78-1.57l.68-1.34c-.79.56-1.7.9-2.48.67-2.49-.67-4.97-1.45-7.33.33-.8.68-1.58 1.91-2.26 3.03-.23.33-.34.56-.45.78-.23.78-.57 1.46-.8 2.13 0 .34-.1.56-.22.78-.22.67-.34 1.23-.56 1.9 0 0 0 .12-.11.23zm0 0" fill="#417b39"/><path d="m96.77 24.3c2.15 1 4.4 1.12 6.55.22.79-.79 1.58-1.57 2.37-2.47-.9.79-1.92 1.46-2.82 1.9-1.8.68-3.84-.32-5.76-.77-.34-.12-.67-.23-1.01-.45a4.7 4.7 0 0 0 -1.92-.79c-.34-.1-.56-.22-.79-.33-.23.1-.34.22-.45.33.45.34 1.02.67 1.58 1.12.68.45 1.47.9 2.25 1.24zm0 0" fill="#acc653"/><path d="m101.06 26.3c.68-.44 1.47-1.11 2.26-1.78-2.14.9-4.4.78-6.55-.22-.78-.34-1.57-.79-2.25-1.24-.56-.45-1.13-.78-1.58-1.12a2.3 2.3 0 0 1 -.67.45c3.04 2.47 5.18 3.8 8.8 3.92zm-8.91 4.26c.56.34 1.24.45 1.92.9.68.33 1.35.22 2.14.45.23-.45.56-.9.8-1.46-.35.11-.69.23-1.02.11a10.29 10.29 0 0 1 -3.39-1.23c-1.92-1-3.83-2.01-5.98-1.9-.11.11-.23.34-.33.45-.12.1-.24.22-.46.33.8.34 1.47.79 2.26 1.12 1.24.45 2.7.67 4.06 1.23zm0 0" fill="#acc653"/><path d="m92.82 32.7c.68.21 1.25.44 1.81.55.23 0 .34.11.45.11.45-.45.8-.9 1.13-1.45-.79-.23-1.46-.12-2.14-.45-.68-.45-1.36-.56-1.92-.9-1.36-.56-2.82-.78-4.06-1.23-.79-.33-1.47-.78-2.26-1.12-.11.11-.34.23-.45.45-.23.23-.57.56-.79.9h.11c2.82 1 5.42 2.12 8.12 3.13zm0 0" fill="#acc653"/><path d="m94.63 33.25c-.56-.11-1.13-.34-1.8-.56-2.71-1-5.3-2.13-8.13-3.13h-.11c-.34.33-.56.67-.9 1.12a3.78 3.78 0 0 1 3.27.44c2.25 1.57 4.74 3.47 7.56 2.8.23-.22.45-.33.56-.56-.1 0-.22-.11-.45-.11zm0 0" fill="#acc653"/><path d="m87.64 26.53c.34-.33.56-.56.9-.78.23-.22.56-.45.79-.78.34-.34.79-.67 1.13-1.01.33-.34.67-.67 1.13-.9l.68-.67c3.04 2.47 5.18 3.8 8.8 3.92-.34.33-.8.56-1.13.67-.46.22-.9.67-1.36 1.12-.22.22-.33.56-.56.79-.23.33-.45.78-.79 1.23 0 .11-.12.22-.23.33-.34.11-.68.23-1.01.11a10.29 10.29 0 0 1 -3.39-1.23c-1.92-1-3.83-2.01-5.98-1.9.34-.34.68-.56 1.02-.9zm19.4-6.26.12-.12c-.23.12-.57.34-.57.34s.34-.11.45-.22zm0 0" fill="#417b39"/><path d="m107.04 20.27c-.1.1-.45.22-.45.22s.34-.22.57-.34c.33-.56.56-1 .79-1.57a100.06 100.06 0 0 1 -11.29 4.26h-.34c.23.22.57.22.8.34h.22c1.24.22 2.48.22 3.84-.12a28 28 0 0 0 5.86-2.8zm-8.68 1c3.38-1.34 6.77-2.69 10.16-4.25.1-.56.33-1.01.44-1.46-4.73 3.25-9.25 4.6-14.21 5.82-.45.12-.91.23-1.25.23h-.1c.22.1.44.1.67.22.11 0 .23.11.34.11 1.35.23 2.7-.1 3.95-.67zm0 0" fill="#acc653"/><path d="m107.95 18.58c0-.1.1-.33.1-.45.12-.44.35-.78.47-1.11-3.4 1.56-6.78 2.9-10.16 4.25-1.25.56-2.6.9-3.95.67-.11 0-.23-.1-.34-.1l.11.1c.68.11 1.35.34 1.92.79.11.11.11.11.22.11h.34c3.73-1.12 7.45-2.57 11.29-4.26zm-2.25 3.47c.44-.55.9-1.11 1.34-1.78a28 28 0 0 1 -5.86 2.8c-1.36.33-2.6.33-3.84.1 1.8.56 3.72 1.46 5.53.79.9-.45 1.92-1.12 2.82-1.9zm0 0" fill="#acc653"/><path d="m97.68 19.25c.1 0 .23 0 .34-.1.23-.23.56-.45.78-.68 2.26-1.45 4.63-2.68 6.9-4.03a22.83 22.83 0 0 1 4.96-3.35h.22l-.34.67c-.11.33-.33.67-.45 1.23-.22.33-.34.78-.56 1.23 0 .11-.12.22-.12.33-.78.34-1.46 1.01-2.14 1.35-4.18 2.57-8.57 3.7-12.97 5.15a24.64 24.64 0 0 1 3.38-1.8zm0 0" fill="#417b39"/><path d="m108.96 15.56c.11-.33.34-.67.45-1-.78.33-1.46 1-2.14 1.34-4.18 2.57-8.57 3.7-12.97 5.15-.23.11-.57.33-.8.56.34 0 .8-.11 1.25-.23 4.96-1.23 9.48-2.57 14.21-5.82zm0 0" fill="#acc653"/><path d="m.07 55.98c0 .11 4.06.9 5.64 2.01 3.05 2.02 9.49 3.47 13.43 3.7 3.61.22 6.2 2.13 9.48 2.9 3.16 1.24 5.75 3.26 9.03 4.15 3.83 1.01 5.42 4.6 8.91 5.6 3.28.9 3.5 4.93 5.87 6.5 2.03 1.45 2.94 4.7 5.08 5.81 1.92 1.12 1.92 3.92 3.6 5.04 1.7 1.12 1.36 4.37 1.02 6.27.57.23.9.34 1.47.56 0-2.46.34-5.48 2.26-7.39 3.04-3.02 6.43-7.5 6.32-11.64 0-2.58 2.25-5.38.67-7.61-1.01-1.35-.56-3.14-.56-4.7a8 8 0 0 0 -2.82-6.28c-3.5-3.24-6.43-7.83-11.17-9.74-4.29-1.68-7.9-4.36-13.1-5.14-5.3-.68-10.71-2.36-16.24-1.57-5.3.67-10.95.67-15.57 2.8-2.71 1.23-8.58 2.23-9.93 4.36-.8 1.34-3.39 4.37-3.39 4.37zm0 0" fill="#499d3c"/><path d="m37.3 50.94a11.56 11.56 0 0 0 -5.07-4.37 20.88 20.88 0 0 0 -6.32-1.57c.68-.1 1.25-.22 1.92-.33 2.14.22 4.17.78 5.64 1.57 3.39 1.9 5.19 4.81 7.45 7.38a112.1 112.1 0 0 0 6.1 6.61l-2.38-1a63.52 63.52 0 0 1 -7.33-8.3zm0 0" fill="#cedd8a"/><path d="m54.69 63.93a4.05 4.05 0 0 1 -.9-1.35c-.12 0-.12-.1-.23-.22-.9-1.57-2.03-3.25-2.15-5.15v-.56c0-2.35.34-4.81-1.46-6.83-.45-.56-.8-1-1.24-1.46a6.5 6.5 0 0 0 -2.6-1.45c-1.35-.34-2.6-.78-3.95-1.12-.23-.11-.56-.11-.79-.22-.22-.12-.56-.12-.79-.12a66.33 66.33 0 0 1 -3.04-.67 23.9 23.9 0 0 0 -4.97-.78c-.79 0-1.8.1-2.82.22 1.36.34 2.82.56 3.84 1.12 4.06 1.9 6.2 4.7 8.46 7.61.56.79 1.24 1.57 1.91 2.25.23.33.46.67.68.89 1.47 1.8 3.05 3.58 4.63 5.37a95.2 95.2 0 0 1 3.61 2.36l2.03 1.67c.46.45.9.79 1.36 1.24-.57-.9-1.02-1.91-1.58-2.8zm0 0" fill="#499d3c"/><path d="m40.92 53.63c-2.26-2.58-4.06-5.49-7.45-7.4a15.9 15.9 0 0 0 -5.64-1.56c.34-.11.68-.11 1.13-.22.23-.12.56-.12.79-.23 1.36.34 2.82.56 3.84 1.12 4.06 1.9 6.2 4.7 8.46 7.61.56.79 1.24 1.57 1.91 2.25.23.33.46.67.68.89 1.47 1.8 3.05 3.58 4.63 5.37-.68-.33-1.36-.67-2.03-1.12-.11 0-.23 0-.23-.11a112.1 112.1 0 0 1 -6.1-6.6zm12.08 3.24c.45 2.92 1.46 5.71 2.48 8.51-.23-.45-.45-.9-.8-1.45-.45-.45-.67-1.01-1.12-1.57-.9-1.57-2.03-3.25-2.15-5.15-.1-2.69.34-5.15-1.46-7.39-.45-.56-.8-1-1.24-1.46a6.5 6.5 0 0 0 -2.6-1.45l-4.74-1.34c1.13.1 2.37.33 3.84.45.56.1 1.01.1 1.35.22.8.33 1.58.67 2.15 1.12 3.27 2.68 3.6 6.04 4.28 9.51zm0 0" fill="#cedd8a"/><path d="m55.48 65.38c-1.02-2.8-2.03-5.6-2.49-8.5-.67-3.48-1.01-6.84-4.28-9.52-.57-.45-1.36-.79-2.15-1.12.8.1 1.35.22 1.92.33 3.95 2.47 5.3 5.6 6.2 9.07 1.14 4.26 1.93 8.5 3.05 12.66a19.91 19.91 0 0 0 -1.46-1.57c-.23-.45-.45-.9-.8-1.35zm0 0" fill="#cedd8a"/><path d="m54.69 55.64c-.9-3.47-2.26-6.6-6.21-9.07 1.8.56 2.93 1.23 4.29 2.24a11.98 11.98 0 0 1 3.05 4.26 20 20 0 0 1 1.57 7.16 57.84 57.84 0 0 0 2.04 9.97c-.57-.68-1.13-1.23-1.7-1.9-1.12-4.15-1.91-8.4-3.04-12.66zm0 0" fill="#cedd8a"/><path d="m59.43 70.2c-.9-3.25-1.7-6.5-2.04-9.97a20 20 0 0 0 -1.57-7.16 11.98 11.98 0 0 0 -3.05-4.26c.56.23 1.24.67 2.03 1.01.9 1 1.58 2.02 2.03 3.13 2.6 6.28 3.17 13.33 4.52 20.05-.68-.9-1.24-1.8-1.92-2.8zm0 0" fill="#cedd8a"/><path d="m56.83 52.95a10.57 10.57 0 0 0 -2.03-3.13c.34.11.79.34 1.13.45 5.07 5.6 5.07 13.32 5.42 20.26 0 .9.1 1.9.22 2.91a.82.82 0 0 1 -.22-.44c-1.36-6.72-1.92-13.77-4.52-20.05zm0 0" fill="#cedd8a"/><path d="m62.92 55.53c.8 1.34 1.36 2.8.9 4.26.46-1.46-.1-2.92-.9-4.26zm4.3 3.25c-.9-.9-1.6-2.02-2.27-3.02a10.7 10.7 0 0 0 -2.82-2.7c-.9-.67-1.92-1.22-3.16-1.67-.22-.11-.45-.11-.67-.23-.34-.1-.57-.22-.9-.33-.57-.22-1.02-.33-1.47-.56 5.07 5.6 5.07 13.32 5.42 20.26 0 .9.1 1.9.22 2.91.23.34.45.79.56 1.12.12.11.12.34.23.56a27.28 27.28 0 0 1 -.23-5.26c.12-1.45.34-2.9.57-4.37a34.33 34.33 0 0 0 -.34 9.63v.11c.11.11.23.34.23.45.22.68.45 1.35.56 1.9 0 .23.11.45.11.68.23-.67.45-1.35.8-2.02.67-2.13 1.46-4.36 2.25-6.6.34-1.12.68-2.13.9-3.36.12-.34.12-.79.23-1.12 0-2.24.22-4.26-.23-6.38zm0 0" fill="#499d3c"/><path d="m67.33 70.75c-.8 1.91-1.92 3.81-2.6 5.6-.68 1.57-.9 3.14-1.13 4.82l-.34-2.91c.23-.67.45-1.35.8-2.02.67-2.13 1.46-4.36 2.25-6.6.34-1.12.68-2.13.9-3.36.12-.34.12-.79.23-1.12 0-2.24.22-4.26-.23-6.38l.9.9c.68 2.68.8 5.25.23 8.05-.23 1-.56 2.02-1.01 3.02zm0 0" fill="#cedd8a"/><path d="m65.97 76.24c2.71-3.58 4.51-7.39 4.07-11.42-.23-1.45-.57-2.9-1.02-4.36.1.22.34.33.45.44.34.23.57.45.79.67.22.45.45.9.56 1.35.9 3.02 1.25 6.38-.45 9.3-1.13 1.9-2.48 3.69-3.72 5.48-.34.56-.68 1-1.02 1.45a4.32 4.32 0 0 0 -1.02 1.69c-.33.67-.56 1.34-.78 2.12v-.67c.33-2.13.78-4.15 2.14-6.05zm0 0" fill="#cedd8a"/><path d="m65.97 76.24c-1.36 1.9-1.8 3.92-2.14 6.05v-.34c0-.22-.12-.44-.12-.67 0 0 0-.11-.11-.11.23-1.68.45-3.25 1.13-4.81.68-1.8 1.8-3.7 2.6-5.6.45-1.01.78-2.02 1.01-3.03.56-2.8.45-5.37-.23-8.06.34.23.57.56.91.79.45 1.45.79 2.9 1.02 4.36.44 4.03-1.36 7.84-4.07 11.42zm0 0" fill="#cedd8a"/><path d="m72.3 66.61c-.12-1-.35-2.01-.7-3.02.47 1 .7 1.9.7 3.02zm0 0" fill="#417b39"/><path d="m68.11 82.96a15.34 15.34 0 0 0 4.07-4.03v1.12a12.51 12.51 0 0 1 -3.5 4.14c-1.35.9-3.05 1.57-4.07 3.02-.22.45-.56.9-.78 1.34v-.55a13.19 13.19 0 0 1 4.28-5.04zm0 0" fill="#cedd8a"/><path d="m72.85 71.88-.1-.11a4.85 4.85 0 0 1 -.57-1.8 7.28 7.28 0 0 1 -1.7 3.81c-2.14 2.58-4.51 4.92-5.75 7.84-.45 1-.68 2.01-.9 3.13v3.25a13.19 13.19 0 0 1 4.28-5.04 15.34 15.34 0 0 0 4.07-4.03c.22-1.68 1.13-3.25 1.24-4.93.11-.67 0-1.34-.57-2.13zm0 0" fill="#499d3c"/><path d="m64.73 81.62c-.45 1-.68 2.01-.9 3.13v-1.79c.22-.78.45-1.45.78-2.12.23-.68.57-1.24 1.02-1.69.34-.45.68-.9 1.02-1.45 1.24-1.8 2.6-3.59 3.72-5.49 1.7-2.9 1.36-6.27.45-9.3-.1-.44-.34-.89-.56-1.34a5.26 5.26 0 0 1 1.35 2.02c.34 1 .57 2.02.68 3.02 0 1.12-.11 2.24-.11 3.36a7.28 7.28 0 0 1 -1.7 3.81c-2.14 2.58-4.51 4.92-5.75 7.84zm-1.24 10.18c0-.33.1-.78.1-1.12 1.14-2.46 3.28-4.25 5.54-5.7 1.35-.79 2.03-2.13 2.82-3.36-.45 1.11-.79 2.24-1.36 3.36-1.23 1.79-3.26 2.68-4.73 4.02-.9.9-1.7 1.8-2.37 2.8zm0 0" fill="#cedd8a"/><path d="m63.04 94.83c0-.23 0-.45.1-.56 0-.34 0-.56.12-.79.12-.55.12-1.12.23-1.68.67-1 1.46-1.9 2.37-2.8 1.47-1.34 3.5-2.23 4.73-4.02a28.03 28.03 0 0 1 -4.73 6.15c-.34.34-.57.67-.9 1.12-.68.79-1.36 1.57-1.92 2.58zm0 0" fill="#499d3c"/><g fill="#cedd8a"><path d="m63.6 90.68c.11-.67.11-1.34.23-2.13.22-.44.56-.89.78-1.34 1.02-1.45 2.72-2.12 4.07-3.02 1.46-1 2.6-2.57 3.5-4.14 0 .56-.11 1-.23 1.57-.79 1.23-1.47 2.57-2.82 3.36-2.26 1.45-4.4 3.24-5.53 5.7zm-19.97-31.68c-.34-.11-.68-.22-1.13-.34-3.05-2.46-5.75-5.14-8.69-7.6-2.82-2.36-6.54-4.26-10.6-5.72.56-.11 1.12-.22 1.69-.22a36.45 36.45 0 0 1 13.88 9.07c1.58 1.57 3.27 3.13 4.85 4.81zm0 0"/><path d="m38.78 54.19a36.45 36.45 0 0 0 -13.88-9.07c.33-.12.67-.12 1.01-.12 2.37.23 4.52.79 6.32 1.57 2.37 1.01 3.95 2.7 5.08 4.37a63.52 63.52 0 0 0 7.33 8.29 3.26 3.26 0 0 0 -1.01-.23c-1.58-1.68-3.27-3.24-4.85-4.81zm-20.88-5.04c-1.8-.9-3.95-1-6.32-1.12.12 0 .23 0 .34-.11.34-.12 2.6 0 3.05 0 .9.11 1.58.33 2.37.56 1.58.33 3.04.9 4.4 1.68 1.47.67 2.7 1.68 3.95 2.46 3.16 1.9 6.54 3.36 10.04 4.92-.11 0-.11-.1-.23-.1-.56-.12-1.24-.12-1.8-.23-2.03-1.01-3.95-2.01-5.99-3.02-3.15-1.8-6.31-3.48-9.8-5.04zm0 0"/><path d="m18.35 49.93c-1.92-1-4.51-1.57-7.22-1.68.23-.1.34-.1.45-.22 2.37.11 4.51.22 6.32 1.12 3.5 1.56 6.66 3.24 9.81 5.04 2.04 1 3.96 2 5.99 3.02l-2.49-.34c-4.4-2.23-8.57-4.59-12.86-6.94zm0 0"/><path d="m27.71 56.31c-.22-.11-.67-.22-.9-.33-2.48-1.12-5.18-2.02-6.99-3.7a11.44 11.44 0 0 0 -6.55-3.35c-1.01-.23-2.14-.34-3.38-.23.45-.11.9-.34 1.24-.45 2.71.11 5.3.68 7.22 1.68 4.3 2.35 8.47 4.7 12.86 6.94-.9-.1-1.8-.22-2.7-.22-.34-.11-.56-.22-.8-.34zm0 0"/><path d="m6.62 49.7c1.01-.33 2.14-.66 3.27-1a11 11 0 0 1 3.38.23c2.94.45 4.97 1.78 6.55 3.35.56.56 1.36 1.01 2.14 1.46-.34-.12-.67-.22-1.01-.45a48.07 48.07 0 0 0 -14.33-3.58zm0 0"/><path d="m27.16 56.09c-5.54-1.68-10.95-3.36-16.37-4.93-1.91-.45-4.06-.55-6.32-.45.57-.44 1.36-.67 2.15-1 4.96.45 9.81 1.68 14.33 3.58.34.23.68.34 1.01.45 1.47.9 3.16 1.57 4.86 2.24.11 0 .22 0 .34.11zm0 0"/><path d="m13.72 53.18a32.33 32.33 0 0 0 -10.26-1.46v-.11c.22-.33.56-.67 1.01-.9 2.26-.1 4.4 0 6.32.45 5.42 1.57 10.84 3.25 16.37 4.93.1 0 .33.1.55.22.24.12.46.23.8.34-.46 0-.9 0-1.35-.11-4.41-1.12-8.92-2.13-13.44-3.36zm0 0"/><path d="m6.96 52.95c-1.25-.22-2.6-.22-4.07 0 .12-.44.34-.78.57-1.23 3.95-.11 7.1.56 10.26 1.46 4.52 1.23 9.03 2.24 13.44 3.36h-.68a302.5 302.5 0 0 0 -19.52-3.59zm0 0"/></g><path d="m6.96 52.95c-1.25-.22-2.6-.22-4.07 0 0 .23-.11.45-.22.67v.34c.9-.1 1.8-.1 2.7-.1-.9 0-1.8 0-2.7.1-.12.23-.23.34-.23.56-.11.12-.11.23-.22.34-.12.23-.34.45-.68.67-.23.11-.68.34-1.13.45 2.93 0 5.76 0 8.46.33h2.94c1.01 0 1.91-.11 2.93 0 1.58 0 3.16 0 4.74.23.56 0 1.13.1 1.7.1 1.12 0 2.14-.1 3.15-.1h2.15a302.5 302.5 0 0 0 -19.52-3.59zm0 0" fill="#499d3c"/><path d="m62.81 96.62c-.11-.23 0-.34 0-.56.11-.45.11-.79.23-1.23.56-1.01 1.24-1.8 1.91-2.58-1.12 1.8-1.35 4.14-1.35 6.27-.34-.11-.56-.22-.9-.33v-1.12c0-.12.11-.23.11-.45zm0 0" fill="#417b39"/><path d="m40.58 61.7c-3.04 1.1-5.87 2.79-9.03 3.57-.34.11-.67.11-1.12.11a8.81 8.81 0 0 0 -1.8-.78c-.12 0-.24-.11-.46-.11 4.51 0 8.12-1.9 11.85-3.7a12.54 12.54 0 0 1 4.96-1.34c.8.22 1.58.56 2.26.9v.1h-1.02c-1.92.12-3.83.57-5.64 1.24zm0 0" fill="#acc653"/><path d="m37.09 64.26c-.68.34-1.36.67-1.92 1.01.56-.34 1.24-.67 1.92-1zm17.26.79c-.56-.56-1.24-1.01-1.8-1.46a37.24 37.24 0 0 0 -3.5-2.24c-.57-.33-1.14-.67-1.81-.9h-1.02c-1.92.12-3.83.57-5.64 1.24-3.04 1.11-5.87 2.8-9.03 3.58-.34.11-.67.11-1.12.11.56.23 1.02.45 1.46.67l1.7 1.01h.1c.46.34.91.56 1.36.79.12-.12.12-.12.23-.12 4.29-.55 8.46-1.79 12.63-2.68 3.62-.79 6.9 1.45 9.26 3.02l.68.34a33.2 33.2 0 0 0 -3.5-3.36zm4.85 20.82a36.2 36.2 0 0 0 -4.17-2.13c.34.34.56.79.79 1.12.1.12.22.34.33.57.23.33.57.67.9 1 .12.11.34.11.46.22.67.34 1.01.9 1.35 1.57l.68 1.35c.34.78.8 1.67 1.58 2.12.11.11.23.22.34.22.34.34.56.8.67 1.35.12.56.23 1.23.23 1.8 0 1 0 2-.23 2.9.23.11.34.11.57.23v-1.12c0-.12.11-.79.11-1.01.11-.34.11-.56.11-.9.12-.33.12-.67.23-.9 0-.33 0-.55.11-.78v-.34c.12-.1.12-.33.12-.55 0-.23.1-.34.1-.56-.9-2.35-2.13-4.59-4.28-6.16zm0 0" fill="#417b39"/><path d="m57.06 83.74a10.67 10.67 0 0 1 6.54 7.17c0 .45-.11.78-.11 1.12-.9-2.35-2.14-4.59-4.3-6.16a36.2 36.2 0 0 0 -4.16-2.13l-.34-.67c-.12-.1-.23-.22-.23-.34.9.23 1.7.68 2.6 1.01zm0 0" fill="#acc653"/><path d="m54.91 82.29c3.72 1.45 7 3.02 8.69 6.38 0 .22.11.33.11.56 0 .56 0 1.12-.11 1.68a10.67 10.67 0 0 0 -6.54-7.17c-.9-.33-1.7-.78-2.6-1-.34-.34-.57-.68-.9-1.01.45.22.9.45 1.35.56zm0 0" fill="#acc653"/><path d="m57.62 81.95c3.16.67 4.74 3.7 5.64 6.16-1.8-3.02-4.85-4.37-8.35-5.82-.45-.11-.9-.34-1.35-.56-.34-.34-.68-.56-1.13-.9-.34-.22-.68-.44-.9-.67 1.92.9 4.06 1.35 6.09 1.79zm0 0" fill="#acc653"/><path d="m55.25 76.58c-1.92-.34-4.06-.12-6.2-.12.22.23.45.57.56.9.34.56.68 1.23 1.02 1.8.33.33.56.66.9 1 1.92.9 4.06 1.35 6.09 1.79 3.16.67 4.74 3.7 5.64 6.16l.12.11c0 .23.1.33.22.45 0 .22.11.33.11.56.12-.45.12-.78.12-1.23v-1.35c-1.02-4.14-3.62-9.06-8.58-10.07zm0 0" fill="#417b39"/><path d="m55.25 76.58c-1.92-.34-4.06-.12-6.2-.12-.34-.55-.68-1-1.02-1.34.45.11 1.02.22 1.58.22.8.12 1.58-.1 2.48-.1.23 0 .56-.12.68-.12 5.19.11 9.25 3.7 11.06 8.29v3.24c-1.02-4.14-3.62-9.06-8.58-10.07zm0 0" fill="#acc653"/><path d="m52.77 74.34c2.26-.11 4.29.33 6.1 1.23 2.48 1.23 4.05 3.7 4.84 6.16.12 0 .12.11.12.22v1.46c-1.8-4.59-5.87-8.18-11.06-8.29-.12 0-.45.11-.68.11-.9 0-1.69.23-2.48.11-.56 0-1.13-.1-1.58-.22-.45-.33-.9-.67-1.47-.78-.11 0-.22-.11-.45-.11 2.26.44 4.52.22 6.66.11zm0 0" fill="#acc653"/><path d="m59.65 70.64.23.23c-.23-.12-.45-.34-.68-.56.11.11.34.22.45.33zm0 0" fill="#417b39"/><path d="m55.82 68.07h-.12zm.67.34-.1-.11zm1.36.67c-.12-.11-.23-.11-.34-.23.1.12.22.12.34.23zm-.68-.34c0-.11-.11-.11-.11-.11s.1 0 .1.1zm1.92 1.12c-.34-.22-.8-.56-1.13-.67.34.11.79.45 1.13.67-.46-.56-.8-1-1.24-1.45l-.68-.34c-2.37-1.57-5.64-3.8-9.26-3.02-4.17.9-8.34 2.13-12.63 2.68-.11 0-.11 0-.23.12.9.33 1.7.67 2.6.89.67.11 1.35.45 2.03.9 1.35.22 2.71.33 4.06 0 3.95-.9 7.9-2.13 11.74-1.23 1.35.33 2.6 1.11 3.72 1.9.11.11.34.22.45.33-.22-.33-.34-.56-.56-.78zm-2.26 3.7a9.28 9.28 0 0 1 6.43 4.81c.12 1 .34 2.02.45 2.9v.46c-.79-2.46-2.36-4.93-4.85-6.16-1.8-.9-3.83-1.34-6.09-1.23-1.47.11-2.93.22-4.4.11.56 0 1.02-.11 1.58-.11 2.37-.56 4.62-1.23 6.88-.78zm0 0" fill="#acc653"/><path d="m46.11 74.23c-.45-.23-.9-.45-1.47-.79.9.12 1.8.12 2.6 0 1.58-.22 3.27-.78 4.96-1.12 1.81-.1 3.62-.1 5.3 0 2.04.12 3.5 1.24 4.75 2.47.11.11.11.33.11.44.45 1.01.68 2.13.9 3.14a9.28 9.28 0 0 0 -6.43-4.81c-2.26-.45-4.51.22-6.88.78-.56 0-1.02.11-1.58.11-.8 0-1.47-.11-2.26-.22zm0 0" fill="#acc653"/><path d="m62.13 74.56c-.22-.45-.45-1-.78-1.45-.12-.22-.23-.34-.34-.56-.34-.56-.8-1.12-1.13-1.68-.23-.12-.45-.34-.68-.56a11.55 11.55 0 0 0 -3.72-1.9c-3.84-.9-7.8.33-11.74 1.23a9.97 9.97 0 0 1 -4.06 0c.45.22.79.44 1.24.78.34.22.79.56 1.13.9.45.33.9.78 1.36 1.12.45.33.9.67 1.23 1 .9.12 1.8.12 2.6 0 1.58-.22 3.27-.78 4.96-1.12 1.81-.1 3.62-.1 5.3 0 2.04.12 3.5 1.24 4.75 2.47 0-.12 0-.12-.12-.23zm0 0" fill="#417b39"/><path d="m23.88 59.34a35.2 35.2 0 0 1 -10.27 1.79c-1.35-.23-2.6-.45-3.95-.79 1.58.23 3.16.34 4.74.34 2.83-.11 5.87-1.12 8.69-2.02a6.3 6.3 0 0 0 1.58-.45c.9-.44 1.8-.78 2.82-1.11.46-.12.9-.34 1.36-.45.22 0 .45 0 .67.11a22 22 0 0 0 -2.36 1.12c-1.02.45-2.04 1-3.28 1.46zm0 0" fill="#acc653"/><path d="m17.34 61.57c-1.13-.1-2.37-.22-3.73-.44 3.5-.11 7-.67 10.27-1.8 1.25-.44 2.26-1 3.28-1.45a22 22 0 0 1 2.36-1.12h1.02c-3.84 2.47-8.13 4.6-13.2 4.81zm14.44.23c-.9.33-2.03.67-3.05 1.12-.9.33-2.03.45-3.16.78-.45-.22-1.01-.45-1.46-.67.56 0 1.12-.11 1.7-.23 1.8-.44 3.49-.89 5.07-1.56a48.4 48.4 0 0 1 9.14-3.03c.22 0 .34.12.56.12.23.11.57.11.8.11-1.14.45-2.26 1-3.28 1.46-2.03.67-4.29 1.23-6.32 1.9zm0 0" fill="#acc653"/><path d="m30.77 63.37c-.9.22-1.7.56-2.72.78-.22 0-.44.11-.67.11-.68-.11-1.24-.33-1.8-.56 1.12-.33 2.25-.45 3.15-.78 1.02-.45 2.15-.79 3.05-1.12 2.03-.67 4.29-1.23 6.32-1.9 1.02-.45 2.14-1.01 3.27-1.46.34 0 .56.11.8.11l1.35.34c-.11.11-.11.11-.23.11a233.44 233.44 0 0 1 -12.52 4.37zm0 0" fill="#acc653"/><path d="m28.05 64.15c1.02-.22 1.81-.56 2.72-.78 4.28-1.35 8.35-2.8 12.52-4.37.12 0 .12 0 .23-.11.56.22 1.01.34 1.46.56-1.7.1-3.5.56-4.96 1.34-3.73 1.8-7.34 3.7-11.85 3.7a2.1 2.1 0 0 1 -.8-.23c.24 0 .46-.11.68-.11zm0 0" fill="#acc653"/><path d="m38.32 57.88c-.45-.11-1.01-.11-1.46-.22-.45 0-.9-.12-1.36-.23-.67-.11-1.24-.22-1.91-.22-.57-.11-1.13-.23-1.8-.23-.34-.1-.8-.1-1.25-.22-3.84 2.47-8.13 4.6-13.2 4.81.67.12 1.35.12 1.8.12.8 0 1.58.11 2.26.33.33.11.67.11 1.01.34.46.11.8.34 1.25.44.11.12.33.12.45.23.56 0 1.12-.11 1.7-.23 1.8-.44 3.49-.89 5.07-1.56a48.4 48.4 0 0 1 9.14-3.03c-.57-.1-1.13-.22-1.7-.33zm-31.02 1.79h-.12c.34 0 .9.12.9.12s-.56-.12-.79-.12zm0 0" fill="#417b39"/><path d="m7.4 59.67h-.1c.22 0 .78.12.78.12s-.56-.12-.9-.12c-.56-.22-1.01-.33-1.47-.67a196 196 0 0 0 18.17-.67h.57c-.46.11-.9.33-1.36.33-.11.12-.11.12-.22.12-1.92.45-3.95.78-5.98 1-3.17.23-6.32.12-9.48-.1zm13.66-1.67c-5.42.1-10.95.44-16.36.33-.34-.22-.68-.34-1.02-.56 7.68.9 15.35-.11 22.91-.79.68-.1 1.36-.22 2.03-.33h.23c-.46.11-.8.22-1.24.45-.12 0-.34 0-.45.11-1.93.56-4.07.67-6.1.78zm0 0" fill="#acc653"/><path d="m5.71 59c-.1 0-.23-.11-.23-.11-.33-.23-.55-.34-.78-.56 5.41.11 10.94-.22 16.36-.34 2.03-.1 4.17-.22 6.1-.78.1-.11.33-.11.45-.11h-.12c-1.01.33-1.92.67-2.82 1.11-.11 0-.11.12-.22.12h-.57a196 196 0 0 1 -18.17.67zm3.95 1.34c-.79-.22-1.58-.44-2.25-.67 3.16.23 6.31.34 9.48.12 2.03-.23 4.06-.56 5.98-1.01-2.83.78-5.64 1.79-8.47 1.9-1.58 0-3.16-.11-4.74-.34zm0 0" fill="#acc653"/><path d="m21.73 56.65h-.55c-.46 0-.91-.11-1.36-.11-3.73-.11-7.45-.23-11.17-.23-2.6-.33-5.42-.33-8.24-.33h-.34s.23.11.57.33c.34.12.67.23 1.01.45.34.11.68.22 1.02.45.1 0 .22.11.22.11 1.24 0 2.37.11 3.5.22 7 .34 13.88-.44 20.88-1-1.8 0-3.73 0-5.54.1zm0 0" fill="#417b39"/><path d="m3.68 57.77a6.94 6.94 0 0 1 -.79-.45c1.24 0 2.37.11 3.5.22 7 .34 13.88-.44 20.88-1 .44.1.9.1 1.35.1l-2.03.34c-7.56.68-15.23 1.68-22.9.79zm0 0" fill="#acc653"/><path d="m101.85 79.38s-2.03.33-2.93.78c-1.47.9-4.74 1.57-6.77 1.68-1.7.1-3.05 1-4.74 1.34-1.58.56-2.82 1.46-4.52 1.8-1.91.45-2.7 2.12-4.5 2.57-1.59.33-1.7 2.13-2.94 2.91-1.02.56-1.47 2.02-2.48 2.58-1.02.44-1.02 1.67-1.81 2.23-.9.45-.68 1.9-.57 2.8-.33.12-.45.12-.67.23 0-1.12-.22-2.47-1.24-3.36-1.47-1.23-3.16-3.25-3.16-5.15 0-1.12-1.13-2.35-.34-3.36.57-.67.34-1.45.34-2.13 0-1.12.45-2.01 1.35-2.8 1.81-1.45 3.27-3.47 5.65-4.36 2.14-.78 3.94-1.9 6.54-2.24 2.71-.34 5.42-1 8.24-.67 2.6.22 5.52.22 7.78 1.23 1.36.56 4.3 1 4.97 1.9.45.56 1.8 2.02 1.8 2.02zm0 0" fill="#499d3c"/><path d="m83.12 77.14a5.1 5.1 0 0 1 2.49-2.02c.9-.33 2.03-.56 3.16-.67-.23-.11-.57-.11-.91-.22-1.02.22-2.14.33-2.82.78-1.7.78-2.7 2.13-3.72 3.25l-3.05 3.02c.34-.22.68-.33 1.13-.44a56.51 56.51 0 0 0 3.72-3.7zm0 0" fill="#cedd8a"/><path d="m74.32 82.85c.23-.12.34-.34.45-.56.11 0 .11-.11.11-.11.46-.79 1.02-1.46 1.14-2.24v-.34c0-1-.23-2.13.67-3.02.34-.22.45-.45.68-.67.34-.23.79-.45 1.35-.57a10.1 10.1 0 0 1 1.92-.55c.11 0 .22-.12.45-.12.11 0 .23 0 .34-.1.57 0 1.12-.12 1.58-.23a8.75 8.75 0 0 1 3.83-.23c-.67.12-1.35.23-1.91.45-2.04.9-3.05 2.13-4.18 3.36-.34.45-.68.78-1.01 1.12-.11 0-.23.23-.34.33l-2.37 2.36c-.57.33-1.13.67-1.8 1.12l-1.02.67c-.23.22-.45.44-.68.56.34-.34.56-.79.8-1.23zm0 0" fill="#499d3c"/><path d="m81.32 78.26c1.01-1.12 2.03-2.47 3.72-3.25.68-.45 1.8-.56 2.82-.78h-.56c-.12-.12-.23-.12-.46-.12-.67.12-1.35.23-1.91.45-2.04.9-3.05 2.13-4.18 3.36-.34.45-.68.78-1.01 1.12-.11 0-.23.23-.34.33l-2.37 2.36c.34-.11.68-.34 1.13-.45h.11zm-6.1 1.45c-.22 1.24-.79 2.58-1.24 3.81l.34-.67c.23-.23.34-.45.56-.67.46-.79 1.02-1.46 1.14-2.24 0-1.24-.23-2.35.67-3.36l.68-.67c.34-.23.79-.45 1.35-.57.68-.22 1.58-.44 2.37-.67-.56.12-1.24.12-2.03.23-.23 0-.45 0-.68.11-.33.11-.79.33-1.01.45-1.58 1.23-1.8 2.68-2.15 4.25zm0 0" fill="#cedd8a"/><path d="m73.98 83.52c.45-1.23 1.02-2.57 1.24-3.8.34-1.58.57-3.03 2.15-4.26.22-.12.68-.34 1.01-.45-.33 0-.67 0-.9.11a5.99 5.99 0 0 0 -3.16 4.03c-.56 1.9-.9 3.81-1.47 5.6l.68-.67c.11-.22.23-.34.45-.56zm0 0" fill="#cedd8a"/><path d="m74.32 79.15a5.99 5.99 0 0 1 3.16-4.03c-.9.22-1.46.56-2.14 1a4.88 4.88 0 0 0 -1.58 1.91 10.68 10.68 0 0 0 -.8 3.25 20.58 20.58 0 0 1 -1.01 4.37c.34-.22.57-.56.9-.9.57-1.79.9-3.7 1.47-5.6zm0 0" fill="#cedd8a"/><path d="m71.95 85.65c.45-1.46.9-2.92 1.02-4.37.11-1.12.34-2.24.79-3.25.33-.67.79-1.34 1.58-1.9-.34.11-.68.23-1.02.45-.45.45-.79.9-1.01 1.34-1.36 2.92-1.7 6.04-2.26 8.96.22-.34.56-.78.9-1.23zm0 0" fill="#cedd8a"/><path d="m73.3 77.92c.23-.45.57-.9 1.02-1.34-.23.1-.45.1-.56.22-2.6 2.47-2.6 5.93-2.7 8.96 0 .45-.13.9-.13 1.34 0-.1 0-.1.12-.22.56-2.92.9-6.04 2.26-8.96zm0 0" fill="#cedd8a"/><path d="m68 83.4v.55c.23.45.34 1.02.57 1.47.33 1 .67 2.01 1.13 2.9.1.34.22.67.34.9 0-.11 0-.11.1-.23 0-.33.12-.55.23-.9 0-.1.11-.1.11-.22a13.41 13.41 0 0 0 .11-2.34c0 .78 0 1.56-.1 2.34 0-.1 0-.22.1-.33.12-.1.23-.34.34-.45 0-.45.12-.9.12-1.34.11-3.03.11-6.5 2.7-8.96-.22 0-.56.11-.78.23-.12 0-.23.1-.45.1-.12.12-.23.12-.34.12-.45.34-.8.56-1.13.9.34-.34.68-.56 1.13-.9a7.1 7.1 0 0 0 -1.59.78c-.55.34-1.01.79-1.35 1.24-.45.44-.79.9-1.24 1.34-.22.9-.11 1.79 0 2.8zm0 0" fill="#499d3c"/><path d="m68 85.87c.45.9 1.02 1.68 1.36 2.58.22.67.34 1.34.45 2.12.1-.44.1-.9.23-1.34-.12-.23-.23-.56-.34-.9-.46-.89-.8-1.9-1.13-2.9-.23-.45-.34-1.02-.57-1.47v-.55c-.11-1.01-.22-1.9 0-2.8-.11.1-.22.23-.45.34a9.62 9.62 0 0 0 -.11 3.58c.11.45.34.9.56 1.34zm0 0" fill="#cedd8a"/><path d="m68.68 88.33c-1.35-1.56-2.26-3.24-2.03-5.04.11-.67.22-1.34.45-2.01 0 .11-.11.23-.23.23l-.33.33c-.12.22-.23.34-.34.56-.45 1.34-.57 2.8.22 4.14.57.9 1.24 1.68 1.92 2.46.11.23.34.45.56.68.12.22.34.44.46.67.1.33.34.67.45 1v-.33c-.23-.9-.45-1.8-1.13-2.69zm0 0" fill="#cedd8a"/><path d="m68.68 88.33c.68.9.9 1.8 1.13 2.69v-.11-.34c-.11-.78-.23-1.45-.45-2.12-.34-.9-.9-1.68-1.36-2.58-.22-.44-.45-.9-.56-1.34a9.62 9.62 0 0 1 .11-3.58c-.11.1-.22.22-.45.33-.23.67-.34 1.34-.45 2.01-.23 1.8.68 3.48 2.03 5.04zm0 0" fill="#cedd8a"/><path d="m67.55 91.36a10.7 10.7 0 0 1 -2.03-1.8v.45a5.8 5.8 0 0 0 1.8 1.9c.68.45 1.47.68 2.04 1.35.1.22.34.33.45.56v-.23a6.16 6.16 0 0 0 -2.26-2.23zm0 0" fill="#cedd8a"/><path d="m65.18 86.43.11-.11c.12-.22.23-.45.23-.78.1.56.45 1.23.9 1.67 1.02 1.12 2.26 2.24 2.94 3.59.22.44.34.9.34 1.34v1.23c.1 0 .1.11.1.22a6.16 6.16 0 0 0 -2.25-2.23 10.7 10.7 0 0 1 -2.03-1.8c-.11-.78-.45-1.45-.57-2.24-.1-.22 0-.55.23-.89zm0 0" fill="#499d3c"/><path d="m69.36 90.8c.22.44.34.9.34 1.34 0-.23 0-.56.1-.78-.1-.34-.33-.68-.44-1.01-.12-.22-.34-.45-.46-.67a2.93 2.93 0 0 1 -.56-.68 20.16 20.16 0 0 1 -1.92-2.46c-.8-1.34-.67-2.8-.22-4.14.11-.22.22-.34.34-.56-.34.34-.57.56-.68.9-.23.44-.34.9-.34 1.34v1.46c.1.56.45 1.23.9 1.67 1.02 1.12 2.26 2.24 2.94 3.59zm.56 4.47c0-.11 0-.33-.11-.44-.45-1.12-1.58-1.9-2.7-2.58-.69-.34-1.02-1-1.48-1.57.23.56.46 1.01.68 1.57.68.79 1.7 1.23 2.37 1.8.45.33.9.78 1.24 1.22zm0 0" fill="#cedd8a"/><path d="m70.14 96.62v-.23c0-.1-.1-.22-.1-.33 0-.23-.12-.56-.12-.79-.34-.44-.8-.9-1.24-1.22-.68-.57-1.7-1.01-2.37-1.8.68 1 1.47 1.9 2.37 2.69.22.22.34.33.45.56.45.33.79.67 1.01 1.12zm0 0" fill="#499d3c"/><path d="m69.8 94.83v-1.01c-.1-.23-.33-.34-.44-.56-.57-.67-1.36-.9-2.03-1.35a5.8 5.8 0 0 1 -1.81-1.9c.1.23.1.45.1.67.47.56.8 1.23 1.48 1.57 1.13.68 2.26 1.46 2.7 2.58zm10.05-14.23c.22 0 .45-.1.56-.1 1.59-1.13 2.94-2.24 4.4-3.36a17.36 17.36 0 0 1 5.42-2.58c-.34 0-.56-.1-.9-.1-2.94 1-4.85 2.12-7 4.02-.79.67-1.58 1.46-2.48 2.13zm0 0" fill="#cedd8a"/><path d="m82.33 78.48a18.74 18.74 0 0 1 7-4.03h-.56c-1.13.11-2.26.34-3.16.67a5.1 5.1 0 0 0 -2.49 2.02 56.51 56.51 0 0 1 -3.72 3.7c.11-.12.34-.12.45-.23.9-.67 1.7-1.46 2.48-2.13zm0 0" fill="#cedd8a"/><path d="m84.59 79.6c2.14-1.12 4.18-2.46 6.43-3.36-2.25.9-4.29 2.24-6.43 3.36zm-4.18.9h.23c.22 0 .34-.11.56-.11 1.92-1.12 3.5-2.47 5.3-3.81-.67.56-1.35 1-2.02 1.56a33.35 33.35 0 0 1 -3.28 2.25h.23c.34-.12.57-.12.9-.23h.22c.46 0 .91-.11 1.36-.11.23-.11.57-.23.8-.34.44-.22 1-.44 1.58-.67.33-.11.55-.22.9-.34.79-.33 1.58-.78 2.25-1.23.79-.44 1.7-.9 2.6-1.23.45-.11 1.12-.33 1.69-.45.68-.1 1.35-.1 2.14-.1a2.1 2.1 0 0 1 -.79-.23l-.67-.34c-.23-.1-.57-.1-.9-.22-.35-.11-.8-.11-1.14-.11-.44-.12-.9-.12-1.35-.12-.34-.1-.56-.1-.79-.1a17.36 17.36 0 0 0 -5.42 2.57c-1.46 1.12-2.81 2.23-4.4 3.36zm0 0" fill="#499d3c"/><path d="m92.82 76.24a9.4 9.4 0 0 1 3.18-.44s-.12 0-.12-.1c-.22 0-1.35 0-1.57.1-.46 0-.8.12-1.14.12-.9.22-1.57.45-2.25.78-.68.34-1.36.78-2.03 1.12a49.95 49.95 0 0 1 -4.97 2.24l.12-.11c.22 0 .56 0 .9-.12 1.02-.44 2.03-.89 2.93-1.34a68.36 68.36 0 0 1 4.96-2.24zm0 0" fill="#cedd8a"/><path d="m92.6 76.58a8.99 8.99 0 0 1 3.61-.67c-.11-.12-.11-.12-.22-.12a9.4 9.4 0 0 0 -3.17.45c-1.69.67-3.38 1.46-4.96 2.24-.9.45-1.91.9-2.93 1.34.34 0 .79-.1 1.24-.1 2.14-1.02 4.29-2.02 6.43-3.14zm0 0" fill="#cedd8a"/><path d="m87.86 79.5c.23-.13.34-.13.45-.23 1.24-.45 2.71-.9 3.62-1.57a5.98 5.98 0 0 1 3.27-1.57c.45 0 1.01-.11 1.7-.11-.24 0-.46-.11-.69-.11-1.35 0-2.6.22-3.6.67-2.15 1.12-4.3 2.12-6.44 3.13.45 0 .9-.1 1.35-.1.12 0 .23-.12.34-.12zm0 0" fill="#cedd8a"/><path d="m98.47 76.58c-.45-.22-1.02-.34-1.58-.56-.68 0-1.24.1-1.7.1-1.57.24-2.48.9-3.26 1.58-.34.22-.68.44-1.14.67.23-.11.34-.11.57-.23 2.26-.89 4.63-1.45 7.1-1.56zm0 0" fill="#cedd8a"/><path d="m88.2 79.38c2.71-.79 5.53-1.46 8.24-2.13.9-.34 2.03-.34 3.16-.34-.34-.1-.68-.22-1.13-.33-2.48.1-4.85.67-7.11 1.56-.23.12-.34.12-.57.23-.78.33-1.58.67-2.48.9 0 0 0 .1-.11.1zm0 0" fill="#cedd8a"/><path d="m94.97 78.03c1.58-.33 3.16-.67 5.08-.56v-.11l-.45-.45c-1.13 0-2.26 0-3.16.34-2.71.67-5.53 1.34-8.24 2.13-.11 0-.22.11-.34.11-.11 0-.22.11-.34.11h.68c2.14-.56 4.51-1 6.77-1.57zm0 0" fill="#cedd8a"/><path d="m98.36 77.92h2.03c-.11-.11-.11-.33-.34-.45-1.92-.11-3.5.23-5.08.56-2.26.56-4.63 1.01-6.77 1.57h.34a150.8 150.8 0 0 1 9.82-1.68zm0 0" fill="#cedd8a"/><path d="m98.36 77.92h2.03c0 .11 0 .22.11.34v.11h-1.36 1.36c0 .11.11.22.11.33l.12.12.33.33c.12 0 .34.12.57.12-1.47 0-2.83.1-4.29.22h-2.93c-.8 0-1.59 0-2.37.11h-3.5a150.8 150.8 0 0 1 9.82-1.68zm0 0" fill="#499d3c"/><path d="m70.26 97.4v-.22c-.12-.23-.12-.34-.12-.56a3.2 3.2 0 0 0 -1.01-1.12 5 5 0 0 1 .79 2.8c.12-.11.22-.11.34-.11v-.56zm0 0" fill="#417b39"/><path d="m81.43 81.84c1.58.56 2.93 1.23 4.52 1.57.22.11.44.11.56.11.33-.11.56-.23.9-.34.11 0 .11 0 .23-.11-2.26.11-4.07-.78-5.87-1.68a17.5 17.5 0 0 0 -2.6-.55c-.34.1-.67.33-1.01.44h-.11.56c1.02.11 1.92.34 2.82.56zm-4.63 2.24c-.67 0-1.35.11-1.92.33.34-.1.8-.1 1.02-.1.45 0 .8 0 1.13.1.9.12 1.8.34 2.7.57.8.1 1.81.22 2.6 0h.22-.1c-1.8-.57-3.73-.9-5.65-.9zm0 0" fill="#acc653"/><path d="m84.14 84.64h.11l-.11-.11c-2.14-.23-4.3-.79-6.43-1.24-1.7-.22-3.39.79-4.63 1.35-.11.11-.23.11-.34.22a3 3 0 0 0 -.56.68c.79-.56 1.69-.9 2.7-1.13a5.35 5.35 0 0 1 1.92-.33c1.92 0 3.84.33 5.65.9h.1c.12 0 .34 0 .57-.12.34-.11.68-.22 1.02-.22zm0 0" fill="#acc653"/><path d="m84.14 83.4c-.23-.1-.57-.22-.9-.33.33.11.67.22.9.34zm-11.4 1.46c.11-.11.23-.11.34-.22 1.24-.56 2.94-1.57 4.63-1.35 2.14.45 4.29 1.01 6.43 1.24l.11.1c.23-.1.45-.22.68-.33v-.1c.34-.12.56-.24.9-.34l.68-.34c-.12 0-.34 0-.56-.11-1.59-.34-2.94-1.01-4.52-1.57-.9-.22-1.8-.45-2.82-.56h-.56c-.23.11-.57.34-.9.45l-1.7 1c-.34.23-.68.45-.9.56-.68.57-1.24 1.01-1.8 1.57zm-.67 7.84c.67-.45 1.35-.67 2.14-1-.23.1-.34.33-.45.44 0 .11-.12.22-.12.34-.22.1-.33.33-.45.45-.1 0-.22 0-.22.1-.34.11-.57.34-.8.68-.1.22-.1.34-.22.56-.22.33-.45.78-.79 1-.1 0-.1 0-.23.12-.1.11-.22.33-.34.56-.1.22-.1.55-.1.78 0 .45 0 .9.1 1.34-.1 0-.22 0-.33.12v-.56-.45c0-.11-.12-.23-.12-.34v-.45c0-.1-.1-.22-.1-.33v-.11c0-.12 0-.23-.12-.34v-.22c.45-1.01 1.01-2.02 2.15-2.69zm0 0" fill="#417b39"/><path d="m73.2 91.7a4.77 4.77 0 0 0 -3.28 3.24v.45c.45-1.01 1.01-2.02 2.15-2.69.67-.45 1.35-.67 2.14-1 0-.12.11-.23.11-.34.11 0 .11-.12.11-.12-.45.12-.79.34-1.24.45zm0 0" fill="#acc653"/><path d="m74.2 91.02c-1.8.67-3.49 1.34-4.28 2.91-.11 0-.11.12-.11.23 0 .22 0 .44.1.78a4.77 4.77 0 0 1 3.28-3.25c.45-.1.8-.33 1.24-.45.23-.1.34-.33.45-.44-.22.11-.45.22-.67.22zm0 0" fill="#acc653"/><path d="m72.85 90.91c-1.58.22-2.37 1.57-2.81 2.8.9-1.46 2.48-2.02 4.17-2.69.22 0 .45-.11.67-.22.23-.12.34-.23.57-.34s.34-.22.45-.33c-.9.33-2.03.55-3.05.78zm0 0" fill="#acc653"/><path d="m74.1 88.55c.9-.22 2.03-.1 3.04-.1-.1.1-.1.22-.23.44-.22.23-.34.45-.56.79l-.45.44c-.9.34-2.03.56-3.05.79-1.58.22-2.37 1.57-2.81 2.8-.12.1-.12.1-.12.22-.11 0-.11.12-.11.23v-.57c0-.22-.11-.45-.11-.66.56-1.8 1.8-4.04 4.4-4.38zm0 0" fill="#417b39"/><path d="m74.1 88.55c.9-.22 2.03-.1 3.04-.1.23-.23.34-.45.57-.57-.23 0-.57.12-.8.12-.45 0-.78-.12-1.23-.12h-.34a6.29 6.29 0 0 0 -5.64 3.7v1.35c.56-1.8 1.8-4.04 4.4-4.38zm0 0" fill="#acc653"/><path d="m75.34 87.55c-1.13-.1-2.15.11-3.05.45-1.36.55-2.03 1.68-2.48 2.8v.11c0 .22 0 .45-.11.67a6.29 6.29 0 0 1 5.64-3.7h.34c.44 0 .78.12 1.23.12.23 0 .57-.12.8-.12.22-.22.45-.33.67-.33.12-.1.23-.1.23-.1-1.02.21-2.15.1-3.27.1zm0 0" fill="#acc653"/><path d="m71.84 85.87-.11.11c.1-.1.22-.22.34-.22-.12 0-.12 0-.23.11zm0 0" fill="#417b39"/><path d="m83.12 84.86c-.9.23-1.8.34-2.6.23-1-.11-1.91-.34-2.81-.56-.46-.12-.9-.23-1.47-.23a7.3 7.3 0 0 0 -4.06 1.23l-.34.34c.1-.11.1-.11.23-.11a4.3 4.3 0 0 1 1.91-.9c1.92-.45 3.84.12 5.87.57.68.1 1.35.1 2.03 0 .34-.23.67-.34 1.01-.45.46-.12.91-.23 1.25-.34-.34 0-.68.11-1.02.22zm-9.92 2.24a4.73 4.73 0 0 0 -3.16 2.24c-.12.45-.12.78-.23 1.23v.23c.45-1.12 1.12-2.25 2.48-2.8.9-.34 1.92-.56 3.05-.45h2.14c-.23 0-.45 0-.79-.1a11.87 11.87 0 0 0 -3.5-.35zm0 0" fill="#acc653"/><path d="m78.6 87.44c.23-.12.57-.23.8-.34-.45 0-.9.11-1.35 0-.8-.1-1.59-.33-2.49-.45-.9-.1-1.8-.1-2.6 0a3.6 3.6 0 0 0 -2.48 1.01v.22c-.22.45-.34.9-.44 1.46.55-1 1.8-2.02 3.15-2.24 1.24-.1 2.37.11 3.5.34.34.11.56.11.79.11.45 0 .8 0 1.13-.1zm0 0" fill="#acc653"/><path d="m75.68 85.54c-.34-.11-.68-.11-1.02-.11.34 0 .68 0 1.02.1zm-5.2 2.12a3.6 3.6 0 0 1 2.49-1c.79-.12 1.69-.12 2.6 0 .9.11 1.68.33 2.48.44.45.11.9 0 1.35 0 .22-.1.45-.33.67-.45.12-.22.34-.33.57-.44.22-.23.45-.34.68-.45.11-.11.34-.22.56-.33-.68.1-1.35.1-2.03 0-2.03-.45-3.95-1.02-5.87-.57a4.3 4.3 0 0 0 -1.91.9c-.12 0-.23.11-.34.22-.23.23-.34.45-.57.67 0 .12-.1.23-.23.34-.1.22-.22.45-.34.56zm0 0" fill="#417b39"/><path d="m89.9 80.84c1.57.44 3.38.78 5.07.78l2.03-.34c-.79.11-1.58.11-2.37.11-1.47 0-2.93-.44-4.4-.9-.22 0-.56-.1-.79-.22-.45-.1-.9-.33-1.46-.45-.23-.1-.46-.1-.57-.22h-.45c.45.22.79.34 1.24.56.45.23 1.01.45 1.7.68zm0 0" fill="#acc653"/><path d="m93.16 81.84c.57-.11 1.14-.11 1.81-.22-1.69 0-3.5-.34-5.08-.78-.68-.23-1.24-.45-1.7-.68-.44-.22-.78-.34-1.23-.56-.12.11-.34.11-.45.11 1.92 1 4.06 2.02 6.65 2.13zm-7.33.11c.46.11 1.01.23 1.58.45.45.11 1.02.22 1.58.33.22-.1.45-.22.8-.33h-.92c-.9-.22-1.8-.45-2.58-.78-1.48-.45-2.94-1.01-4.52-1.35-.11.12-.23.12-.34.12h-.45l1.7.67c1 .33 2.13.56 3.15.89zm0 0" fill="#acc653"/><path d="m86.4 82.62 1.35.34c.1 0 .23 0 .34.11.34-.1.56-.22.9-.34-.56-.1-1.13-.22-1.58-.33-.57-.22-1.12-.34-1.58-.45-1.02-.33-2.14-.56-3.16-.9l-1.69-.66c-.12 0-.23.1-.34.1-.23 0-.45.12-.68.12 0 0 .11 0 .11.1 2.15.68 4.18 1.35 6.32 1.91zm0 0" fill="#acc653"/><path d="m87.75 82.96-1.36-.34c-2.14-.56-4.17-1.23-6.32-1.9 0-.11-.1-.11-.1-.11-.23.1-.57.1-.8.23.9.1 1.81.33 2.6.55 1.8.9 3.6 1.8 5.87 1.68h.45c-.11-.1-.23-.1-.34-.1zm0 0" fill="#acc653"/><path d="m82.55 80.16c.24 0 .57 0 .8-.11.22 0 .45 0 .68-.11.22 0 .56 0 .9-.12.34 0 .56 0 .9-.1h.68c1.92 1 4.06 2 6.65 2.12h-1.01c-.34 0-.68.1-1.02.1-.22.12-.34.12-.56.24-.23 0-.45.1-.68.22h-1.02c-.9-.22-1.8-.45-2.58-.78-1.48-.45-2.94-1.01-4.52-1.35.23 0 .56 0 .78-.1zm0 0" fill="#417b39"/><path d="m98.13 80.95h-.34.46c.22-.11.45-.11.67-.23-3.05 0-6.1-.11-9.03-.33h-.34c.23 0 .46.1.68.1l.11.12c1.02.23 2.03.34 3.05.34 1.58.1 3.16.1 4.74 0zm-6.88-.79c2.7.11 5.52.23 8.23.23a.84.84 0 0 1 .46-.23c-3.84.34-7.67-.11-11.51-.45-.34 0-.68 0-1.02-.1.11.1.34.1.57.21h.22c1.01.34 2.03.34 3.05.34zm0 0" fill="#acc653"/><path d="m98.92 80.72c.11 0 .11-.11.22-.11.12-.11.23-.11.34-.22-2.7 0-5.52-.12-8.23-.23-1.02 0-2.04 0-3.05-.34h-.22c.56.12 1.01.34 1.46.45l.11.12h.34c2.93.22 5.98.33 9.03.33zm-1.92.56c.34-.11.79-.22 1.13-.33-1.58.1-3.16.1-4.74 0-1.02 0-2.03-.11-3.05-.34 1.36.34 2.82.78 4.3.78.78 0 1.57 0 2.36-.11zm0 0" fill="#acc653"/><path d="m90.91 79.6h1.02c1.8-.1 3.72-.1 5.52-.1 1.35-.13 2.71-.23 4.18-.23.11.1.11.1.22.1 0 0-.1 0-.34.12-.1 0-.33.11-.56.11-.11.11-.22.22-.45.22 0 .12-.11.12-.11.12-.68 0-1.25 0-1.8.1-3.5.12-7-.22-10.4-.44zm0 0" fill="#417b39"/><path d="m99.94 80.16c.1-.11.34-.11.45-.22-.68 0-1.25 0-1.8.1-3.5.12-7-.22-10.4-.44h-.78c.34.11.68.11 1.02.11 3.84.34 7.67.79 11.5.45zm0 0" fill="#acc653"/><path d="m44.3 14.44c-.22.11 1.47 3.81 1.59 6.27 0 4.93 2.25 9.97 5.19 13.21 2.14 2.35 2.37 6.38 4.06 9.18 1.13 3.36 1.58 7.28 3.27 9.97 2.03 3.13 1.02 8.4 3.16 11.2 1.8 2.46.11 7.27 1.24 10.07 1.02 2.46.45 6.5 1.7 8.5 1.24 1.8.33 5.04 1.46 6.73 1.02 1.67.12 5.26-.56 7.5.45.33.68.45 1.13.78.33-2.8 1.35-6.16 3.27-7.72 3.27-2.47 6.43-5.6 8.24-9.86.9-2.35 3.5-3.91 3.38-6.6-.11-1.68.9-3.14 1.7-4.48 1.12-2.01 1.46-4.37 1.23-6.94-.45-5.04.34-10.41-.9-15.45-1.13-4.7-1.69-9.51-3.39-13.77-1.91-4.82-4.17-9.85-7.33-13.44-2.93-3.36-6.88-7.05-11.4-8.06-3.27-.67-7.1-3.02-10.38-1.12-1.8 1.12-6.66 4.03-6.66 4.03zm0 0" fill="#499d3c"/><path d="m71.39 32.46c.79-2.57 1.46-5.48 1.13-8.16-.23-2.25-.91-4.26-1.93-6.28l1.36 1.01c.9 1.9 1.47 3.92 1.47 5.72 0 4.36-1.24 8.73-2.03 12.87-.8 3.47-1.02 7.27-1.25 10.74-.22-.78-.44-1.56-.78-2.34.1-4.6.78-9.18 2.03-13.56zm0 0" fill="#cedd8a"/><path d="m72.85 56.65c0-.56.12-1.23.23-1.8 0-.1 0-.33.11-.44.34-2.13.68-4.48 1.92-6.38.11-.23.23-.34.34-.56 1.7-2.35 3.61-4.48 4.17-7.61.12-.79.34-1.46.45-2.24.12-1 0-2.02-.33-3.14-.34-1.23-.68-2.57-1.13-3.8-.11-.34-.11-.56-.23-.9l-.33-.67c-.46-1-.68-2.02-1.02-2.91-.57-1.57-1.01-2.91-1.92-4.37-.45-.56-1.02-1.12-1.7-1.8.46 1.35.91 2.7 1.02 3.93.23 4.59-.9 9.29-1.91 13.66-.34 1.23-.45 2.46-.57 3.7-.11.33-.22.89-.22 1.23-.46 2.9-.8 5.7-.9 8.5.33 1.57.67 3.02.9 4.48.22 1 .34 1.9.45 2.91 0 .67.11 1.23.22 1.9.12-1.23.34-2.35.45-3.7zm0 0" fill="#499d3c"/><path d="m71.39 37.62c.79-4.14 2.03-8.51 2.03-12.87 0-1.8-.57-3.81-1.47-5.72.23.22.57.45.8.56.22.23.44.34.67.45.45 1.34.9 2.69 1.01 3.92.23 4.59-.9 9.29-1.91 13.66-.34 1.23-.45 2.46-.57 3.7-.11.33-.22.89-.22 1.23-.46 2.9-.8 5.7-.9 8.5-.12-.78-.35-1.57-.57-2.35 0-.11 0-.22-.12-.34.23-3.47.45-7.27 1.25-10.74zm4.96 10.97c-1.69 3.02-2.82 6.6-3.72 10.07.11-.67.22-1.34.22-2.01s.23-1.45.34-2.24c.34-2.13.68-4.48 1.92-6.38 1.8-2.69 3.84-4.7 4.52-8.17.1-.79.33-1.46.44-2.24.12-1 0-2.02-.33-3.14l-1.36-4.7c.45 1 1.02 2.01 1.7 3.25.22.45.45.78.56 1.12.11.9.34 1.9.22 2.69-.45 4.36-2.59 8.16-4.5 11.75zm0 0" fill="#cedd8a"/><path d="m72.63 58.66c.9-3.46 2.03-7.05 3.72-10.07 1.92-3.59 4.06-7.4 4.51-11.75.12-.79-.1-1.8-.22-2.7.34.68.56 1.24.79 1.68.11 4.6-1.47 8.85-3.27 12.77-2.14 4.48-3.95 9.3-5.64 14.21 0-.78-.12-1.67-.12-2.46 0-.55.12-1.11.23-1.68zm0 0" fill="#cedd8a"/><path d="m78.16 48.59c1.8-3.92 3.38-8.18 3.27-12.77.45 1.9.57 3.36.68 5.04a24 24 0 0 1 -1.47 5.94c-1.02 2.8-2.37 5.26-3.73 7.84-1.91 3.35-3.15 7.16-4.17 10.85v.12c-.11-.9-.11-1.9-.22-2.8 1.69-4.93 3.5-9.74 5.64-14.22zm0 0" fill="#cedd8a"/><path d="m72.74 65.5c.9-3.7 2.26-7.5 4.17-10.86 1.36-2.58 2.72-5.05 3.73-7.84a24 24 0 0 0 1.47-5.94c0 .68.1 1.46.34 2.36-.23 1.56-.57 2.9-1.02 4.14-2.93 7.28-6.43 14.33-8.69 22.04v-3.8zm0 0" fill="#cedd8a"/><path d="m81.43 47.36c.45-1.23.79-2.58 1.02-4.14.1.44.1.78.34 1.23-1.25 8.28-5.65 15.22-8.92 22.39-.45 1-.79 2.01-1.13 3.02v-.45c2.26-7.72 5.76-14.77 8.69-22.05zm0 0" fill="#cedd8a"/><path d="m83.35 53.74-2.03 4.25zm.68 5.37c0-1.34.22-2.68.33-4.02.23-1.24.23-2.7.12-4.15-.12-1.12-.45-2.24-.8-3.47.12 1.12.12 3.24.12 3.24s0-2.12-.11-3.24c-.12-.22-.12-.45-.23-.67a3.43 3.43 0 0 1 -.23-.9c-.22-.56-.34-1-.44-1.45-1.25 8.28-5.65 15.22-8.92 22.39-.45 1-.79 2.01-1.13 3.02 0 .56-.11 1-.11 1.46 0 .22 0 .45-.11.67.56-1.9 1.35-3.7 2.25-5.38.8-1.45 2.6-4.03 2.6-4.03s-3.73 5.94-4.85 9.4v.12c0 .22 0 .45-.12.67 0 .67-.22 1.46-.33 2.13-.12.22-.12.44-.23.78.45-.67 1.01-1.23 1.47-1.79 1.46-1.9 2.93-3.7 4.51-5.48.79-.78 1.47-1.68 2.25-2.58l.68-1.01c1.13-1.9 2.37-3.7 3.28-5.7zm0 0" fill="#499d3c"/><path d="m78.05 69.97c-1.48 1.46-3.05 2.69-4.4 4.26a19.71 19.71 0 0 0 -2.49 4.59c.23-1.12.45-2.13.68-3.14.45-.67 1.01-1.23 1.47-1.79 1.46-1.9 2.93-3.7 4.51-5.48.79-.78 1.47-1.68 2.25-2.58l.68-1.01c1.13-1.9 2.37-3.7 3.28-5.7 0 .44.1.78.1 1.34a34.14 34.14 0 0 1 -3.94 7.16c-.68.9-1.47 1.57-2.14 2.35zm0 0" fill="#cedd8a"/><path d="m74.66 74.67c3.16-2.12 6.32-4.92 8.01-8.73.56-1.34 1.13-2.8 1.58-4.25 0 .11.11.33.11.56 0 .45.12.78.12 1.12-.12.45-.23.9-.34 1.45-.9 2.91-2.14 6.05-4.63 7.95-1.58 1.23-3.27 2.35-4.85 3.7l-1.35 1c-.46.34-.9.79-1.36 1.35-.45.56-.9 1.23-1.36 1.9.12-.22.12-.45.23-.67 1.02-2.13 2.15-4.14 3.84-5.38zm0 0" fill="#cedd8a"/><path d="m74.66 74.67c-1.7 1.24-2.82 3.25-3.84 5.38 0-.11.11-.23.11-.34.12-.22.12-.44.12-.78 0 0 0-.11.11-.11a19.71 19.71 0 0 1 2.48-4.59c1.36-1.57 2.93-2.8 4.4-4.26.68-.78 1.47-1.45 2.15-2.34 1.69-2.25 2.82-4.6 3.95-7.17 0 .33.11.78.11 1.23a48.76 48.76 0 0 1 -1.58 4.25c-1.69 3.81-4.85 6.6-8.01 8.73zm0 0" fill="#cedd8a"/><path d="m73.87 82.29a19.07 19.07 0 0 0 4.4-2.47c-.11.12-.11.34-.22.45 0 .23-.12.45-.23.68-1.13 1.11-2.48 2.23-3.95 2.68-1.35.56-2.82.78-3.95 2.02-.45.33-.8.78-1.13 1.23.11-.23.23-.56.23-.78 1.35-1.8 2.93-3.25 4.85-3.81zm0 0" fill="#cedd8a"/><path d="m81.43 73.67v-.23c0-.67.11-1.23.34-1.79a9.3 9.3 0 0 1 -2.82 2.69c-2.6 1.34-5.3 2.8-7.22 5.37a13 13 0 0 0 -1.7 3.02c-.11.34-.22.79-.33 1.13-.12.55-.34 1.12-.46 1.68-.11.22-.11.44-.22.56 1.35-1.8 2.93-3.25 4.85-3.81a19.07 19.07 0 0 0 4.4-2.47c.68-1.56 2.03-2.57 2.71-4.03.34-.45.45-1.12.45-2.12zm0 0" fill="#499d3c"/><path d="m71.73 79.71a13 13 0 0 0 -1.7 3.02c.23-.67.34-1.34.56-2.01.46-.67.91-1.34 1.36-1.9s.9-1.01 1.36-1.35l1.35-1c1.58-1.35 3.27-2.47 4.85-3.7 2.49-1.9 3.72-5.04 4.63-7.95.11-.56.22-1 .34-1.45.11.9 0 1.68-.12 2.46-.22 1-.56 1.9-1.01 2.9-.56.9-1.13 1.91-1.58 2.92a9.3 9.3 0 0 1 -2.82 2.69c-2.6 1.34-5.3 2.8-7.22 5.37zm-3.95 10.53c.1-.34.22-.79.33-1.12a10.57 10.57 0 0 1 5.87-4.48c1.24-.34 2.26-1.46 3.16-2.35-.68 1-1.24 1.79-2.03 2.8-1.47 1.34-3.27 1.68-4.74 2.8-.9.66-1.8 1.45-2.6 2.35zm0 0" fill="#cedd8a"/><path d="m66.76 93.6c0-.22.11-.46.11-.67.12-.23.23-.57.34-.79.23-.67.34-1.23.57-1.9.79-.9 1.69-1.69 2.6-2.36 1.46-1.11 3.26-1.45 4.73-2.8a44.7 44.7 0 0 1 -5.3 5.05c-.34.22-.68.55-.9 1-.8.67-1.47 1.46-2.15 2.46zm0 0" fill="#499d3c"/><path d="m68.11 89.12c.23-.79.46-1.57.68-2.24.34-.45.68-.9 1.13-1.23 1.13-1.24 2.6-1.46 3.95-2.02 1.47-.45 2.82-1.57 3.95-2.68-.11.44-.45.89-.68 1.34-.9.9-1.92 2.01-3.16 2.35a10.57 10.57 0 0 0 -5.87 4.48zm.91-44.12c-.23-.33-.34-.67-.57-1 0-4.7.45-9.4.9-14 .35-4.47.12-9.18-.56-13.65.34.33.79.67 1.13 1.11.8 6.39.56 12.88-.22 19.26-.46 2.8-.57 5.6-.68 8.28zm0 0" fill="#cedd8a"/><path d="m69.7 36.72a78.45 78.45 0 0 0 .22-19.26c.22.12.45.34.67.56a17.56 17.56 0 0 1 1.93 6.28c.33 2.68-.34 5.6-1.13 8.16a54.5 54.5 0 0 0 -2.03 13.56l-.34-1.02c.1-2.68.22-5.48.68-8.28zm0 0" fill="#cedd8a"/><path d="m65.18 26.09.57 10.18zm-1.13-6.84.8 17.59zm5.3 10.75c.35-4.47.12-9.18-.56-13.65l-1.01-1.01-1.7-1.68c-.56-.45-1.13-.78-1.69-1.12a4.55 4.55 0 0 0 -1.7-.67c-.33-.11-.78-.23-1.34-.34-.46 0-1.02 0-1.48-.11.91.9 1.7 2.01 2.15 3.24.34 1.13.68 2.36.8 3.47.33 2.25.33 4.48.33 6.73 0 2.12 0 4.14.34 6.15l.34 2.24c.22 1.23.45 2.46.78 3.59.12.45.23 1.34.46 1.67.45.79.9 1.46 1.35 2.13 0 .11.12.22.23.34.22.45.56 1 .79 1.45v.12c.11.1.22.22.22.33-.22-3.25-.22-6.5.12-9.85.1-2.13.45-4.26.67-6.5.34-3.13-.22-9.74-.22-9.74s.56 6.6.22 9.74c-.56 5.49-.9 10.76-.79 16.35.23.22.45.56.68.78 0 .11.11.23.11.34 0-4.7.45-9.4.9-14zm0 0" fill="#499d3c"/><path d="m62.02 17.02c-.22-2.24-1.24-3.92-2.48-5.71.1 0 .23.1.34.1.33 0 1.47 1.8 1.69 2.14.45.78.56 1.45.8 2.24.44 1.67.67 3.35.78 5.03.11 1.9 0 3.8 0 5.71.11 4.03.9 8.06 1.92 11.98l-.12-.11c-.34-.44-.56-1-.9-1.45a73.8 73.8 0 0 1 -1.13-7.28c-.33-4.25-.56-8.51-.9-12.65zm0 0" fill="#cedd8a"/><path d="m61.35 18.36c0-2.57-.9-5.04-2.26-7.16.1.1.34.1.45.1 1.24 1.8 2.26 3.48 2.48 5.72.34 4.14.57 8.4.9 12.65a73.8 73.8 0 0 0 1.13 7.28c-.45-.68-.79-1.24-1.24-1.9v-.12c-.9-5.37-1.24-10.97-1.46-16.57zm0 0" fill="#cedd8a"/><path d="m61 32.24c0-.33-.1-.78-.1-1.12-.69-2.8-1.47-5.7-1.02-8.95.56-2.92.79-5.94-.34-8.62a7.6 7.6 0 0 0 -1.58-2.58c.34.12.67.23 1.13.23a13.48 13.48 0 0 1 2.26 7.16c.22 5.6.56 11.2 1.46 16.57v.11c-.56-.67-1.01-1.34-1.58-2.01-.11-.23-.11-.57-.22-.79zm0 0" fill="#cedd8a"/><path d="m54.91 9.96c.9.34 1.92.68 3.05 1.01a7.6 7.6 0 0 1 1.58 2.58c1.13 2.68.9 5.7.34 8.62-.11 1.12-.11 2.13-.11 3.25 0-.45-.12-.9-.23-1.24-.9-5.26-2.26-9.4-4.63-14.22zm0 0" fill="#cedd8a"/><path d="m60.9 31.46a415.2 415.2 0 0 1 -5.2-16.68c-.56-1.9-1.69-3.58-3.16-4.93.8-.1 1.59 0 2.37.11a48.94 48.94 0 0 1 4.63 14.22c.1.34.23.79.23 1.24.22 2.01.67 3.91 1.12 5.7v.34zm0 0" fill="#cedd8a"/><path d="m55.48 19.25c-1.02-3.24-2.15-6.26-4.63-8.73l.11-.1a3.37 3.37 0 0 1 1.58-.57 10.98 10.98 0 0 1 3.16 4.93 415.2 415.2 0 0 0 5.2 16.68c.1.22.1.56.1.78.12.22.12.56.23.79-.22-.23-.45-.57-.79-.9-1.69-4.26-3.5-8.5-4.96-12.88zm0 0" fill="#cedd8a"/><path d="m51.64 14.44a5.8 5.8 0 0 0 -2.37-2.57c.45-.56 1.02-1.01 1.58-1.35 2.48 2.47 3.61 5.49 4.63 8.73 1.46 4.38 3.27 8.63 4.96 12.88-.1-.11-.23-.34-.33-.45-2.83-5.82-5.54-11.53-8.47-17.24zm0 0" fill="#cedd8a"/><path d="m51.64 14.44a5.8 5.8 0 0 0 -2.37-2.57c-.34.22-.56.56-.9.78-.12.11-.23.23-.34.45l1.7 1.68-1.7-1.68c-.23.22-.57.45-.8.67-.1.11-.33.22-.44.34-.34.22-.68.44-1.02.44-.45.11-.79.11-1.24-.1 1.8 1.9 3.5 3.68 4.86 5.93.33.33.78.67 1.12 1.12.34.22.57.44.8.67.56.56 1.23 1.12 1.8 1.79.9 1 1.92 2.13 2.7 3.24.34.45.68.9.9 1.35.68.56 1.36 1.12 2.04 1.79l1.36 1.34c-2.83-5.82-5.54-11.53-8.47-17.24zm0 0" fill="#499d3c"/><path d="m66.2 95.6c0-.21.11-.44.11-.66.23-.45.34-.9.45-1.35.68-1 1.35-1.79 2.14-2.46-1.35 1.8-2.14 4.37-2.36 6.72-.34-.22-.45-.33-.68-.45.1-.45.1-.9.23-1.34 0-.11.1-.23.1-.45zm0 0" fill="#417b39"/><path d="m65.07 46.24c-2.82-.45-5.87 0-8.46-.67-.34-.12-.68-.23-.9-.45-.12-.67-.34-1.35-.57-2.02-.11-.1-.23-.22-.23-.33 3.16 2.23 7 2.12 10.5 2.12 1.35-.1 2.93.56 4.17 1.46l.68 2.35c-.22-.11-.45-.34-.68-.56a12.46 12.46 0 0 0 -4.51-1.9zm2.93 10.74c.9.68 1.58 1.68 2.14 2.8a5.2 5.2 0 0 0 -2.81-2.35c-1.36-.56-3.05-.78-4.52-1.23a8.94 8.94 0 0 1 -3.72-2.46c0-.12-.12-.22-.23-.34.11 0 .23.12.23.12 3.27.22 6.2 1.57 8.91 3.46zm0 0" fill="#acc653"/><path d="m57.17 50.6c.11 0 .11 0 .22.11 3.28 1.35 7 2.13 10.39 3.48 2.7 1 3.72 5.26 4.51 8.06.11.22.23.45.23.67.1.67.1 1.45.1 2.13-.55-1.9-1.23-3.7-2.48-5.26a7.81 7.81 0 0 0 -2.14-2.8c-2.7-1.9-5.64-3.25-8.91-3.47 0 0-.12-.12-.23-.12-.11-.22-.34-.45-.56-.78-.34-.56-.68-1.34-1.13-2.01zm0 0" fill="#acc653"/><path d="m61 47.36h-2.03zm11.07 10.18-.34-2.34c-.34-1.46-.57-2.92-.9-4.37-.24-.67-.35-1.35-.57-2.13-.22-.11-.45-.34-.68-.56a12.46 12.46 0 0 0 -4.51-1.9c-2.82-.45-5.87 0-8.46-.67-.34-.12-.68-.23-.9-.45.22.56.33 1.12.44 1.57.23.78.34 1.45.57 2.12v.23c.11.55.34 1 .45 1.57.11 0 .11 0 .22.1 3.28 1.35 7 2.13 10.39 3.48 2.7 1 3.72 5.26 4.51 8.06.11.22.23.45.23.67-.12-1.8-.23-3.58-.45-5.38zm-5.98 24.97c-.68-1.34-1.59-2.57-2.38-3.92 0 .56.12 1.12.12 1.57 0 .23.1.56.1.79.12.56.23 1 .35 1.45.11.11.22.22.22.45.45.56.57 1.34.68 2.24 0 .56 0 1.12.11 1.56 0 1.12.23 2.24.68 2.92 0 .1.12.22.12.44.22.45.22 1.01.22 1.57 0 .67 0 1.46-.11 2.13-.23 1.12-.45 2.24-.8 3.36.23.1.35.1.46.33.1-.45.1-.9.23-1.34 0-.11.22-.9.22-1.12l.34-1.01c.11-.34.11-.67.22-1 .12-.23.23-.57.34-.79 0-.1 0-.23.12-.34 0-.22.1-.44.22-.67 0-.22.11-.33.11-.56-.1-2.91-.33-5.7-1.57-8.06zm0 0" fill="#417b39"/><path d="m65.18 79.27c2.03 2.68 2.93 6.16 2.93 10.07-.1.45-.33.78-.45 1.23-.1-2.91-.33-5.7-1.57-8.06-.68-1.34-1.59-2.57-2.38-3.92 0-.33-.11-.56-.11-.9v-.44c.56.56 1.01 1.34 1.58 2.02zm0 0" fill="#acc653"/><path d="m64.05 76.91c2.26 3.03 4.3 5.82 4.63 9.97v.56c-.23.67-.45 1.23-.57 1.9 0-3.91-.9-7.4-2.93-10.07-.57-.68-1.02-1.46-1.58-2.02l-.34-1.46c.34.45.57.79.8 1.12zm0 0" fill="#acc653"/><path d="m66.31 77.47c2.14 1.8 2.26 5.71 2.26 8.74-.46-3.92-2.37-6.5-4.52-9.3-.22-.33-.45-.67-.79-1.12-.11-.45-.22-1-.45-1.45a2.23 2.23 0 0 1 -.34-1.23 15.95 15.95 0 0 0 3.84 4.36zm0 0" fill="#acc653"/><path d="m66.76 70.53c-1.24-1.23-2.93-1.9-4.51-2.8v3.81c0 .56.11 1.12.22 1.57a15.95 15.95 0 0 0 3.84 4.36c2.14 1.8 2.26 5.71 2.26 8.74v.11c0 .22.11.33.11.56v.56c.11-.34.22-.79.34-1.23.1-.45.34-1.01.45-1.46.45-4.81.45-10.86-2.7-14.22zm0 0" fill="#417b39"/><path d="m66.76 70.53c-1.24-1.23-2.93-1.9-4.51-2.8 0-.67 0-1.45-.12-2.01.34.44.68.78 1.02 1 .56.46 1.24.57 1.92.9.11.11.45.23.56.23 3.73 2.57 5.08 8.4 4.85 13.43-.34 1.12-.67 2.24-1.01 3.47.45-4.81.45-10.86-2.7-14.22zm0 0" fill="#acc653"/><path d="m65.97 66.95c1.7.9 2.93 2.24 3.84 4.03 1.24 2.35 1.46 5.6 1.24 8.4-.12.11-.12.22-.12.33-.22.56-.34 1.13-.45 1.57.23-5.04-1.12-10.86-4.85-13.43-.11 0-.45-.12-.56-.22-.68-.34-1.36-.45-1.92-.9a4.4 4.4 0 0 1 -1.02-1.01 4.3 4.3 0 0 0 -.56-1.46c-.11-.11-.22-.33-.34-.44 1.36 1.56 3.05 2.34 4.74 3.13zm0 0" fill="#acc653"/><path d="m72.74 66.16v.34c-.11-.34-.22-.56-.22-.9 0 .23.1.34.22.56zm0 0" fill="#417b39"/><path d="m58.3 52.62a9.67 9.67 0 0 0 3.27 3.14c1.47.67 3.16.89 4.74 1.22.8.23 1.47.45 2.14 1.01a8.48 8.48 0 0 1 1.7 1.8 15.03 15.03 0 0 1 2.48 5.26c0 .33.11.67.11 1.11-.11-.22-.22-.33-.22-.55-.34-1.35-.91-2.8-1.59-3.8-2.14-2.92-5.52-3.7-8.9-4.6-1.02-.23-1.92-1.12-2.72-2.01a9.09 9.09 0 0 0 -.9-2.13 8.52 8.52 0 0 1 -1.24-2.46c.45.67.79 1.34 1.13 2.01zm11.06 15.23c1.8 1.9 2.48 5.04 2.48 7.94-.23 1.01-.57 2.13-.79 3.14v.44c.22-2.8 0-6.04-1.24-8.39a8.89 8.89 0 0 0 -3.84-4.03c-1.13-.56-2.26-1.12-3.27-1.79.45.22.79.33 1.24.45 2.03.55 3.95.78 5.42 2.24zm0 0" fill="#acc653"/><path d="m61.23 63.82a6.65 6.65 0 0 1 -.56-1.57c.56.45 1.13 1 1.7 1.23 1.34.45 2.81.45 4.17 1 1.35.68 2.59 1.46 3.83 2.36 1.36 1.12 1.92 3.02 2.26 4.81 0 .12-.11.34-.11.45a21.1 21.1 0 0 1 -.68 3.7c0-2.91-.68-6.05-2.48-7.95-1.47-1.46-3.4-1.69-5.42-2.24a5.63 5.63 0 0 1 -1.24-.45c-.45-.45-1.02-.78-1.47-1.34zm0 0" fill="#acc653"/><path d="m69.24 62.36-1.46-.79zm2.49 1.68-7.57-5.15zm.9 7.28c0-.57.11-1.24.11-1.8v-.78-2.24c-.11-.34-.22-.56-.22-.9-.34-1.34-.91-2.8-1.59-3.8-2.14-2.91-5.52-3.7-8.9-4.59-1.02-.23-1.92-1.12-2.72-2.01.12.56.23 1 .34 1.56l.34 1.68c.12.67.12 1.35.22 1.9.12.68.23 1.35.46 1.9.56.46 1.13 1.01 1.7 1.24 1.34.45 2.81.45 4.17 1 1.35.68 2.59 1.46 3.83 2.36 1.36 1.12 1.92 3.02 2.26 4.81zm0 0" fill="#417b39"/><path d="m56.15 33.48a15.33 15.33 0 0 1 -8.12-3.59 46.59 46.59 0 0 1 -1.92-3.36c.9 1.12 1.7 2.36 2.71 3.14 1.92 1.68 4.74 2.01 7.33 2.69.46.1.9.22 1.36.22 1.01 0 1.8.11 2.82.45.34.1.79.1 1.13.22.11.23.22.45.45.56-.9 0-1.7-.11-2.48-.11-1.02 0-2.15 0-3.28-.22zm0 0" fill="#acc653"/><path d="m49.95 32.7-1.92-2.8a15.33 15.33 0 0 0 8.12 3.58c1.13.22 2.26.22 3.28.22.78 0 1.58.1 2.48.1.11.24.34.46.45.8-4.63.22-7.9.1-12.41-1.9zm9.25 8.73c-.79-.12-1.8-.34-2.7-.45-1.02-.12-1.81-.57-2.83-.79a8.92 8.92 0 0 0 -.45-1.68c.45.23.8.56 1.35.67 1.47.45 2.94.79 4.52.9 2.82.22 5.64.56 8.12 1.9.12.23.23.34.23.57.11.22.34.44.45.55-1.02-.1-2.14-.22-3.16-.44-1.8-.23-3.72-1.01-5.53-1.23zm0 0" fill="#acc653"/><path d="m57.4 42.77c-.8-.22-1.58-.34-2.37-.56-.23-.11-.46-.11-.57-.23a8.8 8.8 0 0 1 -.8-1.79c1.03.22 1.82.67 2.83.79.9.1 1.92.33 2.7.45 1.82.22 3.73 1 5.54 1.23 1.02.22 2.14.33 3.16.44.11.23.34.45.45.56.23.45.45.9.56 1.23h-.22c-3.73-.78-7.45-1.45-11.29-2.12zm0 0" fill="#acc653"/><path d="m55.03 42.2c.79.23 1.58.35 2.36.57 3.84.67 7.56 1.34 11.29 2.12h.22c.23.56.46 1.01.68 1.46-1.24-.9-2.82-1.57-4.17-1.46-3.5 0-7.34.11-10.5-2.12a1.83 1.83 0 0 1 -.45-.79c.11.12.34.12.57.23zm0 0" fill="#acc653"/><path d="m66.42 40.64c-.22-.45-.56-.78-.8-1.23-.21-.34-.44-.67-.67-1.01-.34-.56-.56-1-.9-1.56l-1.01-1.35a6.47 6.47 0 0 0 -.68-.9c-4.63.23-7.9.12-12.41-1.9.45.56.79.9 1.13 1.23a4.77 4.77 0 0 1 1.57 2.7c.23.43.34.89.46 1.45 0 .1.1.22.1.44.46.23.8.56 1.36.67 1.47.45 2.94.79 4.52.9 2.82.22 5.64.56 8.12 1.9-.22-.44-.56-.9-.79-1.34zm-21.22-16.46-.1-.11.56.56s-.34-.22-.45-.45zm0 0" fill="#417b39"/><path d="m45.2 24.3v-.12c.12.23.46.45.46.45l-.56-.56c-.12-.56-.23-1.23-.34-1.79a172.9 172.9 0 0 0 12.18 10.08c.12.1.23.22.34.22-.34 0-.79-.12-1.13-.22-.1 0-.22-.12-.22-.12a16.03 16.03 0 0 1 -4.63-2.24c-2.25-1.56-4.17-3.7-6.1-5.7zm10.28 5.82c-3.61-3.14-7.23-6.16-10.72-9.4v-1.47c4.51 5.5 9.6 9.07 15 13 .57.33 1.02.66 1.59.89 0 .11 0 .11.1.11-.33-.11-.67-.11-1-.22-.24 0-.34-.12-.46-.12-1.7-.55-3.16-1.68-4.51-2.8zm0 0" fill="#acc653"/><path d="m44.76 22.28v-.45-1.12c3.5 3.25 7.1 6.27 10.72 9.4 1.35 1.12 2.82 2.25 4.5 2.8.13 0 .23.12.46.12h-.1a8.3 8.3 0 0 0 -2.83-.45h-.23c-.11 0-.22-.12-.34-.22a172.9 172.9 0 0 1 -12.18-10.08zm1.35 4.25c-.34-.78-.68-1.56-.9-2.23 1.92 2 3.84 4.14 6.1 5.7 1.34 1.01 2.92 1.68 4.62 2.24-2.48-.56-5.2-.89-7.11-2.57-1.02-.78-1.8-2.02-2.7-3.14zm0 0" fill="#acc653"/><path d="m57.06 28.89-.34-.34a9.15 9.15 0 0 1 -.68-1.12 416.32 416.32 0 0 0 -6.77-7.16 33.49 33.49 0 0 0 -4.74-5.83h-.23s0 .22.12.67c0 .34.11.79.11 1.35 0 .33.11.78.11 1.23v.44c.8.68 1.47 1.69 2.03 2.36 4.07 4.48 9.03 8.06 13.88 11.75a32.76 32.76 0 0 0 -3.5-3.35zm0 0" fill="#417b39"/><path d="m44.76 19.25c0-.44 0-.78-.12-1.12.8.68 1.47 1.69 2.03 2.36 4.07 4.48 9.03 8.06 13.88 11.75.23.34.57.56.8.9-.57-.23-1.02-.56-1.58-.9-5.42-3.92-10.5-7.5-15.01-12.99zm0 0" fill="#acc653"/><path d="m113.93 44.9c.1.22-2.48 2.35-3.39 4.14-1.8 3.47-5.3 6.38-8.69 7.83-2.25.9-3.94 3.81-6.2 5.26-2.03 2.02-3.84 4.82-5.98 6.17-2.6 1.56-3.84 5.7-6.32 7.04-2.37 1.12-2.82 5.27-4.63 6.84-1.58 1.45-2.7 4.59-4.29 5.6-1.58.89-2.14 3.58-3.5 4.47-1.35.9-2.03 3.8-2.36 5.6-.46.11-.68.11-1.02.22.68-2.24 1.24-5.03.34-6.83-1.47-2.9-2.71-6.15-2.48-9.85.22-2.12-1.13-4.14 0-6.05.68-1.23.45-2.57.45-3.8-.11-1.9.45-3.8 1.58-5.49 2.14-3.58 3.5-7.72 6.2-10.96 2.6-3.03 4.74-6.39 7.56-8.85 3.16-2.91 6.55-5.71 10.16-7.28 3.39-1.45 7.56-2.8 11.17-1.9 2.71.56 6.32.23 8.01 2.68.9 1.46 3.39 5.15 3.39 5.15zm0 0" fill="#499d3c"/><path d="m87.64 48.81c.45-2.12.9-4.48 2.14-6.38a20.29 20.29 0 0 1 3.72-3.92l-1.35.34a9.87 9.87 0 0 0 -3.16 3.7c-1.58 3.13-2.26 6.71-3.16 9.96a59.97 59.97 0 0 1 -3.04 8.28c.44-.45.9-1 1.46-1.45a44.22 44.22 0 0 0 3.39-10.53zm0 0" fill="#cedd8a"/><path d="m77.82 65.94c.23-.45.34-1 .45-1.45.11-.11.11-.23.11-.34.57-1.68 1.13-3.47.9-5.26v-.56c-.33-2.35-1-4.48-.22-6.94.11-.68.23-1.23.45-1.8.23-.78.68-1.56 1.35-2.23.68-.79 1.47-1.57 2.15-2.36l.56-.55c.12-.12.34-.23.46-.34l1.8-1.79c.9-1 1.8-1.8 2.94-2.46.56-.34 1.24-.56 1.91-.79-.79.79-1.58 1.57-2.14 2.47-1.8 3.24-2.71 7.05-3.61 10.63-.23.9-.45 1.9-.9 2.92-.12.22-.12.67-.23.89a89.33 89.33 0 0 1 -2.48 6.5c-.8 1-1.58 2-2.26 3.01-.45.56-.9 1.24-1.35 1.9-.34.46-.57.9-.9 1.35.33-.9.67-1.9 1.01-2.8zm0 0" fill="#499d3c"/><path d="m85.83 52.5c.9-3.24 1.58-6.82 3.16-9.95a9.87 9.87 0 0 1 3.16-3.7c-.34 0-.56.11-.8.11-.22 0-.44.11-.67.11-.79.79-1.58 1.57-2.14 2.47-1.8 3.24-2.71 7.05-3.61 10.63-.23.9-.45 1.9-.9 2.92-.12.22-.12.67-.23.89a89.33 89.33 0 0 1 -2.48 6.5c.45-.46.79-1.02 1.23-1.46l.24-.23a59.97 59.97 0 0 0 3.04-8.28zm-7.56 6.28c.11 2.8-.45 5.82-1.02 8.62.23-.45.34-1 .57-1.46.23-.56.34-1.12.56-1.8.57-1.67 1.13-3.46.9-5.25-.22-2.7-1-4.82-.22-7.5.11-.68.23-1.23.45-1.8.23-.78.68-1.56 1.35-2.23.91-.9 1.81-1.9 2.71-2.91-.68.55-1.46 1.12-2.37 1.79-.34.22-.67.45-.9.67-.45.56-.9 1.23-1.13 1.8-1.24 3.35-1.01 6.82-.9 10.07zm0 0" fill="#cedd8a"/><path d="m77.25 67.4c.57-2.8 1.13-5.83 1.02-8.62-.11-3.25-.34-6.83.9-10.08.23-.56.68-1.23 1.13-1.79-.45.34-.79.67-1.13.9-1.8 3.35-2.14 6.94-2.26 10.4-.1 4.04-.56 8.07-1.12 12.21l1.01-1.68c.23-.44.34-.9.45-1.34zm0 0" fill="#cedd8a"/><path d="m76.91 58.21c.12-3.46.46-7.05 2.26-10.4a17.14 17.14 0 0 0 -2.37 3.47 24.4 24.4 0 0 0 -1.12 4.81 47.34 47.34 0 0 0 -.12 6.94c.23 3.13-.22 6.27-.9 9.4.45-.66.79-1.34 1.13-2a113.7 113.7 0 0 0 1.11-12.23zm0 0" fill="#cedd8a"/><path d="m74.66 72.44a32.8 32.8 0 0 0 .9-9.4c-.11-2.36-.11-4.6.12-6.95a24.4 24.4 0 0 1 1.12-4.81c-.23.44-.56 1-1.12 1.56a19.64 19.64 0 0 0 -.68 3.36c-.57 6.27-.57 12.65-1.7 19.03.46-.89.9-1.79 1.36-2.8zm0 0" fill="#cedd8a"/><path d="m75 56.2c.1-1.11.34-2.13.68-3.36-.12.23-.34.45-.57.78-2.14 6.39-1.47 13-1.7 19.38-.1.78-.1 1.67-.22 2.57 0-.11.12-.23.12-.34 1.12-6.38 1.12-12.76 1.69-19.03zm0 0" fill="#cedd8a"/><path d="m71.16 63.93.11-3.8zm-2.03 5.15c0 .33.11.67.11 1l.68 2.69c.56 1.8 1.01 3.7 1.35 5.49l.34 1.79c.12-.23.12-.34.12-.56.22-.56.34-1.12.56-1.8 0-.1.11-.22.11-.44l.12-.11c.45-2.91-.12-8.4-.12-8.4s.34 2.46.45 3.7c0 1.56-.1 3.13-.33 4.7 0-.11 0-.34.1-.45.23-.33.35-.78.57-1.12.12-.9.12-1.79.23-2.57.22-6.39-.45-13 1.69-19.38-.34.23-.56.57-.9.9-.12.23-.34.34-.57.57-.1.1-.22.22-.33.44-.57.67-1.24 2.24-1.24 2.24s.67-1.57 1.24-2.24a11.6 11.6 0 0 0 -1.92 2.24 17.7 17.7 0 0 0 -1.35 3.02c-.46 1.01-.8 2.13-1.25 3.03-.11 1.79.23 3.47.34 5.26zm0 0" fill="#499d3c"/><path d="m69.24 73.78c.57 1.56 1.24 3.02 1.58 4.7.34 1.23.34 2.69.23 4.14.22-.9.34-1.67.56-2.57l-.34-1.8c-.34-1.79-.79-3.69-1.35-5.48l-.68-2.69c0-.33-.11-.67-.11-1-.11-1.8-.45-3.47-.34-5.26-.22.33-.34.67-.56 1-.12 2.24-.12 4.37.34 6.6.11.8.33 1.58.67 2.36zm0 0" fill="#cedd8a"/><path d="m69.92 78.48c-1.47-2.69-2.7-5.82-2.6-9.18 0-1.23.23-2.46.34-3.7 0 .12-.1.34-.22.45-.23.23-.34.45-.45.68-.12.45-.23.78-.34 1.23-.45 2.46-.56 5.15.45 7.38.68 1.46 1.58 2.8 2.26 4.37.22.45.34.79.56 1.24.22.33.45.89.45 1.34.22.67.34 1.23.34 1.9 0-.23.11-.45.11-.56 0-1.9-.1-3.7-.9-5.15zm0 0" fill="#cedd8a"/><path d="m69.92 78.48c.8 1.46.9 3.25.9 5.15v-.34c.11-.1.11-.33.23-.56v-.1c.11-1.46.11-2.92-.23-4.15-.34-1.68-1.01-3.14-1.58-4.7a9.23 9.23 0 0 1 -.67-2.35 25.88 25.88 0 0 1 -.34-6.61c-.12.23-.34.45-.57.79-.1 1.23-.33 2.46-.33 3.7-.12 3.35 1.12 6.48 2.59 9.17zm0 0" fill="#cedd8a"/><path d="m65.75 71.1c.1-.8.22-1.69.34-2.47a8.49 8.49 0 0 0 -.34 2.46zm0 0" fill="#417b39"/><path d="m67.78 84.2c-.9-.9-1.7-2.02-2.26-3.25 0 .1-.11.22-.11.44v.45a10.65 10.65 0 0 0 1.8 3.36c.8.9 1.81 1.45 2.26 2.8.1.45.23.78.34 1.23 0-.23 0-.34.1-.56a8.4 8.4 0 0 0 -2.13-4.48zm0 0" fill="#cedd8a"/><path d="m65.4 75.34.12-.1c.23-.45.34-1.01.34-1.46.23 1 .45 2.01 1.13 2.9 1.35 1.91 2.82 3.82 3.27 6.39.22.9.22 1.8.11 2.8 0 .23-.11.56-.11.9-.12.44-.22.89-.22 1.45-.12.11-.12.23-.12.45a8.4 8.4 0 0 0 -2.14-4.48c-.9-1-1.7-2.01-2.26-3.24 0-1.35-.57-2.58-.57-3.92 0-.45.12-1.01.46-1.69zm0 0" fill="#499d3c"/><path d="m70.26 83.07c.22.9.22 1.8.11 2.8l.34-1.68c0-.67-.12-1.23-.34-1.9a2.7 2.7 0 0 0 -.45-1.34c-.22-.45-.34-.79-.56-1.24-.68-1.57-1.58-2.9-2.26-4.37-1.01-2.23-.9-4.92-.45-7.38.11-.45.22-.78.34-1.23-.45.67-.68 1.34-.9 1.9-.12.78-.23 1.68-.34 2.46.1.9.22 1.8.1 2.7.24 1 .46 2 1.14 2.9 1.35 1.9 2.82 3.8 3.27 6.38zm-.9 9.07c0-.34.1-.67.1-1a7.97 7.97 0 0 0 -2.7-5.27c-.67-.67-1.01-1.8-1.35-2.8.11.9.22 1.8.45 2.8.56 1.45 1.7 2.35 2.48 3.58.45.79.68 1.68 1.02 2.7zm0 0" fill="#cedd8a"/><path d="m68.9 94.83c0-.12 0-.34.12-.45 0-.22 0-.45.1-.67 0-.57.12-1.12.24-1.57-.34-1-.57-1.9-1.02-2.69-.79-1.23-1.92-2.13-2.48-3.58a28.2 28.2 0 0 0 2.03 5.37c.11.34.22.8.34 1.12.34.78.56 1.57.67 2.47zm0 0" fill="#499d3c"/><path d="m69.47 91.13c.1-.67.23-1.23.34-1.9-.11-.45-.23-.78-.34-1.23-.45-1.35-1.47-1.9-2.26-2.8s-1.35-2.13-1.8-3.36v1.23c.34 1 .68 2.13 1.35 2.8a7.97 7.97 0 0 1 2.7 5.26zm15.34-32.35c.23-.23.57-.45.8-.57a107.5 107.5 0 0 0 4.5-10.52 43.23 43.23 0 0 1 5.31-9.73c-.45.1-.79.22-1.24.33a63.37 63.37 0 0 0 -6.77 14.22c-.79 2.13-1.7 4.25-2.6 6.27zm0 0" fill="#cedd8a"/><path d="m87.41 52.5a63.37 63.37 0 0 1 6.77-14.21c-.22.1-.45.22-.68.22a20.29 20.29 0 0 0 -3.72 3.92c-1.24 1.9-1.7 4.26-2.14 6.38a44.22 44.22 0 0 1 -3.39 10.53c.23-.23.34-.45.56-.56.9-2.02 1.81-4.14 2.6-6.27zm0 0" fill="#cedd8a"/><path d="m90.34 53.52 4.18-7.17zm.57.67 6.88-12.43zm-5.3 4.02.22-.22.68-.33a98.42 98.42 0 0 0 5.42-12.2c.9-2.36 3.72-6.95 3.72-6.95s-2.83 4.48-3.72 6.94c-.57 1.68-1.14 3.48-1.81 5.05a47.76 47.76 0 0 1 -3.61 7.16c.11-.12.22-.12.33-.23h.12c.34-.33.68-.56 1.13-.78 0-.11.1-.11.22-.22.56-.34 1.24-.67 1.8-1.01.23-.22.68-.78.91-1.12.57-.78 1.25-1.57 1.92-2.35.34-.56.68-1.01 1.02-1.57.9-1.34 1.69-2.8 2.36-4.26.91-1.67 1.7-3.35 2.71-4.8.57-.8 1.25-1.58 1.92-2.25.8-.78 1.8-1.23 2.71-1.68-.34-.1-.68-.22-1.13-.34-.34-.21-.68-.21-1.13-.33-.45-.1-.9-.1-1.35-.1-.57.1-1.13.22-1.7.33-.56.22-1.24.34-1.8.67-.45.1-.79.22-1.13.34a43.23 43.23 0 0 0 -5.3 9.73 107.5 107.5 0 0 1 -4.51 10.52zm0 0" fill="#499d3c"/><path d="m100.16 40.75c.9-1.57 2.26-2.46 3.84-3.24-.11 0-.23-.12-.34-.12-.23-.1-1.7.79-1.92 1-.68.46-1.01.9-1.46 1.35-.9 1.01-1.7 2.24-2.37 3.48-.8 1.23-1.36 2.8-2.04 4.03a46 46 0 0 1 -5.75 8.17l.11-.11c.34-.22.8-.45 1.13-.79a54.29 54.29 0 0 0 3.5-4.93c1.8-2.9 3.5-5.93 5.3-8.84zm0 0" fill="#cedd8a"/><path d="m100.05 41.87a12.26 12.26 0 0 1 4.29-4.36h-.34c-1.58.78-2.94 1.67-3.84 3.24-1.8 2.91-3.5 5.94-5.3 8.84a54.29 54.29 0 0 1 -3.5 4.93c.57-.33 1.13-.56 1.7-.9 2.59-3.69 4.85-7.72 6.99-11.75zm0 0" fill="#cedd8a"/><path d="m95.3 52.17c.12-.22.35-.56.46-.67 1.58-1.9 3.16-3.8 3.95-6.27.68-2.35 1.58-4.59 3.38-6.16a8.7 8.7 0 0 1 2.15-1.34c-.23 0-.56-.11-.9-.22a12.26 12.26 0 0 0 -4.3 4.36c-2.13 4.03-4.4 8.06-6.99 11.76.57-.34 1.13-.68 1.8-.9.12-.22.35-.34.46-.56zm0 0" fill="#cedd8a"/><path d="m107.83 38.07c-.79-.11-1.57-.23-2.59-.34a8.7 8.7 0 0 0 -2.15 1.34c-1.8 1.57-2.7 3.8-3.38 6.16-.23.9-.57 1.68-1.01 2.35.22-.22.33-.56.56-.78a42 42 0 0 1 8.57-8.73zm0 0" fill="#cedd8a"/><path d="m95.65 51.6c3.38-3.35 6.65-6.82 9.81-10.29a10.43 10.43 0 0 1 4.07-2.57 3.75 3.75 0 0 0 -1.7-.67 42 42 0 0 0 -8.57 8.73c-.23.22-.34.56-.56.78-.91 1.46-1.93 2.69-2.94 3.92 0 0 0 .1-.11.1zm0 0" fill="#cedd8a"/><path d="m104 44.67c2.03-2.01 3.95-3.92 6.54-4.81v-.12c-.33-.44-.56-.78-1.01-1a10.43 10.43 0 0 0 -4.07 2.57 281.93 281.93 0 0 1 -9.81 10.3c-.12.23-.23.45-.34.56-.11.22-.34.34-.45.56.22-.1.56-.34.9-.45 2.82-2.46 5.64-4.92 8.24-7.6zm0 0" fill="#cedd8a"/><path d="m108.52 42.43c.78-.56 1.69-1 2.7-1.12a4.3 4.3 0 0 0 -.68-1.45c-2.6.9-4.51 2.8-6.54 4.81-2.6 2.69-5.42 5.15-8.24 7.61.11 0 .34-.1.45-.22a944.7 944.7 0 0 1 12.3-9.63zm0 0" fill="#cedd8a"/><path d="m108.52 42.43c.78-.56 1.69-1 2.7-1.12.11.34.23.67.34.9.11.22.11.34.22.45-.67.22-1.91.67-1.91.67s1.24-.45 1.91-.67c0 .33.12.56.23.78.11.11.11.33.23.45.22.22.33.56.56.67.34.22.56.33.9.33a23.5 23.5 0 0 0 -5.64 2.7l-1.24.33c-.23.11-.56.22-.8.22-.67.22-1.23.45-1.91.79-1.13.33-2.14.9-3.27 1.45-.34.12-.68.33-1.13.56l-2.03.67c-.57.11-1.02.34-1.47.45a944.7 944.7 0 0 1 12.3-9.63zm0 0" fill="#499d3c"/><path d="m68.57 96.5c.11-.1.11-.33.11-.55 0-.34.11-.68.22-1.12-.1-.9-.33-1.69-.67-2.47.34 1.8-.12 3.92-.68 5.71.23-.1.34-.1.56-.1l.34-1.02c0-.1 0-.22.12-.45zm0 0" fill="#417b39"/><path d="m87.18 61.02c2.26.55 4.3 1.9 6.55 2.35.23.1.45.1.79 0 .34-.45.68-.79 1.13-1.24.11-.1.22-.1.34-.22-3.17.56-5.87-.78-8.47-2.01a5.34 5.34 0 0 0 -3.5-.34c-.56.45-1 .9-1.47 1.46.24-.12.46-.12.68-.23a9.28 9.28 0 0 1 3.95.23zm-5.86 6.83c-1.02.22-1.8.67-2.6 1.23a2.33 2.33 0 0 1 1.35-.56 6.59 6.59 0 0 1 1.47-.22c1.25.1 2.6.55 3.73.78 1.12.1 2.48-.11 3.6-.56.12-.11.23-.11.23-.22h-.1a13.72 13.72 0 0 0 -7.68-.45zm0 0" fill="#acc653"/><path d="m91.36 66.84h-.11c-2.94-.11-5.87-.79-8.8-1-2.38-.23-4.63 2.57-6.21 4.24-.11.23-.34.34-.45.45-.34.56-.57 1-.9 1.57a14.29 14.29 0 0 1 3.83-3.02c.8-.56 1.58-1.01 2.6-1.23 2.59-.56 5.19-.45 7.67.45h.11c.34-.12.57-.23.8-.34zm0 0" fill="#acc653"/><path d="m91.25 63.93-1.36-.68zm-15.46 6.6c.1-.1.33-.22.45-.45 1.58-1.67 3.83-4.47 6.2-4.25 2.94.22 5.87.9 8.81 1h.1l1.03-1 .1-.11c.34-.45.68-.9 1.14-1.34.22-.34.56-.68.9-1.01-.34.1-.56.1-.79 0-2.26-.45-4.29-1.8-6.55-2.35a9.28 9.28 0 0 0 -3.95-.23c-.22.11-.44.11-.68.23-.33.44-.78.9-1.12 1.34-.79.9-1.47 1.9-2.26 2.8-.34.56-.79 1.12-1.12 1.68a63.82 63.82 0 0 0 -2.26 3.7zm-2.49 16.47c1.02-.68 2.15-1.24 3.16-2.02-.22.45-.44.78-.67 1.12 0 .22-.11.33-.23.55-.34.34-.56.67-.9.9l-.23.22c-.56.34-.9.9-1.35 1.46-.23.34-.45.78-.68 1.12-.33.78-.9 1.56-1.47 1.9-.1 0-.22.11-.34.23-.22.22-.55.66-.78 1.11-.23.46-.45 1.01-.57 1.57l-.67 2.69c-.23 0-.23 0-.46.11l.34-1c0-.12.23-.79.23-1.01 0-.23.11-.45.11-.79.11-.22.11-.56.23-.78 0-.22 0-.45.1-.67v-.33c0-.24 0-.34.12-.57v-.45c1.13-2.01 2.37-4.03 4.07-5.37zm0 0" fill="#417b39"/><path d="m75.22 84.98c-2.48 1.23-4.4 3.47-5.75 6.38-.11.33-.11.67-.23 1 1.13-2.01 2.37-4.03 4.07-5.37 1.01-.67 2.14-1.23 3.15-2.01.23-.23.34-.34.45-.57 0-.1.12-.22.23-.33-.68.22-1.35.67-1.92.9zm0 0" fill="#acc653"/><path d="m76.91 83.63c-2.82 1.46-5.3 2.8-7 5.71-.1.11-.1.34-.21.45-.12.56-.23 1-.23 1.57 1.35-2.91 3.27-5.15 5.75-6.38.57-.23 1.24-.68 1.92-.9l.68-1.01c-.34.22-.68.45-.9.56zm0 0" fill="#acc653"/><path d="m75 83.3c-2.15.66-3.61 3.35-4.86 5.6 1.8-2.7 4.18-3.92 6.77-5.27.23-.11.57-.34.91-.56l.9-.9.68-.66c-1.35.89-2.94 1.34-4.4 1.78zm0 0" fill="#acc653"/><path d="m77.25 78.14c1.25-.55 2.82-.44 4.3-.55-.23.33-.35.67-.57 1-.23.56-.57 1.23-.9 1.8-.12.45-.34.78-.68 1.12-1.35.89-2.94 1.34-4.4 1.78-2.15.67-3.61 3.36-4.86 5.6v.11c-.1.12-.1.23-.22.34-.11.11-.11.34-.22.45.1-.34.1-.67.22-1 0-.46.12-.9.22-1.35 1.36-3.58 3.62-7.95 7.11-9.3zm0 0" fill="#417b39"/><path d="m77.25 78.14c1.25-.55 2.82-.44 4.3-.55.22-.56.45-1.01.78-1.46-.33.23-.79.45-1.13.45-.56.1-1.13 0-1.69 0h-.45c-3.72.56-6.77 4.37-8.47 8.06-.1 1-.33 1.9-.45 2.8 1.36-3.58 3.62-7.95 7.11-9.3zm0 0" fill="#acc653"/><path d="m79.06 75.8a7.4 7.4 0 0 0 -4.18 1.56c-1.8 1.34-3.04 3.59-3.95 5.71 0 .11-.1.22-.1.22 0 .45-.12.9-.24 1.35 1.7-3.7 4.75-7.5 8.47-8.06h.45c.56 0 1.13.1 1.7 0 .33 0 .79-.22 1.12-.45.34-.34.68-.67 1.02-.79.11-.1.22-.22.34-.22-1.58.56-3.05.56-4.63.67zm0 0" fill="#acc653"/><path d="m74.55 72.89c-.12.1-.12.1-.23.22l.56-.56zm0 0" fill="#417b39"/><path d="m89.9 67.96a7.12 7.12 0 0 1 -3.5 1.12c-1.36 0-2.6-.45-3.95-.67a3.7 3.7 0 0 0 -1.92 0c-.68.11-1.24.33-1.92.67-1.47.78-2.6 1.79-3.73 3.02-.1.22-.22.45-.33.79l.33-.34a7.8 7.8 0 0 1 2.49-2.24c2.6-1.46 5.3-.79 8.12-.34.9.23 1.81-.11 2.7-.45a4.8 4.8 0 0 1 1.48-1.22c.56-.45 1.12-.9 1.69-1.46l-1.47 1.12zm-13.55 7.27c-2.03.79-3.72 2.8-4.74 4.93-.22.9-.34 1.68-.56 2.57-.12.12-.12.23-.12.34.9-2.12 2.15-4.37 3.95-5.71a7.4 7.4 0 0 1 4.18-1.57c1.01-.1 2.03-.1 3.05-.22-.34 0-.68 0-1.02-.11-1.7-.34-3.16-.79-4.74-.23zm0 0" fill="#acc653"/><path d="m83.69 75.12c.34-.22.67-.56 1.01-1a5 5 0 0 1 -1.69.33c-1.13-.11-2.26-.67-3.39-.67-1.24 0-2.48.11-3.72.45-1.35.33-2.48 1.45-3.38 2.68 0 .12 0 .23-.12.34-.33 1-.56 1.9-.8 2.91 1.03-2.13 2.72-4.14 4.75-4.93 1.58-.56 3.05-.1 4.74.23.34.11.68.11 1.02.11a8.59 8.59 0 0 0 1.58-.45zm0 0" fill="#acc653"/><path d="m79.74 71.2-1.36.12zm3.6-.67-7.44 1.12zm-10.82 6.38c.9-1.23 2.03-2.35 3.38-2.68 1.24-.34 2.48-.45 3.72-.45 1.13 0 2.26.56 3.4.67a5 5 0 0 0 1.68-.34c.34-.33.57-.78.9-1.22a5 5 0 0 0 .9-1.24c.34-.33.57-.78.91-1.12.23-.33.57-.67.79-1-.9.33-1.8.67-2.7.44-2.83-.45-5.54-1.12-8.13.34a7.8 7.8 0 0 0 -2.49 2.24l-.56.56c-.23.56-.56 1.12-.79 1.68a.86.86 0 0 0 -.22.55l-.68 1.35s0 .11-.11.22zm0 0" fill="#417b39"/><path d="m98.36 54.75c2.37.78 4.85.9 7.33.22.79-.56 1.7-1.23 2.6-1.79-1.13.56-2.15 1-3.17 1.34-2.03.57-4.17-.22-6.32-.56-.33-.1-.78-.1-1.12-.34a6.97 6.97 0 0 0 -2.15-.67c-.33 0-.56-.1-.9-.1-.22 0-.33.1-.56.22a8.8 8.8 0 0 1 1.8.78c.8.34 1.58.67 2.49.9zm0 0" fill="#acc653"/><path d="m103.1 56.31c.79-.33 1.69-.78 2.6-1.34-2.49.67-4.97.56-7.34-.22-.9-.23-1.7-.56-2.49-.9a8.8 8.8 0 0 0 -1.8-.78 2.6 2.6 0 0 0 -.57.33c3.27 1.8 5.64 2.8 9.6 2.91zm-9.82 3.14c.68.22 1.47.34 2.14.67.68.22 1.58.22 2.26.34l1.02-1.01c-.45 0-.8.1-1.25 0a13.31 13.31 0 0 1 -3.61-.9c-2.14-.78-4.29-1.45-6.54-1.34-.23 0-.34.11-.46.22-.1.11-.33.23-.55.34.9.22 1.69.56 2.48.78 1.46.34 3.04.45 4.51.9zm0 0" fill="#acc653"/><path d="m94.07 61.02c.68.22 1.35.33 2.03.44.11 0 .34.11.45.11.45-.33.79-.67 1.13-1.11-.68-.12-1.58-.12-2.26-.34-.67-.33-1.46-.45-2.14-.67-1.47-.45-3.05-.56-4.51-.9-.8-.22-1.59-.56-2.48-.78-.12.11-.34.11-.46.22-.34.22-.56.45-.9.67.11 0 .11.12.22.12 2.94.67 5.98 1.56 8.92 2.24zm0 0" fill="#acc653"/><path d="m96.1 61.46c-.68-.1-1.35-.22-2.03-.44-2.94-.68-5.98-1.57-8.92-2.24-.1 0-.1-.12-.22-.12-.34.34-.68.57-.9.9a5.34 5.34 0 0 1 3.5.34c2.59 1.23 5.3 2.57 8.46 2.01.22-.1.33-.22.56-.34-.11 0-.34-.1-.45-.1zm0 0" fill="#acc653"/><path d="m88.31 56.43c.34-.23.68-.34 1.02-.56.34-.23.56-.34.9-.56s.8-.56 1.24-.79c.34-.22.8-.45 1.13-.67.34-.11.56-.33.9-.45 3.27 1.8 5.64 2.8 9.6 2.91-.46.23-.8.34-1.25.56-.45.11-1.01.45-1.46.79a1.4 1.4 0 0 0 -.57.55l-.9.9c0 .12-.12.23-.22.34-.45 0-.8.1-1.25 0a13.31 13.31 0 0 1 -3.61-.9c-2.14-.78-4.29-1.45-6.54-1.34.34-.34.68-.56 1.01-.78zm21.44-4.59.12-.12c-.23.12-.57.23-.57.23s.23-.11.45-.11zm0 0" fill="#417b39"/><path d="m109.75 51.84c-.22 0-.45.1-.45.1s.34-.1.57-.22c.34-.44.56-.78.9-1.22a173.5 173.5 0 0 1 -12.52 3.24h-.34c.22.11.56.11.9.22h.22c1.36.11 2.82.11 4.18-.1 2.14-.34 4.4-1.24 6.54-2.02zm-9.7.66c3.84-1 7.56-2 11.28-3.13.23-.44.34-.78.57-1.12-5.3 2.46-10.27 3.36-15.69 4.37-.56.11-1.01.11-1.46.11l-.12.11c.23 0 .57.11.8.11.1 0 .33 0 .44.12 1.36.11 2.83-.12 4.18-.56zm0 0" fill="#acc653"/><path d="m110.77 50.5c0-.12.11-.23.11-.34.11-.23.34-.57.45-.78-3.72 1.12-7.56 2.12-11.28 3.13-1.35.44-2.82.67-4.18.56-.1-.12-.34-.12-.45-.12h.11c.8.12 1.47.34 2.15.67.1 0 .1.12.23.12h.34c4.17-.9 8.34-2.02 12.52-3.24zm-2.48 2.68c.45-.45 1.01-.9 1.46-1.34-2.14.78-4.4 1.68-6.54 2.01-1.36.22-2.82.22-4.18.11 2.03.45 4.06 1.13 6.1.56 1.01-.33 2.03-.78 3.16-1.34zm0 0" fill="#acc653"/><path d="m99.37 51.05c.11 0 .23 0 .34-.11.34-.11.68-.33 1.02-.44 2.48-1.13 4.96-2.14 7.44-3.03 1.81-1.12 3.61-1.9 5.53-2.58h.23s-.12.23-.34.56c-.12.23-.34.57-.57.9-.1.22-.33.56-.56.9 0 .1-.11.22-.11.22-.9.33-1.58.78-2.37 1.12-4.63 1.9-9.48 2.69-14.33 3.7 1.24-.45 2.48-.9 3.72-1.24zm0 0" fill="#417b39"/><path d="m111.9 48.25c.1-.22.22-.45.45-.78-.9.33-1.58.78-2.37 1.12-4.63 1.9-9.48 2.69-14.33 3.7a3.3 3.3 0 0 1 -.9.44c.45 0 .9 0 1.46-.1 5.42-1.02 10.38-1.92 15.69-4.38zm0 0" fill="#acc653"/><path d="m90.34 99.98c0 4.7-9.81 8.5-21.89 8.5-11.96 0-21.78-3.8-21.78-8.5s9.82-8.62 21.78-8.62c12.08 0 21.9 3.91 21.9 8.62zm0 0" fill="#8d613d"/><path d="m86.17 133.23h-35.2l-7.8-36.28h50.79l-7.8 36.28zm0 0" fill="#df8d57"/><path d="m68.8 96.95h-25.63c2.6 12.1 5.2 24.19 7.78 36.28h17.85zm0 0" fill="#cc7e40"/><path d="m48.7 122.93c-1.8-8.63-3.72-17.25-5.52-25.98 1.8 8.73 3.72 17.35 5.53 25.98zm0 0" fill="#c4b5a2"/><path d="m68.8 108.6v-11.65h25.16c-.46 2.24-1.02 4.48-1.47 6.72h-1.13a53.86 53.86 0 0 0 -22.57 4.93zm0 0" fill="#b67449"/><path d="m49.16 124.94c-.11-.67-.34-1.34-.45-2.01-1.81-8.63-3.73-17.25-5.53-25.98h25.61v11.65c-7.9 3.58-14.9 9.06-19.63 16.34zm0 0" fill="#a66638"/><path d="m42.16 103h52.7v-6.6h-52.7zm0 0" fill="#df8d57"/><path d="m42.16 103h26.52v-6.6h-26.52zm0 0" fill="#cc7e40"/></svg>