<svg xmlns="http://www.w3.org/2000/svg" width="173" height="265" viewBox="0 0 130 199"><g fill-rule="evenodd"><path d="M31 196H17c-2-1-5-5-4-6l3-3zm0 0" fill="#2b2a29"/><path d="M40 66l-3 1-1 1-1 1-2 1v1h-1l-1 1h-2l-1 1-2 3h-1l-2 1-1 1h-1v1h-1l1 1h-1l-1 1v1h-1v1h-1v1l-2 1v1l-1 2-1 1-1 1v2h-1v2h-1l-1 1v1l1-1-1 2H7h2l-2 1 2 1-3 1v1l1-1-1 1v3l-1 1v1h1l-1 3-1 1v2l-1 1-1 1v2l-1 1 1 1-1 1v3l-1 1v3-2 7l1 1H0v1l1 2s-1 1 0 1v-1 3l1 1v2s-1 0 0 0v3l1 4 1 1v2-1 5l1 1v2l1 4v5h1v3l2 1v4H7s2 2 0 2l-1 1h1v4-1 2l2-1v1H7h2v5l-2 1h2v1h1v1h1s-1 1 0 1h1v2s1 0 0 0h1v1h1-1c1 0 0 0 0 0h1l1 1h5l8-5 39-86s-4-18-8-22c-6-4-19-17-19-17zm0 0" fill="#2f2b2a"/><path d="M19 188l1-4-1 1v-3l-1 2v-4l-1 2v-7c0-2-3 4-3 4l1-9c0-2-1 1-1 1v-5l-1 2 1-6-2 2v-1h-2l1-3c0-2-1 0-1 0l1-7-2 4 1-6-1 2 1-3-3 2 3-4-3 1 5-5-5 2 3-3-3 1 3-4-3 1 3-3-4 1 3-3-3 1 3-4 3-6h-1l1-3-2 2 2-4h-2l2-1h-2l2-1H7s3-3 5-3h-2l2-1-2-1 2-2-2 1 3-3h-2l3-2c2-2-3 0-3 0l4-3h-3l3-1-2-1 4-1h-2l4-3 8-5c5-5 11-8 11-8l39 96-3 7-6 6H51l-25-1zm0 0" fill="#282726"/><path d="M55 180l-1-1-1-1v1l-1-1v-1 1l-1-1-1-2h-1l-1-1-1-1h-4v1h-1v1-1 3h-2l2 1v1l1 1 2 1-3 1-3 2h-2l7 5 8 8s0 1 3 1l4 1h5c3-2 4-17 3-17 0-1-1-3-4-3h-5zm0 0" fill="#34302f"/><path d="M38 140l-1-2 1 1v1zm-5-13v-1 1zm0-10v-5 5zm0 0" fill="#322e27"/><path d="M59 190c2-5 9-5 9-5l9 3v-2l3-3 7-1 10 2-1 8-1 4-2 1s-2 2-5 2h-8l-2-1h-1l-6 1h-6l-1-1s-1 2-2 1l-3-2c0-1-3-1 0-7zm0 0" fill="#f9f0ec"/><path d="M74 199c4-1 4-3 4-3v-2c1 0 0 3 2 2l2 1 3 1h3l5-1 2-1-2 1s-2 2-5 2h-8l-2-1h-1l-5 1h2zm0 0M72 199l-1-1v-1s1-3 0-3v5h-1 2zm-6 0v-1l-1-2-1 2 2 1zm0 0" fill="#e6d3c6"/><path d="M58 194l1-3v3h-1zm0 0" fill="#332e2a"/><path d="M59 194v-3 1l1-1v-1h1l1-1h2c1 0 0 0 0 0l1-1h9c1 0 0 0 0 0h2c2 0 1 0 1 1l1 1v-1h1l1-1h11l1 1h1l1 1v2c0-1-2-3-4-3h-4l-2 1h-3l-2 1-1 1-1-2-2-1H65l-3 1c-1 0-3 2-3 4zm0 0" fill="#bdafa7"/><path d="M103 90l-1 4v2l-1 1-1 1v3h-1v2h-1v2h-1v2l-1 2v1s-1 0 0 1l-1 1v1h1l-1 1h1v1l-1 1h1l-1 1h1v1h-1v3l1 2v1l1 3 1 1v1h1l-1 1h1-1l2 1v1h-1l1 1h1-1v1l1 1v1l-1-1 1 1h-1l1 1 1 1v1l-1-1v1l1 1 1 1-2-1v1l1 2v1l-1-1 1 1v2h-1l1 1v2l1 1v1l-1-2 1 2v1l-1-1v2h-1l1 1v1l1 1-2-2v1l1 1-1-1v2h-1l1 1-2-1v4l1 1-1-1v2l-1-1 1 1v1h-1v3l-1 1v2l-1 2v1l-1 1v1h-1l-1 2s-6 1-11-2c-5-1-7-20-7-20l13-49zm0 0" fill="#2f2b2a"/><path d="M93 121l2 5 1 1 2 2-2-1 1 1h-1l1 2 1 1-2-1 3 4-3-1 1 2v-1l1 2 1 1-2-1 1 2 1 1-2-1 2 4 1 2-2-2 1 2-1-1 1 2-2-1 2 3-4-3 1 2-2-2-2-2 1 2a2461 2461 0 0 0-3-4c-2-3-2-5-2-9 0-2 0-4 2-6l1-6 1-1 1 1v1zm0 0M93 145l1 3 3 3 1 1 2 1-3-2 2 1-2-3-3-2-1-2zm0 0" fill="#282726"/><path d="M92 145l1 3 3 3 1 1 2 1-3-3 2 2-2-3-3-2-1-2zm7 11l-5-5-2-3 1 2-2-2 1 2-2-2 1 1v3l1 2 2 2 2 4-3-5 2 2-1-3 3 2-2-3 4 3zm0 0M91 153s2 4 5 7l-4-4 1 2-2-3-1-3 1 2zm0 0M93 158l1 2 1 1 1 1h1-2l1 1-2-1 1 1h-1l-1 1v1l1 2-1-1 1 2-2-1v2l-2 2-2 1h-1v-1h-2v1s1 0 0-3l-1-8v-5l1-2v-1l1-1 7 6zm0 0" fill="#282726"/><path d="M93 177l1-2v-5h-2l-1 1h-1v1h-2c-1 1 2 1-1 1h-2s-1 1 0 1v3h1l2 1h5zm0 0" fill="#464141"/><path d="M92 175h-1 1l1-1v-3h-1l-1 1-1 1v2c-2 0 0-1 0-1h-2l2-1h-3l-1 1v1h-1v-2h5l-2-1 3-1h1l1-1v1l1 2v1l-1 1h1-2zm-1 0zm0 0" fill="#575253"/><path d="M98 100l-3 10-1 4v4c0 1 0 1 0 0v1l-1 1v10l-1 1h1-1v8l-1 1h1l-1 1v3s0-1 0 0v1l-1 1v7l-2 1h2s-2 0 0 1v2l1 1v3s0 1 0 0l-1-3h-2l-1-1 1 1 2 2v2-1l-2-1-1-2 1 2v3l2 1-2-2-1-1v5l-1 1v4h-1l1 1-1 1v2s0-1 0 0v2s-1-2-3-2c-3 0-5-5-5-5l1-14 10-45zm0 0" fill="#423e33"/><path d="M81 175l-2-1-2 1h-9l-3 2h-3l-2 1h-2l-2 1h-1l-1-4v-2l-1-1v-2l-1 1v-2l-1-1v-2h-1v-1l-1-1v-3l-1-1-1-2v-1l-1-1v-2 1l-1-3-1-1v-2l-1-1-1-1-2-1v-2h-1v-3h-1v-2l-1-1-1-1-2-3-1-7v-4l-1-5 1-2v-4l-2-8 1-7h-1l1-1v-1l1-1v-1 1-1l1-3 1-1v-2l1-2 1-3 1-3v-6c1-2 0-6 4-7l5-1s4 2 7 8l7 13 2 9zm0 0" fill="#322f2a"/><path d="M54 141s1-4-2-8l-9-12c-3-2-7-6-7-4l1 5v4l-1-2 1 3s-1 0 0 1v5l1 2c1 1 6 8 8 14l5 11 2 4 1 3 2 3v2l3 3v3l6-1 5-2-2-4c-2-2-5-14-6-17l-4-7-4-6zm0 0" fill="#2b2928"/><path d="M45 66l-1 5-1 1v3l-1 1v1s1 0 0 1v5l-2 3-1 2v6l-1 2-1 4v3l-1 4 1 7 2 3 1 2v1l3 2 3 4 1 3 1 1c0-1 3-13 3-20V82l-2-6v-9l-1-2-2-1zm0 0" fill="#2b2928"/><path d="M66 155s-1 3 0 5l1 4 1 2 1 2v1l1 1v5l-2-1h-4v-2l-1-1-1-1-1-1v1l-1-2v-1l-1-1-3-2v1l-1-4h-1v-3l-1-1-1-1v-3l-1-1-1-3c0-1 0-1 0 0l-1-1-1-2-1-3-2-5-1-4-1-4v1l2 2 1 2 1 1 2 2 1 1 1 1h1l1-1v-1l-1-1-1-2c0-1-3-2-1-3l5-3c3 0 1-2 3 0l1 2 3 3s3 1 4 4l1 7v6zm0 0" fill="#282726"/><path d="M104 84v4l-1 2-1 3v1s0-1-1 0l-1 2v1l-1 1v1l-1 3h-1v1l-1 1-1 1v2l-2 5v2l-1 2v1l-1 1-1 2v4l-2 2v2l-1 1s0-1 0 0v2l-1 3v2l1 2h-1v9h-1 1v2s-1 0 0 0v1l-1 1v4l-1 1v1l1 1v6h-1v2l-1 1v1-1 1h-1v6h1v1c-1 0 0 0 0 0h-5s1 0 0 0h-2s1 0 0 0h-2l-2-3v-1l-1-1v-2l-1-1v-1l-4-12c-1-2-2-8-1-16 0-4 0-2-1 0l-3 3-2-1h-3l-2-1v-1l-1-2-1 1-2-4-1-1-1-1v-2l-1-2v-3l-1-1v3-11l1-2 1-11-1-4 1-6v-8l-1-5V68l1-3v-1l1-2 4-2 11-1s4-3 7 0h5c4 0 9 0 12 3l10 9 6 13zm0 0" fill="#282726"/><path d="M105 79v3l2 1-2-1v1-1 2h-1v1s1 0 0 0h-1 1l-1 1-1 1h1-1v1h-1v1h-2l-1 1h-1l-1 2s1 0 0 0l-1 1-1 1h-1v1h-2v-2h-3v-1 1l-1 1v1h-1v1h-1v1h-1v5-1 1h1v1h-2v1h-2v1h-4v-1l1-2v-2l-1-1v-1h-1l-1-1-1-1-2-1s2 0 0 0v-2l-1-1v-3l-2-1-2-3-1-1h-1s1 0 0 0v-1h-1v-1h-1l-1-3-1-1h-1v-1h-1 1-1l-1-1h-2s2 0 0 0c0 0 2 0 0-1h-1v-3h-1l-1-1h-1l-1-1v-1h-1v-1h-1v-1h-1v-1h-2l-1-1s11-28 30-29c19-2 30 28 30 43zm0 0" fill="#f9f0ec"/><path d="M94 79c-3 0-8-2-10-4-1-2-1-3-3-3l-4-3-6-4-3-4c-1 0-4-1-5-5l1 2 5 1 2 2 1 2c0 1 0 2 2 2l1 1 1 1 1 1h3l2 1 1 1 1 1 1 2 1 2 1 1 1 1h3l1 1h1l1-1h3l1-1 3-1v-2l-7 6zM56 63v-7h-1v-2l1-1 2 2 2 3-1 1v2l-1 1zm0 0" fill="#f4e4df"/><path d="M77 96l-3-3-3-3-1-2v-1h-1v-1l-2-1-2-3-1-2-2-2-1-1-5-5-5-5-1-1h1l1-1 3-2 4 1 7 5 8 3 5 5 4 2 4 1 3 1h4l-1 2v1l-1 1-6 4-2 3h-1l-1 1h-1l-1 1-2 1zm0 0" fill="#f6e8e2"/><path d="M97 89l1-1h-1l1-2h-1v-2l1-3h-1l1-1 1-1-1-1 2-1 1-2 1 1v1l1 1h-1l1 1 1 1h-2l2 1h-1l1 1-1 1v1l-1 1-1 1h1l-2 1-3 2zm5-3zm0 0" fill="#fbf8f6"/><path d="M94 36l-7 20-2 8-1 2-3 2-3-1-6-6c-2-3-4-3-4-3l-6-2c-1-2-3-8-1-11l9-10 15-3zm0 0" fill="#fcfaf3"/><path d="M70 56h-3l-3-1v-1c1 0 0 0 0 0v-2h1-1v-1h1l2 2 2 2h1l1-3v-3l4-1h1-1l-3 2v1l-1 2-1 3zm10 10h-1l-3-2-1-2v-1l-1-1v-2l1-2 1-1 1 1h1l2-1v-4h1v-1 5l-1 3-4 1 3 4 1 2v1zm0 0" fill="#faf1e9"/><path d="M64 58l-2-2-1-2-2-1-1-1h3l1 1 1 1 1 1 3 1h3l1-3 1-3 5 2v3h-1l-1 1-1 2v2l1 1v1l1 2 3 2h1l3 3-3-1h-3l-1-1-1-1-1-1c-2 0-2-1-2-2l-1-2-2-2-5-1zm0 0" fill="#edd7d1"/><path d="M71 59h1v3l2 1 1 1v1l-3-1-1-2-1-1v-1h-2l-1-1-1-1h-2 7zm0 0" fill="#dbbdae"/><path d="M71 60l1 1v2l2 1-2-1-1-2v-1h-1v-1h-2l-2-1h-1 1l3 1h2zm0 0" fill="#bc9084"/><path d="M76 55l-2 1-2 2-1 1h-1l1-1v-2l1-3 4 2zm0 0" fill="#e69d9b"/><path d="M80 55s2-6 0-7c-2-2-8 1-8 2l4 4zm0 0" fill="#fbddd4"/><path d="M80 55l-3 1-2-1-3 1v-3-4l2 1 5 3 1 2zm0 0" fill="#e7a99d"/><path d="M94 25l1 2 3 3 2 1v1h1l1 1v1h2v1l3 2-11 8h-4l-4 1-3-2 1-1 1-1 1-1v-2l-1 2h-1l-2 2-1 1 1-2 1-1 1-2-2 3-1 1-1 1h-1v1h-2l-1-1-1 1h-1l-1 1h-3 2l-2 1-2 1h-3l1 1h-2v1h1-1v1h-2v1h1-1v2s1 0 0 0v1h-2v-1h-1l-1-1h-2l-2-1h-2v1l1 1-1 1 1 1h-1v2h1v4h-1l-1 1-1 1-1 1h-1l-1 1h-9l2-2v-2l1-1v-2l1-1v-2h1v-1l1-1h1v-2h1v-1l1-1 1-1 1-1 1-1 1-1h1c0-1 0 0 0 0v-2h1v-2s-1 0 0 0v-3s0 2 0 0v-1l1-1 2-2 1-2v-1h1l1-1 1-1 1-1 1-1 1-1 1-1h1l1-1 1-1 1-2s0 2 0 0l2-2 3-4 4-5 5-7c3-3 7-5 8-4 2 2 2 4 2 9l-1 9v4l1 3zm0 0" fill="#2f2b2a"/><path d="M96 29l-5 1-1-1-2-1c-2 0-3 2-3 2h-1v1h-1l-1-1v-2l-1-1v-1h-1v-4 5l-1-1-1-1h-1v-1h-1v-3h-1v1l-1 2h-3v1h-3l1-1 1-2s0 2 0 0l2-2 3-4 4-5 5-7c3-3 7-5 8-4 2 2 2 4 2 9l-1 9v4l1 3 1 2 2 1-1 1zm0 0" fill="#2b2927"/><path d="M87 24h-1l-1-2-2-2v1h-2v1h-4l-1-2v-2l1-3 3-4 4-6c1 0 4-4 7-4l2 3v8l-1 4-1 2-3 2v2l-1 2zm-4-7l2 3 2 2 1-1 2-2v-9l1-5V3h-1l-3 1-2 3-1 2-1 2-2 2h-1l-2 4-1 1v2h1v-1h1l1 1v1l1-1 1-1 1-1v-1zm0 0" fill="#332c26"/><path d="M84 13h-1l1-1v1zm-1 0h1-1zm1 0zm0 0" fill="#5a4e45"/><path d="M84 13v-1l-1 1 1-1v1zm-1 0h1-1zm1 0zm0 0" fill="#5a4e45"/><path d="M84 13v-1l-1 1 1-1v1zm-1 0h1-1zm1 0zm0 0" fill="#5a4e45"/><path d="M84 13v-1l-1 1 1-1v1zm-1 0zm1 0zm0 0zm0 0" fill="#5a4e45"/><path d="M84 13v-1l-1 1 1-1v1zm-1 0zm1 0zm0 0zm0 0" fill="#5a4e45"/><path d="M84 13v-1l-1 1 1-1v1zm-1 0zm1 0zm0 0zm0 0" fill="#5a4e45"/><path d="M84 13v-1l-1 1 1-1v1zm-1 0zm1 0zm0 0zm0 0" fill="#574d44"/><path d="M84 13v-1l-1 1 1-1v1zm-1 0zm1 0zm0 0zm0 0" fill="#574d44"/><path d="M84 13v-1l-1 1 1-1v1zm-1 0zm1 0zm0 0zm0 0" fill="#574d44"/><path d="M84 13v-1l-1 1 1-1v1zm-1 0zm1 0zm0 0zm0 0" fill="#574d44"/><path d="M84 13v-1l-1 1v-1h1v1zm-1 0zm1 0zm0 0zm0 0h-1 1zm0 0" fill="#574d44"/><path d="M84 13v-1h-1 1v1zm-1 0v-1zm0 0h1-1zm1 0zm0 0zm0 0" fill="#574d44"/><path d="M84 13v-1h-1 1v1zm-1-1zm0 1h1-1zm1 0zm0 0zm0 0" fill="#574d44"/><path d="M84 13v-1h-1 1v1zm-1-1zm0 1h1-1zm1 0zm0 0zm0 0" fill="#574d44"/><path d="M84 13v-1h-1 1v1zm-1-1zm0 1h1v1l-1-1zm1 0zm0 0zm0 0" fill="#574d44"/><path d="M84 13v-1h-1 1v1zm-1-1zm0 1l1 1v-1 1l-1-1zm1 0zm0 0zm0 0" fill="#574d44"/><path d="M84 13v-1h-1 1v1zm-1-1zm0 1l1 1v-1 1l-1-1zm1 0zm0 0zm0 0" fill="#574d44"/><path d="M84 13v-1h-1 1v1zm-1-1zm0 1l1 1-1-1zm1 0zm0 0zm0 0" fill="#574d44"/><path d="M84 13v-1h-1 1v1zm-1-1zm0 1l1 1-1-1zm1 0zm0 0zm0 0" fill="#574c42"/><path d="M84 13v-1h-1 1v1zm-1-1zm0 1l1 1-1-1zm1 0zm0 0zm0 0" fill="#574c42"/><path d="M84 13v-1h-1 1v1zm-1-1zm0 1l1 1-1-1zm1 0zm0 0zm0 0" fill="#574c42"/><path d="M84 13v-1h-1 1l1 1zm-1-1zm0 1l1 1-1-1zm1 0zm0 0zm0 0" fill="#574c42"/><path d="M85 13l-1-1h-1 1l1 1zm-2-1zm0 1l1 1-1-1zm1 0zm0 0zm0 0" fill="#574c42"/><path d="M85 13l-1-1h-1 1l1 1zm-2-1zm0 1l1 1-1-1zm1 0zm0 0zm0 0" fill="#574c42"/><path d="M85 13l-1-1h-1 1l1 1zm-2-1zm0 1l1 1-1-1zm1 0zm0 0h1zm0 0" fill="#574c42"/><path d="M85 13l-1-1h-1 1l1 1zm-2-1zm0 1l1 1-1-1zm1 0zm1 0zm0 0" fill="#574c42"/><path d="M85 13l-1-1h-1 1l1 1zm-2-1v1h-1l1-1zm0 1l1 1-1-1zm1 0zm1 0zm0 0" fill="#564b41"/><path d="M85 13l-1-1h-1 1l1 1zm-2-1l-1 1 1-1zm0 1l1 1-2-1zm1 0zm1 0zm0 0" fill="#564b41"/><path d="M85 13l-1-1h-1 1l1 1zm-2-1l-1 1 1-1zm-1 1l2 1-2-1zm2 0zm1 0zm0 0" fill="#564b41"/><path d="M85 13l-1-1h-2 2l1 1zm-2-1l-1 1v-1zm-1 1l2 1-2-1zm2 0h1zm1 0zm0 0" fill="#564b41"/><path d="M85 13l-1-1h-2 2l1 1zm-3-1zm0 1l2 1-2-1zm3 0zm0 0zm0 0" fill="#564a41"/><path d="M85 13l-1-1h-2 2l1 1zm-3-1zm0 1l2 1-2-1zm3 0v1zm0 0zm0 0" fill="#564a41"/><path d="M85 13l-1-1h-2 2l1 1zm-3-1zm0 1l2 1-2-1zm3 1v-1 1zm0-1zm0 0" fill="#564a41"/><path d="M85 13l-1-1h-2l2-1 1 2zm-3-1zm0 1l2 1h-1l-1-1zm3 1v-1 1zm0-1zm0 0" fill="#564a41"/><path d="M85 13l-1-2-2 1v1l2-2 1 2zm-3 0l1 1-1-1zm1 1zm2 0v-1zm0-1zm0 0" fill="#564a41"/><path d="M85 13l-1-2-2 2 2-2 1 2zm-3 0l1 1-1-1zm1 1h2-1zm2 0zm0-1zm0 0" fill="#564a41"/><path d="M85 13l-1-2-2 2 2-2 1 2zm-3 0l1 1-1-1zm2 1h1-1zm1 0zm0-1zm0 0" fill="#564a41"/><path d="M85 13l-1-2-2 2 2-2 1 2zm-3 0l1 1-1-1zm2 1h1-1zm1 0zm0-1zm-2 1zm0 0" fill="#564a41"/><path d="M85 13l-1-2-2 2 2-2 1 2zm-3 0l1 1-1-1zm1 1zm1 0h1-1zm1 0zm0-1zm0 0" fill="#554a40"/><path d="M85 13l-1-2-2 2 2-2 1 2zm-3 0l1 1h-1v-1zm1 1zm1 0h1-1zm1 0zm0-1zm0 0" fill="#554a40"/><path d="M85 13l-1-2-2 2 2-2 1 2zm-3 0zm1 1h1-1zm1 0h1-1zm1-1zm0 0" fill="#554a40"/><path d="M85 13l-1-2-2 2 2-2 1 2zm-3 0zm1 1h1-2zm1 0h1-1zm1-1v1zm0 0" fill="#554a40"/><path d="M85 13l-1-2-2 2v-1h1l1-1 1 2zm-3 0zm0 1h2-2zm2 0zm1 0v-1 1zm0 0" fill="#554a40"/><path d="M85 13l-1-2-1 1v-1h1l1 2zm-3-1zm0 1zm0 1h2-2zm2 0zm1 0v-1 1zm0 0" fill="#554a40"/><path d="M85 13l-1-2h-1 1l1 2zm-3-1zm0 1zm0 1h2-2zm2 0zm1 0v-1 1zm0 0" fill="#544940"/><path d="M85 13l-1-2h-1 1l1 2zm-3-1zm0 1zm0 1h2-2zm2 0zm1 0v-1 1zm0 0" fill="#544940"/><path d="M85 13l-1-2h-1 1l1 2zm-3-1zm0 1zm0 1h2-2zm2 0zm1 0v-1 1zm0 0" fill="#544940"/><path d="M85 13l-1-2h-1 1l1 2zm-3-1zm0 1zm0 1h2v1l-2-1zm2 0zm1 0v-1 1zm0 0" fill="#544940"/><path d="M85 13l-1-2h-1 1l1 2zm-3-1zm0 1zm0 1l2 1v-1 1l-2-1zm2 0zm1 0v-1 1zm0 0" fill="#544940"/><path d="M85 13l-1-2h-1 1l1 2zm-3-1zm0 1zm0 1l2 1-2-1zm2 0zm1 0v-1 1zm0 0" fill="#544940"/><path d="M85 13l-1-2h-1 1l1 2zm-3-1zm0 1zm0 1l2 1-2-1zm2 0zm1 0v-1 1zm0 0" fill="#54493f"/><path d="M85 13l-1-2h-1 1l1 2zm-3-1zm0 1zm0 1l2 1-2-1zm2 0h1l-1 1zm1 0v-1 1zm0 0" fill="#54493f"/><path d="M85 13l-1-2h-1 1l1 2zm-3-1zm0 1zm0 1l2 1-2-1zm2 1l1-1-1 1zm1-1v-1 1zm0 0" fill="#54493f"/><path d="M85 13l-1-2h-1 1l1 2zm-3-1zm0 1zm0 1l2 1-2-1zm2 1l1-1-1 1zm1-1v-1 1zm0 0" fill="#54493f"/><path d="M85 13l-1-2h-1 1l2 2zm-3-1zm0 1zm0 1l2 1-2-1zm2 1l1-1-1 1zm1-1v-1h1l-1 1zm0 0" fill="#54493f"/><path d="M86 13l-2-2h-1 1l2 2zm-4-1zm0 1zm0 1l2 1-2-1zm2 1l1-1-1 1zm1-1l1-1-1 1zm0 0" fill="#53483e"/><path d="M86 13l-2-2h-1 1l2 2zm-4-1zm0 1zm0 1l2 1-2-1zm2 1l1-1-1 1zm1-1l1-1-1 1zm0 0" fill="#53483e"/><path d="M86 13l-2-2h-1 1l2 2zm-4-1zm0 1zm0 1l2 1-2-1zm2 1l1-1-1 1zm1-1l1-1-1 1zm0 0" fill="#53483e"/><path d="M86 13l-2-2h-1 1l2 2zm-4-1zm0 1zm0 1l2 1-2-1zm2 1l1-1v1zm1-1l1-1-1 1zm0 0" fill="#53483e"/><path d="M86 13l-2-2h-1 1l2 2zm-4-1v1h-1l1-1zm0 1v1l-1-1zm0 1l2 1-2-1zm3 1v-1 1zm0-1l1-1-1 1zm0 0" fill="#52473e"/><path d="M86 13l-2-2h-1 1l2 2zm-4-1l-1 1v-1zm-1 1l1 1-1-1zm1 1l2 1-2-1zm3 1v-1 1zm0-1l1-1-1 1zm0 0" fill="#52473e"/><path d="M86 13l-2-2h-1 1l2 2zm-5-1zm0 1l1 1-1-1zm1 1l2 1-2-1zm3 1v-1 1zm0-1l1-1-1 1zm0 0" fill="#52473e"/><path d="M86 13l-2-2h-1 1l2 2zm-5-1zm0 1l1 1-1-1zm1 1l2 1-2-1zm3 1v-1 1zm0-1l1-1-1 1zm0 0" fill="#52473e"/><path d="M86 13l-2-2h-1 1l2 2zm-5-1zm0 1l1 1h-1v-1zm1 1l2 1-2-1zm3 1v-1 1zm0-1l1-1-1 1zm0 0" fill="#52473e"/><path d="M86 13l-2-2h-1 1l2 2zm-5-1v1zm0 1zm1 1l2 1h1-1l-3-1zm3 1v-1 1zm0-1l1-1v1zm0 0" fill="#52473e"/><path d="M86 13l-2-2h-1 1l2 2zm-5 0zm0 0zm0 1l3 1h1-1l-3-1zm4 1v-1 1zm1-1v-1 1zm0 0" fill="#52473e"/><path d="M86 13l-2-2h-1l1-1 2 3zm-5 0zm0 0zm0 1l3 1h1-1l-3-1zm4 1v-1 1zm1-1v-1 1zm0 0" fill="#52473e"/><path d="M86 13l-2-3-1 1v-1h1c1 0 2 1 2 3zm-5 0zm0 0zm0 1l3 1h1-1l-3-1zm4 1v-1 1zm1-1v-1 1zm0 0" fill="#52473d"/><path d="M86 13c0-2-1-3-2-3h-1 1c1 0 2 1 2 3zm-5 0zm0 0zm0 1l3 1h1-1l-3-1zm4 1v-1 1zm1-1v-1 1zm0 0" fill="#52473d"/><path d="M86 13c0-2-1-3-2-3h-1 1c1 0 2 1 2 3zm-5 0zm0 0v1l3 1h1-1c-2 0-3-1-3-2zm4 2v-1 1zm1-1v-1 1zm0 0" fill="#51463c"/><path d="M86 13c0-2-1-3-2-3h-1 1c1 0 2 1 2 3zm-5 0zm0 0c0 1 1 2 3 2h1-1c-2 0-3-1-3-2zm4 2v-1h1l-1 1zm1-1v-1 1zm0 0" fill="#51463c"/><path d="M86 13c0-2-1-3-2-3h-1 1c1 0 2 1 2 3zm-5 0zm0 0c0 1 1 2 3 2h1-1c-2 0-3-1-3-2zm4 2l1-1-1 1zm1-1v-1 1zm0 0" fill="#51453c"/><path d="M86 13c0-2-1-3-2-3h-1 1c1 0 2 1 2 3zm-5 0zm0 0c0 1 1 2 3 2h1-1c-2 0-3-1-3-2zm4 2l1-1-1 1zm1-1v-1 1zm0 0" fill="#51453c"/><path d="M86 13c0-2-1-3-2-3h-1 1c1 0 2 1 2 3zm-5 0zm0 0c0 1 1 2 3 2h1-1c-2 0-3-1-3-2zm4 2l1-1-1 1zm1-1v-1 1zm0 0" fill="#51453c"/><path d="M86 13c0-2-1-3-2-3h-1 1c1 0 2 1 2 3zm-5 0zm0 0c0 1 1 2 3 2h1-1c-2 0-3-1-3-2zm4 2l1-1-1 1zm1-1v-1 1zm0 0" fill="#51453c"/><path d="M86 13c0-2-1-3-2-3h-1 1l1 1 1 2zm-5 0zm0 0c0 1 1 2 3 2h1-1c-2 0-3-1-3-2zm4 2l1-1-1 1zm1-1v-1 1zm0 0" fill="#50453b"/><path d="M86 13l-1-2h1v2zm-1-2l-1-1h-1 1l1 1zm-4 2zm0 0c0 1 1 2 3 2h1-1c-2 0-3-1-3-2zm4 2l1-1-1 1zm1-1v-1 1zm0 0" fill="#50453b"/><path d="M86 13v-2 2zm-1-2l-1-1h-1 2v1zm-4 2zm0 0c0 1 1 2 3 2-2 0-3-1-3-2zm4 2l1-1-1 1zm1-1v-1 1zm0 0" fill="#50453b"/><path d="M86 13v-2 2zm-1-3h-2 2zm-4 3zm0 0c0 1 1 2 3 2-2 0-3-1-3-2zm4 2l1-1-1 1zm1-1v-1 1zm-1-4zm0 0" fill="#50453b"/><path d="M86 13v-2 2zm-1-2v-1l1 1h-1zm0-1h-2 2zm-4 3c0 1 1 2 3 2-2 0-3-1-3-2zm4 2l1-1-1 1zm1-1v-1 1zm0 0" fill="#50453b"/><path d="M86 13v-2 2zm0-2l-1-1 1 1zm-1-1h-2 2zm-4 3c0 1 1 2 3 2h1l-1 1c-2 0-3-2-3-3zm4 2l1-1-1 1zm1-1v-1 1zm0 0" fill="#50453b"/><path d="M86 13v-1 1zm0-2l-1-1 1 1zm-1-1h-2 1zm-4 3c0 1 1 3 3 3l1-1-1 1c-2 0-3-2-3-3zm4 2l1-1-1 1zm1-1v-1 1zm0 0" fill="#50453b"/><path d="M86 13v-1 1zm0-2l-1-1h-1l2 1zm-2-1h-1 1zm-3 3c0 1 1 3 3 3l1-1-1 1c-2 0-3-2-3-3zm4 2l1-1-1 1zm1-1v-1 1zm0 0" fill="#50453b"/><path d="M86 13v-1 1zm0-2l-2-1 2 1zm-2-1h-1 1zm-3 3c0 1 1 3 3 3l1-1-1 1c-2 0-3-2-3-3zm4 2l1-1-1 1zm1-1v-1 1zm0 0" fill="#4f443a"/><path d="M86 13v-1 1zm0-2l-2-1 2 1zm-2-1h-1 1zm-3 3c0 1 1 3 3 3l1-1-1 1c-2 0-3-2-3-3zm4 2l1-1v1h-1zm1-1v-1 1zm0 0" fill="#4f443a"/><path d="M86 13v-1 1zm0-2l-2-1 2 2zm-2-1h-1 1zm-3 3c0 1 1 3 3 3l1-1-1 1c-2 0-3-2-3-3zm4 2zm1-1v-1 1zm0 0" fill="#4f443a"/><path d="M86 13v-1 1zm0-1l-2-2 2 2zm-2-2h-1 1zm-3 3c0 1 1 3 3 3l1-1-1 1c-2 0-3-1-3-3zm4 2zm1-1v-1 1zm0 0" fill="#4f443a"/><path d="M86 13v-1l1 1zm0-1l-2-2 2 2zm-2-2h-1 1zm-3 3c0 2 1 3 3 3l1-1-1 1c-2 0-3-1-3-3zm4 2zm1-1v-1h1l-1 1zm0 0" fill="#50443a"/><path d="M87 13l-1-1 1 1zm-1-1l-2-2h-1 1l2 2zm-5 1c0 2 1 3 3 3l1-1-1 1c-2 0-3-1-3-3zm4 2zm1-1l1-1-1 1zm0 0" fill="#50443a"/><path d="M87 13l-1-1 1 1zm-1-1l-2-2h-1 1l2 2zm-5 1c0 2 1 3 3 3l1-1-1 1c-2 0-3-1-3-3zm4 2zm1-1l1-1-1 1zm0 0" fill="#50443a"/><path d="M87 13l-1-1h1v1zm-1-1l-2-2h-1 1l2 2zm-5 1c0 2 1 3 3 3l1-1-1 1c-2 0-3-1-3-3zm4 2zm1-1l1-1-1 1zm0 0" fill="#50443a"/><path d="M87 13v-1 1zm-1-1l-2-2h-1 1l2 2zm-5 1c0 2 1 3 3 3l1-1-1 1c-2 0-3-1-3-3zm4 2zm1-1l1-1-1 1zm0 0" fill="#4f4439"/><path d="M87 13v-1 1zm-1-1l-2-2 3 2zm-5 1c0 2 1 3 3 3l1-1-1 1c-2 0-3-1-4-3zm4 2zm1-1l1-1-1 1zm0 0" fill="#4f4439"/><path d="M87 13v-1 1zm0-1l-3-2 3 2zm-7 1c1 2 2 3 4 3l1-1-1 1c-2 0-3-1-4-3zm5 2zm1-1l1-1-1 1zm0 0" fill="#4f4439"/><path d="M87 13v-1 1zm0-1l-3-2 3 2zm-7 1c1 2 2 3 4 3l1-1-1 1c-2 0-3-1-4-3zm5 2h1zm1-1l1-1-1 1zm0 0" fill="#4f4439"/><path d="M87 13v-1 1zm0-1l-3-2 3 2zm-7 1c1 2 2 3 4 3l1-1-1 1c-2 0-3-1-4-3zm6 2zm0-1l1-1-1 1zm0 0" fill="#4f4439"/><path d="M87 13v-1 1zm0-1l-3-2 3 2zm-7 1c1 2 2 3 4 3l1-1-1 1c-2 0-3-1-4-3zm6 2zm0-1l1-1-1 1zm0 0" fill="#4f4439"/><path d="M87 13v-1 1zm0-1l-3-2 3 2zm-7 1c1 2 2 3 4 3l1-1-1 1c-2 0-3-1-4-3zm6 2zm0-1l1-1-1 1zm0 0" fill="#4e4338"/><path d="M87 13v-1 1zm0-1l-3-2 3 2zm-7 1c1 2 2 3 4 3l1-1-1 1c-2 0-3-1-4-3zm6 2zm0-1l1-1-1 1zm0 0" fill="#4e4338"/><path d="M87 13v-1 1zm0-1l-3-2V9l3 3zm-7 1c1 2 2 3 4 3l1-1h1l-2 1c-2 0-3-1-4-3zm6 2zm0-1l1-1-1 1zm0 1zm0 0" fill="#4e4238"/><path d="M87 13v-1 1zm0-1l-3-3 3 3zm-7 1c1 2 2 3 4 3l2-1-2 1c-2 0-3-1-4-3zm6 2zm0 0zm0-1l1-1-1 1zm0 0" fill="#4e4238"/><path d="M87 13v-1zm0-1l-3-3 3 3zm-7 1c1 2 2 3 4 3l2-1v1h-2c-2 0-3-1-4-3zm6 2zm0 0zm0-1l1-1-1 2zm0 0" fill="#4e4238"/><path d="M87 13zm0-1l-3-3 3 3zm-7 1c1 2 2 3 4 3h2-2c-2 0-3-1-4-3zm6 2zm0 0zm0 0l1-2-1 2zm0 0" fill="#4e4238"/><path d="M87 13zm0-1l-3-3 3 3zm-7 1c1 2 2 3 4 3h2-2c-2 0-3-1-4-3zm6 2zm0 0zm0 0l1-2v2zm0 0" fill="#4e4238"/><path d="M87 13zm0-1l-3-3 3 3zm-7 1c1 2 2 3 4 3h2-2c-2 0-3-1-4-3zm6 2zm0 0zm1 0v-2 2zm0 0" fill="#4e4238"/><path d="M87 13zm0-1l-3-3 3 3zm-7 1c1 2 2 3 4 3h2-2l-4-2zm6 2zm0 0zm1 0v-2 2zm0 0" fill="#4d4137"/><path d="M87 13zm0-1l-3-3 3 3zm-7 2l4 2h2-2l-4-2zm6 1v1zm0 0zm1 0v-2 2zm0 0" fill="#4d4137"/><path d="M87 13zm0-1l-3-3 3 3zm-7 2l4 2h2-2l-4-2zm6 2v-1 1zm0-1zm1 0v-2 2zm0 0" fill="#4d4137"/><path d="M87 13zm0-1l-3-3c2 0 3 2 3 4zm-7 2l4 2h2-2l-4-2zm6 2v-1 1zm0-1zm0 0" fill="#4d4137"/><path d="M87 13c0-2-1-4-3-4 2 0 3 2 3 4zm-7 1l4 2h2-2l-4-2zm6 2v-1 1zm0-1zm1 0v-2 2zm0 0" fill="#4d4137"/><path d="M87 13c0-2-1-4-3-4 2 0 3 2 3 4zm-7 1l4 2h2-2l-4-2zm6 2v-1 1zm0-1h1zm1 0v-2 2zm0 0" fill="#4d4137"/><path d="M87 13c0-2-1-4-3-4 2 0 3 2 3 4zm-7 1l4 2h2-2l-4-2zm6 2v-1 1zm1-1zm0 0v-2 2zm0 0" fill="#4c4036"/><path d="M87 13c0-2-1-4-3-4 2 0 3 2 3 4zm-7 1l4 2h2-2l-4-2zm6 2v-1 1zm1-1zm0 0v-2 2zm0 0" fill="#4c4036"/><path d="M87 13c0-2-1-4-3-4 2 0 3 2 3 4zm-7 1l4 2h2l-2 1c-2 0-4-2-4-3zm6 2v-1 1zm1-1zm0 0v-2 2zm0 0" fill="#4c4036"/><path d="M87 13c0-2-1-4-3-4 2 0 3 2 3 4zm-7 1c0 1 2 3 4 3l2-1-2 1c-2 0-4-2-4-3zm6 2v-1 1zm1-1zm0 0v-2 2zm0 0" fill="#4c4036"/><path d="M87 13c0-2-1-4-3-4 2 0 3 2 3 4zm-7 1c0 1 2 3 4 3l2-1-2 1c-2 0-4-2-4-3zm6 2v-1 1zm1-1zm0 0v-2 2zm0 0" fill="#4c4036"/><path d="M87 13c0-2-1-4-3-4 2 0 3 2 3 4zm-7 1c0 1 2 3 4 3l2-1-2 1c-2 0-4-2-4-3zm6 2v-1h1l-1 1zm1-1zm0 0v-2 2zm0 0" fill="#4c4036"/><path d="M87 13c0-2-1-4-3-4 2 0 3 2 3 4zm-7 1c0 1 2 3 4 3l2-1-2 1c-2 0-4-2-4-3zm6 2l1-1-1 1zm1-1zm0 0v-2 2zm0-2zm0 0" fill="#4c4036"/><path d="M87 13c0-2-1-4-3-4 2 0 3 2 3 4zm-7 1c0 1 2 3 4 3l2-1-2 1c-2 0-4-1-4-3zm6 2l1-1-1 1zm1-1zm0 0v-2 2zm0-2zm0 0" fill="#4c4036"/><path d="M87 13c0-2-1-4-3-4 2 0 3 2 3 4zm-7 1c0 2 2 3 4 3l2-1-2 1c-2 0-4-1-4-3zm6 2l1-1-1 1zm1-1zm0 0v-2 2zm0-2zm0 0" fill="#4b4035"/><path d="M87 13c0-2-1-4-3-4 2 0 4 2 4 4zm-7 1c0 2 2 3 4 3l2-1-2 1c-2 0-4-1-4-3zm6 2l1-1-1 1zm1-1zm0 0v-2 2zm0-2h1zm0 0" fill="#4b4035"/><path d="M88 13c0-2-2-4-4-4 2 0 4 2 4 4zm-8 1c0 2 2 3 4 3l2-1-2 1c-2 0-4-1-4-3zm6 2l1-1-1 1zm1-1zm0 0v-2h1l-1 2zm1-2zm0 0" fill="#4b4035"/><path d="M88 13c0-2-2-4-4-4 2 0 4 2 4 4zm-8 1c0 2 2 3 4 3l2-1-2 1c-2 0-4-1-4-3zm6 2l1-1-1 1zm1-1zm0 0l1-2-1 2zm1-2zm0 0" fill="#4b4035"/><path d="M88 13c0-2-2-4-4-4 2 0 4 2 4 4zm-8 1c0 2 2 3 4 3l2-1-2 1c-2 0-4-1-4-3zm6 2l1-1-1 1zm1-1zm0 0l1-2-1 2zm1-2zm0 0" fill="#4a3f35"/><path d="M88 13c0-2-2-4-4-4 2 0 4 2 4 4zm-8 1c0 2 2 3 4 3l2-1-2 1c-2 0-4-1-4-3zm6 2l1-1-1 1zm1-1zm0 0l1-2-1 2zm1-2zm0 0" fill="#4a3f35"/><path d="M88 13c0-2-2-4-4-4 2 0 4 2 4 4zm-8 1c0 2 2 3 4 3l2-1-2 1c-2 0-4-1-4-3zm6 2l1-1-1 1zm1-1zm0 0l1-2-1 2zm1-2zm0 0" fill="#4a3f35"/><path d="M88 13c0-2-2-4-4-4 2 0 4 2 4 4zm-8 1c0 2 2 3 4 3l2-1-2 1c-2 0-4-1-4-3zm6 2l1-1-1 1zm1-1zm0 0l1-2-1 2zm1-2zm0 0" fill="#4a3f35"/><path d="M88 13c0-2-2-4-4-4 2 0 4 2 4 4zm-8 1c0 2 2 3 4 3l2-1-2 1c-2 0-4-1-4-3zm6 2l1-1-1 1zm1-1zm0 0l1-2-1 2zm1-2zm0 0" fill="#4a3f34"/><path d="M88 13c0-2-2-4-4-4 2 0 4 2 4 4zm-8 1c0 2 2 3 4 3l2-1-2 1c-2 0-4-1-4-3zm6 2l1-1v1h-1zm1-1zm0 0l1-2-1 2zm1-2zm0 0" fill="#4a3f34"/><path d="M88 13c0-2-2-4-4-4 2 0 4 2 4 4zm-8 1c0 2 2 3 4 3l2-1-2 1c-2 0-4-1-4-3zm6 2zm1-1zm0 0l1-2v1l-1 1zm1-2zm0 0" fill="#4a3f34"/><path d="M88 13c0-2-2-4-4-4 2 0 4 2 4 4zm-8 1c0 2 2 3 4 3l2-1-2 1c-2 0-4-1-4-3zm6 2zm1-1zm0 0l1-1-1 1zm1-2zm0 0" fill="#4a3f34"/><path d="M88 13c0-2-2-4-4-4 2 0 4 2 4 4zm-8 1c0 2 2 3 4 3l2-1-2 1c-2 0-4-1-4-3zm6 2zm1-1zm0 0l1-1-1 1zm1-2zm0 0" fill="#493e33"/><path d="M88 13c0-2-2-4-4-4V8c2 1 4 3 4 5zm-8 1c0 2 2 3 4 3l2-1-2 1h-1c-2 0-3-1-3-3zm6 2zm1-1zm0 0l1-1-1 1zm1-2zm0 0" fill="#493e33"/><path d="M88 13c0-2-2-4-4-5 2 1 4 3 4 5zm-8 1c0 2 1 3 3 3-2 0-3-1-3-3zm3 3h1l2-1-2 1h-1zm3-1zm1-1zm0 0l1-1-1 1zm1-2zm0 0" fill="#493e33"/><path d="M88 13c0-2-2-4-4-5 2 1 4 3 4 5zm-8 1c0 2 1 3 3 3-2 0-3-1-4-3zm3 3h1l2-1-2 1h-1zm3-1zm1-1zm0 0l1-1-1 1zm1-2zm0 0" fill="#493e33"/><path d="M88 13c0-2-2-4-4-5 2 1 4 3 4 5zm-9 1c1 2 2 3 4 3-2 0-3-1-4-3zm4 3h1l2-1-2 1h-1zm3-1h1zm1-1v1zm0 0l1-1-1 1zm1-2zm0 0" fill="#493e33"/><path d="M88 13c0-2-2-4-4-5 2 1 4 3 4 5zm-9 1c1 2 2 3 4 3-2 0-3-1-4-3zm4 3h1l2-1-2 1h-1zm4-1zm0 0v-1 1zm0-1l1-1-1 1zm1-2v1zm0 0" fill="#493e33"/><path d="M88 13c0-2-2-4-4-5 2 1 4 3 4 5zm-9 1c1 2 2 3 4 3-2 0-3-1-4-3zm4 3h1l2-1-2 1h-1zm4-1zm0 0v-1 1zm0-1l1-1-1 1zm1-1v-1 1zm0 0" fill="#483d33"/><path d="M88 13c0-2-2-4-4-5 2 1 4 2 4 5zm-9 1c1 2 2 3 4 3l-4-2zm4 3h1l2-1-2 1h-1zm4-1zm0 0v-1 1zm0-1l1-1-1 1zm1-1v-1 1zm0 0" fill="#483d33"/><path d="M88 13c0-3-2-4-4-5 2 1 4 2 4 5zm-9 2l4 2-4-2zm4 2h1l2-1-2 1h-1zm4-1zm0 0v-1 1zm0-1l1-1-1 1zm1-1v-1 1zm0 0" fill="#483c33"/><path d="M88 13c0-3-2-4-4-5 2 1 4 2 4 5zm-9 2l4 2-4-2zm4 2h1l2-1-2 1h-1zm4-1zm0 0v-1 1zm0-1l1-1-1 1zm1-1v-1 1zm0 0" fill="#483c33"/><path d="M88 13c0-3-2-4-4-5 2 1 4 2 4 5zm-9 2l4 2-4-2zm4 2h1l2-1h1l-3 1h-1zm4-1zm0 0v-1 1zm0-1l1-1-1 1zm1-1v-1 1zm0 0" fill="#483c33"/><path d="M88 13c0-3-2-4-4-5 2 1 4 2 4 5zm-9 2l4 2-4-2zm4 2h1l3-1-3 1h-1zm4-1zm0 0v-1 1zm0-1l1-1-1 1zm1-1v-1 1zm0 0" fill="#483c33"/><path d="M88 13c0-3-2-4-4-5 2 0 4 2 4 5zm-9 2l4 2-4-2zm4 2h1l3-1-3 1h-1zm4-1zm0 0v-1 1zm0-1l1-1v1zm1-1v-1 1zm0 0" fill="#483c32"/><path d="M88 13c0-3-2-5-4-5 3 0 4 2 4 5zm-9 2l4 2-4-2zm4 2h1l3-1-3 1h-1zm4-1zm0 0v-1 1zm1-1v-1 1zm0-1v-1 1zm0 0" fill="#483c32"/><path d="M88 13c0-3-1-5-4-5 3 0 4 2 4 5zm-9 2l4 2-4-2zm4 2h1l3-1-3 1h-1zm4-1zm0 0v-1 1zm1-1v-1 1zm0-1v-1 1zm0 0" fill="#473b31"/><path d="M88 13c0-3-1-5-4-5 3 0 4 2 4 5zm-9 2l4 2-4-2zm4 2h1l3-1-3 2h-1zm4-1zm0 0v-1 1zm1-1v-1 1zm0-1v-1 1zm0 0" fill="#473b31"/><path d="M88 13c0-3-1-5-4-5 3 0 4 2 4 5zm-9 2l4 2v1l-4-3zm4 3h1l3-2-3 2h-1zm4-2zm0 0v-1 1zm1-1v-1 1zm0-1v-1 1zm0 0" fill="#473b31"/><path d="M88 13c0-3-1-5-4-5 3 0 4 2 4 5zm-9 2zm4 3h1l3-2-3 2h-1zm4-2zm0 0v-1l1 1h-1zm1-1v-1 1zm0-1v-1 1zm0 0" fill="#473b31"/><path d="M88 13c0-3-1-5-4-5 3 0 4 2 4 5zm-9 2zm4 3h1l3-2-3 2h-1zm4-2zm0 0h1-1zm1-1v-1 1zm0-1v-1 1zm0 0" fill="#473b31"/><path d="M88 13c0-3-1-5-4-5 3 0 4 2 4 5zm-9 2zm4 3h1l3-2-3 2zm4-2zm0 0h1-1zm1-1v-1 1zm0-1v-1 1zm0 0" fill="#473b31"/><path d="M88 13c0-3-1-5-4-5 3 0 4 2 4 5zm-9 2zm5 3l3-2v1l-3 1zm3-2zm0 0zm1-1v-1 1zm0-1v-1 1zm0 0" fill="#473b31"/><path d="M88 13c0-3-1-5-4-5 3 0 4 2 4 5zm-9 2l4 3-1-1h-1l-2-2zm5 3l3-1-3 1zm3-2zm0 0zm1-1v-1 1zm0-1v-1 1zm0 0" fill="#473b31"/><path d="M88 13c0-3-1-5-4-5 3 0 6 2 6 5zm-9 2l2 2-2-2zm3 2l1 1-1-1zm2 1l3-1-3 1zm3-2zm0 0zm1-1v-1 1zm0-1v-1h2l-2 1zm0 0" fill="#463b31"/><path d="M90 13c0-3-3-5-6-5 3 0 6 2 6 5zm-11 2l2 2-2-2zm3 2l1 1-1-1zm2 1l3-1-3 1zm3-2zm0 0zm1-1v-1 1zm0-1l2-1-2 1zm0 0" fill="#463b31"/><path d="M90 13c0-3-3-5-6-5 3 0 6 2 6 5zm-11 2l2 2-2-2zm3 2l1 1h-1v-1zm2 1l3-1-3 1zm3-2zm0 0zm1-1v-1 1zm0-1l2-1-2 1zm0 0" fill="#463b31"/><path d="M90 13c0-3-3-5-6-5 3 0 6 2 6 5zm-11 2l2 2-2-2zm3 3zm2 0l3-1-3 1zm3-2v1zm0 0zm1-1v-1 2zm0-1l2-1-2 1zm-6 4l-1-1 1 1zm0 0" fill="#463b31"/><path d="M90 13c0-3-3-5-6-5h1c2 0 5 2 5 5zm-11 2l2 2-2-2zm2 2l1 1h1l-2-1zm3 1l3-1-3 1zm3-1v-1 1zm0-1zm1 0v-2 2zm0-2l2-1-2 1zm0 0" fill="#463b31"/><path d="M90 13c0-3-3-5-5-5 2 0 5 2 5 5zm-11 2l2 2-2-2zm2 2l2 1-2-1zm3 1l3-1-3 1zm3-1v-1 1zm0-1zm1 0v-2 2zm0-2l2-1-2 1zm0 0" fill="#463b31"/><path d="M90 13c0-3-3-5-5-5 2 0 5 2 5 5zm-11 2l2 2h-1l-1-2zm2 2l2 1-2-1zm3 1l3-1-3 1zm3-1v-1 1zm0-1zm1 0v-2 2zm0-2l2-1-2 1zm0 0" fill="#453930"/><path d="M90 13c0-3-3-5-5-5 2 0 5 2 5 5zm-11 2l1 2-1-2zm2 2l2 1-2-1zm3 1l3-1-3 1zm3-1v-1 1zm0-1zm1 0v-2 2zm0-2l2-1-2 1zm0 0" fill="#453930"/><path d="M90 13c0-3-3-5-5-5 2 0 5 2 5 5zm-11 2l1 2-1-2zm2 2l2 1-2-1zm3 1l3-1-3 1zm3-1v-1 1zm0-1h1zm1 0v-1 1zm0-2l2-1v1zm0 0" fill="#453930"/><path d="M90 13c0-3-3-5-5-5 2 0 5 2 5 5zm-11 2l1 2-1-2zm2 2l2 1-2-1zm3 1l3-1-3 1zm3-1v-1 1zm1-1zm0 0v-1 1zm2-2v-1 1zm0 0" fill="#453930"/><path d="M90 13c0-3-3-5-5-5 2 0 5 2 5 5zm-11 2l1 2-1-2zm2 2l2 1-2-1zm3 1l3-1-3 1zm3-1v-1 1zm1-1zm0 0v-1 1zm2-2v-1 1zm0 0" fill="#453930"/><path d="M90 13c0-3-3-5-5-5 2 0 5 2 5 5zm-11 2l1 2-1-2zm2 2l2 1-3-1zm3 1l3-1-3 1zm3-1v-1 1zm1-1zm0 0v-1h2l-2 1zm2-2v-1 2zm0 0" fill="#453930"/><path d="M90 13c0-3-3-5-5-5 2 0 5 2 5 5zm-11 2l1 2-1-2zm1 2l3 1-3-1zm4 1l3-1-3 1zm3-1v-1 1zm1-1zm0 0l2-1-2 1zm2-1v-2 2zm0 0" fill="#453930"/><path d="M90 13c0-3-3-5-5-5 2 0 5 2 5 5zm-11 2l1 2-1-2zm1 2l3 1-3-1zm4 1l3-1-3 1zm3-1v-1 1zm1-1zm0 0l2-1-2 1zm2-1v-2 2zm0 0" fill="#453930"/><path d="M90 13c0-3-3-5-5-5 2 0 5 2 5 5zm-11 2l1 2-1-2zm1 2l3 1-3-1zm4 1l3-1-3 1zm3-1v-1h1l-1 1zm1-1zm0 0l2-1-2 1zm2-1v-2 2zm0 0" fill="#44392f"/><path d="M90 13c0-3-3-5-5-5l2 1 1 1c2 1 2 2 2 3zm-11 2l1 2-1-2zm1 2l3 1-3-1zm4 1l3-1-3 1zm3-1l1-1-1 1zm1-1zm0 0l2-1-2 1zm2-1v-2 2zm0 0" fill="#44392f"/><path d="M90 13c0-1 0-2-2-3 2 1 2 2 2 3zm-3-4l-2-1V7l2 2zm-8 6l1 2-1-2zm1 2l3 1-3-1zm4 1l3-1-3 1zm3-1l1-1-1 1zm1-1zm0 0l2-1-2 1zm2-1v-2 2zm0 0" fill="#44392f"/><path d="M90 13c0-1 0-2-2-3 2 1 2 2 2 3zm-3-4l-2-2 2 1v1zm-8 6l1 2-1-2zm1 2l3 1-3-1zm4 1l3-1-3 1zm3-1l1-1v1h-1zm1-1zm0 0l2-1-2 1zm2-1v-2 2zm0 0" fill="#44392f"/><path d="M90 13c0-1 0-2-2-3h2v3zm-3-5l-2-1 2 1zm-8 7l1 2-1-1zm1 2l3 1-3-1zm4 1l3-1-3 1zm3-1h1-1zm1-1zm0 0l2-1-2 1zm2-1v-2 2zm0 0M90 13v-3 3zm-3-5l-2-1 1 1h1zm-8 8l1 1-1-1zm1 1l3 1-3-1zm4 1l3-1-3 1zm3-1zm1-1zm0 0l2-1-2 1zm2-1v-1 1zm0 0M90 13v-2 2zm-4-5l-1-1 1 1zm-7 8l1 1-1-1zm1 1l3 1-3-1zm4 1l3-1-3 1zm3-1zm1-1zm0 0l2-1-2 1zm2-1v-1 1zm0 0M90 13v-2 1zm-4-5l-1-1 1 1zm-7 8l1 1-1-1zm1 1l3 1-3-1zm4 1l3-1-3 1zm3-1zm1-1v1zm0 0l2-1-2 1zm2-1v-1 1zm0 0M90 12v-1 1zm-4-4l-1-1 1 1zm-7 8l1 1-1-1zm1 1l3 1-3-1zm4 1l3-1-3 1zm3-1zm1 0v-1 1zm0-1l2-1-2 1zm2-1v-1 1zm-3-6zm0 0" fill="#42382e"/><path d="M90 12v-1l-2-2h-1l-1-1c2 1 4 2 4 4zm-4-4l-1-1 1 1zm-7 8l1 1-1-1zm1 1l3 1h-1l-2-1zm4 1l3-1-3 1zm3-1zm1 0v-1 1zm0-1l2-1-2 1zm2-1v-1 1zm0 0" fill="#42382e"/><path d="M90 12c0-2-2-3-4-4 2 0 4 2 4 4zm-4-4l-1-1h1v1zm-7 8l1 1-1-1zm1 1l2 1-2-1zm4 1l3-1-3 1zm3-1zm1 0v-1 1zm0-1l2-1-2 1zm2-1v-1 1zm0 0" fill="#42382e"/><path d="M90 12c0-2-2-4-4-4V7c2 1 4 3 4 5zm-4-5h-1 1zm-7 9l1 1-1-1zm1 1l2 1-2-1zm4 1l3-1-3 1zm3-1zm1 0v-1 1zm0-1l2-1-2 1zm2-1v-1 1zm0 0" fill="#42382e"/><path d="M90 12c0-2-2-4-4-5h-1c2 1 5 3 5 5zm-5-5zm-6 9l1 1h-1v-1zm1 1l2 1-2-1zm4 1l3-1-3 2zm3-1zm1 0v-1 1zm0-1l2-1-2 1zm2-1zm0 0" fill="#40372d"/><path d="M90 12c0-2-3-4-5-5 2 1 5 3 5 5zm-5-5zm-6 9zm1 1l2 1-2-1zm4 2l3-2-3 2zm3-2zm1 0v-1 1zm0-1l2-1-2 1zm2-1zm0 0" fill="#40372d"/><path d="M90 12c0-2-3-4-5-5 2 1 5 2 5 5zm-5-5zm-6 9zm1 1l2 1-2-1zm4 2l3-2-3 2zm3-2zm1 0v-1 1zm0-1l2-1-2 1zm2-1zm0 0" fill="#40372d"/><path d="M90 12c0-3-3-4-5-5 2 1 5 2 5 5zm-11 4zm1 1l2 1-3-1zm4 2l3-2-3 2zm3-2h1zm1 0v-1 1zm0-1l2-1-2 1zm2-1zm0 0" fill="#40372d"/><path d="M90 12c0-3-3-4-5-5 2 1 5 2 5 5zm-11 4zm0 1l3 1v1l-3-2zm5 2l3-2-3 2zm4-2zm0 0v-1 1zm0-1l2-1-2 1zm2-1zm0 0" fill="#40372d"/><path d="M90 12c0-3-3-4-5-5 2 1 5 2 5 4zm-11 4zm0 1l3 2-3-2zm5 2l3-2-3 2zm4-2zm0 0v-1 1zm0-1l2-1-2 1zm2-1zm0 0" fill="#40372d"/><path d="M90 11c0-2-3-3-5-4 2 1 5 2 5 4zm-11 5zm0 1l3 2-3-2zm5 2l3-2-3 2zm4-2zm0 0v-1 1zm0-1l2-1-2 1zm2-1zm0 0" fill="#40362c"/><path d="M90 11c0-2-3-3-5-4 2 1 5 2 5 4zm-11 5zm0 1l3 2-3-2zm5 2l3-2-3 2zm4-2zm0 0v-1 1zm0-1l2-1-2 1zm2-1zm0 0" fill="#40362c"/><path d="M90 11c0-2-3-3-5-4 2 1 5 2 5 4zm-11 5zm0 1l3 2-3-2zm5 2l3-2h1l-4 2zm4-2zm0 0v-1 1zm0-1l2-1v1zm2-1zm0 0" fill="#40352c"/><path d="M90 11c0-2-3-3-5-4 2 1 5 2 5 4zm-11 5zm0 1l3 2-1-1-2-1zm5 2zm4-2zm0 0v-1 1zm2-1v-1 1zm0 0" fill="#40352c"/><path d="M90 11c0-2-3-3-5-4 2 1 5 2 5 4zm-11 5v1l-1-1zm0 1l2 1-2-1zm2 1l1 1v-1h-1zm3 1zm4-2zm0 0v-1 1zm2-1v-1 1zm0 0" fill="#40352c"/><path d="M90 11c0-2-3-3-5-4 2 1 5 2 5 4zm-12 5l1 1-1-1zm1 1l2 1-2-1zm3 1zm2 1zm4-2zm0 0v-1h2l-2 1zm2-1v-1 1zm0 0" fill="#40352c"/><path d="M90 11c0-2-3-3-5-4 2 0 5 2 5 4zm-12 5l1 1-1-1zm1 1l2 1-2-1zm3 2zm2 0zm4-2zm0 0l2-1-2 1zm2-1v-1 1zm0 0" fill="#40352c"/><path d="M90 11c0-2-3-4-5-4 2 0 5 2 5 4zm-12 5l1 1-1-1zm1 1l2 1-2-1zm3 2zm2 0zm4-2zm0 0l2-1-2 1zm2-1v-1 1zm-8 3l-1-1 1 1zm0 0" fill="#40352c"/><path d="M90 11c0-2-3-4-5-4 2 0 5 2 5 4zm-12 5l1 1-1-1zm1 1l2 1-2-1zm2 1l1 1-1-1zm1 1zm2 0zm4-2zm0 0l2-1-2 1zm2-1v-1 1zm0 0" fill="#40352c"/><path d="M90 11c0-2-3-4-5-4 2 0 5 2 5 4zm-12 5l1 1-1-1zm1 1l2 1h-1l-1-1zm2 1l1 1-1-1zm3 1zm4-2zm0 0l2-1-2 1zm2-1v-1 1zm0 0" fill="#40352c"/><path d="M90 11c0-2-3-4-5-4 2 0 5 2 5 4zm-12 5l1 1-1-1zm1 1l1 1-1-1zm2 1l1 1-1-1zm3 1zm4-2zm0 0l2-1-2 1zm2-1v-1 1zm0 0" fill="#3e342b"/><path d="M90 11c0-2-3-4-5-4 2 0 5 2 5 4zm-12 5l1 1-1-1zm1 1l1 1-1-1zm2 1l1 1-1-1zm3 1zm4-2zm0 0l2-1-2 1zm2-1v-1 1zm0 0" fill="#3e342b"/><path d="M90 11c0-2-3-4-5-4 2 0 5 2 5 4zm-12 5l1 1-1-1zm1 1l1 1-1-1zm2 1l1 1-2-1h1zm3 1l4-2v1l-4 1zm4-2zm0 0l2-1-2 1zm2-1v-1zm0 0" fill="#3e342b"/><path d="M90 11c0-2-3-4-5-4h2l3 3zm-12 5l1 1-1-1zm1 1l1 1-1-1zm1 1l2 1-2-1zm4 1l4-1-4 1zm4-2zm0 0l2-1-2 1zm2-1zm0 0" fill="#3e342b"/><path d="M90 10l-3-3 1 1 2 2zm-3-3zm0 0h-2 2zm-9 9l1 1-1-1zm1 1l1 1-1-1zm1 1l2 1-2-1zm4 1l4-1-4 1zm4-2zm0 0l2-1-2 1zm2-1zm0 0M90 10l-2-2 2 2zm-4-3h-1 1zm-8 9l1 1-1-1zm1 1l1 1-1-1zm1 1l2 1-2-1zm4 1l4-1-4 1zm4-2zm0 0l2-1v1h-2zm2-1zm0 0M90 10l-2-2v1l2 1zm-4-3h-1 1zm-8 9l1 1-1-1zm1 1l1 1-1-1zm1 1l2 1-2-1zm4 1l4-1-4 1zm4-2v1zm0 0zm2-1zm0 0" fill="#3e342a"/><path d="M90 10l-2-1h2v1zm-3-3h-2 2zm-9 9l1 1-1-1zm1 1l1 1-1-1zm1 1l2 1-2-1zm4 1l4-1-4 1zm4-1v-1 1zm0-1zm2-1v1zm0 0M90 10V9v1zm-3-3h-1l2 1-1-1zm-9 9l1 1-1-1zm1 1l1 1-1-1zm1 1l2 1-2-1zm4 1l4-1-4 1zm4-1v-1 1zm0-1zm2 0v-1 1zm0 0M90 10V9v1zm-2-2l-2-1 2 1zm-10 8l1 1h-1zm1 1l1 1-1-1zm1 1l2 1-2-1zm4 1l4-1-4 1zm4-1v-1 1zm0-1zm2 0v-1 1zm0 0M90 10V9l1 1zm-2-2l-2-1 4 2-2-1zm-10 9h1-1zm1 0l1 1-1-1zm1 1l2 1-2-1zm4 1l4-1-4 1zm4-1v-1 1zm0-1zm2 0v-1 1zm0 0" fill="#3e342a"/><path d="M91 10l-1-1-4-2c1 0 4 1 5 3zm-13 7h1-1zm1 0l1 1-1-1zm1 1l2 1-2-1zm4 1l4-1-4 1zm4-1v-1 1zm0-1zm2 0v-1 1zm0 0" fill="#3e342a"/><path d="M91 10c-1-2-4-3-5-3 1 0 4 1 5 3zm-13 7h1-1zm1 0l1 1-1-1zm1 1l2 1-2-1zm4 1l4-1-4 1zm4-1v-1 1zm0-1zm2 0v-1 1zm0 0" fill="#3c3329"/><path d="M91 10c-1-2-4-3-5-3V5l5 5zm-13 7h1zm1 0l1 1-2-1zm1 1l2 1-2-1zm4 1l4-1-4 1zm4-1v-1 1zm0-1zm2 0v-1 1zm0 0M91 10l-5-5 5 5zm-13 7zm0 0l2 1-2-1zm2 1l2 1-2-1zm4 1l4-1-4 1zm4-1v-1 1zm0-1zm2 0v-1 1zm0 0M91 10l-5-5 5 5zm-13 7zm0 0l2 1-2-1zm2 1l2 1-2-1zm4 1l4-1-4 1zm4-1v-1zm0-1zm2 0v-1 1zm0 0" fill="#3c3329"/><path d="M91 10l-5-5 5 5zm-13 7zm0 0l2 1-2-1zm2 1l2 1-2-1zm4 1l4-1-4 1zm4-1zm0-1h2l-2 1zm2 0v-1 1zm0 0M91 10l-5-5 5 5zm-13 7zm0 0l2 1-2-1zm2 1l2 1-2-1zm4 1l4-1-4 1zm4-1zm0 0l2-1-2 1zm2-1v-1 1zm0 0M91 10l-5-5 5 5zm-13 7l2 1-2-1zm2 1l2 1-2-1zm4 1l4-1-4 2zm4-1zm0 0l2-1-2 1zm2-1v-1 1zm0 0M91 10l-5-5 5 5zm-13 7l2 1-2-1zm2 1l2 1-2-1zm4 2l4-2-4 2zm4-2zm0 0l2-1-2 1zm2-1v-1 1zm0 0M91 10l-5-5 5 5zm-13 7l2 1-2-1zm2 1l2 1-2-1zm4 2l4-2-4 2zm4-2zm0 0l2-1-2 1zm2-1v-1 1zm0 0M91 10l-5-5 5 5zm-13 7l2 1h-1l-1-1zm2 1l2 1-3-1zm4 2l4-2-4 2zm4-2zm0 0l2-1-2 1zm2-1v-1 1zm0 0M91 10l-5-5 5 4zm-13 7l1 1-1-1zm1 1l3 1-3-1zm5 2l4-2-4 2zm4-2zm0 0l2-1-2 1zm2-1v-1 1zm0 0M91 9l-5-4 5 4zm-13 8l1 1-1-1zm1 1l3 1-3-1zm5 2l4-2-4 2zm4-2zm0 0l2-1-2 1zm2-1v-1 1zm0 0" fill="#3c3229"/><path d="M91 9l-5-4 5 4zm-13 8l1 1 3 1-4-2zm6 3l4-2-4 2zm4-2zm0 0l2-1-2 1zm2-1v-1zm0 0" fill="#3c3229"/><path d="M91 9l-5-4 5 4zm-13 8l4 2v1l-4-3zm6 3l4-2-4 2zm4-2zm0 0l2-1-2 1zm2-1zm0 0M91 9l-5-4 5 4zm-13 8zm6 3l4-2-4 2zm4-2zm0 0l2-1-2 1zm2-1zm0 0M91 9l-5-4 5 4zm-13 8zm6 3l4-2-4 2zm4-2l2-1-2 1zm2-1zm0 0M91 9l-5-4 5 4zm-13 8zm6 3l4-2-4 2zm4-2l2-1-2 1zm2-1zm0 0M91 9l-5-4 5 4zm-13 8zm6 3l4-2-4 2zm4-2l2-1-2 1zm2-1zm0 0" fill="#3c3229"/><path d="M91 9l-5-4 5 4zm-13 8zm6 3l4-2-4 2zm4-2l2-1-2 1zm2-1zm0 0M91 9l-5-4 5 4zm-13 8zm6 3l4-2-3 2zm4-2l2-1-2 1zm2-1h1-1zm0 0" fill="#3a3128"/><path d="M91 9l-5-4 5 4zm-13 8zm7 3l3-2-3 2zm3-2l2-1-2 1zm2-1h1-1zm0 0M91 9l-5-4 5 4zm-13 8zm7 3l3-2-3 2zm3-2l2-1-2 1zm2-1h1-1zm0 0M91 9l-5-4 5 4zm-13 8zm7 3l3-2-3 2zm3-2l2-1h1l-3 1zm0 0M91 9l-5-4 5 4zm-13 8zm7 3l3-2-3 2zm3-2l3-1-3 1zm0 0M91 9l-5-4 5 4zm-13 8l4 3-4-3zm7 3l3-2-3 2zm3-2l3-1-3 1zm0 0M91 9l-5-4c2 0 4 3 5 4zm-13 8l4 3-4-3zm7 3l3-2-3 2zm3-2l3-1-3 1zm0 0" fill="#3a3129"/><path d="M91 9c-1-1-3-4-5-4 2 0 4 2 5 4zm-13 8l4 3-4-3zm7 3l3-2-3 2zm3-2l3-1-3 1zm0 0" fill="#3a3129"/><path d="M91 9c-1-2-3-4-5-4 2 0 4 2 5 4zm-13 8l4 3c-2 0-3-1-4-3zm7 3l3-2-3 2zm3-2l3-1-3 1zm0 0" fill="#3a3129"/><path d="M91 9c-1-2-3-4-5-4 2 0 4 2 5 4zm-13 8c1 2 2 3 4 3-2 0-3-1-4-3zm7 3l3-2-3 2zm3-2l3-1-1 1zm0 0" fill="#393028"/><path d="M91 9c-1-2-3-4-5-4 2 0 4 2 5 4zm-13 8c1 2 2 3 4 3-2 0-3-1-4-3zm7 3l3-2-3 2zm5-2l1-1-1 1zm0 0" fill="#393028"/><path d="M91 9c-1-2-3-4-5-4 2 0 4 2 5 4zm-13 8c1 2 2 3 4 3-2 0-3-1-4-3zm7 3l3-2-3 2zm5-2l1-1-1 1zm0 0" fill="#393028"/><path d="M91 9c-1-2-3-4-5-4 2 0 4 2 5 4zm-13 8c1 2 2 3 4 3l-4-2zm7 3l3-2h2l-5 2zm5-2l1-1-1 1zm0 0" fill="#393028"/><path d="M91 9c-1-2-3-4-5-4 2 0 4 2 5 4zm-13 9l4 2-4-2zm7 2l5-2v1l-5 1zm5-2l1-1-1 1zm0 0" fill="#393028"/><path d="M91 9c-1-2-3-4-5-4 2 0 4 2 5 4zm-13 9l4 2-4-2zm7 2l5-1-5 1zm5-2l1-1-1 1zm0 0" fill="#393028"/><path d="M91 9c-1-2-3-4-5-4 2 0 4 2 5 3zm-13 9l4 2-4-2zm7 2l5-1-5 1zm5-2l1-1-1 2zm0 0" fill="#393028"/><path d="M91 8c-1-1-3-3-5-3 2 0 4 2 5 3zM78 18l4 2h-1l-3-2zm7 2l5-1-5 1zm5-1l1-2-1 2zm0 0" fill="#393028"/><path d="M91 8c-1-1-3-3-5-3 2 0 4 2 5 3zM78 18l3 2-3-2zm7 2l5-1-5 1zm5-1l1-2v1l-1 1zm0 0" fill="#382e27"/><path d="M91 8c-1-1-3-3-5-3 2 0 4 2 5 3zM78 18l3 2-3-2zm7 2l5-1-5 1zm5-1l1-1-1 1zm0 0" fill="#382e27"/><path d="M91 8c-1-1-3-3-5-3 2 0 4 2 5 3zM78 18l3 2-3-2zm7 2l5-1-5 1zm5-1l1-1-1 1zm0 0" fill="#382e27"/><path d="M91 8c-1-1-3-3-5-3h1l4 3zM78 18l3 2-3-2zm7 2l5-1 1-1-6 2zm0 0" fill="#382e27"/><path d="M91 18l-6 2 2 2 1-1 2-2 1-1zm-10 2l-3-2h-1v2h1v-1h1l1 1v1l1-1zm6-15l4 3V3h-1l-3 1s3 1 3 3l-3-3v1zm0 0" fill="#382e27"/><path d="M112 58h-1v3l-1 1v1h-1v1l-1 1-1 1s1 0 0 0v1h-2v5s2 0 0 1v3h2v1l-2 1 2 1-2 1-1-1v-1h-1c0-1 0 0 0 0v-1l-1-1v-3h-1v2l-3 1-1 1h-3l-2 1-1-1h-3l-1-1-1-1-1-2-1-2-1-1-1-1-1-1-1-2v-1h1v-1c0 1 0 1 0 0h1v-3h1l-1-1 1-1 1-1-1-2v-9h1v-1l1-1 1-1v-1h1v-1l1-1s5-6 9-6h7l1 1h7l14-3c3 1 5 1 3 6s-4 9-8 11l-5 4c-1 1-2 4-4 4zm0 0" fill="#2f2b2a"/><path d="M112 58h-1v3l-1 1v-3l-2-4v-3h-1l-2-1h2l-3-2h-1 1l-1-1h-1l-1-1-1-1-1-1h-4l1 1v1h1v2l4 5 1 4h-9v1h1l1 1-2-1h-1l-1-1-1-2-2-1-1-1v-2h-2l-1 1h-1l1-2v-4l1-1 1-2 4-3 6-6-1 2 1-1-1 2-1 1v2l1-2 2-1 1-1v-1h2l2-1h1l2 1h7l14-3c3 1 5 1 3 6s-4 9-8 11l-5 4c-1 1-2 4-4 4zm0 0" fill="#282726"/><path d="M98 51l1 2s0 2-2 3c-2 3-6 2-7-1-2-2 2-3 2-3zm0 0" fill="#4f4a4b"/><path d="M95 59s-7-3-7-5c0 0-1 4 7 5zm0 0" fill="#2b2927"/><path d="M97 55s2-2 1-4-4-4-8-3l-3 3 3 5c2 2 6 2 7-1zm0 0" fill="#2b2927"/><path d="M88 51s2-3 6-3c0 0 4 1 4 5-1 5-6 5-7 2-3-1-3-2-3-4zm0 0" fill="#d3d09b"/><path d="M95 49l-1-1 1 1zm-3 0l1-1-1 1zm0 0" fill="#47453a"/><path d="M93 55h-1c-4 0-4-3-4-4l4-2 1-1h1l1 1 1 1v4l-3 1zm1-6c-3 0-4 2-4 3l2 3h1c1 0 3-1 3-3 1-2-1-3-1-3h-1zm0 0" fill="#b3b082"/><path d="M95 49s2 1 1 3c0 2-2 3-4 3l-2-3c0-1 2-4 5-3zm0 0" fill="#7c815f"/><path d="M93 49l3 1c0 2 0 4-3 5 0 0-2 0-2-2l2-4zm0 0" fill="#34302f"/><path d="M92 54l-1-1 2-3h1-1l1 1-1 2-1 1zm3-3zm0 0" fill="#3f3a39"/><path d="M94 51zm1 0l-1-1c1 0 2 0 1 1zm0 0" fill="#b2acab"/><path d="M94 51l-1-1h1l1 1h-1zm0 0" fill="#b6b4b3"/><path d="M93 50l1 1h1l-1-1h-1zm0 0" fill="#fefefe"/><path d="M96 52l-2 2h-1l1-2h2zm0 0" fill="#2b2927"/><path d="M97 50l1 3-2 2 1-3v-2zm0 0" fill="#f8f2c1"/><path d="M110 59l-1-3v-3l1-1 3-2-2 1 1-1 1-1-1-1-1-2-1-1h1l1 2h1v2h2v1l-2 1-2 1-1 1h4l1-1v-1h2v-1h1v-2l1-1 4-2c2-1 4-6 4-6v-2l-1-1h-3l-3 1h-2l-1 1h-4l-1 1c-1 0-1 0 0 0l-1 2-1 1v1l1 2h-1v-1l-1-1v-2l1-3 7-3h11s1 1 0 3c0 3-2 7-3 8l-5 4c-2 1-4 1-5 3l-3 3-2 3zm15-14l-4 1h-1l-1 1v2l1-1 1-1 2-1 1-1h1zm0 0" fill="#332c26"/><path d="M112 54h-2l-1-1v2l1 1 2-1v-1zm0 0" fill="#41332a"/><path d="M110 51v-5l-1-1-1-1 2 1 1 2 1 1v1l-1 1-1 1zm0-7h-3v-1h2l1 1zm0 0" fill="#302b27"/><path d="M98 58l2 1h2-1l-1 1v1h1-1v1h1v1l-1 1s0-1 0 0l1 2 1 1v1l1 1v1l-1 1-1 4-2 1h-3l-1 1h-2l-1-1h-2l-5-5-4-4-1-1 1-2h1v-1h1v-4l1-1v-2s2 4 4 4l7-1 3-1zm0 0" fill="#282726"/><path d="M102 71h1l1 1v5h1-2v-1h-1v-3l-1-1 1-1zm0 0" fill="#282726"/><path d="M84 58l2 2h4l2 1h3-5l-6-2 3 2-2-1-2-1 1-1zm0 0" fill="#2f2b2a"/><path d="M110 53l1-1 2-1 2-1v-1h-2s1 0 0-1v-1l1 1 2-1h1l1-1 1-1 2-1 2-1v-1l1-1v-2h-1 1l-3-1h2-2l-4 1v-1 1h-5v2h-1l1-2c-1 0-1 0 0 0l1-1h4l1-1h2l3-1h3l1 1v2l-4 6-4 2-1 1v2h-1v1h-2v1l-1 1h-4zm3-6h-1l-1-2h1v1l1 1zm-1-2h-1l-1-2 2 2zm-2-2zm0 0v-1 1zm0 0" fill="#3a3027"/><path d="M119 49v-2l1-1h1l4-1h-1l-1 1-2 1-1 1-1 1zm0 0" fill="#3d3127"/><path d="M92 34l-5 4h-2l-1 1-1 2-2 1-1 1v-6l-1-2-1-1-2-2h-1 3l2 1h1v-1l1-2s1-1 0-2v-1l-1-1-1-1v-1l1-2s-1 0 0 0v-1h1s0 1 0 0h1l1 1 1 2h2l1-2v-2l3-2 1-2v8l1 1v1h1l1 1v1l1 1h-1l-1 2-2 1 4-1-2 1-1 1zm0 0" fill="#282726"/><path d="M77 32l-5 1c-2 1-2 2-2 3s1 6 5 6 3-7 3-7zm0 0" fill="#4f4a4b"/><path d="M72 33s4-3 7 0 0 8-1 9c-2 1-6 0-7-4 0 0-2-3 1-5zm0 0" fill="#2b2927"/><path d="M80 37s0-5-5-5-5 5-4 7l6 3s3-1 3-5zm0 0" fill="#cdcd91"/><path d="M76 41l-4-2 3 2 2-2c2-1 2-2 2-3l-1 5h-2zm0 0" fill="#e4e2aa"/><path d="M72 39v-1c0-1 0-3 3-4-1 1-1 2-3 2v3zm7-3v-1l-1-1h-3 2l2 1v1zm0 0" fill="#a5a775"/><path d="M75 41l-3-2v-3 1l3 2 2-1c3-1 2-3 2-3l-1-1 1 1v1c0 1 0 2-2 3l-2 2zm0 0" fill="#b3b282"/><path d="M79 35s1 2-2 3c-2 3-5 0-5-1s2-4 5-3l2 1zm0 0" fill="#dcd2bf"/><path d="M74 36c1-2 2-2 3-2l1 1c1 1 1 2-1 3s-6 0-3-2zm0 0" fill="#34302f"/><path d="M75 38h-1v-2l2-2 2 1h-2l1 1-1 1-1 1zm0 0" fill="#3f3a39"/><path d="M77 36h1v-1 1h-1zm0 0" fill="#b2acab"/><path d="M77 36l-1-1h2v1zm0 0" fill="#b6b4b3"/><path d="M76 35l1 1h1l-1-1h-1zm0 0" fill="#fefefe"/><path d="M78 37l-1 1h-2l2-1h1zm0 0" fill="#2b2927"/><path d="M72 37v-3l3-2h1l1 1h-2c-1 0-3 1-3 3v1zm0 0" fill="#e8e5af"/><path d="M98 31l-2 2-1 1-1 1h-1v1l2-1-2 1-2 2-1 1-2 2 2-3-2 1h-1l-1 2 2-3 3-2 1-1 2-1 1-1-3 2-2 1 2-2 1-1h2l1-1 1-1h1zm1 1l-1 1-1 1-1 1v-1l1-1 1-1 1-1v1zm0 0" fill="#2b2927"/><path d="M79 20v4l1 1v1l-2-2v1h-1v-1h-1v-5l1 2s-1 0 0 1h1v-1l1-1v-1zm0 0" fill="#262523"/><path d="M77 31h-3l-2 1-1 1v-2h1v-1h2v-1h-3 3l1 1 1 1h1zm0 0" fill="#282726"/><path d="M80 44h-3l-1 1-2 1 1-1-1-2h4l1-1v1h3l-2 1zM70 33l-1 5 1 3 2 1 2 1-2-1-2-1h-1v-2l-2-1v-2h1v-1s0 1 0 0h1v-1l1-1v-1 1zm0 0" fill="#2b2927"/><path d="M74 44v2h-3 1l-2 1h-1l-1 1h-2 1l-1 1-1 1-1 1h-1v1h1-1s-1 0 0 1v2l-1-2-2-1h-1l-3-1h6l-2-2h2l-3-1h3l1-1h1l-1-2 1 1h2v-1s0 1 1 0l3-1 1-1 1-1c0 1 0 2 2 2zM62 31l-1 3 1-1v5l-1-1 1 2-2-2v4l-4-3v4l2 2h-2l3 2-1-1 1 1h-3l3 1h-6l2-3 1-5v-1l2-2 2-3 2-3zm6-5h1l1 1h1-2v1h-4v1l-1 1-1 1v1h-1l2-4 2-1 1-1zM53 52v1l1 1-1 1 1 1h-1l1 2h-1l1 1v2l-1 1-2 1-2 1-3 1 1-1 1-1-2 1 2-2h-2l2-1h-3l3-1-1-1 3-1h-4l4-3h-2 2s-1-1-1 0l2-1h-2l1-1-1-2 3-1h1l1 1-1 1zm0 0" fill="#282726"/><path d="M104 70l-2-5 1 1-1-2v-1l1 1v-1l-1-2 2 2-1-4 1 2 1 1v-3c0 1 0 2 2 2v-2l1 1-1-4c-2-1-2-2-2-3l2 2 1 3 1 4v-1 2l-1-1v1l-1 2v-1 1l-2-1v2l-1-1v5zm0 0" fill="#2b2927"/><path d="M74 49l1 1 1 1 3 2v2l-2-1h-2l-1-2-2-2 2-1zm0 0" fill="#fbddd4"/><path d="M76 55h3l1-1v1l-3 1-2-1-1 1 2-1zm0 0" fill="#ca827a"/><path d="M80 55h-2l-1-1-1 1c-1 0 0 0 0 0h1l1 1 2-1zm0 0" fill="#412e27"/><path d="M78 56l-1-1h-1 1l1 1zm0 0" fill="#a36459"/><path d="M79 56h-1l-1-1h-1 3zm0 0" fill="#412e27"/><path d="M72 56v-2l2-1v-1l-2-1v-1 6zm0 0" fill="#e69d9b"/><path d="M74 53v-1l-2-1v-2 2l2 1s-2 2 0 1zm0 0" fill="#412e27"/><path d="M74 53l-2-1v-1l2 1v1zm0 0" fill="#b5726e"/><path d="M74 53v-1l-2-1 2 1zm0 0" fill="#412e27"/><path d="M74 51l-2-2h2l1 2zm0 0" fill="#fbddd4"/><path d="M81 50l-1-2-2-1-2 1 2-1h2l1 3zm0 0" fill="#fefbf7"/><path d="M80 51l1-1v1h-1zm0 0" fill="#fbf8f6"/><path d="M79 53l-3-2-1-1h-1v-1l1-1h1l2-1 2 1 1 2-1 1-1 2zm0 0" fill="#fdf4f0"/><path d="M75 50l-1-1v1h1zm0 0" fill="#f8e5e3"/><path d="M79 54l-1-1-4-3v-1l1 1 1 1 3 2v1zm0 0" fill="#fdf4f0"/><path d="M75 48l2-1h3l1 3c0 1-1 3-2 2-2-1-4-2-4-4zm0 0" fill="#fcfafa"/><path d="M74 54l-2 2-1 3h-1l1-1s1-3 3-3v-1zm0 0" fill="#e69d9b"/><path d="M74 55l-2 1v2l-1 1 1-1 2-3zm-3 5v-1h-1 1v1zm4 5l-1-1-2-1 2 1 1 1zm0 0" fill="#412e27"/><path d="M67 52v-1 1zm0 0M66 52v-1 1zm1-2v-1 1zm0 1v-1 1zm1 1v-1 1zm13 12v-2 2zm-1-2v-1 1zm-1-1v-1 1zm1-1v-1 1zm-1 2v-1 1zm0 0M80 63h-1l1-1v1zm2-2v-1 1zm-1 1v-1l1 1h-1zm1 1l-1-1h1v1zm0 0" fill="#faf5ed"/><path d="M64 46v1h1v-1zm-1-1v1h1v-1zm-1-1v1h1v-1zm-1-1v1h1zm0 0" fill="#fefefe"/><path d="M58 41v1h1v-1zm0 0" fill="#f3f3f3"/><path d="M62 45v1h1v-1zm0 0" fill="#fefefe"/><path d="M61 44v1h1v-1zm0 0" fill="#fcfdfe"/><path d="M61 46v1h1v-1zm-3-2v1h1v-1zm5 7v1h1v-1zm-3-2v1h1v-1zm-4-1v1h2v-1zm0 0" fill="#fefefe"/><path d="M54 47v1h1v-1zm0 0" fill="#faf9fa"/><path d="M64 49v1h1v-1zm-2-1l1 1v-1zm-1-1v1h1v-1zm-2-1v1h1v-1zm0 0" fill="#fefefe"/><path d="M56 45v1h2v-1zm0 0" fill="#fafbfb"/><path d="M51 43v1h1v-1zm0 0" fill="#e0e0e0"/><path d="M64 50v1h1v-1h-1zm-2-1v1h1v-1zm-1-1v1h1v-1zm-1 0l1 1v-1zm-1-1v1h1v-1zm-3-1v1h2zm0 0" fill="#fefefe"/><path d="M55 46v1h1v-1zm0 0" fill="#fcfdfe"/><path d="M53 45v1h1v-1zm0 0" fill="#faf9fa"/><path d="M51 44v1h1zm0 0" fill="#f3f3f3"/><path d="M48 43v1h1v-1zm0 0" fill="#dfdedf"/><path d="M45 42l1 1v-1zm0 0" fill="#bfbcbd"/><path d="M62 51v1h1v-1zm-4-1v1h1v-1zm-2 0v1h2v-1zm-2 2v1h1v-1zm-1 0v1h1v-1zm0 0" fill="#fefefe"/><path d="M52 52v1h1v-1zm0 0" fill="#fafbfb"/><path d="M48 53v1h1v-1zm0 0" fill="#ebecee"/><path d="M42 56h1v-1zm0 0" fill="#a09d9e"/><path d="M56 53v1h2v-1zm-4 1v1h1v-1zm0 0" fill="#fefefe"/><path d="M49 55v1h1v-1zm0 0" fill="#f6f8f9"/><path d="M47 56v2l1-2zm0 0" fill="#efeff0"/><path d="M43 59v1h1v-1zm0 0" fill="#cdcbcc"/><path d="M60 55h1v-1zm-4 1v2h2v-2zm0 0" fill="#fefefe"/><path d="M52 60v1h1v-1zm0 0" fill="#f3f3f3"/><path d="M51 61v1h1v-1zm0 0" fill="#ebecee"/><path d="M50 63h1v-1zm0 0" fill="#e4e4e5"/><path d="M47 66v1h1v-1zm0 0" fill="#b9b7b8"/><path d="M61 55h1v-1zm-3 1v2h1v-2zm-2 2v1h2v-1zm0 0" fill="#fefefe"/><path d="M55 59v1h1v-1zm0 0" fill="#fcfdfe"/><path d="M54 60v1h1v-1zm0 0" fill="#fafbfb"/><path d="M53 61v1l1-1h-1zm0 0" fill="#f6f8f9"/><path d="M52 62v1h1v-1zm0 0" fill="#efeff2"/><path d="M51 63v1h1v-1zm0 0" fill="#e9e9ea"/><path d="M50 65h1v-1zm0 0" fill="#dfdedf"/><path d="M54 62v1h1v-1zm0 0" fill="#e4e4e5"/><path d="M76 64s7 11 0 29c0 0 6-15 0-29zm0 0" fill="#fefefe"/><path d="M77 64s13 17 7 33c0 0 4-13-7-33zm0 0" fill="#fefefe"/><path d="M80 68s13 17 7 33c0 0 5-14-7-33zm0 0" fill="#fefefe"/><path d="M77 63s11 9 14 27l2 16s0-12-2-22c-4-11-12-20-14-21zm0 0" fill="#fefefe"/><path d="M78 65s10 11 13 28l1 16s0-12-2-23c-3-9-10-20-12-21zm2-4s11 11 14 19c0 0-7-13-14-19zm0 0" fill="#fefefe"/><path d="M80 63s12 9 15 26c0 0 0-14-15-26zm0 0" fill="#fefefe"/><path d="M79 64s12 11 15 26c0 0-2-15-15-26zm2-3s16 7 20 17c0 0-3-8-20-17zm-6 4s2 8-3 17c0 0 4-10 3-17zm0 0" fill="#fefefe"/><path d="M85 36l6-7c1 0-4 3-6 7zm0 0" fill="#dbdadb"/><path d="M84 36s6-8 13-12c0 0-9 3-13 12zm0 0M85 34l8-12-8 12zm9-18L84 34s9-14 10-18zM83 34s3-8 2-15c0 0 1 7-2 15zm-1 2s1-7-3-11c0 0 4 3 3 11zm0 0" fill="#dbdadb"/><path d="M94 44s8-7 16-9c0 0-10 3-16 9zm0 0" fill="#eeedee"/><path d="M95 43s7-7 14-9c0 0-9 3-14 9zm0 2l2-1c3-1 10-2 15 2 0 0-7-4-17-1zm0 0" fill="#eeedee"/><path d="M104 50s-2-6-9-5c0 0 6-1 9 5zm0 0" fill="#eeedee"/><path d="M95 45s3 0 5 4c0 0-1-3-5-4zm0 0" fill="#eeedee"/><path d="M118 47l-3-3 3 3zm0-1l-3-2 3 2zm0 0" fill="#fefefe"/><path d="M120 44h1zm0 0h1zm1 0h-1 1zm-1 0zm1 0h-1 1zm-1 0zm1 0h-1 1zm-1 0zm1 0h-1 1zm-1 0zm1 0h-1 1zm-1 0zm1 0h-1 1zm-1 0v1h-1 1v-1zm0 0" fill="#5d4e40"/><path d="M121 44h-1 1zm-1 0v1h-1 1v-1zm0 0" fill="#5d4e40"/><path d="M121 44h-1l1-1zm-1 0v1h-1l1-1zm-1 1zm2-2l-1 1 1-1zm-1 1zm0 0l-1 1 1-1zm-1 1zm0 0" fill="#5d4e40"/><path d="M121 43l-1 1v-1l1 1-1-1h1zm-1 1zm0 0l-1 1 1-1zm-1 1zm0 0" fill="#5d4e40"/><path d="M121 43h-1 1zm-1 0zm0 1zm0 0l-1 1 1-1zm-1 1zm0 0M121 43h-1 1zm-1 0zm0 1zm0 0l-1 1v-1h1zm-1 1zm0 0" fill="#5c4d3f"/><path d="M121 43h-1 1zm-1 0zm0 1zm0 0h-1v1-1h1zm-1 1zm2-2h-1 1zm-1 0zm0 1zm0 0h-1 1zm-1 1v-1zm2-2h-1 1zm-1 0v1zm0 1zm0 0h-1 1zm-1 0zm2-1h-1 1zm-1 0zm0 1zm0 0h-1zm-1 0zm0 0" fill="#5c4d3f"/><path d="M121 43zm0 0h-1 1zm-1 0zm0 1h-1l1-1zm-1 0zm0 0zm0 0M121 43zm0 0h-1 1zm-1 0zm0 0l-1 1 1-1zm-1 1zm0 0zm0 0" fill="#5b4c3f"/><path d="M121 43zm0 0h-1 1zm-1 0zm0 0l-1 1 1-1zm-1 1zm0 0zm0 0M121 43zm0 0h-1 1zm-1 0zm0 0l-1 1 1-1zm-1 1zm0 0zm0 0M121 43h2zm0 0h-1 1zm-1 0zm0 0l-1 1 1-1zm-1 1zm0 0zm0 0M123 43h-2 2zm-2 0h-1 1zm-1 0zm0 0l-1 1v-1h1zm-1 1zm0 0zm0 2v-1 1zm4-3h-2 2zm-2 0h-1 1zm-1 0zm0 0h-1 1zm-1 1zm0 0zm0 0v1h-1l1-1zm0 1v1l-1-1h1zm0 0" fill="#5b4c3e"/><path d="M123 43h-2 2zm-2 0h-1 1zm-1 0zm0 0h-1zm-1 1v-1zm0 0zm0 0l-1 1 1-1zm-1 1l1 1h-1v-1zm5-2h-2 2zm-2 0h-1 1zm-1 0zm-1 0zm0 0zm0 1zm0 0l-1 1 1-1zm-1 1zm0 0M123 43h-2 2zm-2 0h-1 1zm-1 0h-1 1zm-1 0zm0 0zm0 1zm0 0l-1 1 1-1zm-1 1zm0 0" fill="#5b4c3e"/><path d="M123 43zm0 0h-2zm-2 0h-1 1zm-1 0h-1 1zm-1 0zm0 0zm0 1zm0 0l-1 1 1-1zm-1 1zm0 0M123 43h-2 2zm-2 0zm0 0h-1 1zm-1 0h-1 1zm-1 0zm0 0zm0 1zm0 0l-1 1v-1h1zm-1 1zm5-2h-2 2zm-2 0zm0 0h-1 1zm-1 0h-1 1zm-1 0zm0 0zm0 1h-1 1zm0 0h-1zm-1 1zm5-2zm-5 3zm5-3h-2 2zm-2 0zm0 0h-1s0-1 1 0zm-1 0h-1 1zm-1 0zm0 0zm0 1h-1 1zm-1 0v1zm0 1zm0 1zm5-3zm-5 2zm0 0" fill="#5a4a3d"/><path d="M123 43h-2 2zm-2 0v-1 1zm0 0h-1l1-1zm-1 0h-1 1zm-1 0zm0 0v1zm0 1h-1 1zm-1 0zm0 1zm0 0zm0 1zm5-3zm0 0M123 43h-2 2zm-2 0v-1 1zm0-1l-1 1 1-1zm-1 1h-1 1zm-1 0zm0 0zm0 1h-1l1-1zm-1 0zm0 1v-1zm0 0zm0 1zm5-3zm0 0" fill="#5a4a3d"/><path d="M123 43h-2 2zm-2 0v-1zm0-1l-1 1v-1h1zm-1 1h-1 1zm-1 0zm0 0zm0 0l-1 1 1-1zm-1 1zm0 0zm0 1zm0 1zm5-3zm0 0" fill="#594a3c"/><path d="M123 43h-2v-1l2 1zm-2-1zm0 0h-1 1zm-1 1h-1l1-1zm-1 0zm0 0zm0 0l-1 1v-1zm-1 1zm0 0v1zm0 1zm0 1zm5-3zm0 0M123 43l-2-1 2 1zm-2-1zm0 0h-1 1zm-1 0l-1 1 1-1zm-1 1zm0 0h-1 1zm-1 0zm0 1zm0 0zm0 1zm0 1zm5-3zm0 0M123 43l-2-1 2 1zm-2-1zm0 0h-1zm-1 0l-1 1 1-1zm-1 1zm0 0h-1 1zm-1 0zm0 1zm0 0zm0 1v-1zm0 0zm0 1zm5-3zm0 0M123 43l-2-1 2 1zm-2-1zm-1 0zm0 0l-1 1 1-1zm-1 1zm0 0h-1 1zm-1 0zm0 1zm0 0zm0 0zm0 1zm0 1zm5-3zm0 0" fill="#594a3c"/><path d="M123 43l-2-1h2zm-2-1zm-1 0zm0 0l-1 1 1-1zm-1 1zm0 0h-1 1zm-1 0v1zm0 1zm0 0zm0 0zm0 1zm0 1zm5-3v-1 1zm0 0M123 42h-2 2zm-2 0h-1 1zm-1 0zm0 0l-1 1v-1zm-1 1zm0 0h-1 1zm-1 0zm0 1zm0 0zm0 0zm0 1zm0 1zm5-3v-1 1zm0-1h-2 2zm-2 0h-1 1zm-1 0zm-1 0zm0 1v-1zm0 0h-1 1zm-1 0zm0 1v-1zm0 0zm0 0zm0 1zm0 1zm5-3v-1 1zm0 0" fill="#594a3c"/><path d="M123 42h-2 2zm-2 0h-1 1zm-1 0zm-1 0zm0 0zm0 1h-1 1zm-1 0zm0 0zm0 1zm0 0zm0 1zm0 1zm5-3v-1 1zm0-1h-2 2zm-2 0h-1 1zm-1 0h-1 1zm-1 0zm0 0zm0 1h-1zm-1 0zm0 0zm0 1zm0 0v1h-1l1-1zm0 1v1-1h-1zm0 1zm5-3v-1 1zm0 0" fill="#57493c"/><path d="M123 42h-2zm-2 0h-1 1zm-1 0h-1 1zm-1 0zm0 0zm-1 1zm0 0zm0 0zm0 1zm0 0l-1 1 1-1zm-1 1h1zm1 1h-1zm5-3v-1h-2l2 1zm0 0M121 42zm0 0h-1 1zm-1 0h-1 1zm-1 0zm0 0v1h-1l1-1zm-1 1zm0 0zm0 0zm0 1zm0 0l-1 1v-1zm-1 1zm0 1zm6-3l-2-1 2 1zm0 0M121 42zm0 0h-1zm-1 0h-1 1zm-1 0zm0 0l-1 1 1-1zm-1 1zm0 0zm0 0v1zm0 1h-1 1zm-1 0zm0 1zm0 1h1l-1-1zm6-3l-2-1 2 1zm0 0" fill="#57493b"/><path d="M121 42zm-1 0zm0 0h-1 1zm-1 0zm0 0l-1 1v-1h1zm-1 1zm0 0zm0 0zm0 1h-1 1zm-1 0zm0 1zm0 0l1 1-1-1zm6-2l-2-1h2zm0 0" fill="#57493b"/><path d="M121 42zm-1 0zm0 0h-1 1zm-1 0zm0 0h-1 1zm-1 1v-1zm0 0zm0 0zm0 1h-1 1zm-1 0zm0 1zm0 0l1 1-1-1zm6-3h-2 2zm0 0M121 42zm-1 0zm0 0h-1 1zm-1 0zm0 0h-1 1zm-1 0zm0 1zm0 0zm0 1h-1l1-1zm-1 0zm0 1zm0 0l1 1h-1v-1zm6-3h-2 2zm0 0" fill="#57483a"/><path d="M121 42zm-1 0zm0 0h-1 1zm-1 0zm0 0h-1 1zm-1 0zm0 1zm0 0zm0 0l-1 1v-1zm-1 1zm0 1zm0 0zm6-3h-2 2zm-2 0zm-1 0zm0 0h-1 1zm-1 0zm0 0h-1 1zm-1 0zm0 1zm0 0zm-1 0zm0 1zm0 1zm0 0zm6-3h-2 2zm-2 0h-1 1zm-1 0zm0 0h-1 1zm-1 0zm0 0h-1 1zm-1 0zm0 1zm0 0h-1 1zm-1 0zm0 1zm0 1zm0 0zm6-3h-2 2zm-2 0h-1 1zm-1 0zm0 0h-1 1zm-1 0zm0 0h-1 1zm-1 0v1zm0 1zm0 0h-1 1zm-1 0zm0 1zm0 1zm0 0zm6-3h-2 2zm-2 0h-1 1zm-1 0zm0 0h-1 1zm-1 0zm0 0h-1 1zm-1 0zm0 1v-1zm0 0h-1 1zm-1 0zm0 1zm0 1zm0 0zm6-3h-2 2zm-2 0h-1v-1l1 1zm-1 0v-1zm0 0h-1l1-1zm-1 0zm0 0h-1 1zm-1 0zm0 0zm0 1h-1zm-1 0zm0 1zm0 1zm0 0zm6-3h-2 2zm0 0" fill="#57483a"/><path d="M121 42l-1-1 1 1zm-1-1zm0 0l-1 1 1-1zm-1 1zm0 0h-1zm-1 0zm0 0v1h-1l1-1zm-1 1zm0 0zm0 1zm0 1zm0 0zm6-3h-2 2zm-6 5zm0 0M121 42l-1-1 1 1zm-1-1zm0 0l-1 1v-1zm-1 1zm-1 0zm0 0zm0 0l-1 1 1-1zm-1 1zm0 0zm0 1v1zm0 1zm0 0zm0 2v-1 1zm6-5h-2 2zm0 0M121 42l-1-1 1 1zm-1-1zm-1 0zm0 1h-1 1zm-1 0zm0 0zm0 0l-1 1 1-1zm-1 1zm0 0zm0 1zm0 1v-1zm0 0zm0 1zm0 0zm6-4h-2 2zm0 0zm0 0" fill="#554739"/><path d="M121 42l-1-1 1 1zm-1-1h-1 1zm-1 0v1zm0 1h-1l1-1zm-1 0zm0 0zm0 0l-1 1 1-1zm-1 1zm0 0zm0 0zm0 1zm0 0zm0 1zm0 1zm0 0zm6-4zm0 0h-2 2zm0 0" fill="#554739"/><path d="M121 42l-1-1 1 1zm-1-1h-1 1zm-1 0zm0 0l-1 1 1-1zm-1 1zm0 0zm0 0l-1 1 1-1zm-1 1zm0 0zm0 0v1zm0 1zm0 0zm0 1zm0 1zm0 0zm6-4zm-2 0zm0 0M121 42l-1-1 1 1zm-1-1h-1 1zm-1 0zm0 0l-1 1 1-1zm-1 1zm0 0zm0 0l-1 1v-1h1zm-1 1zm0 0zm0 0zm0 1zm0 0zm0 1v1zm0 1zm0 0zm6-4zm-2 0zm0 0" fill="#554639"/><path d="M121 42l-1-1h1v1zm-1-1h-1 1zm-1 0zm0 0l-1 1 1-1zm-1 1zm0 0zm0 0h-1 1zm-1 1v-1zm0 0zm0 0zm0 1zm0 0v1h-1l1-1zm0 1h-1zm0 1v-1zm0 0zm6-4zm0 0" fill="#554638"/><path d="M121 41h-1 1zm-1 0h-1 1zm-1 0zm0 0l-1 1v-1h1zm-1 1v-1zm0 0zm0 0h-1 1zm-1 0zm0 1zm0 0zm0 1h-1 1zm0 0l-1 1v-1zm-1 1h1zm1 0v1l-1-1zm0 1zm6-4h-2 2zm0 0" fill="#554638"/><path d="M121 41h-1 1zm-1 0h-1 1zm-1 0zm0 0h-1 1zm-1 0zm0 1zm0 0h-1zm-1 0zm0 1zm0 0zm0 1h-1 1zm-1 0zm0 1zm0 0l1 1h-1v-1zm1 1zm6-4h-2v-1l2 1zm0 0" fill="#554638"/><path d="M121 41h-1 1zm-1 0h-1zm-1 0zm0 0h-1 1zm-1 0zm0 1zm-1 0zm0 0v1zm0 1zm0 0zm0 1h-1l1-1zm-1 0zm0 1zm0 0zm1 1v1l-1-1zm6-4l-2-1 2 1zm-2-1zm0 0" fill="#554638"/><path d="M121 41zm0 0h-1 1zm-2 0zm0 0zm0 0h-1 1zm-1 0zm0 1h-1 1zm-1 0zm0 0zm0 1zm0 0zm0 0l-1 1v-1zm-1 1zm0 1zm0 0v1zm0 1l1 1-1-1zm7-4l-2-1 2 1zm-7 4zm0 0M121 41zm0 0h-1 1zm-2 0zm0 0zm0 0h-1zm-1 0zm0 1h-1 1zm-1 0zm0 0zm0 1zm0 0zm-1 0zm0 1zm0 1zm0 0zm0 1zm0 0l1 1-1-1zm7-4l-2-1 2 1zm0 0M121 41zm0 0h-1 1zm-2 0zm0 0zm-1 0zm0 0zm0 1h-1 1zm-1 0zm0 0zm0 1v-1zm0 0h-1 1zm-1 0zm0 1zm0 1zm0 0zm0 1v-1 1zm0 0l1 1-1-1zm7-4l-2-1 2 1zm0 0M121 41zm0 0h-1zm-2 0zm0 0h-1 1zm-1 0zm0 0v1zm0 1h-1l1-1zm-1 0zm0 0zm0 0zm0 1h-1 1zm-1 0zm0 1zm0 1zm0 0zm0 0zm0 1l1 1-1-1zm7-4l-2-1 2 1zm0 0" fill="#554638"/><path d="M121 41zm-1 0zm-1 0zm0 0h-1 1zm-1 0zm0 0zm0 0l-1 1 1-1zm-1 1zm0 0zm0 0zm0 1h-1zm-1 0zm0 1v1zm0 1zm0 0zm0 0zm0 1l1 1-1-1zm7-4l-2-1 2 1zm0 0M121 41zm-1 0h-1 1zm-1 0zm0 0h-1 1zm-1 0zm0 0zm0 0l-1 1 1-1zm-1 1zm0 0zm0 0v1h-1l1-1zm-1 1zm0 0zm0 1zm0 1zm0 0zm0 0v1zm0 1l1 1-1-1zm7-4l-2-1 2 1zm0 0M121 41zm-1 0h-1 1zm-1 0zm0 0h-1 1zm-1 0zm0 0zm0 0l-1 1 1-1zm-1 1zm0 0zm0 0l-1 1 1-1zm-1 1zm0 0zm0 1zm0 1v-1zm0 0zm0 1l1 1-1-1zm7-4zm0 0l-2-1 2 1zm0 0M121 41h-1 1zm-1 0h-1 1zm-1 0zm0 0h-1 1zm-1 0zm0 0zm0 0l-1 1 1-1zm-1 1zm0 0zm0 0l-1 1 1-1zm-1 1zm0 0zm0 1zm0 0zm0 1zm0 1l1 1-1-2zm7-4zm0 0l-2-1 2 1zm0 0M121 41h-1 1zm-1 0h-1 1zm-1 0zm0 0h-1zm-1 0zm0 0zm0 0l-1 1 1-1zm-1 1zm0 0zm0 0l-1 1 1-1zm-1 1zm0 0zm0 1zm0 0zm0 1zm0 0l1 2-1-2zm7-3zm0 0l-2-1 2 1zm0 0M121 41h-1 1zm-1 0h-1 1zm-1 0h-1 1zm-1 0zm0 0zm0 0zm0 0l-1 1v-1h1zm-1 1zm0 0zm0 0zm0 0l-1 1 1-1zm-1 1zm0 0zm0 1zm0 0zm0 1zm0 0l1 2-1-2zm7-3zm0 0l-2-1 2 1zm0 0" fill="#534537"/><path d="M121 41h-1 1zm-1 0h-1 1zm-1 0h-1 1zm-1 0zm0 0zm0 0zm0 0h-1zm-1 1v-1zm0 0zm0 0zm0 0l-1 1v-1h1zm-1 1zm0 0zm0 1zm0 0zm0 1zm0 0l1 2h-1v-2zm7-3zm0 0l-2-1 2 1zm0 0M121 41h-1 1zm-1 0h-1c0-2 1-2 1 0zm-1 0h-1 1zm-1 0zm0 0zm0 0h-1 1zm-1 0zm0 0zm0 1zm0 0zm0 0h-1 1zm-1 1zm0 0zm0 1zm0 0zm0 1zm0 0zm7-3zm0 0l-2-1h2v1zm-7 5zm0-2zm0 0" fill="#534437"/><path d="M121 41h-1 1zm-1 0c0-2-1-2-1 0v-2h1zm-1 0h-1 1zm-1 0zm0 0zm0 0h-1 1zm-1 0zm0 0v1zm0 1zm0 0zm0 0h-1zm-1 1v-1zm0 0zm0 1zm0 0zm0 1zm0 0zm0 0zm0 2zm7-5zm0-1h-2 2zm-2 0h-1v-2l1 2zm-1-2h-1 1zm-1 2h-1l1-2zm-1 0zm0 0h-1 1zm-1 0zm0 0zm0 1v-1zm0 0h-1 1zm-1 0zm0 0zm0 1zm0 1zm0 0v1zm0 1zm0 0zm0 0zm0 2zm7-5v-1 1zm0-1h-2 2zm0 0" fill="#534337"/><path d="M121 41l-1-2 1 2zm-1-2h-1 1zm-1 0l-1 2 1-2zm-1 2zm0 0h-1 1zm-1 0zm0 0zm0 0zm0 1h-1 1zm-1 0zm0 0zm0 1zm0 1zm0 0zm0 1v-1zm0 0zm0 0zm0 2zm7-5v-1 1zm-2-1zm0 0M121 41l-1-2 1 2zm-1-2h-1 1zm-1 0l-1 2 1-2zm-1 2zm0 0h-1 1zm-1 0zm0 0zm0 0zm0 1h-1 1zm-1 0zm0 0zm0 1zm0 1zm0 0h-1 1zm0 0v1h-1v-1zm0 1h-1zm0 0zm0 2zm7-5v-1 1zm-2-1zm0 0" fill="#534336"/><path d="M120 39l1 2-1-2zm0 0h-1 1zm-1 0l-1 2 1-2zm-1 2h-1 1zm-1 0zm0 0zm0 0v1-1 1h-1l1-1zm-1 1zm0 0zm0 1v1zm0 1h-1 1zm0 0h-1zm-1 0v1zm0 1h1zm1 0v2l-1-2zm0 2zm7-5v-1 1zm-2-1zm0 0M121 41l-1-2 1 2zm-2-2zm0 0l-1 2v-2zm-1 2h-1 1zm-1 0zm0 0zm0 0l-1 1 1-1zm-1 1zm0 0zm0 1h-1 1zm0 1h-1zm-1 0zm0 0zm0 1zm0 0l1 2-1-2zm1 2zm7-5v-1 1zm-2-1zm0 0" fill="#534336"/><path d="M121 41l-1-2h-1l2 2zm-2-2zm-1 0v2zm0 2h-1 1zm-1 0zm0 0zm0 0l-1 1 1-1zm-1 1zm0 0v1zm0 1h-1 1zm-1 1zm0 0zm0 0zm0 1zm0 0l1 2-1-2zm1 2zm7-5v-1h-2l2 1zm-2-1zm0 0M121 41l-2-2 2 2zm-2-2zm-1 0zm0 2h-1l1-2zm-1 0zm0 0zm0 0l-1 1 1-1zm-1 1zm0 0zm0 1h-1 1zm-1 1v-1zm0 0zm0 1zm0 0l1 2v-1l-1-1zm1 2zm7-5l-2-1 2 1zm-2-1zm0 0M121 41l-2-2 2 2zm-2-2zm-1 0zm0 0l-1 2 1-2zm-1 2zm0 0l-1 1 1-1zm-1 1zm0 0zm0 1h-1 1zm-1 0zm0 1zm0 1v-1zm0 0l1 1-1-1zm1 2zm7-5l-2-1 2 1zm-2-1zm0 0" fill="#514235"/><path d="M121 41l-2-2h2v2zm-2-2h-1 1zm-1 0zm0 0l-1 2 1-2zm-1 2zm0 0l-1 1 1-1zm-1 1zm0 0zm0 1h-1 1zm-1 0zm0 1zm0 1l1 1-1-1zm1 2zm7-5l-2-1h2v1zm0 0" fill="#514235"/><path d="M121 39h-2 2zm-2 0h-1 1zm-1 0zm0 0l-1 2 1-2zm-1 2zm0 0l-1 1v-1zm-1 1zm0 0zm0 1h-1 1zm-1 0zm0 1zm0 1l1 1h-1v-1zm1 2v-1 1zm7-5v-1 1zm0-1h-2 2zm-2-2h-2 2zm-2 0h-1 1zm-1 0zm0 0l-1 2 1-2zm-1 2h-1 1zm-1 0zm0 1zm0 0zm0 1h-1v-1zm-1 0zm0 1zm0 1zm1 1zm7-4v-1 1zm0-1h-2v-2c0 2 2 2 2 2zm0 0" fill="#514235"/><path d="M121 39h-2 2zm-2 0h-1 1zm-1 0zm0 0l-1 2 1-2zm-1 2h-1 1zm-1 0zm0 1v-1zm0 0zm-1 0zm0 1zm0 1zm0 1zm1 1v1l-1-1zm7-4v-1 1zm0-1l-2-2c0 2 2 2 2 2zm-2-2zm0 0" fill="#514235"/><path d="M121 39zm0 0h-2 2zm-2 0h-1 1zm-1 0h-1 1zm0 0l-1 2v-2zm-1 2h-1 1zm-1 0zm0 0zm0 1h-1 1zm-1 0zm0 1zm0 1zm0 1zm0 1l1 1-1-1zm8-4v-1 1zm0-1l-2-2c0 2 0 2 2 2zm0 0" fill="#514235"/><path d="M121 39zm-1 0h-1 1zm-1 0h-1 1zm-1 0h-1 1zm-1 0zm0 2h-1 1zm-1 0zm0 0zm0 1h-1 1zm-1 0zm0 1zm0 0zm0 1v1zm0 1v-1 1zm0 1l1 1-1-1zm8-4v-1 1zm0-1c-2 0-2 0-2-2 0 0 0 2 2 2zm0 0" fill="#504234"/><path d="M121 39h-1 1zm-1 0h-1 1zm-1 0h-1 1zm-1 0h-1 1zm-1 0v2h-1l1-2zm0 2h-1zm-1 0zm0 0zm0 1h-1 1zm-1 0zm0 1zm0 0zm0 1zm0 2l1 1-1-1zm8-4v-1 1zm0-1c-2 0-2-2-2-2l2 2zm0 0" fill="#504234"/><path d="M121 39h-1 1zm-1 0h-2 2zm-1 0h-1zm-1 0h-1 1zm-1 0l-1 2 1-2zm-1 2zm0 0zm0 0zm0 1h-1 1zm-1 0zm0 1zm0 0zm0 1zm0 2l1 1-1-1zm8-4v-1 1zm0-1c-2 0-2-2-2-2l2 2zm0 0" fill="#504234"/><path d="M121 39h-1 1zm-1 0h-2 2zm-2 0zm0 0h-1 1zm-1 0l-1 2 1-2zm-1 2zm0 0zm0 0zm0 1h-1zm-1 0zm0 1zm0 0zm0 1zm0 2l1 1-1-1zm8-4v-1 1zm0-1c-2 0-2-2-2-2v2h2zm0 0" fill="#504234"/><path d="M121 39h-1 1zm-1 0h-2 2zm-2 0zm0 0h-1 1zm-1 0l-1 2 1-2zm-1 2zm0 0zm0 0zm-1 1zm0 0v1zm0 1zm0 0zm0 1zm0 2l1 1-1-1zm8-4v-1 1zm-2-1v-2 2zm0 0M121 39h-1 1zm-1 0h-2 2zm-2 0zm0 0h-1 1zm-1 0l-1 2 1-2zm-1 2zm0 0zm0 0v1l-1-1h1zm-1 1zm0 0zm0 1v-1zm0 0zm0 1zm0 2l1 1-1-1zm8-4v-1 1zm0-1zm-2 0v-2 2zm0 0M121 39h-1 1zm-1 0h-2 2zm-2 0zm0 0h-1 1zm-1 0l-1 2 1-2zm-1 2zm0 0zm0 0h-1 1zm-1 1zm0 0zm0 0zm0 1zm0 1zm0 2l1 1-1-1zm8-4v-1l1 1zm0-1c-2 0-2 0-2-2l2 2zm-2-2zm0 0M121 39h-1 1zm-1 0h-2 2zm-2 0zm0 0h-1 1zm-1 0l-1 2v-2h1zm-1 2v-2zm0 0zm0 0h-1 1zm-1 1v-1zm0 0zm0 0zm0 1zm0 1v0zm0 2l1 1-1-1zm9-4l-1-1 1 1zm-1-1l-2-2 2 2zm-2-2zm0 0M121 39h-2 2zm-2 0h-1 1zm-1 0zm0 0h-1zm-1 0h-1 1zm-1 0zm0 2zm0 0h-1 1zm-1 0zm0 1zm0 0zm0 1zm0 1v2l-1-2zm0 2l1 1-1-1zm9-4l-1-1 1 1zm-1-1l-2-2 2 2zm0 0" fill="#4f4134"/><path d="M121 39h-2v-1 1h-1 3zm-3 0zm-1 0zm0 0h-1 1zm-1 0zm0 2zm0 0h-1 1zm-1 0zm0 1zm0 0zm0 1v1h-1l1-1zm-1 1l1 2v-1l-1-1zm1 2l1 1-1-1zm9-4l-1-1 1 1zm-1-1l-2-2 2 2zm0 0" fill="#4f4134"/><path d="M120 39h-3 1l1-1 1 1zm-3 0zm0 0h-1 1zm-1 0zm0 2zm0 0h-1 1zm-1 0zm0 1zm0 0zm0 1l-1 1v-1h1zm-1 1l1 1-1-1zm1 2l1 1-1-1zm9-4l-1-1 1 1zm-1-1l-2-2 2 2zm0 0" fill="#4f4134"/><path d="M121 39h-1l-1-1 2 1zm-3 0h-1 1zm-1 0zm0 0h-1 1zm-1 0zm0 2zm0 0h-1zm-1 0zm0 1zm0 0zm0 1h-1 1zm-1 1l1 1h-1v-1zm1 2l1 1-1 1-1-2zm9-4l-1-1 1 1zm-1-1l-2-2 2 2zm0 0" fill="#4f4134"/><path d="M121 39l-2-1 2 1zm-3 0h-1zm-1 0zm0 0h-1 1zm-1 0zm0 2h-1 1zm-1 0zm0 0zm0 1zm0 0zm0 1h-1zm-1 1zm0 2l1 2-1-2zm10-4l-1-1 1 1zm-1-1l-2-2 2 2zm0 0M121 39l-2-1h1l1 1zm-4 0zm0 0zm0 0h-1 1zm-1 0v2zm0 2h-1 1zm-1 0zm0 0zm0 1zm0 0v1h-1l1-1zm-1 1zm0 1zm0 2l1 2-1-3zm10-4l-1-1 1 1zm-1-1c0-2-2-2-2-2l2 2zm0 0" fill="#4e4033"/><path d="M121 39l-1-1 1 1zm-4 0zm0 0h-1 1zm-1 0zm0 2h-1l1-2zm-1 0zm0 0zm0 1zm0 0l-1 1 1-1zm-1 1zm0 1v-1zm0 1l1 3-1-3zm10-3l-1-1 1 1zm-1-1c0-2-2-2-2-2l2 2zm0 0" fill="#4e4033"/><path d="M121 39l-1-1 1 1zm-4 0zm0 0h-1 1zm-1 0zm0 0l-1 2 1-2zm-1 2zm0 0v1zm0 1zm0 0l-1 1v-1h1zm-1 1zm0 0zm0 2l1 3-1-3zm10-3l-1-1 1 1zm-1-1c0-2-2-2-2-2l2 2zm0 0" fill="#4e4033"/><path d="M121 39l-1-1 1 1zm-4 0zm0 0h-1 1zm-1 0zm0 0l-1 2 1-2zm-1 2zm0 0zm0 1zm0 0h-1 1zm-1 1zm0 0zm0 2l1 3-1-3zm10-3l-1-1 1 1zm-1-1l-2-2h2v2zm0 0M121 39l-1-1 1 1zm-4 0zm0 0h-1 1zm-1 0zm0 0l-1 2 1-2zm-1 2zm0 0zm0 1h-1 1zm0 0h-1zm-1 1v-1zm0 0zm0 2l1 3-1-3zm10-3l-1-1 1 1zm-1-3h-2 2zm0 0" fill="#4e3f33"/><path d="M121 39l-1-1 1 1zm-4 0h-1zm-1 0zm0 0l-1 2v-2zm-1 2zm0 0zm0 1h-1l1-1zm-1 0zm0 0zm0 1zm0 2l1 3-1-3zm10-3l-1-1v-2l1 3zm-3-3zm0 0" fill="#4d3f32"/><path d="M121 39l-1-1 1 1-1-1 1 1zm-5 0zm0 0h-1 1zm-1 0zm0 2zm0 0zm0 0l-1 1 1-1zm-1 1zm0 0zm0 1zm0 2l1 3-1-3zm10-3l-1-3 1 2zm-3-3zm0 0" fill="#4d3f32"/><path d="M121 39l-1-1h1zm-5 0zm0 0h-1 1zm-1 0zm0 2zm0 0zm0 0l-1 1 1-1zm-1 1zm0 0zm0 1zm0 2l1 3-1-3zm10-4l-1-2h-2v-1l3 3zm0 0M121 38h-1 1zm-5 1zm0 0h-1 1zm-1 0zm0 2zm0 0zm0 0l-1 1 1-1zm-1 1zm0 0zm0 1zm0 2l1 3-1-3zm10-4zm0 0M121 38h-1 1zm-5 1zm0 0h-1 1zm-1 0v2zm0 2zm0 0zm0 0l-1 1v-1zm-1 1zm0 0zm0 1zm0 0zm0 2l1 3-1-3zm10-4zm0 0M121 38h-1 1zm-5 1h-1 1zm-1 0zm0 2v-2zm0 0zm-1 0zm0 1zm0 0zm0 1zm0 0zm0 2l1 3-1-3zm10-4zm0 0M121 38h-1 1zm-5 1h-1 1zm-1 0zm0 0zm0 2h-1 1zm-1 0zm0 1zm0 0zm0 1zm0 0zm0 2l1 3-1-3zm10-4zm0 0M121 38h-1zm-5 1h-1 1zm-1 0zm0 0zm0 2h-1 1zm-1 0v1zm0 1zm0 0zm0 1zm0 0zm0 2l1 3-1-3zm10-4zm0 0" fill="#4d3f31"/><path d="M121 38l3 3-3-3zm-5 1h-1zm-1 0zm0 0v2zm0 2h-1l1-2zm-1 0zm0 1v-1zm0 0zm0 1zm0 0v2-2zm0 2l1 3-1-3zm0 0M115 39zm0 0zm0 0zm0 0l-1 2 1-2zm-1 2zm0 0zm0 1zm0 1zm0 0v1h-1l1-1zm0 2l1 3-2-4zm10-4l-3-3 3 3zm0 0" fill="#4c3e31"/><path d="M115 39zm0 0zm0 0zm0 0l-1 2 1-2zm-1 2zm0 0zm0 1zm0 1h-1 1zm0 0l-1 1v-1zm-1 1l2 4-2-4zm11-3l-3-3 3 3zm0 0M115 39zm0 0zm0 0l-1 2 1-2zm-1 2zm0 0zm0 1v1zm0 1h-1 1zm-1 0zm0 1l2 4-2-4zm11-3l-3-3 3 3zm-3-3zm0 0M115 39zm0 0zm0 0l-1 2 1-2zm-1 2zm0 0zm0 1zm0 1h-1zm-1 0zm0 1l2 4-2-4zm11-3l-3-3 3 3zm-3-3zm0 0M115 39zm0 0zm0 0l-1 2 1-2zm-1 2zm0 0zm0 1h-1 1zm-1 1v-1zm0 0zm0 1l2 4-2-4zm11-3l-3-3 3 3zm-3-3zm0 0" fill="#4c3e31"/><path d="M115 39zm0 0zm0 0l-1 2 1-2zm-1 2zm0 0zm0 1h-1 1zm-1 0zm0 1zm0 1l2 4-2-4zm11-3l-3-3 3 3zm-3-3zm0 0M115 39zm0 0zm0 0l-1 2 1-2zm-1 2zm0 0zm0 1h-1 1zm-1 0zm0 1zm0 1l2 4-2-4zm11-3l-3-3v1c2 0 2 2 3 2zm-3-3zm0 0" fill="#4b3d30"/><path d="M115 39zm0 0zm0 0l-1 2 1-2zm-1 2zm0 0zm0 1h-1 1zm-1 0zm0 1zm0 1zm11-3c-1 0-1-2-3-2 2 0 2 2 3 2zm-3-3zm0 0" fill="#4b3d30"/><path d="M115 39zm0 0zm0 0l-1 2 1-2zm-1 2zm0 0v1h-1l1-1zm0 1h-1zm-1 0zm0 1zm0 1zm11-3c-1 0-1-2-3-2h2l1 2zm-3-3zm0 0" fill="#4b3d30"/><path d="M115 39h-1zm0 0l-1 2v-2zm-1 2zm0 0l-1 1 1-1zm-1 1zm0 0zm0 1zm0 1zm11-3l-1-2 1 2zm-3-2v-1 1zm0 0M114 39zm0 2v-2zm0 0l-1 1v-1h1zm-1 1zm0 0zm0 1zm0 1l2 4c-2-1-2-3-2-4zm11-3l-1-2 1 2zm-3-2v-1 1zm0 0" fill="#4b3c30"/><path d="M114 39zm0 0zm0 2h-1v1-1h1zm-1 1zm0 0zm0 1zm0 1c0 1 0 3 2 4h-1l-1-4zm11-3l-1-2 1 2zm-3-2v-1l2 1h-2zm0 0M114 39zm0 0zm0 2h-1 1zm-1 1zm0 0v1zm0 1zm0 1l1 4-1-4zm11-3l-1-2 1 2zm-1-2l-2-1 2 1zm0 0M114 39zm0 0zm0 2h-1 1zm-1 1v-1zm0 0zm0 1v-1zm0 1l1 4-1-4zm11-3l-1-2 1 2zm-1-2l-2-1 2 1zm0 0" fill="#4a3b2f"/><path d="M114 39zm0 0zm0 2h-1 1zm-1 0zm0 1zm0 0v2-2zm0 2l1 4-1-5zm11-3l-1-2 1 2zm-1-2l-2-1 2 1zm-2-1zm0 0" fill="#4a3b2f"/><path d="M114 39zm0 0zm0 2h-1 1zm-1 0zm0 1zm0 0v1l1 5c-1-1-2-4-1-6zm11-1l-1-2 1 2zm-1-2l-2-1 2 1zm-2-1zm0 0" fill="#4a3b2f"/><path d="M114 39zm0 0zm0 2h-1zm-1 0zm0 1zm0 0c-1 2 0 5 1 6-1-1-2-4-1-6zm11-1l-1-2 1 2zm-1-2l-2-1 2 1zm-2-1zm0 0" fill="#4a3b2f"/><path d="M114 39zm0 0v2h-1l1-2zm-1 2zm0 0zm0 1zm0 0c-1 2 0 5 1 6-1-1-2-4-1-6zm11-1l-1-2 1 2zm-1-2l-2-1 2 1zm-2-1zm0 0" fill="#4a3b2f"/><path d="M114 39l-1 2v-2h1zm-1 2v-2zm0 0zm0 1zm0 0c-1 2 0 5 1 6-1-1-2-4-1-6zm11-1l-1-2 1 2zm-1-2l-2-1h2v1zm-2-1h2zm0 0" fill="#4a3b2f"/><path d="M114 39h-1 1zm-1 0zm0 2v1zm0 1zm0 0c-1 2 0 5 1 6-1-1-2-4-1-6zm11-1l-1-2 1 2zm-1-2v-1 1zm0-1h-2 2zm0 0" fill="#493b2e"/><path d="M114 39h-1zm-1 0zm0 2zm0 1v-1zm0 0c-1 2 0 5 1 6-1-1-2-4-1-6zm11-1l-1-2 1 2zm-1-2v-1 1zm0-1h-2 2zm0 0" fill="#493b2e"/><path d="M113 39zm0 0zm0 2zm0 0zm0 1c-1 2 0 5 1 6-1-1-2-4-1-6zm11-1l-1-2 1 2zm-1-2v-1 1zm0-1h-2 2zm0 0" fill="#493b2e"/><path d="M113 39zm0 0zm0 2zm0 0zm0 1c-1 2 0 5 1 6l-1-1v-5zm11-1l-1-2 1 2zm-1-2v-1 1zm0-1h-2zm0 0" fill="#493b2e"/><path d="M113 39zm0 0zm0 2zm0 0zm0 1v4l-1-1v-3zm0 5l1 1-1-1zm11-6l-1-2 1 2zm-1-2v-1 1zm0-1zm0 0" fill="#493b2e"/><path d="M113 39zm0 2zm0 0v1h-1l1-1zm-1 1zm1 5l1 1-1-1zm11-6l-1-2 1 2zm-1-2v-1 1zm0-1zm0 0" fill="#493b2e"/><path d="M113 39zm0 2zm0 0l-1 1 1-1zm-1 1zm1 5l1 1-1-1zm11-6zm-1-2v-1zm0-1zm0 0M113 39zm0 2l-1 1 1-1zm-1 1zm1 5l1 1h-1v-1zm11-6zm-1-2zm0-1zm0 0M113 39zm0 2l-1 1 1-1zm-1 1zm1 5zm0 1zm11-7zm-1-2l1 2-1-2zm0-1zm0 0M113 39zm0 2l-1 1 1-1zm-1 1zm2 6zm10-7zm0 0l-1-2 1 2zm-1-3zm0 0M113 39zm0 2l-1 1 1-1zm-1 1zm2 6zm10-7l-1-2 1 2zm-1-3zm0 0M113 39zm0 2l-1 1v-1h1zm-1 1zm2 6zm10-7l-1-2 1 2zm-1-3v1zm0 0M113 39zm0 2h-1 1zm-1 1v-1zm2 6zm10-7l-1-2 1 2zm-1-2v-1 1zm0 0" fill="#473a2e"/><path d="M113 39v2zm0 2h-1l1-2zm-1 0zm2 7zm10-7l-1-2 1 2zm-1-2v-1 1zm0 0" fill="#473a2e"/><path d="M113 39h-1zm0 0l-1 2v-2zm-1 2zm2 7zm10-7l-1-2 1 2zm-1-2v-1 1zm0 0M112 39zm0 2zm2 7zm10-7l-1-2 1 2zm-1-2v-1 1zm0 0M112 39v2zm0 2zm2 7zm10-7l-1-2 1 2zm-1-2v-1 1zm0 0M112 41zm0 0zm2 7zm10-7l-1-2 1 2zm-1-2v-1 1zm0 0" fill="#47392d"/><path d="M112 41zm0 0v3-3zm2 7zm10-7l-1-2 1 2zm-1-2v-1 1zm0 0M112 41zm0 0v3h-1l1-3zm12 0l-1-2h1zm-1-2v-1 1zm0 0" fill="#47382d"/><path d="M112 41zm0 0l-1 3 1-3zm12-2h-1 1zm-1 0v-1zm0 0M112 41zm0 0l-1 3 1-3zm12-2h-1 1zm-1 0zm0 0M112 41zm0 0l-1 3 1-3zm12-2h-1 1zm-1 0zm0 0M112 41zm0 0l-1 3v-1l1-2zm12-2h-1 1zm-1 0zm0 0M112 41zm0 0l-1 2 1-2zm12-2h-1 1zm-1 0zm0 0M112 41l-1 2 1-2zm12-2h-1 1zm-1 0zm0 0" fill="#45372c"/><path d="M112 41l-1 2 1-2zm12-2h-1 1zm-1 0zm0 0M112 41l-1 2v-2h1zm12-2h-1 1zm-1 0zm0 0" fill="#45372b"/><path d="M111 41zm13-2h-1zm-1 0zm-12 2zm13-2zm-1 0zm-12 2zm13-2zm-1 0h1zm0 0" fill="#44362b"/><path d="M111 41v2h-1l1-2zm0 0M111 41l-1 2 1-2zm0 0" fill="#42352a"/><path d="M111 41l-1 2v-1l1-1zm0 0" fill="#42352a"/><path d="M111 41l-1 1v-1zm0 0" fill="#42352a"/><path d="M113 46v1l-1-1h1zm0 0" fill="#473a2e"/><path d="M112 46l1 1-1-2v1zm0 0M112 45l1 2-1-2zm0 0M112 45l1 2-1-2zm0 0M112 45l1 2-1-2zm0 0M112 45l1 2-1-2zm0 0M112 45l1 2-1-2zm0 0" fill="#473a2e"/><path d="M112 45l1 2-1-2zm0 0M112 45l1 2h-1v-3zm0 0" fill="#47392d"/><path d="M112 44v1l-1-1zm0 1zm0 1zm0 0" fill="#47382d"/><path d="M111 44l1 1-1-1zm1 1v1zm0 1v-1zm-1-2zm1 1h-1 1zm0 0zm0 0M111 44zm0 1h1l-1-1v1zm1 0zm0 0" fill="#45372c"/><path d="M111 44zm0 0l1 1h-1v-1zm1 1zm0 0" fill="#45372c"/><path d="M111 43h-1 1zm0 0zm0 0" fill="#42362a"/><path d="M111 43h-1zm0 0v1h-1v-1zm0 0" fill="#42352a"/><path d="M118 45v1h-1v-1zm0 0" fill="#f8f8f7"/><path d="M116 46v1-1h-1zm0 0" fill="#a3988e"/><path d="M115 45v1h-1v-1zm0 0" fill="#9f958b"/><path d="M114 44v1l-1-1zm0 0" fill="#9e9388"/><path d="M121 44l-4-5 4 5zm-4 3s-5-4-6-8c0 0 3 6 6 8zm0 0" fill="#fefefe"/><path d="M115 48l-5-9s4 5 5 9zm-5-6s3 3 3 7c0 0 1-4-3-7zm0 0" fill="#fefefe"/><path d="M110 41s3 3 4 7c0 0-1-4-4-7zm0 0" fill="#fefefe"/><path d="M116 43v1h-1v-1zm0 0" fill="#ada39b"/><path d="M121 42v-1 1zm2 0h-2 2zm-2 0v-1zm2 0h-2v-1 1h2zm0 0" fill="#9c9287"/><path d="M116 42v1l-1-1h1zm0 0" fill="#aba399"/><path d="M117 46l-4-5s0 3 4 5zm0 0" fill="#fefefe"/><path d="M116 42h-1v-1zm0 0" fill="#d0cbc6"/><path d="M123 41l-4-3 4 3zm0 2l-3-2 3 2zm-6-1l-2-3 2 3zm0 0" fill="#fefefe"/><path d="M112 45l-1-1 1 1zm0 0M111 44l1 1h-1v-1zm0 0" fill="#7d7064"/><path d="M123 41l-3-3s3 1 3 3zm0 0" fill="#fefefe"/><path d="M121 39v-1 1h2-2zm0 0" fill="#5e4f41"/><path d="M123 39l1 2-1-2zm1 2l-1-2 1 2zm0 0l-1-2 1 2zm0 0M124 41l-1-2 1 2zm0 0" fill="#5b4c3e"/><path d="M123 41h-2v-2l2 2zm0 0" fill="#625346"/><path d="M123 41c-2 0-2-2-2-2 0 2 0 2 2 2zm0 0" fill="#615245"/><path d="M123 42v-1h-2 2v1zm-2-1l-1-2 1 2zm2 0zm0 0h-2 2zm0 0" fill="#645648"/><path d="M121 41l-1-2 1 2zm0 0" fill="#635547"/><path d="M124 39h-1v-1h-2l3 1zm0 0" fill="#4e4134"/><path d="M88 21s-4-6-9-6c0 0 5-1 9 6zm2-4s-4-4-10-4c0 0 5-1 10 4zm0 0" fill="#fefefe"/><path d="M90 19c-5-5-9-5-9-5 5 0 9 4 9 4zm0 0" fill="#fefefe"/><path d="M87 19s-1-4-6-5c0 0 4 1 6 5zm-1 2s-1-4-6-5c0 0 4 1 6 5zm0 0" fill="#fefefe"/><path d="M87 20s-2-4-6-5c0 0 3 0 6 5zm3-4l-7-5 7 5zm0 0" fill="#fefefe"/><path d="M83 13v-1zm1 0zm-1-1v1zm1 1zm0 0" fill="#9e978f"/><path d="M86 15v-1h-1l1 1zm0 0" fill="#fefefe"/><path d="M86 11h-1v-1l1 1zm0 0" fill="#9a9189"/><path d="M86 11l-1-1v1h1zm0 0h-1 1zm-1-1zm1 1v1zm-1-1zm1 2v-1 1zm-1-2h-1 1zm1 2v-1 1zm-1-2h-1zm0 0" fill="#9a9189"/><path d="M86 12v-1 1zm-2-2zm2 2v-1 1zm-2-2zm2 2v-1zm-2-2zm0 0" fill="#988f88"/><path d="M88 15v-1h2l-2 1zm0 0M88 15l2-1-2 1zm0 0" fill="#928880"/><path d="M88 15l2-1-2 1zm0 0M88 15l2-1v1zm0 0" fill="#92887f"/><path d="M90 13s-2-3-5-4l5 4zm0 0" fill="#fefefe"/><path d="M90 14s-3-4-6-5c0 0 4 1 6 5zm0 1l-7-4 7 4zm0 0" fill="#fefefe"/><path d="M87 9l1 1-1-1zm0 0M88 10l-1-1 1 1zm0 0M88 10l-1-1V8l1 2zm0 0" fill="#90877e"/><path d="M88 10l-1-2c0 1 1 2 3 2h-2zm0 0" fill="#90867d"/><path d="M90 10c-2 0-3-1-3-2h-1l4 3v-1zm0 0M90 11l-4-3 4 3zm0 0M90 11l-4-3 4 3zm0 0" fill="#90867d"/><path d="M90 11l-4-3 1 1h1l2 2zm0 0M90 11l-2-2 2 2zm-3-2l-1-1 1 1zm0 0M86 8V7h-1 1v1zm0 0" fill="#8e857d"/><path d="M90 12s-2-2-5-3c0 0 3 0 5 3zm0 0" fill="#fefefe"/><path d="M87 7h-1l2 1-1-1zm0 0M88 8l-2-1 2 1zm0 0" fill="#8d847a"/><path d="M88 8l-2-1h1l1 2V8zm0 0" fill="#8d847a"/><path d="M88 9l-1-2 3 2h-2zm0 0" fill="#8d847a"/><path d="M90 9l-3-2 1 1 2 1zm0 0M90 9l-2-1 2 1zm0 0M90 9l-2-1 2 1zm0 0" fill="#8d8278"/><path d="M90 8l-3-3 3 3zm0 0M90 10s0-3-3-5l3 5zm0 0" fill="#fefefe"/><path d="M90 7l-3-3s3 1 3 3zm0 0" fill="#867d73"/><path d="M81 17h1v1l-1-1zm0 0M81 17l1 1-1-1zm0 0" fill="#928880"/><path d="M82 18s-2-1-4 0h4zm0 0" fill="#fefefe"/><path d="M81 18h1v1l-1-1zm0 0l1 1-1-1zm0 0M81 18l1 1-1-1zm0 0h-1 1zm1 1zm0 0" fill="#786d64"/><path d="M71 68l-2-1-3-1-1-2-1-1-1-1 2 1 2 1 4 4zm0 0" fill="#fbf8f6"/><path d="M81 104l3 3-5-4zm0 0" fill="#f9f0ec"/><path d="M81 104l3 2c1 0 2 1 2 3 1 0 1-2-2-3l-3-3zm6 1l-3-3 3 3zm3-6l-5-6v2l5 4zm0 0M85 96s2 1 2 3l-3-3zm-5 9s2 4 5 5l-6-6zm-3 1l5 6s-1-3-5-6v-1zm0 0M82 109l-4-3 4 3zm0 0" fill="#f9f0ec"/><path d="M81 109l-4-3s2 0 4 3zm-3-4l4 4s-1-3-4-4zm-1 1l4 6s-3-2-4-6zm4 7l-5-7s-1 4 5 7zm0 0" fill="#f9f0ec"/><path d="M76 107l4 6-2-2 1 2 3 3-4-3-2-2-1-4 1 3v-4zm4 4l-3-5 3 5zm0 0" fill="#f9f0ec"/><path d="M80 112l-3-5s0 3 3 5zm-4-1l3 3-3-3zm22-22l3 8-4-8zm-3 3l5 7s-2-6-5-9zm-1 1l4 9-4-9zm0 0" fill="#f9f0ec"/><path d="M97 89v11l-1-10zm3 0l3 1-3-2zm-13 4l1 11-2-11zm7 0v9l1-10zm-6-1l2 6s1-4-2-6zm-13 19l3 4-1-1 1 1h-1l1 1-1-1v1s-1 0 0 0l1 2 2 2-2-1 2 2-3-3 1 2 1 1-3-2 1 2-2-2 2 3-2-2 3 2h-1l1 1s-2 0-3-2l3 3-2-1 2 1-3-1 4 4-7-5 5 5-2-1 3 2-2-1 2 2 2 1-2-1 2 1h-2l-2-1 1 1 2 2-2-2 1 2-1-1 1 2c1 1 0 0 0 0v2l-1-2 1 4-1-2v4l-1-3v3-1 1l-1-1v6l-1-5 1 5-1-3v2h-2v1-1l-1 3v-2 3-2l-2 3 1-1-1 2-1 1v1l-1 2-1 1v1l-1-3-1-2v-1l-1-2v-6l-2-6 1 1-1-2 1 1-1-2 1 1-2-2s2 1 1 0l-1-2h1l-1-1v-1l1-2 1-3 2-1h3l1-1 1-1h1l1-2v-2l1-1v1-1l-1-2 1 2 2-1v1-1h1v-1l-1-2 2 2zm0 0" fill="#f9f0ec"/><path d="M65 141c-3-2-3-6-4-9v-6l1-2h2l-1-1h4l2-2v8 2l-1 3-1 1-1 2v2l-1-1v3zm0 0" fill="#f6e8e2"/><path d="M68 86l1 2 1 2s-2-1-2-5zm0-1l-1 2v-2 2-2zm2 4s0 4 2 5c0 0-3-1-1-5zm-8-10l-3 3s3-2 2-5zm-3-2s-3 0-4 2c0 0 0-3 4-2zm5 6l-2 2 2-2zm1 1l-1 3s-1-2 1-3zm0 0" fill="#f9f0ec"/><path d="M45 66l-3 3c-2 1-2 3-2 3v7s0-1 0 0v2h2v2l-2 2 2 1 1-1 3-4zm0 0" fill="#2b2928"/><path d="M74 175h-4v-6l1 1v3l1 1zm-19 4v-1l1-1-1-2v-1l-1-1v-1l-1-1 1 4 1 3v2zm0 0" fill="#322f2a"/><path d="M87 156h-1v-1l-1-1 1 1v-5l1-2v-15h1v-5l2-1v-3l1-1v-4l1-1v-1l1-1v2l-1 1v1l1 1h-1 1-1v1l1 1h-1l1 1-1-1v3h-1l1 1 1 1h-2l2 1h-1v1h-1l1 1h-1v1l1 1-1-1 1 1h-1 1-1v1h1-1v1c1 0 0 0 0 0l1 1h-1v1s1 1 0 1v-1 1h-1l1 1s-1 0 0 0l-1 1v1l-2 4v4l-1 2 1 1h-1l1 1h-1l1 1v1l-1-1 1 1-1-1v2zm0 0" fill="#524e44"/><path d="M85 174zm0 0l-1-1-1-1v-2l1-1v-2h1v-4-5-3l2 2h-1l1 1h-1 1-1l1 2h-1 1v1h-1l1 1-1-1 1 1v1l-1-1 1 1-1 2v2h-1v3-1 5zm0 0" fill="#524e44"/><path d="M87 163l-2-2 2 2zm-1 2l-1-1 1 1zm0 1l-1-1 1 1zm-1 1l-1-2 1 2zm0 2l-1-2 1 2zm0 1l-2-1 2 1zm2-9l-2-3 2 3zm0 0M87 162l-2-1 2 1zm4-32l-3-1s2-1 3 1zm0 1l-3-2 3 2zm1 1l-4-2 4 2zm-1 0l-4-2 4 2zm0 2l-3-2 3 2zm0 1l-3-1 3 1zm-1 1l-3-2 3 2zm0 0M92 137l-4-2 4 2zm0 0M92 137l-4-1s2-1 4 1zm-2 1l-3-2 3 2zm1 1l-4-2 4 2zm0 1l-4-1s1-1 4 1zm0 0M90 140l-3-1 3 1zm0 1l-4-2 4 2zm0 2s-2-3-4-3l4 3zm1 1l-4-3 4 3zm0 0M90 144l-3-3 3 3zm0 0M90 144l-3-1s1-2 3 1zm2-23l-1-1 1 1zm0 1l-1-1 1 1zm0 0M93 122l-2-1 2 1zm-1 0l-1-1 1 1zm0 1l-1-1 1 1zm0 1l-1-1 1 1zm0 0M92 124l-2-1 2 1zm0 2l-1-2 1 2zm0 0M93 126l-2-2 2 2zm-1 1l-2-1s1-2 2 1zm0 0M92 127l-2-1 2 1zm0 1l-1-1 1 1zm0 0M92 128l-2-1 2 1zm0 0M92 128l-2-1 2 1zm0 1l-2-1 2 1zm0 0M92 129l-2-1 2 1zm0 0M92 129l-2-1 2 1zm0 1l-2-1 2 1zm0 0" fill="#423e33"/><path d="M91 175h-1 1-1v-2l1-1 1-1h1v3l-1 1h-1zm0 0M88 175h-2s1 0 0 0v-1l1-1h3l-2 1h2s-2 1 0 1h-2zm0 0" fill="#aeabaa"/><path d="M95 171l-1-1v-1l1 1v-1l1-1 1-1-1 2v2l-1-1v1zm0 0" fill="#353130"/><path d="M60 177l6-2h20c1 0 1 0 0 0h12c0 2 0 0 0 0l1 2h3v1h1c1 0 0 0 0 0l1 1h1l2 1 1 1h-1 1v3h1-1l1 1v2h1-1 1v1h-1l1 1v1l-1 1v1l-1 2-1 1h-3l-2 1h-1l-1 1h-2s1 0 0 0h-2l-1 1h-3l1-1 1-3v-4l-1-1h-1l-1-1H80l-1 1h-1v1l-1-1c0-1 1-1-1-1h-2s1 0 0 0h-9l-1 1s1 0 0 0h-2l-1 1h-1v1l-1 1v-4l-1-1v-4h-2s2-1 0-1v-1h-1v-1h-1l6-3zm0 0" fill="#2b2928"/><path d="M105 195s3-1 3-4 1-2 1-2v-1l-1-1v1-1l-1 1v-1h-2v-6l-1 5c-1 2-1-7-1-7l-1 2v-2 1-1l-2 2c0 1 0-3-2-4v1l-2-1h-2s4 3 4 7c0 5-2-5-7-6-7-3-9-1-11-1l-4-2v2s1 1-2 1h-6l-2 1-1 1v1s-1 1 0 1v1l1 1 3 3h18c3 0 5 0 6 2 1 1 2 1 2 5v4l6-2 4-1zm0 0" fill="#282726"/><path d="M59 186v-2l-1-2-2-2 3-1 3-1h-1l2-1h5l-2 1-1 1h-1v1l-1 1-1 2-1 1-1 1v1h-1zm0 0" fill="#302d2c"/><path d="M91 190l2 2v3c0 2-2 3-3 1v-4l-2-2h3zm-19 0h4l2 2c0 2 0 4-2 5h-4v-2l-1-3 1-2zm-4-1l2 1 1 2c0 3 0 6-2 6l-2-2-2-2 1-4 2-1zm0 0" fill="#fefefe"/><path d="M87 190l1 4c2 1 2 2 0 3h-3l-1-1h-2l-2-2 2-4h1l1 1 1-1h2zm-23 1l1 4-1 2c-1 2-4 0-4-1-1-2 0-4 1-4 1-1 2-2 3-1zm0 0" fill="#fefefe"/><path d="M56 189v-1l-2-1-1-1-1-1-1-1-1-2-1-1h-4l-3-4 1-3h2v-1l2 1 1 1v-1h-4v3l-1-2 1 2v1l-1-1 1 1 1 1-3-2 3 2 1 1h-1l-1-1 3 2-3-2s1 2 4 2h2l1 1 3 3 1 1h1v-2 1c2 1 2 2 2 3h-2v1zm-7-8zm-2-1h-2 2zm0 0" fill="#4c4441"/><path d="M55 181l1 2v3h-1l-1-1-3-3-2-1-2-1-2-1-1-2 1-3h3l4 4 1 2 1 1zm0 0" fill="#9d9086"/><path d="M51 180s-4 2-7-1c0 0 2 4 7 1zm0 0" fill="#fefefe"/><path d="M48 181c-3 0-4-2-4-2l3 2h1zm0 0" fill="#6e6765"/><path d="M48 181h-1 1zm1 0h-1l3-1-1 1h-1zm0 0" fill="#fefefe"/><path d="M45 182c-3-1-5-4-5-4 2 2 3 3 5 3v1zm0 0" fill="#4a4644"/><path d="M46 182h-1v-1l2 1h-1zm0 0" fill="#5b5554"/><path d="M48 181l-1-1h1v1zm0 0" fill="#fefefe"/><path d="M53 180zm-7 0v-1 1zm0 0" fill="#b2a8a0"/><path d="M56 186v-1h-1l-1-1h-1v-1l-1-1h-1s1 0 0 0v-1c1 0 0 0 0 0l2-1v1h2v1-1 2l1 2v1zm0 0M50 181s-1 0 0 0l2-1h1-1 1l-3 1zm-1-1h-3 6-4 1zm3 0h1zm0 0" fill="#dcd8d6"/><path d="M51 181h-1 1-1l3-1-2 1zm-4-1h-1 1zm0 0" fill="#e4e0e0"/><path d="M52 180h-1l-6-1 7 1zm0-1s-3-4-7-4c0 0 4-1 7 4zm0 0" fill="#fefefe"/><path d="M50 178v-1c-1 0-3-3-6-3h1c1 0 3 1 5 4zm0 0" fill="#dcd8d6"/><path d="M51 178l-1-1v1h1zm0 0" fill="#fefefe"/><path d="M52 179l-5-2 4 1 1 1zm0 0" fill="#e4e2e0"/><path d="M52 179s-5 0-7-2c0 0 2 3 7 2zm0 0" fill="#fefefe"/><path d="M50 179s-4 0-7-2c0 0 3 3 7 2zm0 0" fill="#fefefe"/><path d="M50 179s-5 0-7-4c0 0 2 4 7 4zm0 0" fill="#fefefe"/><path d="M50 178s-4 0-6-3c0 0 2 4 6 3zm-5 4s-5-1-6-3c0 0 1 2 6 3zm9-1s-3 1-5 0h5zm0 0" fill="#fefefe"/><path d="M52 179l-3-1 3 1zm0 0M49 178h-1l-1-1 2 1zm-2-1l-1-2 1 2zm-1-2zm0 0" fill="#efeeec"/><path d="M45 179l-3-2 3 2zm0 0" fill="#968f8c"/><path d="M32 182s1-4 0-10l-1 3v-3l-1 2v-4c-1-2-1 1-1 1l-1-3-3-4 2 5 2 5c0 4-1 1-1 1s2 7 1 9 3 0 3 0zm0 0" fill="#2f2b2a"/><path d="M56 191l-1-2-2-3-4-2-9-1-7 2h-8l-3 1-2 1-2 1h-1 2l-1 1-1 1v1c-1 0 0 0 0 0v3l1 1h1l1 1h7l7 1h5c1 0 3 2 5 1h2l4-1 2 1 2-1 1-2c1 0 3-3 1-4zm0 0" fill="#f9f0ec"/><path d="M21 186h1l3-1-3 1h-1zm4-1zm2 0c-1 0-1 0 0 0-1 0 0 0 0 0zm0 0zm2 0zm3 0zm6-1zm0 0" fill="#32302e"/><path d="M38 184l2-1-2 1zm0 0" fill="#413c3b"/><path d="M26 186h-5 1l3-1h2s-1 0 0 0h6l5-1 2-1h4l5 1 2 1-5-1h-1l-2 1h-8l-3 1h-6zm0 0" fill="#e2d9d5"/><path d="M55 195v-3l-1-2-1-1 1-3v1l1 3 1 2-1 3zm0 0" fill="#d4c7bd"/><path d="M54 197l-1-1h-1v-4 4l-1 1h-1l-4 1-1-1v-2-3 3l-1 2h-2l-3-1-1 1h2l4 1h6l4-1zm-11-9l1 2 1 1-1-1-1-1v-1zm7-1l1 2v0l-1-2zm0 0" fill="#e6d3c6"/><path d="M56 192c2-1 2-1 0-1l-1-2-1-1h1v1l1 2c2 0 2 0 0 1zm0 0" fill="#574d46"/><path d="M55 195c1-1 3-3 1-4l-1-2-1-1 1 1 1 2c2 0 2 0 0 1l-1 3zm0 0" fill="#d0c3bb"/><path d="M55 195l1-3-1-2-1-3v1l1 1 1 2c2 1 0 3-1 4zm0 0" fill="#b9aa9d"/><path d="M40 197h4l1 1h5l1-1h3l-4 1h-6l-4-1zm0 0" fill="#51392d"/><path d="M45 184h2l2 1 1 2v2l1 2v4l-2 1h-3v-5l-2-4 1-3zm0 0" fill="#fefefe"/><path d="M53 195v-1l-1-3v-1l-1-2-1-3h-1 1l1 1 1 1 1 1 1 3v3h-1v1zm0 0" fill="#fbf8f6"/><path d="M43 197l-3-1-3-1-1-4 2-3 2-2 2-1v1l1 1v4l1 1v4l-1 1zm0 0" fill="#fefcfb"/><path d="M27 196h-1l1-1 2-1c1 0 2 0 2-2h-3c-1 2-2 2-5 2h-4v-3l1-2 2-1 1-2h14l-1 4v5h-2l-2 1h-5zm0 0" fill="#fbf8f6"/><path d="M47 168l-1-6 1 1-1-5c-1-1-1 2-1 0l-3-6 1 6c0 3-1-2-1-2l1 4-3-4 3 7v-2l2 4v-4l2 7zm-7 14s-3-3-3-5v3l-1-3s-1 3 4 5zm-14-7s0-3-1-3v2l-2-6 2 9v-3zm-3 7s2-2 0-3v2l-1-7v9l1-2zm4 1v-2 1l-1-3v5l1-2zm-7-5v-1 1l-1-5v6zm0 0" fill="#2f2b2a"/><path d="M34 89l-5 3-2 1-2 1-3 1-2 1 2-2-5 3 6-5 6-4-2 2 4-2 2-2-4 2 2-2-4 1-4 2 4-3s-4 2-4 1l5-3-3 1 3-2c1-1-2-1-2-1l3-2 3-2 3-1 3-4h1l-2 14-2 2zm0 0" fill="#282726"/><path d="M39 70v12l-1 3v2l-1 5v1l-1 3-1 1v10l1 4v1l1 1c-1-1-3-3-4-7l-1-6v-3l1-2 1-2v-4l1-2 2-5 1-5v-4l1-3zm0 0" fill="#322f2a"/></g></svg>