<svg xmlns="http://www.w3.org/2000/svg" width="360" height="267" viewBox="0 0 270 200"><defs><linearGradient id="a" gradientUnits="userSpaceOnUse" x1="60" y1="418" x2="205" y2="287" gradientTransform="matrix(.3169 0 0 .31777 0 0)"><stop offset="0" stop-color="#e63d2a"/><stop offset="1" stop-color="#ec692a"/></linearGradient><linearGradient id="b" gradientUnits="userSpaceOnUse" x1="30" y1="447" x2="124" y2="385" gradientTransform="matrix(.3169 0 0 .31777 0 0)"><stop offset="0" stop-color="#fde1bf"/><stop offset="1" stop-color="#f49b59"/></linearGradient><linearGradient id="c" gradientUnits="userSpaceOnUse" x1="167" y1="464" x2="273" y2="330" gradientTransform="matrix(.3169 0 0 .31777 0 0)"><stop offset="0" stop-color="#e23524"/><stop offset="1" stop-color="#e45f22"/></linearGradient><linearGradient id="d" gradientUnits="userSpaceOnUse" x1="44" y1="480" x2="140" y2="429" gradientTransform="matrix(.3169 0 0 .31777 0 0)"><stop offset="0" stop-color="#e1c68e"/><stop offset="1" stop-color="#e48645"/></linearGradient><linearGradient id="e" gradientUnits="userSpaceOnUse" x1="157" y1="372" x2="138" y2="344" gradientTransform="matrix(.3169 0 0 .31777 0 0)"><stop offset="0" stop-color="#ec672a"/><stop offset="1" stop-color="#f8b87f"/></linearGradient><linearGradient id="f" gradientUnits="userSpaceOnUse" x1="570" y1="474" x2="522" y2="631" gradientTransform="matrix(.3169 0 0 .31777 0 0)"><stop offset="0" stop-color="#d63526"/><stop offset="1" stop-color="#d75c25"/></linearGradient><linearGradient id="g" gradientUnits="userSpaceOnUse" x1="396" y1="543" x2="396" y2="498" gradientTransform="matrix(.3169 0 0 .31777 0 0)"><stop offset="0" stop-color="#2e221c"/><stop offset="1" stop-color="#ad3527"/></linearGradient><linearGradient id="h" gradientUnits="userSpaceOnUse" x1="510" y1="534" x2="532" y2="580" gradientTransform="matrix(.3169 0 0 .31777 0 0)"><stop offset="0" stop-color="#2e221c"/><stop offset="1" stop-color="#9ea39d"/></linearGradient><linearGradient id="i" gradientUnits="userSpaceOnUse" x1="596" y1="523" x2="596" y2="451" gradientTransform="matrix(.3169 0 0 .31777 0 0)"><stop offset="0" stop-color="#2e221c"/><stop offset="1" stop-color="#e64123"/></linearGradient><radialGradient id="j" gradientUnits="userSpaceOnUse" cx="705" cy="583" fx="705" fy="583" r="95" gradientTransform="matrix(.39643 -.06454 -.04017 -.2313 -33 366)"><stop offset="0" stop-color="#49422f"/><stop offset="1" stop-color="#2e221c"/></radialGradient><linearGradient id="k" gradientUnits="userSpaceOnUse" x1="597" y1="576" x2="597" y2="444" gradientTransform="matrix(.3169 0 0 .31777 0 0)"><stop offset="0" stop-color="#792621"/><stop offset="1" stop-color="#ec692a"/></linearGradient><linearGradient id="l" gradientUnits="userSpaceOnUse" x1="596" y1="609" x2="596" y2="422" gradientTransform="matrix(.3169 0 0 .31777 0 0)"><stop offset="0" stop-color="#2e221c"/><stop offset="1" stop-color="#ea5c29"/></linearGradient><linearGradient id="m" gradientUnits="userSpaceOnUse" x1="613" y1="367" x2="667" y2="362" gradientTransform="matrix(.3169 0 0 .31777 0 0)"><stop offset="0" stop-color="#ec672a"/><stop offset="1" stop-color="#f8b87f"/></linearGradient><linearGradient id="n" gradientUnits="userSpaceOnUse" x1="688" y1="554" x2="715" y2="596" gradientTransform="matrix(.3169 0 0 .31777 0 0)"><stop offset="0" stop-color="#2e221c"/><stop offset="1" stop-color="#9ea39d"/></linearGradient><linearGradient id="o" gradientUnits="userSpaceOnUse" x1="710" y1="554" x2="733" y2="592" gradientTransform="matrix(.3169 0 0 .31777 0 0)"><stop offset="0" stop-color="#2e221c"/><stop offset="1" stop-color="#9ea39d"/></linearGradient><linearGradient id="p" gradientUnits="userSpaceOnUse" x1="716" y1="323" x2="706" y2="384" gradientTransform="matrix(.3169 0 0 .31777 0 0)"><stop offset="0" stop-color="#e63d2a"/><stop offset="1" stop-color="#ec692a"/></linearGradient><linearGradient id="q" gradientUnits="userSpaceOnUse" x1="355" y1="450" x2="359" y2="378" gradientTransform="matrix(.3169 0 0 .31777 0 0)"><stop offset="0" stop-color="#e63d2a"/><stop offset="1" stop-color="#ec692a"/></linearGradient><linearGradient id="r" gradientUnits="userSpaceOnUse" x1="413" y1="519" x2="380" y2="420" gradientTransform="matrix(.3169 0 0 .31777 0 0)"><stop offset="0" stop-color="#fde1bf"/><stop offset="1" stop-color="#f49b59"/></linearGradient><linearGradient id="s" gradientUnits="userSpaceOnUse" x1="442" y1="485" x2="413" y2="428" gradientTransform="matrix(.3169 0 0 .31777 0 0)"><stop offset="0" stop-color="#e9ba77"/><stop offset="1" stop-color="#e28137"/></linearGradient><linearGradient id="t" gradientUnits="userSpaceOnUse" x1="559" y1="279" x2="559" y2="195" gradientTransform="matrix(.3169 0 0 .31777 0 0)"><stop offset="0" stop-color="#cd3b27"/><stop offset="1" stop-color="#e9522a"/></linearGradient><linearGradient id="u" gradientUnits="userSpaceOnUse" x1="698" y1="330" x2="672" y2="296" gradientTransform="matrix(.3169 0 0 .31777 0 0)"><stop offset="0" stop-color="#fac8a3"/><stop offset="1" stop-color="#e28137"/></linearGradient><linearGradient id="v" gradientUnits="userSpaceOnUse" x1="219" y1="503" x2="219" y2="404" gradientTransform="matrix(.3169 0 0 .31777 0 0)"><stop offset="0" stop-color="#2e221c"/><stop offset="1" stop-color="#e64123"/></linearGradient><radialGradient id="w" gradientUnits="userSpaceOnUse" cx="275" cy="587" fx="275" fy="587" r="151" gradientTransform="matrix(.33955 0 0 -.20973 -6 310)"><stop offset="0" stop-color="#49422f"/><stop offset="1" stop-color="#2e221c"/></radialGradient><linearGradient id="x" gradientUnits="userSpaceOnUse" x1="266" y1="572" x2="266" y2="395" gradientTransform="matrix(.3169 0 0 .31777 0 0)"><stop offset="0" stop-color="#792621"/><stop offset="1" stop-color="#ec692a"/></linearGradient><linearGradient id="y" gradientUnits="userSpaceOnUse" x1="266" y1="672" x2="266" y2="355" gradientTransform="matrix(.3169 0 0 .31777 0 0)"><stop offset="0" stop-color="#2e221c"/><stop offset="1" stop-color="#ea5c29"/></linearGradient><linearGradient id="z" gradientUnits="userSpaceOnUse" x1="341" y1="281" x2="395" y2="280" gradientTransform="matrix(.3169 0 0 .31777 0 0)"><stop offset="0" stop-color="#ec672a"/><stop offset="1" stop-color="#f8b87f"/></linearGradient><linearGradient id="A" gradientUnits="userSpaceOnUse" x1="244" y1="570" x2="294" y2="600" gradientTransform="matrix(.3169 0 0 .31777 0 0)"><stop offset="0" stop-color="#2e221c"/><stop offset="1" stop-color="#9ea39d"/></linearGradient><linearGradient id="B" gradientUnits="userSpaceOnUse" x1="273" y1="562" x2="319" y2="581" gradientTransform="matrix(.3169 0 0 .31777 0 0)"><stop offset="0" stop-color="#2e221c"/><stop offset="1" stop-color="#9ea39d"/></linearGradient><linearGradient id="C" gradientUnits="userSpaceOnUse" x1="522" y1="532" x2="522" y2="455" gradientTransform="matrix(.3169 0 0 .31777 0 0)"><stop offset="0" stop-color="#2e221c"/><stop offset="1" stop-color="#e64123"/></linearGradient><radialGradient id="D" gradientUnits="userSpaceOnUse" cx="638" cy="596" fx="638" fy="596" r="102" gradientTransform="matrix(.39646 -.06455 -.04017 -.2313 -27 369)"><stop offset="0" stop-color="#49422f"/><stop offset="1" stop-color="#2e221c"/></radialGradient><linearGradient id="E" gradientUnits="userSpaceOnUse" x1="522" y1="589" x2="522" y2="447" gradientTransform="matrix(.3169 0 0 .31777 0 0)"><stop offset="0" stop-color="#792621"/><stop offset="1" stop-color="#ec692a"/></linearGradient><linearGradient id="F" gradientUnits="userSpaceOnUse" x1="522" y1="624" x2="522" y2="424" gradientTransform="matrix(.3169 0 0 .31777 0 0)"><stop offset="0" stop-color="#2e221c"/><stop offset="1" stop-color="#ea5c29"/></linearGradient><linearGradient id="G" gradientUnits="userSpaceOnUse" x1="540" y1="366" x2="598" y2="361" gradientTransform="matrix(.3169 0 0 .31777 0 0)"><stop offset="0" stop-color="#ec672a"/><stop offset="1" stop-color="#f8b87f"/></linearGradient><linearGradient id="H" gradientUnits="userSpaceOnUse" x1="620" y1="566" x2="649" y2="611" gradientTransform="matrix(.3169 0 0 .31777 0 0)"><stop offset="0" stop-color="#2e221c"/><stop offset="1" stop-color="#9ea39d"/></linearGradient><linearGradient id="I" gradientUnits="userSpaceOnUse" x1="643" y1="566" x2="668" y2="607" gradientTransform="matrix(.3169 0 0 .31777 0 0)"><stop offset="0" stop-color="#2e221c"/><stop offset="1" stop-color="#9ea39d"/></linearGradient><linearGradient id="J" gradientUnits="userSpaceOnUse" x1="741" y1="153" x2="753" y2="79" gradientTransform="matrix(.3169 0 0 .31777 0 0)"><stop offset="0" stop-color="#e63d2a"/><stop offset="1" stop-color="#ec692a"/></linearGradient><linearGradient id="K" gradientUnits="userSpaceOnUse" x1="761" y1="97" x2="720" y2="43" gradientTransform="matrix(.3169 0 0 .31777 0 0)"><stop offset="0" stop-color="#cd3b27"/><stop offset="1" stop-color="#e9522a"/></linearGradient><linearGradient id="L" gradientUnits="userSpaceOnUse" x1="747" y1="75" x2="741" y2="35" gradientTransform="matrix(.3169 0 0 .31777 0 0)"><stop offset="0" stop-color="#e63d2a"/><stop offset="1" stop-color="#1d1b19"/></linearGradient><radialGradient id="M" gradientUnits="userSpaceOnUse" cx="722" cy="68" fx="722" fy="68" r="183" gradientTransform="matrix(-.37462 -.11315 -.00697 -.3907 499 130)"><stop offset="0" stop-color="#fcfae2"/><stop offset="1" stop-color="#fde1bf"/></radialGradient><radialGradient id="N" gradientUnits="userSpaceOnUse" cx="724" cy="67" fx="724" fy="67" r="183" gradientTransform="matrix(-.39425 -.11443 -.00734 -.39511 515 131)"><stop offset="0" stop-color="#e9ea9e"/><stop offset="1" stop-color="#eabd80"/></radialGradient><linearGradient id="O" gradientUnits="userSpaceOnUse" x1="546" y1="229" x2="483" y2="189" gradientTransform="matrix(.3169 0 0 .31777 0 0)"><stop offset="0" stop-color="#e63d2a"/><stop offset="1" stop-color="#ec692a"/></linearGradient><linearGradient id="P" gradientUnits="userSpaceOnUse" x1="501" y1="209" x2="502" y2="120" gradientTransform="matrix(.3169 0 0 .31777 0 0)"><stop offset="0" stop-color="#cd3b27"/><stop offset="1" stop-color="#e9522a"/></linearGradient><linearGradient id="Q" gradientUnits="userSpaceOnUse" x1="502" y1="159" x2="477" y2="128" gradientTransform="matrix(.3169 0 0 .31777 0 0)"><stop offset="0" stop-color="#e63d2a"/><stop offset="1" stop-color="#1d1b19"/></linearGradient><radialGradient id="R" gradientUnits="userSpaceOnUse" cx="525" cy="143" fx="525" fy="143" r="130" gradientTransform="matrix(.33257 -.4217 -.4009 -.34981 49 317)"><stop offset="0" stop-color="#fcfae2"/><stop offset="1" stop-color="#fde1bf"/></radialGradient><radialGradient id="S" gradientUnits="userSpaceOnUse" cx="524" cy="143" fx="524" fy="143" r="130" gradientTransform="matrix(.33845 -.4217 -.42055 -.33938 49 315)"><stop offset="0" stop-color="#e9ea9e"/><stop offset="1" stop-color="#eabd80"/></radialGradient><radialGradient id="T" gradientUnits="userSpaceOnUse" cx="523" cy="142" fx="523" fy="142" r="48" gradientTransform="matrix(.9639 -1.16515 -1.16197 -.96656 -173 793)"><stop offset="0" stop-color="#e9ea9e"/><stop offset="1" stop-color="#eabd80"/></radialGradient><radialGradient id="U" gradientUnits="userSpaceOnUse" cx="523" cy="147" fx="523" fy="147" r="110" gradientTransform="matrix(.42093 -.47949 -.47818 -.42209 16 360)"><stop offset="0" stop-color="#e9ea9e"/><stop offset="1" stop-color="#eabd80"/></radialGradient><radialGradient id="V" gradientUnits="userSpaceOnUse" cx="568" cy="209" fx="568" fy="209" r="178" gradientTransform="matrix(.23198 -.26468 -.35628 -.37328 123 294)"><stop offset="0" stop-color="#e63d2a"/><stop offset="1" stop-color="#ec692a"/></radialGradient><radialGradient id="W" gradientUnits="userSpaceOnUse" cx="749" cy="152" fx="749" fy="152" r="154" gradientTransform="matrix(.26988 .08187 .12334 -.45636 16 56)"><stop offset="0" stop-color="#e63d2a"/><stop offset="1" stop-color="#ec692a"/></radialGradient><linearGradient id="X" gradientUnits="userSpaceOnUse" x1="664" y1="114" x2="674" y2="172" gradientTransform="matrix(.3169 0 0 .31777 0 0)"><stop offset="0" stop-color="#b83227"/><stop offset="1" stop-color="#ec692a"/></linearGradient><linearGradient id="Y" gradientUnits="userSpaceOnUse" x1="707" y1="91" x2="726" y2="139" gradientTransform="matrix(.3169 0 0 .31777 0 0)"><stop offset="0" stop-color="#b83227"/><stop offset="1" stop-color="#ec692a"/></linearGradient><linearGradient id="Z" gradientUnits="userSpaceOnUse" x1="719" y1="87" x2="720" y2="118" gradientTransform="matrix(.3169 0 0 .31777 0 0)"><stop offset="0" stop-color="#ce4126"/><stop offset="1" stop-color="#ec692a"/></linearGradient><linearGradient id="aa" gradientUnits="userSpaceOnUse" x1="702" y1="170" x2="727" y2="165" gradientTransform="matrix(.3169 0 0 .31777 0 0)"><stop offset="0" stop-color="#4a484a"/><stop offset="1" stop-color="#1d1b19"/></linearGradient><linearGradient id="ab" gradientUnits="userSpaceOnUse" x1="636" y1="209" x2="668" y2="194" gradientTransform="matrix(.3169 0 0 .31777 0 0)"><stop offset="0" stop-color="#4a484a"/><stop offset="1" stop-color="#1d1b19"/></linearGradient><linearGradient id="ac" gradientUnits="userSpaceOnUse" x1="574" y1="290" x2="571" y2="250" gradientTransform="matrix(.3169 0 0 .31777 0 0)"><stop offset="0" stop-color="#fde1bf"/><stop offset="1" stop-color="#f49b59"/></linearGradient><linearGradient id="ad" gradientUnits="userSpaceOnUse" x1="727" y1="173" x2="735" y2="147" gradientTransform="matrix(.3169 0 0 .31777 0 0)"><stop offset="0" stop-color="#fde1bf"/><stop offset="1" stop-color="#f49b59"/></linearGradient><linearGradient id="ae" gradientUnits="userSpaceOnUse" x1="791" y1="178" x2="791" y2="176" gradientTransform="matrix(.3169 0 0 .31777 0 0)"><stop offset="0" stop-color="#7e7c7f"/><stop offset="1" stop-color="#1d1b19"/></linearGradient><linearGradient id="af" gradientUnits="userSpaceOnUse" x1="796" y1="184" x2="795" y2="183" gradientTransform="matrix(.3169 0 0 .31777 0 0)"><stop offset="0" stop-color="#7e7c7f"/><stop offset="1" stop-color="#1d1b19"/></linearGradient><linearGradient id="ag" gradientUnits="userSpaceOnUse" x1="795" y1="198" x2="793" y2="195" gradientTransform="matrix(.3169 0 0 .31777 0 0)"><stop offset="0" stop-color="#7e7c7f"/><stop offset="1" stop-color="#1d1b19"/></linearGradient><linearGradient id="ah" gradientUnits="userSpaceOnUse" x1="722" y1="142" x2="732" y2="175" gradientTransform="matrix(.3169 0 0 .31777 0 0)"><stop offset="0" stop-color="#ec672a"/><stop offset="1" stop-color="#f39845"/></linearGradient><radialGradient id="ai" gradientUnits="userSpaceOnUse" cx="759" cy="197" fx="759" fy="197" r="208" gradientTransform="matrix(.0058 .2474 .24917 -.00575 187 -124)"><stop offset="0" stop-color="#fcfae2"/><stop offset="1" stop-color="#fde1bf"/></radialGradient><linearGradient id="aj" gradientUnits="userSpaceOnUse" x1="655" y1="228" x2="659" y2="222" gradientTransform="matrix(.3169 0 0 .31777 0 0)"><stop offset="0" stop-color="#7e7c7f"/><stop offset="1" stop-color="#1d1b19"/></linearGradient><linearGradient id="ak" gradientUnits="userSpaceOnUse" x1="782" y1="157" x2="792" y2="177" gradientTransform="matrix(.3169 0 0 .31777 0 0)"><stop offset="0" stop-color="#4a484a"/><stop offset="1" stop-color="#1d1b19"/></linearGradient><linearGradient id="al" gradientUnits="userSpaceOnUse" x1="755" y1="175" x2="755" y2="170" gradientTransform="matrix(.3169 0 0 .31777 0 0)"><stop offset="0" stop-color="#4a484a"/><stop offset="1" stop-color="#adacb1"/></linearGradient><linearGradient id="am" gradientUnits="userSpaceOnUse" x1="742" y1="190" x2="744" y2="179" gradientTransform="matrix(.3169 0 0 .31777 0 0)"><stop offset="0" stop-color="#4a484a"/><stop offset="1" stop-color="#1d1b19"/></linearGradient></defs><path d="M108 88s-21-6-47 12c-27 19-38 40-43 44s-19 12-18 17c1 6 19 15 41 7 21-7 32-25 38-35 7-11 10-18 20-19 9-1 15-14 15-14zm0 0" fill-rule="evenodd" fill="url(#a)"/><path d="M43 159l5-2-10-1 5-1c-2-1-6-2-8-1l3-10-3 3c2-4 3-11 1-14l-1 4-1-6-5 3 1-4-12 14c-5 4-19 12-18 17 1 6 19 15 41 7 6-2 12-6 17-10-4 2-10 0-15 1zm0 0" fill-rule="evenodd" fill="url(#b)"/><path d="M90 109c-7 4-17 15-26 29-5 8-8 15-14 21l8-1c10-8 17-18 21-25 7-11 10-18 20-19h1c-2-3-6-6-10-5zm0 0" fill-rule="evenodd" fill="url(#c)"/><path d="M41 168h1l1-1h1l1-1h2l1-1 1-1h1l1-1h1l1-1 1-1h1l1-1 1-1 1-1-8 1c-4 4-11 7-21 9-19 2-27-4-29-6 2 5 20 13 41 6zm0 0" fill-rule="evenodd" fill="url(#d)"/><path d="M53 111l-6 2zm-3-2l10-1-10 1zm5-3l10-1c-3-1-7-1-10 1zm6-5l8 1c-2-2-6-2-8-1zm5-3l7 2c-1-2-6-3-7-2zm5-2l6 2c-1-2-5-3-6-2zm4-3l5 3c1-1-3-3-5-3zm6-1l3 1c1 0-2-2-3-1zm5-1l2 2-2-2zm4-1l1 2c1-1 0-2-1-2zm3 0l1 1-1-1zm0 0" fill-rule="evenodd" fill="url(#e)"/><path d="M121 140l6 8c0 2-2 7 2 14 3 6 17 21 18 24 1 2 4 5 9 4 5 0 7-2 7-2s4 1 5-1c0 0 2-2 0-6-3-4-5-4-7-3-2 0-7-1-9-6s-4-10-1-15c0 0 6-5 7-11 1-7-13-17-13-17l-21-1-6 4zm0 0" fill-rule="evenodd" fill="url(#f)"/><path d="M129 162c3 6 17 21 18 24 1 2 4 5 9 4 5 0 7-2 7-2s4 1 5-1c0 0 2-2 0-6-3-4-5-4-7-3-2 0-7-1-9-6s-4-10-1-15c0 0 6-5 7-11l-1-4v2c0 7-7 10-13 13-6 4-11 2-13-1l-4-8c0 2-2 7 2 14zm0 0" fill-rule="evenodd" fill="url(#g)"/><path d="M160 182l-5-1c5 0 7 3 7 8l1-1-1-2-2-4zm7 1l-3-3h-4c3-1 6 1 7 4v4l1-1-1-4zm0 0" fill-rule="evenodd" fill="url(#h)"/><path d="M190 138s-1-18 8-21 13 0 15 3 4 17 5 27l-1 10 1 13c1 5 2 10 4 11l4 1c2 0 5 1 7 4 1 3 0 5-3 5 0 0-1 4-6 2 0 0-2 2-8 2-5 0-6-2-5-7l-3-2-1-5-3-7-4-15s-3-3-4-8l-6-13zm0 0" fill-rule="evenodd" fill="url(#i)"/><path d="M213 187c1 4 5 6 11 5 4-1 7-3 9-5v-1c-2-3-5-4-7-4l-4-1-1-1c-5 1-9 4-8 7zm0 0" fill-rule="evenodd" fill="url(#j)"/><path d="M198 117c-8 3-8 20-8 21 1 1 5 5 7 11 3 6 9 13 13 12 5-1 9-18 3-39v-2c-2-3-7-6-15-3zm0 0" fill-rule="evenodd" fill="url(#k)"/><path d="M196 138c-3-4-3-13-3-18-3 7-3 18-3 18 1 1 5 5 7 11 2 5 7 11 11 12-6-5-10-19-12-23zm0 0" fill-rule="evenodd" fill="url(#l)"/><path d="M201 117l4 1c-1-2-2-1-4-1zm2 3l7 2c-1-2-4-4-7-2zm4 3l6 4c0-2-4-4-6-4zm3 5l4 4c-1-2-2-4-4-4zm2 5l2 3c0-2-1-2-2-3zm1 4l1 3-1-3zm0 0" fill-rule="evenodd" fill="url(#m)"/><path d="M224 189l-2-3c-2-1-4-2-6-1l6 1 1 4v4l1-1v-4zm0 0" fill-rule="evenodd" fill="url(#n)"/><path d="M228 185c-2-2-3-2-5-1l5 1 1 4 1 3v-3l-2-4zm0 0" fill-rule="evenodd" fill="url(#o)"/><path d="M106 88s8-5 19-4 20 6 33 5c13-2 18-18 19-23 1-6 47 4 47 4l7 11s-9 0-11 8l-2 13s2 4 6 4l-4 8 3-3s-1 6-4 8c0 0 2 0 3-2 0 0-1 3-5 5l3-1-4 3s-7 17-21 23c-13 5-29 4-42 0-12-5-14-9-22-9l-12 1-13-27zm0 0" fill-rule="evenodd" fill="url(#p)"/><path d="M180 141c0-1-9-22-10-16-2 7-16 16-22 14l-19-11v-15l-14 17 4 9 12-1c8 0 10 4 22 9 9 2 18 4 27 3v-9zm0 0" fill-rule="evenodd" fill="url(#q)"/><path d="M131 138c8 0 10 4 22 9 13 4 29 5 42 0 14-6 21-23 21-23l4-3-3 1c4-2 5-5 5-5-1 2-3 2-3 2 3-2 4-8 4-8l-3 3 4-8c-4 0-6-4-6-4s0-5 2-13 11-8 11-8l-7-11-3-1h-1l-23 9-11 6s4 2 4 4c0 3-3 4-3 4s5 9 6 15-1 10-1 10l-2-3v6c0 2-15 14-17 16s-6 5-14 5c-8 1-14-3-21-6-7-2-14 0-14 0l-5 4 12-1zm0 0" fill-rule="evenodd" fill="url(#r)"/><path d="M223 111l-3 3 4-8c-3 6-10 11-10 11l6-2-4 3c-7 21-21 26-21 26l-8 5 8-2c14-6 21-23 21-23l4-3-3 1c4-2 5-5 5-5-1 2-3 2-3 2 3-2 4-8 4-8zm-46 37l-9-7 1 7c-14 0-28-9-33-10-6-2-14 0-14 0l-3 1 12-1c8 0 10 4 22 9 10 3 20 4 30 3-1-2-3-2-6-2zm0 0" fill-rule="evenodd" fill="url(#s)"/><path d="M183 78h-5s4 7 12 11v-1c0-2-4-4-4-4l11-6 23-9h1l1 1-13-3-16 7zm0 0" fill-rule="evenodd" fill="url(#t)"/><path d="M231 81l-7-11h-2l-1-1h-1l-23 9-11 6s4 2 4 4v1l6 1 23 3 1-4c2-8 11-8 11-8zm0 0" fill-rule="evenodd" fill="url(#u)"/><path d="M106 88s-16 11-19 26-1 32-5 35c-2 3-9 6-11 15-1 9-1 29 3 32 4 5 8 5 11 3 0 0 6 2 9-2 0 0 4 0 5-6 0-5-5-9-8-8l-4-5c-2-2 1-11 5-12 4-2 9 1 19-11s12-18 16-29c4-12 6-45-21-38zm0 0" fill-rule="evenodd" fill="url(#v)"/><path d="M74 187c0 4 6 8 13 8 5 0 9-1 12-4 0-5-5-9-8-8l-4-5c-8 1-13 4-13 9zm0 0" fill-rule="evenodd" fill="url(#w)"/><path d="M106 88s-16 11-19 26l-1 12 2 19c2 4 3 16 12 14 8-2 24-19 28-40 3-14 1-37-22-31zm0 0" fill-rule="evenodd" fill="url(#x)"/><path d="M92 114c2-12 12-23 15-26h-1s-16 11-19 26l-1 12a80 80 0 0 0 3 22c0-9 0-25 3-34zm0 0" fill-rule="evenodd" fill="url(#y)"/><path d="M117 90l4 1c-1-2-2-1-4-1zm1 2l6 3c-1-2-4-3-6-3zm1 4l8 5c0-3-5-5-8-5zm3 6l6 6c-1-3-3-5-6-6zm1 5l3 6c0-3-1-5-3-6zm0 6l2 5c1-2 0-4-2-5zm1 10l-1-5zm0 0" fill-rule="evenodd" fill="url(#z)"/><path d="M79 185c4 0 7 6 7 10l-1 4 1-4c0-5-3-10-7-10zm0 0" fill-rule="evenodd" fill="url(#A)"/><path d="M88 183l5 4 1 7-1 4 1-1c1-6 1-12-6-14zm0 0" fill-rule="evenodd" fill="url(#B)"/><path d="M167 139s-1-20 8-23 14 1 16 4 5 18 5 28l-1 11 1 14c1 6 3 11 5 12 1 2 2 2 4 2s6 1 7 3c1 4 0 5-3 6 0 0-1 4-6 2 0 0-3 3-8 2s-7-3-6-7l-3-3-1-5-3-7-5-17s-3-2-4-8c-1-5-6-14-6-14zm0 0" fill-rule="evenodd" fill="url(#C)"/><path d="M191 192c1 3 6 5 12 4 4 0 8-2 9-5v-1c-1-2-5-3-7-3s-3 0-4-2l-2-1c-5 1-9 4-8 8zm0 0" fill-rule="evenodd" fill="url(#D)"/><path d="M175 116c-9 3-8 23-8 23l7 11c3 7 9 14 14 13s10-19 3-41v-2c-2-3-7-7-16-4zm0 0" fill-rule="evenodd" fill="url(#E)"/><path d="M172 139c-2-4-2-14-2-19-4 7-3 19-3 19l7 11c3 6 8 12 12 13-7-4-11-19-14-24zm0 0" fill-rule="evenodd" fill="url(#F)"/><path d="M178 117h5-5zm3 3l7 2c-1-2-5-4-7-2zm4 3l6 4c0-2-4-4-6-4zm3 5l4 4-4-4zm2 6l2 3c0-2-1-3-2-3zm1 4l1 3-1-3zm0 0" fill-rule="evenodd" fill="url(#G)"/><path d="M203 194l-2-4-6-1 5 1 3 5v-1zm0 0" fill-rule="evenodd" fill="url(#H)"/><path d="M207 189l-5-1 5 1 2 5v-1l-2-4zm0 0" fill-rule="evenodd" fill="url(#I)"/><path d="M227 46s12-8 8-27c-3-17-6-20-7-19-2 2-6 11-12 17-5 5-7 14-6 20 3 6 17 9 17 9zm0 0" fill-rule="evenodd" fill="url(#J)"/><path d="M227 46s-14-3-16-9c0-1 0-2 2-2 4-2 12 5 14 7 6-6 8-15 8-19 2 16-8 23-8 23zm0 0" fill-rule="evenodd" fill="url(#K)"/><path d="M227 19c-6 1-10 4-14 1l3-3c6-6 10-15 12-17 1-1 4 2 7 19h-8zm0 0" fill-rule="evenodd" fill="url(#L)"/><path d="M226 36s7-7 6-18c-2-9-3-13-5-12l-11 12c-3 5-4 13-2 15s0-2 2-4l1 3s0-4 4-6l-2 6s3-5 8-6c0 0-4 5-4 8l4-2s-2 2-1 4zm0 0" fill-rule="evenodd" fill="url(#M)"/><path d="M227 32l-4 2c0-3 4-8 4-8-5 1-8 6-8 6l2-6c-4 2-4 6-4 6l-1-3c-2 2 0 6-2 4s-1-10 2-15l11-12c1-1 2 1 4 6-2 0-6-1-12 5-4 4-3 9-2 12 3-4 8-7 8-7-3 3-4 7-4 7 6-5 9-5 9-5l-6 8 5-2-1 4-2 2c-1-2 1-4 1-4zm0 0" fill-rule="evenodd" fill="url(#N)"/><path d="M212 23s-1 8 1 11h-3s-1-6 2-11zm0 0" fill="#ec692a"/><path d="M180 67s-15 0-22-19c-6-18-6-23-4-24 2 0 10 3 19 3 10 1 18 7 19 16s-12 24-12 24zm0 0" fill-rule="evenodd" fill="url(#O)"/><path d="M180 67s13-15 12-24h-3c-7 3-11 16-12 20-8-1-15-8-17-11 7 15 20 15 20 15zm0 0" fill-rule="evenodd" fill="url(#P)"/><path d="M164 41c6-4 12-6 14-13l-5-1c-9 0-17-3-19-3-2 1-2 6 4 24l6-7zm0 0" fill-rule="evenodd" fill="url(#Q)"/><path d="M175 57s-10-2-15-12c-4-10-5-15-2-16h16c6 1 12 10 11 14s-1-2-5-2l2 4s-3-4-8-3c0 0 4 2 5 5 0 0-6-2-11 0 0 0 7 2 8 5l-5 1s3 1 4 4zm0 0" fill-rule="evenodd" fill="url(#R)"/><path d="M171 53l5-1c-1-3-8-5-8-5 5-2 11 0 11 0-1-3-5-5-5-5 5-1 8 3 8 3l-2-4c4 0 4 6 5 2s-5-13-11-14h-17c-1 1-1 4 1 10 1-2 4-7 12-7 7-1 9 6 10 10-5-2-12 0-12 0 5 0 7 3 7 3-8 0-11 3-11 3 6 1 10 4 10 4l-5 1 3 3 3 1c-1-3-4-4-4-4zm0 0" fill-rule="evenodd" fill="url(#S)"/><path d="M181 30s7 7 7 12l3-2s-3-8-10-10zm0 0" fill-rule="evenodd" fill="url(#T)"/><path d="M206 37l-12 3c-5 0-10 6-14 16-3 10-2 18 0 20l-4-2s6 13 19 12 21-6 30-7c0 0 4 4 11 1 5-2 6-7 6-7s3 1 3-2l1-5-3-7-2-4s1-4 0-8v3s-3-2-7-2l-5-9c-1-3-7-8-15-5zm0 0" fill-rule="evenodd" fill="url(#U)"/><path d="M193 54l-9-6-4 8c-3 10-2 18 0 20l-4-2s6 13 19 12h3l1-1c7-7 4-21-6-31zm0 0" fill-rule="evenodd" fill="url(#V)"/><path d="M241 55s1-4 0-8v3s-3-2-7-2l-5-9-1-2-3 8c-3 11 0 21 6 23 5 1 10-2 13-7a50 50 0 0 1-1-2zm0 0" fill-rule="evenodd" fill="url(#W)"/><path d="M194 61s-2-14 6-16 13 7 14 12zm0 0" fill-rule="evenodd" fill="url(#X)"/><path d="M219 50s-5-13 1-14c5-1 8 7 8 7zm0 0" fill-rule="evenodd" fill="url(#Y)"/><path d="M194 42c5-1 15-1 24-7 0 0 7 0 10 3-2-3-7-7-14-4l-8 3-12 3c-4 0-8 4-11 10 1-2 6-7 11-8zm0 0" fill-rule="evenodd" fill="url(#Z)"/><path d="M223 38c-2 0-5 3-5 10h2c2 0 6 7 7 9l2-7c0-7-4-12-6-12zm0 0" fill="#1d1b19"/><path d="M228 43l2-2-2 3zm0 0" fill="#1d1b19"/><path d="M223 60s-4-5-5-11c0-7 3-10 5-10s6 5 5 11c0 7-2 9-5 10zm0 0" fill="#fefefe"/><path d="M219 48c0 4 2 7 3 7 3 0 4-3 4-7 0-3-2-7-4-7s-4 4-3 7zm0 0" fill="#1d1b19"/><path d="M219 48v-2-1c2-1 3-1 4 2 2 3 1 6 0 7v1h-1c-1 0-3-3-3-7zm0 0" fill-rule="evenodd" fill="url(#aa)"/><path d="M220 52l1 1v-1-1l-1 1zm0 0" fill="#7d98ad"/><path d="M223 43v3h2l-1-2-1-1zm0 0" fill="#a0d0af"/><path d="M221 36l-2-1-2 1v-1l2-1 2 2zm0 0" fill="#1d1b19"/><path d="M218 34v1h-1l1-1zm0 0" fill="#7d98ad"/><path d="M197 49l2-2 2-1v-1l-2 1-2 3zm0 0" fill="#1d1b19"/><path d="M199 46h2l-1-1-1 1zm0 0" fill="#7d98ad"/><path d="M214 59c0 7-5 11-10 11-6 0-10-4-10-11 0-6 4-10 10-10 5 0 10 4 10 10zm0 0" fill="#1d1b19"/><path d="M195 61h-5 5c2 0 1-1 1-1zm0 0" fill="#1d1b19"/><path d="M215 60c0 6-5 11-10 11-6 0-10-5-10-11s4-11 10-11c5 0 10 5 10 11zm0 0" fill="#fefefe"/><path d="M196 58c0 4 3 7 6 7 4 1 7-3 7-6 0-4-2-7-6-7-3 0-6 2-7 6zm0 0" fill="#1d1b19"/><path d="M196 58l1-1 1-2c3-2 5 0 7 2 2 3 1 6-1 8h-1c-4 0-7-3-7-7zm0 0" fill-rule="evenodd" fill="url(#ab)"/><path d="M199 62v1l1-1-1-1v1zm0 0" fill="#7d98ad"/><path d="M204 53c-1 1 0 2 1 3l2 1v-3l-3-1zm0 0" fill="#a0d0af"/><path d="M195 86c13-1 21-6 30-7 0 0 4 4 11 1 5-2 6-7 6-7s3 1 3-2l1-5-4-1c-3-1-12 2-12 2l-15 1c-14 8-23 10-30 11-5 1-8-3-9-4 1 2 7 12 19 11zm0 0" fill-rule="evenodd" fill="url(#ac)"/><path d="M239 53c-2 1-5 1-8 5-3 5 3 7 4 7l10-1-2-5-2-4s1-4 0-7c0 1 0 4-2 5zm0 0" fill-rule="evenodd" fill="url(#ad)"/><path d="M195 86c13-1 21-6 30-7 0 0 4 4 11 1 5-2 6-7 6-7s3 1 3-2c-1 2-3 1-3 1s-3 7-9 8c-5 1-8-2-8-2-9 1-22 7-31 7-7 1-14-5-16-7 3 4 9 8 17 8zm0 0" fill="#e9ba77"/><path d="M248 59c5-1 9-2 14-1-5-1-9 0-14 1zm0 0" fill-rule="evenodd" fill="url(#ae)"/><path d="M247 61c8-2 16-1 23 1l-11-2h-12v1zm0 0" fill-rule="evenodd" fill="url(#af)"/><path d="M258 65l-12-2v1c8 0 15 1 22 5l-10-4zm0 0" fill-rule="evenodd" fill="url(#ag)"/><path d="M247 57l-8-2-13 2c-6 0-10-5-10-5s1 11-1 14l-3 5c5 5 13 7 20 5l8-5c2-2 4-3 7-2h-2v2c5-2 6-10 2-14zm0 0" fill="#ec692a"/><path d="M227 60l13-1 4-3-5-1-13 2c-6 0-10-5-10-5v1c1 2 5 7 11 7zm0 0" fill-rule="evenodd" fill="url(#ah)"/><path d="M232 76l8-5c2-2 4-3 7-2h-2v2c5-2 6-10 2-14l-8 1c-5 1-11 8-15 10s-9 0-10 0l-2 3c5 5 13 7 20 5zm0 0" fill-rule="evenodd" fill="url(#ai)"/><path d="M236 72c-5 4-14 4-16 4h12l8-5c2-2 4-3 7-2h-2v2l4-5c-3 0-7 1-13 6zm7-7c5-1 4-7 4-7l-10 1s3 7 6 6zm0 0" fill="#e9ba77"/><path d="M247 57c2 2 2 6 2 9l-2 3-2 2v-2h2v-1c-3 0-6 2-7 3l-10 5c-6 1-13 0-18-5 4 5 10 7 16 6l9-3 4-3 4-2v2c5-3 6-10 2-14zm0 0" fill="#ae6d3c"/><path d="M224 74l-10 11c-3 3-6 8-7 12 4-9 10-17 18-23h-1zm-3-2l-14 10c-4 4-8 8-10 13 6-9 14-17 24-22v-1zm-4 1v-1c-7 3-13 7-18 12a46 46 0 0 1 18-11zm0 0" fill-rule="evenodd" fill="url(#aj)"/><path d="M237 59s3 4 6 4c4-1 6-7 5-10 0-2-5-1-8 0-3 2-3 6-3 6zm0 0" fill-rule="evenodd" fill="url(#ak)"/><path d="M245 52l-2 2-3 1 2-2 3-1zm0 0" fill-rule="evenodd" fill="url(#al)"/><path d="M243 63c4-1 6-7 5-10 1 2-4 5-7 4l-4 2s3 4 6 4zm0 0" fill-rule="evenodd" fill="url(#am)"/><path d="M212 73s0-2 2-2c0 0-2-1-2 2zm0 0" fill="#e9ba77"/></svg>