<svg xmlns="http://www.w3.org/2000/svg" width="207" height="265" viewBox="0 0 155 199"><path d="M31 199h-1l5-2h1zm0 0" fill="#cd7a32"/><path d="M103 195l10-1h4l-9 1h-5zm0 0" fill="#ae7e41"/><path d="M92 196h-2l13-1h5l-16 1zm21-2l3-1h1v1h-4zm0 0" fill="#a97339"/><path d="M117 189h-1c-3-4-10-11-23-13v-3h-6 2v-14h-6c18-1 33-6 33-6l-4-11h-1l-3 1-2-5 4-2 7-3v3h-1l-5 2 2 5 4-1v12c-5 2-12 4-21 4v15h2v3c9 1 15 5 19 8zm-38-41l-6-1-13-2-12-4v-1c-4-2-8-4-12-8h-1l-9-10-7-13c-3-5-4-10-6-16v-1l-2-16v-3l1-1 2-14h1l-1-1c2-6 5-10 8-15h1l8-9h1v-1l12-9h1l16-8 1 2-12 6-13 9v1h-1l-8 9h1-1c-3 5-6 9-8 15s0 0 0 1c-2 4-3 9-3 14v9c0 5 0 11 2 16l1 3v1l3 7 5 8 1 1 3 5 9 10h1-1c4 4 8 6 13 8v1l12 4 13 2h2l-2 1zm0 0" fill="#c5c5c5"/><path d="M117 190l-1-1h1zm0 0" fill="#ae7e41"/><path d="M87 142h-2l16-3v1l-14 2zm29-6zM68 18l-1-3-1-2 10-3-3-8 5-2 2 6 1 4-9 3 1 4-5 1zM62 3l3-2 2 1-5 1zm0 0" fill="#c5c5c5"/><path d="M84 174h7v-16h-7zm0 0" fill="#946238"/><path d="M82 176h11v-3H82zm0 0" fill="#fecb31"/><path d="M57 192s23 10 61 1c0 0-7-18-32-18-24 1-29 17-29 17zm0 0" fill="#e69522"/><path d="M81 178s-11 3-16 13l-5-2s8-11 21-11zm0 0" fill="#fefefe"/><path d="M116 193h0zm0 0" fill="#a15d28"/><path d="M112 194c-7-15-23-18-31-18l3-1h3c24 0 31 18 31 18h-1-1l-4 1zm0 0" fill="#dd7922"/><path d="M101 139l2 6 5-1-2-8zM64 22L57 3c-1-1 3-3 5-1l6 18zm0 0" fill="#946238"/><path d="M152 56c11 33-10 70-46 82-37 12-75-5-86-38s10-69 46-81c37-12 75 5 86 37zm0 0" fill="#68c5dd"/><path d="M38 119l1-3c0-1-1-4 1-4v-6c0-5 2-11 6-12 4 0 5-3 6-6 0-3 1-6 4-7 4-1 9 0 12-2 2-3 1-6-1-10s0-4 3-9c2-5 0-9-2-13s-6-6-10-4c-4 1-7 0-10-2-2-1-4 0-6 1s-4 3-6 1l-4-1a61 61 0 0 0-12 58c3 10 9 18 16 25l1-1 1-5zm114-63c-6-17-19-30-37-36 3 2 6 7 0 11-7 3-6 5-4 11 2 5 3 13-2 15s-11 7-10 15c1 4 5 1 7 1l5 6c1 4 4 4 6 1 3-3 7-9 10-6 3 2 4 2 5 1h1c2 0 5 4 6 6 0 2-5 5-2 8 2 2 4 2 6 2l3 1c0 3 0 7 3 9 6-14 8-30 3-45zm0 0" fill="#80bd59"/><path d="M65 20l1 5 3 14 2 9 1 5 2 5 2 11 3 11 4 11 3 11a277 277 0 0 0 9 26l1 2 1 2v2l2 5-2-5-1-2v-2l-1-2-3-7-3-9-3-10-4-11-3-11-3-11-3-11-1-5-1-5-2-9-3-14-1-5zm-14 6v5l1 14 1 9 1 10 1 5 1 3v3l2 11 2 5 2 6 1 5 2 5 1 3 1 2 1 2 1 3 2 4 2 4 2 4 2 3 1 3 2 2 3 3v1l-1-1-2-3-1-2-2-3-2-3-2-4-2-4-2-4-1-2-1-3-1-2-1-3-2-5-2-5-1-5-2-6-2-11-1-3v-3l-1-5-2-10v-9l-1-19zm22-9l4 4a191 191 0 0 0 4 5l2 3 3 4 2 4 3 4 2 4 2 6 2 5 2 3v2l1 3 1 3 1 6 3 12v6l2 5v5l1 5v3l1 3v8l1 4v7l-1-7v-4-4l-1-4v-3-2l-1-6v-2l-1-3-1-5-1-6-2-12-1-6-1-3-1-3v-1l-1-1-1-3-2-5-2-5-2-5-3-4-2-4-3-4-2-3-4-5-4-4zM37 37l-1 5-1 12v15l1 3v5l1 5 1 5 1 2 1 3 3 9 2 5 2 4 4 9 1 2 2 2 2 3 2 3 2 3 3 4 3 4-3-4-3-4-4-6-3-3-1-2-1-2-4-8-3-5-1-4-4-10-1-3v-2l-1-5-1-5-1-5v-5l-1-5v-8a218 218 0 0 1 3-17zm0 0M86 15l5 3 10 10 12 17 4 11 1 6 1 6 1 12 1 3v29l-1 8-1 6v0l1-6 1-8v-2-19-5l-1-3v-3l-1-12a3235 3235 0 0 1-2-6l-1-6-4-11a68 68 0 0 0-11-16 58 58 0 0 0-11-10l-4-4zm0 0" fill="#fefefe"/><path d="M105 17l4 2a53 53 0 0 1 22 24l4 11 2 11 1 12v19l-1 2v5l-1 4-3 8v1l-1 2-1 2-1 2v2l-1 1v-1l1-2 1-2 1-2 1-2v-1l2-8 1-4 1-5v-2l1-3V77l-1-12-2-11a57 57 0 0 0-15-26c-4-5-8-7-11-9l-4-2zM20 65v11l1 3 1 2v4l1 2 2 7 1 3 1 3 3 6 3 6 3 6 2 2 1 2 3 4c0 2 1 2 2 3l2 3-2-3c-1-1-2-1-2-3l-3-4-1-2-2-2-3-6-3-6-3-6-1-3-1-3-2-6-1-3-1-4v-2l-1-3V65zm0 0" fill="#fefefe"/><path d="M36 38l4-2 3-1 5-2 2-1 3-1 7-3 6-2 4-1 4-1 7-2h3l4-1 3-1h4l5-1h9l4-1-4 1h-4l-4 1h-6l-4 1h-3l-3 1-4 1-7 1-4 2h-4l-6 3-7 2-3 1-2 1-5 2-3 1a68 68 0 0 1-4 2zM21 61l4-3 12-6 8-3 9-4 10-4 3-1 3-1 5-1 5-2 6-1 5-1 5-2h5l5-1 5-1h8l3-1h6l-6 1h-11l-5 1-5 1-5 1-5 1-5 1-5 1-6 2-5 2h-3l-3 1-10 4-9 4-8 3-12 6-4 3zm-4 22l5-4 13-7 10-5 10-4 12-5 6-2 6-2 6-2 3-1h3l3-1 3-1h3l3-1 3-1h3l6-1 5-1h9l4-1h7-7l-4 1h-9l-5 1-6 1-3 1h-3l-3 1h-3l-3 1-3 1-3 1-3 1-6 1-6 2-6 2-12 5-10 4-9 5-14 7-5 4zm2 14h1l4-2 6-4 9-3 4-2 5-2 6-2 6-2 6-2 6-2 3-1 3-1 6-1 13-4 12-3 12-2 2-1h3l5-1 5-1h4l7-1 6-1-6 1-7 1h-2l-2 1-5 1h-5l-3 1h-2l-12 3-12 2-13 4-6 2h-3l-3 2-6 1-6 2-6 2-6 2-4 2-5 2-9 4-6 3-4 2h-1zm4 11l6-1 15-4 46-12a915 915 0 0 0 24-7l6-2 5-2 5-2 5-1 4-2 4-2 3-1 3-1 2-1 2-1 2-1-2 1-2 1-2 1-3 1-3 2-4 1-4 2-5 2-5 1-5 2-6 2-24 7-46 12-15 4-6 1zm11 14h5l6-1 8-1h5l4-1 3-1h2l5-1 6-1 6-2a151 151 0 0 0 17-4l5-1 5-2 6-2 5-1 5-2 4-2h1l1-1h2l8-4 5-2 5-2-5 2-5 2-8 4h-2l-1 1h-1l-4 2-5 2-5 2-6 1-5 2-5 1-6 2-11 3-6 1-6 1-5 1h-2l-3 1-4 1h-5l-8 1-6 1h-5zm18 13h4l5-1h6l7-1 5-1 4-1 4-1h2l2-1 5-1 4-1 5-1 4-2 8-3 8-3 3-2 3-1 6-3 4-2 4-2-4 2-4 2-6 3-3 2-3 1-8 4-8 2-4 2-5 1-4 1-5 2h-4l-4 2h-4l-5 1-7 1-6 1h-9zm0 0" fill="#fefefe"/><path d="M85 142zm0 0" fill="#79afbb"/><path d="M101 139l4-1-4 1zm0 0" fill="#5e5936"/><path d="M82 142l-16-2-3-4-1-2h5l7-1 3-1 1 3 2 2 2 3 1 1v-1l-3-3-2-2-1-3h6l4-2h4l4-1 1 1v2l1 2 2 5-2-5v-2l-1-2-1-2h1l4-1 5-1 4-2 1 7v5l-4 2h-1l-4 1-16 3h-3zm28-6v-5-7l7-2 3-2-1 6v0l1-6 5-2 3-1 3-2 2-1v2l-1 2-1 2-1 2-1 2v1l1-1v-2l1-2 1-2 1-2v-1l1-1 3-2 4-2 4-2-4 2-4 2-3 2 2-7v-3c4-2 7-6 10-9l3 6c-8 15-21 28-39 35zm0 0" fill="#3db9d8"/><path d="M149 101l-3-6 1-2h1l5-2-5 2h-1c5-7 8-15 8-25 1 11-1 23-6 33zm0 0" fill="#51ab54"/><path d="M99 139l-2-5-1-2v-2l-1-1v-1l1 2 1 2v2l2 5zm-16 2zm0 0l-1-1-2-3-1-2-2-3 2 3 1 2 3 3v1zm27-5v-5l-1-7h1v12zm0 0" fill="#a0d7e8"/><path d="M66 140l-14-5h9l1-1 1 2 3 4zm-14-5a67 67 0 0 1-16-10l1-1v-2h2l3 4c0 2 1 2 2 3a68 68 0 0 1 2 3l-2-3c-1-1-2-1-2-3l-3-4 6-1 7-1v1l1 2 3 3 4 6 2 2h-1l-5 1h-4zm-17-11zm0 0zm-1-1zm3-1l1-2v2h-1zm0 0" fill="#3db9d8"/><path d="M36 125l-1-1-1-1c-4-4-8-9-11-15l6-1h1l3 5 3 6 2 2-1 2h-3 3v2l-1 1zm0 0" fill="#51ab54"/><path d="M62 134l-2-2-2-3-2-3-2-3-2-2v-1h6l4-1 3-1h1l4 1 1 2 2 4 2 4 2 3-3 1-7 1h-5zm15-2l-2-3-2-4-2-4-1-1 16 1h6l3 7-4 1-2 1h-2l-4 1-5 1h-1zm18-4l-2-7h-1l17-3v6l-4 2-5 1-4 1h-1zm15-4l-1-4v-2l12-4-1 6-3 1-7 3zm0 0" fill="#3db9d8"/><path d="M95 128l-3-7h1l2 7zm-18 4h-1l-1-3-2-4-2-4-1-2v1l1 1 2 4 2 4 2 3zm32-8v-4-2 2l1 4h-1zm0 0" fill="#a0d7e8"/><path d="M39 122l-1-2v-1l1-3c0-1-1-4 1-4v-8l6 5 1 2 4 8 1 1-7 1-6 1zm0 0" fill="#3db9d8"/><path d="M38 120l-2-2-3-6-3-5 10-3v8c-2 0-1 3-1 4l-1 3v1zm0 0" fill="#51ab54"/><path d="M52 120l-1-1-4-9-1-1c6 4 12 7 19 9l-3 1-4 1h-5-1zm68 0l1-6 15-9-1 2-2 7-2 1-3 1-3 2-5 2zm0 0" fill="#3db9d8"/><path d="M66 140l-3-4-1-2 1 2 3 4zm-4-6l-2-2-4-6-3-3-1-2v-1 1l2 2 2 3 2 3 2 3 2 2zm-10-14l-1-1a84 84 0 0 1-5-10l1 1 4 9 1 1zm67 12v-6l1-6-1 6v6zm1-12l1-6-1 6zm-74 12l-2-3c-1-1-2-1-2-3l-3-4h-1 1l3 4c0 2 1 2 2 3l2 3zm-8-10v-2l-2-2-3-6-3-5 3 5 3 6 2 2 1 2h-1zm0 0" fill="#a0d7e8"/><path d="M20 101zm0-1zm0 0zm0 0zm0 0zm0 0zm0 0zm0 0zm0 0zm0-1zm0 0zm0 0" fill="#3db9d8"/><path d="M23 108l-3-7v-2l-1-2h1l4-2 1-1 1 3 1 3 3 6v1h-1l-6 1zm0 0" fill="#51ab54"/><path d="M40 104zm0 0" fill="#3db9d8"/><path d="M30 107v-1l-3-6-1-3-1-3 5-2 10 12-10 3zm0 0" fill="#51ab54"/><path d="M30 107v-1l-3-6-1-3-1-3 1 3 1 3 3 6v1zm0 0" fill="#a0d7e8"/><path d="M18 70zm0 0zm0 0" fill="#3db9d8"/><path d="M19 97c-3-9-3-18-1-27l4-13v3l-1 1 1-1c0 5 0 11 2 18l-2 1-1 1v-1l-1-3v-5-6 11l1 3v1l-4 3 4-3v1l1 4 1 3 2 6-1 1-4 2h-1zm6-3l-2-7-1-2v-4l-1-1 1-1 2-1 6 14-5 2zm0 0" fill="#51ab54"/><path d="M25 94l-2-6-1-3-1-4v-1l1 1v4l1 2 2 7zm-4-14v-1l-1-3V65v11l1 3v1zm0-19l1-1-1 1zm0 0" fill="#a0d7e8"/><path d="M17 83l4-3 1-1 2-1-2 1-1 1-4 3zm2 14h1l4-2 1-1 5-2-5 2-1 1-4 2h-1zm4 11l6-1h1l10-3-10 3h-1l-6 1zm11 14h5l6-1 7-1h6l4-1 3-1h1-1l-3 1-4 1h-6l-7 1-6 1h-5zm113-29h1l5-2-5 2h-1zm-95 42h4l5-1h6l7-1 3-1h1l5-1 4-1h2l2-1 4-1h1l4-1 5-1 4-2h1l7-3 3-1 5-2 3-2 3-1 2-1h1l3-2 4-2 4-2-4 2-4 2-3 2h-1l-2 1-3 2-3 1-5 2-3 2-7 2h-1l-4 2-5 1-4 1h-1v1l-4 1h-4l-4 2h-6l-3 1-7 1h-5l-1 1h-9zm0 0" fill="#a0d7e8"/><path d="M76 10S-2 26 13 93c11 42 45 66 99 49l4 11s-61 23-96-21C-11 93-15 26 72 0zm0 0" fill="#fecb31"/><path d="M102 148l-1-4 2 4h-1zm-13 2h-1v-3-1l1 1v3zm-16 1v-3-1 4zm-14-3l1-3v1l-1 2zm-13-5l2-2v-1 1l-1 2zm-12-8v-1l2-2-2 2zm-10-11l2-2zm-8-13h-1 1l3-2v1l-3 1zM8 93v-1h5zm3-20l-3-1-1-1h1l3 1h1l-1 1zm3-15l-4-2h1l3 1 1 1zm9-16l-4-2h1l3 2zm8-9l-3-3v-1h1l3 3v1zm14-10h-1l-1-3 2 3zm17-8h-1l-1-4v-1 1l2 3v1zm0 0" fill="#946238"/><path d="M82 147h-1 7-6zm0 0" fill="#fecb31"/><path d="M79 148l2-1h1l-3 1zm0 0" fill="#c39d2c"/><path d="M89 147l12-2-12 2zm12-3h2-2zm0 0" fill="#fecb31"/><path d="M108 143l3-1-3 1zm0 0" fill="#c39d2c"/><path d="M103 144l5-1-5 1zm0 0" fill="#935225"/><path d="M81 154c-51 0-74-44-75-76-1-40 33-59 54-67l1 4h1-1l-16 8-2-3 1 3-12 9-3-3h-1v1l3 3-8 8-3-1h-1l3 2c-3 5-6 9-8 15l-3-1v-1l-1 1 4 2-2 14h-1l-3-1H7l1 1 3 1v3l2 16H8v1l5-1v1c2 6 3 11 6 16l-3 2h-1 1l3-1v-1l7 13-2 2 2-2 9 10-1 2v1-1l2-2c4 4 8 6 12 8v1l-2 2h1l1-2 12 4-1 3c-1 0 0 0 0 0l1-2v-1l13 2v4-4l6 1 3-1h6v3h1v-3l12-2 1 3h1l-2-4h2l5-1 3-1h1l2 6c-12 4-23 6-33 6zm0 0" fill="#f6a227"/><path d="M102 148l-1-3v-1l2 4h-1zm-13 2h-1v-3h1v3zm-16 1v-4 4zm-14-3l1-3v1l-1 2zm-13-5l2-2v-1 1l-1 2zm-12-8v-1l1-2h1l-2 2zm-10-11l2-2zm-8-13h-1 1l3-2v1l-3 1zM8 93v-1h5zm3-20l-3-1-1-1h1l3 1h1l-1 1zm3-15l-4-2 1-1v1l3 1v1zm8-16l-3-2h1l3 2h-1zm9-9l-3-3v-1h1l3 3-1 1zm13-10l-1-3 2 3h-1zm0 0" fill="#935225"/><path d="M62 14l-2-3 15-5 1 4-14 4zm0 0" fill="#f6a227"/><path d="M62 15h-1l-1-4 2 3v1zm0 0" fill="#935225"/></svg>