<svg xmlns="http://www.w3.org/2000/svg" width="261" height="267" viewBox="0 0 196 200"><path d="M188 135c-19-19-42 10-42 49a209 209 0 0 1-2 8c-1 4 0 8 5 8h33c0-9-12-12-16-13 10-6 46-29 22-52zM8 135c19-19 42 10 42 49l2 8c1 4 0 8-5 8H14c0-9 11-12 16-13-10-6-46-29-22-52zm0 0" fill="#9fb945"/><path d="M165 68c0 26-30 47-67 47S31 94 31 68s30-48 67-48 67 22 67 48zm0 0" fill="#afcc49"/><path d="M94 25a30 30 0 1 1-58 8 30 30 0 0 1 58-8zm0 0" fill="#afcc49"/><path d="M83 27c2 10-6 19-15 21a18 18 0 1 1 15-21zm0 0" fill="#fefefe"/><path d="M73 27c1 6-4 12-10 13a12 12 0 0 1-13-10 12 12 0 0 1 23-3zm0 0" fill="#3c3733"/><path d="M63 25c0 2-2 4-4 4-3 1-5-1-5-3a4 4 0 0 1 4-5c2 0 4 1 5 4zm0 0" fill="#fefefe"/><path d="M160 33a29 29 0 1 1-58-7 29 29 0 0 1 58 7zm0 0" fill="#afcc49"/><path d="M149 32a18 18 0 1 1-36-5 18 18 0 1 1 36 5zm0 0" fill="#fefefe"/><path d="M140 29c-1 6-7 11-13 10a12 12 0 1 1 13-10zm0 0" fill="#3c3733"/><path d="M130 24a4 4 0 1 1-4-5c2 1 4 3 4 5zm0 0" fill="#fefefe"/><path d="M153 140c0 30-25 54-55 54s-55-24-55-54 25-54 55-54 55 24 55 54zm0 0" fill="#afcc49"/><path d="M147 183c1-1 6-10 10-27 5-26-7-47-12-55h-29c23 31 11 69 5 89-2 4 0 10 6 10h42c0-13-20-17-22-17zm-67-82H51c-5 8-17 29-12 55 4 17 9 26 10 27-2 0-22 4-22 17h42c6 0 8-6 6-10-6-20-18-58 5-89zm0 0" fill="#afcc49"/><path d="M129 148c0 20-14 36-31 36s-31-16-31-36c0-19 14-35 31-35s31 16 31 35zm0 0" fill="#ccda72"/><path d="M49 70a114 114 0 0 0 36 16 68 68 0 0 0 39-3c8-3 16-8 23-14a1 1 0 0 1 1 0v1a68 68 0 0 1-36 22l-14 1a80 80 0 0 1-14-2l-13-5a87 87 0 0 1-12-6l-11-9a1 1 0 0 1 0-1 1 1 0 0 1 1 0zm0 0" fill="#778b38"/></svg>