<svg xmlns="http://www.w3.org/2000/svg" width="267" height="267" viewBox="0 0 200 200"><path d="M40 0C3 33-24 132 35 200h133s73-96-1-200zm0 0" fill="#98591d"/><path d="M108 16c8 9 6 25 6 32-4 37-34 62-44 70-11 9-28 20-53 28-4-11-12-37-7-70 5-35 23-59 32-68 7-1 18-3 33-2 14 2 25 2 33 10zm0 0" fill="#ab6726"/><path d="M35 200h133s73-96-1-200h-53l16 13c38 41 26 115-22 146-31 18-67 17-98 1 6 15 14 27 25 40zm0 0" fill="#824c19"/><path d="M166 197h-3l7-18c-3 6-8 13-13 18h-6s22-43 23-99c0-47-25-96-25-96h10c7 12 13 31 18 47 0-10-8-31-14-47 0 0 32 33 32 98 1 52-29 97-29 97zm-35 0l4-43-9 43h-4s8-52 9-97c0-45-9-98-9-98h15l9 24s-2-15-5-24h5s22 54 23 98c1 47-21 97-21 97zm-28 0l-3-23s-3 15-2 23H83s-9-53-10-97C73 56 86 2 86 2h13c-2 13-3 37-2 59l7-59h15s8 65 8 98c0 35-8 97-8 97zm-28 0c-5-8-9-20-9-20s1 15 4 20H59c-4-8-6-20-8-32-2 7 2 22 4 32h-2s-21-47-22-96C29 51 59 2 59 2h6c-2 5-6 22-6 29 1-3 6-19 11-29h13s-15 42-14 98c1 57 11 97 11 97zm-29 0c-4-5-11-14-19-28 3 9 8 20 13 28h-3S1 163 4 99C5 39 43 2 43 2h14s-31 43-31 99c0 48 23 96 23 96zM167 0H40C3 33-24 132 35 200h133s73-96-1-200zm0 0" fill="#663c14"/><path d="M119 70c-3 16-3 52-1 63 1-11 6-29 1-63zm-73 82c-6-27-1-53-1-53-1 18 3 55 3 55zM29 47c-8 21-12 56-10 76-6-28 0-84 26-119-8 16-16 43-16 43zm0 0" fill="#824c19"/><path d="M185 91c1 16-1 47-10 61l10-61zm-43-37c5 23 1 66 0 75 5-18 11-42 0-75zm0 0" fill="#663c14"/><path d="M15 34c0-3 82 3 170-5 6 7 14 31 11 33-15 3-162 5-191 0-3 0 7-24 10-28zM3 136c-6-1 7 37 12 37 19 3 148 1 170-2 5-5 14-28 10-28-5 0-148 1-192-7zm0 0" fill="gray"/><path d="M153 61c-2-12-7-20-12-29-70 3-126 0-126 2-3 3-9 17-10 24 22 5 142 4 148 3zM96 171c7-1 26-19 30-28-45 0-99-2-123-7-4 0 3 25 8 34 19 3 64 3 85 1zm0 0" fill="#a7a7a7"/><path d="M195 143h-15c-2 10-7 20-13 29l18-1c5-5 14-28 10-28zm1-81c3-2-5-26-11-33l-13 1c5 10 9 21 12 32h12zM16 165c-3 0-7-3-8-7-2-5 1-13 5-13 3-1 7 4 8 8 0 4 0 11-5 12zm12-6c0-5 5-11 9-10 5 0 7 4 7 7 1 5-1 11-7 12-4 0-8-4-9-9zm26 2c-2-5 3-12 8-12 4 0 8 4 8 8 1 4-1 11-6 12s-10-4-10-8zm23-1c-1-6 6-11 12-11 4 1 8 5 8 10 0 6-5 10-10 10s-9-4-10-9zm55-2c0-4 2-9 6-9 5-2 11 3 11 8 0 6-5 11-10 10-4-1-7-5-7-9zm0 0" fill="#757575"/><path d="M155 156c0-4 4-9 8-8 5 0 10 5 9 10-1 4-4 9-9 9-5-1-9-6-8-11zm22 0c1-3 4-8 7-8 4 1 8 7 6 13-1 4-5 6-9 5-3-1-4-7-4-10zm0 0" fill="#666"/><path d="M106 157c0-4 4-8 9-8s9 5 9 9c1 5-4 9-9 10-6 0-10-5-9-11zm0 0" fill="#757575"/><path d="M12 147c3 0 4 3 4 7s-2 7-5 7c-1-1-3-4-3-7 1-4 2-7 4-7zm20 16c-2-1-2-6 0-9 0-3 4-5 6-4s2 5 0 9c-1 2-5 5-6 4zm25 2c-2-1-3-6-2-9 1-2 4-6 6-5 3 1 3 5 3 8-1 3-5 6-7 6zm24 0c-1-1-2-6-1-9 1-4 8-7 11-4 1 1 0 5-2 7-2 3-5 6-8 6zm27-2c2 1 6-4 6-5 1-1 5-5 3-7-1-2-6-1-8 3-2 3-2 8-1 9zm29 2c-2 0-5-6-2-10 1-4 6-6 7-5s-1 3-3 7l-2 8zm0 0" fill="#a7a7a7"/><path d="M160 165c-1 0-5-6-3-11 2-4 8-5 9-4s-3 3-5 7 0 8-1 8zm21 0c-1 0-4-5-2-10 0-2 4-6 6-6l4 5h-5c-4 1-2 11-3 11zm0 0" fill="gray"/><path d="M16 35c2 0 96 5 169-6-88 8-170 2-170 5-3 4-13 28-10 28l3-9s7-17 8-18zm0 0" fill="#dedede"/><path d="M16 55c-3-1-5-6-4-10 0-6 7-11 10-10 4 1 4 6 4 11-1 4-5 10-10 9zm15-9c0-5 6-10 12-8 3 2 4 6 4 9-1 5-5 11-10 10-5 0-7-6-6-11zm23 3c0-6 6-11 11-9 5 1 6 6 6 10-1 4-5 9-10 9-4-1-7-6-7-10zm23 2c0-6 6-12 13-11 4 1 8 5 7 9 0 6-5 10-10 10-5-1-9-4-10-8zm52-4c0-3 2-8 6-9 5-1 11 3 11 9 0 5-5 10-10 10-4 0-7-6-7-10zm0 0" fill="#757575"/><path d="M152 47c0-5 3-10 8-11s9 5 9 10c1 4-2 9-6 10-6 1-10-5-11-9zm24-1c-1-5 0-10 3-11 4-1 11 5 10 11 0 3-3 7-6 7-4 0-7-4-7-7zm0 0" fill="#666"/><path d="M104 47c1-4 4-8 10-8 5 0 9 5 9 9 0 5-4 10-9 10-6 0-10-5-10-11zm0 0" fill="#757575"/><path d="M21 36v8c-1 3-6 6-7 5-2-1-2-5 0-8 1-3 5-6 7-5zm11 15c-1-1 0-6 2-9 3-2 6-3 8-2 1 1 1 6-2 9-2 2-6 3-8 2zm24 2c-2-2-1-6 1-8 2-3 6-4 8-4 1 2 0 6-1 8-2 3-5 5-8 4zm26 2c-2-2-3-5-2-9s9-6 11-5c1 2 1 6-1 9-2 2-5 6-8 5zm26-2c1 1 4-3 5-4 1-2 4-6 3-8-2-1-6 0-8 3-3 3-2 8 0 9zm26 2c-1 0-4-6-3-10 2-4 8-6 9-5l-5 6-1 9zm0 0" fill="#a7a7a7"/><path d="M159 54c-1 1-6-4-5-9 2-5 8-7 9-6 0 1-3 2-4 7v8zm23-2c-1 1-5-3-5-8-1-3 1-7 3-8 3 0 5 2 5 3s-3 0-5 2 4 10 2 11zm0 0" fill="gray"/><path d="M152 143c-47 0-120-1-149-7-3 0-1 7 1 15v-11c1-2 72 9 148 3zm0 0" fill="#dedede"/><path d="M12 148l-3 4c0 3 0 5 1 4 0 0 5-7 2-8zm20 11v-5c2-3 5-4 5-4 1 1-5 10-5 9zm24 3v-5c1-3 4-5 4-5 2 1-2 11-4 10zm25 1v-7c2-4 8-5 8-5l-7 5-1 7zm27-4l1-5 5-3-3 4-3 4zm30-118s-4 1-6 5v6c1 0-1-3 1-6 2-4 5-5 5-5zm-24 0s-4 1-6 4c-2 2-1 6-1 6l3-5 4-5zm-24 1c0-1-5-1-8 3-2 3-1 8-1 8l3-7c2-3 6-4 6-4zm-27 0c-1-1-4 0-5 3-2 2-3 6-2 6s8-8 7-9zm-21-1c-1-1-5 0-7 2-3 2-3 6-2 6 2 2 10-7 9-8zm-22-4c-1-1-5 2-6 6v4c1 1 3-2 4-4s3-5 2-6zm0 0" fill="#dedede"/></svg>