<svg xmlns="http://www.w3.org/2000/svg" width="333" height="267" viewBox="0 0 250 200"><g fill-rule="evenodd"><path d="M3 160L220 2c2-1 4-1 5 1l23 32c1 1 1 3-1 5L30 198c-1 1-4 0-5-1L2 165c-1-2-1-4 1-5zm15 14h5c1 2 0 4-1 5s-3 0-4-1v-4zM228 21c2-1 3-1 4 1v4c-2 1-4 1-5-1-1-1 0-3 1-4zm0 0" fill="#af6e2a"/><path d="M105 90l2-1-7 4 5-3zM3 160l2-1c6-4 13-8 19-14l-5 4c-5 5-11 9-17 12l1-1zm22-16l2-1-3 3 1-2zm18-13l4-3-3 4-9 5-4 3-4 3-15 13 12-10 8-7 8-6 3-2zm15-11l1-1 7-4-11 8-9 9-4 4-5 3-5 4-6 4c-7 7-15 13-24 18l23-17 4-4 5-3 5-4 5-4 14-13zm11-8l8-6c4-2 7-4 11-9l-4 5-15 10zm30-23l4-3 2-1 8-4zm10-7l2-2 5-3 12-8-6 4-6 4-5 4-2 1zm27-19l11-8 7-5-14 11-4 2zm29-21h1l17-10 5-3 5-4 5-3 5-4c8-4 15-9 22-15-7 7-15 12-23 17a2590 2590 0 0 0-11 7l-5 4-5 3-11 5-11 8 6-5zm12-9l4-2 3-2 8-6 9-6 13-8-16 10-4 3-4 3-9 6-4 2zm20-14l2-1 2-1-4 2zm22-16l1-1h1l-15 12-6 2c8-3 14-8 19-13zm3-2l-8 8c-5 3-2 1 2-2l6-6zm2 1l-17 13 7-5 10-8zm2 2v1l-11 8 5-4s4-2 6-5zm1 1v1l-4 3-2 2zm1 1v1l-2 1c-2 2-2 1 0 0zm1 2v1l-7 6 7-7zm2 3l-9 9c-6 3-3 1 1-2l8-7zm1 1c-7 7-14 13-23 16l-7 4 8-5c9-3 16-8 22-15zm1 1v1c-5 5-11 10-18 14l-10 5-7 5 8-6c10-5 19-11 27-19zm2 4l-4 4-1-1 5-3zm-8 6l-2 1 2-1zm9-5l-2 2-2 1h-1l3-2 2-1zm-9 6c-5 4-7 5 0 0zm13 0v1l-4 3-2 3zm1 1c-7 8-14 14-24 18-3 1-6 2-7 4 2-3 5-4 8-6 9-3 17-9 23-16zm0 0l1 1-4 4c-3 2-2 1-1 0l4-5zm1 1v1c-5 6-12 11-19 15l-11 6-6 5c2-3 5-6 8-7 11-4 20-12 28-20zm3 4l-17 14-5 3 22-17zm0 1l-9 8c-5 3-2 1 2-2l7-6zm2 2c-7 7-15 12-23 17l-6 4-5 3-5 4-5 3c-4 1-8 3-11 6l-11 8c6-7 15-12 24-15l6-4 5-4 4-3 5-3 22-16zm2 4v1c-3 2-3 1-1 0zm-47 36l-2 1-4 2-8 7-2 1c5-5 10-8 16-11zm-28 20l-3 2 3-2zm-31 23l-1 1c-11 6-24 12-32 23l-6 4-3 2 7-5 8-9c7-7 18-12 27-16zm-5 4l-1 1-4 2c-2 0-2 1 1-1l4-2zm-3 2l-1 1-14 9-3 3c5-6 12-10 18-13zm-43 31l-1 1c-4 1-7 3-9 6l-3 2-3 2 16-11zm-64 45h-1l3-1h-1l-1 1zm-4-3c8-4 15-10 22-16l5-4 5-3 5-4 5-4a65 65 0 0 1 11-11l-9 9-5 4-5 4-5 4-5 4c-7 6-15 13-24 17zm-2-2l9-6c5-3 8-5 3-1l-12 7zm0-1c8-5 16-9 23-16a3881 3881 0 0 0-4 4c-6 5-12 9-19 12zm-3-3v-1c11-5 21-11 29-21 2-3 5-4 9-6l-7 5-9 8c-6 6-14 11-22 15zm0-1l-1-1 7-3c2-1 2-1 0 1l-6 3zm-1-1c9-4 17-9 24-17l7-7-6 6c-6 8-15 14-25 18zm-1-1v-1l10-4-3 2-5 2-2 1zm-4-6l3-3h1l-1 1-3 2zm9-7c9-6 6-4 0 0zm-10 6l5-4v1l-5 3zm8-6h1c5-5 8-7 3-2l-3 2h-1zm-10 3v-1c10-5 19-11 26-20l9-6-7 5-8 8c-6 6-13 10-20 14zm-1-2c8-4 16-9 21-16l8-7-6 6c-6 8-14 13-23 17zm-1-1l10-6c4-3 7-5 2-1l-12 7zm-2-2v-1l9-5-9 6zm-1-2v-1l3-2-1 1-2 2zm-1-1v-1l9-4-3 2-5 2-1 1zm-1-1l8-6 5-3-13 9zm-1-3l12-8 6-5-18 13zm0-2v-1l8-4c4-3 7-5 2-1l-10 6zm99-71l-4 3-12 9-5 4 11-10 10-6zm-11 10l9-7-9 7zm0 3c5-3 1 0-2 2l2-2zm11-11l2-1c-12 7-21 20-33 27 10-7 18-16 27-23l4-3zm0 4h2c-9 2-15 12-23 16l15-12 6-4zm-2 0l-4 2c-6 5 0 0 4-2zm-8 4l-18 15 12-12 6-3zm-38 25c3-2 2-1 0 0-3 2-1 1 0 0zm9-5c3-2 3-1 1 0l-6 5h-1l6-5zm2 2l3-2-14 11c2-2 4-5 7-6l4-3zm4-2c3-2 1-1 0 0-4 3-2 1 0 0zm21-12c-3 1-6 4-8 7-7 10-17 16-27 20 11-4 22-11 29-21l6-6zm-71 64l5-4-5 4zm26-19a2764 2764 0 0 0-15 12c-5 4-2 2 3-1l12-11zm-2 5c19-16 9-7 0 0-19 15-9 7 0 0zm-13 12c2-2 2-2 0 0l-6 4 6-4zm8-3l-14 10h-1l15-10zm8-7l-8 7 6-5 2-2zm-22-10l-2 2a163 163 0 0 1 2-2zm-2 4c19-14 9-6 0 1-19 14-10 6 0-1zm3 3l-8 6 6-4 2-2zm45-35l3-2c-9 5-16 11-23 18l-5 4-10 7-9 7 5-4 17-12 6-5 7-7 9-6zm-23 12a493 493 0 0 0 1-1l-6 5-11 8 5-4 6-4 5-4zm-8 7c5-4 0-1-3 1-4 4 1 1 3-1zm1-5c3-2 2-2 0-1l-6 4c-2 2-2 2 0 1l6-4zm10 32l9-6-9 6zm-9-20l7-5-7 5zm15 5l3-2c-2 0-4 2-3 2zm6 13c2-2 2-2 0-1l-6 5c-2 2-2 2 0 0l6-4zm-1 5l-3 2 3-2zm8-6c2-3 2-3 0-1l-5 4-12 8c-4 4 2-1 6-3l6-4 5-4zm-25 20c19-15 9-7 0 0-20 14-10 7 0 0zm2-5l-2 2-13 10c-5 3-2 1 2-2l13-10zm1-5l2-3-2 3zm2-3l3-2c-2 0-4 2-3 2zm30-24l-8 8-8 7-8 6-8 6-12 10c6-3 10-8 15-12l4-3 4-3 9-6 8-9 4-4zm-51 31c3-2 1-1 0 0-4 2-2 1 0 0zm12-8l2-3-2 3zm45-55l8-5-8 5zm12 5h1l-6 5h-1l6-5zm-5-1c4-2 0 1-2 3-5 3-1 0 2-3zm9-5h1l-7 4-11 8 6-4 5-4 6-4zm18-19l2-2c-6 8-14 13-23 17l-5 4-10 7-10 7 6-4 16-13 6-3 10-5 8-8zm-47 33l-8 6 5-4 3-2zm-9 6l-14 12 14-12zm-5 7c3-2 2-1 1 0l-6 5c-2 2-2 2-1 0l6-5zm16-9c20-14 9-7-1 0-19 14-9 7 1 0zm5-1l-3 2-13 9 2-2 14-9zm-24 18l3-2c-1 2-4 3-3 2zm29-17l3-2c-1 2-4 3-3 2zm4-1l3-2-3 2zm31-21l-9 5-9 5-8 6a12080 12080 0 0 1-9 6l-13 8c4-4 10-7 16-10l4-3 4-3 8-6 12-6 4-2zm-35 23c-12 6-20 15-29 24 7-8 14-16 24-21l5-3zm-13 7c5-3 2-1-2 2l-11 11c-4 3-2 1 1-2l12-11zm3 9c3-3 2-1 0 0-3 3-1 1 0 0zm-4 2l3-3-11 13 5-6 3-4zm27-19c-2 3-5 5-8 6-12 4-20 12-27 21 7-10 16-18 28-22l7-5zm-12 8l4-1-4 1zm-16 9c2-2 2-1 1 0l-6 6c-2 2-2 2 0 0l5-6zm-9 7c3-3 2-1 1 0-3 3-2 1-1 0zm41-30c-2 3-5 6-8 7-14 6-24 15-34 26 7-9 15-17 25-22l10-6 7-5zm26-24c-8 6-17 11-25 15l-6 3-5 4-4 3-6 4c-9 6-19 12-27 21 8-10 19-17 29-23l5-3 6-4 5-4 5-3 11-5 11-8zm-24 35l2-1-7 4 5-3zm-4 2l-4 3-12 8-5 4 11-9c3-3 7-5 10-6zm-11 8l9-6c-4 4-11 8-9 6zm0 3l-3 3 3-3zm11-9l2-1c-12 7-21 18-33 25 10-6 18-15 27-21l4-3zm0 4l2-1c-9 3-15 11-23 16l15-12 6-3zm-2-1c6-3 0 0-4 3l4-3zm-8 3l-18 16c4-4 7-9 12-12l6-4zm-37 6l-19 14 19-14zm2-22l-32 24 22-16 10-8zm-33 26c19-14 9-6 0 1-20 14-10 6 0-1zm10-4c20-15 10-6 0 1-19 14-10 6 0-1zm44-33l2-1c-9 2-14 10-21 14l13-11 6-2zm-22 24l-4 3-16 13 3-2 17-14zm-17 35c5-3 1 0-2 3-4 4 0 0 2-3zm9-7l-4 3 4-3zm9-15h2c-9 2-15 11-23 15l15-11 6-4zm-28 21zm56-42l2-1c-12 7-21 19-33 26 9-6 18-15 27-22l4-3zm-16-6h2c-10 3-15 11-23 16l14-12 7-4zm25-12l-29 21c5-5 12-11 19-15l10-6zm-13-12l4-3-15 15 7-8 4-4zm-17 13l-3 3 3-3zm8-6l-4 3 4-3zm-12 13l3-3-13 12 6-6 4-3zm66-51l-1 1 7-5-6 4zm4-3l4-3 11-9a4811 4811 0 0 1-6 4l-9 8zm12-8l-9 7 9-7zm3 1l3-2-3 2zm-13 8l-1 1c10-9 23-14 34-24-9 8-20 13-29 19l-4 4zm4 1l-1 2c5-9 15-11 22-18l-16 11-5 5zm0-3c-5 5 0 1 4-2 6-5 0-1-4 2zm5-6c7-4 13-9 20-12l-14 7-6 5zm36-28c-3 2-1 1 0 0 3-2 2-2 0 0zm-7 7l-1 1 7-5c2-2 2-1 0 0-2 0-4 2-6 4zm1 2c-2 0-2 1-3 2l15-10-8 5-4 3zm-3 3c-3 3-1 1 0 0 3-3 2-1 0 0zm-18 16c2-2 5-4 9-5 11-4 20-11 28-20-8 10-18 18-30 21l-7 4zm83-48c-3 3-7 6-6 4l6-4zm-26 20c-6 2-3 1 2-2l14-9c5-3 2-1-2 2l-14 9zm5-1c-21 13-10 7 0 0 20-13 10-7 0 0zm16-9l-1 1 5-4-4 3zm-6 7l13-10h1l1-1-15 11zm-9 6l9-5-6 3-3 2zm-3-24c-5 3-3 1 2-2l14-9-2 2-14 9zm5-1c-20 14-9 7 0 0 20-14 10-7 0 0zm1 4l9-6-6 4-3 2zm-47 32l-2 2c7-7 15-12 24-16l5-4 10-7 10-7-6 4-17 13a4319 4319 0 0 0-6 3l-9 5-9 7zm19-18h-1l6-4 11-8-5 4-6 4-5 4zm9-6c-5 3-1 0 2-2l-2 2zm-5-1l-1 1 6-5c3-2 2-1 1 0l-6 4zm28 20l-9 6 9-6zm-17-14l-7 5 7-5zm0 15l-3 2 3-2zm11 10h-1l6-5h1l-6 5zm5 1c-5 3-1 0 2-3 5-3 1 1-2 3zm-9 5h-1l6-4 11-8-5 4-5 4-6 4zm27-18c-20 14-9 7 1 0 19-14 9-7-1 0zm-5 1l3-2a93 93 0 0 0 11-7l-14 9zm-5-1l-4 2 4-2zm-4 1c-1 2-3 3-3 2l3-2zm-31 22c2-3 6-5 9-6l9-5 8-6 9-6 13-8c-5 5-11 7-16 10l-4 3-4 3-8 7-12 5-4 3zm45-40c-3 3-2 1 0 0 3-2 1-1 0 0zm-11 9l-4 1 4-1zm-67 26l-7 6 7-6zm1 13c-2 2-1 2 0 1l6-4 1-1-7 4zm1-5c-4 4 0 1 3-1 4-4 0-1-3 1zm-8 7c-2 2-1 2 0 1l6-5 11-8-6 4-5 4-6 4zm-23 12l-3 1c10-4 17-10 23-17l6-4 10-7 9-7-6 4-17 12-5 4-7 8-10 6zm45-35l9-6-6 4-3 2zm9-7l15-9-15 9zm8-2c-2 2-2 1 0 0l7-3c2-2 2-2 0-1l-7 4zm-13 12c-20 14-10 6 0-1 19-14 9-6 0 1zm-3 4c-4 4-2 2 3-2 4-4 10-8 13-9 5-3 2-2-3 1l-13 10zm25-17l-3 2c2 0 4-2 3-2zm-25 22l-3 3 3-3zm-3 4l-7 5 7-5zm-30 23l9-7 7-7 8-6 8-7 12-10-15 12-4 3-4 3-8 6-9 10-4 3zm34-26c9-9 20-15 31-21-9 5-19 9-27 17l-4 4zm10-11c-4 4-2 2 3-1a206 206 0 0 1 11-6l-14 7zm7 6c-3 2-1 1 1 0 3-2 1-1-1 0zm4-3l-4 2 16-7-8 3-4 2zm-26 20l8-6c7-10 17-15 28-20-12 5-23 11-30 21l-6 5zm11-9c-2 1-3 4-2 3l2-3zm14-12h-1l7-3c3-2 3-1 1-1l-7 4zm9-6c-4 1-2 1 0 0 3-2 1-1 0 0zm-41 29l9-6c9-11 22-18 35-24-10 4-21 9-29 17l-8 8-7 5zm-31 17c8-5 15-12 21-20l6-3 5-4 4-4 5-3a131 131 0 0 1-2 1l-5 4-5 3-5 4-5 4-8 9-11 9zm41-12l-2 1 6-5-4 4zm2-3l4-3 12-9 5-3-12 7-9 8zm12-8l-9 7 9-7zm3 1l3-2-3 2zm-13 8l-1 1c10-9 24-14 34-23l-29 19-4 3zm4 1l-1 2c5-9 15-11 22-18l-16 11-5 5zm0-2l4-3-4 3zm5-7l21-12c-5 2-11 4-15 7l-6 5zm18-33l19-15-19 15zm-22-6l32-22a384 384 0 0 1-32 22zm35-23c-20 14-9 7 1 0 19-14 9-7-1 0zm-7 9c-20 14-9 7 0 0 20-14 9-7 0 0zm-46 31v2c4-8 13-10 19-16l-14 9-5 5zm31-13a208 208 0 0 0 18-12l-18 12zm38-5l4-2-4 2zm-9 6l4-3-4 3zm-17 4l-1 2c5-9 15-11 22-18l-16 11-5 5zm28-20l-10 8 10-8zm-57 40l-1 2c10-10 24-15 34-24l-29 19-4 3zm-1-17l-1 1c6-8 16-10 23-16a86 86 0 0 0-22 15zm-19 20zm-7-16l-4 2 18-9-9 4-5 3zm18-13c-5 3 0 1 3-1 5-3 0-1-3 1zm-9 6c-6 5 0 1 4-2 6-5 0-1-4 2zm16-8l-3 3 15-9-8 4-4 2zm-34 70l-3 2c1-2 4-3 3-2zm-44 29c-2 2-2 1 0 0l6-4 1-1-7 5zm1-5l3-2-3 2zm18-14c-20 15-10 7 0 0 20-15 10-7 0 0zm-3 4c-4 5-2 3 3-1l14-10c5-3 2-2-3 1-6 3-12 8-14 10zm26-16l-3 2 3-2zm-26 22l-3 3 3-3zm-3 3l-2 2 2-2zm4-3c9-9 21-14 32-20-9 4-19 9-28 16a3884 3884 0 0 0-4 4zm10-10c-4 4-2 1 4-1l13-8-2 1-15 8zm13-4c-7 4-3 2 0 0 8-4 4-2 0 0zM94 94l-3 2 14-10-7 5-4 3zm25-18l3-3c5-3 0 1-3 3zm25 28c8-5 4-2 0 0-7 3-3 2 0 0zm7-6h1l-7 4c-3 1-3 1-1 1l7-5zm10 3c4-5 2-3-3 1l-13 7 2-1 14-7zm11-12c-9 9-21 15-31 22 9-5 19-10 27-18l4-4zm-28 26l12-9-12 9zm32-26c4-2 3-2 1-1l-8 6c-4 2-3 2-1 0l8-5zm-7 1l5-4-23 17 12-8 6-5zm0 5c-6 6-13 11-20 15l13-9 7-6zm-12-7l-11 9c-17 9-31 21-45 34 10-11 21-21 34-28l13-8 9-7zm-49 32c3-3 2-1 1 0-3 3-2 2-1 0zm26-13l1-1-6 6-1 1 6-6zm45-28c-13 6-22 16-32 26 8-9 16-17 26-23l6-3zm-21 11l12-8-12 8zm-19 5l5-3-5 3zm-32 20l3-3-3 3zm26-21l-3 2-15 11 2-2 16-11zm-5 1c21-15 10-7-1 0-22 16-11 9 1 0zm-18 11c3-2 3-1 1 0l-6 5-1 1 6-6zm47-30h1l-7 4-12 9 6-5 6-4 6-4zm-11 6c4-4 0 0-3 2l3-2zm-1 4c3-2 2-1 1 0l-7 5c-2 2-2 1 0 0l6-5zm16-16zm-24 28l6-4a543 543 0 0 0-13 10l7-6zm-24 7l4-3-14 13 6-7 4-3zm10-6l-16 13 10-8 6-5zm9-2l-22 17 15-11 7-6zm10-23l-13 9 13-9zm-48 33l13-9c19-14 0-2-13 9zm17-22l-1 1 7-4c3-1 2-1 0 0l-6 3zm4 1c-19 16-9 7 0 0 21-15 11-7 0 0zm-10 9c-4 6-1 3 3-1l13-10-3 1c-4 3-10 9-13 10zm29-18l-7 5 7-5zm-26 20l-7 8c4-3 9-10 7-8zm-8 9l-6 6 6-6zm4-2c9-11 22-16 32-22-9 4-20 9-28 16l-4 6zm11-12c-5 4-2 2 2-1l15-8-3 1-14 8zm-8 11l-1 1c11-10 25-15 35-24-8 7-20 12-30 19l-4 4zm49-18c-34 26-15 13 1 1 31-25 15-13-1-1zm36-17l-20 13 13-10 7-3zm-69 52l-18 15 11-12 7-3zm-33 14c-6 4-5 3-2 0l14-10c5-3 4-3 1 0l-13 10zm62-69l-19 14 12-11 7-3zm0 0" fill="#7d4d25"/><path d="M3 160L220 2c2-1 4-1 5 1l10 14-5 3-2 1-1 1-27 24c-10 9-39 22-50 30-35 25-23 30-40 37-58 26-62 52-87 61h-5l-1 2-5 3-10-14c-1-2-1-4 1-5zm0 0" fill="#b97d3e"/><path d="M105 90l2-1-7 4 5-3zm-91 88l1-1 2-1v-1l-3 3zm11-5h1l3-2c2-2 2-2 0 0l-4 2zm15-10l2-2-10 8 8-6zm47-38l3-2 4-3 7-4h-1l-6 4-5 4-2 1zm24-12l9-7 1-1-10 8zm13-12v-2l-7 6-2 2 9-6zm4-6l1-1-2 1c-22 16-11 9 1 0zm5-5l9-8-15 13 6-5zm23-18zm8-4v-1c2 0 5-3 11-7 9-7 19-15 0-1l-11 9zm10-6l2-1 12-8c5-3 2-2-3 1l-11 8zm5-2l2-2 16-10-18 12zm30-22l2-2-3 2c-21 13-10 7 0 0zm14-12l2-2c-3 2-5 3-2 2zM3 160l2-1c6-4 13-8 19-14l-5 4c-5 5-11 9-17 12l1-1zm22-16l2-1-3 3 1-2zm18-13l4-3-3 4-9 5-4 3-4 3-15 13 12-10 8-7 8-6 3-2zm15-11l1-1 7-4-11 8-9 9-4 4-5 3-5 4-6 4c-7 7-15 13-24 18l23-17 4-4 5-3 5-4 5-4 14-13zm11-8l8-6c4-2 7-4 11-9l-4 5-15 10zm30-23l4-3 2-1 8-4zm10-7l2-2 5-3 12-8-6 4-6 4-5 4-2 1zm27-19l11-8 7-5-14 11-4 2zm29-21h1l17-10 5-3 5-4 5-3 5-4c8-4 15-9 22-15-7 7-15 12-23 17a2590 2590 0 0 0-11 7l-5 4-5 3-11 5-11 8 6-5zm12-9l4-2 3-2 8-6 9-6 13-8-16 10-4 3-4 3-9 6-4 2zm20-14l2-1 2-1-4 2zm22-16l1-1h1l-15 12-6 2c8-3 14-8 19-13zm3-2l-8 8c-5 3-2 1 2-2l6-6zm2 1l-17 13 7-5 10-8zm2 2v1l-11 8 5-4s4-2 6-5zm1 1v1l-4 3-2 2zm1 1v1l-2 1c-2 2-2 1 0 0zm1 2v1l-7 6 7-7zm2 3l-9 9c-6 3-3 1 1-2l8-7zm1 1c-7 7-14 13-23 16l-7 4 8-5c9-3 16-8 22-15zm1 1v1c-5 5-11 10-18 14l-10 5-7 5 8-6c10-5 19-11 27-19zM22 173c9-6 6-4 0 0zm-2 0h1c5-5 8-7 3-2l-3 2h-1zm-10 3v-1c10-5 19-11 26-20l9-6-7 5-8 8c-6 6-13 10-20 14zm-1-2c8-4 16-9 21-16l8-7-6 6c-6 8-14 13-23 17zm-1-1l10-6c4-3 7-5 2-1l-12 7zm-2-2v-1l9-5-9 6zm-1-2v-1l3-2-1 1-2 2zm-1-1v-1l9-4-3 2-5 2-1 1zm-1-1l8-6 5-3-13 9zm-1-3l12-8 6-5-18 13zm0-2v-1l8-4c4-3 7-5 2-1l-10 6zm99-71l-4 3-12 9-5 4 11-10 10-6zm-11 10l9-7-9 7zm0 3c5-3 1 0-2 2l2-2zm11-11l2-1c-12 7-21 20-33 27 10-7 18-16 27-23l4-3zm0 4h2c-9 2-15 12-23 16l15-12 6-4zm-2 0l-4 2c-6 5 0 0 4-2zm-8 4l-18 15 12-12 6-3zm-38 25c3-2 2-1 0 0-3 2-1 1 0 0zm9-5c3-2 3-1 1 0l-6 5h-1l6-5zm2 2l3-2-14 11c2-2 4-5 7-6l4-3zm4-2c3-2 1-1 0 0-4 3-2 1 0 0zm21-12c-3 1-6 4-8 7-7 10-17 16-27 20 11-4 22-11 29-21l6-6zm-71 64l5-4-5 4zm26-19a2764 2764 0 0 0-15 12c-5 4-2 2 3-1l12-11zm-2 5c19-16 9-7 0 0-19 15-9 7 0 0zm-19-8l-2 2a163 163 0 0 1 2-2zm-2 4c19-14 9-6 0 1-19 14-10 6 0-1zm3 3l-8 6 6-4 2-2zm45-35l3-2c-9 5-16 11-23 18l-5 4-10 7-9 7 5-4 17-12 6-5 7-7 9-6zm-23 12a493 493 0 0 0 1-1l-6 5-11 8 5-4 6-4 5-4zm-8 7c5-4 0-1-3 1-4 4 1 1 3-1zm1-5c3-2 2-2 0-1l-6 4c-2 2-2 2 0 1l6-4zm1 12l7-5-7 5zm44-32l8-5-8 5zm7 4c4-2 0 1-2 3-5 3-1 0 2-3zm27-24l2-2c-6 8-14 13-23 17l-5 4-10 7-10 7 6-4 16-13 6-3 10-5 8-8zm-47 33l-8 6 5-4 3-2zm-9 6l-14 12 14-12zm-5 7c3-2 2-1 1 0l-6 5c-2 2-2 2-1 0l6-5zm16-9c20-14 9-7-1 0-19 14-9 7 1 0zm-20-1l-32 24 22-16 10-8zm-33 26c19-14 9-6 0 1-20 14-10 6 0-1zm10-4c20-15 10-6 0 1-19 14-10 6 0-1zm44-33l2-1c-9 2-14 10-21 14l13-11 6-2zm-22 24l-4 3-16 13 3-2 17-14zm13-14h2c-10 3-15 11-23 16l14-12 7-4zm25-12l-29 21c5-5 12-11 19-15l10-6zm-13-12l4-3-15 15 7-8 4-4zm-17 13l-3 3 3-3zm8-6l-4 3 4-3zm-12 13l3-3-13 12 6-6 4-3zm66-51l-1 1 7-5-6 4zm4-3l4-3 11-9a4811 4811 0 0 1-6 4l-9 8zm12-8l-9 7 9-7zm3 1l3-2-3 2zm-13 8l-1 1c10-9 23-14 34-24-9 8-20 13-29 19l-4 4zm4 1l-1 2c5-9 15-11 22-18l-16 11-5 5zm0-3c-5 5 0 1 4-2 6-5 0-1-4 2zm5-6c7-4 13-9 20-12l-14 7-6 5zm36-28c-3 2-1 1 0 0 3-2 2-2 0 0zm-7 7l-1 1 7-5c2-2 2-1 0 0-2 0-4 2-6 4zm1 2c-2 0-2 1-3 2l15-10-8 5-4 3zm-3 3c-3 3-1 1 0 0 3-3 2-1 0 0zm-18 16c2-2 5-4 9-5 11-4 20-11 28-20-8 10-18 18-30 21l-7 4zm83-48c-3 3-7 6-6 4l6-4zm-26 20c-6 2-3 1 2-2l14-9c5-3 2-1-2 2l-14 9zm3-21c-5 3-3 1 2-2l14-9-2 2-14 9zm5-1c-20 14-9 7 0 0 20-14 10-7 0 0zm1 4l9-6-6 4-3 2zm-47 32l-2 2c7-7 15-12 24-16l5-4 10-7 10-7-6 4-17 13a4319 4319 0 0 0-6 3l-9 5-9 7zm19-18h-1l6-4 11-8-5 4-6 4-5 4zm9-6c-5 3-1 0 2-2l-2 2zm-5-1l-1 1 6-5c3-2 2-1 1 0l-6 4zm11 6l-7 5 7-5zm-44 31l-7 6 7-6zm-29 27l-3 1c10-4 17-10 23-17l6-4 10-7 9-7-6 4-17 12-5 4-7 8-10 6zm45-35l9-6-6 4-3 2zm9-7l15-9-15 9zm8-2c-2 2-2 1 0 0l7-3c2-2 2-2 0-1l-7 4zm9-1l-3 2c2 0 4-2 3-2zm-17-7l32-22a384 384 0 0 1-32 22zm35-23c-20 14-9 7 1 0 19-14 9-7-1 0zm-7 9c-20 14-9 7 0 0 20-14 9-7 0 0zm-46 31v2c4-8 13-10 19-16l-14 9-5 5zm31-13a208 208 0 0 0 18-12l-18 12zm-18 8l-1 1c6-8 16-10 23-16a86 86 0 0 0-22 15zm-26 4l-4 2 18-9-9 4-5 3zm18-13c-5 3 0 1 3-1 5-3 0-1-3 1zm-9 6c-6 5 0 1 4-2 6-5 0-1-4 2zm16-8l-3 3 15-9-8 4-4 2zM94 94l-3 2 14-10-7 5-4 3zm25-18l3-3c5-3 0 1-3 3zm-12 39l3-3-3 3zm3-9c3-2 3-1 1 0l-6 5-1 1 6-6zm3-1l4-3-14 13 6-7 4-3zm10-6l-16 13 10-8 6-5zm19-25l-13 9 13-9zm-48 33l13-9c18-14 0-2-13 9zm17-22l-1 1 7-4c3-1 2-1 0 0l-6 3zm4 1c-19 16-9 7 0 0 21-15 10-7 0 0zm-10 9c-4 6-1 3 3-1l13-10-3 1c-4 3-10 9-13 10zm29-18l-7 5 7-5zm-26 20l-7 8c4-3 9-10 7-8zm-8 9l-6 6 6-6zm4-2c9-11 22-16 32-22-9 4-20 9-28 16l-4 6zm11-12c-5 4-2 2 2-1l15-8-3 1-14 8zm-8 11l-1 1c11-10 25-15 35-24-8 7-20 12-30 19l-4 4zm45-38l-19 14 12-11 7-3zm0 0" fill="#895935"/><path d="M240 24l8 11c1 1 1 3-1 5L30 198c-1 1-4 0-5-1l-9-13c3-2 7-3 11-3 9 0 24-9 33-24 9-16 30-8 56-44 7-9 11 2 33-16 8-5 20-23 29-27 24-10 38-19 48-34 3-5 10-10 14-12zm0 0" fill="#a66328"/><path d="M25 181h1-1zm5-1h1l-13 7 12-7zm4-1l3-1c-6 5-12 8-18 11v-1c5-2 11-5 15-9zm16-10l2-2 6-4-8 6zm12-15c1-2 3-4 6-5l-6 5zm9-7l2-1a23727 23727 0 0 0-2 1zm6-2l13-7c3-1 5-2 6-4-2 3-5 5-8 6-12 4-20 12-27 21 4-6 10-12 16-16zm39-32l2-1-2 1zm7-4l-6 4 6-4zm4-1h1a269 269 0 0 0-1 0zm7-1l-5 5-1 1 6-6zm30-24l1-2 3-2 8-8h1l-7 7-6 5zm17-14l3-1-8 8-8 6 6-5 7-8zm13-6l5-3 7-3zm19-12l2-3h1l-3 3zm7-8c9-4 16-10 22-17v1c-5 6-12 11-19 15l-3 1zm3-3l1-1c6-4 12-8 17-14-5 6-11 11-18 15zm4-6l2-2 4-3-6 5zm12-9l1-1v1l-4 3-2 3zm2 0l1 1-4 4c-3 2-2 1-1 0l4-5zm4 5l-17 14-5 3 22-17zm0 1l-9 8c-5 3-2 1 2-2l7-6zm2 2c-7 7-15 12-23 17l-6 4-5 3-5 4-5 3c-4 1-8 3-11 6l-11 8c6-7 15-12 24-15l6-4 5-4 4-3 5-3 22-16zm2 4v1c-3 2-3 1-1 0zm-47 36l-2 1-4 2-8 7-2 1c5-5 10-8 16-11zm-28 20l-3 2 3-2zm-31 23l-1 1c-11 6-24 12-32 23l-6 4-3 2 7-5 8-9c7-7 18-12 27-16zm-5 4l-1 1-4 2c-2 0-2 1 1-1l4-2zm-3 2l-1 1-14 9-3 3c5-6 12-10 18-13zm-43 31l-1 1c-4 1-7 3-9 6l-3 2-3 2 16-11zm-64 45h-1l3-1h-1l-1 1zm-4-3c8-4 15-10 22-16l5-4 5-3 5-4 5-4a65 65 0 0 1 11-11l-9 9-5 4-5 4-5 4-5 4c-7 6-15 13-24 17zm-2-2l9-6c5-3 8-5 3-1l-12 7zm0-1c8-5 16-9 23-16a3881 3881 0 0 0-4 4c-6 5-12 9-19 12zm-3-4l-1-1 7-3c2-1 2-1 0 1l-6 3zm-2-2v-1l10-4-3 2-5 2-2 1zm44-19c2-2 2-2 0-1l-6 5c-2 2-2 2 0 0l6-4zm-1 5l-3 2 3-2zm8-6c2-3 2-3 0-1l-5 4-12 8c-4 4 2-1 6-3l6-4 5-4zm-25 20c19-15 9-7 0 0-20 14-10 7 0 0zm2-5l-2 2-13 10c-5 3-2 1 2-2l13-10zm1-5l2-3-2 3zm2-3l3-2c-2 0-4 2-3 2zm30-24l-8 8-8 7-8 6-8 6-12 10c6-3 10-8 15-12l4-3 4-3 9-6 8-9 4-4zm-5 2c3-3 2-1 0 0-3 3-1 1 0 0zm-4 2l3-3-11 13 5-6 3-4zm15-11l4-1-4 1zm-16 9c2-2 2-1 1 0l-6 6c-2 2-2 2 0 0l5-6zm-9 7c3-3 2-1 1 0-3 3-2 1-1 0zm43-19l2-1-7 4 5-3zm-4 2l-4 3-12 8-5 4 11-9c3-3 7-5 10-6zm-11 8l9-6c-4 4-11 8-9 6zm0 3l-3 3 3-3zm11-9l2-1c-12 7-21 18-33 25 10-6 18-15 27-21l4-3zm0 4l2-1c-9 3-15 11-23 16l15-12 6-3zm-2-1c6-3 0 0-4 3l4-3zm-8 3l-18 16c4-4 7-9 12-12l6-4zm-53 32c5-3 1 0-2 3-4 4 0 0 2-3zm9-7l-4 3 4-3zM210 59h-1l6-5h1l-6 5zm5 1c-5 3-1 0 2-3 5-3 1 1-2 3zm-9 5h-1l6-4 11-8-5 4-5 4-6 4zm27-18c-20 14-9 7 1 0 19-14 9-7-1 0zm-5 1l3-2a93 93 0 0 0 11-7l-14 9zm-5-1l-4 2 4-2zm-4 1c-1 2-3 3-3 2l3-2zm-31 22c2-3 6-5 9-6l9-5 8-6 9-6 13-8c-5 5-11 7-16 10l-4 3-4 3-8 7-12 5-4 3zm45-40c-3 3-2 1 0 0 3-2 1-1 0 0zm-43 35c-3 2-1 1 1 0 3-2 1-1-1 0zm-11 8c-2 1-3 4-2 3l2-3zm-8 16l-2 1 6-5-4 4zm2-3l4-3 12-9 5-3-12 7-9 8zm12-8l-9 7 9-7zm3 1l3-2-3 2zm-13 8l-1 1c10-9 24-14 34-23l-29 19-4 3zm4 1l-1 2c5-9 15-11 22-18l-16 11-5 5zm0-2l4-3-4 3zm5-7l21-12c-5 2-11 4-15 7l-6 5zm47-40l4-2-4 2zm-9 6l4-3-4 3zm-82 66l-3 2c1-2 4-3 3-2zm-44 29c-2 2-2 1 0 0l6-4 1-1-7 5zm1-5l3-2-3 2zm18-14c-20 15-10 7 0 0 20-15 10-7 0 0zm-3 4c-4 5-2 3 3-1l14-10c5-3 2-2-3 1-6 3-12 8-14 10zm26-16l-3 2 3-2zm-26 22l-3 3 3-3zm-3 3l-2 2 2-2zm4-3c9-9 21-14 32-20-9 4-19 9-28 16a3884 3884 0 0 0-4 4zm10-10c-4 4-2 1 4-1l13-8-2 1-15 8zm13-4c-7 4-3 2 0 0 8-4 4-2 0 0zm8-13c8-5 4-2 0 0-7 3-3 2 0 0zm7-6h1l-7 4c-3 1-3 1-1 1l7-5zm10 3c4-5 2-3-3 1l-13 7 2-1 14-7zm11-12c-9 9-21 15-31 22 9-5 19-10 27-18l4-4zm-28 26l12-9-12 9zm32-26c4-2 3-2 1-1l-8 6c-4 2-3 2-1 0l8-5zm-7 1l5-4-23 17 12-8 6-5zm0 5c-6 6-13 11-20 15l13-9 7-6zm10-16c-13 6-22 16-32 26 8-9 16-17 26-23l6-3zm-21 11l12-8-12 8zm34-22l-20 13 13-10 7-3zm-69 52l-18 15 11-12 7-3zm0 0" fill="#6a3f23"/><path d="M3 160L220 2h4L2 164c-1-2 0-3 1-4zM249 36c0 1 0 3-2 4L30 198h-4zm0 0" fill="#fac693"/><path d="M182 33l-2 1-10 5-11 8 6-5h1c5-4 10-7 16-9zm-12 9l-3 2c-2 1-3 1 0-1l3-1zm-17 12l-3 2-5 2 4-2 4-2zm-9 6l-3 2-7 6-6 4 7-6 9-6zM99 93l-6 3-7 7-3 2 8-8 8-4zm-22 16l-3 2 3-3 4-3zm-17 13l-3 2 3-3c2-2 2-1 0 1zm-13 9l-2 1c4-4 8-9 13-12l1-1 7-4-11 8-8 8zM2 163v1zm42 22l10-8-11 9c-20 14-10 7 0 0zm54-40zm20-14l13-8 12-7-1 1c-11 6-24 12-32 23l-6 4-3 2 7-5 8-9 2-1zm49-36l4-3 6-4c2-1 3-1-1 1l-8 5-1 1zm10-7zm45-33l10-7 1-1c10-7 20-14 1 0l-12 8zM3 160l2-1c6-4 13-8 19-14l-5 4c-5 5-11 9-17 12l1-1zm22-16l2-1-3 3 1-2zm18-13l4-3-3 4-9 5-4 3-4 3-15 13 12-10 8-7 8-6 3-2zm26-19l8-6c4-2 7-4 11-9l-4 5-15 10zm30-23l4-3 2-1 8-4zm10-7l2-2 5-3 12-8-6 4-6 4-5 4-2 1zm27-19l11-8 7-5-14 11-4 2zm41-30l4-2 3-2 8-6 9-6 13-8-16 10-4 3-4 3-9 6-4 2zm20-14l2-1 2-1-4 2zm22-16l1-1h1l-15 12-6 2c8-3 14-8 19-13zm3-2l-8 8c-5 3-2 1 2-2l6-6zm27 36v1c-3 2-3 1-1 0zm-47 36l-2 1-4 2-8 7-2 1c5-5 10-8 16-11zm-28 20l-3 2 3-2zm-36 27l-1 1-4 2c-2 0-2 1 1-1l4-2zm-3 2l-1 1-14 9-3 3c5-6 12-10 18-13zm-43 31l-1 1c-4 1-7 3-9 6l-3 2-3 2 16-11zm-64 45h-1l3-1h-1l-1 1zM2 162v-1l8-4c4-3 7-5 2-1l-10 6zm51-36c3-2 2-1 0 0-3 2-1 1 0 0zm-14 11c3-2 2-2 0-1l-6 4c-2 2-2 2 0 1l6-4zm59 10l2-1c-9 3-15 11-23 16l15-12 6-3zm-30-32l-4 3 4-3zm105-76c-3 2-1 1 0 0 3-2 2-2 0 0zm15-11l-1 1 6-5c3-2 2-1 1 0l-6 4zm-9 60l-1 2c5-9 15-11 22-18l-16 11-5 5zm-21-39c-6 5 0 1 4-2 6-5 0-1-4 2zM94 94l-3 2 14-10-7 5-4 3zm25-18l3-3c5-3 0 1-3 3zm25 39l12-9-12 9zm25-20c-6 6-13 11-20 15l13-9 7-6zm0 0" fill="#f08655"/><path d="M3 160L220 2h4L2 164c-1-2 0-3 1-4zm0 0" fill="#985327"/><path d="M182 33l-2 1-10 5-11 8 6-5h1c5-4 10-7 16-9zm-12 9l-3 2c-2 1-3 1 0-1l3-1zm-17 12l-3 2-5 2 4-2 4-2zm-9 6l-3 2-7 6-6 4 7-6 9-6zM99 93l-6 3-7 7-3 2 8-8 8-4zm-22 16l-3 2 3-3 4-3zm-17 13l-3 2 3-3c2-2 2-1 0 1zm-13 9l-2 1c4-4 8-9 13-12l1-1 7-4-11 8-8 8zM2 163v1zm1-3l2-1c6-4 13-8 19-14l-5 4c-5 5-11 9-17 12l1-1zm22-16l2-1-3 3 1-2zm18-13l4-3-3 4-9 5-4 3-4 3-15 13 12-10 8-7 8-6 3-2zm26-19l8-6c4-2 7-4 11-9l-4 5-15 10zm30-23l4-3 2-1 8-4zm10-7l2-2 5-3 12-8-6 4-6 4-5 4-2 1zm27-19l11-8 7-5-14 11-4 2zm41-30l4-2 3-2 8-6 9-6 13-8-16 10-4 3-4 3-9 6-4 2zm20-14l2-1 2-1-4 2zm22-16l1-1h1l-15 12-6 2c8-3 14-8 19-13zm3-2l-8 8c-5 3-2 1 2-2l6-6zM2 162v-1l8-4c4-3 7-5 2-1l-10 6zm51-36c3-2 2-1 0 0-3 2-1 1 0 0zm-14 11c3-2 2-2 0-1l-6 4c-2 2-2 2 0 1l6-4zm29-22l-4 3 4-3zm105-76c-3 2-1 1 0 0 3-2 2-2 0 0zm15-11l-1 1 6-5c3-2 2-1 1 0l-6 4zm-30 21c-6 5 0 1 4-2 6-5 0-1-4 2zM94 94l-3 2 14-10-7 5-4 3zm25-18l3-3c5-3 0 1-3 3zm0 0" fill="#563624"/><path d="M249 36c0 1 0 3-2 4L30 198h-4zm0 0" fill="#985327"/><path d="M44 185l10-8-11 9c-20 14-10 7 0 0zm54-40zm20-14l13-8 12-7-1 1c-11 6-24 12-32 23l-6 4-3 2 7-5 8-9 2-1zm49-36l4-3 6-4c2-1 3-1-1 1l-8 5-1 1zm10-7zm45-33l10-7 1-1c10-7 20-14 1 0l-12 8zm27-18v1c-3 2-3 1-1 0zm-47 36l-2 1-4 2-8 7-2 1c5-5 10-8 16-11zm-28 20l-3 2 3-2zm-36 27l-1 1-4 2c-2 0-2 1 1-1l4-2zm-3 2l-1 1-14 9-3 3c5-6 12-10 18-13zm-43 31l-1 1c-4 1-7 3-9 6l-3 2-3 2 16-11zm-64 45h-1l3-1h-1l-1 1zm70-51l2-1c-9 3-15 11-23 16l15-12 6-3zm81-59l-1 2c5-9 15-11 22-18l-16 11-5 5zm-35 27l12-9-12 9zm25-20c-6 6-13 11-20 15l13-9 7-6zm0 0" fill="#563624"/><path d="M18 173c2-2 4-1 6 1 1 2 1 4-1 5-2 2-5 1-6 0-1-2-1-5 1-6zm0 1h5c1 2 0 4-1 5s-3 0-4-1v-4zm0 0" fill="#7c4224"/><path d="M20 173h1l1-1h-1v1zm-2 0v-1 1zm5 0h-1zm1 1l-1 1zm0 3l-2 1h1l1-1zm-8 1v-1h1l-1 1zm0-1v-1l1-1v1l-1 1zm0 0" fill="#3a2924"/><path d="M228 20c1-1 4-1 5 1 2 2 1 5-1 6-1 1-4 1-5-1-2-2-1-4 1-6zm0 1c2-1 3-1 4 1v4c-2 1-4 1-5-1-1-1 0-3 1-4zm0 0" fill="#7c4224"/><path d="M228 20l-1 1 1-1zm3 0h1l-1 1h-1v-1h1zm1 0h1l-1 1h-1zm-2 8h-1l2-2h1l1-1-3 3zm-3-1v-1h1l-1 1zm-1-2l1-1-1 1zm0-1v-1h1l-1 1zm0 0" fill="#3a2924"/><path d="M2 159L219 1c2-2 6-1 7 1l23 32c2 2 1 5-1 7L31 199c-2 1-5 1-7-1L1 166c-2-2-1-6 1-7zm1 1L220 2c2-1 4-1 5 1l23 32c1 1 1 3-1 5L30 198c-1 1-4 0-5-1L2 165c-1-2-1-4 1-5zm0 0" fill="#2b2a29"/><path d="M29 188l1-1 5 7h-1zm30-22l5 7zm30-21v-1l5 7zm29-22h1l6 7h-2zm31-21v-1l5 7v1zm29-23h1l5 7h-1zm30-21l1-1 4 7v1zm30-22l5 7zM35 189h1l2 3zm4-3l2 3v1zm3-2l3 3h-1zm3-2l1-1 2 4zm4-3l2 3zm3-2l2 3zm3-3l3 4h-1zm3-2h1l2 3zm7-5l3 3-1 1zm3-2h1l2 3zm4-2v-1l2 4zm3-3l2 3zm3-2l3 3zm3-3h1l2 3v1zm4-2l2 3zm3-2v-1l3 4h-1zm7-5l2 3zm3-3l3 3-1 1zm3-2l3 3zm4-2v-1l2 4zm3-3l2 3zm3-2l3 3h-1zm3-3h1l2 4zm4-2l2 3zm7-5l3 3v1zm4-2l2 3zm3-2v-1l2 4zm3-3l3 3h-1zm3-2h1l2 3zm4-3l2 3v1zm3-2l3 3h-1zm3-2l1-1 2 4zm7-5l2 3zm3-4l3 4-1 1zm3-2h1l2 4zm4-2v-1l2 4zm3-3l3 3h-1zm3-2h1l2 3zm4-3l2 4zm3-2l2 3zm6-5h1l2 3v1zm4-2l2 3zm3-2v-1l3 4h-1zm3-3h1l2 3zm4-2l2 3zm3-3l2 3v1zm3-2l3 3zm4-2v-1l2 4zm6-5l3 3h-1zm3-3h1l2 3v1zm4-2l2 3zm3-2v-1l3 4h-1zm3-3l3 3v1zm4-2l2 3zm3-2v-1l2 4zm3-3l3 3h-1zm0 0" fill="#2b2a29"/><path d="M26 183h-1v1l-1-1 1-1v-1h1l3 4-1 1zm31-20l2-1v1l-2 2h-1v-4h-1v1l-1-1v-1l2-1 1 1v3zm30-23h1v1h1v1l-1 1-1 1h-1v-1h1l1-1-1-1-1 1-1-1h1v-1h-1l-1 1-1-1h1v-1l1-1h1v1h1v1zm0 0" fill="#434242"/><path d="M25 183v-1l1-1 2 4v1l-2-4-1 1v1zm32-23v4l2-1-2 2h-1v-5h-1v1h-1v-1h3zm30-17l1-1v-1h-3 1v-2h-1l-1 1v-1h3v1l1 1v2h-1v1h-1v-1h1zm0 0" fill="#2b2a29"/><path d="M117 119h1v1l1 1-1 1-1-1-2 1v-6zm-1 0v1zm0 0" fill="#434242"/><path d="M115 121v-4l2 2h1v2l-1-1zm0-3v3l2-1zm0 0" fill="#2b2a29"/><path d="M146 96l2 1 1 2-2 2h-1v-2c2 0 2-3 0-1h-1l-1-3 2-1 1 1-2 1zm0 0" fill="#434242"/><path d="M146 97c3-2 4 2 1 4l-1-2c3 0 2-3-1-1l-1-2 2-2v1l-1 1zm0 0" fill="#2b2a29"/><path d="M175 75h1v-1h1l1 1 1 1-1 1v1h-2l-1-1-1-1v-1l1-2v-1h1v2h-1v1zm1 1v1h1v-1h-1zm0 0" fill="#434242"/><path d="M175 77l-1-1v-1l1-1 1-1-1 1v1h3v3h-2l-1-1zm1-2v1h-1 1v1h2v-1h-1v-1h-1zm0 0" fill="#2b2a29"/><path d="M205 53l-2 1v-1l3-2v3l1 1v1l-1 1v-1l-1-2v-1zm0 0" fill="#434242"/><path d="M207 57l-1-2v-1l-1-1v-1l-2 1 3-2v4l1 1zm0 0" fill="#2b2a29"/><path d="M236 32h2v2l-1 1h-3v-2h-1v-2l1-1h2v2zm-1 1l1 1h1v-1h-2zm0-1v-1h-1v1h1zm0 0" fill="#434242"/><path d="M237 33h1v1h-1v1h-2v-1h-1l1-1-2-1v-1l1-1h1l1 1v1l1 1zm-2 1h2v-1h-2v1zm0-3h-1v1h1v-1zM12 154v-1l7 10h-1zm11-9h1l6 9zm12-8v-1l7 10zm12-9l7 9-1 1zm11-8l1-1 6 10zm12-9l7 9v1zm12-8l7 9h-1zm11-10h1l6 10v1zm12-8l7 9zm12-9l7 9-1 1zm12-8h1l6 9zm12-8v-1l7 9v1zm12-9l7 9h-1zm11-8l1-1 6 10zm12-9l7 9zm12-8v-1l7 10h-1zm11-9h1l6 9zm12-8V8l7 10zM6 158l5 6zm12-9l5 7h-1zm11-8h1l4 6v1zm12-9l5 7zm12-8l5 6-1 1zm11-8v-1l5 7zm12-9l5 7zm12-9v-1l5 8h-1zm11-9l5 7zm12-8v-1l5 7zm12-9l6 7h-1zm12-8l5 6zm12-9l5 7zm11-8h1l5 6h-1zm12-9l5 7zm12-8l5 6v1zm11-9h1l5 7h-1zm12-8l5 6v1zm12-9l5 7zM2 162v-1l3 4-1 1zm0-2h1l3 5zm2 0v-1l3 5zm1-1v-1l3 5zm2-2l4 4h-1zm1-1h1l3 4h-1zm1-1h1l3 4v1zm2-1l3 5zm2-1l3 4zm1-1l4 4h-1zm1-1h1l3 4h-1zm1-1h1l3 4v1zm3-1v-1l3 5zm1-1v-1l3 5zm1-1l4 4h-1zm1-1h1l3 4h-1zm3-2l3 4v1zm1-1l3 5zm1 0v-1l3 5zm1-1l4 4h-1zm2-2h1l3 4zm2-1l3 4v1zm1-1l3 5zm1 0v-1l3 5zm2-2l4 4h-1zm1-1h1l3 4zm2-1l3 4zm1-1l3 4v1zm2-1v-1l3 5zm1-1l4 4h-1zm1-1h1l3 4zm2-1l3 4zm2-2l3 5zm1 0v-1l3 5zm1-1v-1l4 5h-1zm1-1h1l3 4zm3-2l3 4zm1-1l3 4v1zm1-1l3 5zm1 0v-1l4 5h-1zm3-2l3 4zm1-1l3 4zm1-1l3 4v1zm1-1l3 5zm2-1l1-1 3 5zm2-1l3 4zm1-1l3 4zm1-1l3 4zm2-2l4 5h-1zm1 0l1-1 3 5zm2-1l3 4zm1-1l3 4zm2-2l3 4v1zm1-1l4 5h-1zm1 0l1-1 3 5zm2-1v-1l3 5zm2-2l3 4zm1-1l3 4zm1-2l4 5-1 1zm1-1h1l3 6zm3-1l3 5zm1-1l3 5zm1-1l3 4zm1-1l4 4-1 1zm3-1v-1l3 5zm1-1v-1l3 5zm1-1l3 4zm1-1l3 4zm2-2h1l3 4v1zm2-1l3 5zm1 0v-1l3 5zm1-1l3 4zm2-2l4 4h-1zm1-1h1l3 4v1zm2-1l3 5zm1 0v-1l3 5zm2-2l3 4zm1-1l4 4h-1zm1-1h1l3 4zm2-1l3 4v1zm2-1v-1l3 5zm1-1l3 4zm1-1l5 4h-2zm1-1h1l4 4zm4-2l3 5zm1 0v-1l3 5zm1-1v-1l3 5zm1-1l4 4h-1zm3-2l3 4zm1-1l3 4v1zm1-1l3 5zm1 0v-1l3 5zm2-2h1l3 4zm2-1l3 4zm1-1l3 4v1zm1-1l3 5zm2-1v-1l4 5h-1zm1-1h1l3 4zm2-1l3 4zm1-1l3 4zm2-2l3 5zm1 0v-1l4 5h-1zm1-1h1l3 4zm1-1h1l3 4zm3-2l3 4v1zm1-1l3 5zm1 0v-1l4 5h-1zm0 0M157 48l1-1 3 5h-1zm3-2l3 4zm1-1l3 4zm1-1l3 4v1zm1-1l4 5h-1zm2-1h1l3 4zm2-1l3 4zm1-1l3 4zm1-1l3 4v1zm2-2h1l3 5h-1zm1 0l1-1 3 5zm2-1l3 4zm1-1l3 4zm2-2l4 4-1 1zm0 0M178 32h1l3 5h-1zm1 0l1-1 3 5zm2-1l3 4zm2-2l3 4zm1-1l4 4-1 1zm1-1h1l3 5h-1zm1-1h1l3 5zm3-1l3 4zm1-1l3 4zm1-1l4 4h-1zm1-1h1l3 4-1 1zm3-1v-1l3 5zm1-1l3 4zm1-1l3 4zm1-1l4 4h-1zm2-2h1l3 5zm2-1l3 5zm1 0v-1l3 5zm1-1l3 4zm2-2h1l3 4h-1zm1-1h1l3 4v1zm2-1l3 5zm1 0V9l3 5zm2-2l4 4h-1zm1-1h1l3 4h-1zm1-1h1l3 4v1zm2-1l3 5zm2-1V3l3 5zm1-1l4 4h-1zm1-1h1l3 4h-1zm2 0V1l3 4zm0 0" fill="#2b2a29"/><path d="M20 166v1l-1-1v-2h1l3 4-1 1zm14-6l1-2 1 1-3 2v-4h-2v1h-1v-1l1-1 2-1 1 1v4zm12-11h1v2c1 0 1 0 0 0v1l-1 1h-1l-1-1h2v-2h-1v1h-1v-1l1-1h-2v1l-1-1 1-1 1-1h1v1h1v1zm12-8h1v2l-1 1v-1l-2 1-1-1v-4h1zm-2 0v1h1zm12-8l1-1 1 1 1 1-1 1v1h-2v-1h1v-2l-1 1h-1v-1h-1v-1l2-2 1 1-2 1 1 1zm11-9h3v3h-2l-1-1-1-1v-2l1-1h1v1l-1 1zm1 1v1h1v-1h-1zm11-10l-2 1-1-1 4-2v3l1 1v1l-1 1v-1l-1-2v-1zm13-8l2 1v2h-1l-1 1h-1v-1h-1v-2h-1v-2l1-1h2v2zm-1 1v1h2v-1h-2zm0-1v-1h-1v1h1zm13-8h-3v-1l-1-1h1v-1h3v1l1 2-1 3h-1v-1l1-2zm-1-1v-1h-1v1h1zm10-8v1h-3 1v-2l1-1 4 5-1 1zm2-2v-2h2l2 2 1 2-1 1h-2l-1-1-1-2zm3 0h-1v-1h-1v1l1 1v1h1v-2zm7-6l-1 1v-3h1l3 4-1 1zm3-3v1h-1v-1l1-1v-1l4 5h-1zm8-5h-1v-1l1-1v-1l4 5-1 1zm5-1l2-1 1 1-3 2h-1v-5h-1v2l-1-1v-1h1l1-1 1 1v3zm7-8v1h-1v-3h1l3 4-1 1zm5-3l1 1 1 1v1h-1v1h-2v-1h1v-1h-1l-1-1h1v-1h-1l-1 1h-1v-1h1v-1h3v1zm7-5h-1v1l-1-1 1-1v-1l1-1 3 5-1 1zm5-3h1v1l1 1-1 1-1-1-2 1h-1v-5h1zm-2 0v2l1-1zm8-6v1l-1-1v-1h1v-1l4 4-1 1zm4-2l1-1 2 1v2l-1 1h-1l-1 1v-2h2v-1h-2l-1 1v-2h-1v-1l2-2 1 1-2 1 1 1zm8-6l-1 1-1-1h1v-2h1l3 4-1 1zm3-2l1-1h2v1h1v1l-1 1-2 1-1-2-1-1v-1l1-1v-1h1v1l-1 1v1zm1 1h1v-1h-1v1zm8-8l-1 1h-1v-1h1v-1l1-1 3 5h-1zm3-3l-2 1v-1l3-2v3l1 1v2h-1v-1l-1-1v-2zm8-5v1l-1-1v-2h1l3 4-1 1zm5-3l2 1v2h-1l-1 1h-1v-1h-1v-1l-1-1v-2h1v-1h1l1 1v1zm-1 2h2l-1-1-1 1zm0-2v-1l-1 1 1 1v-1zm0 0" fill="#434242"/><path d="M19 166l1-1v-1l3 4-1 1-2-4v2zm14-10l1 1v1l-1 1v1h1l1-1h1l-3 2v-5h-1v1h-1v1-2h2zm13-4l1-1-1-1h-1v1l-1-1h1v-2h-1v1h-1v-1h2l1 1-1 1 1-1v1h1v2h-1v1h-1v-1h1zm10-9v-1l-1-1v-1l1-1 2 2 1 1h-1l1 1-1-1-2 2zm0-3v3l1-1zm12-7l1-1 1 1v1c1 0 1 0 0 0v1l-1 1h-1v-1h2v-1l-1-1h-1l-1 1v-1l-1-1 2-2v1l-1 1v1h1zm11-7l-1-1v-1l1-1 1-1-1 1v2l1-1h1l1 1v2h-2l-1-1zm1-1h-1l1 1h2l-1-1v-1l-1 1zm12-6v-1l-1-2v-2l-2 2v-1l2-2 1 1v3l1 1zm13-11h1v1h-1v1h-2v-1h-1l1-1h-2v-2h1v-1h1l1 1v1l1 1zm-2 1v1h1v-1h1v-1h-2v1zm0-3h-1v2h1v-2zm13-9l1 2c0 2-1 3-2 3l1-1v-3l-1 1h-2v-3h2l1 1zm-1 1h1l-1-1-1-1v1h-1v1h2zm8-7v-2h1l4 4h-1l-2-3v1h-2zm5-1l-1-2 1-1 1-1 1 2 1 2v1h-2l-1-1zm2-2h-1v-1h-1v2l1 1h1c0 1 0 0 0 0h1v-1h-1v-1zm6-6v-1l1-1 3 4h-1l-2-3v1h-1zm3-2l1-1v-1l3 4-3-3v1zm8-6l1-1v-1l3 4-3-3v1zm6-4v4l2-2v1l-2 2-1-1v-2l1-1h-1v-1h-1v1h-1v-1h1l1-1 1 1zm6-5v-1h1v-1l3 4-1 1-2-4v1l-1 1zm6 0l1-1h-1v-1h-1v1l-1-1h1v-1h-2v1-2h2l1 1-1 1h2v2l-1 1h-1v-1h1zm5-8l1-1v-1l3 4-3-3v1zm5 0v-5l2 3 1-1v1h-1l1 1v1l-1-1zm0-4v3l2-1zm7-5h1v-2l3 4v1l-3-3v1zm5-2h2l1 1v1h-1v1h-2 1v-1h1v-1l-1-1-1 1h-1v-1l-1-1 2-1-1 1v1h1zm7-6v-2h1l3 4h-1l-2-3v1h-1zm4-1l-1-1v-1l1-1 1-1v1h-1v2l1-1h2v3h-2l-1-1zm1-1l-1 1h1v1h1l1-1v-1h-2zm7-7v-1l1-1 2 5-2-3h-1v1zm6 1l-1-1v-1l-1-2v-1l-2 2v-1l3-1v2l1 1v2zm5-9l1-1v-1l3 4-3-3v1zm7-2l1 1-1 1h-1v1l-1-1v-2h-2v-2h3v1l1 1zm-2 2h2v-2h-2v2zm0-4h-1v2h1l1-1-1-1zm0 0" fill="#2b2a29"/></g></svg>