<svg xmlns="http://www.w3.org/2000/svg" width="379" height="267" viewBox="0 0 284 200"><path d="M72 124c-1-3-3-5-6-6-5-2-12 0-17 2-6 4-10 8-12 15-3 6-3 14-3 21 1 5 1 12 5 16h1l7 2 10 1c5 0 11-3 13-8v-9l-1-10c0-6 0-13 3-18 3-2 2-5 0-6zm0 0" fill="#d1c234"/><path d="M67 168c-2 0-3-1-4-3l-2-4-4-2c-2 0-4 0-5-2s-2-11 2-11l6 3 9 5 1 4v6a11 11 0 0 1 0 2l-2 2h-1zm0 0" fill="#aa962b"/><path d="M69 154v-3 3zm0 0" fill="#ebe4a3"/><path d="M62 174v-1l-1-4v-1c-1-3-3-7-6-7h-1l-2 2c-2-4-4-9-4-13l1-4c1-4 2-7 4-9v-2a3519 3519 0 0 0 5 6l11 10v3l-9-5-6-3c-4 0-3 9-2 11s3 2 5 2l4 2 2 4c1 2 2 3 4 3h1l2-2v1c-1 4-5 6-8 7zm0 0" fill="#98852d"/><path d="M281 146c-2-5-6-9-11-12-5-4-11-6-16-9l-11-10-2-2-6-7c-4-4-11-2-16 0-4 3-9 8-9 14l2 8 3 6 4 8 8 7 10 8a63 63 0 0 1 8 10l8 8c6 5 13 0 19-3 4-3 8-5 11-9v-1c2-5 0-11-2-16zm0 0" fill="#d1c234"/><path d="M283 162zm0 0zm0 0zm0 0zm-20-7l-6-1c-2-2-2-5-3-8-1-4-5-6-7-9-3-3-5-9-1-12l5-2 3 2c5 3 11 5 16 9 5 3 9 7 11 12l2 6-4-2c-2 0-3 1-5 3h-2l-4 1-3 1h-1zm-3-8v1l2 4 1-1v-1c0-1-1-3-3-3zm11-1c-2 0 0 4 1 5h1c1 0 1-4-1-5v0h-1 1-1zm-8-3v1l2 3 1-2-3-2zm7-5c-3 0 1 5 2 5h1c1 0 0-5-3-5h0zm-10-4l-1 1c-1 2 0 4 1 5l2 1 1-1-2-6v1-1h-1zm-9-7c-5 1-1 9 3 9l1-1c1-2-1-8-4-8zm0 0" fill="#aa962b"/><path d="M283 162zm0 0zm0 0zm0 0l1-4-1-6v10zm-32-39l-1-1 1 1zm0 0" fill="#e8de8d"/><path d="M259 172c-4-2-5-8-6-11l-1-7-2-5 1-2-3-5 1 1-1-1h-1l-5-9c-1-1-2-3-1-4l2 2 1-2-1-2 3-2 4-3 1 1-5 2c-4 3-2 9 1 12 2 3 6 5 7 9 1 3 1 6 3 8l6 1h2l3-1 4-1h2c2-2 3-3 5-3l4 2 1 6-1 4v1-4c0-4-3-7-5-7l-1 1-2 2h-1l-1 1-2 4h-1l-3-2h-1l-2 4c-3 2-4 7-4 10h-1zm0 0" fill="#96822d"/><path d="M250 122l-2-1 2 1zm0 0" fill="#e8de8d"/><path d="M250 122l-2-1 2 1zm0 0" fill="#cdbe47"/><path d="M259 177c-2 0-4 0-6-2l-2-2v-1l-1-12c-2-7-4-13-8-18l-11-11a45 45 0 0 1 5-3l12-7 2 1-4 3-3 2v-1h-2l-1 2 1 1c-1 1 0 3 1 4l5 9-1 2 2 4 2 1 2 5 1 7c1 3 2 9 6 11h1c0-3 1-8 4-10a26 26 0 0 0-1 1v7l2 6-6 1zm12-16l-1-1h1v1zm0 0" fill="#86722c"/><path d="M44 120c-15-7-17-8-23-8-6-1-4-2-1-3 2-1 11-11 20-26l28-43c7-10 27-38 69-39 42-2 69 23 84 40 15 18 23 52 26 57 2 6 5 10 10 13 4 3 6 3 4 4-2 2-10 3-26 4-16 2-21 13-42 15-21 1-149-14-149-14zm0 0" fill="#282624"/><path d="M54 161c3-1 6 3 7 7s3 7-2 7-7 0-8-4c0-4 0-9 3-10zm0 0" fill="#f4f4ed"/><path d="M58 175h1-1zm1 0zm0 0zm0 0zm0 0zm0 0zm0 0zm0 0zm0 0zm0 0zm0 0zm0 0zm0 0zm0 0zm0 0zm0 0zm0 0zm0 0zm0 0" fill="#e4e4e5"/><path d="M62 173l-1-4 1 4zm0 0" fill="#87762c"/><path d="M59 175zm0 0zm0 0zm0 0zm0 0zm0 0zm0 0zm0 0zm0 0zm0 0zm0 0zm0 0zm0 0zm0 0zm0 0zm0 0zm0 0c3 0 3-1 3-2 0 1 0 2-3 2zm0-3c-2-1-3-4-4-6v-5h-1 1c3 0 5 4 6 7v1c0 2 0 3-2 3zm0 0" fill="#d8d7cf"/><path d="M58 175l-5-10-1-2 2-2h1v5c1 2 2 5 4 6 2 0 2-1 2-3l1 4c0 1 0 2-3 2h-1zm0 0" fill="#bfbdb4"/><path d="M238 118c-4 0-14 0-25-4-12-5-25 10-44 20-32 17-81 8-101-8-10-9-19-15-26-17l-10 1-6 1-4 1c8 0 15 5 29 21s28 33 76 34c49 0 96-31 109-39l21-12-19 2zm0 0" fill="#efd499"/><path d="M58 141zm0 0" fill="#8d6d2a"/><path d="M252 118zm0 0" fill="#efd499"/><path d="M168 160l6-3 4-3c1-1 3-2 3-4v-3h-1l-4 2-8 3-15 5c-10 2-19 3-29 3-11 0-23-2-34-7-5-1-9-4-13-6l-12-8c-1-1-3-3-5-3l-1 1-1 3v1a3519 3519 0 0 1-5-6l3-4h3l4 2a229 229 0 0 1 4 3l9 6a86 86 0 0 0 46 14c13 0 26-3 38-8l18-8c4 4 7 9 9 14l-19 6zm-45-5l-17-2-24-8-22-15c-1-1 0-2 1-3l1-2 6 5c16 12 34 17 55 18h6l6-1h1c11-2 25-6 38-11l1 1v1l2 1-20 9a109 109 0 0 1-34 7zm101-29a100 100 0 0 0-6-4c2-1 5-3 8-3l11-1h12l1-1h4a9 9 0 0 0-2 1l-6 4h-6a44 44 0 0 0-16 4zm-8-5l-7-3-7-3v-1l7-1 4 1 8 2c1 1 3 1 1 3l-6 2zm-187-8l-7-1 4-1 6-1 8-1-4 1-7 3zm0 0" fill="#dcab53"/><path d="M66 91c-15 8-25 12-20 18 6 5 6 9 22 21 17 12 37 18 59 18s79-21 75-34c-3-10-28-20-37-23-10-3-72-13-99 0zm0 0" fill="#d1c234"/><path d="M127 148zm0 0zm0 0zm0 0zm0 0h-1 1zm0 0zm0 0zm-1 0zm1 0zm-1 0zm1 0zm0 0zm-1 0zm1 0zm-1 0zm1 0zm-1 0zm1 0zm0 0zm-1 0zm1 0zm-1 0zm1 0zm0 0zm-2 0zm2 0zm-2 0zm2 0zm0 0zm-2 0zm2 0h1-1zm-2 0zm3 0zm0 0zm-3 0zm3 0zm-3 0zm3 0zm0 0zm-3 0zm3 0zm-3 0h-1 1zm3 0zm-4 0zm4 0zm0 0zm-4 0zm4 0zm0 0zm-4 0zm4 0zm-4 0zm4 0zm-4 0zm4 0zm-4 0zm4 0zm-4 0zm4 0zm-5 0zm5 0zm-5 0zm5 0zm-5 0zm6 0zm0 0zm0 0zm0 0zm0 0zm-6 0zm6 0zm-6 0zm6 0zm-6 0c-21-1-39-6-55-18l-6-5 2-1 5-3h2l1 1 1 2-1-1h-1c-2 0 0 5 1 5l2 1 1-1 2 3-1 1 3 2v-1h1-1l2 1 1 1 1 1-10-2c15 9 31 13 50 14zm12-1zm1 0zm0 0zm0 0zm0 0zm0 0zm0 0zm0 0zm0 0zm0 0zm0 0zm0 0zm0 0zm3-4l-2-1c2 0 5-3 3-3l16-13a10 10 0 0 0 1 3h2c5 1 9 3 13 6l-18 4a65 65 0 0 1-15 4zm14-10c-2 0-6 3-5 6l1 1c3 0 8-6 5-7h-1zm6 0c-1 0-5 2-3 4l1 1c2 0 4-5 3-5h-1zm-24 9l1-1-1 1zm5-3zm62-24l-11-5-6-2-13-10v-1h-1v-1c7 2 13 4 18 8 5 3 10 6 13 10-3-8-19-16-30-20 11 4 27 12 30 20v1zm-157-8v-1c0-4 6-7 16-12-7 4-13 6-15 9l9-4 7-2v1l-13 7-1 1h-1l-2 1zm0 0" fill="#aa962b"/><path d="M202 114a62 62 0 0 0-31-18l1-2c11 4 27 12 30 20zm0 0" fill="#8a762c"/><path d="M127 148zm0 0zm0 0zm0 0zm0 0zm-1 0zm1 0zm-1 0zm1 0zm0 0zm-1 0zm1 0zm-1 0zm1 0zm0 0zm-1 0zm1 0zm-1 0zm1 0zm0 0zm-1 0zm1 0zm-1 0h-1 1zm1 0zm0 0zm-2 0zm2 0zm0 0zm-2 0zm2 0zm-2 0zm3 0zm-3 0zm3 0zm0 0zm-3 0zm3 0zm-3 0zm3 0zm0 0zm-3 0zm3 0zm-4 0zm4 0zm0 0zm-4 0zm4 0zm0 0zm-4 0zm4 0zm0 0zm-4 0zm4 0zm-4 0zm0 0zm4 0zm0 0zm-4 0zm0 0h-1 1zm4 0zm0 0zm-5 0zm6 0zm-6 0zm6 0zm0 0zm0 0zm0 0zm0 0zm-6 0zm6 0zm-6 0zm6 0l6-1-6 1zm-6 0zm12-1h1-1zm1 0zm0 0zm0 0zm0 0zm0 0zm0 0zm0 0zm0 0zm0 0zm0 0zm0 0zm0 0" fill="#b38428"/><path d="M127 148h-4c-19-1-35-5-50-14l10 2 1-1-2-2-1 1-2-1-2-2-2-3-2-4-1-2c4 5 9 10 15 13 7 4 15 6 24 6h1l17-2h1c12-3 19-8 25-14l1 1-16 13-4 2-1 1h2l2 1 5-1 10-3 18-4 2 1c-13 5-27 9-38 11h-1l-6 1h-2zm6-7c-2 0-5 2-3 3 2 0 5-2 3-3zm-87-38c2-3 8-5 15-9l1 3-7 2-9 4zm0 0" fill="#8a762c"/><path d="M122 156l-13-1c-11-2-23-6-33-13l-9-6a229 229 0 0 0-4-3l-4-2h-3l2-2 3-2c-1 1-2 2-1 3a107 107 0 0 0 46 23 99 99 0 0 0 51-5 436 436 0 0 0 3 0c-12 5-25 8-38 8zm0 0" fill="#a06128"/><path d="M239 118h-2c-4 0-9 0-16-2l-1-1h2l3 1 14 2h1-1zm0 0" fill="#272624"/><path d="M218 122l-2-1 6-2c2-2 0-2-1-3 7 2 12 2 16 2l-11 1c-3 0-6 2-8 3zm22-4h-1 1zm0 0" fill="#a06128"/><path d="M199 197l10 1c6 0 12 0 17-2 9-3 19-7 24-15a50 50 0 0 0-8-39c-9-11-20-18-33-24-12-6-28-9-37-20v-1c-8-1-14 6-16 13l-2 10 3 9h1c7 1 13 4 17 9 5 4 10 11 13 17 3 7 3 14 2 22v10l3 8 6 2zm0 0" fill="#d1c234"/><path d="M191 111l-6-3 6 3zm-19-13zm0 0" fill="#96822d"/><path d="M212 175l-1-1-3-1c-6-3-7-8-8-14v-1l-1-3c-1-3-2-8-6-13-5-7-41-32-15-35h2l5 1 6 3h-2c-9 0-5 8 1 16l2 2 7 8-1 4c0 1 0 4 2 4l1 1c1 0 2-1 2-3 2 5 5 10 9 14l2 3 1 1 1-1 8 2c7 0 11-4 12-9l2 1h1c3-1 0-8-2-8h0c-1-6-3-11-6-15l10 11-1-2 2 6 4 13-1 10c-1 2-3 5-6 5s-5-3-8-4h-1l-4 2-5 2h-3l-1-1-3 1-2 1zm24-15l-2 2 1 4 2 2 1-1c1-2 1-5-1-6h0v-1 1l-1-1zm6-18h-1 1zm-70-44zm0 0zm0 0zm0 0" fill="#b8a726"/><path d="M185 108l-7-5h-1l-5-5 13 10zm-13-10zm0 0zm0 0zm0 0zm0 0zm0 0zm0 0zm0 0zm0 0" fill="#96822d"/><path d="M242 142zm-1 0zm-63-39zm0 0h-1 1zm-1 0zm0 0zm0 0l-5-5 5 5zm-5-5zm0 0zm0 0zm0 0zm0 0" fill="#b8a726"/><path d="M185 108zm-7-5zm-1 0zm0 0zm0 0zm-5-5zm0 0zm0 0zm0 0" fill="#86722c"/><path d="M194 187v-1l-1-4v-6l-1-13c-1-8-5-15-10-21-3-4-7-7-12-10-2-2-6-3-9-3h-4l-2-4 12-18 1-3 1-1v-1l2-5h1v1l5 5h1l7 5-5-1h-2c-26 3 10 28 15 35 4 5 5 10 6 13l-2-3h-1l-1 4 2 4h1l2-2v1c1 6 2 11 8 14l3 1 1 1 2-1 3-1 1 1h3l5-2 4-2h1c3 1 5 4 8 4s5-3 6-5l1-10-4-13-2-6 1 2h1c4 5 6 11 8 18l1 12v1l-1 8v-2l-1 2c-1 2-5 5-7 5l-4-2c-2-3-3-7-6-9l-3-1h-1l-5 1h-1l-3-1h-2l-3 1c-1 1-2 3-4 3l-1-1-2-2-3-1c-2 0-3 1-5 3l-5 9v1zm0 0" fill="#a3922c"/><path d="M177 139zm-2-1zm0 0v-1 1zm0-1zm0 0zm0 0zm0 0zm0 0zm0 0zm0 0zm0 0zm0 0l-1-1 1 1zm0 0" fill="#c39127"/><path d="M174 136zm-2-1zm0 0" fill="#96822d"/><path d="M174 136l-2-1 2 1zm0 0" fill="#7b662b"/><path d="M226 196zm-31 0l-2-1-3-8v-4-6l1-6c0-5-1-11-3-16l-10-15a2 2 0 0 0-1-1l-2-1v-1l-1-1-2-1c-4-3-8-5-13-6h2c3 0 7 1 9 3 5 3 9 6 12 10 5 6 9 13 10 21l1 13v6l1 4v0l5-9c2-2 3-3 5-3l3 1 2 2 1 1c2 0 3-2 4-3l3-1h2l3 1h1l5-1h1l3 1c3 2 4 6 6 9l4 2c2 0 6-3 7-5l1-2v2c-3 5-8 8-13 11v-3l-2-7c-1-3-4-7-7-7h-1c-2 1-3 3-4 6-1-4-4-6-6-6h-1c-3 1-5 4-6 8-1-4-2-7-5-7-5 1-8 8-9 14v2l-1 3v1zm0 0" fill="#907e2d"/><path d="M78 105c-2-5-5-11-11-11h-1v1c-6 5-11 8-19 11l-11 4a57 57 0 0 0-11 5 54 54 0 0 0-24 39c-2 10-1 21 3 30v1h1-1c3 3 7 5 12 6l14 1c11 0 22-2 28-11l1-2c-1-5-4-10-6-14-3-6-5-12-4-19 1-4 2-7 4-9l5-8c4-4 10-7 15-9h1c3-1 4-4 5-7l-1-8zm0 0" fill="#d1c234"/><path d="M48 106l1-1-1 1zm0 0" fill="#96822d"/><path d="M34 172l-2-1-3-2-2 1-4 2-3-2a6 6 0 0 0-4-1l-2 1-4 1-2-1-1-3v0H6l-1 1-2-4v-1h1c1 0 2-4 0-5h0l-1-1-1 4-1-9v2c1-8 3-16 8-23l1-1-2 4c-2 4-3 8-3 13l-1 7 3 3 2-2h1l6 3-1 3c0 1 0 2 2 2h1l1-5c3 0 6-2 8-5 3-3 4-7 5-11a33 33 0 0 1 10-17l1 1c2 0 4-2 4-3v-2l5-4 3-7c-1-3-4-4-7-4l1-1h6l5 1c4 1 5 4 3 7l-6 9-8 12c-2 5-4 10-4 15a24 24 0 0 0 0 7l1 5c1 3 0 5-3 5-2 0-5 0-6 2l-2 3-1 1zm0 0" fill="#b8a726"/><path d="M49 105zm0 0" fill="#96822d"/><path d="M49 105l13-7v1l-13 6zm0 0" fill="#86722c"/><path d="M9 186c-2 0-3-2-4-3l-2-2 1 3a56 56 0 0 1-3-30v-2l1 9 1 2v1l2 4c-1 1-1 6 1 8h1l1-6 2 1 4-1 2-1 4 1 3 2 4-2 2-1 3 2 2 1 1-1 2-3c1-2 4-2 6-2 3 0 4-2 3-5l-1-5a24 24 0 0 1 0-7c0-5 2-10 4-15l8-12 6-9c2-3 1-6-3-7a23 23 0 0 0-5-1h-6c5-1 9-4 13-6 1 7 4 15 9 22h-2l-4 1-8 5-7 8c-4 6-4 15-2 22 1 6 6 11 7 18l-10-7-4-1h-2l-3 6-1 1-5-3h-1c-3 0-4 2-5 4h-1l-1-1-2-1h-2-2c-2 1-3 3-3 6 0 2 0 5-3 6l-1 1zm0 0" fill="#a3922c"/><path d="M58 129a33 33 0 0 1 6-5l-2 1a17 17 0 0 0-4 4zm0 0" fill="#a3922c"/><path d="M64 124l5-3-5 3zm0 0" fill="#96822d"/><path d="M40 191v-3l2 3h-2zm-26-1c-3-1-7-2-10-5h1-1v-1l-1-3 2 2c1 1 2 3 4 3l1-1c3-1 3-4 3-6 0-3 1-5 3-6h4c-2 0-6 2-6 9v8zm41-5v-1l-2-7c-3-5-8-8-11-8l-3 1c-2 1-3 4-3 8-2-4-5-7-7-7h-1l-4 5-1-1h1c1-2 2-4 5-4h1l5 3 1-1 3-6h2l4 1 10 7c-1-7-6-12-7-18-2-7-2-16 2-22l7-8a20 20 0 0 1 12-6l-5 3a33 33 0 0 0-6 5l-2 2-3 4v2c-2 2-3 5-4 9l-1 4c0 5 2 10 5 15 2 4 5 9 6 14l-1 2-3 4zm0 0" fill="#907e2d"/><path d="M123 2h-1l-4 1-7 1-13 6-11 8-1 2 3 1 2 1 2 1c3 1 6 2 9 1l7-4 8-4 3-2 1-1h1l1-4 1-5-1-2zm0 0" fill="#779a36"/><path d="M97 24l-3-1-3-1-3-1-2-1c-4 1-6 4-8 7l-9 9a161 161 0 0 0-16 27l-4 8v1l-1 4c0 4 2 3 5 1l3-3 15-10 12-6 5-3 1-5 8-20c1-2 2-4 0-6zm78-16l-1-1-2-1-2-1-6-2a58 58 0 0 0-21-3l-14 1-4 1h-1l-1 6-1 5v1l4 2 7 3 6 4c2 2 6 1 9 0l7-1 7-1c2 0 4-2 6-4l3-4 3-5zm67 76l-2-7-4-11-10-19c-2-3-19-26-23-17a15 15 0 0 1-2 2l-9 9v1l-1 3 1 4 2 5c1 7 4 15 4 22v2c1 4 6 8 10 10l13 5 14 6 3-1c2-1 2-3 2-5l2-7v-2zm0 0" fill="#727731"/><path d="M184 93v-1l-5-12c-2-5-4-9-8-12l-7-4-8-3c-6-3-11-5-17-6-2 0-4 1-4 3-2 2-1 4 0 6l4 11 2 5 3 5 3 1 8 2a142 142 0 0 1 27 9l3-1-1-3zm0 0" fill="#64602c"/><path d="M147 52l-1-5-2-12-1-8-2-3-2-2-4-2h-1l-6-3-1-1h-1l-3-1-5 1-15 7-5 4-3 6-3 9c-1 3-5 12-2 14l2 1 3-1 7-1a78 78 0 0 1 9-1l20 1 9 1c2 1 5 2 7 1v-5zm0 0" fill="#848e32"/><path d="M60 73l-1-1-2 2-5 3-8 6-6 5-1 3-5 9a2342 2342 0 0 1-3 8h3l5-2 11-6c4-2 5-6 7-10l1-3 4-10v-4zm0 0" fill="#595229"/><path d="M204 26l-2-4-11-8-11-6h-5l-3 4-3 4c-2 2-3 5-1 7l4 3 5 4 10 9h1l2 2c2 0 3-2 5-3l3-3 3-3c1-2 3-3 3-6zm0 0" fill="#848e32"/><path d="M219 109l-3-5-6-11-3-4-3-3-4-4-6-3-10-5-6-2c-1-1-2 0-2 1l1 2 1 2v1l1 3 2 3 5 12 2 3 8 5a177 177 0 0 0 21 10l2-1v-4zm43 4l-4-2a16 16 0 0 1-5-4l-3-4-4-2-5-1h-2v2c0 2 1 3 3 5l3 4c2 2 4 5 8 6 2 1 6 0 8-2h2l-1-2zm0 0" fill="#727731"/><path d="M198 76l-1-8-4-16-2-8a40 40 0 0 0-4-5l-8-8-10-8c-3-2-7-2-10-2l-10 2-4 1-2 2 1 4v5l2 9v2l1 7c1 2 2 5 4 6l6 3 12 4 6 4 6 3 5 2 5 3c2 1 5 3 7 1v-3zm0 0" fill="#779a36"/><path d="M250 116l-1-1v-1l-8-8-7-8-12-5-6-2-3-1-2-1-3-1-1-1v1l1 2 2 3 5 8 4 8 1 4 1 1c1 2 3 2 4 2l14 2h10l1-1v-1zm0 0" fill="#595229"/><path d="M249 101l-4-9-2-3-1-3-1 4v2l-1 2-1 4c1 2 2 2 3 2l5 2h1l1-1zm0 0" fill="#779a36"/><path d="M93 60c0-3-3-4-5-3l-9 3-8 4-6 4-4 5-2 5-3 6-2 5v2l-1 2v3c1 1 3 0 4-1l6-2c4-2 7-5 11-6 4-2 7-3 9-6l3-4 2-3 4-7 1-7zm0 0" fill="#64602c"/><path d="M38 87l-4 5-5 7-6 7-4 2-1 1-1 1 2 1c3 0 7-1 9-4l3-4 3-5 2-5 2-3 1-3h-1zm0 0" fill="#727731"/><path d="M51 66h-1l-7 12-4 5v3c2 0 3-2 5-3l3-3 2-5 1-6 1-3zm0 0" fill="#779a36"/><path d="M96 44l-1-1h1l2-6v-1l1-3 1-2 2-2-2 5-4 10zm44-4v-1-5l1 3v2l-1 1zm-40 4h-1c-2 0 0-3 0-4l3-7c0-2 2-5 4-6l9-4c-5 2-11 4-13 9v2l-2 6c-1 0-2 2-1 3l1 1 3-1 8-2h12l5 1h6c3-1 1-6 1-8l-2-7-6-3-6-3h-1 2l7 3c6 3 5 6 7 12v6l-1 1h-5l-9-1a49 49 0 0 0-13 0 51 51 0 0 0-8 2zm0 0" fill="#a7b927"/><path d="M106 40h-1v-3a36 36 0 0 1 2-6l2-1 7-5 4-1 3 1 6 7c1 1 2 4 1 6l-2 2h-1l-5-1h-10l-4 1h-2zm14-15l-5 2c-4 2-8 4-9 8v4h1l3-1h15l3 1 1-1c2-1 0-4-1-5-1-3-3-6-5-7l-3-1zm0 0" fill="#a7b927"/><path d="M112 36l-2-1c-1-2 1-3 2-4l4-3 3-1 1 1 5 5c0 1 1 2-1 3h-1l-4-1h-1l-4 1h-2zm5-1h5l1 1 1-1v-2l-4-4-2-1h-1l-3 2c-1 1-4 3-3 5h6zm0 0" fill="#a7b927"/><path d="M116 34l-1-1 1-3h2l2 1-1 2-1 1h-2zm2-3h-1l-1 1v1h1l2-1-1-1zm0 0" fill="#a7b927"/><path d="M63 46l1-2v2a3 3 0 0 0-1 0zm4 0l2-3 1-1-1 1-2 3zm-1-4v-1c1-1 2-4 5-5v1h-1l-4 5zm0 0" fill="#98aa2e"/><path d="M64 51l1-1 2-2c2-1 5-3 6-6l2-6v-2-1l1 1-1 5-2 5-4 4-5 3zm-2-1h-1l1-3h1l-1 2v1zm9-15c0-1 1-3 3-3l1 1h-2l-2 2zm0 0" fill="#98aa2e"/><path d="M61 56v-1l4-2 6-3 4-3c3-3 3-7 4-11 1-2 3-5 0-6h-1l1-1c2 1 3 3 2 5l-2 8-3 6-7 4-7 3-1 1zm-2-1a1 1 0 0 1 0-1c-1-1 0-3 1-4v1l-1 3v1zm15-23c1-2 2-3 4-3l-1 1-3 2zm0 0" fill="#98aa2e"/><path d="M57 56v-1 1zm0 0" fill="#b6cb72"/><path d="M58 61h-1c-2-1-1-3 0-5v-1h1l-1 4 1 1 4-1 12-7 5-4 3-4 2-7 1-4 1-3-2-4h-1l-5 2c1-2 3-2 5-2s3 0 4 2l-1 4-2 5v2l-2 7-4 5-7 4-8 4-5 2zm0 0" fill="#98aa2e"/><path d="M59 66l8-6 11-6c2-1 5-3 6-6l3-11 4-8v1l-1 3-2 5c-1 3-1 7-3 10-4 6-10 9-16 12l-8 6h-2zm-4-5v-2-1h1l-1 3zm26-37v-1h3a8 8 0 0 0-3 1zm0 0" fill="#98aa2e"/><path d="M99 20l-4-1-4-1 1-1 6 2h2l8-3 8-4 2-3-1 2-1 2c-2 1-5 3-8 3l-4 2-5 2zm-10-3zm0 0" fill="#a3bf27"/><path d="M100 17h-1l-3-1 1-1 2 1h1l6-3 6-2 1-2h2l-2 2-7 3-6 3zm0 0" fill="#a3bf27"/><path d="M62 79h-1v-1l1-2c1-2 1-4 3-5l3-3 7-4 4-2 2-1c2 0 3 1 3 3l-1 1-1-3h-1l-6 3-6 3-5 5a23 23 0 0 1-1 4l-1 2zm0 0" fill="#8c9d32"/><path d="M64 78l3-4c1-3 3-5 5-6l4-3h2c2 0 2 2 1 4l-2 2 1-1v-5l-3 2-3 2-4 3-1 3-2 2-1 1zm0 0" fill="#8c9d32"/><path d="M67 77l1-2v-1l3-3 3-2h1l1 3h-1v-2h-2l-3 3-2 2v1l-1 1zm0 0" fill="#8c9d32"/><path d="M39 93h-1l1-1c1-3 2-5 5-7l5-3 3-2c2 0 1 3 1 4l-1 2-2 2 1-2 2-4-1-1-2 1-7 4-3 5-1 2zm0 0" fill="#819233"/><path d="M40 93l1-2 4-5 4-2-1 5v1l-2 1 1-2 1-4-3 2-3 3-1 3h-1zm0 0" fill="#819233"/><path d="M42 93v-1l2-3h2l-1 2a3 3 0 0 1 0 1v-1-1h-1l-1 2v1h-1zm0 0" fill="#819233"/><path d="M144 19h-3l-7-4-6-2-1-2v-1c1 2 2 3 4 3l5 2 6 3h3l6-1 9-1 5-3v1l-5 2-10 3h-6zm25-13h-1l1-1v1zm-41-3l1-1v1h-1zm0 0" fill="#98aa2e"/><path d="M147 15h-3l-7-3-5-1-1-2V8l4 3 4 1 6 2h6l6-2 5-2h1l-6 4-6 1h-4zm18-10h-1l1-1v1zm-32-3zm0 0" fill="#98aa2e"/><path d="M147 11h-2c-2 0-6-1-8-3V7l2 2 7 1h1l7-2 2 1h-1l-8 2zm14-7h-1l1-1v1zm-5-1h-1a3 3 0 0 0 1-1v1zm-13-1h-1l1-1v1zm8 0V1v1zm-4 0h-1V1l1 1zm0 0" fill="#98aa2e"/><path d="M190 35c-4 0-7-4-10-7l-5-4-4-4v-1h1l1 1 8 7c2 2 5 7 9 7l2-1 5-4 3-4h1v-2h1v1l-5 6c-1 2-3 4-5 4l-2 1zM177 9zm0 0" fill="#a7b927"/><path d="M191 29l-5-1-5-4c-2-2-6-4-6-7l1 1 5 5 6 4 4 1h1l6-4c-2 2-4 5-7 5zm8-6v-1-1 2zm0 0" fill="#a7b927"/><path d="M191 24l-8-4c-1-1-4-2-4-4v-1h1v1l4 4 6 3h1l3-1h1l-4 2zm6-4v-1 1zm-9-2h-1l-1-1 2 1zm0 0" fill="#a7b927"/><path d="M190 63l-3-12-3-8-7-7a90 90 0 0 0-6-5l-2-1 11 8 4 4 3 7 4 13-1 1zm-38-14l-1-1v-1l-4-11v-5l1-2h1v-1h1l5-2 5 1h-4l-7 2c-2 3-1 6 0 10l3 10zm0 0" fill="#a3bf27"/><path d="M188 65v-2l-2-5c-1-6-3-11-6-15l-6-5-6-5c-2-2-4-3-7-3h-1l-5 1-3 1-1 2v1a16 16 0 0 1 2 4v4l3 9v1l-1-1-2-8-2-7v-2l-1-2c0-2 3-2 5-3l6-1c3 0 5 1 7 3l7 5 6 6 3 7 3 9 2 6h-1zm0 0" fill="#a3bf27"/><path d="M185 65h-1l-1-1h2a9 9 0 0 0-1-2 82 82 0 0 1-4-11l-5-9-8-6-5-1h-1l-3 1h-1c-2 1-2 2-1 3l1 5 2 6 2 4v1l5 2 7 3 1 1-6-3h-2l-5-4-3-4-2-8c-1-1-2-3-1-5 0-2 2-2 3-2l4-1 5 1 8 7c3 2 4 5 5 9l5 10v4zm0 0" fill="#a3bf27"/><path d="M179 60h-1l-5-2-4-2c-2-1-5-2-6-4l-2-5-1-5c-1-2 1-2 2-3l1-1 4 2 6 4c4 4 6 10 7 15l-1 1zm-3-2l3 1c-1-5-3-11-7-14l-4-4-5-2h-1l-1 1v4l1 4 1 3 7 5 4 1 2 1zm0 0" fill="#a3bf27"/><path d="M173 55c-3 0-6-3-7-4l-1-6v-1l1-1 4 3c2 1 4 3 5 6l-1 3h-1zm-7-11h-1c-1 1 2 6 2 7l6 3c2 0 1-2 1-3l-4-4-4-3zm0 0" fill="#a3bf27"/><path d="M170 50l-2-1v-2h-1v-1h1l2 2v2zm-2-3l1 1 1 1-1-1a3 3 0 0 0-1-1zm0 0" fill="#a3bf27"/><path d="M203 72l-2-2v-1l-2-9-2-6v1h1l2 6 2 9 1 2zm30-7l-2-5 1 2 1 3zm-10-20l-7-7 3 2 4 5zm-12-11l-3-2v-1l3 2s-1 0 0 0v1zm16 50h-3l-7-3-5-2c-1-1-2-1-2-3l-4-7c-1-3-1-7-3-10l-3-10 1-4 1-3a36 36 0 0 1 2-4l5-2c2 0 4 2 5 3l5 6 5 9 4 10 5 18-1 1-1-1h1l-1-8a659 659 0 0 0-3-9l-4-10-5-8a654 654 0 0 1-4-5l-5-5h-1c-3 0-5 3-7 6v7l2 9 3 8 2 7c3 5 8 6 14 8l4 2zm0 0" fill="#98aa2e"/><path d="M227 80l-5-2-2-1-4-2c-3-1-4-3-5-6l-3-11-4-8 1-7 2-3 1-1h1v1l3 2 6 9a76 76 0 0 1 10 22v7h-1zm-19-40l-3 4v7l3 7 3 9c1 2 1 6 4 7l6 3 4 2a4 4 0 0 0 1 0h1l1-2-1-5-3-9-6-12a51 51 0 0 0-5-7c-1-1-3-4-5-4zm0 0" fill="#98aa2e"/><path d="M223 75h-1c-2-1-5-2-6-4-2-3-3-5-3-8l-2-5-2-4-1-7 1-2 1-1 2 2c2 1 2 3 3 5l4 6 6 14v4h-2zm-1-1h2a3 3 0 0 0 0-2l-1-4a96 96 0 0 0-10-20l-3-3h-1v3l1 7 4 9c0 2 1 5 3 7l5 3zm0 0" fill="#98aa2e"/><path d="M219 68l-2-3-4-8-2-7h1l3 4 5 11-1 3zm-7-17v1l2 5 2 5c1 2 1 4 3 5v-1-1l-3-7-3-5v-1l-1-1zm0 0" fill="#98aa2e"/><path d="M237 105l-1-1c-3-3-6-4-9-5l-5-2-3-1h-2l-1 1 1 3 1 1a9 9 0 0 1-2-2v-3l1-1 3 1 10 3 7 5v1zm0 0" fill="#819233"/><path d="M235 106l-2-2-7-3-5-1h-1l1 2 1 2-1-1h-1v-2c-1-1 0-2 1-2h1l4 2 9 3 1 2h-1zm0 0" fill="#819233"/><path d="M233 107l-2-2-5-2-1 2v-2h1l4 1 3 2 1 1h-1zm0 0" fill="#819233"/><path d="M231 106h-1-1l-1-1v1-1c-1 0-1 0 0 0h1l2 1zm0 0" fill="#819233"/><path d="M249 109l-2-1a4 4 0 0 1-1-2v-3h1l3 1-2-1-1 1c-2 0 1 3 1 4l1 1zm0 0" fill="#98aa2e"/><path d="M251 109a3 3 0 0 1-1-1l-1-3h1l1 1-1-1v2l1 1v1zm0 0" fill="#98aa2e"/><path d="M243 95l-1-1 1-4v5zm1 1v-3 2l1 1h-1zm0 0" fill="#a3bf27"/><path d="M205 92c-2-3-3-5-6-6l-7-4h1l-4-2-4-1-1 2 4 7v1l-1-1v-1l-3-4-1-4 2-1 4 1 3 2 5 3 3 1 5 5v2zm0 0" fill="#98aa2e"/><path d="M204 94l-4-5-7-4c-1-1-3-3-5-3v3l2 2a35 35 0 0 1 2 4l-2-1-2-6v-2h1l4 2c3 1 7 2 9 5l3 5h-1zm0 0" fill="#98aa2e"/><path d="M202 95l-1-2-4-4-4-2c-1 1 0 2 1 3l1 2 1 1h-1l-1-2-2-4v-1h1v1l5 2 4 5 1 1h-1zm0 0" fill="#98aa2e"/><path d="M200 94h-1-1l-1-1-2-3h1l3 2 1 2zm-4-4v1l1 1 2 2-1-1v-1l-2-2zm0 0" fill="#98aa2e"/><path d="M176 81c-2-4-4-8-9-11l-11-4-5-2h-1v4l-1-2v-3h1l3 1 8 3 6 3h2v1c3 2 6 5 7 9v1zm0 0" fill="#8c9d32"/><path d="M175 82h-1l-2-3a23 23 0 0 0-5-5l-7-4-5-2h-1c-2 0 0 4 1 5l-2-1v-6h1l6 3 5 3c3 1 5 3 7 6l3 4zm0 0" fill="#8c9d32"/><path d="M171 81l-1-1-1-1-4-4-3-2-2-1h-2-1l1 3v1l-1-1v-2l1-2 3 1 4 2c3 1 4 3 5 6l1 1zm0 0" fill="#8c9d32"/><path d="M168 80v-1l-2-2-4-2v3l-1-1v-1-2h1l2 1 2 2h1l1 3zm0 0" fill="#8c9d32"/><path d="M83 22v-1 1zm0 0" fill="#d5e1c2"/><path d="M88 43h-1l3-7v-3l2-5-4-5a8 8 0 0 0-3 0h-1l-1-1v-1c5 1 10 3 11 8l-2 7-4 7zm3-14c-1-3-4-4-7-6 2 0 5 1 6 3l1 3zm0 0" fill="#8d9a32"/><path d="M90 33l1-3v-1l-1-3c-1-2-4-3-6-3h4l4 5-2 5zm0 0" fill="#afc02d"/><path d="M98 37v-1c0-3 0-8 3-10 4-3 9-6 14-7l6-2 6 2 4 2 5 2c2 0 4 1 5 3v5l-1 3v-5c-2-4-5-6-10-8-2-2-5-3-7-3h-2l-6 1-7 4-3 2c-2 1-4 3-5 6l-1 1v1l-1 4zm42-3h-1c1-3 0-6-3-8a4028 4028 0 0 1-14-5l-3-1-3 1-5 3-5 2v1h-1l-3 2 1-2 5-3 7-4 6-1h2c3 0 5 1 8 3 2 1 4 1 5 3 2 1 3 3 3 5l1 4zm-25-11l4-2h1l-4 1-1 1zm0 0" fill="#9cab2d"/><path d="M98 37l1-4-1 3v1zm42-3l-1-4c0-2-1-4-3-5-1-2-3-2-5-3-3-2-5-3-8-3h-2l-6 1-7 4-5 3a6 6 0 0 0-1 2l-2 2c1-3 3-5 5-6l3-2 7-4 6-1h2c2 0 5 1 7 3 5 2 8 4 10 8v5zm0 0" fill="#bbcb33"/><path d="M106 27v-1l5-2 5-3 3-1 3 1h-3l-4 2-9 4zm0 0" fill="#bbcb33"/><path d="M185 41l-5-3-3-3a105 105 0 0 0-7-6c-2-2-5-3-7-3h-13c-3 0-3 3-3 5v1c-1-3-2-8 2-9h13c5 1 9 3 12 6l11 12zm-16-11l-3-2-6-1 1-1 3 1c2 0 4 1 5 3zm0 0" fill="#94b32e"/><path d="M180 38l-11-8c-1-2-3-3-5-3l-3-1-1 1-5-1h8c2 0 5 1 7 3a105 105 0 0 1 7 6l3 3zm-33-6v-1 1zm0 0" fill="#b7ce2e"/><path d="M198 55l-1-2c0-3-2-5-1-8l7-8 2-3 2-2h1l-8 9c-2 2-4 5-3 7l1 6v1zm-1-1l-4-8 2-6 6-6 7-4v1c-2 0-3 2-4 3l-2 3-3 3-4 5v1l1 5 1 3zm0 0" fill="#8d9a32"/><path d="M198 55h-1v-1l-1-3-1-5v-1l4-5 3-3 2-3c1-1 2-3 4-3v1h-1l-2 2-2 3-7 8c-1 3 1 5 1 8l1 2zm0 0" fill="#afc02d"/><path d="M88 19v-1l1-1 2 1-2 1h-1zm4-2h-3l7-5h1l4 1 5-2c3-1 7-2 6-6l-3 4-4 1-3 2h-5a71 71 0 0 1 19-8l3-1 3 1v4c0 1 0 3-2 4l-5 4v-1l2-4 1-1 2-6-2 4v1h-3l1-4h-1l-2 4-8 3-8 3-4-1 3 2-4 1zm0 0" fill="#94b32e"/><path d="M91 18l-2-1h3l-1 1zm26-7l1-2V8l2-4-2 6-1 1zm-21 5l-3-2 4 1-1 1zm17-7l2-4h1l-1 4h-2zm-12 4l-4-1h5l3-2 4-1 3-4c1 4-3 5-6 6l-5 2zm0 0" fill="#b7ce2e"/><path d="M161 20v-1c2-1 4-3 4-5l1-2 3-6 1 1 1 1c1 2-1 5-2 6l-3 3-5 3zm-35-6h-1v-1h-1c-1-3 0-7 2-9l2-1c-1 2-2 5-1 8l-1 3zm39-1l-2-2v-1l2-5 3 1-2 5-1 2zm-38-3V9l2-6 4-1c-1 2-3 4-2 7h-1l-3 1zm35 0l-4-1h-2l5-5 3 1-2 4a3 3 0 0 1 0 1zm-8-2h-1l-12-1h-3-1V5l2-3c-2 1-4 3-2 5l-6 1V7l2-5h9v3l4 2h1c4 0 7-1 9-4l4 1-5 4h-1zm-7-2h-3l-2-2 1-2h3l1 2h2l2-2 4 1a8 8 0 0 1-3 2l-4 1h-1zm0-2V2h4l-3 2h-1zm0 0" fill="#8d9a32"/><path d="M165 14v-1l1-2 2-5h1l-3 6-1 2zm-38-3c-1-3 0-6 1-8h1l-2 6v2zm36-1h-1V9l2-4h1l-2 5zm-32-1c-1-3 1-5 2-7l-2 5v2zm25 0l-2-1h1l5-4h1l-5 5zm-19-2c-2-2 0-4 2-5l-2 3v2zm10 0h-1l-4-2V2h1l-1 2 2 2h4l4-1a8 8 0 0 0 3-2h1c-2 3-5 4-9 4zm0 0" fill="#afc02d"/><path d="M147 4l-1-2h1v2h1l3-2-2 2h-2zm0 0" fill="#afc02d"/><path d="M200 25l-1-1h-1l1-1 1 2h1-1zm-2-1l-3-2 2-2 2 2-1 2zm-27-1c-1 0-2 0-2-2v-4c1-4 4-7 8-8-2 3-6 6-6 10v1l-1 1v1l1 1c1 0 1 0 0 0zm23-1l-5-3-1-1 3 1 3-1-2 1h-1l-3-1-2-2-1-2 1-1v-1l-2 3 2 2-6-2 3-4-4 4h-1l-3 2c0-3 3-5 5-7V9c-2 3-5 5-5 8l-3 2c0-4 3-7 5-10h2l4 1c5 2 10 6 14 10l-3 2zm0 0" fill="#9cab2d"/><path d="M200 25h0zm-29-6c0-4 4-7 6-10-2 3-5 6-5 10h-1zm27 5l1-2v1a6 6 0 0 1-1 1zm-23-7c0-3 3-5 5-8v1c-2 2-5 4-5 7zm20 5h-1l3-2-2 2zm-15-7h-1l4-4-3 4zm11 4l-3-1-2-1-2-2 2-3v1l-1 1 1 2 2 2 3 1h1l2-1-3 1zm0 0" fill="#bbcb33"/><path d="M58 60v-1l1-4 2 1-2 3-1 1zm3-5h-1l-1-1 3-4 1 1h0l-2 4zm2-5h-1v-1l1-3v1h1l3-1-2 4h-2zm1-3v-1l3-4 3-5-2 6-2 3h-1l-1 1zm6-5l1-5 3-3v-1l1 1-1 2-4 6zm5-9l2-3h1l-3 3zm4-4h-1l2-2v1l-1 1zm0 0" fill="#8d9a32"/><path d="M64 47h-1v-1a3 3 0 0 1 1 0v1l1-1h1l2-3 2-6h1l-1 5-1 1-2 3-3 1zm-1 4l-1-1v-1 1h3l-1 1h-1zm12-17l-1-1h1v1zM61 56l-2-1v-1l1 1h1v1zm16-26l1-1h1l-1 1h-1zm0 0" fill="#afc02d"/><path d="M233 72c0-3-1-6-3-8l-5-11-14-19 2 2 5 4c4 4 6 8 9 13l6 12v7zm-2-12l-4-7-4-8 4 7 4 8zm-15-22l-3-3-2-2 5 5zm0 0" fill="#8d9a32"/><path d="M233 65l-6-12c-3-5-5-9-9-13l-5-4-2-2v-1c-1 0 0 0 0 0l2 2 3 3 7 7 4 8 4 7 2 5zm0 0" fill="#afc02d"/><path d="M254 117h-1 1zm-1 0zm0 0zm0 0zm0 0zm-1 0zm0 0zm0 0zm0 0zm0 0" fill="#5f582b"/><path d="M222 115a78 78 0 0 0-1-1l-1-1 1 1 1 1zm-2-2zm0 0zm-1 0zm0-2zm-200 0l-2-1 2 1c3 0 7-1 9-4-2 3-6 4-9 4zm200-2zm0 0" fill="#272624"/><path d="M253 107zm-3-4h-1 1zm-1 0zm0 0" fill="#687d39"/><path d="M239 102l-4-3h1l2-1 1-2v2l1 1-1 1v2zm0 0" fill="#272624"/><path d="M249 101l-1-2 1 2zm0 0" fill="#687d39"/><path d="M48 100zm1 0zm0 0zm0 0zm0 0v-1 1zm0-1zm0 0zm0 0zm0 0zm0 0zm0 0zm163-3l-2-3-1-3 1 3 2 3zm-26-1zm0 0zm0 0zm-1 0zm0 0l-4-9v-2l4 11zm55 0v-2l1-4v3l-1 2v1zm-33-7l-3-2v-1l4 3-1-1v1zm36-2h-1 1zm-1 0zm0 0zm0 0zm0 0zm0 0zM42 84l2-1 1-1-1 1-2 1zm138 0l-1-4c-2-5-4-9-8-12l-1-1 5 3 2 1-1 2 1 2 1 2v1a30 30 0 0 1 2 6zm22-1l-2-1-4-2 2-1v-1l4 5zM46 82l1-2 2-5v-2l-1 3 1 3 2-1-5 4zm142-6l-4-2 2 1 2 1zM56 74h1-1zm4 0v-1l-1-1-1 1 8-6-1 1-4 5-1 1zm0 0" fill="#272624"/><path d="M236 66zm0 0zm0 0zm0 0zm0 0zm0 0zm0 0zm0 0" fill="#687d39"/><path d="M69 65h0zm0 0zm-16-2zm99-4h-1 1zm-2 0l-4-2h1l1-3 2 5zm-60-3zm57-3v-1l-1-5v-5a62 62 0 0 0 0 2v2l1 7zm-56-9l1-4v2l-1 2zm4-11zm0 0" fill="#272624"/><path d="M49 79l-1-3 1-3 1-4 1-2 2-4a25 25 0 0 1 2-5v1l-2 4v5h1l5-1 2-1 7-4 9-5c3-2 6-3 8-6 6-6 9-14 11-21v-1 2l-1 2-3 7-1 4-2 9-1 2-5 3-12 6h-1l-1 1a35 35 0 0 0-3 2l-8 6-1 1h-1l-4 3-1 1-2 1zm187 20h-1l-1-1-12-5-6-2-3-1-2-1-3-1-4-3-2-2-4-5v-2l-1-8-4-16-1-4 6 16 3 6 3 9h1c2 3 6 4 10 6l7 2 8 4 3 1 2-1 2-4 1-6-1-6-3-8-2-5-2-8 6 12 4 11 2 7v2l-1 3a25 25 0 0 0-1 6l-1 1-1 2a4 4 0 0 1-2 1zm0 0" fill="#3d412a"/><path d="M184 97h-2l-3-2a97 97 0 0 0-7-2v-2l4 1h1l3-2-2-7-2-3c0-4-4-9-5-10-3-3-6-4-9-5l-14-5h-1v1l2 5v1l1 5v-1l-2-6a28 28 0 0 0-6-8h4l4 2h2l5 3 12 4 1 1 1 1c4 3 6 7 8 12l1 4h1v1l3 7v1l1 3-1 1zm0 0" fill="#373929"/><path d="M145 57h-3c-4-5-11-9-21-9h-5c-13 0-17 3-23 8l-1 1-2-1-1-2v-1l2-9 1-2v-2l3-7 1-2c0 4-2 8-1 12l-2 6 3 2 2-1 10-3 11-1h3l11 1 6 2h2l1-1v-1a66 66 0 0 1-1-8v-2l1-11 1 2 1 2v5l2 7v5l1 5v1l1 1-1 3h-2zm0 0" fill="#434b29"/><path d="M30 109l-1-1v-1-1l2-3 3-5 2-5 2-3 1-3 2-1 1-2 2-1 1-1h1l5-4 1-1 4-3h1l1-1 1-1 1 1v1l-1 4-3 6-2 5v2l-1 2v2l-4 4v1h-1l-11 6-5 2h-1a1 1 0 0 1-1 1zm8-16v1l-3 5c-1 1-1 4 1 4l3-1 4-2c3-1 5-3 6-7l2-4 1-3 3-3c1-2 3-5 3-8l-1-1v1l-2 1-11 8a19 19 0 0 0-4 4l-2 5zm0 0" fill="#333328"/><path d="M218 114h-1l-11-4-10-6-8-5-2-3v-1h-1l-4-11h-1a560 560 0 0 1-2-6v-1l-1-2-1-2 1-2 4 2 3 1 4 2 3 2 5 2 4 2 2 1 2 2v1l3 2 1 2h1l1 3 2 3 3 5 2 3a59 59 0 0 1 2 7v2l-1 1zm-31-26l3 8 5 5 10 4c3 2 5 4 8 4s3-2 2-3l-5-7-5-8v-1l-2-2-7-5-4-2-3-2-2-1-8-4-1 1c3 5 5 10 9 13zm68 29h-3l-3-2v-1l-8-8-2-4v-2l1-1 2 1 5 2h1l1 1h1l-6-1h-2v1l2 3 3 2 2 2 3 3 3 1 4-1h-1l-3 1-3-1-3-4h2l2 2 2 1 2-1h-1l-4-2-1-1h2v-1a16 16 0 0 0 5 4l4 2 1 1v1h-2c-1 2-4 2-6 2zm4-5v1zm0 0" fill="#3d412a"/><path d="M196 80l-5-2-3-2a10 10 0 0 0-2-1l-2-1-3-1a25 25 0 0 1-6-3l-5-3-1-1-12-4-5-3h-1-1l-2-5-1-1-1-7v-2a62 62 0 0 1 0-2l-2-7v-5l-1-2 3 7c1 3 1 7 3 10l2 3c1 3 1 6 4 9l8 4 11 6a227 227 0 0 0 16 7c2 0 3-1 3-2v-4a238 238 0 0 0-2-6v-9l-1-9 2 4 1 4 4 16 1 8v3l-2 1zm0 0" fill="#42512c"/><path d="M245 118h-6l-14-2-3-1a78 78 0 0 0-1-1l-1-1-1-2v-2l-2-5-2-3-3-5-2-3-1-3h-1a4 4 0 0 1-1-2v-1l1 1 3 1 2 1 3 1 6 2 12 5 1 1 4 3 2 4 8 8v1l1 1v1l-1 1h-4zm-29-19l1 2 4 7 3 5 6 1 9 2h1l5-2-1-2-2-3-3-3a838 838 0 0 1-4-5c-2-2-5-2-8-3l-13-6v4l2 3zm0 0" fill="#333328"/><path d="M247 102l-5-2-2-1-1-1v-2l1-1v-1l1-2v-3l1-3h1v1l-1 6v4l4 2h1v-1c-2 0-4 0-4-2v-1l1 1 1 1h1l-1-1 1-1 2 4 1 2-1 1h-1zm0 0" fill="#42512c"/><path d="M54 97l-1-1v-1-2l1-2v-1-1l2-5 3-6 1-4 1-1 4-5 1-1a35 35 0 0 1 3-2h1l1-1 8-4 9-3 1-1 2 1-7 8v-1l3-5v-1h-1c-2 0-4 2-5 3l-2 1-4 2c-6 3-14 7-14 14l-3 6c0 2-2 6 0 7h3v3l-4 1-3 2zm0 0" fill="#373929"/><path d="M19 111l-2-1 1-1 1-1 4-2 6-7 5-7 4-5 1-1v1l-1 3-2 3-2 5-3 5-2 3-1 1c-2 3-6 4-9 4zm0 0" fill="#3d412a"/><path d="M39 86v-1-2l4-5 7-12h1v1l-1 2a82 82 0 0 0-1 4v2l-2 5-1 2h-1l-1 1-2 1-1 2h-2zm0 0" fill="#42512c"/><path d="M239 114h-6l-6-1c-2 0-3-2-5-3l-4-9 2 2 1 2 2 3c2 3 4 3 6 4h10c2-1-1-4-3-6l1-1 4 5 2 2c2 3-3 2-4 2zm-1-3h-6l-6-1-4-5v-1l3 1 1 3c2 2 5 2 7 2s2-2 1-3l1-1a699 699 0 0 1 2 2c0 1 3 3 1 3zm-5-1v-1l-5-1-3-3h1a25 25 0 0 1 2 1l1 1h2v-1h2v1h1v2a1 1 0 0 1-1 1zm0 0" fill="#333328"/><path d="M213 108h-1l-3-1-7-4-7-3-5-6-2-5 2 1 2 3c1 3 3 5 7 6 3 2 6 4 9 4h1v-1l-1-3-3-5v-2l5 7 4 8 1 1h-2zm0 0" fill="#3d412a"/><path d="M230 107h-1l-1-1h2v1zm0 0" fill="#333328"/><path d="M207 102l-6-2c-3-2-6-3-7-5l-2-4 3 2 2 3 4 2h3l-1-3 1-1 1 1 2 4 1 3h-1zm0 0" fill="#3d412a"/><path d="M36 102l-1-1 2-4 2-4h1l-2 6h1l4-2 3-2 2-5 1-1 1-1-2 5c0 3-2 5-5 6l-5 3h-2zm3-4l1-3 1-2h1v1 1h2l1-3v-1h1v1l-2 3-2 2-2 1h-1zm0 0" fill="#333328"/><path d="M202 97h-1l-3-1-2-3 2 1 1 1 1-1a7 7 0 0 0 2 1l1 1-1 1zm0 0" fill="#3d412a"/><path d="M42 95l1-2 2-1-2 3h-1zm0 0" fill="#333328"/><path d="M177 91a8 8 0 0 1-3 0l-3-2-1-2h3c1 0 2 0 2-2v-3h1v-1l1 1 2 6-1 3h-1zm0 0" fill="#373929"/><path d="M233 91l-5-2c-4-3-9-4-13-5-4-2-8-3-10-6l-2-6 1 1 7 5 1 1 5 2 3 1 4 2 2 1 5 2 1-1 1-2v-2-10l2 4-2-9 3 6v2l1 5v6l-2 4-2 1zm0 0" fill="#3d412a"/><path d="M59 90l-1-2 2-6 2-3h1l-1 2-1 4v5h-2zm114-3l-5-1v-1l-7-3h-1c-3-2-4-5-5-8v-1l2 2 2 4 7 4 4 2h1v-4h2l1 1 1 4-2 1zm0 0" fill="#373929"/><path d="M231 86l-2-1-2-1h2l3-1v1l-1 2zm0 0" fill="#3d412a"/><path d="M170 84h-1l-4-2-5-4h-1l-1-2a17 17 0 0 0 3 1l2 3 4 2h1l1-2h-1 2v4zm-11-3h-3l-1-1-3-5-2-7 1 1 2 3 2 5 4 4zm9 0l-2-1-3-1-1-1 6 2v1zm-14-1h-1v-1l1 1zm-84-4l5-3v-1l-1 3-4 1zm5-1l1-3 1-1-1 2v1l-1 1zm2-1l1-2 1-3 3-3 1-1v2l-3 5-2 2h-1zm0 0" fill="#373929"/><path d="M190 73l-1-1-5-2-9-4-11-5-7-3c-3-2-4-6-5-9a26 26 0 0 0 3 3l1 1c1 3 5 5 8 7l13 5 7 3 3 1c2 0 2-1 2-4l1-2 2 6v3l-2 1zm-3-5l-4-1-6-3-13-5c-3-1-6-3-8-6l9 5h3l8 4a51 51 0 0 0 8 3h4v3h-1zm0 0" fill="#42512c"/><path d="M54 68l-1-1v-3l2-3v3l3 2h1l-2 1-3 1zm0 0" fill="#3d412a"/><path d="M183 64h-2l-7-3h1l8 3zm0 0" fill="#42512c"/><path d="M96 50c-3 0-1-3 0-6 0 2 2 3 3 3h2l10-2 15-2h9l2-1 3-2 1 6c0 2-1 2-2 2l-4-1-3-1-4-1h-7c-6 0-12 0-17 2-3 1-5 3-8 3zm0 0" fill="#434b29"/><path d="M96 51l-3-2 2-6 1 1c-1 3-3 6 0 6s5-2 8-3c6-2 11-2 17-2h7l4 1 3 1 4 1c1 0 2 0 2-2l-1-6 1-1 1 8v1l-1 1h-2l-6-2-11-1h-3l-11 1-10 3-2 1zm0 0M133 43h-3 5-2zm0 0" fill="#4b5e2f"/><path d="M54 68h-1v-5l2-4v2l-2 3v3l1 1 3-1 2-1h2l-2 1-5 1zm0 0" fill="#49582d"/><path d="M59 91h-1c-2-1 0-5 0-7l3-6v1h1l-2 3-2 6 1 2h2v1h-2zm24-24v-2l1-1v1a6 6 0 0 1-1 2zm-8-3l4-2-4 2zm1 10v-1l1-2 2-2-1 3-1 2h-1zm-2 1l1-3h1l-1 3h-1zm0 0" fill="#47522c"/><path d="M36 103c-2 0-2-3-1-4l3-5v-1h1l-2 4-2 4 1 1h2l5-3c3-1 5-3 5-6l2-5 2-2-1 3-2 4c-1 4-3 6-6 7l-4 2-3 1zm0 0" fill="#434d2a"/><path d="M39 99h-1l2-6h1l-1 2-1 3h1l2-1 2-2 2-3v-1l2-1-2 5-3 2-4 2zm0 0" fill="#434d2a"/><path d="M42 95v-1-1h1l-1 2h1l2-3v-1 1l-1 3h-2zm0 0" fill="#434d2a"/><path d="M190 74l-6-3-10-4-11-6-8-4c-3-3-3-6-4-9l1 1c1 3 2 7 5 9l7 3 11 5a385 385 0 0 1 14 6l1 1 2-1v-3l-2-6 1-1a239 239 0 0 1 2 10c0 1-1 2-3 2zm0 0" fill="#496231"/><path d="M187 69l-3-1-7-3-13-5c-3-2-7-4-8-7l-1-1 1 1c2 3 5 5 8 6l13 5 6 3 4 1h1v-3h1c0 3 0 4-2 4zm0 0" fill="#496231"/><path d="M184 65l-3-1a51 51 0 0 1-5-2l-8-4 6 3a89 89 0 0 0 9 3l1 1h0zm0 0" fill="#496231"/><path d="M233 92l-3-1-8-4-7-2c-4-2-8-3-10-6h-1l-3-9 2 2 2 6c2 3 6 4 10 6 4 1 9 2 13 5l5 2 2-1 2-4v-6l-1-5v-2l-3-6v-2l-1-3 2 5 3 8 1 6-1 6-2 4-2 1zm0 0" fill="#49582d"/><path d="M231 87l-5-2-2-1h3l2 1 2 1 1-2v-1l1-1v2l-1 2-1 1zm-14-6l-5-2 5 2zm0 0" fill="#49582d"/><path d="M240 116h-1l-9-2-6-1-3-5-4-7-1-2a9 9 0 0 0 2 2l4 9c2 1 3 3 5 3l6 1h6c1 0 6 1 4-2l-2-2-4-5v-1l2 2 3 3 2 3 1 2-5 2zm0 0" fill="#434d2a"/><path d="M236 112h-7c-2-1-4-1-6-4l-2-3-1-2h1l1 1v1l4 5 6 1h6c2 0-1-2-1-3l-2-2h1c2 2 5 5 3 6h-3zm0 0" fill="#434d2a"/><path d="M233 110c-2 0-5 0-7-2l-1-3 3 3 5 1v1l1-1v-2h-1 1c1 1 1 3-1 3zm0 0" fill="#434d2a"/><path d="M230 107h-1l-1-1 1 1h1v-1h1v1h-1zm0 0" fill="#434d2a"/><path d="M255 114l-3-1-3-3-2-2 2 1 3 4 3 1 3-1h1l-4 1zm0 0" fill="#49582d"/><path d="M255 112l-2-1-2-2v-1l1 1 4 2h1l-2 1zm0 0" fill="#49582d"/><path d="M246 99l-4-2v-3l1 1v1c0 2 2 2 4 2v1h-1zm0 0" fill="#496231"/><path d="M245 97l-1-1h1l1 1h-1zm0 0" fill="#496231"/><path d="M213 109c-3 0-5-2-8-4l-10-4-5-5-3-8 1 1 2 5 5 6 7 3 7 4 3 1h3l-1-1-4-8-5-7v-2 1l5 8 5 7c1 1 1 3-2 3zm-21-28l-3-2 3 2zm0 0" fill="#49582d"/><path d="M208 103c-3 0-6-2-10-4-3-1-5-3-6-6l-2-3 2 1 2 4c1 2 4 3 7 5l6 2h1l-1-3-2-4a3 3 0 0 0-1-1h1l3 5 1 3a3 3 0 0 1 0 1h-1zm0 0" fill="#49582d"/><path d="M202 98h-1l-4-2-2-3h1l2 3 3 1h1l1-1-1-1h1l1 3h-2zm0 0" fill="#49582d"/><path d="M199 95l-1-1h2l-1 1zm0 0" fill="#49582d"/><path d="M177 92h-1l-4-1-1-2 4 2a8 8 0 0 0 2 0h1l1-3-2-6-1-1v-1l2 3 2 7-3 2zm-22-12h-1l-1-1-3-7-1-5v-1l1 2 2 7 3 5zm0 0" fill="#47522c"/><path d="M173 87h-2-1l-2-1 5 1 1-1v-4l1 3c0 2-1 2-2 2zm-12-5l-2-1-4-4-2-5 2 1v1a14 14 0 0 0 6 8zm0 0" fill="#47522c"/><path d="M170 85l-4-2-7-4-2-4 1 1 1 2h1l5 4 4 2h1v-3-1l1 1v4h-1zm0 0" fill="#47522c"/><path d="M168 82h-1l-4-2-2-3 1 1 1 1 3 1 2 1v-1h1l-1 2zm0 0" fill="#47522c"/><path d="M235 76l-2-4v-4-3 2l2 9zm0 0" fill="#47512b"/><path d="M233 67v-1a1 1 0 0 1 0-1v2zm0 0" fill="#4d6230"/><path d="M78 74s8-13 15-18c6-5 11-9 28-8 16 1 24 10 27 17l5 15 15 5c4 2 7 7-1 22-9 15-19 33-55 34s-53-31-51-56c0-5 3-7 6-8l11-3zm0 0" fill="#d1c234"/><path d="M94 57c3-2 6-3 10-3h22c7 1 13 3 18 7l3 4c-3-7-10-16-26-17-17 0-22 3-28 8l-3 3 4-2zM67 80c3 1 6 0 9-1h5c1 0 5 0 3-2-4-3-9-2-14-1l-2 1-4 2 3 1zm90 1l-11-1s-5 1-4 2l6 2 14 2c2 1 5 2 6 0l-1-1-10-4zm0 0" fill="#e3d77c"/><path d="M168 104zm0 0a10 10 0 0 1 1-1l-1 1zm1-1zm0-1zm0 0zm0 0" fill="#907e2d"/><path d="M61 86v-1 1zm0-1zm1-4zm0 0zm94 0l-1-1 1 1zm-2-1h-1 1zm0 0" fill="#353629"/><path d="M155 80h-1 1zm0 0" fill="#42492a"/><path d="M153 80v-1 1zm-3-8v-1 1zm0 0" fill="#353629"/><path d="M153 79l-3-7 3 7zm0 0" fill="#42492a"/><path d="M78 74zm0 0zm0 0l2-2-2 2zm0 0" fill="#353629"/><path d="M139 132h-3c-7-4 2-19 5-23l5-3c2-1 5-3 5-6v-2c0-2-1-2-3-2l-3-3-2-4 8 4c3 2 6 5 9 5h1l7-2c2-2 3-4 3-7 1 3 1 7-2 13v1l-1 1c3-6 4-10 4-13l-5 14c-3 6-7 12-12 17-4 4-11 10-16 10zm-47-1h-1c-7-1-13-6-18-10-8-10-12-23-12-34 0 9 2 20 7 29v1c-5-10-8-21-7-31v-1l1-4v-1c0 6 1 13 6 16l3 1c3 0 7-4 9-8v1l-1 4-1 2s-2 5-4 6l-4 1c0 1 0 3 2 4 0 2 5 3 7 3s5 0 7 2c4 2 6 4 8 7 1 3 4 6 3 9 0 3-2 3-5 3zm21-2h-1c-3 0-7-1-9-3l-7-8 1-1 9 7 8 1h3c6 0 12-2 15-7l1-1v1c-2 3-4 7-7 8-4 2-9 3-13 3zm-45-12zm0 0zm100-13zm0 0zm-29-22zm0-1l1-1-1-10-2-3-2 1-2 5h-2c-4-4-11-5-15-5h-3c-4 0-13 0-19 3l-3 1-1-3-1-1-3 2c-1 1-3 4-2 6h-1l-5-2 2-2v2h1l3-2 3-3 2-2 2 2v0c1-1 0-5-1-5l-1-1-3 3c1-4 3-5 4-6h1c2 0 1 7 2 9h3c7-2 12-2 17-2h4c5 0 7 1 13 4 2 0 1-3 2-4 0-3 1-8 3-8l2 1 3 6-3-1v-1c-2 0-3 2-3 4l2-1 3 2 1 5 3 6 5-1h2l1-4-1-4v1l3 7v1h2l1 1-8-1h-2l-7 1zm0 0" fill="#b8a726"/><path d="M111 141h1-1zm-24-6zm0 0zm0 0zm0 0zm0 0zm0 0zm0 0" fill="#5f4d27"/><path d="M111 141zm0 0a48 48 0 0 1-17-3h1c4 2 10 3 16 3zm0 0" fill="#8b782d"/><path d="M111 141h1-1zm-16-3zm0 0zm-1 0zm0 0zm0 0zm0 0zm0 0zm0 0zm0 0" fill="#7c692c"/><path d="M155 125l12-18 1-3-1 3-12 18zm13-21zm0 0" fill="#705c2a"/><path d="M167 107zm0 0zm0 0zm0 0zm0 0" fill="#8b782d"/><path d="M155 125zm12-18zm0 0zm0 0zm0 0l1-3-1 3zm1-3zm0 0zm0 0" fill="#655228"/><path d="M130 139c17-4 26-14 32-24l-6 6-1 1c5-5 9-11 12-17l5-14c0 3-1 7-4 13l-1 3-12 18c-6 6-13 11-25 14zm0 0" fill="#7c692c"/><path d="M73 124v-1 1zm0-1zm0 0zm0 0zm0 0zm0 0" fill="#8b782d"/><path d="M73 121a403 403 0 0 1-5-6v1c-5-9-7-20-7-29 0 11 4 24 12 34zm-5-5zm0 0zm0 0zm0 0zm0 0" fill="#7c692c"/><path d="M87 79l-3-3 3 3zm0 0" fill="#b8a726"/><path d="M87 79l-3-3c-1-2 1-5 2-6l3-2 1 1 1 3 3-1-2 1-5 7zm0 0" fill="#a3922c"/><path d="M139 82v-1 1zm0 0" fill="#b8a726"/><path d="M139 82l-5-6-1-1v-1l-2-1h2l2-5 2-1 2 3 1 10-1 1v1zm0 0" fill="#a3922c"/><path d="M112 141zm0 0zm0 0zm0 0zm17-2zm0 0zm0 0zm0 0zm0 0zm0 0zm0 0zm0 0zm0 0zm1 0zm0 0zm0 0" fill="#7b662b"/><path d="M111 139c-17 0-30-8-38-18 5 4 11 9 18 10h1c3 0 5 0 5-3 1-3-2-6-3-9-2-3-4-5-8-7-2-2-5-2-7-2s-7-1-7-3l5 1h1l5-1 7 2 4 3 4 3 8 6 6 1h4l8-1c3-1 5-3 6-6l1-1c2-4 5-7 9-10h3c3 0 6-2 8-4 0 3-3 5-5 6l-5 3c-3 4-12 19-5 23h3c5 0 12-6 16-10-8 9-21 16-43 17h-1zm-9-11c2 6 7 7 12 7h1c7 0 13-2 15-9h-1l-6 2-7 2h-5l-9-2zm-5-11l-1 1 7 8c2 2 6 3 9 3h1c4 0 9-1 13-3 3-1 5-5 7-8v-1l-1 1c-3 5-9 7-15 7h-3l-8-1-9-7zm0 0" fill="#a3922c"/><path d="M73 124zm0-1zm0 0zm0 0zm0 0zm0 0l-5-6h1a71 71 0 0 0 4 6zm-5-6zm0 0zm0 0" fill="#b8a726"/><path d="M69 117zm0 0zm0 0zm0 0zm0 0h-1v-1l1 1zm-1-1zm0 0zm0 0zm0 0zm0 0" fill="#a3922c"/><path d="M95 138zm0 0zm0 0h-1 1zm-1 0zm0 0zm0 0zm0 0zm0 0zm0 0c-9-3-15-8-21-14v-1a71 71 0 0 1-4-6c5 9 14 17 25 21zm-25-21zm0 0zm0 0zm0 0zm0 0" fill="#7c692c"/><path d="M111 141c-6 0-12-1-16-3h-1c-11-4-20-12-25-21l-1-1v-1l4 4 1 2c8 10 21 18 38 18h1c22-1 35-8 43-17l1-1 6-6c-6 10-15 20-32 24h-1l-17 2h-1zm0 0" fill="#705c2a"/><path d="M78 96c2-7 9-20 14-24s16-4 21-4 14 0 20 7l12 18c2 4 6 2 6 5 0 2-4 6-8 6-4 1-17-2-25-4s-13-2-21 2l-19 6c-7 0-8-3-8-5l4-1c2-1 4-6 4-6zm0 0" fill="#d1c234"/><path d="M101 86l-4-1 3-3 3-4v-3h1l3 3c1 1 0 4-1 5-1 2-2 3-4 3h-1zm3-10l2 3-2 1-1 2 1 2h1l1-4 1-1-1-1-1-1-1-1zm17 10h-1-1c-3-1-9-3-6-8l4-3v2l1 2 3 3 2 2c0 2-1 2-2 2zm-5-2l1-2-1-2-1-1 1-3-1 1-1 1-1 1v1l2 4h1zm0 0" fill="#c2b120"/><path d="M70 103l4-1-4 1zm81-5c0-2-1-2-3-2 2 0 3 0 3 2zm-72-4l1-4-1 3v1zm0 0" fill="#a3922c"/><path d="M77 108c-6 0-7-3-7-5l4-1c2-1 4-6 4-6s-2 5-4 6h-2l8-1h1-3l-1-1 2-7 2-4-2 4 1-3a74 74 0 0 1 3-6l-1 4-3 11v1l6-1 7-4-8 5-12 3c1 2 2 2 4 2l8-2c6-2 12-6 19-7a19 19 0 0 1 5-1c7 0 14 4 21 5l10 2c4 0 7-1 10-3 2-2-1-3-2-3l-6 2h-1l-6-1a15 15 0 0 0 6 1h1l5-2h2c2 0 3 0 3 2s-4 6-8 6l4-2-2 1h-4c-3 1-6 0-9-1-7-2-15-5-23-5l-5 1c-8 2-15 7-24 9h-8l5 1h1-1zm63-11h-3l-5-1h8c2 1 3 0 4-1l-2-5-4-7-1-3 2 3 4 6c0 1 3 5 2 6-1 2-3 2-5 2zm0 0" fill="#b8a726"/><path d="M148 96l-2-2-1-1 3 3zm0 0" fill="#a3922c"/><path d="M134 97l-2-1 2 1zm0 0" fill="#b8a726"/><path d="M148 96zm0 0" fill="#907e2d"/><path d="M140 98l-6-1-2-1 5 1h3c2 0 4 0 5-2 1-1-2-5-2-6l-4-6-2-3 8 13 1 1 2 2h-2l-5 2h-1zm0 0" fill="#a3922c"/><path d="M141 104h2-2zm2 0zm-45-3zm0 0zm0 0zm0 0zm1 0zm0 0l2-1-2 1zm2-1zm0 0zm0 0zm0 0zm0 0zm0 0zm0 0" fill="#826f2c"/><path d="M77 108l-5-1h8c9-2 16-7 24-9l5-1c8 0 16 3 23 5l9 2 4-1 2-1-4 2h-5l-8-1h-1l-11-3h-1l-8-1-8 1-2 1h-1l-1 1-3 1h-1v1l-7 2-2 1h-1l-5 1h-1zm1-12l1-2-1 2zm0 0" fill="#a3922c"/><path d="M78 96l1-2v-1l-1 3zm0 0" fill="#907e2d"/><path d="M72 102h2c2-1 4-6 4-6l1-3 2-4-2 4-2 7 1 1h3-1l-8 1zm0 0" fill="#a3922c"/><path d="M101 71c10-2 28-2 35 8l-3-4c-6-7-15-7-20-7s-16 0-21 4l-6 8c3-4 4-6 8-8a50 50 0 0 1 3 0l4-1zm0 0" fill="#e3d77c"/><path d="M116 84l1-1-1-1-1-2-1-1 1-2 1-1-1 3 1 1 1 2-1 2zm0 0M116 84h-1l-2-4v-1 1l2 4h1zm-2-6l1-1-1 1zm0 0" fill="#7b5728"/><path d="M116 84h-1l-2-4v-1l1-1 1-1-1 2 1 1 1 2 1 1-1 1zm0 0" fill="#4d3626"/><path d="M104 84l-1-2 1-2 2-1-2-3 1 1 1 2-1 1-1 2-1 1 1 1h1-1zm1 0l1-4 1-1-1 1-1 4zm1-6l-1-1 1 1zm0 0" fill="#7b5728"/><path d="M104 84l-1-1 1-1 1-2 1-1-1-2 1 1 1 1-1 1-1 4h-1zm0 0" fill="#4d3626"/><path d="M138 104l-20-4c-8-2-13-2-21 2a65 65 0 0 1-14 5l7 2 8 6 8 6c3 2 6 2 10 1l8-1c3-1 5-3 6-6 2-4 6-8 10-11h-2zm0 0" fill="#6b2921"/><path d="M94 112l-4-3 4 3zm0 0" fill="#795227"/><path d="M131 114a35 35 0 0 0-6-1h-1v-3l-2-3 5-3 3-1 8 1h2c-4 3-7 6-9 10zm-37-2l-4-3a18 18 0 0 0-7-2h2l8-3h1l3 4-3 4zm0-9l3-1a29 29 0 0 1 21-2l11 3v-1l-11-2-9-1-12 3-3 1zm0 0" fill="#4c2a25"/><path d="M117 114l-7 4-4 4h10l8-1c3-1 5-3 6-6l1-1h-14zm0 0" fill="#ec6c74"/><path d="M118 122c4-2 7-5 6-9h1l6 1-1 1c-1 3-3 5-6 6l-6 1zm0 0" fill="#d94648"/><path d="M129 102l-11-2c-8-2-13-2-21 2l-3 1h-1c2 3 4 6 8 6 4 2 9 1 14 0 4-1 8-2 12-5l3-1-1-1zm0 0" fill="#fffdf6"/><path d="M99 109l-2-1 2 1zm0 0" fill="#602a23"/><path d="M127 104l3-1-3 1zm-33 0l-1-1 1 1zm0 0" fill="#452a26"/><path d="M99 109l-2-1-3-4h-1v-1h1l3-1a29 29 0 0 1 21-2l11 2 1 1-3 1a25 25 0 0 1-5 3l-2-3c-2-2-6-2-9-2h-1c-3 0-7 1-10 3-1 1-2 2-1 4zm0 0" fill="#e5e5da"/><path d="M114 135c-5 0-10-1-12-7l9 2h5l7-2 6-2h1c-2 7-8 9-15 9h-1zm0 0" fill="#94812d"/><path d="M135 60c2 0 3 3 4 4h-1c-1-1-1-2-3-1l-3 2 3-5zm-45 1c-1-1-2 2-3 3 1-1 2-2 3-1l2 1-2-3zm0 0" fill="#735026"/><path d="M136 68c1-1 2 4 2 6s-1 3-2 3c-2 0-2-7 0-9zm0 0" fill="#252422"/><path d="M137 70v2l-1-1v-2l1 1zm0 0" fill="#fefefe"/><path d="M89 69c0-2-3 2-3 4v4c1 0 4-6 3-8zm0 0" fill="#252422"/><path d="M88 70l-1 2 1-1 1-2-1 1zm0 0" fill="#fefefe"/><path d="M137 98l-13-4-13-3c-8 0-16 3-22 7v1c7-4 14-7 23-6l13 3 15 3-3-1zm-30-21h-1c2 2 1 4 0 6h1v-6zm7 7l-1-3v-4l-1 4 2 3zm0 0" fill="#e3d77c"/><path d="M39 170c3-3 11 1 14 7 2 6 4 10-3 13-6 3-8 3-11-4-4-7-3-14 0-16zm0 0" fill="#f4f4ed"/><path d="M44 192zm0 0zm6-2c3-2 5-3 5-5 0 2-2 3-5 5zm0 0" fill="#e4e4e5"/><path d="M44 192c-2 0-3-1-4-4l-1-4-3-6 2-8c-1 6 1 15 6 15l4-1c4-1 3-6 2-9l-3-5 6 7 2 7v1c0 2-2 3-5 5l-6 2zm0 0" fill="#d8d7cf"/><path d="M20 173c4-1 5 6 6 12s1 10-4 9c-6-1-9-2-8-10 0-8 3-11 6-11zm0 0" fill="#f4f4ed"/><path d="M23 194zm0 0zm-1 0zm0 0" fill="#e4e4e5"/><path d="M23 194h-1c-6-1-8-2-8-9v-3l1-5-1 7 1 4 3 1c3-1 2-4 2-6l2-9 2 2c-2 3-2 8-1 11v2l2 5h-2zm0 0" fill="#d8d7cf"/><path d="M28 171c3 0 9 6 11 13 1 7 3 9-5 11-7 1-10 0-11-6s-1-16 5-18zm0 0" fill="#f4f4ed"/><path d="M29 195zm0 0h5-5zm5 0zm0 0zm0 0c4-1 6-2 6-4 0 2-2 3-6 4zm0 0" fill="#f2f0f0"/><path d="M23 189zm0 0zm0 0v-2 2zm0-2zm0 0zm0 0zm0 0" fill="#cac8bf"/><path d="M29 195c-3 0-5-1-6-6v-2c-1-4-1-10 1-13v11c0 3 3 5 6 5h1c8-1 6-9 3-15l5 9 1 7c0 2-2 3-6 4h-5zm0 0" fill="#e3e2dc"/><path d="M227 175c3-1 7 4 8 7 2 3 5 9-1 12-7 3-10 3-11-3-1-7-1-14 4-16zm-22 1c4-1 7 10 6 15-1 6 1 10-7 9s-9-2-8-8c1-7 4-15 9-16zm0 0" fill="#f4f4ed"/><path d="M228 196zm0 0zm5-2zm1 0zm0 0" fill="#e4e4e5"/><path d="M228 196h-2v-2l-1-6v-1l-2-6 2-5 2 9c1 2 2 5 4 5l2-1c3-2 2-7 0-10l2 3 2 7v3l-3 2h-1c-2 2-4 2-5 2zm0 0" fill="#d8d7cf"/><path d="M206 200zm0 0c3 0 4-1 4-2 0 1-1 2-4 2zm0 0" fill="#e4e4e5"/><path d="M196 192v-2 2zm0-2zm0 0" fill="#80702d"/><path d="M206 200h-2c-6-1-9-2-9-5l1-3v-2l3-9c-2 5-3 12 3 13h1l2-1 2-5 2-8 1 3-1 3a24 24 0 0 0 0 5l1 7c0 1-1 2-4 2zm0 0" fill="#d8d7cf"/><path d="M216 175c5-1 8 6 9 13s3 10-6 11c-9 2-10-1-10-8s3-15 7-16zm0 0" fill="#f4f4ed"/><path d="M215 200zm0 0l4-1-4 1zm4-1zm0 0zm0 0" fill="#f2f0f0"/><path d="M209 191zm16-3v-1 1zm0-1zm0 0" fill="#cac8bf"/><path d="M215 200c-5 0-6-3-6-9v-5l2-6c-1 4-2 8 1 11l6 3 3-1c3-2 3-7 3-10l-1-2 2 6v1l1 6v2c-1 2-3 3-7 3l-4 1zm0 0" fill="#e3e2dc"/><path d="M277 153c3-1 6 2 6 6 0 3 0 7-3 8s-5-5-5-8c0-4 1-6 2-6zm0 0" fill="#f4f4ed"/><path d="M280 167c2-1 3-3 3-6l-1 1h-1l-2-1v-1l-1-3-1-1 1-4-1 1-2 2 2-2 1-1c2 0 5 3 5 7v2c0 2-1 5-3 6zm0 0" fill="#d8d7cf"/><path d="M280 167l1-2-2-4 2 1h1l1-1c0 3-1 5-3 6zm-2-10l-3-2 2-2 1-1-1 4 1 1zm0 0" fill="#bfbdb4"/><path d="M273 156c2-3 5 0 6 4s4 7-2 10c-5 3-4 0-5-5s-1-8 1-9zm0 0" fill="#f4f4ed"/><path d="M274 171zm0 0zm3-1zm0 0zm0 0c4-3 4-5 3-7l-3 3-2-1-2-6v-4a3 3 0 0 0 0 1l1-1c2 0 4 2 5 5l2 5c0 2-1 3-4 5zm0 0" fill="#d8d7cf"/><path d="M274 171zm0 0zm3-1zm0 0" fill="#e4e4e5"/><path d="M274 171v-2l-1-4v-2l-2-2v-1l2-4v-1 4l2 6 2 1 3-3c1 2 1 4-3 7l-3 1zm0 0" fill="#bfbdb4"/><path d="M266 158c2-1 6 3 7 7s2 7-3 10c-5 2-7 2-7-5-1-7 1-10 3-12zm0 0" fill="#f4f4ed"/><path d="M266 176zm0 0c-2 0-3-2-3-6 0 4 1 6 3 6zm2-5c-2 0-3-3-3-5-1-3 0-5 1-7l-3 4 3-5h1c2 0 4 2 6 5v3l-4 5h-1zm-5-1zm11-1l-1-4v-2 2l1 4zm0 0" fill="#d8d7cf"/><path d="M266 176zm0 0l4-1 4-4-4 4-4 1zm0 0" fill="#f2f0f0"/><path d="M263 170zm0 0a27 27 0 0 1 0-2v2zm0 0" fill="#7d6b2c"/><path d="M273 163zm0 0" fill="#b0aea5"/><path d="M266 176c-2 0-3-2-3-6v-2-5l3-4c-1 2-2 4-1 7 0 2 1 5 3 5h1l4-5v-3 2l1 4v2l-4 4-4 1zm0 0" fill="#cac8bf"/><path d="M22 154h-1c-6-5 1-15 5-17l1-1c3 0 2 8 2 10-1 2-4 8-7 8zm4-17h1v-1l-1 1zm0 0" fill="#bca225"/><path d="M13 148l-2-1c-2-3 1-11 5-11h-1 1l1 1c3 1 0 11-4 11zm0 0" fill="#c3ac27"/><path d="M10 155l-4-6-1-2 1-1 3-1 1 1v9zm0 0" fill="#b39528"/><path d="M7 157l-3-3 1-7 1 2 4 6H9l-2 2zm0 0" fill="#9d802b"/><path d="M19 130v-1c-3 0 1-8 4-8s-1 9-4 9zm4-9h-1 1zm0 0" fill="#b39528"/><path d="M20 137c-2 0 0-5 1-6h-1 1c1 0 1 4-1 5v1zm0 0" fill="#c3ac27"/><path d="M8 170l-3-2 1-1h1l1 3zm0 0" fill="#aa952a"/><path d="M7 176H6c-2-2-2-7-1-8l3 2-1 6zm0 0" fill="#98812c"/><path d="M7 168v-1 1zm0 0" fill="#aa952a"/><path d="M4 163H3l-1-2 1-4 1 1h0c2 1 1 5 0 5zm0 0" fill="#9d802b"/><path d="M3 163l-1-2 1 2zm0 0" fill="#8d702b"/><path d="M13 133l-1-1 3-4 1 1c1 2-2 4-3 4zm3-3v-1 1zm12-7l-1-2c0-2 2-3 3-3h1c2 1-2 5-3 5zm3-5h-1 1zm11 7c-1-1 3-4 4-4h1l-3 2-2 2zm0 0" fill="#c3ac27"/><path d="M43 126l-1-1 2-2 3-2v2c0 1-2 3-4 3zm0 0" fill="#aa952a"/><path d="M19 158h-3l1-2 1-1 1 2v1zm0 0" fill="#c3ac27"/><path d="M17 163c-2 0-2-1-2-2l1-3h3l-1 5h-1zm0 0" fill="#aa952a"/><path d="M74 129l-2-1c-1 0-3-5-1-5h1l1 1 2 4-1 1zm0 0" fill="#91742b"/><path d="M75 128l-2-4 2 4zm0 0" fill="#775b28"/><path d="M79 134l-3-2 1-1 2 2v1zm0 0" fill="#9c852c"/><path d="M79 133l-2-2 2 2zm0 0" fill="#82682b"/><path d="M80 133h-1 1zm0 0" fill="#9c852c"/><path d="M83 136l-1-1-1-1 2 1v1zm0 0" fill="#91742b"/><path d="M83 136v-1l-2-1 1-1 2 2-1 1zm0 0" fill="#775b28"/><path d="M137 142h-2l1-1 4-2c2 0-1 3-3 3zm0 0" fill="#91742b"/><path d="M136 142h-1 2-1zm0-1l4-2-4 2zm4-2zm-10 5c-2-1 1-3 3-3 2 1-1 3-3 3zm3-3zm0 0" fill="#775b28"/><path d="M149 140l-1-1c-1-3 3-6 5-6h1c3 1-2 7-5 7zm0 0" fill="#9c852c"/><path d="M157 138l-1-1c-2-2 2-4 3-4h1c1 0-1 5-3 5zm0 0" fill="#91742b"/><path d="M212 142h-1c-3 0-5-3-6-5-1-3-1-7 2-9h1c3 0 4 4 5 6 1 1 2 8-1 8zm0 0" fill="#c3ac27"/><path d="M203 143l-1-1-3-5h1c2 1 3 3 3 5v1zm0 0" fill="#b39528"/><path d="M201 146l-1-1c-2 0-2-3-2-4l1-4 3 5 1 1c0 2-1 3-2 3zm0 0" fill="#9d802b"/><path d="M203 142v-1 1zm-3-10l-1-1-4-4 2-4h1c2 1 4 9 2 9zm-1-8l-1-1 1 1zm0 0" fill="#b39528"/><path d="M191 122l-5-4c-1-1-1-4 1-4 2 1 4 2 4 4 1 0 2 4 0 4zm-3-8h-1 1zm4 15l-2-2v-3h1c1 0 5 4 2 5h-1zm0 0" fill="#c3ac27"/><path d="M192 129l-2-2 2 2zm0 0" fill="#aa952a"/><path d="M191 124zm0 0" fill="#c3ac27"/><path d="M200 158l-1-3 1 3zm0 0" fill="#aa952a"/><path d="M197 160l-2-4 1-4h1l2 3 1 3-2 2h-1zm0-8zm0 0" fill="#98812c"/><path d="M216 160l-4-3v-1l1-4 1 1c2 1 3 6 2 7zm0 0" fill="#b39528"/><path d="M215 161l-1-1-2-3 4 3-1 1zm0 0" fill="#9d802b"/><path d="M215 153h-2 2zm0 0" fill="#b39528"/><path d="M210 149l-1-1c-1 0-2-5 0-5 2 1 3 6 1 6zm0-5l-1-1v1h1zm14 5l-2-1c-2-1-4-4-3-6l2-1 2 1 2 5v-1 1c1 2 0 2-1 2zm0 0" fill="#c3ac27"/><path d="M219 138l-2-1v-4l2 2c2 2 1 3 0 3zm0-3zm0 0" fill="#b39528"/><path d="M213 128l-1-1c-2 0-5-2-4-5l1-2c3 1 7 8 4 8zm-3-7l-1-1 1 1zm0 0" fill="#c3ac27"/><path d="M232 141h-1c-1-1-3-2-3-4l1-3h1v1-1c2 1 3 3 3 6l-1 1zm0 0" fill="#b39528"/><path d="M236 153a10 10 0 0 1-1-3l1-4h1v1l-1 6zm0 0" fill="#c3ac27"/><path d="M238 154l-2-1 1-6v-1c2 0 5 7 2 8h-1zm0-8h-1 1zm-1 22l-2-2-1-4 2-2 1 1v-1 1h1-1c2 1 2 4 1 6l-1 1zm0 0" fill="#aa952a"/><path d="M42 114l-1-1c-1-2 2-3 4-3s-1 4-3 4zm0 0" fill="#c3ac27"/><path d="M243 131l-2-2 2-2 1 2-1 2zm0 0" fill="#8a722c"/><path d="M241 129l-1-1 1-2h2v1l-2 2zm0 0" fill="#7d632a"/><path d="M250 149l-3-6v-1h1l3 5-1 2zm0 0" fill="#8a722c"/><path d="M250 149l-2-1-2-4 1-2v1l3 6zm0 0" fill="#7d632a"/><path d="M249 143l-1-1 1 1zm0 0" fill="#8a722c"/><path d="M254 136c-4 0-8-8-3-9 3 0 5 6 4 8l-1 1zm0 0" fill="#91742b"/><path d="M262 141l-2-1c-1-1-2-3-1-5l1-1h1l2 6-1 1zm-1-6v-1a235861 235861 0 0 0 0 1zm1 17l-2-4v-1c2 0 3 2 3 3v1l-1 1zm0 0" fill="#9c852c"/><path d="M265 147l-2-3v-1l3 2-1 2zm0 0" fill="#91742b"/><path d="M273 143h-1c-1 0-5-5-2-5h1-1c3 0 4 5 3 5zm0 0" fill="#9c852c"/><path d="M273 151h-1c-1-1-3-5-1-5h1v0c2 1 2 5 1 5zm0 0" fill="#91742b"/><path d="M47 108c-6 0-12 3-17 6a43 43 0 0 0-26 39h1c3-11 7-21 15-29 3-4 8-7 12-9l7-4c3-1 6-1 8-3 1 0 0 0 0 0zm195 41c-3-11-14-20-23-26l-18-8-20-8 16 9 18 8 16 11 11 14zm0 0" fill="#e3d77c"/><path d="M70 134c6 3 23 15 46 15 22 1 42-4 55-10 0 0-25 16-55 13-35-3-46-18-46-18zm0 0" fill="#efd499"/></svg>