<svg xmlns="http://www.w3.org/2000/svg" width="280" height="267" viewBox="0 0 210 200"><path d="M60 149c0 15-11 27-26 27S8 164 8 149s11-27 26-27 26 12 26 27zm0 0" fill="#e34540"/><path d="M60 149h-1c0 7-3 13-7 18-5 5-11 7-18 7s-14-2-18-7c-5-5-7-11-7-18a26 26 0 0 1 25-26c7 0 13 3 18 8 4 4 7 11 7 18h2c0-8-3-15-8-20s-12-8-19-8-14 3-19 8-8 12-8 20 3 14 8 19 11 9 19 9 14-4 19-9 8-11 8-19zm0 0" fill="#2b2a29"/><path d="M11 141l23 9 9 8c3 2 4 6 4 10v1h1l1 1v-2c0-8-4-16-10-22-6-5-14-9-23-10v2l7-1c3 0 7 1 16 5l9 8 7 10 2-1-6-11-6-12c-5-4-11-10-19-10v2l18-2h1v-2h-1l-18 2v2c8 0 13 5 17 9l7 11 5 12h1l1-1-8-10c-3-4-7-8-10-9-8-4-12-5-16-5l-7 1-5 2h5c8 1 16 5 22 10 5 5 9 12 9 20v1l2 1v-2c0-5-1-8-4-11-8-10-24-15-34-18zm0 0" fill="#2b2a29"/><path d="M31 123l-2 25-5 12c-3 3-5 4-9 5v2c7-2 13-6 16-12 4-6 6-13 6-20l-1-8h-1v1c2 4 3 6 3 11l-1 11c0 3-2 7-5 11l-7 10 1 1 10-8c3-4 7-7 8-10 2-4 5-9 5-15l-1-5h-2l4 9 3 9 2-1-3-8-4-9h-2l1 5c0 6-2 11-5 15l-7 8-10 9 1 1a55 55 0 0 0 13-22l1-11c0-5-1-8-4-12l-2-4v4l1 8c0 6-2 14-5 19-4 6-9 10-15 11v2c5-1 8-3 10-6 4-5 6-12 6-19l2-19zm0 0" fill="#a5312d"/><path d="M15 130c5 3 8 7 10 11 2 5 2 9 2 14l-1 12v3l2-2c6-6 8-17 8-27v-6h-2l3 21-2 11-1 2 2-1c5-3 9-9 12-15l3-19h-2l2 14-1 5 2 1 1-6-2-14-1-8-1 8-3 18c-3 6-6 12-11 15h1l1 1 2-12-3-21h-2l1 6c0 9-3 20-9 25l1 1h1l1-12c0-5 0-10-3-14-1-5-5-9-10-12zM176 22l7 2 1-1h-1l-5-2c3-3 8-5 12-7l4-2-1 2h1v-1l1 1v-1l1 6 1 8 2-2c-1-5-4-11-2-15l1-1h-3l-3 2-9 5-7 5h-1zm22 10l1 1v-5-2l-2 1v5zm0 0" fill="#2b2a29"/><path d="M123 45h-2l-1 3h3v-3zm72-5v-3l-1-1-1 1 1 3h1zm-2-4h1l-1-3-2 1v1l1 1zm-72 7v2h2l1-2h-3zm0 0M195 41c0 3-1 6-3 8l-3 1c-1 5-4 10-8 14l-8 5-5 2-4 3h-1l-2-1h-4l-6-1-10-2c-3-1-7-2-10-5-2-2-3-4-3-8v-4c-2 0-4-2-5-3v-1h-3v6c0 6 3 13 8 17 7 5 16 7 24 6h13l3-1h3l2-1h1l5-2 3-2 2-1v-1h1l8-9c3-5 5-14 3-20v-1l-1 1zm-58-12c1-1 3 0 3 1l1 3-2 1c-1 1-4 1-4-1-1-2 0-3 2-4zm36-1l1-2 1-1h2l3 2c1 2-1 4-3 4s-4-1-4-3zm-44 9h2l2-1 3 1c1 1 2 1 2 3 6-4 13-5 20-4l-2-3-4-2-1-3v-1h1l1-1h1l2-1 4 2c1 2 0 5-2 5l1 4c3-2 5-2 8-2h9l4 1h1c0-2 1-2 2-3h1c2-1 5 0 6 2l2-2-3-3-1-2-2-1-1-1-2-1-7-2v1h-1v-1-1h-14l-7 1c-5 0-9 1-14 3l-3 1-1 1-7 5-1 1-2 2-1 2-4 5 3 1v-1l5-5zm0 0" fill="#ef7b2f"/><path d="M118 39c-2-3-3-8-3-11v-3 1l2 7 2 6 2 1-1 2-2-3zm2-9l6 3-4 5-1 2-2-3-3-6v-6l-1-2 5 7zm1-6l12 2h3l-3 2-5 4c-1 1-3-1-4-1l-5-4-3-5 5 2zm0 18l4-5 1-2 2-2 1-1 7-5 2-1h-1l-1-2-9-1-7-1-6-4h-2v1c3 3 1 9 2 13l4 10h3zm0 1h-2l1 1h-1l2 1v-2zm-2 2v3h1l1-3h-2zm41 87c2 5 2 9 2 13 0 6-3 11-5 16l-1-3c-1-10 0-19 2-28v-1l2 3zm1 37h-1l-1 1-1-1h3zm2 0l1 1c2 1 5 2 5 4l-3-1-1 1c1 1 4 1 4 3l-2 1-2-2c-1 0-2 0-1 1l1 1v1l-1-1-3-1-2-5 2-2 2-1zm-77 7h-6l-1-3v-3l6-1v6l1 1zm0-6l3 4 1 2h-3l-1-3v-3zm-16 7v-1l-1-1v-4l9-1v6l-8 1zm-7 0l-1-5-1-1h8l-1 2 1 3v1h-6zm-8 1v-4l-2-2 7-1 1 3 1 3-7 1zm-9 1v-1l-1-5 7-1 1 2 1 4-8 1zm-3 0h-5l-1-6h7v6h-1zm-13 0v-4-2h7v6h-7zm-1-5v5h-6v-3l1-4h1l4 1v1zm-7 0v5h-4l-5-1 2-6 1-1 7 1-1 2zm-10 4l-6-4v-1l3-4 2-1 4 2v1l-2 2-1 5zm-7-5l-1-1c-3-4-3-11 2-13s5 4 5 7v1l-4 3-2 2v1zM197 57c2-6 3-12 0-19l-1 2v1c2 6 0 15-3 20l-8 9h-1v1l-2 1-3 2-5 2h-1l-2 1h-3l-3 1h-13c-8 1-17-1-24-6-5-4-8-11-8-17v-4-2h-1c-2 8 1 16 5 21 3 4 7 6 11 7-10 6-18 12-23 21l-7 7-5 5-11 14c-3 5-4 11-5 17v20l1 6c-9 2-18 1-27 2-11 2-21 2-32 1l-7-1h-3c-4-1-3-4-3-6s-1-6-3-6c-5-1-10 3-10 8 1 20 29 16 42 16l33-2 14-1h3l6 2 8 2 3 2 7 3c2 3 7 5 8 0l1-1h-1c0-2-3-3-5-4v1c1 0 3 1 3 3v1c0 2-5-1-8-3 0-4 3-6 7-7l-1-1c-4 1-8 3-7 8l-3-1-1-1-1-1v1l-3-2c-4 0-9-1-12-4l-2-2v-1l-4-5v-1l-2-13c1-11 2-22 8-32 3-5 6-9 10-12 3-3 7-4 8-7 7-11 15-18 26-25l1 1 11 1h11l7-1h4c-1 9-4 18-7 27-3 8-7 16-8 25l-2 20h-3v2h3l1 5h-6l-3 1-1 1h1l3-1h6v5l-1-1v1l1 1h1v4l1 2-2-1v1l3 1 2 9-2-3a1 1 0 0 0-2 1l2 2c1 1 1 3-1 3s-3-2-3-5h-2l1 4h-1l-2-1v-1l-2 1 2 2h4c1 1 2 2 4 1l2-3h1l1-1v-2l2 1 2-1 4-1v-2c1-4-2-7-6-8l-6-1-1-3 4-8c2-3 3-8 3-12l-1-9-4-8 4-12 5-13c2-8 5-15 5-24 10-3 20-10 24-21zm-3-37v7l1 3v-1-3-12l-1-1v7zm2 15l-1-2 1-3-1 1-1 1v-1l-1 2 1 3 2-1zm0 0" fill="#2b2a29"/><path d="M185 25l1 1 2 1 1 2 3 3 2-1-5-5-2-1c2-1 3-4 3-5l3-4 1-2h-1l-3 3c-1 2-2 6-4 7l-2-1-1 1 2 1zm14 8l-2-1v2l2-1zm-3 2l-2 1 1 1v3l2-2-1-1 3-4-3 2zm-20-13l-1-1zm0 0M137 24l1 1-1 1h1l2-1c4-2 9-3 14-3l7-1h14l-1-1v1h-1v-1h-2l-16-1-17 4v2-1h-1s1 2 0 0zm38-1h1v-1l-1-1v1zm0 0" fill="#2b2a29"/><path d="M116 175c-3 1-6 3-7 7l1 1 3 1c0-5 3-7 7-8l-4-1zm0 0" fill="#ec9c36"/><path d="M174 21v-1h-1v1zm-37 3l-1-2v-4l-1-15v13l1 5v3h1zm38-6v-6l1-12-1 12v9-3zm0 0" fill="#2b2a29"/><path d="M195 33l1 2 1-1v-2-5l-1 3-1 3zm1 2zm-1-9v3l2-2-1-8-1-6v1 12zm0 0" fill="#ef7b2f"/><path d="M195 31h-1v1l1-1zm-5-11c0 1-1 4-3 5l2 1 5 5 1-1-1-3V13v1l-2 2-2 4zm0 0" fill="#efaaa9"/><path d="M190 17l3-3 1-2-4 2c-4 2-9 4-12 7l5 2h1l2 1c2-1 3-5 4-7zm0 0" fill="#ef7b2f"/><path d="M166 35h11l3 1v-1l-4-1h-9c-3 0-5 0-8 2h1l6-1zm21 15v2l-4 8-8 6-7 4c-2 1-4 1-4 3h-1v1h1l4-3 5-2 8-5c4-4 7-9 8-14h-2zm0 0" fill="#2b2a29"/><path d="M130 61c1 3 5 5 8 7l9 2 8 1 8 2h1c0-2 2-2 3-3l8-4 8-6 4-8v-2l-2-1c-2-1-4-3-5-6v-7l-3-1h-11l-6 1-1 1v16c5-1 10-2 14-5l1 1-7 4-11 2c-2 0-11 0-12-3l1-1 7 2 6 1c1-6 1-12-1-17h-9c-4 1-7 2-9 4 1 4-3 8-6 10l-3 2v8zm0 0" fill="#ec9c36"/><path d="M175 26v2-2zm2 5c2 0 4-2 3-4l-3-2h-2l-1 1-1 2c-1 2 2 3 4 3zm-22-3l-1 1-1-1 1-1 1 1zm3 9v17l-6-1-7-2-1 1c1 3 10 3 12 3l11-2 7-4s-1-2-2-1c-3 3-8 4-13 5V37l1-1h-1l-1-4c2 0 3-3 2-5l-4-2-2 1h-1l-1 1h-1v1l1 3 4 2 2 3zm12-34h-1l3 9 1 8h1c0-6-2-12-4-17zm0 0" fill="#2b2a29"/><path d="M159 172l2 5 3 1 1 1v-1l-1-1c-1-1 0-1 1-1l2 2 2-1c0-2-3-2-4-3l1-1 3 1c0-2-3-3-5-4l-2-1-1 1-2 2zm0 0" fill="#ec9c36"/><path d="M114 175l-3-1-4 2a1 1 0 0 1-1-1l6-4c5-5 9-12 10-20v-11l1-3-4-9c-3-3-6-5-10-5h-5l-3 1-2 2h-2c2-6 10-5 15-4s9 5 12 10v-5l2-7 2-5 2 1-2 5-2 8v2l-1 3a66 66 0 0 0-1 12c3-2 8-4 11-2l1-12 2-9 1-3-4-2 1-1 9 2c4 1 8-1 11-2l1 1-8 3v1l-2 9-2 15v7l2-1 3-1h4l2-20 8-25c4-9 6-18 7-27h-4l-7 1h-11l-11-1-1-1c-11 7-19 14-26 25-1 3-5 4-8 7-4 3-7 7-10 12a64 64 0 0 0-6 45v1l4 5v1l2 2c3 3 8 4 12 4l3 2v-1c1-3 3-5 6-6zm0 0" fill="#ef7b2f"/><path d="M155 71l-8-1-9-2c-3-2-7-4-8-7v-8l-2 1v3c0 4 1 6 3 8 3 3 7 4 10 5l10 2 6 1h4l2 1v-1l-8-2zm3-34v-1c-7-1-14 0-20 4l1 1 8-4h11zm0 0" fill="#2b2a29"/><path d="M158 130c-2 9-3 18-2 28l1 3c2-5 5-10 5-16 0-4 0-8-2-13l-2-3v1zm-11 45v1h1l1 3 1 2v1l2 1h1l-1-4h2c0 3 1 5 3 5s2-2 1-3l-2-2a1 1 0 0 1 2-1l2 3-3-9-2-1-5 1-3 3zm13-6h1-3l1 1 1-1zm0 0" fill="#ef7b2f"/><path d="M147 152l-2 1v-7l2-15c0-3 0-6 2-9v-1l8-3-1-1c-3 1-7 3-11 2l-9-2-1 1 4 2 2 1h7l-1 1-2 9-2 14v15l2 12h1v-1-2l2-3 6-2v-1l-4 1-4 2v1l-1-4v-3-6l4-1h2v-2h-1l-3 1zm0 0" fill="#2b2a29"/><path d="M148 166l-2 3v3l1 2 2-2 4-2h4l-1-1v-4h-1l-1-1-7 2zm0 0" fill="#ec9c36"/><path d="M145 163l1 4v-1l4-2 4-1 1 1v-5h-6l-3 1h-1v3zm0 0" fill="#ef7b2f"/><path d="M146 181l-5-4-1 1 3 2 3 3-3 1c-2 0-3-1-3-2l-1-3h-1c0 4-3 5-5 3l-2-5v-1c0-2 3-3 5-4l6-1 1 2c0 1 5 6 3 8zm-16-6l-1-5 4-3c3-2 5-2 7-2v2l1 3c-3-1-9 2-11 5zm-2 3l-9-4-5-1 8-12 1-4 2 10 4 11v1zm7-33l1 5v1h-6c-2 0-4 0-6 2v-6c3-2 8-4 11-2zm3 12v1h-2l-5 1c-2 0-4 1-5 3l-1-5v-3l6-3 5 1 2 5zm0 2l2 5c-5 0-9 2-12 5l-2-6 5-3 3-1h4zm11 20l-1-3h-1v-1l3-3 5-1v-1h-2l-4 2-2 2-1-2h-1l-6-15-1-12a76 76 0 0 1 3-24l-2-1-1 3-2 9-1 12c-3-2-8 0-11 2h-1v5c-2 8-5 15-11 20l-6 4a1 1 0 0 0 2 1l3-2 3 1c-3 1-5 3-6 6l1 1c1-4 4-6 7-7l4 1 1 1h2l3 2 2 1h1c0 1 0 2-2 3l-1-2-4-2v1l4 3 1 2-2 1-1 1 1 1 2-1 1-3 3-1 3 2c2 1 4 1 5-1l2 2c2 0 5 1 6-1v-2l1-1 2-1-1-2zm0 0" fill="#2b2a29"/><path d="M145 154v6l1-1 3-1h6l-1-5h-5l-4 1zm0 0" fill="#ec9c36"/><path d="M143 145l2-14 2-9v-1h-6l-3 11-1 13 2 12 6 15-2-12v-15zm0 0" fill="#ef7b2f"/><path d="M142 171l-6 1c-2 1-5 2-5 4v1l2 5c2 2 5 1 4-3h2l1 3c0 1 1 2 3 2l3-1-3-3-3-2 1-1 5 4c2-2-3-7-4-8v-2zm0 0" fill="#ec9c36"/><path d="M141 170l-1-3v-2c-2 0-4 0-7 2l-4 3 1 5c2-3 7-6 11-5zm0 0" fill="#ef7b2f"/><path d="M136 30c2 0 2 2 0 2v-2zm3 4l2-1-1-3c0-1-2-2-3-1-2 1-3 2-2 4 0 2 2 2 4 1zm0 0" fill="#2b2a29"/><path d="M134 159l-3 1-5 3 2 6c3-3 7-5 12-5l-2-5h-4zm0 0" fill="#ec9c36"/><path d="M138 24v1-2l-1 1zm0 0M138 23v-5l-1-6v12l1-1zm0 0" fill="#2b2a29"/><path d="M125 154v3l1 5c1-2 3-3 5-3l5-1h2v-1l-2-5-5-1-6 3zm0 0" fill="#ef7b2f"/><path d="M137 26l1-1-1-1c1 2 0 0 0 0h-1l1 2zm0 0" fill="#2b2a29"/><path d="M130 151h6v-1l-1-5c-3-2-8 0-11 2v6c2-2 4-2 6-2zm0 0" fill="#ec9c36"/><path d="M124 31c1 0 3 2 4 1l5-4 3-2h-3l-12-2-5-2 3 5 5 4zm1 136l-2-10-1 4-8 12 5 1 9 4 1 1v-1l-4-11zm0 0" fill="#ef7b2f"/><path d="M126 131v-2l2-8 2-5-2-1-2 5-2 7v5c-3-5-7-9-12-10s-13-2-15 4h2l2-2 3-1h5c4 0 7 2 10 5l4 9v9h1l1-12 1-3zm0 0" fill="#2b2a29"/><path d="M127 185l-1-2-4-3v-1l4 2 1 2c2-1 2-2 2-3h-1l-2-1-3-2h-2c-4 1-7 3-7 7 3 2 8 5 8 3v-1c0-2-2-3-3-3v-1c2 1 5 2 5 4h1l2-1zm0 0" fill="#ef7b2f"/><path d="M116 31l3 6 2 3 2-2c0-2 2-3 3-5l-6-3-5-7 1 2v6zm0 0" fill="#efaaa9"/><path d="M119 39l-2-6-2-7v-1 3l2 11 3 3 1-2-2-1zm0 0" fill="#ef7b2f"/><path d="M87 176h3l-1-2-3-4v3l1 3zm0 0" fill="#ec9c36"/><path d="M85 172v-3l-6 1v3l1 3h6l-1-1v-3zm0 0" fill="#ef7b2f"/><path d="M78 170l-9 1v4l1 1v1l8-1v-6zm0 0" fill="#ec9c36"/><path d="M68 173l1-3-8 1 1 1 1 5h6v-1l-1-3zm0 0" fill="#ef7b2f"/><path d="M60 171l-7 1 2 2v4l7-1-1-3-1-3zm0 0" fill="#ec9c36"/><path d="M53 174l-1-2-7 1 1 5v1l8-1-1-4zm0 0" fill="#ef7b2f"/><path d="M44 173h-6v6h6v-4-2zm0 0" fill="#ec9c36"/><path d="M37 173h-7v6h7v-6zm0 0" fill="#ef7b2f"/><path d="M24 172l-1 4v3h6v-5-1l-4-1zm0 0" fill="#ec9c36"/><path d="M16 171l-1 1-2 6 5 1h4v-3-2l1-2-7-1zm0 0" fill="#ef7b2f"/><path d="M15 171v-1l-4-2-2 1-3 4v1l6 4 1-5 2-2zm0 0" fill="#ec9c36"/><path d="M11 167v-1c0-3 0-9-5-7s-5 9-2 13l1 1v-1l2-2 4-3zm0 0" fill="#ef7b2f"/><path d="M134 38v-1h1v1h-1zm-6 15v1l2-1 3-2c3-2 7-6 6-10l-1-1c0-2-1-2-2-3l-3-1-2 1h-2l-5 5v1h1l1-1 2-3 4-2v1l-4 3-1 2h2v-1 1h-2l-1 2h-1v-2h-1l-1 2h2l5 1h5l1-1v1h-8l-5-1v3h5l1-1v2h-6v1c1 1 3 3 5 3zm57-19v-2 2zm-4 10c-2-1-1-3-1-5 0-3 1-5 3-6h1c1 1 0 2-1 2l-2 2 1 6c1 0 0 2-1 1zm3-12h-1c-1 1-2 1-2 3h-1v1 7c1 3 3 5 5 6l2 1h2l3-1c2-2 3-5 3-8h-1l-4 2v-1l4-2-1-3-2 1h-1v-1h1l1-1-1-1v-1l-5 3v-1 1l4-3c-1-2-4-3-6-2zm0 0" fill="#efaaa9"/><path d="M154 27l-1 1 1 1 1-1-1-1zm-18 5c2 0 2-2 0-2v2zm39-4v0zm0 0" fill="#fefefe"/><path d="M133 38l-1-1-4 2-2 3-1 1h2l1-2 5-3zm-7 7l1-2h-2v2h1zm9-7v-1h-1v1zm46-1l2-2c1 0 2-1 1-2h-1c-2 1-3 3-3 6 0 2-1 4 1 5 1 1 2-1 1-1l-1-6zm4-3v-2 2zm0 0" fill="#f4a9a2"/><path d="M116 44l3 1h4l5 1h8v-1l-1 1h-5l-5-1h-4l-2-1-4-1-6-1-15-4 15 5 7 1zm79-15v1l-1 1-2 1-2 2-4 3v0l5-3 1-1 2-2h1l1-2 1-2 2-1 6-12v-1a72 72 0 0 1-8 14l-2 2zm2 5l-1 1-2 1h-1l-2 1h-1v1h1l2-1 1-1 2-1 3-2 3-3c4-3 6-7 8-11-2 4-5 8-8 10l-3 4-2 1zm-2 6h-1l-4 2v1l4-2h1l1-1 1-2 3-1 8-10-4 6-4 3-3 2-2 2zm0 0" fill="#2b2a29"/><path d="M121 43h8v-1 1h-5l-3-1h-1-2l-7-1-18-4 19 5 7 1h2zm2 6h6v-2l-1 1h-23l-11-2c-4 0-7-1-10-4v1c2 2 5 3 9 3l12 3h18zm0 0" fill="#2b2a29"/><path d="M10 178c-1 0-3 3-3 6a7 7 0 0 0 4 6c2 2 6 3 12 3 8 0 16-2 23-3 8-2 14-4 19-4l7 1 2 2v1l-3 5-6 2h-2v-2l1-2 8-2 11 1a339 339 0 0 0 68 4c5 0 9-1 12-4l-2-2c-2 2-5 3-10 4l-16 1a338 338 0 0 1-63-7l-10 2-2 5v2l2 2 3 1c2 0 5-1 7-3 3-2 5-4 5-7l-1-3-3-2-8-2c-5 0-12 2-19 4-7 1-15 3-23 3l-10-2c-2-1-3-2-3-4l1-3v-1h1zm0 0" fill="#a5312d"/></svg>