<svg height="133pt" viewBox="0 0 139 133" width="139pt" xmlns="http://www.w3.org/2000/svg"><path d="m3.66 41.3v58.13c0 18.26 29.66 32.95 66.27 32.95 36.48 0 66.14-14.69 66.14-32.95v-58.13zm0 0" fill="#d82048"/><path d="m3.66 68.4c0 18.13 29.66 32.94 66.27 32.94 36.48 0 66.14-14.81 66.14-32.95v-27.08h-132.41zm0 0" fill="#fbf8eb"/><path d="m3.66 63.4c0 18.15 29.66 32.96 66.27 32.96 36.48 0 66.14-14.81 66.14-32.95v-22.11h-132.41zm0 0" fill="#d82048"/><path d="m69.93 83.2c-36.6 0-66.27-14.68-66.27-32.95v3.96c0 18.27 29.66 32.95 66.27 32.95 36.48 0 66.14-14.68 66.14-32.95v-3.96c0 18.27-29.66 32.96-66.14 32.96zm0 0" fill="#fbf8eb"/><path d="m69.93 110.03c-36.6 0-66.27-14.7-66.27-32.95v3.96c0 18.26 29.66 32.95 66.27 32.95 36.48 0 66.14-14.69 66.14-32.95v-3.96c0 18.26-29.66 32.95-66.14 32.95zm0 0" fill="#fbf8eb"/><path d="m69.93 122.67c-36.6 0-66.27-14.69-66.27-32.95v9.7c0 18.27 29.66 32.96 66.27 32.96 36.48 0 66.14-14.69 66.14-32.95v-9.71c0 18.26-29.66 32.95-66.14 32.95zm0 0" fill="#bd2744"/><path d="m19.3 41.3h-15.63v58.13c0 8.17 5.93 15.58 15.65 21.33zm0 0" fill="#e73859"/><path d="m122.56 41.3v78.18c8.46-5.62 13.51-12.52 13.51-20.05v-58.13zm0 0" fill="#bd2744"/><path d="m19.3 41.3h-15.63v27.1c0 8.04 5.93 15.57 15.65 21.32zm0 0" fill="#fefefe"/><path d="m122.56 41.3v47.02c8.46-5.62 13.51-12.52 13.51-19.93v-27.08zm0 0" fill="#e8e3d5"/><path d="m19.3 41.3h-15.63v22.1c0 8.19 5.93 15.6 15.65 21.34zm0 0" fill="#e73859"/><path d="m122.56 41.3v42.04c8.46-5.5 13.51-12.4 13.51-19.93v-22.11zm0 0" fill="#bd2744"/><path d="m19.3 71.59c-9.7-5.76-15.63-13.16-15.63-21.34v3.96c0 8.18 5.93 15.59 15.65 21.33zm0 0" fill="#fefefe"/><path d="m122.56 70.18v3.96c8.46-5.5 13.51-12.39 13.51-19.93v-3.96c0 7.54-5.05 14.44-13.5 19.93zm0 0" fill="#e8e3d5"/><path d="m19.3 98.4c-9.7-5.74-15.63-13.15-15.63-21.32v3.96c0 8.17 5.93 15.57 15.65 21.33zm0 0" fill="#fefefe"/><path d="m122.56 97v4.09c8.46-5.62 13.51-12.52 13.51-20.05v-3.96c0 7.53-5.05 14.43-13.5 19.92zm0 0" fill="#e8e3d5"/><path d="m19.3 111.05c-9.7-5.75-15.63-13.15-15.63-21.33v9.7c0 8.18 5.93 15.59 15.65 21.34zm0 0" fill="#d42057"/><path d="m122.56 109.64v9.84c8.46-5.62 13.51-12.52 13.51-20.05v-9.71c0 7.53-5.05 14.43-13.5 19.92zm0 0" fill="#a32843"/><path d="m3.79 47.82v25.93a3.39 3.39 0 0 0 3.4 3.33 3.37 3.37 0 0 0 3.29-3.33v-9.05c0-2.17 2.77-3.33 4.41-1.8.38.52.63 1.15.63 1.8v25.54c0 2.04 1.64 3.7 3.66 3.7a3.69 3.69 0 0 0 3.67-3.7v-13.29a6.23 6.23 0 0 1 7.7-6.14 6.3 6.3 0 0 1 4.8 6.14v5.23c0 1.67 1.38 2.94 3.02 2.94s2.9-1.27 2.9-2.94v-1.02c0-2.8 2.53-4.98 5.3-4.6l11.5 1.92a3.15 3.15 0 0 1 2.64 3.2v7.66a3.36 3.36 0 0 0 3.29 3.32c1.64 0 3.15-1.53 3.15-3.32v-4.48a6.16 6.16 0 0 1 5.05-6.13l4.8-.76c4.8-.9 9.09 2.81 9.09 7.8v15.57c0 1.4 1.13 2.55 2.52 2.55s2.4-1.14 2.4-2.55v-20.05c0-3.96 2.9-7.41 6.81-7.92a7.87 7.87 0 0 1 9.1 7.92v3.45a2 2 0 0 0 2.01 2.04c1.14 0 2.15-.9 2.15-2.04v-12c0-1.54.76-2.94 2.14-3.7a4.03 4.03 0 0 1 5.8 3.7v1.78c0 1.66 1.65 2.8 3.16 2.43a2.6 2.6 0 0 0 1.77-2.43v-9.45c0-.9.5-1.66 1.14-2.17 1.64-1.02 3.78.25 3.78 2.17v5.1c0 .9.89 1.8 1.77 1.8 1.01 0 1.9-.9 1.9-1.8v-28.98zm0 0" fill="#e2813c"/><path d="m23.6 73.88a61.95 61.95 0 0 1 -8.08-4.72v3.95a79.13 79.13 0 0 0 7.33 4.35v-.51c0-1.15.25-2.17.75-3.07zm95.43-1.53v2.18c0 .63.26 1.01.5 1.52 1.65-.89 3.03-1.78 4.42-2.8v-3.96a84.92 84.92 0 0 1 -4.92 3.06zm-115.24-20.05v3.96c.5 4.47 2.9 8.8 6.69 12.64v-3.96c-3.8-3.83-6.19-8.17-6.7-12.65zm125.08 12.9v3.96a22.9 22.9 0 0 0 3.67-4.22v-3.96c-1.01 1.54-2.28 2.94-3.67 4.22zm-22.72 12.64c.51 1.03.76 2.17.76 3.45v.26l4.17-1.54v-3.96a77.88 77.88 0 0 1 -4.93 1.79zm-64.87 3.32c0-.38.12-.77.12-1.15-2.02-.5-4.04-1.02-6.06-1.66v4.09c1.77.5 3.66 1.02 5.43 1.4.38-.5.5-1.02.5-1.66zm25.99 2.04c-2.14 0-4.29-.13-6.56-.25v3.96c2.15.13 4.3.25 6.44.25v-2.3c0-.63 0-1.15.12-1.65zm18.05-.9c.5 1.04.77 2.18.77 3.46v.38a62.6 62.6 0 0 0 4.91-.64v-3.95c-1.77.25-3.8.5-5.69.76zm0 0" fill="#f5bd93"/><path d="m136.07 41.3c0 18.27-29.66 33.1-66.14 33.1-36.6 0-66.27-14.83-66.27-33.1 0-18.38 29.66-33.07 66.27-33.07 36.48 0 66.14 14.7 66.14 33.08zm0 0" fill="#d82048"/><path d="m52.25 3.38-5.3 9.58a3.98 3.98 0 0 0 1.52 5.49 14.82 14.82 0 0 0 14.9-.25 4 4 0 0 0 1.38-5.5l-5.68-9.45a3.9 3.9 0 0 0 -6.82.13zm0 0" fill="#bb2750"/><path d="m48.47 18.45a14.82 14.82 0 0 0 14.9-.25 4 4 0 0 0 1.38-5.5l-5.68-9.45v.38a14.46 14.46 0 0 1 -10.6 14.82zm0 0" fill="#d82048"/><path d="m54.65 2.23-2.52 6.38c-.88 2.18-1.13 6.9-.38 8.82 1.14 2.93 2.65 2.93 4.17 2.93 1.51 0 3.03-.12 4.16-3.06.63-1.92.26-6.77-.75-8.81l-2.78-6.39c-.5-1.02-1.39-1.02-1.9.13zm0 0" fill="#ed6d8c"/><path d="m52.25 18.58c1.14 1.78 2.4 1.78 3.67 1.78 1.51 0 3.03-.12 4.16-3.06.13-.64.26-1.53.26-2.56 0-2.17-.38-4.47-1.01-5.74l-2.78-6.9.76 8.56c.37 3.7-1.77 7.02-5.06 7.92zm0 0" fill="#f3a3bc"/><path d="m55.41 7.6-.63 3.06a16 16 0 0 0 -.13 4.21c.39 1.54.76 1.54 1.27 1.54.37 0 .75-.13 1.13-1.54.13-.89 0-3.19-.25-4.21l-.76-3.2c-.25-.5-.5-.5-.63.13zm0 0" fill="#e74b72"/><path d="m55.66 8.87-.25 2.17v2.94c.13 1.02.25 1.02.5 1.02.13 0 .26 0 .26-1.02.12-.64 0-2.3 0-3.07l-.38-2.16c0-.26-.13-.26-.13.12zm0 0" fill="#ad2b37"/><path d="m58.95 18.07s4.3-.9 5.93-1.92c0 0-4.42 1.02-6.06.77zm.5-3.33s3.92-.76 5.3-1.53c0 0-3.91.77-5.42.64zm-.75-3.57s3.15-.51 4.4-1.15c0 0-3.14.5-4.4.38zm-.13-2.56s1.77-1.15 2.27-1.91c0 0-1.77 1.15-2.53 1.15zm-.38-2.04s1.26-1.28 1.39-2.17c0 0-1.14 1.4-1.77 1.66zm0 0" fill="#f3a3bc"/><path d="m52.9 18.2s-4.43-.77-5.94-1.67c0 0 4.29.77 6.06.51zm-.65-3.33s-3.91-.5-5.3-1.28c0 0 3.8.64 5.3.39zm.65-3.7s-3.3-.26-4.43-.77c0 0 3.16.26 4.42.13zm0-2.56s-1.78-.89-2.29-1.65c0 0 1.77 1.01 2.53 1.01zm.24-1.91s-1.26-1.28-1.39-2.17c0 0 1.14 1.4 1.9 1.53zm0 0" fill="#ed6d8c"/><path d="m38.5 5.3-4.29 10.08a4.1 4.1 0 0 0 2.01 5.37 14.64 14.64 0 0 0 14.78-1.66 4.1 4.1 0 0 0 .88-5.62l-6.44-8.94a4.07 4.07 0 0 0 -6.94.76zm0 0" fill="#bb2750"/><path d="m36.22 20.75a14.64 14.64 0 0 0 14.78-1.66 4.1 4.1 0 0 0 .88-5.62l-6.44-8.94v.38c1 6.9-2.78 13.41-9.22 15.84zm0 0" fill="#d82048"/><path d="m40.9 3.9-2.02 6.76c-.64 2.17-.38 6.9.5 8.68 1.52 2.81 3.03 2.68 4.42 2.56 1.52-.13 3.03-.39 3.79-3.45.5-1.92-.25-6.65-1.4-8.69l-3.4-6c-.63-1.15-1.51-1.02-1.9.13zm0 0" fill="#ed6d8c"/><path d="m40.01 20.5c1.27 1.65 2.53 1.52 3.79 1.4 1.52-.13 3.03-.39 3.79-3.45.25-.64.25-1.53.12-2.56a19.7 19.7 0 0 0 -1.51-5.62l-3.4-6.51 1.5 8.3a7.35 7.35 0 0 1 -4.29 8.44zm0 0" fill="#f3a3bc"/><path d="m42.16 9.25-.38 3.07c-.13 1.15 0 3.45.38 4.34.38 1.4.88 1.28 1.26 1.28s.88-.13 1.01-1.53c.13-1.03-.25-3.32-.63-4.22l-1.14-3.06c-.12-.52-.38-.52-.5.12zm0 0" fill="#e74b72"/><path d="m42.54 10.4v2.17c-.13.77.12 2.43.25 3.07.13.9.38.9.5.9.13 0 .26 0 .26-1.02 0-.65-.25-2.3-.38-2.95l-.5-2.17c-.13-.38-.13-.38-.13 0zm0 0" fill="#ad2b37"/><path d="m46.57 19.34s4.3-1.27 5.81-2.42c0 0-4.29 1.4-5.93 1.28zm.26-3.32s3.78-1.15 5.17-2.04c0 0-3.79 1.15-5.3 1.15zm-1.13-3.57s3.15-.77 4.28-1.41c0 0-3.15.76-4.29.64zm-.26-2.55s1.64-1.15 2.02-2.05c0 0-1.64 1.28-2.4 1.4zm-.63-1.93s1.14-1.4 1.26-2.29c0 0-1.13 1.53-1.77 1.78zm0 0" fill="#f3a3bc"/><path d="m40.64 19.98s-4.42-.26-6.18-1.02c0 0 4.42.38 6.18 0zm-1.01-3.18s-3.91-.14-5.42-.78c0 0 3.9.26 5.42-.13zm.38-3.71s-3.28 0-4.54-.39c0 0 3.28 0 4.42-.38zm-.25-2.56s-1.9-.77-2.53-1.53c0 0 1.9.9 2.66.9zm.13-1.92s-1.39-1.27-1.77-2.04c0 0 1.39 1.28 2.14 1.4zm0 0" fill="#ed6d8c"/><path d="m25.62 8.61-5.17 9.59a4.05 4.05 0 0 0 1.51 5.49 15.1 15.1 0 0 0 14.9-.26c1.9-1.14 2.4-3.7 1.26-5.62l-5.55-9.32a3.96 3.96 0 0 0 -6.95.12zm0 0" fill="#bb2750"/><path d="m21.96 23.69a15.1 15.1 0 0 0 14.9-.26c1.9-1.14 2.4-3.7 1.26-5.62l-5.55-9.32v.38a14.55 14.55 0 0 1 -10.6 14.82zm0 0" fill="#d82048"/><path d="m28.15 7.34-2.53 6.51c-.88 2.04-1.13 6.9-.38 8.69 1.14 2.94 2.65 3.06 4.17 2.94 1.52 0 3.03-.13 4.04-3.07.76-1.91.25-6.64-.63-8.68l-2.78-6.4c-.5-1.14-1.51-1.14-1.9 0zm0 0" fill="#ed6d8c"/><path d="m25.75 23.69c1.14 1.79 2.4 1.91 3.66 1.79 1.52 0 3.03-.13 4.04-3.07.25-.64.37-1.54.37-2.55a21.4 21.4 0 0 0 -1-5.63l-2.78-6.9.76 8.56c.38 3.58-1.77 6.9-5.05 7.8zm0 0" fill="#f3a3bc"/><path d="m28.9 12.7-.62 3.2a11.86 11.86 0 0 0 -.13 4.2c.38 1.41.76 1.41 1.26 1.41.38 0 .76 0 1.01-1.4.25-.9.13-3.32-.12-4.34l-.89-3.07c-.13-.5-.38-.5-.5 0zm0 0" fill="#e74b72"/><path d="m29.16 13.98-.25 2.17c-.13.77-.13 2.3 0 2.94.12 1.02.25 1.02.37 1.02.13 0 .38 0 .38-1.02.13-.64 0-2.17-.12-2.94l-.26-2.17c0-.39-.12-.39-.12 0zm0 0" fill="#ad2b37"/><path d="m32.32 23.3s4.41-.89 6.05-1.91c0 0-4.42.9-6.05.76zm.63-3.32s3.9-.76 5.3-1.53c0 0-3.91.77-5.43.64zm-.75-3.7s3.14-.39 4.4-1.03c0 0-3.28.52-4.4.27zm-.14-2.55s1.76-1.03 2.28-1.8c0 0-1.77 1.03-2.54 1.16zm-.38-1.93s1.27-1.4 1.39-2.16c0 0-1.14 1.27-1.9 1.53zm0 0" fill="#f3a3bc"/><path d="m26.38 23.43s-4.42-.77-6.06-1.66c0 0 4.42.77 6.06.52zm-.63-3.33s-3.91-.63-5.43-1.27c0 0 3.92.51 5.43.39zm.63-3.7s-3.28-.25-4.42-.88c0 0 3.16.37 4.42.12zm0-2.55s-1.77-1.02-2.27-1.79c0 0 1.64 1.03 2.4 1.15zm.25-1.91s-1.26-1.41-1.51-2.18c0 0 1.26 1.28 2.02 1.54zm0 0" fill="#ed6d8c"/><path d="m11.61 16.8-3.78 10.32a4.05 4.05 0 0 0 2.4 5.12c4.91 1.91 10.47.89 14.64-2.43a4.2 4.2 0 0 0 .5-5.75l-6.94-8.43a3.95 3.95 0 0 0 -6.82 1.15zm0 0" fill="#bb2750"/><path d="m10.22 32.25c4.92 1.91 10.48.89 14.65-2.43a4.2 4.2 0 0 0 .5-5.75l-6.94-8.43v.38a14.42 14.42 0 0 1 -8.2 16.23zm0 0" fill="#d82048"/><path d="m13.89 15.25-1.52 6.77c-.63 2.18-.12 7.03.88 8.7 1.64 2.8 3.16 2.54 4.68 2.3 1.38-.26 2.9-.65 3.53-3.72.38-1.9-.76-6.64-2.02-8.55l-3.66-5.75c-.64-1.15-1.64-.9-1.9.25zm0 0" fill="#ed6d8c"/><path d="m14.01 31.73c1.26 1.66 2.53 1.53 3.92 1.28 1.38-.25 2.9-.64 3.53-3.7.12-.64.12-1.54 0-2.56-.5-2.04-1.14-4.21-1.9-5.49l-3.78-6.26 2.02 8.18c.88 3.57-.76 7.28-3.79 8.55zm0 0" fill="#f3a3bc"/><path d="m15.4 20.5-.13 3.19a15.3 15.3 0 0 0 .51 4.21c.63 1.28 1 1.28 1.38 1.15.52 0 .9-.13.9-1.53.12-1.03-.38-3.32-.77-4.22l-1.26-2.94c-.25-.5-.5-.5-.63.14zm0 0" fill="#e74b72"/><path d="m15.9 21.64v2.17l.51 2.94c.25 1.02.38 1.02.5 1.02.25-.13.38-.13.25-1.14 0-.64-.37-2.18-.5-2.94l-.63-2.05c-.12-.38-.25-.38-.12 0zm0 0" fill="#ad2b37"/><path d="m20.45 30.33s4.16-1.54 5.55-2.81c0 0-4.16 1.66-5.8 1.66zm0-3.45s3.79-1.28 5.05-2.17c0 0-3.66 1.28-5.18 1.4zm-1.27-3.45s3.16-.9 4.17-1.66c0 0-3.03 1.02-4.3 1.02zm-.5-2.43s1.64-1.28 2.02-2.17c0 0-1.52 1.28-2.27 1.53zm-.63-1.91s1-1.54 1-2.43c0 0-.87 1.54-1.5 1.92zm0 0" fill="#f3a3bc"/><path d="m14.52 31.35s-4.42 0-6.19-.77c0 0 4.42.13 6.06-.38zm-1.14-3.19s-3.91 0-5.43-.39c0 0 3.92 0 5.43-.5zm.12-3.71s-3.28.26-4.54-.13c0 0 3.29-.12 4.42-.63zm-.37-2.55s-1.9-.64-2.53-1.28c0 0 1.9.64 2.65.64zm0-1.92s-1.52-1.15-1.77-1.91c0 0 1.39 1.15 2.02 1.27zm0 0" fill="#ed6d8c"/><path d="m65.51 56.38-5.17 9.71a4.05 4.05 0 0 0 1.51 5.5 14.8 14.8 0 0 0 14.9-.4 3.85 3.85 0 0 0 1.25-5.47l-5.56-9.45a4.05 4.05 0 0 0 -6.94.12zm0 0" fill="#bb2750"/><path d="m61.85 71.59a14.8 14.8 0 0 0 14.9-.4 3.85 3.85 0 0 0 1.25-5.47l-5.56-9.45v.51a14.56 14.56 0 0 1 -10.6 14.82zm0 0" fill="#d82048"/><path d="m68.04 55.23-2.53 6.52c-.89 2.04-1.14 6.9-.38 8.68 1.14 2.94 2.66 3.07 4.16 2.94 1.52 0 3.04-.13 4.17-3.06.63-1.92.25-6.65-.76-8.69l-2.77-6.39c-.5-1.15-1.52-1.15-1.9 0zm0 0" fill="#ed6d8c"/><path d="m65.64 71.59c1.13 1.78 2.4 1.78 3.65 1.78 1.52 0 3.04-.13 4.17-3.06.13-.64.25-1.54.25-2.56 0-2.04-.38-4.34-1-5.62l-2.78-6.9.75 8.43c.38 3.7-1.76 7.03-5.04 7.93zm0 0" fill="#f3a3bc"/><path d="m68.79 60.6-.63 3.2a16.03 16.03 0 0 0 -.12 4.2c.37 1.41.75 1.41 1.25 1.41.39 0 .76 0 1.14-1.4.13-1.03 0-3.32-.25-4.35l-.89-3.06c-.12-.51-.37-.51-.5 0zm0 0" fill="#e74b72"/><path d="m69.04 61.88-.25 2.16c0 .78-.13 2.3 0 2.94.13 1.03.25 1.03.38 1.03.26 0 .38 0 .38-1.03.13-.64 0-2.3 0-2.94l-.38-2.17c0-.38-.13-.38-.13 0zm0 0" fill="#ad2b37"/><path d="m72.33 71.2s4.29-.9 5.93-1.91c0 0-4.42.89-6.06.76zm.5-3.45s3.91-.64 5.3-1.4c0 0-3.91.76-5.43.63zm-.76-3.57s3.16-.39 4.42-1.03c0 0-3.28.51-4.42.26zm-.12-2.56s1.76-1.02 2.27-1.78c0 0-1.77 1.01-2.52 1.14zm-.38-1.92s1.26-1.4 1.39-2.3c0 0-1.14 1.4-1.77 1.66zm0 0" fill="#f3a3bc"/><path d="m66.27 71.2s-4.42-.64-6.06-1.53c0 0 4.41.76 6.18.5zm-.63-3.32s-3.92-.51-5.43-1.15c0 0 3.91.51 5.43.38zm.63-3.58s-3.29-.38-4.42-.9c0 0 3.15.4 4.42.14zm0-2.55s-1.77-1.02-2.27-1.79c0 0 1.64 1.02 2.52 1.02zm.25-1.91s-1.26-1.41-1.4-2.18c0 0 1.15 1.28 1.9 1.54zm0 0" fill="#ed6d8c"/><path d="m73.97 2.61 4.03 10.22a4.13 4.13 0 0 1 -2.27 5.24 14.52 14.52 0 0 1 -14.65-2.3c-1.76-1.28-2.02-3.83-.63-5.62l6.81-8.56a3.83 3.83 0 0 1 6.7 1.02zm0 0" fill="#bb2750"/><path d="m75.74 18.07a14.52 14.52 0 0 1 -14.65-2.3c-1.76-1.28-2.02-3.83-.63-5.62l6.81-8.56-.12.38a14.5 14.5 0 0 0 8.59 16.1zm0 0" fill="#d82048"/><path d="m71.7 1.08 1.76 6.77c.5 2.17.13 7.02-.88 8.68-1.52 2.81-3.03 2.69-4.54 2.43-1.4-.25-2.91-.51-3.54-3.7-.5-1.92.5-6.65 1.77-8.56l3.53-5.88c.63-1.02 1.65-.89 1.9.26zm0 0" fill="#ed6d8c"/><path d="m71.95 17.55c-1.27 1.67-2.52 1.54-3.91 1.41-1.4-.25-2.91-.51-3.54-3.7-.25-.64-.13-1.53 0-2.56a18.8 18.8 0 0 1 1.64-5.49l3.66-6.39-1.89 8.3c-.76 3.58 1 7.16 4.04 8.43zm0 0" fill="#f3a3bc"/><path d="m70.3 6.32.26 3.2c.12 1-.13 3.3-.5 4.2-.5 1.4-1.02 1.4-1.4 1.28-.37 0-.75-.13-.87-1.66-.13-.9.37-3.2.75-4.21l1.14-2.94c.25-.51.5-.39.63.13zm0 0" fill="#e74b72"/><path d="m69.93 7.6-.13 2.16c0 .64-.25 2.3-.37 2.94-.26.9-.39.9-.51.9-.13 0-.26 0-.26-1.03 0-.63.26-2.3.5-2.93l.52-2.18c.12-.38.25-.25.25.13zm0 0" fill="#ad2b37"/><path d="m65.51 16.28s-4.29-1.4-5.68-2.69c0 0 4.17 1.54 5.8 1.54zm-.12-3.32s-3.8-1.28-5.05-2.17c0 0 3.66 1.15 5.17 1.27zm1.13-3.58s-3.03-.77-4.16-1.53c0 0 3.15.9 4.28.9zm.5-2.42s-1.62-1.28-2.02-2.18c0 0 1.64 1.28 2.4 1.4zm.64-1.92s-1.02-1.54-1.14-2.44c0 0 1.01 1.53 1.64 1.92zm0 0" fill="#f3a3bc"/><path d="m71.31 17.17s4.55-.13 6.19-.76c0 0-4.42.12-6.05-.39zm1.14-3.19s4.04 0 5.56-.51c0 0-4.04 0-5.43-.38zm-.12-3.71s3.28.13 4.54-.25c0 0-3.28-.13-4.42-.38zm.37-2.55s1.9-.64 2.4-1.4c0 0-1.77.76-2.52.76zm-.12-1.92s1.39-1.14 1.77-1.9c0 0-1.4 1.14-2.15 1.27zm0 0" fill="#ed6d8c"/><path d="m86.09 3.38 5.17 9.58a3.98 3.98 0 0 1 -1.52 5.49 14.8 14.8 0 0 1 -14.89-.25 4.09 4.09 0 0 1 -1.26-5.5l5.55-9.45a4 4 0 0 1 6.95.13zm0 0" fill="#bb2750"/><path d="m89.74 18.45a14.8 14.8 0 0 1 -14.89-.25 4.09 4.09 0 0 1 -1.26-5.5l5.55-9.45v.38a14.46 14.46 0 0 0 10.6 14.82zm0 0" fill="#d82048"/><path d="m83.56 2.23 2.65 6.38c.76 2.18 1 6.9.25 8.82-1.14 2.93-2.65 2.93-4.16 2.93-1.52 0-3.03-.12-4.04-3.06-.76-1.92-.25-6.77.63-8.81l2.77-6.39c.51-1.02 1.52-1.02 1.9.13zm0 0" fill="#ed6d8c"/><path d="m85.96 18.58c-1.14 1.78-2.4 1.78-3.66 1.78-1.52 0-3.03-.12-4.04-3.06a7.3 7.3 0 0 1 -.38-2.56c.13-2.17.5-4.47 1.01-5.74l2.77-6.9-.75 8.56c-.38 3.7 1.9 7.02 5.05 7.92zm0 0" fill="#f3a3bc"/><path d="m82.8 7.6.63 3.06c.25 1.02.38 3.32.13 4.21-.38 1.54-.76 1.54-1.13 1.54-.5 0-.9-.13-1.14-1.54-.25-.89-.13-3.19.12-4.21l.9-3.2c.12-.5.37-.5.5.13zm0 0" fill="#e74b72"/><path d="m82.55 8.87.25 2.17c.13.64.13 2.3 0 2.94-.12 1.02-.25 1.02-.37 1.02-.13 0-.38 0-.38-1.02-.13-.64 0-2.3.12-3.07l.26-2.16c0-.26.12-.26.12.12zm0 0" fill="#ad2b37"/><path d="m79.4 18.07s-4.42-.9-6.07-1.92c0 0 4.43 1.02 6.06.77zm-.64-3.33s-3.9-.76-5.3-1.53c0 0 3.92.77 5.43.64zm.76-3.57s-3.15-.51-4.3-1.15c0 0 3.17.5 4.3.38zm.12-2.56s-1.76-1.15-2.14-1.91c0 0 1.64 1.15 2.4 1.15zm.39-2.04s-1.14-1.28-1.4-2.17c0 0 1.15 1.4 1.9 1.66zm0 0" fill="#f3a3bc"/><path d="m85.32 18.2s4.42-.77 6.07-1.67c0 0-4.42.77-6.07.51zm.64-3.33s3.9-.5 5.43-1.28c0 0-3.92.64-5.43.39zm-.64-3.7s3.29-.26 4.42-.77c0 0-3.15.26-4.42.13zm0-2.56s1.77-.89 2.28-1.65c0 0-1.64 1.01-2.4 1.01zm-.25-1.91s1.27-1.28 1.52-2.17c0 0-1.27 1.4-1.9 1.53zm0 0" fill="#ed6d8c"/><path d="m97.32 4.4 7.2 8.17a3.93 3.93 0 0 1 -.26 5.63 14.7 14.7 0 0 1 -14.52 3.06 4 4 0 0 1 -2.65-4.98l3.41-10.48c1.01-2.93 4.67-3.7 6.82-1.4zm0 0" fill="#bb2750"/><path d="m104.26 18.2a14.7 14.7 0 0 1 -14.52 3.06 4 4 0 0 1 -2.65-4.98l3.41-10.48.13.39a14.35 14.35 0 0 0 13.63 12zm0 0" fill="#d82048"/><path d="m94.67 3.76 3.91 5.62c1.26 1.92 2.53 6.51 2.28 8.56-.52 3.06-2.02 3.45-3.41 3.83-1.52.25-3.03.52-4.8-2.17-1.01-1.66-1.64-6.39-1.26-8.69l1.39-6.77c.12-1.15 1.13-1.4 1.89-.38zm0 0" fill="#ed6d8c"/><path d="m100.6 19.09c-.76 2.04-1.9 2.3-3.15 2.68-1.52.25-3.03.52-4.8-2.17a8.12 8.12 0 0 1 -.76-2.3c-.5-2.17-.63-4.47-.38-5.87l1.27-7.29 1.13 8.43c.5 3.71 3.28 6.4 6.7 6.52zm0 0" fill="#f3a3bc"/><path d="m95.05 9.13 1.39 2.93c.38.9 1 3.2 1 4.1 0 1.52-.5 1.65-.88 1.65-.38.13-.88.13-1.39-1.15-.37-.9-.75-3.2-.75-4.21l.12-3.2c0-.5.26-.64.5-.13zm0 0" fill="#e74b72"/><path d="m95.17 10.4.63 2.05c.25.76.64 2.3.64 2.93.12 1.03 0 1.03-.13 1.15-.13 0-.26 0-.63-1.01-.13-.52-.5-2.18-.5-2.95l-.26-2.17c0-.38.13-.38.25 0zm0 0" fill="#ad2b37"/><path d="m94.04 20.24s-4.55.12-6.32-.52c0 0 4.55-.12 6.06-.63zm-1.26-3.2s-4.05.26-5.56-.25c0 0 3.91-.13 5.43-.64zm-.13-3.7s-3.16.25-4.54 0c0 0 3.28-.25 4.41-.64zm-.51-2.55s-1.89-.52-2.52-1.28c0 0 1.9.76 2.65.64zm0-1.92s-1.51-1.02-1.89-1.91c0 0 1.51 1.14 2.15 1.27zm0 0" fill="#f3a3bc"/><path d="m99.84 18.96s4.17-1.66 5.56-2.94c0 0-4.17 1.66-5.81 1.79zm-.13-3.44s3.8-1.41 5.06-2.43c0 0-3.79 1.53-5.18 1.65zm-1.39-3.32s3.16-1.16 4.18-1.93c0 0-3.04 1.03-4.3 1.16zm-.5-2.56s1.52-1.28 1.77-2.18c0 0-1.4 1.29-2.14 1.54zm-.75-1.79s.88-1.66.88-2.43c0 0-.88 1.54-1.39 1.92zm0 0" fill="#ed6d8c"/><path d="m112.59 8.61 5.3 9.59a4.1 4.1 0 0 1 -1.64 5.49 14.86 14.86 0 0 1 -14.77-.26 4.16 4.16 0 0 1 -1.39-5.62l5.56-9.32a3.95 3.95 0 0 1 6.94.12zm0 0" fill="#bb2750"/><path d="m116.25 23.69a14.86 14.86 0 0 1 -14.77-.26 4.16 4.16 0 0 1 -1.39-5.62l5.56-9.32v.38a14.55 14.55 0 0 0 10.6 14.82zm0 0" fill="#d82048"/><path d="m110.2 7.34 2.51 6.51c.77 2.04 1.02 6.9.26 8.69-1.13 2.94-2.65 3.06-4.16 2.94-1.52 0-3.04-.13-4.04-3.07-.76-1.91-.26-6.64.63-8.68l2.77-6.4c.5-1.14 1.52-1.14 2.02 0zm0 0" fill="#ed6d8c"/><path d="m112.46 23.69c-1 1.79-2.4 1.91-3.65 1.79-1.52 0-3.04-.13-4.04-3.07a7.12 7.12 0 0 1 -.39-2.55c.13-2.05.51-4.34 1.02-5.63l2.77-6.9-.75 8.56a7.33 7.33 0 0 0 5.04 7.8zm0 0" fill="#f3a3bc"/><path d="m109.31 12.7.76 3.2c.12 1.02.25 3.32 0 4.2-.38 1.41-.76 1.41-1.14 1.41-.5 0-.88 0-1.14-1.4-.25-.9-.12-3.32.26-4.34l.76-3.07c.12-.5.37-.5.5 0zm0 0" fill="#e74b72"/><path d="m109.18 13.98.13 2.17c.13.77.13 2.3 0 2.94-.13 1.02-.25 1.02-.38 1.02-.12 0-.25 0-.38-1.02 0-.64 0-2.17.13-2.94l.25-2.17c.13-.39.13-.39.25 0zm0 0" fill="#ad2b37"/><path d="m105.9 23.3s-4.42-.89-5.93-1.91c0 0 4.29.9 5.93.76zm-.5-3.32s-3.92-.76-5.43-1.53c0 0 3.91.77 5.43.64zm.63-3.7s-3.16-.39-4.3-1.03c0 0 3.16.52 4.42.27zm.12-2.55s-1.64-1.03-2.14-1.8c0 0 1.64 1.03 2.4 1.16zm.38-1.93s-1.13-1.4-1.39-2.16c0 0 1.27 1.27 1.9 1.53zm0 0" fill="#f3a3bc"/><path d="m111.84 23.43s4.41-.77 6.05-1.66c0 0-4.41.77-6.05.52zm.62-3.33s4.04-.63 5.43-1.27c0 0-3.91.51-5.43.39zm-.5-3.7s3.16-.25 4.42-.88c0 0-3.28.37-4.42.12zm0-2.55s1.77-1.02 2.27-1.79c0 0-1.77 1.03-2.52 1.15zm-.38-1.91s1.27-1.41 1.52-2.18c0 0-1.26 1.28-1.9 1.54zm0 0" fill="#ed6d8c"/><path d="m126.6 16.8 3.8 10.2a3.99 3.99 0 0 1 -2.28 5.25 14.54 14.54 0 0 1 -14.64-2.43 3.95 3.95 0 0 1 -.63-5.62l6.94-8.56c1.89-2.43 5.68-1.79 6.81 1.15zm0 0" fill="#bb2750"/><path d="m128.12 32.25a14.54 14.54 0 0 1 -14.64-2.43 3.95 3.95 0 0 1 -.63-5.62l6.94-8.56-.13.38a14.74 14.74 0 0 0 8.46 16.23zm0 0" fill="#d82048"/><path d="m124.33 15.25 1.64 6.77c.5 2.18.13 6.9-.88 8.7-1.64 2.67-3.16 2.54-4.67 2.3-1.4-.26-2.9-.52-3.54-3.59-.38-2.04.64-6.77 1.9-8.68l3.66-5.88c.63-1.02 1.51-.76 1.89.38zm0 0" fill="#ed6d8c"/><path d="m124.33 31.73c-1.26 1.66-2.65 1.53-3.91 1.28-1.4-.25-2.9-.51-3.54-3.58a8.7 8.7 0 0 1 0-2.55c.39-2.17 1.01-4.34 1.77-5.5l3.79-6.5-2.02 8.3c-.88 3.7.88 7.28 3.9 8.55zm0 0" fill="#f3a3bc"/><path d="m122.81 20.36.26 3.2c0 1.15-.26 3.44-.63 4.34-.5 1.28-.89 1.28-1.4 1.28-.37-.13-.75-.26-.88-1.66 0-1.03.38-3.32.89-4.22l1.13-2.94c.26-.5.5-.5.63 0zm0 0" fill="#e74b72"/><path d="m122.44 21.64-.13 2.17c0 .77-.25 2.3-.38 2.94-.38 1.02-.5 1.02-.63 1.02-.12-.13-.25-.13-.25-1.14.13-.64.38-2.18.5-2.94l.63-2.05c.13-.38.26-.38.26 0zm0 0" fill="#ad2b37"/><path d="m117.9 30.33s-4.3-1.4-5.69-2.69c0 0 4.17 1.54 5.93 1.66zm-.13-3.33s-3.79-1.27-5.06-2.3c0 0 3.8 1.29 5.31 1.41zm1.26-3.44s-3.16-.9-4.17-1.66c0 0 3.03.89 4.3.89zm.51-2.56s-1.65-1.28-2.02-2.17c0 0 1.5 1.28 2.27 1.53zm.62-1.91s-1-1.54-1.13-2.43c0 0 1 1.66 1.64 1.92zm0 0" fill="#f3a3bc"/><path d="m123.83 31.35s4.41-.13 6.18-.77c0 0-4.54.13-6.18-.38zm1-3.19s4.04 0 5.56-.52c0 0-3.91 0-5.43-.37zm0-3.71s3.16.13 4.42-.25c0 0-3.15-.13-4.29-.51zm.38-2.55s1.77-.64 2.4-1.4c0 0-1.76.76-2.65.63zm-.12-1.92s1.51-1.15 1.76-2.04c0 0-1.38 1.15-2.02 1.28zm0 0" fill="#ed6d8c"/><path d="m132.91 25.6 5.3 9.7c1.01 1.93.38 4.35-1.51 5.5a14.8 14.8 0 0 1 -14.9-.38 4.01 4.01 0 0 1 -1.38-5.5l5.68-9.44c1.51-2.56 5.43-2.56 6.81.12zm0 0" fill="#bb2750"/><path d="m136.7 40.8a14.8 14.8 0 0 1 -14.9-.38 4.01 4.01 0 0 1 -1.38-5.5l5.68-9.44v.38a14.6 14.6 0 0 0 10.6 14.94zm0 0" fill="#d82048"/><path d="m130.52 24.45 2.52 6.52c.89 2.04 1.14 6.9.37 8.68-1.13 2.94-2.64 2.94-4.16 2.94-1.51 0-3.03-.13-4.16-3.06-.63-1.92-.26-6.65.63-8.82l2.9-6.26c.38-1.15 1.4-1.15 1.9 0zm0 0" fill="#ed6d8c"/><path d="m132.79 40.8c-1 1.79-2.27 1.79-3.54 1.79-1.51 0-3.03-.13-4.16-3.06-.26-.64-.26-1.54-.26-2.56 0-2.04.38-4.34.89-5.62l2.9-6.9-.88 8.43c-.25 3.7 1.9 7.03 5.05 7.92zm0 0" fill="#f3a3bc"/><path d="m129.76 29.82.63 3.06c.25 1.02.25 3.45.13 4.35-.38 1.4-.89 1.4-1.27 1.4s-.88 0-1.13-1.4c-.13-1.03 0-3.33.25-4.35l.75-3.06c.13-.52.51-.52.64 0zm0 0" fill="#e74b72"/><path d="m129.5 31.1.26 2.16v2.94c-.13 1.03-.38 1.03-.51 1.03s-.25 0-.38-1.03c0-.64 0-2.3.13-2.94l.38-2.17c0-.38.13-.38.13 0zm0 0" fill="#ad2b37"/><path d="m126.22 40.3s-4.41-.77-5.93-1.8c0 0 4.3.9 6.06.77zm-.5-3.33s-3.91-.64-5.3-1.4c0 0 3.9.76 5.43.63zm.76-3.57s-3.28-.39-4.42-1.03c0 0 3.15.51 4.42.26zm.12-2.56s-1.77-1.02-2.27-1.79c0 0 1.64 1.02 2.52 1.15zm.38-1.92s-1.26-1.4-1.39-2.3c0 0 1.14 1.41 1.77 1.66zm0 0" fill="#f3a3bc"/><path d="m132.28 40.42s4.42-.64 5.93-1.53c0 0-4.28.64-6.05.38zm.63-3.32s3.91-.51 5.3-1.28c0 0-3.9.64-5.42.5zm-.63-3.58s3.16-.38 4.42-.9c0 0-3.15.4-4.42.14zm0-2.55s1.77-1.02 2.27-1.79c0 0-1.76 1.02-2.52 1.02zm-.38-1.92s1.26-1.4 1.51-2.17c0 0-1.25 1.28-1.88 1.53zm0 0" fill="#ed6d8c"/><path d="m15.02 103c.12.64-.25 1.4-1 1.54-.64.25-1.4-.26-1.65-.9-.12-.76.38-1.53 1-1.66.77-.13 1.52.26 1.65 1.02zm11.87-5.23c.12.77-.38 1.4-1.02 1.66-.75.12-1.38-.26-1.63-1.03-.13-.76.25-1.4 1-1.65.64-.14 1.4.25 1.65 1.02zm1.01 12.77c.25.64-.26 1.4-1.01 1.53-.63.26-1.4-.25-1.52-.9-.25-.76.25-1.53.89-1.65.75-.26 1.5.25 1.63 1.02zm11.23-9.33c.12.64-.38 1.4-1.01 1.54-.76.25-1.39-.26-1.64-.9-.12-.76.25-1.53 1-1.66.64-.12 1.4.26 1.65 1.02zm22.09 3.07c.13.77-.38 1.4-1.01 1.66-.76.13-1.4-.26-1.64-1.02-.13-.77.25-1.4 1-1.66.64-.13 1.4.26 1.65 1.02zm8.58 1.66c.25.64-.25 1.4-.88 1.53a1.28 1.28 0 0 1 -1.65-.89 1.28 1.28 0 0 1 1.02-1.66c.63-.13 1.39.25 1.51 1.02zm28.52-3.06c.14.76-.25 1.4-1 1.66-.63.12-1.39-.26-1.52-1.02-.25-.64.25-1.41.89-1.67.76-.12 1.5.39 1.63 1.03zm-9.33 3.06c.12.64-.26 1.4-1.01 1.53-.76.26-1.39-.25-1.64-.89-.13-.77.25-1.53 1-1.66.77-.13 1.4.25 1.65 1.02zm-8.59.9c.26.63-.25 1.4-.88 1.66-.76.12-1.51-.4-1.64-1.03-.12-.76.25-1.4 1.01-1.66.63-.13 1.4.26 1.52 1.03zm25.5-5.88c.25.77-.25 1.53-.88 1.66-.76.13-1.52-.25-1.64-1.02-.25-.64.25-1.4.88-1.53.76-.26 1.51.25 1.64.9zm-6.06-23.88c.25.76-.25 1.53-.88 1.65-.76.14-1.51-.25-1.64-1.02-.13-.63.25-1.4 1-1.53.64-.25 1.4.26 1.52.9zm-20.06 14.82c.12.76-.26 1.4-1.02 1.65-.75.13-1.39-.25-1.64-1.02a1.5 1.5 0 0 1 1.01-1.66c.76-.13 1.39.26 1.65 1.02zm-23.86 0c.12.76-.26 1.4-1.01 1.65-.76.13-1.39-.25-1.64-1.02a1.5 1.5 0 0 1 1-1.66c.77-.13 1.4.26 1.65 1.02zm15.65 0c.13.76-.26 1.4-1.01 1.65-.76.13-1.4-.25-1.64-1.02a1.5 1.5 0 0 1 1.01-1.66c.75-.13 1.38.26 1.64 1.02zm-17.42-12.53c.25.77-.25 1.54-.88 1.67-.76.12-1.52-.26-1.65-1.03-.12-.64.26-1.4 1.01-1.53.64-.25 1.4.25 1.52.9zm-8.96 8.69c.13.77-.25 1.4-1.01 1.66a1.28 1.28 0 0 1 -1.52-1.02c-.25-.77.26-1.4.89-1.66.75-.13 1.51.25 1.64 1.02zm-31.05-12.65c.13.64-.25 1.4-1.02 1.54-.62.25-1.38-.26-1.5-.9-.26-.76.25-1.53.88-1.66.75-.25 1.51.26 1.64 1.02zm21.07 11.12c.13.76-.25 1.4-1 1.66-.64.13-1.39-.26-1.64-1.03-.13-.76.38-1.4 1-1.66.77-.13 1.52.26 1.64 1.03zm-7.06-3.96c.13.77-.26 1.4-1.01 1.66-.76.13-1.4-.26-1.64-1.02a1.5 1.5 0 0 1 1-1.66c.76-.13 1.4.38 1.65 1.02zm-17.42 2.81c.13.64-.25 1.4-1 1.53-.64.25-1.4-.26-1.53-.9-.25-.76.26-1.53.89-1.65.76-.26 1.51.25 1.64 1.02zm68.79 32.82c.26.77-.25 1.53-.88 1.66a1.26 1.26 0 0 1 -1.64-1.02c-.13-.64.25-1.4 1-1.53.64-.26 1.4.26 1.52.9zm-20.7-.9c.25.77-.25 1.54-.88 1.67-.76.13-1.52-.26-1.65-1.02-.12-.64.26-1.4 1.02-1.54.63-.25 1.38.26 1.5.9zm12.88-.63c.25.76-.25 1.4-.9 1.66-.75.13-1.5-.26-1.63-1.02-.13-.77.26-1.4 1.01-1.67.63-.12 1.39.26 1.52 1.03zm14.51 0c.25.76-.25 1.4-.89 1.66-.75.13-1.51-.26-1.64-1.02-.12-.77.26-1.4 1.02-1.67.62-.12 1.39.26 1.51 1.03zm16.15-2.81c.14.64-.25 1.4-1 1.66-.76.12-1.4-.38-1.65-1.02-.12-.77.26-1.54 1.02-1.66.75-.13 1.38.25 1.63 1.02zm5.94-3.06c.13.63-.25 1.4-1 1.53-.64.25-1.4-.26-1.53-.9-.25-.77.26-1.53.89-1.66.76-.13 1.51.26 1.64 1.03zm6.56-.65c.26.77-.25 1.41-.88 1.67-.76.12-1.52-.26-1.64-1.02a1.43 1.43 0 0 1 1.01-1.67c.63-.12 1.38.26 1.5 1.02zm-19.18 5.37a1.5 1.5 0 0 1 -1.01 1.66c-.76.13-1.4-.38-1.64-1.02-.13-.77.25-1.4 1-1.66.77-.13 1.4.25 1.65 1.02zm16.66-16.09c.12.76-.25 1.4-1 1.66-.77.12-1.4-.26-1.65-1.02-.13-.77.25-1.41 1-1.67.77-.12 1.4.26 1.65 1.03zm-6.44-11.63c.13.77-.38 1.54-1 1.66-.77.26-1.4-.25-1.65-1.02-.13-.64.25-1.4 1-1.53.64-.26 1.4.25 1.65.9zm16.03 19.04c.25.63-.25 1.4-.88 1.66-.76.12-1.51-.4-1.64-1.03-.25-.76.25-1.4 1-1.66.64-.13 1.4.26 1.52 1.03zm.25-26.32c.13.77-.25 1.41-1 1.66-.76.13-1.4-.25-1.64-1.02-.13-.77.25-1.4 1-1.66.76-.13 1.4.26 1.64 1.02zm-3.15 14.57c.13.76-.38 1.4-1.01 1.66-.75.12-1.4-.26-1.64-1.03-.13-.76.25-1.4 1.01-1.66.63-.13 1.38.26 1.64 1.03zm-20.07-5.63c.25.64-.25 1.4-.89 1.54a1.27 1.27 0 0 1 -1.63-.9c-.13-.76.25-1.53 1-1.66.63-.12 1.4.26 1.52 1.02zm16.92-8.16c.25.63-.26 1.4-.89 1.52-.76.25-1.51-.25-1.64-.89a1.27 1.27 0 0 1 1-1.66c.64-.13 1.4.25 1.53 1.02zm-35.85-1.93c.12.77-.25 1.54-1.01 1.67-.76.12-1.4-.26-1.64-1.03-.13-.64.25-1.4 1-1.53.76-.25 1.4.25 1.65.9zm-31.43 11.37c.13.77-.26 1.4-1.01 1.66-.63.13-1.4-.26-1.64-1.02-.13-.76.37-1.4 1-1.66.76-.13 1.52.26 1.64 1.02zm-15.9-16.73c.12.77-.38 1.4-1.02 1.66-.75.13-1.38-.26-1.64-1.02-.13-.77.26-1.4 1.01-1.66.63-.13 1.4.25 1.64 1.02zm32.69 44.19c.12.77-.26 1.53-1.02 1.66-.75.26-1.39-.25-1.64-1.02-.12-.64.25-1.4 1.01-1.53.76-.26 1.39.26 1.65.9zm-17.05-15.2c.25.64-.25 1.4-.88 1.54a1.27 1.27 0 0 1 -1.64-.9c-.13-.76.25-1.53 1.01-1.66.63-.13 1.38.26 1.51 1.02zm1.02 12c.12.78-.26 1.54-1.02 1.67-.63.25-1.38-.26-1.5-.9-.27-.76.24-1.53.87-1.65.76-.26 1.52.25 1.65.89zm5.29-9.06c.13.64-.25 1.4-1 1.53-.63.26-1.4-.25-1.52-.89-.25-.77.25-1.53.89-1.66.75-.13 1.5.25 1.63 1.02zm-15.52 7.02c.12.64-.25 1.4-1.01 1.54-.63.25-1.39-.26-1.51-.9-.25-.76.25-1.53.88-1.66.75-.25 1.51.26 1.64 1.02zm0 0" fill="#bd2744"/><path d="m127.74 102.5c.13.63-.25 1.4-1.01 1.52-.63.26-1.39-.25-1.52-.9-.25-.75.26-1.52.89-1.65.75-.13 1.51.26 1.64 1.02zm4.16-5.12c.13.64-.25 1.4-1 1.53-.76.26-1.4-.25-1.65-.89-.13-.77.26-1.53 1.01-1.66.76-.13 1.4.25 1.65 1.02zm-7.2-5.48c.26.76-.24 1.4-.87 1.65-.76.13-1.52-.25-1.65-1.02a1.5 1.5 0 0 1 1.02-1.66c.63-.13 1.38.26 1.5 1.02zm5.82-4.99c.12.64-.26 1.4-1.01 1.53-.76.26-1.4-.25-1.64-.89-.13-.77.25-1.53 1-1.66.76-.13 1.4.25 1.65 1.02zm0 0" fill="#a32843"/><g fill="#fbf8eb"><path d="m13.38 35.05s8.46-20.05 56.05-20.05c47.45 0 53.77 17.12 58.44 25.3 4.67 8.04-32.32 25.66-58.07 25.66-25.62 0-59.32-17.5-56.42-30.9zm0 0"/><path d="m125.85 33.65c-.64 1.4-3.04 1.53-5.43.39-2.53-1.16-3.92-3.2-3.28-4.6.63-1.28 3.15-1.54 5.55-.26 2.4 1.15 3.79 3.2 3.16 4.47zm-92.78-12.77c1.64 2.3.38 6-2.77 8.42-3.16 2.3-7.08 2.3-8.72 0-1.63-2.3-.38-6 2.78-8.3s7.07-2.42 8.71-.13zm0 0"/><path d="m24.61 26.24c1.27 1.8.26 4.85-2.27 6.77-2.64 1.92-5.8 1.92-7.2.13-1.25-1.92-.25-4.98 2.28-6.9 2.65-1.92 5.8-1.92 7.2 0zm25.88-7.54c.38 2.81-3.28 5.75-8.33 6.39-5.05.77-9.47-.9-9.84-3.7-.39-2.81 3.4-5.75 8.45-6.39 4.92-.77 9.34.9 9.72 3.7zm0 0"/><path d="m64.88 15.25c.38 2.82-3.28 5.63-8.33 6.4-5.05.64-9.47-1.03-9.84-3.84-.39-2.8 3.4-5.62 8.45-6.38 4.92-.64 9.34 1.02 9.72 3.82zm0 0"/><path d="m80.66 16.28c-.13 2.8-4.42 4.85-9.47 4.6-5.05-.26-9.09-2.81-8.96-5.63.13-2.8 4.41-4.85 9.47-4.59 5.04.25 9.08 2.8 8.96 5.62zm0 0"/><path d="m97.45 17.68c-.13 2.82-4.3 4.86-9.34 4.6-5.18-.26-9.1-2.8-8.97-5.62.13-2.8 4.42-4.86 9.47-4.6s9.09 2.81 8.84 5.62zm0 0"/><path d="m110.07 21.9c-.63 2.3-4.55 3.19-8.71 2.04-4.17-1.15-6.94-3.96-6.31-6.26s4.41-3.19 8.58-2.04c4.16 1.15 7.07 3.96 6.44 6.26zm0 0"/><path d="m120.29 28.67c-.88 1.91-4.29 2.04-7.58.51-3.27-1.66-5.17-4.34-4.28-6.26.88-1.79 4.16-1.92 7.44-.38 3.29 1.53 5.3 4.34 4.42 6.13zm0 0"/></g><path d="m4.54 26.11-4.29 10.1a4.27 4.27 0 0 0 2.15 5.36 14.96 14.96 0 0 0 14.76-1.92c1.77-1.4 2.15-3.96.77-5.61l-6.57-8.82a3.97 3.97 0 0 0 -6.82.9zm0 0" fill="#bb2750"/><path d="m2.4 41.57a14.96 14.96 0 0 0 14.76-1.92c1.77-1.4 2.15-3.96.77-5.61l-6.57-8.82v.38a14.66 14.66 0 0 1 -8.96 15.97zm0 0" fill="#d82048"/><path d="m6.82 24.7-1.9 6.65c-.5 2.17-.25 6.9.63 8.68 1.52 2.81 3.03 2.69 4.55 2.56 1.51-.26 2.9-.51 3.66-3.57.5-1.92-.38-6.65-1.51-8.56l-3.54-6c-.5-1.16-1.52-1.03-1.9.25zm0 0" fill="#ed6d8c"/><path d="m6.18 41.18c1.27 1.66 2.66 1.54 3.92 1.41 1.51-.26 2.9-.51 3.66-3.57.25-.65.25-1.54.13-2.56-.38-2.05-.89-4.34-1.64-5.5l-3.54-6.5 1.77 8.3c.63 3.57-1.14 7.15-4.3 8.42zm0 0" fill="#f3a3bc"/><path d="m8.2 29.82-.37 3.2c-.13 1.14.12 3.44.37 4.33.5 1.4.89 1.28 1.4 1.28.37-.13.75-.13.88-1.66.12-.9-.26-3.2-.63-4.21l-1.15-2.94c-.13-.52-.5-.52-.5 0zm0 0" fill="#e74b72"/><path d="m8.58 31.1v2.16c0 .78.13 2.43.26 2.94.25 1.03.37 1.03.5 1.03.25 0 .38 0 .38-1.03-.13-.64-.25-2.3-.5-2.94l-.52-2.16c-.13-.38-.13-.38-.13 0zm0 0" fill="#ad2b37"/><path d="m12.75 40.03s4.29-1.4 5.68-2.55c0 0-4.16 1.4-5.93 1.4zm.13-3.44s3.9-1.15 5.17-2.05c0 0-3.78 1.15-5.3 1.15zm-1.01-3.45s3.02-.9 4.16-1.53c0 0-3.03.76-4.29.76zm-.38-2.56s1.51-1.28 2.01-2.04c0 0-1.64 1.15-2.4 1.4zm-.63-1.91s1-1.54 1.13-2.43c0 0-1.01 1.53-1.64 1.92zm0 0" fill="#f3a3bc"/><path d="m6.82 40.8s-4.42-.26-6.2-1.02c0 0 4.43.25 6.07-.13zm-1.02-3.32s-3.9-.13-5.42-.64c0 0 3.91.13 5.43-.13zm.26-3.71s-3.29.13-4.54-.38c0 0 3.27 0 4.41-.25zm-.26-2.55s-1.89-.76-2.51-1.4c0 0 1.88.76 2.64.76zm.13-1.92s-1.51-1.14-1.77-2.03c0 0 1.4 1.27 2.02 1.4zm0 0" fill="#ed6d8c"/><path d="m8.2 34.16-5.3 9.7a4.05 4.05 0 0 0 1.52 5.5 14.78 14.78 0 0 0 14.89-.38 4 4 0 0 0 1.39-5.5l-5.68-9.44c-1.51-2.57-5.43-2.57-6.82.12zm0 0" fill="#bb2750"/><path d="m4.42 49.36a14.78 14.78 0 0 0 14.89-.38 4 4 0 0 0 1.39-5.5l-5.68-9.44v.37a14.7 14.7 0 0 1 -10.6 14.95zm0 0" fill="#d82048"/><path d="m10.6 33.01-2.52 6.39c-.89 2.18-1.14 6.9-.38 8.82 1.14 2.93 2.65 2.93 4.17 2.93 1.5 0 3.02-.12 4.16-3.06.63-1.92.26-6.64-.76-8.81l-2.77-6.28c-.5-1.15-1.4-1.15-1.9 0zm0 0" fill="#ed6d8c"/><path d="m8.2 49.36c1.14 1.78 2.4 1.78 3.67 1.78 1.5 0 3.02-.12 4.16-3.06.13-.64.26-1.53.26-2.56 0-2.04-.38-4.34-.9-5.74l-2.9-6.77.76 8.43c.38 3.7-1.76 7.02-5.05 7.92zm0 0" fill="#f3a3bc"/><path d="m11.36 38.38-.63 3.06a17.01 17.01 0 0 0 -.13 4.35c.38 1.4.76 1.4 1.27 1.4.38 0 .75 0 1.13-1.53.13-.9 0-3.2-.25-4.22l-.76-3.06c-.25-.64-.5-.52-.63 0zm0 0" fill="#e74b72"/><path d="m11.61 39.65-.25 2.17v2.94c.13 1.03.25 1.03.5 1.03.13 0 .26 0 .39-1.03 0-.64 0-2.3-.13-2.94l-.38-2.17c0-.38-.13-.38-.13 0zm0 0" fill="#ad2b37"/><path d="m14.9 48.85s4.28-.77 5.93-1.8c0 0-4.42.9-6.06.65zm.5-3.33s3.9-.63 5.3-1.4c0 0-3.91.64-5.43.51zm-.76-3.57s3.16-.5 4.42-1.02c0 0-3.15.38-4.42.25zm-.12-2.55s1.77-1.02 2.27-1.92c0 0-1.77 1.15-2.52 1.15zm-.38-1.92s1.26-1.4 1.38-2.3c0 0-1.13 1.4-1.76 1.66zm0 0" fill="#f3a3bc"/><path d="m8.84 48.98s-4.42-.64-5.94-1.67c0 0 4.3.77 6.06.51zm-.64-3.32s-3.9-.52-5.3-1.28c0 0 3.92.64 5.3.5zm.64-3.58s-3.29-.38-4.42-.9c0 0 3.15.39 4.42.13zm0-2.55s-1.77-1.03-2.28-1.8c0 0 1.77 1.02 2.53 1.02zm.25-2.05s-1.26-1.28-1.39-2.17c0 0 1.26 1.4 1.9 1.66zm0 0" fill="#ed6d8c"/><path d="m10.73 43.23-2.27 10.73a3.89 3.89 0 0 0 3.03 4.72 14.71 14.71 0 0 0 14.13-4.6 3.92 3.92 0 0 0 -.25-5.62l-8.08-7.4a3.98 3.98 0 0 0 -6.56 2.17zm0 0" fill="#bb2750"/><path d="m11.49 58.68a14.71 14.71 0 0 0 14.13-4.6 3.92 3.92 0 0 0 -.25-5.62l-8.08-7.4.13.38a14.72 14.72 0 0 1 -5.93 17.24zm0 0" fill="#d82048"/><path d="m12.75 41.3-.63 6.91c-.25 2.3.88 7.02 2.15 8.56 2.02 2.43 3.4 2.04 4.91 1.53 1.4-.39 2.78-1.03 3.04-4.09.12-2.04-1.77-6.51-3.16-8.17l-4.54-5.37c-.76-.89-1.64-.5-1.77.64zm0 0" fill="#ed6d8c"/><path d="m15.14 57.66c1.52 1.4 2.79 1.02 4.04.64 1.4-.39 2.78-1.03 3.04-4.09 0-.64-.13-1.53-.51-2.55a15.85 15.85 0 0 0 -2.53-5.11l-4.66-5.88 3.16 7.92c1.38 3.45.25 7.28-2.54 9.07zm0 0" fill="#f3a3bc"/><path d="m15.02 46.16.25 3.2c0 1.14.64 3.32 1.14 4.21.75 1.28 1.13 1.15 1.52 1.02.37-.12.75-.38.62-1.79 0-.89-.87-3.19-1.39-3.95l-1.64-2.81c-.25-.52-.5-.38-.5.12zm0 0" fill="#e74b72"/><path d="m15.52 47.44.51 2.05c.13.76.5 2.3.76 2.94.5.89.63.89.75.76.14 0 .26-.12 0-1.02-.12-.64-.63-2.17-.88-2.81l-.88-2.05c-.26-.38-.26-.25-.26.13zm0 0" fill="#ad2b37"/><path d="m21.33 55.36s3.91-2.17 5.18-3.57c0 0-3.92 2.17-5.56 2.42zm-.5-3.45s3.53-1.78 4.67-2.93c0 0-3.41 1.79-4.93 2.16zm-1.65-3.19s2.91-1.4 3.8-2.3c0 0-2.91 1.4-4.05 1.53zm-.88-2.42s1.4-1.54 1.65-2.43c0 0-1.4 1.53-2.02 1.79zm-.88-1.8s.76-1.66.63-2.55c0 0-.63 1.66-1.26 2.17zm0 0" fill="#f3a3bc"/><path d="m15.65 57.15s-4.42.64-6.3.26c0 0 4.41-.64 6.05-1.41zm-1.64-2.94s-3.91.64-5.43.26c0 0 3.92-.51 5.3-1.15zm-.38-3.71s-3.28.64-4.54.4c0 0 3.16-.52 4.29-1.16zm-.75-2.42s-2.02-.38-2.66-1.02c0 0 1.9.38 2.65.25zm-.26-2.04s-1.64-.9-2.02-1.53c0 0 1.52.89 2.28.89zm0 0" fill="#ed6d8c"/><path d="m23.22 47.95-5.3 9.59a4.02 4.02 0 0 0 1.52 5.49 15.1 15.1 0 0 0 14.9-.26 4.04 4.04 0 0 0 1.38-5.5l-5.68-9.45a3.9 3.9 0 0 0 -6.82.13zm0 0" fill="#bb2750"/><path d="m19.44 63.03a15.1 15.1 0 0 0 14.9-.26 4.04 4.04 0 0 0 1.38-5.5l-5.68-9.45v.4a14.46 14.46 0 0 1 -10.6 14.8zm0 0" fill="#d82048"/><path d="m25.62 46.8-2.52 6.4c-.88 2.03-1.14 6.89-.38 8.8 1.14 2.94 2.65 2.94 4.17 2.94 1.51-.12 3.02-.12 4.16-3.19.63-1.79.25-6.64-.75-8.68l-2.78-6.4c-.5-1.15-1.4-1.01-1.9.13zm0 0" fill="#ed6d8c"/><path d="m23.22 63.03c1.14 1.91 2.4 1.91 3.67 1.91 1.51-.12 3.02-.12 4.16-3.19.13-.51.25-1.54.25-2.43 0-2.17-.37-4.47-1-5.75l-2.78-6.9.76 8.56c.37 3.58-1.77 7.03-5.06 7.8zm0 0" fill="#f3a3bc"/><path d="m26.38 52.04-.63 3.2a16.04 16.04 0 0 0 -.13 4.2c.38 1.41.76 1.54 1.27 1.54.37 0 .75-.13 1.13-1.53.13-.9 0-3.32-.25-4.22l-.77-3.19c-.25-.5-.5-.5-.63 0zm0 0" fill="#e74b72"/><path d="m26.63 53.32-.25 2.17v3.07c.13.89.25 1.01.5 1.01.13 0 .26-.12.38-1.01 0-.65-.12-2.3-.12-3.07l-.38-2.17c0-.39-.13-.39-.13 0zm0 0" fill="#ad2b37"/><path d="m29.91 62.64s4.3-.89 5.94-1.91c0 0-4.42.9-6.06.76zm.51-3.32s3.92-.76 5.3-1.53c0 0-3.92.77-5.42.64zm-.76-3.7s3.16-.39 4.42-1.03c0 0-3.15.52-4.42.39zm-.12-2.55s1.76-1.03 2.26-1.8c0 0-1.76 1.02-2.52 1.16zm-.38-1.93s1.26-1.4 1.39-2.16c0 0-1.14 1.4-1.77 1.66zm0 0" fill="#f3a3bc"/><path d="m23.86 62.77s-4.42-.77-5.93-1.66c0 0 4.29.77 6.05.51zm-.64-3.32s-3.91-.64-5.3-1.28c0 0 3.79.51 5.3.39zm.64-3.7s-3.29-.26-4.42-.9c0 0 3.15.38 4.42.26zm0-2.55s-1.77-.9-2.28-1.67c0 0 1.77.9 2.53 1.02zm.24-1.92s-1.24-1.28-1.37-2.18c0 0 1.14 1.28 1.9 1.54zm0 0" fill="#ed6d8c"/><path d="m34.08 52.17-5.3 9.7a3.98 3.98 0 0 0 1.52 5.37 14.49 14.49 0 0 0 14.89-.26 4 4 0 0 0 1.38-5.49l-5.67-9.45a3.9 3.9 0 0 0 -6.82.13zm0 0" fill="#bb2750"/><path d="m30.3 67.24a14.49 14.49 0 0 0 14.89-.26 4 4 0 0 0 1.38-5.49l-5.67-9.45v.39a14.45 14.45 0 0 1 -10.6 14.81zm0 0" fill="#d82048"/><path d="m36.48 51.02-2.53 6.39c-.88 2.16-1.13 6.9-.38 8.8 1.14 2.95 2.65 2.95 4.17 2.95 1.51 0 3.03-.13 4.17-3.07.63-1.91.25-6.77-.63-8.82l-2.9-6.25c-.51-1.15-1.4-1.15-1.9 0zm0 0" fill="#ed6d8c"/><path d="m34.21 67.37c1 1.79 2.27 1.79 3.53 1.79 1.51 0 3.03-.13 4.17-3.07.25-.64.25-1.54.25-2.55 0-2.18-.38-4.34-.88-5.75l-2.9-6.77.87 8.43c.26 3.7-1.89 7.02-5.04 7.92zm0 0" fill="#f3a3bc"/><path d="m37.23 56.38-.62 3.07a16.86 16.86 0 0 0 -.13 4.34c.38 1.4.88 1.4 1.26 1.4s.88 0 1.14-1.53c.12-.9 0-3.19-.26-4.21l-.75-3.07c-.13-.63-.5-.63-.64 0zm0 0" fill="#e74b72"/><path d="m37.49 57.66-.26 2.18v2.93c.13 1.02.38 1.02.5 1.02.14 0 .26 0 .39-1.02 0-.64 0-2.3-.13-2.93l-.38-2.18c0-.39-.12-.39-.12 0zm0 0" fill="#ad2b37"/><path d="m40.77 66.86s4.42-.9 5.94-1.8c0 0-4.3.9-6.07.65zm.51-3.32s3.9-.64 5.3-1.41c0 0-3.92.64-5.43.51zm-.76-3.58s3.28-.51 4.42-1.02c0 0-3.16.38-4.42.26zm-.12-2.56s1.76-1.02 2.26-1.9c0 0-1.76 1.14-2.52 1.14zm-.39-1.9s1.27-1.42 1.4-2.3c0 0-1.15 1.4-1.78 1.65zm0 0" fill="#f3a3bc"/><path d="m34.71 66.98s-4.41-.64-5.93-1.65c0 0 4.29.76 6.06.5zm-.63-3.32s-3.91-.5-5.3-1.27c0 0 3.91.64 5.43.38zm.63-3.57s-3.28-.39-4.41-.9c0 0 3.15.38 4.41.13zm0-2.55s-1.76-1.03-2.27-1.8c0 0 1.77 1.03 2.52 1.03zm.38-2.04s-1.27-1.29-1.52-2.18c0 0 1.27 1.4 1.9 1.66zm0 0" fill="#ed6d8c"/><path d="m44.05 54.98-5.3 9.57c-1.01 2.05-.38 4.48 1.51 5.5a14.81 14.81 0 0 0 14.9-.25 4 4 0 0 0 1.39-5.5l-5.68-9.45a3.9 3.9 0 0 0 -6.82.13zm0 0" fill="#bb2750"/><path d="m40.26 70.05a14.81 14.81 0 0 0 14.9-.25 4 4 0 0 0 1.39-5.5l-5.68-9.45v.38a14.45 14.45 0 0 1 -10.6 14.82zm0 0" fill="#d82048"/><path d="m46.45 53.83-2.52 6.38c-.89 2.18-1.14 6.9-.38 8.82 1.13 2.93 2.65 2.93 4.16 2.93 1.52-.12 3.04-.12 4.17-3.19.63-1.79.25-6.64-.63-8.68l-2.91-6.39c-.38-1.02-1.38-1.02-1.9.13zm0 0" fill="#ed6d8c"/><path d="m44.18 70.18c1 1.78 2.27 1.78 3.53 1.78 1.52-.12 3.04-.12 4.17-3.19.25-.5.25-1.4.25-2.43 0-2.16-.38-4.47-.88-5.74l-2.91-6.9.89 8.56c.25 3.7-1.9 7.03-5.05 7.92zm0 0" fill="#f3a3bc"/><path d="m47.2 59.06-.63 3.2a11.73 11.73 0 0 0 0 4.21c.26 1.54.77 1.54 1.14 1.54.38 0 .88-.13 1.14-1.54.13-.9 0-3.19-.26-4.2l-.75-3.2c-.13-.51-.5-.51-.63 0zm0 0" fill="#e74b72"/><path d="m47.46 60.34-.25 2.18v3.06c.13 1.02.38 1.02.5 1.02.13 0 .25 0 .38-1.02 0-.64 0-2.3-.13-3.06l-.25-2.18c-.12-.38-.25-.38-.25 0zm0 0" fill="#ad2b37"/><path d="m50.75 69.67s4.41-.9 5.92-1.92c0 0-4.29 1.02-6.06.77zm.5-3.33s3.91-.76 5.3-1.52c0 0-3.92.76-5.3.63zm-.76-3.57s3.28-.5 4.42-1.15c0 0-3.16.5-4.42.38zm0-2.68s1.64-1.03 2.14-1.8c0 0-1.63 1.16-2.52 1.16zm-.51-1.92s1.27-1.28 1.4-2.17c0 0-1.15 1.4-1.77 1.66zm0 0" fill="#f3a3bc"/><path d="m44.68 69.8s-4.29-.77-5.93-1.67c0 0 4.3.77 6.06.51zm-.63-3.33s-3.91-.5-5.3-1.27c0 0 3.91.63 5.43.38zm.63-3.7s-3.15-.25-4.42-.9c0 0 3.16.4 4.42.26zm0-2.56s-1.76-.89-2.27-1.65c0 0 1.77 1.01 2.53 1.01zm.38-1.91s-1.26-1.28-1.51-2.17c0 0 1.26 1.4 1.9 1.53zm0 0" fill="#ed6d8c"/><path d="m53.4 56.38-5.31 9.71a4.1 4.1 0 0 0 1.64 5.5 14.57 14.57 0 0 0 14.77-.4c1.9-1.01 2.52-3.57 1.4-5.48l-5.56-9.45a4.05 4.05 0 0 0 -6.95.12zm0 0" fill="#bb2750"/><path d="m49.73 71.59a14.57 14.57 0 0 0 14.77-.4c1.9-1.01 2.52-3.57 1.4-5.48l-5.56-9.45v.51a14.56 14.56 0 0 1 -10.61 14.82zm0 0" fill="#d82048"/><path d="m55.92 55.23-2.65 6.52c-.76 2.04-1.02 6.9-.25 8.68 1.13 2.94 2.64 3.07 4.16 2.94 1.51 0 3.03-.13 4.04-3.06.76-1.92.25-6.65-.63-8.69l-2.78-6.39c-.5-1.15-1.52-1.15-1.9 0zm0 0" fill="#ed6d8c"/><path d="m53.52 71.59c1 1.78 2.4 1.78 3.66 1.78 1.51 0 3.03-.13 4.04-3.06.25-.64.38-1.54.38-2.56-.13-2.04-.5-4.34-1.01-5.62l-2.78-6.9.76 8.43c.38 3.7-1.9 7.03-5.05 7.93zm0 0" fill="#f3a3bc"/><path d="m56.67 60.6-.75 3.2c-.13 1.02-.26 3.3 0 4.2.37 1.41.75 1.41 1.13 1.41.5 0 .89 0 1.14-1.4.25-1.03.12-3.32-.25-4.35l-.76-3.06c-.13-.51-.38-.51-.5 0zm0 0" fill="#e74b72"/><path d="m56.8 61.88-.13 2.16c-.12.78-.12 2.3 0 2.94.13 1.03.26 1.03.38 1.03.13 0 .26 0 .38-1.03 0-.64 0-2.3-.12-2.94l-.26-2.17c-.12-.38-.12-.38-.25 0zm0 0" fill="#ad2b37"/><path d="m60.08 71.2s4.42-.9 5.94-1.91c0 0-4.3.89-5.94.76zm.51-3.45s3.91-.64 5.43-1.4c0 0-3.92.76-5.43.63zm-.63-3.57s3.15-.39 4.29-1.03c0 0-3.16.51-4.42.26zm-.13-2.56s1.64-1.02 2.15-1.78c0 0-1.64 1.01-2.4 1.14zm-.38-1.92s1.14-1.4 1.39-2.3c0 0-1.26 1.4-1.9 1.66zm0 0" fill="#f3a3bc"/><path d="m54.15 71.2s-4.42-.64-6.06-1.53c0 0 4.42.76 6.06.5zm-.63-3.32s-4.04-.51-5.43-1.15c0 0 3.91.51 5.43.38zm.5-3.58s-3.15-.38-4.41-.9c0 0 3.28.4 4.41.14zm0-2.55s-1.77-1.02-2.27-1.79c0 0 1.77 1.02 2.52 1.02zm.38-1.91s-1.26-1.41-1.5-2.18c0 0 1.25 1.28 1.88 1.54zm0 0" fill="#ed6d8c"/><path d="m130.14 34.16 5.17 9.7a4.04 4.04 0 0 1 -1.5 5.5 14.8 14.8 0 0 1 -14.91-.38 3.98 3.98 0 0 1 -1.26-5.5l5.56-9.44a4.04 4.04 0 0 1 6.94.12zm0 0" fill="#bb2750"/><path d="m133.8 49.36a14.8 14.8 0 0 1 -14.9-.38 3.98 3.98 0 0 1 -1.26-5.5l5.56-9.44v.37a14.7 14.7 0 0 0 10.6 14.95zm0 0" fill="#d82048"/><path d="m127.61 33.01 2.53 6.38c.88 2.18 1.13 6.9.38 8.82-1.15 2.93-2.65 2.93-4.17 2.93s-3.03-.12-4.04-3.06c-.76-1.92-.25-6.64.63-8.81l2.78-6.26c.5-1.15 1.51-1.15 1.9 0zm0 0" fill="#ed6d8c"/><path d="m130.01 49.36c-1.14 1.78-2.4 1.78-3.66 1.78-1.52 0-3.03-.12-4.04-3.06a7.3 7.3 0 0 1 -.38-2.56c.13-2.04.5-4.34 1.01-5.74l2.78-6.77-.76 8.43c-.38 3.7 1.77 7.02 5.05 7.92zm0 0" fill="#f3a3bc"/><path d="m126.85 38.38.64 3.06c.25 1.02.38 3.45.12 4.35-.38 1.4-.76 1.4-1.26 1.4-.38 0-.76 0-1-1.53-.26-.9-.14-3.2.12-4.22l.88-3.06c.13-.64.38-.52.5 0zm0 0" fill="#e74b72"/><path d="m126.6 39.65.25 2.17c.13.64.13 2.3 0 2.94-.12 1.03-.25 1.03-.37 1.03-.13 0-.38 0-.38-1.03-.13-.64 0-2.3.12-2.94l.26-2.17c0-.38.12-.38.12 0zm0 0" fill="#ad2b37"/><path d="m123.45 48.85s-4.42-.77-6.06-1.8c0 0 4.42.9 6.06.65zm-.64-3.33s-3.91-.63-5.3-1.4c0 0 3.92.64 5.43.51zm.76-3.57s-3.15-.5-4.41-1.02c0 0 3.28.38 4.41.25zm.13-2.55s-1.77-1.02-2.27-1.92c0 0 1.77 1.15 2.52 1.15zm.38-1.92s-1.27-1.4-1.4-2.3c0 0 1.15 1.4 1.9 1.66zm0 0" fill="#f3a3bc"/><path d="m129.38 48.98s4.42-.64 6.06-1.67c0 0-4.42.77-6.06.51zm.63-3.32s3.92-.52 5.43-1.28c0 0-3.91.64-5.43.5zm-.63-3.58s3.28-.38 4.42-.9c0 0-3.16.39-4.43.13zm0-2.55s1.76-1.03 2.27-1.8c0 0-1.64 1.02-2.4 1.02zm-.25-2.05s1.26-1.28 1.51-2.17c0 0-1.26 1.4-2.02 1.66zm0 0" fill="#ed6d8c"/><path d="m126.1 42.08 4.54 9.96a3.94 3.94 0 0 1 -1.9 5.37 14.6 14.6 0 0 1 -14.76-1.28 4 4 0 0 1 -1-5.63l6.3-9.06c1.64-2.55 5.55-2.17 6.82.64zm0 0" fill="#bb2750"/><path d="m128.75 57.4a14.6 14.6 0 0 1 -14.77-1.27 4 4 0 0 1 -1-5.63l6.3-9.06-.12.38a14.67 14.67 0 0 0 9.59 15.59zm0 0" fill="#d82048"/><path d="m123.7 40.67 2.15 6.64c.63 2.18.63 7.03-.26 8.82-1.39 2.8-2.9 2.68-4.41 2.55-1.52-.12-3.04-.25-3.91-3.32-.52-1.91.25-6.64 1.25-8.68l3.29-6.14c.5-1.01 1.51-1.01 1.89.13zm0 0" fill="#ed6d8c"/><path d="m124.96 57.15c-1.26 1.79-2.52 1.66-3.78 1.53-1.52-.12-3.04-.25-3.91-3.32-.13-.64-.13-1.53-.13-2.56.25-2.03.75-4.34 1.38-5.61l3.29-6.65-1.4 8.44c-.5 3.57 1.4 7.15 4.55 8.17zm0 0" fill="#f3a3bc"/><path d="m122.56 46.04.5 3.06c.14 1.15 0 3.45-.25 4.35-.5 1.4-.88 1.4-1.26 1.4-.5-.13-.88-.13-1-1.66-.13-.9.12-3.19.5-4.21l1-3.07c.13-.51.39-.51.51.13zm0 0" fill="#e74b72"/><path d="m122.3 47.31v2.18c0 .63-.12 2.3-.24 2.94-.13 1.02-.25 1.02-.38 1.02-.25-.13-.38-.13-.38-1.16 0-.63.13-2.16.38-2.93l.38-2.17c.12-.39.25-.26.25.12zm0 0" fill="#ad2b37"/><path d="m118.4 56.26s-4.3-1.15-5.81-2.3c0 0 4.29 1.27 5.93 1.15zm-.26-3.33s-3.91-1.02-5.3-1.91c0 0 3.79 1.02 5.3 1.02zm.89-3.57s-3.16-.64-4.3-1.4c0 0 3.16.76 4.43.63zm.26-2.56s-1.65-1.14-2.02-2.04c0 0 1.63 1.28 2.39 1.4zm.62-1.91s-1.14-1.4-1.26-2.3c0 0 1.01 1.4 1.64 1.78zm0 0" fill="#f3a3bc"/><path d="m124.33 56.77s4.42-.39 6.19-1.15c0 0-4.42.38-6.2 0zm.88-3.2s3.92-.25 5.43-.89c0 0-3.91.25-5.43 0zm-.38-3.7s3.29-.13 4.55-.64c0 0-3.28.26-4.42-.13zm.26-2.56s1.76-.89 2.4-1.52c0 0-1.9.76-2.66.76zm-.26-2.04s1.4-1.15 1.65-2.04c0 0-1.27 1.28-2.02 1.53zm0 0" fill="#ed6d8c"/><path d="m115.12 47.95 5.17 9.59a4.01 4.01 0 0 1 -1.52 5.49 15.1 15.1 0 0 1 -14.89-.26 4.11 4.11 0 0 1 -1.26-5.5l5.55-9.45a4 4 0 0 1 6.95.13zm0 0" fill="#bb2750"/><path d="m118.77 63.03a15.1 15.1 0 0 1 -14.89-.26 4.11 4.11 0 0 1 -1.26-5.5l5.55-9.45v.4a14.46 14.46 0 0 0 10.6 14.8zm0 0" fill="#d82048"/><path d="m112.59 46.8 2.65 6.4c.76 2.03 1.01 6.89.26 8.8-1.14 2.94-2.65 2.94-4.17 2.94-1.52-.12-3.03-.12-4.04-3.19-.76-1.79-.25-6.64.63-8.68l2.78-6.4c.5-1.15 1.51-1.01 1.89.13zm0 0" fill="#ed6d8c"/><path d="m115 63.03c-1.14 1.91-2.41 1.91-3.67 1.91-1.52-.12-3.03-.12-4.04-3.19a6.49 6.49 0 0 1 -.38-2.43c.13-2.17.5-4.47 1.01-5.75l2.78-6.9-.76 8.56c-.38 3.58 1.77 7.03 5.05 7.8zm0 0" fill="#f3a3bc"/><path d="m111.84 52.04.62 3.2c.25 1.02.39 3.32.13 4.2-.38 1.41-.75 1.54-1.13 1.54-.5 0-.89-.13-1.14-1.53-.25-.9-.13-3.32.13-4.22l.88-3.19c.13-.5.38-.5.5 0zm0 0" fill="#e74b72"/><path d="m111.58 53.32.26 2.17c.12.77.12 2.42 0 3.07-.13.89-.26 1.01-.38 1.01-.13 0-.38-.12-.38-1.01-.13-.65 0-2.3.12-3.07l.26-2.17c0-.39.12-.39.12 0zm0 0" fill="#ad2b37"/><path d="m108.43 62.64s-4.42-.89-6.07-1.91c0 0 4.43.9 6.07.76zm-.63-3.32s-3.92-.76-5.3-1.53c0 0 3.9.77 5.42.64zm.75-3.7s-3.15-.39-4.3-1.03c0 0 3.17.52 4.3.39zm.13-2.55s-1.77-1.03-2.15-1.8c0 0 1.64 1.02 2.4 1.16zm.38-1.93s-1.27-1.4-1.4-2.16c0 0 1.15 1.4 1.9 1.66zm0 0" fill="#f3a3bc"/><path d="m114.36 62.77s4.41-.77 6.06-1.66c0 0-4.42.77-6.06.51zm.64-3.32s3.9-.64 5.42-1.28c0 0-3.92.51-5.43.39zm-.64-3.7s3.28-.26 4.41-.9c0 0-3.15.38-4.41.26zm0-2.55s1.77-.9 2.27-1.67c0 0-1.64.9-2.4 1.02zm-.26-1.92s1.27-1.28 1.52-2.18c0 0-1.26 1.28-1.9 1.54zm0 0" fill="#ed6d8c"/><path d="m104.77 52.43 4.54 9.96c.88 2.04 0 4.47-1.9 5.36a14.85 14.85 0 0 1 -14.89-1.28 4.1 4.1 0 0 1 -.88-5.62l6.18-9.06a4.07 4.07 0 0 1 6.95.64zm0 0" fill="#bb2750"/><path d="m107.42 67.75a14.85 14.85 0 0 1 -14.9-1.28 4.1 4.1 0 0 1 -.88-5.62l6.18-9.06v.38a14.45 14.45 0 0 0 9.6 15.58zm0 0" fill="#d82048"/><path d="m102.36 51.14 2.15 6.52c.63 2.18.51 7.03-.38 8.81-1.25 2.82-2.77 2.82-4.29 2.69s-3.02-.39-3.91-3.45c-.5-1.92.25-6.65 1.26-8.69l3.29-6.13c.5-1.02 1.5-.89 1.88.25zm0 0" fill="#ed6d8c"/><path d="m103.5 67.62c-1.14 1.67-2.4 1.67-3.66 1.54-1.52-.13-3.02-.39-3.91-3.45a7.95 7.95 0 0 1 -.13-2.56c.25-2.04.76-4.34 1.4-5.61l3.28-6.65-1.4 8.43c-.62 3.7 1.4 7.15 4.42 8.3zm0 0" fill="#f3a3bc"/><path d="m101.23 56.38.38 3.2a11.8 11.8 0 0 1 -.13 4.21c-.5 1.4-.88 1.4-1.39 1.4-.38 0-.75-.12-1-1.53a17.1 17.1 0 0 1 .5-4.34l1.01-2.94c.26-.63.5-.5.63 0zm0 0" fill="#e74b72"/><path d="m100.86 57.66.12 2.18c0 .76-.12 2.29-.25 2.93-.13 1.02-.39 1.02-.51 1.02-.13 0-.25 0-.25-1.02 0-.64.12-2.3.25-3.07l.5-2.04c.14-.39.14-.39.14 0zm0 0" fill="#ad2b37"/><path d="m97.07 66.6s-4.42-1.15-5.94-2.3c0 0 4.3 1.28 6.06 1.28zm-.38-3.32s-3.79-1.02-5.18-1.79c0 0 3.79.9 5.3.9zm1.01-3.58s-3.16-.64-4.3-1.27c0 0 3.16.63 4.42.5zm.25-2.55s-1.65-1.15-2.02-1.92c0 0 1.64 1.15 2.4 1.28zm.51-1.92s-1.14-1.4-1.27-2.3c0 0 1.13 1.54 1.77 1.8zm0 0" fill="#f3a3bc"/><path d="m103 67.24s4.42-.38 6.06-1.28c0 0-4.42.51-6.06.13zm.88-3.32s3.91-.26 5.43-.9c0 0-3.91.39-5.43 0zm-.38-3.71s3.29 0 4.42-.5c0 0-3.15.13-4.42-.14zm.13-2.55s1.9-.77 2.4-1.53c0 0-1.77.9-2.53.9zm-.13-1.91s1.4-1.28 1.64-2.05c0 0-1.39 1.28-2.02 1.4zm0 0" fill="#ed6d8c"/><path d="m93.53 54.6 6.18 9.2c1.15 1.78.77 4.33-1.13 5.49a14.62 14.62 0 0 1 -14.77 1.14c-2.01-.9-2.77-3.32-1.89-5.36l4.8-9.84a3.91 3.91 0 0 1 6.81-.64zm0 0" fill="#bb2750"/><path d="m98.58 69.29a14.62 14.62 0 0 1 -14.77 1.14c-2.01-.9-2.77-3.32-1.89-5.36l4.8-9.84v.39a14.39 14.39 0 0 0 11.86 13.67zm0 0" fill="#d82048"/><path d="m91 53.7 3.16 6.14c1.01 2.03 1.64 6.76 1.14 8.68-.88 3.07-2.4 3.32-3.91 3.32-1.52.12-3.03.26-4.42-2.68-.76-1.8-.88-6.64-.13-8.69l2.27-6.64c.38-1.15 1.27-1.15 1.9-.13zm0 0" fill="#ed6d8c"/><path d="m94.8 69.8c-.89 1.91-2.15 2.04-3.41 2.04-1.52.12-3.03.26-4.42-2.68a8.78 8.78 0 0 1 -.5-2.43c-.13-2.18 0-4.47.37-5.75l2.27-7.15v8.56c0 3.7 2.4 6.77 5.69 7.4zm0 0" fill="#f3a3bc"/><path d="m90.63 59.06 1 3.07c.39 1.02.64 3.32.51 4.21-.25 1.54-.63 1.54-1.13 1.67-.38 0-.76 0-1.27-1.4-.25-.9-.25-3.33-.12-4.35l.5-3.06c.13-.64.38-.64.5-.14zm0 0" fill="#e74b72"/><path d="m90.63 60.34.38 2.18c.12.76.25 2.3.25 2.93 0 1.02-.13 1.15-.25 1.15-.26 0-.38 0-.5-1.02-.13-.64-.26-2.3-.13-2.94v-2.3c0-.38.12-.38.25 0zm0 0" fill="#ad2b37"/><path d="m88.23 69.92s-4.42-.51-6.18-1.28c0 0 4.41.52 6.18.13zm-.88-3.32s-3.92-.26-5.43-.9c0 0 3.9.39 5.43.13zm.37-3.57s-3.15-.13-4.42-.64c0 0 3.29.13 4.42-.13zm-.12-2.56s-1.77-.9-2.28-1.66c0 0 1.77.9 2.53.9zm.25-2.04s-1.39-1.28-1.64-2.05c0 0 1.39 1.28 2.02 1.4zm0 0" fill="#f3a3bc"/><path d="m94.16 69.41s4.3-1.02 5.8-2.17c0 0-4.28 1.15-5.92 1.15zm.38-3.32s3.78-.9 5.17-1.79c0 0-3.78 1.03-5.3.9zm-1.01-3.57s3.29-.65 4.42-1.28c0 0-3.15.63-4.42.51zm-.13-2.56s1.65-1.15 2.03-1.91c0 0-1.65 1.15-2.4 1.27zm-.5-1.91s1.14-1.41 1.26-2.3c0 0-1.13 1.52-1.76 1.79zm0 0" fill="#ed6d8c"/><path d="m86.46 57.54 2.9 10.6a4.23 4.23 0 0 1 -2.77 4.97 14.95 14.95 0 0 1 -14.4-3.82c-1.5-1.67-1.63-4.22 0-5.75l7.71-7.8a3.9 3.9 0 0 1 6.56 1.8zm0 0" fill="#bb2750"/><path d="m86.59 73.11a14.95 14.95 0 0 1 -14.4-3.82c-1.5-1.67-1.63-4.22 0-5.75l7.71-7.8-.12.39a14.63 14.63 0 0 0 6.81 16.98zm0 0" fill="#d82048"/><path d="m84.45 55.75.87 6.9c.38 2.3-.5 7.02-1.64 8.67-1.88 2.56-3.4 2.18-4.79 1.8-1.52-.39-2.9-.9-3.28-3.96-.26-2.05 1.39-6.64 2.65-8.43l4.3-5.37c.74-1.02 1.63-.77 1.89.39zm0 0" fill="#ed6d8c"/><path d="m82.8 72.22c-1.39 1.53-2.65 1.28-3.9.9-1.53-.39-2.91-.9-3.3-3.96 0-.64 0-1.54.26-2.56a23.96 23.96 0 0 1 2.27-5.36l4.42-5.88-2.77 8.05c-1.14 3.45.12 7.15 3.02 8.81zm0 0" fill="#f3a3bc"/><path d="m82.3 60.85v3.2c0 1.02-.5 3.32-.89 4.08-.75 1.28-1.13 1.28-1.5 1.16-.52-.13-.9-.26-.77-1.67 0-1.02.64-3.19 1.14-4.08l1.52-2.94c.25-.39.63-.39.5.25zm0 0" fill="#e74b72"/><path d="m81.92 62-.38 2.18c-.13.64-.5 2.3-.63 2.8-.38 1.03-.5 1.03-.63.9-.25 0-.38 0-.13-1.02 0-.64.5-2.17.76-2.94l.75-1.92c.14-.38.26-.38.26 0zm0 0" fill="#ad2b37"/><path d="m76.5 70.18s-4.05-1.92-5.31-3.2c0 0 4.04 1.92 5.68 2.18zm.24-3.32s-3.53-1.66-4.8-2.68c0 0 3.67 1.65 5.18 1.78zm1.65-3.32s-3.04-1.28-4.04-2.18c0 0 3.03 1.28 4.16 1.4zm.63-2.56s-1.4-1.4-1.64-2.3c0 0 1.38 1.53 2.14 1.8zm.88-1.78s-.88-1.54-.88-2.43c0 0 .88 1.66 1.39 2.04zm0 0" fill="#f3a3bc"/><path d="m82.3 71.71s4.41.39 6.18-.12c0 0-4.41-.27-5.93-.9zm1.38-3.07s4.04.52 5.56.13c0 0-3.92-.38-5.3-.9zm.26-3.7s3.28.51 4.54.26c0 0-3.16-.38-4.29-.9zm.63-2.42s2.02-.52 2.65-1.16c0 0-1.9.52-2.65.39zm.13-1.92s1.64-1.03 2.01-1.8c0 0-1.51 1.04-2.26 1.04zm0 0" fill="#ed6d8c"/><path d="m71.95 56.13 6.18 9.07a4.1 4.1 0 0 1 -1 5.61 14.9 14.9 0 0 1 -14.77 1.15 3.94 3.94 0 0 1 -1.9-5.36l4.67-9.96a3.9 3.9 0 0 1 6.82-.51zm0 0" fill="#bb2750"/><path d="m77.12 70.81a14.9 14.9 0 0 1 -14.76 1.15 3.94 3.94 0 0 1 -1.9-5.36l4.67-9.96v.38c.26 6.9 5.3 12.65 12 13.8zm0 0" fill="#d82048"/><path d="m69.43 55.23 3.15 6.13c1.01 1.92 1.77 6.77 1.13 8.69-.88 3.06-2.4 3.2-3.9 3.32-1.4.13-3.04.13-4.3-2.68-.89-1.8-.89-6.65-.25-8.81l2.15-6.52c.38-1.15 1.38-1.28 2.02-.13zm0 0" fill="#ed6d8c"/><path d="m73.33 71.2c-.88 1.91-2.14 2.04-3.53 2.17s-3.03.13-4.29-2.68c-.25-.51-.5-1.4-.63-2.43-.13-2.17 0-4.47.5-5.74l2.03-7.16.12 8.56c0 3.58 2.52 6.77 5.8 7.28zm0 0" fill="#f3a3bc"/><path d="m69.17 60.6.88 3.06c.38.9.63 3.32.5 4.22-.12 1.4-.62 1.53-1 1.53s-.89 0-1.26-1.4c-.25-.9-.38-3.2-.25-4.22l.5-3.2c.12-.5.38-.5.63 0zm0 0" fill="#e74b72"/><path d="m69.04 61.88.39 2.16c.12.65.37 2.3.37 2.94-.12 1.03-.25 1.03-.37 1.03-.14 0-.26 0-.51-1.03-.13-.64-.13-2.16-.13-2.94v-2.17c.13-.38.13-.38.25 0zm0 0" fill="#ad2b37"/><path d="m66.64 71.46s-4.41-.51-6.05-1.28c0 0 4.41.5 6.05.13zm-.74-3.33s-4.05-.25-5.44-.89c0 0 3.91.38 5.43 0zm.37-3.7s-3.29-.13-4.55-.51c0 0 3.28.12 4.42-.13zm-.25-2.55s-1.77-.77-2.28-1.54c0 0 1.77.9 2.53.9zm.25-1.92s-1.4-1.28-1.64-2.05c0 0 1.39 1.29 2.01 1.41zm0 0" fill="#f3a3bc"/><path d="m72.7 70.95s4.3-1.15 5.81-2.3c0 0-4.3 1.27-6.06 1.15zm.26-3.45s3.91-.9 5.3-1.8c0 0-3.91 1.03-5.43 1.03zm-.89-3.46s3.16-.63 4.3-1.4c0 0-3.16.77-4.42.64zm-.25-2.54s1.64-1.16 2.02-2.05c0 0-1.64 1.15-2.4 1.28zm-.51-1.93s1.14-1.52 1.27-2.3c0 0-1.13 1.41-1.77 1.67zm0 0" fill="#ed6d8c"/><path d="m64.5 29.05s-9.85-7.92-16.41-6.64c0 0 11.36 2.04 15.4 8.81zm7.32 4.72s12.63-.63 17.04 4.22c0 0-10.22-4.98-17.41-1.92zm0 0" fill="#72b635"/><path d="m57.56 42.33s-.63-3.31 5.93-5.23 7.07 1.53 7.07 1.53 1.01 3.32-4.92 5.1c-5.94 1.67-6.95 0-8.08-1.4zm0 0" fill="#9d6a28"/><path d="m66.9 36.59c-.88 0-2.02.12-3.4.5-6.57 1.93-5.94 5.24-5.94 5.24.63.77 1.13 1.54 2.4 1.92a14.53 14.53 0 0 1 6.94-7.66zm0 0" fill="#b67d38"/><path d="m58.31 41.7s.89-2.3 5.56-3.7c4.8-1.41 5.93.38 5.93.38s-1.76-1.03-5.8.12c-3.92 1.15-5.69 3.2-5.69 3.2zm0 0" fill="#734c25"/><path d="m58.31 41.7s1.14-1.4 5.81-2.68c4.8-1.41 5.68-.65 5.68-.65s-1.51-.25-5.55.9c-3.91 1.15-5.94 2.43-5.94 2.43zm11.62-2.81s-.89 2.3-5.56 3.7c-4.8 1.4-5.93-.38-5.93-.38s1.77 1.02 5.8-.13c3.92-1.15 5.69-3.2 5.69-3.2zm0 0" fill="#734c25"/><path d="m69.93 38.89s-1.14 1.4-5.8 2.68c-4.8 1.4-5.69.64-5.69.64s1.52.25 5.56-.9a25.4 25.4 0 0 0 5.93-2.42zm0 0" fill="#734c25"/><path d="m58.44 41.95s6.69-3.06 11.36-3.32c0 0-7.44 2.94-11.36 3.32zm0 0" fill="#734c25"/><path d="m87.72 26.88s1.77-2.94 7.83.39c6.06 3.19 4.04 5.87 4.04 5.87s-1.52 3.19-6.94.25c-5.56-2.93-5.05-4.85-4.93-6.51zm0 0" fill="#9d6a28"/><path d="m98.32 29.18a10.4 10.4 0 0 0 -2.77-1.91c-6.06-3.33-7.83-.4-7.83-.4-.12.9-.25 1.8.39 2.95a14.2 14.2 0 0 1 10.21-.64zm0 0" fill="#b67d38"/><path d="m88.6 26.88s2.28-1.15 6.57 1.28c4.42 2.3 4.04 4.34 4.04 4.34s-.5-1.92-4.16-3.96c-3.66-1.91-6.44-1.66-6.44-1.66zm0 0" fill="#734c25"/><path d="m88.6 26.88s1.78-.25 6.2 2.17c4.29 2.3 4.41 3.45 4.41 3.45s-.89-1.28-4.54-3.2c-3.66-2.03-6.06-2.42-6.06-2.42zm10.36 6.13s-2.14 1.03-6.56-1.28c-4.3-2.3-3.92-4.46-3.92-4.46s.5 2.03 4.17 3.95c3.66 2.04 6.31 1.8 6.31 1.8zm0 0" fill="#734c25"/><path d="m98.96 33.01s-1.64.13-6.06-2.17c-4.3-2.3-4.42-3.57-4.42-3.57s.89 1.4 4.55 3.31a27.26 27.26 0 0 0 5.93 2.43zm0 0" fill="#734c25"/><path d="m88.6 27.13s6.95 2.56 10.49 5.63c0 0-7.33-3.2-10.48-5.63zm0 0" fill="#734c25"/><path d="m72.07 18.32s1.01-3.2 7.7-1.66c6.57 1.66 5.43 4.85 5.43 4.85s-.75 3.45-6.81 1.92c-5.94-1.4-6.06-3.32-6.32-5.11zm0 0" fill="#9d6a28"/><path d="m82.93 17.8c-.76-.37-1.77-.76-3.15-1.14-6.7-1.53-7.7 1.66-7.7 1.66.12 1.02.25 1.92 1.13 2.81a15.68 15.68 0 0 1 9.72-3.32zm0 0" fill="#b67d38"/><path d="m72.96 18.2s1.9-1.67 6.68-.52c4.8 1.15 4.93 3.32 4.93 3.32s-1.01-1.91-5.05-2.8c-4.04-1.03-6.56 0-6.56 0zm0 0" fill="#734c25"/><path d="m72.96 18.2s1.64-.65 6.43.5c4.8 1.16 5.18 2.3 5.18 2.3s-1.14-1.14-5.18-2.04c-4.04-1.02-6.43-.76-6.43-.76zm11.61 3.19s-1.9 1.66-6.69.5c-4.8-1.14-5.05-3.31-5.05-3.31s1.14 1.92 5.18 2.8c4.04 1.03 6.56 0 6.56 0zm0 0" fill="#734c25"/><path d="m84.57 21.39s-1.64.63-6.44-.52-5.3-2.3-5.3-2.3 1.26 1.15 5.3 2.05c4.04 1.02 6.44.77 6.44.77zm0 0" fill="#734c25"/><path d="m72.96 18.45s7.32.64 11.61 2.68c0 0-7.95-1.15-11.61-2.68zm0 0" fill="#734c25"/><path d="m65.39 33.14s-10.99 6.13-12.25 12.65c0 0 6.06-9.72 13.76-10.86zm3.4 1.02s-7.2 8.43-6.18 14.18c0 0 2.02-9.84 7.95-13.29zm3.41-10.73s9.85-7.91 16.28-6.51c0 0-11.23 2.04-15.27 8.68zm-8.58 2.94s-8.08-4.86-8.84-9.84c0 0 4.3 7.41 9.97 8.43zm0 0" fill="#72b635"/><path d="m87.22 23.81-16.92 7.16c-.63.25-.63 1.53 0 3.07.5 1.4 1.51 2.29 2.02 2.03l16.9-7.02zm0 0" fill="#393634"/><path d="m89.24 29.05-2.02-5.24-16.91 7.16 9.72-2.94c3.15-.9 6.43-.51 9.2 1.02zm0 0" fill="#5e5b59"/><path d="m89.37 29.05c-.64.13-1.52-.77-2.15-2.17s-.63-2.81 0-3.07c.63-.25 1.51.77 2.15 2.18.5 1.4.5 2.8 0 3.06zm0 0" fill="#393634"/><path d="m88.6 26.24c.39 1.15.51 2.17.26 2.68.25.13.38.13.5.13.5-.26.5-1.66 0-3.06-.63-1.41-1.51-2.43-2.14-2.18-.13 0-.25.13-.25.39.5.12 1.14 1.02 1.64 2.04zm0 0" fill="#5e5b59"/><path d="m82.8 31.73 2.9-7.28-2.4 1.03-3.02 7.28zm-4.67 1.92 3.03-7.28-2.52 1.02-2.9 7.28zm-4.03-4.35-2.65 6.52c.37.25.62.38.88.25l1.13-.38 3.03-7.4zm0 0" fill="#9e9491"/><path d="m84.45 27.64 1.25-3.19-2.4 1.03-.87 2.16a5.32 5.32 0 0 1 2.02 0zm-8.34 1.54.38-.9-2.4 1.02-.25.65zm3.92-1.15c.12 0 .25 0 .5-.13l.63-1.53-2.52 1.02-.38 1.15zm0 0" fill="#c1b8b5"/><path d="m55.29 31.22 16.28 8.69c.5.38 1.51-.52 2.27-1.92s.88-2.68.25-3.06l-16.03-8.56zm0 0" fill="#393634"/><path d="m58.06 26.37-2.77 4.85 16.28 8.69-8.46-5.87a11.73 11.73 0 0 1 -5.05-7.67zm0 0" fill="#5e5b59"/><path d="m57.94 26.24c.5.25.37 1.66-.38 3.06-.63 1.28-1.64 2.17-2.27 1.92-.51-.38-.38-1.66.25-3.06.75-1.4 1.77-2.17 2.4-1.92zm0 0" fill="#393634"/><path d="m56.3 28.54c.5-1.02 1.26-1.79 1.89-1.91-.13-.14-.13-.26-.25-.39-.63-.25-1.65.51-2.4 1.92-.63 1.4-.76 2.68-.25 3.06h.5c-.25-.5 0-1.66.5-2.68zm0 0" fill="#5e5b59"/><path d="m64.25 29.7-7.58 2.29 2.4 1.15 7.45-2.3zm4.41 2.29-7.57 2.3 2.4 1.27 7.45-2.3zm-.75 6.01 6.56-2.05c0-.51-.12-.9-.38-1.02l-1-.52-7.58 2.3zm0 0" fill="#9e9491"/><path d="m59.96 30.97-3.29 1.02 2.4 1.15 2.15-.64c-.5-.51-.88-1.03-1.26-1.53zm6.56 5.49-1 .25 2.38 1.29.5-.25zm-3.42-2.42c-.12 0-.24-.14-.37-.14l-1.64.39 2.4 1.27 1.13-.38zm0 0" fill="#c1b8b5"/><path d="m71.06 17.04v-1.02c0-2.04-.75-3.83-2.14-5.23l-.76-.77-1.26 1.15.89.9a5.67 5.67 0 0 1 1.64 3.95v1.02zm0 0" fill="#2f2a26"/><path d="m78.39 24.45c0 4.6-3.67 8.43-8.34 8.43a8.45 8.45 0 0 1 -8.33-8.43 8.48 8.48 0 0 1 8.33-8.56 8.4 8.4 0 0 1 8.34 8.56zm0 0" fill="#d7222b"/><path d="m70.05 15.9c-.25 0-.5.12-.76.12a7.02 7.02 0 0 1 6.32 6.9 6.96 6.96 0 0 1 -13.89.77v.76c0 4.6 3.8 8.43 8.33 8.43a8.37 8.37 0 0 0 8.34-8.43 8.4 8.4 0 0 0 -8.34-8.56zm0 0" fill="#b3282d"/><path d="m70.3 22.54c0 1.78-1.51 3.19-3.15 3.19a3.15 3.15 0 0 1 -3.15-3.2c0-1.78 1.39-3.19 3.15-3.19 1.64 0 3.16 1.41 3.16 3.2zm0 0" fill="#f297a4"/><path d="m72.83 43.6s-.13-4.07 7.83-5.1c7.95-1.02 7.95 3.07 7.95 3.07s.63 4.09-6.69 4.98c-7.2.9-8.08-1.15-9.1-2.94zm0 0" fill="#9d6a28"/><path d="m84.7 38.38c-1.02-.14-2.4-.14-4.04.12-7.96 1.03-7.83 5.1-7.83 5.1.5.9 1.01 1.92 2.4 2.56a17.6 17.6 0 0 1 9.47-7.78zm0 0" fill="#b67d38"/><path d="m73.71 42.97s1.4-2.68 7.2-3.32c5.8-.76 6.94 1.53 6.94 1.53s-1.89-1.65-6.81-1.02c-4.8.64-7.33 2.81-7.33 2.81zm0 0" fill="#734c25"/><path d="m73.71 42.97s1.64-1.4 7.33-2.17c5.8-.77 6.8.38 6.8.38s-1.75-.64-6.68-.13c-4.92.65-7.45 1.92-7.45 1.92zm14.14-1.27s-1.39 2.67-7.2 3.32c-5.8.77-6.8-1.54-6.8-1.54s1.89 1.66 6.68 1.03c4.92-.64 7.32-2.81 7.32-2.81zm0 0" fill="#734c25"/><path d="m87.85 41.7s-1.51 1.4-7.32 2.17c-5.8.76-6.69-.39-6.69-.39s1.77.77 6.7.13c4.78-.64 7.3-1.91 7.3-1.91zm0 0" fill="#734c25"/><path d="m73.84 43.23s8.46-2.3 14-1.79c0 0-9.33 2.04-14 1.79zm0 0" fill="#734c25"/><path d="m43.55 30.84s1.64-3.07 7.95-.38c6.31 2.55 4.54 5.49 4.54 5.49s-1.26 3.32-6.94.89c-5.68-2.3-5.43-4.22-5.55-6zm0 0" fill="#9d6a28"/><path d="m54.4 31.99a12.03 12.03 0 0 0 -2.9-1.53c-6.31-2.69-7.95.38-7.95.38 0 .9 0 1.92.75 2.93a15.44 15.44 0 0 1 10.1-1.77zm0 0" fill="#b67d38"/><path d="m44.56 30.84s2.15-1.4 6.69.5c4.54 1.92 4.41 3.97 4.41 3.97s-.75-1.92-4.66-3.45c-3.8-1.66-6.44-1.02-6.44-1.02zm0 0" fill="#734c25"/><path d="m44.56 30.84s1.76-.38 6.31 1.4c4.54 1.92 4.8 3.07 4.8 3.07s-1.02-1.15-4.92-2.81c-3.8-1.53-6.2-1.66-6.2-1.66zm10.85 4.98s-2.02 1.28-6.56-.51c-4.67-1.92-4.42-4.09-4.42-4.09s.63 1.92 4.55 3.58c3.78 1.53 6.43 1.02 6.43 1.02zm0 0" fill="#734c25"/><path d="m55.41 35.82s-1.64.38-6.18-1.53c-4.67-1.92-4.8-3.07-4.8-3.07s1.01 1.28 4.8 2.82a27.86 27.86 0 0 0 6.18 1.78zm0 0" fill="#734c25"/><path d="m44.56 31.1s7.06 1.78 10.98 4.46c0 0-7.7-2.42-10.98-4.47zm0 0" fill="#734c25"/></svg>