<svg xmlns="http://www.w3.org/2000/svg" width="185" height="267" viewBox="0 0 139 200"><defs><radialGradient id="a" gradientUnits="userSpaceOnUse" cx="158" cy="161" fx="158" fy="161" r="34" gradientTransform="matrix(.2547 .53878 .40649 -.3376 -54 22)"><stop offset="0" stop-color="#7ab300"/><stop offset="1" stop-color="#588200"/></radialGradient><radialGradient id="b" gradientUnits="userSpaceOnUse" cx="183" cy="170" fx="183" fy="170" r="49" gradientTransform="matrix(.04472 .71539 .71261 -.0449 -69 -67)"><stop offset="0" stop-color="#8bcc00"/><stop offset="1" stop-color="#395400"/><stop offset="1" stop-color="#395400"/></radialGradient><radialGradient id="c" gradientUnits="userSpaceOnUse" cx="192" cy="215" fx="192" fy="215" r="54" gradientTransform="matrix(.21418 .28113 .18106 -.33255 -17 88)"><stop offset="0" stop-color="#7db800"/><stop offset="0" stop-color="#7db800"/><stop offset="0" stop-color="#6a9d00"/><stop offset="1" stop-color="#588200"/></radialGradient><radialGradient id="d" gradientUnits="userSpaceOnUse" cx="160" cy="168" fx="160" fy="168" r="15" gradientTransform="matrix(.63314 1.05078 1.0184 -.65328 -220 -4)"><stop offset="0" stop-color="#87c500"/><stop offset="1" stop-color="#598200"/></radialGradient><radialGradient id="e" gradientUnits="userSpaceOnUse" cx="159" cy="168" fx="159" fy="168" r="12" gradientTransform="matrix(.84616 1.35985 1.36101 -.84542 -311 -20)"><stop offset="0" stop-color="#87c500"/><stop offset="1" stop-color="#598200"/></radialGradient><radialGradient id="f" gradientUnits="userSpaceOnUse" cx="159" cy="168" fx="159" fy="168" r="14" gradientTransform="matrix(.68128 1.09295 1.09583 -.6795 -240 -5)"><stop offset="0" stop-color="#87c500"/><stop offset="1" stop-color="#598200"/></radialGradient><radialGradient id="g" gradientUnits="userSpaceOnUse" cx="99" cy="378" fx="99" fy="378" r="64" gradientTransform="matrix(.38555 -.36964 -.37086 -.38852 135 307)"><stop offset="0" stop-color="#d7f25c"/><stop offset="1" stop-color="#91c200"/></radialGradient><radialGradient id="h" gradientUnits="userSpaceOnUse" cx="96" cy="376" fx="96" fy="376" r="60" gradientTransform="matrix(.386 -.3706 -.36926 -.38739 133 305)"><stop offset="0" stop-color="#d7f25c"/><stop offset="1" stop-color="#9c0"/></radialGradient><radialGradient id="i" gradientUnits="userSpaceOnUse" cx="112" cy="397" fx="112" fy="397" r="84" gradientTransform="matrix(.3789 .38807 .3891 -.3779 -160 237)"><stop offset="0" stop-color="#e4f78d"/><stop offset="1" stop-color="#a7d128"/></radialGradient><radialGradient id="j" gradientUnits="userSpaceOnUse" cx="104" cy="392" fx="104" fy="392" r="99" gradientTransform="matrix(.40836 .17537 .16137 -.44378 -71 284)"><stop offset="0" stop-color="#e4f78d"/><stop offset="1" stop-color="#a5d11f"/><stop offset="1" stop-color="#a5d11f"/></radialGradient><radialGradient id="k" gradientUnits="userSpaceOnUse" cx="20" cy="317" fx="20" fy="317" r="19" gradientTransform="matrix(3.17827 3.74824 2.67656 -4.45084 -905 1438)"><stop offset="0" stop-color="#7ab300"/><stop offset="1" stop-color="#588200"/></radialGradient><radialGradient id="l" gradientUnits="userSpaceOnUse" cx="17" cy="316" fx="17" fy="316" r="31" gradientTransform="matrix(2.4441 2.2945 2.05829 -2.7246 -687 926)"><stop offset="0" stop-color="#7ab300"/><stop offset="1" stop-color="#588200"/></radialGradient><radialGradient id="m" gradientUnits="userSpaceOnUse" cx="32" cy="316" fx="32" fy="316" r="41" gradientTransform="matrix(1.6344 1.75363 1.37638 -2.08231 -478 706)"><stop offset="0" stop-color="#7ab300"/><stop offset="1" stop-color="#588200"/></radialGradient><radialGradient id="n" gradientUnits="userSpaceOnUse" cx="41" cy="317" fx="41" fy="317" r="51" gradientTransform="matrix(1.3234 1.4071 1.1145 -1.67086 -393 577)"><stop offset="0" stop-color="#7ab300"/><stop offset="1" stop-color="#588200"/></radialGradient><radialGradient id="o" gradientUnits="userSpaceOnUse" cx="55" cy="317" fx="55" fy="317" r="53" gradientTransform="matrix(1.20904 1.3342 1.01817 -1.58428 -371 532)"><stop offset="0" stop-color="#7ab300"/><stop offset="1" stop-color="#588200"/></radialGradient><radialGradient id="p" gradientUnits="userSpaceOnUse" cx="11" cy="322" fx="11" fy="322" r="15" gradientTransform="matrix(5.31252 3.64056 4.47383 -4.32296 -1496 1460)"><stop offset="0" stop-color="#7ab300"/><stop offset="1" stop-color="#588200"/></radialGradient><radialGradient id="q" gradientUnits="userSpaceOnUse" cx="10" cy="325" fx="10" fy="325" r="28" gradientTransform="matrix(2.99461 2.1774 2.5219 -2.58558 -848 924)"><stop offset="0" stop-color="#7ab300"/><stop offset="1" stop-color="#588200"/></radialGradient><radialGradient id="r" gradientUnits="userSpaceOnUse" cx="11" cy="323" fx="11" fy="323" r="35" gradientTransform="matrix(2.4053 1.89003 2.0256 -2.24432 -678 812)"><stop offset="0" stop-color="#7ab300"/><stop offset="1" stop-color="#588200"/></radialGradient><radialGradient id="s" gradientUnits="userSpaceOnUse" cx="10" cy="336" fx="10" fy="336" r="44" gradientTransform="matrix(1.93935 1.40181 1.6332 -1.66457 -566 656)"><stop offset="0" stop-color="#7ab300"/><stop offset="1" stop-color="#588200"/></radialGradient><radialGradient id="t" gradientUnits="userSpaceOnUse" cx="11" cy="345" fx="11" fy="345" r="41" gradientTransform="matrix(2.08163 1.4522 1.75304 -1.72443 -623 692)"><stop offset="0" stop-color="#7ab300"/><stop offset="1" stop-color="#588200"/></radialGradient><radialGradient id="u" gradientUnits="userSpaceOnUse" cx="11" cy="317" fx="11" fy="317" r="130" gradientTransform="matrix(.65414 .54944 .55088 -.65242 -178 305)"><stop offset="0" stop-color="#7ab300"/><stop offset="1" stop-color="#588200"/></radialGradient><radialGradient id="v" gradientUnits="userSpaceOnUse" cx="17" cy="310" fx="17" fy="310" r="129" gradientTransform="matrix(.68379 .61825 .61987 -.682 -198 303)"><stop offset="0" stop-color="#89c900"/><stop offset="1" stop-color="#649400"/></radialGradient><radialGradient id="w" gradientUnits="userSpaceOnUse" cx="19" cy="316" fx="19" fy="316" r="34" gradientTransform="matrix(2.54393 2.29765 2.30613 -2.53456 -769 861)"><stop offset="0" stop-color="#89c900"/><stop offset="1" stop-color="#649400"/></radialGradient><radialGradient id="x" gradientUnits="userSpaceOnUse" cx="18" cy="316" fx="18" fy="316" r="37" gradientTransform="matrix(2.24852 2.0636 2.03835 -2.27638 -679 787)"><stop offset="0" stop-color="#89c900"/><stop offset="1" stop-color="#649400"/></radialGradient><radialGradient id="y" gradientUnits="userSpaceOnUse" cx="16" cy="311" fx="16" fy="311" r="30" gradientTransform="matrix(2.88498 2.60253 2.6153 -2.87087 -854 955)"><stop offset="0" stop-color="#89c900"/><stop offset="1" stop-color="#649400"/></radialGradient><radialGradient id="z" gradientUnits="userSpaceOnUse" cx="16" cy="311" fx="16" fy="311" r="23" gradientTransform="matrix(3.46827 3.41701 3.1441 -3.76936 -1026 1220)"><stop offset="0" stop-color="#89c900"/><stop offset="1" stop-color="#649400"/></radialGradient><radialGradient id="A" gradientUnits="userSpaceOnUse" cx="15" cy="311" fx="15" fy="311" r="13" gradientTransform="matrix(6.31886 5.89688 5.72815 -6.50486 -1872 2037)"><stop offset="0" stop-color="#89c900"/><stop offset="1" stop-color="#649400"/></radialGradient><radialGradient id="B" gradientUnits="userSpaceOnUse" cx="24" cy="310" fx="24" fy="310" r="16" gradientTransform="matrix(3.45484 4.88555 3.13174 -5.389 -1046 1656)"><stop offset="0" stop-color="#89c900"/><stop offset="1" stop-color="#649400"/></radialGradient><radialGradient id="C" gradientUnits="userSpaceOnUse" cx="35" cy="310" fx="35" fy="310" r="25" gradientTransform="matrix(2.12664 3.21058 1.92786 -3.5416 -660 1087)"><stop offset="0" stop-color="#89c900"/><stop offset="1" stop-color="#649400"/></radialGradient><radialGradient id="D" gradientUnits="userSpaceOnUse" cx="39" cy="310" fx="39" fy="310" r="35" gradientTransform="matrix(1.84335 2.30443 1.67105 -2.54205 -577 798)"><stop offset="0" stop-color="#89c900"/><stop offset="1" stop-color="#649400"/></radialGradient><radialGradient id="E" gradientUnits="userSpaceOnUse" cx="66" cy="310" fx="66" fy="310" r="45" gradientTransform="matrix(1.19464 1.75946 1.08295 -1.94083 -392 587)"><stop offset="0" stop-color="#89c900"/><stop offset="1" stop-color="#649400"/></radialGradient><radialGradient id="F" gradientUnits="userSpaceOnUse" cx="54" cy="310" fx="54" fy="310" r="48" gradientTransform="matrix(1.44126 1.67274 1.30654 -1.84522 -465 584)"><stop offset="0" stop-color="#89c900"/><stop offset="1" stop-color="#649400"/></radialGradient><radialGradient id="G" gradientUnits="userSpaceOnUse" cx="345" cy="189" fx="345" fy="189" r="67" gradientTransform="matrix(-.31799 -.21799 .15087 -.46453 195 225)"><stop offset="0" stop-color="#d7f25c"/><stop offset="1" stop-color="#91c200"/></radialGradient><radialGradient id="H" gradientUnits="userSpaceOnUse" cx="347" cy="184" fx="347" fy="184" r="63" gradientTransform="matrix(-.31943 -.219 .15073 -.46411 197 222)"><stop offset="0" stop-color="#d7f25c"/><stop offset="1" stop-color="#9c0"/></radialGradient><radialGradient id="I" gradientUnits="userSpaceOnUse" cx="345" cy="199" fx="345" fy="199" r="83" gradientTransform="matrix(-.17932 .43376 -.37145 -.2094 249 -43)"><stop offset="0" stop-color="#e4f78d"/><stop offset="1" stop-color="#a7d128"/></radialGradient><radialGradient id="J" gradientUnits="userSpaceOnUse" cx="350" cy="193" fx="350" fy="193" r="72" gradientTransform="matrix(-.34269 .37 -.28788 -.44044 291 19)"><stop offset="0" stop-color="#e4f78d"/><stop offset="1" stop-color="#a5d11f"/><stop offset="1" stop-color="#a5d11f"/></radialGradient><radialGradient id="K" gradientUnits="userSpaceOnUse" cx="398" cy="103" fx="398" fy="103" r="17" gradientTransform="matrix(-2.61371 4.97517 -4.27732 -3.04018 1612 -1632)"><stop offset="0" stop-color="#7ab300"/><stop offset="1" stop-color="#588200"/></radialGradient><radialGradient id="L" gradientUnits="userSpaceOnUse" cx="393" cy="103" fx="393" fy="103" r="27" gradientTransform="matrix(-1.54114 3.04014 -2.522 -1.8577 996 -970)"><stop offset="0" stop-color="#7ab300"/><stop offset="1" stop-color="#588200"/></radialGradient><radialGradient id="M" gradientUnits="userSpaceOnUse" cx="386" cy="103" fx="386" fy="103" r="35" gradientTransform="matrix(-1.14044 2.3525 -1.8663 -1.43753 760 -725)"><stop offset="0" stop-color="#7ab300"/><stop offset="1" stop-color="#588200"/></radialGradient><radialGradient id="N" gradientUnits="userSpaceOnUse" cx="386" cy="104" fx="386" fy="104" r="44" gradientTransform="matrix(-1.00262 1.90651 -1.64075 -1.165 685 -582)"><stop offset="0" stop-color="#7ab300"/><stop offset="1" stop-color="#588200"/></radialGradient><radialGradient id="O" gradientUnits="userSpaceOnUse" cx="388" cy="103" fx="388" fy="103" r="46" gradientTransform="matrix(-1.00654 1.8188 -1.64718 -1.11141 689 -558)"><stop offset="0" stop-color="#7ab300"/><stop offset="1" stop-color="#588200"/></radialGradient><radialGradient id="P" gradientUnits="userSpaceOnUse" cx="402" cy="109" fx="402" fy="109" r="14" gradientTransform="matrix(-3.60498 4.7247 -5.89964 -2.88719 2225 -1548)"><stop offset="0" stop-color="#7ab300"/><stop offset="1" stop-color="#588200"/></radialGradient><radialGradient id="Q" gradientUnits="userSpaceOnUse" cx="402" cy="113" fx="402" fy="113" r="25" gradientTransform="matrix(-2.01108 2.73844 -3.29107 -1.67337 1313 -873)"><stop offset="0" stop-color="#7ab300"/><stop offset="1" stop-color="#588200"/></radialGradient><radialGradient id="R" gradientUnits="userSpaceOnUse" cx="401" cy="127" fx="401" fy="127" r="33" gradientTransform="matrix(-1.5464 1.88415 -2.53064 -1.15134 1074 -568)"><stop offset="0" stop-color="#7ab300"/><stop offset="1" stop-color="#588200"/></radialGradient><radialGradient id="S" gradientUnits="userSpaceOnUse" cx="402" cy="141" fx="402" fy="141" r="40" gradientTransform="matrix(-1.26682 1.5014 -2.07313 -.91746 934 -428)"><stop offset="0" stop-color="#7ab300"/><stop offset="1" stop-color="#588200"/></radialGradient><radialGradient id="T" gradientUnits="userSpaceOnUse" cx="402" cy="133" fx="402" fy="133" r="37" gradientTransform="matrix(-1.39637 1.89012 -2.28516 -1.15501 998 -562)"><stop offset="0" stop-color="#7ab300"/><stop offset="1" stop-color="#588200"/></radialGradient><radialGradient id="U" gradientUnits="userSpaceOnUse" cx="402" cy="102" fx="402" fy="102" r="150" gradientTransform="matrix(-.33888 .55312 -.55458 -.338 325 -154)"><stop offset="0" stop-color="#7ab300"/><stop offset="1" stop-color="#588200"/></radialGradient><radialGradient id="V" gradientUnits="userSpaceOnUse" cx="395" cy="99" fx="395" fy="99" r="149" gradientTransform="matrix(-.3448 .61191 -.61352 -.3439 327 -175)"><stop offset="0" stop-color="#89c900"/><stop offset="1" stop-color="#649400"/></radialGradient><radialGradient id="W" gradientUnits="userSpaceOnUse" cx="395" cy="174" fx="395" fy="174" r="31" gradientTransform="matrix(-1.59183 1.64268 -2.83234 -.92322 1251 -432)"><stop offset="0" stop-color="#89c900"/><stop offset="1" stop-color="#649400"/></radialGradient><radialGradient id="X" gradientUnits="userSpaceOnUse" cx="396" cy="126" fx="396" fy="126" r="36" gradientTransform="matrix(-1.3757 2.06507 -2.44785 -1.16063 984 -631)"><stop offset="0" stop-color="#89c900"/><stop offset="1" stop-color="#649400"/></radialGradient><radialGradient id="Y" gradientUnits="userSpaceOnUse" cx="396" cy="110" fx="396" fy="110" r="29" gradientTransform="matrix(-1.74396 2.78027 -3.1031 -1.5626 1161 -893)"><stop offset="0" stop-color="#89c900"/><stop offset="1" stop-color="#649400"/></radialGradient><radialGradient id="Z" gradientUnits="userSpaceOnUse" cx="397" cy="125" fx="397" fy="125" r="22" gradientTransform="matrix(-2.20227 2.30883 -3.91865 -1.29767 1495 -714)"><stop offset="0" stop-color="#89c900"/><stop offset="1" stop-color="#649400"/></radialGradient><radialGradient id="aa" gradientUnits="userSpaceOnUse" cx="397" cy="111" fx="397" fy="111" r="12" gradientTransform="matrix(-4.08664 4.13245 -7.27184 -2.32266 2562 -1343)"><stop offset="0" stop-color="#89c900"/><stop offset="1" stop-color="#649400"/></radialGradient><radialGradient id="ab" gradientUnits="userSpaceOnUse" cx="393" cy="99" fx="393" fy="99" r="14" gradientTransform="matrix(-3.2625 6.56975 -5.80497 -3.69235 1988 -2187)"><stop offset="0" stop-color="#89c900"/><stop offset="1" stop-color="#649400"/></radialGradient><radialGradient id="ac" gradientUnits="userSpaceOnUse" cx="391" cy="99" fx="391" fy="99" r="21" gradientTransform="matrix(-2.15398 4.33333 -3.83258 -2.43541 1350 -1421)"><stop offset="0" stop-color="#89c900"/><stop offset="1" stop-color="#649400"/></radialGradient><radialGradient id="ad" gradientUnits="userSpaceOnUse" cx="393" cy="99" fx="393" fy="99" r="29" gradientTransform="matrix(-1.69984 3.12977 -3.0245 -1.75897 1098 -1025)"><stop offset="0" stop-color="#89c900"/><stop offset="1" stop-color="#649400"/></radialGradient><radialGradient id="ae" gradientUnits="userSpaceOnUse" cx="380" cy="99" fx="380" fy="99" r="38" gradientTransform="matrix(-1.13651 2.3845 -2.02218 -1.34012 758 -741)"><stop offset="0" stop-color="#89c900"/><stop offset="1" stop-color="#649400"/></radialGradient><radialGradient id="af" gradientUnits="userSpaceOnUse" cx="389" cy="99" fx="389" fy="99" r="40" gradientTransform="matrix(-1.22789 2.29387 -2.18479 -1.2892 822 -733)"><stop offset="0" stop-color="#89c900"/><stop offset="1" stop-color="#649400"/></radialGradient><radialGradient id="ag" gradientUnits="userSpaceOnUse" cx="277" cy="304" fx="277" fy="304" r="304" gradientTransform="matrix(.24697 0 0 -.24633 23 175)"><stop offset="0" stop-color="#7ab300"/><stop offset="1" stop-color="#588200"/></radialGradient><radialGradient id="ah" gradientUnits="userSpaceOnUse" cx="282" cy="300" fx="282" fy="300" r="300" gradientTransform="matrix(.22037 0 0 -.24625 31 173)"><stop offset="0" stop-color="#89c900"/><stop offset="1" stop-color="#649400"/></radialGradient></defs><g fill-rule="evenodd"><path d="M70 98c0-6-19-9-20-29-1-9 2-15 2-15 9 3 27 13 18 44zm0 0" fill="url(#a)"/><path d="M72 81c-5-11-17-15-22-15v3c1 20 20 23 20 29 2-7 2-12 2-17zm0 0" fill="url(#b)"/><path d="M65 62c-1 4-5 15 0 26 2 5 4 6 4 10 6-18 2-29-4-36zm0 0" fill="url(#c)"/><path d="M60 59l-1 8 3 2 2-7-4-3zm0 0" fill="url(#d)"/><path d="M51 60v5l7 2v-2l-7-5zm0 0" fill="url(#e)"/><path d="M58 64l1-6-7-4-1 5 7 5zm0 0" fill="url(#f)"/><path d="M0 96c-2 55 34 86 74 66 19-61-42-68-74-66zm0 0" fill="url(#g)"/><path d="M1 97c-2 52 31 81 70 62 17-58-40-63-70-62zm0 0" fill="url(#h)"/><path d="M2 103c1 20 10 47 31 55-10-9-25-35-31-55zm0 0" fill="url(#i)"/><path d="M7 99c31 0 71 5 64 51A93 93 0 0 0 7 99zm0 0" fill="url(#j)"/><path d="M13 109c-3-4-1-11-1-11 0 3 0 9 2 12l-1-1zm0 0" fill="url(#k)"/><path d="M21 118c-2-3-2-15-1-19-1 6 0 16 4 21l-3-2zm0 0" fill="url(#l)"/><path d="M34 127c-5-4-3-20-1-25-1 7-2 21 3 27l-2-2zm0 0" fill="url(#m)"/><path d="M48 139c-4-5-5-23-1-32-3 8-2 25 3 33l-2-1zm0 0" fill="url(#n)"/><path d="M61 149c-4-7-1-25 2-32-3 14-4 28 2 35l-4-3zm0 0" fill="url(#o)"/><path d="M14 111c-4-1-8 1-10 2 1-2 5-4 9-3l1 1zm0 0" fill="url(#p)"/><path d="M22 119c-4-1-11 2-16 5 4-2 13-6 19-3l-3-2zm0 0" fill="url(#q)"/><path d="M34 127c-7 0-18 6-22 11 3-2 16-11 23-8l-1-3zm0 0" fill="url(#r)"/><path d="M48 139c-6-2-19 5-26 12 4-4 20-14 28-9l-2-3zm0 0" fill="url(#s)"/><path d="M61 150c-6-2-18 3-23 9 4-5 20-10 27-6l-4-3zm0 0" fill="url(#t)"/><path d="M87 170c-27-26-69-53-86-73 18 26 58 48 84 77l2-4zm0 0" fill="url(#u)"/><path d="M86 171l-9-9-51-41c-4-3-13-10-25-24 10 12 10 13 28 28 19 16 34 27 43 36l13 13 1-3zm0 0" fill="url(#v)"/><path d="M38 159c2-3 13-9 21-8 0 0 2 0 0-1-2 0-12 0-21 9zm0 0" fill="url(#w)"/><path d="M22 151c2-3 13-10 22-11 0 0 3 0 1-1-3 0-14 3-23 12zm0 0" fill="url(#x)"/><path d="M12 138c3-3 10-8 18-9h2l-2-1c-2 0-12 3-18 10zm0 0" fill="url(#y)"/><path d="M6 124c3-2 10-5 14-4 3 0 1-1 0-1s-8 1-14 5zm0 0" fill="url(#z)"/><path d="M4 113l7-2c2 0 2-1 0-1-1 0-5 0-7 3zm0 0" fill="url(#A)"/><path d="M12 98l1 11c-1-1-2-4-1-11zm0 0" fill="url(#B)"/><path d="M20 99c-1 4-1 11 1 16-1 0-3-5-1-16zm0 0" fill="url(#C)"/><path d="M33 102c-1 5-3 16 1 23-2 0-3-3-3-4s-1-10 2-19zm0 0" fill="url(#D)"/><path d="M47 107c-3 6-3 23 1 30-3 0-6-18-1-30zm0 0" fill="url(#E)"/><path d="M63 117c-3 8-4 26-1 31l-2-5c-1-2-2-14 3-26zm0 0" fill="url(#F)"/><path d="M133 27c17 45-4 80-43 75-33-46 16-68 43-75zm0 0" fill="url(#G)"/><path d="M132 28c17 42-3 75-40 71-31-44 15-65 40-71zm0 0" fill="url(#H)"/><path d="M133 33c5 17 5 42-10 54 6-10 11-36 10-54zm0 0" fill="url(#I)"/><path d="M128 31c-26 8-58 24-39 60 1-21 14-44 39-60zm0 0" fill="url(#J)"/><path d="M126 41c1-4-3-10-3-10 2 3 3 8 2 11l1-1zm0 0" fill="url(#K)"/><path d="M121 50c2-3-1-12-4-16 3 5 5 14 3 19l1-3zm0 0" fill="url(#L)"/><path d="M114 62c2-5-3-18-7-21 3 5 8 16 5 23l2-2zm0 0" fill="url(#M)"/><path d="M105 76c2-5-2-21-8-27 4 6 8 20 6 28l2-1zm0 0" fill="url(#N)"/><path d="M97 87c1-7-6-21-10-26 6 11 10 22 7 30 3-2 3-4 3-4zm0 0" fill="url(#O)"/><path d="M126 43c3-2 6-2 9-2-2-1-6-1-9 1v1zm0 0" fill="url(#P)"/><path d="M121 51c3-2 10-1 15 1-4-1-12-2-17 2l2-3zm0 0" fill="url(#Q)"/><path d="M114 62c6-2 15-1 21 3-3-1-17-5-22-1l1-2zm0 0" fill="url(#R)"/><path d="M105 76c5-4 18-2 25 2-4-2-21-6-26 1l1-3zm0 0" fill="url(#S)"/><path d="M97 89c4-4 16-3 22 0-5-3-20-2-24 3l2-3zm0 0" fill="url(#T)"/><path d="M132 28c-9 23-41 63-55 93l3 5c11-36 44-68 52-98zm0 0" fill="url(#U)"/><path d="M118 54l-31 49-10 19 2 4v-1l12-25 26-41c11-18 10-19 15-31-6 14-11 22-14 26zm0 0" fill="url(#V)"/><path d="M119 89c-3-1-14-4-20 0v-1c1-1 10-3 20 1zm0 0" fill="url(#W)"/><path d="M130 78c-3-1-13-5-22-2 0 0-2 0-1-1 3-1 13-2 23 3zm0 0" fill="url(#X)"/><path d="M135 65c-3-2-11-4-18-3h-2l2-1c1 0 11 0 18 4zm0 0" fill="url(#Y)"/><path d="M136 52c-3-1-10-2-13-1-2 2-1 0 0 0 1-1 6-1 13 1zm0 0" fill="url(#Z)"/><path d="M135 41l-7 1c-2 0-2 0 0-1h7zm0 0" fill="url(#aa)"/><path d="M123 31c2 2 3 7 3 9l-3-9zm0 0" fill="url(#ab)"/><path d="M117 34c2 3 4 10 4 14 1-1 1-5-4-14zm0 0" fill="url(#ac)"/><path d="M107 41c3 3 7 12 6 19l1-5s-2-8-7-14zm0 0" fill="url(#ad)"/><path d="M97 49c3 4 8 18 7 25 3-1 0-17-8-25zm0 0" fill="url(#ae)"/><path d="M87 61c4 6 10 21 9 26v-5c0-2-2-12-9-21zm0 0" fill="url(#af)"/><path d="M87 185c3-7 7-12 7-24v-1c-1-11-3-19-9-29-7-13-14-21-11-40 4-16 7-29-12-40-15-8-1-17 14-19h1c6-1 3-6-10-11l-3-2c-4-2 2-4 7-5 8-1-4-11 4-14-5 2-3 6-2 10s-1 3-5 4-8 2-6 5c3 3 9 4 15 9l1 2-2 1c-15 1-26 8-22 16 3 7 11 7 17 16 8 15-6 27-1 48 4 16 14 22 17 43 1 16-4 21-8 31-3 6-2 14 6 15 9 0 17-8 23-4 7 5 15 5 19-1 5-6-8-2-11-4-6-5-10-7-17-3-6 4-16 7-12-3zm0 0" fill="url(#ag)"/><path d="M83 180c4-9 7-13 5-26l-1-6c-6-25-23-30-14-62 4-17 0-26-13-33-15-10-2-20 16-22 2 0 4 0 3-2-3-4-12-7-14-8-5-2-4-5 3-7 4-1 7 0 5-4-1-4-3-8 2-10-5 2-3 5-2 10 2 4-1 4-5 4-4 1-8 3-5 6l4 2c12 4 16 9 9 10-17 1-30 11-15 20 15 8 18 19 13 35-7 30 10 35 16 60 2 9 3 18 0 26l-2 4c-3 6-5 12-4 15 2 2 5 2 9 0 4-1 8-5 12-5 3 0 6 3 10 5s8 0 10 1c2 0 2 1-1 2-4 2-10 1-15-2-6-4-9-1-15 2s-12 3-14-1 1-9 3-14zm0 0" fill="url(#ah)"/></g></svg>