<svg xmlns="http://www.w3.org/2000/svg" width="373" height="267" viewBox="0 0 280 200"><defs><linearGradient id="a" gradientUnits="userSpaceOnUse" x1="40" y1="70" x2="63" y2="25" gradientTransform="matrix(.90025 0 0 .9009 0 0)"><stop offset="0" stop-color="#c42e8c"/><stop offset="1" stop-color="#cc4a9b"/></linearGradient><linearGradient id="b" gradientUnits="userSpaceOnUse" x1="207" y1="60" x2="311" y2="60" gradientTransform="matrix(.90025 0 0 .9009 0 0)"><stop offset="0" stop-color="#c418b4"/><stop offset="1" stop-color="#c4408f"/><stop offset="1" stop-color="#c4408f"/></linearGradient><linearGradient id="c" gradientUnits="userSpaceOnUse" x1="196" y1="124" x2="118" y2="50" gradientTransform="matrix(.90025 0 0 .9009 0 0)"><stop offset="0" stop-color="#c437a5"/><stop offset="1" stop-color="#e650aa"/></linearGradient><linearGradient id="d" gradientUnits="userSpaceOnUse" x1="156" y1="215" x2="156" y2="102" gradientTransform="matrix(.90025 0 0 .9009 0 0)"><stop offset="0" stop-color="#f02280"/><stop offset="1" stop-color="#c4188c"/></linearGradient><linearGradient id="e" gradientUnits="userSpaceOnUse" x1="27" y1="72" x2="112" y2="171" gradientTransform="matrix(.90025 0 0 .9009 0 0)"><stop offset="0" stop-color="#e13b91"/><stop offset="1" stop-color="#ba1d6c"/></linearGradient><linearGradient id="f" gradientUnits="userSpaceOnUse" x1="283" y1="72" x2="204" y2="162" gradientTransform="matrix(.90025 0 0 .9009 0 0)"><stop offset="0" stop-color="#ad1570"/><stop offset="1" stop-color="#8c0054"/></linearGradient><linearGradient id="g" gradientUnits="userSpaceOnUse" x1="43" y1="18" x2="268" y2="18" gradientTransform="matrix(.90025 0 0 .9009 0 0)"><stop offset="0" stop-color="#cf85be"/><stop offset="1" stop-color="#c463a8"/></linearGradient><linearGradient id="h" gradientUnits="userSpaceOnUse" x1="40" y1="70" x2="63" y2="25" gradientTransform="matrix(.90025 0 0 .9009 0 0)"><stop offset="0" stop-color="#d15ca5"/><stop offset="1" stop-color="#d772b1"/></linearGradient><linearGradient id="i" gradientUnits="userSpaceOnUse" x1="40" y1="70" x2="63" y2="25" gradientTransform="matrix(.90025 0 0 .9009 0 0)"><stop offset="0" stop-color="#c93e95"/><stop offset="1" stop-color="#d058a3"/></linearGradient><linearGradient id="j" gradientUnits="userSpaceOnUse" x1="40" y1="70" x2="63" y2="25" gradientTransform="matrix(.90025 0 0 .9009 0 0)"><stop offset="0" stop-color="#d569ac"/><stop offset="1" stop-color="#da7db7"/></linearGradient><linearGradient id="k" gradientUnits="userSpaceOnUse" x1="43" y1="18" x2="268" y2="18" gradientTransform="matrix(.90025 0 0 .9009 0 0)"><stop offset="0" stop-color="#d491c5"/><stop offset="1" stop-color="#ca73b1"/></linearGradient><linearGradient id="l" gradientUnits="userSpaceOnUse" x1="43" y1="18" x2="268" y2="18" gradientTransform="matrix(.90025 0 0 .9009 0 0)"><stop offset="0" stop-color="#d79ac9"/><stop offset="1" stop-color="#cf7eb7"/></linearGradient><linearGradient id="m" gradientUnits="userSpaceOnUse" x1="40" y1="70" x2="63" y2="25" gradientTransform="matrix(.90025 0 0 .9009 0 0)"><stop offset="0" stop-color="#d978b4"/><stop offset="1" stop-color="#de8abe"/></linearGradient><linearGradient id="n" gradientUnits="userSpaceOnUse" x1="43" y1="18" x2="268" y2="18" gradientTransform="matrix(.90025 0 0 .9009 0 0)"><stop offset="0" stop-color="#d38fc3"/><stop offset="1" stop-color="#c96faf"/></linearGradient><linearGradient id="o" gradientUnits="userSpaceOnUse" x1="43" y1="18" x2="268" y2="18" gradientTransform="matrix(.90025 0 0 .9009 0 0)"><stop offset="0" stop-color="#d79aca"/><stop offset="1" stop-color="#ce7eb7"/></linearGradient><linearGradient id="p" gradientUnits="userSpaceOnUse" x1="43" y1="18" x2="268" y2="18" gradientTransform="matrix(.90025 0 0 .9009 0 0)"><stop offset="0" stop-color="#deaad1"/><stop offset="1" stop-color="#d691c2"/></linearGradient><linearGradient id="q" gradientUnits="userSpaceOnUse" x1="40" y1="70" x2="63" y2="25" gradientTransform="matrix(.90025 0 0 .9009 0 0)"><stop offset="0" stop-color="#c1247f"/><stop offset="1" stop-color="#c83a8a"/></linearGradient><linearGradient id="r" gradientUnits="userSpaceOnUse" x1="196" y1="124" x2="118" y2="50" gradientTransform="matrix(.90025 0 0 .9009 0 0)"><stop offset="0" stop-color="#c12b92"/><stop offset="1" stop-color="#dc3e96"/></linearGradient><linearGradient id="s" gradientUnits="userSpaceOnUse" x1="196" y1="124" x2="118" y2="50" gradientTransform="matrix(.90025 0 0 .9009 0 0)"><stop offset="0" stop-color="#c947ac"/><stop offset="1" stop-color="#e85eb1"/></linearGradient><linearGradient id="t" gradientUnits="userSpaceOnUse" x1="196" y1="124" x2="118" y2="50" gradientTransform="matrix(.90025 0 0 .9009 0 0)"><stop offset="0" stop-color="#c63c9b"/><stop offset="1" stop-color="#df4d9e"/></linearGradient><linearGradient id="u" gradientUnits="userSpaceOnUse" x1="196" y1="124" x2="118" y2="50" gradientTransform="matrix(.90025 0 0 .9009 0 0)"><stop offset="0" stop-color="#cf5bb5"/><stop offset="1" stop-color="#eb70b9"/></linearGradient><linearGradient id="v" gradientUnits="userSpaceOnUse" x1="207" y1="60" x2="311" y2="60" gradientTransform="matrix(.90025 0 0 .9009 0 0)"><stop offset="0" stop-color="#c92aba"/><stop offset="1" stop-color="#c94f98"/><stop offset="1" stop-color="#c94f98"/></linearGradient><linearGradient id="w" gradientUnits="userSpaceOnUse" x1="283" y1="72" x2="204" y2="162" gradientTransform="matrix(.90025 0 0 .9009 0 0)"><stop offset="0" stop-color="#b3277b"/><stop offset="1" stop-color="#951461"/></linearGradient><linearGradient id="x" gradientUnits="userSpaceOnUse" x1="43" y1="18" x2="268" y2="18" gradientTransform="matrix(.90025 0 0 .9009 0 0)"><stop offset="0" stop-color="#d38fc3"/><stop offset="1" stop-color="#c96faf"/></linearGradient><linearGradient id="y" gradientUnits="userSpaceOnUse" x1="207" y1="60" x2="311" y2="60" gradientTransform="matrix(.90025 0 0 .9009 0 0)"><stop offset="0" stop-color="#c92aba"/><stop offset="1" stop-color="#c94f98"/><stop offset="1" stop-color="#c94f98"/></linearGradient><linearGradient id="z" gradientUnits="userSpaceOnUse" x1="283" y1="72" x2="204" y2="162" gradientTransform="matrix(.90025 0 0 .9009 0 0)"><stop offset="0" stop-color="#c14d92"/><stop offset="1" stop-color="#a83d7d"/></linearGradient><linearGradient id="A" gradientUnits="userSpaceOnUse" x1="207" y1="60" x2="311" y2="60" gradientTransform="matrix(.90025 0 0 .9009 0 0)"><stop offset="0" stop-color="#d65dcb"/><stop offset="1" stop-color="#d679b1"/><stop offset="1" stop-color="#d679b1"/></linearGradient><linearGradient id="B" gradientUnits="userSpaceOnUse" x1="283" y1="72" x2="204" y2="162" gradientTransform="matrix(.90025 0 0 .9009 0 0)"><stop offset="0" stop-color="#c55b9b"/><stop offset="1" stop-color="#ae4c87"/></linearGradient><linearGradient id="C" gradientUnits="userSpaceOnUse" x1="283" y1="72" x2="204" y2="162" gradientTransform="matrix(.90025 0 0 .9009 0 0)"><stop offset="0" stop-color="#b83383"/><stop offset="1" stop-color="#9b216a"/></linearGradient><linearGradient id="D" gradientUnits="userSpaceOnUse" x1="207" y1="60" x2="311" y2="60" gradientTransform="matrix(.90025 0 0 .9009 0 0)"><stop offset="0" stop-color="#d046c3"/><stop offset="1" stop-color="#d066a5"/><stop offset="1" stop-color="#d066a5"/></linearGradient><linearGradient id="E" gradientUnits="userSpaceOnUse" x1="283" y1="72" x2="204" y2="162" gradientTransform="matrix(.90025 0 0 .9009 0 0)"><stop offset="0" stop-color="#bd438c"/><stop offset="1" stop-color="#a33275"/></linearGradient><linearGradient id="F" gradientUnits="userSpaceOnUse" x1="156" y1="215" x2="156" y2="102" gradientTransform="matrix(.90025 0 0 .9009 0 0)"><stop offset="0" stop-color="#f1338a"/><stop offset="1" stop-color="#c92a95"/></linearGradient><linearGradient id="G" gradientUnits="userSpaceOnUse" x1="156" y1="215" x2="156" y2="102" gradientTransform="matrix(.90025 0 0 .9009 0 0)"><stop offset="0" stop-color="#f1338a"/><stop offset="1" stop-color="#c92a95"/></linearGradient><linearGradient id="H" gradientUnits="userSpaceOnUse" x1="156" y1="215" x2="156" y2="102" gradientTransform="matrix(.90025 0 0 .9009 0 0)"><stop offset="0" stop-color="#f34a97"/><stop offset="1" stop-color="#cf42a1"/></linearGradient><linearGradient id="I" gradientUnits="userSpaceOnUse" x1="156" y1="215" x2="156" y2="102" gradientTransform="matrix(.90025 0 0 .9009 0 0)"><stop offset="0" stop-color="#f34a97"/><stop offset="1" stop-color="#cf42a1"/></linearGradient><linearGradient id="J" gradientUnits="userSpaceOnUse" x1="156" y1="215" x2="156" y2="102" gradientTransform="matrix(.90025 0 0 .9009 0 0)"><stop offset="0" stop-color="#f4589f"/><stop offset="1" stop-color="#d350a8"/></linearGradient><linearGradient id="K" gradientUnits="userSpaceOnUse" x1="156" y1="215" x2="156" y2="102" gradientTransform="matrix(.90025 0 0 .9009 0 0)"><stop offset="0" stop-color="#f34a97"/><stop offset="1" stop-color="#cf42a1"/></linearGradient><linearGradient id="L" gradientUnits="userSpaceOnUse" x1="156" y1="215" x2="156" y2="102" gradientTransform="matrix(.90025 0 0 .9009 0 0)"><stop offset="0" stop-color="#f4589f"/><stop offset="1" stop-color="#d350a8"/></linearGradient><linearGradient id="M" gradientUnits="userSpaceOnUse" x1="40" y1="70" x2="63" y2="25" gradientTransform="matrix(.90025 0 0 .9009 0 0)"><stop offset="0" stop-color="#c93e95"/><stop offset="1" stop-color="#d058a3"/></linearGradient><linearGradient id="N" gradientUnits="userSpaceOnUse" x1="27" y1="72" x2="112" y2="171" gradientTransform="matrix(.90025 0 0 .9009 0 0)"><stop offset="0" stop-color="#e34a9a"/><stop offset="1" stop-color="#bf2f78"/></linearGradient><linearGradient id="O" gradientUnits="userSpaceOnUse" x1="27" y1="72" x2="112" y2="171" gradientTransform="matrix(.90025 0 0 .9009 0 0)"><stop offset="0" stop-color="#e558a2"/><stop offset="1" stop-color="#c43f83"/></linearGradient><linearGradient id="P" gradientUnits="userSpaceOnUse" x1="212" y1="4" x2="236" y2="4" gradientTransform="matrix(.90025 0 0 .9009 0 0)"><stop offset="0" stop-color="#fff"/><stop offset="1" stop-color="#efaff4"/><stop offset="1" stop-color="#df5fe8"/></linearGradient><linearGradient id="Q" gradientUnits="userSpaceOnUse" x1="0" y1="111" x2="311" y2="111" gradientTransform="matrix(.90025 0 0 .9009 0 0)"><stop offset="0" stop-color="#fff"/><stop offset="1" stop-color="#f4afe8"/><stop offset="1" stop-color="#e85fd1"/></linearGradient><linearGradient id="R" gradientUnits="userSpaceOnUse" x1="156" y1="212" x2="170" y2="212" gradientTransform="matrix(.90025 0 0 .9009 0 0)"><stop offset="0" stop-color="#fff"/><stop offset="1" stop-color="#efaff4"/><stop offset="1" stop-color="#df5fe8"/></linearGradient></defs><path d="M61 91l-10-6-30-20 65-19 8-14-5 9-6 10v1zm0 0" fill-rule="evenodd" fill="url(#a)"/><path d="M218 90l-32-58 48-14zm0 0" fill-rule="evenodd" fill="url(#b)"/><path d="M219 91h-7l-40-59h14l32 58zm-47-59h-6zm-6 0H94zm52 58zm-95 1h-12L83 51l6-10zm-30 0H61l22-39-7 13zm0 0" fill-rule="evenodd" fill="url(#c)"/><path d="M140 200l3-16 12-5 35-48-38 14 2-11 47-18 18-25-29 40-35 48-15 21-9-12-16-23-22-30 12 18 10-4 4 8-8 2 4 6 16 23 3-1zm79-109l-59 14 4-14zm-55 0H88zm-76 0l14 29-17 3-24-32zm0 0" fill-rule="evenodd" fill="url(#d)"/><path d="M140 200L0 51l131 138L51 85l10 6 24 32 8 12zM0 51zm0 0" fill-rule="evenodd" fill="url(#e)"/><path d="M140 200l79-109 20-13 11-7 7-4 18-12 5-4zm0 0" fill-rule="evenodd" fill="url(#f)"/><path d="M186 32l22-6-56-26H89L67 7l-28 9L89 0h102l50 16-7 2zm0 0" fill-rule="evenodd" fill="url(#g)"/><path d="M0 51l39-35 17 5-35 11zm0 0" fill-rule="evenodd" fill="url(#h)"/><path d="M21 65L0 51l11 8 82-26 1-1-8 14zm0 0" fill-rule="evenodd" fill="url(#i)"/><path d="M11 59L0 51l21-19 35-11 38 11-1 1-82 26zm0 0" fill-rule="evenodd" fill="url(#j)"/><path d="M104 32H94L56 21l-17-5 28-9-11 4zm0 0" fill-rule="evenodd" fill="url(#k)"/><path d="M94 32L56 21zm0 0" fill-rule="evenodd" fill="url(#l)"/><path d="M94 32L56 21zm0 0" fill-rule="evenodd" fill="url(#m)"/><path d="M186 32L116 0H96l70 32h-35L73 5l-6 2 22-7h63l56 26zm0 0" fill-rule="evenodd" fill="url(#n)"/><path d="M131 32h-27L56 11l11-4 6-2zm0 0" fill-rule="evenodd" fill="url(#o)"/><path d="M186 32h-20L96 0h20zm0 0" fill-rule="evenodd" fill="url(#p)"/><path d="M89 41l5-9zm0 0" fill-rule="evenodd" fill="url(#q)"/><path d="M181 91h-58L89 41l5-9h57-9zm0 0" fill-rule="evenodd" fill="url(#r)"/><path d="M212 91h-21l-40-59h21zm0 0" fill-rule="evenodd" fill="url(#s)"/><path d="M191 91h-10l-39-59h9zm0 0" fill-rule="evenodd" fill="url(#t)"/><path d="M111 91H93L76 65l7-13v-1zm0 0" fill-rule="evenodd" fill="url(#u)"/><path d="M219 91l-1-1 16-72 7-2 22 20-6 31-7 4 7-39-9-9-9 55zm0 0" fill-rule="evenodd" fill="url(#v)"/><path d="M219 91l20-13zm31-20l7-4zm0 0" fill-rule="evenodd" fill="url(#w)"/><path d="M234 18l7-2zm0 0" fill-rule="evenodd" fill="url(#x)"/><path d="M275 55l1-6-10-10 14 12zm0 0" fill-rule="evenodd" fill="url(#y)"/><path d="M239 78l11-7zm0 0" fill-rule="evenodd" fill="url(#z)"/><path d="M239 78l9-55 9 9-7 39zm0 0" fill-rule="evenodd" fill="url(#A)"/><path d="M239 78l11-7zm0 0" fill-rule="evenodd" fill="url(#B)"/><path d="M257 67l18-12zm0 0" fill-rule="evenodd" fill="url(#C)"/><path d="M266 39l-3-3zm0 0" fill="#fff"/><path d="M257 67l6-31 3 3 10 10-1 6zm0 0" fill-rule="evenodd" fill="url(#D)"/><path d="M257 67l18-12zm0 0" fill-rule="evenodd" fill="url(#E)"/><path d="M140 200l-6-13 9-3zm0 0" fill-rule="evenodd" fill="url(#F)"/><path d="M119 157l-4-8 39-15-2 11zm-17-37L88 91h76l-4 14zm0 0" fill-rule="evenodd" fill="url(#G)"/><path d="M105 153l-12-18-8-12 17-3 13 29zm0 0" fill-rule="evenodd" fill="url(#H)"/><path d="M154 134l6-29 59-14-18 25zm0 0" fill-rule="evenodd" fill="url(#I)"/><path d="M115 149l-13-29 58-15-6 29zm0 0" fill-rule="evenodd" fill="url(#J)"/><path d="M131 188l-20-29 8-2 15 30zm12-4l9-39 38-14-35 48zm0 0" fill-rule="evenodd" fill="url(#K)"/><path d="M134 187l-15-30 33-12-9 39zm0 0" fill-rule="evenodd" fill="url(#L)"/><path d="M51 85L21 65zm0 0" fill-rule="evenodd" fill="url(#M)"/><path d="M131 189L0 51l21 14 30 20 80 104zm0 0" fill-rule="evenodd" fill="url(#N)"/><path d="M21 65L0 51zm0 0" fill-rule="evenodd" fill="url(#O)"/><path d="M191 0l21 7-21-7zm0 0" fill-rule="evenodd" fill="url(#P)"/><path d="M241 76c-11 7-18 13-20 12s-9-11-13-19l-10-22c-2-8 2-15 5-16l21-8c8-3 13-5 15-4 3 0 35 28 34 32 0 2-17 15-32 25zm-27 12c-1 2-22 2-49 2l-93-4c-4 0 14-39 16-42s11-9 17-10l69 1c6 0 17 6 21 14l13 24c4 7 7 13 6 15zM5 54c-1-2 34-35 36-37l36 11v1c3 2 7 12 7 14-1 3-20 38-23 41-2 2-40-21-56-29v-1zM91 3h100c26 7 45 11 43 13l-11 5-34 9-86 2c-11-1-16-2-20-4L47 16c-2-1 4-2 12-5zm150 13l-29-9-21-7H89L39 16 0 51l140 149S36 89 11 60h1l47 30 4 4 77 106L68 95s0-4 5-4h84l58 3-62 88 68-88 59-43zm0 0" fill-rule="evenodd" fill="url(#Q)"/><path d="M153 182l-13 18 13-18zm0 0" fill-rule="evenodd" fill="url(#R)"/></svg>