<svg xmlns="http://www.w3.org/2000/svg" width="723" height="267" viewBox="0 0 542 200"><path d="M215 18s4-27 13 0h-13zm0 0" fill="#404c2a"/><path d="M215 18s4-25 11 0h-11zm0 0" fill="#455b2f"/><path d="M215 16h13c-4-9-6-9-6-9-3 0-5 7-7 9zm9 2h-9c0-2 2-13 7-13 2 0 4 4 6 11v2h-4zm0 0" fill="#313328"/><path d="M233 16s5-30 12 0h-12zm0 0" fill="#404c2a"/><path d="M233 16s5-27 9 0h-9zm0 0" fill="#455b2f"/><path d="M238 5c-3 0-3 6-5 11h12c-3-11-5-11-7-11zm9 11h-14c0-2 2-14 5-14 2 0 4 5 7 14zm0 0" fill="#313328"/><path d="M247 16s7-30 14-2c-5 2-14 2-14 2zm0 0" fill="#404c2a"/><path d="M247 16s7-27 11-2l-11 2zm0 0" fill="#455b2f"/><path d="M256 2c-5 0-7 9-7 14 0 0 7 0 12-2l-5-12zm-9 14c0-2 4-14 9-14 2 0 5 5 5 12h2l-2 2h-14zm0 0" fill="#313328"/><path d="M265 14s7-25 16 0h-16zm0 0" fill="#404c2a"/><path d="M265 14s7-23 12 0h-12zm0 0" fill="#455b2f"/><path d="M268 14h13c-4-9-7-12-7-12-4 0-6 7-6 12zm6 0h-9s3-12 9-12c3 0 5 5 7 12h-7zm0 0" fill="#313328"/><path d="M286 14s5-25 11 0h-11zm0 0" fill="#404c2a"/><path d="M286 14s2-23 9 0h-9zm0 0" fill="#455b2f"/><path d="M293 14h4c-2-9-4-12-6-12-3 0-5 7-5 12h7zm7 0h-16c0-3 2-12 7-12 2 0 4 5 9 12zm0 0" fill="#313328"/><path d="M302 14s7-23 12 0h-12zm0 0" fill="#404c2a"/><path d="M302 14s5-19 7 0h-7zm0 0" fill="#455b2f"/><path d="M302 11c2 3 5 3 12 3-3-7-5-9-7-9-3 0-5 4-5 6zm9 3h-11c2-3 4-12 7-12 4 0 4 5 7 12h-3zm0 0" fill="#313328"/><path d="M318 14s7-21 16 2c-7-2-16-2-16-2zm0 0" fill="#404c2a"/><path d="M318 14s7-19 12 0h-12zm0 0" fill="#455b2f"/><path d="M318 14h14c-2-5-5-9-7-9s-5 6-7 9zm16 2l-16-2s2-9 7-9 7 2 9 9zm0 0" fill="#313328"/><path d="M339 16s4-18 14 0h-14zm0 0" fill="#404c2a"/><path d="M339 16s4-18 9 0h-9zm0 0" fill="#455b2f"/><path d="M339 14l11 2c-2-5-4-9-7-9-2 0-4 7-4 7zm11 2h-13v-2s4-7 6-7c5 0 7 2 10 9h-3zm0 0" fill="#313328"/><path d="M357 16s5-16 9 2l-9-2zm0 0" fill="#404c2a"/><path d="M357 16s5-16 7 0h-7zm0 0" fill="#455b2f"/><path d="M357 16h9c-2-5-2-7-4-7-3 0-5 5-5 7zm12 2h-3l-11-2s4-7 7-7c2 0 4 2 7 9zm0 0" fill="#313328"/><path d="M371 18s9-18 14 0h-14zm0 0" fill="#404c2a"/><path d="M371 18s9-18 9 0h-9zm0 0" fill="#455b2f"/><path d="M373 16c0 2 5 2 12 2l-5-7c-4 0-7 3-7 5zm12 5c-7-3-14-3-14-3 0-2 5-9 9-9 2 0 5 5 5 9zm0 0" fill="#313328"/><path d="M389 18s10-16 12 5c-5 0-12-5-12-5zm0 0" fill="#404c2a"/><path d="M389 18s7-13 10 3c-5 0-10-3-10-3zm0 0" fill="#455b2f"/><path d="M389 18c3 3 7 3 12 5-2-7-2-9-5-9-2 0-7 2-7 4zm12 5l-14-2v-3s5-7 9-7c3 0 5 5 5 12zm0 0" fill="#313328"/><path d="M403 23s12-14 12 5l-12-5zm0 0" fill="#404c2a"/><path d="M403 23s12-14 7 2c-5 0-7-2-7-2zm0 0" fill="#455b2f"/><path d="M403 23l12 5c0-5-3-10-5-10s-5 5-7 5zm12 5l-12-5s5-5 7-5 5 3 5 10zm0 0" fill="#313328"/><path d="M419 30s14-16 12 4c-7-4-12-4-12-4zm0 0" fill="#404c2a"/><path d="M419 30s14-16 7 2l-7-2zm0 0" fill="#455b2f"/><path d="M419 28l12 6c0-6 0-9-3-9 0-2 0-2-2-2s-7 5-7 5zm12 6l-14-4v-2s7-5 9-5h2c3 2 3 7 3 11zm0 0" fill="#313328"/><path d="M433 34s14-13 9 5c-7-2-9-5-9-5zm0 0" fill="#404c2a"/><path d="M433 34s12-11 9 3l-9-3zm0 0" fill="#455b2f"/><path d="M435 34l7 5c3-5 0-7 0-7v-2c-2 0-7 2-7 4zm10 5h-3c-7-2-9-5-9-5s5-4 9-4c3 2 3 4 3 9zm0 0" fill="#313328"/><path d="M194 18s69-11 154-4c37 2 46 2 97 23 22 7 110 27 94 103-14 58-140 21-173 58 3-12 12-19 14-19h-7c5-4 7-7 14-7l-5-2c10-2 12-4 21-4l-4-5 20-2-2-3c5-2 14-2 18 0l-2-4c5 0 14 0 23 2-2-2-2-7-2-7 7 2 18 2 23 2-3-2-5-6-5-6 7 2 14 4 21 4 7-7 11-41-78-44-33-2-51 21-147 14-26 7-62-16-81-9 7-21 7-90 7-90zm0 0" fill="#6b9638"/><path d="M235 85c12 5 10 12 21 9 76 5 108-18 156-7 106 3 88 53 81 62-7-2-14-4-21-4l5 4h-23s0 3 2 5c-9-2-18-2-23-2l2 4c-4-2-13-2-18 0l2 3c-4 0-16 2-20 4l4 3c-9 0-11 2-21 4l5 2c-7 0-9 3-14 7h7c-2 3-11 7-14 19 21-42 152-14 168-69 19-62-67-85-89-92-51-21-60-21-97-23-85-7-154 4-154 4s-16 28 5 37c25 14 36 30 36 30zm0 0" fill="#8eba2e"/><path d="M228 21c0 9 10 23 0 46 12 13 35 25 99 13 65-9 134-4 161 17 28 20 16 50 7 52l-16-2 2 5c-4 0-23 0-23-3 0 3 3 7 3 7-5-2-21-2-23-2l2 5-18-3c0 3 2 5 2 5h-21l5 7c-3 0-12-2-21 2 2 0 2 5 2 5-2-3-7 0-11 2l7 2c16-4 27-9 55-11 27-5 64-9 78-25 14-14 16-44 5-58-10-14-35-32-74-41-37-10-44-26-103-28-60-2-97-2-118 5zm0 0" fill="#9ec228"/><path d="M461 99c-35-12-72-12-90-5-21 7-71 12-124 7-28-2-44 2-51 5 19 0 49 18 72 11 96 7 114-16 147-14 62 3 78 19 80 33 5-12-7-28-34-37zm0 0" fill="#fccc0f"/><path d="M461 99c-35-12-72-12-90-5-21 7-71 12-124 7-28-2-44 2-51 5 19 0 51 11 74 4 94 7 112-18 145-13 62 0 78 25 80 39 5-12-7-28-34-37zm0 0" fill="#fbe93f"/><path d="M408 103h7c62 0 78 19 80 30 2-11-9-27-34-34-19-5-37-9-56-9-13 0-25 2-34 4-16 5-48 9-87 9-12 0-23 0-37-2h-16c-14 0-25 2-32 5 7 0 13 2 23 7 11 2 23 4 34 4h48c37 0 58-4 76-9 12-2 19-5 28-5zm87 33c-2-12-14-30-80-33h-7c-9 0-16 3-28 5-18 5-39 12-76 12-11 0-23-3-36-3-3 3-7 3-12 3-11 0-23-5-34-7-10-3-19-5-26-5h-2l2-2c7-3 21-5 35-5h16l37 2c39 0 71-4 87-9a154 154 0 0 1 90 5c29 7 39 25 36 37zm0 0" fill="#f6a649"/><path d="M467 110s5-4 5-7h2c-2 5-7 7-7 7zm-18-4s5-5 5-9c0 4-5 9-5 9zm-18-3h-3c3 0 3-9 3-11h2c-2 2-2 9-2 11zm-92 14s0-11-2-16v-2c4 7 2 16 2 18zm-14 0h-2c0-4-3-16-5-16h2s5 12 5 16zm-21 0c-4-2-4-14-4-14h2c0 3 0 12 2 14zm-18 0c-2-4-2-14 0-14 0 0-2 10 2 14zm0 0" fill="#ef7c1b"/><path d="M447 37h-2c-49-21-60-21-95-23h-2c-18-3-39-3-60-3-55 0-94 7-94 7s0 69-7 90v2-2h5v-2c0 2-3 2-3 2 5-21 5-85 5-90 5 0 44-7 94-7 21 0 42 3 60 3h2c35 2 46 4 95 23l2 2c25 7 106 28 89 101-6 32-48 35-89 37-35 2-65 5-78 18 2-9 9-13 11-16h-7c5-4 7-7 14-7l-2-2 2-2 12-2h6l-4-5 16-2h2v-3h19-3c0-2 0-4-2-4 5 0 14 0 23 2h2l-2-2-2-3h25-2c0-2-3-4-3-4 5 0 12 2 19 4 2-4 7-11 2-18v-2h-2s2 0 2 2c2 7 0 14-2 16l-21-4v2l5 4h-7c-5 0-12 0-16-2l2 5h-23s0 2 2 2h-9c-4 0-7 0-9 2l2 3h-2l-18 2 4 5h-4c-5 0-7 0-12 2l-5 2s3 0 3 2c-5 0-7 3-12 7h-2 7c-5 3-9 10-12 19v2l3-2c13-16 43-19 78-19 41-2 85-7 92-39 16-73-67-94-92-103zm0 0" fill="#4a6030"/><path d="M495 131c-5-11-23-28-80-28h-7c-9 0-16 3-28 5-18 5-39 9-76 9h-48c-11 0-23-2-34-4-10-5-19-7-26-7v2c7 0 16 2 26 5 11 2 23 7 34 7 5 0 9 0 12-3 13 0 25 3 36 3 37 0 58-7 76-12 12-2 19-5 28-5h7c59 3 75 19 80 28v5c2 0 2 0 2-3l-2-2zm0 0" fill="#ef7c1b"/><path d="M380 74s-32 6-27 32c2 7 11 14 36 18-7-2-25 14-4 9-3 3-9 21 11 7 0 3 3 19 9 3 3 2 5 11 7-3 3-9 26-9 19-20-5-7-12-17-21-19 5-2 7-9 2-14zm0 0" fill="#6b9638"/><path d="M380 74s-32 6-27 32c2 7 11 14 36 18-7-2-18 12 3 5-3 4-16 20 4 7 3 2 3 16 7 0 5 2 7 11 9 0 3-10 16-7 10-19-5-7-14-18-21-20 2-3 16-5 11-10zm0 0" fill="#8eba2e"/><path d="M389 124c-2 0-9 2-7 5 0 2 10 0 12-3l-7 12c2 2 9-5 12-7v9c2 3 4-7 4-9 2 2 5 9 7 9 0-2 0-11 7-16 0 0 0-2-2 0-5 0-14 5-26 0zm-4-50c-7 0-26 9-30 20-5 12 4 19 16 21 9 5 37 9 44 2 2-4-7-16-16-18-7-5-21-2-26-2 3-5 12-7 23-5 9-2 12-12 9-14-4-4-11-7-20-4zm0 0" fill="#9ec228"/><path d="M399 149c-3 0-3-6-5-9-7 5-12 7-12 5-2-2 0-9 3-12-5 3-9 3-9 0 0 0-3 0 0-2 2-2 6-7 9-7-26-4-32-14-32-18-3-14 4-23 13-28l14-4s-32 6-27 32c0 4 6 11 36 16v2c-4 0-11 5-13 7v2s2 3 9 0h2-2c0 3-5 10-3 12 0 0 3 0 12-7h2v2c0 3 0 9 3 9 2 0 2 0 6-6v-3 3a8769 8769 0 0 0 5 4s2-2 2-7c0-4 7-7 12-9 2-2 7-5 7-7v-4c-5-7-12-17-21-19v-2c2 0 2-2 5-2 0-5 0-7-3-10 0 0 5 3 3 10 0 2-3 2-3 4 10 2 14 12 19 19l2 4c-2 5-5 5-9 7-5 2-9 5-9 9-3 5-3 7-5 7-2 2-2-2-5-2v-2c-2 4-4 6-6 6zm0 0" fill="#4a6030"/><path d="M238 85s-26 12-3 32c-4 0-13 5-13 7-5-2-33 5-12 9-2 3-11 21 9 10 0 4 3 20 9 2 3 2 14 14 10-5 4 0 46 3 48-20 0-10-14-21-30-26zm0 0" fill="#6b9638"/><path d="M238 85s-26 12-3 32c-4 0-13 5-13 7-5-2-26 5-5 7-2 5-16 16 5 5 0 4 0 20 6 2 3 2 10 14 5-5 5 0 41 3 46-16 0-9-7-18-23-23zm0 0" fill="#8eba2e"/><path d="M242 83c-7 2-14 9-14 16-2 4 5 14 12 16-7 2-16 7-18 9l-14 2c2 3 7 5 11 3-4 4-7 9-7 11 0 0 10-4 12-7 0 3-2 12 0 12s4-7 4-9c0 2 3 7 5 4l-2-9c4 2 30-2 37-7 6-4 6-14 2-18-5-5-12-9-21-12 5-4 0-11-7-11zm0 0" fill="#9ec228"/><path d="M224 154c-2 0-5-5-5-9v-2c-7 4-11 4-14 2l3-9c0-3 2-3 2-3-7-2-7-2-9-4h2c3-5 14-7 16-5 3-2 9-7 16-7-7-7-11-14-9-18 0-5 0-7 2-9 5-5 10-7 10-7s-12 7-12 16c0 4 2 11 9 16v2c-4 0-13 5-13 7h-3s-13 2-16 5c0 2 0 2 7 2v5c-2 2-4 9-2 9l11-2v-3 5c3 2 3 7 5 7 0 0 2 0 4-7v-2l3 2c0 2 4 7 7 4l-3-9v-2h3c2 2 25 5 39-5 4-4 7-9 7-16s-10-18-30-23l14 5c11 4 18 14 18 21 0 4-5 9-9 13-12 10-35 7-39 7 2 7 0 9 0 12-3 0-7-5-10-7-2 7-2 9-4 9zm0 0" fill="#4a6030"/><path d="M68 108c11-9 32 9 52-11 12-14 40 0 56-37-7 4-26 14-39 14-23 0-30 25-53 18-3 0-7-2-12-5-4 3-7 5-11 10-5 9-14 13-19 16 3 2 7 9 26-5zm0 0" fill="#9e2f27"/><path d="M127 80c-4 0-9 3-13 5h-3c-7 7-14 12-27 7-3 0-7-2-12-5-4 3-7 5-11 10-5 9-14 13-19 16 3 2 7 9 26-5 11-9 32 9 52-11 7-10 21-7 35-14 2-3 5-3 2-5-7 0-18 0-30 2zm0 0" fill="#ca2f2b"/><path d="M84 92c-3 0-7-2-12-5-4 3-7 5-11 10-5 9-14 13-19 16 3 2 5 7 16 0 10-7 21-14 33-19-3 0-5 0-7-2zm0 0" fill="#af2827"/><path d="M137 74c-23 0-26 23-44 20-14 3-25 12-35 19zm0 0" fill="#bb2b2b"/><path d="M143 83c-16 4-23 4-39 11-4 3-9 0-16 3-7 0-11 4-18 9 14-3 32 9 50-9 5-5 12-7 19-7l4-7zm0 0" fill="#e63037"/><path d="M70 90c-2 2-7 4-9 7l-7 9c0 4 0 4 2 2 2 0 9-7 16-9 7 0 9 0 7-2-4 0-7-5-9-7zm0 0" fill="#d62326"/><path d="M42 113l7 4c5 0 9-4 19-9 2-2 4-2 7-2h20c7 0 14 0 23-9 5-5 12-7 19-7 13-5 27-7 36-30-7 7-23 14-36 14-12 0-19 6-26 11-4 5-11 9-18 9h-9c-3-2-7-4-12-4-4 0-9 4-11 7-5 9-12 13-19 16zm7 4l-7-4h-2 2c5-5 14-10 19-16 2-5 7-7 11-10 5 3 9 3 14 5l7 2c7 0 11-4 18-9 7-7 14-11 26-11 13 0 32-10 39-14v-3 3c-12 23-26 27-39 30-7 2-12 2-17 7-9 9-18 11-25 11-4 0-7 0-11-2h-9c-3 0-5 0-7 2-10 7-14 9-19 9zm0 0" fill="#8b2724"/><path d="M63 110s9-13 32-16c-23 5-32 16-32 16zm0 0" fill="#8b2724"/><path d="M29 113s4-26 9 0h-9zm0 0" fill="#f5da76"/><path d="M33 101c-2 0-4 12-4 12h4c0-5 2-7 0-12zm0 0" fill="#f4eebf"/><path d="M31 113h7c-3-10-3-12-5-12l-2 12zm2 0h-4c0-3 2-12 4-12s5 0 7 12h-7zm0 0" fill="#bda756"/><path d="M45 120s2-26 9 0h-9zm0 0" fill="#f5da76"/><path d="M49 108c-2-2-4 12-4 12h4v-12zm0 0" fill="#f4eebf"/><path d="M45 117c2 3 2 3 4 3 3 0 3 0 5-3-2-7-5-9-5-9-2 0-4 7-4 9zm4 3h-4c0-3 2-12 4-12 0 0 3 0 5 12h-5zm0 0" fill="#bda756"/><path d="M58 117s-9-16 5-4l-5 4zm0 0" fill="#f5da76"/><path d="M58 117c0-4 0-7-2-9-2 2 2 9 2 9zm0 0" fill="#f4eebf"/><path d="M56 108c0 2 0 5 2 9 0-2 3-2 5-4l-7-5zm0 9c0-2-2-7 0-9 0 0 2 0 7 5v2l-5 2zm0 0" fill="#bda756"/><path d="M65 113s-4-21 7-3l-7 3zm0 0" fill="#f5da76"/><path d="M65 113h3c0-5 0-7-3-10-2 0 0 10 0 10zm0 0" fill="#f4eebf"/><path d="M65 103v10c3-3 5-3 5-3-2-7-5-7-5-7zm0 10c0-3-2-10 0-10v-2c3 0 3 2 7 9l-7 3zm0 0" fill="#bda756"/><path d="M77 108s2-18 4 0h-4zm0 0" fill="#f5da76"/><path d="M77 108h2v-9c-2 2-2 9-2 9zm0 0" fill="#f4eebf"/><path d="M77 106s2 2 4 2l-2-7s-2 2-2 5zm4 2h-6c2-2 2-9 4-9l5 9zm0 0" fill="#bda756"/><path d="M86 108s2-16 7 0c-2 2-7 0-7 0zm0 0" fill="#f5da76"/><path d="M86 108h2v-7l-2 7zm0 0" fill="#f4eebf"/><path d="M88 108h3c0-7-3-7-3-7v7zm3 2c-3 0-5-2-5-2l2-7c3 0 3 0 5 7-2 0-2 2-2 2zm0 0" fill="#bda756"/><path d="M100 108s0-14 7 0h-7zm0 0" fill="#f5da76"/><path d="M102 101c-2 0-2 7-2 7h2c2-2 2-5 0-7zm0 0" fill="#f4eebf"/><path d="M102 101v7s2 0 5-2l-5-5zm-2 7s0-5 2-7c2 0 2 0 5 5v2h-7zm0 0" fill="#bda756"/><path d="M114 103s-5-16 6-4l-6 4zm0 0" fill="#f5da76"/><path d="M114 94c-3 0 0 9 0 9s2 0 2-2 0-4-2-7zm0 0" fill="#f4eebf"/><path d="M114 94v9c2-2 4-4 6-4-4-5-4-5-6-5zm0 9s-3-6 0-9c2 0 4 0 6 5l-6 4zm0 0" fill="#bda756"/><path d="M125 94s-2-16 7-2c-2 2-7 2-7 2zm0 0" fill="#f5da76"/><path d="M125 94c2 0 2-2 2-7-4-2-2 7-2 7zm0 0" fill="#f4eebf"/><path d="M127 87h-2v7c2 0 5 0 7-2l-5-5zm-2 10v-3s-2-7 0-7c0 0 0-2 2-2 0 0 3 2 5 7l-7 5zm0 0" fill="#bda756"/><path d="M139 92s-2-18 7-2l-7 2zm0 0" fill="#f5da76"/><path d="M141 83c-2-3-2 9-2 9s2-2 4-2l-2-7zm0 0" fill="#f4eebf"/><path d="M141 83c-2 0-2 4-2 7h7l-5-7zm-2 9v-9h2s2 0 5 7l-7 2zm0 0" fill="#bda756"/><path d="M10 80s7 33 9 0h-9zm0 0" fill="#f5da76"/><path d="M15 80h-5s0 7 2 12c3-2 3-7 3-12zm0 0" fill="#f4eebf"/><path d="M10 80c0 7 5 14 5 14 2 0 2-2 4-11-2-3-7-3-9-3zm5 14c-3 0-5-11-7-14h11c0 14-2 14-4 14zm0 0" fill="#bda756"/><path d="M29 85s4 28 9 0h-9zm0 0" fill="#f5da76"/><path d="M33 85h-4l2 12c2-5 2-10 2-12zm0 0" fill="#f4eebf"/><path d="M29 85c2 5 2 12 4 12 0 0 2 0 2-12h-6zm4 12c-2 0-4-10-4-12v-2s2 2 4 2l5-2v2c-3 12-5 12-5 12zm0 0" fill="#bda756"/><path d="M47 83s5 20 9 0h-9zm0 0" fill="#f5da76"/><path d="M54 83h-7s2 7 5 9c0-5 2-7 2-9zm0 0" fill="#f4eebf"/><path d="M47 83l5 9s2-2 4-9h-9zm5 9c-3 0-5-7-5-9h9c0 7-2 9-4 9zm0 0" fill="#bda756"/><path d="M63 83s-2 23 7 0h-7zm0 0" fill="#f5da76"/><path d="M63 83v9c2-2 2-7 5-9h-5zm0 0" fill="#f4eebf"/><path d="M63 83v9h2l5-9h-7zm2 11c-2 0-2 0-2-2-2 0 0-9 0-9h7c-2 9-5 11-5 11zm0 0" fill="#bda756"/><path d="M77 87s-2 21 7 3c-3 0-7-3-7-3zm0 0" fill="#f5da76"/><path d="M77 87s-2 5 0 7l2-7h-2zm0 0" fill="#f4eebf"/><path d="M77 87v10c2 0 2 0 7-7-3 0-7-3-7-3zm0 12v-2c-2-3-2-10-2-10l2-2v2s4 0 7 3c-5 7-5 9-7 9zm0 0" fill="#bda756"/><path d="M88 92s5 16 7 0h-7zm0 0" fill="#f5da76"/><path d="M91 92h-3l5 7c0-2 0-5-2-7zm0 0" fill="#f4eebf"/><path d="M88 92c3 2 3 5 5 5v-5h-5zm5 7c-2 0-5-7-5-7v-2h7v2c0 7-2 7-2 7zm0 0" fill="#bda756"/><path d="M100 87s9 19 9-2c-5 0-9 2-9 2zm0 0" fill="#f5da76"/><path d="M104 85l-4 2 4 7c3-2 3-4 0-9zm0 0" fill="#f4eebf"/><path d="M102 87c0 5 2 7 5 7 0 0 2-2 2-9-5 0-7 2-7 2zm5 10c-3 0-7-7-7-10 0 0 4-2 9-2v-2 2c0 5 0 9-2 9v3zm0 0" fill="#bda756"/><path d="M114 80s6 17 6-4c-2 0-6 4-6 4zm0 0" fill="#f5da76"/><path d="M118 78l-4 2 2 7c2-4 2-7 2-9zm0 0" fill="#f4eebf"/><path d="M114 80c0 3 2 7 4 7 0 0 2-2 2-11l-6 4zm4 7c-2 0-4-7-4-7h-3 3s4-4 6-4c0 7 0 11-2 11zm0 0" fill="#bda756"/><path d="M125 74s5 20 9-3c-4 0-9 3-9 3zm0 0" fill="#f5da76"/><path d="M130 71c-3 3-5 3-5 3s2 6 5 9V71zm0 0" fill="#f4eebf"/><path d="M125 74c0 4 2 9 5 9l4-12c-4 3-7 3-9 3zm5 9c-3 0-5-7-5-9 0 0 5-3 9-3-2 12-4 12-4 12zm0 0" fill="#bda756"/><path d="M137 71s6 21 9 0h-9zm0 0" fill="#f5da76"/><path d="M143 71h-6s2 7 4 7l2-7zm0 0" fill="#f4eebf"/><path d="M139 71c0 5 2 9 2 9 2 0 2-2 5-9h-7zm2 9c-2 0-4-6-4-9h9v-2 2c0 7-3 9-5 9zm0 0" fill="#bda756"/><path d="M210 60s28 25-7 48c-25 0-62 16-103 14-16 2-37 4-42 7-2 4-13 7-25-5-7-9-9-18 7-14 5 3 5 14 28-2 11-9 32 9 52-11 12-14 40 0 56-37-7 4-26 14-39 14-23 0-30 25-53 18-21-9-35-9-42-7-4 2-13 5-20-2-5 4-21 4-19-16-4-7-2-26 23-19 5-2 19 0 26 9 6-2 13 0 13 3 7-5 21-9 32-5 5-4 12-7 23-11 0-7 0-44 26-37 7-7 14-9 30-2 13 2 39 2 48 25zm0 0" fill="#6b9638"/><path d="M212 64c14 37-73 51-87 51l-69 5c0 4-11 16-23 4-7-11-9-18 7-14 5 3 5 14 28-2 11-9 32 9 52-11 12-14 40 0 56-37-7 4-26 9-39 9-23 0-28 23-51 16-21-9-37-9-44-5-7 0-18 0-25-4-5 2-14 4-14-9-4-7-2-26 23-19 5-2 19 0 26 9 6-2 13 0 13 3 7-5 21-9 32-5 5-4 12-7 23-11 0-7 0-44 26-37 7-7 14-9 30-2 13 2 39 2 48 25 0 0-5 25-12 34zm0 0" fill="#8eba2e"/><path d="M183 14c2 9 6 23 4 37 7-3 23 0 30 9 7-5 11-23 2-32-9-12-25-17-36-14zM65 115c5-7 12-7 26-5 13 5 23-4 29-9 7-7 19-7 28-9 9-5 30-12 35-30 2-5 20-9 25 7 4 18-39 37-58 37-23 7-53 9-85 9zM141 7c-4 0-9 0-16 11 5-4 9-7 16-7 0 0 2-2 0-4zm7 18s-2-7-2-14c2-9 16-11 20-9 7 5 12 9 17 23-3-4-10-20-23-18-12 2-12 18-12 18zm-7 30s-4-9-14-11c7-3 16-10 16-23 3 7 5 27-2 34zm-41 0c4-2 14-9 20-9 5 0 14 2 17 14-3 0-19 4-30 14 2-7 0-14-7-19zm0 0" fill="#9ec228"/><path d="M70 60c2-3 16-7 27-5 5 5 10 16 3 25-7 5-16-4-25-4 2-7-3-14-5-16zm-16 0c2-3 7-3 9 0 5 2 7 7 7 14-2 0-12-3-16 0 2-5 2-10 0-14zm-9 4c0 5 4 5 7 3 0-5-5-14-12-16-5-3-11-3-16 2-5 2-7 14-5 18 3 5 7 0 5-4 0-5 5-12 9-12 7 0 9 5 12 9zm0 0" fill="#9ec228"/><path d="M22 48s-7-2-12 0c-4 3-9 9-7 14h7c-2 0-4 5-4 7 0 5 2 7 4 7s5 0 7-2c-2-7 0-23 5-26zm25 72c-2-3-5-7-9-7-3 0-5-3-7-3-5 3 4 16 14 16 4-2 4-4 2-6zm0 0" fill="#9ec228"/><path d="M49 133c-4 0-11-2-16-7-4-6-7-13-4-16 0-2 4-2 11 0l2 3c5 4 7 7 26-5 4-5 9-2 16-2 11 2 23 2 34-9 5-5 12-7 19-7 13-5 27-7 36-30-7 7-23 14-36 14-12 0-19 6-26 11-7 7-14 12-27 9-23-11-35-9-42-7h-2c-7 0-11 3-18-2-3 0-7 2-12 0-4-2-9-7-7-18-2-5-2-12 0-16 3-3 9-7 23-3 7-2 19-2 26 9 4-2 9-2 11 0h2c7-4 21-6 32-2 5-4 12-7 21-11v-3c2-7 2-25 14-34 2-2 7-2 14 0 7-7 14-9 30-2 11 2 25 2 36 11 10 7 12 14 12 14-9-21-32-23-48-23-16-9-23-7-30 0-5-2-9 0-14 2-9 7-12 25-12 32v3c-11 4-18 7-23 11-11-2-25 0-32 5 0-3 0-3-2-3s-7-2-11 0v3-3c-7-9-19-11-26-9-11-2-18-2-20 3-5 4-5 11-3 16 0 9 5 13 7 16 5 2 9 2 12 0 7 4 11 4 18 2h2c7-2 19-2 44 7 11 5 18-2 25-7 7-7 14-11 26-11 13 0 32-10 39-14v-3 3c-12 23-26 27-39 30-7 2-12 2-17 7-13 13-25 11-36 9-7 0-12 0-16 2-19 14-21 9-26 5l-2-3c-7-2-11-2-11 0-3 3 0 7 4 14 7 7 16 9 21 7 2 0 2-2 2-2v-3c7 0 28-4 44-4 25 2 48-5 71-9 12-3 23-5 32-5 12-9 16-16 19-25 0-12-12-23-12-23s12 11 12 23c0 9-7 18-19 25-9 0-20 2-32 7-23 5-46 9-71 9-16 0-35 2-42 5 0 2-2 2-4 2-2 2-2 2-5 2zm0 0" fill="#4a6030"/><path d="M143 14s0-7 5-12v3l-5 9zm30-9l12 6-12-6zm5 59c0-2 0-4-2-4-3-3-7-3-7-3s4-2 7 0c2 3 2 7 2 7zM3 67c0-3 3-3 3-3-3 0-3 3-3 3zm16-12s0-2 7-7l-7 7zm33 16c4-4 0-14 0-14 4 10 0 14 0 14zM22 85c-5-5-5-7-5-9 0 4 5 9 5 9zm50-14c0-7-7-14-7-14 7 7 7 14 7 14zm32-7c0-7-7-9-7-9 7 5 7 9 7 9zm30-13c-2-5-14-7-14-7 12 2 14 7 14 7zm0 0" fill="#4a6030"/><path d="M180 30c3 14-2 25-9 25-7 2-16-7-18-18-3-14 0-26 7-28 9-2 16 7 20 21zm0 0" fill="#6b9638"/><path d="M178 32c2 12-2 23-9 25-7 0-14-6-16-20-3-12 0-21 7-23 6-3 16 7 18 18zm0 0" fill="#feca04"/><path d="M176 30c-3-12-10-19-16-16-7 2-10 11-7 23 0 7 2 11 7 14 9-3 13-12 16-21zm0 0" fill="#f9e90c"/><path d="M176 30c-3-12-10-19-16-16-3 0-5 4-7 9 4-7 11-12 23 7zm0 0" fill="#77a935"/><path d="M162 16c2 0 7 5 14 12-5-10-10-14-14-14h-2c-3 0-5 2-5 4l7-2zm14 14c-5-9-12-14-14-14-5 0-7 2-9 7 0-5 4-9 7-9h2c7 0 11 7 16 16zm0 0" fill="#4a6030"/><path d="M162 14h-2c-7 2-10 11-7 23 2 11 9 18 16 18s11-11 9-23c-5-9-9-18-16-18zm7 43c-7 0-14-9-16-20-3-12 0-23 7-23h2c7 0 14 7 16 18 2 12-2 23-9 25zm0 0" fill="#4a6030"/><path d="M141 14c-7 0-14 2-18 9-7 9-7 16-5 21 23-7 25-23 23-30zm0 0" fill="#feca04"/><path d="M141 25V14c-7 0-14 2-18 9-5 5-7 11-5 16 7 0 16-7 23-14zm0 0" fill="#f9e90c"/><path d="M141 23v-9c-4 0-9 0-11 4 4-2 9-2 11 5zm0 0" fill="#77a935"/><path d="M134 16c3 0 5 2 7 5 0-3 0-5-2-7-2 0-5 0-7 2h2zm7 7c-2-5-4-7-7-7l-4 2h-3c5-4 10-4 14-4v9zm0 0" fill="#4a6030"/><path d="M139 14c-5 0-12 4-16 9-5 9-7 16-5 21 14-5 19-10 21-14 2-7 2-12 0-16zm-21 30c-2-5-2-14 5-21 4-5 9-9 16-9h2c0 4 2 9-2 16-2 4-7 11-21 14zm-23 80v-2s65-14 83-28c0 0-14 14-83 30zm0 0" fill="#4a6030"/><path d="M40 67c0 4-2 9-7 9-2 0-7-5-7-9s5-7 7-7c5 0 7 2 7 7zm0 0" fill="#587935"/><path d="M35 71c-2-4-2-9 0-11h-2c-2 0-7 2-7 7s5 9 7 9l5-2c-3 0-3-3-3-3zm0 0" fill="#648937"/><path d="M31 64l2-4c-2 0-7 2-7 7s5 9 7 9h2c-4-2-4-7-4-12zm0 0" fill="#6b9638"/><path d="M33 60c-2 0-4 4-4 7 0 4 2 9 4 9 5 0 7-5 7-9 0-3-2-7-7-7zm0 16c-2 0-7-5-7-9s5-7 7-7c5 0 7 2 7 7s-2 9-7 9zm0 0" fill="#4a6030"/><path d="M169 34c0 5 0 7-3 7-2 0-4-2-4-4 0-3 2-5 2-5 2-2 5 0 5 2zm-35 0c-2 3-4 5-4 3-3 0-3-3-3-5s3-4 5-2c2 0 2 2 2 4zm0 0" fill="#252422"/><path d="M199 32h-5c0-2 2-2 2-2 3 0 3 0 3 2zm7 7l-3 2-2-2 2-2 3 2zm0 9c0 3-3 3-3 3s-2 0-2-3l2-2 3 2zm-12 3l-2 2c-3 0-5-2-5-2 0-3 2-5 5-5 0 0 2 2 2 5zm0-12c0 2 0 2-2 2v-4c2 0 2 2 2 2zm7 48c0 3 0 5-2 5-3 0-5-2-5-5 0-2 2-2 5-2 2 0 2 0 2 2zm-9-11s0 2-3 2l-2-2c0-2 2-2 2-2 3 0 3 0 3 2zm11-5l-2 3c-2 0-2-3-2-3 0-2 0-2 2-2 0 0 2 0 2 2zm7 7s0 2-2 2v-4c2 0 2 0 2 2zm30 25l-2 3c-3 0-3-3-3-3 0-2 0-2 3-2 0 0 2 0 2 2zm7-2c0 2 0 2-2 2 0 0-3 0-3-2l3-2c2 0 2 2 2 2zm18 2c0 3-2 3-4 3 0 0-3 0-3-3 0-2 3-2 3-2 2 0 4 0 4 2zm-23-11c0 2-2 2-2 2-2 0-2 0-2-2h4zm131 14c0 2-2 2-2 2-2 0-5 0-5-2 0-3 3-3 5-3 0 0 2 0 2 3zm12-3s0 3-3 3l-2-3c0-2 2-2 2-2 3 0 3 0 3 2zm-21-6s0 2-2 2c-3 0-3-2-3-2 0-3 0-5 3-5 2 0 2 2 2 5zm9-10l-2 3c-2 0-5-3-5-3 0-2 3-2 5-2 0 0 2 0 2 2zm14-7c0 3-2 3-2 3s-3 0-3-3h5zm9 3c0 2-2 2-2 2s-2 0-2-2l2-3 2 3zm9 2v2c-2 0-2 0-2-2h2zm0 0" fill="#386d36"/><path d="M412 101s-23-11-36-4c0 0 4-5 16-3 11 0 20 7 20 7zm-11 23h-14v-2s16 4 21 0c0 0-3 2-7 2zm-129-4s-7-12-37-3v-2c12-2 19-2 26-2 9 2 11 7 11 7zm0 0" fill="#4a6030"/><path d="M245 74s9-7 9 2c-3 0-7 0-9-2zm20 2s7-9 9 2c-4 0-6 0-9-2zm14 0s12-12 12 2c-3 0-7 2-12-2zm18 2s7-11 12 2c-5 0-7 0-12-2zm19 0s9-11 7 2c-3 0-5 0-7-2zm18 2s7-11 12 3c-5 0-10 0-12-3zm14 0s5-13 9 0c-4 3-7 0-9 0zM233 53s12-14 14 0c0 2-9 2-14 0zm18 0s10-12 14 2c-7 0-11 0-14-2zm19 0s16-14 16 2c-5 0-12 0-16-2zm23-2s14-14 14 2c-3 2-10 2-14-2zm18 0s14-17 14 2c-2 0-9 2-14-2zm21 0s14-14 14 0c-5 4-7 6-14 0zm21 0s9-17 11 0c0 2-7 2-11 0zm18-3s9-16 11 3c-2 2-9 2-11-3zm16 0s12-14 14 0c0 3-7 5-14 0zm18 0s10-14 12 0c0 5-12 5-12 0zm19 0s14-9 9 5c0 2-9-2-9-5zm16 5s14-12 11 2c-2 7-11 0-11-2zm16 4s16-9 11 3c-2 2-11-3-11-3zm14 5s11-9 9 2c-2 3-5 0-9-2zm14 5s13-7 9 4c0 3-9-2-9-4zm13 7s16-5 12 6c-2 3-9-2-12-6zm12 13s14-4 7 10c-3-3-7-5-7-10zm7 14s11-4 2 9c-2-4-2-7-2-9zm2 16s9-4 0 7c-2-2-2-4 0-7zm0 12s-11 4-5 9c5-2 5-7 5-9zm-7 14s-7 2-21 0c0 2 0 4 5 6 5 0 14-2 16-6zM286 28s7-12 11 4c-4 0-11 0-11-4zm18 2s7-14 12 2c-5 0-9 2-12-2zm16 2s10-16 14 0c-4 2-9 2-14 0zm19 0s11-14 14 0c0 5-12 2-14 0zm18 0s9-11 9 0c0 5-7 5-9 0zm14 0s9-11 9 2c0 3-9 0-9-2zm14 0s9-9 9 2c0 5-9 3-9-2zm16 2s7-9 7 5c-3 0-7-2-7-5zm11 3s12-12 12 2c0 0-9 2-12-2zm21 2s14-11 12 5c-5 0-12 0-12-5zm16 5s9-12 7 2c-2 0-7 0-7-2zm14 2s11-12 11 5c-4-3-11-3-11-5zm14 5s11-7 7 4l-7-4zm11 4s14-9 9 7c-4-2-9-5-9-7zm12 7s11-9 7 5l-7-5zm7 5s16-7 9 7c-5 0-7-5-9-7zm11 9s18-5 7 7c-5-3-7-5-7-7zm7 9s18 2 5 12c-5-5-5-7-5-12zm5 14s16 2 0 9v-9zm-3 21s12 0 3-7c-3 2-3 4-3 7zm-7 13s12-2 7-9c-4-2-7 2-7 9zm0 0" fill="#404c2a"/><path d="M254 71c-3-2-9 3-9 3l4 2 5-5zm0 0" fill="#455b2f"/><path d="M247 74s2 2 4 2h3v-5h-3c-2 0-4 3-4 3zm4 2c-2 0-4 0-6-2l6-3h3s2 3 2 5h-5zm0 0" fill="#313328"/><path d="M274 76c-4-9-9 0-9 0l3 2 6-2zm0 0" fill="#455b2f"/><path d="M265 76c3 2 5 2 7 2h2c-2-4-2-7-4-7s-5 3-5 5zm5 2l-7-2s5-5 7-5 4 3 4 7h-4zm0 0" fill="#313328"/><path d="M288 74c-2-5-9 2-9 2 2 0 2 2 5 2 2 0 4-2 4-4zm0 0" fill="#455b2f"/><path d="M281 76l5 2h5c0-4-3-7-5-7s-5 5-5 5zm5 4l-7-4s5-5 7-5 5 3 5 7c-3 0-3 2-5 2zm0 0" fill="#313328"/><path d="M307 76c-3-7-10 2-10 2h3c2 0 4 0 7-2zm0 0" fill="#455b2f"/><path d="M300 78c2 2 4 2 9 2-2-4-5-6-5-6-2 0-4 2-4 4zm4 2c-2 0-4 0-7-2 0 0 3-4 7-4 3 0 3 2 5 6h-5zm0 0" fill="#313328"/><path d="M323 74c-3 0-7 4-7 4s2 2 4 2c3-2 3-4 3-6zm0 0" fill="#455b2f"/><path d="M316 78c2 2 4 2 7 2v-6h-3l-4 4zm7 2c-3 0-7 0-7-2v-2s2-2 4-2h3c2 0 2 2 2 6zm0 0" fill="#313328"/><path d="M341 76c-5 0-7 4-7 4 3 0 5 3 7 3 2-3 0-5 0-7zm0 0" fill="#455b2f"/><path d="M334 80l9 3c0-5-2-7-2-7l-7 4zm9 3c-2 0-7 0-9-3 0 0 2-4 7-4 2 0 2 2 5 7h-3zm0 0" fill="#313328"/><path d="M353 76c-3-2-5 4-5 4 2 0 2 3 5 3 2-3 2-5 0-7zm0 0" fill="#455b2f"/><path d="M350 80c3 0 3 3 5 0 0-4-2-4-2-4s-3 2-3 4zm3 3s-3 0-5-3c0 0 2-6 5-6 2 0 2 2 4 6v3h-4zm0 0" fill="#313328"/><path d="M245 48c-5-4-12 5-12 5 2 2 7 2 9 2 3-2 3-4 3-7zm0 0" fill="#455b2f"/><path d="M233 53l9 2c3 0 5 0 5-2 0-5-2-5-5-5l-9 5zm9 2c-2 0-7 0-9-2 0 0 5-7 9-7 3 0 5 2 7 7v2h-7zm0 0" fill="#313328"/><path d="M258 48c-2 0-7 5-7 5 3 2 5 2 10 2 0-2 0-4-3-7zm0 0" fill="#455b2f"/><path d="M251 53l10 2h2c0-4-2-7-5-7-2 0-4 5-7 5zm10 2c-5 0-7 0-10-2 0 0 3-5 7-5 3 0 5 3 7 7h-4zm0 0" fill="#313328"/><path d="M284 48c-5-2-14 5-14 5 2 2 7 2 11 2 3-2 3-4 3-7zm0 0" fill="#455b2f"/><path d="M270 53c4 2 7 2 9 2h7c0-4 0-4-2-7h-3c-4 0-9 3-11 5zm9 2c-2 0-7 0-9-2 0 0 7-7 11-7 3 0 3 0 3 2 2 0 2 3 2 7h-7zm0 0" fill="#313328"/><path d="M304 46c-4-2-11 5-11 5 2 2 7 4 9 4 2-4 2-7 2-9zm0 0" fill="#455b2f"/><path d="M293 51c2 2 7 2 9 2h5c0-5-3-7-5-7l-9 5zm9 4c-2 0-7 0-9-2v-2s4-5 9-5 5 2 5 7c0 2-3 2-5 2zm0 0" fill="#313328"/><path d="M323 44c-5 0-12 7-12 7l9 4c3-4 3-7 3-11zm0 0" fill="#455b2f"/><path d="M314 51c0 2 2 2 6 2h5c0-5-2-9-5-9-2 0-6 4-6 7zm6 4c-4 0-6-2-9-4 0 0 7-7 9-7 5 0 5 2 7 9h-2l-5 2zm0 0" fill="#313328"/><path d="M343 44c-4 0-11 7-11 7 4 4 7 4 9 4 2-4 2-7 2-11zm0 0" fill="#455b2f"/><path d="M332 51l7 4 7-2v-2c0-5-3-5-5-5l-9 5zm7 4c-3 0-5-2-7-4 0 0 4-7 9-7s5 2 7 7v2h-2c-3 2-5 2-7 2zm0 0" fill="#313328"/><path d="M359 44c-2 0-6 7-6 7 2 2 4 2 6 2v-9zm0 0" fill="#455b2f"/><path d="M353 51l6 2c3 0 5-2 5-2 0-5-2-7-5-7-2 0-4 4-6 7zm6 2c-2 0-6 0-6-2h-3 3s4-7 6-7c3 0 5 2 5 7 0 0-2 2-5 2zm0 0" fill="#313328"/><path d="M378 41c-2 0-7 7-7 7 2 3 5 3 7 3 2-3 0-5 0-10zm0 0" fill="#455b2f"/><path d="M371 48c2 3 5 3 7 3h2c0-5 0-10-2-10s-5 5-7 7zm7 3c-2 0-7 0-7-3h-2 2s2-7 7-7c2 0 4 3 4 10h-4zm0 0" fill="#313328"/><path d="M396 41c-4 0-9 7-9 7 2 3 7 3 9 3 0-3 3-7 0-10zm0 0" fill="#455b2f"/><path d="M387 48l7 3c5 0 5-3 7-3-2-4-2-7-5-7-4 0-7 5-9 7zm7 3c-2 0-5 0-7-3 0 0 5-7 9-7 3 0 5 3 5 7 0 3-2 3-7 3zm0 0" fill="#313328"/><path d="M412 44c-4 0-7 4-7 4 0 3 3 3 5 3 2-3 2-5 2-7zm0 0" fill="#455b2f"/><path d="M405 48c0 3 5 3 7 3 0 0 5 0 5-3-2-2-2-4-5-4l-7 4zm7 5c-4 0-7-2-7-5h-2 2s5-4 7-4c3 0 5 0 5 4 0 3-2 5-5 5zm0 0" fill="#313328"/><path d="M433 46c-5-2-9 2-9 2 0 3 4 5 7 5 2-2 2-5 2-7zm0 0" fill="#455b2f"/><path d="M424 48c2 3 4 5 7 5h2c2-5 2-7 0-7-5 0-7 2-9 2zm7 5c-3 0-7-2-9-5 2 0 6-4 11-4 0 0 0 2 2 2v7h-4zm0 0" fill="#313328"/><path d="M449 48c-4 0-9 5-9 5l7 4c2-2 2-6 2-9zm0 0" fill="#455b2f"/><path d="M440 53c2 0 5 4 9 4 0 0 2 0 2-2v-4c-2-3-2-3-4-3s-7 3-7 5zm9 4c-4 0-9-4-11-4v-2l9-3h4v7c0 2-2 2-2 2zm0 0" fill="#313328"/><path d="M467 53c-4 0-11 4-11 4s5 3 9 3c0 0 2-3 2-7zm0 0" fill="#455b2f"/><path d="M456 57l9 3h2v-5s0-2-2-2-7 2-9 4zm9 5l-11-5v-2l11-2c2 0 2 0 2 2 3 0 3 2 0 5 0 2 0 2-2 2zm0 0" fill="#313328"/><path d="M479 60c-2-3-9 2-9 2l4 2c3 0 5-2 5-4zm0 0" fill="#455b2f"/><path d="M472 62c0 2 2 2 5 2h2v-4h-2c-3 0-5 0-5 2zm5 5c-3 0-5-3-7-5v-2l7-3s2 0 2 3v4s0 3-2 3zm0 0" fill="#313328"/><path d="M493 64c-5 0-9 3-9 3 0 2 2 4 6 4 3 0 3-4 3-7zm0 0" fill="#455b2f"/><path d="M484 67c2 2 6 4 9 4 2-2 2-4 0-4 0-3 0-3-3-3l-6 3zm9 7c-3 0-9-5-9-7l6-3h5v7h-2v3zm0 0" fill="#313328"/><path d="M507 74c-3-3-10 0-10 0l7 6c3-2 3-4 3-6zm0 0" fill="#455b2f"/><path d="M497 74c3 2 7 6 10 6h2v-4c0-2-2-2-5-2h-7zm10 9c-3 0-7-5-10-9h12c2 2 2 4 0 6 0 0 0 3-2 3zm0 0" fill="#313328"/><path d="M509 87c0 3 2 5 4 7 3-2 3-4 3-7h-7zm0 0" fill="#455b2f"/><path d="M511 87c0 3 2 7 5 7 2-2 2-4 0-4 0-3 0-3-3-3h-2zm5 10c-3-3-7-5-7-10h9l-2 10zm0 0" fill="#313328"/><path d="M518 99c-2 0-2 2-2 2v7c2-2 4-7 2-9zm0 0" fill="#455b2f"/><path d="M516 101c0 2 0 5 2 9 2-4 2-7 2-9h-4zm2 9l-5-9v-2h5c2 0 2 2 2 2 3 2 0 5-2 9zm0 0" fill="#313328"/><path d="M520 117h-2l-2 5c2 0 4-2 4-5zm0 0" fill="#455b2f"/><path d="M518 117c-2 3-2 5 0 7l2-7h-2zm0 7c-2-2-2-4-2-7h7s0 3-5 7zm0 0" fill="#313328"/><path d="M518 129c-2 2-9 4-7 7 2 0 5-3 7-7zm0 0" fill="#455b2f"/><path d="M518 131l-7 2c0 3 0 3 2 5 3-2 5-7 5-7zm-5 7c-2 0-2-2-2-5 0-2 7-4 7-4 0 2 0 7-5 9zm0 0" fill="#313328"/><path d="M490 143v2c7 2 14 2 21-2 0 0-7 2-21 0zm0 0" fill="#455b2f"/><path d="M495 149c2 0 14-2 16-6-2 0-4 2-9 2l-9-2c0 2-3 4 2 6zm0 0c-5 0-5-4-5-6v-3 3h21v-3 3c0 4-11 6-16 6zm0 0" fill="#313328"/><path d="M228 30s7-12 14 0c-2 0-9 2-14 0zm19 0s7-14 16 0c-2 0-9 4-16 0zm18-2s7-14 14 2c-5 0-11 0-14-2zm0 0" fill="#404c2a"/><path d="M238 25c-5-2-10 5-10 5 3 0 3 0 5 2 2-2 5-4 5-7zm0 0" fill="#455b2f"/><path d="M228 30h12c0-2-2-5-5-5-2 0-4 3-7 5zm7 2c-2 0-4 0-7-2 0 0 3-5 7-5 3 0 5 0 7 5l-7 2zm0 0" fill="#313328"/><path d="M256 23c-5-2-9 7-9 7 2 2 7 2 9 2 2-2 2-4 0-9zm0 0" fill="#455b2f"/><path d="M249 30l7 2 7-2c-2-5-5-7-7-7-5 0-7 5-7 7zm7 2c-5 0-7 0-9-2 0-2 4-7 9-7 2 0 5 2 7 7l-7 2zm0 0" fill="#313328"/><path d="M274 23c-4-5-9 5-9 5l7 2c2-2 2-5 2-7zm0 0" fill="#455b2f"/><path d="M265 28l9 2h3c0-5-3-7-5-7s-4 2-7 5zm9 2c-2 0-6 0-9-2 0 0 3-7 7-7 2 0 5 2 7 9h-5zm0 0" fill="#313328"/><path d="M286 28c0 2 2 2 5 4l4-7c-4-4-9 3-9 3zm0 0" fill="#455b2f"/><path d="M286 28c2 2 7 2 9 2h2c-2-5-4-5-6-5-3 0-5 3-5 3zm9 4c-4 0-9 0-11-4 2 0 4-5 7-5 4 0 6 2 6 9h-2zm0 0" fill="#313328"/><path d="M314 28c-3-10-10 2-10 2l3 2c4 0 7-2 7-4zm0 0" fill="#455b2f"/><path d="M304 30c3 2 7 2 10 2h2c-2-4-2-7-5-7-4 0-7 3-7 5zm10 4c-5 0-10-2-12-4 2-2 5-7 9-7 3 0 5 5 5 9v2h-2zm0 0" fill="#313328"/><path d="M332 30c-5-12-12 2-12 2 3 0 5 0 7 2l5-4zm0 0" fill="#455b2f"/><path d="M323 32l7 2 2-2c0-4-2-7-5-7-2 0-4 5-4 7zm7 2l-10-2v-2s5-5 7-5c3 0 5 3 7 7v2h-4zm0 0" fill="#313328"/><path d="M350 28c-4-5-11 4-11 4l4 2c5-2 5-4 7-6zm0 0" fill="#455b2f"/><path d="M341 32l7 2 5-2c-3-2-3-4-5-4-5 0-7 2-7 4zm7 2c-2 0-7 0-9-2v-2s4-5 9-5c2 0 5 3 5 7 0 2-3 2-5 2zm0 0" fill="#313328"/><path d="M366 28c-4-3-9 4-9 4s2 2 5 2c2 0 2-4 4-6zm0 0" fill="#455b2f"/><path d="M357 32c0 2 5 2 7 2s2 0 2-2l-2-4c-5 0-7 2-7 4zm7 5l-9-5v-2s4-2 9-2c2 0 2 2 5 4 0 2-3 5-5 5zm0 0" fill="#313328"/><path d="M380 28c-4-3-9 4-9 4 0 2 2 2 5 2 2 0 2-2 4-6zm0 0" fill="#455b2f"/><path d="M371 32c2 2 5 2 7 2h2c0-4 0-6-2-6l-7 4zm7 5l-7-3v-2s2-4 7-4c2 0 2 2 2 6 0 0 0 3-2 3zm0 0" fill="#313328"/><path d="M385 32c0 2 2 5 4 5 3-3 3-5 3-7-3-2-7 2-7 2zm0 0" fill="#455b2f"/><path d="M385 34c2 0 4 3 7 3 2 0 2 0 2-3 0-2 0-4-2-4-3 0-5 2-7 4zm7 3c-3 0-7-3-7-3v-2s4-4 7-4c2 0 2 2 2 6 0 3 0 3-2 3zm0 0" fill="#313328"/><path d="M401 34c0 3 2 3 4 5 3-2 3-5 3-7-3-4-7 2-7 2zm0 0" fill="#455b2f"/><path d="M401 34c0 3 4 3 7 3v-5h-3l-4 2zm9 5h-2c-5 0-7-2-7-5 0 0 2-4 4-4 0 0 3 0 3 2 2 2 2 2 2 7zm0 0" fill="#313328"/><path d="M412 37c3 2 5 2 7 2 3 0 5-5 3-7-3-2-10 5-10 5zm0 0" fill="#455b2f"/><path d="M412 37c3 2 5 2 7 2h5c0-2 0-5-2-7-5 0-7 5-10 5zm7 4l-7-4s5-5 10-5h2v7s-2 2-5 2zm0 0" fill="#313328"/><path d="M440 34c-2 3-7 5-7 5 0 2 2 5 5 5 2-3 2-5 2-10zm0 0" fill="#455b2f"/><path d="M433 39c0 2 5 5 7 5h2c3-5 3-7 0-7 0 0 0-3-2-3s-7 5-7 5zm7 5c-2 0-7 0-9-3v-2l9-5c2 0 2 0 2 3 3 0 3 2 3 7h-5zm0 0" fill="#313328"/><path d="M454 39c-3 0-5 5-5 5s2 2 5 2c2-2 2-5 0-7zm0 0" fill="#455b2f"/><path d="M449 44l7 2v-7h-2l-5 5zm7 2c-2 0-7 0-7-2 0 0 2-5 5-5h2l2 7zm0 0" fill="#313328"/><path d="M470 41c-3 0-7 5-7 5 0 2 4 2 7 2v-7zm0 0" fill="#455b2f"/><path d="M463 46c0 2 4 2 9 2 0-4 0-7-2-7s-7 5-7 5zm11 5h-4c-3-3-7-3-9-5 0 0 4-5 9-5 2 0 4 3 4 10zm0 0" fill="#313328"/><path d="M484 48c-3 0-7 3-7 3s2 2 4 2c3-2 3-2 3-5zm0 0" fill="#455b2f"/><path d="M477 51l7 2c2-2 0-5 0-5-3 0-5 0-7 3zm7 4c-5-2-7-2-7-4v-3h7c2 0 2 3 2 7zm0 0" fill="#313328"/><path d="M495 53c-2-2-7 2-7 2l7 5v-7zm0 0" fill="#455b2f"/><path d="M488 55c2 2 5 5 9 5v-7h-2c-2 0-5 0-7 2zm9 7c-4-2-9-5-9-7v-2l7-2s2 0 2 2v9zm0 0" fill="#313328"/><path d="M507 60c-3-3-7 2-7 2s2 2 4 2c3 0 3-2 3-4zm0 0" fill="#455b2f"/><path d="M500 62l7 5v-7h-3s-4 0-4 2zm7 5l-7-5v-2s2-3 4-3c3 0 3 3 3 3 2 0 2 2 0 7zm0 0" fill="#313328"/><path d="M507 67l6 7c3-3 3-5 3-7-3-3-9 0-9 0zm0 0" fill="#455b2f"/><path d="M509 67c0 2 2 4 7 7 2-3 2-5 2-7h-9zm7 7c-5 0-9-5-9-7l6-3c3 0 5 0 5 3 0 2 0 4-2 7zm0 0" fill="#313328"/><path d="M527 76c-4-2-9 0-9 0 0 2 2 4 5 7l4-7zm0 0" fill="#455b2f"/><path d="M518 76c2 2 2 4 7 7l2-7h-9zm7 7c-5-3-7-3-7-7 0 0 2-2 5-2 4 0 4 2 7 2 0 2-3 4-5 7zm0 0" fill="#313328"/><path d="M532 87l-7-2c0 2 0 5 2 9 3-2 5-4 5-7zm0 0" fill="#455b2f"/><path d="M525 87c0 3 2 5 5 7l4-4c0-3-7-3-9-3zm5 10c-5-5-5-7-5-12 0 0 9 0 9 5 2 2 0 4-4 7zm0 0" fill="#313328"/><path d="M536 101c0-2-6-2-6-2v7c4 0 6-3 6-5zm0 0" fill="#455b2f"/><path d="M532 99c-2 2-2 4 0 7v2c4-2 4-5 4-7l-4-2zm-2 9V97h2s7 2 7 4-3 5-7 7zm0 0" fill="#313328"/><path d="M534 115l-4-2c0 2-3 4-3 4 3 0 5 0 7-2zm0 0" fill="#455b2f"/><path d="M530 113v2c-3 2-3 2-3 5 3 0 5 0 7-3 0-2-2-2-4-4zm-3 9c0-5 0-5 3-9v-3 3c4 0 4 2 4 4 0 3-7 5-7 5zm0 0" fill="#313328"/><path d="M527 124c-2-2-4 2-7 7 5-2 7-5 7-7zm0 0" fill="#455b2f"/><path d="M527 124c-4 0-4 5-4 7 0 0 4 0 4-2v-5zm-7 9c0-4 3-9 7-9 3 2 3 2 3 5l-10 4zm0 0" fill="#313328"/><path d="M150 51s14-12 33-3c0 0-5 7-12 9-9 3-21-6-21-6zm0 0" fill="#8eba2e"/><path d="M143 60c3-7 12-12 21-14 9 0 21 5 19 11-3 5-10-6-17 0-4 3-18 5-23 3zm0 0" fill="#9ec228"/><path d="M148 51s7-7 18-7c12 0 17 4 17 4-19-7-35 3-35 3zm0 0" fill="#4a6030"/><path d="M132 32s0 2-2 2c-3 0-3-2-3-2 0-2 0-4 3-4 2 0 2 2 2 4zm34 2s0 3-2 3-2-3-2-3c0-2 0-2 2-2s2 0 2 2zm0 0" fill="#fefefe"/></svg>