<svg xmlns="http://www.w3.org/2000/svg" width="272" height="267" viewBox="0 0 204 200"><path d="M198 38c11 19 6 45-11 56-18 12-85 35-96 15s38-75 56-86c17-12 40-5 51 15zm0 0" fill="#e94b7d"/><path d="M184 47c6 9 3 22-5 27-9 6-41 17-46 7-6-9 18-36 26-41 9-6 20-3 25 7zm0 0" fill="#ef83aa"/><path d="M198 179c-10 20-33 27-51 16-17-12-67-66-56-86s78 2 95 13c18 12 23 37 12 57zm0 0" fill="#e94b7d"/><path d="M183 170c-6 10-17 14-26 8s-35-34-30-44c6-10 41 1 50 7s12 19 6 29zm0 0" fill="#ef83aa"/><path d="M6 38C-5 57 0 83 17 94c18 12 85 35 96 15S75 34 57 23C40 11 17 18 6 38zm0 0" fill="#e94b7d"/><path d="M20 47c-6 9-3 22 5 27 9 6 41 17 46 7 6-9-18-36-26-41-9-6-20-3-25 7zm0 0" fill="#ef83aa"/><path d="M6 179c10 20 33 27 51 16 17-12 67-66 56-86s-78 2-95 13C0 134-5 159 6 179zm0 0" fill="#e94b7d"/><path d="M21 170c6 10 17 14 27 8 8-6 34-34 29-44-6-10-41 1-50 7s-12 19-6 29zm0 0" fill="#ef83aa"/><path d="M102 58l4-17a87 87 0 0 1 32-41 272 272 0 0 0-36 58zm0 0a238 238 0 0 0-25-44L66 0l14 11 10 14 8 16a65 65 0 0 1 4 17zm0 0" fill="#3c3733"/><path d="M104 51l3 8 2 9 2 17a295 295 0 0 1-3 85l-2 8-3 8-1 1-1-1-3-8-2-9a190 190 0 0 1-5-50c0-12 0-23 2-34l2-17 2-9 3-8 3-2 1 2zm0 0" fill="#b22b40"/></svg>