<svg xmlns="http://www.w3.org/2000/svg" width="312" height="267" viewBox="0 0 234 200"><defs><linearGradient id="a" gradientUnits="userSpaceOnUse" x1="118" y1="114" x2="99" y2="111" gradientTransform="matrix(1.53301 0 0 1.53846 0 0)"><stop offset="0" stop-color="#663624"/><stop offset="1" stop-color="#482d1f"/></linearGradient><radialGradient id="b" gradientUnits="userSpaceOnUse" cx="125" cy="110" fx="125" fy="110" r="25" gradientTransform="matrix(-.14974 -.70154 -1.70977 .33731 399 220)"><stop offset="0" stop-color="#8d5442"/><stop offset="1" stop-color="#663624"/></radialGradient><linearGradient id="c" gradientUnits="userSpaceOnUse" x1="123" y1="123" x2="94" y2="101" gradientTransform="matrix(1.53301 0 0 1.53846 0 0)"><stop offset="0" stop-color="#663624"/><stop offset="1" stop-color="#40281e"/></linearGradient><linearGradient id="d" gradientUnits="userSpaceOnUse" x1="37" y1="123" x2="37" y2="105" gradientTransform="matrix(1.53301 0 0 1.53846 0 0)"><stop offset="0" stop-color="#663624"/><stop offset="1" stop-color="#482d1f"/></linearGradient><radialGradient id="e" gradientUnits="userSpaceOnUse" cx="67" cy="118" fx="67" fy="118" r="28" gradientTransform="matrix(-.01929 -.4925 -1.5774 .06013 290 206)"><stop offset="0" stop-color="#7d4330"/><stop offset="1" stop-color="#603424"/></radialGradient><linearGradient id="f" gradientUnits="userSpaceOnUse" x1="45" y1="128" x2="41" y2="108" gradientTransform="matrix(1.53301 0 0 1.53846 0 0)"><stop offset="0" stop-color="#663624"/><stop offset="1" stop-color="#40281e"/></linearGradient><radialGradient id="g" gradientUnits="userSpaceOnUse" cx="57" cy="24" fx="57" fy="24" r="177" gradientTransform="matrix(-.33597 -1.15611 -2.30722 .61157 161 88)"><stop offset="0" stop-color="#9b603f"/><stop offset="1" stop-color="#663624"/></radialGradient><linearGradient id="h" gradientUnits="userSpaceOnUse" x1="55" y1="1" x2="59" y2="50" gradientTransform="matrix(1.53301 0 0 1.53846 0 0)"><stop offset="0" stop-color="#ba865e"/><stop offset="1" stop-color="#724433"/></linearGradient><linearGradient id="i" gradientUnits="userSpaceOnUse" x1="96" y1="7" x2="97" y2="30" gradientTransform="matrix(1.53301 0 0 1.53846 0 0)"><stop offset="0" stop-color="#ba865e"/><stop offset="1" stop-color="#724433"/></linearGradient><linearGradient id="j" gradientUnits="userSpaceOnUse" x1="135" y1="24" x2="136" y2="58" gradientTransform="matrix(1.53301 0 0 1.53846 0 0)"><stop offset="0" stop-color="#7a442d"/><stop offset="1" stop-color="#663624"/></linearGradient><linearGradient id="k" gradientUnits="userSpaceOnUse" x1="101" y1="86" x2="86" y2="73" gradientTransform="matrix(1.53301 0 0 1.53846 0 0)"><stop offset="0" stop-color="#663624"/><stop offset="1" stop-color="#482d1f"/></linearGradient><linearGradient id="l" gradientUnits="userSpaceOnUse" x1="16" y1="73" x2="-11" y2="75" gradientTransform="matrix(1.53301 0 0 1.53846 0 0)"><stop offset="0" stop-color="#663624"/><stop offset="1" stop-color="#482d1f"/></linearGradient><linearGradient id="m" gradientUnits="userSpaceOnUse" x1="71" y1="64" x2="73" y2="101" gradientTransform="matrix(1.53301 0 0 1.53846 0 0)"><stop offset="0" stop-color="#663624"/><stop offset="1" stop-color="#482d1f"/></linearGradient><linearGradient id="n" gradientUnits="userSpaceOnUse" x1="41" y1="48" x2="41" y2="-7" gradientTransform="matrix(1.53301 0 0 1.53846 0 0)"><stop offset="0" stop-color="#9b603f"/><stop offset="1" stop-color="#663624"/></linearGradient><linearGradient id="o" gradientUnits="userSpaceOnUse" x1="83" y1="32" x2="97" y2="14" gradientTransform="matrix(1.53301 0 0 1.53846 0 0)"><stop offset="0" stop-color="#40281e"/><stop offset="1" stop-color="#26201c"/></linearGradient><radialGradient id="p" gradientUnits="userSpaceOnUse" cx="96" cy="97" fx="96" fy="97" r="50" gradientTransform="matrix(-.35388 -1.89414 -1.19955 .23046 298 309)"><stop offset="0" stop-color="#7d4634"/><stop offset="1" stop-color="#663624"/></radialGradient><radialGradient id="q" gradientUnits="userSpaceOnUse" cx="95" cy="97" fx="95" fy="97" r="45" gradientTransform="matrix(-.35985 -2.18402 -1.2198 .26573 299 331)"><stop offset="0" stop-color="#7d4634"/><stop offset="1" stop-color="#663624"/></radialGradient><linearGradient id="r" gradientUnits="userSpaceOnUse" x1="99" y1="126" x2="78" y2="129" gradientTransform="matrix(1.53301 0 0 1.53846 0 0)"><stop offset="0" stop-color="#663624"/><stop offset="1" stop-color="#482d1f"/></linearGradient><radialGradient id="s" gradientUnits="userSpaceOnUse" cx="99" cy="117" fx="99" fy="117" r="31" gradientTransform="matrix(-.15775 -.70188 -1.6736 .34437 365 211)"><stop offset="0" stop-color="#8d5442"/><stop offset="1" stop-color="#663624"/></radialGradient><linearGradient id="t" gradientUnits="userSpaceOnUse" x1="108" y1="96" x2="108" y2="130" gradientTransform="matrix(1.53301 0 0 1.53846 0 0)"><stop offset="0" stop-color="#663624"/><stop offset="1" stop-color="#482d1f"/></linearGradient><linearGradient id="u" gradientUnits="userSpaceOnUse" x1="17" y1="77" x2="45" y2="80" gradientTransform="matrix(1.53301 0 0 1.53846 0 0)"><stop offset="0" stop-color="#663624"/><stop offset="1" stop-color="#482d1f"/></linearGradient><linearGradient id="v" gradientUnits="userSpaceOnUse" x1="14" y1="128" x2="-3" y2="128" gradientTransform="matrix(1.53301 0 0 1.53846 0 0)"><stop offset="0" stop-color="#663624"/><stop offset="1" stop-color="#482d1f"/></linearGradient><radialGradient id="w" gradientUnits="userSpaceOnUse" cx="11" cy="120" fx="11" fy="120" r="34" gradientTransform="matrix(.03219 -.66025 -1.5689 -.07043 206 200)"><stop offset="0" stop-color="#8d5442"/><stop offset="1" stop-color="#663624"/></radialGradient><radialGradient id="x" gradientUnits="userSpaceOnUse" cx="97" cy="21" fx="97" fy="21" r="31" gradientTransform="matrix(.28886 -.5136 -1.87641 -.42052 160 91)"><stop offset="0" stop-color="#a9785e"/><stop offset="1" stop-color="#663624"/></radialGradient><linearGradient id="y" gradientUnits="userSpaceOnUse" x1="103" y1="20" x2="103" y2="23" gradientTransform="matrix(1.53301 0 0 1.53846 0 0)"><stop offset="0" stop-color="#f1aca6"/><stop offset="1" stop-color="#724433"/></linearGradient><linearGradient id="z" gradientUnits="userSpaceOnUse" x1="84" y1="31" x2="90" y2="24" gradientTransform="matrix(1.53301 0 0 1.53846 0 0)"><stop offset="0" stop-color="#663624"/><stop offset="1" stop-color="#3d261e"/></linearGradient><linearGradient id="A" gradientUnits="userSpaceOnUse" x1="84" y1="31" x2="89" y2="24" gradientTransform="matrix(1.53301 0 0 1.53846 0 0)"><stop offset="0" stop-color="#5f2f20"/><stop offset="1" stop-color="#37241e"/></linearGradient><radialGradient id="B" gradientUnits="userSpaceOnUse" cx="129" cy="3" fx="129" fy="3" r="14" gradientTransform="matrix(-1.27834 -1.05123 1.48577 -1.94134 359 146)"><stop offset="0" stop-color="#a9785e"/><stop offset="1" stop-color="#663624"/></radialGradient><linearGradient id="C" gradientUnits="userSpaceOnUse" x1="126" y1="5" x2="129" y2="7" gradientTransform="matrix(1.53301 0 0 1.53846 0 0)"><stop offset="0" stop-color="#f1aca6"/><stop offset="1" stop-color="#724433"/></linearGradient><linearGradient id="D" gradientUnits="userSpaceOnUse" x1="142" y1="7" x2="136" y2="6" gradientTransform="matrix(1.53301 0 0 1.53846 0 0)"><stop offset="0" stop-color="#663624"/><stop offset="1" stop-color="#3d261e"/></linearGradient><linearGradient id="E" gradientUnits="userSpaceOnUse" x1="142" y1="7" x2="136" y2="6" gradientTransform="matrix(1.53301 0 0 1.53846 0 0)"><stop offset="0" stop-color="#5f2f20"/><stop offset="1" stop-color="#37241e"/></linearGradient><radialGradient id="F" gradientUnits="userSpaceOnUse" cx="134" cy="43" fx="134" fy="43" r="51" gradientTransform="matrix(1.32638 -.758 -1.06967 -1.87162 74 249)"><stop offset="0" stop-color="#ebc097"/><stop offset="1" stop-color="#663624"/></radialGradient><radialGradient id="G" gradientUnits="userSpaceOnUse" cx="111" cy="46" fx="111" fy="46" r="17" gradientTransform="matrix(-1.46742 -1.59083 -1.15854 1.0533 387 198)"><stop offset="0" stop-color="#84483c"/><stop offset="1" stop-color="#663624"/></radialGradient><radialGradient id="H" gradientUnits="userSpaceOnUse" cx="113" cy="18" fx="113" fy="18" r="48" gradientTransform="matrix(2.03017 -1.15171 -.38724 -.62623 -49 169)"><stop offset="0" stop-color="#a9785e"/><stop offset="1" stop-color="#663624"/></radialGradient><radialGradient id="I" gradientUnits="userSpaceOnUse" cx="142" cy="24" fx="142" fy="24" r="18" gradientTransform="matrix(-.547 -1.99385 -1.05712 .3361 322 312)"><stop offset="0" stop-color="#84483c"/><stop offset="1" stop-color="#663624"/></radialGradient><linearGradient id="J" gradientUnits="userSpaceOnUse" x1="123" y1="11" x2="125" y2="18" gradientTransform="matrix(1.53301 0 0 1.53846 0 0)"><stop offset="0" stop-color="#f1aca6"/><stop offset="1" stop-color="#724433"/></linearGradient><linearGradient id="K" gradientUnits="userSpaceOnUse" x1="133" y1="57" x2="130" y2="74" gradientTransform="matrix(1.53301 0 0 1.53846 0 0)"><stop offset="0" stop-color="#663624"/><stop offset="1" stop-color="#482d1f"/></linearGradient><linearGradient id="L" gradientUnits="userSpaceOnUse" x1="139" y1="18" x2="148" y2="17" gradientTransform="matrix(1.53301 0 0 1.53846 0 0)"><stop offset="0" stop-color="#663624"/><stop offset="1" stop-color="#482d1f"/></linearGradient><linearGradient id="M" gradientUnits="userSpaceOnUse" x1="112" y1="34" x2="110" y2="30" gradientTransform="matrix(1.53301 0 0 1.53846 0 0)"><stop offset="0" stop-color="#663624"/><stop offset="1" stop-color="#3d261e"/></linearGradient><linearGradient id="N" gradientUnits="userSpaceOnUse" x1="129" y1="25" x2="126" y2="21" gradientTransform="matrix(1.53301 0 0 1.53846 0 0)"><stop offset="0" stop-color="#663624"/><stop offset="1" stop-color="#3d261e"/></linearGradient><linearGradient id="O" gradientUnits="userSpaceOnUse" x1="133" y1="32" x2="138" y2="30" gradientTransform="matrix(1.53301 0 0 1.53846 0 0)"><stop offset="0" stop-color="#4a484a"/><stop offset="1" stop-color="#1d1b19"/></linearGradient><linearGradient id="P" gradientUnits="userSpaceOnUse" x1="118" y1="40" x2="125" y2="37" gradientTransform="matrix(1.53301 0 0 1.53846 0 0)"><stop offset="0" stop-color="#4a484a"/><stop offset="1" stop-color="#1d1b19"/></linearGradient><linearGradient id="Q" gradientUnits="userSpaceOnUse" x1="154" y1="31" x2="151" y2="52" gradientTransform="matrix(1.53301 0 0 1.53846 0 0)"><stop offset="0" stop-color="#c58961"/><stop offset="1" stop-color="#ebc097"/></linearGradient><linearGradient id="R" gradientUnits="userSpaceOnUse" x1="153" y1="43" x2="153" y2="47" gradientTransform="matrix(1.53301 0 0 1.53846 0 0)"><stop offset="0" stop-color="#c58961"/><stop offset="1" stop-color="#ebc097"/></linearGradient><linearGradient id="S" gradientUnits="userSpaceOnUse" x1="146" y1="38" x2="146" y2="42" gradientTransform="matrix(1.53301 0 0 1.53846 0 0)"><stop offset="0" stop-color="#f5dfcc"/><stop offset="1" stop-color="#ebc097"/></linearGradient><linearGradient id="T" gradientUnits="userSpaceOnUse" x1="146" y1="50" x2="145" y2="62" gradientTransform="matrix(1.53301 0 0 1.53846 0 0)"><stop offset="0" stop-color="#c58961"/><stop offset="1" stop-color="#ebc097"/></linearGradient><linearGradient id="U" gradientUnits="userSpaceOnUse" x1="133" y1="54" x2="132" y2="60" gradientTransform="matrix(1.53301 0 0 1.53846 0 0)"><stop offset="0" stop-color="#9b633e"/><stop offset="1" stop-color="#c19267"/></linearGradient><linearGradient id="V" gradientUnits="userSpaceOnUse" x1="151" y1="34" x2="153" y2="44" gradientTransform="matrix(1.53301 0 0 1.53846 0 0)"><stop offset="0" stop-color="#4a484a"/><stop offset="1" stop-color="#1d1b19"/></linearGradient><linearGradient id="W" gradientUnits="userSpaceOnUse" x1="141" y1="41" x2="141" y2="39" gradientTransform="matrix(1.53301 0 0 1.53846 0 0)"><stop offset="0" stop-color="#4a484a"/><stop offset="1" stop-color="#adacb1"/></linearGradient><linearGradient id="X" gradientUnits="userSpaceOnUse" x1="147" y1="36" x2="147" y2="37" gradientTransform="matrix(1.53301 0 0 1.53846 0 0)"><stop offset="0" stop-color="#fefefe"/><stop offset="1" stop-color="#adacb1"/></linearGradient></defs><path d="M175 178s-3-1-4-6c-2-3-3-12-6-17-2-4-5-9-7-10l13-27 36-36v3l-6 12c-3 6-1 11-1 18 0 5 0 11-2 16-1 14-4 29-1 32l6 8s3 6-5 7c-7 2-15 0-17 0zm0 0" fill-rule="evenodd" fill="url(#a)"/><path d="M197 163c-2 0-3 0-5 2-8 1-12 4-12 7 1 3 8 3 14 3l9-4-6-8zm0 0" fill-rule="evenodd" fill="url(#b)"/><path d="M174 166c-2-8-5-23-2-29 3-5 17-28 22-29 4-2 6 4 6 9v-2c0-7-2-12 1-18l6-12v-3l-36 36s-14 27-13 27c2 1 5 6 7 10 3 5 4 14 6 17 1 5 4 6 4 6h6c2 0 7 2 14 0h-3c-9 0-17-4-18-12zm0 0" fill-rule="evenodd" fill="url(#c)"/><path d="M180 177l-5 1s6 5 8 4l-3-5zm17 0l-5 1 9 4c2-2-3-5-4-5zm6-3c0 3-2 4-2 4s8 2 8 0c2-1-6-4-6-4zm6 0c0-2-8-3-8-3l2 3s4 3 6 0zm0 0" fill="#f2d3b6"/><path d="M180 180s-2 0-2-2v-1l-3 1s6 5 8 4c-2 0-2 0-3-2zm18 0c-1 0-1-2-3-2v-1l-3 1 9 4v-2c0 2-3 0-3 0zm8-2s-3-1-3-3l-2 3s8 2 8 0h-3zm3-4h-5l-3-3 2 3s4 3 6 0zm0 0" fill="#c78e6e"/><path d="M86 188s-4 0-7-3l-6-8c-2-5-8-23-14-26-5-5 50-9 50-9s0 16-1 23l-5 12 8 5s3 1 3 4-3 3-6 2H92zm0 0" fill-rule="evenodd" fill="url(#d)"/><path d="M103 177c-7 0-14 1-14 5 0 1 7 3 14 3 3 0 6 0 9-2l-1-1-8-5zm0 0" fill-rule="evenodd" fill="url(#e)"/><path d="M109 142s-55 4-50 9c6 3 12 21 14 26l6 8c3 3 7 3 7 3h13s-11 0-16-5c-4-5-7-18-7-21 0-4 16-11 24-10 8 0 8 8 8 11l1-21zm0 0" fill-rule="evenodd" fill="url(#f)"/><path d="M86 188s2 3 5 3 1-3 1-3c-3-2-6 0-6 0zm20-2c-3 0-4 2-4 2l7 3c2-2-1-3-3-5zm6-1c2 1 0 3 0 3s8 1 8 0c0-2-8-3-8-3zm-3-3l3 1v2h5c0-3-8-3-8-3zm0 0" fill="#f2d3b6"/><path d="M89 189l-1-1h-2s2 3 5 3l1-2c-1 2-1 0-3 0zm17 0l-3-1h-1l7 3v-2c0 2-1 0-3 0zm14-3c-1 2-3 2-3 2-2 0-3 0-3-2 0 2-2 2-2 2s8 1 8 0v-2zm-8-1h5v-2h-6 1zm0 0" fill="#c78e6e"/><path d="M56 149s9 5 27 2l31-8 47-6s7 0 17-12c13-14 17-28 28-36 11-7-28-63-28-63l-12 2s-18-8-31-6c-12 1-21 10-29 10-6 0-27-12-53-4-25 9-39 30-43 44-3 11-3 39-3 39l10 20 16 17zm0 0" fill="#673625"/><path d="M105 94c38-11 69-29 84-51l-11-17-12 2s-18-8-31-6c-12 1-21 10-29 10-6 0-27-12-53-4-25 9-39 30-43 44-2 5-2 14-3 23 24 10 61 10 98-1zm0 0" fill-rule="evenodd" fill="url(#g)"/><path d="M23 51l5-2c-1 0-3 0-5 2zm4-3l6-2c-3 0-5 0-6 2zm3-3h6c-2-2-5-2-6 0zm3-3h9c-2-2-6-2-9 0zm4-4h11-11zm6-3l10 2c-2-2-7-3-10-2zm7-3l9 3-9-3zm6-1l7 3c-1-2-4-5-7-3zm7-2l5 5c0-3-3-5-5-5zm5 0l5 3-5-3zm6 0l2 3-2-3zm3 0l2 3c0-1-2-1-2-3zm3 2l2 1-2-1zm0 0" fill-rule="evenodd" fill="url(#h)"/><path d="M117 32h3-3zm3-3l6 2c-1-2-4-2-6-2zm6-1l6 1c-1-1-4-3-6-1zm5-3l4 1-4-1zm4-2l5 3c-2-1-3-3-5-3zm5 0l2 2-2-2zm3 0l2 2-2-2zm0 0" fill-rule="evenodd" fill="url(#i)"/><path d="M7 111l10 20 16 17 23 1s9 5 27 2l31-8 47-6s7 0 17-12c13-14 17-28 28-36 5-3 1-15-6-26l-22-5-21-3c-5 0-19 0-19 7 0 0-1-2-3-2 2 0 2 2 3 3l-4-1 4 6-9-3c2 1 2 4 2 6-2-3-2-5-5-5v6l-3-4-4 3 1-5c-1 0-6 2-8 5v-5c-1 0-3 3-3 5v-5c-3 3-6 5-6 11 0-2-1-5-3-5v6l-4-1 1 3c-1-2-1-2-3-2l-6 8v-4l-5 4c2-1 0-4-1-4l-2 3c0-5-4-5-7-7l1 4h-8c2 1 2 1 2 3-2 0-3-2-5-3-1 3-4 7-7 7v-3c-2 0-3 3-5 3 2-1 2-3 2-4-3 3-10 1-13 0 0 1 2 1 2 3-3 0-6-2-8-5l2 5c-3 0-11-5-11-10-2 2-2 4-2 5-3-3-3-6-3-9l-1 4c-2-4-2-10 0-13-2 0-3 1-5 3l5-10-6 5 3-3-6 12c-3 11-3 39-3 39zm0 0" fill-rule="evenodd" fill="url(#j)"/><path d="M178 125c13-14 17-28 28-36 5-3 1-14-5-24l-49 9s3 12 9 18c8 8 14 31 2 39l-8 7 6-1s7 0 17-12zm0 0" fill-rule="evenodd" fill="url(#k)"/><path d="M7 100l-2 3 2 5v-8zm0 0" fill-rule="evenodd" fill="url(#l)"/><path d="M74 132c-18 0-52 0-64-40l-3 8v8l6 14 4 9 16 17 23 1s9 5 27 2c16-5 25-8 29-8l-7-20s-14 9-31 9zm0 0" fill-rule="evenodd" fill="url(#m)"/><path d="M102 37l-8 11c9-11 29-22 37-26-11 3-19 10-25 10s-21-9-41-6c21-1 37 11 37 11zm0 0" fill-rule="evenodd" fill="url(#n)"/><path d="M103 129v13s-20 10-41 7c-22-3-35-15-35-15v6l6 8 23 1s9 5 27 2c16-3 25-8 29-8v-6l-9-8zm75-4c13-14 17-28 28-36l1-4-4 1c0 2-8 8-8 8l-14 23c-4 9-13 17-16 20l13-12zm0 0" fill="#3f281e"/><path d="M206 89c11-7-22-55-28-61h-1s-2 0-2 1h-1v2h-2l-1 1h-2v2h-1v1h-2v2h-5s-16-11-24-3c-8 9 3 23 12 28v12s0 1 2 1v3c3 11 15 20 29 20h11l3-1h3v-2h3c1-3 4-4 6-6zm0 0" fill-rule="evenodd" fill="url(#o)"/><path d="M146 191s-14 1-17-6c0 0-10-13-17-27-6-15-9-33-9-33s2-17 17-14c17 3 40 17 45 18 3 2 1 3-2 9-5 5-5 19-5 24v13s3 0 7 3l1 2v3l-3 3-2 2-6 1-3 2zm0 0" fill="#673625"/><path d="M142 122c-10 1-16 15-13 32 3 15 14 26 23 24 3 0 5-1 6-3v-13c0-5 0-19 5-24v-1c-5-11-14-17-21-15zm0 0" fill-rule="evenodd" fill="url(#p)"/><path d="M135 122v6c0 3 0 4 2 6-2 0-2-2-3-2l3 8c-2 0-3-2-3-2 1 2 1 5 3 7h-3c0 1 1 3 4 4l-4 2 4 1-3 3c3 2 3 3 5 7-2 0-2-2-3-2 1 3 1 6 6 5l-1 1c1 2 3 3 3 5-2 0-3-2-3 0v3c0 1-5 0-5-2-6-1-11-7-12-12-6-11-10-35 6-40zm0 0" fill-rule="evenodd" fill="url(#q)"/><path d="M137 180c-2 0-5-2-5-3 2 0 3 0 5-2-5 2-6-3-8-6 2 0 3 0 3 2-1-5-3-6-6-9 2 0 3 0 5-2-5 0-6-3-8-6h5c-3-2-6-2-8-5l6-1c-3 0-4-3-4-6l4 1c-6-5-4-14-11-17l5-1c-3-3-6-5-12-3 1-2 3-5 6-5-5 0-9 3-11 8a112 112 0 0 0 26 60c3 7 17 6 17 6-3-2-15-8-9-11zm0 0" fill-rule="evenodd" fill="url(#r)"/><path d="M166 180l-1-2c-4-3-7-3-7-3v-1h-7c-8 3-14 6-13 11 0 3 8 4 16 3 6-2 9-3 12-6zm0 0" fill-rule="evenodd" fill="url(#s)"/><path d="M158 162c0-5 0-19 5-24l2-4c-5 4-7 11-8 18 0 10-3 20-3 22-8 1-12 4-12 4 10-3 16-3 18-3h-2v-13zm0 0" fill-rule="evenodd" fill="url(#t)"/><path d="M138 189c-6-3-6-7-6-7a93 93 0 0 1-27-51c0 6 3 17 7 27 7 14 17 27 17 27 3 7 17 6 17 6h6c2 0 3-2 3-2l5-1c-5 1-14 3-22 1zm0 0" fill="#482d1f"/><path d="M146 191l5 3c3 0 6 0 3-2-2-3-5-3-8-1zm9-2l6 2c2 1 5 0 4-2-2-1-4-4-10 0zm11-6l-3 3c5 2 8 3 9 2 0-2-6-5-6-5zm5-1c0-4-6-4-6-4l1 4h5zm0 0" fill="#f2d3b6"/><path d="M163 191s0-2-2-2l-3-1-3 1 6 2c2 1 5 0 4-2 0 0 0 2-2 2zm8-9v-2c-2 0-2 0-2 2l-1-2h-2v2h5zm-20 10s-2 0-2-1v-2c-1 2-3 2-3 2l5 3c1 0 4 0 4-2h-4zm20-6c0 2-2 0-3 0l-3-1v-2c0 2-2 3-2 3 5 2 8 3 9 2l-1-2zm0 0" fill="#c78e6e"/><path d="M2 185s-2 4 2 7 9 3 12 3h11c3-1 7-3 7-6l-1-3s-2-1-2-3c0 0-1-5 5-8 6-4 14-12 17-21l3-5s-16-3-26-14l-10-17c-4-4-10-26-10-47 0 0-10 18-8 41 0 23 3 28 2 37-4 11-5 19-2 28 0 0 2 5 0 8zm0 0" fill="#673625"/><path d="M36 175c6-4 14-12 17-21l3-5s-16-3-26-14l-10-17c-1-1-3-3-3-6-1 5 2 10 3 11l-3-1 6 9c-1-2-1 0-3-2l7 6c1 2 1 5 3 7-2 0-3-2-5-4 0 5 3 8 5 11-2-1-3-1-3-3 0 5 3 8 6 12l-5-1c2 1 5 3 5 6l-3-1 1 6c-1 0-1-2-3-2 5 3-8 11-9 12h6c2 2 3 4 6 4 0-2 2-4 5-7zm0 0" fill-rule="evenodd" fill="url(#u)"/><path d="M7 183c0-3 3-6 6-8h-3c1-3 3-3 4-4-1 0-3-3-3-5h3c-3 0-4-4-4-8l3 2-2-6h3c0-2-1-3-3-3 2-2 3-2 5-2-5-3-3-4-5-9 2 0 3 2 3 2 0-4-1-5-3-8 2 0 3-2 3-2-1 0-4-1-4-4h3c-5 0-5-6-6-11 1 1 3 1 3 3l-2-9c2 0 3 1 3 3 0-6-4-11-4-17l3 5c0-10-3-17-2-27-3 7-6 20-6 37 0 23 3 28 2 37-4 11-5 19-2 28 0 0 2 5 0 8 0 0-2 4 2 7l9 3v-1c-3-3-6-6-6-11zm0 0" fill-rule="evenodd" fill="url(#v)"/><path d="M2 185c0 3 8 6 15 6 8 1 16-2 16-5 0 0-2-1-2-3v-1c-3-2-8-4-12-4-9-1-17 2-17 7zm0 0" fill-rule="evenodd" fill="url(#w)"/><path d="M4 169l3-27c1-5-2-16-3-28 0-11 0-26 6-42v-1S0 89 2 112c0 23 3 28 2 37-4 11-5 19-2 28 0 0 2 5 0 8 0 0-2 3 2 6l1-6c3-5-1-10-1-16zm29 17l-2-3s-1-5 5-8c6-4 14-12 17-21l3-5s-16-3-26-14l-10-17c-1-1-3-4-4-9 0 5 1 8 3 11l14 20c6 8 18 12 13 23-4 9-18 11-18 11l-1 6-10-2c16 2 16 8 16 8l1 2-1-2zm0 0" fill="#482d1f"/><path d="M8 191c-3-2-4 1-4 1s-2 5 1 5c3 1 5-2 5-2l-2-4zm9 1c-3 0-3 3-3 3s2 5 3 5c2 0 3-5 3-5s0-3-3-3zm13-1c-3 1-3 4-3 4 3 0 7 2 9 0l-6-4zm3-5l1 3s5 2 5 0l-6-3zm0 0" fill="#f2d3b6"/><path d="M36 189c-2 0-2-1-3-3l1 3s5 2 5 0h-3zm-28 2c2 3-1 6-3 6 3 1 5-2 5-2l-2-4zm11 1v3c0 2 0 3-2 5 2 0 3-5 3-5l-1-3zm15 2h-3c-1 0-4 0-3-2l-1 3c3 0 7 2 9 0l-2-1zm0 0" fill="#c78e6e"/><path d="M168 34h-5s-17-11-25-3c-7 7 4 21 13 27l1 7 8-5zm0 0" fill="#673625"/><path d="M166 35v-1h-3s-17-11-25-3c2 3 5 4 10 6 9 3 17 1 18-2zm0 0" fill-rule="evenodd" fill="url(#x)"/><path d="M143 29zm2 0l3 2c0-2-2-2-3-2zm3 0l3 2-3-2zm3 0l1 2-1-2zm1 0l2 3-2-3zm3 3v-1zm2 0zm0 0" fill-rule="evenodd" fill="url(#y)"/><path d="M138 40s2-5 8-3c6 1 8 8 11 9 3 2-3 11-3 11s-6-2-11-6c-5-3-6-9-5-11zm0 0" fill-rule="evenodd" fill="url(#z)"/><path d="M157 46c-3-1-5-8-11-9-6-2-8 3-8 3-1 2 0 5 4 9-2-1-2-4-2-4 2-3 5-2 6-2 3 3 3 6 5 9 1 3 1 5 3 5 1-3 4-9 3-11zm0 0" fill-rule="evenodd" fill="url(#A)"/><path d="M191 20l3-9s3-14 10-9c10 3 11 20 10 27l1 6-6-1zm0 0" fill="#673625"/><path d="M203 8c1-2 1-5 3-6h-2c-7-5-10 9-10 9v3c1 1 6 0 9-6zm0 0" fill-rule="evenodd" fill="url(#B)"/><path d="M201 0zm-1 2zm-2 0zm0 1zm-1 2l1 1-1-1zm0 3V6zm0 0zm0 0" fill-rule="evenodd" fill="url(#C)"/><path d="M209 9s-3-4-5-1c-3 3-1 9-1 12 0 2 8 8 8 8l1-8c2-5 0-9-3-11zm0 0" fill-rule="evenodd" fill="url(#D)"/><path d="M203 20c0-3-2-9 1-12 2-3 5 1 5 1 2 2 3 5 3 8l-1-5c-2 0-4 0-4 2-1 3 2 6 2 9 2 3 2 5 0 5-2-2-6-6-6-8zm0 0" fill-rule="evenodd" fill="url(#E)"/><path d="M212 85s-12 12-29 10c-15 0-28-9-31-20-1-7-1-24 9-37 13-13 27-20 39-18 11 2 12 8 20 11 7 3 14 12 7 26zm0 0" fill="#673625"/><path d="M226 60l-3-6c-8-14-23-22-34-16-11 7-12 24-5 37 5 8 11 14 17 17l11-7zm0 0" fill-rule="evenodd" fill="url(#F)"/><path d="M163 62c-5 3-3 9 2 13 4 7 10 8 13 3 5-3 3-9-1-13-5-5-11-7-14-3zm0 0" fill-rule="evenodd" fill="url(#G)"/><path d="M198 20c-10-2-24 5-37 18l-4 7c6-2 14-5 21-10 10-4 17-10 20-15zm0 0" fill-rule="evenodd" fill="url(#H)"/><path d="M214 38c1 7 4 11 9 10 3-2 4-6 3-13l-2-1-4-3-6-3c-2 1-2 6 0 10zm0 0" fill-rule="evenodd" fill="url(#I)"/><path d="M169 34h-1zm0-2zm2-1h4-4zm3-2h0zm1-1h5c0-2-3-2-5 0zm3-3l3 1-3-1zm3 0h3s-1-2-3 0zm3-2zm2 0zm2-1h1-1zm0 0" fill-rule="evenodd" fill="url(#J)"/><path d="M194 92v-3c-2 3-8 3-11 3 1-1 1-3 3-3h-6l3-1c-3 1-9 3-11 0 2 0 2-2 3-2l-9-1 2-2-5-1c2 0 3 0 5-2l-10-2 5-1c-3 0-6-2-9-5l6 2c-5-2-8-5-9-11l1 12c3 11 16 20 31 20 14 2 26-7 28-9v-1c-5 3-11 7-17 7zm0 0" fill-rule="evenodd" fill="url(#K)"/><path d="M220 31c-2 0-2-2-3-2 3 2 3 5 4 6v-1c2 1 2 4 2 6l3-3v8s1 0 1-2l-1 6 3-1c-2 1-2 3-3 6 1-2 1-2 3-2l-3 6v2l1-3c7-14 0-23-7-26zm0 0" fill-rule="evenodd" fill="url(#L)"/><path d="M171 92c-14-4-19-20-20-23l1 6c3 11 16 20 31 20 17 2 29-10 29-10l-3 1c-12 9-23 11-38 6zm52-60l4 6c3 5 2 13 2 14 3-9-2-15-6-20zm0 0" fill="#3f281e"/><path d="M186 68c8-2 9-10 9-14l-20 8s3 7 11 6zm23-30c-3-3-3 10-3 10v4l3-1s3-9 0-13zm0 0" fill="#673625"/><path d="M174 55s-3-10 4-15c6-5 16 6 16 9zm0 0" fill-rule="evenodd" fill="url(#M)"/><path d="M198 43s-3-12 0-15c5-2 9 4 11 9zm0 0" fill-rule="evenodd" fill="url(#N)"/><path d="M204 31c-3 0-6 4-6 11h3c2 0 6 7 8 10 0-3 2-4 2-9 0-6-4-12-7-12zm0 0" fill="#1d1b19"/><path d="M209 37l2-2-2 3zm0 0" fill="#1d1b19"/><path d="M204 55s-4-4-4-12c-2-8 1-11 4-11 2 0 7 5 7 13-2 6-4 9-7 10zm0 0" fill="#fefefe"/><path d="M200 43c0 3 1 6 4 6 2 0 3-3 3-7s-1-7-4-7c-2 0-3 3-3 8zm0 0" fill="#1d1b19"/><path d="M200 43v-5c1-1 3 0 4 4 2 1 2 6 0 7-3 0-4-3-4-6zm0 0" fill-rule="evenodd" fill="url(#O)"/><path d="M204 37v3c2 0 2 2 2 0v-3h-2zm0 0" fill="#a0d0af"/><path d="M201 29l-1-1-2 1s-1-1 0-1h2l1 1zm-24 14s0-1 1-1c0-2 2-2 2-2l1-2-3 2-1 3zm0 0" fill="#1d1b19"/><path d="M178 40h2v-2l-2 2zm0 0" fill="#7d98ad"/><path d="M195 54c0 8-6 12-11 12-6 0-10-4-10-12 0-6 4-11 10-11 5 0 11 5 11 11zm0 0" fill="#1d1b19"/><path d="M174 55h-5l5 2c3-2 1-2 1-2zm0 0" fill="#1d1b19"/><path d="M195 55c0 7-4 11-11 11-6 0-10-4-10-11 0-6 4-12 10-12s11 6 11 12zm0 0" fill="#fefefe"/><path d="M175 52c0 5 3 8 8 8 3 0 6-3 6-6 0-5-3-8-6-8s-6 3-8 6zm0 0" fill="#1d1b19"/><path d="M175 52l2-1s0-2 1-2c2-1 5 0 6 3 2 3 2 6-1 8-5 0-8-3-8-8zm0 0" fill-rule="evenodd" fill="url(#P)"/><path d="M178 57v1l2-1h-2zm0 0" fill="#7d98ad"/><path d="M184 48v3l4 1c0-1 0-3-2-3l-2-1zm0 0" fill="#a0d0af"/><path d="M232 58l-15-6-17-3c-3 2-5 5-5 11 0 5-3 8-3 11-1 4 3 12 12 14 8 3 13 0 13 0s4 0 7-3l2-7h1c3 0 5 0 3-3l2-4c2-2 3-6 0-10zm0 0" fill="#ebc097"/><path d="M192 71c-1 4 3 12 12 14 8 3 13 0 13 0s4 0 7-3l2-7h1c3 0 5 0 3-3l2-4c2-2 3-6 0-10-2 4-6 11-11 10-4-3-18-6-21-8l-5-5v5c0 5-3 8-3 11zm0 0" fill-rule="evenodd" fill="url(#Q)"/><path d="M214 66s4 8 10 8c6-2 8-11 8-14zm0 0" fill-rule="evenodd" fill="url(#R)"/><path d="M215 62l-15-7c-5 0-3-6 6-4 6 1 18 4 18 6zm0 0" fill-rule="evenodd" fill="url(#S)"/><path d="M204 85c8 3 13 0 13 0s4 0 7-3l2-7c-2 0-3 2-5 3-7 5-18 2-23-4 0 0 3 8 13 8h10c-1 1-4 3-12 3-11 0-17-8-17-13 0 3 5 11 12 13zm0 0" fill-rule="evenodd" fill="url(#T)"/><path d="M230 72v2l-1 1h-5l-3 3-4 2c-8 2-14-2-19-6v-2l-1 2h1c5 4 11 8 19 6 1 0 3 0 4-2 2 0 3-1 5-3h4c2-1 2-3 0-3zm-30 0zm0 0" fill-rule="evenodd" fill="url(#U)"/><path d="M214 65c-2-3 3-7 6-8 6-3 10-3 12 0s-2 11-6 12c-5 3-9 0-12-3v-1zm0 0" fill-rule="evenodd" fill="url(#V)"/><path d="M229 57s-2 3-5 3c-3 2-6 2-7 0 0 0 3-3 6-3 3-2 6-2 6 0zm0 0" fill-rule="evenodd" fill="url(#W)"/><path d="M224 57h-1-2 2c1-2 1-2 1 0zm0 0" fill-rule="evenodd" fill="url(#X)"/><path d="M214 66c3 3 7 6 12 3 4-1 8-7 6-12 0 6-3 9-6 11h-6c0-2-2-3-3-3h-3v1zm0 0" fill="#1d1b19"/></svg>