<svg height="133pt" viewBox="0 0 221 133" width="221pt" xmlns="http://www.w3.org/2000/svg"><path d="m179.86 30.32c-2.26 2.67-8.19 2.26-8.19 2.26l-5.33.4c2.05-.81 3.48-2.05 4.92-4.11 2.46-3.1.82-7.84.2-9.48-.82-1.66-5.73-3.93-5.73-3.93l1.24-.4c1.22-.42 5.51 1.64 11.45 4.33 6.14 2.47 3.47 8.24 1.44 10.93zm5.93-8.05c-.62-5.98-9-7.63-13.3-9.69s-12.69-2.47-16.37-2.68-5.32-.21-7.57 1.44c-2.46 1.44-1.22 3.3-.4 4.54 1.02 1.03 1.42 3.7 1.42 3.7l2.87-.81s-.21-.42-.82-2.7c-.4-2.05 1.43-2.25 1.43-2.25s3.69 0 5.12.4c1.42.21 4.5 3.1 7.37 4.96 2.85 2.06 3.26 2.88 3.88 4.95.82 1.85-1.03 3.71-3.08 5.35-2.04 1.86-5.72 1.45-5.72 1.45h-2.86v2.68h3.47c1.03 0 2.05-.2 2.87-.2v3.09s-.61.2 9.62-.82c10.22-1.04 12.89-7.23 12.07-13.41zm0 0" fill="#6a6f70"/><g fill="#cacdd3"><path d="m175.35 87.01.61-.2-9.4-32.58-.83.2zm0 0"/><path d="m177.19 86.2-.62.4-15.13-30.3.61-.42zm-1.84 4.53-.2-.62-32.33 9.48.2.63zm0 0"/><path d="m174.53 88.67.2.61-30.06 15.47-.2-.62zm4.51 2.06-.83.2 9.62 32.59.62-.2zm0 0"/><path d="m176.99 91.55.61-.4 15.13 30.3-.6.41zm2.05-4.54.2.63 32.32-9.5-.2-.6zm0 0"/><path d="m179.65 88.88-.2-.63 30.06-15.25.2.62zm-2.46-2.68.62.4 16.16-29.9-.61-.2zm0 0"/><path d="m179.04 87.01-.62-.2 10.43-32.17.61.22zm-4.51 1.87.2-.63-29.45-16.29-.41.63zm0 0"/><path d="m175.35 87.01-.2.63-32.12-10.72.4-.63zm1.84 4.54-.62-.4-16.16 29.69.62.41zm0 0"/><path d="m175.14 90.73.63.2-10.44 32.17-.62-.2zm4.51-1.85-.2.6 29.46 16.3.4-.62zm0 0"/><path d="m178.83 90.73.2-.62 32.12 10.72-.2.62zm-2.87-4.33.82.2 3.08-33.81-.82-.2zm0 0"/><path d="m178.21 86.4-.82.2-3.06-33.81.81-.2zm-3.47 3.5v-.62l-33.55-3.09v.62zm0 0"/><path d="m174.74 87.84v.62l-33.55 3.1v-.63zm3.47 3.51-.82-.2-3.06 33.8.81.21zm0 0"/><path d="m175.96 91.35.82-.2 3.08 33.8-.82.21zm3.48-3.51v.62l33.56 3.1v-.63zm0 0"/><path d="m179.44 89.9v-.62l33.56-3.08v.62zm-1.44-3.5.42.61 25.98-21.85-.4-.41zm0 0"/><path d="m179.44 87.84-.4-.41 21.48-25.98.6.4zm-4.7 0 .4-.41-21.48-25.98-.6.4zm0 0"/><path d="m176.17 86.4-.4.61-25.99-21.85.4-.41zm0 4.95-.4-.62-25.99 21.65.4.62zm0 0"/><path d="m174.74 89.9.4.42-21.48 25.98-.6-.42zm4.7 0-.4.42 21.48 25.98.6-.42zm0 0"/><path d="m178 91.35.42-.62 25.98 21.85-.4.42zm0 0"/></g><path d="m141.2 88.88c0-20 15.94-36.3 35.99-36.3 19.85 0 35.8 16.3 35.8 36.3s-15.95 36.28-35.8 36.28c-20.05 0-36-16.28-36-36.28zm-8 0a44.05 44.05 0 0 0 44 44.12c24.15 0 43.78-19.8 43.78-44.13s-19.63-44.12-43.78-44.12a44.05 44.05 0 0 0 -43.99 44.13zm0 0" fill="#5f6466"/><path d="m141.6 88.88c0-19.8 15.95-35.89 35.59-35.89s35.4 16.1 35.4 35.88c0 19.8-15.76 35.88-35.4 35.88s-35.6-16.08-35.6-35.88zm-4.92 0c0 22.47 18.01 40.82 40.5 40.82 22.3 0 40.32-18.35 40.32-40.82 0-22.49-18.01-40.83-40.31-40.83-22.5 0-40.5 18.34-40.5 40.83zm0 0" fill="#6a6f70"/><path d="m141.8 88.88c0-19.6 15.75-35.68 35.39-35.68 19.44 0 35.19 16.08 35.19 35.67 0 19.6-15.75 35.68-35.2 35.68-19.63 0-35.38-16.09-35.38-35.67zm-2.04 0c0 20.82 16.77 37.73 37.43 37.73 20.67 0 37.44-16.91 37.44-37.73 0-20.83-16.77-37.74-37.44-37.74-20.66 0-37.43 16.91-37.43 37.73zm0 0" fill="#6a6f70"/><path d="m42.79 86.4.6.2 3.08-33.81-.61-.2zm0 0" fill="#cacdd3"/><path d="m44.83 86.4-.61.2-3.08-33.81.63-.2zm-3.48 3.5.2-.62-33.55-3.08-.2.62zm0 0" fill="#cacdd3"/><path d="m41.35 87.84.2.62-33.55 3.1-.2-.63zm3.48 3.51-.61-.2-3.08 33.8.63.21zm0 0" fill="#cacdd3"/><path d="m42.79 91.35.6-.2 3.08 33.8-.61.21zm3.47-3.51v.62l33.35 3.1.2-.63zm0 0" fill="#cacdd3"/><path d="m46.26 89.9v-.62l33.35-3.09.2.62zm-1.43-3.5.4.61 25.99-21.85-.61-.41zm0 0" fill="#cacdd3"/><path d="m46.26 87.84-.61-.41 21.69-25.98.4.4zm-4.91 0 .61-.41-21.48-25.98-.6.4zm0 0" fill="#cacdd3"/><path d="m42.79 86.4-.41.61-25.78-21.85.4-.41zm0 4.95-.41-.62-25.78 21.65.4.62zm0 0" fill="#cacdd3"/><path d="m41.35 89.9.61.42-21.48 25.98-.6-.42zm4.91 0-.61.42 21.69 25.98.4-.42zm0 0" fill="#cacdd3"/><path d="m44.83 91.35.4-.62 25.99 21.85-.61.42zm-2.87-4.34.62-.2-9.41-32.58-.62.2zm0 0" fill="#cacdd3"/><path d="m44.01 86.2-.61.4-15.35-30.3.62-.42zm-2.05 4.53-.2-.62-32.31 9.49.2.63zm0 0" fill="#cacdd3"/><path d="m41.14 88.67.42.61-30.08 15.47-.4-.62zm4.51 2.06-.61.2 9.4 32.59.62-.2zm0 0" fill="#cacdd3"/><path d="m43.81 91.55.62-.4 15.13 30.3-.61.41zm1.84-4.54.2.63 32.33-9.5-.2-.6zm0 0" fill="#cacdd3"/><path d="m46.47 88.88-.42-.63 30.08-15.25.4.62zm-2.66-2.68.62.4 16.16-29.9-.62-.2zm0 0" fill="#cacdd3"/><path d="m45.65 87.01-.61-.2 10.63-32.17.62.22zm-4.51 1.87.42-.63-29.47-16.29-.4.63zm0 0" fill="#cacdd3"/><path d="m41.96 87.01-.2.63-31.9-10.72.19-.63zm1.85 4.54-.62-.4-16.16 29.69.61.41zm0 0" fill="#cacdd3"/><path d="m41.96 90.73.62.2-10.64 32.17-.61-.2zm4.51-1.85-.42.6 29.67 16.3.2-.62zm0 0" fill="#cacdd3"/><path d="m45.65 90.73.2-.62 31.92 10.72-.2.62zm0 0" fill="#cacdd3"/><path d="m7.8 88.88c0-20 16.16-36.3 36.01-36.3 19.84 0 36 16.3 36 36.3s-16.16 36.28-36 36.28c-19.85 0-36-16.28-36-36.28zm-7.77 0c0 24.32 19.63 44.12 43.77 44.12s43.78-19.8 43.78-44.13-19.64-44.12-43.78-44.12-43.77 19.8-43.77 44.13zm0 0" fill="#5f6466"/><path d="m8.21 88.88c0-19.8 15.96-35.89 35.6-35.89s35.6 16.1 35.6 35.88c0 19.8-15.96 35.88-35.6 35.88s-35.6-16.08-35.6-35.88zm-4.91 0c0 22.47 18.21 40.82 40.51 40.82s40.5-18.35 40.5-40.82c0-22.49-18.2-40.83-40.5-40.83s-40.51 18.34-40.51 40.83zm0 0" fill="#6a6f70"/><path d="m8.42 88.88c0-19.6 15.95-35.68 35.4-35.68 19.42 0 35.38 16.08 35.38 35.67 0 19.6-15.96 35.68-35.39 35.68-19.44 0-35.4-16.09-35.4-35.67zm-2.05 0c0 20.82 16.77 37.73 37.44 37.73 20.66 0 37.43-16.91 37.43-37.73 0-20.83-16.77-37.74-37.43-37.74-20.67 0-37.44 16.91-37.44 37.73zm0 0" fill="#6a6f70"/><path d="m77.36 27.02h75.9v-4.96h-75.9zm23.12 70.52-4.1-3.92 56.46-60.21 4.1 3.91zm74.87-10.32s-5.72-4.94-10.43-15.05c-4.7-10.1-9.42-22.48-9.62-25.57-.2-2.88.62-3.92.62-3.92l2.65-.82s2.66 3.71 4.1 10.52c1.63 6.8 5.52 19.38 6.13 20.82.82 1.45 6.55 12.59 7.77 13l1.03 1.02zm0 0" fill="#558dc3"/><path d="m158.79 41.45-3.7 1.03-6.74-24.54 3.68-1.03zm0 0" fill="#558dc3"/><path d="m159.8 41.45c.2.4-.2.62-.4.82l-3.9 1.03c-.4 0-.8 0-.8-.41-.22-.41 0-.62.4-.82l3.88-1.03c.41 0 .82 0 .82.4zm-58.71 56.5-3.07.82-23.73-83.92 2.86-.83zm0 0" fill="#558dc3"/><path d="m44.83 90.52-2.66-1.24 34.58-67.42 2.66 1.23zm0 0" fill="#558dc3"/><path d="m99.04 98.36-55.64-8.46.2-1.86 55.65 8.45zm0 0" fill="#558dc3"/><path d="m182.1 88.88a5.04 5.04 0 0 1 -4.91 5.15 5.09 5.09 0 0 1 -5.11-5.16c0-2.89 2.25-5.16 5.1-5.16a5.04 5.04 0 0 1 4.92 5.17zm0 0" fill="#93999e"/><path d="m180.88 88.88c0 2.05-1.65 3.7-3.7 3.7a3.73 3.73 0 0 1 -3.88-3.7 3.9 3.9 0 0 1 3.89-3.93c2.04 0 3.69 1.86 3.69 3.92zm0 0" fill="#eff0f3"/><path d="m100.06 99.39-2.45-.62-3.68 20.62 2.46.41zm0 0" fill="#757b7e"/><path d="m89.63 120.01c0 .2 0 .2.21.2h7.37c.2 0 .2 0 .2-.2v-1.24c0-.2 0-.2-.2-.2h-7.37c-.2 0-.2 0-.2.2zm0 0" fill="#96bdd2"/><path d="m43.81 84.75 54.62-.83v-.82l-54.62.61zm51.35 26.8-51.76-17.73.41-.62 51.76 17.74zm0 0" fill="#5f777c"/><path d="m108.66 106.2-.2.2c-.21 0-.21-.2-.41-.2l-8.19-8.05c-.2 0-.2-.2-.2-.4 0-.21.2-.21.4-.21l11.05-3.3h.21c.2.2.2.2.2.4.41 1.86.41 3.92 0 5.98a14.38 14.38 0 0 1 -2.86 5.57zm-3.48 2.67c0 .22-.2.22-.2.22a12.06 12.06 0 0 1 -5.94 1.43c-2.25 0-4.09-.4-5.93-1.43-.2 0-.2 0-.2-.22-.21-.2 0-.2 0-.4l5.73-9.9c0-.21.2-.21.4-.21 0 0 .21 0 .21.2l5.73 9.9c.2.2.2.2.2.42zm-15.55-2.47c-.2 0-.41-.2-.41-.2a14.53 14.53 0 0 1 -2.86-5.58 14.52 14.52 0 0 1 0-5.97c0-.2.2-.2.2-.42h.42l11.04 3.3s.2 0 .2.21c0 .2 0 .4-.2.4l-8.18 8.05-.2.2zm-2.25-14.85a17.37 17.37 0 0 1 4.1-4.54 11.67 11.67 0 0 1 5.73-2.26h.2c.2.2.2.2.2.41l1.03 11.55s0 .2-.21.2c0 .2-.2.2-.41.2l-10.43-4.94s-.2 0-.2-.2v-.42zm12.89-6.39c0-.2.2-.2.2-.4h.41c2.05.2 3.89 1.03 5.53 2.25a14.28 14.28 0 0 1 4.09 4.54v.41c0 .21-.2.21-.2.21l-10.44 4.95c-.2 0-.41 0-.41-.2-.2 0-.2-.2-.2-.2zm-1.23-2.06c-7.97 0-14.52 6.39-14.52 14.44 0 8.04 6.55 14.64 14.52 14.64 7.98 0 14.33-6.6 14.33-14.64a14.3 14.3 0 0 0 -14.33-14.44zm0 0" fill="#6a6f70"/><path d="m99.04 111.35c-7.57 0-13.7-6.19-13.7-13.81 0-7.43 6.13-13.62 13.7-13.62 7.37 0 13.5 6.2 13.5 13.62 0 7.62-6.13 13.81-13.5 13.81zm0-28.25c-7.97 0-14.52 6.39-14.52 14.44 0 8.04 6.55 14.64 14.52 14.64 7.98 0 14.33-6.6 14.33-14.64a14.3 14.3 0 0 0 -14.33-14.44zm0 0" fill="#4c535a"/><path d="m48.92 88.88a5.09 5.09 0 0 1 -5.1 5.15 5.09 5.09 0 0 1 -5.13-5.16c0-2.89 2.26-5.16 5.12-5.16s5.11 2.27 5.11 5.17zm0 0" fill="#93999e"/><path d="m47.7 88.88c0 2.05-1.84 3.7-3.89 3.7a3.68 3.68 0 0 1 -3.69-3.7c0-2.07 1.65-3.93 3.7-3.93a4.04 4.04 0 0 1 3.88 3.92zm0 0" fill="#eff0f3"/><path d="m98.02 96.92 2.46.4 3.68-20.61-2.46-.42zm0 0" fill="#757b7e"/><path d="m100.27 76.5c0 .2.2.2.41.2h7.37s.2 0 .2-.2v-1.24c0-.2-.2-.2-.2-.2h-7.37c-.2 0-.41 0-.41.2zm1.23 21.04c0 1.65-1.02 2.68-2.46 2.68a2.59 2.59 0 0 1 -2.65-2.68c0-1.45 1.22-2.48 2.65-2.48a2.37 2.37 0 0 1 2.46 2.48zm0 0" fill="#96bdd2"/><path d="m100.88 97.54c0 1.02-.82 2.05-1.84 2.05s-1.83-1.03-1.83-2.05c0-1.04.8-1.86 1.83-1.86 1.02 0 1.84.82 1.84 1.86zm0 0" fill="#f6f6f8"/><path d="m77.57 14.64c0 .21 0 .41-.21.41l-2.66.83c-.2 0-.4 0-.4-.2l-2.26-7.84s.2-.21.2-.42l2.67-.62c.2-.2.4 0 .4.21zm0 0" fill="#cbe1f4"/><path d="m68.36 9.28s-6.34-4.13-8.39-5.77c-1.84-1.45-2.86-4.75 3.27-3.1 6.14 1.86 10.03 2.9 13.71 3.5 3.47.84 12.07 1.66 15.34 3.93 3.07 2.27 4.5 5.15-1.22 3.91-5.73-1.44-5.32-2.47-11.87-2.68-6.34-.41-6.75.62-8.38.62-1.64 0-.21.42-2.46-.4zm0 0" fill="#6a6f70"/></svg>