<svg height="133pt" viewBox="0 0 234 133" width="312" xmlns="http://www.w3.org/2000/svg"><g fill-rule="evenodd"><path d="m226 0h7.95l-5.52 42.04h-30.23c.01-23.07 15.44-42.04 27.8-42.04zm0 0" fill="#e84e2f"/><path d="m233.95 0-5.52 42.04h-24.7c1.3-23.07 18.04-42.04 30.22-42.04zm0 0" fill="#ffc20d"/><path d="m57.55 34.03h171.52c0 31.72-25.82 57.9-57.5 57.9h-171.51c0-31.9 25.83-57.9 57.5-57.9zm0 0" fill="#ffc20d"/><path d="m207.64 78.84a56.1 56.1 0 0 1 -36.06 13.09h-171.53c0-4.59.49-8.84 1.46-13.1zm-96.64 24.86c-1.31 0-2.77.16-4.07.16v29.6h4.07c19.15 0 34.75-6.7 34.75-14.87 0-8.18-15.6-14.9-34.75-14.9zm0 0" fill="#daa509"/><path d="m106.93 133.47c6.18 0 11.05-6.7 11.05-14.88s-4.87-14.9-11.05-14.9c-6.17 0-11.04 6.72-11.04 14.9s4.87 14.88 11.04 14.88zm0 0" fill="#ffc20d"/><path d="m106.93 126.27c3.09 0 5.68-3.43 5.68-7.68 0-4.26-2.6-7.7-5.68-7.7s-5.69 3.44-5.69 7.7c0 4.25 2.6 7.68 5.69 7.68zm0 0" fill="#454c54"/><path d="m105.63 67.23 68.87 52.17-19.81.17c-4.23 0-8.3-.66-13.49-3.93l-76.02-48.41zm0 0" fill="#ffe59b"/><path d="m105.63 67.23 69.84 53c2.44 1.79 2.28 5.23-1.94 5.23l-21.77.16c-4.38 0-8.28-.66-13.48-3.93l-85.44-54.46h12.34l76.02 48.41c5.2 3.27 9.26 3.93 13.49 3.93l19.81-.17zm0 0" fill="#e84e2f"/><path d="m152.57 62.98a7.87 7.87 0 0 0 7.96-7.86 7.96 7.96 0 0 0 -7.96-7.85c-4.22 0-7.8 3.6-7.8 7.85a7.83 7.83 0 0 0 7.8 7.86zm-24.2 0c4.39 0 7.8-3.44 7.8-7.86a7.82 7.82 0 0 0 -7.8-7.85c-4.22 0-7.8 3.6-7.8 7.85a7.83 7.83 0 0 0 7.8 7.86zm-24.2 0c4.38 0 7.8-3.44 7.8-7.86a7.82 7.82 0 0 0 -7.8-7.85c-4.4 0-7.8 3.6-7.8 7.85 0 4.42 3.4 7.86 7.8 7.86zm-24.21 0c4.22 0 7.8-3.44 7.8-7.86a7.93 7.93 0 0 0 -7.8-7.85c-4.38 0-7.8 3.6-7.8 7.85a7.73 7.73 0 0 0 7.8 7.86zm-24.19 0c4.22 0 7.8-3.44 7.8-7.86a7.93 7.93 0 0 0 -7.8-7.85c-4.4 0-7.8 3.6-7.8 7.85a7.73 7.73 0 0 0 7.8 7.86zm-48.08 0a61.44 61.44 0 0 1 13.31-15.71h9.43c4.22 0 7.8 3.6 7.8 7.85a7.83 7.83 0 0 1 -7.8 7.86zm0 0" fill="#4cbaf2"/><path d="m158.91 50.38-9.43 11.94a7.4 7.4 0 0 1 -3.09-2.46l9.27-11.93c1.3.48 2.44 1.3 3.25 2.45zm-24.37 0-9.26 11.94a6.44 6.44 0 0 1 -3.08-2.46l9.26-11.93c1.3.48 2.27 1.3 3.08 2.45zm-24.2 0-9.25 11.94a6.44 6.44 0 0 1 -3.1-2.46l9.27-11.93c1.3.48 2.27 1.3 3.08 2.45zm-24.2 0-9.26 11.94a6.48 6.48 0 0 1 -3.09-2.46l9.26-11.93a6.5 6.5 0 0 1 3.1 2.45zm-24.2 0-9.26 11.94a5.85 5.85 0 0 1 -3.1-2.46l9.27-11.93a7.35 7.35 0 0 1 3.09 2.45zm-28.26-2.45-11.7 15.05h-4.88l12.2-15.71h1.14c1.13 0 2.27.33 3.25.66zm0 0" fill="#98dcff"/></g></svg>