<svg xmlns="http://www.w3.org/2000/svg" width="359" height="267" viewBox="0 0 269 200"><path d="M37 78s-6 11 4 1l-4-1zm0 0" fill="#415c30"/><path d="M37 78c0 1-2 4-1 5 0 0 3-1 5-4l-4-1zm-1 5h-1l2-6 6 2-7 4zm0 0" fill="#303629"/><path d="M44 82s-8 11 4 3l-4-3zm0 0" fill="#415c30"/><path d="M44 82l-3 5h2l5-2-4-3zm-1 5h-2l3-6 4 4v1l-5 1zm0 0" fill="#303629"/><path d="M51 87s-8 10 1 4l-1-4zm0 0" fill="#415c30"/><path d="M51 89c-2 1-3 2-3 4 1 0 3 0 4-2l-1-2zm-3 4c-1-2 1-4 3-6l2 4h-1c-1 2-3 2-4 2zm0 0" fill="#303629"/><path d="M53 94s-6 7 2 3c0-2-2-3-2-3zm0 0" fill="#415c30"/><path d="M53 94l-2 4 4-1-2-3zm-2 4l2-4v-1 1s2 0 2 3l-4 1zm0 0" fill="#303629"/><path d="M56 98s-5 5 1 4l-1-4zm0 0" fill="#415c30"/><path d="M56 99c-1 0-3 2-1 3h2l-1-3zm-1 3h-2l3-4 1 4h-2zm0 0" fill="#303629"/><path d="M52 13s-3-9 3 0h-3zm0 0" fill="#415c30"/><path d="M52 13h3l-3-4v4zm0 0V9l3 4h1-4zm0 0" fill="#303629"/><path d="M60 13s-9-16 4 0h-4zm0 0" fill="#415c30"/><path d="M57 7l3 6h4l-7-6zm3 8c-1-2-4-7-3-8 0 0 2 0 7 6l-4 2zm0 0" fill="#303629"/><path d="M65 15s3-16 8-15c1 1-4 11-3 15h-5zm0 0" fill="#415c30"/><path d="M66 15h4c-1-3 0-6 2-10V0c-4 0-6 12-7 15h1zm6-15c-4 0-7 13-7 15h5c0-3 0-6 2-10l1-5h-1zm0 0" fill="#303629"/><path d="M73 16S86 0 89 3c1 1-7 9-7 14l-9-1zm0 0" fill="#415c30"/><path d="M74 15l7 2 5-9 3-5h-1c-3 0-12 10-14 12zm8 4l-1-2-8-1v-1c1 0 11-12 15-12h1c1 1 0 2-3 5l-4 9zm0 0" fill="#303629"/><path d="M90 21s16-14 17-10c2 1-9 6-10 15-4-1-7-5-7-5zm0 0" fill="#415c30"/><path d="M90 21c0 2 4 4 7 5 1-6 5-10 8-13l2-2-1-2c-3 0-14 11-16 12zm7 7v-2l-7-3-1-2h1s12-12 16-12l3 2-3 2c-4 3-8 7-9 13zm0 0" fill="#303629"/><path d="M101 29s14-14 17-12c1 3-11 11-11 19l-6-7zm0 0" fill="#415c30"/><path d="M101 29l6 7c0-4 4-10 7-12 3-3 4-5 4-7h-1c-3 0-15 11-16 12zm6 7l-6-7s12-12 16-12h1c1 2-1 3-4 7-3 2-7 8-7 12zm0 0" fill="#303629"/><path d="M111 40s14-19 18-16c2 1-12 13-12 21l-6-5zm0 0" fill="#415c30"/><path d="M111 40l6 5c0-5 5-11 8-15l4-6h-2c-4 0-14 14-16 16zm7 6l-1-1c-3-1-6-5-6-5s12-16 16-16h2c1 1 0 2-3 6-4 4-8 11-8 15zm0 0" fill="#303629"/><path d="M121 48s13-20 18-18c1 2-12 11-13 22l-5-4zm0 0" fill="#415c30"/><path d="M121 48l5 4c1-7 7-14 10-18l3-4h-1c-4 0-16 16-17 18zm5 5v-1l-5-4c0-2 12-18 17-18h1c0 2-1 2-3 4-3 4-9 11-10 18zm0 0" fill="#303629"/><path d="M134 56s10-22 17-19c3 0-9 9-11 20l-6-1zm0 0" fill="#415c30"/><path d="M135 56l5 1c0-7 6-12 8-16l3-4c-7 0-16 17-16 19zm5 2l-6-1v-1c1 0 10-20 17-20l1 1-4 4c-2 4-8 11-8 16zm0 0" fill="#303629"/><path d="M146 60s16-22 20-18c1 2-14 11-14 19l-6-1zm0 0" fill="#415c30"/><path d="M146 60l5 1c1-4 7-9 9-13 3-3 6-4 6-6h-2c-5 0-17 15-18 18zm6 1h-1l-5-1c0-2 13-19 18-19h2v1c0 2-2 3-4 6-4 4-10 9-10 13zm0 0" fill="#303629"/><path d="M159 62s12-18 17-16c1 2-10 10-12 18-1-2-5-2-5-2zm0 0" fill="#415c30"/><path d="M159 62h5l8-10c1-3 4-4 4-4l-1-2c-4 0-15 14-16 16zm7 2h-2l-5-2s11-16 16-16h1c0 2-1 3-4 6-2 2-6 8-6 12zm0 0" fill="#303629"/><path d="M171 65s13-19 17-16c1 3-11 12-11 17l-6-1zm0 0" fill="#415c30"/><path d="M172 65l5 1c0-4 4-8 7-12 3-1 4-4 4-4l-1-1c-4 0-14 13-15 16zm5 1l-6-1c1-1 12-16 16-16h1c1 1 0 3-3 5-4 4-8 10-8 12zm0 0" fill="#303629"/><path d="M184 66s13-14 16-12c1 2-11 10-11 15l-5-3zm0 0" fill="#415c30"/><path d="M185 66l3 3c1-3 4-7 7-9 2-2 5-4 5-6h-1c-3 0-12 11-14 12zm4 3l-5-3c1 0 11-12 15-12h1c0 2-1 4-4 6s-7 6-7 9zm0 0" fill="#303629"/><path d="M193 70s16-13 19-10c0 1-12 10-13 13l-6-3zm0 0" fill="#415c30"/><path d="M193 70l6 3c1-3 5-5 8-9l5-4h-2c-3 0-14 9-17 10zm7 3h-1l-6-3s12-10 17-10h2l-4 5-8 8zm0 0" fill="#303629"/><path d="M205 75s15-11 19-9c1 2-14 7-15 12l-4-3zm0 0" fill="#415c30"/><path d="M205 75c2 0 3 2 4 3 1-3 5-5 9-8l6-2-3-2c-4 0-13 8-16 9zm4 3l-4-3v-1s12-8 16-8h3v2l-6 2c-2 3-8 5-9 8zm0 0" fill="#303629"/><path d="M217 81s15-9 17-7c2 1-13 7-13 9l-4-2zm0 0" fill="#415c30"/><path d="M217 81l4 2c0-1 4-4 8-5 3-1 5-4 5-4h-1c-4 0-15 7-16 7zm4 4l-4-3-1-1h1s12-8 16-8l1 1-5 4-8 5zm0 0" fill="#303629"/><path d="M226 87s18-10 19-6c1 2-15 6-15 9l-4-3zm0 0" fill="#415c30"/><path d="M228 87c0 2 1 2 2 3 0-3 6-4 10-5l5-4h-1c-4 0-15 5-16 6zm2 3c-2 0-4-3-4-3 2 0 12-8 18-8l2 2v1l-6 3-10 5zm0 0" fill="#303629"/><path d="M237 95s16-6 17-4c0 2-13 6-13 8l-4-4zm0 0" fill="#415c30"/><path d="M237 97l4 2 8-5c1 0 5-1 5-3h-1c-6 0-13 4-16 6zm4 2l-4-2v-2s10-4 16-4h1c0 2-3 3-5 4l-8 4zm0 0" fill="#303629"/><path d="M62 111s-9-5-17-2l6 2c-7 0-14 0-15 3 0 3 13 1 19 3-6 1-11 2-11 5h16l-3 4 12-1-7-14zm0 0" fill="#609339"/><path d="M59 110c-4-1-10-3-14-1l6 2c-7 0-14 0-15 3 0 3 13 1 19 3-6 1-11 2-11 5h16l-3 4c2 0 5-1 7-3-4-2-4-8-5-13zm0 0" fill="#74b135"/><path d="M59 111c-4-1-6-2-11-1 4 0 7 3 7 3-7-2-15 0-15 1-1 1 12-1 17 3-5 1-10 2-10 4l14 1c-1 0-2 1-2 3 1 0 2 0 3-2-3-4-3-6-3-12zm0 0" fill="#7cb932"/><path d="M53 122h7l-3 3v1h2l6-1h4c-1-4-7-12-7-12-1-2-6-4-11-4h-6l6 2 1 2h-1c-2-2-3-2-6-2-5 0-8 2-8 3v1h10c2 0 6 0 8 2h1-3c-5 1-8 2-9 5h9zm6 4h-2v-1c0-2 2-2 2-3H44c0-3 4-4 9-5h-6c-6 0-10-2-11-2v-1c0-1 4-3 9-3h4l-4-1-1-1h1l6-2c5 0 11 4 11 4l7 14h-4l-6 1zm0 0" fill="#445a2f"/><path d="M32 78s17 0 27 29c3 12 9 27 18 23 5-3 7 5 13 1 6-3 7 3 11-1 2-3 6-4 14-2-1-6-22-38-29-43-9-8-43-19-54-7zm0 0" fill="#e9c567"/><path d="M69 126c4 1 8-3 12-1 1 0 1 2 3 2 4 1 6-1 9-1 5-3 5 5 10-3-7-4-11-14-11-21L81 90 66 79c-1-1-4-2-5-5-12-2-24-2-29 4 0 0 17 0 27 29 1 6 2 11 5 15 1 1 2 3 5 4zm0 0" fill="#f8dc88"/><path d="M90 103c-2-5-6-8-9-12-3-2-4-4-7-4 0-1 11 11 14 27-10-20-16-28-16-28 1 5 8 21 5 27-3-14-9-31-9-31l-4-1s4 12 1 22c-1 0-1-16-5-24H44c5 3 11 11 16 28 1 6 2 10 5 14l4 4c4 1 8-3 13-2 2 0 2 3 3 3 3 1 5-1 8-3 5-2 5 5 9 2-8-6-12-16-12-22zm0 0" fill="#fdeca8"/><path d="M80 128l4 2 2 2 4-1 3-1 3 1h2l1-1c3-2 6-3 10-3l6 1c-1-7-22-38-29-43-5-6-24-12-38-12-7 0-12 1-15 5 3 0 16 3 26 29 5 16 10 23 15 23h3c1-2 1-2 3-2zm6 4l-2-1-4-1h-3l-3 1c-6 0-12-8-15-24-10-29-26-29-27-29 3-4 8-5 16-5 14 0 33 6 38 12 7 5 28 37 29 43l-6-1c-4 0-7 1-8 4h-5l-3-1-3 1-4 1zm0 0" fill="#cca13e"/><path d="M65 103s1-22-8-29v-1c5 5 8 14 8 22v8zm12 10c0-2-4-30-13-38v-1c5 5 9 17 12 27l1 12zm0 0" fill="#cca13e"/><path d="M88 114s-6-19-19-31v-1c7 7 11 13 15 20l4 12zm0 0" fill="#cca13e"/><path d="M23 65S2 69 0 56c0-14 8-10 8-10 4 0 15-4 17-9 0-8-6-26 18-22 4-3 8-4 14-3 7-1 31-1 54 24 15 17 29 21 43 22 13 3 58 10 90 41 9 10 35 32 18 61-9 11-24 20-66 16-19-2-49-2-54 7-2 5 0 9 13 8 8 0 9 5 8 8-1-2-1-6-12-4-7 1-20 0-16-15 4-9 20-17 49-18 19-2 50-7 49-18-1-6-19-10-29-4-17 3-52 12-89-9-19-13-18-25-21-30-5-6-16-19-25-22l-12-2c-5 0-16-3-20 1-2 1-9 3-17 0-6-4-1-9 3-13zm0 0" fill="#609339"/><path d="M23 65S2 69 0 56c0-14 8-10 8-10 4 0 15-4 17-9 0-8-6-26 18-22 4-3 8-4 14-3 7-1 31-1 54 24 15 17 29 21 43 22 13 3 58 10 90 41 9 10 27 31 11 56-9 13-38 15-66 16-10 0-45 4-47 12-2 5 0 9 13 8 8 0 9 5 8 8-1-2 0-7-11-6-6 2-17 0-13-13 3-10 16-14 45-16 19-1 60-5 53-24-3-8-28-9-40-8-17 3-43 10-78-7-20-14-22-20-25-26-5-5-13-20-24-22H57c-5 0-16-3-20 1-2 1-9 3-17 0-6-4-1-9 3-13zm0 0" fill="#71a636"/><path d="M241 102c-32-33-75-37-89-40-13-2-27-6-43-24-23-25-45-23-52-22-6-1-10-4-14-1-24-4-18 14-18 22-2 5-13 9-17 9 0 0-8-4-8 10 2 13 23 9 23 9-4 4-9 9-3 13 8 3 15 1 17 0 4-4 15-1 20-1h13c12-3 20 16 26 21 3 5 3 9 25 23l5 2c3-9-5-20-11-28 12 6 23 20 20 32 13 4 25 4 37 4-5-6-8-14-6-22 1-4 6-8 7-10 16-6 35-8 49 3-14 1-37 11-37 26l11-1c12-1 41 5 44 13 6 19-36 24-56 27-30 1-42 8-40 7 7 0 20-4 44-6 28 0 54-1 65-14 14-26-3-43-12-52zm0 0" fill="#7cb932"/><path d="M146 121c0 11-3 18-4 21l4 1c1-8 2-18 0-22zm0 0" fill="#46592e"/><path d="M146 121c0 5 0 9-2 13h3l-1-13zm0 0" fill="#476a34"/><path d="M167 125c0 7-3 15-5 19h6l-1-19zm0 0" fill="#46592e"/><path d="M166 135h2l-1-10-1 10zm0 0" fill="#476a34"/><path d="M144 171l-6 6 5 4 7-4c0-2-2-5-6-6zm22-7l-10 2c2 2 3 5 3 10l9-1c0-4 0-8-2-11zm25-2h-8c1 2 1 6-3 13h11c2-3 2-7 0-13zm26-6c-3 2-7 2-10 3 1 3 3 8 1 17l13 1c0-5 0-13-4-21zm13-6l-5 4c5 1 13 8 16 20 5-2 10-3 13-6-3-6-8-17-24-18zm33-25c-2-7-6-11-10-16-15 4-23 23-24 30l4 4c13-18 25-20 30-18zm0 0" fill="#46592e"/><path d="M146 172c-3 2-6 4-7 7l4 2 7-4-4-5zm10-4c2 2 3 3 3 7 3-1 7-1 9-3l-1-6-11 2zm36-4h-9v7h10l-1-7zm16-2l1 8c4 0 8 0 12-2l-3-9c-2 1-6 3-10 3zm28-11l-7 4c3 3 7 5 9 11 6-2 9-3 12-6-3-4-8-8-14-9zm23-26c-1-7-4-11-6-15-13 3-20 17-23 25l6 4c9-12 18-14 23-14zm0 0" fill="#476a34"/><path d="M23 65S2 69 0 56c0-14 8-10 8-10 4 0 15-4 17-9 0-8-6-26 18-22 4-3 8-4 14-3 21 8 39 66 12 67l-12-2c-5 0-16-3-20 1-2 1-9 3-17 0-6-4-1-9 3-13zm0 0" fill="#609339"/><path d="M23 65S2 69 0 56c0-14 8-10 8-10 4 0 15-4 17-9 0-8-6-26 18-22 4-3 8-4 14-3 16 7 32 38 25 54-2 4-5 7-12 9-4 2-9 0-14-1-4 0-13-2-17 1-3 2-10 6-16 3-8-4-4-9 0-13zm0 0" fill="#71a636"/><path d="M23 65S2 69 0 56c0-14 8-10 8-10 4 0 15-4 17-9 0-8-6-26 18-22 4-3 8-4 14-3 16 7 32 38 25 54-2 4-6 6-12 7-5 1-8 0-13-1-5 0-13-4-17 0-3 1-9 6-17 3-5-1-4-6 0-10zm0 0" fill="#7cb932"/><path d="M25 65c-3 4-7 9-2 10 8 2 18-7 22-18-6 5-13 7-20 8zm0 0" fill="#eb5f62"/><path d="M36 64c-3 1-5 2-7 6v-4c-4 2-9 6-9 8l3 1c6 2 16-5 20-14l-7 3zm0 0" fill="#f19194"/><path d="M25 65l-5 9 3 1h1c8 0 16-7 20-17-5 4-13 6-19 7zm-1 10h-1l-3-1c-1-2 3-6 5-9 6-1 14-4 20-8-4 11-13 18-21 18zm0 0" fill="#b93636"/><path d="M29 68l4-6h2l-6 6zm0 0" fill="#b93636"/><path d="M23 65S2 69 0 56c0-14 8-10 8-10 4 0 15-4 17-9 0-8-6-26 18-22 4-3 8-4 14-3 12 3 7 28-9 42-7 6-15 10-25 11zm0 0" fill="#609339"/><path d="M23 64S3 66 2 54c-2-12 6-8 6-8 4 0 15-4 17-9 0-8-6-26 18-22 4-3 8-4 14-3 12 3 7 28-9 42-7 6-16 8-25 10zm0 0" fill="#71a636"/><path d="M45 46c-5 0-8-5-8-13 0-7 3-13 8-13 4 0 8 6 8 13 0 8-4 13-8 13zm17-30c-7-4-17-1-21 0-19-4-13 14-9 12-4 12-13 16-18 18-3 0-8 2-10 4 0-2 4-4 4-4s-6-4-5 8c0 10 20 7 20 7 10-1 20-3 25-7 18-14 17-31 14-38zm0 0" fill="#7cb932"/><path d="M155 193c7 0 8 3 8 6v-4c-1-2-3-4-8-4l-4 1c-5 0-8-1-9-4-2-1-2-3 0-5 4-7 21-8 34-8h20l21 1c28 0 38-8 45-16 16-26-5-47-16-58l-2-1c-31-32-74-40-89-41h-1c-14-3-28-7-44-23-20-22-40-25-48-25h-9c-4 0-8 1-10 3h-7l-9 2c-3 4-3 9-2 15v5c-2 5-13 9-17 9H6c-2 0-3 0-3 2-1 1-3 4-3 8 2 8 10 9 18 9h6c-2 3-8 7-6 9l2 4 9 1 8-1c2-1 4-3 8-3l12 2 4 1 7 1h1c9 3 20 16 25 22 0 1 2 2 2 5 2 5 5 15 19 25 18 9 35 13 53 13l31-2 5-2c4-2 8-4 13-4 8 0 15 4 16 8l-1 4c-7 8-29 12-48 14-26 1-45 9-49 18l1 11c3 4 8 4 12 4h3l4-2zm8 7v-1c-1-2-1-4-8-4h-7c-4 0-9 0-12-4-2-3-2-6-1-11s7-9 15-12c9-4 20-5 33-6 20-3 42-6 49-14l1-4c-1-4-8-6-16-6-5 0-9 1-13 4h-5c-8 1-19 4-31 4-18 0-35-6-53-15-14-10-18-18-19-25l-3-5c-4-6-15-19-24-22h-1l-7-1-4-1-12-2c-4 0-6 2-8 3-1 1-5 3-8 3l-9-3-4-4c0-2 4-6 7-9l-5 1c-7 0-16-1-18-10v-3c0-3 0-5 2-7l4-1h2c3 0 14-3 17-8l-1-5c0-6 0-11 3-15 2-2 5-4 9-4l7 2c2-2 6-3 10-3h9c8 0 28 3 49 24 15 17 29 21 43 22h1c15 3 58 10 90 41l1 3c5 5 13 13 19 23 5 11 5 23-2 35-8 8-18 17-46 17l-21-1-20-1c-13 0-30 1-34 8v5c2 3 6 4 13 3 5 0 7 2 8 4v4zm0 0" fill="#445a2f"/><path d="M4 50s-1-4 7-5c-7 1-7 5-7 5zm47 6c-2 0-2 0-3-2l-5-1s8 4 13 0c0 0-3 3-5 3zm15 23s15 0 15-13c0 0 1 4-1 8-6 5-12 5-14 5zM12 53l3-3c3-2 5 0 5 0-5-2-8 3-8 3zm0 0" fill="#445a2f"/><path d="M18 57c-2 1-4 3-6 1 0-1 0-2 3-5l5-1c0 1 0 4-2 5zm0 0" fill="#494829"/><path d="M15 58c3-1 4-4 5-6l-5 1c-3 1-3 4-3 5h3zm0 0" fill="#3d3e2a"/><path d="M19 52l-4 1c-3 3-3 4-1 5l4-1 2-3-1-2zm-5 8l-2-2c-1-1 0-2 3-5l4-1h1v2c0 2-1 3-2 3l-4 3zm0 0" fill="#445a2f"/><path d="M262 105c-1-2-11-2-15-2l4 6 11-4zm0 0" fill="#415c30"/><path d="M249 103l2 6 11-4s-1-2-7-2h-6zm2 6l-4-6h8c6 0 7 0 7 2-1 2-8 4-11 4zm0 0" fill="#303629"/><path d="M269 119c-2-2-8-1-12-1l2 4c4-1 11-1 10-3zm0 0" fill="#415c30"/><path d="M258 118l1 4 3-1 7-2-6-1h-5zm1 4l-2-4 6-1 6 2c0 2-3 2-7 3h-3zm0 0" fill="#303629"/><path d="M262 130v5c9-1 4-4 0-5zm0 0" fill="#415c30"/><path d="M262 130v5l5-1c0-2 0-2-5-4zm0 5l-1-5h1c5 2 5 2 5 4l-5 1zm0 0" fill="#303629"/><path d="M262 140l-1 6c8 0 4-4 1-6zm0 0" fill="#415c30"/><path d="M261 144h4c0-1 0-2-3-4l-1 4zm1 2h-1v-2l1-4 4 4c-1 0-1 2-4 2zm0 0" fill="#303629"/><path d="M259 150l-2 4c2 1 5 1 2-4zm0 0" fill="#415c30"/><path d="M257 154h4l-2-3-2 3zm2 1l-2-1 2-4 2 4-2 1zm0 0" fill="#303629"/><path d="M253 158l-3 2c5 3 4 0 3-2zm0 0" fill="#415c30"/><path d="M251 160h3l-1-1-2 1zm3 2c-1 0-3 0-4-2l3-2 1 2v2zm0 0" fill="#303629"/><path d="M246 163l-2 1c2 4 2 2 2-1zm0 0" fill="#415c30"/><path d="M244 164l1 2h1v-3l-2 1zm1 3l-1-3h-2 2l2-1v4h-1zm0 0" fill="#303629"/><path d="M224 103s-25-18-52 3c-8 5-2 25 23 36-8-3-18-3-20 0l8 2c-6 0-21 2-21 7l21-3c-6 2-19 6-19 11l23-5c-6 1-11 5-10 8 2 1 11-6 16-6-4 3-5 6-4 6l23-8c5-2 12-8 2-16 6-2 10 1 12-6zm0 0" fill="#609339"/><path d="M224 103s-25-18-52 3c-8 5-2 25 23 36-8-3-18-3-20 0l8 2c-6 0-21 2-21 7l21-3c-6 2-19 6-19 11l23-5c-6 1-11 5-10 8 2 1 11-6 16-6-4 3-5 6-4 6l21-11c10-3 3-15-3-21 6 4 17 9 19 2zm0 0" fill="#71a636"/><path d="M224 103s-25-16-51 3c-7 7 2 26 27 38-5-1-19-5-21-2l10 2c-5 0-23 3-25 6l24-3c-5 3-21 7-21 9s17-5 24-4c-6 2-12 6-11 7s12-7 16-4c-4 3-7 4-5 5 1-1 10-8 17-10 10-3-3-19-8-27 7 4 25 13 28 7zm0 0" fill="#7cb932"/><path d="M189 163l-1-1c1-2 1-4 4-6l-8 3c-4 3-5 3-7 3v-2c0-2 4-5 8-6l-9 2-12 3h-1c0-4 7-7 17-11-5 2-16 3-18 3l1-3c3-2 12-4 17-4l-5-2v-2c2-1 10-1 17 2-16-10-22-20-24-28 0-4 2-7 4-8 13-12 27-12 36-9l9 2 8 6s-7-6-17-8c-9-2-23-2-36 9-2 1-4 4-2 8 0 8 7 20 25 28-8-2-16-3-20 0l8 2c-3 0-16 0-20 4l-1 3 21-3c-12 4-19 8-19 11l12-3 11-2h1-1c-4 1-10 4-10 6v2l7-3 9-3 2-1-2 1c-2 2-4 4-4 6l23-8c2-2 6-4 6-7 2-3 0-7-4-9l3-2c4 2 8 2 9-4 0 0-1 4-4 6h-6c4 4 4 6 4 9-2 4-6 7-8 7l-23 9zm0 0" fill="#445a2f"/><path d="M216 139a420 420 0 0 0 0-1zm-27 5h-6 6zm-8 4l7-1-7 1zm6 6l5-3zm6 2l4-1-4 1zm-2-16s8 4 13 4c0 0-7 0-13-4zm0 0" fill="#445a2f"/><path d="M93 99s0 16 14 26c-1 3-4 13-8 14-1-1-9-7-15-5l6 5c-6-1-24-4-24-1 0 2 7 2 7 2-5 2-16 4-16 7h24c-9 1-19 4-17 8l24-3c-6 2-14 7-12 10 1 0 18-7 23-7 7 0 10-1 14-5 5-6 20-23 17-32-4-13-13-20-15-23zm0 0" fill="#609339"/><path d="M93 99s0 16 14 26c-1 3-4 13-8 14-1-1-9-7-15-5l6 5c-6-1-24-4-24-1 0 2 7 2 7 2-5 2-16 4-16 7h24c-9 1-19 4-17 8l24-3c-6 2-14 7-12 10 1 0 18-10 23-10 6 0 8-1 12-5 6-4 18-21 15-30-3-14-9-19-11-22zm0 0" fill="#71a636"/><path d="M97 98s-3 19 16 29c-4 0-10 12-12 15-3-3-8-8-13-7l5 5c-7-1-24-4-25-1l10 1c-5 0-17 4-17 6 1 1 16-3 25 1-9 1-20 3-17 5 0 2 19-1 24-1-5 1-15 5-13 8 1 0 14-8 19-8 6 0 7-1 11-5s16-20 13-29c-2-14-6-20-8-23zm0 0" fill="#7cb932"/><path d="M76 162v-2c0-2 6-6 10-8-2 0-6 0-10 2l-12 1v-3c1-2 9-4 16-5H57v-1l13-6-5-2h1c3-3 16-2 23 1l-5-4-2-1h2c6-2 13 2 15 5 3-1 7-9 8-13v-1c-11-7-14-19-14-24v-2s0 16 16 26l-2 1c-1 4-5 12-8 13-2-1-9-5-15-4l6 4 2 1-2-1c-6-1-21-3-24-1l7 2h1-1c-5 2-13 4-14 7h-2 27-3c-7 1-15 4-17 7v1l12-1 12-3h2l-2 1c-4 2-11 6-12 8v2l9-3c5-3 12-4 14-4 7 0 11-1 14-5 5-6 20-23 17-32s-9-16-12-20l-3-3 3 3c3 3 9 9 12 20 3 9-13 28-17 32-3 4-7 5-14 5l-14 4-9 3zm0 0" fill="#445a2f"/><path d="M89 143c-8-4-17-3-17-3 13-1 17 3 17 3zm-1 5l-7-1 7 1zm-31-34l-8-1v-2l8 3zm2 3h-6c4-2 6 0 6 0zm47 6s7 4 9 4c0 0-4 1-9-4zm0 0" fill="#445a2f"/><path d="M81 62c0 6-5 11-11 11s-10-5-10-11 4-10 10-10 11 4 11 10zm0 0" fill="#e9c567"/><path d="M78 56c-1-3-4-4-8-4-6 0-10 4-10 10 0 3 1 7 4 8 6 4 18-8 14-14zm0 0" fill="#f8dc88"/><path d="M77 56c-1-2-4-3-7-3-5 0-9 4-9 9 0 3 1 6 4 7 5 4 16-8 12-13zm0 0" fill="#fdeca8"/><path d="M70 52c-5 0-10 4-10 10s5 11 10 11 11-5 11-11-5-10-11-10zm0 21c-6 0-10-5-10-11s4-10 10-10c7 0 11 4 11 10s-4 11-11 11zm0 0" fill="#cca13e"/><path d="M59 68c0 2-2 4-3 4-3 0-4-2-4-4s1-4 4-4c1 0 3 2 3 4zm-2-8l-1 2-1-2 1-3 1 3zm4-6c0 2-1 2-2 2 0 0-2-2 0-3l1-1 1 2zm11-12c0 2-2 3-3 3l-1-3 1-2 3 2zm4-4l-2 2-1-2 1-2 2 2zm8 0c0 2 0 3-2 3-1 0-2-1-2-3l2-4c2 0 2 2 2 4zm6-4l-1 2-1-2 1-2 1 2zm-18 0c0 3-2 4-4 4-3 0-4-1-4-4 0-1 1-4 4-4 2 0 4 3 4 4zm8-5l-3 3-3-3 3-3 3 3zm-4-8c0 3 0 3-2 3s-2 0-2-3l2-2 2 2zm-6 0l-2 2-2-2 2-2 2 2zm-1 5l-1 2c-2 0-3-2-3-2 0-1 1-2 3-2l1 2zm-8 3l-1 3-3-3 3-3 1 3zm0 0" fill="#476a34"/><path d="M52 36c0 5-3 10-7 10s-6-5-6-10c0-7 2-12 6-12s7 5 7 12zm0 0" fill="#e4e4e5"/><path d="M45 23c-4 0-6 5-6 11v3c0 4 5 7 10 4l2-1 1-6c0-6-3-11-7-11zm0 0" fill="#445a2f"/><path d="M45 24c-4 0-6 5-6 12v1c0 4 5 8 10 5l2-1 1-5c0-7-3-12-7-12zm0 0" fill="#fefefe"/><path d="M45 24c-4 0-6 5-6 12 0 5 2 10 6 10 3 0 7-5 7-10 0-7-4-12-7-12zm0 22c-4 0-8-5-8-10 0-7 4-12 8-12s7 5 7 12c0 5-3 10-7 10zm0 0" fill="#445a2f"/><path d="M49 37c0 3-2 4-4 4-1 0-2-1-2-4s1-5 2-5c2 0 4 2 4 5zm0 0" fill="#5e85c3"/><path d="M45 33c-1 0-2 1-2 4s1 4 2 4c2 0 3-1 3-4s-1-4-3-4zm0 8c-1 0-2-1-2-4s1-5 2-5c3 0 4 2 4 5s-1 4-4 4zm0 0" fill="#32529e"/><path d="M31 28c1-3 0-4-2-4-1-1-5 1-6 6v10c1-3 8-8 8-12zm0 0" fill="#e4e4e5"/><path d="M32 26l-1-3c-3 0-6 2-8 6v4c0 3 0 4 2 4 3-3 7-7 7-11zm0 0" fill="#445a2f"/><path d="M31 28c1-3 0-4-2-4-1-1-5 1-6 6l-1 4 2 4c3-2 7-8 7-10zm0 0" fill="#fefefe"/><path d="M29 24c-2 0-5 2-6 6v10c2-3 8-8 8-12 0-3 0-4-2-4zm-6 16c-3-2-1-6 0-10s4-7 6-7v1c2 0 3 1 3 4 0 4-7 9-9 12zm0 0" fill="#445a2f"/><path d="M28 33l-4 3v-6c1-1 3-2 4-1v4zm0 0" fill="#5e85c3"/><path d="M28 29l-3 1v4l3-1v-4zm-3 7h-1v-6l4-2v5c0 1-1 3-3 3zm0 0" fill="#32529e"/><path d="M39 19s1-4 5-6v2c-4 0-5 4-5 4zm23-2c-2-4-6-5-6-5 5 1 6 5 6 5zm0 0" fill="#445a2f"/><path d="M41 48s3-7 15-6l-8 6zm0 0" fill="#74b135"/><path d="M41 48s6-6 15-6l-8 6zm0 0" fill="#7cb932"/><path d="M41 48s2-3 6-4c5-3 9-2 9-2-11-1-15 6-15 6zM18 66v-1s21 0 30-11c-9 11-29 12-30 12zm0 0" fill="#445a2f"/><path d="M48 37c0 3-1 4-3 4l-1-4 1-3c2 0 3 2 3 3zm0 0" fill="#29282b"/><path d="M47 36l-2 1-1-1 1-2c2 0 2 0 2 2zm0 0" fill="#fefefe"/><path d="M27 33l-2 1v-2c0-2 2-2 2-2v3zm0 0" fill="#29282b"/><path d="M27 30h-2l2-1v1zm0 0" fill="#fefefe"/><path d="M237 166c12-3 18-8 22-18 6-13 2-25-4-33-5-9-10-14-10-14s6 5 10 14c6 8 10 20 6 33-4 8-10 14-17 16-3 2-7 2-7 2zm0 0" fill="#445a2f"/></svg>