<svg height="133pt" viewBox="0 0 92 133" width="92pt" xmlns="http://www.w3.org/2000/svg"><path d="m48.65 101.63-1.39-.73c.08-.08.33-.57 0-1.46-.4-1.06-2.2-3.33-8.88-5.68l.5-1.46c5.7 2.03 8.95 4.22 9.85 6.74.57 1.53 0 2.5-.08 2.59zm4.07 1.3c-.24-.57-5.95-14.6 4.9-39.5l1.46.65c-10.6 24.17-4.97 38.12-4.89 38.2zm0 0" fill="#499d3c"/><path d="m67.14 31.55s1.56 11.68 1.88 19.96c.65 15.81-9.94 19.06-14.5 21.73-6.03-11.51-1.06-21.97 4.8-30 5.95-8.12 7.18-8.69 7.82-11.69zm0 0" fill="#385e32"/><path d="m69.02 51.5c-.65-8.27-1.88-19.95-1.88-19.95 0 6.25-3.99 26.85-11.32 39.5-.41.65-.98 1.62-1.3 2.2 4.97-2.36 15.64-6.25 14.5-21.74zm0 0" fill="#385e32"/><path d="m0 89.05s10.92-7.62 19.07-9.24c15.56-3.24 23.3 8.19 24.36 14.92-10.5 7.79-16.78.98-25.83-3.48-8.96-4.54-14.26-3-17.6-2.2zm0 0" fill="#417b39"/><path d="m17.6 91.25c8.97 4.46 15.24 11.1 25.6 3.65-3.02-3.41-9.63-4.7-21.36-7.47-5.54-1.29-13.86-.23-21.43 1.39-.25.16-.41.23-.41.23 3.34-.8 8.64-2.34 17.6 2.2zm74.32-21.98s-13.37-.65-21.1 2.27c-14.92 5.51-15.42 19.3-12.64 25.55 13.04 1.05 14.75-8.04 19.96-16.63 5.22-8.6 10.52-10.14 13.78-11.19zm0 0" fill="#385e32"/><path d="m78.14 80.46c-5.12 8.52-6.92 17.52-19.63 16.63.73-4.47 5.62-9.09 14.02-17.6 3.99-3.98 11.65-7.54 18.9-10.22h.49c-3.26 1.05-8.56 2.6-13.78 11.2zm-56.3-9.41c5.13 7.7 7.98 15.5 20.13 13.55 2.28-6.33.73-20.03-14.5-24.5-7.02-2.02-18.18-.97-20.7-.73h-.09c-.24.09-.4.09-.4.09 3.26.8 8.71 1.94 14.5 10.05l.57.81.08.08c.16.24.25.5.41.65zm0 0" fill="#385e32"/><path d="m51.82 99.27-1.54-.07c.08-.25 1.3-22.96-7.5-34.47l1.22-.9c9.13 11.92 7.9 34.55 7.82 35.44zm0 0" fill="#499d3c"/><path d="m27.79 24.66s10.43 10.7 17.2 18.9c12.87 15.73 6.1 27.65 4.23 34.06-14.34-7.05-18.17-21.73-19.24-34.8-1.05-13.05-.48-14.59-2.2-18.16zm0 0" fill="#417b39"/><g fill="#499d3c"><path d="m44.98 43.56c-7-7.95-17.2-18.9-17.2-18.9 4.9 6.4 17.45 30.74 20.87 49.64.16.97.33 2.35.57 3.32 2.53-6.49 8.88-19.06-4.24-34.06zm0 0"/><path d="m51.82 102.12c-.16-.4-3.01-8.76-2.68-22.88.32-13.05 3.5-33.57 16.95-57.42l1.3.82c-13.2 23.52-16.38 43.7-16.62 56.52-.33 13.87 2.44 22.3 2.52 22.39zm0 0"/><path d="m50.77 103.57c-.08-.32-1.8-8.19.08-20.27 1.8-11.2 7.25-28.23 22.98-45.9l1.14 1.05c-15.4 17.35-20.78 34.05-22.57 45.01-1.88 11.84-.09 19.7-.09 19.79zm0 0"/><path d="m46.04 102.93-1.3-.81c0-.08 4.88-7.96 5.87-22.07.97-12.97-1.23-34.14-17.04-60.9l1.3-.73c16.15 27.08 18.35 48.58 17.29 61.88-1.06 14.43-5.95 22.3-6.11 22.63zm0 0"/></g><path d="m83.2 44.54s-2.04 14.83-4.4 25.22c-4.57 19.78-18.17 21.73-24.37 24.17-3.25-15.58 6.03-27.58 15.73-36.42 9.7-8.92 11.25-9.33 13.04-12.97zm0 0" fill="#417b39"/><path d="m78.8 69.76c2.04-10.47 4.4-25.22 4.4-25.22-2.04 7.78-13.61 32.67-26.57 46.95a31.9 31.9 0 0 0 -2.2 2.44c6.69-1.95 20.54-4.7 24.37-24.17zm0 0" fill="#499d3c"/><path d="m29.09 58.4s.98 11.68 2.45 19.87c2.85 15.57 13.85 16.46 18.9 18.17 3.34-12.57-3.74-21.74-11.24-28.39-7.5-6.57-8.8-6.89-10.11-9.65zm0 0" fill="#417b39"/><path d="m31.54 78.27c-1.15-8.27-2.45-19.87-2.45-19.87 1.3 6.08 9.7 25.39 19.56 36.17.57.49 1.3 1.3 1.8 1.87-5.39-1.22-16.63-2.84-18.91-18.17zm0 0" fill="#499d3c"/><path d="m78.07 67.97s-13.2 1.79-20.3 6.16c-13.6 8.2-11.4 21.82-7.57 27.42 13.03-1.38 13.03-10.7 16.46-20.03 3.5-9.41 8.4-11.93 11.4-13.55zm0 0" fill="#60b238"/><path d="m66.66 81.52c-3.43 9.32-3.43 18.49-16.14 20.03-.16-4.54 3.75-9.98 10.43-19.95 3.18-4.7 10.03-9.58 16.63-13.55.32-.08.49-.08.49-.08-3.02 1.62-7.91 4.14-11.41 13.55zm0 0" fill="#499d3c"/><path d="m63.4 28.47s-7.26-11.51 1.39-16.46c8.71-4.87 12.21-6.81 12.87-9.49 1.3 5.92 4.97 23.68-14.26 25.95zm0 0" fill="#b6ddd3"/><path d="m68.04 20.28c-3.58-2.19-5.46-.4-7.25 1.54.73 3.65 2.6 6.65 2.6 6.65 2.2-.24 4.08-.72 5.71-1.37 1.39-1.38 1.06-5.52-1.06-6.82zm0 0" fill="#faf7cb"/><path d="m65.03 28.07c-.24.57-.98.73-1.63.4-.65-.32-.98-.97-.74-1.54l5.3-10.86c.33-.57 1.06-.73 1.71-.5.65.33.9 1.06.65 1.63zm0 0" fill="#fade20"/><path d="m72.77 40.07s-4.8-12.73 4.73-15.81c9.45-3.08 13.28-4.3 14.5-6.81.08 6.08 0 24.25-19.23 22.62zm0 0" fill="#b6ddd3"/><path d="m78.96 33.02c-3.01-2.93-5.3-1.55-7.41.08 0 3.65 1.22 6.97 1.22 6.97 2.2.16 4.16.08 5.87-.16 1.63-1.14 2.11-5.27.32-6.9zm0 0" fill="#faf7cb"/><path d="m74.4 40c-.33.48-1.14.48-1.71.07-.57-.4-.74-1.21-.33-1.7l7.42-9.57c.32-.49 1.14-.49 1.7-.08.58.4.74 1.21.34 1.7zm0 0" fill="#fade20"/><path d="m38.7 26.2s-13.68-.32-12.95-10.3c.73-9.89 1.06-13.86-.81-15.9 5.7 2.28 22.49 9.1 13.77 26.2zm0 0" fill="#b6ddd3"/><path d="m34.47 17.85c-3.83 1.7-3.42 4.3-2.77 6.9 3.42 1.38 7 1.45 7 1.45a24.8 24.8 0 0 0 2.04-5.43c-.4-1.95-4.07-3.9-6.27-2.92zm0 0" fill="#faf7cb"/><path d="m39.28 24.66c.24.57 0 1.3-.57 1.63-.66.4-1.39.24-1.72-.33l-6.1-10.38c-.33-.57-.09-1.3.57-1.62.56-.4 1.38-.25 1.7.32zm0 0" fill="#fade20"/><path d="m71.3 103.57c0 4.14-8.64 7.63-19.4 7.63-10.67 0-19.3-3.49-19.3-7.63 0-4.21 8.63-7.62 19.3-7.62 10.76 0 19.4 3.4 19.4 7.62zm0 0" fill="#8d613d"/><path d="m67.63 133.18h-31.29c-2.28-10.79-4.64-21.5-6.92-32.28h45.14a4323.6 4323.6 0 0 1 -6.93 32.28zm0 0" fill="#df8d57"/><path d="m52.23 100.9h-22.81c2.28 10.78 4.64 21.5 6.92 32.28h15.9zm0 0" fill="#cc7e40"/><path d="m34.06 122.63c-1.55-7.21-3.1-14.52-4.64-21.73zm0 0" fill="#c4b5a2"/><path d="m52.23 111.2v-10.3h22.33c-.4 2.03-.9 3.97-1.3 6h-1.06a48.31 48.31 0 0 0 -19.97 4.3zm0 0" fill="#b67449"/><path d="m34.71 125.8c-.16-1.06-.4-2.11-.65-3.17-1.55-7.21-3.1-14.52-4.64-21.73h22.81v10.3c-7.09 3.24-13.28 8.19-17.52 14.6zm0 0" fill="#a66638"/><path d="m28.6 106.25h46.7v-5.92h-46.7zm0 0" fill="#df8d57"/><path d="m28.6 106.25h23.55v-5.92h-23.55zm0 0" fill="#cc7e40"/></svg>