<svg height="133pt" viewBox="0 0 137 133" width="137pt" xmlns="http://www.w3.org/2000/svg" xmlns:xlink="http://www.w3.org/1999/xlink"><linearGradient id="a"><stop offset="0" stop-color="#f28f41"/><stop offset="1" stop-color="#f18917"/></linearGradient><linearGradient id="b" gradientTransform="scale(.13923 .14043)" gradientUnits="userSpaceOnUse" x1="2.1" x2="978.22" xlink:href="#a" y1="454.62" y2="454.62"/><linearGradient id="c" gradientTransform="scale(.13923 .14043)" gradientUnits="userSpaceOnUse" x1="3.12" x2="977.94" xlink:href="#a" y1="453.2" y2="453.2"/><linearGradient id="d" gradientTransform="scale(.13923 .14043)" gradientUnits="userSpaceOnUse" x1="3.35" x2="978.13" xlink:href="#a" y1="453.88" y2="453.88"/><linearGradient id="e" gradientTransform="scale(.13923 .14043)" gradientUnits="userSpaceOnUse" x1="3.16" x2="977.98" xlink:href="#a" y1="454.67" y2="454.67"/><linearGradient id="f" gradientTransform="scale(.13923 .14043)" gradientUnits="userSpaceOnUse" x1="45.66" x2="960.76" xlink:href="#a" y1="459.42" y2="459.42"/><linearGradient id="g" gradientTransform="scale(.13923 .14043)" gradientUnits="userSpaceOnUse" x1="17.8" x2="966.71" xlink:href="#a" y1="508.99" y2="508.99"/><linearGradient id="h" gradientTransform="scale(.13923 .14043)" gradientUnits="userSpaceOnUse" x1="3.09" x2="978.03" xlink:href="#a" y1="452.86" y2="452.86"/><linearGradient id="i" gradientTransform="scale(.13923 .14043)" gradientUnits="userSpaceOnUse" x1="2.92" x2="977.81" xlink:href="#a" y1="452.02" y2="452.02"/><linearGradient id="j" gradientTransform="scale(.13923 .14043)" gradientUnits="userSpaceOnUse" x1="3.8" x2="976.12" xlink:href="#a" y1="452.98" y2="452.98"/><linearGradient id="k" gradientTransform="scale(.13923 .14043)" gradientUnits="userSpaceOnUse" x1="14.39" x2="963.26" xlink:href="#a" y1="494.9" y2="494.9"/><linearGradient id="l" gradientTransform="scale(.13923 .14043)" gradientUnits="userSpaceOnUse" x1="2.39" x2="977.32" xlink:href="#a" y1="454.39" y2="454.39"/><linearGradient id="m" gradientTransform="scale(.13923 .14043)" gradientUnits="userSpaceOnUse" x1="10.34" x2="926.55" y1="454.62" y2="454.62"><stop offset="0" stop-color="#fbd5bd"/><stop offset="1" stop-color="#fcd5a3"/></linearGradient><linearGradient id="n" gradientTransform="scale(.13923 .14043)" gradientUnits="userSpaceOnUse" x1="45.06" x2="972.65" y1="454.62" y2="454.62"><stop offset="0" stop-color="#fce2ce"/><stop offset="1" stop-color="#fde1bd"/></linearGradient><linearGradient id="o"><stop offset="0" stop-color="#facda9"/><stop offset="1" stop-color="#fccc85"/></linearGradient><linearGradient id="p" gradientTransform="scale(.13923 .14043)" gradientUnits="userSpaceOnUse" x1="17.13" x2="973.9" xlink:href="#o" y1="454.62" y2="454.62"/><linearGradient id="q" gradientTransform="scale(.13923 .14043)" gradientUnits="userSpaceOnUse" x1="26.06" x2="952.31" xlink:href="#o" y1="454.62" y2="454.62"/><linearGradient id="r"><stop offset="0" stop-color="#f5a351"/><stop offset="1" stop-color="#f5a02d"/></linearGradient><linearGradient id="s" gradientTransform="scale(.13923 .14043)" gradientUnits="userSpaceOnUse" x1="2.33" x2="978.29" xlink:href="#r" y1="454.61" y2="454.61"/><linearGradient id="t" gradientTransform="scale(.13923 .14043)" gradientUnits="userSpaceOnUse" x1="2.1" x2="978.49" xlink:href="#r" y1="454.61" y2="454.61"/><linearGradient id="u" gradientTransform="scale(.13923 .14043)" gradientUnits="userSpaceOnUse" x1="2.11" x2="978.49" xlink:href="#r" y1="454.62" y2="454.62"/><linearGradient id="v" gradientTransform="scale(.13923 .14043)" gradientUnits="userSpaceOnUse" x1="2.94" x2="978.42" xlink:href="#r" y1="454.62" y2="454.62"/><linearGradient id="w" gradientTransform="scale(.13923 .14043)" gradientUnits="userSpaceOnUse" x1="2.14" x2="978.48" xlink:href="#r" y1="454.62" y2="454.62"/><linearGradient id="x" gradientTransform="scale(.13923 .14043)" gradientUnits="userSpaceOnUse" x1="2.08" x2="978.49" xlink:href="#r" y1="454.61" y2="454.61"/><linearGradient id="y" gradientTransform="scale(.13923 .14043)" gradientUnits="userSpaceOnUse" x1="2.1" x2="978.49" xlink:href="#r" y1="454.62" y2="454.62"/><linearGradient id="z" gradientTransform="scale(.13923 .14043)" gradientUnits="userSpaceOnUse" x1="2.09" x2="978.49" xlink:href="#r" y1="454.62" y2="454.62"/><linearGradient id="A" gradientTransform="scale(.13923 .14043)" gradientUnits="userSpaceOnUse" x1="2.29" x2="978.27" xlink:href="#r" y1="454.62" y2="454.62"/><linearGradient id="B" gradientTransform="scale(.13923 .14043)" gradientUnits="userSpaceOnUse" x1="2.11" x2="978.47" xlink:href="#r" y1="454.61" y2="454.61"/><linearGradient id="C" gradientTransform="scale(.13923 .14043)" gradientUnits="userSpaceOnUse" x1="2.1" x2="978.51" xlink:href="#r" y1="454.62" y2="454.62"/><linearGradient id="D" gradientTransform="scale(.13923 .14043)" gradientUnits="userSpaceOnUse" x1="2.13" x2="978.23" xlink:href="#r" y1="454.62" y2="454.62"/><linearGradient id="E"><stop offset="0" stop-color="#ed7b28"/><stop offset="1" stop-color="#d77624"/></linearGradient><linearGradient id="F" gradientTransform="scale(.13923 .14043)" gradientUnits="userSpaceOnUse" x1="5.2" x2="975.68" xlink:href="#E" y1="454.62" y2="454.62"/><linearGradient id="G" gradientTransform="scale(.13923 .14043)" gradientUnits="userSpaceOnUse" x1="2.1" x2="978.49" xlink:href="#E" y1="454.62" y2="454.62"/><linearGradient id="H" gradientTransform="scale(.13923 .14043)" gradientUnits="userSpaceOnUse" x1="2.07" x2="978.49" xlink:href="#E" y1="454.62" y2="454.62"/><linearGradient id="I" gradientTransform="scale(.13923 .14043)" gradientUnits="userSpaceOnUse" x1="2.11" x2="978.49" xlink:href="#E" y1="454.62" y2="454.62"/><linearGradient id="J" gradientTransform="scale(.13923 .14043)" gradientUnits="userSpaceOnUse" x1="2.88" x2="978.19" xlink:href="#E" y1="454.62" y2="454.62"/><linearGradient id="K" gradientTransform="scale(.13923 .14043)" gradientUnits="userSpaceOnUse" x1="2.12" x2="978.48" xlink:href="#E" y1="454.62" y2="454.62"/><linearGradient id="L"><stop offset="0" stop-color="#ef8e3d"/><stop offset="1" stop-color="#e2881e"/></linearGradient><linearGradient id="M" gradientTransform="scale(.13923 .14043)" gradientUnits="userSpaceOnUse" x1="2.11" x2="978.49" xlink:href="#L" y1="454.61" y2="454.61"/><linearGradient id="N" gradientTransform="scale(.13923 .14043)" gradientUnits="userSpaceOnUse" x1="113.91" x2="840.03" xlink:href="#E" y1="454.62" y2="454.62"/><linearGradient id="O" gradientTransform="scale(.13923 .14043)" gradientUnits="userSpaceOnUse" x1="10.02" x2="970.25" xlink:href="#E" y1="454.62" y2="454.62"/><linearGradient id="P" gradientTransform="scale(.13923 .14043)" gradientUnits="userSpaceOnUse" x1="2.11" x2="978.47" xlink:href="#E" y1="454.62" y2="454.62"/><linearGradient id="Q" gradientTransform="scale(.13923 .14043)" gradientUnits="userSpaceOnUse" x1="2.11" x2="978.48" xlink:href="#E" y1="454.62" y2="454.62"/><linearGradient id="R" gradientTransform="scale(.13923 .14043)" gradientUnits="userSpaceOnUse" x1="2.1" x2="978.49" xlink:href="#E" y1="454.61" y2="454.61"/><linearGradient id="S" gradientTransform="scale(.13923 .14043)" gradientUnits="userSpaceOnUse" x1="2.09" x2="978.49" xlink:href="#E" y1="454.63" y2="454.63"/><linearGradient id="T" gradientTransform="scale(.13923 .14043)" gradientUnits="userSpaceOnUse" x1="2.11" x2="978.49" xlink:href="#E" y1="454.61" y2="454.61"/><linearGradient id="U" gradientTransform="scale(.13923 .14043)" gradientUnits="userSpaceOnUse" x1="2.07" x2="978.5" xlink:href="#E" y1="454.62" y2="454.62"/><linearGradient id="V" gradientTransform="scale(.13923 .14043)" gradientUnits="userSpaceOnUse" x1="2.13" x2="978.48" xlink:href="#E" y1="454.62" y2="454.62"/><linearGradient id="W"><stop offset="0" stop-color="#e7c7b0"/><stop offset="1" stop-color="#dfc29f"/></linearGradient><linearGradient id="X" gradientTransform="scale(.13923 .14043)" gradientUnits="userSpaceOnUse" x1="83.13" x2="953.36" xlink:href="#W" y1="454.62" y2="454.62"/><linearGradient id="Y" gradientTransform="scale(.13923 .14043)" gradientUnits="userSpaceOnUse" x1="2.08" x2="978.5" xlink:href="#L" y1="454.63" y2="454.63"/><linearGradient id="Z" gradientTransform="scale(.13923 .14043)" gradientUnits="userSpaceOnUse" x1="2.09" x2="978.49" xlink:href="#L" y1="454.61" y2="454.61"/><linearGradient id="aa"><stop offset="0" stop-color="#d26926"/><stop offset="1" stop-color="#b96628"/></linearGradient><linearGradient id="ab" gradientTransform="scale(.13923 .14043)" gradientUnits="userSpaceOnUse" x1="2.01" x2="978.52" xlink:href="#aa" y1="454.62" y2="454.62"/><linearGradient id="ac" gradientTransform="scale(.13923 .14043)" gradientUnits="userSpaceOnUse" x1="2.07" x2="978.51" xlink:href="#aa" y1="454.61" y2="454.61"/><linearGradient id="ad"><stop offset="0" stop-color="#d07631"/><stop offset="1" stop-color="#c47427"/></linearGradient><linearGradient id="ae" gradientTransform="scale(.13923 .14043)" gradientUnits="userSpaceOnUse" x1="2.13" x2="978.47" xlink:href="#ad" y1="454.62" y2="454.62"/><linearGradient id="af" gradientTransform="scale(.13923 .14043)" gradientUnits="userSpaceOnUse" x1="2.16" x2="978.3" xlink:href="#aa" y1="454.62" y2="454.62"/><linearGradient id="ag" gradientTransform="scale(.13923 .14043)" gradientUnits="userSpaceOnUse" x1="2.25" x2="978.41" xlink:href="#E" y1="454.61" y2="454.61"/><linearGradient id="ah" gradientTransform="scale(.13923 .14043)" gradientUnits="userSpaceOnUse" x1="122.28" x2="925.57" xlink:href="#W" y1="454.62" y2="454.62"/><linearGradient id="ai" gradientTransform="scale(.13923 .14043)" gradientUnits="userSpaceOnUse" x1="2.52" x2="978.26" xlink:href="#L" y1="454.61" y2="454.61"/><linearGradient id="aj" gradientTransform="scale(.13923 .14043)" gradientUnits="userSpaceOnUse" x1="2.08" x2="978.51" xlink:href="#aa" y1="454.57" y2="454.57"/><linearGradient id="ak" gradientTransform="scale(.13923 .14043)" gradientUnits="userSpaceOnUse" x1="2.1" x2="978.49" xlink:href="#aa" y1="454.61" y2="454.61"/><linearGradient id="al" gradientTransform="scale(.13923 .14043)" gradientUnits="userSpaceOnUse" x1="2.08" x2="978.5" xlink:href="#aa" y1="454.61" y2="454.61"/><linearGradient id="am" gradientTransform="scale(.13923 .14043)" gradientUnits="userSpaceOnUse" x1="2.3" x2="978.27" y1="454.57" y2="454.57"><stop offset="0" stop-color="#b55c28"/><stop offset="1" stop-color="#a25927"/></linearGradient><linearGradient id="an" gradientTransform="scale(.13923 .14043)" gradientUnits="userSpaceOnUse" x1="2.1" x2="978.48" xlink:href="#E" y1="454.62" y2="454.62"/><linearGradient id="ao" gradientTransform="scale(.13923 .14043)" gradientUnits="userSpaceOnUse" x1="2.1" x2="978.49" xlink:href="#L" y1="454.62" y2="454.62"/><linearGradient id="ap" gradientTransform="scale(.13923 .14043)" gradientUnits="userSpaceOnUse" x1="2.1" x2="978.49" xlink:href="#ad" y1="454.62" y2="454.62"/><linearGradient id="aq"><stop offset="0" stop-color="#e27225"/><stop offset="1" stop-color="#cd6f26"/></linearGradient><linearGradient id="ar" gradientTransform="scale(.13923 .14043)" gradientUnits="userSpaceOnUse" x1="2.1" x2="978.51" xlink:href="#aq" y1="454.6" y2="454.6"/><linearGradient id="as" gradientTransform="scale(.13923 .14043)" gradientUnits="userSpaceOnUse" x1="2.11" x2="978.44" y1="454.68" y2="454.68"><stop offset="0" stop-color="#ddb293"/><stop offset="1" stop-color="#d4ad80"/></linearGradient><linearGradient id="at" gradientTransform="scale(.13923 .14043)" gradientUnits="userSpaceOnUse" x1="2.17" x2="978.16" y1="454.62" y2="454.62"><stop offset="0" stop-color="#f6a868"/><stop offset="1" stop-color="#f6a427"/></linearGradient><linearGradient id="au"><stop offset="0" stop-color="#5c953a"/><stop offset="1" stop-color="#74b734"/></linearGradient><linearGradient id="av" gradientTransform="scale(.13923 .14043)" gradientUnits="userSpaceOnUse" x1="494.54" x2="495.1" xlink:href="#au" y1="330.21" y2="270.03"/><linearGradient id="aw"><stop offset="0" stop-color="#89a532"/><stop offset="1" stop-color="#9cc229"/></linearGradient><linearGradient id="ax" gradientTransform="scale(.13923 .14043)" gradientUnits="userSpaceOnUse" x1="497.02" x2="497.6" xlink:href="#aw" y1="330.21" y2="270.03"/><linearGradient id="ay"><stop offset="0" stop-color="#476d34"/><stop offset="1" stop-color="#4f873a"/></linearGradient><linearGradient id="az" gradientTransform="scale(.13923 .14043)" gradientUnits="userSpaceOnUse" x1="496.65" x2="497.23" xlink:href="#ay" y1="330.21" y2="270.03"/><linearGradient id="aA"><stop offset="0" stop-color="#4d7b37"/><stop offset="1" stop-color="#59993a"/></linearGradient><linearGradient id="aB" gradientTransform="scale(.13923 .14043)" gradientUnits="userSpaceOnUse" x1="493.56" x2="494.12" xlink:href="#aA" y1="330.21" y2="270.03"/><linearGradient id="aC"><stop offset="0" stop-color="#aac16b"/><stop offset="1" stop-color="#b7d275"/></linearGradient><linearGradient id="aD" gradientTransform="scale(.13923 .14043)" gradientUnits="userSpaceOnUse" x1="496.61" x2="497.19" xlink:href="#aC" y1="330.21" y2="270.03"/><linearGradient id="aE"><stop offset="0" stop-color="#becb67"/><stop offset="1" stop-color="#cada72"/></linearGradient><linearGradient id="aF" gradientTransform="scale(.13923 .14043)" gradientUnits="userSpaceOnUse" x1="496.61" x2="497.19" xlink:href="#aE" y1="330.21" y2="270.03"/><linearGradient id="aG"><stop offset="0" stop-color="#a5b629"/><stop offset="1" stop-color="#b4cd2b"/></linearGradient><linearGradient id="aH" gradientTransform="scale(.13923 .14043)" gradientUnits="userSpaceOnUse" x1="496.84" x2="497.41" xlink:href="#aG" y1="330.21" y2="270.03"/><linearGradient id="aI"><stop offset="0" stop-color="#ced489"/><stop offset="1" stop-color="#d6e191"/></linearGradient><linearGradient id="aJ" gradientTransform="scale(.13923 .14043)" gradientUnits="userSpaceOnUse" x1="496.61" x2="497.19" xlink:href="#aI" y1="330.21" y2="270.03"/><linearGradient id="aK" gradientTransform="scale(.13923 .14043)" gradientUnits="userSpaceOnUse" x1="388.53" x2="253.12" xlink:href="#au" y1="272.62" y2="186"/><linearGradient id="aL" gradientTransform="scale(.13923 .14043)" gradientUnits="userSpaceOnUse" x1="387.07" x2="250.57" xlink:href="#aw" y1="272.62" y2="186"/><linearGradient id="aM" gradientTransform="scale(.13923 .14043)" gradientUnits="userSpaceOnUse" x1="2.1" x2="978.5" xlink:href="#aq" y1="454.61" y2="454.61"/><linearGradient id="aN" gradientTransform="scale(.13923 .14043)" gradientUnits="userSpaceOnUse" x1="388.3" x2="254.43" xlink:href="#aA" y1="272.62" y2="186"/><linearGradient id="aO" gradientTransform="scale(.13923 .14043)" gradientUnits="userSpaceOnUse" x1="388.14" x2="249.84" xlink:href="#aC" y1="272.62" y2="186"/><linearGradient id="aP" gradientTransform="scale(.13923 .14043)" gradientUnits="userSpaceOnUse" x1="388.19" x2="250.66" xlink:href="#aC" y1="272.62" y2="186"/><linearGradient id="aQ" gradientTransform="scale(.13923 .14043)" gradientUnits="userSpaceOnUse" x1="387.6" x2="249.81" xlink:href="#aE" y1="272.62" y2="186"/><linearGradient id="aR" gradientTransform="scale(.13923 .14043)" gradientUnits="userSpaceOnUse" x1="361.46" x2="329.34" xlink:href="#au" y1="388.51" y2="338.05"/><linearGradient id="aS" gradientTransform="scale(.13923 .14043)" gradientUnits="userSpaceOnUse" x1="360.66" x2="328.68" xlink:href="#aw" y1="388.4" y2="338.76"/><linearGradient id="aT" gradientTransform="scale(.13923 .14043)" gradientUnits="userSpaceOnUse" x1="359.86" x2="327.09" xlink:href="#ay" y1="388.51" y2="338.06"/><linearGradient id="aU" gradientTransform="scale(.13923 .14043)" gradientUnits="userSpaceOnUse" x1="360.31" x2="327.67" xlink:href="#aA" y1="388.51" y2="338.05"/><linearGradient id="aV" gradientTransform="scale(.13923 .14043)" gradientUnits="userSpaceOnUse" x1="359.96" x2="327.16" xlink:href="#aC" y1="388.51" y2="338.05"/><linearGradient id="aW" gradientTransform="scale(.13923 .14043)" gradientUnits="userSpaceOnUse" x1="359.81" x2="327.06" xlink:href="#aE" y1="388.34" y2="338.93"/><linearGradient id="aX" gradientTransform="scale(.13923 .14043)" gradientUnits="userSpaceOnUse" x1="359.98" x2="327.19" y1="388.5" y2="338.06"><stop offset="0" stop-color="#9db06a"/><stop offset="1" stop-color="#aac472"/></linearGradient><linearGradient id="aY" gradientTransform="scale(.13923 .14043)" gradientUnits="userSpaceOnUse" x1="358.79" x2="327.1" xlink:href="#aG" y1="388.51" y2="338.05"/><linearGradient id="aZ" gradientTransform="scale(.13923 .14043)" gradientUnits="userSpaceOnUse" x1="359.63" x2="327.29" xlink:href="#aI" y1="388.51" y2="338.05"/><linearGradient id="a0" gradientTransform="scale(.13923 .14043)" gradientUnits="userSpaceOnUse" x1="388.14" x2="249.84" xlink:href="#aA" y1="272.62" y2="185.97"/><linearGradient id="a1"><stop offset="0" stop-color="#486532"/><stop offset="1" stop-color="#4a7e39"/></linearGradient><linearGradient id="a2" gradientTransform="scale(.13923 .14043)" gradientUnits="userSpaceOnUse" x1="388.15" x2="249.9" xlink:href="#a1" y1="272.61" y2="185.95"/><linearGradient id="a3" gradientTransform="scale(.13923 .14043)" gradientUnits="userSpaceOnUse" x1="496.6" x2="497.19" xlink:href="#a1" y1="330.21" y2="270.03"/><path d="m136.72 62.78c.28 4.5-56.52 69.37-62.1 70.22-5.7.83-74.48-60.4-74.48-65.03 0-.27-.42-4.2.14-4.91.13-.14.42.28.83.84.28.7.7 1.26.98.99 10.44-13.35 58.75-60.25 63.35-60.25 5.29 0 56.38 41.57 68.64 54.49.42.56.83 0 1.25-.56.42-.57.7-.99.84-.7.55.56.55 4.63.55 4.9zm0 0" fill="#db3d25"/><g fill-rule="evenodd"><path d="m73.38 125.83h-.42c-3.35-.84-17.83-11.94-38.01-28.79-.56-.42-1.25-.98-1.82-1.4a3.7 3.7 0 0 1 2.23-.84c1.26 0 1.96.98 3.07 2.24 1.39 1.26 7.66 6.74 15.31 8.15.42.14.7.28.84.42.28.14.41.14.7.14.27 0 .69 0 .97-.14h1.4c1.24 0 2.5-.14 3.75-.42-.56.7-1.11 1.4-1.4 1.82-1.1 1.4-.41 1.83.98 3.1.56.55 1.25 1.12 2.09 1.82 1.95 1.96 5.3 4.63 7.93 5.61.29.14.43.28.57.42h1.1c1.54 0 4.18-1.96 6.27-4.07.28-.14 4.6-4.07 5.85-7.02.28-.42.42-.84.42-1.12.14-.28 0-.56-.28-.98 0-.14-.14-.43-.41-.57a18.42 18.42 0 0 0 -3.9-3.09c1.8-.27 3.61-.41 5.29-.7 1.1 1.13 2.22 2.11 3.2 2.4h.28c.83 0 2.64-1.42 4.59-3.1a40.05 40.05 0 0 0 4.87-4.77c1.54-1.69 2.65-3.1 2.65-3.37v-.14c.14-.43-.7-1.27-1.81-2.11.7-1.4 1.25-2.95 1.8-4.5 1.4 1.13 2.65 2.11 3.07 2.11l.14.14h.14c.56-.14 5.15-5.2 8.08-8.7h.14c.13 0 .83-1.13 1.52-1.97.56-.7.84-1.26.84-1.4 0-.57-7.1-6.46-10.44-9a44.14 44.14 0 0 0 -.98-7.3c1.95-1.12 6.13-4.9 10.58-9.83 1.26-1.4 2.37-2.66 3.49-3.92 4.45 3.23 7.8 5.61 8.35 5.61.56 0-.84-1.4-4.73-4.91-10.59-9.55-24.51-20.65-34.25-28.23.41-.56.7-1.13 1.11-1.69 20.6 16.16 47.48 39.18 47.62 42.13-.98 1.7-6.4 9.55-7.66 11.38-.14 0-.14.14-.28.14-2.92 3.8-37.03 41.7-39.68 44.51-2.78 2.82-11.56 11.94-15.17 11.94zm62.79-67.97c.14.7-1.67 3.37-4.46 7.17 2.79-4.36 4.46-7.03 4.46-7.17zm-29.66 5.48-.14.14c-.42.56 3.34 4.63 8.5 9.13 1.25 1.12 2.36 1.96 3.47 2.95-3.9 4.5-8.35 9.83-13.22 15.44-15.87 18.4-30.35 32.86-29.8 33.43 1.26 0 15.46-13.06 31.06-31.04 15.87-18.4 27.56-34.54 27-35.1-.7 0-5.7 6.17-13.36 15.3-1.11-.98-2.09-1.97-3.34-2.95-4.74-4.21-9.06-7.3-10.17-7.3zm-48.03 50h-.28c-.42.55 2.78 4.2 5.7 6.32 2.51 1.96 7.1 4.06 8.22 4.06.28 0 .28 0 .42-.14.42-.56-3.9-3.92-6.82-6.04-2.5-1.96-6.27-4.2-7.24-4.2zm58.61-43.82c.84.56 1.4.98 1.68.98.7 0 6.54-6.46 7.93-8.42 1.67-1.83 2.78-3.37 2.78-3.65h-.14.14l-.14-.14c-.27-.29-1.25-1.4-2.78-2.67-2.64-2.53-6.69-6.04-9.19-7.16h-.14s-.14 0-.28.14c-.14.13-.41.42-.83.7a41.1 41.1 0 0 0 -3.9 3.37 118.31 118.31 0 0 0 -4.45 4.63c-.98 1.13-1.82 1.97-1.82 2.11 0 0 .14.14.14.28.42.42 1.4 1.83 2.51 2.53 0 .42 5.57 5.2 8.5 7.3zm-94.82 16.29c-2.5-2.39-5-4.63-7.23-6.88-7.52-7.16-12.54-12.78-14.2-14.6-.43-.57-.56-.99-.56-1.27 0-.7 1.67-2.95 4.6-6.18-.28.56-.28 1.12-.28 1.12.13 0 .13 0 .13-.14a9.17 9.17 0 0 1 2.79-2.1c-2.65 2.8-4.46 5.05-4.88 6.04-1.24 3.79 3.49 6.3 9.9 12.2 3.61 3.23 6.53 4.78 7.65 4.78.97 0 .97-.99-.56-2.81-5.15-5.9-17.96-11.66-12.25-16.3.98-.7 2.5-2.1 4.46-3.78.55.28 1.1.7 1.66 1.12-2.78 2.67-6.12 5.9-6.12 6.32s1.67 1.96 3.9 3.93a30.6 30.6 0 0 0 3.48 3.23 7.93 7.93 0 0 0 5.43 4.36c.55.28.97.56 1.11.56.15 0 .42-.28.84-.56 3.2-.43 5.43-3.1 5.7-5.48.15-.28.42-.56.56-.84 0 4.07-4.73 5.47-5.99 16.57-.14.28-.14.42-.14.7zm81.32-28.65c-.14-.7-.42-1.54-.7-2.25.83-.84 2.09-2.24 3.34-3.64 1.68-1.7 3.07-3.23 3.2-3.66 1.68-1.96 2.93-3.5 2.93-3.79 0-.28-1.95-1.96-4.18-3.93-2.36-2.1-5.29-4.64-7.38-5.76-.28-.14-.55-.28-.7-.28-.27 0-1.39.99-2.92 2.25-.7.7-1.53 1.4-2.09 1.96-.97.85-1.66 1.69-2.37 2.25-1.25-.7-2.5-1.26-3.61-1.83a9.86 9.86 0 0 0 3.2-1.68c.7 0 6.26-3.51 7.24-6.18l.14.14c3.62 2.95 10.16 8 15.87 12.36-1.11 1.12-2.23 2.25-3.34 3.5-4.04 4.36-7.24 8.3-8.63 10.54zm-77.55-.84a8.13 8.13 0 0 0 -4.74-1.4h-1.25c-1.12-.7-1.95-1.27-2.09-1.27s-.14 0-.14.14c0-.14-.14-.14-.14-.14-.28 0-1.39.98-2.78 2.25a8.73 8.73 0 0 0 -1.67-1.27c1.53-1.54 3.34-3.09 5-4.77a7.92 7.92 0 0 0 6.41 4.77h1.25c0 .57.15 1.13.15 1.69zm-18.38-2.67c4.04-4.5 9.46-10.11 15.45-16 0 .55.14 1.26.28 1.82a8.01 8.01 0 0 0 -5.57 5.76c-2.64 2.8-5.57 5.61-8.07 8.14h-.42c-.56 0-1.12.14-1.53.28zm22.27-12.92c-.7-.42-1.39-.84-2.08-1.12 2.22-2.95 3.34-5.2 2.08-5.76 0 0-2.22 1.97-5.29 5.06 0-.99.15-1.83.28-2.53.14-.28.14-.56.28-.84 1.81-1.83 3.62-3.65 5.43-5.34.42.84.84 1.83 1.4 2.8a34.12 34.12 0 0 0 3.06 4.78c-.56.28-1.26.7-1.96.99a10.44 10.44 0 0 0 -3.2 1.96zm-6.54-2.39c0-.28-.14-.56-.14-.84l.14-.14zm71.29-5.2v-.27c0-.42-.14-.7-.28-.98 1.11-1.27 1.81-2.11 1.81-2.4 0-.27-2.51-2.38-5.3-4.63 0-.42-.13-.98-.41-1.4 2.36 1.83 4.6 3.5 6.4 5.06.42.98-.83 2.8-2.22 4.63zm-21.16-10.37c-.14 0-.29 0-.43-.14.7-.7 1.26-1.27 1.68-1.83l.14-.14c-.56.7-.98 1.4-1.4 2.1zm-16.72-.99c-2.64-2.1-5.14-4.07-5.56-4.07s-2.1 1.26-3.9 2.81c-1.4-.98-2.79-1.69-4.18-2.24 11-10.28 20.34-18.28 22.14-18.28 2.09 0 11 6.33 21.86 14.61-.28.57-.56 1.26-.98 1.83-4.45-3.38-7.8-6.05-9.33-7.3-4.59-3.8-8.77-7.87-11.41-7.87h-.28c-2.64.14-21.72 17.7-17.27 17.7h.15l3.06-3.1a15.8 15.8 0 0 0 2.64 2.81c2.09 1.7 3.9 2.8 4.6 2.8.14 0 .27 0 .27-.13.43-.42-1.1-2.39-3.48-4.35-1.1-.85-2.08-1.68-3.06-2.1 4.46-4.36 11-10.26 13.65-10.26.13 0 .41 0 .55.14a963.9 963.9 0 0 1 16.71 12.64h-1.12c-2.36 0-4.73.85-6.54 2.67 1.81-1.82 3.2-3.51 3.2-3.8-.13-.42-3.47-3.09-6.95-5.75a37.83 37.83 0 0 0 -5.72-3.93 3.9 3.9 0 0 0 -1.1-.7c-.29 0-.42.14-.7.42-.42.28-.98.84-1.82 1.4-.7.56-1.52 1.4-2.5 2.4-1.12.97-2.23 2.1-3.2 3.07-1.4 1.41-2.23 2.26-2.1 2.4 0 .27 1.12 1.4 2.8 2.94v.14c0 .28 1.11 1.41 2.64 2.8-.98 0-1.95.15-3.07.3zm7.94-15.88" fill="url(#b)"/><path d="m112.36 43.82c0 .7-9.75 11.8-10.72 12.08-.98.14-12.81-10.4-12.81-11.24 0-.7 10.44-10.8 11.28-10.8.97 0 12.11 9.12 12.25 9.96zm0 0" fill="url(#c)"/><path d="m129.48 58.43c0 .84-9.75 11.93-10.71 12.07-.98.14-12.82-10.4-12.82-11.09 0-.7 10.44-10.95 11.28-10.95.97 0 12.25 9.26 12.25 9.97zm0 0" fill="url(#d)"/><path d="m115.42 75c0 .84-9.6 11.93-10.58 12.07s-12.81-10.39-12.81-11.09c0-.84 10.3-10.95 11.14-10.95 1.12 0 12.25 9.26 12.25 9.97zm0 0" fill="url(#e)"/><path d="m95.23 86.09s6.69 4.21 6.27 5.34c-.28 1.12-10.17 11.8-12.4 11.23-2.08-.56-5.42-5.05-6.4-5.48-.97-.56 12.53-11.09 12.53-11.09zm0 0" fill="url(#f)"/><path d="m77.55 99.29s7.93 4.21 7.66 6.46c-.14 2.1-10.44 13.63-13.64 12.21-3.07-1.54-12.4-8.42-11.84-10.25.56-1.96 9.47-11.51 17.82-8.42zm0 0" fill="url(#g)"/><path d="m96.21 29.5c0 .84-11.14 12.5-12.12 12.5-.97.14-12.39-10.82-12.25-11.66 0-.7 10.59-10.95 11.56-10.95s12.81 9.4 12.81 10.1zm0 0" fill="url(#h)"/><path d="m78.53 16.3c0 .84-9.47 10.67-10.45 10.8-.97.15-13.64-10.66-13.64-11.5 0-.7 9.47-9.7 10.3-9.7.98.15 13.65 9.7 13.79 10.4zm0 0" fill="url(#i)"/><path d="m64.33 28.8c0 .7-9.75 10.1-10.73 10.25-.97 0-13.23-11.38-13.23-12.22.15-.7 9.9-9.27 10.87-9.13s13.22 10.25 13.09 11.1zm0 0" fill="url(#j)"/><path d="m60.57 86.93s7.93 4.36 7.65 6.6c-.14 2.1-10.44 13.48-13.64 12.08-3.06-1.4-12.4-8.29-11.84-10.25.56-1.83 9.47-11.38 17.83-8.43zm0 0" fill="url(#k)"/><path d="m31.33 64.04c0 .85-9.33 10.67-10.3 10.82-.98.14-13.65-10.68-13.65-11.52 0-.7 9.47-9.69 10.3-9.69.98.14 13.65 9.69 13.65 10.4zm0 0" fill="url(#l)"/><path d="m20.19 78.79c-1.12 0-4.04-1.55-7.66-4.78-6.4-5.9-11.14-8.42-9.89-12.21.42-.99 2.23-3.23 4.88-6.04a4.25 4.25 0 0 1 1.8-.42c.84 0 1.68.14 2.52.56-1.96 1.68-3.48 3.09-4.46 3.79-5.7 4.63 7.1 10.4 12.25 16.29 1.53 1.82 1.53 2.8.56 2.8zm-6.96-24.16a6.2 6.2 0 0 0 -2.78-1.12c-.29-.14-.43-.14-.7-.14 2.5-2.53 5.43-5.33 8.07-8.14 0 .42 0 .7-.14.98a8.04 8.04 0 0 0 .56 3.65c-1.67 1.68-3.48 3.23-5.01 4.77zm14.62-15.02c-.56-.14-1.12-.28-1.81-.28-.15-.14-.42-.14-.7-.14s-.55 0-.84.14c0-.14 0-.28.14-.42 3.07-3.1 5.3-5.06 5.3-5.06 1.25.56.13 2.81-2.1 5.76zm0 0" fill="url(#m)"/><path d="m104 58.7c-.14-.56-.14-.98-.41-1.54 1.39-2.25 4.59-6.18 8.63-10.53 1.11-1.26 2.23-2.39 3.34-3.5a776.86 776.86 0 0 1 -15.87-12.37l-.14-.14c-.98 2.68-6.55 6.18-7.25 6.18 1.53-1.12 2.37-2.53 2.37-3.65 1.39-1.83 2.64-3.65 2.23-4.63-1.82-1.55-4.05-3.23-6.41-5.06a8.53 8.53 0 0 0 -2.09-3.37 9.17 9.17 0 0 0 -1.8-1.41l.83-1.26c9.75 7.58 23.67 18.68 34.26 28.23 3.9 3.5 5.29 4.91 4.73 4.91s-3.9-2.38-8.35-5.61c-1.12 1.26-2.23 2.52-3.49 3.92-4.45 4.92-8.63 8.71-10.58 9.84zm-45.66-37.2c-.7 0-2.51-1.12-4.6-2.81a15.8 15.8 0 0 1 -2.64-2.8l-3.06 3.08h-.15c-4.45 0 14.63-17.55 17.27-17.69h.28c2.64 0 6.82 4.07 11.41 7.87 1.54 1.25 4.88 3.92 9.33 7.3l-.83 1.68c-.7-.42-1.53-.56-2.37-.7a963.9 963.9 0 0 0 -16.7-12.64c-.15-.14-.43-.14-.56-.14-2.65 0-9.2 5.9-13.65 10.25.98.43 1.95 1.26 3.06 2.11 2.37 1.96 3.9 3.93 3.48 4.35 0 .14-.13.14-.27.14zm0 0" fill="url(#n)"/><path d="m75.32 124.43c-.55-.57 13.93-15.03 29.8-33.43 4.87-5.61 9.33-10.95 13.22-15.44-1.1-.99-2.22-1.83-3.48-2.95-5.15-4.5-8.9-8.57-8.48-9.13l.13-.14c1.11 0 5.43 3.09 10.17 7.3 1.25.98 2.23 1.97 3.34 2.95 7.65-9.13 12.67-15.3 13.36-15.3.56.56-11.13 16.7-27 35.1-15.6 17.98-29.8 31.04-31.06 31.04zm0 0" fill="url(#p)"/><path d="m72.12 123.72c-1.12 0-5.7-2.1-8.21-4.06-2.93-2.12-6.13-5.77-5.71-6.33h.28c.97 0 4.73 2.25 7.24 4.21 2.92 2.12 7.24 5.48 6.82 6.04-.14.14-.14.14-.42.14zm0 0" fill="url(#q)"/><path d="m73.1 22.62h-.14c.7-.57 1.25-1.27 1.8-1.83-.4.56-.97 1.12-1.67 1.83zm-13.23-1.13c-1.53-1.4-2.65-2.53-2.65-2.81v-.14l3.2 2.8c-.13 0-.28.15-.55.15zm0 0" fill="url(#s)"/></g><path d="m72.96 22.62c-.28 0-.56-.14-.84-.14 1.4-1.4 2.65-2.81 2.65-3.1 0-.27-2.1-1.96-4.04-3.37a9.2 9.2 0 0 0 -1.67-1.26c-.28-.14-.56-.42-1.11-.56-.15-.14-.29-.28-.42-.28a7.98 7.98 0 0 0 -1.81-.57c-.56 0-2.65 1-3.49 1.55-1.94 1.4-3.05 3.23-2.5 4.07.14.29.56.43.98.43.41 0 .83-.14 1.39-.28.13.14.97 1.12 2.23 2.1h-.56c-1.12 0-2.09 0-3.34.14l-3.2-2.81s.13 0 .13-.13c1.12-1.41 7.24-7.31 7.94-7.31.83.14 10.58 7.58 10.58 8.15 0 .14-.42.7-1.11 1.54-.56.56-1.12 1.26-1.81 1.83zm0 0" fill="#ee772d"/><path d="m106.23 51.27 3.2-3.66c-.13.43-1.52 1.97-3.2 3.66zm0 0" fill="url(#t)" fill-rule="evenodd"/><path d="m102.75 54.77a25.62 25.62 0 0 0 -2.09-4.35v-.14c.98 1.12 1.95 2.1 2.23 2.1.14 0 1.11-.84 2.23-1.96.28-.28.7-.56.97-.84.42-.42.7-.85.98-1.26.7-.7 1.11-1.27 1.11-1.41 0-.42-5.7-5.05-6.12-5.05-.28 0-2.51 2.1-3.76 3.37a12.9 12.9 0 0 0 -2.23-2.53c1.67-1.69 3.34-3.1 3.76-3.1.83.15 9.6 7.31 9.74 7.87l-.13.14-3.2 3.66a42.27 42.27 0 0 1 -3.49 3.5zm0 0" fill="url(#u)" fill-rule="evenodd"/><path d="m118.77 70.5c.7-.14 5-4.91 7.93-8.42-1.4 1.96-7.24 8.42-7.93 8.42zm-1.68-.98c-2.92-2.1-8.49-6.88-8.49-7.3 2.5 2.39 6.26 5.62 8.5 7.3zm0 0" fill="url(#v)" fill-rule="evenodd"/><path d="m118.77 70.5c-.14 0-.84-.42-1.68-.98a117.62 117.62 0 0 1 -8.49-7.3s.13-.14.28-.42c1.39-1.7 7.52-7.17 8.77-7.73h.14c.7 0 9.33 6.88 9.33 7.45 0 .14-.14.28-.42.56-2.92 3.5-7.24 8.28-7.93 8.42zm-4.88-10.1c-1.53 1.4-2.78 2.8-2.78 2.94 0 .56 7.37 6.6 8.07 6.6.55 0 6.54-6.6 6.54-7.02 0-.28-1.39-1.4-2.92-2.67.14-.14.14-.14.14-.28.56-.56-.42-2.1-2.09-3.09a8.22 8.22 0 0 0 -2.65-1.12c-.55 0-2.08.84-2.64 1.12-1.67 1.12-2.5 2.67-2.09 3.23.14.14.28.28.42.28zm0 0" fill="url(#w)" fill-rule="evenodd"/><path d="m104.56 86.93c-.42 0-1.67-.98-3.06-2.1a16.93 16.93 0 0 0 3.06 2.1zm0 0" fill="url(#x)" fill-rule="evenodd"/><path d="m104.7 87.07s-.14 0-.14-.14c-.42-.14-1.67-.98-3.06-2.1.42-1.27.97-2.67 1.25-3.94 1.4 1.13 3.76 3.1 4.04 3.1.42-.15 4.04-4.08 4.04-4.36s-4.18-3.51-4.45-3.65c-.29 0-1.68 1.26-2.93 2.39.27-1.27.55-2.39.84-3.66.13-.14.13-.14.27-.14h.14c1.67.57 7.52 2.81 8.22 3.66-.84 1.4-7.52 8.7-8.22 8.84zm0 0" fill="url(#y)" fill-rule="evenodd"/><path d="m93.98 99.71a81.03 81.03 0 0 0 4.87-4.77c-.55.7-2.64 2.95-4.87 4.77zm0 0" fill="url(#z)" fill-rule="evenodd"/><path d="m72.68 117.96h-.14c1.67-.28 4.18-2.1 6.54-4.35 0 .14 0 .14-.14.28-2.09 2.11-4.73 4.07-6.26 4.07zm-1.68-.42c-2.64-.98-5.98-3.65-7.93-5.61.14.28.42.42.7.56 0 .14.14.14.14.28h.14a44.1 44.1 0 0 0 6.95 4.77zm0 0" fill="url(#A)" fill-rule="evenodd"/><path d="m72.54 117.96c-.42 0-.97-.14-1.54-.42a44.1 44.1 0 0 1 -6.95-4.77c.41-.42 5.15-4.35 8.35-4.35.42 0 .83.14 1.25.28 2.65 1.54 5.43 3.93 5.43 4.91-2.36 2.25-4.87 4.07-6.54 4.35zm-.97-7.72c-.28 0-4.04 3.23-4.04 3.51 0 .29 2.92 3.1 4.45 3.24h.14c1.11 0 4.04-3.24 4.04-3.38 0-.28-4.18-3.37-4.6-3.37zm-7.8 2.25c-.28-.14-.56-.28-.7-.56a5.3 5.3 0 0 1 -1.25-1.27c.55.57 1.25 1.13 1.95 1.83zm0 0" fill="url(#t)" fill-rule="evenodd"/><path d="m21.3 75.42c-.14 0-.56-.28-1.11-.56h1.95c-.42.28-.7.56-.84.56zm0 0" fill="url(#B)" fill-rule="evenodd"/><path d="m14.76 70.5a30.6 30.6 0 0 1 -3.49-3.23l3.35 2.95s.14.14.14.28zm0 0" fill="url(#C)" fill-rule="evenodd"/><path d="m14.62 70.22-3.35-2.95-.13-.14v-.13l3.34 2.95c.14 0 .14.14.14.28zm0 0" fill="url(#D)" fill-rule="evenodd"/><path d="m54.44 15.6c-.14-.14.7-.99 2.09-2.4-1.26 1.27-2.1 2.26-2.1 2.4zm17.13-5.06c-2.23-1.68-4.32-3.23-5.72-3.93 1.68.84 3.76 2.39 5.72 3.93zm-11.84-.42c.98-.98 1.8-1.83 2.5-2.4-.7.71-1.66 1.56-2.5 2.4zm4.32-3.8c.28-.27.41-.42.7-.42-.15 0-.29.15-.7.43zm0 0" fill="url(#F)" fill-rule="evenodd"/><path d="m57.36 18.4c-1.11-.7-2.78-2.39-2.92-2.8 0-.14.83-1.13 2.09-2.4.83-.83 1.95-1.82 3.06-3.08h.14c.84-.84 1.8-1.69 2.5-2.4.7-.55 1.26-.83 1.68-1.11 0-.14.14-.14.14-.28.41-.28.55-.43.7-.43.4.15.69.43 1.1.7 1.4.71 3.49 2.26 5.72 3.94 3.62 2.8 6.96 5.75 6.96 5.75-6.13-4.77-9.33-5.9-11.14-5.9-.7 0-1.26.29-1.54.43l-.55.28s-.7-.56-1.67-.56c-.84 0-1.95.42-3.2 2.25a61.86 61.86 0 0 0 -3.07 5.62zm0 0" fill="#c13927"/><path d="m92.72 40.45v-.14c.7-.56 1.4-1.4 2.37-2.25.56-.56 1.4-1.26 2.09-1.96-1.25 1.26-2.92 2.8-4.46 4.35zm15.46-.56a91.73 91.73 0 0 0 -7.38-5.76c2.1 1.12 5.02 3.65 7.38 5.76zm0 0" fill="url(#G)" fill-rule="evenodd"/><path d="m112.36 43.82c-5.43-4.35-8.5-5.34-10.17-5.34-.97 0-1.53.29-1.8.57-.42.28-.56.56-.56.56h-.28c-.56 0-2.37.14-4.32 2.39a23.83 23.83 0 0 0 -2.5-1.55c1.53-1.54 3.2-3.09 4.45-4.35a25.6 25.6 0 0 1 2.93-2.25h.14c.14.14.27.14.55.28 1.53.98 4.74 3.51 7.38 5.76 2.37 2.1 4.18 3.93 4.18 3.93zm0 0" fill="#c13927"/><path d="m108.6 62.22c-1.12-.7-2.09-2.11-2.5-2.53zm20.88-3.8h-.14v-.13l.14.14zm-21.71-1.12c1.1-1.26 2.78-2.95 4.45-4.63a41.1 41.1 0 0 1 3.9-3.37 107.42 107.42 0 0 0 -8.35 8zm18.79-1.68c-3.34-2.95-8.63-7.16-9.33-7.16 0 0-.14.14-.28.14.14-.14.28-.14.28-.14h.14c2.5 1.12 6.55 4.63 9.19 7.16zm0 0" fill="url(#G)" fill-rule="evenodd"/><path d="m108.6 62.22-2.5-2.53v-.14c-.15-.14.55-1.12 1.67-2.25 2.36-2.53 6.26-6.32 8.35-8 .27-.28.7-.57.83-.7.14 0 .28-.14.28-.14.7 0 6 4.2 9.33 7.16 1.53 1.4 2.64 2.52 2.78 2.67v.14c-5.29-4.36-8.21-5.48-9.74-5.48-.83 0-1.26.28-1.53.56-.28.28-.28.42-.42.56-.28 0-1.81.14-4.6 2.81a36.14 36.14 0 0 0 -4.17 4.92c-.15.14-.28.28-.28.42zm0 0" fill="#c13927"/><path d="m108.6 62.22c0-.14.13-.28.28-.42-.15.28-.28.42-.28.42zm9.05-8.15" fill="#d96624"/><path d="m113.06 78.37h-.14c.7-.85 1.25-1.4 1.66-1.97-.7.84-1.39 1.97-1.52 1.97zm0 0" fill="url(#H)" fill-rule="evenodd"/><path d="m112.92 78.37v-.14-.28c0-.43-5.7-5.06-8.22-6.75.14-1.68.28-3.36.28-5.05 3.48 2.53 10.44 8.85 10.44 8.85l-.84 1.4c-.41.56-.97 1.12-1.66 1.97zm0 0" fill="#c13927"/><path d="m112.92 78.23c-.7-.85-6.55-3.1-8.22-3.66h-.14c-.14 0-.14 0-.27.14l.4-3.5c2.52 1.68 8.23 6.31 8.23 6.74zm0 0" fill="#d96624"/><path d="m89.39 102.8h-.28c-.98-.28-2.1-1.26-3.2-2.39h.14c1.1 1.13 2.22 2.11 3.06 2.25h.28c.41 0 1.25-.42 2.08-.98.84-.57 1.67-1.27 2.51-1.97-1.95 1.68-3.76 3.1-4.6 3.1zm0 0" fill="url(#I)" fill-rule="evenodd"/><path d="m89.39 102.66h-.28c-.84-.14-1.95-1.12-3.06-2.25 1.39 1.27 2.5 2.11 3.2 2.25zm0 0" fill="#c13927"/><path d="m98.85 94.94v-.28c1.54-1.55 2.65-2.81 2.65-3.23v.14c0 .28-1.11 1.68-2.65 3.37zm0 0" fill="url(#J)" fill-rule="evenodd"/><path d="m98.85 94.66c0-.14-.41-.57-1.25-1.27a54.3 54.3 0 0 0 2.09-4.07c.97.84 1.8 1.54 1.8 2.1 0 .43-1.1 1.69-2.64 3.24zm0 0" fill="url(#K)" fill-rule="evenodd"/><path d="m91.47 101.68c2.23-1.55 5.3-4.64 7.38-7.02v.28a81.03 81.03 0 0 1 -4.87 4.77c-.84.7-1.67 1.4-2.5 1.97zm0 0" fill="url(#M)" fill-rule="evenodd"/><path d="m89.39 102.66h-.14c-.7-.14-1.81-.98-3.2-2.25 3.75-.42 6.54-.7 7.79-1.54.7-.57 2.23-2.53 3.76-5.48.84.7 1.25 1.13 1.25 1.27-2.08 2.38-5.15 5.47-7.38 7.02-.83.56-1.67.98-2.08.98zm0 0" fill="#d96624"/><path d="m78.94 113.9c2.1-1.97 3.76-3.8 3.76-4.08.84-1.12 1.67-2.1 2.09-2.95-1.25 2.95-5.57 6.88-5.85 7.02zm5.99-9.13c-.14-.14-.28-.43-.41-.57.27.14.41.42.41.57zm0 0" fill="url(#G)" fill-rule="evenodd"/><path d="m82.7 109.82c0-.28-2.36-2.1-5.01-4.07 1.67-.98 2.78-2.67 2.78-4.07 0-.29 0-.43-.13-.57h.13c1.82 1.13 3.2 2.4 4.05 3.1.13.13.27.42.41.56.28.56.14 1.26-.14 2.1-.42.84-1.25 1.83-2.1 2.95zm0 0" fill="#c13927"/><path d="m60.98 110.1c-1.39-1.26-2.09-1.68-.98-3.09-.13.28-.27.42-.27.7-.14.43.41 1.27 1.25 2.4zm0 0" fill="url(#N)" fill-rule="evenodd"/><path d="m61.82 110.66c-.28-.14-.56-.42-.84-.56-.84-1.12-1.39-1.96-1.25-2.39 0-.28.14-.42.27-.7.43-.42.98-1.12 1.82-1.82.7-.14 1.4-.42 1.95-.7.7-.15 1.25-.43 1.8-.57.42.42.84.85 1.4 1.27-2.64 2.24-5.43 4.63-5.43 4.91 0 .14.14.28.28.56zm0 0" fill="url(#O)" fill-rule="evenodd"/><path d="m78.94 113.9c.14-.15.14-.15.14-.29 1.26-1.26 2.51-2.66 3.62-3.79 0 .28-1.66 2.1-3.76 4.07zm-15.03-1.13c0-.14-.14-.14-.14-.28 0 .14.14.14.28.28zm0 0" fill="url(#M)" fill-rule="evenodd"/><path d="m79.08 113.61c0-.98-2.78-3.37-5.43-4.91-.42-.14-.83-.28-1.25-.28-3.2 0-7.94 3.93-8.35 4.35-.14-.14-.28-.14-.28-.28-.7-.7-1.4-1.26-1.95-1.83-.14-.28-.28-.42-.28-.56 0-.28 2.79-2.67 5.43-4.91a9.03 9.03 0 0 0 5.85 2.1c1.95 0 3.62-.56 4.87-1.54 2.65 1.96 5 3.79 5 4.07-1.1 1.13-2.35 2.53-3.6 3.8zm0 0" fill="#d96624"/><path d="m55.13 105.75c-.14 0-.41-.14-.55-.14-.28-.14-.42-.28-.7-.42.7.14 1.53.28 2.23.28-.28.14-.56.28-.98.28zm0 0" fill="#b63728"/><path d="m19.91 55.05c-.98-.7-1.81-1.26-2.09-1.26 0-.14 0-.14.14-.14s.97.56 2.09 1.26c0 0-.14 0-.14.14zm0 0" fill="url(#G)" fill-rule="evenodd"/><path d="m11.14 67c-2.09-1.84-3.62-3.38-3.62-3.66 0-.42 3.34-3.65 6.12-6.18.28.14.7.42.98.7a9.65 9.65 0 0 0 -1.95 7.44c-.83.85-1.4 1.55-1.53 1.7zm4.59-10.12s-.27-.42-.83-.98c1.4-1.13 2.5-1.97 2.92-2.1.28 0 1.11.55 2.09 1.25-1.39.15-2.65.7-3.9 1.55 0 .14-.14.14-.28.28zm0 0" fill="#c13927"/><path d="m14.48 69.94-3.34-2.94c.13-.14.7-.84 1.53-1.69a8.15 8.15 0 0 0 1.67 3.52v.14c0 .28.14.7.14.98zm0 0" fill="#d96624"/><path d="m60.7 19.39c-.41 0-.83-.14-.97-.43-.55-.84.56-2.67 2.5-4.07.84-.56 2.93-1.55 3.49-1.55.27 0 1.1.29 1.8.57-.7.28-5.42 4.77-5.42 5.2-.56.14-.98.28-1.4.28zm10.04-3.39a15.5 15.5 0 0 0 -2.78-1.82c.55.14.83.42 1.1.56.7.43 1.26.85 1.68 1.26zm43.15 44.4c-.14 0-.28-.15-.42-.3-.41-.55.42-2.1 2.09-3.22.56-.28 2.09-1.12 2.64-1.12.42 0 2.1.7 2.65 1.12 1.67.98 2.65 2.53 2.1 3.09 0 .14 0 .14-.15.28a41.31 41.31 0 0 0 -4.46-3.37c-.41 0-2.5 1.83-4.45 3.51zm-8.77-9.98c.7-.7 1.4-1.4 1.95-2.1-.28.41-.56.84-.98 1.26-.27.28-.7.56-.97.84zm0 0" fill="#f5a773"/><path d="m102.9 52.39c-.29 0-1.26-.99-2.24-2.1-.7-2.11-1.39-3.66-2.36-5.06 1.25-1.27 3.48-3.37 3.76-3.37.41 0 6.12 4.63 6.12 5.05 0 .14-.41.7-1.11 1.4.41-.84.56-1.82.14-2.24a2 2 0 0 0 -.83-.28c-.84 0-1.82.56-2.66 1.4-1.25 1.27-1.8 2.81-1.1 3.51.13.14.55.28.83.28.41 0 1.1-.28 1.67-.56a13.3 13.3 0 0 1 -2.23 1.97zm0 0" fill="#f2904e"/><path d="m103.45 50.98c-.28 0-.7-.14-.84-.28-.7-.7-.14-2.24 1.11-3.5.84-.85 1.82-1.41 2.66-1.41a2 2 0 0 1 .83.28c.42.42.27 1.4-.14 2.25-.56.7-1.25 1.4-1.95 2.1-.56.28-1.26.56-1.67.56zm0 0" fill="#f7b68c"/><path d="m119.18 69.94c-.7 0-8.07-6.04-8.07-6.6 0-.14 1.25-1.54 2.78-2.95.14.14.28.14.42.14.7 0 1.8-.42 2.92-1.26.28-.28.7-.56.97-.84.28.28.7.56 1.12.84.98.7 2.09 1.12 2.79 1.12.27 0 .55-.14.7-.14 1.52 1.27 2.91 2.39 2.91 2.67 0 .42-5.99 7.02-6.54 7.02zm4.87-8.14c-.7 0-1.94.98-3.34 2.24-1.53 1.55-2.5 3.23-2.08 3.51 0 .15.14.15.14.15.7 0 1.94-.85 3.34-2.25 1.53-1.55 2.5-3.1 2.08-3.51zm0 0" fill="#f2904e"/><path d="m114.3 60.53c-.13 0-.27 0-.41-.14 1.95-1.68 4.04-3.5 4.45-3.5.28.13 2.51 1.68 4.46 3.36-.14 0-.42.14-.7.14-.7 0-1.8-.42-2.78-1.12-.41-.28-.84-.56-1.12-.84-.27.28-.7.56-.97.84a5.56 5.56 0 0 1 -2.92 1.26zm4.47 7.17s-.14 0-.14-.15c-.43-.28.55-1.96 2.08-3.5 1.4-1.27 2.65-2.25 3.34-2.25l.14.14c.42.42-.55 1.96-2.08 3.5-1.4 1.41-2.65 2.26-3.34 2.26zm0 0" fill="#f7b68c"/><path d="m72.12 22.48c-.28-.14-.55-.28-.98-.28a27.1 27.1 0 0 0 -6.81-1c-1.26-.97-2.1-1.95-2.23-2.1.7-.28 1.53-.7 2.36-1.26.42-.28.84-.7 1.26-1.12.41.42.83.84 1.39 1.12 1.25.84 2.64 1.4 3.62 1.4.56 0 .84-.13 1.11-.56.42-.55-.14-1.54-1.11-2.67 1.95 1.41 4.04 3.1 4.04 3.38s-1.25 1.68-2.65 3.09zm-4.17-8.29c-.15-.14-.29-.14-.42-.28.13 0 .27.14.42.28zm0 0" fill="#f2904e"/><path d="m70.73 19.25c-.98 0-2.37-.57-3.62-1.4-.56-.29-.98-.7-1.4-1.13-.41.42-.83.84-1.25 1.12-.83.57-1.67.98-2.36 1.27 0-.43 4.73-4.92 5.43-5.2.13.14.27.14.42.28.7.28 1.66.99 2.78 1.82.97 1.13 1.53 2.11 1.11 2.67-.27.43-.55.57-1.11.57zm0 0" fill="#f7b68c"/><path d="m106.79 83.98c-.28 0-2.65-1.96-4.04-3.09.28-.84.56-1.68.7-2.52 1.25-1.13 2.64-2.39 2.92-2.39.28.14 4.46 3.37 4.46 3.65s-3.62 4.21-4.04 4.35zm-.28-6.6c-1.53 0-2.79 1.13-2.79 2.39 0 1.12 1.26 2.25 2.8 2.25 1.52 0 2.78-1.13 2.78-2.25 0-1.26-1.26-2.39-2.79-2.39zm0 0" fill="#f2904e"/><path d="m106.51 82.02c-1.53 0-2.79-1.13-2.79-2.25 0-1.26 1.26-2.39 2.8-2.39 1.52 0 2.78 1.13 2.78 2.39 0 1.12-1.26 2.25-2.79 2.25zm0 0" fill="#f5a976"/><path d="m72.12 116.99h-.14c-1.53-.14-4.45-2.95-4.45-3.24 0-.28 3.76-3.5 4.04-3.5.41 0 4.59 3.08 4.59 3.36 0 .14-2.93 3.38-4.04 3.38zm0 0" fill="#f2904e"/><path d="m74.63 133s-23.11-18.13-43.44-36.24c.42-.14.83-.42 1.25-.7.28-.14.56-.28.7-.42 18.23 16.01 37.73 32.02 41.07 32.02h.14c4.31-.7 38.15-38.34 53.88-58.28.14 0 .14-.14.28-.14 1.12-1.54 2.22-2.95 3.2-4.21-9.05 14.04-30.9 45.35-57.09 67.97zm0 0" fill="#c13927"/><path d="m74.21 127.66c-3.34 0-22.83-16-41.08-32.02.57.42 1.26.98 1.82 1.4 20.18 16.85 34.66 27.95 38 28.79h.42c3.62 0 12.4-9.12 15.18-11.94 2.65-2.8 36.76-40.72 39.68-44.51-15.73 19.94-49.57 57.57-53.88 58.28zm54.3-58.42c1.26-1.83 6.68-9.69 7.66-11.38 0 0-1.53 2.67-4.46 7.17-.98 1.26-2.09 2.67-3.2 4.2zm0 0" fill="url(#G)" fill-rule="evenodd"/><path d="m22.41 88.76c-11.55-10.67-20.88-20.37-22.13-25.14 0 0 .13.28.56.7 1.67 2.4 7.1 7.87 14.2 14.6 2.22 2.26 4.6 4.5 7.23 7.03-.13.98 0 1.96.14 2.8zm0 0" fill="url(#G)" fill-rule="evenodd"/><path d="m15.04 78.93c-7.1-6.74-12.54-12.23-14.2-14.6 1.67 1.82 6.68 7.44 14.2 14.6zm121.13-21.07" fill="url(#G)" fill-rule="evenodd"/><path d="m57.64 105.6h-1.39c1.25-.41 2.79-1.54 4.32-2.8l4.17-.84c0 .14 0 .14.14.28-1.39.98-2.5 2.1-3.48 2.95-1.26.28-2.5.42-3.76.42zm0 0" fill="url(#G)" fill-rule="evenodd"/><path d="m61.4 105.19c.98-.85 2.1-1.97 3.48-2.95-1.25 1.26-2.23 2.1-3.06 2.95zm0 0" fill="url(#P)" fill-rule="evenodd"/><path d="m56.25 105.6-.14-.13c1.25-.28 2.78-1.4 4.32-2.67h.14c-1.53 1.26-3.07 2.39-4.32 2.8zm0 0" fill="url(#Q)" fill-rule="evenodd"/><path d="m53.74 105.19c-7.65-1.4-13.92-6.89-15.31-8.15-1.11-1.26-1.8-2.24-3.07-2.24a3.7 3.7 0 0 0 -2.23.84c0-.14-.13-.28-.27-.28-.7-.7-1.4-1.27-2.09-1.83 2.23-.28 4.04-.98 4.87-1.4.28-.14.42-.14.56-.14 2.23 0 4.17 7.3 12.81 10.1a62.86 62.86 0 0 0 4.73 3.1zm0 0" fill="url(#R)" fill-rule="evenodd"/><path d="m53.88 105.19h-.14a62.86 62.86 0 0 1 -4.73-3.1h.13a44.01 44.01 0 0 0 4.74 3.1zm0 0" fill="url(#Q)" fill-rule="evenodd"/><path d="m61.82 105.19c.83-.85 1.8-1.69 3.06-2.95 0 .56.28 1.12.7 1.68-.56.14-1.12.42-1.81.56-.56.29-1.25.57-1.95.7zm0 0" fill="#a53426"/><path d="m56.1 105.47c-.69 0-1.52-.14-2.22-.28a44.01 44.01 0 0 1 -4.74-3.1s.15.15.29.15c2.09.56 4.31.84 6.4.84 1.53 0 3.06-.14 4.6-.28-1.54 1.26-3.07 2.39-4.32 2.67zm0 0" fill="#9e3326"/><path d="m80.61 101.11c-.14-.14-.14-.14-.27-.14-.14-.42-.28-.84-.56-1.26 1.67 0 3.48-.14 5-.42l1.13 1.12c-1.68.29-3.48.43-5.3.7zm0 0" fill="url(#S)" fill-rule="evenodd"/><path d="m80.47 101.11c0-.14-.13-.14-.13-.14.13 0 .13 0 .27.14zm0 0" fill="#c13927"/><path d="m99.69 89.32c-.28-.42-.7-.7-1.12-.98.56-1.27.98-2.95 1.4-4.64.55.42.97.84 1.53 1.12a41.99 41.99 0 0 1 -1.81 4.5zm0 0" fill="url(#I)" fill-rule="evenodd"/><path d="m99.69 89.32c-.42-.28-.7-.56-1.12-.84v-.14c.42.28.84.56 1.12.98zm0 0" fill="url(#T)" fill-rule="evenodd"/><path d="m104.98 66c-.98-.55-1.53-.97-1.81-.97 0 0-.28.13-.42.27-.28.15-.7.43-.97.57v-5.9c0-1.54 0-2.81-.14-4.07.14-.14.55-.42 1.25-.99.28.7.56 1.55.7 2.25-.42.98-.7 1.55-.56 1.83h.28c.14 0 .41-.14.7-.28.55 2.38.83 4.91.97 7.3zm0 0" fill="url(#U)" fill-rule="evenodd"/><path d="m101.64 55.9v-.14c.28-.14.7-.56 1.11-.99.14 0 .14 0 .14.14-.7.57-1.11.85-1.25.99zm0 0" fill="url(#V)" fill-rule="evenodd"/><path d="m104.98 66.15c-.84-.56-1.39-.99-1.81-1.12 0 0-.14.13-.42.27.14-.14.42-.27.42-.27.28 0 .83.42 1.81.98zm0 0" fill="url(#V)" fill-rule="evenodd"/><path d="m103.3 58.99h-.27c-.14-.28.14-.85.56-1.83.27.56.27.98.41 1.55-.28.14-.55.28-.7.28zm0 0" fill="url(#X)" fill-rule="evenodd"/><path d="m101.64 55.76c-.14-1.97-.56-3.8-.98-5.34.84 1.4 1.53 2.81 2.1 4.35-.43.43-.84.85-1.12.99zm0 0" fill="#d96624"/><path d="m101.5 84.82c-.56-.28-.98-.7-1.53-1.12v-.14c.55.42 1.11.84 1.53 1.26zm0 0" fill="url(#Y)" fill-rule="evenodd"/><path d="m101.5 84.82c-.42-.42-.98-.84-1.53-1.26.14-.42.14-.84.28-1.26.41-1.26 2.5-6.74 4.04-7.59-.29 1.27-.57 2.4-.84 3.66-.84.7-1.53 1.4-1.53 1.54s.41.42.83.98c-.28 1.27-.83 2.67-1.25 3.93zm0 0" fill="url(#Z)" fill-rule="evenodd"/><path d="m101.78 66v-.13c.28-.14.7-.42.97-.57-.28.15-.56.43-.97.7zm0 0" fill="url(#ab)" fill-rule="evenodd"/><path d="m101.5 72.05c.14-1.83.28-3.8.28-6.04.41-.28.7-.56.97-.7.28-.15.42-.28.42-.28.42.13.97.56 1.81 1.12 0 1.69-.14 3.37-.28 5.05a3.9 3.9 0 0 0 -1.11-.7c-.14 0-.98.7-2.1 1.55zm0 0" fill="#a53426"/><path d="m100.25 82.3c.55-2.81.97-6.18 1.25-10.25 1.11-.85 1.95-1.55 2.09-1.55.13 0 .55.28 1.1.7l-.4 3.51c-1.54.85-3.63 6.33-4.04 7.59zm0 0" fill="#bc5828"/><path d="m85.9 100.41-1.1-1.11c.28.28.56.42.83.7l.43.42h-.14zm0 0" fill="url(#ac)" fill-rule="evenodd"/><path d="m86.05 100.41-.42-.42zm11.55-7.01c-.28-.28-.7-.56-.97-.98.69-1.12 1.39-2.39 1.94-3.93.42.28.7.56 1.12.84a54.3 54.3 0 0 1 -2.09 4.07zm0 0" fill="#a53426"/><path d="m85.63 100c-.28-.29-.56-.43-.84-.71h.14l.7.7zm0 0" fill="url(#ae)" fill-rule="evenodd"/><path d="m86.05 100.41-.42-.42-.7-.7c3.34-.56 6.4-1.68 8.91-3.8.98-.83 1.95-1.82 2.78-3.08.29.42.7.7.98.98-1.53 2.95-3.06 4.91-3.76 5.48-1.25.84-4.04 1.12-7.8 1.54zm0 0" fill="#bc5828"/><path d="m80.34 101.11v-.14s.13 0 .13.14zm0 0" fill="#a53426"/><path d="m30.5 96.76c-2.51 0-4.32-3.37-4.46-3.51.55.14.97.28 1.53.28 1.25 1.13 2.36 2.1 3.62 3.23h-.7zm0 0" fill="#c13927"/><path d="m102.75 80.9c-.42-.57-.83-.85-.83-.99s.7-.84 1.53-1.54c-.14.84-.42 1.68-.7 2.52zm0 0" fill="#da7940"/><path d="m31.19 96.76c-1.26-1.12-2.37-2.1-3.62-3.23.42 0 .97.14 1.39.14.56 0 1.25-.14 1.81-.14.7.56 1.4 1.13 2.09 1.83.14 0 .27.14.27.28-.13.14-.41.28-.7.42-.4.28-.82.56-1.24.7zm0 0" fill="#a53426"/><path d="m33.13 95.64c0-.14-.13-.28-.27-.28.14 0 .27.14.27.28zm0 0" fill="url(#af)" fill-rule="evenodd"/><path d="m83.68 34c-3.2-7.59-4.88-9.98-12.54-11.8-7.65-1.83-10.16-.71-17.95.14-7.8.7-7.66 11.23-20.06 16.43-12.52 5.2-5.42 24.29-4.73 28.93.56 4.77-4.6 5.61-5.99 17.4-1.53 11.8 10.72 8.3 13.23 7.03 2.51-1.4 4.04 7.16 13.79 10.1 9.75 2.96 20.04-2.38 26.73-2.38 6.68 0 12.95-.42 17.68-4.35s8.08-12.36 7.94-35.53c0-23.17-14.76-18.4-18.1-25.98zm0 0" fill="#fbe2e5"/><path d="m66 64.46c-3.77 0-7.1-2.38-7.66-4.77a7.81 7.81 0 0 0 6.4 3.23c.7 0 1.53-.14 2.23-.28a7.86 7.86 0 0 0 5.43-5.62c.56.7.83 1.4.83 2.1 0 2.4-3.05 5.34-7.24 5.34zm5.98-13.06a9.22 9.22 0 0 0 -1.67-2.38 16.34 16.34 0 0 0 5.57-2.8c.56-.43 1.25-.85 1.67-1.27 1.11.28 1.95.98 2.65 2.1-1.12 1.55-3.35 3.1-6.27 3.93-.7.15-1.25.29-1.95.42zm9.19-6.45c0-.15-.13-.15-.13-.29a5.67 5.67 0 0 0 -1.96-1.4c.14-.28.28-.42.42-.56.84.28 1.54.7 1.67 1.4a.9.9 0 0 1 0 .85zm-35.22 15.72c-2.93 0-5.43-.98-5.71-2.24-.14-.43-.14-.7 0-1.13 1.25.56 2.64.7 4.17.84h1.12c1.11 0 2.5-.14 3.76-.42a17.78 17.78 0 0 0 7.51-3.5v1.82c-1.1 1.54-3.34 3.09-6.26 3.93-1.53.56-3.2.7-4.6.7zm0 0" fill="#e8c9c7"/><path d="m57.22 100.7c-3.2 0-5.84-.43-6.96-1.41-4.46-3.8-10.44-10.53-13.5-10.53-.42 0-.98.28-1.26.84-.97 1.69-3.62 2.81-5.57 2.81-1.94 0-3.2-.98-1.67-3.8 3.2-5.47 9.06-8.28 8.5-11.09-.7-2.95-4.88-11.37-1.95-13.48.55-.42 1.11-.7 1.67-.7 1.95 0 3.48 2.53 8.07 3.8 5.71 1.68 4.6 12.77 7.8 16.14.7.7 1.81.99 3.06.99 2.65 0 6.27-1.13 10.17-2.11s8.07-1.97 11.55-1.97h1.4c4.73 0 9.88-3.65 9.6-5.76-.14-1.68-4.04-3.09-6.54-4.63.84.14 1.53.28 2.37.28a9.4 9.4 0 0 0 9.33-9.55c0-1.4-.29-2.8-.84-3.93-.42-4.5-1.12-8.42-2.09-9.69-1.11-1.4.14-2.95 2.23-2.95 1.8 0 4.18 1.27 6.12 5.06 3.9 7.86-1.66 27.24-.27 31.03 1.53 3.65-2.23 14.47-8.78 15.59a440.7 440.7 0 0 1 -9.46 1.97c.14-.57.14-.99.14-1.55.13-.7 0-1.4-.14-1.97 1.8-.28 3.62-.7 4.87-.84a41.5 41.5 0 0 1 7.24-1.12h.7c.28 0 .28-.42.28-.99-.15-.42-.29-.84-.7-.84h-.28-.14s-.14 0-.14.14c-1.53.14-5.98.42-8.07 1.27-.98.28-2.51.7-4.04.98a9 9 0 0 0 -7.94-5.9h-.41c-4.6 0-8.5 3.8-8.78 8.43 0 1.82.42 3.5 1.26 5.05-2.51.28-4.74.43-6.83.43zm36.48-10.12s-.14.14 0 .42c0 .29.14.43.28.43v-.43c-.14-.28-.14-.42-.28-.42zm0 0" fill="#e8c9c7"/><path d="m89.1 38.48h-.27c2.09-2.1 4.17-4.48 4.17-4.77l-.14-.14c.57-.7 1.12-1.27 1.54-1.68.14.27.28.56.28.98v.28c-1.54 1.82-3.2 3.65-2.37 3.65a9.86 9.86 0 0 1 -3.2 1.68zm0 0" fill="url(#ag)" fill-rule="evenodd"/><path d="m92.86 33.57a13.9 13.9 0 0 0 -2.78-2.39c.28-.7.56-1.26.7-1.82 1.81.56 3.06 1.4 3.62 2.53-.42.41-.97.98-1.54 1.68zm0 0" fill="#c13927"/><path d="m92.3 36.8c-.83 0 .84-1.83 2.38-3.65 0 1.12-.84 2.53-2.37 3.65zm0 0" fill="url(#ah)" fill-rule="evenodd"/><path d="m88.83 38.48c-.14-.14-.28-.14-.42-.28 1.4-1.54 3.06-3.23 4.45-4.63l.14.14c0 .28-2.08 2.67-4.17 4.77zm0 0" fill="url(#ai)" fill-rule="evenodd"/><path d="m88.41 38.2c-1.4-.7-2.78-1.54-3.62-2.52 1.39-.57 2.65-1.27 3.76-2.4.56-.7 1.11-1.4 1.53-2.1 1.4.98 2.51 1.97 2.78 2.39-1.39 1.4-3.06 3.09-4.45 4.63zm0 0" fill="#d96624"/><path d="m84.79 39.19c-1.4 0-2.65-.14-3.75-.42v-.99c-.43-1.12-2.65-2.24-5.58-2.67-.14-.27-.27-.7-.27-.98s0-.56.13-.84l.14.14a9.67 9.67 0 0 0 6.4 2.67c.98 0 1.96-.14 2.93-.42.83.98 2.23 1.82 3.62 2.52.14.14.28.14.42.28h.28c-1.12.43-2.23.7-3.48.7h-.84zm0 0" fill="#e8c9c7"/><path d="m77.69 105.75c-.97-.56-1.95-1.27-2.78-1.83a9.24 9.24 0 0 0 3.48-2.67c.7 0 1.39-.14 1.95-.14.13.14.13.28.13.57 0 1.4-1.1 3.09-2.78 4.07zm-10.72-.56c-.56-.42-.98-.85-1.4-1.27.56-.14 1.26-.42 1.82-.56.27.28.7.42 1.11.56-.55.42-1.11.85-1.53 1.27zm0 0" fill="#a53426"/><path d="m72.82 107.3a9.03 9.03 0 0 1 -5.85-2.11c.42-.42.98-.85 1.53-1.27.84.28 1.8.56 2.64.56h.43c1.25 0 2.36-.14 3.34-.56.83.56 1.8 1.27 2.78 1.83a7.79 7.79 0 0 1 -4.87 1.54zm0 0" fill="#bc5828"/><path d="m64.88 102.24c-.14-.14-.14-.14-.14-.28.14 0 .42 0 .56-.14l-.28.28c-.14 0-.14.14-.14.14zm0 0" fill="url(#aj)" fill-rule="evenodd"/><path d="m64.88 102.24s0-.14.14-.14zm0 0" fill="#a53426"/><path d="m80.34 100.97a7.42 7.42 0 0 1 -1.12-.84c0-.14.14-.28.14-.42h.42c.28.42.42.84.56 1.26zm0 0" fill="url(#ak)" fill-rule="evenodd"/><path d="m80.34 100.97c-.42-.27-.84-.42-1.26-.7 0 0 .14 0 .14-.14.28.28.7.57 1.12.84zm0 0" fill="url(#al)" fill-rule="evenodd"/><path d="m65.02 102.1.28-.28zm0 0" fill="url(#am)" fill-rule="evenodd"/><path d="m65.58 103.92a2.89 2.89 0 0 1 -.7-1.68l.14-.14.28-.28c.7.7 1.25 1.12 2.09 1.54-.56.14-1.26.42-1.81.56zm12.8-2.67c.28-.28.56-.55.7-.98.42.28.84.43 1.26.7v.14c-.56 0-1.26.14-1.95.14zm0 0" fill="#903025"/><path d="m64.74 101.96v-.28-.43c.28.14.42.43.56.57-.14.14-.42.14-.56.14zm14.62-2.25c.14 0 .14-.14.14-.28.14.14.14.28.28.28zm0 0" fill="#e8c9c7"/><path d="m22.14 74.86c.97-.85 2.36-2.4 3.75-3.8.15-.14.43-.28.57-.42.55-.42.97-.84 1.39-1.26-.28 2.39-2.51 5.05-5.7 5.48zm-1.95 0a7.93 7.93 0 0 1 -5.43-4.36c1.95 1.55 4.04 3.37 5.43 4.36zm0 0" fill="url(#an)" fill-rule="evenodd"/><path d="m21.3 74.86c.28 0 1.95-1.55 3.76-3.38l.83-.42c-1.39 1.4-2.78 2.95-3.75 3.8zm-.14 0h-.14zm-.28 0h-.7c-1.38-.99-3.47-2.81-5.42-4.36 0-.14-.14-.28-.14-.28 2.92 2.39 5.7 4.5 6.26 4.64zm0 0" fill="url(#ao)" fill-rule="evenodd"/><path d="m21.02 74.86h-.14c-.55-.15-3.34-2.25-6.26-4.64 0-.14 0-.28-.14-.28 3.06 2.39 5.85 4.63 6.68 4.92zm0 0" fill="#d96624"/><path d="m21.3 74.86h-.14c.42-.15 1.95-1.55 3.48-3.23.15 0 .28-.15.42-.15-1.81 1.83-3.48 3.38-3.76 3.38zm0 0" fill="url(#ap)" fill-rule="evenodd"/><path d="m21.16 74.86c-.83-.29-3.62-2.53-6.68-4.92 0-.28-.14-.7-.14-.98a8.8 8.8 0 0 0 6.96 3.37c1.11 0 2.37-.14 3.34-.7-1.53 1.68-3.06 3.08-3.48 3.23zm0 0" fill="#bc5828"/><path d="m70.04 28.38c0 2.1-3.63.84-8.36.84-1.25 0-2.5.14-3.48.28-2.93.14-5.15.42-5.15-1.13 0-1.96 3.9-5.05 8.49-5.05 4.6 0 8.5 3.09 8.5 5.05zm-40.66 51.67c-2.38 2.67-2.38 7.58-3.62 7.02-1.12-.7-2.92-5.75-.42-8.28 4.04-3.93 5.43-11.8 6.68-11.1s.28 8.85-2.64 12.36zm0 0" fill="#fefefe"/><path d="m55.55 74.86c-3.62 0-7.93-5.62-7.93-8.43 0-2.8 3.48-4.5 7.1-4.5s7.24 3.8 7.24 6.6c0 2.81-2.92 6.33-6.4 6.33zm0 0" fill="#fefbfb"/><path d="m88.55 33.29a9.32 9.32 0 0 1 -13.09.14 9.38 9.38 0 0 1 -.14-13.2 9.19 9.19 0 0 1 13.09-.14 9.38 9.38 0 0 1 .14 13.2zm0 0" fill="#ce2427"/><path d="m81.86 35.4c-.82 0-1.8-.15-2.64-.43-6.26-1.96-6.4-8.29-5.7-8.29 0 0 .13.15.13.29 1.26 2.25 4.18 5.62 8.21 5.62.57 0 .98 0 1.54-.14 8.07-1.69 5.99-9.55 5.99-9.55 3.33 6.18-1.54 12.5-7.53 12.5zm0 0" fill="#ab2827"/><path d="m85.07 25.99c-.55 0-1.25-.14-2.09-.42-2.92-.99-5.15-4.08-4.6-6.04.42-1.12 1.68-1.83 3.35-1.83.97 0 1.95.28 2.92.57.28 0 .42.14.56.14v.13c-.7-.27-1.4-.27-1.95-.27-1.4 0-2.5.55-2.92 1.54-.42 1.68 1.25 3.8 3.75 4.63.84.28 1.4.42 1.96.42 1.1 0 1.8-.42 2.64-1.26-.42 1.4-1.8 2.39-3.62 2.39zm-5.99-7.03c-.14 0-.55.7-.42 1.55.14.84.56 1.4.7 1.4s-.14-.7-.14-1.4c-.14-.84 0-1.55-.14-1.55zm0 0" fill="#e44b51"/><path d="m79.36 21.91c-.14 0-.56-.56-.7-1.4-.13-.84.28-1.55.42-1.55s0 .7.14 1.55c0 .7.28 1.4.14 1.4zm0 0" fill="#f7c1c5"/><path d="m84.38 22.34s3.61-5.48 5-8c1.4-2.54 3.9-6.61 4.6-7.03.56-.42-1.39-1.69-1.67-.98-.28.7-3.9 5.33-5.01 7.86-.98 2.53-5.3 9.27-2.92 8.15zm0 0" fill="#ce2427"/><path d="m86.05 24.02a5.45 5.45 0 0 1 -4.05-2.1c-1.8-2.4.29-3.24 1.26-3.24.42 0 .56.14.28.43 0 0-.98.42 0 1.82 0 .14.14.28.28.42 0 0 .14-.14.14-.28-.28.84-.42 1.4 0 1.4.13 0 .27 0 .42-.13l.14-.29c1.39 1.13 2.92.99 3.06 1.41 0 .28-.7.56-1.53.56zm0 0" fill="#982825"/><path d="m93.56 7.73.28-.28c0 .14-.14.14-.28.28zm-1.53-.98c0-.14 0-.14.14-.28v.14s0 .14-.14.14zm0 0" fill="#bfbcbc"/><path d="m83.96 22.48c-.42 0-.28-.57 0-1.4.56-.7 1.52-2.12 2.22-3.1.98-1.26 2.1-3.09 2.5-3.93.43-.85 2.8-4.63 3.07-5.2.28-.7.7-1.4.56-1.54 0-.14 0-.14-.14-.14l.14-.14h-.14s-.14-.14-.14-.28c.14 0 .14-.14.14-.14 0 .14.14.42.7.7.27 0 .42.14.56.14.27 0 .27-.28.13-.42.14.14.28.28.28.42l-.28.28c-.42.28-.84 1.13-1.11 1.4-.28.29-4.18 6.74-4.32 7.02-.14.29-3.48 5.62-3.61 5.9l-.14.29c-.15.14-.29.14-.42.14zm9.6-15.45" fill="#982825"/><path d="m84.23 20.37s.14-.14.29-.42c-.14.14-.14.28-.29.42zm0 0" fill="#de3138"/><path d="m84.23 20.37c.14-.14.14-.28.29-.42.55-1.13 2.36-3.8 2.92-5.2.27-.98.27-1.83 4.73-7.72v.14c0 .28-.42 1.12-1.25 2.25a54.5 54.5 0 0 0 -2.93 4.91c-.41.85-2.92 5.2-3.76 6.04zm0 0" fill="#de3138"/><path d="m92.17 7.17v-.14h.14zm0 0" fill="#b43638"/><path d="m94.12 6.05c-.14 0-.28 0-.42-.15-.27-.14-.41-.28-.41-.28 0-.14.14-.14.14-.14.13 0 .27.14.41.14.28.14.42.43.42.43zm0 0" fill="#fefefe"/><path d="m80.06 30.9c-1.53 0-2.93-.7-4.46-2.24-4.17-4.36.84-8.85 1.67-8.85h.14c.14.84.14 2.8 2.23 4.91 3.06 2.95 7.8 2.1 5.01 4.36-1.53 1.12-3.06 1.82-4.6 1.82zm-3.34-8.42c-.56 0-1.4.42-1.95 1.12-.7.98-.98 2.25-.28 2.81.14 0 .28.14.42.14.41 0 1.1-.7 1.67-1.4.83-.99 1.39-1.97.7-2.53-.15-.14-.29-.14-.56-.14zm0 0" fill="#de3138"/><path d="m74.9 26.55c-.13 0-.28-.14-.4-.14-.7-.56-.43-1.83.27-2.8.55-.71 1.39-1.13 1.95-1.13.27 0 .41 0 .55.14.7.56.14 1.54-.7 2.52-.55.7-1.25 1.41-1.66 1.41zm0 0" fill="#eb7078"/><path d="m71.14 104.48c-4.73-.14-8.49-4.35-8.35-9.26a9.05 9.05 0 0 1 9.19-8.43 8.8 8.8 0 0 1 8.36 9.27 8.7 8.7 0 0 1 -9.2 8.42zm0 0" fill="#ce2427"/><path d="m71.84 103.92a8.52 8.52 0 0 1 -7.65-4.91c-2.51-5.48 1.25-9.4 1.94-9.4.14 0 .28.13.14.41-.97 2.53-1.53 7.44 2.23 10.4a7.45 7.45 0 0 0 4.6 1.68c3.62 0 5.84-3.37 5.84-3.37a7.33 7.33 0 0 1 -7.1 5.2zm0 0" fill="#ab2827"/><path d="m76.85 98.87c-1.39 0-2.78-.98-3.76-3.1-1.25-2.8-.41-6.3 1.4-7.15.28 0 .56-.14.83-.14 1.53 0 3.07 1.54 4.04 3.93 0 .14.14.28.14.42-.84-1.69-2.09-2.67-3.2-2.67-.28 0-.56 0-.84.14-1.39.56-1.8 3.23-.83 5.48s1.8 2.52 3.48 2.8c-.42.15-.84.29-1.26.29zm-1.65-10.11c-.28 0-.84.28-1.26.7-.56.56-.56 1.26-.41 1.4 0 0 .27-.56.83-1.12.42-.56 1.11-.84.97-.98zm0 0" fill="#e44b51"/><path d="m73.52 90.86c-.14-.14-.14-.84.41-1.4.42-.42.98-.7 1.26-.7h.13c.14.14-.55.42-.97.98-.56.56-.83 1.12-.83 1.12zm0 0" fill="#f7c1c5"/><path d="m76.16 94.66s6.27-.85 8.91-1.41c2.64-.7 7.1-1.4 7.8-1.12.42 0 .42-.42.42-.99-.15-.42-.43-.98-.7-.84-.7.28-6.27.42-8.63 1.4-2.51.85-10.03 1.97-7.8 2.96zm0 0" fill="#ce2427"/><path d="m92.59 92.13h-.28.41zm-.56-1.69c0-.14.14-.14.14-.14h.14c-.14.14-.14.14-.28.14zm0 0" fill="#aa8d89"/><path d="m77.27 97.75c-.55 0-2.78-1.97-2.08-5.06.13-1.4.83-1.83 1.53-1.83.55 0 1.1.28 1.39.57.28.28.42.56 0 .56h-.28c-.28 0-.84.14-1.11 1.26-.14.14-.14.28-.14.42.14 0 .14 0 .27-.14-.97.42-1.39.84-.7 1.13h.43c0 1.68 1.1 2.66.83 2.95 0 0 0 .14-.14.14zm0 0" fill="#982825"/><path d="m76.16 94.66c-.7-.28-.28-.7.7-1.13.83 0 2.5-.14 3.61-.28 1.53-.14 3.35-.42 4.32-.7.83-.28 5.01-.98 5.71-1.12a4.67 4.67 0 0 0 1.4-.57v-.14h.13-.14c.14-.14.14-.28.14-.28.14 0 .14 0 .28-.14-.14.14-.14.42 0 .99.14.42.28.56.28.56.13 0 .13 0 .27-.14-.14.14-.14.28-.14.42h-.41c-.14-.14-.28-.14-.42-.14s-.42 0-.56.14h-.7c-.55 0-7.37 1.26-7.65 1.4-.28 0-6.13.99-6.4.99v.14zm16.7-2.95v-.14zm0 0" fill="#982825"/><path d="m77.69 93.4c-.14 0 0-.15.28-.15 0 0-.14 0-.28.14zm0 0" fill="#de3138"/><path d="m77.83 93.4h-.14c.14-.15.28-.15.28-.15 1.25-.28 4.17-.7 5.57-1.26.83-.28 1.39-.85 8.35-1.27-.28.14-1.11.42-2.5.57-1.54.14-4.32.7-5.16.98-.83.14-5.15 1.12-6.4 1.12zm0 0" fill="#de3138"/><path d="m93.98 91.43c-.14 0-.28-.14-.28-.43-.14-.28 0-.42 0-.42.14 0 .14.14.28.42zm0 0" fill="#edd5d3"/><path d="m72.4 99.15h-.7c-3.75-.85-5.7-2.81-5.43-6.74.28-3.93 3.34-4.78 5.43-4.78 1.26 0 2.23.28 1.95.57-.56.56-1.95 1.82-2.08 4.49-.14 3.79 2.78 6.46.83 6.46zm-2.93-10.53h-.13c-1.12 0-2.23.7-2.09 1.4 0 .7.7.84 1.67.84h.55c1.12-.14 2.1-.28 2.1-.98s-.98-1.26-2.1-1.26zm0 0" fill="#de3138"/><path d="m68.92 90.86c-.97 0-1.67-.14-1.67-.84-.14-.7.97-1.4 2.09-1.4h.13c1.12 0 2.1.56 2.1 1.26s-.98.84-2.1.98zm0 0" fill="#eb7078"/><path d="m28.26 58.43a8.9 8.9 0 0 1 -1.8 12.21 8.49 8.49 0 0 1 -12.12-1.82 8.78 8.78 0 0 1 1.67-12.22 8.78 8.78 0 0 1 12.25 1.83zm0 0" fill="#ce2427"/><path d="m19.35 70.36a5.69 5.69 0 0 1 -4.17-2.39c-2.37-3.22-1.54-6.31-.7-7.02.14 0 .28-.14.28-.14.84 0 1.67 2.67 3.34 4.92 1.53 2.24 3.35 3.5 2.37 4.21-.28.28-.7.42-1.12.42zm0 0" fill="#ab2827"/><path d="m27.43 66.43c-.7 0-1.54-2.53-3.48-4.91v-.15c.28-.28.41-.56.55-.84.56.42.98.84 1.12.84s.27-.14.27-.14c.43-.7.29-2.52-1.66-3.93-.28 0-.42-.14-.56-.28-.42-.28-.83-.56-1.4-.84 1.4.42 2.8 1.4 4.19 3.09 2.08 2.67 2.22 6.18 1.39 7.02-.14.14-.28.14-.42.14zm-11.28-8.99c0-.14-.14-.14-.14-.28.28-.28.84-.56 1.67-.84a6 6 0 0 0 -1.53 1.12zm0 0" fill="#d62326"/><path d="m15.73 56.88s-4.73-6.18-10.3-2.1c0 0-1.25 3.79-.7 3.08 3.07-3.37 5.85-3.65 10.17.28 3.48 3.1 1.4-.7.83-1.26zm0 0" fill="#ce2427"/><path d="m7.8 53.65c.41-.14.97-.28 1.53-.28h.42-.42c-.42 0-.97.14-1.53.28zm0 0" fill="url(#ar)" fill-rule="evenodd"/><path d="m10.45 53.51c-.29 0-.43-.14-.7-.14.27 0 .41 0 .7.14zm0 0" fill="url(#as)" fill-rule="evenodd"/><path d="m15.32 57.16c-.14 0-1.53-1.26-4.46-2.67a4.07 4.07 0 0 0 -1.4-.28c-2.36 0-4.59 2.4-4.59 2.4.14-.15.98-2.26 2.93-2.96.56-.14 1.11-.28 1.53-.28h.42c.27 0 .41.14.7.14 4.03.84 5 3.65 4.87 3.65zm0 0" fill="#ab2827"/><path d="m25.62 61.38c-.14 0-.56-.43-1.12-.85.14-.42.29-.7.29-1.12 0-.98-.43-1.69-1.12-2.39.14.14.28.28.56.28 1.95 1.4 2.09 3.23 1.66 3.93 0 0-.13.15-.27.15zm0 0" fill="#ee787f"/><path d="m22 70.78h-.42c-.56-.28 1.4-.84 2.09-2.53.56-1.26 0-2.95.56-2.95.7.29 1.11 1.83.56 3.1-.7 1.82-2.1 2.38-2.79 2.38zm-1.95-7.86c-2.5 0-4.6-1.55-4.6-3.51 0-.28 0-.56.15-.7.55.42.97.7 1.1.7.42 0 0-1.12-.4-1.83 1.1.28 5 .56 7.65 3.8-.84.98-2.23 1.54-3.9 1.54zm-2.37-6.6c.7-.28 1.53-.42 2.37-.42a10.7 10.7 0 0 1 .14 0c-.98 0-1.81.28-2.5.42zm0 0" fill="#de3138"/><path d="m23.95 61.38c-2.65-3.24-6.55-3.52-7.66-3.8 0-.14-.14-.14-.14-.14a6 6 0 0 1 1.53-1.12c.7-.14 1.53-.42 2.5-.42.7 0 1.4.14 2.1.28.56.28.97.56 1.39.84-.56-.14-.97-.28-1.53-.28-.7 0-1.12.14-1.4.56-.41.56.84.99 2.23 1.83.56.42 1.12.98 1.53 1.4-.14.28-.27.56-.55.84zm0 0" fill="#e3434b"/><path d="m16.7 59.41c-.13 0-.55-.28-1.1-.7 0-.42.27-.85.55-1.27 0 0 .14 0 .14.14.42.7.83 1.83.42 1.83zm0 0" fill="#de3138"/><path d="m24.5 60.53c-.41-.42-.97-.98-1.53-1.4-1.4-.84-2.64-1.27-2.23-1.83.28-.42.7-.56 1.4-.56.56 0 .97.14 1.53.28.7.7 1.12 1.4 1.12 2.39 0 .42-.15.7-.29 1.12zm0 0" fill="#f2989e"/><path d="m33 47.75a7.67 7.67 0 0 1 -8.36 6.88 7.8 7.8 0 0 1 -6.96-8.42 7.66 7.66 0 0 1 8.36-6.88 7.63 7.63 0 0 1 6.96 8.42zm0 0" fill="#ce2427"/><path d="m25.06 54.21c-1.81 0-3.34-.7-4.18-1.4-.83-.7-1.25-1.54-.97-1.54.14 0 .14.13.28.13.97.42 2.36.85 3.9.85a6.2 6.2 0 0 0 5.15-2.4c4.31-5.19-.98-9.26-.98-9.26 6.13 2.53 5.15 10.81-.41 13.06-.98.42-1.96.56-2.79.56zm0 0" fill="#ab2827"/><path d="m23.4 46.07c-1.82 0-3.49-.84-3.9-1.97-.7-1.54.97-3.09 3.34-4.07.13 0 .41-.14.55-.14-1.94.7-3.06 2.1-2.5 3.37.27.84 1.38 1.4 2.78 1.4.7 0 1.25-.14 1.95-.28 1.95-.84 2.23-1.54 2.5-2.95.56 1.55-.27 3.37-2.64 4.22-.7.28-1.4.42-2.09.42zm-3.77-2.67c-.14.14 0 .7.42 1.26.42.29.83.43 1.11.43h.14s-.42-.29-.97-.7c-.42-.57-.7-1-.7-1zm0 0" fill="#e44b51"/><path d="m21.16 45.09c-.28 0-.7-.14-1.11-.43-.42-.56-.56-1.12-.42-1.26 0 0 .28.42.7.98.55.42.97.7.97.7zm0 0" fill="#f7c1c5"/><path d="m24.64 42.84s-.41-4.07.28-6.46c.84-2.53 1.95-6.6 2.1-7.16.27-.56-1.82-.7-1.68-.14.28.7-1.67 5.62-1.95 8.42-.14 2.25.42 7.3 1.25 5.34zm0 0" fill="#ce2427"/><path d="m24.09 43.96c-.42 0-.7-.14-1.12-.28-2.78-.56-1.11-2.8-.7-2.8.14 0 .28.13.14.27 0 0-.27.85.98 1.27.14 0 .28 0 .42.14.14.42.28.7.55.7 0 0 .14-.14.28-.42v-.28c.7 0 1.25-.14 1.68-.28.41-.28.7-.42.83-.42h.14c.28.28-.97 2.1-3.2 2.1zm.55-2.8c-.14-.43-.14-.99-.14-1.55 0 .56.14 1.12.14 1.54zm0 0" fill="#982825"/><path d="m27.01 29.22c.14-.14 0-.28-.14-.28.14 0 .28.14.14.28zm0 0" fill="#bfbcbc"/><path d="m24.36 43.26c-.27 0-.41-.28-.55-.7v-3.37c0-1.27 1.53-5.06 1.39-5.62-.14-.42 1.12-3.8.98-3.93-.14 0-.98-.42-.84-.7 0 0 .28.28.7.28h.28c.7-.14.41-.42.14-.42.13 0 .27 0 .41.14.14 0 .28.14.14.28-.14.42-.42.42-.42.84 0 .28-2.09 7.72-2.09 7.86v1.69c0 .56 0 1.12.14 1.54v1.69c-.14.28-.28.42-.28.42zm2.1-14.46" fill="#982825"/><path d="m23.1 37.64c-.13-.42-.26-.98-.4-1.26-.29-.84-.7-1.4-.7-7.58 0 0 .27.84.27 2.24.14 1.55.57 3.93.7 4.64 0 .28.14.98.28 1.82-.14 0-.14.14-.14.14zm0 0" fill="#fefefe"/><path d="m23.4 39.47a8.23 8.23 0 0 1 -.3-1.83s0-.14.15-.14c0 .28.14.56.14.84zm0 0" fill="url(#at)" fill-rule="evenodd"/><path d="m23.53 41.57s0-.7-.14-1.68c0 .56.14 1.12.28 1.68zm-.14-1.68v-.42zm0 0" fill="#de3138"/><path d="m23.67 41.57c-.14-.56-.28-1.12-.28-1.68v-.42-1.13c.14 1.41.28 2.81.28 3.23zm0 0" fill="#de3138"/><path d="m22.14 27.4c-.14 0-.28 0-.28-.15 0 0 .28-.14.41-.14h.43c0 .14-.15.14-.43.28zm0 0" fill="#fefefe"/><path d="m23.4 51.54h-1.13c-5.15-.7-3.9-6.74-3.34-6.74a4.99 4.99 0 0 0 3.9 1.97c.14.14.28.14.56.14.97 0 1.95-.28 2.79-.56.83-.28 1.39-.56 1.8-.56.42 0 .56.28.28 1.26-.7 2.8-2.22 4.5-4.87 4.5zm-3.07-4.77c-.7 0-1.12.84-1.12 1.83-.14.98.42 1.96 1.12 1.96s.7-.84.7-1.96c0-.99 0-1.83-.7-1.83zm0 0" fill="#de3138"/><path d="m20.33 50.56c-.7 0-1.26-.98-1.12-1.96 0-.99.42-1.83 1.12-1.83s.7.84.7 1.83c0 1.12 0 1.96-.7 1.96zm0 0" fill="#eb7078"/><path d="m70.3 49.02c-.12 0-.12-.15-.26-.15a20.16 20.16 0 0 0 5.84-2.66 16.34 16.34 0 0 1 -4.31 2.39c-.43.13-.84.27-1.26.42zm-8.2-1.69s-.28-.84-.84-1.82c.84-.56 1.81-1.13 3.07-1.69a8.1 8.1 0 0 0 1.94.28c1.68 0 3.48-.42 5.43-1.12.14 0 .14-.14.28-.14.56 0 1.25 0 1.67-.14 1.54-.28 4.32-1.83 3.9-1.83h-.14c-.83.28-1.4.56-3.2.99-.14 0-.28.14-.28.14 2.5-1.27 4.6-2.67 5.15-3.94.7-.7.84-1.26.84-1.26h.14-.14c0-.14-.14-.14-.14-.14l.14.14c-.14.14-.28.42-.7.56v-.14c-.28-.98-2.37-1.68-5-1.68a14.34 14.34 0 0 0 -8.64 2.66c-.84.28-1.4.99-1.95 1.97-.98 1.12-1.53 2.1-1.4 2.53l.15.14c-.42.7-.56 1.4-.56 1.4-.28.14-.7.42-.98.56-.13-.28-.41-.56-.7-.84v-1.4c1.68-2.39 3.9-4.92 3.9-4.92a25.35 25.35 0 0 0 -3.9 3.51v-.14a16.54 16.54 0 0 1 6.69-4.77 18.62 18.62 0 0 1 6.55-1.27c.83 0 1.53.14 2.08.14 2.93.43 5.15 1.55 5.58 2.67v.99c0 1.12-.57 2.52-1.54 3.93-.14.14-.28.28-.42.56 2.65-4.07 1.53-5.9.98-6.46.55.84-.28 3.37-2.93 5.9-.41-.14-.83-.14-1.25-.14 0 0-3.34 2.24-2.79 2.24h.14c.42 0 .84-.14 1.26-.14-.97.57-1.95 1.13-3.2 1.55a13.9 13.9 0 0 1 -4.18.98 6.44 6.44 0 0 0 -4.6 0c-.13 0-.28 0-.41.14zm-1.67-.14c-.29 0-.56 0-.84-.14 0-.14.14-.42.28-.7.27.28.42.56.56.84zm2.5-3.65v-.14h.14zm0 0" fill="url(#av)" fill-rule="evenodd"/><path d="m66.27 44.1c-.7 0-1.39-.14-1.94-.28.97-.56 2.22-.98 3.62-1.54.27.42 1.8.56 3.34.56h.69c-.14 0-.14.14-.28.14-1.95.7-3.75 1.12-5.43 1.12zm-3.2-.7h-.14c.56-.98.84-2.25.98-2.81.7-1.54 2.78-2.53 2.5-2.53-.14 0-.28 0-.83.14 1.11-.84 2.5-1.54 3.9-1.96 1.66-.56 3.2-.7 4.73-.7 2.64 0 4.73.7 5.01 1.68v.14c-1.8 1.12-6.54 2.81-9.75 3.23.28-.14.42-.28.7-.56.56-.14 1.12-.28 1.81-.42 2.79-.98 5.01-2.1 4.87-2.8 0-.43-.97-.71-2.36-.71-.97 0-2.1.14-3.35.42-2.92.84-4.87 2.67-4.73 3.09 0 .42.7.56 1.81.56h.84c-.14.28-.28.42-.42.7a21.6 21.6 0 0 0 -5.57 2.53zm-.7-.56-.14-.14c-.13-.42.42-1.4 1.4-2.53-.56.84-.98 1.83-1.26 2.67zm9.61-.7c-.98 0-2.09-.14-2.92-.28.83-.15 1.67-.43 2.64-.57 4.18-.84 6.27-2.24 7.38-3.23-.55 1.27-2.64 2.67-5.15 3.94-.56 0-1.25.14-1.95.14zm0 0" fill="url(#ax)" fill-rule="evenodd"/><path d="m80.06 36.8h-.14zm-.14 0-.14-.14s.14 0 .14.14zm0 0" fill="url(#az)" fill-rule="evenodd"/><path d="m75.88 46.2c.56-.41 1.11-.83 1.67-1.4v.15c-.42.42-1.11.84-1.67 1.26zm0 0" fill="#bea09c"/><path d="m70.04 48.88a7.68 7.68 0 0 0 -2.93-1.69 13.9 13.9 0 0 0 4.18-.98c1.25-.42 2.23-.98 3.2-1.55.42-.14.7-.14 1.11-.14.7 0 1.4.14 1.95.28-.56.57-1.11.99-1.67 1.4a20.16 20.16 0 0 1 -5.84 2.67zm-9.9-.56a2.36 2.36 0 0 0 -.83-.85c.14-.14.14-.28.28-.42.28.14.55.14.84.14.14.28.28.42.41.7-.27.15-.41.29-.7.43zm18.94-5.06c-.14-.14-.42-.14-.55-.28a4.11 4.11 0 0 0 -1.4-.28c2.65-2.53 3.48-5.06 2.93-5.9.55.56 1.67 2.39-.98 6.46zm-18.94-.7v-1.4a25.35 25.35 0 0 1 3.9-3.52s-2.22 2.53-3.9 4.92zm0 0" fill="url(#aB)" fill-rule="evenodd"/><path d="m59.87 46.35v-.14zm1.4-.84c-.15-.28-.29-.42-.43-.7.28-.15.7-.43.98-.57 0 0 .14-.7.55-1.4 0 .14.28.42.56.56v.14l.14-.14c.28.28.7.28 1.26.42a19.99 19.99 0 0 0 -3.07 1.69zm10.71-2.67c.7-.28 1.25-.56 1.95-.84 0 0 .14-.14.28-.14 1.8-.43 2.37-.7 3.2-.99h.14c.42 0-2.36 1.55-3.9 1.83-.42.14-1.11.14-1.67.14zm-8.35-2.67c.56-.98 1.11-1.69 1.95-1.97-.7.57-1.4 1.27-1.95 1.97zm15.45-2.1c0-.29.14-.43.14-.7.42-.15.56-.43.7-.57 0 0-.14.56-.84 1.26zm.84-1.27" fill="url(#aD)" fill-rule="evenodd"/><path d="m64.33 43.82c-.56-.14-.98-.14-1.26-.42a21.6 21.6 0 0 1 5.57-2.53c.14-.28.28-.42.42-.7.41 0 .7-.14 1.12-.14-.29.28-.43.42-.7.56 3.2-.42 7.93-2.1 9.74-3.23 0 .28-.14.42-.14.7-1.11.99-3.2 2.39-7.38 3.23-.97.14-1.8.42-2.64.57.83.14 1.94.28 2.92.28.7 0 1.4-.14 1.95-.14-.7.28-1.25.56-1.95.84h-.7c-1.53 0-3.06-.14-3.33-.56-1.4.56-2.65.98-3.62 1.54zm-1.4-.42c-.28-.14-.55-.42-.55-.56.27-.84.69-1.83 1.25-2.67.56-.7 1.25-1.4 1.95-1.97.55-.14.7-.14.83-.14.28 0-1.8.99-2.5 2.53-.14.56-.42 1.83-.98 2.8zm0 0" fill="url(#aF)" fill-rule="evenodd"/><path d="m68.22 40.17c-1.11 0-1.8-.14-1.8-.56-.15-.42 1.8-2.25 4.72-3.09a15.5 15.5 0 0 1 3.35-.42c1.4 0 2.36.28 2.36.7.14.7-2.08 1.83-4.87 2.8-.7.15-1.25.3-1.8.43 1.1-1.26 2.91-3.23 4.31-3.23h.7c0-.14-.28-.14-.56-.14-.84 0-2.23.28-3.63 1.4-.96.99-1.53 1.69-1.94 2.11zm0 0" fill="url(#aH)" fill-rule="evenodd"/><path d="m69.06 40.17c.41-.42.98-1.12 1.94-2.1a5.94 5.94 0 0 1 3.63-1.41c.28 0 .56 0 .56.14h-.7c-1.4 0-3.2 1.97-4.31 3.23-.43 0-.7.14-1.12.14zm0 0" fill="url(#aJ)" fill-rule="evenodd"/><path d="m59.3 47.47v-.14c.15-.28.29-.7.43-1.26 0 0 0 .14.14.14v.14c-.14.28-.28.56-.28.7-.14.14-.14.28-.28.42zm-1.66-1.26c-.14-.42-.7-1.26-1.39-2.53.7.14 1.4.42 2.09.84-.14.85-.42 1.4-.7 1.69zm-1.53-.56a13.7 13.7 0 0 0 -3.62-.99 6.55 6.55 0 0 1 2.37-.98c.55.84.97 1.4 1.25 1.97zm-12.11-.15a28.03 28.03 0 0 1 -7.25-5.76c-.55-.7-1.1-1.27-1.66-1.97a34.12 34.12 0 0 1 -3.07-4.77 35.7 35.7 0 0 0 12.25 12.36c0 .14-.14.14-.27.14zm8.21-.99h-1.4c-4.03-1.96-8.62-4.49-11.96-8.14-8.5-9.27-8.08-18.68-5.72-19.94-1.25.42-4.45 2.24-3.33 10.24v.15c-.98-4.35-.42-7.87 1.25-9.55.7-.7 2.08-1.13 3.76-1.13 2.23 0 5.29.7 8.35 2.12 1.4.55 2.79 1.26 4.18 2.24 1.1.7 2.23 1.54 3.34 2.39.84.84 1.81 1.68 2.65 2.67.27.28.55.56.7.84.83.98 1.66 2.1 2.36 3.23a28 28 0 0 1 3.75 11.37v2.95s0-.14-.14-.14c.29-2.95-.41-7.72-3.75-14.32 0 0 2.09 8 2.23 13.06a4.75 4.75 0 0 0 -2.23-.56c-.14 0-.28-.14-.42-.14-.28 0-.42.14-.56.14-.28-.43-.55-.99-.83-1.41 0 0 .28-.98.42-2.39.13 0 .13 0 .13-.14.56-.56.7-2.24.14-4.63-.14-1.68-.55-3.23-1.53-4.07 0-.14-.14-.14-.14-.14a22.07 22.07 0 0 0 -4.17-5.76c-4.32-4.34-9.89-6.45-12.95-6.45-.98 0-1.67.28-2.09.7-.14 0-.14.14-.28.28-.42-.7-.56-1.12-.56-1.4v-.14h.29-.57.28c0 .14-.14.98.29 2.52 0 2.11 1.8 5.62 4.59 9.41l-.29-.27c-2.37-2.1-3.06-2.95-3.9-3.79l-.28-.28c-.42 0 2.23 4.21 4.32 5.62.56.42 1.4.98 2.37 1.54.14 0 .27.14.27.28 3.21 3.65 7.39 6.04 10.3 6.88 1.12 1.41 1.96 2.67 2.8 3.8 0 .14-1.54 1.96-1.68 2.38zm1.25-5.61c-.13-.14-.13-.14-.13-.28h.13zm0 0" fill="url(#aK)" fill-rule="evenodd"/><path d="m53.33 38.63c-1.95-2.95-4.19-6.04-6.41-8 .14-.71-.14-2.4-1.4-5.63-1.39-3.65-4.3-5.05-4.86-5.05-.28 0-.14.28.83.7 2.37 1.12 3.62 6.88 4.31 9.13-4.3-2.95-9.88-8.99-11.83-11.8.14-.14.14-.28.28-.28.42-.42 1.11-.7 2.09-.7 3.06 0 8.63 2.1 12.95 6.46a22.07 22.07 0 0 1 4.17 5.76c-.55-.56-.83-.84-.97-.84s1.95 2.8 1.67 5.47c-.14.99-.83 2.95-.7 4.77zm-2.23-.29c-2.92-.84-7.1-3.23-10.3-6.88 0-.14-.14-.28-.28-.28 2.08 1.12 4.73 2.25 5.98 2.25.14 0 .42 0 .42-.14a33.57 33.57 0 0 1 4.18 5.05zm3.76-.14c.13-1.26.27-3.09.27-4.77.56 2.39.42 4.07-.14 4.63 0 .14 0 .14-.13.14zm-9.33-6.31c-1.95-.7-5.43-2.11-7.24-3.52-2.79-3.79-4.6-7.3-4.6-9.4.84 2.24 2.93 5.75 8.5 10.1 1.25.99 2.36 1.83 3.34 2.82zm0 0" fill="url(#aL)" fill-rule="evenodd"/><path d="m30.63 30.2c-.42-1.26-.7-2.39-.83-3.37.27.98.55 2.1.97 3.23zm0 0" fill="#d6d5d5"/><path d="m32.02 33c-.55-.97-.97-1.96-1.39-2.8l.14-.14zm0 0" fill="url(#aM)" fill-rule="evenodd"/><path d="m59.3 47.33c-.4-.28-.96-.7-1.66-.98v-.14c.28-.28.56-.84.7-1.69.41.43.97.85 1.39 1.55-.14.56-.28.98-.42 1.26zm-15.03-1.96a35.7 35.7 0 0 1 -12.25-12.37l-1.25-2.95c-.42-1.12-.7-2.25-.97-3.23v-.15c-1.12-8 2.08-9.82 3.33-10.24-2.36 1.26-2.78 10.67 5.72 19.94 3.34 3.65 7.93 6.18 11.97 8.14-.28-.14-.7-.14-.98-.14-.97 0-2.09.14-3.2.42-.84.15-1.53.29-2.37.57zm15.73-1.55a5.29 5.29 0 0 0 -1.39-1.12c-.13 0-.13-.14-.13-.14-.14-5.06-2.23-13.06-2.23-13.06 3.34 6.6 4.04 11.37 3.75 14.32zm0 0" fill="url(#aN)" fill-rule="evenodd"/><path d="m57.64 46.35a5.17 5.17 0 0 0 -1.53-.7c-.28-.56-.7-1.13-1.25-1.97h1.39c.7 1.27 1.25 2.1 1.4 2.53zm0 0" fill="url(#aO)" fill-rule="evenodd"/><path d="m53.88 42.14c-.83-1.13-1.67-2.39-2.78-3.8.83.14 1.53.28 2.23.28 0 .15 0 .15.13.29v-.28c.56 0 1.12-.15 1.4-.43-.14 1.4-.42 2.39-.42 2.39.28.42.55.98.83 1.4-.41 0-.83 0-1.39.15zm1.25-8.71c-.41-1.27-.83-2.67-1.67-4.21 0 0 .14 0 .14.14.98.84 1.4 2.39 1.53 4.07zm-14.61-2.25c-.98-.56-1.81-1.12-2.37-1.54-2.1-1.4-4.74-5.62-4.32-5.62l.28.28c.84.84 1.53 1.69 3.9 3.8l.28.27c.69.99 1.53 1.83 2.23 2.81zm-6.82-12.22c-.43-1.54-.29-2.38-.29-2.52v.14c0 .28.14.7.56 1.4-.14.29-.14.56-.27.98zm0 0" fill="url(#aP)" fill-rule="evenodd"/><path d="m53.46 38.63c-.13-1.83.56-3.8.7-4.78.28-2.67-1.8-5.48-1.67-5.48.14 0 .42.29.97.85.84 1.54 1.26 2.94 1.67 4.21 0 1.68-.14 3.51-.27 4.77-.28.28-.84.42-1.4.42zm-.13 0c-.7 0-1.4-.15-2.23-.29a33.57 33.57 0 0 0 -4.18-5.05c0 .14-.28.14-.42.14-1.25 0-3.9-1.13-5.98-2.25-.7-.98-1.54-1.82-2.23-2.8 1.8 1.4 5.29 2.8 7.24 3.5-.98-.98-2.1-1.82-3.34-2.8-5.57-4.36-7.66-7.87-8.5-10.12.14-.42.14-.7.28-.98 1.95 2.81 7.52 8.85 11.83 11.8-.7-2.25-1.94-8-4.3-9.13-.98-.42-1.13-.7-.84-.7.55 0 3.47 1.4 4.87 5.05 1.25 3.23 1.53 4.92 1.39 5.62 2.22 1.97 4.45 5.06 6.4 8zm0 0" fill="url(#aQ)" fill-rule="evenodd"/><path d="m45.53 58.14h-1.13.29c4.03 0 8.9-1.54 12.1-3.93a17.78 17.78 0 0 1 -7.51 3.51c-1.25.28-2.65.42-3.76.42zm-5.3-.84c-2.5-.84-4.17-2.1-4.59-3.5-.7-2.12 2.93-6.33 8.36-8.3.13 0 .27 0 .27-.13a14.4 14.4 0 0 1 2.37-.57c1.11-.28 2.23-.42 3.2-.42.28 0 .7 0 .98.14h1.4v.14c-.84-.14-1.68-.14-2.51-.28 0 0 8.63 2.39 9.47 4.5-.57 0-1.96-.15-3.63-.15h-.42s-.41-.41-1.1-.84c0-.14 0-.14-.15-.14-.14-.42-.97-1.12-2.36-1.4a4.6 4.6 0 0 0 -2.1-.7c-.28 0-.4 0-.69.14h-.98c-1.1 0-2.22.14-3.34.42-4.73 1.26-8.07 4.63-7.66 6.04l.14.14h-.97v-.28c0 .14-.14.28-.14.28s.14 0 .14-.14c0 .14.14.28.56.42.27.14.56.14.84.28.7.42 2.08.7 3.61.7.84 0 1.81-.14 2.79-.28 0 .14-.14.14-.28.14-1.8.56-2.5.7-3.2.84-.42.14-.14.14.42.14.97 0 2.78-.14 3.75-.56.42-.14.84-.42 1.54-.84h.14a14.13 14.13 0 0 0 6.82-3.23c2.92-.42 5.15-.28 6.13-.56-.43.28-.56.7-.84.98-2.23 1.83-6.13 4.5-10.02 5.34-1.4.28-2.79.42-4.05.42-5.15 0-8.35-2.25-8.35-3.65-.14.84-.14 2.95 4.46 4.91m13.5-8.57h.14zm6.4-.41c-.7-.85-2.78-2.81-7.93-3.66h.28c1.25.14 2.64.57 3.62.99.56.14 1.11.42 1.53.7.7.28 1.25.7 1.67.98v.14c.42.28.7.57.83.85zm0 0" fill="url(#aR)" fill-rule="evenodd"/><path d="m40.93 53.65c-1.53 0-2.92-.28-3.61-.7.41 0 .97.14 1.66.14 1.4 0 3.49-.42 6.27-1.55.84-.27 1.67-.56 2.5-.84-.97.84-2.78 2.25-4.03 2.67-.98.14-1.95.28-2.79.28zm5.02-.56c1.39-.84 3.06-2.1 3.06-2.67 1.4-.28 2.65-.42 3.9-.56a14.13 14.13 0 0 1 -6.82 3.23zm-9.06-.7-.14-.14c-.41-1.4 2.93-4.78 7.66-6.04a13.6 13.6 0 0 1 3.34-.42h.98c-2.09.56.98-.14 2.65 1.12.55.28 1.39 1.27 2.36 1.82-2.22.15-4.6.29-6.12.85-.14 0-.42-.14-.7-.28 1.26-.7 2.1-1.55 1.95-1.97-.14-.14-.98-.42-2.37-.42-.97 0-2.09.14-3.34.56-2.92.85-5 2.67-4.73 3.23.14.28.7.28 1.39.28.97 0 2.65-.14 4.31-.56.57-.28 1.26-.42 1.82-.7.27.14.55.14.83.14-2.92 1.4-7.8 2.53-9.89 2.53zm17.13-4.5c-.7-.56-1.67-1.12-2.5-1.54 1.39.28 2.22.98 2.36 1.4.14 0 .14 0 .14.14zm0 0" fill="url(#aS)" fill-rule="evenodd"/><path d="m35.78 52.39s.14-.14.14-.28v.14c0 .14-.14.14-.14.14zm0 0" fill="url(#aT)" fill-rule="evenodd"/><path d="m44.41 58.14a12.99 12.99 0 0 1 -4.17-.84c1.25.42 2.64.7 4.17.84zm0 0" fill="#bea09c"/><path d="m44.7 58.14h-.29a18.33 18.33 0 0 1 -4.17-.84c-4.6-1.96-4.6-4.07-4.46-4.91 0 1.4 3.2 3.65 8.35 3.65 1.26 0 2.65-.14 4.05-.42 3.89-.85 7.79-3.51 10.02-5.34a7.87 7.87 0 0 0 -1.4 3.93 21.83 21.83 0 0 1 -12.1 3.93zm14.6-9.12v-.15h-.12c-.84-2.1-9.47-4.49-9.47-4.49.83.14 1.66.14 2.5.28-.14 0 0 .14 0 .14v-.14c5.15.85 7.24 2.81 7.93 3.66-.27.14-.55.41-.83.7zm0 0" fill="url(#aU)" fill-rule="evenodd"/><path d="m40.66 54.5c-.56 0-.84 0-.42-.15.7-.14 1.4-.28 3.2-.84.14 0 .28 0 .28-.14.7 0 1.39-.14 2.23-.28-.7.42-1.12.7-1.54.84-.97.42-2.78.56-3.75.56zm-3.34-1.55c-.28-.14-.57-.14-.84-.28-.42-.14-.56-.28-.56-.42v.14h.97c.15.28.29.42.43.56zm15.59-3.1c.28-.41.55-.7.83-1.12h.14-.14c.14-.27.28-.7.28-.84.7.43 1.11.84 1.11.84h.42c1.67 0 3.06.15 3.63.15v.28l-.14.14c-.98.28-3.21.14-6.13.56zm-1.4-3.5a15.9 15.9 0 0 0 -2.78-.56c.28-.14.41-.14.7-.14.55 0 1.39.28 2.09.7zm0 0" fill="url(#aV)" fill-rule="evenodd"/><path d="m43.72 53.37c1.25-.42 3.06-1.83 4.03-2.67-.83.28-1.66.57-2.5.84-2.78 1.13-4.88 1.55-6.27 1.55-.7 0-1.25-.14-1.66-.14-.14-.14-.28-.28-.43-.56 2.09 0 6.97-1.12 9.9-2.53-.29 0-.57 0-.84-.14.27-.14.55-.28.97-.42.28.14.56.28.7.28 1.52-.56 3.9-.7 6.12-.85-.28.43-.55.7-.83 1.13-1.25.14-2.5.28-3.9.56 0 .56-1.67 1.83-3.06 2.67-.84.14-1.54.28-2.23.28zm10.02-4.64c-.97-.55-1.8-1.54-2.37-1.82-1.66-1.26-4.73-.56-2.64-1.12.98.14 1.95.28 2.79.56.83.42 1.8.98 2.5 1.54 0 .15-.14.57-.28.84zm0 0" fill="url(#aW)" fill-rule="evenodd"/><path d="m59.18 49.16v-.28h.13v.14s-.13 0-.13.14zm0 0" fill="url(#aX)" fill-rule="evenodd"/><path d="m39.82 50.98c-.7 0-1.25 0-1.4-.28-.27-.56 1.82-2.38 4.74-3.23 1.25-.42 2.37-.56 3.34-.56 1.4 0 2.23.28 2.37.42.14.42-.7 1.27-1.95 1.97-.56-.28-1.53-.42-2.79-.7h-.97c-1.11 0-1.95.27-2.5.56-.56.28-.84.56-.7.56l.56-.28a2.8 2.8 0 0 1 1.53-.42c1.25 0 2.78.42 3.9.7-.56.28-1.25.42-1.82.7-1.66.42-3.34.56-4.31.56zm0 0" fill="url(#aY)" fill-rule="evenodd"/><path d="m45.95 49.72c-1.12-.28-2.65-.7-3.9-.7a2.8 2.8 0 0 0 -1.53.42l-.56.28c-.14 0 .14-.28.7-.56.55-.28 1.39-.56 2.5-.56h.97c1.26.27 2.23.42 2.79.7-.42.14-.7.28-.97.42zm0 0" fill="url(#aZ)" fill-rule="evenodd"/><path d="m72.4 52.53a8.08 8.08 0 0 1 -5.43 10.1 7.9 7.9 0 0 1 -9.88-5.47 8 8 0 0 1 5.43-9.97 7.94 7.94 0 0 1 9.88 5.34zm0 0" fill="#ce2427"/><path d="m59.04 58.57c-.29-.57-.7-1.13-.84-1.83 0-.14-.14-.14-.14-.28.28.7.55 1.4.98 2.1zm0 0" fill="#de3138"/><path d="m69.34 59.41c-.7 0-.7-2.67-1.54-5.48-1.1-3.65-4.59-5.2-5.42-5.9 0-.14-.15-.28-.15-.42.29-.14.84-.14 1.4-.14 2.09 0 5.57.85 6.96 5.34.98 2.95 0 6.04-.98 6.46-.14 0-.14.14-.27.14zm0 0" fill="#ab2827"/><path d="m62.1 47.33s-2.23-6.88-8.22-5.2c0 0-2.36 2.96-1.67 2.53 3.76-1.96 6.27-1.26 8.77 3.52 2.09 3.78 1.4-.14 1.12-.85zm0 0" fill="#ce2427"/><path d="m58.48 42.56c-.7-.28-1.4-.56-2.23-.56.7 0 1.4.14 2.23.56zm0 0" fill="url(#a0)" fill-rule="evenodd"/><path d="m58.61 42.7c-.13 0-.13-.14-.13-.14s0 .14.13.14zm0 0" fill="url(#a2)" fill-rule="evenodd"/><path d="m61.68 47.47c-.14 0-.97-1.68-3.07-3.79-.7-.7-1.52-.84-2.5-.84-1.67 0-3.34.84-3.34.84a4.61 4.61 0 0 1 3.48-1.68c.84 0 1.53.28 2.23.56 0 0 0 .14.13.14 3.2 2.1 3.2 4.77 3.07 4.77zm0 0" fill="#ab2827"/><path d="m63.63 61.66c-1.67 0-3.49-1.41-4.6-3.1.84 1 1.95 1.69 2.79 1.69 0 0 .14-.14.28-.14.97-.28 0-1.97-.7-4.35-.83-2.67-.56-5.34-1.53-5.34h-.14c-.98.28-2.5 2.67-1.67 6.04v-.14c-.84-2.8.14-6.32 2.92-7.16.14 0 .42-.14.56-.14.28.56.56.7.7.7.13 0 .28-.28.28-.7 1.94.42 3.47 2.8 4.03 5.2.42 1.12.56 2.38.56 3.5-.14-.14-.14-.28-.28-.42h-.14c-.28 0-.42 1.4-1.4 2.39-1.1 1.12-2.92.98-2.5 1.4a2 2 0 0 0 .98.28c.7 0 1.67-.28 2.5-1.12.14-.14.14-.28.28-.28-.42.7-.97 1.26-1.95 1.55-.27 0-.55.14-.97.14zm0 0" fill="#d62326"/><path d="m61.82 60.25c-.84 0-1.95-.7-2.78-1.68-.43-.7-.7-1.41-.98-2.1-.84-3.38.7-5.77 1.67-6.05h.14c.97 0 .7 2.67 1.53 5.34.7 2.38 1.67 4.07.7 4.35-.14 0-.28.14-.28.14zm-2.09-8.98h-.14c-.55.13-1.67 1.54-1.11 3.64.27 1.41 1.4 2.25 2.09 2.25h.14c.55-.14 0-1.26-.28-2.67-.43-1.68-.14-3.22-.7-3.22zm0 0" fill="#e3434b"/><path d="m62.23 49.72c-.13 0-.41-.14-.7-.7h.99c0 .42-.15.7-.29.7zm0 0" fill="#d62326"/><path d="m60.57 57.16c-.7 0-1.82-.84-2.09-2.25-.56-2.1.56-3.5 1.11-3.64h.14c.56 0 .27 1.54.7 3.22.28 1.4.83 2.53.28 2.67zm0 0" fill="#f298a0"/><path d="m66.55 59.97c.28-.7.42-1.4.56-2.25.14.57 0 1.4-.56 2.25zm0 0" fill="#de3138"/><path d="m63.77 61.38a2 2 0 0 1 -.98-.29c-.41-.42 1.4-.28 2.5-1.4.98-.98 1.12-2.39 1.4-2.39h.14c.14.14.14.28.28.42-.14.85-.28 1.55-.56 2.25-.14 0-.14.14-.28.28a3.61 3.61 0 0 1 -2.5 1.13zm0 0" fill="#e3434b"/><path d="m93.29 60.53a9.4 9.4 0 0 1 -9.33 9.55 9.43 9.43 0 0 1 -9.47-9.55 9.4 9.4 0 1 1 18.8 0zm0 0" fill="#ce2427"/><path d="m76.3 62.78a6.53 6.53 0 0 1 -.42-2.39v-.28c0 .84.14 1.83.42 2.67zm0 0" fill="#de3138"/><path d="m87.85 67.13c-1.25 0-.14-2.95-.14-6.6-.13-4.63-3.48-7.44-4.31-8.57.14-.14.14-.28.14-.42h.14a8.26 8.26 0 0 1 7.52 8.57c.13 3.65-1.95 6.88-3.35 7.02zm0 0" fill="#ab2827"/><path d="m83.54 51.13s-.28-8.43-7.66-8.57c0 0-3.62 2.39-2.65 2.24 4.88-.98 7.38.7 8.63 6.88 1.12 4.92 1.68.28 1.68-.55zm0 0" fill="#ce2427"/><path d="m81.04 44.66c-.57-.56-1.26-.98-1.96-1.4.7.28 1.26.7 1.96 1.4zm0 0" fill="#bea09c"/><path d="m79.08 43.26c-.14-.14-.42-.14-.55-.28.13.14.41.14.55.28zm0 0" fill="url(#a3)" fill-rule="evenodd"/><path d="m82.84 51.13c-.14 0-.41-2.11-2.09-5.2-.97-1.97-3.34-2.25-4.87-2.25-.97 0-1.67.14-1.67.14.14-.14 1.4-.98 3.06-.98.42 0 .84.14 1.26.14.13.14.41.14.55.28.7.42 1.4.84 1.96 1.4 2.92 3.38 1.94 6.47 1.8 6.47zm0 0" fill="#ab2827"/><path d="m81.59 67.97c-2.5 0-4.46-2.52-5.3-5.2.7 1.7 1.96 2.82 2.8 2.82 1.38 0 .69-2.25.69-5.2 0-3.5 1.26-6.46 0-6.46-1.25 0-3.9 2.1-3.9 6.18v-.14c0-3.5 2.23-7.16 5.71-7.16h.55c.29.84.42 1.12.7 1.12.14 0 .28-.28.42-.7 2.1 1.12 2.92 4.35 2.92 7.16 0 1.4-.13 2.8-.56 4.22 0-.29-.14-.43-.14-.57s-.13-.14-.13-.14c-.42 0-1.12 1.55-2.37 2.25-.84.56-1.67.56-2.37.56h-.41c-.42 0-.7 0-.56.28.28.42.97.7 1.95.7.7 0 1.39-.14 2.23-.56.14-.14.27-.14.41-.28-.7.7-1.53 1.12-2.64 1.12zm0 0" fill="#d62326"/><path d="m79.08 65.59c-.83 0-2.09-1.13-2.78-2.81a8.78 8.78 0 0 1 -.42-2.67c0-4.07 2.65-6.18 3.9-6.18 1.26 0 0 2.95 0 6.46 0 2.95.7 5.2-.7 5.2zm.14-10.82c-.7 0-2.37 1.13-2.5 3.66-.14 1.82.97 3.23 1.8 3.37.7 0 .42-1.4.56-3.23.14-1.97.98-3.8.28-3.8zm0 0" fill="#e3434b"/><path d="m82.84 53.93c-.28 0-.41-.28-.7-1.12.42.14.84.28 1.12.42-.14.42-.28.7-.42.7zm0 0" fill="#d62326"/><path d="m78.53 61.8c-.84-.14-1.95-1.55-1.81-3.37.13-2.53 1.8-3.66 2.5-3.66h.14c.7 0-.14 1.83-.28 3.8-.14 1.82.14 3.23-.55 3.23zm0 0" fill="#f298a0"/><path d="m84.23 66.85a8.8 8.8 0 0 0 1.4-2.24c0 .55-.56 1.54-1.4 2.24zm0 0" fill="#de3138"/><path d="m81.59 67.7c-.98 0-1.67-.29-1.95-.7-.14-.29.14-.29.56-.29h.41c.7 0 1.53 0 2.37-.56 1.25-.7 1.95-2.25 2.37-2.25 0 0 .13 0 .13.14s.14.28.14.57a8.8 8.8 0 0 1 -1.39 2.24c-.14.14-.27.14-.41.28-.84.42-1.53.57-2.23.57zm0 0" fill="#e3434b"/></svg>