<svg xmlns="http://www.w3.org/2000/svg" viewBox="0 0 17441 11811"><circle cx="8940" cy="5591" r="737" fill="#ff0" stroke="#000" stroke-width="50"/><path fill="#3C3" stroke="#000" stroke-width="50" d="M2307 8126l687-152 686-153 361 604 361 603-686 153-687 153-361-604z"/><path fill="#3C3" stroke="#000" stroke-width="50" d="M4403 9032l-488 506-488 506 327 623 327 622 488-506 488-506-327-623z"/><path fill="red" stroke="#000" stroke-width="50" d="M7852 1500h2177v2177H7852z"/><path fill="red" stroke="#000" stroke-width="41.474" d="M11936.6 2600.76l1090.005 1884.934-1884.934 1090.005-1090.005-1884.934z"/><path fill="red" stroke="#000" stroke-width="41.474" d="M13036.1 6659.99l-1073.205 1894.541-1894.541-1073.205 1073.205-1894.541z"/><path fill="red" stroke="#000" stroke-width="41.474" d="M10082.6 9666.92l-2177.227 28.691-28.692-2177.227 2177.228-28.692z"/><path fill="red" stroke="#000" stroke-width="41.474" d="M5973.13 8610.02L4864.855 6735.77l1874.25-1108.275 1108.275 1874.25z"/><path fill="red" stroke="#000" stroke-width="41.474" d="M4849.04 4504.19l1081.342-1889.921L7820.305 3695.61 6738.96 5585.532z"/><path fill="#ff0" stroke="#000" stroke-width="50" d="M11838 601l-101 854-102 854-691 512-692 511 102-854 102-854 691-511z"/><path fill="#ff0" stroke="#000" stroke-width="50" d="M14710 5517l-785 351-785 352-794-331-794-331 785-351 785-351 794 331z"/><path fill="#ff0" stroke="#000" stroke-width="50" d="M11887 10552l-697-504-696-505-110-853-111-853 697 505 696 505 110 853z"/><path fill="#ff0" stroke="#000" stroke-width="50" d="M6090 10609l94-855 93-855 686-519 687-518-94 855-93 855-686 518z"/><path fill="#ff0" stroke="#000" stroke-width="50" d="M3170 5671l785-352 785-352 794 330 795 330-785 352-785 351-794-329z"/><path fill="#ff0" stroke="#000" stroke-width="50" d="M6117 558l683 522 684 522 89 855 90 856-684-522-684-522-89-855z"/></svg>