<svg xmlns="http://www.w3.org/2000/svg" viewBox="0 0 17441 11811"><path fill="#F39" stroke="#000" stroke-width="50" d="M11285 5924l-2534-8 17-5386z"/><path fill="#F39" stroke="#000" stroke-width="50" d="M5908 5920h2851V534z"/><path fill="#ff0" stroke="#000" stroke-width="50" d="M7340 8454v2851h1267V8454z"/><path fill="#ff0" stroke="#000" stroke-width="50" d="M8924 8454v2851h1267V8454z"/><path fill="#F39" stroke="#000" stroke-width="50" d="M12252 1257L9671 2460l533 1149 2585-1203z"/><path fill="#F39" stroke="#000" stroke-width="50" d="M7023 5920v2534h3485V5920z"/><path fill="#F39" stroke="#2B2A29" stroke-width="50" d="M6584 9641l-2862 1664 1826-3130z"/><circle cx="3716" cy="8450" r="1291" fill="#fff" stroke="#2B2A29" stroke-width="50"/><path fill="#F39" stroke="#2B2A29" stroke-width="50" d="M817 9641l2862 1664-1826-3130z"/><path fill="#F39" stroke="#2B2A29" stroke-width="50" d="M16544 9641l-2862 1664 1827-3130z"/><circle cx="13676" cy="8450" r="1291" fill="#fff" stroke="#2B2A29" stroke-width="50"/><path fill="#F39" stroke="#2B2A29" stroke-width="50" d="M10777 9641l2862 1664-1826-3130z"/></svg>