<svg xmlns="http://www.w3.org/2000/svg" viewBox="0 0 17441 11811"><path fill="#ff0" stroke="#000" stroke-width="50" d="M496 2988v3522h5578z"/><path fill="#ff0" stroke="#000" stroke-width="50" d="M8328 3128L6336 1849 4222 2913l1992 1280z"/><path fill="#ff0" stroke="#000" stroke-width="50" d="M4234 2933l-78 2364 1996 1272 82-2368z"/><path fill="red" stroke="#000" stroke-width="50" d="M5078 8554L3869 6519l-2368 8 1208 2034z"/><path fill="#3C3" stroke="#000" stroke-width="50" d="M1743 9277v1503h4110V9277z"/><path fill="#3C3" stroke="#000" stroke-width="50" d="M6734 9277v1503h4109V9277z"/><path fill="#3C3" stroke="#000" stroke-width="50" d="M12018 9277v1503h4109V9277z"/><path fill="#ff0" stroke="#000" stroke-width="50" d="M16982 2988v3522h-5578z"/><path fill="#ff0" stroke="#000" stroke-width="50" d="M9150 3128l1992-1279 2114 1064-1993 1280z"/><path fill="#ff0" stroke="#000" stroke-width="50" d="M13244 2933l78 2364-1996 1272-82-2368z"/><path fill="red" stroke="#000" stroke-width="50" d="M12400 8554l1208-2035 2369 8-1209 2034z"/></svg>