<svg xmlns="http://www.w3.org/2000/svg" viewBox="0 0 17441 11811"><path fill="#3C3" stroke="#000" stroke-width="50" d="M7448 3829h4519L9707 1569 7448 3829zm1130-1130"/><path fill="#3C3" stroke="#000" stroke-width="50" d="M7448 6082h4519L9707 3822 7448 6082zm1130-1130"/><path fill="#3C3" stroke="#000" stroke-width="50" d="M7448 8365h4519L9707 6105 7448 8365zm1130-1130"/><path fill="#ff0" stroke="#000" stroke-width="50" d="M9290 8373v2420h844V8373z"/><circle cx="5625" cy="2880" r="1008" fill="#ff0" stroke="#2B2A29" stroke-width="50"/><path fill="#3C3" stroke="#000" stroke-width="50" d="M13899 8112l416 702 415 703-410 703-409 704-416-702-415-702 410-704z"/><path fill="#3C3" stroke="#000" stroke-width="50" d="M15908 8112l416 702 415 703-410 703-409 704-416-702-415-702 410-704z"/><path fill="#3C3" stroke="#000" stroke-width="50" d="M5591 8112l415 702 415 703-409 703-410 704-415-702-416-702 410-704z"/><path fill="#3C3" stroke="#000" stroke-width="50" d="M3526 8112l415 702 416 703-410 703-410 704-415-702-415-702 409-704z"/><path fill="#3C3" stroke="#000" stroke-width="50" d="M1431 8112l415 702 415 703-409 703-410 704-415-702-416-702 410-704z"/></svg>