<svg xmlns="http://www.w3.org/2000/svg" viewBox="0 0 17441 11811"><path fill="red" stroke="#000" stroke-width="50" d="M3056 4223v3170h3170V4223z"/><path fill="red" stroke="#000" stroke-width="50" d="M3056 7393v2853h1585V7393z"/><path fill="red" stroke="#000" stroke-width="50" d="M4641 7393v2853h1585V7393z"/><path fill="#fff" stroke="#000" stroke-width="50" d="M1471 4223v2853h1585V4223z"/><path fill="#fff" stroke="#000" stroke-width="50" d="M6226 4223v2853h1585V4223z"/><path fill="#fff" stroke="#000" stroke-width="50" d="M4641 1053L3056 2266l617 1957h1936l617-1957z"/><path fill="#fff" stroke="#000" stroke-width="50" d="M12718 3204l-1906 1103 21 2203 1907-1104z"/><path fill="red" stroke="#000" stroke-width="50" d="M12710 5419l-1902 1112 34 2202 1898-1112z"/><path fill="#fff" stroke="#000" stroke-width="50" d="M12740 3200l-30 2202 1902 1112 30-2203z"/><path fill="red" stroke="#000" stroke-width="50" d="M12752 5415l-46 2202 1898 1120 42-2202z"/><path fill="red" stroke="#000" stroke-width="50" d="M12685 1014l46 2203 1940 1044-46-2202z"/><path fill="red" stroke="#000" stroke-width="50" d="M12756 1006l-1931 1061-30 2202 1932-1061z"/><path fill="red" stroke="#000" stroke-width="50" d="M11615 8661v2219h2536V8661z"/><path fill="red" stroke="#000" stroke-width="50" d="M14468 3906v3487h1268V3906z"/><path fill="red" stroke="#000" stroke-width="50" d="M9713 3906v3487h1268V3906z"/></svg>