<svg xmlns="http://www.w3.org/2000/svg" viewBox="0 0 17441 11811"><circle cx="5275" cy="7774" r="837" fill="#ff0" stroke="#2B2A29" stroke-width="20"/><path fill="#F39" fill-rule="nonzero" stroke="#2B2A29" stroke-width="20" d="M2484 5557l1978 1978H2484V5557zm0 989"/><path fill="#F39" fill-rule="nonzero" stroke="#2B2A29" stroke-width="20" d="M7408 4918L5490 6954l-59-1977 1977-59zm-989 30"/><path fill="#F39" fill-rule="nonzero" stroke="#2B2A29" stroke-width="20" d="M8700 8762L6118 7686l1829-753 753 1829zm-377-915"/><path fill="#F39" fill-rule="nonzero" stroke="#2B2A29" stroke-width="20" d="M5944 11275l-209-2789 1499 1290-1290 1499zm645-750"/><path fill="#F39" fill-rule="nonzero" stroke="#2B2A29" stroke-width="20" d="M2470 9973l2383-1464-460 1924-1923-460zm961 230"/><g/><g><path fill="#0CF" fill-rule="nonzero" stroke="#2B2A29" stroke-width="50" d="M10572 354l1229 4222-2806-1929 1577-2293zm-788 1146"/><path fill="#0CF" fill-rule="nonzero" stroke="#2B2A29" stroke-width="50" d="M17059 4739l-4372 466 2849 1863 1523-2329zm-762 1165"/><polygon fill="#3C3" stroke="#2B2A29" stroke-width="50" points="11522,4578 10900,5027 10277,5476 9597,5122 8916,4767 9538,4318 10161,3869 10842,4224"/><polygon fill="#3C3" stroke="#2B2A29" stroke-width="50" points="13557,7841 12971,7345 12386,6849 12566,6103 12746,5356 13332,5852 13917,6348 13737,7094"/><polygon fill="#ff0" stroke="#000" stroke-width="50" points="11270,6270 11092,5755 10913,5239 11348,4910 11783,4581 12230,4893 12678,5204 12520,5726 12361,6248 11816,6259"/><polygon fill="#ff0" stroke="#000" stroke-width="50" points="13190,3515 13369,4031 13548,4546 13113,4875 12678,5204 12230,4893 11783,4581 11941,4059 12099,3537 12645,3526"/></g></svg>