<svg xmlns="http://www.w3.org/2000/svg" viewBox="0 0 17441 11811"><g><rect width="3000" height="3000" x="14102" y="575" fill="#0CF" stroke="#2B2A29" stroke-width="50"/><rect width="3000" height="3000" x="14102" y="8325" fill="#ff0" stroke="#2B2A29" stroke-width="50"/><rect width="3000" height="3000" x="416" y="8325" fill="#0CF" stroke="#2B2A29" stroke-width="50"/><rect width="3000" height="3000" x="416" y="451" fill="#ff0" stroke="#2B2A29" stroke-width="50"/><circle cx="8761" cy="5946" r="1525" fill="#fff" stroke="#000" stroke-width="50"/><path fill="#f0f" fill-rule="nonzero" stroke="#2B2A29" stroke-width="50" d="M8758 852l-3 3528-1727-2116L8758 852zm-865 706"/><path fill="#fff" fill-rule="nonzero" stroke="#2B2A29" stroke-width="50" d="M8784 852l3 3528 1727-2116L8784 852zm865 706"/><path fill="#f0f" fill-rule="nonzero" stroke="#2B2A29" stroke-width="50" d="M8835 11039l-47-3528 1757 2092-1710 1436zm855-718"/><path fill="#fff" fill-rule="nonzero" stroke="#2B2A29" stroke-width="50" d="M8809 11039l-52-3528-1698 2141 1750 1387zm-875-693"/><g><path fill="#f0f" fill-rule="nonzero" stroke="#2B2A29" stroke-width="50" d="M3667 5937l3528-3-2113 1731-1415-1728zm707 864"/><path fill="#fff" fill-rule="nonzero" stroke="#2B2A29" stroke-width="50" d="M3667 5911l3528-9-2119-1724-1409 1733zm704-867"/></g><g><path fill="#f0f" fill-rule="nonzero" stroke="#2B2A29" stroke-width="50" d="M13854 5986l-3528-33 2131-1709 1397 1742zm-698-871"/><path fill="#fff" fill-rule="nonzero" stroke="#2B2A29" stroke-width="50" d="M13854 6022l-3529-27 2102 1745 1427-1718zm-713 859"/></g></g></svg>