<svg xmlns="http://www.w3.org/2000/svg" viewBox="0 0 17441 11811"><polygon fill="#F60" stroke="#2B2A29" stroke-width="50" points="8731,2778 9354,3712 9977,4646 9356,5577 8736,6509 8112,5575 7489,4641 8110,3710"/><path fill="#fff" fill-rule="nonzero" stroke="#2B2A29" stroke-width="50" d="M10655 1553l-542 2815-1136-1678 1678-1137zm-839 569"/><path fill="#fff" fill-rule="nonzero" stroke="#2B2A29" stroke-width="50" d="M6869 1544l541 2815 1137-1678-1678-1137zm839 569"/><path fill="#F60" fill-rule="nonzero" stroke="#2B2A29" stroke-width="50" d="M8791 6665l16 4369 2177-2192-2193-2177zm1097 1088"/><path fill="#F60" fill-rule="nonzero" stroke="#2B2A29" stroke-width="50" d="M8686 6656l21 4369-2195-2174 2174-2195zM7599 7753"/><path fill="#fff" fill-rule="nonzero" stroke="#2B2A29" stroke-width="50" d="M5263 7813l1999 2054-2026-27 27-2027zm-14 1013"/></svg>