<svg xmlns="http://www.w3.org/2000/svg" viewBox="0 0 17441 11811"><rect width="804" height="3344" fill="#CCC" stroke="#2B2A29" stroke-width="50" transform="rotate(-90 9982.875 222.725) scale(1.39886)"/><polygon fill="#900" stroke="#2B2A29" stroke-width="50" points="12145,1448 13325,2782 14504,4115 12145,4115 9786,4115 10966,2782"/><rect width="1125" height="4678" x="9777" y="4259" fill="#ff0" stroke="#2B2A29" stroke-width="50"/><rect width="1125" height="4678" x="13323" y="4259" fill="#ff0" stroke="#2B2A29" stroke-width="50"/><rect width="1239" height="5153" x="3892" y="4974" fill="#3C3" stroke="#2B2A29" stroke-width="50"/><polygon fill="#0CF" stroke="#000" stroke-width="50" points="4534,2980 4972,3298 5410,3616 5243,4131 5076,4646 4535,4646 3993,4646 3826,4131 3659,3617 4096,3299"/><polygon fill="#0CF" stroke="#000" stroke-width="50" points="6836,4289 6785,4828 6735,5367 6207,5485 5679,5604 5403,5138 5127,4673 5485,4266 5842,3860 6339,4075"/><polygon fill="#0CF" stroke="#000" stroke-width="50" points="2192,4326 2681,4094 3170,3863 3542,4256 3913,4649 3654,5124 3394,5599 2863,5499 2331,5400 2261,4863"/></svg>