<svg xmlns="http://www.w3.org/2000/svg" viewBox="0 0 17441 11811"><path fill="#fff" stroke="#2B2A29" stroke-width="50" d="M10501 1293l-734 959-734 958 727 959 727 958 734-958 734-959-727-958z"/><path fill="red" stroke="#2B2A29" stroke-width="50" d="M10515 10703l-20-5504-2742 2762 2762 2742zM9134 9332"/><path fill="red" stroke="#2B2A29" stroke-width="50" d="M10512 8493l12-3346 1667 1679-1679 1667zm839-834"/><path fill="red" stroke="#2B2A29" stroke-width="50" d="M12199 6884l-1643 1613 8 2207 1669-1830z"/><path fill="#00f" stroke="#2B2A29" stroke-width="50" d="M10465 10826L6555 6952l18 3892 3892-18zm-1946 9"/><path fill="#00f" stroke="#2B2A29" stroke-width="50" d="M4269 9171l2186-2211 12 2198-2198 13zm1099-7"/><path fill="#3C3" stroke="#2B2A29" stroke-width="50" d="M2612 9189h2478l-1239 1239-1239-1239zm620 620"/></svg>