<svg xmlns="http://www.w3.org/2000/svg" viewBox="0 0 17441 11811"><path fill="#CCC" stroke="#2B2A29" stroke-width="50" d="M2735 3280h3234v3234H2735z"/><path fill="#fff" stroke="#2B2A29" stroke-width="50" d="M3378 3271L1520 1412v1859h1858zm-929 0"/><path fill="#CCC" stroke="#2B2A29" stroke-width="50" d="M4566 10804l4132-4155-4143 11 11 4144zm-6-2072"/><path fill="#CCC" stroke="#2B2A29" stroke-width="50" d="M13011 10804L8879 6649l4143 11-11 4144zm6-2072"/><path fill="#fff" stroke="#2B2A29" stroke-width="50" d="M5545 3271l1858-1859v1859H5545zm929 0"/><path fill="#fff" stroke="#2B2A29" stroke-width="50" d="M6828 8718h3929L8792 6753 6828 8718zm982-983"/><path fill="#CCC" stroke="#2B2A29" stroke-width="50" d="M14699 4185l-3 882-4 882-813 335-813 335 3-882 3-882 814-335z"/></svg>