<?xml version="1.0" encoding="UTF-8"?>
<!DOCTYPE svg PUBLIC "-//W3C//DTD SVG 1.1//EN" "http://www.w3.org/Graphics/SVG/1.1/DTD/svg11.dtd">
<!-- Creator: CorelDRAW X7 -->
<svg xmlns="http://www.w3.org/2000/svg" xml:space="preserve" width="2059px" height="3336px" version="1.1" shape-rendering="geometricPrecision" text-rendering="geometricPrecision" image-rendering="optimizeQuality" fill-rule="evenodd" clip-rule="evenodd"
viewBox="0 0 1897 3072"
 xmlns:xlink="http://www.w3.org/1999/xlink">
 <g id="Слой_x0020_1">
  <metadata id="CorelCorpID_0Corel-Layer"/>
  <g id="_3184765696">
   <path fill="#86776F" stroke="#86776F" stroke-width="0.828915" d="M1168 128l-11 2 -22 -15c-6,8 11,15 -11,5l0 -13c-13,3 -9,8 -30,-8l-7 -8c-52,-33 -145,-44 -219,-39 -70,6 -149,34 -195,68 -15,13 -26,26 -37,42 -25,41 -1,36 -35,39l-34 -78c-2,-3 -2,-3 -4,-3 0,-3 -2,-3 -4,-3 0,-2 -2,-2 -3,-2 -4,-3 -6,-3 -10,-8 -7,-3 -14,-8 -16,-10 -31,-6 -33,-16 -68,-6 -26,6 -43,19 -59,32 -2,13 -2,5 -13,15 -9,11 -5,8 -15,18 -9,19 -14,32 -24,45 -9,26 -18,46 -27,75 -37,117 -50,258 -155,364 -22,24 -81,78 -95,115 -9,2 -13,13 -19,28 -27,60 -24,63 -16,128 15,143 31,153 110,203 98,59 204,-39 221,-45 7,-13 -2,-2 11,-13 4,-5 5,-5 11,-10 11,-8 15,-13 27,-21l52 -73c7,-15 22,-75 28,-96 20,-86 58,-153 55,-200 -6,-60 -43,-89 -2,-211 13,-39 48,-166 86,-172 13,39 -75,159 -71,281 1,47 31,50 33,91 5,112 -122,185 -50,396 7,5 4,5 13,13 4,5 11,13 16,18 17,16 22,16 46,23 8,-7 -14,-13 11,-5 22,8 4,0 11,13l28 0 22 0c52,-5 88,-13 125,-39 15,-10 30,-23 44,-36 8,-5 37,-34 46,-39 2,-13 6,-13 20,-34 8,-13 15,-21 24,-34 43,-57 13,-31 13,-73 -22,-18 -20,-36 -55,-41 -29,-3 -57,-13 -48,-39 8,-39 17,-47 35,-68 54,-49 304,-23 190,81 -41,20 -22,13 -41,57 -13,31 -31,29 -27,60 5,60 57,151 114,171 27,11 51,16 82,21 67,8 105,-8 153,-36 4,-16 37,-26 50,-94 7,-36 5,-104 -4,-138 -18,-65 -94,-130 -105,-205 -13,18 -31,31 -50,41 -22,13 -38,16 -68,19 -58,7 -104,-13 -134,-42 -37,-29 -75,-117 -81,-174 -18,-34 2,-167 32,-214 14,-23 18,-20 42,-41 90,-73 228,-26 252,21l5 18c6,0 6,-3 13,10l20 55c28,117 4,174 -9,260 -31,42 81,187 96,218 24,55 27,157 5,214 -9,23 -22,41 -27,54 31,37 68,99 143,94 57,-5 140,-62 169,-73l17 -10 2 -21c25,-26 27,-31 27,-83 0,-39 -9,-68 -24,-99l-20 -44 -15 -13c-31,-39 -53,-73 -64,-123 -13,-49 -16,-143 -20,-197 -7,-86 -33,-185 -66,-260 -17,-34 -32,-52 -33,-71 -17,-10 -22,-28 -32,-41 -49,-70 -180,-104 -253,-63 -52,26 -37,32 -54,84 -27,0 -13,-3 -18,-8z"/>
   <path fill="#B6B3A5" stroke="#B6B3A5" stroke-width="0.828915" d="M1370 1361c2,47 -2,78 -16,119 -8,21 -13,29 -23,47 -12,26 -11,21 -34,37 -15,15 5,93 3,127 -2,23 0,42 -11,60 -16,23 -26,2 -40,0 -17,67 -15,143 -57,190 -15,0 -20,0 -28,-13 -4,44 -9,67 -22,106l-11 6c-2,18 -5,26 -29,28l-11 -18c-11,-5 -4,8 -11,-10 -15,-8 0,2 -11,-6 0,-2 -6,-7 -8,-10 -5,-8 -3,-10 -5,-16 -17,-7 -17,-10 -26,-26 -11,-15 -4,-10 -20,-23 -22,21 -2,18 -32,26 -16,-10 -9,-8 -20,-23 -14,-26 -27,-55 -40,-81 -26,-63 -33,-47 -41,-65 -29,-5 -27,8 -53,-8l-2 -13c-13,-13 -13,-21 -16,-42l-30 -2c-26,-83 -13,-18 -35,-122l-2 -39 -14 2 -21 0c-27,-47 -36,-132 -31,-197 -62,23 -163,0 -215,-45 -18,52 -35,102 -59,143 -29,50 -68,91 -68,133l4 5c13,-15 4,-8 24,-15 11,-8 18,-11 29,-16l8 13 -8 10c-29,29 -68,89 -73,154 0,0 7,-8 11,-11l27 -26c4,-7 -11,-5 13,-10 19,18 -2,18 -7,62 -4,24 0,47 7,71l17 41c3,3 7,11 11,16 7,13 3,8 7,18 42,42 142,276 164,343 7,11 71,190 77,214 5,28 7,101 0,132 -6,24 -33,81 -53,94 -8,18 -13,16 -43,34l-18 10 -24 31c-28,39 -35,52 -31,112 3,73 31,99 79,120 2,-26 -4,-57 0,-81 4,-26 18,-49 38,-36 19,16 -3,2 -5,52 -2,21 4,42 11,57 17,39 75,31 101,13 6,-31 -18,-70 -9,-91 5,-23 7,-34 31,-36l-2 23c-5,39 11,68 28,99 26,-3 50,-5 61,-21 -4,-8 -10,5 -6,-13 4,-15 2,-5 11,-13 4,24 0,8 7,13 15,-28 21,-78 34,-101 14,-84 -48,-208 -48,-276 2,-39 16,-26 22,-49 5,-32 -31,-76 -6,-102 17,-47 22,-31 2,-83 -16,-42 4,-60 11,-89 8,-31 -18,-44 -16,-78 1,-15 9,-28 9,-44 2,-23 -6,-21 -4,-41 37,-21 41,28 39,67 -4,57 60,21 5,138 -9,21 -7,26 4,44 31,58 -4,73 -13,94 -13,47 41,73 -2,125 -16,21 -16,31 0,57 15,21 20,23 50,34 48,15 79,26 136,31 64,8 99,-5 153,-18l5 -3c0,0 2,-2 4,-5 2,-3 3,-3 7,-13 4,-10 6,-21 7,-34 12,-93 52,-156 24,-203 -47,-83 15,-75 0,-125 -3,-18 -24,-23 -27,-54 -4,-26 5,-55 13,-68 3,-41 -10,-49 -6,-70 26,-8 20,-3 31,21 35,49 -1,70 6,104 7,36 33,47 28,93 -4,50 -12,68 3,118 26,78 -51,192 -46,314 2,31 8,83 11,115 8,49 6,70 43,88 12,18 62,18 79,13l1 -10c-1,-34 -16,-86 -20,-110 -7,-2 -5,13 -7,-13l24 -5 0 21c31,34 35,102 38,107 35,28 72,13 107,-3 4,-88 4,-44 -16,-109 -6,-16 3,-3 -10,-18 -9,-13 -22,-11 -22,-32 61,-31 85,112 89,128 9,-5 16,-13 23,-16l26 -18c53,-127 -7,-112 -97,-239 -9,-13 -4,0 -8,-13 -27,-5 -27,-8 -31,-34 -7,-52 -24,-57 -11,-125 29,-138 41,-104 64,-156 61,-140 21,-120 17,-179 11,-3 50,5 94,-45 14,-18 53,-67 57,-93 -123,-8 -76,-5 -158,44 -35,21 -122,36 -140,-49 -20,-86 -22,-313 -6,-398 6,-50 4,-99 4,-149 0,-46 -11,-93 -7,-135l-17 0 0 16z"/>
   <path fill="#FEFEFE" stroke="#FEFEFE" stroke-width="0.828915" d="M716 1558l5 8c6,-21 6,-21 26,-21l5 16 9 57c13,44 6,55 28,104 2,-2 4,-2 4,-2 0,0 2,-3 3,-3 0,0 6,-3 8,-3 18,-5 20,13 24,24 13,65 5,47 36,54 13,3 6,0 17,6 4,5 6,5 9,10 17,3 -3,-13 19,10 25,26 31,58 47,94 8,13 13,21 21,34l3 10c2,-5 6,-13 8,-15 9,-18 -4,5 3,-5 4,-8 4,-8 8,-11 29,5 49,44 71,73 6,10 0,3 10,16 1,2 7,7 7,7 5,6 2,3 5,8 13,5 8,0 17,11l18 -19c-3,-23 6,-28 11,-54 6,-29 -5,-39 8,-63 18,-10 22,3 38,11 52,-104 13,-201 76,-188l0 -26c3,3 16,11 16,19 0,-42 2,-58 -3,-99 -2,-11 -6,-42 -6,-52 2,-21 6,-21 28,-26 29,-47 68,-120 49,-195 -9,-11 -1,-6 -18,-11 -53,-15 -79,18 -125,42 -109,55 -223,49 -335,16 -51,-13 -116,-29 -169,-8 -11,60 -2,125 19,171z"/>
   <path fill="#E31E24" stroke="#E31E24" stroke-width="0.828915" d="M1587 1199l-2 11c-9,26 -22,44 -48,57 -1,5 0,3 -5,8 -7,5 -4,2 -11,5 -9,13 -13,16 -28,26 -20,13 -14,10 -38,18l-2 3 -50 15c2,47 11,94 11,149 0,57 -2,106 -5,164 0,39 -8,75 -9,114 -2,42 3,73 3,114 2,63 -7,180 63,188 77,8 79,-70 182,-65 40,0 64,18 95,-11 28,-26 21,-54 30,-91l-2 -49 2 44c-17,-13 -13,0 -15,-26 0,0 0,-16 0,-18 0,-8 -7,-34 2,-37l2 -2c-2,-24 -9,-57 -19,-81 -9,-21 -25,-39 -27,-60 -13,-10 -20,-31 -30,-49 -103,-208 -44,-315 -86,-453l-13 26z"/>
   <path fill="#E31E24" stroke="#E31E24" stroke-width="0.828915" d="M493 989c-4,5 -33,49 -35,57 -13,49 -20,94 -26,148 0,18 -3,55 0,76 6,26 24,31 44,44 6,10 21,13 35,18 136,42 160,-10 293,10 46,6 75,26 127,34 44,8 101,6 149,-2 42,-6 88,-26 119,-45 64,-39 41,-31 120,-31 62,0 82,-5 136,-26 16,-5 36,-15 53,-26 9,-5 17,-10 24,-18l20 -16 8 -18c-19,-21 -10,-2 -54,-10 -53,-13 -116,-73 -117,-99 -52,18 -61,44 -138,42 -83,0 -79,0 -153,-32l-4 73c-51,151 -171,89 -202,18 -17,-33 -20,-65 -20,-106 -54,28 -175,122 -280,49 -18,-13 -48,-39 -51,-67 -24,-13 -33,-63 -42,-91l-6 18z"/>
   <path fill="#86776F" stroke="#86776F" stroke-width="0.828915" d="M331 1894l2 0c-11,23 -26,29 -35,57 -26,26 -33,96 -33,143 2,55 15,104 28,156l3 3 4 13c9,15 18,41 28,60 18,41 91,138 104,177 8,0 -3,-8 8,5 0,0 3,8 5,10 52,96 4,86 -11,109 -64,26 -127,123 -40,182 35,26 29,3 29,3 -15,-18 -27,-109 24,-101 0,18 -9,20 -13,36 -4,21 2,31 4,49 13,6 11,8 20,11 6,-3 13,-11 20,-18 -2,-19 -7,-37 -3,-58 5,-49 20,-41 27,-44 17,24 -9,26 -2,70 11,0 4,0 17,-5l57 -49c29,-76 40,-128 24,-216 -6,-29 -42,-177 -55,-190 -15,-60 -116,-294 -162,-348 -11,-19 -11,-11 -13,-29 -6,-5 -2,0 -7,-8 -8,-8 -2,-2 -8,-10 -5,-13 -2,-8 -9,-19l-13 11z"/>
   <path fill="#86776F" stroke="#86776F" stroke-width="0.828915" d="M1644 2807l42 -5c6,2 6,7 4,13l-16 -6c3,19 1,6 5,16 -13,-5 -7,-3 -17,-10l-3 7 -2 16 22 -5 22 -24c0,-23 0,-39 -9,-59 -6,-8 -9,-11 -15,-19 -20,-26 -7,-18 -3,-20 14,-8 9,-6 20,5 31,28 29,39 35,86l11 -3c29,-26 29,-36 20,-78 -18,-23 -9,-44 -53,-60 -17,-5 -30,-5 -46,-8 -24,-5 -30,-5 -33,-23 -6,-3 -6,3 -10,-3 0,-57 48,-127 72,-132l39 -44c3,-3 7,-6 11,-11l46 -52c24,-34 51,-81 60,-133 30,-143 8,-195 -53,-309 -7,23 -13,44 -26,62 -14,24 -24,21 -42,42 -53,68 -51,83 -108,138 -19,18 -23,26 -24,52 -8,83 -79,166 -96,237 -37,171 57,192 147,330z"/>
   <path fill="#F8FDFF" d="M1001 404c-6,44 5,88 18,127 7,18 16,34 24,47 11,21 26,26 29,41 48,19 59,42 134,32 23,-3 43,-13 57,-24 19,-15 23,-31 41,-44 2,-47 50,-96 16,-258 -11,-54 -20,-59 -22,-72 -11,-6 -3,7 -14,-13 -44,-37 -33,-24 -98,-39 -83,-19 -108,15 -141,49 -41,44 -37,107 -44,154z"/>
   <path fill="#2B2A29" stroke="#2B2A29" stroke-width="0.828915" d="M370 1069l11 3c7,-3 7,-3 16,-5 8,-5 11,-5 15,-11 -4,16 -13,26 -20,39 16,3 9,0 9,6l6 -6 11 -7 -6 13c-13,67 -53,169 6,221l5 13c2,0 4,0 4,0 2,0 3,0 3,0 0,0 2,0 4,-3 0,0 4,-3 6,-3 -6,21 -13,13 -17,29 -4,-5 6,0 -5,-5 -6,-3 -17,13 -22,18 -10,5 -23,37 -30,50 -5,7 -11,20 -15,26 -7,15 -11,15 -18,28 -11,18 -17,37 -29,60 -39,65 -43,138 -48,213 -4,63 13,102 33,146 -26,29 -39,39 -53,70 1,0 11,-2 11,-2 16,0 3,-3 12,0l6 2c6,5 -4,0 7,8 4,-13 17,-31 26,-36l0 15c9,-28 24,-34 35,-57 -22,21 -5,8 -9,0 11,-16 2,-8 7,0l13 -11c0,-18 -5,3 6,-18 -10,34 -6,5 9,18 -2,-31 0,-15 7,-20 -7,-24 -11,-47 -7,-71 5,-44 26,-44 7,-62l-5 21c0,0 -2,2 -2,2l-6 -13 -27 26c-4,3 -11,11 -11,11 5,-65 44,-125 73,-154 -16,-5 -9,6 -3,-7 7,-16 -12,-13 11,-3l-8 -13c-11,5 -18,8 -29,16 -20,7 -11,0 -24,15l-6 11c-1,-3 -7,10 -3,-8 3,-13 0,-3 5,-8 0,-42 39,-83 68,-133 24,-41 41,-91 59,-143 52,45 153,68 215,45 -5,65 4,150 31,197l17 -5c-13,-10 -9,-10 -5,-29 -21,-46 -30,-111 -19,-171 53,-21 118,-5 169,8 112,33 226,39 335,-16 46,-24 72,-57 125,-42 17,5 9,0 18,11 19,75 -20,148 -49,195 -2,18 11,8 -8,18 4,8 -5,5 10,3 23,-16 22,-11 34,-37 10,-18 15,-26 23,-47 14,-41 18,-72 16,-119l-4 -21 21 5c-4,42 7,89 7,135 0,50 2,99 -4,149 21,0 11,7 11,67 8,-15 4,-36 8,-41 3,-58 5,-107 5,-164 0,-55 -9,-102 -11,-149l50 -15c-2,-16 -6,-5 2,-11 7,3 18,-7 0,8 24,-8 18,-5 38,-18 15,-10 19,-13 28,-26 -2,-8 0,3 5,-8 10,-10 8,-2 10,-21 9,11 22,-10 1,16 26,-13 39,-31 48,-57 -9,0 -20,5 -22,-8 -2,0 -2,-3 -2,-3 0,19 6,19 -9,13l-20 16c-7,8 -15,13 -24,18 -17,11 -37,21 -53,26 -54,21 -74,26 -136,26 -79,0 -56,-8 -120,31 -31,19 -77,39 -119,45 -48,8 -105,10 -149,2 -52,-8 -81,-28 -127,-34 -133,-20 -157,32 -293,-10 0,3 4,16 6,18 -18,0 -31,-5 -46,-10 2,-13 2,-13 5,-26 -20,-13 -38,-18 -44,-44 -3,-21 0,-58 0,-76 6,-54 13,-99 26,-148 -2,-3 2,0 -9,-5 -9,-3 0,0 -15,-5 -15,0 -9,5 -15,-11 -12,8 -16,13 -27,21 -6,5 -7,5 -11,10 -13,11 -4,0 -11,13z"/>
   <path fill="#2B2A29" stroke="#2B2A29" stroke-width="0.828915" d="M1304 583c-18,13 -22,29 -41,44 -14,11 -34,21 -57,24 -75,10 -86,-13 -134,-32 -2,0 -2,0 -5,6 0,0 -4,7 -4,5 0,0 -2,2 -2,5 30,29 76,49 134,42 30,-3 46,-6 68,-19 19,-10 37,-23 50,-41 11,75 87,140 105,205 9,34 11,102 4,138 -13,68 -46,78 -50,94l4 28 13 3c1,26 64,86 117,99 44,8 35,-11 54,10 25,0 5,5 12,5 6,0 2,6 2,-10 19,0 15,-5 13,10l13 -26c42,138 -17,245 86,453 10,18 17,39 30,49 24,6 -2,0 16,8 11,5 -7,5 10,-2 1,18 0,13 5,26 6,-13 6,15 6,-16 -22,-65 -79,-127 -92,-239 -10,-89 -6,-216 -33,-297l93 -49c2,-16 2,-8 6,-16 9,-10 7,-5 15,-18 -11,3 -11,3 -21,5 -29,11 -112,68 -169,73 -75,5 -112,-57 -143,-94 5,-13 18,-31 27,-54 22,-57 19,-159 -5,-214 -15,-31 -127,-176 -96,-218 -15,-8 19,5 -13,-5 0,8 0,13 -7,18 -9,8 2,13 -11,0z"/>
   <path fill="#2B2A29" stroke="#2B2A29" stroke-width="0.828915" d="M1473 2630c13,5 7,0 18,16 4,5 8,10 13,18 4,13 -1,0 8,13 90,127 150,112 97,239 11,5 15,5 22,11 2,-11 4,-29 6,-37 3,-8 -2,-8 7,-10 0,0 2,0 2,0 0,0 2,0 2,0l5 2 2 -18c22,-5 26,-5 42,-18l-7 0c0,-21 2,-3 -11,-13l-22 5 2 -16c-4,-5 -11,-10 -15,-15 -90,-138 -184,-159 -147,-330 17,-71 88,-154 96,-237 1,-26 5,-34 24,-52 57,-55 55,-70 108,-138 18,-21 28,-18 42,-42 13,-18 19,-39 26,-62 -7,-8 -4,-3 -7,-21 -8,-21 9,-21 -13,-21 -9,37 -2,65 -30,91 -31,29 -55,11 -95,11 -103,-5 -105,73 -182,65 -70,-8 -61,-125 -63,-188 0,-41 -5,-72 -3,-114 1,-39 9,-75 9,-114 -4,5 0,26 -8,41 0,-60 10,-67 -11,-67 -16,85 -14,312 6,398 18,85 105,70 140,49 82,-49 35,-52 158,-44 -4,26 -43,75 -57,93 -44,50 -83,42 -94,45 4,59 44,39 -17,179 -23,52 -35,18 -64,156 -13,68 4,73 11,125z"/>
   <path fill="#2B2A29" stroke="#2B2A29" stroke-width="0.828915" d="M318 2789l37 10c22,18 -7,-18 4,5l3 11c13,23 21,15 24,15 -5,3 11,11 -14,5 -6,-2 -15,-15 -30,-20l-2 10 22 13c32,16 8,0 19,3 11,2 7,0 15,13l53 0c-6,41 -2,83 13,122l18 31 7 3c0,0 2,0 2,0 2,0 4,2 4,2 18,8 6,6 4,11 16,26 64,31 110,44 50,10 85,3 131,-10 137,-32 97,-63 139,-170 -3,3 -5,11 -9,16 -5,-8 -11,-5 -11,-8 0,-2 -4,0 -5,-2 -13,23 -19,73 -34,101l-12 13c-11,16 -35,18 -61,21 -17,-31 -33,-60 -28,-99 -9,-10 -13,-8 -16,-10l-13 23c-9,21 15,60 9,91 -26,18 -84,26 -101,-13 -7,-15 -13,-36 -11,-57 2,-50 24,-36 5,-52 -20,-13 -34,10 -38,36 -4,24 2,55 0,81 -48,-21 -76,-47 -79,-120 -4,-60 3,-73 31,-112l24 -31c-4,-2 0,0 -6,-8 0,0 -3,-5 -5,-5 -13,5 -6,5 -17,5 -7,-44 19,-46 2,-70 -7,3 -22,-5 -27,44 -4,21 1,39 3,58 -7,7 -14,15 -20,18 -9,-3 -7,-5 -20,-11 -15,-2 0,0 -19,-15 2,26 0,18 15,34l-11 -3c0,0 6,23 -29,-3 -87,-59 -24,-156 40,-182 -5,-7 -4,-5 -11,-10 -15,0 -9,3 -13,-13 -29,10 -27,8 -48,26 -40,39 -57,65 -44,159z"/>
   <path fill="#2B2A29" stroke="#2B2A29" stroke-width="0.828915" d="M1227 2198c-8,13 -17,42 -13,68 3,31 24,36 27,54 15,50 -47,42 0,125 28,47 -12,110 -24,203 -1,13 -3,24 -7,34 -4,10 -5,10 -7,13 -2,3 -4,5 -4,5l-5 3c5,15 0,13 14,13l-40 21 49 -19c-1,26 -3,55 -1,78 1,29 9,45 11,76 3,75 3,96 57,127 14,-2 7,19 13,-18 -37,-18 -35,-39 -43,-88 -3,-32 -9,-84 -11,-115 -5,-122 72,-236 46,-314 -15,-50 -7,-68 -3,-118 5,-46 -21,-57 -28,-93 -7,-34 29,-55 -6,-104 -23,44 -12,52 -25,49z"/>
   <path fill="#F8FDFF" d="M982 952l-4 3c-3,13 -11,23 -16,34 -13,0 -6,0 -7,5l-63 73c0,78 15,125 61,158 79,58 121,-59 121,-59l4 -86c-65,-60 -39,-86 -76,-146 -3,47 -20,122 -9,172 8,23 19,26 15,52 -55,-31 -35,-143 -26,-206z"/>
   <path fill="#2B2A29" stroke="#2B2A29" stroke-width="0.828915" d="M419 1025c6,16 0,11 15,11 0,0 0,-3 0,-3l30 -42c14,-26 11,-7 12,-5 24,8 -20,8 4,0 0,0 2,-2 2,-2l11 5 6 -18c9,28 18,78 42,91 5,-19 -2,-21 9,-21 -72,-211 55,-284 50,-396 -2,-41 -32,-44 -33,-91 -4,-122 84,-242 71,-281 -38,6 -73,133 -86,172 -41,122 -4,151 2,211 3,47 -35,114 -55,200 -6,21 -21,81 -28,96l-52 73z"/>
   <path fill="#2B2A29" stroke="#2B2A29" stroke-width="0.828915" d="M1039 791c-4,5 -7,21 -9,31 -7,18 -7,21 -20,26 -11,-13 -8,-21 -21,-26 0,11 6,16 10,24 13,34 0,34 0,34l-8 -8c-13,-16 -9,-21 -22,-24 0,42 30,16 -13,73 -9,13 -16,21 -24,34 -14,21 -18,21 -20,34 4,15 0,10 13,10 4,-15 2,-5 9,-18 6,-5 0,3 8,-8 9,-15 11,-21 25,-31 -3,16 -3,21 -16,26 11,13 -6,16 16,0 -5,16 -1,8 -11,21l6 0c5,-11 13,-21 16,-34l6 -10 -2 7c-9,63 -29,175 26,206 4,-26 -7,-29 -15,-52 -11,-50 6,-125 9,-172 37,60 11,86 76,146l-4 86c11,-6 11,5 15,-37 0,-15 -8,-15 3,-18l2 57 4 -73c74,32 70,32 153,32 77,2 86,-24 138,-42l-13 -3 -4 -28c-48,28 -86,44 -153,36 -31,-5 -55,-10 -82,-21 -57,-20 -109,-111 -114,-171 -4,-31 14,-29 27,-60 19,-44 0,-37 41,-57l-39 0c0,23 2,0 -13,10z"/>
   <path fill="#2B2A29" stroke="#2B2A29" stroke-width="0.828915" d="M1762 1816l-2 2c13,13 9,19 11,37l2 49c22,0 5,0 13,21 3,18 0,13 7,21 61,114 83,166 53,309 -9,52 -36,99 -60,133l-46 52c-4,5 -8,8 -11,11l-39 44 -13 15c-11,13 -9,21 -24,29l8 21c1,0 3,-3 3,-3 0,0 78,-62 90,-80 -5,-6 -14,5 -1,-8l3 2c19,-10 46,-59 65,-83 49,-68 73,-148 75,-231 2,-55 -13,-91 -17,-136l-31 -80c-11,-8 -15,-16 -22,-26 -5,-11 -20,-24 -24,-34 -5,-18 -7,-76 -14,-91l-4 15 -11 -10c0,39 2,8 -11,21z"/>
   <path fill="#2B2A29" stroke="#2B2A29" stroke-width="0.828915" d="M1197 39c17,8 2,-2 -9,21l-4 -5c-29,16 -11,18 -29,44 -35,-41 -178,-70 -250,-70 -72,-3 -178,21 -235,68l-12 10 15 13c46,-34 125,-62 195,-68 74,-5 167,6 219,39 18,0 28,6 37,16 5,3 5,0 11,8l22 15c9,-13 -15,-13 13,-10l-2 8c5,5 -9,8 18,8 17,-52 2,-58 54,-84 73,-41 204,-7 253,63 10,13 15,31 32,41 3,0 7,6 9,6 13,5 -4,2 7,0l6 0c3,-3 5,0 9,-6 -15,-46 -33,-52 -61,-83 -22,-26 -42,-39 -81,-52 -57,-21 -140,-34 -197,0 0,0 -9,5 -9,5 -11,11 -3,3 -11,13z"/>
   <path fill="#2B2A29" stroke="#2B2A29" stroke-width="0.828915" d="M852 2893c1,2 5,0 5,2 0,3 6,0 11,8 4,-5 6,-13 9,-16 11,-78 -29,-124 -33,-192 22,23 17,31 59,39 70,16 171,49 265,3l40 -21c-14,0 -9,2 -14,-13 -54,13 -89,26 -153,18 -57,-5 -88,-16 -136,-31 -30,-11 -35,-13 -50,-34 -16,-26 -16,-36 0,-57 43,-52 -11,-78 2,-125 -2,0 -5,5 -7,8l-8 15c-1,-28 -1,-23 -22,-31 -25,26 11,70 6,102 -6,23 -20,10 -22,49 0,68 62,192 48,276z"/>
   <path fill="#2B2A29" stroke="#2B2A29" stroke-width="0.828915" d="M697 1103c-2,13 2,8 -18,11l-4 -11 -28 0 -22 -8c-24,-7 -29,-7 -46,-23 -5,-5 -12,-13 -16,-18 -9,-8 -6,-8 -13,-13 -11,0 -4,2 -9,21 3,28 33,54 51,67 105,73 226,-21 280,-49 0,41 3,73 20,106 31,71 151,133 202,-18l-2 -57c-11,3 -3,3 -3,18 -4,42 -4,31 -15,37 0,0 -42,117 -121,59 -46,-33 -61,-80 -61,-158l63 -73c-2,0 -6,3 -8,3l-13 2c-11,3 4,5 -9,0 -13,0 -9,5 -13,-10 -9,5 -38,34 -46,39 -14,13 -29,26 -44,36 -37,26 -73,34 -125,39z"/>
   <path fill="#2B2A29" stroke="#2B2A29" stroke-width="0.828915" d="M41 757c-37,34 -44,128 -39,185 7,91 20,120 68,164 87,83 243,73 331,-5 0,-6 7,-3 -9,-6l-17 -13 6 -10 -11 -3c-17,6 -123,104 -221,45 -79,-50 -95,-60 -110,-203 -8,-65 -11,-68 16,-128 6,-15 10,-26 19,-28 -6,-29 3,-3 -6,-11 -7,5 -11,11 -27,13z"/>
   <path fill="#2B2A29" stroke="#2B2A29" stroke-width="0.828915" d="M1723 820l13 -3c7,-3 4,-3 9,-8 -44,-78 -31,-26 -70,-145 -11,-39 -16,-141 -20,-190 -4,-63 -31,-193 -59,-253 -9,-18 -31,-57 -40,-65 -4,6 -6,3 -9,6l-6 0c-11,2 6,5 -7,0 -2,0 -6,-6 -9,-6 1,19 16,37 33,71 33,75 59,174 66,260 4,54 7,148 20,197 11,50 33,84 64,123l15 13z"/>
   <path fill="#2B2A29" stroke="#2B2A29" stroke-width="0.828915" d="M706 396c2,5 11,-3 0,8l-3 -3c-35,18 -50,101 -30,140 37,8 41,-18 57,-52 -7,-2 -22,13 -3,-7l3 0c28,-19 22,-34 72,-26 5,7 4,7 9,20 46,125 112,-15 33,-85 -40,-37 -108,-45 -138,5z"/>
   <path fill="#2B2A29" stroke="#2B2A29" stroke-width="0.828915" d="M1111 528c26,-28 31,-85 61,-98 57,2 25,80 93,83 66,-130 -116,-232 -174,-86 -17,39 -32,96 20,101z"/>
   <path fill="#2B2A29" stroke="#2B2A29" stroke-width="0.828915" d="M41 757c16,-2 20,-8 27,-13 9,8 0,-18 6,11 14,-37 73,-91 95,-115 105,-106 118,-247 155,-364 9,-29 18,-49 27,-75 -18,-16 -14,0 -18,-11 -2,-2 -4,-2 -5,-2 -63,80 -56,218 -105,320 -33,65 -48,80 -90,124 -28,29 -79,81 -92,125z"/>
   <path fill="#2B2A29" stroke="#2B2A29" stroke-width="0.828915" d="M1374 2877l-2 8c-9,-29 7,-8 -17,-18l2 7c4,24 19,76 20,110l-1 10c-17,5 -67,5 -79,-13 -6,37 1,16 -13,18 38,42 84,13 117,16 0,0 96,31 125,-8l10 -10c0,-3 1,-3 1,-5 0,0 0,-3 2,-3 0,-3 0,-3 0,-5 0,0 2,-8 2,-11 -7,37 -4,8 13,19 2,-45 13,-21 -13,-26 24,-3 15,-11 13,5l18 5c33,-5 39,-18 54,-34 25,-29 13,-29 27,-60l-5 -2c0,0 -2,0 -2,0 0,0 -2,0 -2,0 -9,2 -4,2 -7,10 -2,8 -4,26 -6,37 -7,-6 -11,-6 -22,-11l-26 18c-7,3 -14,11 -23,16 -4,-16 -28,-159 -89,-128 0,21 13,19 22,32 13,15 4,2 10,18 20,65 20,21 16,109 -35,16 -72,31 -107,3 -3,-5 -7,-73 -38,-107z"/>
   <path fill="#2B2A29" stroke="#2B2A29" stroke-width="0.828915" d="M236 1964c-13,24 -30,81 -32,120 0,26 4,49 10,73 3,31 11,36 18,59l11 29c2,5 2,8 7,16 9,15 2,7 13,15l4 0c0,-13 -4,-15 20,-36 0,28 -4,2 6,10 -13,-52 -26,-101 -28,-156 0,-47 7,-117 33,-143l0 -15c-9,5 -22,23 -26,36 -11,-8 -1,-3 -7,-8l-6 -2c-9,-3 4,0 -12,0 0,0 -10,2 -11,2z"/>
   <path fill="#F8FDFF" d="M905 716c0,20 -18,18 -18,62 0,0 1,0 1,0 4,10 8,3 8,3 22,2 75,-42 93,41 13,5 10,13 21,26 13,-5 13,-8 20,-26 2,-10 5,-26 9,-31 11,-49 39,-18 52,-44 14,-31 -15,-39 -39,-47 -33,-8 -42,3 -77,0 -50,-5 -35,8 -70,16z"/>
   <path fill="#2B2A29" stroke="#2B2A29" stroke-width="0.828915" d="M543 2297c13,13 49,161 55,190 16,88 5,140 -24,216l2 2c-2,0 -2,3 -2,3l-30 34c54,-3 2,-8 41,-16l4 -5c20,-13 47,-70 53,-94 7,-31 5,-104 0,-132 -6,-24 -70,-203 -77,-214 -4,16 -2,16 -22,16z"/>
   <path fill="#2B2A29" stroke="#2B2A29" stroke-width="0.828915" d="M820 2466c21,8 21,3 22,31l8 -15c2,-3 5,-8 7,-8 9,-21 44,-36 13,-94 -11,-18 -13,-23 -4,-44 55,-117 -9,-81 -5,-138 2,-39 -2,-88 -39,-67 -2,20 6,18 4,41 0,16 -8,29 -9,44 -2,34 24,47 16,78 -7,29 -27,47 -11,89 20,52 15,36 -2,83z"/>
   <path fill="#2B2A29" stroke="#2B2A29" stroke-width="0.828915" d="M1276 1720l-7 18 -9 -11c-63,-13 -24,84 -76,188 -16,-8 -20,-21 -38,-11 -13,24 -2,34 -8,63 -5,26 -14,31 -11,54 6,8 10,11 15,13 13,-39 18,-62 22,-106 8,13 13,13 28,13 42,-47 40,-123 57,-190 14,2 24,23 40,0 11,-18 9,-37 11,-60 2,-34 -18,-112 -3,-127 -15,2 -6,5 -10,-3 19,-10 6,0 8,-18 -22,5 -26,5 -28,26 0,10 4,41 6,52 5,41 3,57 3,99z"/>
   <path fill="#2B2A29" stroke="#2B2A29" stroke-width="0.828915" d="M980 461l8 5c3,5 7,10 9,13 0,-42 -31,-52 4,-75 7,-47 3,-110 44,-154 33,-34 58,-68 141,-49 65,15 54,2 98,39 14,2 13,5 13,-3l-11 -10c16,2 9,0 16,10 11,0 0,0 4,-10 -24,-47 -162,-94 -252,-21 -24,21 -28,18 -42,41 -30,47 -50,180 -32,214z"/>
   <path fill="#2B2A29" stroke="#2B2A29" stroke-width="0.828915" d="M375 110c15,0 11,-3 11,10 -18,5 -11,-5 -24,26 19,-5 13,0 24,-10 4,-6 6,-13 10,-24 12,-2 3,-2 7,11 16,-13 33,-26 59,-32 35,-10 37,0 68,6 5,-13 26,-13 40,13 11,-11 6,0 4,-11l-4 -10c50,15 9,54 43,41l-10 13 -18 -7c0,0 -2,-3 -2,-3 -9,-8 -4,-8 -16,-10l34 78c34,-3 10,2 35,-39 11,-16 22,-29 37,-42l-15 -13c-18,3 -14,3 -40,36 -18,-62 -44,-83 -108,-93 -65,-13 -109,15 -135,60z"/>
   <path fill="#2B2A29" stroke="#2B2A29" stroke-width="0.828915" d="M267 2276l-4 0c0,24 77,149 96,175 20,28 24,36 46,49 11,5 5,-3 13,13l14 -10c-13,-39 -86,-136 -104,-177 -10,-19 -19,-45 -28,-60 -9,18 0,2 -13,8l-9 2c-7,5 -2,8 -11,0z"/>
   <path fill="#2B2A29" stroke="#2B2A29" stroke-width="0.828915" d="M381 1949c46,54 147,288 162,348 20,0 18,0 22,-16 -22,-67 -122,-301 -164,-343 -9,3 -2,5 -18,-5 13,34 5,10 -2,16z"/>
   <path fill="#F5B2B6" stroke="#F5B2B6" stroke-width="0.828915" d="M662 654c-13,31 0,49 2,78 26,21 37,55 83,42 36,-81 -54,-138 -85,-120z"/>
   <path fill="#2B2A29" stroke="#2B2A29" stroke-width="0.828915" d="M1298 253c2,13 11,18 22,72 34,162 -14,211 -16,258 13,13 2,8 11,0 7,-5 7,-10 7,-18 32,10 -2,-3 13,5 13,-86 37,-143 9,-260l-20 -55c-7,-13 -7,-10 -13,-10l8 18c-13,-10 -6,-8 -21,-10z"/>
   <path fill="#2B2A29" stroke="#2B2A29" stroke-width="0.828915" d="M1743 864c15,31 24,60 24,99 0,52 -2,57 -27,83l-2 21 11 -13c18,-13 9,8 26,-21l1 8c52,-47 24,-146 -9,-195l-9 -3c0,0 -2,0 -4,0 0,0 -1,0 -1,0l-10 21z"/>
   <path fill="#4B5056" d="M901 700c4,21 0,5 4,16 35,-8 20,-21 70,-16 35,3 44,-8 77,0 24,8 53,16 39,47 -13,26 -41,-5 -52,44 15,-10 13,13 13,-10l39 0c114,-104 -136,-130 -190,-81z"/>
   <path fill="#2B2A29" stroke="#2B2A29" stroke-width="0.828915" d="M741 1629c22,104 9,39 35,122l30 2c3,21 3,29 16,42l2 0c28,26 4,8 0,13 26,16 24,3 53,8 10,-3 2,0 13,-8 -3,-5 -5,-5 -9,-10 -11,-6 -4,-3 -17,-6 -31,-7 -23,11 -36,-54 -4,-11 -6,-29 -24,-24 -2,0 -8,3 -8,3 -1,0 -3,3 -3,3 0,0 -2,0 -4,2 -22,-49 -15,-60 -28,-104l-16 -26c4,42 4,24 -4,37z"/>
   <path fill="#F5B2B6" stroke="#F5B2B6" stroke-width="0.828915" d="M1251 799c18,5 16,-5 38,-11 6,-36 48,-52 15,-106 -28,0 -7,-8 -35,23 -22,21 -68,70 -18,94z"/>
   <path fill="#2B2A29" stroke="#2B2A29" stroke-width="0.828915" d="M1628 2630c3,18 9,18 33,23 16,3 29,3 46,8 44,16 35,37 53,60 5,3 4,-18 13,21 5,21 2,13 5,28l4 -28c0,-16 -2,-21 -7,-29 5,-26 0,-2 9,-13 -11,-34 -28,-44 -53,-62 -30,-18 -67,-13 -81,-29l-19 -15c0,-3 -3,-3 -3,-3l0 39z"/>
   <path fill="#2B2A29" stroke="#2B2A29" stroke-width="0.828915" d="M866 768c-9,26 19,36 48,39 35,5 33,23 55,41 13,3 9,8 22,24l8 8c0,0 13,0 0,-34 -4,-8 -10,-13 -10,-24 -18,-83 -71,-39 -93,-41 0,0 -4,7 -8,-3 0,0 -1,0 -1,0 -8,-8 -6,18 -10,-21 2,29 2,0 -11,11z"/>
   <path fill="#343434" d="M980 461c6,57 44,145 81,174 0,-3 2,-5 2,-5 0,2 4,-5 4,-5 3,-6 3,-6 5,-6 -3,-15 -18,-20 -29,-41 -8,-13 -17,-29 -24,-47 -13,-39 -24,-83 -18,-127 -35,23 -4,33 -4,75 -2,-3 -6,-8 -9,-13l-8 -5z"/>
   <path fill="#2B2A29" stroke="#2B2A29" stroke-width="0.828915" d="M410 2604c4,16 -2,13 13,13 7,5 6,3 11,10 15,-23 63,-13 11,-109 -2,-2 -5,-10 -5,-10 -11,-13 0,-5 -8,-5l-14 10c-8,-16 -2,-8 -13,-13 2,21 -8,0 7,23 11,16 26,37 24,63l-26 18z"/>
   <path fill="#2B2A29" stroke="#2B2A29" stroke-width="0.828915" d="M877 1816c8,18 15,2 41,65 13,26 26,55 40,81 0,0 11,2 15,5 7,-29 -4,10 4,-21 -8,-13 -13,-21 -21,-34 -16,-36 -22,-68 -47,-94 -22,-23 -2,-7 -19,-10 -11,8 -3,5 -13,8z"/>
   <path fill="#2B2A29" stroke="#2B2A29" stroke-width="0.828915" d="M977 1946c-8,31 3,-8 -4,21 -4,-3 -15,-5 -15,-5 11,15 4,13 20,23 30,-8 10,-5 32,-26 16,13 9,8 20,23 9,16 9,19 26,26l11 8c2,0 3,3 5,3l-2 -21c-22,-29 -42,-68 -71,-73 -4,3 -4,3 -8,11 -7,10 6,-13 -3,5 -2,2 -6,10 -8,15l-3 -10z"/>
   <path fill="#4B5056" d="M1762 1816c13,-13 11,18 11,-21l11 10 4 -15 -35 -99c0,31 0,3 -6,16 -5,-13 -4,-8 -5,-26 -17,7 1,7 -10,2 -18,-8 8,-2 -16,-8 2,21 18,39 27,60 10,24 17,57 19,81z"/>
   <path fill="#2B2A29" stroke="#2B2A29" stroke-width="0.828915" d="M1701 2809c15,24 11,21 7,-36l10 16c7,10 -2,2 11,13 -6,-47 -4,-58 -35,-86 -11,-11 -6,-13 -20,-5 -4,2 -17,-6 3,20 6,8 9,11 15,19 9,20 9,36 9,59z"/>
   <path fill="#2B2A29" stroke="#2B2A29" stroke-width="0.828915" d="M328 188c1,0 3,0 5,2 4,11 0,-5 18,11 10,-13 15,-26 24,-45 10,-10 6,-7 15,-18 11,-10 11,-2 13,-15 -4,-13 5,-13 -7,-11 -4,11 -6,18 -10,24 -11,10 -5,5 -24,10 13,-31 6,-21 24,-26 0,-13 4,-10 -11,-10 -14,13 -40,52 -47,78z"/>
   <path fill="#2B2A29" stroke="#2B2A29" stroke-width="0.828915" d="M1760 2721c9,42 9,52 -20,78l13 5c-2,0 -4,3 -6,3l-11 13c26,2 40,-21 48,-39 13,-29 4,-52 0,-81 -9,11 -4,-13 -9,13 5,8 7,13 7,29l-4 28c-3,-15 0,-7 -5,-28 -9,-39 -8,-18 -13,-21z"/>
   <path fill="#2B2A29" stroke="#2B2A29" stroke-width="0.828915" d="M1628 2630l0 -39c0,0 3,0 3,3l19 15c0,-13 0,-18 3,-28 4,-16 0,2 6,-11 3,-10 0,0 2,-10l-8 -21c15,-8 13,-16 24,-29l13 -15c-24,5 -72,75 -72,132 4,6 4,0 10,3z"/>
   <path fill="#343434" d="M423 2812l11 3c-15,-16 -13,-8 -15,-34 19,15 4,13 19,15 -2,-18 -8,-28 -4,-49 4,-16 13,-18 13,-36 -51,-8 -39,83 -24,101z"/>
   <path fill="#2B2A29" stroke="#2B2A29" stroke-width="0.828915" d="M530 97c2,2 9,7 16,10 4,5 6,5 10,8 1,0 3,0 3,2 2,0 4,0 4,3 2,0 2,0 4,3 12,2 7,2 16,10 0,0 2,3 2,3l18 7 10 -13c-34,13 7,-26 -43,-41l4 10c2,11 7,0 -4,11 -14,-26 -35,-26 -40,-13z"/>
   <path fill="#2B2A29" stroke="#2B2A29" stroke-width="0.828915" d="M434 1036c15,5 6,2 15,5 11,5 7,2 9,5 2,-8 31,-52 35,-57l-11 -5c0,0 -2,2 -2,2 -24,8 20,8 -4,0 -1,-2 2,-21 -12,5l-30 42c0,0 0,3 0,3z"/>
   <path fill="#2B2A29" stroke="#2B2A29" stroke-width="0.828915" d="M1701 2809l-22 24c13,10 11,-8 11,13l7 0c30,-21 -3,-8 35,-26 2,0 2,0 4,0l11 -13c2,0 4,-3 6,-3l-13 -5 -11 3c-13,-11 -4,-3 -11,-13l-10 -16c4,57 8,60 -7,36z"/>
   <path fill="#343434" d="M1227 2198c13,3 2,-5 25,-49 -11,-24 -5,-29 -31,-21 -4,21 9,29 6,70z"/>
   <path fill="#2B2A29" stroke="#2B2A29" stroke-width="0.828915" d="M716 1558c-4,19 -8,19 5,29l-17 5 21 0c0,-10 -4,-8 7,-8l6 -2c5,21 -2,2 12,13 -3,-26 -9,-18 2,-34l-5 -16c-20,0 -20,0 -26,21l-5 -8z"/>
   <path fill="#2B2A29" d="M1092 2029c-7,5 2,3 -11,0 0,0 -3,-2 -3,-2 -2,-3 -4,-3 -6,-6 4,16 2,16 8,19 7,18 0,5 11,10l-2 -5c5,8 5,8 9,18 35,-10 28,-21 33,-23l11 -6c-5,-2 -9,-5 -15,-13l-18 19c-9,-11 -4,-6 -17,-11z"/>
   <path fill="#343434" d="M866 768c13,-11 13,18 11,-11 4,39 2,13 10,21 0,-44 18,-42 18,-62 -4,-11 0,5 -4,-16 -18,21 -27,29 -35,68z"/>
   <path fill="#343434" d="M344 1883c7,11 4,6 9,19 6,8 0,2 8,10 5,8 1,3 7,8 17,-3 9,-3 15,-16l-17 -41c-7,5 -9,-11 -7,20 -15,-13 -19,16 -9,-18 -11,21 -6,0 -6,18z"/>
   <path fill="#343434" d="M517 2752c2,0 5,5 5,5 6,8 2,6 6,8l18 -10c30,-18 35,-16 43,-34l-4 5c-39,8 13,13 -41,16l30 -34c0,0 0,-3 2,-3l-2 -2 -57 49z"/>
   <path fill="#2B2A29" stroke="#2B2A29" stroke-width="0.828915" d="M1738 1067l-17 10c10,-2 10,-2 21,-5 -8,13 -6,8 -15,18 -4,8 -4,0 -6,16l-2 2 17 -13c17,-23 35,-26 40,-54l-1 -8c-17,29 -8,8 -26,21l-11 13z"/>
   <path fill="#E31E24" stroke="#E31E24" stroke-width="0.828915" d="M1771 1855c-2,-18 2,-24 -11,-37 -9,3 -2,29 -2,37 0,2 0,18 0,18 2,26 -2,13 15,26l-2 -44z"/>
   <path fill="#4B5056" d="M925 999c13,5 -2,3 9,0l13 -2c2,0 6,-3 8,-3 1,-5 -6,-5 7,-5l-6 0c10,-13 6,-5 11,-21 -22,16 -5,13 -16,0 13,-5 13,-10 16,-26 -14,10 -16,16 -25,31 -8,11 -2,3 -8,8 -7,13 -5,3 -9,18z"/>
   <path fill="#2B2A29" stroke="#2B2A29" stroke-width="0.828915" d="M511 1332c-14,-5 -29,-8 -35,-18 -3,13 -3,13 -5,26 15,5 28,10 46,10 -2,-2 -6,-15 -6,-18z"/>
   <path fill="#2B2A29" stroke="#2B2A29" stroke-width="0.828915" d="M342 2815c15,5 24,18 30,20 25,6 9,-2 14,-5 -3,0 -11,8 -24,-15l-3 -11c-11,-23 18,13 -4,-5l-37 -10c8,15 10,18 24,26z"/>
   <path fill="#2B2A29" stroke="#2B2A29" stroke-width="0.828915" d="M267 2276c9,8 4,5 11,0l9 -2c13,-6 4,10 13,-8l-4 -13 -3 -3c-10,-8 -6,18 -6,-10 -24,21 -20,23 -20,36z"/>
   <path fill="#4B5056" d="M1245 2271c13,-34 0,-34 -2,-39 -11,-16 6,-3 -9,-13 -7,26 -13,36 11,52z"/>
   <path fill="#343434" d="M368 1920c2,18 2,10 13,29 7,-6 15,18 2,-16 16,10 9,8 18,5 -4,-10 0,-5 -7,-18 -4,-5 -8,-13 -11,-16 -6,13 2,13 -15,16z"/>
   <path fill="#2B2A29" stroke="#2B2A29" stroke-width="0.828915" d="M396 1371c5,-5 16,-21 22,-18 11,5 1,0 5,5 4,-16 11,-8 17,-29 -2,0 -6,3 -6,3 -2,3 -4,3 -4,3 0,0 -1,0 -3,0 0,0 -2,0 -4,0l-5 -13 -22 49z"/>
   <path fill="#2B2A29" stroke="#2B2A29" stroke-width="0.828915" d="M1743 864l10 -21c0,0 1,0 1,0 2,0 4,0 4,0l9 3 -9 -16 -15 18 -7 -31 -13 3 20 44z"/>
   <path fill="#2B2A29" stroke="#2B2A29" stroke-width="0.828915" d="M381 1072l-6 10 17 13c7,-13 16,-23 20,-39 -4,6 -7,6 -15,11 -9,2 -9,2 -16,5z"/>
   <path fill="#343434" d="M738 1582l1 8 2 39c8,-13 8,5 4,-37l16 26 -9 -57c-11,16 -5,8 -2,34 -14,-11 -7,8 -12,-13z"/>
   <path fill="#343434" d="M1552 1212c15,6 9,6 9,-13 0,0 0,3 2,3 2,13 13,8 22,8l2 -11c2,-15 6,-10 -13,-10 0,16 4,10 -2,10 -7,0 13,-5 -12,-5l-8 18z"/>
   <path fill="#4B5056" d="M1469 1142c-9,-21 0,-5 -22,-26 -11,-10 -13,-15 -24,-21 6,19 4,8 11,19 21,28 2,7 2,20l11 0c17,-2 0,3 22,8z"/>
   <path fill="#86776F" stroke="#86776F" stroke-width="0.828915" d="M1644 2807c4,5 11,10 15,15l3 -7c10,7 4,5 17,10 -4,-10 -2,3 -5,-16l16 6c2,-6 2,-11 -4,-13l-42 5z"/>
   <path fill="#86776F" stroke="#86776F" stroke-width="0.828915" d="M1653 2757c37,-10 11,8 26,-10 -13,-8 2,3 -7,-8 -15,-18 9,-2 -13,-13l5 21c-20,-16 -2,-8 -22,-21 4,16 8,13 11,31z"/>
   <path fill="#343434" d="M1056 2008c2,6 0,8 5,16 2,3 8,8 8,10 11,8 -4,-2 11,6 -6,-3 -4,-3 -8,-19 2,3 4,3 6,6 0,0 3,2 3,2 13,3 4,5 11,0 -3,-5 0,-2 -5,-8 0,0 -6,-5 -7,-7 -10,-13 -4,-6 -10,-16l2 21c-2,0 -3,-3 -5,-3l-11 -8z"/>
   <path fill="#4B5056" d="M1284 240c11,20 3,7 14,13 15,2 8,0 21,10l-8 -18 -5 -18c-4,10 7,10 -4,10 -7,-10 0,-8 -16,-10l11 10c0,8 1,5 -13,3z"/>
   <path fill="#B6B3A5" stroke="#B6B3A5" stroke-width="0.828915" d="M1504 2664c-5,-8 -9,-13 -13,-18 -11,-16 -5,-11 -18,-16 4,26 4,29 31,34z"/>
   <path fill="#2B2A29" stroke="#2B2A29" stroke-width="0.828915" d="M1736 817l7 31 15 -18 -13 -21c-5,5 -2,5 -9,8z"/>
   <path fill="#F8FDFF" d="M241 1941c-2,0 -4,-3 -5,-3 -6,16 -4,0 -8,-5l-3 18c25,-5 16,-13 36,-26 -13,-5 -13,3 -25,-5 3,18 0,5 5,21z"/>
   <path fill="#343434" d="M688 2942l13 -23c3,2 7,0 16,10l2 -23c-24,2 -26,13 -31,36z"/>
   <path fill="#2B2A29" stroke="#2B2A29" stroke-width="0.828915" d="M1526 3007c11,-5 0,0 11,-5 21,-8 19,-16 35,-26l-18 -5c2,-16 11,-8 -13,-5 26,5 15,-19 13,26 -17,-11 -20,18 -13,-19 0,3 -2,11 -2,11 0,2 0,2 0,5 -2,0 -2,3 -2,3 0,2 -1,2 -1,5l-10 10z"/>
   <path fill="#343434" d="M1357 2874l-2 -7c24,10 8,-11 17,18l2 -8 0 -21 -24 5c2,26 0,11 7,13z"/>
   <path fill="#C6CBD1" d="M1124 107c-9,-10 -19,-16 -37,-16l7 8c21,16 17,11 30,8z"/>
   <path fill="#2B2A29" stroke="#2B2A29" stroke-width="0.828915" d="M1091 2050l11 18c24,-2 27,-10 29,-28 -5,2 2,13 -33,23 -4,-10 -4,-10 -9,-18l2 5z"/>
   <path fill="#C6CBD1" d="M806 3007l12 -13c-7,-5 -3,11 -7,-13 -9,8 -7,-2 -11,13 -4,18 2,5 6,13z"/>
   <path fill="#343434" d="M1521 1280c7,-3 4,0 11,-5 5,-5 4,-3 5,-8 21,-26 8,-5 -1,-16 -2,19 0,11 -10,21 -5,11 -7,0 -5,8z"/>
   <path fill="#8A8D94" d="M697 1103l-22 0 4 11c20,-3 16,2 18,-11z"/>
   <path fill="#C6CBD1" d="M647 1103c-7,-13 11,-5 -11,-13 -25,-8 -3,-2 -11,5l22 8z"/>
   <path fill="#343434" d="M366 1730c-24,5 -9,3 -13,10l6 13c0,0 2,-2 2,-2l5 -21z"/>
   <path fill="#343434" d="M1184 55l4 5c11,-23 26,-13 9,-21 -3,3 -3,0 -7,6 -7,7 -2,0 -6,10z"/>
   <path fill="#343434" d="M497 3023c2,-5 14,-3 -4,-11 0,0 -2,-2 -4,-2 0,0 -2,0 -2,0l-7 -3c4,8 -2,3 6,8 13,13 0,3 11,8z"/>
   <path fill="#C6CBD1" d="M1135 115c-6,-8 -6,-5 -11,-8l0 13c22,10 5,3 11,-5z"/>
   <path fill="#343434" d="M388 1623l8 -10c-23,-10 -4,-13 -11,3 -6,13 -13,2 3,7z"/>
   <path fill="#C6CBD1" d="M811 2981c7,-5 4,16 7,-5 2,-13 0,-5 -1,-10 -11,13 -6,2 -6,15z"/>
   <path fill="#8A8D94" d="M725 1592l14 -2 -1 -8 -6 2c-11,0 -7,-2 -7,8z"/>
   <path fill="#C6CBD1" d="M335 1631l-4 -5c-5,5 -2,-5 -5,8 -4,18 2,5 3,8l6 -11z"/>
   <path fill="#343434" d="M1168 128l2 -8c-28,-3 -4,-3 -13,10l11 -2z"/>
   <path fill="#343434" d="M824 1808c4,-5 28,13 0,-13l-2 0 2 13z"/>
   <path fill="#8A8D94" d="M828 404c2,7 13,20 7,2 -4,-13 -7,-8 -7,-2z"/>
   <polygon fill="#8A8D94" points="1370,1361 1370,1345 1387,1345 1366,1340 "/>
   <path fill="#343434" d="M333 1894l-2 0c-5,-8 4,-16 -7,0 4,8 -13,21 9,0z"/>
   <path fill="#343434" d="M730 489l0 -7 -3 0c-19,20 -4,5 3,7z"/>
   <path fill="#343434" d="M1453 1327l2 -3c18,-15 7,-5 0,-8 -8,6 -4,-5 -2,11z"/>
   <path fill="#343434" d="M1754 2477l2 -6 -3 -2c-13,13 -4,2 1,8z"/>
   <path fill="#343434" d="M706 396l-3 5 3 3c11,-11 2,-3 0,-8z"/>
   <polygon fill="#8A8D94" points="978,955 982,952 984,945 "/>
  </g>
 </g>
</svg>
