<?xml version="1.0" encoding="UTF-8"?>
<!DOCTYPE svg PUBLIC "-//W3C//DTD SVG 1.1//EN" "http://www.w3.org/Graphics/SVG/1.1/DTD/svg11.dtd">
<!-- Creator: CorelDRAW X7 -->
<svg xmlns="http://www.w3.org/2000/svg" xml:space="preserve" width="1350px" height="1400px" version="1.1" shape-rendering="geometricPrecision" text-rendering="geometricPrecision" image-rendering="optimizeQuality" fill-rule="evenodd" clip-rule="evenodd"
viewBox="0 0 1331 1381"
 xmlns:xlink="http://www.w3.org/1999/xlink">
 <g id="Слой_x0020_1">
  <metadata id="CorelCorpID_0Corel-Layer"/>
  <g id="_635882016">
   <path fill="#6698C9" fill-rule="nonzero" d="M1056 1238c-1,3 -4,5 -7,5l-825 0c-3,0 -5,-1 -7,-4 -1,-2 -1,-5 0,-7l45 -118c1,-4 3,-6 7,-6l684 0c2,0 4,1 6,3l96 118c2,3 3,6 1,9z"/>
   <path fill="#EBECF1" fill-rule="nonzero" d="M1330 1189c-2,-4 -6,-7 -11,-7l-1307 0c-4,0 -8,2 -10,5 -2,4 -3,8 -1,12l71 174c2,5 6,8 11,8l1083 0c4,0 7,-1 9,-4l153 -175c3,-3 4,-8 2,-13z"/>
   <path fill="#BF6661" fill-rule="nonzero" d="M1328 1202c3,-3 4,-8 2,-13 -2,-4 -6,-7 -11,-7l-1307 0c-4,0 -8,2 -10,5 -2,4 -3,8 -1,12l4 10 1317 0 6 -7z"/>
   <path fill="#656A6C" fill-rule="nonzero" d="M72 1373c2,5 6,8 11,8l1083 0c4,0 7,-1 9,-4l30 -34 -1146 0 13 30z"/>
   <polygon fill="#EBECF1" fill-rule="nonzero" points="331,532 59,1029 589,1029 589,60 "/>
   <polygon fill="#D4D6DC" fill-rule="nonzero" points="589,165 543,145 534,161 589,186 "/>
   <polygon fill="#D4D6DC" fill-rule="nonzero" points="117,924 350,1029 395,1029 126,907 "/>
   <polygon fill="#D4D6DC" fill-rule="nonzero" points="186,797 589,978 589,958 195,780 "/>
   <polygon fill="#D4D6DC" fill-rule="nonzero" points="256,670 589,820 589,799 265,653 "/>
   <polygon fill="#D4D6DC" fill-rule="nonzero" points="331,532 325,542 589,661 589,641 334,526 "/>
   <polygon fill="#D4D6DC" fill-rule="nonzero" points="395,415 589,503 589,482 404,399 "/>
   <polygon fill="#D4D6DC" fill-rule="nonzero" points="464,288 589,344 589,324 473,272 "/>
   <polygon fill="#EBECF1" fill-rule="nonzero" points="1162,1055 876,532 605,36 605,1055 "/>
   <polygon fill="#D4D6DC" fill-rule="nonzero" points="652,122 616,122 616,141 662,141 "/>
   <polygon fill="#D4D6DC" fill-rule="nonzero" points="616,1008 1136,1008 1126,989 616,989 "/>
   <polygon fill="#D4D6DC" fill-rule="nonzero" points="616,863 1057,863 1047,845 616,845 "/>
   <polygon fill="#D4D6DC" fill-rule="nonzero" points="616,719 978,719 968,700 616,700 "/>
   <polygon fill="#D4D6DC" fill-rule="nonzero" points="616,574 899,574 889,556 616,556 "/>
   <polygon fill="#D4D6DC" fill-rule="nonzero" points="616,430 820,430 810,411 616,411 "/>
   <polygon fill="#D4D6DC" fill-rule="nonzero" points="616,285 741,285 731,267 616,267 "/>
   <polygon fill="#BF6661" fill-rule="nonzero" points="389,54 489,27 589,0 589,108 489,81 "/>
   <polygon fill="#656A6C" fill-rule="nonzero" points="588,1118 617,1118 617,0 588,0 "/>
  </g>
 </g>
</svg>
