<?xml version="1.0" encoding="UTF-8"?>
<!DOCTYPE svg PUBLIC "-//W3C//DTD SVG 1.1//EN" "http://www.w3.org/Graphics/SVG/1.1/DTD/svg11.dtd">
<!-- Creator: CorelDRAW X7 -->
<svg xmlns="http://www.w3.org/2000/svg" xml:space="preserve" width="979px" height="1427px" version="1.1" shape-rendering="geometricPrecision" text-rendering="geometricPrecision" image-rendering="optimizeQuality" fill-rule="evenodd" clip-rule="evenodd"
viewBox="0 0 1045 1524"
 xmlns:xlink="http://www.w3.org/1999/xlink">
 <g id="Слой_x0020_1">
  <metadata id="CorelCorpID_0Corel-Layer"/>
  <g id="_826828224">
   <path fill="#8EA931" fill-rule="nonzero" d="M975 1494c0,17 -202,30 -452,30 -250,0 -453,-13 -453,-30 0,-16 203,-29 453,-29 250,0 452,13 452,29z"/>
   <path fill="#F6AD71" fill-rule="nonzero" d="M220 1219l-34 214c0,0 -53,25 -73,22 -20,-4 -30,21 -4,26 27,6 49,2 49,2 0,0 -22,14 -9,23 12,9 82,-34 94,-41 13,-7 72,-227 72,-227 0,0 -20,-59 -95,-19z"/>
   <path fill="#F6AD71" fill-rule="nonzero" d="M842 1219l34 214c0,0 54,25 73,22 20,-4 31,21 4,26 -27,6 -48,2 -48,2 0,0 21,14 9,23 -13,9 -83,-34 -95,-41 -13,-7 -72,-227 -72,-227 0,0 20,-59 95,-19z"/>
   <path fill="#FDFAE0" fill-rule="nonzero" d="M345 1268c0,-23 -2,-48 1,-70l-119 -11c-12,28 -36,69 -36,81 0,1 7,12 14,16 10,5 21,2 26,-7l0 -1c1,7 4,13 10,16 9,5 20,2 26,-7 1,-2 2,-5 2,-7l2 0 -1 1c-1,11 7,20 17,22 10,1 20,-7 21,-17l0 0 1 0c-2,9 4,19 13,21 9,3 18,-1 22,-9 0,-9 1,-19 1,-28z"/>
   <path fill="#C08DBE" fill-rule="nonzero" d="M345 1268c0,-23 -2,-48 1,-70l-119 -11c-12,28 -36,69 -36,81 0,1 7,12 14,16 10,5 21,2 26,-7l0 -1c1,7 4,13 10,16 9,5 20,2 26,-7 1,-2 2,-5 2,-7l2 0 -1 1c-1,11 7,20 17,22 10,1 20,-7 21,-17l0 0 1 0c-2,9 4,19 13,21 9,3 18,-1 22,-9 0,-9 1,-19 1,-28z"/>
   <path fill="#A44A7E" fill-rule="nonzero" d="M404 1149c0,63 -51,113 -113,113 -62,0 -113,-50 -113,-113 0,-62 51,-113 113,-113 62,0 113,51 113,113z"/>
   <path fill="#FDFAE0" fill-rule="nonzero" d="M733 1268c-1,-23 1,-48 -2,-70l120 -11c11,28 35,69 35,81 0,1 -6,12 -14,16 -9,5 -20,2 -25,-7l-1 -1c0,7 -3,13 -9,16 -9,5 -21,2 -26,-7 -1,-2 -2,-5 -2,-7l-2 0 0 1c2,11 -6,20 -16,22 -11,1 -20,-7 -21,-17l0 0 -1 0c2,9 -4,19 -13,21 -9,3 -19,-1 -23,-9 0,-9 0,-19 0,-28z"/>
   <path fill="#C08DBE" fill-rule="nonzero" d="M733 1268c-1,-23 1,-48 -2,-70l120 -11c11,28 35,69 35,81 0,1 -6,12 -14,16 -9,5 -20,2 -25,-7l-1 -1c0,7 -3,13 -9,16 -9,5 -21,2 -26,-7 -1,-2 -2,-5 -2,-7l-2 0 0 1c2,11 -6,20 -16,22 -11,1 -20,-7 -21,-17l0 0 -1 0c2,9 -4,19 -13,21 -9,3 -19,-1 -23,-9 0,-9 0,-19 0,-28z"/>
   <path fill="#A44A7E" fill-rule="nonzero" d="M674 1149c0,63 50,113 113,113 62,0 113,-50 113,-113 0,-62 -51,-113 -113,-113 -63,0 -113,51 -113,113z"/>
   <path fill="#F6AD71" fill-rule="nonzero" d="M524 420c66,2 132,6 198,7 18,1 37,1 55,1 139,-115 49,-301 49,-301l-63 -6c46,171 -155,267 -239,299z"/>
   <path fill="#EF81B2" fill-rule="nonzero" d="M768 132c0,0 -26,-26 -23,-60 0,0 122,-69 178,-72 0,0 -50,86 -97,127l-58 5z"/>
   <path fill="#A44A7E" fill-rule="nonzero" d="M846 103c7,3 18,1 20,-7l-1 -2c-4,-3 -9,-3 -14,-6 -7,-3 -11,-10 -16,-17 -6,-7 -18,1 -14,9 6,11 14,19 25,23z"/>
   <path fill="#A44A7E" fill-rule="nonzero" d="M850 59c5,5 12,9 19,11 3,1 17,4 15,-3 0,-5 -5,-8 -8,-11 -4,-3 -8,-6 -12,-10 -4,-3 -9,-4 -13,-1 -4,4 -5,10 -1,14z"/>
   <polygon fill="#F6AD71" fill-rule="nonzero" points="227,109 273,452 456,418 273,87 "/>
   <path fill="#EF81B2" fill-rule="nonzero" d="M273 90c0,0 0,-38 -27,-59 0,0 -134,38 -176,76 0,0 96,24 159,20l44 -37z"/>
   <path fill="#A44A7E" fill-rule="nonzero" d="M198 124c-3,7 -12,14 -19,10l-1 -2c1,-5 4,-9 5,-14 3,-8 1,-16 0,-24 -2,-9 13,-12 16,-3 3,11 3,23 -1,33z"/>
   <path fill="#A44A7E" fill-rule="nonzero" d="M163 96c1,7 -1,15 -5,22 -1,3 -9,14 -13,8 -3,-3 -2,-9 -2,-13 1,-5 1,-10 1,-15 1,-6 4,-10 9,-11 5,0 10,4 10,9z"/>
   <path fill="#C08DBE" fill-rule="nonzero" d="M216 351l0 0 0 -1 0 1zm691 -18c-15,-4 -30,5 -34,20 0,2 0,4 0,6 -1,0 -2,0 -3,-1 0,-1 1,-1 1,-2 6,-14 0,-30 -14,-37 -14,-6 -30,1 -36,14 -1,3 -2,6 -2,9l-2 0c4,-13 -3,-27 -15,-33 -14,-6 -30,1 -37,15 0,1 0,2 -1,3 2,-12 -4,-24 -16,-29 -14,-6 -30,0 -36,14l0 0c-1,-9 -7,-17 -16,-21 -14,-7 -30,-1 -36,13 -2,4 -3,7 -3,11 -1,0 -2,0 -2,0l0 -2c0,-15 -12,-28 -27,-28 -15,-1 -28,11 -28,26l0 1 -2 0c2,-14 -8,-27 -22,-30 -14,-3 -29,7 -32,22 0,2 0,5 0,7l-1 0c-1,-12 -10,-24 -23,-26 -15,-3 -29,6 -32,21 0,2 0,3 0,4 -1,-12 -10,-22 -22,-25 -15,-3 -30,7 -33,22l0 0c-3,-8 -10,-15 -20,-17 -15,-4 -29,6 -33,21 -1,4 0,8 1,12l-1 0c0,-2 0,-4 0,-6 -3,-15 -17,-25 -32,-23 -15,3 -25,17 -23,32 1,1 1,3 1,4l-2 0 0 -1c0,-15 -12,-27 -27,-27 -15,0 -28,12 -28,27 0,4 1,7 2,10l-1 1c-2,-14 -13,-25 -28,-25 -15,0 -27,12 -27,28 0,1 0,2 0,3 -3,-11 -14,-20 -26,-20 -16,0 -28,12 -28,28l0 0c-5,-8 -13,-13 -23,-13 -15,-1 -28,11 -28,27 0,9 4,17 11,22l35 57 740 -11 20 -54c5,-4 9,-9 11,-15 4,-15 -5,-30 -20,-34z"/>
   <path fill="#A44A7E" fill-rule="nonzero" d="M285 765c0,0 -83,-104 -165,-350 0,0 393,-133 804,14 0,0 -122,291 -153,336 -8,10 -486,0 -486,0z"/>
   <path fill="#434347" fill-rule="nonzero" d="M762 758c0,0 32,-46 127,-39 96,7 156,120 156,120l-16 48c0,0 -48,-50 -61,-49 0,0 8,6 28,76 0,0 -88,150 -219,176 0,0 -89,-221 -15,-332z"/>
   <polygon fill="#EF81B2" fill-rule="nonzero" points="791,864 788,815 777,777 753,734 810,718 816,767 827,802 848,846 "/>
   <polygon fill="#A44A7E" fill-rule="nonzero" points="788,815 777,777 817,765 829,802 "/>
   <path fill="#434347" fill-rule="nonzero" d="M268 752c0,0 -39,-41 -133,-19 -93,21 -135,142 -135,142l23 45c0,0 51,-75 64,-77 0,0 -15,28 -23,99 0,0 106,134 240,140 0,0 54,-233 -36,-330z"/>
   <path fill="#F6AD71" fill-rule="nonzero" stroke="#F6AD71" stroke-width="0.961256" d="M787 897c0,0 1,140 1,186 0,46 -55,107 -143,127 -88,21 -278,10 -307,-43 -30,-54 -56,-100 -56,-100 0,0 -52,4 -73,-56 -20,-57 25,-97 75,-99 1,0 4,0 5,0 1,0 1,0 0,0 -5,0 -23,-156 83,-184 107,-27 395,-71 415,169z"/>
   <path fill="#C9C86F" fill-rule="nonzero" d="M298 799l0 0c4,-12 10,-23 18,-34l0 0c-8,11 -14,22 -18,34z"/>
   <path fill="#994369" fill-rule="nonzero" d="M339 1168c0,0 0,0 0,0 0,0 0,0 0,0zm0 0c0,0 0,0 0,0l0 0zm-1 0c0,0 0,0 0,0 0,0 0,0 0,0zm0 -1c0,0 0,0 0,0 0,0 0,0 0,0zm0 0c0,0 0,0 0,0 0,0 0,0 0,0z"/>
   <path fill="#994369" fill-rule="nonzero" d="M316 765l0 0c8,-10 18,-19 30,-26 -12,7 -22,16 -30,26zm30 -26c1,-1 1,-1 1,-1 0,0 0,0 -1,1zm1 -1c1,0 1,0 1,0 0,0 0,0 -1,0zm1 0c0,0 0,0 0,0 0,0 0,0 0,0zm0 -1c1,0 1,0 1,0 0,0 0,0 -1,0zm1 0c0,0 0,0 0,0 0,0 0,0 0,0zm0 0c1,0 1,0 1,0 0,0 0,0 -1,0zm1 0c0,0 0,0 0,-1 0,1 0,1 0,1zm1 -1c0,0 0,0 0,0 0,0 0,0 0,0zm0 0c0,0 0,0 0,0 0,0 0,0 0,0zm1 0c0,0 0,0 0,0 0,0 0,0 0,0zm0 0c0,0 0,0 0,-1 0,1 0,1 0,1zm1 -1c0,0 0,0 0,0 0,0 0,0 0,0zm0 0c0,0 0,0 1,0 -1,0 -1,0 -1,0zm1 0c0,0 0,0 0,0 0,0 0,0 0,0zm0 0c0,0 0,0 0,0 0,0 0,0 0,0zm1 -1c0,0 0,0 0,0 0,0 0,0 0,0zm0 0c0,0 0,0 1,0 -1,0 -1,0 -1,0zm1 0c0,0 0,0 0,0 0,0 0,0 0,0zm0 0c0,0 1,0 1,0 0,0 -1,0 -1,0zm1 -1c0,0 0,0 0,0 0,0 0,0 0,0zm0 0c1,0 1,0 1,0 0,0 0,0 -1,0zm1 0c0,0 0,0 0,0 0,0 0,0 0,0zm1 0c0,0 0,0 0,0 0,0 0,0 0,0zm0 0c0,0 0,-1 0,-1 0,0 0,1 0,1zm1 -1c0,0 0,0 0,0 0,0 0,0 0,0zm1 0c0,0 0,0 0,0 0,0 0,0 0,0zm0 0c0,0 0,0 0,0 0,0 0,0 0,0zm11 -4c0,0 1,0 1,0 0,0 -1,0 -1,0zm2 0c39,-10 100,-21 164,-22 -64,1 -125,12 -164,22zm164 -22c0,0 0,0 0,0l0 0c0,0 0,0 0,0z"/>
   <path fill="#413E3D" fill-rule="nonzero" d="M788 1011c0,0 0,0 0,0 0,-19 -1,-38 -1,-56 0,18 1,37 1,56zm-1 -56c0,0 0,0 0,0 0,0 0,0 0,0zm0 -1c0,0 0,0 0,0 0,0 0,0 0,0zm0 0c0,0 0,0 0,0 0,0 0,0 0,0zm0 -56c0,0 0,0 0,0 0,0 0,0 0,0zm0 0c0,0 0,0 0,0 0,0 0,0 0,0zm0 0l0 0 0 0zm0 -1l0 0zm0 0c0,0 0,0 0,0 0,0 0,0 0,0zm0 0c0,0 0,0 0,0 0,0 0,0 0,0zm0 0c0,0 0,0 0,0 0,0 0,0 0,0zm0 0c0,-1 0,-3 0,-4 0,1 0,3 0,4zm0 -6c0,0 0,0 0,0 0,0 0,0 0,0z"/>
   <path fill="#413E3D" fill-rule="nonzero" d="M290 1081l0 0c-5,-9 -8,-14 -8,-14 0,0 -1,0 -2,0 1,0 2,0 2,0 0,0 3,5 8,14zm-10 -14c0,0 -1,0 -1,0 0,0 1,0 1,0l0 0zm-2 0c-1,0 -1,0 -2,0 1,0 1,0 2,0zm-65 -47c0,0 0,0 0,0 0,0 0,0 0,0zm-2 -5l0 0 0 0zm-1 -1c0,-1 0,-2 -1,-3 -3,-9 -5,-19 -5,-27 0,8 2,18 5,27 1,1 1,2 1,3zm75 -145c0,0 0,-1 0,-1 0,0 0,1 0,1zm0 -1c0,0 0,0 0,0 0,0 0,0 0,0zm0 -1c0,0 0,0 0,0 0,0 0,0 0,0zm0 0c0,0 0,0 0,0 0,0 0,0 0,0zm0 -1c0,0 0,0 0,0 0,0 0,0 0,0zm0 0c0,0 0,0 0,0 0,0 0,0 0,0zm0 -1c0,0 0,0 0,0 0,0 0,0 0,0zm0 0c0,0 0,0 0,0 0,0 0,0 0,0zm0 0c0,0 0,0 0,-1 0,1 0,1 0,1zm0 -1c0,0 0,0 0,0 0,0 0,0 0,0zm0 0c0,0 0,0 0,-1 0,1 0,1 0,1zm0 -1c0,0 0,0 0,0 0,0 0,0 0,0zm0 0c0,0 0,0 0,0 0,0 0,0 0,0zm0 -1c0,0 0,0 0,0 0,0 0,0 0,0zm0 0c0,0 0,0 0,0 0,0 0,0 0,0zm0 0c0,-1 0,-1 0,-1 0,0 0,0 0,1zm0 -1c0,0 0,0 0,0 0,0 0,0 0,0zm0 0c0,0 0,-1 0,-1 0,0 0,1 0,1zm0 -1c0,0 0,0 0,0 0,0 0,0 0,0zm0 0c0,0 0,-1 0,-1 0,0 0,1 0,1zm0 -1c0,0 0,0 0,0 0,0 0,0 0,0zm0 0c1,-19 5,-40 13,-60l0 0c-8,20 -12,41 -13,60z"/>
   <path fill="#F6AD71" fill-rule="nonzero" d="M389 1200c-24,-8 -42,-19 -50,-32 0,0 0,0 0,0 0,0 0,0 0,0l0 0c0,0 -1,0 -1,0 0,0 0,0 0,0 0,0 0,-1 0,-1 0,0 0,0 0,0 0,0 0,0 0,0 0,0 0,0 0,0 0,0 0,0 0,0l0 0c-20,-36 -38,-69 -48,-86 -5,-9 -8,-14 -8,-14 0,0 -1,0 -2,0 0,0 0,0 0,0 0,0 -1,0 -1,0 0,0 -1,0 -1,0 -1,0 -1,0 -2,0 -13,-1 -45,-7 -63,-47 0,0 0,0 0,0 -1,-2 -2,-3 -2,-5l0 0c-1,0 -1,-1 -1,-1 0,-1 0,-2 -1,-3 -3,-9 -5,-19 -5,-27 0,-43 39,-71 80,-72 0,0 1,0 2,0 1,0 3,0 3,0 -2,0 -5,-18 -4,-43 0,0 0,-1 0,-1 0,0 0,0 0,0 0,0 0,0 0,0 0,-1 0,-1 0,-1 0,0 0,0 0,0 0,0 0,0 0,0 0,0 0,0 0,0 0,0 0,-1 0,-1 0,0 0,0 0,0 0,0 0,0 0,0 0,0 0,0 0,0 0,0 0,0 0,-1 0,0 0,0 0,0 0,0 0,0 0,0 0,0 0,0 0,0 0,0 0,0 0,0 0,0 0,0 0,-1 0,0 0,0 0,0 0,0 0,0 0,0 0,0 0,0 0,0 0,0 0,0 0,-1 0,0 0,0 0,0 0,0 0,0 0,0 0,0 0,0 0,0 0,0 0,0 0,0 0,0 0,-1 0,-1 0,0 0,0 0,0 0,0 0,0 0,0 0,0 0,0 0,0 0,0 0,0 0,0 0,-1 0,-1 0,-1 0,0 0,0 0,0 0,0 0,0 0,0 0,0 0,0 0,0 0,0 0,-1 0,-1 0,0 0,0 0,0 0,0 0,0 0,0 0,0 0,0 0,0 0,0 0,-1 0,-1l0 0c0,0 0,0 0,0 0,0 0,0 0,0 1,-19 5,-40 13,-60 4,-12 10,-23 18,-34 8,-10 18,-19 30,-26l0 0c1,-1 1,-1 1,-1 0,0 0,0 0,0 1,0 1,0 1,0 0,0 0,0 0,0 0,0 0,0 0,0 0,0 0,-1 0,-1 1,0 1,0 1,0 0,0 0,0 0,0 0,0 0,0 0,0 0,0 0,0 0,0 1,0 1,0 1,0 0,0 0,0 0,0 0,0 0,0 0,-1 0,0 0,0 1,0 0,0 0,0 0,0 0,0 0,0 0,0 0,0 0,0 0,0 0,0 1,0 1,0 0,0 0,0 0,0 0,0 0,0 0,0 0,0 0,0 0,-1 0,0 1,0 1,0 0,0 0,0 0,0 0,0 0,0 0,0 0,0 0,0 1,0 0,0 0,0 0,0 0,0 0,0 0,0 0,0 0,0 0,0 0,0 0,0 0,0 1,-1 1,-1 1,-1 0,0 0,0 0,0 0,0 0,0 0,0 0,0 0,0 1,0 0,0 0,0 0,0 0,0 0,0 0,0 0,0 0,0 0,0 0,0 1,0 1,0 0,0 0,-1 0,-1 0,0 0,0 0,0 0,0 0,0 0,0 1,0 1,0 1,0 0,0 0,0 0,0 0,0 0,0 0,0 0,0 1,0 1,0 0,0 0,0 0,0 0,0 0,0 0,0 0,0 0,-1 0,-1 0,0 1,0 1,0 0,0 0,0 0,0 0,0 1,0 1,0 0,0 0,0 0,0 0,0 0,0 0,0 0,0 0,0 0,0 4,-2 7,-3 11,-4l0 0c0,0 1,0 1,0 0,0 1,0 1,0 39,-10 100,-21 164,-22 0,0 0,0 0,0 0,0 0,0 0,0 113,1 233,37 249,185 0,0 0,0 0,0 0,0 0,1 0,2 0,1 0,3 0,4l0 0c0,0 0,0 0,0 0,0 0,0 0,0 0,0 0,0 0,0 0,0 0,0 0,0 0,0 0,0 0,0 0,0 0,0 0,0 0,0 0,0 0,0 0,0 0,0 0,0l0 0c0,0 0,1 0,1l0 0c0,0 0,0 0,0 0,0 0,0 0,0 0,0 0,0 0,0 0,0 0,0 0,0 0,4 0,27 0,56 0,0 0,0 0,0 0,0 0,0 0,0 0,0 0,0 0,0 0,0 0,0 0,1 0,0 0,0 0,0 0,0 0,0 0,0 0,18 1,37 1,56 -4,-26 0,-83 -5,-108 -2,-8 -5,-11 -8,-11 -5,0 -12,4 -21,9 -10,4 -22,9 -38,9 -6,0 -13,-1 -20,-3 -117,-27 -158,-92 -221,-92 -2,0 -4,0 -7,0 -86,6 -149,78 -145,171 2,50 17,100 32,148 7,24 18,47 34,66zm-123 -232c-11,0 -16,45 -13,51 5,9 16,14 26,14 5,0 10,-2 13,-6 7,-14 -6,-41 -21,-57 -2,-1 -3,-2 -5,-2z"/>
   <path fill="#894025" fill-rule="nonzero" d="M749 1069c0,0 -143,111 -292,-11 0,0 0,-6 18,-20 0,0 -28,1 -41,28 -13,28 -5,37 -5,37 0,0 12,-38 21,-31 8,8 153,143 299,-3z"/>
   <path fill="#60605F" fill-rule="nonzero" d="M464 979c12,-2 25,0 34,6 3,-6 5,-14 4,-22 -1,-16 -11,-28 -23,-27 -11,1 -20,15 -18,31 0,5 2,9 3,12z"/>
   <path fill="#FDFAE0" fill-rule="nonzero" d="M500 958c0,8 -4,14 -9,15 -6,0 -11,-6 -11,-14 -1,-7 3,-14 8,-14 6,-1 11,5 12,13z"/>
   <path fill="#F49C52" fill-rule="nonzero" d="M491 1052c-7,0 -15,-1 -23,-3 -1,0 -3,0 -5,-1 3,-2 7,-6 12,-10 0,0 -11,0 -22,7 -26,-10 -42,-27 -39,-43 4,-15 22,-23 46,-23 1,0 3,0 4,0 0,0 0,0 0,0 1,0 2,0 3,0 6,0 11,1 16,2 34,8 58,29 54,48 -3,14 -22,23 -46,23z"/>
   <path fill="#894025" fill-rule="nonzero" d="M463 1048c-3,-1 -7,-2 -10,-3 11,-7 22,-7 22,-7 -5,4 -9,8 -12,10z"/>
   <path fill="#4C413C" fill-rule="nonzero" d="M464 979c0,0 0,0 0,0 1,0 2,0 3,0 -1,0 -2,0 -3,0z"/>
   <path fill="#894025" fill-rule="nonzero" d="M415 992c0,0 59,-27 116,16 0,0 -31,-60 -116,-16z"/>
   <path fill="#60605F" fill-rule="nonzero" d="M714 981c-11,-1 -23,1 -31,8 -3,-5 -5,-12 -4,-20 1,-16 10,-28 20,-28 11,0 19,13 18,28 -1,5 -2,9 -3,12z"/>
   <path fill="#FDFAE0" fill-rule="nonzero" d="M696 961c0,7 3,13 8,14 5,0 10,-6 10,-14 0,-7 -3,-13 -8,-13 -5,0 -10,6 -10,13z"/>
   <path fill="#F49C52" fill-rule="nonzero" d="M699 1048c-21,0 -37,-8 -40,-21 -4,-12 7,-27 24,-38 0,0 0,0 0,0 7,-6 16,-8 25,-8 2,0 4,0 6,0 1,-1 1,-3 2,-5 1,0 3,0 5,0 19,0 40,10 44,24 4,18 -10,34 -40,44 -9,3 -18,4 -26,4z"/>
   <path fill="#4C413C" fill-rule="nonzero" d="M683 989c0,0 0,0 0,0 7,-5 15,-8 23,-11 3,-1 6,-2 10,-2 -1,2 -1,4 -2,5 -2,0 -4,0 -6,0 -9,0 -18,2 -25,8z"/>
   <path fill="#894025" fill-rule="nonzero" d="M755 987c0,0 -50,-19 -99,30 0,0 43,-70 99,-30z"/>
   <path fill="#9F5527" fill-rule="nonzero" d="M279 1033c-10,0 -21,-5 -26,-14 -3,-6 2,-51 13,-51 2,0 3,1 5,2 15,16 28,43 21,57 -3,4 -8,6 -13,6z"/>
   <path fill="#F49C52" fill-rule="nonzero" d="M785 916c0,0 29,15 33,49 4,35 -13,75 -31,88 0,0 -5,-111 -2,-137z"/>
   <path fill="#434347" fill-rule="nonzero" d="M796 776c-18,-64 -197,-162 -227,-66 -51,-90 -257,5 -279,71 -27,75 -1,131 -1,131 70,33 183,-19 183,-19 24,-18 55,-67 55,-67 -10,41 -36,73 -36,73l34 2c20,-25 38,-74 47,-106 6,25 18,74 35,102l28 -3c0,0 -21,-32 -29,-73 0,0 25,50 44,67 0,0 90,52 146,20 0,0 21,-56 0,-132z"/>
   <polygon fill="#EF81B2" fill-rule="nonzero" points="257,889 269,841 270,801 261,753 321,755 311,804 310,841 317,889 "/>
   <polygon fill="#A44A7E" fill-rule="nonzero" points="269,841 270,802 313,802 312,842 "/>
  </g>
 </g>
</svg>
