<svg xmlns="http://www.w3.org/2000/svg" width="210mm" height="297mm" shape-rendering="geometricPrecision" text-rendering="geometricPrecision" image-rendering="optimizeQuality" fill-rule="evenodd" clip-rule="evenodd" viewBox="0 0 21000 29700"><path fill="#2F3156" d="M10833 8985c105-116 52-372 272-306 47 174-12 454 34 629-440 3-974 71-1377 0 8-230-30-412-17-646 122 33 244 5 374 0-91 408 518 539 714 323zm1072 2534c-45-274-185-646-154-850 14-86 115-149 136-256 29-144-20-232-17-374-96-142-262-214-374-340 9-369 5-647 0-1020 26-65 146-36 153-119-310-429-612-871-952-1293-88-108-261-328-374-374-81-33-140 205-170 255-128 213-298 401-493 680-91 130-475 534-459 732 8 112 83 88 118 187-5 368 36 690 86 1003-172 158-440 311-409 596 17 146 198 216 221 323 16 72-50 246-67 391-121 993-206 2050-323 3010-149 1205-313 2352-358 3452-209 161-458 243-510 493-49 235 55 529 68 731 19 278-46 579 51 834 33 86 158 222 255 289 418 285 1327 471 2109 476 1064 6 2072-107 2585-612 275-272 203-522 221-1055 8-227 63-542-17-714-82-178-302-237-493-340-233-1998-513-4127-833-6105z"/><path fill="#DF3E31" d="M10323 7335c191 245 91 783 221 1089h-323c37-360 77-716 102-1089z"/><path fill="#FEFEFE" d="M10102 7420c-23 329-207 643-238 1021-139 14-285 21-391 68 164-341 437-719 629-1089z"/><path fill="#DF3E31" d="M10153 7573c40 258-81 585-34 851-70-2-140-4-187 17 51-311 159-567 221-868z"/><path fill="#FEFEFE" d="M9660 9291h-120c-49-171-17-424-50-612 24-10 88 20 85-17 76 162 16 460 85 629zM10289 8662c100 30 78 135 170 153 133 26 139-90 255-136-17 62-42 116-68 170-89 30-249 21-340 0-14-52-54-138-17-187zM11241 8679h119v612c-149 9-96-154-102-272-5-102-31-206-17-289v-51zM9540 9461c54-8 61 31 120 17-1 103 29 175 17 289-126-21-119-176-137-306zM9745 9495h51c-13 127 24 203 17 323-94-37-63-198-68-323zM11343 9495c28 29 36 182-17 187-76-18-16-167 17-187zM9932 9512h51c-34 76 23 262 0 323-130 13-57-256-51-323zM10051 9529h85c-7 131 12 238 34 340-165 12-70-236-119-340zM10374 9546c14 129-38 218 0 323-167 20-67-227-119-323 32-34 80-8 119 0zM11156 9529c59 9 25 111 34 170-41 21-83 42-136 51v-204c30-10 100 21 102-17zM10476 9546h51c0 87 90 292-17 323-114-35 3-203-34-323zM10629 9546h85c-2 110 29 187 34 289-154 18-93-178-119-289zM10816 9546h119c2 83-9 179 17 238-54-8-60 31-119 17 9-94-42-199-17-255z"/><path fill="#3E478E" d="M11666 10193c-696 240-1717 96-2449-18 128-355 504-142 851-102 429 51 926-64 1275-153 123-31 328 228 323 273z"/><path fill="#FEFEFE" d="M9184 10278c45 21 94 41 169 34 26 47-5 69 18 135-86-33-166-72-187-169zM9507 10346c48 14 104 19 153 33 12 67 35 124 51 188h-154c-31-59-60-121-50-221z"/><path fill="#3E478E" d="M9813 10413c530 40 1336 208 1870 0-417 291-1227 185-1836 170 2-69 3-138-34-170z"/><path fill="#DF3E31" d="M9745 11162c-24 208-41 547 17 731 92 42 209 6 272-34 29-198 26-499 0-697-75-78-213-82-289 0zm1853-442c12 447 75 844 119 1258-637 197-1860 242-2465 0 42-417 95-823 119-1258 683 104 1562 163 2227 0z"/><path fill="#FEFEFE" d="M9914 11247c40 136 6 345 18 510-66-93-79-400-18-510zM10595 12539c-139 262 18 730 68 1020 97 53 215 25 289-34 44-318-41-648-68-952-91-32-180-63-289-34zm-1361-425c630 227 1822 197 2517 51 71 491 145 978 204 1479-739 296-2093 251-2874 17 62-505 94-1040 153-1547z"/><path fill="#FEFEFE" d="M10663 12709h102c-1 245 94 484 51 715-101-20-86-185-102-289-20-131-35-244-51-375v-51z"/><path fill="#DF3E31" d="M9490 14104c-39 258-53 625-17 901 45 55 203 74 255 68 89-257 76-675 17-952-49-54-194-74-255-17zm2482-289c45 352 122 762 137 1088-859 264-2209 477-3214 221 54-450 136-872 170-1343 763 231 2137 315 2907 34z"/><path fill="#FEFEFE" d="M9592 14223h51c-2 219 9 451-18 646-72-154-16-437-33-646zM11581 15345c-29 300 15 663 102 901 492 28 166-616 170-901-65-36-211-56-272 0zm528-255c85 156 104 371 136 578 30 205 42 422 85 613-937 314-2477 427-3555 152 27-403 59-802 102-1190 980 239 2390 116 3232-153z"/><path fill="#FEFEFE" d="M11700 15498h34c78 149 49 405 68 612-79-148-89-453-102-612z"/><path fill="#DF3E31" d="M12330 16433c111 314 115 735 186 1089-513 338-1391 389-2244 391-624 2-1301-10-1599-391 40-317 70-644 85-987 1007 352 2641 220 3572-102z"/><path fill="#FEFEFE" d="M12499 17743c-51 440-671 683-1173 731-334 33-746-35-1122-17-390 19-788 45-1054-34-219-64-461-377-494-544-12-62 10-148 0-187-4-31 16-35 17-17 273 304 800 340 1446 340 890 0 1821 23 2380-272z"/><path fill="#8E9FD1" d="M10748 19087c34 4 33 46 68 50 161-78-86-289-68-50zm-204 0h68c39-48 9-136-68-120-24 23-24 97 0 120zm2245-1208c107 34 163 120 221 204-404 548-1186 719-1922 935 591 138 1066-191 1531-340 0 346 16 676 68 970-290 182-849 402-1327 442-175 15-349-9-527 0-168 8-326 42-493 34-562-28-1059-251-1513-357-48-260 12-625-35-885 478 1 947 241 1497 170-433-141-1209-242-1650-476-156-83-462-283-476-442-17-197 167-261 289-357 14-3 16 7 17 17 26 838 705 1008 1582 969 377-16 825 33 1258 0 509-38 1027-258 1258-476 105-98 196-258 222-408z"/><path fill="#FEFEFE" d="M12806 19546c-13-328-44-637-52-970 117-71 247-127 324-238 55 83-16 448-17 680-1 63 25 139 17 187-27 167-188 265-272 341zM8163 18474c100 48 153 143 238 204 4 332 45 624 68 936-359-123-230-734-306-1140zM8486 18746c63 11 100 48 153 69-9 309 11 589 17 884-142-54-104-269-119-425-16-168-41-336-51-476v-52z"/><path fill="#DF3E31" d="M10595 7489c230 257 527 685 748 952h-340c-73-380-320-587-408-952z"/><path fill="#FEFEFE" d="M10510 7693c121 162 243 470 306 748-76-3-145-14-204-34-31-242-69-475-102-714z"/></svg>