<?xml version="1.0" encoding="UTF-8"?>
<!DOCTYPE svg PUBLIC "-//W3C//DTD SVG 1.1//EN" "http://www.w3.org/Graphics/SVG/1.1/DTD/svg11.dtd">
<!-- Creator: CorelDRAW X7 -->
<svg xmlns="http://www.w3.org/2000/svg" xml:space="preserve" width="2173px" height="3131px" version="1.1" shape-rendering="geometricPrecision" text-rendering="geometricPrecision" image-rendering="optimizeQuality" fill-rule="evenodd" clip-rule="evenodd"
viewBox="0 0 2108 3037"
 xmlns:xlink="http://www.w3.org/1999/xlink">
 <g id="Слой_x0020_1">
  <metadata id="CorelCorpID_0Corel-Layer"/>
  <g id="_987711040">
   <path fill="#C9BB9E" fill-rule="nonzero" d="M126 2493c0,73 -5,149 15,220 48,175 194,281 364,308 14,3 30,5 46,5 10,1 18,0 27,0 206,0 413,0 619,0 221,0 532,53 722,-76 232,-158 185,-466 185,-712 0,-286 0,-573 0,-859 0,-105 9,-215 -26,-315 -55,-159 -175,-234 -316,-265 0,-45 0,-90 0,-135 100,-183 0,-449 -218,-517 -131,-40 -294,-18 -429,-18 -131,0 -286,-21 -414,14 -225,62 -337,334 -233,522 0,46 0,91 0,136 -170,40 -309,144 -337,348 -14,108 -5,224 -5,332 0,337 0,674 0,1012z"/>
   <path fill="#FEFEFE" fill-rule="nonzero" d="M3 2370c0,73 -5,149 15,220 48,175 194,281 364,308 14,3 30,5 47,5 9,1 17,1 26,0 206,0 413,0 620,0 220,0 532,53 721,-75 232,-158 185,-467 185,-712 0,-287 0,-574 0,-860 0,-105 10,-215 -26,-315 -55,-159 -175,-234 -316,-265 0,-45 0,-90 0,-134 100,-184 0,-450 -218,-517 -131,-41 -294,-19 -429,-19 -131,0 -286,-21 -414,14 -225,62 -337,334 -233,523 0,45 0,90 0,135 -170,40 -309,144 -337,349 -14,107 -5,223 -5,331 0,337 0,674 0,1012z"/>
   <path fill="#FEFEFE" fill-rule="nonzero" d="M1214 917l-107 0 0 -105c0,-2 -2,-3 -4,-3l-222 0c-3,0 -4,1 -4,3l0 105 -107 0 0 -105c0,-61 49,-110 111,-110l222 0c61,0 111,49 111,110l0 105z"/>
   <path fill="#533A2B" fill-rule="nonzero" d="M1142 883l38 0 0 -71c0,-42 -35,-76 -77,-76l-222 0c-43,0 -77,34 -77,76l0 71 38 0 0 -71c0,-21 17,-38 39,-38l222 0c21,0 39,17 39,38l0 71zm107 68l-176 0 0 -108 -162 0 0 108 -176 0 0 -139c0,-80 65,-145 146,-145l222 0c80,0 146,65 146,145l0 139z"/>
   <path fill="#C2E5F3" fill-rule="nonzero" d="M1555 2684l-1126 0c-115,0 -208,-92 -208,-207l0 -1393c0,-115 93,-207 208,-207l1126 0c115,0 207,92 207,207l0 1393c0,115 -92,207 -207,207z"/>
   <path fill="#533A2B" fill-rule="nonzero" d="M429 911c-96,0 -173,77 -173,173l0 1393c0,96 77,173 173,173l1126 0c95,0 173,-77 173,-173l0 -1393c0,-96 -78,-173 -173,-173l-1126 0zm1126 1808l-1126 0c-134,0 -242,-109 -242,-242l0 -1393c0,-133 108,-242 242,-242l1126 0c133,0 242,109 242,242l0 1393c0,133 -109,242 -242,242z"/>
   <path fill="#F9D62C" fill-rule="nonzero" d="M483 877l-54 0c-115,0 -208,92 -208,207l0 54c145,0 262,-117 262,-261z"/>
   <path fill="#533A2B" fill-rule="nonzero" d="M429 911c-96,0 -173,77 -173,173l0 17c98,-15 175,-92 190,-190l-17 0zm-208 261l-34 0 0 -88c0,-133 108,-242 242,-242l88 0 0 35c0,163 -132,295 -296,295z"/>
   <path fill="#F9D62C" fill-rule="nonzero" d="M1762 1138l0 -54c0,-115 -92,-207 -207,-207l-54 0c0,144 117,261 261,261z"/>
   <path fill="#533A2B" fill-rule="nonzero" d="M1538 911c15,98 92,175 190,190l0 -17c0,-96 -78,-173 -173,-173l-17 0zm259 261l-35 0c-163,0 -296,-132 -296,-295l0 -35 89 0c133,0 242,109 242,242l0 88z"/>
   <path fill="#F9D62C" fill-rule="nonzero" d="M221 2423l0 54c0,115 93,207 208,207l54 0c0,-144 -117,-261 -262,-261z"/>
   <path fill="#533A2B" fill-rule="nonzero" d="M256 2460l0 17c0,96 77,173 173,173l17 0c-15,-98 -92,-175 -190,-190zm261 259l-88 0c-134,0 -242,-109 -242,-242l0 -88 34 0c164,0 296,132 296,295l0 35z"/>
   <path fill="#F9D62C" fill-rule="nonzero" d="M1762 2477l0 -54c-144,0 -261,117 -261,261l54 0c115,0 207,-92 207,-207z"/>
   <path fill="#533A2B" fill-rule="nonzero" d="M1538 2650l17 0c95,0 173,-77 173,-173l0 -17c-98,15 -175,92 -190,190zm17 69l-89 0 0 -35c0,-163 133,-295 296,-295l35 0 0 88c0,133 -109,242 -242,242z"/>
   <polygon fill="#844F3A" fill-rule="nonzero" points="531,2684 755,2684 755,1581 531,1581 "/>
   <path fill="#533A2B" fill-rule="nonzero" d="M566 2650l155 0 0 -1035 -155 0 0 1035zm224 69l-293 0 0 -1173 293 0 0 1173z"/>
   <path fill="#844F3A" fill-rule="nonzero" d="M643 1949l0 0c-62,0 -112,-50 -112,-112l0 -960 224 0 0 960c0,62 -50,112 -112,112z"/>
   <path fill="#533A2B" fill-rule="nonzero" d="M566 911l0 926c0,43 35,78 77,78 43,0 78,-35 78,-78l0 -926 -155 0zm77 1072c-80,0 -146,-65 -146,-146l0 -995 293 0 0 995c0,81 -66,146 -147,146z"/>
   <path fill="#533A2B" fill-rule="nonzero" d="M643 1522c-42,0 -77,34 -77,77l0 73c0,43 35,78 77,78 43,0 78,-35 78,-78l0 -73c0,-43 -35,-77 -78,-77zm0 296c-80,0 -146,-65 -146,-146l0 -73c0,-81 66,-146 146,-146 81,0 147,65 147,146l0 73c0,81 -66,146 -147,146z"/>
   <path fill="#533A2B" fill-rule="nonzero" d="M643 1844l0 0c-13,0 -23,-11 -23,-24l0 -222c0,-13 10,-23 23,-23l0 0c13,0 24,10 24,23l0 222c0,13 -11,24 -24,24z"/>
   <polygon fill="#844F3A" fill-rule="nonzero" points="1228,2684 1452,2684 1452,1895 1228,1895 "/>
   <path fill="#533A2B" fill-rule="nonzero" d="M1263 2650l155 0 0 -720 -155 0 0 720zm224 69l-293 0 0 -858 293 0 0 858z"/>
   <path fill="#844F3A" fill-rule="nonzero" d="M1340 2264l0 0c-61,0 -112,-51 -112,-113l0 -1274 224 0 0 1274c0,62 -50,113 -112,113z"/>
   <path fill="#533A2B" fill-rule="nonzero" d="M1263 911l0 1240c0,43 35,78 77,78 43,0 78,-35 78,-78l0 -1240 -155 0zm77 1387c-80,0 -146,-66 -146,-147l0 -1309 293 0 0 1309c0,81 -66,147 -147,147z"/>
   <path fill="#533A2B" fill-rule="nonzero" d="M1340 1836c-42,0 -77,35 -77,78l0 72c0,43 35,78 77,78 43,0 78,-35 78,-78l0 -72c0,-43 -35,-78 -78,-78zm0 297c-80,0 -146,-66 -146,-147l0 -72c0,-81 66,-147 146,-147 81,0 147,66 147,147l0 72c0,81 -66,147 -147,147z"/>
   <path fill="#533A2B" fill-rule="nonzero" d="M1340 2158l0 0c-13,0 -23,-10 -23,-23l0 -222c0,-13 10,-24 23,-24l0 0c13,0 24,11 24,24l0 222c0,13 -11,23 -24,23z"/>
   <polygon fill="#FEFEFE" fill-rule="nonzero" points="564,877 648,877 648,396 564,396 "/>
   <path fill="#533A2B" fill-rule="nonzero" d="M598 842l15 0 0 -412 -15 0 0 412zm84 69l-153 0 0 -550 153 0 0 550z"/>
   <polygon fill="#FEFEFE" fill-rule="nonzero" points="1336,877 1420,877 1420,396 1336,396 "/>
   <path fill="#533A2B" fill-rule="nonzero" d="M1371 842l15 0 0 -412 -15 0 0 412zm84 69l-153 0 0 -550 153 0 0 550z"/>
   <path fill="#F9D62C" fill-rule="nonzero" d="M1425 458l-78 0c-19,0 -34,-15 -34,-34l0 -47c0,-3 -3,-5 -6,-5l-630 0c-3,0 -6,2 -6,5l0 47c0,19 -15,34 -34,34l-78 0c-19,0 -35,-15 -35,-34l0 -47c0,-84 68,-152 153,-152l630 0c84,0 153,68 153,152l0 47c0,19 -16,34 -35,34z"/>
   <path fill="#533A2B" fill-rule="nonzero" d="M677 338l630 0c22,0 40,17 40,39l0 47 78 0 0 -47c0,-65 -53,-118 -118,-118l-630 0c-65,0 -118,53 -118,118l0 47 78 0 0 -47c0,-22 18,-39 40,-39zm748 155l-78 0c-38,0 -69,-31 -69,-69l0 -18 -572 0 0 18c0,38 -31,69 -69,69l-78 0c-38,0 -69,-31 -69,-69l0 -47c0,-103 84,-186 187,-186l630 0c103,0 187,83 187,186l0 47c0,38 -31,69 -69,69z"/>
   <path fill="#FEFCF7" fill-rule="nonzero" d="M351 1750l0 0c-19,0 -35,-16 -35,-35l0 -444c0,-19 16,-34 35,-34l0 0c19,0 34,15 34,34l0 444c0,19 -15,35 -34,35z"/>
   <path fill="#FEFCF7" fill-rule="nonzero" d="M351 2041l0 0c-19,0 -35,-15 -35,-34l0 -136c0,-19 16,-35 35,-35l0 0c19,0 34,16 34,35l0 136c0,19 -15,34 -34,34z"/>
   <path fill="#FEFCF7" fill-rule="nonzero" d="M889 986l0 0c0,-19 16,-35 35,-35l136 0c19,0 34,16 34,35l0 0c0,19 -15,34 -34,34l-136 0c-19,0 -35,-15 -35,-34z"/>
  </g>
 </g>
</svg>
