<?xml version="1.0" encoding="UTF-8"?>
<!DOCTYPE svg PUBLIC "-//W3C//DTD SVG 1.1//EN" "http://www.w3.org/Graphics/SVG/1.1/DTD/svg11.dtd">
<!-- Creator: CorelDRAW X7 -->
<svg xmlns="http://www.w3.org/2000/svg" xml:space="preserve" width="1319px" height="1035px" version="1.1" shape-rendering="geometricPrecision" text-rendering="geometricPrecision" image-rendering="optimizeQuality" fill-rule="evenodd" clip-rule="evenodd"
viewBox="0 0 1525 1197"
 xmlns:xlink="http://www.w3.org/1999/xlink">
 <g id="Слой_x0020_1">
  <metadata id="CorelCorpID_0Corel-Layer"/>
  <g id="_1988252192">
   <path fill="#CF9E47" fill-rule="nonzero" d="M1305 544c-6,-3 -10,-8 -11,-16 -2,-11 7,-24 18,-25 -2,14 -5,28 -7,41z"/>
   <polygon fill="#D3A54F" fill-rule="nonzero" points="1497,1158 1497,1157 "/>
   <path fill="#D3A54F" fill-rule="nonzero" d="M714 1187c-6,0 -12,-4 -16,-9 9,3 19,4 28,6 -4,2 -8,3 -12,3z"/>
   <path fill="#D3A54F" fill-rule="nonzero" d="M1023 947c-16,0 -32,-2 -48,-5 -38,-9 -73,-22 -104,-41 16,-10 32,-21 48,-32 5,2 11,3 16,4 16,4 32,6 48,6 41,0 83,-13 114,-41 38,-35 62,-90 80,-141 37,-24 74,-47 112,-69 -8,40 -17,75 -25,106 -9,4 -19,6 -29,6 -3,0 -6,0 -9,0 -20,57 -44,125 -89,166 -32,28 -73,41 -114,41z"/>
   <path fill="#CF9E47" fill-rule="nonzero" d="M662 902c-8,-7 -16,-13 -25,-18 -19,-10 -43,-18 -68,-22 -9,-1 -18,-2 -27,-3 -1,-1 -2,-3 -3,-4 -8,2 -17,2 -26,2 -32,0 -70,-10 -98,-25 -41,15 -85,24 -129,24 -21,0 -43,-2 -63,-7 -39,-8 -74,-37 -97,-69 -4,-5 -7,-9 -10,-14 11,1 22,2 33,3 11,5 22,10 34,12 21,5 42,7 63,7 36,0 71,-6 105,-16 11,0 21,0 32,0 3,0 6,0 10,0 25,10 54,17 80,17 9,0 18,-1 26,-2 21,30 64,49 104,49 2,0 3,0 5,0 12,-1 26,-3 39,-7 0,7 4,14 13,14 15,0 18,-17 11,-25 1,0 2,-1 3,-2 19,11 44,15 68,15 20,0 38,-2 51,-6 7,-2 12,-4 17,-6 32,23 69,40 109,50 -16,11 -32,22 -48,32 -7,-4 -14,-9 -21,-14 -5,2 -10,4 -17,6 -13,4 -31,7 -51,7 -24,0 -50,-4 -68,-16 -3,2 -6,4 -10,6l-1 1 0 0c-13,6 -27,10 -41,11zm515 -205c4,-12 8,-24 12,-35 23,-69 46,-178 21,-260 38,37 51,94 50,152 18,1 30,13 38,30 -3,15 -6,30 -9,44 -38,22 -75,45 -112,69z"/>
   <path fill="#DBB568" fill-rule="nonzero" d="M393 772c-4,0 -7,0 -10,0 -11,0 -21,0 -32,0 8,-2 16,-5 24,-8 5,3 11,6 18,8zm-244 -3c-11,-1 -22,-2 -33,-3 -7,-12 -13,-25 -17,-38 14,16 31,31 50,41z"/>
   <path fill="#BC7F28" fill-rule="nonzero" d="M660 843c-9,0 -13,-7 -13,-14 8,-3 16,-6 24,-11 7,8 4,25 -11,25z"/>
   <path fill="#CF9E47" fill-rule="nonzero" d="M954 773l0 0c0,0 0,0 0,0 0,0 0,0 0,0zm0 0c-27,0 -54,-5 -81,-15 27,10 54,15 81,15z"/>
   <path fill="#DBB568" fill-rule="nonzero" d="M264 697l0 0c0,0 0,0 0,0 0,0 0,0 0,0zm0 0c-21,0 -41,-3 -59,-11 18,8 38,11 59,11zm94 -17c1,0 1,0 2,0 -1,0 -1,0 -2,0zm3 -1c0,0 1,0 1,0 0,0 -1,0 -1,0zm1 0c1,0 1,0 2,-1 -1,1 -1,1 -2,1z"/>
   <path fill="#D3A54F" fill-rule="nonzero" d="M576 501c0,0 0,0 0,0 0,0 0,0 0,0zm89 -4c0,0 -1,-1 -1,-1 0,0 1,1 1,1zm-2 -1c-11,-8 -24,-12 -38,-12 14,0 27,4 38,12zm-38 -12c0,0 0,0 0,0l0 0c0,0 0,0 0,0z"/>
   <path fill="#D3A54F" fill-rule="nonzero" d="M905 1197c-29,0 -58,-1 -86,-3 -26,-1 -59,-4 -93,-10 7,-3 12,-10 12,-18 0,-12 -8,-24 -21,-24 -12,0 -24,8 -24,21 0,5 2,11 5,15 -27,-6 -54,-15 -77,-27 -7,1 -14,1 -22,1 -10,0 -20,0 -31,-1 -49,-4 -96,-38 -114,-80 7,-1 14,-3 22,-4 16,9 34,14 53,16 10,0 20,1 30,1 8,0 15,-1 22,-1 60,32 144,40 198,43 28,1 57,2 86,2 91,0 185,-9 270,-40 112,-41 189,-123 226,-235 34,-100 59,-202 78,-305 18,-8 37,-16 55,-24 -5,36 -11,72 -18,108 -19,2 -20,26 -7,37 -2,7 -3,13 -4,20 -6,26 -12,52 -19,78 -6,26 -13,51 -21,77 -7,26 -15,51 -24,77 -22,66 -57,121 -105,164 1,3 -2,8 -6,8 -1,0 -2,-1 -3,-1 -32,27 -70,48 -112,64 -85,31 -179,41 -270,41zm579 -1106c-1,-7 -2,-14 -3,-22 11,3 20,9 26,20 -8,0 -15,1 -23,2z"/>
   <path fill="#CF9E47" fill-rule="nonzero" d="M454 1071c-3,-8 -5,-16 -7,-23 9,7 18,14 29,19 -8,1 -15,3 -22,4zm985 -523c19,-105 32,-211 40,-317 15,-1 30,-2 45,-3 -1,15 -2,30 -4,45 0,6 0,12 -1,18 -2,27 -4,53 -7,80 -2,27 -5,53 -8,80 -2,13 -3,27 -5,40 -2,11 -3,22 -5,33 -18,8 -37,16 -55,24z"/>
   <path fill="#DBB568" fill-rule="nonzero" d="M1479 231c0,-3 0,-5 0,-8l0 0c0,0 0,-1 0,-1 0,0 0,0 0,0 0,0 0,0 0,0 0,-1 0,-1 0,-1 0,0 0,0 0,0 0,0 0,-1 0,-1 0,0 0,0 0,0 0,-1 0,-1 0,-1 0,0 0,0 0,-1 0,0 1,0 1,0 3,-41 7,-85 4,-127 8,-1 15,-2 23,-2 2,2 3,5 4,8 15,41 15,86 13,131 -15,1 -30,2 -45,3z"/>
   <path fill="#C0852C" fill-rule="nonzero" d="M1469 669c-13,-11 -12,-35 7,-37 -2,12 -5,25 -7,37z"/>
   <path fill="#C0852C" fill-rule="nonzero" d="M726 1184c-9,-2 -19,-3 -28,-6 -3,-4 -5,-10 -5,-15 0,-13 12,-21 24,-21 13,0 21,12 21,24 0,8 -5,15 -12,18z"/>
   <path fill="#CF9E47" fill-rule="nonzero" d="M710 979c-6,-1 -12,-2 -18,-3 0,-5 0,-10 -1,-14 7,5 13,11 19,17z"/>
   <path fill="#1E8047" fill-rule="nonzero" d="M1201 489c-5,-7 -18,-4 -20,5 -11,45 -42,107 -25,155 12,32 59,27 81,8 44,-37 46,-194 -36,-168z"/>
   <path fill="#1E8047" fill-rule="nonzero" d="M92 343c-22,-22 -63,-11 -75,16 -11,24 -11,58 -14,83 -2,19 -6,39 2,56 12,24 58,37 77,15 12,-13 7,-42 8,-58 1,-34 3,-68 4,-102 1,-4 0,-7 -2,-10z"/>
   <path fill="#1E8047" fill-rule="nonzero" d="M788 724c-30,-45 -55,-108 -102,-138 -17,-53 -44,-99 -82,-66 -2,1 -3,4 -4,6 -21,10 -33,33 -45,55 -1,2 -2,4 -3,6 -2,-1 -5,0 -7,1 -66,46 -130,92 -193,141 -3,3 -5,6 -5,9 -3,1 -4,5 -1,8 33,27 105,51 153,41 22,32 67,50 109,49 22,-1 46,-8 66,-20 33,20 90,17 119,9 62,-18 20,-62 -5,-101z"/>
   <path fill="#61A67E" fill-rule="nonzero" d="M670 680c-4,-39 -11,-83 -32,-133 -2,-4 -7,-4 -5,0 11,38 20,113 23,138 5,44 6,138 7,137 4,-1 8,-4 11,-6 6,-55 0,-92 -4,-136z"/>
   <path fill="#61A67E" fill-rule="nonzero" d="M613 548c3,-6 8,-12 3,-7 -39,36 -68,101 -90,148 -13,30 -31,65 -36,99 3,0 6,-1 9,-1 1,1 3,3 4,5 7,-42 28,-88 45,-121 20,-41 47,-82 65,-123z"/>
   <path fill="#2DCA6F" fill-rule="nonzero" d="M1134 636c-28,118 -152,164 -261,122 -52,-20 -95,-62 -123,-111 -28,-48 -38,-115 -85,-150 -28,-21 -63,-15 -89,4 -31,23 -50,54 -73,84 -37,45 -85,75 -139,93 -49,17 -110,29 -159,8 -51,-21 -74,-71 -87,-121 -29,-108 -5,-268 118,-306 58,-19 120,-6 178,12 65,20 133,42 200,55 66,12 134,13 201,9 67,-4 143,-10 210,3 125,26 133,198 109,298zm0 -327c-67,-34 -150,-23 -222,-20 -113,4 -225,-2 -336,-22 -56,-10 -110,-22 -164,-39 -53,-15 -104,-38 -159,-43 -110,-9 -183,83 -205,181 -15,63 -15,131 -9,196 5,52 15,106 47,150 23,32 58,61 97,69 71,16 148,3 215,-26 73,-31 118,-85 164,-146 29,-37 75,-45 103,-4 32,46 45,102 78,147 49,66 114,104 192,121 56,13 118,4 162,-35 47,-44 72,-117 92,-176 34,-103 67,-292 -55,-353z"/>
   <path fill="#F2E9CC" fill-rule="nonzero" d="M1064 353c0,0 0,0 0,0 -10,-6 -20,-10 -32,-13 12,3 22,7 32,13zm-32 -13c0,0 -1,0 -1,0 0,0 1,0 1,0zm-1 0c0,0 0,0 0,0 0,0 0,0 0,0zm-1 0c0,0 0,0 0,-1 0,1 0,1 0,1zm-1 -1c0,0 0,0 0,0 0,0 0,0 0,0zm0 0c0,0 0,0 -1,0 1,0 1,0 1,0zm-1 0c0,0 0,0 0,0 0,0 0,0 0,0zm-1 0c0,0 0,0 0,0 0,0 0,0 0,0zm0 0c-1,0 -1,0 -1,0 0,0 0,0 1,0zm-1 0c0,0 0,0 0,0 0,0 0,0 0,0z"/>
   <path fill="#D8BB72" fill-rule="nonzero" d="M200 665c-10,0 -20,0 -29,0 -28,-25 -43,-63 -53,-100 -7,-27 -11,-56 -11,-87l0 0c0,31 4,60 11,87 7,26 16,51 30,73 -6,-14 -11,-30 -15,-45 -29,-106 -6,-261 110,-304 -7,9 -5,25 10,25 18,0 22,-26 7,-31 17,-4 35,-6 52,-6 39,0 79,10 117,21 65,21 133,43 200,55 45,9 91,12 136,12 22,0 43,-1 64,-2 26,-2 52,-4 79,-5 -73,57 -144,114 -219,164 -7,-10 -15,-18 -24,-25l0 0c0,0 -1,-1 -1,-1 0,0 0,0 -1,0 -11,-8 -24,-12 -38,-12 0,0 0,0 0,0l0 0c0,0 0,0 0,0 -17,0 -34,6 -49,17 0,0 0,0 0,0l0 0c-31,23 -50,54 -73,84 -17,20 -35,38 -56,52 -29,8 -58,14 -89,18 -53,7 -106,10 -158,10zm268 -161c-1,0 -2,0 -2,0 -12,3 -24,10 -35,15 -8,4 -10,16 -5,23 3,4 9,7 14,7 4,0 8,-2 10,-5 8,-9 18,-18 24,-29 3,-5 -1,-11 -6,-11zm-264 -81c-13,0 -24,12 -23,25 1,13 11,23 24,23 13,0 24,-12 23,-25 -1,-13 -11,-23 -24,-23zm464 -15c-23,0 -27,36 -4,36 23,0 27,-36 4,-36zm-136 -72c-25,0 -26,38 -2,38 25,0 26,-38 2,-38z"/>
   <path fill="#D5B66B" fill-rule="nonzero" d="M954 773c0,0 0,0 0,0 -27,0 -54,-5 -81,-15l0 0c-34,-13 -64,-36 -89,-63 5,-3 9,-7 13,-10 178,-137 215,-197 309,-283 7,7 12,14 17,22l0 0c-3,-9 -8,-18 -13,-25 0,0 0,0 0,0 15,22 24,49 29,77 -7,7 -5,20 4,26 1,13 2,27 2,41 0,33 -4,66 -11,93l0 0c0,1 0,1 0,1 -21,88 -98,136 -180,136 0,0 0,0 0,0zm126 -103c-9,0 -15,9 -14,17 1,9 8,14 17,14 8,0 15,-10 14,-18 -1,-9 -9,-13 -17,-13z"/>
   <path fill="#DFC889" fill-rule="nonzero" d="M264 697c0,0 0,0 0,0 -21,0 -41,-3 -59,-11l0 0c-13,-5 -24,-12 -34,-21 9,0 19,0 29,0 52,0 105,-3 158,-10 31,-4 60,-10 89,-18 -25,18 -53,31 -83,41l0 0c-1,1 -1,1 -2,1 0,0 0,0 0,0 0,0 -1,0 -1,0 -1,0 -1,1 -1,1 -1,0 -1,0 -2,0 -29,10 -62,17 -94,17 0,0 0,0 0,0zm520 -2c-13,-15 -24,-31 -34,-48 0,0 0,0 0,0 0,0 0,0 0,0 2,3 3,5 5,8 -14,-31 -25,-66 -43,-94 -7,-14 -14,-28 -23,-39 75,-50 146,-107 219,-164 12,0 24,0 36,0 33,0 65,2 96,8 27,6 49,19 66,36 -94,86 -131,146 -309,283 -4,3 -8,7 -13,10zm326 -296c-11,-19 -27,-35 -46,-46 0,0 0,0 0,0 19,11 35,27 46,46 0,0 0,0 0,0z"/>
   <path fill="#C49C4A" fill-rule="nonzero" d="M1143 502c-9,-6 -11,-19 -4,-26 2,8 3,17 4,26z"/>
   <path fill="#C49C4A" fill-rule="nonzero" d="M1083 701c-9,0 -16,-5 -17,-14 -1,-8 5,-17 14,-17 8,0 16,4 17,13 1,8 -6,18 -14,18z"/>
   <path fill="#C7A14E" fill-rule="nonzero" d="M205 471c-13,0 -23,-10 -24,-23 -1,-13 10,-25 23,-25 13,0 23,10 24,23 1,13 -10,25 -23,25z"/>
   <path fill="#C7A14E" fill-rule="nonzero" d="M440 549c-5,0 -11,-3 -14,-7 -5,-7 -3,-19 5,-23 11,-5 23,-12 35,-15 0,0 1,0 2,0 5,0 9,6 6,11 -6,11 -16,20 -24,29 -2,3 -6,5 -10,5z"/>
   <path fill="#C7A14E" fill-rule="nonzero" d="M530 374c-24,0 -23,-38 2,-38 24,0 23,38 -2,38z"/>
   <path fill="#C7A14E" fill-rule="nonzero" d="M664 444c-23,0 -19,-36 4,-36 23,0 19,36 -4,36z"/>
   <path fill="#C7A14E" fill-rule="nonzero" d="M253 314c-15,0 -17,-16 -10,-25 2,-1 5,-2 7,-3 4,-1 7,-2 10,-3 15,5 11,31 -7,31z"/>
   <path fill="#DFC889" fill-rule="nonzero" d="M750 646c0,0 0,0 -1,0 1,0 1,0 1,0zm-1 0c0,0 0,0 0,-1 0,1 0,1 0,1zm0 -1c0,0 0,0 0,0 0,0 0,0 0,0zm0 0c0,0 0,-1 -1,-1 1,0 1,1 1,1zm-1 -1c0,0 0,0 0,0 0,0 0,0 0,0zm0 -1c0,0 0,0 0,0 0,0 0,0 0,0zm0 0c0,0 0,0 0,0 0,0 0,0 0,0zm-1 -1c0,0 0,0 0,0 0,0 0,0 0,0z"/>
   <path fill="#B5AB77" fill-rule="nonzero" d="M755 655c-2,-3 -3,-5 -5,-8 0,0 0,0 0,0 0,0 0,0 0,-1 0,0 0,0 -1,0 0,0 0,0 0,0 0,0 0,0 0,-1 0,0 0,0 0,0 0,0 0,0 0,0 0,0 0,0 0,0 0,0 0,-1 -1,-1 0,0 0,0 0,0 0,0 0,0 0,0 0,0 0,-1 0,-1 0,0 0,0 0,0 0,0 0,0 0,0 0,0 0,0 0,0 -1,-1 -1,-1 -1,-1 0,0 0,0 0,0 -13,-25 -23,-54 -35,-81 18,28 29,63 43,94z"/>
   <path fill="#BEBA93" fill-rule="nonzero" d="M884 358c-90,0 -180,-7 -268,-23 -56,-9 -110,-22 -164,-38 -53,-16 -104,-39 -159,-44 -6,0 -11,0 -16,0 -11,0 -22,1 -32,3 17,-5 34,-7 52,-7 0,0 0,0 0,0 0,0 0,0 0,0 37,0 75,9 110,20 1,0 1,0 2,0 1,1 3,1 5,2 65,20 133,42 200,55 45,8 91,11 136,11 0,0 0,0 0,0l0 0c0,0 0,0 0,0 21,0 41,0 61,-2 0,0 1,0 1,0 1,0 2,0 3,0l0 0c1,0 2,0 4,0 0,0 0,0 0,0 2,0 4,0 6,0 0,0 0,0 0,0 1,0 1,0 2,-1 33,-2 68,-4 102,-4 0,0 0,0 0,0 0,0 0,0 0,0 5,0 11,0 16,0 -13,9 -25,19 -37,28 -8,0 -16,0 -24,0z"/>
   <path fill="#C5C7B2" fill-rule="nonzero" d="M908 358c12,-9 24,-19 37,-28 26,1 52,3 76,8 0,0 0,0 0,0 1,0 1,0 1,0 1,0 1,0 1,0 1,0 1,0 2,0 0,0 0,1 1,1 0,0 0,0 0,0 0,0 0,0 0,0 0,0 0,0 1,0 0,0 0,0 0,0 0,0 0,0 0,0 0,0 1,0 1,0 0,0 0,0 0,0 0,0 0,0 0,0 1,0 1,0 1,0 0,0 0,0 0,0 0,0 0,0 0,0 1,0 1,0 1,0 0,1 0,1 0,1 1,0 1,0 1,0 0,0 0,0 0,0 0,0 0,0 0,0 0,0 1,0 1,0 0,0 0,0 0,0 12,3 22,7 32,13 -5,0 -10,0 -15,0 -33,0 -66,3 -97,4 -15,1 -29,1 -44,1z"/>
   <path fill="#B0A064" fill-rule="nonzero" d="M148 638c-14,-22 -23,-47 -30,-73 -7,-27 -11,-56 -11,-87 0,-92 36,-190 129,-219l0 0c3,-1 6,-2 9,-3 10,-2 21,-3 32,-3 5,0 10,0 16,0 55,5 106,28 159,44 54,16 108,29 164,38 88,16 178,23 268,23 8,0 16,0 24,0 0,0 0,0 0,0 -27,1 -53,3 -79,5 -21,1 -42,2 -64,2 -45,0 -91,-3 -136,-12 -67,-12 -135,-34 -200,-55 -38,-11 -78,-21 -117,-21 -17,0 -35,2 -52,6 -1,0 -3,0 -4,0 -6,0 -10,2 -13,6 -116,43 -139,198 -110,304 4,15 9,31 15,45z"/>
   <path fill="#AC9C5E" fill-rule="nonzero" d="M1123 424c-5,-8 -10,-15 -17,-22 2,-1 3,-2 4,-3 5,7 10,16 13,25z"/>
   <path fill="#B5AB77" fill-rule="nonzero" d="M1106 402c-17,-17 -39,-30 -66,-36 -31,-6 -63,-8 -96,-8 -12,0 -24,0 -36,0 0,0 0,0 0,0 15,0 29,0 44,-1 31,-1 64,-4 97,-4 5,0 10,0 15,0 19,11 35,27 46,46 -1,1 -2,2 -4,3z"/>
   <path fill="#A28A44" fill-rule="nonzero" d="M243 289c3,-4 7,-6 13,-6 1,0 3,0 4,0 -3,1 -6,2 -10,3 -2,1 -5,2 -7,3z"/>
   <path fill="#3CD78E" fill-rule="nonzero" d="M954 773c0,0 0,0 0,0 0,0 0,0 0,0l0 0zm0 0c82,0 159,-48 180,-136 -21,88 -98,136 -180,136zm-81 -15l0 0c-52,-20 -95,-62 -123,-111 -28,-48 -38,-115 -85,-150l0 0c9,7 17,15 24,25 9,11 16,25 23,39 12,27 22,56 35,81 0,0 0,0 0,0 0,0 0,0 1,1 0,0 0,0 0,0 0,0 0,0 0,0 0,0 0,0 0,0 0,0 0,1 0,1 0,0 0,0 0,0 0,0 0,0 0,0 1,0 1,1 1,1 0,0 0,0 0,0 0,0 0,0 0,0 0,0 0,0 0,0 0,1 0,1 0,1 0,0 0,0 0,0 1,0 1,0 1,0 0,1 0,1 0,1 0,0 0,0 0,0 10,17 21,33 34,48 25,27 55,50 89,63l0 0zm-609 -61c0,0 0,0 0,0 0,0 0,0 0,0l0 0zm0 0c32,0 65,-7 94,-17 -29,10 -62,17 -94,17zm-59 -11l0 0c-51,-21 -74,-71 -87,-121 -7,-27 -11,-56 -11,-87 0,31 4,60 11,87 10,37 25,75 53,100 10,9 21,16 34,21l0 0zm155 -6c0,0 0,-1 1,-1 -1,0 -1,1 -1,1zm2 -1c0,0 0,0 0,0 0,0 0,0 0,0zm2 -1l0 0c30,-10 58,-23 83,-41 21,-14 39,-32 56,-52 23,-30 42,-61 73,-84l0 0c-31,23 -50,54 -73,84 -37,45 -85,75 -139,93l0 0zm770 -42l0 0c7,-27 11,-60 11,-93 0,33 -4,66 -11,93l0 0zm-558 -135c15,-11 32,-17 49,-17 -17,0 -34,6 -49,17zm88 -5c0,0 0,0 -1,0 1,0 1,0 1,0zm-39 -12c0,0 0,0 0,0l0 0c0,0 0,0 0,0zm398 -146c0,0 0,0 -1,0 1,0 1,0 1,0zm-2 0c0,0 0,0 0,0 0,0 0,0 0,0zm-271 -1c0,0 0,0 0,0 0,0 0,0 0,0l0 0zm0 0c21,0 41,0 61,-2 -20,2 -40,2 -61,2zm62 -2c1,0 2,0 3,0 -1,0 -2,0 -3,0zm7 0c0,0 0,0 0,0 0,0 0,0 0,0zm6 0c0,0 0,0 0,0 0,0 0,0 0,0zm2 -1c33,-2 68,-4 102,-4 -34,0 -69,2 -102,4zm102 -4c0,0 0,0 0,0l0 0c0,0 0,0 0,0zm-520 -61c-1,0 -1,0 -2,0 1,0 1,0 2,0zm-173 -10c20,-7 40,-10 61,-10 -18,0 -35,2 -52,7 -3,1 -6,2 -9,3zm61 -10c0,0 0,0 0,0l0 0c0,0 0,0 0,0z"/>
   <path fill="white" fill-rule="nonzero" d="M517 302c-33,-9 -66,-20 -98,-30 -4,5 -8,11 -12,15 -40,49 -81,98 -121,147 -50,62 -101,122 -149,185 12,23 27,43 49,57 55,-58 109,-118 162,-179 40,-46 79,-92 119,-139 14,-17 33,-36 50,-56z"/>
   <path fill="white" fill-rule="nonzero" d="M566 315c-8,10 -15,20 -23,29 -42,50 -84,101 -126,152 -55,66 -109,133 -162,201 12,0 23,0 34,-1 52,-62 103,-124 155,-186 42,-50 85,-101 127,-151 10,-11 22,-23 33,-36 -13,-2 -25,-5 -38,-8z"/>
   <path fill="white" fill-rule="nonzero" d="M1025 338c-15,-3 -30,-5 -46,-6 -4,6 -9,12 -13,17 -41,49 -81,98 -121,148 -36,43 -71,86 -106,129 4,7 7,14 11,21 10,17 22,34 35,48 41,-44 81,-90 121,-136 41,-46 80,-92 119,-139 16,-18 35,-37 53,-58 -15,-11 -32,-19 -53,-24z"/>
   <path fill="white" fill-rule="nonzero" d="M832 736c7,5 15,10 23,14 49,-59 98,-119 148,-178 40,-48 81,-96 122,-145 -4,-10 -10,-21 -16,-30 -2,3 -5,6 -7,9 -42,50 -84,101 -126,152 -49,59 -97,118 -144,178z"/>
   <path fill="#1E8047" fill-rule="nonzero" d="M569 862c-41,-6 -86,-3 -115,16 -27,17 -44,48 -47,79 -6,61 56,121 122,126 106,7 142,-22 159,-87 13,-46 -10,-90 -51,-112 -19,-10 -43,-18 -68,-22z"/>
   <path fill="#61A67E" fill-rule="nonzero" d="M616 998c22,-29 7,-74 -24,-90 -36,-19 -79,-4 -101,29 -21,33 -20,82 17,103 34,20 83,10 107,-20 3,-4 -1,-9 -5,-7 -24,14 -47,31 -77,23 -36,-9 -47,-49 -34,-82 11,-28 39,-46 70,-42 43,6 54,46 40,82 -1,4 5,7 7,4z"/>
   <path fill="#2DCA6F" fill-rule="nonzero" d="M1471 28c-17,-46 -82,-30 -97,7 -27,64 -24,242 -57,441 -38,228 -71,350 -116,396 -118,119 -375,147 -565,90 -26,-7 -49,-29 -78,-30 -33,-1 -52,39 -46,68 22,104 183,121 267,126 117,6 245,2 356,-38 112,-41 189,-123 226,-235 69,-204 103,-417 118,-630 5,-64 14,-133 -8,-195z"/>
   <path fill="#C9A861" fill-rule="nonzero" d="M1479 222c0,0 0,0 0,0 0,0 0,0 0,0zm0 0c0,-1 0,-1 0,-1 0,0 0,0 0,1zm0 -1c0,0 0,-1 0,-1 0,0 0,1 0,1zm0 -1c0,-1 0,-1 0,-1 0,0 0,0 0,1zm0 -2c0,0 1,0 1,0 0,0 -1,0 -1,0z"/>
   <path fill="#29BB67" fill-rule="nonzero" d="M865 1128c-29,0 -58,-1 -86,-2 -54,-3 -138,-11 -198,-43 -16,-9 -31,-20 -43,-33 -13,-14 -22,-30 -26,-50l0 0c-1,-7 -1,-14 0,-21 106,57 236,90 362,90 169,0 328,-60 404,-206 131,-241 168,-519 152,-795 17,-1 34,-4 49,-9 11,51 4,107 1,159 0,0 -1,0 -1,0 0,1 0,1 0,1 0,0 0,0 0,1 0,0 0,0 0,0 0,0 0,1 0,1 0,0 0,0 0,0 0,0 0,0 0,1 0,0 0,0 0,0 0,0 0,0 0,0 0,0 0,1 0,1l0 0c-15,213 -49,426 -118,630 -37,112 -114,194 -226,235 -85,31 -179,40 -270,40z"/>
   <path fill="#1E8047" fill-rule="nonzero" d="M1101 940c-3,-8 -15,-4 -13,4 14,44 21,97 44,138 2,3 6,1 6,-2 0,-47 -23,-97 -37,-140z"/>
   <path fill="#1E8047" fill-rule="nonzero" d="M1168 980c-8,-23 -17,-44 -33,-62 -6,-7 -16,1 -11,8 16,21 22,47 30,71 7,20 11,46 27,59 3,3 6,0 7,-3 5,-23 -12,-51 -20,-73z"/>
   <path fill="#1E8047" fill-rule="nonzero" d="M1255 1015c-9,-19 -24,-37 -35,-56 -14,-22 -28,-44 -42,-66 -4,-7 -14,-1 -10,6 13,26 26,51 41,76 10,18 21,38 38,49 6,3 11,-4 8,-9z"/>
   <path fill="#1E8047" fill-rule="nonzero" d="M1298 961c-4,-20 -23,-37 -36,-53 -16,-19 -33,-38 -49,-58 -5,-6 -17,3 -12,10 15,20 30,41 45,61 12,16 24,39 42,48 5,2 12,-2 10,-8z"/>
   <path fill="#1E8047" fill-rule="nonzero" d="M1337 899c-7,-18 -26,-30 -41,-41 -19,-13 -37,-26 -56,-39 -10,-7 -21,7 -12,14 18,13 37,27 54,41 14,12 30,28 48,32 4,1 8,-3 7,-7z"/>
   <path fill="#1E8047" fill-rule="nonzero" d="M1463 23c-5,-11 -26,-12 -37,-12 -13,0 -26,4 -35,14 -5,6 -1,17 7,17 10,1 20,2 31,1 6,1 13,1 19,0 10,-1 21,-9 15,-20z"/>
  </g>
 </g>
</svg>
