<?xml version="1.0" encoding="UTF-8"?>
<!DOCTYPE svg PUBLIC "-//W3C//DTD SVG 1.1//EN" "http://www.w3.org/Graphics/SVG/1.1/DTD/svg11.dtd">
<!-- Creator: CorelDRAW X7 -->
<svg xmlns="http://www.w3.org/2000/svg" xml:space="preserve" width="1190px" height="1209px" version="1.1" shape-rendering="geometricPrecision" text-rendering="geometricPrecision" image-rendering="optimizeQuality" fill-rule="evenodd" clip-rule="evenodd"
viewBox="0 0 1093 1110"
 xmlns:xlink="http://www.w3.org/1999/xlink">
 <g id="Слой_x0020_1">
  <metadata id="CorelCorpID_0Corel-Layer"/>
  <g id="_2587442480">
   <polygon fill="#CF9E47" fill-rule="nonzero" points="187,138 187,137 "/>
   <path fill="#D3A54F" fill-rule="nonzero" d="M621 228c-1,0 -1,0 -1,0 5,-9 8,-19 11,-29 9,11 6,29 -10,29z"/>
   <polygon fill="#D3A54F" fill-rule="nonzero" points="1082,202 1082,201 "/>
   <path fill="#D3A54F" fill-rule="nonzero" d="M619 524c-1,-1 -3,-2 -5,-3 2,0 4,1 5,3z"/>
   <path fill="#D3A54F" fill-rule="nonzero" d="M873 954c-24,-4 -47,-6 -71,-6 -10,-7 -21,-13 -31,-20 -7,8 -15,15 -24,20 1,1 2,2 2,2 -1,1 -3,1 -5,1 4,-26 -12,-49 -31,-71 9,-6 17,-12 24,-20 23,14 45,30 68,44 4,2 9,4 12,4 2,0 4,-1 5,-1 14,7 28,15 41,25 8,6 10,14 10,22z"/>
   <path fill="#CF9E47" fill-rule="nonzero" d="M726 1110c-2,0 -4,0 -6,0 -4,-1 -5,-5 -5,-8 -1,-16 13,-31 20,-44 0,-1 1,-2 1,-4 12,-2 25,-3 37,-5 -1,9 -4,17 -7,24 -7,16 -21,37 -40,37z"/>
   <path fill="#DBB568" fill-rule="nonzero" d="M736 1054c2,-5 4,-10 5,-15l0 0c-9,-19 -13,-39 -23,-57 -1,-1 -2,-3 -3,-4 3,1 6,2 9,2 4,0 9,-2 12,-7 4,-7 7,-15 8,-22 2,0 4,0 5,-1 22,26 39,54 25,84 0,5 0,10 -1,15 -12,2 -25,3 -37,5zm128 -13c-8,0 -14,-7 -15,-15 -1,-12 2,-25 2,-37 -1,-5 -1,-9 -2,-13 -3,-1 -6,-2 -10,-4 -12,-8 -25,-16 -37,-24 24,0 47,2 71,6 0,0 0,0 0,0 12,27 23,61 1,83 -3,3 -7,4 -10,4z"/>
   <path fill="#D3A54F" fill-rule="nonzero" d="M656 970c-51,0 -106,-14 -147,-30 -113,-42 -219,-117 -274,-227 -12,10 -25,19 -36,28 -16,13 -33,27 -53,29 -7,9 -12,19 -17,28 -4,7 -14,23 -24,23 -3,0 -6,-2 -9,-5 -15,-15 1,-41 12,-54 5,-7 11,-12 18,-16 13,-21 35,-35 55,-50 11,-8 23,-16 36,-21 59,93 155,159 258,197 41,15 96,30 147,30 18,0 35,-2 52,-6 3,6 6,12 9,18 9,15 13,32 20,47 -8,2 -15,5 -22,8 -8,1 -16,1 -25,1z"/>
   <path fill="#DBB568" fill-rule="nonzero" d="M681 969c7,-3 14,-6 22,-8 0,1 1,3 1,4 -7,2 -15,3 -23,4z"/>
   <path fill="#D3A54F" fill-rule="nonzero" d="M927 940c-4,0 -8,-1 -10,-5 -8,-14 -12,-30 -20,-43 -4,1 -8,2 -12,2 -16,0 -32,-9 -47,-16 -1,-5 -4,-10 -9,-14 -23,-18 -46,-29 -71,-38 3,-6 5,-13 7,-20 0,0 0,0 0,0 0,0 0,0 0,0 0,-1 0,-1 0,-1 0,0 0,0 0,0 0,0 0,0 0,0 0,0 0,0 0,-1l0 0c1,-2 1,-4 2,-6 11,3 21,6 31,9 1,1 3,2 4,2l1 3c0,3 0,7 1,11 10,2 20,4 29,7 21,6 49,13 67,27 28,14 57,45 39,76 -2,5 -7,7 -12,7zm-87 -166c-14,-5 -29,-9 -41,-12 -9,-3 -19,-6 -29,-7 -1,-13 -4,-26 -7,-39 1,0 3,0 4,0 3,5 6,10 9,15 6,-8 13,-15 20,-21 15,-5 29,-13 43,-25l0 0c0,0 0,0 0,0 0,0 0,0 0,0 0,0 0,0 0,0 0,0 0,0 0,0 5,-4 11,-9 17,-16 7,-3 15,-7 22,-10 0,-4 2,-9 5,-13 5,-9 9,-16 13,-24 3,0 5,0 7,0 4,0 8,-1 11,-3l0 0c9,-5 11,-21 14,-29 3,-11 8,-24 8,-36 0,-2 0,-4 0,-6 -1,-4 -3,-7 -6,-10 74,-31 128,-104 128,-187 0,0 0,0 0,0 0,0 0,0 0,0 0,0 0,0 0,0 0,0 0,-1 0,-1 0,0 0,0 0,0 0,0 0,0 0,0 0,0 0,0 0,0 0,0 0,-1 0,-1 0,0 0,0 0,0 0,0 0,0 0,0 0,0 0,0 0,0 0,-1 0,-1 0,-1 0,0 0,0 0,0 0,0 0,0 0,0 0,0 0,-1 0,-1l0 0c0,0 0,0 0,0 0,0 0,-1 0,-1 0,0 0,0 0,0 0,0 0,0 0,0 0,0 0,-1 0,-1 0,0 0,0 0,0 0,0 0,0 0,-1l0 0c0,0 0,0 0,0 0,0 0,0 0,0 0,-1 0,-1 0,-1 0,0 0,0 0,0 0,-13 -2,-26 -5,-38 1,1 1,1 1,2 1,1 2,2 3,3 3,3 5,7 7,10 1,1 2,2 3,4 2,3 4,7 6,11l1 2c2,4 3,7 5,11 0,1 1,2 1,3 2,4 3,8 5,13 0,1 0,2 1,3 1,4 2,8 3,12 0,1 0,2 0,3 1,4 2,9 2,14 1,1 1,3 1,4 0,5 1,10 1,16 0,5 0,11 -1,16 0,2 0,4 -1,6 0,3 0,7 -1,10 0,3 -1,5 -1,7 -1,3 -1,6 -2,9 -1,3 -1,5 -2,7 -1,3 -2,6 -3,9 0,2 -1,5 -2,7 -1,3 -2,5 -3,7 -1,3 -2,6 -4,8 -1,2 -2,4 -3,6 -1,3 -3,6 -4,8 -1,2 -2,4 -3,5 -2,3 -4,6 -6,9 0,1 -1,2 -2,3 -23,32 -55,58 -92,74 2,1 3,2 4,3l1 2 1 1c0,1 1,2 1,4 2,13 -4,29 -8,41 -3,9 -5,24 -13,30 -2,1 -3,1 -5,2l-1 0c-1,0 -2,0 -3,0l-2 1c0,0 0,0 0,0 -2,0 -3,-1 -4,-1l-1 0c-2,0 -3,0 -5,0l0 0c-8,15 -21,31 -34,44l0 1c-5,5 -10,9 -14,13l-2 1c-1,2 -3,3 -5,5 -11,9 -22,16 -33,20zm48 -91c-16,0 -15,24 1,24 15,0 14,-24 -1,-24z"/>
   <path fill="#C0852C" fill-rule="nonzero" d="M889 707c-16,0 -17,-24 -1,-24 15,0 16,24 1,24z"/>
   <path fill="#D3A54F" fill-rule="nonzero" d="M49 715c-3,0 -7,-3 -7,-6 -3,-20 12,-35 25,-47 11,-9 23,-16 36,-20 10,-15 30,-17 50,-19 0,0 0,0 1,0 -2,2 -5,3 -7,5 -23,17 -49,33 -60,59 -1,2 -1,4 -1,5 -10,10 -21,21 -36,22 0,0 0,1 -1,1zm123 -48c9,-7 19,-14 29,-22 1,4 3,7 5,11 -11,4 -22,8 -33,11 0,0 -1,0 -1,0zm559 -23c-13,-21 -29,-41 -45,-59 0,-1 0,-1 1,-1 9,-6 22,-12 34,-12 5,0 9,1 14,3 15,9 13,30 8,45 -3,8 -7,17 -12,24zm-684 -28c-4,0 -7,-1 -10,-4 -13,-15 16,-41 27,-49 10,-6 27,-15 42,-15 1,0 2,0 3,0 7,-6 18,-8 29,-8 9,0 18,1 25,3 2,0 4,1 6,1 0,2 0,5 0,7 -2,0 -5,-1 -8,-1 -15,0 -29,3 -43,5 -23,3 -48,5 -55,30 -3,9 2,17 9,21 -8,5 -18,10 -25,10zm133 -19c-7,-1 -15,-3 -22,-5 6,-2 12,-4 18,-7 1,4 2,8 4,12zm682 -45c-41,-26 -79,-63 -86,-111 28,30 67,53 102,68l1 0c1,6 2,13 4,19 -8,1 -14,4 -15,8 -2,6 -3,11 -6,16zm-301 -65c-13,-7 -26,-14 -39,-20 5,-2 9,-3 14,-3 2,0 3,0 5,0 11,2 17,12 20,23zm295 -43c-41,-29 -40,-81 -22,-130 26,-23 58,-39 88,-39 1,0 1,0 2,0 5,0 6,6 3,9 -35,38 -72,105 -71,160zm-484 -19c-8,-1 -16,-1 -23,-2 1,-21 -3,-42 -10,-62 2,3 4,6 6,9l0 1c5,7 9,14 12,22l1 1c2,3 3,7 5,10l1 2c3,6 5,13 8,19zm159 -38c-63,0 -119,-53 -154,-100l-1 -2c-2,1 -5,1 -8,1 2,7 1,15 -2,22l-1 0c-1,2 -2,4 -3,6 -5,7 -11,14 -17,20 -1,1 -2,2 -3,3 -2,3 -5,7 -8,10 -10,-23 -23,-45 -37,-66 5,-5 10,-11 14,-15 0,0 0,0 0,0 0,0 0,-1 0,-1l0 0c2,-2 5,-5 7,-7 4,-2 9,-3 13,-3 1,0 2,1 4,1 1,-13 4,-26 7,-39l1 1c35,48 91,101 154,101 13,0 27,-3 40,-8 0,0 1,0 1,0 0,0 0,0 0,0 0,0 0,0 0,0 0,0 0,0 0,0 0,0 0,0 0,0 0,0 0,0 0,0 1,-1 1,-1 1,-1 0,0 0,0 0,0 0,0 0,0 0,0 0,0 0,0 0,0 0,0 0,0 0,0 0,0 0,0 0,0 1,0 1,0 1,0 0,0 0,0 0,0 0,0 0,0 0,0 0,0 0,0 0,0 0,0 0,0 0,0 0,0 0,0 1,0 0,0 0,0 0,0 0,0 0,0 0,-1 0,0 0,0 0,0 0,0 0,0 0,0 0,0 0,0 0,0 0,0 1,0 1,0 0,0 0,0 0,0 0,0 0,0 0,0 0,0 0,0 0,0 0,0 0,0 0,0 1,0 2,-1 2,-1 0,0 0,0 0,0 0,0 1,0 1,0 0,0 0,0 0,0 0,0 0,0 0,0 0,0 0,0 0,0 0,0 0,-1 0,-1 0,0 0,0 0,0 1,0 1,0 1,0 0,0 0,0 0,0 0,0 0,0 0,0 0,0 0,0 0,0 0,0 0,0 0,0 0,0 0,0 0,0 1,0 1,0 1,0 0,0 0,0 0,0 0,0 0,0 0,0 0,0 0,0 0,-1 0,0 0,0 0,0 0,0 0,0 1,0 0,0 0,0 0,0 0,0 0,0 0,0 0,0 0,0 0,0 0,0 0,0 0,0 0,0 0,0 0,0 0,0 1,0 1,0 0,0 0,0 0,0 0,0 0,0 0,0 0,-1 0,-1 1,-1 0,0 0,0 0,0 0,0 0,0 0,0 0,0 0,0 0,0 0,0 0,0 0,0 0,0 0,0 0,0 0,0 1,0 1,0 0,0 0,0 0,0 0,0 0,0 0,0 0,-1 0,-1 0,-1 0,0 0,0 0,0 0,0 0,0 0,0 1,0 1,0 1,0 0,0 0,0 0,0 0,0 0,0 0,0 0,0 0,0 0,0 0,0 0,0 0,0 0,0 0,0 0,0 0,0 1,0 1,0 0,0 0,-1 0,-1 0,0 0,0 0,0 0,0 0,0 0,0 0,0 0,0 0,0 10,-6 20,-13 29,-22 32,-22 59,-51 77,-77 1,-2 3,-3 5,-3 2,0 4,1 4,4 2,6 3,13 3,21l0 1c0,4 0,7 0,10 0,1 0,2 0,3 -1,3 -1,6 -2,9 0,1 0,2 0,4 -1,3 -1,5 -2,8 0,2 -1,3 -1,4 -1,3 -2,6 -3,9 0,1 -1,3 -1,4 -1,3 -2,5 -3,8 -1,2 -2,3 -2,5 -1,2 -3,5 -4,7 -1,2 -2,3 -2,5 -2,2 -3,5 -4,7 -1,2 -2,3 -3,5 -2,2 -3,4 -5,6 -1,2 -2,4 -3,6 -2,1 -3,3 -5,5 -1,2 -2,4 -4,5 -1,2 -3,4 -4,5 -2,2 -4,4 -5,5 -2,2 -3,3 -5,5 -1,2 -3,3 -5,5 -2,1 -3,2 -5,3 -2,2 -4,3 -6,5 -1,1 -2,2 -4,3 -2,1 -5,3 -7,4 -1,1 -2,2 -4,2 -3,2 -7,4 -11,5 -13,6 -27,8 -40,8zm395 -141c-1,-1 -1,-1 -1,-1 0,0 1,0 1,1zm-493 -8c-19,-8 -36,-24 -50,-51l0 0c10,-11 19,-23 30,-30 40,-27 107,-47 167,-47 29,0 57,5 80,17 1,1 2,1 3,1 1,0 1,0 2,0 15,16 29,35 41,56 3,6 -3,12 -9,12 -1,0 -2,0 -3,-1 -17,-8 -37,-13 -58,-15 2,-15 1,-30 -2,-44 -1,-2 -3,-3 -4,-3 -2,0 -4,1 -6,2 -9,15 -22,30 -37,45 -52,5 -105,23 -140,45 -5,4 -10,8 -14,13z"/>
   <path fill="#C0392D" fill-rule="nonzero" d="M900 593c-1,-4 -3,-9 -8,-9 -33,-6 -78,20 -105,38 -29,20 -56,44 -65,79 -1,0 -2,0 -4,0 -6,1 -5,12 1,13 45,7 84,1 120,-29 21,-17 65,-61 61,-92z"/>
   <path fill="#C0392D" fill-rule="nonzero" d="M893 180c50,57 53,178 28,247 -5,12 -14,24 -22,35l-1 0c-131,-31 -65,-182 -5,-246 2,-3 2,-9 -3,-9 -66,-1 -139,70 -148,135 -11,83 69,139 136,167l1 0c1,10 5,21 8,30 0,3 1,5 2,7 1,1 1,2 2,3 2,7 12,5 13,-2 89,-25 156,-106 154,-200 -1,-97 -69,-157 -157,-182 -7,-2 -13,9 -8,15z"/>
   <path fill="#EB6053" fill-rule="nonzero" d="M936 548c-4,-23 -65,-26 -68,-12 -4,15 -11,28 -19,41 -6,9 -8,19 -1,28 8,10 21,12 33,14 9,1 24,7 33,0 9,-5 11,-21 14,-29 4,-13 10,-29 8,-42z"/>
   <path fill="#EB6053" fill-rule="nonzero" d="M803 655c-3,2 -5,3 -8,6 -4,5 -3,12 2,16 6,4 14,2 17,-4 1,-3 2,-5 2,-9 2,-7 -6,-14 -13,-9z"/>
   <path fill="#EB6053" fill-rule="nonzero" d="M845 641c-11,0 -11,16 0,16 10,0 10,-16 0,-16z"/>
   <path fill="#EB6053" fill-rule="nonzero" d="M1014 424c-2,-7 -7,-10 -13,-10l-2 0c-6,-1 -13,6 -12,13l0 1c1,12 15,18 24,9 3,-3 5,-9 3,-13z"/>
   <path fill="#EB6053" fill-rule="nonzero" d="M1025 362c-19,0 -20,30 0,30 19,0 20,-30 0,-30z"/>
   <path fill="#EB6053" fill-rule="nonzero" d="M1010 308c-2,-1 -5,-1 -8,0 -5,0 -9,5 -10,9 -3,12 9,23 20,17 11,-5 10,-21 -2,-26z"/>
   <path fill="#EB6053" fill-rule="nonzero" d="M982 248c-1,-8 -7,-14 -16,-14 -8,0 -15,9 -14,17 1,9 8,14 17,14 7,0 14,-9 13,-17z"/>
   <path fill="#C0392D" fill-rule="nonzero" d="M270 243c-3,-5 -12,-5 -14,1 -18,48 -24,97 -9,148 11,38 35,87 77,97 5,2 9,-2 10,-6 1,-5 3,-11 4,-16 36,-77 -23,-164 -68,-224z"/>
   <path fill="#C0392D" fill-rule="nonzero" d="M672 116c-45,-80 -119,-133 -214,-111 -91,20 -155,104 -159,196 -6,3 -6,13 2,14 1,0 2,0 3,0 3,1 5,1 7,1 10,1 22,2 31,1l1 1c43,58 116,124 194,93 61,-24 113,-111 97,-175 -1,-4 -7,-4 -10,-1 -48,73 -179,173 -241,52l0 0c10,-11 19,-23 30,-30 61,-40 180,-65 247,-30 6,3 15,-5 12,-11z"/>
   <path fill="#EB6053" fill-rule="nonzero" d="M331 210c-14,-28 -46,-30 -65,-8 -9,10 -26,27 -27,41 -1,12 10,25 19,32 8,7 22,15 33,10 8,-3 15,-14 20,-20 6,-6 12,-12 17,-19 7,-11 10,-24 3,-36z"/>
   <path fill="#EB6053" fill-rule="nonzero" d="M375 123c-2,-3 -6,-5 -10,-5 -7,1 -11,7 -15,13 -8,14 16,27 23,12 3,-7 6,-13 2,-20z"/>
   <path fill="#EB6053" fill-rule="nonzero" d="M405 57c-2,0 -5,1 -8,2 -8,3 -11,14 -6,21 6,8 16,7 22,0 2,-2 3,-4 5,-6 4,-8 -4,-18 -13,-17z"/>
   <path fill="#EB6053" fill-rule="nonzero" d="M494 25c-17,0 -18,26 -1,26 17,0 18,-26 1,-26z"/>
   <path fill="#EB6053" fill-rule="nonzero" d="M525 257c-5,2 -8,4 -12,8 -5,5 -5,14 1,18 5,5 13,4 18,-1 2,-2 3,-3 4,-6 1,-1 2,-2 2,-4 0,-3 0,-4 0,-2 3,-8 -6,-15 -13,-13z"/>
   <path fill="#EB6053" fill-rule="nonzero" d="M586 214c-14,0 -12,23 2,23 15,0 13,-23 -2,-23z"/>
   <path fill="#EB6053" fill-rule="nonzero" d="M296 344c-5,-1 -9,1 -13,3 -8,4 -11,14 -6,21 5,7 15,9 22,3 3,-3 7,-6 8,-10 1,-9 -2,-15 -11,-17z"/>
   <path fill="#A93328" fill-rule="nonzero" d="M349 423c-7,0 -13,-1 -19,-1 -3,-27 -10,-54 -18,-77 -6,-16 -23,-40 -25,-58 1,0 3,-1 4,-2 2,0 4,-2 6,-4 29,43 55,93 52,142z"/>
   <path fill="#B99247" fill-rule="nonzero" d="M311 266c0,0 0,0 0,0 0,0 0,0 0,0z"/>
   <path fill="#CE554B" fill-rule="nonzero" d="M287 287c0,-1 0,-2 0,-3 -1,-17 15,-30 25,-43 5,-5 9,-12 14,-17 3,-2 6,-3 9,-5 1,9 -2,19 -7,27l0 0c-5,7 -11,13 -17,19l0 0c0,0 0,1 0,1 0,0 0,0 0,0 -4,4 -9,10 -14,15 0,0 0,0 0,0 -2,2 -4,4 -6,4 -1,1 -3,2 -4,2z"/>
   <path fill="#CCB680" fill-rule="nonzero" d="M342 217l0 0c0,0 0,0 0,0 0,0 0,0 0,0l0 0 0 0z"/>
   <path fill="#B99247" fill-rule="nonzero" d="M497 319c-63,0 -119,-53 -154,-101l-1 -1 0 0 1 1c35,48 91,101 154,101 13,0 27,-3 40,-8 0,0 1,0 1,0 0,0 -1,0 -1,0 -13,5 -27,8 -40,8zm41 -8c0,0 0,0 0,0 0,0 0,0 0,0zm0 0c0,0 0,0 0,0 0,0 0,0 0,0zm0 0c1,-1 1,-1 1,-1 0,0 0,0 -1,1zm1 -1c0,0 0,0 0,0 0,0 0,0 0,0zm0 0c0,0 0,0 0,0 0,0 0,0 0,0zm0 0c1,0 1,0 1,0 0,0 0,0 -1,0zm1 0c0,0 0,0 0,0 0,0 0,0 0,0zm0 0c0,0 0,0 0,0 0,0 0,0 0,0zm1 0c0,0 0,0 0,0 0,0 0,0 0,0zm0 -1c0,0 0,0 0,0 0,0 0,0 0,0zm0 0c0,0 0,0 0,0 0,0 0,0 0,0zm1 0c0,0 0,0 0,0 0,0 0,0 0,0zm0 0c0,0 0,0 0,0 0,0 0,0 0,0zm0 0c1,0 2,-1 2,-1 0,0 -1,1 -2,1zm2 -1c0,0 1,0 1,0 0,0 -1,0 -1,0zm1 0c0,0 0,0 0,0 0,0 0,0 0,0zm0 0c0,0 0,-1 0,-1 0,0 0,1 0,1zm0 -1c1,0 1,0 1,0 0,0 0,0 -1,0zm1 0c0,0 0,0 0,0 0,0 0,0 0,0zm0 0c0,0 0,0 0,0 0,0 0,0 0,0zm0 0c1,0 1,0 1,0 0,0 0,0 -1,0zm1 0c0,0 0,0 0,0 0,0 0,0 0,0zm0 -1c0,0 0,0 0,0 0,0 0,0 0,0zm1 0c0,0 0,0 0,0 0,0 0,0 0,0zm0 0c0,0 0,0 0,0 0,0 0,0 0,0zm0 0c0,0 0,0 0,0 0,0 0,0 0,0zm1 0c0,0 0,0 0,0 0,0 0,0 0,0zm0 0c0,-1 0,-1 1,-1 -1,0 -1,0 -1,1zm1 -1c0,0 0,0 0,0 0,0 0,0 0,0zm0 0c0,0 0,0 0,0 0,0 0,0 0,0zm0 0c0,0 1,0 1,0 0,0 -1,0 -1,0zm1 0c0,0 0,0 0,0 0,0 0,0 0,0zm0 -1c0,0 0,0 0,0 0,0 0,0 0,0zm0 0c1,0 1,0 1,0 0,0 0,0 -1,0zm1 0c0,0 0,0 0,0 0,0 0,0 0,0zm0 0c0,0 0,0 0,0 0,0 0,0 0,0zm0 0c0,0 1,0 1,0 0,0 -1,0 -1,0zm1 -1c0,0 0,0 0,0 0,0 0,0 0,0zm0 0c0,0 0,0 0,0 0,0 0,0 0,0z"/>
   <path fill="#A93328" fill-rule="nonzero" d="M497 319c-63,0 -119,-53 -154,-101l-1 -1 0 0c0,0 0,0 0,0 -1,0 -2,0 -3,0 3,-1 6,-2 8,-2 9,0 15,5 24,12 15,10 26,25 42,35 25,16 51,23 77,23 8,0 16,-1 23,-2 0,0 0,0 1,0 2,2 5,3 8,3 4,0 7,-1 10,-4 2,-2 3,-3 4,-5 53,-19 94,-68 100,-130 8,56 -33,127 -83,156 0,0 0,0 0,0 0,0 0,0 0,0 0,0 0,0 0,0 0,0 0,1 0,1 0,0 -1,0 -1,0 0,0 0,0 0,0 0,0 0,0 0,0 0,0 0,0 0,0 0,0 0,0 0,0 0,0 0,0 0,0 0,0 0,0 -1,0 0,0 0,0 0,0 0,0 0,0 0,0 0,0 0,0 0,1 0,0 0,0 0,0 0,0 0,0 0,0 0,0 -1,0 -1,0 0,0 0,0 0,0 0,0 0,0 0,0 0,0 0,0 0,0 0,0 0,0 0,0 0,0 0,0 0,0 -1,0 -1,0 -1,1 0,0 0,0 0,0 0,0 0,0 0,0 0,0 -1,0 -1,0 0,0 0,0 0,0 0,0 0,0 0,0 0,0 0,0 0,0 0,0 0,0 0,0 0,0 0,0 0,0 -1,0 -1,0 -1,0 0,0 0,0 0,0 0,1 0,1 0,1 0,0 0,0 0,0 0,0 0,0 0,0 0,0 0,0 -1,0 0,0 0,0 0,0 0,0 0,0 0,0 0,0 0,0 0,0 0,0 0,0 0,0 0,0 0,0 0,0 0,0 0,0 -1,0 0,0 0,0 0,0 0,0 0,1 0,1 0,0 0,0 0,0 0,0 0,0 0,0 0,0 0,0 0,0 0,0 -1,0 -1,0 0,0 0,0 0,0 0,0 -1,1 -2,1 0,0 0,0 0,0 0,0 0,0 0,0 0,0 0,0 0,0 0,0 0,0 0,0 0,0 -1,0 -1,0 0,0 0,0 0,0 0,0 0,0 0,0 0,0 0,0 0,0 0,1 0,1 0,1 0,0 0,0 0,0 -1,0 -1,0 -1,0 0,0 0,0 0,0 0,0 0,0 0,0 0,0 0,0 0,0 0,0 0,0 0,0 0,0 0,0 -1,0 0,0 0,0 0,0 0,0 0,0 0,0 0,0 0,0 0,0 0,0 0,0 0,0 0,0 0,0 0,0 0,0 0,0 -1,1 0,0 0,0 0,0 0,0 0,0 0,0 0,0 0,0 0,0 0,0 0,0 0,0 0,0 0,0 0,0 0,0 -1,0 -1,0 -13,5 -27,8 -40,8z"/>
   <path fill="#CE554B" fill-rule="nonzero" d="M522 286c-3,0 -6,-1 -8,-3 -1,0 -1,0 -1,0 8,-2 16,-4 23,-6 -1,2 -2,3 -4,5 -3,3 -6,4 -10,4z"/>
   <path fill="#B99247" fill-rule="nonzero" d="M796 710l0 0c15,-5 29,-13 43,-25l0 0c-14,12 -28,20 -43,25zm43 -25c0,0 0,0 0,0 0,0 0,0 0,0zm0 0c0,0 0,0 0,0 0,0 0,0 0,0zm219 -334c0,0 0,0 0,0 0,0 0,0 0,0zm0 0c0,0 0,0 0,0 0,0 0,0 0,0zm0 -1c0,0 0,0 0,0 0,0 0,0 0,0zm0 0c0,0 0,0 0,0 0,0 0,0 0,0zm0 -1c0,0 0,0 0,0 0,0 0,0 0,0zm0 0c0,0 0,0 0,0 0,0 0,0 0,0zm0 -1c0,0 0,0 0,0 0,0 0,0 0,0zm0 0c0,0 0,-1 0,-1 0,0 0,1 0,1zm0 -1c0,0 0,-1 0,-1 0,0 0,1 0,1zm0 -1c0,0 0,0 0,0 0,0 0,0 0,0zm0 -1c0,0 0,0 0,0 0,0 0,0 0,0zm0 -1c0,0 0,0 0,0l0 0zm0 0c0,0 0,0 0,0 0,0 0,0 0,0zm0 -1c0,0 0,0 0,0 0,0 0,0 0,0z"/>
   <path fill="#A93328" fill-rule="nonzero" d="M763 716c-4,-14 -9,-28 -16,-42 2,1 4,1 6,1 14,0 27,-3 40,-7 0,4 1,7 4,9 2,1 5,2 7,2 4,0 8,-2 10,-6 1,-3 2,-5 2,-9 1,-1 1,-3 0,-5 7,-3 14,-7 21,-11 -1,4 2,9 8,9 9,0 10,-14 2,-16 2,-2 4,-3 6,-5 8,-5 16,-12 24,-18 1,0 2,0 4,1 3,0 8,1 13,2 -13,25 -40,51 -55,64 0,0 0,0 0,0 0,0 0,0 0,0 0,0 0,0 0,0 0,0 0,0 0,0l0 0c-14,12 -28,20 -43,25 -11,3 -22,5 -33,6z"/>
   <path fill="#A93328" fill-rule="nonzero" d="M929 538c-1,-1 -3,-2 -5,-3 5,-12 12,-23 28,-31 11,-6 21,-11 30,-20 24,-24 38,-56 44,-92 17,-1 18,-26 3,-30 2,-54 -13,-111 -41,-155 41,32 68,77 70,136 0,0 0,0 0,0 0,0 0,0 0,1 0,0 0,0 0,0 0,0 0,0 0,0 0,0 0,0 0,0 0,1 0,1 0,1 0,0 0,0 0,0 0,0 0,1 0,1 0,0 0,0 0,0 0,0 0,0 0,0 0,0 0,1 0,1 0,0 0,0 0,0l0 0c0,0 0,1 0,1 0,0 0,0 0,0 0,0 0,0 0,0 0,0 0,0 0,1 0,0 0,0 0,0 0,0 0,0 0,0 0,0 0,0 0,0 0,0 0,1 0,1 0,0 0,0 0,0 0,0 0,0 0,0 0,0 0,0 0,0 0,0 0,1 0,1 0,0 0,0 0,0 0,0 0,0 0,0 0,0 0,0 0,0 0,83 -54,156 -129,187z"/>
   <path fill="#CE554B" fill-rule="nonzero" d="M903 622c-3,0 -6,0 -9,-1 0,0 0,0 0,0 -5,-1 -10,-2 -13,-2 -2,-1 -3,-1 -4,-1 15,-13 29,-29 35,-48 5,-13 7,-25 12,-35 2,1 4,2 5,3 0,0 0,0 0,0 4,3 6,6 7,10 0,2 0,4 0,6 0,12 -5,25 -8,36 -3,8 -5,24 -14,29l0 0c-3,2 -6,3 -11,3z"/>
   <path fill="#CE554B" fill-rule="nonzero" d="M804 679c-2,0 -5,-1 -7,-2 -3,-2 -4,-5 -4,-9 8,-2 15,-5 23,-9 1,2 1,4 0,5 0,4 -1,6 -2,9 -2,4 -6,6 -10,6z"/>
   <path fill="#CE554B" fill-rule="nonzero" d="M845 657c-6,0 -9,-5 -8,-9 3,-2 7,-5 10,-7 8,2 7,16 -2,16z"/>
   <path fill="#CE554B" fill-rule="nonzero" d="M1026 392c2,-10 3,-20 3,-30 15,4 14,29 -3,30z"/>
   <path fill="#EB6053" fill-rule="nonzero" d="M91 488c-14,-19 -47,-3 -61,7 -11,7 -40,34 -27,49 12,13 41,-11 51,-17 9,-5 48,-23 37,-39z"/>
   <path fill="#EB6053" fill-rule="nonzero" d="M86 570c-20,1 -38,11 -53,24 -14,12 -28,27 -25,46 0,4 4,7 8,6 17,-2 29,-16 41,-27 13,-11 26,-23 38,-36 5,-6 -2,-14 -9,-13z"/>
   <path fill="#EB6053" fill-rule="nonzero" d="M128 663c-21,7 -39,13 -54,30 -11,13 -27,39 -12,55 13,14 28,-9 33,-19 10,-18 22,-40 40,-51 9,-5 2,-18 -7,-15z"/>
   <path fill="#EB6053" fill-rule="nonzero" d="M731 941c-4,-4 -11,-3 -14,1 -8,15 -9,32 -16,48 -7,13 -21,28 -21,43 1,3 2,7 6,8 22,5 38,-19 46,-36 8,-19 13,-46 -1,-64z"/>
   <path fill="#EB6053" fill-rule="nonzero" d="M832 872c-6,-13 -25,-4 -22,8 3,14 6,27 6,40 1,13 -2,25 -1,38 1,12 14,20 24,10 27,-25 6,-69 -7,-96z"/>
   <path fill="#EB6053" fill-rule="nonzero" d="M856 785c-14,-5 -19,16 -8,23 22,13 23,38 35,58 5,9 18,7 22,-1 19,-35 -19,-70 -49,-80z"/>
   <path fill="#C0392D" fill-rule="nonzero" d="M193 510c-12,-23 -41,-31 -65,-36 -16,-3 -55,-8 -58,17 -3,19 24,27 38,30 25,4 54,15 79,7 8,-3 10,-12 6,-18z"/>
   <path fill="#C0392D" fill-rule="nonzero" d="M194 557c-23,-11 -51,-6 -76,-2 -23,3 -48,5 -55,30 -4,11 5,20 14,23 19,7 44,-4 62,-9 20,-7 43,-13 57,-29 4,-4 3,-11 -2,-13z"/>
   <path fill="#C0392D" fill-rule="nonzero" d="M219 608c-26,-13 -51,5 -72,20 -23,17 -49,33 -60,59 -2,5 1,11 6,12 28,9 51,-9 72,-26 20,-17 47,-32 58,-56 1,-3 -1,-8 -4,-9z"/>
   <path fill="#C0392D" fill-rule="nonzero" d="M874 796c-16,-19 -51,-28 -75,-34 -23,-7 -54,-14 -76,0 -6,3 -7,11 -2,15 21,17 53,21 77,30 23,10 47,26 71,14 9,-5 12,-17 5,-25z"/>
   <path fill="#C0392D" fill-rule="nonzero" d="M829 864c-36,-28 -75,-41 -118,-52 -15,-3 -25,18 -11,25 36,20 70,45 105,67 26,16 47,-23 24,-40z"/>
   <path fill="#C0392D" fill-rule="nonzero" d="M677 837c-9,-13 -29,0 -23,14 8,23 18,42 29,63 10,18 14,38 24,56 5,10 21,15 29,3 33,-53 -33,-98 -59,-136z"/>
   <path fill="#2E3F50" fill-rule="nonzero" d="M507 396c-17,-3 -33,12 -43,23 -13,15 -22,32 -25,52 0,5 7,9 10,4 1,-2 2,-4 4,-7 4,9 10,9 17,5l0 1c-3,11 12,17 17,6l0 0 0 1c1,6 5,9 10,10 0,1 0,2 0,3 0,8 10,10 14,3 10,-19 19,-40 18,-62 0,-15 -5,-36 -22,-39z"/>
   <path fill="#2E3F50" fill-rule="nonzero" d="M701 507c-15,-9 -35,1 -48,8 -18,10 -32,23 -41,41 -2,5 4,10 8,7 2,-2 4,-3 6,-5 1,10 7,12 15,10l-1 1c-6,9 6,20 14,12l0 -1 0 1c-1,6 2,11 6,13 0,1 0,2 -1,3 -2,7 6,13 12,7 16,-15 31,-32 38,-53 5,-14 7,-35 -8,-44z"/>
   <path fill="#EB6053" fill-rule="nonzero" d="M624 528c-54,-42 -116,-71 -182,-89 -79,-21 -218,-38 -263,55 -23,45 -3,100 17,142 54,115 163,193 279,236 93,35 257,64 290,-66 27,-106 -62,-217 -141,-278z"/>
   <path fill="white" fill-rule="nonzero" d="M494 408l-1 0c-7,5 -5,16 1,20l0 1c9,5 21,-1 21,-12 -1,-11 -13,-15 -21,-9z"/>
   <path fill="white" fill-rule="nonzero" d="M689 514c-9,0 -17,9 -16,18 1,9 8,16 17,16 9,0 17,-9 16,-18 -1,-9 -8,-16 -17,-16z"/>
   <path fill="#C0392D" fill-rule="nonzero" d="M292 489c-1,-10 -11,-17 -20,-17 -9,0 -19,8 -19,17l0 2c-1,12 7,22 20,22 12,0 20,-11 19,-23l0 -1z"/>
   <path fill="#C0392D" fill-rule="nonzero" d="M336 461l-1 0c-5,1 -10,6 -10,11 0,5 3,12 8,13l1 0c8,2 16,-2 17,-11 1,-8 -7,-15 -15,-13z"/>
   <path fill="#C0392D" fill-rule="nonzero" d="M404 474c-14,0 -17,22 -3,22 14,0 17,-22 3,-22z"/>
   <path fill="#C0392D" fill-rule="nonzero" d="M547 786l-1 0c-10,-1 -18,7 -18,17 0,10 8,17 18,16l1 0c19,-2 19,-30 0,-33z"/>
   <path fill="#C0392D" fill-rule="nonzero" d="M635 758c-8,0 -15,8 -15,16 0,8 7,15 15,15 9,0 16,-7 16,-15 -1,-9 -7,-16 -16,-16z"/>
   <path fill="#C0392D" fill-rule="nonzero" d="M626 818c-9,0 -17,7 -17,16 1,9 8,16 17,16 8,0 17,-7 16,-16 0,-9 -7,-16 -16,-16z"/>
   <path fill="#C0392D" fill-rule="nonzero" d="M708 794c-9,0 -17,7 -17,16 1,9 7,16 16,16 9,0 17,-7 17,-16 -1,-9 -7,-16 -16,-16z"/>
   <path fill="#C0392D" fill-rule="nonzero" d="M571 524c-8,0 -14,6 -15,14 0,7 6,14 14,14 8,0 14,-6 15,-13 0,-8 -6,-15 -14,-15z"/>
   <path fill="#C0392D" fill-rule="nonzero" d="M665 612c-17,0 -18,26 -1,26 17,0 18,-26 1,-26z"/>
   <path fill="#C0392D" fill-rule="nonzero" d="M355 689c-9,1 -13,10 -10,18l1 1c1,5 7,7 11,7 5,-1 9,-4 11,-8l0 -1c4,-9 -4,-17 -13,-17z"/>
   <path fill="#EB6053" fill-rule="nonzero" d="M944 471c-2,-4 -8,-7 -12,-5 -7,2 -10,6 -13,12 -4,8 -1,17 7,20 7,3 16,-1 19,-9 2,-6 3,-12 -1,-18z"/>
   <polygon fill="#EB6053" fill-rule="nonzero" points="992,319 992,317 992,317 "/>
   <path fill="#EB6053" fill-rule="nonzero" d="M782 332c-4,-4 -10,-3 -14,0 -5,4 -6,8 -6,15 0,7 4,13 11,14 7,1 15,-4 15,-11 0,-8 0,-13 -6,-18z"/>
   <path fill="#EB6053" fill-rule="nonzero" d="M811 260c-18,0 -17,27 0,27 18,0 17,-27 0,-27z"/>
   <path fill="#EB6053" fill-rule="nonzero" d="M798 413c-15,0 -18,24 -3,24 15,0 18,-24 3,-24z"/>
   <path fill="#CCB680" fill-rule="nonzero" d="M217 675c-4,-6 -7,-13 -11,-19l0 0c4,6 7,13 11,19 0,0 0,0 0,0z"/>
   <path fill="#B99247" fill-rule="nonzero" d="M622 902c-51,0 -106,-15 -147,-30 -103,-38 -199,-104 -258,-197 0,0 0,0 0,0 59,93 155,159 258,197 41,15 96,30 147,30 18,0 35,-2 52,-6l0 0c-17,4 -34,6 -52,6zm136 -76l0 0c3,-6 5,-13 7,-20 0,0 0,0 0,0 0,0 0,0 0,0 -2,7 -4,14 -7,20zm7 -20c0,-1 0,-1 0,-1 0,0 0,0 0,1zm0 -1c0,0 0,0 0,0 0,0 0,0 0,0zm0 -1l0 0zm-559 -148c-2,-4 -4,-7 -5,-11 0,0 0,0 0,0 1,4 3,7 5,11l0 0z"/>
   <path fill="#A93328" fill-rule="nonzero" d="M201 645c-2,-3 -3,-6 -5,-9 -2,-3 -3,-7 -5,-11 2,4 3,8 5,11 2,3 3,6 5,9 0,0 0,0 0,0z"/>
   <path fill="#CE554B" fill-rule="nonzero" d="M622 902c-51,0 -106,-15 -147,-30 -103,-38 -199,-104 -258,-197 -4,-6 -7,-13 -11,-19 -2,-4 -4,-7 -5,-11 -2,-3 -3,-6 -5,-9 -2,-3 -3,-7 -5,-11 -11,-25 -21,-54 -22,-82 2,6 5,11 7,16 54,115 163,193 279,236 41,15 96,30 147,30 4,0 7,0 11,-1 -3,3 -4,7 -4,10 1,9 8,16 17,16 8,0 17,-7 16,-16 0,-5 -2,-9 -5,-12 20,-3 39,-9 56,-19 -1,2 -2,4 -2,7 1,9 7,16 16,16 9,0 17,-7 17,-16 -1,-9 -7,-16 -16,-16 -1,0 -1,0 -2,0 18,-15 32,-36 39,-65 4,-16 6,-33 5,-50 18,40 26,83 15,125l0 0c0,1 0,1 0,1 0,0 0,0 0,0 0,0 0,0 0,0 0,0 0,0 0,1 0,0 0,0 0,0 0,0 0,0 0,0 -2,7 -4,14 -7,20 -5,13 -12,24 -21,34 -7,8 -15,14 -24,20 -12,7 -25,12 -39,16 -17,4 -34,6 -52,6z"/>
   <path fill="#A93328" fill-rule="nonzero" d="M626 850c-9,0 -16,-7 -17,-16 0,-3 1,-7 4,-10 8,0 16,-1 24,-2 3,3 5,7 5,12 1,9 -8,16 -16,16z"/>
   <path fill="#A93328" fill-rule="nonzero" d="M707 826c-9,0 -15,-7 -16,-16 0,-3 1,-5 2,-7 4,-3 9,-6 13,-9 1,0 1,0 2,0 9,0 15,7 16,16 0,9 -8,16 -17,16z"/>
  </g>
 </g>
</svg>
