<?xml version="1.0" encoding="UTF-8"?>
<!DOCTYPE svg PUBLIC "-//W3C//DTD SVG 1.1//EN" "http://www.w3.org/Graphics/SVG/1.1/DTD/svg11.dtd">
<!-- Creator: CorelDRAW X7 -->
<svg xmlns="http://www.w3.org/2000/svg" xml:space="preserve" width="1398px" height="929px" version="1.1" shape-rendering="geometricPrecision" text-rendering="geometricPrecision" image-rendering="optimizeQuality" fill-rule="evenodd" clip-rule="evenodd"
viewBox="0 0 1495 993"
 xmlns:xlink="http://www.w3.org/1999/xlink">
 <g id="Слой_x0020_1">
  <metadata id="CorelCorpID_0Corel-Layer"/>
  <g id="_3410506000">
   <polygon fill="#CF9E47" fill-rule="nonzero" points="1495,153 1495,152 "/>
   <path fill="#CF9E47" fill-rule="nonzero" d="M469 431c-31,0 -32,-49 -1,-49 32,0 33,49 1,49z"/>
   <path fill="#D3A54F" fill-rule="nonzero" d="M427 993c-40,0 -79,-9 -113,-30 -11,-7 -20,-15 -30,-23 -23,-18 -42,-41 -62,-64 -17,-20 -34,-45 -55,-64 -4,-3 -9,-6 -13,-9 -25,-13 -54,-7 -78,-23 -4,-3 -8,-7 -12,-10 -17,-12 -29,-30 -31,-51 -8,-53 41,-90 79,-117 47,-32 97,-60 149,-83 159,62 319,116 479,137 4,18 7,37 6,57 -3,67 -32,133 -80,179 -60,57 -152,101 -239,101zm666 -313c-4,0 -9,0 -13,0 -34,-2 -65,-10 -94,-22 105,-13 210,-46 317,-105 32,-17 62,-36 91,-58 -3,8 -7,15 -12,23 -58,94 -177,162 -289,162zm-132 -465c50,-35 102,-66 159,-90 33,-14 68,-26 104,-35 -29,28 -59,53 -91,75 -54,30 -112,45 -172,50z"/>
   <path fill="#CF9E47" fill-rule="nonzero" d="M986 658c-26,-11 -50,-26 -73,-43 -10,-7 -18,-15 -27,-22 -18,-15 -36,-31 -52,-48 -1,-1 -2,-2 -3,-3 -17,-13 -39,-25 -59,-25 -11,0 -21,4 -29,14 -14,16 -14,42 -12,62 1,22 6,42 9,63 -160,-21 -320,-75 -479,-137 15,-6 30,-12 45,-18 72,-28 148,-49 224,-63 67,-12 137,-20 198,-53 49,-27 92,-64 136,-99 17,2 35,3 53,3 68,0 134,-12 198,-40 86,-39 151,-103 209,-175 16,1 30,9 41,20 20,14 33,38 35,64 1,31 -26,49 -22,81 3,37 22,72 27,108 8,48 8,102 -11,148 -29,22 -59,41 -91,58 -107,59 -212,92 -317,105zm-281 -123c-24,0 -22,36 1,36 24,0 22,-36 -1,-36zm428 -370c32,-22 62,-47 91,-75 4,-1 8,-2 11,-3 -4,5 -8,9 -13,13 -28,27 -58,49 -89,65z"/>
   <path fill="#DBB568" fill-rule="nonzero" d="M917 289c-18,0 -36,-1 -53,-3 5,-4 11,-8 16,-12 27,-20 54,-40 81,-59 60,-5 118,-20 172,-50 31,-16 61,-38 89,-65 5,-4 9,-8 13,-13 26,-6 52,-10 78,-13 2,0 4,0 6,0 2,0 3,0 5,0 -58,72 -123,136 -209,175 -64,28 -130,40 -198,40z"/>
   <path fill="#BC7F28" fill-rule="nonzero" d="M706 571c-23,0 -25,-36 -1,-36 23,0 25,36 1,36z"/>
   <path fill="#C0392D" fill-rule="nonzero" d="M1374 273c-6,-36 -25,-71 -28,-107 -3,-33 24,-51 22,-82 -3,-42 -34,-78 -75,-74 -66,6 -133,25 -194,51 -87,37 -164,92 -239,148 -50,38 -97,82 -152,112 -61,33 -132,40 -199,53 -76,14 -151,35 -223,63 -68,26 -134,60 -194,101 -39,26 -87,64 -80,117 3,20 15,39 32,51 24,16 53,10 78,23 32,17 56,55 80,83 24,28 48,57 80,77 110,68 265,12 352,-71 49,-46 78,-112 80,-179 2,-41 -12,-79 -15,-120 -1,-20 -2,-46 12,-62 28,-33 80,2 103,24 21,21 43,41 67,60 50,37 104,62 167,65 115,6 242,-64 303,-162 30,-50 31,-114 23,-171z"/>
   <path fill="#EB6053" fill-rule="nonzero" d="M1362 263c-5,-36 -24,-71 -28,-107 -3,-32 24,-50 22,-82 -2,-41 -33,-78 -75,-74 -66,7 -132,26 -193,51 -87,37 -165,92 -240,149 -50,37 -96,81 -152,111 -60,33 -131,41 -198,53 -76,14 -151,35 -223,63 -69,26 -134,60 -194,101 -39,27 -88,64 -80,117 3,21 14,39 32,51 24,16 53,10 77,23 32,18 57,56 80,83 25,28 48,57 81,77 109,68 265,12 351,-70 49,-47 78,-112 81,-180 1,-41 -13,-79 -15,-119 -2,-21 -2,-46 12,-63 27,-32 80,2 102,24 21,22 44,42 68,60 49,38 104,62 167,65 115,6 242,-64 302,-162 31,-50 32,-114 23,-171z"/>
   <path fill="#2E3F50" fill-rule="nonzero" d="M1271 134c-87,-118 -265,2 -350,61 -54,37 -115,94 -106,166 5,46 42,89 74,119 38,36 93,65 146,74 99,18 209,-55 264,-135 59,-87 32,-205 -28,-285z"/>
   <path fill="#2E3F50" fill-rule="nonzero" d="M367 867c97,3 221,-43 265,-134 24,-48 33,-109 26,-162 -6,-43 -19,-98 -52,-130 -53,-49 -136,-33 -198,-12 -97,35 -299,107 -255,247 30,96 109,187 214,191z"/>
   <path fill="#2A728B" fill-rule="nonzero" d="M1111 299c3,-67 7,-134 11,-201 1,-2 1,-5 1,-8 -11,3 -22,6 -33,10l0 3c-4,67 -7,134 -10,201 -4,84 -7,169 -9,253 11,0 21,-1 32,-3 3,-80 4,-180 8,-255z"/>
   <path fill="#2A728B" fill-rule="nonzero" d="M943 180c-3,51 -5,103 -7,154 -3,59 -5,118 -7,177 24,16 51,28 78,36 7,-66 13,-133 18,-200 4,-61 8,-123 12,-185 0,-13 2,-26 3,-40 -36,18 -70,39 -97,58z"/>
   <path fill="#2A728B" fill-rule="nonzero" d="M455 628c3,-67 7,-134 11,-201 1,-4 1,-9 2,-14 -12,2 -23,5 -34,8 0,4 0,7 0,11 -4,67 -7,134 -10,201 -4,77 -6,154 -8,231 9,-1 18,-2 27,-4 4,-77 8,-154 12,-232z"/>
   <path fill="#2A728B" fill-rule="nonzero" d="M288 478c-3,62 -6,123 -8,185 -3,58 -5,117 -7,175 24,15 51,24 79,28 7,-63 12,-126 17,-190 4,-61 8,-123 12,-185 1,-17 3,-35 4,-54 -29,11 -63,24 -97,41z"/>
  </g>
 </g>
</svg>
