<svg xmlns="http://www.w3.org/2000/svg" width="210mm" height="297mm" shape-rendering="geometricPrecision" text-rendering="geometricPrecision" image-rendering="optimizeQuality" fill-rule="evenodd" clip-rule="evenodd" viewBox="0 0 21000 29700"><g fill-rule="nonzero"><path fill="#DAD9DA" d="M13112 20338c0 291-991 528-2214 528-1222 0-2213-237-2213-528 0-292 991-528 2213-528 1223 0 2214 236 2214 528z"/><path fill="#4C443A" d="M13215 12770c-14 56-124 59-133-4v-6c-3-83 151-60 133 10zm-768-706c0 26-14 53-37 64 39-2 74 31 81 69 7 39-11 79-40 104-30 26-69 38-107 40-161 12-298-142-240-302 22-62 80-109 145-119 64-9 134 19 173 72 15 21 26 46 25 72zm1659-2185c-38 7-75 15-111 25-420 112-788 366-1125 641-89 72-177 146-264 221-187 160-375 320-574 464-60 44-121 85-184 125-98 62-214 120-325 113-29-1-59-8-88-20-135-56-85-215-5-323-74 33-166 1-136-70 406-48 691-541 527-917-48 366-400 626-759 713-358 87-734 46-1103 57-430 13-855 106-1255 265-140 56-276 120-409 191-449 242-853 569-1180 959-7 8-13 14-19 22-118 144-226 297-322 457-38 62-74 126-107 190-174 332-143 406 52 723 128 208 258 415 391 622 234 368 474 733 717 1094 107 158 1148 1633 1148 1633 172-246 332-502 501-750 173-253 355-497 570-714 116-117 245-209 385-283 372-199 813-273 1236-379-117-21-208-98-221-163-21-106 119-195 226-180 108 15 192 117 200 225 61-124 143-236 242-332 46-46 96-88 149-127 124-90 264-158 412-198 72-20 146-33 221-39 329-26 655 78 983 99 76 5 151 6 226 0 667-55 1215-733 1130-1397-236 550-985 806-1508 516 835-215 1443-1096 1347-1954-89 277-189 570-418 748-228 179-627 167-752-95-220 87-482-105-513-340-33-234 123-465 330-578 207-114 455-128 690-104-24-9-46-21-66-36-140-97-199-300-145-466 59-181 223-312 404-372 10-3 19-6 30-9 193-55 398-40 595-9-301-258-730-324-1123-248z"/><path fill="#423B33" d="M11784 14070c-629-628-1536-969-2425-910-292 19-581 82-856 182-631 231-1341 25-1721-529l-8-11c-38 62-74 126-107 190-174 332-143 406 52 723 128 208 258 415 391 622 234 368 474 733 717 1094 107 158 1148 1633 1148 1633 348-497 645-1034 1071-1464 116-117 245-209 385-283 372-199 813-273 1236-379-117-21-208-98-221-163-21-106 119-195 226-180 108 15 192 117 200 225 61-124 143-236 242-332-90-152-205-293-330-418z"/><path fill="#A4623B" d="M11235 20035l-632 417-1778-2747-261-404-2475-3824-75-117c-32-50-47-105-48-160-2-100 46-198 135-257 70-47 152-60 227-45 68 13 131 50 176 107 6 7 11 14 16 21l77 114 2509 3730 1 1 2128 3164z"/><path fill="#975637" d="M10857 20285c-237-452-487-896-783-1311-347-485-760-932-1249-1269l-205-317-56-87-533-823-1942-3001-75-117c-32-50-47-105-48-160 81-73 174-130 279-162 86-27 173-37 259-33 6 7 11 14 16 21l77 114 2067 3073 442 657 1 1 392 583 1736 2581-378 250z"/><path fill="#6B442F" d="M9499 17454c-54-20-107-38-161-54-234-70-492-97-718-12l-56-87-533-823c49-72 112-134 187-180 133-81 290-105 446-85l442 657 1 1 392 583zM11239 20042c51 76-50 231-224 346-175 115-357 147-408 71-50-77 51-232 225-347 175-115 357-147 407-70z"/><path fill="#3B3630" d="M9111 16867h1c-339 2-501 321-548 434l-2475-3825c188-271 513-340 513-340l2509 3731z"/><path fill="#FEFEFE" d="M10302 13224c-42 42-95 77-152 86-86 14-160-33-212-89-61-64-127-147-129-237s9-181 32-268c8-27 17-55 39-73 26-21 63-21 96-21 105 2 190 3 280 63 82 55 141 142 152 242s-26 214-106 297zm24 473c-10 14-29 18-47 18-43 2-86-7-126-24-18-8-42-19-56-33-7-8-16-19-15-30 1-1 1-2 1-3h3c14 2 29 3 43 5 12 1 24 0 37 0 31 1 63-1 93 7s59 30 67 60zm-295 9c9 18 11 44 13 63 4 44-1 87-16 128-6 16-15 33-32 38-27-16-37-50-36-82 2-31 13-61 23-91 3-11 8-22 11-34 3-15 6-29 9-43 0-1 0-2 1-2 1-1 2-1 3 0 11 2 19 14 24 23zm-361-49c-26 51-76 91-129 117-104 50-224 50-316 8-91-43-155-125-181-220-29-105-4-186 27-286 10-32 22-66 51-85 23-15 53-15 81-13 90 4 180 23 265 53 84 30 143 119 184 196 37 68 58 152 18 230zm1211 62c-24-14-52-20-79-26-98-22-198-40-289-81 177-114 231-355 235-553 3-166-52-326-149-460-312-433-986-548-1464-202s-580 1021-268 1454c100 138 241 242 405 290 74 22 152 29 227 44 86 17 181-17 265-33 42 151 50 311 26 466-3 18-6 39 5 54 7 9 17 15 27 19 66 28 141 30 209 10 62-19 155-56 190-112 24-37 22-86 7-127-16-42-43-77-71-112 53 58 113 120 192 129 54 6 108-16 152-49 51-40 90-97 105-160 14-64 3-133-34-187 46 45 92 89 138 133 48-37 102-56 147-95 75-67 110-154 105-255-3-55-26-111-72-142-3-2-6-3-9-5z"/><path fill="#FEFEFE" d="M8146 13341c-25-3-50-6-74-1-24 6-48 22-55 46-8 28 7 57 8 86 1 28-12 55-28 78-68 95-204 134-312 90-108-45-178-168-159-283 5-36 20-73 50-92 32-20 69-15 104-21 40-7 59-25 91-51-56-10-97-63-107-119s5-114 26-167c15-36 35-74 70-92 43-22 95-7 141 9 37 12 74 24 105 46s56 56 60 94c2 29-9 57-12 86-4 28 0 62 24 78 18 13 41 12 63 11 89-5 178-5 266-8 44-2 87-4 130-8 28-4 67-25 93-8 28 17 10 46 5 70-3 14-5 27-7 41-3 30-4 60-3 91 2 27 14 59 11 85-5 55-105 12-135 4-27-7-54-17-82-22-90-17-182-31-273-43zM11286 13127c24 4 49 7 73 2 25-5 48-21 56-44 9-28-6-57-6-87 0-28 14-54 31-77 70-93 206-129 313-82s174 172 153 287c-7 35-22 71-53 90-32 19-69 14-104 19-40 5-60 24-93 49 56 10 96 65 104 121 9 56-7 114-30 166-15 36-36 74-71 91-44 21-96 4-141-12-36-13-73-27-104-50-31-22-55-57-57-95-2-29 9-57 14-85 4-28 1-62-23-79-17-13-41-13-63-12-92 2-185 0-277 1-45 1-90 4-135 7-23 2-76 12-90-13-12-20 14-71 17-94 5-30 7-60 6-91-1-26-12-59-9-85 6-53 104-10 135-1 27 8 53 18 81 24 90 19 181 36 273 50zM9166 14668c-11 22-22 45-25 70s5 52 25 66c23 17 56 13 84 21 27 9 48 30 64 53 67 96 59 237-19 324-77 87-216 112-319 57-32-17-62-43-70-79s8-69 14-104c7-40-4-65-18-103-27 50-91 70-147 62-57-10-106-43-149-80-29-26-59-57-64-96-6-49 25-93 55-131 23-30 47-61 79-83 31-22 71-35 108-26 28 8 51 27 77 40 25 13 58 20 82 3 17-12 25-35 31-56 41-139 96-281 125-423 4-16 21-45 38-49 19-4 29 12 44 21 12 7 24 14 36 20 29 14 59 26 90 34 24 7 64 6 85 19 41 27-30 101-47 126-16 24-34 46-48 70-46 80-90 162-131 244zM10288 11736c11-22 22-45 26-69 3-25-5-52-24-67-24-17-56-13-84-22-27-9-47-31-63-54-66-97-55-238 23-324 79-86 219-108 321-51 31 17 61 44 68 79 8 36-9 70-16 104-7 40 4 65 17 104 28-50 92-69 148-60 56 10 105 45 148 83 29 26 58 58 62 97 6 48-26 92-57 129-24 30-48 61-80 82-31 22-71 34-108 24-28-8-51-27-76-41-26-13-59-21-83-4-17 12-25 34-32 55-28 91-61 181-90 272-16 51-20 106-43 155-8 19-20 47-44 45-22-2-53-34-72-44-32-17-65-30-99-39-22-6-67-8-76-35-8-25 29-69 42-89 18-29 38-58 56-88 48-79 93-160 136-242z"/></g></svg>