<?xml version="1.0" encoding="UTF-8"?>
<!DOCTYPE svg PUBLIC "-//W3C//DTD SVG 1.1//EN" "http://www.w3.org/Graphics/SVG/1.1/DTD/svg11.dtd">
<!-- Creator: CorelDRAW X7 -->
<svg xmlns="http://www.w3.org/2000/svg" xml:space="preserve" width="1199px" height="1015px" version="1.1" shape-rendering="geometricPrecision" text-rendering="geometricPrecision" image-rendering="optimizeQuality" fill-rule="evenodd" clip-rule="evenodd"
viewBox="0 0 1252 1060"
 xmlns:xlink="http://www.w3.org/1999/xlink">
 <g id="Слой_x0020_1">
  <metadata id="CorelCorpID_0Corel-Layer"/>
  <g id="_957718816">
   <path fill="#7F7B7B" fill-rule="nonzero" d="M1244 275c-8,-34 -18,-67 -33,-95 -7,-15 -16,-27 -24,-40 -8,-13 -17,-24 -26,-35 -10,-10 -18,-20 -28,-28 -9,-9 -18,-17 -27,-24 -9,-6 -17,-12 -25,-18 -8,-5 -16,-9 -23,-13 -4,-2 -7,-4 -10,-6 -3,-2 -6,-3 -9,-4 -6,-3 -11,-5 -15,-7l0 0c-7,-3 -16,-5 -24,-5l-551 0c-11,0 -19,9 -19,20 0,11 8,19 19,19l535 0c8,0 15,2 22,6l0 0c3,2 8,4 12,6 3,2 5,3 8,4 3,2 6,4 8,6 6,4 13,8 20,13 6,5 13,11 21,17 7,7 14,14 22,22 8,8 14,17 22,26 7,10 14,20 20,31 6,12 13,23 18,35 11,25 18,53 23,82 4,29 3,59 0,89 -2,7 -3,15 -5,22 0,4 -1,8 -2,11l-3 10 -3 11c-1,3 -3,8 -5,11l-9 24c1,-2 0,-2 0,-1 0,0 0,0 0,0l0 0 0 1 -1 1 -1 2 -3 6 -5 10c-4,7 -8,13 -12,19 -5,6 -8,13 -13,18 -5,6 -10,12 -14,18 -21,21 -43,41 -67,55 -24,14 -48,26 -73,33 -12,4 -24,6 -36,8 -12,2 -23,3 -34,4 -4,0 -9,0 -13,0 -6,0 -12,0 -18,0 -10,-1 -20,-1 -29,-3 -8,-1 -16,-3 -24,-4 -6,-2 -13,-4 -18,-6 -3,-1 -5,-1 -8,-2 -3,-1 -6,-2 -8,-3 -6,-3 -10,-4 -14,-6 -8,-3 -12,-5 -12,-5l-39 108c0,0 4,2 12,4 3,2 8,3 14,5 2,1 5,2 9,3 4,1 8,2 13,3 9,2 19,5 30,7 10,1 21,2 33,4 12,1 25,1 39,1 13,0 28,-2 42,-3 15,-2 30,-4 46,-8 15,-4 31,-8 47,-14 31,-11 63,-29 93,-49 29,-21 56,-48 80,-78 6,-7 11,-15 17,-23 6,-7 10,-16 15,-24 5,-8 10,-17 13,-26l6 -13 7 -15 8 -24c1,-4 3,-8 4,-13l3 -14 3 -15c2,-5 3,-10 3,-14 1,-10 2,-19 3,-28 3,-37 1,-74 -7,-109z"/>
   <polygon fill="#8B7D2E" fill-rule="nonzero" points="147,626 225,535 102,431 25,523 "/>
   <path fill="#A5A02C" fill-rule="nonzero" d="M55 543l72 -85c12,-13 10,-33 -3,-44l0 0c-13,-12 -33,-10 -44,3l-73 85c-11,14 -9,33 4,45l0 0c13,11 33,9 44,-4z"/>
   <path fill="#B0CB1F" fill-rule="nonzero" d="M1135 891c0,45 -5,83 -16,122 -7,28 -32,47 -61,47l-946 0c-28,0 -53,-19 -61,-47 -10,-39 -15,-77 -15,-122 0,-205 112,-351 278,-524l543 0c166,173 278,319 278,524z"/>
   <path fill="#FFFBF0" fill-rule="nonzero" d="M753 367l-122 0c-4,-4 -7,-8 -11,-12l122 0c4,4 8,8 11,12z"/>
   <path fill="#DBE285" fill-rule="nonzero" d="M882 871c-37,0 -65,-33 -59,-70 3,-17 4,-35 4,-55 0,-148 -79,-255 -196,-379l122 0c118,124 196,231 196,379 0,29 -3,54 -9,79 -6,28 -30,46 -58,46z"/>
   <path fill="#A5A02C" fill-rule="nonzero" d="M410 243l351 0c61,0 111,50 111,111l-573 0c0,-61 50,-111 111,-111z"/>
   <path fill="#C6CA1E" fill-rule="nonzero" d="M561 250l49 0 0 -30c0,-13 -11,-25 -25,-25 -13,0 -24,12 -24,25l0 30z"/>
   <path fill="#C6CA1E" fill-rule="nonzero" d="M292 367l587 0c10,0 19,-9 19,-19 0,-10 -9,-19 -19,-19l-587 0c-10,0 -19,9 -19,19 0,10 9,19 19,19z"/>
   <path fill="#8B7D2E" fill-rule="nonzero" d="M43 976c3,13 5,25 8,37 8,28 33,47 61,47l946 0c29,0 54,-19 61,-47 4,-12 6,-24 9,-37l-1085 0z"/>
  </g>
 </g>
</svg>
