<?xml version="1.0" encoding="UTF-8"?>
<!DOCTYPE svg PUBLIC "-//W3C//DTD SVG 1.1//EN" "http://www.w3.org/Graphics/SVG/1.1/DTD/svg11.dtd">
<!-- Creator: CorelDRAW X7 -->
<svg xmlns="http://www.w3.org/2000/svg" xml:space="preserve" width="1186px" height="993px" version="1.1" shape-rendering="geometricPrecision" text-rendering="geometricPrecision" image-rendering="optimizeQuality" fill-rule="evenodd" clip-rule="evenodd"
viewBox="0 0 1170 980"
 xmlns:xlink="http://www.w3.org/1999/xlink">
 <g id="Слой_x0020_1">
  <metadata id="CorelCorpID_0Corel-Layer"/>
  <g id="_957720160">
   <path fill="#B0CB1F" fill-rule="nonzero" d="M1052 382c21,0 39,7 53,19 14,11 22,27 22,45 0,17 -8,33 -22,45 -14,11 -32,18 -53,18l0 37c33,0 62,-11 84,-29 21,-18 34,-44 34,-71 0,-28 -13,-53 -34,-72 -22,-18 -51,-29 -84,-29l0 37z"/>
   <path fill="#B0CB1F" fill-rule="nonzero" d="M118 509c-20,0 -39,-7 -53,-18 -13,-12 -21,-28 -22,-45 1,-18 9,-34 22,-45 14,-12 33,-19 53,-19l0 -37c-32,0 -62,11 -83,29 -22,19 -35,44 -35,72 0,27 13,53 35,71 21,18 51,29 83,29l0 -37z"/>
   <polygon fill="#8B7D2E" fill-rule="nonzero" points="263,980 908,980 908,801 263,801 "/>
   <path fill="#B0CB1F" fill-rule="nonzero" d="M929 937l-688 0c-76,0 -138,-53 -138,-118l0 -638 964 0 0 638c0,65 -62,118 -138,118z"/>
   <path fill="#B7B524" fill-rule="nonzero" d="M882 181l0 638c0,65 -61,118 -137,118l119 0c76,0 138,-53 138,-118l0 -638 -120 0z"/>
   <path fill="#A5A02C" fill-rule="nonzero" d="M1085 156c-151,-62 -321,-98 -500,-98 -179,0 -349,36 -500,98l1000 0z"/>
   <path fill="#C6CA1E" fill-rule="nonzero" d="M1079 199l-988 0c-17,0 -31,-12 -31,-27 0,-14 14,-26 31,-26l988 0c18,0 32,12 32,26 0,15 -14,27 -32,27z"/>
   <path fill="#B0CB1F" fill-rule="nonzero" d="M627 78l-84 0 0 -42c0,-20 19,-36 42,-36l0 0c23,0 42,16 42,36l0 42z"/>
  </g>
 </g>
</svg>
