<svg xmlns="http://www.w3.org/2000/svg" width="210mm" height="297mm" shape-rendering="geometricPrecision" text-rendering="geometricPrecision" image-rendering="optimizeQuality" fill-rule="evenodd" clip-rule="evenodd" viewBox="0 0 21000 29700"><defs><linearGradient id="a" gradientUnits="userSpaceOnUse" x1="7764.36" y1="17948.7" x2="13423.8" y2="12289.2"><stop offset="0" stop-color="#C9AA72"/><stop offset="1" stop-color="#E3C084"/></linearGradient></defs><path fill="#C9AA72" fill-rule="nonzero" d="M8793 14569l-130 130-643-644 130-129zM11321 16743l-484 484-2351-2351 484-484zM12012 16053l-484 483-2351-2351 483-483zM12702 15362l-484 484-2351-2351 484-484z"/><path fill="#C9AA72" fill-rule="nonzero" d="M12023 11799l-1963 1963 316 315 1957-1957c2040-2231 3609-1089 3609-1089l-1181-1181-473-473-1182-1181s1041 1644-1083 3603z"/><path fill="url(#a)" d="M7962 16491c-343 343-343 901 0 1244l16 16c343 343 901 343 1244 0l4004-4004c343-343 343-901 0-1244l-15-16c-344-343-902-343-1245 0l-4004 4004zm5579-2429l-4004 4004c-517 517-1358 517-1874 0l-16-15c-517-517-517-1358 0-1875l4004-4004c517-517 1358-517 1875 0l15 15c517 517 517 1358 0 1875z"/><path fill="#E3C086" fill-rule="nonzero" d="M10113 14340l-4359 4358-315-315 4359-4358zM16075 11003c45 45 45 117 0 162-44 44-116 44-161 0l-2976-2976c-45-45-45-117 0-162 44-44 117-44 161 0l2976 2976zM11383 16673c40 40 40 105 0 145l-470 470c-41 41-106 41-146 0-40-40-40-105 0-145l470-470c41-40 106-40 146 0zM12073 15983c40 40 40 105 0 145l-470 470c-40 40-105 40-145 0s-40-105 0-145l470-470c40-40 105-40 145 0zM12764 15292c40 40 40 105 0 145l-471 471c-40 40-105 40-145 0-40-41-40-106 0-146l470-470c41-40 105-40 146 0zM9036 14326c40 40 40 105 0 145l-470 471c-40 40-105 40-145 0-41-40-41-106 0-146l470-470c40-40 105-40 145 0zM8327 13749c40 40 47 98 15 129l-369 370c-32 32-90 25-130-15-40-41-47-99-16-130l370-370c32-31 90-24 130 16z"/><path fill="#C9AA72" fill-rule="nonzero" d="M9483 13879l-129 129-644-643 130-130z"/><path fill="#E3C086" fill-rule="nonzero" d="M9017 13058c40 40 47 99 16 130l-370 370c-31 31-89 24-130-16-40-40-47-98-15-130l369-369c32-32 90-25 130 15z"/><path fill="#C9AA72" fill-rule="nonzero" d="M10174 13188l-130 130-643-643 130-130z"/><path fill="#E3C086" fill-rule="nonzero" d="M9708 12368c40 40 47 98 15 130l-369 369c-32 32-90 25-130-15-40-41-47-99-16-130l370-370c31-31 89-24 130 16zM9726 13636c40 40 40 105 0 145l-470 470c-40 40-105 40-145 0s-40-105 0-145l470-470c40-40 105-40 145 0zM10417 12945c40 40 40 106 0 146l-471 470c-40 40-105 40-145 0s-40-105 0-145l471-471c40-40 105-40 145 0z"/><path fill="#C9AA72" fill-rule="nonzero" d="M5931 18639l-190 191-433-434 190-190z"/><path fill="#E3C086" fill-rule="nonzero" d="M5940 18907l-312 312-709-709 312-312z"/></svg>