<?xml version="1.0" encoding="UTF-8"?>
<!DOCTYPE svg PUBLIC "-//W3C//DTD SVG 1.1//EN" "http://www.w3.org/Graphics/SVG/1.1/DTD/svg11.dtd">
<!-- Creator: CorelDRAW X7 -->
<svg xmlns="http://www.w3.org/2000/svg" xml:space="preserve" width="1234px" height="770px" version="1.1" shape-rendering="geometricPrecision" text-rendering="geometricPrecision" image-rendering="optimizeQuality" fill-rule="evenodd" clip-rule="evenodd"
viewBox="0 0 1512 943"
 xmlns:xlink="http://www.w3.org/1999/xlink">
 <g id="Слой_x0020_1">
  <metadata id="CorelCorpID_0Corel-Layer"/>
  <g id="_957688992">
   <path fill="#E03432" fill-rule="nonzero" d="M443 417l626 0c127,-65 213,-196 213,-348l-1052 0c0,152 86,283 213,348z"/>
   <path fill="#E6403D" fill-rule="nonzero" d="M1098 312l-99 0c51,-65 83,-146 84,-235l100 0c-2,89 -33,170 -85,235z"/>
   <polygon fill="#C52C2A" fill-rule="nonzero" points="443,469 1069,469 1069,417 443,417 "/>
   <path fill="#FFFAE8" fill-rule="nonzero" d="M236 138c1,1 2,1 3,2 3,1 5,2 8,3 4,3 8,6 14,9 6,2 14,4 23,4 9,0 16,-1 22,-3 4,-2 7,-4 11,-6 4,-3 8,-5 11,-7 4,-2 8,-3 15,-3 7,0 11,1 14,3 3,1 5,2 8,3 3,3 8,6 14,9 6,2 14,4 23,4 9,0 16,-1 21,-3 5,-2 8,-4 11,-6 5,-3 8,-5 12,-7 4,-2 8,-3 15,-3 6,0 11,1 14,3 3,1 5,2 7,3 4,3 9,6 15,9 6,2 14,4 23,4 9,0 16,-1 21,-3 5,-2 8,-4 11,-6 5,-3 8,-5 12,-7 4,-2 8,-3 15,-3 6,0 10,1 14,3 2,1 5,2 7,3 4,3 9,6 15,9 6,2 13,4 23,4 8,0 15,-1 21,-3 4,-2 8,-4 11,-6 5,-3 8,-5 12,-7 4,-2 8,-3 15,-3 6,0 10,1 14,3 2,1 5,2 7,3 4,3 8,6 15,9 6,2 13,4 23,4 8,0 15,-1 21,-3 4,-2 8,-4 11,-6 5,-3 8,-5 12,-7 3,-2 8,-3 15,-3 6,0 10,1 14,3 2,1 4,2 7,3 4,3 8,6 14,9 7,2 14,4 24,4 8,0 15,-1 21,-3 4,-2 8,-4 11,-6 4,-3 8,-5 12,-7 3,-2 8,-3 15,-3 6,0 10,1 13,3 3,1 5,2 8,3 4,3 8,6 14,9 6,2 14,4 24,4 8,0 15,-1 21,-3 4,-2 8,-4 11,-6 4,-3 8,-5 11,-7 4,-2 8,-3 15,-3 7,0 11,1 14,3 3,1 5,2 8,3 4,3 8,6 14,9 6,2 14,4 23,4 9,0 16,-1 22,-3 4,-2 7,-4 10,-6 5,-3 9,-5 12,-7 4,-2 8,-3 15,-3 7,0 11,1 14,3 3,1 5,2 8,3 4,3 8,6 14,9 6,2 14,4 23,4 9,0 16,-1 22,-3 4,-2 7,-4 10,-6 5,-3 8,-5 12,-7 2,-1 3,-1 5,-2 1,-7 2,-14 3,-21 -5,1 -10,2 -14,3 -4,2 -8,4 -11,6 -4,3 -8,5 -12,7 -3,2 -8,3 -15,3 -6,0 -10,-1 -13,-2 -3,-1 -5,-3 -8,-4 -4,-3 -8,-6 -14,-9 -6,-2 -14,-4 -24,-4 -8,0 -15,1 -21,3 -4,2 -8,4 -11,6 -4,3 -8,5 -11,7 -4,2 -9,3 -16,3 -6,0 -10,-1 -13,-2 -3,-1 -5,-3 -8,-4 -4,-3 -8,-6 -14,-9 -6,-2 -14,-4 -24,-4 -8,0 -15,1 -21,3 -4,2 -8,4 -11,6 -4,3 -8,5 -11,7 -4,2 -8,3 -15,3 -7,0 -11,-1 -14,-2 -3,-1 -5,-3 -8,-4 -4,-3 -8,-6 -14,-9 -6,-2 -14,-4 -23,-4 -9,0 -16,1 -22,3 -4,2 -7,4 -10,6 -5,3 -8,5 -12,7 -4,2 -8,3 -15,3 -7,0 -11,-1 -14,-2 -3,-1 -5,-3 -8,-4 -3,-3 -8,-6 -14,-9 -6,-2 -14,-4 -23,-4 -9,0 -16,1 -21,3 -5,2 -8,4 -11,6 -5,3 -8,5 -12,7 -4,2 -8,3 -15,3 -6,0 -11,-1 -14,-2 -3,-1 -5,-3 -7,-4 -4,-3 -9,-6 -15,-9 -6,-2 -14,-4 -23,-4 -9,0 -16,1 -21,3 -5,2 -8,4 -11,6 -5,3 -8,5 -12,7 -4,2 -8,3 -15,3 -6,0 -10,-1 -14,-2 -2,-1 -5,-3 -7,-4 -4,-3 -9,-6 -15,-9 -6,-2 -13,-4 -23,-4 -8,0 -15,1 -21,3 -4,2 -8,4 -11,6 -5,3 -8,5 -12,7 -4,2 -8,3 -15,3 -6,0 -10,-1 -14,-2 -2,-1 -5,-3 -7,-4 -4,-3 -8,-6 -15,-9 -6,-2 -13,-4 -23,-4 -8,0 -15,1 -21,3 -4,2 -8,4 -11,6 -4,3 -8,5 -12,7 -3,2 -8,3 -15,3 -6,0 -10,-1 -14,-2 -2,-1 -4,-3 -7,-4 -4,-3 -8,-6 -14,-9 -6,-2 -14,-4 -24,-4 -8,0 -15,1 -21,3 -4,2 -8,4 -11,6 -4,3 -8,5 -11,7 -4,2 -8,3 -16,3 -6,0 -10,-1 -13,-2 -3,-1 -5,-3 -8,-4 -4,-3 -8,-6 -14,-9 -5,-2 -10,-3 -16,-4 1,7 2,14 3,21z"/>
   <path fill="#FFFAE8" fill-rule="nonzero" d="M258 215c1,1 2,1 3,2 6,2 14,4 23,4 9,0 16,-1 22,-3 4,-2 7,-4 11,-6 4,-3 8,-5 11,-7 4,-2 8,-3 15,-3 7,0 11,1 14,3 3,1 5,2 8,3 3,3 8,6 14,9 6,2 14,4 23,4 9,0 16,-1 21,-3 5,-2 8,-4 11,-6 5,-3 8,-5 12,-7 4,-2 8,-3 15,-3 6,0 11,1 14,3 3,1 5,2 7,3 4,3 9,6 15,9 6,2 14,4 23,4 9,0 16,-1 21,-3 5,-2 8,-4 11,-6 5,-3 8,-5 12,-7 4,-2 8,-3 15,-3 6,0 10,1 14,3 2,1 5,2 7,3 4,3 9,6 15,9 6,2 13,4 23,4 8,0 15,-1 21,-3 4,-2 8,-4 11,-6 5,-3 8,-5 12,-7 4,-2 8,-3 15,-3 6,0 10,1 14,3 2,1 5,2 7,3 4,3 8,6 15,9 6,2 13,4 23,4 8,0 15,-1 21,-3 4,-2 8,-4 11,-6 5,-3 8,-5 12,-7 3,-2 8,-3 15,-3 6,0 10,1 14,3 2,1 4,2 7,3 4,3 8,6 14,9 7,2 14,4 24,4 8,0 15,-1 21,-3 4,-2 8,-4 11,-6 4,-3 8,-5 12,-7 3,-2 8,-3 15,-3 6,0 10,1 13,3 3,1 5,2 8,3 4,3 8,6 14,9 6,2 14,4 24,4 8,0 15,-1 21,-3 4,-2 8,-4 11,-6 4,-3 8,-5 11,-7 4,-2 8,-3 15,-3 7,0 11,1 14,3 3,1 5,2 8,3 4,3 8,6 14,9 6,2 14,4 23,4 9,0 16,-1 22,-3 4,-2 7,-4 10,-6 5,-3 9,-5 12,-7 4,-2 8,-3 15,-3 7,0 11,1 14,3 3,1 5,2 8,3 4,3 8,6 14,9 6,2 14,4 23,4 9,0 16,-1 22,-3 2,-1 3,-2 5,-3 4,-9 7,-19 10,-29 -4,1 -7,3 -10,5 -4,3 -8,5 -12,7 -3,2 -8,3 -15,3 -6,0 -10,-1 -13,-2 -3,-1 -5,-3 -8,-4 -4,-3 -8,-6 -14,-9 -6,-2 -14,-4 -24,-4 -8,0 -15,1 -21,4 -4,1 -8,3 -11,5 -4,3 -8,5 -11,7 -4,2 -9,3 -16,3 -6,0 -10,-1 -13,-2 -3,-1 -5,-3 -8,-4 -4,-3 -8,-6 -14,-9 -6,-2 -14,-4 -24,-4 -8,0 -15,1 -21,4 -4,1 -8,3 -11,5 -4,3 -8,5 -11,7 -4,2 -8,3 -15,3 -7,0 -11,-1 -14,-2 -3,-1 -5,-3 -8,-4 -4,-3 -8,-6 -14,-9 -6,-2 -14,-4 -23,-4 -9,0 -16,1 -22,4 -4,1 -7,3 -10,5 -5,3 -8,5 -12,7 -4,2 -8,3 -15,3 -7,0 -11,-1 -14,-2 -3,-1 -5,-3 -8,-4 -3,-3 -8,-6 -14,-9 -6,-2 -14,-4 -23,-4 -9,0 -16,1 -21,4 -5,1 -8,3 -11,5 -5,3 -8,5 -12,7 -4,2 -8,3 -15,3 -6,0 -11,-1 -14,-2 -3,-1 -5,-3 -7,-4 -4,-3 -9,-6 -15,-9 -6,-2 -14,-4 -23,-4 -9,0 -16,1 -21,4 -5,1 -8,3 -11,5 -5,3 -8,5 -12,7 -4,2 -8,3 -15,3 -6,0 -10,-1 -14,-2 -2,-1 -5,-3 -7,-4 -4,-3 -9,-6 -15,-9 -6,-2 -13,-4 -23,-4 -8,0 -15,1 -21,4 -4,1 -8,3 -11,5 -5,3 -8,5 -12,7 -4,2 -8,3 -15,3 -6,0 -10,-1 -14,-2 -2,-1 -5,-3 -7,-4 -4,-3 -8,-6 -15,-9 -6,-2 -13,-4 -23,-4 -8,0 -15,1 -21,4 -4,1 -8,3 -11,5 -4,3 -8,5 -12,7 -3,2 -8,3 -15,3 -6,0 -10,-1 -14,-2 -2,-1 -4,-3 -7,-4 -4,-3 -8,-6 -14,-9 -6,-2 -14,-4 -24,-4 -8,0 -15,1 -21,4 -4,1 -8,3 -11,5 -4,3 -8,5 -11,7 -4,2 -8,3 -16,3 -6,0 -10,-1 -13,-2 -3,-1 -5,-3 -8,-4 -4,-3 -8,-6 -14,-9 -1,0 -1,0 -2,0 4,10 7,20 11,29z"/>
   <path fill="#C52C2A" fill-rule="nonzero" d="M1290 77l-1068 0c-16,0 -28,-12 -28,-28l0 -21c0,-16 12,-28 28,-28l1068 0c16,0 28,12 28,28l0 21c0,16 -12,28 -28,28z"/>
   <path fill="#D23131" fill-rule="nonzero" d="M1205 52l-508 0c-6,0 -11,-5 -11,-11l0 -5c0,-6 5,-11 11,-11l508 0c6,0 11,5 11,11l0 5c0,6 -5,11 -11,11z"/>
   <path fill="#09897C" fill-rule="nonzero" d="M335 873l842 0c170,-87 287,-264 287,-468l-1416 0 0 0c0,204 117,381 287,468z"/>
   <path fill="#10988B" fill-rule="nonzero" d="M1078 873l-124 0c167,-85 282,-258 286,-457l124 0c-4,199 -119,372 -286,457z"/>
   <polygon fill="#176B5D" fill-rule="nonzero" points="335,943 1177,943 1177,873 335,873 "/>
   <path fill="#FFFAE8" fill-rule="nonzero" d="M56 496l50 38c4,3 11,3 16,0l63 -48 63 48c5,3 12,3 17,0l63 -48 63 48c5,3 12,3 16,0l63 -48 64 48c4,3 11,3 16,0l63 -48 63 48c5,3 12,3 17,0l63 -48 63 48c5,3 12,3 16,0l63 -48 64 48c4,3 11,3 16,0l63 -48 63 48c5,3 12,3 17,0l63 -48 63 48c5,3 12,3 16,0l64 -48 63 48c5,3 11,3 16,0l50 -38c2,-12 4,-25 5,-38l-63 48 -63 -48c-5,-4 -12,-4 -17,0l-63 48 -63 -48c-5,-4 -12,-4 -16,0l-64 48 -63 -48c-4,-4 -11,-4 -16,0l-63 48 -63 -48c-5,-4 -12,-4 -17,0l-63 48 -63 -48c-5,-4 -12,-4 -16,0l-64 48 -63 -48c-4,-4 -11,-4 -16,0l-63 48 -63 -48c-5,-4 -12,-4 -17,0l-63 48 -63 -48c-5,-4 -12,-4 -16,0l-64 48 -63 -48c-4,-4 -11,-4 -16,0l-63 48 -63 -48 0 0c1,13 3,26 5,38z"/>
   <path fill="#FFFAE8" fill-rule="nonzero" d="M89 609l17 12c4,4 11,4 16,0l63 -48 63 48c5,4 12,4 17,0l63 -48 63 48c5,4 12,4 16,0l63 -48 64 48c4,4 11,4 16,0l63 -48 63 48c5,4 12,4 17,0l63 -48 63 48c5,4 12,4 16,0l63 -48 64 48c4,4 11,4 16,0l63 -48 63 48c5,4 12,4 17,0l63 -48 63 48c5,4 12,4 16,0l64 -48 63 48c5,4 11,4 16,0l17 -12c6,-16 12,-32 17,-48l-42 32 -63 -48c-5,-3 -12,-3 -17,0l-63 48 -63 -48c-5,-3 -12,-3 -16,0l-64 48 -63 -48c-4,-3 -11,-3 -16,0l-63 48 -63 -48c-5,-3 -12,-3 -17,0l-63 48 -63 -48c-5,-3 -12,-3 -16,0l-64 48 -63 -48c-4,-3 -11,-3 -16,0l-63 48 -63 -48c-5,-3 -12,-3 -17,0l-63 48 -63 -48c-5,-3 -12,-3 -16,0l-64 48 -63 -48c-4,-3 -11,-3 -16,0l-63 48 -42 -32c5,16 11,32 17,48z"/>
   <path fill="#0F796B" fill-rule="nonzero" d="M1475 416l-1438 0c-20,0 -37,-17 -37,-38l0 -28c0,-21 17,-38 37,-38l1438 0c20,0 37,17 37,38l0 28c0,21 -17,38 -37,38z"/>
   <path fill="#098A7A" fill-rule="nonzero" d="M1388 380l-638 0c-8,0 -14,-6 -14,-14l0 -5c0,-7 6,-14 14,-14l638 0c8,0 14,7 14,14l0 5c0,8 -6,14 -14,14z"/>
  </g>
 </g>
</svg>
