<svg xmlns="http://www.w3.org/2000/svg" width="210mm" height="297mm" shape-rendering="geometricPrecision" text-rendering="geometricPrecision" image-rendering="optimizeQuality" fill-rule="evenodd" clip-rule="evenodd" viewBox="0 0 21000 29700"><defs><radialGradient id="a" gradientUnits="userSpaceOnUse" gradientTransform="matrix(-1.38823 0 0 -.81399 23057 25381)" cx="9654.32" cy="13991.6" r="1078.66" fx="9654.32" fy="13991.6"><stop offset="0" stop-color="#7D2100"/><stop offset=".659" stop-color="#741D00"/><stop offset="1" stop-color="#6C1900"/></radialGradient><radialGradient id="b" gradientUnits="userSpaceOnUse" gradientTransform="matrix(-1.38823 0 0 -.814 23057 25382)" cx="9654.32" cy="13992.2" r="1078.66" fx="9654.32" fy="13992.2"><stop offset="0" stop-color="#6C1C00"/><stop offset="1" stop-color="#5D1500"/></radialGradient><radialGradient id="c" gradientUnits="userSpaceOnUse" gradientTransform="matrix(-.70945 0 0 -.7095 16503 29597)" cx="9654.24" cy="17313.4" r="998.13" fx="9654.24" fy="17313.4"><stop offset="0" stop-color="#7D2100"/><stop offset=".659" stop-color="#741D00"/><stop offset="1" stop-color="#6C1900"/></radialGradient><radialGradient id="d" gradientUnits="userSpaceOnUse" gradientTransform="matrix(-4.78838 0 0 -2.80782 55882 53275)" cx="9654.24" cy="13990.9" r="312.72" fx="9654.24" fy="13990.9"><stop offset="0" stop-color="#6C1C00"/><stop offset="1" stop-color="#5D1500"/></radialGradient><radialGradient id="e" gradientUnits="userSpaceOnUse" gradientTransform="matrix(-.99941 0 0 -.99918 21847 24302)" cx="10926.7" cy="12155.9" r="25.72" fx="10926.7" fy="12155.9"><stop offset="0" stop-color="#F2B762"/><stop offset=".588" stop-color="#CF9C51"/><stop offset="1" stop-color="#AD8241"/></radialGradient><radialGradient id="f" gradientUnits="userSpaceOnUse" gradientTransform="matrix(-.99973 0 0 -.99951 16762 24306)" cx="8381.97" cy="12155.9" r="25.72" fx="8381.97" fy="12155.9"><stop offset="0" stop-color="#F2B762"/><stop offset=".588" stop-color="#CF9C51"/><stop offset="1" stop-color="#AD8241"/></radialGradient><radialGradient id="g" gradientUnits="userSpaceOnUse" gradientTransform="matrix(-.72413 0 0 -.72412 16645 21453)" cx="9654.32" cy="12443.1" r="293.45" fx="9654.32" fy="12443.1"><stop offset="0" stop-color="#F2B762"/><stop offset=".588" stop-color="#CF9C51"/><stop offset="1" stop-color="#AD8241"/></radialGradient><radialGradient id="h" gradientUnits="userSpaceOnUse" gradientTransform="matrix(-4.78838 0 0 -2.80783 55882 53292)" cx="9654.24" cy="13995.4" r="312.72" fx="9654.24" fy="13995.4"><stop offset="0" stop-color="#6C1C00"/><stop offset="1" stop-color="#5D1500"/></radialGradient><radialGradient id="i" gradientUnits="userSpaceOnUse" gradientTransform="matrix(-1.00019 0 0 -.99992 21855 29573)" cx="10926.7" cy="14786.8" r="25.7" fx="10926.7" fy="14786.8"><stop offset="0" stop-color="#F2B762"/><stop offset=".588" stop-color="#CF9C51"/><stop offset="1" stop-color="#AD8241"/></radialGradient><radialGradient id="j" gradientUnits="userSpaceOnUse" gradientTransform="matrix(-.99973 0 0 -.99948 16762 29566)" cx="8381.97" cy="14786.8" r="25.72" fx="8381.97" fy="14786.8"><stop offset="0" stop-color="#F2B762"/><stop offset=".588" stop-color="#CF9C51"/><stop offset="1" stop-color="#AD8241"/></radialGradient><radialGradient id="k" gradientUnits="userSpaceOnUse" gradientTransform="matrix(-.72413 0 0 -.72413 16645 25990)" cx="9654.32" cy="15074" r="293.45" fx="9654.32" fy="15074"><stop offset="0" stop-color="#F2B762"/><stop offset=".588" stop-color="#CF9C51"/><stop offset="1" stop-color="#AD8241"/></radialGradient></defs><path fill="#CFE3D4" fill-rule="nonzero" d="M9654 20242c3901 0 7062-389 7062-869s-3161-869-7062-869c-3900 0-7062 389-7062 869s3162 869 7062 869zm0-1697c3719 0 6734 371 6734 828 0 458-3015 828-6734 828-3718 0-6733-370-6733-828 0-457 3015-828 6733-828z"/><path fill="#CFE3D4" fill-rule="nonzero" d="M9654 20201c3719 0 6734-370 6734-828 0-457-3015-828-6734-828-3718 0-6733 371-6733 828 0 458 3015 828 6733 828zm0-1614c3538 0 6405 352 6405 786 0 435-2867 787-6405 787-3537 0-6404-352-6404-787 0-434 2867-786 6404-786z"/><path fill="#CEE1D3" fill-rule="nonzero" d="M9654 20160c3538 0 6405-352 6405-787 0-434-2867-786-6405-786-3537 0-6404 352-6404 786 0 435 2867 787 6404 787zm0-1532c3356 0 6076 334 6076 745 0 412-2720 746-6076 746-3355 0-6076-334-6076-746 0-411 2721-745 6076-745z"/><path fill="#CDE0D1" fill-rule="nonzero" d="M9654 20119c3356 0 6076-334 6076-746 0-411-2720-745-6076-745-3355 0-6076 334-6076 745 0 412 2721 746 6076 746zm0-1450c3175 0 5748 315 5748 704s-2573 704-5748 704c-3174 0-5747-315-5747-704s2573-704 5747-704z"/><path fill="#CBDECF" fill-rule="nonzero" d="M9654 20077c3175 0 5748-315 5748-704s-2573-704-5748-704c-3174 0-5747 315-5747 704s2573 704 5747 704zm0-1367c2993 0 5419 297 5419 663s-2426 663-5419 663c-2992 0-5419-297-5419-663s2427-663 5419-663z"/><path fill="#C9DBCC" fill-rule="nonzero" d="M9654 20036c2993 0 5419-297 5419-663s-2426-663-5419-663c-2992 0-5419 297-5419 663s2427 663 5419 663zm0-1284c2812 0 5091 278 5091 621 0 344-2279 622-5091 622-2811 0-5090-278-5090-622 0-343 2279-621 5090-621z"/><path fill="#C5D7C9" fill-rule="nonzero" d="M9654 19995c2812 0 5091-278 5091-622 0-343-2279-621-5091-621-2811 0-5090 278-5090 621 0 344 2279 622 5090 622zm0-1202c2630 0 4762 260 4762 580 0 321-2132 580-4762 580-2629 0-4761-259-4761-580 0-320 2132-580 4761-580z"/><path fill="#C2D4C6" fill-rule="nonzero" d="M9654 19953c2630 0 4762-259 4762-580 0-320-2132-580-4762-580-2629 0-4761 260-4761 580 0 321 2132 580 4761 580zm0-1119c2449 0 4433 242 4433 539 0 298-1984 539-4433 539-2448 0-4433-241-4433-539 0-297 1985-539 4433-539z"/><path fill="#BECFC1" fill-rule="nonzero" d="M9654 19912c2449 0 4433-241 4433-539 0-297-1984-539-4433-539-2448 0-4433 242-4433 539 0 298 1985 539 4433 539zm0-1036c2267 0 4105 222 4105 497s-1838 498-4105 498-4104-223-4104-498 1837-497 4104-497z"/><path fill="#BAC9BC" fill-rule="nonzero" d="M9654 19871c2267 0 4105-223 4105-498s-1838-497-4105-497-4104 222-4104 497 1837 498 4104 498zm0-954c2086 0 3776 204 3776 456s-1690 457-3776 457c-2085 0-3776-205-3776-457s1691-456 3776-456z"/><path fill="#B5C3B7" fill-rule="nonzero" d="M9654 19830c2086 0 3776-205 3776-457s-1690-456-3776-456c-2085 0-3776 204-3776 456s1691 457 3776 457zm0-872c1904 0 3448 186 3448 415s-1544 415-3448 415-3447-186-3447-415 1543-415 3447-415z"/><path fill="#B0BCB0" fill-rule="nonzero" d="M9654 19788c1904 0 3448-186 3448-415s-1544-415-3448-415-3447 186-3447 415 1543 415 3447 415zm0-788c1723 0 3119 167 3119 373 0 207-1396 374-3119 374-1722 0-3119-167-3119-374 0-206 1397-373 3119-373z"/><path fill="#AAB5A8" fill-rule="nonzero" d="M9654 19747c1723 0 3119-167 3119-374 0-206-1396-373-3119-373-1722 0-3119 167-3119 373 0 207 1397 374 3119 374zm0-706c1541 0 2790 149 2790 332 0 184-1249 333-2790 333s-2790-149-2790-333c0-183 1249-332 2790-332z"/><path fill="#A3ADA2" fill-rule="nonzero" d="M9654 19706c1541 0 2790-149 2790-333 0-183-1249-332-2790-332s-2790 149-2790 332c0 184 1249 333 2790 333zm0-624c1360 0 2462 130 2462 291s-1102 291-2462 291c-1359 0-2461-130-2461-291s1102-291 2461-291z"/><path fill="#9DA59A" fill-rule="nonzero" d="M9654 19664c1360 0 2462-130 2462-291s-1102-291-2462-291c-1359 0-2461 130-2461 291s1102 291 2461 291zm0-541c1178 0 2133 112 2133 250s-955 250-2133 250-2133-112-2133-250 955-250 2133-250z"/><path fill="#959B90" fill-rule="nonzero" d="M9654 19623c1178 0 2133-112 2133-250s-955-250-2133-250-2133 112-2133 250 955 250 2133 250zm0-458c997 0 1805 93 1805 208 0 116-808 209-1805 209-996 0-1804-93-1804-209 0-115 808-208 1804-208z"/><path fill="#8C9187" fill-rule="nonzero" d="M9654 19582c997 0 1805-93 1805-209 0-115-808-208-1805-208-996 0-1804 93-1804 208 0 116 808 209 1804 209zm0-376c815 0 1476 75 1476 167 0 93-661 168-1476 168s-1476-75-1476-168c0-92 661-167 1476-167z"/><path fill="#84867E" fill-rule="nonzero" d="M9654 19541c815 0 1476-75 1476-168 0-92-661-167-1476-167s-1476 75-1476 167c0 93 661 168 1476 168zm0-294c634 0 1147 57 1147 126 0 70-513 126-1147 126-633 0-1147-56-1147-126 0-69 514-126 1147-126z"/><path fill="#7B7B74" fill-rule="nonzero" d="M9654 19499c634 0 1147-56 1147-126 0-69-513-126-1147-126-633 0-1147 57-1147 126 0 70 514 126 1147 126zm0-210c452 0 819 37 819 84s-367 85-819 85-818-38-818-85 366-84 818-84z"/><path fill="#717067" fill-rule="nonzero" d="M9654 19458c452 0 819-38 819-85s-367-84-819-84-818 37-818 84 366 85 818 85zm0-128c271 0 490 19 490 43s-219 44-490 44c-270 0-490-20-490-44s220-43 490-43z"/><path fill="#68635C" fill-rule="nonzero" d="M9654 19417c271 0 490-20 490-44s-219-43-490-43c-270 0-490 19-490 43s220 44 490 44zm0-46c89 0 162 1 162 2 0 2-73 2-162 2s-161 0-161-2c0-1 72-2 161-2z"/><path fill="#5D5651" fill-rule="nonzero" d="M9654 19375c89 0 162 0 162-2 0-1-73-2-162-2s-161 1-161 2c0 2 72 2 161 2z"/><path fill="#410000" fill-rule="nonzero" d="M13359 16184v613c100 41 34 1212 54 1500 13 175 69 351 126 351h166l36-16 12-38c-12-101-36-328-29-548 7-241 93-1000 93-1366v-496h-458zM5950 16184v613c-101 41-34 1212-55 1500-12 175-69 351-125 351h-167l-36-16-12-38c13-101 36-328 30-548-7-241-94-1000-94-1366v-496h459z"/><path fill="#621501" fill-rule="nonzero" d="M5151 16874v668c-109 44-37 1320-59 1633-14 191-76 383-137 383h-182c-15 0-29-6-39-18-10-11-14-26-13-41 14-110 39-358 32-597-7-262-101-1089-101-1488v-540h499z"/><path fill="url(#a)" d="M4873 16874h9563v-5765H4873h9563v119H4873v5646zm9363-2798v2360H5072v-2360h9164zm0-2631v2361H5072v-2361h9164zm-9085 4913h9006v-2203H5151v2203zm5776-1628c63 0 114 51 114 114 0 61-48 109-108 112-22 76-63 172-144 244-178 158-655 272-768 272h-367-366c-113 0-590-114-768-272-81-72-122-168-144-244-60-3-108-51-108-112 0-63 51-114 114-114s114 51 114 114c0 39-21 71-51 92 18 61 51 139 112 195 93 87 409 97 499 97s141-61 232-61h733c90 0 141 61 231 61 91 0 406-10 500-97 60-56 93-134 111-195-29-21-50-53-50-92 0-63 51-114 114-114zm-5776-1003h9006v-2203H5151v2203zm5776-1628c63 0 114 51 114 114 0 61-48 109-108 113-22 74-63 171-144 243-178 158-655 272-768 272h-367-366c-113 0-590-114-768-272-81-72-122-169-144-243-60-4-108-52-108-113 0-63 51-114 114-114s114 51 114 114c0 39-21 72-51 92 18 61 51 139 112 195 93 87 409 97 499 97s141-61 232-61h733c90 0 141 61 231 61 91 0 406-10 500-97 60-56 93-134 111-195-29-20-50-53-50-92 0-63 51-114 114-114z"/><path fill="#410000" fill-rule="nonzero" d="M5151 13727v-2203h9006v2203H5151zm9085 79v-2361H5072v2361h9164z"/><path fill="#621501" fill-rule="nonzero" d="M14657 16874h-221v-5765h221zM4873 16874h-221v-5765h221zM4365 11109h10578v-137c0-147-119-267-266-267H4631c-147 0-266 120-266 267v137z"/><path fill="#B22602" fill-rule="nonzero" d="M4463 10864h10382c0-49-39-88-87-88H4551c-49 0-88 39-88 88z"/><path fill="#621501" fill-rule="nonzero" d="M14657 10705H4652v-202h10005z"/><path fill="url(#b)" d="M14436 11228H4873v-119h9563z"/><path fill="#7D2100" fill-rule="nonzero" d="M4652 10503h10005l-887-507H5539z"/><path fill="#621501" fill-rule="nonzero" d="M14157 16874v668c110 44 38 1320 60 1633 13 191 75 383 137 383h181c15 0 29-6 39-18 10-11 15-26 13-41-13-110-39-358-32-597 8-262 102-1089 102-1488v-540h-500zM9654 16874h4503v668s-234-299-960-229c-638 62-1439 361-2149 427-711 67-1394-161-1394-161s-683 228-1393 161c-711-66-1512-365-2149-427-727-70-961 229-961 229v-668h4503z"/><path fill="url(#c)" d="M8531 17674c583 0 1093-168 1098-169l25-9 25 9c5 1 515 169 1099 169 86 0 174-3 263-12 361-34 750-129 1126-222 364-90 708-175 1022-205 80-8 153-11 221-11 334 0 546 82 669 156v-427H5230v427c122-74 335-156 668-156 68 0 142 3 221 11 314 30 658 115 1023 205 376 93 765 188 1126 222 89 9 176 12 263 12z"/><path fill="url(#d)" d="M9288 12841h733c113 0 590-114 768-272 81-72 122-169 144-243 60-4 108-52 108-113 0-63-51-114-114-114s-114 51-114 114c0 39 21 72 50 92-18 61-51 139-111 195-94 87-409 97-500 97-90 0-141-61-231-61h-367-366c-91 0-142 61-232 61s-406-10-499-97c-61-56-94-134-112-195 30-20 51-53 51-92 0-63-51-114-114-114s-114 51-114 114c0 61 48 109 108 113 22 74 63 171 144 243 178 158 655 272 768 272z"/><path fill="url(#e)" d="M10813 12156c0 63 51 114 114 114s114-51 114-114-51-114-114-114-114 51-114 114z"/><path fill="url(#f)" d="M8496 12156c0 63-51 114-114 114s-114-51-114-114 51-114 114-114 114 51 114 114z"/><path fill="url(#g)" d="M8425 12156s19 182 132 287c93 87 409 97 499 97s141-61 232-61h733c90 0 141 61 231 61 91 0 406-10 500-97 113-105 132-287 132-287h71s-16 223-166 356c-178 158-655 218-768 218h-367-366c-113 0-590-60-768-218-150-133-167-356-167-356h72z"/><path fill="#410000" fill-rule="nonzero" d="M5151 16358v-2203h9006v2203H5151zm9085 78v-2360H5072v2360h9164z"/><path fill="url(#h)" d="M9288 15472h733c113 0 590-114 768-272 81-72 122-168 144-244 60-3 108-51 108-112 0-63-51-114-114-114s-114 51-114 114c0 39 21 71 50 92-18 61-51 139-111 195-94 87-409 97-500 97-90 0-141-61-231-61h-367-366c-91 0-142 61-232 61s-406-10-499-97c-61-56-94-134-112-195 30-21 51-53 51-92 0-63-51-114-114-114s-114 51-114 114c0 61 48 109 108 112 22 76 63 172 144 244 178 158 655 272 768 272z"/><path fill="url(#i)" d="M10813 14787c0 63 51 114 114 114s114-51 114-114-51-114-114-114-114 51-114 114z"/><path fill="url(#j)" d="M8496 14787c0 63-51 114-114 114s-114-51-114-114 51-114 114-114 114 51 114 114z"/><path fill="url(#k)" d="M8425 14787s19 182 132 287c93 87 409 97 499 97s141-61 232-61h733c90 0 141 61 231 61 91 0 406-10 500-97 113-105 132-287 132-287h71s-16 223-166 356c-178 158-655 218-768 218h-367-366c-113 0-590-60-768-218-150-133-167-356-167-356h72z"/></svg>