<?xml version="1.0" encoding="UTF-8"?>
<!DOCTYPE svg PUBLIC "-//W3C//DTD SVG 1.1//EN" "http://www.w3.org/Graphics/SVG/1.1/DTD/svg11.dtd">
<!-- Creator: CorelDRAW X7 -->
<svg xmlns="http://www.w3.org/2000/svg" xml:space="preserve" width="1265px" height="1476px" version="1.1" shape-rendering="geometricPrecision" text-rendering="geometricPrecision" image-rendering="optimizeQuality" fill-rule="evenodd" clip-rule="evenodd"
viewBox="0 0 988 1152"
 xmlns:xlink="http://www.w3.org/1999/xlink">
 <defs>
    <linearGradient id="id0" gradientUnits="userSpaceOnUse" x1="140.113" y1="842.173" x2="848.403" y2="842.173">
     <stop offset="0" stop-opacity="1" stop-color="#EA6720"/>
     <stop offset="1" stop-opacity="1" stop-color="#CC3627"/>
    </linearGradient>
    <linearGradient id="id1" gradientUnits="userSpaceOnUse" x1="140.113" y1="842.173" x2="848.403" y2="842.173">
     <stop offset="0" stop-opacity="1" stop-color="#AD4C28"/>
     <stop offset="1" stop-opacity="1" stop-color="#942E25"/>
    </linearGradient>
    <linearGradient id="id2" gradientUnits="userSpaceOnUse" x1="45.8755" y1="703.944" x2="940.136" y2="703.944">
     <stop offset="0" stop-opacity="1" stop-color="#EA6720"/>
     <stop offset="1" stop-opacity="1" stop-color="#CC3627"/>
    </linearGradient>
    <linearGradient id="id3" gradientUnits="userSpaceOnUse" x1="45.8755" y1="703.944" x2="940.136" y2="703.944">
     <stop offset="0" stop-opacity="1" stop-color="#EA6720"/>
     <stop offset="1" stop-opacity="1" stop-color="#CC3627"/>
    </linearGradient>
    <linearGradient id="id4" gradientUnits="userSpaceOnUse" x1="45.8755" y1="703.944" x2="940.136" y2="703.944">
     <stop offset="0" stop-opacity="1" stop-color="#AD4C28"/>
     <stop offset="1" stop-opacity="1" stop-color="#942E25"/>
    </linearGradient>
    <linearGradient id="id5" gradientUnits="userSpaceOnUse" x1="54.8438" y1="703.944" x2="913.12" y2="703.944">
     <stop offset="0" stop-opacity="1" stop-color="#F49D59"/>
     <stop offset="1" stop-opacity="1" stop-color="#E16F4D"/>
    </linearGradient>
    <linearGradient id="id6" gradientUnits="userSpaceOnUse" x1="142.225" y1="842.173" x2="825.69" y2="842.173">
     <stop offset="0" stop-opacity="1" stop-color="#F49D59"/>
     <stop offset="1" stop-opacity="1" stop-color="#E16F4D"/>
    </linearGradient>
    <linearGradient id="id7" gradientUnits="userSpaceOnUse" x1="56.0418" y1="703.944" x2="887.928" y2="703.944">
     <stop offset="0" stop-opacity="1" stop-color="#FAC9A8"/>
     <stop offset="1" stop-opacity="1" stop-color="#EFB2A0"/>
    </linearGradient>
    <linearGradient id="id8" gradientUnits="userSpaceOnUse" x1="15.9328" y1="375.283" x2="937.083" y2="375.283">
     <stop offset="0" stop-opacity="1" stop-color="#F6B3A6"/>
     <stop offset="1" stop-opacity="1" stop-color="#F297A4"/>
    </linearGradient>
    <linearGradient id="id9" gradientUnits="userSpaceOnUse" x1="289.99" y1="569.334" x2="920.747" y2="569.334">
     <stop offset="0" stop-opacity="1" stop-color="#E73A47"/>
     <stop offset="1" stop-opacity="1" stop-color="#CA2627"/>
    </linearGradient>
    <linearGradient id="id10" gradientUnits="userSpaceOnUse" x1="121.115" y1="399.096" x2="874.843" y2="399.096">
     <stop offset="0" stop-opacity="1" stop-color="#E73A47"/>
     <stop offset="1" stop-opacity="1" stop-color="#CA2627"/>
    </linearGradient>
    <linearGradient id="id11" gradientUnits="userSpaceOnUse" x1="437.662" y1="105.931" x2="560.127" y2="105.931">
     <stop offset="0" stop-opacity="1" stop-color="#F8CDD2"/>
     <stop offset="1" stop-opacity="1" stop-color="#EE99B2"/>
    </linearGradient>
    <linearGradient id="id12" gradientUnits="userSpaceOnUse" x1="256.332" y1="269.873" x2="734.022" y2="269.873">
     <stop offset="0" stop-opacity="1" stop-color="#E73A47"/>
     <stop offset="1" stop-opacity="1" stop-color="#CA2627"/>
    </linearGradient>
    <linearGradient id="id13" gradientUnits="userSpaceOnUse" x1="116.569" y1="335.635" x2="817.636" y2="335.635">
     <stop offset="0" stop-opacity="1" stop-color="#EC6474"/>
     <stop offset="1" stop-opacity="1" stop-color="#D2333A"/>
    </linearGradient>
    <linearGradient id="id14" gradientUnits="userSpaceOnUse" x1="366.203" y1="215.918" x2="632.375" y2="215.918">
     <stop offset="0" stop-opacity="1" stop-color="#EC6474"/>
     <stop offset="1" stop-opacity="1" stop-color="#D2333A"/>
    </linearGradient>
    <linearGradient id="id15" gradientUnits="userSpaceOnUse" x1="375.745" y1="170.289" x2="615.288" y2="170.289">
     <stop offset="0" stop-opacity="1" stop-color="#E73A47"/>
     <stop offset="1" stop-opacity="1" stop-color="#CA2627"/>
    </linearGradient>
    <linearGradient id="id16" gradientUnits="userSpaceOnUse" x1="10.2447" y1="507.975" x2="886.189" y2="507.975">
     <stop offset="0" stop-opacity="1" stop-color="#EC6474"/>
     <stop offset="1" stop-opacity="1" stop-color="#D2333A"/>
    </linearGradient>
    <linearGradient id="id17" gradientUnits="userSpaceOnUse" x1="72.3065" y1="466.446" x2="893.016" y2="466.446">
     <stop offset="0" stop-opacity="1" stop-color="#EC6474"/>
     <stop offset="1" stop-opacity="1" stop-color="#D2333A"/>
    </linearGradient>
    <linearGradient id="id18" gradientUnits="userSpaceOnUse" x1="19.2591" y1="589.357" x2="930.629" y2="589.357">
     <stop offset="0" stop-opacity="1" stop-color="#F8CDD2"/>
     <stop offset="1" stop-opacity="1" stop-color="#EE99B2"/>
    </linearGradient>
    <linearGradient id="id19" gradientUnits="userSpaceOnUse" x1="183.508" y1="304.812" x2="536.447" y2="304.812">
     <stop offset="0" stop-opacity="1" stop-color="#F8CDD2"/>
     <stop offset="1" stop-opacity="1" stop-color="#EE99B2"/>
    </linearGradient>
    <linearGradient id="id20" gradientUnits="userSpaceOnUse" x1="163.193" y1="364.603" x2="784.392" y2="364.603">
     <stop offset="0" stop-opacity="1" stop-color="#F8CDD2"/>
     <stop offset="1" stop-opacity="1" stop-color="#EE99B2"/>
    </linearGradient>
    <linearGradient id="id21" gradientUnits="userSpaceOnUse" x1="98.3115" y1="487.791" x2="879.241" y2="487.791">
     <stop offset="0" stop-opacity="1" stop-color="#F8CDD2"/>
     <stop offset="1" stop-opacity="1" stop-color="#EE99B2"/>
    </linearGradient>
    <linearGradient id="id22" gradientUnits="userSpaceOnUse" x1="295.701" y1="207.983" x2="620.163" y2="207.983">
     <stop offset="0" stop-opacity="1" stop-color="#F8CDD2"/>
     <stop offset="1" stop-opacity="1" stop-color="#EE99B2"/>
    </linearGradient>
 </defs>
 <g id="Слой_x0020_1">
  <metadata id="CorelCorpID_0Corel-Layer"/>
  <g id="_957716320">
   <path fill="url(#id0)" d="M494 1152c-234,0 -348,-131 -354,-296 46,79 187,137 353,137 168,0 310,-59 355,-139 0,0 0,0 0,0 -4,166 -113,298 -354,298zm-290 -199c-9,0 -14,2 -14,8 2,24 42,96 74,105 3,1 6,2 9,2 26,0 46,-31 55,-58 4,-16 -89,-57 -124,-57z"/>
   <path fill="#BFBCBA" fill-rule="nonzero" d="M140 856c0,0 0,-1 0,-1 0,0 0,0 0,0 0,0 0,1 0,1z"/>
   <path fill="url(#id1)" d="M493 993c-166,0 -307,-58 -353,-137 0,0 0,-1 0,-1 82,58 210,95 353,95 144,0 273,-37 355,-96 -45,80 -187,139 -355,139z"/>
   <path fill="url(#id2)" d="M493 950c-143,0 -271,-37 -353,-95 0,0 0,0 0,0 -59,-42 -94,-94 -94,-151 0,-19 4,-37 11,-55 19,59 98,109 209,139 66,17 154,40 237,40 224,0 399,-85 425,-182 8,18 12,38 12,58 0,56 -34,108 -92,150 0,0 0,0 0,0 -82,59 -211,96 -355,96zm-407 -220c-6,0 -10,3 -12,11 -9,39 66,101 169,138 58,20 112,31 153,31 41,0 68,-10 72,-29 9,-39 -95,-37 -211,-73 -89,-27 -147,-78 -171,-78z"/>
   <path fill="url(#id3)" d="M57 649c-3,-9 -5,-18 -5,-27 0,-107 197,-194 439,-194 243,0 440,87 440,194 0,8 -1,16 -3,24 -48,-108 -225,-188 -435,-188 -213,0 -391,82 -436,191z"/>
   <path fill="url(#id4)" d="M503 828c-83,0 -171,-23 -237,-40 -111,-30 -190,-80 -209,-139 45,-109 223,-191 436,-191 210,0 387,80 435,188 -26,97 -201,182 -425,182z"/>
   <path fill="url(#id5)" d="M396 910c-41,0 -95,-11 -153,-31 -103,-37 -178,-99 -169,-138 2,-8 6,-11 12,-11 24,0 82,51 171,78 116,36 220,34 211,73 -4,19 -31,29 -72,29zm-295 -158c-3,0 -5,1 -6,4 -9,13 26,44 66,63 32,15 63,27 79,27 6,0 10,-2 12,-6 5,-15 -37,-27 -83,-49 -34,-17 -56,-39 -68,-39z"/>
   <path fill="url(#id6)" d="M273 1068c-3,0 -6,-1 -9,-2 -32,-9 -72,-81 -74,-105 0,-6 5,-8 14,-8 35,0 128,41 124,57 -9,27 -29,58 -55,58z"/>
   <path fill="url(#id7)" d="M240 846c-16,0 -47,-12 -79,-27 -40,-19 -75,-50 -66,-63 1,-3 3,-4 6,-4 12,0 34,22 68,39 46,22 88,34 83,49 -2,4 -6,6 -12,6z"/>
   <path fill="url(#id8)" d="M516 0c8,-2 -9,95 14,95 22,0 48,25 52,37 3,11 39,1 56,17 17,15 195,23 212,129 17,107 63,103 63,103 0,0 58,-45 36,134 -23,179 -427,292 -641,255 -167,-28 -324,-142 -307,-259 3,-17 2,-49 14,-64 20,-26 28,-18 46,-33l45 -65c0,0 44,-48 41,-94 0,-15 18,-48 61,-32 133,49 45,65 45,65 0,0 17,-181 120,-116 103,64 38,9 38,9 0,0 -9,-153 105,-181z"/>
   <path fill="url(#id9)" d="M284 766c0,0 472,49 627,-205 47,-76 18,-152 2,-180 -24,-41 150,1 36,234 -118,239 -671,185 -665,151z"/>
   <path fill="url(#id10)" d="M105 330c7,-15 32,217 477,164 358,-43 253,-234 258,-244 6,-11 100,40 54,152 -59,143 -350,173 -500,147 -199,-34 -312,-166 -289,-219z"/>
   <path fill="url(#id11)" d="M455 203c0,0 -61,-35 -25,-112 37,-76 71,-81 74,-78 4,3 -34,88 -6,114 28,26 7,-20 29,-24 21,-3 78,31 40,81 -39,50 -110,26 -112,19z"/>
   <path fill="url(#id12)" d="M268 199c17,2 -29,61 8,95 52,47 163,93 309,36 222,-85 24,-178 69,-181 178,-11 193,199 -56,240 -159,26 -288,-14 -343,-77 -46,-53 -3,-115 13,-113z"/>
   <path fill="url(#id13)" d="M771 187c-1,-1 -3,-1 -4,-2 1,1 3,1 4,2zm-7 -3c33,39 37,122 -89,181 -162,76 -377,18 -369,24 42,28 305,82 449,-40 25,-22 42,-41 52,-58 -19,55 -89,118 -261,154 -290,60 -439,-141 -439,-141 -12,79 93,179 267,193 175,15 420,-51 467,-167 48,-117 -77,-146 -77,-146z"/>
   <path fill="url(#id14)" d="M318 167c0,0 -94,84 41,124 135,40 320,-41 254,-149 0,0 96,15 23,118 -77,108 -500,85 -318,-93z"/>
   <path fill="url(#id15)" d="M582 132c5,13 4,24 -1,33 -21,29 -49,20 -61,14 -56,-28 -69,-97 -69,-97 -32,80 -7,108 10,122 -26,-6 -47,-25 -50,-53 0,0 -57,-2 -43,63 7,37 78,57 138,49 56,-7 107,-42 120,-75 21,-51 -44,-56 -44,-56z"/>
   <path fill="url(#id16)" d="M905 330c0,8 26,221 -364,315 -408,99 -526,-170 -536,-151 -10,19 10,108 143,179 133,71 551,100 735,-135 123,-158 22,-215 22,-208z"/>
   <path fill="url(#id17)" d="M448 582c270,0 412,-67 445,-178 0,0 -75,181 -459,150 0,0 -260,-21 -331,-200 0,0 -42,0 -36,50 7,54 110,178 381,178z"/>
   <path fill="url(#id18)" d="M19 557c0,0 75,157 360,166 285,9 434,-33 552,-255 0,0 -9,119 -220,224 -212,104 -612,75 -692,-135z"/>
   <path fill="url(#id19)" d="M240 230c0,0 -48,-37 -71,3 -23,40 60,198 367,164 0,0 -337,-8 -296,-167z"/>
   <path fill="url(#id20)" d="M147 255c0,0 53,166 264,181 212,15 375,-100 389,-171 14,-76 54,54 -78,139 -132,85 -380,116 -544,-7 -138,-103 -37,-184 -31,-142z"/>
   <path fill="url(#id21)" d="M905 330c0,0 28,54 -52,138 -80,69 -255,135 -471,111 -237,-26 -315,-175 -315,-175 -75,27 76,215 394,212 115,-1 159,-20 149,-17 -306,95 -508,-56 -508,-56 -52,-23 -49,58 154,117 203,59 466,-18 595,-150 129,-132 54,-180 54,-180z"/>
   <path fill="url(#id22)" d="M348 182c0,0 -55,69 90,88 145,20 226,-96 175,-128 0,0 42,9 23,73 -18,63 -197,125 -309,64 -60,-33 -50,-79 -26,-101 21,-19 55,-19 47,4z"/>
   <path fill="#FEFEFE" fill-rule="nonzero" d="M488 17c0,0 -53,39 -64,90 -11,52 32,-59 64,-90z"/>
   <path fill="#FEFEFE" fill-rule="nonzero" d="M328 184c0,0 -36,23 -11,49 25,26 62,47 132,46 69,-1 -73,19 -126,-22 -53,-40 -22,-73 -11,-78 12,-5 26,-5 16,5z"/>
   <path fill="#FEFEFE" fill-rule="nonzero" d="M212 230c0,0 -34,32 16,78 50,46 -115,-52 -16,-78z"/>
   <path fill="#FEFEFE" fill-rule="nonzero" d="M140 265c0,0 9,113 168,163 158,50 -98,11 -156,-70 -57,-80 -27,-101 -12,-93z"/>
   <path fill="#FEFEFE" fill-rule="nonzero" d="M67 425c0,0 24,75 150,132 126,58 -46,-6 -98,-46 -56,-43 -65,-70 -52,-86z"/>
   <path fill="#FEFEFE" fill-rule="nonzero" d="M62 512c-6,6 -18,-6 -31,-18 -13,-12 -13,-32 -8,-37 5,-6 15,4 28,16 12,11 16,33 11,39z"/>
   <path fill="#FEFEFE" fill-rule="nonzero" d="M140 582c0,0 149,91 387,51 238,-40 -25,35 -139,29 -115,-6 -161,-15 -241,-53 -27,-13 -48,-47 -7,-27z"/>
   <path fill="#FEFEFE" fill-rule="nonzero" d="M398 158c0,0 -18,44 46,66 64,22 -126,-2 -46,-66z"/>
   <path fill="#FEFEFE" fill-rule="nonzero" d="M127 425c0,0 91,113 259,132 0,0 -178,13 -259,-132z"/>
   <path fill="#FEFEFE" fill-rule="nonzero" d="M273 291c0,0 59,81 225,66 0,0 -158,47 -225,-66z"/>
   <path fill="#FEFEFE" fill-rule="nonzero" d="M106 609c0,0 120,98 355,81 0,0 -221,63 -355,-81z"/>
  </g>
 </g>
</svg>
