<svg xmlns="http://www.w3.org/2000/svg" width="210mm" height="297mm" shape-rendering="geometricPrecision" text-rendering="geometricPrecision" image-rendering="optimizeQuality" fill-rule="evenodd" clip-rule="evenodd" viewBox="0 0 21000 29700"><defs><linearGradient id="a" gradientUnits="userSpaceOnUse" x1="4841.92" y1="14257.7" x2="16851.3" y2="14257.7"><stop offset="0" stop-color="#ED7263"/><stop offset=".012" stop-color="#ED7263"/><stop offset="1" stop-color="#E4242D"/></linearGradient><linearGradient id="b" gradientUnits="userSpaceOnUse" x1="4811.24" y1="14643.8" x2="16144" y2="14643.8"><stop offset="0" stop-color="#F297A4"/><stop offset=".988" stop-color="#F297A4"/><stop offset="1" stop-color="#F297A4"/></linearGradient><linearGradient id="c" gradientUnits="userSpaceOnUse" x1="4841.92" y1="14257.1" x2="16851.3" y2="14257.1"><stop offset="0" stop-color="#CE4D3D"/><stop offset=".012" stop-color="#CE4D3D"/><stop offset="1" stop-color="#C52727"/></linearGradient><linearGradient id="d" gradientUnits="userSpaceOnUse" x1="4842.31" y1="14257.7" x2="16761.7" y2="14257.7"><stop offset="0" stop-color="#E55844"/><stop offset=".012" stop-color="#E55844"/><stop offset="1" stop-color="#D92226"/></linearGradient><linearGradient id="e" gradientUnits="userSpaceOnUse" x1="4841.92" y1="14257.7" x2="16851.3" y2="14257.7"><stop offset="0" stop-color="#E55844"/><stop offset=".012" stop-color="#E55844"/><stop offset="1" stop-color="#D92226"/></linearGradient><linearGradient id="f" gradientUnits="userSpaceOnUse" x1="4806.2" y1="14643.8" x2="15998.7" y2="14643.8"><stop offset="0" stop-color="#E57881"/><stop offset=".988" stop-color="#E57881"/><stop offset="1" stop-color="#E57881"/></linearGradient><linearGradient id="g" gradientUnits="userSpaceOnUse" x1="4841.92" y1="14257.7" x2="16851.3" y2="14257.7"><stop offset="0" stop-color="#F5ADA8"/><stop offset=".012" stop-color="#F5ADA8"/><stop offset="1" stop-color="#EB5F75"/></linearGradient><linearGradient id="h" gradientUnits="userSpaceOnUse" x1="4806.17" y1="14643.8" x2="16212.5" y2="14643.8"><stop offset="0" stop-color="#F7C4CD"/><stop offset=".988" stop-color="#F7C4CD"/><stop offset="1" stop-color="#F7C4CD"/></linearGradient><linearGradient id="i" gradientUnits="userSpaceOnUse" x1="4841.92" y1="14257.7" x2="16851.2" y2="14257.7"><stop offset="0" stop-color="#F4A69B"/><stop offset=".012" stop-color="#F4A69B"/><stop offset="1" stop-color="#EB6272"/></linearGradient><linearGradient id="j" gradientUnits="userSpaceOnUse" x1="5073.11" y1="14257.7" x2="16209.4" y2="14257.7"><stop offset="0" stop-color="#F4A69B"/><stop offset=".012" stop-color="#F4A69B"/><stop offset="1" stop-color="#EB6272"/></linearGradient><linearGradient id="k" gradientUnits="userSpaceOnUse" x1="4970.93" y1="14643.8" x2="15805.7" y2="14643.8"><stop offset="0" stop-color="#F3B9BD"/><stop offset=".988" stop-color="#F3B9BD"/><stop offset="1" stop-color="#F3B9BD"/></linearGradient><linearGradient id="l" gradientUnits="userSpaceOnUse" x1="5035.73" y1="14643.8" x2="15122.6" y2="14643.8"><stop offset="0" stop-color="#FADDE4"/><stop offset=".988" stop-color="#FADDE4"/><stop offset="1" stop-color="#FADDE4"/></linearGradient><linearGradient id="m" gradientUnits="userSpaceOnUse" x1="4841.92" y1="14257.7" x2="16851.3" y2="14257.7"><stop offset="0" stop-color="#F29587"/><stop offset=".012" stop-color="#F29587"/><stop offset="1" stop-color="#E84857"/></linearGradient></defs><path fill="url(#a)" d="M6571 18123c-122 0-238-1-347-4 44 1 90 1 137 1 336 0 739-8 1202-16-360 12-694 19-992 19zm-1330-103c-35-12-62-26-79-41s-32-31-47-50c35 39 77 68 126 91zm1754-48c-615 0-1049-73-1358-176-10-126-52-269-79-345 0-1-1-2-1-3 36 1 75 1 115 1h58c22 138 59 272 108 399 324 86 739 118 1184 118 198 0 402-7 606-17-230 16-440 23-633 23zm3644-65c737-67 1476-144 2124-222 10-1 19-2 28-3-690 85-1424 161-2152 225zm-1885-52c327-36 623-73 860-102 58-176 92-363 99-557 73-6 147-13 221-20 27 21 60 33 101 33 48 0 105-17 173-59 1238-119 2495-262 3515-405 44 43 104 68 180 68 40 0 84-7 132-22 59-18 104-58 136-111 283-43 541-86 767-127-17 214-35 400-51 541-1214 226-3942 561-6133 761zm4732-263c694-97 1197-187 1366-217-408 76-870 148-1366 217zm-8303-21c-238-176-283-353-291-400 17 135 35 251 55 349-64-276-94-638-102-1024 33 432 86 774 153 880 15 25 81 43 191 55 0 54-2 102-6 140zm-293-412l2 12-2-12zm11607-273c0-1 1-1 1-2 128-116 186-389 275-805 1-1 1-2 1-3-50 351-127 626-237 768-10 14-24 28-40 42zm133-4863c-37-164-77-287-120-354 2 1 3 3 5 5 39 53 78 176 115 349zm-176-410c-1298-480-3093-816-3690-920 2-23 2-45 2-68 0-79-8-157-22-232 657 12 3215 812 3710 1220z"/><path fill="#F8CED8" fill-rule="nonzero" d="M15843 16167c-241 325-10662 1475-10838 1207-177-269-307-3055 0-3631 171-322 2202-1356 4096-2118 1490-599 2924-990 3092-1011 381-47 3427 846 3650 1254s241 3974 0 4299z"/><path fill="url(#b)" d="M5672 17449c-40 0-79 0-115-1-52-168 45-1977 45-2271 0-93 8-249 18-425 535-170 1280-316 2110-444 17 146-14 301-139 589-28 65-47 152-59 253-1020 178-1828 933-1828 1981 0 108 9 214 26 318h-58zm-483-18c-110-12-176-30-191-55-67-106-120-448-153-880-30-393-44-861-37-1295 60-98 185-190 362-275-32 433-15 1285-23 1540-7 246 42 688 42 965zm4524-235c1-21 1-43 1-65 0-1244-685-1947-1619-2013 13-60 28-116 42-166 76-257 95-602 99-719 345-49 700-96 1057-141 25 8 51 12 76 12 21 0 41-3 61-8 23-6 45-16 65-29 122-15 245-30 367-45-9 42-18 86-28 132-59 269 22 613 105 826 84 214-130 781-158 994-28 214 28 650 53 817 4 34 10 63 16 87-18 112 8 239 84 298-74 7-148 14-221 20zm495-46c1 0 1-1 2-1 308-190 156-515 91-738s0-390 0-547c0-156 205-661 339-846 133-186 24-539 1-760-12-119 40-245 90-338 1211-141 2307-267 2937-400-16 103-19 206 5 303 111 458 232 892 186 1157-122 693-198 1122-196 1358-52 164-29 321 60 407-1020 143-2277 286-3515 405zm3963-470c146-239 62-764 78-1022 18-315 83-817 143-1131 46-237 116-733 139-972 509 473 481 2024 407 2998-226 41-484 84-767 127zm-7407-2914c0-2 0-4-1-5 272-14 576-33 911-60-1 5-2 11-3 16-333 25-635 40-907 49zm1963-171c72-9 146-18 221-27 2 2 4 5 6 7-73 6-147 12-227 20zm2228-336c-1-2-2-3-3-5 122-22 240-45 356-68-110 24-206 44-353 73z"/><path fill="url(#c)" d="M4892 17171l-2-12z"/><path fill="#D8D5D5" fill-rule="nonzero" d="M6224 18119c-334-2-594-14-775-41-82-13-150-31-208-58 163 58 508 89 983 99zm1339-15c910-32 1988-101 3076-197-1138 103-2273 181-3073 196-1 0-2 0-3 1zm-2448-175c-79-85-128-213-168-409 41 176 96 318 168 409zm7676-247c237-29 470-59 695-90-214 30-448 60-695 90zm2061-307c839-155 1448-323 1645-489-239 215-1087 390-1644 489h-1zm1922-1299c168-1176 36-3214-144-4053 213 936 324 3207 144 4053zm-264-4407c-13-18-32-36-56-56 19 7 38 26 56 56z"/><path fill="url(#d)" d="M6361 18120c-47 0-93 0-137-1-475-10-820-41-983-99-49-23-91-52-126-91-72-91-127-233-168-409-20-98-38-214-55-349 8 47 53 224 291 400-2 18-5 33-8 47-47 195 65 325 223 325 129 0 115-267 86-496 23 0 48 1 73 1 0 1 1 2 1 3 27 76 69 219 79 345 309 103 743 176 1358 176 193 0 403-7 633-23 386-20 774-56 1126-94 2191-200 4919-535 6133-761 16-141 34-327 51-541 553-102 917-199 991-281 502-557 243-4050-50-4407-13-16-31-24-56-26-78-95-289-213-573-338-77-154-1844-657-2486-803v-5c597 104 2392 440 3690 920 24 20 43 38 56 56 43 67 83 190 120 354 180 839 312 2877 144 4053 0 1 0 2-1 3-89 416-147 689-275 805 0 1-1 1-1 2-197 166-806 334-1645 489-169 30-672 120-1366 217-225 31-458 61-695 90-9 1-18 2-28 3-648 78-1387 155-2124 222-1088 96-2166 165-3076 197-463 8-866 16-1202 16z"/><path fill="#E0ABB0" fill-rule="nonzero" d="M11308 13186c73-15 153-33 257-56l27-6c0 1 0 3 1 5-93 19-188 38-285 57zm972-208c-26-89-94-174-179-253 63-16 126-31 187-47 79 81 101 181 104 257 452-112 852-221 1207-327 11 4 22 7 32 11-384 116-832 237-1351 359zm2011-573c-1-104-83-210-187-298 53-21 104-41 154-61 14 13 26 25 37 37 155 164 207 151 414 171-126 48-265 99-418 151zm1065-411v-3c162-68 299-129 417-182-54-51-121-100-206-144-78-40-183-90-315-148 1-4 1-7 1-9-1-2-1-4-3-7 284 125 495 243 573 338h-11c-81 0-222 58-456 155z"/><path fill="url(#e)" d="M10035 17209c-41 0-74-12-101-33 91-9 182-17 274-26-68 42-125 59-173 59zm3868-396c-76 0-136-25-180-68 155-22 305-43 448-65-32 53-77 93-136 111-48 15-92 22-132 22z"/><path fill="#D8D5D5" fill-rule="nonzero" d="M4770 15296s4-1031 174-1392c-11 38-20 79-29 123-66 244-99 687-107 1174-19 31-32 63-38 95z"/><path fill="#E0ABB0" fill-rule="nonzero" d="M4915 14027c9-44 18-85 29-123 25-52 53-91 85-110 15 9 32 17 51 24-38 7-64 15-78 26-34 27-63 91-87 183zm600-231c-10-17-21-32-33-42-40-30-38-90-50-143 4 0 7 0 11-1 37 16 143 68 188 164 117 2 251 3 402 3 94 0 195 0 303-1 1 0 3 1 4 2-340 11-615 14-825 18zm1142-30c-5-25-10-44-15-58-37-102-130-74-195-93-19-5-30-26-38-55l135-9c80 17 199 66 219 210-36 1-71 3-106 5zm1565-116c-3-7-6-15-9-22-10-33-26-59-41-83-15-33-34-78-63-130 58-6 116-12 173-19 134 98 250 148 339 210 37-4 72-8 106-11-175 20-343 39-505 55zm1418-177c-37-57-99-114-194-228 1 0 1 0 2-1 130 55 297 80 387 200-66 10-131 20-195 29zm1001-162c0-67-25-161-84-251 73-14 146-27 217-41 71 67 132 145 178 235-6 2-13 3-20 4-98 18-195 36-291 53zm-1953-1421c-2-1-4-1-6-2h1c1 1 3 1 6 1 0 0-1 0-1 1z"/><path fill="url(#f)" d="M5557 17448c-25 0-50-1-73-1-7-51-14-101-21-145-37-241-19-1774 0-1932 19-157 37-863 74-1086 32-189 30-391-22-488 210-4 485-7 825-18 33 18 61 34 80 46 92 61 18 256-38 413-37 106-8 166 61 166 33 0 76-14 125-45 129-80 118-434 89-592 35-2 70-4 106-5 1 1 1 3 1 5 272-9 574-24 907-49-3 19-6 37-7 56-9 121-19 186 37 390 14 50 24 97 29 145-830 128-1575 274-2110 444-10 176-18 332-18 425 0 294-97 2103-45 2271zm4377-272c-76-59-102-186-84-298 9 36 20 60 34 71 1 1 1 3 2 5 29 95 85 132 144 132 124 0 263-157 213-276-74-176 0-687-59-901-60-214 133-659 254-882 120-223 47-492-36-688-82-197 36-334 126-422s75-428 108-555c3-14 5-32 5-51 96-17 193-35 291-53 7-1 14-2 20-4 1 2 2 3 3 5 147-29 243-49 353-73 97-19 192-38 285-57 6 52 0 108-19 170-21 68-11 119 20 157 11 53 62 91 194 91 20 0 41-1 64-2 2 0 3 0 4-1 6 1 13 1 19 1 113 0 224-24 275-52 79-46 135-224 135-388v-1c9-42 7-85-5-126 519-122 967-243 1351-359 88 27 167 52 228 77 135 56-128 440-191 824-630 133-1726 259-2937 400-50 93-102 219-90 338 23 221 132 574-1 760-134 185-339 690-339 846 0 157-65 324 0 547s217 548-91 738c-1 0-1 1-2 1-92 9-183 17-274 26zm3789-431c-89-86-112-243-60-407 1 127 25 199 76 227 34 33 82 51 130 51 68 0 136-37 166-122 86-244 20-593 58-858 2-11 4-22 5-33 4-23 8-49 12-77 38-247 65-494 77-686 20-179 40-339 62-426 54-223 92-1189 42-1328-51-139-54-381-3-641 2-13 3-26 3-40 153-52 292-103 418-151 16 2 33 3 50 5 251 28 214 121 177 325-26 143-48 391-61 568-12 87-18 161-14 208 0 110 32 315 121 447 26 54 52 89 75 89 3 0 6-1 9-2 10 7 20 10 28 10 75 0 83-252 84-508v-1c16-424 86-827 112-979 2-15 5-31 7-46 13-67 77-233 59-376 234-97 375-155 456-155h11c25 2 43 10 56 26 293 357 552 3850 50 4407-74 82-438 179-991 281 74-974 102-2525-407-2998-23 239-93 735-139 972-60 314-125 816-143 1131-16 258 68 783-78 1022-143 22-293 43-448 65zm-8915-1544c8-487 41-930 107-1174 24-92 53-156 87-183 14-11 40-19 78-26 65 28 146 54 193 94 97 84 4 567-70 790-14 42-25 121-33 224-177 85-302 177-362 275zm3287-83c-49-4-98-5-148-5h-8c32-304 73-748 50-829-3-32-3-55 0-74 5-17 13-35 24-53 35-42 101-67 171-253 65-117 61-190 38-254 162-16 330-35 505-55 80-8 154-14 227-20 34 43 63 87 86 132-7 195 116 344 253 385-357 45-712 92-1057 141-4 117-23 462-99 719-14 50-29 106-42 166zm1400-1051c130-83 184-288 184-433 0-72-12-117-39-161 64-9 129-19 195-29 21 28 37 61 48 101 37 132 19 278-21 477-122 15-245 30-367 45z"/><path fill="#FDF2F6" fill-rule="nonzero" d="M5487 13482c31-25 77-56 138-96 0 0 998-535 2191-1098-31 48 3 130 46 206-208 86-412 171-609 252-26-3-50-5-72-5-165 0-223 75-223 75-23 23-38 46-45 71-606 252-1114 464-1426 595zm2810-1167c-10-1-19-2-27-3-155-52-231-80-298-80-15 0-30 1-45 4 138-65 277-129 418-193 22 65 76 132 140 195-63 25-126 51-188 77z"/><path fill="#F8E9EB" fill-rule="nonzero" d="M8288 12319c-6-3-12-5-18-7 8 1 17 2 27 3-3 1-6 2-9 4z"/><path fill="#FDF2F6" fill-rule="nonzero" d="M9147 11966c-147-73-337-77-422-77h-36c370-163 740-318 1089-451-10 85 70 145 173 202-262 106-532 215-804 326z"/><path fill="#F8E9EB" fill-rule="nonzero" d="M9077 11995c-9-6-17-11-25-14-19-9-34-13-46-13-45-19-94-34-149-43-62-11-118-23-169-35 0-1 1-1 1-1h36c85 0 275 4 422 77-24 10-47 20-70 29z"/><path fill="#FDF2F6" fill-rule="nonzero" d="M10497 11420c-27-14-53-28-78-43-53-31-114-72-179-106 90-30 178-59 262-85 35 65 75 127 120 184-41 17-83 33-125 50z"/><path fill="#FCEDF2" fill-rule="nonzero" d="M6811 13731c-95 0 166-80 370-94 48-3 99-4 147-4 160 0 297 15 262 33-47 23-738 64-771 65h-8zM12552 12824c-67 0-110-10-114-30-11-46 177-128 419-183 134-31 257-46 342-46 67 0 110 10 114 30 11 46-177 128-418 183-135 30-258 46-343 46z"/><path fill="url(#g)" d="M7022 17966c-445 0-860-32-1184-118-49-127-86-261-108-399 452-3 1085-32 1817-80 0 18 2 33 4 47-56 207 28 298 141 298 89 0 196-56 266-157 35-51 55-128 64-221 534-39 1106-86 1691-140-7 194-41 381-99 557-237 29-533 66-860 102-367 33-718 63-1045 88l-81 6c-204 10-408 17-606 17z"/><path fill="url(#h)" d="M5730 17449c-17-104-26-210-26-318 0-1048 808-1803 1828-1981-60 490 42 1297 59 1428 21 158-1 418-39 706-4 32-5 60-5 85-732 48-1365 77-1817 80zm1166-1797c-95 0-195 22-292 70-270 133-405 410-302 619 66 134 215 208 384 208 94 0 195-23 292-70 269-134 405-411 302-620-67-134-215-207-384-207zm1126 1684c35-341-69-897-64-1167 5-289 63-731 137-1051 934 66 1619 769 1619 2013 0 22 0 44-1 65-585 54-1157 101-1691 140z"/><path fill="url(#i)" d="M7628 17949l81-6c327-25 678-55 1045-88-352 38-740 74-1126 94z"/><path fill="url(#j)" d="M7692 17714c-113 0-197-91-141-298 1 6 2 11 3 16-17 89 49 125 126 125 79 0 170-38 195-94 11-24 15-65 15-117 44-4 88-7 132-10-9 93-29 170-64 221-70 101-177 157-266 157z"/><path fill="url(#k)" d="M7890 17346c0-194-57-541-86-730-22-148 17-526 54-830 16-117 30-219 38-286 3-29 8-67 13-111 0-4 0-8 1-12 5-44 16-143 29-264h8c50 0 99 1 148 5-74 320-132 762-137 1051-5 270 99 826 64 1167-44 3-88 6-132 10z"/><path fill="url(#l)" d="M6686 16549c-169 0-318-74-384-208-103-209 32-486 302-619 97-48 197-70 292-70 169 0 317 73 384 207 103 209-33 486-302 620-97 47-198 70-292 70z"/><path fill="#FADDE6" fill-rule="nonzero" d="M5443 13610c-7-2-11-4-12-4-8-32-21-61-54-78 34-14 70-30 110-46-57 44-65 65-31 65 53 0 212-52 446-140-11 58 26 100 62 143 9 10 23 21 40 34-184 10-371 19-561 26z"/><path fill="#ECC8CB" fill-rule="nonzero" d="M5432 13611c0-2-1-4-1-5 1 0 5 2 12 4-4 1-7 1-11 1z"/><path fill="#FADDE6" fill-rule="nonzero" d="M6544 13551c-22-4-41-6-55-6-70-4-122-258-122-258h-3c-9 0-17 1-24 4-13-16-30-28-52-36 189-75 401-162 631-257 67 187 387 398 570 479-306 28-621 53-945 74z"/><path fill="#ECC8CB" fill-rule="nonzero" d="M6409 13560c-18-68-18-182-64-261-2-3-3-5-5-8 7-3 15-4 24-4h3s52 254 122 258c14 0 33 2 55 6l-135 9z"/><path fill="#FADDE6" fill-rule="nonzero" d="M8282 13396c-70-51-146-116-225-203-194-214-430-329-604-389-11-5-22-10-32-15 161-67 326-137 494-207 15 24 28 44 37 60 48 91 620 530 676 600 15 20 54 55 104 100-148 19-297 37-450 54z"/><path fill="#ECC8CB" fill-rule="nonzero" d="M8109 13415c-57-103-152-236-322-362-107-100-226-194-334-249 174 60 410 175 604 389 79 87 155 152 225 203-57 7-115 13-173 19zm1337-170c-1-1-1-2-2-2 1 0 3 1 4 1-1 1-1 1-2 1z"/><path fill="#FADDE6" fill-rule="nonzero" d="M10774 13019c-288-272-731-369-928-453-260-112-408-279-566-493-11-15-24-29-38-42 284-116 561-228 823-332 134 70 264 147 264 272 0 160 270 122 418 270 149 148 251 436 493 529 75 29 145 66 202 110-214 47-437 94-668 139z"/><path fill="#ECC8CB" fill-rule="nonzero" d="M10557 13060c-76-117-209-226-423-264-427-74-503-286-596-314-28-9-73-54-126-114-81-109-154-219-252-303 27-11 55-23 82-34 14 13 27 27 38 42 158 214 306 381 566 493 197 84 640 181 928 453-71 14-144 27-217 41z"/><path fill="#FADDE6" fill-rule="nonzero" d="M8569 12373c-4 0-8 0-13-2-26-7-54-15-83-22 31-13 62-25 92-38 12 10 24 19 36 29-5 21-14 33-32 33z"/><path fill="#ECC8CB" fill-rule="nonzero" d="M9229 13007c-115-112-201-167-269-202-36-24-67-42-89-51-155-69-218-269-449-384l51-21c29 7 57 15 83 22 5 2 9 2 13 2 18 0 27-12 32-33 53 43 104 79 140 105 110 79 354 351 488 562z"/><path fill="#FADDE6" fill-rule="nonzero" d="M12288 12678c-25-26-56-50-93-70-266-147-545-328-426-335 118-7 802-92 859-163 30-3 59-5 86-5 128 0 233 34 290 145 36 70 97 128 170 176-268 84-564 168-886 252z"/><path fill="#ECC8CB" fill-rule="nonzero" d="M12101 12725c-159-146-376-266-478-332-8-5-16-11-24-16-151-104-128-235-86-247 3-1 7-1 11-1 22 0 59 14 128 28s170 28 321 28c21 0 41 0 63-1 9 1 19 1 28 1 103 0 217-20 329-40 81-14 160-29 235-35-57 71-741 156-859 163-119 7 160 188 426 335 37 20 68 44 93 70-61 16-124 31-187 47zm2003-618c-145-124-331-213-403-217-130-7-460-60-558-120-9-6-18-12-27-19-96-71-316-272-450-393-31-31-61-60-88-87 21-33 41-67 58-102 62 107 185 215 238 273 103 111 291 159 472 159 16 0 32 0 48-1h9c188 0 659 269 855 446-50 20-101 40-154 61z"/><path fill="#FADDE6" fill-rule="nonzero" d="M14946 11732c-50-10-99-20-146-31-120-32-239-59-332-77-103-24-189-44-252-55h-2c-190-72-512-252-695-397v-1c-39-53-87-99-143-138-1 0-1-1-2-2 104 18 200 36 284 55 43 10 83 19 120 28 186 69 277 95 292 95 20 0-91-44-292-95-14-5-29-10-45-16-453-171-732-276-976-322 3-23 5-47 7-70 1156 280 2002 597 2488 811-11 35-113 111-306 215z"/><path fill="url(#m)" d="M15250 11501c-686-301-1798-641-2486-799v-4c642 146 2409 649 2486 803z"/><path fill="#ECC8CB" fill-rule="nonzero" d="M15252 11517c-486-214-1332-531-2488-811v-4c688 158 1800 498 2486 799 2 3 2 5 3 7 0 2 0 5-1 9z"/><path fill="#FADDE6" fill-rule="nonzero" d="M10800 11552c-2-1-5-1-8-2-58-21-115-45-172-70 24-10 48-19 72-29 34 36 70 69 108 101z"/><path fill="#FDF6F8" fill-rule="nonzero" d="M5456 13547c-34 0-26-21 31-65 312-131 820-343 1426-595-11 35-8 73 6 111-230 95-442 182-631 257-25-9-56-13-88-13-102 0-218 39-236 57-38 42-56 77-62 108-234 88-393 140-446 140zm1965-758c-29-13-56-22-82-28-31-7-59-12-86-15 197-81 401-166 609-252 18 31 37 61 53 88-168 70-333 140-494 207zm1052-440c-61-15-127-28-176-34 62-26 125-52 188-77 26 25 53 50 80 73-30 13-61 25-92 38z"/><path fill="#FBF1F2" fill-rule="nonzero" d="M8422 12370c-27-13-57-26-89-37-16-5-31-10-45-14 3-2 6-3 9-4 49 6 115 19 176 34l-51 21z"/><path fill="#FDF6F8" fill-rule="nonzero" d="M9242 12031c-28-26-60-47-95-65 272-111 542-220 804-326 36 20 75 39 114 59-262 104-539 216-823 332z"/><path fill="#FBF1F2" fill-rule="nonzero" d="M9160 12065c-11-10-22-19-34-27-18-18-34-32-49-43 23-9 46-19 70-29 35 18 67 39 95 65-27 11-55 23-82 34z"/><path fill="#FDF6F8" fill-rule="nonzero" d="M10620 11480c-42-19-84-39-123-60 42-17 84-33 125-50 22 28 46 55 70 81-24 10-48 19-72 29zm3450-271c-15 0-106-26-292-95 201 51 312 95 292 95zm-292-95c-37-9-77-18-120-28-84-19-180-37-284-55-34-27-78-50-125-68-120-53-261-81-407-81-35 0-69 2-104 5 8-36 14-73 19-111 244 46 523 151 976 322 16 6 31 11 45 16z"/><path fill="#892F24" fill-rule="nonzero" d="M4988 13708c56-98 43-178 278-196 234-18 132 177 216 242 83 65 92 307 55 530s-55 929-74 1086c-19 158-37 1691 0 1932 37 242 93 641-65 641s-270-130-223-325c46-195-37-836-28-1152 9-315-19-1541 56-1764 74-223 167-706 70-790-98-83-342-107-285-204zM5964 13299c29-30 316-111 381 0 65 112 37 297 102 316s158-9 195 93 75 557-74 650c-148 93-241 37-186-121 56-157 130-352 38-413-93-60-400-209-456-274-55-65-111-130 0-251zM12809 10885s464 9 604 186c139 176 743 510 910 529 167 18 994 195 1012 362 19 167-93 715-139 966s37 1077-130 966c-167-112-213-446-204-567 9-120 37-538 74-743 37-204 74-297-177-325-250-28-297 0-464-176-167-177-706-492-901-483s-408-37-520-158c-111-121-520-455-65-557z"/><path fill="#892F24" fill-rule="nonzero" d="M12391 11098c56 2 780 873 1096 792 190-49 852 300 788 534-63 235-39 473 4 818 44 345-105 903-86 1348 19 446-204 2006-409 1988-204-19-130-437 75-1598 46-265-75-699-186-1157-112-459 357-1056 186-1127-223-93-716-177-855-446-101-197-352-151-611-105-215 38-434 76-578-25-315-223-798-279-724-464 74-186 464-576 1300-558z"/><path fill="#892F24" fill-rule="nonzero" d="M9802 11372c181-308 444-97 617 5 268 158 654 279 839 297 186 19 700 358 490 402-211 44-546 118-378 174 167 56 693 451 835 594 142 144 75 574-55 649-130 74-671 111-576-194 84-269-93-436-334-529-242-93-344-381-493-529-148-148-418-110-418-270 0-287-690-321-527-599zM8338 11954c43-190 211-80 519-29 530 88 488 678 1091 845 279 77 651 399 567 650-83 251-47 400-186 585-139 186 9 362 0 557-9 196-204 734-250 938-47 205 18 1189-84 1356s-137 103-161-65c-25-167-81-603-53-817 28-213 242-780 158-994-83-213-164-557-105-826 59-270 94-450 49-609-83-303-492-218-594-431-102-214-418-576-548-669s-442-319-403-491z"/><path fill="#892F24" fill-rule="nonzero" d="M7853 12259c136-55 181-25 480 74 306 103 364 344 538 421 174 76 857 619 753 1069-105 449-520 264-544 15s-397-525-452-596c-56-70-628-509-676-600-49-90-235-327-99-383zM6958 12816s93-120 381-55 752 585 780 687 176 160 65 456c-112 296-214 185-195 380s-65 975-93 1216c-28 242-141 938-117 1133 24 196 106 749 0 830s-264 109-227-179c38-288 60-548 39-706-20-158-165-1301 0-1681 166-381 166-530 110-734s-46-269-37-390 78-245-73-262c-150-17-884-453-633-695z"/><path fill="#682A22" fill-rule="nonzero" d="M12563 10915s-14 260 203 351c143 59 545 143 647 143 202 0 627 418 1149 418 354 0 571 286 327 370-93 32 118 122 104 258-14 137-146 724-132 905s132 567 205 534 95-33 112-499c18-467 101-909 118-1017 16-108 212-547-177-614-394-67-730-167-903-195-174-27-611-281-697-398-181-248-578-346-956-256z"/><path fill="#682A22" fill-rule="nonzero" d="M10229 11266s422 314 670 292c104-10 282 48 467 105 258 80 530 160 635 60 181-172 499-510 562-457 63 52 482 443 580 504 98 60 428 113 558 120s637 295 587 555c-51 260-48 502 3 641 50 139 12 1105-42 1328-55 223-104 925-151 1193-48 268 27 634-63 887s-520 84-269-241c250-325 55-446 130-706 74-260 65-1052-19-1208-84-157-149-701 19-1163 167-462 157-564-19-629s-37-210-251-291c-213-80-529-286-817-243-288 42-383 161-767 171-190 5-311-11-390-27-81-17-117-33-139-27-42 12-65 144 87 248s756 409 685 726c-72 317 4 407-433 441-436 33-194-259-194-352s428-192 151-397c-195-143-672-357-811-540s-275-271-430-366-124-234-204-318c-81-84-515-492-135-306zM9052 11981c119 55 394 473 486 501 93 28 169 240 596 314 428 75 534 439 502 566-33 127-18 467-108 555s-208 225-126 422c83 196 156 465 36 688-121 223-314 668-254 882 59 214-15 725 59 901s-268 436-357 144c-89-293 51-283 97-460 47-176 30-323 19-464-26-303 111-678 139-836s-204-606-177-791c28-184 204-691 111-812s273-197 245-315-690-459-820-608-341-460-434-534-133-209-14-153z"/><path fill="#682A22" fill-rule="nonzero" d="M8439 12608c-153-107 19-308 251 20 156 222 259 18 754 614 169 204 235 225 235 392s-71 413-249 462-399-130-390-389c8-259-95-394-206-531s-307-507-395-568zM7227 12803s302 59 558 249c257 189 343 394 387 493 45 98 114 174 12 359-103 185-228 266-195 380 32 114-62 939-79 1093-18 155-142 999-106 1239s120 735 71 847c-49 111-356 151-321-33 36-184 57-546 63-727 7-181-166-1442-51-1609 114-167 279-647 238-755-40-109-131-408-96-516s341-209 223-312c-119-102-341-430-439-465-97-35-433-292-265-243zM6381 13400s18 174 42 194c24 21-78 33-87-49-9-83 2-240 45-145zM6503 13623c14-4 137-16 154 143 17 161 52 327 0 513s-300 181-287 69c12-111 142-368 110-431-33-63-41-128-100-139-60-11-30-109 123-155zM5409 13792s155-64 146 180c-8 243-64 1004-81 1255s-32 1058-32 1163c-1 104-33 988 41 1128 73 139 84 411-85 425-170 14-287-121-228-297 58-177 125-790 98-971-26-181-54-794-40-1072 14-279-52-725 40-989 93-265 102-620 87-669s-37-160 54-153z"/><path fill="#A93D29" fill-rule="nonzero" d="M5102 13614s61-47 137-9c76 39 130 99 92 104-38 6-59 52-108 48s-264-34-121-143zM6003 13343s73-82 183-48c109 35 58 45 65 127 9 82 38 135 58 137 19 3-30 55-70 45s-225-98-236-141c-10-44-49-84 0-120z"/><path fill="#B46C5E" fill-rule="nonzero" d="M7771 13591c-16 0-30-15-28-46 3-84-66-176-251-218s-480-270-515-382c-35-111 90-147 101-149 5 0 9-1 14-1 71 0 82 118 117 161 37 45 161 142 293 167 133 24 269 265 302 367 21 63-8 101-33 101zm-702-741c-7 0-13 2-20 6-65 39 21 130 83 203 55 66 203 125 248 125 5 0 9-1 11-3 19-16-127-107-189-180-54-65-91-151-133-151zM8659 13106c-61 0-231-131-407-317-197-208-325-405-288-441 6-5 15-8 27-8 66 0 223 86 390 263 197 208 333 462 295 498-4 4-9 5-17 5zm-586-677c-4 0-8 1-10 3-19 16 15 89 77 163 54 64 110 107 137 107 4 0 7-1 10-3 19-16-16-89-78-163-53-63-110-107-136-107zM9521 13056c-73 0-285-278-561-555-300-301-565-508-511-562 6-7 17-10 32-10 106 0 402 163 664 426 300 300 446 641 392 695-4 4-10 6-16 6zM11003 12371c-23 0-143-119-200-158-74-51-336-153-384-177-48-23-48-113-94-209-47-97-565-337-404-455 8-6 38-37 78-37 23 0 48 9 76 37 78 79 253 247 289 339 35 93 109 200 197 237 89 37 367 269 432 385 15 27 17 38 10 38z"/><path fill="#A93D29" fill-rule="nonzero" d="M13579 12419c-19 43-121 38-228-10-106-48-177-121-158-163s121-37 227 10c107 48 178 121 159 163zM14843 12015c0 63-101 114-225 114-125 0-226-51-226-114 0-62 101-113 226-113 124 0 225 51 225 113z"/><path fill="#D5AEA7" fill-rule="nonzero" d="M8277 12702c-27 0-83-43-137-107-62-74-96-147-77-163 2-2 6-3 10-3 26 0 83 44 136 107 62 74 97 147 78 163-3 2-6 3-10 3zM7380 13184c-45 0-193-59-248-125-62-73-148-164-83-203 7-4 13-6 20-6 42 0 79 86 133 151 62 73 208 164 189 180-2 2-6 3-11 3z"/><path fill="#D18F83" fill-rule="nonzero" d="M6103 13446c-33 0-60-27-60-60s27-59 60-59c34 0 61 26 61 59s-27 60-61 60zM5154 13674c-40 0-72-12-72-26 0-15 32-27 72-27s73 12 73 27c0 14-33 26-73 26z"/><path fill="#CE2427" fill-rule="nonzero" d="M12766 10625c0 664-537 1202-1201 1202s-1201-538-1201-1202c0-663 537-1201 1201-1201s1201 538 1201 1201z"/><path fill="#AB2827" fill-rule="nonzero" d="M11521 11764c-257 0-467-94-599-189-132-94-186-189-130-189 8 0 18 2 31 6 127 43 296 76 477 76 324 0 686-105 921-451 596-873-297-1421-297-1421 985 296 977 1593 133 2031-192 99-373 137-536 137z"/><path fill="#E44B51" fill-rule="nonzero" d="M11144 10518c-247 0-472-90-545-238-116-232 104-510 466-689 21-10 43-19 65-28 0 1 0 3 1 4-279 152-413 378-323 560 56 114 207 177 385 177 119 0 250-28 372-89 286-142 329-263 352-486 115 232 9 515-352 695-131 65-280 94-421 94zm-530-356c-1 0-2 0-2 1-12 13 15 116 94 183 58 48 127 64 165 64 14 0 24-2 27-6 11-13-74-43-154-109-73-62-115-133-130-133z"/><path fill="#F7C1C5" fill-rule="nonzero" d="M10871 10410c-38 0-107-16-165-64-79-67-106-170-94-183 0-1 1-1 2-1 15 0 57 71 130 133 80 66 165 96 154 109-3 4-13 6-27 6z"/><path fill="#CE2427" fill-rule="nonzero" d="M11402 10001s-166-836-260-1201-219-969-198-1062c21-94-281-32-240 62 42 94 105 844 240 1172s344 1345 458 1029z"/><path fill="#982825" fill-rule="nonzero" d="M11250 10175c-36 0-75-3-114-9-440-65-207-437-131-437 14 0 22 11 21 39 0 0-42 140 172 184 20 4 39 6 58 9-2-12-4-26-6-42 37 87 72 142 103 142 18 0 34-18 49-60 0 0-2-14-7-39 211-22 327-152 382-152 5 0 10 2 15 4 55 36-142 361-542 361z"/><path fill="#BFBCBC" fill-rule="nonzero" d="M10721 7865c-15-8-23-20-13-39 0 0 2 3 6 5 2 10 5 21 7 34zm223-50c-1-17-2-32-2-45 8 9 11 21 4 40-1 1-1 3-2 5z"/><path fill="#982825" fill-rule="nonzero" d="M11353 10061c-31 0-66-55-103-142-17-119-48-343-70-489-32-209-84-464-126-584-41-119-153-687-182-768-28-81-62-182-88-193-5-1-11-3-18-5-4-8-6-13-6-13 0 4 1 8 1 12-13-4-28-8-40-14-2-13-5-24-7-34 7 5 22 11 48 11 20 0 46-4 81-16 94-32 82-69 46-72 15 0 40 3 53 16 0 13 1 28 2 45-21 63 22 172 22 231 0 61 224 1003 233 1043 9 39 177 827 186 874 3 0 6 0 10-1 5 25 7 39 7 39-15 42-31 60-49 60zm-477-2307c3 0 5-1 7-1s4 1 6 1h-13z"/><path fill="#DE3138" fill-rule="nonzero" d="M11209 9822c-3 0-8-22-17-60 6 19 13 36 19 54-1 4-1 6-2 6z"/><path fill="#DE3138" fill-rule="nonzero" d="M11211 9816c-6-18-13-35-19-54-34-152-110-554-198-744-50-108-134-192-233-1139 2 0 4 1 5 1 17 38 67 157 88 336 26 219 130 599 166 708 37 110 196 758 191 892z"/><path fill="#B43638" fill-rule="nonzero" d="M10766 7880c-1 0-3-1-5-1 0-4-1-8-1-12 0 0 2 5 6 13z"/><path fill="#FEFEFE" fill-rule="nonzero" d="M10751 7643c-12 0-20-2-21-7-3-9 23-25 57-34 18-5 34-8 47-8 12 0 20 2 21 7 3 10-23 25-58 35-17 5-34 7-46 7z"/><path fill="#DE3138" fill-rule="nonzero" d="M11208 11376c-16 0-32 0-49-1-825-30-718-986-636-986 3 0 6 1 8 4 83 70 262 254 631 254 384 0 684-246 810-246 56 0 78 49 57 191-73 498-325 784-821 784zm-425-712h-8c-102 9-167 158-154 316 13 154 107 286 205 286 3 0 6-1 9-1 101-8 101-152 87-310-13-154-45-291-139-291z"/><path fill="#EB7078" fill-rule="nonzero" d="M10826 11266c-98 0-192-132-205-286-13-158 52-307 154-316h8c94 0 126 137 139 291 14 158 14 302-87 310-3 0-6 1-9 1z"/></svg>