<?xml version="1.0" encoding="UTF-8"?>
<!DOCTYPE svg PUBLIC "-//W3C//DTD SVG 1.1//EN" "http://www.w3.org/Graphics/SVG/1.1/DTD/svg11.dtd">
<!-- Creator: CorelDRAW X7 -->
<svg xmlns="http://www.w3.org/2000/svg" xml:space="preserve" width="958px" height="1059px" version="1.1" shape-rendering="geometricPrecision" text-rendering="geometricPrecision" image-rendering="optimizeQuality" fill-rule="evenodd" clip-rule="evenodd"
viewBox="0 0 821 907"
 xmlns:xlink="http://www.w3.org/1999/xlink">
 <defs>
    <linearGradient id="id0" gradientUnits="userSpaceOnUse" x1="34.2705" y1="403.386" x2="770.116" y2="403.386">
     <stop offset="0" stop-opacity="1" stop-color="#F9CDCA"/>
     <stop offset="1" stop-opacity="1" stop-color="#D5A0A4"/>
    </linearGradient>
    <linearGradient id="id1" gradientUnits="userSpaceOnUse" x1="249.249" y1="545.337" x2="744.506" y2="545.337">
     <stop offset="0" stop-opacity="1" stop-color="#EB6159"/>
     <stop offset="1" stop-opacity="1" stop-color="#CC2528"/>
    </linearGradient>
    <linearGradient id="id2" gradientUnits="userSpaceOnUse" x1="116.642" y1="411.667" x2="708.469" y2="411.667">
     <stop offset="0" stop-opacity="1" stop-color="#EB6159"/>
     <stop offset="1" stop-opacity="1" stop-color="#CC2528"/>
    </linearGradient>
    <linearGradient id="id3" gradientUnits="userSpaceOnUse" x1="365.185" y1="181.485" x2="461.355" y2="181.485">
     <stop offset="0" stop-opacity="1" stop-color="#F8CDD2"/>
     <stop offset="1" stop-opacity="1" stop-color="#EE99B2"/>
    </linearGradient>
    <linearGradient id="id4" gradientUnits="userSpaceOnUse" x1="208.103" y1="312.559" x2="638.993" y2="312.559">
     <stop offset="0" stop-opacity="1" stop-color="#EB6159"/>
     <stop offset="1" stop-opacity="1" stop-color="#CC2528"/>
    </linearGradient>
    <linearGradient id="id5" gradientUnits="userSpaceOnUse" x1="105.697" y1="366.52" x2="688.305" y2="366.52">
     <stop offset="0" stop-opacity="1" stop-color="#EC6474"/>
     <stop offset="1" stop-opacity="1" stop-color="#D2333A"/>
    </linearGradient>
    <linearGradient id="id6" gradientUnits="userSpaceOnUse" x1="258.12" y1="281.432" x2="539.03" y2="281.432">
     <stop offset="0" stop-opacity="1" stop-color="#FEE9C8"/>
     <stop offset="1" stop-opacity="1" stop-color="#F29256"/>
    </linearGradient>
    <linearGradient id="id7" gradientUnits="userSpaceOnUse" x1="29.6084" y1="497.169" x2="717.347" y2="497.169">
     <stop offset="0" stop-opacity="1" stop-color="#EC6474"/>
     <stop offset="1" stop-opacity="1" stop-color="#D2333A"/>
    </linearGradient>
    <linearGradient id="id8" gradientUnits="userSpaceOnUse" x1="78.34" y1="464.543" x2="722.737" y2="464.543">
     <stop offset="0" stop-opacity="1" stop-color="#EC6474"/>
     <stop offset="1" stop-opacity="1" stop-color="#D2333A"/>
    </linearGradient>
    <linearGradient id="id9" gradientUnits="userSpaceOnUse" x1="36.6907" y1="561.064" x2="752.254" y2="561.064">
     <stop offset="0" stop-opacity="1" stop-color="#FEE9C8"/>
     <stop offset="1" stop-opacity="1" stop-color="#F29256"/>
    </linearGradient>
    <linearGradient id="id10" gradientUnits="userSpaceOnUse" x1="165.64" y1="337.637" x2="442.741" y2="337.637">
     <stop offset="0" stop-opacity="1" stop-color="#FEE9C8"/>
     <stop offset="1" stop-opacity="1" stop-color="#F29256"/>
    </linearGradient>
    <linearGradient id="id11" gradientUnits="userSpaceOnUse" x1="108.901" y1="381.226" x2="659.276" y2="381.226">
     <stop offset="0" stop-opacity="1" stop-color="#FEE9C8"/>
     <stop offset="1" stop-opacity="1" stop-color="#F29256"/>
    </linearGradient>
    <linearGradient id="id12" gradientUnits="userSpaceOnUse" x1="98.7457" y1="481.322" x2="711.888" y2="481.322">
     <stop offset="0" stop-opacity="1" stop-color="#FEE9C8"/>
     <stop offset="1" stop-opacity="1" stop-color="#F29256"/>
    </linearGradient>
    <linearGradient id="id13" gradientUnits="userSpaceOnUse" x1="243.913" y1="273.225" x2="524.326" y2="273.225">
     <stop offset="0" stop-opacity="1" stop-color="#FEE9C8"/>
     <stop offset="1" stop-opacity="1" stop-color="#F29256"/>
    </linearGradient>
    <linearGradient id="id14" gradientUnits="userSpaceOnUse" x1="21.5454" y1="403.384" x2="770.458" y2="403.384">
     <stop offset="0" stop-opacity="1" stop-color="#D39F95"/>
     <stop offset="1" stop-opacity="1" stop-color="#A5797B"/>
    </linearGradient>
    <linearGradient id="id15" gradientUnits="userSpaceOnUse" x1="205.674" y1="312.559" x2="639.037" y2="312.559">
     <stop offset="0" stop-opacity="1" stop-color="#D84739"/>
     <stop offset="1" stop-opacity="1" stop-color="#9F2826"/>
    </linearGradient>
    <linearGradient id="id16" gradientUnits="userSpaceOnUse" x1="128.701" y1="366.52" x2="687.837" y2="366.52">
     <stop offset="0" stop-opacity="1" stop-color="#DB4B51"/>
     <stop offset="1" stop-opacity="1" stop-color="#A32E30"/>
    </linearGradient>
    <linearGradient id="id17" gradientUnits="userSpaceOnUse" x1="235.788" y1="281.432" x2="542.487" y2="281.432">
     <stop offset="0" stop-opacity="1" stop-color="#CEB693"/>
     <stop offset="1" stop-opacity="1" stop-color="#D76D37"/>
    </linearGradient>
    <linearGradient id="id18" gradientUnits="userSpaceOnUse" x1="21.5474" y1="403.386" x2="770.456" y2="403.386">
     <stop offset="0" stop-opacity="1" stop-color="#D39F95"/>
     <stop offset="1" stop-opacity="1" stop-color="#A5797B"/>
    </linearGradient>
    <linearGradient id="id19" gradientUnits="userSpaceOnUse" x1="308.534" y1="234.446" x2="516.489" y2="234.446">
     <stop offset="0" stop-opacity="1" stop-color="#D84739"/>
     <stop offset="1" stop-opacity="1" stop-color="#AE2927"/>
    </linearGradient>
    <linearGradient id="id20" gradientUnits="userSpaceOnUse" x1="104.584" y1="381.224" x2="663.029" y2="381.224">
     <stop offset="0" stop-opacity="1" stop-color="#CEB693"/>
     <stop offset="1" stop-opacity="1" stop-color="#D76D37"/>
    </linearGradient>
    <linearGradient id="id21" gradientUnits="userSpaceOnUse" x1="242.97" y1="273.225" x2="524.728" y2="273.225">
     <stop offset="0" stop-opacity="1" stop-color="#CEB693"/>
     <stop offset="1" stop-opacity="1" stop-color="#D76D37"/>
    </linearGradient>
    <linearGradient id="id22" gradientUnits="userSpaceOnUse" x1="482.964" y1="215.724" x2="602.336" y2="277.468">
     <stop offset="0" stop-opacity="1" stop-color="#5C953A"/>
     <stop offset="1" stop-opacity="1" stop-color="#74B734"/>
    </linearGradient>
    <linearGradient id="id23" gradientUnits="userSpaceOnUse" x1="482.953" y1="216.61" x2="599.688" y2="277.306">
     <stop offset="0" stop-opacity="1" stop-color="#89A532"/>
     <stop offset="1" stop-opacity="1" stop-color="#9CC229"/>
    </linearGradient>
    <linearGradient id="id24" gradientUnits="userSpaceOnUse" x1="483.011" y1="215.719" x2="602.524" y2="277.47">
     <stop offset="0" stop-opacity="1" stop-color="#476D34"/>
     <stop offset="1" stop-opacity="1" stop-color="#4F873A"/>
    </linearGradient>
    <linearGradient id="id25" gradientUnits="userSpaceOnUse" x1="481.223" y1="216.044" x2="601.971" y2="277.31">
     <stop offset="0" stop-opacity="1" stop-color="#476D34"/>
     <stop offset="1" stop-opacity="1" stop-color="#4F873A"/>
    </linearGradient>
    <linearGradient id="id26" gradientUnits="userSpaceOnUse" x1="205.678" y1="312.559" x2="639.037" y2="312.559">
     <stop offset="0" stop-opacity="1" stop-color="#B33D30"/>
     <stop offset="1" stop-opacity="1" stop-color="#822724"/>
    </linearGradient>
    <linearGradient id="id27" gradientUnits="userSpaceOnUse" x1="482.721" y1="215.724" x2="601.21" y2="277.468">
     <stop offset="0" stop-opacity="1" stop-color="#4D7B37"/>
     <stop offset="1" stop-opacity="1" stop-color="#59993A"/>
    </linearGradient>
    <linearGradient id="id28" gradientUnits="userSpaceOnUse" x1="483.004" y1="215.724" x2="602.522" y2="277.468">
     <stop offset="0" stop-opacity="1" stop-color="#AAC16B"/>
     <stop offset="1" stop-opacity="1" stop-color="#B7D275"/>
    </linearGradient>
    <linearGradient id="id29" gradientUnits="userSpaceOnUse" x1="483.207" y1="216.788" x2="602.576" y2="277.229">
     <stop offset="0" stop-opacity="1" stop-color="#BECB67"/>
     <stop offset="1" stop-opacity="1" stop-color="#CADA72"/>
    </linearGradient>
    <linearGradient id="id30" gradientUnits="userSpaceOnUse" x1="508.951" y1="215.829" x2="610.502" y2="277.409">
     <stop offset="0" stop-opacity="1" stop-color="#98A96B"/>
     <stop offset="1" stop-opacity="1" stop-color="#A3BA72"/>
    </linearGradient>
    <linearGradient id="id31" gradientUnits="userSpaceOnUse" x1="504.389" y1="167.296" x2="479.733" y2="110.269">
     <stop offset="0" stop-opacity="1" stop-color="#5C953A"/>
     <stop offset="1" stop-opacity="1" stop-color="#74B734"/>
    </linearGradient>
    <linearGradient id="id32" gradientUnits="userSpaceOnUse" x1="506.555" y1="167.296" x2="481.409" y2="110.271">
     <stop offset="0" stop-opacity="1" stop-color="#89A532"/>
     <stop offset="1" stop-opacity="1" stop-color="#9CC229"/>
    </linearGradient>
    <linearGradient id="id33" gradientUnits="userSpaceOnUse" x1="506.264" y1="167.331" x2="480.945" y2="110.285">
     <stop offset="0" stop-opacity="1" stop-color="#476D34"/>
     <stop offset="1" stop-opacity="1" stop-color="#4F873A"/>
    </linearGradient>
    <linearGradient id="id34" gradientUnits="userSpaceOnUse" x1="506.613" y1="170.936" x2="481.49" y2="111.786">
     <stop offset="0" stop-opacity="1" stop-color="#476D34"/>
     <stop offset="1" stop-opacity="1" stop-color="#4F873A"/>
    </linearGradient>
    <linearGradient id="id35" gradientUnits="userSpaceOnUse" x1="503.684" y1="167.296" x2="479.281" y2="110.271">
     <stop offset="0" stop-opacity="1" stop-color="#4D7B37"/>
     <stop offset="1" stop-opacity="1" stop-color="#59993A"/>
    </linearGradient>
    <linearGradient id="id36" gradientUnits="userSpaceOnUse" x1="506.073" y1="167.296" x2="480.838" y2="110.269">
     <stop offset="0" stop-opacity="1" stop-color="#AAC16B"/>
     <stop offset="1" stop-opacity="1" stop-color="#B7D275"/>
    </linearGradient>
    <linearGradient id="id37" gradientUnits="userSpaceOnUse" x1="506.37" y1="167.296" x2="481.116" y2="110.269">
     <stop offset="0" stop-opacity="1" stop-color="#BECB67"/>
     <stop offset="1" stop-opacity="1" stop-color="#CADA72"/>
    </linearGradient>
    <linearGradient id="id38" gradientUnits="userSpaceOnUse" x1="506.384" y1="166.619" x2="481.131" y2="109.988">
     <stop offset="0" stop-opacity="1" stop-color="#98A96B"/>
     <stop offset="1" stop-opacity="1" stop-color="#A3BA72"/>
    </linearGradient>
    <linearGradient id="id39" gradientUnits="userSpaceOnUse" x1="505.41" y1="167.294" x2="481.63" y2="110.269">
     <stop offset="0" stop-opacity="1" stop-color="#A5B629"/>
     <stop offset="1" stop-opacity="1" stop-color="#B4CD2B"/>
    </linearGradient>
    <linearGradient id="id40" gradientUnits="userSpaceOnUse" x1="505.859" y1="167.296" x2="481.07" y2="110.269">
     <stop offset="0" stop-opacity="1" stop-color="#CED489"/>
     <stop offset="1" stop-opacity="1" stop-color="#D6E191"/>
    </linearGradient>
 </defs>
 <g id="Слой_x0020_1">
  <metadata id="CorelCorpID_0Corel-Layer"/>
  <g id="_957717568">
   <path fill="#682A22" fill-rule="nonzero" d="M0 501c0,2 0,2 0,2 0,0 0,0 0,1 5,237 182,403 409,403 227,0 420,-176 410,-381 0,-7 -819,-25 -819,-25z"/>
   <path fill="#8A2C24" fill-rule="nonzero" d="M17 571c-1,-11 -3,-23 -4,-33 2,2 3,4 5,6 4,6 2,17 -1,27zm786 0c3,-11 18,-23 18,-35 0,-31 -15,-34 -33,-62 -59,-93 -203,-174 -379,-174 -154,0 -295,65 -366,139 -20,21 -37,37 -41,56l-1 0c0,1 0,3 0,5l0 0c-2,22 0,92 13,107l0 0 1 1c1,9 4,23 13,43 7,17 30,68 36,67 5,-2 -35,-78 -18,-91 2,-2 4,-1 7,0 3,1 5,3 6,5 7,10 2,21 1,31 -5,9 -2,29 36,88 18,28 49,71 58,66 9,-4 -31,-58 -46,-115 -2,-7 10,-4 14,-7 5,0 7,0 8,2 4,7 4,15 7,23 -1,13 8,38 48,94 24,35 64,70 76,66 9,-3 -53,-54 -67,-128 0,-4 4,-8 9,-12 13,-6 24,-13 34,-11 10,1 9,24 14,41 0,13 8,37 36,81 21,33 51,58 66,51 15,-8 6,-24 -3,-61 -6,-23 -20,-41 -9,-58 1,-2 3,-5 3,-7 10,-6 17,-13 24,-12 7,0 13,13 22,24 6,12 5,30 6,43 4,38 26,74 42,74 16,0 35,-36 35,-75 0,-23 -5,-32 6,-53l0 -2c6,-9 11,-17 18,-18 15,-2 26,6 39,14l0 0c13,14 4,30 2,53 -4,38 -10,55 5,60 16,5 42,-24 58,-59 19,-41 25,-65 25,-79 8,-15 14,-32 28,-42 6,-5 15,-2 24,3 1,3 3,6 3,9 -2,69 -48,118 -38,121 10,4 35,-24 52,-58 18,-37 26,-59 28,-73 11,-18 9,-45 20,-55 4,-5 10,-8 15,-10 5,0 9,0 8,4 -11,59 -41,111 -33,114 10,4 33,-36 49,-66 30,-57 34,-79 30,-88 -2,-11 -11,-25 -9,-34z"/>
   <path fill="#AA2F27" fill-rule="nonzero" d="M24 470c1,-1 2,-2 2,-3 -1,1 -1,2 -2,3zm2 -3c0,-1 0,-1 1,-1l0 0c-1,0 -1,0 -1,1z"/>
   <path fill="#AE3027" fill-rule="nonzero" d="M229 863c-2,-1 -3,-3 -6,-5 2,1 4,3 6,5zm-119 -91c-3,-4 -6,-8 -9,-13 3,4 6,9 9,13zm533 -57c3,-4 7,-8 11,-11 2,-2 5,-3 7,-3 2,0 3,0 5,1 -7,4 -14,8 -23,13zm-625 -147c-1,-2 -1,-4 -2,-6 0,-3 -1,-6 -1,-9 1,4 3,8 4,11 0,1 -1,2 -1,4zm2 -7c-3,-7 -5,-15 -7,-21 0,-1 0,-1 0,-2 1,1 2,2 2,3 2,6 3,11 5,17 0,1 0,2 0,3z"/>
   <path fill="#B83227" fill-rule="nonzero" d="M433 892c-1,0 -2,0 -3,-1 -12,-13 -28,-73 -26,-88 2,-10 -7,-49 -61,-49 -3,0 -6,1 -10,1 0,0 0,0 0,0 -53,14 10,136 -1,136 -1,0 -1,0 -2,-1 -19,-13 -55,-70 -68,-93 -11,-18 -11,-46 -17,-61 -5,-11 -18,-13 -25,-13 -3,0 -5,1 -5,1 -25,2 -41,18 -40,32 1,12 65,108 57,108 -1,0 -2,0 -3,-1 -2,-2 -4,-4 -6,-5 0,0 0,0 0,0 -36,-36 -72,-103 -77,-118 -4,-13 -6,-49 -21,-53 -5,-1 -9,-2 -13,-2 -24,0 -19,27 -10,48 8,19 36,64 31,64 -1,0 -4,-3 -11,-10 -4,-5 -8,-10 -12,-15 -3,-4 -6,-9 -9,-13 -6,-10 -12,-21 -17,-31 16,32 38,56 41,56 0,0 0,0 0,0 0,-3 -28,-42 -37,-78 -5,-20 10,-25 25,-25 3,0 6,0 9,0 18,3 22,36 24,49 12,56 68,114 72,114 0,0 0,0 0,0 0,-3 -41,-50 -52,-85 -9,-27 25,-38 34,-40 1,0 3,0 6,0 12,0 34,5 39,15 6,12 9,33 15,50 6,20 54,86 60,92 1,0 1,0 1,0 2,0 -36,-65 -39,-85 -3,-20 11,-41 21,-43 4,0 9,-1 16,-1 23,0 58,3 66,10 8,5 25,16 25,32 0,36 11,87 19,87 0,0 0,0 0,0 12,-5 -36,-127 67,-129 0,0 1,0 1,0 17,0 73,12 60,55 -2,8 -2,11 -1,11 5,0 34,-66 -19,-76 -2,0 -3,0 -4,0 30,-9 47,-17 47,-17 -64,17 -123,23 -175,23 -241,0 -359,-138 -359,-138 -13,-15 -21,-30 -26,-44 0,-1 0,-2 0,-3 11,28 35,61 85,93 116,75 233,86 306,86 16,0 30,0 41,-1 65,-3 197,-31 239,-69 5,-6 9,-8 12,-8 6,0 -3,20 -37,43 -2,-1 -3,-1 -5,-1 -2,0 -5,1 -7,3 -4,3 -8,7 -11,11 -17,8 -37,17 -62,24 19,47 -29,131 -35,134 0,0 0,0 0,0 -5,0 0,-44 8,-76 6,-24 -19,-44 -55,-44 -11,0 -24,2 -38,7 -17,6 -23,45 -22,57 0,12 3,75 -6,75zm-358 -182c-8,-20 -13,-38 -11,-43 3,-11 1,-26 0,-32 5,14 2,28 2,34 0,14 4,28 9,41zm-21 -13c0,0 -20,-31 -30,-61 -8,-24 0,-42 4,-49 -4,-6 -7,-13 -10,-19 0,-2 1,-3 1,-4 4,10 8,18 12,25 -22,22 10,86 10,86l0 0c-17,-46 -6,-66 2,-66 0,0 0,0 0,0 -24,17 11,88 11,88zm9 -65c-7,-8 -14,-15 -20,-23 1,0 1,1 2,1 10,6 15,14 18,22zm-54 -53c-1,0 -16,-89 11,-101 0,0 -1,1 -1,2 2,-3 3,-6 5,-10 -2,5 -5,11 -7,20 -1,3 -2,5 -2,8 -2,12 -3,27 0,43 0,-1 -1,-2 -2,-3 0,1 0,1 0,2 -1,-5 -1,-10 -2,-15 1,-3 1,-5 0,-7l0 -2c0,-3 0,-7 0,-10 1,-8 3,-18 3,-18 -11,16 -7,66 -7,66l0 0c0,-8 2,-15 3,-22 1,7 3,15 5,21 0,3 1,6 1,9 -2,-7 -4,-13 -5,-20 -2,7 -4,22 -2,35 0,1 0,2 0,2z"/>
   <path fill="#AD2F27" fill-rule="nonzero" d="M665 807c-6,0 28,-68 22,-92 -4,-16 1,-22 6,-22 4,0 10,5 12,11 4,15 -6,65 -32,96 -4,5 -7,7 -8,7zm31 -103c-3,0 -5,5 -5,17 1,20 -21,72 -18,72 0,0 1,-2 3,-5 15,-24 25,-63 24,-74 0,-6 -2,-10 -4,-10z"/>
   <path fill="#B83227" fill-rule="nonzero" d="M803 552c-5,0 -7,-13 -7,-25 0,-13 2,-26 6,-26 0,0 0,0 0,0 0,0 0,1 1,1 -2,2 -3,8 -3,15 0,7 2,15 4,15 1,0 2,-1 4,-3 3,-6 3,-11 2,-15 4,8 6,19 -2,32 -2,4 -4,6 -5,6z"/>
   <path fill="#AD2F27" fill-rule="nonzero" d="M751 730c-5,0 30,-69 28,-94 -1,-15 2,-21 6,-21 4,0 9,5 10,12 2,15 -10,60 -38,97 -3,4 -5,6 -6,6z"/>
   <path fill="#CE6954" fill-rule="nonzero" d="M673 793c-3,0 19,-52 18,-72 0,-12 2,-17 5,-17 2,0 4,4 4,10 1,11 -9,50 -24,74 -2,3 -3,5 -3,5z"/>
   <path fill="#B7644F" fill-rule="nonzero" d="M810 514c-2,-6 -6,-10 -7,-12 0,0 0,0 1,0 0,0 0,0 0,0 0,0 5,4 6,12z"/>
   <path fill="#D56B56" fill-rule="nonzero" d="M804 532c-2,0 -4,-8 -4,-15 0,-7 1,-13 3,-15 1,2 5,6 7,12 1,4 1,9 -2,15 -2,2 -3,3 -4,3z"/>
   <path fill="#C37F6C" fill-rule="nonzero" d="M84 728c-3,-6 -6,-12 -9,-18 3,6 6,12 9,18zm-20 -93c0,-1 0,-2 -1,-3 1,0 1,0 1,0l0 0c0,0 0,1 0,3zm-21 -26c0,0 0,0 0,0 0,0 0,0 0,0 0,0 0,0 0,0z"/>
   <path fill="#D68272" fill-rule="nonzero" d="M19 564c-1,-3 -3,-7 -4,-11 -1,-4 -1,-9 -2,-13 2,6 4,14 7,21 -1,1 -1,2 -1,3z"/>
   <path fill="#DD8471" fill-rule="nonzero" d="M429 876c-8,0 -19,-51 -19,-87 0,-16 -17,-27 -25,-32 -8,-7 -43,-10 -66,-10 -7,0 -12,1 -16,1 -10,2 -24,23 -21,43 3,20 41,85 39,85 0,0 0,0 -1,0 -6,-6 -54,-72 -60,-92 -6,-17 -9,-38 -15,-50 -5,-10 -27,-15 -39,-15 -3,0 -5,0 -6,0 -9,2 -43,13 -34,40 11,35 52,82 52,85 0,0 0,0 0,0 -4,0 -60,-58 -72,-114 -2,-13 -6,-46 -24,-49 -3,0 -6,0 -9,0 -15,0 -30,5 -25,25 9,36 37,75 37,78 0,0 0,0 0,0 -3,0 -25,-24 -41,-56 -3,-6 -6,-12 -9,-18 -5,-13 -9,-27 -9,-41 0,-6 3,-20 -2,-34 0,-2 0,-3 0,-3l0 0c0,0 0,0 -1,0 -3,-8 -8,-16 -18,-22 -1,0 -1,-1 -2,-1 0,0 0,0 0,0 0,0 0,0 0,0 0,0 0,0 0,0 -8,0 -19,20 -2,66 0,0 -32,-64 -10,-86 -4,-7 -8,-15 -12,-25 0,-1 0,-2 1,-3 5,14 13,29 26,44 0,0 118,138 359,138 52,0 111,-6 175,-23 0,0 -17,8 -47,17 1,0 2,0 4,0 53,10 24,76 19,76 -1,0 -1,-3 1,-11 13,-43 -43,-55 -60,-55 0,0 -1,0 -1,0 -103,2 -55,124 -67,129 0,0 0,0 0,0zm-348 -228c-2,0 -4,1 -6,3 -4,4 0,10 6,18 3,4 7,6 11,6 4,0 7,-2 9,-4 4,-5 2,-15 -6,-19 -6,-3 -11,-4 -14,-4zm-74 -94c0,0 -4,-50 7,-66 0,0 -2,10 -3,18 0,3 0,7 0,10l0 2c1,2 1,4 0,7 1,5 1,10 2,15 1,4 1,9 2,13 -2,-6 -4,-14 -5,-21 -1,7 -3,14 -3,22z"/>
   <path fill="#EAB1A4" fill-rule="nonzero" d="M92 675c-4,0 -8,-2 -11,-6 -6,-8 -10,-14 -6,-18 2,-2 4,-3 6,-3 3,0 8,1 14,4 8,4 10,14 6,19 -2,2 -5,4 -9,4z"/>
   <path fill="url(#id0)" d="M333 708c-25,0 -48,-1 -69,-5 -132,-22 -255,-111 -241,-204 1,-8 1,-22 4,-33l0 0c1,-7 3,-12 6,-17 1,0 1,-1 2,-2 3,-3 6,-6 8,-8 9,-8 16,-7 26,-16l14 -19 22 -32c0,0 1,-1 3,-3 17,54 93,110 207,120 13,1 26,1 39,1 132,0 294,-50 328,-133 5,-12 8,-22 8,-32 14,70 44,73 48,73 0,0 0,0 0,0 0,0 5,-4 12,-4 9,0 21,9 20,55 0,14 -1,32 -4,54 -15,123 -259,205 -433,205zm41 -266c-9,0 -19,-1 -29,-1 -167,-12 -208,-142 -208,-142l0 0c0,-10 9,-29 31,-29 5,0 11,1 17,3 9,4 17,7 24,10 -6,17 -5,39 13,60 34,39 103,67 193,67 24,0 49,-2 76,-7 10,-1 19,-3 28,-5 -43,14 -88,18 -128,18 -35,0 -66,-3 -89,-6 -23,-4 -38,-7 -40,-7 0,0 -1,0 0,0 17,12 82,29 156,29 20,0 42,-1 63,-4 -32,9 -68,14 -107,14zm3 -64c-63,0 -111,-24 -139,-49 -18,-17 -10,-41 -6,-58 2,-5 4,-10 7,-15 2,2 4,3 5,4 0,1 0,3 -1,4 -32,61 43,89 123,89 51,0 104,-11 135,-32 3,2 6,2 10,2 2,0 4,0 7,0 2,0 4,0 6,0 6,0 11,0 15,4 0,0 0,0 0,0 -13,10 -32,21 -58,31 -38,14 -73,20 -104,20zm-98 -61c-15,-7 -24,-15 -29,-23 6,8 15,16 28,23 0,0 0,0 1,0zm149 -191c-2,-6 -5,-12 -7,-18 -1,-2 -2,-5 -3,-7 3,-1 6,-2 9,-3 0,0 0,0 0,0 2,0 1,13 1,28z"/>
   <path fill="url(#id1)" d="M245 699c0,0 370,39 492,-161 37,-59 14,-119 1,-140 -18,-32 118,0 28,183 -92,188 -526,146 -521,118z"/>
   <path fill="url(#id2)" d="M104 358c5,-12 25,170 374,128 282,-34 199,-183 203,-192 5,-8 79,32 42,120 -46,112 -274,136 -392,116 -156,-27 -245,-131 -227,-172z"/>
   <path fill="url(#id3)" d="M379 257c0,0 -48,-27 -20,-87 29,-60 56,-64 59,-62 2,3 -27,70 -5,90 21,20 5,-16 22,-18 17,-3 62,23 31,63 -30,39 -85,20 -87,14z"/>
   <path fill="url(#id4)" d="M415 410c-90,0 -159,-28 -193,-67 -18,-21 -19,-43 -13,-60 5,-17 16,-28 23,-28 0,0 0,0 0,0 5,0 3,7 0,16 -4,17 -12,41 6,58 28,25 76,49 139,49 31,0 66,-6 104,-20 26,-10 45,-21 58,-31 1,2 5,2 11,2 19,0 55,-6 81,-16 -9,25 -34,50 -80,72 -10,5 -21,9 -32,13 -9,2 -18,4 -28,5 -27,5 -52,7 -76,7z"/>
   <path fill="url(#id5)" d="M354 490c-13,0 -26,0 -39,-1 -114,-10 -190,-66 -207,-120 -3,-11 -4,-22 -2,-32 3,20 19,46 55,73 61,46 137,64 210,64 83,0 163,-23 218,-58 68,-45 78,-105 73,-123 5,-7 5,-14 -3,-23 0,0 0,0 0,0 0,-3 0,-6 -1,-10 18,13 35,33 32,65 0,10 -3,20 -8,32 -34,83 -196,133 -328,133zm64 -58c-74,0 -139,-17 -156,-29 -1,0 0,0 0,0 2,0 17,3 40,7 23,3 54,6 89,6 40,0 85,-4 128,-18 11,-4 22,-8 32,-13 46,-22 71,-47 80,-72 7,-3 14,-6 19,-9 0,1 -1,2 -1,2 -7,40 -72,96 -168,122 -21,3 -43,4 -63,4z"/>
   <path fill="url(#id6)" d="M366 353c-80,0 -155,-28 -123,-89 -1,10 1,20 7,30 5,8 14,16 29,23 25,14 55,20 85,20 27,0 53,-5 76,-12 36,-2 48,-6 55,-6 3,0 5,0 6,2l0 0c-31,21 -84,32 -135,32z"/>
   <path fill="url(#id7)" d="M732 358c0,5 20,173 -286,247 -320,77 -413,-133 -420,-119 -8,15 7,85 112,141 104,55 432,79 577,-106 96,-124 17,-169 17,-163z"/>
   <path fill="url(#id8)" d="M373 555c212,0 324,-52 350,-139 0,0 -59,142 -360,118 0,0 -205,-17 -261,-158 0,0 -32,0 -28,40 6,42 87,139 299,139z"/>
   <path fill="url(#id9)" d="M37 536c0,0 58,123 282,130 224,7 341,-26 433,-200 0,0 -6,93 -172,175 -167,83 -481,59 -543,-105z"/>
   <path fill="url(#id10)" d="M210 279c0,0 -38,-29 -56,2 -18,32 48,156 289,129 0,0 -265,-7 -233,-131z"/>
   <path fill="url(#id11)" d="M371 474c-73,0 -149,-18 -210,-64 -36,-27 -52,-53 -55,-73 -6,-29 11,-47 23,-47 4,0 7,3 8,9l0 0c0,0 41,130 208,142 10,0 20,1 29,1 39,0 75,-5 107,-14 96,-26 161,-82 168,-122 0,0 1,-1 1,-2 5,-3 9,-7 12,-11 5,18 -5,78 -73,123 -55,35 -135,58 -218,58z"/>
   <path fill="url(#id12)" d="M732 358c0,0 22,42 -41,108 -63,54 -200,105 -369,87 -186,-21 -248,-137 -248,-137 -59,20 60,168 310,166 90,-1 125,-16 116,-13 -240,74 -398,-44 -398,-44 -41,-18 -39,45 121,92 159,46 366,-15 467,-118 101,-104 42,-141 42,-141z"/>
   <path fill="url(#id13)" d="M364 337c-30,0 -60,-6 -85,-20 -1,0 -1,0 -1,0 -13,-7 -22,-15 -28,-23 -6,-10 -8,-20 -7,-30 1,-1 1,-3 1,-4 3,1 5,3 7,4 0,10 6,23 24,36 22,17 62,21 88,21 1,0 1,0 2,0 14,3 29,6 44,6 2,0 4,-1 6,-1 10,0 18,0 25,-1 -23,7 -49,12 -76,12zm-12 -20c-41,-4 -65,-18 -81,-36 -4,-3 -6,-6 -7,-10 7,4 13,7 20,10l0 0c0,0 27,23 68,36z"/>
   <path fill="#FEFEFE" fill-rule="nonzero" d="M404 112c0,0 -41,30 -50,71 -8,40 25,-47 50,-71z"/>
   <path fill="#FEFEFE" fill-rule="nonzero" d="M279 243c0,0 -28,18 -8,38 19,21 48,37 103,37 14,-1 17,0 13,1 -11,3 -81,5 -112,-19 -42,-32 -17,-57 -8,-61 9,-4 20,-4 12,4z"/>
   <path fill="#FEFEFE" fill-rule="nonzero" d="M188 279c0,0 -27,25 12,61 40,36 -90,-40 -12,-61z"/>
   <path fill="#FEFEFE" fill-rule="nonzero" d="M132 306c0,0 7,89 131,129 125,39 -77,8 -122,-55 -45,-64 -21,-80 -9,-74z"/>
   <path fill="#FEFEFE" fill-rule="nonzero" d="M74 432c0,0 19,59 118,104 99,45 -36,-5 -77,-37 -44,-33 -51,-54 -41,-67z"/>
   <path fill="#FEFEFE" fill-rule="nonzero" d="M70 500c-4,5 -14,-5 -24,-14 -10,-9 -11,-25 -6,-29 4,-5 11,3 21,12 10,10 13,27 9,31z"/>
   <path fill="#FEFEFE" fill-rule="nonzero" d="M132 555c0,0 116,72 303,40 187,-31 -19,27 -109,23 -90,-5 -127,-11 -189,-41 -21,-11 -38,-37 -5,-22z"/>
   <path fill="#FEFEFE" fill-rule="nonzero" d="M334 222c0,0 -14,35 36,52 51,17 -99,-1 -36,-52z"/>
   <path fill="#FEFEFE" fill-rule="nonzero" d="M236 326c0,0 46,65 177,52 0,0 -125,38 -177,-52z"/>
   <path fill="#FEFEFE" fill-rule="nonzero" d="M105 577c0,0 94,76 279,63 0,0 -174,50 -279,-63z"/>
   <path fill="url(#id14)" d="M539 327c0,0 0,0 0,0 -4,-4 -9,-4 -15,-4 -2,0 -4,0 -6,0 -3,0 -5,0 -7,0 -4,0 -7,0 -10,-2 7,-5 13,-10 17,-15 3,1 7,2 10,2 9,2 18,3 27,4 -4,5 -9,10 -16,15z"/>
   <path fill="url(#id15)" d="M550 329c-6,0 -10,0 -11,-2 7,-5 12,-10 16,-15 4,0 7,0 11,0 3,0 6,0 10,0 14,0 28,-3 39,-7 0,0 0,0 0,0 8,-3 15,-6 21,-10 -1,6 -2,12 -5,18 -26,10 -62,16 -81,16z"/>
   <path fill="url(#id16)" d="M631 313c3,-6 4,-12 5,-18 12,-7 20,-16 23,-25 8,9 8,16 3,23 -1,-3 -2,-5 -4,-5 -3,0 -6,5 -8,16 -5,3 -12,6 -19,9z"/>
   <path fill="url(#id17)" d="M440 325c22,-7 42,-16 56,-27 7,3 14,6 22,8 -4,5 -10,10 -17,15l0 0c-1,-2 -3,-2 -6,-2 -7,0 -19,4 -55,6z"/>
   <path fill="url(#id18)" d="M391 312c-8,0 -17,0 -26,-2 -33,-4 -53,-12 -64,-20 28,12 54,19 77,19 8,0 16,-1 24,-3 6,0 11,0 17,-1 20,-3 38,-10 54,-19 1,1 2,1 3,2 -21,14 -50,24 -85,24z"/>
   <path fill="url(#id19)" d="M402 306c11,-3 22,-8 31,-16 7,-6 13,-13 17,-21 7,6 15,12 23,17 -16,9 -34,16 -54,19 -6,1 -11,1 -17,1z"/>
   <path fill="url(#id20)" d="M650 304c2,-11 5,-16 8,-16 2,0 3,2 4,5 -3,4 -7,8 -12,11z"/>
   <path fill="url(#id21)" d="M409 327c-15,0 -30,-3 -44,-6 11,0 19,-1 22,-2 4,-1 1,-1 -9,-1 -2,0 -3,0 -4,0 -1,0 -3,0 -4,0 -6,0 -12,-1 -18,-1 -41,-13 -68,-36 -68,-36l0 0c6,3 11,6 17,9 11,8 31,16 64,20 9,2 18,2 26,2 35,0 64,-10 85,-24 6,4 13,7 20,10 -14,11 -34,20 -56,27 -7,1 -15,1 -25,1 -2,0 -4,1 -6,1z"/>
   <path fill="#CAC8C8" fill-rule="nonzero" d="M365 321c-5,-2 -9,-3 -13,-4 6,0 12,1 18,1 1,0 3,0 4,0 1,0 2,0 4,0 10,0 13,0 9,1 -3,1 -11,2 -22,2z"/>
   <path fill="#FEFEFE" fill-rule="nonzero" d="M331 358c0,0 73,15 139,-17 38,-19 -13,49 -139,17z"/>
   <path fill="#FEFEFE" fill-rule="nonzero" d="M339 414c0,0 123,21 236,-42 0,0 -83,82 -236,42z"/>
   <path fill="#FEFEFE" fill-rule="nonzero" d="M144 441c0,0 185,134 477,6 0,0 -243,168 -477,-6z"/>
   <path fill="#FEFEFE" fill-rule="nonzero" d="M261 520c0,0 -100,-28 -161,-109 -36,-48 -16,68 161,109z"/>
   <path fill="#FEFEFE" fill-rule="nonzero" d="M217 670c0,0 243,56 410,-55 0,0 -144,138 -410,55z"/>
   <path fill="url(#id22)" d="M566 312c-4,0 -7,0 -11,0 -9,-1 -18,-2 -27,-4 -3,0 -7,-1 -10,-2 -8,-2 -15,-5 -22,-8 -7,-3 -14,-6 -20,-10 -1,-1 -2,-1 -3,-2 -8,-5 -16,-11 -23,-17 0,0 0,0 0,0 32,27 83,43 124,43 0,0 1,0 2,0 -4,0 -7,0 -10,0zm49 -7c43,-19 43,-40 41,-48l0 0c0,-1 0,-2 -1,-3 0,0 0,1 1,2 -1,0 -1,0 -1,0 -1,1 -3,1 -6,1 -1,0 -2,0 -3,0 0,-1 1,-1 1,-2 4,-13 -29,-47 -75,-60 -11,-3 -22,-4 -33,-4 -3,0 -6,0 -8,0 -1,0 -1,0 -1,0 -2,0 -4,-1 -6,-1 -6,0 -13,3 -20,6 -1,1 -3,1 -4,2 9,-6 18,-12 26,-20 8,1 16,2 24,3 57,12 102,54 108,79 1,4 1,7 1,10 0,0 0,0 0,0 -3,9 -11,18 -23,25 -6,4 -13,7 -21,10zm41 -48c1,13 -29,35 -78,35 -12,0 -26,-2 -40,-5 -30,-6 -60,-24 -82,-40 1,-6 1,-13 1,-19 10,0 22,1 35,2 13,13 37,27 66,33 0,0 1,0 2,0 5,3 11,6 14,8 10,4 28,6 37,6 5,0 7,0 3,-1 -7,-2 -13,-3 -31,-9 -1,0 -2,-1 -3,-1 10,1 20,2 28,2 15,0 27,-2 34,-7 3,0 5,-1 7,-2 4,-1 6,-3 7,-3 0,0 0,0 0,1l0 0 0 0zm-172 -36c-1,0 -2,0 -2,0 0,-1 1,-1 1,-1 0,0 1,0 1,1zm-14 -1c-2,0 -5,0 -7,0 -2,0 -4,0 -7,0 0,-2 0,-5 -1,-7 10,-1 20,-4 31,-9 -3,2 -4,4 -5,6 0,0 0,1 0,1 -7,5 -11,9 -11,9l0 0z"/>
   <path fill="url(#id23)" d="M608 268c-8,0 -18,-1 -28,-2 -12,-5 -29,-18 -39,-26 8,2 16,5 24,8 28,12 48,15 62,15 6,0 11,-1 15,-2 -7,5 -19,7 -34,7zm-48 -5c-1,0 -2,0 -2,0 -29,-6 -53,-20 -66,-33 11,2 24,4 37,7 1,6 17,18 31,26zm86 -6c-20,-1 -67,-12 -95,-25 10,-2 29,-8 44,-8 6,0 11,1 15,3 3,2 5,3 6,3 1,0 -2,-3 -7,-6 -6,-3 -14,-5 -24,-5 -3,0 -6,0 -9,0 -21,4 -30,7 -33,10 -16,-5 -39,-8 -59,-8 0,-1 -1,-1 -1,-1 10,-5 18,-15 22,-18 16,-12 46,-5 26,-11 2,0 5,0 8,0 11,0 22,1 33,4 46,13 79,47 75,60 0,1 -1,1 -1,2zm-165 -46c0,0 0,-1 0,-1 1,-2 2,-4 5,-6 5,-2 9,-4 14,-6 1,-1 3,-1 4,-2 -8,4 -17,10 -23,15z"/>
   <path fill="url(#id24)" d="M656 257c0,-1 0,-1 0,-1 0,0 0,0 0,0l0 0c-1,-1 -1,-2 -1,-2 1,1 1,2 1,3z"/>
   <polygon fill="url(#id25)" points="656,257 656,257 "/>
   <path fill="url(#id26)" d="M576 312c14,-1 27,-3 39,-7 0,0 0,0 0,0 -11,4 -25,7 -39,7z"/>
   <path fill="url(#id27)" d="M574 312c-41,0 -92,-16 -124,-43 3,-7 5,-14 6,-22 22,16 52,34 82,40 14,3 28,5 40,5 49,0 79,-22 78,-35 2,8 2,29 -41,48 -12,4 -25,6 -39,7 -1,0 -2,0 -2,0z"/>
   <path fill="url(#id28)" d="M611 277c-9,0 -27,-2 -37,-6 -3,-2 -9,-5 -14,-8 7,1 14,2 20,3 1,0 2,1 3,1 18,6 24,7 31,9 4,1 2,1 -3,1zm31 -16c2,-1 3,-2 4,-4 1,0 2,0 3,0 3,0 5,0 6,-1 0,0 0,0 1,0 0,0 0,0 0,0 -1,0 -3,2 -7,3 -2,1 -4,2 -7,2zm-150 -31c-13,-1 -25,-2 -35,-2 0,-3 0,-5 -1,-8 3,0 5,0 7,0 2,0 5,0 7,0l0 0c0,0 4,-4 11,-9 -1,3 0,6 2,9 0,0 -1,0 -1,1 0,0 1,0 2,0 2,3 4,6 8,9zm12 -34c7,-3 14,-6 20,-6 2,0 4,1 6,1 0,0 0,0 1,0 -10,1 -19,3 -27,5z"/>
   <path fill="url(#id29)" d="M580 266c-6,-1 -13,-2 -20,-3 -14,-8 -30,-20 -31,-26 -13,-3 -26,-5 -37,-7 -4,-3 -6,-6 -8,-9 20,0 43,3 59,8 3,-3 12,-6 33,-10 3,0 6,0 9,0 10,0 18,2 24,5 5,3 8,6 7,6 -1,0 -3,-1 -6,-3 -4,-2 -9,-3 -15,-3 -15,0 -34,6 -44,8 28,13 75,24 95,25 -1,2 -2,3 -4,4 -4,1 -9,2 -15,2 -14,0 -34,-3 -62,-15 -8,-3 -16,-6 -24,-8 10,8 27,21 39,26zm-97 -46c-2,-3 -3,-6 -2,-9 6,-5 15,-11 23,-15 8,-2 17,-4 27,-5 20,6 -10,-1 -26,11 -4,3 -12,13 -22,18z"/>
   <path fill="url(#id30)" d="M656 256c0,0 0,0 0,0l0 0c0,0 0,0 0,0z"/>
   <path fill="url(#id31)" d="M455 213c0,0 0,0 0,-1 35,-3 76,-34 96,-66 -6,10 -13,20 -22,29 -1,1 -2,2 -3,3 -8,8 -17,14 -26,20 -5,2 -9,4 -14,6 -11,5 -21,8 -31,9zm-3 -14c-1,-4 -2,-8 -3,-12 5,-6 10,-14 17,-22 13,-3 32,-12 47,-29 1,0 1,-1 1,-1 5,-2 9,-4 11,-6 10,-6 23,-25 21,-25 0,0 0,0 -1,1 -4,4 -8,7 -19,17 0,0 0,0 -1,1 14,-17 23,-32 23,-42 3,-7 2,-11 2,-12 0,0 1,0 1,1 -1,-1 -1,-1 -2,-1l0 0 0 0 0 0 0 0 0 0 0 0 0 0 0 0c0,0 0,0 1,0 0,0 0,1 0,1 0,1 -1,3 -3,6 0,0 -1,-1 -1,-1 -2,-3 -5,-4 -11,-4 -14,0 -38,9 -57,27 -9,8 -16,17 -20,25 -1,0 -1,1 -1,1 -4,4 -7,11 -8,18 -3,11 -3,19 -1,22 1,0 1,0 1,0 0,7 1,11 1,11 -1,2 -2,3 -3,5 -3,-9 -6,-19 -9,-28 3,-15 7,-28 7,-28 -4,7 -7,14 -10,21 0,-1 0,-1 0,-1 5,-13 13,-26 24,-38 26,-26 61,-38 82,-38 9,0 16,2 19,5 7,9 9,25 3,44 7,-37 -6,-45 -12,-47l0 0 0 0 0 0c11,5 9,49 -31,89 -19,20 -48,33 -68,40zm3 -31c0,-1 0,-1 0,-2 1,0 1,0 1,0 0,1 0,1 -1,2z"/>
   <path fill="url(#id32)" d="M456 166c0,0 0,0 -1,0 1,-8 -1,-17 -1,-21 -1,-13 9,-25 8,-25 0,0 -2,1 -4,3 4,-8 11,-17 20,-25 19,-18 43,-27 57,-27 6,0 9,1 11,4 0,0 1,1 1,1 -9,13 -36,39 -56,51 1,-1 2,-3 2,-5 4,-3 8,-6 12,-9 15,-15 27,-29 24,-34 0,-1 -1,-1 -3,-1 -7,0 -22,6 -36,17 -17,15 -25,33 -23,36 0,0 1,1 3,1 3,0 10,-2 17,-6 -1,2 -1,4 -1,5 -10,8 -21,22 -30,35zm10 -1c5,-7 12,-14 19,-21 1,0 2,0 3,0 5,0 17,-4 26,-9 0,0 0,1 -1,1 -15,17 -34,26 -47,29zm-17 -1c0,0 0,0 -1,0 -2,-3 -2,-11 1,-22 -1,8 0,16 0,22zm43 -26c5,-5 10,-9 16,-13 26,-18 36,-34 40,-44 0,10 -9,25 -23,42 -8,6 -24,12 -33,15z"/>
   <path fill="url(#id33)" d="M551 70c0,-1 -1,-1 -1,-1 0,0 0,0 0,0 0,0 0,0 0,0 -1,0 -1,0 -1,0 1,0 1,0 2,1z"/>
   <polygon fill="url(#id34)" points="551,70 551,70 "/>
   <path fill="#D6D5D5" fill-rule="nonzero" d="M551 146c6,-10 10,-20 12,-29 0,0 0,0 0,0 -1,9 -6,19 -12,29z"/>
   <path fill="url(#id35)" d="M455 212c-1,-4 -1,-9 -3,-13 20,-7 49,-20 68,-40 40,-40 42,-84 31,-89 6,2 19,10 12,47 -2,9 -6,19 -12,29 -20,32 -61,63 -96,66zm-17 -60c-1,-3 -2,-5 -3,-7 3,-7 6,-14 10,-21 0,0 -4,13 -7,28z"/>
   <path fill="url(#id36)" d="M449 187c0,-2 -1,-5 -2,-7 1,-2 2,-3 3,-5 0,0 -1,-4 -1,-11 1,2 4,2 6,2 0,1 0,1 0,2 1,-1 1,-1 1,-2 0,0 1,0 1,0 2,0 5,0 9,-1 -7,8 -12,16 -17,22zm0 -45c1,-7 4,-14 8,-18 0,0 0,-1 1,-1 -4,7 -7,14 -9,19zm65 -7c4,-4 8,-8 11,-12 1,-1 1,-1 1,-1 11,-10 15,-13 19,-17 1,-1 1,-1 1,-1 2,0 -11,19 -21,25 -2,2 -6,4 -11,6zm34 -54c0,-2 0,-4 -1,-5 2,-3 3,-5 3,-6 0,0 0,-1 0,-1 0,0 0,0 0,0 0,1 1,5 -2,12z"/>
   <path fill="url(#id37)" d="M457 166c0,0 -1,0 -1,0 9,-13 20,-27 30,-35 0,-1 0,-3 1,-5 2,-2 4,-3 6,-4 0,2 -1,4 -2,5 20,-12 47,-38 56,-51 1,1 1,3 1,5 -4,10 -14,26 -40,44 -6,4 -11,8 -16,13 9,-3 25,-9 33,-15 -3,4 -7,8 -11,12 -9,5 -21,9 -26,9 -1,0 -2,0 -3,0 -7,7 -14,14 -19,21 -4,1 -7,1 -9,1zm-2 0c-2,0 -5,0 -6,-2 0,-6 -1,-14 0,-22 2,-5 5,-12 9,-19 2,-2 4,-3 4,-3 1,0 -9,12 -8,25 0,4 2,13 1,21z"/>
   <path fill="url(#id38)" d="M550 69c0,0 0,0 0,0 0,0 0,0 0,0 0,0 0,0 0,0z"/>
   <path fill="url(#id39)" d="M470 132c-2,0 -3,-1 -3,-1 -2,-3 6,-21 23,-36 14,-11 29,-17 36,-17 2,0 3,0 3,1 3,5 -9,19 -24,34 -4,3 -8,6 -12,9 4,-12 11,-31 20,-35 4,-2 5,-3 4,-3 -3,0 -16,6 -23,22 -4,9 -6,15 -7,20 -7,4 -14,6 -17,6z"/>
   <path fill="url(#id40)" d="M487 126c1,-5 3,-11 7,-20 7,-16 20,-22 23,-22 1,0 0,1 -4,3 -9,4 -16,23 -20,35 -2,1 -4,2 -6,4z"/>
   <path fill="#008842" fill-rule="nonzero" d="M252 148c0,0 -39,31 -95,-34 0,0 50,-10 60,-9 10,2 -23,-21 -33,-73 0,0 50,15 61,29 0,0 14,-15 -6,-61 0,0 81,20 53,93 -21,55 -20,54 -29,54 -2,0 -6,-1 -11,1z"/>
   <path fill="#096437" fill-rule="nonzero" d="M229 138c-13,-6 -31,-15 -39,-16 -15,-3 49,-2 47,-9 -2,-7 -23,-55 -37,-63 -3,-2 -2,-3 0,-3 9,0 47,13 53,37 1,5 3,7 4,7 8,0 17,-57 5,-68 -1,-1 -1,-1 -1,-1 1,0 33,25 32,59 -11,6 -21,13 -30,20 -12,10 -24,23 -34,37z"/>
   <path fill="#E31E24" fill-rule="nonzero" d="M433 290c-47,39 -117,14 -195,-34 -65,-40 -21,-115 25,-155 47,-39 131,-63 158,7 28,74 59,142 12,182z"/>
   <path fill="#F49B0F" fill-rule="nonzero" d="M272 243c-4,4 -13,2 -21,-4 -8,-6 -12,-15 -9,-19 3,-4 12,-2 21,4 8,7 12,15 9,19z"/>
   <path fill="#F49B0F" fill-rule="nonzero" d="M275 167c-4,4 -13,1 -20,-6 -8,-8 -11,-17 -7,-20 4,-4 13,-1 20,7 7,7 10,16 7,19z"/>
   <path fill="#F49B0F" fill-rule="nonzero" d="M348 159c-4,2 -12,-3 -17,-12 -6,-9 -7,-18 -2,-21 4,-2 12,3 17,12 6,8 7,18 2,21z"/>
   <path fill="#F49B0F" fill-rule="nonzero" d="M379 99c-4,3 -13,1 -20,-7 -8,-7 -11,-16 -8,-19 4,-4 13,-1 20,6 8,7 11,16 8,20z"/>
   <path fill="#F49B0F" fill-rule="nonzero" d="M335 227c-3,4 -12,3 -20,-4 -9,-6 -13,-14 -10,-18 3,-4 12,-3 21,3 8,7 13,15 9,19z"/>
   <path fill="#F49B0F" fill-rule="nonzero" d="M414 199c-4,2 -11,-5 -14,-15 -4,-10 -2,-19 3,-21 5,-1 11,6 14,16 4,9 2,19 -3,20z"/>
   <path fill="#F49B0F" fill-rule="nonzero" d="M413 271c-4,3 -12,-1 -19,-9 -6,-8 -8,-17 -4,-20 4,-3 12,1 19,9 6,8 8,17 4,20z"/>
   <path fill="#C52727" fill-rule="nonzero" d="M382 301c-53,0 -98,-31 -96,-41 0,-2 2,-3 5,-3 6,0 17,4 30,7 14,3 29,6 43,6 10,0 20,-2 28,-7 1,0 1,-1 2,-1 0,0 0,0 0,0 5,6 11,10 16,10 1,0 2,0 3,-1 4,-3 2,-12 -4,-20 -1,-2 -2,-3 -4,-4 6,-13 6,-31 3,-49 2,1 3,2 5,2 0,0 1,-1 1,-1 5,-1 7,-11 3,-20 -3,-9 -8,-16 -13,-16 0,0 -1,0 -1,0 -1,1 -2,1 -3,2 -8,-28 -18,-54 -20,-68 0,-2 0,-4 0,-6 0,-1 0,-2 1,-3 1,-2 3,-3 5,-3 20,0 56,80 62,119 8,42 9,89 -51,96 -5,1 -10,1 -15,1z"/>
   <path fill="#E18020" fill-rule="nonzero" d="M380 97c-1,-3 -1,-5 0,-6 0,2 0,4 0,6z"/>
   <path fill="#E18020" fill-rule="nonzero" d="M413 200c-2,0 -3,-1 -5,-2 -2,-11 -5,-22 -8,-33 1,-1 2,-1 3,-2 0,0 1,0 1,0 5,0 10,7 13,16 4,9 2,19 -3,20 0,0 -1,1 -1,1z"/>
   <path fill="#E18020" fill-rule="nonzero" d="M410 272c-5,0 -11,-4 -16,-10 0,0 0,0 0,0 5,-4 9,-9 11,-15 2,1 3,2 4,4 6,8 8,17 4,20 -1,1 -2,1 -3,1z"/>
   <path fill="#E63F23" fill-rule="nonzero" d="M346 248c-25,0 -55,-12 -87,-30 -31,-16 -27,-46 -12,-71 0,4 3,9 7,13 -2,11 1,22 14,29 13,7 26,12 37,16 0,0 0,0 0,0 -3,4 1,12 10,18 5,4 11,6 15,6 2,0 4,0 5,-2 4,-4 -1,-12 -9,-19 -1,0 -1,0 -2,-1 10,0 18,-2 24,-9 13,-11 10,-28 3,-46 0,-4 -2,-10 -5,-14 -1,-2 -2,-4 -3,-5 -1,-3 -2,-6 -4,-8 -5,-13 -15,-17 -25,-17 -14,0 -29,8 -39,17 -5,5 -10,11 -14,17 -3,-2 -6,-3 -9,-3 0,0 0,0 -1,0 6,-8 12,-15 18,-21 17,-15 40,-28 62,-28 16,0 31,8 40,27 21,46 43,89 14,116 -10,10 -24,15 -39,15z"/>
   <path fill="#F49B0F" fill-rule="nonzero" d="M254 160c-4,-4 -7,-9 -7,-13 1,-3 3,-5 4,-8 1,0 1,0 1,0 3,0 6,1 9,3 -3,6 -6,12 -7,18z"/>
   <path fill="#F49B0F" fill-rule="nonzero" d="M351 152c-2,-6 -5,-13 -8,-19 1,1 2,3 3,5 3,4 5,10 5,14z"/>
   <path fill="#F49B0F" fill-rule="nonzero" d="M330 229c-4,0 -10,-2 -15,-6 -9,-6 -13,-14 -10,-18 0,0 0,0 0,0 7,1 13,2 19,2 0,0 0,0 0,0 1,1 1,1 2,1 8,7 13,15 9,19 -1,2 -3,2 -5,2z"/>
   <path fill="#EB6139" fill-rule="nonzero" d="M324 207c-4,-3 -9,-5 -13,-5 -3,0 -5,1 -6,3 -11,-4 -24,-9 -37,-16 -13,-7 -16,-18 -14,-29 0,0 1,0 1,1 5,5 11,8 15,8 2,0 4,-1 5,-2 3,-3 0,-12 -7,-19 -2,-3 -4,-4 -7,-6 4,-6 9,-12 14,-17 10,-9 25,-17 39,-17 10,0 20,4 25,17 2,2 3,5 4,8 -4,-5 -8,-7 -12,-7 -1,0 -1,0 -2,0 -5,3 -4,12 2,21 4,8 10,12 15,12 1,0 1,0 2,0 2,-2 3,-4 3,-7 7,18 10,35 -3,46 -6,7 -14,9 -24,9z"/>
   <path fill="#F8AF34" fill-rule="nonzero" d="M270 169c-4,0 -10,-3 -15,-8 0,-1 -1,-1 -1,-1 1,-6 4,-12 7,-18 3,2 5,3 7,6 7,7 10,16 7,19 -1,1 -3,2 -5,2z"/>
   <path fill="#F8AF34" fill-rule="nonzero" d="M346 159c-5,0 -11,-4 -15,-12 -6,-9 -7,-18 -2,-21 1,0 1,0 2,0 4,0 8,2 12,7 3,6 6,13 8,19 0,3 -1,5 -3,7 -1,0 -1,0 -2,0z"/>
   <path fill="#F8AF34" fill-rule="nonzero" d="M324 207c-6,0 -12,-1 -19,-2 1,-2 3,-3 6,-3 4,0 9,2 13,5 0,0 0,0 0,0z"/>
  </g>
 </g>
</svg>
