<?xml version="1.0" encoding="UTF-8"?>
<!DOCTYPE svg PUBLIC "-//W3C//DTD SVG 1.1//EN" "http://www.w3.org/Graphics/SVG/1.1/DTD/svg11.dtd">
<!-- Creator: CorelDRAW X7 -->
<svg xmlns="http://www.w3.org/2000/svg" xml:space="preserve" width="2480px" height="3508px" version="1.1" shape-rendering="geometricPrecision" text-rendering="geometricPrecision" image-rendering="optimizeQuality" fill-rule="evenodd" clip-rule="evenodd"
viewBox="0 0 2480 3507"
 xmlns:xlink="http://www.w3.org/1999/xlink">
 <g id="Слой_x0020_1">
  <metadata id="CorelCorpID_0Corel-Layer"/>
  <g id="_3229555456">
   <path fill="#C9BB9E" fill-rule="nonzero" d="M366 2329c140,140 281,280 421,420 106,107 213,213 319,320 5,5 10,10 15,15 9,9 19,16 29,22 133,94 287,68 404,-49 85,-85 170,-171 256,-256 71,-72 146,-141 215,-215 113,-122 105,-262 25,-381 32,-71 64,-142 96,-213 42,-94 138,-239 120,-347 -27,-150 -212,-194 -333,-248 -45,-20 -91,-46 -138,-62 -3,0 -5,-1 -8,-2 -1,-33 -3,-65 -9,-96 -34,-175 -200,-166 -338,-166 -109,0 -273,-28 -361,52 -41,38 -59,88 -66,142 -67,-5 -135,13 -198,65 -44,37 -83,81 -124,122 -130,130 -266,256 -392,391 -103,111 -121,272 -22,393 27,33 59,62 89,93z"/>
   <path fill="#FEFEFE" fill-rule="nonzero" d="M279 2241c140,140 280,280 420,420 107,107 213,213 320,320 4,5 9,10 15,15 9,9 18,16 28,22 134,94 287,69 404,-49 86,-85 171,-170 256,-256 72,-71 146,-140 215,-214 113,-123 106,-262 25,-381 32,-71 64,-142 96,-213 43,-94 139,-240 120,-347 -27,-151 -212,-194 -332,-249 -45,-20 -91,-46 -138,-61 -3,-1 -6,-2 -9,-2 0,-33 -3,-66 -9,-97 -34,-175 -200,-165 -337,-165 -109,0 -274,-28 -362,52 -41,37 -59,87 -66,142 -66,-6 -134,13 -197,64 -45,37 -84,81 -125,122 -130,130 -266,257 -391,392 -104,111 -122,271 -23,393 27,33 59,62 90,92z"/>
   <path fill="#FEFEFE" fill-rule="nonzero" d="M1539 1184l0 865c0,24 -20,44 -44,44l-370 0c-25,0 -45,-20 -45,-44l0 -865c0,-24 20,-44 45,-44l370 0c24,0 44,20 44,44z"/>
   <path fill="#533A2B" fill-rule="nonzero" d="M1125 1164c-11,0 -20,9 -20,20l0 865c0,10 9,19 20,19l370 0c11,0 19,-9 19,-19l0 -865c0,-11 -8,-20 -19,-20l-370 0zm370 953l-370 0c-38,0 -69,-31 -69,-68l0 -865c0,-38 31,-69 69,-69l370 0c38,0 68,31 68,69l0 865c0,37 -30,68 -68,68z"/>
   <path fill="#C2E5F3" fill-rule="nonzero" d="M1262 1247l0 478c0,16 -13,29 -29,29l-41 0c-16,0 -29,-13 -29,-29l0 -478c0,-17 13,-30 29,-30l41 0c16,0 29,13 29,30z"/>
   <path fill="#533A2B" fill-rule="nonzero" d="M1192 1242c-3,0 -5,2 -5,5l0 478c0,2 2,5 5,5l41 0c3,0 5,-3 5,-5l0 -478c0,-3 -2,-5 -5,-5l-41 0zm41 537l-41 0c-30,0 -54,-25 -54,-54l0 -478c0,-30 24,-54 54,-54l41 0c30,0 54,24 54,54l0 478c0,29 -24,54 -54,54z"/>
   <path fill="#EE776C" fill-rule="nonzero" d="M1476 1623l0 96c0,16 -13,29 -29,29l-96 0c-16,0 -29,-13 -29,-29l0 -96c0,-16 13,-29 29,-29l96 0c16,0 29,13 29,29z"/>
   <path fill="#533A2B" fill-rule="nonzero" d="M1351 1619c-2,0 -4,2 -4,4l0 96c0,2 2,4 4,4l96 0c2,0 4,-2 4,-4l0 -96c0,-2 -2,-4 -4,-4l-96 0zm96 153l-96 0c-29,0 -53,-24 -53,-53l0 -96c0,-29 24,-53 53,-53l96 0c29,0 53,24 53,53l0 96c0,29 -24,53 -53,53z"/>
   <line fill="none" fill-rule="nonzero" x1="1361" y1="1524" x2="1361" y2= "1217" />
   <polygon fill="#533A2B" fill-rule="nonzero" points="1336,1524 1385,1524 1385,1217 1336,1217 "/>
   <line fill="none" fill-rule="nonzero" x1="1437" y1="1524" x2="1437" y2= "1217" />
   <polygon fill="#533A2B" fill-rule="nonzero" points="1413,1524 1462,1524 1462,1217 1413,1217 "/>
   <path fill="#FEFEFE" fill-rule="nonzero" d="M2022 1608l-356 788c-10,22 -36,32 -58,22l-338 -152c-22,-11 -32,-37 -22,-59l356 -788c10,-22 36,-32 59,-22l337 152c22,10 32,36 22,59z"/>
   <path fill="#533A2B" fill-rule="nonzero" d="M1644 1418c-7,0 -14,4 -18,11l-355 788c-5,10 0,22 10,26l337 152c5,3 10,3 15,1 5,-2 9,-6 11,-10l356 -788c4,-10 0,-22 -10,-26l-338 -153c-2,-1 -5,-1 -8,-1zm-18 1028c-10,0 -19,-2 -28,-6l-338 -152c-34,-16 -50,-56 -34,-91l356 -788c15,-35 56,-50 91,-34l337 152c34,15 50,56 34,91l-355 788c-8,17 -22,29 -39,36 -8,3 -16,4 -24,4z"/>
   <path fill="#C2E5F3" fill-rule="nonzero" d="M1744 1551l-197 436c-6,15 -24,21 -38,15l-38 -17c-15,-7 -21,-24 -14,-39l196 -436c7,-15 24,-21 39,-15l38 17c14,7 21,24 14,39z"/>
   <path fill="#533A2B" fill-rule="nonzero" d="M1680 1517c-1,0 -1,0 -2,0 0,1 -2,1 -2,3l-197 436c-1,2 0,5 2,6l38 17c1,1 3,1 3,0 1,0 2,-1 3,-2l197 -436c1,-3 0,-5 -3,-7l-37 -16c-1,-1 -1,-1 -2,-1zm-159 512c-8,0 -15,-2 -22,-5l-38 -17c-27,-12 -39,-44 -27,-71l197 -436c12,-27 44,-39 71,-27l38 17c27,12 39,44 27,71l-197 436c-6,13 -17,23 -30,28 -6,3 -13,4 -19,4z"/>
   <path fill="#EE776C" fill-rule="nonzero" d="M1784 1982l-40 87c-6,15 -23,21 -38,15l-87 -40c-15,-6 -21,-23 -15,-38l40 -87c6,-15 23,-21 38,-15l87 40c15,6 21,23 15,38z"/>
   <path fill="#533A2B" fill-rule="nonzero" d="M1670 1926c-1,0 -1,1 -2,1 0,0 -1,1 -2,2l-39 87c-1,2 -1,3 0,4 0,0 0,1 2,2l87 39c2,1 3,1 3,0 1,0 2,0 3,-2l39 -87c1,-1 1,-3 0,-3 0,-1 -1,-2 -2,-3l-87 -39c-1,0 -2,-1 -2,-1zm48 185c-8,0 -15,-2 -22,-5l-87 -39c-13,-6 -23,-17 -28,-30 -5,-13 -5,-28 1,-41l39 -87c6,-13 17,-23 30,-28 13,-5 28,-5 41,1l87 40c13,5 23,16 28,29 5,14 5,28 -1,41l-39 87c-6,13 -17,23 -30,28 -6,3 -13,4 -19,4z"/>
   <line fill="none" fill-rule="nonzero" x1="1719" y1="1845" x2="1846" y2= "1565" />
   <polygon fill="#533A2B" fill-rule="nonzero" points="1742,1855 1697,1834 1823,1554 1868,1575 "/>
   <line fill="none" fill-rule="nonzero" x1="1789" y1="1876" x2="1916" y2= "1596" />
   <polygon fill="#533A2B" fill-rule="nonzero" points="1812,1886 1767,1866 1893,1586 1938,1606 "/>
   <path fill="#ADD39D" fill-rule="nonzero" d="M1833 2382l-504 504c-51,51 -134,51 -185,0l-828 -828c-51,-52 -51,-135 0,-186l503 -503c52,-52 134,-52 186,0l828 828c51,51 51,134 0,185z"/>
   <path fill="#533A2B" fill-rule="nonzero" d="M912 1355c-28,0 -55,11 -75,31l-504 504c-41,41 -41,109 0,150l828 828c20,20 47,32 76,32 28,0 55,-12 75,-32l504 -503c41,-42 41,-109 0,-151l-829 -828c-20,-20 -47,-31 -75,-31zm325 1594c-42,0 -81,-17 -110,-46l-829 -828c-60,-61 -60,-160 0,-220l504 -504c29,-29 68,-45 110,-45 42,0 81,16 110,45l828 828c61,61 61,160 0,220l-503 504c-30,29 -69,46 -110,46z"/>
   <path fill="#533A2B" fill-rule="nonzero" d="M998 1781c-70,0 -139,26 -191,79 -105,105 -105,276 0,381 105,105 276,105 381,0 105,-105 105,-276 0,-381 -52,-53 -121,-79 -190,-79zm0 588c-82,0 -164,-31 -226,-93 -124,-125 -124,-327 0,-451 124,-124 327,-124 451,0 124,124 124,326 0,451 -62,62 -144,93 -225,93z"/>
   <path fill="#533A2B" fill-rule="nonzero" d="M721 2081l-15 -46c66,-21 123,-56 172,-104 48,-49 83,-106 104,-172l47 15c-23,73 -62,137 -117,191 -54,54 -118,93 -191,116z"/>
   <path fill="#533A2B" fill-rule="nonzero" d="M891 2344l-7 -48c91,-14 173,-56 238,-121 65,-65 107,-147 121,-239l49 8c-16,101 -63,193 -135,266 -73,72 -165,119 -266,134z"/>
   <path fill="#533A2B" fill-rule="nonzero" d="M748 2228l-4 -49c98,-9 190,-53 260,-122 69,-70 113,-162 122,-260l49 4c-10,110 -59,213 -136,290 -78,78 -181,126 -291,137z"/>
   <path fill="#533A2B" fill-rule="nonzero" d="M807 1860c-45,44 -16,169 98,283 114,114 239,143 283,98 22,-22 26,-64 11,-114 -18,-56 -56,-116 -109,-169 -114,-114 -239,-143 -283,-98l0 0zm324 450c-77,0 -175,-47 -260,-133 -127,-126 -170,-281 -99,-352l0 0c71,-71 226,-28 353,98 58,59 101,126 121,190 21,69 13,127 -23,163 -23,23 -55,34 -92,34z"/>
   <polygon fill="#533A2B" fill-rule="nonzero" points="1188,2276 772,1860 807,1825 1223,2241 "/>
   <path fill="#533A2B" fill-rule="nonzero" d="M1108 2598l37 38 9 -8c5,-6 6,-11 -2,-19l-17 -17c-8,-8 -14,-7 -19,-2l-8 8zm46 -22l14 14c18,18 19,36 1,54l-8 8 42 42 -18 17 -111 -111 26 -26c18,-17 36,-16 54,2z"/>
   <path fill="#533A2B" fill-rule="nonzero" d="M1225 2601l17 -17 -64 -48 47 65zm75 -5l-17 18 -23 -17 -22 21 17 23 -16 16 -93 -129 26 -25 128 93z"/>
   <path fill="#533A2B" fill-rule="nonzero" d="M1220 2452c17,-17 36,-15 53,2l4 4 -17 16 -4 -4c-8,-8 -14,-8 -20,-2 -5,5 -6,11 2,19 23,23 61,-7 93,25 18,18 19,37 2,54 -17,17 -36,16 -54,-2l-7 -7 17 -16 8 8c8,8 14,7 20,1 5,-5 6,-12 -2,-19 -23,-23 -61,7 -93,-25 -18,-18 -19,-37 -2,-54z"/>
   <path fill="#533A2B" fill-rule="nonzero" d="M1279 2393c17,-17 36,-16 54,2l3 4 -16 16 -5 -5c-8,-7 -14,-7 -20,-2 -5,6 -5,12 3,20 22,23 61,-7 93,25 17,17 19,36 1,54 -17,17 -36,15 -53,-2l-7 -7 16 -17 8 8c8,8 14,8 20,2 6,-6 6,-12 -2,-20 -23,-23 -61,7 -93,-25 -17,-17 -19,-36 -2,-53z"/>
   <path fill="#533A2B" fill-rule="nonzero" d="M1349 2357l38 37 8 -8c6,-6 6,-11 -2,-19l-16 -17c-8,-8 -14,-7 -19,-2l-9 9zm46 -23l15 14c18,18 19,36 1,54l-8 8 42 42 -18 17 -111 -111 26 -25c17,-18 36,-17 53,1z"/>
   <path fill="#533A2B" fill-rule="nonzero" d="M1478 2367c8,8 15,8 20,2 6,-6 6,-12 -2,-20l-60 -60c-7,-8 -14,-7 -20,-2 -5,6 -6,12 2,20l60 60zm-76 -41c-18,-18 -19,-38 -1,-55 17,-17 36,-16 54,2l58 58c17,17 18,37 1,54 -17,17 -37,16 -54,-2l-58 -57z"/>
   <path fill="#533A2B" fill-rule="nonzero" d="M1473 2233l34 34 7 -6c6,-7 7,-14 -1,-23l-11 -11c-8,-8 -14,-8 -21,-2l-8 8zm114 76c-4,-2 -6,-3 -15,-12l-18 -17c-10,-10 -17,-11 -25,-3l-6 6 45 45 -17 18 -111 -111 26 -26c18,-19 34,-18 51,-1l9 9c11,11 15,22 11,34 13,-5 24,0 35,12l17 17c6,5 10,9 16,12l-18 17z"/>
   <polygon fill="#533A2B" fill-rule="nonzero" points="1498,2176 1552,2122 1568,2138 1550,2156 1645,2251 1628,2269 1532,2174 1514,2192 "/>
   <path fill="#FEFCF7" fill-rule="nonzero" d="M568 2172l0 0c9,-10 25,-10 34,0l292 291c10,10 10,26 0,35l0 0c-9,10 -25,10 -35,0l-291 -292c-10,-9 -10,-25 0,-34z"/>
   <path fill="#FEFCF7" fill-rule="nonzero" d="M416 2020l0 0c9,-10 25,-10 35,0l79 79c9,10 9,25 0,35l0 0c-10,9 -25,9 -35,0l-79 -79c-10,-10 -10,-26 0,-35z"/>
  </g>
 </g>
</svg>
