<?xml version="1.0" encoding="UTF-8"?>
<!DOCTYPE svg PUBLIC "-//W3C//DTD SVG 1.1//EN" "http://www.w3.org/Graphics/SVG/1.1/DTD/svg11.dtd">
<!-- Creator: CorelDRAW X7 -->
<svg xmlns="http://www.w3.org/2000/svg" xml:space="preserve" width="1337px" height="1337px" version="1.1" shape-rendering="geometricPrecision" text-rendering="geometricPrecision" image-rendering="optimizeQuality" fill-rule="evenodd" clip-rule="evenodd"
viewBox="0 0 1235 1235"
 xmlns:xlink="http://www.w3.org/1999/xlink">
 <g id="Слой_x0020_1">
  <metadata id="CorelCorpID_0Corel-Layer"/>
  <g id="_8967925696">
   <polygon fill="#797574" fill-rule="nonzero" points="59,1176 96,1121 113,1139 "/>
   <polygon fill="#A6A4A1" fill-rule="nonzero" points="1128,109 1164,144 1169,139 1134,104 "/>
   <path fill="#E3E1E0" fill-rule="nonzero" d="M1159 153l7 7c2,2 6,2 8,0l11 -11c2,-2 2,-6 0,-8l-7 -7c-3,-3 -7,-3 -9,0l-10 10c-3,3 -3,6 0,9z"/>
   <polygon fill="#A6A4A1" fill-rule="nonzero" points="1078,159 1114,194 1119,189 1084,154 "/>
   <path fill="#E3E1E0" fill-rule="nonzero" d="M1109 203l7 7c2,2 6,2 9,0l10 -11c2,-2 2,-6 0,-8l-7 -7c-2,-3 -6,-3 -9,0l-10 10c-2,2 -2,6 0,9z"/>
   <polygon fill="#A6A4A1" fill-rule="nonzero" points="1082,151 1046,115 1041,121 1076,156 "/>
   <path fill="#E3E1E0" fill-rule="nonzero" d="M1051 107l-7 -7c-2,-3 -6,-3 -9,0l-10 10c-2,3 -2,6 0,9l7 7c3,2 6,2 9,0l10 -11c3,-2 3,-6 0,-8z"/>
   <polygon fill="#A6A4A1" fill-rule="nonzero" points="1131,101 1096,65 1091,71 1126,106 "/>
   <path fill="#E3E1E0" fill-rule="nonzero" d="M1101 57l-7 -7c-2,-2 -6,-2 -9,0l-10 10c-2,3 -2,7 0,9l7 7c2,2 6,2 9,0l10 -10c2,-3 2,-7 0,-9z"/>
   <path fill="#A05027" fill-rule="nonzero" d="M807 428c-115,11 -205,-104 -368,72 -3,2 -4,6 -1,8 14,11 38,43 -26,108 -59,60 -107,28 -128,1 -3,-3 -96,-3 -217,119 -99,98 -87,270 27,384 3,3 7,7 11,10 3,4 7,7 10,11 114,114 286,126 384,27 122,-121 122,-215 119,-217 -27,-22 -59,-70 1,-128 65,-64 97,-40 108,-26 2,2 5,1 8,-1 176,-164 61,-253 72,-368z"/>
   <polygon fill="#A05027" fill-rule="nonzero" points="1066,218 1017,169 1165,44 1190,70 "/>
   <polygon fill="#50382A" fill-rule="nonzero" points="1178,72 1163,57 1035,167 1067,200 "/>
   <polygon fill="#A05027" fill-rule="nonzero" points="1182,101 1134,52 1187,0 1235,48 "/>
   <polygon fill="#87542B" fill-rule="nonzero" points="1171,89 1146,64 1198,12 1223,36 "/>
   <polygon fill="#A6A4A1" fill-rule="nonzero" points="541,627 1035,168 1067,199 608,694 "/>
   <polygon fill="#D0A365" fill-rule="nonzero" points="378,753 393,738 496,842 482,857 "/>
   <path fill="#4A4644" fill-rule="nonzero" d="M488 657c1,-1 1,-2 1,-3 0,-4 -1,-9 -4,-14 -3,-4 -9,-10 -17,-11 -7,-1 -16,0 -23,3 -7,3 -14,7 -21,11 -13,8 -28,17 -41,27 -7,5 -14,10 -20,15 -7,5 -13,10 -19,15 -3,2 -6,4 -9,6 -3,2 -5,4 -8,5 -5,2 -11,4 -16,3 -1,0 -3,0 -4,-1 -1,0 -2,0 -3,-1 -3,-1 -4,-2 -6,-3l-1 -2c4,2 9,2 13,-1 6,-4 7,-12 4,-17 -4,-5 -12,-6 -17,-2l-2 2 0 -1c0,0 -1,0 -2,2 -1,2 -3,4 -4,8 0,4 0,10 3,15 2,2 4,5 7,7 1,1 2,2 4,3 2,1 4,1 5,2 8,2 16,2 24,0 3,-1 8,-3 11,-5 4,-2 8,-4 11,-6 7,-5 13,-9 20,-14 7,-5 13,-10 20,-15 7,-5 14,-9 20,-14 7,-5 13,-10 19,-14 7,-5 12,-10 18,-13 6,-3 11,-5 16,-5 5,1 9,2 12,5 -3,-1 -7,0 -10,2 -5,4 -7,12 -3,17 4,5 11,6 17,2 3,-2 5,-5 5,-8z"/>
   <path fill="#4A4644" fill-rule="nonzero" d="M579 748c1,0 2,0 3,0 5,-1 10,1 14,4 5,3 10,9 11,16 2,8 1,16 -2,23 -3,8 -7,15 -11,21 -9,14 -18,28 -27,42 -5,6 -10,13 -15,20 -5,6 -11,13 -15,19 -3,3 -5,5 -7,8 -2,3 -3,5 -5,9 -2,5 -3,11 -3,16 1,1 1,3 1,3 0,1 1,2 1,4 1,2 2,4 4,5l2 2c-2,-4 -2,-9 1,-14 4,-5 11,-7 17,-3 5,4 6,11 2,17l-2 2 1 -1c0,0 -1,1 -2,3 -2,1 -5,3 -9,3 -4,1 -9,0 -14,-3 -3,-1 -6,-3 -8,-6 0,-1 -1,-3 -2,-5 -1,-1 -2,-3 -2,-5 -3,-7 -2,-15 0,-24 1,-3 3,-7 5,-11 1,-4 4,-7 6,-10 5,-7 9,-14 14,-20 4,-7 9,-14 14,-21 5,-6 10,-13 15,-20 4,-6 9,-13 14,-19 5,-6 9,-12 12,-17 3,-6 5,-11 5,-16 0,-5 -1,-10 -5,-13 1,3 1,7 -2,10 -4,6 -11,7 -17,4 -5,-4 -6,-12 -2,-17 2,-3 5,-5 8,-6z"/>
   <path fill="#D0CECD" fill-rule="nonzero" d="M230 962l-2 -1c-1,-1 -1,-3 0,-4l176 -192 631 -591 32 -32c1,-1 3,-1 4,0 1,1 1,3 0,4l-32 32 -630 591 -176 192 -3 1z"/>
   <path fill="#D0CECD" fill-rule="nonzero" d="M276 1007l-2 -1c-1,-1 -1,-3 0,-4l192 -176 591 -630 32 -32c1,-1 3,-1 4,0 1,1 1,3 0,4l-31 32 -592 630 -192 177 -2 0z"/>
   <path fill="#D0CECD" fill-rule="nonzero" d="M247 978l-2 -1c-1,-1 -1,-3 0,-4l179 -189 618 -604 78 -85c1,-1 3,-1 4,0 1,1 1,3 0,5l-78 84 -618 605 -179 188 -2 1z"/>
   <path fill="#D0CECD" fill-rule="nonzero" d="M260 991l-2 -1c-2,-1 -1,-3 0,-4l188 -180 604 -617 85 -78c1,-2 3,-2 5,0 1,1 1,3 -1,4l-84 78 -605 618 -188 179 -2 1z"/>
   <path fill="#4A4644" fill-rule="nonzero" d="M85 1124c53,-38 104,-95 140,-183l69 69c-89,36 -145,87 -183,140l-26 -26z"/>
   <polygon fill="#9D643A" fill-rule="nonzero" points="1062,205 1030,173 1035,167 1067,200 "/>
  </g>
 </g>
</svg>
