<svg xmlns="http://www.w3.org/2000/svg" width="210mm" height="297mm" shape-rendering="geometricPrecision" text-rendering="geometricPrecision" image-rendering="optimizeQuality" fill-rule="evenodd" clip-rule="evenodd" viewBox="0 0 21000 29700"><g fill-rule="nonzero"><path fill="#EEEDEE" d="M15342 16632c0 502-2163 908-4831 908s-4831-406-4831-908c0-501 2163-908 4831-908s4831 407 4831 908z"/><path fill="#9D9C9E" d="M14844 16632c0 379-1940 686-4333 686s-4333-307-4333-686 1940-686 4333-686 4333 307 4333 686z"/><path fill="#E62875" d="M14612 16665l-4101 715v-6705l4101 817z"/><path fill="#6EC8E4" d="M6410 16665l4101 715v-6705l-4101 817z"/><path fill="#FEFEFE" d="M7873 14239l968-7-488-1635-480 1642zm1075 1272l261 19-248-882-1206-23-242 782 323 24v402l-1017-101v-375l273 20 976-3118 609-83 974 3386 315 23v458l-1018-101v-431zM12171 14312l-3 1223 791-81c72-8 139-33 200-75 62-43 116-95 163-156 47-62 83-130 110-205s40-149 41-225c0-65-13-127-39-187-27-60-63-113-108-159-46-47-100-83-162-111-62-27-128-40-198-39l-795 15zm4-1629l-3 1206 775 7c72 0 139-13 202-42 63-27 117-65 163-112s83-101 111-163c27-61 41-125 42-192 0-73-13-145-40-217-26-72-63-138-109-197s-101-109-163-149c-63-41-129-64-200-71l-778-70zm-770 2930l323-33 3-2937-326-30v-448l1545 189c139 16 270 58 392 124 122 65 228 146 318 242 89 95 160 203 211 324 51 120 76 246 74 379-1 138-42 264-125 377-82 115-198 207-349 278 74 38 140 82 200 132 59 49 110 103 151 161 42 58 74 119 96 184 23 65 34 131 34 200-2 136-29 264-81 386-53 122-124 232-215 331-90 99-196 183-316 249-121 68-250 111-387 130l-1548 203v-441z"/><path fill="#CD2527" d="M12025 16972l889-1116 39-5c137-19 266-62 387-130 120-66 226-150 316-249 91-99 162-209 215-331 52-122 79-250 81-386 0-59-8-116-24-171l497-625v2519l-2400 494z"/><path fill="#FEFEFE" d="M12914 15856l1014-1272c16 55 24 112 24 171-2 136-29 264-81 386-53 122-124 232-215 331-90 99-196 183-316 249-121 68-250 111-387 130l-39 5z"/><path fill="#CD2527" d="M10868 17164l979-1168 847-111-856 1087-970 192zm1372-1636l977-1165c40 23 76 51 109 84 45 46 81 99 108 159 26 60 39 122 39 187 0 39-4 78-11 117l-413 525c-29 9-59 16-90 19l-719 74zm1612-1113c-10-15-19-30-30-44-41-58-92-112-151-161-60-50-126-94-200-132 151-71 267-163 349-278 67-92 107-192 121-301l484-578v766l-573 728z"/><path fill="#FEFEFE" d="M11847 15996l393-468 719-74c31-3 61-10 90-19l-355 450-847 111zm1615-1086c7-39 11-78 11-117 0-65-13-127-39-187-27-60-63-113-108-159-33-33-69-61-109-84l724-864c-14 109-54 209-121 301-82 115-198 207-349 278 74 38 140 82 200 132 59 49 110 103 151 161 11 14 20 29 30 44l-390 495z"/><path fill="#DD1F47" d="M10668 13385v-1327l943-1000 678 106-743 1018-141-17v210z"/><path fill="#FEFEFE" d="M11405 12375v-210l141 17z"/><path fill="#AEDDEE" d="M6507 13449v-1047l817-931 970-205zM6507 14802v-1081l2021-2493 1154-226-999 1195-6-21-609 83-338 1080z"/><path fill="#FEFEFE" d="M7730 13339l338-1080 609-83 6 21z"/><path fill="#3BA7D3" d="M10324 17164l-3505-563 560-813 457 45v-402l-202-15 539-783 788 15 248 882-261-19v431l1018 101v-458l-315-23-624-2170 1297-1883v5655zm-1877-2929l275-400 119 397-394 3z"/><path fill="#FEFEFE" d="M9966 16043l-1018-101v-431l261 19-248-882-788-15 274-398 394-3-119-397 305-443 624 2170 315 23v458zm-2130-210l-457-45 255-372 202 15v402z"/><path fill="#3BA7D3" d="M6507 15559v-591l1119-1299-258 826-861 1064zm1535-1899l210-717 151-176 98 326-459 567zm784-969l-90-310 1230-1427 326-77-1466 1814z"/><path fill="#FEFEFE" d="M7368 14495l258-826 626-726-210 717-674 835zm1133-1402l-98-326 333-386 90 310-325 402z"/><path fill="#EA66A1" d="M10668 16972v-1090l1061-995-1 693-323 33v441l62-8-799 926zm1500-1740l2-759 175-164 621-12h9l-807 935zm783-1336h-4l-160-2 666-625c8 39 12 79 12 118-1 67-15 131-42 192-28 62-65 116-111 163s-100 85-163 112c-62 28-128 42-198 42zm970-697c-12-53-29-105-50-155-17-40-35-77-56-114l610-572v257l-504 584z"/><path fill="#FEFEFE" d="M11405 16054v-441l323-33 1-693 441-414-2 759-701 814-62 8zm940-1745l442-415 160 2h4c70 0 136-14 198-42 63-27 117-65 163-112s83-101 111-163c27-61 41-125 42-192 0-39-4-79-12-118l362-339c21 37 39 74 56 114 21 50 38 102 50 155l-946 1098h-9l-621 12z"/></g></svg>