<svg xmlns="http://www.w3.org/2000/svg" width="210mm" height="297mm" shape-rendering="geometricPrecision" text-rendering="geometricPrecision" image-rendering="optimizeQuality" fill-rule="evenodd" clip-rule="evenodd" viewBox="0 0 21000 29700"><g fill-rule="nonzero"><path fill="#252422" d="M12607 18014c-335-457-499-996-737-1505-97-209-203-423-375-580-138-126-318-187-499-221-8-2-22 17-11 20 31 10 60 21 89 32-133-22-272-23-397-22-185 3-379 10-563 30-146 15-288 41-413 123l-4 5c-54 36-103 82-147 129-185 196-328 433-474 657-180 274-355 567-580 807-213 228-468 386-707 580-125 101-249 279-210 449 38 166 187 246 344 273 323 56 591-210 784-480-50 177-89 357-112 539-100 92-200 198-314 266-74 44-147 89-197 161-70 101 29 212 101 274 124 106 283 176 432 238 142 59 285 115 430 164-51 569-135 1135-119 1707 7 248 30 517 136 746 69 149 245 194 395 195 399 4 545-317 549-668 0-30-1-59-2-89-40-269-110-533-137-805-31-301-54-602-62-905 331 44 676 47 1011-2-7 304-31 606-62 907-27 272-97 536-137 805-1 30-2 59-2 89 4 351 150 672 549 668 150-1 326-46 395-195 106-229 130-498 136-746 16-583-71-1160-121-1740 222-98 429-227 609-391l4-4c81-63 137-148 125-260-10-96-109-195-161-271-76-114-176-212-265-316-15-98-33-197-51-295 146 265 393 473 717 396 108-26 255-108 281-229 43-196-119-388-228-536z"/><path fill="#F6B8AD" d="M10135 15843c168 1 335-11 503-16 37-1 74-1 112-1-13 222-86 478-359 477-269-1-291-261-334-460h78z"/><path fill="#D85C4C" d="M10392 16303h-1c-171-1-242-106-282-233 28 1 56 1 84 1 175 0 349-14 523-35-45 147-137 267-324 267z"/><path fill="#F6B8AD" d="M7903 18693c-203-48-303-212-218-409 92-210 401-348 574-490 338-277 595-623 835-985 76-114 150-229 226-342 9 28 22 56 37 79 14 24 38 51 65 66-46 97-90 194-135 291-128 273-258 546-374 825-62 149-119 301-168 456-207 294-433 604-842 509z"/><path fill="#252422" d="M8049 18710zm0 0c318 0 514-268 695-524-181 256-377 524-695 524zm-142-16h-1 1zm-3-1h-1-1 2zm-2 0c-8-2-16-4-23-7 7 3 15 5 23 7zm-23-7h-1 1zm-2 0zm-1 0zm1480-2141c-10-16-19-33-26-51l1-1c7 18 15 36 25 52z"/><path fill="#F29587" d="M8049 18710c-45 0-92-5-142-16h-1c0-1-1-1-2-1h-1-1c-8-2-16-4-23-7h-1-2c-130-39-211-129-220-244 19 0 39-3 61-11 30-11 59-24 87-38h1c40 17 80 24 120 24 199 0 394-177 500-318 356-475 708-1036 905-1605 7 18 16 35 26 51 0 0 0 1 1 1 14 24 38 51 65 66-46 97-90 194-135 291-128 273-258 546-374 825-62 149-119 301-168 456 0 1-1 2-1 2-181 256-377 524-695 524z"/><path fill="#D82137" d="M9890 22215c-49 246-285 314-503 284-248-34-305-284-339-493-10-60-17-120-23-180 74 149 227 252 407 233 176-19 385-100 470-262 12 140 15 280-12 418z"/><path fill="#F6B8AD" d="M9880 21618c3 19 5 37 8 55-111 202-251 297-486 304-175 5-332-118-387-279-1-5-1-10-1-16 155-77 316-136 491-143 136-6 252 48 375 79z"/><path fill="#D82137" d="M9865 21507c-274-116-601-7-853 145-1-36-2-73-3-109 25-51 62-91 111-120 73-50 164-76 249-96 177-44 323-9 480 60 6 40 11 80 16 120z"/><path fill="#F6B8AD" d="M9836 21288c-181-107-430-57-617 19-40 16-146 81-212 153-1-44-1-88-1-132 3-456 77-908 74-1363 64 21 127 41 192 59 156 45 320 79 487 104-5 7-8 14-8 22-5 381 36 761 85 1138z"/><path fill="#D82137" d="M11577 22006c-34 209-91 459-339 493-218 30-454-38-503-284-27-138-24-278-11-418 84 162 293 243 469 262 180 19 333-84 407-233-5 60-13 120-23 180z"/><path fill="#F6B8AD" d="M11610 21698c-55 161-212 284-387 279-235-7-375-102-486-304 3-18 5-36 8-55 123-31 239-85 375-79 175 7 336 66 491 143 0 6 0 11-1 16z"/><path fill="#D82137" d="M11613 21652c-252-152-579-261-853-145 5-40 10-80 16-120 157-69 303-104 480-60 85 20 176 46 249 96 49 29 86 69 111 120-1 36-2 73-3 109z"/><path fill="#F6B8AD" d="M11619 21328c0 44 0 88-1 132-66-72-172-137-212-153-187-76-436-126-617-19 49-377 90-757 85-1138 0-8-4-17-10-24 236-38 466-100 681-192-6 466 71 928 74 1394z"/><path fill="#252422" d="M9391 21977zm0 0h11c235-7 375-102 486-304-111 202-251 297-486 304h-11zm-373-270v-1 1zm862-89l-12-3 12 3z"/><path fill="#F29587" d="M9391 21977c-167 0-316-117-373-270v-1c-1-3-2-5-3-8-1-5-1-10-1-16 83-41 168-77 256-103 11 40 22 79 36 118 28 79 111 139 192 139 43 0 85-17 119-57 50-60 77-133 91-212 53 16 106 34 160 48l12 3c3 19 5 37 8 55-111 202-251 297-486 304h-11z"/><path fill="#252422" d="M9093 21384c48-36 97-64 123-75-26 11-74 39-123 75zm743-96c-38-22-79-38-123-47v-1c44 10 85 26 123 48z"/><path fill="#F29587" d="M9007 21460c-1-36-1-72-1-107v-25c3-448 74-892 74-1339v-24c64 21 127 41 192 59 156 45 320 79 487 104-5 7-8 14-8 22v58c-1 361 38 722 85 1080-38-22-79-38-123-48-1-26-3-51-4-76-14-266-39-540-96-801-20-93-89-134-161-134-102 0-210 79-201 203-54 279-73 585-35 877-26 11-75 39-123 75-2 1-3 2-5 3-2-13-7-26-16-37-1-1-2-2-3-2-4 0-10 7-10 11 2 18-2 36-4 55-17 14-33 30-48 46z"/><path fill="#252422" d="M11234 21977zm0 0c168 0 318-119 374-274-56 155-206 274-374 274zm375-275v-1 1zm1-3v-1c1-5 1-10 1-16 0 6 0 11-1 16v1zm1-17c-20-10-41-20-61-29 20 9 41 19 61 29zm-866-64c20-5 40-11 60-17-20 6-40 12-60 17z"/><path fill="#F29587" d="M11234 21977h-11c-235-7-375-102-486-304 3-18 5-36 8-55 20-5 40-11 60-17 33-10 65-20 98-29 45 69 109 116 186 116 49 0 102-19 159-65 20-16 38-36 54-58 85 20 167 51 248 88 20 9 41 19 61 29 0 6 0 11-1 16v1s-1 1-1 2v1s0 1-1 1c-56 155-206 274-374 274z"/><path fill="#252422" d="M11618 21460c-66-72-172-137-212-153l-6-2c2 1 4 1 6 2 40 16 146 81 212 153 1-33 1-66 1-99 0 33 0 66-1 99zm-829-172c18-10 36-19 55-27v1c-19 7-37 16-55 26z"/><path fill="#F29587" d="M11618 21460c-66-72-172-137-212-153-2-1-4-1-6-2 25-123 34-251 46-341 26-208 58-474-79-649-49-61-95-86-138-86-139 0-240 265-249 381-17 222-108 431-136 651-19 8-37 17-55 27 47-358 86-719 85-1080v-58c0-8-4-17-10-24 236-38 466-100 681-192v55c-1 447 71 891 74 1339v33c0 33 0 66-1 99z"/><path fill="#ED70A2" d="M11857 18896c11 31 60-8 57-31-2-15-4-29-6-43 57 101 120 199 185 297 35 52 73 107 104 162 44 81-10 152-75 207-389 233-771 419-1222 501-452 81-920 54-1367-38-355-74-713-198-1042-354-117-56-279-128-331-257-35-86 173-160 217-206 73-76 143-154 212-233-13 120-20 241-17 362 23-53 27-129 38-177 21-86 62-167 93-250 7-18 14-35 20-53 79-394 188-778 341-1156 105-260 220-516 330-773 77-182 185-381 240-579 5-43 8-87 7-132l-1 3c-29 134-112 248-172 370-8 17-16 33-23 49-3-1-5-2-8-4-21-17-36-40-50-62-15-23-27-49-38-75 44-64 88-127 134-189 137-182 273-357 517-376 5 0 13-8 16-16h8c-30 147-35 294 51 422 75 113 231 147 356 135 256-26 417-329 405-570 220 12 439 61 619 191 92 98 168 215 240 350-56 46-99 97-168 132-46 24-102 51-150 67-15-47-30-95-46-141-23-68-58-130-87-195 4 45 8 91 12 136l12 33c39 109 57 232 84 345 59 255 129 507 186 762 103 460 170 938 319 1386z"/><path fill="#252422" d="M10343 20037h-1 1zm0 0c185 0 369-15 551-47-182 32-366 47-551 47zm553-48h4c451-82 833-268 1222-501 48-41 91-91 91-147 0 56-43 106-91 147-389 233-771 419-1222 501h-4zm-1352-36c-1 0-1-1-2-1 1 0 1 1 2 1zm2328-1046zm2 0c17-2 40-24 40-40 0 16-23 38-40 40zm-16-10zm-1475-2495h-1 1zm0 0c16 0 32-1 48-2-16 1-32 2-48 2zm-766-72c6-17 11-35 16-52-4 17-10 33-15 50 0 1-1 2-1 2zm462-59c-1-2-2-4-4-6 2 2 3 4 4 6z"/><path fill="#E34873" d="M10343 20037h-1c-268 0-536-31-798-84-1 0-1-1-2-1-3 0-6-1-9-1-355-74-713-198-1042-354-117-56-279-128-331-257-2-6-4-13-4-19 0-78 180-145 221-187 73-76 143-154 212-233-11 103-18 207-18 311 0 17 0 34 1 51 23-53 27-129 38-177 21-86 62-167 93-250 7-18 14-35 20-53 79-394 188-778 341-1156 105-260 220-516 330-773 29-70 64-143 98-216-65 208-105 431-154 615-107 405-205 819-211 1240-8 610 260 1165 894 1294 77 15 151 23 222 23 615 0 1024-552 1118-1149 63-403-8-822-68-1221-61-407-98-825-293-1194-12-22-34-32-56-32-17 0-34 6-47 19-163 159-356 257-541 257-176 0-344-89-471-296-7-10-15-17-23-22-7-8-13-16-22-25-12-13-29-19-46-19s-34 6-46 19c-50 53-93 115-130 181 5-17 11-33 15-50 1-1 1-2 1-3 5-40 7-80 7-121v-11l-1 3c-29 134-112 248-172 370-8 17-16 33-23 49-3-1-5-2-8-4-21-17-36-40-50-62-15-23-27-49-38-75 44-64 88-127 134-189 58-76 115-152 180-214 18 3 35 7 53 10 96 17 193 29 291 35 6 69 26 137 68 199 2 2 3 4 4 6 67 94 191 131 303 131h1c16 0 32-1 48-2 190-19 328-191 381-377 31-4 62-9 92-13 130-20 254-49 372-89 63 27 123 59 179 100 92 98 168 215 240 350-56 46-99 97-168 132-46 24-102 51-150 67-15-47-30-95-46-141-23-68-58-130-87-195 4 45 8 91 12 136l12 33c39 109 57 232 84 345 59 255 129 507 186 762 103 460 170 938 319 1386 0 0 1 0 1 1 3 7 8 10 14 10h2c17-2 40-24 40-40v-2c-2-15-4-29-6-43 57 101 120 199 185 297 35 52 73 107 104 162 11 21 16 41 16 60 0 56-43 106-91 147-389 233-771 419-1222 501h-4c0 1-1 1-2 1-182 32-366 47-551 47z"/><path fill="#F6B8AD" d="M12638 18669c-348 163-659-170-832-440-53-258-116-515-178-769-58-236-125-470-194-703-16-53-32-105-48-158 76-10 165-38 223-82 32-23 83-55 113-93 191 370 328 767 507 1143 79 168 175 316 287 464 118 156 415 501 122 638z"/><path fill="#F29587" d="M12402 18063c-42-50-78-106-109-166 37 54 75 109 109 166z"/><path fill="#252422" d="M12451 18712zm0 0c61 0 123-13 187-43-64 30-126 43-187 43zm-640-475c-1-1-1-2-2-3 1 1 1 2 2 3zm-3-5l-1-1 1 1zm-83-1804c-1-1-2-3-3-4 1 1 2 3 3 4z"/><path fill="#F29587" d="M12451 18712c-267 0-498-256-640-475-1-1-1-2-2-3 0-1 0-1-1-2l-1-1c0-1-1-1-1-2-53-258-116-515-178-769-58-236-125-470-194-703-16-53-32-105-48-158 76-10 165-38 223-82 32-23 83-55 113-93 1 1 2 3 3 4 3 8 7 16 11 23-35 30-56 75-53 136 42 702 113 1850 960 2050 15 3 28 4 42 5-14 10-30 19-47 27-64 30-126 43-187 43z"/><path fill="#252422" d="M15414 14471c-51-260-125-515-219-764-145-381-318-771-589-1081-257-295-576-539-927-714-181-91-377-166-572-222-134-39-243-43-360-21-32-45-66-89-102-133-151-182-315-314-527-416-104-50-214-86-325-115-49-13-100-6-150 3-441-395-1093-406-1665-285-337 72-670 171-976 334-295 156-549 395-771 641-168-50-303-59-480-8-194 56-391 131-572 222-351 175-669 419-927 714-270 310-444 700-589 1081-94 249-167 504-219 764-3 34-6 69-10 103 9 15 17 29 26 43l1-4c112 147 257 274 416 380v8c18 11 37 21 55 31 1-27 3-53 7-80 2-50 5-99 10-148 20-185 66-366 123-542-3 166 5 332 20 498 10 102 24 205 43 307l-6-3c3 13 7 25 11 38 54 43 112 81 171 116 34 13 67 25 101 37 150 51 327 90 510 106l1 5c11 1 23 2 34 3-1-40-2-79-1-119-6-57-11-113-16-167-13-134-8-266 4-397 8 55 18 111 30 167 25 113 55 227 89 339 20 50 40 101 60 152 238-10 447-48 642-161l-9-24h-1c-130-334-230-680-276-1036-30-233-29-465-4-697 6-57 18-111 32-165-15 107-25 216-30 327-16 352 74 634 248 937 69 121 141 238 257 321 55 40 114 73 173 107 105 58 178 48 289 74 215 529 682 897 1272 1004 393 71 797 38 1188-21 409-63 755-211 1035-522 126-141 242-298 337-466 389-39 681-399 850-719 178-337 222-761 193-1153 29 90 54 181 64 276 26 232 26 464-4 697-46 356-145 702-276 1036-3 8-7 16-10 24 196 113 405 151 642 161 20-51 40-102 60-152 35-112 64-226 89-339 12-56 22-112 31-167 12 131 16 263 4 397-5 54-11 110-16 167 0 40 0 79-2 119 12-1 23-2 34-3l1-5c183-16 360-55 511-106 33-12 66-24 100-37 60-35 117-73 171-116 4-13 8-25 11-38l-6 3c19-102 33-205 43-307 15-166 23-332 20-498 57 176 103 357 123 542 5 49 8 98 10 148 4 27 6 53 7 80 19-10 37-20 55-31v-8c159-106 304-233 416-380l1 4c9-14 18-28 26-43-3-34-6-69-10-103z"/><path fill="#ED70A2" d="M7397 13385c-52 235-45 488-24 726 33 374 142 742 299 1084-153 61-319 91-489 98-41-116-79-233-112-352-63-155-118-319-157-483-6 24-12 48-16 72-19 170-19 343-8 511 4 77 11 160 21 244-193-18-383-63-555-125-49-17-98-37-148-59-23-101-42-202-56-305-23-172-33-346-34-519-12-98-20-196-24-295-3 25-7 50-10 76-99 244-173 494-199 758-3 35-5 71-7 106-153-101-295-222-407-359 134-631 391-1241 770-1760 215-295 509-524 819-710 169-102 345-177 529-250 100-39 200-78 305-103 104-25 205-11 307-9-319 361-524 762-633 1203-63 147-135 289-171 451z"/><path fill="#252422" d="M7361 13939c-9-183-3-370 35-547-38 177-44 364-35 547zm35-548v-1 1zm0-2c1-1 1-1 1-2 0 1 0 1-1 2zm-363-1280h1-1zm1-1c9-5 17-10 26-15-9 5-17 10-26 15zm862-368c47-11 93-15 139-15-46 0-92 4-139 15zm305-9c-21 0-42-1-63-2 21 1 42 2 63 2zm-165-6z"/><path fill="#DF416B" d="M7361 13939c-49-76-96-153-144-232-120-198-224-278-446-336-447-117-401-520-248-882 155-144 329-270 510-380h1v-1c9-5 17-10 26-15 169-102 345-177 529-250 100-39 200-78 305-103h2c47-11 93-15 139-15h1c34 0 68 2 102 4 21 1 42 2 63 2-319 361-524 762-633 1203-63 147-135 289-171 451v2c0 1 0 1-1 2v3c-38 177-44 364-35 547z"/><path fill="#252422" d="M7660 15167c-64-141-119-285-164-433 0 0 1 0 1 1 45 147 99 292 163 432z"/><path fill="#DF416B" d="M7183 15293c-41-116-79-233-112-352-63-155-118-319-157-483-6 24-12 48-16 72-11 97-15 195-15 292 0 74 2 147 7 219 4 77 11 160 21 244-193-18-383-63-555-125-49-17-98-37-148-59-23-101-42-202-56-305-23-172-33-346-34-519-12-98-20-196-24-295-3 25-7 50-10 76-99 244-173 494-199 758-3 35-5 71-7 106-153-101-295-222-407-359 47-218 108-433 184-643 153-100 323-166 506-166 56 0 114 6 172 20 248 57 433 300 583 487 175 219 349 386 580 473 45 148 100 292 164 433 4 9 8 19 12 28-153 61-319 91-489 98z"/><path fill="#F6B8AD" d="M11939 15360c-289 368-670 513-1120 584-366 57-751 67-1115-5-734-146-1201-751-1289-1472-48-390-2-791 82-1182 178-58 358-102 541-137-3-50 3-100 16-149 48-289 168-619 383-818-76 144-142 277-184 444-19 79-45 173-54 266 2 37 4 74 6 112 7 37 13 74 19 112 209-34 420-57 631-74 2-33 7-66 13-98h-3c15-65 20-135 36-199 23-91 48-185 86-273-6 153-18 317 22 461h-4c7 33 15 65 23 97 131-9 262-17 393-23 365-16 723-16 1076 14l-3-57h-2c0-2 1-4 2-7-4-45-6-91-3-136 0-2 0-5-1-7-19-109-41-219-59-329 48 54 85 140 114 192 29 53 64 111 92 172 38 60 64 127 84 196 194 24 388 56 581 100 62 328 114 658 115 994 2 467-194 862-478 1222z"/><path fill="#F29587" d="M10454 15906c-324 0-644-82-945-195-330-124-680-547-701-916-1-22-40-12-62-22-84-40-118-101-132-172-2-25-5-49-5-74 37 26 77 44 117 54 17 8 36 14 58 18 14 2 28 3 43 3 68 0 140-23 194-65 42-23 83-51 119-85-17 135-87 261-98 402-3 32 0 63 6 94-7-10-12-16-14-16-4 0 4 26 35 101 45 107 118 197 208 272 256 244 707 323 1040 352 42 4 85 6 127 6 322 0 632-107 895-297 144-104 272-240 377-384 60-83 108-170 150-260-113 293-289 545-559 723-259 170-572 256-880 256-33 0-66-1-99-3-351-21-687-94-972-309-223-168-384-409-462-676 87-28 154-99 190-184 6-12 6-21 2-27-87 86-205 159-311 159-35 0-69-8-99-25 30 53 81 89 147 89 8 0 16 0 24-1 11-2 21-4 31-7 75 313 258 572 514 768 280 215 672 280 1022 280h52c704-13 1327-495 1476-1182 2-9-1-12-6-12-1 0-2 0-4 1 28-67 56-134 86-200 32 165-17 331-62 496-97 246-209 477-411 672-276 265-673 356-1044 366h-47z"/><path fill="#252422" d="M11497 13020c-3 0-6 0-10-1 4 1 7 1 10 1zm-1065-14c149-7 298-11 445-11-147 0-296 4-445 11zm445-11z"/><path fill="#F29587" d="M8456 13499c12-72 26-143 41-214 178-58 358-102 541-137-1-9-1-17-1-25 0-41 6-83 17-124 48-289 168-619 383-818-76 144-142 277-184 444-19 79-45 173-54 266 2 37 4 74 6 112 7 37 13 74 19 112 209-34 420-57 631-74 2-33 7-66 13-98h-3c15-65 20-135 36-199 23-91 48-185 86-273-3 67-7 136-7 204 0 89 7 176 29 257h-4c7 33 15 65 23 97 131-9 262-17 393-23h11c149-7 298-11 445-11 205 0 408 8 610 24 4 1 7 1 10 1l-3-57h-2c0-2 1-4 2-7-2-29-4-59-4-89 0-16 0-32 1-47 0-2 0-5-1-7-19-109-41-219-59-329 48 54 85 140 114 192 29 53 64 111 92 172 38 60 64 127 84 196 194 24 388 56 581 100 17 88 33 177 47 265-130-38-260-75-393-107-436-105-892-123-1339-124h-33c-706 0-1473 30-2128 321z"/><path fill="#ED70A2" d="M13175 13968c-103 432-412 864-858 977 85-165 148-339 179-521 279 79 450-353 479-559 39-288-250-668-546-507-15-65-32-130-49-195 23 6 46 12 68 18l1 1c13 4 27 7 40 9 3-12 6-24 10-35 8-366-117-739-331-1040-24-28-49-55-75-82-29-29-61-54-93-78 272 350 395 758 445 1195-19-6-39-11-58-17-20 1-41-5-59-12-12-4-24-8-36-13-186-48-374-85-563-114-4-121-88-244-143-348-39-76-93-207-174-249-18-9-42 17-40 34 12 113 43 222 60 334 9 62 44 130 32 194-332-37-667-51-1003-46-138 2-276 7-414 16-11-80 2-160 2-240-1-115 4-231-1-346-1-30-43-11-52 4-109 186-126 392-158 598-176 15-351 37-525 66-20 3-40 7-59 11 4-138 26-272 54-409 38-190 120-338 210-505 11-21-13-30-28-19-279 203-463 636-469 984-90 22-179 47-268 74-30 9-138 37-241 70v-1c-20 6-40 13-60 21v1c-56 21-105 43-132 64-41-443 110-903 438-1201 35-44 71-89 111-128-209 131-358 314-472 537-71 136-148 342-161 533 6 106 25 211 58 311 47-17 94-34 140-50-21 85-41 170-58 256-285-133-479 238-483 475-3 227 174 528 423 411 5 62 11 125 21 187 17 115 46 226 83 330-123-37-223-74-339-156-127-90-205-198-282-334-158-278-252-543-242-868 11-342 63-686 184-1008 122-323 330-614 559-870 217-241 468-460 755-614 282-151 596-232 906-303 534-123 1072-106 1520 164 47 19 92 43 137 70 82-12 161-5 253 26 83 28 159 63 227 111 124 66 239 148 336 248 335 344 512 774 690 1212 163 404 150 907 51 1326z"/><path fill="#252422" d="M8291 12770c18-59 40-116 62-168h1c-23 52-44 109-63 168zm-549-175z"/><path fill="#DF416B" d="M8048 14784c-108-86-178-186-249-310-150-264-242-517-242-821v-47c11-342 63-686 184-1008 1-1 1-2 1-3 100-262 256-503 434-721-42 192-40 388 36 566 31 73 81 126 141 162-22 52-44 109-62 168-471 499-637 1237-416 1826 49 70 103 132 173 188zM8236 13042v-1 1zm0-2v-1 1z"/><path fill="#252422" d="M8420 14964c-123-37-223-74-339-156l-33-24 33 24c116 82 216 119 339 156z"/><path fill="#DF416B" d="M8236 13044v-2 2zm0-3v-1 1z"/><path fill="#252422" d="M8239 13008v-1 1zm0-1c3-27 7-54 12-80v-2c10-52 24-105 40-155v-1c-24 77-43 158-52 238z"/><path fill="#DF416B" d="M8236 13039c3-37 8-75 15-112-5 26-9 53-12 80v1c-1 11-2 21-3 31zm15-114z"/><path fill="#252422" d="M8206 14473zm0 0c35 0 72-8 110-26-38 18-75 26-110 26zm-313-436v-1c3-203 145-503 365-503-220 0-362 300-365 503v1zm483-476h-1 1c17-86 37-171 58-256-21 85-41 170-58 256zm-118-28zm-7-606v-2 2zm0-2c10-52 24-105 40-155-16 50-30 103-40 155z"/><path fill="#CB2F47" d="M8420 14964c-123-37-223-74-339-156l-33-24c-70-56-124-118-173-188-221-589-55-1327 416-1826-16 50-30 103-40 155v2c-7 37-12 75-15 112v5c6 106 25 211 58 311 47-17 94-34 140-50-21 85-41 170-58 256h-1c-41-19-80-28-117-28-220 0-362 300-365 503v6c0 192 126 431 313 431 35 0 72-8 110-26 5 62 11 125 21 187 17 115 46 226 83 330z"/><path fill="#252422" d="M12387 12528c-7-18-14-36-21-53 8 17 15 35 21 53z"/><path fill="#DF416B" d="M12317 14945c263-67 478-244 631-466 68-205 106-416 96-633-25-546-281-965-657-1318-6-18-13-36-21-53 219-45 386-196 516-389 89 180 165 367 242 556 87 216 124 461 124 706 0 213-27 426-73 620-103 432-412 864-858 977z"/><path fill="#252422" d="M12499 13156v-32 32z"/><path fill="#DF416B" d="M12499 13154v-1 1z"/><path fill="#252422" d="M12499 13124v-2 2zm0-3c0-201-40-403-113-594l1 1c72 190 112 392 112 593z"/><path fill="#252422" d="M12563 14434zm0 0c239-1 385-380 411-568-26 188-172 567-411 568zm-65-9c0-1-1-1-2-1 1 0 2 0 2 1zm477-560v-1 1zm-546-507c-15-65-32-130-49-195 17 65 34 130 49 195 49-26 97-38 145-38-48 0-96 12-145 38zm145-38zm-75-164v-2 2zm0-3v-29-2-1c0-201-40-403-112-593 76 201 116 414 112 625z"/><path fill="#CB2F47" d="M12317 14945c85-165 148-339 179-521 1 0 2 0 2 1 22 6 44 9 65 9 239-1 385-380 411-568l1-1v-1c2-18 3-36 3-54 0-230-184-490-404-490-48 0-96 12-145 38-15-65-32-130-49-195 23 6 46 12 68 18l1 1c13 4 27 7 40 9 3-12 6-24 10-35v-2-1c4-211-36-424-112-625 376 353 632 772 657 1318 10 217-28 428-96 633-153 222-368 399-631 466z"/><path fill="#252422" d="M12458 11455c-8-8-16-17-24-25 8 8 16 17 24 25zm-590-385s-1 0-2-1c1 1 2 1 2 1zm-248-26h4-4zm4 0c22-3 45-5 67-5-22 0-45 2-67 5zm68-5h-1 1zm-214-66c-1-1-3-2-5-3 2 1 4 2 5 3zm-1526-160c2-1 4-1 5-2-1 1-3 1-5 2zm6-2h3-3zm9-2c201-46 403-72 599-72-196 0-398 26-599 72zm600-72z"/><path fill="#DF416B" d="M11145 11891h-21c-688-6-1452-300-1808-894 206-80 421-135 636-184 2-1 4-1 5-2h4c2-1 4-1 6-2 201-46 403-72 599-72h1c321 0 630 69 906 233 2 1 4 2 5 3s2 1 3 2c47 19 92 43 137 70 1 0 1-1 2-1h4c22-3 45-5 67-5h1c55 0 112 10 174 30 1 1 2 1 2 1 1 1 2 1 3 1 83 28 159 63 227 111 124 66 239 148 336 248 8 8 16 17 24 25 13 13 25 27 37 41-393 255-858 395-1350 395z"/><path fill="#252422" d="M8320 13303c-1-4-1-7-1-11 0 4 0 7 1 11 27-21 76-43 132-64v-1c20-8 40-15 60-21-20 6-40 13-60 21v1c-56 21-105 43-132 64zm-1-11v-2 2zm0-2v-2 2zm-1-3v-2 2zm0-3v-1 1zm0-2v-1 1zm0-3v-1 1zm194-61c103-33 211-61 241-70 89-27 178-52 268-74 3-185 56-393 147-578 1 0 1 0 1-1-91 186-145 394-148 579-90 22-179 47-268 74-30 9-138 37-241 70z"/><path fill="#DF416B" d="M8320 13303c-1-4-1-7-1-11v-2-2c-1 0-1-1-1-1v-2-1-1-1-1-2-1c-17-220 14-443 90-648 64 26 135 38 206 38 21 0 42-1 62-3 133-12 259-66 379-121 38-17 76-33 113-48-91 185-144 393-147 578-90 22-179 47-268 74-30 9-138 37-241 70v-1c-20 6-40 13-60 21v1c-56 21-105 43-132 64z"/><path fill="#252422" d="M12445 13151c-4-34-8-68-13-101 5 33 9 67 13 101zm-63-17zm0 0h3-3zm-53-11zm-1-1c-12-4-24-8-36-13-186-48-374-85-563-114-4-121-88-244-143-348-39-76-93-207-174-249h-1 1c81 42 135 173 174 249 55 104 139 227 143 348 189 29 377 66 563 114 12 5 24 9 36 13zm-864-162c-2 0-5-1-7-1 2 0 5 1 7 1 2-10 3-19 3-29 0 10-1 19-3 29zm-1417-30c-3-24-5-48-5-72 0 24 2 48 5 72 138-9 276-14 414-16 43-1 86-1 129-1-43 0-86 0-129 1-138 2-276 7-414 16zm544-17h-1 1zm-542-261c0-65 1-130 1-194 0 64-1 129-1 194zm1322-221c0-15 17-34 32-35-15 1-32 20-32 35zm33-35z"/><path fill="#DF416B" d="M12445 13151c-19-6-39-11-58-17h-5c-18 0-37-6-53-11 0-1-1-1-1-1-12-4-24-8-36-13-186-48-374-85-563-114-4-121-88-244-143-348-39-76-93-207-174-249h-1c-2-1-5-2-7-2h-1c-15 1-32 20-32 35 0 0 1 0 1 1 12 113 43 222 60 334 7 52 34 110 35 165 0 10-1 19-3 29-2 0-5-1-7-1-287-32-576-46-866-46h-1c-43 0-86 0-129 1-138 2-276 7-414 16-3-24-5-48-5-72 0-56 7-111 7-167v-1-38c0-65 1-130 1-194 145 52 285 119 435 154 48 11 95 16 143 16 114 0 227-28 335-66 201-72 388-192 606-206 10 0 19-1 28-1 201 0 406 128 613 133h17c22 0 44-1 65-3 68 180 112 369 140 565 5 33 9 67 13 101z"/><path fill="#252422" d="M9843 12911c25-166 44-331 113-485v1c-69 153-88 318-113 484zm-535-297v-2 2zm0-3v-1 1z"/><path fill="#DF416B" d="M9254 13023c4-138 26-272 54-409v-2-1-1c14-65 32-125 55-182 98-28 197-45 302-45 63 0 129 6 197 20 32 6 63 14 94 23-69 154-88 319-113 485-2 12-4 23-5 35-176 15-351 37-525 66-20 3-40 7-59 11z"/><path fill="#F6B8AD" d="M12524 14018c33-28 62-67 94-95 30-27 63-49 95-73 14-19 28-37 42-55-2-2-4-2-8-2-59 13-112 47-161 81-21 14-45 31-67 50-12-178-42-355-82-530 277-75 481 236 460 486-18 210-132 493-373 494-6 0-14 4-21 10 19-122 24-245 21-366z"/><path fill="#252422" d="M12519 13924c-12-178-42-355-82-530 40 175 70 352 82 530 22-19 46-36 67-50 49-34 102-68 161-81h3-3c-59 13-112 47-161 81-21 14-45 31-67 50zm236-129v-1 1zm-5-2zm-313-399c2 0 3-1 5-1-2 0-3 1-5 1z"/><path fill="#EF7C6D" d="M12503 14384c15-99 22-199 22-298 0-23 0-45-1-68 33-28 62-67 94-95 30-27 63-49 95-73 14-19 28-37 42-55v-1c-1 0-3-1-5-1h-3c-59 13-112 47-161 81-21 14-45 31-67 50-12-178-42-355-82-530 2 0 3-1 5-1 26-7 51-10 75-10 16 0 31 1 47 4-40 76-53 173-21 246 22 52 85 75 136 77h9c13 0 24-1 35-2 10-1 20-2 28-2 24 0 43 8 66 50 12 22 32 31 52 31 8 0 17-1 25-5 5 33 5 66 3 98-18 210-132 493-373 494-6 0-14 4-21 10z"/><path fill="#F6B8AD" d="M8169 14028c21 24 41 48 63 71s41 49 74 54h2c-2 77-1 154 3 232-223 36-343-178-338-393 5-210 130-419 395-396h1c-29 157-49 315-58 474-5-5-11-9-17-14-18-16-69-41-76-43-34-11-67-23-101-30 16 16 37 28 52 45z"/><path fill="#252422" d="M8368 13596c-9 0-19-1-28-1 9 0 19 0 28 1z"/><path fill="#EF7C6D" d="M8262 14389c-217 0-319-255-281-476 11 7 24 12 38 12 3 1 5 1 8 1 90 0 166-71 213-142 31-46 54-125 38-186 16-2 33-3 51-3h11c9 0 19 1 28 1h1c-29 157-49 315-58 474-5-5-11-9-17-14-18-16-69-41-76-43-34-11-67-23-101-30 16 16 37 28 52 45 21 24 41 48 63 71s41 49 74 54h2c0 27-1 53-1 80 0 50 1 101 4 152-17 2-33 4-49 4z"/><path fill="#ED70A2" d="M14980 14922c-1-35-4-71-7-106-26-264-100-514-199-758-3-26-6-51-10-76-4 99-12 197-23 295-2 173-12 347-35 519-14 103-33 204-56 305-50 22-99 42-147 59-172 62-363 107-556 125 10-84 17-167 22-244 10-168 10-341-8-511-5-24-11-48-17-72-38 164-94 328-156 483-34 119-72 236-113 352-169-7-336-37-489-98 158-342 266-710 299-1084 21-238 28-491-24-726-34-155-101-292-163-432-3-27-7-53-12-79-39-245-172-474-266-702-66-161-141-307-234-446 59-2 118 0 178 14 105 25 205 64 305 103 184 73 360 148 530 250 310 186 603 415 818 710 379 519 636 1129 770 1760-112 137-254 258-407 359z"/><path fill="#252422" d="M13500 13844c3-134-4-269-27-399 23 130 30 265 27 399zm-27-400v-1 1zm-1-3v-1 1zm0-3zm-1-3zm-1-6zm-8-41zm1159-580c0-1-1-1-1-1s1 0 1 1zm-2-2c0-1-1-2-2-3 1 1 2 2 2 3zm-1657-1066s-1-1-2-1c1 0 2 1 2 1zm-3-1h-1 1zm-2-1h-2 2zm-2 0c-1 0-2 0-3-1 1 1 2 1 3 1zm-169-12c12 0 25-1 38-1-13 0-26 1-38 1zm38-1z"/><path fill="#DF416B" d="M13500 13844c3-134-4-269-27-399v-1-1c-1-1-1-2-1-2v-1-2c-1-1-1-2-1-3 0-2-1-4-1-6-3-14-5-27-8-41-1-1-1-2-1-3-34-155-101-292-163-432-3-27-7-53-12-79-39-245-172-474-266-702-66-161-141-307-234-446 12 0 25-1 38-1 43 0 85 3 128 12 1 1 2 1 3 1h2c0 1 0 1 1 1h2c1 0 2 1 2 1h2c105 25 205 64 305 103 184 73 360 148 530 250 310 186 603 415 818 710 1 1 2 2 2 3 1 0 1 0 1 1 0 0 1 0 1 1 76 104 145 212 211 323-74 191-183 366-336 505-92 83-208 131-327 161-37 10-74 13-112 13-55 0-111-7-167-15-55-8-111-15-167-15-18 0-37 0-55 2-61 7-117 30-168 62z"/><path fill="#252422" d="M14970 14786v-1 1zm-1-3c-14-129-41-255-75-378 35 123 61 249 75 378zm418-220c-1-6-3-12-4-18 1 6 3 12 4 18zm-4-19c0-1 0-2-1-2 1 0 1 1 1 2z"/><path fill="#DF416B" d="M14980 14922c-1-35-4-71-7-106l-3-30v-1c0-1-1-1-1-2-14-129-40-255-75-378 51-40 99-82 145-127 74-71 143-151 207-236 54 164 100 331 136 500 1 0 1 1 1 2v1c1 6 3 12 4 18-112 137-254 258-407 359z"/><path fill="#252422" d="M13675 15293c-169-7-336-37-489-98 153 61 320 91 489 98 41-116 79-233 113-352 3-9 6-17 9-25-3 8-6 16-9 25-34 119-72 236-113 352zm-489-98c0-1 1-1 1-2 0 1-1 1-1 2zm1-2c92-200 166-408 219-621 1 0 1 0 1-1-53 214-128 422-220 622z"/><path fill="#DF416B" d="M13675 15293c-169-7-336-37-489-98 0-1 1-1 1-2 92-200 167-408 220-622 22-17 45-33 69-48 43-27 86-37 130-37 99 0 201 56 302 108-31 109-69 217-111 322-3 8-6 16-9 25-34 119-72 236-113 352z"/><path fill="#252422" d="M13969 15038c8-137 9-276-1-415h1c10 139 8 278 0 415zm738-247v-1 1z"/><path fill="#DF416B" d="M13947 15285c10-84 17-167 22-244v-3c8-137 10-276 0-415 65 31 130 55 193 56h15c201 0 388-63 556-163-6 91-14 183-26 274v1c-1 2-1 3-1 5-14 103-33 204-56 305-50 22-99 42-147 59-172 62-363 107-556 125z"/><path fill="#252422" d="M9488 13933c-16 131-102 228-193 217-90-11-150-126-134-257 16-132 102-229 192-218 91 11 151 127 135 258z"/><path fill="#FEFEFE" d="M9359 13845c-7 61-47 106-90 101-42-5-70-59-62-120 7-61 47-107 90-102 42 6 70 60 62 121z"/><path fill="#252422" d="M11503 13896c13 132-49 246-140 255s-175-90-188-222c-13-131 50-245 140-254 91-9 175 90 188 221z"/><path fill="#FEFEFE" d="M11358 13839c6 61-23 114-65 119-43 4-82-43-88-104s23-114 65-119c43-4 82 42 88 104z"/><path fill="#252422" d="M11912 14588c-109 350-295 653-605 857-286 188-639 273-979 253-351-21-687-94-972-309-223-168-384-409-462-676 87-28 154-99 190-184 6-12 6-21 2-27-115 114-286 206-410 134 33 59 93 98 171 88 11-2 21-4 31-7 75 313 258 572 514 768 294 226 712 286 1074 280 704-13 1327-495 1476-1182 5-23-25-8-30 5zM11773 16647c-16-38-33-75-46-114-3-8-15 2-14 9 10 41 22 81 39 120 5 12 26-4 21-15zM11817 16763c-7-13-29 5-24 16 13 30 21 63 38 91 7 12 25-3 24-14-5-34-21-64-38-93zM11953 17084c-14-34-26-68-43-101-5-11-23 4-18 13 15 33 24 69 42 101 6 9 22-4 19-13zM12061 17292c-19-38-37-75-60-111-10-16-37 6-30 21 19 38 34 76 57 112 11 17 40-7 33-22zM12109 17420c-12-8-33 11-22 22 25 27 29 65 48 95 10 16 34-3 32-18-3-38-27-78-58-99zM12281 17726c-23-37-49-76-81-105-7-6-15 5-14 11 10 45 32 88 60 123 12 15 44-14 35-29zM12388 17921c-13-27-33-48-48-74-9-16-32 5-27 19 9 30 30 52 49 76 9 12 31-10 26-21zM12577 18211c-18-50-60-86-86-132-10-17-37 7-31 22 19 50 51 96 85 137 12 14 37-13 32-27zM12661 18345c-9-17-38 7-31 22 15 34 27 69 39 105 6 15 28-6 28-16 0-41-17-75-36-111zM9254 16639c-3-6-11 1-13 4-13 32-36 60-58 86-13 16 7 23 19 13 18-15 31-32 42-52 8-15 17-34 10-51zM9085 16882c-14 44-61 69-75 112-6 18 11 19 23 9 18-16 33-39 46-60 13-19 22-41 23-64 1-11-16-2-17 3zM8897 17145c-28 40-67 74-92 116-8 13 2 28 16 16 41-33 72-81 97-127 9-16-14-15-21-5zM8734 17365c-9 5-17 7-25 13s-16 12-23 18c-17 13-31 27-44 44-12 18 4 34 21 22 15-12 28-25 41-39 6-7 13-15 20-22s11-17 18-24c7-8 2-18-8-12zM8563 17545c-23 12-41 36-56 56-9 13 3 27 16 16 22-16 41-39 53-63 6-11-6-14-13-9zM8401 17717c-17 14-33 29-51 43-17 13-36 25-49 42-10 13-1 33 17 24 21-10 38-29 54-46 16-16 32-33 44-53 8-14-5-19-15-10zM8207 17870c-27 15-56 27-83 41-10 6-18 13-20 24s6 18 17 17c39-6 77-38 97-71 6-10-1-17-11-11zM8005 18001c-20 4-37 14-53 25-18 13-41 27-55 44-11 12-10 32 11 26 18-6 32-23 46-36 16-15 33-29 52-42 5-4 11-19-1-17zM7799 18177c-18 24-41 43-60 66-15 20-30 57-9 78 12 12 31-6 37-17 9-20 10-42 19-62 9-21 21-39 29-61 4-13-11-11-16-4zM7766 18490c-8-19-14-38-24-56-5-12-23 3-22 12 3 38-4 105 36 125 14 7 33-13 32-26-3-21-14-36-22-55zM7952 18640c-12-4-23-4-36-6-12-2-24-6-36-11-12-4-36 19-23 28 24 16 48 34 78 28 12-2 39-33 17-39zM9134 20053c-23 39-34 90-30 136 2 21 30 9 37-2 24-43 12-87 20-132 4-19-21-13-27-2zM9133 20323c-3-16-24-2-26 9-9 53-19 110-21 164 0 21 29 3 33-6 21-49 23-115 14-167zM9110 20707c-1-15-22-2-24 7-5 49-27 103-13 152 5 17 28-5 30-13 12-47 12-99 7-146zM9093 21032c-2-14-20-2-21 6-8 57-17 113-2 170 6 19 37-6 36-20-5-52-6-104-13-156zM9072 21350c-4-6-13 4-13 9 2 28-7 55-4 83 3 21 31 3 33-10 4-29 3-58-16-82zM9250 21852c-19-20-39-38-55-61s-34-45-54-63c-9-8-29 9-23 19 31 47 43 120 98 146 19 9 50-24 34-41zM11475 20053c-1-13-20-2-21 7-4 45-5 90-11 134-4 26 29 9 33-6 14-45 6-90-1-135zM11493 20353c0-10-11-11-19-8-9 4-16 13-16 24-1 30 2 60 12 89 6 18 35-6 34-20-3-28-9-56-11-85zM11518 20591c-8-23-46 6-43 24 3 22 5 44 8 67s4 49 15 70c11 20 38-3 41-17 9-47-6-100-21-144zM11535 20865c-5-19-36 5-35 20 6 51 2 108 16 158 6 20 34-5 36-16 12-52-2-111-17-162zM11552 21167c-7-20-41 6-37 21 3 19 6 37 8 55 2 20 2 37 11 54 7 14 27 1 31-10 14-41 2-80-13-120zM11536 21728c-4-28-43-4-46 15-3 23-10 46-11 69-1 21 28 11 36 3 12-14 19-26 22-45 3-13 0-28-1-42z"/><path fill="#F9D0C8" d="M10431 15644h-30c-369-8-838-100-1124-339-9-9-19-18-28-27-83-89-175-204-201-330 24 35 70 118 73 124 173 308 759 501 1226 501h2c442 0 967-186 1251-537 1-1 2-2 3-2 4 0 7 4 5 8-248 388-727 602-1177 602z"/><path fill="#F6B9B2" d="M9277 15305c-90-75-163-165-208-272-31-75-39-101-35-101 2 0 7 6 14 16 26 126 118 241 201 330 9 9 19 18 28 27z"/><path fill="#F9D0C8" d="M8813 14592c-29 0-58-3-87-11-80-36-117-116-115-211 0-5 4-8 9-8 3 0 6 2 7 6 19 100 84 177 189 177h10c90-4 159-43 240-78h3c5 0 10 4 6 10-13 23-32 43-54 60-66 35-137 55-208 55z"/><path fill="#F6B9B2" d="M8827 14602c-15 0-29-1-43-3-22-4-41-10-58-18 29 8 58 11 87 11 71 0 142-20 208-55-54 42-126 65-194 65z"/><path fill="#FEFEFE" d="M11865 11990c-564 97-1063 79-1614-60-215-54-422-140-614-251-235-138-294-304-434-517-5-8-17-7-20 2-112 446 508 813 838 934 611 226 1253 157 1854-72 22-9 13-40-10-36zM7283 14264c-235-593-843-1120-1430-606-17 15 5 38 23 30 306-150 524-148 805 40 229 153 368 370 554 564 19 20 59 0 48-28zM14917 13315c-162 329-273 588-680 640-267 34-461-27-662 187-11 12 3 29 17 22 332-177 696 59 1027-153 213-136 343-439 347-683 1-25-37-37-49-13zM11556 19504c-517 143-1028 189-1563 183-248-3-495-18-738-75-227-54-405-181-608-284-4-3-8 2-6 6 184 402 832 474 1213 507 586 50 1189-46 1715-306 18-9 5-36-13-31z"/><path fill="#252422" d="M9481 22506zm1 0c184 0 361-78 406-281-45 203-222 281-406 281zm-94-7h-1c-248-34-305-284-339-493-10-60-17-120-23-180 6 60 13 120 23 180 34 209 91 459 339 493h1zm501-279v-1 1zm-669-198c-84-41-152-110-195-195 42 84 111 153 194 193 0 1 0 1 1 2zm557-86c1 0 1 0 1-1 51-37 95-82 124-138-29 56-73 102-125 139zm-752-109v-1 1z"/><path fill="#932724" d="M9481 22506c-31 0-62-3-93-7h-1c-248-34-305-284-339-493-10-60-17-120-23-180v1c43 85 111 154 195 195 33 97 78 185 134 255 29 36 80 54 130 54 52 0 103-18 133-54 85-104 135-219 160-341 52-37 96-83 125-139 5 62 9 124 9 185 0 78-6 156-21 233-1 1-1 3-1 4v1c-1 1-1 3-1 5-45 203-222 281-406 281h-1z"/><path fill="#252422" d="M9852 21502c-23-9-47-17-71-23 24 6 48 13 71 23zm-3-115c-3-2-5-3-8-4 3 1 5 2 8 4z"/><path fill="#932724" d="M9865 21507c-4-2-8-4-13-5-23-10-47-17-71-23-7-43-15-86-24-128 28 9 56 20 84 32 3 1 5 2 8 4 6 40 11 80 16 120z"/><path fill="#252422" d="M9012 21652c-1-36-2-73-3-109 1 36 2 73 3 109 47-28 96-54 147-78-51 24-100 50-147 78z"/><path fill="#932724" d="M9012 21652c-1-36-2-73-3-109 25-51 62-91 111-120 21-14 44-27 68-37-16 60-25 123-29 188-51 24-100 50-147 78z"/><path fill="#252422" d="M11144 22506zm0 0c31 0 62-3 93-7-31 4-62 7-93 7zm-408-289s-1-1-1-2c-15-77-21-155-21-233 0 78 6 156 21 233 0 1 1 2 1 2zm128-270c-58-38-106-86-138-145 32 59 80 107 138 145zm663-15v-1c23-24 44-52 61-82-17 30-38 58-61 83zm-801-131h-1 1zm-1 0v-1 1zm0-1c0-1 0-1-1-1 1 0 1 0 1 1zm-1-1v-1 1z"/><path fill="#932724" d="M11144 22506c-188 0-366-80-408-289 0 0-1-1-1-2-15-77-21-155-21-233 0-61 4-123 10-185v2c1 0 1 0 1 1v1h1v1c32 59 80 107 138 145 10 7 20 13 30 19 7 227 83 417 297 417h10c233-7 309-214 326-451 23-25 44-53 61-83 4-8 8-15 12-23-5 60-13 120-23 180-34 209-91 459-339 493h-1c-31 4-62 7-93 7z"/><path fill="#252422" d="M10824 21484c47-13 95-21 144-24-49 3-97 11-144 24z"/><path fill="#932724" d="M10760 21507c5-40 10-80 16-120 83-36 162-63 245-74-18 41-37 91-53 147-49 3-97 11-144 24-22 7-43 14-64 23z"/><path fill="#252422" d="M11613 21652c-29-17-58-33-89-49 31 15 60 32 89 49 1-36 2-73 3-109-1 36-2 73-3 109z"/><path fill="#932724" d="M11613 21652c-29-17-58-34-89-49-3-63-8-123-12-175 45 28 80 66 104 115-1 36-2 73-3 109z"/></g></svg>