<?xml version="1.0" encoding="UTF-8"?>
<!DOCTYPE svg PUBLIC "-//W3C//DTD SVG 1.1//EN" "http://www.w3.org/Graphics/SVG/1.1/DTD/svg11.dtd">
<!-- Creator: CorelDRAW X7 -->
<svg xmlns="http://www.w3.org/2000/svg" xml:space="preserve" width="1404px" height="949px" version="1.1" shape-rendering="geometricPrecision" text-rendering="geometricPrecision" image-rendering="optimizeQuality" fill-rule="evenodd" clip-rule="evenodd"
viewBox="0 0 1687 1141"
 xmlns:xlink="http://www.w3.org/1999/xlink">
 <defs>
    <linearGradient id="id0" gradientUnits="userSpaceOnUse" x1="773.122" y1="1398.08" x2="773.122" y2="-361.557">
     <stop offset="0" stop-opacity="1" stop-color="#9F9C9B"/>
     <stop offset="0.768627" stop-opacity="1" stop-color="#B9B5B4"/>
     <stop offset="1" stop-opacity="1" stop-color="#B9B5B4"/>
    </linearGradient>
    <linearGradient id="id1" gradientUnits="userSpaceOnUse" x1="773.125" y1="1398.08" x2="773.125" y2="-361.56">
     <stop offset="0" stop-opacity="1" stop-color="#9F9C9B"/>
     <stop offset="0.768627" stop-opacity="1" stop-color="#B9B5B4"/>
     <stop offset="1" stop-opacity="1" stop-color="#B9B5B4"/>
    </linearGradient>
    <linearGradient id="id2" gradientUnits="userSpaceOnUse" x1="773.125" y1="1398.08" x2="773.125" y2="-361.56">
     <stop offset="0" stop-opacity="1" stop-color="#E3E1E0"/>
     <stop offset="0.768627" stop-opacity="1" stop-color="#EBECEC"/>
     <stop offset="1" stop-opacity="1" stop-color="#EBECEC"/>
    </linearGradient>
    <linearGradient id="id3" gradientUnits="userSpaceOnUse" x1="773.125" y1="1398.09" x2="773.125" y2="-361.566">
     <stop offset="0" stop-opacity="1" stop-color="#746F6F"/>
     <stop offset="0.768627" stop-opacity="1" stop-color="#847F7E"/>
     <stop offset="1" stop-opacity="1" stop-color="#847F7E"/>
    </linearGradient>
    <linearGradient id="id4" gradientUnits="userSpaceOnUse" x1="773.125" y1="1398.08" x2="773.125" y2="-361.557">
     <stop offset="0" stop-opacity="1" stop-color="#A7A5A5"/>
     <stop offset="0.768627" stop-opacity="1" stop-color="#C1BEBE"/>
     <stop offset="1" stop-opacity="1" stop-color="#C1BEBE"/>
    </linearGradient>
 </defs>
 <g id="Слой_x0020_1">
  <metadata id="CorelCorpID_0Corel-Layer"/>
  <g id="_1031584752">
   <polygon fill="#525453" fill-rule="nonzero" points="166,817 231,817 231,778 166,778 "/>
   <polygon fill="#525453" fill-rule="nonzero" points="243,824 303,824 303,809 243,809 "/>
   <polygon fill="#AED2D4" fill-rule="nonzero" points="235,709 235,843 "/>
   <polygon fill="#DCDBDB" fill-rule="nonzero" points="235,709 216,709 216,843 255,843 255,709 216,709 235,709 216,709 216,843 255,843 255,709 216,709 "/>
   <polygon fill="#828484" fill-rule="nonzero" points="216,773 255,773 255,713 216,713 "/>
   <polygon fill="#898989" fill-rule="nonzero" points="1250,86 1298,86 1298,0 1250,0 "/>
   <polygon fill="#343134" fill-rule="nonzero" points="175,86 223,86 223,0 175,0 "/>
   <polygon fill="#898989" fill-rule="nonzero" points="1476,713 1687,713 1687,272 1476,272 "/>
   <path fill="#9793A0" fill-rule="nonzero" d="M1687 713l-141 0c0,-189 0,-344 0,-441l52 0 0 280 89 0 0 70 -91 0 0 54 91 0 0 37z"/>
   <path fill="#A2D9F7" d="M1508 1121l-1421 0c-21,0 -42,-16 -48,-37l-38 -146c-5,-21 8,-37 29,-37l894 0c21,0 38,-18 37,-39l-16 -355c-1,-21 -15,-49 -32,-62 0,0 -42,-34 -181,-34 -139,0 -176,17 -176,17 -20,9 -40,32 -46,53l-55 195c-6,21 -28,37 -49,37l-319 0c-21,0 -38,-17 -38,-38l0 -515c42,-8 282,-52 634,-52 389,0 863,75 863,75 0,18 0,49 0,89 0,97 0,252 0,441 0,12 0,23 0,34 0,206 0,336 0,336 0,21 -17,38 -38,38zm-1459 -961l0 -18 0 18zm1497 112l0 0zm0 441l0 0zm-268 -124c-78,0 -141,63 -141,141 0,77 63,140 141,140 77,0 140,-63 140,-140 0,-78 -63,-141 -140,-141zm-1151 -355l0 311 173 0 0 -311 -173 0zm1151 49c-66,0 -119,54 -119,119 0,65 53,119 119,119 65,0 118,-54 118,-119 0,-65 -53,-119 -118,-119zm-834 -34c-22,0 -41,18 -41,41 0,22 19,41 41,41 23,0 41,-19 41,-41 0,-23 -18,-41 -41,-41zm-182 258l-96 0 0 -235 96 0 0 235z"/>
   <path fill="url(#id0)" d="M1278 521c-66,0 -119,-54 -119,-119 0,-65 53,-119 119,-119 65,0 118,54 118,119 0,65 -53,119 -118,119z"/>
   <path fill="url(#id1)" d="M1278 870c-78,0 -141,-63 -141,-140 0,-78 63,-141 141,-141 77,0 140,63 140,141 0,77 -63,140 -140,140z"/>
   <path fill="#AEACAB" fill-rule="nonzero" d="M942 907l91 0 -21 -418c-1,-27 -19,-63 -41,-79 0,0 -54,-44 -232,-44 -179,0 -226,22 -226,22 -25,11 -51,42 -59,68l-2 7 -3 0 -52 183 -348 0 0 48c0,21 17,39 38,39l319 0c9,0 18,-3 26,-8l0 0c2,-2 5,-4 7,-6l1 0c2,-2 4,-4 5,-6l1 -1c2,-2 3,-4 4,-6l1 -2c2,-3 3,-5 4,-8l55 -196c1,-3 2,-6 4,-9l1 -3c1,-2 2,-4 4,-6l1 -3c2,-2 3,-4 5,-6l2 -2c2,-3 4,-6 7,-8 7,-7 14,-13 22,-16 0,0 37,-17 176,-17 139,0 181,34 181,34 17,13 31,41 32,62l-3 355c0,14 10,19 0,26z"/>
   <path fill="#EEEDEC" fill-rule="nonzero" d="M30 901c-21,0 -36,17 -23,37l1035 0 0 -37 -1012 0z"/>
   <path fill="#727271" fill-rule="nonzero" d="M1546 183l0 0c0,-14 0,-21 0,-21 0,-22 -17,-41 -38,-45 0,0 -95,-15 -232,-31l22 0 0 -5c146,16 248,31 248,31l0 71zm-1497 -41l0 -4c0,-22 17,-42 38,-47 0,0 31,-6 88,-15l0 5c-57,9 -88,15 -88,15 -21,4 -38,25 -38,46zm1201 -58c-161,-19 -373,-38 -561,-38 -199,0 -360,15 -466,29l0 -5c106,-14 267,-28 466,-28 181,0 393,17 561,34l0 8z"/>
   <path fill="#DFDEDD" fill-rule="nonzero" d="M1298 86l-22 0c-9,-1 -17,-2 -26,-2l0 -8c17,2 33,4 48,5l0 5z"/>
   <path fill="#ACA7A8" fill-rule="nonzero" d="M175 81l0 -5c15,-2 31,-4 48,-6l0 5c-17,2 -33,4 -48,6z"/>
   <path fill="url(#id2)" d="M1546 183c0,0 -474,-75 -863,-75 -352,0 -592,44 -634,52l0 -18c0,-21 17,-42 38,-46 0,0 31,-6 88,-15 15,-2 31,-4 48,-6 106,-14 267,-29 466,-29 188,0 400,19 561,38 9,0 17,1 26,2 137,16 232,31 232,31 21,4 38,23 38,45 0,0 0,7 0,21z"/>
   <path fill="#898989" fill-rule="nonzero" d="M39 1076l4 27c3,20 23,38 44,38l1421 0c21,0 38,-18 38,-39 0,0 0,-9 0,-26l-1507 0z"/>
   <polygon fill="#DADAE0" fill-rule="nonzero" points="1626,384 1687,384 1687,330 1626,330 "/>
   <polygon fill="#A6A4B0" fill-rule="nonzero" points="1596,676 1687,676 1687,622 1596,622 "/>
   <path fill="#C5E5E9" fill-rule="nonzero" d="M1236 463c-55,0 -99,-45 -99,-99 0,-55 44,-100 99,-100 55,0 99,45 99,100 0,54 -44,99 -99,99z"/>
   <path fill="#A0A09F" fill-rule="nonzero" d="M1236 245c-65,0 -118,53 -118,119 0,65 53,118 118,118 65,0 119,-53 119,-118 0,-66 -54,-119 -119,-119zm0 38c44,0 80,36 80,81 0,44 -36,80 -80,80 -44,0 -80,-36 -80,-80 0,-45 36,-81 80,-81z"/>
   <path fill="url(#id3)" d="M444 331c-22,0 -41,-19 -41,-41 0,-23 19,-41 41,-41 23,0 41,18 41,41 0,22 -18,41 -41,41z"/>
   <path fill="#EEEDEE" fill-rule="nonzero" d="M1236 813c-67,0 -121,-55 -121,-122 0,-67 54,-121 121,-121 67,0 122,54 122,121 0,67 -55,122 -122,122z"/>
   <path fill="#DCDBDB" fill-rule="nonzero" d="M1236 550c-78,0 -141,63 -141,141 0,78 63,141 141,141 78,0 141,-63 141,-141 0,-78 -63,-141 -141,-141l0 0zm0 39c56,0 102,46 102,102 0,57 -46,102 -102,102 -56,0 -102,-45 -102,-102 0,-56 46,-102 102,-102l0 0z"/>
   <path fill="url(#id4)" d="M300 545l-173 0 0 -311 173 0 0 311zm-19 -19l0 -19 0 19zm-115 -254l0 235 96 0 0 -235 -96 0z"/>
   <path fill="#635A5B" fill-rule="nonzero" d="M393 269c0,-20 16,-35 35,-35 20,0 35,15 35,35 0,19 -15,35 -35,35 -19,0 -35,-16 -35,-35z"/>
  </g>
 </g>
</svg>
