<svg xmlns="http://www.w3.org/2000/svg" width="210mm" height="297mm" shape-rendering="geometricPrecision" text-rendering="geometricPrecision" image-rendering="optimizeQuality" fill-rule="evenodd" clip-rule="evenodd" viewBox="0 0 21000 29700"><g fill-rule="nonzero"><path fill="#C48B22" d="M7833 12234s26-809-671-875c-698-66-1172 592-1106 724 66 131 487 52 487 52s-882 316-1132 1027 566 316 724 66c0 0-797 1224 463 895 1261-329 1235-1889 1235-1889z"/><path fill="#452526" d="M12163 18584s276 263 460 724c0 0-566 275-710 118-145-157-189-987-189-987l439 145zM8663 18676s249 208 328 632c0 0-395 184-605 92-211-92-303-724-303-724h580z"/><path fill="#C48A23" d="M9728 14807s-698 1540-869 2158c-171 619-223 1409-184 1474 40 66 107 158-12 237s-435 171-580 0-66-3711 197-4053c264-342 1249 54 1448 184zM12847 14487c390 276-592 3492-684 3808 0 0 131 197 0 289-132 92-487 27-579-79-92-105 65-2750 0-3106-66-355 1053-1061 1263-912z"/><path fill="#FAB94D" d="M12237 8865s668-527 592-1491c0 0-308 185-622 1-314-185-267-476-104-526 164-50 307 349 504 285 197-63 327-368-63-870-390-503-907-856-798-1779s1369-1058 1682-583c314 475-702 948-651 1401 52 453 437 933 451 1094 0 0 278 31 340-145s-92-615 232-744c323-129 537 571 224 1016-314 444-640 385-640 385s119 1371-1016 2173c0 0-300-46-131-217z"/><path fill="#DBA020" d="M11127 8801c468-308 3650-214 4212 350 561 563-298 1756-2281 1844 0 0-246 500-228 1110 17 609 737 1873 193 2768s-2141 1053-3528 930c-1386-123-2895-842-3035-1878-141-1035 368-1698 1070-1875 702-178 1579 330 2036 374 456 45 1053-32 1210-257 158-225-473-2822 351-3366z"/><path fill="#ECECBD" d="M12268 10950s-158 689 0 1378 224 1742-408 2295-2698 355-3553-79c-596-302-764 275-811 654 570 329 1300 543 1999 605 1387 123 2984-35 3528-930s-176-2159-193-2768c-18-610 228-1110 228-1110s-331 51-790-45z"/><path fill="#652523" d="M14970 8725c864-5 1316 441 1211 785s-351 585-1105 658c-755 72-1158-455-1194-735-35-281 229-704 1088-708z"/><path fill="#A8282B" d="M12268 10302s711 201 1053 219c0 0-149 333-448 386-298 53-605-447-605-605z"/><path fill="#B18124" d="M12487 9793c0 132-171 238-381 238-211 0-382-106-382-238 0-131 171-237 382-237 210 0 381 106 381 237z"/><path fill="#2B2C2A" d="M12582 9143c18 122-38 231-124 244-86 12-171-77-188-199-18-122 37-231 124-244 86-13 170 76 188 199zM13110 9059c18 123-37 232-124 245-86 12-170-77-188-199s38-232 124-244c86-13 171 76 188 198z"/><path fill="#B18124" d="M14560 9367s6-12 24-30c17-17 47-39 93-45 22-3 47-3 71 3 25 5 50 13 74 26 25 12 49 27 71 45 21 19 41 40 59 63 17 23 32 47 45 73 12 25 21 51 28 77 7 25 12 50 14 74 3 24 4 46 3 67 0 41-6 75-11 98s-9 36-9 36-2-13-6-36c-4-24-9-56-17-94-5-19-10-39-15-60-7-21-14-43-22-65s-19-43-30-65c-11-21-24-41-39-61-14-19-30-37-48-53-17-17-35-31-54-43s-38-23-58-30c-19-7-37-12-55-13-35-3-66 6-86 15-21 9-32 18-32 18zM15577 9774s-11-6-27-21c-16-14-38-39-55-72-9-17-18-36-25-56-6-21-14-42-18-65-5-22-10-45-14-69s-7-48-8-74c-1-25-1-51 3-77 3-26 11-52 21-75 11-24 27-45 44-61 17-17 36-29 55-36 38-17 74-15 95-8 11 4 18 8 23 11s8 5 8 5-13-3-33-1-46 11-71 30c-13 10-25 23-35 37s-18 30-24 48-9 38-12 58c-2 21-2 43-1 66 1 22 3 45 6 68 2 23 4 46 6 67 3 22 5 43 8 62 3 20 6 38 11 55 8 33 18 60 27 79s16 29 16 29zM13058 10995s-84 12-211 16c-31 1-66 3-102 2-36 0-74 1-114-1-39-1-80-3-122-4-41-3-83-6-125-9-42-5-84-9-126-14-41-5-81-11-120-17-39-7-77-13-113-21-35-8-69-15-99-23-62-16-113-32-147-45-35-13-55-20-55-20s21 2 58 5c37 4 89 10 151 17 32 3 65 6 101 10 36 3 73 7 112 11s80 8 120 11c41 4 83 8 124 12 42 4 84 8 125 11 41 4 81 8 120 12s77 7 113 11c35 4 69 7 101 10 125 14 209 26 209 26z"/><path fill="#AF7A24" d="M10972 8725c182-344 1214-367 1294-261 81 105-160 184-160 184s193 137 0 259-562 0-562 0 184 109 13 175-710-122-585-357z"/><path fill="#FAB94D" d="M11347 9132s-937-118-1416-1079c0 0 398 0 591-355 193-356-18-606-202-560s-92 507-316 560c-223 52-522-164-438-865 83-702 373-1333-259-2149s-1908-224-1935 408c-26 631 1211 500 1422 960 210 461 118 1139 197 1300 0 0-247 188-406 56-160-132-265-637-647-575s-184 851 369 1095c552 243 829 0 829 0s671 1268 2211 1381c0 0 259-111 0-177z"/><path fill="#DBA020" d="M11207 9348s-290 96-430 0c-141-96-571-736-1360 449 0 0 377 526 991 482s562-467 922-593l-123-338z"/><path fill="#652523" d="M8198 18676s332 540 372 790c0 0-592 79-737 0s-225-570-192-693c34-123 557-97 557-97z"/><path fill="#DBA020" d="M8859 14123s-526 1724-645 2211c-118 487-52 2339 0 2420 53 80-302 159-526 120-224-40-53-290-66-435-13-144-566-2776-724-3132-158-355-551-1207-461-1760s2357-911 2422 576z"/><path fill="#B18124" d="M8690 14731s4-51 14-124c2-19 4-39 7-60s5-43 9-66c3-23 6-46 8-70 4-24 6-49 9-73s7-49 9-73c3-23 5-47 8-70s5-45 7-66c3-21 5-41 8-60 4-37 9-68 12-90 4-21 6-34 6-34s3 12 9 34c5 21 12 53 16 90 3 19 5 40 6 61 2 22 2 45 2 69 0 23 0 48-2 73s-5 50-7 75l-12 75c-5 24-11 48-16 71s-12 45-19 66c-6 21-13 40-20 58-27 71-54 114-54 114z"/><path fill="#652523" d="M11780 18603s422 591 488 898c0 0-658 114-842 0-185-114-119-898-119-898h473z"/><path fill="#DBA020" d="M11952 13780s-1 18-2 53c-25 489-206 4171-169 4527 0 0 114 251 83 330-30 78-570 92-688 0-119-93 13-145 0-501-13-355-413-2790-654-3829-241-1040 1325-897 1430-580z"/><path fill="#B18124" d="M10667 15033s-20-37-39-95c-4-14-9-30-14-47-4-16-9-34-13-52-3-19-7-38-11-57-2-20-5-40-8-60-2-20-4-40-6-59-1-20-2-39-2-58s0-37 1-55c0-17 1-33 3-48 2-30 7-56 10-73 5-18 7-28 7-28s3 10 9 27c5 17 11 42 18 71 3 15 6 31 9 47 3 17 7 35 9 53 3 19 6 37 8 57 3 19 5 39 7 58 2 20 4 39 6 59 2 19 3 38 4 57 2 18 2 36 3 53s1 33 2 48c1 60-3 102-3 102zM11906 14647s-10-50-17-124c-1-19-3-39-4-60-1-22-3-44-3-67-1-23-1-47-2-72 1-24 1-49 1-73 2-25 3-50 4-74 0-24 3-48 5-71 1-23 4-45 7-67 2-21 5-41 8-59 5-37 12-68 17-89 5-22 8-34 8-34s3 13 7 34c4 22 8 53 12 90 2 19 3 39 4 60 2 21 3 44 3 67 1 23 1 47 1 71-1 25-1 49-2 74s-2 49-3 74c-2 24-4 48-6 71-1 23-5 45-7 66-2 22-5 42-8 60-11 74-25 123-25 123z"/><path fill="#BC8623" d="M10917 9675s-265-205-526-287c-237-75-502 236-581 374 0 0 141 334 551 269s441-317 556-356z"/><path fill="#9A6B25" d="M10320 9373s14-3 39-2c25-1 62 3 104 16 20 6 43 13 65 24 23 10 47 21 70 34 23 14 47 28 70 43s46 30 69 46 46 31 68 45c23 13 45 28 67 40s43 23 64 32c21 10 41 17 60 24 38 12 71 18 95 20 24 3 39 3 39 3s-13 5-38 12c-24 7-61 13-105 8-22-2-46-6-70-13-25-7-50-16-75-27s-50-23-74-37c-25-15-49-30-72-46s-46-33-68-49-43-32-64-46-41-29-61-41c-20-13-38-24-56-34-36-19-67-33-90-40-23-9-37-12-37-12z"/></g></svg>