<svg xmlns="http://www.w3.org/2000/svg" width="210mm" height="297mm" shape-rendering="geometricPrecision" text-rendering="geometricPrecision" image-rendering="optimizeQuality" fill-rule="evenodd" clip-rule="evenodd" viewBox="0 0 21000 29700"><g fill-rule="nonzero"><path fill="#C3806A" d="M9028 7831h537v-929h-537zM9028 16506h537v-929h-537z"/><path fill="#E7A63A" d="M14344 13987c-451 0-898-85-1323-166-677-129-1317-250-1881-33l-148-384c674-260 1402-121 2106 13 1099 209 2137 407 3080-741 752-915 835-1980 248-3165-453-913-1150-1558-1157-1564l278-304c30 27 3004 2795 949 5295-679 826-1421 1049-2152 1049z"/><path fill="#E7A63A" d="M7084 15749h4291V8099H7084z"/><path fill="#4C362D" d="M11375 9393v-134l9 133z"/><path fill="#C4833E" d="M9229 9527v-267l2138-134 8 133v134z"/><path fill="#4C362D" d="M11375 9942v-134l9 133z"/><path fill="#C4833E" d="M9229 10076v-268l2138-133 8 133v134z"/><path fill="#4C362D" d="M11375 10490v-133l9 133z"/><path fill="#C4833E" d="M9229 10624v-267l2138-134 8 134v133z"/><path fill="#4C362D" d="M11375 11039v-134l9 133z"/><path fill="#C4833E" d="M9229 11173v-268l2138-133 8 133v134z"/><path fill="#4C362D" d="M11375 11588v-134l9 133z"/><path fill="#C4833E" d="M9229 11722v-268l2138-133 8 133v134z"/><path fill="#4C362D" d="M11375 12136v-133l9 133z"/><path fill="#C4833E" d="M9229 12270v-267l2138-134 8 134v133z"/><path fill="#4C362D" d="M11375 12685v-133l9 133z"/><path fill="#C4833E" d="M9229 12819v-267l2138-134 8 134v133z"/><path fill="#4C362D" d="M11375 13234v-134l9 133z"/><path fill="#C4833E" d="M9229 13368v-268l2138-133 8 133v134z"/><path fill="#4C362D" d="M11375 13783v-66c2 0 3 0 4-1l5 66-9 1z"/><path fill="#C4833E" d="M11375 13717v-68l4 67c-1 1-2 1-4 1zM9229 13916v-267l2138-133 8 133v134z"/><path fill="#4C362D" d="M11375 14331v-133l9 133z"/><path fill="#C4833E" d="M9229 14465v-267l2138-134 8 134v133z"/><path fill="#EEAE49" d="M9229 14724H7084V8769v313h2145v178l-2143 133 16 267 2127-133v281l-2143 134 16 266 2127-132v281l-2143 134 16 266 2127-133v281l-2143 134 16 267 2127-133v281l-2143 134 16 266 2127-132v281l-2143 134 16 266 2127-133v282l-2143 133 16 267 2127-133v281l-2143 134 16 266 2127-132v281l-2143 134 16 266 2127-133v282l-2143 133 16 267 2127-133z"/><path fill="#D6904B" d="M7102 9660l-16-267 2143-133v267zM7102 10208l-16-266 2143-134v268zM7102 10757l-16-266 2143-134v267zM7102 11306l-16-267 2143-134v268zM7102 11854l-16-266 2143-134v268zM7102 12403l-16-266 2143-134v267zM7102 12952l-16-267 2143-133v267zM7102 13500l-16-266 2143-134v268zM7102 14049l-16-266 2143-134v267zM7102 14598l-16-267 2143-133v267z"/><path fill="#815A31" d="M9229 9082h2146v-313H9229z"/><path fill="#855E38" d="M9229 9082H7084v-313h2145z"/><path fill="#985D45" d="M6615 8769h5229V7428H6615z"/><path fill="#AF7257" d="M7151 8769h1676V7428H7151z"/><path fill="#985D45" d="M6615 16065h5229v-1341H6615z"/><path fill="#AF7257" d="M7151 16065h1676v-1341H7151z"/></g></svg>