<svg xmlns="http://www.w3.org/2000/svg" width="210mm" height="297mm" shape-rendering="geometricPrecision" text-rendering="geometricPrecision" image-rendering="optimizeQuality" fill-rule="evenodd" clip-rule="evenodd" viewBox="0 0 21000 29700"><g fill-rule="nonzero"><path fill="#5F6466" d="M13778 12008h1431V9109h-1431z"/><path fill="#4E5352" d="M13883 10358h1221c159 0 288-130 288-288v-859c0-158-129-287-288-287h-1221c-158 0-288 129-288 287v859c0 158 130 288 288 288z"/><path fill="#5F6466" d="M11775 12077h1085V9880h-1085z"/><path fill="#4E5352" d="M11925 10827h785c159 0 288-130 288-288v-511c0-159-129-288-288-288h-785c-159 0-288 129-288 288v511c0 158 129 288 288 288z"/><path fill="#5F6466" d="M9555 15523h1156v-3636H9555z"/><path fill="#4E5352" d="M16084 14383h180c238 0 432-195 432-433v-490c0-238-194-432-432-432h-180c-238 0-432 194-432 432v490c0 238 194 433 432 433z"/><path fill="#5F6466" d="M15207 13705c0 992 234 1796 522 1796 289 0 522-804 522-1796s-233-1796-522-1796c-288 0-522 804-522 1796z"/><path fill="#4E5352" d="M15675 15609h-5035c-159 0-288-130-288-288v-3232c0-158 129-288 288-288h5035c158 0 288 130 288 288v3232c0 158-130 288-288 288zM5377 15718h3783c422 0 768-346 768-768v-4521c0-422-346-768-768-768H5377c-422 0-768 346-768 768v4521c0 422 346 768 768 768z"/><path fill="#E8E9EE" d="M7147 12864h1950v-1950H7147z"/><path fill="#CED0D6" d="M8220 10914l-1073 1073v797l1870-1870zM9097 11558l-1306 1306h797l509-508z"/><path fill="#E8E9EE" d="M5218 14384h1562v-3470H5218z"/><path fill="#CED0D6" d="M6780 10914h-906l-656 657v1104l1562-1562zM6780 12116l-1562 1562v706h398l1164-1163z"/><path fill="#5F6466" d="M4296 10313h6056v-989H4296z"/><path fill="#4E5352" d="M4463 15915h11158v-633H4463z"/><path fill="#474B4A" d="M15275 16458h2455l-1450-1522h-1005z"/><path fill="#5F6466" d="M12894 16035c0 561 454 1015 1014 1015 561 0 1015-454 1015-1015 0-560-454-1014-1015-1014-560 0-1014 454-1014 1014z"/><path fill="#4E5352" d="M13077 16035c0 460 372 832 831 832 460 0 832-372 832-832 0-459-372-831-832-831-459 0-831 372-831 831z"/><path fill="#5F6466" d="M10815 16035c0 561 454 1015 1015 1015 560 0 1014-454 1014-1015 0-560-454-1014-1014-1014-561 0-1015 454-1015 1014z"/><path fill="#4E5352" d="M10998 16035c0 460 372 832 832 832 459 0 831-372 831-832 0-459-372-831-831-831-460 0-832 372-832 831z"/><path fill="#5F6466" d="M11656 16189h2426c75 0 136-61 136-136v-36c0-74-61-135-136-135h-2426c-74 0-135 61-135 135v36c0 75 61 136 135 136zM7377 15695c0 748 606 1355 1354 1355s1355-607 1355-1355c0-747-607-1354-1355-1354s-1354 607-1354 1354z"/><path fill="#4E5352" d="M7621 15695c0 614 497 1111 1110 1111s1110-497 1110-1111c0-613-497-1110-1110-1110s-1110 497-1110 1110z"/><path fill="#5F6466" d="M4602 15695c0 748 607 1355 1355 1355s1354-607 1354-1355c0-747-606-1354-1354-1354s-1355 607-1355 1354z"/><path fill="#4E5352" d="M4847 15695c0 614 497 1111 1110 1111s1110-497 1110-1111c0-613-497-1110-1110-1110s-1110 497-1110 1110z"/><path fill="#5F6466" d="M5710 15900h3268c91 0 166-74 166-166v-77c0-91-75-166-166-166H5710c-91 0-166 75-166 166v77c0 92 75 166 166 166zM15207 15021h1245v-161h-1245zM15207 16539h2591v-161h-2591z"/><path fill="#E8E9EE" d="M14096 13566c0 519-420 939-939 939-518 0-939-420-939-939 0-518 421-939 939-939 519 0 939 421 939 939z"/><path fill="#B4B6BC" d="M13951 13566c0 438-356 793-794 793s-793-355-793-793 355-793 793-793 794 355 794 793z"/><path fill="#CED0D6" d="M13157 13016l137 420h441l-357 260 136 420-357-260-357 260 136-420-357-260h442z"/></g></svg>