<svg xmlns="http://www.w3.org/2000/svg" width="210mm" height="297mm" shape-rendering="geometricPrecision" text-rendering="geometricPrecision" image-rendering="optimizeQuality" fill-rule="evenodd" clip-rule="evenodd" viewBox="0 0 21000 29700"><g fill-rule="nonzero"><g fill="#7BA548"><path d="M12593 19259c-291-1362-432-2754-432-4147 0-553 26-1105 70-1656 4-44-63-50-74-10-14 48-28 96-40 145-999 2468-556 5223 226 7685 210 661 445 1315 691 1963 11 31 66 41 72 0 203-1352-235-2672-513-3980zM9177 13104c-41-27-79 39-38 65 3 2 6 5 10 7-3 3-5 7-6 11-4 21-4 42-3 63v1c0 8 0 16 1 24 3 16 10 29 17 44 7 13 15 17 25 25 1186 2493 245 5271-352 7788-140 592-261 1189-339 1793-23 138-40 278-48 421-2 49 72 48 76 0 15-158 34-316 55-473 191-1087 790-2071 1118-3120 197-633 314-1289 402-1945 90-676 179-1360 195-2042 24-986-231-2092-1113-2662z"/></g><g fill="#00884F"><path d="M9960 15584c-61-615-107-1250-328-1832-31-80-175-77-163 22 148 1188 351 2376 353 3577 1 558-63 1114-189 1657-127 548-327 1059-535 1579-11 27 29 39 43 19 628-906 913-2080 936-3170 13-619-57-1237-117-1852zM12856 21744c-87-397-174-793-258-1190 4-325-51-655-86-976-38-348-86-694-133-1041-99-720-155-1482-374-2176-10-34-47-40-70-24-17-138-35-275-54-412-9-64-105-44-108 15-49 957 88 1945 241 2888 161 996 418 1992 791 2930 12 32 59 21 51-14z"/></g><g fill="#006B54"><path d="M13033 21478c-112-806-277-1602-440-2399-164-800-316-1604-389-2419-37-409-47-819-37-1229 5-191 19-381 34-571 15-188 60-392 13-576-8-29-44-29-59-8-188 256-190 684-213 991-30 409-17 820 11 1229 55 780 198 1554 358 2318 166 793 355 1582 496 2381 150 853 195 1690 196 2555 0 59 96 75 105 14 103-750 29-1540-75-2286zM9294 13457c-21-48-92-13-82 34 194 831 379 1661 442 2513 64 876 8 1759-154 2621-316 1685-1270 3282-983 5042 4 22 41 17 40-6-52-934 211-1842 494-2722 273-849 562-1683 707-2567 263-1603 195-3411-464-4915z"/></g><path fill="#2F2F2F" d="M9505 13182c-166-383-370-750-573-1114-411-734-847-1456-1156-2241-17-42-74-35-79 11-22 215-6 428 46 636-10 2-20 10-17 23 281 1434 1153 2685 1962 3871 20 30 62 18 65-18 33-409-87-796-248-1168z"/><g fill="#4B4B4B"><path d="M9445 13675c-605-791-1001-1671-1235-2637-6-22-38-12-35 10 166 969 613 1897 1231 2658 18 22 57-8 39-31z"/><path d="M9173 13015c-281-601-453-1205-555-1859-5-33-59-25-57 8 27 651 248 1309 605 1855 3 4 9 0 7-4z"/></g><path fill="#fff" d="M12024 13203c-51-447-134-894-275-1322-7-21-39-12-34 10 4 13 6 26 9 40-61-160-126-319-191-478-11-27-58-36-65 0-158 837-514 1609-877 2373-530-543-1051-1098-1604-1617-16-15-38 8-24 24 1 1 2 3 3 4-1 3-1 7 1 11 338 535 616 1090 807 1695 197 623 306 1269 367 1918 65 697 71 1398 71 2097 0 168-1 336-1 505 0 100-13 239 59 322 179 206 396-102 481-244 71-117 127-252 161-393 5 19 9 37 14 56 36 129 92 254 158 371 58 105 128 214 248 250 243 72 287-334 311-473 61-347 120-695 176-1043 217-1356 363-2735 205-4106z"/><g fill="#CACACA"><path d="M11596 18543c-37 87-100 126-188 154-100 32-188-61-248-127-127-139-178-301-267-461-11-20-40-10-41 11-4 60 4 125 21 190-14-6-30-5-40 9-109 136-218 266-359 372-36 27-171 148-178 1-5-111 3-225 4-337 3-344 28-698-11-1041 190-10 373-113 432-304 10-32-32-56-55-32-119 121-226 206-390 227 6-353 7-716-43-1067 199 55 365-235 396-397 9-43-49-72-72-31-32 56-62 112-96 167-178 294-299-51-310-215-10-158-26-316-48-473-49-355-139-697-240-1040-95-322-205-637-339-945-126-289-264-640-484-871-12-13-36 1-30 18 66 193 186 369 278 551 112 224 210 455 299 690 164 435 270 871 345 1329 40 246 70 493 89 741 11 153-10 318 119 425 4 3 7 6 11 9 2 389 32 776 22 1166-1 28 22 48 48 51-38 260-34 527-40 789-3 141-7 281-10 422-2 84-27 212 16 293 176 335 624-250 706-443 64 184 196 363 345 445 196 108 417-51 425-258 1-34-52-51-67-18z"/><path d="M11644 17180c-87 138-244 226-408 185-187-46-214-244-244-398-2-9-13-8-17-2-136 176 42 463 228 519 220 66 463-40 523-269 13-51-55-78-82-35zM11830 15489c-78 141-175 267-308 360-222 153-498 59-611-171-14-28-62-16-60 16 21 236 250 410 487 376 305-42 495-262 572-547 13-48-56-78-80-34z"/><path d="M12075 14400c-11-419-43-836-100-1251-54-392-113-841-299-1195-8-15-31-7-31 9-10 399 97 816 150 1210 54 407 93 817 112 1227 18 410 27 822 9 1232-19 437-92 869-121 1304-2 30 43 35 51 7 110-401 148-816 180-1229 34-438 60-874 49-1314z"/></g><path fill="#6EA01F" d="M7737 9588c-93-280-201-557-297-837-91-263-226-585-139-864 9-29-33-39-44-13-15 39-26 77-33 115-8-1-17 2-18 11-77 458-91 929-93 1392-3 477 22 954 68 1429 5 46 67 46 71 0 23-265 50-531 113-789-3 448 88 893 273 1303 15 35 64 14 66-17 11-185 23-370 36-555 29 173 74 343 134 509 11 30 62 38 69 0 104-572-25-1142-206-1684z"/><g fill="#006B54"><path d="M7124 9462c18-237 60-471 105-704 41-215 116-436 114-656 0-49-74-75-97-26-93 199-119 428-158 643-46 245-75 494-91 743-28 439-21 981 226 1364 7 11 22 3 20-9-64-460-154-886-119-1355zM7607 11055c-42-119-74-241-103-364-58-245-37-503-97-745-11-43-74-42-86 0-69 244 0 538 56 780 46 198 118 507 288 634 9 7 21-2 22-12 2-107-44-192-80-293zM7932 11300h-3c-9-71-29-140-44-210-23-106-42-210-75-313-13-40-68-31-72 10-14 183 26 412 131 567 11 16 30 22 47 13 10-6 20-11 30-16 23-13 13-53-14-51z"/></g><path fill="#E7414E" d="M11703 11780c-16-537-285-1030-540-1489-142-255-283-510-391-781-109-272-159-549-173-839 10-8 14-22 6-39-7-15-14-30-22-45-15-27-48-20-64 0-213 278-448 507-735 709-268 188-555 398-867 504-323 110-695 59-1000-83-151-71-285-177-386-310-102-133-128-279-171-436-5-15-31-18-34 0-1 4-1 8-1 12-13-1-26 7-28 24-60 543 160 1100 418 1567 287 518 678 969 1047 1429 196 246 386 496 560 759 167 251 322 510 493 758 168 244 369 461 545 699 193 263 297 537 282 865-1 9 4 16 10 19 5 24 42 22 44-5 2-25 5-51 8-76 4-24 7-48 8-72 73-541 299-1028 531-1521 244-518 477-1064 460-1649z"/><path fill="#C32A40" d="M10492 8947c-40-61-151-43-146 40 3 38 5 76 7 113-15 142-78 266-151 385-62-88-237-22-215 111 17 101-48 205-126 307-17 1-34 5-50 14-19 10-37 21-53 33-32-9-67-6-94 11-78 51-143 109-197 176-3 0-6 0-9 1-56 8-105 26-147 52-177-29-249 119-271 277-5 7-10 14-14 21-9-9-19-18-29-27-61-57-176-39-196 51-4 20-4 42-1 63-98-97-193-200-305-285-197-152-411-245-648-306-2-1-3 0-5-1-268-274-434-612-518-997-15-70-127-54-125 17 17 400 187 802 436 1113 141 177 327 314 522 426 246 142 581 243 673 542 21 70 102 87 155 41 390-340 855-591 1216-964 283-294 542-828 291-1214z"/><g><path fill="#2F2F2F" d="M12228 9719c-12-29-51-25-59-2-71-133-151-261-232-383-157-237-339-458-538-661-98-100-203-195-311-286-77-65-182-181-288-190-76-7-105 130-119 177-28 92-46 186-53 282-1 1-3 2-4 4-124 624 221 1248 476 1793 285 607 502 1243 650 1897 147 653 219 1322 219 1992 0 119-18 246 20 361 22 70 104 138 181 110 91-32 136-109 171-195 62-150 95-320 134-477 354-1435 299-3041-247-4422z"/><g fill="#4B4B4B"><path d="M11636 10389c-5-41-60-41-64 0-26 248-14 503-9 752 4 222-9 453 39 671 2 6 11 6 12 0 46-218 32-449 35-671 3-249 14-504-13-752zM11874 11058c-7-42-73-31-72 9 7 273 27 544 29 816 2 299-32 599-24 898 1 25 38 31 45 6 136-538 119-1186 22-1729zM12096 11116c-5-18-36-15-34 5 37 489 79 976 71 1467-8 541-76 1081-166 1614-7 45 57 65 69 19 269-989 321-2108 60-3105z"/></g></g><g><path fill="#6EA01F" d="M12392 9907c-12-80-25-161-39-241-70-408-163-812-296-1205-115-338-264-664-449-969-171-282-388-599-666-783-17-11-31 13-20 26 25 32 50 63 77 93-8-1-16-1-25-1-89 2-138 96-167 166-57 135-83 286-101 430-12 96-26 210-7 312-1 1-1 3-1 5-34 863-384 1637-813 2372-19 32 12 60 43 56 208-28 386-172 544-302 164-136 308-296 434-468 80-109 155-229 220-356-22 65-46 131-74 196-97 222-212 436-325 650-217 413-459 819-815 1127-29 25 2 67 35 60 487-105 944-431 1285-785 156-162 298-352 408-559-26 252-67 501-136 747-11 36 33 58 59 35 61-53 117-112 167-177-42 188-96 371-178 552-138 308-333 588-571 827-22 23-6 61 26 62 404 8 636-351 823-657 71-116 143-236 206-361-21 164-43 328-79 491-71 320-174 632-304 933-10 23 2 54 31 54 340-11 506-405 612-675 16-40 30-80 43-121-1 9-1 17-2 26-24 250-60 497-103 744-8 43 44 65 69 29 218-310 248-695 248-1063 0-426-46-858-159-1270z"/><g fill="#00884F"><path d="M11941 8192c-33-301-145-578-381-772-3-2-6-4-9-5-35-115-89-218-171-293-16-15-35-19-53-14-30-64-68-119-114-164-18-18-55-15-67 10-11-3-25 6-25 19 4 295 62 587 73 881 11 305-19 615-104 909-147 514-510 859-917 1176-43 34 3 107 52 91 403-133 670-484 849-860 10-3 19-9 26-18 237-307 314-712 341-1089 5-72 9-158 9-250 32 105 64 209 95 313 8 26 41 18 44-5 17-140 25-316 5-487 240 576 91 1225-106 1803-113 330-256 621-499 876-218 229-520 363-733 595-27 29-1 75 37 65 703-174 1179-836 1432-1471 85-214 162-473 201-740 18 126 33 254 77 370 10 24 40 24 49 0 107-271 39-689-111-940zM12046 9506c-1-25-37-31-44-6-46 182-112 347-193 516-84 172-228 304-312 472-22 44 21 83 64 64 356-161 504-690 485-1046z"/><path d="M12170 9879c-2-26-36-31-45-6-138 377-210 768-391 1133-161 324-429 540-711 754-27 21-23 75 20 72 854-60 1188-1256 1127-1953z"/><path d="M12376 10257c-6-29-52-28-59 0-85 375-93 764-193 1139-42 159-108 312-185 456-81 149-203 272-280 421-13 25 8 56 36 48 310-91 494-465 596-744 146-403 166-902 85-1320zM12507 11028c-1-7-12-9-13-2-74 418-217 835-270 1254-3 21 27 25 37 10 226-357 268-850 246-1262z"/></g><g fill="#006B54"><path d="M11953 8102c-6-23-13-45-21-67-2-6-5-10-9-13-7-18-14-37-21-55-165-415-398-984-834-1183-32-14-69 16-50 50 116 201 293 367 424 560 4 6 8 11 12 17 3 34 6 67 7 101 4 119-4 237-1 356 0 6 9 7 11 2 35-104 55-226 57-349 104 156 201 312 281 485 26 58 50 116 73 175 9 200 46 403 65 600 1 4 8 6 8 1 16-97 29-199 33-301 30 94 58 189 84 285-1 2-2 4-2 7 9 217 50 430 54 647 0 18 27 18 28 0 8-102 14-206 10-310 45 174 89 347 141 519 6 22 36 13 33-9-71-511-202-1032-383-1518zM11382 8353c-17 62-35 123-56 183-21-7-43-12-65-18-19-5-31 22-13 31 20 11 41 24 63 33-20 57-42 114-65 170l-12-9c-29-23-57-48-91-65-16-8-37 9-26 26 20 30 46 55 71 81 11 11 21 21 32 30-24 56-50 112-78 167-26-50-60-97-90-144-10-15-34-1-24 15 31 53 61 110 98 159-27 52-55 104-85 154-27-56-63-106-98-158-2-3-8 0-6 4 27 57 52 116 87 169 2 2 4 3 6 3-71 116-149 227-235 330-274 324-624 460-990 645-28 14-16 64 17 61 407-37 795-324 1075-604 340-340 515-781 516-1258 0-19-27-22-31-5zM11804 9263c-17 43-34 85-52 126-24-16-63 19-36 44 4 3 8 7 12 11l-36 81c-11-6-21-12-29-17-43-27-82 40-39 67 10 7 21 15 33 22-31 62-62 124-95 184-17-16-32-34-45-53-20-31-68-3-49 29 16 28 36 58 61 82-35 60-72 119-111 177-21-19-40-40-56-63-16-24-54-2-39 23 18 31 39 59 65 81-38 55-78 108-120 160-19-32-40-63-59-94-21-34-69-4-53 31 20 41 38 84 60 124-41 47-84 94-130 139-163 161-352 288-552 397-209 115-446 168-654 284-26 15-15 59 16 57 938-54 1857-960 1954-1885 3-29-37-30-46-7zM12043 9786c-2-32-50-42-58-8-7 33-14 66-21 98-20-8-46 9-46 32 0 17 14 30 30 33-11 44-24 86-39 128-9-4-18-7-28-11-36-14-54 48-16 58 7 3 15 5 22 6-11 23-22 46-35 69-5 9-11 18-17 26-26-17-57-28-90-30-29-2-34 36-14 50 20 13 41 26 63 38-80 98-181 169-277 256-16 15 1 42 21 36 125-39 240-137 329-259 17-2 33-18 24-36 101-152 161-334 152-486zM12142 10338c-42 109-77 219-113 328-16-5-35-4-48-5-47-1-47 74 0 73 7 0 16 0 26-1-19 56-38 111-59 166-1-1-2-2-4-3-20-13-40-21-62-29-40-15-57 48-18 63 20 8 38 14 59 17h7c-24 59-50 118-79 176-16-12-32-23-47-35-21-16-46 19-28 37 16 16 32 32 49 47-5 8-8 16-13 24-27 47-58 91-92 133-3-5-5-10-9-15-17-22-36-42-57-60-34-29-83 18-50 50 25 24 47 53 67 82-73 79-156 148-247 209-128 86-282 109-410 191-11 7-10 26 4 29 306 64 640-218 816-438 226-283 349-672 367-1031 2-36-48-38-59-8zM12419 10829c-4-24-36-15-39 5-29 228-49 443-121 661-21-7-44-9-65-12-27-5-38 32-11 42 19 7 39 16 59 20-19 51-39 105-62 160-22-11-45-20-66-30-26-12-49 25-23 40 21 13 43 29 66 41-105 230-260 455-515 477-21 2-35 34-12 44 297 137 501-211 618-431 153-289 231-694 171-1017zM12525 11519c-18 64-36 128-56 191-25 2-52 26-35 54 4 6 9 8 15 9-57 176-122 346-205 516-8 16 14 29 24 14 158-230 266-501 295-779 2-22-32-26-38-5z"/></g></g><g><path fill="#9C1133" d="M10815 8100c21 0 37-24 25-43-99-155-218-302-365-413-26-61-91-101-166-79-162 45-258 229-372 341-285 278-655 459-1033 571-411 123-899 181-1257-107-165-134-246-339-262-546-13-167 27-324 85-476 27-46 55-91 86-135 10-14-3-30-17-31 2-3 3-6 4-10 10-20-18-37-30-18-27 43-51 87-73 133-425 568-310 1394-125 2032 97 337 274 600 587 766 321 169 708 257 887 608 3 6 9 8 15 7 3 25 10 51 23 77 10 19 44 11 41-11-24-185 157-298 295-377 136-79 282-139 419-218 196-113 373-290 408-516 39 62 77 123 116 184 15 22 50 25 63 0 82-148 127-307 135-473 54 59 126 89 202 16 51-50 34-159 31-220-4-73-12-146-24-218 53 52 105 104 158 156 18 18 51 11 57-15 35-140 39-281 10-420 15 16 31 31 46 46 21 22 58 6 58-24 2-221-62-431-182-612 49 17 100 25 155 25z"/><g fill="#800024"><path d="M7282 9175c-7-42-15-84-20-125-11-102-8-205-14-308 8-39 17-79 26-118 11-42-52-73-72-31-101 224-111 587 74 776 5 9 9 17 15 25 1 1 2 1 3-1 1-7 2-15 2-23 6 10 11 19 17 28 4 6 16 5 15-4-8-75-28-147-46-219zM7512 9634c-8-43-16-86-26-128-2-60 5-121-4-181-4-29-47-31-60-8-69 128-34 360 72 461 11 10 32 3 31-13 0-3-1-5-1-7 13-38-5-86-12-124zM7889 10122c-42-38-81-78-116-120-20-29-39-59-55-92-43-88-41-186-75-276-10-28-48-29-58 0-61 175 96 453 264 515 4 2 7 0 10-2 3 1 5 3 7 5 18 10 39-15 23-30zM8230 10257c0-10-5-20-15-27-27-19-53-39-79-60-92-98-155-212-213-340-18-39-70-14-73 20-20 187 118 360 291 418 13 7 26 14 40 20 14 7 26 4 36-3 13-1 27-17 13-28zM8577 10446c-29-101-100-188-181-258-46-66-102-124-171-170-37-24-66 26-43 56 108 139 232 264 325 416 8 12 28 4 24-11l-3-9c19 20 58 7 49-24zM8700 10359c-27-36-86 3-73 43 46 144 68 311 137 446 12 23 42 13 50-7 68-161-15-354-114-482zM10035 9344c-16-30-59-21-68 9-28 85-9 181-23 270-19 115-64 218-112 323-7 15 11 31 24 19 136-130 279-439 179-621zM10329 9181c-6-38-65-28-65 9-4 238-51 459-92 692-2 12 13 19 20 9 143-202 174-472 137-710zM10489 8787c-24-47-100-14-85 36 57 187 88 381 107 575 3 30 46 40 55 8 57-216 24-422-77-619zM10767 8824c-8-95-35-186-83-267-26-44-97-15-83 35 23 82 53 161 72 244 16 71 12 153 55 212 2 2 5 3 7 1 52-60 39-151 32-225zM10650 8100c-24-27-64 8-48 38 98 192 149 393 218 596 4 11 23 13 26 0 47-228-49-461-196-634zM10657 7803c-59-61-120-114-194-156-27-14-53 20-32 43 55 59 117 108 178 161 50 44 108 120 173 138 6 2 10-3 9-9-12-66-88-131-134-177zM7346 7513c-215 164-355 592-199 834 3 4 10 4 12-2 35-123 36-256 66-382 34-143 117-262 177-394 14-32-20-84-56-56zM8150 11356c10-79 51-155 77-230 4-13-17-22-23-10-18 41-33 85-51 127-13-93-62-179-117-263-113-173-231-316-314-509-8-18-33-6-34 10-12 140 60 255 137 367 119 172 216 312 271 517 8 29 43 23 52 0h1c1-3 1-6 1-9zM9155 12475c-7-18-14-36-21-55 0-1-1-1-2-2l23-10c-4-27-11-54-24-79-15-46-43-101-63-145-63-135-154-255-241-375-16-22-43-27-64-8-28 24-116-134-170-123-22 5-38 12-51 23-49-187-147-366-295-488-11-9-27 2-20 15 109 203 205 388 265 612 12 46 73 32 77-10 8-85 115 71 119 74 38 22 68 8 95-13 129 194 223 396 339 598 10 17 41 5 33-14zM9966 11447c-8-47-78-33-80 10-4 152-115 261-160 395-46-123-133-223-225-324-16-18-49-9-55 15-45 181-90 366-108 552-3 31 43 34 51 7 51-155 82-316 110-477 94 109 179 226 211 370 6 27 51 21 48-6-26-214 243-319 208-542zM10773 10396c-7-34-51-21-54 7-19 148-40 280-96 412-28-43-58-82-95-122-31-32-75-4-79 33-26 202-197 355-192 546-47-46-91-94-133-146-17-21-52 6-38 29 62 96 129 178 210 259 26 26 79 0 65-38-71-195 89-367 155-552 27 35 49 71 70 114 16 31 65 29 81 0 93-171 145-349 106-542zM10098 13518c-18-29-56-15-60 16l-6 60c-120-256-412-424-484-716-2-10-14-7-15 2-48 376 412 566 479 914 8 42 68 29 70-9 4-50 8-100 12-149 96 171 157 352 217 542 10 30 51 17 47-13-31-235-136-448-260-647z"/></g></g><g><path fill="#00A536" d="M10330 6163c-196-81-397-116-604-114-134-25-280-17-407-11-214 10-447 4-660 45-4-2-9-3-15-1s-11 5-17 7h-3c-4 1-8 3-11 5-464 174-848 595-1082 1018-185 335-337 793-245 1186 4 79 24 158 51 224 18 41 48 93 101 93 15 0 29-3 40-10 18 5 64-19 79-7 11 7-8 48 1 56 2 41 18 84 42 104 2 2 5 4 8 5v12c30 20 61 37 92 53 50 5 130-41 183 7 36 32 50 76 49 121 6 5 12 11 20 16s14 6 19 4c30 30 63 54 91 70 77 42 198 51 245-22 34-6 68-18 100-30h7v1c74 85 187 111 282 77 22 9 41-5 49-24l6-3c37-9 65-31 73-73 42-5 83-12 124-20 553-106 1041-444 1363-901 89-127 176-273 205-427 9 51 19 101 31 150 15 64 64 96 125 77 69-20 101-147 124-205 31-77 50-158 60-240 46 77 107 157 166 123 83-49 82-179 60-289 15 6 32 11 51 14 23 4 50-10 48-37-30-468-438-881-851-1054z"/><g fill="#008B60"><path d="M9464 6755c-11-9-24-6-32 5-31 40-51 67-103 77-62 12-111-19-162-49-46-28-108 29-76 76 61 89 187 162 296 112 73-34 154-151 77-221zM10654 6826c-15-29-66-25-72 9-5 30-7 58-8 88 0 22-3 43-8 64-15 69-76 42-107 0-17-24-64-27-71 10-5 29-12 56-21 85-4 14-36 85-28 97-42-62-59-147-85-217-10-27-51-32-59 0-24 96-17 333 114 360 133 28 171-94 169-208 40 25 85 34 129-5 75-66 93-197 47-283zM10819 7270c-20-30-59-29-79 0-61 84-53 209-75 308-9 39-67 148-42 184-25-36-39-75-70-106-7-7-17-3-21 5-51 124 40 301 176 195 66-52 96-199 117-274 27-97 54-224-6-312zM11062 7109c-18-38-79-19-78 21 3 139 8 296-40 428-11 30 32 42 48 20 107-143 150-301 70-469zM10489 7463c-5-31-48-31-63-8-66 102-95 225-149 334-64 130-152 249-235 367-197 279-455 414-733 595-43 28-13 85 33 78 315-44 599-286 811-508 190-198 385-578 336-858zM9904 7651c-6-23-44-32-54-7-48 111-124 315-275 259-48-17-80 34-74 74 21 145-200 70-266 74-8 1-14 10-10 17 95 153 295 103 368-30 79 19 167-1 231-56 106-91 114-201 80-331z"/><path d="M8832 7702c62-3 115-30 163-66 61-45 58-57 134-68 104-16 185-89 171-199-4-34-50-54-70-19-51 91-98 98-196 101-46 1-83 23-122 44-189 104-336-84-396-243 29-13 55-30 79-52 61-56-4-145-75-130-204 42-365-23-378-253 7 10 14 19 22 28 36 42 97 69 152 67 21 0 84-25 64-57-26-42-82-52-118-86-42-42-35-112-24-167 51 59 158 80 197-2 5-11 2-26-11-28-25-5-59-33-67-58-7-18 0-39 4-58 5-20 8-41 8-62 66 63 210 74 232-44 4-24-10-55-34-63 11-12 20-28 25-47 11-35-28-59-56-44h-1c-5 3-13 10-23 17-17-32-51-46-86-28-137 69-258 155-375 255-65 55-137 118-194 189-232 162-443 525-510 843-20 53-37 106-50 161-143 242-123 643 12 880 71 125 177 136 275 95-5 37 2 74 26 107 35 50 66 96 129 113 114 32 72-59 109 29 104 251 399 284 602 155 198 159 498-108 709-136 38-5 56-65 10-74-83-15-150-13-233 0s-346 154-399 48c-26-52-100-56-138-18-91 90-193 113-311 53-103-52-70-128-132-190-22-23-44-45-78-44-91 2-131-57-127-128 52 89 165 170 247 77 15-18 16-50-8-62-38-19-63-41-81-67 6 1 11 1 17 0 14 17 31 33 51 47 95 64 209 81 300 25 179 178 471 113 654-56 29-26-1-68-35-60-176 38-418 184-542-39-26-47-88-50-125-16-130 117-189 8-216-115 5 5 11 10 17 14 80 54 201 46 246-47 9-20-2-41-24-42-42-2-80-18-116-38-31-18-36-72-40-103 82 17 180-3 201-88 4-17-5-41-25-44-58-9-110-8-153-45 62 4 91-95 32-120-32-14-59-35-79-64-6-8-10-17-13-25 21 1 42-2 63-10 51 94 128 148 250 160 14 1 20-21 7-27-88-41-160-131-163-230 0-21-14-43-32-56 31-18 61-49 39-84-27-43-74-54-107-89-11-12-17-31-21-53 28 10 57 12 84 1 12-5 21-12 28-22 77 35 164 46 245 28-22 233 127 439 380 429z"/><path d="M8904 8088c-35 10-71 16-107 17-42 1-81-13-122-19-15-2-32 13-22 29 60 85 196 85 275 29 27-19 11-66-24-56z"/></g><g fill="#006973"><path d="M8842 8951c-73 54-140 89-234 88-87-1-146-74-233-62-32 4-72 27-99 38-58 22-121 18-179 5-112-24-190-124-219-228-5-20-30-31-48-20-82 53-180 39-234-46-36-56-13-114-4-172 2-3 4-6 6-10 12-27-20-56-43-33-117 115-221-35-247-143-25-104-25-218-24-325 2-217 48-433 118-638 136-392 398-717 691-1004 5-5-2-14-8-10-415 303-708 759-827 1257-60 252-84 553-7 803 33 108 181 215 281 166-14 57 1 124 36 167 67 80 168 102 259 63 71 191 265 289 467 234 27-8 65-28 90-37 33-13 88 26 118 39 43 19 90 23 137 23 93 1 186-44 240-118 16-21-15-52-37-37z"/><path d="M8377 8545c-61 7-110-5-152-50-9-10-23-13-35-10-192 56-268-167-308-308-4-16-23-30-40-23-124 48-184-70-190-172-5-73 34-150 52-220 4-12-13-18-19-8-62 93-119 232-72 343 39 90 120 147 214 129 34 126 85 270 217 320 33 13 62 19 97 21 24 2 39-10 59 4 58 43 117 53 184 27 26-10 25-57-7-53zM8101 7610c-106 25-203-33-201-149 0-14-10-25-23-29-180-64-192-251-92-389 6-9-6-21-14-15-182 125-109 373 68 453 9 142 142 236 277 165 20-11 6-40-15-36zM8091 7020c-110-119-106-271-21-402 6-9-7-17-15-11-139 118-121 324 12 437 16 15 39-7 24-24zM10510 7572c-1-2-4-2-6-1-50 50-57 133-82 198-41 106-100 205-159 302-16 26 22 57 43 33 65-76 116-160 152-253 31-80 88-195 52-279zM9793 7873c-29 69-83 114-159 113-8 0-17 5-21 12-46 87-126 105-217 110-4 0-6 6-2 8 77 49 184 12 237-57 25-34 80-31 118-52 44-24 70-72 77-120 3-18-24-34-33-14zM9266 7404c-39 66-79 112-152 140-36 13-94-7-123 10-51 30-81 72-143 91-76 23-145-11-216-34-10-4-16 10-10 17 101 116 278 80 383-7 21-18 63-9 88-11 35-4 67-19 98-35 60-30 103-89 118-153 6-26-30-42-43-18zM9487 6848c-2-14-22-24-30-8-22 46-39 80-90 100-59 23-120-2-175-20-11-3-15 11-8 17 60 44 138 61 208 36 50-17 103-69 95-125zM10668 6866c-10-21-39-8-40 11-4 50-1 96-11 146-18 89-90 99-143 25-16-22-50-21-58 7-24 89-56 174-97 257-26 52-57-64-60-73-14-43-24-87-39-129-7-19-41-18-38 5 9 76 21 257 118 276 77 15 133-160 161-261 47 45 104 68 167 18 73-57 75-207 40-282zM10908 6568c-9-7-17 5-13 13 50 106 121 197 165 308 46 112 50 231 85 346 5 17 32 19 36 0 40-212-96-544-273-667zM11051 7137c-9-16-34-5-30 13 12 53 24 103 27 158 4 61-10 122-20 183-3 23 30 42 42 17 55-112 45-264-19-371zM10809 7275c-6-11-26-6-25 7 18 214-8 410-155 578-19 22 10 51 32 32 165-149 254-408 148-617z"/></g></g><g><path fill="#FF7F00" d="M11727 5915c-37-107-166-108-262-79-123 38-204 154-222 277-17 111 38 197 150 205 93 7 169 16 259 45 50 16 235 5 247 63 3 11 21 8 21-3 2-172-72-378-193-508z"/><path fill="#FFA900" d="M11597 5814c-26-12-55-18-82-13-91 16-123 81-120 170 3 97 58 193 131 255 90 77 361 61 382 202 1 3 1 5 2 8l1-1c4 11 22 11 20-2-19-199-113-551-334-619z"/><path fill="#6EA01F" d="M12115 4963c-13-1-27-1-40-2 3-9-1-20-13-25-142-58-300-36-433 33 45-64 105-108 163-169 1-1 2-3 2-4 4 0 7-1 11-2 30-4 21-51-7-51-122-3-229 46-310 126 41-95 104-178 190-245 24-18-2-62-30-51-106 42-195 103-270 182 66-139 172-252 312-332 18-10 6-35-13-31-152 31-274 124-359 246 38-126 98-241 171-356 1-2 2-3 3-4 5-4 7-8 7-12 1-3 2-5 4-7 7-11-9-23-18-14l-3 3c-4-1-8-1-13 1-75 32-136 80-188 138 38-109 83-216 138-320 19-37-25-67-55-43-48 39-88 81-124 127 6-19 11-38 16-58 11-35-33-56-58-34-70 62-127 129-177 203 9-74 25-146 51-220 9-26-23-46-45-34-72 38-127 90-162 155 7-116 35-225 83-340 11-8 13-19 11-29-1-4-3-9-7-11-7-10-21-15-35-8-108 58-175 144-206 249-18-75-31-150-36-231-2-28-41-44-56-15-18 35-32 69-43 103-2-63 4-126 18-193 6-34-34-49-53-23-58 77-94 155-111 240-32-129-47-260-42-397 1-28-35-33-50-13-68 96-105 196-118 304-17-56-29-113-37-178-4-26-41-35-49-6-25 84-35 166-32 247-35-85-67-171-92-260-7-26-52-30-56 0-19 124-14 238 16 353-36-43-69-88-98-138-13-23-51-13-51 14 1 41 5 78 13 114-66-90-113-185-154-299 1-8 3-16 5-24 9-32-38-44-49-13-37 102-34 208 2 305-43-46-79-97-108-155-11-22-46-12-45 12 3 48 11 94 23 138-59-78-110-161-151-252-11-24-44-10-46 12-5 75 4 145 25 213-41-47-78-97-107-155-11-20-47-11-45 12 8 96 31 180 72 261-51-20-96-49-138-90-30-29-72 7-55 42 26 55 56 109 90 159-14 2-26 14-28 29-41-24-82-45-123-68-26-15-56 14-41 41 32 55 67 106 106 156-94-41-183-92-269-152-24-18-56 11-48 37 14 53 35 96 65 134-81-21-158-51-234-93-23-13-56 14-38 38 46 61 96 117 149 170-62-29-122-62-180-103-26-19-55 17-41 42 43 82 93 148 156 207-49-1-96-10-147-30-28-11-56 26-39 50 47 68 101 121 167 163-53 8-106 8-163-1-26-4-45 26-28 44-16-3-32-5-47-9-5-1-8 2-9 5h-4c-5 0-9 7-5 10 19 15 39 27 59 37h-9c-6 0-11 0-17 1-5 0-6 7-3 10 43 40 102 56 159 70-75 10-151 16-228 13-30-2-31 39-7 49 67 26 137 38 207 44-116 39-227 88-324 166-23 18 2 54 28 47 64-18 130-32 196-45-84 49-161 116-223 179-20 20 5 49 28 37 59-30 120-55 182-79-10 7-20 15-28 24-6 8-3 21 9 21 7 0 15-2 22-3-60 42-118 87-176 131-17 13-3 37 16 28 97-45 192-68 293-64-114 32-222 77-328 134-17 9-5 37 13 31 47-15 94-28 141-39 29 0 57 0 86 1h3c-95 49-175 112-246 194-19 21 5 56 31 40 38-22 77-40 116-56-82 62-154 137-216 223-18 24 17 57 42 41 85-56 171-92 265-111-76 56-148 118-213 190-16 18-1 56 27 45 134-55 270-63 411-72-36 25-72 50-107 75-21 15 0 51 21 35 20-15 44-32 69-48 1 0 2 1 3 2 22-15 44-31 66-46 55-34 109-66 147-85-75 39-125 113-167 183-12 21 14 38 31 24 40-33 80-65 121-96-10 12-21 24-30 36-15 17 3 44 25 32 84-47 251-101 293-134-105 85-176 176-231 299-10 22 16 47 35 27 77-82 161-149 254-205-49 51-94 106-136 165-17 25 19 46 39 30 105-85 210-169 316-254-18 15-54 132-70 188-7 26 31 35 40 11 4-10 152-233 136-202-12 22-23 43-34 65-30 24-41 46-33 67-12 20-24 41-35 63-9 19 20 36 28 17 9-18 17-35 25-53 1 6 165-257 69-77-23 45-34 83-50 130-7 21 27 36 36 16 27-57 69-102 105-151-12 50-13 105-12 151 0 6 4 9 9 11-5 25-9 50-13 77-3 28 36 32 49 13 50-73 103-143 158-211-14 67-15 135-3 210 5 27 47 25 53 0 18-82 42-160 73-237 0 93 21 181 66 273 12 26 58 15 55-15-7-67-8-130-5-194 25 75 64 143 121 210 23 27 57-3 53-31l-21-147c57 112 123 218 206 313 20 22 49-6 39-30-17-43-34-86-52-128-8-20-17-41-26-61 69 78 129 165 194 248 14 17 41-5 31-24-12-21-23-42-34-64 8 10 7 6-13-24-32-62-64-124-99-184 37 63 141 229 183 338 13 33 61 21 55-15-7-35-14-69-21-103 28 40 61 77 99 111 3 3 5 5 8 6 3 2 5 4 7 6 20 19 48 0 43-25-3-19-6-37-10-56 66 98 160 174 279 213 23 8 38-23 23-39-91-93-155-202-198-321 37 39 79 73 129 102 26 15 55-15 41-41-50-88-88-179-111-275 57 71 115 143 173 214 16 21 54-1 44-26-32-80-69-158-110-234 51 50 94 105 137 166 12 17 33 8 35-7h8c20 37 39 75 57 115 7 14 29 6 29-8 1-160-41-305-124-435 97 76 164 177 196 302 8 32 60 26 58-8-6-96-29-184-69-265 26 30 47 63 65 102 12 25 53 13 51-14-5-90-29-172-72-245 53 35 107 69 162 102 2 2 4 5 6 7 9 13 23 15 34 10h1c1-1 3-2 4-3h1c9-7 15-20 7-34-34-61-74-121-125-167l24 18c66 51 134 119 211 154 18 8 36-12 22-28-2-1-4-3-5-4 13-2 25-17 16-31-33-47-69-89-109-128 94 47 180 109 251 190 14 15 45-1 37-22-58-147-154-276-270-382 112 51 213 123 295 217 11 13 28-4 22-18-47-106-120-192-211-255 71 23 141 51 208 87 14 7 35-9 23-24-84-112-202-182-333-208 122-10 243 10 360 63 13 6 25-13 11-20-3-2-7-3-10-5-1-3-2-6-4-8-101-103-233-158-372-170 103-29 210-36 318-22 30 4 49-32 21-50-116-74-240-76-365-49 120-88 263-133 417-130 15 0 14-21 0-23z"/><g fill="#E3E3E3"><path d="M10644 5692c-3-13-6-26-8-39 8-34-8-68-38-84-19-114-64-237-161-304-50-33-98-36-134-17-25-23-50-47-75-71-39-37-105-21-120 32-5 19-9 38-12 56-19-14-38-27-56-41-42-30-109 10-105 61 1 16 3 32 5 47-20-8-39-16-58-24-54-21-102 51-73 95 23 37 48 72 74 105-37-2-74-6-110-8-58-4-71 74-28 102 3 2 6 5 10 7-60-3-120-3-181-1-53 2-71 73-31 98-42 25-25 103 31 102 29-1 59-3 88-4 6 27 27 52 58 52h9c1 19 11 37 27 48-1 3-3 5-4 7-24 42 6 90 53 93-6 39 17 67 51 73 7 44 69 62 106 32 2-2 4-3 6-5 7 7 16 12 27 14 53 7 96 4 141-16 94 16 209-41 277-94 9-6 15-14 20-22 34-26 66-55 80-90 17 6 36 5 54-9 60-43 69-55 96-124 9-25-3-53-19-71zM10470 4784c-27-90-81-280-203-280-13 0-25 4-37 10-6 4-11 7-15 10 4-5 6-12 5-18-6-50-22-79-58-111-24-23-57-26-84-15-8-31-15-63-23-94-17-70-111-71-141-14-1-2-2-4-2-6-25-61-130-82-146 0-2 14-4 27-6 40-40-27-99-19-115 39-25 86-34 170-30 251-15-15-30-31-45-47-44-46-147-14-137 57 2 17 5 33 8 48l-2-1c-49-37-94-4-111 41-66-39-153 47-107 112 1 2 3 4 5 7-40 9-69 48-63 88-15-12-32-23-48-33 49-5 93-56 61-112-3-5-8-13-13-22-12-20-23-42-35-64 57 23 120-50 91-112-3-9-5-17-8-25 35-13 61-55 52-92-3-12-5-23-8-34 92-32 182-67 275-93 71-19 41-132-31-111-115 35-234 54-350 85-17 5-30 15-39 28-36-7-76 5-88 40-7-2-14-5-21-7-37-6-65 5-86 35-3 4-5 9-7 13-2 0-3-1-5-2-25-9-55 3-73 20-23 21-37 45-46 72-42-7-88 23-91 73-1 30 0 58 2 87-39 2-77 30-72 74 5 40 12 77 22 113-36 14-63 52-48 91 8 20 17 40 26 60-1-1-2-1-2-2-66-42-140 40-104 104 15 26 31 51 48 75-47 21-61 96-8 131 1 0 1 1 2 1-29 26-41 70-4 99 29 22 58 43 88 63-28-2-55-5-82-7-76-6-82 104-17 127 148 52 289 68 439 47 8 0 15-1 22-3 21-3 42-7 64-12 50-12 40-96-12-92-10 1-20 2-29 2-8-12-19-23-34-29-8-3-15-6-23-10 6-13 9-29 8-44 39-24 56-80 17-115 22-28 27-69-6-97-17-14-32-28-48-43 44-20 70-86 28-127l-1-1c19-8 36-23 44-42 9 11 18 20 27 28 27 27 59 27 85 13 3 5 5 11 10 16 122 159 295 266 498 275 67 3 68-93 14-108-20-6-40-12-60-19 30-13 48-45 46-77 35-21 52-69 32-108 4-5 7-11 10-17 31-1 58-26 70-58 63 38 147-38 107-108-12-20-22-40-31-60 43 29 110 10 118-41 33 3 70-17 84-51 38 17 88 4 105-38 10 9 23 17 41 22 26 7 63 9 88-6 32-19 93 120 112 153 32 53 120 19 101-42zM11246 5773c-20 50-81 67-88 120-3 33-12 49-21 64-27-1-56 12-66 36-14 5-27 15-35 29-26-3-53 8-65 30l-3-3c-33-23-73-2-88 30-25-1-47 15-58 38-8 1-15 5-23 9-30-11-66 11-76 43-28 3-54 28-48 68-24-47-101-56-123-7-22-2-44 6-57 30-4 10-9 20-14 29 2-5 3-11 5-16 13-39-45-52-60-17-32 78-38 139-31 222 3 49 63 66 90 25l18-27c2 11 4 21 7 33 15 58 106 65 127 10 43 88 97 170 166 244 41 44 111 4 111-46 4 3 9 5 14 8 59 33 122-45 73-94-42-42-77-86-106-132 19-11 30-32 22-62-7-22-13-44-20-66 31-10 57-41 44-74-4-8-7-16-10-24 5-6 10-13 14-20 25 9 51-2 67-21 5 4 11 7 16 11 36 25 80-1 92-37 29-5 52-28 51-63 26-4 49-31 51-58 14-12 23-30 21-47-9-77 67-171 94-240 21-57-68-80-91-25z"/></g><g fill="#5C8800"><path d="M11144 6773c-1-1-2-2-4-3 2-11-1-23-14-31-18-9-34-18-51-28-57-55-109-116-154-182 23 22 47 42 74 62 18 13 41-12 30-30-24-38-45-78-63-118 12 18 24 36 35 54 20 32 73 12 62-26l-15-45c22-4 41-23 33-48-21-65-44-127-71-189-11-26-43-17-54 4-26-8-58 13-47 44 9 27 19 55 29 82-12-16-23-32-34-48-13-19-42-8-37 15 16 69 39 133 68 194-41-41-78-86-111-137-8-14-33-5-26 11 0 1 1 2 1 4v1c48 112 108 209 186 294-111-73-205-156-283-278-19-32-60-18-69 10-6-9-12-17-18-25-22-32-74-13-63 27 9 33 20 66 32 98-44-42-88-84-134-124 12-49 18-98 18-147 9 30 16 61 20 94 6 46 72 49 74 0 3-43 1-85-4-126 21 36 40 73 58 112 19 39 80 12 69-28-17-58-32-114-51-170 27 19 53 38 79 57 27 20 60-18 44-44-1-3-3-5-5-8 11 4 21 9 32 13 30 13 46-30 29-50-5-5-9-10-13-15 3 1 6 2 10 3 26 7 45-34 19-46-37-16-74-31-112-45-27-11-43 21-34 42l-18-8c-16-7-33-1-42 10-14-11-29-22-44-33-24-18-47 6-49 30-13-16-27-30-42-45-26-26-64-3-64 28-3-4-6-8-10-12-30-34-73 9-57 45 15 33 26 68 34 102-26-48-60-93-100-132-21-20-50 10-32 31 74 88 105 184 116 291-15 6-23 24-10 40 4 5 9 10 13 15 0 8 1 15 1 23 0 25 25 35 44 29 81 92 165 181 252 268 31 31 83-9 61-46-13-22-25-43-36-64 29 28 59 56 93 82 12 9 26 7 36-1 80 68 174 119 277 140 12 2 22-2 30-10 0 1 1 1 1 2 9 6 19-8 11-15zM11328 4309c-61 49-118 102-175 155 46-136 107-264 186-386 18-28-17-56-44-43-87 45-156 106-210 179 14-52 33-104 59-157 12-26-17-47-38-30-64 52-113 108-152 172 6-64 12-128 21-192 4-34-31-60-58-34-30 27-54 55-76 84 7-109 21-217 42-325 7-35-37-54-57-24-91 138-137 286-143 451 0 21 20 32 38 29 10-2 21-4 31-6 16-2 18-26 5-33-33-17-8-107 27-198-11 87-18 174-20 262-1 43 56 45 69 10 18-45 40-84 65-120-8 93-18 185-26 277-4 37 53 43 63 9 20-71 50-133 89-191-24 73-38 148-41 230-2 45 62 50 75 10 28-81 68-151 120-213-57 110-102 224-134 347-9 34 34 60 60 34 87-86 177-171 258-263 21-24-10-54-34-34zM11785 4734c-112 23-207 86-288 166 24-41 48-82 73-122 7-7 15-14 23-21 7-8 8-18 5-26v-1c1-2-1-3-2-2-6-11-20-19-32-10-49 35-97 72-143 111 16-28 34-55 53-80 53-55 111-103 172-160 17-15-1-40-21-36-66 14-126 51-179 98 25-54 53-107 87-156 25-36-27-65-55-43-25 20-48 40-70 62 12-23 24-45 37-66 17-28-23-60-45-35-50 58-101 115-151 173 47-93 104-181 169-263 8-10-6-26-15-15-109 125-193 261-262 411-11 24 17 49 37 29 34-33 65-68 97-103-12 30-23 60-33 91-13 43 49 66 72 30 5-9 12-18 18-27-16 41-31 82-42 125-8 27 13 48 36 51l-1 1c-10 20 13 50 35 34 67-48 132-101 193-157-36 57-73 114-113 168-23 27-45 54-65 81v1c-11 21 15 45 35 27 122-113 226-234 386-295 25-10 16-46-11-41z"/><path d="M12051 5483c-61-58-126-108-195-151 44 13 87 28 132 46 11 7 22 15 32 23s24-5 15-14c-2-1-3-2-4-3 16-10 20-39 1-51-71-45-144-73-221-91-47-19-96-32-147-42 72-30 144-57 219-79 40-12 30-68-10-71-25-2-50-3-75-3 20-15 23-43 9-61 1 0 2-1 3-1 48-17 38-80-11-85-22-4-44-5-66-4-24 0-37 19-37 38-35 13-69 25-103 38-32 12-39 52-20 73h-2c-41 15-36 78 10 78 36 0 72 1 107 1-44 20-87 41-130 65-16 10-15 33-2 43-11 20-5 50 21 58 55 18 107 39 156 62-32-8-64-16-98-23-40-8-69 49-29 69 81 41 152 90 216 147-77-46-160-84-249-112-22-7-43 25-24 40 67 52 129 106 187 164-58-35-120-65-185-92-2-1-4-1-6-2-26-10-37 28-17 41 31 23 62 46 93 71-62-27-128-45-199-55-34-5-70 36-37 65 11 10 23 20 34 30-36-10-63 33-46 63 18 33 36 66 54 98-31-23-62-45-93-69-33-24-72 22-54 54 30 49 56 99 80 150-29-30-61-59-96-87-28-22-64 12-40 40 55 66 100 129 139 200-54-64-136-111-208-134-35-11-56 34-34 59 36 39 69 82 97 126-66-52-144-86-234-77-25 2-25 37 0 39 169 13 254 138 336 271 20 33 79 12 65-28-28-79-61-154-102-224 37 41 68 88 107 136 12 15 36 2 36-15 0-30-7-59-19-85 3-2 6-5 4-9-6-14-12-29-18-44 30 51 56 105 79 165 19 49 95 31 80-22-33-120-72-233-122-342l96 75c37 28 90-7 66-51-30-58-62-116-93-173l90 27c37 11 70-40 39-66l-63-54c108 43 199 113 285 208 24 27 63-9 47-36l1-1c-42-64-92-117-150-160-24-26-48-51-73-76 106 61 194 143 276 243 19 24 60-8 42-33-83-122-177-231-287-327 102 48 193 109 279 191 20 20 53-5 39-30-54-93-119-170-195-236 60 21 119 47 178 79 36 19 75-28 44-57z"/><path d="M11291 5635c-53-31-107-57-162-79 30-1 61-3 91-4 45-2 60-59 23-83-49-31-101-52-155-66-1-1-2-1-2-2 30-6 61-12 92-18 33-6 28-53 0-62-41-13-81-22-122-28l9-3 27-3c7-1 9-7 7-12 8-3 16-6 25-10 9-5 14-13 14-21 16-13 18-43-3-52-20-9-42-16-64-22 8-2 16-5 24-8 31-9 26-59-8-57-47 2-92 7-136 14 35-20 71-40 106-61 21-12 14-51-13-48-22 3-44 6-65 10-4-1-7-1-11-2 28-14 56-28 85-42 28-13 13-55-15-55-51 0-99 4-147 12 36-17 73-32 112-42 15-5 20-18 17-30 22-16 20-58-14-55-17 1-34 4-51 7 12-17 10-43-16-49-8-1-17-2-26-4 5-4 10-7 16-11 25-17 10-58-21-50-40 10-77 24-113 39 16-22-3-56-30-45 4-3 7-7 10-11 10-10 10-25 5-36 11-12 23-24 36-36 10-9 2-28-12-27-32 1-62 10-90 23-3-12-5-24-8-36-3-16-19-26-34-26 4-12-4-25-16-29 0-21-18-43-41-33-40 17-74 35-106 56 13-45 26-90 40-134 8-25-22-48-43-34-19 12-35 24-50 37 2-17 3-33 4-49 3-39-46-52-71-30-11 10-21 20-31 30 3-25 5-50 7-75 2-30-41-49-61-26-21 25-40 51-57 77 5-51 10-102 16-153 4-36-45-41-62-17-28 40-50 81-68 124-1-52-1-104 0-156 1-30-45-45-59-16-14 31-26 62-35 94-1 0-2 0-3-1-2-33-4-66-4-100 0-8-3-15-7-20 26 3 55-24 47-54-19-68-29-137-36-206 31 74 68 145 125 212 12 15 31 7 39-7 21 10 48 4 62-14 9 20 19 40 29 59 22 42 96 13 78-33-26-66-28-140-20-215 5 71 15 141 30 211 7 33 41 37 64 23 0 17 1 34 2 51 5 59 83 69 104 28 15 21 49 30 61 1 48-112 40-246 37-366-1-39-52-65-80-34-7 7-12 15-18 22 1-9 1-18 2-27 4-46-61-57-82-23-16 27-30 54-41 80-11-86-18-174-21-262-1-23-35-32-44-13-8 1-14 5-18 14-28 64-46 126-54 196-3 34-4 67-3 101-14-40-27-81-39-123-5-17-18-27-33-31-5-43-10-85-14-128-4-39-60-52-71-10-20 76-33 147-33 225 0 28 4 55 9 82-39-72-75-145-94-221-4-27-9-53-15-80l-1 1c-10-31-54-37-65-1-29 92-22 196-2 297-18-29-74-21-70 19 5 40 12 80 22 118-10-17-20-34-29-52-44-86-63-182-113-264-29-47-92-24-97 26-3 27-2 55 1 82-25 5-48 32-41 60 17 63 40 122 68 179-1 0-1 1-1 1-43-64-98-120-150-177-14-16-45-4-43 18 2 20 6 40 10 60-43-68-79-139-103-213-6-21-38-17-38 6 0 12 1 24 2 36-3-5-5-10-7-15-5-11-13-14-21-12-8-14-32-16-35 2-2 12-2 23-3 35-15 4-29 18-25 39 6 40 14 79 23 117-4-11-13-17-23-19-6-35-8-71-20-104-7-21-40-31-52-7-16 35-18 73-11 113-10-14-19-27-28-42-17-25-65-18-62 17 4 47 14 91 28 134 5 19 10 38 16 56-37-33-74-67-109-104-13-14-33 1-30 17 9 51 23 97 42 139-16 5-28 19-20 37 5 14 12 28 18 41-63-43-122-93-176-151-10-11-29 3-20 15 5 7 11 14 17 21-8 3-14 13-8 22 31 51 70 97 114 138-8-4-16-7-24-11-14-6-27-4-37 1-67-41-130-89-183-149-17-20-45 2-41 24 16 83 57 155 113 215-74-32-144-73-207-125-24-21-55 4-42 33 14 31 32 62 53 92-2 10 0 22 9 33 1 1 2 3 4 4-25-25-48-52-70-83-26-38-79-5-61 36 50 114 112 211 192 297-59-22-116-50-173-84-20-12-39-2-46 15-16-9-31-17-46-26-35-21-69 19-53 52 39 78 88 142 147 194-51-10-102-21-153-31-36-8-68 37-38 65 82 76 170 126 269 152-79 32-158 65-236 98-42 18-44 95 12 88l54-6c-46 19-91 38-137 57l-1 1c-3 1-6 2-9 4l1 1c-36 24-15 89 30 71 35-14 71-28 107-42 20-6 40-11 60-16-78 43-151 95-222 157-33 30 9 75 45 58 69-33 137-56 206-66-73 32-141 73-208 120-41 30-17 94 35 83 13-3 25-5 38-8-38 35-75 73-110 115-28 34-5 93 41 85-33 31-65 64-95 99-21 24-15 52 2 68-29 19-57 37-86 56-49 32-6 105 45 78 94-48 182-67 276-58-93 45-181 96-266 157-41 29-5 95 39 68 140-84 277-104 438-76h4c-7 8-15 16-22 25-26 29-3 82 40 69 73-23 146-47 219-71v1c-42 38 11 95 57 73 41-19 83-38 124-57-72 66-141 136-206 212-40 48 20 104 67 67 105-81 213-155 324-223-29 40-55 82-77 129-19 38 29 81 61 47 71-76 146-147 226-212-17 38-32 79-42 124-10 41 41 73 72 42 35-36 71-72 106-108-6 27-12 54-16 83-6 35 41 79 71 41l6-9c-1 5-3 10-4 15-10 40 45 80 74 43 25-31 50-63 75-94-5 26-9 52-12 78v1c-1 4-1 7-2 11-6 53 68 53 85 12 11-30 24-58 39-86 1 23 3 45 6 69 5 44 59 61 82 27 24 23 68 21 80-14 0 0 0 1 1 1 21 20 59 20 75-6 11 6 24 10 38 10 65 0 165 123 224 163 40 28 77-30 48-63-61-72-130-133-201-195-20-19-63-5-76-30-15-28-58-33-80-11-1-3-3-5-5-8-11-35-59-45-82-21-7-5-16-7-26-7 1-19 3-38 6-57 4-36-49-58-72-30-1 1-2 2-3 4 1-6 3-11 4-16 13-39-44-75-71-42-10 12-19 24-29 36 7-14 14-28 22-42 28-50-41-86-74-43-16 20-31 41-47 61 7-14 13-28 22-42 24-41-33-85-67-51l-110 110c24-38 52-73 86-107 19-19 11-46-6-60 42-11 86-19 131-24 27-4 29-44 0-44-31-1-60 0-89 3 15-10 29-20 44-30 31-23 14-80-28-67l-18 6c2-22-11-46-37-43-61 7-121 13-181 19l33-18c23-14 15-57-15-54-69 7-138 15-207 23 2-17-11-35-30-36-38 1-75-2-111-10-4-7-10-14-20-17-93-30-181-70-271-106-27-11-38 28-18 43 65 49 135 82 211 108 2 10 9 19 23 22 21 6 40 10 60 13h-1c-31 13-32 71 9 66 62-8 123-17 184-25-24 8-48 16-75 21-37 8-29 69 9 67 70-3 140-10 209-18-25 14-51 28-77 42-1 1-1 2-2 2-15 7-31 13-46 20-9-13-25-21-45-16-39 11-77 23-113 37-129 43-258 85-387 129 64-54 136-95 219-127 29-10 18-55-14-47-136 34-241 93-336 189 0-7-4-14-14-17-74-19-143-26-211-23 43-21 87-42 133-60 37-16 42-67 0-81-67-22-130-32-193-33 40-26 80-51 120-77 40-27 15-102-35-83-13 5-25 10-38 15 38-33 77-65 119-95 43-31 19-111-39-92-16 5-32 11-48 16 33-29 68-57 106-84 30-21 25-61 0-78 53-23 108-44 164-65 39-15 34-72-10-74-96-3-186 1-275 16 73-46 150-82 236-113 38-13 32-68-9-70h-17c21-9 42-17 63-26 40-16 40-89-12-83-20 2-41 4-62 6 41-18 82-35 123-53 31-13 26-49 6-68 38-7 49-65 6-76-114-31-203-86-273-166 46 21 93 39 142 55 38 24 77 46 118 66 20 9 35-12 25-28 23 5 46 9 69 13 51 8 72-70 21-77-14-2-29-5-43-8-2-4-4-9-9-13-50-43-94-88-134-137 36 22 74 41 116 57 26 10 44-8 49-30 40 22 82 39 125 50 23 6 36-26 16-38-13-7-24-14-36-22 30 7 60 12 92 14-18 11-30 32-26 56 11 64 28 125 48 184-23-29-46-59-69-90-20-26-62-11-55 23 28 138 82 260 160 368-76-44-148-94-216-152-28-24-85-2-69 41 47 118 118 215 207 293-67-28-132-63-195-106-37-25-77 30-47 60 143 140 302 243 495 299 28 8 48-36 20-48-54-24-105-50-155-77 47 13 96 24 147 31 52 8 71-59 22-79-127-51-223-124-301-220 88 60 179 114 280 159 45 20 101-37 57-74-49-41-92-85-131-130 26 27 53 55 81 82 45 43 105-21 67-67-85-103-149-211-195-330 73 77 146 154 220 230 48 51 120-24 76-76-94-110-158-232-199-363 52 78 110 153 175 225 33 35 94-11 67-52-72-109-111-217-125-334 37 86 77 170 122 253 27 48 96 6 73-42-16-33-28-65-39-97 9 19 17 38 26 58 20 41 92 11 75-32-1-2-2-5-3-7 28 21 76 14 72-31-2-24-5-49-7-73 16 10 35 8 48-2 3-1 5-2 7-3 8 13 16 27 25 40 25 39 77 24 90-8 14 16 46 2 38-20-11-29-19-57-25-85 5-9 7-20 4-33-4-26-8-51-13-76 0-4 0-8 1-12 0-1 1-1 1-2 4 4 8 7 12 10 13 86 35 171 69 256 2 6 6 11 10 14 3 36 8 71 16 106-4 7-9 15-12 24-5-22-11-43-19-63-11-26-42-28-55-6-23-10-55 5-58 36-7 54-6 106 0 156-16-38-30-78-41-119-4-12-14-17-23-16-14-6-34 4-36 22-11 85 3 168 31 246-29-28-58-58-88-87-21-20-52 1-47 28 3 17 8 33 13 49-21-25-41-52-60-83-23-38-83-13-72 31 17 67 45 135 81 197-6-1-12 0-18 3-3-2-7-5-10-7-16-9-37 2-36 21 2 76 71 146 122 198 60 60 141 131 227 145 24 4 42-22 24-41-46-51-106-88-158-134 16 6 32 11 48 15 33 8 53-18 51-44 17 7 33 14 50 19 38 11 64-42 35-65-3-2-6-5-9-7 25-1 50-28 32-52-2-2-2-4-4-5 19 0 36-22 25-42-18-32-32-67-43-103 27 44 106 20 88-36-1-4-2-8-3-13 16-1 33-12 36-30 5 10 10 20 16 30 21 35 82 12 68-28-13-34-18-67-20-102 8 4 18 4 27 1 13 63 32 126 58 188 9 20 30 22 46 13l9 63c9 54 99 41 95-13-2-34-3-67-1-99 6-4 11-11 13-21 1-5 3-9 4-14 3 19 4 39 7 58 3 31 8 62 16 91 5 21 19 32 35 37-23 42-45 85-66 129-8 17 16 32 26 15 19-33 38-66 55-99-8 26-17 52-26 78-11 33 37 51 54 23 12-19 25-35 39-51 2 1 3 1 5 1-1 1-2 3-3 4h-1v1c-2 2-4 5-6 8-32 42 33 83 68 53 13-12 27-23 41-33-5 31 21 57 51 54 2 8 5 15 9 21-3 17 14 34 31 34 2 3 4 6 7 9-9 20 4 51 31 40 11-4 23-8 34-12 0 11 5 22 13 28 6 8 14 14 26 16 0 2-1 4-1 6-1 1-2 1-4 1-54 6-57 83-1 87 4 10 13 19 27 25 6 3 11 4 17 6-15 11-22 32-18 48-28 0-33 45-5 53h2c-20 7-26 35-6 49 11 8 21 16 32 23-18 12-24 40-1 56 25 16 47 34 67 52-13 5-22 20-12 34 13 17 22 35 28 53-2 4-3 8-1 13 4 7 7 15 10 22 7 17 38 18 36-5-1-13-3-25-6-37 13 8 26 16 38 24 28 18 59-16 44-43-3-4-6-7-9-12 18 10 36 20 53 30 28 16 48-23 24-42-50-38-101-77-151-116 81 30 159 65 234 111 22 14 48-19 28-37-62-56-129-101-200-139 76 15 151 34 226 58 33 11 52-37 23-55zm-1906 395c0 5 1 9 3 14-35 18-70 37-105 57 33-25 67-48 102-71zm-602-1649c42 20 86 36 132 49 8 7 14 14 22 20-53-19-105-41-154-69zm310-287c-6 12-9 26-4 39-18-29-32-59-44-90 16 17 32 35 48 51zm-8 177c5 6 9 13 14 19-9-4-18-8-28-11-21-18-41-36-61-55 24 17 49 33 75 47zm16 280c-4-4-8-6-12-9 16-8 19-33 2-44-34-21-66-44-96-68 8-11 11-24 5-35 44 19 89 36 137 49 3 1 6 1 9 1 6 67 20 130 39 192-28-29-56-58-84-86zm715 488c-12-16-24-32-35-49 27 28 54 57 81 86-16-13-31-25-46-37z"/></g><path fill="#4B4B4B" d="M10359 5478c-106-37-354 27-339 172-12 59 6 120 48 171 110 134 306 134 416-2 107-133 16-292-125-341z"/><path fill="#2F2F2F" d="M10400 5524c-56-36-139-29-199-9-53 18-112 55-129 112-8 27-8 55 0 79 1 10 2 20 4 30 13 63 78 106 135 123 124 37 268-73 276-196 5-59-42-110-87-139z"/><path fill="#fff" d="M10414 5559c-40-29-108-35-150-6-12 9-17 28-5 40 22 20 53 23 75 44 23 22 27 54 55 73 17 12 40 6 54-7 47-41 13-114-29-144z"/><g fill="#206615"><path d="M10485 5516c2 4-2-10-2-8-2-8-8-12-14-13 0-18-16-27-30-24v-1c-5-13-19-20-31-16-1-6-4-13-8-21-10-21-37-14-46 3-5-7-10-14-16-20-8-9-17-10-25-7-8-19-37-19-50-2-3-2-5-4-9-6-19-8-40 0-45 21-7-4-14-7-22-11-22-10-41 5-40 25-12-3-25-4-35-3-17 2-26 18-19 32-14-3-29-4-40-2-23 5-28 26-21 44-20 0-40 5-49 16-4 5-6 12-2 18 3 5 7 9 12 13-4-1-8-2-11-2-14 1-28 4-41 6-37 4-45 52-9 64 3 2 6 2 9 3-30 0-61 5-85 19-16 9-18 36 0 44 21 10 45 15 69 18-8 13-5 29 9 40 10 7 21 11 33 13-2 2-5 5-6 8-6 12-4 27 9 33 13 7 28 8 43 5-8 10-15 22-20 32-7 17 7 32 24 24 2-1 4-1 7-2-1 0-1 1-1 2-5 12 5 29 18 32 10 2 20 1 30 0-3 7-4 15-3 24 1 8 9 15 16 16 12 4 23 2 33-4-1 5-2 10-1 16 0 8 5 17 14 19 7 1 13 2 19 2 3 23 28 38 51 25 10-5 21-14 29-25 6 20 37 26 49 11 2-2 3-4 4-6 17 17 50-1 51-24 1-2 1-4 1-6 1-18-16-30-32-32-6 0-11 2-16 5-1 0-1 1-2 1-5-3-10-5-16-6-12 0-21 4-28 10-2-5-4-9-9-14-19-19-40-11-56 5-3-4-6-6-11-8-1 0-3-1-4-1-5-2-11-2-16 0 8-23-17-45-40-40v-4c-1-16-6-23-18-32-4-3-9-4-14-5 0-2 1-4 1-6 1-11-8-19-17-23-3-1-6-1-9-2 4-3 7-8 8-13 3-14 2-25-9-35-2-1-4-2-5-3 27-23 5-71-29-69h-2c0-16-9-33-30-39 19-1 37-9 53-24 10-10 9-23 3-33h2c20 8 58 20 66-11 2-5 2-9 1-13 18 1 33-5 39-25 1-6 2-11 1-16 9 2 18 4 27 1 8-2 14-8 17-15 11 6 24 4 34-1 1-1 2-1 3-2 7-3 13-12 14-20 11 2 22-1 31-7 11 14 27 12 38 3 4 8 14 14 23 13 11 0 19-3 24-13v-1c5 10 10 16 23 21 5 2 10 1 15-1 3 8 11 15 22 14h3v1c2 11 7 16 15 22 5 3 12 3 18 1 4 6 9 11 17 12 13 2 21-8 16-20zM10374 5916c-9-11-25-3-29 8-4 12-2 18 3 29 7 19 35 18 36-4 0-14 0-22-10-33z"/><path d="M10480 5854c-2-2-3-4-4-6-6-7-21-11-30-7-8 3-13 6-18 13-2 4-3 8-4 13-19-3-41 16-36 40 0 3 1 5 2 8-6 6-9 15-6 23 0 1 1 3 1 4 8 22 38 20 43-1 14-1 25-11 25-28 0-3 0-6-1-8 24 5 47-27 28-51z"/></g><g fill="#247613"><path d="M9719 3969c-29-111-33-225-56-337-4-19-36-20-39 0-13 89-1 179 15 268-35-29-69-60-98-95-25-30-66 3-59 34 23 110 69 220 143 306 14 17 46-1 38-22-22-59-45-116-67-174 24 20 49 39 75 57 25 15 55-10 48-37zM9995 3942c-31-120-29-237-42-359-2-22-34-30-40-6-24 96-15 198 6 295-35-26-70-51-108-75-25-15-47 14-37 37 50 115 106 225 184 322 13 16 35-4 27-20-42-79-85-156-123-236 29 22 57 46 85 71 21 19 55 0 48-29zM10359 3522c-59 100-83 208-83 319-12-23-25-47-37-70-11-20-46-12-44 12 3 54 8 108 13 163 1 5 26 120-11 80-4-5-11 1-8 7 18 34 9 24 42 46 8 6 19-2 20-11 2-59 1-118-2-177 13 26 26 51 39 76 14 27 49 7 45-19-20-143 8-278 61-411 8-21-24-33-35-15zM10916 3689c-94 59-154 165-187 273-12-48-22-98-29-148-3-23-39-21-44 0-26 111-44 232-25 347-34-49-63-103-93-153-2-3-7 0-5 3 38 65 82 131 109 201 5 12 22 10 23-3 4-85 4-167 13-249 8 40 18 80 29 120 6 25 47 28 53 0 30-146 108-239 194-353 17-23-15-52-38-38zM11368 3949c-122 80-205 198-266 328-11-84-17-167-17-252 0-16-22-27-33-14-71 82-126 189-133 299-3-9-7-18-10-27-1-4-7-2-6 2 7 31 13 63 17 95v3h1c4 9 18 12 21 0 25-105 49-198 101-288-3 92 6 184 24 275 5 26 40 21 47 0 58-155 164-273 279-389 17-16-5-46-25-32zM11582 4205c-60 34-110 76-155 124 1-3 1-6 1-8 3-31-38-36-53-15-57 84-106 179-133 278-10-35-14-71-26-109-2-5-9-7-12-2-34 62-6 136 25 193 10 18 35 12 41-5 27-80 56-155 94-227 10 15 38 13 50-2 55-73 122-137 194-194 19-15-6-44-26-33zM11534 4573c-110 7-203 83-252 178-5 9 7 16 13 8 59-86 145-128 243-152 19-5 15-35-4-34zM12135 4804c-181-71-375-54-549 23l69-129c10-19-11-42-31-30-126 71-224 180-274 317-5 12 14 19 20 9 57-87 116-158 189-221-20 34-39 68-59 102-15 24 13 49 37 37 190-97 380-109 588-73 24 4 32-27 10-35zM12219 5091c-131-85-271-99-412-51 17-24 40-42 69-54 24-12 14-56-14-52-122 16-232 61-316 153-13 14 4 38 21 27 62-39 124-71 189-95-12 19-22 41-30 65-8 25 20 41 41 31 139-65 296-59 433 8 22 11 39-18 19-32zM12119 5281c-133-76-328-75-455 12-11 7-5 25 9 22 155-43 277-48 432-3 19 5 30-22 14-31zM11927 5623c30 1 61 2 91 3 21 1 29-25 16-39-40-44-84-84-131-120 26-7 52-15 78-23 15-4 20-28 4-36-89-44-182-67-281-46-8 2-5 13 2 13 74 8 143 19 211 46-22 6-44 12-66 17-19 6-19 29-5 39 42 31 81 64 117 101-33-2-66-3-99-5-20-1-33 28-17 41 83 67 135 152 176 250 6 15 26 10 24-7-12-92-57-170-120-234zM11918 5958c-59-91-127-174-212-243-7-6-17 3-11 11 37 42 71 85 103 130-90-70-196-134-297-121-7 1-9 9-4 13 72 55 117 127 156 208 5 10 20 3 17-7-11-43-27-80-56-115-17-21-36-40-57-58 122 51 222 127 325 210 19 15 51-4 36-28zM11648 5962c-47-42-100-72-162-84-5-1-7 7-2 8 59 17 113 41 162 78 1 1 3-1 2-2zM11458 5875c-2 0-2 4 0 4 3 0 3-4 0-4zM11559 5960c-29-28-64-49-95-73-1 0-1 1-1 1 29 27 57 57 90 79 4 3 9-4 6-7zM10653 6108c0-12-20-13-20 0 1 57-3 114-18 168-18-67-58-130-100-184-7-8-24-4-25 7-10 65-27 128-50 189-23-65-45-131-79-189-5-8-19-5-18 5 11 88 45 175 70 260 6 20 36 26 46 6 35-69 55-140 59-215 33 59 53 121 79 184 5 13 25 16 28 0 19-78 33-150 28-231zM10851 6139c-45-9-84-18-127-37-6-3-14 3-10 10 14 23 20 46 22 72 0 6-26-17-27-17-10-9-20-18-31-27-2-3-7 2-4 4 21 18 41 36 62 53 2 2 4 1 5-2 1-25-1-47-7-70 35 21 78 33 117 26 6-2 6-10 0-12zM11299 6164c-4-8-16-2-13 5 30 74 62 147 97 219-89-80-193-149-288-221-6-4-13 3-11 9 16 53 29 106 42 160-62-72-150-157-231-142-18 4-13 32 4 32 54-1 109 70 145 104 34 32 68 63 107 89 12 9 31-5 25-20-16-42-31-86-46-129-27-77-31-71 26-17 65 61 139 125 221 161 6 3 13 1 16-4 2 4 4 8 5 11 2 3 6 1 5-2-31-87-66-171-104-255zM11319 5997c-5-8-17-1-13 8 33 61 62 128 74 198-32-58-75-107-125-149-2-2-3 0-2 1 54 53 97 114 133 179 2 5 10 3 10-2-11-85-30-162-77-235zM11259 5907c-3 0-3 4 0 4s3-4 0-4zM11484 6100c-47-79-124-140-201-188-17-10-32 16-16 27 75 50 132 114 192 180 12 13 33-4 25-19zM11076 6837c-118-90-222-181-308-303-7-11-24-5-21 8 15 54 29 127 58 170-54-80-112-153-159-239-6-10-25-6-23 7 8 67 18 135 23 203-49-91-117-169-198-237-7-7-24-6-26 7-9 63 16 189-44 89-40-65-99-117-158-165-8-6-18 4-11 12 78 83 134 173 186 273 10 19 35 8 37-10 12-114-8-202 103-58 46 60 79 131 115 197 11 21 43 7 37-15-15-58-24-116-28-176-7-78-19-82 19-12 38 69 85 129 144 182 7 6 18 0 16-9-11-43-24-86-37-128 2 3 4 7 7 10 72 92 152 161 258 210 12 6 20-9 10-16zM11083 6828c-57-64-91-135-118-215-3-9-15-5-13 3 18 83 67 157 127 217 3 3 7-2 4-5zM11012 6502c-5-19-34-15-34 5s3 40 8 59c-17-14-31-35-41-51-3-6-14-4-13 3 4 50 42 77 80 103 15 10 34-6 29-23-10-32-21-63-29-96zM8650 6079c-70-39-175-2-245 21-19 6-38 14-56 22 48-37 97-73 143-116 11-10-1-27-14-24-67 18-135 35-202 52 48-36 97-70 146-105 10-7 1-23-10-17-72 39-137 89-200 141-10 8 1 24 13 21 51-13 102-25 153-37-86 55-163 129-220 209-16 23 17 44 36 28 76-63 158-108 252-139 66-22 144-15 204-50 2-1 2-5 0-6zM8481 5701c-69 5-136 12-202 25 14-15 29-29 47-42 11-8 5-31-10-25-45 18-77 48-104 88-11 15 6 34 22 30 39-11 79-19 118-25-89 45-177 106-249 162-23 18 8 58 31 40 23-12 46-26 68-40 52-26 108-45 165-58 18-5 10-31-8-28-7 2-14 3-21 5 54-30 110-58 158-96 14-11 2-38-15-36zM8568 5150c-129 22-249 81-356 155-16 11-12 43 11 40 48-6 96-9 144-11-62 43-114 96-161 157-11 15 4 38 22 37 98-5 200-6 295-29 21-4 15-33-5-35-77-6-156 2-234 9 51-58 113-103 182-141 21-11 11-45-12-44-48 1-96 3-143 6 84-47 173-82 265-114 19-6 12-33-8-30zM8572 5004c-95 2-182-26-269-63-15-6-26 12-13 22 48 36 98 58 151 71-99 24-197 53-294 84-28 9-17 49 12 43 130-23 260-36 392-36 16 0 16-25 0-26-53-3-106-3-158-2 62-16 124-31 186-46 26-6 20-47-7-47zM8452 4888c-68 9-134 14-203 15-10 0-14 13-5 19 4 3 8 5 13 8 4 3 9-1 10-5 63 7 129 1 189-19 12-4 7-19-4-18zM8540 4879c-30-4-62-12-91-10-8 0-9 10-2 12 29 9 63 9 93 12 9 1 9-13 0-14zM8703 4718c-124-37-210-111-290-202 74 33 158 41 240 42 14 1 20-19 7-26-60-30-109-69-153-119-5-6-15 2-10 8 28 40 61 73 99 102-83-12-161-26-237-69-10-6-24 4-20 15 38 115 130 199 236 252-77-1-154-11-229-33-20-6-33 19-20 34 84 90 198 156 318 182 15 3 26-19 11-26-79-37-151-79-221-127 86 17 171 24 262 17 28-3 35-41 7-50zM9237 4206c-97-41-181-95-251-174-8-8-23 1-20 12 30 101 80 185 153 259-4-2-7-3-10-4-58-22-114-45-170-70-79-37-146-93-205-157-8-8-23 3-16 13 4 7 10 14 15 20-5 3-8 8-7 15 11 63 45 116 88 160-99-26-195-63-285-112-20-11-42 11-31 31 79 139 198 243 345 307 10 4 19-10 8-15-110-62-200-145-271-247 101 47 205 82 317 102 25 4 40-27 17-42-60-39-101-89-137-147 103 107 258 181 398 194 8 0 13-11 7-16-78-65-135-147-172-240 60 63 130 109 216 136 15 4 25-19 11-25zM9362 4230c-116-74-208-159-278-269 59 49 125 94 196 113 10 3 20-11 11-19-79-65-106-153-119-251-1-11-16-11-16 0-5 72 19 135 57 191-64-45-131-86-189-142-14-13-41 0-34 20 58 169 192 319 363 378 13 5 19-14 9-21zM9410 3999c-42-41-87-79-127-123-44-47-80-101-122-150-2-3-8 0-7 4 37 115 137 229 243 286 11 5 22-8 13-17zM9100 5475c-113-90-211-193-261-327 64 48 138 75 223 71 21-1 29-28 11-39-118-69-185-170-242-288 65 52 138 95 219 119 7 2 10-9 3-12-83-34-161-73-233-128-1-1-1-1-3-2-1-1-3-2-4-3-5-3-11 3-7 7 1 1 3 2 4 3 15 114 79 209 164 282-61-19-115-49-164-99-16-17-44 0-39 22 46 178 142 339 320 408 8 3 15-9 9-14zM9584 4499c-55-65-110-127-153-201-5-9-20-8-22 3-19 97-13 187 9 279-51-60-89-126-120-203-5-12-20-10-21 3-16 137 16 261 88 372-94-54-180-114-245-208-10-14-35-6-29 12 49 161 115 298 230 421 10 11 26-5 16-16-84-97-152-207-192-328 72 83 170 137 270 186 18 9 33-12 21-27-88-108-129-255-151-368 19 97 91 187 163 250 15 13 45 1 37-21-37-100-47-198-52-304 2 51 96 135 135 166 12 9 25-5 16-16zM9558 4321c-1-7-11-8-11 0-3 55 11 111 29 164 4 10 20 5 17-5-20-52-28-104-35-159zM10189 4327c4-13-14-20-21-9-30 51-44 106-46 161-32-82-60-165-83-253-2-9-17-12-21-3-40 94-43 194-27 293-63-64-119-133-166-211-7-10-21-1-16 9 45 101 110 190 196 260 12 10 31 1 26-15-23-89-20-174-5-261 17 103 53 209 105 296 10 16 35 5 31-13-20-88-3-171 27-254zM10209 4357c-2-9-16-5-14 4 15 60 24 126 47 183 3 7 15 7 14-2-8-62-31-125-47-185zM10003 4735c0-3-5-5-7-2-20-49-41-97-62-145 1-2 1-3 2-5 6-12-10-21-18-10-51 69-61 146-54 231-1-2-2-3-3-5-40-60-70-127-96-194-6-14-24-18-32-4-56 91-62 184-34 279-63-44-115-95-163-159-13-17-37-7-34 14 17 129 60 239 131 342-34-10-68-21-102-32-17-5-31 14-22 29 58 101 135 169 245 210 8 3 13-9 5-13-81-44-143-99-192-174 37 11 73 22 110 33 19 6 28-17 18-31-70-88-116-184-141-289 48 58 107 106 177 143 20 10 42-11 31-31-51-90-50-179-15-269 37 85 80 166 141 237 9 11 28 0 23-13-36-103-21-187 21-283 20 55 39 110 61 165 2 6 14 6 13-2l-3-22zM10850 4755c-1-4-5-9-11-9-73-9-137 28-182 83 1-88-10-175-22-261-4-25-38-19-45 0-27 71-56 142-80 215-12-98-36-195-64-289-4-12-24-13-27 0-22 96-47 191-67 287-2 7 7 9 9 3 25-75 47-152 69-228 19 93 38 188 64 279 3 9 15 11 20 3 30-58 58-118 85-178 7 82 9 164 14 247 2 24 32 26 41 6 35-85 101-117 183-142-13 15-25 31-36 47-14 19-34 38-37 63-1 8 10 14 17 10 21-14 29-40 40-62 12-23 23-46 33-71 1-2-2-3-4-3zM9134 6141c0 1 1 1 0 2 12-13 9-11 0-2z"/><path d="M10164 6402c-29-47-61-93-95-136-10-14-35-11-34 9 2 54 3 108 5 163-47-77-81-157-103-250-4-17-30-21-38-5-22 43-44 86-65 130-40 82-28-157-27-172 1-16-18-20-28-12-51 45-90 88-130 142-100 134-25-52-2-111 3-7-5-14-11-12-64 25-130 48-180 98-124 124-26-82-1-154 7-21-23-38-38-22-55 59-112 118-168 177-7 3-13 6-19 9 12-30 24-59 36-89 5-14-13-26-25-19-72 45-144 89-214 135-60 39 73-106 107-142 1-2-1-4-4-2-6 6-12 12-19 18 1-4-1-7-6-7-108-10-205 5-306 34 9-16 19-33 32-49 27-32 63-54 90-85 6-7 3-20-7-19-92 7-165 106-188 188-6 24 18 38 37 29 107-47 228-71 342-86-58 53-109 110-155 175-12 16 10 36 26 26 72-45 142-90 212-139 41-28-56 154-53 146-10 22 17 47 35 27 76-77 150-157 223-236-19 21-29 133-30 200 0 22 29 28 40 11-9 14 227-257 203-163-17 63-22 113-18 179 1 12 18 19 24 7 26-51 152-178 154-196-9 68 11 133 34 196 6 16 31 24 40 5 31-62 50-205 85-80 23 81 71 155 121 222 14 18 53 16 50-14-10-92-70-250 43-107 11 15 35-4 25-19zM11361 5586c-68-68-142-117-227-150 38-8 77-15 116-23 19-4 23-34 5-43-78-37-158-65-241-84 24-12 48-25 71-40 10-5 12-22 0-27-90-43-178-77-278-88-15-2-18 23-4 27 56 14 111 27 166 44 112 35 34 43-34 71-18 8-26 43 0 47 83 12 157 32 231 62-45 8-89 17-134 26-23 4-22 40 0 45 101 25 182 65 257 130-66 4-131 7-197 11-27 2-33 39-6 48 75 24 130 65 173 123-74-27-147-37-232-33-21 1-29 29-11 40 256 156 11 86-59 66-10-2-19 9-13 18 27 39 45 82 54 129 1 4 6 3 6-1-3-35-2-64-18-97-7-13 147 26 161 29 7 2 16-5 13-13-21-51-44-89-78-126 79 5 151 24 226 55 19 8 32-16 24-31-39-73-88-124-152-164 55-4 110-7 165-11 19-1 31-25 16-40z"/></g></g><g><path fill="#AF7857" d="M15273 12781c-10-44-22-89-36-134-61-351-225-655-515-876-189-144-462-218-708-181-500-4-1029 242-1438 468-359 198-733 497-1157 515-194 9-388-101-562-173-196-80-393-98-602-79-411 38-787 243-1206 225-212-10-416-114-530-293-107-167-106-380-223-547-93-132-237-216-394-276-279-223-653-360-984-399-227-27-506-4-769 74-11 1-23 1-34 2-16 1-28 9-35 20-282 95-538 255-682 486-128 161-218 352-263 561-11 49 24 113 82 108 80-8 138-33 187-84 916-248 1694 485 2395 966 333 229 723 436 1131 479 229 24 449-8 677-32 256-27 467 25 689 151 350 199 634 375 1049 387 402 12 797-136 1148-315 834-424 1660-1241 2675-948 65 18 117-44 105-105z"/><g fill="#CACACA"><path d="M14977 12605c-414-96-884-189-1284-11-41 19-82 39-121 61-167 41-331 100-500 162-206 75-428 149-634 246-222 64-447 99-694 49-185-37-365-139-536-215-175-77-357-99-545-115-355-29-710 11-1064-14-384-27-699-157-997-398-7-6-18 1-13 10 335 637 1292 698 1916 736 209 12 417 45 625 68 224 25 439 104 664 124 102 9 204 5 305-10 3 2 6 3 11 2 287-25 571-123 851-207-164 140-327 283-505 408-412 291-898 356-1389 345-249-6-483-105-715-182-122-41-247-23-368-54-140-35-268-130-407-173-241-73-488-22-734-32-259-10-472-173-651-344-165-157-266-372-421-540-172-187-359-354-561-507-674-509-1623-541-2105 231-60 96 82 170 147 86 237-310 721-335 1079-262 462 94 825 420 1139 752 143 151 298 276 449 417 156 146 313 281 506 374 486 235 976-33 1471 42 89 13 215 140 299 195 104 68 215 119 328 170 200 91 413 157 630 195 434 75 885-34 1280-213 449-204 763-603 1166-875 190-129 432-237 645-319 251-96 449-157 724-136 38 2 46-58 9-66z"/><path d="M15273 12373c-178-356-537-528-923-529-428 0-842 329-1215 504-22 10-9 39 11 41 357 28 670-205 1020-236 360-32 727 110 1021 306 56 38 113-33 86-86zM8716 12772c-296-184-317-439-371-757-38-223-146-415-316-562-175-153-387-221-612-258-233-38-498-108-732-58-8 2-9 13-2 17 229 121 499 121 733 244 217 114 406 269 576 444 257 263 271 913 702 981 31 5 50-33 22-51z"/></g><g fill="#7A513F"><path d="M9902 12995c-527-48-1006-269-1295-728-121-192-174-416-300-604-117-174-304-286-487-378-429-217-912-334-1393-279-348 39-841 209-1015 541-9 17 9 37 26 26 190-112 342-250 550-335 229-93 477-119 721-112 484 14 1099 214 1433 578 161 175 230 429 348 631 91 156 222 297 364 405 305 231 672 363 1055 306 32-4 21-49-7-51zM15083 12570c-329-128-719-164-1069-116-411 56-779 258-1187 328-440 76-895 1-1320-119-350-99-677-321-1044-352-27-2-34 43-6 48 366 65 676 280 1021 410 362 137 756 185 1141 166 398-20 756-172 1127-301 450-156 870-143 1326-25 26 7 35-30 11-39z"/><path d="M14510 12882c-458-30-896 64-1307 268-454 226-795 620-1239 862-263 143-550 190-841 120-248-60-477-211-698-334-157-88-317-165-488-213-87-40-187-58-281-63-312-16-604 100-915 25-588-143-926-769-1524-908-19-4-25 22-7 29 519 216 847 698 1352 939 193 92 404 114 614 83 223-33 414-80 608-57 231 48 455 183 646 301 399 245 775 444 1254 335 496-112 873-516 1266-809 450-336 1002-503 1560-519 38-1 37-56 0-59zM14905 11634c-653-244-1644-143-2150 381-4 4 0 13 6 11 325-136 622-291 972-359 375-73 779-31 1151 41 49 10 67-57 21-74zM15170 12188c-333-410-968-333-1415-199-6 2-5 11 2 11 501-12 936-61 1365 249 39 29 74-29 48-61zM7390 11974c-448-438-1193-509-1730-193-6 3-2 14 5 12 592-201 1172-116 1703 210 17 11 36-14 22-29z"/></g></g></g></svg>