<svg xmlns="http://www.w3.org/2000/svg" width="210mm" height="297mm" shape-rendering="geometricPrecision" text-rendering="geometricPrecision" image-rendering="optimizeQuality" fill-rule="evenodd" clip-rule="evenodd" viewBox="0 0 21000 29700"><g fill-rule="nonzero"><path fill="#C1DCD6" d="M7099 7348c396-297 7771-284 8274 83 662 485 245 5449 145 9157-53 1956 92 3657-145 3787-321 177-2088 66-3984 0-759-26-1493 1-2131 28-1187 51-2043 102-2106-193-245-1149-85-6804-192-10033-43-1293-206-2570 139-2829z"/><path fill="#BE8B5E" d="M13211 16729c403 557 1016 1522 1212 3741-762 2-1868-55-3022-95-759-26-1493 1-2131 28-469 20-886 40-1223 39 60-1511 571-2829 1369-3764l3795 51z"/><path fill="#9E653D" d="M13778 18231c21 61 41 123 62 184l58-19c-21-62-41-123-62-184l-58 19zM13616 18429c20 39 40 89 49 127l60-15c-11-44-32-96-54-139l-55 27zM13869 18543c11 75 32 137 52 208l59-17c-21-72-41-132-50-200l-61 9zM13750 18682c28 45 38 94 60 149l57-23c-20-47-30-101-64-158l-53 32zM13971 18921c12 77 43 149 62 228l60-15c-22-85-52-156-61-222l-61 9zM13879 19023c0 55 11 99 21 140l60-15c-10-41-20-78-20-125h-61zM14068 19305c11 61 21 122 31 184l61-11c-11-61-21-122-31-184l-61 11zM13874 19352c11 51 21 107 57 155l49-36c-25-34-35-80-45-131l-61 12zM14117 19637c0 75 10 156 10 225h62c0-74-11-156-11-225h-61zM14148 20062c10 48 10 86 10 138h61c0-51 0-95-11-150l-60 12zM14002 19683v133h61v-133h-61zM13757 19492c21 72 40 130 40 196h61c0-78-22-142-42-213l-59 17zM13705 19051c-2 15-2 29-2 43 0 65 20 127 46 180l55-27c-24-48-40-101-40-153 0-11 1-23 2-34l-61-9zM13552 19021c10 41 20 85 45 122l51-34c-16-24-27-62-37-103l-59 15zM13599 18716c38 47 68 107 98 168l55-27c-30-61-62-125-105-179l-48 38zM13457 18378c11 51 21 105 43 159l57-23c-19-48-29-97-39-148l-61 12zM13363 18511c12 58 44 121 76 173l52-31c-30-49-59-109-68-154l-60 12zM13473 18754c10 42 23 81 59 117l44-44c-26-26-33-48-43-88l-60 15z"/><path fill="#E2BC8E" d="M9322 20401c38-254 82-492 124-624 218-688 704-1091 1368-1345 858-335 1838 196 2203 993 149 325 239 650 276 1022-577-20-1227-49-1892-72-738-25-1453 0-2079 26z"/><path fill="#A06D4A" d="M9124 19766c-15-212 3-431 138-537-133-60-121-145-217-229-97-85-242-109-339-206-107-99-204-222-285-351 15-43 30-85 46-127 73 61 154 121 239 189 244 185 487 351 739 512-190 269-279 532-321 749zm3623-763c-53-63-111-122-171-178 595-209 784-507 1171-769 54-35 104-60 146-85 32 84 64 172 95 264-22 53-55 106-93 151-20-58-39-116-59-174l-58 19c21 61 41 123 62 184l41-14c-31 34-65 62-100 79-22 11-46 16-70 17-11-33-25-66-40-95l-55 27c11 21 21 44 30 67-9-1-18-1-27-1-23 0-45 2-66 9-17-45-26-90-35-138l-61 12c10 49 20 101 41 153-18 11-35 23-52 36-10-24-19-48-23-68l-60 12c7 32 19 65 35 97-105 96-201 217-342 259-209 50-238 9-309 136zm-2064-919c-106-75-219-163-334-260-44-38-89-77-134-117 100-119 209-206 338-206 202 0 427 187 655 394-191 58-366 121-525 189z"/><path fill="#865334" d="M13840 18415c-21-61-41-123-62-184l58-19c20 58 39 116 59 174-5 5-10 10-14 15l-41 14zM13693 18497c-13 0-25 0-37-1h-10c-9-23-19-46-30-67l55-27c15 29 29 62 40 95h-18zm-77-68zM13498 18531c-21-52-31-104-41-153l61-12c9 48 18 93 35 138h-2c-18 8-36 17-53 27zM13398 18608c-16-32-28-65-35-97l60-12c4 20 13 44 23 68-16 13-33 27-48 41z"/><path fill="#BE936B" d="M11170 20369h-17l-1-1-60-1h-54l-6-1h-83l-6-1h-153c65-53 134-123 206-216 46-63 90-125 134-187 40-56 79-111 120-165 15 0 29 1 44 1 39 0 78-4 113-13 163-58 139-174 244-279 82-81 186-58 291-105 93-46 256-151 268-279 4-47-13-85-42-119 118-65 242-122 370-165 12-4 25-9 38-13 60 56 118 115 171 178-15 27-32 61-53 105-145 266-278 399-568 472-169 48-339 0-447 145-49 60-37 157-97 205-36 48-133 36-181 72-114 93-148 248-231 367z"/><path fill="#EB6032" d="M11700 17769c-2444 530-2609 1888-2609 2354 0 123 9 216 35 287l144-7c359-15 748-30 1155-36 33-175 48-365 74-454 163-477 559-907 954-1210l247-934z"/><path fill="#9D7350" d="M11648 17780zm8-1zm16-4zm4-1zm3-1h2-2zm4 0l1-1-1 1zm4-1h0zm4-1h0zm4-1h0z"/><path fill="#C4512A" d="M9957 20335c-16 0-31-2-47-8-36-11-66-48-99-55-2-1-5-1-9-1-8 0-18 1-28 3-10 1-21 2-31 2h-12c-48-8-114-33-140-77-11-19-8-34-6-49l68-34c12 7 24 15 36 22 6 3 13 7 19 11l9 5c10 6 19 12 29 17-7 7-14 13-19 17l-9 7-2 1 5 8 17 49c7-2 12-5 17-9 13-10 30-25 46-39 76 44 147 86 214 124-4 1-8 1-12 2-15 2-31 4-46 4zm-382-249c-4-1-12-3-24-8-40-15-91-4-132-22-33-18-56-43-72-73 12-1 23-3 34-5l-10-61c-15 3-29 5-43 7-13-67-1-146 16-216 13 5 27 10 39 15-2 14-4 28-5 42v2c-6 141 96 235 214 311-6 3-11 6-17 8zm-176-423c-12-4-26-9-39-14 4-13 8-26 12-37 22-77 69-114 120-172 33-41-57-98-27-145 36-63 72-47 46-115-17-46-51-69-86-69-18 0-37 6-54 19 23-38 47-75 74-113 98 63 197 125 297 186 7 5 14 9 21 13-69 66-151 141-222 222l-6-6-44 44c4 3 7 6 11 10-44 56-81 116-103 177zm1568-1389c-83-54-165-109-247-165-12-8-24-16-37-25 273-116 592-220 965-304 3 0 6-1 8-1 5-2 11-3 16-4 1 0 3 0 4-1 1 0 2 0 3-1h4l1-1h4c1-1 2-1 3-1h1c1-1 2-1 3-1h1c1 0 3-1 4-1l-39 145c-212 76-364 150-607 303l-87 57z"/><path fill="#EC904C" d="M9042 20258c43-14 78-28 112-42l-23-57c-34 14-68 27-108 41l19 58zM9177 20407l13-7-27-54c-42 21-77 41-117 61l3 6 128-6zM9337 20237c45-14 73-37 92-56 9-9 16-18 20-23l4-5-8-11 4 14 4-3-8-11 4 14-19-59c-16 6-21 14-27 21-17 19-34 43-85 61l19 58zM9371 20375c44-14 73-37 91-56 9-9 16-18 20-23l5-5-9-11 4 13 5-2-9-11 4 13-19-58c-16 6-21 14-27 21-17 19-33 43-85 61l20 58zM9252 19992c45 0 88-7 129-14l-10-61c-42 7-81 14-119 14v61zM9027 20039c43-12 96-13 147-20l-8-60c-45 6-102 6-155 21l16 59zM8987 19711c26 3 63 7 101 11 37 4 74 9 94 15l17-59c-28-8-66-13-105-17-38-4-75-8-98-11l-9 61zM9269 19678c33 16 128 51 161 59l15-59c-23-5-126-43-148-55l-28 55zM9115 19447c61 30 120 37 182 44l7-61c-62-6-112-13-162-38l-27 55zM9244 19249c26 26 56 40 84 54l27-55c-27-13-52-26-67-42l-44 43zM9491 19476c23 22 52 44 73 58l34-51c-19-13-45-32-63-51l-44 44zM9426 19252c30 23 61 38 96 52l23-57c-33-13-58-25-82-44l-37 49zM9362 19039c34 0 60 10 91 34l38-48c-38-30-81-48-129-48v62zM9601 19188c21 20 38 38 49 60l55-27c-17-33-40-56-61-77l-43 44zM9729 19397c18 12 32 26 55 41l34-51c-18-11-32-25-55-41l-34 51zM9565 19847c10 3 18 3 28 3 20 0 46-3 72-7 26-5 50-10 68-17l-23-57c-10 4-32 9-55 13s-48 7-62 7l-8-1h-1l-1 6 1-6-1 6 1-6-19 59zM9543 20169c5-2 10-4 16-7 22-10 61-29 96-47 18-9 35-17 48-24 13-6 25-11 25-11l-19-58c-5 2-10 4-16 7-22 10-60 29-96 47-18 8-35 17-48 23-13 7-25 12-25 12l19 58zM9845 19963c9-3 18-7 29-13 35-18 84-47 102-59l-34-51c-9 6-35 21-60 36-13 7-25 14-36 19-10 5-19 10-20 10l19 58zM9857 19675c6-7 29-29 52-50 12-10 23-20 33-28l12-9 3-2h1l-4-9 3 9h1l-4-9 3 9-20-58c-7 3-12 6-17 9-18 12-40 32-61 51s-39 37-45 43l43 44zM9667 20387c18-17 35-31 52-37l-22-58c-35 14-60 39-83 62-14 13-26 26-38 37l91-4zM9912 20271c6-6 8-10 11-16 9-17 19-42 28-66 5-12 9-23 13-31l5-9 1-2-8-6 7 7 1-1-8-6 7 7-44-43c-6 6-8 10-11 16-9 17-19 42-28 66-5 12-9 23-13 31l-5 9-1 2 8 6-7-7-1 1 8 6-7-7 44 43zM9912 20379l-5-16c-8 3-12 6-17 9-4 3-7 5-10 8l32-1zM9738 20253c7-2 12-5 17-9 16-11 35-30 54-47 9-8 18-16 25-22l9-6 1-2-4-8 3 9 1-1-4-8 3 9-20-58c-8 3-12 6-17 9-16 12-35 30-54 47-10 9-19 17-25 22l-9 7-2 1 5 9-3-10-2 1 5 9-3-10 20 58zM10165 20331c2-8 4-18 7-30 4-19 8-42 11-63s5-38 5-50h-61c0 2-1 11-2 22-3 18-6 40-10 60-3 19-7 38-8 41l58 20zM10188 19999c0-16-3-58-3-87 0-7 0-14 1-18v-4l-15-4 14 7 1-3-15-4 14 7-55-28c-5 11-4 16-5 24-1 7-1 15-1 23 0 32 3 76 3 87h61zM10104 19766c3-4 7-8 13-16 10-10 23-25 34-38 5-6 10-11 14-16l7-8-43-43c-3 3-7 8-14 15-9 11-22 25-33 38-6 6-11 12-15 16l-7 8 44 44zM10397 19910c0-2-1-9-1-17 0-15 2-36 6-54s10-34 13-37l-49-37c-13 18-19 39-24 62-5 22-7 46-7 66 0 12 0 22 3 32l59-15zM10474 20272c-13-32-26-73-32-104l-60 12c7 37 21 80 35 115l57-23zM10296 20157c-13-33-26-73-32-105l-60 12c7 38 21 80 36 115l56-22zM10298 20369l-15-4-1 4z"/><path fill="#EB6032" d="M12564 17455c-188 199-358 284-696 391-337 106-499 173-814 371-430 280-884 594-1245 955-151 151-419 361-431 593-11 221 245 326 408 431 113 66 216 128 311 178 225-6 457-10 693-9 65-53 134-123 206-216 221-302 396-593 710-838 245-186 525-370 832-473 625-209 814-514 1209-782 233-151 391-114 159-700-88-223-99-372-111-617-11-209 132-521-163-605-27 174-237 260-365 558-179 416-480 528-703 763z"/><path fill="#B24A28" d="M9717 20154l-9-5c-6-4-13-8-19-11 9 5 18 10 28 16z"/><path fill="#AC8661" d="M11130 19962c40-56 79-111 119-165h1c-41 54-80 109-120 165z"/><path fill="#B24A28" d="M9378 19767v-2c1-14 3-28 5-42-2 14-4 28-5 42v2zm21-104c22-61 59-121 103-177-44 56-81 116-103 177zm142-225c71-81 153-156 222-222-69 66-151 141-222 222z"/><path fill="#D88344" d="M9383 19723c4-20 9-40 16-60-7 20-12 40-16 60zM9502 19486c12-16 25-32 39-48-14 16-27 32-39 48z"/><path fill="#AE7F56" d="M11661 17914c57-20 118-40 186-62-68 22-129 42-186 62z"/><path fill="#D8592F" d="M11661 17914z"/><path fill="#B24A28" d="M11054 18217c243-153 395-227 607-303-212 76-364 150-607 303z"/><path fill="#D8592F" d="M9718 20155l-1-1c-10-6-19-11-28-16l-2-2h-1c-10-6-21-12-31-19l-10-6c-8-4-15-9-23-14l-12-7c-7-5-14-9-21-14l-12-8c-7-5-14-9-20-14l-12-8c-7-5-14-10-20-16l-11-8c-7-6-15-13-22-19l-6-5c-9-8-18-17-26-26l-6-7c-6-6-11-13-17-20l-7-10c-4-6-9-13-13-19l-6-12c-4-6-7-12-10-19l-5-13c-3-6-5-13-7-20l-4-13c-2-8-3-16-4-24l-2-12c-1-12-1-24-1-36v-2c1-14 3-28 5-42 4-20 9-40 16-60 22-61 59-121 103-177 12-16 25-32 39-48 71-81 153-156 222-222 320 192 662 351 1015 465 130 43 311 105 471 116-40 54-79 109-119 165l-12-9c-6-2-13-2-20-2-30 0-66 14-87 19-28 4-51 17-78 17-4 0-9-1-13-1-70-11-107-86-166-107-113-38-257-6-375-43-75-22-96-38-144-86-33-37-49-59-102-80-58-18-163-32-269-32-120 0-242 18-299 69-150 129 172 214 188 348 5 48-10 79-35 100zm2420-1182c-59-50-142-86-208-119-331-175-649-372-963-580l87-57c243-153 395-227 607-303 57-20 118-40 186-62l21-6c338-107 508-192 696-391 223-235 524-347 703-763 125-291 329-380 363-547 1-2 1-5 1-7 1-1 1-3 1-4 26 7 47 17 67 27-2 45-7 90-17 135-4 11-25 25-16 33 100 95-21 131 16 238 32 86-53 78-53 185 0 220-332 150-316 386 5 107 91 192-5 278-75 64-199 43-252 134-38 69-21 166-70 235-96 172-310 204-487 247 48 101-64 58-107 96-37 32 0 43-21 70-38 58-113 69-182 85-59 16-182 16-225 59s0 80-22 118c-17 32-52 40-93 40-21 0-43-2-65-4s-44-5-63-5c-5 0-10 1-14 1-102 11-230 32-80 107 53 27 117 27 165 54 43 21 43 53 65 69 53 48 134 38 187 102 31 37 71 93 94 149z"/><path fill="#EB6032" d="M11930 18854c-419-221-814-477-1210-745-547-372-1280-1122-1629-1693l-208-223c-373-46-72 566-223 706-151 151-384 151-524 349-116 163-93 361-35 547 105 349 326 489 605 710 338 256 676 477 1036 698 326 198 675 361 1036 478 175 58 443 151 629 104 163-58 139-174 244-279 82-81 186-58 291-105 93-46 256-151 268-279 11-140-163-210-280-268z"/><path fill="#ACC6C1" d="M9338 16771c-82-107-157-212-221-312 64 100 139 205 221 312 0 0 1 0 0 0z"/><path fill="#AB7E55" d="M10215 17707c-312-279-630-617-877-936 1 0 0 0 0 0 247 319 565 656 877 936z"/><path fill="#8F6344" d="M10349 17824c-45-38-89-77-134-117 45 40 90 79 134 117z"/><path fill="#ACC6C1" d="M9117 16459c-1-1-1-2-2-3 1 1 1 2 2 3zm-2-3c0-1-1-2-1-3 0 1 1 2 1 3zm-1-3l-2-2 2 2zm-2-3c-1 0-1-1-2-2 1 1 1 2 2 2zm-2-3l-1-1 1 1zm-2-2c0-1 0-1-1-2 1 1 1 1 1 2zm-1-3c-1 0-1-1-1-1s0 1 1 1zm-2-2c0-1-1-2-1-2s1 1 1 2zm-2-3c0-1 0-1-1-2 1 1 1 1 1 2zm-1-3c-1 0-1-1-1-1s0 1 1 1zm-2-2c0-1-1-2-1-2s1 1 1 2zm-2-3c0-1 0-1-1-2 1 1 1 1 1 2zm-1-3c-1 0-1-1-1-2 0 1 0 2 1 2zm-2-2c0-1-1-2-1-2s1 1 1 2zm-1-3c-1 0-1-1-2-2 1 1 1 2 2 2zm-2-2c-1-1-1-2-1-3 0 1 0 2 1 3z"/><path fill="#D4552D" d="M9084 18777c-126-87-252-177-378-272-279-221-500-361-605-710-28-90-48-182-48-272 0-97 23-191 83-275 140-198 373-198 524-349 36-33 46-93 46-164 0-99-20-220-20-323 0-124 30-221 159-221 11 0 24 1 38 2l208 223c0 1 0 2 1 3s1 2 2 2v1s1 1 1 2h1c0 1 0 2 1 2v1c1 1 1 1 1 2 0 0 1 0 1 1 0 0 1 1 1 2l1 1s0 1 1 1v1c1 1 1 1 1 2 0 0 1 0 1 1 0 0 1 1 1 2l1 1s0 1 1 1v1c1 1 1 1 1 2 1 0 1 1 1 1l1 1v1c1 1 1 2 2 2v1l2 2c0 1 1 2 1 3 1 1 1 2 2 3 64 100 139 205 221 312 247 319 565 657 877 936 45 40 89 79 134 117-10-1-19-2-28-2-17 0-33 2-49 3-15 2-31 3-48 3-46 0-102-11-198-63-9-5-17-7-25-7-13 0-25 6-37 13s-24 13-40 13c-6 0-12-1-19-3-88-28-223-175-300-210-244-114-396-206-309-331-8 2-16 2-24 2-86 0-163-88-231-177s-127-178-177-178c-27 0-52 26-74 92-24 82-92 257-27 371 60 103 126 50 237 342 59 155 206 178 126 257-28 33-62 47-99 47-112 0-253-131-369-252-41-43-61-203-100-241-74-73-141-127-195-127-6 0-12 1-18 2-196 56-58 692 190 692 23 0 47-6 71-17 77 230 61 199 230 352 113 99 199 211 248 372z"/><path fill="#BE8B5E" d="M13490 13163c-256-396-617-699-1036-896-582-280-1187-385-1827-257-512 117-1175 436-1711 1188l-151 151c-256 372-498 865-405 1625 127 1039 1358 3116 2872 3103 1221-10 2310-1527 2461-2004 303-1013 391-1991-203-2910z"/><path fill="#393C53" d="M11349 15432c-245-6-734-104-827 210-81 256 431 524 640 547 419 70 1132-679 408-745-55-5-166-10-221-12z"/><path fill="#393C53" d="M11188 16032c-42 271-4 541-1 813 0 37 91 114 91 62-4-265-43-530-2-794 6-40-82-117-88-81z"/><path fill="#393C53" d="M10694 16480c29 154 143 314 284 384 346 171 641-29 775-355 16-37-71-121-88-81-111 269-299 441-605 383-144-26-252-151-279-291-7-37-100-108-87-40z"/><path fill="#F4A96D" d="M8270 17048c6 26 6 57 15 98l60-12c-7-35-7-65-16-101l-59 15zM8132 17236c7 26 7 57 15 98l60-12c-7-35-6-65-15-101l-60 15zM8417 16907c1 3 5 13 11 26 8 19 19 45 29 68s18 42 22 49l55-27c-1-2-6-12-11-25-9-19-20-46-30-68-10-23-18-42-21-50l-55 27zM8403 17346c16-31 31-61 44-81l-51-34c-17 25-32 57-47 87l54 28zM8626 17449c15-30 30-60 44-81l-51-34c-17 26-33 57-48 88l55 27zM8808 17456c31-23 64-47 91-83l-49-36c-20 26-48 47-78 70l36 49zM8759 17886c30-24 63-48 90-83l-49-37c-19 26-47 48-78 70l37 50zM8638 17029c-7 26-20 52-38 70l43 44c28-28 45-64 54-99l-59-15zM8616 16753c40 6 81 27 106 52l44-43c-36-36-87-61-140-70l-10 61zM9095 16562c-26 35-42 76-56 104l54 28c17-32 31-69 51-95l-49-37zM8877 16735c-27 35-42 75-57 104l55 27c16-32 31-68 51-95l-49-36zM9130 17157c31-22 51-36 80-51l-27-54c-33 16-58 33-89 56l36 49zM8866 17218c30-22 51-36 80-50l-28-55c-32 16-58 33-89 56l37 49zM9323 17055c52-22 106-38 155-62l-27-55c-42 21-96 37-152 60l24 57zM9001 16983c52-22 106-37 155-62l-27-55c-42 22-96 37-152 61l24 56zM8869 16277c1 21-6 71-6 113 1 22 1 43 11 63l55-27c-2-1-5-18-4-36 0-37 6-84 6-113h-62zM8752 16297c0 38-1 75 18 113l55-27c-11-23-12-47-12-86h-61zM9218 17551c29-14 45-19 70-20v-61c-36 0-66 10-98 26l28 55zM8995 17540c30-15 46-20 71-20v-62c-36 0-66 10-98 27l27 55zM9497 17300c2-6 17-29 32-48 15-20 34-40 42-44l-36-50c-18 13-36 33-54 56s-33 45-41 65l57 21zM8907 16584c16-11 41-18 67-18v-61c-36 0-72 8-101 28l34 51zM9721 17575c23-43 59-79 100-110l-37-49c-45 34-88 76-117 131l54 28zM9909 17760c41-27 90-42 141-49l-9-61c-56 9-115 25-166 59l34 51zM9257 17309c25-42 63-76 106-105l-34-51c-48 32-93 72-124 125l52 31zM9527 17694c-34 34-57 73-86 110l48 38c32-41 55-78 82-105l-44-43zM9531 17398c-34 35-57 74-86 110l48 39c32-41 55-78 82-105l-44-44zM9771 17919c-31 38-63 77-94 124l51 34c30-44 60-82 90-120l-47-38zM9725 17689c-31 38-63 77-94 124l51 34c30-44 60-82 90-120l-47-38zM10021 17922c0-7 6-23 19-37 14-14 33-27 54-33l-17-59c-32 10-60 28-81 50s-36 49-36 79h61zM10110 17998c48-14 94-14 153-31l-17-59c-49 14-95 14-153 31l17 59zM8951 17731c0 34-7 75-26 107l52 31c27-45 35-96 35-138h-61zM9261 17993c-22 45-46 84-63 134l58 20c14-42 36-79 60-127l-55-27zM9188 17667c-22 45-46 84-63 134l58 20c14-42 36-79 60-126l-55-28zM9566 18161c-23 23-55 55-80 88l49 37c21-28 51-58 74-81l-43-44zM9232 18633c-23 23-54 54-79 88l49 36c21-28 51-58 74-81l-44-43zM9481 17958c-23 23-54 55-79 88l49 37c21-29 51-59 74-81l-44-44zM8953 18074c-15 45-30 81-51 116l52 32c25-41 41-82 57-129l-58-19zM8614 17595c-8 49-8 85-22 126l58 19c17-51 17-92 25-135l-61-10zM8488 17660c-8 50-9 85-22 126l58 20c17-52 17-93 24-135l-60-11zM8284 17485v177h61v-177h-61zM7977 17428c29 37 59 81 81 125l55-28c-25-48-56-96-88-136l-48 39zM8292 17927c9 60 33 108 56 161l56-24c-23-55-45-99-51-146l-61 9zM8629 18030v84h61v-84h-61zM8131 17788v85h62v-85h-62zM8860 18388c7 35 6 73 15 109l60-15c-7-25-7-64-15-106l-60 12zM8622 18281c7 35 7 72 16 109l59-15c-6-25-7-64-15-106l-60 12zM9277 18405c-23 38-47 79-64 129l58 19c15-42 36-78 59-117l-53-31zM9097 18305c-23 39-47 79-64 129l58 19c14-42 36-78 59-116l-53-32zM9428 18833c10-3 20-8 33-15 19-9 44-22 67-34 24-12 47-23 61-28l-19-58c-27 9-61 27-93 43-16 9-31 16-44 23-12 6-22 10-24 11l19 58zM9796 18526c46-15 91-30 134-37l-10-60c-49 8-97 24-143 39l19 58zM9551 18530c46-15 91-30 133-37l-10-60c-49 8-96 24-142 39l19 58zM10086 18275c46 0 101 0 151-8l-11-61c-42 8-94 8-140 8v61zM9794 18241c47 0 101 0 151-9l-10-60c-42 7-95 7-141 7v62zM10454 18110c49-28 116-51 172-58l-7-60c-66 8-138 32-196 65l31 53zM10362 18240c49-28 116-50 172-57l-7-61c-66 8-138 32-196 65l31 53zM10366 18558c57-8 110-23 161-30l-9-61c-56 8-110 24-161 31l9 60zM10366 18903c57-8 110-23 161-30l-9-61c-56 8-110 24-161 31l9 60zM10155 18505c57-8 110-24 161-31l-8-61c-57 9-110 24-161 31l8 61zM10813 18371c27-13 55-20 85-28l-15-59c-30 7-63 15-98 33l28 54zM10575 18371c27-13 55-20 86-28l-15-59c-31 7-64 15-99 33l28 54zM10682 18823c8-21 26-38 53-54 27-15 60-29 93-45l-28-55c-28 15-63 28-96 47-32 19-64 45-80 85l58 22zM10049 19102c8-20 26-37 53-53 27-15 61-29 93-45l-27-55c-29 15-64 28-97 47-32 19-64 44-79 85l57 21zM10115 18856c21-20 49-42 77-55l-28-55c-34 17-67 42-92 67l43 43zM10157 19263c21-21 50-42 77-56l-28-55c-34 18-67 42-92 67l43 44zM9826 18818c20-21 49-42 76-55l-27-55c-35 17-67 41-93 67l44 43zM9659 18971c20-20 49-42 76-55l-27-55c-34 17-67 42-92 67l43 43zM10073 18749c21-21 49-42 76-55l-27-55c-34 17-67 41-92 67l43 43zM9856 19141s1-10 3-20c4-17 11-38 17-55 3-9 6-16 9-20l2-4-13-10 7 14 6-4-13-10 7 14-27-55c-11 6-15 12-18 17-7 10-11 20-16 31-6 17-13 37-17 55-5 19-8 33-9 47h62zM10320 19325c66-8 129-32 191-55l-22-58c-61 24-121 45-177 52l8 61zM10761 19141c49 0 90-8 135-15l-10-61c-47 8-83 15-125 15v61zM10695 19306c50 0 90-8 136-15l-10-61c-47 8-83 15-126 15v61zM10918 18911c49 0 90-8 135-15l-10-61c-47 8-83 15-125 15v61zM11265 18916c27-14 55-21 86-28l-15-60c-31 8-64 16-98 33l27 55zM11066 19138c27-13 55-20 85-28l-15-60c-30 8-63 16-98 33l28 55zM10905 18592c27-14 55-21 85-28l-15-60c-30 8-63 16-98 33l28 55zM11150 18625c9-5 12-10 16-14 13-15 24-36 35-55 5-10 10-19 14-26l5-8 1-1-14-9 12 11 2-2-14-9 12 11-44-43c-5 5-6 7-8 11-8 12-18 33-29 51-5 9-10 18-14 24l-5 6 10 10-6-12-4 2 10 10-6-12 27 55zM11342 18720c9-4 12-9 16-13 13-15 24-36 35-55 5-10 10-19 14-26l5-8 1-1-14-10 12 12 2-2-14-10 12 12-44-44c-5 6-6 8-8 12-8 12-18 33-29 51-5 9-10 18-14 23l-5 7 10 10-7-13-3 3 10 10-7-13 28 55zM11631 18795c22-42 50-78 87-115l-44-43c-39 39-73 81-97 130l54 28zM11785 18872c21-43 49-78 86-115l-43-44c-40 40-73 81-98 131l55 28zM11976 19009c37-29 78-48 128-64l-19-59c-54 18-102 40-146 74l37 49zM11736 19183c12-12 19-26 27-41 11-22 21-46 31-65 4-10 9-18 13-23l8-7-23-57c-19 8-31 22-40 36-14 22-24 46-34 68s-20 41-26 46l44 43zM11622 19451c29-29 56-49 89-63l-23-56c-43 17-77 43-110 75l44 44zM11380 19159c29-29 56-48 90-62l-23-57c-43 17-78 44-110 76l43 43zM11576 19006c29-29 56-49 89-62l-23-57c-43 17-77 43-110 76l44 43zM11319 19416c3-3 14-12 27-22 20-15 47-35 70-52 24-18 44-33 56-45l-43-43c-3 3-14 12-27 22-20 16-47 35-70 52-24 18-44 33-56 45l43 43zM11281 19592c3-3 14-12 27-22 20-16 46-35 70-52 24-18 44-33 56-45l-43-43c-4 3-15 12-28 22-20 15-46 35-70 52-24 18-44 33-56 45l44 43zM11039 19447l61-61-43-44-61 61 43 44zM10785 19597c21-28 50-57 78-78l-37-49c-33 25-65 57-90 90l49 37zM10454 19529c21-28 50-57 78-78l-37-49c-33 25-65 57-90 91l49 36zM10496 19095c21-28 50-58 78-79l-37-49c-33 25-65 58-90 91l49 37zM11120 19685l8-10c9-13 22-32 34-49 6-8 12-16 16-20l3-4-10-11 8 12 2-1-10-11 8 12-15-23v28c10-1 13-4 15-5l-15-23v28-30l-15 26 15 4v-30l-15 26 15-26-28 10c1 4 5 11 13 16l15-26-28 10 25-9h-27l2 9 25-9h-27 19l-18-3-1 3h19l-18-3c-1 2-5 13-12 29l57 24c5-12 8-20 11-28 2-8 4-12 5-22-1-4 0-9-5-17l-11-11-16-5c-13 1-16 5-20 7l-11 10c-10 12-22 29-34 46-5 8-11 16-15 22l-6 8-2 2 3 3-3-3 3 3-3-3 44 44zM11451 19671h199v-62h-199v62zM11834 19371h192v-61h-192v61zM12079 19226c83 0 153-24 225-31l-6-61c-81 8-149 31-219 30v62z"/><path fill="#BE8B5E" d="M8906 13663c-349 0-584-46-747-372-93-175-139-373-209-559-58-116-151-233-151-349 477-186 1617-268 1664 768l-557 512zM13188 13244c-268-838 941-975 1583-878-268 420-194 764-413 1133-164 276-457 292-760 164l-410-419z"/><path fill="#9E653D" d="M8730 12581c-211-50-361 0-571 0 163 105 195 465 300 639 70 128 461 301 632 71 272-366-35-633-361-710zM13560 13442c205 238 559-105 652-303 81-162 116-360 244-488-291-12-1461 135-896 791z"/><path fill="#F4A96D" d="M9949 20267c45 0 95 1 131 16l23-57c-52-21-109-20-154-20v61zM9967 20143h116v-62h-116v62zM10022 19866c30 8 53 23 79 40l34-51c-26-17-57-38-98-48l-15 59zM10176 20148c15 8 41 26 62 36l27-55c-14-7-41-25-62-35l-27 54zM10226 19969c23 15 47 40 62 62l52-34c-21-30-50-59-80-79l-34 51zM10449 20014c17 25 24 41 33 59l55-28c-9-18-19-38-37-65l-51 34zM10418 20182c9 37 19 67 38 104l54-27c-16-34-24-58-33-92l-59 15zM10231 20347c11-2 22-3 35-3 30 0 64 6 95 12l12-60c-32-7-69-14-107-14-16 0-31 2-47 5l12 60zM10702 20315c5 19 12 35 19 50h71c-13-21-24-41-30-65l-60 15zM10643 20187h62v-61h-62v61zM10816 20184c38 19 84 37 132 47l12-60c-40-8-83-25-116-42l-28 55zM10910 20081h71v-62h-71v62zM10630 19730c1 63 31 121 58 167l53-32c-26-43-50-92-49-135h-62zM10879 19756c1 34 10 73 32 106l51-34c-14-20-22-51-21-72h-62zM11079 19929h89v-61h-89v61zM10363 19623c0 49 10 97 30 138l55-27c-15-30-23-71-23-111h-62zM10071 19586c10 42 31 72 48 98l52-34c-18-26-33-49-41-79l-59 15zM9736 19876c36 0 75 15 106 38l37-49c-40-30-90-50-143-50v61zM9647 20036c36 0 58 0 90 8l15-59c-39-10-70-10-105-10v61zM9635 20231c44-9 97-17 142-26l-12-61c-43 9-97 18-142 27l12 60zM9318 19920h142v-61h-142v61zM9530 19705c22 7 48 25 81 36l19-58c-21-7-48-25-80-36l-20 58zM9741 19609c29 29 58 48 85 66l34-51c-27-18-52-34-76-58l-43 43zM9826 19444c14 20 23 56 44 89l51-34c-14-20-23-56-44-89l-51 34zM9569 19303c27 36 53 72 80 107l49-37c-27-35-53-71-80-106l-49 36zM9467 19482c43 18 73 33 105 65l43-44c-39-39-80-59-126-78l-22 57zM9294 19680c48 9 95 9 139 9v-61c-44 0-86 0-127-8l-12 60zM10893 18216c26 44 54 90 91 136l48-38c-34-42-60-86-87-130l-52 32zM11114 18133c19 39 46 75 62 107l55-27c-20-39-46-75-62-107l-55 27zM11179 18378c28 38 58 69 100 89l27-54c-30-15-53-38-78-72l-49 37zM11413 18289c0 13 0 30 3 48 2 17 8 37 24 53l43-43c-1-1-5-8-7-20-2-11-2-25-2-38h-61zM11422 18010c9 45 19 91 38 139l57-23c-17-41-25-83-34-128l-61 12zM11635 18191v98h62v-98h-62zM11441 18503c12 35 37 59 66 78l34-51c-25-16-35-28-42-46l-58 19zM11655 18412c-4 11-5 22-5 33 0 29 9 58 30 79l43-43c-5-5-12-22-12-36l2-13-58-20zM11333 18817c54-9 96-17 146-17v-62c-57 0-103 10-156 19l10 60zM11239 18684h98v-61h-98v61zM11707 18728c8 9 16 13 27 16 10 4 21 6 34 6 10 0 21-1 32-5l-19-58-13 2-14-3-4-1-1-1-4 6 5-5-1-1-4 6 5-5-43 43zM11879 18617c29-20 47-38 71-54l-34-51c-30 20-47 38-71 54l34 51zM11928 18360c0-10 1-16 4-22s7-12 14-19l-44-43c-10 11-20 23-26 37s-9 30-9 47h61zM11813 18093v80h62v-80h-62zM11938 17814c9 44 18 98 27 143l60-12c-9-44-17-97-26-143l-61 12zM12160 17808c0 36 0 74 10 115l60-15c-8-31-9-64-9-100h-61zM12098 18093v71h61v-71h-61zM12338 18214c-29 29-48 58-66 84l51 34c18-26 34-51 59-75l-44-43zM12040 18479c53 0 105 1 145 9l12-60c-49-10-104-10-157-10v62-1zM12137 18657c45 0 78 1 109 8l15-59c-41-10-79-10-124-10v61zM11995 18764c27 0 51 2 58 6l27-55c-29-14-58-12-85-12v61zM11938 18827c-9 10-13 22-13 32 0 11 4 20 8 28 3 7 8 14 14 19l43-43-3-4-1-2-5 2h6l-1-2-5 2h6-18l12 12 6-12h-18l12 12-43-44zM12162 18885c7 22 22 38 37 52s32 26 46 35l34-51c-13-8-27-18-39-29-11-10-19-21-20-26l-58 19zM12369 18853c31 0 84 9 117 17l15-60c-38-9-92-18-132-18v61zM12492 18709c35 11 72 10 99 11v-62c-26 1-60 0-79-7l-20 58zM12431 18479c40 0 86-9 123-18l-15-60c-34 9-77 17-108 17v62-1zM12604 18239c5-5 14-11 25-17 11-7 25-15 37-27l-43-44c-5 6-14 11-25 18s-25 14-38 27l44 43zM12450 18018c3-7 9-18 15-27s13-17 14-19l-43-43c-8 8-14 17-22 28-7 11-14 23-19 33l55 28zM12470 17705c-3-16-5-29-5-40 1-19 4-29 14-39l-43-44c-24 23-32 54-32 83 0 17 2 34 6 52l60-12zM12639 17754c7-31 23-62 45-84l-43-43c-32 31-52 72-62 112l60 15zM12718 17952c6-19 17-30 41-47l-34-51c-29 19-54 43-65 78l58 20zM12907 18183c15-8 42-17 62-27l-27-55c-15 8-41 17-62 27l27 55zM12796 18373c26 0 57 0 89-11l-19-58c-21 7-44 8-70 7v62zM12769 18569c34-1 59-10 89-9v-62c-41 1-69 10-89 9v62zM12796 18729c19-1 48 8 89 8v-61c-31 0-56-8-89-9v62zM13115 18487c57 19 122 28 179 28v-61c-50 0-110-9-159-25l-20 58zM13125 18364c49 0 87-10 130-18l-12-61c-45 9-78 18-118 18v61zM13268 18140c13-5 28-9 44-18 15-8 31-21 43-39l-51-34c-6 9-13 14-22 19s-20 9-34 14l20 58zM13126 17918c26-10 57-19 83-43l-44-44c-10 11-32 20-59 28l20 59zM12885 17973c6-11 22-28 30-36l-43-44c-9 10-29 28-41 53l54 27zM12985 17711c7-20 21-43 46-68l-44-43c-29 29-49 59-60 92l58 19zM12862 17551c-1-27 1-51 6-58l-55-27c-14 29-12 58-12 85h61zM12791 17364c0-10 2-25 4-40 2-16 5-33 5-49h-62c0 10-2 24-4 40-2 15-5 32-5 49h62zM13031 17364c0-27 0-50 7-71l-58-19c-11 33-10 63-10 90h61zM13271 17501l27-27-44-43c-9 9-17 18-26 27l43 43zM13290 17702c35-17 71-35 106-53l-27-55c-36 18-71 36-107 54l28 54zM13468 17845c17-9 35-18 53-27l-27-55-54 27 28 55zM13481 17990h89v-61h-89v61zM13445 18177c35 0 69 1 88 7l20-58c-35-11-72-10-108-10v61zM13383 18319c36 0 82 1 123-9l-15-60c-30 8-73 8-108 8v61zM13774 17999c27 0 57 1 90-10l-20-58c-20 6-43 7-70 7v61zM13730 17821c40 0 81-10 120-30l-27-54c-32 15-63 23-93 23v61zM13891 17633c32-11 64-32 86-66l-51-34c-13 21-34 35-55 42l20 58zM13699 17533c24-12 43-32 52-41l-43-43c-8 8-25 24-37 30l28 54zM13516 17688c5 0 13 0 23-2 10-1 22-4 34-16l-43-43 7 6-5-8-2 2 7 6-5-8 1 3-1-3 1 3-1-3c0 1-10 2-16 2v61zM13551 17327c23-15 46-23 73-32l-20-58c-26 9-56 18-87 39l34 51zM13446 17508c32-11 59-28 80-35l-20-58c-32 11-58 29-80 35l20 58zM13426 17123c17-26 43-60 67-85l-43-43c-29 29-56 66-75 94l51 34zM13235 17305c8-8 13-15 18-22 4-7 8-12 9-13l-43-44c-8 8-13 16-17 23-5 6-9 12-10 13l43 43zM13138 17026v-98h-62v98h62zM13377 16797c-9-48-29-96-59-137l-49 37c24 31 40 72 48 112l60-12zM13371 16474c12 6 26 27 38 55 13 27 26 59 48 87l48-38c-14-17-26-46-40-76-14-29-30-61-62-81l-32 53zM13566 16688c0 26-2 56-13 72l51 34c24-38 22-80 23-106h-61zM13721 16988c33-25 67-42 102-59l-27-55c-36 17-73 36-111 65l36 49zM13677 17170c32-11 59-28 80-35l-19-58c-32 11-59 28-80 35l19 58zM13810 17297c2-3 5-7 12-12 6-6 16-13 27-24l-43-44c-7 8-15 13-24 21s-19 17-26 32l54 27zM13903 17453c18-8 36-17 54-26l-28-55c-17 9-35 18-53 27l27 54zM13756 16790c15-1 27-5 39-11 36-17 78-49 108-79l-44-43c-16 16-39 35-61 50-10 7-21 13-29 17l-10 3-3 1v3-3 3-3 62zM13764 16562c25-16 59-34 95-51l-27-55c-36 18-72 35-102 55l34 51zM13645 16447c0-13 0-25 1-33 2-8 4-13 8-16l-44-43c-14 14-21 32-24 48s-3 31-3 44h62zM13785 16244c9-25 15-38 32-64l-51-34c-18 28-29 50-39 78l58 20zM13606 16314c-21-16-46-28-69-42-22-13-41-27-50-38l-49 37c19 24 44 40 68 54s48 27 63 38l37-49z"/><path fill="#393C53" d="M9670 15223c-26-45-72-78-130-78-81-1-158 68-155 151 1 51 14 96 49 135 35 38 80 51 130 56 83 8 154-74 155-152 1-47-19-85-49-112zM12882 15242c-1-52-27-103-73-131-73-43-167-18-211 53-19 31-32 64-32 101-1 89 68 146 151 155 64 7 109-38 144-84 21-27 26-61 21-94z"/><path fill="#FEFEFE" d="M9568 15249l7-10 2-1-9 11zm136 30c0-24-13-49-35-62-35-21-80-9-101 25-9 15-16 31-16 49 0 43 33 70 73 74 31 3 52-18 69-40 10-13 13-30 10-46zM12588 15187l7-10 2-1-9 11zm137 31c-1-25-14-49-36-63-35-21-80-9-101 25-9 15-15 31-16 49 0 43 33 70 73 75 31 3 53-19 69-41 10-13 13-29 11-45z"/><path fill="#4E5369" d="M10784 15565l-6-1 5 3 1-2-6-1 5 3h1c2-3 10-7 23-11 37-11 99-13 120-13v-61c-18 0-59 1-100 7-20 3-40 8-58 16-9 4-18 8-26 15s-15 17-18 29l59 16zM11060 15565c40-8 127-22 163-22v-61c-47 0-132 14-175 23l12 60zM11331 15568c36 6 71 11 101 21l19-58c-37-12-75-18-111-24l-9 61zM11017 15697c12-6 39-14 65-20 26-7 53-12 67-13l-5-61c-20 2-48 7-77 14-28 7-56 15-75 24l25 56zM10755 15789c2-2 13-8 27-15 20-11 47-24 71-35 12-5 24-10 33-13s16-5 16-5l-6-61c-14 2-26 7-42 13-24 9-52 22-77 34-13 7-25 13-35 18-10 6-18 10-24 15l37 49zM10648 15717l-18-2 16 8 2-6-18-2 16 8-5-2 5 3v-1l-5-2 5 3s6-7 15-13c27-20 77-45 87-49l-24-57c-12 6-41 20-69 37-14 8-28 17-40 27-5 4-11 9-16 15-4 6-10 13-12 25l61 8zM10727 15895l-5-2 4 3 1-1-5-2 4 3c1-2 13-13 26-21 12-8 27-16 34-18l-24-57c-12 5-30 15-47 26-8 6-17 12-25 19-7 7-14 14-20 26l57 24zM10945 15897c17-13 45-23 66-28l-13-60c-28 7-62 18-90 39l37 49z"/><path fill="#EB6032" d="M9693 15824c-324 52-572 501-100 777 182 107 394-10 487-100 125-121 62-433 18-488s-218-218-405-189zM12572 15773c-283 166-373 459 2 697 178 113 393-11 488-100 186-177 38-421 17-488-35-117-329-213-507-109z"/><path fill="#9E653D" d="M10505 12227c66 43 121 110 141 172l58-19c-26-79-89-153-165-204l-34 51zM10665 12141c31 30 55 77 94 118l44-44c-31-30-55-77-94-117l-44 43zM10792 12456c44 55 77 120 88 197l61-9c-13-88-51-164-101-226l-48 38zM10919 12300c35 57 68 125 79 189l60-10c-13-77-50-151-86-211l-53 32zM10903 12037c0 21 4 41 12 58 7 18 19 33 32 46l44-43c-10-10-16-19-20-28s-7-19-7-33h-61zM11120 12113c21 31 30 60 30 89h61c0-43-14-84-40-123l-51 34zM11163 12397c11 46 23 105 35 153l59-15c-11-46-23-105-35-153l-59 15zM11115 12754c0 15 3 46 6 79 3 32 6 66 5 74h62c0-15-3-47-6-79s-6-66-6-74h-61zM10721 12989c13 20 32 49 45 69l51-34c-13-20-32-49-45-69l-51 34zM11339 12385c10 43 11 87 11 134h61c0-47 0-97-13-148l-59 14zM11326 12789c0 47 0 92-10 120l58 19c14-43 13-92 14-139h-62zM11514 12448v153h62v-153h-62zM11491 12825v58h61v-58h-61zM11361 12108v94h62v-94h-62zM11573 12084v106h61v-106h-61zM11758 12109c-21 22-35 47-45 73s-16 54-22 84l60 12c6-29 12-54 20-74 7-21 17-37 31-51l-44-44zM11916 12178c-23 59-47 118-70 177l57 23c23-59 46-118 70-177l-57-23zM12613 12392c-42 48-84 95-126 142l46 41c42-47 84-95 126-142l-46-41zM11706 12493c-26 51-39 104-39 167h61c1-55 11-96 32-139l-54-28zM11849 12631c-27 40-50 99-73 145l55 27c24-49 48-107 69-138l-51-34zM11655 12930v118h62v-118h-62zM11597 13259c0 47-1 92-11 134l59 15c13-52 13-102 13-149h-61zM11398 13203c-14 43-13 92-13 139h61c0-47 1-92 11-120l-59-19zM11173 13165v141h62v-141h-62zM11038 13165v141h62v-141h-62zM10904 12813c11 58 23 127 23 194h61c0-74-12-147-24-206l-60 12zM10601 12662c23 47 48 96 85 146l49-37c-33-44-56-89-79-136l-55 27zM10739 13171c13 62 36 134 60 194l57-23c-23-57-46-127-57-183l-60 12zM10454 12462h1c4 3 57 45 72 122l60-12c-21-106-94-158-97-160l-36 50zM10985 13400c0 53 13 102 25 149l59-15c-12-47-22-92-22-134h-62zM11232 13553c0 59 0 116-11 157l60 15c13-52 12-113 13-172h-62zM11432 13560c-12 74-12 146-12 205h62c0-59 0-128 11-195l-61-10zM11635 13575c-25 51-38 100-49 147l59 15c12-47 23-91 45-135l-55-27zM11361 14000v164h62v-164h-62zM11126 13871v117h62v-117h-62zM10678 13705c24 40 41 71 59 101l53-31c-18-30-36-61-59-101l-53 31zM10880 13712c12 59 24 120 49 182l57-23c-22-55-34-112-46-171l-60 12zM10998 14219c12 47 23 92 23 133h61c0-52-13-101-24-148l-60 15zM11209 14282v153h61v-153h-61zM11232 14664v106h62v-106h-62zM11179 14858v106h62v-106h-62zM11077 14558v106h62v-106h-62zM11385 14376v141h61v-141h-61zM11585 14012v94h61v-94h-61zM11778 13684c-18 30-30 50-49 81l53 31 48-80-52-32zM11657 14344c-17 56-36 117-48 166l60 14c11-45 30-106 46-163l-58-17zM11798 14179c-16 57-35 118-47 166l59 15c12-46 30-107 47-163l-59-18zM11433 14708s-9 26-19 57c-5 15-10 32-14 47-4 16-7 30-9 42l62 5c0-5 2-17 6-31 6-21 14-46 20-66 7-19 12-33 12-33l-58-21zM11563 14683s-10 26-19 57c-5 15-10 32-15 47-4 16-7 30-8 42l61 5c1-5 3-17 7-31 5-21 13-46 20-65 6-20 12-34 12-34l-58-21zM11454 15065s-10 26-20 57c-4 16-10 32-14 48-4 15-7 29-8 42l61 4c0-5 3-17 7-31 5-20 13-46 20-65 6-20 11-34 11-34l-57-21zM11332 14972c-3 22-13 78-17 114l61 8c4-34 13-89 17-114l-61-8zM11264 15243c-3 22-12 78-17 114l61 8c4-34 14-90 17-114l-61-8zM11158 15090c4 22 12 78 18 114l60-11c-6-34-13-89-17-114l-61 11zM11036 15252c4 22 12 78 18 114l60-10c-5-34-13-90-17-114l-61 10zM11880 13264c-12 48-24 107-36 153l60 14c12-48 24-106 35-152l-59-15zM12031 13547c-30 39-64 89-93 127l49 37c30-40 64-89 92-127l-48-37zM12189 13547c-30 39-64 89-92 127l49 37c30-40 64-89 92-127l-49-37zM11855 13941c0 29-10 61-20 80l55 28c13-27 26-66 26-108h-61zM12489 12818c-1 1-14 13-27 31-13 19-28 44-29 77h61c0-10 8-27 18-41 5-6 9-12 13-16l4-5 1-1h1l-42-45zM11896 12989c1 29-10 72-30 101l51 34c28-42 40-93 41-135h-62zM12060 12825c0 28-11 72-31 100l52 34c27-42 40-93 40-134h-61zM10456 12754c1 57 27 112 73 143l34-51c-25-16-46-55-45-92h-62zM10462 13112c24 36 60 84 97 122l44-43c-33-33-68-79-90-113l-51 34zM10179 12677c25 37 61 85 98 122l44-43c-33-33-68-79-90-113l-52 34zM10587 13516c12 37 27 67 55 94l43-43c-19-20-28-37-40-70l-58 19zM10693 13927c7 22 18 39 26 53 9 15 17 28 21 41l58-19c-7-22-17-38-26-53s-16-27-21-41l-58 19zM10801 14249c11 23 23 47 35 70l55-27c-12-24-24-47-36-71l-54 28zM10880 14563c0 8 1 13 2 19 6 22 17 52 28 77 10 26 19 47 19 47l56-25s-11-26-23-55c-5-15-11-30-15-43-2-6-4-11-5-15l-1-5v-1l-6 1h6v-1l-6 1h6-61zM10967 14910c21 32 30 59 30 101h61c1-52-14-96-40-135l-51 34zM10148 12952c27 27 60 49 79 78l51-34c-28-42-67-67-87-87l-43 43zM10313 13269c10 10 18 21 27 32 10 12 22 24 39 33l28-55c-6-3-12-8-20-17-8-10-17-22-31-36l-43 43zM10395 13587c9 9 64 63 64 63l21-21 14-28-2-1c-2 0-2-1-12-2v31l25-18-2-3-1-1-17-17-43 44c12 12 17 16 17 16 5 6 13 9 21 9v-30l-11 28c2 1 2 2 11 2v-30l-11 28 11-28-13 27 2 1 11-28-13 27c13 7 29 3 38-9s8-29-3-40l-64-64-43 44zM9657 12819c41 10 72 31 108 55l34-51c-35-24-74-50-127-63l-15 59zM9613 12559c41 10 73 31 108 55l34-51c-35-24-74-50-127-63l-15 59zM9945 13066c38 50 86 98 136 136l37-49c-45-34-90-79-124-124l-49 37zM12118 13380c12-23 48-97 59-120l-55-27c-11 23-48 97-59 120l55 27zM12280 13096c5-13 18-40 32-63 7-11 14-22 20-29l8-9 2-2-27-55c-13 7-21 16-30 27-26 32-52 80-63 112l58 19zM12281 13372c8-12 27-35 47-53 9-9 19-17 27-23l10-6 3-2-12-60c-15 3-25 10-37 18-33 24-70 64-89 92l51 34zM12627 12743c20-27 44-45 62-56 9-6 17-10 22-13l6-2 2-1-21-58c-3 2-68 25-120 93l49 37zM12856 12743c20-27 43-45 61-56 9-6 17-10 23-13l6-2 1-1-20-58c-3 2-69 25-120 93l49 37zM12578 13041c20-27 43-45 61-57 9-6 17-9 23-12l6-3h1l-20-58c-3 1-69 24-120 93l49 37z"/><path fill="#453129" d="M8957 10130c264 424 703 1256 814 2191 18 152 0 338 153 419 215 134 438-49 471-255 116-705-336-1742-921-2299-250-238-559-336-568-199-2 38 31 111 51 143z"/><path fill="#453129" d="M10274 12115c312-241 556-596 528-993-29-369-195-289-270-85-79 215-209 406-465 520l207 558zM9947 11193c237-232 406-553 343-882-60-305-190-222-233-44-45 187-135 360-337 480l227 446zM9966 12240c-389 61-815-5-1084-299-248-274-76-340 123-254 210 90 439 127 697 19l264 534zM9602 11276c-331 12-680-85-876-357-181-254-31-292 128-200 167 96 354 149 581 85l167 472z"/><path fill="#634239" d="M9456 10356c37 37 79 63 107 102l49-37c-37-50-83-78-113-108l-43 43zM9629 10504c6 32 24 55 42 77 17 22 35 43 39 53l55-28c-11-22-30-42-46-63-17-20-29-41-29-48l-61 9zM9534 10532c10 16 26 38 42 60 15 22 29 45 32 55l58-19c-8-24-24-47-40-71-16-23-33-45-39-56l-53 31zM9359 10406c3 1 13 7 24 15 16 11 38 27 57 42 18 14 35 27 38 31l43-43c-6-7-14-14-26-23-17-13-39-30-59-44-10-7-19-14-27-20-9-5-15-9-22-13l-28 55zM9193 10136c37 21 69 42 100 68l39-47c-34-29-69-52-109-75l-30 54zM9822 10742c3 15 9 30 18 49 13 28 31 63 49 93 17 31 33 56 44 70l48-39c-4-4-13-17-23-34-15-25-34-59-49-88-7-15-14-29-19-40s-8-20-8-21l-60 10zM9681 10754s46 71 64 94l49-36c-7-10-23-34-37-54s-25-38-25-38l-51 34zM9982 11103c12 40 29 85 46 124l56-24c-16-37-32-80-43-117l-59 17zM9805 10992c0 1 7 13 14 27 11 21 25 50 38 75 7 13 13 24 18 34s8 16 12 22l51-34c-1-1-7-13-14-27-11-21-26-50-39-75-6-13-12-24-17-34s-9-16-12-22l-51 34zM10070 11358c3 10 7 20 13 32 8 19 20 42 29 63 10 20 18 40 18 44l60-12c-2-12-7-23-12-37-9-20-21-44-30-64-5-10-10-20-13-27-3-8-5-14-5-14l-60 15zM10197 11605l6-2-6 1v1l6-2-6 1c1 2 2 12 3 24 4 36 7 95 7 105h61c0-10-1-40-3-71-1-15-3-31-4-44-1-6-1-12-2-17-1-6-2-10-3-15l-59 19zM9903 11256c3 19 14 47 25 76s22 57 28 71l57-23c-6-14-17-42-28-70s-21-57-22-66l-60 12zM9641 10992c22 28 49 60 63 88l54-27c-19-38-47-72-69-99l-48 38zM9984 10659c23-24 34-54 44-74l-55-27c-11 23-23 49-33 58l44 43zM10041 10526c2-5 10-25 18-43 5-8 9-17 13-24l4-8 2-2-8-6 7 7 1-1-8-6 7 7-43-44c-7 8-11 15-16 23-14 25-30 61-35 78l58 19zM10097 10387l38-132-59-17-38 132zM10095 10751s14-28 28-59c7-15 15-31 21-45 6-15 10-25 13-35l-59-15c0 1-5 12-10 25-9 20-21 45-31 66-10 20-17 35-17 36l55 27zM10161 10560h-22l22 4v-4h-22l22 4-5-1 4 1h1l-5-1 4 1c1-2 4-12 8-23 6-17 14-38 21-56 4-9 7-17 10-22l3-6v-1l-6-3 6 4v-1l-6-3 6 4-21-14 18 18 3-4-21-14 18 18-44-43-6 8c-4 7-8 16-13 27-7 18-16 40-23 59-3 9-6 18-9 25l-3 11c0 3-1 5-2 12h62zM10325 11511c31-19 56-43 75-68l-50-37c-14 20-33 39-57 53l32 52zM10461 11372c4-7 18-25 32-44 14-18 28-36 34-46l-51-34c-4 7-18 25-32 44-14 18-27 36-34 46l51 34zM10557 11229l5-11c14-35 57-140 57-140l-57-23s-14 35-29 70c-7 18-14 36-20 51-3 7-6 13-8 18l-2 6-1 1v1l55 27zM10495 11540c7-12 25-39 43-65s36-52 45-68l-53-31c-7 12-25 39-43 65s-35 52-45 68l53 31z"/><path fill="#453129" d="M13400 10130c-264 424-703 1256-814 2191-18 152 0 338-153 419-215 134-438-49-471-255-115-705 336-1742 921-2299 251-238 560-336 568-199 2 38-31 111-51 143z"/><path fill="#453129" d="M12084 12115c-312-241-557-596-528-993 28-369 194-289 269-85 79 215 210 406 465 520l-206 558zM12410 11193c-237-232-406-553-343-882 60-305 190-222 233-44 45 187 135 360 337 480l-227 446zM12391 12240c390 61 815-5 1084-299 248-274 77-340-123-254-210 90-439 127-697 19l-264 534zM12755 11276c332 12 681-85 876-357 181-254 31-292-128-200-167 96-354 149-580 85l-168 472z"/><path fill="#634239" d="M12873 10259c-26 32-69 65-102 118l52 32c25-41 64-71 97-111l-47-39zM12673 10496s-19 26-40 57c-21 30-44 64-54 84l54 28c7-13 30-48 50-78 21-30 40-56 40-56l-50-35zM12771 10514c-7 11-23 34-40 57-16 24-32 47-40 70l58 20c3-10 17-33 33-55 15-22 32-44 41-60l-52-32zM12966 10312c-8 6-16 14-26 24-15 16-34 37-50 55-16 19-29 35-36 45l51 34c2-3 9-12 17-22 13-15 31-35 47-53 8-9 16-17 22-23s11-11 13-12l-38-48zM13084 10107c-40 23-75 46-109 75l39 47c32-26 63-47 100-69l-30-53zM12475 10746c0 1-5 16-13 33-12 25-30 59-47 88-16 29-33 55-38 62l48 39c7-10 16-24 27-42 16-26 35-60 51-91 8-16 15-31 21-44 5-13 10-23 12-35l-61-10zM12600 10709s-11 20-25 42c-13 22-29 48-35 57l49 36c10-13 25-39 39-62s25-43 25-43l-53-30zM12316 11100c-3 11-15 30-30 50-15 21-32 42-43 67l56 24c6-14 21-33 36-54 16-21 32-43 40-71l-59-16zM12502 10972c-5 7-10 17-18 32-11 22-26 51-38 76-7 12-13 24-18 33-4 9-8 16-9 17l51 34c5-8 10-18 18-33 11-21 26-50 39-75 6-13 12-24 17-34 4-8 8-15 9-16l-51-34zM12200 11303v1c-3 9-17 34-31 58-6 12-13 25-19 37-5 11-10 21-13 33l61 12c0-1 3-10 8-21 8-16 20-37 30-55 5-10 10-19 14-27s8-15 10-24l-60-14zM12101 11544c-12 75-12 185-12 203h62c0-16 0-127 10-194l-60-9zM12346 11258c0 1-3 10-9 20-7 15-19 34-30 53-11 18-21 35-27 49l57 23c1-4 6-13 12-24 10-16 22-36 33-55s20-35 24-54l-60-12zM12656 10845c-16 31-38 70-50 111l60 16c8-30 28-67 44-98l-54-29zM12443 10663c-2-2-7-8-12-16-17-23-40-62-47-76l-55 28c7 13 19 33 32 54 7 11 13 21 20 30 6 9 12 17 19 23l43-43zM12375 10520c-4-11-12-30-22-49-4-10-9-20-14-28-5-9-8-15-16-23l-43 44 7-7-8 6 1 1 7-7-8 6c1 0 4 5 8 12 11 20 27 57 30 65l58-20zM12320 10384l-38-132-59 17 38 132zM12318 10737s-14-27-28-57c-7-15-14-31-20-44s-10-24-10-25l-60 15c3 10 8 20 14 34 18 42 49 104 49 104l55-27zM12258 10574l-1-10c-2-8-5-17-10-30-6-18-15-40-22-59-4-9-8-17-11-24l-4-9-2-4-6-7-43 44 15-15-19 10 4 5 15-15-19 10c1 1 5 10 10 21 6 16 15 38 22 56 3 9 6 17 8 23l2 7v1l19-4h-19v4l19-4h-19 61zM12064 11473c-23-14-42-34-57-53l-49 37c18 24 43 49 75 68l31-52zM11947 11352c-6-10-20-28-34-47-13-18-27-37-32-43l-51 34c7 10 20 28 34 46s28 37 32 44l51-34zM11856 11215c-4-7-19-45-33-79-14-35-27-67-27-67l-57 23s14 34 28 70c8 18 15 36 21 51 3 7 6 14 8 19l5 11 55-28zM11915 11522c-9-15-27-41-45-68-18-26-36-52-43-65l-53 32c10 15 27 41 45 68 18 26 36 53 44 65l52-32z"/><path fill="#FEFEFE" d="M8697 7994c0 47-38 84-84 84s-83-37-83-84c0-46 37-83 83-83s84 37 84 83zM8780 9367c0 46-37 83-83 83s-84-37-84-83 38-83 84-83 83 37 83 83zM7593 8968c0 46-37 84-83 84s-84-38-84-84 38-83 84-83 83 37 83 83zM12490 11750c0 46-38 84-84 84s-83-38-83-84 37-83 83-83 84 37 84 83zM9833 13011c0 47-38 84-84 84s-83-37-83-84c0-46 37-83 83-83s84 37 84 83zM7593 15710c0 46-37 84-83 84s-84-38-84-84 38-83 84-83 83 37 83 83zM8530 19609c0 46-37 84-84 84-46 0-83-38-83-84s37-83 83-83c47 0 84 37 84 83zM8530 16712c0 46-37 83-84 83-46 0-83-37-83-83s37-84 83-84c47 0 84 38 84 84zM12900 18083c-46 5-87-28-92-74s29-87 75-92c46-4 86 29 91 75s-28 87-74 91zM11859 10758c0 46-37 83-83 83s-84-37-84-83 38-83 84-83 83 37 83 83zM7853 10443c0 46-37 83-84 83-46 0-83-37-83-83s37-84 83-84c47 0 84 38 84 84zM7426 13011c0 47-37 84-83 84s-84-37-84-84c0-46 38-83 84-83s83 37 83 83zM8780 14495c0 46-37 83-83 83s-84-37-84-83 38-83 84-83 83 37 83 83zM8233 16268c0 46-37 84-83 84s-84-38-84-84 38-83 84-83 83 37 83 83zM7865 18761c0 46-37 83-83 83s-84-37-84-83 38-83 84-83 83 37 83 83zM10561 8273c0 46-38 83-84 83s-83-37-83-83 37-84 83-84 84 38 84 84zM13417 8968c0 46-37 84-83 84-47 0-84-38-84-84s37-83 84-83c46 0 83 37 83 83zM14975 9052c0 46-37 83-83 83-47 0-84-37-84-83s37-84 84-84c46 0 83 38 83 84zM14502 13888c0 46-37 84-83 84s-84-38-84-84 38-83 84-83 83 37 83 83zM15142 14857c0 46-37 83-84 83-46 0-83-37-83-83s37-83 83-83c47 0 84 37 84 83zM14122 15877c0 46-38 84-84 84s-83-38-83-84 37-83 83-83 84 37 84 83zM15058 19271c0 46-37 84-83 84s-83-38-83-84 37-83 83-83 83 37 83 83zM15058 17203c0 46-37 84-83 84s-83-38-83-84 37-83 83-83 83 37 83 83zM14752 17602c0 46-37 83-83 83s-83-37-83-83 37-83 83-83 83 37 83 83zM11514 10109c0 46-37 83-83 83s-84-37-84-83 38-84 84-84 83 38 83 84zM12573 7911c0 46-37 83-83 83s-84-37-84-83 38-83 84-83 83 37 83 83zM15225 11917c0 46-37 84-83 84s-84-38-84-84 38-83 84-83 83 37 83 83zM11859 19776c0 46-37 84-83 84s-84-38-84-84 38-83 84-83 83 37 83 83zM14669 10443c0 46-37 83-83 83-47 0-84-37-84-83s37-84 84-84c46 0 83 38 83 84z"/></g></svg>