<?xml version="1.0" encoding="UTF-8"?>
<!DOCTYPE svg PUBLIC "-//W3C//DTD SVG 1.1//EN" "http://www.w3.org/Graphics/SVG/1.1/DTD/svg11.dtd">
<!-- Creator: CorelDRAW X7 -->
<svg xmlns="http://www.w3.org/2000/svg" xml:space="preserve" width="1241px" height="985px" version="1.1" shape-rendering="geometricPrecision" text-rendering="geometricPrecision" image-rendering="optimizeQuality" fill-rule="evenodd" clip-rule="evenodd"
viewBox="0 0 1241 986"
 xmlns:xlink="http://www.w3.org/1999/xlink">
 <g id="Слой_x0020_1">
  <metadata id="CorelCorpID_0Corel-Layer"/>
  <g id="_5596928016">
   <polygon fill="#4A4644" fill-rule="nonzero" points="14,971 1228,971 1228,15 14,15 "/>
   <path fill="#FEFEFE" fill-rule="nonzero" d="M131 877l979 0 0 -768 -979 0 0 768zm998 18l-1016 0 0 -804 1016 0 0 804z"/>
   <path fill="#797574" fill-rule="nonzero" d="M113 91l-113 0 0 -53c0,-21 17,-38 38,-38l75 0 0 91z"/>
   <path fill="#797574" fill-rule="nonzero" d="M1129 91l112 0 0 -53c0,-21 -16,-38 -37,-38l-75 0 0 91z"/>
   <path fill="#797574" fill-rule="nonzero" d="M1129 895l112 0 0 53c0,21 -16,38 -37,38l-75 0 0 -91z"/>
   <path fill="#797574" fill-rule="nonzero" d="M113 895l-113 0 0 53c0,21 17,38 38,38l75 0 0 -91z"/>
   <polygon fill="#F7B52A" fill-rule="nonzero" points="131,305 1110,305 1110,109 131,109 "/>
   <path fill="#FEFEFE" fill-rule="nonzero" d="M730 358c0,10 -9,18 -19,18l-181 0c-10,0 -18,-8 -18,-18 0,-10 8,-19 18,-19l181 0c10,0 19,9 19,19z"/>
   <path fill="#615E5C" fill-rule="nonzero" d="M214 439c0,12 -9,21 -21,21 -11,0 -20,-9 -20,-21 0,-11 9,-20 20,-20 12,0 21,9 21,20z"/>
   <path fill="#615E5C" fill-rule="nonzero" d="M275 439c0,12 -9,21 -21,21 -11,0 -20,-9 -20,-21 0,-11 9,-20 20,-20 12,0 21,9 21,20z"/>
   <path fill="#615E5C" fill-rule="nonzero" d="M336 439c0,12 -9,21 -21,21 -11,0 -20,-9 -20,-21 0,-11 9,-20 20,-20 12,0 21,9 21,20z"/>
   <path fill="#615E5C" fill-rule="nonzero" d="M397 439c0,12 -9,21 -21,21 -11,0 -20,-9 -20,-21 0,-11 9,-20 20,-20 12,0 21,9 21,20z"/>
   <path fill="#615E5C" fill-rule="nonzero" d="M458 439c0,12 -9,21 -21,21 -11,0 -20,-9 -20,-21 0,-11 9,-20 20,-20 12,0 21,9 21,20z"/>
   <path fill="#615E5C" fill-rule="nonzero" d="M519 439c0,12 -9,21 -20,21 -12,0 -21,-9 -21,-21 0,-11 9,-20 21,-20 11,0 20,9 20,20z"/>
   <path fill="#615E5C" fill-rule="nonzero" d="M580 439c0,12 -9,21 -20,21 -12,0 -21,-9 -21,-21 0,-11 9,-20 21,-20 11,0 20,9 20,20z"/>
   <path fill="#615E5C" fill-rule="nonzero" d="M641 439c0,12 -9,21 -20,21 -12,0 -21,-9 -21,-21 0,-11 9,-20 21,-20 11,0 20,9 20,20z"/>
   <path fill="#615E5C" fill-rule="nonzero" d="M702 439c0,12 -9,21 -20,21 -12,0 -21,-9 -21,-21 0,-11 9,-20 21,-20 11,0 20,9 20,20z"/>
   <path fill="#615E5C" fill-rule="nonzero" d="M763 439c0,12 -9,21 -20,21 -12,0 -21,-9 -21,-21 0,-11 9,-20 21,-20 11,0 20,9 20,20z"/>
   <path fill="#615E5C" fill-rule="nonzero" d="M825 439c0,12 -10,21 -21,21 -11,0 -21,-9 -21,-21 0,-11 10,-20 21,-20 11,0 21,9 21,20z"/>
   <path fill="#615E5C" fill-rule="nonzero" d="M886 439c0,12 -10,21 -21,21 -11,0 -21,-9 -21,-21 0,-11 10,-20 21,-20 11,0 21,9 21,20z"/>
   <path fill="#615E5C" fill-rule="nonzero" d="M947 439c0,12 -10,21 -21,21 -11,0 -21,-9 -21,-21 0,-11 10,-20 21,-20 11,0 21,9 21,20z"/>
   <path fill="#615E5C" fill-rule="nonzero" d="M1008 439c0,12 -9,21 -21,21 -11,0 -20,-9 -20,-21 0,-11 9,-20 20,-20 12,0 21,9 21,20z"/>
   <path fill="#615E5C" fill-rule="nonzero" d="M1069 439c0,12 -9,21 -21,21 -11,0 -20,-9 -20,-21 0,-11 9,-20 20,-20 12,0 21,9 21,20z"/>
   <path fill="#615E5C" fill-rule="nonzero" d="M214 493c0,11 -9,20 -21,20 -11,0 -20,-9 -20,-20 0,-12 9,-21 20,-21 12,0 21,9 21,21z"/>
   <path fill="#615E5C" fill-rule="nonzero" d="M275 493c0,11 -9,20 -21,20 -11,0 -20,-9 -20,-20 0,-12 9,-21 20,-21 12,0 21,9 21,21z"/>
   <path fill="#615E5C" fill-rule="nonzero" d="M336 493c0,11 -9,20 -21,20 -11,0 -20,-9 -20,-20 0,-12 9,-21 20,-21 12,0 21,9 21,21z"/>
   <path fill="#615E5C" fill-rule="nonzero" d="M397 493c0,11 -9,20 -21,20 -11,0 -20,-9 -20,-20 0,-12 9,-21 20,-21 12,0 21,9 21,21z"/>
   <path fill="#615E5C" fill-rule="nonzero" d="M458 493c0,11 -9,20 -21,20 -11,0 -20,-9 -20,-20 0,-12 9,-21 20,-21 12,0 21,9 21,21z"/>
   <path fill="#615E5C" fill-rule="nonzero" d="M519 493c0,11 -9,20 -20,20 -12,0 -21,-9 -21,-20 0,-12 9,-21 21,-21 11,0 20,9 20,21z"/>
   <path fill="#615E5C" fill-rule="nonzero" d="M580 493c0,11 -9,20 -20,20 -12,0 -21,-9 -21,-20 0,-12 9,-21 21,-21 11,0 20,9 20,21z"/>
   <path fill="#615E5C" fill-rule="nonzero" d="M641 493c0,11 -9,20 -20,20 -12,0 -21,-9 -21,-20 0,-12 9,-21 21,-21 11,0 20,9 20,21z"/>
   <path fill="#615E5C" fill-rule="nonzero" d="M702 493c0,11 -9,20 -20,20 -12,0 -21,-9 -21,-20 0,-12 9,-21 21,-21 11,0 20,9 20,21z"/>
   <path fill="#615E5C" fill-rule="nonzero" d="M763 493c0,11 -9,20 -20,20 -12,0 -21,-9 -21,-20 0,-12 9,-21 21,-21 11,0 20,9 20,21z"/>
   <path fill="#615E5C" fill-rule="nonzero" d="M825 493c0,11 -10,20 -21,20 -11,0 -21,-9 -21,-20 0,-12 10,-21 21,-21 11,0 21,9 21,21z"/>
   <path fill="#615E5C" fill-rule="nonzero" d="M886 493c0,11 -10,20 -21,20 -11,0 -21,-9 -21,-20 0,-12 10,-21 21,-21 11,0 21,9 21,21z"/>
   <path fill="#615E5C" fill-rule="nonzero" d="M947 493c0,11 -10,20 -21,20 -11,0 -21,-9 -21,-20 0,-12 10,-21 21,-21 11,0 21,9 21,21z"/>
   <path fill="#615E5C" fill-rule="nonzero" d="M1008 493c0,11 -9,20 -21,20 -11,0 -20,-9 -20,-20 0,-12 9,-21 20,-21 12,0 21,9 21,21z"/>
   <path fill="#615E5C" fill-rule="nonzero" d="M1069 493c0,11 -9,20 -21,20 -11,0 -20,-9 -20,-20 0,-12 9,-21 20,-21 12,0 21,9 21,21z"/>
   <path fill="#615E5C" fill-rule="nonzero" d="M214 546c0,12 -9,21 -21,21 -11,0 -20,-9 -20,-21 0,-11 9,-20 20,-20 12,0 21,9 21,20z"/>
   <path fill="#615E5C" fill-rule="nonzero" d="M275 546c0,12 -9,21 -21,21 -11,0 -20,-9 -20,-21 0,-11 9,-20 20,-20 12,0 21,9 21,20z"/>
   <path fill="#615E5C" fill-rule="nonzero" d="M336 546c0,12 -9,21 -21,21 -11,0 -20,-9 -20,-21 0,-11 9,-20 20,-20 12,0 21,9 21,20z"/>
   <path fill="#615E5C" fill-rule="nonzero" d="M397 546c0,12 -9,21 -21,21 -11,0 -20,-9 -20,-21 0,-11 9,-20 20,-20 12,0 21,9 21,20z"/>
   <path fill="#615E5C" fill-rule="nonzero" d="M458 546c0,12 -9,21 -21,21 -11,0 -20,-9 -20,-21 0,-11 9,-20 20,-20 12,0 21,9 21,20z"/>
   <path fill="#615E5C" fill-rule="nonzero" d="M519 546c0,12 -9,21 -20,21 -12,0 -21,-9 -21,-21 0,-11 9,-20 21,-20 11,0 20,9 20,20z"/>
   <path fill="#615E5C" fill-rule="nonzero" d="M580 546c0,12 -9,21 -20,21 -12,0 -21,-9 -21,-21 0,-11 9,-20 21,-20 11,0 20,9 20,20z"/>
   <path fill="#615E5C" fill-rule="nonzero" d="M641 546c0,12 -9,21 -20,21 -12,0 -21,-9 -21,-21 0,-11 9,-20 21,-20 11,0 20,9 20,20z"/>
   <path fill="#615E5C" fill-rule="nonzero" d="M702 546c0,12 -9,21 -20,21 -12,0 -21,-9 -21,-21 0,-11 9,-20 21,-20 11,0 20,9 20,20z"/>
   <path fill="#615E5C" fill-rule="nonzero" d="M763 546c0,12 -9,21 -20,21 -12,0 -21,-9 -21,-21 0,-11 9,-20 21,-20 11,0 20,9 20,20z"/>
   <path fill="#615E5C" fill-rule="nonzero" d="M825 546c0,12 -10,21 -21,21 -11,0 -21,-9 -21,-21 0,-11 10,-20 21,-20 11,0 21,9 21,20z"/>
   <path fill="#615E5C" fill-rule="nonzero" d="M886 546c0,12 -10,21 -21,21 -11,0 -21,-9 -21,-21 0,-11 10,-20 21,-20 11,0 21,9 21,20z"/>
   <path fill="#615E5C" fill-rule="nonzero" d="M947 546c0,12 -10,21 -21,21 -11,0 -21,-9 -21,-21 0,-11 10,-20 21,-20 11,0 21,9 21,20z"/>
   <path fill="#615E5C" fill-rule="nonzero" d="M1008 546c0,12 -9,21 -21,21 -11,0 -20,-9 -20,-21 0,-11 9,-20 20,-20 12,0 21,9 21,20z"/>
   <path fill="#615E5C" fill-rule="nonzero" d="M1069 546c0,12 -9,21 -21,21 -11,0 -20,-9 -20,-21 0,-11 9,-20 20,-20 12,0 21,9 21,20z"/>
   <path fill="#615E5C" fill-rule="nonzero" d="M214 600c0,11 -9,20 -21,20 -11,0 -20,-9 -20,-20 0,-12 9,-21 20,-21 12,0 21,9 21,21z"/>
   <path fill="#615E5C" fill-rule="nonzero" d="M275 600c0,11 -9,20 -21,20 -11,0 -20,-9 -20,-20 0,-12 9,-21 20,-21 12,0 21,9 21,21z"/>
   <path fill="#615E5C" fill-rule="nonzero" d="M336 600c0,11 -9,20 -21,20 -11,0 -20,-9 -20,-20 0,-12 9,-21 20,-21 12,0 21,9 21,21z"/>
   <path fill="#615E5C" fill-rule="nonzero" d="M397 600c0,11 -9,20 -21,20 -11,0 -20,-9 -20,-20 0,-12 9,-21 20,-21 12,0 21,9 21,21z"/>
   <path fill="#615E5C" fill-rule="nonzero" d="M458 600c0,11 -9,20 -21,20 -11,0 -20,-9 -20,-20 0,-12 9,-21 20,-21 12,0 21,9 21,21z"/>
   <path fill="#615E5C" fill-rule="nonzero" d="M519 600c0,11 -9,20 -20,20 -12,0 -21,-9 -21,-20 0,-12 9,-21 21,-21 11,0 20,9 20,21z"/>
   <path fill="#615E5C" fill-rule="nonzero" d="M580 600c0,11 -9,20 -20,20 -12,0 -21,-9 -21,-20 0,-12 9,-21 21,-21 11,0 20,9 20,21z"/>
   <path fill="#615E5C" fill-rule="nonzero" d="M641 600c0,11 -9,20 -20,20 -12,0 -21,-9 -21,-20 0,-12 9,-21 21,-21 11,0 20,9 20,21z"/>
   <path fill="#615E5C" fill-rule="nonzero" d="M702 600c0,11 -9,20 -20,20 -12,0 -21,-9 -21,-20 0,-12 9,-21 21,-21 11,0 20,9 20,21z"/>
   <path fill="#615E5C" fill-rule="nonzero" d="M763 600c0,11 -9,20 -20,20 -12,0 -21,-9 -21,-20 0,-12 9,-21 21,-21 11,0 20,9 20,21z"/>
   <path fill="#615E5C" fill-rule="nonzero" d="M825 600c0,11 -10,20 -21,20 -11,0 -21,-9 -21,-20 0,-12 10,-21 21,-21 11,0 21,9 21,21z"/>
   <path fill="#615E5C" fill-rule="nonzero" d="M886 600c0,11 -10,20 -21,20 -11,0 -21,-9 -21,-20 0,-12 10,-21 21,-21 11,0 21,9 21,21z"/>
   <path fill="#615E5C" fill-rule="nonzero" d="M947 600c0,11 -10,20 -21,20 -11,0 -21,-9 -21,-20 0,-12 10,-21 21,-21 11,0 21,9 21,21z"/>
   <path fill="#615E5C" fill-rule="nonzero" d="M1008 600c0,11 -9,20 -21,20 -11,0 -20,-9 -20,-20 0,-12 9,-21 20,-21 12,0 21,9 21,21z"/>
   <path fill="#615E5C" fill-rule="nonzero" d="M1069 600c0,11 -9,20 -21,20 -11,0 -20,-9 -20,-20 0,-12 9,-21 20,-21 12,0 21,9 21,21z"/>
   <path fill="#615E5C" fill-rule="nonzero" d="M214 653c0,11 -9,21 -21,21 -11,0 -20,-10 -20,-21 0,-11 9,-21 20,-21 12,0 21,10 21,21z"/>
   <path fill="#615E5C" fill-rule="nonzero" d="M275 653c0,11 -9,21 -21,21 -11,0 -20,-10 -20,-21 0,-11 9,-21 20,-21 12,0 21,10 21,21z"/>
   <path fill="#615E5C" fill-rule="nonzero" d="M336 653c0,11 -9,21 -21,21 -11,0 -20,-10 -20,-21 0,-11 9,-21 20,-21 12,0 21,10 21,21z"/>
   <path fill="#615E5C" fill-rule="nonzero" d="M397 653c0,11 -9,21 -21,21 -11,0 -20,-10 -20,-21 0,-11 9,-21 20,-21 12,0 21,10 21,21z"/>
   <path fill="#615E5C" fill-rule="nonzero" d="M458 653c0,11 -9,21 -21,21 -11,0 -20,-10 -20,-21 0,-11 9,-21 20,-21 12,0 21,10 21,21z"/>
   <path fill="#615E5C" fill-rule="nonzero" d="M519 653c0,11 -9,21 -20,21 -12,0 -21,-10 -21,-21 0,-11 9,-21 21,-21 11,0 20,10 20,21z"/>
   <path fill="#615E5C" fill-rule="nonzero" d="M580 653c0,11 -9,21 -20,21 -12,0 -21,-10 -21,-21 0,-11 9,-21 21,-21 11,0 20,10 20,21z"/>
   <path fill="#615E5C" fill-rule="nonzero" d="M641 653c0,11 -9,21 -20,21 -12,0 -21,-10 -21,-21 0,-11 9,-21 21,-21 11,0 20,10 20,21z"/>
   <path fill="#615E5C" fill-rule="nonzero" d="M702 653c0,11 -9,21 -20,21 -12,0 -21,-10 -21,-21 0,-11 9,-21 21,-21 11,0 20,10 20,21z"/>
   <path fill="#615E5C" fill-rule="nonzero" d="M763 653c0,11 -9,21 -20,21 -12,0 -21,-10 -21,-21 0,-11 9,-21 21,-21 11,0 20,10 20,21z"/>
   <path fill="#615E5C" fill-rule="nonzero" d="M825 653c0,11 -10,21 -21,21 -11,0 -21,-10 -21,-21 0,-11 10,-21 21,-21 11,0 21,10 21,21z"/>
   <path fill="#615E5C" fill-rule="nonzero" d="M886 653c0,11 -10,21 -21,21 -11,0 -21,-10 -21,-21 0,-11 10,-21 21,-21 11,0 21,10 21,21z"/>
   <path fill="#615E5C" fill-rule="nonzero" d="M947 653c0,11 -10,21 -21,21 -11,0 -21,-10 -21,-21 0,-11 10,-21 21,-21 11,0 21,10 21,21z"/>
   <path fill="#615E5C" fill-rule="nonzero" d="M1008 653c0,11 -9,21 -21,21 -11,0 -20,-10 -20,-21 0,-11 9,-21 20,-21 12,0 21,10 21,21z"/>
   <path fill="#615E5C" fill-rule="nonzero" d="M1069 653c0,11 -9,21 -21,21 -11,0 -20,-10 -20,-21 0,-11 9,-21 20,-21 12,0 21,10 21,21z"/>
   <path fill="#615E5C" fill-rule="nonzero" d="M214 706c0,12 -9,21 -21,21 -11,0 -20,-9 -20,-21 0,-11 9,-20 20,-20 12,0 21,9 21,20z"/>
   <path fill="#615E5C" fill-rule="nonzero" d="M275 706c0,12 -9,21 -21,21 -11,0 -20,-9 -20,-21 0,-11 9,-20 20,-20 12,0 21,9 21,20z"/>
   <path fill="#615E5C" fill-rule="nonzero" d="M336 706c0,12 -9,21 -21,21 -11,0 -20,-9 -20,-21 0,-11 9,-20 20,-20 12,0 21,9 21,20z"/>
   <path fill="#615E5C" fill-rule="nonzero" d="M397 706c0,12 -9,21 -21,21 -11,0 -20,-9 -20,-21 0,-11 9,-20 20,-20 12,0 21,9 21,20z"/>
   <path fill="#615E5C" fill-rule="nonzero" d="M458 706c0,12 -9,21 -21,21 -11,0 -20,-9 -20,-21 0,-11 9,-20 20,-20 12,0 21,9 21,20z"/>
   <path fill="#615E5C" fill-rule="nonzero" d="M519 706c0,12 -9,21 -20,21 -12,0 -21,-9 -21,-21 0,-11 9,-20 21,-20 11,0 20,9 20,20z"/>
   <path fill="#615E5C" fill-rule="nonzero" d="M580 706c0,12 -9,21 -20,21 -12,0 -21,-9 -21,-21 0,-11 9,-20 21,-20 11,0 20,9 20,20z"/>
   <path fill="#615E5C" fill-rule="nonzero" d="M641 706c0,12 -9,21 -20,21 -12,0 -21,-9 -21,-21 0,-11 9,-20 21,-20 11,0 20,9 20,20z"/>
   <path fill="#615E5C" fill-rule="nonzero" d="M702 706c0,12 -9,21 -20,21 -12,0 -21,-9 -21,-21 0,-11 9,-20 21,-20 11,0 20,9 20,20z"/>
   <path fill="#615E5C" fill-rule="nonzero" d="M763 706c0,12 -9,21 -20,21 -12,0 -21,-9 -21,-21 0,-11 9,-20 21,-20 11,0 20,9 20,20z"/>
   <path fill="#615E5C" fill-rule="nonzero" d="M825 706c0,12 -10,21 -21,21 -11,0 -21,-9 -21,-21 0,-11 10,-20 21,-20 11,0 21,9 21,20z"/>
   <path fill="#615E5C" fill-rule="nonzero" d="M886 706c0,12 -10,21 -21,21 -11,0 -21,-9 -21,-21 0,-11 10,-20 21,-20 11,0 21,9 21,20z"/>
   <path fill="#615E5C" fill-rule="nonzero" d="M947 706c0,12 -10,21 -21,21 -11,0 -21,-9 -21,-21 0,-11 10,-20 21,-20 11,0 21,9 21,20z"/>
   <path fill="#615E5C" fill-rule="nonzero" d="M1008 706c0,12 -9,21 -21,21 -11,0 -20,-9 -20,-21 0,-11 9,-20 20,-20 12,0 21,9 21,20z"/>
   <path fill="#615E5C" fill-rule="nonzero" d="M1069 706c0,12 -9,21 -21,21 -11,0 -20,-9 -20,-21 0,-11 9,-20 20,-20 12,0 21,9 21,20z"/>
   <path fill="#615E5C" fill-rule="nonzero" d="M214 760c0,11 -9,20 -21,20 -11,0 -20,-9 -20,-20 0,-12 9,-21 20,-21 12,0 21,9 21,21z"/>
   <path fill="#615E5C" fill-rule="nonzero" d="M275 760c0,11 -9,20 -21,20 -11,0 -20,-9 -20,-20 0,-12 9,-21 20,-21 12,0 21,9 21,21z"/>
   <path fill="#615E5C" fill-rule="nonzero" d="M336 760c0,11 -9,20 -21,20 -11,0 -20,-9 -20,-20 0,-12 9,-21 20,-21 12,0 21,9 21,21z"/>
   <path fill="#615E5C" fill-rule="nonzero" d="M397 760c0,11 -9,20 -21,20 -11,0 -20,-9 -20,-20 0,-12 9,-21 20,-21 12,0 21,9 21,21z"/>
   <path fill="#615E5C" fill-rule="nonzero" d="M458 760c0,11 -9,20 -21,20 -11,0 -20,-9 -20,-20 0,-12 9,-21 20,-21 12,0 21,9 21,21z"/>
   <path fill="#615E5C" fill-rule="nonzero" d="M519 760c0,11 -9,20 -20,20 -12,0 -21,-9 -21,-20 0,-12 9,-21 21,-21 11,0 20,9 20,21z"/>
   <path fill="#615E5C" fill-rule="nonzero" d="M580 760c0,11 -9,20 -20,20 -12,0 -21,-9 -21,-20 0,-12 9,-21 21,-21 11,0 20,9 20,21z"/>
   <path fill="#615E5C" fill-rule="nonzero" d="M641 760c0,11 -9,20 -20,20 -12,0 -21,-9 -21,-20 0,-12 9,-21 21,-21 11,0 20,9 20,21z"/>
   <path fill="#615E5C" fill-rule="nonzero" d="M702 760c0,11 -9,20 -20,20 -12,0 -21,-9 -21,-20 0,-12 9,-21 21,-21 11,0 20,9 20,21z"/>
   <path fill="#615E5C" fill-rule="nonzero" d="M763 760c0,11 -9,20 -20,20 -12,0 -21,-9 -21,-20 0,-12 9,-21 21,-21 11,0 20,9 20,21z"/>
   <path fill="#615E5C" fill-rule="nonzero" d="M825 760c0,11 -10,20 -21,20 -11,0 -21,-9 -21,-20 0,-12 10,-21 21,-21 11,0 21,9 21,21z"/>
   <path fill="#615E5C" fill-rule="nonzero" d="M886 760c0,11 -10,20 -21,20 -11,0 -21,-9 -21,-20 0,-12 10,-21 21,-21 11,0 21,9 21,21z"/>
   <path fill="#615E5C" fill-rule="nonzero" d="M947 760c0,11 -10,20 -21,20 -11,0 -21,-9 -21,-20 0,-12 10,-21 21,-21 11,0 21,9 21,21z"/>
   <path fill="#615E5C" fill-rule="nonzero" d="M1008 760c0,11 -9,20 -21,20 -11,0 -20,-9 -20,-20 0,-12 9,-21 20,-21 12,0 21,9 21,21z"/>
   <path fill="#615E5C" fill-rule="nonzero" d="M1069 760c0,11 -9,20 -21,20 -11,0 -20,-9 -20,-20 0,-12 9,-21 20,-21 12,0 21,9 21,21z"/>
   <path fill="#615E5C" fill-rule="nonzero" d="M214 813c0,12 -9,21 -21,21 -11,0 -20,-9 -20,-21 0,-11 9,-21 20,-21 12,0 21,10 21,21z"/>
   <path fill="#615E5C" fill-rule="nonzero" d="M275 813c0,12 -9,21 -21,21 -11,0 -20,-9 -20,-21 0,-11 9,-21 20,-21 12,0 21,10 21,21z"/>
   <path fill="#615E5C" fill-rule="nonzero" d="M336 813c0,12 -9,21 -21,21 -11,0 -20,-9 -20,-21 0,-11 9,-21 20,-21 12,0 21,10 21,21z"/>
   <path fill="#615E5C" fill-rule="nonzero" d="M397 813c0,12 -9,21 -21,21 -11,0 -20,-9 -20,-21 0,-11 9,-21 20,-21 12,0 21,10 21,21z"/>
   <path fill="#615E5C" fill-rule="nonzero" d="M458 813c0,12 -9,21 -21,21 -11,0 -20,-9 -20,-21 0,-11 9,-21 20,-21 12,0 21,10 21,21z"/>
   <path fill="#615E5C" fill-rule="nonzero" d="M519 813c0,12 -9,21 -20,21 -12,0 -21,-9 -21,-21 0,-11 9,-21 21,-21 11,0 20,10 20,21z"/>
   <path fill="#615E5C" fill-rule="nonzero" d="M580 813c0,12 -9,21 -20,21 -12,0 -21,-9 -21,-21 0,-11 9,-21 21,-21 11,0 20,10 20,21z"/>
   <path fill="#615E5C" fill-rule="nonzero" d="M641 813c0,12 -9,21 -20,21 -12,0 -21,-9 -21,-21 0,-11 9,-21 21,-21 11,0 20,10 20,21z"/>
   <path fill="#615E5C" fill-rule="nonzero" d="M702 813c0,12 -9,21 -20,21 -12,0 -21,-9 -21,-21 0,-11 9,-21 21,-21 11,0 20,10 20,21z"/>
   <path fill="#615E5C" fill-rule="nonzero" d="M763 813c0,12 -9,21 -20,21 -12,0 -21,-9 -21,-21 0,-11 9,-21 21,-21 11,0 20,10 20,21z"/>
   <path fill="#615E5C" fill-rule="nonzero" d="M825 813c0,12 -10,21 -21,21 -11,0 -21,-9 -21,-21 0,-11 10,-21 21,-21 11,0 21,10 21,21z"/>
   <path fill="#615E5C" fill-rule="nonzero" d="M886 813c0,12 -10,21 -21,21 -11,0 -21,-9 -21,-21 0,-11 10,-21 21,-21 11,0 21,10 21,21z"/>
   <path fill="#615E5C" fill-rule="nonzero" d="M947 813c0,12 -10,21 -21,21 -11,0 -21,-9 -21,-21 0,-11 10,-21 21,-21 11,0 21,10 21,21z"/>
   <path fill="#615E5C" fill-rule="nonzero" d="M1008 813c0,12 -9,21 -21,21 -11,0 -20,-9 -20,-21 0,-11 9,-21 20,-21 12,0 21,10 21,21z"/>
   <path fill="#615E5C" fill-rule="nonzero" d="M1069 813c0,12 -9,21 -21,21 -11,0 -20,-9 -20,-21 0,-11 9,-21 20,-21 12,0 21,10 21,21z"/>
   <path fill="#363431" fill-rule="nonzero" d="M608 829c-12,0 -23,-1 -34,-1 4,-4 6,-9 6,-15 0,-11 -9,-21 -20,-21 -12,0 -21,10 -21,21 0,5 2,9 4,12 -9,0 -17,-1 -26,-3 1,-2 2,-6 2,-9 0,-11 -9,-21 -20,-21 -12,0 -21,10 -21,21 0,1 0,2 0,3 -7,-1 -13,-2 -20,-4 0,-11 -9,-20 -21,-20 -7,0 -14,5 -17,11 -32,-9 -61,-21 -87,-33 2,-3 3,-7 3,-10 0,-12 -9,-21 -21,-21 -7,0 -14,4 -17,10 -12,-8 -23,-17 -32,-26 5,-3 9,-10 9,-17 0,-11 -9,-20 -21,-20 -6,0 -11,2 -14,6 -12,-18 -18,-37 -18,-57 0,-24 9,-48 26,-69 2,0 4,1 6,1 12,0 21,-9 21,-21 0,-2 -1,-4 -1,-7 11,-9 23,-18 37,-26 1,0 3,0 4,0 9,0 17,-5 20,-13 7,-4 14,-7 21,-10 0,1 0,2 0,3 0,11 9,20 20,20 12,0 21,-9 21,-20 0,-7 -3,-12 -7,-16 28,-10 59,-18 93,-24 4,4 9,7 16,7 8,0 15,-5 19,-13 7,0 14,-1 22,-2 2,9 10,15 20,15 10,0 19,-8 20,-18 7,0 13,-1 20,-1 1,11 10,19 21,19 11,0 19,-8 20,-19 7,0 14,1 20,1 2,10 10,18 21,18 9,0 17,-6 20,-15 7,1 15,2 22,2 3,8 10,13 19,13 6,0 12,-3 16,-7 33,6 64,14 93,24 -5,4 -8,9 -8,16 0,11 10,20 21,20 11,0 21,-9 21,-20 0,-1 0,-2 -1,-3 8,3 15,6 22,10 3,8 10,13 19,13 2,0 3,0 5,0 13,8 26,17 37,26 -1,3 -1,5 -1,7 0,12 9,21 20,21 2,0 4,-1 6,-1 17,21 26,45 26,69 0,20 -6,39 -17,57 -4,-4 -9,-6 -15,-6 -11,0 -20,9 -20,20 0,7 3,14 9,17 -10,9 -20,18 -32,26 -4,-6 -11,-10 -18,-10 -11,0 -21,9 -21,21 0,3 1,7 3,10 -25,12 -54,24 -86,33 -4,-6 -10,-11 -18,-11 -11,0 -20,9 -21,20 -6,2 -13,3 -20,4 0,-1 0,-2 0,-3 0,-11 -9,-21 -20,-21 -12,0 -21,10 -21,21 0,3 1,7 2,9 -8,2 -17,3 -26,3 3,-3 4,-7 4,-12 0,-11 -9,-21 -20,-21 -12,0 -21,10 -21,21 0,6 3,11 6,15 -11,0 -22,1 -33,1 4,-4 7,-9 7,-16 0,-11 -9,-21 -20,-21 -12,0 -21,10 -21,21 0,7 3,12 8,16zm257 -90c-11,0 -21,9 -21,21 0,11 10,20 21,20 11,0 21,-9 21,-20 0,-12 -10,-21 -21,-21zm-61 0c-11,0 -21,9 -21,21 0,11 10,20 21,20 11,0 21,-9 21,-20 0,-12 -10,-21 -21,-21zm-61 0c-12,0 -21,9 -21,21 0,11 9,20 21,20 11,0 20,-9 20,-20 0,-12 -9,-21 -20,-21zm-61 0c-12,0 -21,9 -21,21 0,11 9,20 21,20 11,0 20,-9 20,-20 0,-12 -9,-21 -20,-21zm-61 0c-12,0 -21,9 -21,21 0,11 9,20 21,20 11,0 20,-9 20,-20 0,-12 -9,-21 -20,-21zm-61 0c-12,0 -21,9 -21,21 0,11 9,20 21,20 11,0 20,-9 20,-20 0,-12 -9,-21 -20,-21zm-61 0c-12,0 -21,9 -21,21 0,11 9,20 21,20 11,0 20,-9 20,-20 0,-12 -9,-21 -20,-21zm-62 0c-11,0 -20,9 -20,21 0,11 9,20 20,20 12,0 21,-9 21,-20 0,-12 -9,-21 -21,-21zm-61 0c-11,0 -20,9 -20,21 0,11 9,20 20,20 12,0 21,-9 21,-20 0,-12 -9,-21 -21,-21zm550 -53c-11,0 -21,9 -21,20 0,12 10,21 21,21 11,0 21,-9 21,-21 0,-11 -10,-20 -21,-20zm-61 0c-11,0 -21,9 -21,20 0,12 10,21 21,21 11,0 21,-9 21,-21 0,-11 -10,-20 -21,-20zm-61 0c-11,0 -21,9 -21,20 0,12 10,21 21,21 11,0 21,-9 21,-21 0,-11 -10,-20 -21,-20zm-61 0c-12,0 -21,9 -21,20 0,12 9,21 21,21 11,0 20,-9 20,-21 0,-11 -9,-20 -20,-20zm-61 0c-12,0 -21,9 -21,20 0,12 9,21 21,21 11,0 20,-9 20,-21 0,-11 -9,-20 -20,-20zm-61 0c-12,0 -21,9 -21,20 0,12 9,21 21,21 11,0 20,-9 20,-21 0,-11 -9,-20 -20,-20zm-61 0c-12,0 -21,9 -21,20 0,12 9,21 21,21 11,0 20,-9 20,-21 0,-11 -9,-20 -20,-20zm-61 0c-12,0 -21,9 -21,20 0,12 9,21 21,21 11,0 20,-9 20,-21 0,-11 -9,-20 -20,-20zm-62 0c-11,0 -20,9 -20,20 0,12 9,21 20,21 12,0 21,-9 21,-21 0,-11 -9,-20 -21,-20zm-61 0c-11,0 -20,9 -20,20 0,12 9,21 20,21 12,0 21,-9 21,-21 0,-11 -9,-20 -21,-20zm-61 0c-11,0 -20,9 -20,20 0,12 9,21 20,21 12,0 21,-9 21,-21 0,-11 -9,-20 -21,-20zm672 -54c-11,0 -20,10 -20,21 0,11 9,21 20,21 12,0 21,-10 21,-21 0,-11 -9,-21 -21,-21zm-61 0c-11,0 -21,10 -21,21 0,11 10,21 21,21 11,0 21,-10 21,-21 0,-11 -10,-21 -21,-21zm-61 0c-11,0 -21,10 -21,21 0,11 10,21 21,21 11,0 21,-10 21,-21 0,-11 -10,-21 -21,-21zm-61 0c-11,0 -21,10 -21,21 0,11 10,21 21,21 11,0 21,-10 21,-21 0,-11 -10,-21 -21,-21zm-61 0c-12,0 -21,10 -21,21 0,11 9,21 21,21 11,0 20,-10 20,-21 0,-11 -9,-21 -20,-21zm-61 0c-12,0 -21,10 -21,21 0,11 9,21 21,21 11,0 20,-10 20,-21 0,-11 -9,-21 -20,-21zm-61 0c-12,0 -21,10 -21,21 0,11 9,21 21,21 11,0 20,-10 20,-21 0,-11 -9,-21 -20,-21zm-61 0c-12,0 -21,10 -21,21 0,11 9,21 21,21 11,0 20,-10 20,-21 0,-11 -9,-21 -20,-21zm-61 0c-12,0 -21,10 -21,21 0,11 9,21 21,21 11,0 20,-10 20,-21 0,-11 -9,-21 -20,-21zm-62 0c-11,0 -20,10 -20,21 0,11 9,21 20,21 12,0 21,-10 21,-21 0,-11 -9,-21 -21,-21zm-61 0c-11,0 -20,10 -20,21 0,11 9,21 20,21 12,0 21,-10 21,-21 0,-11 -9,-21 -21,-21zm-61 0c-11,0 -20,10 -20,21 0,11 9,21 20,21 12,0 21,-10 21,-21 0,-11 -9,-21 -21,-21zm-61 0c-11,0 -20,10 -20,21 0,11 9,21 20,21 12,0 21,-10 21,-21 0,-11 -9,-21 -21,-21zm733 -53c-11,0 -20,9 -20,21 0,11 9,20 20,20 12,0 21,-9 21,-20 0,-12 -9,-21 -21,-21zm-61 0c-11,0 -21,9 -21,21 0,11 10,20 21,20 11,0 21,-9 21,-20 0,-12 -10,-21 -21,-21zm-61 0c-11,0 -21,9 -21,21 0,11 10,20 21,20 11,0 21,-9 21,-20 0,-12 -10,-21 -21,-21zm-61 0c-11,0 -21,9 -21,21 0,11 10,20 21,20 11,0 21,-9 21,-20 0,-12 -10,-21 -21,-21zm-61 0c-12,0 -21,9 -21,21 0,11 9,20 21,20 11,0 20,-9 20,-20 0,-12 -9,-21 -20,-21zm-61 0c-12,0 -21,9 -21,21 0,11 9,20 21,20 11,0 20,-9 20,-20 0,-12 -9,-21 -20,-21zm-61 0c-12,0 -21,9 -21,21 0,11 9,20 21,20 11,0 20,-9 20,-20 0,-12 -9,-21 -20,-21zm-61 0c-12,0 -21,9 -21,21 0,11 9,20 21,20 11,0 20,-9 20,-20 0,-12 -9,-21 -20,-21zm-61 0c-12,0 -21,9 -21,21 0,11 9,20 21,20 11,0 20,-9 20,-20 0,-12 -9,-21 -20,-21zm-62 0c-11,0 -20,9 -20,21 0,11 9,20 20,20 12,0 21,-9 21,-20 0,-12 -9,-21 -21,-21zm-61 0c-11,0 -20,9 -20,21 0,11 9,20 20,20 12,0 21,-9 21,-20 0,-12 -9,-21 -21,-21zm-61 0c-11,0 -20,9 -20,21 0,11 9,20 20,20 12,0 21,-9 21,-20 0,-12 -9,-21 -21,-21zm-61 0c-11,0 -20,9 -20,21 0,11 9,20 20,20 12,0 21,-9 21,-20 0,-12 -9,-21 -21,-21zm672 -53c-11,0 -21,9 -21,20 0,12 10,21 21,21 11,0 21,-9 21,-21 0,-11 -10,-20 -21,-20zm-61 0c-11,0 -21,9 -21,20 0,12 10,21 21,21 11,0 21,-9 21,-21 0,-11 -10,-20 -21,-20zm-61 0c-11,0 -21,9 -21,20 0,12 10,21 21,21 11,0 21,-9 21,-21 0,-11 -10,-20 -21,-20zm-61 0c-12,0 -21,9 -21,20 0,12 9,21 21,21 11,0 20,-9 20,-21 0,-11 -9,-20 -20,-20zm-61 0c-12,0 -21,9 -21,20 0,12 9,21 21,21 11,0 20,-9 20,-21 0,-11 -9,-20 -20,-20zm-61 0c-12,0 -21,9 -21,20 0,12 9,21 21,21 11,0 20,-9 20,-21 0,-11 -9,-20 -20,-20zm-61 0c-12,0 -21,9 -21,20 0,12 9,21 21,21 11,0 20,-9 20,-21 0,-11 -9,-20 -20,-20zm-61 0c-12,0 -21,9 -21,20 0,12 9,21 21,21 11,0 20,-9 20,-21 0,-11 -9,-20 -20,-20zm-62 0c-11,0 -20,9 -20,20 0,12 9,21 20,21 12,0 21,-9 21,-21 0,-11 -9,-20 -21,-20zm-61 0c-11,0 -20,9 -20,20 0,12 9,21 20,21 12,0 21,-9 21,-21 0,-11 -9,-20 -21,-20zm-61 0c-11,0 -20,9 -20,20 0,12 9,21 20,21 12,0 21,-9 21,-21 0,-11 -9,-20 -21,-20zm489 -54c-11,0 -21,9 -21,21 0,11 10,20 21,20 11,0 21,-9 21,-20 0,-12 -10,-21 -21,-21zm-61 0c-12,0 -21,9 -21,21 0,11 9,20 21,20 11,0 20,-9 20,-20 0,-12 -9,-21 -20,-21zm-61 0c-12,0 -21,9 -21,21 0,11 9,20 21,20 11,0 20,-9 20,-20 0,-12 -9,-21 -20,-21zm-61 0c-12,0 -21,9 -21,21 0,11 9,20 21,20 11,0 20,-9 20,-20 0,-12 -9,-21 -20,-21zm-61 0c-12,0 -21,9 -21,21 0,11 9,20 21,20 11,0 20,-9 20,-20 0,-12 -9,-21 -20,-21zm-61 0c-12,0 -21,9 -21,21 0,11 9,20 21,20 11,0 20,-9 20,-20 0,-12 -9,-21 -20,-21zm-62 0c-11,0 -20,9 -20,21 0,11 9,20 20,20 12,0 21,-9 21,-20 0,-12 -9,-21 -21,-21z"/>
   <path fill="#44403E" fill-rule="nonzero" d="M499 460c-7,0 -12,-3 -16,-7 11,-2 23,-4 35,-6 -4,8 -11,13 -19,13z"/>
   <path fill="#44403E" fill-rule="nonzero" d="M560 460c-10,0 -18,-6 -20,-15 13,-1 26,-2 40,-3 -1,10 -10,18 -20,18z"/>
   <path fill="#44403E" fill-rule="nonzero" d="M621 460c-11,0 -20,-8 -21,-19 7,0 14,0 21,0 7,0 13,0 20,0 -1,11 -9,19 -20,19z"/>
   <path fill="#44403E" fill-rule="nonzero" d="M682 460c-11,0 -19,-8 -21,-18 14,1 27,2 41,3 -3,9 -11,15 -20,15z"/>
   <path fill="#44403E" fill-rule="nonzero" d="M743 460c-9,0 -16,-5 -19,-13 12,2 23,4 35,6 -4,4 -10,7 -16,7z"/>
   <path fill="#44403E" fill-rule="nonzero" d="M315 513c-1,0 -3,0 -4,0 7,-5 15,-9 24,-13 -3,8 -11,13 -20,13z"/>
   <path fill="#44403E" fill-rule="nonzero" d="M376 513c-11,0 -20,-9 -20,-20 0,-1 0,-2 0,-3 11,-5 22,-9 34,-13 4,4 7,9 7,16 0,11 -9,20 -21,20z"/>
   <path fill="#44403E" fill-rule="nonzero" d="M437 513c-11,0 -20,-9 -20,-20 0,-12 9,-21 20,-21 12,0 21,9 21,21 0,11 -9,20 -21,20z"/>
   <path fill="#44403E" fill-rule="nonzero" d="M499 513c-12,0 -21,-9 -21,-20 0,-12 9,-21 21,-21 11,0 20,9 20,21 0,11 -9,20 -20,20z"/>
   <path fill="#44403E" fill-rule="nonzero" d="M560 513c-12,0 -21,-9 -21,-20 0,-12 9,-21 21,-21 11,0 20,9 20,21 0,11 -9,20 -20,20z"/>
   <path fill="#44403E" fill-rule="nonzero" d="M621 513c-12,0 -21,-9 -21,-20 0,-12 9,-21 21,-21 11,0 20,9 20,21 0,11 -9,20 -20,20z"/>
   <path fill="#44403E" fill-rule="nonzero" d="M682 513c-12,0 -21,-9 -21,-20 0,-12 9,-21 21,-21 11,0 20,9 20,21 0,11 -9,20 -20,20z"/>
   <path fill="#44403E" fill-rule="nonzero" d="M743 513c-12,0 -21,-9 -21,-20 0,-12 9,-21 21,-21 11,0 20,9 20,21 0,11 -9,20 -20,20z"/>
   <path fill="#44403E" fill-rule="nonzero" d="M804 513c-11,0 -21,-9 -21,-20 0,-12 10,-21 21,-21 11,0 21,9 21,21 0,11 -10,20 -21,20z"/>
   <path fill="#44403E" fill-rule="nonzero" d="M865 513c-11,0 -21,-9 -21,-20 0,-7 3,-12 8,-16 12,4 23,8 33,13 1,1 1,2 1,3 0,11 -10,20 -21,20z"/>
   <path fill="#44403E" fill-rule="nonzero" d="M926 513c-9,0 -16,-5 -19,-13 8,4 16,8 24,13 -2,0 -3,0 -5,0z"/>
   <path fill="#44403E" fill-rule="nonzero" d="M254 567c-2,0 -4,-1 -6,-1 7,-9 16,-18 26,-27 0,3 1,5 1,7 0,12 -9,21 -21,21z"/>
   <path fill="#44403E" fill-rule="nonzero" d="M315 567c-11,0 -20,-9 -20,-21 0,-11 9,-20 20,-20 12,0 21,9 21,20 0,12 -9,21 -21,21z"/>
   <path fill="#44403E" fill-rule="nonzero" d="M376 567c-11,0 -20,-9 -20,-21 0,-11 9,-20 20,-20 12,0 21,9 21,20 0,12 -9,21 -21,21z"/>
   <path fill="#44403E" fill-rule="nonzero" d="M437 567c-11,0 -20,-9 -20,-21 0,-11 9,-20 20,-20 12,0 21,9 21,20 0,12 -9,21 -21,21z"/>
   <path fill="#44403E" fill-rule="nonzero" d="M499 567c-12,0 -21,-9 -21,-21 0,-11 9,-20 21,-20 11,0 20,9 20,20 0,12 -9,21 -20,21z"/>
   <path fill="#44403E" fill-rule="nonzero" d="M560 567c-12,0 -21,-9 -21,-21 0,-11 9,-20 21,-20 11,0 20,9 20,20 0,12 -9,21 -20,21z"/>
   <path fill="#44403E" fill-rule="nonzero" d="M621 567c-12,0 -21,-9 -21,-21 0,-11 9,-20 21,-20 11,0 20,9 20,20 0,12 -9,21 -20,21z"/>
   <path fill="#44403E" fill-rule="nonzero" d="M682 567c-12,0 -21,-9 -21,-21 0,-11 9,-20 21,-20 11,0 20,9 20,20 0,12 -9,21 -20,21z"/>
   <path fill="#44403E" fill-rule="nonzero" d="M743 567c-12,0 -21,-9 -21,-21 0,-11 9,-20 21,-20 11,0 20,9 20,20 0,12 -9,21 -20,21z"/>
   <path fill="#44403E" fill-rule="nonzero" d="M804 567c-11,0 -21,-9 -21,-21 0,-11 10,-20 21,-20 11,0 21,9 21,20 0,12 -10,21 -21,21z"/>
   <path fill="#44403E" fill-rule="nonzero" d="M865 567c-11,0 -21,-9 -21,-21 0,-11 10,-20 21,-20 11,0 21,9 21,20 0,12 -10,21 -21,21z"/>
   <path fill="#44403E" fill-rule="nonzero" d="M926 567c-11,0 -21,-9 -21,-21 0,-11 10,-20 21,-20 11,0 21,9 21,20 0,12 -10,21 -21,21z"/>
   <path fill="#44403E" fill-rule="nonzero" d="M987 567c-11,0 -20,-9 -20,-21 0,-2 0,-4 1,-7 10,9 18,18 25,27 -2,0 -4,1 -6,1z"/>
   <path fill="#44403E" fill-rule="nonzero" d="M254 620c-11,0 -20,-9 -20,-20 0,-12 9,-21 20,-21 12,0 21,9 21,21 0,11 -9,20 -21,20z"/>
   <path fill="#44403E" fill-rule="nonzero" d="M315 620c-11,0 -20,-9 -20,-20 0,-12 9,-21 20,-21 12,0 21,9 21,21 0,11 -9,20 -21,20z"/>
   <path fill="#44403E" fill-rule="nonzero" d="M376 620c-11,0 -20,-9 -20,-20 0,-12 9,-21 20,-21 12,0 21,9 21,21 0,11 -9,20 -21,20z"/>
   <path fill="#44403E" fill-rule="nonzero" d="M437 620c-11,0 -20,-9 -20,-20 0,-12 9,-21 20,-21 12,0 21,9 21,21 0,11 -9,20 -21,20z"/>
   <path fill="#44403E" fill-rule="nonzero" d="M499 620c-12,0 -21,-9 -21,-20 0,-12 9,-21 21,-21 11,0 20,9 20,21 0,11 -9,20 -20,20z"/>
   <path fill="#44403E" fill-rule="nonzero" d="M560 620c-12,0 -21,-9 -21,-20 0,-12 9,-21 21,-21 11,0 20,9 20,21 0,11 -9,20 -20,20z"/>
   <path fill="#44403E" fill-rule="nonzero" d="M621 620c-12,0 -21,-9 -21,-20 0,-12 9,-21 21,-21 11,0 20,9 20,21 0,11 -9,20 -20,20z"/>
   <path fill="#44403E" fill-rule="nonzero" d="M682 620c-12,0 -21,-9 -21,-20 0,-12 9,-21 21,-21 11,0 20,9 20,21 0,11 -9,20 -20,20z"/>
   <path fill="#44403E" fill-rule="nonzero" d="M743 620c-12,0 -21,-9 -21,-20 0,-12 9,-21 21,-21 11,0 20,9 20,21 0,11 -9,20 -20,20z"/>
   <path fill="#44403E" fill-rule="nonzero" d="M804 620c-11,0 -21,-9 -21,-20 0,-12 10,-21 21,-21 11,0 21,9 21,21 0,11 -10,20 -21,20z"/>
   <path fill="#44403E" fill-rule="nonzero" d="M865 620c-11,0 -21,-9 -21,-20 0,-12 10,-21 21,-21 11,0 21,9 21,21 0,11 -10,20 -21,20z"/>
   <path fill="#44403E" fill-rule="nonzero" d="M926 620c-11,0 -21,-9 -21,-20 0,-12 10,-21 21,-21 11,0 21,9 21,21 0,11 -10,20 -21,20z"/>
   <path fill="#44403E" fill-rule="nonzero" d="M987 620c-11,0 -20,-9 -20,-20 0,-12 9,-21 20,-21 12,0 21,9 21,21 0,11 -9,20 -21,20z"/>
   <path fill="#44403E" fill-rule="nonzero" d="M254 674c-11,0 -20,-10 -20,-21 0,-11 9,-21 20,-21 12,0 21,10 21,21 0,11 -9,21 -21,21z"/>
   <path fill="#44403E" fill-rule="nonzero" d="M315 674c-11,0 -20,-10 -20,-21 0,-11 9,-21 20,-21 12,0 21,10 21,21 0,11 -9,21 -21,21z"/>
   <path fill="#44403E" fill-rule="nonzero" d="M376 674c-11,0 -20,-10 -20,-21 0,-11 9,-21 20,-21 12,0 21,10 21,21 0,11 -9,21 -21,21z"/>
   <path fill="#44403E" fill-rule="nonzero" d="M437 674c-11,0 -20,-10 -20,-21 0,-11 9,-21 20,-21 12,0 21,10 21,21 0,11 -9,21 -21,21z"/>
   <path fill="#44403E" fill-rule="nonzero" d="M499 674c-12,0 -21,-10 -21,-21 0,-11 9,-21 21,-21 11,0 20,10 20,21 0,11 -9,21 -20,21z"/>
   <path fill="#44403E" fill-rule="nonzero" d="M560 674c-12,0 -21,-10 -21,-21 0,-11 9,-21 21,-21 11,0 20,10 20,21 0,11 -9,21 -20,21z"/>
   <path fill="#44403E" fill-rule="nonzero" d="M621 674c-12,0 -21,-10 -21,-21 0,-11 9,-21 21,-21 11,0 20,10 20,21 0,11 -9,21 -20,21z"/>
   <path fill="#44403E" fill-rule="nonzero" d="M682 674c-12,0 -21,-10 -21,-21 0,-11 9,-21 21,-21 11,0 20,10 20,21 0,11 -9,21 -20,21z"/>
   <path fill="#44403E" fill-rule="nonzero" d="M743 674c-12,0 -21,-10 -21,-21 0,-11 9,-21 21,-21 11,0 20,10 20,21 0,11 -9,21 -20,21z"/>
   <path fill="#44403E" fill-rule="nonzero" d="M804 674c-11,0 -21,-10 -21,-21 0,-11 10,-21 21,-21 11,0 21,10 21,21 0,11 -10,21 -21,21z"/>
   <path fill="#44403E" fill-rule="nonzero" d="M865 674c-11,0 -21,-10 -21,-21 0,-11 10,-21 21,-21 11,0 21,10 21,21 0,11 -10,21 -21,21z"/>
   <path fill="#44403E" fill-rule="nonzero" d="M926 674c-11,0 -21,-10 -21,-21 0,-11 10,-21 21,-21 11,0 21,10 21,21 0,11 -10,21 -21,21z"/>
   <path fill="#44403E" fill-rule="nonzero" d="M987 674c-11,0 -20,-10 -20,-21 0,-11 9,-21 20,-21 12,0 21,10 21,21 0,11 -9,21 -21,21z"/>
   <path fill="#44403E" fill-rule="nonzero" d="M266 723c-11,-10 -20,-20 -26,-31 3,-4 8,-6 14,-6 12,0 21,9 21,20 0,7 -4,14 -9,17z"/>
   <path fill="#44403E" fill-rule="nonzero" d="M315 727c-11,0 -20,-9 -20,-21 0,-11 9,-20 20,-20 12,0 21,9 21,20 0,12 -9,21 -21,21z"/>
   <path fill="#44403E" fill-rule="nonzero" d="M376 727c-11,0 -20,-9 -20,-21 0,-11 9,-20 20,-20 12,0 21,9 21,20 0,12 -9,21 -21,21z"/>
   <path fill="#44403E" fill-rule="nonzero" d="M437 727c-11,0 -20,-9 -20,-21 0,-11 9,-20 20,-20 12,0 21,9 21,20 0,12 -9,21 -21,21z"/>
   <path fill="#44403E" fill-rule="nonzero" d="M499 727c-12,0 -21,-9 -21,-21 0,-11 9,-20 21,-20 11,0 20,9 20,20 0,12 -9,21 -20,21z"/>
   <path fill="#44403E" fill-rule="nonzero" d="M560 727c-12,0 -21,-9 -21,-21 0,-11 9,-20 21,-20 11,0 20,9 20,20 0,12 -9,21 -20,21z"/>
   <path fill="#44403E" fill-rule="nonzero" d="M621 727c-12,0 -21,-9 -21,-21 0,-11 9,-20 21,-20 11,0 20,9 20,20 0,12 -9,21 -20,21z"/>
   <path fill="#44403E" fill-rule="nonzero" d="M682 727c-12,0 -21,-9 -21,-21 0,-11 9,-20 21,-20 11,0 20,9 20,20 0,12 -9,21 -20,21z"/>
   <path fill="#44403E" fill-rule="nonzero" d="M743 727c-12,0 -21,-9 -21,-21 0,-11 9,-20 21,-20 11,0 20,9 20,20 0,12 -9,21 -20,21z"/>
   <path fill="#44403E" fill-rule="nonzero" d="M804 727c-11,0 -21,-9 -21,-21 0,-11 10,-20 21,-20 11,0 21,9 21,20 0,12 -10,21 -21,21z"/>
   <path fill="#44403E" fill-rule="nonzero" d="M865 727c-11,0 -21,-9 -21,-21 0,-11 10,-20 21,-20 11,0 21,9 21,20 0,12 -10,21 -21,21z"/>
   <path fill="#44403E" fill-rule="nonzero" d="M926 727c-11,0 -21,-9 -21,-21 0,-11 10,-20 21,-20 11,0 21,9 21,20 0,12 -10,21 -21,21z"/>
   <path fill="#44403E" fill-rule="nonzero" d="M976 723c-6,-3 -9,-10 -9,-17 0,-11 9,-20 20,-20 6,0 11,2 15,6 -7,11 -16,21 -26,31z"/>
   <path fill="#44403E" fill-rule="nonzero" d="M333 770c-12,-7 -24,-14 -35,-21 3,-6 10,-10 17,-10 12,0 21,9 21,21 0,3 -1,7 -3,10z"/>
   <path fill="#44403E" fill-rule="nonzero" d="M376 780c-11,0 -20,-9 -20,-20 0,-12 9,-21 20,-21 12,0 21,9 21,21 0,11 -9,20 -21,20z"/>
   <path fill="#44403E" fill-rule="nonzero" d="M437 780c-11,0 -20,-9 -20,-20 0,-12 9,-21 20,-21 12,0 21,9 21,21 0,11 -9,20 -21,20z"/>
   <path fill="#44403E" fill-rule="nonzero" d="M499 780c-12,0 -21,-9 -21,-20 0,-12 9,-21 21,-21 11,0 20,9 20,21 0,11 -9,20 -20,20z"/>
   <path fill="#44403E" fill-rule="nonzero" d="M560 780c-12,0 -21,-9 -21,-20 0,-12 9,-21 21,-21 11,0 20,9 20,21 0,11 -9,20 -20,20z"/>
   <path fill="#44403E" fill-rule="nonzero" d="M621 780c-12,0 -21,-9 -21,-20 0,-12 9,-21 21,-21 11,0 20,9 20,21 0,11 -9,20 -20,20z"/>
   <path fill="#44403E" fill-rule="nonzero" d="M682 780c-12,0 -21,-9 -21,-20 0,-12 9,-21 21,-21 11,0 20,9 20,21 0,11 -9,20 -20,20z"/>
   <path fill="#44403E" fill-rule="nonzero" d="M743 780c-12,0 -21,-9 -21,-20 0,-12 9,-21 21,-21 11,0 20,9 20,21 0,11 -9,20 -20,20z"/>
   <path fill="#44403E" fill-rule="nonzero" d="M804 780c-11,0 -21,-9 -21,-20 0,-12 10,-21 21,-21 11,0 21,9 21,21 0,11 -10,20 -21,20z"/>
   <path fill="#44403E" fill-rule="nonzero" d="M865 780c-11,0 -21,-9 -21,-20 0,-12 10,-21 21,-21 11,0 21,9 21,21 0,11 -10,20 -21,20z"/>
   <path fill="#44403E" fill-rule="nonzero" d="M908 770c-2,-3 -3,-7 -3,-10 0,-12 10,-21 21,-21 7,0 14,4 18,10 -11,7 -23,14 -36,21z"/>
   <path fill="#44403E" fill-rule="nonzero" d="M458 812c-13,-3 -26,-6 -38,-9 3,-6 10,-11 17,-11 12,0 21,9 21,20z"/>
   <path fill="#44403E" fill-rule="nonzero" d="M517 822c-13,-1 -26,-3 -39,-6 0,-1 0,-2 0,-3 0,-11 9,-21 21,-21 11,0 20,10 20,21 0,3 -1,7 -2,9z"/>
   <path fill="#44403E" fill-rule="nonzero" d="M574 828c-10,-1 -21,-2 -31,-3 -2,-3 -4,-7 -4,-12 0,-11 9,-21 21,-21 11,0 20,10 20,21 0,6 -2,11 -6,15z"/>
   <path fill="#44403E" fill-rule="nonzero" d="M621 829c-5,0 -9,0 -13,0 -5,-4 -8,-9 -8,-16 0,-11 9,-21 21,-21 11,0 20,10 20,21 0,7 -3,12 -7,16 -5,0 -9,0 -13,0z"/>
   <path fill="#44403E" fill-rule="nonzero" d="M667 828c-3,-4 -6,-9 -6,-15 0,-11 9,-21 21,-21 11,0 20,10 20,21 0,5 -1,9 -4,12 -10,1 -20,2 -31,3z"/>
   <path fill="#44403E" fill-rule="nonzero" d="M724 822c-1,-2 -2,-6 -2,-9 0,-11 9,-21 21,-21 11,0 20,10 20,21 0,1 0,2 0,3 -12,3 -25,5 -39,6z"/>
   <path fill="#44403E" fill-rule="nonzero" d="M783 812c1,-11 10,-20 21,-20 8,0 14,5 18,11 -13,3 -25,6 -39,9z"/>
   <polygon fill="#4A4644" fill-rule="nonzero" points="616,284 626,284 626,120 616,120 "/>
   <path fill="#FAFBFB" fill-rule="nonzero" d="M494 265c-18,-10 -25,-33 -15,-51 10,-18 33,-25 51,-15 18,10 25,32 15,51 -10,18 -33,24 -51,15z"/>
   <polygon fill="#615E5C" fill-rule="nonzero" points="543,254 512,237 517,229 547,246 "/>
   <path fill="#FAFBFB" fill-rule="nonzero" d="M435 255c-13,16 -37,19 -53,6 -16,-13 -18,-37 -5,-53 13,-16 36,-18 52,-5 16,13 19,36 6,52z"/>
   <polygon fill="#615E5C" fill-rule="nonzero" points="411,232 404,226 426,200 433,206 "/>
   <path fill="#FAFBFB" fill-rule="nonzero" d="M337 232c0,20 -17,37 -37,37 -21,0 -38,-17 -38,-37 0,-21 17,-38 38,-38 20,0 37,17 37,38z"/>
   <polygon fill="#615E5C" fill-rule="nonzero" points="295,229 304,229 304,194 295,194 "/>
   <path fill="#FAFBFB" fill-rule="nonzero" d="M920 265c-18,-10 -25,-33 -15,-51 10,-18 33,-25 51,-15 18,10 25,32 15,51 -10,18 -33,24 -51,15z"/>
   <polygon fill="#615E5C" fill-rule="nonzero" points="969,254 938,237 943,229 973,246 "/>
   <path fill="#FAFBFB" fill-rule="nonzero" d="M861 255c-13,16 -37,19 -53,6 -16,-13 -18,-37 -5,-53 13,-16 36,-18 52,-5 16,13 19,36 6,52z"/>
   <polygon fill="#615E5C" fill-rule="nonzero" points="837,232 830,226 852,200 859,206 "/>
   <path fill="#FAFBFB" fill-rule="nonzero" d="M763 232c0,20 -17,37 -37,37 -21,0 -38,-17 -38,-37 0,-21 17,-38 38,-38 20,0 37,17 37,38z"/>
   <polygon fill="#615E5C" fill-rule="nonzero" points="721,229 730,229 730,194 721,194 "/>
   <path fill="#4A4644" fill-rule="nonzero" d="M223 240c0,16 -13,29 -28,29 -16,0 -29,-13 -29,-29 0,-16 13,-29 29,-29 15,0 28,13 28,29z"/>
   <path fill="#615E5C" fill-rule="nonzero" d="M211 240c0,9 -7,17 -16,17 -10,0 -17,-8 -17,-17 0,-9 7,-16 17,-16 9,0 16,7 16,16z"/>
   <path fill="#4A4644" fill-rule="nonzero" d="M223 165c0,16 -13,29 -28,29 -16,0 -29,-13 -29,-29 0,-15 13,-28 29,-28 15,0 28,13 28,28z"/>
   <path fill="#615E5C" fill-rule="nonzero" d="M211 165c0,10 -7,17 -16,17 -10,0 -17,-7 -17,-17 0,-9 7,-16 17,-16 9,0 16,7 16,16z"/>
   <polygon fill="#4A4644" fill-rule="nonzero" points="1027,272 1087,272 1087,141 1027,141 "/>
   <polygon fill="#615E5C" fill-rule="nonzero" points="1036,257 1077,257 1077,156 1036,156 "/>
   <polygon fill="#797574" fill-rule="nonzero" points="1036,257 1077,257 1077,207 1036,207 "/>
   <path fill="#4A4644" fill-rule="nonzero" d="M333 165c0,4 -3,7 -7,7l-53 0c-4,0 -7,-3 -7,-7 0,-4 3,-7 7,-7l53 0c4,0 7,3 7,7z"/>
   <path fill="#4A4644" fill-rule="nonzero" d="M439 165c0,4 -3,7 -7,7l-53 0c-4,0 -7,-3 -7,-7 0,-4 3,-7 7,-7l53 0c4,0 7,3 7,7z"/>
   <path fill="#4A4644" fill-rule="nonzero" d="M545 165c0,4 -3,7 -7,7l-53 0c-3,0 -6,-3 -6,-7 0,-4 3,-7 6,-7l53 0c4,0 7,3 7,7z"/>
   <path fill="#4A4644" fill-rule="nonzero" d="M759 165c0,4 -3,7 -7,7l-53 0c-4,0 -7,-3 -7,-7 0,-4 3,-7 7,-7l53 0c4,0 7,3 7,7z"/>
   <path fill="#4A4644" fill-rule="nonzero" d="M865 165c0,4 -3,7 -7,7l-53 0c-4,0 -7,-3 -7,-7 0,-4 3,-7 7,-7l53 0c4,0 7,3 7,7z"/>
   <path fill="#4A4644" fill-rule="nonzero" d="M971 165c0,4 -3,7 -7,7l-53 0c-3,0 -6,-3 -6,-7 0,-4 3,-7 6,-7l53 0c4,0 7,3 7,7z"/>
  </g>
 </g>
</svg>
