<?xml version="1.0" encoding="UTF-8"?>
<!DOCTYPE svg PUBLIC "-//W3C//DTD SVG 1.1//EN" "http://www.w3.org/Graphics/SVG/1.1/DTD/svg11.dtd">
<!-- Creator: CorelDRAW X7 -->
<svg xmlns="http://www.w3.org/2000/svg" xml:space="preserve" width="613px" height="743px" version="1.1" shape-rendering="geometricPrecision" text-rendering="geometricPrecision" image-rendering="optimizeQuality" fill-rule="evenodd" clip-rule="evenodd"
viewBox="0 0 1600 1940"
 xmlns:xlink="http://www.w3.org/1999/xlink">
 <defs>
    <linearGradient id="id0" gradientUnits="userSpaceOnUse" x1="553.666" y1="951.451" x2="826.251" y2="1242.37">
     <stop offset="0" stop-opacity="1" stop-color="#91ACBD"/>
     <stop offset="0.431373" stop-opacity="1" stop-color="#91ACBD"/>
     <stop offset="0.6" stop-opacity="1" stop-color="#D0DCE4"/>
     <stop offset="0.780392" stop-opacity="1" stop-color="#91ACBD"/>
     <stop offset="1" stop-opacity="1" stop-color="#91ACBD"/>
    </linearGradient>
    <linearGradient id="id1" gradientUnits="userSpaceOnUse" x1="571.427" y1="951.451" x2="852.197" y2="1242.37">
     <stop offset="0" stop-opacity="1" stop-color="#CCDAE3"/>
     <stop offset="0.431373" stop-opacity="1" stop-color="#CCDAE3"/>
     <stop offset="0.6" stop-opacity="1" stop-color="#E7EFF3"/>
     <stop offset="0.780392" stop-opacity="1" stop-color="#CCDAE3"/>
     <stop offset="1" stop-opacity="1" stop-color="#CCDAE3"/>
    </linearGradient>
    <linearGradient id="id2" gradientUnits="userSpaceOnUse" x1="569.645" y1="951.457" x2="850.951" y2="1242.37">
     <stop offset="0" stop-opacity="1" stop-color="#7997AB"/>
     <stop offset="0.431373" stop-opacity="1" stop-color="#7997AB"/>
     <stop offset="0.6" stop-opacity="1" stop-color="#B3C4D1"/>
     <stop offset="0.780392" stop-opacity="1" stop-color="#7997AB"/>
     <stop offset="1" stop-opacity="1" stop-color="#7997AB"/>
    </linearGradient>
    <linearGradient id="id3" gradientUnits="userSpaceOnUse" x1="569.645" y1="951.451" x2="850.945" y2="1242.37">
     <stop offset="0" stop-opacity="1" stop-color="#AEC3D0"/>
     <stop offset="0.431373" stop-opacity="1" stop-color="#AEC3D0"/>
     <stop offset="0.6" stop-opacity="1" stop-color="#C9D6DE"/>
     <stop offset="0.780392" stop-opacity="1" stop-color="#AEC3D0"/>
     <stop offset="1" stop-opacity="1" stop-color="#AEC3D0"/>
    </linearGradient>
 </defs>
 <g id="Слой_x0020_1">
  <metadata id="CorelCorpID_0Corel-Layer"/>
  <g id="_1031607888">
   <path fill="#DE3E42" fill-rule="nonzero" d="M529 1655c-174,-141 -262,-315 -223,-443 22,-72 85,-119 172,-127 85,-7 185,37 290,84 168,74 340,150 488,48 117,-80 161,-200 133,-355 -22,-121 -82,-219 -83,-220l24 -14 0 -29c19,0 24,10 49,59 12,25 30,66 45,114 66,211 18,385 -135,491 -174,121 -371,34 -544,-43 -98,-43 -191,-85 -262,-78 -65,6 -108,36 -123,87 -26,86 27,238 205,382l-36 44z"/>
   <path fill="url(#id0)" d="M72 1892c-7,0 -12,-2 -17,-6 0,-1 0,-1 -1,-1 24,-21 322,-316 642,-633 6,3 13,6 21,9 20,9 40,18 61,27l-683 595c-7,6 -15,9 -23,9zm754 -645c-29,-12 -58,-25 -87,-37 0,0 0,-1 0,-1 190,-189 384,-381 528,-525 1,3 3,5 5,7 6,5 13,8 21,8 8,0 16,-3 22,-9l114 -116c12,-12 12,-31 0,-43 -2,-1 -3,-2 -5,-3 48,-47 75,-75 75,-75 -38,-31 -73,-41 -102,-41 -1,0 -2,0 -3,0 3,0 6,0 9,0 30,0 67,11 106,45 90,110 8,188 8,188l-691 602z"/>
   <path fill="#37322D" fill-rule="nonzero" d="M1403 363c-70,0 -115,40 -120,45l-2 1 -1 2 -1259 1405c-28,32 -28,79 1,106 13,12 31,18 50,18 19,0 38,-6 54,-19l0 -1 1 0 1422 -1238 1 0 0 -1c1,-1 114,-112 -3,-255l-3 -3 -3 -3c-43,-38 -90,-57 -138,-57zm0 49c30,0 67,11 106,45 90,110 8,188 8,188l-1422 1238c-7,6 -15,9 -23,9 -7,0 -12,-2 -17,-6 -9,-9 -8,-26 2,-38l1259 -1404c0,0 34,-32 87,-32z"/>
   <path fill="#37322D" fill-rule="nonzero" d="M1293 699c-8,0 -15,-3 -21,-8 -12,-12 -12,-31 -1,-43l115 -116c12,-12 31,-12 43,-1 12,12 12,31 0,43l-114 116c-6,6 -14,9 -22,9z"/>
   <path fill="url(#id1)" d="M54 1885c-8,-9 -7,-25 3,-37l564 -629c27,11 49,21 75,33 -320,317 -618,612 -642,633zm685 -676c-30,-13 -49,-23 -78,-35l655 -730c0,0 31,-29 78,-32 1,0 2,0 3,0 29,0 64,10 102,41 0,0 -27,28 -75,75 -5,-4 -11,-5 -17,-5 -7,0 -15,3 -21,9l-115 116c-9,10 -11,25 -4,36 -144,144 -338,336 -528,525z"/>
   <path fill="#949799" fill-rule="nonzero" d="M53 1886l0 0c-10,-9 -9,-26 2,-38l1256 -1404c0,0 33,-31 83,-32 -47,3 -78,32 -78,32l-655 730c0,0 0,0 -1,0l-41 44c1,1 1,1 2,1l-564 629c-10,12 -11,28 -3,37 -1,0 -1,1 -1,1z"/>
   <path fill="#949799" fill-rule="nonzero" d="M1267 684c-7,-11 -5,-26 4,-36l115 -116c6,-6 14,-9 21,-9 6,0 12,1 17,5 -40,39 -94,93 -157,156z"/>
   <path fill="#37322D" fill-rule="nonzero" d="M1271 654c-130,-286 -121,-507 27,-654l92 92c-105,105 -105,276 0,509l-119 53z"/>
   <path fill="#DE3E42" fill-rule="nonzero" d="M1305 639c-123,-271 -117,-477 19,-613l40 40c-117,117 -120,302 -8,550l-51 23z"/>
   <path fill="url(#id2)" d="M778 1288c-21,-9 -41,-18 -61,-27 -8,-3 -15,-6 -21,-9 14,-14 28,-28 43,-43 0,0 0,1 0,1 29,12 58,25 87,37l-48 41z"/>
   <path fill="#322F2B" fill-rule="nonzero" d="M779 1289c0,0 0,-1 -1,-1l48 -41c0,0 1,0 1,1l-48 41z"/>
   <path fill="url(#id3)" d="M696 1252c-26,-12 -48,-22 -75,-33l40 -45c29,12 48,22 78,35 -15,15 -29,29 -43,43z"/>
   <path fill="#7C848A" fill-rule="nonzero" d="M621 1219c-1,0 -1,0 -2,-1l41 -44c1,0 1,0 1,0l-40 45z"/>
   <path fill="#37322D" fill-rule="nonzero" d="M1096 1359c-127,0 -255,-56 -365,-105 -94,-42 -183,-81 -245,-76l-12 -129c96,-9 199,37 309,86 158,70 321,142 453,52l74 107c-69,47 -142,65 -214,65z"/>
   <path fill="#DE3E42" fill-rule="nonzero" d="M1096 1323c-119,0 -239,-54 -350,-103 -99,-43 -192,-85 -263,-78l-5 -57c85,-7 185,37 290,84 168,74 340,150 488,48l33 46c-63,43 -128,60 -193,60z"/>
  </g>
 </g>
</svg>
