<svg xmlns="http://www.w3.org/2000/svg" width="210mm" height="297mm" shape-rendering="geometricPrecision" text-rendering="geometricPrecision" image-rendering="optimizeQuality" fill-rule="evenodd" clip-rule="evenodd" viewBox="0 0 21000 29700"><g fill-rule="nonzero"><path fill="#C9BB9E" d="M6711 18861c0 323-19 655 67 969 211 767 853 1234 1599 1350 63 15 131 24 205 24 40 2 78 2 114 0h2722c970 0 2336 233 3167-332 1020-694 814-2050 814-3127v-3775c0-461 42-944-113-1384-244-696-771-1028-1390-1163v-590c438-807-1-1974-955-2270-578-179-1292-80-1886-80-574 0-1254-93-1816 61-988 271-1482 1466-1025 2294v594c-747 175-1357 632-1478 1531-64 471-25 981-25 1456v4442z"/><path fill="#FEFEFE" d="M6172 18322c0 322-19 655 67 969 211 767 853 1234 1599 1349 63 15 131 24 204 24 40 3 78 2 115 0h2722c970 0 2336 233 3167-332 1019-693 813-2050 813-3126v-3775c0-461 42-944-112-1384-245-697-772-1028-1391-1163v-590c439-808 0-1974-955-2270-577-179-1292-81-1885-81-575 0-1254-93-1817 62-987 271-1481 1465-1024 2293v595c-747 175-1357 631-1479 1530-63 471-24 981-24 1456v4443z"/><path fill="#FEFEFE" d="M11491 11943h-469v-460c0-9-8-17-17-17h-978c-10 0-18 8-18 17v460h-469v-460c0-268 218-486 487-486h978c268 0 486 218 486 486v460z"/><path fill="#533A2B" d="M11173 11791h167v-308c0-185-150-335-335-335h-978c-185 0-336 150-336 335v308h167v-308c0-92 76-168 169-168h978c93 0 168 76 168 168v308zm470 303h-772v-477h-710v477h-772v-611c0-351 286-638 638-638h978c351 0 638 287 638 638v611z"/><path fill="#C2E5F3" d="M12989 19704H8042c-502 0-910-408-910-910v-6119c0-503 408-910 910-910h4947c503 0 910 407 910 910v6119c0 502-407 910-910 910z"/><path fill="#533A2B" d="M8042 11916c-418 0-758 340-758 759v6119c0 418 340 759 758 759h4947c418 0 759-341 759-759v-6119c0-419-341-759-759-759H8042zm4947 7939H8042c-585 0-1061-476-1061-1061v-6119c0-585 476-1061 1061-1061h4947c585 0 1061 476 1061 1061v6119c0 585-476 1061-1061 1061z"/><path fill="#F9D62C" d="M8281 11765h-239c-502 0-910 407-910 910v238c635 0 1149-514 1149-1148z"/><path fill="#533A2B" d="M8042 11916c-418 0-758 340-758 759v75c429-65 768-405 834-834h-76zm-910 1148h-151v-389c0-585 476-1061 1061-1061h390v151c0 716-583 1299-1300 1299z"/><path fill="#F9D62C" d="M13899 12913v-238c0-503-407-910-910-910h-238c0 634 514 1148 1148 1148z"/><path fill="#533A2B" d="M12913 11916c66 429 406 769 835 834v-75c0-419-341-759-759-759h-76zm1137 1148h-151c-716 0-1299-583-1299-1299v-151h389c585 0 1061 476 1061 1061v389z"/><path fill="#F9D62C" d="M7132 18556v238c0 502 408 910 910 910h239c0-634-514-1148-1149-1148z"/><path fill="#533A2B" d="M7284 18718v76c0 418 340 759 758 759h76c-66-429-405-769-834-835zm1148 1137h-390c-585 0-1061-476-1061-1061v-390h151c717 0 1300 583 1300 1300v151z"/><path fill="#F9D62C" d="M13899 18794v-238c-634 0-1148 514-1148 1148h238c503 0 910-408 910-910z"/><path fill="#533A2B" d="M12913 19553h76c418 0 759-341 759-759v-76c-429 66-769 406-835 835zm76 302h-389v-151c0-717 583-1300 1299-1300h151v390c0 585-476 1061-1061 1061z"/><path fill="#844F3A" d="M8493 19704h984v-4847h-984z"/><path fill="#533A2B" d="M8644 19553h682v-4544h-682v4544zm984 302H8342v-5149h1286v5149z"/><path fill="#844F3A" d="M8985 16474c-272 0-492-220-492-491v-4218h984v4218c0 271-220 491-492 491z"/><path fill="#533A2B" d="M8644 11916v4067c0 187 153 340 341 340s341-153 341-340v-4067h-682zm341 4710c-354 0-643-289-643-643v-4369h1286v4369c0 354-288 643-643 643z"/><path fill="#533A2B" d="M8985 14598c-188 0-341 153-341 340v320c0 188 153 341 341 341s341-153 341-341v-320c0-187-153-340-341-340zm0 1303c-354 0-643-289-643-643v-320c0-354 289-643 643-643 355 0 643 289 643 643v320c0 354-288 643-643 643z"/><path fill="#533A2B" d="M8985 16013c-57 0-103-46-103-104v-975c0-57 46-104 103-104s104 47 104 104v975c0 58-47 104-104 104z"/><path fill="#844F3A" d="M11554 19704h984v-3466h-984z"/><path fill="#533A2B" d="M11705 19553h682v-3164h-682v3164zm984 302h-1286v-3768h1286v3768z"/><path fill="#844F3A" d="M12046 17855c-271 0-492-220-492-492v-5598h984v5598c0 272-220 492-492 492z"/><path fill="#533A2B" d="M11705 11916v5447c0 188 153 341 341 341s341-153 341-341v-5447h-682zm341 6091c-354 0-643-289-643-644v-5749h1286v5749c0 355-288 644-643 644z"/><path fill="#533A2B" d="M12046 15979c-188 0-341 152-341 340v320c0 188 153 341 341 341s341-153 341-341v-320c0-188-153-340-341-340zm0 1303c-354 0-643-289-643-643v-320c0-354 289-643 643-643 355 0 643 289 643 643v320c0 354-288 643-643 643z"/><path fill="#533A2B" d="M12046 17394c-57 0-103-46-103-104v-975c0-57 46-104 103-104s104 47 104 104v975c0 58-47 104-104 104z"/><path fill="#FEFEFE" d="M8635 11765h369V9654h-369z"/><path fill="#533A2B" d="M8786 11614h67V9805h-67v1809zm369 302h-671V9502h671v2414z"/><path fill="#FEFEFE" d="M12028 11765h368V9654h-368z"/><path fill="#533A2B" d="M12179 11614h66V9805h-66v1809zm368 302h-671V9502h671v2414z"/><path fill="#F9D62C" d="M12419 9928h-344c-84 0-151-67-151-151v-204c0-13-11-24-24-24H9131c-13 0-23 11-23 24v204c0 84-68 151-151 151h-344c-84 0-151-67-151-151v-204c0-370 299-669 669-669h2769c370 0 670 299 670 669v204c0 84-68 151-151 151z"/><path fill="#533A2B" d="M9131 9398h2769c97 0 175 79 175 175v204h344l-1-204c0-286-232-518-518-518H9131c-286 0-518 232-518 518v204h344l-1-204c0-96 79-175 175-175zm3288 681h-344c-167 0-302-135-302-302v-76H9259v76c0 167-136 302-302 302h-344c-167 0-302-135-302-302v-204c0-452 368-820 820-820h2769c453 0 821 368 821 820v204c0 167-136 302-302 302z"/><path fill="#FEFCF7" d="M7701 15599c-84 0-151-68-151-152v-1948c0-84 67-151 151-151 83 0 151 67 151 151v1948c0 84-68 152-151 152zM7701 16878c-84 0-151-67-151-151v-597c0-84 67-151 151-151 83 0 151 67 151 151v597c0 84-68 151-151 151zM10066 12245c0-84 68-151 151-151h597c84 0 151 67 151 151 0 83-67 151-151 151h-597c-83 0-151-68-151-151z"/></g></svg>