<?xml version="1.0" encoding="UTF-8"?>
<!DOCTYPE svg PUBLIC "-//W3C//DTD SVG 1.1//EN" "http://www.w3.org/Graphics/SVG/1.1/DTD/svg11.dtd">
<!-- Creator: CorelDRAW X7 -->
<svg xmlns="http://www.w3.org/2000/svg" xml:space="preserve" width="597px" height="870px" version="1.1" shape-rendering="geometricPrecision" text-rendering="geometricPrecision" image-rendering="optimizeQuality" fill-rule="evenodd" clip-rule="evenodd"
viewBox="0 0 695 1013"
 xmlns:xlink="http://www.w3.org/1999/xlink">
 <g id="Слой_x0020_1">
  <metadata id="CorelCorpID_0Corel-Layer"/>
  <g id="_5597832784">
   <path fill="#F3B23C" fill-rule="nonzero" d="M25 843c0,0 111,-171 237,-293l196 134c-126,122 -237,292 -237,292l-196 -133z"/>
   <path fill="#2A2825" fill-rule="nonzero" d="M354 798l0 0c28,-35 59,-70 92,-102 -33,32 -64,67 -92,102zm92 -102c0,-1 0,-1 0,-1 0,0 0,0 0,1zm1 -1c0,0 0,-1 0,-1 0,0 0,1 0,1zm1 -1c0,0 0,0 0,0 0,0 0,0 0,0zm2 -2c0,0 0,0 0,0 0,0 0,0 0,0zm5 -5c0,0 0,0 0,0 0,0 0,0 0,0zm0 -1c1,0 1,0 1,0 0,0 0,0 -1,0zm1 -1c0,0 1,0 1,0 0,0 -1,0 -1,0zm1 0c0,-1 1,-1 1,-1l0 0c0,0 -1,0 -1,1z"/>
   <path fill="#C17527" fill-rule="nonzero" d="M354 798l-144 -99 1 -1 -2 -1c-6,-4 -11,-7 -16,-11 -11,-8 -23,-15 -34,-23 -1,0 -1,1 -1,1l0 0c4,-4 7,-9 11,-13 13,8 26,17 39,26 5,3 10,7 16,10l1 2 7 -10 -1 -2c-6,-3 -11,-7 -17,-11 -12,-8 -24,-16 -37,-25 -2,3 -4,5 -6,7 11,-13 23,-26 34,-39 13,8 25,16 37,25 6,4 11,7 16,11l2 1 7 -10 -2 -1c-5,-4 -11,-8 -16,-11 -12,-8 -23,-16 -35,-24 -2,2 -3,3 -5,5 5,-6 10,-11 15,-17 8,6 15,11 23,15 17,13 36,25 54,37l0 0c0,0 0,0 0,1 0,0 0,0 0,0 16,11 32,23 49,33 4,3 8,5 13,7 16,7 32,10 48,10 15,0 31,-3 46,-8l1 1c0,0 -1,0 -1,1 0,0 0,0 0,0 0,0 -1,0 -1,0 0,1 0,1 0,1 0,0 0,0 -1,0 0,0 0,1 0,1 0,0 0,0 0,0 -2,2 -4,3 -5,5 0,0 0,0 0,0 -1,0 -1,1 -2,2 0,0 0,0 0,0 0,0 -1,0 -1,0 0,0 0,1 0,1 0,0 0,0 -1,0 0,0 0,0 0,1 0,0 0,0 0,0 -33,32 -64,67 -92,102zm-158 -178c-3,3 -6,6 -8,9 13,8 26,17 39,26 5,4 10,7 16,11l1 1 7 -10 -2 -1c-5,-4 -10,-8 -16,-11 -12,-9 -24,-17 -37,-25z"/>
   <path fill="#F3B23C" fill-rule="nonzero" d="M625 147c-35,-26 -72,-49 -108,-74 -17,-12 -35,-25 -53,-37 -18,-11 -33,-24 -53,-30 -80,-26 -161,37 -210,95 -53,61 -89,138 -103,218 -13,71 -11,163 48,214 14,13 31,23 47,33 18,12 35,26 54,37 17,13 36,25 54,37 17,13 34,26 52,36 76,43 164,-13 216,-68 56,-58 95,-134 114,-212 17,-72 21,-165 -30,-225 -8,-9 -17,-18 -28,-24 -1,-1 4,2 9,5 9,6 18,11 -9,-5z"/>
   <path fill="#945327" fill-rule="nonzero" d="M363 681c-5,-2 -9,-4 -13,-7 1,1 2,1 3,2l0 0c4,2 7,4 10,5z"/>
   <path fill="#2A2825" fill-rule="nonzero" d="M494 667c28,-16 55,-38 75,-59 2,-2 4,-4 6,-6 -25,27 -52,49 -81,65zm160 -495c0,0 0,0 -1,0 1,0 1,0 1,0zm-1 0c0,-1 0,-1 0,-1 -8,-9 -17,-18 -28,-24l0 0c0,0 0,0 0,0 0,0 1,0 1,0l0 0c0,0 0,1 0,1 0,0 0,0 0,0 10,6 19,14 27,24zm-28 -25c0,0 0,0 0,0 0,0 0,0 0,0 0,0 0,0 0,0 0,0 0,0 0,0l0 0c0,0 0,0 0,0l0 0z"/>
   <path fill="#BC7B28" fill-rule="nonzero" d="M411 691c-15,0 -29,-3 -42,-8 3,1 6,2 8,3 -5,-1 -9,-3 -14,-5 -3,-1 -6,-3 -10,-5l1 0 -2 -1 1 1c-1,-1 -2,-1 -3,-2 -1,-1 -2,-1 -3,-2 0,0 1,1 1,1 -40,-26 -65,-78 -67,-151 0,0 0,0 0,0 0,0 0,0 0,-1 0,0 0,0 0,0 0,0 0,0 0,0 0,0 0,0 0,0 0,0 0,0 0,-1 0,0 0,0 0,0 0,0 0,0 0,0 0,0 0,0 0,-1 0,0 0,0 0,0 0,0 0,0 0,0 0,0 0,0 0,0 0,-1 0,-1 0,-1 0,0 0,0 0,0 0,0 0,0 0,-1l0 0c0,-10 0,-21 1,-32 0,0 0,0 0,0 5,-57 23,-116 51,-168 0,0 0,0 0,0 20,-38 44,-74 72,-103 0,0 0,0 0,0 25,-26 52,-48 81,-62 28,-15 54,-22 79,-22 22,0 42,6 60,17 0,0 0,0 0,0l0 0c11,6 20,15 28,24 0,0 0,0 0,1 0,0 0,0 0,0 1,0 1,0 1,0 25,30 40,75 40,132 1,104 -48,220 -119,298 -2,2 -4,4 -6,6 -20,21 -47,43 -75,59 -2,1 -3,2 -5,2 -2,1 -3,2 -5,3 1,0 3,-1 4,-2 -27,14 -54,21 -77,21zm-46 -9l0 0c-1,-1 -2,-1 -3,-1 1,0 2,0 3,1zm129 -15c-1,0 -2,1 -3,2 1,-1 2,-2 3,-2 1,-1 1,-1 2,-1 -1,0 -1,0 -2,1zm21 -389c-14,0 -29,4 -43,11 -51,27 -91,97 -91,160 1,55 33,94 79,94 14,0 29,-4 43,-11 51,-27 91,-97 91,-160 -1,-55 -33,-94 -79,-94zm-55 200c-11,0 -14,-19 -14,-30 0,-38 26,-85 56,-101 6,-3 11,-4 13,-4 11,0 14,19 14,30 0,38 -26,86 -56,101 -6,3 -10,4 -13,4zm166 -330c0,0 0,0 0,0 0,0 0,0 0,0l0 0zm0 -1l0 0 0 0zm-1 0c0,0 0,0 0,0 0,0 0,0 0,0zm0 0c0,0 0,0 0,0 0,0 0,0 0,0zm0 0c0,0 0,0 0,0 0,0 0,0 0,0z"/>
   <path fill="#865E28" fill-rule="nonzero" d="M460 543c-46,0 -78,-39 -79,-94 0,-63 40,-133 91,-160 14,-7 29,-11 43,-11 46,0 78,39 79,94 0,63 -40,133 -91,160 -14,7 -29,11 -43,11zm55 -200c-2,0 -7,1 -13,4 -30,16 -56,63 -56,101 0,11 3,30 14,30 3,0 7,-1 13,-4 30,-15 56,-63 56,-101 0,-11 -3,-30 -14,-30z"/>
   <path fill="#454443" fill-rule="nonzero" d="M487 318c-41,21 -73,80 -73,131 0,51 34,75 74,54 41,-21 74,-80 73,-131 0,-51 -33,-75 -74,-54z"/>
   <path fill="#B8C3CC" fill-rule="nonzero" d="M515 323c-7,0 -14,2 -22,6 -37,19 -67,74 -67,120 0,30 13,49 34,49 7,0 15,-2 23,-6 36,-19 66,-74 66,-119 0,-31 -13,-50 -34,-50zm-55 200l0 0c-35,0 -58,-30 -58,-74 -1,-56 34,-118 79,-142 12,-6 23,-9 34,-9 35,0 58,30 58,74 1,56 -34,118 -79,142 -12,6 -23,9 -34,9z"/>
   <path fill="#614828" fill-rule="nonzero" d="M200 102c0,0 0,0 0,0 0,0 0,0 0,0zm0 -1c0,0 0,0 0,0 0,0 0,0 0,0zm1 0c2,-3 5,-7 8,-10 -3,3 -6,7 -8,10z"/>
   <path fill="#F6C44D" fill-rule="nonzero" d="M333 317c-41,-29 -82,-59 -124,-87l0 0 -1 -1c-6,-4 -12,-8 -17,-12l-1 -1c-15,-10 -31,-20 -46,-30 -1,0 -1,1 -1,1 0,0 0,0 0,0 16,-30 35,-59 57,-85 0,0 0,0 0,0 0,0 0,-1 0,-1 0,0 0,0 0,0 0,0 0,0 0,0 -2,2 -3,5 -5,7 14,9 29,19 43,29 7,4 13,9 20,13l2 1 6 -10 -1 -1c-7,-4 -13,-9 -20,-13 -14,-10 -28,-19 -42,-29l-2 3 0 0c2,-3 5,-7 8,-10 2,-2 4,-4 6,-6 17,11 34,21 50,32 48,31 93,65 140,97 -28,29 -52,65 -72,103zm-172 -162c-2,4 -4,7 -6,11 15,9 31,20 47,31 5,3 10,7 16,11l1 1 7 -10 -2 -1c-5,-4 -10,-8 -16,-11 -15,-11 -31,-22 -47,-32zm20 -29c-3,3 -5,7 -7,10 15,10 30,20 46,31 5,4 11,7 17,11l1 1 7 -10 -2 -1c-5,-4 -11,-8 -16,-11 -15,-11 -31,-21 -46,-31z"/>
   <path fill="#D09935" fill-rule="nonzero" d="M333 317c0,0 0,0 0,0 20,-38 44,-74 72,-103 0,0 0,0 0,0 -28,29 -52,65 -72,103z"/>
   <polygon fill="#BB7427" fill-rule="nonzero" points="354,676 353,676 353,676 352,675 "/>
   <path fill="#BB7427" fill-rule="nonzero" d="M491 669c1,-1 2,-2 3,-2 -1,0 -2,1 -3,2zm3 -2c1,-1 1,-1 2,-1 -1,0 -1,0 -2,1z"/>
   <path fill="#BB7427" fill-rule="nonzero" d="M365 682c-1,-1 -2,-1 -3,-1 1,0 2,0 3,1z"/>
   <path fill="#F2A932" fill-rule="nonzero" d="M411 691c-11,0 -23,-1 -34,-5 11,3 22,5 33,5 23,0 48,-6 74,-19 -24,12 -48,19 -73,19z"/>
   <path fill="#BB7427" fill-rule="nonzero" d="M410 691c-11,0 -22,-2 -33,-5 -2,-1 -5,-2 -8,-3 13,5 27,8 42,8 23,0 50,-7 77,-21 -1,1 -3,2 -4,2 -26,13 -51,19 -74,19z"/>
   <path fill="#705434" fill-rule="nonzero" d="M91 376c0,0 0,0 0,0 1,-5 1,-9 1,-14 0,0 0,0 0,0 0,5 0,9 -1,14z"/>
   <path fill="#705434" fill-rule="nonzero" d="M93 420c0,0 0,0 0,0 -1,-5 -1,-11 -1,-16 0,0 0,0 0,0 0,5 0,11 1,16z"/>
   <path fill="#705434" fill-rule="nonzero" d="M166 342l-6 -4c-11,-7 -22,-15 -32,-22 -9,-6 -18,-12 -26,-17 1,-5 2,-9 3,-13 10,7 20,13 30,20 10,8 21,15 32,22l5 4 -6 10z"/>
   <path fill="#705434" fill-rule="nonzero" d="M158 379l-7 -5c-3,-2 -6,-4 -9,-6 -11,-7 -22,-15 -33,-22 -4,-3 -9,-7 -14,-10 0,-4 1,-9 2,-13 6,4 13,9 19,13l1 0c10,8 21,15 32,22 3,2 5,4 8,6l8 5 -7 10z"/>
   <path fill="#705434" fill-rule="nonzero" d="M340 78l-7 -4c-3,-2 -5,-3 -7,-5 -11,-7 -22,-15 -33,-22 -6,-4 -12,-9 -19,-13 4,-2 8,-5 12,-7 4,3 9,7 14,10 11,7 21,15 32,22 3,1 5,3 8,5l6 4 -6 10z"/>
   <path fill="#705434" fill-rule="nonzero" d="M374 59l-4 -3c-9,-6 -17,-11 -26,-17 -11,-7 -22,-15 -33,-22 -1,-1 -1,-1 -2,-2 4,-2 8,-4 13,-5 9,6 19,13 29,19 9,6 17,12 26,17l4 3 -7 10z"/>
   <path fill="#705434" fill-rule="nonzero" d="M418 47l-1 -1c-16,-11 -35,-24 -54,-37 -4,-2 -8,-5 -12,-7 7,-1 13,-2 20,-2 19,13 37,25 53,36l1 1 -7 10z"/>
   <path fill="#705434" fill-rule="nonzero" d="M202 240l-1 -1c-6,-4 -12,-8 -18,-13 -15,-10 -30,-20 -45,-29 2,-4 3,-7 5,-10 20,13 40,27 60,39 2,2 4,3 6,4l-7 10z"/>
   <path fill="#705838" fill-rule="nonzero" d="M209 230c-2,-1 -4,-2 -6,-4 -20,-12 -40,-26 -60,-39 0,0 0,-1 1,-1 15,10 31,20 46,30l1 1c5,4 11,8 17,12l1 1 0 0z"/>
   <path fill="#705434" fill-rule="nonzero" d="M310 100l-2 -1c-12,-7 -23,-15 -33,-22 -10,-7 -20,-14 -30,-20 3,-3 6,-6 9,-9 10,6 19,13 28,19 10,7 21,15 32,22l1 1 -2 5 -3 5z"/>
   <path fill="#705434" fill-rule="nonzero" d="M175 306l-1 -1c-9,-6 -19,-12 -28,-19 -11,-8 -23,-16 -35,-23 2,-4 3,-8 4,-12 13,8 26,17 38,25 9,7 18,13 28,19l1 1 -7 10z"/>
   <path fill="#705434" fill-rule="nonzero" d="M283 125l-1 -1c-9,-6 -17,-11 -25,-17 -13,-9 -26,-18 -39,-26 3,-3 6,-6 9,-9 12,8 25,17 37,25 8,6 16,11 24,17l2 1 -7 10z"/>
   <path fill="#312D2A" fill-rule="nonzero" d="M643 158c0,0 -4,-3 -16,-10 12,7 16,10 16,10 0,0 -4,-3 -8,-5 4,2 8,5 8,5zm-8 -5c-1,0 -1,0 -1,0 0,0 0,0 1,0zm-1 -1c-5,-3 -9,-5 -9,-5 0,0 4,2 9,5zm-9 -5l0 0c0,0 0,0 0,0 0,0 0,0 0,0z"/>
   <path fill="#705434" fill-rule="nonzero" d="M643 158c0,0 -4,-3 -16,-10 0,0 0,0 -1,0 0,-1 -1,-1 -1,-1 0,0 0,0 0,0l0 0c0,0 4,2 9,5 0,0 0,0 0,0 0,0 0,0 0,1 0,0 0,0 1,0 0,0 0,0 0,0 4,2 8,5 8,5z"/>
   <path fill="#312D2A" fill-rule="nonzero" d="M626 148c0,0 0,-1 0,-1 0,0 0,1 0,1zm0 -1c0,0 -1,0 -1,0 0,0 1,0 1,0zm-1 0l0 0 0 0zm0 0c0,0 0,0 0,0l0 0c0,0 0,0 0,0z"/>
   <path fill="#5C4530" fill-rule="nonzero" d="M626 148c0,0 0,0 0,0 0,0 0,-1 0,-1l0 0c0,0 -1,0 -1,0 0,0 0,0 0,0l0 0c0,0 0,0 0,0l0 0c0,0 0,0 0,0 0,0 0,0 0,0 0,0 1,0 1,1zm-1 -1l0 0z"/>
   <path fill="#705434" fill-rule="nonzero" d="M188 272l-2 -1c-7,-5 -14,-9 -21,-14l0 -1c-14,-9 -28,-18 -41,-27 1,-4 3,-8 4,-11 15,9 29,19 44,28l1 1c6,5 13,9 20,14l2 1 -7 10z"/>
   <path fill="#705838" fill-rule="nonzero" d="M219 209l-1 -1c-6,-4 -11,-8 -16,-11 -16,-11 -32,-22 -47,-31 2,-4 4,-7 6,-11 16,10 32,21 47,32 6,3 11,7 16,11l2 1 -7 10z"/>
   <path fill="#312D2A" fill-rule="nonzero" d="M200 101c1,0 1,0 1,0 0,0 0,0 -1,0z"/>
   <path fill="#705434" fill-rule="nonzero" d="M200 101c0,0 0,0 0,0 1,0 1,0 1,0l0 0c0,0 0,0 -1,0z"/>
   <path fill="#705838" fill-rule="nonzero" d="M260 151l-2 -1c-7,-4 -13,-9 -20,-13 -14,-10 -29,-20 -43,-29 2,-2 3,-5 5,-7 1,0 1,0 1,0l0 0 2 -3c14,10 28,19 42,29 7,4 13,9 20,13l1 1 -6 10z"/>
   <path fill="#705838" fill-rule="nonzero" d="M238 179l-1 -1c-6,-4 -12,-7 -17,-11 -16,-11 -31,-21 -46,-31 2,-3 4,-7 7,-10 15,10 31,20 46,31 5,3 11,7 16,11l2 1 -7 10z"/>
   <path fill="#2B2825" fill-rule="nonzero" d="M224 588c-10,-7 -20,-15 -31,-22 -16,-10 -33,-20 -47,-33 0,0 0,0 -1,0 1,0 1,0 1,0 14,13 31,23 47,33 11,7 21,15 31,22l0 0zm-79 -55c0,0 0,0 0,0 0,0 0,0 0,0zm0 0c0,0 0,0 0,0 0,0 0,0 0,0zm0 -1c0,0 0,0 0,0 0,0 0,0 0,0z"/>
   <path fill="#B06328" fill-rule="nonzero" d="M301 641c0,0 0,0 0,0 0,0 0,0 0,0z"/>
   <path fill="#DE982A" fill-rule="nonzero" d="M347 672c-16,-10 -31,-21 -46,-31 0,0 0,0 0,0 0,-1 0,-1 0,-1l0 0c-18,-12 -37,-24 -54,-37 -8,-4 -15,-9 -23,-15 -10,-7 -20,-15 -31,-22 -16,-10 -33,-20 -47,-33 0,0 0,0 -1,0 0,0 0,0 0,0 0,0 0,0 0,0 0,0 0,0 0,0 0,0 0,0 0,0 0,0 0,-1 0,-1 0,0 0,0 0,0 -33,-28 -47,-69 -52,-112 4,2 8,5 12,8 18,12 36,24 49,33l2 1 7 -10 -2 -1c-13,-9 -31,-21 -49,-33 -7,-5 -14,-9 -20,-14 -1,-9 -1,-18 -1,-28 11,7 22,15 33,22 9,6 18,12 27,18l4 3 7 -10 -5 -3c-8,-6 -17,-12 -27,-18 -11,-7 -21,-15 -32,-22 -2,-1 -4,-3 -6,-4 0,-3 1,-5 1,-8 3,2 7,5 10,7 61,39 119,84 179,124 -1,11 -1,22 -1,32l0 0c0,1 0,1 0,1 0,0 0,0 0,0 0,0 0,0 0,1 0,0 0,0 0,0 0,0 0,0 0,0 0,0 0,0 0,0 0,1 0,1 0,1 0,0 0,0 0,0 0,0 0,0 0,0 0,1 0,1 0,1 0,0 0,0 0,0 0,0 0,0 0,0 0,0 0,0 0,0 0,1 0,1 0,1 0,0 0,0 0,0 2,72 27,124 66,150zm-249 -221c2,6 4,12 6,18 22,14 42,29 60,41l2 1 7 -10 -2 -1c-21,-15 -46,-32 -73,-49z"/>
   <path fill="#AD6928" fill-rule="nonzero" d="M348 673c0,0 -1,-1 -1,-1 -39,-26 -64,-78 -66,-150 2,73 27,125 67,151zm-67 -151c0,0 0,0 0,-1 0,1 0,1 0,1zm0 -1c0,0 0,0 0,0 0,0 0,0 0,0zm0 0c0,0 0,0 0,-1 0,1 0,1 0,1zm0 -1c0,0 0,0 0,0 0,0 0,0 0,0zm0 -1c0,0 0,0 0,0 0,0 0,0 0,0zm0 0c0,0 0,0 0,0 0,0 0,0 0,0zm0 -1c0,0 0,0 0,0 0,0 0,0 0,0zm0 -1c0,-10 0,-21 1,-32 0,0 0,0 0,0 -1,11 -1,22 -1,32z"/>
   <path fill="#664A2E" fill-rule="nonzero" d="M155 419l-4 -3c-9,-6 -18,-12 -27,-18 -11,-7 -22,-15 -33,-22 1,-5 1,-9 1,-14 2,1 4,3 6,4 11,7 21,15 32,22 10,6 19,12 27,18l5 3 -7 10z"/>
   <path fill="#664A2E" fill-rule="nonzero" d="M166 511l-2 -1c-18,-12 -38,-27 -60,-41 -2,-6 -4,-12 -6,-18 27,17 52,34 73,49l2 1 -7 10z"/>
   <path fill="#664A2E" fill-rule="nonzero" d="M156 462l-2 -1c-13,-9 -31,-21 -49,-33 -4,-3 -8,-6 -12,-8 -1,-5 -1,-11 -1,-16 6,5 13,9 20,14 18,12 36,24 49,33l2 1 -7 10z"/>
   <polygon fill="#F3B23C" fill-rule="nonzero" points="221,976 25,843 "/>
   <polygon fill="none" fill-rule="nonzero" stroke="#D0DCE4" stroke-width="51.8319" points="221,976 25,843 "/>
   <path fill="#705434" fill-rule="nonzero" d="M154 772l-2 -1c-5,-4 -11,-8 -16,-11 -12,-8 -24,-16 -35,-24 2,-3 5,-6 7,-9 12,7 23,15 35,23 5,3 10,7 16,11l1 1 -6 10z"/>
   <path fill="#705434" fill-rule="nonzero" d="M136 794l-2 -1c-5,-4 -10,-7 -15,-11 -12,-8 -24,-16 -35,-23 2,-3 5,-6 7,-10 12,8 23,15 34,23 5,4 11,7 16,11l2 1 -7 10z"/>
   <path fill="#705434" fill-rule="nonzero" d="M171 751l-1 -1c-6,-4 -11,-7 -16,-11 -13,-9 -25,-17 -37,-24 3,-4 5,-7 8,-10 12,8 24,16 35,24 6,3 11,7 16,11l2 1 -7 10z"/>
   <path fill="#312D2A" fill-rule="nonzero" d="M139 687c1,-1 2,-2 3,-3l0 0c-1,1 -2,2 -3,3z"/>
   <path fill="#705434" fill-rule="nonzero" d="M188 730l-2 -1c-5,-4 -10,-7 -15,-11 -13,-9 -25,-17 -37,-24 2,-3 3,-5 5,-7 1,-1 2,-2 3,-3 12,8 24,16 35,24 6,3 11,7 16,11l2 1 -7 10z"/>
   <path fill="#5F442F" fill-rule="nonzero" d="M244 667l-1 -1c-6,-4 -11,-7 -16,-11 -13,-9 -26,-18 -39,-26 2,-3 5,-6 8,-9 13,8 25,16 37,25 6,3 11,7 16,11l2 1 -7 10z"/>
   <path fill="#705434" fill-rule="nonzero" d="M169 651c0,0 0,0 0,0 1,-1 2,-2 2,-3 0,1 -1,2 -2,3z"/>
   <path fill="#5F442F" fill-rule="nonzero" d="M225 689l-1 -2c-6,-3 -11,-7 -16,-10 -13,-9 -26,-18 -39,-26 1,-1 2,-2 2,-3 2,-2 4,-4 6,-7 13,9 25,17 37,25 6,4 11,8 17,11l1 2 -7 10z"/>
   <path fill="#312D2A" fill-rule="nonzero" d="M205 609l0 0c1,0 1,-1 1,-1 0,0 0,1 -1,1z"/>
   <path fill="#705434" fill-rule="nonzero" d="M205 609l0 0c1,0 1,-1 1,-1 1,-1 2,-2 3,-3 -1,1 -2,3 -4,4z"/>
   <path fill="#5F442F" fill-rule="nonzero" d="M260 646l-2 -1c-5,-4 -10,-7 -16,-11 -12,-9 -24,-17 -37,-25 2,-1 3,-3 4,-4 2,-2 3,-3 5,-5 12,8 23,16 35,24 5,3 11,7 16,11l2 1 -7 10z"/>
   <path fill="#705434" fill-rule="nonzero" d="M120 819l-2 -2c-5,-3 -10,-7 -16,-10 -12,-9 -24,-17 -35,-24 2,-3 4,-7 7,-10 12,8 23,15 35,23 5,4 11,8 16,11l2 1 -7 11z"/>
   <path fill="#312D2A" fill-rule="nonzero" d="M151 673c0,0 0,0 0,0 0,-1 0,-1 1,-1 -1,0 -1,0 -1,1z"/>
   <path fill="#705434" fill-rule="nonzero" d="M204 708l-2 -1c-5,-3 -11,-7 -16,-11 -12,-8 -23,-16 -35,-23 0,-1 0,-1 1,-1 2,-3 4,-6 6,-8l52 35 -6 9z"/>
   <path fill="#5F442F" fill-rule="nonzero" d="M210 699l-52 -35c0,0 0,-1 1,-1 11,8 23,15 34,23 5,4 10,7 16,11l2 1 -1 1z"/>
  </g>
 </g>
</svg>
