<?xml version="1.0" encoding="UTF-8"?>
<!DOCTYPE svg PUBLIC "-//W3C//DTD SVG 1.1//EN" "http://www.w3.org/Graphics/SVG/1.1/DTD/svg11.dtd">
<!-- Creator: CorelDRAW X7 -->
<svg xmlns="http://www.w3.org/2000/svg" xml:space="preserve" width="928px" height="479px" version="1.1" shape-rendering="geometricPrecision" text-rendering="geometricPrecision" image-rendering="optimizeQuality" fill-rule="evenodd" clip-rule="evenodd"
viewBox="0 0 1607 829"
 xmlns:xlink="http://www.w3.org/1999/xlink">
 <g id="Слой_x0020_1">
  <metadata id="CorelCorpID_0Corel-Layer"/>
  <g id="_5734669072">
   <path fill="#E0E0E2" fill-rule="nonzero" d="M908 829c-385,0 -698,-27 -698,-61 0,-34 313,-61 698,-61 386,0 699,27 699,61 0,34 -313,61 -699,61z"/>
   <path fill="#8D8578" d="M1518 730c-3,-7 -10,-24 -16,-27 -15,-6 -34,11 -48,20 -16,11 -10,19 -1,20 17,1 56,2 63,-3 7,-5 2,-10 2,-10z"/>
   <path fill="#878173" d="M664 744c-5,-14 -7,-42 -35,-26 -28,16 -47,38 -30,39 18,1 57,3 64,-2 6,-6 1,-11 1,-11z"/>
   <path fill="#FCD5A6" d="M544 452c-17,-27 -75,-12 -111,-26 -37,-13 -32,-22 -37,-12 -6,9 -45,108 -123,125 -78,18 -136,39 -145,29 -9,-11 -10,-10 -9,-13 1,-2 12,-8 26,-20 14,-12 19,-20 19,-20 0,0 -23,24 -32,29 -9,5 -14,12 -18,10 -4,-2 -7,-15 -8,-16 -2,-1 -17,-10 -17,-26 1,-17 -9,-32 -16,-45 -7,-12 -3,-22 -5,-25 -2,-3 16,-30 25,-44 9,-13 8,-1 22,-15 14,-15 14,-15 14,-15 0,0 17,-21 37,-29 20,-8 23,-4 36,-23 13,-18 15,-64 15,-64 0,0 -21,-5 -30,-33 -8,-27 -6,-70 -2,-65 3,6 32,11 61,28 30,16 33,20 33,20 0,0 44,-28 68,-54 25,-26 195,-141 253,-147 58,-6 265,24 366,28 101,3 120,-19 244,-11 125,8 170,39 202,67 32,28 58,87 82,148 24,62 33,154 59,189 26,35 44,43 38,46 -6,3 -40,-18 -56,-37 -15,-20 -28,-68 -37,-104 -9,-35 -8,-42 -8,-42 0,0 -9,47 -9,72 1,24 0,60 47,117 48,58 66,57 62,79 -3,21 -28,64 -20,104 9,40 20,56 15,70 -4,15 -36,21 -63,20 -28,-1 -43,2 -47,-9 -4,-10 -1,-18 8,-24 9,-5 16,-14 17,-25 1,-11 13,-34 -15,-96 -29,-63 -113,-119 -113,-119 0,0 -29,35 -37,97 -9,62 13,82 -10,101 -24,19 -63,26 -74,36 -12,10 -11,47 -24,57 -13,10 -75,11 -87,10 -13,-2 -1,-12 -1,-12 0,0 -36,-6 -42,-13 -5,-8 0,-7 10,-15 9,-8 33,-11 38,-18 5,-7 46,-32 59,-66 13,-34 33,-98 32,-121 -2,-22 -19,-55 -34,-87 -16,-32 -16,-38 -18,-39 -2,0 -29,67 -170,79 -140,13 -250,-20 -250,-20 0,0 -17,35 -19,64 -2,29 15,49 7,85 -8,36 -27,72 -26,89 1,16 19,39 4,48 -15,10 -99,19 -99,6 -1,-13 2,-38 17,-64 14,-26 10,-73 4,-99 -5,-25 -9,-55 -13,-51 -4,5 -73,46 -73,59 0,12 6,17 22,38 16,21 34,24 35,43 1,19 -22,71 -39,78 -16,8 -25,7 -23,-7 1,-14 -14,-45 -35,-67 -21,-22 -42,-70 -33,-99 9,-30 30,-93 38,-106 7,-13 13,-28 13,-28z"/>
   <path fill="#B1A09B" d="M1389 486c-10,-8 -17,-12 -17,-12 0,0 -29,35 -37,97 -9,62 13,82 -10,101 -24,19 -63,26 -74,36 -12,10 -11,47 -24,57 -3,2 -8,4 -15,5 9,-11 16,-14 14,-37 -2,-29 -25,-53 -12,-48 13,5 25,26 27,17 2,-9 -6,-33 1,-27 6,6 12,9 16,11 3,3 17,10 33,-9 17,-18 1,-41 11,-42 11,-2 30,23 30,10 0,-14 -15,-44 -15,-50 1,-7 4,-57 15,-80 12,-23 40,-42 84,-102 43,-60 61,-88 58,-81 -3,5 -51,79 -85,154z"/>
   <path fill="#9E9690" d="M1490 285c-1,-6 -5,-39 -19,-78 -14,-40 -50,-85 -50,-85 54,103 110,183 -49,352 0,0 84,56 113,119 28,62 16,85 15,96 -1,11 -8,20 -17,25 -9,6 -12,14 -8,24 4,11 19,8 47,9 27,1 59,-5 63,-20 5,-14 -6,-30 -15,-70 -8,-40 17,-83 20,-104 4,-22 -14,-21 -62,-79 -47,-57 -46,-93 -47,-117 0,-25 9,-72 9,-72zm0 3c-1,-2 0,-3 0,-3 0,1 0,2 0,3z"/>
   <path fill="#A8A19D" d="M1487 265c-3,5 -7,12 -11,19 -2,40 -18,84 -60,139 -2,2 -3,5 -4,7 -10,21 -23,35 -6,22 18,-14 60,-38 53,-29 -7,10 -40,56 -26,49 14,-8 38,-14 37,-7 -1,8 -7,29 -1,35 7,6 26,-4 27,2 1,6 25,9 37,23 12,14 25,7 19,37 -6,31 -12,29 -9,64 2,35 16,71 17,60 2,-12 -10,-50 0,-80 10,-30 3,-43 16,-43 4,0 8,1 11,1 2,-4 3,-8 3,-11 4,-22 -14,-21 -62,-79 -47,-57 -46,-93 -47,-117 0,-14 3,-34 5,-50 0,-4 0,-7 0,-9 0,-5 1,-13 3,-20 -1,-4 -1,-8 -2,-13z"/>
   <path fill="#ABA29A" d="M1187 678c7,-8 13,-17 17,-27 13,-34 33,-98 32,-121 -2,-22 -19,-55 -34,-87 -16,-32 -16,-38 -18,-39 0,0 -1,1 -2,3 -6,-16 -12,-47 15,-86 37,-55 93,-94 86,-80 -6,14 -15,38 -15,38 0,0 68,-5 77,-1 9,4 -78,43 -69,41 8,-2 84,14 64,20 -19,5 -77,10 -84,45 -6,35 34,38 32,57 -2,20 -16,20 -14,39 2,18 18,27 10,36 -8,9 -17,14 -16,20 2,7 33,40 22,40 -10,1 -34,0 -34,0 0,0 -22,0 -15,5 6,5 55,61 47,55 -8,-6 -59,-31 -48,-14 11,17 26,41 20,40 -6,0 -25,-16 -31,-10 -6,6 -23,25 -41,26l-1 0z"/>
   <path fill="#ABA29A" d="M1184 404c-2,0 -29,67 -170,79 -140,13 -250,-20 -250,-20 0,0 -3,7 -7,18 -5,-2 -7,-4 -7,-4 22,-25 30,-59 26,-110 -3,-51 -22,-136 -11,-125 11,12 69,129 78,103 8,-25 2,-77 19,-64 17,13 42,48 46,32 5,-16 -23,-126 -14,-117 9,9 46,162 65,134 20,-27 11,-96 26,-73 16,23 45,98 49,56 5,-41 -15,-135 -4,-122 10,14 59,171 62,136 3,-35 -12,-168 8,-130 20,39 50,151 50,151 0,0 4,-47 10,-71 17,-72 104,-143 84,-124 -92,85 -64,175 -53,141 28,-78 70,-88 70,-88 -51,37 -71,88 -73,137 -1,50 -2,55 -4,61z"/>
   <path fill="#ABA29A" d="M641 542c0,-1 -1,-1 -2,-1 -4,5 -73,46 -73,59 0,6 1,10 5,16 -15,-5 -24,-8 -15,-25 14,-28 56,-37 74,-58 18,-20 -6,-33 8,-42 15,-8 25,6 35,0 11,-6 34,-17 58,-29 25,-13 23,-16 27,-22 5,-6 24,-17 25,-62 0,-46 -16,-64 -23,-95 -7,-30 25,-88 25,-88 0,0 -19,50 -16,78 3,29 21,69 24,99 2,30 -8,58 -8,58 0,0 16,-10 18,-42 2,-32 -8,-63 -8,-63 0,0 18,19 20,47 2,28 -19,74 -19,74 0,0 18,11 11,14 -8,4 -32,1 -43,3 -11,3 -112,65 -123,79l0 0z"/>
   <path fill="#B2A3A0" d="M544 452c-1,-2 -2,-3 -4,-5 2,-5 3,-7 3,-7 3,-3 14,-11 45,-10 32,1 57,7 44,7 -14,-1 -96,21 -74,23 22,1 54,16 48,14 -5,-1 -56,16 -62,32 -6,17 14,35 0,40 -14,6 -31,14 -28,25 2,9 -14,34 -25,41 -1,-10 -1,-19 2,-26 9,-30 30,-93 38,-106 7,-13 13,-28 13,-28z"/>
   <path fill="#ABA29A" d="M217 553c-3,-3 -4,-6 -4,-13 0,-8 -9,4 -21,14 -11,11 -27,10 -35,7 -9,-3 13,-30 14,-40 0,-11 -6,9 -19,29 -8,12 -15,17 -19,20 12,2 42,-6 84,-17zm327 -101c-17,-27 -75,-12 -111,-26 -37,-13 -32,-22 -37,-12 -6,9 -27,99 -123,125 -93,27 -22,-9 -34,-7 7,-8 29,-18 19,-26 -15,-10 28,-5 37,-28 9,-23 4,-33 21,-42 18,-10 30,-21 30,-52 1,-30 -7,-101 5,-74 11,27 16,81 30,90 14,10 60,14 59,4 0,-9 -30,-61 -14,-113 17,-52 59,-140 50,-94 -9,46 -42,152 -9,183 33,30 70,46 78,41 7,-5 -10,-15 -3,-32 6,-16 48,-29 40,-24 -8,5 -36,31 -33,41 2,9 5,9 5,9 0,0 -1,-21 33,-24 34,-3 75,20 62,19 -13,0 -77,-8 -85,1 -8,10 -16,40 -20,41z"/>
   <path fill="#8F8482" d="M199 415c8,3 11,4 7,11 -5,6 -5,9 -14,7 -8,-3 -13,-5 -11,-6 5,-2 1,-8 5,-11 2,-2 9,-3 13,-1z"/>
   <path fill="#ABA29A" d="M217 252c0,0 -21,-5 -30,-33 -7,-24 -6,-62 -3,-65 0,31 15,84 51,86 19,1 22,1 37,-6 0,0 0,-1 1,-2 7,-17 5,-27 5,-30 1,0 1,0 1,0 0,0 1,0 2,-1 3,2 6,5 8,14 2,11 2,22 4,15 2,-6 0,-26 -3,-35 11,-8 27,-19 41,-32 4,5 20,15 20,38 0,24 -8,48 -7,38 1,-10 -17,-52 -16,-50 0,2 6,32 -2,52 -9,19 -21,35 -18,27 2,-9 0,-38 0,-38 0,0 4,16 -13,28 -17,11 -36,16 -29,11 6,-5 16,-22 14,-20 -2,2 -44,14 -39,12 3,-1 11,-3 19,-10 -12,6 -28,9 -43,1z"/>
   <path fill="#4C4849" d="M202 417c-5,-1 -12,0 -16,5 -4,4 -4,7 2,8 5,0 13,2 16,-4 3,-5 -2,-9 -2,-9z"/>
   <path fill="#4C4849" d="M106 485c-7,3 -14,3 -13,8 1,5 7,3 12,8 4,4 5,10 8,6 3,-4 4,-15 1,-19 -4,-3 -8,-3 -8,-3z"/>
   <path fill="#CBB58B" d="M101 395c0,0 -9,5 -41,-29 -32,-34 -48,-68 -58,-87 -9,-16 18,138 68,166 25,-5 46,-46 31,-50z"/>
   <path fill="#B8A57F" d="M101 395l0 0c-6,2 -11,32 -24,32 -13,0 -35,-36 -50,-69 -14,-33 -23,-74 -25,-79 -1,-1 -1,-1 -2,0 -1,16 25,141 70,166 25,-5 46,-46 31,-50z"/>
   <path fill="#CBB58B" d="M161 337c-8,-4 -21,-9 -31,-22 -12,-14 -13,-23 -15,-19 -3,4 -4,33 3,51 8,19 7,28 21,24 9,-2 24,-15 31,-22 4,-4 -5,-10 -9,-12z"/>
   <path fill="#B8A57F" d="M120 301c-3,-5 -4,-7 -5,-5 -3,4 -4,33 3,51 8,19 7,28 21,24 9,-2 24,-15 31,-22 2,-1 1,-4 -1,-6 -4,5 -25,23 -33,17 -7,-7 -16,-27 -17,-45 -1,-8 1,-12 1,-14z"/>
   <path fill="#ABA29A" d="M139 508c2,-31 -52,-26 -52,-26 -29,-7 66,-32 82,-69 3,15 8,28 17,28 10,0 42,-16 36,-6 -7,10 -14,24 -36,26 -22,2 -53,16 -53,16 18,1 31,41 -1,55 -16,8 -24,6 -22,5 15,-7 28,-8 29,-29z"/>
   <path fill="#9D9385" d="M585 726c-9,0 -27,0 -31,11 -4,11 -10,30 1,31 12,0 35,-4 41,-11 6,-7 4,-15 1,-19 -2,-4 -12,-12 -12,-12z"/>
   <path fill="#A39A8B" d="M618 705c-13,-6 -31,3 -37,9 -6,6 -1,21 4,29 5,8 8,14 21,4 13,-10 12,-42 12,-42z"/>
   <path fill="#9E9690" d="M652 592c6,26 10,73 -4,99 -15,26 -18,51 -17,64 0,13 84,4 99,-6 15,-9 -3,-32 -4,-48 -1,-17 18,-53 26,-89 8,-36 -9,-56 -7,-85 2,-29 19,-64 19,-64 -11,3 -112,65 -123,79 4,6 7,29 11,50z"/>
   <path fill="#A39A8B" d="M678 752c-6,-14 -29,-42 -42,-31 -12,12 -41,43 -23,44 17,1 56,2 63,-3 7,-5 2,-10 2,-10z"/>
   <path fill="#8A8376" d="M1161 743c-3,-7 -9,-27 -16,-26 -5,1 -33,11 -48,20 -16,10 -10,19 -1,19 18,2 56,3 63,-2 7,-6 2,-11 2,-11z"/>
   <path fill="#A39A8B" d="M1186 762c-6,-14 -29,-42 -42,-30 -12,11 -41,42 -23,43 17,1 56,2 63,-3 7,-5 2,-10 2,-10z"/>
   <path fill="#A39A8B" d="M1524 737c-5,-15 -18,-39 -35,-30 -17,9 -47,41 -30,42 18,2 57,3 63,-2 7,-6 2,-10 2,-10z"/>
   <path fill="#ABA29A" d="M1337 93c2,3 -69,-32 -119,-36 -49,-5 -43,-13 -18,35 25,48 -19,36 -19,36 -15,-34 -48,-44 -93,6 -28,30 -117,71 -67,21 51,-52 29,-91 -9,-94 -38,-3 -97,-22 -88,-23 9,0 134,11 175,-1 42,-13 35,-12 73,-12 145,2 164,64 165,68z"/>
   <path fill="#ABA29A" d="M697 59c-92,-8 -152,43 -195,91 0,0 0,-36 104,-96 25,-14 -107,37 -91,26 115,-83 162,-60 290,-36 65,12 113,9 95,16 -17,7 -84,-1 -69,34 35,79 18,162 18,162 -16,-34 -11,-184 -152,-197z"/>
   <path fill="#D7B9A6" d="M84 408c-2,7 -3,8 -9,5 -7,-4 -24,-26 -36,-43 -11,-16 -24,-47 -19,-45 5,3 33,50 45,60 9,8 16,12 20,13 3,1 0,6 -1,10z"/>
   <path fill="#D7B9A6" d="M160 343c-3,5 -8,10 -14,8 -7,-1 -13,-7 -19,-22 -6,-14 -8,-23 -4,-17 5,6 10,13 23,22 12,9 14,9 14,9z"/>
  </g>
 </g>
</svg>
