<svg xmlns="http://www.w3.org/2000/svg" width="210mm" height="297mm" shape-rendering="geometricPrecision" text-rendering="geometricPrecision" image-rendering="optimizeQuality" fill-rule="evenodd" clip-rule="evenodd" viewBox="0 0 21000 29700"><g fill-rule="nonzero"><path fill="#312F2D" d="M10130 13217c-192-580-426-1120-793-1617-198-267-422-514-670-737-787-705-1807-1153-2864-1259-140-14-282-22-419 11-136 32-268 109-335 230-120 215-7 487 153 675 161 188 369 340 482 559 146 285 102 627 31 939-70 312-164 631-104 945 50 262 205 497 402 679 194 180 428 311 669 423-40 257-112 484-396 642-129 71-279 112-383 217-104 104-123 311 10 375 145 70 360-72 461 51 60 73 20 186-47 253-67 66-157 109-218 181s-81 196-4 252c98 71 256-30 353 42 71 52 59 165 8 236s-130 118-190 183c-216 232 48 282 220 315 236 45 292 200 186 401-220 412-606 766-1010 998-149 85-311 160-421 290-111 130-153 338-40 467 110 126 320 118 465 31 144-88 239-233 337-369 245-340 575-780 945-996 149-87 292-63 318 118 28 192-68 405 220 448 115 18 233-23 330-87 290-188 411-541 584-839 280-485 724-853 1105-1267 380-414 715-925 693-1483-6-156-42-310-102-453 58-67 106-140 140-218 100-229-44-419-116-636z"/><path fill="#7CC366" d="M8605 11142c-136-121-282-235-451-302-170-68-366-85-534-16-169 70-300 238-294 419 10 252 268 474 200 718-42 150-202 259-208 415-5 175 186 300 215 472 37 225-210 423-178 649 28 198 258 316 307 510 54 213-127 448-36 649 85 189 369 240 429 438 50 164-82 325-103 494-21 179 94 359 255 443 162 84 361 82 534 24 173-59 323-170 456-294 487-456 752-1128 725-1789-27-663-235-1352-574-1923-200-337-451-644-743-907z"/><path fill="#009362" d="M7898 16663c-203 147-385 329-501 550-23 44-44 90-49 139s9 102 46 136c61 56 160 39 234 1 149-76 251-217 347-353l411-582c34-49 69-97 103-146 22-31 73-76 13-88-37-8-105 45-137 62-50 26-99 52-148 80-110 61-218 127-319 201zM7541 16366c-161 69-313 164-426 296-37 43-71 92-80 148-10 55 10 119 58 148 56 32 128 12 185-16 271-135 426-426 676-594 33-22 67-42 103-59 25-12 80-52 44-84-21-19-66 5-88 12-99 32-202 53-301 85-58 19-115 40-171 64zM7379 16092c-151 49-294 119-440 181-34 14-68 28-104 33-37 6-76 2-106-18-53-34-67-107-49-166s63-106 111-146c136-114 307-187 484-205 178-17 361 22 514 112 26 16 54 35 67 63 56 113-114 80-168 83-106 7-209 30-309 63zM7154 15613c-114 46-234 90-357 84-40-2-81-9-116-29-35-19-63-53-69-92-7-50 22-99 57-135 104-108 259-147 407-175 224-43 453-72 681-67 26 0 91-9 89 30-1 30-51 63-73 77-88 59-188 107-283 154-110 55-222 106-336 153zM6885 14913c-65-21-131-48-177-97-46-50-66-128-31-186 19-31 53-53 88-64 36-11 74-13 111-12 240 6 469 117 652 271 37 31 78 77 45 125-24 35-72 28-110 31-124 9-249 3-371-18-70-12-139-29-207-50zM6998 14220c-47-36-92-79-112-135-20-55-9-125 40-160 39-27 92-26 139-17 161 31 304 144 368 293 42 95 16 203-104 177-119-27-235-85-331-158z"/><path fill="#AAE991" d="M8421 15306c-54 62-107 130-127 210-21 80-1 175 68 222 50 34 116 37 177 30 174-19 334-110 463-227s230-261 325-407c121-185 238-385 257-606 3-30 3-62-12-89-50-91-156 29-205 64-83 59-167 119-249 180-161 120-319 246-465 383-82 76-159 156-232 240zM8855 14606c-130 80-265 162-417 178-175 19-351-54-487-163-76-61-146-143-146-239-1-77 44-148 104-196 59-49 133-78 206-103 424-144 879-176 1327-205 75-5 164-4 207 56 85 120-80 230-165 286-123 82-253 156-379 233-83 51-167 102-250 153zM7972 13642c-98-23-198-52-278-113-81-60-139-157-127-257 8-70 51-134 107-179 56-44 125-72 194-91 261-72 544-32 798 61 254 94 485 240 714 384 65 41 184 136 114 225-26 33-78 30-117 32-64 4-129 7-194 10-259 12-520 17-778-5-146-13-291-34-433-67zM7943 12640c-93-52-187-114-230-211-52-117-12-262 80-352s226-129 355-127c130 2 256 41 375 92 410 174 761 482 984 865 23 40 45 88 26 130-45 103-166 25-238 12-99-18-200-28-300-48-234-47-465-108-688-193-125-48-247-103-364-168zM8501 11806c-201-69-411-116-608-197-117-48-238-118-278-237-42-127 34-273 152-339 118-65 266-61 394-15 127 45 238 126 343 211 288 232 560 510 668 862 11 35 16 81-16 101-20 13-49 7-68-8-44-34-68-91-112-129-46-39-95-73-147-104-103-61-214-107-328-145z"/><path fill="#7CC366" d="M7258 12682c-39-43-95-77-153-68-65 10-108 72-134 132-36 87-52 183-45 277 10 133 121 282 274 218 106-44 150-215 151-316 1-89-32-177-93-243zM7345 11657c-22-90-79-184-172-200-89-15-175 52-212 134-36 81-34 174-31 263 2 60 4 121 23 178 39 116 204 208 300 95 103-121 129-321 92-470zM7413 10707c46-31 98-52 146-81 47-30 91-71 104-124 22-83-40-171-122-200-81-29-173-8-249 33-183 99-286 323-242 524 10 47 29 94 66 125 24 21 81 45 113 25 27-18 21-65 31-96 26-83 80-157 153-206zM6892 11425c68 24 146 8 211-25 49-24 95-59 116-109 68-167-149-248-276-189-129 60-239 256-51 323zM6835 12371c-40 35-64 91-49 141 19 60 88 94 151 91 63-4 121-37 172-74 40-28 80-66 82-115 3-44-29-85-70-103-82-38-220 5-286 60zM7257 13665c19 31 43 65 34 99-10 38-54 55-94 59-98 11-202-29-260-107-58-79-63-195-3-273 45-59 182-122 241-47 22 27 23 71 28 104 9 59 23 113 54 165z"/><path fill="#FFFDFF" d="M5744 12708c8 55 47 110 102 119 51 8 101-25 126-68 25-44 28-97 24-147-3-41-11-83-34-117-48-70-146-73-191 2-30 49-34 159-27 211zM5881 12105c28-46 88-73 141-59 120 33 96 192 3 241-111 58-198-90-144-182zM5878 11804c0-44 6-89 27-129 20-40 54-74 97-87s94-3 124 30c68 74 5 191-63 242-27 20-63 26-96 30-61 8-88-27-89-86zM6100 11407c25-40 27-91 13-137-22-77-130-155-192-67-45 64-35 198 34 243 49 32 115 8 145-39zM5638 10843c-49-48-86-113-84-181 1-29 8-58 26-80 17-23 46-38 74-35 37 3 65 33 80 66 16 33 22 69 35 103 21 55 62 103 113 134 22 13 47 25 55 49 22 66-81 95-126 71-60-32-126-80-173-127zM5196 10288c-10-24-19-50-13-75 6-26 32-47 57-40 28 7 36 40 46 66 22 59 71 108 131 131 46 17 99 27 112 83 7 32-5 58-35 72-79 35-155-29-202-83-40-46-73-98-96-154zM5338 10216c12 27 38 50 69 52 38 2 72-31 83-68 11-36 5-76-2-114-6-28-12-56-27-80-33-52-121-58-137 9-6 26-1 56-1 83 1 40-3 81 15 118zM5311 9901c14-17 30-32 41-50s16-42 7-61c-9-21-33-32-56-32-23 1-45 11-64 23-72 47-117 132-113 218 1 32 10 66 35 86 17 14 48 21 68 8 17-12 13-23 15-42 6-55 30-109 67-150zM5468 9923c0 15 9 29 21 37 12 9 27 12 42 13 54 3 109-22 141-65 64-89 22-209-90-219-51-5-170 22-125 96 16 27 56 34 48 71-6 25-36 40-37 67zM5772 9805c6 40 40 75 81 83 23 4 47 0 67-12 35-20 54-63 47-102-4-29-22-56-49-70-70-35-157 23-146 101zM5744 10115c12 2 25 0 36-4 19-6 36-18 48-35 48-72-29-86-83-68-21 7-53 20-61 42-13 35 30 62 60 65zM6048 9843c9 31 44 46 75 53 38 9 78 12 118 8 32-3 67-13 81-41 36-67-68-121-123-121-53-1-173 27-151 101zM6025 12513c29 36 86 45 125 21 25-16 42-43 47-72 8-43-12-92-51-113-97-52-181 90-121 164zM5907 13322c19 25 41 49 70 62 30 12 67 12 91-9 27-24 30-67 17-101s-39-61-64-88c-24-28-48-58-55-94-5-24-1-50-2-75-1-26-7-53-27-69-74-60-113 52-113 103-1 97 24 191 83 271zM6039 12983c1 38 3 80 32 105 24 22 63 24 94 10 30-14 52-41 68-69 34-62 42-137 22-204-10-32-27-63-53-84-55-45-134-25-161 41-23 56-3 142-2 201zM6185 13617c25 43 67 79 116 89 50 10 108-13 129-58 17-36 9-80-12-114-20-34-51-61-83-85-23-18-47-35-75-44s-60-9-85 6c-69 42-21 154 10 206zM6203 13278c15 31 50 50 85 49 34-1 68-20 87-49s24-65 16-99c-8-36-33-70-69-80-90-26-154 111-119 179zM6190 15213c44-17 86-47 106-90 61-127-78-222-195-199-105 20-161 143-111 237 39 74 128 81 200 52zM6183 15850c-23 41-22 99 15 128 22 17 52 21 80 15 27-5 53-18 76-33 28-18 55-38 75-64s31-60 25-92c-7-35-36-65-71-73-69-17-169 63-200 119zM6379 16613c7 30 31 53 59 67 28 13 59 19 89 24 67 11 134 23 201 34 20 3 42 7 62-1 33-14 43-56 40-91-4-57-33-111-77-146-61-49-136-60-208-37-68 22-191 52-166 150zM7697 18045c81-24 143-88 189-159 28-43 51-93 42-143-9-51-64-94-112-75s-58 80-101 106c-54 33-114-16-172-7-123 18-104 193-25 251 50 36 120 45 179 27zM7985 17551c-6-120 47-241 139-319 20-16 46-32 71-23 16 7 27 23 30 40s0 35-3 52c-20 93-64 180-127 252-19 22-49 45-75 32-17-7-25-27-25-45 1-18 8-36 15-52l-25 63zM8268 17046c-8 18-14 39-4 55 8 13 25 18 40 17 15-2 29-9 42-17 73-42 134-102 177-173 28-45 43-102-9-135-34-21-65-17-93 9-30 29-48 71-71 106-30 45-60 88-82 138zM5400 18626c-29 43-48 95-43 147 4 52 36 103 85 123 62 24 132-6 186-44 45-31 86-69 114-116s42-104 31-157-49-103-101-120c-112-39-219 87-272 167z"/><path fill="#CFF9BC" d="M7917 12373c10 76 78 132 145 170 126 71 271 110 417 112 66 1 137-8 188-49 66-54 82-153 50-232-56-142-211-189-345-230-122-37-227-23-339 40-68 37-126 108-116 189zM7871 13223c-49 34-96 83-96 143 0 46 28 89 66 116 37 28 83 43 128 54 135 35 275 46 414 33 89-8 190-35 227-115 34-72-1-162-62-216-171-150-497-138-677-15zM8166 14237c-62 39-124 98-117 171 6 76 85 124 159 147 231 73 499 13 676-151 47-43 90-100 85-164-5-75-76-132-151-147-62-12-123 0-185 12-52 10-106 8-159 16-109 17-215 57-308 116zM8547 15411c-24 38-46 85-26 126 15 30 51 47 86 48 34 0 67-12 99-25 193-83 357-228 461-408 17-30 33-66 22-98-13-42-66-60-109-51-59 13-99 58-147 89-37 23-80 33-119 54-108 59-202 162-267 265zM7869 11183c-61 41-98 122-75 191 24 70 96 110 164 140 64 30 131 57 202 67s146 3 207-33c120-70 135-224 27-312-32-25-69-32-108-39-61-11-118-31-179-45-79-18-168-16-238 31z"/><path fill="#4D4B49" d="M6222 10091c-69-3-142 4-202 40-60 35-104 104-92 172 8 47 41 87 81 114 40 28 86 44 132 61 135 48 271 96 407 144 47 17 96 34 145 24 73-14 124-87 127-160 6-135-108-217-212-280-116-69-250-110-386-115zM6226 10795c-67 36-115 114-99 188 14 68 74 117 137 146 100 45 217 52 322 19 93-29 234-147 151-254-24-31-68-39-104-49-59-17-112-44-170-62-77-23-164-27-237 12zM6677 10085c-25-22-50-49-52-82-1-35 25-67 58-81 32-14 69-13 104-10 86 10 171 38 244 84 43 27 86 66 86 115 1 38-25 73-57 94-137 89-281-28-383-120zM6286 11636c13 80 73 150 151 176 57 20 122 15 178-9 136-60 207-246 116-371-79-109-239-87-340-23-76 48-120 138-105 227zM6427 12076c-53 60-75 143-70 222 4 79 34 156 72 226 13 24 28 48 51 63s56 19 77 2c20-15 25-42 24-66s-8-48-7-72c2-115 154-180 169-294 27-194-224-185-316-81zM6501 12929c-3 35 4 71 12 106 18 87 37 174 55 261 7 34 16 71 45 92 32 25 81 17 114-8 32-25 50-63 61-102 37-125 13-264-58-373-27-39-59-86-111-87-65-1-112 50-118 111z"/><g><path fill="#312F2D" d="M10631 13217c193-580 426-1120 794-1617 197-267 422-514 670-737 787-705 1806-1153 2864-1259 139-14 282-22 419 11 136 32 267 109 335 230 120 215 7 487-154 675-160 188-369 340-481 559-146 285-102 627-31 939 70 312 163 631 104 945-50 262-205 497-403 679-194 180-428 311-668 423 40 257 111 484 395 642 129 71 280 112 384 217 103 104 122 311-11 375-144 70-359-72-461 51-60 73-19 186 48 253 67 66 157 109 218 181s80 196 4 252c-99 71-256-30-353 42-71 52-59 165-8 236s130 118 189 183c216 232-47 282-219 315-236 45-292 200-186 401 219 412 606 766 1010 998 149 85 310 160 421 290s153 338 40 467c-111 126-321 118-465 31-144-88-240-233-337-369-245-340-576-780-946-996-148-87-292-63-317 118-28 192 68 405-221 448-115 18-232-23-329-87-291-188-411-541-584-839-281-485-725-853-1105-1267s-716-925-693-1483c6-156 42-310 102-453-58-67-106-140-140-218-100-229 44-419 115-636z"/><path fill="#7CC366" d="M12157 11142c135-121 282-235 451-302 169-68 366-85 534-16 168 70 300 238 293 419-9 252-268 474-200 718 42 150 203 259 208 415 6 175-185 300-214 472-38 225 210 423 178 649-28 198-258 316-307 510-55 213 127 448 36 649-86 189-369 240-430 438-49 164 83 325 103 494 22 179-93 359-255 443s-360 82-533 24c-173-59-323-170-456-294-487-456-752-1128-725-1789 27-663 234-1352 574-1923 200-337 450-644 743-907z"/><path fill="#009362" d="M12864 16663c203 147 385 329 501 550 23 44 44 90 49 139 4 49-9 102-46 136-61 56-160 39-234 1-149-76-251-217-347-353l-411-582c-34-49-69-97-103-146-22-31-73-76-14-88 37-8 106 45 138 62 50 26 99 52 148 80 110 61 217 127 319 201zM13221 16366c161 69 313 164 426 296 37 43 70 92 80 148 9 55-10 119-59 148-55 32-127 12-185-16-270-135-425-426-676-594-33-22-67-42-102-59-25-12-80-52-45-84 21-19 67 5 89 12 98 32 201 53 300 85 58 19 116 40 172 64zM13383 16092c151 49 294 119 440 181 33 14 68 28 104 33 36 6 75 2 106-18 52-34 67-107 49-166-19-59-64-106-111-146-136-114-307-187-485-205-177-17-360 22-513 112-27 16-54 35-68 63-55 113 114 80 169 83 105 7 209 30 309 63zM13608 15613c114 46 233 90 357 84 40-2 81-9 115-29 35-19 64-53 69-92 8-50-21-99-57-135-103-108-259-147-406-175-225-43-453-72-682-67-26 0-90-9-88 30 1 30 51 63 72 77 89 59 189 107 284 154 110 55 222 106 336 153zM13877 14913c65-21 131-48 177-97 46-50 66-128 31-186-20-31-53-53-89-64-35-11-73-13-110-12-240 6-469 117-652 271-37 31-78 77-45 125 24 35 71 28 109 31 124 9 249 3 372-18 70-12 139-29 207-50zM13763 14220c47-36 92-79 113-135 20-55 8-125-40-160-39-27-92-26-140-17-161 31-303 144-368 293-41 95-16 203 105 177 119-27 234-85 330-158z"/><path fill="#AAE991" d="M12341 15306c54 62 107 130 127 210s0 175-68 222c-50 34-116 37-177 30-174-19-334-110-463-227s-230-261-325-407c-122-185-238-385-257-606-3-30-3-62 11-89 50-91 156 29 206 64 83 59 166 119 249 180 161 120 319 246 465 383 81 76 159 156 232 240zM11907 14606c130 80 265 162 417 178 175 19 351-54 487-163 75-61 145-143 146-239 1-77-44-148-104-196-60-49-133-78-206-103-425-144-879-176-1327-205-75-5-164-4-207 56-85 120 80 230 164 286 124 82 254 156 380 233 83 51 166 102 250 153zM12790 13642c98-23 198-52 278-113 80-60 139-157 127-257-9-70-52-134-108-179-56-44-124-72-193-91-262-72-544-32-799 61-254 94-484 240-713 384-65 41-184 136-115 225 27 33 79 30 117 32 65 4 130 7 195 10 259 12 519 17 778-5 145-13 290-34 433-67zM12818 12640c93-52 188-114 231-211 52-117 12-262-80-352s-226-129-356-127c-129 2-255 41-374 92-411 174-762 482-984 865-23 40-46 88-27 130 46 103 167 25 238 12 100-18 201-28 301-48 233-47 465-108 687-193 125-48 247-103 364-168zM12260 11806c202-69 412-116 609-197 116-48 238-118 277-237 42-127-33-273-151-339-118-65-266-61-394-15-128 45-238 126-343 211-289 232-561 510-668 862-11 35-16 81 15 101 21 13 49 7 68-8 44-34 68-91 113-129 46-39 95-73 147-104 103-61 214-107 327-145z"/><path fill="#7CC366" d="M13503 12682c40-43 96-77 153-68 66 10 109 72 134 132 37 87 53 183 46 277-10 133-121 282-274 218-106-44-150-215-152-316-1-89 33-177 93-243zM13416 11657c23-90 80-184 172-200 89-15 176 52 212 134 37 81 35 174 32 263-2 60-4 121-23 178-40 116-204 208-300 95-104-121-129-321-93-470zM13349 10707c-46-31-99-52-146-81-47-30-91-71-105-124-21-83 41-171 122-200 82-29 174-8 250 33 183 99 286 323 242 524-10 47-29 94-66 125-25 21-81 45-113 25-27-18-22-65-31-96-26-83-80-157-153-206zM13870 11425c-69 24-146 8-211-25-49-24-95-59-116-109-68-167 148-248 276-189 129 60 239 256 51 323zM13927 12371c40 35 64 91 48 141-18 60-87 94-150 91-64-4-121-37-172-74-40-28-80-66-83-115-2-44 30-85 70-103 82-38 221 5 287 60zM13505 13665c-19 31-44 65-34 99 10 38 54 55 93 59 98 11 203-29 261-107 58-79 62-195 3-273-46-59-182-122-241-47-22 27-23 71-28 104-10 59-23 113-54 165z"/><path fill="#FFFDFF" d="M15017 12708c-8 55-46 110-102 119-50 8-100-25-125-68-25-44-29-97-25-147 4-41 12-83 35-117 47-70 146-73 191 2 29 49 34 159 26 211zM14880 12105c-27-46-87-73-140-59-120 33-96 192-3 241 111 58 198-90 143-182zM14883 11804c1-44-6-89-26-129s-54-74-97-87-94-3-125 30c-67 74-5 191 64 242 27 20 62 26 96 30 61 8 88-27 88-86zM14662 11407c-26-40-27-91-14-137 23-77 131-155 193-67 45 64 35 198-35 243-49 32-114 8-144-39zM15124 10843c49-48 85-113 84-181-1-29-8-58-26-80-17-23-46-38-75-35-36 3-64 33-80 66-15 33-21 69-34 103-21 55-62 103-114 134-21 13-47 25-55 49-22 66 81 95 127 71 59-32 125-80 173-127zM15566 10288c10-24 19-50 12-75-6-26-32-47-57-40-27 7-36 40-45 66-22 59-71 108-131 131-47 17-99 27-112 83-7 32 5 58 35 72 78 35 155-29 202-83 40-46 73-98 96-154zM15424 10216c-13 27-39 50-69 52-39 2-73-31-84-68-11-36-4-76 3-114 6-28 12-56 27-80 33-52 121-58 137 9 6 26 1 56 0 83 0 40 3 81-14 118zM15451 9901c-14-17-30-32-41-50s-17-42-8-61c10-21 34-32 57-32 23 1 44 11 63 23 73 47 118 132 114 218-1 32-10 66-35 86-17 14-49 21-68 8-18-12-13-23-15-42-6-55-31-109-67-150zM15294 9923c0 15-9 29-21 37-13 9-28 12-43 13-53 3-108-22-140-65-65-89-22-209 90-219 51-5 170 22 125 96-16 27-56 34-48 71 6 25 36 40 37 67zM14989 9805c-6 40-40 75-80 83-23 4-47 0-67-12-35-20-54-63-48-102 5-29 23-56 50-70 70-35 157 23 145 101zM15017 10115c-12 2-24 0-35-4-19-6-37-18-48-35-48-72 29-86 83-68 21 7 52 20 61 42 12 35-31 62-61 65zM14713 9843c-9 31-43 46-74 53-39 9-79 12-118 8-32-3-67-13-82-41-35-67 69-121 124-121 53-1 172 27 150 101zM14737 12513c-29 36-86 45-126 21-25-16-42-43-47-72-8-43 13-92 52-113 97-52 181 90 121 164zM14855 13322c-19 25-42 49-71 62-29 12-66 12-90-9-28-24-30-67-17-101s39-61 63-88c25-28 48-58 55-94 5-24 2-50 3-75 0-26 7-53 27-69 74-60 112 52 113 103 1 97-25 191-83 271zM14723 12983c-1 38-4 80-32 105-25 22-64 24-94 10s-53-41-69-69c-34-62-42-137-21-204 10-32 27-63 53-84 55-45 134-25 161 41 22 56 3 142 2 201zM14577 13617c-25 43-67 79-117 89s-107-13-128-58c-17-36-9-80 11-114 21-34 52-61 84-85 23-18 47-35 75-44 27-9 59-9 84 6 70 42 22 154-9 206zM14559 13278c-15 31-50 50-85 49s-68-20-87-49-24-65-17-99c9-36 34-70 69-80 91-26 154 111 120 179zM14572 15213c-45-17-86-47-107-90-61-127 79-222 195-199 105 20 162 143 112 237-40 74-129 81-200 52zM14579 15850c23 41 22 99-15 128-22 17-53 21-80 15-28-5-53-18-77-33-28-18-55-38-74-64-20-26-31-60-25-92 7-35 36-65 70-73 70-17 170 63 201 119zM14383 16613c-7 30-32 53-59 67-28 13-59 19-89 24-67 11-134 23-201 34-21 3-43 7-62-1-33-14-43-56-41-91 5-57 34-111 78-146 61-49 136-60 208-37 68 22 191 52 166 150zM13065 18045c-81-24-144-88-189-159-28-43-51-93-42-143 9-51 64-94 112-75s58 80 100 106c55 33 114-16 172-7 124 18 105 193 25 251-50 36-119 45-178 27zM12777 17551c6-120-47-241-139-319-20-16-46-32-71-23-16 7-27 23-30 40s-1 35 3 52c20 93 64 180 127 252 19 22 48 45 75 32 17-7 25-27 25-45-1-18-8-36-15-52l25 63zM12494 17046c8 18 14 39 4 55-9 13-25 18-41 17-15-2-29-9-42-17-72-42-133-102-177-173-27-45-42-102 10-135 33-21 64-17 92 9 31 29 49 71 72 106 29 45 60 88 82 138zM15362 18626c28 43 47 95 43 147-5 52-36 103-85 123-62 24-132-6-186-44-45-31-86-69-114-116s-42-104-31-157c10-53 48-103 100-120 112-39 220 87 273 167z"/><path fill="#CFF9BC" d="M12844 12373c-10 76-77 132-144 170-127 71-271 110-417 112-66 1-137-8-188-49-66-54-82-153-51-232 57-142 212-189 346-230 122-37 226-23 339 40 67 37 126 108 115 189zM12890 13223c50 34 96 83 97 143 0 46-29 89-66 116-37 28-83 43-128 54-135 35-276 46-414 33-89-8-190-35-228-115-34-72 2-162 63-216 171-150 496-138 676-15zM12596 14237c62 39 124 98 117 171-7 76-86 124-159 147-231 73-500 13-676-151-47-43-90-100-86-164 5-75 77-132 151-147 63-12 124 0 185 12 53 10 106 8 160 16 109 17 215 57 308 116zM12215 15411c24 38 45 85 25 126-15 30-51 47-85 48-34 0-68-12-99-25-193-83-357-228-461-408-18-30-34-66-23-98 14-42 67-60 110-51 58 13 98 58 147 89 37 23 80 33 119 54 108 59 201 162 267 265zM12892 11183c62 41 99 122 75 191-23 70-95 110-163 140-65 30-132 57-202 67-71 10-146 3-208-33-119-70-135-224-26-312 32-25 68-32 107-39 62-11 119-31 180-45 79-18 168-16 237 31z"/><path fill="#4D4B49" d="M14539 10091c70-3 143 4 203 40 60 35 104 104 92 172-8 47-41 87-81 114-40 28-86 44-132 61-136 48-272 96-407 144-47 17-97 34-146 24-72-14-123-87-126-160-6-135 107-217 212-280 116-69 250-110 385-115zM14536 10795c67 36 114 114 99 188-14 68-74 117-138 146-99 45-216 52-321 19-93-29-234-147-152-254 25-31 69-39 105-49 58-17 112-44 170-62 77-23 164-27 237 12zM14085 10085c25-22 50-49 51-82 2-35-25-67-57-81s-69-13-104-10c-87 10-171 38-245 84-42 27-85 66-86 115 0 38 26 73 58 94 136 89 281-28 383-120zM14476 11636c-13 80-73 150-151 176-58 20-123 15-178-9-136-60-207-246-116-371 78-109 239-87 340-23 76 48 120 138 105 227zM14335 12076c53 60 75 143 70 222s-34 156-72 226c-14 24-29 48-51 63-23 15-56 19-78 2-19-15-25-42-23-66 1-24 8-48 7-72-2-115-154-180-170-294-26-194 225-185 317-81zM14260 12929c4 35-4 71-11 106-18 87-37 174-55 261-8 34-17 71-45 92-33 25-82 17-114-8s-50-63-62-102c-37-125-12-264 59-373 26-39 58-86 111-87 65-1 112 50 117 111z"/></g><g><path fill="#312F2D" d="M11503 10491c1-70-38-128-88-130s-91 53-93 123c-1 56 24 104 60 122-95 1267-895 2192-904 2201-10 12-11 33-3 48 5 8 12 12 19 12 5 0 10-2 15-7 8-10 824-952 921-2249 40-11 71-60 73-120zM9259 10491c-1-70 38-128 88-130s91 53 92 123c2 56-24 104-59 122 95 1267 895 2192 903 2201 11 12 12 33 4 48-5 8-12 12-19 12-5 0-10-2-15-7-8-10-824-952-921-2249-41-11-72-60-73-120z"/><path fill="#312F2D" d="M10648 12992c0-144-120-261-267-261-148 0-267 117-267 261 0 145 119 262 267 262 147 0 267-117 267-262zM10561 15626v22c-1 80-1 159-3 236-1 89-4 175-7 258-4 82-8 161-12 236-6 91-13 178-21 257-33 336-82 550-137 550s-104-214-137-550c-8-79-15-166-21-257-4-75-9-154-12-236-3-83-6-169-7-258-2-77-3-156-3-236v-22c0-80 1-158 2-235 1-81 4-160 6-237 4-89 8-175 13-257 9-140 20-269 32-380 33-278 78-449 127-449s94 171 126 449c13 111 24 240 33 380 5 82 9 168 12 257 3 77 5 156 7 237 1 77 2 155 2 235z"/><path fill="#4D4B49" d="M10776 13846c0 392-177 709-395 709-219 0-396-317-396-709 0-391 177-708 396-708 218 0 395 317 395 708zM10552 15154h-343c4-89 8-175 13-257h318c5 82 9 168 12 257zM10561 15626v22h-360v-22c0-80 1-158 2-235h356c1 77 2 155 2 235zM10558 15884c-1 89-4 175-7 258h-340c-3-83-6-169-7-258h354zM10539 16378c-6 91-13 178-21 257h-274c-8-79-15-166-21-257h316z"/><path fill="#4D4B49" fill-opacity=".302" d="M10368 12731v4449c-50-30-94-235-124-545-8-79-15-166-21-257-4-75-9-154-12-236-3-83-6-169-7-258-2-77-3-156-3-236v-22c0-80 1-158 2-235 1-81 4-160 6-237 4-89 8-175 13-257 9-140 20-269 32-380-156-94-269-359-269-671 0-288 97-535 234-646-64-48-105-123-105-208 0-140 112-254 254-261z"/></g></g></svg>