<?xml version="1.0" encoding="UTF-8"?>
<!DOCTYPE svg PUBLIC "-//W3C//DTD SVG 1.1//EN" "http://www.w3.org/Graphics/SVG/1.1/DTD/svg11.dtd">
<!-- Creator: CorelDRAW X7 -->
<svg xmlns="http://www.w3.org/2000/svg" xml:space="preserve" width="1089px" height="892px" version="1.1" shape-rendering="geometricPrecision" text-rendering="geometricPrecision" image-rendering="optimizeQuality" fill-rule="evenodd" clip-rule="evenodd"
viewBox="0 0 1235 1012"
 xmlns:xlink="http://www.w3.org/1999/xlink">
 <g id="Слой_x0020_1">
  <metadata id="CorelCorpID_0Corel-Layer"/>
  <g id="_755699504">
   <path fill="#9B979C" fill-rule="nonzero" d="M600 273c0,0 -16,-18 68,-80 84,-62 163,-120 163,-120 0,0 174,-123 310,61 135,184 -48,315 -48,315l-135 100c0,0 -37,29 -45,18 -7,-10 -25,-63 -32,-85 -8,-23 8,-75 46,-107 39,-32 112,-82 112,-82 0,0 39,-45 -1,-99 -40,-54 -101,-33 -101,-33 0,0 -46,19 -20,56 25,37 40,57 18,73 -22,16 -109,20 -164,19 -55,-1 -152,0 -171,-36z"/>
   <path fill="#D6D4D4" fill-rule="nonzero" d="M436 488c13,-11 28,-22 45,-35 240,-181 305,-224 305,-225l-39 -59c-2,2 -65,44 -309,228 -39,30 -70,55 -96,76 -92,77 -113,112 -198,187 33,-5 66,-2 96,9 101,-88 90,-98 196,-181z"/>
   <path fill="#D6D4D4" fill-rule="nonzero" d="M829 537c-45,33 -106,77 -187,135 -251,181 -383,232 -421,253l-6 4c-42,24 -97,14 -126,-26 -31,-43 -22,-103 20,-135 43,-31 103,-22 135,21 19,27 23,60 13,90 20,-13 46,-28 75,-46 -2,-30 -12,-60 -32,-86 -54,-74 -159,-90 -232,-35 -74,54 -90,159 -36,232 53,71 151,89 224,42l0 0c38,-21 174,-74 428,-256 121,-88 197,-143 243,-178l-98 -15z"/>
   <path fill="#D6D4D4" fill-rule="nonzero" d="M992 502l-44 -55c-1,1 -28,23 -119,90l98 15c48,-36 64,-49 65,-50z"/>
   <path fill="#2A2825" fill-rule="nonzero" d="M973 538l6 -5c-1,0 -3,2 -6,5z"/>
   <path fill="#7D767C" fill-rule="nonzero" d="M941 553c-2,0 -4,-1 -5,-2 -1,-1 -2,-2 -3,-4 9,-6 16,-12 22,-16 1,1 2,3 3,4 1,1 3,2 5,2 8,0 22,-9 31,-15l-14 10c0,0 0,0 -1,1l-6 5c-9,6 -24,15 -32,15z"/>
   <path fill="#2A2825" fill-rule="nonzero" d="M985 331c7,-5 15,-11 22,-16 -3,2 -7,5 -10,7 -4,3 -8,6 -12,9z"/>
   <path fill="#7D767C" fill-rule="nonzero" d="M907 478c-1,-5 -3,-9 -4,-13 -7,-22 9,-74 47,-106 10,-9 22,-18 35,-28 4,-3 8,-6 12,-9 -9,7 -18,14 -25,20 -38,33 -54,84 -47,107 1,3 3,8 4,13 -5,4 -13,10 -22,16z"/>
   <path fill="#2A2825" fill-rule="nonzero" d="M944 280c0,0 0,0 0,0 5,-2 10,-4 13,-6 -3,2 -8,4 -13,6z"/>
   <path fill="#7D767C" fill-rule="nonzero" d="M943 280c0,0 0,0 0,0 1,0 1,0 1,0 0,0 0,0 0,0 0,0 0,0 -1,0zm120 -5c5,-8 23,-35 11,-70l22 -16c14,41 -13,71 -13,71 0,0 -8,6 -20,15z"/>
   <path fill="#2A2825" fill-rule="nonzero" d="M957 274c0,0 0,-1 0,-1 0,0 0,1 0,1zm1 -1c4,-3 6,-6 8,-9 0,0 0,0 0,-1 -2,4 -4,7 -8,10z"/>
   <path fill="#7D767C" fill-rule="nonzero" d="M689 177c0,0 1,0 1,0l0 0 0 0c-1,0 -1,0 -1,0z"/>
   <path fill="#AEABAA" fill-rule="nonzero" d="M933 547c-7,-13 -18,-46 -26,-69 9,-6 17,-12 22,-16 8,22 19,55 26,69 -6,4 -13,10 -22,16z"/>
   <path fill="#D6D4D4" fill-rule="nonzero" d="M645 240c0,0 -17,-18 67,-80 84,-61 163,-120 163,-120 0,0 175,-123 310,61 136,184 -47,315 -47,315l-136 100c0,0 -37,29 -44,19 -8,-11 -26,-64 -33,-86 -7,-23 9,-74 47,-107 38,-32 111,-82 111,-82 0,0 39,-44 -1,-99 -40,-54 -101,-33 -101,-33 0,0 -45,19 -20,56 26,38 40,57 18,73 -22,16 -109,21 -164,19 -55,-1 -152,0 -170,-36z"/>
   <path fill="#453D37" fill-rule="nonzero" d="M240 669c-21,-8 -43,-11 -66,-11 -10,0 -20,0 -30,2l0 0c10,-2 20,-2 30,-2 23,0 45,3 66,11 101,-88 90,-98 196,-181 13,-11 28,-22 45,-35 88,-66 152,-114 198,-148l0 0c-46,34 -110,82 -198,148 -17,13 -32,24 -45,35 -106,83 -95,93 -196,181zm198 -272c31,-23 59,-44 84,-63 -25,19 -53,40 -84,63zm354 -88c0,0 0,0 0,0 0,0 0,0 0,0l0 0zm0 0c53,0 121,-5 142,-18 -21,13 -89,18 -142,18zm-20 0c0,0 -1,0 -1,0 -6,0 -12,0 -19,0 7,0 13,0 19,0 0,0 1,0 1,0zm-193 -17c8,-6 15,-12 22,-17l0 0c-7,5 -14,11 -22,17zm355 -1c0,0 0,0 0,-1 0,1 0,1 0,1zm-265 -99c0,0 0,0 0,0 0,0 0,0 0,0zm1 0c0,0 0,0 0,0 0,0 0,0 0,0z"/>
   <path fill="#ADA8AD" fill-rule="nonzero" d="M792 309c0,0 0,0 0,0 -7,0 -14,0 -20,0 0,0 -1,0 -1,0 -6,0 -12,0 -19,0 -22,-1 -48,-2 -73,-4l0 0 0 0c9,-6 16,-12 23,-17 31,4 66,4 91,4 7,1 13,1 21,1 45,0 101,-4 129,-13 -1,3 -4,7 -8,10l0 0c-1,0 -1,0 -1,0 0,1 0,1 0,1 0,0 0,0 0,0 -21,13 -89,18 -142,18 0,0 0,0 0,0zm-191 -34l0 0c0,0 0,0 0,0l-1 -2 0 0c0,0 -1,-2 -1,-5 0,-9 8,-30 69,-75 0,0 0,0 1,-1 0,0 0,0 0,0 0,0 0,0 1,0 0,0 0,0 0,0 6,-5 13,-10 19,-15 -82,62 -66,79 -66,79 0,1 0,2 1,2 -7,6 -15,11 -23,17z"/>
   <path fill="#DFDCDC" fill-rule="nonzero" d="M240 669c-21,-8 -43,-11 -66,-11 -10,0 -20,0 -30,2 85,-75 106,-110 198,-187 26,-21 57,-46 96,-76l0 0c31,-23 59,-44 84,-63 20,-15 39,-29 57,-42 8,-6 15,-12 22,-17 8,-6 16,-11 23,-17 11,18 43,27 78,30 -7,5 -14,11 -23,17 -46,34 -110,82 -198,148 -17,13 -32,24 -45,35 -106,83 -95,93 -196,181z"/>
   <path fill="#453D37" fill-rule="nonzero" d="M957 273c0,0 1,0 1,0 0,0 -1,0 -1,0zm-254 -106c1,0 2,-1 3,-2 -1,1 -2,2 -3,2z"/>
   <path fill="#ADA8AD" fill-rule="nonzero" d="M690 177c4,-3 8,-7 13,-10 1,0 2,-1 3,-2 1,-1 3,-2 4,-3 0,0 0,0 0,0 -6,5 -13,10 -20,15z"/>
   <path fill="#423D37" fill-rule="nonzero" d="M944 280c1,-4 2,-7 1,-11 8,-2 15,-4 21,-5 -2,3 -4,6 -8,9 0,0 -1,0 -1,0 0,0 0,1 0,1l0 0c-3,2 -8,4 -13,6z"/>
   <path fill="#969094" fill-rule="nonzero" d="M814 293c-8,0 -14,0 -21,-1 -25,0 -60,0 -91,-4 8,-6 16,-11 22,-16 32,3 66,4 91,4 7,0 14,0 21,0 11,0 24,0 36,0 0,0 0,0 0,0 0,0 0,0 0,0 26,-1 53,-4 73,-7 1,4 0,7 -1,11 0,0 0,0 -1,0 0,0 0,0 0,0 -28,9 -84,13 -129,13zm-190 -35c-1,0 -1,-1 -1,-2 0,0 -16,-17 66,-79 0,0 0,0 1,0l0 0 0 0c7,-5 14,-10 20,-15 -81,60 -65,78 -65,78l0 0c0,1 0,1 1,2 -7,5 -14,11 -22,16z"/>
   <path fill="#BDBAB9" fill-rule="nonzero" d="M702 288c-35,-3 -67,-12 -78,-30 8,-5 15,-11 22,-16 11,18 43,26 78,30 -6,5 -14,10 -22,16z"/>
   <path fill="#453D37" fill-rule="nonzero" d="M979 257l0 0 0 0zm73 -36c-3,-8 -7,-16 -13,-25 6,9 10,17 13,25l0 0zm-13 -25c0,0 0,0 0,0 0,0 0,0 0,0zm0 -1c-1,0 -1,0 -1,0 0,0 0,0 1,0zm-46 -34c0,0 0,0 0,0 0,0 0,0 0,0zm0 0c0,0 0,0 0,0 0,0 0,0 0,0zm0 0c-10,-3 -20,-4 -29,-4 -3,0 -7,0 -10,0l0 0c3,0 7,0 10,0 9,0 19,1 29,4z"/>
   <path fill="#ADA8AD" fill-rule="nonzero" d="M1052 221c-3,-8 -7,-16 -13,-25l0 0c0,0 0,0 0,0 0,0 0,-1 0,-1 -1,0 -1,0 -1,0 0,0 0,0 0,-1l0 0c-14,-18 -30,-28 -45,-33 0,0 0,0 0,0 0,0 0,0 0,0 0,0 0,0 0,0 0,0 0,0 0,0 -10,-3 -20,-4 -29,-4 -3,0 -7,0 -10,0 0,-1 1,-2 1,-3 0,0 0,0 0,0 0,0 0,0 0,0 0,0 0,0 0,0 0,0 0,0 0,0 1,-4 3,-7 6,-10 3,-1 13,-4 26,-4 21,0 50,7 73,38 7,9 12,18 14,27l-22 16z"/>
   <path fill="#969094" fill-rule="nonzero" d="M1074 205c-2,-9 -7,-18 -14,-27 -23,-31 -52,-38 -73,-38 -13,0 -23,3 -26,4 7,-9 17,-15 20,-16l0 0c0,0 0,0 0,0 0,0 0,0 0,0l0 0c0,0 0,0 0,0 0,0 0,0 0,0l0 0c0,0 0,0 0,0 0,0 0,0 0,0 0,0 0,0 0,0 0,0 0,0 0,0 0,0 0,0 0,0 0,0 12,-4 28,-4 0,0 0,0 0,0 0,0 0,0 0,0 21,0 51,7 73,37l0 0c2,3 3,5 5,8 4,6 7,13 9,20l0 0 0 0 -22 16z"/>
   <path fill="#453D37" fill-rule="nonzero" d="M954 160l0 0 0 0c0,0 0,0 0,0zm233 -57c0,0 0,0 0,0 0,0 0,0 0,0zm0 0c0,-1 -1,-1 -2,-2 1,1 2,1 2,2z"/>
   <path fill="#DFDCDC" fill-rule="nonzero" d="M872 276c0,0 0,0 0,0 0,0 0,0 0,0zm0 0c36,-2 73,-5 94,-12l0 0c-6,1 -13,3 -21,5 -20,3 -47,6 -73,7zm95 -13c1,0 2,-1 3,-1l0 0 3 -1 1 -1 2 -1 1 0 2 -2c0,0 0,0 0,0l0 0c-3,2 -7,4 -12,6zm-322 -23c0,0 -16,-18 65,-78 0,0 0,0 0,0 1,-1 1,-1 2,-1l0 -1c84,-61 163,-120 163,-120 0,0 0,0 0,0l0 0c0,0 0,0 0,0 0,0 -79,59 -163,120l0 1 0 0c-83,61 -67,79 -67,79zm451 -51l0 0 100 -73 -100 73zm-9 -20c-2,-3 -3,-5 -5,-8 2,3 3,5 5,8zm-5 -8c-22,-30 -52,-37 -73,-37 21,0 51,7 73,37zm-128 -4c0,-1 1,-2 1,-3 0,1 -1,2 -1,3l0 0 0 0zm1 -3c0,0 0,0 0,0 0,0 0,0 0,0zm0 0c0,0 0,0 0,0 0,0 0,0 0,0zm26 -26l0 0 0 0zm0 0c0,0 0,0 0,0 0,0 0,0 0,0zm0 0c0,0 0,0 0,0 0,0 0,0 0,0zm0 0l0 0 0 0zm0 0c0,0 0,0 0,0 0,0 0,0 0,0zm0 0c0,0 0,0 0,0 0,0 0,0 0,0zm28 -4c0,0 0,0 0,0l0 0c0,0 0,0 0,0zm187 -8c-2,-3 -3,-5 -5,-7 -2,-3 -4,-5 -6,-8l0 0c1,1 2,1 2,2 0,0 0,0 0,0 0,0 0,0 0,0 3,5 6,9 9,13l0 0z"/>
   <path fill="#453D37" fill-rule="nonzero" d="M34 946c-1,-1 -1,-1 -2,-2 -21,-29 -32,-64 -32,-98 0,34 11,69 32,98 1,1 1,1 2,2zm68 -29c-5,-4 -9,-9 -13,-14 4,5 8,10 13,14l0 0zm-32 -71c0,-30 14,-59 39,-78 18,-12 37,-18 57,-18 30,0 59,13 78,39 4,5 7,11 10,17l0 0c-3,-6 -6,-12 -10,-17 -19,-26 -48,-39 -78,-39 -20,0 -39,6 -57,18 -25,19 -39,48 -39,78zm231 -98c0,0 0,0 0,-1 0,1 0,1 0,1z"/>
   <path fill="#DFDCDC" fill-rule="nonzero" d="M45 959c-4,-4 -8,-8 -11,-13 -1,-1 -1,-1 -2,-2 -21,-29 -32,-64 -32,-98 0,-51 23,-102 68,-134 29,-22 64,-33 98,-33 51,0 102,24 134,68 0,0 0,0 1,0 0,1 0,1 0,1 4,5 7,10 10,16l-57 42c-3,-6 -6,-12 -10,-17 -19,-26 -48,-39 -78,-39 -20,0 -39,6 -57,18 -25,19 -39,48 -39,78 0,20 6,40 19,57l0 0c4,5 8,10 13,14l-57 42z"/>
   <path fill="#665F5A" fill-rule="nonzero" d="M961 184c-6,-9 -8,-17 -7,-24l0 1 0 2 0 1 0 2 0 1 0 2 1 1 0 2 1 2 1 2 0 1 1 3 1 1c1,1 1,2 2,3zm-7 -24c0,-1 0,-1 0,-2 0,0 0,0 0,-1l0 0 0 3z"/>
   <path fill="#E4E2E2" fill-rule="nonzero" d="M966 264c0,0 0,-1 0,-1 0,0 1,0 1,0 0,0 -1,0 -1,0 0,0 0,1 0,1zm-12 -106c0,0 0,0 0,-1l0 0c0,1 0,1 0,1z"/>
   <path fill="#BAB8BA" fill-rule="nonzero" d="M836 276c-7,0 -14,0 -21,0 -25,0 -59,-1 -91,-4l0 0c32,3 66,4 91,4 7,0 14,0 21,0 11,0 24,0 36,0 -12,0 -25,0 -36,0zm36 0c0,0 0,0 0,0 0,0 0,0 0,0zm-226 -34c-1,-1 -1,-1 -1,-2l0 0 0 0c0,1 0,1 1,2l0 0z"/>
   <path fill="#CCC8CA" fill-rule="nonzero" d="M955 154c0,0 0,0 0,0 0,0 0,0 0,0zm0 0c0,0 0,0 0,0 0,0 0,0 0,0zm0 0c1,-4 3,-7 6,-10l0 0c-3,3 -5,6 -6,10z"/>
   <path fill="#BAB8BA" fill-rule="nonzero" d="M1096 189c-2,-7 -5,-14 -9,-20 4,6 7,13 9,20l0 0zm-135 -45c7,-9 17,-15 20,-16 -3,1 -13,7 -20,16l0 0zm20 -16c0,0 0,0 0,0 0,0 0,0 0,0zm0 0l0 0 0 0zm0 0c0,0 0,0 0,0 0,0 0,0 0,0zm0 0c0,0 0,0 0,0 0,0 0,0 0,0zm0 0c0,0 0,0 0,0 0,0 0,0 0,0zm0 0c0,0 0,0 0,0 0,0 12,-4 28,-4 -16,0 -28,4 -28,4 0,0 0,0 0,0zm28 -4c0,0 0,0 0,0l0 0c0,0 0,0 0,0z"/>
   <path fill="#7F7874" fill-rule="nonzero" d="M961 184c-6,-9 -8,-18 -7,-26 0,1 0,1 0,2l0 0 0 0c-1,7 1,15 7,24l0 0zm224 -83c0,0 0,0 0,-1 0,1 0,1 0,1zm0 -1c-1,-1 -1,-1 -1,-1 0,0 0,0 1,1zm-310 -60c2,-1 59,-40 132,-40 -73,0 -130,39 -132,40zm132 -40c0,0 0,0 0,0l0 0c0,0 0,0 0,0z"/>
   <path fill="#E9E8E8" fill-rule="nonzero" d="M836 276c-7,0 -14,0 -21,0 -25,0 -59,-1 -91,-4 -35,-4 -67,-12 -78,-30 -1,-1 -1,-1 -1,-2l0 0c0,0 -16,-18 67,-79l0 0 0 -1c84,-61 163,-120 163,-120 0,0 0,0 0,0 2,-1 59,-40 132,-40 0,0 0,0 0,0 0,0 0,0 0,0 55,0 119,22 177,99 0,0 0,0 1,1 0,0 0,0 0,0 0,1 0,1 0,1l0 0c2,3 4,5 6,8 2,2 3,4 5,7l0 0 -100 73c-2,-7 -5,-14 -9,-20 -2,-3 -3,-5 -5,-8l0 0c-22,-30 -52,-37 -73,-37 0,0 0,0 0,0l0 0c0,0 0,0 0,0 -16,0 -28,4 -28,4 0,0 0,0 0,0 0,0 0,0 0,0 0,0 0,0 0,0 0,0 0,0 0,0 0,0 0,0 0,0l0 0c0,0 0,0 0,0 0,0 0,0 0,0l0 0c0,0 0,0 0,0 0,0 0,0 0,0l0 0c-3,1 -13,7 -20,16 -3,3 -5,6 -6,10 0,0 0,0 0,0 0,0 0,0 0,0 0,0 0,0 0,0 0,0 0,0 0,0 0,1 -1,2 -1,3l0 0c0,1 0,1 0,1 -1,8 1,17 7,26l0 0c17,25 29,42 29,55 0,7 -3,13 -11,18l0 0 -2 2 -1 0 -2 1 -1 1 -3 1 0 0c-1,0 -2,1 -3,1 0,0 -1,0 -1,0 0,0 0,1 0,1 -21,7 -58,10 -94,12 0,0 0,0 0,0 0,0 0,0 0,0 -12,0 -25,0 -36,0z"/>
  </g>
 </g>
</svg>
