<?xml version="1.0" encoding="UTF-8"?>
<!DOCTYPE svg PUBLIC "-//W3C//DTD SVG 1.1//EN" "http://www.w3.org/Graphics/SVG/1.1/DTD/svg11.dtd">
<!-- Creator: CorelDRAW X7 -->
<svg xmlns="http://www.w3.org/2000/svg" xml:space="preserve" width="1795px" height="1140px" version="1.1" shape-rendering="geometricPrecision" text-rendering="geometricPrecision" image-rendering="optimizeQuality" fill-rule="evenodd" clip-rule="evenodd"
viewBox="0 0 1779 1129"
 xmlns:xlink="http://www.w3.org/1999/xlink">
 <g id="Слой_x0020_1">
  <metadata id="CorelCorpID_0Corel-Layer"/>
  <g id="_5601403872">
   <path fill="#E0E0E2" fill-rule="nonzero" d="M889 1129c-491,0 -889,-33 -889,-74 0,-42 398,-75 889,-75 492,0 890,33 890,75 0,41 -398,74 -890,74z"/>
   <path fill="#5D544D" d="M467 1057c12,-14 -6,-56 -31,-56 -33,4 -31,48 -30,53 1,5 50,15 61,3z"/>
   <path fill="#5D544D" d="M955 1032c4,-5 -6,-48 -29,-49 -31,5 -30,46 -29,50 1,5 45,17 58,-1z"/>
   <path fill="#8F9DA0" d="M987 720c0,0 -30,149 -69,189 -6,7 -8,43 -11,49 11,8 21,21 26,37 4,7 -1,12 0,15 -43,-13 -42,35 -42,35 0,0 -49,14 -112,-24 -13,-7 11,-68 11,-68l45 -61 28 -140 124 -32z"/>
   <path fill="#859496" d="M1032 606c-11,21 -45,93 -56,124 -2,7 -68,72 -80,78 -29,14 -27,55 -38,81 -7,16 -37,31 -46,57 -4,11 -25,36 -28,33 -3,-4 2,-42 36,-73 10,-45 18,-55 21,-105 0,-26 3,-65 10,-109 -17,-29 -29,-79 -29,-79l198 -12c4,0 8,2 12,5z"/>
   <path fill="#879BA0" d="M1020 601c15,1 23,17 28,38 -5,-4 -9,-11 -11,-21 -3,-10 -9,-15 -17,-17l0 0zm-242 47c5,-20 12,-40 20,-57 35,-73 165,-2 215,9 -18,-2 -41,9 -41,9 0,0 -142,36 -192,39 0,0 -1,0 -2,0z"/>
   <path fill="#8CB0B8" d="M984 591c-3,2 -5,3 -8,5 -42,24 -65,-2 -84,8 -13,7 -63,23 -110,30 -3,10 -6,20 -8,31 64,-16 151,-52 172,-47 29,6 57,-3 83,1 1,-3 3,-7 4,-12 -4,-3 -8,-6 -13,-6 -9,-1 -21,-5 -36,-10z"/>
   <path fill="#5D544D" d="M941 1044c4,-6 -6,-48 -29,-49 -31,4 -31,45 -29,49 1,5 45,18 58,0z"/>
   <path fill="#768789" d="M845 590c0,0 -19,2 -47,1l0 0c-3,6 -6,12 -8,19 32,-8 55,-20 55,-20z"/>
   <path fill="#5D544D" d="M655 1100c10,-14 -17,-50 -35,-48 -29,8 -22,47 -20,50 2,4 45,12 55,-2z"/>
   <path fill="#879BA0" d="M385 647l-41 -36 0 0c13,14 26,26 41,36z"/>
   <path fill="#A5B3B6" d="M1054 625l-336 30 -216 31c-11,-2 -188,-196 -211,-220l-18 -66 -76 69c0,0 -47,74 -46,138 0,17 -18,-8 -17,-9 8,-27 6,-86 31,-135 21,-39 68,-89 85,-95 78,-159 149,-182 187,-198 165,-64 289,36 437,1 14,-18 22,-14 27,-35 50,12 108,36 133,83 50,92 144,195 117,263 -23,59 -16,116 -97,143z"/>
   <path fill="#A5B3B6" d="M1152 429c-4,-2 -8,-3 -12,-6 -12,-8 -34,-33 -34,-33l-75 -71 -68 -49 -44 -34 -22 -40 2 -26 -5 -13 5 -21c5,1 11,2 16,4l1 1c0,0 1,0 1,0 3,0 6,1 8,2 1,2 2,4 2,4 0,0 2,-1 5,-2 8,3 16,6 23,9 -3,10 -27,19 -26,25 1,6 3,9 22,7 11,-1 23,-12 32,-18 4,3 8,5 11,8 -6,12 -22,29 -21,36 1,8 7,18 15,2 4,-9 14,-15 27,-20 8,7 14,16 19,25l0 0c-13,12 -22,24 -20,38 12,8 26,-8 34,-14 1,2 2,4 4,6 -6,7 -18,12 -8,21 9,7 12,3 18,-5 6,10 13,20 19,31 0,2 0,4 0,5 2,10 10,23 19,24 24,36 44,72 52,104z"/>
   <path fill="#9DABAE" d="M1151 482c-14,-28 -66,-108 -66,-108l-52 -63 -118 -72 -27 -76c-35,13 -104,15 -104,15 0,15 57,69 72,106 88,212 -98,381 -206,295 -120,-95 -153,-197 -154,-197 7,39 60,194 52,218 -4,13 -21,12 -66,-25 -44,-36 -125,-112 -133,-99 -48,44 -63,-64 -56,-95 6,-18 22,-47 22,-47 -12,-6 -61,25 -54,77 -66,14 -115,133 -111,183 2,13 -13,6 -16,4 -3,2 -7,4 -12,7 -23,14 -29,20 -38,49 -8,29 -8,33 -10,37 -1,4 13,-20 13,-20 0,0 -2,14 -4,20 -2,6 16,-25 16,-25 0,0 -4,17 -5,21 -1,3 14,-13 27,-28 1,-1 2,-2 2,-2 0,0 -1,4 -3,7 7,-2 14,-12 24,-33 2,-4 4,-9 6,-13 2,-6 4,-11 4,-13 7,-30 12,-61 26,-92 47,-81 92,-82 92,-82 -13,93 16,116 72,180 119,134 374,186 731,5 -12,-5 -16,-26 -25,-43 -22,-41 -164,-221 -86,-229 4,0 136,104 139,115 8,30 28,56 35,65 4,-13 8,-28 13,-42z"/>
   <path fill="#FBD9CA" d="M1753 359c-2,-8 -178,57 -322,-112 -22,-12 -32,11 -33,18 -8,85 273,175 355,94z"/>
   <path fill="#F4E0D5" d="M1428 253c0,0 17,45 71,75 54,31 128,41 157,44 28,2 44,3 34,5 -72,15 -197,-25 -237,-62 -41,-38 -45,-54 -39,-61 6,-8 14,-1 14,-1z"/>
   <path fill="#A5B3B6" d="M1600 376c-8,-25 13,-27 -2,-46 0,0 -3,-42 -14,-55 1,-17 -15,-33 -15,-33 0,0 -6,-17 -18,-20 -3,-18 -22,-24 -22,-24 0,0 -5,-21 -28,-26 -8,-20 -54,-53 -54,-53 0,0 -13,-20 -26,-34 -5,-5 -13,-4 -17,-6 -14,-8 -77,-58 -156,-59 -37,0 -46,15 -49,14 -26,-74 -290,-4 -292,-5 -1,1 -2,1 -3,2 -13,3 -26,44 -26,44 -6,22 -12,25 -3,44 3,14 -8,43 6,86 15,46 119,92 143,112 24,21 4,39 30,77 11,39 137,80 137,26l22 -32c9,-11 19,-21 19,-21 0,0 22,-20 41,-21 63,10 99,-17 99,-17 0,0 12,10 29,11 3,0 -3,-9 0,-9 18,7 44,1 44,1 0,0 8,8 39,26 24,9 11,36 12,59 0,0 -3,35 -8,47 -5,12 -14,45 -42,46 -28,1 -63,-49 -49,-54 6,-2 14,-16 14,-17 -1,-9 -15,-6 -19,-8 -4,-2 3,-15 -6,-21 -6,-5 -17,3 -21,11 -9,32 -9,79 16,102 0,0 33,36 64,45 30,8 105,-19 128,-75 23,-56 27,-117 27,-117z"/>
   <path fill="#8F9DA0" d="M875 84c-4,14 -7,19 0,35 3,14 -8,43 6,86 15,46 119,92 143,112 24,21 4,39 30,77 16,43 65,56 105,52 6,-1 -55,-3 -83,-49 -27,-44 -20,-87 -32,-102 -12,-15 -103,-16 -130,-84 -26,-69 -5,-60 -18,-92 -6,-14 -14,-25 -21,-35z"/>
   <path fill="#9DABAE" d="M1119 102c-25,-3 -157,-49 -172,-1 -15,48 7,98 69,144 62,46 61,85 80,119 20,33 78,56 83,19 4,-37 -7,-61 -19,-103 -11,-43 4,-65 -6,-104 -11,-39 -35,-74 -35,-74z"/>
   <path fill="#9DABAE" d="M1593 376c1,1 4,4 6,6 0,-2 0,-3 0,-4 6,0 12,-1 13,-4 2,-4 1,-12 -3,-19 -4,-7 -2,-15 -6,-21 -7,-11 -3,-41 -19,-59 1,-17 -15,-33 -15,-33 0,0 -5,-16 -17,-20 0,0 -1,-1 -2,-2 -3,-16 -21,-22 -21,-22 0,0 -5,-21 -28,-26 -3,-9 -15,-21 -26,-31 0,0 11,22 21,35 -7,2 -15,7 -23,21 1,2 3,1 4,-1 9,-10 17,-14 23,-15 2,1 3,2 4,3 6,4 8,8 9,11 -9,1 -21,5 -31,22 -2,3 4,3 6,0 7,-13 17,-16 25,-16 1,1 1,1 1,2 1,6 9,5 22,13 -10,-1 -24,2 -38,16 -2,4 3,3 5,2 18,-14 33,-12 42,-10 3,6 2,10 2,10 0,0 6,3 13,8 -3,-1 -7,-1 -10,-1 -21,2 -35,15 -34,17 25,-14 43,-13 51,-10 4,4 8,14 12,24 -3,-2 -6,-3 -9,-4 -21,-3 -38,7 -39,11 27,-9 42,-5 51,0 2,8 4,15 5,18 -3,-2 -7,-5 -13,-6 -20,-3 -37,5 -37,8 31,-8 47,0 54,5 0,1 1,3 1,6 -1,3 -1,6 -2,9l0 0c-1,0 -1,1 -2,3 0,2 -1,4 -2,6l1 0c0,0 -1,1 -1,2 -4,0 -9,0 -17,-1 -16,-4 -27,-7 -21,-5 6,3 24,13 37,12 -1,8 6,11 10,18 1,2 1,4 0,7 -9,0 -22,0 -27,-2 -9,-3 -12,-4 -9,-3 3,2 11,8 26,10 3,1 6,1 8,1 -2,3 -3,6 -2,8 0,0 1,1 2,1z"/>
   <path fill="#9DABAE" d="M1232 176c0,0 0,-34 -11,-41 -24,7 -26,29 -27,36 -1,8 3,12 2,16 -1,5 -12,11 -21,4 -19,-20 -6,-72 -23,-92 -37,-41 -200,-34 -239,-16 -1,-3 0,-14 27,-24 20,-11 129,-40 152,-36 40,7 95,33 95,33 0,0 34,20 36,14 6,-12 -14,-33 -13,-36 60,45 21,137 22,142z"/>
   <path fill="#616060" d="M1394 438c-14,1 -21,-10 -19,-16 2,-7 7,-6 11,-3 4,3 -4,12 8,19z"/>
   <path fill="#9DABAE" d="M1612 374l-21 0c0,0 3,6 -2,11 -9,0 -21,-2 -29,-4 1,7 17,10 29,12 7,10 -1,24 -3,30 -8,2 -20,1 -37,-6 17,12 30,14 38,13 2,19 -14,25 -14,25l1 1c-8,-1 -18,-3 -31,-9 11,11 21,14 30,14 -1,3 -3,5 -7,7 -7,0 -18,-2 -33,-8 11,10 22,13 30,13 1,14 -13,19 -13,19 0,0 1,15 -7,21 -6,0 -14,-1 -24,-5 4,4 8,7 12,9 -2,9 -6,13 -10,15 -5,0 -11,-1 -19,-4 2,2 3,3 5,5 0,1 0,4 -1,8 -5,-2 -10,-5 -16,-9 4,6 9,11 14,14 -2,4 -5,7 -9,7 -5,-4 -11,-10 -14,-19 0,7 2,13 5,17 -2,4 -5,6 -7,8 -4,-3 -8,-7 -11,-14 -1,9 2,14 5,17 -10,4 -18,-6 -18,-6 0,0 -9,-8 -14,0 -5,9 -3,5 -16,0 -13,-6 -10,-23 -22,-23 -13,0 -33,-27 -33,-27 0,0 3,38 54,56 5,12 29,10 29,10 2,7 16,4 30,1 12,-3 23,-4 28,-11 0,0 16,6 19,-8 17,1 22,-24 22,-24 0,0 15,0 19,-24 19,-14 17,-33 17,-33 0,0 11,-4 10,-24 13,-7 7,-22 7,-22 0,0 12,-12 6,-30 8,-14 1,-23 1,-23z"/>
   <path fill="#98A3A5" d="M1430 207c4,7 -28,-21 -70,-37 -13,13 -30,25 -40,21 -8,-5 -15,-30 -15,-30l-7 -19c0,0 8,1 14,-9 6,-10 29,-20 38,-14 7,4 10,15 15,22 1,-1 58,50 65,66z"/>
   <path fill="#899495" d="M1360 156c1,5 -5,4 -5,4 0,0 -1,-3 -4,-4 -5,-1 -21,9 -37,-9 8,-12 31,-14 34,-9 3,3 4,11 5,13 2,1 6,1 7,5z"/>
   <path fill="#35302F" d="M1350 152c2,-13 -13,-11 -17,-11 -7,2 -10,6 -10,7 14,13 27,4 27,4z"/>
   <path fill="#859496" d="M1348 162c-22,10 -35,-8 -35,-8 0,0 1,9 7,13 17,8 27,0 28,-5z"/>
   <path fill="#A5B3B6" d="M1489 280c-23,-34 -53,-55 -78,-60 -23,-4 -20,21 -16,25 41,34 39,58 54,43 13,-21 25,-11 40,-8z"/>
   <path fill="#9DABAE" d="M1427 229c2,5 -100,7 -132,-13 -7,-11 -54,-56 -51,-61 2,-5 11,-3 15,-1 5,1 20,7 28,20 8,12 29,28 44,32 5,1 20,-1 39,-16 9,20 55,33 57,39z"/>
   <path fill="#8F9DA0" d="M1492 448c5,-45 -7,-72 -7,-72 0,0 -10,-29 -30,-34 -26,2 -54,-10 -54,-10 0,0 2,6 1,10 1,1 1,2 0,3 -2,2 -21,-10 -27,-6 -55,25 -85,11 -85,11 0,0 -17,16 -47,11 -35,54 -53,62 -53,62 0,0 -4,-10 4,-22 21,-19 31,-44 31,-44 0,0 -33,-59 -26,-66l0 0c2,3 45,65 123,29 14,21 51,1 51,1 0,0 -3,-15 -9,-21 -14,-16 -29,4 -47,-17 23,4 12,-7 49,3 19,-31 52,-22 56,11 5,5 46,16 71,62 6,4 10,44 10,53 -1,9 -7,36 -11,36z"/>
   <path fill="#4E4A4A" d="M1400 329c-28,-17 -24,-55 -75,-43 52,-2 58,43 72,47 4,1 5,-1 3,-4z"/>
   <path fill="#FEFEFE" d="M1340 148c-1,0 -3,-2 -3,-3 0,-2 2,-3 3,-3 2,0 3,1 3,3 0,1 -1,3 -3,3z"/>
   <polygon fill="#FEFEFE" points="1344,152 1343,151 1344,150 1345,151 "/>
   <path fill="#FBD9CA" d="M1721 390c-2,-8 -178,57 -322,-112 -22,-12 -32,11 -33,18 -8,85 273,175 355,94z"/>
   <path fill="#F4E0D5" d="M1396 284c0,0 17,45 71,75 54,31 128,41 157,44 28,2 44,3 34,5 -72,15 -197,-25 -237,-62 -41,-38 -45,-54 -39,-61 6,-8 14,-1 14,-1z"/>
   <path fill="#8F9DA0" d="M417 600c-10,16 -54,90 -59,99 -8,18 -33,32 -44,50 -3,3 -12,10 -16,22 -5,16 5,51 3,78 -3,28 -13,80 -20,85 -17,20 -15,40 -15,40 0,0 4,14 9,15 -2,11 -7,26 -5,40 5,4 10,-13 22,-29l7 17 75 -44 26 -106 39 -96 72 -72 -94 -99z"/>
   <path fill="#859496" d="M411 593c-1,2 -1,4 -1,6 -8,27 -22,44 -23,52 -3,13 -26,42 -83,108 -29,42 10,98 -36,197 -12,28 10,27 7,33 -11,55 -5,57 -2,62 4,5 75,30 131,15 0,-23 9,-41 26,-45 9,-2 19,2 22,3 2,-12 -13,-33 -42,-50 -9,-20 -1,-99 -1,-99 0,0 40,-55 42,-82 12,-20 45,-51 75,-78l0 0 -115 -122z"/>
   <polygon fill="#8CB0B8" points="526,715 526,715 526,715 "/>
   <path fill="#5D544D" d="M456 1070c13,-14 -6,-56 -30,-57 -33,5 -32,49 -31,53 2,6 51,16 61,4z"/>
   <path fill="#A5B3B6" d="M607 671l-69 198 -49 41 -51 -283 -115 -143 -7 -61c30,-37 80,17 156,46 77,30 99,129 135,202z"/>
   <path fill="#9DABAE" d="M512 443c2,39 84,212 79,222 -6,6 -42,108 -70,100 -23,-7 -4,-84 -53,-138 -144,-152 -116,-92 -176,-204 -18,12 22,118 26,135 12,66 144,184 104,269 -18,37 26,66 29,113 4,51 5,56 29,102 -11,20 -10,39 -6,44 15,20 38,25 65,30 -1,-25 25,-52 50,-21 2,-10 19,-27 38,-10 3,-5 6,-5 4,-10 -6,-17 -16,-43 -37,-53 4,-29 -57,-87 -39,-199 22,-27 32,-79 47,-106 7,-12 12,-53 13,-51 22,-48 -100,-218 -103,-223z"/>
   <path fill="#5D544D" d="M637 1113c10,-13 -17,-50 -36,-48 -29,8 -21,47 -19,50 2,4 45,12 55,-2z"/>
   <path fill="#5D544D" d="M593 1121c10,-14 -17,-51 -35,-49 -29,9 -22,47 -20,51 2,3 45,12 55,-2z"/>
   <path fill="#A5B3B6" d="M1138 524c31,58 15,136 15,136 0,0 29,98 37,149 12,73 4,110 1,134l-259 -248 -18 -115 45 -206 179 150z"/>
   <path fill="#5D544D" d="M1247 1070c12,-15 -13,-56 -38,-53 -33,8 -27,45 -26,49 3,5 53,19 64,4z"/>
   <path fill="#9DABAE" d="M892 604c1,75 143,218 206,254l4 62c0,0 -44,40 -41,75 8,22 19,44 47,59 17,-44 53,-28 61,-11 25,-23 45,-1 45,-1 0,0 11,-21 -5,-40 15,-21 13,-68 13,-68 0,0 12,-34 10,-60 -23,-52 -67,-199 -75,-201 20,76 30,156 -8,122 -84,-76 -85,-35 -169,-163 -42,-87 -45,-149 -51,-155l-33 56c20,-34 -4,27 -4,71z"/>
   <path fill="#8F9DA0" d="M1072 1006c-8,-16 36,-71 45,-96 6,-16 -5,-30 -2,-58 -23,-31 -152,-92 -192,-170 -1,3 43,78 81,112 28,26 75,55 81,62 14,14 11,48 7,57 -5,9 -43,57 -39,88 4,31 55,53 55,53 0,0 -29,-34 -36,-48z"/>
   <path fill="#5D544D" d="M1223 1079c10,-11 -6,-52 -27,-54 -34,2 -35,40 -34,45 1,4 47,23 61,9z"/>
   <path fill="#5D544D" d="M1166 1080c16,-11 7,-57 -18,-63 -33,-2 -41,34 -41,38 1,6 43,35 59,25z"/>
   <path fill="#8F9DA0" d="M341 765c-20,39 -29,199 -44,225 -15,26 -28,42 2,50 30,9 83,17 78,9 -4,-8 -18,-36 -4,-40 15,-4 34,-4 48,-2 14,1 27,-1 15,-6 -12,-6 -39,-28 -54,-28 -15,-1 -22,-13 -18,-19 4,-7 -10,-21 -3,-46 0,0 -17,-131 -20,-143z"/>
  </g>
 </g>
</svg>
