<?xml version="1.0" encoding="UTF-8"?>
<!DOCTYPE svg PUBLIC "-//W3C//DTD SVG 1.1//EN" "http://www.w3.org/Graphics/SVG/1.1/DTD/svg11.dtd">
<!-- Creator: CorelDRAW X7 -->
<svg xmlns="http://www.w3.org/2000/svg" xml:space="preserve" width="990px" height="1566px" version="1.1" shape-rendering="geometricPrecision" text-rendering="geometricPrecision" image-rendering="optimizeQuality" fill-rule="evenodd" clip-rule="evenodd"
viewBox="0 0 786 1243"
 xmlns:xlink="http://www.w3.org/1999/xlink">
 <g id="Слой_x0020_1">
  <metadata id="CorelCorpID_0Corel-Layer"/>
  <g id="_5597143280">
   <path fill="#F4F4DF" fill-rule="nonzero" d="M382 1016c-211,0 -382,-171 -382,-383 0,-211 171,-382 382,-382 212,0 383,171 383,382 0,212 -171,383 -383,383z"/>
   <path fill="#EBECEC" fill-rule="nonzero" d="M390 1243c-114,0 -206,-22 -206,-49 0,-28 92,-50 206,-50 114,0 206,22 206,50 0,27 -92,49 -206,49z"/>
   <path fill="#B7BB28" fill-rule="nonzero" d="M146 816c0,150 94,374 94,374 14,18 75,35 156,35 81,0 131,-14 148,-35 0,0 101,-226 101,-374 -76,0 -405,0 -499,0z"/>
   <path fill="#C1C942" fill-rule="nonzero" d="M296 816l37 406c-48,-7 -83,-19 -93,-32 0,0 -94,-224 -94,-374l0 0 150 0z"/>
   <path fill="#799635" fill-rule="nonzero" d="M482 816l-39 407c54,-4 88,-16 101,-33 0,0 101,-226 101,-374l-163 0z"/>
   <path fill="#EFEEEF" fill-rule="nonzero" d="M633 920c-7,4 -16,7 -28,10 -47,14 -126,23 -215,23 -73,0 -139,-6 -187,-16 -18,-3 -33,-7 -45,-12 1,5 2,9 3,13 3,1 6,2 10,3 48,14 128,23 219,23 73,0 140,-6 188,-15 21,-5 39,-10 52,-15 1,-5 2,-9 3,-14z"/>
   <path fill="#EFEEEF" fill-rule="nonzero" d="M622 969c-5,2 -11,4 -17,6 -47,13 -126,22 -215,22 -73,0 -139,-6 -187,-15 -13,-3 -24,-6 -34,-9 1,4 2,9 3,13 49,14 128,23 218,23 73,0 140,-6 188,-16 15,-3 29,-7 40,-10 1,-5 2,-9 4,-14z"/>
   <path fill="#FEFEFE" fill-rule="nonzero" d="M645 816c0,12 -112,21 -249,21 -138,0 -250,-9 -250,-21 0,-11 112,-20 250,-20 137,0 249,9 249,20z"/>
   <path fill="#603824" fill-rule="nonzero" d="M634 814c0,9 -107,17 -238,17 -132,0 -239,-8 -239,-17 0,-10 107,-18 239,-18 131,0 238,8 238,18z"/>
   <path fill="#477938" fill-rule="nonzero" d="M280 775l-20 0c4,-310 -79,-563 -79,-566l19 -6c1,3 84,259 80,572z"/>
   <path fill="#497336" fill-rule="nonzero" d="M358 292c1,29 3,58 4,87 3,64 1,131 -9,195 -5,34 -13,66 -24,98 -9,28 -29,59 -27,90 -1,-9 -6,-17 -9,-25 -2,-7 -4,-13 -7,-20 -42,-125 8,-269 56,-387 3,-9 16,-29 16,-38z"/>
   <path fill="#558539" fill-rule="nonzero" d="M137 345c4,30 9,60 13,91 10,66 24,135 47,200 12,34 27,66 44,97 15,27 42,56 45,87 -1,-9 3,-17 4,-26 1,-8 2,-15 3,-22 18,-138 -61,-278 -132,-391 -6,-8 -23,-27 -24,-36z"/>
   <path fill="#E94B73" fill-rule="nonzero" d="M113 188c20,46 48,43 79,30 32,-13 53,-32 33,-78 -19,-46 -110,-96 -110,-96 0,0 -22,98 -2,144z"/>
   <path fill="#EB5B84" fill-rule="nonzero" d="M238 134c20,46 -7,68 -35,80 -28,12 -55,14 -74,-32 -20,-46 25,-145 25,-145 0,0 65,51 84,97z"/>
   <path fill="#ED7295" fill-rule="nonzero" d="M100 194c20,46 55,40 83,28 28,-12 48,-30 28,-76 -20,-46 -123,-81 -123,-81 0,0 -8,83 12,129z"/>
   <path fill="#477938" fill-rule="nonzero" d="M509 775c-5,-315 146,-496 147,-498l16 13c-2,2 -147,177 -143,485l-20 0z"/>
   <path fill="#558539" fill-rule="nonzero" d="M498 240c-5,35 -9,70 -14,106 -11,77 -17,159 -15,239 2,42 6,83 13,123 6,35 23,77 17,114 2,-11 9,-19 12,-29 3,-8 6,-15 9,-23 58,-146 25,-330 -10,-481 -2,-11 -13,-38 -12,-49z"/>
   <path fill="#497336" fill-rule="nonzero" d="M696 403c-5,24 -11,48 -17,73 -12,53 -29,107 -54,157 -13,26 -28,50 -46,73 -15,19 -42,39 -47,64 1,-7 -2,-15 -3,-22 0,-7 -1,-13 -1,-19 -11,-116 71,-219 144,-300 5,-6 23,-18 24,-26z"/>
   <path fill="#E94B73" fill-rule="nonzero" d="M748 270c-25,44 -53,38 -83,21 -29,-16 -49,-37 -24,-81 25,-43 120,-83 120,-83 0,0 11,100 -13,143z"/>
   <path fill="#EB5B84" fill-rule="nonzero" d="M629 203c-25,44 0,68 27,83 26,15 52,20 77,-24 25,-44 -10,-147 -10,-147 0,0 -70,45 -94,88z"/>
   <path fill="#ED7295" fill-rule="nonzero" d="M760 277c-25,44 -59,34 -86,19 -26,-15 -44,-34 -19,-78 24,-44 131,-67 131,-67 0,0 -1,83 -26,126z"/>
   <path fill="#497336" fill-rule="nonzero" d="M558 314c-4,31 -8,62 -12,94 -9,69 -23,140 -49,206 -12,34 -28,67 -48,97 -17,27 -48,55 -51,88 1,-9 -5,-19 -6,-28 -1,-8 -3,-16 -5,-24 -28,-145 62,-285 144,-397 6,-8 26,-27 27,-36z"/>
   <path fill="#E83D68" fill-rule="nonzero" d="M559 167c-21,52 -60,47 -92,35 -31,-13 -54,-31 -33,-83 20,-52 133,-95 133,-95 0,0 12,91 -8,143z"/>
   <path fill="#E83D68" fill-rule="nonzero" d="M432 130c-11,55 25,72 58,78 33,7 62,3 73,-52 11,-54 -61,-151 -61,-151 0,0 -60,70 -70,125z"/>
   <path fill="#E94B73" fill-rule="nonzero" d="M400 129c-10,55 15,69 39,73 24,5 45,-1 55,-56 9,-55 -40,-146 -40,-146 0,0 -45,74 -54,129z"/>
   <path fill="#ED7295" fill-rule="nonzero" d="M575 185c-24,50 -53,47 -75,37 -21,-11 -35,-28 -11,-78 24,-50 116,-96 116,-96 0,0 -6,86 -30,137z"/>
   <path fill="#EB5B84" fill-rule="nonzero" d="M548 164c-16,53 -45,55 -77,45 -33,-9 -57,-26 -41,-80 15,-53 102,-122 102,-122 0,0 32,103 16,157z"/>
   <path fill="#477938" fill-rule="nonzero" d="M385 742c-5,-314 72,-537 73,-540l19 7c-1,2 -76,222 -72,532l-20 1z"/>
   <path fill="#558539" fill-rule="nonzero" d="M294 295c0,31 0,63 -1,94 0,70 4,142 20,211 8,36 19,70 34,104 13,28 40,61 39,94 0,-10 7,-19 10,-28 2,-8 5,-15 7,-22 48,-141 -21,-292 -87,-414 -4,-9 -22,-30 -22,-39z"/>
   <path fill="#7F5431" fill-rule="nonzero" d="M340 816c1,-2 1,-4 1,-6 0,-30 -36,-48 -38,-66l-55 0c0,19 -35,35 -35,66 0,2 0,4 0,6l127 0z"/>
   <path fill="#7F5431" fill-rule="nonzero" d="M582 816c0,-2 0,-4 0,-6 0,-30 -35,-48 -37,-66l-55 0c0,19 -35,35 -35,66 0,2 0,4 0,6l127 0z"/>
   <path fill="#8F5B37" fill-rule="nonzero" d="M462 816c0,-2 1,-4 1,-6 0,-30 -36,-48 -38,-66l-55 0c0,19 -35,35 -35,66 0,2 0,4 0,6l127 0z"/>
  </g>
 </g>
</svg>
