<svg xmlns="http://www.w3.org/2000/svg" width="210mm" height="297mm" shape-rendering="geometricPrecision" text-rendering="geometricPrecision" image-rendering="optimizeQuality" fill-rule="evenodd" clip-rule="evenodd" viewBox="0 0 21000 29700"><g fill-rule="nonzero"><path fill="#D6D4D2" d="M5743 10147c-114 7-201 2-290-3-111-7-226-13-402 3-315 30-345 211-345 211s270 300 518 300 413-161 519-260c105-100 0-251 0-251z"/><path fill="#F6F5F6" d="M5789 9937c-137 135-345 932-541 1007-197 75-137 300-152 345s-180 241-135 316 152 270 287 360c134 90 464 90 615 0 150-90 405-105 510-105 106 0 767-976 872-1022 105-45 330-516 0-701-331-185-1502-200-1502-200h46z"/><path fill="#D6D4D2" d="M8192 15887c270 556 495 1202 525 1487 30 286 45 751-90 857-135 105-130 375-162 525-33 151 0 151 0 151h703s286-451 226-827c-61-375-256-1502-391-1803-135-300-811-390-811-390zM15448 16728c271 286 556 826 496 1082-60 255-60 601-75 796s-217 616-169 751c49 136 590 0 590 0s75-856 120-1066c45-211-105-782 0-894 105-113 92-519 9-744-84-225-295-391-295-661s256-1022 60-1127c-195-105-1171 511-1081 947 90 435 345 916 345 916z"/><path fill="#F6F5F6" d="M8552 16127c240 331 391 631 481 902 90 270 270 826 240 1081-30 256-120 301-150 481s30 421 30 421h511s-90-316 0-376 225-135 165-405c-60-271-255-992-300-1293-45-300-90-766-45-916s-932 105-932 105zM14817 17870c-167 435-405 1007-526 1232-120 225-195 466-180 511s706 0 706 0 75-406 166-406c90 0 48 45 114-195 66-241 171-811 261-1007 90-195-503-234-541-135z"/><path fill="#FDF5C8" d="M16921 12762c-211-511-583-1473-1553-1548-971-75-2294-248-3195-229-902 19-2269-11-2494-101-225-91-556-181-977-226-420-45-646-306-721-521s-541-591-916-711c-376-120-962-210-1142 150-125 251-450 149-406 361s79 189 272 200c194 10 374 10 524 100 84 51 182 6 271-40 70-36 134-71 180-60 105 25 406 431 361 521s-526 331-556 586c-30 256-228 600-383 628-156 28-636 161-637 161 0 0-62 113 73 398 136 286 451 391 564 676 112 286 338 751 398 1067 60 315 75 616 270 826 196 211 571 316 691 511 121 195 331 296 481 464 151 167 177 321 337 289 159-32 332-4 520 104 187 107 571 210 706 0 135-211 120-406 255-481s331-95 691 88c361 182 977 272 1503 152s1247-496 1457-451c211 46 721 361 932 661 210 301 450 646 390 917-60 270-90 601-195 736s-177 299 32 293c208-7 449-312 554-233 104 80 270-60 375-360 106-301 316-691 271-1112s-138-706 6-887c144-180 520-646 625-1051 105-406 60-1022 195-1172s451-195 241-706z"/><path fill="#F6F5F6" d="M7110 10398c27-155 465-130 578-33 113 98-12 371-195 391s-398-274-383-358z"/><path fill="#252422" d="M6328 10757c-137 44 241-279 301-302 60-22 255 60 270 113s-112 8-217 0c-106-7-286 167-354 189z"/><path fill="#F4ACBC" d="M5134 11327c84 0 60 188 0 142-60-45-52-142 0-142zM5277 11476c-87-60 135-142 188-149 52-8 127-75 120 0-8 75-75 97-154 120-79 22-102 66-154 29z"/><path fill="#252422" d="M5077 11801c66 22 139 28 212 28 131 0 263-21 336-25 66-4 131-18 186-50 55-31 101-84 115-155 5-26-12-52-39-57-26-5-52 12-57 38-9 42-31 68-67 90-37 21-89 33-144 36-81 6-208 26-330 25-67 1-132-6-182-22-26-9-53 6-61 31-9 26 5 53 31 61z"/><path fill="#F0E2AF" d="M8737 14723c-52-40-89-53-155-41-52 10-98 62-111 111l-1 6c-10 0-21 0-33-3-62-11-127-45-177-83-80-64-217 17-152 118 73 114 178 200 305 248 166 63 306-60 365-201 19-46-2-124-41-155zM9622 14438c-91 187-284 170-453 91-105-51-212 74-127 164 258 273 680 252 868-87 104-190-195-360-288-168zM9363 14968c-115 27-141 131-216 204-66 63-239-46-307-68-121-38-191 115-116 200 129 145 327 233 520 203 142-22 295-201 330-327 36-130-86-241-211-212zM10602 14866c-41-100-174-108-212 0-12 34-21 66-46 89-4 4-54 8-67 9-20 0-55-9-76-19-53-28-96-70-176-72-83-3-151 71-152 152-1 232 309 285 483 258 183-27 314-246 246-417zM10882 14141c-68 45-275 160-345 96-120-111-340 38-236 182 177 249 596 90 722-137 47-87-51-200-141-141zM14184 15006c-76 28-144 76-228 75-25-1-35-9-50-24l-19-41c-18-41-68-68-109-76-45-9-103-3-135 36l-6 8c-48 59-60 122-25 192 139 279 600 264 700-42 24-72-54-156-128-128zM12454 14902c4-13-4 1-6 6l-6 3c-14 5-49 5-72 1-44-9-128-40-132-98-9-135-192-131-207 0-46 408 584 563 726 171 69-189-242-278-303-83zM13159 14352l-6 16c-22 6-43 8-63 5-44-7-128-29-146-72-43-105-181-87-194 26-20 173 146 296 299 324 192 34 376-54 403-259 23-171-248-196-293-40zM11506 15288c-3 4-28 33-36 42l-14 10c-21 6-39 5-73-2-54-12-119-54-120-118-1-120-163-134-200-28-140 399 561 655 702 247 51-147-156-262-259-151zM15585 14452c-59-105-226-34-193 82-5-19-1-6-21 12-16 14-47 24-69 31-59 19-125 26-168-20-139-146-368 82-221 222 145 138 345 139 519 56 148-70 238-233 153-383zM15294 15630c-89-25-173 29-201 114 0-2-3 8-7 18l-24-7c-53-16-123-53-171-95-84-73-212-3-186 108 35 149 175 271 320 307 205 50 364-89 389-287 9-71-56-141-120-158zM9935 13751c-6 18 4 7-20 23-19 11-40 13-64 13-69 2-108-39-158-85-62-57-183-22-177 73 23 377 617 403 721 59 60-195-235-271-302-83zM8488 15516c-8-48-59-73-102-77-28-3-56 5-85 13-24 7-49 14-74 14-49 0-90-26-119-49-67-53-156-66-222 0-62 62-58 159 0 222 83 88 223 121 341 114 127-9 284-89 261-237zM11552 14437c-10 23-26 68-33 78l-26 23c-9 5-28 14-23 13-11 3-12 0-33-5-32-10-60-40-90-55-88-45-185 28-163 125 33 148 192 238 334 241 164 3 303-139 340-291 43-177-226-308-306-129zM14296 14166c-10 20 8 9-12 16-35 14-67 16-106 15-40-1-78-9-116-21-16-5-31-16-45-24-10-6-46-42-21-9-82-108-246-18-184 108 71 146 205 226 366 245 150 18 318-27 393-169 98-183-187-345-275-161zM13285 15276l-8-13c-26-39-71-71-120-68-79 5-125 36-166 103-15 25-41 41-67 49-73 24-157-12-226-35-91-30-162 78-119 156 156 282 553 215 706-29 29-47 30-116 0-163z"/><path fill="#F0E2AF" d="M10913 15555c-39 42-79 51-137 49-66-3-92-59-137-106-56-58-167-32-185 49-38 163 98 302 242 353 159 56 336 10 454-107 155-153-90-397-237-238zM15530 16482c-68-68-165-57-234 0 22-18-17 9-19 10l-4 2-12 3-4 1h-9l-23-1c-3-3-14-11-7-2-19-23-28-51-43-77-36-61-139-69-173 0-67 135 8 270 119 350 130 92 297 37 409-52 70-57 58-175 0-234zM15737 14944c-64 135-202 148-303 43-98-104-256 28-192 148 178 333 627 319 800-13 106-202-207-381-305-178zM14476 14673c-3 12-6 24-9 35h-17l-28-6c-26-6-23-6-39-14-31-15-53-30-76-50-64-54-204-28-190 79 20 152 145 274 299 295 202 28 357-92 381-295 23-186-278-220-321-44zM12336 14015l-12 20-12 7c-11-1-38-1-29 1-72-12-133-50-181-105-92-107-226 29-179 138 133 309 593 375 714 22 65-190-238-273-301-83zM15545 13800c-45-12-93-6-134 17l-25 20-1 1c-10 7-22 13-34 19l-2 1c-14 5-29 10-43 16-32 11-55 14-68 14-36 2-44-11-77-67-43-73-169-65-188 24-33 161 73 291 227 326 140 32 289-4 400-93 94-76 67-247-55-278zM14372 15574l-11 20c-13 7-22 8-40 8-38 1-67-9-108-43-88-74-222-5-194 113 32 141 169 221 302 238 158 21 294-65 353-209 72-176-214-289-302-127zM12260 15465c-45 71-83 125-160 163-47 24-91-46-149-68-56-21-106 23-125 71-74 193 180 310 332 281 167-32 328-167 387-326 63-172-194-264-285-121zM9936 15406c-69 66-177 20-244-32-85-66-229 18-161 125 138 216 412 292 616 119 147-124-71-348-211-212zM9119 15813c-3 11-6 22-9 34l-12-2c-6-2-44-17-33-12-21-10-55-23-71-37-83-73-231 23-161 124 66 96 143 183 263 206 178 36 305-106 316-274 11-171-248-198-293-39z"/><path fill="#D4C89E" d="M9634 13225c-99 0-193-30-249-97-16-37-34-74-58-114-31-50-76-81-125-97v-13c12-59 15-119 12-178l21-11c137 215 438 383 706 383h22c-73 80-205 127-329 127zM8791 12025c-134 0-269-20-371-109 3-51-10-103-48-144 16-6 30-16 44-25 166 120 382 181 594 182-21 26-37 57-48 89-55 3-113 7-171 7zM11001 11643c-102 0-218-67-299-137 84-6 165-22 238-51 89 36 184 60 279 70-29 12-58 32-84 61-37 40-84 57-134 57zM10950 13099c-112-8-483-176-525-215-18-16-40-29-62-39 32-86 22-180-52-253-34-34-81-57-130-66 10-6 1-16-42-30 29 9 56 14 81 14 78 0 139-43 176-104l3 10c115 259 459 434 776 444-63 13-122 48-159 106-31 48-51 92-66 133zM11746 12435c-18 0-38-1-58-3l-8-18c-42-72-133-123-220-123-40 0-80 11-113 36-11 8-24 12-37 18-55-18-103-34-133-43-26-8-52-12-76-12-43 0-82 13-114 34-75-36-139-90-167-154-36-79-123-118-209-118-44 0-88 10-124 31-32 19-57 42-75 68-26-54-72-100-143-125-26-9-51-12-75-12-35 0-70 7-107 12-21 6-42 11-63 16-23-48-62-98-119-148-51-44-115-66-178-66-101 0-199 58-229 174-2 10-4 21-7 32-26-32-51-54-64-54-5 0-9 3-11 10-18-26-39-53-62-80-9-10-19-18-28-26l18-5c91-30 141-96 160-169 124 57 256 93 384 93 125 0 245-34 352-117 9 34 25 67 51 98 167 200 451 339 721 339 132 0 260-33 369-109 4 50 27 100 79 143 128 109 291 186 458 217-32 44-94 61-172 61zM11625 13096c-43 0-85-2-128-5-10 0-19-1-28-2h1c12-136-82-214-191-231 18-2 35-5 52-8 137 33 284 57 424 57 32 0 64-1 95-4-33 51-48 113-33 176-37 6-74 10-110 14-28 2-55 3-82 3zM12081 11914c-98 0-237-67-277-101-51-43-106-61-160-61-34 0-68 8-100 21 2-106-68-206-162-245 82-7 159-26 229-59h13c87 25 178 42 268 56 9 62 41 122 104 167 67 49 145 92 228 127-20 16-39 35-56 59-18 26-49 36-87 36z"/><path fill="#D6D4D2" d="M8699 17262zm0-2c-49-241-176-616-336-996 161 380 287 755 336 996zm830-322c-21-139-42-314-54-477 12 163 33 338 54 477zm58-568c1-1 1-2 2-2 135-211 120-406 255-481 58-33 128-55 217-55 117 0 269 39 474 143 248 125 616 207 992 207 172 0 346-17 511-55 489-112 1146-444 1405-454h1c-259 10-917 342-1406 454-165 38-339 55-511 55-376 0-744-82-992-207-205-104-357-143-474-143-89 0-159 22-217 55-135 75-120 270-255 481-1 0-1 1-2 2zm-1556-390zm-2-2s-1-1-1-2c0 1 1 2 1 2zm-3-3c-150-168-360-269-481-464-120-195-495-300-691-511-195-210-210-511-270-826-60-316-286-781-398-1067-1-1-1-1-1-2 0 1 0 1 1 2 112 286 338 751 398 1067 60 315 75 616 270 826 196 211 571 316 691 511 121 195 331 296 481 464zm-1841-2870c-40-100-105-178-179-249h1c73 71 138 149 178 249z"/><path fill="#AEAAA8" d="M9132 18907h-667s-15 0-15-45c0-22 4-55 15-106 32-150 27-420 162-525 85-66 111-274 111-490 0-129-9-260-21-367-3-33-9-70-18-112v-2c-49-241-175-616-336-996 40-8 82-12 124-12 54 0 110 7 167 21 139 209 242 405 317 589 0 0 0 1 1 1 21 56 42 112 62 169 57 172 150 456 202 706 30 167 40 327 20 473v2c-39 169-107 225-133 378-17 105-5 229 9 316z"/><path fill="#CCC9CA" d="M9664 19012h-276c34-337 128-667 167-1007 47-418-124-835-269-1216-48-128-136-186-210-186-94 0-166 95-105 259-75-184-178-380-317-589 73 18 150 49 229 95 108 61 281 122 434 122 57 0 111-9 158-29 12 163 33 338 54 477 45 301 240 1022 300 1293 11 46 15 87 15 122 0 173-105 233-180 283-30 20-40 69-40 125 0 111 40 251 40 251zm-532-105c-14-87-26-211-9-316 26-153 94-209 133-378-30 217-192 269-124 694zm104-1169c-52-250-145-534-202-706 85 236 162 477 202 706z"/><path fill="#D4C89E" d="M9317 16490c-153 0-326-61-434-122-79-46-156-77-229-95-57-14-113-21-167-21-42 0-84 4-124 12-15 3-28 4-40 4-124 0-159-137-292-288l-2-2s-1-1-1-2c-1 0-1-1-2-1-150-168-360-269-481-464-120-195-495-300-691-511-195-210-210-511-270-826-60-316-286-781-398-1067-1-1-1-1-1-2-40-100-105-178-178-249 19-1 37-5 54-9 23 82 82 156 167 168 42 6 82 10 121 10 18 0 35-1 52-3-27 103 10 227 110 277 15 7 29 12 43 17 8 100 77 188 177 218 15 4 29 7 44 10-82 3-163 46-205 119-68 117-26 264 87 333 81 50 175 79 270 79 48 0 95-7 141-23 41-14 78-33 111-56-13 52-6 107 16 156l-17-4-2-1c-50-44-112-67-173-67s-121 22-168 70c-91 90-98 254 0 344 104 96 237 146 378 146h15c105-3 197-36 276-93 0 11 2 21 3 31-92 34-159 136-159 231 0 64 26 126 71 172 50 49 105 63 172 71h15c-19 36-31 76-31 114 0 145 112 227 243 243 19 2 37 2 56 2-2 8-3 17-4 25-45 62-37 146 16 203 75 80 198 115 308 115 11 0 22-1 33-1 39-3 81-12 119-28 34 27 65 63 95 101-5 48 2 98 27 144 22 41 48 76 76 106 25 35 58 65 101 88l8 7c104 80 136 93 250 115 48 21 95 39 149 56 25 7 49 11 72 11 162 0 262-175 222-320 38-49 61-113 66-181 6-94-70-144-147-144-34 0-70 10-98 32 3-60-12-122-41-171 12-17 22-36 29-56h12c25 0 51-2 77-6 73-11 148-64 210-130 22-2 45-5 68-9 131-24 203-180 170-300-32-116-132-175-242-175-19 0-38 2-57 5 15-2 14-3 6-3-9 0-26 1-36 2l-51-11c-11-3-17-4-21-5l-3-2c15 1 30 2 45 2 22 0 43-1 65-4 20 3 41 4 61 4 83 0 164-20 238-60 59 56 129 95 204 117-17 25-28 55-28 87-1 196 222 265 396 265 31 0 61-3 87-7 183-27 314-246 246-417-19-46-57-73-97-77 36-33 70-70 99-112 103 93 226 162 361 191 36 7 71 11 106 11 94 0 183-27 255-78 58 35 127 55 192 56h5c126 0 237-86 297-194 95 31 193 49 287 49 19 0 38-1 57-2 1 3 3 6 5 9-10-3-21-5-31-5-49 0-99 34-107 100-27 244 188 398 395 398 139 0 274-69 331-227 3-7 5-15 7-23h11c100 0 196-19 279-64 27 91 78 176 143 254-2 15-3 30-2 47-10-3-21-4-31-4h-7c-79 5-125 36-166 103-15 25-41 41-67 49-17 6-35 8-52 8-59 0-121-25-174-43-10-3-21-5-31-5-75 0-126 93-88 161 71 128 192 184 317 184 148 0 301-78 385-207 30 44 67 84 108 120 4 11 8 21 12 32 13 27 27 52 42 76-259 10-916 342-1405 454-165 38-339 55-511 55-376 0-744-82-992-207-205-104-357-143-474-143-89 0-159 22-217 55-135 75-120 270-255 481-1 0-1 1-2 2-28 43-67 72-112 91-47 20-101 29-158 29zm1245-1024c-48 0-97 30-108 81-38 163 98 302 242 353 45 16 92 24 139 24 116 0 231-48 315-131 119-118 1-290-127-290-38 0-77 16-110 52-35 38-71 49-122 49h-15c-66-3-92-59-137-106-21-22-49-32-77-32zm1360 89c-43 0-81 36-96 76-66 173 131 285 283 285 17 0 33-1 49-4 167-32 328-167 387-326 41-113-55-192-152-192-51 0-102 22-133 71-45 71-83 125-160 163-7 4-13 5-20 5-40 0-79-54-129-73-10-4-19-5-29-5zm-2299-204c-74 0-143 67-92 148 85 134 224 214 365 214 86 0 174-30 251-95 115-97 7-254-113-254-33 0-68 12-98 42-25 23-54 32-85 32-56 0-116-31-159-64-21-16-45-23-69-23zm1541-230c-41 0-84 23-101 71-90 257 167 454 400 454 130 0 252-61 302-207 37-106-60-195-156-195-37 0-74 13-103 44-3 4-28 33-36 42l-14 10c-10 3-18 4-28 4-12 0-26-2-45-6-54-12-119-54-120-118-1-66-49-99-99-99zm-889-157c-19 0-52-9-72-19 63-14 126-38 185-72-11 32-21 61-44 82-4 4-54 8-67 9h-2zm2131-49c-13 0-26-1-36-3-44-9-128-40-132-98 0-7-1-13-2-20 6 5 12 10 19 14 60 36 126 68 196 93-1 3-2 5-3 7l-6 3c-7 3-21 4-36 4zm-914-377c1-2 1-4 1-5 3-14 5-28 5-42 8 6 16 13 24 19-1 2-2 3-3 5l-26 23h-1z"/><path fill="#C3B789" d="M9459 14881c-20 0-41-1-61-4 91-9 179-41 259-98 12 15 26 29 40 42-74 40-155 60-238 60zM9167 15513h-12c19-52 23-112 10-168 71 23 145 35 222 35 22 0 44-1 67-3-62 66-137 119-210 130-26 4-52 6-77 6zM10269 15290c-174 0-397-69-396-265 0-32 11-62 28-87 52 16 107 23 162 23 47 0 93-5 140-16 20 10 53 19 72 19h2c13-1 63-5 67-9 23-21 33-50 44-82 41-23 80-52 117-84 40 4 78 31 97 77 68 171-63 390-246 417-26 4-56 7-87 7zM12426 15212c-207 0-422-154-395-398 8-66 58-100 107-100 10 0 21 2 31 5 15 27 37 53 67 75 1 7 2 13 2 20 4 58 88 89 132 98 10 2 23 3 36 3 15 0 29-1 36-4l6-3c1-2 2-4 3-7 100 37 208 60 313 61-2 8-4 16-7 23-57 158-192 227-331 227zM11463 15646c-233 0-490-197-400-454 17-48 60-71 101-71 50 0 98 33 99 99 1 64 66 106 120 118 19 4 33 6 45 6 10 0 18-1 28-4l14-10c8-9 33-38 36-42 29-31 66-44 103-44 96 0 193 89 156 195-50 146-172 207-302 207zM8194 15754c-110 0-233-35-308-115-53-57-61-141-16-203-3 29-2 58 6 86 31 113 131 177 240 177 19 0 39-2 59-7 32-7 63-17 92-30 13 14 28 28 45 38 12 8 23 16 34 25-38 16-80 25-119 28-11 0-22 1-33 1zM11523 14857h-5c-65-1-134-21-192-56 82-58 143-148 166-263h1l26-23c1-2 2-3 3-5 86 64 190 117 298 153-60 108-171 194-297 194zM12896 15652c-125 0-246-56-317-184-38-68 13-161 88-161 10 0 21 2 31 5 53 18 115 43 174 43 17 0 35-2 52-8 26-8 52-24 67-49 41-67 87-98 166-103h7c10 0 21 1 31 4 0 21 2 43 7 66 13 65 41 126 79 180-84 129-237 207-385 207z"/><path fill="#C3B789" d="M10835 15924c-47 0-94-8-139-24-144-51-280-190-242-353 11-51 60-81 108-81 28 0 56 10 77 32 45 47 71 103 137 106h15c51 0 87-11 122-49 33-36 72-52 110-52 128 0 246 172 127 290-84 83-199 131-315 131zM12109 15916c-152 0-349-112-283-285 15-40 53-76 96-76 10 0 19 1 29 5 50 19 89 73 129 73 7 0 13-1 20-5 77-38 115-92 160-163 31-49 82-71 133-71 97 0 193 79 152 192-59 159-220 294-387 326-16 3-32 4-49 4zM9896 15713c-141 0-280-80-365-214-51-81 18-148 92-148 24 0 48 7 69 23 43 33 103 64 159 64 31 0 60-9 85-32 30-30 65-42 98-42 120 0 228 157 113 254-77 65-165 95-251 95zM9346 16033c-15-53-49-102-106-136-33-20-62-41-91-63 11-29 17-62 18-94 28-22 64-32 98-32 77 0 153 50 147 144-5 68-28 132-66 181z"/><path fill="#D4C89E" d="M12782 14483c-10 0-24-1-42-4-70-11-126-30-182-59 9-26 17-53 23-82 4-26 4-50 2-74 56 22 113 36 171 42-2 7-3 14-4 21-7 58 7 111 36 156h-4zm341-141c-33-14-68-23-103-23-18 0-37 3-55 8-9-8-17-16-21-26 69-12 135-34 198-67-9 31-15 64-14 98l-5 10z"/><path fill="#C3B789" d="M12786 14483c-29-45-43-98-36-156 1-7 2-14 4-21 25 3 51 5 77 5 38 0 76-3 113-10 4 10 12 18 21 26-52 14-99 51-132 115-14 30-24 41-47 41z"/><path fill="#D4C89E" d="M12170 13554h-5c-53-2-30-1-63-7-26-5-51-12-77-19-21-5-30-7-35-9 91-26 176-60 244-101 45 14 90 24 135 30-14 1-27 3-39 6-62 17-106 53-135 99h-13c-4 1-8 1-12 1zM12027 14223c-50-10-98-27-141-48-26-13-50-29-74-45 3 2 4 3 5 3 2 0-5-8-13-16-8-7-17-15-19-15s0 4 8 16c-52-71-127-117-208-120 26-148-114-269-255-269-65 0-130 26-179 86l-6 7c-7 1-14 1-20 1-29 0-45-6-83-15-86-23-148-57-195-113-42-48-102-70-164-70-28 0-57 5-85 14-16-8-34-16-54-23-21-7-43-11-65-11-62 0-124 30-169 75-16-3-33-7-53-12-37-10-68-27-105-50l-12-17c86-45 162-106 222-184 179 90 387 151 575 151 91 0 177-14 252-46 79 27 171 43 268 50 0 17 1 34 5 52 38 187 233 323 453 384-4 22-2 46 8 68 25 58 61 107 104 147zm240-183c0-1-1-1-2-1 5 0 10-1 15-2-4 1-8 2-13 3z"/><path fill="#C3B789" d="M12080 14229c-15 0-32-2-50-6h-3c-43-40-79-89-104-147-10-22-12-46-8-68 85 24 174 36 259 36 31 0 62-1 91-5 1 0 2 0 2 1-74 16-137 68-156 168l-3 18c-9 2-18 3-28 3z"/><path fill="#D4C89E" d="M10067 14484c-8 0-16 0-24-1h3c12 0 12-1 8-3s-11-3-16-3c-4 0-5 1 5 6h-1c-21-10-19-12-25-31-34-103-112-154-196-166 6-29 9-60 10-94 0-48-12-89-31-123 25 5 50 7 76 7 28 0 56-3 83-8 120 69 260 107 398 107 81 0 161-13 236-40l8-4c21 16 41 32 64 46-32 3-65 13-97 32-12 7-23 15-34 25-29-25-63-36-96-36-84 0-166 66-164 146-33 20-62 48-86 82-1 2-33 30-47 38-9 6-62 19-52 19-8 1-15 1-22 1zm-681-431c-20-10-41-22-70-39-64-36-117-74-167-117l-5-6c6-57-8-119-40-171 76-23 147-58 203-105 82 35 169 60 259 73-31 16-52 46-50 87 5 74 31 135 72 182-78 0-156 32-202 96z"/><path fill="#C3B789" d="M10274 14344c-2-80 80-146 164-146 33 0 67 11 96 36-25 22-47 51-62 83-23-8-47-11-70-11-45 0-89 14-128 38zM9876 14076c-26 0-51-2-76-7-44-75-128-112-212-112-41-47-67-108-72-182-2-41 19-71 50-87 29 4 59 7 89 9l6 24c51 149 161 268 298 347-27 5-55 8-83 8z"/><path fill="#D4C89E" d="M10089 14483h2-2zM12819 13828c-41 0-83-16-122-52-21-18-42-31-63-42 3-34 2-70-5-110-15-91-98-153-187-171 13 1 26 1 39 1 260 0 508-128 624-386 42 5 85 8 129 10 26 28 59 52 102 67 58 20 117 38 177 55 13 29 28 57 44 84-43 28-79 69-99 129l-3 15-12 6c9-5 11-8 8-8-4 0-22 8-35 12h-52c-51-2-130-37-198-89-33-26-72-37-112-37-87 0-179 53-221 124-73 126-17 252 88 333l20 14c-37 29-79 45-122 45zM14290 13333c-3-45-19-90-43-128 29-11 59-22 88-36 180-91 142-296 18-394 20-8 38-17 57-27l19 26c153 161 431 306 679 306h2c-5 14-9 26-14 35-26-7-52-15-77-24-102-34-199-54-301-54-43 0-87 4-133 11-86 16-145 89-167 172-53 21-98 61-127 113h-1zM15099 12595c-33-1-68-14-109-27-83-28-153-75-207-130 54-37 99-87 134-143 130 98 285 160 445 178l-20 24c-19-5-39-7-59-7-69 0-137 31-184 105zM15427 11991c-72 0-143-18-199-65-44-36-96-59-148-66l11-22c90 16 188 36 281 38 11 43 34 82 65 115h-10z"/><path fill="#D6D4D2" d="M14494 19633c0-2 1-3 2-4 146-5 285-14 315-16-39 3-255 16-317 20zm323-20s75-406 166-406c24 0 39 3 49 3 26 0 17-23 65-198 61-223 156-729 241-958-85 228-180 735-241 958-48 175-39 198-65 198-10 0-25-3-49-3-91 0-166 406-166 406zm-193-1258l30-72h-13c-36 0-63-6-82-16 19 10 46 16 83 16h12l-30 72zm-66-88zm0-1zm1386-456v-2 2zm0-2c1-1 1-1 1-2 0 1 0 1-1 2zm1-2c33-147-48-387-173-619 126 231 206 472 173 619zm-377-74v-1 1zm1-2c4-12 9-25 14-37-5 12-10 25-14 37zm14-37v-2 2zm0-3c11-29 22-59 33-89-11 30-22 60-33 89zm33-90c1 0 1-1 1-2 0 1 0 2-1 2zm508-1608v-1 1zm0-1v-1 1zm0-1v-1 1zm0-1v-1 1zm0-2zm0-1zm361-1344v-2c105-406 60-1022 195-1172 103-115 311-168 311-413 0 245-208 298-311 413-135 150-90 766-195 1172v2zm-1159-3431c-59-5-118-10-179-15 60 5 120 10 179 15z"/><path fill="#AEAAA8" d="M15875 19417c-88 0-158-15-175-60-5-14-7-32-7-52 0-171 163-525 176-699 15-195 15-541 75-796v-2c1-1 1-1 1-2 33-147-47-388-173-619 62-190 105-396 82-609-45-421-138-706 6-887 85-106 252-313 395-548-17 271-128 660-131 843v6c0 270 211 436 295 661 42 114 66 274 66 419 0 142-23 269-75 325-28 30-38 94-38 175 0 178 47 440 47 614-1 40-3 76-9 105-45 210-120 1066-120 1066s-241 60-415 60z"/><path fill="#CCC9CA" d="M14496 19629c254-401 600-973 228-1233-34-24-67-37-100-41l30-72c184-7 394-246 513-246 15 0 29 4 41 13 19 15 41 22 64 22 21 0 43-6 66-18-85 229-180 735-241 958-48 175-39 198-65 198-10 0-25-3-49-3-91 0-166 406-166 406h-6c-30 2-169 11-315 16z"/><path fill="#D4C89E" d="M14642 18283c-37 0-64-6-83-16h-1v-1c-65-35-38-123 19-212h24c165-17 286-79 438-138 123-49 209-162 170-300-3-10-7-20-10-30 103-180 107-376 20-512 20-83 21-173 3-263 17 3 34 4 51 4 92 0 186-43 257-99 70-57 58-175 0-234-33-32-72-47-112-47-43 0-86 17-122 47 6-5 7-6 7-6-2 0-25 15-26 16l-4 2-12 3-4 1h-9l-23-1c-2-2-7-6-9-6-1 0-1 1 2 4-19-23-28-51-43-77-10-16-25-29-41-37-12-38-28-74-48-108-4-70-30-140-69-200 3 0 5 1 8 2 29 7 57 10 83 10 164 0 285-127 306-297 1-12 1-23-1-34 33-83 33-178-17-273-31-58-85-96-146-111 30-35 57-74 80-116 86 83 195 124 304 124 160 0 320-87 408-256 73-139-53-267-170-267-53 0-104 26-135 89-36 75-95 113-157 113-50 0-101-24-146-70-25-26-53-38-81-38-9 0-17 1-25 3-21-26-46-48-74-64 60-7 120-25 178-53 148-70 238-233 153-383-20-36-53-51-86-51-64 0-128 57-107 133-2-7-3-10-3-10-2 0-5 10-18 22-16 14-47 24-69 31-5 2-10 4-15 5 15-45 24-95 28-147 11-132-119-243-243-243-121 0-205 82-233 188-91-16-178-39-269-52 1 0 1-1 1-1 11-20 17-39 19-58 133-37 243-126 279-272 44-181-103-299-246-302 47-44 86-102 112-176l21 2c37 7 72 20 108 31 42 14 83 26 125 36-41 74-38 157-3 225-6 9-10 20-13 32-33 161 73 291 227 326 34 8 68 12 102 12 107 0 213-38 298-105 40-32 58-82 56-132 59-49 103-117 121-192 32-129-39-264-170-300-19-5-39-8-59-8-42 0-83 11-119 31 70-78 120-179 154-275 47-134-23-233-124-274 10-12 19-27 28-40 63 33 131 53 202 53 44 0 89-8 133-26 165-65 273-195 329-362 42-126-48-266-170-300-21-5-42-8-62-8-9 0-17 1-26 1 8-33 8-68-1-106 143-28 247-145 291-285 40-127-45-265-170-299-21-6-43-9-64-9-72 0-139 34-185 88-11-7-21-14-32-21 14-95-25-192-115-245-37-21-79-32-121-32-58 0-115 19-159 56-56-10-111-24-168-32-17-2-33-4-50-4-5-18-11-37-18-54 24-32 39-68 46-107 61 5 120 10 179 15l42 3c970 75 1342 1037 1553 1548 50 121 70 217 70 293 0 245-208 298-311 413-135 150-90 766-195 1172v2c-44 165-131 339-230 500v1c-143 235-310 442-395 548-144 181-51 466-6 887 23 213-20 419-82 609-48 148-107 286-155 411 0 1 0 2-1 2v1c-11 30-22 60-33 89v3c-5 12-10 25-14 37l-1 1v1c-66 168-151 279-229 321l-1 1c-23 12-45 18-66 18-23 0-45-7-64-22-12-9-26-13-41-13-119 0-329 239-513 246h-12zm245-3249c-15 0-30-1-44-2-12-26-28-51-53-71-16-28-33-56-49-84 4-6 8-12 12-19 43 8 88 14 131 14 15 0 29-1 44-2 33-3 63-9 92-17 14 6 28 12 42 16-71 26-127 88-159 164-5 1-10 1-16 1z"/><path fill="#C3B789" d="M15254 14888c-17-10-34-17-52-22-23-6-45-9-66-9-26 0-51 4-74 12-14-4-28-10-42-16 137-41 224-140 267-271 5-1 10-3 15-5 22-7 53-17 69-31 13-12 16-22 18-22 0 0 1 3 3 10-21-76 43-133 107-133 33 0 66 15 86 51 85 150-5 313-153 383-58 28-118 46-178 53zM15108 16085c-26 0-54-3-83-10-3-1-5-2-8-2-11-18-24-36-38-52 45-2 90-6 137-19 135-35 250-130 297-248 2 11 2 22 1 34-21 170-142 297-306 297zM14570 14328c-11-1-23-3-35-4 0-12 0-23 2-35l-1-8c18-3 37-7 54-12-2 19-8 38-19 58 0 0 0 1-1 1zM15273 16815c-17 0-34-1-51-4-13-68-36-136-70-198 10-80 4-159-18-232 16 8 31 21 41 37 15 26 24 54 43 77-3-3-3-4-2-4 2 0 7 4 9 6l23 1h9l4-1 12-3 4-2c1-1 24-16 26-16 0 0-1 1-7 6 36-30 79-47 122-47 40 0 79 15 112 47 58 59 70 177 0 234-71 56-165 99-257 99zM15634 15378c-109 0-218-41-304-124 16-28 30-58 42-89 29-73 5-153-44-213 8-2 16-3 25-3 28 0 56 12 81 38 45 46 96 70 146 70 62 0 121-38 157-113 31-63 82-89 135-89 117 0 243 128 170 267-88 169-248 256-408 256zM14741 14877c-4-8-9-16-13-23 8 1 16 3 25 4-4 7-8 13-12 19zM15302 14183c-34 0-68-4-102-12-154-35-260-165-227-326 3-12 7-23 13-32 21 41 53 76 93 102 101 65 213 101 331 112 10 1 19 1 29 1 81 0 157-31 217-82 2 50-16 100-56 132-85 67-191 105-298 105z"/><path fill="#D4C89E" d="M13709 13876c-23-7-44-9-64-10 81-38 152-95 207-172 16 17 35 33 59 43 48 20 100 37 153 51-26 12-50 30-71 51-32 4-66 13-99 29-61 3-123 5-185 8z"/><path fill="#D6D4D2" d="M5549 12033zm0 0zm0 0zm-303-68zm687-34c79-31 171-49 254-59h-1c-2 0-4 1-6 1-79 10-166 27-242 57-1 0-3 0-5 1zm-298-1780h-8c0-1-1-1-1-1h45-1c-12 0-23 1-35 1z"/><path fill="#AEAAA8" d="M5653 10192c-8-15-16-29-26-41h8c12 0 23-1 35-1-6 14-11 27-17 42z"/><path fill="#CCC9CA" d="M5549 12033c-118 0-234-23-301-68h-2c-58-40-111-99-156-160 62 18 131 24 199 24 131 0 263-21 336-25 66-4 131-18 186-50 55-31 101-84 115-155 4-20-6-41-23-51 199-176 362-424 578-570 46-31 76-72 94-117 43-19 87-44 133-78 73-53 106-124 109-195 20 3 37 5 51 5 24 0 37-6 31-25-6-23-46-51-95-74-30-93-111-167-214-167-40 0-83 11-128 36-18 10-36 19-54 29-35-18-107-36-140-36-15 0-22 4-14 13-43-50-101-69-160-69-31 0-63 5-94 15-42-33-95-48-148-48-21 0-42 2-62 7-7 1-15 2-23 2-28 0-60-9-95-22-3-21-10-43-19-62 6-15 11-28 17-42h1l8-18c12 0 25 1 40 2 31 11 65 17 100 17 15 0 29-1 44-3 38 9 75 14 113 14 24 0 49-2 73-7 16 2 32 4 48 7 32 11 65 19 98 23 41 13 81 30 118 52 27 16 54 23 82 23 38 0 78-12 116-28 48 12 93 17 138 17 37 0 74-4 114-9 34-5 63-15 86-28 7 52 29 103 67 144s88 80 144 106c51 85 81 163 65 196-45 90-526 331-556 586s-227 599-382 628c-83 10-175 28-254 59-180 46-376 100-384 102z"/><path fill="#D4C89E" d="M6131 12382c-34-54-91-97-146-112-20-6-41-9-62-9-48 0-98 14-139 40-43-24-89-37-135-37-29 0-57 5-85 17-53-174-16-247-15-248 8-2 204-56 384-102 2-1 4-1 5-1 97-25 189-47 244-57h-2c2 0 4-1 6-1h1c155-29 352-373 382-628s511-496 556-586c16-33-14-111-65-196 2 2 4 3 6 4 14 9 28 18 41 27 14 9 27 17 40 25 11 53 40 100 89 136 12 126 112 228 242 228 59 0 115-24 158-62l1 3c7 12 17 22 26 33-29 12-55 31-76 55h-4c-194 0-357 223-180 402-36-37-61-60-85-60-28 0-55 31-99 106-18 41-35 82-50 124-4 14-8 26-10 36-149 63-196 247-129 364-22 41-38 70-39 70-9-2-18-2-27-2-99 0-165 75-194 164h-5c-44 0-88 13-127 36h-17c-16 0-32 1-48 5-21-5-42-7-62-7-70 0-137 26-192 85-9 1-17 2-26 3-86 12-139 72-162 145zm264-2122c-28 0-55-7-82-23-37-22-77-39-118-52 20 3 41 5 60 5 31-1 60-4 87-12 37 9 75 16 113 20-12-1-20-2-27-2-24 0-8 9 49 26 11 4 23 7 34 10-38 16-78 28-116 28zm-298-98c-16-3-32-5-48-7 6-1 12-3 17-4 11 4 21 8 31 11zm-378-28c-15-1-28-2-40-2v-1c-77-5-111-22-139-104 15 7 31 12 49 16 36 43 81 73 130 91z"/><path fill="#CCC9CA" d="M5045 11741c-10-15-20-30-29-45 15 8 30 15 46 21-8 6-13 13-16 23l-1 1zm632-42c49-22 95-49 139-81-11 21-29 37-53 52-24 13-54 23-86 29z"/><path fill="#252422" d="M6868 10593c-14 0-31-2-51-5 2-32-3-64-13-94 49 23 89 51 95 74 6 19-7 25-31 25zM5289 11829c-68 0-137-6-199-24-16-21-31-43-45-64l1-1c3-10 8-17 16-23 88 36 181 54 277 54 98 0 198-19 296-55 14-5 28-11 42-17 32-6 62-16 86-29 24-15 42-31 53-52 30-22 59-45 87-70 17 10 27 31 23 51-14 71-60 124-115 155-55 32-120 46-186 50-73 4-205 25-336 25z"/><path fill="#D4C89E" d="M6457 10198h-2 2z"/><path fill="#D6D4D2" d="M5893 9624c11-14 21-30 30-48-9 18-19 34-30 48zm1306-146zm-2-1h-1 1zm-2-1c-36-16-73-30-108-42 35 12 72 26 108 42zm-108-42c-1-1-2-1-2-1s1 0 2 1zm-2-1c-1-1-2-1-3-1 1 0 2 0 3 1zm-3-1s-1 0-2-1c1 1 2 1 2 1zm-2-1h-2 2zm-2 0c-1-1-1-1-2-1 1 0 1 0 2 1zm-2-1c-1 0-1-1-2-1 0 0 1 1 2 1zm-2-1c-1 0-2 0-2-1 0 1 1 1 2 1zm-3-1h-2 2zm-2 0c0-1-1-1-2-1 1 0 2 0 2 1zm-2-1c-1 0-2-1-2-1s1 1 2 1z"/><path fill="#D4C89E" d="M7614 10268c-14-10-28-21-43-29l-15-18c-62-64-149-122-231-170l-15-14-6-3c6-21 10-43 13-67 3-16-4-82-5-82 0 0 0 14 3 55-10-132-103-243-243-243-17 0-34 4-50 8-11-18-23-35-38-50-32-32-66-48-104-58v-1l-26-12c-40-20-84-30-126-30-36 0-71 7-104 22-38 13-74 38-102 69-4-12-9-24-14-34-5-16-11-31-22-47-59-88-138-122-242-127h-9c-81 0-161 52-201 121-14 24-22 53-27 83l-21 5c-22-8-47-12-73-13l-20-9c11-14 21-30 30-48 96-191 307-256 539-256 205 0 427 50 603 106 0 0 1 1 2 1s2 0 2 1h3c0 1 1 1 2 1s1 1 2 1 1 0 2 1h2c1 1 2 1 2 1 1 0 2 0 3 1 0 0 1 0 2 1 35 12 72 26 108 42 0 0 1 0 1 1h1c1 0 2 1 2 1 331 148 686 445 772 636l-21 25c-44 31-78 74-94 125-37-20-78-29-118-29-43 0-86 11-124 33z"/></g></svg>