<svg xmlns="http://www.w3.org/2000/svg" width="210mm" height="297mm" shape-rendering="geometricPrecision" text-rendering="geometricPrecision" image-rendering="optimizeQuality" fill-rule="evenodd" clip-rule="evenodd" viewBox="0 0 21000 29700"><path fill="#F075B8" fill-rule="nonzero" d="M8736 12925S7200 9593 6800 9457s-634 77-634 77 328 642-17 863c-344 222-936-234-1072 166s247 677 32 805c-308 182-886 52-865 571 15 367 602 828 901 955 2157 920 3254 724 3254 724s473-370 337-693z"/><path fill="#8CC833" fill-rule="nonzero" d="M8736 12925S7200 9593 6800 9457s-634 77-634 77 328 642-17 863c-344 222-936-234-1072 166s247 677 32 805c-308 182-886 52-865 571 15 367 602 828 901 955 2157 920 3254 724 3254 724s473-370 337-693z"/><path fill="#8CC833" fill-rule="nonzero" d="M8736 12925S7200 9593 6800 9457s-634 77-634 77 328 642-17 863c-344 222-936-234-1072 166s247 677 32 805c-308 182-886 52-865 571 15 367 602 828 901 955 2157 920 3254 724 3254 724s473-370 337-693z"/><path fill="#8CC833" fill-opacity=".612" d="M6675 10224c-122 171-308 252-439 262-66 6-119-1-154-11-35-8-53-16-53-16s20 0 54-3c35-3 84-12 140-32 111-39 249-132 349-273 102-143 157-302 190-420 16-59 28-109 36-143s12-53 12-53 3 19 7 54c5 36 8 87 7 151-2 126-29 314-149 484zM7738 11789c552 681 951 1274 951 1274s-497-513-1049-1195c-137-169-271-334-371-502s-159-335-199-474c-40-140-62-254-78-333-15-80-23-124-23-124s15 42 42 118 65 186 119 319c53 131 124 285 229 437 104 153 241 309 379 480zM6649 12188c212 112 403 232 577 339 175 109 330 209 460 293 261 170 419 281 419 281s-174-83-450-226c-138-71-302-157-482-256-181-97-376-210-583-320-411-223-818-346-1121-401-151-28-276-43-362-51s-135-10-135-10 48-6 135-9c88-4 214-6 371 8 156 13 342 42 543 98 201 55 416 141 628 254zM7351 13205c-303-82-578-157-777-211-200-56-323-94-323-94s128 7 335 32c206 25 491 66 799 152 307 85 574 204 755 308 91 52 162 97 210 131 47 34 73 53 73 53s-29-13-83-35c-53-24-131-55-227-92-192-74-461-160-762-244zM8332 12843c215 231 360 453 360 453s-233-131-453-367c-219-236-333-478-333-478s210 161 426 392zM5748 10614c206 25 370 113 479 179 111 67 174 117 174 117s-78-22-200-60c-121-37-286-89-467-110-179-20-346 8-456 58-56 25-99 52-127 74-28 21-43 35-43 35s9-18 29-49 55-72 108-114c105-84 294-153 503-130zM4877 12318c146 162 311 283 434 366 62 42 113 74 149 96s56 34 56 34-22-6-64-16c-41-11-99-30-171-58-140-57-335-158-497-337-163-179-243-395-246-554-2-80 15-144 33-183 18-40 34-58 34-58s-9 23-15 63c-6 41-6 100 11 170 33 139 131 317 276 477z"/><g><g fill="#8CC833" fill-rule="nonzero"><path d="M8736 12925s-1030-2234-1623-3118c3 19 4 37 6 52 17 222-81 758 93 1217 190 500 1304 1583 1244 1713-59 129-442-147-442-147s342 293 181 361c-162 68-2128-1399-3088-1156 0 0 2167 754 2475 1148 308 393-823-34-1115-26 0 0 717 279 626 355-92 77-1893-202-2404-1234-119-240-167-419-171-551-163 57-284 158-274 400 15 367 602 828 901 955 2157 920 3254 724 3254 724s473-370 337-693z"/><path d="M6149 10397c-33 22-70 37-107 47 187 6 456-41 596-325 99-201 178-425 236-613-27-25-52-41-74-49-400-136-634 77-634 77s328 642-17 863zM5042 11402l8 16s1050-702 2252 467c0 0-761-1342-1679-1215-301 41-466 136-552 245 57 213 183 367 38 453-21 13-44 24-67 34z"/></g></g><g><path fill="#8CC833" fill-opacity=".341" d="M6209 10887c244 142 461 284 618 396 78 55 142 102 186 135 18 14 32 24 43 32 109 189 232 341 333 455 155 173 265 268 265 268s-59-133-161-339c-100-206-240-484-352-795-110-309-159-607-153-828 2-110 13-202 25-265s20-98 20-98-22 28-57 84c-35 57-78 144-113 259-72 230-86 583 40 933 15 41 32 81 49 120-12-17-23-33-36-51-118-161-312-368-580-525-134-78-283-135-427-150-146-16-270 9-367 37-98 28-171 60-222 83s-78 37-78 37 31 1 86 2c55 0 135-1 230 3 94 4 203 14 310 47 108 32 221 90 341 160zM7775 12579c-12-71-42-162-107-239-65-76-151-120-219-142-68-23-118-25-118-25s8 49 29 115c22 66 57 147 116 217 60 69 135 116 196 148 62 31 110 46 110 46s5-50-7-120zM6649 12119c13 8 19 12 19 12s-3-7-11-19c-7-13-18-33-34-55-32-47-85-112-165-178-159-135-425-256-726-310-153-27-304-34-440-19-137 14-258 49-353 93-94 44-161 96-204 133-41 39-61 62-61 62s29-10 81-28c52-16 127-35 219-45 185-23 435 1 713 53 281 51 532 100 706 170 87 33 156 69 203 97 24 14 41 26 53 34zM6506 12701c-239-13-456 25-608 67s-242 85-242 85 98 19 251 41c153 21 359 47 586 59 226 12 434 9 589 4 154-4 253-13 253-13s-84-53-231-111-358-119-598-132zM6348 13015c-64-15-129-2-182 14-52 16-90 35-90 35s15 40 50 85c36 45 92 95 165 112 74 17 147-3 198-28s83-54 83-54-26-34-66-71c-41-38-94-78-158-93z"/></g><g><path fill="#8CC833" fill-rule="nonzero" d="M5574 11663c66 13 120 46 155 75s53 53 53 53-30 5-74 6c-43 2-100 2-159-10-59-11-111-32-151-50s-66-33-66-33 26-17 69-30c44-14 106-24 173-11zm1409-971c-5-60-9-110-10-144-2-35-3-55-3-55s-6 19-17 52c-10 34-23 83-33 145-21 124-29 302 15 491 44 190 129 347 203 448 37 52 69 90 94 116 24 25 37 39 37 39s-7-18-21-50-33-78-54-135c-44-113-95-270-136-446-40-176-65-339-75-461zm-958-59c-66-7-109-4-109-4s34 27 88 63 129 82 216 122c87 39 170 66 233 83s105 25 105 25-25-35-74-80c-48-46-121-102-212-143s-181-60-247-66zm144 2201c-108 36-170 70-170 70s70-3 182-8c111-5 262-8 428-9 165-1 316-1 428 2 111 3 182 4 182 4s-63-32-172-66c-108-35-265-68-439-66-175 1-331 37-439 73zm1253-467s26 105 108 176c82 70 190 79 190 79s-25-105-108-175c-82-71-190-80-190-80z"/></g><g><path fill="#8CC833" fill-rule="nonzero" d="M12933 17019c-1069 1281-2973 1453-4254 384s-1452-2973-384-4254c1069-1281 2973-1452 4254-384 1281 1069 1452 2974 384 4254z"/></g><g><path fill="#8CC833" fill-rule="nonzero" fill-opacity=".478" d="M8399 13880c1092-1309 3112-1436 4581-317-151-234-339-450-564-638-1193-995-2966-835-3961 358-434 519-648 1150-653 1777 106-425 303-827 597-1180z"/></g><path fill="#8CC833" fill-rule="nonzero" fill-opacity=".612" d="M13178 13489c186 800 8 1674-559 2353-960 1151-2671 1305-3822 345-695-580-1026-1434-968-2273-501 1192-194 2618 850 3489 1281 1069 3185 897 4254-384 857-1026 915-2454 245-3530z"/><g><path fill="#F075B8" fill-rule="nonzero" d="M13013 16494s3552 915 3758 1284c205 369 38 637 38 637s-691-207-847 172c-155 379 398 879 29 1084-369 206-709-121-798 113-124 335 108 881-406 953-364 51-923-444-1102-715-1290-1958-1294-3073-1294-3073s280-531 622-455z"/><path fill="#8CC833" fill-rule="nonzero" d="M13013 16494s3552 915 3758 1284c205 369 38 637 38 637s-691-207-847 172c-155 379 398 879 29 1084-369 206-709-121-798 113-124 335 108 881-406 953-364 51-923-444-1102-715-1290-1958-1294-3073-1294-3073s280-531 622-455z"/><path fill="#8CC833" fill-rule="nonzero" fill-opacity=".4" d="M13013 16494s3552 915 3758 1284c205 369 38 637 38 637s-691-207-847 172c-155 379 398 879 29 1084-369 206-709-121-798 113-124 335 108 881-406 953-364 51-923-444-1102-715-1290-1958-1294-3073-1294-3073s280-531 622-455z"/><path fill="#8CC833" fill-opacity=".612" d="M16039 18039c-147 150-193 347-179 478 6 67 22 117 38 150 15 33 25 49 25 49s-3-19-6-54c-4-34-3-84 6-143 18-116 86-268 206-392 123-126 269-208 380-262 55-27 101-47 134-61 32-14 50-22 50-22s-20 1-55 3c-36 2-87 7-150 20-123 25-303 85-449 234zM14309 17273c-769-422-1423-708-1423-708s593 397 1362 819c192 104 378 206 561 274 183 69 358 97 502 112 145 14 261 15 342 17h125s-44-7-123-20c-80-13-195-30-334-60-140-29-303-72-472-147s-347-182-540-287zM14112 18416c-148-189-301-355-438-508-138-152-264-287-371-400-213-226-350-361-350-361s113 156 302 402c95 123 209 269 338 429 128 160 275 332 419 516 293 364 487 742 596 1030 55 144 91 264 114 348 24 83 35 130 35 130s-3-48-15-134c-12-87-33-212-74-363s-103-329-194-517c-90-188-214-384-362-572zM12985 17907c135 284 258 541 347 727 90 187 151 301 151 301s-31-126-92-324c-61-199-154-472-292-759-140-287-304-528-439-688-67-80-125-142-167-183-42-40-65-63-65-63s18 27 50 76c33 47 77 119 131 207 107 175 240 425 376 706zM13166 16877c-266-170-510-274-510-274s170 207 442 381c271 174 530 242 530 242s-196-178-462-349zM15821 19021c-61-199-177-344-262-440-86-97-146-150-146-150s35 73 94 186 140 265 193 440c52 172 53 341 24 459-14 59-33 106-49 138-17 31-27 48-27 48s16-11 42-37c27-25 62-67 93-127 64-118 98-317 38-517zM14300 20182c-185-115-333-255-438-361-51-54-92-98-120-130-29-32-44-49-44-49s10 21 27 60c19 38 47 93 88 158 81 128 215 302 421 429 205 128 432 168 589 143 79-12 138-40 174-66 36-25 51-43 51-43s-21 12-60 26c-39 13-97 24-169 20-142-8-335-73-519-187z"/><g><g fill="#8CC833" fill-rule="nonzero"><path d="M13013 16494s2382 614 3358 1039c-19 1-37 2-53 4-220 23-730 215-1213 126-527-98-1791-1000-1908-918s224 409 224 409-350-284-388-113 1757 1843 1689 2831c0 0-1129-1997-1571-2230-443-233 181 804 224 1092 0 0-402-655-461-552-59 104 538 1827 1644 2144 258 74 442 90 573 70-27 171-104 308-344 341-364 51-923-444-1102-715-1290-1958-1294-3073-1294-3073s280-531 622-455z"/><path d="M15963 18587c-16 37-24 75-27 114-39-183-41-456 213-645 180-133 386-251 561-342 29 23 50 44 61 64 205 369 38 637 38 637s-691-207-846 172zM15173 19856c-12-3-18-5-18-5s502-1158-862-2132c0 0 1456 509 1496 1434 13 304-51 483-143 587-219-17-393-114-453 44-8 23-15 47-20 72z"/></g></g><g><path fill="#8CC833" fill-opacity=".341" d="M15470 18615c-183-214-362-402-500-536-68-68-126-122-166-159-17-16-29-28-40-37-205-73-376-167-506-246-199-122-312-213-312-213s142 34 362 97c221 62 520 150 846 205 324 53 625 47 842 2 108-21 196-49 256-72 59-23 93-37 93-37s-24 27-73 71-127 102-235 157c-212 113-557 189-924 128-43-8-86-16-127-26 18 8 37 17 57 26 179 87 418 241 619 476 102 118 185 255 225 394 41 140 39 267 29 368s-29 179-42 233-23 83-23 83-6-30-16-84c-11-54-24-133-45-226-21-92-50-197-102-297-51-100-127-201-218-307zM13525 17378c72-1 167 12 254 62 87 51 145 128 179 190 35 63 46 112 46 112s-50 1-118-8c-69-10-155-29-234-76-79-46-139-111-181-166s-65-99-65-99 48-14 119-15zM14179 18403c-10-11-15-17-15-17s7 3 21 8 35 12 60 24c52 23 125 64 204 131 161 132 328 372 435 658 54 146 88 292 98 430 10 137-3 263-29 363-26 101-65 176-94 225-31 47-50 71-50 71s5-30 13-85c6-54 12-131 5-224-10-186-79-427-179-691-101-268-195-506-294-664-48-80-96-141-132-182-18-21-33-36-43-47zM13632 18648c56 233 58 453 43 610-14 157-40 253-40 253s-37-92-85-239-111-345-163-566c-53-221-87-426-110-578-23-153-32-252-32-252s67 73 150 208c84 134 182 331 237 564zM13352 18859c26 60 24 128 18 182s-18 95-18 95-42-8-93-34c-50-27-109-74-139-143s-23-144-8-199 38-91 38-91 38 19 82 52 94 78 120 138z"/></g><g><path fill="#8CC833" fill-rule="nonzero" d="M14840 19551c-5 45-17 73-17 73s-19-23-44-58c-25-37-55-84-77-140-21-56-32-112-38-155s-7-73-7-73 27 12 62 42c35 29 77 77 101 140 25 63 26 126 20 171zm216-1723c-180-9-343-30-463-53-60-12-109-22-142-30-34-8-53-12-53-12s16 11 45 30 74 44 130 71c114 55 283 110 477 120 195 9 369-30 487-73 59-21 105-42 136-59 31-16 48-25 48-25s-19 2-54 6c-34 6-84 11-144 16-121 12-286 17-467 9zm588 692c-57-82-125-144-179-183-53-40-91-59-91-59s14 40 43 99c28 59 69 137 123 215 55 78 113 144 158 191 46 47 78 74 78 74s-4-42-23-106c-18-64-52-149-109-231zm-2089 39c-29-172-90-320-143-421s-97-157-97-157 15 69 37 179c23 109 51 257 79 420 28 164 52 313 67 423 16 111 25 180 25 180s22-67 39-180c16-112 23-272-7-444zm129-1045c-84-68-192-75-192-75s28 105 113 173c84 68 192 75 192 75s-29-105-113-173z"/></g></g><g><path fill="#8CC833" fill-rule="nonzero" fill-opacity=".478" d="M12192 14221c0 1018-825 1843-1843 1843s-1844-825-1844-1843 826-1843 1844-1843 1843 825 1843 1843z"/></g><g><path fill="#8CC833" fill-opacity=".612" d="M12874 15649c34-232 72-441 101-593s50-246 50-246 11 96 13 252c3 155-4 370-39 605-34 234-89 443-136 591s-85 237-85 237 7-96 23-250 39-365 73-596zM13084 16296c85-184 212-307 212-307s-12 176-97 360c-86 185-212 308-212 308s12-176 97-361zM11539 17485c130-29 251-68 359-110 106-45 201-91 277-138 39-21 71-46 101-65s55-38 74-53c41-31 63-48 63-48s-17 22-49 62c-16 20-36 44-62 69-26 26-54 57-90 86-70 62-161 125-270 183-109 57-237 106-376 137-140 29-277 36-400 30-123-9-232-29-321-57-44-11-83-28-117-41-34-12-63-26-85-38-46-23-71-36-71-36s28 6 77 18c25 6 55 13 90 18s74 14 119 18c88 11 194 15 309 12 116-6 242-20 372-47zM12011 16876c101-16 194-21 264-23 69-3 114-1 114-1s-35 29-98 62-155 70-261 86c-106 17-205 9-274-4-71-13-113-29-113-29s43-15 110-34 157-42 258-57zM8093 13976c-7 206-3 394 4 531 8 138 14 224 14 224s-38-78-76-214c-38-135-75-329-68-545s51-406 103-541c28-68 67-117 100-141 33-25 54-30 54-30s-18 13-40 44c-22 30-42 80-53 145-19 132-32 322-38 527zM9656 12361c295-14 558 24 745 57 187 34 302 63 302 63s-119 2-308 0-449-7-732 6c-142 7-275 20-397 38-120 20-229 41-318 69-45 11-85 27-120 38-36 12-66 24-90 34-49 20-77 31-77 31s24-17 68-48c21-16 48-35 82-53 33-19 70-42 115-61 86-44 195-82 319-115 125-30 264-51 411-59zM8858 12785c217 0 393 63 393 63s-176 63-393 63c-216 0-392-63-392-63s176-63 392-63z"/></g><g><path fill="#8CC833" fill-opacity=".478" d="M7944 15529c119 399 311 735 448 978 140 242 227 393 227 393s-113-133-280-359c-83-113-179-251-272-415-92-163-183-351-244-562-65-210-86-421-85-609 0-188 16-356 35-496 19-139 42-251 59-328 18-77 29-118 29-118s-3 43-9 121-13 191-16 330c-3 140-3 306 8 488 12 182 39 378 100 577zM13433 14834c9 182-4 355-30 510-29 155-64 292-107 403-19 56-42 104-61 147-18 43-36 79-52 108-31 58-49 90-49 90s11-35 31-98c10-30 22-68 33-113 12-45 26-95 37-152 27-112 46-248 63-399 12-150 17-316 9-490-16-275-60-528-117-729-55-202-122-350-152-429-11-26-7-48 1-58 10-11 19-4 18-5 1 1-7-5-15 6-5 11-4 31 8 50 45 72 138 209 218 409 82 199 149 461 165 750zM11491 17807c133-24 258-89 378-139 118-50 227-94 317-129s159-70 203-101c45-30 66-52 66-52s-15 27-53 67c-38 41-103 92-188 143-85 50-186 107-299 168-113 59-239 136-401 167-160 27-302 10-431 4-130-9-247-24-344-45-98-20-174-46-225-66-51-21-78-35-78-35s29 7 83 16 132 19 228 23c96 5 210 3 339 1 128-6 271 1 405-22zM11749 17258c144-14 270-53 356-102 42-23 75-47 97-66s34-30 34-30-5 15-18 42-37 64-74 104c-74 80-214 162-383 178-167 15-311-26-409-60-98-35-156-65-156-65s65-1 168 3c102 3 241 9 385-4z"/></g><g><path fill="#8CC833" d="M10152 12707c185 37 346 101 456 155 111 55 174 99 174 99s-295-59-655-130c-359-72-654-131-654-131s75-16 198-24c124-8 296-6 481 31zM8229 14117c-8 237 3 453 20 611 8 78 16 142 23 187 7 44 10 69 10 69s-10-23-29-64c-18-41-42-102-66-180-48-154-93-378-84-627 9-221 56-420 109-566 51-147 106-243 124-276l3 3c-11 4-15 6-15 6s4-3 13-10l4-3-1 6c-17 74-98 424-111 844zM12631 15665c26-236 34-451 31-609-1-79-2-144-5-188-2-45-3-70-3-70l22 66c15 43 32 106 49 185 34 157 59 382 32 629-28 247-101 462-168 608-34 74-65 131-88 170-23 38-36 59-36 59s6-24 18-67 28-105 46-182c36-154 76-366 102-601zM12302 12884c189 137 350 292 481 445 63 78 124 152 172 228 24 37 50 72 71 108 20 36 39 71 58 104 39 65 64 129 89 183 26 54 44 102 58 142 27 80 42 124 42 124s-21-41-61-116c-18-37-42-82-74-132s-63-109-108-168c-21-31-44-62-67-95s-51-65-78-99c-52-69-116-136-181-208-136-139-295-282-475-414-183-129-368-234-543-319-89-38-173-78-255-106-41-14-80-31-119-42-38-12-75-23-111-33-70-24-137-35-194-49-58-15-108-23-149-29-83-13-129-20-129-20s47 0 131 1c42 0 94 1 153 9 59 6 128 10 202 26 37 7 77 15 117 23 41 8 82 21 125 32 87 21 176 56 271 90 186 77 384 180 574 315zM13466 15055c4 170-18 322-41 431s-46 174-46 174-9-69-17-178c-8-110-19-259-22-424-4-164 0-314 3-424 4-110 10-179 10-179s25 64 53 172 56 259 60 428zM7948 15709c51 130 104 246 148 330 45 84 76 137 76 137s-13-9-36-24c-23-16-54-41-90-75-72-68-160-179-216-322s-67-284-60-382c3-50 9-90 15-117 6-26 10-41 10-41s13 60 38 151c24 92 64 213 115 343z"/></g></svg>