<?xml version="1.0" encoding="UTF-8"?>
<!DOCTYPE svg PUBLIC "-//W3C//DTD SVG 1.1//EN" "http://www.w3.org/Graphics/SVG/1.1/DTD/svg11.dtd">
<!-- Creator: CorelDRAW X7 -->
<svg xmlns="http://www.w3.org/2000/svg" xml:space="preserve" width="1199px" height="1744px" version="1.1" shape-rendering="geometricPrecision" text-rendering="geometricPrecision" image-rendering="optimizeQuality" fill-rule="evenodd" clip-rule="evenodd"
viewBox="0 0 1129 1642"
 xmlns:xlink="http://www.w3.org/1999/xlink">
 <g id="Слой_x0020_1">
  <metadata id="CorelCorpID_0Corel-Layer"/>
  <g id="_5600260016">
   <path fill="#499D3C" fill-rule="nonzero" d="M597 1253l-17 -9c1,-1 4,-7 0,-18 -5,-13 -27,-41 -109,-70l6 -18c70,25 110,52 121,83 7,19 0,31 -1,32z"/>
   <path fill="#499D3C" fill-rule="nonzero" d="M647 1269c-3,-7 -73,-180 60,-487l18 8c-130,298 -61,470 -60,471l-18 8z"/>
   <path fill="#385E32" fill-rule="nonzero" d="M824 389c0,0 19,144 23,246 8,195 -122,235 -178,268 -74,-142 -13,-271 59,-370 73,-100 88,-107 96,-144z"/>
   <path fill="#385E32" fill-rule="nonzero" d="M847 635c-8,-102 -23,-246 -23,-246 0,77 -49,331 -139,487 -5,8 -12,20 -16,27 61,-29 192,-77 178,-268z"/>
   <path fill="#417B39" fill-rule="nonzero" d="M0 1098c0,0 134,-94 234,-114 191,-40 286,101 299,184 -129,96 -206,12 -317,-43 -110,-56 -175,-37 -216,-27z"/>
   <path fill="#385E32" fill-rule="nonzero" d="M216 1125c110,55 187,137 314,45 -37,-42 -118,-58 -262,-92 -68,-16 -170,-3 -263,17 -3,2 -5,3 -5,3 41,-10 106,-29 216,27z"/>
   <path fill="#385E32" fill-rule="nonzero" d="M1128 854c0,0 -164,-8 -259,28 -183,68 -189,238 -155,315 160,13 181,-99 245,-205 64,-106 129,-125 169,-138z"/>
   <path fill="#385E32" fill-rule="nonzero" d="M959 992c-63,105 -85,216 -241,205 9,-55 69,-112 172,-217 49,-49 143,-93 232,-126 4,0 6,0 6,0 -40,13 -105,32 -169,138z"/>
   <path fill="#385E32" fill-rule="nonzero" d="M268 876l0 0c63,95 98,191 247,167 28,-78 9,-247 -178,-302 -86,-25 -223,-12 -254,-9l0 0 -1 0c-3,1 -5,1 -5,1 40,10 107,24 178,124 3,4 5,7 7,10l1 1c2,3 3,6 5,8z"/>
   <path fill="#499D3C" fill-rule="nonzero" d="M636 1224l-19 -1c1,-3 16,-283 -92,-425l15 -11c112,147 97,426 96,437z"/>
   <path fill="#417B39" fill-rule="nonzero" d="M341 304c0,0 128,132 211,233 158,194 75,341 52,420 -176,-87 -223,-268 -236,-429 -13,-161 -6,-180 -27,-224z"/>
   <path fill="#499D3C" fill-rule="nonzero" d="M552 537c-86,-98 -211,-233 -211,-233 60,79 214,379 256,612 2,12 4,29 7,41 31,-80 109,-235 -52,-420z"/>
   <path fill="#499D3C" fill-rule="nonzero" d="M636 1259c-2,-5 -37,-108 -33,-282 4,-161 43,-414 208,-708l16 10c-162,290 -201,539 -204,697 -4,171 30,275 31,276l-18 7z"/>
   <path fill="#499D3C" fill-rule="nonzero" d="M623 1277c-1,-4 -22,-101 1,-250 22,-138 89,-348 282,-566l14 13c-189,214 -255,420 -277,555 -23,146 -1,243 -1,244l-19 4z"/>
   <path fill="#499D3C" fill-rule="nonzero" d="M565 1269l-16 -10c0,-1 60,-98 72,-272 12,-160 -15,-421 -209,-751l16 -9c198,334 225,599 212,763 -13,178 -73,275 -75,279z"/>
   <path fill="#417B39" fill-rule="nonzero" d="M1021 549c0,0 -25,183 -54,311 -56,244 -223,268 -299,298 -40,-192 74,-340 193,-449 119,-110 138,-115 160,-160z"/>
   <path fill="#499D3C" fill-rule="nonzero" d="M967 860c25,-129 54,-311 54,-311 -25,96 -167,403 -326,579 -8,8 -20,21 -27,30 82,-24 252,-58 299,-298z"/>
   <path fill="#417B39" fill-rule="nonzero" d="M357 720c0,0 12,144 30,245 35,192 170,203 232,224 41,-155 -46,-268 -138,-350 -92,-81 -108,-85 -124,-119z"/>
   <path fill="#499D3C" fill-rule="nonzero" d="M387 965c-14,-102 -30,-245 -30,-245 16,75 119,313 240,446 7,6 16,16 22,23 -66,-15 -204,-35 -232,-224z"/>
   <path fill="#60B238" fill-rule="nonzero" d="M958 838c0,0 -162,22 -249,76 -167,101 -140,269 -93,338 160,-17 160,-132 202,-247 43,-116 103,-147 140,-167z"/>
   <path fill="#499D3C" fill-rule="nonzero" d="M818 1005c-42,115 -42,228 -198,247 -2,-56 46,-123 128,-246 39,-58 123,-118 204,-167 4,-1 6,-1 6,-1 -37,20 -97,51 -140,167z"/>
   <path fill="#B6DDD3" fill-rule="nonzero" d="M778 351c0,0 -89,-142 17,-203 107,-60 150,-84 158,-117 16,73 61,292 -175,320z"/>
   <path fill="#FAF7CB" fill-rule="nonzero" d="M835 250c-44,-27 -67,-5 -89,19 9,45 32,82 32,82 27,-3 50,-9 70,-17 17,-17 13,-68 -13,-84z"/>
   <path fill="#FADE20" fill-rule="nonzero" d="M798 346c-3,7 -12,9 -20,5 -8,-4 -12,-12 -9,-19l65 -134c4,-7 13,-9 21,-6 8,4 11,13 8,20l-65 134z"/>
   <path fill="#B6DDD3" fill-rule="nonzero" d="M893 494c0,0 -59,-157 58,-195 116,-38 163,-53 178,-84 1,75 0,299 -236,279z"/>
   <path fill="#FAF7CB" fill-rule="nonzero" d="M969 407c-37,-36 -65,-19 -91,1 0,45 15,86 15,86 27,2 51,1 72,-2 20,-14 26,-65 4,-85z"/>
   <path fill="#FADE20" fill-rule="nonzero" d="M913 493c-4,6 -14,6 -21,1 -7,-5 -9,-15 -4,-21l91 -118c4,-6 14,-6 21,-1 7,5 9,15 4,21l-91 118z"/>
   <path fill="#B6DDD3" fill-rule="nonzero" d="M475 323c0,0 -168,-4 -159,-127 9,-122 13,-171 -10,-196 70,28 276,112 169,323z"/>
   <path fill="#FAF7CB" fill-rule="nonzero" d="M423 220c-47,21 -42,53 -34,85 42,17 86,18 86,18 12,-24 20,-46 25,-67 -5,-24 -50,-48 -77,-36z"/>
   <path fill="#FADE20" fill-rule="nonzero" d="M482 304c3,7 0,16 -7,20 -8,5 -17,3 -21,-4l-75 -128c-4,-7 -1,-16 7,-20 7,-5 17,-3 21,4l75 128z"/>
   <path fill="#8D613D" fill-rule="nonzero" d="M875 1277c0,51 -106,94 -238,94 -131,0 -237,-43 -237,-94 0,-52 106,-94 237,-94 132,0 238,42 238,94z"/>
   <path fill="#DF8D57" fill-rule="nonzero" d="M830 1642c-128,0 -256,0 -384,0 -28,-133 -57,-265 -85,-398 185,0 369,0 554,0 -28,133 -56,265 -85,398z"/>
   <path fill="#CC7E40" fill-rule="nonzero" d="M641 1244l-280 0c28,133 57,265 85,398l195 0 0 -398z"/>
   <path fill="#C4B5A2" fill-rule="nonzero" d="M418 1512c-19,-89 -38,-179 -57,-268l0 0c19,89 38,179 57,268z"/>
   <path fill="#B67449" fill-rule="nonzero" d="M641 1371l0 -127c91,0 183,0 274,0l0 0c-5,25 -11,49 -16,74 -4,0 -8,0 -13,0 -84,0 -169,18 -245,53z"/>
   <path fill="#A66638" fill-rule="nonzero" d="M426 1551c-2,-13 -5,-26 -8,-39 -19,-89 -38,-179 -57,-268 93,0 187,0 280,0l0 127c-87,40 -163,101 -215,180z"/>
   <polygon fill="#DF8D57" fill-rule="nonzero" points="351,1310 924,1310 924,1237 351,1237 "/>
   <polygon fill="#CC7E40" fill-rule="nonzero" points="351,1310 640,1310 640,1237 351,1237 "/>
  </g>
 </g>
</svg>
