<svg xmlns="http://www.w3.org/2000/svg" width="210mm" height="297mm" shape-rendering="geometricPrecision" text-rendering="geometricPrecision" image-rendering="optimizeQuality" fill-rule="evenodd" clip-rule="evenodd" viewBox="0 0 21000 29700"><g fill-rule="nonzero"><path fill="#E9F2FB" d="M7614 14837c-1396-935-2314-2526-2314-4331 0-2877 2332-5210 5209-5210s5210 2333 5210 5210c0 1711-825 3229-2099 4179l56-572H7543l61 629 10 95z"/><path fill="#EBECEC" d="M10608 19053c-1725 0-3124-303-3124-676 0-126 161-244 441-346l38 388c0 166 600 309 1527 374 335 23 712 36 1119 36 342 0 664-9 956-26 1019-58 1691-208 1691-384l37-387c279 101 439 219 439 345 0 373-1398 676-3124 676z"/><path fill="#7BB5E3" d="M7543 14113l420 4306c0 226 1113 410 2646 410 1534 0 2647-184 2647-410l420-4306H7543z"/><path fill="#9AC0E7" d="M9302 14113l188 4680c-927-65-1527-208-1527-374l-420-4306h1759z"/><path fill="#3B9CD6" d="M11754 14113l-189 4690c1019-58 1691-208 1691-384l420-4306h-1922z"/><path fill="#D1E2F4" d="M8108 15780c-163 0-303-124-318-289-17-176 112-332 288-349 10-1 20-1 30-1 163 0 303 124 318 290 17 175-112 331-288 348-10 1-20 1-30 1z"/><path fill="#C4DEF3" d="M9827 16946c-163 0-303-124-318-290-17-176 112-332 288-348 10-1 20-2 30-2 164 0 303 125 318 290 17 176-112 332-288 349-10 0-20 1-30 1z"/><path fill="#D1E2F4" d="M8544 18598c-163 0-303-124-318-289-17-176 112-332 288-349 10-1 20-1 30-1 164 0 303 124 318 290 17 175-112 331-288 348-10 1-20 1-30 1z"/><path fill="#C4DEF3" d="M11391 18555c-163 0-302-124-318-290-17-176 113-332 288-348 11-1 21-2 31-2 77 0 150 28 206 76l-20 504c-45 32-98 53-157 58-10 1-20 2-30 2z"/><path fill="#A8D3EF" d="M11578 18495l20-504c61 52 103 127 112 214 11 117-43 226-132 290z"/><path fill="#C4DEF3" d="M10852 15464c-88 0-169-36-227-95l346 72c-28 11-58 18-89 21-10 1-20 2-30 2z"/><path fill="#A8D3EF" d="M12326 16711c-163 0-303-125-318-290-17-176 112-332 288-349 10-1 21-1 30-1 164 0 303 124 319 290 16 176-113 331-289 348-10 1-20 2-30 2zM12987 14512c45-33 99-55 158-60 11-1 21-2 31-2 60 0 117 17 165 47l-354 15z"/><path fill="#6CA5D1" d="M11694 15591l-723-150c128-51 213-183 199-327-15-166-154-290-317-290-11 0-21 1-31 2-176 16-305 172-288 348 7 77 41 144 91 195l-1284-266-17-435 2411-103-41 1026z"/><path fill="#8CAFD5" d="M9341 15103l-1737-361 1720-74z"/><path fill="#338EC6" d="M13495 15965l-1801-374 41-1026 1252-53c-88 64-141 172-130 288 16 166 155 290 318 290 10 0 20-1 30-2 176-16 305-172 289-348-10-105-69-193-153-243l286-13-132 1481z"/><path fill="#B4CCE1" d="M10971 15441l-346-72c-50-51-84-118-91-195-17-176 112-332 288-348 10-1 20-2 31-2 163 0 302 124 317 290 14 144-71 276-199 327z"/><path fill="#98C1DC" d="M13175 15090c-163 0-302-124-318-290-11-116 42-224 130-288l354-15c84 50 143 138 153 243 16 176-113 332-289 348-10 1-20 2-30 2z"/><path fill="#7BB5E3" d="M7210 13492v1062c0 222 1522 401 3399 401 1878 0 3400-179 3400-401v-1062H7210z"/><path fill="#9AC0E7" d="M9137 14916v-1424H7210v1062c0 159 787 297 1927 362z"/><path fill="#3B9CD6" d="M11976 13492v1430c1197-63 2033-204 2033-368v-1062h-2033z"/><path fill="#FEFEFE" d="M14009 13492c0 154-1522 279-3400 279-1877 0-3399-125-3399-279 0-155 1522-280 3399-280 1878 0 3400 125 3400 280z"/><path fill="#6A4531" d="M13859 13455c0 134-1455 243-3250 243-1794 0-3249-109-3249-243s1455-243 3249-243c1795 0 3250 109 3250 243z"/><path fill="#476B34" d="M10680 13397l-139-4 162-6543 139 3z"/><path fill="#C7C4E3" d="M10422 5120c19-67 40-134 78-193s95-108 163-122c165-35 298 103 381 250s99 322 103 491c15 572-85 1146-292 1679-29 75-61 151-93 225-9 21-22 45-44 49-29 5-51-24-64-50-97-200-87-432-101-654-32-541-273-1151-131-1675z"/><path fill="#F6A30A" d="M10731 6202c-25 0-45-38-45-85V4940c0-47 20-85 45-85s46 38 46 85v1177c0 47-21 85-46 85z"/><path fill="#CDBBDC" d="M10179 4905c33-28 77-35 120-35 142-3 282 60 389 154 107 95 183 220 237 352 123 301 134 634 143 959 9 379 8 790-221 1091-31 40-76 81-125 69-23-6-42-23-59-41-82-90-126-208-166-324-140-401-266-809-341-1228-31-180-58-363-58-546-1-119-19-366 81-451z"/><path fill="#DBDAEE" d="M11317 4905c-32-28-77-35-119-35-143-3-282 60-389 154-107 95-183 220-238 352-123 301-134 634-142 959-5 192 36 372 67 559 32 198 32 398 48 597 13 170 34 278 67 445 52 272-3 408 94 512 117 125 134-159 135-209 6-189-27-382 33-564 59-178 65-370 127-545 140-401 266-809 340-1228 32-180 58-363 59-546 0-119 19-366-82-451z"/><path fill="#B4A3CF" d="M11106 7023c83-199 180-392 281-582 192-356 383-656 406-1073 10-172-25-377-180-452-84-41-185-32-269 7s-154 104-213 175c-290 345-377 818-390 1269-9 301-12 601-8 902 3 287 62 655 109 939 13-317 28-456 80-653 48-182 111-359 184-532z"/><path fill="#A085BC" d="M10773 6852c143-158 322-280 478-426 132-124 248-263 360-406-67 139-145 276-224 421-101 190-198 383-281 582-73 173-136 350-184 532-52 197-67 336-80 653-47-284-106-652-109-939-2-123-2-247-2-370 14-16 27-32 42-47z"/><path fill="#B4A3CF" d="M10356 7087c-83-198-179-392-281-581-192-356-383-657-406-1073-10-173 25-378 181-453 83-41 184-32 268 7 85 39 154 105 213 175 290 346 377 818 391 1269 9 301 11 602 8 903-4 287-40 590-87 874-32-326-51-392-103-588-48-182-111-359-184-533z"/><path fill="#A085BC" d="M10690 6916c-144-158-322-280-479-426-132-123-248-263-360-406 67 139 145 276 224 422 102 189 198 383 281 581 73 174 136 351 184 533 52 196 71 262 103 588 47-284 83-587 87-874 1-124 1-247 1-371-13-15-27-31-41-47z"/><path fill="#476B34" d="M12227 13403l-137-16 734-6395 138 15z"/><path fill="#C7C4E3" d="M12920 5379c29-63 61-127 108-178 47-52 111-91 181-94 168-8 277 150 335 309s45 334 22 501c-79 567-271 1117-562 1609-42 70-85 139-129 207-12 19-29 40-51 41-29 1-47-32-55-60-63-213-16-440 7-661 56-540-82-1181 144-1674z"/><path fill="#F6A30A" d="M13048 6497c-25-4-39-45-31-92l192-1161c8-46 34-81 59-77 25 5 38 46 31 92l-192 1161c-8 46-34 81-59 77z"/><path fill="#CDBBDC" d="M12715 5127c37-22 82-22 124-16 141 22 268 106 358 217 90 110 145 246 177 386 73 317 29 647-16 969-52 375-120 780-395 1040-37 35-88 68-134 48-23-9-39-30-52-50-67-103-90-226-111-347-73-418-131-841-136-1267-2-183 2-367 31-548 19-118 41-364 154-432z"/><path fill="#DBDAEE" d="M13838 5312c-27-32-70-46-112-54-141-25-288 13-409 89s-217 187-292 309c-170 277-235 604-297 923-36 188-24 373-25 562 0 200-33 398-50 597-14 170-11 280-6 450 7 277-70 402 9 521 95 142 158-136 168-185 36-186 35-381 124-551 87-166 125-354 214-517 204-373 394-755 536-1156 61-172 117-348 147-529 20-118 78-358-7-459z"/><path fill="#B4A3CF" d="M13284 7368c115-183 241-358 373-528 246-320 484-586 575-993 38-168 36-376-104-476-76-53-178-61-267-37-89 25-168 78-238 139-343 293-505 745-592 1188-58 295-110 591-155 889-44 284-46 656-46 944 65-311 103-446 186-631 77-172 168-336 268-495z"/><path fill="#A085BC" d="M12983 7144c168-132 364-224 541-342 151-100 288-219 422-342-89 127-188 249-289 380-132 170-258 345-373 528-100 159-191 323-268 495-83 185-121 320-186 631 0-288 2-660 46-944 18-122 38-244 59-366 15-13 31-26 48-40z"/><path fill="#B4A3CF" d="M12534 7309c-50-209-113-416-183-620-131-382-270-710-225-1125 18-171 86-368 252-417 89-26 187-1 264 51 76 52 134 128 181 208 230 388 238 868 178 1315-40 298-86 596-139 892-50 283-136 576-228 848 21-326 14-395-6-597-17-187-51-372-94-555z"/><path fill="#A085BC" d="M12891 7194c-116-179-272-329-403-498-110-143-202-300-289-459 43 148 98 296 152 452 70 204 133 410 183 620 43 183 77 368 94 555 20 202 27 271 6 597 92-272 178-565 228-848 22-122 42-243 62-365l-33-54z"/><path fill="#62A439" d="M8916 7078c-43-146-72-112-34 41 339 1352 948 3774 1160 4549 300 1095 524 1704 524 1704l80-95s-147-745-439-1807c-206-753-902-3091-1291-4392zM10962 7025c-33-149-64-117-38 38 233 1374 653 3836 805 4625 214 1116 391 1740 391 1740l86-88s-89-754-297-1836c-148-766-661-3152-947-4479zM7177 7089c-49-145-76-109-33 42 387 1339 1082 3738 1322 4504 339 1085 585 1685 585 1685l75-98s-173-739-502-1790c-233-745-1012-3057-1447-4343z"/><path fill="#3C853C" d="M12534 7182c56-133 109-55 63 90-460 1448-898 2958-1338 4415-174 575-300 1170-486 1725-31-28-184 1-217-17 116-621 337-1297 490-1883 399-1526 967-3076 1488-4330zM10304 7172c40-139 101-68 72 82-289 1491-550 3041-820 4539-106 592-161 1155-282 1728-65 0-112-3-148-17 44-631 114-1261 199-1860 220-1562 605-3167 979-4472zM14138 7368c58-133 109-54 61 91-478 1441-935 2945-1395 4396-181 573-350 1082-544 1635-30-29-69 26-102 7 124-620 275-1236 436-1819 418-1521 1006-3063 1544-4310z"/><path fill="#62A439" d="M14588 8690c62-81 72 30 12 127-581 941-1175 2064-1770 3263-422 850-678 1356-678 1356-16-37-25-53-44-81 0 0 214-652 619-1519 627-1346 1301-2428 1861-3146zM11170 7809c28-103 77-9 58 108-186 1133-317 2434-421 3804-74 971-123 1553-123 1553-28-25-42-35-70-50 0 0-43-690 9-1668 80-1518 299-2824 547-3747z"/><path fill="#3C853C" d="M11942 7651c-9-139-52-136-51 4 10 1242 31 3469 58 4195 38 1026 125 1640 125 1640l118-8s40-655 4-1650c-27-705-171-2938-254-4181z"/><path fill="#476B34" d="M9058 13403l-735-6396 137-15 735 6395z"/><path fill="#C7C4E3" d="M8365 5379c-29-63-61-127-108-178-47-52-111-91-181-94-169-8-277 150-335 309s-45 334-22 501c79 567 271 1117 562 1609 41 70 85 139 129 207 12 19 28 40 51 41 29 1 46-32 55-60 63-213 16-440-7-661-57-540 82-1181-144-1674z"/><path fill="#F6A30A" d="M8237 6497c24-4 38-45 31-92l-192-1161c-8-46-34-81-59-77-25 5-39 46-31 92l192 1161c8 46 34 81 59 77z"/><path fill="#CDBBDC" d="M8569 5127c-36-22-81-22-123-16-141 22-269 106-359 217-90 110-145 246-177 386-72 317-28 647 16 969 52 375 121 780 396 1040 37 35 88 68 134 48 23-9 39-30 52-50 66-103 90-226 111-347 73-418 131-841 136-1267 2-183-2-367-31-548-19-118-42-364-155-432z"/><path fill="#DBDAEE" d="M7447 5312c27-32 70-46 112-54 140-25 288 13 409 89s217 187 292 309c170 277 235 604 296 923 36 188 25 373 26 562 0 200 33 398 49 597 15 170 12 280 7 450-7 277 70 402-9 521-95 142-159-136-168-185-36-186-35-381-124-551-87-166-125-354-214-517-204-373-395-755-536-1156-61-172-117-348-147-529-20-118-78-358 7-459z"/><path fill="#B4A3CF" d="M8001 7368c-115-183-241-358-373-528-247-320-484-586-575-993-38-168-37-376 104-476 76-53 177-61 267-37 89 25 168 78 238 139 343 293 505 745 592 1188 58 295 109 591 155 889 44 284 45 656 45 944-64-311-102-446-185-631-77-172-168-336-268-495z"/><path fill="#A085BC" d="M8302 7144c-168-132-364-224-542-342-150-100-288-219-421-342 88 127 188 249 289 380 132 170 258 345 373 528 100 159 191 323 268 495 83 185 121 320 185 631 0-288-1-660-45-944-19-122-38-244-59-366-16-13-32-26-48-40z"/><path fill="#B4A3CF" d="M8751 7309c50-209 113-416 183-620 130-382 270-710 225-1125-18-171-87-368-252-417-89-26-187-1-264 51s-134 128-181 208c-230 388-239 868-179 1315 40 298 87 596 140 892 50 283 135 576 228 848-22-326-14-395 5-597 18-187 51-372 95-555z"/><path fill="#A085BC" d="M8394 7194c116-179 272-329 403-498 110-143 201-300 289-459-44 148-99 296-152 452-70 204-133 410-183 620-44 183-77 368-95 555-19 202-27 271-5 597-93-272-178-565-228-848-22-122-42-243-62-365 11-18 21-36 33-54z"/><path fill="#62A439" d="M6587 8693c-63-80-72 30-12 127 583 941 1177 2063 1774 3261 423 849 681 1355 681 1355 44 0 82 20 102-8 0 0-274-724-680-1591-629-1345-1305-2427-1865-3144z"/><path fill="#3C853C" d="M9342 7651c10-139 52-136 51 4-10 1242-30 3469-57 4195-38 1026-125 1640-125 1640l-119-8s-40-655-3-1650c26-705 171-2938 253-4181zM10294 7546c-3-140 39-143 50-4 100 1236 276 3452 314 4177 52 1025 20 1648 20 1648l-118 8s-98-644-149-1638c-36-705-89-2944-117-4191z"/></g></svg>