<svg xmlns="http://www.w3.org/2000/svg" width="210mm" height="297mm" shape-rendering="geometricPrecision" text-rendering="geometricPrecision" image-rendering="optimizeQuality" fill-rule="evenodd" clip-rule="evenodd" viewBox="0 0 21000 29700"><g fill-rule="nonzero"><path fill="#879B1D" d="M16183 9576c-63 21-789 425-860 476 263-323 602-592 759-656-43-163-88-331-184-281-95 51-662 543-662 543s411-455 611-695c4-30 40-63 64-87 13-12 28-22 39-35 1-2 2-3 5-6 3-4 7-9 10-13 1-4 2-7 3-10-20-231-168-319-168-319-255 330-710 882-992 1171 94-229 401-494 425-588-178-180-283-238-381-181-190 287-876 1399-1313 1885 315-606 1165-1888 1255-2059-54-213-127-247-237-165s-1725 2961-2196 3566c0 0 405 172 744 631 210-388 1547-1797 3021-2728 53-184 121-469 57-449z"/><path fill="#98AC1F" d="M14844 8901s-713 1195-627 1192c87-4 760-1047 838-1132-78-87-211-60-211-60zM14739 8632s-1178 1771-1394 2179c-215 407-939 1451-875 1228 64-224 1931-3228 2087-3483 100-57 182 76 182 76zM15800 8493s-2297 2661-2490 2890-500 810-373 661c128-148 1459-1631 1684-1922s1243-1322 1309-1403c-21-176-130-226-130-226zM15979 9109c-14-7-28-14-39-24-158 185-584 651-672 810 175-164 595-566 814-499 32-98-8-153-27-208-27-25-52-51-76-79zM16195 9633c-581 346-1759 1214-2511 1984-261 267-703 724-619 776 85 53 550-582 1137-1097s1596-1265 1958-1389c103-212 35-274 35-274z"/><path fill="#C6DC5A" d="M15811 8586c-169 75-2782 3186-2615 3049s2811-3136 2615-3049zM14597 8609c-80 35-1992 3156-1852 3011 141-145 2209-3165 1852-3011zM16167 9781c-115 15-1148 639-1617 1088-468 450-1338 1310-1158 1177 180-134 1129-1071 1391-1295 263-224 1488-983 1384-970zM15990 9205c-81-42-435 331-324 291 111-39 386-259 324-291zM14902 8938c-70-10-630 1014-535 927 96-86 630-914 535-927z"/><path fill="#4F6123" d="M16103 9994c-562 359-1093 744-1605 1171-530 442-1105 932-1508 1495-50 70 56 152 115 93 466-470 881-973 1379-1414 524-464 1087-888 1642-1314 17-13-5-43-23-31zM15118 10149l-1 1-3 1c-15 9-33 24-52 41-65 49-129 100-193 151-18 7-36 11-52 10l-3-3c-5-3-9-5-13-7-9-5-19-8-29-10-2-2-4-3-6-5 363-417 698-862 1132-1213 2 7 69-21 162 124 16 25 49 111-16 163-349 158-689 435-926 747zm-1101 284c-52 53-105 103-159 154-4 1-9 1-12 1-9-2-16-6-23-13 72-120 144-239 219-354 280-432 556-866 800-1320h2c78 0 146 16 211 60 44 29 67 77 100 114-216 175-360 405-491 644-198 253-424 483-647 714zm2177-870l-3-27c-229 81-451 195-664 329 169-160 339-319 550-426 2 0 4 1 6 0 67-24 45-142 26-194-28-76-93-130-164-166-2-1-4-1-6-1 0-2-2-4-4-3l-1 1c-17-2-31 10-35 24-154 102-299 215-438 336 163-192 325-385 481-582 13-4 24-13 28-30 17-73 3-128-21-199s-69-117-133-155c2-4 4-7 7-11 2-4-4-8-7-4-4 6-9 11-13 17-2 1-4 3-5 6-264 341-548 664-839 981 82-124 166-247 265-361l1-2c3-3 5-6 6-9v-1c1-3 3-6 2-10-7-78-82-132-146-169-69-40-150-46-227-38 1-2 1-3 2-4 7-14-12-26-20-13-268 457-569 892-871 1326-51 74-105 148-160 223 329-559 655-1120 983-1680 9 3 19 3 31-3 13-7 20-21 21-35 5-64-54-119-107-146-56-29-122-25-181-8-3 1-4 2-5 3-8-7-21-9-29 3-792 1215-1529 2462-2296 3694-45 73 68 144 113 71 759-1236 1482-2493 2216-3744 1-2 0-3 1-5l2 1c72-3 140 16 179 80 9 15 16 39 26 59-786 1208-1519 2446-2280 3669-46 73 67 145 112 72 140-227 277-455 414-683 299-378 624-734 956-1085 37-23 69-58 90-94 624-658 1256-1308 1743-2077 1 2 2 4 3 5 81 70 138 135 125 358-1018 998-1981 2079-2908 3167-93 93-185 187-278 282-19 19-23 43-19 67-11 13-22 26-34 39-66 79 46 168 109 88 31-38 62-75 92-113 276-213 506-482 732-755 173-163 346-326 524-482 419-367 894-695 1291-1086 256-161 512-320 759-493 0-3-1-5-2-7z"/><path fill="#4F6123" d="M13761 10680c6-11 12-21 18-31 2 2 4 5 7 7-9 8-17 16-25 24z"/><path fill="#FF7B00" d="M12644 12247c590 501 928 1001 465 1622-462 621-1238 960-2003 1856-765 895-1833 2065-2939 2899s-2498 1883-2635 1553-32-951 1824-3335c1855-2384 3209-4482 3809-4773s1083-158 1479 178z"/><path fill="#FF9838" d="M12806 12484c26-1 50-10 69-26-71-70-148-141-231-211-381-324-844-457-1412-208-520 351-919 973-1250 1461-472 695-997 1318-1559 1936-334 449-690 921-1067 1406-372 477-672 883-916 1231 689-367 1318-842 1930-1331 800-638 1549-1378 2090-2252 328-529 626-1087 1031-1563 160-188 374-411 609-505 263-105 454 71 706 62z"/><path fill="#FF6A00" d="M12663 12264c-50 128-88 265-118 405-48 226-72 405-200 601-213 328-488 631-741 928-491 578-956 1161-1492 1701-561 565-1155 1097-1743 1635-655 597-1247 1259-1910 1848-77 68-683 596-708 332-35-357 208-746 322-1094-553 872-625 1253-565 1485 31 50 70 95 115 132 353 38 1561-872 2544-1613 1106-834 2174-2004 2939-2899 765-896 1541-1235 2003-1856 457-614 132-1110-446-1605z"/><path fill="#ED5700" d="M12728 13137s-1834 2794-4032 4612c-663 549-1472 1286-2001 1689-529 402-1059 804-1193 305-121 426 19 743 591 353s2956-2292 3625-3023c669-732 2555-2176 3010-3936z"/><path fill="#FFA757" d="M7866 16606s1135-909 1761-1774c625-865 1606-2647 2217-2544 0 0-449-377-1192 608-1104 1463-1985 2895-2786 3710z"/><path fill="#D14D00" d="M12199 12119c291 153 541 359 798 558 177 293 324 574 141 917-148 278-374 502-612 705-242 207-520 387-745 612-404 404-784 830-1163 1258-807 910-1658 1716-2615 2469-520 409-1055 809-1611 1168-178 116-891 585-779 52 156-743 670-1423 1092-2032 707-1020 1464-2003 2235-2974 348-438 714-865 1046-1314 266-362 512-746 818-1076 403-435 829-639 1395-343zm-2167 1126c-1317 1814-2843 3407-3967 5360-192 333-683 1121-559 1547 119 413 984-233 1189-377 945-664 1926-1356 2774-2144 865-804 1567-1804 2469-2564 457-384 932-721 1266-1231 419-639-158-1312-286-1408-413-309-936-651-1408-560-667 130-1109 868-1478 1377z"/><path fill="#4F6123" d="M16187 9537c3 168-27 345-121 486-11 16-9 32 0 44 35-26 72-48 110-69 70-148 78-304 32-465-6 1-14 2-21 4z"/><path fill="#D14D00" d="M12772 13167s176 141 232 303c57 162 57 313 57 313s-68-332-289-616zM12012 13342s346 160 461 571c0 0-140-207-235-310s-226-261-226-261zM11111 12348c99-26 499 45 594 223-97-76-160-99-288-141-119-39-163-73-306-82zM11013 12974c156 22 502 304 540 455-64-61-187-184-311-275s-85-96-229-180zM10900 13827c145 41 346 206 374 392-102-115-253-304-374-392zM11818 14353c120 39 243 230 236 331-132-124-137-243-236-331zM10687 14854c183 65 351 194 374 416-66-89-151-296-374-416zM9832 13947c149 55 388 183 491 352-72-69-181-122-258-176-68-48-137-104-233-176zM9461 15082c124 27 426 216 491 407-55-53-174-185-243-226-70-42-170-124-248-181zM10264 16118c114 54 231 211 222 300-37-59-155-233-222-300zM9707 16143c141 72 385 466 383 643-54-96-141-246-187-329-46-84-69-193-196-314zM8449 15590c130 21 408 219 499 374-99-71-213-163-282-205-69-41-124-115-217-169zM8885 16759c145 54 325 257 383 451-71-74-127-161-184-225-58-65-66-149-199-226zM7599 16960c166 49 356 195 431 368-81-94-152-147-225-195-73-47-68-84-206-173zM7669 18104c161 79 305 292 371 462-75-118-143-181-194-250-51-68-102-153-177-212zM6756 17670c124 21 226 136 274 215-97-115-234-164-283-162-8-29 9-53 9-53zM6492 18428c117 44 303 167 372 322-94-87-260-242-372-322zM7268 18886c119 39 182 198 193 271-67-106-138-234-193-271zM6533 19098c135 38 314 262 327 427-38-97-85-159-135-211s-77-145-192-216zM5834 19298c91-17 233 72 271 185-61-50-147-128-271-185z"/></g></svg>