<svg xmlns="http://www.w3.org/2000/svg" width="210mm" height="297mm" shape-rendering="geometricPrecision" text-rendering="geometricPrecision" image-rendering="optimizeQuality" fill-rule="evenodd" clip-rule="evenodd" viewBox="0 0 21000 29700"><g fill-rule="nonzero"><path fill="#CDE3E2" d="M7808 12299l9519-25c1 13 3 25 3 38 1 660-532 1196-1191 1197l-8328 23-3-1233z"/><path fill="#78726C" d="M10821 12291h1l6505-17-2349 6-300 1z"/><path fill="#E2EFEF" d="M11129 12494l202-203-510 1v-1l3857-10 109 204-3658 9zm4630-12l-104-204-677 2 2349-6c1 13 3 25 3 38 0 56-4 112-12 166l-1559 4z"/><path fill="#282724" d="M9807 13527l1-1 731-1-1 1z"/><path fill="#748495" d="M9808 13526l237-237c121-123 193-275 216-434l374-376v17l494-2-304 306c33 231-38 475-215 653l-71 72-731 1z"/><path fill="#838C9F" d="M10635 12496v-17l186-187 510-1-202 203z"/><path fill="#138595" d="M6983 13534l2503-7c426-1 770-346 768-772-1-425-346-769-772-768l-1617 4-882 1543z"/><path fill="#138595" d="M7012 11223c326-1 592 264 593 590l1 358c1 326-264 592-590 593l-1504 4c-326 1-592-264-593-590l-1-358c-1-326 264-592 589-593l1505-4zm-2864 599l1 358c2 752 613 1360 1365 1358l1505-4c751-2 1359-613 1357-1365l-1-358c-2-752-613-1360-1365-1358l-1504 4c-752 2-1360 613-1358 1365z"/><path fill="#253D56" d="M9483 12391c202 0 367 163 367 365 1 202-163 366-365 367-202 0-366-163-366-365-1-202 162-366 364-367z"/><path fill="#CDE3E2" d="M10027 13090l5496-5526-26-28c-467-465-1223-463-1688 4l-4656 4681 874 869z"/><path fill="#AABFC5" d="M10261 12855c14-100 9-203-17-302l5110-5137c50 36 98 75 143 120l26 28-4702 4728-186 187-374 376z"/><path fill="#E8F2F2" d="M13171 9607l-482-941 1120-1126c56-56 116-105 179-147l472 919-1289 1295z"/><path fill="#918B87" d="M15333 13512v-1l806-2h41-41l-806 3z"/><path fill="#E8F2F2" d="M15333 13511l-546-1026 972-3 521 1018c-33 4-66 7-100 9h-41l-806 2z"/><path fill="#C1BEBB" d="M14678 12281l300-1z"/><path fill="#F3F9F8" d="M14787 12485l-109-204 300-1 677-2 104 204z"/><path fill="#1BAFD7" d="M8850 15581c230-231 229-606-2-835l-254-253c-231-230-606-229-836 2l-1838 1848c-230 231-229 607 2 837l254 252c231 230 606 229 836-2l1838-1849zm-3217 2397l-254-253c-534-530-536-1391-6-1925l1839-1848c530-533 1392-535 1925-5l254 252c533 531 535 1392 5 1926l-1838 1848c-531 533-1392 535-1925 5z"/><path fill="#1BAFD7" d="M7187 13977l1765-1775c300-301 787-303 1089-3s303 788 4 1090l-1141 1146-1717-458z"/><path fill="#CDE3E2" d="M9758 13004c142-144 142-375-2-518-143-142-375-142-517 1-143 144-142 375 1 518 143 142 375 142 518-1z"/><path fill="#404048" d="M9662 12909c91-91 90-237 0-328-91-90-238-90-328 1s-90 238 1 328 237 89 327-1z"/><path fill="#292825" d="M5510 13538h4l1469-4-1469 4h-4zM5509 13538c-750-1-1358-608-1360-1358 2 750 610 1357 1360 1358zm1-770h2-2zm-1 0c-325-1-589-265-590-590 1 325 265 589 590 590zm-590-590v-115 115zm2687-5v-2l-1-108h1v110z"/><path fill="#177684" d="M5510 13538h-1c-750-1-1358-608-1360-1358v-117h770v115c1 325 265 589 590 590h3l1504-4c326-1 590-266 590-591v-110h770v110c0 750-607 1359-1357 1361h-36l-1469 4h-4z"/><path fill="#292825" d="M6592 18374c-347 0-694-132-959-396l-254-253c-45-44-86-90-123-139 37 49 78 95 123 139l254 253c265 264 612 396 959 396 350 0 700-133 966-401l1838-1848c264-266 396-613 396-960 0 347-132 694-396 960l-1838 1848c-266 268-616 401-966 401zm-1337-789c0-1 0-1-1-1 1 0 1 0 1 1zm664-408v-1 1zm-2-3h-1 1zm-3-2v-1 1zm-11-12zm-10-11zm-2-3zm-3-3zm-4-5c-1 0-1-1-1-1s0 1 1 1zm-3-3v-1 1zm-2-2c0-1 0-1-1-2 1 1 1 1 1 2zm-2-3l-1-1 1 1zm-1-2l-4-4 4 4zm-4-4c0-1-1-2-2-3 1 1 2 2 2 3zm-2-3c-143-186-161-440-51-642l1-1c-110 203-94 457 50 643zm2661-2682c-104-78-229-118-353-118-90 0-180 21-263 62l1-1c82-41 172-61 261-61 125 0 250 39 354 118z"/><path fill="#159BC1" d="M6592 18374c-347 0-694-132-959-396l-254-253c-45-44-86-90-123-139 0 0 0-1-1-1 0-1 0-1-1-1-82-108-146-226-191-349l756-756c-110 202-92 456 51 642 1 1 2 2 2 3l4 4v1l1 1c1 0 1 1 1 1 1 1 1 1 1 2 1 0 1 1 2 1v1l2 2s0 1 1 1c1 2 3 4 4 5l3 3c1 1 1 2 2 3 3 4 7 8 10 11 4 4 7 8 11 11v1c1 0 1 1 2 2h1c0 1 1 2 2 2v1l3 3 254 252c115 115 266 172 416 172 152 0 304-58 420-174l1838-1849c115-115 172-267 172-418-1-151-59-303-174-417l-254-253c-20-20-41-38-63-54-104-79-229-118-354-118-89 0-179 20-261 61l166-166 822 219 360-362 127 126c268 267 401 616 401 966 0 347-132 694-396 960l-1838 1848c-266 268-616 401-966 401z"/><path fill="#159BC1" d="M8904 14435l-822-219 1186-1186c67 54 149 81 230 81 94 0 188-36 260-107 133-134 141-345 25-489l285-286c274 302 267 767-23 1060l-781 784-360 362z"/><path fill="#99CACA" d="M9498 13111c-81 0-163-27-230-81l96-96c40 29 87 43 134 43 60 0 119-23 164-68 81-82 89-208 25-298l96-96c116 144 108 355-25 489-72 71-166 107-260 107z"/><path fill="#363C42" d="M9498 12977c-47 0-94-14-134-43l323-323c64 90 56 216-25 298-45 45-104 68-164 68z"/></g></svg>