<?xml version="1.0" encoding="UTF-8"?>
<!DOCTYPE svg PUBLIC "-//W3C//DTD SVG 1.1//EN" "http://www.w3.org/Graphics/SVG/1.1/DTD/svg11.dtd">
<!-- Creator: CorelDRAW X7 -->
<svg xmlns="http://www.w3.org/2000/svg" xml:space="preserve" width="1226px" height="1251px" version="1.1" shape-rendering="geometricPrecision" text-rendering="geometricPrecision" image-rendering="optimizeQuality" fill-rule="evenodd" clip-rule="evenodd"
viewBox="0 0 1235 1260"
 xmlns:xlink="http://www.w3.org/1999/xlink">
 <g id="Слой_x0020_1">
  <metadata id="CorelCorpID_0Corel-Layer"/>
  <g id="_5607478080">
   <g>
    <path fill="#DFD199" fill-rule="nonzero" d="M755 96c0,1 0,2 0,1 0,1 0,1 2,1 1,0 3,0 7,0 2,-2 3,-4 4,-6 0,-2 0,-4 -2,-5 -2,-2 -4,-3 -7,-3 -2,1 -5,3 -5,6 2,3 2,5 1,6z"/>
    <path fill="#DFD199" fill-rule="nonzero" d="M1195 690c-1,-2 -3,-4 -5,-5 -1,0 -1,0 -1,0 0,-1 0,-1 0,-1 0,-2 -1,-4 -1,-6 -1,-1 -1,-2 -2,-2 0,0 1,1 0,2 0,0 0,0 0,0 2,-7 -1,-16 -7,-18 0,6 -2,10 -4,13 -1,1 -1,2 -2,4 0,0 0,0 0,0 -2,-1 -5,-2 -8,-2 -2,0 -5,1 -7,1 -11,-5 -25,-10 -34,-7 -11,3 -16,9 -18,12 -5,-6 -13,-7 -19,-6 -8,1 -14,5 -19,9 -3,1 -5,3 -8,5 -7,4 -14,7 -19,10 -1,0 -3,1 -5,1 0,0 -1,-1 -1,-1 2,-4 1,-8 -1,-12 -2,-3 -5,-6 -8,-9 -5,-6 -12,-12 -18,-16 -1,-1 -2,-2 -3,-2 -14,-16 -41,-38 -64,-50 -3,-1 -5,-3 -7,-4 -7,-5 -15,-9 -23,-10 -8,-1 -17,0 -23,4 -1,-1 -1,-2 -1,-3 0,1 0,2 1,2 -1,-5 -3,-10 -4,-15 -1,-6 -3,-11 -5,-16 -4,-10 -8,-20 -12,-30 -9,-19 -19,-39 -33,-56 -7,-9 -14,-17 -25,-24 -5,-3 -11,-6 -17,-7 -5,-1 -11,-1 -17,-1 -16,0 -33,1 -49,2 2,-1 4,-3 7,-4 3,0 6,0 8,0 5,-1 9,-3 13,-4 4,-2 7,-3 11,-5 2,0 5,-1 8,-2 2,0 3,-1 5,-2 3,-1 5,-1 8,-2 4,-1 8,-2 12,-4 3,-1 5,-3 7,-5 2,-2 3,-4 4,-6 0,-1 0,-2 1,-3 5,-4 7,-7 7,-7 0,0 1,-1 3,-3 6,-1 12,-4 17,-7 8,-5 15,-10 22,-16 7,-6 14,-12 19,-22 2,-3 3,-7 4,-11 2,-3 3,-8 4,-16 0,-5 0,-10 0,-15 1,1 1,1 1,1 4,-2 6,-6 7,-11 1,-4 0,-9 -2,-13 -1,-1 -2,-4 -4,-5 0,0 -1,-1 -1,-1 0,-1 1,-2 1,-3 3,1 6,2 9,2 6,1 12,1 17,1 3,0 6,-1 10,-2 3,-1 7,-3 9,-5 3,-2 5,-4 7,-8 0,-1 1,-3 1,-4 4,2 11,4 18,-2 2,0 4,0 6,0 3,-1 9,-2 12,-8 1,-1 2,-3 2,-5 0,-1 0,-3 -1,-4 -1,-2 -2,-3 -4,-3 1,-1 1,-1 1,-1 0,0 3,-1 6,-3 2,0 5,0 6,0 5,-1 8,-2 11,-3l8 -3c2,0 3,-1 4,-1 2,0 4,0 6,1 1,-2 0,-5 -2,-7 -1,-2 -4,-4 -6,-5 -1,0 -2,0 -3,0 1,-3 2,-6 1,-8 0,-4 -2,-7 -5,-7 0,3 -1,4 -2,6 -1,1 -3,2 -4,2 -2,1 -6,2 -10,3 -5,2 -9,5 -13,8 0,0 0,1 0,1 0,-1 -1,-3 -1,-4 -3,-3 -7,-5 -11,-4 -4,0 -6,2 -8,3 -2,1 -4,2 -6,4 -4,3 -7,6 -10,10 -1,2 -2,4 -3,7 0,0 0,0 0,0 0,0 -2,-13 -15,-5 -1,0 -1,0 -2,0 -5,2 -10,4 -15,7 -4,3 -9,7 -12,11 -1,2 -2,4 -4,6 -4,-3 -14,-4 -24,7 -1,1 -2,1 -3,1 -7,4 -12,9 -16,16 -8,12 -12,26 -13,40 -2,14 0,27 -2,39 0,5 -2,9 -6,13 -7,0 -10,-4 -10,-4 0,0 -3,-4 -17,0 -1,-4 -2,-7 -4,-11 0,4 0,8 0,12 -1,0 -3,1 -4,1 0,-1 0,-2 0,-3 0,-8 -1,-15 -2,-20 1,0 1,0 2,1 3,-3 5,-5 5,-7 1,-3 0,-5 -1,-7 -1,-1 -2,-3 -4,-4 -2,-1 -5,-2 -8,-1 0,1 0,1 0,1 -4,-7 -7,-13 -9,-21 0,-2 -1,-3 -1,-5 -1,-6 -3,-13 -7,-19 -4,-7 -11,-11 -16,-13 -5,-3 -10,-5 -13,-7 -3,-3 -7,-8 -12,-12 -2,-2 -6,-5 -9,-6 -4,-1 -9,-1 -12,-1 -2,1 -4,1 -5,2 2,-5 3,-10 4,-15 0,-6 0,-11 1,-16 1,-2 2,-3 3,-6 1,-2 3,-6 4,-10 0,-9 -4,-17 -9,-21 -5,-5 -10,-7 -16,-9 0,-1 0,-3 1,-5 5,-1 10,-2 14,-3 7,-2 14,-5 20,-7 6,-3 12,-7 18,-11 3,-2 6,-5 8,-9 1,-3 2,-5 1,-7 0,-1 -1,-2 -1,-2 2,-2 4,-3 6,-5 4,-4 9,-9 11,-15 7,-5 11,-10 6,-13 -1,0 -1,0 -1,0 0,-1 0,-2 0,-2 -1,0 -1,1 -2,1 -3,0 -6,0 -10,1 0,-3 0,-7 -1,-10 -3,8 -9,13 -15,17 -3,1 -6,3 -9,5 -6,3 -13,6 -19,9 -9,3 -18,6 -27,11 -7,3 -13,8 -18,14 -2,2 -4,4 -6,6 -1,-1 -1,-3 -2,-4 -1,-1 -2,-3 -4,-4 -1,-8 -5,-16 -14,-20 -7,-2 -15,-5 -24,-8l-1 -1c-1,0 -4,-2 -6,-3 -2,-1 -5,-2 -7,-2 -3,0 -7,0 -10,0 -8,-1 -15,0 -18,5 -9,14 -21,24 -21,24 0,0 3,-21 -14,-27 -1,-1 -3,-2 -4,-3 -3,-1 -5,-3 -7,-4l-7 -3c-3,-1 -6,-2 -9,-3 -4,-1 -7,-1 -10,1 2,1 4,3 5,4 0,0 -1,0 -1,0 -5,-3 -11,-5 -15,-7 -1,0 -2,-1 -3,-2 -1,-1 -2,-3 -3,-4 0,-1 0,-1 0,-1 2,1 4,2 6,2 -1,-3 -3,-6 -4,-9 -1,-3 -3,-6 -4,-8 -1,-1 0,-3 -1,-6 0,-3 -1,-6 -1,-9 -1,-3 -2,-6 -3,-9 -1,-3 -2,-5 -4,-9 -1,-2 -2,-4 -4,-5 -3,-2 -6,-2 -8,-2 -5,2 -7,5 -8,9 4,-1 7,-2 8,-1 0,0 0,0 0,0 -11,5 -14,34 -1,43 0,0 0,0 1,0 3,9 9,17 17,22 -3,3 -3,8 -2,11 2,4 4,7 6,9 3,3 4,4 7,6 4,3 9,6 14,9 1,1 2,1 4,2l0 2c-4,2 -7,4 -11,6 -4,4 -8,8 -11,14 -2,5 -3,12 -3,17 0,3 1,5 1,7 -7,23 -21,46 -23,54 0,0 -3,-1 -7,0 -7,0 -14,3 -20,7 -8,5 -16,10 -23,16 -8,5 -15,12 -21,20 -6,7 -11,15 -16,23 -4,8 -9,16 -13,24 -4,8 -8,17 -9,28 -1,8 1,16 6,23 -7,-1 -13,0 -19,5 0,0 0,0 0,0 -4,-1 -8,-3 -12,-6 -1,-2 -2,-3 -3,-5 0,-1 -1,-2 -1,-3 0,-1 0,0 0,-1 1,-1 1,-3 2,-5 0,-2 0,-4 0,-6 0,-8 -3,-17 -10,-22 -5,-5 -14,-8 -21,-5 -1,-1 -2,-1 -2,-1 0,0 -15,-35 -33,-30 -1,0 -3,1 -4,1 -2,-1 -5,-1 -7,0 -2,1 -4,2 -5,4 -1,1 -2,2 -2,3 -3,2 -4,4 -4,4 0,0 4,-39 -15,-30 -1,0 -2,1 -3,1 -1,0 -2,0 -3,0 -4,-1 -8,0 -11,4 -2,2 -2,4 -2,6 0,0 -1,0 -1,0 -1,-2 -2,-4 -4,-6 -4,-5 -9,-9 -14,-12 -3,-1 -5,-3 -8,-4 -3,-1 -6,-1 -10,-2 -4,0 -9,1 -12,5 -2,5 0,10 3,11 -1,-4 2,-5 3,-5 1,0 2,1 4,1l6 4 0 0c-1,0 -3,0 -4,1 2,4 5,7 7,10 3,3 6,5 10,6 3,2 7,3 10,3 3,1 5,1 9,2 -2,0 -5,1 -8,4 -2,4 -2,9 0,12 1,2 2,4 3,5 2,1 4,2 5,3 7,2 12,1 15,0 4,-2 8,-3 12,-7 0,1 1,2 1,3 -1,0 -1,1 -1,2 0,1 0,3 0,5 2,6 6,8 10,10 3,2 7,4 11,4 7,2 14,1 20,0 4,-1 7,-2 10,-2 -2,10 -5,33 4,40 1,2 2,3 3,5 7,6 15,8 22,9 5,0 9,0 13,-1 2,0 3,1 3,1 0,0 3,1 8,4 0,0 0,0 0,0 2,5 6,7 8,8 3,2 5,3 8,4 10,3 20,4 29,5 4,0 9,1 13,1 4,1 10,3 15,0 -5,-1 -8,-4 -12,-7 0,0 -1,0 -1,0 3,0 6,-1 8,-1 2,2 5,5 7,6 5,4 9,6 13,10 3,3 7,7 11,11 4,4 8,8 13,10 3,2 5,3 7,4 -12,-1 -24,-1 -35,-2 -12,0 -24,0 -36,2 -12,2 -24,5 -35,12 -10,7 -18,17 -25,27 -6,10 -11,20 -15,31 3,-3 5,-6 7,-9 -4,6 -8,14 -13,22 0,0 0,0 0,-1 0,1 0,1 0,1 -3,5 -6,10 -8,16 -7,10 -14,21 -20,33 -12,-4 -24,-7 -35,-10 -14,-2 -27,-4 -40,-6 -11,-1 -22,-2 -33,-2 -20,-6 -33,-8 -41,-3 -10,6 -15,15 -16,18 -1,-1 -1,-2 -2,-3 -1,-5 -3,-14 -6,-24 -1,-3 -2,-7 -4,-11 -4,-7 -8,-13 -13,-14 -15,-2 -6,-28 -20,-31 -1,-1 -3,-2 -4,-3 -4,-1 -8,-2 -13,0 -3,1 -5,3 -6,5 0,0 0,0 0,0 0,0 -1,1 -2,2 0,0 0,-1 0,-1 0,-2 0,-4 -1,-6 -1,-4 -3,-9 -7,-12 -3,-3 -7,-5 -11,-6 2,-1 4,-1 5,-2 1,0 2,0 2,-1 1,-1 0,-1 0,-3 0,-1 0,-3 1,-7 -3,-2 -5,-3 -8,-2 -2,0 -5,1 -6,3 -1,2 -2,5 -1,7 0,2 1,3 2,4 -3,0 -7,1 -10,3 3,4 6,6 9,9l7 7 7 6c1,2 3,3 5,5 1,0 2,0 3,1 -1,2 -2,4 -3,6 -2,1 -4,2 -6,4 -2,3 -3,6 -2,10 0,3 2,6 4,8 4,5 9,7 14,7 1,0 3,0 5,-1 7,5 7,5 7,5 0,0 10,20 22,34 12,15 19,12 19,12 0,0 -9,13 15,20 2,1 3,2 5,3 9,4 18,5 27,5 8,1 17,1 26,1 17,-1 33,-3 50,-6 17,-1 32,-2 44,-3 -1,2 -1,4 -2,6l-6 15c-2,4 -3,10 -4,16 -2,11 -3,22 -4,34 -5,40 -7,85 -5,125 -1,3 -1,6 -2,9 0,0 -1,0 -2,1 -3,-1 -6,0 -9,1 -6,2 -11,8 -11,15 -1,4 0,8 2,11 -11,10 -18,24 -21,38 -5,18 -5,36 -5,53 1,18 3,36 8,53 3,13 7,26 13,39 -1,2 -3,5 -5,7 -3,-3 -6,-5 -8,-6 -6,-4 -12,-8 -18,-11 -6,-2 -13,-5 -19,-7 -4,0 -8,-1 -12,-1 -3,1 -6,2 -7,4 -3,0 -4,1 -4,1 0,0 -2,-1 -6,-2 0,-3 -1,-6 -3,-9 -2,-4 -6,-6 -10,-8 -2,-1 -4,-1 -6,-1 -1,-1 -3,-1 -5,0 0,0 -1,0 -1,0 -4,-3 -8,-7 -14,-8 -7,-1 -14,0 -19,4 6,2 11,5 14,7 2,2 4,4 6,6 -3,-1 -5,-1 -7,0 -3,0 -5,2 -7,4 -2,2 -3,4 -4,8 3,2 6,3 8,3 3,0 5,0 7,0 2,-1 4,-2 6,-3 1,-1 2,-3 4,-5 3,3 7,6 11,8 2,1 3,1 5,2 16,14 32,33 57,37 27,4 57,9 68,-13 2,-2 5,-4 6,-7 5,-9 6,-20 5,-30 -1,-5 -3,-10 -4,-16 0,0 0,-1 1,-1 -1,0 -1,0 -1,0 -2,-3 -3,-6 -4,-10 -3,-8 -5,-16 -7,-25 -4,-16 -6,-34 -8,-52l-2 -24c3,-5 5,-10 8,-14 0,3 1,5 1,8 2,10 5,20 9,29 3,10 6,19 9,28 3,9 5,18 8,28 4,14 9,28 17,41 5,12 10,24 17,36 9,14 20,31 34,50 2,4 4,8 6,12 4,6 10,12 15,17 4,3 8,7 12,10 35,39 77,76 119,95 2,0 3,1 5,2 3,2 6,4 10,6 9,4 18,7 26,9 8,2 16,5 25,7 9,2 19,4 29,1 4,-2 9,-4 12,-8 3,-3 5,-8 5,-12 3,-2 4,-3 4,-3 0,0 4,5 17,7 -4,1 -7,1 -11,1 4,4 8,5 13,6 5,1 9,1 14,0 9,-1 17,-3 26,-7 5,-2 11,-5 16,-9 20,-10 46,-29 74,-52 8,-6 17,-12 25,-18 19,-14 35,-31 52,-47 4,-5 8,-9 12,-15 4,-5 7,-10 9,-15 1,-2 2,-3 3,-5 11,-13 21,-26 28,-37 15,-24 28,-58 38,-94 1,-3 2,-6 3,-9 5,-12 9,-25 13,-38 3,-14 5,-27 5,-41 1,-11 0,-22 -2,-32 1,-6 1,-11 1,-17 3,1 4,2 4,2 0,0 1,1 2,3 0,1 1,1 1,1 1,4 0,8 0,12 -1,8 -2,18 -3,26 0,9 0,18 1,27 1,9 2,18 5,28 1,-3 2,-5 3,-7 -1,9 -2,18 -3,27 0,-2 0,-4 -1,-7 -4,11 -6,23 -7,35 -2,11 -2,23 -1,34 0,6 0,12 2,19 2,6 6,13 13,17 3,2 7,3 11,3 4,-1 8,-2 10,-5 3,-2 6,-5 7,-9 9,9 23,12 36,10 7,0 13,-2 20,-5 3,-1 5,-2 8,-3 5,5 15,16 24,14 2,-1 4,-1 6,-1 1,0 2,0 2,-1 5,0 9,-1 10,-1 1,1 1,1 2,2 5,5 13,8 21,9 1,0 2,0 3,0 1,0 1,0 3,0 0,0 0,0 0,0 0,1 0,2 0,2 0,0 0,1 1,2 1,1 2,3 3,6 4,1 7,0 9,-3 2,-3 3,-7 1,-10 0,-2 -2,-4 -3,-5 1,1 3,1 4,1 4,-1 8,-3 10,-7 2,-3 2,-8 1,-11 -1,-4 -4,-7 -9,-7 -1,4 -2,6 -3,7 -1,2 -2,2 -3,3 0,1 0,2 -1,3 0,1 -1,2 -1,3 -2,-2 -3,-2 -4,-3 -1,-1 -2,0 -3,-1 -1,0 -3,-1 -5,-1 -4,-1 -8,-1 -12,-1l-11 -7c0,0 0,0 0,0 1,-1 2,0 5,-3 2,-2 2,-5 2,-6 0,-2 0,-3 -1,-4 0,-2 -2,-4 -4,-6 -3,-3 -6,-4 -9,-4 -3,-1 -6,-1 -9,-1 -2,0 -5,1 -8,2 -3,1 -6,2 -9,4 0,0 -1,-1 -3,-1 0,0 0,0 0,0 -3,-4 -7,-7 -11,-8 -4,-1 -9,-2 -13,-1 -5,1 -8,3 -11,5 -5,3 -9,6 -14,10 0,0 0,0 -1,0 0,0 0,0 0,0 -2,2 -4,4 -6,5 -1,0 -2,0 -3,-1 0,2 0,3 0,4 -1,0 -1,0 -1,1 -12,1 -19,-4 -9,-28 1,-3 2,-6 3,-10 2,-6 4,-12 6,-18 6,-21 8,-44 7,-66 -2,-19 -6,-38 -12,-56 -2,-7 -4,-13 -7,-17 0,-1 -1,-1 -1,-2 -4,-7 -8,-13 -13,-18 -6,-5 -13,-9 -21,-11 -1,0 -1,0 -1,0 0,0 0,0 0,0 -3,0 -6,-1 -9,0 2,-10 2,-20 2,-30 -1,-16 -3,-32 -6,-48 -4,-16 -9,-32 -15,-47 -4,-10 -8,-19 -13,-28 7,3 15,8 23,12 7,6 12,13 19,20 12,13 25,26 38,39l9 9c1,1 2,2 3,3 4,6 8,10 12,10 3,2 7,4 11,4 6,2 13,1 18,-5 2,-1 3,-4 4,-6 9,1 22,1 31,-2 2,0 3,0 5,0 3,-1 6,-1 10,-2 3,0 6,-1 10,-2 3,-1 7,-3 10,-7 9,7 22,16 31,10 2,0 3,-1 5,-1 3,-2 6,-4 8,-8 1,-1 1,-4 1,-6 0,-1 -1,-2 -2,-3 1,-1 1,-2 2,-2 1,-1 2,-1 3,-1 2,1 5,2 7,2 3,0 6,1 9,1 3,0 5,0 9,-1 1,-1 2,-1 3,-2 0,2 0,2 0,3 1,1 2,1 3,2 1,1 3,2 6,4 3,-1 5,-3 6,-5 1,-3 1,-6 -1,-8zm-20 -6l0 0c-1,0 -1,-1 -1,-1 0,0 0,0 0,0 0,0 1,1 1,1zm-137 17l0 0c-1,0 -1,0 -1,1 0,-1 -1,-1 -1,-2 1,1 1,1 2,1zm-8 -11l0 0c3,2 5,5 5,9 -2,-2 -3,-4 -5,-6 -1,0 -1,-1 -2,-1 -1,-2 -3,-5 -4,-7 2,1 4,3 6,5zm-123 -88l0 0c-7,0 -13,-1 -19,-2 7,-1 13,0 19,2zm-690 327l0 0c0,-4 0,-8 0,-11 0,0 0,0 0,1 0,3 0,6 0,10zm475 -474l0 0c1,0 2,-1 3,-1 -1,0 -1,1 -2,1 0,0 0,0 -1,0zm274 -223l0 0c0,0 0,0 0,0 0,0 0,0 0,0zm-313 -72l0 0c-1,1 -2,2 -2,2 0,0 0,-1 0,-3 1,0 1,1 2,1zm-157 -34l0 0c-2,-2 -4,-4 -6,-5 -2,-1 -4,-2 -5,-3 0,-1 -1,-1 -1,-2 3,1 6,3 8,3 4,4 7,7 7,7l1 3c-1,-1 -2,-2 -4,-3zm-197 223l0 0c-1,-1 -2,-2 -3,-3 1,1 2,2 3,3zm-76 -16l0 0c2,-1 3,-1 3,-1 0,0 0,1 0,3 -1,-1 -2,-1 -3,-2zm178 91l0 0c0,0 0,0 0,0 1,0 1,1 2,2 -1,-1 -2,-1 -2,-2zm12 56l0 0c23,0 46,1 69,0 3,0 6,0 8,0 0,0 0,0 1,0 -34,3 -68,1 -96,-1 6,0 12,1 18,1zm-146 121l0 0c-2,0 -5,0 -8,-1 3,0 6,0 9,0 0,0 0,0 -1,1zm308 650l0 0c-5,1 -11,0 -16,-2 17,-2 29,-7 35,-10 -4,8 -12,12 -19,12zm392 -228l0 0c-4,2 -7,1 -10,-1 2,0 3,0 5,-1 4,0 8,-1 11,-1 -2,1 -4,2 -6,3zm13 -4l0 0c8,0 14,0 14,0l2 0c1,0 2,1 4,1 0,0 0,-1 0,-1l9 0c-9,2 -19,3 -29,0zm-37 -232l0 0c0,1 0,1 0,1 -3,-1 -6,-1 -9,-2 0,0 0,-1 0,-1 3,0 6,1 9,2z"/>
   </g>
   <g>
    <g>
     <g>
      <path fill="#5B5256" fill-rule="nonzero" d="M1120 961c-22,0 -22,0 -22,0 0,0 -12,-10 -32,-3 -19,7 -65,34 -45,-14 19,-49 14,-138 -3,-167 -17,-29 -31,-26 -31,-26 -22,-10 -51,5 -44,9 8,5 34,17 34,17 0,0 17,22 12,56 -5,34 -9,106 -7,125 2,20 5,27 19,24 15,-2 32,-2 32,-2l46 0c0,0 14,19 26,17 12,-3 19,-3 19,-3l41 8 -41 -27c0,0 17,-14 -4,-14z"/>
      <path fill="#5B5256" fill-rule="nonzero" d="M321 562c0,0 -46,0 -87,-12 -41,-12 -63,-19 -75,-12 -12,8 -17,20 -17,20 0,0 -9,-51 -24,-53 -17,-3 -5,-34 -24,-32 -19,3 -19,3 -19,3 0,0 -20,21 -3,33 17,12 17,12 17,12 0,0 10,20 22,34 12,15 19,12 19,12 0,0 -14,22 44,24 57,3 115,-4 140,-4 24,0 31,-27 7,-25z"/>
      <path fill="#5B5256" fill-rule="nonzero" d="M260 804c0,14 -29,48 -26,79 2,32 17,116 17,116 0,0 -12,29 -32,8 -19,-22 -43,-17 -43,-17 0,0 -48,-15 -29,0 19,14 36,38 65,43 29,5 63,10 70,-19 7,-29 0,-34 -7,-61 -7,-26 -29,-62 -15,-89 15,-26 27,-41 27,-41l0 -34c0,0 -27,3 -27,15z"/>
      <path fill="#5B5256" fill-rule="nonzero" d="M1163 630c-17,5 -19,15 -19,15 0,0 -8,-10 -27,-3 -19,7 -43,22 -43,22 0,0 -10,-17 -24,-36 -15,-20 -63,-61 -92,-63 -29,-3 -70,-15 -44,14 0,0 70,34 90,51 19,17 29,63 46,56 16,-8 16,-8 16,-8 0,0 37,5 51,-5 15,-9 19,-14 19,-14 0,0 32,34 44,12 12,-22 12,-22 12,-22l24 -2c0,0 -36,-22 -53,-17z"/>
      <path fill="#5B5256" fill-rule="nonzero" d="M429 363c0,0 -19,-17 -34,-11 -15,6 -15,6 -15,6 0,0 -31,-10 -31,-27 0,-16 -21,-29 -21,-29 0,0 -15,-35 -33,-30 -18,4 -22,12 -22,12 0,0 4,-39 -15,-30 -19,9 -24,15 -24,15 0,0 -36,-33 -22,-18 13,15 28,30 28,30 0,0 -18,16 0,16 18,0 25,-4 25,-4 0,0 -3,24 23,22 25,-1 29,-3 29,-3 0,0 -10,40 5,48 15,7 39,12 39,12 0,0 19,12 52,14 32,3 50,-7 16,-23z"/>
      <path fill="#5B5256" fill-rule="nonzero" d="M925 294c1,-21 0,-40 0,-40 0,0 1,-16 23,-15 23,2 29,-10 29,-10 0,0 13,12 25,-5 12,-16 12,-16 12,-16 0,0 39,-18 27,-19 -12,-2 -29,5 -29,5 -26,-5 -40,14 -40,14 0,0 -3,-15 -18,-3 -14,12 -26,24 -26,24 0,0 -14,-12 -30,7 -17,20 -25,36 -24,55 2,20 0,51 -10,52 -11,2 -14,-4 -14,-4 0,0 -6,-6 -34,6 -28,12 -67,30 -52,39 15,8 18,25 48,14 29,-10 44,-29 44,-29 0,0 21,-17 42,-38 21,-20 25,-16 27,-37z"/>
     </g>
     <path fill="#CF2A1C" fill-rule="nonzero" d="M557 437c-69,16 -154,-7 -176,10 -22,17 -87,123 -99,205 -12,82 -7,193 5,222 12,29 17,84 48,137 32,53 109,150 186,184 77,34 116,2 116,2 0,0 12,15 58,5 46,-10 178,-130 219,-195 41,-66 63,-189 58,-266 -4,-77 -55,-217 -84,-268 -29,-51 -58,-53 -99,-58 -41,-5 -200,15 -232,22z"/>
     <path fill="#747072" fill-rule="nonzero" d="M497 210c0,0 -22,-7 -48,31 -27,39 -56,66 -58,85 -3,19 21,39 21,39 0,0 49,36 75,55 27,19 140,22 184,12 43,-10 58,-12 91,-31 34,-20 46,-29 46,-29 0,0 17,-5 17,-34 0,-29 -12,-39 -17,-58 -5,-19 -9,-24 -24,-31 -14,-8 -26,-22 -26,-22l-29 -7c0,0 7,-15 7,-36 0,-22 0,-27 -10,-32 -9,-5 -5,-17 -5,-17 0,0 46,-12 53,-26 8,-15 5,-20 5,-20 0,0 37,-17 24,-24 -14,-7 -45,20 -72,29 -27,10 -41,29 -41,29 0,0 5,-26 -14,-34 -20,-7 -57,-22 -66,-9 -9,14 -21,24 -21,24 0,0 4,-27 -22,-29 -27,-2 -36,0 -46,-19 -10,-20 -5,-49 -19,-49 -15,0 -20,34 -5,44 14,9 41,36 41,36l7 29c0,0 -17,0 -22,27 -4,26 -24,57 -26,67z"/>
     <path fill="#5B5256" fill-rule="nonzero" d="M608 446c0,0 -23,-6 -37,12 -15,17 -31,27 -39,37 -8,9 -19,42 5,67 24,26 77,-11 77,-11 0,0 10,8 39,11 29,4 45,-9 53,-38 8,-29 -16,-39 -33,-55 -18,-16 -38,-40 -65,-23z"/>
     <path fill="#5B5256" fill-rule="nonzero" d="M316 646c0,0 -17,23 -11,47 6,24 5,31 23,23 17,-8 24,-34 16,-52 -8,-18 -28,-18 -28,-18z"/>
     <path fill="#B6150C" fill-rule="nonzero" d="M862 676c-4,-10 -8,-19 -14,-27 -14,-34 -35,-63 -64,-86 -50,-38 -104,-23 -140,21 -17,12 -31,29 -42,52 -19,42 -25,88 -20,133 0,24 3,49 9,73 6,30 18,63 37,92 21,49 57,101 112,102 66,1 95,-73 108,-126 2,-7 3,-13 5,-20 26,-68 34,-151 9,-214z"/>
     <g>
      <path fill="#ED3D34" fill-rule="nonzero" d="M502 907c-6,-20 -15,-39 -26,-58 -12,-40 -33,-75 -69,-67 -8,2 -14,6 -20,11 -1,0 -2,0 -3,1 -3,1 -6,3 -9,5 -6,3 -11,8 -12,15 -7,14 -7,32 -7,48 1,34 8,67 22,98 7,17 17,38 30,56 18,38 43,73 76,61 15,-5 24,-17 28,-32 31,-22 7,-97 -10,-138z"/>
      <path fill="#ED3D34" fill-rule="nonzero" d="M410 743c15,-3 27,-16 36,-32 8,-10 15,-21 19,-29 17,-35 35,-103 -1,-133 -40,-35 -80,22 -94,55 -15,34 -30,103 3,132 13,12 25,13 37,7z"/>
     </g>
     <path fill="#5B5256" fill-rule="nonzero" d="M481 756c-37,-4 -54,-10 -58,21 -5,31 1,76 61,72 60,-3 56,-21 53,-46 -3,-26 -14,-42 -56,-47z"/>
     <path fill="#5B5256" fill-rule="nonzero" d="M758 727c-21,2 -48,42 -36,74 13,32 52,52 83,36 30,-17 34,-41 29,-63 -5,-23 -18,-52 -76,-47z"/>
     <path fill="#5B5256" fill-rule="nonzero" d="M384 998c0,0 -37,0 -26,34 11,33 34,40 60,38 26,-1 35,-22 21,-50 -15,-27 -55,-22 -55,-22z"/>
     <path fill="#5B5256" fill-rule="nonzero" d="M860 1062c0,0 -42,-5 -17,-42 26,-37 36,-53 52,-45 16,8 23,15 23,15 0,0 -42,64 -58,72z"/>
     <path fill="#5B5256" fill-rule="nonzero" d="M939 650c0,-29 -12,-34 -25,-28 -13,7 -17,31 -6,52 11,21 31,22 31,-24z"/>
     <g>
      <path fill="white" fill-rule="nonzero" fill-opacity="0.568627" d="M532 867c-2,-23 -22,-52 -47,-50 -2,0 -4,0 -6,0 -2,0 -4,0 -7,1 -3,0 -6,1 -10,3 -34,18 -31,72 -15,101 19,35 65,51 78,4 2,-7 3,-14 4,-22 0,0 0,0 0,0 1,-2 1,-4 2,-6 0,-4 1,-8 1,-13 1,-6 1,-12 0,-18z"/>
      <path fill="white" fill-rule="nonzero" fill-opacity="0.568627" d="M448 751c30,14 52,-7 61,-35 5,-11 7,-23 7,-33 1,-22 -11,-43 -30,-52 -1,0 -1,0 -1,0 0,0 0,0 -1,-1 -3,-1 -7,-2 -11,-3 -8,-2 -15,-1 -22,1 -44,15 -46,103 -3,123z"/>
     </g>
     <g>
      <path fill="#5B5256" fill-rule="nonzero" d="M763 323c-4,3 -8,6 -12,8 -11,3 -15,7 -21,16 -4,3 -7,5 -11,8 -2,0 -3,0 -5,0 -5,1 -11,3 -17,4 -3,-1 -7,-2 -10,-2 4,-9 6,-19 6,-30 9,-36 -1,-75 -38,-80 -6,-4 -12,-7 -18,-8 -14,-4 -27,-3 -39,1 -12,1 -25,5 -36,13 -19,14 -28,34 -29,55 -4,16 -4,33 1,48 -9,-2 -18,-4 -27,-6 -1,0 -1,0 -1,0 -10,-7 -20,-15 -29,-24 -3,-3 -7,-5 -11,-6 0,0 0,0 0,0 -13,-9 -28,4 -29,17 -1,8 -1,15 1,22 -1,5 1,11 6,15 0,0 0,0 0,0 8,13 21,23 37,28 5,2 9,2 13,0 1,0 1,1 2,1 7,4 15,3 21,-2 9,4 18,8 27,11 32,12 67,18 103,17 6,0 11,-3 14,-6 16,-3 33,-9 43,-19 3,-2 6,-3 9,-5 4,-1 8,-2 12,-4 3,-1 6,-2 8,-3 3,0 5,-1 7,-2 3,-1 6,-3 9,-4 8,-4 16,-8 25,-12 7,-4 10,-10 9,-16 2,-2 3,-3 4,-4 13,-16 -4,-44 -24,-31z"/>
      <path fill="#5B5256" fill-rule="nonzero" d="M588 200c3,4 7,7 14,7 17,11 47,4 63,-2 16,-6 20,-33 0,-37 -1,0 -1,-1 -1,-1 -1,-1 -2,-2 -4,-2 1,-6 0,-13 -2,-18 -8,-26 -39,-21 -46,3 0,1 0,2 -1,3 -2,2 -3,5 -4,8 -6,1 -13,1 -19,2 -11,2 -16,15 -14,24 2,7 7,12 14,13z"/>
     </g>
     <g>
      <path fill="#999597" fill-rule="nonzero" d="M482 228c-9,-1 -18,2 -25,7 -12,8 -19,21 -14,35 0,1 1,2 1,3 1,2 2,4 3,6 2,6 6,10 12,11 3,1 6,1 8,1 11,-1 22,-8 28,-16 5,-6 8,-14 8,-21 0,-2 0,-4 0,-7 -1,-12 -11,-20 -21,-19z"/>
      <path fill="#999597" fill-rule="nonzero" d="M772 271c0,-11 -6,-22 -16,-28 -2,-1 -5,-2 -8,-3 -11,-6 -25,-6 -36,5 -11,10 -11,29 -5,42 4,8 11,15 19,18 4,3 9,5 15,5 18,2 32,-13 32,-30 0,-3 0,-6 -1,-9z"/>
      <path fill="#999597" fill-rule="nonzero" d="M593 112c-1,0 -1,0 -2,0 -10,0 -20,9 -20,20 1,10 9,19 20,19 1,0 1,0 2,0 10,0 20,-9 19,-19 0,-11 -8,-20 -19,-20z"/>
      <path fill="#999597" fill-rule="nonzero" d="M648 124c0,1 -1,2 -2,2 -7,7 -8,21 0,28 8,7 20,7 28,0 0,-1 1,-2 2,-2 7,-8 8,-21 0,-28 -8,-7 -20,-8 -28,0z"/>
     </g>
     <g>
      <path fill="#999597" fill-rule="nonzero" d="M250 284c3,4 10,3 14,0 3,-3 4,-7 3,-12 -1,-2 -2,-4 -4,-5 0,0 0,0 0,0 -3,-4 -8,-6 -12,-4 -5,2 -7,6 -6,11 1,4 3,7 5,10z"/>
      <path fill="#999597" fill-rule="nonzero" d="M311 292c-5,-4 -12,-7 -19,-8 -4,-1 -8,0 -10,4 -2,1 -2,4 -2,6 0,4 2,8 5,10 6,6 14,8 22,7 2,-1 3,-1 4,-2 2,-1 3,-3 4,-4 3,-5 1,-10 -4,-13z"/>
      <path fill="#999597" fill-rule="nonzero" d="M348 322c0,-12 -19,-12 -20,0 0,0 0,0 0,0 0,2 -1,4 0,7 1,3 2,7 2,11 1,6 7,9 12,7 4,-1 6,-4 7,-7 2,-3 3,-7 1,-11 -2,-2 -2,-4 -2,-7z"/>
      <path fill="#999597" fill-rule="nonzero" d="M194 558c-1,-4 -3,-6 -5,-8 0,-2 0,-3 0,-4 -1,-5 -7,-8 -12,-7 -6,2 -10,6 -11,12 -1,1 -1,1 -2,2 -1,2 -2,4 -2,7 0,0 0,0 0,0 -1,4 0,8 2,11 5,7 14,9 21,5 7,-3 10,-11 9,-18zm-18 5l0 0c0,0 0,0 0,0z"/>
      <path fill="#999597" fill-rule="nonzero" d="M82 479c-13,5 -6,20 0,28 1,1 3,2 5,2 1,1 3,1 4,1 5,0 10,-4 10,-9 -1,-10 -6,-27 -19,-22z"/>
      <path fill="#999597" fill-rule="nonzero" d="M893 250c-14,11 -19,29 -16,46 1,8 14,9 17,2 3,-4 5,-8 7,-12 0,0 0,0 1,0 0,-1 1,-2 1,-3 1,-2 2,-5 4,-7 1,-2 1,-4 1,-5 1,-5 2,-9 2,-14 0,-9 -11,-11 -17,-7z"/>
      <path fill="#999597" fill-rule="nonzero" d="M1051 667c-2,-3 -4,-7 -6,-11 -1,-1 -1,-2 -1,-2 -1,-2 -2,-4 -3,-6 -1,-2 -3,-4 -4,-4 -1,-1 -1,-1 -1,-1 -2,-5 -9,-6 -13,-4 -5,3 -6,9 -4,13 4,9 9,17 15,25 0,0 0,0 0,0 0,0 0,0 0,0 1,1 1,1 2,2 7,9 22,-3 15,-12z"/>
      <path fill="#999597" fill-rule="nonzero" d="M1011 843c0,-1 0,-2 -1,-2 -1,-6 -2,-11 -3,-15 -3,-13 -22,-7 -19,5 2,6 3,12 4,19 -1,20 -1,40 0,60 1,9 14,14 18,5 9,-18 7,-42 3,-63 -1,-3 -1,-6 -2,-9z"/>
      <path fill="#999597" fill-rule="nonzero" d="M264 931c1,-2 2,-4 1,-7 -2,-3 -3,-7 -4,-10 -5,-12 -22,-8 -19,5 0,2 1,4 1,5 -2,2 -2,5 -2,9 2,12 7,23 12,34 5,10 20,3 18,-7 -2,-10 -4,-20 -7,-29z"/>
      <path fill="#999597" fill-rule="nonzero" d="M197 994c-8,-4 -17,3 -15,10 -2,5 0,10 4,13 2,1 4,3 6,4 7,5 15,-2 15,-8 0,-8 -4,-15 -10,-19z"/>
     </g>
    </g>
    <g>
     <path fill="#16230F" fill-rule="nonzero" d="M574 194c8,-6 14,-14 17,-23 3,-9 4,-19 2,-28 -4,9 -6,17 -9,25 -3,9 -6,16 -10,26z"/>
     <path fill="#16230F" fill-rule="nonzero" d="M682 174c2,-11 4,-22 5,-34 -7,10 -11,21 -12,33 -1,6 -1,12 -1,18 0,3 1,6 1,9 1,1 2,3 2,4 1,1 1,1 2,2 0,0 2,1 2,0 0,1 -1,0 -1,0 0,0 0,0 0,-1 0,0 0,-1 -1,-2 0,-1 0,-2 0,-4 0,-2 1,-5 1,-8 1,-6 1,-11 2,-17z"/>
     <path fill="#16230F" fill-rule="nonzero" d="M692 209c-1,1 -2,3 -2,6 3,2 4,2 6,1 1,-1 2,-2 2,-5 -3,-2 -5,-2 -6,-2z"/>
     <path fill="#16230F" fill-rule="nonzero" d="M703 222c2,-1 4,-3 3,-7 -3,-1 -5,-1 -7,0 -1,1 -2,3 -3,6 3,2 6,2 7,1z"/>
     <path fill="#16230F" fill-rule="nonzero" d="M552 198c0,4 1,6 3,7 2,2 5,2 8,0 0,-4 -2,-5 -3,-6 -2,-1 -4,-2 -8,-1z"/>
     <path fill="#16230F" fill-rule="nonzero" d="M563 196c0,-4 0,-5 -1,-6 0,0 -2,-1 -5,0 -2,3 -1,5 0,6 1,1 3,2 6,0z"/>
     <path fill="#16230F" fill-rule="nonzero" d="M585 128c0,0 0,0 4,1 3,-1 3,-2 3,-4 -1,-1 -2,-2 -5,0 -2,2 -3,3 -2,3z"/>
     <path fill="#16230F" fill-rule="nonzero" d="M603 211c1,1 3,2 5,3 3,2 7,3 10,4 4,1 8,1 12,1 2,0 4,0 6,-1 2,0 5,-2 4,-4 -1,1 -3,1 -4,0l-5 -1c-4,-1 -7,-2 -11,-3 -3,0 -7,-1 -10,-2 -2,0 -4,0 -6,-1 -2,0 -3,0 -5,-1 0,2 2,4 4,5z"/>
     <path fill="#16230F" fill-rule="nonzero" d="M624 205c5,1 10,0 15,-4 -6,-2 -10,-3 -14,-3 -5,-1 -9,-1 -15,0 4,5 9,7 14,7z"/>
     <path fill="#16230F" fill-rule="nonzero" d="M627 192c3,0 7,-1 9,-4 -3,-3 -6,-4 -9,-4 -3,0 -5,0 -9,2 2,4 5,5 9,6z"/>
     <path fill="#16230F" fill-rule="nonzero" d="M631 180c1,0 2,0 4,-1 1,0 2,-1 3,-1 0,-1 1,-3 0,-4 -1,1 -2,0 -2,0 0,0 -1,-1 -1,-1 -1,-1 -2,-1 -3,-1 -3,0 -5,0 -8,3 2,3 4,4 7,5z"/>
     <path fill="#16230F" fill-rule="nonzero" d="M641 165c-1,-1 -2,-2 -3,-2 -1,-1 -2,-1 -3,-1 -1,0 -2,0 -4,0 -1,0 -3,1 -3,3 1,1 2,2 3,3 1,1 2,1 3,1 1,1 3,1 4,0 2,-1 3,-2 3,-4z"/>
     <path fill="#16230F" fill-rule="nonzero" d="M636 159c2,0 3,-1 5,-4 -2,-3 -3,-4 -4,-4 -1,0 -2,0 -5,3 1,3 2,4 4,5z"/>
     <path fill="#16230F" fill-rule="nonzero" d="M637 148c2,0 3,0 5,-3 0,-3 -2,-4 -3,-4 -1,0 -3,0 -5,3 1,3 2,4 3,4z"/>
     <path fill="#16230F" fill-rule="nonzero" d="M643 129c4,1 9,0 12,-4 -5,-2 -7,-3 -10,-4 -3,0 -6,-1 -10,-1 0,5 4,8 8,9z"/>
     <path fill="#16230F" fill-rule="nonzero" d="M423 351c7,6 16,11 26,10 -8,-5 -14,-10 -21,-16 -7,-5 -13,-12 -21,-16 3,8 9,16 16,22z"/>
     <path fill="#16230F" fill-rule="nonzero" d="M432 341c6,4 12,6 19,4 -5,-4 -10,-7 -14,-10 -5,-3 -9,-6 -15,-9 1,6 5,11 10,15z"/>
     <path fill="#16230F" fill-rule="nonzero" d="M440 330c4,3 9,4 14,3 -3,-4 -6,-7 -10,-9 -4,-2 -7,-4 -12,-6 0,6 4,10 8,12z"/>
     <path fill="#16230F" fill-rule="nonzero" d="M445 320c3,2 8,3 12,1 -3,-4 -5,-6 -8,-8 -3,-1 -5,-2 -10,-3 0,5 3,8 6,10z"/>
     <path fill="#16230F" fill-rule="nonzero" d="M447 303c1,4 3,7 6,8 2,2 5,3 9,1 -1,-4 -3,-6 -5,-7 -3,-2 -6,-3 -10,-2z"/>
     <path fill="#16230F" fill-rule="nonzero" d="M455 297c1,4 2,6 4,7 2,1 4,1 7,-1 0,-3 -2,-5 -3,-6 -2,-1 -4,-1 -8,0z"/>
     <path fill="#16230F" fill-rule="nonzero" d="M471 287c-1,-3 -2,-4 -4,-5 -2,0 -4,0 -7,2 1,4 3,5 5,6 2,0 4,0 6,-3z"/>
     <path fill="#16230F" fill-rule="nonzero" d="M748 306c-1,1 -3,2 -3,6 3,2 4,2 6,2 2,-1 3,-3 4,-6 -3,-2 -5,-2 -7,-2z"/>
     <path fill="#16230F" fill-rule="nonzero" d="M747 324c4,2 8,1 11,-1 3,-2 6,-4 7,-9 -5,0 -8,1 -11,3 -2,1 -5,3 -7,7z"/>
     <path fill="#16230F" fill-rule="nonzero" d="M755 336c5,2 10,1 14,-2 4,-3 8,-7 8,-13 -5,2 -9,4 -12,6 -3,3 -7,5 -10,9z"/>
     <path fill="#16230F" fill-rule="nonzero" d="M763 351c5,1 11,-1 15,-4 5,-3 8,-8 9,-14 -6,3 -9,5 -13,8 -4,3 -8,6 -11,10z"/>
     <path fill="#16230F" fill-rule="nonzero" d="M768 365c6,0 12,-2 17,-5 5,-4 9,-8 11,-14 -6,1 -11,4 -16,7 -4,3 -8,7 -12,12z"/>
     <path fill="#16230F" fill-rule="nonzero" d="M625 409c-14,1 -28,2 -42,6 14,2 29,2 43,2 14,-1 27,-2 42,0 -6,-4 -14,-6 -21,-7 -7,-1 -14,-1 -22,-1z"/>
     <path fill="#16230F" fill-rule="nonzero" d="M618 388c-9,1 -18,3 -26,7 9,2 18,2 27,1 4,-1 8,-1 13,-2 4,0 8,-1 13,0 -3,-4 -9,-5 -13,-6 -5,0 -9,0 -14,0z"/>
     <path fill="#16230F" fill-rule="nonzero" d="M622 368c-7,1 -14,2 -21,6 8,2 15,2 22,2 7,-1 13,-1 21,-4 -7,-4 -15,-4 -22,-4z"/>
     <path fill="#16230F" fill-rule="nonzero" d="M623 357c4,0 8,-1 12,-5 -5,-2 -9,-3 -13,-2 -4,0 -9,1 -13,5 5,3 9,3 14,2z"/>
     <path fill="#16230F" fill-rule="nonzero" d="M634 334c-4,-2 -7,-2 -10,-2 -2,0 -5,1 -8,3 2,4 6,5 9,5 3,-1 6,-2 9,-6z"/>
     <path fill="#16230F" fill-rule="nonzero" d="M628 316c-3,1 -5,2 -7,6 3,2 6,2 8,2 3,-1 6,-2 8,-6 -3,-2 -6,-2 -9,-2z"/>
     <path fill="#16230F" fill-rule="nonzero" d="M618 306c2,3 5,3 7,3 2,0 4,-2 6,-5 -3,-2 -5,-3 -7,-3 -2,1 -4,1 -6,5z"/>
     <path fill="#16230F" fill-rule="nonzero" d="M924 237c0,1 1,2 2,3 -2,1 -5,2 -7,4 6,3 12,4 17,5 6,1 12,1 17,1 3,0 6,-1 10,-2 3,-1 7,-2 9,-5 3,-2 4,-4 6,-8 1,-1 2,-3 2,-5 0,-2 -2,-4 -4,-5 1,2 0,3 0,4 -1,1 -2,1 -3,1 -2,1 -4,2 -6,2 0,-3 -1,-6 -2,-8 -2,-3 -3,-6 -5,-9 0,0 0,0 0,0 2,-2 3,-3 5,-4 1,-1 3,-1 6,1 1,-3 -2,-7 -5,-8 -4,-2 -8,-1 -11,-1 -5,2 -10,4 -15,7 -4,3 -9,7 -12,11 -3,4 -5,8 -9,12 1,1 3,1 4,1 0,1 0,2 1,3zm22 -2l0 0c-1,-2 -1,-3 -2,-5 0,-1 -1,-2 -1,-3 2,-1 3,-2 5,-4 0,2 1,4 1,6 1,2 2,4 3,5 0,0 0,0 0,0 -2,1 -4,1 -6,1zm10 -17l0 0c0,3 0,6 1,8 1,3 3,6 5,8 0,0 -1,0 -2,0 -1,0 -1,0 -1,0 0,-1 -1,-1 -1,-2 0,-2 -1,-4 -2,-6 -1,-2 -1,-4 -3,-6 1,-1 2,-2 3,-2zm-20 12l0 0c0,0 0,0 0,0 0,1 1,2 1,3 0,1 1,2 2,3 -1,1 -2,1 -3,1 -2,0 -3,1 -5,1 1,-2 0,-3 0,-4 0,0 0,-1 -1,-1 2,-1 4,-2 6,-3z"/>
     <path fill="#16230F" fill-rule="nonzero" d="M362 516c10,-23 24,-43 43,-60 -23,12 -40,33 -50,57 -10,23 -13,51 -6,75 -1,-25 3,-50 13,-72z"/>
     <path fill="#16230F" fill-rule="nonzero" d="M419 457c-11,10 -20,21 -28,34 -7,13 -12,27 -12,42 6,-14 12,-26 19,-38 7,-13 15,-25 21,-38z"/>
     <path fill="#16230F" fill-rule="nonzero" d="M433 461c-10,8 -18,19 -24,30 -5,12 -9,24 -9,37 6,-11 11,-22 16,-33 6,-11 12,-22 17,-34z"/>
     <path fill="#16230F" fill-rule="nonzero" d="M433 484c-5,9 -8,19 -7,30 5,-9 9,-18 14,-27 4,-9 9,-18 12,-28 -8,7 -14,15 -19,25z"/>
     <path fill="#16230F" fill-rule="nonzero" d="M474 460c-8,7 -14,16 -18,25 -4,10 -7,20 -6,30 5,-9 9,-18 13,-27 4,-9 8,-18 11,-28z"/>
     <path fill="#16230F" fill-rule="nonzero" d="M495 459c-7,6 -12,14 -16,22 -3,9 -5,18 -5,28 6,-8 9,-17 12,-25 4,-8 7,-16 9,-25z"/>
     <path fill="#16230F" fill-rule="nonzero" d="M516 466c2,-4 3,-8 2,-14 -5,3 -7,7 -9,11 -2,4 -3,9 -2,14 4,-3 7,-7 9,-11z"/>
     <path fill="#16230F" fill-rule="nonzero" d="M337 584c-1,-10 -1,-20 -3,-30 -4,10 -5,20 -5,31 1,10 3,21 8,30 1,-11 0,-21 0,-31z"/>
     <path fill="#16230F" fill-rule="nonzero" d="M318 599c-2,5 -2,9 0,13 1,4 3,7 7,10 2,-4 1,-9 0,-13 -1,-3 -3,-7 -7,-10z"/>
     <path fill="#16230F" fill-rule="nonzero" d="M947 580c2,-4 3,-8 1,-12 -4,2 -6,5 -7,8 -2,3 -3,5 -3,10 4,0 7,-3 9,-6z"/>
     <path fill="#16230F" fill-rule="nonzero" d="M719 1168c-10,-1 -19,0 -28,0 -9,0 -18,-1 -28,0 9,5 18,7 28,7 10,0 20,-2 28,-7z"/>
     <path fill="#16230F" fill-rule="nonzero" d="M681 1144c9,6 21,8 32,7 11,-1 22,-6 30,-14 -11,3 -21,5 -31,6 -10,1 -20,1 -31,1z"/>
     <path fill="#16230F" fill-rule="nonzero" d="M745 1122c-9,0 -18,0 -27,1 8,5 18,7 28,7 9,0 19,-3 27,-8 -10,-1 -18,0 -28,0z"/>
     <path fill="#16230F" fill-rule="nonzero" d="M783 1104c11,-3 22,-8 30,-17 -11,4 -21,7 -32,10 -10,3 -21,5 -32,8 11,3 23,2 34,-1z"/>
     <path fill="#16230F" fill-rule="nonzero" d="M794 1080c7,-1 13,-4 17,-9 -7,0 -12,1 -18,2 -6,1 -11,1 -18,3 5,4 12,5 19,4z"/>
     <path fill="#16230F" fill-rule="nonzero" d="M900 933c-6,2 -13,4 -20,8 8,2 15,2 22,0 7,-2 14,-5 19,-11 -8,0 -14,2 -21,3z"/>
     <path fill="#16230F" fill-rule="nonzero" d="M929 902c-7,1 -12,2 -18,3 -6,1 -12,2 -18,3 5,5 12,6 19,5 7,-2 13,-5 17,-11z"/>
     <path fill="#16230F" fill-rule="nonzero" d="M895 882c7,3 14,3 20,2 7,-2 13,-5 17,-11 -7,0 -13,2 -19,3 -6,2 -11,3 -18,6z"/>
     <path fill="#16230F" fill-rule="nonzero" d="M922 847c-6,2 -12,3 -19,6 7,4 14,3 21,1 7,-2 13,-6 17,-13 -7,2 -13,4 -19,6z"/>
     <path fill="#16230F" fill-rule="nonzero" d="M929 828c4,-2 9,-4 12,-9 -6,-1 -10,0 -14,1 -5,1 -9,3 -14,6 5,3 11,3 16,2z"/>
     <path fill="#16230F" fill-rule="nonzero" d="M925 799c6,-1 11,-4 14,-9 -6,-1 -10,0 -15,1 -5,2 -10,3 -15,7 5,2 11,2 16,1z"/>
     <path fill="#16230F" fill-rule="nonzero" d="M936 759c-5,1 -9,3 -13,4 -4,1 -7,2 -12,4 4,4 10,5 15,3 4,-2 9,-5 10,-11z"/>
     <path fill="#16230F" fill-rule="nonzero" d="M935 742c-2,1 -3,1 -5,1 -2,1 -4,1 -6,1 -2,0 -4,0 -7,0 1,3 3,5 6,6 2,1 5,1 8,1 3,-1 6,-2 8,-4 2,-2 3,-4 3,-7 -2,1 -5,2 -7,2z"/>
     <path fill="#16230F" fill-rule="nonzero" d="M928 727c5,-1 9,-3 11,-8 -5,-1 -8,0 -12,1 -4,0 -7,1 -12,4 4,3 9,4 13,3z"/>
     <path fill="#16230F" fill-rule="nonzero" d="M931 712c1,-1 2,-2 4,-5 -2,-3 -5,-3 -7,-3 -2,2 -4,4 -3,7 4,1 5,1 6,1z"/>
     <path fill="#16230F" fill-rule="nonzero" d="M577 1182c-18,-12 -36,-26 -51,-42 -15,-15 -28,-33 -40,-51 6,21 19,41 35,57 15,16 35,29 56,36z"/>
     <path fill="#16230F" fill-rule="nonzero" d="M548 1129c-12,-14 -22,-28 -33,-44 5,18 15,35 27,49 12,14 27,26 44,33 -14,-12 -27,-25 -38,-38z"/>
     <path fill="#16230F" fill-rule="nonzero" d="M570 1119c-6,-6 -12,-12 -20,-17 3,8 9,16 15,22 6,6 12,12 21,16 -4,-8 -10,-15 -16,-21z"/>
     <path fill="#16230F" fill-rule="nonzero" d="M461 1115c4,6 9,11 16,15 -2,-8 -6,-13 -9,-19 -4,-6 -8,-11 -14,-16 1,8 4,14 7,20z"/>
     <path fill="#16230F" fill-rule="nonzero" d="M717 476c1,-5 0,-9 -1,-13 -2,-4 -4,-8 -8,-11 -2,5 -1,9 0,14 2,4 4,8 9,10z"/>
     <path fill="#16230F" fill-rule="nonzero" d="M737 473c1,-6 -1,-11 -3,-16 -3,-5 -5,-9 -10,-13 -1,6 1,11 3,16 2,5 5,9 10,13z"/>
     <path fill="#16230F" fill-rule="nonzero" d="M763 479c-1,-7 -3,-13 -6,-19 -3,-6 -7,-12 -12,-16 0,8 2,14 5,19 3,6 7,11 13,16z"/>
     <path fill="#16230F" fill-rule="nonzero" d="M787 461c-4,-7 -8,-13 -15,-17 2,8 5,14 9,20 3,7 7,13 13,18 0,-8 -3,-15 -7,-21z"/>
     <path fill="#16230F" fill-rule="nonzero" d="M794 449c3,10 8,18 12,27 5,8 10,16 17,24 -1,-10 -5,-19 -10,-28 -5,-9 -11,-17 -19,-23z"/>
     <path fill="#16230F" fill-rule="nonzero" d="M822 450c2,10 6,20 9,29 4,10 9,19 15,27 0,-10 -4,-20 -7,-30 -5,-9 -9,-18 -17,-26z"/>
     <path fill="#16230F" fill-rule="nonzero" d="M875 544c2,-16 -1,-32 -6,-47 -6,-15 -15,-29 -27,-39 7,14 14,28 19,42 6,14 10,28 14,44z"/>
     <path fill="#16230F" fill-rule="nonzero" d="M529 220c3,1 6,1 10,0 0,-4 -1,-7 -2,-9 -1,-3 -1,-4 -3,-6 -1,-2 -2,-3 -4,-5 -2,-1 -4,-3 -8,-5 -3,3 -3,7 -3,10 0,3 1,6 3,9 1,2 4,4 7,6z"/>
     <path fill="#16230F" fill-rule="nonzero" d="M667 103c-4,-1 -8,-1 -12,-2 -8,-2 -17,-5 -26,-6 -9,-2 -20,-1 -28,4 9,1 17,4 25,7 8,4 16,7 25,10 5,1 10,2 15,2 5,0 10,-1 13,-2 4,0 6,0 10,2 3,2 5,6 6,10 3,-4 2,-10 -1,-14 -1,-4 -5,-6 -8,-8 1,-3 0,-7 -2,-10 -4,-4 -8,-7 -13,-8 -4,-1 -8,-2 -11,-3 -2,0 -3,-1 -4,-1l-5 -4c-1,0 -4,-2 -6,-3 -2,-1 -5,-2 -7,-2 -5,-1 -10,0 -15,1 -9,3 -17,11 -18,20 7,-5 14,-8 20,-8 4,0 7,1 10,2 1,0 3,1 4,1 2,1 2,1 4,3l6 3c2,1 5,2 8,3 4,0 9,0 12,0 4,0 7,0 9,2 2,0 3,1 4,3 0,0 -1,-1 -2,-1 -5,-1 -10,-1 -13,-1z"/>
     <path fill="#16230F" fill-rule="nonzero" d="M498 8c1,1 1,1 1,4 0,1 0,5 1,8 0,2 1,5 1,7 -2,-4 -5,-9 -10,-12 5,11 2,21 5,33 3,10 10,19 18,25 -2,3 -2,8 -1,11 1,4 4,7 6,9 2,3 4,4 7,6 4,4 8,7 13,9 3,1 5,2 8,3 -5,2 -10,4 -14,7 -4,4 -8,8 -11,14 -2,5 -3,12 -3,17 0,5 2,10 2,15 1,4 1,9 1,14 3,-4 5,-9 7,-14 1,-5 1,-10 2,-14 2,-9 6,-15 12,-19 6,-5 14,-9 22,-10 5,-1 10,-1 16,-4 2,-1 5,-3 6,-6 2,-2 2,-5 1,-8 0,1 -1,2 -1,3 1,-6 0,-12 -3,-18 -2,-6 -8,-11 -13,-14 -3,-1 -5,-3 -8,-4l-7 -3c-2,-1 -5,-2 -8,-3 -4,-1 -7,-1 -10,1 2,1 3,3 5,4 -1,0 -1,0 -1,0 -5,-3 -11,-5 -15,-7 -6,-3 -11,-7 -15,-12 2,1 3,2 6,3 2,2 5,3 9,4 -1,-3 -3,-6 -4,-9 -1,-3 -3,-6 -4,-8 -1,-1 -1,-3 -1,-6 0,-3 -1,-6 -2,-9 0,-3 -1,-6 -2,-9 -1,-2 -2,-5 -4,-9 -1,-2 -2,-4 -4,-5 -3,-2 -6,-2 -8,-2 -5,2 -7,5 -8,9 4,-1 7,-2 8,-1zm77 88l0 0c3,3 7,6 11,11 -2,2 -5,3 -8,3 -4,0 -8,-1 -13,-1 -3,0 -7,0 -11,0 -2,-3 -4,-7 -6,-10 3,0 5,0 8,-1 1,-1 2,-2 3,-2 5,4 10,8 14,13 -1,-7 -4,-14 -8,-20 0,0 0,0 0,0 3,2 6,4 10,7zm-39 -14l0 0c4,2 9,4 13,7 1,0 2,1 3,2 -2,1 -5,3 -7,5 -3,-3 -6,-6 -10,-9 -2,-2 -4,-3 -6,-5 -2,-1 -4,-2 -5,-3 0,-1 -1,-1 -1,-2 4,2 9,4 13,5z"/>
     <path fill="#16230F" fill-rule="nonzero" d="M794 57c0,1 0,2 0,2 0,0 0,0 2,0 1,0 3,1 7,1 2,-3 3,-5 4,-7 0,-1 -1,-3 -2,-5 -2,-2 -4,-3 -7,-2 -2,0 -5,2 -5,5 2,3 2,5 1,6z"/>
     <path fill="#16230F" fill-rule="nonzero" d="M708 120c-4,5 -7,11 -7,16 7,-9 16,-12 26,-16 5,-2 11,-4 17,-6 -4,3 -9,6 -14,9 -6,4 -12,9 -15,16 8,-2 14,-4 20,-5 7,-2 13,-4 20,-7 6,-3 12,-7 18,-11 3,-2 6,-5 8,-9 1,-3 2,-5 1,-7 0,-1 -1,-2 -1,-2 2,-2 4,-3 6,-5 8,-8 15,-19 16,-30 -7,9 -15,15 -24,20 0,0 0,0 0,1 4,-4 7,-8 10,-13 2,-5 3,-11 1,-16 -3,10 -11,14 -19,19 -7,4 -16,8 -25,12 -8,3 -17,6 -26,11 -9,5 -18,12 -22,22 7,-5 15,-7 23,-10 -5,3 -9,7 -13,11zm67 -17l0 0c-1,0 -3,1 -6,2 3,-2 6,-3 8,-5 0,1 -1,2 -2,3z"/>
     <path fill="#16230F" fill-rule="nonzero" d="M526 235c5,3 12,4 19,3 6,-2 11,-4 16,-5 9,-3 19,-5 29,-6 10,-1 21,-2 32,-2 -10,-6 -21,-9 -32,-10 -11,-1 -23,0 -34,3 -5,2 -10,4 -14,5 -4,1 -8,1 -13,1 -9,-2 -18,-7 -29,-11 7,9 14,18 26,22z"/>
     <path fill="#16230F" fill-rule="nonzero" d="M500 273c4,-2 6,-4 9,-7 2,-2 4,-4 5,-7 2,-2 3,-5 4,-8 1,-3 3,-7 1,-12 -4,1 -7,2 -10,4 -3,2 -6,5 -8,8 -2,3 -3,7 -4,11 0,3 1,7 3,11z"/>
     <path fill="#16230F" fill-rule="nonzero" d="M750 405c-6,4 -12,8 -19,12 -14,7 -29,11 -45,14 16,4 33,2 49,-3 9,-3 16,-7 23,-11 1,0 1,0 2,-1 18,3 36,5 53,7 11,1 20,3 27,8 8,6 14,14 21,22 13,16 23,34 34,52 5,9 11,18 16,27 3,5 5,10 8,14 2,5 5,10 8,14 -2,-5 -3,-10 -4,-15 -2,-6 -3,-11 -5,-16 -4,-10 -8,-20 -12,-30 -9,-19 -19,-38 -33,-56 -7,-9 -14,-17 -25,-24 -5,-3 -11,-6 -17,-7 -5,-1 -11,-1 -17,-1 -16,0 -33,1 -49,2 2,-1 4,-3 7,-4 2,0 5,0 8,0 5,-1 9,-3 13,-4 7,-3 14,-6 21,-8 4,-1 7,-2 11,-3 4,-1 8,-2 12,-4 3,-1 5,-3 7,-5 2,-2 3,-4 4,-6 2,-5 1,-11 -3,-14 1,5 -1,8 -4,10 -1,1 -2,2 -3,2 -2,1 -3,1 -5,1 -3,1 -7,1 -11,2 -2,0 -4,0 -6,1 1,-2 3,-3 4,-4 6,-7 10,-15 12,-24 2,-8 1,-18 -3,-24 1,8 -1,15 -4,22 -3,7 -8,12 -14,17 -11,9 -25,15 -40,23 -7,4 -14,9 -21,14z"/>
     <path fill="#16230F" fill-rule="nonzero" d="M784 243c-5,-3 -10,-4 -13,-7 -3,-3 -7,-7 -12,-12 -3,-2 -6,-5 -10,-6 -3,-1 -8,-1 -11,-1 -2,1 -4,1 -5,2 2,-5 3,-10 3,-15 1,-6 1,-11 2,-15 1,-3 2,-4 3,-7 1,-2 3,-6 3,-10 1,-9 -3,-17 -8,-21 -5,-5 -12,-8 -17,-9 -6,-1 -12,-2 -18,-3 9,8 21,12 26,20 3,4 4,8 3,11 0,1 -1,2 -3,5 -1,2 -3,6 -4,10 -3,14 0,25 -3,32 -2,4 -6,8 -10,11 -3,3 -7,5 -11,6 -2,-5 -7,-9 -11,-11 -6,-3 -11,-5 -17,-6 -6,-1 -11,0 -17,1 -5,1 -11,3 -16,6 6,3 11,5 16,6 5,1 10,2 15,3 5,0 10,1 15,1 4,0 8,1 13,1 2,1 5,2 7,2 2,0 3,-1 5,-1 -1,0 -1,1 -2,1 6,1 12,-2 17,-4 6,-2 11,-4 15,-4 4,1 7,2 10,6 3,3 6,8 12,13 6,5 12,7 17,9 6,1 9,3 13,6 6,7 10,19 19,28 -3,-12 -2,-23 -10,-35 -4,-7 -11,-10 -16,-13z"/>
     <path fill="#16230F" fill-rule="nonzero" d="M818 316c2,1 4,2 7,3 3,-3 4,-5 5,-7 0,-2 0,-5 -1,-6 -1,-2 -2,-4 -4,-5 -2,-1 -5,-1 -8,0 -2,3 -2,5 -2,7 0,2 0,3 0,4 1,2 2,3 3,4z"/>
     <path fill="#16230F" fill-rule="nonzero" d="M730 280c-3,-6 -6,-13 -10,-18 -4,-6 -9,-11 -15,-16 1,8 2,14 4,21 2,6 4,13 6,19 3,6 6,12 9,18 3,6 6,12 11,18 1,-8 1,-15 0,-22 -1,-7 -3,-13 -5,-20z"/>
     <path fill="#16230F" fill-rule="nonzero" d="M740 340c-1,0 -2,0 -3,0 -1,0 -1,1 -2,2 0,2 0,4 1,7 2,3 3,4 4,5 1,0 2,0 3,0 1,0 1,-1 2,-2 0,-2 0,-4 -1,-7 -2,-3 -3,-4 -4,-5z"/>
     <path fill="#16230F" fill-rule="nonzero" d="M749 368c1,0 2,-1 3,-2 0,-2 1,-4 0,-7 -2,-3 -4,-4 -5,-5 -1,0 -2,-1 -3,0 -1,0 -1,1 -2,2 0,1 -1,3 -1,7 2,3 3,4 5,5 1,1 2,1 3,0z"/>
     <path fill="#16230F" fill-rule="nonzero" d="M484 314c1,-5 2,-10 1,-15 -5,2 -9,6 -12,9 -3,4 -6,9 -8,14 -2,4 -3,10 -3,15 1,6 2,11 6,16 2,-5 4,-10 6,-14 2,-4 4,-8 6,-12 1,-4 3,-8 4,-13z"/>
     <path fill="#16230F" fill-rule="nonzero" d="M471 365c-1,-2 -3,-3 -4,-4 -2,-1 -4,-2 -6,-2 -3,0 -5,-1 -9,0 -1,4 0,7 1,9 1,3 3,5 6,6 2,2 5,2 8,2 3,0 6,-1 9,-3 -2,-4 -3,-6 -5,-8z"/>
     <path fill="#16230F" fill-rule="nonzero" d="M461 377c-1,0 -3,0 -7,1 -1,4 -1,6 -1,8 1,2 2,3 3,4 2,1 4,2 5,2 3,-1 5,-1 7,-4 0,-3 0,-5 -1,-7 0,-2 -1,-3 -2,-3 -1,-1 -2,-1 -4,-1z"/>
     <path fill="#16230F" fill-rule="nonzero" d="M754 391c2,-1 3,-2 4,-4 1,-2 2,-5 1,-8 -4,-2 -6,-2 -8,-2 -2,0 -3,0 -4,1 -1,0 -2,1 -3,3 -1,2 -2,4 -3,7 3,3 5,4 7,4 3,1 5,0 6,-1z"/>
     <path fill="#16230F" fill-rule="nonzero" d="M342 316c2,5 3,9 3,14 0,2 0,3 0,4 0,2 0,3 0,5 0,1 0,1 0,2 -4,2 -6,4 -8,6 -1,1 -2,3 -3,4 -1,-1 -2,-2 -2,-4 -1,-1 -1,-4 0,-7 0,-3 1,-6 2,-10 0,-3 0,-8 -3,-11 0,4 -2,6 -4,8 -2,3 -5,5 -7,9 -2,4 -3,8 -3,13 0,5 3,10 6,14 7,6 15,8 22,9 8,1 16,-1 22,-5 -6,-2 -11,-3 -15,-5 1,-2 2,-4 2,-6 5,3 11,5 17,5 -1,1 -1,2 -2,3 -1,3 -2,8 0,12 2,5 6,7 8,8 3,2 5,3 8,4 10,3 19,4 29,5 4,0 9,1 13,1 4,1 10,3 15,0 -5,-1 -8,-4 -12,-7 -3,-1 -6,-3 -8,-4 0,0 0,-1 0,-1 1,-2 1,-4 -1,-8 -4,1 -5,3 -6,5 0,1 0,1 0,2 -2,-1 -3,-1 -5,-2 1,-1 2,-2 2,-4 1,-2 2,-5 3,-9 2,1 5,3 7,5 -4,-9 -14,-13 -18,-20 -5,-6 -6,-14 -4,-21 2,-8 6,-15 10,-23 5,-8 9,-16 14,-23 9,-16 18,-30 31,-42 6,-6 13,-13 19,-19 6,-6 13,-11 22,-13 -9,-2 -19,2 -27,7 -7,5 -15,10 -22,16 -8,5 -15,12 -21,20 -6,7 -11,15 -16,23 -4,8 -9,16 -13,24 -4,8 -8,17 -9,28 -1,8 1,16 5,23 -6,-1 -13,0 -18,5 -1,1 -3,3 -4,4 -5,-5 -8,-10 -11,-15 0,-1 -1,-2 -1,-3 0,-1 0,0 0,-1 1,0 1,-3 1,-5 1,-2 1,-4 1,-6 0,-8 -4,-16 -10,-22 -6,-5 -15,-8 -22,-4 7,2 10,7 13,12zm57 42l0 0c5,3 10,5 14,7 -4,1 -6,4 -8,7 -1,2 -1,4 -1,5 -2,0 -4,-1 -6,-1 1,-1 1,-2 2,-3 1,-4 3,-7 4,-12 -6,0 -9,4 -11,9 -1,1 -1,2 -2,4 0,-1 0,-1 -1,-1 -2,-1 -5,-2 -6,-3 1,-2 2,-4 2,-6 1,-1 1,-2 1,-3 3,-2 8,-4 12,-3zm-49 -6l0 0c-2,2 -3,3 -5,5 0,0 0,1 0,1 -2,-1 -4,-2 -6,-3 1,-1 2,-1 3,-2 2,-2 3,-4 4,-6 0,0 0,1 0,1 2,2 3,3 4,4z"/>
     <path fill="#16230F" fill-rule="nonzero" d="M265 301c0,2 0,3 0,5 2,6 6,8 10,10 3,2 7,4 11,4 7,2 14,1 20,0 6,-2 12,-2 19,-5 -6,-4 -12,-6 -19,-7 -1,-1 -2,-1 -3,-1 1,-1 1,-1 2,-2 0,0 0,-1 1,-1 1,1 3,2 5,3 6,2 12,3 19,2 -5,-5 -9,-9 -13,-12 -3,-4 -6,-8 -10,-12 -2,-2 -4,-4 -6,-6 -3,-2 -5,-4 -10,-6 -2,-1 -5,-1 -7,0 -2,1 -4,2 -5,4 -3,3 -4,6 -4,9 3,-1 6,-3 8,-3 2,-1 3,0 3,1 1,1 3,3 4,5 1,1 1,1 1,1 -1,1 -3,3 -4,5 -1,3 -2,6 -1,9 -2,0 -3,0 -5,-1 0,0 0,0 -1,0 1,-2 1,-4 1,-6 1,-2 1,-5 2,-10 -3,0 -5,2 -7,4 0,-1 0,-1 0,-1 0,1 -1,1 -1,2 0,0 0,1 0,1 0,0 -1,0 -1,0 -1,0 -2,0 -3,0 -1,1 -3,2 -4,3 -1,1 -2,3 -2,5zm31 -5l0 0c1,1 2,2 4,4 -1,0 -1,0 -2,1 0,2 -1,4 0,5 -3,0 -6,0 -8,-1 2,-2 3,-4 4,-7 1,-1 1,-2 2,-3 0,1 0,1 0,1z"/>
     <path fill="#16230F" fill-rule="nonzero" d="M193 257c-1,-3 1,-5 3,-5 1,0 2,1 4,1l6 4 0 0c-1,0 -3,1 -4,1 2,4 5,7 7,10 3,3 6,5 10,6 3,2 7,3 10,3 3,1 5,1 9,2 -2,0 -5,1 -8,4 -2,4 -2,9 0,13 1,1 2,3 3,4 2,1 3,2 5,3 7,2 12,1 15,0 4,-2 8,-3 12,-7 -4,-3 -8,-4 -12,-5 -1,-1 -1,-1 -2,-1 1,-1 2,-2 3,-3 2,-3 3,-6 3,-9 0,0 0,0 0,0 3,4 6,7 11,9 1,-5 1,-10 0,-14 -1,-4 -2,-8 -6,-13 -1,-2 -3,-3 -4,-4 -2,-1 -4,-1 -6,-1 -4,0 -8,1 -11,4 -2,2 -3,4 -2,6 0,1 0,1 0,1 -2,-2 -3,-5 -5,-7 -4,-5 -9,-9 -14,-12 -3,-1 -5,-3 -8,-4 -3,0 -6,-1 -10,-2 -4,0 -9,2 -12,6 -3,4 0,9 3,10zm52 18l0 0c1,-2 1,-4 2,-6 1,-2 2,-2 2,-1 0,1 0,1 1,1 0,1 0,1 0,1 0,0 0,0 1,0 1,1 2,4 4,6 -3,2 -6,4 -7,7 -2,2 -3,4 -3,6 -1,0 -1,0 -1,0 -1,-1 -1,-1 -3,0 -1,0 0,-2 1,-3 1,-2 4,-5 3,-7 -2,0 -3,0 -5,0 0,-2 0,-3 0,-4 0,0 1,0 2,0 -1,-1 -1,-3 -1,-4 1,2 2,3 4,4z"/>
     <path fill="#16230F" fill-rule="nonzero" d="M836 354c1,0 1,0 1,-1 -1,1 -1,1 -1,1z"/>
     <path fill="#16230F" fill-rule="nonzero" d="M837 353c0,0 0,0 0,0 0,0 0,0 1,0 1,0 3,1 5,3 2,0 4,-1 5,-2 5,1 11,0 16,-3 6,-4 12,-11 14,-18 0,-1 0,-1 0,-2 0,0 1,1 1,1 1,1 3,2 5,2 -5,5 -11,11 -16,16 -6,6 -11,12 -19,17 9,1 19,-3 27,-8 8,-5 15,-10 22,-16 6,-6 14,-12 19,-22 5,-9 5,-19 4,-28 -5,7 -8,14 -13,20 0,-1 0,-2 0,-2 0,-2 -1,-4 -2,-6 -2,-4 -5,-6 -8,-8 -3,-2 -7,-4 -11,-4 -1,-1 -2,-1 -4,-1 1,-3 1,-7 2,-10 4,3 9,6 13,8 3,2 6,4 9,5 1,1 3,2 4,3 0,1 1,1 1,2 0,0 1,1 1,1 0,0 0,1 -1,1 1,0 2,0 2,-1 0,0 0,-1 0,-1 0,-1 0,-3 0,-4 0,-2 -2,-4 -3,-5 -3,-4 -6,-6 -9,-8 -5,-2 -11,-4 -17,-5 2,-7 4,-15 7,-22 2,-5 5,-10 9,-14 5,-5 10,-8 17,-9 -7,-3 -15,-1 -21,2 -7,4 -12,9 -16,16 -8,12 -12,26 -13,40 -2,14 0,27 -2,39 -1,5 -3,10 -7,15 -2,3 -6,5 -10,7 1,-1 1,-1 1,-1 0,-3 -1,-6 -3,-8 -2,-3 -6,-3 -8,-2 -3,0 -5,3 -5,6 2,3 3,4 3,6zm57 -50l0 0c3,2 5,4 8,6 1,1 2,2 3,3 0,1 1,1 1,2 1,0 1,1 1,1 -5,5 -12,10 -19,16 0,0 0,0 0,0 -1,-2 -3,-4 -5,-6 -1,0 -2,-1 -3,-1 1,-4 1,-7 2,-10 1,0 2,1 3,2 4,1 7,3 12,6 0,-6 -3,-11 -8,-13 -2,-1 -5,-2 -7,-2 0,-4 0,-7 1,-10 0,0 1,1 2,1 3,2 6,3 9,5z"/>
     <path fill="#16230F" fill-rule="nonzero" d="M923 248c-1,-1 -3,-1 -4,-2 -1,-1 -3,-2 -4,-4 -4,3 -3,10 -2,13 1,2 1,3 2,5 1,2 1,2 2,3 1,3 2,5 4,7 1,3 3,6 5,10 4,-2 6,-6 7,-11 1,-4 0,-8 -2,-12 -1,-2 -3,-4 -4,-6 -1,-1 -2,-2 -4,-3z"/>
     <path fill="#16230F" fill-rule="nonzero" d="M981 211c0,1 0,3 0,4 1,2 1,3 2,5 1,0 1,0 1,0 -1,0 -1,1 -2,1 3,4 7,6 10,7 4,1 8,1 12,1 3,-1 8,-2 12,-8 1,-1 2,-3 2,-5 0,-1 -1,-3 -1,-4 -1,-3 -5,-5 -7,-3 1,2 0,3 -1,4 0,1 -1,1 -1,1 0,0 -1,-1 -1,-1 -1,0 -2,0 -5,0 0,-2 0,-5 -1,-7 -1,-2 -3,-3 -5,-5 3,-2 6,-4 6,-5 1,-1 1,-2 2,-2 1,-1 3,0 2,2 -1,2 -3,5 -4,8 5,0 9,-1 12,-2 4,3 9,3 12,3 5,0 8,-2 11,-3l8 -3c2,0 3,-1 4,-1 2,0 4,0 6,1 1,-2 0,-5 -2,-7 -2,-2 -4,-4 -6,-5 -1,0 -2,0 -3,0 1,-3 2,-6 1,-8 0,-4 -2,-7 -5,-7 0,3 -1,4 -2,6 -1,1 -3,2 -4,2 -2,1 -6,2 -10,4 -5,1 -9,4 -13,7 0,0 0,1 -1,1 0,-1 0,-2 -1,-4 -2,-3 -6,-5 -10,-4 -4,0 -7,2 -9,3 -1,1 -3,2 -5,4 -4,3 -7,6 -10,10 -3,4 -5,11 -1,16 2,-3 5,-5 7,-6zm11 -6l0 0c0,1 1,3 2,5 1,1 2,3 3,4 -1,1 -3,1 -5,2 -1,0 -2,1 -3,1 0,-1 0,-2 0,-4 0,-2 -1,-3 -2,-5 2,-1 4,-2 5,-3z"/>
     <path fill="#16230F" fill-rule="nonzero" d="M307 902c-2,-10 -6,-20 -9,-29 -7,-18 -11,-36 -13,-55 -3,-19 -3,-39 -5,-59 -2,12 -5,23 -6,34 -3,-1 -8,-1 -11,1 -6,2 -11,8 -11,15 -1,4 0,8 2,11 -11,10 -18,24 -21,38 -5,18 -6,36 -5,54 1,17 3,35 7,52 5,17 11,34 19,50 0,-5 -1,-10 -2,-14 1,0 1,1 2,1 3,2 7,3 11,3 4,0 7,-1 11,-3 2,-1 3,-3 4,-5 1,4 1,9 -1,14 -1,3 -3,7 -6,9 -3,3 -7,5 -12,4 4,3 10,2 14,0 5,-2 9,-6 11,-10 5,-9 6,-20 5,-30 -1,-5 -3,-10 -4,-15 0,-1 0,-1 1,-2 -1,0 -1,0 -2,0 -1,-3 -2,-6 -3,-10 -3,-8 -5,-16 -7,-25 -4,-16 -6,-34 -8,-52l-3 -26c-1,-8 -1,-15 2,-22 2,1 3,1 5,1 -1,-5 -3,-9 -4,-13 -1,-4 -1,-6 -1,-9 0,-1 1,-4 3,-6 1,-2 2,-3 4,-5 -1,7 -1,13 -2,20 0,10 1,20 3,30 2,10 5,20 8,29 4,10 7,19 10,28 3,9 5,18 8,28 5,19 13,39 26,54 -8,-19 -11,-37 -14,-57 -2,-9 -4,-19 -6,-29zm-46 33l0 0c1,4 2,9 3,13 -2,1 -3,2 -5,3 -4,2 -8,3 -12,4 -1,-7 -2,-13 -2,-20 1,1 2,1 3,1 2,1 5,1 8,0 2,0 3,-1 4,-2 0,1 1,1 1,1zm-2 -8l0 0c-2,1 -3,1 -5,2 -3,1 -6,1 -9,2 -1,-5 -1,-11 -1,-16 3,1 6,1 9,0 1,-1 3,-1 4,-2 1,5 1,9 2,14zm14 68l0 0c-3,1 -6,1 -8,1 -3,1 -6,0 -9,0 -1,-1 -3,-1 -4,-2 -1,-6 -2,-12 -3,-17 6,3 13,4 19,3 3,0 5,-1 8,-2 1,2 2,5 3,8 0,2 1,4 1,7 -2,1 -5,2 -7,2zm-6 -22l0 0c-6,1 -12,1 -18,1 -1,-4 -1,-8 -2,-12 0,-1 0,-2 0,-3 2,0 3,1 4,1 4,0 7,0 11,-2 2,-1 3,-2 5,-3 1,2 2,4 2,7 2,3 3,6 4,9 -2,1 -4,1 -6,2zm-6 -134l0 0c-2,4 -3,9 -3,14 -1,9 -2,18 -2,27 0,8 0,17 0,26 -2,0 -4,1 -5,1 -3,1 -5,2 -8,3 0,-17 0,-33 2,-50 1,-13 4,-25 11,-37 1,1 1,2 2,2 2,3 5,4 8,6 -2,2 -4,5 -5,8z"/>
     <path fill="#16230F" fill-rule="nonzero" d="M388 1065c-3,-5 -5,-12 -9,-18 -4,-7 -8,-13 -13,-18 -10,-10 -21,-18 -30,-29 3,14 13,26 20,37 4,5 8,11 10,16 2,6 5,13 9,20 4,7 10,12 15,17 5,4 10,9 15,13 11,9 22,18 34,25 -7,-12 -16,-23 -25,-33 -9,-11 -20,-21 -26,-30z"/>
     <path fill="#16230F" fill-rule="nonzero" d="M614 1212c-8,1 -15,-2 -23,-5 -8,-3 -17,-6 -25,-9 -8,-3 -16,-5 -23,-9 -7,-3 -14,-9 -21,-13 -7,-5 -15,-10 -22,-15 -15,-9 -30,-18 -46,-26 12,13 25,25 39,36 6,6 13,11 20,16 7,6 14,11 23,16 9,4 17,7 26,9 8,2 16,5 25,7 9,2 19,4 29,1 4,-2 9,-4 12,-8 3,-3 5,-8 5,-13 -3,9 -12,13 -19,13z"/>
     <path fill="#16230F" fill-rule="nonzero" d="M689 1190l-22 10c-8,3 -15,6 -24,5 3,4 8,5 13,6 4,1 9,1 14,1 9,-2 17,-4 26,-8 8,-3 15,-7 22,-13 7,-5 14,-12 18,-20 -8,3 -16,6 -24,9l-23 10z"/>
     <path fill="#16230F" fill-rule="nonzero" d="M882 1025c-4,5 -7,11 -10,16 -3,5 -6,9 -9,14 -2,2 -3,3 -5,5 -1,-1 -2,-2 -3,-2 -1,-1 -1,-1 -1,-1 0,0 0,0 1,1 0,1 1,2 2,3 -1,2 -3,4 -5,6l-25 24c-8,9 -16,17 -24,25 -17,16 -34,31 -52,47 21,-10 41,-23 60,-38 19,-14 35,-31 52,-47 4,-5 8,-9 12,-14 4,-6 7,-11 9,-16 3,-5 6,-10 9,-15 3,-4 6,-9 10,-13 7,-10 13,-21 17,-32 4,-11 7,-23 10,-34 -11,21 -21,42 -37,58 -3,4 -8,9 -11,13z"/>
     <path fill="#16230F" fill-rule="nonzero" d="M970 783l-8 39c-3,13 -6,26 -9,39 -3,13 -6,26 -8,39 -3,13 -6,27 -7,40 7,-11 13,-24 18,-36 5,-13 9,-26 12,-39 4,-14 6,-27 6,-41 1,-14 0,-28 -4,-41z"/>
     <path fill="#16230F" fill-rule="nonzero" d="M621 705c3,-2 5,-4 6,-6 1,-2 2,-4 2,-6 0,-2 -1,-5 -2,-7 -1,-2 -2,-4 -5,-6 -4,2 -5,4 -7,6 -1,2 -2,4 -2,6 0,2 1,5 2,7 1,2 3,4 6,6z"/>
     <path fill="#16230F" fill-rule="nonzero" d="M624 927c3,-16 5,-33 7,-50 1,-16 2,-33 2,-49 -1,-17 -1,-34 -3,-50 -2,-17 -5,-33 -10,-49 -2,16 -2,33 -2,49 -1,17 -1,33 -1,50 0,16 0,33 1,49 1,17 3,34 6,50z"/>
     <path fill="#16230F" fill-rule="nonzero" d="M642 1008c-2,-20 -6,-40 -12,-58l0 58c0,19 -1,39 -2,58 -1,19 -2,39 -1,59 0,19 3,39 9,58 0,-20 1,-39 3,-58 1,-19 3,-39 4,-58 1,-20 1,-40 -1,-59z"/>
     <path fill="#16230F" fill-rule="nonzero" d="M1234 651c-1,-2 -3,-4 -5,-5 -1,0 -1,0 -2,0 1,0 1,-1 1,-1 0,-2 -1,-4 -1,-6 -1,-1 -2,-2 -2,-2 0,0 0,1 0,2 0,0 0,0 0,0 2,-7 -1,-16 -7,-18 0,6 -2,10 -4,13 -1,1 -1,2 -2,4 0,0 0,0 0,0 -2,-1 -6,-2 -8,-2 -5,1 -8,2 -12,3 -3,1 -6,3 -9,5 -1,1 -2,2 -2,2 0,-1 0,-2 0,-4 -1,-2 -2,-5 -4,-7 -3,-2 -5,-3 -8,-4 -3,0 -6,0 -9,1 -5,2 -8,5 -11,8 -1,1 -2,3 -2,4 -5,-7 -14,-9 -21,-8 -8,1 -14,5 -19,9 -11,7 -19,15 -32,16 -1,0 -1,-1 -1,-1 2,-3 1,-8 -1,-12 -2,-3 -5,-6 -8,-9 -5,-6 -12,-11 -18,-16 -13,-10 -26,-17 -38,-26 -12,-9 -22,-21 -36,-30 -7,-5 -15,-9 -23,-10 -8,-1 -17,0 -24,4 8,-1 15,0 22,3 4,2 8,5 11,7 -1,5 -2,9 -3,14 -1,2 -1,5 -2,7 0,0 0,0 0,0 -3,-1 -7,-2 -11,-2 4,2 7,4 10,6 0,0 -1,1 -2,1 0,0 1,1 2,1 1,1 2,0 3,0 0,0 0,0 0,0 10,8 18,18 27,27 12,14 25,26 37,39l10 9c4,4 7,7 11,10 4,3 8,6 15,8 6,1 13,0 18,-5 3,-3 4,-6 5,-10 0,-1 0,-3 0,-4 11,4 23,6 35,5 3,0 6,-1 10,-1 3,-1 6,-2 10,-3 5,-2 11,-6 14,-12 1,4 4,8 7,11 5,3 10,5 16,5 3,0 6,-1 9,-2 3,-2 6,-4 8,-8 0,-1 1,-4 1,-6 -1,-2 -2,-4 -3,-5 0,0 0,0 0,0 0,0 1,0 1,0 2,0 3,-1 4,-1 3,1 5,2 8,2 3,1 6,1 9,1 3,0 5,0 9,-1 1,0 2,-1 3,-1 0,1 0,2 0,2 1,1 2,2 3,2 1,1 3,2 6,4 3,0 5,-3 6,-5 1,-3 0,-6 -1,-8zm-217 -12l0 0c-4,-3 -7,-6 -11,-9 1,0 2,-1 3,-1 2,-1 4,-3 5,-5 0,-2 0,-3 0,-5 3,2 6,3 9,5 -1,3 -2,6 -3,8 -1,3 -2,5 -3,7zm-8 -23l0 0c0,0 -1,0 -1,1 0,1 -1,2 -1,4 -1,1 -1,2 -2,4 0,0 -1,1 -1,2 -4,-3 -7,-6 -11,-9 1,0 1,-1 2,-1 2,-2 3,-4 4,-7 0,0 0,-1 0,-2 0,1 0,1 0,1 3,2 7,5 10,7zm-49 -21l0 0c2,-3 3,-6 3,-9 1,-4 1,-8 -1,-12 2,0 3,1 4,2 3,3 6,7 9,10 -1,4 -1,7 -2,10 -1,2 -1,3 -1,5 -1,0 -2,-1 -3,-2 -3,-1 -6,-3 -9,-4zm17 10l0 0c1,-2 3,-5 3,-7 1,-2 1,-4 0,-7 4,4 8,8 12,12 0,2 -1,4 -1,5 -1,2 -1,4 -2,7 -4,-3 -8,-7 -12,-10zm89 72l0 0c-2,1 -5,1 -7,0 -3,0 -6,-3 -9,-5l-14 -15c1,0 2,-1 3,-1 2,-2 4,-5 5,-8 0,-2 0,-3 0,-5 8,5 15,10 19,16 3,4 4,7 5,11 0,3 -1,5 -2,7zm-22 -34l0 0c0,-2 0,-3 0,-4 -1,-3 -3,-6 -6,-7 0,3 0,5 0,7 -1,3 -1,5 -2,7 0,2 -1,4 -2,6 0,1 -1,1 -1,2l-2 -1c-3,-3 -7,-7 -10,-10 0,0 0,0 0,-1 3,-1 5,-4 6,-6 1,-3 2,-6 1,-9 4,2 8,4 12,6 7,4 14,7 20,12 4,2 7,4 9,6 3,2 5,5 5,9 -2,-2 -3,-4 -5,-6 -7,-6 -16,-10 -25,-11zm68 22l0 0c-11,3 -22,4 -34,5 0,-1 0,-2 0,-3 -1,-2 -2,-4 -3,-6 6,3 13,3 19,1 7,-1 13,-4 19,-7 0,0 1,0 2,-1 -2,3 -2,6 -2,8 1,1 1,1 1,2 -1,0 -1,1 -2,1zm21 -9l0 0c-1,1 -3,2 -5,3 -2,1 -4,2 -7,3 0,-1 0,-2 0,-2 -1,-2 -2,-4 -5,-6 4,-2 9,-4 12,-4 2,0 3,1 4,2 2,0 2,1 2,1 0,1 0,2 -1,3zm46 3l0 0c0,1 0,2 -1,2 0,0 0,-1 -1,0 -1,0 -3,0 -6,0 -4,0 -7,0 -11,0 -3,-1 -7,-1 -11,-2 0,-3 1,-5 0,-8 3,0 5,-1 7,-1l9 -3c1,0 2,-1 3,-1 0,0 1,0 2,0 1,0 3,0 4,0 1,1 3,1 4,3 -1,2 -2,3 -3,5 1,1 2,1 3,1 2,1 2,3 1,4zm34 -15l0 0c0,0 0,0 0,0 0,0 1,1 0,1 0,0 0,-1 0,-1z"/>
     <path fill="#16230F" fill-rule="nonzero" d="M1169 973c-1,4 -2,6 -3,7 -1,2 -2,3 -3,3 0,1 0,2 -1,4 0,0 -1,1 -1,2 -2,-1 -3,-2 -4,-3 -2,0 -2,0 -3,-1 -1,0 -3,-1 -5,-1 -7,-1 -14,-2 -21,0 0,0 0,0 1,0 -2,0 -3,-1 -5,-2 0,-2 0,-4 0,-6 0,0 1,0 2,0 1,-1 2,0 5,-3 2,-2 2,-5 2,-6 0,-2 0,-3 -1,-4 -1,-2 -2,-4 -4,-6 -3,-3 -6,-4 -9,-4 -4,-1 -6,-1 -9,-1 -2,0 -5,1 -8,2 -3,1 -7,3 -10,5 -1,-1 -1,-2 -2,-2 -3,-4 -7,-6 -11,-8 -4,-1 -9,-2 -13,-1 -5,1 -8,3 -11,5 -5,3 -9,7 -14,10 0,0 0,0 -1,0 0,0 0,0 0,0 -2,2 -4,4 -6,5 -1,0 -2,0 -3,0 0,1 0,2 -1,3 -2,2 -4,4 -6,5 2,0 5,-1 7,-1 0,0 0,1 1,1 1,2 3,4 7,5 1,-4 0,-6 -1,-8 0,-1 0,-1 0,-1 2,0 3,-1 4,-1 0,0 1,1 1,1 2,3 4,5 8,6 1,-4 0,-7 -1,-10 2,-1 4,-2 7,-3 0,1 0,1 0,1 1,2 3,3 7,5 2,-4 1,-6 0,-8 4,-2 7,-2 10,0 1,1 3,2 4,3 0,1 0,1 1,1 -1,1 -2,1 -4,2l-8 4c-5,3 -11,5 -17,6 -10,3 -21,4 -32,1 1,-2 2,-3 2,-5 -2,1 -3,3 -5,4 0,0 0,0 0,0 0,0 0,0 0,0 -3,2 -6,4 -9,5 -4,2 -8,1 -10,-2 -6,-5 -6,-15 -7,-27 0,-3 0,-7 -1,-10 3,1 7,2 10,2 5,0 11,-2 14,-5 0,0 0,1 0,2 -2,5 -3,10 -5,16 0,2 -1,5 0,8 1,3 4,6 7,5 -3,0 -5,-3 -5,-5 0,-2 1,-5 2,-7 3,-4 6,-9 8,-14 4,-10 8,-20 11,-31 6,-21 8,-44 7,-66 -2,-22 -7,-43 -15,-64 -4,-10 -10,-20 -18,-28 -6,-6 -14,-10 -21,-12 -1,0 -1,0 -1,0 0,0 0,0 0,0 -3,0 -6,0 -9,0 2,-10 2,-20 2,-30 -1,-16 -3,-32 -6,-48 -4,-16 -9,-32 -15,-47 -6,-15 -13,-30 -21,-44 2,17 6,32 9,48l11 46c4,15 7,31 10,46l7 48c2,-6 3,-13 3,-19 3,0 6,1 9,3 -1,4 -2,7 -3,10 -1,4 -3,8 -5,12 0,0 0,0 -1,0 1,0 1,0 1,1 0,0 0,0 0,1 0,0 0,-1 1,-1 2,3 4,6 5,9 0,4 0,8 0,12 -1,8 -3,18 -3,27 0,8 0,17 1,27 1,9 2,18 5,27 1,-3 2,-5 2,-7 3,3 7,5 11,6 4,1 9,1 13,-1 4,-1 8,-3 12,-6 0,0 0,-1 0,-1 1,6 1,12 0,17 0,4 0,7 -1,10 0,0 0,0 -1,1 -3,1 -8,3 -12,3 -7,1 -15,1 -23,1 -1,-3 -1,-6 -2,-10 -4,11 -6,23 -8,35 -1,11 -1,23 0,35 0,5 0,11 2,18 2,6 6,14 13,17 3,2 7,3 11,3 4,-1 8,-2 10,-4 3,-3 6,-6 7,-10 9,9 23,12 36,10 7,0 13,-2 20,-4 3,-2 6,-3 9,-4 1,-1 3,-1 5,-3 1,0 1,0 2,-1 1,4 3,7 5,10 4,4 8,6 15,7 2,0 4,0 6,-1 2,-1 4,-2 5,-4 0,0 0,0 0,0 2,2 3,3 5,5 5,5 13,8 21,9 1,0 2,0 3,0 1,0 1,0 3,0 0,0 0,0 0,0 0,1 0,2 0,2 0,1 0,1 1,2 1,1 2,3 3,6 4,2 7,0 9,-3 2,-3 2,-6 1,-10 0,-2 -2,-4 -3,-5 1,1 3,1 4,1 4,-1 7,-3 10,-7 2,-3 2,-8 1,-11 -1,-4 -5,-7 -9,-7zm-171 -34l0 0c-3,0 -7,0 -10,0 -1,-6 -1,-12 -1,-17 -1,-1 -1,-2 -1,-3 2,2 5,3 7,5 3,1 7,3 12,3 3,1 8,0 11,-3 -1,5 -2,10 -3,14 -6,1 -10,1 -15,1zm-20 -167l0 0c4,-2 7,-6 8,-10 1,-4 1,-8 0,-11 5,3 9,7 12,12 6,8 10,17 13,27 4,15 7,30 9,45 -4,-1 -8,-1 -11,-2 -6,0 -10,-1 -17,-1 4,5 10,8 16,9 4,1 8,0 12,-1 0,2 0,4 1,6 -5,1 -9,1 -14,2 -5,0 -10,-1 -17,-2 2,-9 2,-17 3,-26 0,-9 0,-18 -1,-27 -1,-5 -2,-11 -6,-15 -2,-3 -5,-5 -8,-6zm29 93l0 0c-7,2 -13,2 -21,1 2,-6 3,-12 4,-18 4,5 11,8 17,7 4,0 8,-1 11,-3 1,0 2,-1 3,-2 0,1 0,1 0,1 0,3 0,5 0,7 -4,3 -9,6 -14,7zm-14 38l0 0c5,1 10,1 15,1 4,-1 8,-2 12,-4 -1,4 -1,9 -2,13 0,1 0,3 -1,4 -1,0 -2,1 -3,1 -3,2 -6,2 -9,2 -5,-1 -12,-3 -19,-3 0,-6 -1,-12 -2,-18 3,2 6,3 9,4zm128 64l0 0c0,0 -1,0 -1,1 0,-1 1,-2 1,-2 2,-1 0,0 0,1zm-8 12l0 0c-1,1 -2,2 -3,2 -1,0 1,-1 0,-1 -2,0 -6,0 -9,-1 -3,-1 -6,-2 -9,-3 0,-1 1,-2 1,-2 2,-4 2,-8 1,-10 3,1 6,1 9,2l13 2c1,0 3,1 3,1 0,0 0,0 0,0 -1,0 -1,1 -1,1 -2,0 -4,0 -4,1 -1,0 -1,0 -1,0 0,0 0,0 0,0 0,0 0,0 0,1 0,0 0,0 0,0 1,1 1,2 2,3 0,0 0,1 0,1 0,0 0,0 0,0 0,0 -1,0 -1,0 0,0 0,1 0,1 0,0 -1,1 -1,2zm37 20l0 0c0,0 0,0 0,0 0,0 0,0 0,0 0,0 0,0 0,0z"/>
     <path fill="#16230F" fill-rule="nonzero" d="M656 577c3,-1 6,-2 8,-4 3,-1 5,-4 5,-7 -3,1 -5,1 -7,0 -2,0 -4,-1 -6,-2l-12 -3 -12 -3c-2,0 -5,-1 -8,-2 0,-4 0,-8 -1,-12 -1,-19 -2,-37 -4,-56 -1,-5 -1,-10 -2,-14 0,-5 -1,-9 -1,-14 0,-6 3,-13 8,-18 16,-3 31,-6 48,-9 -22,-3 -43,-2 -64,-1 -21,0 -42,0 -62,-3 -10,-1 -20,-4 -30,-7 -10,-3 -20,-6 -29,-9 -5,-2 -9,-5 -13,-8 -4,-3 -8,-6 -13,-9 -10,-6 -21,-7 -27,-16 1,5 6,9 10,13 5,3 9,5 13,9 3,3 7,7 11,11 3,4 8,8 13,10 3,2 5,3 7,4 -12,-1 -24,-1 -36,-2 -11,0 -23,0 -35,2 -12,2 -24,5 -35,12 -11,7 -19,17 -25,27 -6,10 -11,20 -15,31 14,-18 27,-37 46,-47 19,-10 41,-10 64,-9 23,0 46,1 69,0 3,0 5,0 8,0 5,2 10,3 15,3 16,3 32,3 48,2 -10,1 -19,6 -26,13 -4,3 -7,7 -11,9 -2,1 -4,2 -5,3l-7 4c-9,5 -19,12 -24,23 -3,5 -4,12 -4,17 0,6 1,11 3,16 3,-10 5,-20 11,-26 5,-7 13,-12 22,-17 2,-1 4,-2 6,-4 3,-1 5,-3 7,-4 5,-4 8,-9 11,-13 5,-7 11,-13 18,-20 0,1 0,2 0,3 1,1 2,1 4,2 2,0 4,1 7,1 2,-3 3,-5 3,-8 0,0 0,-1 0,-1 1,0 1,0 2,0 3,-1 7,-1 10,-2 -5,4 -9,11 -11,17 -1,11 -1,20 -1,29 -1,19 0,38 1,57 0,1 0,2 0,3 -6,7 -12,12 -19,15 -7,3 -14,5 -21,4 -7,0 -15,-3 -23,-6 -7,-3 -15,-6 -19,-14 -2,4 0,10 3,14 3,4 6,8 10,11 8,5 17,10 28,11 11,1 21,-3 29,-10 7,-6 11,-14 12,-22 1,17 2,34 4,51 2,18 5,37 9,56 2,-19 3,-38 3,-57 1,-12 0,-23 0,-35 1,1 2,2 2,3 4,3 9,6 14,7 6,2 11,2 16,1z"/>
     <path fill="#16230F" fill-rule="nonzero" d="M704 531c-1,7 -3,14 -7,19 -4,6 -10,10 -18,12 8,2 17,-1 23,-7 7,-5 11,-13 14,-21 1,-4 2,-8 3,-11 1,-4 2,-8 2,-13 0,-4 -1,-11 -4,-15 -3,-5 -7,-7 -10,-10 -12,-9 -25,-17 -38,-26 -13,-8 -28,-15 -43,-17 13,8 24,18 36,27 11,10 23,20 36,29 3,2 5,4 6,6 2,1 2,3 2,6 1,3 0,7 0,10 -1,4 -1,8 -2,11z"/>
     <path fill="#16230F" fill-rule="nonzero" d="M343 698c0,-3 0,-6 0,-9 0,-1 0,-3 0,-4 0,-2 -2,-4 -3,-4 1,1 1,2 0,4 0,1 -1,2 -1,3 -1,3 -3,6 -4,9 -2,5 -4,10 -7,13 -5,4 -12,-2 -15,-10 -2,-4 -2,-9 -2,-15 -1,-6 -1,-11 -1,-16 1,-11 3,-21 13,-29 -6,0 -12,4 -16,9 -5,5 -7,12 -9,18 -2,6 -2,12 -2,18 0,6 0,13 2,20 3,7 7,14 15,17 4,2 8,3 13,2 4,0 9,-3 11,-6 5,-7 5,-14 6,-20z"/>
     <path fill="#16230F" fill-rule="nonzero" d="M333 663c1,2 3,3 6,6 3,-2 5,-4 6,-7 1,-2 1,-5 0,-7 -1,-3 -2,-5 -4,-6 -2,-2 -5,-3 -9,-2 -1,3 -2,6 -2,8 0,1 0,3 0,4 1,2 1,3 3,4z"/>
     <path fill="#16230F" fill-rule="nonzero" d="M419 831c2,4 5,7 9,9 7,4 13,3 17,5 3,1 5,2 8,3 3,1 7,2 10,0 -7,0 -9,-6 -14,-10 -6,-4 -12,-6 -15,-8 -1,-2 -2,-3 -2,-4 -1,-2 -1,-4 -1,-7 0,-2 0,-5 0,-8l1 -8c0,-12 0,-23 5,-30 4,-7 16,-10 28,-13 -6,-2 -12,-3 -18,-3 -7,1 -14,3 -19,8 -6,6 -8,13 -10,19 -1,6 -1,12 -2,18 0,6 0,12 0,18 1,4 1,7 3,11z"/>
     <path fill="#16230F" fill-rule="nonzero" d="M514 844l-11 3c-8,2 -15,4 -22,7 7,1 15,1 23,1 4,0 7,0 11,-1 5,0 10,-1 14,-4 15,-10 22,-29 21,-46 -1,-9 -3,-18 -8,-25 -5,-7 -12,-13 -18,-18 -4,-2 -7,-4 -12,-6 -4,-1 -8,-2 -12,-2 -9,0 -16,2 -24,5 8,0 16,1 23,3 7,1 12,5 17,10 5,5 10,10 13,16 3,5 5,11 5,18 1,13 -3,27 -12,35 -3,2 -5,3 -8,4z"/>
     <path fill="#16230F" fill-rule="nonzero" d="M455 1046c-1,-11 -6,-18 -10,-26 -5,-7 -11,-15 -20,-20 -8,-5 -18,-7 -27,-7 -9,0 -18,1 -26,4 -5,1 -9,3 -12,7 -3,4 -5,8 -4,13 1,-5 4,-8 7,-10 3,-2 7,-3 10,-3 8,-1 17,0 24,1 8,1 15,3 20,7 6,4 10,10 14,16 5,7 9,14 10,20 0,3 0,6 0,9 -1,3 -2,5 -5,7 -5,4 -13,6 -21,7 -7,1 -16,0 -22,-5 2,3 5,7 9,9 4,2 9,3 13,3 9,1 18,1 28,-4 4,-2 9,-7 11,-12 2,-6 2,-11 1,-16z"/>
     <path fill="#16230F" fill-rule="nonzero" d="M738 752c3,-7 9,-12 17,-17 -9,-2 -20,2 -27,9 -7,8 -10,18 -11,27 -1,4 -1,9 -1,14 0,5 2,10 4,14 4,9 10,17 19,20 -4,-8 -7,-16 -8,-23 0,-4 0,-8 0,-11 0,-4 1,-8 1,-12 1,-8 3,-15 6,-21z"/>
     <path fill="#16230F" fill-rule="nonzero" d="M830 831c3,-4 5,-9 7,-13 2,-4 4,-9 6,-14 2,-11 0,-23 -4,-32 -5,-9 -10,-17 -18,-24 -7,-7 -16,-12 -25,-15 -10,-2 -20,-2 -29,2 19,-1 35,8 46,21 5,7 9,14 12,22 3,8 4,15 3,22 -2,7 -7,16 -10,23 -5,7 -10,13 -16,14 -3,0 -8,0 -13,0 -4,0 -9,0 -13,-1 -9,0 -18,-2 -26,-6 6,7 15,11 25,14 4,1 9,2 13,3 5,1 9,2 15,2 6,0 12,-3 16,-6 5,-4 8,-8 11,-12z"/>
     <path fill="#16230F" fill-rule="nonzero" d="M921 681c-3,-2 -5,-5 -6,-8 -3,-5 -5,-12 -6,-20 -1,-7 -1,-14 0,-21 1,-6 4,-13 11,-18 -5,-1 -9,1 -13,3 -4,3 -8,7 -10,11 -4,9 -4,19 -3,28 1,8 4,18 11,25 4,4 8,6 13,7 3,0 5,0 8,-1 1,0 2,-1 3,-2 1,-1 1,-3 0,-4 0,1 -1,2 -1,2 -1,0 -2,0 -3,0 -1,0 -3,-1 -4,-2z"/>
     <path fill="#16230F" fill-rule="nonzero" d="M926 631c0,4 0,8 1,11 0,4 1,7 3,11 2,3 4,6 8,9 2,-4 3,-7 4,-11 1,-4 1,-8 0,-11 -1,-4 -2,-7 -4,-11 0,-2 -1,-3 -3,-6 -1,-1 -4,-3 -6,-1 -1,0 -2,1 -2,2 0,1 1,2 1,2 0,-1 1,-1 1,-1 1,0 1,0 1,1 -1,0 -2,0 -2,1 -1,0 -1,3 -2,4z"/>
     <path fill="#16230F" fill-rule="nonzero" d="M848 1023c3,-3 7,-7 11,-11 4,-5 8,-9 12,-13 3,-4 7,-8 11,-11 3,-3 7,-5 12,-6 5,0 11,1 16,3 -3,-5 -8,-9 -15,-10 -7,-2 -14,-1 -20,2 -6,3 -11,8 -15,12 -4,4 -8,8 -12,12 -4,4 -8,8 -12,13 -4,6 -7,13 -7,20 0,7 2,13 5,19 2,3 4,5 7,7 1,1 3,2 4,2 2,1 4,0 5,-1 -2,1 -3,0 -4,-1 -1,-1 -2,-2 -2,-3 -1,-2 -2,-5 -3,-7 -1,-5 -1,-10 0,-15 1,-4 3,-8 7,-12z"/>
     <path fill="#16230F" fill-rule="nonzero" d="M203 596c17,-1 34,-3 51,-6 15,-3 31,-7 46,-11 -2,5 -3,10 -5,14l-6 15c-2,4 -4,10 -4,16 -3,21 -5,41 -6,62 0,10 -1,20 -1,31 0,5 0,10 1,16 0,5 3,11 7,14 -3,-5 -3,-10 -3,-15 0,-4 1,-9 3,-14 2,-11 4,-21 5,-31 2,-10 4,-20 5,-31l4 -30c1,-5 2,-9 4,-14 1,-4 3,-9 5,-14 3,-10 5,-20 8,-30 5,-19 17,-37 19,-58 -7,17 -20,31 -28,49 -12,-4 -24,-7 -35,-9 -14,-3 -27,-5 -40,-7 -14,-1 -27,-2 -41,-3 -6,0 -13,0 -20,0 -3,0 -7,0 -10,1 -4,1 -8,3 -9,6 6,-3 12,-1 18,1 2,0 3,1 5,1 -6,3 -10,8 -13,14 -3,5 -4,11 -3,17 -2,-1 -4,-1 -6,-1 -7,-3 -12,-6 -9,-12 2,-7 11,-10 19,-11 -4,-1 -8,-2 -13,-1 -2,1 -5,2 -7,3 -3,-4 -4,-8 -5,-11 -1,-5 -2,-10 -3,-16 -2,-5 -4,-11 -8,-17 -2,-2 -4,-5 -9,-7 -4,-2 -9,1 -9,5 3,-2 5,0 6,2 0,1 1,3 1,6 1,5 2,10 3,15 2,5 4,11 7,16 0,-1 0,-1 0,-1 -3,-4 -6,-8 -9,-12 -1,-2 -2,-4 -3,-6 -1,-2 -2,-6 -6,-9 -3,-3 -5,-3 -6,-4 -1,0 -1,-1 -2,-2 0,-1 0,-2 2,-3 0,0 -2,-1 -3,-1 -1,1 -2,1 -2,2 -2,2 -3,4 -2,7 1,4 3,7 4,8l1 7c1,3 2,6 4,9 4,6 9,10 14,14 5,3 11,5 18,5 -3,-4 -5,-8 -8,-12 3,4 7,7 11,8 0,1 -1,1 -1,2 -4,4 -5,11 -2,16 3,6 8,9 13,11 9,4 18,5 27,5 8,1 17,1 26,1zm4 -29l0 0c0,-4 0,-8 0,-12 5,1 9,2 14,2 -1,1 -1,2 -2,2 -2,3 -3,7 -3,11 0,3 1,7 2,10 -3,0 -7,0 -11,0 0,-5 0,-9 0,-13zm33 12l0 0c1,-4 2,-6 2,-9 0,-3 0,-7 -1,-10 6,0 11,1 16,1 -3,2 -5,6 -5,10 0,2 1,5 2,7 -1,0 -1,0 -1,0 -5,0 -9,0 -13,1zm67 -18l0 0c-1,1 -1,2 -2,3 -2,4 -3,9 -5,13 -14,0 -27,0 -41,1 0,-3 1,-5 1,-7 0,-3 -1,-6 -2,-10 4,0 9,0 13,1 12,0 24,0 36,-1zm-68 -2l0 0c-3,3 -4,6 -5,10 0,3 0,7 2,10 -3,0 -7,0 -11,0 0,0 0,-1 -1,-1 0,-3 -1,-5 0,-8 0,-4 1,-8 1,-12 2,0 4,0 6,1 2,0 5,0 8,0zm-37 -5l0 0c-2,4 -3,9 -3,13 0,5 1,9 4,13 0,0 -1,0 -1,0 -5,1 -10,1 -16,1 0,-1 0,-1 0,-1 1,-3 1,-6 2,-9 1,-6 3,-12 4,-19 3,1 6,2 10,2zm-37 26l0 0c1,-5 3,-9 5,-14 3,-5 6,-11 11,-16 3,1 6,1 9,2 -5,5 -8,11 -10,17 0,4 -1,7 0,12 0,0 0,0 0,0 -1,0 -2,0 -3,0 -4,0 -8,0 -12,-1z"/>
     <path fill="#16230F" fill-rule="nonzero" d="M74 500c-1,-1 -1,-1 -2,-2 -1,-1 0,-5 5,-7 -3,-4 -11,-5 -16,1 -2,3 -3,7 -2,10 0,4 2,6 4,9 3,4 9,6 14,6 4,0 9,-1 13,-5 -5,-3 -7,-5 -10,-7 -3,-2 -4,-3 -6,-5z"/>
     <path fill="#16230F" fill-rule="nonzero" d="M107 496c0,-6 -1,-11 -5,-17 -2,-3 -4,-6 -8,-8 -4,-2 -8,-3 -13,-1 -4,1 -7,5 -7,8 -1,0 -1,-1 -1,-2 0,-2 0,-4 -1,-6 -1,-4 -3,-8 -7,-12 -3,-3 -7,-5 -11,-6 2,-1 4,-1 5,-2 1,0 2,0 2,-1 0,0 0,-1 0,-3 0,-1 0,-3 1,-6 -3,-3 -6,-4 -8,-3 -3,0 -5,2 -6,3 -1,2 -2,5 -1,7 0,2 1,3 2,5 -3,-1 -7,0 -10,2 3,4 6,6 9,9l7 7 7 6c1,2 3,3 5,5 2,1 4,1 6,1 1,3 2,5 4,7 1,-3 2,-6 3,-7 2,-1 3,-1 4,0 1,0 2,1 3,1 0,1 1,2 2,4 2,2 4,7 6,12 3,5 5,9 9,14 3,-6 3,-11 3,-17z"/>
     <path fill="#16230F" fill-rule="nonzero" d="M187 985c-5,1 -9,5 -9,9 3,-3 6,-2 8,-1 3,1 5,3 8,5 5,4 11,7 17,10 6,2 13,5 19,7 3,1 7,1 10,2 3,0 6,1 9,3 0,-4 -3,-7 -5,-10 -3,-2 -6,-4 -8,-6 -6,-4 -12,-8 -18,-10 -6,-3 -13,-6 -19,-8 -4,0 -8,-1 -12,-1z"/>
     <path fill="#16230F" fill-rule="nonzero" d="M240 1021c-6,-3 -13,-5 -21,-7 -7,-1 -14,-2 -21,-3 -7,-1 -14,-1 -20,-6 0,5 3,8 6,11 3,3 7,5 11,7 7,3 14,5 21,7 7,1 15,2 22,3 4,0 8,0 12,-1 4,-1 9,-2 11,-5 -4,-1 -7,-1 -10,-3 -4,-1 -7,-2 -11,-3z"/>
     <path fill="#16230F" fill-rule="nonzero" d="M157 971c-2,-1 -4,-1 -6,-1 -1,0 -3,-1 -5,0 0,0 -1,0 -1,0 -4,-3 -9,-6 -14,-8 -7,-1 -14,0 -19,4 6,2 11,5 14,7 2,2 4,4 5,6 -2,-1 -4,-1 -6,0 -3,1 -5,2 -7,4 -2,2 -3,4 -4,8 3,2 6,3 8,3 3,1 5,0 7,0 2,-1 4,-2 6,-3 1,-1 2,-3 3,-5 4,3 7,7 12,8 6,3 12,3 18,2 -2,-3 -4,-5 -6,-7 2,1 4,2 8,2 1,-4 -1,-8 -3,-12 -2,-3 -6,-6 -10,-8z"/>
    </g>
   </g>
  </g>
 </g>
</svg>
