<svg xmlns="http://www.w3.org/2000/svg" width="210mm" height="297mm" shape-rendering="geometricPrecision" text-rendering="geometricPrecision" image-rendering="optimizeQuality" fill-rule="evenodd" clip-rule="evenodd" viewBox="0 0 21000 29700"><g fill-rule="nonzero"><path fill="#EB2403" d="M10665 10074c-1321-16-3157 57-4592 1836-1435 1780-1665 4823 516 6832 2182 2009 3961 2181 5339 1722s3502-1665 4363-3961-746-6372-5626-6429z"/><path fill="#F52603" d="M14809 13723c-81-256-192-489-325-708-158-514-378-1011-646-1468-290-494-674-886-1139-1179-602-180-1278-286-2034-294-1321-16-3157 57-4592 1836-543 674-914 1529-1046 2440-67 841 127 1688 455 2462 339 797 935 1533 1560 2122 634 598 1398 1110 2252 1322 1093 271 2100-86 2934-736 75-48 148-98 219-149 784-561 1452-1329 1917-2171 580-1048 812-2318 445-3477z"/><path fill="#D11C01" d="M8003 11645s1188-324 1782 746c0 0-153 553 364 725-345 402-230 1033-58 1378-57-632 375-1121 733-1278s741-406 865-884c297-307 1272-422 2248 899-402-1033-1087-1818-2380-1340-605-325-1007-382-1408-153-575-459-1478-531-2146-93z"/><path fill="#D11C01" d="M13593 10935s3214 2640 1722 5510c-1492 2871-3329 3904-4248 4076 1320-287 3617-1607 4592-3616 976-2009 575-3272-114-4133-689-862-1378-1665-1952-1837z"/><path fill="#FF310D" d="M12699 10368s1113 1045 1189 2190c-457-725-1544-1145-2212-878-83 33-265-48-486-129-289-107-644-213-926-61-181 97-371-52-621-202-434-258-1050-517-2125 507 0 0 1564-191 1945 457 382 649 267 649 305 954s-76 1144 382 1564c-77-572 235-1453 590-1441 438 15 631-47 631-199 0-153 228-115 419-229 191-115-191-611 267-611s1564 191 1793 1488-381 4235-2327 5188c-1946 954-3929 573-5150-762-1221-1336-1717-2709-1144-4617 572-1907 1831-2937 3471-3242 1641-306 2656-488 3999 23z"/><path fill="#FF3E1C" d="M6085 17561c558 432 1251 609 1949 610 1209 2 2519-491 3281-1466 844-1079 815-2507 380-3759-164 61-324 56-324 184 0 152-176 374-456 155s-842 913-765 1485c-387-639-232-1340-270-1645-15-117-248-365-417-873-237-714-1945-457-1945-457 1075-1024 1691-765 2125-507 250 150 440 299 621 202 205-111 450-84 679-20-352-500-799-939-1358-1194-51-23-103-44-154-64-231 40-473 85-731 133-1640 305-2899 1335-3471 3242-394 1312-282 2372 223 3340 194 229 396 451 633 634z"/><path fill="#AE1704" d="M15602 12312c-1837-2525-5453-2698-7922-1722-2468 976-3329 4133-2411 6315 919 2181 3303 3825 5354 3922 1479 69 3257-937 4520-2258 1263-1320 2296-3731 459-6257zm-976 6487c-1320 1320-3164 1911-4133 1780-3387-459-5740-3789-5396-6315 335-2456 2468-3846 4765-4076 2296-229 5051 689 6140 3029s-56 4262-1376 5582z"/><path fill="#FF5D3E" d="M8904 15950c-333-208-333-832-333-1165 0-92-35-130-88-130-139 0-404 263-495 504-17 47-33 67-47 67-86 0-102-785 6-1107 40-121-19-164-121-164-213 0-614 190-670 247-5 5-10 7-14 7-69 0-60-602 97-798 40-51 14-72-50-72-202 0-781 206-908 363-19 24-33 35-43 35-75 0 114-637 335-784 104-70 27-103-113-103-196 0-515 65-637 186 0 0 333-874 1624-957 323-21 601-37 840-37 716 0 1075 141 1200 703 167 749 42 1124-291 1956-333 833-375 958-292 1249zm-731-3879c-510 0-1032 85-1094 149-409 423 1167 161 1604 409 436 246 366 1415 537 1415h3c175-15 234-1342-73-1736-139-179-554-237-977-237z"/><path fill="#F95030" d="M13907 13796c-16 0-34-2-55-5 0-4-1-8-2-13-31-176-78-332-138-470 54 59 103 121 147 186 156 234 154 302 48 302z"/><path fill="#FF5635" d="M11969 14153c-21-201-55-402-100-601 94-90 181-167 257-223 239-176 516-203 725-203 45 0 87 2 125 3s71 2 100 2c84 0 122-10 86-65-106-158-716-341-937-341-23 0-42 2-55 6-121 36-172 243-393 470-14-45-28-91-42-136 197-162 258-276 292-445 8-41 65-61 154-61 325 0 1086 265 1531 749 60 138 107 294 138 470 1 5 2 9 2 13-71-9-169-34-285-58-150-32-330-64-521-64-235 0-488 48-728 200-123 79-240 176-349 284z"/><path fill="#FF5D3E" d="M10621 15879c-18 0-35-4-51-12-321-160-125-2248 208-2373s465-69 795-305c62-45 116-85 162-124 14 45 28 91 42 136-46 47-99 95-161 143-365 277-789 203-876 335-277 423-146 992-116 1138 1 8 6 11 12 11 101 0 749-810 1233-1276 45 199 79 400 100 601-659 655-1063 1726-1348 1726z"/><path fill="#FF5635" d="M13194 11634c-26 0-55-4-84-13-377-113-1503-329-2484-553-103-115-211-224-326-324 50-2 101-3 151-3 151 0 301 9 451 24 242 26 479 76 711 148 202 62 422 189 640 189 22 0 44-1 65-4 48-6 73-46 53-91-94-207-345-308-546-379-257-90-526-139-795-169-92-10-185-15-278-15-187 0-375 18-558 42-62 8-126 17-190 28-125-86-257-163-397-227 335-91 649-129 949-129 645 0 1230 175 1846 380 1159 386 1135 1096 792 1096z"/><path fill="#FF5D3E" d="M10626 11068c-104-24-207-48-306-72-303-73-634-94-942-94-232 0-452 12-636 24-185 13-334 25-426 25-113 0-139-18-36-80 485-289 922-475 1327-584 140 64 272 141 397 227-191 33-381 84-548 178-56 31-30 116 31 117h28c226 0 454-43 679-59 36-3 71-5 106-6 115 100 223 209 326 324z"/><path fill="#FF8D78" d="M12253 11102c-218 0-438-127-640-189-232-72-469-122-711-148-150-15-300-24-451-24-50 0-101 1-151 3-94-82-192-160-296-230 64-11 128-20 190-28 183-24 371-42 558-42 93 0 186 5 278 15 269 30 538 79 795 169 201 71 452 172 546 379 20 45-5 85-53 91-21 3-43 4-65 4z"/><path fill="#FF8F7B" d="M9515 10809h-28c-61-1-87-86-31-117 167-94 357-145 548-178 104 70 202 148 296 230-35 1-70 3-106 6-225 16-453 59-679 59z"/><path fill="#FF8D78" d="M11869 13552c-27-118-58-235-92-351 221-227 272-434 393-470 13-4 32-6 55-6 221 0 831 183 937 341 36 55-2 65-86 65-29 0-62-1-100-2s-80-3-125-3c-209 0-486 27-725 203-76 56-163 133-257 223z"/><path fill="#FF8F7B" d="M10636 14828c-6 0-11-3-12-11-30-146-161-715 116-1138 87-132 511-58 876-335 62-48 115-96 161-143 34 116 65 233 92 351-484 466-1132 1276-1233 1276zM9220 14044c-171 0-101-1169-537-1415-437-248-2013 14-1604-409 62-64 584-149 1094-149 423 0 838 58 977 237 307 394 248 1721 73 1736h-3z"/><path fill="#425E07" d="M9687 12668s444 501 883 334c255-83 892-507 1050-714 58-223 175-340 577-574 402-235 954-486 1004-803 51-319 51-670-16-838-67-167-231-313-450-374 232 241 366 508 182 693-184 184-653 552-1071 669 133-268 200-619 167-971-34-351-167-820-184-1054-117 234-1038 1506-1038 1908-17-452 34-1138 34-1138-201 0-346 94-346 94-123-312-341-764-374-1199-50 418-196 1120-265 1430-70 311-338 997 47 1683-234-301-619-921-703-1640-50 435-121 1027 116 1643-250-120-902-606-752-1375-167 301-418 569-334 786 83 218 803 904 1473 1440z"/><path fill="#587D09" d="M9887 11814c-141-366-259-857-43-1426s255-863 372-805c118 59 371 252 371 252-233 43-272 337-292 651s-168 1419-408 1328zM9300 11817l112 416c-373-235-982-765-1060-981-79-216-146-313 173-687 3 255-114 667 775 1252zM9235 10899c-73-184 78 922 393 1138 314 216 412 157 216-39-197-196-491-805-609-1099zM11669 10349s-550 864-628 1178c-79 314 20 667 196 451 177-216 216 157 275-39s157-1119 157-1590zM11983 11134c-146 82-314 648-59 589 256-59 864-353 1060-628 197-275 197-825 79-805s-550 550-1080 844z"/><path fill="#587D09" d="M10943 11036c81 94 235-39 334-216 98-177 372-608 412-883 78 157 78 530 78 648 118-138 216-746 98-1080-117-334 0-550-176-196-177 353-471 687-628 1040s-236 550-118 687zM10765 9904s-274 641-234 1387c39 746-99 903-236 707s-33-1749 106-2098c71-179 382-29 364 4z"/><path fill="#90B565" d="M10591 9908c-8-28-46-40-67-18-92 97-97 228-123 356-29 142-50 285-67 429-40 341-58 687-24 1028 5 49 71 49 76 0 33-297 44-596 80-892 21-176 51-351 83-524 24-129 79-251 42-379zM10223 9503c-7-24-39-27-52-7-84 129-91 300-124 448-40 174-85 347-120 522-63 314-78 625-21 940 7 41 74 31 71-9-28-345 12-677 94-1012 38-155 78-311 114-468 31-136 77-276 38-414zM9044 11895c-115-203-308-341-442-530-143-201-155-444-129-682 2-13-18-14-22-3-192 486 128 1003 559 1248 22 12 46-12 34-33zM9810 11935c-140-156-261-310-354-501-86-179-132-374-213-557-9-21-37-4-35 15 52 383 187 907 563 1094 33 16 64-23 39-51zM13012 10221c-3-12-22-13-25 0-61 310-103 538-402 698-186 100-546 145-638 357-12 28 3 54 33 57 139 14 276-80 396-140 133-67 269-132 386-224 229-181 334-466 250-748zM11602 9345c-133 268-262 524-421 778-144 231-341 530-304 815 4 29 43 48 60 16 73-132 108-282 170-420 61-137 132-269 205-400 133-239 305-498 336-776 2-25-36-34-46-13zM11621 10478c-121 183-211 380-299 581s-176 422-179 644c0 20 30 30 39 10 94-196 152-413 226-618 74-206 167-402 217-615l-4-2z"/><path fill="#183D00" d="M10501 12971c-279 22-494-107-707-270 0 0-281-417-453-890-172-472-172-837-149-1419 109 601 471 1419 879 1699 408 279 451 451 430 880zm-344-923c-430-366-687-946-816-1418-129-473-129-795-301-1031-172-237-387-323-258-559-129 193-64 408 129 623 395 439 86 1053 237 1826 150 773 579 1267 579 1267 366 301 752 430 860 280 43-323 0-623-430-988z"/><path fill="#183D00" d="M9727 12756s-273-225-931-767c-658-543-723-779-572-1059 150-279 586-767 229-1329 244 148 308 427 200 749-107 323-150 559 86 881 237 322 455 528 561 586l19 80s-494-215-666-558c-171-344-171-602-128-774-215 344-366 537-194 795s793 795 1245 1117c87 150 151 279 151 279zM11553 12306c-129 128-580 515-843 587-91-357 70-953 242-1404s601-1052 752-1375c64 838-108 1590-151 2192zm86-2686c-172-107-343-279-300-494-151 430 300 494 279 881-22 387-430 773-789 1563-358 789-290 1473-242 1466 429-65 752-409 1074-709-22-194 107-1096 107-1633s43-966-129-1074z"/><path fill="#183D00" d="M10157 12048s22-1332 193-2127c0 0 301-279 516-193 0 193-64 1417 21 1825-42 108-85 258-85 258s-117-979-37-1907c-157-47-305-27-327 70-23 97-305 1532-111 2243-105-105-170-169-170-169z"/><path fill="#183D00" d="M9789 11671c-212-547-174-807 1-1590 174-783 367-1363 152-1814 194 279 215 687 301 966 86 280 258 495 344 602-43-21-108 65-108 65s-377-568-360-886c-91 456-198 864-284 1315s-193 967 172 1590c-151-129-218-248-218-248zM10828 10838c38-337 188-724 532-1132s516-773 365-1246c151 301 193 988 280 1354 85 365 116 933-71 1207 168-71 518-246 754-447 135-113 232-236 240-352 10-142-10-238-53-314-55-97-149-161-269-245-215-150-193-301-43-408-86 129-72 220 222 411 293 191 551 298 530 856-22 559-237 795-537 967-301 172-1010 451-1160 817 0-151-55-153 90-324 146-171 640-386 941-579s537-429 537-859-108-623-258-709c108 279 236 494-86 752s-1074 580-1095 601c21-64-22-172-22-172s200-65 237-644c21-344-129-988-151-1160-107 215-344 559-515 795-172 236-473 752-451 1224-65-86-17-393-17-393z"/></g></svg>