<svg xmlns="http://www.w3.org/2000/svg" width="210mm" height="297mm" shape-rendering="geometricPrecision" text-rendering="geometricPrecision" image-rendering="optimizeQuality" fill-rule="evenodd" clip-rule="evenodd" viewBox="0 0 21000 29700"><g fill-rule="nonzero"><path fill="#E03432" d="M7262 13627h5576c1125-574 1896-1744 1896-3094H5366c0 1350 770 2520 1896 3094z"/><path fill="#E6403D" d="M13095 12694h-885c459-576 739-1303 754-2093h885c-15 790-295 1517-754 2093z"/><path fill="#C52C2A" d="M7261 14091h5578v-464H7261z"/><path fill="#FFFAE8" d="M5420 11147c11 3 22 7 31 10 23 9 44 21 67 35 34 21 73 50 128 74 54 24 122 40 207 40 75 0 137-13 188-33 38-14 70-33 97-50 41-25 71-47 105-61 33-14 71-25 134-25 56 0 92 9 123 20 23 9 44 21 67 35 34 21 73 50 128 74 54 24 122 40 207 40 75 0 137-13 188-33 38-14 70-33 97-50 41-25 71-47 105-61 33-14 71-25 134-25 56 0 92 9 123 20 23 9 44 21 67 35 34 21 73 50 128 74 54 24 122 40 207 40 75 0 137-13 188-33 39-14 70-33 97-50 41-25 71-47 105-61 33-14 71-25 134-25 56 0 93 9 123 20 23 9 44 21 67 35 34 21 73 50 128 74 54 24 122 40 207 40 75 0 137-13 188-33 39-14 70-33 97-50 41-25 72-47 105-61s71-25 134-25c56 0 93 9 124 20 23 9 43 21 66 35 34 21 73 50 128 74 54 24 123 40 207 40 75 0 137-13 189-33 38-14 70-33 97-50 40-25 71-47 104-61 34-14 71-25 134-25 56 0 93 9 123 20 24 9 44 21 67 35 34 21 73 50 128 74 54 24 123 40 207 40 75 0 137-13 188-33 39-14 71-33 98-50 40-25 71-47 104-61 34-14 72-25 135-25 56 0 92 9 123 20 23 9 43 21 66 35 34 21 74 50 128 74 55 24 123 40 207 40 75 0 137-13 189-33 38-14 70-33 97-50 41-25 71-47 104-61 34-14 72-25 135-25 56 0 92 9 123 20 23 9 43 21 66 35 34 21 74 50 128 74 55 24 123 40 207 40 75 0 138-13 189-33 38-14 70-33 97-50 41-25 71-47 105-61 33-14 71-25 134-25 56 0 93 9 123 20 24 9 44 21 67 35 34 21 74 50 128 74 55 24 123 40 207 40 76 0 138-13 189-33 38-14 70-33 97-50 41-25 72-47 105-61 13-6 27-11 43-15 11-62 21-125 28-189-47 5-89 16-125 30-38 15-70 33-97 50-41 25-71 47-105 61-33 15-71 25-135 25-56 0-92-8-123-20-23-9-44-20-66-35-35-21-74-50-129-74-54-24-122-40-207-40-75 0-137 13-188 33-39 15-70 33-98 50-40 25-71 47-104 61-34 15-72 25-135 25-56 0-92-8-123-20-23-9-43-20-66-35-34-21-74-49-128-74-54-23-123-40-207-40-75 0-137 13-189 33-38 15-70 33-97 50-41 25-71 47-104 61-34 15-72 25-135 25-56 0-92-8-123-20-23-9-43-20-66-35-34-21-74-49-128-74-55-23-123-40-207-40-76 0-138 13-189 33-38 15-70 33-97 50-41 25-71 47-105 61-33 15-71 25-134 25-56 0-92-8-123-20-23-9-44-20-67-35-34-21-73-49-127-74-55-23-123-40-208-40-75 0-137 13-188 33-38 15-70 33-97 50-41 25-71 47-105 61-33 15-71 25-134 25-56 0-92-8-123-20-23-9-44-20-67-35-34-21-73-49-128-74-54-23-122-40-207-40-75 0-137 13-188 33-38 15-70 33-97 50-41 25-71 47-105 61-33 15-71 25-134 25-56 0-92-8-123-20-23-9-44-20-67-35-34-21-73-49-128-74-54-23-122-40-207-40-75 0-137 13-188 33-39 15-70 33-97 50-41 25-72 47-105 61-33 15-71 25-134 25-56 0-93-8-123-20-23-9-44-20-67-35-34-21-73-49-128-74-54-23-122-40-207-40-75 0-137 13-188 33-39 15-70 33-98 50-40 25-71 47-104 61-34 15-71 25-134 25-56 0-93-8-123-20-24-9-44-20-67-35-34-21-73-49-128-73-54-24-122-41-207-41-75 0-137 13-188 33-39 15-70 33-97 50-41 25-72 47-105 61-33 15-71 25-134 25-56 0-93-8-123-20-23-9-44-20-67-35-34-21-73-49-128-73-40-18-87-32-143-37 7 63 17 126 28 188zM5617 11831c9 5 18 9 29 14 54 24 122 40 207 40 75 0 137-13 188-33 38-14 70-33 97-50 41-25 71-47 105-61 33-14 71-25 134-25 56 0 92 9 123 20 23 9 44 21 67 35 34 21 73 50 128 74 54 24 122 40 207 40 75 0 137-13 188-33 38-14 70-33 97-50 41-25 71-47 105-61 33-14 71-25 134-25 56 0 92 9 123 20 23 9 44 21 67 35 34 21 73 50 128 74 54 24 122 40 207 40 75 0 137-13 188-33 39-14 70-33 97-50 41-25 71-47 105-61 33-14 71-25 134-25 56 0 93 9 123 20 23 9 44 21 67 35 34 21 73 50 128 74 54 24 122 40 207 40 75 0 137-13 188-33 39-14 70-33 97-50 41-25 72-47 105-61s71-25 134-25c56 0 93 9 124 20 23 9 43 21 66 35 34 21 73 50 128 74 54 24 123 40 207 40 75 0 137-13 189-33 38-14 70-33 97-50 40-25 71-47 104-61 34-14 71-25 134-25 56 0 93 9 123 20 24 9 44 21 67 35 34 21 73 50 128 74 54 24 123 40 207 40 75 0 137-13 188-33 39-14 71-33 98-50 40-25 71-47 104-61 34-14 72-25 135-25 56 0 92 9 123 20 23 9 43 21 66 35 34 21 74 50 128 74 55 24 123 40 207 40 75 0 137-13 189-33 38-14 70-33 97-50 41-25 71-47 104-61 34-14 72-25 135-25 56 0 92 9 123 20 23 9 43 21 66 35 34 21 74 50 128 74 55 24 123 40 207 40 75 0 138-13 189-33 38-14 70-33 97-50 41-25 71-47 105-61 33-14 71-25 134-25 56 0 93 9 123 20 24 9 44 21 67 35 34 21 74 50 128 74 55 24 123 40 207 40 76 0 138-13 189-33 17-6 34-14 48-21 35-86 66-173 94-262-36 15-66 32-91 48-41 26-71 47-105 61-33 15-71 25-135 25-56 0-92-8-123-20-23-9-44-20-66-35-35-21-74-49-129-73-54-24-122-41-207-41-75 0-137 13-188 33-39 15-70 33-98 50-40 26-71 47-104 61-34 15-72 25-135 25-56 0-92-8-123-20-23-9-43-20-66-35-34-21-74-49-128-73s-123-41-207-41c-75 0-137 13-189 33-38 15-70 33-97 50-41 26-71 47-104 61-34 15-72 25-135 25-56 0-92-8-123-20-23-9-43-20-66-35-34-21-74-49-128-73-55-24-123-41-207-41-76 0-138 13-189 33-38 15-70 33-97 50-41 26-71 47-105 61-33 15-71 25-134 25-56 0-92-8-123-20-23-9-44-20-67-35-34-21-73-49-127-73-55-24-123-41-208-41-75 0-137 13-188 33-38 15-70 33-97 50-41 26-71 47-105 61-33 15-71 25-134 25-56 0-92-8-123-20-23-9-44-20-67-35-34-21-73-49-128-73-54-24-122-41-207-41-75 0-137 13-188 33-38 15-70 33-97 50-41 26-71 47-105 61-33 15-71 25-134 25-56 0-92-8-123-20-23-9-44-20-67-35-34-21-73-49-128-73-54-24-122-41-207-41-75 0-137 13-188 33-39 15-70 33-97 50-41 26-72 47-105 61-33 15-71 25-134 25-56 0-93-8-123-20-23-9-44-20-67-35-34-21-73-49-128-73-54-24-122-41-207-41-75 0-137 13-188 33-39 15-70 33-98 50-40 26-71 47-104 61-34 15-71 25-134 25-56 0-93-8-123-20-24-9-44-20-67-35-34-21-73-49-128-73-54-24-122-41-207-41-75 0-137 13-188 33-39 15-70 33-97 50-41 26-72 47-105 61-33 15-71 25-134 25-56 0-93-8-123-20-23-9-44-20-67-35-34-21-73-49-128-73-4-2-8-4-12-5 28 88 59 175 94 261z"/><path fill="#C52C2A" d="M14806 10601H5294c-137 0-248-111-248-248v-190c0-137 111-248 248-248h9512c137 0 247 111 247 248v190c0 137-110 248-247 248z"/><path fill="#D23131" d="M14048 10375H9528c-55 0-99-44-99-99v-36c0-55 44-99 99-99h4520c55 0 99 44 99 99v36c0 55-44 99-99 99z"/><path fill="#09897C" d="M6300 17687h7499c1514-773 2551-2347 2551-4163H3750c0 1816 1037 3390 2550 4163z"/><path fill="#10988B" d="M12915 17687h-1106c1488-760 2515-2294 2549-4071h1106c-34 1777-1061 3311-2549 4071z"/><path fill="#176B5D" d="M6299 18310h7502v-623H6299z"/><path fill="#FFFAE8" d="M3820 14333l441 333c43 33 103 33 147 0l561-424 561 424c44 33 104 33 147 0l562-424 561 424c43 33 104 33 147 0l561-424 562 424c43 33 104 33 147 0l562-424 561 424c43 33 104 33 147 0l562-424 561 424c44 33 104 33 147 0l562-424 561 424c44 33 104 33 147 0l562-424 561 424c43 33 104 33 147 0l562-424 561 424c44 33 104 33 148 0l561-424 562 424c44 33 104 33 147 0l442-334c20-112 35-226 47-341l-562 425-562-425c-44-33-104-33-147 0l-562 425-562-425c-43-33-103-33-147 0l-561 425-562-425c-43-33-103-33-147 0l-561 424-562-424c-43-33-103-33-147 0l-561 425-562-425c-43-33-104-33-147 0l-561 425-562-425c-43-33-104-33-147 0l-561 425-562-425c-43-33-104-33-147 0l-561 424-562-424c-43-33-103-33-147 0l-561 424-561-424c-44-33-104-33-148 0l-561 424-561-424c12 115 27 229 47 342zM4114 15334l147 111c43 33 103 33 147 0l561-425 561 425c44 33 104 33 147 0l562-425 561 425c43 33 104 33 147 0l561-425 562 425c43 33 104 33 147 0l562-425 561 425c43 33 104 33 147 0l562-425 561 425c44 33 104 33 147 0l562-425 561 425c44 33 104 33 147 0l562-425 561 425c43 33 104 33 147 0l562-425 561 425c44 33 104 33 148 0l561-425 562 425c44 33 104 33 147 0l149-112c58-138 109-279 154-423l-376 284-562-424c-44-33-104-33-147 0l-562 424-562-424c-43-33-103-33-147 0l-561 424-562-424c-43-33-103-33-147 0l-561 424-562-424c-43-33-103-33-147 0l-561 424-562-424c-43-33-104-33-147 0l-561 424-562-424c-43-33-104-33-147 0l-561 424-562-424c-43-33-104-33-147 0l-561 424-562-424c-43-33-103-33-147 0l-561 424-561-424c-44-33-104-33-148 0l-561 424-375-283c45 144 97 285 155 423z"/><path fill="#0F796B" d="M16447 13616H3653c-183 0-332-149-332-333v-256c0-184 149-333 332-333h12794c183 0 332 149 332 333v256c0 184-149 333-332 333z"/><path fill="#098A7A" d="M15678 13302H9999c-69 0-125-55-125-125v-45c0-69 56-125 125-125h5679c69 0 125 56 125 125v45c0 70-56 125-125 125z"/></g></svg>