<?xml version="1.0" encoding="UTF-8"?>
<!DOCTYPE svg PUBLIC "-//W3C//DTD SVG 1.1//EN" "http://www.w3.org/Graphics/SVG/1.1/DTD/svg11.dtd">
<!-- Creator: CorelDRAW X7 -->
<svg xmlns="http://www.w3.org/2000/svg" xml:space="preserve" width="1282px" height="1337px" version="1.1" shape-rendering="geometricPrecision" text-rendering="geometricPrecision" image-rendering="optimizeQuality" fill-rule="evenodd" clip-rule="evenodd"
viewBox="0 0 1469 1532"
 xmlns:xlink="http://www.w3.org/1999/xlink">
 <g id="Слой_x0020_1">
  <metadata id="CorelCorpID_0Corel-Layer"/>
  <g id="_3435720432">
   <path fill="#A6A093" d="M391 1055c2,0 5,4 6,5 0,0 2,2 2,2 -2,0 0,1 1,2 13,10 61,16 89,47 15,16 47,61 44,93 6,5 6,4 6,14l-2 8c3,4 2,-1 5,10 0,0 0,8 0,9 0,6 0,10 0,16 0,9 -2,16 6,16l10 -1c10,-12 34,-17 51,-19 -8,-7 -11,-7 -5,-18 9,1 5,0 12,4 8,5 6,7 23,12 -8,-8 -6,-5 -3,-19 11,4 29,41 97,41 17,0 69,-12 87,-20 17,-7 7,-8 21,-12 3,12 3,7 -3,18 21,-4 18,-11 35,-21 0,0 -1,-6 5,0 6,7 1,2 3,11l3 4c19,-4 18,-15 33,-15 6,9 3,5 2,17 18,-1 41,-6 57,-14 14,-60 41,-116 105,-166 14,-9 22,-12 38,-16l6 -8c-4,-8 -13,-42 -16,-57l-46 -147c-17,-40 -27,-90 -52,-138l-47 -101c-6,5 -1,-4 -6,8 -3,5 -1,11 -9,25 -33,62 20,89 -9,94 1,5 1,5 -2,4 -24,25 -92,-1 -117,-10 -42,-16 -53,-47 -89,-56l-2 2c2,7 0,3 6,10 3,4 3,5 6,8 29,43 37,68 54,115 6,17 10,32 16,49 12,33 23,62 34,99 3,16 10,36 13,52 3,15 14,35 13,49 7,6 4,0 6,13 1,2 9,16 6,19 -8,7 -15,2 -25,0 -21,-4 -39,-5 -60,-4 -13,0 -5,0 -6,-4 -5,-5 -2,5 -7,-9 -1,-5 -1,-7 -1,-11 -2,-9 -3,-15 -3,-23l-3 -14c-9,-15 -18,-100 -29,-116 -2,14 3,70 5,85 1,34 1,63 0,96 0,44 12,139 -2,177 -2,0 -2,1 -3,1l-9 -1c-2,-14 3,-25 3,-37l-2 -128c-1,-29 2,-60 -1,-87l-6 -128c-2,-15 1,-23 0,-32 -2,-18 -35,-113 -44,-134 -9,-22 -17,-46 -37,-52 -7,37 -18,73 -24,111 -6,36 -15,74 -23,110 -3,18 -9,37 -14,54 -4,16 -6,37 -9,55 -1,9 -3,18 -4,29 -3,15 -5,68 -15,81 -11,-4 -26,-31 -35,-43 -8,-9 -14,-10 -20,-20 -32,-49 -28,-35 -17,-78 12,-55 41,-138 62,-191l41 -95 -74 34c-5,7 6,4 -8,6 -10,1 -12,5 -19,9 -20,12 -26,27 -37,48 -26,52 -50,124 -55,179 -1,20 -6,30 -9,49 -3,28 -10,35 -3,45z"/>
   <path fill="#525252" d="M1440 1331c-3,-7 -5,-3 0,-14l6 13 -6 1zm-179 5c-11,-2 0,0 1,-5 6,-7 2,-1 6,-7 5,-8 3,-9 14,-11l12 -8c11,-10 5,-5 14,-5 20,0 13,-12 32,-15 7,-9 4,0 3,-15l7 0 9 -4c-3,11 -4,7 -7,20l35 9 12 -8c0,15 -3,22 18,35l5 3c-2,33 -8,66 -32,87 -23,18 -11,13 -21,23l-8 5c-29,19 -85,47 -125,48 -26,0 -54,1 -64,-19 -7,-20 -13,-58 -3,-75 16,-6 7,8 19,-7 27,-32 36,-29 42,-53 14,5 25,10 31,2zm-142 -387l-4 -8c6,6 3,-2 4,8zm-219 -210c-10,0 -60,-15 -73,-20 -18,-8 -47,-28 -56,-43 5,3 46,14 66,29 7,5 21,14 30,18l33 16zm34 -8c-23,6 -79,-34 -99,-43 -42,-24 -67,-29 -122,-31 7,-11 11,-9 14,-21 6,-22 -4,-58 -20,-77 44,0 180,33 207,18 43,-22 38,37 27,60 -7,16 -16,15 -16,42 0,24 7,36 9,52zm-70 346l-65 -6c0,-35 -13,-60 -17,-80 -2,-9 -3,-17 -5,-25 -9,-59 -29,-107 -39,-154l-44 -123c-8,-10 -9,-5 -14,-22 40,8 55,44 71,76 2,1 5,6 5,6 15,31 29,67 40,101l35 111c6,18 12,37 16,58l17 58zm-228 -420c-26,-27 -26,-82 0,-92l55 -4c12,12 10,9 16,28 14,42 13,44 -22,62 -14,8 -32,8 -49,6zm-135 350c4,-59 32,-126 50,-178 10,-29 20,-58 32,-83 21,-49 12,-29 41,-75l18 0c-5,26 -18,61 -23,98 -7,55 -38,167 -42,210 -2,15 -9,33 -11,49 -1,23 -5,37 -8,56 -24,-33 -28,-34 -57,-77zm-119 -16l0 -15c5,11 5,7 0,15zm-20 -362c0,0 3,4 5,6 6,21 6,56 4,81 -9,-17 -13,-38 -18,-59 -6,-25 -15,-40 -16,-64 10,15 7,22 25,36zm-38 -329l0 0zm-1 -169l-5 -1c0,1 3,-1 3,-1 2,0 0,-3 2,2zm-281 1257c7,7 3,-5 6,10l39 32c6,6 3,4 9,9l26 26c9,8 23,16 41,30 5,4 12,11 20,14 47,20 87,31 141,15 9,-2 17,-10 23,-14 3,-2 2,-1 6,-3l44 -50c-1,-7 3,-6 8,-11 4,-4 1,3 4,-4l0 4c28,-14 105,-118 139,-138 36,-22 10,-15 32,-24 38,-14 56,-8 92,1 63,17 137,3 201,1 38,-1 84,-12 99,-6 36,12 64,50 80,79 8,13 13,23 17,39 23,68 53,84 119,102 71,21 135,-21 185,-49l24 -20c28,-23 46,-57 57,-92 4,-15 7,-28 13,-43 5,-13 0,-24 -1,-45 -8,-9 0,-1 -9,-8 -25,-17 -3,-14 -29,-18 0,-20 -5,-21 -21,-14l-3 -27 -17 0c1,5 0,7 4,9 -13,-7 0,-1 -6,3 9,-1 5,1 6,12 3,8 2,11 3,21 13,1 10,1 19,-6 4,12 -2,20 21,15l-5 16 25 1c-2,19 -2,19 3,36 -6,9 -9,8 -9,23 -2,-7 1,-4 -11,-12 0,-1 -2,-1 -2,-2 -21,-15 -7,-14 -15,-22l-12 -7c-14,-4 -1,3 -17,-12l-10 -9c-32,-1 -40,11 -58,23 -5,-3 -6,-4 -12,-5l-29 25c-17,13 -14,12 -26,29l-36 -10c0,14 -3,17 -10,27l-16 -2 -8 22 -15 -2c-26,46 -20,56 -15,109 -34,-10 -38,-27 -49,-42 -35,-55 -38,-85 -61,-122 -10,-15 -32,-35 -50,-40 5,-28 28,-97 40,-115 10,-18 21,-28 38,-38 24,-14 12,-12 50,-25 14,10 1,11 23,10 4,12 1,9 12,14 3,-3 -3,-3 6,-3l-3 4c4,11 0,5 10,11l5 -5 -3 6c11,20 32,47 44,70 17,29 37,46 67,33l8 -5c1,0 1,-1 3,-1 3,0 4,-8 19,-14l0 21c22,4 14,-11 31,-11 9,0 0,4 13,0 11,-3 16,-7 20,-14l8 -5 -8 -9 -9 8 -9 5c-6,-4 -3,2 -6,-7 -20,4 -12,7 -24,13 -3,-15 1,-9 -2,-19 -38,-3 -46,52 -82,7 -18,-23 -26,-40 -38,-56l-41 -54c-12,-15 -21,-16 -27,-34 -7,-18 -22,-81 -22,-100 12,10 26,29 38,43 5,4 9,7 12,11 5,3 5,2 10,7 7,7 4,3 9,12 13,8 10,17 47,30 26,8 42,11 67,8 26,-5 33,-10 57,-23 16,-7 10,-6 19,-23 9,-15 6,-10 3,-29 19,-12 3,-12 0,-44 -3,-15 3,13 3,-14l9 4c-2,-9 -3,-18 -9,-22l-8 2 2 -6c-6,-28 -12,-18 -46,-39 3,-15 11,-15 -20,-32l-89 -44c-2,-1 -2,-1 -3,-1l-19 -15 -16 9 7 9c17,16 69,35 79,47l17 6c8,6 17,10 27,13 -10,3 -12,1 -16,11 7,6 24,13 35,17 6,2 9,4 15,7l7 9 13 13 -14 6 0 17c9,7 12,10 14,22 -17,-7 -23,1 -13,14 8,9 13,10 13,30l-5 3 -8 13c-4,6 -9,7 -19,10l-9 6 0 -12c4,-6 6,-11 1,-19 -8,-16 -6,-6 -6,-25l-26 -15 2 -2c10,-11 9,-1 7,-17l8 5c-5,-18 -9,-23 -38,-35 -2,-1 -6,-4 -11,-3 -15,2 -6,3 -10,5 3,7 -3,4 19,16 9,5 17,3 20,15 -9,6 -14,2 -14,21 8,9 16,9 20,20 6,13 6,13 17,22 -2,13 -2,18 -9,24 -2,10 3,3 -6,9 -38,8 -81,-11 -110,-39l-33 -35c-3,-3 -5,-6 -9,-11 -5,-7 -6,-7 -11,-13 -8,-8 -14,-15 -21,-23 -28,-32 -20,-8 -26,-36 -11,0 -9,0 -14,-11 2,3 2,2 3,9 3,-3 2,-2 5,-7 0,-17 -6,-26 -11,-40 -4,-14 -7,-27 -13,-41 -11,-30 -19,-53 -29,-78 -13,-25 -22,-52 -34,-73 -21,-37 -4,-16 -32,-53 -6,-8 -6,-5 -10,-16 29,9 97,61 120,85l39 45c11,14 37,46 49,54l0 -4c7,9 -3,5 14,6l1 -6c-4,-14 -15,-22 -23,-32 -4,-5 -7,-9 -12,-15 -6,-6 -6,-5 -12,-12l-47 -54c-28,-24 -58,-46 -90,-64 -14,-8 -17,-11 -32,-19l-4 -2 9 -2c58,-15 79,-68 96,-116 6,-20 7,0 38,-31 9,2 12,4 24,4 3,-9 4,-11 7,-22 19,-2 29,1 31,-33l20 -9c1,0 1,-3 1,-4 2,-1 2,-5 3,-7 2,-7 3,-11 5,-18 3,-19 1,-15 1,-35 -9,1 -4,1 -9,2 -9,3 6,3 -7,2 4,25 -5,23 -7,50 -27,-3 -24,0 -27,29l-21 0c0,7 0,14 -9,20 -3,3 6,15 -5,3 -7,-7 -3,-1 0,-4 -3,-5 0,-3 -10,-6l7 9c-17,-4 0,-4 -11,-2 0,1 0,1 -1,2l0 -4c-14,12 1,3 -26,23 -14,-24 5,-14 -12,-24 -11,4 -5,-5 -9,9l-5 40c-10,47 -36,91 -83,110 -15,6 -32,9 -46,15 -23,11 -27,8 -52,4l-114 -16c-62,-3 -50,-1 -115,6 -20,2 -94,-5 -117,-13 -18,-7 -31,-8 -44,-16 -14,-9 -28,-19 -35,-31 -31,-45 -21,-68 -21,-99 -20,-5 -83,15 -128,-41 -11,-12 -14,-8 -17,-36 -1,-16 0,-18 -6,-29l5 -6 -19 2c2,-11 0,-14 8,-22 5,-12 15,-20 -3,-34 9,-29 11,-45 30,-61 8,-6 9,-3 9,-21 22,0 19,1 23,-4l5 -13 4 2c11,4 51,-17 69,-20 26,-4 61,-1 86,4 -1,11 -13,25 -19,35 -9,14 -12,20 -20,34 -11,-1 -18,1 -27,0 -14,-2 -10,-6 -26,-4 0,0 -2,5 -2,6 -3,8 -1,2 -3,7 -18,0 -39,-13 -56,-6 -2,8 -2,7 3,11l11 9c-13,7 -17,2 -26,15 3,13 -2,3 9,13 -14,6 -8,2 -14,11 9,19 11,2 21,22 -12,21 -21,9 -24,30 15,12 9,5 29,9 -17,23 -5,32 23,19 -5,-9 1,-7 -14,-9 5,-13 3,-9 6,-26l-21 -1c6,-8 12,-11 20,-18l-3 -14 -3 -4c0,0 6,0 6,-1l-14 -9 6 -13 2 -9 16 -3c-7,-17 -1,-1 0,-8l3 -4c0,0 0,-2 0,-2 0,-1 0,-1 2,-2 8,2 17,6 24,8l46 -15c0,17 -23,42 -29,61l-9 55c1,8 3,7 15,7 15,-75 -5,-42 40,-110 16,-24 -10,-1 21,-44 12,-19 14,-34 29,-48 38,-37 100,-63 156,-67 50,-4 49,9 66,12 12,46 12,53 9,106 -2,20 -8,30 10,29 8,-11 8,-91 3,-110 -1,-12 -7,-18 -9,-30 20,-8 16,-2 32,-3 5,-9 22,-26 34,-30 0,0 -3,1 -2,1 5,3 -3,3 -3,4l-9 28c12,0 15,-2 21,-8l9 -6c0,20 2,2 -4,10l1 10c19,1 14,-6 29,-11l-4 17c3,3 6,6 9,10 20,3 26,-1 45,4l11 1 -9 -5c6,0 6,1 12,2 -12,-3 -1,0 -6,4 11,3 12,2 20,10 6,5 10,8 15,15 -3,-13 -2,-4 5,-6 6,3 3,-1 0,4l7 8c-4,4 -4,5 -11,8 -19,14 -1,15 11,20 3,2 14,8 18,10 5,3 9,9 12,16 7,18 -3,8 0,24 2,5 16,10 25,29 3,4 1,4 4,8 17,27 2,22 19,25 12,-12 3,-10 1,-26 9,-3 20,-9 24,-4l5 15c3,3 -6,2 6,3l21 -7c3,4 3,7 5,13 12,2 23,1 26,3 -22,15 -12,15 0,27 -3,10 -6,10 0,22 1,0 3,1 4,1 2,1 5,4 5,5 -6,6 0,2 -8,4l-6 -1 -3 13c-20,3 -27,0 -27,18l-11 0c8,6 -10,0 18,9 0,1 0,1 2,1l8 -14c30,-7 16,-6 38,-24 -2,-13 -2,-5 -7,-15l11 -5c-1,-7 0,-3 -1,-9l-5 -8c-5,-6 0,0 -6,-5l-6 -7 9 -7c5,-3 5,-4 6,-8 -11,-14 -21,-8 -33,-14 -10,-6 -2,-12 -35,-9 10,-26 -32,-11 -47,-9 -2,-5 -2,-7 -5,-11 -3,-4 -3,-3 -6,-6 -14,-14 -14,-13 -17,-31 -3,-24 -20,-30 -33,-46 10,-4 16,-9 30,-12 18,-3 20,-6 32,-15l3 -4c6,17 2,2 0,8 -1,8 0,11 6,12 11,1 24,-25 38,-31l0 15c18,10 17,-2 18,-3l-4 -5c0,0 -2,-1 -3,-2 1,-1 3,-5 3,-5 3,-5 0,-2 3,-5l-8 -22c-12,1 -26,18 -30,29 -9,-6 -2,-5 -6,-15 -14,-3 -14,1 -21,9l-11 10c-9,9 -44,19 -47,18l-29 -24 -5 -5c-45,-23 -24,-17 -77,-12 -3,2 1,5 -5,1 2,-8 -1,-3 6,-4l6 -20 -19 2c-8,4 -3,6 -6,-1l-3 -1 -2 -15 -14 1 -6 3c3,-12 -1,-1 5,-5 4,-11 7,-12 10,-26 -15,-7 -16,6 -31,14 -66,38 -83,-3 -139,12 -45,11 -50,15 -86,27 -20,6 -25,7 -40,18 -12,8 -24,12 -32,24 -17,-4 -74,-6 -94,-3 -38,5 -46,6 -72,24l-9 -8c-7,-7 -15,-12 -25,-13 -5,13 1,23 4,39 -17,-4 -24,-7 -39,0 0,12 3,5 7,18 -23,29 -36,40 -36,88l12 10c-9,14 -21,32 -17,51 12,6 6,1 18,3 8,18 8,30 16,48 9,19 9,25 25,36 17,12 22,17 43,20 23,3 36,3 59,1 0,22 17,81 28,97l9 13c4,7 0,2 9,8l-12 5 10 2 -15 0c14,5 2,4 17,2l-5 3c2,5 34,3 46,6 14,3 32,6 45,11 28,7 13,5 38,5 20,0 34,3 54,4 -11,11 -11,12 -11,32 -41,-9 -29,-3 -73,0 -29,0 -56,-3 -71,7 6,15 9,12 16,13 3,-6 2,0 0,-5 0,-9 -4,3 0,-4 20,-3 101,-7 117,-5 -9,8 -18,9 -32,12 -13,4 -25,4 -36,10l-47 17c-11,4 -9,1 -17,8 5,10 0,6 15,10 0,-1 0,-2 2,-2 9,-3 -12,-2 23,-14 21,-8 76,-25 95,-27l8 -2 2 8 4 21c8,-7 5,7 8,-9l1 9 -4 1 3 14c-35,16 -128,62 -152,69 -25,5 -34,15 -64,7l-5 5c-10,-8 -4,-5 -12,-12l2 -1c0,-19 1,-56 -2,-73 -1,-13 -3,-19 -9,-28 -5,-7 -12,-16 -17,-24 -7,-8 -15,-18 -9,-31 2,-1 3,-3 3,-4 5,-6 3,-4 5,-6 6,-15 17,-13 30,-20 5,-2 -6,-7 15,-1 -6,-7 -3,-7 -12,-9 -26,3 -41,14 -53,29 2,2 9,-7 2,5 -5,8 -3,4 -8,5 -5,4 -6,13 -6,17 -3,11 -3,11 0,21 3,13 7,23 11,35l19 71c0,24 0,-7 2,14l9 -1c12,14 14,23 38,25 18,3 38,-3 53,-7 -4,14 -4,10 -11,20 -18,34 -31,79 -47,114 -7,20 -6,36 -13,52 -3,7 -6,14 -9,21 -11,25 -35,95 -52,109 -9,6 -14,2 -24,9 -8,6 -10,10 -19,16 -4,-6 0,-5 -6,-13 -12,2 -3,1 -13,7 -3,8 1,4 -8,8l1 -12c-10,-1 -10,0 -15,7 0,-6 2,0 -4,-3l-5 3 2 -5c-28,16 -8,6 -19,5 -10,-1 -4,3 -16,-5 3,-23 -5,-32 -14,-10 -4,8 5,4 -6,7 -5,-7 -8,9 -3,-13l-6 -4 -3 5c1,10 3,4 -3,14 -5,-4 -5,2 -5,-8 -1,-12 -3,-1 6,-7l2 -30 -17 15c-1,-15 -7,-11 5,-23 -2,-8 -3,-6 -3,-16l-17 0c-9,-4 -5,-3 -9,-7l6 -9 6 1c0,-16 -6,-10 5,-28 4,-8 9,-16 9,-26 -16,-3 -3,-3 -17,5 4,-16 3,-8 6,-10 5,-5 8,-9 12,-14 11,-16 3,-16 37,-39 22,-15 51,-18 80,-10l12 -4c-6,-4 -9,-4 -15,-10l-7 -1c-10,2 -7,2 -16,-5l8 -8c9,0 0,3 9,-7 23,-24 24,-5 17,-33 7,-4 16,-13 20,-19l-2 -11c-9,-6 -2,1 -8,-7 2,-2 5,-3 8,-5 5,-5 3,-3 6,-9l5 -9c-23,4 -2,1 -9,-2 -40,19 -35,24 -26,45 -8,2 -29,15 -32,21 -5,12 1,11 3,12l9 0c0,11 1,2 -3,5 -11,10 -17,14 -26,23 -11,9 -17,11 -30,17 -17,8 -49,35 -58,39l-8 5c-4,7 -10,10 -16,18 0,3 -2,5 0,6 1,4 7,5 7,5 -4,-8 0,-1 3,1l-6 1c-1,0 -1,1 -1,1 -5,16 1,6 -8,16l6 1c5,0 5,-5 6,4l3 6 -4 -6c-2,0 -3,-1 -3,-2 -2,10 4,5 -5,8 -1,-1 -3,-3 -3,-3l-9 -7c-5,10 -6,14 -6,25l15 7c-9,16 -9,40 2,47 6,3 7,1 12,0 0,25 4,32 13,47l11 0c6,-6 6,-7 9,5 6,25 18,18 35,16 17,27 88,6 96,3 12,-6 14,-16 21,-21 11,-7 17,-4 29,-14 15,-14 36,-70 47,-83 0,30 -12,23 -9,77 -43,26 -32,49 -55,50 -4,9 -3,6 -13,10 -5,6 1,-1 -5,5 -6,4 -3,1 -5,6l-9 3c-4,5 -4,2 -10,10l-20 27c-9,-9 -11,-12 -24,-8l-3 10c-11,-2 -10,-3 -14,-14 -2,1 -3,1 -3,2 -2,0 -2,1 -3,2 -5,5 1,5 -2,5l-1 0c7,17 17,24 39,16 9,17 25,30 50,29 7,-1 2,2 4,-8 -14,-7 -22,-6 -34,-14 3,-17 18,-37 34,-46 18,-11 39,-16 50,-31l-5 -1 8 -3c1,0 1,-1 1,-1 15,-20 14,-67 102,-9 20,13 59,72 64,110l8 3 0 -17c-5,28 3,15 7,20 0,-8 0,-18 -1,-20 3,-32 -29,-77 -44,-93 -28,-31 -76,-37 -89,-47l-12 -3 3 -6c-7,-10 0,-17 3,-45 3,-19 8,-29 9,-49 5,-55 29,-127 55,-179 11,-21 17,-36 37,-48 7,-4 9,-8 19,-9l-1 -8 9 2 74 -34 -41 95c-21,53 -50,136 -62,191 -11,43 -15,29 17,78 6,10 12,11 20,20 9,12 24,39 35,43 10,-13 12,-66 15,-81 1,-11 3,-20 4,-29 3,-18 5,-39 9,-55 5,-17 11,-36 14,-54 8,-36 17,-74 23,-110 6,-38 17,-74 24,-111 20,6 28,30 37,52 9,21 42,116 44,134 1,9 -2,17 0,32l6 128c3,27 0,58 1,87l2 128c0,12 -5,23 -3,37l9 1c1,0 1,-1 3,-1 14,-38 2,-133 2,-177 1,-33 1,-62 0,-96 -2,-15 -7,-71 -5,-85 11,16 20,101 29,116l10 5c0,2 -3,3 -1,4l-6 5c0,8 1,14 3,23 0,4 0,6 1,11 5,14 2,4 7,9l4 -3c5,6 3,-2 2,7 21,-1 39,0 60,4 10,2 17,7 25,0 3,-3 -5,-17 -6,-19l-9 -3c0,-1 1,-4 1,-4 2,-5 2,4 2,-6 1,-14 -10,-34 -13,-49 -3,-16 -10,-36 -13,-52 -11,-37 -22,-66 -34,-99 -6,-17 -10,-32 -16,-49 -17,-47 -25,-72 -54,-115 -3,-3 -3,-4 -6,-8 -6,-7 -4,-3 -6,-10l-7 -4 9 2c36,9 47,40 89,56 25,9 93,35 117,10l2 -4c29,-5 -24,-32 9,-94 8,-14 6,-20 9,-25 5,-12 0,-3 6,-8l47 101c25,48 35,98 52,138l46 147c3,15 12,49 16,57 16,0 -3,9 -4,14 -3,12 -3,1 4,7 -12,2 -4,1 -15,4l11 -1c-5,-4 -5,-5 -12,-5 22,-7 6,2 10,-11 -16,4 -24,7 -38,16 -12,6 -21,13 -33,20 -3,8 -3,6 -8,8 -3,15 -62,80 -64,138 -16,8 -39,13 -57,14 1,-12 4,-8 -2,-17 -15,0 -14,11 -33,15l-3 -4c-2,-1 -3,-2 -3,-2 3,-1 -5,1 -5,-9 -17,10 -14,17 -35,21 6,-11 6,-6 3,-18 -14,4 -4,5 -21,12 -18,8 -70,20 -87,20 -68,0 -86,-37 -97,-41 -3,14 -5,11 3,19 -17,-5 -15,-7 -23,-12 -7,-4 -3,-3 -12,-4 -6,11 -3,11 5,18 -17,2 -41,7 -51,19 0,4 2,4 -3,4 -12,0 0,8 -7,-3 -8,0 -6,-7 -6,-16l-6 7c-2,1 -2,2 -3,3 1,-44 3,-16 -6,-26 -2,18 -4,8 4,24l-12 -12c0,17 -11,47 -18,58l-101 111 -6 -38c0,-20 12,-25 -13,-32 -5,-18 -5,-34 -29,-33 -2,8 1,41 26,55l3 1 -6 3 -19 4c5,17 6,10 15,21 14,30 -24,80 -47,95 -35,23 -74,7 -109,-8 -41,-19 -49,-19 -87,-54 -7,-6 -12,-11 -19,-16 -16,-13 -40,-37 -52,-53 7,-4 9,-2 18,-5 0,-16 -33,-25 -23,-56 0,-1 0,-2 0,-2 3,-7 2,-4 2,-11 0,-5 -2,-16 -3,-21 6,2 7,3 13,7 7,-3 4,2 8,-4l-1 -35c3,-24 24,4 33,7 11,-12 2,-4 3,-23 14,1 18,9 26,17 9,-2 11,-1 11,-11l1 -4c-9,-4 0,2 -6,-3 -5,-3 1,0 -5,-3l-3 5c-6,-9 -18,-16 -32,-11l-4 12c-6,-3 -8,-5 -15,-8l-19 5c-3,18 2,23 2,38 -15,-3 -9,-9 -29,-6l0 6c6,2 5,-2 5,8 3,5 3,4 3,9 -2,11 4,1 -6,8l4 6c-7,-6 2,-4 -12,-3 6,27 3,30 18,53l9 12c-6,2 -6,1 -12,4l5 5c-8,6 -2,2 -11,1 -7,-2 3,-2 -6,-1 -8,1 -8,-10 -5,4l16 17z"/>
   <path fill="#A6A093" d="M1045 335c0,-1 0,-2 -2,-2l-19 -63c12,2 9,-1 13,12l9 35c3,13 2,13 -1,18zm-234 -167c-3,-29 21,-34 47,-30 38,4 36,23 35,40 -20,5 -21,6 -44,2 -15,-4 -28,0 -38,-12zm9 92c-2,-8 -2,-19 7,-26 7,-4 60,-10 66,27 3,25 -14,35 -37,29 -21,-4 -32,-12 -36,-30zm-160 2c-12,11 -23,22 -36,33 -18,1 -40,7 -52,-7 -14,-15 -1,-31 9,-42 22,-22 76,-23 79,16zm-35 -96c-6,6 -12,14 -16,18 -16,15 -49,23 -72,12l5 -23c7,-16 65,-51 83,-7zm-74 274c9,-6 10,-5 -6,-8 -5,-28 13,-43 24,-63 21,-35 55,-48 75,-64 25,-20 57,-45 89,-48 64,-8 60,16 88,38 37,26 76,50 101,89 6,10 9,13 4,23 -4,16 0,-6 9,34l-1 7 -8 9c5,9 3,16 2,27l-5 5 -10 14 -6 9c-13,3 -22,11 -37,15 -33,9 -109,-10 -134,-10 -10,-1 -32,4 -44,5 -36,4 -67,7 -94,-10l-3 -3c-3,-2 -6,-4 -8,-5l-12 -12c-1,-2 -9,-8 -7,-9 0,-9 3,-5 -3,-8 -25,14 -17,-24 -14,-35zm-189 -92c-4,-5 -4,-3 -4,-12l15 0c11,18 15,6 30,17 -15,15 -32,3 -41,-5zm-95 -63l-2 5c6,11 5,13 6,29 3,28 6,24 17,36 45,56 108,36 128,41 0,31 -10,54 21,99 7,12 21,22 35,31 13,8 26,9 44,16 23,8 97,15 117,13 65,-7 53,-9 115,-6l114 16c25,4 29,7 52,-4 14,-6 31,-9 46,-15 47,-19 73,-63 83,-110l5 -40c4,-14 -2,-5 9,-9 17,10 -2,0 12,24 27,-20 12,-11 26,-23l-2 -5 7 0c10,3 7,1 10,6l5 1c9,-6 9,-13 9,-20l21 0c3,-29 0,-32 27,-29 2,-27 11,-25 7,-50l1 -8 17 -5c0,-20 -15,-20 -18,-38 9,-9 30,-5 -3,-67 -10,-17 -14,-24 -29,-35 -14,-12 -32,-13 -40,-19l-12 0 3 -21c-6,3 -11,6 -14,8 -9,6 -9,3 -16,-2 1,-13 0,-1 4,-5l0 -15c-14,6 -27,32 -38,31 -6,-1 -7,-4 -6,-12l-3 -4c-12,9 -14,12 -32,15 -14,3 -20,8 -30,12 13,16 30,22 33,46 3,18 3,17 17,31 3,3 3,2 6,6 3,4 3,6 5,11 15,-2 57,-17 47,9 33,-3 25,3 35,9 12,6 22,0 33,14 -1,4 -1,5 -6,8l-9 7 6 7c6,5 1,-1 6,5l5 8c1,6 0,2 1,9l-11 5c5,10 5,2 7,15 -22,18 -8,17 -38,24l-8 14c-8,2 -9,1 -18,1 -19,-1 -11,0 -14,-9l12 -2 11 0c0,-18 7,-15 27,-18l3 -13 6 1 -1 -10c-6,-12 -3,-12 0,-22 -12,-12 -22,-12 0,-27 -3,-2 -14,-1 -26,-3 -2,-6 -2,-9 -5,-13l-21 7c-12,-1 -3,0 -6,-3l-5 -15c-4,-5 -15,1 -24,4 2,16 11,14 -1,26 -17,-3 -2,2 -19,-25 -3,-4 -1,-4 -4,-8 -9,-19 -23,-24 -25,-29 -3,-16 7,-6 0,-24 -3,-7 -7,-13 -12,-16 -4,-2 -15,-8 -18,-10 -12,-5 -30,-6 -11,-20 7,-3 7,-4 11,-8l-7 -8 -5 2c-5,-7 -9,-10 -15,-15 -8,-8 -9,-7 -20,-10l-8 -2c-19,-5 -25,-1 -45,-4 -3,-4 -6,-7 -9,-10l4 -17c-15,5 -10,12 -29,11l-1 -10c0,-7 1,-5 -5,-4 -6,6 -9,8 -21,8l9 -28c0,-1 8,-1 3,-4 -1,0 2,-1 2,-1 -12,4 -29,21 -34,30 -16,1 -12,-5 -32,3 2,12 8,18 9,30 5,19 5,99 -3,110 -18,1 -12,-9 -10,-29 3,-53 3,-60 -9,-106 -17,-3 -16,-16 -66,-12 -56,4 -118,30 -156,67 -15,14 -17,29 -29,48 -31,43 -5,20 -21,44 -45,68 -25,35 -40,110 -12,0 -14,1 -15,-7l9 -55c6,-19 29,-44 29,-61l-46 15c-7,-2 -16,-6 -24,-8 -2,1 -2,1 -2,2 0,0 0,2 0,2l-3 4 0 8c-16,0 -9,-7 -19,4l-5 21 14 9c-2,6 1,3 -3,5l3 14c-8,7 -14,10 -20,18l21 1c-3,17 -1,13 -6,26 15,2 9,0 14,9 -28,13 -40,4 -23,-19 -20,-4 -14,3 -29,-9 3,-21 12,-9 24,-30 -10,-20 -12,-3 -21,-22 6,-9 0,-5 14,-11 -11,-10 -6,0 -9,-13 9,-13 13,-8 26,-15l-11 -9c-5,-4 -5,-3 -3,-11 17,-7 38,6 56,6 2,-5 0,1 3,-7 0,-1 2,-6 2,-6 16,-2 12,2 26,4 9,1 16,-1 27,0 8,-14 11,-20 20,-34 6,-10 18,-24 19,-35 -25,-5 -60,-8 -86,-4 -18,3 -58,24 -69,20l-4 -2 -5 13c-4,5 -1,4 -23,4 0,18 -1,15 -9,21 -19,16 -21,32 -30,61 18,14 -2,34 -6,47l1 9c0,0 16,-1 16,-1z"/>
   <path fill="#A6A093" d="M308 1488c-11,2 -11,4 -20,-2 1,-18 41,-7 9,-126 -2,-7 -5,-14 -8,-20l-6 -12c-16,-21 -7,17 -27,-28 -3,-5 -5,-13 -8,-19l-7 -9c-12,-13 -12,-9 -22,-17 -13,-12 -15,-17 -31,-22 -23,-8 -16,-6 -19,-12 0,0 2,-1 3,-1l6 -1c13,0 38,14 46,21 64,57 18,34 62,73 9,8 9,12 14,23 3,4 3,4 6,9 9,25 17,68 17,93 0,9 -15,50 -15,50zm-174 -99c5,5 3,-8 3,7 -9,-1 -10,-2 -16,-9l-12 -19c-25,-55 9,-85 42,-76 9,2 12,4 20,9 15,12 11,6 12,15 8,3 9,6 12,11l8 9c7,10 12,18 20,27l12 21c4,12 13,23 13,39 -12,-2 -9,0 -15,-11 -3,-6 -4,-10 -7,-16l-10 -16c-4,-7 -9,-13 -12,-18 -3,-3 -6,-7 -7,-9 -6,-10 -3,-1 -3,-11 -3,-1 -5,-1 -8,-5 -8,-9 -1,0 -3,-7 -15,-13 -24,-29 -52,-26 -42,15 -3,71 3,85zm-77 -107c7,6 6,0 6,15l-6 -15zm-23 -17c0,-7 0,-4 2,-4 1,0 0,0 3,-2 6,-2 19,8 24,6 5,-18 -5,-18 -2,-36 0,-2 0,-2 19,-7 7,3 9,5 15,8l4 -12c14,-5 26,2 32,11l3 -5 0 -10 6 -1 14 3 6 4c11,9 6,-1 8,13 -11,-5 -9,-8 -21,-9l-2 6 -1 4c-2,8 -4,-6 0,5 -2,5 1,-2 -2,3l-9 3c-8,-8 -12,-16 -26,-17 -1,19 8,11 -3,23 -9,-3 -30,-31 -33,-7l1 35 0 5 -8 -1c-6,-4 -7,-5 -13,-7 1,5 3,16 3,21 0,7 1,4 -2,11 0,0 0,1 0,2 -10,31 23,40 23,56 -9,3 -11,1 -18,5 12,16 36,40 52,53 7,5 12,10 19,16 38,35 46,35 87,54 35,15 74,31 109,8 23,-15 61,-65 47,-95 -9,-11 -10,-4 -15,-21l19 -4 3 -4c-25,-14 -28,-47 -26,-55 24,-1 24,15 29,33 25,7 13,12 13,32l6 38 101 -111c7,-11 18,-41 18,-58 0,-1 0,-4 0,-6 3,-13 1,-6 4,-10l-1 -17 -3 -6c-5,-38 -44,-97 -64,-110 -88,-58 -87,-11 -102,9 0,0 0,1 -1,1l-3 4c-11,15 -32,20 -50,31 -16,9 -31,29 -34,46 12,8 20,7 34,14l-4 8c-25,1 -41,-12 -50,-29 -22,8 -32,1 -39,-16l-2 1 -7 0 0 7 -14 -1c-6,-6 -3,-5 -5,-8l-6 -7c-1,1 -4,2 -6,2 -1,0 -1,0 -1,1 -15,12 -21,4 -28,-7 -4,0 -3,5 -3,-1 -10,2 -16,7 -33,-2l-8 9c-10,14 -18,3 -29,11 -4,3 -6,10 -13,15 -11,8 -15,1 -17,22l-1 41 0 8 1 -2z"/>
   <path fill="#A6A093" d="M1394 1229c0,-17 -1,-15 -3,-21 -1,-11 3,-13 -6,-12 -1,4 0,2 -6,4 -4,7 -9,11 -20,14 -13,4 -4,0 -13,0 -17,0 -9,15 -31,11l0 -21c-15,6 -16,14 -19,14 -2,0 -2,1 -3,1l-8 5c-30,13 -50,-4 -67,-33 -12,-23 -33,-50 -44,-70l-2 -1c-10,-6 -6,0 -10,-11l-3 -1c-11,-5 -8,-2 -12,-14 -22,1 -9,0 -23,-10 -38,13 -26,11 -50,25 -17,10 -28,20 -38,38 -12,18 -35,87 -40,115 18,5 40,25 50,40 23,37 26,67 61,122 11,15 15,32 49,42 -5,-53 -11,-63 15,-109l15 2 8 -22 16 2c7,-10 10,-13 10,-27l36 10c12,-17 9,-16 26,-29l29 -25c6,1 7,2 12,5 18,-12 26,-24 58,-23l10 9c16,15 3,8 17,12l12 7c8,8 -6,7 15,22 0,1 2,1 2,2 12,8 9,5 11,12 0,-15 3,-14 9,-23 -5,-17 -5,-17 -3,-36l-25 -1 5 -16c-23,5 -17,-3 -21,-15 -9,7 -6,7 -19,6z"/>
   <path fill="#D0CEC6" d="M1086 879c4,4 1,-5 6,9 6,28 -2,4 26,36 7,8 13,15 21,23 5,6 6,6 11,13 4,5 6,8 9,11l33 35c29,28 72,47 110,39 1,-6 0,-4 3,-9l3 0c7,-6 7,-11 9,-24 -11,-9 -11,-9 -17,-22 -4,-11 -12,-11 -20,-20 0,-19 5,-15 14,-21 -3,-12 -11,-10 -20,-15 -22,-12 -16,-9 -19,-16 4,-2 -5,-3 10,-5 5,-1 9,2 11,3 29,12 33,17 38,35l0 9 -15 3 -2 2 26 15c0,19 -2,9 6,25 -23,62 35,28 41,-7 2,-8 -6,-16 -14,-24 -10,-13 -4,-21 13,-14 -2,-12 -5,-15 -14,-22l0 -17 14 -6 -13 -13 -10 1 3 -10 -14 1 -11 -37c-18,-7 -126,-57 -139,-74 -3,-2 -19,-19 -20,-21 -12,-8 -38,-40 -49,-54l-39 -45c-23,-24 -91,-76 -120,-85 4,11 4,8 10,16 28,37 11,16 32,53 12,21 21,48 34,73 10,25 18,48 29,78 6,14 9,27 13,41 5,14 11,23 11,40z"/>
   <path fill="#D0CEC6" d="M136 1010l17 0c0,10 1,8 3,16l6 2c12,0 1,-2 6,6l-2 30 2 1 3 -5 6 4c0,1 3,3 5,5 9,6 -7,-1 4,1 9,-22 17,-13 14,10 12,8 6,4 16,5 11,1 -9,11 19,-5l3 2c6,3 4,-3 4,3 5,-7 5,-8 15,-7 4,6 5,-9 4,8l3 -4c10,-6 1,-5 13,-7 6,8 2,7 6,13 9,-6 11,-10 19,-16 10,-7 15,-3 24,-9 17,-14 41,-84 52,-109 3,-7 6,-14 9,-21 7,-16 6,-32 13,-52 16,-35 29,-80 47,-114 7,-10 7,-6 11,-20 -15,4 -35,10 -53,7 -24,-2 -26,-11 -38,-25l-9 1 -20 5 0 3c-18,5 -5,5 -18,11 -6,3 -14,5 -17,5 -3,6 -1,4 -6,9 -3,2 -6,3 -8,5 6,8 -1,1 8,7l14 -3c-5,7 -6,9 -12,14 -4,6 -13,15 -20,19 7,28 6,9 -17,33 -9,10 0,7 -9,7l8 13 7 1c5,1 12,2 15,4 12,7 5,1 6,9l-18 1c-29,-8 -58,-5 -80,10 -34,23 -26,23 -37,39 -4,5 -7,9 -12,14 14,1 6,0 11,5 0,10 -5,18 -9,26 -11,18 -5,12 -5,28l-6 -1c0,12 0,6 3,16z"/>
   <path fill="#FEFEFE" d="M568 425c4,1 6,0 1,8l-8 24c19,-27 17,16 25,26 32,47 147,17 162,20 37,5 134,34 168,-20 7,-13 -6,-17 -8,-37l14 -4c-5,-17 -11,-19 -19,-31l7 -6c4,-5 3,0 4,-6 -3,-7 0,-2 -3,-7l-6 -7c-3,-7 -5,-8 -9,-13 -12,-17 -52,-47 -70,-56l-6 -7 -6 -2c-2,18 -3,19 -11,33 -4,11 -14,19 -27,25l-6 3 -9 9 -10 2c-3,13 -3,27 -4,40 -2,13 -5,20 -8,32 5,11 -3,6 8,21l27 4c8,4 3,0 5,4l-5 10c-24,4 -32,-3 -42,-16 -3,-3 0,-2 -6,-1 -11,13 -8,15 -29,20 -8,2 -12,4 -22,2 -7,-1 -12,-4 -16,-10 -14,-5 -11,-4 -12,-13l10 -3c3,0 3,1 9,0 3,7 0,9 13,10 4,1 16,-1 19,-3 31,-11 35,-71 38,-99 -36,-38 -68,-29 -64,-74 -19,8 -16,11 -33,22 -21,13 -27,15 -41,30 -3,4 -3,4 -8,7l-27 57c5,6 0,1 5,6z"/>
   <path fill="#E31E24" d="M359 604c5,8 12,17 17,24 6,9 8,15 9,28 3,17 2,54 2,73 7,3 7,5 15,8 30,8 39,-2 64,-7 24,-7 117,-53 152,-69l-3 -14 -5 -1 -4 -21c0,-1 -2,-2 -2,-2 0,0 -1,-1 -1,-2 -4,-1 -2,-1 -7,-2 -19,2 -74,19 -95,27 -35,12 -14,11 -23,14 -2,0 -2,1 -2,2 -15,-4 -10,0 -15,-10 8,-7 6,-4 17,-8l47 -17c11,-6 23,-6 36,-10 14,-3 23,-4 32,-12 -16,-2 -97,2 -117,5 -4,7 0,-5 0,4 2,5 3,-1 0,5 -7,-1 -10,2 -16,-13 15,-10 42,-7 71,-7 44,-3 32,-9 73,0 0,-20 0,-21 11,-32 -20,-1 -34,-4 -54,-4 -25,0 -10,2 -38,-5 -13,-5 -31,-8 -45,-11 -12,-3 -44,-1 -46,-6l-44 2c-13,7 -24,5 -30,20l4 7c8,2 -3,15 -3,34z"/>
   <path fill="#D0CEC6" d="M1238 1423c-5,-3 -8,3 -5,-11 2,-12 32,-42 46,-52 38,-27 90,-33 96,2 4,21 -9,41 -28,54 -12,9 -21,15 -38,21 -15,4 -27,10 -42,8l-5 -9c29,-9 47,-7 69,-24 85,-71 -26,-83 -81,-4l-11 12 -1 3zm123 17l8 -5c10,-10 -2,-5 21,-23 24,-21 30,-54 32,-87l-5 -3c-21,-13 -18,-20 -18,-35l-12 8 -35 -9c3,-13 4,-9 7,-20l-9 4c-3,7 -1,6 -4,14l-6 1c-19,3 -12,15 -32,15 -9,0 -3,-5 -14,5l-12 8c-5,7 -6,8 -11,12 -1,3 -3,5 -4,6 -5,6 1,2 -6,5 -6,8 -17,3 -31,-2 -6,24 -15,21 -42,53 -12,15 -3,1 -19,7 -10,17 -4,55 3,75 10,20 38,19 64,19 40,-1 96,-29 125,-48z"/>
   <path fill="#525252" d="M755 325c-23,0 -49,-7 -31,-30 14,-17 24,-18 44,-7 3,21 0,25 -13,37zm-187 100c-5,-5 0,0 -5,-6l27 -57c5,-3 5,-3 8,-7 14,-15 20,-17 41,-30 17,-11 14,-14 33,-22 -4,45 28,36 64,74 -3,28 -7,88 -38,99 -3,2 -15,4 -19,3 -13,-1 -10,-3 -13,-10l-15 0 8 16c4,6 9,9 16,10 10,2 14,0 22,-2 21,-5 18,-7 29,-20 -2,-2 -13,4 4,-11 3,-2 0,0 5,-4l4 -7c3,-12 6,-19 8,-32 1,-13 1,-27 4,-40l10 -2c-2,-14 6,-1 -5,-9 8,-6 0,-5 2,-10 10,-1 10,-1 16,3l2 4c13,-6 23,-14 27,-25 8,-14 9,-15 11,-33l6 2 6 7c18,9 58,39 70,56 4,5 6,6 9,13l6 7c3,5 0,0 3,7 -1,6 0,1 -4,6l-7 6c8,12 14,14 19,31l-14 4c2,20 15,24 8,37 -34,54 -131,25 -168,20 -15,-3 -130,27 -162,-20 -8,-10 -6,-53 -25,-26l8 -24c0,-1 -1,-2 -1,-2 0,0 -2,-1 -2,-2l2 -4zm-23 7l12 3 -6 5c-3,11 -11,49 14,35 6,3 0,1 3,10 6,5 1,3 7,9l12 10c2,1 5,3 8,5l3 3c27,17 58,14 94,10 12,-1 34,-6 44,-5 25,0 101,19 134,10 15,-4 24,-12 37,-15 4,-11 1,-6 6,-9l10 -14c-1,-5 3,-6 -1,-3l6 -2c1,-11 3,-18 -2,-27l8 -9 -6 -7c0,0 0,0 0,0l7 0c-9,-40 -13,-18 -9,-34 5,-10 2,-13 -4,-23 -25,-39 -64,-63 -101,-89 -28,-22 -24,-46 -88,-38 -32,3 -64,28 -89,48 -20,16 -54,29 -75,64 -11,20 -29,35 -24,63z"/>
   <path fill="#E31E24" d="M872 617l3 8 -8 -2c-32,-19 -52,-11 -88,-13 12,6 77,29 82,36 -17,7 -43,-7 -59,-14 -8,-4 -19,-8 -29,-11 -22,-6 -6,-8 -18,-13l-7 -2c-3,-14 -1,-3 3,-7 10,-4 55,1 67,1 9,1 25,2 34,4 15,4 7,9 20,13zm62 114c-2,-16 -9,-28 -9,-52 0,-27 9,-26 16,-42 11,-23 16,-82 -27,-60 -27,15 -163,-18 -207,-18 16,19 26,55 20,77 -3,12 -7,10 -14,21 55,2 80,7 122,31 20,9 76,49 99,43z"/>
   <path fill="#E31E24" d="M501 1007c29,43 33,44 57,77 3,-19 7,-33 8,-56 2,-16 9,-34 11,-49 4,-43 35,-155 42,-210 5,-37 18,-72 23,-98l-18 0c-29,46 -20,26 -41,75 -12,25 -22,54 -32,83 -18,52 -46,119 -50,178z"/>
   <path fill="#E31E24" d="M847 1019c-4,-21 -10,-40 -16,-58l-35 -111c-11,-34 -25,-70 -40,-101 0,0 -3,-5 -5,-6 -16,-32 -31,-68 -71,-76 5,17 6,12 14,22l44 123c10,47 30,95 39,154 2,8 3,16 5,25 4,20 17,45 17,80l65 6 -17 -58z"/>
   <path fill="#E31E24" d="M636 657c17,2 35,2 49,-6 35,-18 36,-20 22,-62 -6,-19 -4,-16 -16,-28l-55 4c-26,10 -26,65 0,92z"/>
   <path fill="#525252" d="M17 1356c6,-3 8,6 5,-12 -2,-7 -3,-4 -5,-15l8 -2c-5,-10 -5,-22 -6,-33 0,-3 -2,-18 -2,-22 2,-9 5,-7 9,-8 4,-5 -4,-2 7,-5l1 -41c2,-21 6,-14 17,-22 7,-5 9,-12 13,-15 11,-8 19,3 29,-11l8 -9c17,9 23,4 33,2l-6 -6c-1,-1 -1,-2 -3,-2 9,6 20,6 12,9 7,11 13,19 28,7l-6 -3 7 -2c3,-5 5,-8 6,2l6 7c8,1 2,0 5,2 2,1 3,2 9,4 11,-20 6,-1 -1,-24 -17,-2 -5,1 -2,-2 -4,-4 -1,-1 -6,-3l-5 -1c-24,-14 -19,-10 -28,3 -16,-4 -14,-11 -34,-11 -18,1 -26,-4 -33,-3 -6,9 -5,14 -3,22 -29,-5 -23,-1 -29,3 6,5 -11,11 12,3 -2,0 -2,1 -3,2l-12 9c-9,2 -23,10 -28,20 -10,29 6,38 -9,52 -26,23 0,94 6,105z"/>
   <path fill="#525252" d="M308 1488l3 -5c0,-1 1,-1 1,-2 3,-14 11,-26 11,-43 0,-25 -8,-68 -17,-93 -3,-5 -3,-5 -6,-9 -5,-11 -5,-15 -14,-23 -44,-39 2,-16 -62,-73 -8,-7 -33,-21 -46,-21l-6 1c-1,0 -3,1 -3,1 3,6 -4,4 19,12 16,5 18,10 31,22 10,8 10,4 22,17l7 9c3,6 5,14 8,19 20,45 11,7 27,28l6 12c3,6 6,13 8,20 32,119 -8,108 -9,126 9,6 9,4 20,2z"/>
   <path fill="#525252" d="M606 270c-3,-10 -2,-8 -7,-15 13,-8 14,-6 29,1l-22 14zm18 26c9,-9 4,0 15,-10l21 -24c-3,-39 -57,-38 -79,-16 -10,11 -23,27 -9,42 12,14 34,9 52,8z"/>
   <path fill="#525252" d="M1239 1420l11 -12c55,-79 166,-67 81,4 -22,17 -40,15 -69,24l5 9c15,2 27,-4 42,-8 17,-6 26,-12 38,-21 19,-13 32,-33 28,-54 -6,-35 -58,-29 -96,-2 -14,10 -44,40 -46,52 -3,14 0,8 5,11l-3 -6 4 3z"/>
   <path fill="#525252" d="M1197 278l6 6 -5 3c3,3 -6,4 9,4 19,0 -3,-37 -7,-43l12 -14c-8,0 -6,1 -5,-4 5,-4 -1,-2 5,0 0,-20 -17,-61 -26,-76 -18,-28 -27,-32 -61,-43 -3,6 2,3 -7,6 -3,1 -5,0 -11,2 8,6 26,7 40,19 15,11 19,18 29,35 33,62 12,58 3,67 3,18 18,18 18,38z"/>
   <path fill="#525252" d="M867 262c-14,0 -14,-3 -20,-13l18 -1 2 14zm-47 -2c4,18 15,26 36,30 23,6 40,-4 37,-29 -6,-37 -59,-31 -66,-27 -9,7 -9,18 -7,26z"/>
   <path fill="#525252" d="M549 188c-1,-13 31,-33 58,-27 -9,15 -29,31 -58,27zm76 -22c-18,-44 -76,-9 -83,7l-5 23c23,11 56,3 72,-12 4,-4 10,-12 16,-18z"/>
   <path fill="#525252" d="M755 608c12,5 -4,7 18,13 10,3 21,7 29,11 16,7 42,21 59,14 -5,-7 -70,-30 -82,-36 36,2 56,-6 88,13 9,1 8,4 5,-6 -13,-4 -5,-9 -20,-13 -9,-2 -25,-3 -34,-4 -12,0 -57,-5 -67,-1 2,3 2,6 4,9z"/>
   <path fill="#525252" d="M881 168c-19,0 -40,-2 -57,-8 3,-9 0,-8 13,-9 33,-3 36,4 44,17zm-70 0c10,12 23,8 38,12 23,4 24,3 44,-2 1,-17 3,-36 -35,-40 -26,-4 -50,1 -47,30z"/>
   <path fill="#525252" d="M121 1387c9,1 4,1 13,2 -6,-14 -45,-70 -3,-85 28,-3 37,13 52,26l0 -9c0,-1 -1,-1 -1,-1l1 -4c-1,-9 3,-3 -12,-15 -8,-5 -11,-7 -20,-9 -33,-9 -67,21 -42,76l12 19z"/>
   <path fill="#F5B2B6" d="M755 325c13,-12 16,-16 13,-37 -20,-11 -30,-10 -44,7 -18,23 8,30 31,30z"/>
   <path fill="#E31E24" d="M867 723c-9,-4 -23,-13 -30,-18 -20,-15 -61,-26 -66,-29 9,15 38,35 56,43 13,5 63,20 73,20l-33 -16z"/>
   <path fill="#E31E24" d="M367 635l-3 0 -2 -6c-18,-14 -15,-21 -25,-36 1,24 10,39 16,64 5,21 9,42 18,59 2,-25 2,-60 -4,-81z"/>
   <path fill="#D0CEC6" d="M25 1327l3 11c6,8 9,14 15,22l0 2c6,-3 6,-2 12,-4l-9 -12c-15,-23 -12,-26 -18,-53l-3 -5 11 2c10,-7 4,3 6,-8 0,-5 0,-4 -3,-9 -3,10 -3,7 -6,14 -8,-6 -13,13 -5,-19 2,-9 5,4 -2,-4 -4,1 -7,-1 -9,8 0,4 2,19 2,22 1,11 1,23 6,33z"/>
   <path fill="#86776F" d="M549 188c29,4 49,-12 58,-27 -27,-6 -59,14 -58,27z"/>
   <path fill="#313131" d="M1107 119c6,-2 8,-1 11,-2 9,-3 4,0 7,-6l-13 -2 -12 0c0,-1 1,-1 1,-3l6 -4c-4,-6 5,0 -6,-3 0,0 -1,0 -1,0l12 -13 -3 -5c-9,-1 -11,1 -19,4l-7 4c1,1 3,2 3,2l4 5c-1,1 0,13 -18,3 -4,4 -3,-8 -4,5 7,5 7,8 16,2 3,-2 8,-5 14,-8l-3 21 12 0z"/>
   <path fill="#313131" d="M326 743l-12 -3c9,-4 10,0 9,0 0,0 3,2 3,3zm12 -5l-8 -10 23 -6c-4,7 -10,2 -15,13l20 -5c-2,-21 -2,10 -2,-14 -19,3 -39,19 -57,27 7,3 -14,6 9,2l-5 9c3,0 11,-2 17,-5 13,-6 0,-6 18,-11z"/>
   <path fill="#86776F" d="M881 168c-8,-13 -11,-20 -44,-17 -13,1 -10,0 -13,9 17,6 38,8 57,8z"/>
   <path fill="#525252" d="M779 480l-8 6 3 -10 -27 -4 -2 2c-4,-9 3,-2 -9,-8 -6,5 -6,-9 -4,8 10,13 18,20 42,16l5 -10z"/>
   <path fill="#525252" d="M216 1380c13,0 3,-7 3,-9l2 -4c0,0 0,-3 2,-4 -8,-9 -13,-17 -20,-27 0,0 -2,1 -3,1 0,0 -2,1 -2,1l-4 4c0,10 -3,1 3,11 1,2 4,6 7,9 3,5 8,11 12,18z"/>
   <path fill="#525252" d="M1045 335c3,-5 4,-5 1,-18l-9 -35c-4,-13 -1,-10 -13,-12l19 63c2,0 2,1 2,2z"/>
   <path fill="#525252" d="M373 336c-11,4 12,12 -12,2l3 8c-2,1 -2,1 -2,2 9,8 26,20 41,5 -15,-11 -19,1 -30,-17z"/>
   <path fill="#525252" d="M235 1384l-5 9c0,5 2,4 -4,3 3,6 4,10 7,16 6,11 3,9 15,11 0,-16 -9,-27 -13,-39z"/>
   <path fill="#E31E24" d="M359 604c0,-19 11,-32 3,-34l-4 -7c-2,2 0,0 -5,6 0,1 -1,3 -3,4 -6,13 2,23 9,31z"/>
   <path fill="#525252" d="M537 1226l2 -8 -17 6 1 17 -3 15c10,-7 8,-5 11,-21 -8,14 5,12 5,12l1 -21z"/>
   <path fill="#313131" d="M1179 764c4,0 1,-2 4,1 -4,3 -3,6 -4,-1zm6 19l16 -9c-7,-5 -6,-5 -12,-10 -1,-1 -3,-2 -4,-4 -5,-4 -2,-1 -5,-2l-1 6c-17,-1 -7,3 -14,-6l0 4c1,2 17,19 20,21z"/>
   <path fill="#717171" d="M542 1261c0,-6 0,-10 0,-16 0,-1 0,-9 0,-9 -3,-11 -2,-6 -5,-10l-1 21c0,0 -13,2 -5,-12 -3,16 -1,14 -11,21l3 -15c-3,4 -1,-3 -4,10 0,2 0,5 0,6l12 12c-8,-16 -6,-6 -4,-24 9,10 7,-18 6,26 1,-1 1,-2 3,-3l6 -7z"/>
   <path fill="#717171" d="M26 1371c-3,-14 -3,-3 5,-4 9,-1 -1,-1 6,1 9,1 3,5 11,-1 -12,-1 -5,3 -11,-4l-15 -11 6 -14 -3 -11 -8 2c2,11 3,8 5,15 3,18 1,9 -5,12l9 15z"/>
   <path fill="#FEFEFE" d="M628 256c-15,-7 -16,-9 -29,-1 5,7 4,5 7,15l22 -14z"/>
   <path fill="#717171" d="M226 1396c6,1 4,2 4,-3l5 -9 -12 -21c-2,1 -2,4 -2,4l-2 4c0,2 10,9 -3,9l10 16z"/>
   <path fill="#DEDEDE" d="M39 1273c0,-10 1,-6 -5,-8l-1 2 0 -8c-11,3 -3,0 -7,5 7,8 4,-5 2,4 -8,32 -3,13 5,19 3,-7 3,-4 6,-14z"/>
   <path fill="#717171" d="M112 928l-6 14c15,-2 0,-8 10,4 -17,6 0,12 -17,9l-1 4 9 7c0,0 2,2 3,3 9,-3 3,2 5,-8 0,1 1,2 3,2l4 6 -3 -6c-1,-9 -1,-4 -6,-4l-6 -1c9,-10 3,0 8,-16 0,0 0,-1 1,-1l6 -1c-3,-2 -7,-9 -3,-1 0,0 -6,-1 -7,-5 -2,-1 0,-3 0,-6z"/>
   <path fill="#313131" d="M432 541l5 -3c-15,2 -3,3 -17,-2l15 0 -10 -2 -34 -1c9,2 6,2 12,9 -21,-6 -10,-1 -15,1l44 -2z"/>
   <path fill="#313131" d="M197 1177c3,-22 0,-4 12,-16 -12,-5 -8,-7 -20,-6 -3,3 -15,0 2,2 7,23 12,4 1,24 -6,-2 -7,-3 -9,-4 -3,-2 3,-1 -5,-2 2,3 -1,2 5,8l14 1 0 -7z"/>
   <path fill="#717171" d="M194 1342l4 -4c0,0 2,-1 2,-1 1,0 3,-1 3,-1l-8 -9c-6,2 6,4 -9,-5 0,0 -1,-1 -3,-1l0 9c2,7 -5,-2 3,7 3,4 5,4 8,5z"/>
   <path fill="#525252" d="M37 1363l6 -3c-6,-8 -9,-14 -15,-22l-6 14 15 11z"/>
   <path fill="#313131" d="M1092 354c-2,0 -2,0 -2,-1 -28,-9 -10,-3 -18,-9l-12 2c3,9 -5,8 14,9 9,0 10,1 18,-1z"/>
   <path fill="#FEFEFE" d="M867 262l-2 -14 -18 1c6,10 6,13 20,13z"/>
   <path fill="#5B5B5B" stroke="#5B5B5B" stroke-width="1.03116" d="M732 474c-2,-17 -2,-3 4,-8 12,6 5,-1 9,8l2 -2c-11,-15 -3,-10 -8,-21l-4 7c-5,4 -2,2 -5,4 -17,15 -6,9 -4,11 6,-1 3,-2 6,1z"/>
   <path fill="#313131" d="M1195 287l3 0 5 -3 -6 -6 -17 5 -1 8c13,1 -2,1 7,-2 5,-1 0,-1 9,-2z"/>
   <path fill="#313131" d="M862 44l-4 -6c-14,-2 -14,1 -21,7 3,7 -2,5 6,1l19 -2z"/>
   <path fill="#717171" d="M1112 109l0 -23 -12 13c0,0 1,0 1,0 11,3 2,-3 6,3l-6 4c0,2 -1,2 -1,3l12 0z"/>
   <path fill="#313131" d="M160 1220c-9,-1 -13,-6 -13,4 12,1 10,4 21,9 -2,-14 3,-4 -8,-13z"/>
   <path fill="#717171" d="M207 1176c3,0 -3,0 2,-5 1,-1 1,-2 3,-2 0,-1 1,-1 3,-2l0 -3 -6 -3c-12,12 -9,-6 -12,16l7 0 -4 -8c13,4 4,0 7,7z"/>
   <path fill="#717171" d="M145 1230l2 -6c0,-10 4,-5 13,-4l-6 -4 -10 4c-5,-2 -5,5 -4,-7l-6 1 0 10c6,3 0,0 5,3 6,5 -3,-1 6,3z"/>
   <path fill="#525252" d="M106 942c-4,2 -2,-2 -5,5 -2,4 0,4 -2,8 17,3 0,-3 17,-9 -10,-12 5,-6 -10,-4z"/>
   <path fill="#313131" d="M1385 1196c6,-4 -7,-10 6,-3 -4,-2 -3,-4 -4,-9l17 0 -7 -6c-15,2 -4,2 -18,8l8 9 -8 5c6,-2 5,0 6,-4z"/>
   <path fill="#5B5B5B" stroke="#5B5B5B" stroke-width="1.03116" d="M761 377l9 -9 -9 4c7,-11 4,-10 3,-14 10,4 0,2 10,3 -6,-4 -6,-4 -16,-3 -2,5 6,4 -2,10 11,8 3,-5 5,9z"/>
   <path fill="#313131" d="M271 873l18 -1c-1,-8 6,-2 -6,-9 -3,-2 -10,-3 -15,-4 6,6 9,6 15,10l-12 4z"/>
   <path fill="#DEDEDE" d="M259 270c12,4 0,0 0,0z"/>
   <path fill="#313131" d="M1282 1313c-11,2 -9,3 -14,11 -4,6 0,0 -6,7 -1,5 -12,3 -1,5 7,-3 1,1 6,-5 1,-1 3,-3 4,-6 5,-4 6,-5 11,-12z"/>
   <path fill="#717171" d="M1125 1055l-6 8c-4,13 12,4 -10,11 7,0 7,1 12,5l-11 1c11,-3 3,-2 15,-4 -7,-6 -7,5 -4,-7 1,-5 20,-14 4,-14z"/>
   <path fill="#717171" d="M261 858l-8 -13 -8 8c9,7 6,7 16,5z"/>
   <path fill="#313131" d="M1314 951l-8 -5c2,16 3,6 -7,17l15 -3 0 -9z"/>
   <path fill="#5B5B5B" stroke="#5B5B5B" stroke-width="1.03116" d="M338 738l0 -3c5,-11 11,-6 15,-13l-23 6 8 10z"/>
   <path fill="#717171" d="M168 1065l-2 -1c-9,6 -7,-5 -6,7 0,10 0,4 5,8 6,-10 4,-4 3,-14z"/>
   <path fill="#313131" d="M409 1446l0 -4c-3,7 0,0 -4,4 -5,5 -9,4 -8,11 5,-1 2,3 9,-4 3,-3 2,-2 3,-7z"/>
   <path fill="#313131" d="M1393 931l-9 -4c0,27 -6,-1 -3,14 9,-2 0,6 9,-5 0,-1 3,-5 3,-5z"/>
   <path fill="#5B5B5B" d="M770 368l6 -3 -2 -4c-10,-1 0,1 -10,-3 1,4 4,3 -3,14l9 -4z"/>
   <path fill="none" d="M1359 1189l-4 3c3,9 0,3 6,7l9 -5"/>
   <path fill="#717171" d="M186 1070c-11,-2 5,5 -4,-1 -2,-2 -5,-4 -5,-5 -5,22 -2,6 3,13 11,-3 2,1 6,-7z"/>
   <polygon fill="#DEDEDE" points="323,131 318,144 "/>
   <path fill="#313131" d="M134 1389c-9,-1 -4,-1 -13,-2 6,7 7,8 16,9 0,-15 2,-2 -3,-7z"/>
   <path fill="#717171" d="M779 1028l3 14 6 -5c-2,-1 1,-2 1,-4l-10 -5z"/>
   <path fill="#313131" d="M402 737c-8,-3 -8,-5 -15,-8l-2 1c8,7 2,4 12,12l5 -5z"/>
   <path fill="#A9A9B1" d="M144 1234c0,10 -2,9 -11,11l9 5c3,-6 3,-3 5,-9 0,-14 0,-3 -3,-7z"/>
   <path fill="#313131" d="M362 348c0,-1 0,-1 2,-2l-3 -8c24,10 1,2 12,-2l-15 0c0,9 0,7 4,12z"/>
   <path fill="#DEDEDE" d="M308 1488c7,-10 3,-4 0,0z"/>
   <path fill="#717171" d="M878 1074c-2,-13 1,-7 -6,-13 0,10 0,1 -2,6 0,0 -1,3 -1,4l9 3z"/>
   <path fill="#A9A9B1" d="M153 941c-5,-5 3,-4 -11,-5 -3,2 -2,-6 -6,10 14,-8 1,-8 17,-5z"/>
   <path fill="#A9A9B1" d="M1350 1270l-7 0c1,15 4,6 -3,15l6 -1c3,-8 1,-7 4,-14z"/>
   <path fill="#313131" d="M1100 383l-7 0 2 5 0 4c1,-1 1,-1 1,-2 11,-2 -6,-2 11,2l-7 -9z"/>
   <path fill="#717171" d="M1446 1330l-6 -13c-5,11 -3,7 0,14l6 -1z"/>
   <path fill="#A9A9B1" d="M1349 893c-6,-3 -9,-5 -15,-7l1 8 14 -1z"/>
   <path fill="#A9A9B1" d="M362 213c-1,7 -7,-9 0,8l-16 3 -2 9c11,-10 2,-9 18,-9l0 -11z"/>
   <path fill="#313131" d="M881 1253c-2,-9 3,-4 -3,-11 -6,-6 -5,0 -5,0 0,10 8,8 5,9 0,0 1,1 3,2z"/>
   <path fill="#A9A9B1" d="M136 1010c-3,-10 -3,-4 -3,-16l-6 9c4,4 0,3 9,7z"/>
   <path fill="#717171" d="M1118 304l1 10c8,-2 2,2 8,-4 0,-1 -3,-4 -5,-5 -1,0 -3,-1 -4,-1z"/>
   <path fill="#717171" d="M1092 888c-5,-14 -2,-5 -6,-9 -3,5 -2,4 -5,7 -1,-7 -1,-6 -3,-9 5,11 3,11 14,11z"/>
   <path fill="#5B5B5B" stroke="#5B5B5B" stroke-width="1.03116" d="M522 719l-9 -2 1 8c14,-2 3,1 8,-6z"/>
   <path fill="#313131" d="M154 1216l-14 -3c-1,12 -1,5 4,7l10 -4z"/>
   <path fill="#717171" d="M51 1165l-3 14 12 -9c1,-1 1,-2 3,-2 -23,8 -6,2 -12,-3z"/>
   <polygon fill="#A9A9B1" points="1356,902 1349,893 1346,903 "/>
   <path fill="#313131" d="M338 562l-6 10c5,-1 3,3 8,-5 7,-12 0,-3 -2,-5z"/>
   <path fill="#313131" d="M195 1327c-3,-5 -4,-8 -12,-11l0 5c2,0 3,1 3,1 15,9 3,7 9,5z"/>
   <path fill="#717171" d="M539 1218c0,-10 0,-9 -6,-14 1,2 1,12 1,20 -4,-5 -12,8 -7,-20l0 17 -8 -3 3 6 17 -6z"/>
   <path fill="#A9A9B1" d="M264 1082l-3 4c1,-17 0,-2 -4,-8l-1 12c9,-4 5,0 8,-8z"/>
   <path fill="#DEDEDE" d="M400 1064c-1,-1 -3,-2 -1,-2 0,0 -2,-2 -2,-2 -1,-1 -4,-5 -6,-5l-3 6 12 3z"/>
   <path fill="#A9A9B1" d="M755 608c-2,-3 -2,-6 -4,-9 -4,4 -6,-7 -3,7l7 2z"/>
   <path fill="#A9A9B1" d="M172 1168c-1,-10 -3,-7 -6,-2l-1 5c0,-1 0,-1 1,-1 2,0 5,-1 6,-2z"/>
   <path fill="#313131" d="M558 1276l-10 1c7,11 -5,3 7,3 5,0 3,0 3,-4z"/>
   <path fill="#313131" d="M48 1367l-5 -5 0 -2 -6 3c6,7 -1,3 11,4z"/>
   <path fill="#A9A9B1" d="M817 55c6,-8 4,10 4,-10l-9 6c6,-1 5,-3 5,4z"/>
   <path fill="#313131" d="M1384 909c-5,-11 -2,-4 -6,-4l-2 6 8 -2z"/>
   <path fill="#313131" d="M36 1290l-11 -2 3 5c14,-1 5,-3 12,3l-4 -6z"/>
   <path fill="#313131" d="M1115 390l-5 -1c-3,3 -7,-3 0,4 11,12 2,0 5,-3z"/>
   <path fill="#A9A9B1" d="M154 1090c-3,-12 -3,-11 -9,-5 8,3 3,-1 9,5z"/>
   <path fill="#313131" d="M799 1089c1,-9 3,-1 -2,-7l-4 3c1,4 -7,4 6,4z"/>
   <path fill="#A9A9B1" d="M63 1297c0,-15 1,-9 -6,-15l6 15z"/>
   <path fill="#5B5B5B" stroke="#5B5B5B" stroke-width="1.03116" d="M779 480c-2,-4 3,0 -5,-4l-3 10 8 -6z"/>
   <path fill="#313131" d="M134 1163c0,6 -1,1 3,1 8,-3 -3,-3 -12,-9 2,0 2,1 3,2l6 6z"/>
   <path fill="#A9A9B1" d="M1308 1036l-3 0c-3,5 -2,3 -3,9 9,-6 4,1 6,-9z"/>
   <path fill="#313131" d="M569 433c5,-8 3,-7 -1,-8l-2 4c0,1 2,2 2,2 0,0 1,1 1,2z"/>
   <path fill="#313131" d="M940 112l5 -2c3,-5 6,-1 0,-4 -7,2 -8,-7 -5,6z"/>
   <path fill="#DEDEDE" d="M382 991c5,-8 5,-4 0,-15l0 15z"/>
   <path fill="#313131" d="M934 448l1 -7 -7 0c0,0 0,0 0,0l6 7z"/>
   <path fill="none" d="M557 435l-12 -3c18,7 12,0 6,8"/>
   <path fill="#A9A9B1" d="M250 826c4,-3 3,6 3,-5l-9 0c7,4 1,0 6,5z"/>
   <path fill="#A9A9B1" d="M1090 85l-1 -6c-3,3 0,0 -3,5 0,0 -2,4 -3,5l7 -4z"/>
   <path fill="#313131" d="M207 1176c-3,-7 6,-3 -7,-7l4 8 2 -1 1 0z"/>
   <path fill="#313131" d="M1212 230c-6,-2 0,-4 -5,0 -1,5 -3,4 5,4l0 -4z"/>
   <path fill="#717171" d="M610 646l5 1 4 -1 -1 -9c-3,16 0,2 -8,9z"/>
   <path fill="#A9A9B1" d="M606 625l-2 -8 -8 2c5,1 3,1 7,2 0,1 1,2 1,2 0,0 2,1 2,2z"/>
   <path fill="#A9A9B1" d="M855 67l1 -3c-7,1 -4,-4 -6,4 6,4 2,1 5,-1z"/>
   <path fill="#717171" d="M326 743c0,-1 -3,-3 -3,-3 1,0 0,-4 -9,0l12 3z"/>
   <path fill="#A9A9B1" d="M1028 103c2,-6 6,9 0,-8l-3 4 3 4z"/>
   <polygon fill="#313131" points="165,1171 166,1166 159,1168 "/>
   <path fill="#A9A9B1" d="M349 260c4,-2 1,1 3,-5 0,1 -6,1 -6,1l3 4z"/>
   <path fill="#717171" d="M905 87c5,-4 -6,-7 6,-4 -6,-1 -6,-2 -12,-2l9 5 -11 -1 8 2z"/>
   <path fill="#A9A9B1" d="M818 30l-1 -2c-6,4 -2,-7 -5,5l6 -3z"/>
   <path fill="#313131" d="M1159 1108l3 1 3 -4c-9,0 -3,0 -6,3z"/>
   <path fill="#A9A9B1" d="M72 1279c-4,6 -1,1 -8,4l8 1 0 -5z"/>
   <polygon fill="#A9A9B1" points="964,562 969,558 960,560 "/>
   <path fill="#A9A9B1" d="M1305 1036l-2 -5c-1,1 -3,2 -1,2 6,1 -9,0 3,3z"/>
   <path fill="#717171" d="M1179 764c1,7 0,4 4,1 -3,-3 0,-1 -4,-1z"/>
   <polygon fill="#A9A9B1" points="732,677 723,675 730,679 "/>
   <polygon fill="#313131" points="352,1118 344,1121 349,1122 "/>
   <path fill="#313131" d="M367 635c-2,-2 -5,-6 -5,-6l2 6 3 0z"/>
   <polygon fill="#313131" points="238,1082 235,1080 233,1085 "/>
   <path fill="#717171" d="M299 1213c-2,10 3,7 -4,8l4 -8z"/>
   <polygon fill="#313131" points="1239,1420 1235,1417 1238,1423 "/>
   <path fill="#717171" d="M923 489l5 -5 -6 2c4,-3 0,-2 1,3z"/>
   <path fill="#A9A9B1" d="M913 503c-5,3 -2,-2 -6,9l6 -9z"/>
   <path fill="#DEDEDE" d="M1119 949c-1,-10 2,-2 -4,-8l4 8z"/>
   <polygon fill="#A9A9B1" points="378,1378 375,1382 381,1379 "/>
   <polygon fill="#313131" points="1172,1120 1174,1121 1177,1115 "/>
   <path fill="#313131" d="M940 739l-2 4c3,1 3,1 2,-4z"/>
   <path fill="#A9A9B1" d="M321 129c0,0 -3,2 -3,1 9,2 6,-1 3,-1z"/>
   <path fill="#A9A9B1" d="M872 617c3,10 4,7 -5,6l8 2 -3 -8z"/>
   <path fill="#717171" d="M183 1321l0 -5 -1 4c0,0 1,0 1,1z"/>
   <polygon fill="#717171" points="295,1139 286,1142 "/>
   <polygon fill="#717171" points="937,84 932,79 "/>
   <polygon fill="#A9A9B1" points="1369,1435 1361,1440 "/>
   <polygon fill="#A9A9B1" points="1293,1219 1285,1224 "/>
   <polygon fill="#717171" points="1060,243 1055,228 "/>
   <polygon fill="#A9A9B1" points="826,316 820,309 "/>
   <line fill="#717171" x1="324" y1="300" x2="324" y2= "300" />
  </g>
 </g>
</svg>
