<?xml version="1.0" encoding="UTF-8"?>
<!DOCTYPE svg PUBLIC "-//W3C//DTD SVG 1.1//EN" "http://www.w3.org/Graphics/SVG/1.1/DTD/svg11.dtd">
<!-- Creator: CorelDRAW X7 -->
<svg xmlns="http://www.w3.org/2000/svg" xml:space="preserve" width="1067px" height="714px" version="1.1" shape-rendering="geometricPrecision" text-rendering="geometricPrecision" image-rendering="optimizeQuality" fill-rule="evenodd" clip-rule="evenodd"
viewBox="0 0 1028 687"
 xmlns:xlink="http://www.w3.org/1999/xlink">
 <defs>
    <linearGradient id="id0" gradientUnits="userSpaceOnUse" x1="321.028" y1="25.9579" x2="340.362" y2="151.137">
     <stop offset="0" stop-opacity="1" stop-color="#53893A"/>
     <stop offset="1" stop-opacity="1" stop-color="#86AD40"/>
    </linearGradient>
    <linearGradient id="id1" gradientUnits="userSpaceOnUse" x1="371.993" y1="85.6" x2="350.671" y2="256.544">
     <stop offset="0" stop-opacity="1" stop-color="#538B3A"/>
     <stop offset="1" stop-opacity="1" stop-color="#3B472B"/>
    </linearGradient>
    <radialGradient id="id2" gradientUnits="userSpaceOnUse" gradientTransform="matrix(1.39858 0.276712 -0.177806 0.885163 -51 -38)" cx="247.973" cy="270.468" r="151.069" fx="247.973" fy="270.468">
     <stop offset="0" stop-opacity="1" stop-color="#EA5558"/>
     <stop offset="0.611765" stop-opacity="1" stop-color="#DA2125"/>
     <stop offset="0.839216" stop-opacity="1" stop-color="#C62727"/>
     <stop offset="1" stop-opacity="1" stop-color="#DA2125"/>
    </radialGradient>
    <linearGradient id="id3" gradientUnits="userSpaceOnUse" x1="213.275" y1="464.012" x2="199.768" y2="616.175">
     <stop offset="0" stop-opacity="1" stop-color="#CA2627"/>
     <stop offset="1" stop-opacity="1" stop-color="#C12728"/>
    </linearGradient>
    <radialGradient id="id4" gradientUnits="userSpaceOnUse" gradientTransform="matrix(1.45817 0.259044 -0.0778443 0.373639 -64 104)" cx="180.642" cy="240.253" r="75.6784" fx="180.642" fy="240.253">
     <stop offset="0" stop-opacity="1" stop-color="#EA5558"/>
     <stop offset="1" stop-opacity="1" stop-color="#E73A3C"/>
    </radialGradient>
    <linearGradient id="id5" gradientUnits="userSpaceOnUse" x1="189.637" y1="243.17" x2="160.811" y2="415.496">
     <stop offset="0" stop-opacity="1" stop-color="#FADBDE"/>
     <stop offset="1" stop-opacity="1" stop-color="#D32326"/>
    </linearGradient>
    <linearGradient id="id6" gradientUnits="userSpaceOnUse" x1="127.621" y1="295.201" x2="65.278" y2="396.746">
     <stop offset="0" stop-opacity="1" stop-color="#FADBDE"/>
     <stop offset="1" stop-opacity="1" stop-color="#E94A4C"/>
    </linearGradient>
    <linearGradient id="id7" gradientUnits="userSpaceOnUse" x1="133.335" y1="600.03" x2="140.425" y2="541.298">
     <stop offset="0" stop-opacity="1" stop-color="#E13637"/>
     <stop offset="1" stop-opacity="1" stop-color="#C62727"/>
    </linearGradient>
    <radialGradient id="id8" gradientUnits="userSpaceOnUse" gradientTransform="matrix(-0.0846068 1.09458 -0.850688 0.022165 947 -329)" cx="605.212" cy="341.024" r="111.877" fx="605.212" fy="341.024">
     <stop offset="0" stop-opacity="1" stop-color="#538B3A"/>
     <stop offset="1" stop-opacity="1" stop-color="#3B472B"/>
    </radialGradient>
    <radialGradient id="id9" gradientUnits="userSpaceOnUse" gradientTransform="matrix(1.2239 0.838636 -0.694385 1.02258 153 -620)" cx="727.043" cy="455.235" r="112.13" fx="727.043" fy="455.235">
     <stop offset="0" stop-opacity="1" stop-color="#EF7C24"/>
     <stop offset="0.380392" stop-opacity="1" stop-color="#F6CBB2"/>
     <stop offset="0.74902" stop-opacity="1" stop-color="#E74928"/>
     <stop offset="1" stop-opacity="1" stop-color="#D92226"/>
    </radialGradient>
    <radialGradient id="id10" gradientUnits="userSpaceOnUse" gradientTransform="matrix(1.38106 0.724997 -0.515923 0.913256 -40 -470)" cx="700.67" cy="440.746" r="133.343" fx="700.67" fy="440.746">
     <stop offset="0" stop-opacity="1" stop-color="#E43024"/>
     <stop offset="0.619608" stop-opacity="1" stop-color="#E45723"/>
     <stop offset="0.819608" stop-opacity="1" stop-color="#DC3525"/>
     <stop offset="1" stop-opacity="1" stop-color="#9B2825"/>
    </radialGradient>
    <radialGradient id="id11" gradientUnits="userSpaceOnUse" gradientTransform="matrix(1.36269 0.891107 -0.404544 0.653362 -79 -483)" cx="715.343" cy="446.126" r="100.064" fx="715.343" fy="446.126">
     <stop offset="0" stop-opacity="1" stop-color="#FAFBFB"/>
     <stop offset="0.541176" stop-opacity="1" stop-color="#F9F0EC"/>
     <stop offset="1" stop-opacity="1" stop-color="#F2A89C"/>
    </radialGradient>
    <radialGradient id="id12" gradientUnits="userSpaceOnUse" gradientTransform="matrix(1.38892 0.881669 -0.213465 0.329179 -200 -366)" cx="769.385" cy="465.201" r="103.992" fx="769.385" fy="465.201">
     <stop offset="0" stop-opacity="1" stop-color="#F6B293"/>
     <stop offset="1" stop-opacity="1" stop-color="#F8DDDB"/>
    </radialGradient>
    <radialGradient id="id13" gradientUnits="userSpaceOnUse" gradientTransform="matrix(1.41861 0.687924 -0.23291 0.38591 -203 -225)" cx="742.553" cy="465.132" r="84.7594" fx="742.553" fy="465.132">
     <stop offset="0" stop-opacity="1" stop-color="#F29584"/>
     <stop offset="1" stop-opacity="1" stop-color="#F9C6A8"/>
    </radialGradient>
    <linearGradient id="id14" gradientUnits="userSpaceOnUse" x1="441.252" y1="540.41" x2="519.387" y2="445.84">
     <stop offset="0" stop-opacity="1" stop-color="#53893A"/>
     <stop offset="1" stop-opacity="1" stop-color="#42572E"/>
    </linearGradient>
    <linearGradient id="id15" gradientUnits="userSpaceOnUse" x1="652.369" y1="100.898" x2="530.652" y2="439.118">
     <stop offset="0" stop-opacity="1" stop-color="#53893A"/>
     <stop offset="1" stop-opacity="1" stop-color="#86AD40"/>
    </linearGradient>
 </defs>
 <g id="Слой_x0020_1">
  <metadata id="CorelCorpID_0Corel-Layer"/>
  <g id="_3435716720">
   <path fill="url(#id0)" d="M519 141c-64,13 -82,7 -129,51 17,10 31,14 53,12 44,-27 102,-58 76,-63zm-314 -76c-35,-7 22,87 86,125 10,-10 14,-2 13,-21 -30,-32 -50,-71 -99,-104z"/>
   <path fill="url(#id1)" d="M247 204c-49,-28 -156,-122 -122,-127 30,48 132,50 162,88 -22,-36 -1,-107 27,-161 25,-28 49,95 38,150 22,-59 13,-32 123,-97 15,52 -24,104 -57,127 63,-4 112,29 172,27 -37,39 -102,19 -140,9 53,5 166,85 131,94 -71,10 -90,-23 -131,-42 -75,-44 -140,6 -203,-68l0 0z"/>
   <path fill="url(#id2)" d="M326 169c-8,0 -15,5 -21,11 -9,1 -18,3 -26,6 -4,0 -8,1 -13,3 -1,-1 -3,-2 -5,-3 -4,-6 -9,-10 -18,-9 -2,-1 -3,-1 -5,-2 -13,-13 -32,-11 -38,-8 -6,-3 -18,-1 -23,-1 -27,-10 -32,1 -48,15 -2,3 -5,5 -7,7 -1,1 -2,2 -3,2 -26,1 -26,11 -39,28 -4,4 -6,9 -9,12 -30,6 -33,28 -41,52 1,3 0,6 0,8 -14,15 -16,26 -20,46 -1,4 1,7 1,10 -1,7 -1,15 -2,22 -5,26 -3,41 4,63l0 1c1,5 -2,8 -4,13 3,14 3,31 9,40 1,0 1,1 1,1 1,5 1,9 2,13 -1,10 -2,23 -2,29 -6,8 -6,18 -5,28 2,5 4,8 7,11l0 1c2,4 4,7 6,10 1,10 8,15 17,20 2,2 5,4 8,6 15,23 45,29 70,31 2,1 3,2 5,2 11,12 20,14 36,17 13,2 23,-5 31,-11 3,-1 6,-2 9,-3 21,2 47,-10 59,-24 8,3 15,-2 20,-3 16,-7 34,-4 46,-15 6,-1 15,2 19,2 21,-2 44,-7 52,-20 3,-1 6,-2 9,-3 2,-1 5,-1 7,-1 17,-1 32,-9 41,-19 12,0 17,-3 24,-12 10,-6 13,-15 16,-25 17,-12 17,-21 19,-43 5,-7 6,-14 9,-20 9,-15 10,-37 6,-51 0,-7 0,-14 -1,-21 1,-3 1,-6 1,-9 4,-18 0,-26 -8,-34 -2,-10 -5,-20 -9,-30l0 0 0 0 -1 -1 0 0c-1,-4 -4,-11 -8,-17 -3,-7 -7,-14 -11,-21 0,-28 -9,-32 -31,-43 -1,0 -2,-1 -3,-2 -4,-4 -8,-8 -12,-11 -6,-16 -15,-19 -29,-21 -10,-5 -19,-9 -29,-12 -7,-6 -18,-7 -28,-6 -3,0 -6,0 -10,-1 -3,0 -6,0 -10,0 -5,-6 -10,-8 -15,-8l0 0z"/>
   <path fill="url(#id3)" d="M517 335c-16,32 -47,55 -86,70 -3,-4 -5,-8 -12,-11 -7,8 -15,16 -24,23 -68,18 -151,20 -225,12 1,-2 1,-4 2,-7 -5,2 -9,4 -12,6 -64,-8 -119,-22 -149,-39 2,59 29,173 29,173l55 41 51 -4c186,-107 395,-79 371,-264l0 0z"/>
   <path fill="#E13637" fill-rule="nonzero" d="M57 545c21,86 97,78 148,55 4,-20 8,-39 12,-59 75,7 120,-27 189,-43 20,-11 29,-20 47,-34 69,14 70,-47 74,-103 4,131 -26,196 -150,224 -30,-6 -49,7 -68,18 -44,4 -76,27 -114,41 -91,-4 -200,-28 -138,-99z"/>
   <path fill="url(#id4)" d="M186 209c-79,-42 -142,37 -128,66l90 -2c-12,17 8,17 11,25 23,9 43,-4 58,-8l12 17c31,-3 57,-8 91,-6 10,8 24,7 36,11 22,-23 25,-37 37,-59 -32,-23 3,-65 -21,-58 -34,-30 -134,8 -134,21 -38,-15 41,-35 16,-26 0,-28 -60,8 -69,-2l1 21z"/>
   <path fill="#F0898D" fill-rule="nonzero" d="M158 221c13,-8 37,-15 46,-16 27,5 56,0 83,6 19,6 16,18 16,35 19,4 38,19 55,1 26,38 -14,70 -44,77 -8,-18 2,-32 2,-49 -14,-65 -53,1 -96,-39 -26,-1 -69,30 -62,-15l0 0z"/>
   <path fill="url(#id5)" d="M105 226c25,-17 37,-12 57,-19 4,8 7,17 11,25 18,4 38,-1 53,-5 4,11 8,18 11,24 42,-20 61,-3 97,9 -17,14 -42,24 -57,37 11,5 15,13 20,23 -31,16 -66,29 -85,62 -2,-10 -5,-20 -7,-30 -20,19 -34,37 -47,56 -19,-13 -17,-44 -17,-61 -19,15 -25,38 -41,53 -12,-28 -20,-53 -21,-85 -9,17 -19,30 -35,41 -23,-70 20,-129 61,-130l0 0z"/>
   <path fill="#EB5F64" fill-rule="nonzero" d="M146 193c-37,-2 -50,12 -68,42 -33,5 -40,22 -42,45 -21,18 -22,35 -21,65 -9,24 -12,41 -9,68 10,12 13,20 20,31 -4,24 -3,32 18,43 -1,-15 -1,-43 -2,-52 9,-11 13,-23 16,-36 22,-19 18,-33 1,-54 22,-8 27,-18 36,-36 -3,-11 -11,-10 -17,-16 29,-2 25,-31 29,-55 14,-14 25,-30 39,-45l0 0z"/>
   <path fill="#D02427" fill-rule="nonzero" d="M134 602c11,-8 26,-10 39,-16 23,-13 -2,-23 -2,-26 15,-16 30,-18 50,-22 20,-5 53,-13 57,-15 11,-35 25,-15 46,-27 8,7 17,4 26,6 30,5 40,-12 57,-22 -4,-18 19,-23 24,-28 17,3 31,4 48,7 27,-7 28,-24 37,-46 -8,41 -39,61 -65,81l-22 -2c-5,24 -22,24 -33,35l-33 -2c-18,19 -34,23 -51,34 -31,-23 -30,-8 -52,0 -30,8 -50,20 -72,28 -59,47 -89,-3 -125,-21 23,23 48,28 71,36l0 0z"/>
   <path fill="#D32326" fill-rule="nonzero" d="M86 245c-28,27 -36,51 -34,100 -3,40 -4,59 32,82 1,0 2,0 3,0 4,15 9,28 14,42 19,-11 30,-23 35,-34 8,1 16,1 24,1 3,1 6,2 10,3 3,7 2,26 2,29 15,-3 29,-11 42,-17l2 1 -1 1c1,-1 2,-2 2,-3 8,10 13,22 19,34 14,-2 28,-9 40,-15l1 0c18,-32 42,-44 71,-27 1,0 2,-1 2,-2l18 2c31,-22 28,-35 10,-43 2,-3 3,-5 4,-8 38,-16 77,-31 114,-49 -3,-22 -6,-33 -8,-58 -10,7 -19,14 -30,20 -8,17 -21,28 -33,15 -13,24 -36,41 -65,44 -7,2 -14,5 -21,8 -9,16 -14,36 -33,45 -5,-10 -10,-19 -11,-30 -3,0 -5,1 -8,1 -11,9 -23,18 -41,22 -5,-11 -11,-23 -13,-36 -6,-5 -12,-10 -21,-12 -13,19 -45,26 -61,46 -5,-15 -9,-28 -10,-39 -1,1 -2,1 -3,2 -10,-3 -21,-4 -31,-7 -11,-22 -8,-44 2,-73 -8,7 -16,14 -22,21 -2,-3 -5,-6 -9,-10 3,-18 4,-37 8,-56l0 0z"/>
   <path fill="#E12928" fill-rule="nonzero" d="M91 250c16,34 9,48 -3,82 22,16 23,34 21,52 20,3 31,20 38,35 -12,22 -14,40 -39,43 -11,-12 -17,-24 -21,-38 -47,-20 -41,-47 -34,-87 -33,-42 10,-69 38,-87l0 0z"/>
   <path fill="#D02427" fill-rule="nonzero" d="M196 254l5 3c-13,13 -16,24 -21,40l0 7c12,-8 19,-17 30,-26 8,-18 2,-21 -14,-24l0 0zm-49 -31c-25,0 -19,26 -22,45l19 -18c11,-13 8,-16 3,-27l0 0zm69 -19c-17,0 -19,1 -26,17l-1 15c9,-2 15,-7 21,-11 10,-5 7,-10 6,-21zm-51 -25c-15,3 -23,8 -30,20 12,-9 22,-1 34,-1 9,-13 5,-12 -4,-19z"/>
   <path fill="#F3A3A5" fill-rule="nonzero" d="M274 203c3,5 19,-13 14,12 2,4 0,8 0,12 -9,5 -22,4 -33,6 -3,0 -6,3 -9,4 2,-6 3,-9 4,-16 -4,-22 8,-29 24,-18l0 0z"/>
   <path fill="#C72627" fill-rule="nonzero" d="M252 423c-7,8 -19,41 -19,43 8,-4 17,-10 25,-14 6,-8 10,-16 13,-24 -7,0 -13,-3 -19,-5l0 0zm-144 -27c-11,47 1,15 1,40 20,-28 15,-28 -1,-40zm94 -15c-7,18 -4,34 -3,53 9,-10 13,-20 16,-32 1,-13 -4,-14 -13,-21zm189 -12c-23,10 -23,19 -28,40l30 -14c0,-8 0,-15 -2,-26zm-313 -28c-8,14 -5,48 -4,57 5,-8 9,-18 13,-25 4,-14 -3,-20 -9,-32zm252 10c-13,15 -12,32 -14,50l17 -25c2,-8 2,-16 -3,-25l0 0zm-61 -7c-5,14 -13,38 -16,48l22 -18c7,-7 7,-13 10,-21 -5,-9 -9,-5 -16,-9zm-95 -16c-12,10 -17,19 -17,36l-2 27 14 -19c8,-16 12,-26 5,-44zm282 12c-14,11 -15,23 -20,38 45,-8 8,-7 20,-18 6,-10 2,-11 0,-20l0 0zm-319 -47c-2,-1 -6,0 -11,3 -3,15 -4,30 -3,44 4,-12 7,-18 20,-29 0,-7 2,-18 -6,-18zm101 1c-10,7 -23,18 -21,51l23 -24c0,-2 0,-22 -2,-27zm251 6c-3,14 2,28 4,41l15 -19c-4,-10 -16,-20 -19,-22zm-85 -7c-9,9 -13,17 -20,26 -3,12 0,5 -8,20 10,-6 22,-10 31,-16 2,-11 -1,-19 -3,-30l0 0zm-323 -29c-11,24 -15,31 -8,51l12 -29c2,-10 -2,-15 -4,-22zm268 7c-24,5 -24,23 -26,42l16 -13c13,-11 12,-17 10,-29l0 0zm101 -4c-12,10 -23,20 -27,40 7,1 11,-2 18,4 4,-16 9,-24 9,-44l0 0zm-159 -18c-5,9 -10,16 -15,26 1,7 -1,10 4,16l23 -23c-3,-11 0,-14 -12,-19l0 0zm108 -25c-7,8 -7,30 -8,35 6,-1 11,-6 16,-10 4,-15 2,-16 -8,-25zm-121 -27c-18,3 -18,8 -26,23 -1,4 -2,9 -3,14 10,-7 21,-10 31,-13 6,-13 4,-14 -2,-24zm61 0l-3 4c-2,11 -5,23 0,34 0,3 2,7 2,10 5,-8 18,-3 14,-24l-13 -24 0 0z"/>
   <path fill="#E63333" fill-rule="nonzero" d="M246 210c-15,9 -9,19 -5,33 3,-25 14,-32 27,-47 -11,3 -15,6 -22,14z"/>
   <path fill="#EA7073" fill-rule="nonzero" d="M81 573c-16,4 -21,3 -30,19 1,6 2,11 4,15 15,20 43,26 67,28 2,1 3,2 5,2 11,12 20,14 36,17 12,2 23,-5 31,-11 3,-1 6,-2 9,-3 21,2 47,-10 59,-24 8,3 15,-2 20,-3 16,-7 34,-4 46,-15 6,-1 15,2 19,2 18,-2 38,-6 48,-16 -14,3 -28,0 -37,-17 -33,23 -64,46 -102,20 -12,24 -45,41 -75,48 -1,-11 -5,-33 12,-43 -27,-9 -46,2 -73,6 -6,-1 -21,-7 -34,-6 -2,-6 -3,-13 -5,-19l0 0zm372 -13c-9,4 -21,10 -32,15 13,-2 24,-8 32,-15z"/>
   <path fill="#E11F25" fill-rule="nonzero" d="M239 590c-14,0 -24,-4 -33,10 17,3 34,3 49,-6l-16 -4zm79 -34c-10,5 -3,-9 -22,11 0,0 -10,3 -17,13 6,0 30,-8 44,-5 3,-7 6,-13 13,-18l-18 -1 0 0zm-102 -17c-13,1 -15,10 -34,2 -8,10 -17,17 -21,31 19,-9 37,-15 55,-33l0 0zm208 9c-10,0 -15,-2 -25,3 -8,5 -12,11 -23,14 11,-2 22,-5 33,-4 10,-1 18,-1 26,-11l-11 -2 0 0zm-143 -43c-1,0 -2,1 -3,3 -18,3 -28,4 -39,21 12,1 19,3 31,-2 2,-2 10,-14 18,-17 -1,-1 -5,-5 -7,-5zm-177 -12c-2,2 -8,1 -11,3 -3,8 -4,16 -5,24 -1,7 -1,14 -2,21 5,-6 9,-13 14,-19 1,-9 3,-22 4,-29zm1 -5c-1,1 -1,3 -1,5 1,-1 1,-3 1,-5zm275 3l-27 7c-6,8 -17,5 -17,22 12,-1 21,-3 32,-6 7,-8 14,-11 14,-23l-2 0 0 0zm-158 -19c-8,-1 -15,-2 -22,1 -9,9 -9,21 -28,29 11,-4 25,-4 39,-12 4,-7 8,-10 11,-18l0 0zm246 0c-14,-1 -24,11 -27,15 -13,-1 -7,9 -11,14 11,2 20,-3 27,-6 15,-6 12,-13 11,-23zm-399 -35c-9,14 -8,30 -9,46l10 -23c7,-11 2,-14 -1,-23l0 0zm76 3c-6,14 -8,23 -11,39 12,-6 18,-19 18,-19 5,-14 -1,-13 -7,-20zm189 3c-6,1 -10,3 -15,5 -13,7 -19,21 -28,35 7,-5 23,-12 30,-15 5,-10 8,-15 13,-25zm91 -25c-17,8 -23,17 -33,35 13,14 13,-12 26,-12 13,-11 8,-14 7,-23zm-386 5c0,2 1,3 2,4 -1,-1 -1,-3 -2,-4zm-7 -47c-2,17 1,32 7,47 -1,-7 5,-20 5,-24 2,-14 -1,-16 -12,-23zm472 8c-16,12 -32,15 -28,40l10 -1c7,-6 19,-13 18,-39l0 0z"/>
   <path fill="#E55052" fill-rule="nonzero" d="M111 603c-17,0 -20,11 -28,22 40,-8 27,-6 28,-22zm38 -2c-15,5 -17,14 -23,25l40 -9 0 -2c6,-3 10,-8 15,-11l-32 -3 0 0zm-82 -20c-11,13 -9,22 -9,37 17,-17 16,-21 9,-37zm69 -42c-4,2 -7,3 -11,5 -14,9 -20,27 -26,43 16,-11 22,-16 30,-28 0,-8 4,-14 7,-20l0 0zm-86 -20c-8,22 -7,40 -1,62l9 -23 0 -2c3,-14 -4,-26 -8,-37l0 0z"/>
   <path fill="#F3A3A5" fill-rule="nonzero" d="M201 249c-19,5 -20,15 -24,31l-1 20c8,-21 26,-26 25,-51zm95 -4c-22,3 -19,23 -22,40 12,-14 17,-26 22,-40zm-153 -24c-23,9 -18,9 -27,33 -6,8 2,6 4,10 5,-21 18,-27 23,-43zm62 -18c-8,-1 -14,0 -20,9 0,3 -5,15 5,25 7,-19 9,-26 25,-32 -4,-1 -7,-1 -10,-2l0 0zm70 -12c-22,1 -22,26 -27,39 16,-19 23,-23 27,-39z"/>
   <path fill="#E13637" fill-rule="nonzero" d="M222 535c-26,9 -38,12 -52,33 28,-3 35,-15 52,-33zm75 -28c-18,18 -26,28 -55,24l-5 -2c28,15 56,15 60,-22l0 0zm89 -21c-18,13 -30,28 -52,27 26,5 40,9 52,-27zm102 -11c-20,14 -40,31 -70,20 27,18 57,15 70,-20zm-54 -62c-7,16 -16,38 -35,47 30,-6 48,-9 35,-47l0 0z"/>
   <path fill="#C72627" fill-rule="nonzero" d="M235 591c-19,4 -33,15 -45,29 33,0 34,-7 45,-29zm77 -23c-16,-1 -26,2 -40,14 24,8 37,14 57,-12 -7,-1 -12,-2 -17,-2zm111 -23c-21,-1 -34,-4 -51,10 20,2 35,3 51,-10z"/>
   <path fill="url(#id6)" d="M95 354c-15,21 -11,43 -8,67 18,-51 22,-43 8,-67zm60 -71c-21,11 -19,31 -18,54l23 -25 0 -1c2,-11 -2,-20 -5,-28l0 0zm-99 2c-28,18 -16,31 -3,59 8,-9 13,-15 17,-25 -3,-14 -9,-22 -14,-34l0 0zm48 -56c-9,14 -9,27 -7,45 11,-10 22,-15 33,-25 -10,-8 -6,-18 -26,-20zm57 -38c-11,1 -19,5 -25,22 21,3 36,0 48,-20 -9,-1 -16,-2 -23,-2z"/>
   <path fill="url(#id7)" d="M103 557c1,3 -2,14 -2,14 10,-27 15,-28 40,-31 5,15 5,33 -1,47 22,0 40,-16 50,6 -19,11 -50,10 -72,11 -2,-5 1,-8 1,-11 -8,8 -18,8 -30,8 0,-14 -8,-17 -18,-22 8,-13 19,-16 32,-22l0 0z"/>
   <path fill="#F2A5A6" fill-rule="nonzero" d="M25 331c-7,11 -8,21 -8,35 -1,11 1,22 6,31 -1,10 -6,16 -10,24 -5,24 7,44 25,56 -5,1 -6,3 -10,5 -5,15 -1,32 -1,48 -1,22 8,31 22,41 -10,6 -6,12 -7,19 -25,-9 -27,-33 -28,-59 6,-20 -7,-38 1,-54 -18,-25 -21,-56 -3,-75 -11,-27 -8,-51 5,-70 -4,-30 1,-31 19,-45 -13,12 -11,40 -11,44l0 0z"/>
   <path fill="#FADBDE" fill-rule="nonzero" d="M39 287c-1,-30 12,-51 41,-59 8,-23 33,-31 49,-36 -11,13 -16,16 -19,33 -14,2 -14,10 -21,17 -26,-5 -29,16 -20,34 -15,-1 -19,4 -30,11l0 0z"/>
   <path fill="#F2989B" fill-rule="nonzero" d="M57 596c17,27 56,20 65,18 5,16 16,18 26,25 13,1 22,-9 32,-16 -2,14 6,15 9,19 24,-3 41,-18 59,-31 -16,22 -38,35 -65,38 -20,22 -42,5 -62,-7 -29,13 -54,-24 -64,-46z"/>
   <path fill="url(#id8)" d="M607 282c17,1 31,6 48,4 19,-15 32,-41 51,-57 19,-38 39,-74 70,-100 -30,-1 -55,2 -75,25 -24,18 -41,36 -53,64 1,10 -3,19 -6,27 -12,-13 -4,-37 -8,-56 -11,-20 -36,-25 -56,-33 -21,-15 -23,16 -23,32 -1,30 2,61 27,72 1,6 0,12 0,19 -23,2 -48,1 -65,13 -23,0 -42,14 -58,27 0,22 36,25 56,29 -17,8 -48,24 -60,35 -13,17 -36,34 -43,53 18,13 71,11 87,-6 4,51 -5,91 -34,130 8,3 19,1 26,0 23,-14 27,-42 46,-62 49,-48 35,-129 56,-185 7,-11 9,-19 14,-31l0 0z"/>
   <path fill="url(#id9)" d="M933 661c-5,2 -9,3 -13,8 -18,7 -33,12 -49,11 -6,-3 -9,-6 -17,-4 -8,5 -22,13 -32,9 -5,-7 -6,-13 -17,-9 -8,5 -19,13 -30,7 -16,3 -28,8 -42,-1 -1,0 -8,-2 -14,0 -30,12 -58,-2 -86,-12 -3,-3 -6,-6 -10,-9 -16,-1 -31,-3 -43,-20 -1,-1 -2,-3 -4,-4 -31,-6 -53,-27 -58,-69 -2,-6 -1,-8 -6,-14 -5,-3 -11,-11 -12,-24 -1,-59 22,-127 71,-171 6,-7 -3,-11 2,-19 -3,-3 0,-22 -3,-24 7,-11 28,-23 32,-34 24,-3 17,3 38,1 6,-5 14,-10 20,-16 9,-25 29,-35 51,-44 24,-21 47,-27 89,-7 31,-13 28,12 42,27 13,-2 23,-2 32,5 2,4 15,15 16,18 15,7 20,3 29,20 1,8 2,12 9,14 5,15 28,38 25,53 13,16 6,17 11,43 6,8 7,15 9,26 20,5 25,30 17,48l4 17c16,7 19,25 23,45 2,6 2,12 2,18 12,21 11,40 0,61 -7,15 -13,23 -28,30 -19,8 -41,18 -58,20l0 0z"/>
   <path fill="url(#id10)" d="M501 535c1,10 6,17 11,19 5,6 4,8 6,14 5,42 27,63 58,69 2,1 3,3 4,4 12,17 27,19 43,20 4,3 7,6 10,9 28,10 56,24 86,12 6,-2 13,0 14,0 14,9 26,4 42,1 11,6 18,3 27,-2 8,8 15,-2 20,4 10,4 24,-4 32,-9 8,-2 11,1 17,4 16,1 31,-4 49,-11 4,-5 8,-6 13,-8 17,-2 39,-12 58,-20 15,-7 21,-15 28,-30 11,-21 12,-40 0,-61 0,-6 0,-12 -2,-18 -4,-20 -7,-38 -23,-45l-4 -17c8,-18 3,-43 -17,-48 -2,-11 -3,-18 -9,-26 -5,-26 2,-27 -11,-43 3,-15 -20,-38 -25,-53 -7,-2 -8,-6 -9,-14 -9,-17 -14,-13 -29,-20 -1,-3 -14,-14 -16,-18 -9,-7 -19,-7 -32,-5 -14,-15 -11,-40 -42,-27 -42,-20 -65,-14 -89,7 -18,8 -36,16 -47,34 14,-5 34,-16 63,-25 -7,14 -18,23 -14,40 19,7 49,-14 56,-38 8,-3 10,-6 13,1 5,20 -34,83 14,44 8,-7 17,-14 23,-2 -4,6 -11,14 -10,21 17,-6 36,-15 48,-29 6,-6 10,-11 19,-8 0,12 -3,21 -16,32 -13,11 -28,21 -33,35 31,-12 58,-28 86,-38 1,37 -36,44 -62,67 13,0 30,-6 46,-13 -2,4 -7,9 -8,15 10,-3 21,-11 27,-4 -7,7 -16,9 -11,21 5,0 11,0 18,0 10,-3 16,-5 18,7 -9,7 -17,13 -21,26 13,6 26,7 42,5 7,3 12,1 7,16 -7,6 -16,9 -17,19 26,-10 34,-3 16,21 3,1 5,2 8,2 -6,6 -13,11 -16,19 6,5 8,9 19,8 -1,5 1,9 -5,14 12,0 25,-8 33,1 -8,14 -17,20 -33,30 4,1 13,2 16,7 4,19 17,4 22,21 -3,4 -7,9 -12,11 7,10 13,24 6,37 -10,4 -16,2 -25,5l2 8c-7,2 -13,5 -21,3 -12,-1 -18,0 -28,13 -6,-12 -13,-19 -22,-1 -5,-8 -5,-13 -14,-8 -3,7 -2,10 -11,12 -5,-9 -5,-17 -16,-14 0,15 -3,33 -18,29 0,-7 -1,-14 -3,-23 -14,3 -23,18 -41,22 0,-3 -2,-14 -1,-20 -2,-12 -2,-35 -18,-37 -1,18 1,39 -21,43 -1,-14 3,-34 -9,-38 -5,19 -11,62 -30,63 -1,-13 2,-39 -10,-48 -11,21 -17,14 -37,22 -5,8 -3,13 -12,11 1,-6 5,-24 -10,-22 -8,5 -16,14 -26,11 -3,-13 9,-27 4,-43 -5,-7 -8,-12 -19,-11 -12,10 -25,25 -41,21 51,-44 -7,-13 -6,-48 9,-10 18,-15 10,-32 -16,6 -41,23 -47,6 12,-9 27,-20 24,-35 -7,2 -18,8 -22,-7 3,-8 6,-17 10,-25 20,-20 34,-45 12,-70 -21,8 -33,17 -44,38l-1 -1c-11,28 -15,58 -15,86 0,2 1,3 1,5l0 0z"/>
   <path fill="url(#id11)" d="M554 535c16,-2 117,-111 50,-25 8,-8 34,-31 28,-8 -21,22 -24,53 -48,73 29,-12 37,-35 51,-60 16,-8 31,-13 29,10 -16,23 -19,49 -43,62 29,-11 32,-38 54,-57 2,2 10,5 8,16 -19,29 -19,67 -41,99 26,-24 30,-86 67,-88 10,18 1,40 -2,60 4,-13 11,-35 25,-37 12,28 11,64 3,93 16,-30 19,-66 22,-99 8,1 14,-1 17,8 -1,17 2,38 3,55 8,-19 4,-43 14,-57 23,10 38,48 24,77 27,-21 3,-73 19,-63 17,12 19,28 22,53 6,-17 -1,-44 9,-53 20,1 24,14 25,39 6,-15 3,-24 2,-38 5,0 12,-1 18,6l20 23c10,-29 24,-15 34,4 -1,-9 -2,-12 4,-16 10,0 17,1 27,-10 -3,-12 -7,-21 -14,-30 10,-3 17,-5 28,-6 -8,-1 -16,-1 -24,-7 -14,-2 -27,-4 -35,-20 19,-6 41,-14 58,-28 -31,12 -81,36 -91,0 6,-5 13,-8 20,-15 -20,2 -46,11 -61,-5 31,-9 69,-20 97,-42 -32,20 -65,19 -97,27 -4,-4 -9,-8 -11,-15 32,-6 71,-21 102,-40 -41,17 -80,20 -114,16 8,-6 17,-15 28,-19 -15,3 -33,12 -42,1 18,-13 44,-18 66,-24 -20,-1 -45,6 -65,4 15,-9 28,-16 40,-30 -20,15 -78,42 -69,-5 34,-16 71,-39 96,-68 -36,22 -69,44 -110,58 -7,-3 -14,-4 -19,-11 30,-26 74,-38 92,-76 -26,20 -57,51 -91,50 9,-10 17,-20 24,-33 -16,15 -35,32 -60,39 -6,-6 -12,-9 -6,-19 16,-23 36,-35 40,-65 -13,22 -26,43 -49,53 -20,8 -41,9 -45,-10 0,-20 22,-34 41,-45 -32,10 -46,34 -73,49 -1,-3 -2,-6 -2,-9 -3,2 -6,4 -9,6 -25,-7 -5,11 -35,-5 -1,4 -49,-13 -54,-9 -7,6 27,34 23,41 3,2 11,25 14,28 -2,2 -3,5 -5,7 1,0 3,1 4,1 -7,13 -20,31 -26,49 8,-11 21,-20 34,-27 -4,15 -9,38 1,55 -1,7 -1,14 -2,21 -5,17 4,29 -40,91l0 0z"/>
   <path fill="url(#id12)" d="M671 478c-22,-18 -65,-80 -56,-111 8,-14 24,-10 32,-6l11 -4c-1,-10 -2,-19 -4,-29 0,-16 50,21 62,19 16,4 24,18 34,29 26,2 41,11 49,37 3,12 12,15 19,24 20,14 22,43 35,60 16,19 33,46 58,54 24,18 48,15 65,42 -20,8 -36,-3 -54,-4 -5,-8 -11,-11 -19,-14 -20,7 -35,-12 -47,-21 -4,-2 -27,-5 -40,-10 -14,-3 -25,-7 -36,-12 -11,-1 -19,-11 -24,-15 -33,9 -67,-15 -85,-39z"/>
   <path fill="url(#id13)" d="M743 494c-14,6 -24,3 -33,-3 -8,-6 -25,-10 -30,-11 -2,-5 -1,-10 -1,-15 -18,-8 -44,-57 -33,-70 14,-2 28,3 38,8 -38,-8 5,-5 7,-7 -26,-33 -4,-78 22,-32 18,-5 58,29 67,42 3,12 5,23 7,35 25,2 35,16 43,41 7,16 18,24 29,36 20,34 63,37 85,61 -13,6 -21,-5 -33,-11 -14,-5 -26,-8 -40,-13 -8,-13 -18,-15 -26,-18 -14,-4 -30,-3 -42,-6 -6,-6 -6,-14 -7,-24 -9,-5 -14,-8 -23,-11 -5,11 -8,8 -14,10 -3,-11 -6,-13 -16,-12l0 0z"/>
   <path fill="#F4C4BD" fill-rule="nonzero" d="M551 536c-19,13 -26,8 -39,15 2,4 5,11 7,18 11,-8 15,-19 32,-33l0 0zm91 111c-10,4 -18,9 -27,14 5,5 11,7 18,10 1,-10 2,-15 9,-24zm97 14c-5,5 -8,8 -15,12 -3,3 -6,4 -7,9 5,-2 10,1 19,0l0 -3c0,-7 2,-12 3,-18zm58 -444c-5,-6 -10,-7 -14,-6 1,12 -3,22 -8,35 6,-11 9,-21 22,-29zm90 48c-1,-6 -4,-6 -9,-8 -1,-1 -2,-1 -3,-2 -10,4 -7,6 -7,16 4,-5 14,-5 19,-6l0 0zm-23 410c-2,-4 -3,-8 -8,-11 0,-6 0,-12 1,-19 -3,9 -3,19 -8,27l0 6c6,0 10,0 15,-3zm59 -376c0,-6 -2,-9 -4,-12 -3,1 -3,-2 -4,-3 -7,6 -10,11 -13,16 7,-2 14,-1 21,-1zm52 125c-1,-6 -4,-8 -6,-12 -7,1 -7,6 -9,7 -2,5 -4,7 -7,10 7,-2 21,-5 22,-5zm38 86c0,-3 -2,-4 -4,-8 -3,6 -7,10 -11,15 3,0 13,-2 14,-2 0,-2 1,-3 1,-5z"/>
   <path fill="url(#id14)" d="M569 382c15,-28 22,-65 4,-65 -13,2 -71,65 -82,71 -20,12 -59,109 -58,151 34,-13 86,-107 104,-132 13,-10 20,-15 32,-25z"/>
   <path fill="url(#id15)" d="M618 284c70,14 82,-101 123,-144 3,-7 1,-12 1,-17 -21,1 -29,12 -39,30 -11,20 -25,30 -37,49 -26,22 -35,58 -61,74 -4,9 -51,-18 -83,-51 0,4 -9,11 -17,28 40,12 65,61 59,64 -122,25 -98,103 -135,134 7,11 13,-2 24,3 39,-7 76,-56 107,-71 14,-13 18,-50 18,-65 6,-8 -3,-25 -21,-43 11,4 6,-6 12,-2 42,32 42,11 49,11l0 0z"/>
  </g>
 </g>
</svg>
