<svg xmlns="http://www.w3.org/2000/svg" width="210mm" height="297mm" shape-rendering="geometricPrecision" text-rendering="geometricPrecision" image-rendering="optimizeQuality" fill-rule="evenodd" clip-rule="evenodd" viewBox="0 0 21000 29700"><defs><linearGradient id="a" gradientUnits="userSpaceOnUse" x1="10060.6" y1="8288.74" x2="11553.2" y2="15044.5"><stop offset="0" stop-color="#FFFDF1"/><stop offset="1" stop-color="#FDFAEB"/></linearGradient><linearGradient id="b" gradientUnits="userSpaceOnUse" x1="10060.6" y1="8288.77" x2="11553.2" y2="15044.5"><stop offset="0" stop-color="#CAB91B"/><stop offset="1" stop-color="#723F23"/></linearGradient><linearGradient id="c" gradientUnits="userSpaceOnUse" x1="10060.6" y1="8288.74" x2="11553.2" y2="15044.5"><stop offset="0" stop-color="#FAD414"/><stop offset="1" stop-color="#EB861A"/></linearGradient><linearGradient id="d" gradientUnits="userSpaceOnUse" x1="10060.6" y1="8288.77" x2="11553.2" y2="15044.5"><stop offset="0" stop-color="#F6C610"/><stop offset="1" stop-color="#DC5424"/></linearGradient><linearGradient id="e" gradientUnits="userSpaceOnUse" x1="10060.6" y1="8288.74" x2="11553.2" y2="15044.5"><stop offset="0" stop-color="#F6C610"/><stop offset="1" stop-color="#DC5424"/></linearGradient><linearGradient id="f" gradientUnits="userSpaceOnUse" x1="9815.46" y1="8288.71" x2="11254.3" y2="15044.5"><stop offset="0" stop-color="#FCDE10"/><stop offset="1" stop-color="#F59F0D"/></linearGradient><linearGradient id="g" gradientUnits="userSpaceOnUse" x1="9835.2" y1="8288.81" x2="11278.4" y2="15044.5"><stop offset="0" stop-color="#FAD613"/><stop offset="1" stop-color="#EF8918"/></linearGradient><linearGradient id="h" gradientUnits="userSpaceOnUse" x1="9141.68" y1="8288.77" x2="10352.5" y2="15044.5"><stop offset="0" stop-color="#FAD613"/><stop offset="1" stop-color="#EF8918"/></linearGradient><linearGradient id="i" gradientUnits="userSpaceOnUse" x1="9794.89" y1="8288.77" x2="11165.1" y2="15044.5"><stop offset="0" stop-color="#FAD613"/><stop offset="1" stop-color="#EF8918"/></linearGradient><linearGradient id="j" gradientUnits="userSpaceOnUse" x1="9878.86" y1="8288.74" x2="11267.3" y2="15044.5"><stop offset="0" stop-color="#FCDE10"/><stop offset="1" stop-color="#F59F0D"/></linearGradient><linearGradient id="k" gradientUnits="userSpaceOnUse" x1="9636.16" y1="8288.74" x2="10952.4" y2="15044.5"><stop offset="0" stop-color="#FAD613"/><stop offset="1" stop-color="#EF8918"/></linearGradient><linearGradient id="l" gradientUnits="userSpaceOnUse" x1="9965.34" y1="8288.77" x2="11404.3" y2="15044.4"><stop offset="0" stop-color="#FAD613"/><stop offset="1" stop-color="#EF8918"/></linearGradient><linearGradient id="m" gradientUnits="userSpaceOnUse" x1="9786.6" y1="8288.77" x2="11044.5" y2="15044.5"><stop offset="0" stop-color="#FCDE10"/><stop offset="1" stop-color="#F59F0D"/></linearGradient><linearGradient id="n" gradientUnits="userSpaceOnUse" x1="10030.7" y1="8288.74" x2="11489.2" y2="15044.5"><stop offset="0" stop-color="#FAD613"/><stop offset="1" stop-color="#EF8918"/></linearGradient><linearGradient id="o" gradientUnits="userSpaceOnUse" x1="10026.9" y1="8288.84" x2="11496.7" y2="15044.4"><stop offset="0" stop-color="#FAD613"/><stop offset="1" stop-color="#EF8918"/></linearGradient><linearGradient id="p" gradientUnits="userSpaceOnUse" x1="9992.79" y1="8288.74" x2="11263.9" y2="15044.5"><stop offset="0" stop-color="#FCDE10"/><stop offset="1" stop-color="#F59F0D"/></linearGradient><linearGradient id="q" gradientUnits="userSpaceOnUse" x1="10060.6" y1="8288.74" x2="11553.2" y2="15044.5"><stop offset="0" stop-color="#FAD613"/><stop offset="1" stop-color="#EF8918"/></linearGradient><linearGradient id="r" gradientUnits="userSpaceOnUse" x1="10125.3" y1="8288.77" x2="11470.9" y2="15044.5"><stop offset="0" stop-color="#FCDE10"/><stop offset="1" stop-color="#F59F0D"/></linearGradient><linearGradient id="s" gradientUnits="userSpaceOnUse" x1="10066.6" y1="8288.77" x2="11554.6" y2="15044.5"><stop offset="0" stop-color="#FAD613"/><stop offset="1" stop-color="#EF8918"/></linearGradient><linearGradient id="t" gradientUnits="userSpaceOnUse" x1="9415.74" y1="8288.77" x2="10666.6" y2="15044.5"><stop offset="0" stop-color="#FCDE10"/><stop offset="1" stop-color="#F59F0D"/></linearGradient><linearGradient id="u" gradientUnits="userSpaceOnUse" x1="10060.6" y1="8288.77" x2="11553.2" y2="15044.5"><stop offset="0" stop-color="#FFFDF1"/><stop offset="1" stop-color="#FDFAEB"/></linearGradient><linearGradient id="v" gradientUnits="userSpaceOnUse" x1="10220.8" y1="8288.77" x2="11675.9" y2="15044.4"><stop offset="0" stop-color="#E5DD0F"/><stop offset="1" stop-color="#ABA62A"/></linearGradient><linearGradient id="w" gradientUnits="userSpaceOnUse" x1="10060.7" y1="8288.77" x2="11553.2" y2="15044.5"><stop offset="0" stop-color="#CAB91B"/><stop offset="1" stop-color="#723F23"/></linearGradient><linearGradient id="x" gradientUnits="userSpaceOnUse" x1="10060.6" y1="8288.77" x2="11553.2" y2="15044.5"><stop offset="0" stop-color="#D8C908"/><stop offset="1" stop-color="#8D6D2A"/></linearGradient><linearGradient id="y" gradientUnits="userSpaceOnUse" x1="10060.6" y1="8288.77" x2="11553.2" y2="15044.4"><stop offset="0" stop-color="#FFFDF1"/><stop offset="1" stop-color="#FDFAEB"/></linearGradient><linearGradient id="z" gradientUnits="userSpaceOnUse" x1="9037.6" y1="8288.74" x2="10253.2" y2="15044.5"><stop offset="0" stop-color="#FCDE10"/><stop offset="1" stop-color="#F59F0D"/></linearGradient><linearGradient id="A" gradientUnits="userSpaceOnUse" x1="8820.42" y1="8288.71" x2="9987.15" y2="15044.5"><stop offset="0" stop-color="#FDE916"/><stop offset="1" stop-color="#FCC416"/></linearGradient><linearGradient id="B" gradientUnits="userSpaceOnUse" x1="9161.35" y1="8288.77" x2="10385.1" y2="15044.5"><stop offset="0" stop-color="#FCDE10"/><stop offset="1" stop-color="#F59F0D"/></linearGradient><linearGradient id="C" gradientUnits="userSpaceOnUse" x1="9650.36" y1="8288.74" x2="10982.8" y2="15044.5"><stop offset="0" stop-color="#FCDE10"/><stop offset="1" stop-color="#F59F0D"/></linearGradient><linearGradient id="D" gradientUnits="userSpaceOnUse" x1="10060.6" y1="8288.74" x2="11553.2" y2="15044.5"><stop offset="0" stop-color="#D8C908"/><stop offset="1" stop-color="#8D6D2A"/></linearGradient><linearGradient id="E" gradientUnits="userSpaceOnUse" x1="10041" y1="8288.77" x2="11528.3" y2="15044.5"><stop offset="0" stop-color="#E5DD0F"/><stop offset="1" stop-color="#ABA62A"/></linearGradient><linearGradient id="F" gradientUnits="userSpaceOnUse" x1="10035.6" y1="8288.74" x2="11519.8" y2="15044.5"><stop offset="0" stop-color="#F0E411"/><stop offset="1" stop-color="#CEBA18"/></linearGradient><linearGradient id="G" gradientUnits="userSpaceOnUse" x1="10060.6" y1="8288.74" x2="11553.2" y2="15044.5"><stop offset="0" stop-color="#D8C908"/><stop offset="1" stop-color="#8D6D2A"/></linearGradient><linearGradient id="H" gradientUnits="userSpaceOnUse" x1="10060.6" y1="8288.74" x2="11553.2" y2="15044.5"><stop offset="0" stop-color="#D8C908"/><stop offset="1" stop-color="#8D6D2A"/></linearGradient><linearGradient id="I" gradientUnits="userSpaceOnUse" x1="10101.6" y1="8288.74" x2="11584.4" y2="15044.5"><stop offset="0" stop-color="#D8C908"/><stop offset="1" stop-color="#8D6D2A"/></linearGradient><linearGradient id="J" gradientUnits="userSpaceOnUse" x1="9805.64" y1="8288.71" x2="11239" y2="15044.5"><stop offset="0" stop-color="#FDE916"/><stop offset="1" stop-color="#FCC416"/></linearGradient><linearGradient id="K" gradientUnits="userSpaceOnUse" x1="8971.16" y1="8288.77" x2="10137.9" y2="15044.4"><stop offset="0" stop-color="#FDE916"/><stop offset="1" stop-color="#FCC416"/></linearGradient><linearGradient id="L" gradientUnits="userSpaceOnUse" x1="9165.13" y1="8288.74" x2="10331.9" y2="15044.5"><stop offset="0" stop-color="#FDE916"/><stop offset="1" stop-color="#FCC416"/></linearGradient><linearGradient id="M" gradientUnits="userSpaceOnUse" x1="9399.41" y1="8288.71" x2="10575.2" y2="15044.5"><stop offset="0" stop-color="#FCDE10"/><stop offset="1" stop-color="#F59F0D"/></linearGradient><linearGradient id="N" gradientUnits="userSpaceOnUse" x1="9625.07" y1="8288.74" x2="10810.1" y2="15044.5"><stop offset="0" stop-color="#FCDE10"/><stop offset="1" stop-color="#F59F0D"/></linearGradient><linearGradient id="O" gradientUnits="userSpaceOnUse" x1="9578.94" y1="8288.74" x2="10745.8" y2="15044.5"><stop offset="0" stop-color="#FDE916"/><stop offset="1" stop-color="#FCC416"/></linearGradient><linearGradient id="P" gradientUnits="userSpaceOnUse" x1="9867.37" y1="8288.74" x2="11034.2" y2="15044.5"><stop offset="0" stop-color="#FDE916"/><stop offset="1" stop-color="#FCC416"/></linearGradient><linearGradient id="Q" gradientUnits="userSpaceOnUse" x1="10108.4" y1="8288.77" x2="11275.3" y2="15044.5"><stop offset="0" stop-color="#FDE916"/><stop offset="1" stop-color="#FCC416"/></linearGradient><linearGradient id="R" gradientUnits="userSpaceOnUse" x1="10324.5" y1="8288.77" x2="11491.3" y2="15044.5"><stop offset="0" stop-color="#FDE916"/><stop offset="1" stop-color="#FCC416"/></linearGradient><linearGradient id="S" gradientUnits="userSpaceOnUse" x1="8993.48" y1="8288.74" x2="10067.8" y2="15044.5"><stop offset="0" stop-color="#FBE309"/><stop offset="1" stop-color="#F4B704"/></linearGradient><linearGradient id="T" gradientUnits="userSpaceOnUse" x1="9394.2" y1="8288.74" x2="10561.4" y2="15044.5"><stop offset="0" stop-color="#FDE916"/><stop offset="1" stop-color="#FCC416"/></linearGradient><linearGradient id="U" gradientUnits="userSpaceOnUse" x1="9003.43" y1="8288.77" x2="10120.5" y2="15044.5"><stop offset="0" stop-color="#FDE916"/><stop offset="1" stop-color="#FCC416"/></linearGradient><linearGradient id="V" gradientUnits="userSpaceOnUse" x1="8796.44" y1="8288.74" x2="9913.6" y2="15044.5"><stop offset="0" stop-color="#FBE309"/><stop offset="1" stop-color="#F4B704"/></linearGradient><linearGradient id="W" gradientUnits="userSpaceOnUse" x1="10040.1" y1="8288.77" x2="11523.1" y2="15044.5"><stop offset="0" stop-color="#E5DD0F"/><stop offset="1" stop-color="#ABA62A"/></linearGradient><linearGradient id="X" gradientUnits="userSpaceOnUse" x1="10046.8" y1="8288.74" x2="11525.6" y2="15044.5"><stop offset="0" stop-color="#F0E411"/><stop offset="1" stop-color="#CEBA18"/></linearGradient><linearGradient id="Y" gradientUnits="userSpaceOnUse" x1="10060.6" y1="8288.74" x2="11553.2" y2="15044.5"><stop offset="0" stop-color="#E5DD0F"/><stop offset="1" stop-color="#ABA62A"/></linearGradient><linearGradient id="Z" gradientUnits="userSpaceOnUse" x1="10060.6" y1="8288.77" x2="11553.2" y2="15044.5"><stop offset="0" stop-color="#E5DD0F"/><stop offset="1" stop-color="#ABA62A"/></linearGradient><linearGradient id="aa" gradientUnits="userSpaceOnUse" x1="10060.6" y1="8288.77" x2="11553.2" y2="15044.5"><stop offset="0" stop-color="#E5DD0F"/><stop offset="1" stop-color="#ABA62A"/></linearGradient><linearGradient id="ab" gradientUnits="userSpaceOnUse" x1="10060.6" y1="8288.77" x2="11553.2" y2="15044.4"><stop offset="0" stop-color="#E5DD0F"/><stop offset="1" stop-color="#ABA62A"/></linearGradient><linearGradient id="ac" gradientUnits="userSpaceOnUse" x1="10060.6" y1="8288.74" x2="11553.2" y2="15044.5"><stop offset="0" stop-color="#E5DD0F"/><stop offset="1" stop-color="#ABA62A"/></linearGradient><linearGradient id="ad" gradientUnits="userSpaceOnUse" x1="10060.6" y1="8288.74" x2="11553.2" y2="15044.5"><stop offset="0" stop-color="#D8C908"/><stop offset="1" stop-color="#8D6D2A"/></linearGradient><linearGradient id="ae" gradientUnits="userSpaceOnUse" x1="9582.79" y1="8288.74" x2="10848.8" y2="15044.5"><stop offset="0" stop-color="#F4E61E"/><stop offset="1" stop-color="#E3D202"/></linearGradient></defs><path fill="#B8C61D" fill-rule="nonzero" d="M16376 10876c304-167 1095-484 1906-225 811 258 142-272-254-381-557-153-1649-85-1649-85l-3 691z"/><path fill="#838531" fill-rule="nonzero" d="M4434 10220c602-43 7079 49 8609 915 481 273 491 1926-1412 1820-3243-179-7197-2735-7197-2735zM14628 9019c966-14 2679 1744 549 3641l-549-3641z"/><path fill="#9AA32E" fill-rule="nonzero" d="M14628 9019c965-25 2653 1507 502 3210l-502-3210z"/><path fill="#F3B71D" fill-rule="nonzero" d="M3494 13828c-133-279 4044-4130 9400-4054 0 0 1839 2719 990 3462-848 744-9571 2319-10390 592z"/><path fill="#E69B1C" fill-rule="nonzero" d="M6098 11690c1700-996 4098-1954 6796-1916 0 0 1839 2719 990 3462-848 744-9460-565-7786-1546z"/><path fill="#E69B1C" fill-rule="nonzero" d="M3494 13828c-133-279 4932 513 9400-4054 0 0 1839 2719 990 3462-848 744-9571 2319-10390 592z"/><path fill="#F9C520" fill-rule="nonzero" d="M3449 14324c-583-504 157-1153 652-613 495 541-102 1089-652 613z"/><path fill="#F3B81D" fill-rule="nonzero" d="M4194 13835c-86 271-460 393-816 85-49-42-88-85-119-129-57 156-17 354 190 533 508 440 1054 5 745-489zM5233 13873c629 357 110 1082-448 676s-145-1013 448-676z"/><path fill="#F3B81D" fill-rule="nonzero" d="M6254 14820c-748-26-618-940 89-835s618 861-89 835z"/><path fill="#F9C520" fill-rule="nonzero" d="M6502 13230c-453-776 556-1231 903-447 347 785-475 1179-903 447z"/><path fill="#F3B81D" fill-rule="nonzero" d="M6493 11662c-453-776 556-1231 903-447s-475 1178-903 447zM7518 11144c-453-776 556-1231 903-447s-475 1179-903 447z"/><path fill="#F9C520" fill-rule="nonzero" d="M7509 12617c-454-776 556-1231 902-447 347 784-475 1179-902 447z"/><path fill="#F3B81D" fill-rule="nonzero" d="M8136 13921c-454-776 556-1231 903-447s-475 1179-903 447z"/><path fill="#F3B81D" fill-rule="nonzero" d="M7510 14630c-805-399-212-1334 509-869 720 464 250 1245-509 869z"/><path fill="#F9C520" fill-rule="nonzero" d="M8730 12438c-453-776 556-1231 903-447s-475 1179-903 447z"/><path fill="#F3B81D" fill-rule="nonzero" d="M8741 10849c-453-776 556-1231 903-447 347 785-475 1179-903 447z"/><path fill="#F9C520" fill-rule="nonzero" d="M9853 11894c-453-775 556-1230 903-446s-475 1178-903 446z"/><path fill="#FDDA32" fill-rule="nonzero" d="M10035 10546c-453-775 557-1230 903-446 347 784-475 1178-903 446z"/><path fill="#F3B81D" fill-rule="nonzero" d="M11081 11773c-453-776 556-1231 903-447s-475 1179-903 447z"/><path fill="#FDDA32" fill-rule="nonzero" d="M12454 12183c-453-776 556-1231 903-447s-475 1179-903 447z"/><path fill="#FDDA32" fill-rule="nonzero" d="M11773 10729c-453-776 556-1231 903-447s-475 1179-903 447z"/><path fill="#F9C520" fill-rule="nonzero" d="M5438 13656c-436-615 581-1003 910-379s-499 960-910 379zM4003 13280c-453-775 556-1231 903-446 347 784-475 1178-903 446z"/><path fill="#FDDA32" fill-rule="nonzero" d="M4020 13119c-325-556 399-882 648-320 249 563-341 845-648 320z"/><path fill="#F9C520" fill-rule="nonzero" d="M4698 12655c-453-776 556-1231 903-447s-475 1179-903 447z"/><path fill="#F9C520" fill-rule="nonzero" d="M5619 12235c-453-776 556-1231 903-447s-476 1179-903 447z"/><path fill="#9AA32E" fill-rule="nonzero" d="M4661 10286c936 476 5112 824 8251 1016 1613 99 2515-495 2711-1089 185-562-260-1123-1331-1099-3798-251-6880 411-9631 1172z"/><path fill="#B8C61D" fill-rule="nonzero" d="M4509 10211c882 335 5280 756 8419 948 1613 99 2514-495 2711-1089 185-561-260-1123-1331-1099-3798-251-7048 480-9799 1240z"/><path fill="#D5D211" fill-rule="nonzero" d="M5613 10048c773 282 4518 612 7273 765 1412 78 2208-393 2387-865 171-449-215-897-1158-873-3333-201-6085 318-8502 973z"/><path fill="#9AA32E" fill-rule="nonzero" d="M5992 14888c498-399 6654-4361 8744-4365 646-1 1606 1792-249 2819-3062 1697-8495 1546-8495 1546zM15881 10432l52-562 547 338 27 517-446 744z"/><path fill="#9AA32E" fill-rule="nonzero" d="M16355 10990c293-185 1138-473 1963-262 824 212 57-276-344-362-565-121-1671 56-1671 56l52 568z"/><path fill="#FDDA32" fill-rule="nonzero" d="M3434 14149c-373-322 101-737 418-391 316 345-66 695-418 391zM4770 12415c-271-464 333-736 540-267s-285 704-540 267zM5658 12023c-270-463 334-735 541-267 207 469-285 705-541 267z"/><path fill="#F9C520" fill-rule="nonzero" d="M6851 11858c-309-231-124-552 155-301 280 251 136 521-155 301zM7939 11394c-332-87-281-421 34-308s280 390-34 308z"/><path fill="#FDDA32" fill-rule="nonzero" d="M7613 12366c-217-371 267-590 433-214s-228 565-433 214zM8856 12254c-287-492 355-782 575-284 219 498-304 749-575 284zM10007 11640c-246-420 303-668 491-243 187 426-260 641-491 243zM11110 11545c-143-245 178-389 287-141s-152 373-287 141z"/><path fill="#F8D126" fill-rule="nonzero" d="M6212 14495c-363-48-257-489 82-404s261 450-82 404z"/><path fill="#FDDA32" fill-rule="nonzero" d="M6703 13083c-283-555 324-868 542-308 219 561-275 832-542 308zM5724 13554c-383-252-109-672 234-394 344 278 127 632-234 394z"/><path fill="#F8D126" fill-rule="nonzero" d="M4899 14357c-382-251-109-672 235-394 343 279 126 632-235 394z"/><path fill="#B8C61D" fill-rule="nonzero" d="M6868 14577c410-330 5994-4180 8240-4255 592-15 1103 1942-781 2920-2833 1471-7459 1335-7459 1335z"/><path fill="#D5D211" fill-rule="nonzero" d="M8567 13713c310-258 4536-3284 6256-3372 453-20 608 1360-822 2135-2150 1166-5434 1237-5434 1237z"/><path fill="#B8C61D" fill-rule="nonzero" d="M15067 9286c-571-42-2083 170-3384 847 0 0 1047-834 3279-963l105 116z"/><path fill="#B8C61D" fill-rule="nonzero" d="M14866 9160c-869-132-4970 319-6236 973 0 0 2449-1234 6142-1052l94 79zM15091 11623c-338 225-1052 735-1951 815 0 0 1169 104 1847-537l104-278zM15860 10032l-111 397 254 571 331-753zM10736 12667c1159-950 3109-2162 4049-2242 148 1 269-3 360-8 318-17 265-33-342 211-887 358-2597 1076-4067 2039z"/><path fill="#9AA32E" fill-rule="nonzero" d="M15869 10870c-363-226-1139-749-1931-672 0 0 961-372 1750 330l181 342z"/><path fill="#E8DF1E" fill-rule="nonzero" d="M6914 9953s1062 158 1126 158c63 0 3553-1269-1126-158z"/><path fill="url(#a)" d="M6338 14891zm51 0c1294-3 5456-125 8027-1510-2571 1385-6734 1507-8027 1510zm-397-3c6-5 13-10 20-16-7 6-14 11-20 16zm-1124-287h-1 1zm-2 0c-27-15-54-32-81-52-2-1-3-2-5-4 2 2 3 3 5 4 27 20 54 37 81 52zm-86-56zm-1331-221c-1-1-3-2-4-4 1 2 3 3 4 4zm2077-2281l6-4c-2 1-4 3-6 4zm-1092-1823zm0 0c5-1 12-1 18-1-6 0-13 1-18 1z"/><path fill="url(#b)" d="M6379 11307c-1155-577-1940-1084-1945-1087 5 0 12-1 18-1 20-1 43-2 70-3 51 19 113 38 186 57-16 4-31 9-47 13 411 209 1448 393 2747 551 6 48 18 99 37 152-47 22-94 43-141 65-126-172-293-247-451-247-256 0-487 198-474 500z"/><path fill="url(#c)" d="M4118 13730c-5-6-11-13-17-19-127-139-271-199-405-203 74-82 166-175 278-280 9 17 18 35 29 52 158 271 370 387 557 387 296 0 530-293 385-732 103 73 210 107 310 107 319 0 565-340 346-834-26-59-56-111-88-156l13-9c2-1 4-3 6-4 19 62 47 128 87 196 158 270 370 387 556 387 134 0 254-59 333-164 17 7 35 15 53 22-178 142-254 416-59 750 33 56 67 105 104 148-67 15-134 31-199 45-13-47-32-95-59-146-117-224-323-317-519-317-336 0-642 275-425 644-523 74-962 105-1286 126zm3370-595c0-105-26-223-83-352-5-11-10-22-15-32 89 24 182 48 276 72 86 84 179 137 269 163-151 53-300 103-447 149zm-184-2081c47-22 94-43 141-65-47 22-94 43-141 65z"/><path fill="url(#d)" d="M7666 12823c-94-24-187-48-276-72-129-264-335-375-528-375-111 0-218 37-301 104-18-7-36-15-53-22 111-146 141-382 14-670-46-102-102-183-165-245 21-12 41-24 63-36 18 50 42 101 73 155 158 270 370 387 557 387 319 0 565-340 346-834-27-61-58-114-92-161 47-22 94-43 141-65 18 50 42 101 73 155 158 270 370 387 557 387 259 0 470-225 422-574 114 11 227 23 343 34 141 170 308 245 458 245 137 0 260-62 339-173 117 11 235 21 353 30-230 119-359 422-137 801 36 61 73 113 113 159-89 50-177 99-265 147-13-66-35-135-68-209-127-287-343-408-543-408-347 0-647 363-360 855 40 69 84 127 130 177-146 65-292 127-435 185 88-148 103-367-14-630-127-287-342-408-543-408-346 0-647 363-359 855 48 82 101 151 157 206zm3126-1285c-10-30-22-60-36-90-63-144-149-246-245-312 169 13 337 26 505 38-35 70-53 152-50 243-58 41-116 81-174 121z"/><path fill="url(#e)" d="M5803 14597c-143-6-282-14-416-25 190-163 210-492-154-699-120-68-234-98-333-98-362 0-535 392-197 707-181-35-346-78-494-129 114-149 115-386-91-623 324-21 763-52 1286-126 10 17 21 34 34 52 148 210 352 300 535 300 282 0 518-214 434-533 65-14 132-30 199-45 140 166 305 239 453 239 236 0 432-185 429-482 147-46 296-96 447-149 44 12 88 18 130 18 150 0 283-74 360-204 143-58 289-120 435-185 134 145 288 210 427 210h7c-183 105-363 209-538 313-84-49-174-72-260-72-259 0-492 203-474 510-56 34-112 68-166 102-80-30-156-44-228-44-301 0-516 238-504 499-107 68-209 133-304 195-42-157-197-301-477-343-39-6-75-9-111-9-409 0-578 371-429 621zm3840-1970c66-107 93-253 58-427 88-48 176-97 265-147 103 117 217 186 329 214-220 119-437 239-652 360zm1166-634c43-121 44-277-17-455 58-40 116-80 174-121 5 107 40 227 115 356 12 21 25 41 38 60-103 53-207 106-310 160zm1203-597c-8-23-18-46-28-70-14-31-28-59-44-86 121 8 242 16 361 24-95 42-192 87-289 132z"/><path fill="url(#f)" d="M4209 14353l-1-1c96-126 111-317-14-517-35 111-119 197-230 239 19-91-10-204-112-316-85-93-181-131-269-131-137 0-256 94-281 218-16-18-30-36-43-54-2 6-4 11-5 17 54-174 228-300 428-300h14c134 4 278 64 405 203 6 6 12 13 17 19 206 237 205 474 91 623z"/><path fill="url(#g)" d="M3879 14504c-13 0-27 0-40-1-18-1-36-4-54-8-13-2-26-4-40-8-19-5-39-12-59-20-12-5-25-8-38-14-22-10-44-23-66-36-11-6-22-11-33-18-34-21-67-46-100-75-1-1-3-2-4-4-22-18-41-37-59-57l-15-16c-15-17-28-34-41-52l-8-11c-14-20-26-41-37-62l-6-12c-8-18-16-36-21-54l-4-11c-13-43-19-86-18-127v-5c1-37 7-72 18-105 1-6 3-11 5-17 13 18 27 36 43 54-18 93 15 203 132 304 95 82 191 116 276 116 128 0 229-78 254-191 111-42 195-128 230-239 125 200 110 391 14 517l-16 18-13 15c-12 12-25 23-38 33l-23 17c-12 9-25 16-39 23-10 5-21 10-32 15-13 5-26 10-40 14-13 4-27 7-40 9-14 3-27 5-40 6-16 2-32 2-48 2zm-430-180z"/><path fill="url(#h)" d="M5118 14669c-78 0-163-21-250-68h-1-1c-27-15-54-32-81-52-2-1-3-2-5-4-28-20-52-42-75-63h-2c-338-315-165-707 197-707 99 0 213 30 333 98 364 207 344 536 154 699h-1c-70 60-163 97-268 97zm-205-797c-214 0-308 292-14 485 84 56 160 79 222 79 210 0 277-258 13-473-80-64-156-91-221-91z"/><path fill="url(#i)" d="M6110 14801c-149-34-251-110-306-204h-1c-149-250 20-621 429-621 36 0 72 3 111 9 280 42 435 186 477 343-320 206-565 370-710 473zm101-721c-271 0-330 371 1 415 20 3 40 4 58 4 293 0 343-328 24-408-30-7-57-11-83-11z"/><path fill="url(#j)" d="M7059 13617c-148 0-313-73-453-239-37-43-71-92-104-148-195-334-119-608 59-750 83-67 190-104 301-104 193 0 399 111 528 375 5 10 10 21 15 32 57 129 83 247 83 352 3 297-193 482-429 482zm-151-1137c-208 0-383 253-205 603 100 196 232 281 346 281 191 0 333-238 196-589-81-207-215-295-337-295z"/><path fill="url(#k)" d="M7050 12049c-187 0-399-117-557-387-31-54-55-105-73-155-25-71-38-137-41-200-13-302 218-500 474-500 158 0 325 75 451 247 34 47 65 100 92 161 219 494-27 834-346 834zm-234-583c-152 0-194 221 35 392 75 57 141 81 192 81 145 0 171-196-37-382-72-65-138-91-190-91z"/><path fill="url(#l)" d="M8075 11531c-187 0-399-117-557-387-31-54-55-105-73-155-19-53-31-104-37-152 346 42 712 82 1089 120 48 349-163 574-422 574zm-220-468c-204 0-201 256 84 331 40 10 75 15 106 15 211 0 203-224-72-323-45-16-84-23-118-23z"/><path fill="url(#m)" d="M8065 13004c-42 0-86-6-130-18-90-26-183-79-269-163-56-55-109-124-157-206-288-492 13-855 359-855 201 0 416 121 543 408 117 263 102 482 14 630-77 130-210 204-360 204zm-279-1047c-166 0-310 174-173 409 76 130 177 185 267 185 152 0 271-162 166-399-60-138-164-195-260-195z"/><path fill="url(#n)" d="M8022 13576c-18-307 215-510 474-510 86 0 176 23 260 72-255 150-501 297-734 438z"/><path fill="url(#o)" d="M7124 14133c-12-261 203-499 504-499 72 0 148 14 228 44-265 161-511 315-732 455z"/><path fill="url(#p)" d="M9287 12825c-139 0-293-65-427-210-46-50-90-108-130-177-287-492 13-855 360-855 200 0 416 121 543 408 33 74 55 143 68 209 35 174 8 320-58 427-117 66-234 132-349 198h-7zm-201-1114c-221 0-412 231-230 543 100 172 235 246 354 246 202 0 359-216 221-530-81-182-218-259-345-259z"/><path fill="url(#q)" d="M9298 11236c-150 0-317-75-458-245 261 25 528 49 797 72-79 111-202 173-339 173z"/><path fill="url(#r)" d="M10295 12267c-112-28-226-97-329-214-40-46-77-98-113-159-222-379-93-682 137-801 173 15 347 29 521 43 96 66 182 168 245 312 14 30 26 60 36 90 61 178 60 334 17 455-172 90-343 181-514 274zm-92-1091c-188 0-352 197-196 464 85 147 200 210 302 210 173 0 307-184 189-453-69-155-186-221-295-221z"/><path fill="url(#s)" d="M11119 11833c-13-19-26-39-38-60-75-129-110-249-115-356-3-91 15-173 50-243 311 23 620 45 924 66 16 27 30 55 44 86 10 24 20 47 28 70-292 136-591 283-893 437zm106-558c-110 0-205 115-115 270 50 86 117 123 176 123 101 0 180-107 111-264-40-90-108-129-172-129z"/><path fill="url(#t)" d="M5973 13956c-183 0-387-90-535-300-13-18-24-35-34-52-217-369 89-644 425-644 196 0 402 93 519 317 27 51 46 99 59 146 84 319-152 533-434 533zm-235-888c-215 0-308 293-14 486 84 55 159 78 222 78 209 0 277-258 12-472-79-65-155-92-220-92z"/><path fill="url(#u)" d="M14420 13379l54-30-54 30zm67-37c20-11 39-22 59-33-20 11-39 22-59 33zm59-33c2-1 3-2 5-3-2 1-3 2-5 3zm6-4c1 0 2-1 4-2-2 1-3 2-4 2zm5-3c1 0 3-1 4-2-2 1-3 2-4 2zm6-3c1-1 2-1 3-2-1 1-2 1-3 2zm6-4c1 0 1 0 1-1 0 1 0 1-1 1zm7-4zm1496-1840l282-471-282 471zm1691-1234c-247-35-534-46-782-47 248 1 535 12 782 47zm-1325-35l-415-256 415 256zm542-12h-3 3z"/><path fill="url(#v)" d="M18658 10704c-99-105-453-289-684-338-144-31-324-43-511-43-360 0-749 43-973 72l-10-187-42-26c90-4 278-12 501-12h42c248 1 535 12 782 47 96 14 186 31 265 53 279 77 694 363 630 434z"/><path fill="url(#w)" d="M15421 12424c90-189 134-379 144-563 4-13 8-26 12-38 199-213 342-421 438-621l46 267 11-18c-119 312-328 639-651 973z"/><path fill="url(#x)" d="M15577 11823c129-457 72-891-69-1174 144 83 266 162 361 221l-181-342c-51-45-102-86-154-122 38-64 67-128 89-193 26-79 39-158 40-236 56-269-34-530-269-719 254 157 484 386 627 667l2 1-90-56-17 187-56-25-111 397 216 484 50 289c-96 200-239 408-438 621zm292-953z"/><path fill="url(#y)" d="M16355 10990c220-139 752-336 1352-336 199 0 406 22 611 74 109 28 190 44 248 50-58-6-139-22-248-50-205-52-412-74-611-74-600 0-1132 197-1352 336z"/><path fill="url(#z)" d="M4560 13667c-187 0-399-116-557-387-11-17-20-35-29-52h1c-237-465 54-802 388-802 87 0 177 23 262 73 18 50 42 102 73 156 74 125 159 217 247 280 145 439-89 732-385 732zm-281-1160c-249 0-465 260-259 612 113 194 265 278 400 278 228 0 405-243 248-598-91-206-246-292-389-292z"/><path fill="url(#A)" d="M4420 13397c-135 0-287-84-400-278-206-352 10-612 259-612 143 0 298 86 389 292 157 355-20 598-248 598z"/><path fill="url(#B)" d="M5255 13042c-100 0-207-34-310-107-88-63-173-155-247-280-31-54-55-106-73-156l1 1c-148-411 123-699 432-699 159 0 328 76 454 251h1c32 45 62 97 88 156 219 494-27 834-346 834zm-269-1138c-208 0-388 217-216 511 94 162 221 231 333 231 191 0 338-203 207-498-76-172-204-244-324-244z"/><path fill="url(#C)" d="M6175 12622c-186 0-398-117-556-387-40-68-68-134-87-196-116-389 148-659 446-659 129 0 265 51 378 163h1c63 62 119 143 165 245 127 288 97 524-14 670-79 105-199 164-333 164zm-301-1109c-207 0-387 217-216 510 95 162 221 232 333 232 191 0 338-203 208-499-76-171-205-243-325-243z"/><path fill="url(#D)" d="M12301 11264c-119-8-240-16-361-24-304-21-613-43-924-66-168-12-336-25-505-38-174-14-348-28-521-43-118-9-236-19-353-30-269-23-536-47-797-72-116-11-229-23-343-34-377-38-743-78-1089-120-1299-158-2336-342-2747-551 16-4 31-9 47-13 1164 311 4954 676 7864 864l-183 87c-29 13-58 26-88 40zm3233-858c-18-13-37-26-55-38 73-97 126-197 160-298 10-31 18-62 24-93-1 78-14 157-40 236-22 65-51 129-89 193z"/><path fill="url(#E)" d="M12572 11137c-2910-188-6700-553-7864-864-73-19-135-38-186-57h1l-14-5c2375-656 5120-1290 8270-1290 499 0 1009 16 1529 50 23 0 45-1 66-1 459 0 796 112 1013 283 3 2 5 3 7 5 235 189 325 450 269 719-6 31-14 62-24 93-34 101-87 201-160 298-119-77-239-134-358-174 70-80 121-163 152-246 94-248 19-495-225-663 7 1 13 1 19 1l-105-116c-41 2-82 5-122 8-29-11-60-22-91-31 44 3 83 7 117 13l-94-79c-254-12-503-18-745-18h-118c-422-22-835-32-1239-32-2697 0-4998 459-7057 1017 773 282 4518 612 7273 765 105 6 206 8 304 8h76c-52 24-105 49-159 74-175 75-354 156-535 242zm-8063-926zm10558-925zm-201-126z"/><path fill="url(#F)" d="M13190 10821c-98 0-199-2-304-8-2755-153-6500-483-7273-765 2059-558 4360-1017 7057-1017 404 0 817 10 1239 32-2547 20-4379 684-5024 956 1301-518 4280-882 5551-882 121 0 226 3 313 10 31 9 62 20 91 31-2148 151-3157 955-3157 955 1196-623 2571-852 3228-852 50 0 96 2 137 4 244 168 319 415 225 663-31 83-82 166-152 246-203-71-400-94-573-94-355 0-610 98-610 98 54-5 108-7 161-7 268 0 530 62 772 151-2 0-4 1-7 1-10-1-21-2-32-2h-9c-407 21-954 206-1557 480h-76zm-4305-802c-93 37-178 74-252 113h-1l-1 1h-1 1l1-1h1c15-8 101-50 252-113zm-255 114zm613-636c-238 0-905 118-2329 456 0 0 1062 158 1126 158 44 0 1746-614 1203-614z"/><path fill="url(#G)" d="M6338 14891c-221 0-346-3-346-3 6-5 13-10 20-16 25-19 58-43 98-71 145-103 390-267 710-473 95-62 197-127 304-195 221-140 467-294 732-455 54-34 110-68 166-102 233-141 479-288 734-438 175-104 355-208 538-313 115-66 232-132 349-198 215-121 432-241 652-360 171-93 342-184 514-274 103-54 207-107 310-160 302-154 601-301 893-437 97-45 194-90 289-132 30-14 59-27 88-40-2432 1180-5235 3123-5521 3353 0 0 112 4 313 4 1085 0 4754-97 7146-1339 718-373 1088-887 1238-1381-10 184-54 374-144 563 0 1-1 1-2 2-147 307-412 608-843 865l-6 3c0 1 0 1-1 1-1 1-2 1-3 2s-2 1-3 2c-1 0-2 1-2 1-1 1-3 2-4 2 0 1-1 1-1 1-2 1-3 2-4 2l-1 1c-2 1-3 2-5 3-20 11-39 22-59 33-4 3-9 5-13 7l-54 30c-1 1-3 1-4 2-2571 1385-6733 1507-8027 1510h-51zm-346-3zm8584-1597zm-89 51z"/><path fill="url(#H)" d="M16061 11469l-46-267-50-289 38 87 331-753-418-190 17-187 90 56 415 256 42 26 10 187c-116 15-187 27-187 27l51 558-282 471-11 18z"/><path fill="url(#I)" d="M16355 10990l-1-10-51-558s71-12 187-27c224-29 613-72 973-72 187 0 367 12 511 43 231 49 585 233 684 338 0 1 0 1-1 1 43 45 38 76-42 76-14 0-30-1-49-3-58-6-139-22-248-50-205-52-412-74-611-74-600 0-1132 197-1352 336zm-1-10z"/><path fill="url(#J)" d="M3710 14265c-85 0-181-34-276-116-117-101-150-211-132-304 25-124 144-218 281-218 88 0 184 38 269 131 102 112 131 225 112 316-25 113-126 191-254 191z"/><path fill="url(#K)" d="M5103 12646c-112 0-239-69-333-231-172-294 8-511 216-511 120 0 248 72 324 244 131 295-16 498-207 498z"/><path fill="url(#L)" d="M5991 12255c-112 0-238-70-333-232-171-293 9-510 216-510 120 0 249 72 325 243 130 296-17 499-208 499z"/><path fill="url(#M)" d="M7043 11939c-51 0-117-24-192-81-229-171-187-392-35-392 52 0 118 26 190 91 208 186 182 382 37 382z"/><path fill="url(#N)" d="M8045 11409c-31 0-66-5-106-15-285-75-288-331-84-331 34 0 73 7 118 23 275 99 283 323 72 323z"/><path fill="url(#O)" d="M7880 12551c-90 0-191-55-267-185-137-235 7-409 173-409 96 0 200 57 260 195 105 237-14 399-166 399z"/><path fill="url(#P)" d="M9210 12500c-119 0-254-74-354-246-182-312 9-543 230-543 127 0 264 77 345 259 138 314-19 530-221 530z"/><path fill="url(#Q)" d="M10309 11850c-102 0-217-63-302-210-156-267 8-464 196-464 109 0 226 66 295 221 118 269-16 453-189 453z"/><path fill="url(#R)" d="M11286 11668c-59 0-126-37-176-123-90-155 5-270 115-270 64 0 132 39 172 129 69 157-10 264-111 264z"/><path fill="url(#S)" d="M6270 14499c-18 0-38-1-58-4-331-44-272-415-1-415 26 0 53 4 83 11 319 80 269 408-24 408z"/><path fill="url(#T)" d="M7049 13364c-114 0-246-85-346-281-178-350-3-603 205-603 122 0 256 88 337 295 137 351-5 589-196 589z"/><path fill="url(#U)" d="M5946 13632c-63 0-138-23-222-78-294-193-201-486 14-486 65 0 141 27 220 92 265 214 197 472-12 472z"/><path fill="url(#V)" d="M5121 14436c-62 0-138-23-222-79-294-193-200-485 14-485 65 0 141 27 221 91 264 215 197 473-13 473z"/><path fill="url(#W)" d="M7181 14581c-201 0-313-4-313-4 286-230 3089-2173 5521-3353l183-87c181-86 360-167 535-242-1919 907-4310 2626-4540 2818 0 0 3284-71 5434-1237 102-56 197-114 283-175 249-81 498-207 703-400l104-278c-80 54-181 123-301 199 381-499 413-1029 282-1299 44-18 83-32 116-45 115 56 222 114 320 171 141 283 198 717 69 1174-4 12-8 25-12 38-150 494-520 1008-1238 1381-2392 1242-6061 1339-7146 1339zm7824-4158c-23-25-48-44-74-58 45 18 90 36 133 55-18 1-38 2-59 3zm-120-76c-6-1-14-3-21-4 3 0 5-1 7-1 5 2 10 4 14 5z"/><path fill="url(#X)" d="M8567 13713c230-192 2621-1911 4540-2818 54-25 107-50 159-74 603-274 1150-459 1557-480h9c11 0 22 1 32 2 7 1 15 3 21 4 16 6 31 12 46 18 26 14 51 33 74 58-50 1-106 2-167 2h-53c-940 80-2890 1292-4049 2242 1470-963 3180-1681 4067-2039 106-42 195-77 269-105 131 270 99 800-282 1299-386 244-964 555-1650 616 0 0 70 6 185 6 214 0 585-21 959-143-86 61-181 119-283 175-2150 1166-5434 1237-5434 1237z"/><path fill="url(#Y)" d="M11683 10133s1009-804 3157-955c40-3 81-6 122-8l105 116c-6 0-12 0-19-1-41-2-87-4-137-4-657 0-2032 229-3228 852z"/><path fill="url(#Z)" d="M8630 10133zm0 0c76-39 161-77 255-114-166 70-254 114-255 114zm255-114c645-272 2477-936 5024-956h118c242 0 491 6 745 18l94 79c-34-6-73-10-117-13-87-7-192-10-313-10-1271 0-4250 364-5551 882z"/><path fill="url(#aa)" d="M13325 12444c-115 0-185-6-185-6 686-61 1264-372 1650-616 120-76 221-145 301-199l-104 278c-205 193-454 319-703 400-374 122-745 143-959 143z"/><path fill="url(#ab)" d="M16003 11000l-38-87-216-484 111-397 56 25 418 190z"/><path fill="url(#ac)" d="M10736 12667c1159-950 3109-2162 4049-2242h53c61 0 117-1 167-2 21-1 41-2 59-3 43 19 84 38 124 58-33 13-72 27-116 45-74 28-163 63-269 105-887 358-2597 1076-4067 2039z"/><path fill="url(#ad)" d="M15869 10870c-95-59-217-138-361-221-98-57-205-115-320-171-40-20-81-39-124-58s-88-37-133-55c-15-6-30-12-46-18-4-1-9-3-14-5-242-89-504-151-772-151-53 0-107 2-161 7 0 0 255-98 610-98 173 0 370 23 573 94 119 40 239 97 358 174 18 12 37 25 55 38 52 36 103 77 154 122l181 342z"/><path fill="url(#ae)" d="M8040 10111c-64 0-1126-158-1126-158 1424-338 2091-456 2329-456 543 0-1159 614-1203 614z"/></svg>