<svg xmlns="http://www.w3.org/2000/svg" width="210mm" height="297mm" shape-rendering="geometricPrecision" text-rendering="geometricPrecision" image-rendering="optimizeQuality" fill-rule="evenodd" clip-rule="evenodd" viewBox="0 0 21000 29700"><path fill="#CF9E47" fill-rule="nonzero" d="M7729 15301c29-20 66-32 111-32 14 0 27 1 39 3-50 9-100 19-150 29z"/><path fill="#BEAB78" fill-rule="nonzero" d="M7205 9980z"/><path fill="#D3A54F" fill-rule="nonzero" d="M8782 20955c-333 0-775-205-1010-324-25-13-53-28-82-44l-20-12c-60-33-124-73-188-116l-16-11c-67-45-133-96-196-150l-11-9c-64-55-123-114-174-176l-8-9c-25-32-49-64-69-97-55-88-91-180-97-274-6-85 21-184 64-285 184 187 431 339 607 429 235 120 677 325 1010 325 83 0 160-13 225-43 214-101 355-490 471-685 158-266 304-538 442-815 106 0 213-24 333-83 334-162 615-432 864-703 571-621 1080-1305 1605-1969 210 67 421 135 632 202-47 59-95 119-144 178-633 778-1224 1604-1903 2342-249 271-530 541-864 704-119 58-227 81-332 82-94 186-191 372-293 555-49 87-99 174-150 260-14 25-29 52-45 81-23 45-47 94-72 144-35 68-71 138-111 203-70 114-150 213-243 257-65 30-142 43-225 43zm6553-8859c5-11 10-21 15-31-5-3-10-6-15-10 169-161 347-333 459-518v-1c1-1 1-2 2-2v-1c1-2 2-3 3-5v-1l2-2v-1c1-1 1-1 1-2 1 0 1-1 1-1 0-1 1-1 1-2l1-1v-1c1-1 1-1 1-2h1c0-2 1-3 2-4v-1s1-1 1-2l1-1s0-1 1-1v-1c0-1 1-1 1-2 0 0 0-1 1-1 0 0 0-1 1-2 14-26 27-51 38-77 20 22 39 44 58 66 16 18 30 35 43 53l12 16 24 36 12 19c6 11 13 22 19 33l10 20c6 11 11 21 15 32l8 19c5 12 9 23 13 35l5 15c5 17 10 33 13 50l1 4c2 10 4 19 5 29-246 98-497 181-756 246z"/><path fill="#CF9E47" fill-rule="nonzero" d="M13164 16106c-211-67-422-135-632-202 99-125 198-250 298-373 588-723 1104-1437 1652-2177 299-17 583-81 856-177-137 217-301 440-452 643-584 781-1118 1531-1722 2286z"/><path fill="#DBB568" fill-rule="nonzero" d="M14482 13354c70-95 142-191 214-288 229-307 489-664 639-970 259-65 510-148 756-246 1 5 2 10 2 16l2 15c1 11 1 22 2 33v18c0 10-1 21-1 31l-2 18c-1 10-2 20-4 31l-2 16c-2 12-5 23-8 35l-2 12c-4 15-9 31-14 46l-3 7c-4 13-9 26-15 39l-6 15c-4 10-9 20-14 30l-8 17c-5 9-10 19-16 28l-9 17c-5 9-11 19-17 29l-10 15c-7 11-14 22-22 33l-7 10c-10 15-20 29-31 43l-7 10c-9 11-18 22-26 33l-13 15c-7 9-15 18-23 27l-13 16-23 26-15 16-24 27-14 14c-9 10-19 20-28 30l-11 11-39 39-14 15-25 24-19 19-22 20-20 20-21 20-23 22-1 1 15 9c-54 114-123 235-202 359-273 96-557 160-856 177z"/><path fill="#FE0" fill-rule="nonzero" d="M9784 18273c-732-258-1395-630-2005-1109-29-23-85-29-117-8-58 37-82 58-103 124-7 18-6 36-2 53-195 244-332 533-473 810-113 222-380 584-363 837 25 390 553 740 861 897 293 150 912 433 1235 282 214-101 355-490 471-685 204-345 389-700 563-1061 26-54-16-122-67-140z"/><path fill="#D5BE84" fill-rule="nonzero" d="M7014 18269v-1 1zm3-5c1-3 3-6 5-9-2 3-4 6-5 9z"/><path fill="#EADC00" fill-rule="nonzero" d="M8592 20202c-333 0-775-205-1010-325-234-119-593-349-764-624 396 326 938 623 1391 623 290 0 544-123 699-439-256-66-981-308-1511-628 21-60 41-122 63-182 464 343 1059 564 1572 650 117-228 249-454 376-680 111 38 215 62 320 62h2c-138 277-284 548-442 815-116 195-257 584-471 685-65 30-142 43-225 43zm-1522-1624c-57-49-107-99-149-150 32-56 64-109 93-159v-1c1-1 2-2 3-4 1-3 3-6 5-9 5-8 10-16 14-25 40 49 83 96 127 142-36 66-67 136-93 206z"/><path fill="#FE0" fill-rule="nonzero" d="M15721 10735c-509-594-1381-1028-2062-1393-795-425-1546-941-2407-1212-146-46-321-18-431 107-181 207-360 801-402 1089-121-55-138 168-15 243 1493 910 2998 1797 4499 2694 46 28 208 13 241-21 406-416 1096-902 577-1507z"/><path fill="#F29D11" fill-rule="nonzero" d="M14832 11739c-534-312-1087-611-1630-908-537-293-1555-977-1562-981-4-3-850-446-1219-737-12 11-23 23-34 36-171 213-270 498-381 730-152 316-297 635-436 957-572 1324-1067 2691-1545 4052-163 464-328 930-457 1406-83 310-203 662-82 978 238 623 1209 1038 1783 1272 288 117 506 172 794 32 334-162 615-432 864-703 679-739 1270-1565 1903-2342 665-816 1236-1622 1866-2465 237-318 507-689 654-1001-138-91-376-243-518-326z"/><path fill="#FE0" fill-rule="nonzero" d="M11433 13785c-189-231-495-389-795-387-444 3-785 312-909 726-211 705 513 1192 1163 1087 396-64 675-440 716-825 25-240-45-442-175-601zM11179 12311c-13-26-49-35-73-21-232 134-221 561-246 794-11 101 149 121 174 25 41-153 99-300 135-454 27-114 62-235 10-344zM12246 12828c-4-35-42-63-76-65-167-9-278 160-380 273-127 141-232 290-338 447-57 84 55 167 128 110 159-123 307-245 447-390 104-109 237-213 219-375zM12414 13648c-187 53-351 162-515 264-91 56-3 180 87 153 187-58 374-113 540-219 118-76 3-232-112-198zM12369 14540c-162-56-348-44-517-52-115-5-144 161-26 181 168 28 342 87 513 80 108-4 131-174 30-209zM11271 15756c-34-126-91-237-157-349-54-90-174-7-150 81 30 110 54 223 82 334 22 90 42 210 125 264 27 17 60 18 83-8 74-86 44-222 17-322zM10353 15399c15-103-151-126-179-28-47 167-108 329-159 495-36 121-85 257-16 373 15 25 43 33 70 21 132-58 171-223 201-353 38-166 58-338 83-508zM9663 15117c-145 88-299 158-439 253-75 52-263 164-179 279 82 114 263-24 341-74 140-91 257-216 380-329 80-73-13-184-103-129zM9429 14293c-117-22-664-171-676 51-6 99 112 119 186 128 97 11 196 8 294 6 60-2 120-3 179-2 119 3 134-162 17-183zM9842 13435c-80-93-546-604-679-403-63 94 81 179 144 221 144 95 288 192 423 301 72 59 173-49 112-119zM10396 13095c-22-131-45-262-67-392-18-108-30-230-109-312-25-26-67-25-82 11-46 104-17 216 4 324 25 130 50 261 75 391 22 113 199 93 179-22zM11891 15187c-81-61-168-113-253-168-74-47-145 64-86 121 73 72 145 147 224 212 66 53 149 121 238 96 23-6 34-28 35-50 3-92-92-162-158-211z"/><text x="10500" y="14850" fill="#FE0" font-weight="bold" font-size="1042.48" font-family="Arial" transform="rotate(30.193 18002.57 11905.222)">SUN CREA</text><text x="10500" y="14850" fill="#FE0" font-weight="bold" font-size="1042.48" font-family="Arial" transform="rotate(30.193 16045.794 19159.553)">M</text><path fill="#D5BE84" fill-rule="nonzero" d="M7529 17368c-16-31-31-64-43-96l-6-15 6 15c12 32 27 65 43 96zM7480 17256c0-1 0-1-1-2 1 1 1 1 1 2zm-2-5v-1 1z"/><path fill="#C29949" fill-rule="nonzero" d="M15335 12055c169-161 347-333 459-518-112 185-290 357-459 518zm459-519c1-1 1-2 2-2-1 0-1 1-2 2zm2-3c1-2 2-3 3-5-1 2-2 3-3 5zm3-6l2-2-2 2zm2-3c1-1 1-1 1-2 0 1 0 1-1 2zm2-3c0-1 1-1 1-2 0 1-1 1-1 2zm2-3v-1 1zm1-3h1-1zm3-4v-1 1zm1-3l1-1-1 1zm2-2v-1 1zm1-3s0-1 1-1c-1 0-1 1-1 1zm2-3z"/><path fill="#D5BE84" fill-rule="nonzero" d="M15734 10751v-1 1zm-2-3l-1-1 1 1zm-3-3s0-1-1-1c1 0 1 1 1 1zm-2-3l-2-2 2 2zm-3-3c-1-1-2-2-3-4 1 2 2 3 3 4zm-3-4c-1-1-1-2-2-3 1 1 1 2 2 3z"/><path fill="#EADC00" fill-rule="nonzero" d="M15335 12055c-139-91-366-235-503-316-534-312-1087-611-1630-908-537-293-1555-977-1562-981-3-2-487-255-882-505 208 110 422 239 625 348 689 372 1363 792 2101 1105 366 155 817 327 1237 327 67 0 134-4 199-14 306-45 529-235 724-461 25 27 51 54 75 82 1 1 1 2 2 3 1 2 2 3 3 4 1 0 1 1 1 1l2 2s1 1 1 2c1 0 1 1 1 1 1 1 2 1 2 2l1 1c1 1 1 2 2 2v1c225 272 206 520 81 749-1 1-1 2-1 2-1 0-1 1-1 1 0 1-1 1-1 2v1c-1 0-1 1-1 1l-1 1c0 1-1 2-1 2v1c-1 1-2 2-2 4h-1c0 1 0 1-1 2v1l-1 1c0 1-1 1-1 2s0 1-1 1c0 1 0 1-1 2v1l-2 2v1c-1 2-2 3-3 5v1c-1 0-1 1-2 2v1c-112 185-290 357-459 518z"/><path fill="#DE9110" fill-rule="nonzero" d="M9728 18659c-148 0-292-47-459-115-544-222-1444-606-1740-1176-16-31-31-64-43-96l-6-15v-1c0-1 0-1-1-2 0-1 0-2-1-3v-1c-24-68-36-138-41-209 174 181 341 379 502 495 352 251 777 385 1207 385 132 0 265-13 396-38 1138-223 1855-1289 2550-2118 750-894 1623-1824 2114-2898 133-289 298-706 136-1016-141-271-488-401-730-568-419-290-836-581-1255-871-582-404-1340-632-1816-1173 71 32 144 68 217 106 395 250 879 503 882 505 7 4 1025 688 1562 981 543 297 1096 596 1630 908 137 81 364 225 503 316l15 10c-147 312-417 683-654 1001-72 97-144 193-214 288-548 740-1064 1454-1652 2177-100 123-199 248-298 373-525 664-1034 1348-1605 1969-249 271-530 541-864 703-120 59-229 83-335 83z"/><path fill="#F6BB2C" fill-rule="nonzero" d="M8777 14281c-57-363 108-747 222-1087 139-414 289-826 453-1230 313-771 633-1615 1160-2266 25-31 56-44 87-44 83 0 167 94 142 183-37 137-79 273-127 408l-284-165-415 715 388 226c-181 413-376 823-536 1236-113 292-222 586-327 881-102-84-209-152-289-152-36 0-67 14-88 46-63 94 81 179 144 221 52 34 104 69 156 105-15 43-30 87-45 131-85 249-154 524-298 745-50-6-99-10-145-10-87 0-162 14-198 57z"/><path fill="#FFF400" fill-rule="nonzero" d="M8890 14452c-40 0-79-26-92-71-9-33-16-66-21-100 36-43 111-57 198-57 46 0 95 4 145 10-46 70-100 135-164 192-20 18-43 26-66 26zM9463 13358c-52-36-104-71-156-105-63-42-207-127-144-221 21-32 52-46 88-46 80 0 187 68 289 152-26 73-51 146-77 220z"/><path fill="#F6BB2C" fill-rule="nonzero" d="M10403 11021l-388-226 415-715 284 165c-91 261-198 519-311 776z"/><text x="10500" y="14850" fill="#FFF400" font-weight="bold" font-size="1042.48" font-family="Arial" transform="rotate(30.193 18002.57 11905.222)">SUN CREA</text><text x="10500" y="14850" fill="#FFF400" font-weight="bold" font-size="1042.48" font-family="Arial" transform="rotate(30.193 16045.794 19159.553)">M</text><path fill="#F6BB2C" fill-rule="nonzero" d="M8715 15239c-48 0-91-26-106-77-17-56 8-107 31-158 20-42 64-62 108-62 30 0 60 9 83 27 66 51 60 133 12 193-28 33-59 67-104 75-8 1-16 2-24 2zM8426 15806c-30 0-63-23-63-54-1-40-3-67 11-106 11-31 24-59 30-91 10-49 48-71 86-71 45 0 90 33 84 93-4 44-12 90-29 131-20 49-52 72-97 93-7 4-14 5-22 5zM8026 17357c-27 0-56-10-72-28-139-155-55-314-3-497 68-237 139-473 213-708 21-66 73-96 125-96 72 0 144 58 127 154-42 243-85 485-133 727-37 184-33 370-226 443-9 3-20 5-31 5z"/><path fill="#FFF600" fill-rule="nonzero" d="M10992 8984c-52 0-103-34-98-101 8-130 48-249 133-349 61-71 168-149 270-149 23 0 45 4 67 13 62 25 97 88 61 152-40 71-125 111-185 164-61 55-114 119-141 197-16 49-62 73-107 73zM7150 19143h-4c-31-1-52-10-79-24-51-24-79-89-78-143 3-129 32-266 81-398 93 80 205 158 327 231-31 88-64 175-108 257-26 48-85 77-139 77zm310-516c-107-79-206-164-297-255 100-184 237-347 391-456 13-9 25-13 38-13 48 0 88 61 78 108-39 190-115 365-184 545-9 23-18 47-26 71z"/><path fill="#F4ED00" fill-rule="nonzero" d="M7397 18809c-122-73-234-151-327-231 26-70 57-140 93-206 91 91 190 176 297 255-22 60-42 122-63 182z"/></svg>