<?xml version="1.0" encoding="UTF-8"?>
<!DOCTYPE svg PUBLIC "-//W3C//DTD SVG 1.1//EN" "http://www.w3.org/Graphics/SVG/1.1/DTD/svg11.dtd">
<!-- Creator: CorelDRAW X7 -->
<svg xmlns="http://www.w3.org/2000/svg" xml:space="preserve" width="1377px" height="500px" version="1.1" shape-rendering="geometricPrecision" text-rendering="geometricPrecision" image-rendering="optimizeQuality" fill-rule="evenodd" clip-rule="evenodd"
viewBox="0 0 1425 517"
 xmlns:xlink="http://www.w3.org/1999/xlink">
 <g id="Слой_x0020_1">
  <metadata id="CorelCorpID_0Corel-Layer"/>
  <g id="_3190079728">
   <path fill="#EEEDEE" fill-rule="nonzero" d="M1425 495c0,12 -319,22 -712,22 -394,0 -713,-10 -713,-22 0,-12 319,-22 713,-22 393,0 712,10 712,22z"/>
   <polygon fill="#4E4A4A" points="155,421 1308,415 1333,228 97,234 "/>
   <path fill="#AA5843" d="M1378 275c0,0 -3,-107 -80,-116 -77,-10 -299,-29 -299,-29 0,0 -4,-1 -17,-8 -62,-47 -167,-122 -248,-122 -23,0 -403,2 -535,3 -27,0 -44,0 -44,0l-92 0c0,0 4,14 10,23 3,4 15,14 25,22 -28,39 -72,121 -72,121 0,0 -6,23 -6,46 1,22 1,109 1,109l141 -1c0,0 47,-70 127,-75 80,-5 169,67 154,171l576 -2c0,0 -5,-166 144,-168 0,0 77,-11 124,53l91 0 0 -27z"/>
   <path fill="#FEFEFE" d="M1372 236c-6,-22 -18,-49 -40,-64l-90 0c-1,5 -1,10 -1,16 0,27 13,49 28,48l103 0z"/>
   <path fill="#616060" d="M1169 235c42,-1 80,15 110,41l99 -1 0 67 1 23c0,0 -14,40 -45,50l-26 0 1 -25c-2,-17 -6,-33 -12,-48l-1 -1 -1 -1 0 -2 -1 -1 -1 -2 0 0c0,0 0,-1 -1,-2l-1 -1 0 -1 -1 -2 -1 -1 0 -1 -1 -1c-1,-1 -1,-2 -2,-2l0 -1 -1 -2 -1 -1 -1 -1 0 -1c-1,-1 -2,-2 -3,-3l0 0 -1 -2 -1 -1 -1 -1 -1 -1 -1 -1 0 0c0,-1 -1,-1 -1,-2l-1 -1 -1 -1 -1 -1 -1 -1 -1 -1 -1 -1c-1,-1 -1,-1 -2,-2l-1 -1 -1 -1 -1 -1 -1 -1 -2 -1 0 -1c-1,0 -2,-1 -2,-1l0 0 -2 -1 -1 -1 -1 -1 -1 -1 -1 -1c-1,0 -1,-1 -2,-1l-1 -1 -2 -1 -1 -1 -1 0 -1 -1c-1,-1 -2,-1 -2,-2l-1 0 -2 -1 -1 -1 -2 -1 -1 0c0,0 -1,-1 -2,-1l0 0 0 0c-1,-1 -2,-1 -3,-2l0 0 -2 -1 -1 0c-1,-1 -2,-1 -2,-1l-1 -1c-1,0 -2,0 -3,-1l-1 0 -1 -1 -1 0 -2 -1 -1 0c-1,0 -2,-1 -3,-1l0 0c-1,0 -2,-1 -3,-1l-1 0 -2 -1 -1 0c-1,0 -1,0 -2,-1l-1 0c-1,0 -2,0 -3,0l0 -1 -3 0 0 0c-1,0 -2,0 -3,-1l-1 0c-1,0 -2,0 -2,0l-1 0c-1,0 -2,-1 -3,-1l0 0c-1,0 -2,0 -3,0l-1 0c-1,0 -2,0 -3,0l0 0c-1,0 -2,0 -3,0l-1 0 -2 -1 -1 0c-1,0 -2,0 -3,0 -1,0 -2,0 -3,0l-1 1c-1,0 -2,0 -3,0l-1 0c-1,0 -2,0 -3,0l0 0 -3 0 -1 0c-1,0 -2,0 -2,1l-1 0c-1,0 -2,0 -3,0l-1 0c-1,0 -1,0 -2,1l-1 0c-1,0 -2,0 -3,0l0 0c-1,1 -2,1 -3,1l-1 0 -2 1 -1 0c-1,0 -2,1 -3,1l0 0 0 0c-1,0 -2,0 -3,1l-1 0 -2 1 -1 0c-1,0 -2,1 -3,1l0 0 0 0 0 0c-1,1 -2,1 -3,1l-1 1 -2 0 -1 1c-1,0 -1,1 -2,1l-1 0 -2 1 -1 1 -2 1 -1 0c-1,1 -1,1 -2,1l-1 1 -2 1 -1 1 -2 1 0 0c-1,1 -2,1 -3,2l-1 0 -1 1 -1 1c-1,0 -2,1 -2,1l-1 1c-1,0 -1,1 -2,1l-1 1 -1 1 -2 1 -1 1c0,1 -1,1 -2,2l-1 0 -1 2 -1 0 -1 1 0 1c-1,0 -1,1 -2,1l-1 1 -1 1 -1 1 -1 1 -1 1c-1,1 -1,2 -2,2l0 0 -1 1 -1 2 -1 1 -1 1c0,1 -1,1 -2,2l0 1 -1 1 -1 1 -1 2 0 0c-1,1 -2,2 -3,3l0 1 -1 1 -1 1 -1 2 0 1c-1,1 -1,2 -2,2l0 1 -1 2 -1 1 -1 1 0 1c0,0 0,1 -1,2l0 0 -1 1 0 1 -1 2 0 1 -1 1 0 0c-8,18 -12,37 -12,58 0,5 0,10 1,15l-26 1c0,-6 -1,-11 -1,-16 0,-20 4,-40 10,-57 1,-1 1,-3 1,-4l1 -1 1 -2 0 -1 1 -2 1 -2c0,0 0,-1 1,-2l1 -2 1 -2 1 -1 0 -2 1 -2 1 -1 1 -2c1,-1 1,-2 2,-3l0 -1c1,-1 1,-1 2,-2l0 -1 1 -2c1,0 1,-1 1,-1l2 -2c0,-1 1,-1 1,-2l1 -2 1 -1 1 -2 2 -1 1 -2 1 -1c0,-1 1,-2 2,-2l1 -1 1 -2 1 -1 2 -2 1 -1c0,-1 1,-1 2,-2l0 0 0 0 0 -1c1,0 2,-1 3,-2l1 -1 1 -1 1 -1 2 -2 1 -1 0 0c1,-1 2,-1 3,-2l0 0 1 -1c0,0 1,-1 1,-1l2 -1 1 -1 2 -1c0,-1 1,-1 2,-2l0 0c1,-1 2,-2 3,-2l1 -1 2 -1 1 -1 2 -2 1 0c1,-1 2,-1 3,-2l1 0c1,-1 2,-1 3,-2l1 0 2 -1 1 -1c1,0 2,-1 2,-1l1 -1c1,0 2,-1 3,-1l2 -1 2 -1 1 0 2 -1 2 -1c1,0 2,-1 3,-1l1 0c1,-1 1,-1 2,-1l2 -1 2 0 1 -1c1,0 2,0 3,-1l1 0c1,0 2,-1 3,-1l1 0c1,0 2,-1 3,-1l1 0c1,0 2,0 3,-1l1 0c1,0 2,0 3,-1l1 0 0 0c1,0 2,0 3,0l1 0 3 -1 1 0c1,0 2,0 3,0l1 0c1,-1 3,-1 4,-1l1 0c1,0 2,0 3,0l1 0c1,0 2,0 3,0l1 0c1,0 2,0 4,0z"/>
   <path fill="#616060" d="M3 307l162 -1 -8 43 -6 0c0,0 0,1 0,1l1 55c0,9 -8,16 -17,16l-111 1c-9,0 -17,-8 -17,-17l0 -54c0,-1 0,-1 0,-1l-3 0 -1 -43z"/>
   <path fill="#616060" d="M430 420c1,-8 2,-15 2,-23 0,-77 -63,-139 -140,-139 -77,1 -140,64 -139,141 0,7 1,15 2,22l-26 0c-1,-7 -2,-14 -2,-22 0,-91 73,-165 165,-166 91,0 165,74 166,165 0,7 -1,14 -2,21l-26 1z"/>
   <path fill="#616060" d="M4 307l152 -1c30,-44 80,-72 136,-73 72,0 133,45 156,109l-27 0c-22,-49 -71,-84 -129,-84 -57,1 -106,36 -127,85l-161 1 0 -37z"/>
   <path fill="#E22227" d="M33 157c-5,7 -7,12 -7,12 0,0 -6,24 -5,46l0 80 32 0 -1 -138 -19 0z"/>
   <polygon fill="#FDD81A" points="21,295 66,295 66,208 21,209 "/>
   <path fill="#454142" d="M595 132l0 0 345 -1c-57,-32 -119,-106 -217,-105 -8,0 -49,0 -129,0l1 106zm-276 -106l0 0 0 106 243 0 0 -106 -243 0 0 0zm-241 107l208 0 0 -107 -107 0c-41,9 -79,74 -101,107l0 0z"/>
   <path fill="#3A2E26" d="M622 173l0 -4c0,-3 3,-6 6,-6l63 -1c3,0 6,3 6,7l0 3 -75 1z"/>
   <path fill="#3A2E26" d="M334 174l0 -4c0,-3 2,-6 5,-6l64 0c3,0 5,3 5,6l0 4 -74 0z"/>
   <polygon fill="#616060" points="439,426 1030,418 1030,393 439,400 "/>
   <path fill="#C0705D" d="M910 152c13,4 67,1 70,-11 4,-12 -43,-42 -70,-39l0 50z"/>
   <path fill="#616060" d="M1388 275l-63 1c-8,0 -16,7 -15,16l0 75c0,9 7,16 16,16l63 0c9,0 16,-7 16,-16l-1 -76c0,-9 -7,-16 -16,-16z"/>
   <path fill="#454241" d="M350 459l0 0c-33,33 -86,33 -120,0 -33,-33 -33,-86 0,-120 33,-33 86,-33 120,0 33,33 33,86 0,120zm-142 23c46,45 120,44 165,-1 45,-46 45,-120 -1,-165 -46,-45 -119,-45 -165,1 -45,46 -45,119 1,165l0 0z"/>
   <path fill="#FEFEFE" d="M290 303c53,-1 96,42 96,95 0,54 -42,97 -96,97 -53,0 -96,-42 -96,-96 0,-53 42,-96 96,-96z"/>
   <path fill="#5C5B5E" d="M290 314c-47,0 -85,39 -85,85 0,47 39,85 85,85 47,-1 85,-39 85,-86 0,-46 -39,-84 -85,-84z"/>
   <path fill="#727074" d="M307 422c11,-12 11,-31 0,-42 -12,-11 -30,-11 -42,0 -11,12 -11,30 0,42 12,11 31,11 42,0z"/>
   <path fill="#FEFEFE" d="M280 415l12 0 8 -8 0 -12 -8 -8 -12 0 -8 8 0 12 8 8zm0 77l-5 -64 -49 42 -8 -9 41 -49 -64 -5 0 -12 64 -5 -42 -49 9 -8 49 41 5 -64 12 0 5 64 49 -42 8 9 -41 49 64 4 0 13 -64 5 42 49 -9 8 -49 -41 -4 64 -13 0 0 0z"/>
   <path fill="#454241" d="M1229 459l0 0c-33,33 -87,33 -120,0 -33,-33 -34,-86 -1,-120 33,-33 87,-33 120,0 33,33 34,86 1,120zm-142 23c45,45 119,44 164,-1 45,-46 45,-120 -1,-165 -45,-45 -119,-45 -164,1 -45,46 -45,119 1,165l0 0z"/>
   <path fill="#FEFEFE" d="M1168 303c53,-1 96,42 97,95 0,54 -43,97 -96,97 -53,0 -96,-42 -97,-96 0,-53 43,-96 96,-96z"/>
   <path fill="#5C5B5E" d="M1168 314c-47,0 -85,39 -84,85 0,47 38,85 85,85 47,-1 84,-39 84,-86 0,-46 -38,-84 -85,-84z"/>
   <path fill="#727074" d="M1185 422c12,-12 12,-31 0,-42 -11,-11 -30,-11 -41,0 -12,12 -12,30 0,42 11,11 30,11 41,0z"/>
   <path fill="#FEFEFE" d="M1159 415l11 0 8 -8 0 -12 -8 -8 -11 0 -8 8 0 12 8 8zm0 77l-5 -64 -49 42 -9 -9 42 -49 -64 -5 0 -12 64 -5 -42 -49 8 -8 49 41 5 -64 12 0 5 64 49 -42 9 9 -42 49 64 4 0 13 -64 5 42 49 -8 8 -49 -41 -5 64 -12 0 0 0z"/>
   <path fill="#454142" d="M831 26c0,0 -6,6 -5,7 0,1 163,101 163,101l10 -4c-52,-33 -86,-63 -168,-104z"/>
  </g>
 </g>
</svg>
