<svg xmlns="http://www.w3.org/2000/svg" width="210mm" height="297mm" shape-rendering="geometricPrecision" text-rendering="geometricPrecision" image-rendering="optimizeQuality" fill-rule="evenodd" clip-rule="evenodd" viewBox="0 0 21000 29700"><g fill-rule="nonzero"><path fill="#E63A29" d="M14363 13667c-1323 0-2400-1064-2400-2372s1077-2371 2400-2371c1325 0 2402 1063 2402 2371s-1077 2372-2402 2372z"/><path fill="#EC635D" d="M14363 8737c-1426 0-2587 1148-2587 2558 0 1411 1161 2559 2587 2559 1428 0 2589-1148 2589-2559 0-1410-1161-2558-2589-2558zm0 373c1222 0 2216 980 2216 2185s-994 2186-2216 2186c-1220 0-2214-981-2214-2186s994-2185 2214-2185z"/><path fill="#D93626" d="M14260 12404c-122 0-201-83-201-83v-721h104v721s57 60 149 78c-17 3-34 5-52 5zm-97-1205h-104v-887s21-125 201-125c19 0 37 1 52 4-133 21-149 121-149 121v887z"/><path fill="#74504B" d="M14059 10270c0-169 137-305 305-305 169 0 305 136 305 305 0 168-136 305-305 305-168 0-305-137-305-305z"/><path fill="#D93626" d="M15390 11600h-826v-401h826s82 72 82 201c0 130-82 200-82 200zm-1331 0h-720s-83-55-83-200 83-201 83-201h720v401z"/><path fill="#CA3627" d="M14059 11600h104v-401h-104z"/><path fill="#74504B" d="M15064 11295c0-168 137-305 305-305s305 137 305 305c0 169-137 305-305 305s-305-136-305-305zM13070 11295c0-168 137-305 305-305s305 137 305 305c0 169-137 305-305 305s-305-136-305-305zM14059 12248c0-168 137-305 305-305 169 0 305 137 305 305 0 169-136 305-305 305-168 0-305-136-305-305z"/><path fill="#FEF9F8" d="M14564 12321s-79 83-201 83c-121 0-200-83-200-83v-2009s21-125 201-125c181 0 200 125 200 125v2009z"/><path fill="#F3EBE5" d="M14564 11758h-401v-272h401zM14163 11095h401v-135h-401z"/><path fill="#FEF9F8" d="M15390 11496h-2051s-83-56-83-201 83-200 83-200h2051s82 71 82 200c0 130-82 201-82 201z"/><path fill="#5CB1E3" d="M7718 13681c-633 0-1226-245-1669-688-447-447-691-1044-687-1682 3-639 255-1240 707-1693 457-457 1064-708 1708-708 632 0 1225 244 1668 687 925 925 915 2439-21 3376-457 456-1063 708-1706 708z"/><path fill="#288ABC" d="M7777 8723c-664 0-1331 255-1839 764-1009 1008-1018 2641-21 3638 495 495 1147 742 1801 742 663 0 1329-255 1837-763 1010-1009 1019-2641 22-3639-495-495-1146-742-1800-742zm0 373c583 0 1128 225 1536 633 852 852 843 2248-21 3112-421 421-980 653-1574 653-583 0-1129-225-1537-633-412-411-636-961-633-1549 3-589 235-1144 653-1562 422-421 982-654 1576-654z"/><path fill="#40A1DA" d="M8258 12236h-1l-510-510 73-73 112 111 398 398h1c12 0 87-1 159-50-9 14-20 28-33 41-81 80-187 83-199 83zm-794-793l-628-628s-74-103 54-230c14-14 27-25 39-34-79 108-20 190-20 190l459 459 95 95 74 74-73 74z"/><path fill="#363947" d="M6806 10785c-119-119-119-312 0-431s313-119 432 0 119 312 0 431c-119 120-313 120-432 0z"/><path fill="#40A1DA" d="M7217 12237c-33 0-105-10-179-84-103-103-84-201-84-201l510-509 283 283-509 510s-8 1-21 1zm887-868l-283-283 583-584h8c25 0 115 6 193 83 91 92 83 200 83 200l-584 584z"/><path fill="#3391BF" d="M7747 11726l-283-283 73-74 203 203 80 81z"/><path fill="#363947" d="M8242 10800c-119-119-119-312 0-431s312-119 431 0 119 312 0 431-312 119-431 0zM6832 12210c-119-119-119-312 0-431s312-119 431 0 119 312 0 431-312 119-431 0zM8205 12184c-119-119-119-312 0-431s312-119 432 0c119 119 119 312 0 431-120 119-313 119-432 0z"/><path fill="#404C89" d="M8614 11879s2 114-84 200-200 83-200 83l-1421-1421s-73-102 55-230c127-127 229-53 229-53l1407 1408 14 13z"/><path fill="#3696C9" d="M7932 11764l-112-111 112 111z"/><path fill="#3185AD" d="M7820 11653l-80-81 80 81z"/><path fill="#3E487C" d="M7932 11764l-112-111-80-81 283-283 192 192z"/><path fill="#47A5DC" d="M7746 11012l-43-44 44 44z"/><path fill="#3696C9" d="M7463 11295l-95-95 95 95z"/><path fill="#3E487C" d="M7463 11295l-95-95 283-284 52 52 43 44z"/><path fill="#404C89" d="M8614 10711l-1450 1451s-98 19-200-83c-103-103-84-201-84-201l1450-1450s109-8 201 83c91 92 83 200 83 200z"/><path fill="#C1B8B3" d="M5886 9540c17-18 34-36 52-53-18 17-35 35-52 53zm52-53c31-32 64-63 97-92-33 29-66 60-97 92zm97-93c2-1 3-3 5-4-2 1-3 3-5 4zm7-6l3-3-3 3zm7-7c1 0 1 0 1-1 0 1 0 1-1 1z"/><path fill="#C9E0EF" d="M5825 9906l-118-155c55-73 115-143 179-211 17-18 34-36 52-53 31-32 64-63 97-92v-1c2-1 3-3 5-4l2-2 3-3c2-1 3-2 4-4 1 0 1 0 1-1 219-194 463-345 720-453l118 153c-299 110-573 285-805 517-96 96-182 199-258 309z"/></g></svg>