<?xml version="1.0" encoding="UTF-8"?>
<!DOCTYPE svg PUBLIC "-//W3C//DTD SVG 1.1//EN" "http://www.w3.org/Graphics/SVG/1.1/DTD/svg11.dtd">
<!-- Creator: CorelDRAW X7 -->
<svg xmlns="http://www.w3.org/2000/svg" xml:space="preserve" width="1626px" height="921px" version="1.1" shape-rendering="geometricPrecision" text-rendering="geometricPrecision" image-rendering="optimizeQuality" fill-rule="evenodd" clip-rule="evenodd"
viewBox="0 0 1440 816"
 xmlns:xlink="http://www.w3.org/1999/xlink">
 <g id="Слой_x0020_1">
  <metadata id="CorelCorpID_0Corel-Layer"/>
  <g id="_3225835360">
   <path fill="#E84E2F" d="M1391 0l49 0 -34 257 -186 0c0,-141 95,-257 171,-257z"/>
   <path fill="#FFC20D" d="M1440 0l-34 257 -152 0c8,-141 111,-257 186,-257z"/>
   <path fill="#FFC20D" d="M354 208c556,0 500,0 1056,0 0,194 -159,354 -354,354 -556,0 -500,0 -1056,0 0,-195 159,-354 354,-354z"/>
   <path fill="#DAA509" d="M1278 482c-60,50 -138,80 -222,80 -556,0 -500,0 -1056,0 0,-28 3,-54 9,-80l1269 0z"/>
   <path fill="#DAA509" d="M683 634c-8,0 -17,1 -25,1l0 181c8,0 17,0 25,0 118,0 214,-41 214,-91 0,-50 -96,-91 -214,-91z"/>
   <path fill="#FFC20D" d="M658 816c38,0 68,-41 68,-91 0,-50 -30,-91 -68,-91 -38,0 -68,41 -68,91 0,50 30,91 68,91z"/>
   <path fill="#454C54" d="M658 772c19,0 35,-21 35,-47 0,-26 -16,-47 -35,-47 -19,0 -35,21 -35,47 0,26 16,47 35,47z"/>
   <path fill="#FFE59B" d="M650 411l424 319 -122 1c-26,0 -51,-4 -83,-24l-468 -296 249 0z"/>
   <path fill="#E84E2F" d="M650 411l430 324c15,11 14,32 -12,32l-134 1c-27,0 -51,-4 -83,-24l-526 -333 76 0 468 296c32,20 57,24 83,24l122 -1 -424 -319z"/>
   <path fill="#4CBAF2" d="M939 385c27,0 49,-21 49,-48 0,-26 -22,-48 -49,-48 -26,0 -48,22 -48,48 0,27 22,48 48,48z"/>
   <path fill="#4CBAF2" d="M790 385c27,0 48,-21 48,-48 0,-26 -21,-48 -48,-48 -26,0 -48,22 -48,48 0,27 22,48 48,48z"/>
   <path fill="#4CBAF2" d="M641 385c27,0 48,-21 48,-48 0,-26 -21,-48 -48,-48 -27,0 -48,22 -48,48 0,27 21,48 48,48z"/>
   <path fill="#4CBAF2" d="M492 385c26,0 48,-21 48,-48 0,-26 -22,-48 -48,-48 -27,0 -48,22 -48,48 0,27 21,48 48,48z"/>
   <path fill="#4CBAF2" d="M343 385c26,0 48,-21 48,-48 0,-26 -22,-48 -48,-48 -27,0 -48,22 -48,48 0,27 21,48 48,48z"/>
   <path fill="#4CBAF2" d="M47 385c22,-36 49,-69 82,-96l58 0c26,0 48,22 48,48 0,27 -22,48 -48,48l-140 0z"/>
   <path fill="#98DCFF" d="M978 308l-58 73c-7,-3 -14,-8 -19,-15l57 -73c8,3 15,8 20,15z"/>
   <path fill="#98DCFF" d="M828 308l-57 73c-8,-3 -14,-8 -19,-15l57 -73c8,3 14,8 19,15z"/>
   <path fill="#98DCFF" d="M679 308l-57 73c-8,-3 -14,-8 -19,-15l57 -73c8,3 14,8 19,15z"/>
   <path fill="#98DCFF" d="M530 308l-57 73c-8,-3 -14,-8 -19,-15l57 -73c8,3 14,8 19,15z"/>
   <path fill="#98DCFF" d="M381 308l-57 73c-8,-3 -15,-8 -19,-15l57 -73c7,3 14,8 19,15z"/>
   <path fill="#98DCFF" d="M207 293l-72 92 -30 0 75 -96 7 0c7,0 14,2 20,4z"/>
  </g>
 </g>
</svg>
