<?xml version="1.0" encoding="UTF-8"?>
<!DOCTYPE svg PUBLIC "-//W3C//DTD SVG 1.1//EN" "http://www.w3.org/Graphics/SVG/1.1/DTD/svg11.dtd">
<!-- Creator: CorelDRAW X7 -->
<svg xmlns="http://www.w3.org/2000/svg" xml:space="preserve" width="1387px" height="1291px" version="1.1" shape-rendering="geometricPrecision" text-rendering="geometricPrecision" image-rendering="optimizeQuality" fill-rule="evenodd" clip-rule="evenodd"
viewBox="0 0 1301 1211"
 xmlns:xlink="http://www.w3.org/1999/xlink">
 <g id="Слой_x0020_1">
  <metadata id="CorelCorpID_0Corel-Layer"/>
  <g id="_8897611712">
   <g>
    <path fill="#F8C4BD" fill-rule="nonzero" d="M533 441c0,0 -40,11 -39,13 1,3 10,8 18,7 8,-1 21,-20 21,-20z"/>
    <line fill="none" fill-rule="nonzero" stroke="#EF9B9C" stroke-width="10.437" stroke-linecap="round" x1="860" y1="698" x2="1097" y2= "698" />
    <line fill="none" fill-rule="nonzero" stroke="#1F558E" stroke-width="8.4981" stroke-linecap="round" x1="503" y1="950" x2="591" y2= "972" />
    <line fill="none" fill-rule="nonzero" stroke="#BDBAB9" stroke-width="13.916" x1="669" y1="1072" x2="638" y2= "988" />
    <path fill="#F8C4BD" fill-rule="nonzero" d="M552 839l4 29c2,14 6,27 11,40l0 0c5,10 -1,22 -12,23 0,0 -21,4 -42,8 -22,3 -47,-7 -46,-12 2,-12 12,-1 32,-11 7,-3 15,-6 21,-10 17,-9 10,-40 4,-61 -3,-9 3,-18 13,-19l0 0c7,0 14,6 15,13z"/>
    <path fill="#4A3887" fill-rule="nonzero" d="M567 908c-2,-4 -3,-9 -5,-13 -5,11 -16,20 -33,20 -7,0 -13,-2 -18,-4 -4,2 -8,4 -12,5 -20,10 -30,-1 -32,11 -1,5 24,15 46,12 21,-4 42,-8 42,-8 11,-1 17,-13 12,-23z"/>
    <path fill="#71B59E" fill-rule="nonzero" d="M801 457c0,0 -250,32 -317,107 -31,36 38,289 38,289 12,2 23,1 33,-5l-3 -226c0,0 221,51 286,-5 65,-56 78,-103 39,-135 -41,-34 -76,-25 -76,-25z"/>
    <path fill="none" fill-rule="nonzero" stroke="#BDBAB9" stroke-width="13.916" d="M467 970c0,124 -101,225 -226,225 -124,0 -225,-101 -225,-225 0,-125 101,-226 225,-226 125,0 226,101 226,226z"/>
    <path fill="none" fill-rule="nonzero" stroke="#EF9B9C" stroke-width="10.437" stroke-linecap="round" d="M20 816c48,-70 129,-116 221,-116 93,0 174,46 223,117"/>
    <path fill="#1675B0" fill-rule="nonzero" d="M272 970c0,17 -14,31 -31,31 -17,0 -30,-14 -30,-31 0,-17 13,-31 30,-31 17,0 31,14 31,31z"/>
    <path fill="#BDBAB9" fill-rule="nonzero" d="M287 970c0,25 -20,46 -46,46 -25,0 -45,-21 -45,-46 0,-25 20,-46 45,-46 26,0 46,21 46,46z"/>
    <path fill="none" fill-rule="nonzero" stroke="#BDBAB9" stroke-width="13.916" d="M1168 969c0,124 -101,225 -225,225 -125,0 -226,-101 -226,-225 0,-125 101,-226 226,-226 124,0 225,101 225,226z"/>
    <path fill="#1675B0" fill-rule="nonzero" d="M973 969c0,17 -13,31 -30,31 -17,0 -31,-14 -31,-31 0,-17 14,-31 31,-31 17,0 30,14 30,31z"/>
    <path fill="#BDBAB9" fill-rule="nonzero" d="M958 942c1,18 -10,36 -33,36 -5,0 -9,-1 -12,-2 3,13 15,24 30,24 17,0 30,-14 30,-31 0,-11 -6,-21 -15,-27z"/>
    <line fill="none" fill-rule="nonzero" stroke="#EF9B9C" stroke-width="10.437" stroke-linecap="round" x1="242" y1="970" x2="470" y2= "454" />
    <polyline fill="none" fill-rule="nonzero" stroke="#EF9B9C" stroke-width="10.437" stroke-linecap="round" points="841,645 943,969 638,981 804,644 "/>
    <path fill="none" fill-rule="nonzero" stroke="#EF9B9C" stroke-width="10.437" stroke-linecap="round" d="M422 564c0,0 88,20 89,121 2,102 -5,301 127,296"/>
    <path fill="#1F558E" fill-rule="nonzero" d="M917 603l-4 -26c0,0 -21,-25 -92,-13 -20,3 -38,10 -52,19 -17,10 -36,18 -55,21l-9 2c-22,3 -23,17 -23,17l2 13 1 0c3,12 15,20 27,18l3 0c24,-4 49,-4 73,0 14,2 33,11 50,11 59,2 84,-34 80,-59 0,-1 0,-2 -1,-3z"/>
    <path fill="#1675B0" fill-rule="nonzero" d="M819 569c-20,3 -38,10 -52,18 -17,11 -36,19 -56,22l-8 1c-13,3 -23,14 -21,28 1,14 14,23 28,21l3 -1c24,-4 48,-3 73,1 14,2 31,1 48,-2 48,-8 84,-34 80,-59 -5,-25 -47,-38 -95,-29z"/>
    <path fill="#1F558E" fill-rule="nonzero" d="M571 473l-13 -2c-28,-5 -56,-16 -81,-31l-14 -8c4,-3 6,-7 6,-12 0,-6 -5,-11 -11,-13l-53 -9c-7,-1 -14,3 -15,10 -1,6 2,11 6,14l23 14c21,12 29,37 19,59l-5 12c-3,6 -2,13 3,17 3,1 6,2 8,2 5,0 10,-3 12,-8l9 -19c15,-32 102,0 102,0 1,0 2,0 3,0 7,0 13,-6 12,-14 0,-6 -5,-11 -11,-12z"/>
    <path fill="#F8C4BD" fill-rule="nonzero" d="M441 421c10,-1 22,1 26,1 1,0 11,-3 21,-5 7,-2 12,-8 20,-9 1,-1 11,0 13,-1 11,-2 14,-18 3,-22 0,0 0,0 0,0 -2,-1 -5,-1 -7,-1l-25 6c-7,0 -13,-4 -19,-7 -13,-6 -30,1 -43,3 -8,1 -14,0 -22,12l19 4c7,-2 15,0 22,3 1,1 4,2 4,3 -1,4 -10,4 -15,5 -6,1 -9,5 -9,8 0,3 5,0 12,0z"/>
    <path fill="#F4AFBC" fill-rule="nonzero" d="M762 190c0,0 -45,20 -111,152l-154 44c-3,9 1,19 8,24 0,0 130,-10 187,-34 57,-24 115,-125 117,-157 3,-32 -29,-40 -47,-29z"/>
    <path fill="#F8C4BD" fill-rule="nonzero" d="M708 953l14 46c0,2 1,4 2,6l10 14c6,10 2,22 -9,26 0,0 -20,7 -40,13 -21,7 -47,1 -47,-4 0,-12 11,-3 30,-15 7,-5 13,-9 19,-14 17,-13 2,-45 -8,-64 -3,-6 1,-15 8,-16l5 -1c7,-2 14,2 16,9z"/>
    <path fill="#4A3887" fill-rule="nonzero" d="M737 1020l-10 -11c-5,14 -16,24 -34,24 -5,0 -10,-3 -14,-5 -3,3 -11,7 -14,9 -20,13 -27,5 -27,17 0,5 27,13 48,6 20,-7 40,-13 40,-13 11,-3 17,-18 11,-27z"/>
    <path fill="#71B59E" fill-rule="nonzero" d="M890 450c-35,-13 -74,-5 -101,20 -54,52 -194,189 -227,263 -16,35 124,248 124,248 12,0 22,-3 31,-10l-72 -209c0,0 215,-79 259,-153 44,-74 34,-141 -13,-159 0,0 -1,0 -1,0z"/>
    <line fill="none" fill-rule="nonzero" stroke="#BDBAB9" stroke-width="13.916" x1="628" y1="1073" x2="711" y2= "1072" />
    <line fill="none" fill-rule="nonzero" stroke="#BDBAB9" stroke-width="13.916" x1="476" y1="950" x2="530" y2= "950" />
    <path fill="#FEFEFE" fill-rule="nonzero" d="M706 297c1,-15 26,-52 39,-70 0,0 26,-43 40,-44 29,-2 48,-4 75,4l12 4c21,6 33,26 29,47l-28 262c-31,22 -76,20 -124,17 -26,-2 -46,-21 -41,-46l21 -101c2,-17 -3,-35 -14,-47 -6,-7 -9,-17 -9,-26z"/>
    <path fill="#F4AFBC" fill-rule="nonzero" d="M804 282c-2,50 -19,97 31,168 50,71 2,120 22,183 8,27 99,27 130,6 9,-6 -50,-168 -79,-224 -28,-57 -7,-177 -7,-177 0,0 11,-45 -41,-51 -30,-3 -55,75 -56,95z"/>
    <path fill="#F8C4BD" fill-rule="nonzero" d="M799 31c31,1 42,24 42,66 0,15 -8,30 -14,40 -4,7 -5,16 -3,24l6 24c4,22 -6,33 -22,37 -7,2 -16,0 -23,-4 -8,-5 -8,-16 -6,-25l2 -7c2,-9 -3,-19 -12,-21 -7,-2 -14,-1 -19,-5 -5,-3 -17,-41 -10,-81 7,-41 27,-49 59,-48z"/>
    <path fill="#F7A707" fill-rule="nonzero" d="M845 51c3,5 19,15 9,23l-28 25c-2,2 -6,0 -6,-3l1 -10c0,-5 -4,-9 -9,-10l-6 -1c-5,-1 -9,-4 -13,-7 -7,-4 -15,-7 -23,-6 -7,1 -12,3 -16,6 -4,3 -10,5 -16,5 -2,0 -4,-1 -5,-3 -24,-48 2,-91 37,-59 14,14 61,19 75,40z"/>
    <path fill="#F8C4BD" fill-rule="nonzero" d="M826 103c0,10 -1,22 8,22 8,0 17,-17 18,-27 0,-10 -6,-12 -14,-12 -8,-1 -12,7 -12,17z"/>
    <path fill="#F8C4BD" fill-rule="nonzero" d="M598 436c-22,4 -56,3 -65,5 -6,2 -12,9 -17,14 -12,12 -16,23 -5,35 15,15 46,10 45,5 -2,-4 -14,-19 7,-23 10,-2 19,-10 30,-13 13,-3 10,-24 5,-23z"/>
    <path fill="#F4AFBC" fill-rule="nonzero" d="M836 203c0,0 -28,43 -86,179l-167 53c-3,2 -5,5 -4,8 1,5 2,10 5,15 2,3 6,5 10,5 26,-3 136,-16 185,-41 56,-27 118,-167 119,-199 0,-33 -47,-50 -62,-20z"/>
   </g>
   <path fill="#F7A707" fill-rule="nonzero" d="M1028 31c-52,-49 -103,-18 -131,9 -7,7 -19,6 -25,-3 -6,-8 -15,-16 -24,-22 -8,-4 -16,-5 -25,-3 -25,4 -44,24 -50,49 -18,78 35,102 49,99 10,-2 26,-22 39,-44 3,-5 11,-3 11,3 7,184 154,221 248,221 105,0 159,-90 180,-138 3,-7 -4,-14 -12,-11 -80,41 -189,-93 -260,-160z"/>
  </g>
 </g>
</svg>
