<?xml version="1.0" encoding="UTF-8"?>
<!DOCTYPE svg PUBLIC "-//W3C//DTD SVG 1.1//EN" "http://www.w3.org/Graphics/SVG/1.1/DTD/svg11.dtd">
<!-- Creator: CorelDRAW X7 -->
<svg xmlns="http://www.w3.org/2000/svg" xml:space="preserve" width="1096px" height="1572px" version="1.1" shape-rendering="geometricPrecision" text-rendering="geometricPrecision" image-rendering="optimizeQuality" fill-rule="evenodd" clip-rule="evenodd"
viewBox="0 0 934 1340"
 xmlns:xlink="http://www.w3.org/1999/xlink">
 <g id="Слой_x0020_1">
  <metadata id="CorelCorpID_0Corel-Layer"/>
  <g id="_4850051472">
   <path fill="#8B5653" fill-rule="nonzero" d="M357 1274l15 0 0 4c10,6 17,16 17,29 0,12 -7,23 -17,29l0 4 -15 0c-18,0 -33,-15 -33,-33 0,-18 15,-33 33,-33z"/>
   <path fill="#A68280" fill-rule="nonzero" d="M337 1307c0,18 15,33 33,33 18,0 33,-15 33,-33 0,-18 -15,-33 -33,-33 -18,0 -33,15 -33,33z"/>
   <path fill="#B6928F" fill-rule="nonzero" d="M357 1307c0,7 6,13 13,13 7,0 13,-6 13,-13 0,-7 -6,-13 -13,-13 -7,0 -13,6 -13,13z"/>
   <path fill="#8B5653" fill-rule="nonzero" d="M651 1274l15 0 0 4c11,6 18,16 18,29 0,12 -7,23 -18,29l0 4 -15 0c-18,0 -33,-15 -33,-33 0,-18 15,-33 33,-33z"/>
   <path fill="#A68280" fill-rule="nonzero" d="M632 1307c0,18 14,33 33,33 18,0 32,-15 32,-33 0,-18 -14,-33 -32,-33 -19,0 -33,15 -33,33z"/>
   <path fill="#B6928F" fill-rule="nonzero" d="M652 1307c0,7 6,13 13,13 7,0 12,-6 12,-13 0,-7 -5,-13 -12,-13 -7,0 -13,6 -13,13z"/>
   <path fill="#8B5653" fill-rule="nonzero" d="M712 1165c-22,0 -42,4 -59,11 -43,17 -90,27 -137,27l-1 0c-47,0 -93,-10 -137,-27 -17,-7 -37,-11 -59,-11 -63,0 -114,33 -114,74 0,41 51,75 114,75 22,0 42,-4 59,-11 44,-17 90,-28 137,-28l1 0c47,0 94,11 137,28 17,7 37,11 59,11 63,0 114,-34 114,-75 0,-41 -51,-74 -114,-74z"/>
   <path fill="#A68280" fill-rule="nonzero" d="M712 1145c-22,0 -42,4 -59,11 -43,17 -90,27 -137,27l-1 0c-47,0 -93,-10 -137,-27 -17,-7 -37,-11 -59,-11 -63,0 -114,33 -114,74 0,41 51,75 114,75 22,0 42,-4 59,-11 44,-17 90,-28 137,-28l1 0c47,0 94,11 137,28 17,7 37,11 59,11 63,0 114,-34 114,-75 0,-41 -51,-74 -114,-74z"/>
   <path fill="#F8C4BD" fill-rule="nonzero" d="M45 578c9,-3 21,-5 25,-6 1,-1 13,-8 22,-13 3,-2 13,-6 19,-8 5,-2 7,-7 6,-12 -2,-6 -5,-13 -10,-12l-23 9c-6,2 -13,0 -19,-1 -14,-3 -27,8 -39,13 -7,4 -30,29 -25,31 4,2 14,-8 21,-13 6,-4 19,-6 27,-5 1,0 4,1 4,2 0,4 -8,6 -12,8 -6,3 -7,8 -7,10 1,3 5,-1 11,-3z"/>
   <path fill="#52619E" fill-rule="nonzero" d="M445 1201c-6,5 -13,8 -22,13 -19,11 -39,16 -60,20 0,1 -1,2 -1,4 0,5 24,7 42,1 18,-6 36,-12 36,-12 9,-3 13,-15 8,-23l-3 -3z"/>
   <path fill="#313866" fill-rule="nonzero" d="M423 1133l13 48c0,2 1,4 2,5l9 13c5,8 1,19 -8,22 0,0 -18,6 -36,12 -18,6 -42,4 -42,0 0,-11 11,-6 28,-17 5,-4 11,-8 16,-12 15,-11 2,-40 -7,-56 -3,-6 1,-21 7,-22l4 -1c6,-1 13,2 14,8z"/>
   <path fill="#EB6275" fill-rule="nonzero" d="M455 235c-21,68 -77,196 -158,241 -55,31 -187,78 -187,78 0,0 -6,-8 -8,-13 -3,-5 -5,-13 -5,-13 0,0 165,-84 188,-108 22,-25 96,-182 118,-207 26,-28 64,-16 52,22z"/>
   <path fill="#52619E" fill-rule="nonzero" d="M712 1193c-21,18 -49,30 -77,30 -12,4 -19,0 -19,10 0,6 27,12 48,5 22,-7 42,-15 42,-15 11,-3 16,-16 9,-25l-3 -5z"/>
   <path fill="#313866" fill-rule="nonzero" d="M687 1124l14 48c1,2 2,4 3,6l10 15c7,9 2,22 -9,26 0,0 -20,7 -41,14 -22,7 -49,1 -49,-5 0,-12 12,-2 31,-15 7,-5 14,-10 20,-14 17,-14 2,-47 -8,-67 -4,-6 0,-15 7,-16l5 -2c8,-1 15,3 17,10z"/>
   <path fill="#F8C4BD" fill-rule="nonzero" d="M387 1120c8,21 13,34 13,34 10,5 19,-1 29,-3 0,0 -2,-15 -5,-39 -12,4 -24,6 -37,8z"/>
   <path fill="#F8C4BD" fill-rule="nonzero" d="M652 1130c11,18 17,28 17,28 9,1 18,-3 26,-9 0,0 -3,-12 -8,-32 -12,4 -23,9 -35,13z"/>
   <path fill="#71B59E" fill-rule="nonzero" d="M440 555l-35 0c-12,0 -23,9 -27,21 -14,53 -52,196 -64,267 -11,64 74,284 74,284 7,3 20,-1 30,-5 5,-2 9,-7 8,-13 -6,-39 -25,-184 -16,-230 10,-56 85,-171 99,-198 1,-1 2,-3 3,-4 29,-55 -10,-122 -72,-122z"/>
   <path fill="#71B59E" fill-rule="nonzero" d="M508 571c-16,86 -52,216 18,338 59,104 109,193 123,218 2,4 7,6 12,5 7,-2 15,-6 21,-10 5,-2 7,-7 5,-12 -3,-12 -10,-37 -22,-81 -21,-74 -46,-161 -39,-206 14,-85 29,-198 25,-253 -5,-55 -134,-45 -143,1z"/>
   <path fill="#EB6275" fill-rule="nonzero" d="M385 570c-5,-2 -8,-8 -7,-14l55 -358 144 -21 76 379c2,7 -3,14 -10,16 -26,5 -90,15 -161,15 -53,0 -83,-10 -97,-17z"/>
   <path fill="#F8C4BD" fill-rule="nonzero" d="M857 261c-6,-5 -6,-13 -2,-18l5 -7c5,-7 10,-16 9,-26 0,-6 4,-24 11,-23 6,1 0,23 6,23 2,0 12,-16 19,-26 4,-5 19,-18 20,-13 1,3 4,4 8,6 3,3 -2,22 -2,27 0,5 2,7 -7,16 -6,7 -38,32 -38,32l-12 8c-5,5 -12,5 -17,1l0 0z"/>
   <path fill="#EB6275" fill-rule="nonzero" d="M861 235c0,0 -115,110 -141,119 -27,9 -104,-150 -118,-166 -22,-27 -71,1 -63,51 11,63 162,185 181,187 18,2 160,-167 160,-167 -1,-8 -8,-16 -19,-24z"/>
   <path fill="#F6B287" fill-rule="nonzero" d="M647 365c14,-10 28,-28 36,-38 3,-4 3,-10 0,-14 -31,-46 -71,-117 -80,-128 -10,-11 -25,-10 -25,-10l-31 4c-3,1 -6,3 -5,6 2,23 -11,49 -39,49 -24,0 -37,-19 -39,-37 0,-3 -3,-5 -5,-5 -8,1 -21,3 -26,3 -9,1 -23,4 -33,18 -13,18 -51,87 -82,142 -3,6 -2,14 2,19 10,11 22,22 39,32 7,5 18,3 23,-5 10,-16 14,-30 25,-52l-33 207c-1,6 2,12 7,15 14,6 48,16 101,16 71,0 141,-9 167,-14 7,-1 12,-8 10,-15l-45 -214c7,7 11,13 17,19 4,5 11,6 16,2z"/>
   <path fill="#2B3758" fill-rule="nonzero" d="M573 74c-7,-9 -10,-20 -10,-28 0,-3 0,-6 0,-9 0,0 0,0 0,0l0 0c0,0 0,-1 0,-2 0,-30 -30,-35 -67,-35 -30,0 -58,23 -70,45 -3,6 -3,14 -3,20 -2,57 24,68 76,85 12,4 41,5 53,-1 12,-8 7,-23 11,-34 4,-11 23,-25 10,-41z"/>
   <path fill="#F8C4BD" fill-rule="nonzero" d="M494 27c31,0 43,22 44,64 0,16 -7,31 -13,41 -4,7 -5,16 -3,24l7 23c5,22 -5,34 -21,38 -7,3 -16,1 -23,-3 -8,-5 -8,-16 -7,-26l2 -6c2,-9 -3,-19 -12,-21 -24,-5 -28,-31 -34,-70 -7,-41 28,-64 60,-64z"/>
   <path fill="#2B3758" fill-rule="nonzero" d="M420 9l18 5c7,2 14,2 21,0l36 -10c22,0 58,12 53,44l-4 22c-1,9 -9,16 -18,17l0 0c0,3 -3,5 -6,5 -4,0 -8,-3 -8,-7l0 0c0,-10 -7,-19 -16,-21 -13,-3 -25,-4 -39,0 -25,7 -52,-9 -54,-35 0,-1 0,-3 0,-5 0,-10 8,-18 17,-15z"/>
   <path fill="#F8C4BD" fill-rule="nonzero" d="M520 92c0,9 4,17 13,17 10,0 15,-13 15,-23 0,-9 -5,-12 -15,-12 -9,0 -13,8 -13,18z"/>
  </g>
 </g>
</svg>
