<svg xmlns="http://www.w3.org/2000/svg" width="210mm" height="297mm" shape-rendering="geometricPrecision" text-rendering="geometricPrecision" image-rendering="optimizeQuality" fill-rule="evenodd" clip-rule="evenodd" viewBox="0 0 21000 29700"><g fill-rule="nonzero"><path fill="#F4AB3A" d="M5810 12026c-688 369-1902 2216-622 4184 354 544 1278 1410 3877 1757 2599 346 4970-182 6008-928 1037-747 1699-1519 1599-2404-100-884-1601-2732-3565-3252-1963-520-4908-635-7297 643z"/><path fill="#FFB645" d="M5558 16518c908 814 3949 1071 6337 582 2541-519 3522-1963 3696-2656 288-1155 173-2079-2484-3061-1680-621-4504-346-6006 173-1501 520-2170 1055-2425 2715-116 750 244 1675 882 2247z"/><path fill="#FFBE59" d="M14378 12018c212 120 373 467 635 1040 352 770-1213 1386-2079 2137-2031 1760-3927 635-5371 982-1067 256-3061-520-2887-1906 151-1209 420-1717 1134-2129s2100-990 4179-1048c2079-57 3465 405 4389 924z"/><path fill="#FDC763" d="M5657 12192c-397 286-1097 1213-692 1848 404 635 1905 1270 3234 635 1328-635 2714-347 3407-809 693-461 2772-1270 2714-1848-58-577-2887-1212-4216-981-1328 231-3003 115-4447 1155z"/><path fill="#FDD58B" d="M12668 11662c-206-343-543-496-920-563-500-89-1031-110-1537-67-1036 86-2072 232-3078 505-374 102-758 210-1095 406-293 83-568 312-629 619-56 280 120 453 372 527 320 93 650 42 923 261 341 275 710 229 1109 111 392-115 764-272 1178-284 150-4 300-22 450-39 501-59 999-141 1492-248 445-96 2215-429 1735-1228z"/><path fill="#FDD58B" d="M12357 11904h-1v6c0-2 1-4 1-6z"/><path fill="#8B532E" d="M16370 15517c-262 654-830 1154-1413 1522-600 379-1274 633-1973 757-393 69-801 82-1199 99-456 20-912 17-1367-3-928-41-1856-142-2755-379-728-193-1554-458-2105-995-893-871-1088-2328-624-3450 383-928 1483-1255 1770-1361 696-259 1458-422 2196-511 907-110 1898-238 2809-136 1671 187 3299 1040 4324 2423 449 605 622 1322 337 2034zm302-882c-59-765-551-1421-1084-1938-1199-1164-2900-1701-4539-1785-400-21-797 14-1195 52-459 44-917 97-1371 172-777 130-1542 326-2254 657-3 1-5 1-8 2-1233 394-1746 1724-1647 2929 50 611 251 1220 614 1717 432 591 1061 911 1731 1172 844 331 1762 482 2661 567 904 86 1825 53 2727-27 720-64 1374-227 2033-527 642-293 1252-706 1713-1244 423-494 670-1092 619-1747z"/><path fill="#CF873B" d="M6545 13210c-14-14-32-22-48-31-40-23-92 6-92 52 0 47 52 75 92 53 16-10 34-18 48-31 12-11 12-32 0-43zM8378 14362c-35-9-72-18-108-28-33-8-67 17-67 52 0 36 34 61 67 52 36-9 73-18 108-28 24-6 24-42 0-48zM9420 13187c-16-8-33-10-50-14-39-9-77 17-77 58s38 68 77 59c17-4 34-7 50-15 33-18 33-70 0-88zM12068 14659c-95 0-95 147 0 147 94 0 94-147 0-147zM12036 12437c-20-16-36-26-63-27-17-1-38 4-52 13-33 22-44 56-51 93-12 54 24 108 82 108 56 0 90-49 84-101l4-3c25-22 20-62-4-83zM13974 14984c-123 0-123 190 0 190 122 0 122-190 0-190zM8552 11821c-17-4-34-8-50-13-20-15-49-12-72-13-65-3-65 103 0 100 23-1 52 2 72-13 16-5 33-8 50-13 24-6 24-42 0-48zM10220 11786c-76 0-76 118 0 118s76-118 0-118zM9931 14856c-65 0-65 100 0 100s65-100 0-100zM11026 13736c-8-30-16-75-55-75-40 0-48 45-56 75-9 36 18 72 56 72 37 0 64-36 55-72zM7897 13046c-5-21-8-43-19-61-12-20-40-20-52 0-11 18-14 40-19 61-7 29 14 58 45 58s52-29 45-58zM6510 12042c-3-23-9-37-29-50-8-6-22-6-30 0-18 12-26 25-29 47-1 12-3 25-4 37-4 26 24 49 48 49s52-23 48-49l-4-34zM5484 12723c-60 0-60 93 0 93s60-93 0-93zM5211 14560c-37-9-75 18-75 57s38 67 75 57c31-8 76-16 76-57 0-40-45-49-76-57zM6572 14143c-15-48-81-48-97 0-8 27 0 55 4 82 7 45 82 45 90 0 4-27 12-55 3-82zM6639 15717c-71 0-71 111 0 111 72 0 72-111 0-111zM5589 15617c-17 7-34 12-50 21-2 1-5 3-8 5h-11c-12 1-24-1-36-2-40-3-73 36-73 74 0 37 33 76 73 73 38-3 75-5 99-36 28-21 43-51 56-84 12-28-22-62-50-51zM8031 16732c-27-9-51-4-76 7-10 4-18 10-27 16l-2 1-3 1c-6 1-7 1-1 0-4 0-8 0-12-1-30-3-56 28-56 56 0 38 36 59 70 53 28-5 51-19 69-41 13-15 19-40 38-48 21-8 24-37 0-44zM10327 17360c-30 5-53 22-78 38-32 19-38 63-12 89 27 27 71 20 90-11 15-26 33-49 38-79 3-24-14-41-38-37zM12728 17003c-2-7-5-14-10-22-6-8-9-21-12-34-7-29-23-57-33-85-10-27-46-27-55 0-10 28-26 62-26 92 0 36 6 70 22 102 10 18 35 34 56 32 10-2 22 2 33 1 45-4 62-65 25-86zM10971 15948c-72 0-72 111 0 111 71 0 71-111 0-111zM9351 16259c-9-17-18-35-31-49-13-13-36-13-48 0-14 14-22 32-32 49-24 43 6 97 56 97 49 0 79-54 55-97zM7722 15574c-24 11-46 26-69 40-27 16-33 55-10 78s62 18 79-10c14-22 29-45 39-69 12-27-12-51-39-39zM7159 14762c-37 0-37 57 0 57s37-57 0-57zM6929 16858c-4-31-19-82-59-82-37 0-54 47-57 77-3 24-6 49-9 74-4 36 33 66 66 66s70-30 67-66c-3-23-6-46-8-69zM6032 16611c-10-10-19-20-28-31-48-55-140-10-140 58 0 69 92 114 140 59 9-11 18-21 28-31 15-14 15-41 0-55zM12818 11656c-94 0-94 147 0 147 95 0 95-147 0-147zM13569 12652c-76 0-76 118 0 118s76-118 0-118zM12857 13685c-48-36-115 12-115 66s67 101 115 66c24-16 57-34 57-66s-33-50-57-66zM14782 13667c-108 0-108 168 0 168s108-168 0-168zM14745 12634c-10-10-20-20-29-30-43-43-119-11-119 50 0 60 76 93 119 49 9-10 19-19 29-29 10-11 10-29 0-40zM15824 14986c-11-16-21-33-35-47-13-14-37-14-51 0-13 14-23 31-34 47-31 45 10 105 60 105s91-60 60-105zM16168 14316c-90 0-90 140 0 140s90-140 0-140zM15475 16213c-101 0-101 158 0 158 102 0 102-158 0-158zM14205 16856c-93 0-93 143 0 143 92 0 92-143 0-143zM13538 15815c-10-15-22-24-35-34-20-16-42-26-68-18-30 8-51 36-51 67 0 25 13 48 35 60 29 17 59 9 84-11 13-10 25-19 35-34 6-8 6-22 0-30zM14782 15592c-83 0-83 129 0 129s83-129 0-129zM15706 13564c-92 0-92 143 0 143s92-143 0-143zM11482 17591c-8-14-16-29-25-43-10-19-39-19-49 0-8 14-17 29-25 43-21 38 6 86 50 86 43 0 70-48 49-86zM12111 15979c-24 10-47 24-69 37-30 17-34 58-11 82 24 23 65 18 82-11 12-23 27-45 37-69 12-28-12-51-39-39zM10913 14836c-90 0-90 140 0 140s90-140 0-140zM8834 15038c-71 0-116 75-131 136-8 32 4 74 36 88 2 2 5 3 8 4 9 23 47 24 58 2 30-13 51-39 51-73 1-38 21-78 19-116-1-22-18-41-41-41z"/><path fill="#CF873B" d="M7271 14710c-7-18-9-21-6-10 0-2-1-4-2-7-5-12-11-24-17-35-11-22-47-22-58 0-10 0-20-1-29-2-42-4-77 38-77 77s35 80 77 77c44-4 98-8 111-62 4-12 4-25 1-38zM5488 13772c-8-18-17-32-32-50-14-16-45-16-59 0-15 18-24 32-32 50-16 22-18 42-11 58 6 34 39 46 72 42 34 4 67-8 73-42 7-16 6-36-11-58zM4907 13625c-88 0-88 136 0 136 87 0 87-136 0-136zM9529 11290c-11-15-23-32-36-46s-36-14-48 0c-13 14-24 31-36 46-33 44 12 105 60 105s93-61 60-105zM11548 11609c-81 0-81 126 0 126s81-126 0-126zM10625 12695c-10-30-19-75-59-75s-49 45-58 75c-12 38 20 77 58 77 39 0 71-39 59-77zM7387 12523c-8-29-17-73-55-73s-46 44-55 73c-11 36 19 72 55 72 37 0 66-36 55-72zM12010 13407c-71 0-71 111 0 111 72 0 72-111 0-111zM13033 14721c-3-14-16-26-30-30-44-10-94 20-120 57l-2 2c-12 12-21 25-24 41-3 19-4 38-5 57-2 45 39 82 82 82s84-37 82-82c0-10-1-21 0-31v-15l3-4c11-23 20-52 14-77z"/></g></svg>