<svg xmlns="http://www.w3.org/2000/svg" width="210mm" height="297mm" shape-rendering="geometricPrecision" text-rendering="geometricPrecision" image-rendering="optimizeQuality" fill-rule="evenodd" clip-rule="evenodd" viewBox="0 0 21000 29700"><defs><linearGradient id="a" gradientUnits="userSpaceOnUse" x1="10660.2" y1="13967.3" x2="10660.2" y2="12670.5"><stop offset="0" stop-color="#DCA657"/><stop offset="1" stop-color="#FFFFA3"/></linearGradient><linearGradient id="b" gradientUnits="userSpaceOnUse" x1="10660.2" y1="13967.3" x2="10660.2" y2="12670.5"><stop offset="0" stop-color="#D68235"/><stop offset="1" stop-color="#F8C864"/></linearGradient><linearGradient id="c" gradientUnits="userSpaceOnUse" x1="10660.2" y1="13967.3" x2="10660.2" y2="12668.1"><stop offset="0" stop-color="#D68235"/><stop offset="1" stop-color="#F8C864"/></linearGradient><linearGradient id="d" gradientUnits="userSpaceOnUse" x1="10660.2" y1="13967.3" x2="10660.2" y2="12670.5"><stop offset="0" stop-color="#D68235"/><stop offset="1" stop-color="#F8C864"/></linearGradient><linearGradient id="e" gradientUnits="userSpaceOnUse" x1="10660.2" y1="13967.3" x2="10660.2" y2="12668.1"><stop offset="0" stop-color="#D68235"/><stop offset="1" stop-color="#F8C864"/></linearGradient><linearGradient id="f" gradientUnits="userSpaceOnUse" x1="10660.2" y1="13967.3" x2="10660.2" y2="12670.5"><stop offset="0" stop-color="#D68235"/><stop offset="1" stop-color="#F8C864"/></linearGradient><linearGradient id="g" gradientUnits="userSpaceOnUse" x1="10660.2" y1="13967.3" x2="10660.2" y2="12670.5"><stop offset="0" stop-color="#D68235"/><stop offset="1" stop-color="#F8C864"/></linearGradient><linearGradient id="h" gradientUnits="userSpaceOnUse" x1="10660.2" y1="13967.3" x2="10660.2" y2="12670.5"><stop offset="0" stop-color="#D68235"/><stop offset="1" stop-color="#F8C864"/></linearGradient><linearGradient id="i" gradientUnits="userSpaceOnUse" x1="10660.2" y1="13967.3" x2="10660.2" y2="12670.6"><stop offset="0" stop-color="#D68235"/><stop offset="1" stop-color="#F8C864"/></linearGradient><linearGradient id="j" gradientUnits="userSpaceOnUse" x1="10660.2" y1="13967.3" x2="10660.2" y2="12670.5"><stop offset="0" stop-color="#D68235"/><stop offset="1" stop-color="#F8C864"/></linearGradient><linearGradient id="k" gradientUnits="userSpaceOnUse" x1="10660.2" y1="13967.3" x2="10660.2" y2="12670.5"><stop offset="0" stop-color="#D68235"/><stop offset="1" stop-color="#F8C864"/></linearGradient><linearGradient id="l" gradientUnits="userSpaceOnUse" x1="10667.1" y1="15703.1" x2="10667.1" y2="13965"><stop offset="0" stop-color="#B08443"/><stop offset="1" stop-color="#FFED7A"/></linearGradient><linearGradient id="m" gradientUnits="userSpaceOnUse" x1="10667.1" y1="15703.1" x2="10667.1" y2="13965"><stop offset="0" stop-color="#AB6829"/><stop offset="1" stop-color="#F8BA4B"/></linearGradient><linearGradient id="n" gradientUnits="userSpaceOnUse" x1="10667" y1="15703.1" x2="10667" y2="13965"><stop offset="0" stop-color="#AB6829"/><stop offset="1" stop-color="#F8BA4B"/></linearGradient><linearGradient id="o" gradientUnits="userSpaceOnUse" x1="10667.1" y1="15703.1" x2="10667.1" y2="13964.1"><stop offset="0" stop-color="#AB6829"/><stop offset="1" stop-color="#F8BA4B"/></linearGradient><linearGradient id="p" gradientUnits="userSpaceOnUse" x1="10667.1" y1="15703.1" x2="10667.1" y2="13965"><stop offset="0" stop-color="#AB6829"/><stop offset="1" stop-color="#F8BA4B"/></linearGradient><linearGradient id="q" gradientUnits="userSpaceOnUse" x1="10667.1" y1="15703.1" x2="10667.1" y2="13965"><stop offset="0" stop-color="#AB6829"/><stop offset="1" stop-color="#F8BA4B"/></linearGradient><linearGradient id="r" gradientUnits="userSpaceOnUse" x1="10667.1" y1="15703.1" x2="10667.1" y2="13964.1"><stop offset="0" stop-color="#AB6829"/><stop offset="1" stop-color="#F8BA4B"/></linearGradient><linearGradient id="s" gradientUnits="userSpaceOnUse" x1="10667.1" y1="15703.1" x2="10667.1" y2="13965"><stop offset="0" stop-color="#AB6829"/><stop offset="1" stop-color="#F8BA4B"/></linearGradient><linearGradient id="t" gradientUnits="userSpaceOnUse" x1="10667.2" y1="15703.1" x2="10667.2" y2="13965"><stop offset="0" stop-color="#AB6829"/><stop offset="1" stop-color="#F8BA4B"/></linearGradient><linearGradient id="u" gradientUnits="userSpaceOnUse" x1="10667.1" y1="15703.1" x2="10667.1" y2="13964.1"><stop offset="0" stop-color="#AB6829"/><stop offset="1" stop-color="#F8BA4B"/></linearGradient><linearGradient id="v" gradientUnits="userSpaceOnUse" x1="10667.1" y1="15703.1" x2="10667.1" y2="13965"><stop offset="0" stop-color="#AB6829"/><stop offset="1" stop-color="#F8BA4B"/></linearGradient><linearGradient id="w" gradientUnits="userSpaceOnUse" x1="10667.1" y1="15703.1" x2="10667.1" y2="13965"><stop offset="0" stop-color="#AB6829"/><stop offset="1" stop-color="#F8BA4B"/></linearGradient><linearGradient id="x" gradientUnits="userSpaceOnUse" x1="10667.1" y1="15703.1" x2="10667.1" y2="13964.1"><stop offset="0" stop-color="#AB6829"/><stop offset="1" stop-color="#F8BA4B"/></linearGradient><linearGradient id="y" gradientUnits="userSpaceOnUse" x1="10667.1" y1="15703.1" x2="10667.1" y2="13965"><stop offset="0" stop-color="#AB6829"/><stop offset="1" stop-color="#F8BA4B"/></linearGradient><linearGradient id="z" gradientUnits="userSpaceOnUse" x1="10667.1" y1="15703.1" x2="10667.1" y2="13965"><stop offset="0" stop-color="#AB6829"/><stop offset="1" stop-color="#F8BA4B"/></linearGradient><linearGradient id="A" gradientUnits="userSpaceOnUse" x1="10647.6" y1="13967.3" x2="10647.6" y2="12668.1"><stop offset="0" stop-color="#D68235"/><stop offset="1" stop-color="#F8C864"/></linearGradient><linearGradient id="B" gradientUnits="userSpaceOnUse" x1="10658.9" y1="13967.3" x2="10658.9" y2="12668.1"><stop offset="0" stop-color="#D06620"/><stop offset="1" stop-color="#F19D3D"/></linearGradient><linearGradient id="C" gradientUnits="userSpaceOnUse" x1="10667.1" y1="15703.1" x2="10667.1" y2="13965"><stop offset="0" stop-color="#AB6829"/><stop offset="1" stop-color="#F8BA4B"/></linearGradient><linearGradient id="D" gradientUnits="userSpaceOnUse" x1="10667.1" y1="15703.1" x2="10667.1" y2="13965.1"><stop offset="0" stop-color="#AB6829"/><stop offset="1" stop-color="#F8BA4B"/></linearGradient><linearGradient id="E" gradientUnits="userSpaceOnUse" x1="10667.1" y1="15703" x2="10667.1" y2="13966.6"><stop offset="0" stop-color="#A65219"/><stop offset="1" stop-color="#F1922E"/></linearGradient><linearGradient id="F" gradientUnits="userSpaceOnUse" x1="10667" y1="15703" x2="10667" y2="13966.6"><stop offset="0" stop-color="#A65219"/><stop offset="1" stop-color="#F1922E"/></linearGradient><linearGradient id="G" gradientUnits="userSpaceOnUse" x1="10667.1" y1="15703" x2="10667.1" y2="13966.6"><stop offset="0" stop-color="#A65219"/><stop offset="1" stop-color="#F1922E"/></linearGradient><linearGradient id="H" gradientUnits="userSpaceOnUse" x1="10667.2" y1="15703" x2="10667.2" y2="13966.6"><stop offset="0" stop-color="#A65219"/><stop offset="1" stop-color="#F1922E"/></linearGradient><linearGradient id="I" gradientUnits="userSpaceOnUse" x1="10667.1" y1="15703" x2="10667.1" y2="13966.6"><stop offset="0" stop-color="#A65219"/><stop offset="1" stop-color="#F1922E"/></linearGradient><linearGradient id="J" gradientUnits="userSpaceOnUse" x1="10667.1" y1="15703.2" x2="10667.1" y2="13965"><stop offset="0" stop-color="#AB6829"/><stop offset="1" stop-color="#F8BA4B"/></linearGradient><linearGradient id="K" gradientUnits="userSpaceOnUse" x1="10667.1" y1="15703.2" x2="10667.1" y2="13965"><stop offset="0" stop-color="#A65219"/><stop offset="1" stop-color="#F1922E"/></linearGradient><linearGradient id="L" gradientUnits="userSpaceOnUse" x1="10667" y1="15703.2" x2="10667" y2="13965"><stop offset="0" stop-color="#A65219"/><stop offset="1" stop-color="#F1922E"/></linearGradient><linearGradient id="M" gradientUnits="userSpaceOnUse" x1="10667.1" y1="15703.2" x2="10667.1" y2="13965"><stop offset="0" stop-color="#A65219"/><stop offset="1" stop-color="#F1922E"/></linearGradient><linearGradient id="N" gradientUnits="userSpaceOnUse" x1="10667.2" y1="15703.2" x2="10667.2" y2="13965"><stop offset="0" stop-color="#A65219"/><stop offset="1" stop-color="#F1922E"/></linearGradient><linearGradient id="O" gradientUnits="userSpaceOnUse" x1="10667.1" y1="15703.2" x2="10667.1" y2="13965"><stop offset="0" stop-color="#A65219"/><stop offset="1" stop-color="#F1922E"/></linearGradient><linearGradient id="P" gradientUnits="userSpaceOnUse" x1="10667.1" y1="15703.1" x2="10667.1" y2="13965"><stop offset="0" stop-color="#A65219"/><stop offset="1" stop-color="#F1922E"/></linearGradient><linearGradient id="Q" gradientUnits="userSpaceOnUse" x1="10667.1" y1="15703.1" x2="10667.1" y2="13965"><stop offset="0" stop-color="#A65219"/><stop offset="1" stop-color="#F1922E"/></linearGradient><linearGradient id="R" gradientUnits="userSpaceOnUse" x1="8051.39" y1="12854.5" x2="8051.39" y2="12131.1"><stop offset="0" stop-color="#B08443"/><stop offset="1" stop-color="#FFED7A"/></linearGradient><linearGradient id="S" gradientUnits="userSpaceOnUse" x1="8051.39" y1="12854.5" x2="8051.39" y2="12131.1"><stop offset="0" stop-color="#9B7239"/><stop offset="1" stop-color="#E4D16A"/></linearGradient><linearGradient id="T" gradientUnits="userSpaceOnUse" x1="13281.5" y1="12854.5" x2="13281.5" y2="12131.1"><stop offset="0" stop-color="#B08443"/><stop offset="1" stop-color="#FFED7A"/></linearGradient><linearGradient id="U" gradientUnits="userSpaceOnUse" x1="13281.5" y1="12854.5" x2="13281.5" y2="12131.1"><stop offset="0" stop-color="#9B7239"/><stop offset="1" stop-color="#E4D16A"/></linearGradient></defs><path fill="#CFE3D4" fill-rule="nonzero" d="M10667 20467c-3059 0-5747-180-7287-452 19-17 37-44 55-79 1405 289 4117 484 7232 484s5827-195 7232-484c18 35 36 62 55 79-1540 272-4228 452-7287 452zm7710-535c-4-31-8-67-12-109 359-105 556-219 556-338 0-124-212-242-596-350v-109c638 137 999 293 999 459 0 161-342 313-947 447zm-15420 0c-605-134-947-286-947-447 0-166 361-322 999-459v109c-384 108-596 226-596 350 0 119 197 233 556 338-4 42-8 78-12 109zm14820-923c-1437-275-4083-460-7110-460s-5673 185-7110 460c-1-29-2-57-3-84 1564-255 4166-422 7113-422s5549 167 7113 422c-1 27-2 55-3 84z"/><path fill="#CFE3D4" fill-rule="nonzero" d="M10667 20420c-3115 0-5827-195-7232-484 13-27 26-59 38-95 1214 314 3978 533 7194 533s5980-219 7194-533c12 36 25 68 38 95-1405 289-4117 484-7232 484zm-7698-597c-359-105-556-219-556-338 0-124 212-242 596-350 0 52-1 103-3 154-124 63-191 128-191 196 0 63 59 124 169 184-5 56-10 108-15 154zm15396 0c-5-46-10-98-15-154 110-60 169-121 169-184 0-68-67-133-192-196-1-51-2-102-2-154 384 108 596 226 596 350 0 119-197 233-556 338zm-591-717c-1255-301-3966-510-7107-510s-5852 209-7107 510c-1-33-1-65-3-97 1437-275 4083-460 7110-460s5673 185 7110 460c-2 32-2 64-3 97z"/><path fill="#CEE1D3" fill-rule="nonzero" d="M10667 20374c-3216 0-5980-219-7194-533 13-37 25-79 36-123 895 352 3761 609 7158 609s6263-257 7158-609c11 44 23 86 36 123-1214 314-3978 533-7194 533zm-7683-705c-110-60-169-121-169-184 0-68 67-133 191-196-4 137-12 267-22 380zm15366 0c-10-113-18-243-23-380 125 63 192 128 192 196 0 63-59 124-169 184zm-577-438c-951-341-3773-589-7106-589-3334 0-6155 248-7106 589 0-42 0-84-1-125 1255-301 3966-510 7107-510s5852 209 7107 510c-1 41-1 83-1 125z"/><path fill="#CDE0D1" fill-rule="nonzero" d="M10667 20327c-3397 0-6263-257-7158-609 21-92 37-195 45-298 4-64 6-127 7-189 951-341 3772-589 7106-589 3333 0 6155 248 7106 589 1 62 3 125 7 189 8 103 24 206 45 298-895 352-3761 609-7158 609zm0-1638c-3891 0-7046 356-7046 796 0 439 3155 795 7046 795s7046-356 7046-795c0-440-3155-796-7046-796z"/><path fill="#CBDECF" fill-rule="nonzero" d="M10667 20280c-3891 0-7046-356-7046-795 0-440 3155-796 7046-796s7046 356 7046 796c0 439-3155 795-7046 795zm0-1544c-3669 0-6643 335-6643 749 0 413 2974 749 6643 749s6643-336 6643-749c0-414-2974-749-6643-749z"/><path fill="#C9DBCC" fill-rule="nonzero" d="M10667 20234c-3669 0-6643-336-6643-749 0-414 2974-749 6643-749s6643 335 6643 749c0 413-2974 749-6643 749zm0-1452c-3446 0-6240 315-6240 703s2794 702 6240 702c3447 0 6240-314 6240-702s-2793-703-6240-703z"/><path fill="#C5D7C9" fill-rule="nonzero" d="M10667 20187c-3446 0-6240-314-6240-702s2794-703 6240-703c3447 0 6240 315 6240 703s-2793 702-6240 702zm0-1358c-3224 0-5837 294-5837 656s2613 655 5837 655 5837-293 5837-655-2613-656-5837-656z"/><path fill="#C2D4C6" fill-rule="nonzero" d="M10667 20140c-3224 0-5837-293-5837-655s2613-656 5837-656 5837 294 5837 656-2613 655-5837 655zm0-1264c-3002 0-5435 272-5435 609 0 336 2433 609 5435 609s5434-273 5434-609c0-337-2432-609-5434-609z"/><path fill="#BECFC1" fill-rule="nonzero" d="M10667 20094c-3002 0-5435-273-5435-609 0-337 2433-609 5435-609s5434 272 5434 609c0 336-2432 609-5434 609zm0-1171c-2779 0-5032 251-5032 562 0 310 2253 562 5032 562s5032-252 5032-562c0-311-2253-562-5032-562z"/><path fill="#BAC9BC" fill-rule="nonzero" d="M10667 20047c-2779 0-5032-252-5032-562 0-311 2253-562 5032-562s5032 251 5032 562c0 310-2253 562-5032 562zm0-1078c-2557 0-4629 231-4629 516s2072 516 4629 516 4629-231 4629-516-2072-516-4629-516z"/><path fill="#B5C3B7" fill-rule="nonzero" d="M10667 20001c-2557 0-4629-231-4629-516s2072-516 4629-516 4629 231 4629 516-2072 516-4629 516zm0-985c-2334 0-4226 210-4226 469s1892 469 4226 469 4226-210 4226-469-1892-469-4226-469z"/><path fill="#B0BCB0" fill-rule="nonzero" d="M10667 19954c-2334 0-4226-210-4226-469s1892-469 4226-469 4226 210 4226 469-1892 469-4226 469zm0-891c-2112 0-3823 188-3823 422 0 233 1711 422 3823 422s3823-189 3823-422c0-234-1711-422-3823-422z"/><path fill="#AAB5A8" fill-rule="nonzero" d="M10667 19907c-2112 0-3823-189-3823-422 0-234 1711-422 3823-422s3823 188 3823 422c0 233-1711 422-3823 422zm0-798c-1889 0-3421 168-3421 376 0 207 1532 376 3421 376s3421-169 3421-376c0-208-1532-376-3421-376z"/><path fill="#A3ADA2" fill-rule="nonzero" d="M10667 19861c-1889 0-3421-169-3421-376 0-208 1532-376 3421-376s3421 168 3421 376c0 207-1532 376-3421 376zm0-705c-1667 0-3018 147-3018 329 0 181 1351 329 3018 329s3018-148 3018-329c0-182-1351-329-3018-329z"/><path fill="#9DA59A" fill-rule="nonzero" d="M10667 19814c-1667 0-3018-148-3018-329 0-182 1351-329 3018-329s3018 147 3018 329c0 181-1351 329-3018 329zm0-611c-1444 0-2615 126-2615 282s1171 282 2615 282 2615-126 2615-282-1171-282-2615-282z"/><path fill="#959B90" fill-rule="nonzero" d="M10667 19767c-1444 0-2615-126-2615-282s1171-282 2615-282 2615 126 2615 282-1171 282-2615 282zm0-518c-1222 0-2212 105-2212 236 0 130 990 236 2212 236s2212-106 2212-236c0-131-990-236-2212-236z"/><path fill="#8C9187" fill-rule="nonzero" d="M10667 19721c-1222 0-2212-106-2212-236 0-131 990-236 2212-236s2212 105 2212 236c0 130-990 236-2212 236zm0-425c-999 0-1809 84-1809 189 0 104 810 189 1809 189s1809-85 1809-189c0-105-810-189-1809-189z"/><path fill="#84867E" fill-rule="nonzero" d="M10667 19674c-999 0-1809-85-1809-189 0-105 810-189 1809-189s1809 84 1809 189c0 104-810 189-1809 189zm0-332c-777 0-1406 64-1406 143 0 78 629 142 1406 142s1406-64 1406-142c0-79-629-143-1406-143z"/><path fill="#7B7B74" fill-rule="nonzero" d="M10667 19627c-777 0-1406-64-1406-142 0-79 629-143 1406-143s1406 64 1406 143c0 78-629 142-1406 142zm0-238c-554 0-1004 43-1004 96s450 96 1004 96 1003-43 1003-96-449-96-1003-96z"/><path fill="#717067" fill-rule="nonzero" d="M10667 19581c-554 0-1004-43-1004-96s450-96 1004-96 1003 43 1003 96-449 96-1003 96zm0-145c-332 0-601 22-601 49s269 49 601 49 601-22 601-49-269-49-601-49z"/><path fill="#68635C" fill-rule="nonzero" d="M10667 19534c-332 0-601-22-601-49s269-49 601-49 601 22 601 49-269 49-601 49zm0-52c-109 0-198 1-198 3 0 1 89 2 198 2s198-1 198-2c0-2-89-3-198-3z"/><path fill="#5D5651" fill-rule="nonzero" d="M10667 19487c-109 0-198-1-198-2 0-2 89-3 198-3s198 1 198 3c0 1-89 2-198 2z"/><path fill="#7D2100" fill-rule="nonzero" d="M15524 12934H5809v-2552l4851-516 4864 516z"/><path fill="#902700" fill-rule="nonzero" d="M5809 13329h-387v-3078c0-47 39-86 86-86h215c47 0 86 39 86 86v3078zM15524 13329h386v-3078c0-47-38-86-85-86h-215c-47 0-86 39-86 86v3078z"/><path fill="#B7C8BA" fill-rule="nonzero" d="M15524 10569v-187l-4864-516-4851 516v-23s453-61 969-138l3845-410c32 9 51 16 51 16s16-6 43-14l3895 414c448 66 836 119 912 130v212z"/><path fill="#6C1C00" fill-rule="nonzero" d="M5841 10569h-32v-187l4851-516 4864 516v187h-21c-173 0-951-5-1566-88-696-93-1105-208-1866-239-34-2-69-2-104-2-618 0-1293 206-1293 206s-676-206-1293-206c-35 0-70 0-105 2-760 31-1169 146-1865 239-618 84-1402 88-1570 88z"/><path fill="#902700" fill-rule="nonzero" d="M14136 10055c-667-105-1246-427-1994-497-749-70-1468 169-1468 169s-719-239-1468-169c-748 70-1327 392-1994 497s-1403 204-1403 204v211s906 6 1602-88c696-93 1105-209 1865-239 644-27 1398 204 1398 204s754-231 1397-204c761 30 1170 146 1866 239 695 94 1602 88 1602 88v-211s-737-99-1403-204z"/><path fill="#7D2100" fill-rule="nonzero" d="M3648 18256h14036v-2445H3648z"/><path fill="#902700" fill-rule="nonzero" d="M3648 16003h14036v-300H3648zM3648 18406h14036v-300H3648z"/><path fill="#6C1C00" fill-rule="nonzero" d="M3650 16078h14034v-75H3650z"/><path fill="#7A1900" fill-rule="nonzero" d="M17686 16888c-4125 2-9818 155-13989-74v-230c4171-230 9864-77 13989-56v360zM17686 17405c-4413 180-9866 38-14038-192v-132c5574 324 10309 243 14038-47v371zM3648 17487s1307 194 2662 242c1354 48 4255 0 4314 60 60 60-2613 179-4231 60-1618-120-2745-156-2745-156v-206z"/><path fill="#902700" fill-rule="nonzero" d="M17684 15703v2703c177 72 61 508 96 1014 22 308 122 618 221 618h293c25 0 48-11 64-29s23-42 20-66c-21-178-63-578-52-965 13-423 165-1759 165-2404 0-589-213-871-807-871z"/><path fill="#7A1900" fill-rule="nonzero" d="M18032 15748c-59-18-125-30-197-37 48 190 119 529 119 870 0 511-178 2494-180 2508v199c1 19 2 39 2 59 27-168 349-2198 349-2648 0-294-53-694-93-951zM18431 16135c-36-106-89-193-163-259 23 212 54 658-17 1160-76 536-313 2022-421 2697 16 65 35 124 56 172 112-688 430-2630 482-2940 36-217 54-569 63-830z"/><path fill="#902700" fill-rule="nonzero" d="M3650 15703v2703c-177 72-61 508-96 1014-22 308-122 618-221 618h-293c-24 0-48-11-64-29s-23-42-20-66c21-178 63-578 52-965-13-423-165-1759-165-2404 0-589 213-871 807-871z"/><path fill="#7A1900" fill-rule="nonzero" d="M3302 15748c59-18 125-30 197-37-48 190-119 529-119 870 0 511 178 2494 179 2508l1 3v196c-1 19-2 39-2 59-27-168-349-2198-349-2648 0-294 53-694 93-951zM2903 16135c36-106 89-193 163-259-23 212-54 658 17 1160 76 536 313 2022 421 2697-16 65-35 124-56 172-112-688-430-2630-482-2940-36-217-54-569-63-830z"/><path fill="url(#a)" d="M17549 13967l-1888-1215c-60-34-138-64-199-76 19 4 40 9 62 16 49 16 101 38 142 63l244 157 1639 1055zm-361-2h-4877 1055l-714-1112c205 1 417 1 630 1h166l998 1111h1079l-1287-1114c301-2 572-5 784-7l1577 1117 589 4zm-4902 0l-1079-1-166-1293h-748l-166 1293H9048l430-1117c119-1 229-2 326-3 202-2 371-74 431-173h863c60 99 229 171 431 173 97 1 207 2 327 3l430 1118zm-4317-2l-1078-1 995-1108h166c212 0 425 0 630-1l-713 1110zm-2157-1H4719l16-1 1577-1117c212 2 483 5 784 7l-1284 1111zm-1877-105l1487-946 245-156c42-25 93-47 142-62 21-7 43-13 62-17-61 12-139 42-198 76l-1738 1105z"/><path fill="#C9B282" fill-rule="nonzero" d="M6888 13965H5809l3-3h1079z"/><path fill="url(#b)" d="M6891 13962H5812l1284-1111c249 2 518 3 790 3l-995 1108z"/><path fill="url(#c)" d="M9048 13965H7968l1-2 1079 1z"/><path fill="url(#d)" d="M9048 13964l-1079-1 713-1110c288-1 561-3 796-6l-430 1117z"/><path fill="url(#e)" d="M11207 13965h-1080v-1h1080z"/><path fill="url(#f)" d="M11207 13964h-1080l166-1293h748z"/><path fill="url(#g)" d="M13366 13965h-1080l-430-1118c235 3 508 5 796 6l714 1112z"/><path fill="url(#h)" d="M15525 13965h-1079l-998-1111c272 0 541-1 790-3l1287 1114z"/><path fill="url(#i)" d="M3732 13985l203-128-164 104 948 1-126 3h-782c-29 0-56 7-79 20z"/><path fill="url(#j)" d="M4719 13962l-948-1 164-104 1738-1105c59-34 137-64 198-76 63 97 230 166 428 168h13l-1577 1117-16 1z"/><path fill="url(#k)" d="M17549 13967c-8-1-17-2-26-2h-335l-589-4-1577-1117h12c198-2 365-72 428-168 61 12 139 42 199 76l1888 1215z"/><path fill="url(#l)" d="M17686 15703h-2v-1581c0-14-2-28-6-41v-1h-1v-1 1h1v1c5 16 8 33 8 50v1572zm-1081 0h-1080v-39h1080v39zm-2159 0h-1080v-39h1080v39zm-2160 0h-1079v-39h1079v39zm-2159 0H9048v-39h1079v39zm-2159 0H6888v-39h1080v39zm-2159 0H4729v-39h1080v39zm-2159 0h-2v-1572c0-16 3-32 7-47l1-1v-3h1v-1 1h-1v3l-1 1c-3 12-5 25-5 38v1581zm12955-96h-1080v-1393h1080v1393zm-2159 0h-1080v-1393h1080v1393zm-2160 0h-1079v-1393h1079v1393zm-2159 0H9048v-1393h1079v1393zm-2159 0H6888v-1393h1080v1393zm-2159 0H4729v-1393h1080v1393zm10796-1450h-1080v-192h1080v192zm-1080-192h-1079 1079zm-1079 0v192h-1080v-192h1080zm-1080 0h-1080 1080zm-1080 0v192h-1079v-192h1079zm-1079 0h-1080 1080zm-1080 0v192H9048v-192h1079zm-1079 0H7968h1080zm-1080 0v192H6888v-192h1080zm-1080 0H5809h1079zm-1079 0v192H4729v-192h1080zm-1080 0h-914 914zm11876 0h914-914z"/><path fill="#8C1F00" fill-rule="nonzero" d="M5809 15711h1079v-8H5809z"/><path fill="url(#m)" d="M6888 15703H5809v-39h1079v39zm0-96H5809v-1393h1079v1393zm0-1450H5809v-192h1079v192z"/><path fill="url(#n)" d="M7968 15607h1080v-1393H7968z"/><path fill="url(#o)" d="M7968 15711h1080v-8H7968z"/><path fill="url(#p)" d="M9048 15703H7968v-39h1080v39zm0-1546H7968v-192h1080v192z"/><path fill="url(#q)" d="M10127 15607h1080v-1393h-1080z"/><path fill="url(#r)" d="M10127 15711h1080v-8h-1080z"/><path fill="url(#s)" d="M11207 15703h-1080v-39h1080v39zm0-1546h-1080v-192h1080v192z"/><path fill="url(#t)" d="M12286 15607h1080v-1393h-1080z"/><path fill="url(#u)" d="M12286 15711h1080v-8h-1080z"/><path fill="url(#v)" d="M13366 15703h-1080v-39h1080v39zm0-1546h-1080v-192h1080v192z"/><path fill="url(#w)" d="M14446 15607h1079v-1393h-1079z"/><path fill="url(#x)" d="M14446 15711h1079v-8h-1079z"/><path fill="url(#y)" d="M15525 15703h-1079v-39h1079v39zm0-1546h-1079v-192h1079v192z"/><path fill="#C9B282" fill-rule="nonzero" d="M3657 14079c12-40 40-73 75-94l-5 4 2-1c-34 21-60 53-72 91z"/><path fill="#C38C50" fill-rule="nonzero" d="M3727 13989l5-4c23-13 50-20 79-20h4c-32 0-61 9-86 23l-2 1z"/><path fill="url(#z)" d="M4729 15703H3650v-1581c0-15 3-29 7-43 12-38 38-70 72-91 25-14 54-23 86-23h914v192h-791c-96 0-174 78-174 174v1159c0 96 78 174 174 174h791v39zm0-96h-791c-64 0-117-53-117-117v-1159c0-64 53-117 117-117h791v1393z"/><path fill="#C9B282" fill-rule="nonzero" d="M17677 14079c-19-58-69-101-129-112h2-1c61 10 110 54 128 112z"/><path fill="url(#A)" d="M17550 13967h-1 1zm0 0h-2 2z"/><path fill="url(#B)" d="M17550 13967h-2c-9-1-17-2-26-2h-3 4c9 0 18 1 26 2h1z"/><path fill="url(#C)" d="M17684 15703h-1079v-39h791c96 0 175-78 175-174v-1160c0-96-78-173-174-173h-792v-192h914c10 0 19 1 29 2 60 11 110 54 129 112 4 14 7 28 7 43v1581zm-136-1736zm-152 1640h-791v-1393h792c64 0 116 52 116 116v1160c0 64-53 117-117 117z"/><path fill="url(#D)" d="M16605 15664h-1080v-57h1080v57zm-2159 0h-1080v-57h1080v57zm-2160 0h-1079v-57h1079v57zm-2159 0H9048v-57h1079v57zm-2159 0H6888v-57h1080v57zm-2159 0H4729v-57h1080v57z"/><path fill="url(#E)" d="M5809 15664h1079v-57H5809z"/><path fill="url(#F)" d="M7968 15664h1080v-57H7968z"/><path fill="url(#G)" d="M10127 15664h1080v-57h-1080z"/><path fill="url(#H)" d="M12286 15664h1080v-57h-1080z"/><path fill="url(#I)" d="M14446 15664h1079v-57h-1079z"/><path fill="url(#J)" d="M16605 14214h-1080v-57h1080v57zm-2159 0h-1080v-57h1080v57zm-2160 0h-1079v-57h1079v57zm-2159 0H9048v-57h1079v57zm-2159 0H6888v-57h1080v57zm-2159 0H4729v-57h1080v57z"/><path fill="url(#K)" d="M5809 14214h1079v-57H5809z"/><path fill="url(#L)" d="M7968 14214h1080v-57H7968z"/><path fill="url(#M)" d="M10127 14214h1080v-57h-1080z"/><path fill="url(#N)" d="M12286 14214h1080v-57h-1080z"/><path fill="url(#O)" d="M14446 14214h1079v-57h-1079z"/><path fill="url(#P)" d="M4729 15664h-791c-96 0-174-78-174-174v-1159c0-96 78-174 174-174h791v57h-791c-64 0-117 53-117 117v1159c0 64 53 117 117 117h791v57z"/><path fill="url(#Q)" d="M17396 15664h-791v-57h791c64 0 117-53 117-117v-1160c0-64-52-116-116-116h-792v-57h792c96 0 174 77 174 173v1160c0 96-79 174-175 174z"/><path fill="url(#R)" d="M8052 12751c-665 0-1330-6-1753-11-246-3-443-183-453-316l-2 11c0-130 183-239 421-251 439-23 1150-53 1787-53 635 0 1347 30 1786 53 239 12 421 120 421 251l-2-11c-11 132-207 313-453 316-424 5-1088 11-1752 11zm-2208-316v156-156zm4415 0z"/><path fill="url(#S)" d="M8052 12854h-166c-272 0-541-1-790-3-301-2-572-5-784-7h-13c-198-2-365-71-428-168-18-26-27-55-27-85v-156l2-11c10 133 207 313 453 316 423 5 1088 11 1753 11 664 0 1328-6 1752-11 246-3 442-184 453-316l2 11v156c0 138-202 250-455 253-97 1-207 2-326 3-235 3-508 5-796 6-205 1-418 1-630 1z"/><path fill="url(#T)" d="M13282 12751c-665 0-1330-6-1753-11-246-3-442-184-453-316l-2 11c0-131 182-239 421-251 439-23 1151-53 1787-53s1347 30 1786 53c238 12 421 121 421 251l-2-11c-11 133-207 313-453 316-423 5-1088 11-1752 11zm-2208-316v156-156zm4415 0z"/><path fill="url(#U)" d="M13282 12854c-213 0-425 0-630-1-288-1-561-3-796-6-120-1-230-2-327-3-253-3-455-115-455-253v-156l2-11c11 132 207 313 453 316 423 5 1088 11 1753 11 664 0 1329-6 1752-11 246-3 442-183 453-316l2 11v156c0 30-10 59-27 85-63 96-230 166-428 168h-12c-212 2-483 5-784 7-249 2-518 3-790 3h-166z"/></svg>