<?xml version="1.0" encoding="UTF-8"?>
<!DOCTYPE svg PUBLIC "-//W3C//DTD SVG 1.1//EN" "http://www.w3.org/Graphics/SVG/1.1/DTD/svg11.dtd">
<!-- Creator: CorelDRAW X7 -->
<svg xmlns="http://www.w3.org/2000/svg" xml:space="preserve" width="1520px" height="915px" version="1.1" shape-rendering="geometricPrecision" text-rendering="geometricPrecision" image-rendering="optimizeQuality" fill-rule="evenodd" clip-rule="evenodd"
viewBox="0 0 1467 883"
 xmlns:xlink="http://www.w3.org/1999/xlink">
 <g id="Слой_x0020_1">
  <metadata id="CorelCorpID_0Corel-Layer"/>
  <g id="_5975166880">
   <polygon fill="#00A0E3" fill-rule="nonzero" points="1030,335 1186,335 1186,20 1030,20 "/>
   <path fill="#4E5352" fill-rule="nonzero" d="M1042 156l133 0c17,0 31,-14 31,-31l0 -94c0,-17 -14,-31 -31,-31l-133 0c-17,0 -31,14 -31,31l0 94c0,17 14,31 31,31z"/>
   <polygon fill="#00A0E3" fill-rule="nonzero" points="813,343 931,343 931,104 813,104 "/>
   <path fill="#4E5352" fill-rule="nonzero" d="M829 207l85 0c18,0 32,-14 32,-31l0 -56c0,-17 -14,-31 -32,-31l-85 0c-17,0 -31,14 -31,31l0 56c0,17 14,31 31,31z"/>
   <polygon fill="#5F6466" fill-rule="nonzero" points="572,717 697,717 697,322 572,322 "/>
   <path fill="#4E5352" fill-rule="nonzero" d="M1281 593l19 0c26,0 47,-21 47,-47l0 -53c0,-26 -21,-47 -47,-47l-19 0c-26,0 -47,21 -47,47l0 53c0,26 21,47 47,47z"/>
   <path fill="#5F6466" fill-rule="nonzero" d="M1186 520c0,107 25,195 56,195 32,0 57,-88 57,-195 0,-108 -25,-196 -57,-196 -31,0 -56,88 -56,196z"/>
   <path fill="#86776F" fill-rule="nonzero" d="M1237 726l-548 0c-17,0 -31,-14 -31,-31l0 -351c0,-17 14,-31 31,-31l548 0c17,0 31,14 31,31l0 351c0,17 -14,31 -31,31z"/>
   <path fill="#86776F" fill-rule="nonzero" d="M117 738l412 0c45,0 83,-37 83,-83l0 -491c0,-46 -38,-84 -83,-84l-412 0c-45,0 -83,38 -83,84l0 491c0,46 38,83 83,83z"/>
   <polygon fill="#E8E9EE" fill-rule="nonzero" points="310,428 522,428 522,216 310,216 "/>
   <polygon fill="#CED0D6" fill-rule="nonzero" points="426,216 310,333 310,420 513,216 "/>
   <polygon fill="#CED0D6" fill-rule="nonzero" points="522,286 380,428 466,428 522,373 "/>
   <polygon fill="#E8E9EE" fill-rule="nonzero" points="100,593 270,593 270,216 100,216 "/>
   <polygon fill="#CED0D6" fill-rule="nonzero" points="270,216 172,216 100,288 100,408 270,238 "/>
   <polygon fill="#CED0D6" fill-rule="nonzero" points="270,347 100,517 100,593 144,593 270,467 "/>
   <polygon fill="#5F6466" fill-rule="nonzero" points="0,151 658,151 658,43 0,43 "/>
   <polygon fill="#4E5352" fill-rule="nonzero" points="18,760 1231,760 1231,691 18,691 "/>
   <polygon fill="#474B4A" fill-rule="nonzero" points="1193,819 1460,819 1302,653 1193,653 "/>
   <path fill="#FFED00" fill-rule="nonzero" d="M934 773c0,61 50,110 111,110 60,0 110,-49 110,-110 0,-61 -50,-110 -110,-110 -61,0 -111,49 -111,110z"/>
   <path fill="#4E5352" fill-rule="nonzero" d="M954 773c0,50 41,90 91,90 49,0 90,-40 90,-90 0,-50 -41,-91 -90,-91 -50,0 -91,41 -91,91z"/>
   <path fill="#FFED00" fill-rule="nonzero" d="M708 773c0,61 50,110 111,110 61,0 110,-49 110,-110 0,-61 -49,-110 -110,-110 -61,0 -111,49 -111,110z"/>
   <path fill="#4E5352" fill-rule="nonzero" d="M728 773c0,50 41,90 91,90 50,0 90,-40 90,-90 0,-50 -40,-91 -90,-91 -50,0 -91,41 -91,91z"/>
   <path fill="#5F6466" fill-rule="nonzero" d="M800 789l263 0c9,0 15,-6 15,-14l0 -4c0,-8 -6,-15 -15,-15l-263 0c-8,0 -15,7 -15,15l0 4c0,8 7,14 15,14z"/>
   <path fill="#00A0E3" fill-rule="nonzero" d="M335 736c0,81 66,147 147,147 81,0 147,-66 147,-147 0,-81 -66,-147 -147,-147 -81,0 -147,66 -147,147z"/>
   <path fill="#4E5352" fill-rule="nonzero" d="M361 736c0,67 54,121 121,121 67,0 121,-54 121,-121 0,-67 -54,-121 -121,-121 -67,0 -121,54 -121,121z"/>
   <path fill="#00A0E3" fill-rule="nonzero" d="M33 736c0,81 66,147 147,147 82,0 148,-66 148,-147 0,-81 -66,-147 -148,-147 -81,0 -147,66 -147,147z"/>
   <path fill="#4E5352" fill-rule="nonzero" d="M60 736c0,67 54,121 120,121 67,0 121,-54 121,-121 0,-67 -54,-121 -121,-121 -66,0 -120,54 -120,121z"/>
   <path fill="#5F6466" fill-rule="nonzero" d="M154 758l355 0c10,0 18,-8 18,-18l0 -8c0,-10 -8,-18 -18,-18l-355 0c-10,0 -18,8 -18,18l0 8c0,10 8,18 18,18z"/>
   <polygon fill="#5F6466" fill-rule="nonzero" points="1186,663 1321,663 1321,645 1186,645 "/>
   <polygon fill="#5F6466" fill-rule="nonzero" points="1186,827 1467,827 1467,810 1186,810 "/>
   <path fill="#00A0E3" fill-rule="nonzero" d="M1065 504c0,57 -46,103 -102,103 -56,0 -102,-46 -102,-103 0,-56 46,-102 102,-102 56,0 102,46 102,102z"/>
   <path fill="#B4B6BC" fill-rule="nonzero" d="M1049 504c0,48 -38,87 -86,87 -48,0 -86,-39 -86,-87 0,-47 38,-86 86,-86 48,0 86,39 86,86z"/>
   <polygon fill="#CED0D6" fill-rule="nonzero" points="963,445 978,490 1026,490 987,519 1002,564 963,536 924,564 939,519 900,490 948,490 "/>
  </g>
 </g>
</svg>
