<svg xmlns="http://www.w3.org/2000/svg" width="210mm" height="297mm" shape-rendering="geometricPrecision" text-rendering="geometricPrecision" image-rendering="optimizeQuality" fill-rule="evenodd" clip-rule="evenodd" viewBox="0 0 21000 29700"><defs><linearGradient id="a" gradientUnits="userSpaceOnUse" x1="8555.24" y1="14640.2" x2="18542" y2="15582.5"><stop offset="0" stop-color="#E73A47"/><stop offset="1" stop-color="#E31E24"/></linearGradient><linearGradient id="b" gradientUnits="userSpaceOnUse" x1="8556.01" y1="14640.2" x2="18544.4" y2="15582.5"><stop offset="0" stop-color="#ED7181"/><stop offset="1" stop-color="#EB5F6C"/></linearGradient><linearGradient id="c" gradientUnits="userSpaceOnUse" x1="8556.01" y1="14640.2" x2="18544.4" y2="15582.5"><stop offset="0" stop-color="#ED7181"/><stop offset="1" stop-color="#EB5F6C"/></linearGradient><linearGradient id="d" gradientUnits="userSpaceOnUse" x1="8555.97" y1="14640.2" x2="18544.4" y2="15582.5"><stop offset="0" stop-color="#ED7181"/><stop offset="1" stop-color="#EB5F6C"/></linearGradient><linearGradient id="e" gradientUnits="userSpaceOnUse" x1="8556.08" y1="14640.1" x2="18544.3" y2="15582.5"><stop offset="0" stop-color="#ED7181"/><stop offset="1" stop-color="#EB5F6C"/></linearGradient><linearGradient id="f" gradientUnits="userSpaceOnUse" x1="8555.82" y1="14640.2" x2="18544.5" y2="15582.5"><stop offset="0" stop-color="#ED7181"/><stop offset="1" stop-color="#EB5F6C"/></linearGradient><linearGradient id="g" gradientUnits="userSpaceOnUse" x1="8556.01" y1="14640.2" x2="18544.4" y2="15582.5"><stop offset="0" stop-color="#ED7181"/><stop offset="1" stop-color="#EB5F6C"/></linearGradient><linearGradient id="h" gradientUnits="userSpaceOnUse" x1="8555.82" y1="14640.2" x2="18544.5" y2="15582.5"><stop offset="0" stop-color="#ED7181"/><stop offset="1" stop-color="#EB5F6C"/></linearGradient><linearGradient id="i" gradientUnits="userSpaceOnUse" x1="8555.9" y1="14640.1" x2="18544.5" y2="15582.4"><stop offset="0" stop-color="#ED7181"/><stop offset="1" stop-color="#EB5F6C"/></linearGradient><linearGradient id="j" gradientUnits="userSpaceOnUse" x1="8555.86" y1="14640.2" x2="18544.6" y2="15582.5"><stop offset="0" stop-color="#ED7181"/><stop offset="1" stop-color="#EB5F6C"/></linearGradient><linearGradient id="k" gradientUnits="userSpaceOnUse" x1="8555.9" y1="14640.1" x2="18544.5" y2="15582.4"><stop offset="0" stop-color="#ED7181"/><stop offset="1" stop-color="#EB5F6C"/></linearGradient></defs><path fill="#EC6474" fill-rule="nonzero" d="M18308 15351c-113 3903-3114 4521-6952 4521-3837 0-6792-555-6946-4521-177-4520 3111-4502 6949-4502s7108-1017 6949 4502z"/><path fill="url(#a)" d="M11401 19233c-240 0-476-4-710-12l-1-1c1744-117 1575-1853 1644-2614 40-435-227-731-470-731-181 0-349 166-364 564-33 929-133 1085-788 1281-181 54-332 78-457 78-564 0-609-498-633-997-24-498-28-996-511-996h-28c-7 1-14 1-21 1-188 0-404-90-604-179-201-90-386-179-514-179-95 0-158 49-171 184-49 479-228 1663-1143 1663-52 0-107-4-164-12-1587-224-522-1266-971-3044-30-121-69-171-114-171-94 0-217 220-355 440-138 219-292 439-449 439-51 0-103-24-154-79 371-301 695-1343 971-1343 10 0 19 1 28 4 317 84 444 1814 422 2194-21 380-190 1098 359 1182 41 6 80 9 118 9 470 0 700-467 642-916-61-470 114-1629 507-1629 14 0 27 1 41 4 422 84 336 554 640 752 852 555 1632 29 1639 1062 2 289-39 1122 414 1122 16 0 33-1 50-3 507-64 865-359 823-1076-42-718 253-1308 760-1456 36-11 74-16 114-16 513 0 1261 855 1110 1704-223 1242 126 1638 440 1638 224 0 430-199 404-436-64-569-285-2426 5-2890 191-306 476-736 824-736 179 0 375 114 584 419 776 1132-108 3102 542 4181-1174 365-2745 595-4459 595zm1206-793c-73 0-131 59-131 131s58 131 131 131c72 0 131-59 131-131s-59-131-131-131zm312-208c-35 0-63 29-63 64s28 63 63 63 63-28 63-63-28-64-63-64zm-272-433c-50 0-91 40-91 90 0 51 41 91 91 91s91-40 91-91c0-50-41-90-91-90zm2322-1445c-84 0-151 68-151 151 0 84 67 151 151 151 83 0 151-67 151-151 0-83-68-151-151-151zm406-628c-75 0-135 60-135 135 0 74 60 135 135 135s135-61 135-135c0-75-60-135-135-135zm-490 135c-37 0-67 30-67 67s30 68 67 68c38 0 68-31 68-68s-30-67-68-67zm-25-469c-23 0-42 19-42 42 0 24 19 43 42 43s42-19 42-43c0-23-19-42-42-42zm582-68c-37 0-67 30-67 67 0 38 30 68 67 68 38 0 68-30 68-68 0-37-30-67-68-67zm1274 2993c0-21-2-41-5-62-522-2931 154-4955 633-5326 41-32 78-46 113-46 357 0 433 1505 794 1638 20 7 38 14 57 20 3 112 4 219 5 323 2 1161-175 1889-412 2477-10 23-20 47-30 70-164 329-569 638-1155 906zm423-2110c-82 0-148 66-148 147 0 82 66 148 148 148 81 0 147-66 147-148 0-81-66-147-147-147zm190-1286c-70 0-127 120-127 268s57 267 127 267 126-119 126-267-56-268-126-268z"/><path fill="#662D24" fill-rule="nonzero" d="M11308 7368c-4921-128-7236 1878-7447 3819-162 1492-21 3861 422 3756 443-106 823-1498 1139-1414 317 84 444 1814 422 2194-21 380-190 1098 359 1182s823-422 760-907c-63-486 126-1709 548-1625s336 554 640 752c852 555 1632 29 1639 1062 2 299-42 1182 464 1119 507-64 865-359 823-1076-42-718 253-1308 760-1456 506-148 1387 774 1224 1688-380 2124 907 1772 844 1202-64-569-285-2426 5-2890s794-1213 1408-317c781 1140-120 3129 555 4203 187 298 915 31 838-405-522-2931 154-4955 633-5326 458-355 511 1446 907 1592s416 129 528-1020c463-4802-2632-6008-7471-6133z"/><path fill="#662D24" fill-rule="nonzero" d="M11401 19233c-3307 0-6117-793-6551-1820 477 1781 3177 2579 6480 2579 3377 0 6085-851 6541-2581-498 999-3228 1822-6470 1822z"/><path fill="#84352B" fill-rule="nonzero" d="M5314 9098c-1552 1581-1034 3463-429 3120 604-342 850-516 1097 14 324 697 484 918 1408 730 1049-213 1441 584 1941 761s683 1282 1049 1296c365 14 488-921 751-1227 263-305 1256-447 1518 59 262 505 400 1301 646 775 245-527 1318-2091 2219-1352 901 738 968-273 1235-629s920-1227 1207-655c272 539 1090-1453-779-2875-3428-2610-10311-1598-11863-17z"/><path fill="#995047" fill-rule="nonzero" d="M11256 12543c-3522 0-6378-1081-6378-2414 0-1073 1848-1982 4405-2297-512 490-856 1039-856 1445 0 334 233 573 600 744 124 66 277 122 464 164 350 93 757 152 1178 185 305 31 623 50 936 50 274 0 546-15 801-48 380-46 697-134 948-264 372-187 625-472 671-889 10-69 16-141 16-216 0-100-10-205-28-313 124 61 248 85 367 85 478 0 869-399 869-399-586-68-776-261-832-344 1921 416 3216 1199 3216 2097 0 1333-2855 2414-6377 2414zM8300 8093c-1467 346-2445 962-2445 1665 0 1083 2320 1961 5181 1961 2666 0 4861-762 5148-1743-909 664-2748 1143-4530 1143-2499 0-4525-869-4525-1942 0-501 443-852 1171-1084z"/><path fill="#FEE6BF" fill-rule="nonzero" d="M10915 12474c14 167-2269-40-3900-542-1122-346-2326-1368-2111-1624 215-255 460 746 2368 1389 1531 516 3629 611 3643 777z"/><path fill="#BE7C5F" fill-rule="nonzero" d="M4761 11731c-35 0-67-8-94-27-155-110-201-300-124-479 57-131 182-189 293-189 40 0 78 7 110 21 124 53 201 272 124 451-58 136-197 223-309 223z"/><path fill="#F6BBC8" fill-rule="nonzero" d="M4922 15207c253-6 81 1498 770 2076 1283 1075 3707 1039 3665 1419s-3441-197-4154-1166c-672-915-534-2322-281-2329z"/><path fill="#B1766E" fill-rule="nonzero" d="M11036 11719c-2861 0-5181-878-5181-1961 0-703 978-1319 2445-1665-728 232-1171 583-1171 1084 0 1073 2026 1942 4525 1942 1782 0 3621-479 4530-1143-287 981-2482 1743-5148 1743z"/><path fill="#008842" fill-rule="nonzero" d="M13215 7414s-106-754 1181-979c0 0-260 732-355 852-40 49 32 34 184 19 213-21 583-42 1024 114 0 0-580 539-853 572 0 0 96 297 853 384 0 0-889 907-1625-14-737-920-488-614-409-948z"/><path fill="#096437" fill-rule="nonzero" d="M14288 8600c-97 0-200-11-302-40-98-422-328-876-681-1235 10-6 591-357 736-524 13-16 21-23 24-23 32 0-383 683-280 710 69 19 397 58 686 58 178 0 342-15 424-58 16-8 28-12 35-12 39 0-49 114-198 228-148 114-356 228-556 228-46 0-91-6-135-20-37-11-65-16-86-16-113 0 5 155 188 309 183 155 431 309 576 309 17 0 33-2 47-6 16-5 25-8 28-8 11 0-42 25-135 50s-225 50-371 50z"/><path fill="#E31E24" fill-rule="nonzero" d="M14041 9003c0 933-815 1406-2307 1406-1493 0-3307-200-3307-1132s1814-2617 3307-2617c1492 0 2307 1411 2307 2343z"/><path fill="#F49B0F" fill-rule="nonzero" d="M11322 7219c37 69-47 172-187 230-140 59-284 51-321-17-37-69 47-172 187-230 140-59 284-51 321 17zM11095 8193c34 63-44 156-172 208-129 53-260 45-293-17-34-63 43-156 172-209 128-52 260-44 293 18zM9527 8560c34 63-44 156-172 209-129 52-260 44-293-18-34-62 43-156 172-208 128-53 260-45 293 17zM11196 9082c33 63-44 156-173 209-128 52-259 44-293-18-33-63 44-156 173-209 128-52 259-44 293 18zM12602 8354c33 62-44 155-173 208-128 53-260 45-293-18-34-62 44-156 172-208 129-53 260-45 294 18zM10237 7749c33 62-44 155-173 208-128 53-260 45-293-18-34-62 44-155 172-208 129-53 260-45 294 18zM9920 9520c14 69-89 141-230 163-139 22-264-15-278-84-13-68 90-141 230-162 140-22 265 15 278 83zM12521 9549c34 62-44 156-172 208-128 53-260 45-293-17-34-63 44-156 172-209 128-52 260-44 293 18zM11216 9870c25 66-65 150-200 188-135 39-265 17-289-48-25-66 65-150 200-189 135-38 264-17 289 49zM13528 8686c45 20 29 126-37 237-65 110-155 184-200 164-46-21-29-127 36-238 66-110 156-184 201-163z"/><path fill="#7F453C" fill-rule="nonzero" d="M11605 10420c-313 0-631-19-936-50 355 28 718 39 1065 39 242 0 466-12 672-37-255 33-527 48-801 48zm-2114-235c-187-42-340-98-464-164 137 64 294 118 464 164zm3863-77c383-199 611-496 671-889-46 417-299 702-671 889z"/><path fill="#C52727" fill-rule="nonzero" d="M11734 10409c-347 0-710-11-1065-39-435-44-843-112-1172-184-2 0-4-1-6-1-170-46-327-100-464-164-684-362-513-1011-408-1011 23 0 42 30 50 98 16 147 327 306 777 412-26 25-39 53-34 79 11 55 94 90 200 90 25 0 51-1 78-6 85-13 156-45 196-83 215 29 445 45 680 45 748 0 1544-167 2036-643 1134-1097-700-2100-700-2100 34-7 71-11 112-11 652 0 2148 852 2013 2307-1 7-1 14-2 21-60 393-288 690-671 889-266 133-592 217-948 264-206 25-430 37-672 37zm-677-607c-40 0-85 6-130 19-135 39-225 123-200 189 16 43 79 67 159 67 40 0 85-6 130-19 135-38 225-122 200-188-16-44-79-68-159-68zm1335-305c-49 0-107 11-164 34-128 53-206 146-172 209 18 34 67 52 129 52 49 0 107-11 164-35 128-52 206-146 172-208-18-35-67-52-129-52zm1119-815c-48 0-126 69-184 167-65 111-82 217-36 238 5 2 10 3 17 3 48 0 125-69 183-167 66-111 82-217 37-237-5-3-11-4-17-4z"/><path fill="#E18020" fill-rule="nonzero" d="M9612 9689c-106 0-189-35-200-90-5-26 8-54 34-79 136 32 284 59 440 80-40 38-111 70-196 83-27 5-53 6-78 6zM12185 9792c-62 0-111-18-129-52-34-63 44-156 172-209 57-23 115-34 164-34 62 0 111 17 129 52 34 62-44 156-172 208-57 24-115 35-164 35zM10886 10077c-80 0-143-24-159-67-25-66 65-150 200-189 45-13 90-19 130-19 80 0 143 24 159 68 25 66-65 150-200 188-45 13-90 19-130 19zM13308 9090c-7 0-12-1-17-3-46-21-29-127 36-238 58-98 136-167 184-167 6 0 12 1 17 4 45 20 29 126-37 237-58 98-135 167-183 167z"/><path fill="#E63F23" fill-rule="nonzero" d="M10527 9105c-566 0-1089-72-1284-305 36-6 74-16 112-31 128-53 206-146 172-209-18-34-67-52-129-52-49 0-107 11-164 35-26 10-50 22-71 36-2-521 974-1484 1859-1555 43-4 85-6 126-6 834 0 1360 688 1412 1173 4 44 5 87 2 127-24-11-55-17-90-17-49 0-107 12-164 35-128 52-206 146-172 208 18 35 67 53 129 53 50 0 107-12 164-35 30-13 58-27 82-43-144 311-580 498-1272 555-15 1-31 2-46 3-20-31-68-47-126-47-50 0-107 11-164 34-25 11-48 22-68 35-103 4-206 6-308 6zm127-695c24 18 61 26 105 26 49 0 107-11 164-35 10-4 20-8 30-13 483-56 729-231 699-518-19-177-142-398-348-544 26-38 35-76 18-107-21-37-73-57-140-57-49 0-106 11-163 33-66-17-136-26-211-26-24 0-49 1-74 3-542 44-1142 648-1110 952 24 227 399 292 813 292 72 0 144-2 217-6z"/><path fill="#F49B0F" fill-rule="nonzero" d="M11304 7326c-82-58-178-104-285-131 57-22 114-33 163-33 67 0 119 20 140 57 17 31 8 69-18 107zM10759 8436c-44 0-81-8-105-26 70-3 141-8 209-13 31-3 61-6 90-9-10 5-20 9-30 13-57 24-115 35-164 35zM9243 8800c-43-53-70-113-78-183-1-12-2-25-2-38 21-14 45-26 71-36 57-24 115-35 164-35 62 0 111 18 129 52 34 63-44 156-172 209-38 15-76 25-112 31zM10835 9099c20-13 43-24 68-35 57-23 114-34 164-34 58 0 106 16 126 47-117 9-237 17-358 22zM12265 8597c-62 0-111-18-129-53-34-62 44-156 172-208 57-23 115-35 164-35 35 0 66 6 90 17-5 72-22 139-51 201-24 16-52 30-82 43-57 23-114 35-164 35z"/><path fill="#EB6139" fill-rule="nonzero" d="M10437 8416c-414 0-789-65-813-292-32-304 568-908 1110-952 25-2 50-3 74-3 75 0 145 9 211 26-6 2-12 4-18 7-140 58-224 161-187 230 20 37 73 56 139 56 55 0 119-12 182-39 77-32 136-77 169-123 206 146 329 367 348 544 30 287-216 462-699 518 110-54 173-137 142-195-18-35-67-52-129-52-49 0-107 11-164 34-129 53-206 146-172 209 5 10 13 19 24 26-73 4-145 6-217 6zm-330-720c-49 0-107 12-164 35-128 53-206 146-172 208 18 35 67 53 129 53 49 0 107-12 164-35 129-53 206-146 173-208-19-35-68-53-130-53z"/><path fill="#F8AF34" fill-rule="nonzero" d="M10953 7488c-66 0-119-19-139-56-37-69 47-172 187-230 6-3 12-5 18-7 107 27 203 73 285 131-33 46-92 91-169 123-63 27-127 39-182 39zM10654 8410c-11-7-19-16-24-26-34-63 43-156 172-209 57-23 115-34 164-34 62 0 111 17 129 52 31 58-32 141-142 195-29 3-59 6-90 9-68 5-139 10-209 13zM9900 7992c-62 0-111-18-129-53-34-62 44-155 172-208 57-23 115-35 164-35 62 0 111 18 130 53 33 62-44 155-173 208-57 23-115 35-164 35z"/><path fill="url(#b)" d="M17329 15456c-70 0-127-119-127-267s57-268 127-268 126 120 126 268-56 267-126 267z"/><path fill="url(#c)" d="M17139 16502c-82 0-148-66-148-148 0-81 66-147 148-147 81 0 147 66 147 147 0 82-66 148-147 148z"/><path fill="url(#d)" d="M15375 15996c-75 0-135-61-135-135 0-75 60-135 135-135s135 60 135 135c0 74-60 135-135 135z"/><path fill="url(#e)" d="M14860 15477c-23 0-42-19-42-43 0-23 19-42 42-42s42 19 42 42c0 24-19 43-42 43z"/><path fill="url(#f)" d="M14969 16656c-84 0-151-67-151-151 0-83 67-151 151-151 83 0 151 68 151 151 0 84-68 151-151 151z"/><path fill="url(#g)" d="M14885 15996c-37 0-67-31-67-68s30-67 67-67c38 0 68 30 68 67s-30 68-68 68z"/><path fill="url(#h)" d="M15442 15459c-37 0-67-30-67-68 0-37 30-67 67-67 38 0 68 30 68 67 0 38-30 68-68 68z"/><path fill="url(#i)" d="M12607 18702c-73 0-131-59-131-131s58-131 131-131c72 0 131 59 131 131s-59 131-131 131z"/><path fill="url(#j)" d="M12647 17980c-50 0-91-40-91-91 0-50 41-90 91-90s91 40 91 90c0 51-41 91-91 91z"/><path fill="url(#k)" d="M12919 18359c-35 0-63-28-63-63s28-64 63-64 63 29 63 64-28 63-63 63z"/><path fill="#F29DAD" fill-rule="nonzero" d="M8568 16468c0 63-51 114-114 114s-113-51-113-114 50-114 113-114 114 51 114 114zM8568 17070c0 32-26 57-57 57s-57-25-57-57c0-31 26-56 57-56s57 25 57 56zM9010 16615c0 60-49 109-109 109-61 0-110-49-110-109 0-61 49-110 110-110 60 0 109 49 109 110zM8221 16871c0 73-59 132-132 132-74 0-133-59-133-132 0-74 59-133 133-133 73 0 132 59 132 133zM8919 17688c0 61-49 111-110 111s-110-50-110-111c0-60 49-110 110-110s110 50 110 110zM5386 15104c0 46-37 84-84 84s-84-38-84-84c0-47 37-85 84-85s84 38 84 85zM5472 15604c0 70-57 127-127 127s-127-57-127-127c0-71 57-127 127-127s127 56 127 127zM5142 14987c0 36-29 66-65 66-37 0-66-30-66-66s29-66 66-66c36 0 65 30 65 66z"/></svg>