<svg xmlns="http://www.w3.org/2000/svg" width="210mm" height="297mm" shape-rendering="geometricPrecision" text-rendering="geometricPrecision" image-rendering="optimizeQuality" fill-rule="evenodd" clip-rule="evenodd" viewBox="0 0 21000 29700"><path fill="#252422" fill-rule="nonzero" d="M10371 11995c-2-3-4-6-6-7-14-133-65-272-120-380-49-98-121-187-212-241 11-100-5-207-12-307-9-122 2-243-14-365-12-100-75-329-222-280-137 46-141 205-149 324-12 200-22 418 48 609-115 47-207 140-275 246-130 118-181 306-159 483 0 4 0 7 1 11 22 154 101 299 232 377 212 126 534 69 733-54 141-87 239-251 155-416z"/><path fill="#F2AF07" fill-rule="nonzero" d="M9746 11314c-31-133-34-268-32-404 1-57-6-440 95-403 128 47 117 326 118 432 1 127-3 261 14 389-34-9-70-14-108-13-31 1-60 6-87 13 1-5 1-10 0-14z"/><path fill="#E47120" fill-rule="nonzero" d="M9941 11328c-31-8-64-13-98-13h-10c-31 1-60 6-87 13 0-3 1-6 1-9 0-2 0-4-1-5-15-66-24-132-28-198 45 14 93 22 142 22 23 0 46-2 68-5 1 66 5 131 13 195z"/><path fill="#176CA9" fill-rule="nonzero" d="M10316 12231c-27 78-135 128-204 155-185 73-458 76-622-47-120-90-172-222-174-359 8-21 14-39 17-47 27-93 67-185 115-268 96-167 283-302 479-221 276 116 295 487 375 726 5 13 14 14 24 11-2 17-5 34-10 50z"/><path fill="#77C1E5" fill-rule="nonzero" d="M10009 11732c-15-91-30-181-49-271-11-6-22-12-33-17-32-13-65-20-96-23-6 103-16 205-28 308 70-3 138-2 206 3z"/><path fill="#252422" fill-rule="nonzero" d="M15362 15371c-72 138-307 159-525 45s-335-319-262-458l1566-2994c73-139 308-159 526-45 217 113 335 318 262 457l-1567 2995z"/><path fill="#E7E7E0" fill-rule="nonzero" d="M15329 15287c-70 133-278 162-464 65-187-98-282-285-212-419l1507-2879c70-133 277-163 464-65s281 285 211 418l-1506 2880z"/><path fill="#B7B5A9" fill-rule="nonzero" d="M15088 15409c-71 0-149-19-223-57 74 38 152 57 223 57zM16092 12992c-36 0-72-5-109-18-86-29-165-73-246-112l423-808c42-80 133-123 241-123 71 0 149 19 223 58 145 76 234 206 234 323 0 33-7 66-23 95 51-96 15-221-80-320 3 49-1 99-7 147-31 218-189 508-365 645-84 65-185 113-291 113z"/><path fill="#252422" fill-rule="nonzero" d="M15088 15409zm0 0c107 0 198-42 240-121-42 79-133 121-240 121zm-435-476l295-563-295 563zM15616 13094l121-232z"/><path fill="#8C8B7D" fill-rule="nonzero" d="M15088 15409c-71 0-149-19-223-57-145-76-235-206-235-323 0-34 8-66 23-96l295-563c135-96 269-192 402-291 6-4 9-8 12-13 17-13 35-26 52-39 9-7 19-13 28-20l437 228-550 1052c-1 0-1 1-1 1-42 79-133 121-240 121zM16291 13448l-675-354 121-232c81 39 160 83 246 112 37 13 73 18 109 18 106 0 207-48 291-113 176-137 334-427 365-645 6-48 10-98 7-147 95 99 131 224 80 320l-544 1041z"/><path fill="#252422" fill-rule="nonzero" d="M14049 13278c-139-73-159-308-46-526 114-217 319-335 458-262l2994 1567c139 72 159 307 45 525-113 218-318 335-457 262l-2994-1566z"/><path fill="#E7E7E0" fill-rule="nonzero" d="M14132 13244c-133-70-162-278-64-464 97-187 284-281 418-212l2879 1507c134 70 163 278 65 464-98 187-285 281-418 212l-2880-1507z"/><path fill="#252422" fill-rule="nonzero" d="M14131 13243zm-1 0s-1 0-1-1c0 1 1 1 1 1zm-1-1h-1 1zm-2-1h-1 1zm-1 0s0-1-1-1c1 0 1 1 1 1zm-1-1s-1 0-1-1c0 1 1 1 1 1zm-1-1l-15-9 15 9zm-15-9l-1-1 1 1zm-1-1s-1 0-1-1c0 1 1 1 1 1zm-1-1c-1 0-1 0-1-1 0 1 0 1 1 1zm-2-1zm-1-1zm-1-1z"/><path fill="#B7B5A9" fill-rule="nonzero" d="M17107 14773c-33 0-65-7-95-22l-1505-788c45-30 89-63 121-102 34-42 66-96 35-148-23-38-74-46-122-46-24 0-46 2-64 3-138 8-277 31-415 60l-930-486-1-1h-1s-1 0-1-1h-1s0-1-1-1h-1s0-1-1-1c0 0-1 0-1-1l-15-9-1-1s-1 0-1-1c-1 0-1 0-1-1h-1c0-1-1-1-1-1l-1-1c-89-69-116-210-72-354 23 107 645 385 826 518 42 30 90 44 139 44 106 0 216-63 268-151 64-109 47-224-17-315l1301 680c-203 67-309 394-71 552 227 150 484 244 728 364 50 24 102 36 154 36 12 0 24 0 35-2-77 111-187 176-287 176z"/><path fill="#252422" fill-rule="nonzero" d="M10496 17102c-1 39-4 79-6 120H8035c-2-102-11-204-20-305 168 6 336 7 504 5 446 1 893-31 1333-56 219-12 438-24 656-35-7 90-9 181-12 271zm5167-3389c-34-57-132-46-186-43-276 15-553 92-820 159-609 151-1219 316-1822 490l-6 5c-37-131-82-260-137-386-251-577-630-1092-1098-1509-226-200-432-393-712-513-272-117-561-197-854-239-178 0-357 9-534 26-316 31-609 105-907 208-117 57-231 120-340 186-547 328-1031 775-1436 1264-207 251-391 516-563 792-170 274-335 552-452 854-103 265-170 564-103 845 61 257 263 459 473 603 415 285 927 393 1427 438-8 95-10 191-13 286-1 14-1 28-2 43H5926c-194 0-350 156-350 350 0 193 156 350 350 350h6657c193 0 350-157 350-350 0-194-157-350-350-350h-1631c2-137-11-275-23-409 17-1 33-1 50-2 306-10 612-21 911-91 448-104 841-379 1015-789 30-28 60-56 89-84 59-53 117-105 175-158 78-63 158-122 238-181 209-154 415-311 620-470 430-335 886-633 1323-959 6-4 9-8 12-13 17-13 35-26 52-39 69-51 159-99 214-166 34-42 66-96 35-148z"/><path fill="#77C1E5" fill-rule="nonzero" d="M7445 12818c294-276 617-528 967-731 78-38 158-73 239-104 7 9 20 12 41 5 57-20 218 393 241 458 112 326 151 674 183 1015 36 371 6 747-51 1114-50 322-112 645-232 949-111 281-280 547-582 641-248 76-521 33-767-26-240-57-479-141-709-232-306-121-619-267-879-473-36-29-69-60-93-98 65-350 264-706 432-985 338-564 730-1081 1210-1533z"/><path fill="#252422" fill-rule="nonzero" d="M8653 11985l-2-2 2 2z"/><path fill="#3190CA" fill-rule="nonzero" d="M6038 14701c64-125 133-243 197-350 338-564 730-1081 1210-1533 294-276 617-528 967-731 78-38 158-73 239-104l2 2c-747 688-1417 1456-2112 2195-166 176-335 349-503 521zM6477 15605c-125-35-248-78-365-131 313-331 638-649 950-982 553-590 1092-1196 1669-1762 8 133 14 266 20 396-596 598-1168 1220-1726 1854-183 209-365 417-548 625z"/><path fill="#252422" fill-rule="nonzero" d="M7484 16139c-1 0-3 0-5-1 2 1 4 1 5 1zm-6-1c-1-1-3-1-4-1 1 0 3 0 4 1zm-5-1c-4-1-7-2-11-3 4 1 7 2 11 3zm-11-3c-2-1-4-1-6-2 2 1 4 1 6 2zm-6-2c-171-42-342-98-508-159 166 61 337 117 508 159z"/><path fill="#3190CA" fill-rule="nonzero" d="M7410 15724c-78 0-158-3-240-8 108-124 216-249 325-373 412-468 833-929 1266-1379-17 291-61 578-159 844-190 517-584 911-1164 915-10 0-19 1-28 1z"/><path fill="#E7E7E0" fill-rule="nonzero" d="M10951 17271v-3h1576c190 0 345 136 345 304s-155 304-345 304H5982c-191 0-345-136-345-304s154-304 345-304h1593v1c10 0 21-1 31-1h13v-1c7 0 14 0 21-1l-3-66c-4-101-4-203-14-304 90 7 180 13 268 17 32 1 63 2 95 3-10 115-22 233-23 349 14 3 28 4 43 6 10-1 20-2 29-3h2452v1c24 1 49-2 73-4-2-47-5-95-7-142-3-97-3-196-12-293 121-6 243-11 364-16-13 146-30 300-25 449h1c8 2 17 3 25 4v1h5c13 2 26 3 40 3z"/><path fill="#252422" fill-rule="nonzero" d="M5637 17570zm4860-301h-1 1zm1 0c9 0 19-1 29-1-10 0-20 1-29 1zm-8 0h-3 3zm-4511-1zm1 0zm4550 0l30-3-30 3z"/><path fill="#B7B5A9" fill-rule="nonzero" d="M12527 17876H5982c-191 0-345-136-345-304v-2c1-66 26-127 67-177-33 83 8 200 126 200h6741c183 0 183-284 0-284H5830c-9 0-17 1-25 3 51-28 110-44 174-44h1596v1c10 0 21-1 31-1h13v-1c7 0 14 0 21-1l-3-66c-4-101-4-203-14-304 90 7 180 13 268 17 32 1 63 2 95 3-10 115-22 233-23 349 14 3 28 4 43 6 10-1 20-2 29-3h2452v1h11c9 0 19-1 29-1h3l30-3c-2-47-5-95-7-142-3-97-3-196-12-293 121-6 243-11 364-16-11 129-26 264-26 396 0 18 1 35 1 53h1c8 2 17 3 25 4v1h5c13 2 26 3 40 3v-3h1576c190 0 345 136 345 304s-155 304-345 304z"/><path fill="#F2AF07" fill-rule="nonzero" d="M12887 15547c-11 328-163 621-425 817-551 412-1332 335-1980 370-574 32-1150 78-1726 94-317 0-634-8-949-35-185-16-376-36-566-70-43-10-86-20-129-32-17-5-35-10-52-15 0-3-2-5-5-6-123-43-249-89-374-141-171-80-335-176-495-275-22-13-43-27-65-41-22-18-43-36-64-54-152-138-237-344-273-542 0-3-1-7-1-11-4-70 1-141 11-213 43 78 112 134 186 195 122 104 266 182 408 254 247 125 508 221 770 310 430 145 951 258 1351-25 220-155 349-422 442-667 110-290 163-599 213-904 109-669 83-1366-89-2022-42-159-101-308-178-453-22-41-57-109-102-149 84-28 169-52 255-72 297-68 617-118 920-76 301 42 596 133 875 253s489 336 713 536c441 395 790 894 1037 1431 95 207 175 425 229 648 33 298 72 596 63 895z"/><path fill="#252422" fill-rule="nonzero" d="M7915 16301h-1 1zm0 0c205 0 406-45 584-167-178 122-379 167-584 167zm584-167c1 0 2-1 3-2-1 1-2 2-3 2zm8-5c0-1 1-1 2-2-1 1-2 1-2 2zm288-4197l9-3-9 3z"/><path fill="#E47120" fill-rule="nonzero" d="M8830 16398h-21c-620-3-1239-76-1849-184-375-67-779-130-1102-347 45 106 107 205 189 282-146-137-228-338-263-532 0-3-1-7-1-11-1-16-1-31-1-46 0-55 4-111 12-167 43 78 112 134 186 195 122 104 266 182 408 254 247 125 508 221 770 310 236 79 500 149 756 149h1c205 0 406-45 584-167 1 0 2-1 3-2 2-1 3-2 5-3 0-1 1-1 2-2 220-155 349-422 442-667 110-290 163-599 213-904 43-266 65-537 65-809 0-409-50-818-154-1213-42-159-101-308-178-453-22-41-57-109-102-149l9-3c6-2 13-4 20-6 57 97 120 191 184 287 141 211 197 437 240 684 93 530 145 1078 131 1615-3 123 92 264 218 286 115 21 230 40 345 56 151 497 613 858 1159 858 670 0 1212-542 1212-1211 0-26 0-52-2-78 124-75 243-157 357-246 63 155 117 316 156 478 30 267 64 533 64 801v55c2-140-5-280-18-419-90 300-257 565-540 741-525 327-1153 373-1754 424-582 49-1160 144-1746 144zm-2773-239c0-1-1-1-2-2 1 1 2 1 2 2zm-3-3v-1 1zm-2-2zm-1-1l-1-1 1 1zm-2-2c-1 0-1-1-2-2 1 1 1 2 2 2zm6838-632zm0-2v-2 2zm0-3v-2 2zm0-3c0-1 0-2 1-3-1 1-1 2-1 3z"/><path fill="#252422" fill-rule="nonzero" d="M8756 16828c-317 0-634-8-949-35-185-16-376-36-566-70-43-10-86-20-129-32-17-5-35-10-52-15 0-3-2-5-5-6-123-43-249-89-374-141-171-80-335-176-495-275-22-13-43-27-65-41-22-18-43-36-64-54 21 18 42 36 64 54 22 14 43 28 65 41 160 99 324 195 495 275 125 52 251 98 374 141 3 1 5 3 5 6 17 5 35 10 52 15 43 12 86 22 129 32 190 34 381 54 566 70 315 27 632 35 949 35 576-16 1152-62 1726-94 648-35 1429 42 1980-370 262-196 414-489 425-817v-28 28c-11 328-163 621-425 817-551 412-1332 335-1980 370-574 32-1150 78-1726 94zm-2701-671s0-1-1-1c1 0 1 1 1 1zm-1-2c-1 0-1 0-2-1 1 1 1 1 2 1zm-2-1l-1-1 1 1zm-2-2c-1 0-1-1-1-1s0 1 1 1zm-3-3zm6840-630v-2 2zm0-4v-1 1zm0-3v-1 1zm1-4z"/><path fill="#D54A26" fill-rule="nonzero" d="M8756 16828c-317 0-634-8-949-35-185-16-376-36-566-70-43-10-86-20-129-32-17-5-35-10-52-15 0-3-2-5-5-6-123-43-249-89-374-141-171-80-335-176-495-275-22-13-43-27-65-41-22-18-43-36-64-54 0-1-1-1-2-2 0 0 0-1-1-1v-1c-1 0-1 0-2-1l-1-1-1-1c-1 0-1-1-1-1-1 0-1-1-2-2-82-77-144-176-189-282 323 217 727 280 1102 347 610 108 1229 181 1849 184h21c586 0 1164-95 1746-144 601-51 1229-97 1754-424 283-176 450-441 540-741 13 139 20 279 18 419-1 1-1 2-1 3v36c-11 328-163 621-425 817-551 412-1332 335-1980 370-574 32-1150 78-1726 94z"/><path fill="#176CA9" fill-rule="nonzero" d="M15532 13857c-30 32-72 56-108 82-164 125-332 246-500 365-297 194-589 394-872 609-212 150-422 303-627 462-139 108-288 223-411 355-20 19-40 39-59 59 15-52 26-106 34-162 57-407-29-834-124-1229 45-35 124-43 175-54 93-22 183-54 275-82 82-21 164-43 243-64 274-72 548-146 822-217 260-67 521-130 786-180 107-20 215-38 324-40 72-2 90 45 42 96z"/><path fill="#252422" fill-rule="nonzero" d="M13080 14334l63-18-63 18zm2455-481l1-1-1 1zm-372-52h3-3zm328-40h0zm3 0h-1 1z"/><path fill="#214B88" fill-rule="nonzero" d="M12955 15789c15-52 26-106 34-162 13-91 19-182 19-274 0-322-69-648-143-955 45-35 124-43 175-54 13-3 26-7 40-10l63-18c-23 106-22 218 12 339 35 125 157 221 286 221 26 0 53-5 80-13 271-90 1274-729 1527-947 39-34 65-70 81-108 11-2 23-4 34-7h3c107-20 215-38 324-40h4c66 0 84 43 42 91l-1 1c-1 1-2 2-3 4-30 32-72 56-108 82-164 125-332 246-500 365-297 194-589 394-872 609-212 150-422 303-627 462-139 108-288 223-411 355-20 19-40 39-59 59z"/><path fill="#252422" fill-rule="nonzero" d="M12313 14498c0 669-542 1211-1212 1211-669 0-1212-542-1212-1211 0-670 543-1213 1212-1213 670 0 1212 543 1212 1213z"/><path fill="#C12728" fill-rule="nonzero" d="M12223 14477c0 619-502 1122-1122 1122-619 0-1122-503-1122-1122 0-620 503-1122 1122-1122 620 0 1122 502 1122 1122z"/><path fill="#252422" fill-rule="nonzero" d="M12223 14474zm-2244 0zm0-3z"/><path fill="#962825" fill-rule="nonzero" d="M11101 15599c-619 0-1122-503-1122-1122v-3-3c1-119 20-234 55-341 30 51 65 101 104 147-13 64-20 131-20 200 0 543 440 983 983 983 544 0 984-440 984-983 0-24-1-47-2-69 44-24 88-49 131-74 6 46 9 92 9 140v3c0 619-502 1122-1122 1122z"/><path fill="#252422" fill-rule="nonzero" d="M12085 14477c0 543-440 983-984 983-543 0-983-440-983-983 0-544 440-984 983-984 544 0 984 440 984 984z"/><path fill="#176CA9" fill-rule="nonzero" d="M12012 14460c0 503-408 910-911 910s-910-407-910-910 407-911 910-911 911 408 911 911z"/><path fill="#252422" fill-rule="nonzero" d="M10191 14460v-3 3zm0-4z"/><path fill="#2C437B" fill-rule="nonzero" d="M11101 15370c-503 0-910-407-910-910v-3-1c0-38 3-75 8-112 177 182 417 309 676 332 51 5 104 7 156 7 326 0 669-88 980-239 0 5 1 10 1 16 0 503-408 910-911 910z"/><path fill="#252422" fill-rule="nonzero" d="M16265 13676c0 298-242 541-540 541-299 0-541-243-541-541 0-299 242-541 541-541 298 0 540 242 540 541z"/><path fill="#C12728" fill-rule="nonzero" d="M16167 13670c0 245-198 443-442 443-245 0-443-198-443-443 0-244 198-442 443-442 244 0 442 198 442 442z"/><path fill="#252422" fill-rule="nonzero" d="M14957 10738c0 166-105 300-235 300H5018c-130 0-235-134-235-300s105-300 235-300h9704c130 0 235 134 235 300z"/><path fill="#E7E7E0" fill-rule="nonzero" d="M14876 10738c0 136-104 246-232 246H5095c-128 0-231-110-231-246s103-246 231-246h9549c128 0 232 110 232 246z"/><path fill="#252422" fill-rule="nonzero" d="M14876 10738v-2 2zm-10012 0v-1 1zm0-2v-1 1zm10012 0v-1 1zm-10012-2zm10012 0v-1 1zm0-2zm0-2zm0-1z"/><path fill="#B7B5A9" fill-rule="nonzero" d="M14644 10984h-4435c76-84 123-195 123-317 0-62-12-121-34-175h103c2 147 98 292 288 292h3846c156 0 248-99 277-215 38 42 62 98 64 160v9c0 136-104 246-232 246zm-5132 0H5095c-128 0-231-110-231-246v-1-1-1-1c0-43 11-83 30-117 40 94 127 167 261 167h3914c189 0 285-145 287-292h67c-22 54-34 113-34 175 0 122 47 233 123 317z"/><path fill="#252422" fill-rule="nonzero" d="M10332 10667c0 260-211 471-472 471-260 0-471-211-471-471 0-261 211-472 471-472 261 0 472 211 472 472z"/><path fill="#C12728" fill-rule="nonzero" d="M10246 10662c0 213-172 386-386 386-213 0-385-173-385-386s172-386 385-386c214 0 386 173 386 386z"/><path fill="#252422" fill-rule="nonzero" d="M9475 10662v-1 1zm0-2v-1 1zm771 0zm-771-1v-1 1zm771-1zm-771 0v-1 1zm0-1v-1 1z"/><path fill="#962825" fill-rule="nonzero" d="M9860 11048c-213 0-385-173-385-386v-1-1-1-1-1-1c1-87 31-167 81-231-2 79 27 159 86 218 57 57 133 86 209 86 65 0 131-21 185-63 24-14 46-30 66-50 44-44 73-101 83-162 38 59 60 129 61 204v4c0 213-172 386-386 386z"/><path fill="#252422" fill-rule="nonzero" d="M5803 15336v-1 1zm3130-2890c0-1-1-2-1-2s1 1 1 2zm-3-7c-29-81-176-452-234-452 58 0 205 371 234 452zm-259-447c-3 0-6-1-8-1v-1c2 1 6 2 9 2 6 0 12-1 20-4-8 3-15 4-21 4zm21-4c1-1 2-1 4-1-2 0-3 0-4 1z"/><path fill="#3C89BF" fill-rule="nonzero" d="M7479 16138h-1 1zm-5-1h-1 1zm-12-3zm-6-2zm-508-159c-58-22-116-44-173-66-306-121-619-267-879-473-36-29-69-60-93-98v-1c2-10 5-19 7-29 94 64 196 120 302 168-22 23-43 46-65 68 103 69 211 130 322 185 36-41 72-81 108-122 228 62 465 97 693 111-74 86-148 171-222 257zm2117-1398c50-324 79-655 61-984-123 124-245 248-365 373 15-270 5-543-8-803 0-12-1-23-2-35 95-94 189-187 285-280-22-112-48-223-82-331-75 71-149 142-223 215-13-246-32-495-68-739 2 0 5 1 8 1 6 0 13-1 21-4 1-1 2-1 4-1 58 0 205 371 234 452 1 2 2 3 2 5 0 0 1 1 1 2 112 326 151 674 183 1015 11 110 15 221 16 332 0 262-27 524-67 782z"/><path fill="#2562A3" fill-rule="nonzero" d="M6369 15727c-111-55-219-116-322-185 22-22 43-45 65-68 117 53 240 96 365 131-36 41-72 81-108 122zm2382-2601c-6-130-12-263-20-396 74-73 148-144 223-215 34 108 60 219 82 331-96 93-190 186-285 280z"/><path fill="#252422" fill-rule="nonzero" d="M7957 16206zm1 0c99 0 198-12 293-41 302-94 471-360 582-641 120-304 182-627 232-949-50 322-112 645-232 949-111 281-280 547-582 641-95 29-194 41-293 41zm-455-62s-1 0-1-1c0 1 1 1 1 1zm-6-2c-3 0-6-1-9-2 3 1 6 2 9 2z"/><path fill="#2562A3" fill-rule="nonzero" d="M7957 16206c-153 0-308-28-454-62 0 0-1 0-1-1-2 0-4 0-5-1-3 0-6-1-9-2-1 0-3 0-4-1-1 0-3 0-5-1h-1c-1-1-3-1-4-1h-1c-4-1-7-2-11-3-2-1-4-1-6-2-171-42-342-98-508-159 74-86 148-171 222-257 82 5 162 8 240 8 9 0 18-1 28-1 580-4 974-398 1164-915 98-266 142-553 159-844 120-125 242-249 365-373 18 329-11 660-61 984-50 322-112 645-232 949-111 281-280 547-582 641-95 29-194 41-293 41h-1z"/><path fill="#FDE859" fill-rule="nonzero" d="M12045 13314c-126-181-252-362-406-520-293-302-623-557-1015-716-365-149-797-269-1194-196-71 13-143 32-213 53 18 61 37 121 55 181 552-37 1087 102 1588 375 586 319 1094 783 1481 1333-63-183-188-355-296-510z"/><path fill="#77C1E5" fill-rule="nonzero" d="M11739 14125c56 36 108 76 157 118-35-59-75-113-111-159-125-156-277-262-462-335-350-138-658 47-867 307 392-191 953-143 1283 69z"/><path fill="#FEFEFE" fill-rule="nonzero" d="M12571 17334c-545-38-1105-15-1653-15H9155c-561 0-1122 1-1683 2-294 1-587 5-881 6-271 2-545-7-812 29-40 6-40 52 0 57 241 33 487 28 732 29 293 1 587 5 881 6 588 2 1175 3 1763 3h1683c574 0 1162 25 1733-15 91-7 91-96 0-102zM9156 10532c-334-38-677-15-1012-15H7065c-343 0-687 1-1030 3-180 0-360 4-540 6-166 1-334-8-497 29-24 5-24 51 0 56 148 33 298 28 448 29 180 1 360 5 540 6 359 2 719 3 1079 3h1030c351 0 711 25 1061-15 56-7 56-95 0-102zM14663 10532c-334-38-677-15-1013-15h-1079c-343 0-686 1-1030 3-180 0-360 4-540 6-165 1-333-8-497 29-24 5-24 51 0 56 148 33 298 28 448 29 180 1 360 5 540 6 360 2 719 3 1079 3h1030c352 0 712 25 1062-15 56-7 56-95 0-102z"/></svg>