<?xml version="1.0" encoding="UTF-8"?>
<!DOCTYPE svg PUBLIC "-//W3C//DTD SVG 1.1//EN" "http://www.w3.org/Graphics/SVG/1.1/DTD/svg11.dtd">
<!-- Creator: CorelDRAW X7 -->
<svg xmlns="http://www.w3.org/2000/svg" xml:space="preserve" width="1458px" height="670px" version="1.1" shape-rendering="geometricPrecision" text-rendering="geometricPrecision" image-rendering="optimizeQuality" fill-rule="evenodd" clip-rule="evenodd"
viewBox="0 0 1386 637"
 xmlns:xlink="http://www.w3.org/1999/xlink">
 <g id="Слой_x0020_1">
  <metadata id="CorelCorpID_0Corel-Layer"/>
  <g id="_634575584">
   <path fill="#7F8689" fill-rule="nonzero" d="M1386 368c0,21 -6,38 -14,38 -8,0 -14,-17 -14,-38 0,-20 6,-37 14,-37 8,0 14,17 14,37z"/>
   <polygon fill="#BA8358" fill-rule="nonzero" points="104,524 1241,524 1241,399 104,399 "/>
   <path fill="#616768" fill-rule="nonzero" d="M391 530c0,59 -48,107 -106,107 -59,0 -107,-48 -107,-107 0,-58 48,-106 107,-106 58,0 106,48 106,106z"/>
   <path fill="#FEFEFE" fill-rule="nonzero" d="M357 530c0,40 -32,73 -72,73 -40,0 -73,-33 -73,-73 0,-40 33,-72 73,-72 40,0 72,32 72,72z"/>
   <path fill="#DADCE1" fill-rule="nonzero" d="M349 530c0,36 -29,65 -64,65 -36,0 -65,-29 -65,-65 0,-35 29,-64 65,-64 35,0 64,29 64,64z"/>
   <path fill="#FEFEFE" fill-rule="nonzero" d="M345 530c0,34 -27,61 -60,61 -34,0 -61,-27 -61,-61 0,-33 27,-60 61,-60 33,0 60,27 60,60z"/>
   <path fill="#DADCE1" fill-rule="nonzero" d="M329 530c0,25 -20,45 -44,45 -25,0 -45,-20 -45,-45 0,-24 20,-44 45,-44 24,0 44,20 44,44z"/>
   <path fill="#FEFEFE" fill-rule="nonzero" d="M326 530c0,23 -18,42 -41,42 -23,0 -42,-19 -42,-42 0,-23 19,-41 42,-41 23,0 41,18 41,41z"/>
   <path fill="#DADCE1" fill-rule="nonzero" d="M288 475c0,2 -2,3 -3,3 -2,0 -3,-1 -3,-3 0,-2 1,-3 3,-3 1,0 3,1 3,3z"/>
   <path fill="#DADCE1" fill-rule="nonzero" d="M326 494c-1,1 -3,1 -5,0 -1,-2 -1,-4 0,-5 2,-1 4,-1 5,0 1,1 1,3 0,5z"/>
   <path fill="#DADCE1" fill-rule="nonzero" d="M340 533c-2,0 -3,-1 -3,-3 0,-1 1,-3 3,-3 2,0 3,2 3,3 0,2 -1,3 -3,3z"/>
   <path fill="#DADCE1" fill-rule="nonzero" d="M321 571c-1,-1 -1,-3 0,-4 2,-1 4,-1 5,0 1,1 1,3 0,4 -1,2 -3,2 -5,0z"/>
   <path fill="#DADCE1" fill-rule="nonzero" d="M282 585c0,-1 1,-3 3,-3 1,0 3,2 3,3 0,2 -2,3 -3,3 -2,0 -3,-1 -3,-3z"/>
   <path fill="#DADCE1" fill-rule="nonzero" d="M244 567c1,-1 3,-1 4,0 1,1 1,3 0,4 -1,2 -3,2 -4,0 -2,-1 -2,-3 0,-4z"/>
   <path fill="#DADCE1" fill-rule="nonzero" d="M230 527c1,0 3,2 3,3 0,2 -2,3 -3,3 -2,0 -3,-1 -3,-3 0,-1 1,-3 3,-3z"/>
   <path fill="#DADCE1" fill-rule="nonzero" d="M248 489c1,1 1,3 0,5 -1,1 -3,1 -4,0 -2,-2 -2,-4 0,-5 1,-1 3,-1 4,0z"/>
   <path fill="#616768" fill-rule="nonzero" d="M1193 530c0,59 -47,107 -106,107 -59,0 -107,-48 -107,-107 0,-58 48,-106 107,-106 59,0 106,48 106,106z"/>
   <path fill="#FEFEFE" fill-rule="nonzero" d="M1159 530c0,40 -32,73 -72,73 -40,0 -73,-33 -73,-73 0,-40 33,-72 73,-72 40,0 72,32 72,72z"/>
   <path fill="#DADCE1" fill-rule="nonzero" d="M1151 530c0,36 -29,65 -64,65 -36,0 -65,-29 -65,-65 0,-35 29,-64 65,-64 35,0 64,29 64,64z"/>
   <path fill="#FEFEFE" fill-rule="nonzero" d="M1147 530c0,34 -27,61 -60,61 -33,0 -60,-27 -60,-61 0,-33 27,-60 60,-60 33,0 60,27 60,60z"/>
   <path fill="#DADCE1" fill-rule="nonzero" d="M1131 530c0,25 -20,45 -44,45 -25,0 -44,-20 -44,-45 0,-24 19,-44 44,-44 24,0 44,20 44,44z"/>
   <path fill="#FEFEFE" fill-rule="nonzero" d="M1128 530c0,23 -18,42 -41,42 -23,0 -42,-19 -42,-42 0,-23 19,-41 42,-41 23,0 41,18 41,41z"/>
   <path fill="#DADCE1" fill-rule="nonzero" d="M1090 475c0,2 -1,3 -3,3 -2,0 -3,-1 -3,-3 0,-2 1,-3 3,-3 2,0 3,1 3,3z"/>
   <path fill="#DADCE1" fill-rule="nonzero" d="M1128 494c-1,1 -3,1 -4,0 -2,-2 -2,-4 0,-5 1,-1 3,-1 4,0 1,1 1,3 0,5z"/>
   <path fill="#DADCE1" fill-rule="nonzero" d="M1142 533c-2,0 -3,-1 -3,-3 0,-1 1,-3 3,-3 2,0 3,2 3,3 0,2 -1,3 -3,3z"/>
   <path fill="#DADCE1" fill-rule="nonzero" d="M1124 571c-2,-1 -2,-3 0,-4 1,-1 3,-1 4,0 1,1 1,3 0,4 -1,2 -3,2 -4,0z"/>
   <path fill="#DADCE1" fill-rule="nonzero" d="M1084 585c0,-1 1,-3 3,-3 2,0 3,2 3,3 0,2 -1,3 -3,3 -2,0 -3,-1 -3,-3z"/>
   <path fill="#DADCE1" fill-rule="nonzero" d="M1046 567c1,-1 3,-1 4,0 1,1 1,3 0,4 -1,2 -3,2 -4,0 -2,-1 -2,-3 0,-4z"/>
   <path fill="#DADCE1" fill-rule="nonzero" d="M1032 527c2,0 3,2 3,3 0,2 -1,3 -3,3 -2,0 -3,-1 -3,-3 0,-1 1,-3 3,-3z"/>
   <path fill="#DADCE1" fill-rule="nonzero" d="M1050 489c1,1 1,3 0,5 -1,1 -3,1 -4,0 -2,-2 -2,-4 0,-5 1,-1 3,-1 4,0z"/>
   <path fill="#EF7F1A" fill-rule="nonzero" d="M42 519c0,0 -21,-9 -24,-29 -4,-20 3,-188 6,-218 3,-31 8,-48 8,-48 0,0 -8,-3 -5,-10 2,-8 7,-19 8,-21 0,0 9,-69 14,-84 5,-15 27,-69 51,-80 24,-10 213,-23 266,-25 54,-1 520,-4 563,-4 44,0 210,5 243,11 32,5 59,18 62,22 2,4 8,23 9,25 1,1 35,51 41,60 5,10 51,80 53,86 2,6 9,21 12,25 4,5 13,21 13,26 1,4 7,111 7,121 0,9 -11,90 -11,99 0,9 -1,42 -4,46 -2,3 -15,7 -18,7 -3,0 -124,0 -124,0 0,0 -6,-5 -8,-14 -1,-8 -19,-63 -23,-70 -4,-8 -23,-43 -89,-43 -65,0 -82,14 -96,45 -14,30 -24,82 -73,82 -49,0 -220,0 -220,0l-247 0c0,0 -14,2 -28,-26 -15,-27 -38,-50 -130,-50 -92,0 -131,-7 -148,58 0,0 -2,18 -11,18 -9,0 -67,0 -67,0 0,0 -17,-3 -30,-9z"/>
   <path fill="#C98149" fill-rule="nonzero" d="M1113 387c5,0 57,1 76,50 4,9 7,18 10,26 10,33 15,48 68,48l59 0c2,-11 9,-81 5,-136 -8,-84 -19,-139 -30,-151 -16,-17 -21,-24 -40,-69 -18,-42 -42,-89 -46,-96l-273 0 0 328 171 0zm215 127l-61 0c-55,0 -61,-18 -71,-50 -3,-7 -6,-16 -10,-26 -19,-47 -71,-48 -73,-48l-1 0 -171 0c-1,0 -2,-1 -2,-2l0 -330c0,-1 1,-2 2,-2l275 0c0,0 1,0 1,1 1,0 27,51 47,97 19,46 24,52 39,67 17,18 26,104 31,154 5,56 -4,129 -5,137 0,0 1,0 1,0 0,1 -1,2 -2,2z"/>
   <path fill="#C98149" fill-rule="nonzero" d="M1346 224c-2,-3 -3,-7 -5,-11l-1314 0c0,1 0,1 0,1 -3,7 5,10 5,10l1314 0z"/>
   <path fill="#757B7E" fill-rule="nonzero" d="M1337 204c-2,-6 -48,-76 -53,-86 -6,-9 -40,-59 -41,-60 -1,-2 -7,-21 -9,-25 -3,-4 -30,-17 -62,-22 -33,-6 -199,-11 -243,-11 -43,0 -509,3 -563,4 -53,2 -242,15 -266,25 -24,11 -46,65 -51,80 -5,15 -14,84 -14,84 -1,2 -6,13 -8,21 -1,1 -1,3 -1,4l1317 0c-2,-5 -5,-11 -6,-14z"/>
   <path fill="#646869" fill-rule="nonzero" d="M127 179l-33 0c-2,0 -3,-2 -3,-4l0 0c0,-2 1,-4 3,-4l33 0c2,0 4,2 4,4l0 0c0,2 -2,4 -4,4z"/>
   <path fill="#646869" fill-rule="nonzero" d="M131 167l-34 0c-2,0 -3,-2 -3,-4l0 0c0,-2 1,-4 3,-4l34 0c1,0 3,2 3,4l0 0c0,2 -2,4 -3,4z"/>
   <path fill="#646869" fill-rule="nonzero" d="M134 155l-34 0c-1,0 -3,-2 -3,-4l0 0c0,-2 2,-4 3,-4l34 0c2,0 3,2 3,4l0 0c0,2 -1,4 -3,4z"/>
   <path fill="#646869" fill-rule="nonzero" d="M137 143l-33 0c-2,0 -4,-2 -4,-4l0 0c0,-2 2,-4 4,-4l33 0c2,0 3,2 3,4l0 0c0,2 -1,4 -3,4z"/>
   <path fill="#646869" fill-rule="nonzero" d="M140 131l-33 0c-2,0 -4,-2 -4,-4l0 0c0,-2 2,-4 4,-4l33 0c2,0 3,2 3,4l0 0c0,2 -1,4 -3,4z"/>
   <path fill="#646869" fill-rule="nonzero" d="M143 119l-33 0c-2,0 -3,-2 -3,-4l0 0c0,-2 1,-4 3,-4l33 0c2,0 4,2 4,4l0 0c0,2 -2,4 -4,4z"/>
   <path fill="#646869" fill-rule="nonzero" d="M146 107l-33 0c-2,0 -3,-2 -3,-4l0 0c0,-2 1,-4 3,-4l33 0c2,0 4,2 4,4l0 0c0,2 -2,4 -4,4z"/>
   <path fill="#646869" fill-rule="nonzero" d="M149 95l-33 0c-2,0 -3,-2 -3,-4l0 0c0,-2 1,-4 3,-4l33 0c2,0 4,2 4,4l0 0c0,2 -2,4 -4,4z"/>
   <path fill="#646869" fill-rule="nonzero" d="M153 83l-34 0c-1,0 -3,-2 -3,-4l0 0c0,-2 2,-4 3,-4l34 0c1,0 3,2 3,4l0 0c0,2 -2,4 -3,4z"/>
   <path fill="#646869" fill-rule="nonzero" d="M80 47c-1,2 -2,4 -3,5l1164 0c-1,-1 -2,-3 -2,-5l-1159 0z"/>
   <path fill="#E1E2E6" fill-rule="nonzero" d="M1337 204c-2,-6 -48,-76 -53,-86 -6,-9 -40,-59 -41,-60 0,0 -1,-1 -1,-2l-5 0c0,0 49,107 61,132 9,19 31,21 41,21 -1,-2 -1,-4 -2,-5z"/>
   <path fill="#646869" fill-rule="nonzero" d="M942 218l0 -159 273 0c4,7 28,54 46,96 16,39 22,50 34,63l4 0c-12,-13 -17,-22 -35,-64 -20,-46 -46,-97 -47,-97 0,-1 -1,-1 -1,-1l-275 0c-1,0 -2,1 -2,2l0 160 3 0z"/>
   <path fill="#CECED3" fill-rule="nonzero" d="M1251 196l-57 -123c-1,-2 -3,-3 -5,-3l-228 0c-3,0 -5,2 -5,5l0 124c0,3 2,6 5,6l286 0 0 0c3,0 5,-3 5,-6 0,-1 0,-2 -1,-3z"/>
   <path fill="#E8E9EE" fill-rule="nonzero" d="M1246 193l-56 -117c-1,-2 -3,-3 -5,-3l-220 0c-3,0 -5,3 -5,6l0 117c0,3 2,5 5,5l277 0 0 0c2,0 5,-2 5,-5 0,-1 0,-2 -1,-3z"/>
   <path fill="#C98149" fill-rule="nonzero" d="M1070 285c0,11 -13,20 -30,20 -16,0 -29,-9 -29,-20 0,-11 13,-20 29,-20 17,0 30,9 30,20z"/>
   <path fill="#E8E9EE" fill-rule="nonzero" d="M1047 292l-47 0c-3,0 -6,-3 -6,-7l0 0c0,-3 3,-6 6,-6l47 0c3,0 6,3 6,6l0 0c0,4 -3,7 -6,7z"/>
   <path fill="#7F8689" fill-rule="nonzero" d="M75 551l-40 0c-19,0 -35,-16 -35,-36l0 -20c0,-19 16,-35 35,-35l40 0c19,0 35,16 35,35l0 20c0,20 -16,36 -35,36z"/>
   <path fill="#7F8689" fill-rule="nonzero" d="M1343 551l-39 0c-20,0 -35,-16 -35,-36l0 -20c0,-19 15,-35 35,-35l39 0c19,0 35,16 35,35l0 20c0,20 -16,36 -35,36z"/>
   <path fill="#CECED3" fill-rule="nonzero" d="M499 195l-231 0c-19,0 -35,-15 -35,-35l0 -61c0,-20 16,-35 35,-35l231 0c19,0 35,15 35,35l0 61c0,20 -16,35 -35,35z"/>
   <path fill="#E8E9EE" fill-rule="nonzero" d="M494 190l-220 0c-20,0 -36,-16 -36,-35l0 -51c0,-19 16,-35 36,-35l220 0c19,0 35,16 35,35l0 51c0,19 -16,35 -35,35z"/>
   <path fill="#CECED3" fill-rule="nonzero" d="M850 195l-230 0c-20,0 -36,-15 -36,-35l0 -61c0,-20 16,-35 36,-35l230 0c20,0 35,15 35,35l0 61c0,20 -15,35 -35,35z"/>
   <path fill="#E8E9EE" fill-rule="nonzero" d="M845 190l-220 0c-20,0 -35,-16 -35,-35l0 -51c0,-19 15,-35 35,-35l220 0c19,0 35,16 35,35l0 51c0,19 -16,35 -35,35z"/>
  </g>
 </g>
</svg>
