<?xml version="1.0" encoding="UTF-8"?>
<!DOCTYPE svg PUBLIC "-//W3C//DTD SVG 1.1//EN" "http://www.w3.org/Graphics/SVG/1.1/DTD/svg11.dtd">
<!-- Creator: CorelDRAW X7 -->
<svg xmlns="http://www.w3.org/2000/svg" xml:space="preserve" width="1460px" height="806px" version="1.1" shape-rendering="geometricPrecision" text-rendering="geometricPrecision" image-rendering="optimizeQuality" fill-rule="evenodd" clip-rule="evenodd"
viewBox="0 0 1307 721"
 xmlns:xlink="http://www.w3.org/1999/xlink">
 <g id="Слой_x0020_1">
  <metadata id="CorelCorpID_0Corel-Layer"/>
  <g id="_6039817264">
   <polygon fill="#B0AEAC" fill-rule="nonzero" points="653,693 653,693 653,693 653,693 "/>
   <path fill="none" d="M653 693l0 0 3 0c0,0 -1,0 -3,0 -1,0 -2,0 -2,0l2 0 0 0 0 0 0 0 -2 0"/>
   <path fill="#B0AEAC" d="M656 693c0,0 -1,0 -3,0 -1,0 -2,0 -2,0l-3 0c0,0 2,0 5,0 3,0 5,0 5,0l-2 0z"/>
   <path fill="#B0AEAC" d="M658 693c0,0 -2,0 -5,0 -3,0 -5,0 -5,0l-2 0c0,0 3,0 7,0 5,0 8,0 8,0l-3 0z"/>
   <path fill="#B0AEAC" d="M661 693c0,0 -3,0 -8,0 -4,0 -7,0 -7,0l-3 0c0,0 5,0 10,0 6,0 11,0 11,0l-3 0z"/>
   <path fill="#B0AEAC" d="M664 693c0,0 -5,0 -11,0 -5,0 -10,0 -10,0l-2 0c0,0 5,1 12,1 7,0 13,-1 13,-1l-2 0z"/>
   <path fill="#B0AEAC" d="M666 693c0,0 -6,1 -13,1 -7,0 -12,-1 -12,-1l-3 0c0,0 7,1 15,1 9,0 16,-1 16,-1l-3 0z"/>
   <path fill="#B0AEAC" d="M669 693c0,0 -7,1 -16,1 -8,0 -15,-1 -15,-1l-3 0c0,0 8,1 18,1 10,0 18,-1 18,-1l-2 0z"/>
   <path fill="#B0AEAC" d="M671 693c0,0 -8,1 -18,1 -10,0 -18,-1 -18,-1l-2 0c0,0 9,1 20,1 12,0 21,-1 21,-1l-3 0z"/>
   <path fill="#B0AEAC" d="M674 693c0,0 -9,1 -21,1 -11,0 -20,-1 -20,-1l-3 0c0,1 11,1 23,1 13,0 23,0 23,-1l-2 0z"/>
   <path fill="#B0AEAC" d="M676 693c0,1 -10,1 -23,1 -12,0 -23,0 -23,-1l-2 0c0,1 11,1 25,1 14,0 26,0 26,-1l-3 0z"/>
   <path fill="#B0AEAC" d="M679 693c0,1 -12,1 -26,1 -14,0 -25,0 -25,-1l-3 0c0,1 13,1 28,1 16,0 28,0 28,-1l-2 0z"/>
   <path fill="#B0AEAC" d="M681 693c0,1 -12,1 -28,1 -15,0 -28,0 -28,-1l-2 0c0,1 13,1 30,1 17,0 31,0 31,-1l-3 0z"/>
   <path fill="#B0AEAC" d="M684 693c0,1 -14,1 -31,1 -17,0 -30,0 -30,-1l-3 0c0,1 15,1 33,1 19,0 33,0 33,-1l-2 0z"/>
   <path fill="#B0AEAC" d="M686 693c0,1 -14,1 -33,1 -18,0 -33,0 -33,-1l-2 0c0,1 16,1 35,1 20,0 36,0 36,-1l-3 0z"/>
   <path fill="#B0AEAC" d="M689 693c0,1 -16,1 -36,1 -19,0 -35,0 -35,-1l-3 0c0,1 17,2 38,2 21,0 39,-1 39,-2l-3 0z"/>
   <path fill="#B0AEAC" d="M692 693c0,1 -18,2 -39,2 -21,0 -38,-1 -38,-2l-3 0c0,1 19,2 41,2 23,0 41,-1 41,-2l-2 0z"/>
   <path fill="#B0AEAA" d="M694 693c0,1 -18,2 -41,2 -22,0 -41,-1 -41,-2l-2 0c0,1 19,2 43,2 24,0 44,-1 44,-2l-3 0z"/>
   <path fill="#B0AEAA" d="M697 693c0,1 -20,2 -44,2 -24,0 -43,-1 -43,-2l-3 0c0,1 21,2 46,2 26,0 46,-1 46,-2l-2 0z"/>
   <path fill="#B0AEAA" d="M699 693c0,1 -20,2 -46,2 -25,0 -46,-1 -46,-2l-2 0c0,1 22,2 48,2 27,0 49,-1 49,-2l-3 0z"/>
   <path fill="#B0AEAA" d="M702 693c0,1 -22,2 -49,2 -26,0 -48,-1 -48,-2l-3 0c0,1 23,2 51,2 28,0 51,-1 51,-2l-2 0z"/>
   <path fill="#B0AEAA" d="M704 693c0,1 -23,2 -51,2 -28,0 -51,-1 -51,-2l-2 0c0,1 24,2 53,2 30,0 54,-1 54,-2l-3 0z"/>
   <path fill="#B0AEAA" d="M707 693c0,1 -24,2 -54,2 -29,0 -53,-1 -53,-2l-3 0c0,1 25,2 56,2 31,0 56,-1 56,-2l-2 0z"/>
   <path fill="#B0AEAA" d="M709 693c0,1 -25,2 -56,2 -31,0 -56,-1 -56,-2l-2 0c0,1 26,2 58,2 33,0 59,-1 59,-2l-3 0z"/>
   <path fill="#B0AEAA" d="M712 693c0,1 -26,2 -59,2 -32,0 -58,-1 -58,-2l-3 0c0,1 27,3 61,3 34,0 62,-2 62,-3l-3 0z"/>
   <path fill="#B0AEAA" d="M715 693c0,1 -28,3 -62,3 -34,0 -61,-2 -61,-3l-2 0c0,1 28,3 63,3 36,0 64,-2 64,-3l-2 0z"/>
   <path fill="#B0AEAA" d="M717 693c0,1 -28,3 -64,3 -35,0 -63,-2 -63,-3l-3 0c0,2 30,3 66,3 37,0 67,-1 67,-3l-3 0z"/>
   <path fill="#B0ACA9" d="M720 693c0,2 -30,3 -67,3 -36,0 -66,-1 -66,-3l-3 0c0,2 31,3 69,3 38,0 69,-1 69,-3l-2 0z"/>
   <path fill="#B0ACA9" d="M722 693c0,2 -31,3 -69,3 -38,0 -69,-1 -69,-3l-2 0c0,2 32,3 71,3 40,0 72,-1 72,-3l-3 0z"/>
   <path fill="#B0ACA9" d="M725 693c0,2 -32,3 -72,3 -39,0 -71,-1 -71,-3l-3 0c0,2 33,3 74,3 41,0 74,-1 74,-3l-2 0z"/>
   <path fill="#B0ACA9" d="M727 693c0,2 -33,3 -74,3 -41,0 -74,-1 -74,-3l-2 0c0,2 34,3 76,3 43,0 77,-1 77,-3l-3 0z"/>
   <path fill="#B0ACA9" d="M730 693c0,2 -34,3 -77,3 -42,0 -76,-1 -76,-3l-3 0c0,2 36,3 79,3 44,0 79,-1 79,-3l-2 0z"/>
   <path fill="#B0ACA9" d="M732 693c0,2 -35,3 -79,3 -43,0 -79,-1 -79,-3l-2 0c0,2 36,3 81,3 45,0 82,-1 82,-3l-3 0z"/>
   <path fill="#B0ACA9" d="M735 693c0,2 -37,3 -82,3 -45,0 -81,-1 -81,-3l-3 0c0,2 38,4 84,4 47,0 85,-2 85,-4l-3 0z"/>
   <path fill="#B0ACA9" d="M738 693c0,2 -38,4 -85,4 -46,0 -84,-2 -84,-4l-2 0c0,2 38,4 86,4 48,0 87,-2 87,-4l-2 0z"/>
   <path fill="#B0ACA9" d="M740 693c0,2 -39,4 -87,4 -48,0 -86,-2 -86,-4l-3 0c0,2 40,4 89,4 50,0 90,-2 90,-4l-3 0z"/>
   <path fill="#B0ACA9" d="M743 693c0,2 -40,4 -90,4 -49,0 -89,-2 -89,-4l-3 0c0,2 42,4 92,4 51,0 92,-2 92,-4l-2 0z"/>
   <path fill="#B0ACA9" d="M745 693c0,2 -41,4 -92,4 -50,0 -92,-2 -92,-4l-2 0c0,2 42,4 94,4 52,0 95,-2 95,-4l-3 0z"/>
   <path fill="#B0ACA9" d="M748 693c0,2 -43,4 -95,4 -52,0 -94,-2 -94,-4l-3 0c0,2 44,4 97,4 54,0 97,-2 97,-4l-2 0z"/>
   <path fill="#B0ACA9" d="M750 693c0,2 -43,4 -97,4 -53,0 -97,-2 -97,-4l-2 0c0,2 44,4 99,4 55,0 100,-2 100,-4l-3 0z"/>
   <path fill="#B0ACA9" d="M753 693c0,2 -45,4 -100,4 -55,0 -99,-2 -99,-4l-3 0c0,2 46,4 102,4 57,0 102,-2 102,-4l-2 0z"/>
   <path fill="#B0ACA9" d="M755 693c0,2 -45,4 -102,4 -56,0 -102,-2 -102,-4l-2 0c0,2 47,4 104,4 58,0 105,-2 105,-4l-3 0z"/>
   <path fill="#B0ACA9" d="M758 693c0,2 -47,4 -105,4 -57,0 -104,-2 -104,-4l-3 0c0,2 48,5 107,5 59,0 107,-3 107,-5l-2 0z"/>
   <path fill="#B0ACA9" d="M760 693c0,2 -48,5 -107,5 -59,0 -107,-3 -107,-5l-2 0c0,3 49,5 109,5 61,0 110,-2 110,-5l-3 0z"/>
   <path fill="#B0ACA9" d="M763 693c0,3 -49,5 -110,5 -60,0 -109,-2 -109,-5l-3 0c0,3 50,5 112,5 62,0 113,-2 113,-5l-3 0z"/>
   <path fill="#B0ACA9" d="M766 693c0,3 -51,5 -113,5 -62,0 -112,-2 -112,-5l-3 0c0,3 52,5 115,5 64,0 115,-2 115,-5l-2 0z"/>
   <path fill="#B0ACA9" d="M768 693c0,3 -51,5 -115,5 -63,0 -115,-2 -115,-5l-2 0c0,3 52,5 117,5 65,0 118,-2 118,-5l-3 0z"/>
   <path fill="#B0ACA9" d="M771 693c0,3 -53,5 -118,5 -65,0 -117,-2 -117,-5l-3 0c0,3 54,5 120,5 67,0 120,-2 120,-5l-2 0z"/>
   <path fill="#B0ACA9" d="M773 693c0,3 -53,5 -120,5 -66,0 -120,-2 -120,-5l-2 0c0,3 55,5 122,5 68,0 123,-2 123,-5l-3 0z"/>
   <path fill="#B0ACA9" d="M776 693c0,3 -55,5 -123,5 -67,0 -122,-2 -122,-5l-3 0c0,3 56,5 125,5 69,0 125,-2 125,-5l-2 0z"/>
   <path fill="#B0ACA9" d="M778 693c0,3 -56,5 -125,5 -69,0 -125,-2 -125,-5l-2 0c0,3 57,5 127,5 71,0 128,-2 128,-5l-3 0z"/>
   <path fill="#B0ACA9" d="M781 693c0,3 -57,5 -128,5 -70,0 -127,-2 -127,-5l-3 0c0,3 58,5 130,5 72,0 130,-2 130,-5l-2 0z"/>
   <path fill="#B0ACA9" d="M783 693c0,3 -58,5 -130,5 -72,0 -130,-2 -130,-5l-2 0c0,3 59,6 132,6 74,0 133,-3 133,-6l-3 0z"/>
   <path fill="#B0ACA9" d="M786 693c0,3 -59,6 -133,6 -73,0 -132,-3 -132,-6l-3 0c0,3 61,6 135,6 75,0 136,-3 136,-6l-3 0z"/>
   <path fill="#B0ACA9" d="M789 693c0,3 -61,6 -136,6 -74,0 -135,-3 -135,-6l-2 0c0,3 61,6 137,6 76,0 138,-3 138,-6l-2 0z"/>
   <path fill="#B0ACA9" d="M791 693c0,3 -62,6 -138,6 -76,0 -137,-3 -137,-6l-3 0c0,3 63,6 140,6 78,0 141,-3 141,-6l-3 0z"/>
   <path fill="#B0ACA9" d="M794 693c0,3 -63,6 -141,6 -77,0 -140,-3 -140,-6l-3 0c0,3 64,6 143,6 79,0 143,-3 143,-6l-2 0z"/>
   <path fill="#B0ACA7" d="M796 693c0,3 -64,6 -143,6 -79,0 -143,-3 -143,-6l-2 0c0,3 65,6 145,6 81,0 146,-3 146,-6l-3 0z"/>
   <path fill="#B0ACA7" d="M799 693c0,3 -65,6 -146,6 -80,0 -145,-3 -145,-6l-3 0c0,3 67,6 148,6 79,0 143,-2 148,-6l0 0 -2 0z"/>
   <path fill="#B0ACA7" d="M801 693c-5,4 -69,6 -148,6 -81,0 -148,-3 -148,-6l-2 0c0,4 67,6 150,6 73,0 134,-2 148,-5l0 -1z"/>
   <path fill="#B0ACA7" d="M801 694c-14,3 -75,5 -148,5 -83,0 -150,-2 -150,-6l-3 0c0,4 69,6 153,6 71,0 130,-2 148,-4l0 -1z"/>
   <path fill="#B0ACA7" d="M801 695c-18,2 -77,4 -148,4 -84,0 -153,-2 -153,-6l-2 0c0,4 69,7 155,7 69,0 127,-2 148,-5l0 0z"/>
   <path fill="#AEABA7" d="M801 695c-21,3 -79,5 -148,5 -86,0 -155,-3 -155,-7l-3 0c0,4 71,7 158,7 68,0 125,-2 148,-5l0 0z"/>
   <path fill="#AEABA7" d="M801 695c-23,3 -80,5 -148,5 -87,0 -158,-3 -158,-7l-2 0c0,4 72,7 160,7 66,0 123,-2 148,-4l0 -1z"/>
   <path fill="#AEABA7" d="M801 696c-25,2 -82,4 -148,4 -88,0 -160,-3 -160,-7l-3 0c0,4 73,7 163,7 66,0 122,-2 148,-4l0 0z"/>
   <g>
    <path fill="#AEABA7" d="M801 696c-26,2 -82,4 -148,4 -90,0 -163,-3 -163,-7l0 0 0 1c14,4 82,6 163,6 65,0 120,-2 148,-4l0 0zm-311 -3l0 0 0 0z"/>
   </g>
   <path fill="#AEABA7" d="M801 696c-28,2 -83,4 -148,4 -81,0 -149,-2 -163,-6l0 1c18,3 84,5 163,5 64,0 119,-1 148,-4l0 0z"/>
   <path fill="#AEABA7" d="M801 696c-29,3 -84,4 -148,4 -79,0 -145,-2 -163,-5l0 0c21,3 86,5 163,5 63,0 118,-1 148,-3l0 -1z"/>
   <path fill="#AEABA7" d="M801 697c-30,2 -85,3 -148,3 -77,0 -142,-2 -163,-5l0 0c24,3 88,5 163,5 63,0 117,-1 148,-3l0 0z"/>
   <path fill="#AEABA7" d="M801 697c-31,2 -85,3 -148,3 -75,0 -139,-2 -163,-5l0 1c26,3 89,4 163,4 62,0 117,-1 148,-3l0 0z"/>
   <path fill="#AEABA7" d="M801 697c-31,2 -86,3 -148,3 -74,0 -137,-1 -163,-4l0 0c28,3 90,5 163,5 62,0 116,-2 148,-4l0 0z"/>
   <path fill="#AEABA7" d="M801 697c-32,2 -86,4 -148,4 -73,0 -135,-2 -163,-5l0 0c29,3 91,5 163,5 61,0 115,-2 148,-4l0 0z"/>
   <path fill="#AEABA7" d="M801 697c-33,2 -87,4 -148,4 -72,0 -134,-2 -163,-5l0 1c30,2 92,4 163,4 61,0 115,-1 148,-3l0 -1z"/>
   <path fill="#AEABA7" d="M801 698c-33,2 -87,3 -148,3 -71,0 -133,-2 -163,-4l0 0c32,2 93,4 163,4 60,0 114,-1 148,-3l0 0z"/>
   <path fill="#AEABA7" d="M801 698c-34,2 -88,3 -148,3 -70,0 -131,-2 -163,-4l0 0c33,2 94,4 163,4 61,0 115,-1 149,-3l-1 0 0 0z"/>
   <path fill="#AEABA7" d="M802 698c-34,2 -88,3 -149,3 -69,0 -130,-2 -163,-4l0 0c34,3 94,4 163,4 62,0 117,-1 152,-3l-3 0z"/>
   <path fill="#AEABA7" d="M805 698c-35,2 -90,3 -152,3 -69,0 -129,-1 -163,-4l0 0c34,3 95,4 163,4 64,0 120,-1 156,-3l-4 0z"/>
   <path fill="#AEABA7" d="M809 698c-36,2 -92,3 -156,3 -68,0 -129,-1 -163,-4l0 1c35,2 95,3 163,3 65,0 123,-1 159,-3l-3 0z"/>
   <path fill="#AEABA7" d="M812 698c-36,2 -94,3 -159,3 -68,0 -128,-1 -163,-3l0 0c36,2 96,3 163,3 67,0 126,-1 162,-3l-3 0z"/>
   <path fill="#AEABA7" d="M815 698c-36,2 -95,3 -162,3 -67,0 -127,-1 -163,-3l0 0 -1 0c36,2 96,4 164,4 68,0 129,-2 165,-4l-3 0z"/>
   <path fill="#AEABA7" d="M818 698c-36,2 -97,4 -165,4 -68,0 -128,-2 -164,-4l-4 0c37,2 99,4 168,4 70,0 131,-2 168,-4l-3 0z"/>
   <path fill="#AEABA7" d="M821 698c-37,2 -98,4 -168,4 -69,0 -131,-2 -168,-4l-3 0c37,2 100,4 171,4 71,0 134,-2 171,-4l-3 0z"/>
   <path fill="#AEABA7" d="M824 698c-37,2 -100,4 -171,4 -71,0 -134,-2 -171,-4l-3 0c38,2 102,4 174,4 73,0 137,-2 174,-4l-3 0z"/>
   <path fill="#AEABA7" d="M827 698c-37,2 -101,4 -174,4 -72,0 -136,-2 -174,-4l-3 0c38,2 103,4 177,4 74,0 140,-2 177,-4l-3 0z"/>
   <path fill="#AEABA7" d="M830 698c-37,2 -103,4 -177,4 -74,0 -139,-2 -177,-4l-3 0c38,2 105,4 180,4 76,0 142,-2 181,-4l-4 0zm38 -5c0,0 0,0 0,0l0 0 0 0z"/>
   <path fill="#AEABA7" d="M868 693c0,0 0,0 0,0l0 1c1,0 2,-1 2,-1l-2 0zm-34 5c-39,2 -105,4 -181,4 -75,0 -142,-2 -180,-4l-3 0c39,2 106,4 183,4 77,0 145,-2 184,-4l-3 0z"/>
   <path fill="#AEABA7" d="M870 693c0,0 -1,1 -2,1l0 1c3,-1 5,-1 5,-2l-3 0zm-33 5c-39,2 -107,4 -184,4 -77,0 -144,-2 -183,-4l-3 0c39,3 108,4 186,4 79,0 148,-1 187,-4l-3 0z"/>
   <path fill="#AEABA7" d="M873 693c0,1 -2,1 -5,2l0 0c5,0 7,-1 7,-2l-2 0zm-33 5c-39,3 -108,4 -187,4 -78,0 -147,-1 -186,-4l-3 0c39,3 109,4 189,4 80,0 150,-1 190,-4l-3 0z"/>
   <path fill="#AEABA7" d="M875 693c0,1 -2,2 -7,2l0 1c6,-1 10,-2 10,-3l-3 0zm-32 5c-40,3 -110,4 -190,4 -80,0 -150,-1 -189,-4l-3 0c39,3 111,5 192,5 82,0 153,-2 193,-5l-3 0z"/>
   <path fill="#AEABA7" d="M878 693c0,1 -4,2 -10,3l0 0c8,-1 12,-2 12,-3l-2 0zm-32 5c-40,3 -111,5 -193,5 -81,0 -153,-2 -192,-5l-3 0c40,3 112,5 195,5 83,0 156,-2 196,-5l-3 0z"/>
   <path fill="#AEABA7" d="M880 693c0,1 -4,2 -12,3l0 0c10,-1 15,-2 15,-3l-3 0zm-31 5c-40,3 -113,5 -196,5 -83,0 -155,-2 -195,-5l-3 0c40,3 114,5 198,5 85,0 159,-2 198,-5l-2 0z"/>
   <g>
    <path fill="#AEABA7" d="M883 693c0,1 -5,2 -15,3l0 1c11,-1 18,-3 18,-4l-3 0zm-32 5c-39,3 -113,5 -198,5 -84,0 -158,-2 -198,-5l-3 0c40,3 115,5 201,5 86,0 161,-2 201,-5l-3 0zm-428 -5l-2 0 2 0 0 1c-1,0 -2,-1 -2,-1l2 0z"/>
   </g>
   <path fill="#AEABA7" d="M886 693c0,1 -7,3 -18,4l0 0c13,-1 20,-3 20,-4l-2 0zm-32 5c-40,3 -115,5 -201,5 -86,0 -161,-2 -201,-5l-3 0c41,3 117,5 204,5 88,0 164,-2 204,-5l-3 0zm-431 -4c-1,0 -2,-1 -2,-1l-2 0c0,1 1,1 4,2l0 -1z"/>
   <path fill="#AEABA7" d="M888 693c0,1 -7,3 -20,4l0 0c14,-1 23,-2 23,-4l-3 0zm-31 5c-40,3 -116,5 -204,5 -87,0 -163,-2 -204,-5l-3 0c41,3 118,5 207,5 89,0 167,-2 207,-5l-3 0zm-434 -3c-3,-1 -4,-1 -4,-2l-3 0c0,1 3,2 7,2l0 0z"/>
   <path fill="#AEAAA7" d="M891 693c0,2 -9,3 -23,4l0 1c16,-2 25,-3 25,-5l-2 0zm-31 5c-40,3 -118,5 -207,5 -89,0 -166,-2 -207,-5l-3 0c41,3 120,5 210,5 91,0 169,-2 210,-5l-3 0zm-437 -3c-4,0 -7,-1 -7,-2l-3 0c0,1 4,2 10,3l0 -1z"/>
   <path fill="#AEAAA7" d="M893 693c0,2 -9,3 -25,5l0 0c18,-2 28,-3 28,-5l-3 0zm-30 5c-41,3 -119,5 -210,5 -90,0 -169,-2 -210,-5l-3 0c42,3 121,5 213,5 92,0 172,-2 213,-5l-3 0zm-440 -2c-6,-1 -10,-2 -10,-3l-2 0c0,1 4,2 12,3l0 0z"/>
   <path fill="#AEAAA7" d="M896 693c0,2 -10,3 -28,5l0 0 -2 0c-41,3 -121,5 -213,5 -92,0 -171,-2 -213,-5l-2 0c41,3 122,5 215,5 136,0 245,-4 245,-10l-2 0zm-473 3c-8,-1 -12,-2 -12,-3l-3 0c0,1 6,2 15,4l0 -1z"/>
   <path fill="#AEAAA7" d="M898 693c0,6 -109,10 -245,10 -93,0 -174,-2 -215,-5l-3 0c41,3 124,5 218,5 137,0 248,-4 248,-10l-3 0zm-475 4c-9,-2 -15,-3 -15,-4l-2 0c0,1 6,3 17,4l0 0z"/>
   <path fill="#AEAAA7" d="M901 693c0,6 -111,10 -248,10 -94,0 -177,-2 -218,-5l-3 0c42,3 125,6 221,6 138,0 250,-5 250,-11l-2 0zm-478 4c-11,-1 -17,-3 -17,-4l-3 0c0,1 7,3 20,4l0 0z"/>
   <path fill="#AEAAA7" d="M903 693c0,6 -112,11 -250,11 -96,0 -179,-3 -221,-6l-3 0c42,3 127,6 224,6 140,0 253,-5 253,-11l-3 0zm-480 4c-13,-1 -20,-3 -20,-4l-2 0c0,2 8,3 22,4l0 0z"/>
   <path fill="#AEAAA7" d="M906 693c0,6 -113,11 -253,11 -97,0 -182,-3 -224,-6l-3 0c42,3 128,6 227,6 141,0 255,-5 255,-11l-2 0zm-483 4c-14,-1 -22,-2 -22,-4l-3 0c0,2 9,3 25,5l0 -1z"/>
   <path fill="#AEAAA7" d="M908 693c0,6 -114,11 -255,11 -99,0 -185,-3 -227,-6l-3 0 0 0c-16,-2 -25,-3 -25,-5l-2 0c0,6 115,11 257,11 143,0 258,-5 258,-11l-3 0z"/>
   <path fill="#AEAAA5" d="M911 693c0,6 -115,11 -258,11 -142,0 -257,-5 -257,-11l-3 0c0,6 117,11 260,11 144,0 261,-5 261,-11l-3 0z"/>
   <path fill="#AEAAA5" d="M914 693c0,6 -117,11 -261,11 -143,0 -260,-5 -260,-11l-3 0c0,6 118,11 263,11 145,0 263,-5 263,-11l-2 0z"/>
   <path fill="#AEAAA5" d="M916 693c0,6 -118,11 -263,11 -145,0 -263,-5 -263,-11l-2 0c0,6 119,11 265,11 147,0 266,-5 266,-11l-3 0z"/>
   <path fill="#AEAAA5" d="M919 693c0,6 -119,11 -266,11 -146,0 -265,-5 -265,-11l-3 0c0,6 120,11 268,11 148,0 268,-5 268,-11l-2 0z"/>
   <path fill="#AEAAA5" d="M921 693c0,6 -120,11 -268,11 -148,0 -268,-5 -268,-11l-2 0c0,6 121,11 270,11 150,0 271,-5 271,-11l-3 0z"/>
   <path fill="#AEAAA5" d="M924 693c0,6 -121,11 -271,11 -149,0 -270,-5 -270,-11l-3 0c0,6 123,12 273,12 151,0 273,-6 273,-12l-2 0z"/>
   <path fill="#AEAAA5" d="M926 693c0,6 -122,12 -273,12 -150,0 -273,-6 -273,-12l-2 0c0,6 123,12 275,12 153,0 276,-6 276,-12l-3 0z"/>
   <path fill="#AEAAA5" d="M929 693c0,6 -123,12 -276,12 -152,0 -275,-6 -275,-12l-3 0c0,6 125,12 278,12 154,0 278,-6 278,-12l-2 0z"/>
   <path fill="#AEAAA5" d="M931 693c0,6 -124,12 -278,12 -153,0 -278,-6 -278,-12l-2 0c0,7 125,12 280,12 140,0 255,-4 277,-10l2 -2 -1 0z"/>
   <path fill="#AEAAA5" d="M930 695c-22,6 -137,10 -277,10 -155,0 -280,-5 -280,-12l-3 0c0,7 127,12 283,12 136,0 250,-4 277,-10l0 0 0 0z"/>
   <path fill="#AEAAA5" d="M930 695c-27,6 -141,10 -277,10 -156,0 -283,-5 -283,-12l-3 0c0,7 128,12 286,12 138,0 253,-4 280,-10l-3 0z"/>
   <path fill="#AEAAA5" d="M933 695c-27,6 -142,10 -280,10 -158,0 -286,-5 -286,-12l-2 0c0,7 129,12 288,12 139,0 255,-4 283,-10l-3 0z"/>
   <path fill="#AEAAA5" d="M936 695c-28,6 -144,10 -283,10 -159,0 -288,-5 -288,-12l-3 0c0,7 131,12 291,12 141,0 258,-4 285,-10l-2 0z"/>
   <g>
    <path fill="#AEAAA5" d="M938 695c-27,6 -144,10 -285,10 -160,0 -291,-5 -291,-12l-1 0 2 2c21,6 143,10 290,10 142,0 260,-4 288,-10l-3 0zm-577 -2l1 0 -1 0z"/>
   </g>
   <path fill="#AEAAA5" d="M941 695c-28,6 -146,10 -288,10 -147,0 -269,-4 -290,-10l1 0 -1 0c28,6 147,11 290,11 144,0 263,-5 290,-11l-2 0z"/>
   <path fill="#AEAAA5" d="M943 695c-27,6 -146,11 -290,11 -143,0 -262,-5 -290,-11l-2 0c27,6 148,11 292,11 145,0 266,-5 293,-11l-3 0z"/>
   <path fill="#AEAAA5" d="M946 695c-27,6 -148,11 -293,11 -144,0 -265,-5 -292,-11l-3 0c27,6 149,11 295,11 146,0 268,-5 296,-11l-3 0z"/>
   <path fill="#AEAAA5" d="M949 695c-28,6 -150,11 -296,11 -146,0 -268,-5 -295,-11l-3 0c28,6 151,11 298,11 148,0 271,-5 298,-11l-2 0z"/>
   <path fill="#AEAAA5" d="M951 695c-27,6 -150,11 -298,11 -147,0 -270,-5 -298,-11l-2 0c27,6 151,11 300,11 149,0 273,-5 301,-11l-3 0z"/>
   <path fill="#AEAAA5" d="M954 695c-28,6 -152,11 -301,11 -149,0 -273,-5 -300,-11l-3 0c28,7 153,11 303,11 151,0 276,-4 303,-11l-2 0z"/>
   <path fill="#AEAAA5" d="M956 695c-27,7 -152,11 -303,11 -150,0 -275,-4 -303,-11l-2 0c27,7 154,11 305,11 152,0 278,-4 306,-11l-3 0z"/>
   <path fill="#AEAAA5" d="M959 695c-28,7 -154,11 -306,11 -151,0 -278,-4 -305,-11l-3 0c28,7 155,11 308,11 153,0 281,-4 309,-11l-3 0z"/>
   <path fill="#AEAAA5" d="M962 695c-28,7 -156,11 -309,11 -153,0 -280,-4 -308,-11l-3 0c28,7 157,11 311,11 155,0 284,-4 311,-11l-2 0z"/>
   <path fill="#AEAAA5" d="M964 695c-27,7 -156,11 -311,11 -154,0 -283,-4 -311,-11l-2 0c28,7 157,12 313,12 156,0 286,-5 314,-12l-3 0z"/>
   <path fill="#AEAAA5" d="M967 695c-28,7 -158,12 -314,12 -156,0 -285,-5 -313,-12l-3 0c28,7 159,12 316,12 158,0 289,-5 316,-12l-2 0z"/>
   <path fill="#AEABA5" d="M969 695c-27,7 -158,12 -316,12 -157,0 -288,-5 -316,-12l-2 0c27,7 160,12 318,12 159,0 291,-5 319,-12l-3 0z"/>
   <path fill="#AEABA7" d="M972 695c-28,7 -160,12 -319,12 -158,0 -291,-5 -318,-12l-3 0c28,7 161,12 321,12 161,0 294,-5 322,-12l-3 0z"/>
   <path fill="#B0ACA7" d="M975 695c-28,7 -161,12 -322,12 -160,0 -293,-5 -321,-12l-3 0c28,7 163,12 324,12 162,0 296,-5 324,-12l-2 0z"/>
   <path fill="#B0ACA7" d="M977 695c-28,7 -162,12 -324,12 -161,0 -296,-5 -324,-12l-2 0c28,7 163,12 326,12 163,0 299,-5 327,-12l-3 0z"/>
   <path fill="#B0AEA8" d="M980 695c-28,7 -164,12 -327,12 -163,0 -298,-5 -326,-12l-3 0c28,7 165,12 329,12 165,0 301,-5 329,-12l-2 0z"/>
   <path fill="#B2AFA8" d="M982 695c-28,7 -164,12 -329,12 -164,0 -301,-5 -329,-12l-2 0c28,7 165,12 331,12 166,0 304,-5 332,-12l-3 0z"/>
   <path fill="#B2AFAA" d="M985 695c-28,7 -166,12 -332,12 -166,0 -303,-5 -331,-12l-3 0c28,7 167,12 334,12 168,0 307,-5 335,-12l-3 0z"/>
   <path fill="#B2B1AB" d="M988 695c-28,7 -167,12 -335,12 -167,0 -306,-5 -334,-12l-3 0c28,7 169,12 337,12 169,0 309,-5 337,-12l-2 0z"/>
   <path fill="#B5B2AD" d="M990 695c-28,7 -168,12 -337,12 -168,0 -309,-5 -337,-12l-2 0c28,7 169,13 339,13 170,0 312,-6 340,-13l-3 0z"/>
   <path fill="#B5B3AD" d="M993 695c-28,7 -170,13 -340,13 -170,0 -311,-6 -339,-13l-3 0c28,7 171,13 342,13 172,0 314,-6 342,-13l-2 0z"/>
   <path fill="#B5B3AD" d="M995 695c-28,7 -170,13 -342,13 -171,0 -314,-6 -342,-13l-2 0c28,7 171,13 344,13 173,0 317,-6 345,-13l-3 0z"/>
   <path fill="#B6B4AF" d="M998 695c-28,7 -172,13 -345,13 -173,0 -316,-6 -344,-13l-3 0c28,8 173,13 347,13 175,0 319,-5 348,-13l-3 0z"/>
   <path fill="#B6B4AF" d="M1001 695c-29,8 -173,13 -348,13 -174,0 -319,-5 -347,-13l-2 0c28,8 174,13 349,13 176,0 322,-5 350,-13l-2 0z"/>
   <path fill="#B9B6B0" d="M1003 695c-28,8 -174,13 -350,13 -175,0 -321,-5 -349,-13l-3 0c28,8 175,13 352,13 177,0 325,-5 353,-13l-3 0z"/>
   <path fill="#B9B6B2" d="M1006 695c-28,8 -176,13 -353,13 -177,0 -324,-5 -352,-13l-3 0c29,8 177,13 355,13 179,0 327,-5 355,-13l-2 0z"/>
   <path fill="#B9B6B2" d="M1008 695c-28,8 -176,13 -355,13 -178,0 -326,-5 -355,-13l-2 0c28,8 177,13 357,13 180,0 330,-5 358,-13l-3 0z"/>
   <path fill="#B9B8B3" d="M1011 695c-28,8 -178,13 -358,13 -180,0 -329,-5 -357,-13l-3 0c28,8 179,13 360,13 182,0 332,-5 360,-13l-2 0z"/>
   <path fill="#BAB8B5" d="M1013 695c-28,8 -178,13 -360,13 -181,0 -332,-5 -360,-13l-2 0c28,8 179,14 362,14 183,0 335,-6 363,-14l-3 0z"/>
   <path fill="#BAB8B5" d="M1016 695c-28,8 -180,14 -363,14 -183,0 -334,-6 -362,-14l-3 0c28,8 181,14 365,14 185,0 337,-6 366,-14l-3 0z"/>
   <path fill="#BDB9B5" d="M1019 695c-29,8 -181,14 -366,14 -184,0 -337,-6 -365,-14l-3 0c29,8 183,14 368,14 186,0 340,-6 368,-14l-2 0z"/>
   <path fill="#BDBBB7" d="M1021 695c-28,8 -182,14 -368,14 -185,0 -339,-6 -368,-14l-2 0c28,8 183,14 370,14 187,0 342,-6 371,-14l-3 0z"/>
   <path fill="#BDBBB7" d="M1024 695c-29,8 -184,14 -371,14 -187,0 -342,-6 -370,-14l-3 0c29,8 185,14 373,14 189,0 345,-6 373,-14l-2 0z"/>
   <path fill="#BDBBB7" d="M1026 695c-28,8 -184,14 -373,14 -188,0 -344,-6 -373,-14l-2 0c28,8 185,14 375,14 190,0 348,-6 376,-14l-3 0z"/>
   <path fill="#BFBCB9" d="M1029 695c-28,8 -186,14 -376,14 -190,0 -347,-6 -375,-14l-3 0c28,8 187,14 378,14 192,0 350,-6 379,-14l-3 0z"/>
   <path fill="#BFBCB9" d="M1032 695c-29,8 -187,14 -379,14 -191,0 -350,-6 -378,-14l-3 0c29,8 189,14 381,14 193,0 353,-6 381,-14l-2 0z"/>
   <path fill="#BFBCB9" d="M1034 695c-28,8 -188,14 -381,14 -192,0 -352,-6 -381,-14l-2 0c28,8 189,14 383,14 194,0 355,-6 384,-14l-3 0z"/>
   <path fill="#C1BEBA" d="M1037 695c-29,8 -190,14 -384,14 -194,0 -355,-6 -383,-14l-3 0c29,8 191,15 386,15 196,0 358,-7 386,-15l-2 0z"/>
   <path fill="#C1BEBB" d="M1039 695c-28,8 -190,15 -386,15 -195,0 -357,-7 -386,-15l-2 0c28,9 191,15 388,15 197,0 360,-6 389,-15l-1 0 -2 0z"/>
   <path fill="#C1C0BC" d="M1042 695c-29,9 -192,15 -389,15 -197,0 -360,-6 -388,-15l-3 0c29,9 193,15 391,15 200,0 364,-6 392,-15 -1,0 -2,0 -3,0z"/>
   <path fill="#C1C0BC" d="M1045 695c-28,9 -192,15 -392,15 -198,0 -362,-6 -391,-15l-2 0c28,9 194,15 393,15 204,0 371,-7 395,-15 -1,0 -2,0 -3,0z"/>
   <path fill="#C4C1BE" d="M1048 695c-24,8 -191,15 -395,15 -199,0 -365,-6 -393,-15l-3 0c29,9 195,15 396,15 210,0 382,-7 400,-16 -2,1 -3,1 -5,1z"/>
   <path fill="#C4C1BE" d="M1053 694c-18,9 -190,16 -400,16 -201,0 -367,-6 -396,-15l-3 0c29,9 197,15 399,15 218,0 396,-7 403,-16 0,0 0,0 -1,0 -1,0 -2,0 -2,0z"/>
   <path fill="#C6C3BF" d="M1056 694c-7,9 -185,16 -403,16 -202,0 -370,-6 -399,-15l-2 0 0 0c28,9 197,15 401,15 224,0 406,-8 406,-17 0,0 0,0 0,0 -1,0 -2,0 -3,1z"/>
   <path fill="#C6C3BF" d="M1059 693c0,0 0,0 0,0 0,9 -182,17 -406,17 -204,0 -373,-6 -401,-15 -1,0 -2,0 -3,0 28,9 198,15 404,15 226,0 409,-7 409,-17 0,0 -1,-1 -1,-1 -1,0 -1,1 -2,1z"/>
   <path fill="#C5C3C0" d="M1061 692c0,0 1,1 1,1 0,10 -183,17 -409,17 -206,0 -376,-6 -404,-15 -1,0 -2,0 -3,0 25,9 198,15 407,15 227,0 411,-7 411,-17 0,-1 0,-1 -1,-2 -1,1 -1,1 -2,1z"/>
   <path fill="#C5C3C0" d="M1063 691c1,1 1,1 1,2 0,10 -184,17 -411,17 -209,0 -382,-6 -407,-15 -2,0 -3,0 -4,0 18,8 195,16 411,16 229,0 414,-8 414,-18 0,-1 -1,-1 -3,-2 0,0 -1,0 -1,0z"/>
   <path fill="#C8C6C1" d="M1064 691c2,1 3,1 3,2 0,10 -185,18 -414,18 -216,0 -393,-8 -411,-16 -2,-1 -3,-1 -4,-1l0 0c9,9 191,17 415,17 230,0 416,-8 416,-18 0,-1 -1,-2 -4,-3 0,1 -1,1 -1,1z"/>
   <path fill="#C8C6C3" d="M1065 690c3,1 4,2 4,3 0,10 -186,18 -416,18 -224,0 -406,-8 -415,-17 -1,-1 -2,-1 -3,-1l0 0c0,10 187,18 418,18 231,0 419,-8 419,-18 0,-1 -2,-2 -6,-3 0,0 -1,0 -1,0zm-830 3c0,0 0,0 0,0l0 0 0 0z"/>
   <path fill="#CAC6C3" d="M235 693c0,0 0,0 0,0 -1,0 -2,-1 -2,-1 -1,0 -1,1 -1,1l3 0zm831 -3c4,1 6,2 6,3 0,10 -188,18 -419,18 -231,0 -418,-8 -418,-18l-3 0c0,10 189,18 421,18 233,0 421,-8 421,-18 0,-1 -2,-2 -7,-3 0,0 -1,0 -1,0z"/>
   <path fill="#CAC6C3" d="M232 693c0,0 0,-1 1,-1 -1,0 -1,0 -2,0 -1,0 -1,0 -1,1l2 0zm835 -3c5,1 7,2 7,3 0,10 -188,18 -421,18 -232,0 -421,-8 -421,-18l-2 0c0,10 189,18 423,18 234,0 424,-8 424,-18 0,-1 -3,-3 -9,-4l-1 1z"/>
   <path fill="#CAC8C4" d="M230 693c0,-1 0,-1 1,-1 0,-1 -1,-1 -1,-1 -2,1 -3,1 -3,2l3 0zm838 -4c6,1 9,3 9,4 0,10 -190,18 -424,18 -234,0 -423,-8 -423,-18l-3 0c0,10 191,18 426,18 236,0 426,-8 426,-18 0,-1 -3,-3 -11,-4l0 0z"/>
   <path fill="#CCC9C4" d="M227 693c0,-1 1,-1 3,-2 -1,0 -1,0 -2,0 -2,0 -3,1 -3,2l2 0zm841 -4c8,1 11,3 11,4 0,10 -190,18 -426,18 -235,0 -426,-8 -426,-18l-2 0c0,10 192,18 428,18 237,0 429,-8 429,-18 0,-2 -4,-3 -13,-4l-1 0z"/>
   <path fill="#CCCAC6" d="M225 693c0,-1 1,-2 3,-2 0,-1 0,-1 -1,-1 -3,1 -5,2 -5,3l3 0zm844 -4c9,1 13,2 13,4 0,10 -192,18 -429,18 -236,0 -428,-8 -428,-18l-3 0c0,10 193,18 431,18 238,0 432,-8 432,-18 0,-2 -6,-3 -15,-5l-1 1z"/>
   <path fill="#CCCAC6" d="M222 693c0,-1 2,-2 5,-3l0 0c-5,1 -8,2 -8,3l3 0zm848 -5c9,2 15,3 15,5 0,10 -194,18 -432,18 -238,0 -431,-8 -431,-18l-3 0c0,10 195,18 434,18 240,0 434,-8 434,-18 0,-2 -6,-4 -17,-5l0 0z"/>
   <path fill="#CCCAC8" d="M219 693c0,-1 3,-2 8,-3l-1 -1c-6,1 -9,3 -9,4l2 0zm851 -5c11,1 17,3 17,5 0,10 -194,18 -434,18 -239,0 -434,-8 -434,-18l-2 0c0,10 195,19 436,19 241,0 437,-9 437,-19 0,-2 -7,-4 -19,-5l-1 0z"/>
   <path fill="#CCCAC8" d="M217 693c0,-1 3,-3 9,-4l-1 0c-7,1 -11,3 -11,4l3 0zm854 -5c12,1 19,3 19,5 0,10 -196,19 -437,19 -241,0 -436,-9 -436,-19l-3 0c0,10 197,19 439,19 243,0 439,-9 439,-19 0,-2 -7,-4 -21,-6l0 1z"/>
   <path fill="#CECBC8" d="M214 693c0,-1 4,-3 11,-4l-1 0c-8,1 -12,2 -12,4l2 0zm857 -6c14,2 21,4 21,6 0,10 -196,19 -439,19 -242,0 -439,-9 -439,-19l-2 0c0,10 197,19 441,19 244,0 442,-9 442,-19 0,-2 -8,-4 -23,-6l-1 0z"/>
   <path fill="#CECBC8" d="M212 693c0,-2 4,-3 12,-4l0 -1c-10,2 -15,3 -15,5l3 0zm860 -6c15,2 23,4 23,6 0,10 -198,19 -442,19 -244,0 -441,-9 -441,-19l-3 0c0,10 199,19 444,19 246,0 444,-9 444,-19 0,-2 -9,-4 -25,-6l0 0z"/>
   <path fill="#D0CECA" d="M209 693c0,-2 5,-3 15,-5l-1 0c-11,1 -16,3 -16,5l2 0zm863 -6c16,2 25,4 25,6 0,10 -198,19 -444,19 -245,0 -444,-9 -444,-19l-2 0c0,10 200,19 446,19 247,0 447,-9 447,-19 0,-2 -10,-5 -27,-7l-1 1z"/>
   <path fill="#D0CECC" d="M207 693c0,-2 5,-4 16,-5l0 0c-12,1 -19,3 -19,5l3 0zm866 -7c17,2 27,5 27,7 0,10 -200,19 -447,19 -246,0 -446,-9 -446,-19l-3 0c0,11 201,19 449,19 248,0 449,-8 449,-19 0,-2 -10,-5 -29,-7l0 0z"/>
   <path fill="#D0CECC" d="M204 693c0,-2 7,-4 19,-5l-1 -1c-13,2 -20,4 -20,6l2 0zm869 -7c19,2 29,5 29,7 0,11 -201,19 -449,19 -248,0 -449,-8 -449,-19l-2 0c0,11 202,19 451,19 250,0 452,-8 452,-19 0,-3 -11,-5 -32,-7l0 0z"/>
   <path fill="#D0CFCE" d="M202 693c0,-2 7,-4 20,-6l0 0c-15,2 -23,4 -23,6l3 0zm871 -7c21,2 32,4 32,7 0,11 -202,19 -452,19 -249,0 -451,-8 -451,-19l-3 0c0,11 203,19 454,19 251,0 455,-8 455,-19 0,-3 -12,-5 -34,-7l-1 0z"/>
   <path fill="#D2D0CE" d="M199 693c0,-2 8,-4 23,-6l-1 0c-16,2 -24,4 -24,6l2 0zm875 -7c22,2 34,4 34,7 0,11 -204,19 -455,19 -251,0 -454,-8 -454,-19l-2 0c0,11 204,19 456,19 253,0 457,-8 457,-19 0,-3 -13,-5 -36,-8l0 1z"/>
   <path fill="#D2D0CE" d="M197 693c0,-2 8,-4 24,-6l0 -1c-18,2 -27,5 -27,7l3 0zm877 -8c23,3 36,5 36,8 0,11 -204,19 -457,19 -252,0 -456,-8 -456,-19l-3 0c0,11 206,19 459,19 254,0 460,-8 460,-19 0,-3 -14,-5 -39,-8l0 0z"/>
   <path fill="#D4D1CE" d="M194 693c0,-2 9,-5 27,-7l-1 0c-18,2 -29,5 -29,7l3 0zm880 -8c25,3 39,5 39,8 0,11 -206,19 -460,19 -253,0 -459,-8 -459,-19l-3 0c0,11 207,20 462,20 255,0 462,-9 462,-20 0,-3 -14,-6 -40,-8l-1 0z"/>
   <path fill="#D4D3D1" d="M191 693c0,-2 11,-5 29,-7l0 0c-20,2 -31,4 -31,7l2 0zm884 -8c26,2 40,5 40,8 0,11 -207,20 -462,20 -255,0 -462,-9 -462,-20l-2 0c0,11 208,20 464,20 257,0 465,-9 465,-20 0,-3 -16,-6 -43,-8l0 0z"/>
   <path fill="#D4D3D1" d="M189 693c0,-3 11,-5 31,-7l0 0c-22,2 -34,4 -34,7l3 0zm886 -8c27,2 43,5 43,8 0,11 -208,20 -465,20 -256,0 -464,-9 -464,-20l-3 0c0,11 209,20 467,20 258,0 467,-9 467,-20 0,-3 -16,-6 -45,-9l0 1z"/>
   <path fill="#D4D3D1" d="M186 693c0,-3 12,-5 34,-7l-1 -1c-23,3 -35,5 -35,8l2 0zm889 -9c29,3 45,6 45,9 0,11 -209,20 -467,20 -258,0 -467,-9 -467,-20l-2 0c0,11 210,20 469,20 260,0 470,-9 470,-20 0,-3 -17,-6 -47,-9l-1 0z"/>
   <path fill="#D6D4D2" d="M184 693c0,-3 12,-5 35,-8l0 0c-24,3 -38,5 -38,8l3 0zm892 -9c30,3 47,6 47,9 0,11 -210,20 -470,20 -259,0 -469,-9 -469,-20l-3 0c0,11 212,20 472,20 261,0 472,-9 472,-20 0,-3 -17,-6 -49,-9l0 0z"/>
   <path fill="#D7D5D3" d="M181 693c0,-3 14,-5 38,-8l-1 0c-25,2 -39,5 -39,8l2 0zm895 -9c32,3 49,6 49,9 0,11 -211,20 -472,20 -260,0 -472,-9 -472,-20l-2 0c0,11 212,20 474,20 262,0 475,-9 475,-20 0,-3 -19,-6 -52,-9l0 0z"/>
   <path fill="#D8D6D3" d="M179 693c0,-3 14,-6 39,-8l0 0c-27,2 -42,5 -42,8l3 0zm897 -9c33,3 52,6 52,9 0,11 -213,20 -475,20 -262,0 -474,-9 -474,-20l-3 0c0,11 214,20 477,20 264,0 478,-9 478,-20 0,-3 -20,-7 -54,-9l-1 0z"/>
   <path fill="#D8D8D6" d="M176 693c0,-3 15,-6 42,-8l0 -1c-29,3 -44,6 -44,9l2 0zm901 -9c34,2 54,6 54,9 0,11 -214,20 -478,20 -263,0 -477,-9 -477,-20l-2 0c0,11 214,20 479,20 265,0 480,-9 480,-20 0,-3 -20,-7 -56,-10l0 1z"/>
   <path fill="#D8D8D6" d="M174 693c0,-3 15,-6 44,-9l-1 0c-29,3 -46,6 -46,9l3 0zm903 -10c36,3 56,7 56,10 0,11 -215,20 -480,20 -265,0 -479,-9 -479,-20l-3 0c0,11 216,20 482,20 267,0 483,-9 483,-20 0,-4 -22,-7 -59,-10l0 0z"/>
   <path fill="#DBD9D6" d="M171 693c0,-3 17,-6 46,-9l0 0c-31,3 -49,6 -49,9l3 0zm906 -10c37,3 59,6 59,10 0,11 -216,20 -483,20 -266,0 -482,-9 -482,-20l-3 0c0,11 218,21 485,21 268,0 485,-10 485,-21 0,-4 -22,-7 -61,-10l0 0z"/>
   <path fill="#DBD9D6" d="M168 693c0,-3 18,-6 49,-9l0 0c-33,3 -51,6 -51,9l2 0zm909 -10c39,3 61,6 61,10 0,11 -217,21 -485,21 -267,0 -485,-10 -485,-21l-2 0c0,11 218,21 487,21 269,0 488,-10 488,-21 0,-4 -23,-7 -63,-10l-1 0z"/>
   <path fill="#DBD9D8" d="M166 693c0,-3 18,-6 51,-9l0 0c-34,2 -54,6 -54,9l3 0zm912 -10c40,3 63,6 63,10 0,11 -219,21 -488,21 -269,0 -487,-10 -487,-21l-3 0c0,11 220,21 490,21 271,0 490,-10 490,-21 0,-4 -23,-7 -65,-10l0 0z"/>
   <path fill="#DCDBD9" d="M163 693c0,-3 20,-7 54,-9l-1 -1c-35,3 -55,6 -55,10l2 0zm915 -10c42,3 65,6 65,10 0,11 -219,21 -490,21 -270,0 -490,-10 -490,-21l-2 0c0,12 220,21 492,21 272,0 493,-9 493,-21 0,-4 -25,-8 -68,-11l0 1z"/>
   <path fill="#DCDBD9" d="M161 693c0,-4 20,-7 55,-10l0 0c-37,3 -58,6 -58,10l3 0zm917 -11c43,3 68,7 68,11 0,12 -221,21 -493,21 -272,0 -492,-9 -492,-21l-3 0c0,12 222,21 495,21 274,0 495,-9 495,-21 0,-4 -25,-8 -70,-11l0 0z"/>
   <path fill="#DCDBD9" d="M158 693c0,-4 21,-7 58,-10l0 0c-39,3 -60,6 -60,10l2 0zm920 -11c45,3 70,7 70,11 0,12 -221,21 -495,21 -273,0 -495,-9 -495,-21l-2 0c0,12 222,21 497,21 275,0 498,-9 498,-21 0,-4 -26,-8 -72,-11l-1 0z"/>
   <path fill="#DCDBDB" d="M156 693c0,-4 21,-7 60,-10l0 0c-40,3 -63,6 -63,10l3 0zm923 -11c46,3 72,7 72,11 0,12 -223,21 -498,21 -275,0 -497,-9 -497,-21l-3 0c0,12 224,21 500,21 277,0 500,-9 500,-21 0,-4 -27,-8 -74,-11l0 0z"/>
   <path fill="#DCDDDC" d="M153 693c0,-4 23,-7 63,-10l-1 -1c-41,4 -64,7 -64,11l2 0zm926 -11c47,3 74,7 74,11 0,12 -223,21 -500,21 -276,0 -500,-9 -500,-21l-2 0c0,12 225,21 502,21 278,0 503,-9 503,-21 0,-4 -28,-8 -77,-11l0 0z"/>
   <path fill="#DFDEDC" d="M151 693c0,-4 23,-7 64,-11l0 0c-43,3 -67,7 -67,11l3 0zm928 -11c49,3 77,7 77,11 0,12 -225,21 -503,21 -277,0 -502,-9 -502,-21l-3 0c0,12 226,21 505,21 279,0 506,-9 506,-21 0,-4 -29,-8 -80,-12l0 1z"/>
   <path fill="#DFDEDC" d="M148 693c0,-4 24,-8 67,-11l0 0c-44,3 -70,7 -70,11l3 0zm931 -12c51,4 80,8 80,12 0,12 -227,21 -506,21 -279,0 -505,-9 -505,-21l-3 0c0,12 228,22 508,22 281,0 508,-10 508,-22 0,-4 -30,-8 -81,-12l-1 0z"/>
   <path fill="#DFDEDC" d="M145 693c0,-4 26,-8 70,-11l0 0c-46,3 -72,7 -72,11l2 0zm935 -12c51,4 81,8 81,12 0,12 -227,22 -508,22 -280,0 -508,-10 -508,-22l-2 0c0,12 228,22 510,22 282,0 511,-10 511,-22 0,-4 -31,-9 -84,-12l0 0z"/>
   <path fill="#E0DFDD" d="M143 693c0,-4 26,-8 72,-11l-1 0c-47,3 -74,7 -74,11l3 0zm937 -12c53,3 84,8 84,12 0,12 -229,22 -511,22 -282,0 -510,-10 -510,-22l-3 0c0,12 230,22 513,22 284,0 513,-10 513,-22 0,-5 -32,-9 -86,-12l0 0z"/>
   <path fill="#E0DFDD" d="M140 693c0,-4 27,-8 74,-11l0 0c-48,3 -76,7 -76,11l2 0zm940 -12c54,3 86,7 86,12 0,12 -229,22 -513,22 -283,0 -513,-10 -513,-22l-2 0c0,12 231,22 515,22 285,0 516,-10 516,-22 0,-5 -33,-9 -89,-12l0 0z"/>
   <path fill="#E3E1E0" d="M138 693c0,-4 28,-8 76,-11l0 -1c-50,4 -79,8 -79,12l3 0zm942 -12c56,3 89,7 89,12 0,12 -231,22 -516,22 -284,0 -515,-10 -515,-22l-3 0c0,12 232,22 518,22 286,0 518,-10 518,-22 0,-5 -33,-9 -91,-12l0 0z"/>
   <path fill="#E3E1E0" d="M135 693c0,-4 29,-8 79,-12l0 0c-52,4 -81,8 -81,12l2 0zm945 -12c58,3 91,7 91,12 0,12 -232,22 -518,22 -286,0 -518,-10 -518,-22l-2 0c0,12 233,22 520,22 288,0 521,-10 521,-22 0,-5 -35,-9 -93,-13l-1 1z"/>
   <path fill="#E3E3E1" d="M133 693c0,-4 29,-8 81,-12l-1 0c-52,3 -83,8 -83,12l3 0zm948 -13c58,4 93,8 93,13 0,12 -233,22 -521,22 -287,0 -520,-10 -520,-22l-3 0c0,12 234,22 523,22 289,0 523,-10 523,-22 0,-5 -35,-9 -95,-13l0 0z"/>
   <path fill="#E3E3E1" d="M130 693c0,-4 31,-9 83,-12l0 0c-54,3 -85,7 -85,12l2 0zm951 -13c60,4 95,8 95,13 0,12 -234,22 -523,22 -289,0 -523,-10 -523,-22l-2 0c0,12 235,22 525,22 291,0 526,-10 526,-22 0,-5 -36,-9 -98,-13l0 0z"/>
   <path fill="#E5E4E1" d="M128 693c0,-5 31,-9 85,-12l0 0c-56,3 -88,7 -88,12l3 0zm953 -13c62,4 98,8 98,13 0,12 -235,22 -526,22 -290,0 -525,-10 -525,-22l-3 0c0,12 237,22 528,22 292,0 529,-10 529,-22 0,-5 -38,-9 -101,-13l0 0z"/>
   <path fill="#E5E4E3" d="M125 693c0,-5 32,-9 88,-12l0 -1c-57,4 -90,8 -90,13l2 0zm956 -13c63,4 101,8 101,13 0,12 -237,22 -529,22 -291,0 -528,-10 -528,-22l-2 0c0,12 237,23 530,23 293,0 531,-11 531,-23 0,-5 -38,-10 -103,-13l0 0z"/>
   <path fill="#E5E4E3" d="M123 693c0,-5 33,-9 90,-13l0 0c-59,4 -93,8 -93,13l3 0zm958 -13c65,3 103,8 103,13 0,12 -238,23 -531,23 -293,0 -530,-11 -530,-23l-3 0c0,12 239,23 533,23 295,0 534,-11 534,-23 0,-5 -39,-10 -105,-14l-1 1z"/>
   <path fill="#E7E5E3" d="M120 693c0,-5 34,-9 93,-13l-1 0c-59,4 -95,8 -95,13l3 0zm962 -14c66,4 105,9 105,14 0,12 -239,23 -534,23 -294,0 -533,-11 -533,-23l-3 0c0,13 240,23 536,23 296,0 536,-10 536,-23 0,-5 -40,-10 -107,-14l0 0z"/>
   <path fill="#E7E7E6" d="M117 693c0,-5 36,-9 95,-13l0 0c-61,4 -97,8 -97,13l2 0zm965 -14c67,4 107,9 107,14 0,13 -240,23 -536,23 -296,0 -536,-10 -536,-23l-2 0c0,13 241,23 538,23 298,0 539,-10 539,-23 0,-5 -41,-10 -110,-14l0 0z"/>
   <path fill="#E7E7E6" d="M115 693c0,-5 36,-9 97,-13l0 0c-63,3 -100,8 -100,13l3 0zm967 -14c69,4 110,9 110,14 0,13 -241,23 -539,23 -297,0 -538,-10 -538,-23l-3 0c0,13 243,23 541,23 299,0 541,-10 541,-23 0,-5 -42,-10 -112,-14l0 0z"/>
   <path fill="#E7E8E7" d="M112 693c0,-5 37,-10 100,-13l0 0c-64,3 -102,8 -102,13l2 0zm970 -14c70,4 112,9 112,14 0,13 -242,23 -541,23 -298,0 -541,-10 -541,-23l-2 0c0,13 243,23 543,23 301,0 544,-10 544,-23 0,-5 -43,-10 -115,-14l0 0z"/>
   <path fill="#E9E9E7" d="M110 693c0,-5 38,-10 102,-13l0 -1c-66,4 -105,9 -105,14l3 0zm972 -14c72,4 115,9 115,14 0,13 -243,23 -544,23 -300,0 -543,-10 -543,-23l-3 0c0,13 245,23 546,23 302,0 546,-10 546,-23 0,-5 -43,-10 -117,-14l0 0z"/>
   <path fill="#E9E9E7" d="M107 693c0,-5 39,-10 105,-14l-1 0c-67,4 -106,9 -106,14l2 0zm975 -14c74,4 117,9 117,14 0,13 -244,23 -546,23 -301,0 -546,-10 -546,-23l-2 0c0,13 245,23 548,23 303,0 549,-10 549,-23 0,-6 -45,-11 -119,-15l-1 1z"/>
   <path fill="#E9E9E9" d="M105 693c0,-5 39,-10 106,-14l0 0c-68,4 -109,9 -109,14l3 0zm978 -15c74,4 119,9 119,15 0,13 -246,23 -549,23 -303,0 -548,-10 -548,-23l-3 0c0,13 247,23 551,23 305,0 552,-10 552,-23 0,-6 -46,-11 -122,-15l0 0z"/>
   <path fill="#E9E9E9" d="M102 693c0,-5 41,-10 109,-14l0 0c-70,4 -111,9 -111,14l2 0zm981 -15c76,4 122,9 122,15 0,13 -247,23 -552,23 -304,0 -551,-10 -551,-23l-2 0c0,13 247,23 553,23 306,0 554,-10 554,-23 0,-6 -46,-11 -124,-15l0 0z"/>
   <path fill="#EBEAE9" d="M100 693c0,-5 41,-10 111,-14l0 0c-72,4 -114,9 -114,14l3 0zm983 -15c78,4 124,9 124,15 0,13 -248,23 -554,23 -306,0 -553,-10 -553,-23l-3 0c0,13 249,24 556,24 308,0 557,-11 557,-24 0,-6 -48,-11 -127,-15l0 0z"/>
   <path fill="#EBEAEA" d="M97 693c0,-5 42,-10 114,-14l0 -1c-73,4 -117,10 -117,15l3 0zm986 -15c79,4 127,9 127,15 0,13 -249,24 -557,24 -307,0 -556,-11 -556,-24l-3 0c0,13 251,24 559,24 309,0 559,-11 559,-24 0,-6 -48,-11 -129,-15l0 0z"/>
   <path fill="#EBECEC" d="M94 693c0,-5 44,-11 117,-15l0 0c-75,4 -119,9 -119,15l2 0zm989 -15c81,4 129,9 129,15 0,13 -250,24 -559,24 -308,0 -559,-11 -559,-24l-2 0c0,13 251,24 561,24 310,0 562,-11 562,-24 0,-6 -50,-11 -132,-15l0 0z"/>
   <path fill="#EBECEC" d="M92 693c0,-6 44,-11 119,-15l-1 0c-75,4 -121,9 -121,15l3 0zm991 -15c82,4 132,9 132,15 0,13 -252,24 -562,24 -310,0 -561,-11 -561,-24l-3 0c0,13 253,24 564,24 312,0 564,-11 564,-24 0,-6 -50,-11 -133,-16l-1 1z"/>
   <path fill="#EEEDEC" d="M89 693c0,-6 46,-11 121,-15l0 0c-77,4 -123,9 -123,15l2 0zm995 -16c83,5 133,10 133,16 0,13 -252,24 -564,24 -311,0 -564,-11 -564,-24l-2 0c0,13 253,24 566,24 313,0 567,-11 567,-24 0,-6 -51,-11 -136,-16l0 0z"/>
   <path fill="#EEEDEC" d="M87 693c0,-6 46,-11 123,-15l0 0c-79,4 -126,9 -126,15l3 0zm997 -16c85,5 136,10 136,16 0,13 -254,24 -567,24 -313,0 -566,-11 -566,-24l-3 0c0,13 255,24 569,24 315,0 569,-11 569,-24 0,-6 -52,-12 -138,-16l0 0z"/>
   <path fill="#EFEFEF" d="M84 693c0,-6 47,-11 126,-15l0 0c-80,4 -128,9 -128,15l2 0zm1000 -16c86,4 138,10 138,16 0,13 -254,24 -569,24 -314,0 -569,-11 -569,-24l-2 0c0,13 256,24 571,24 316,0 572,-11 572,-24 0,-6 -53,-12 -141,-16l0 0z"/>
   <path fill="#EFEFEF" d="M82 693c0,-6 48,-11 128,-15l0 -1c-82,5 -131,10 -131,16l3 0zm1002 -16c88,4 141,10 141,16 0,13 -256,24 -572,24 -315,0 -571,-11 -571,-24l-3 0c0,13 257,24 574,24 317,0 574,-11 574,-24 0,-6 -54,-12 -143,-16l0 0z"/>
   <path fill="#EFEFEF" d="M79 693c0,-6 49,-11 131,-16l0 0c-83,5 -133,10 -133,16l2 0zm1005 -16c89,4 143,10 143,16 0,13 -257,24 -574,24 -317,0 -574,-11 -574,-24l-2 0c0,13 258,24 576,24 319,0 577,-11 577,-24 0,-6 -55,-12 -146,-16l0 0z"/>
   <path fill="#EFEFF0" d="M77 693c0,-6 50,-11 133,-16l-1 0c-84,4 -135,10 -135,16l3 0zm1007 -16c91,4 146,10 146,16 0,13 -258,24 -577,24 -318,0 -576,-11 -576,-24l-3 0c0,14 259,25 579,25 320,0 580,-11 580,-25 0,-6 -56,-12 -149,-16l0 0z"/>
   <path fill="#EFF1F1" d="M74 693c0,-6 51,-12 135,-16l0 0c-86,4 -138,10 -138,16l3 0zm1010 -16c93,4 149,10 149,16 0,14 -260,25 -580,25 -320,0 -579,-11 -579,-25l-3 0c0,14 261,25 582,25 322,0 582,-11 582,-25 0,-6 -57,-12 -150,-17l-1 1z"/>
   <path fill="#F2F2F1" d="M71 693c0,-6 52,-12 138,-16l0 0c-87,4 -140,10 -140,16l2 0zm1014 -17c93,5 150,11 150,17 0,14 -260,25 -582,25 -321,0 -582,-11 -582,-25l-2 0c0,14 262,25 584,25 323,0 585,-11 585,-25 0,-6 -58,-12 -153,-17l0 0z"/>
   <path fill="#F2F2F1" d="M69 693c0,-6 53,-12 140,-16l0 0c-89,4 -143,10 -143,16l3 0zm1016 -17c95,5 153,11 153,17 0,14 -262,25 -585,25 -322,0 -584,-11 -584,-25l-3 0c0,14 263,25 587,25 324,0 587,-11 587,-25 0,-7 -59,-12 -155,-17l0 0z"/>
   <path fill="#F3F3F3" d="M66 693c0,-6 54,-12 143,-16l0 0c-90,4 -145,10 -145,16l2 0zm1019 -17c96,5 155,10 155,17 0,14 -263,25 -587,25 -324,0 -587,-11 -587,-25l-2 0c0,14 264,25 589,25 326,0 590,-11 590,-25 0,-7 -60,-13 -158,-17l0 0z"/>
   <path fill="#F3F3F3" d="M64 693c0,-6 55,-12 145,-16l0 -1c-92,5 -148,11 -148,17l3 0zm1021 -17c98,4 158,10 158,17 0,14 -264,25 -590,25 -325,0 -589,-11 -589,-25l-3 0c0,14 265,25 592,25 327,0 592,-11 592,-25 0,-7 -60,-13 -160,-17l0 0z"/>
   <path fill="#F3F3F3" d="M61 693c0,-6 56,-12 148,-17l0 0c-94,5 -150,11 -150,17l2 0zm1024 -17c100,4 160,10 160,17 0,14 -265,25 -592,25 -327,0 -592,-11 -592,-25l-2 0c0,14 266,25 594,25 329,0 595,-11 595,-25 0,-7 -62,-13 -163,-17l0 0z"/>
   <path fill="#F4F4F4" d="M59 693c0,-6 56,-12 150,-17l-1 0c-94,5 -152,10 -152,17l3 0zm1026 -17c101,4 163,10 163,17 0,14 -266,25 -595,25 -328,0 -594,-11 -594,-25l-3 0c0,14 268,25 597,25 330,0 597,-11 597,-25 0,-7 -62,-13 -165,-18l0 1z"/>
   <path fill="#F6F5F4" d="M56 693c0,-7 58,-12 152,-17l0 0c-96,4 -154,10 -154,17l2 0zm1029 -18c103,5 165,11 165,18 0,14 -267,25 -597,25 -329,0 -597,-11 -597,-25l-2 0c0,14 268,25 599,25 332,0 600,-11 600,-25 0,-7 -64,-13 -167,-18l-1 0z"/>
   <path fill="#F6F5F4" d="M54 693c0,-7 58,-13 154,-17l0 0c-97,4 -157,10 -157,17l3 0zm1032 -18c103,5 167,11 167,18 0,14 -268,25 -600,25 -331,0 -599,-11 -599,-25l-3 0c0,14 270,26 602,26 333,0 603,-12 603,-26 0,-7 -65,-13 -170,-18l0 0z"/>
   <path fill="#F6F5F6" d="M51 693c0,-7 60,-13 157,-17l0 0c-99,4 -160,10 -160,17l3 0zm1035 -18c105,5 170,11 170,18 0,14 -270,26 -603,26 -332,0 -602,-12 -602,-26l-3 0c0,14 271,26 605,26 334,0 605,-12 605,-26 0,-7 -66,-13 -172,-18l0 0z"/>
   <path fill="#F6F5F6" d="M48 693c0,-7 61,-13 160,-17l0 -1c-101,5 -162,11 -162,18l2 0zm1038 -18c106,5 172,11 172,18 0,14 -271,26 -605,26 -334,0 -605,-12 -605,-26l-2 0c0,14 272,26 607,26 336,0 608,-12 608,-26 0,-7 -67,-13 -175,-18l0 0z"/>
   <path fill="#F6F8F9" d="M46 693c0,-7 61,-13 162,-18l0 0c-102,5 -165,11 -165,18l3 0zm1040 -18c108,5 175,11 175,18 0,14 -272,26 -608,26 -335,0 -607,-12 -607,-26l-3 0c0,14 273,26 610,26 337,0 610,-12 610,-26 0,-7 -67,-14 -177,-18l0 0z"/>
   <path fill="#F6F8F9" d="M43 693c0,-7 63,-13 165,-18l0 0c-104,5 -167,11 -167,18l2 0zm1043 -18c110,4 177,11 177,18 0,14 -273,26 -610,26 -337,0 -610,-12 -610,-26l-2 0c0,14 274,26 612,26 339,0 613,-12 613,-26 0,-7 -69,-14 -180,-18l0 0z"/>
   <path fill="#F8F8F9" d="M41 693c0,-7 63,-13 167,-18l-1 0c-104,5 -169,11 -169,18l3 0zm1045 -18c111,4 180,11 180,18 0,14 -274,26 -613,26 -338,0 -612,-12 -612,-26l-3 0c0,14 276,26 615,26 340,0 615,-12 615,-26 0,-7 -69,-14 -182,-19l0 1z"/>
   <path fill="#F8F8F9" d="M38 693c0,-7 65,-13 169,-18l0 0c-106,5 -171,11 -171,18l2 0zm1048 -19c113,5 182,12 182,19 0,14 -275,26 -615,26 -339,0 -615,-12 -615,-26l-2 0c0,14 276,26 617,26 341,0 618,-12 618,-26 0,-7 -71,-14 -185,-19l0 0z"/>
   <path fill="#FAF9F9" d="M36 693c0,-7 65,-13 171,-18l0 0c-108,4 -174,11 -174,18l3 0zm1050 -19c114,5 185,12 185,19 0,14 -277,26 -618,26 -341,0 -617,-12 -617,-26l-3 0c0,15 278,26 620,26 343,0 620,-11 620,-26 0,-7 -71,-14 -186,-19l-1 0z"/>
   <path fill="#FAF9F9" d="M33 693c0,-7 66,-14 174,-18l0 0c-109,4 -176,11 -176,18l2 0zm1054 -19c115,5 186,12 186,19 0,15 -277,26 -620,26 -342,0 -620,-11 -620,-26l-2 0c0,15 278,26 622,26 344,0 623,-11 623,-26 0,-7 -73,-14 -189,-19l0 0z"/>
   <path fill="#FAFBFB" d="M31 693c0,-7 67,-14 176,-18l0 -1c-111,5 -179,12 -179,19l3 0zm1056 -19c116,5 189,12 189,19 0,15 -279,26 -623,26 -344,0 -622,-11 -622,-26l-3 0c0,15 280,27 625,27 346,0 626,-12 626,-27 0,-8 -74,-14 -192,-19l0 0z"/>
   <path fill="#FAFBFB" d="M28 693c0,-7 68,-14 179,-19l0 0c-112,5 -181,12 -181,19l2 0zm1059 -19c118,5 192,11 192,19 0,15 -280,27 -626,27 -345,0 -625,-12 -625,-27l-2 0c0,15 281,27 627,27 347,0 628,-12 628,-27 0,-8 -74,-14 -194,-19l0 0z"/>
   <path fill="#FAFBFB" d="M26 693c0,-7 69,-14 181,-19l0 0c-114,5 -184,12 -184,19l3 0zm1061 -19c120,5 194,11 194,19 0,15 -281,27 -628,27 -346,0 -627,-12 -627,-27l-3 0c0,15 282,27 630,27 348,0 631,-12 631,-27 0,-8 -76,-15 -197,-19l0 0z"/>
   <path fill="#FAFBFB" d="M23 693c0,-7 70,-14 184,-19l0 0c-115,5 -187,12 -187,19l3 0zm1064 -19c121,4 197,11 197,19 0,15 -283,27 -631,27 -348,0 -630,-12 -630,-27l-3 0c0,15 284,27 633,27 350,0 633,-12 633,-27 0,-8 -76,-15 -199,-20l0 1z"/>
   <path fill="#FCFDFE" d="M20 693c0,-7 72,-14 187,-19l-1 0c-116,5 -188,11 -188,19l2 0zm1067 -20c123,5 199,12 199,20 0,15 -283,27 -633,27 -349,0 -633,-12 -633,-27l-2 0c0,15 284,27 635,27 351,0 636,-12 636,-27 0,-8 -78,-15 -202,-20l0 0z"/>
   <path fill="#FCFDFE" d="M18 693c0,-8 72,-14 188,-19l0 0c-118,5 -191,11 -191,19l3 0zm1069 -20c124,5 202,12 202,20 0,15 -285,27 -636,27 -351,0 -635,-12 -635,-27l-3 0c0,15 286,27 638,27 353,0 638,-12 638,-27 0,-8 -78,-15 -204,-20l0 0z"/>
   <path fill="#FCFDFE" d="M15 693c0,-8 73,-14 191,-19l0 -1c-119,5 -193,12 -193,20l2 0zm1072 -20c126,5 204,12 204,20 0,15 -285,27 -638,27 -352,0 -638,-12 -638,-27l-2 0c0,15 287,27 640,27 354,0 641,-12 641,-27 0,-8 -80,-15 -206,-20l-1 0z"/>
   <path fill="#FEFEFE" d="M13 693c0,-8 74,-15 193,-20l0 0c-121,5 -196,12 -196,20l3 0zm1075 -20c126,5 206,12 206,20 0,15 -287,27 -641,27 -353,0 -640,-12 -640,-27l-3 0c0,15 288,27 643,27 355,0 643,-12 643,-27 0,-8 -80,-15 -208,-20l0 0z"/>
   <path fill="#FEFEFE" d="M10 693c0,-8 75,-15 196,-20l0 0c-122,5 -198,12 -198,20l2 0zm1078 -20c128,5 208,12 208,20 0,15 -288,27 -643,27 -355,0 -643,-12 -643,-27l-2 0c0,15 289,27 645,27 357,0 646,-12 646,-27 0,-8 -81,-15 -211,-20l0 0z"/>
   <path fill="#FEFEFE" d="M8 693c0,-8 76,-15 198,-20l0 0c-124,5 -201,12 -201,20l3 0zm1080 -20c130,5 211,12 211,20 0,15 -289,27 -646,27 -356,0 -645,-12 -645,-27l-3 0c0,15 290,27 648,27 358,0 648,-12 648,-27 0,-8 -82,-15 -213,-20l0 0z"/>
   <path fill="#FEFEFE" d="M5 693c0,-8 77,-15 201,-20l0 0c-125,5 -203,12 -203,20l2 0zm1083 -20c131,5 213,12 213,20 0,15 -290,27 -648,27 -358,0 -648,-12 -648,-27l-2 0c0,15 291,28 650,28 360,0 651,-13 651,-28 0,-8 -83,-16 -216,-21l0 1z"/>
   <path fill="#FEFEFE" d="M3 693c0,-8 78,-15 203,-20l0 0 -3 0 -1 0c-124,5 -202,12 -202,20l3 0zm1085 -21c133,5 216,13 216,21 0,15 -291,28 -651,28 -359,0 -650,-13 -650,-28l-3 0c0,1 2,2 5,4 1,0 2,0 3,0l0 0c0,0 1,1 2,1l0 0c1,0 2,0 3,1l0 0c1,0 3,0 4,0l0 0c1,0 2,1 4,1l0 0c1,0 2,0 4,1l0 0c1,0 3,0 4,0l0 0c2,0 4,1 5,1l0 0c2,0 4,0 6,1l0 0c1,0 3,0 5,0l0 0c2,0 4,1 6,1l0 0c2,0 5,0 7,0l0 0c2,1 4,1 6,1l0 0c3,0 5,0 7,1l0 0c3,0 5,0 8,0l0 0c2,0 5,1 8,1l0 0c2,0 5,0 8,0l0 0c2,1 5,1 8,1l0 0c3,0 6,0 9,0l0 0c3,1 5,1 9,1l0 0c3,0 6,0 9,1l0 0c3,0 6,0 9,0l0 0c4,0 7,0 10,1l0 0c4,0 7,0 10,0l0 0c4,0 7,0 11,1l0 0c3,0 7,0 10,0l0 0c4,0 8,0 11,1l0 0c4,0 8,0 12,0l0 0c3,0 7,0 11,1l0 0c4,0 8,0 12,0l0 0c4,0 8,0 12,0l0 0c4,1 8,1 12,1l0 0c4,0 8,0 12,0l0 0c5,0 9,0 13,1l0 0c4,0 9,0 13,0l0 0 13 0 0 0c5,0 9,1 14,1l0 0c4,0 9,0 13,0l0 0c5,0 9,0 14,0l0 0c5,0 9,1 14,1l0 0c5,0 9,0 14,0l0 0c5,0 10,0 14,0l0 0c5,0 10,0 15,1l0 0c5,0 10,0 15,0l0 0c5,0 10,0 15,0l0 0c5,0 10,0 15,0l0 0 15 0 0 0 15 1 0 0c6,0 11,0 16,0l0 0c5,0 10,0 16,0l0 0 16 0 0 0c5,0 10,0 16,0l0 0c5,0 10,0 16,0l0 0c5,0 11,0 16,0l0 0 17 1 0 0c5,0 11,0 16,0l0 0c6,0 11,0 17,0 5,0 11,0 16,0 6,0 12,0 17,0 6,0 12,0 17,0l17 0c5,0 11,0 17,0l0 0c5,0 11,0 16,0l0 0c6,0 11,0 17,-1l0 0c5,0 10,0 16,0l0 0c5,0 11,0 16,0l0 0 16 0 0 0 16 0 0 0 16 0 0 0c5,0 10,0 15,0l0 0c5,0 10,0 16,-1l0 0 15 0 0 0 15 0 0 0c5,0 10,0 15,0l0 0 15 0 0 0c4,-1 9,-1 14,-1l0 0c5,0 10,0 15,0l0 0c4,0 9,0 14,0l0 0c4,0 9,-1 14,-1l0 0c4,0 9,0 13,0l0 0c5,0 10,0 14,0l0 0c5,0 9,-1 13,-1l0 0 14 0 0 0c4,0 8,0 12,0l0 0 13 -1 0 0c4,0 9,0 13,0l0 0 12 -1 0 0c4,0 8,0 12,0l0 0c4,0 8,0 12,0l0 0c3,-1 7,-1 11,-1l0 0c4,0 8,0 11,0l0 0c4,-1 8,-1 11,-1l0 0c4,0 7,0 11,0l0 0c3,-1 7,-1 10,-1l0 0c4,0 7,0 10,0l0 0c4,-1 7,-1 10,-1l0 0c3,0 7,0 10,0l0 0c3,-1 6,-1 9,-1l0 0c3,0 6,0 9,-1l0 0c3,0 6,0 9,0l0 0c3,0 5,0 8,-1l0 0c3,0 5,0 8,0l0 0c3,0 5,-1 8,-1l0 0c2,0 5,0 7,0l0 0c3,-1 5,-1 7,-1l0 0c2,0 5,0 7,-1l0 0c2,0 4,0 6,0l0 0c2,0 4,-1 6,-1l0 0c4,0 8,-1 11,-1l0 0c4,-1 7,-1 10,-1l0 0c1,-1 3,-1 4,-1l0 0c1,0 3,-1 4,-1l0 0c1,0 2,0 3,0l0 0c1,-1 2,-1 3,-1l0 0c1,0 2,-1 3,-1l0 0c1,0 2,0 2,0l0 0c1,-1 2,-1 2,-1 2,-1 4,-2 4,-3 0,-1 -1,-1 -1,-1l0 0c-1,-1 -1,-1 -1,-1l0 0c-14,-8 -95,-14 -217,-19l0 0z"/>
   <path fill="#FEFEFE" d="M0 693c0,1 2,2 5,4 -3,-2 -5,-3 -5,-4 0,-8 78,-15 202,-20 -124,5 -202,12 -202,20zm1303 3c2,-1 4,-2 4,-3 0,-1 -1,-1 -1,-1 0,0 1,0 1,1 0,1 -2,2 -4,3zm3 -4c-1,-1 -1,-1 -1,-1 0,0 0,0 1,1zm-1 -1c-14,-8 -95,-14 -217,-19l0 0c122,5 203,11 217,19zm-1099 -18l-3 0 3 0 0 0z"/>
   <path fill="#403A39" d="M493 80c0,0 14,0 16,-5 3,-6 13,-42 35,-61 17,-15 62,-14 88,-14 26,0 71,-1 88,14 22,19 32,55 35,61 2,5 16,5 16,5l1 15c-48,3 -29,-27 -62,-59 -8,-8 -16,-5 -38,-1 -7,2 -73,2 -80,0 -22,-4 -30,-7 -38,1 -33,32 -14,62 -62,59l1 -15z"/>
   <path fill="#4E4A4A" d="M468 73l21 0c5,0 10,4 10,10l0 17c0,5 -5,10 -10,10l-21 0c-6,0 -10,-5 -10,-10l0 -17c0,-6 4,-10 10,-10z"/>
   <path fill="#4E4A4A" d="M775 73l21 0c6,0 10,4 10,10l0 17c0,5 -4,10 -10,10l-21 0c-5,0 -10,-5 -10,-10l0 -17c0,-6 5,-10 10,-10z"/>
   <path fill="#E31E24" d="M259 97l773 0c35,0 64,29 64,64l0 467c0,36 -29,65 -64,65l-773 0c-35,0 -64,-29 -64,-65l0 -467c0,-35 29,-64 64,-64z"/>
   <path fill="#484544" d="M252 95l112 0 -171 176 0 -117c0,-33 27,-59 59,-59z"/>
   <path fill="#616060" d="M319 120c3,0 5,-2 5,-5 0,-3 -2,-6 -5,-6 -3,0 -6,3 -6,6 0,3 3,5 6,5z"/>
   <path fill="#616060" d="M211 235c3,0 5,-3 5,-5 0,-3 -2,-6 -5,-6 -3,0 -6,3 -6,6 0,2 3,5 6,5z"/>
   <path fill="#616060" d="M224 128c3,0 5,-2 5,-5 0,-3 -2,-5 -5,-5 -3,0 -5,2 -5,5 0,3 2,5 5,5z"/>
   <path fill="#484544" d="M252 695l112 0 -171 -175 0 117c0,32 27,58 59,58z"/>
   <path fill="#616060" d="M319 681c3,0 5,-3 5,-5 0,-3 -2,-6 -5,-6 -3,0 -6,3 -6,6 0,2 3,5 6,5z"/>
   <path fill="#616060" d="M211 566c3,0 5,-2 5,-5 0,-3 -2,-6 -5,-6 -3,0 -6,3 -6,6 0,3 3,5 6,5z"/>
   <path fill="#616060" d="M224 673c3,0 5,-3 5,-6 0,-3 -2,-5 -5,-5 -3,0 -5,2 -5,5 0,3 2,6 5,6z"/>
   <path fill="#484544" d="M1041 95l-111 0 170 176 0 -117c0,-33 -26,-59 -59,-59z"/>
   <path fill="#616060" d="M975 120c3,0 5,-2 5,-5 0,-3 -2,-6 -5,-6 -3,0 -6,3 -6,6 0,3 3,5 6,5z"/>
   <path fill="#616060" d="M1083 235c3,0 5,-3 5,-5 0,-3 -2,-6 -5,-6 -3,0 -6,3 -6,6 0,2 3,5 6,5z"/>
   <path fill="#616060" d="M1069 128c3,0 6,-2 6,-5 0,-3 -3,-5 -6,-5 -3,0 -5,2 -5,5 0,3 2,5 5,5z"/>
   <path fill="#484544" d="M1041 695l-111 0 170 -175 0 117c0,32 -26,58 -59,58z"/>
   <path fill="#616060" d="M975 681c3,0 5,-3 5,-5 0,-3 -2,-6 -5,-6 -3,0 -6,3 -6,6 0,2 3,5 6,5z"/>
   <path fill="#616060" d="M1083 566c3,0 5,-2 5,-5 0,-3 -2,-6 -5,-6 -3,0 -6,3 -6,6 0,3 3,5 6,5z"/>
   <path fill="#616060" d="M1069 673c3,0 6,-3 6,-6 0,-3 -3,-5 -6,-5 -3,0 -5,2 -5,5 0,3 2,6 5,6z"/>
   <polygon fill="#A1642F" points="434,697 479,697 479,91 434,91 "/>
   <path fill="#645F52" d="M423 91l67 0 0 80c0,11 -9,21 -21,21l-25 0c-11,0 -21,-10 -21,-21l0 -80z"/>
   <path fill="#9D9C9E" d="M456 176c4,0 7,-3 7,-7 0,-4 -3,-8 -7,-8 -4,0 -7,4 -7,8 0,4 3,7 7,7z"/>
   <path fill="#645F52" d="M423 698l67 0 0 -80c0,-11 -9,-21 -21,-21l-25 0c-11,0 -21,10 -21,21l0 80z"/>
   <path fill="#9D9C9E" d="M456 628c4,0 7,-3 7,-7 0,-4 -3,-8 -7,-8 -4,0 -7,4 -7,8 0,4 3,7 7,7z"/>
   <polygon fill="#A1642F" points="812,697 857,697 857,91 812,91 "/>
   <path fill="#645F52" d="M801 91l67 0 0 80c0,11 -10,21 -21,21l-25 0c-12,0 -21,-10 -21,-21l0 -80z"/>
   <path fill="#9D9C9E" d="M834 176c4,0 7,-3 7,-7 0,-4 -3,-8 -7,-8 -4,0 -7,4 -7,8 0,4 3,7 7,7z"/>
   <path fill="#645F52" d="M801 698l67 0 0 -80c0,-11 -10,-21 -21,-21l-25 0c-12,0 -21,10 -21,21l0 80z"/>
   <path fill="#9D9C9E" d="M834 628c4,0 7,-3 7,-7 0,-4 -3,-8 -7,-8 -4,0 -7,4 -7,8 0,4 3,7 7,7z"/>
   <polygon fill="#EEEDEE" fill-rule="nonzero" points="1096,524 1096,342 1096,524 1100,520 "/>
   <polygon fill="#A09F9D" fill-rule="nonzero" points="653,693 653,693 653,693 653,693 "/>
   <polygon fill="#A09F9D" points="653,693 656,693 "/>
   <polygon fill="#A09F9D" points="656,693 658,693 "/>
   <polygon fill="#A09F9D" points="658,693 661,693 "/>
   <polygon fill="#A09F9D" points="661,693 664,693 "/>
   <polygon fill="#A09F9D" points="664,693 666,693 "/>
   <polygon fill="#A09F9D" points="666,693 669,693 "/>
   <polygon fill="#A09F9D" points="669,693 671,693 "/>
   <polygon fill="#A09F9D" points="671,693 674,693 "/>
   <polygon fill="#A09F9D" points="674,693 676,693 "/>
   <polygon fill="#A09F9D" points="676,693 679,693 "/>
   <polygon fill="#A09F9D" points="679,693 681,693 "/>
   <polygon fill="#A09F9D" points="681,693 684,693 "/>
   <polygon fill="#A09F9C" points="684,693 686,693 "/>
   <polygon fill="#A09F9C" points="686,693 689,693 "/>
   <polygon fill="#A29F9C" points="689,693 692,693 "/>
   <polygon fill="#A29F9C" points="692,693 694,693 "/>
   <polygon fill="#A29F9C" points="694,693 697,693 "/>
   <polygon fill="#A29F9C" points="697,693 699,693 "/>
   <polygon fill="#A29F9C" points="699,693 702,693 "/>
   <polygon fill="#A29F9C" points="702,693 704,693 "/>
   <polygon fill="#A29F9C" points="704,693 707,693 "/>
   <polygon fill="#A29F9C" points="707,693 709,693 "/>
   <polygon fill="#A29F9C" points="709,693 712,693 "/>
   <polygon fill="#A29F9C" points="712,693 715,693 "/>
   <polygon fill="#A29F9C" points="715,693 717,693 "/>
   <polygon fill="#A29F9C" points="717,693 720,693 "/>
   <polygon fill="#A29F9C" points="720,693 722,693 "/>
   <polygon fill="#A29F9C" points="722,693 725,693 "/>
   <polygon fill="#A29F9C" points="725,693 727,693 "/>
   <polygon fill="#A29F9C" points="727,693 730,693 "/>
   <polygon fill="#A29F9C" points="730,693 732,693 "/>
   <polygon fill="#A29F9C" points="732,693 735,693 "/>
   <polygon fill="#A29F9C" points="735,693 738,693 "/>
   <polygon fill="#A29F9C" points="738,693 740,693 "/>
   <polygon fill="#A29F9C" points="740,693 743,693 "/>
   <polygon fill="#A29F9C" points="743,693 745,693 "/>
   <polygon fill="#A29F9C" points="745,693 748,693 "/>
   <polygon fill="#A29F9C" points="748,693 750,693 "/>
   <polygon fill="#A29F9A" points="750,693 753,693 "/>
   <polygon fill="#A29F9A" points="753,693 755,693 "/>
   <polygon fill="#A29F9A" points="755,693 758,693 "/>
   <polygon fill="#A29F9A" points="758,693 760,693 "/>
   <polygon fill="#A09E9A" points="760,693 763,693 "/>
   <polygon fill="#A09E9A" points="763,693 766,693 "/>
   <polygon fill="#A09E9A" points="766,693 768,693 "/>
   <polygon fill="#A09E9A" points="768,693 771,693 "/>
   <polygon fill="#A09E9A" points="771,693 773,693 "/>
   <polygon fill="#A09D99" points="773,693 776,693 "/>
   <polygon fill="#A09D99" points="776,693 778,693 "/>
   <polygon fill="#A09D99" points="778,693 781,693 "/>
   <polygon fill="#A09D99" points="781,693 783,693 "/>
   <polygon fill="#A09D99" points="783,693 786,693 "/>
   <polygon fill="#A09D99" points="786,693 789,693 "/>
   <polygon fill="#A09D99" points="789,693 791,693 "/>
   <polygon fill="#A09D99" points="791,693 794,693 "/>
   <polygon fill="#A09D99" points="794,693 796,693 "/>
   <polygon fill="#A09D99" points="796,693 799,693 "/>
   <polygon fill="#9F9C98" points="799,693 801,693 801,693 "/>
   <polygon fill="#9F9C98" points="490,693 490,693 490,694 490,693 "/>
   <polygon fill="#9F9C98" points="490,695 490,694 "/>
   <polygon fill="#9F9C98" points="490,695 490,695 "/>
   <polygon fill="#9F9E99" points="490,695 490,695 "/>
   <polygon fill="#9F9E99" points="490,696 490,695 "/>
   <polygon fill="#9F9E99" points="490,696 490,696 "/>
   <polygon fill="#9F9E99" points="490,696 490,696 "/>
   <polygon fill="#9F9E99" points="490,697 490,696 "/>
   <polygon fill="#9F9E99" points="490,697 490,697 "/>
   <path fill="#9F9E99" d="M802 698l-1 0 1 0zm-312 -1l0 0 0 0z"/>
   <path fill="#9F9E99" d="M805 698l-3 0 3 0zm-315 -1l0 0 0 0z"/>
   <path fill="#9F9E99" d="M809 698l-4 0 4 0zm-319 -1l0 0 0 0z"/>
   <path fill="#9F9E99" d="M812 698l-3 0 3 0zm-322 0l0 -1 0 1z"/>
   <path fill="#9F9E99" d="M815 698l-3 0 3 0zm-325 0l0 0 0 0z"/>
   <path fill="#9F9E99" d="M818 698l-3 0 3 0zm-328 0l-1 0 1 0 0 0 0 0 0 0z"/>
   <path fill="#9F9E99" d="M821 698l-3 0 3 0zm-332 0l-4 0 4 0z"/>
   <path fill="#9F9E99" d="M824 698l-3 0 3 0zm-339 0l-3 0 3 0z"/>
   <path fill="#9F9E99" d="M827 698l-3 0 3 0zm-345 0l-3 0 3 0z"/>
   <path fill="#9F9E99" d="M830 698l-3 0 3 0zm-351 0l-3 0 3 0z"/>
   <path fill="#9F9E99" d="M834 698l-4 0 4 0zm34 -5l0 0 0 0 0 0 0 0zm-392 5l-3 0 3 0z"/>
   <path fill="#9F9E99" d="M837 698l-3 0 3 0zm31 -4l0 -1 0 1zm0 -1l2 0 -2 0zm-395 5l-3 0 3 0z"/>
   <path fill="#9F9E99" d="M840 698l-3 0 3 0zm28 -3l0 -1 0 1zm2 -2l3 0 -3 0zm-400 5l-3 0 3 0z"/>
   <path fill="#9F9E99" d="M843 698l-3 0 3 0zm25 -3l0 0 0 0zm5 -2l2 0 -2 0zm-406 5l-3 0 3 0z"/>
   <path fill="#9F9E99" d="M846 698l-3 0 3 0zm22 -2l0 -1 0 1zm7 -3l3 0 -3 0zm-411 5l-3 0 3 0z"/>
   <path fill="#9F9E99" d="M849 698l-3 0 3 0zm19 -2l0 0 0 0zm10 -3l2 0 -2 0zm-417 5l-3 0 3 0z"/>
   <path fill="#9F9E99" d="M851 698l-2 0 2 0zm17 -2l0 0 0 0zm12 -3l3 0 -3 0zm-422 5l-3 0 3 0z"/>
   <path fill="#9F9E99" d="M423 693l-2 0 2 0 0 1 0 -1zm431 5l-3 0 3 0zm14 -1l0 -1 0 1zm15 -4l3 0 -3 0zm-428 5l-3 0 3 0z"/>
   <path fill="#9F9E99" d="M857 698l-3 0 3 0zm11 -1l0 0 0 0zm18 -4l2 0 -2 0zm-434 5l-3 0 3 0zm-29 -3l0 -1 0 1z"/>
   <path fill="#9F9E99" d="M860 698l-3 0 3 0zm8 -1l0 0 0 0zm20 -4l3 0 -3 0zm-439 5l-3 0 3 0zm-26 -3l0 0 0 0z"/>
   <path fill="#9F9E99" d="M863 698l-3 0 3 0zm5 0l0 -1 0 1zm23 -5l2 0 -2 0zm-445 5l-3 0 3 0zm-23 -2l0 -1 0 1z"/>
   <path fill="#9F9E99" d="M866 698l-3 0 3 0zm2 0l0 0 0 0zm25 -5l3 0 -3 0zm-450 5l-3 0 3 0zm-20 -2l0 0 0 0z"/>
   <path fill="#9F9E99" d="M868 698l-2 0 2 0 0 0 0 0zm28 -5l2 0 -2 0zm-456 5l-2 0 2 0zm-17 -1l0 -1 0 1z"/>
   <path fill="#9F9E99" d="M898 693l3 0 -3 0zm-460 5l-3 0 3 0zm-15 -1l0 0 0 0z"/>
   <path fill="#9F9E99" d="M901 693l2 0 -2 0zm-466 5l-3 0 3 0zm-12 -1l0 0 0 0z"/>
   <path fill="#9F9E99" d="M903 693l3 0 -3 0zm-471 5l-3 0 3 0zm-9 -1l0 0 0 0z"/>
   <path fill="#9F9E99" d="M906 693l2 0 -2 0zm-477 5l-3 0 3 0zm-6 0l0 -1 0 1z"/>
   <path fill="#9F9E98" d="M908 693l3 0 -3 0zm-482 5l-3 0 0 0 0 0 3 0z"/>
   <polygon fill="#9F9E98" points="911,693 914,693 "/>
   <polygon fill="#9F9C97" points="914,693 916,693 "/>
   <polygon fill="#9F9C98" points="916,693 919,693 "/>
   <polygon fill="#9F9C98" points="919,693 921,693 "/>
   <polygon fill="#9F9C98" points="921,693 924,693 "/>
   <polygon fill="#9F9C98" points="924,693 926,693 "/>
   <polygon fill="#9F9C98" points="926,693 929,693 "/>
   <polygon fill="#9F9C98" points="929,693 931,693 "/>
   <polygon fill="#9F9C98" points="931,693 932,693 932,693 "/>
   <path fill="#AE3029" fill-rule="nonzero" d="M932 693l-64 0 0 -75c0,-8 -5,-15 -11,-18l0 -105c97,-37 180,-90 239,-153l0 182 -164 169zm-131 0l-311 0 0 -75c0,-8 -4,-15 -11,-18l0 -47c15,1 30,1 45,1 103,0 200,-15 288,-43l0 89c-7,3 -11,10 -11,18l0 75zm-378 0l-62 0 -166 -172 0 -24c72,27 153,46 239,53l0 50c-6,3 -11,10 -11,18l0 75z"/>
   <path fill="#434140" fill-rule="nonzero" d="M364 695l-112 0c-5,0 -9,0 -14,-1 -26,-7 -45,-30 -45,-57l0 -117 2 1 166 172 0 0 3 2zm-45 -25c-3,0 -6,3 -6,6 0,2 3,5 6,5 3,0 5,-3 5,-5 0,-3 -2,-6 -5,-6zm-95 -8c-3,0 -5,2 -5,5 0,3 2,6 5,6 3,0 5,-3 5,-6 0,-3 -2,-5 -5,-5zm-13 -107c-3,0 -6,3 -6,6 0,3 3,5 6,5 3,0 5,-2 5,-5 0,-3 -2,-6 -5,-6z"/>
   <path fill="#5A5959" fill-rule="nonzero" d="M319 681c-3,0 -6,-3 -6,-5 0,-3 3,-6 6,-6 3,0 5,3 5,6 0,2 -2,5 -5,5z"/>
   <path fill="#5A5959" fill-rule="nonzero" d="M211 566c-3,0 -6,-2 -6,-5 0,-3 3,-6 6,-6 3,0 5,3 5,6 0,3 -2,5 -5,5z"/>
   <path fill="#5A5959" fill-rule="nonzero" d="M224 673c-3,0 -5,-3 -5,-6 0,-3 2,-5 5,-5 3,0 5,2 5,5 0,3 -2,6 -5,6z"/>
   <path fill="#434140" fill-rule="nonzero" d="M1041 695l-111 0 2 -2 0 0 164 -169 4 -4 0 117c0,27 -19,50 -45,57 -4,1 -9,1 -14,1zm-66 -25c-3,0 -6,3 -6,6 0,2 3,5 6,5 3,0 5,-3 5,-5 0,-3 -2,-6 -5,-6zm94 -8c-3,0 -5,2 -5,5 0,3 2,6 5,6 3,0 6,-3 6,-6 0,-3 -3,-5 -6,-5zm14 -107c-3,0 -6,3 -6,6 0,3 3,5 6,5 3,0 5,-2 5,-5 0,-3 -2,-6 -5,-6z"/>
   <path fill="#5A5959" fill-rule="nonzero" d="M975 681c-3,0 -6,-3 -6,-5 0,-3 3,-6 6,-6 3,0 5,3 5,6 0,2 -2,5 -5,5z"/>
   <path fill="#5A5959" fill-rule="nonzero" d="M1083 566c-3,0 -6,-2 -6,-5 0,-3 3,-6 6,-6 3,0 5,3 5,6 0,3 -2,5 -5,5z"/>
   <path fill="#5A5959" fill-rule="nonzero" d="M1069 673c-3,0 -5,-3 -5,-6 0,-3 2,-5 5,-5 3,0 6,2 6,5 0,3 -3,6 -6,6z"/>
   <path fill="#935C2F" fill-rule="nonzero" d="M434 600l0 -50c15,2 30,3 45,3l0 47c-3,-2 -6,-3 -10,-3l-25 0c-4,0 -7,1 -10,3z"/>
   <path fill="#5C584B" fill-rule="nonzero" d="M490 698l-67 0 0 -80c0,-8 5,-15 11,-18 3,-2 6,-3 10,-3l25 0c4,0 7,1 10,3 7,3 11,10 11,18l0 80zm-34 -85c-4,0 -7,4 -7,8 0,4 3,7 7,7 4,0 7,-3 7,-7 0,-4 -3,-8 -7,-8z"/>
   <path fill="#8D8B8D" fill-rule="nonzero" d="M456 628c-4,0 -7,-3 -7,-7 0,-4 3,-8 7,-8 4,0 7,4 7,8 0,4 -3,7 -7,7z"/>
   <path fill="#935C2F" fill-rule="nonzero" d="M812 600l0 -89c15,-5 30,-10 45,-16l0 105c-3,-2 -7,-3 -10,-3l-25 0c-4,0 -7,1 -10,3z"/>
   <path fill="#5C584B" fill-rule="nonzero" d="M868 698l-67 0 0 -80c0,-8 4,-15 11,-18 3,-2 6,-3 10,-3l25 0c3,0 7,1 10,3 6,3 11,10 11,18l0 80zm-34 -85c-4,0 -7,4 -7,8 0,4 3,7 7,7 4,0 7,-3 7,-7 0,-4 -3,-8 -7,-8z"/>
   <path fill="#8D8B8D" fill-rule="nonzero" d="M834 628c-4,0 -7,-3 -7,-7 0,-4 3,-8 7,-8 4,0 7,4 7,8 0,4 -3,7 -7,7z"/>
  </g>
 </g>
</svg>
