<svg height="133pt" viewBox="0 0 184 133" width="184pt" xmlns="http://www.w3.org/2000/svg" xmlns:xlink="http://www.w3.org/1999/xlink"><linearGradient id="a" gradientTransform="matrix(.11727 0 0 .11794 0 .04)" gradientUnits="userSpaceOnUse" x1="1199.59" x2="1199.59" y1="1056.83" y2="743.97"><stop offset="0" stop-color="#f5ad27"/><stop offset=".47" stop-color="#f5ad27"/><stop offset=".68" stop-color="#e29613"/><stop offset="1" stop-color="#d08000"/></linearGradient><linearGradient id="b" gradientTransform="matrix(.11727 0 0 .11794 0 .04)" gradientUnits="userSpaceOnUse" x1="1388.84" x2="1388.84" y1="1056.83" y2="743.97"><stop offset="0" stop-color="#ebf0f2"/><stop offset=".47" stop-color="#d8e1e6"/><stop offset=".68" stop-color="#bdc7cd"/><stop offset="1" stop-color="#a1acb3"/></linearGradient><linearGradient id="c" gradientTransform="matrix(.11727 0 0 .11794 0 .04)" gradientUnits="userSpaceOnUse" x1="1388.84" x2="1388.84" y1="1056.83" y2="743.97"><stop offset="0" stop-color="#818989"/><stop offset=".47" stop-color="#788284"/><stop offset=".68" stop-color="#6b7678"/><stop offset="1" stop-color="#5e696c"/></linearGradient><linearGradient id="d"><stop offset="0" stop-color="#fdffff"/><stop offset=".79" stop-color="#e3e8ec"/><stop offset="1" stop-color="#cad1d9"/></linearGradient><radialGradient id="e" cx="1288.47" cy="900.39" gradientTransform="matrix(.11727 0 0 -.11794 0 212.45)" gradientUnits="userSpaceOnUse" r="6.85" xlink:href="#d"/><radialGradient id="f" cx="1388.84" cy="900.39" gradientTransform="matrix(.11726 0 0 -.11794 0 212.45)" gradientUnits="userSpaceOnUse" r="6.85" xlink:href="#d"/><linearGradient id="g" gradientTransform="matrix(.11727 0 0 .11794 0 .04)" gradientUnits="userSpaceOnUse" x1="847.96" x2="979.65" y1="251.34" y2="95.22"><stop offset="0" stop-color="#c7422a"/><stop offset=".63" stop-color="#d9752a"/><stop offset="1" stop-color="#eca82a"/></linearGradient><linearGradient id="h"><stop offset="0" stop-color="#2b3535"/><stop offset=".56" stop-color="#313c3d"/><stop offset="1" stop-color="#384446"/></linearGradient><linearGradient id="i" gradientTransform="matrix(.11727 0 0 .11794 0 .04)" gradientUnits="userSpaceOnUse" x1="563.63" x2="563.63" xlink:href="#h" y1="1085.8" y2="41.45"/><linearGradient id="j" gradientTransform="matrix(.11727 0 0 .11794 0 .04)" gradientUnits="userSpaceOnUse" x1="563.63" x2="563.63" y1="834.56" y2="292.72"><stop offset="0" stop-color="#4e5b62"/><stop offset=".44" stop-color="#414c50"/><stop offset="1" stop-color="#343d3e"/></linearGradient><linearGradient id="k" gradientTransform="matrix(.11727 0 0 .11794 0 .04)" gradientUnits="userSpaceOnUse" x1="563.63" x2="563.63" y1="851.33" y2="275.94"><stop offset="0" stop-color="#343d3e"/><stop offset=".56" stop-color="#414c50"/><stop offset="1" stop-color="#4e5b62"/></linearGradient><linearGradient id="l" gradientTransform="matrix(.11727 0 0 .11794 0 .04)" gradientUnits="userSpaceOnUse" x1="757.88" x2="1089.16" xlink:href="#h" y1="929.4" y2="929.4"/><radialGradient id="m" cx="563.64" cy="563.64" gradientTransform="matrix(.14136 0 0 -.14216 -13.6 146.64)" gradientUnits="userSpaceOnUse" r="97.44"><stop offset="0" stop-color="#c81a00"/><stop offset=".87" stop-color="#e43714"/><stop offset="1" stop-color="#ff5328"/></radialGradient><path d="m182.59 124.7h-.7c.24 0 .47-.11.7-.11zm-16.41 0h-34.02v-36.9h50.43v.12c-.23-.12-.47-.12-.7-.12h-15.71l-7.5 10.73h-12.91a4.1 4.1 0 0 0 -4.1 4.13v7.2a4.1 4.1 0 0 0 4.1 4.12h12.9zm0 0" fill="url(#a)" fill-rule="evenodd"/><path d="m163.13 98.52h1.4v-10.72h-1.4zm-5.4-4.84h1.3v-5.9h-1.3zm-5.39 0h1.28v-5.9h-1.28zm-5.51 0h1.4v-5.9h-1.4zm-5.4 0h1.4v-5.9h-1.4zm-5.39 4.84h1.4v-10.72h-1.4zm-5.4-4.84h1.4v-5.9h-1.4zm-5.39 0h1.4v-5.9h-1.4zm-5.4 0h1.41v-5.9h-1.4zm-5.39 0h1.29v-5.9h-1.29zm-5.4 4.84h1.3v-10.72h-1.3zm-5.51-4.84h1.41v-5.9h-1.4zm-5.39 0h1.4v-5.9h-1.4zm-5.4 0h1.41v-5.9h-1.4zm70.37 31.02h1.4v-10.73h-1.4zm-5.4 0h1.3v-5.9h-1.3zm-5.39 0h1.28v-5.9h-1.28zm-5.51 0h1.4v-5.9h-1.4zm-5.4 0h1.4v-5.9h-1.4zm-5.39 0h1.4v-10.73h-1.4zm-5.4 0h1.4v-5.9h-1.4zm-5.39 0h1.4v-5.9h-1.4zm-5.4 0h1.41v-5.9h-1.4zm-5.39 0h1.29v-5.9h-1.29zm-5.4 0h1.3v-10.73h-1.3zm-5.51 0h1.41v-5.9h-1.4zm-5.39 0h1.4v-5.9h-1.4zm-5.4 0h1.41v-5.9h-1.4zm0 0" fill="#3e494c"/><g fill-rule="evenodd"><path d="m181.89 124.7h-15.71l-7.5-10.73h-12.91a4.1 4.1 0 0 1 -4.1-4.13v-7.19a4.1 4.1 0 0 1 4.1-4.13h12.9l7.5-10.73h15.72c.24 0 .47 0 .7.12a2.33 2.33 0 0 1 1.41 2.12v32.43c0 .94-.59 1.77-1.41 2.13-.23 0-.47.11-.7.11zm-19-22.52a4.05 4.05 0 0 0 -3.99 4 3.97 3.97 0 0 0 4 4.02 3.97 3.97 0 0 0 3.98-4.01 4.05 4.05 0 0 0 -3.99-4.01zm-11.84 0c-2.12 0-4 1.89-4 4a4.05 4.05 0 0 0 8.1 0 4.15 4.15 0 0 0 -4.1-4zm0 0" fill="url(#b)"/><path d="m151.05 110.2c-2.12 0-4-1.78-4-4.01a4.13 4.13 0 0 1 4-4.01c2.22 0 4.1 1.89 4.1 4a4.07 4.07 0 0 1 -4.1 4.02zm0 0" fill="url(#c)"/><path d="m154.68 106.19c0 2-1.64 3.65-3.63 3.65-2 0-3.52-1.65-3.52-3.65 0-2.01 1.52-3.54 3.52-3.54s3.63 1.53 3.63 3.54zm0 0" fill="url(#e)"/><path d="m162.9 110.2a3.97 3.97 0 0 1 -4-4.01 4.05 4.05 0 0 1 4-4.01c2.22 0 3.98 1.89 3.98 4a3.97 3.97 0 0 1 -3.99 4.02zm0 0" fill="url(#c)"/><path d="m166.53 106.19c0 2-1.65 3.65-3.64 3.65-2 0-3.64-1.65-3.64-3.65 0-2.01 1.65-3.54 3.64-3.54 2 0 3.64 1.53 3.64 3.54zm0 0" fill="url(#f)"/><path d="m124.66 35.66a66.82 66.82 0 0 0 -34.6-31.14l2.7-3.06c.82-.82 2-1.3 3.05-1.3.48 0 .94 0 1.4.24a2.93 2.93 0 0 0 .71 3.3c.47.47 1.17.71 1.88.71.82 0 1.52-.24 2.11-.95.23-.23.47-.59.58-.94.94.47 1.88.94 2.7 1.41a2.9 2.9 0 0 0 .59 3.66c.47.47 1.17.7 1.88.7.81 0 1.52-.34 2.1-.94l.36-.35c1.06.7 2.11 1.41 3.05 2.24a2.96 2.96 0 0 0 .35 4.01c.47.47 1.17.71 1.87.71.71 0 1.53-.24 2-.83.94.95 1.87 1.9 2.7 2.83l-.35.36a2.97 2.97 0 0 0 .22 4.12c.6.48 1.18.72 1.88.72.6 0 1.3-.24 1.76-.6.6.83 1.17 1.66 1.65 2.48-.24.24-.59.47-.83.7a2.84 2.84 0 0 0 .24 4.02c.47.6 1.17.82 1.88.82.46 0 1.05-.23 1.52-.47.7 1.53.47 3.3-.7 4.6zm0 0" fill="url(#g)"/></g><path d="m66.14.04c36.48 0 66.02 29.73 66.02 66.52v58.14c0 4.6-3.63 8.26-8.2 8.26h-57.82c-36.59 0-66.14-29.73-66.14-66.4 0-36.8 29.55-66.52 66.14-66.52zm0 0" fill="#232d2c"/><path d="m66.14 128.12c-33.89 0-61.33-27.6-61.33-61.56 0-34.08 27.44-61.68 61.33-61.68 33.77 0 61.22 27.6 61.22 61.68 0 33.96-27.45 61.56-61.22 61.56zm0 0" fill="url(#i)" fill-rule="evenodd"/><path d="m97.92 66.56c0 17.58-14.3 31.96-31.78 31.96-17.59 0-31.78-14.38-31.78-31.96a31.82 31.82 0 0 1 31.78-31.96 31.9 31.9 0 0 1 31.78 31.96zm0 0" fill="url(#j)" fill-rule="evenodd"/><path d="m66.14 98.52c-17.59 0-31.78-14.38-31.78-31.96a31.82 31.82 0 0 1 31.78-31.96 31.9 31.9 0 0 1 31.78 31.96c0 17.58-14.3 31.96-31.78 31.96zm0-65.93c-18.64 0-33.77 15.21-33.77 33.97a33.78 33.78 0 0 0 33.77 33.85 33.68 33.68 0 0 0 33.66-33.85c0-18.76-15.01-33.97-33.66-33.97zm0 0" fill="url(#k)" fill-rule="evenodd"/><path d="m119.96 128.48h-29.66a66.16 66.16 0 0 0 37.4-37.63v29.84c0 4.36-3.4 7.79-7.74 7.79zm0 0" fill="url(#l)" fill-rule="evenodd"/><path d="m66.14 100.52a33.9 33.9 0 0 1 -33.89-33.96 33.93 33.93 0 0 1 33.9-34.08c18.64 0 33.76 15.2 33.76 34.08 0 18.75-15.12 33.96-33.77 33.96zm0-85.62c-28.38 0-51.36 23.12-51.36 51.66 0 28.42 22.98 51.54 51.36 51.54h44.91a6.32 6.32 0 0 0 6.34-6.37v-45.17c0-28.54-22.99-51.66-51.25-51.66zm0 0" fill="url(#m)" fill-rule="evenodd"/></svg>