<svg height="133pt" viewBox="0 0 140 133" width="140pt" xmlns="http://www.w3.org/2000/svg" xmlns:xlink="http://www.w3.org/1999/xlink"><radialGradient id="a" cx="178.16" cy="719.23" gradientTransform="matrix(.20573 .0984 -.04981 .14458 20.72 -33.87)" gradientUnits="userSpaceOnUse" r="91.77"><stop offset="0" stop-color="#d02426"/><stop offset=".37" stop-color="#9e2825"/><stop offset="1" stop-color="#842723"/></radialGradient><linearGradient id="b" gradientTransform="matrix(.1208 0 0 .12184 .06 0)" gradientUnits="userSpaceOnUse" x1="127.08" x2="194.63" y1="802.77" y2="875.62"><stop offset="0" stop-color="#982825"/><stop offset="1" stop-color="#842723"/></linearGradient><linearGradient id="c" gradientTransform="matrix(.1208 0 0 .12184 .06 0)" gradientUnits="userSpaceOnUse" x1="243.48" x2="519.22" y1="935.78" y2="1032.32"><stop offset="0" stop-color="#982825"/><stop offset=".5" stop-color="#a12826"/><stop offset=".68" stop-color="#a92c29"/><stop offset="1" stop-color="#be3432"/></linearGradient><linearGradient id="d" gradientTransform="matrix(.1208 0 0 .12184 .06 0)" gradientUnits="userSpaceOnUse" x1="66.85" x2="131.18" y1="954.86" y2="924.99"><stop offset="0" stop-color="#bb3a39"/><stop offset="1" stop-color="#8e2724"/></linearGradient><linearGradient id="e" gradientTransform="matrix(.1208 0 0 .12184 .06 0)" gradientUnits="userSpaceOnUse" x1="431.49" x2="361.61" y1="794.04" y2="933.99"><stop offset="0" stop-color="#ab302c"/><stop offset="1" stop-color="#982825"/></linearGradient><radialGradient id="f" cx="101.82" cy="659.73" gradientTransform="matrix(.16719 .0014 -.00117 .10524 -3.92 10.84)" gradientUnits="userSpaceOnUse" r="49.15"><stop offset="0" stop-color="#f4c8c9"/><stop offset="1" stop-color="#c12728"/></radialGradient><linearGradient id="g" gradientTransform="matrix(.1208 0 0 .12184 .06 0)" gradientUnits="userSpaceOnUse" x1="294.66" x2="354.42" y1="657.26" y2="791.83"><stop offset="0" stop-color="#fadbde"/><stop offset=".13" stop-color="#ef7f83"/><stop offset="1" stop-color="#842723"/></linearGradient><linearGradient id="h" gradientTransform="matrix(.1208 0 0 .12184 .06 0)" gradientUnits="userSpaceOnUse" x1="105.51" x2="94.34" y1="659.9" y2="722.57"><stop offset="0" stop-color="#fadbde"/><stop offset="1" stop-color="#ba2827"/></linearGradient><linearGradient id="i"><stop offset="0" stop-color="#669d39"/><stop offset="1" stop-color="#b1ce63"/></linearGradient><linearGradient id="j" gradientTransform="matrix(.1208 0 0 .12184 .06 0)" gradientUnits="userSpaceOnUse" x1="325.15" x2="817.75" xlink:href="#i" y1="573.38" y2="112.02"/><linearGradient id="k"><stop offset="0" stop-color="#e4ecc2"/><stop offset="1" stop-color="#98c143"/></linearGradient><linearGradient id="l" gradientTransform="matrix(.1208 0 0 .12184 .06 0)" gradientUnits="userSpaceOnUse" x1="639" x2="650.33" xlink:href="#k" y1="168.02" y2="200.25"/><linearGradient id="m" gradientTransform="matrix(.1208 0 0 .12184 .06 0)" gradientUnits="userSpaceOnUse" x1="14.19" x2="73.09" y1="815.31" y2="783.37"><stop offset="0" stop-color="#bb3a39"/><stop offset="1" stop-color="#c62727"/></linearGradient><linearGradient id="n" gradientTransform="matrix(.1208 0 0 .12184 .06 0)" gradientUnits="userSpaceOnUse" x1="369.67" x2="438.81" y1="1057.74" y2="881.38"><stop offset="0" stop-color="#bb3a39"/><stop offset="1" stop-color="#ca4748"/></linearGradient><linearGradient id="o" gradientTransform="matrix(.1208 0 0 .12184 .06 0)" gradientUnits="userSpaceOnUse" x1="87.22" x2="53.99" y1="958.46" y2="1001.94"><stop offset="0" stop-color="#c13e3e"/><stop offset="1" stop-color="#dc9495"/></linearGradient><linearGradient id="p" gradientTransform="matrix(.1208 0 0 .12184 .06 0)" gradientUnits="userSpaceOnUse" x1="212.44" x2="198.65" y1="1006.72" y2="1050.85"><stop offset="0" stop-color="#9a2825"/><stop offset="1" stop-color="#dc9495"/></linearGradient><linearGradient id="q" gradientTransform="matrix(.1208 0 0 .12184 .06 0)" gradientUnits="userSpaceOnUse" x1="711.88" x2="932.8" xlink:href="#i" y1="557.12" y2="149.29"/><linearGradient id="r" gradientTransform="matrix(.1208 0 0 .12184 .06 0)" gradientUnits="userSpaceOnUse" x1="761.47" x2="787.05" xlink:href="#k" y1="277.54" y2="278.53"/><linearGradient id="s" gradientTransform="matrix(.1208 0 0 .12184 .06 0)" gradientUnits="userSpaceOnUse" x1="763.48" x2="1117.84" y1="882.32" y2="681.74"><stop offset="0" stop-color="#9f2826"/><stop offset="1" stop-color="#7a2622"/></linearGradient><linearGradient id="t" gradientTransform="matrix(.1208 0 0 .12184 .06 0)" gradientUnits="userSpaceOnUse" x1="871.29" x2="869.34" y1="759.93" y2="899.22"><stop offset="0" stop-color="#c62727"/><stop offset=".43" stop-color="#b12d2b"/><stop offset="1" stop-color="#c1272b"/></linearGradient><radialGradient id="u" cx="883.53" cy="823.14" gradientTransform="matrix(.08799 -.0496 -.07088 -.14023 87.4 259.51)" gradientUnits="userSpaceOnUse" r="100.36"><stop offset="0" stop-color="#482a27"/><stop offset="1" stop-color="#c0272b"/></radialGradient><radialGradient id="v" cx="847.27" cy="838.61" gradientTransform="matrix(.11945 -.0562 .06943 .15832 -57.07 17.06)" gradientUnits="userSpaceOnUse" r="76.04"><stop offset="0" stop-color="#3b2926"/><stop offset=".33" stop-color="#632722"/><stop offset="1" stop-color="#c0272b"/></radialGradient><radialGradient id="w" cx="923.19" cy="913.61" gradientTransform="matrix(-.03769 -.22881 .13306 -.02061 24.82 341.39)" gradientUnits="userSpaceOnUse" r="54.52"><stop offset="0" stop-color="#e21e30"/><stop offset=".44" stop-color="#632722"/><stop offset="1" stop-color="#392826"/></radialGradient><linearGradient id="x"><stop offset="0" stop-color="#e7999a"/><stop offset="1" stop-color="#972825"/></linearGradient><linearGradient id="y" gradientTransform="matrix(.1208 0 0 .12184 .06 0)" gradientUnits="userSpaceOnUse" x1="713.18" x2="722.85" xlink:href="#x" y1="695.74" y2="721.96"/><linearGradient id="z" gradientTransform="matrix(.1208 0 0 .12184 .06 0)" gradientUnits="userSpaceOnUse" x1="852.16" x2="852.34" y1="1039.91" y2="1025.48"><stop offset="0" stop-color="#d96061"/><stop offset="1" stop-color="#bf272b"/></linearGradient><linearGradient id="A" gradientTransform="matrix(.1208 0 0 .12184 .06 0)" gradientUnits="userSpaceOnUse" x1="894.28" x2="898.63" xlink:href="#x" y1="559.68" y2="617.89"/><linearGradient id="B" gradientTransform="matrix(.1208 0 0 .12184 .06 0)" gradientUnits="userSpaceOnUse" x1="1070.54" x2="927.54" y1="711.91" y2="645.51"><stop offset="0" stop-color="#c42c2c"/><stop offset="1" stop-color="#d96061"/></linearGradient><linearGradient id="C"><stop offset="0" stop-color="#b1ce63"/><stop offset="1" stop-color="#5d3b29"/></linearGradient><linearGradient id="D" gradientTransform="matrix(.1208 0 0 .12184 .06 0)" gradientUnits="userSpaceOnUse" x1="824.67" x2="885.53" xlink:href="#C" y1="78.8" y2="56.37"/><linearGradient id="E" gradientTransform="matrix(.1208 0 0 .12184 .06 0)" gradientUnits="userSpaceOnUse" x1="827.81" x2="881.6" xlink:href="#C" y1="87.82" y2="23.32"/><g fill-rule="evenodd"><path d="m9.84 80.05c-9.17 4.99-9.04 18.03-9.66 24.35-.96 10 8.1 22.42 16.67 23.28 3.38.24 3.14-.62 5.8 1.33 5.92 4.15 16.06 3.66 20.54 2.93 22.1-7.43 33.7-40.7 5.07-52.27-1.81-1.7-7.98-4.39-12.69-4.02-6.15-2.56-14-1.95-25.73 4.39zm0 0" fill="url(#a)"/><path d="m9 85.53c-9.54 24.61 23.07 40.93 49.28 29.36-.84 11.7-18.12 19.5-34.3 13.52-10.39-4.99-11.36-2.3-17.16-14.5-1.8-4.02-1.8-13.64-.84-17.78.72-3.05 1.45-8.53 3.02-10.6zm0 0" fill="url(#b)"/><path d="m64.45 107.7a28.67 28.67 0 0 1 -4.72 11.34c-4.59 6.57-11.96 11.45-20.53 10.72-13.53-1.22-17.27-5.24-24.64-15.96-7.61-10.85 31.4 16.45 49.89-6.1zm0 0" fill="url(#c)"/><path d="m13.95 107.1s-.84 10.1 8.94 20.59c-11 1.83-16.55-5.61-19.69-10.97-2.53-4.5-3.74-13.16-2.3-16.33 1.46-3.16 3.15 3.9 13.05 6.7zm0 0" fill="url(#d)"/><path d="m63.84 108.8c-1.93 5.97-22.59.97-39.74-1.7 35.15 2.67 40.1-4.64 40.1-10.97.6 5.85 1.1 12.07-.36 12.67zm0 0" fill="url(#e)"/><path d="m1.15 96.98c3.02-23.14 20.9-26.32 34.9-19.74-23.9-3.53-29.1 9.5-34.9 19.74zm0 0" fill="url(#f)"/><path d="m31.59 90.28c3.14 2.2 17.63 1.95 17.63 1.95 1.21-1.22-.72-5.48-2.41-6.82-23.92-4.14-14.13-10.48-23.32-8.04-1.8-.25-.11 1.83-.6 3.9 7.86.48 8.7 9.01 8.7 9.01zm0 0" fill="url(#g)"/><path d="m17.34 77c-9.19 1.34-13.3 7.55-10.15 18.04 7.37-1.47 15.94-11.1 10.15-18.04zm0 0" fill="url(#h)"/></g><path d="m14.56 78.7c1.45-2.55 6.52-2.06 9.17-1.82 0 0 1.45 4.87 1.21 7.43-2.05.98-3.74 1.46-6.03 1.22-1.7-2.07-2.42-5.12-4.35-6.82zm0 0" fill="#fadbde"/><path d="m35.1 77.37c13.87-31.07 36.82-56.67 62.8-71.03 2.78 4.26 2.54 2.8 1.94 6.45-36.74 16.81-57.5 51.78-56.78 69.45 2.3 3.9-15.7-2.56-7.97-4.87zm0 0" fill="url(#j)" fill-rule="evenodd"/><path d="m96.45 8.28c.73.37 1.82 3.17.6 3.66-11.23 4.5-23.42 13.16-36.11 26.93 12.93-14.5 29.24-28.03 35.51-30.59zm0 0" fill="url(#l)" fill-rule="evenodd"/><path d="m39.32 77.73c2.05 6.46 3.26 2.8 3.26 2.8-1.33-11.7 18.72-44.1 35.51-55.67-18.96 11.09-39.26 49.1-38.77 52.87zm0 0" fill="#659138"/><path d="m73.02 28.63c3.98-5.36 14.86-13.77 22.47-16.45l3.38-2.07c1.2 1.34-1.33 1.95-.97 2.93-8.1 2.8-20.17 11.57-24.88 15.59zm0 0" fill="#86b331"/><path d="m71.2 26.92c-15.56 12.56-33.2 45.09-34.17 50.93.12 1.22 1.1 1.1 1.57 1.47 1.09-9.27 15.59-33.88 32.62-52.4zm0 0" fill="#a7c94c"/><path d="m7.55 116.6c-.36 2.92-7.37-3.66-7-11.09-.13-12.3 3.02-13.77 7.6-19.86-7.6 16.81-2.53 28.76-.6 30.95zm0 0" fill="url(#m)" fill-rule="evenodd"/><path d="m23.86 124.76c7.37 5.97 13.16 5.49 20.9 1.95 4.7-2.2-8.83-7.07-8.83-7.07 15.46 2.56 21.39-2.43 28.27-9.62-3.38 9.75-8.1 19.12-18.6 21.32-3.99.24-7.49 1.34-11.48.48-3.98-1.7-7.48-3.65-10.26-7.06zm0 0" fill="url(#n)" fill-rule="evenodd"/><path d="m.18 105.75c7 9.63 12.08 11.82 16.07 13.65 1.69 1.58 4.23 6.1 5.91 7.8-14.6.6-19.56-9.87-21.98-21.45zm0 0" fill="url(#o)" fill-rule="evenodd"/><path d="m14.68 113.3c7 9.63 15.82 12.56 18.12 14.02 1.8 1.58 3.13 3.17 4.83 5-14.5.6-19.33-10.48-22.95-19.02zm0 0" fill="url(#p)" fill-rule="evenodd"/><path d="m93.43 80.53c-7.12-28.02-6.76-48.73 4.6-69.93-.86-4.63 4.69-10.84 7.97-10.6 2.17.12 3.86 3.66 3.5 4.88-.97 3.28-3.38 9.13-7.97 10.47-12.92 11.09-13.65 48.86 0 61.65-2.42 1.1-5.68 4.02-8.1 3.53zm0 0" fill="url(#q)" fill-rule="evenodd"/><path d="m97.66 11.82c.97-.12 3.87 1.7 2.78 2.55-6.04 4.76-12.08 21.2-10.26 43.14-3.75-18.03 3.01-38.99 7.48-45.7zm0 0" fill="url(#r)" fill-rule="evenodd"/><path d="m90.54 49.46c-.49-14 1.2-23.51 7.36-34.11l1.94-2.92c1.8.12.48 2.43 1.45 2.68-9.55 7.68-10.75 25.1-10.75 34.35zm0 0" fill="#86b331"/><path d="m95.85 75.41c5.92 3.05 3.26-.48 3.26-.48-7.37-8.53-11.23-32.9-3.98-51.17-9.31 19.25-2.18 49.46.72 51.65zm0 0" fill="#659138"/><path d="m97.18 76.52c5.8-8.9 20.53-10.85 27.78-6.83 9.79 5.6 12.56 13.28 14.37 21.93 3.63 17.91-8.1 35.21-22.82 35.82-39.62 20.96-69.1-45.32-19.33-50.92zm0 0" fill="url(#s)" fill-rule="evenodd"/><path d="m97.66 77.49c7.25-10.97 26.82-13.53 34.9.24 16.8 28.39-3.13 49.34-16.42 48.61-38.05 19.5-65.23-43.73-18.48-48.85zm0 0" fill="#a42826"/><path d="m90.54 93.57c-5.08 1.83-11.12 5.6-15.83 8.65 5.08 18.89 16.8 35.21 40.83 22.42 16.67.12 21.86-16.2 20.9-28.39-14.87-8.53-29.96-8.41-45.9-2.68zm0 0" fill="url(#t)" fill-rule="evenodd"/><path d="m97.42 79.68c-.36 2.32-1.2 5.85-1.2 8.41-4.72 1.7-8.83 1.83-14.26 5.12 3.74-1.1 8.58 0 11.95-.73-3.98 1.58-13.52 5.48-13.89 7.18 3.87-.85 8.22-1.1 12.32-1.34-5.91 2.68-10.14 6.58-14.73 11.7 4.83-2.68 15.7-5.97 17.75-6.09l2.18-.73c-5.43 4.75-11.47 9.25-13.65 12.42 3.14-1.94 7.5-3.53 11.23-4.87 0 2.93-2.53 5.12-4.1 7.2 2.3-.86 8.7-3.42 10.75-4.52-.36 4.14-4.96 6.7-4.59 10.48 2.66-1.95 7.97-6.82 9.54-9.63 1.33 3.17-3.26 8.65-2.17 11.94.36-3.29 5.2-7.8 6.28-10.47 1.57 2.68 4.83 5.23 6.28 6.2.73-3.04 2.53-5.96 1.45-9.37 4.1-.73 10.75-.73 14.98-2.2-2.3-2.06-10.03-2.56-11.84-3.4l9.9-5.98c-4.83-.48-8.09.13-13.04 1.83 4.6-2.68 10.03-7.55 15.1-9.87-5.07-.24-12.57 3.53-17.4 4.63 5.8-2.07 11.72-8.04 16.19-10.6-4.47.49-13.65 1.7-16.79 3.17.12-4.02 3.86-7.3 6.16-10.96-3.75 1.82-9.06 6.94-12.44 9.25 1.57-3.41 3.5-8.52 3.14-12.06-3.5 2.56-7.13 9.14-7.73 10.97-1.57-3.3-3.99-6.7-7.37-7.68zm0 0" fill="url(#u)" fill-rule="evenodd"/><path d="m99.35 80.77c-.72.37-1.2 1.23-1.93 2.81-1.2.73-1.81 2.31-2.3 3.78-3.14-.37-6.16 2.56-7.97 3.41 2.18-.61 3.63-.49 5.56-.61.84-.24 1.45-.12 2.17 0-.12.61-.12.97 0 1.1.12.85.12 1.58.12 2.19-4.22-.49-7.85 2.31-10.02 3.9l5.07-1.7c1.45-.5 2.41-.13 3.86.11.37 0 .73-.12.85-.24-.12.37-.12.73-.12 1.22.12.49.24.97.48 1.58-3.98 1.83-10.38 5.49-11.95 8.77 3.14-4.14 7.85-5.24 11.71-6.09.48-.12-5.92 3.78-5.8 3.66.37 1.1 4.35-1.34 4.71-.12-2.29 2.31-6.88 6.46-8.2 9.14 1.69-.98 8.2-5.98 8.45-7.56 1.57-.12 1.08 1.7 1.08 1.7l.61 1.83c.48.85 3.02-1.45 3.62-.73-2.3 1.22-6.52 6.95-7.6 8.53 1.68-1.34 6.27-6.1 8.2-6.45.49-.13-.6 5.11-.36 4.99 1.33 1.1 4.23-3.41 5.32-2.69-.73 1.23 1.09 2.08 1.2 2.33 2.18 2.67 4.11 2.55 6.65 2.43 1.69.98 3.26 1.34 4.47 1.83-.12-1.95.97-4.14 1.45-5.6-.72-2.32.12-3.67.48-5.73a7.59 7.59 0 0 0 -.72-6.95c.12-.24.36-.36.6-.61a20.42 20.42 0 0 0 2.66-3.65c1.2-.86 7.97-3.3 9.66-3.54-1.2-.12-7.73.98-9.06 1.59-.36.24-3.01 1.1-3.26 2.56-.72.36-1.57 1.1-2.42 1.1v.11c0-.12-.11-.24-.11-.36a13.97 13.97 0 0 1 -1.45-3.65h-.12c.36-.74.84-1.47 1.45-2.44 2.29-.98 7.84-3.04 9.78-4.63-8.94 1.95-9.42-.25-14.38 1.1h.12c1.21-1.1 1.82-2.32 3.15-3.42 1.45-1.22 2.53-2.68 3.98-4.26-1.2.73-4.1.73-5.2 1.95-.96.6-.96.85-2.05 1.58-.48.5-.12-2.19-1.81.5-.85-.99-1.69.35-2.41-.38.36-.6 1.08-1.46 1.68-2.19.61-2.07 1.58-3.41 3.15-5.24-2.78 1.59-3.63 2.92-6.28 4.75-.85-.85-3.39.37-3.62.25-1.33-1.7-2.42-2.32-3.15-1.96zm0 0" fill="url(#v)" fill-rule="evenodd"/><path d="m98.27 85.9c-5.93 13.64 5.68 29.97 16.18 31.19.6 1.82 1.7.24 2.54.24-.97-2.8 0-5.12.48-7.56 1.57-10.84-5.56-24.24-15.34-24.97-3.99-6.46-2.41-3.41-3.86 1.1zm0 0" fill="url(#w)" fill-rule="evenodd"/><path d="m102.13 78.7c-11.84-1.82-26.93 4.27-27.54 17.55 1.45-5.85 11.48-12.91 15.7-13.52 8.1-.98 3.26-1.22 11.84-4.02zm0 0" fill="url(#y)" fill-rule="evenodd"/><path d="m122.54 121.71c-8.57 8.78-29.59 12.55-37.44 2.2 6.4 4.75 16.3 4.26 20.53 3.04 9.19-2.43 13.78-4.87 16.91-5.24zm0 0" fill="url(#z)" fill-rule="evenodd"/><path d="m124.96 72.13c-8.82-5-18.96-2.08-27.18 6.58 9.3-7.68 24.88-6.34 27.18-6.58zm0 0" fill="url(#A)" fill-rule="evenodd"/><path d="m75.68 112.45c2.66 4.76 8.21-1.21 11.71-1.83a53.76 53.76 0 0 0 -6.52 5.25l.24 2.8c1.81.12 5.92-3.66 7.73-4.87-1.7 1.83-6.16 5.6-5.43 7.3.36 1.23 1.33 1.83 2.29 2.69 2.18-2.44 4.48-5.12 5.92-8.17a26.05 26.05 0 0 0 -2.66 8.9c.97-.73 1.82-1.34 2.67-1.95a8.18 8.18 0 0 1 -.74 3.53c3.27.36 4.11-2.92 5.56-5-.12 2.08-1.09 3.78-1.09 5.85.73.12 1.45.37 2.18.6 1.09-.72 1.93-1.7 2.66-2.42.24 1.1-.36 2.07-.61 2.8-7.48 5.97-21.86-7.92-23.91-15.48zm0 0" fill="#d83f4c"/><path d="m121.82 76.88c-.12.12-.25.24-.36.49.11-.13.24-.37.36-.5zm9.79 21.2c-.37.12-.85.36-1.21.6.48-.24.84-.36 1.2-.6zm-18.37-29.73c-2.66.25-5.19 1.1-7.36 2.68.6 0 1.32-.37 1.8.13.37.6.73.97 1.1 1.57.11-.6 0-1.09.35-1.82.73-.12 1.58-.25 2.3-.49.48 1.1 1.09 1.83 1.45 3.17 0-.37-.24-2.43 0-3.41.36 0 1.94-.49 2.3.48 0 1.95-.24 3.9.12 5.98.24-1.95 1.33-4.03 2.17-5.98.97.13 1.45-.12 1.82.98 0 1.7 0 3.17-.5 4.88.73-1.59 1.1-2.68 2.42-3.3.5.12 1.21-.36 1.45.49-.24 1.1-.24 2.2-.84 3.17.72-1.22 1.33-2.32 2.54-3.3.6.13 1.08-.24 1.57.5-.61 2.8-2.18 4.14-3.39 6.7 1.82-1.7 3.39-4.39 5.2-5.12 0 0 .72.61.85 1.34-.49.85-1.33 1.83-1.7 3.41 1.09-.85 1.7-1.95 3.15-2.32.12.74.6 1.47.48 2.44-1.45 1.22-3.14 1.7-3.5 3.78 1.08-.6 3.26-1.83 5.19-2.07.36.37 1.09.49 1.09 1.34a400.3 400.3 0 0 0 -7.5 4.26c2.66-.73 5.08-1.7 7.98-1.82l.12 1.82-3.62 2.32 5.55-.36c-.24 1.94-.36 3.9-2.3 4.62 1.1 0 2.3-.24 1.7 1.34-1.33.73-2.3 1.7-3.62 2.32 1.09-.37 2.17-.61 3.5-.73 1.09.6 1.57.85.84 2.07-.84.37-1.93.49-2.77.97 1.44-.12 2.9-.24 3.74.86-.6.48-.24.97-1.33 1.1-.24.11-1.93.48-2.54 1.09.73.12 1.93.12 2.9.24v1.46a7.9 7.9 0 0 0 -2.05.98c1.08.37 1.57.85 2.65.37.85-1.83 1.21-3.42 1.1-5.61.23-3.29.35-7.31-.85-11.08h.12c-1.33-8.3-6.28-17.07-14.13-19.75a19.41 19.41 0 0 0 -9.55-1.7zm0 0" fill="url(#B)" fill-rule="evenodd"/><path d="m92.7 8.65c1.58-1.83 5.8-4.14 7.5-4.75 5.2.24 6.03 1.22 7.48 5.36-.72 1.22-.96 1.95-1.56 2.2-1.57.97-4.35 1.09-5.8 1.82-1.33.49-2.05 0-2.9.49.85-3.53-7-2.07-4.71-5.12zm0 0" fill="url(#D)" fill-rule="evenodd"/><path d="m98.39 9.02c-.12-3.78 3.61-8.17 7.48-8.53 1.33.6 2.3 1.7 2.66 3.4 1.1 4.52-3.86 9.15-7.24 10.36a38.03 38.03 0 0 0 -2.9-5.23zm0 0" fill="url(#E)" fill-rule="evenodd"/></svg>