<svg xmlns="http://www.w3.org/2000/svg" width="275" height="267" viewBox="0 0 206 200"><path d="M203 67c1-2 4-1 2 1l-3-1h1zm0 0M205 68c-4 16-10 33-24 44-16 12-34 19-50 30 2-1 0-4-1-3 14-10 31-18 46-28 13-9 19-23 24-37l5-6zm0 0" fill="#ffd500"/><path d="M202 67l3 1-5 6 2-7zm-2-28c1-1 3-1 3 1v1l-3-1h-1l1-1zm0 0M203 41a112 112 0 0 1-8 32l-4 1c4-9 7-18 8-27l4-6zm0 0" fill="#ffd500"/><path d="M200 40l3 1-4 6 1-7zm2 27l-2 7-6 3v-1l1-3c3-2 6-3 7-6zm-5-66c1-1 3-1 3 1v1h-1l-2-1h-1l1-1zm0 0" fill="#ffd500"/><path d="M199 3h1c-2 18-4 38-14 53-3 2-5 5-9 6 14-15 17-36 19-55l3-4zm0 37h1l-1 7c-5 8-12 14-20 18l7-9c5-4 10-10 13-16zm0 0" fill="#ffd500"/><path d="M197 2l2 1-3 4 1-5zm2 45c-1 9-4 18-8 27l-1 1c0 1 1 3 2 2h2l6-3c-5 14-11 28-24 37-15 10-32 18-46 28-12 9-14 22-20 35-4 7-12 15-21 15l-13-3-12 1c-8 3-16 8-24 9-11 2-22 0-29-8-7-7-9-17-7-27 3-8 7-17 8-26 0-6-4-11-4-17 1-10 6-18 10-26v-1c5-11 15-19 25-26 11-8 23-10 36-13 19-6 40-15 49-33v13c0 1 2 3 3 2l1-1c19-13 47-10 64-26-2 19-5 40-19 55-1 2 0 4 2 3 8-4 15-10 20-18zm-22 47c0-1-1-2-2-1-4 3-7 5-11 6 3-6 5-12 6-19 1-1-1-3-2-1-3 4-9 7-14 8 16-15 21-38 23-59v-1h-3c-4 9-14 11-23 14l-28 10c2-2 3-5 3-8v-1l-1-2-1 1c-19 14-45 13-62 30-1 2 1 3 1 2 16-17 42-16 61-29l-4 8-1 1 1 2h1l35-13c6-2 13-5 18-10-2 20-8 42-24 56l-1 1c-1 0 0 2 1 1h1c6-1 12-3 17-7-2 6-4 11-8 17 0 1 0 2 2 2l10-4c-6 8-14 14-23 16-2 1-2 3 0 3 12-4 22-11 28-22v-1zm-37 26c1-1 1-3-1-2-3 1-6 2-8 5-1 1 1 3 2 2l7-5zm-34 47c3-5 5-11 2-17l-6-8c0-4 2-7 3-11 2-5 4-10 2-15l-4-8c-1-3 1-6-1-8-3-5-9-8-14-8l-6-1-4-4-5-6c-5-3-11-2-14 2-2 1-2 4-2 6 1 4 6 6 3 11-1 2-5 4-7 4-3-1-4-4-6-6-1-3-3-4-6-4-4-1-8 0-10 5-2 2 0 7-3 8s-5 1-7 4c-5 3-6 9-6 14 1 7 8 14 5 21s-8 13-9 20c-1 6 2 10 6 14 5 5 11 7 18 8 6 0 11-2 17-4 8-4 14-6 23-5 6 1 13 5 19 2 5-3 10-9 12-14zm0 0" fill="#ffd500"/><path d="M196 2h1l-1 5c-17 16-45 13-64 26v-4c20-12 48-9 64-27zm-2 74v1h-2c-1 1-2-1-2-2l1-1 2 3 1-1zm0 0" fill="#ffd500"/><path d="M195 73l-1 3-1 1-2-3 4-1zm-9-17l-7 9-2-3c4-1 6-4 9-6zm0 0" fill="#ffd500"/><path d="M179 65c-2 1-3-1-2-3l2 3zm-4 28c1-1 2 0 2 1v1-1l-2-1zm0 0" fill="#ffd500"/><path d="M177 94v1c-6 11-16 18-28 22-2 0-2-2 0-3 9-2 17-8 23-16l5-4zm0 0" fill="#ffd500"/><path d="M175 93l2 1-5 4 3-5zm0-66h2v1h-1l-1-1h-1 1zm0 0M176 28h1c-2 21-7 44-23 59l-4 1c16-14 22-36 24-56l2-4zm0 0" fill="#ffd500"/><path d="M175 27l1 1-2 4 1-5zm0 66l-3 5-10 4v-1l2-2c4-1 7-3 11-6zm0 0" fill="#ffd500"/><path d="M174 27h1l-1 5c-5 5-12 8-18 10l-35 13v-1l2-3 28-10c9-3 19-5 23-14zm-6 52c1-2 3 0 2 1l-2-1zm0 0M170 80c-1 7-3 13-6 19l-3 1h-1c4-6 6-11 8-17l2-3zm0 0" fill="#ffd500"/><path d="M168 79l2 1-2 3v-4zm0 0M168 79v4c-5 4-11 6-17 7l3-3c5-1 11-4 14-8zm-4 20l-2 2-1-1 3-1zm0 0" fill="#ffd500"/><path d="M162 101v1c-2 0-2-1-2-2h1l1 1zm-8-14l-3 3-1-2 4-1zm0 0" fill="#ffd500"/><path d="M151 90h-1c-1 1-2-1-1-1l1-1 1 2zm-12 28c2-1 2 1 1 2l-7 5c-1 1-3-1-2-2 2-3 5-4 8-5zm-8-105l1 16-3 2h-1V19l3-6zm0 0" fill="#ffd500"/><path d="M132 29v4l-3-2 3-2zm0 0" fill="#ffd500"/><path d="M132 33l-1 1c-1 1-3-1-3-2v-1h1l3 2zm-2 106c1-1 3 2 1 3-1 1-3-1-1-3zm1-127v1h-4l1-1c0-1 3-2 3 0zm-3 1h3l-3 6v-6zm0 0" fill="#ffd500"/><path d="M130 139c-2 2 0 4 1 3-14 12-13 33-28 45-7 5-14 6-22 4-6-2-12-2-18 0l-13 6c-16 6-36 3-46-12-5-9-5-17-2-26 2-10 9-22 5-32-7-11 3-27 8-38-1 3 2 4 3 3-4 8-9 16-10 26 0 6 4 11 4 17-1 9-5 18-8 26-2 10 0 20 7 27 7 8 18 10 29 8 8-1 16-6 24-9l12-1 13 3c9 0 17-8 21-15 6-13 8-26 20-35zm0 0" fill="#ffd500"/><path d="M128 13v6c-9 18-30 27-49 33-13 3-25 5-36 13-10 7-20 15-25 26 0-2-2-3-3-2 5-9 13-16 21-23l14-10 17-5c24-6 51-14 60-38zm-3 27l1 2v1l-2-2 1-1zm1 3c0 3-1 6-3 8l-3 1 4-8 2-1zm0 0" fill="#ffd500"/><path d="M124 41l2 2-2 1v-3zm0 0M124 41v3c-19 13-45 12-61 29 0 1-2 0-1-2 17-17 43-16 62-30zm-4 11l3-1-2 3-1-2zm0 0M121 54v1h-1l-1-2 1-1 1 2zm0 0" fill="#ffd500"/><path d="M104 151c3 5 2 9 0 13-3 5-9 14-15 14-7 1-13-3-20-3-11 0-20 8-31 9-7 1-14-2-18-6-3-3-5-6-5-10 0-5 2-9 4-12 2-5 6-10 5-16 0-3-2-5-3-7-2-4-3-9-2-13s4-8 8-9c1 0 4 0 5-2 2-2 2-4 2-6 0-5 3-6 7-6h1c2 1 4 5 5 7s2 2 5 3c4 1 9-1 11-5 3-4 1-8-1-11-1-2-2-4 0-6 1-2 3-2 5-3 4 0 6 4 7 7 2 3 5 5 8 6 3 0 6-1 10 1 3 2 8 5 8 9l1 6c0 2 1 3 3 5 2 6-2 11-4 17v12l4 6zm-8 15c0-4-2-7-6-8-3 0-8 0-8 4l-1 2v2c0 1-1 3 1 5 3 4 10 1 12-2l2-2v-1zm-5-51c3-4-2-10-6-11l-6-3-4-2-4 1v1l-2 4v1l1 4c0 2 3 5 5 7l8 1 5-1 3-2zm-7 33c4-4 8-12 5-18-1-6-8-4-11 0h-1l-1 1-8 8v6c2 4 6 6 10 5h1l5-2zm-38-17c4-3 7-10 4-15-2-5-8-8-12-3l-1 2c-3 4-11 8-8 14l5 4c3 2 8 0 12-2zm1 42c2-3 3-7 3-10-1-3-5-6-7-8s-4-3-7-2l-7 4c-3 3-4 6-1 10l1 1v8c1 3 6 2 8 2l6-2h1l2-2 1-1zm0 0" fill="#8c8786"/><path d="M94 166l-5 4h-4c-3-1-2-3-2-4 3-2 10-3 11 0zm-4-6l3 2c-2-1-7 0-10 1l1-1c1-2 4-2 6-2zm-3-53l2 5-2-2c-1-2-2-2-5-2l-6-2-2-2h-2l1-2c0-2 7 3 8 4l6 1zm0 24l1 6-3 6 1-6c-1-4-3-7-5-7 2-2 5-3 6 1zm-9-21c3 1 10 0 9 5h-1c-2 1-8 1-10-1l-3-3-1-5c1-1 5 4 6 4zm0 0" fill="#555150"/><path d="M83 135v5c0 4-2 7-5 8s-5 0-6-1c-3-3-3-5 0-8a43 43 0 0 1 7-7c2 0 3 0 4 3zm-34-17l-1 7-5 5 2-4c1-3 0-5-1-8l-4-4h1c3-3 7 2 8 4zm-2 44v5c0-3-1-4-3-5-2-3-7-5-11-6l3-1 6 2 5 5zm0 0" fill="#555150"/><path d="M44 165c2 2 2 5 0 8-2 2-7 3-10 3-3-1-2-1-1-3v-4l-4-5c-1-2 0-3 1-5 3-1 7 1 10 2l4 4zm-1-42l-2 6c-2 2-5 2-7 1v1c-3-1-4-4-3-7l4-3 4-4h1l3 6zm0 0" fill="#555150"/><path d="M15 89c1-1 3 0 3 2v1c-1 1-4 0-3-3zm0 0" fill="#ffd500"/><path d="M46 95s2-20 25-27c23-6 50-16 53-24 2-8 0 0 0 0l-3 13s13-11 35-20c21-10 32-21 32-21l-23 66s20-7 23-18c0 0 3 36-31 52 0 0-49 11-53 35zm0 0" fill="#df3e60"/><path d="M91 157c3 1 5 5 5 9v-1l-3-3-4-2h1l1-3zm0 0" fill="#2e2a37"/><path d="M94 166v-2l-1-2 3 3v1h-2zm0 0" fill="#2e2a37"/><path d="M94 166c-1 1-3 3-5 3h-4c-3-1-2-3-2-4v-1c3-1 10-2 11 2zm0 0" fill="#555150"/><path d="M89 160c-1-1 0-3 1-3h1l-1 3h-1zm-3-46c2 0 2-1 2-2v4c-1 0-2 0-2-2zm0 0" fill="#2e2a37"/><path d="M78 110c3 0 10 0 8 4-3 2-8 2-10-1l-3-3-1-5 6 5zm8 26c-1-4-3-6-5-7 2-2 5-2 6 1l1 6-3 6 1-6zm7 26H83l1-1c1-2 4-1 5-1l4 2zm0 0" fill="#555150"/><path d="M94 166c-1-4-8-3-11-2v-2h10l1 2v2zm0 0M83 164c-1 2-1 0-1-1l1-1v2zm0 0" fill="#2e2a37"/><path d="M83 134v5c0 4-2 6-5 8-3 1-5 1-6-1-3-3-3-5-1-8l8-7c2 0 3 0 4 3zm0 0" fill="#555150"/><path d="M81 163l1-2c0-4 5-4 8-4h1-1c-1 0-2 2-1 3-1 0-4-1-5 1l-1 1-1 1zm1 0c0 1 0 3 1 1v1c0 1-1 3 2 4h4c2 0 4-2 5-3h2l-2 3c-2 3-9 5-12 1-2-2-1-3-1-6v-1zm-2-34h1l-1 1v-1zm-2 0h2-2zm0 0h2v1h-1c-1 1-2 0-1-1zm1 20h-1v1l1-1zm0 0" fill="#2e2a37"/><path d="M85 142l-4 4-3 1c3-2 5-4 5-8v-5c-1-3-2-3-4-3l1-1 1-1c2 1 4 3 5 7l-1 6zm0 0" fill="#2e2a37"/><path d="M87 130c-1-3-4-3-6-1h-1-2c3-4 10-5 11 1 3 6-1 13-5 17l-5 2 6-7 3-6-1-6zm0 0" fill="#2e2a37"/><path d="M78 131c-1 1-2 0-2-1l2-1c-1 1 0 2 1 1h1l-1 1h-1zm0 0" fill="#2e2a37"/><path d="M78 129l-2 1 1-1h1zm7 13l-6 7-1 1c-2-1-2-2-1-2l1-1 3-1 4-4zm-4-37c-1 0-8-6-8-4v1-1c0-1-1-2-2-1l4-1 4 1c1 2 3 2 6 3 4 1 9 7 6 11l-3 3v-1-4c1-2 0-4-1-6l-6-1zm0 0" fill="#2e2a37"/><path d="M74 103l-2-1h1v-1c0-2 7 4 8 4l6 1c1 2 2 4 1 6l-1-2c-1-3-2-3-5-3l-6-2-2-2zm0 0" fill="#555150"/><path d="M73 102c-1 0-3 0-2-1v-1c1-1 2 0 2 1v1zm5 8l-6-5v-3l2 1 2 2 6 2c3 0 4 0 5 3l1 2c0 1 0 2-2 2 2-4-5-4-8-4zm0 0M71 105h-2v-1l3-2v3h-1zm0 0" fill="#2e2a37"/><path d="M69 104l2-4v1c-1 1 1 1 2 1h-1l-3 2zm-1 40v-6l8-8c0 1 1 2 2 1h1l-8 7c-2 3-2 5 1 8 1 2 3 2 6 1l-1 1c-1 0-1 1 1 2-4 0-8-1-10-6zm7-28l-6-7v-4h3l1 5 3 3c2 3 7 3 10 1 0 2 1 2 2 2v1h-5c-2 0-5 1-8-1zm0 0" fill="#2e2a37"/><path d="M49 117l-1 8c-1 2-3 4-5 4l2-4c1-2 0-5-1-7l-4-4v-1h1c3-3 7 1 8 4zm0 0" fill="#555150"/><path d="M44 172l3-6c1 2 1 5-1 7l-3 2v-2l1-1zm0 0" fill="#2e2a37"/><path d="M44 164c2 2 2 6 0 8s-7 4-10 3-2-1-1-3v-4c-2-1-3-2-4-5-1-2 0-3 1-5 3-1 7 1 10 2l4 4zm0 0" fill="#555150"/><path d="M46 173l-2 2h-1l3-2zm0 0" fill="#2e2a37"/><path d="M43 123l-2 6-7 1c-3-1-4-4-3-7l4-3 4-4h1c2 2 3 4 3 7zm0 0" fill="#555150"/><path d="M41 95h-1l1-2 2 2h-2zm0 0M41 95h2l-1 1h-1l-1-1h1zm0 0" fill="#2e2a37"/><path d="M41 96h1c2 0 4 5 5 8 1 1 2 2 5 2 4 1 9-1 11-5 3-4 1-7-1-11-1-2-2-4 0-6l5-2c4 0 6 3 7 6l8 6c3 1 6-1 10 1 3 1 8 5 8 9l1 7 2 4c3 6-1 11-3 17v12l4 6c3 5 2 10 0 14-3 5-9 14-15 14-7 0-13-4-20-4-11 0-20 8-31 10-7 0-14-3-18-7-3-3-5-6-5-10l3-12c3-5 7-10 6-16l-3-7c-2-4-4-9-2-13 1-4 4-7 8-8l5-3c2-2 2-4 2-6 0-5 3-6 7-6zm55 70c0-4-2-8-5-9h-1c-3 0-8 0-8 4l-1 2v1c0 3-1 4 1 6 3 4 10 2 12-1l2-3zm-5-52c3-4-2-10-6-11-3-1-5-1-6-3l-4-1-4 1-2 4v5l6 7c3 2 6 1 8 1h5l3-3zm-7 33c4-4 8-11 5-17-1-6-8-5-11-1h-1l-1 1-8 8v6c2 5 6 6 10 6v-1h1l5-2zm-38-16c4-4 7-10 4-15-2-5-8-9-12-3l-1 1c-3 5-11 8-8 15 1 2 3 3 5 3 3 1 8 0 12-1zm1 41c2-2 3-7 3-10-1-3-5-6-7-8-2-1-4-3-7-3v1l-7 4c-3 3-4 7-1 10l1 2v7c1 3 6 3 8 2l6-2h1l2-2 1-1zm0 0" fill="#9d9e9e"/><path d="M41 113h-1 1zm-3 0h2v1l-2-1zm0 0M39 113h-1v-1c1-1 3 0 3 1h-1-1zm0 0M38 113zm0 0" fill="#2e2a37"/><path d="M40 114l-1 2-2-2 1-1 2 1v-1 1zm0 0M37 114l1-1-1 1zm13 48c0 3-1 8-3 10l-1 1c2-2 2-5 1-7v-5l-5-5-6-2v-3c3 0 5 2 7 3 2 2 6 5 7 8zm0 0M36 154v-3 3zm0 0" fill="#2e2a37"/><path d="M47 166c0-2-1-4-3-5-2-2-7-5-11-5l3-2 6 2 5 5v5zm0 0" fill="#555150"/><path d="M43 129c-2 3-5 3-9 3v-2l4 1 5-2zm0 0" fill="#2e2a37"/><path d="M48 125l1-8c-1-3-5-7-8-4 0-1-2-2-3-1v1c4-6 10-2 12 3 3 5 0 11-4 15-4 1-9 2-12 1 4 0 7 0 9-3 2 0 4-2 5-4zm0 0" fill="#2e2a37"/><path d="M44 118c1 2 2 5 1 7l-2 4-5 2-4-1 7-1 2-6c0-3-1-5-3-7h-1l1-2 4 4zm0 54c2-2 2-6 0-8l-4-4c-3-1-7-3-10-2l1-1 2-1c4 0 9 3 11 5 2 1 3 3 3 5l-3 6zm-15-16l7-4v2l-3 2h-4zm0 0" fill="#2e2a37"/><path d="M30 158c-1 1-2-1-1-2h4l-2 1-1 1zm-1-29c-3-7 5-10 8-15l2 2-4 4-4 3c-1 3 0 6 3 7v2c-2 0-4-1-5-3zm0 0" fill="#2e2a37"/><path d="M28 166c-3-3-2-7 1-10-1 1 0 3 1 2-1 2-2 3-1 5 1 3 2 4 4 5v4c-1 2-2 2 1 3s8-1 10-3l-1 1v2l-6 2c-2 1-7 1-8-2v-2-5l-1-2zm1-10zm0 0" fill="#2e2a37"/><path d="M63 101c-2 4-7 6-11 5-3 0-4-1-5-2-1-3-3-8-5-8l1-1 3 4 3 4c1 2 4 2 5 2l7-4c2-2 2-5 1-7l-3-7 1-3c2-3 7-5 10-3 5 2 6 10 12 11h7c4 1 6 3 9 6 2 1 3 2 3 4v3c0 5 4 8 5 13 2 8-7 15-5 23 1 5 6 8 6 13 1 3 0 6-1 8-2 5-6 10-10 13l-3 4h-5c-7 0-14-3-20-3-12 0-21 10-33 9-6 0-12-3-17-7l-5-8v-6c1-4 3-9 6-13 2-3 4-7 4-11l-3-7c-3-4-4-10-3-15 1-4 5-8 10-10l4-1c2-2 0-4 0-6 1-2 2-5 4-6h5l1 1c-4 0-7 1-7 6 0 2 0 4-2 6l-5 3c-4 1-7 4-8 8-2 4 0 9 2 13l3 7c1 6-3 11-6 16l-3 12c0 4 2 7 5 10 4 4 11 7 18 7 11-2 20-10 31-10 7 0 13 4 20 4 6 0 12-9 15-14 2-4 3-9 0-14l-4-6v-12c2-6 6-11 3-17l-2-4-1-7c0-4-5-8-8-9-4-2-7 0-10-1l-8-6c-1-3-3-6-7-6l-5 2c-2 2-1 4 0 6 2 4 4 7 1 11zm0 0" fill="#2e2a37"/><path d="M49 103l-3-4-3-4-2-2c3 0 5 2 6 4 2 2 2 5 6 6 2 1 6-2 7-4 3-4-2-7-3-11 0-2 0-4 2-6 3-3 9-5 13-2l6 7c1 1 2 3 4 3h6c5 1 11 5 14 9 2 3 0 5 1 8l4 8c2 5 0 10-2 15-1 3-3 7-3 11l6 9c3 5 1 11-2 16-2 5-7 12-12 14-6 3-13 0-19-1-9-2-15 0-24 3-5 3-10 5-17 5-6 0-12-3-17-7-4-4-7-9-6-15 1-8 6-13 9-20s-4-13-5-20c0-6 1-12 6-15 2-2 4-2 7-3 3-2 1-6 3-9 2-4 6-5 10-5l-1 2h-5c-2 1-3 4-4 6 0 2 2 4 0 6l-4 1c-5 2-9 6-10 10-1 5 0 11 3 15l3 7c0 4-2 8-4 11-3 4-5 9-6 13v6l5 8c5 4 11 7 17 7 12 1 21-9 33-9 6 0 13 3 20 3h5l3-4c4-3 8-8 10-13 1-2 2-5 1-8 0-5-5-8-6-13-2-8 7-15 5-23-1-5-5-8-5-13v-3c0-2-1-3-3-4-3-3-5-5-9-6h-7c-6-1-7-9-12-11-3-2-8 0-10 3l-1 3 3 7c1 2 1 5-1 7l-7 4c-1 0-4 0-5-2zm0 0" fill="#2e2a37"/><path d="M102 142c0-4 2-7 3-11 2-5 4-10 2-15l-4-8c-1-3 1-6-1-8-3-5-9-8-14-8l-6-1-4-4-5-6c-5-3-11-2-14 2-2 1-2 4-2 6 1 4 6 6 3 11-1 2-5 4-7 4-3-1-4-4-6-6-1-3-3-4-6-4-4-1-8 0-10 5-2 2 0 7-3 8s-5 1-7 4c-5 3-6 9-6 14 1 7 8 14 5 21s-8 13-9 20c-1 6 2 10 6 14 5 5 11 7 18 8 6 0 11-2 17-4 8-4 14-6 23-5 6 1 13 5 19 2 5-3 10-9 12-14 3-5 5-11 2-17l-6-8zm2 22c-3 5-9 14-15 14-7 1-13-3-20-3-11 0-20 8-31 9-7 1-14-2-18-6-3-3-5-6-5-10 0-5 2-9 4-12 2-5 6-10 5-16 0-3-2-5-3-7-2-4-3-9-2-13s4-8 8-9c1 0 4 0 5-2 2-2 2-4 2-6 0-5 3-6 7-6h1c2 1 4 5 5 7s2 2 5 3c4 1 9-1 11-5 3-4 1-8-1-11-1-2-2-4 0-6 1-2 3-2 5-3 4 0 6 4 7 7 2 3 5 5 8 6 3 0 6-1 10 1 3 2 8 5 8 9l1 6c0 2 1 3 3 5 2 6-2 11-4 17v12l4 6c3 5 2 9 0 13zm0 0" fill="#2e2a37"/><path d="M90 158c-3 0-8 0-8 4l-1 2v2c0 1-1 3 1 5 3 4 10 1 12-2l2-2v-1c0-4-2-7-6-8zm-6 4c1-2 4-2 6-2l3 2c-2-1-7 0-10 1l1-1zm5 8h-4c-3-1-2-3-2-4 3-2 10-3 11 0l-5 4zm0-40c-1-6-8-4-11 0h-1l-1 1-8 8v6c2 4 6 6 10 5h1l5-2c4-4 8-12 5-18zm-2 1l1 6-3 6 1-6c-1-4-3-7-5-7 2-2 5-3 6 1zm-15 16c-3-3-3-5 0-8a43 43 0 0 1 7-7c2 0 3 0 4 3v5c0 4-2 7-5 8s-5 0-6-1zm3-30l8 1 5-1 3-2c3-4-2-10-6-11l-6-3-4-2-4 1v1l-2 4v1l1 4c0 2 3 5 5 7zm1-3l-3-3-1-5c1-1 5 4 6 4 3 1 10 0 9 5h-1c-2 1-8 1-10-1zm5-8l6 1 2 5-2-2c-1-2-2-2-5-2l-6-2-2-2h-2l1-2c0-2 7 3 8 4zm-43 7l-1 2c-3 4-11 8-8 14l5 4c3 2 8 0 12-2 4-3 7-10 4-15-2-5-8-8-12-3zm-7 11l4-3 4-4h1l3 6-2 6c-2 2-5 2-7 1v1c-3-1-4-4-3-7zm17 1l-5 5 2-4c1-3 0-5-1-8l-4-4h1c3-3 7 2 8 4l-1 7zm-5 30c-2-2-4-3-7-2l-7 4c-3 3-4 6-1 10l1 1v8c1 3 6 2 8 2l6-2h1l2-2 1-1c2-3 3-7 3-10-1-3-5-6-7-8zm-7 0l6 2 5 5v5c0-3-1-4-3-5-2-3-7-5-11-6l3-1zm-2 21c-3-1-2-1-1-3v-4l-4-5c-1-2 0-3 1-5 3-1 7 1 10 2l4 4c2 2 2 5 0 8-2 2-7 3-10 3zm0 0" fill="#2e2a37"/></svg>