<svg xmlns="http://www.w3.org/2000/svg" width="187" height="265" viewBox="0 0 140 199"><path d="M101 121c2-3 4-6 5-5-3-3-11-3-15-4-9-3-16-8-16-8s1 18 3 17 21 7 25 7c-2 0-2-3-2-7zm0 0" fill="#ca2627"/><path d="M103 117c-8-3-18-3-26-8l-2-2c0 5 1 14 3 14 2-1 21 7 25 7-2 0-2-3-2-7l2-4zm0 0" fill="#e31e24"/><path d="M98 116c-1 3-2 7-1 10l6 2-2-4s0-4 2-6l-5-2zm0 0" fill="#f8fcfc"/><path d="M100 113l-2 3c-1 3-2 7-1 10l6 2-2-4s0-4 2-7h1l2-1-6-3zm0 0" fill="#f8fcfc"/><path d="M104 117l2-1-6-3-2 3 5 1h1zm-21-8l-8-5s1 18 3 17h3c-2-5 0-10 2-12zm0 0" fill="#e3e8e8"/><path d="M77 109l-2-2c0 5 1 14 3 14h3c-1-4-1-7 1-10l-5-2zm0 0" fill="#f8fcfc"/><path d="M93 113l-2-1a11 11 0 0 1-3-1c-1 2-3 7-2 12l5 2 2-12zm0 0" fill="#e3e8e8"/><path d="M87 113c-1 2-2 6-1 10l5 2 2-11-6-1zm0 0" fill="#f8fcfc"/><path d="M78 121l14 4 10 3-1-7c1-3 3-5 5-6l-10-2-5-1c-8-2-15-7-16-8 0 7 1 17 3 17zm25 7l-11-3-14-4c-3 0-3-15-3-17s7 5 16 8l6 1c3 0 7 1 9 3h1-1c-2 0-3 2-4 5-1 4-1 7 1 7zm0 0" fill="#912824"/><path d="M102 121c-1 4-1 7 1 7 1 1 3-2 4-5 1-4 1-7-1-7-1-1-3 2-4 5zm0 0" fill="#b42828"/><path d="M106 116c-1-1-3 2-4 5l-1 3 2 1 4-1v-1c1-4 1-7-1-7zm0 0" fill="#ca2627"/><path d="M102 121l-1 3 4 2 2-8-2-2c-2 1-3 3-3 5zm0 0" fill="#f7cfb5"/><path d="M101 124l4 2 2-8-3-1-2 4-1 3zm4 2l-4-2v-3l3-5h1l2 2c1 1-2 7-2 8zm0 0" fill="#a46b53"/><path d="M106 116c-2 0-3 2-4 5l-1 5 2 2c2 0 3-2 4-5v-5l-1-2zm-3 12l-2-2v-5c1-3 3-6 5-6l2 3-1 5c0 3-2 5-4 5zm0 0" fill="#912824"/><path d="M105 127s-3-2-1-6c0-1 2-6 6-4h7l3-2h2c1 2-1 5-4 6 1 2 8 5 7 7 1 0 7 3 6 4h-3l1 2h-8l2 2c-2 2-13-3-18-9zm0 0" fill="#efeff0"/><path d="M105 125s-2 0 0-5c0 0 1-5 5-3h7l3-2h2c1 2-1 5-4 6 1 2 7 5 6 6 1 1 7 3 6 5h-3l1 2-8-1 2 3c-2 2-12-5-17-11zm0 0" fill="#fcfbfb"/><path d="M108 117c-2 0-4 4-4 4-1 4 1 6 1 6 4 5 13 9 17 9h1l-2-2v-1 1h8l-1-1v-1h3v-1l-5-3h-1l-4-4-3-3h-1 1c3-2 5-4 4-6h-1-1l-3 2h-3l-4 1h-1l-1-1zm14 20c-4 0-13-5-17-10 0 0-3-2-1-6 0-1 1-4 4-4h9l3-2 1-1 1 1c1 2-1 5-4 6l4 3 4 4 5 3v1l-2 1v2h-1l-6-1 1 2-1 1zm0 0" fill="#aeacab"/><path d="M122 134l-5-3 5 3zm6-1l-9-4v-1l10 4zm-2-5l-5-2 5 2zm0 0" fill="#aeacab"/><path d="M115 131s5-2 6-6v1c-1 3-3 4-5 5h-1zm0 0" fill="#aeacab"/><path d="M105 127v-3 3zm0 0" fill="#99adc9"/><path d="M107 120l3-3-3 3zm9 1h-2 4-2zm0 0" fill="#aeacab"/><path d="M44 154s5 11-1 26l10 2 13-17c1-2-16-13-22-11zm0 0" fill="#53953b"/><path d="M64 162c-5-4-15-9-20-8 0 0 5 11-1 26l1 1c10-1 16-10 20-19zm0 0" fill="#53a13b"/><path d="M48 161c0-2-1-3-3-3l1 6c1 0 2-1 2-3zm0 0" fill="#f18d16"/><path d="M57 174c-1 0-3 1-3 3v4l5-6-2-1zm0 0" fill="#e77b1e"/><path d="M56 174c-1 0-2 1-2 3h-1l3-3zm-8 1c1-2 0-3-2-4h-1l-1 6c2 0 3 0 4-2zm0 0" fill="#f18d16"/><path d="M43 180l10 2a824 824 0 0 0 13-17v-1c-3-3-15-10-21-10h-1c1 1 5 13-1 26zm10 3l-10-3c6-15 1-26 1-26h-1 1l1-1c7 0 18 7 21 11v1l-7 10-6 8zm0 0" fill="#3f522d"/><path d="M89 145l1 41c1 3-9 4-9 2-5-13-10-17-12-25l20-18zm0 0" fill="#53953b"/><path d="M86 182c3-12 0-24 2-36l-19 17c2 8 7 11 12 25 2-2 4-3 5-6zm0 0" fill="#53a13b"/><path d="M74 173c2 0 3-2 3-4-1-2-2-4-4-4l-2 4 2 4h1zm0 0" fill="#f18d16"/><path d="M69 163l4 9 8 16 2 1 6-2 1-1-1-40-20 17zm14 26l-2-1-8-16-5-8 11-10 10-9h1v42l-7 2zm0 0" fill="#3f522d"/><path d="M53 101h22v32l-26 2zm0 0" fill="#e9eeed"/><path d="M75 115v-14H53l-1 12c8 1 15 3 23 2zm0 0" fill="#ca2627"/><path d="M75 121v-6c-8 1-15-1-23-2l-1 7c8 2 17 4 24 1zm0 0" fill="#ca2627"/><path d="M75 128v-7c-7 3-16 1-24-1l-1 6c8 1 17 3 25 2zm0 0" fill="#ca2627"/><path d="M57 132c10-8 16-19 18-31H53l-3 27c3 2 6 5 7 4zm0 0" fill="#f8fcfc"/><path d="M51 120l-1 6 11 2 5-6-15-2zm20-5l4-14H53l-1 12 19 2zm0 0" fill="#e31e24"/><path d="M54 101l-4 34 25-2v-32zm-5 34l4-34h22v32zm0 0" fill="#252422"/><path d="M5 96l-5-4 3-1s-2-1-1-2l3 1h11c-2-2-2-6-1-6 2-1 3 3 5 4 5 2 6 7 6 7l-3 6s-11 2-18-5zm0 0" fill="#efeff0"/><path d="M6 96l-5-4h4l-3-3c1-1 3 1 3 1h11c-2-2-2-6-1-6 2-1 3 3 5 4 5 2 6 7 6 7l-3 6s-10 2-17-5zm0 0" fill="#fcfbfb"/><path d="M1 91l-1 1 5 4c5 5 12 5 15 5h3l3-6c0-1-1-5-6-7l-3-2-1-2h-1l-1 1 2 5v1h-1l-9-1H5l-2-1a1 1 0 0 0-1 0l1 2 1 1H3l-2-1zm19 11c-3 0-10-1-15-6l-5-4 1-1h1l-1-2h2l2 1 1-1 9 1-1-5 1-2h1l2 3 2 2c5 2 6 7 6 7l-3 6-3 1zm0 0" fill="#aeacab"/><path d="M23 94l-13 3s-5-5-7-3c-1 1 3 5 5 6l8 2h8zm0 0" fill="#efeff0"/><path d="M23 94l-13 3s-4-4-6-3c-1 1 3 4 5 5l7 2c1 0 6-2 8-1zm0 0" fill="#fcfbfb"/><path d="M16 103l-8-3-5-5v-1h1c2-1 6 3 6 3l-6-3H3c0 2 4 5 5 6l8 2h7-5l-2 1zm-5-9c-1-2-6-4-6-4l7 3zm-1 2l-7-5 8 4zm0 0" fill="#aeacab"/><path d="M10 98v-1l2-4v-1l-2 6zm0 0" fill="#aeacab"/><path d="M54 102s-7 0-16-5l-11-4c-1 0-6 5-5 11 0 2 22 7 27 10 2 2 5-12 5-12zm0 0" fill="#ca2627"/><path d="M38 97l-11-4c-1 0-3 2-4 6 5 7 17 6 25 10l3 3 3-10s-7 0-16-5zm0 0" fill="#e31e24"/><path d="M49 102c-1 1-4 5-4 11l4 1c2 2 5-12 5-12h-5zm0 0" fill="#e3e8e8"/><path d="M49 102l-3 6 2 1 3 3 3-10h-5zm0 0" fill="#f8fcfc"/><path d="M32 94l-5-1c-1 0-6 5-5 10l6 4c-1-6 2-11 4-13zm0 0" fill="#e3e8e8"/><path d="M27 93l-5 7 6 3 4-9-5-1zm0 0" fill="#f8fcfc"/><path d="M43 100l-5-3h-1c-1 2-4 6-4 11l7 2c-2-5 1-9 3-10zm0 0" fill="#e3e8e8"/><path d="M38 97h-1l-4 8 7 1c0-3 2-5 3-6l-5-3zm0 0" fill="#f8fcfc"/><path d="M27 93c-1 0-6 5-5 11l13 5 14 5c2 0 4-8 5-12-2 0-8 0-16-4-6-4-10-5-11-5zm22 22c-2-2-8-4-14-6-8-2-13-4-13-5-1-6 4-11 5-11v-1l11 5c8 5 15 5 16 5 0 2-2 13-5 13zm0 0" fill="#912824"/><path d="M81 125c-6-13-3-23-3-23s-3-4-4 0-1 16-4 19l-13 13c-8-14-3-33-3-33l-8 20-4 11c-2 7-7 20 5 30l21 3 20-7c7-17-3-27-7-33zm0 0" fill="#53953b"/><path d="M88 144c-6-14-17-28-12-43-1-1-2-1-2 1-1 4-1 16-4 19l-13 13c-8-14-3-33-3-33l-8 20-4 11c-2 7-7 20 5 30l21 3 20-7 1-6-1-8zm0 0" fill="#53a13b"/><path d="M48 161c0-2-1-3-3-3l-1 1 1 2 3 1v-1zm-5-29c2 0 3-1 4-4 0-2 0-3-2-4l-2 7v1zm-1 18c0-2-1-3-3-3l2 7 1-4zm0 0" fill="#f18d16"/><path d="M90 142c-2 0-3 2-2 4l2 3v-7zm0 0" fill="#e77b1e"/><path d="M88 146l1 2-1-4v2zm0 0" fill="#f18d16"/><path d="M46 161c-11-10-6-24-4-29l1-1 3-11 7-19 1-1v1s-4 19 3 33l4-4 8-9c3-2 3-8 4-13l1-6 1-2 3 1v1s-3 11 3 23a27 27 0 0 0 3 4c4 6 9 14 5 27l-1 2c6-14 0-23-4-29l-3-4c-6-11-4-22-3-23h-1l-2-1-1 1-1 6c0 5-1 11-3 13a139 139 0 0 0-13 13c-7-11-4-27-4-32l-7 19-3 10v1c-2 5-8 20 4 30l-1-1zm0 0" fill="#3f522d"/><path d="M53 102s-3 12 0 13 9-6 10-5c2 0 4 7 8 7 3-1 5-9 3-13l-21-2zm0 0" fill="#e9eeed"/><path d="M71 114c2-2 2-7 2-11l-20-1s-2 9-1 12c4 1 7-5 10-6 3 0 7 7 9 6zm0 0" fill="#f8fcfc"/><path d="M63 109l2 3c2 2 3 4 6 4l2-1c1-2 2-8 1-11l-21-2c0 2-3 12 0 13h1l7-4 2-2zm8 8c-3 0-5-3-6-5l-2-2-2 1-7 4h-1c-3-1 0-12 0-13l22 2c1 3 0 9-2 11l-2 2zm0 0" fill="#99adc9"/><path d="M61 100l1-2v1l-1 1zm0 0" fill="#ef7d8d"/><path d="M86 132l-1 4c-1 1-3 0-3-2v-4c1-1 3 0 4 2zm0 0" fill="#e77b1e"/><path d="M82 134l2 2-3-5 1 3zm-2 8c1 2 0 4-1 5l-4-3c-1-2-1-4 1-4 1-1 3 0 4 2zm5 12c1 2 0 4-2 4-1 1-3-1-3-3l2-4c2 0 3 1 3 3zm2 13c1 2 0 4-2 4l-3-4 2-4c2 0 3 1 3 4zm-2 11c1 2 0 4-2 4-1 0-3-2-3-4l2-4c2 0 3 2 3 4zm-17-38c1 2 0 4-2 4-1 0-3-2-3-4l2-4c2 0 3 2 3 4zm4 14c1 2 0 4-2 4-1 0-3-2-3-4l2-4c2 0 3 2 3 4zm-19-3l-2 4c-2 0-3-2-3-4l2-4c2 0 3 2 3 4zm6 17c0 2-1 3-3 3-2 1-3-1-3-2l2-4c2 0 3 1 4 3zm-11-27l-4 3-2-5c1-2 2-3 4-2l2 4zm7-6c0 2-2 3-3 3l-2-4c1-2 2-3 3-2 2 0 2 2 2 3zm20-5c0 2 0 5-2 5-1 1-3-1-3-3-1-2-1-4 1-5l4 3zm0 0" fill="#f18d16"/><path d="M59 118s-1-4-7-4c-1 0-4 1-3 6v4c0 1-1 5 2 5 5 0 7-8 8-10v-1zm0 0" fill="#326ab1"/><path d="M53 127c2-3 3-6 7-8l-1-1s-1-4-7-4c-1 0-4 1-3 6v7h4zm0 0" fill="#4a77ba"/><path d="M53 114h-1l-2 1v5l-1 4v4l2 1c3 0 5-4 6-6l2-4v-1s-1-4-6-4zm-2 15l-2-1v-4-4l1-5 2-1h1c5 0 7 4 7 4v2c-1 0-2 1-2 3-2 3-4 6-7 6zm0 0" fill="#1f4d80"/><path d="M53 122l6-3v1c-2-1-6 2-6 2zm0 0" fill="#1f4d80"/><path d="M64 119s9-8 13 0v7c1 1 2 4-1 5-4 0-9-9-12-10v-2zm0 0" fill="#326ab1"/><path d="M74 129h2v-3c-1-4 2-6 0-9-4-5-12 2-12 2v1c4 1 6 8 10 9zm0 0" fill="#4a77ba"/><path d="M64 119v2l4 3c2 3 5 7 8 6h1v-4-3-4c-1-2-3-3-5-3s-4 0-7 3h-1zm12 12c-3 0-6-3-9-6l-3-4v-3l8-3c2 0 4 2 5 4l1 4h-1v1l1 2v4l-2 1zm0 0" fill="#1f4d80"/><path d="M65 120v-1c5 0 8 4 8 4s-3-4-8-3zm0 0" fill="#1f4d80"/><path d="M59 117c1-1 5-2 6 1v3h-5l-1-4zm0 0" fill="#326ab1"/><path d="M65 117c-1-2-5-1-6 0v3c3 1 7 0 6-3zm0 0" fill="#4a77ba"/><path d="M62 116l-3 1 1 4 2 1 3-1v-3c-1-2-2-2-3-2zm0 6l-2-1-1-4 3-2c2 0 3 1 3 2v4l-3 1zm0 0" fill="#1f4d80"/><path d="M21 191s-4 1-2 3c3 3 15 7 25 0v2s8 0 10-2l1-3H21zm0 0" fill="#7e2b28"/><path d="M44 194l1 1c2 1 6 0 8-1v-3H21s-4 1-2 3c1 1 13 6 25 0zm0 0" fill="#8f2f2b"/><path d="M21 191l-2 2v1c2 2 7 4 13 4 4 0 8-1 12-4v2h2c2 0 7 0 8-2l1-3H21zm11 7c-6 0-11-2-13-4l-1-1c1-2 3-2 3-2h34v4l-9 1h-2v-1l-12 3zm0 0" fill="#522c28"/><path d="M44 180s-4 4-12 2c-3 0-1 14-1 14s5 1 11-2l3-1c1 0 8 0 9-2v-9c-1 1-7 2-10-2zm0 0" fill="#efeff0"/><path d="M37 194l15-4 2-1v-7c-1 1-7 2-10-2 0 0-4 4-12 2-2 0-1 10-1 13l6-1zm0 0" fill="#fefefc"/><path d="M32 196h1c2 0 5 0 9-2l2-1h3c2 0 6 0 7-2v-8h-3c-3 0-6 0-7-3-1 1-4 3-8 3l-4-1v1c-2 1-1 12 0 13zm1 0h-2v-14h1l4 1c5 0 7-3 7-3h1c1 2 4 3 7 3l3-1v9c-1 2-4 2-7 2h-2l-3 1c-4 2-7 2-9 2zm0 0" fill="#99adc9"/><path d="M33 196s6-10-1-15c-3-3-11-5-12 3-1 3-1 7 1 9 0 1 4 3 12 3zm0 0" fill="#ca2627"/><path d="M32 181c-3-3-11-5-12 3v7c3 3 9 4 14 4 1-3 3-10-2-14zm0 0" fill="#e31e24"/><path d="M26 178c-3 0-6 1-6 6 0 2-1 7 1 9 0 1 4 3 12 3 0-1 6-10-1-15l-6-3zm7 18c-8 0-12-2-12-3-2-2-2-6-1-9 0-5 4-6 6-6l6 2c7 6 1 16 1 16zm0 0" fill="#912824"/><path d="M45 193c1 0 8 0 9-2v-8c-3 1-8 5-9 10zm0 0" fill="#ca2627"/><path d="M53 183c-3 2-6 5-8 9 5-1 8-4 8-9zm0 0" fill="#e31e24"/><path d="M45 193h2c2 0 6 0 7-2v-8c-3 2-8 5-9 10zm2 0h-2c1-5 6-9 9-10v-1 9c-1 2-4 2-7 2zm0 0" fill="#912824"/><path d="M27 186l1-5 5 3v-2l-1-1c-3-3-11-5-12 3 1-1 3-3 5-3l2 5zm0 0" fill="#f39314"/><path d="M25 181l2 5 1-5v-1l4 3 1 1v-2l-1-1-6-3c-3 0-5 1-6 5l4-2zm2 5l-3-5-4 3c0-4 2-6 6-6l6 2 1 1v3h-1l-4-3c1 4 0 5-1 5zm0 0" fill="#865126"/><path d="M36 183l2-1c1 0 3 2 2 6h-1c-1-2 0-4-3-5zm0 0" fill="#ca2627"/><path d="M37 182l-1 1c3 1 2 3 3 5h1c0-2-1-5-3-6zm0 0" fill="#e31e24"/><path d="M39 188h1c0-4-1-5-2-6h-1l-1 1c2 1 3 2 3 4v1zm0 0v-1l-3-4 1-1h1c1 0 3 2 3 6h-2zm0 0" fill="#912824"/><path d="M40 182l2-1c0 1 2 2 2 6h-2c0-2 0-4-2-5zm0 0" fill="#ca2627"/><path d="M40 182c2 1 2 3 2 5h1c0-2 0-5-3-5zm0 0" fill="#e31e24"/><path d="M43 187h1c0-3-2-5-2-5h-1-1c2 1 2 3 2 4l1 1zm0 0h-1v-1c0-1 0-3-2-4s0-1 1-1h1l2 6h-1zm0 0" fill="#912824"/><path d="M43 179v1c0 1 4 6 11 4v-3s-6 2-11-2zm0 0" fill="#ca2627"/><path d="M51 182h1c-2 0-6 0-9-3v2c2 1 5 2 8 1zm0 0" fill="#e31e24"/><path d="M44 179l-1 1c0 1 3 4 7 4l4-1v-1h-3c-2 0-5-1-7-3zm6 5c-4 0-7-3-7-4v-2h1c2 3 5 4 7 4l3-1v3a13 13 0 0 1-4 0zm0 0" fill="#912824"/><path d="M112 191v1c1 1 3 4 0 5-1 1-9 4-21-1v2c-1 1-10 0-12-1l-1-4 34-2zm0 0" fill="#7e2b28"/><path d="M105 192l-27 1 1 4c2 1 11 2 12 1v-2c10 4 17 3 20 2-1-3-3-5-6-6zm0 0" fill="#8f2f2b"/><path d="M91 196l14 3c4 0 7-1 7-2l2-2-2-3v-1l-33 2h-1v1l1 3 9 1h3v-2zm14 3l-14-3v2l-3 1-10-2v-4h1l33-2 1 1 1 3-2 2c0 1-3 2-7 2zm0 0" fill="#522c28"/><path d="M104 179c-4 1-5 3-7 5h-8l-4 2h-5s-3 6-1 8 10 1 13 0l5 1c5 3 15 2 16-2zm0 0" fill="#efeff0"/><path d="M104 179l-5 3-1 4-10-1-3 1h-5s-3 6-1 8 10 1 13 0l5 1c5 3 15 2 16-2zm0 0" fill="#fefefc"/><path d="M104 197l-7-2-5-1c-3 1-11 2-13 0-3-2 0-7 1-8h5l3-1 1-1h8c2-3 3-4 7-5v1c-4 0-5 2-6 4h-9l-1 1-3 1-5 1c-1 0-3 5-1 7s9 1 13 0l5 1c3 2 9 2 12 1l4-4v1l-4 3-5 1zm0 0" fill="#99adc9"/><path d="M80 187c-1 1-3 5-1 7l5 1h2c0-4-4-7-6-8zm4 8l-5-1c-2-2 0-7 1-8 2 1 6 4 7 9h-3zm0 0" fill="#252422"/><path d="M104 197c-4 0-7-2-7-2-2-6 0-10 0-11 2-3 3-4 7-5 3 0 5 1 7 3 2 4 3 9 2 11-1 3-5 4-9 4zm0 0" fill="#ca2627"/><path d="M110 183l-2-3-4-1c-4 1-5 2-7 5 0 1-2 5 0 11l2 1c4 0 8 0 10-3 2-2 3-7 1-10zm0 0" fill="#e31e24"/><path d="M97 195c1 1 3 2 7 2 3 0 8-1 9-5 0-1 0-6-2-10-2-2-3-3-6-3l-1 1c-4 0-5 1-6 4h-1c-1 2-2 6 0 11zm7 2l-7-1v-1c-2-5-1-10 0-11 2-3 3-4 7-5h1c3 0 5 1 6 3 3 4 3 9 2 11-1 3-6 4-9 4zm0 0" fill="#912824"/><path d="M80 186c-1 1-3 6-1 8l7 1c0-4-4-7-6-9zm0 0" fill="#e31e24"/><path d="M80 187c-1 1-3 5-1 7l5 1h2c0-4-4-7-6-8zm4 8l-5-1c-2-2 0-7 1-8 2 1 6 4 7 9h-3zm0 0" fill="#912824"/><path d="M92 184h2l-2 4-2-1 2-3zm4 0l1 1-1 3c-1 1-2 0-2-1l2-3zm0 0" fill="#e31e24"/><path d="M96 184l1 1-1 3c-1 1-2 0-2-1l2-3zm-4 0h2l-2 4-2-1 2-3zm0 0" fill="#e31e24"/><path d="M96 184l1 1-1 3c-1 1-2 0-2-1l2-3zm0 0" fill="#e31e24"/><path d="M92 184h2l-2 4-2-1 2-3zm0 0" fill="#ca2627"/><path d="M90 187l2 1 1-3h-2l-1 2zm0 0" fill="#e31e24"/><path d="M93 184h-1l-2 3h1v1h1l2-4h-1zm-2 4h-1v-1l1-3 2-1 1 1-2 4h-1zm0 0" fill="#912824"/><path d="M94 187c0 1 1 2 2 1l1-2h-2l-1 1zm0 0" fill="#e31e24"/><path d="M96 184l-1 2h2v-1l-1-1zm0 0" fill="#ca2627"/><path d="M95 185l-1 2c0 1 1 2 2 1l1-2-2-1zm0 0" fill="#e31e24"/><path d="M96 184l-2 4h1l2-3-1-1zm-1 5a2 2 0 0 1-1-1v-1l1-3h1l2 1h-1l-1 3-1 1zm0 0" fill="#912824"/><path d="M80 185l-1 2s8 1 11-3l-1-2s-4 4-9 3zm0 0" fill="#ca2627"/><path d="M87 184c-1 1-4 2-7 1l-1 2h1c2-1 6-1 7-3zm0 0" fill="#e31e24"/><path d="M79 187h2c2 0 7 0 9-3l-1-1c-1 1-4 3-8 3h-1l-1 1zm2 1l-2-1 1-2h1c5 0 8-3 8-3h1v2c-2 3-6 4-9 4zm0 0" fill="#912824"/><path d="M103 188l2-6 5 3c1-2-1-4-3-5l-3-1c-4 1-5 3-7 5v2l4-4 2 6zm0 0" fill="#f39314"/><path d="M101 182c0 3 1 4 2 5l2-5 5 2-3-4h-3c-4 0-5 2-6 4h-1v1l4-3zm2 6l-2-5-4 3h-1l1-2c2-3 3-4 7-5h4l3 6h-1l-1-1-4-2-2 5zm0 0" fill="#912824"/><path d="M122 95c0 5 4 8 9 8s9-3 9-8-4-9-9-9-9 4-9 9zm0 0" fill="#1399a2"/><path d="M138 90c-2-2-4-4-7-4-5 0-9 4-9 9l2 6c6 1 15-4 14-11zm0 0" fill="#18a4b8"/><path d="M131 86c-5 0-9 4-9 9 0 4 4 8 9 8s9-3 9-8-4-9-9-9zm9 9v-1c0-4-4-8-9-8s-9 4-9 9 4 9 9 9 9-4 9-9zm0 0" fill="#22444e"/><path d="M123 92c0 2 1 3 2 3 2 0 3-1 3-3 0-1-1-2-3-2l-2 2zm0 0" fill="#21b0d7"/><path d="M118 39c0 5 4 9 8 9 6 0 10-4 10-9 0-4-4-8-10-8-4 0-8 4-8 8zm0 0" fill="#53953b"/><path d="M134 34c-2-2-4-3-8-3s-8 4-8 8c0 3 0 5 2 6 6 2 14-4 14-11zm0 0" fill="#5da839"/><path d="M126 31c-4 0-8 4-8 8 0 5 4 9 8 9 5 0 9-4 9-9 0-4-4-8-9-8zm0 17c-4 0-9-4-9-9 0-4 5-8 9-8 6 0 10 4 10 8 0 5-4 9-10 9zm0 0" fill="#3f522d"/><path d="M120 37l2 2 2-2c0-2-1-3-2-3s-2 1-2 3zm0 0" fill="#6eb535"/><path d="M77 9c0 4 4 8 8 8 6 0 10-4 10-8 0-5-4-9-10-9-4 0-8 4-8 9zm0 0" fill="#7d3a8b"/><path d="M85 0c-4 0-8 4-8 9 0 4 4 8 8 8 5 0 9-4 9-8 0-5-4-9-9-9zm0 18c-5 0-9-4-9-9s4-9 9-9c6 0 10 4 10 9s-4 9-10 9zm0 0" fill="#252422"/><path d="M77 9c0 4 4 8 8 8 6 0 9-4 9-8 0-5-3-9-9-9-4 0-8 4-8 9zm0 0" fill="#6f3186"/><path d="M92 3c-1-2-4-3-7-3-4 0-8 4-8 9l2 6c5 3 17-5 13-12zm0 0" fill="#7d3a8b"/><path d="M85 0c-4 0-8 4-8 9 0 4 4 8 8 8 5 0 9-4 9-8 0-5-4-9-9-9zm0 18c-5 0-9-4-9-9s4-9 9-9c6 0 10 4 10 9s-4 9-10 9zm0 0" fill="#492e5f"/><path d="M79 5c0 2 1 3 2 3 2 0 3-1 3-3 0-1-1-2-3-2l-2 2zm0 0" fill="#9a5ca0"/><path d="M33 23c0 5 4 9 9 9s9-4 9-9c0-4-4-8-9-8s-9 4-9 8zm0 0" fill="#ca2627"/><path d="M49 18c-2-2-4-3-7-3-5 0-9 4-9 8l2 6c5 3 16-4 14-11zm0 0" fill="#da2125"/><path d="M42 15c-5 0-9 4-9 8s4 9 9 9 8-4 8-9-3-8-8-8zm0 17c-5 0-9-4-9-9 0-4 4-8 9-8s9 4 9 8c0 5-4 9-9 9zm0 0" fill="#912824"/><path d="M35 20l2 2c2 0 3-1 3-2s-1-2-3-2l-2 2zm0 0" fill="#e63339"/><path d="M2 63c0 5 4 9 8 9 6 0 9-4 9-9s-3-9-9-9c-4 0-8 4-8 9zm0 0" fill="#e77b1e"/><path d="M18 58c-2-2-4-4-8-4s-8 4-8 9c0 3 1 5 3 7 6 1 12-6 13-12zm0 0" fill="#f18d16"/><path d="M10 55c-4 0-8 3-8 8s4 8 8 8c5 0 9-3 9-8s-4-8-9-8zm0 17c-5 0-9-4-9-9s4-9 9-9c6 0 10 4 10 9s-4 9-10 9zm0 0" fill="#b26029"/><path d="M3 60c0 2 1 3 2 3s2-1 2-3l-2-2-2 2zm0 0" fill="#f5c385"/><path d="M52 164s16 8 26-2zm0 0" fill="#53a13b"/><path d="M66 167l-12-2-2-2c1 1 16 8 26-1l-2 2c-3 2-7 3-10 3zm0 0" fill="#3f522d"/><path d="M65 167c-10-10-8-33-8-33s-1 23 9 33zm0 0" fill="#3f522d"/><path d="M53 144a5 5 0 0 0 4 5 5 5 0 0 0 5-5c0-2-2-4-5-4-2 0-4 2-4 4zm0 0" fill="#6eb535"/><path d="M57 141a3 3 0 0 0-3 3 3 3 0 0 0 3 3 3 3 0 0 0 3-3 3 3 0 0 0-3-3zm0 7c-2 0-3-2-3-4a3 3 0 0 1 7 0c0 2-2 4-4 4zm0 0" fill="#56963b"/><path d="M57 140c-2 0-4 2-4 4 0 3 2 5 4 5 3 0 5-2 5-5s-2-4-5-4zm0 9c-2 0-4-2-4-5 0-2 2-4 4-4 3 0 5 2 5 4 0 3-2 5-5 5zm0 0" fill="#3f522d"/><path d="M56 143l2 3c1 0 0 0 0 0l-2-2v-1zm0 0" fill="#3f522d"/><path d="M56 143l2 3-2-3zm2 3l-2-2v-1l3 3h-1zm0 0M58 143l-2 3 2-3zm0 0" fill="#3f522d"/><path d="M56 146l2-3zm0 0l2-3h1v1l-3 2zm0 0" fill="#3f522d"/><path d="M56 156c0 3 2 5 4 5 3 0 5-2 5-5 0-2-2-4-5-4-2 0-4 2-4 4zm0 0" fill="#6eb535"/><path d="M60 154a3 3 0 0 0-3 3c0 1 1 3 3 3s3-2 3-3a3 3 0 0 0-3-3zm0 6c-2 0-3-1-3-3s1-4 3-4a3 3 0 0 1 3 4c0 2-1 3-3 3zm0 0" fill="#56963b"/><path d="M60 152c-2 0-4 2-4 4 0 3 2 5 4 5s4-2 4-5c0-2-2-4-4-4zm0 9c-3 0-5-2-5-5 0-2 2-4 5-4s5 2 5 4c0 3-2 5-5 5zm0 0" fill="#3f522d"/><path d="M58 156l3 1v1l-3-2zm0 0" fill="#3f522d"/><path d="M58 156l3 2v-1l-3-1zm3 2l-3-2 3 1 1 1h-1zm0 0" fill="#3f522d"/><path d="M60 155v3l-1 1v-1l1-3zm0 0" fill="#3f522d"/><path d="M59 158l1-3zm1 1h-1v-1l1-3h1l-1 4zm0 0" fill="#3f522d"/><path d="M46 67l-1 1 1-1c-2 0-4-2-5 2 0 0-4-2-4 2-1 0-4-1-4 2 0 0-3-2-3 2-1 0-3 0-2 3 0 0-4 0-2 3-1 0-5 0-4 3 1 2 5 0 5 0s-1 6 4 2c0 1 1 5 4 2 1 1 0 3 4 2 0 0 1 2 3 0l5-22-1-1zm0 0" fill="#e45223"/><path d="M46 67l-1 1 1-1c-2 0-4-2-5 2 0 0-4-2-4 2-1 0-4-1-4 2 0 0-3-2-3 2-1 0-3 0-2 3 0 0-4 0-2 3l-3 1c-1 2 2 2 4 1 2 2 5 3 5-1 1 2 4 2 3-1 4 1 8-2 10-5l2-8-1-1zm0 0" fill="#ea5e20"/><path d="M47 68l-1-1 1 1-5 22-2 1-1-1v-1 1h-2l-1-2h-1l-2 1-2-2v-1c-2 1-3 2-4 1v-3l-3 1-2-1v-2l3-1h1v-2l2-1v1-1-2h2v-1l1-2h2v1-1l2-2 1 1h1c0-2 1-3 2-3h2l2-2h3l-3-1c-1 0-2 1-2 3l-2-1-3 3h-1c-1 0-2 0-2 2l-1-1-1 1-1 2-2 1v2l-2 1-1 2-3 1v2l2 1 3-1v3h4l2 2h2l2 1h2l1 1 3-1 4-22zm0 0" fill="#953f25"/><path d="M43 78s-6-5-7 1c0 2 0 9 6 8 2-1 1-9 1-9zm0 0" fill="#f5c2a1"/><path d="M43 85v-7s-6-5-7 1c0 4 5 8 7 6zm0 0" fill="#f7cfb5"/><path d="M42 80a1 1 0 0 0-1 1h2l-1-1zm0 0" fill="#f5c2a1"/><path d="M40 84l-1-2v-4c1 0 4-1 4 2 0 0-2-2-3-1v5zm0 0" fill="#f5c2a1"/><path d="M39 76c-1 0-2 1-2 3-1 1-1 5 1 6l3 2h1l1-9-4-2zm2 11l-3-1c-2-2-2-6-2-7l3-3 5 2c0 1 0 8-2 9h-1zm0 0" fill="#a46b53"/><path d="M40 84c-1-1-2-4-1-5l2-1 2 1-2-1-2 1c-1 2 1 5 1 5zm0 0M41 81l2-1-2 1zm0 0" fill="#a46b53"/><path d="M87 64c-3-4-21-21-38-3 0 0-7 11-6 20 0 5-4 8 2 15 3 4 8 6 11 8 0 1 4 9 12 2 4-1 19 0 23-18l2-7c0-4-1-9-6-17zm0 0" fill="#f5c2a1"/><path d="M87 64c-3-4-21-21-38-3 0 0-7 11-6 20 0 5-4 8 2 15l10 8h1c5 8 14 0 14 0 10 2 19-11 19-17l3-2 1-4c0-4-1-9-6-17zm0 0" fill="#f7cfb5"/><path d="M46 67v0zm0 0" fill="#252422"/><path d="M93 81l-1 4-1 3c-3 15-14 17-20 18h-3l-6 3c-3 0-5-3-6-4a2 2 0 0 0 0-1l-2-1c-3-2-7-4-9-7-4-5-3-8-3-11l1-4c0-9 6-20 6-20 5-5 11-8 17-8 10 0 19 8 21 11 5 7 6 12 6 17zm-6-17c-2-3-11-11-21-11-6 0-12 3-17 8l-3 6v1c-2 3-4 9-3 13l-1 4c-1 3-1 6 3 11 2 3 6 5 9 7l2 2c1 1 3 4 6 4l6-2 3-1c6-1 17-3 20-18l1-2 1-5c1-5-1-11-6-17zm0 0M67 107l3-3-3 3zm0 0" fill="#a46b53"/><path d="M55 51c1-3 5-14 17-11 3 0 10 4 11 15l-28-4zm0 0" fill="#53953b"/><path d="M79 51c0-5-2-9-6-11h-1c-9-2-14 4-16 8 7-2 16 0 23 3zm0 0" fill="#53a13b"/><path d="M55 51l27 4c0-13-10-15-10-15h-3c-10 0-13 9-14 11zm27 4l-27-4c0-2 4-12 14-12l3 1s10 2 11 15h-1zm0 0" fill="#3f522d"/><path d="M94 83v-1 1zm2-4v-1h1l-1 1zm-1 2v-1h1l-1 1zm0 0M96 80v-1 1zm-1 2v-1 1zm-1 0h0zm3-4h-1v-1h1v1zm0 0" fill="#252422"/><path d="M72 52c-15-4-30 2-33 13v3l2 1c1-5 5-2 5-2 4-9 13-11 23-10 12 2 24 12 23 29l1-2 2-5c3-11-7-23-23-27zm0 0" fill="#53953b"/><path d="M93 67c-4-7-11-12-21-15-15-4-30 2-33 13v3l2 1c1-5 5-2 5-2 4-9 13-11 23-10 8 2 15 6 19 14 3-1 4-2 5-4zm0 0" fill="#53a13b"/><path d="M91 63c-5-5-11-9-19-11l-9-1c-12 0-22 6-24 14v0c3-8 12-14 24-14l9 1c8 2 14 6 18 11 5 5 6 11 5 16l-2 5-1 1c1-16-11-26-23-28h-6c-8 0-14 3-17 10 3-6 9-10 17-10l6 1c12 2 24 11 22 28h1l1-2 2-5c2-5 0-11-4-16zm0 0" fill="#3f522d"/><path d="M93 84l1-1a2 2 0 0 0-1 1zm3-5zm1-1h-1 1zm-1 2zm0 0M93 84zm0 0zm1-1zm0 0v-1zm1-1v-1 1zm0-1zm0 0" fill="#252422"/><path d="M72 50c-11-3-23-1-29 5-2 1-7 7-6 15l2-2v-3c3-11 18-17 33-13 16 4 26 16 23 27l-2 5 3-6 1-1c2-11-8-23-25-27zm0 0" fill="#63ac38"/><path d="M93 62c-5-5-12-10-21-12-11-3-23-1-29 5-2 1-7 7-6 15l2-2v-3c3-11 18-17 33-13 10 3 18 8 21 15v-5zm0 0" fill="#6eb535"/><path d="M92 61c-5-5-12-9-20-11l-10-2c-8 0-15 3-19 7-1 1-7 6-6 14v0c0-8 5-13 6-14 4-4 11-6 19-6l10 1c8 2 15 6 20 11 4 5 6 11 4 16v1l-1 3v-2c2-5 0-11-4-16-5-5-11-9-19-11l-9-1c-12 0-22 6-24 14v0c3-8 12-14 24-14l9 1c8 2 14 6 18 11 5 5 6 11 5 16l-2 5 4-6v-1c1-5-1-11-5-16zm0 0" fill="#3f522d"/><path d="M69 64s0-2 2-1c1 0 4 2 4 6 0-1-2-3-6-5zm0 0" fill="#e45223"/><path d="M69 64l6 4c-1-3-3-4-4-5h-2v1zm6 5v-1l-6-3v-1-1h2c1 0 4 1 4 6zm0 0" fill="#953f25"/><path d="M55 65v-2c-1 0-4 0-5 5 1-1 2-3 5-3zm0 0" fill="#e45223"/><path d="M55 63c-1 0-3 0-5 4 1 0 2-2 5-2l1-1-1-1zm-6 6l1-1c1-5 4-5 5-5l1 2h-1l-5 3zm0 0" fill="#953f25"/><path d="M113 81c0-1 1-4-3-3 0-1 1-3-4-2 0 0 0-3-4-1 0-1-1-4-4-2 0-1-2-3-5-1-1-4-5-3-4 1-2 0-5 2-2 4-1 1-1 3 1 4l1 6c-2 1-1 3-1 3s1 4 6 1c0 1 2 4 4 0 1 1 3 3 5-1 1 1 3 2 4-1 0 0 2 0 2-2 1 0 4 1 3-3 2 0 5-1 1-3zm0 0" fill="#e45223"/><path d="M109 83zm2-2h-1 1zm0 0M94 90c2 2 5 0 5-2 1 1 5 2 4-2 1 2 4 2 3-1 3 3 4-1 3-2 2 2 3-2 2-2 1 0 2-2 1-3h-2c0-1 1-3-4-2 0 0 0-3-4-1 0-1-1-4-4-2 0-1-2-3-5-1-1-4-5-3-4 1-2 0-5 2-2 4-1 1-1 3 1 4l1 6c-2 1-1 3-1 3s3 3 6 0zm0 0" fill="#ea5e20"/><path d="M96 93l-2-1h-4c-2 0-2-2-2-2l2 2 4-1 2 2 2-2 3 1 1-2h1l2 1 2-2v-1h2v-1h3v-3l3-1-2-2v-2l-3-1v-2h-4l-1-2-3 1-2-2h-3l-1-2-3 1v1-1l-2-2h-2v3l-3 2 2 2a2 2 0 0 0-1 2l1 2 1 6h-1v-6l-2-2 1-2-1-2c0-2 1-2 2-3l1-2 2-1 2 3 3-1 2 1h3l1 2h3l1 2h4v2l3 1v2l2 2-3 1v3h-3v2h-2l-2 2-2-1-2 2c-1 1-2 0-3-1 0 2-1 2-2 2zm0 0" fill="#953f25"/><path d="M88 88c3 2 5 1 6-2 2-4 0-8-2-8-3-2-5 4-5 4zm0 0" fill="#f5c2a1"/><path d="M94 80l-2-2c-3-2-5 4-5 4l1 6c3 0 8-3 6-8zm0 0" fill="#f7cfb5"/><path d="M91 86s-1-4-3-2l3 2zm0 0" fill="#f5c2a1"/><path d="M93 85v-3c0-1-1-2-3-1l-2 3 3-2c1 0 2 0 2 3zm0 0" fill="#f5c2a1"/><path d="M91 89l-3-1 3 1 3-3c2-4 0-7-2-8h-2c-2 1-2 4-2 4v-1l2-3h2c2 0 4 4 2 8l-2 3h-1zm0 0" fill="#a46b53"/><path d="M88 84s3 0 4 2c0 0-1-2-4-2zm0 0" fill="#a46b53"/><path d="M93 86l-1-4-1-1-3 3 3-3h1l1 5zm0 0" fill="#a46b53"/><path d="M75 75c0 5-1 9-3 9-3 0-5-3-5-8-1-4 1-8 3-8s4 3 5 7zm0 0" fill="#9ed8f7"/><path d="M74 77c0 3-1 5-3 5-1 0-3-2-3-4l1-4 1-4 2 3 2 4zm0 0" fill="#252422"/><path d="M74 78c0 3-1 5-3 5-1 0-3-2-3-5 0-2 1-4 3-4 1 0 3 2 3 4zm0 0" fill="#e9ebe8"/><path d="M73 75l-2-1c-2 0-3 2-3 4 0 3 1 4 3 5 2-3 2-6 2-8zm0 0" fill="#fefefe"/><path d="M71 74c-2 0-3 2-3 4 0 3 2 5 3 5l2-2 1-3c0-2-2-4-3-4zm0 9c-1 0-3-2-3-5 0-2 1-4 3-4 1 0 3 2 3 4l-1 3a3 3 0 0 1-2 2zm0 0" fill="#252422"/><path d="M73 80l-1 2-2-2 2-2 1 2zm0 0" fill="#57b3e5"/><path d="M73 80l-1 1-1-1 1-2 1 2zm0 0" fill="#252422"/><path d="M72 78l-1 2 1 2 1-2-1-2zm0 4l-2-2 2-2 1 2-1 2zm0 0" fill="#4874b8"/><path d="M71 79h0zm0 0" fill="#fefefe"/><path d="M55 76c-1 4-4 6-6 5s-3-5-1-8c1-4 5-6 6-5 2 0 3 4 1 8zm0 0" fill="#9ed8f7"/><path d="M54 76c-1 3-3 5-4 4-2 0-3-3-2-5s2-4 4-4l2-2v7zm0 0" fill="#252422"/><path d="M54 77c-1 3-3 4-5 4-1-1-2-3-1-6s3-4 5-4c1 1 2 3 1 6zm0 0" fill="#e9ebe8"/><path d="M54 73l-1-2c-2 0-4 1-5 4s0 5 1 6l5-8zm0 0" fill="#fefefe"/><path d="M53 78l-2 2-1-3 2-1 1 2zm0 0" fill="#57b3e5"/><path d="M52 78l-1 1v-1l1-1v1zm0 0" fill="#252422"/><path d="M52 76l-2 1 1 3 2-2-1-2zm-1 4l-1-3 2-1h1v2l-2 2zm0 0" fill="#4874b8"/><path d="M52 71l-4 4v4l1 2h1c1 0 3-2 3-4v-6h-1zm-2 10h-1l-1-2v-4l4-4h1c1 0 2 3 1 6l-4 4zm0 0" fill="#252422"/><path d="M51 77h1c1 0 0 0 0 0h-1zm0 0" fill="#fefefe"/><path d="M51 87s-6-1-6 4c0 6 4 6 8 9 2 3 4 7 9 7 2-1 5-1 8-8l4-5c2-2 6-7 2-10-2-1-5-2-8 2-3 3-3 3-4 2l-13-1zm0 0" fill="#e83e8e"/><path d="M51 93c-3 0 3 2 6 7 2 3 5 4 8 1l4-7 3-7h-2c-3 3-9 8-19 6zm0 0" fill="#902724"/><path d="M56 94l-5-1c-3 0 3 2 6 7 2 2 4 3 6 2-3-2-6-5-7-8zm0 0" fill="#a42826"/><path d="M62 99c-2-1-4 1-4 2 2 2 5 3 7 0l1-3-4 1zm0 0" fill="#f5b0b6"/><path d="M63 100h-2s0-2-3 0v1c1 2 4 2 5 1v-2zm0 0" fill="#f7c1c6"/><path d="M58 101l4 2 2-2 2-2-2-1-2 1h-1l-3 2zm4 2l-4-2c0-1 1-3 3-3l1 1 2-1h2v1a50 50 0 0 0-1 2l-3 2zm0 0" fill="#ef7d8d"/><path d="M51 93l1 1 6 6c1 2 2 3 4 3l2-2 2-3a46 46 0 0 1 2-4l3-5 1-2-2 1a23 23 0 0 1-19 5zm11 10c-2 0-4-1-5-3l-5-5-2-2h5c7 0 12-3 15-5v-1h3l-2 3-2 4-3 5-1 2-3 2zm-4 0v1h6l-1 1h-2-1v-1h-1l-1-1zm0 0" fill="#b22867"/><path d="M48 91c1 4 14 9 23-4l-1-1s-4 6-12 7l-10-2zm0 0" fill="#e83e8e"/><path d="M57 95h-3c-3-1-5-2-6-4 1 1 3 3 7 4 2 0 10 1 16-8v1c-4 6-10 7-14 7zm0 0" fill="#b22867"/><path d="M73 86l-3 1 4 1zm0 0" fill="#e83e8e"/><path d="M70 87h1l1 1h2-2-1v-1h-1zm-23 5l1-1 1-1h1l-1 1h-1l-1 1zm0 0" fill="#b22867"/><path d="M60 102h-1v-1h1v1zm0 0" fill="#f8dde1"/><path d="M66 85c0 4-4 7-9 7-4 0-8-3-8-7 0-3 4-6 8-6 5 0 9 3 9 6zm0 0" fill="#ca2627"/><path d="M66 85c0 4-4 7-9 7-4 0-8-3-8-7 0-3 4-6 8-6 5 0 9 3 9 6zm0 0" fill="#ca2627"/><path d="M57 90c5 0 9-3 9-6-1-3-4-5-9-5-4 0-8 2-8 6 1 3 4 5 8 5zm0 0" fill="#e31e24"/><path d="M57 79c-4 0-8 3-8 6 0 4 4 7 8 7 5 0 9-3 9-7 0-3-4-6-9-6zm0 13c-4 0-9-3-9-7 0-3 5-6 9-6s9 3 9 6c0 4-4 7-9 7zm0 0" fill="#912824"/><path d="M60 81c0 1-1 2-3 2l-2-2 2-1 3 1zm0 0" fill="#f3c0c0"/></svg>