<svg xmlns="http://www.w3.org/2000/svg" width="197" height="267" viewBox="0 0 148 200"><path d="M65 53c0-3-2-5-4-6l-8-7-2-2c1 3 1 6 3 8l4 6 7 1zm2 6v-2l-1-3-7-1c-2 0-3-2-4-4-3-2-4-6-6-10v-1l-5-4-1-1c-1 1-3 0-4-1l-6-2c0 5 7 7 10 9v1h-5c-1 0-4 0-3 1l8 1 1 1-1 1c-1 2-4 3-4 5l8-4 1 1c-1 1-2 1-2 3l-1 4 6-3h1c-1 5 5 7 9 7v2l-6 4 3-1 3-2h3l2 1v-1h1v-1zm31-32l-7 2 2 2 5-2v-2zm13 65l-1-4-4 1c-7 2-15 3-21 0l-2 1c3 4 13 4 18 3l10-1zm3-1h-1l-1-3v-1l-1 1s1 4 2 3h1zm1-1v-2-3l-2 1v3l2 1zm3-3c0-1 0-4-2-4l-1 1 1 3 1 1 1-1zm1-10h-1l-3 4-4 3-6 1-7 3H87c6 3 13 2 18 0 4-1 9-3 11-6l3-5zm-1-49l1-2-5-1v1l1 2h3zm2-4c1-2-2-5-2-7v-3c-1 2-1 4-3 5l3 1v1l-1 1h-5c3 0 6 0 8 2zm-1 61l2-4-1-3-3 4 2 3zm5 38c2-2 3-7 0-11l-2-3-1-4c0-2-3-5-5-6-4-1-9 3-13 4l-5 3h3v2c-5-1-11-6-11-12 0-1 0-1 0 0l3 6 3 2 6-1c4-3 7-5 11-5 4-1 8 2 10 5l1 5c0-4 0-8-2-11l-3-4-2-2-2 1-3 1-16 1h-1l-9-1-3-2c-4 2-7 7-9 12 0 3 0 8-2 12-1 4-1 7-3 10-1 3-4 5-6 7-5 5-9 12-11 19 0 6-2 11 0 18l2 5h-1l-2-4-4 2a22 22 0 0 1-28-4l-2-2c-2-5-3-13 1-17l3-3 5-3 4-2h2-2c-3-2-6-1-8 0h-1c0 1-1 0 0 0-1-1 0-2 1-3l-5 4-1 1-4 4-1 6H9v-6l-1 6 1 9H8l-6-2c3 1 5 2 6 4l5 5v3h-1l-1-2-3-1H5c1 1 3 3 5 3l4 3 3 1-1 1-2-2-1 1c-2-1-5 0-7 1H5c3 2 9 4 13 3v1h-1c-2 0-3 1-3 2l-3 1h11c5 3 9 1 14 0l7-2 9-4-2-3 1-1h1v4l1 1 2 2v-4c1 3 4 5 6 7v-4-1c2 4 8 7 12 8 1 0 1 0 0 0l-2 2-1 1c-2 1-2 3 0 4 4 1 7 0 10-1l11-1 6 2 1-1 3 3c1 1 1 2 3 2h3v-1c-1 0-2-1-2-3-1 0 0 0 0 0l3 2c1 1 2 4 4 2v-3c0-2-3-4-3-5h-1l1-1 2 2 3 3 1-3-2-2-3-2a4659 4659 0 0 0-7-2H93l-2 1h-1v-2h2l4-4c3-3 6-8 7-12l-4 4c0 1 0 0 0 0 1-2 3-4 3-7h1l1-1 1-9c-1-5-3-10-8-12h-1c-5-2-9-2-15 0l-10 5h-1l3-3-5 2-1-2c-1-1 1-3 2-4h-2l4-7 3-3-1 1-1-1 4-2h1c0 2-2 2-3 3l-6 7 6-2-1 2-2 2-3 4 7-2h2c2-2 5-2 7-2h13l2 2c6 3 7 9 7 14l-2 8-1 6 5-6h1l-1 4c3-2 4-7 4-10v-1l2 1 2-10v-1l2 1h2l1-11-1-1h1v-7-2h-1c-2 0-3-1-3-3-2 0-3 0-3-3v-5l-3-3c-3 2-2 5-2 8h-6v6h-1l-2-3-1-1v4c0 1-1 2-2 1l-3-4h-1v5h-1l-2-6-2-3c0 1 0 4 2 5v2c-3-1-4-3-5-6l-2-5v5l-1 1-2-7v-7l-2-5v-3h1l1 5 1 2-1 6 2 6 2-7 1 1-1 1 4 11-1-2 1-6 1 1v1l2 5 2 3v-3l-1-5h1v3l4 4 1 1v-2c1-3 0-7-3-8l1-1c1 1 3 3 3 5l3 3v2-3-2l-1-2h1v1l3 1 1-1-1-5h1l2 4v-4l2-3h-1v-1h3c1 2 3 4 3 7s0 4 2 5l1-2c0-1 1 0 0 0v1c0 2-1 2 1 4 2 0 2-2 3-2v-8h1l1 5v1zm1-99c1-2 2-4-1-3 0 1 0 1 0 0l-1-1c1-1 3-5 0-5h-1l-1-1 3-3c1-2-3 0-3 0h-1V6l-2 3c0 1 0 0 0 0l-3-6c-1 5 0 11-4 16h4l2-7h1l2 7 1 6 1 3-1 1-1-2-1 2-3 1c-1-1-4-2-3-4-2 1-4 4-5 7 0 3 1 6 4 8h11c0-2-1-3-2-3 0-2-1-2-2-3l-4-4 1-1c2 1 2 1 2 3l2 2c3-4 4-7 5-11zm3 62c0-2 0-3-2-4h-5l-2 5 3-1h6zm0-25v-3h-2l-2-1-1 2h-1l-1 4-4 3c-2 4-7 8-12 9h-4l-4 10v1l-1-1c-2-3-2-7-1-10l1-2c-3 2-5 6-5 11h-1l-1-7v-2l1-6-3 3 1-8c2-5 4-8 8-11v-1l4-3 5-3c1-2 4-2 7-3l-3-2c-2-3-3-8-1-12s7-6 11-4c-2-2-7-3-10-1v1h-1v-1l1-2 6-2-5-1-7 3c-2 2-4 4-4 7h1v1h-1l-1 1h-1v-1l-3 1 1 1v1l-2-1h-1l-1-1h0l-3-2c-5-1-10 1-14 5v-1c3-3 6-5 11-5h-3c-5 0-8 0-10 4l-1 3v1c-1 3 0 5 1 8 0-4 2-8 7-9l1-1v1c-3 1-3 5-3 8 3-5 6-8 13-8-7 1-10 4-13 10h-1c0-2-1-6 1-8-3 2-4 5-4 9h-2l-1-5-1-4-11 1-6-2-4-1-4-2 5 3v1h1l8 5c3 2 7 5 8 8l2 10-1 1-1 1h-2v4h-1c-2 1-2 6-2 8v6l4-5h1l-1 8 1 3 2-4v1c0 4 1 8 3 11v-1c0-4 3-6 4-9h2l-1 6 4-5 1 1-1 2h2l5-1h10l7-3h1c4 0 7-3 10-5l2-3c2-1 3-1 5-4l2-3h-5 4c2-1 5-3 5-5v-3zm8 4l-2-3-3-4h-2l1 3c1 2 2 2 4 2l2 2zm-1 125c2-1 2-3 1-4l-2-1-2-1-9-2-11-1h2v-1l10-8 2-10-1-5h2l2 5c1-3 0-9-1-11l-6-6-1 4 1 1h-5l-2 10h-1l-2-1c0 4-1 10-4 13l-2-1 1-4c-1 2-2 5-4 5l-4 6-6 6h10l4-1 2-2 1-1 1 1-4 3h-2l2 1 5 2h1c3 1 6 0 9 2l2 1v1l2 3h2l1-1v-1h1v-1l-2-4c3 2 3 3 3 5v2c2 1 3 0 3-2v-2c0-2-2-3-3-5v-1l4 6zm6-75c0-6 0-12-4-17v2h-1c-1-2-2-5-5-5l-3 1-5 1 1 1v2l1 6 5 2 1 1v3l1 5c1 0 1 0 0 0v1l-1 1v2h3v-2l1 1-1 2v3l3-1v-1-2h2l-1 2c1 1 2-2 2-3v-5h1zm0-59h2c-1-3-3-7-6-9-2-2-4-2-7-2h-1c-1-2-3-3-5-3h-5c2 1 2 2 2 3 0 2-1 2-3 3v1c-3 1-7 1-8-2v-3l-5 4-2 1c-1 1-4 1-5 3-5 4-10 11-10 18l4-3 1 1c-2 2-3 4-3 7v6c1-4 3-7 6-10l1-2 2-4 1 1-3 5 1 1h-1v2c-2 1-1 7-1 10l4-9 1-1h5c4-2 8-5 9-8h1c2-2 6-5 5-9h1v1l1-2v-3l-3-3h1c1 0 3 2 3 4v2h17zm1 5v-2l-2-2-8 1 5 4h2l-1-1-1-1v-1h-2v-1c2 0 5 1 7 3zm-80 5l1-4-6 1-2 2-1-1c1-3 3-4 5-5-4-2-9-3-9-8-2 1-4 4-7 3v-1l1-4 2-2-8 3h-1l3-4 2-2c1-1 1 0-1-1l-7-2v-2h7c-4-2-10-5-9-10l1-1 8 4-2-2v-1l7 3c2 1 4 3 7 3 5 2 12 3 16 0 1-4 3-7 7-8 3-2 7-2 11 0l3 1c3-1 6-3 9-2 1-3 3-5 6-7h4c5-6 4-13 4-18l1-1 4 7 2-3 1 1v5l3-1h1c1 1-1 2-1 4v1c3 1 1 5 0 6 3-1 4-1 3 2-1 5-3 9-6 13 2 1 3 3 3 6h1l7 3c6 0 11 6 11 12 3 1 5 5 5 8h-2c0-5-2-6-4-7l1 2v4h-1v-1h-1l-1-1v1l1 1c2 1 4 3 3 6h-1c0-2-1-5-3-6h-4l2 5v2h-1v-1l-1-3-4-2-2-1h-1v1l-1 2-4 3c2 2-1 5-3 6v6l7 1 2 5-1 1h-1-10v2l3 3 2 3 9-2c2 0 3 2 4 3 7 4 7 15 6 22l-2 4-3 2-3 1-2-2 1-1h-1l-2-1c-1-2 0-3 1-5v-3l-1-2c0-3-2-4-5-6l-1 3 1 2c2 1 2 4 3 6 0 3-2 7-5 8l-1 2v5l-1 5 1 7c4 3 7 6 8 11 1 3 1 7-1 9l-1-1-1-4c-1-2 0 0 0 0 1 3 1 7-1 10l-5 8-5 4h9l5 1 4 2c2 1 5 3 3 6l-1 2-1 1-2 2-2-1-3 1c-3 1-4-1-4-3-1-2-6-3-7-3h-3l2 5-2 2-1 3-4 1-1-1h-6l-4-5h-1l-7-1-8 1-11 2c-2 0-3-1-4-3 0-3 3-4 4-6-3 0-6-2-9-4l1 2-1 1-7-6v3l-3-4c-3 3-8 5-12 5h-4c-4 2-10 4-14 1-1-1-3 0-4 1h-4l-5-2c1-2 2-2 3-2l2-1-6-1-6-3 1-1 5-1h3l-4-3c-2-2-4-4-4-7h1l4 4h3c-3-4-7-7-10-8l-1-1h7c-1-3-2-6-1-9 1-1 2-6 5-6v3c0-1 1-4 3-5 3-3 7-6 12-7l1 1-4 3c1-2 3-2 5-2l3 1 3 2h1-1v1l-5 1-8 5c-4 5-6 12-2 17 7 10 23 11 32 4-2-5-2-11 0-16 1-4 1-8 4-12l7-10 8-9 2-15c1-3 2-8 4-10 1-3 4-6 6-6v-1h-1l-1-1-1-1-3 4h-2v-4l1-2-2 5c-1 0-2 3-1 5l-1 1c-2-4-3-7-3-12l-1 3h-2l-1-6 1-6-4 5c-2-3-2-9 0-12l1-3zm0 0" fill="#2b2a29"/><path d="M142 61c-2-2-5-3-7-3v1h2v1l1 1 1 1h-2l-5-4 8-1 2 2v2zm0 0" fill="#e8833d"/><path d="M143 56h-8c-4-3-7-6-11-7 2 0 4-1 7 1-3-3-7-3-10-5 0-1 0-2-2-3h5c2 0 4 1 5 3h1c3 0 5 0 7 2 3 2 5 6 6 9zm-6 42c3 5 4 11 4 17h-1v5c0 1-1 4-2 3l1-2c2-5 2-15-5-16h5c-3-4-8-5-11-4l2-3-6 2v-2l-1-1 5-1 3-1c3 0 4 3 5 5h1v-2zm0 0" fill="#f5a97a"/><path d="M137 123v1l-3 1v-3l1-2-1-1v2h-3v-2l1-1v-1c1 0 1 0 0 0l-1-5v-3l-1-1-5-2-1-6 6-2-2 3c3-1 8 0 11 4h-5c7 1 7 11 5 16h-2v2zm0 0" fill="#e8833d"/><path d="M136 186c1 1 1 3-1 4l-4-6v1c1 2 3 3 3 5v2c0 2-1 3-3 2v-2c0-2 0-3-3-5l2 4v1h-1v1c0-8-9-8-15-8l2-1c-4-1-6 0-9 1l-2-1h2l4-3h1l11 1 9 2 2 1 2 1zm0 0" fill="#f5a97a"/><path d="M134 62l2 3-2-2c-2 0-3 0-4-2l-1-3h2l3 4zm1-6h-11v-2c0-2-2-4-3-4l-3-1c2-2 3-2 3-4 3 2 7 2 10 5-3-2-5-1-7-1h-1 1c4 1 7 4 11 7zm0 0" fill="#e8833d"/><path d="M128 151c1 2 2 8 1 11l-2-5h-3c0-3 0-5-2-7l-1-1 1-4 6 6zm0 0" fill="#f5a97a"/><path d="M114 185c6 0 15 0 15 8l-1 1h-2l-2-3v-1l-2-1c-3-2-6-1-9-2h-1l-5-2c3-1 5-2 9-1l-2 1zm0 0" fill="#e8833d"/><path d="M128 59v5c0 2-3 4-5 5h-5l3-6h1l-1 2 1 1c2-1 2-3 2-5l1 3 2-3-1-3h2v1zm0 0" fill="#f5a97a"/><path d="M126 82c2 1 2 2 2 4h-6l-3 1 2-5h5zm0 0" fill="#006ba4"/><path d="M126 58l1 3-2 3-1-3c0 2 0 4-2 5l-1-1 1-2h-1l1-4h1l1-2 2 1zm0 0" fill="#e8833d"/><path d="M125 157l1 5-2 10-10 8v1h-3l-1-1c5-5 10-11 8-18 2 3 2 5 2 8 4-5 1-11 0-16 1 2 4 4 4 7v-4zm0 0" fill="#f5a97a"/><path d="M124 21c3-1 2 1 1 3-1 4-2 7-5 11l-2-2c0-2 0-2-2-3l3-1 1-2 1 2 1-1-1-3-1-6-2-7h-1l-2 7h-4c4-5 3-11 4-16l3 6s0 1 0 0l2-3v5h1s4-2 3 0l-3 3 1 1h1c3 0 1 4 0 5v1h1zm0 0" fill="#e8833d"/><path d="M124 112c3 4 2 9 0 11v-1c1-4 0-9-2-13l2 3zm0 0" fill="#f5a97a"/><path d="M122 109c2 4 3 9 2 13l-1-5h-1v8c-1 0-1 2-3 2-2-2-1-2-1-4v-1c1 0 0-1 0 0l-1 2c-2-1-2-2-2-5 1-5-1-9-3-13 3 1 4 4 6 6 0-3-3-6-3-10l3 2h-1l1 1 1 1 2 3h1zm-13 72l-2 2-4 1H93l6-6 4-6c2 0 3-3 4-5l-1 4 2 1c3-3 4-9 4-13l2 1h1l2-10h5c2 2 2 4 2 7v4c0-3-3-5-4-7 1 5 4 11 0 16 0-3 0-5-2-8 2 7-3 13-8 18l-1 1zm0 0" fill="#e8833d"/><path d="M122 97c2 3 2 7 2 11l-1-5c-2-3-6-6-10-5-4 0-7 2-11 5-1-2-3-4-2-6-2 0-6 2-5 5-2-2-1-5 1-8l16-1 3-1 2-1 2 2 3 4zm0 0" fill="#e8833d"/><path d="M124 69l-2 3c-2 3-3 3-5 4l-2 3c-3 2-6 5-10 5h-1l-7 3v-2l4-10h4c6 1 11-2 13-6h6zm0 0" fill="#f5a97a"/><path d="M123 53v3l-1 2v-1h-1c1 4-3 7-5 9h-1c-1 3-5 6-9 8 4-3 6-8 8-12l-8 6c5-4 6-9 7-15-2 0-4 3-5 3 0-3 1-4 3-6-2 0-6 3-6 5v-2c0-3 2-6 5-7v1c1 3 5 3 8 2v-1l3 2h-1l3 3zm0 0" fill="#e8833d"/><path d="M115 38l1-1-1-2c-2 0-4 0-4 2v1l1 2c2 1 3 0 3-2zm-3 3c-3-2-4-5-4-8 1-3 3-6 5-7-1 2 2 3 3 4l-1 1 4 4c1 1 2 1 2 3 1 0 2 1 2 3h-11zm-38 96l-6 2 6-7c1-1 3-1 3-3h-1l-4 2 1 1 1-1-3 3-4 7h2c-1 1-3 3-2 4l1 2 5-2-3 3h1c6-1 13-6 19-2-6 0-10 6-13 9l16-5-10 8c4-2 10-4 12-2 4 6-5 16-12 16-3 0-5-2-7-4 1 7 8 7 13 9-6 1-11 0-16-2 4 3 7 5 13 5-5 0-10 1-13-2 3 4 7 5 12 4-3 2-7 2-10 3 3 2 8-3 11 1-3 0-6 1-9 4 4-2 9-3 13-3 6 0 12 0 19 3 0 1 3 3 3 5v3c-2 2-3-1-4-2l-3-2s-1 0 0 0c0 2 1 3 2 3v1h-3c-2 0-2-1-3-2l-3-3-1 1-6-2-11 1c-3 1-6 2-10 1-2-1-2-3 0-4l1-1 2-2c1 0 1 0 0 0-4-1-10-4-12-8v5c-2-2-5-4-6-7 0-1 0 0 0 0v4l-2-2-1-1v-4h2l-2-5c-2-7 0-12 0-18 2-7 6-14 11-19 2-2 5-4 6-7 2-3 2-6 3-10 2-4 2-9 2-12 2-5 5-10 9-12l3 2 9 1h1c-2 3-3 6-1 8h-2l-3-6c0-1 0-1 0 0 0 6 6 11 11 12v-2h-3l5-3c4-1 9-5 13-4 2 1 5 4 5 6l1 4-2-3-2-2-3-2c0 4 3 7 3 10-2-2-3-5-6-6 2 4 4 8 3 13 0-3-2-5-3-7h-3v1h1l-2 3v4l-2-4h-1l1 5-1 1-3-1v-1h-1l1 2v3l-3-3c0-2-2-4-3-5l-1 1c3 1 4 5 3 8v2l-1-1-4-4v-1-2h-1l1 5v3l-2-3-2-5v-1l-1-1-1 6 1 2-4-11 1-1-1-1-2 7-2-6 1-6-1-2-1-5h-1v3l2 5c-2 5-4 11-2 16 0-2 2-3 2-3l3 10c3-1 1-3 3-5 1 2 1 6 3 7 1 1 4-3 5-2 3 2 4 5 3 9H84c-2 0-5 0-7 2h-2c1-4 5-4 7-6-4 0-8 3-11 4l2-2 1-2zm0 0" fill="#f5a97a"/><path d="M122 109l-4-5 2 2 2 3zm0 0" fill="#2b2a29"/><path d="M122 109h-1l-2-3-1-1-1-1h1l4 5zm0 0" fill="#2b2a29"/><path d="M121 63l-3 6c-2 4-7 7-13 6 5-1 10-5 12-9l4-3zm-8 84h1l-2-3v-2h-1c0 3 0 8-2 10 0 0 0 1 0 0 2-2 3-5 3-7l1 2zm2-5c2-2 2-6 1-8h-1v8zm6-12v7h-1l1 1-1 11h-2l-2-1v1l-2 10-2-1v1c0 3-1 8-4 10l1-4h-1l-5 6 1-6 2-8c0-5-1-11-7-14l-2-2c1-4 0-7-3-9-1-1-4 3-5 2-2-1-2-5-3-7-2 2 0 4-3 5l-3-10s-2 1-2 3c-2-5 0-11 2-16v7l2 7 1-1v-5l2 5c1 3 2 5 5 6v-2c-2-1-2-4-2-5l2 3 2 6h1v-5h1l3 4c1 1 2 0 2-1v-4l1 1 2 3h1v-6h6c0-3-1-6 2-8l3 3v5c0 3 1 3 3 3 0 2 1 3 3 3h1v2zm0 0" fill="#e8833d"/><path d="M121 81l-2 4-2-3 3-4 1 3zm0 0" fill="#006ba4"/><path d="M118 17c0 2 3 5 2 7-2-2-5-2-8-2h5l1-1v-1l-3-1c2-1 2-3 3-5v3zm1 9l-1 2h-3l-1-2v-1l5 1zm0 0" fill="#f2947a"/><path d="M118 77h1l-3 5c-2 3-7 5-11 6-5 2-12 3-18 0h11l7-3 6-1 4-3 3-4zm0 0" fill="#f5a97a"/><path d="M116 83c2 0 2 3 2 4l-1 1-1-1-1-3 1-1zm0 0" fill="#c5a38f"/><path d="M116 134c1 2 1 6-1 8v-1-7h1zm0-97l-1 1c0 2-1 3-3 2l-1-2v-1c0-2 2-2 4-2l1 2zm0 0" fill="#2b2a29"/><path d="M87 54c2 0 4-2 3-4 0-2-2-3-4-3l-2 1-1 3c0 2 2 3 4 3zm32-29c-4-2-9 0-11 4s-1 9 1 12c-4-1-6-4-7-8 0 3 1 7 5 8-4 0-7-3-11-5 2 3 5 5 9 6-4 1-9-1-12-2 3 3 7 3 10 5l-10-1 8 3-1 2-4 3v1c-7 3-16 6-16 16 1-3 3-6 7-6-5 4-7 11-7 16 3-1 3-5 6-7-2 4-3 9 1 12-1-3 0-5 2-7l1 7h1c0-5 2-9 5-11l-1 2c-1 3-1 7 1 10l1 1v1h-9-1l-5 1h-2l1-2-1-1-4 5 1-6h-2c-1 3-4 5-4 9v1c-2-3-3-7-3-11v-1l-2 4-1-3 1-8h-1l-4 5v-6c0-1 0-7 2-8h1v-4h2l1-1 1-1-2-10c-1-3-5-6-8-8h1c3 0 7 1 11-1l1 5h2c0-4 1-7 4-9-2 2-1 6-1 8h1c3-6 6-9 13-10-7 0-10 3-13 8 0-3 0-7 3-8v-1l-1 1c-5 1-7 5-7 9-1-3-2-5-1-8v-1l1-3c2-4 5-4 10-4h3c-5 0-8 2-11 5v1c4-4 9-6 14-5l3 2h1-1l1 1h1l2 1v-1l-1-1 3-1v1h1l1-1h1v-1h-1c0-3 2-5 4-7l7-3 5 1-6 2-1 2v1h1v-1c3-2 8-1 10 1zm0 0" fill="#f5a97a"/><path d="M115 88v2l-2-1v-3l2-1v3zm0 0" fill="#006ba4"/><path d="M111 191l-2-2-1 1h1c-7-3-13-3-19-3v-1h1l2-1h10l7 2 3 2 2 2-1 3-3-3zm0 0" fill="#e8833d"/><path d="M114 147h-1l-1-2c0 2-1 5-3 7 0 1 0 0 0 0 2-2 2-7 2-10h1v2l2 3zm0 0" fill="#2b2a29"/><path d="M113 91h1-1c-1 1-2-3-2-3l1-1v1l1 3zm0 0" fill="#c5a38f"/><path d="M112 43c-3 1-6 1-7 3l-5 3 1-2-8-3 10 1c-3-2-7-2-10-5 3 1 8 3 12 2-4-1-7-3-9-6 4 2 7 5 11 5-4-1-5-5-5-8 1 4 3 7 7 8l3 2zm0 0" fill="#e8833d"/><path d="M113 53c-1 6-2 11-7 15l8-6c-2 4-4 9-8 12h-5l-1 1-4 9c0-3-1-9 1-10v-2h1l-1-1 3-5-1-1-2 4-1 2c-3 3-5 6-6 10v-6c0-3 1-5 3-7l-1-1-4 3c0-7 5-14 10-18l5-3 2-1 5-4v2c-3 1-5 4-5 7v2c0-2 4-5 6-5-2 2-3 3-3 6 1 0 3-3 5-3zm0 0" fill="#f5a97a"/><path d="M110 88l1 4-10 1c-5 1-15 1-18-3l2-1c6 3 14 2 21 0l4-1zm0 0" fill="#006ba4"/><path d="M96 143h1c5 2 7 7 8 12l-1 9-1 1h-1c0 3-2 5-3 7 0 0 0 1 0 0l4-4c-1 4-4 9-7 12l-4 4h-2v3c-4 0-9 1-13 3 3-3 6-4 9-4-3-4-8 1-11-1 3-1 7-1 10-3-5 1-9 0-12-4 3 3 8 2 13 2-6 0-9-2-13-5 5 2 10 3 16 2-5-2-12-2-13-9 2 2 4 4 7 4 7 0 16-10 12-16-2-2-8 0-12 2l10-8-16 5c3-3 7-9 13-9-6-4-13 1-19 2l10-5c6-2 10-2 15 0zm0 0" fill="#e8833d"/><path d="M102 103l-6 1-3-2h2c-1-3 3-5 5-5-1 2 1 4 2 6zM91 29l7-2v2l-5 2-2-2zm0 0" fill="#f5a97a"/><path d="M90 50c1 2-1 4-3 4s-4-1-4-3l1-3 2-1c2 0 4 1 4 3zm0 0" fill="#2b2a29"/><path d="M90 69l-1 6v2c-2 2-3 4-2 7-4-3-3-8-1-12h1l3-3zm6-16c-4 3-6 6-8 11l-1-1c-4 0-6 3-7 6 0-10 9-13 16-16zm0 0" fill="#e8833d"/><path d="M87 63l1 1-1 8h-1c-3 2-3 6-6 7 0-5 2-12 7-16zm-5 74c-2 2-6 2-7 6l-7 2 3-4 2-2-2 2c3-1 7-4 11-4zm0 0" fill="#e8833d"/><path d="M69 37l1 4c-4 2-8 1-11 1 2 0 6 0 7-2-5-1-11-1-14-4l6 2 11-1zm0 0" fill="#2b2a29"/><path d="M67 57v3h-1v1l-2-1h-3l-3 2-3 1 6-4v-2c-4 0-10-2-9-7h-1l-6 3 1-4c0-2 1-2 2-3l-1-1-8 4c0-2 3-3 4-5h7c0 3-3 4-4 6 2-1 4-2 6-1v1l2 1v1c4 3 7 6 12 5zm0 0" fill="#e8833d"/><path d="M67 57h-1c-5 1-8-2-12-5v-1l-2-1v-1c-2-1-4 0-6 1 1-2 4-3 4-6h-7l6-1v-2l-5-3h-1l6 1c2 4 3 8 6 10 1 2 2 4 4 4l7 1 1 3zm0 0" fill="#e8833d"/><path d="M61 47c2 1 4 3 4 6l-7-1-4-6c-2-2-2-5-3-8l2 2 8 7zm0 0" fill="#f2947a"/><path d="M66 40c-1 2-5 2-7 2h-1l-8-5h-1v-1l-5-3 4 2 4 1c3 3 9 3 14 4zm0 0" fill="#e8833d"/><path d="M53 174h-1-1l-1 1c-3 5-9 6-15 7l6-4c-8 2-15 6-24 3h1v-1c-4 1-10-1-13-3h1c2-1 5-2 7-1l1-1 2 2 1-1-3-1-4-3c-2 0-4-2-5-3h3l3 1 1 2h1v-3h1l8 5c2 1-2 1-2 1 9 4 19 3 27-3l4-2 2 4zm0 0" fill="#f5a97a"/><path d="M50 175l2 3-9 4-7 2c-5 1-9 3-14 0H11l3-1c0-1 1-2 3-2 9 3 16-1 24-3l-6 4c6-1 12-2 15-7zm0 0" fill="#e8833d"/><path d="M49 39l-6-1h1l5 3v2l-6 1 1-1-1-1-8-1c-1-1 2-1 3-1h5v-1c-3-2-10-4-10-9l6 2c1 1 3 2 4 1l1 1 5 4v1zm0 0" fill="#f5a97a"/><path d="M35 175c4 0 8 0 12-3-8 6-18 7-27 3 0 0 4 0 2-1l-8-5h3l2-1c4 4 11 7 16 7zm0 0" fill="#e8833d"/><path d="M30 141h2-2l-4 2-5 3c-3 1-6 4-5 7-2-3 1-6 1-10h-1l1-1 5-4c-1 1-2 2-1 3-1 0 0 1 0 0h1c2-1 5-2 8 0zm0 0" fill="#f5a97a"/><path d="M21 146l-3 3c-4 4-3 12-1 17l2 2-2 1c-2-4-6-4-6-9l2 2c-2-7 1-13 4-19 0 4-3 7-1 10-1-3 2-6 5-7zm0 0" fill="#e8833d"/><path d="M16 143h1c-3 6-6 12-4 19l-2-2c0 5 4 5 6 9h-4l-5-5c-1-2-3-3-6-4l6 2h1l-1-9 1-6v6h2l1-6 4-4zm0 0" fill="#f5a97a"/><path d="M89 50h-2v-1l2 1zm26-13l-1 1-2-1 2-1 1 1zm3 7h-2l1-2 1 2zm0 0" fill="#fefefe"/></svg>