<svg xmlns="http://www.w3.org/2000/svg" width="225" height="267" viewBox="0 0 169 200"><path d="M149 97s3-5 9-2l3 5s-1 2-5 3h-6l-1-6zm0 0" fill="#d1c4b1"/><path d="M71 155s5-9 16-20c11-10 16-17 18-20 0 0 10 18 21 27 12 9 19 10 23 18 1 1 0 4 1 2 1-1 1-13-5-25s-28-41-42-41c-13 0-11 6-19 17-7 11-12 17-13 28v14zm0 0" fill="#5f312e"/><path d="M65 42l5 2s2 5 1 10l-2 6-6-2-1-7c-1-4 2-9 3-9zm0 0" fill="#d1c4b1"/><path d="M63 58s-1-2-1-7h1l2 2-2 5zm0 0" fill="#bcaa91"/><path d="M135 176l1 3 2 4c1 1 3 5 3 8l-5 1c-4 0-7-1-7-4v-4l1-5v-3zm0 0" fill="#453e3b"/><path d="M130 178v-1 1zm6-1l-1-1 1 1zm0 0" fill="#d1c4b1"/><path d="M132 179l-2-1v-1h2l3-1 1 1-3 2h-1zm0 0" fill="#38322d"/><path d="M141 189l-2 2c-1 0-5 1-8-1l-2-2c0 3 3 4 7 4l5-1v-2zm0 0" fill="#e7bc7c"/><path d="M132 191l-1-1 1 1zm-1-1zm0 0h-1 1zm0 0" fill="#d2af82"/><path d="M132 192l-2-1v-1h1v1-1l1 1v1zm5 0v-1h1v1h-1zm0 0" fill="#fbe2b1"/><path d="M141 191zm0 0zm0 0" fill="#efcd9e"/><path d="M140 190l1-1-1 1zm0 0" fill="#d2af82"/><path d="M140 191v-1l1-1v2h-1zm0 0" fill="#fbe2b1"/><path d="M130 189h-1 1zm-1 0v-1 1zm0 0" fill="#3f3228"/><path d="M130 190l-1-1v-1 1h1v1zm0 0" fill="#d28434"/><path d="M131 191v-1 1zm0 0" fill="#e1a14c"/><path d="M136 191h-3 3zm0 0" fill="#3f3228"/><path d="M136 192h-3v-1h3v1zm0 0" fill="#d28434"/><path d="M139 191l1-1-1 1zm0 0" fill="#3f3228"/><path d="M139 192v-1l1-1v2h-1zm0 0" fill="#d28434"/><path d="M85 166l1 2c0 1-1 4-3 5h-1l-3 2c-1 1-1 2-6 2-4 0-7-3-7-3l1-3 3-1h1l6-1 2-3zm0 0" fill="#453e3b"/><path d="M86 168v-1 1zm0 0" fill="#d1c4b1"/><path d="M83 169l-4-2v-1l4 2 3-1v1h-1l-2 1zm0 0" fill="#38322d"/><path d="M84 172h-3l-3 3c-3 1-6 0-8-1l-3-1-1 1s3 3 7 3c5 0 5-1 6-2l3-2h1l2-2-1 1zm0 0" fill="#e7bc7c"/><path d="M73 177h-1l1-2v2zm3-1l1-1h1l-1 1h-1zm5-3v-1h1l-1 1zm0 0" fill="#fbe2b1"/><path d="M68 174l-1-1 1 1zm0 0" fill="#d2af82"/><path d="M68 175h-1v-2l1 1v1zm0 0" fill="#fbe2b1"/><path d="M67 173zm0 0" fill="#3f3228"/><path d="M67 175l-1-1 1-1v2zm0 0" fill="#d28434"/><path d="M72 177l-1-1 1 1zm0 0" fill="#e7bc7c"/><path d="M72 177l-1-1 1 1zm-1-1zm0 0" fill="#3f3228"/><path d="M71 176h-2 2zm0 0" fill="#e7bc7c"/><path d="M71 176h-2 2zm0 0" fill="#3f3228"/><path d="M72 177l-1-1h-2l1-2 1 1v1l1 1zm0 0" fill="#d28434"/><path d="M73 175h-1 1zm0 0" fill="#3f3228"/><path d="M72 175h-1 1zm0 0" fill="#bc7b3b"/><path d="M72 177l-1-1v-1h2l-1 2zm0 0" fill="#e1a14c"/><path d="M83 173zm0-1zm0 0" fill="#3f3228"/><path d="M82 173v-1h2l1-1-2 2h-1zm-7 3v-1h1v1h-1zm0 0" fill="#d28434"/><path d="M119 97s8 14 11 29 6 50 6 50-2 4-8 0c0 0-7-35-24-63 0 0-1-2-6 11-6 13-11 37-11 42 0 0-4 3-8 0 0 0-4-30 5-55l8-18zm0 0" fill="#343432"/><path d="M135 176h0zm0 0" fill="#d1c4b1"/><path d="M132 177l3-1-3 1zm0 0" fill="#312c27"/><path d="M128 176zm0 0s-6-27-19-54c13 27 19 54 19 54zm8-2zm-50-7l1-1-1 1zm0 0" fill="#d1c4b1"/><path d="M83 168zm0 0" fill="#312c27"/><path d="M98 124zm0 0zm0 0zm0-1zm0 0zm0 0zm0 0zm0 0zm0 0v-1 1zm0-1zm0 0c4-8 5-9 6-9-1 0-2 1-6 9zm6-9zm0 0" fill="#4a2b26"/><path d="M132 177l-4-1s-6-27-19-54l-5-9c-1 0-2 1-6 9v2c-6 13-11 37-11 42l-1 1-3 1-4-2v-1 1h2l-1-10 1-6v13-10-4l1-6v-2 14l1 7 1 2h1l1-7 5-25 5-13 2-7v-4l4 2 2 2 2-1 4-1-2 3 1 2 1 5 8 19c3 6 4 13 6 19l3 11 1 6 2 1c2 0 1-5 1-7l-1-11-2-12 1 3 1 4v5l1 3v5l1 2v5-3-4l-1-5v-3l-1-3v-3l-1-3v-4l2 13 2 14c0 1-1 4 1 4l2-2v2h-1l-3 1zm-4-34zm-6-29l-10-8h2l8 8zm-32-8l1-1 1 1h-2zm6-4l1-3 5-4 2 3v1l-2-2-2 2-4 3zm0 0" fill="#2f2d29"/><path d="M111 50l-3 7 15 1s-3-1 0-9c4-8-12 1-12 1zm0 0" fill="#e9ac80"/><path d="M67 45v1-1l-2-1-1-1-1-2-4-3-4-6c-3-2-5-1-3 2l3 4 2 2h-1l-3-3-3-2c-3-1-4 1-2 3l4 2 3 2v1h-1l-4-2c-1-1-2-2-3-1-1 0-3 3-1 3l2 1h3l4 1v1h-6l-3 1c-1 1 1 2 2 2h6l2 1c2 1 5 2 7 1l3 2 2-3c0-2 1-3-1-5zm0 0" fill="#fce6d3"/><path d="M55 46h-1 1zm-1 0zm1-1l-4-1h-3l-2-1 2 1h3l4 1zm-9-2zm0 0zm0 0zm0 0h-1 1zm9 0zm-10 0zm0 0" fill="#f6e1d1"/><path d="M63 51h-2l-5-1-2-1h-6l-2-2 1-1v1l1 1h6l1-1-1-1h1v-1l-4-1h-3l-2-1h-1l1-2v1l2 1h5l1 1 1-1v-1h1c-1 2-1 4 1 6l4 2c2 0 2-2 2-3l1-1 1 4-2 1zm0 0" fill="#f3c7a7"/><path d="M65 53l-2-2 2 2zm0 0" fill="#b59170"/><path d="M66 50h-1v-5h1v5zm0 0" fill="#f3c7a7"/><path d="M65 53l-2-2 2-1h1l-1 3zm0 0" fill="#e9ac80"/><path d="M159 99l2 2c1 2 3 4 2 6 0 1 0 2-2 3 0 2-3 4-4 4l-1 1-2-1v-1l-4-3-1-4 3-4-1-3s5-3 8 0zm0 0" fill="#fce6d3"/><path d="M156 115l-1-1v-1l1-2-2-3-1-1-1 1h1a942 942 0 0 0-3 2l-1-2v-2l3-4c1-1 3-2 7-2h1c-2 0-4 0-5 2l-1 3 2 5h2v1h1l-2 2v1l-1 1zm-2-2l2-2-2 2zm4 0l1-2 2-2-1 1-1 1-1-1h2l2-2 1-1-2 4-2 2h-1zm-4-5zm0 0zm0 0zm8-1l1-1v1h-1zm1-1zm0 0M158 110zm4-2v-1 1zm1-2zm0 0" fill="#f3c7a7"/><path d="M156 115zm0 0l1-1-1 1zm0 0zm1-1zm0 0zm3-2zm0 0zm0 0zm0 0l1-1-1 1zm1-1zm0 0zm0 0zm0 0v-1 1zm0-1zm0 0zm0 0zm0 0zm0 0zm0 0zm0 0zm0 0zm0 0zm0 0c2-1 2-2 2-3v-1 1c0 1 0 2-2 3zm0 0" fill="#ebc4a4"/><path d="M156 115l-2-1v-1l2-2-1-1-1-2h-1-1l1-1 1 1 2 3-1 2v1l1 1 1-1v-1l2-2h-1v-1l1 1 1-1 1-1-2 2-1 2h1l2-2 2-4-1 1v-1h1v-1 1c0 1 0 2-2 3v1l-1 1-2 2h-1l-1 1zm0 0" fill="#e9ac80"/><path d="M109 53l4 2 10-1-5 46s-7 7-16-5c0 0-6 3-9 7 0 0-4-30 16-49zm0 0" fill="#453e3b"/><path d="M115 63l7-2 1-7-10 1-4-2-3 4 2 10 7-4zm0 0" fill="#fef8ef"/><path d="M102 95s0-13 6-28h1c-3 7-6 16-7 28zm0 0" fill="#38322d"/><path d="M108 67l4-10-3 10h-1zm5-6v-2l1-1v2l-1 1zm1-2h-1v1l1-1zm0 0" fill="#d1bda0"/><path d="M114 59l-1 1v-1h1zm0 0" fill="#fef8ef"/><path d="M80 126l2-7-2 6v1zm0 0" fill="#4a2b26"/><path d="M80 126l2-7 6-11 2-2-6 11-4 9zm17-18l-5-2 1-1 3 1-1-3 1-1 1 6zm0 0" fill="#2f2d29"/><path d="M88 108l2-4 3 1-1 1-1-1-1 1-2 2zm7-5v-3l2-1-1 3-1 1zm0 0" fill="#2c2a26"/><path d="M95 100l2-11 1-3v-2l8-22c-3 9-8 22-8 28l-1 9-2 1zm0 0" fill="#38322d"/><path d="M106 62l2-3v-1l-2 4zm0 0" fill="#d1bda0"/><path d="M88 101v-2 2zm0 0" fill="#d1c4b1"/><path d="M69 45a68 68 0 0 0 32 7h8l-9 26c-4 13-6 24-4 28l-6-2s-3 8-9 16c-7 9-12 22-9 34 0 0-5-9 2-27l11-21c3-5 4-6 4-10-1-3-3-21 7-36 0 0-16 3-29-4zm0 0" fill="#912924"/><path d="M98 52zm0 0h3-3zm4 0zm-9 0zm0 0zm-1 0zm0 0zm0 0" fill="#d7a59e"/><path d="M90 55c-4 0-9 0-13-2l-5-4-1-2v-1l8 3 13 3h11l-1 1c-1 2-7 2-10 2h-2zm0 0" fill="#b13028"/><path d="M88 86zm0 0zm8-26zm0 0zm0 0" fill="#d7a59e"/><path d="M90 93l-2-4v-3c0-8 2-17 8-26l1-1 1-1c0 3-3 14-2 26l-4 7-2 2zm0 0" fill="#b13028"/><path d="M87 61l7-1-7 1zm0 0" fill="#d7a59e"/><path d="M87 61l-17-3 1-2c2 2 6 2 10 3h13l6-3-1 1-2 2-1 1h-2l-7 1zm0 0" fill="#772822"/><path d="M96 60l1-1-1 1zm0 0" fill="#912924"/><path d="M130 129v-1 1zm0-1c-1-4-4-10-8-14l4 3 2 2 2 9zm-25-20l-1-9 1 1v6l5-1 2 1-7 2zm0 0" fill="#2f2d29"/><path d="M126 117l-4-3-8-8h-2l-2-1 6-2 10 14zm-21-17l-1-1v-1h1v2zm0 0" fill="#2c2a26"/><path d="M105 98h-1l4-18 6-16 1-1a105 105 0 0 0-9 32l-1 3zm0 0" fill="#38322d"/><path d="M114 64l3-5v1l-2 3-1 1zm0 0" fill="#d1bda0"/><path d="M124 93c2-10 9-18 9-18 12 9 18 21 20 25l5-1c-1-4-5-14-13-27-11-16-21-20-21-20s-7 10-14 26-5 28-5 28l11-3 25 34c9 12 9 22 9 24 3-24-23-61-24-63l-2-5zm0 0" fill="#912924"/><path d="M110 95c-2 0-2-2-2-3 3-7 13-21 25-31l-3-6c3 3 9 8 15 17l7 12 3 6-1 1-1-1-14-19c-1-1-6-7-9-7v1l-3 5c-3 9-12 25-17 25zm0 0" fill="#b13028"/><path d="M126 98zm0 0" fill="#d7a59e"/><path d="M130 103h-1l-5-5c-1-2-3-3-3-5l1-2 8-16c1-2 2-4 1-7l11 12 10 14-2 1c-3-5-9-13-17-20 0 0-7 8-9 18l2 5 4 5zm0 0" fill="#772822"/><path d="M106 95l2-4v1l-2 3zm0 0" fill="#742821"/><path d="M108 92v-1-1h1l1-4 2-3 1-1 1-1 2-4 1-1v-1h1l1-2 3-3 1-2 3-2v-1l4-3 2-2-2-4v-1l3 6c-12 10-22 24-25 31zm0 0" fill="#8e2c24"/><path d="M106 95s9-22 26-35c0 0-3-8-10-10 0 0-16 30-16 45zm0 0" fill="#a53126"/><path d="M122 50l-1 1c6 2 7 8 7 8s-4 3-14 17l-8 14v5s9-22 26-35c0 0-3-8-10-10zm0 0" fill="#e7bc7c"/><path d="M126 55v-1 1zm0 0" fill="#e9a86c"/><path d="M126 55v-1l2-1 1 1-3 1zm0 0" fill="#fbe2b1"/><path d="M128 59v-1 1zm0 0" fill="#e9a86c"/><path d="M127 59h1v-1h3l1 1h-5zm0 0" fill="#fbe2b1"/><path d="M122 70v-1l1-1-1 2zm0 0" fill="#e3a46e"/><path d="M118 70l1-2h3v1h-3l-1 1zm-4 7v-1l2-1v1l-2 1zm0 0" fill="#fbe2b1"/><path d="M117 76v-1 1zm0 0" fill="#e3a46e"/><path d="M110 82l1-1h1l-2 1zm0 0" fill="#fbe2b1"/><path d="M113 82l1-1-1 1zm-5 8h0zm0 0" fill="#e3a46e"/><path d="M122 66v-1 1zm0 0" fill="#e9a86c"/><path d="M121 66h1v-1h4l-1 1h-4zm0 0" fill="#fbe2b1"/><path d="M126 66v-1 1zm0 0" fill="#e3a46e"/><path d="M130 62v-1l2-1-2 2zm0 0" fill="#7f2a23"/><path d="M126 61v-1 1zm0 0" fill="#932c25"/><path d="M125 62l1-1v-1h6l-2 1v1h-5zm-3 3v-1h5l-1 1h-4zm0 0" fill="#d28434"/><path d="M122 65zm3 0zm0 0" fill="#e1a14c"/><path d="M115 75l1-1 2-1-1 1h-2zm0 0" fill="#d28434"/><path d="M118 75l1-2-1 1zm1-2zm0 0" fill="#7f2a23"/><path d="M114 78v-1h1v1h-1zm0 0" fill="#d28434"/><path d="M116 77zm-6 9zm0 0" fill="#7f2a23"/><path d="M110 84v-1 1zm8-13v-1h3v1h-1-2zm0 0" fill="#d28434"/><path d="M118 70l1-1h3l-1 1h-3zm0 0" fill="#e1a14c"/><path d="M122 70v-1 1zm0 0" fill="#cb7132"/><path d="M127 56zm0 0" fill="#932c25"/><path d="M127 56l3-1v1h-3zm0 0" fill="#d28434"/><path d="M128 53l-2-2-3-1 5 3zm0 0" fill="#e7bc7c"/><path d="M125 53l-1-1 1 1zm0 0" fill="#932c25"/><path d="M126 54l-1-1-1-1 2-1 2 2-2 1zm0-3l-3-1 3 1zm0 0" fill="#d28434"/><path d="M126 54l2-1-2 1zm0 0" fill="#e1a14c"/><path d="M106 95l3-14a57 57 0 0 0-3 13v1zm0 0" fill="#312c27"/><path d="M106 95zm0 0zm0 0zm0 0zm0 0zm0 0zm0 0l2-4a9353 9353 0 0 0-2 4zm0 0" fill="#592b25"/><path d="M108 91v-1 1zm1-1l1-3v-1l-1 4zm0 0" fill="#722a21"/><path d="M106 94a57 57 0 0 1 3-13l-1 4 1-1h1l-1 1-3 5v4zm0 0" fill="#842c23"/><path d="M106 95v-1-4h2v1a9353 9353 0 0 0-2 4zm0-5l3-5-2 2h3l-1 3h-3zm0 0" fill="#bc8c4f"/><path d="M112 83l1-1-1 1zm0 0" fill="#722a21"/><path d="M110 83v-1h3l-1 1h-2zm0 0" fill="#bc8c4f"/><path d="M114 81l2-4-2 4zm0 0" fill="#722a21"/><path d="M112 81l3-3 1-1-2 4h-2zm0 0" fill="#bc8c4f"/><path d="M116 77l1-1-1 1zm0 0" fill="#722a21"/><path d="M115 77l1-1h1l-1 1h-1zm0 0" fill="#bc8c4f"/><path d="M117 75h0zm0 0" fill="#722a21"/><path d="M116 75h1-1zm0 0" fill="#bc8c4f"/><path d="M119 73zm0 0l2-2 1-1-3 3zm0 0" fill="#722a21"/><path d="M118 73l2-2h1l-2 2h-1zm0 0" fill="#bc8c4f"/><path d="M117 76v-1 1zm0 0" fill="#b57747"/><path d="M116 76v-1h1v1h-1zm0 0" fill="#cba96e"/><path d="M113 82l1-1-1 1zm0 0" fill="#b57747"/><path d="M110 82l2-1h2l-1 1h-3zm0 0" fill="#cba96e"/><path d="M108 90h0zm0 0" fill="#b57747"/><path d="M106 90h3-3zm0 0" fill="#cba96e"/><path d="M118 75l1-2-1 1zm0 0" fill="#652922"/><path d="M117 75l1-2h1l-1 2h-1zm0 0" fill="#a96028"/><path d="M116 77zm0 0" fill="#652922"/><path d="M115 78v-1h1l-1 1zm0 0" fill="#a96028"/><path d="M110 87l2-4-2 3v1zm0 0" fill="#652922"/><path d="M109 85l1-1-1 1zm0 0" fill="#752a22"/><path d="M107 87l2-2 1-1v-1h2l-2 4h-3zm0 0" fill="#a96028"/><path d="M123 68zm0 0" fill="#722a21"/><path d="M122 68l3-2h1l-3 2h-1zm0 0" fill="#bc8c4f"/><path d="M126 65l1-1 3-2-4 3zm0 0" fill="#722a21"/><path d="M127 64v-1l3-1-3 2zm0 0" fill="#bc8c4f"/><path d="M122 69h1v-1l-1 1zm0 0" fill="#b57747"/><path d="M122 69v-1h1v1h-1zm0 0" fill="#cba96e"/><path d="M126 66v-1 1zm0 0" fill="#b57747"/><path d="M125 66l1-1v1h-1zm0 0" fill="#cba96e"/><path d="M130 62v-1 1zm-4 3l1-1-1 1zm0 0" fill="#652922"/><path d="M126 65l1-1-1 1zm0 0" fill="#a96028"/><path d="M121 71l1-1-1 1zm0 0" fill="#652922"/><path d="M120 71h1v-1h1l-1 1h-1zm0 0" fill="#a96028"/><path d="M122 70l1-1h-1v1zm0 0" fill="#a35527"/><path d="M121 70l1-1h1l-1 1h-1zm0 0" fill="#b57631"/><path d="M96 90v-6 6zm2-32l1-1 1-1v1l-2 1zm2-2l2-3-1 2-1 1zm0 0" fill="#742821"/><path d="M96 84c-1-12 2-23 2-26l2-1-1 1v3l-1 2v4l-1 3v6l-1 2v6zm0 0" fill="#8e2c24"/><path d="M99 57l1-1 1-1-1 1-1 1zm0 0" fill="#5e2a24"/><path d="M100 56s-5 15-4 34h1c0-4 9-31 15-39 0 0-3-5-12 5zm0 0" fill="#a53126"/><path d="M102 56c4-4 8-5 9-5h1s-3-5-12 5c0 0-5 15-4 34h1l1-6c0-13 4-28 4-28zm0 0" fill="#e7bc7c"/><path d="M102 55v-1h2l-2 1zm-3 6v-1l2-1v2h-2zm-1 7v-1l2-1v1l-2 1zm0 0" fill="#fbe2b1"/><path d="M99 72v-1 1zm0 0" fill="#e9a86c"/><path d="M97 73v-1l2-1v1l-2 1zm1 4v-1 1zm0 9v-1 1zm0 0" fill="#fbe2b1"/><path d="M100 57v-1 1zm0 0" fill="#672922"/><path d="M99 58l1-1-1 1zm0 0" fill="#7f2a23"/><path d="M102 57v-1 1zm0 0" fill="#932c25"/><path d="M99 58l1-2h2v1l-1 1h-2zm-2 13v-1l2-1v1l-2 1zm0 5v-3 1l2-1v2l-2 1zm0 0" fill="#d28434"/><path d="M97 74v-1l2-1v1l-2 1zm0 0" fill="#e1a14c"/><path d="M98 65v-2 2zm0 0" fill="#7f2a23"/><path d="M98 65v-2l2-1v2l-2 1zm0 0" fill="#d28434"/><path d="M96 79zm0-1l1-2-1 2zm0 0" fill="#722a21"/><path d="M98 84v-7l1-1 3-5 3-8 2-4h1l-2 3-8 22zm0 0" fill="#842c23"/><path d="M96 90V79l2-1v1l-2 1v1h2v-1 5l-2 1v1l2-1-1 4zm0-12l1-2 1 1h-2v1l2-1-2 1zm2-2h1-1zm0 0" fill="#bc8c4f"/><path d="M98 77l1-1-1 1zm0 0" fill="#bb7b47"/><path d="M96 78v-1h2v-1h1l-1 1-2 1zm0 3v-1l2-1v2h-2zm0 6v-1l2-1v1l-2 1zm0 0" fill="#cba96e"/><path d="M96 79v-1l2-1v1l-2 1zm0 0" fill="#a96028"/><path d="M114 53h-2l-1-1v-1l3 1 2-1h5v1h-3l-3 1h-1zm0 0" fill="#bb7c50"/><path d="M122 53l-1-1v-1h1l2 1-2 1zm0 0" fill="#842c23"/><path d="M124 52zm0 0l-2-1 2 1zm0 0" fill="#bc8c4f"/><path d="M124 52l-2-1 1-1 3 1-2 1zm0 0" fill="#a96028"/><path d="M110 51h-1 1zm-4 0l1-1 2 1-2-1v1h-1zm0 0" fill="#bc8c4f"/><path d="M111 52l-1-1h1v1zm0 0" fill="#682b22"/><path d="M110 51h1-1zm0 0" fill="#966637"/><path d="M144 20v-1l-1-1-1-2-2-4-3-3 2-5c-1 2-3 3-4 2V3l-1-3h-1 1c-1 4-6 4-8 3-4-1-7-3-11-3l-7 2-2 1c-5-2-8 5-12 8h-1 3l-2 1c-2 1-4 3-4 5l3-1c-1 0-2 1-2 3-1 1 0 4 1 5l2 3 2 2 3 2 3 1h1l7 1 8 1 9 1 4 1 2 1-1 1 1-2h1l3-2 2-1 3-2 3-4-1-4 1 3 1-1-2-5zm0 0" fill="#453e3b"/><path d="M106 3h-1 1zm-1 0zm15-2zm-3-1h-2 2zm0 0" fill="#aeaaa8"/><path d="M104 8l2-3c0-1-1-2-3-2h3l2-1 7-2h2l3 1h-2l-5 1-6 3-2 3h-1zm27 0h-1l4-3V0l1 3v3l-2 1-2 1zm0 0" fill="#332e2b"/><path d="M138 10l-1-1 1 1zm-1-1zm0 0" fill="#aeaaa8"/><path d="M139 11l-2-2h-3l-1 1h-1l-1-1c3 0 7-1 8-4l-2 4 1 1 1 1zm0 0" fill="#332e2b"/><path d="M145 26l1-1-1 1zm0 0" fill="#aeaaa8"/><path d="M136 35l-1-1-1 1 2-4v-3l2 1v-3-4l1 2v7c5-1 5-7 4-10l3 4-1 1-1-3 1 2v2l-3 4-3 2-2 1-1 1zm-39-6h-1l-2-2-2-3-2-4 4 5v-4l1 3 1-1v-3l2-3 1-2 1 1-2 5v6l1 2h-2zm0 0" fill="#332e2b"/><path d="M137 38l-1-3-1-1-3 2c-1 1-2 3-1 5 1 1 2 2 3 1l3-2v-2zm0 0" fill="#fce6d3"/><path d="M134 42l1-2 1-2-1-2-1-1v-1 1l1-1 1 1 1 3h1l-1 2-3 2zm0 0" fill="#f3c7a7"/><path d="M134 43l-2-1v-1l1-2 1-1 1-1v1l1 1-2-2-1 1 1-2v-2 1l1 1 1 2-1 2-1 2v1zm0 0" fill="#e9ac80"/><path d="M133 39v-1l1-1 2 2-1-1v-1l-1 1-1 1zm0 0" fill="#c5845a"/><path d="M101 34l-1-3-2-2-3 3c-1 3 3 5 5 7v-1l1-4zm0 0" fill="#fce6d3"/><path d="M98 37c-1-1-3-2-3-4v-1l3-3h1-1v1l-1 3v3l-1-1 2 2zm0 0" fill="#f3c7a7"/><path d="M99 38l-1-1 1 1zm0 0" fill="#f6e1d1"/><path d="M99 38l-1-1-2-2 1 1v-1-2l1-3v-1h1l1 5h-1l-1-2-1 1 1-1v1l1 1v4zm0 0" fill="#e9ac80"/><path d="M99 35v-1l-1-1v-1l-1 1 1-1 1 2h1l-1 1zm0 0" fill="#c5845a"/><path d="M134 21v1l1-1-1-1-7-2-4-1-5-1-8-1h-9s0-1 0 0h-1l-2 6v6l2 7-1 6 1 4 3 3 7 4h12l6-3c3-1 4-4 4-7l2-5 2-5c1-3-1-7-2-10zm0 0" fill="#fce6d3"/><path d="M122 37l-1-2 1-3-3-1h1l2-1h4v1h-2v3c0 1 0 3-2 3zm5-6h-1 1zm-19 4l-1-1v-4l1-1-2-1h-2l2-4v1l5 4-1 1v-1h-1v6h-1zm0 0" fill="#f3c7a7"/><path d="M114 52l-3-1h-2l-6-4-3-3-1-4 1-6a3908 3908 0 0 1-2-11v-2l2-5 2 4 9 4 11 1c1 0 2 0 3 2l1 1-1-1c-2-2-5-1-7-1-6-1-12-1-17-5l-1-1-1 1-1 5c1 3 3 5 3 8 0 1-2 3-1 5l2-1h-1v3c0 2 1 2 3 3l4 2h2v-1l1 1h1l3 2 2-1 1-1h1l2 1h6v-1l1-1 1-1-1 2h1l1-3 1-4c1-3 4-5 3-8l-2-4h-1l-1 1v2l-2 1 2-2v-3h2l3 1 1 1v3l-2 5-1 3-1 2v1c-1 3-2 5-4 6l-5 2-1 1h-6l-2 1zm-12-7l4 2 4 3 4 1 8-1 4-2-7-1-3 1h-2l-3-1-1-1-3 1-2-1-3-1zm0 0" fill="#f7d4bb"/><path d="M127 31zm-1 0v-1 1zm0 0" fill="#ebb792"/><path d="M115 48l-3-2h-1l-1-1v1h-2l-4-2c-2-1-3-1-3-3v-1l2 3 2-1-1 1 2 1 3-1-1 2h1l1-1c3 0 4-2 6-4 1 2 2 5 5 6l3 1 2-1h1-1l2-1-1 1v1h-6l-2-1h-1l-1 1-2 1zm14-5zm0 0" fill="#edb790"/><path d="M110 41s2-2 5-2l6 2-3 5c-1 1-3 2-5 1l-4-5zm0 0" fill="#6f2627"/><path d="M115 42c3 0 3 2 3 3l3-4-6-2c-3 0-5 2-5 2l-1 1 3 4c0-3 1-5 3-4zm0 0" fill="#4d2a27"/><path d="M116 43c2 0 3-1 4-3l-5-1-5 1c2 2 4 4 6 3zm0 0" fill="#e9eae1"/><path d="M115 42l1-1 1 2 3-3-5-1-5 1 4 3 1-1zm0 0" fill="#d7d1c6"/><path d="M116 44c-2 0-2 1-3 2v1c2 1 4 0 5-1v-1l-2-1zm0 0" fill="#f0898a"/><path d="M118 45l-3 1h-2v1c2 1 4 0 5-1v-1zm0 0" fill="#e35e5e"/><path d="M109 32l-1 2-1-2 1-2 1 2zm0 0" fill="#453e3b"/><path d="M108 31v-1 1zm0 0" fill="#fefefe"/><path d="M124 34l-1 2-1-2 1-2 1 2zm0 0" fill="#453e3b"/><path d="M123 33s0 1 0 0v-1 1zm0 0" fill="#fefefe"/><path d="M110 29v-1l-1-1-2-2c-1-1-2 1-2 2 1-1 4 1 5 2zm15-2l-3 1-2 2v1l2-1h5l-2-3zm5 15l-1 1 1-3c-1-2-3-4-5-2h1v2l-2 1-3-3-3-2-3 2-2-2c-1-1-2 0-3 1s-1 2-3 2l-2-1 1-3c-2 0-4 2-5 3-1 2 1 4 2 5l2-1-1 1 2 1 3-1-1 2 2-1c3 0 4-2 6-4 1 2 2 5 5 6h6-1l2-1 2-3zm0 0" fill="#453e3b"/><path d="M138 29v-3-3l-1-5-5-3-6-3c-4-2-9-4-14-4l-7 1-5 2-1 1c0 3 0 6 3 8l9 4 11 1c1 0 2 0 3 2 2 1 2 3 0 4 1 0 4 0 5-2v-3h2l3 1 3 2c0 1 0 1 0 0zm0 0" fill="#483e3b"/><path d="M125 41c-2 0-3 0-4-2l-3-2-2 1 2-1 2 1 2 1c0 1 1 2 3 2zm-18-1c-2 0-3-1-3-3 0 2 1 2 2 2h3l-2 1zm3-2zm0 0" fill="#665f5e"/><path d="M106 21l-5-4v-5c-1 1-1 3 1 6l4 3zm-5-9l1-1-1 1zm0 0" fill="#615957"/><path d="M129 4h-3l-8-2h1l6 1 4 1h3l2-2c-1 2-3 2-5 2zm6 3h-1 1l3-2c0 2-1 2-3 2zm10 15v-1l-4-5-4-5c-2 0-3 1-2 2l3 4 2 4-4-4-4-2-6-3-6-2V9l6 2h1l1-1-2-1-5-3V5l6 3h7l-4 1h-1l5 1h3l3 3 1 2 3 4 1 2v1zm0 0" fill="#5f5857"/><path d="M127 31c4-3 1-6 0-7-1-2-4-3-5-3l-10-3-5-4-3-4c1 2 3 2 5 2l5 2 4 1h1c2 0 3-3 2-5h-1l6 2 6 3 4 2c-3-2-7-3-10-3l7 8-10-4-7-2c3 3 9 3 12 7l2 3v3l-3 2zm0 0" fill="#615957"/><path d="M94 15l4-5-4 2h1l3-4-4 3 1-1 4-5 4-2h-1l-2 2 2-1c-1 1-2 2-1 3v1h1l-2 3-1 1c-1 1-3 3-5 3zm0 0" fill="#5f5857"/><path d="M99 12l1-1-1 1zm0 0" fill="#615957"/><path d="M94 101l-2 2-1-2 1-3c1 0 2 1 2 3zm0 0" fill="#ae7a3c"/><path d="M93 103l-2-2 1 2 2-2c0-2-1-3-2-3h1l1 3-1 2zm0 0" fill="#742821"/><path d="M92 103l1-2v-2l-1-1c1 0 2 1 2 3l-2 2zm0 0" fill="#7b4524"/><path d="M93 101l-1 2-1-2 1-3 1 3zm0 0" fill="#e7bc7c"/><path d="M91 101zm1-3zm0 0" fill="#c7714d"/><path d="M93 99l-1-1 1 1zm0 0" fill="#bd8a4d"/><path d="M91 101l1-3 1 1-2 2zm0 0" fill="#f3d49f"/><path d="M92 103l1-2-1 2zm0 0" fill="#e0a85f"/><path d="M107 101l1 2 2-2-1-3c-1 0-2 1-2 3zm0 0" fill="#ae7a3c"/><path d="M108 104l-2-3c0-2 1-3 3-3l1 3-2 3zm1-1l1-2v-1l-1-2c-1 0-2 1-2 3l1 2h1zm0 0" fill="#742821"/><path d="M108 103l-1-2c0-2 1-3 2-3l-1 3 1 2h-1zm0 0" fill="#7b4524"/><path d="M108 101l1 2 1-2-1-3-1 3zm0 0" fill="#e7bc7c"/><path d="M110 101v-1 1zm-1-3zm0 0" fill="#b9704a"/><path d="M110 101l-2-2 1-1 1 2v1zm0 0" fill="#f3d49f"/><path d="M109 103l-1-2 1 2zm0 0" fill="#e0a85f"/><path d="M70 44l-5-2c0 1 3 7-2 16l6 2 2-6c1-5-1-10-1-10zm0 0" fill="#fef8ef"/><path d="M63 58l2-5-2 5zm0 0" fill="#c4b5a0"/><path d="M65 53l1-3-1 3zm0 0" fill="#dfb696"/><path d="M69 60l-6-2 2-5 1-3v-1 2l2 2 3 1c0 5-2 5-2 5v1zm0 0" fill="#eee4d7"/><path d="M153 108l-5 9v2h3l5-8-3-3zm0 0" fill="#343432"/><path d="M149 119h-1v-1l2-3 4-7 1 2-3 6-3 3zm0 0" fill="#54504e"/><path d="M149 117h-2l1 2h2c1-1 0-1-1-2zm0 0" fill="#453e3b"/><path d="M149 118s-4 7 7 20c10 13 16 23 12 38-5 14-15 27-45 23-29-4-52-16-65-10-5 2-8 7-9 10v-1c1-3 4-7 9-10 13-6 36 6 64 10 29 4 40-9 44-23s-2-24-12-37-6-20-6-20h1zm0 0" fill="#343432"/><path d="M158 95c-6-3-9 2-9 2l1 6s4-4 11-3l-3-5zm0 0" fill="#fef8ef"/><path d="M150 103l-1-6 4-3 1 4 1 2-5 3zm0 0" fill="#eee4d7"/><path d="M117 59h-1l-2-2h-2 1l1-1 2 2 1 1zm-9-1l1-1 2-1 2 1h-2l-3 1zm0 0" fill="#d1bda0"/><path d="M112 57h0zm-4 2v-2h1l-1 1v1zm9 1v-1 1zm0 0" fill="#a88c67"/><path d="M120 61l-2-1h-1v-1h1l2 1 2-3v-4h1c1 2-1 3-1 5l-1 3zm-14-2l-1-1v-4-1 4l1 1h1v1h-1zm0 0" fill="#842c23"/><path d="M105 53l1-2v2h-1zm0 0" fill="#bc8c4f"/><path d="M107 59v-1l1-1v2h-1zm0 0" fill="#682b22"/><path d="M106 51zm0 0" fill="#966637"/><path d="M112 53c-1-1-3-3-5-3v1h-1l-1 3v3c1 2 6-1 6-1h1v-1-2zm10 0s1 0 0 0l-4-1-4 2v2l2 2 2 1 2 1 2-3v-4zm0 0" fill="#cb3127"/><path d="M105 53h1-1zm0 0" fill="#915630"/><path d="M106 58l-1-1v-4h1v2l3 1 1-1-1-1 1 1 1-1v-2l1 1h-1v3l-3 1-1 1h-1zm14 2l-2-1-2-1-2-2 1-2-1-1h2l-1 1 1 1h-1l3 2 1 1 2-2 1-3v4l-2 3zm0 0" fill="#9d2a25"/><path d="M111 53l4 1-1 2h-3v-3zm0 0" fill="#cb3127"/><path d="M113 57zm0 0l1-1-1 1zm0 0" fill="#b59378"/><path d="M113 57l-2-1v-1-2h2l2 1-1 2-1 1zm-1-4l-1 2h3v-1l-1-1zm0 0" fill="#b02e27"/><path d="M81 150v-2-5l1-2v-3l1-2v-2-1-2l1-3 1-4 1-2v-2l1-2v-1l1-3 1-2h1-1v2l-2 3v1l-1 2v2l-1 2-1 4v3l-1 2v3l-1 2v3l-1 9zm0 0" fill="#615f5e"/><path d="M81 166v-16l1-9v2l-1 6v17zm0 0" fill="#5e5a58"/><path d="M128 146v-1-2l-2-6v-3l-1-3-1-1v-1l-1-3-1-3v-2l-1-2-1-2-1-2-1-1v-3 1l1 2v1l1 2 1 2 1 2v2l1 3 1 3 1 2 1 3v3l2 6v3zm1-1l-1-2v2h1zm0 0" fill="#615f5e"/><path d="M132 176v-3-5l-1-2v-5l-1-3v-3-2l-1-4-1-3v-3l1 2v4l1 3v3l1 3v3l1 5v10zm0 0" fill="#5e5a58"/><path d="M76 173h-5s-4-1-2-2c-2 0 0 2 1 2h6zm2-1h-1 1zm62 16l-6 1c-2-1-4-1-4-3 0 2 2 3 4 3l6-1zm-2-4l-1-3 1 3zm0 0" fill="#8d8a89"/><path d="M154 109l-5 7h1l3-6 1-1zm-5 9l-1 2v3l2 6a102 102 0 0 0 9 13l1 3 1 1 3 5h1v2l1 1v2l1 1v1l1 2v12l-3 10-7 9c-2 2-5 4-9 5v1h-3l-1 1h-2l-2 1h-15l-2-1h-2 4l1 1h7l7-1 8-2 8-5 7-9 2-5 2-5v-10-1l-4-10-6-8-5-7-4-7-1-6v-3l1-1v-1zm0 0" fill="#988c89"/><path d="M61 42c2-2-3-7-10-12-7-6-10-9-30-20 0 0-12-7-13-6 0 0 2 11 25 26 18 11 28 12 28 12zm0 0" fill="#56312b"/><path d="M45 36l-3-1-2-1-7-4-6-4-3-3-7-6c2 0 25 13 28 19zm0 0" fill="#282624"/><path d="M43 39s-5 10-5 20c0 0-10 1-22-7C5 45 0 36 0 36s10-9 15-17zm0 0" fill="#a53126"/><path d="M36 59l-10-2h1l7 1-6-1 3-2 1-4 3-4 2-6 5 2 1-3c-1 3-5 11-5 19h-2zm0 0" fill="#872a23"/><path d="M17 53l-1-1 1 1zm0 0" fill="#d7a59e"/><path d="M19 54l-2-1-1-1-8-6h1l7 5 4 3h-1zm1-1l-10-8 9-10 1-3 8 6-8 15zm0 0" fill="#bf3a28"/><path d="M5 43l-5-7s7-6 12-13l1 1 1 2-2 4-6 8-1 3-2-2 2 3v1zm9-22v-1 1zm0 0" fill="#872a23"/><path d="M42 43l1-4-28-20-3 4c7 10 18 17 30 20zm0 0" fill="#e7bc7c"/><path d="M42 43l-8-3 2-2 6 2h1l-1 3zm0 0" fill="#d28434"/><path d="M13 24zm0 0l-1-1 1 1zm0 0" fill="#782b22"/><path d="M18 30l-5-6-1-1 2-3 1 1 5 6zm0 0" fill="#d28434"/><path d="M29 38l-4-3 2-3 4 3zm-6-4l-1-1 2-3 1 1zm0 0" fill="#fdeaba"/><path d="M61 42c-1 1-11 0-19-2 0 0-13-3-27-19C15 21 4 7 8 4c0 0 2 11 25 26 18 11 28 12 28 12zm0 0" fill="#a53126"/><path d="M50 41h-3 3zm0 0" fill="#fde7d6"/><path d="M44 40h-1 1zm0 0" fill="#d7a59e"/><path d="M43 40h-1l-6-2 6 2h1zM20 27l-5-6 5 6zm-5-6l-1-1 1 1zm0 0" fill="#de8939"/><path d="M50 41h-3c-8-2-15-7-21-12l16 10 8 2zm-6-1h-2l-6-2-5-3-4-3-2-1-1-1-4-3-5-6-1-1 1 1 11 10c7 6 14 8 18 9zm0 0" fill="#bf3a28"/><path d="M7 6c1 2 7 14 23 24 14 9 23 11 27 12h4s-10-1-28-12C10 15 8 4 8 4L7 6zm0 0" fill="#e7bc7c"/><path d="M28 26l-4-3 3 3zm0 0" fill="#282624"/><path d="M27 28l-3-2v-3l4 3-1 2zm0 0" fill="#d28434"/><path d="M13 14C8 8 8 4 8 4s0 4 5 10zm0 0" fill="#4a2c25"/><path d="M14 16L7 6l1-2s0 4 5 10l1 2zm0 0" fill="#d28434"/><path d="M48 39zm0 0" fill="#f5c383"/><path d="M48 39l-3-1-2-1 2-1 6 3h-3zm0 0" fill="#fdeaba"/><path d="M42 35l-2-1 2 1zm0 0" fill="#eabd7f"/><path d="M40 36l-1-1 1-1 2 1h-1l-1 1zm0 0" fill="#fdeaba"/><path d="M33 32l-3-2 3 2zm0 0" fill="#f5c383"/><path d="M33 32l-3-2v-2l3 2 1 1-1 1zm0 0" fill="#fdeaba"/><path d="M61 42l-1-1 1 1zm0 0" fill="#4a2c25"/><path d="M58 42h-3l4-1h1l1 1h-3zm0 0" fill="#d28434"/><path d="M27 57l-7-3v-1l8 4h-1zM9 46l-4-4v-1l5 4-1 1zm0 0" fill="#e64123"/><path d="M34 58l-7-1h1l6 1zm0 0" fill="#e53824"/><path d="M20 54l-4-3-7-5 1-1 10 8v1zm0 0" fill="#e84b2a"/><path d="M5 42l-2-3 2 2v1zm0 0" fill="#e53824"/><path d="M46 41l-2-1 2 1zm0 0" fill="#da3225"/><path d="M26 29l-5-3-6-5-4-5s6 7 15 13zm0 0" fill="#e64123"/><path d="M46 41l-2-1 2 1zm0 0" fill="#e43824"/><path d="M47 41h-1l-2-1c-4-1-11-3-18-9L15 21l6 5 5 3c6 5 13 10 21 12zm0 0" fill="#e84b2a"/><path d="M63 37h-3l-5-2v1c-1 2 1 3 2 3 2 1 3 2 5 1-1 3 0 4 1 5 0 0 2 2 3-1s0-6-3-7zm0 0" fill="#fce6d3"/><path d="M63 44c-1-1-2-2-1-4-1 2 0 3 1 4zm0 0" fill="#f3c7a7"/><path d="M61 40l-4-1h-1 1l4 1zm0 0" fill="#512e28"/><path d="M63 44c-1-1-2-2-1-4h-1l-4-1h-1l-1-3c0 2 1 2 2 3l4 1h2v4zm0 0" fill="#f3c7a7"/></svg>