<svg xmlns="http://www.w3.org/2000/svg" width="368" height="267" viewBox="0 0 276 200"><path d="M145 167l-4 4-7 5-5 3a90 90 0 0 1-60 15c11-1 21-6 31-11 13-6 29-20 34-35 0-2 2-3 3-4l2-1c3-2 6-1 7 1 5 2 7 7 5 13-1 4-4 7-6 10zm12 11l-9-6c7-7 13-21 5-29-8-9-14-8-23 0v1l-1 2-1 2-2 4-1 1-2 4c-15-11-19-33-31-47 6 3 14 5 21 5 9 1 17 0 26-1l19-5c8-1 10 0 17 2 15 4 27 7 31 23 6 19-1 39-22 45-7 3-20 0-27-1zm117-67l-2 2-11 4 1 3 6-3-1 2-4 2v1l-3 1v3h1c-6 12-14 22-25 31-9 8-20 13-31 18h-2c10-10 14-27 10-40-2-8-6-17-13-23-8-6-22-7-31-9s-19 2-28 4c-17 5-34 4-49-4l-7-4c-5-3-12-5-17-10-17-9-38-13-56-11v3l19 2c23 3 47 13 60 32 9 15 15 35 28 46-7 8-16 15-26 20a86 86 0 0 1-36 9h-1l-7-1h-2a63 63 0 0 0 14 8h2l7 2c26 5 54-8 74-23l4 3c5 3 10 5 16 5 10 2 19 3 27-1a132 132 0 0 0 48-22c13-9 23-23 28-38l7-7 1-1 1-2-2-2zm0 0" fill="#2b2a29"/><path d="M178 69l-5 3a105 105 0 0 0 8-46c5 13 8 27 5 39l-8 4zm71 31a67 67 0 0 0-51-32l16-2c8 1 15 3 22 6l6 7c5 5 8 12 10 19l-2 1zm7-2v-2c-2-6-5-12-10-18 7 6 11 12 13 21l-3-1zm10 4l-7-18-1-2c-6-5-9-10-16-14l-8-3-4-2c-11-3-22-2-33-1l-6 1c1-9-1-17-2-27l-2-8-6-15-8-12 2 12c2 8 3 15 2 23-1 9-4 35-14 41l-15 7c-13 7-31 10-48 6h-1l-4-2h-2C74 73 63 43 70 21c2-8 5-15 10-21l-1 1-4 3v1h-1c-9 8-15 17-20 27-4 8-9 18-8 26L19 69c-6 3-15 7-19 13v1c3-3 8-3 12-2v-3h-2l16-8 20-7 4-2 1-4c2-12 6-24 13-34-6 22 6 49 23 65h1l3 2c1 1 2 3 4 3l5 2h1l6 1h17c6-1 14-1 19-3l20-10 22-10 7-1c8-1 16 2 23 5 13 5 23 14 30 25l1 2-3 7c-1 4 1 10 4 12 4 4 9 4 13 3v-3h-8c-3-2-5-3-6-6l2 1c2 2 6 3 9 2h5l-1-3h-10c-2-1-4-1-4-3l-1-1v-3l4-8 3-2 8 4 2 1 1 1 8 7 2-2c-2-4-5-6-8-9zm0 0" fill="#2b2a29"/><path d="M264 106l-1-1-2-1-8-4-3 2-4 8v2l21 3 5-2-8-7zm0 0" fill="#f8b46d"/><path d="M246 113l1 1c0 2 2 2 4 3h10l6-2-21-3zm0 0M268 117l-1 2-4 2v1l-3 1h-8c-3-2-5-3-6-6l2 1c2 2 6 3 9 2h5l6-3zm0 0" fill="#f49c67"/><path d="M246 78c7 6 11 12 13 21l-3-1v-2c-2-6-5-12-10-18zm0 0" fill="#68c0e8"/><path d="M101 95h-1l-5-2c-2 0-3-2-4-3l-3-2h-1C70 72 58 45 64 23c-7 10-11 22-13 34l-1 4-4 2-20 7-16 8h2c18-2 39 2 56 11 5 5 12 7 17 10l7 4c7 3 14 6 21 7l-7-14-5-1zm0 0" fill="#00ace2"/><path d="M220 102v-1l1-1 2-2 1-1c2-3 6-4 9-1 1 3 3 4 3 7l-3 7c-3 3-9 3-11-1-2-2-2-5-2-7zm-15 73c11-5 22-10 31-18 11-9 19-19 25-31h-1c-4 1-9 1-13-3-3-2-5-8-4-12l3-7-1-2c-7-11-17-20-30-25-7-3-15-6-23-5l-7 1-22 10-20 10c-5 2-13 2-19 3h-18l7 14c9 1 18 0 28-3 9-2 19-6 28-4s23 3 31 9c7 6 11 15 13 23 4 13 0 30-10 40zm0 0" fill="#68c0e8"/><path d="M252 98l-2 1-1 1a67 67 0 0 0-51-32l16-2c8 1 16 3 22 6l6 7c5 5 8 12 10 19zm0 0" fill="#9dd7f2"/><path d="M225 100c3-2 6 3 3 5s-6-3-3-5zm-1-3l-1 1-2 2-1 1v1c0 2 0 5 2 7 2 4 8 4 11 1l3-7c0-3-2-4-3-7-3-3-7-2-9 1zm0 0" fill="#2b2a29"/><path d="M225 100c3-2 6 3 3 5s-6-3-3-5zm0 0" fill="#fefefe"/><path d="M181 25c5 14 8 28 5 40l-8 4-5 3a105 105 0 0 0 8-46zm0 0" fill="#334190"/><path d="M113 115c-7 0-15-2-21-5 12 14 16 36 31 47l2-4 1-1 2-4 1-2 1-2v-1l4-3c-7-8-13-16-18-25h-3zm43 45c-2 5-5 9-8 12l9 6c7 1 20 4 27 1h1c-10-5-20-12-29-19zm0 0" fill="#74cbee"/><path d="M206 134c-4-16-16-19-31-23-7-2-9-3-17-2l-19 5c-8 1-16 2-23 1 5 9 11 17 18 25 7-5 12-4 19 3 4 5 4 11 3 17 9 7 19 14 29 19 20-7 27-26 21-45zm0 0" fill="#9dd7f2"/><path d="M151 148l-5-4c-1-2-4-3-7-1l-2 1c-1 1-3 2-3 4-5 15-21 29-34 35-10 5-20 10-31 11l16 1c26-8 50-24 66-47zm0 0" fill="#2a4997"/><path d="M85 195a103 103 0 0 0 56-24l4-4c2-3 5-6 6-10 2-4 1-7 0-9-16 23-40 39-66 47zm0 0" fill="#383a87"/></svg>