<svg xmlns="http://www.w3.org/2000/svg" width="293" height="267" viewBox="0 0 220 200"><path d="M149 25l-1 1c-9 3-8 11-8 11 8 3 15 10 19 18 21-13 3-33-10-30zm0 0" fill="#534f4c"/><path d="M149 25l-1 1c-7 3-8 7-8 9v2c8 3 15 10 19 18 7-5 9-10 9-15 0-8-8-15-16-15h-3v1l3-1c4 0 8 2 11 5 3 2 5 7 5 10 0 5-3 10-9 15-4-8-11-15-19-18v-2c0-2 1-6 8-9h1zm0 0" fill="#252626"/><path d="M99 62c2-7 7-20 19-25 15-8 37 4 42 22 6 18-18 27-33 30s-34-6-28-27zm0 0" fill="#d0cecc"/><path d="M99 62c2-7 7-20 19-25 3-2 6-2 10-2 14 0 28 10 32 24l1 5c0 7-5 13-12 17-7 5-15 7-22 8h-5c-6 0-12-1-16-5-5-3-8-8-8-16l1-6-1 6c0 8 3 13 7 16 5 4 11 6 17 6l5-1c7-1 16-3 22-8 8-4 13-9 13-17l-1-5c-4-14-19-25-33-25l-11 2c-11 5-17 19-18 26zm0 0" fill="#252626"/><path d="M91 43c-4 1-8 4-9 10-4 15 11 20 16 18l1-9c0-4 2-9 7-15-1-3-8-6-15-4zm0 0" fill="#534f4c"/><path d="M91 43v-1c-4 2-8 5-9 11l-1 5c0 5 2 8 5 10 2 3 6 3 8 3h4v-3l1-6c1-4 3-9 7-15l-4-3c-2-2-4-2-7-2h-4v1l4-1 7 2 3 3h1-1 1-1c-4 6-6 11-6 15l-1 6v3h-4c-2 0-6-1-8-3-3-2-4-5-4-10v-5c2-6 5-9 9-10zm0 0" fill="#252626"/><path d="M117 24c4 4 2 10 2 10l-2-4c2 4 0 7 0 7h1c2-2 4-2 7-2-3-2-2-7-2-7-2 1-2 4-2 4 0-6-4-8-4-8zm0 0" fill="#534f4c"/><path d="M117 24l3 6-1 4-2-4 1 4-1 3h1c2-2 4-2 7-2l-2-6v-2c-2 2-2 5-2 5 0-6-4-8-4-8h1c1 1 3 3 3 8v-2l2-2v1c0 2 0 5 2 6l-8 1v1l1-3-1-4 1 2 1 2 1-4-3-6zm0 0" fill="#252626"/><path d="M96 53c-3 1-5 3-5 7 1 4 5 5 7 5l1-3 3-9h-6zm0 0" fill="#3b3938"/><path d="M96 53c-3 0-5 2-5 6v1c1 4 5 5 7 5l1-3 3-9h-6 6-1l-2 9-1 3c-2 0-6-1-7-5v-1c0-3 2-5 5-6zm0 0" fill="#252626"/><path d="M152 36c-3 1-5 2-6 4 4 2 8 6 10 10 7-6 4-15-2-15l-2 1zm0 0" fill="#3b3938"/><path d="M152 36v-1c-3 1-5 3-6 5l10 10c3-3 4-5 4-8 0-2 0-3-2-5l-4-2h-2v1l2-1c3 0 6 4 6 7s-1 5-4 8h1c-3-4-7-8-11-10l6-4zm0 0" fill="#252626"/><path d="M122 86c-7 0-13-1-16-4 3 0 3-6 8-9h1l-1 3c0 3 3 5 6 7l6 3h2c1 0 4-1 4-3 4-5 4-9 3-10 0-1-1-5-4-5l-4-2-3 1-6 1v1c0-4-3-8-7-8l-2 2c-7 2-8 8-8 11-3-10 3-23 12-32 5-5 10-6 16-6 15 0 31 18 30 30l-1 3c-1 6-7 9-18 14-6 3-13 3-18 3zm5-48l7 2c3 0 6 2 9 4l4 2 4 5 2 1-1-2-2-2-6-6-9-4-6-1h-1c-3 0-6 0-8 2-1 0-2 0-1 1l5-1 3-1zm0 0" fill="#e7e7e4"/><path d="M128 86h-2l-6-3c-3-2-6-4-6-7l1-3 3-4v-1l6-1 3-1 4 2c3 0 4 4 4 5 1 1 1 5-3 10 0 2-3 3-4 3zm-4-5s2 2 5 2l2-1 2-4-1-2v-3s1 5-3 7v1c-5-1-6-7-6-7s0 6 6 7h-3c-3 0-5-3-5-3l3 3zm-5-9l4 2c2 0 3-2 4-4v-1l-3-1h-4l-2 2 1 2zm0 0" fill="#f4f3f1"/><path d="M129 81c-6 0-6-7-6-7s1 6 6 7zm0 0" fill="#252626"/><path d="M132 76c0 2-1 4-4 5h-4s4 4 7 1c3-2 1-6 1-6zm0 0" fill="#6a3539"/><path d="M132 76c0 2-1 4-4 5h-4s2 2 5 2l2-1 2-4-1-2v2l-1 4-2 1-3-1-2-1h4c3-1 4-3 4-5zm0 0" fill="#252626"/><path d="M126 81c-3 0-5-3-5-3s3 5 7 3c5-2 4-8 4-8s1 6-4 8h-2zm0 0" fill="#252626"/><path d="M139 55s-5-2-8 0c-2 3-4 0-3-1s6-4 11 1zm0 0" fill="#433f3e"/><path d="M139 55l-5-1-3 1-2 1-1-1v-1l4-2c2 0 5 1 7 3-2-2-5-3-7-3l-4 2-1 1 2 1 2-1 3-1 5 1zm0 0" fill="#252626"/><path d="M104 64s2-4 7-4c3 0 3-2 1-2-1-1-7 0-8 6zm0 0" fill="#433f3e"/><path d="M104 64l2-1 4-3h1l2-1-1-1h-1c-2 0-6 1-7 6 1-5 5-6 7-6h1l1 1-2 1h-1c-4 0-6 4-6 4zm0 0" fill="#252626"/><path d="M101 74c0-3 1-9 8-11 6-5 12 6 5 10-6 3-5 11-10 9-1-1-3-5-3-8zm29-6c-2-2-4-5-2-9 4-6 14-4 19 4s0 13-4 8c-5-4-8 0-13-3zm0 0" fill="#534f4c"/><path d="M109 66c0-2 2-2 5-1 1 0 2 3 1 5-1 1-3 2-5 1-1-1-2-3-1-5zm0 0" fill="#d8ebfa"/><path d="M109 66l2-2 3 1 2 3-1 2-3 1h-2l-2-3 1-2-1 2 2 3h2l3-1 1-2-2-3-3-1-2 2zm0 0" fill="#674531"/><path d="M114 65l-3 1c0 2 0 3 2 4h2c1-2 1-4-1-5zm0 0" fill="#5b4132"/><path d="M109 65h5-2l-1 3 2 2h1v1h-4l-1-2v-1-3zm0 0" fill="#ebf5fc"/><path d="M112 65h1l1 1h-2v-1zm0 0" fill="#fefefe"/><path d="M112 66l-1 1 1 1 2 1 1-1v-2l-1-1v1h-2zm0 0" fill="#6a4430"/><path d="M112 67v1l2 1 1-2-1-1v1h-2zm0 0" fill="#73462d"/><path d="M135 59c-1-1-3-1-5 1-1 3 0 5 2 5 2 1 4 0 5-2 1-1 0-3-2-4zm0 0" fill="#d8ebfa"/><path d="M135 59l-1-1-4 2v2l2 3h2c1 0 3 0 3-2v-1c0-2 0-3-2-3 2 0 2 1 2 3v1c-1 2-2 2-3 2h-2l-2-3 1-2c0-1 1-2 3-2l1 1zm0 0" fill="#674531"/><path d="M130 62c1-2 2-2 3-1l1 3-2 1-2-3zm0 0" fill="#5b4132"/><path d="M134 58l-2 1-1 1h1l2 2v2l-1 1h1c2 0 3-1 3-2v-2-1l-3-2zm0 0" fill="#ebf5fc"/><path d="M132 60h-1l1 1c0 1 0 0 0 0v-1zm0 0" fill="#fefefe"/><path d="M132 61h2v2s0 2-2 2h-1l-1-2 1-2 1 1v-1zm0 0" fill="#6a4430"/><path d="M132 62c1-1 1 0 1 1v1l-1 1-1-2v-1h1zm0 0" fill="#73462d"/><path d="M119 72c-1-1-2-3 1-4 2 0 7-2 7 2-1 3-4 6-8 2zm0 0" fill="#433f3e"/><path d="M119 72v-2l1-2h4l3 1v1c-1 2-2 4-4 4l-4-2 4 2c2 0 3-2 4-4v-1l-3-1h-4l-2 2 1 2zm0 0" fill="#252626"/><path d="M153 52l-2-1-4-5-4-2c-3-2-6-4-9-4l-7-2-3 1-5 1c-1-1 0-1 1-1 2-2 5-2 8-2h1l6 1 9 4 6 6 2 2zm0 0" fill="#f4f3f1"/><path d="M160 53h-1c-3-4 0-4 1-6 2-5 2-8-1-12l-4-1-7 1-3 3h-1l-2-2c-3-4 3-8 7-9h3c3 0 7 0 10 3 5 7 5 11 3 17 0 1-3 6-5 6zm-7-26c-1 0-1 1 2 2 2 0 5 1 7 3 3 3 3 7 3 10l1-2c1-1-1-3-1-5-3-5-7-8-12-8zm0 0" fill="#615c59"/><path d="M165 42c0-3 0-7-3-10-2-2-5-3-7-3-3-1-3-2-2-2 5 0 9 3 12 8 0 2 2 4 1 5l-1 2zm0 0" fill="#6e6964"/><path d="M95 71c-1 0-12-3-12-13 0-3 0-7 3-10 1-3 6-5 10-5l3 1c3 1 6 3 3 6h-5c-3 1-6 3-7 7-1 2 0 6 2 6 2 2 6 2 5 5l-2 3zm-2-27l-3 1c-4 2-6 7-7 11v3-1l1-3 3-7 6-3h1l-1-1zm0 0" fill="#615c59"/><path d="M83 59v-3c1-4 3-9 7-11l3-1 1 1h-1l-6 3-3 7-1 3zm0 0" fill="#6e6964"/><path d="M97 65h-1c-4-1-5-8 0-10l3-1 1 1-3 1-1 4c0 1 3 5 1 5zm61-20h-1v-1l-2-4h-4l-2 1h-1c-1-1 1-3 2-3l4-1c3 0 6 3 5 8h-1zm0 0" fill="#3f3c3c"/><path d="M128 83l1-2 3-1-1 2-3 1zm0 0" fill="#822d35"/><path d="M129 83l-1-1 1-1 2-1 1 1-1 1-2 1zm1-2h-1v0h1zm0 0" fill="#912832"/><path d="M129 83v-1-1h0v2zm0 0" fill="#9e2a35"/><path d="M123 73c-2 0-4-2-4-3-1-1 0-2 1-2h6v2l-3 3zm1-5h-3l-2 2 1 2 2 1c2 0 3-2 3-2l1-3h-2zm0 0" fill="#4f4b4a"/><path d="M122 73l-2-1-1-2 2-2h5l-1 3s-1 2-3 2zm2-5l-1 1c-1 1 1 1 1 1v1h1v-2l-1-1zm0 0" fill="#585351"/><path d="M124 71v-1s-2 0-1-1l1-1 1 1v2h-1zm0 0" fill="#615c59"/><path d="M119 149s-13 3-22-4c-6-5-3-19 10-13zm0 0" fill="#534f4c"/><path d="M119 149l-2 1h-5c-4 0-10-1-14-5-3-2-4-5-4-7 0-4 2-8 7-8l5 2h1-1l13 17-12-17c-2-2-4-2-6-2l-5 2-3 6 4 7c4 4 11 5 15 5h7zm0 0" fill="#252626"/><path d="M112 149c-3 0-9-1-13-4-6-5-6-14 2-14l5 1 12 16-6 1zm-5-9h-2c-1 2 0 4 2 5h5c1-2 0-3-2-5h-3zm0 0" fill="#615c59"/><path d="M101 135v-3l3 1v3l-3-1zm-4 2l-1-2h3l2 4-4-2zm2 6l-2-2 2-1 2 2-2 1zm8 2c-2-1-3-3-2-5h5c2 2 3 3 2 5h-5zm0 0" fill="#dbc0b3"/><path d="M73 82s-3-4-2-11c0-7-2-12 0-20 0 0 9 14 2 31zm0 0" fill="#bfd264"/><path d="M73 82v-1c-1-1-2-4-2-9v-3l-1-11 1-7v2a36 36 0 0 1 2 29v-1 1l3-13c0-11-5-18-5-18l-1 7v14c0 7 3 10 3 10zm0 0" fill="#6f9037"/><path d="M72 82s11-6 15-14c0 0-8 0-17 14zm0 0" fill="#bfd264"/><path d="M72 82s11-6 15-14c-1 0-8 0-17 14v1l2-1h-2c9-14 16-14 17-14-2 4-6 8-9 10l-4 3-2 1zm0 0" fill="#6f9037"/><path d="M81 63s-8 4-9 16c0 0 8-1 9-16zm0 0" fill="#bfd264"/><path d="M81 63s-8 4-9 16c0 0 8-1 9-16 0 7-3 11-5 13-1 2-2 2-3 2l-1 1c1-6 3-10 5-13l3-3h1zm0 0" fill="#6f9037"/><path d="M71 76v-8-13-1l1 1 1 5 2 6-1 3-1 4-1-15h-1s2 7 2 15l-1 3h-1zm2 2v-1l6-12-1 4-2 7-2 1-1 1zm0-1v-1l2-3c1-2 1-5 3-6v-2h1l-6 12zm2 2c1-2 3-3 3-5l1-1 3-2 2-1h1l-1 1-1 2-3 3c-2 0-2 1-3 2l-2 1zm0 0" fill="#cfdf97"/><path d="M73 78l6-13-6 13zm0 0l-2-20h1s2 10 1 20zm1 1l9-8-9 8zm0 0" fill="#6f9037"/><path d="M25 68s8-3 20 0l8 3v2s-13-6-28-5zm0 0" fill="#966538"/><path d="M25 68h2l8-2 10 2 8 3v2s-11-5-24-5h-4 4c6 0 12 1 16 3 3 0 5 1 5 2h3v-2l-8-3-10-2c-7 0-10 2-10 2zm0 0" fill="#483b32"/><path d="M84 100s-13-6-24-3c0 0 11-3 21-1h5zm0 0" fill="#966538"/><path d="M84 100v-1s-8-3-17-3l-7 1v1l4-2 10-1 7 1h5l-2 4v-1 1l2-4h-5l-7-1c-8 0-14 2-14 2v1l7-2 12 2 5 2zm0 0" fill="#483b32"/><path d="M220 200s-50-6-83-35c-24-18-32-34-40-46-7-12-16-28-37-41-20-12-36-30-34-50 0 0 0 27 27 39 26 13 51 34 62 47 26 37 76 57 105 57zm0 0" fill="#966538"/><path d="M220 200l-2-1c-10-1-53-9-81-34-24-18-32-34-39-46-8-13-17-28-38-41-19-11-34-28-34-46l1-4h-1s0 27 27 40c26 12 51 33 62 46 26 38 76 57 105 57v29-29c-29-1-79-20-104-57-12-13-37-34-63-47-13-6-20-16-23-24l-3-11v-4h-1v4c0 18 14 35 34 46 21 13 29 29 37 41s16 28 39 46c34 29 84 35 84 35zm0 0" fill="#483b32"/><path d="M26 29s1-15 19-21c0 0-5 9-19 21zm0 0" fill="#bfd264"/><path d="M26 29l1-3c0-4 4-14 18-18l-1 1c-2 4-7 11-18 20C40 17 45 8 45 8c-19 6-19 21-19 21zm0 0" fill="#6f9037"/><path d="M20 0s-4 11 6 29c0 0 2-16-6-29zm0 0" fill="#bfd264"/><path d="M20 0v7c0 5 1 12 6 22l1-5c0-5-2-15-7-24 5 9 6 19 6 24v5c-5-10-6-17-6-22V0zm0 0" fill="#6f9037"/><path d="M31 0s-9 11-5 28c0 0 9-10 5-28zm0 0" fill="#bfd264"/><path d="M31 0h-1s-5 7-5 19l1 9s6-6 6-18L31 0h-1 1-1c2 4 2 7 2 10 0 6-2 10-3 14l-2 3-1 1-1-9c0-5 2-10 3-14l2-4 1-1h-1zm0 0" fill="#6f9037"/><path d="M0 14s12 13 26 14c0 0-6-10-26-14zm0 0" fill="#bfd264"/><path d="M0 14s12 13 26 14c0 0-6-10-26-14 10 3 17 6 20 9l5 4 1 1c-6 0-13-4-18-7l-6-5-2-2zm0 0" fill="#6f9037"/><path d="M6 48s14-5 20-20c0 0-12 1-20 20zm0 0" fill="#bfd264"/><path d="M6 48s14-5 20-20c0 0-12 1-20 20 4-9 9-14 14-16 1-2 3-3 5-3l1-1c-3 8-8 13-12 16l-6 3-2 1zm0 0" fill="#6f9037"/><path d="M20 57s-4-14 6-29c0 0 5 9-6 29zm0 0" fill="#bfd264"/><path d="M20 57v-7c0-5 0-13 6-22l1 1v6l-1-7a38 38 0 0 0-6 29zm0 0" fill="#6f9037"/><path d="M25 68s1 12 0 17c0 0-6-5 0-17zm0 0" fill="#bfd264"/><path d="M25 68v17-1c-1-1-3-3-3-6 0 5 3 7 3 7v-5-12zm0 0" fill="#6f9037"/><path d="M25 68s8 3 8 13c0 0-8-5-8-13zm0 0" fill="#bfd264"/><path d="M25 68l1 1c2 1 7 4 7 12l-1-1c-2-2-7-6-7-12 0 8 8 13 8 13h1c-1-10-9-13-9-13zm0 0" fill="#6f9037"/><path d="M25 68s-5-5-10-8L4 56s8 13 21 12zm0 0" fill="#bfd264"/><path d="M25 68s-5-5-10-8c-4-3-7-2-11-4 0 0 8 12 20 12h1-1c-7 0-11-3-15-6l-3-4-2-2 11 4 7 5a3422 3422 0 0 0 3 3zm0 0" fill="#6f9037"/><path d="M60 97s-12-6-26 4c0 0 20 3 26-4zm0 0" fill="#bfd264"/><path d="M60 97s-4-2-10-2c-4 0-10 1-16 6l9 1c6 0 13-1 17-5-4 4-11 5-17 5l-9-1c6-5 12-6 16-6l8 1 2 1zm0 0" fill="#6f9037"/><path d="M52 113s0-10 8-16c0 0-3 14-8 16zm0 0" fill="#bfd264"/><path d="M52 113v-1c0-1 1-10 8-15l-2 7c-2 4-3 8-6 9 5-2 8-16 8-16-7 5-8 13-8 15v1zm0 0" fill="#6f9037"/><path d="M60 97s0-7 9-11c0 0-1 5-9 11zm0 0" fill="#bfd264"/><path d="M60 97c0-1 0-7 9-11l-1 1c0 1-2 6-8 10v1c8-6 9-12 9-12-9 4-9 10-9 11v1zm0 0" fill="#6f9037"/><path d="M27 26l-1-1v-8l2-9 2-4v1c1 1 2 4 1 6l-2 9-2 4v2zm3-3v-1l2-3v-1c0-3 4-5 6-6l3-2 1 1v1l-2 2-6 6-3 3h-1zm-5 0l-1-1-2-4-1-7-1-4V4h2l1 4 2 7v8zm-3 4l-3-1-12-7-3-2v-1 1h4l11 7 3 1 1 2h-1zM8 46l1-1 2-3 1-2c0-2 2-3 4-5l4-3 3-2 1-1v3l-1 1-1 2c-2 4-6 6-9 8l-4 3H8zm0 0" fill="#cfdf97"/><path d="M23 33l1-1-1 1zm0 0" fill="#9bad48"/><path d="M22 52h-1v-5c0-5 1-10 3-14l1-1v-1l1 1v4l-2 8-2 3v5zm2-19v-1h1l-1 1zm-3 33h-1l-5-1-3-2-3-3-1-1h1l3 1 7 5 2 1zm3 16l-1-1-1-5 1-3 1-1 1 1-1 6v2zm8-3v-1h-2c0-2-2-2-3-3l-1-4-1-1v-1h1l1 2 2 1 3 4v3zm21 32v-2l3-8 2-2v3l-3 7-1 2h-1zm8-15h-1l1-2 1-2 1-1 2-3 2-1 1 1-3 3-2 3-2 2zm-23 5h-1v-1l5-2 9-2h2l3 1h1l-1 1-3 1-6 1-9 1zm0 0" fill="#cfdf97"/><path d="M26 28l4-23-4 23zm2-2zm-2 2L20 4h1l5 24zm0 0M26 28L5 17l21 11zM10 44s11-12 16-15c-5 3-16 15-16 15zm0 0M22 51l4-23-4 23zm3 17zm-1 13s-1-8 1-13c-2 5-1 13-1 13zm7-4l-6-9 6 9zm29 20l6-9v1l-6 8zm-19 2l19-2-19 2zm0 0M54 109h-1l7-12-6 12zm0 0" fill="#6f9037"/><path d="M139 153s-15-7-37 2c0 0 23-4 37 4zm0 0" fill="#966538"/><path d="M139 159c-14-8-37-4-37-4 11-5 21-5 27-5l10 3-10-3c-6 0-15 0-27 5l13-1c7 0 17 1 24 5zm0 0" fill="#483b32"/><path d="M102 154s6 4-1 17c0 0 3-8 1-17zm0 0" fill="#bfd264"/><path d="M102 154l1 1 1 5c0 3 0 6-3 11l2-12v-5h-1l1 5-1 9-1 3c3-5 4-8 4-11 0-5-2-6-2-6zm0 0" fill="#6f9037"/><path d="M83 176s14-11 20-22c0 0-15 11-20 22zm0 0" fill="#bfd264"/><path d="M83 176s14-11 20-21v-1s-15 11-20 22c2-5 7-11 11-15l6-5 3-1v-1c-3 6-8 11-12 15l-6 5-2 2zm0 0" fill="#6f9037"/><path d="M80 164s11-1 23-9c0 0-12-5-23 9zm0 0" fill="#bfd264"/><path d="M80 164s11 0 23-9l-4-1c-5 0-12 1-19 10 7-9 14-10 19-10l4 1-16 8-5 1h-2zm0 0" fill="#6f9037"/><path d="M80 143c-1 0 8 11 23 12 0 0-8-11-23-12zm0 0" fill="#bfd264"/><path d="M80 143v1c2 2 11 10 23 11 0 0-8-11-23-12 7 0 13 3 17 6l4 4 2 2c-7-1-13-3-17-6l-5-4-1-1v-1zm0 0" fill="#6f9037"/><path d="M100 153h-5c-3-1-7-3-9-6l-3-2v-1l4 1c4 1 7 4 11 6l2 2c1 0 0 0 0 0zm-17 10v-1l3-2 8-4 3-1h2l-3 3-3 1-2 1-7 3h-1zm3 9v-1l2-1 8-9 2-2 1-1v1l-1 1-2 2-8 7-1 2-1 1zm17-6v-4-7h1v9l-1 1zm0 0" fill="#cfdf97"/><path d="M102 155zm-18 7l18-7c-6 1-18 7-18 7zm0 0M88 170l14-15-14 15zm15-5s1-8-1-10l1-1v11zm0 0" fill="#6f9037"/><path d="M101 124s-4-9-2-16-1-13-8-12c-8 3-10 13 10 28zm0 0" fill="#534f4c"/><path d="M101 124l-2-11v-5l1-4c0-3-1-5-2-5-1-2-3-3-5-3h-2c-4 1-5 3-5 7 0 5 3 13 15 22v-1c-11-8-15-16-15-21 0-3 2-5 5-7h2c4 0 7 3 7 8l-1 4v5l2 12zm0 0" fill="#252626"/><path d="M98 122l-1-2-3-3-3-3c-3-4-6-10-3-14l1-1 3-2h2l2 1c3 2 3 7 2 10l-1 2v4l1 5v3zm-6-23h-2l-2 2v1 4l1 3 4 5 3 3v-1-4c0-4 2-7 1-11l-5-2zm0 0" fill="#615c59"/><path d="M96 117l-3-3-4-5-1-3v-5l2-2h2l5 2c1 4-1 7-1 11v5zm-4-17l-4 2c0 3 1 6 3 8l1 2h1l-2-3v-5l1-3 1-1h-1zm0 0" fill="#6e6964"/><path d="M93 112h-1l-1-2c-2-2-3-5-3-8l4-2h1l-1 1-1 3v5l2 3zm0 0" fill="#797671"/><path d="M182 144l4-7c2-2 3-8 3-10l-3-10c-1-3-6-7-7-8l-9-5-8-8-3-2-34 26s5 18 21 25c14 5 36-1 36-1zm0 0" fill="#d0cecc"/><path d="M182 144l4-7c2-2 3-7 3-10l-2-10-8-8-9-6-5-4-3-3-3-2-34 26s5 19 21 25l15 2c11 0 21-2 21-2v-1l-2 1-19 2-15-2c-8-3-13-10-17-15l-3-7-1-3 34-26 3 2 8 8 9 5c1 1 6 5 7 8 2 4 2 7 2 10l-2 10-4 7zm0 0" fill="#252626"/><path d="M144 144h-1c-4-2-13-9-18-22h1a38 38 0 0 0 18 22zm0 0" fill="#252626"/><path d="M165 126l-5 1c-5 1-11 6-13 10-3 4-3 7-3 7-1 6 2 16 2 16l-7 6c-5 6-4 10 0 14 3 3 9 4 17-3 7-7 9-12 9-13l1-6h1l10-7 6-7c0-1 2-4-2-11-3-4-9-6-16-7zm-15-45l-14 6c-9 3-17 3-17 3-1 11-13 14-13 14l4 5-6 6c-2 10 5 10 9 11l8-2 5-2 10-5 16-11 5-6c2-3 3-4 5-4l-1-1c-8-8-11-14-11-14zm0 0" fill="#534f4c"/><path d="M124 108c0-8 6-14 7-14 0 0-7 6-7 14zm-18-4c13-5 13-14 13-14v-1 1s1 9-13 14zm0 0" fill="#252626"/><path d="M120 106c-2-10-1-17-1-17 0 1-1 7 2 17zm0 0" fill="#252626"/><path d="M114 124c-5 0-9-2-9-6 0-6 7-9 14-9h6l1-5 1-4 5-6 1-2-1-1-1 1c-2 0-2 2-4 4s-3 4-3 7l-3 3v-1l-1-4c-1-2-1-7 1-10l6-1 14-3 7-3h1l11 11c1 1-4 3-9 10 0 1-7 7-12 9l-20 10h-5zm2-14h-1c-2 1-5 1-7 3s-3 4-2 6c2 3 5 4 8 4 2 0 10-1 15-4 5-2 9-5 14-9l9-9c2-1 5-5 5-7-2-3-7-7-10-8-3 0-7 2-10 4 0 0-8 7-10 14 0 2 1 5-1 6l-4 1-3-1h-3zm12-19h-1c-2 0-4 0-6 2-2 3-1 7 0 11l1-1 1-3 1-3 4-4 1-2h-1zm0 0" fill="#615c59"/><path d="M166 159h-1v-1c1 0 9-4 15-11 5-6 10-15 8-26-3-7-8-11-13-15l-10-6c-5-6-14-15-15-19 1 4 10 13 16 18 2 3 6 5 9 7 5 4 10 7 13 15 3 11-3 20-8 26-6 7-14 12-14 12zm0 0" fill="#252626"/><path d="M110 108l-2-2-1-1 2-1 2-1 3-2 2-3 2-1v1l1 3v5h-3-2l-2 1-2 1zm0 0" fill="#615c59"/><path d="M114 123c-3 0-6-1-8-4-1-2 0-4 2-6s5-2 7-3h4l3 1 4-1c2-1 1-4 1-6 2-7 10-14 10-14 3-2 7-4 10-4 3 1 8 5 10 8 0 2-3 6-5 7l-9 9c-5 4-9 7-14 9-5 3-13 4-15 4zm1-12l-3 1c-2 0-4 2-5 5-1 1-1 3 2 4v-2l1-3 4-4h2l-1-1zm30-20h2l5 1 1 1c1-2-1-4-2-5h-4c-3 0-5 0-7 2l-2 1h7zm0 0" fill="#6e6964"/><path d="M121 104c-1-4-2-8 0-11 2-2 4-2 6-2h2l-1 2-4 4-1 3-1 3-1 1zm0 0" fill="#6e6964"/><path d="M109 121c-3-1-3-3-2-4 1-3 3-5 5-5l3-1 1 1h-2l-4 4-1 3v2zm44-28l-1-1-5-1h-9l2-1c2-2 4-2 7-2h4c1 1 3 3 2 5zm0 0" fill="#797671"/><path d="M145 181h-1c-6-1-8-6-7-10 2-4 5-7 7-8s5-1 5-3-2-1-2-2c-2-17 0-21 4-23 2-3 5-6 8-6l7-1h1l9 3c3 1 7 6 6 10s-9 11-10 12l-5 3v-1l-1-5-1 1c-3 3 1 5-1 14-1 3-10 16-19 16zm20-52l-9 3c-4 3-6 8-7 12-1 3-2 8-1 11s4 4 3 6c-4 5-14 4-13 12l1 5c1 2 4 3 7 3h2l12-13c2-4 2-8 2-13 1-2 0-5 2-6l3-1 1 1v3h3l5-5c2-1 5-5 4-9-1-3-4-6-7-7l-8-2zm0 0" fill="#615c59"/><path d="M146 181c-3 0-6-1-7-3l-1-5c-1-8 9-7 13-12 1-2-2-3-3-6s0-8 1-11c1-4 3-9 7-12l9-3 8 2c3 1 6 4 7 7 1 4-3 8-4 9l-5 5h-3v-3l-1-1-3 1c-2 1-1 4-2 6 0 5 0 9-2 13l-12 13h-2zm12-48l-1 1-4 3c-2 4-4 7-4 12v6-1l1-3 3-9 4-7c1 0 2-1 1-2zm0 0" fill="#6e6964"/><path d="M149 155v-6c0-5 2-8 4-12l4-3 1-1c1 1 0 2-1 2l-4 7-3 9-1 3v1zm0 0" fill="#797671"/><path d="M144 183l-5-2c-2-2-4-6-3-10 2-7 11-11 11-12v1s-9 4-11 11c-1 4 1 8 3 10 5 2 10 2 15-3 11-9 12-17 11-24 1 7 0 15-10 24-4 3-7 5-11 5zm0 0" fill="#252626"/><path d="M146 160c-3-10-2-18 1-23 5-8 13-10 13-10s-8 2-13 10c-3 6-3 13-1 23zm0 0" fill="#252626"/><path d="M142 140h-1l-3-3-3-2-4-6-1-1-2-4c-1-1 1-2 2-2h2l2-1 6-3 4-2c0-1 1-2 3-2l3-3 2-2 3-3 1-2c1-2 2-5 5-5l4 2 2 2 1 1 2 1 2 1 3 2 2 1 2 2 2 1 2 2 2 4v1c2 3 2 6 2 8l-1 5-2 3-1-1-1-1-1-1-1-2-1-1-1-1c-3-2-6-4-10-4h-5l-6 1-2 2-5 2-2 2-1 2-3 3-1 3-1 1zm-10-14v1c0 3 3 7 6 9l3 1h1l-1-1-4-3c-2-1-3-4-4-6l-1-1zm0 0" fill="#e7e7e4"/><path d="M141 137l-3-1c-3-2-6-6-6-9v-1l1 1c1 2 2 5 4 6l4 3 1 1h-1zm0 0" fill="#f4f3f1"/><path d="M217 197l-4-1-31-7c-5-4-12-4-18-7-2-1-6-2-6-4s5-6 7-9l2-9 9 4c2 1 40 10 41 12v4l1 17h-1zm-48-34c-2 0-3 7-3 8-2 5-10 7-1 10 2 2 7 1 10 2 3 0 4 2 6 3l34 8c1-2-2-3-2-3-5-3-38-10-42-13s1-14-2-15zm-31 2h-1l-3-2c-2-2-7-7-5-7l2 1 6 3h2c1 0 3 0 1-2l-1-1v-4h1c-1-3-9-4-11-4h-8c-5-2-12-13-15-17-1-2-5-9-4-10l3 2 6 3h6l4-1h1c5 1 10 11 14 14l6 5v7c0 2 2 5 1 8l-4 3-1 2zm-31-37l2 5c2 4 6 10 10 13l6 1h3c0-2-5-4-6-5l-7-8c-1-2-3-2-4-2-2-1-2-4-4-4zm0 0" fill="#a0744d"/><path d="M139 157c-4-3-12-4-18-4h-8l-2 1v-1l5-1 8-1 10 1 5 1zm-38-37l-1-3c-1-3 0-7 1-11v-3l3 2 2 3-3 6c-1 2 0 4-2 5v1zM86 99c-3-1-5-5-8-8-5-7-13-11-20-15L43 65c-11-9-14-20-14-20 7 13 15 18 15 18l14 8 6 4c7 3 16 8 21 14l8 6-5 1-2 3zM53 70l3 3c4 3 9 3 12 5l14 12c1 1 4 4 6 4l-1-1-6-6c-5-4-10-9-18-11l-8-5-2-1zm-6 1l-2-1-4-2h-9l-2-1h3c2 0 10 0 12 2l3 2h-1zm34 28l-1-1-7-2h-5 11l3 3h-1zm0 0" fill="#a0744d"/><path d="M215 194l-34-8c-2-1-3-3-6-3-3-1-8 0-10-2-9-3-1-5 1-10 0-1 1-8 3-8 3 1-2 12 2 15s37 10 42 13c0 0 3 1 2 3zm-90-47l-6-1c-4-3-8-9-10-13l-2-5c2 0 2 3 4 4 1 0 3 0 4 2l7 8c1 1 6 3 6 5h-3zM88 94c-2 0-5-3-6-4L68 78c-3-2-8-2-12-5l-3-3 2 1 8 5c8 2 13 7 18 11l6 6 1 1zm0 0" fill="#a9835f"/><path d="M110 109l-5-5 5 5zm0 0" fill="#483b32"/><path d="M113 126l-7-2c-2-2-2-5-2-9 4-10 20-9 20-9v1s-16-1-19 8c-1 3-1 7 1 8 3 3 10 3 17 0 14-5 28-14 31-19-3 5-17 14-31 20l-10 2zm0 0" fill="#252626"/></svg>