<svg xmlns="http://www.w3.org/2000/svg" width="453" height="267" viewBox="0 0 340 200"><path d="M50 145c-5 12-7 24-7 37l17-26 2 26c2-8 4-14 8-20a376 376 0 0 0 4 22c9-7 18-15 25-25-5 8-8 18-6 28 8-9 15-19 18-31 1 12 4 24 9 35 2-11 6-22 12-32l3 36c7-10 12-20 15-31 5 11 8 21 11 32l13-31 10 29c4-10 6-21 9-31l22 37c3-12 3-25 3-37 4 9 8 18 10 28l3-15c1 6 3 11 6 16 3-10 5-21 5-31l22 36c1-10 1-21-1-31 5 6 8 15 10 23 1-10 1-19-1-29l21 29-4-25 20 21-9-24 40 10c-7-7-15-13-23-18 5 1 11 2 17 1-1-4-4-6-8-8l-28-13 23-5c-8-5-17-3-27-3-28 2-56-3-84-5h-87c-25-1-55-5-78 5-16 7-23 31-26 47l14-16c3-2 16-8 17-11zm0 0" fill="#a17948"/><path d="M57 116c-6-5-14-9-23-10 7-3 15-4 21-1-3-5-4-11-5-17 5 4 9 8 12 14 1 2 2 4 5 5h5c53-5 106-17 158-8 7 1 13-1 19-1s12 2 17 1c14-2 24-12 39-10-7 2-15 6-21 11l-2 4c8-4 18-4 27-2-6 2-12 5-17 9 6-3 13-4 19-2-11 3-21 10-27 19zm0 0" fill="#e6ab5a"/><path d="M229 91c-8 10-19 15-31 14-16-1-30-12-35-29-3-9-3-18-2-26v-3c2-17 9-40 26-45 22-8 38 13 46 33a1117 1117 0 0 0 4 17c2 14 0 29-8 39zm0 0" fill="#ef8035"/><path d="M229 91c-8 10-19 15-31 14-16-1-30-12-35-29-3-9-3-18-2-26 3-6 9-12 16-13 15-5 26 7 37 15 7-4 12-12 20-14l3 14c2 14 0 29-8 39zm0 0" fill="#e95225"/><path d="M143 96c-10 8-21 11-33 8-14-4-27-17-28-34a71 71 0 0 1 3-28c4-16 15-37 32-39 23-4 35 19 39 39v4l1 13c-1 14-5 29-14 37zm0 0" fill="#ef8035"/><path d="M143 96c-10 8-21 11-33 8-14-4-27-17-28-34-1-9 0-17 2-26 5-5 11-9 18-9 15-2 24 11 33 21 7-4 14-10 21-10l1 13c-1 14-5 29-14 37zm0 0" fill="#e95225"/><path d="M293 152c-3-8-12-12-20-11-5 1-3 10 2 9 6-2 10 1 15 4 2 1 4-1 3-2zm0 0" fill="#e6ab5a"/><path d="M0 164c12-10 26-18 41-23-8 9-13 20-15 32l31-29c-4 11-6 22-8 33l26-29c-2 9-2 19-1 28l17-23c1 8 4 16 8 24l14-23 12 26a117 117 0 0 1 15-20c-1 10 1 20 5 29 7-9 12-20 15-31 4 9 9 18 15 26 3-7 4-16 4-24 9 9 16 18 22 29 3-9 3-20 1-30 10 6 17 16 20 26 2-7 2-16 0-23 4 2 8 6 10 11l-1-12c10 5 19 13 25 22 2-9 1-19-3-27 14 4 26 11 36 22 0-6-3-12-7-17 15 2 29 8 42 17-3-9-8-18-16-24 11 1 21 4 31 8-6-8-14-14-23-19l23 4c-6-6-10-12-18-14-8-3-18-2-27 0 8-6 16-11 25-13-11-4-23-5-34-1-3 1-5 3-8 3l-7-1c-65-13-132-11-198-9-18 1-38 2-52 12 9-3 19-3 28-1-9-2-22 9-28 14-8 8-15 16-20 27zm0 0" fill="#e6ab5a"/><path d="M223 108c-31-1-63 3-94 3-23-1-47-4-69 3-3 1-6 3-7 6 2-2 5-2 8-2-4 2-8 6-11 10l11-4c-3 4-6 7-10 9l6-3c2 0 4 2 4 4l-1 2-7 7c8-7 18-11 28-12l-12 9c5 3 11 3 16 1l-5 7c8-2 15-5 21-9a146 146 0 0 0-3 9l14-8c-3 3-5 7-5 11l19-7-5 8c5-1 10-5 13-10-1 4-1 8 1 11 1 2 3 3 5 2l1-3 2-9c2 5 4 9 4 14a17 17 0 0 1 4-7l7 7 11-15c3 3 3 9 1 13l14-7-8 10 18-10v6c4-1 6-4 7-8 3 4 8 7 13 8l3-10 10 10c2-4 2-9 0-12 4 2 8 7 9 13l6-9v8l13-14 4 11 8-12c4 2 7 5 9 9v-13c4 1 7 3 10 6-1-4-5-7-9-9 8-1 16 1 23 4-13-26-52-27-77-28zm0 0" fill="#a17948"/><path d="M133 66c7 12 12 28 9 41-4 13-12 22-24 26-16 5-34 0-45-14-7-7-11-17-14-26-6-17-8-41 6-53 17-17 41-4 57 12l11 14zm0 0" fill="#ef8035"/><path d="M63 69c6 14 18 28 27 34l10 5c6 1 11 0 16-2s9-4 12-7c5-7 5-16 3-24-6-25-36-53-60-38-12 7-12 20-8 32zm0 0" fill="#f4a060"/><path d="M286 98c-4 13-11 27-23 33-11 6-23 6-34 0-14-8-23-24-20-41 1-9 5-19 9-27 9-15 24-33 42-31 23 2 30 27 29 49l-3 17zm0 0" fill="#ef8035"/><path d="M239 50c-7 13-9 31-7 42l3 10c3 5 7 8 12 10 4 3 9 4 13 4 8-1 14-7 19-13 14-21 13-61-13-68-13-4-22 4-27 15zm-20 39c0 14-4 29-14 38s-23 11-36 8c-17-4-31-17-33-35-2-9-1-19 2-29 4-16 15-38 34-40 24-4 39 19 45 40l2 18zm0 0" fill="#f4a060"/><path d="M192 36c-18-11-42 0-46 23-2 13 0 27 7 38s21 18 34 14c29-7 28-47 14-67l-9-8zm0 0" fill="#f7b78f"/><path d="M168 41l-3-1-4 1v1l-2 3 2 4 3 1 3-1 1-1 2-4-2-3zm-12 11c-3 0-3 6 0 6 4 0 4-6 0-6zm0 0" fill="#ffdf8f"/></svg>