<svg xmlns="http://www.w3.org/2000/svg" width="265" height="265" viewBox="0 0 199 199"><path d="M198 9c-4-4-47-9-98-9C45 0 1 5 1 12s2 11 7 16h2v9c2 7 2 12 2 17 3 9 3 21 3 33l7 63c2 16 2 30 19 40 7 4 19 7 30 7 3 0 5 0 7 2h38c7 0 14 0 21-2h2c8 0 15-3 22-7 14-10 16-24 16-40l7-63c0-12 3-24 3-33 2-5 2-10 2-17 0-2 0-7 2-9 7-5 7-12 7-19zm0 0" fill="#2b2a29"/><path d="M100 2c51 0 94 3 94 7 0 5-43 10-94 10S5 14 5 9c0-4 43-7 95-7zm0 0" fill="#cc4e4a"/><path d="M100 19C48 19 5 14 5 9c0 5 19 7 47 7v-2c0-5 3-9 10-12h80c2 0 5 3 5 5 2 2 2 5 2 7v2c26 0 45-2 45-7 0 5-43 10-94 10zm94-10zm0 0zm0 0zm0 0zm0 0zm0 0zm0 0zm0 0zm0 0zm0 0zm0 0zm0 0zm0 0zM5 9zm189 0zM5 9zm189 0zM5 9zm189 0zM5 9zm189 0zM5 9zm189 0zm0 0zM5 9zm0 0zm189 0zm0 0zM5 9zm0 0zm189 0zm0 0zM5 9zm0 0zm189 0zm0 0zM5 9zm189 0zM5 9zm189 0zM5 9zm189 0zM5 9zm189 0zM5 9zm189 0zM5 9zm189 0c0-2-7-2-19-4 12 2 19 2 19 4zM5 9zm0 0zm0 0c0-2 10-4 26-4C15 5 5 7 5 9zm0 0" fill="#ae3430"/><path d="M5 9zm0 0zm0 0zm0 0zm0 0zm0 0zm0 0zm0 0zm0 0zm0 0zm0 0zm0 0zm0 0zm0 0zm0 0zm0 0zm0 0zm0 0zm0 0zm0 0zm0 0zm26-4c10-3 19-3 31-3-12 0-21 0-31 3zm0 0" fill="#2b2a29"/><path d="M52 16C24 16 5 14 5 9c0-2 10-4 26-4 10-3 19-3 31-3-7 3-10 7-10 12v2zm0 0" fill="#9e352b"/><path d="M194 9zm0 0zm0 0zm0 0zm0 0zm0 0zm0 0zm0 0zm0 0zm0 0zm0 0zm0 0zm0 0zm0 0zm0 0zm0 0zm0 0zm0 0zm0 0zm0 0zm0 0zm0 0zm0 0zm0 0zm0 0zm0 0zm0 0zm0 0zm0 0zm0 0zm0 0zm0 0zm-19-4c-7 0-19-3-33-3 14 0 26 3 33 3zm0 0" fill="#2b2a29"/><path d="M149 16v-2c0-2 0-5-2-7 0-2-3-5-5-5 14 0 26 3 33 3 12 2 19 2 19 4 0 5-19 7-45 7zm0 0" fill="#9e352b"/><path d="M184 42c-2 12-2 21-2 33l-7 63c-3 14 0 31-10 42-7 7-18 12-26 14h-18c-22 0-43 3-64-2-5 0-9-2-14-5-19-9-16-30-19-49 0-21-2-42-4-63-3-12-3-21-5-33 0-2 0-7-3-12a623 623 0 0 0 89 9c24 1 46-2 67-6 4 0 9 0 14-3 2 0 5 0 5-2-3 5-3 9-3 14zm0 0" fill="#dd8783"/><path d="M90 197zm0 0c-9 0-21-3-33-5 12 2 24 5 33 5zm24-3h7-7zm18-11c5-33 12-113 15-143 2 0 4-3 7-3-3 15-3 26-3 40l-9 103c-3 3-5 3-10 3zm-75-3l-9-2v-2c0-17-3-33-5-50-2-28-2-58-5-89 5 3 7 3 12 3 2 28 2 56 2 84 3 19 5 38 5 56zm92-2c2-14 2-26 5-40v-9c0 9 0 21-3 33v16h-2zM50 37l-12-2 12 2zm-14-2zm0 0" fill="#b83335"/><path d="M69 180l-2-54V37H50c2 29 2 59 2 87l8 68c4 2 7 2 11 2 0-4 0-9-2-14zm0 0" fill="#dd8783"/><path d="M139 194c3-2 8-2 10-4v2c-2 2-7 2-10 2zm0 0" fill="#8b5954"/><path d="M142 180l9-103c0-14 0-25 3-40h7c-3 26-5 52-5 78l-2 14v9c-3 14-3 26-5 40-2 2-5 2-7 2zm0 0" fill="#cd5f5b"/><path d="M85 185l-14-2s0-3-2-3l-2-54V42h14zm0 0" fill="#c34645"/><path d="M71 183h-2c-2-50-7-94-7-141h5v84l2 54c2 0 2 3 2 3zm0 0" fill="#dc807c"/><path d="M118 185l5-143 24-2c-3 30-10 110-15 143h-4l-10 2zm0 0" fill="#c34645"/><path d="M97 40zm-5 0h-2l-23-3c9 3 16 3 25 3zm0 0" fill="#623c38"/><path d="M90 40l-23-3 23 3zm0 0" fill="#c34645"/><path d="M104 40c5 0 10 0 14-3 0 3-2 3-4 3h-10zm0 0" fill="#623c38"/><path d="M97 197c5 0 10-3 14-3-2 3-9 3-14 3zm0-157h-5 5zm21-3h5-5zm0 0" fill="#63433f"/><path d="M97 185H85L81 42h42l-5 143H97zm0 0" fill="#ca5a55"/><path d="M114 40c2 0 4 0 4-3h5l-9 3zm0 0" fill="#8a5651"/><path d="M48 190c-3-3-5-3-5-3s2 0 5 3zm0 0" fill="#2b2a29"/><path d="M48 178l-3-2c-9-5-11-10-16-24 0-5-2-12-5-16-2-21-4-42-4-61-3-9-3-19-3-28 0-5 0-10 7-10h14c3 31 3 61 5 89 2 17 5 33 5 50v2zm0 0" fill="#ab362f"/><path d="M158 185c3 0 5-2 7-5-2 3-4 5-7 5zm0 0" fill="#2b2a29"/><path d="M151 178v-16c3-12 3-24 3-33 4-31 7-61 7-92 4-2 9-2 14-2 4 0 7 2 7 17v23l-7 63v2c0 5-3 10-5 19-2 5-7 12-9 12l-10 7zm0 0" fill="#ab362f"/><path d="M154 129l2-14a597 597 0 0 1-2 14zm0 0" fill="#bb4643"/><path d="M161 35c2 0 4 0 7-2-3 2-5 2-7 2zm0 0" fill="#2b2a29"/><path d="M191 26c-4 2-9 2-12 2-9 2-18 5-28 5-19 4-37 4-54 4l-56-4c-10 0-19-3-26-5-7-5-10-9-12-14 12 5 49 7 97 7 47 0 87-2 96-7 0 5 0 9-5 12zm0 0" fill="#dd8783"/><path d="M100 30h-3c-16 0-45 0-61-2-12-2-24-5-31-12 0 5 3 7 7 10-4-3-7-7-9-12 12 5 49 7 97 7 47 0 87-2 96-7 0 2 0 5-2 7 2 0 2-2 2-2-9 9-73 11-97 11zm0 0" fill="#cb5f5b"/><path d="M107 37zm0 0l44-2-44 2zm-10 0l-56-4c-10 0-19-3-26-5l-3-2 3 2c7 2 16 5 26 5l56 4zm54-2zm0-2c10 0 19-3 28-5 3 0 8 0 12-2 0 0 3-3 3-5 0 2-3 5-3 5-4 2-9 2-12 2-9 2-18 5-28 5zm0 0" fill="#2b2a29"/><path d="M107 37H97l-56-4c-10 0-19-3-26-5l-3-2c-4-3-7-5-7-10 7 7 19 10 31 12 16 2 45 2 61 2h3c23 0 87-2 96-11 0 0 0 2-2 2 0 2-3 5-3 5-4 2-9 2-12 2-9 2-18 5-28 5v2l-44 2zm0 0" fill="#ab3630"/><path d="M182 63c0-4 0-7 2-11-2 4-2 7-2 11zM17 47s-2-3-2-5 0-7-3-12c3 5 3 10 3 12l2 5zm0 0" fill="#2b2a29"/><path d="M50 40c-5 0-7 0-12-3v-2l12 2v3zm0 0" fill="#9e352b"/><path d="M62 42c-5-2-7-2-12-2v-3h12v5zm0 0" fill="#b83335"/><path d="M147 40v-3c4-2 9-2 14-2-3 2-5 2-7 2-3 0-5 3-7 3zm0 0" fill="#9e352b"/><path d="M154 37c2 0 4 0 7-2v2h-7zm0 0" fill="#ad3630"/><path d="M81 42H67v-5l23 3h-9zm0 0" fill="#a5362d"/><path d="M67 42h-5v-5h5v5zm0 0" fill="#b63335"/><path d="M123 42v-5h24v3l-24 2zm0 0" fill="#a5362d"/><path d="M109 42H81v-2h33l9-3v5h-14zm0 0" fill="#ab362f"/><path d="M17 47s-2-3-2-5 0-7-3-12c8 3 17 5 24 5h2v2H24c-7 0-7 5-7 10zm165 16V52c0-15-3-17-7-17-5 0-10 0-14 2v-2c2 0 4 0 7-2 4 0 9 0 14-3 2 0 5 0 5-2-3 5-3 9-3 14v10c-2 4-2 7-2 11zm0 0" fill="#94342a"/><path d="M90 197c-9 0-21-3-33-5l-9-2v-12l9 2c0 5 3 10 3 12 2 2 4 2 9 2l21 3h7-7zm0 0" fill="#a7362e"/><path d="M69 194c-5 0-7 0-9-2 0-2-3-7-3-12 5 3 7 3 12 3v11zm0 0" fill="#c44e4a"/><path d="M125 194h7v-11c5 0 7 0 10-3-3 7-3 12-3 14h-14zm24-4c5 0 7-3 9-5-2 2-4 5-9 5zm0-3v-4 4zm0-2v-7h2l-2 2v5zm0 0" fill="#a7362e"/><path d="M139 194c0-2 0-7 3-14 2 0 5 0 7-2v9c0 3 0 3-2 5 2 0 2 0 2-2-2 2-7 2-10 4zm0 0" fill="#b53a3b"/><path d="M165 180c10-11 7-25 10-40-3 15 0 29-10 40zM24 138v-2 2zm0 0" fill="#2b2a29"/><path d="M90 197l-21-3h2v-11l14 2 3 12h2zm0 0" fill="#ad3633"/><path d="M71 194h-2v-11h2v11zm0 0" fill="#c34a48"/><path d="M114 194c2 0 2 0 0 0h4v-9l10-2h4v11h-18zm0 0" fill="#ad3633"/><path d="M97 197c5 0 10-3 14-3-4 0-9 3-14 3zm0 0" fill="#5a2f2b"/><path d="M95 197c7 0 14-3 19-3h-3c-4 0-9 3-14 3h-2zm0 0" fill="#af3836"/><path d="M95 197h-7l-3-12h33v9h-7 3c2 0 2 0 0 0-5 0-12 3-19 3zm0 0" fill="#b43a3a"/><path d="M48 190c-3-3-5-3-5-3-19-9-16-30-19-49v-2c3 4 5 11 5 16 5 14 7 19 16 24l3 2v12zm101 0v-10l2-2 10-7c2 0 7-7 9-12 2-9 5-14 5-19-3 15 0 29-10 40-2 3-4 5-7 5-2 2-4 5-9 5zm0 0" fill="#9a342b"/><path d="M147 192c2-2 2-2 2-5v3c0 2 0 2-2 2zm2-9zm0 0" fill="#a93932"/><path d="M177 26v-5h-2c-3-2-5 0-5 0-2 2-5 2-5 5l3 2s0 2 2 2l-7 10-9 14-24 28c-16 16-38 30-59 40-16 4-35 9-51 2-8-2-12-9-12-19 0-4 0-11 2-18 0-5 2-12 7-19h-2C8 77 3 91 3 103c0 9 0 19 9 23 15 10 38 5 55 0 23-7 47-23 68-42 9-9 16-21 23-30 5-7 12-17 14-24l5-4zm0 0" fill="#2b2a29"/></svg>