<svg height="133pt" viewBox="0 0 142 133" width="142pt" xmlns="http://www.w3.org/2000/svg"><path d="m81.48 99.73c-1.88-.12-3.64-.25-5.53-.25-2.26 0-4.53.51-6.8.51-3.26.13-6.53.9-9.92.76h-.5c1.12 1.66 2.88 2.93 4.14 4.2 2.02 2.15 3.65 4.82 4.15 7.75.38 1.9.63 3.68 1 5.46.76 1.65 2.4 4.82 4.28 3.68 1.26-.89 2.01-2.8 2.52-4.2.38-1.13.63-2.28.88-3.42.12-.5.12-1.01.25-1.52.5-2.68 1.63-5.34 3.65-7.25 1.26-1.14 2.63-2.03 3.9-3.17a8.3 8.3 0 0 0 1.5-2.16c-1-.26-2.38-.39-3.52-.39zm0 0" fill="#979863"/><path d="m60.36 52.99c-2.14-5.08-6.16-8.77-8.68-13.34-1.13-2.3-1.89-4.7-3.02-6.99-1-2.54-2.51-4.57-4.4-6.6-3.14-3.69-7.8-5.47-12.7-5.72-4.9-.26-10.18 2.16-14.2 4.95-5.92 4.2-7.42 12.2-6.55 19.18.88 7.37 4.28 14.74 10.82 18.55 7.29 4.32 16.34 2.3 23.64 6.48a19.32 19.32 0 0 1 8.67 10.3c.26.5.38 1 .5 1.52 0 .13-.12.25-.12.25.5 2.03 1 4.2 1.26 6.22.12.64.12 1.15.25 1.78.13.26.13.51.13.77.12.89.38 2.54 1.5 2.16 1.01-.26 1.64-2.04 2.02-2.93a36.57 36.57 0 0 0 1.88-5.2 43.2 43.2 0 0 0 1.77-14.48c-.26-5.85-.63-11.44-2.77-16.9zm0 0" fill="#1e9e45"/><path d="m15.97 26.56v-.12zm.12-.12v-.13zm0-.13h.13zm.13 0v-.13zm.12-.13s0-.13.13-.13c-.13 0-.13.13-.13.13zm.13-.13h.13zm.13 0v-.12zm.12-.25c.13 0 .13 0 .13-.12 0 .12 0 .12-.13.12zm.26-.12.12-.13zm.12-.13h.13zm.13 0v-.13zm.12-.13v-.13zm0 0" fill="#9ed0b1"/><path d="m58.98 62.64c-1.01-3.05-2.64-5.84-5.04-8-3.01-2.92-6.79-4.57-10.43-6.6a32.61 32.61 0 0 1 -5.29-3.95 20.58 20.58 0 0 1 -4.4-6.34c-.87-2.17-1.38-4.46-2-6.61-.5-1.78-1.14-3.56-2.52-4.83a5.7 5.7 0 0 0 -3.9-1.4c-2.76 0-5.66 1.53-7.67 2.93a18.13 18.13 0 0 0 -6.92 11.16c-.12.77-.12 1.53-.25 2.3 0-5.35 1.39-10.81 5.16-14.5v-.12h.12v-.13h.13v-.12h.12v-.13h.13v-.13h.12s0-.13.13-.13h.13v-.12h.12v-.13c.13 0 .13 0 .13-.12h.13l.12-.13h.13v-.13h.12v-.13c3.9-2.66 8.8-4.95 13.58-4.95h.63c.88 0 1.76.12 2.64.25-.5 5.21.5 10.55 2.9 14.61 2.38 4.07 6.4 7.75 10.18 10.55 2.4 1.9 4.9 3.43 6.92 5.84 2.14 2.54 4.14 6.23 4.65 9.53.13.63.13 1.14.13 1.52zm0 0" fill="#1c873f"/><path d="m53.94 78.4c-.62 5.97-1.88 11.68 1.26 17.27a16.18 16.18 0 0 0 4.9 5.21c1 .64 2.15 1.14 3.15 1.65.38.13.63.38 1 .5.13 0 .13 0 .25.14l-.75-.76a22 22 0 0 1 -4.4-5.72 23.43 23.43 0 0 1 -2.14-7.12c-.75-5.59 0-11.3-.37-16.89a29.99 29.99 0 0 0 -5.66-15.75 24.27 24.27 0 0 0 -5.79-5.6c-1.26-.76-2.52-1.4-3.64-2.03 3.77 3.3 6.91 7.5 9.43 11.95 2.89 5.2 3.4 11.17 2.76 17.14zm0 0" fill="#b0d078"/><path d="m53.94 78.4v-.13.12zm0-.13c0-.64.13-1.14.13-1.78 0 .64-.13 1.14-.13 1.78zm0 0" fill="#19823e"/><path d="m53.32 83.73c.25-1.78.37-3.55.62-5.34v-.12c0-.64.13-1.14.13-1.78 1-1.4 1.89-2.8 2.77-4.32v.51c.12.25.12.38.12.5-.12.39-.25.77-.37 1.28-1.14 3.04-2.4 6.1-3.27 9.27zm0 0" fill="#7aab3c"/><path d="m80.86 68.87c-.39 5.08.12 9.65 1.25 14.6.38 1.91 1.13 3.56 1.77 5.34.24.9.87 2.67 1.88 2.92 1.13.39 1.38-1.14 1.51-2.03.12-.25.12-.63.12-.89.13-.5.25-1.14.38-1.65.37-2.03 1-4.2 1.5-6.1 0-.12-.12-.25-.12-.38.13-.5.38-1.02.5-1.52a20.84 20.84 0 0 1 9.19-10.04c7.41-3.8 16.34-1.4 23.76-5.46 6.8-3.56 10.31-10.8 11.57-18.17 1.13-6.86-.13-14.99-5.9-19.3-3.9-3.06-9.06-5.6-14.1-5.6-4.77 0-9.42 1.65-12.82 5.21a26.44 26.44 0 0 0 -4.65 6.48c-1.13 2.29-2.02 4.7-3.27 6.86-2.64 4.57-6.8 8.13-9.06 13.08-2.39 5.34-3.01 10.93-3.51 16.65zm0 0" fill="#42a744"/><path d="m115.43 20.72c-.37-.13-.75-.13-1.13-.13h-.12.12c.38 0 .76 0 1.13.13zm0 0" fill="#9ed0b1"/><path d="m83.12 72.42c0-3.17.12-6.35 2.5-8.64a25.31 25.31 0 0 1 3.53-2.91 26.1 26.1 0 0 0 -2.38 6.6c-1.01 1.01-1.9 2.16-2.65 3.3-.37.5-.63 1.15-1 1.65zm7.04-7.87c.38-1.27.88-2.42 1.5-3.43a44.25 44.25 0 0 1 6.93-9.78 8.98 8.98 0 0 1 -1.4 6.1 21.36 21.36 0 0 1 -4.26 4.7c-.89.76-1.9 1.64-2.77 2.41zm4.15-10.93c.5-2.8-.13-5.58 0-8.39.13-5.2 3.64-7.23 7.29-10.03a31.61 31.61 0 0 0 10.31-14.35v-.13c.75 0 1.51-.13 2.27-.13h.12c.38 0 .76 0 1.13.13h.12c1.9.13 3.78.63 5.66 1.4h-.75c-4.4.63-7.3 3.56-9.8 6.99-1.39 1.9-2.77 3.8-4.28 5.58-1.63 1.78-3.65 2.93-5.54 4.32-1.38 1.02-2.5 2.16-3 3.81-.64 2.16 0 4.57.5 6.74 0 .25.12.63.12.89-.38.25-.76.38-1.13.63-1.01.76-2.14 1.53-3.02 2.54zm0 0" fill="#2e8e3e"/><path d="m79.34 102.4a22.99 22.99 0 0 0 4.4-5.84c1.01-2.16 1.77-4.7 2.02-7.11.62-5.6-.13-11.18.25-16.77a29.84 29.84 0 0 1 5.53-15.88 22.8 22.8 0 0 1 5.79-5.72 56.7 56.7 0 0 1 3.64-2.03 43.48 43.48 0 0 0 -9.3 12.07c-2.9 5.2-3.27 11.18-2.64 17.02.63 6.1 1.88 11.81-1.14 17.4a16.1 16.1 0 0 1 -4.9 5.21c-1 .77-2.13 1.14-3.27 1.78-.38.13-.88.38-1.25.64.25-.26.5-.51.87-.76zm0 0" fill="#b0d078"/><path d="m71.05 71.16c-.13-3.82-.5-7.76-.5-11.57 0-3.94.37-7.75.75-11.55.5-3.57 1-7.5 2.01-11.06h-.25c-1.39 3.56-2.26 7.5-3.15 11.18a62.4 62.4 0 0 0 -1.88 12.7c-.25 7.37.13 15.63 4.27 21.98.26.38.76-.13.63-.38-1.26-3.69-1.63-7.5-1.88-11.3zm0 0" fill="#63ac38"/><path d="m85 22.63c-1.76-15-17.85-23.9-33.95-22.49-15.72 1.4-21 23.24-13.96 35.06 2.39 4.07 6.42 7.75 10.19 10.55 2.4 1.9 4.9 3.43 6.92 5.84 2.14 2.54 4.14 6.23 4.65 9.53.25 1.65-.13 2.92-.38 4.44a23.13 23.13 0 0 1 -.88 5.08c-.38 1.53-.88 3.18-1.25 4.7a29.07 29.07 0 0 0 -.89 3.56c-1 4.83 2.01 8.39 5.79 10.8 3.14 2.16 7.67 2.16 10.56-.5 1.51-1.28 1.76-3.18 1.51-5.22l.12-.12c-.37-2.29-.75-4.57-1-6.86-.25-2.42 0-4.45.13-6.86 1-9.66 6.78-18.17 9.67-27.2 1.14-4.05 3.15-16.38 2.77-20.31zm0 0" fill="#42a744"/><path d="m60.36 22.11a39.74 39.74 0 0 1 4.78 15.64c.5 5.58 0 11.17-1.26 16.63a84.95 84.95 0 0 1 -5.4 15.63c-.26.63-.64 1.27-.89 1.9-1.76 4.32-3.52 8.77-4.65 13.22-.26 2.66-.26 5.33.38 7.88.62 1.9 1.63 3.68 2.89 5.2 3.52 3.81 8.8 5.34 13.7 6.1 2.14.38 4.15.38 6.16.13-.12-.51-.37-1.14-.5-1.65v-.26c5.29-2.8 4.53-9.4 3.27-14.23-1.76-6.47-5.28-12.07-7.29-18.3a33.44 33.44 0 0 1 -.88-3.42c-.26-.76-.5-1.4-.63-2.16-3.14-10.8-1.39-22.36-4.28-33.28a43.67 43.67 0 0 0 -6.91-14.48c-2.01-2.8-4.4-5.34-6.92-7.63-.88-.38-1.63-.89-2.39-1.27.13.38.38.64.63.89.26.38.63.64.88 1.02 1.26 1.4 2.52 2.66 3.65 3.94a47.17 47.17 0 0 1 5.66 8.5zm0 0" fill="#b0d078"/><path d="m73.56 104.7h-.13zm-2.51-.64c-.13-.13-.13-.38-.25-.51a6.1 6.1 0 0 0 -1.14-1.4c-.75-5.59.25-11.05 1.26-16.39a87.26 87.26 0 0 0 1.51-8 9.55 9.55 0 0 0 2.01 3.69c-.38 2.53-.88 5.07-1.38 7.49-.38 1.9-1.26 3.94-2.01 5.97 0 .25 0 .38-.13.5-.38 1.53-.76 3.05-.76 4.45.13.77.13 1.4.38 2.03.26.52.38 1.15.76 1.66a.98.98 0 0 0 -.25.5zm-2.65-2.42c-.37 0-.88-.12-1.25-.37-.25-1.4-.76-2.93-.5-4.33.5 1.52 1 3.3 1.75 4.7zm0 0" fill="#7aab3c"/><path d="m71.93 71.16-.38-1.16a2.29 2.29 0 0 1 -.25-.9v-.24c.12-1.4.37-2.8.25-4.2-.13-1.9-.88-3.68-1.89-5.33a5.4 5.4 0 0 0 -1-1.4c-.38-2.42-.5-4.95-.75-7.37 1.5 2.92 3.39 5.6 4.4 8.77 1.25 3.94 0 7.87-.38 11.82zm-7.68-18.43a13.6 13.6 0 0 1 -1.88-2.8 17.53 17.53 0 0 1 -.63-14.22 17.1 17.1 0 0 1 2.39-4.19c.5 2.03.88 4.06 1 6.23.13.25.13.63.13 1 0 1.03 0 2.17.13 3.18 0 3.69-.5 7.25-1.14 10.8zm2.14-19.18c-.25-.76-.37-1.65-.63-2.41-.12-.38-.12-.77-.25-1.15a47.12 47.12 0 0 1 3.65-3.3c2.77-2.29 5.4-4.58 6.91-7.88 1.4-2.92 1.77-6.6 1.77-9.9l-.13-.26c.88.76 1.5 1.52 2.26 2.41-.5 2.16-.63 4.58-1.13 6.87-.88 4.31-4.53 6.73-7.67 9.27a14.9 14.9 0 0 0 -4.78 6.35zm0 0" fill="#2f8c3e"/><path d="m71.8 73.44c-.13-.13-.13-.25-.13-.25-.37-1.4-.5-2.67-.37-4.07 0 .25.12.64.25.89l.38 1.15c-.13.76-.13 1.52-.13 2.28zm-3.15-15.5c-1.38-1.78-3-3.43-4.4-5.21a61.23 61.23 0 0 0 1.14-10.8c.12 1.15.25 2.3.5 3.56a35.5 35.5 0 0 0 2.02 5.08c.25 2.42.37 4.95.74 7.38zm-3.4-19.18c0-.38 0-.76-.11-1.01-.13-2.17-.5-4.2-1.01-6.23.37-.51.88-1.02 1.38-1.53.13.38.13.77.25 1.15.26.76.38 1.65.63 2.41-.75 1.65-1 3.3-1.13 5.2zm0 0" fill="#70ac4d"/><path d="m112.16 10.17c-.75-2.28-2-4.31-4.02-5.71-4.02-3.06-9.3-4.96-14.34-4.32-5.27.63-10.56 3.3-12.94 8.38-1.52 2.92-1.26 6.23-2.02 9.4-.88 4.32-4.53 6.74-7.67 9.28-5.91 4.82-6.79 11.3-5.28 18.3 1.26 4.95 4.78 9.01 6.41 13.84 1.76 5.33-1.25 10.8-.37 16.26.5 3.43 2.89 8.26 6.79 8 4.27-.12 4.52-5.59 4.52-8.76-.12-3.81-.62-8.14 2.39-11.06 2.51-2.53 6.04-4.32 7.8-7.49 1.89-3.43.75-7.37.88-11.06.13-5.2 3.64-7.23 7.29-10.03a31.61 31.61 0 0 0 10.31-14.35c1.14-3.43 1.39-7.24.25-10.68zm0 0" fill="#139746"/><path d="m71.42 103.8c.25.26.5.5.63.77 3.52.25 7.04-.39 10.18-1.91 1.77-.89 3.4-2.03 4.66-3.56.13-.13.25-.38.38-.5.12-.26.12-.52.12-.77.25-2.8-.12-5.6-.62-8.38-.13-.38-.13-.77-.26-1.15-.25-.89-.38-1.9-.63-2.79-1.25-5.72-2.64-11.31-3.4-17.03a77.52 77.52 0 0 1 -.62-15.24c.25-7.75 1.51-16.13 6.03-22.74a34.43 34.43 0 0 0 -3.39 4.07c-6.79 9.27-7.17 22.73-8.43 33.79a218.78 218.78 0 0 1 -3.01 20.58c-.88 3.94-3.9 8.9-2.52 12.95.26.64.5 1.28.88 1.91zm0 0" fill="#b0d078"/><path d="m71.3 103.55c-.38-.51-.5-1.14-.76-1.66-.25-.62-.25-1.27-.38-2.03.13.77.13 1.4.38 2.03.26.52.38 1.15.76 1.66zm-.38-8.13c.13-.13.13-.26.13-.51 0 .25 0 .38-.13.5zm0 0" fill="#568d3a"/><path d="m71.3 103.55c-.38-.51-.5-1.14-.76-1.66-.25-.62-.25-1.27-.38-2.03 0-1.4.38-2.92.76-4.44.13-.13.13-.26.13-.51.12 2.54.62 4.95 1.38 7.24-.5.38-.88.76-1.13 1.4zm1.5-1.66c.13-1.4.38-2.79.89-4.06 0 1.14.25 2.42 1 3.3 0 .14.13.14.13.14-.88.37-1.64.5-2.01.62zm9.82-6.09c.5-1.4.75-2.92.87-4.44.63-4.96-.25-10.04-.87-14.87-.89-5.85-1.76-11.56-1.51-17.53 0-3.56.37-7.12 1-10.67a54.38 54.38 0 0 0 -.25 4.57v.38c-.13 1.4-.13 2.8-.13 4.06 0 3.69.25 7.5.76 11.18.75 5.72 2.14 11.31 3.4 17.03.24.89.37 1.9.62 2.8.13.37.13.76.26 1.14 0 .38.12.89.25 1.4a65.38 65.38 0 0 1 -4.4 4.95zm0 0" fill="#7aab3c"/></svg>