<svg xmlns="http://www.w3.org/2000/svg" width="400" height="267" viewBox="0 0 300 200"><path d="M298 12c7 14-5 37-27 51-23 13-102 46-109 31-8-14 61-71 83-85 22-13 46-12 53 3zm0 0" fill="#e94b7d"/><path d="M270 30c4 8-3 21-15 28-12 8-57 26-60 18-4-8 34-40 46-47 12-8 25-7 29 1zm0 0" fill="#f08ea2"/><path d="M288 107c-1 13-19 22-40 21-20-2-85-15-84-28 2-11 71-18 91-16 20 1 35 12 33 23zm0 0" fill="#9679b5"/><path d="M259 106c-2 6-11 11-22 10-10-1-44-8-42-14 0-6 35-9 46-9 11 1 18 7 18 13zm0 0" fill="#c495c3"/><path d="M0 81c0 15 21 30 47 33 26 2 112-3 112-19 0-17-86-38-112-40S0 64 0 81zm0 0" fill="#e94b7d"/><path d="M33 85c0 9 12 17 26 19 14 1 62-2 62-11S73 72 59 71s-26 5-26 14zm0 0" fill="#f08ea2"/><path d="M51 162c7 11 26 11 44 1 17-10 71-51 64-61s-71 14-89 24-26 26-19 36zm0 0" fill="#9679b5"/><path d="M77 147c3 6 14 6 23 1s37-26 33-32c-4-5-37 8-46 13-10 5-14 14-10 18zm0 0" fill="#c495c3"/><path d="M158 70l4 8 4 7 6 15c4 11 6 22 8 33a212 212 0 0 1 7 49v9l-1 8-2 1v-1l-5-7-3-8c-3-4-5-10-7-15a249 249 0 0 1-15-65l-2-16v-9l1-8 2-2 3 1zm0 0" fill="#3c3733"/><path d="M175 64c2 10-5 20-16 22-11 3-22-3-25-13-2-10 6-20 17-23 11-2 22 3 24 14zm0 0" fill="#3c3733"/><path d="M153 56h-1 1-1 1s3-16 27-33v-3h-2c-25 18-28 35-28 35-1 1 0 1 1 2l2-1zm0 0" fill="#3c3733"/><path d="M152 54s-11-13-40-19c-2 0-3 1-3 2l2 2c15 3 24 7 30 10l7 6 1 1h1-1 1-1 3v-2zm0 0" fill="#3c3733"/></svg>