<svg xmlns="http://www.w3.org/2000/svg" width="224" height="267" viewBox="0 0 168 200"><path d="M1 200h94v-11H1zm0 0" fill-rule="evenodd" fill="#2c3133"/><path d="M84 189H17c17-6 50-6 67 0zm0 0" fill-rule="evenodd" fill="#44494d"/><path d="M117 44L28 67l28 111L23 67h5l89-28zM45 183L12 61v-5l100-28v5L17 61zm0 0" fill="#44494d"/><path d="M117 17c17-6 39 11 50 39l-55 22c-11-28-11-56 5-61zm0 0" fill-rule="evenodd" fill="#7eacb4"/><path d="M106 28l28-11-5-6-23 11zm0 0" fill-rule="evenodd" fill="#44494d"/><path d="M112 0h5c6 0 6 0 12 6v5l-23 11v-5c-5-6 0-11 6-17zm0 0" fill-rule="evenodd" fill="#7eacb4"/><path d="M151 61s-6 6-11 6c-6 5-6 5-11 5zm0 0" fill-rule="evenodd" fill="#ecc62f"/><path d="M134 22c11 6 22 17 28 28h-6c-5-11-11-22-22-28zm0 0" fill-rule="evenodd" fill="#9dd5dc"/><path d="M51 167c5 0 11 5 11 11v11H39v-11c0-6 6-11 12-11zm0 0" fill-rule="evenodd" fill="#7eacb4"/><path d="M51 172v11c-6 0-6-5-6-5s0-6 6-6zm0 0" fill-rule="evenodd" fill="#44494d"/><path d="M23 50c11 0 16 6 16 17 0 5-5 11-16 11-6 0-11-6-11-11 0-11 5-17 11-17zm0 0" fill-rule="evenodd" fill="#7eacb4"/><path d="M23 61c5 0 5 0 5 6 0 0 0 5-5 5l-6-5c0-6 6-6 6-6zm0 0" fill-rule="evenodd" fill="#44494d"/></svg>