<svg xmlns="http://www.w3.org/2000/svg" width="359" height="267" viewBox="0 0 269 200"><path d="M227 10l2-5 3-5 1 1 1 10zm0 0" fill="#d87024"/><path d="M193 127l3 13 1 26v17l4 3v4l1 3 7 1h12l-6-30-9-41zM73 154l2 5 5 4 6 13 1 8 2 4v2l5 4h11l4-2 2-1-1-5-4-2-6-3-6-16 1-5 7-8 7-12 3-17-16 2zm0 0" fill="#dfae71"/><path d="M267 38l2-2-1-4-11-7-4-4-1-2-8-4-8-5-9-2-11 8-10 14-11 23-8 4-18 3-13 3-27 1h-27l-19-1-15 2-13 6-7 19-5 23-5 19-6 8-10 4-8-2-7-6v-9l-1-3-3-1-3 2 1 9 2 10 9 5 11 2 13-2 7-9 4-9 4-15 2-2 3 13 1 12-2 11-6 8 1 6 6 8 5 17 6 3 2 5 14 3 5-1v-2h3l-2-7-4-3-9-1-4-9-3-11 3-7 13-8 12-13 7-9 8-3 8 1 23 7h26l20-4 8-1 4 7 5 13 1 24-1 13 4 3v5l4 4 11 1 2-2h4l5-1-1-6-4-2-6-3-3-12v-27l4-19 8-22 2-18v-7l2-15 6-16h5l7 4 4-1 4-3v-4zm0 0" fill="#ec9b14"/><path d="M230 13l2-4 6-6 2 2-3 15-3-1zm0 0" fill="#ec9b14"/><path d="M63 146l6-21 1-16-10-7-5-5-3 6-6 23-6 15-8 6-7 1-9-1-11-5-2-7v-12l-3 2 1 9 2 10 9 5 11 2 13-2 7-9 4-9 4-15 2-2 3 13 1 12-2 11-6 8 1 6 2 3v-6l6-7zm0 0" fill="#e9d4a2"/><path d="M216 171l-2-24-1-20-2-10-1-18-2-9-2-4-5 11-4 8-24 7-24 4-30-3-5-3 4-7 8-3 3-5-9-5-19 1-10 7-12 23-2 18-9 13-5 12 3 10 7 5-1-2-3-11 3-7 13-8 12-13 7-9 8-3 8 1 23 7h26l20-4 8-1 4 7 5 13 1 24-1 13 4 3v5l4 4 11 1v-7l-8-6zm0 0" fill="#d87024"/><path d="M260 52l4-3v-3h-5l-3-6-6-7-6 2-11 8v9l-4 28-5 25-2 14 1 11 2 5 1-8 8-22 2-18v-7l2-15 6-16h5l7 4zm0 0" fill="#f7dfae"/><path d="M209 189l1-10v-29l-4-12-7-13-1-6-2-5-6 4-19 4-29 1-21-2-9-5-5 1-6 8-10 13-12 12-10 5-3 10 5 18 5 3-4-9-3-11 3-7 13-8 12-13 7-9 8-3 8 1 23 7h26l20-4 8-1 4 7 5 13 1 24-1 13zm0 0" fill="#e9d4a2"/><path d="M229 190l-4-1 2 3 2 3v2h2v-4zm-141 4l-5-3v1l3 3 1 4h1v-2h1zm0 0" fill="#d87024"/><path d="M106 186h-3v2l4 1v3h2v-4zm0 0" fill="#e9d4a2"/><path d="M248 24v1l2 1h2l1 1v-2l-2-1zm0 0" fill="#f7dfae"/><path d="M251 23h-5l1 2h6zm0 0" fill="#624330"/><path d="M251 23l-1-2h-1l-2 1v1zm0 0" fill="#d87024"/><path d="M269 36v-1l-3-1h-2l2 2 1 1v1zm0 0" fill="#624330"/><path d="M261 47l3-1v-1h-13v1h6zm0 0" fill="#5e4d42"/><path d="M240 6l-2 1-2 5 1 5v2zm0 0" fill="#d87024"/><path d="M143 95l-2 1-2 3v3l3 2h3l2-4-1-3zm0 0" fill="#dc873a"/><path d="M142 94l1 3-2 2-2 2-1-2v-3l2-2zm4 1l-2 2 1 2h1l1 1 1-3-1-2zm-5 7h-2l-2 1v2h2l2-2zm4 0l-2 1v3h2l2-1-1-2zm0 0" fill="#5e4d42"/><path d="M154 87l-3 1-1 4 2 3 4-2v-4zm0 0" fill="#dc873a"/><path d="M153 84l-1 3 2 1 2-1-2-2zm-3 4l2 2v5h-2l-1-2-2-4zm7 3l-2 1v4h1l2-3-1-2zm0 0" fill="#5e4d42"/><path d="M133 82l-2 1-1 3 2 4h3l3-1v-5l-1-2zm0 0" fill="#dc873a"/><path d="M131 80l2 3-1 3-1 2-2-1-1-3 2-2zm4 0l-1 2 2 2h3l-1-2-1-2zm-2 8l-2 1-1 2v1h3l1-2zm4-1v4h2l2-1-2-3zm0 0" fill="#5e4d42"/><path d="M147 79h-3l-2 3 1 3h4l1-4zm0 0" fill="#dc873a"/><path d="M147 76l-1 2 1 2 2-1-1-2zm-4 2l2 2-2 2v3l-2-1v-5zm5 6l-1-1-2 2v2h1l2-2v-1zm0 0" fill="#5e4d42"/><path d="M160 76l-2-1h-3l-3 2v3l2 2 4-1 2-2zm0 0" fill="#dc873a"/><path d="M160 74l-2 2h-4v-2l2-2 2 1zm1 3h-2l-1 2v1l1 2 2-2 1-2zm-7 1l-2-1-1-1-1 1 1 2h1zm2 4l-2-1-2 1 1 2 2 1 1-3zm0 0" fill="#5e4d42"/><path d="M167 66l-3 1-1 4 2 2 3-1v-4zm0 0" fill="#dc873a"/><path d="M165 64v2l2 1 1-1-1-2zm-3 2l3 3v4h-3l-1-1-1-4zm7 4l-2 1v4l2-1 1-2-1-2zm0 0" fill="#5e4d42"/><path d="M194 64l-2 2-2 3 3 3 3-1v-5zm0 0" fill="#dc873a"/><path d="M193 62v2l2 2 1-1-1-3zm-3 3l2 2v2l1 3h-3l-1-1-1-5zm7 4h-2v4h1l1-2v-2zm0 0" fill="#5e4d42"/><path d="M175 60l-2 1v3l1 3 3 1 3-2v-4l-2-2zm0 0" fill="#dc873a"/><path d="M177 59l-1 1 2 2h2v-2l-2-2zm-2 7h-2v4l2-1 1-1zm4-1l-1 1 1 3h1l2-2-2-2zm0 0" fill="#5e4d42"/><path d="M167 93l-2 1-2 3 1 3 2 1h3l1-4v-2zm0 0" fill="#dc873a"/><path d="M166 92l1 3-2 2-2 1-1-1v-3l2-2zm3 1l-1 2v2h3v-2l-1-2zm-4 6h-3l-1 1v2h2l2-1zm4 1l-2 1v2h4l-1-3zm0 0" fill="#5e4d42"/><path d="M169 79l-2 2v3l1 2 3 1 2-1v-4l-1-3zm0 0" fill="#dc873a"/><path d="M167 78l2 2-1 3-1 2-2-1v-2l1-3zm4 0l-1 1 1 3h3l-1-3-1-2zm-2 7l-2 1-1 2 1 1 2-1v-1zm4-1l-1 2 1 2h1l1-2-1-2zm0 0" fill="#5e4d42"/><path d="M183 75h-3l-1 2 1 3h3l1-3zm0 0" fill="#dc873a"/><path d="M183 73l-1 1 1 2 1-1v-2zm-3 1l1 2-1 1v3l-2-1-1-1 1-3zm4 5h-2v2l-1 1h1l2-1v-2zm0 0" fill="#5e4d42"/><path d="M155 108l-3 2-1 2v4l3 2h2l2-5v-3zm0 0" fill="#dc873a"/><path d="M154 107v3l-2 2-1 2-2-2 1-3 2-2zm3 1l-1 2v2l1 1h2l1-3-2-2zm-5 7h-2l-1 1-1 2h3l1-1zm5 1l-2 1v2l2 1 2-1-1-3zm0 0" fill="#5e4d42"/><path d="M186 91h-2l-2 3v3h4l1-4zm0 0" fill="#dc873a"/><path d="M186 89l-1 1 1 2h2l-1-2zm-3 1l1 2-1 3-1 2-2-1v-5zm4 5h-1l-2 2v2h2l1-2v-2zm0 0" fill="#5e4d42"/><path d="M123 76l-3 1-1 4 2 3 3-2v-4zm0 0" fill="#dc873a"/><path d="M122 74v3l1 1 1-1-1-2zm-3 3l2 2v5h-2l-2-2v-4zm7 4h-2v4l1-1 1-2v-1zm0 0" fill="#5e4d42"/><path d="M135 67l-2 2-1 3 2 3 3 1 2-1v-4l-1-3zm0 0" fill="#dc873a"/><path d="M133 66l2 3-1 3-1 1h-2l-1-3 2-2zm4 0l-1 3 1 1 2 1 1-1-1-2-1-2zm-2 8l-2 1-1 1v2l3-1 1-2zm4-1l-1 2 1 2 1-1 1-1-1-2zm0 0" fill="#5e4d42"/><path d="M113 69l-2 2-1 2 1 3 3-1v-4zm0 0" fill="#dc873a"/><path d="M112 67l-1 2 2 2 2-1-2-2zm-2 3l1 1v5h-2v-1l-1-4zm5 3h-1l-1 2v2h2v-4zm0 0" fill="#5e4d42"/><path d="M96 65l-2 1v3l1 2 3 1 2-1v-4l-1-2zm0 0" fill="#dc873a"/><path d="M96 71h-2v3l2-1v-1zm4-1l-2 1 1 2h2l1-2-2-1zm0 0" fill="#5e4d42"/><path d="M103 78h-2l-2 3 1 2h2l2-3zm0 0" fill="#dc873a"/><path d="M103 76l-1 2 1 1h1v-2zm-3 1l1 2-1 2v2h-2v-5zm4 5h-2v2l-1 1h1l2-1v-2zm0 0" fill="#5e4d42"/><path d="M111 85l-3 1-1 4 2 2 3-1v-4zm0 0" fill="#dc873a"/><path d="M109 84v2l2 1 2-1-2-2zm-2 2l2 2v4h-2l-1-1-2-4zm6 4h-1l-1 2v2l2-1 1-2-1-1zm0 0" fill="#5e4d42"/><path d="M100 95h-3l-2 3 1 3h3l1-4zm0 0" fill="#dc873a"/><path d="M99 93l-1 2 2 2 1-1-1-2zm-3 2l1 2-1 2v2h-2v-6zm4 4h-1l-1 2v2h1l1-2v-2zm0 0" fill="#5e4d42"/><path d="M118 99l-2 1-1 3 2 2 2-1v-3zm0 0" fill="#dc873a"/><path d="M117 97v2l2 1v-3zm-2 2l2 2v4h-2l-1-2-1-2zm6 3l-2 1v3l1-1 1-1v-2zm0 0" fill="#5e4d42"/><path d="M125 110l-2 1-1 3 2 2 2-1v-3zm0 0" fill="#dc873a"/><path d="M124 108v2l2 2 1-2-1-2zm-2 3l2 1v4h-2l-1-1-1-3zm6 3h-2v3h1l1-2v-1zm0 0" fill="#5e4d42"/><path d="M85 73l-2-2h-3l-1 2v3l1 1 3-1 2-1zm0 0" fill="#dc873a"/><path d="M85 71l-2 2h-2l-2-1v-1l2-2 2 1zm0 2h-1l-1 2 1 2 1-1 1-2zm-6 1v-1h-3l1 2h1zm2 3l-1-1-2 1 1 2h1l1-2zm0 0" fill="#5e4d42"/><path d="M68 70v2l1 1 1-1-1-2zm-3 3l2 1v5h-2l-2-2v-3zm7 3h-2v4h1l1-3v-1zm21 6l-2 2v2h1l2-2zm-4 0l-1 2-1 2-2 1-2-1 1-2 3-3zm0 7l-1-1-2 1-1 1 1 1 3-1v-1zm-12-7l-1 2v2h3v-2zm-4 2l1 2-2 2-1 2h-1l-1-2 1-4zm4 6h-1l-2 2-1 1 1 1 3-2v-2zm-15-8l-2 1-2 2 2 1 3 1v-3zm2 12l-1 1 3 2v-4zm15 11l-2 3 2 1 2-1v-3zm-13-2l-2 2 2 3 2-2v-2zm-9-5l-4 3-1-2v-4l3-1 2 1zm4 1v2l3 1v-3h-1zm-6 6l-2 1 1 2 2-1 1-2zm-7 3l-1 2 3 1 1-3-1-1zm28 12v3h3l2-2-1-2zm16-5l-2 3 2 3 2-2 1-3-1-1zm-6 10l-3-2v3l1 2h3v-3zm-1-4l1 2h2l1-2-2-2zm-3-5l1 2 2-1v-3h-2zm14 11l-2 1 2 1 3 1-1-3zm-11 7v3l3-1-1-3zm18-24l-1 2 3 2 1-2 1-2zM82 97v2h3v-2l-1-1h-1zm-19 25l-2 2 1 2h4l1-4zm4-6v2h2l1-2-2-2zm-8-2l-1 2h3v-3zm136-33l-2 2 1 2 3-1v-3zm6-7l-2 3 3 2 2-3-1-4zm1 14l-3 2v4l5 1 2-2v-5zm6-4v2l2 1 2-2-2-3zm-6-2l-1 2h4v-2l-2-1zm-9 15v2l4 2v-2-4zm20 8l-1 4 2 1 1-1v-4zm-7-2v2l3 1 1-3-2-2zm8-4l-1 2 3 1 1-3-2-2zm-4-5l-2 2 2 1h2l1-4zm13-4l-1 3 3 2 1-2-1-3zm4 13l-4 1v3l2 1 3-1v-3zm-6 8l1 1h2v-2l-3-2zm-15 9l-2 4 2 1h2l1-4zm9 2l-1 3 3 2 1-1v-3zm-42-14l1 2 4 2 1-4-1-2zm11-3l-1 2h1l2-2-1-1zm4 3l1 2s3 2 4 1v-4s-3-3-4-2l-1 3zm8-1l-1 1 2 1 3-2-1-2zm-14 6l-1 2h2l3-2-2-1zm-11 3v1l3 1 1-3-2-1zm-129 2l2 3 1-2-1-2zm4 5l-2 1 2 2 1-1v-2zm-2 8l-2 1v2h2l1-2zm-6 5v2h2v-4zm-8 6v2l1 1 2-3-1-1-2 1zm-14 2s-2 3 0 4l4 1v-4l-1-1zM2 127l1 2h2v-4H3v1l-1 1zm68 10v3h1l1-2-1-2zm-9-1l-2 4 4 1 3-1-1-4h-4zm7-5v3h2l2-3c-2 0-2-2-3-2l-1 2zm-5 20l2 2 1-2-1-2h-2zm10-7v3h1l2-2-1-1zm11-2v2l2 1 1-1v-3zm52-21l-2 4 4 1 3-3-3-3zm-8 0s-1 1 0 1l3 1-1-2v-2zm2-19v2l3 1 1-4-2-1zm17 25s0 2 2 2 3-1 3-2l-1-2-4 2zm-11-19l1 4h3l-1-4zm80-30v4h3l1-3-2-2-2 1zm37-45v1l1 1 1-1v-1zm-8 3l-1 2h2l1-1v-2zm4 4h-1l1 1 1-1zm-7 3l1 1 1-1v-1zm-9 6l1 2 2-2 1-2zm3 4l1 3 1-2v-3zm-3-12l1 2 2-1-1-2zm-7-5l-3 4 2 2 2-2v-3zm-5 9v3l3-1-1-3zm-7-7s-1 2 0 2h2v-2zm12 31l1 3 2-1v-3l-2-1zm-3-9h2v-4h-2v4zm6-12l-2 1 2 2h1l1-2zm-14 67v2h1l2-2-1-1zm-12-2l2 1h1v-4h-2l-1 3zm11 19l-2 2s2 3 3 2l1-1v-3zm-9 0l-1 2h2v-2zm-36-6v3h2l1-3-1-1zm-3-17l-1 3h4v-4zm53 24l1 3 1-2v-3zm-1 9l2 1 1-2-1-1zm-8 5l-2 1v2l2-1zm-2-6v1h1l1-1-1-1zm8 19l-1 2h3v-2zm-1-7l1 2h1l1-2-2-2zm-5 18l-2 2 2 1 3-1-1-2zm0-100l-3 4 3 1 3-3-1-2zm-23 13l1 4 2-2v-3l-3 1zm14-21v3l3-1 1-3-3-1zm12 1v3h3v-3l-1-1zm-3-4v2l2-1v-1l-1-1zm6-4l1 3 2-1v-3l-2-2zm-15-1l1 1h1v-4h-2zm7-4l-1 2h3v-2zm-12 6l1 2 1 1 1-3-1-3zm32 25l1 1 2-1-3-4zm5-9v1h2l1-1-1-1zm1-10l-1 1 2 1 1-3zm-27-22l1 3v-1l1-3zm5 4l-1 2h2l1-2v-1zm-10 0l-1 1 4 1v-3zm13-15v2h3v-3l-2-2zm27-10l2 1 1-1-2-2zm-3 0l1 1 1-1-1-1zm2 6l1 1 1-2h-1l-1 1zm-10-1v2h1v-3l-1 1zm-5-1s-2 1-1 1l3 1 1-2zm0 5v2h2l1-3zm8 5v1h2v-3zm-14-16l1 3 1-2-1-3h-2l1 2zm-5 5h-2l1 2 2-1v-1zm-5 7l-3 2 1 2h3l1-2zM48 129l-2 2v1l1-1zm1-11l-1 3 2 2 1-5zm-10 14l1-1v-2l-1-2-1 4 1 1zm-25 10l-4-3-2 3 4 2 2-2zm-7-6H6l2 2h1zm18 8l-1-1-2 1h-1l1 2h1zm0 0" fill="#6f5949"/><path d="M108 64h-4l-1 1 1 3h3zm0 0" fill="#dc873a"/><path d="M102 64v3l2 1v-2l1-2zm-3 3h1v-3h-2l-1 2 1 1zm10-1h-2l-1 2-1 1h2l1-1 1-2zm-16-1l-1 2 1 2 1 1 1-1 1-3-1-2h-1zm0 0" fill="#5e4d42"/><path d="M122 71h3l1-4v-3h-5l-2 2 1 3zm0 0" fill="#dc873a"/><path d="M125 66h1l1 1 1-3h-4zm-2-2h-5v2l1 1 2-1zm-2 5h-2l-2 1v1h5zm4 0l-1 2v2h1l2-1-1-2zm0 0" fill="#5e4d42"/><path d="M150 69l2-1v-5l-7 1v2l2 3zm0 0" fill="#dc873a"/><path d="M150 63l1 1h1v-1zm-3 0l-4 1 1 2h1l1-1zm0 4l-2 1v3h2l1-2zm5-1l-2 2 1 2h2l1-1-2-3zm0 0" fill="#5e4d42"/><path d="M156 63v1h4v-2zm0 0" fill="#dc873a"/><path d="M156 63h-2v1h2zm5 0l-1-1-2 2v2h2l1-2v-1zm12 2l1-1 1-3-2-2-1 1-1 2v3zm0 0" fill="#5e4d42"/><path d="M185 58l-1 2v2h4v-5h-1zm0 0" fill="#dc873a"/><path d="M187 58h2v-2l-2 1zm-3 4v-2l2-2h-4v4zm5 0l-2-1-1 2v1h1l2-1v-1zm0 0" fill="#5e4d42"/></svg>