<svg xmlns="http://www.w3.org/2000/svg" width="353" height="267" viewBox="0 0 265 200"><g fill-rule="evenodd"><path d="M99 137s2 25-1 30l-5 8c-1 2-8 6-7 14h5l1 2c2 0 8 1 13-3 3-2 2-7-1-10 5 1 7-1 6-2 0-2 0-12 2-17 1-6 0-11 2-16l-15-6zm0 0" fill="#4d4845"/><path d="M103 148l-3-6c0 7 0 21-2 25l-5 8v1l8-4c7-5 6-21 2-24zm0 0" fill="#54504e"/><path d="M91 188v1s0 2 1 2h3c2 0 7-1 10-3l2-4c0-2-1-4-3-5l-1-1h2c3 0 4-1 5-2l1-17 1-7c0-3 0-6 2-8l-14-7c0 4 1 25-2 31l-4 8h-1c-1 1-7 5-7 12h5zm4 4l-3-1-2-2h-5c0-6 3-10 8-14l4-8c3-5 2-30 2-30v-1l15 7h1v1c-2 2-2 5-2 8l-1 7-1 17v1l-6 2c2 1 2 3 2 5s0 4-2 5c-3 2-7 3-10 3zm0 0" fill="#312d2b"/><path d="M118 144s3 17 1 31l-6 8c-1 1-8 6-9 12-1 1 5 1 6 1l1 4c2 0 9 0 14-5 2-2-1-7-1-8 1 0 5-1 6-3 1-1 2-2 1-8-1-5-3-20 3-31-4-2-16-1-16-1zm0 0" fill="#4d4845"/><path d="M118 144s3 17 1 31l-6 8 14-1c2-1 3-1 2-7-1-5-5-17 0-29l-11-2zm0 0" fill="#54504e"/><path d="M110 195v1l1 3h2c3 0 8-1 12-4 1-2 0-5-1-6v-3h1l5-2c1-1 2-2 1-8s-3-20 2-31l-6-1-9 1c1 2 3 18 1 30 0 3-5 7-6 8s-8 6-9 12h6zm3 5h-2l-1-4h-6l-1-1c2-6 8-12 10-13 1-1 5-4 5-7 2-14 0-31 0-31l9-1 7 1v1c-5 10-3 25-3 31v9l-6 2v1c1 2 2 6 0 7-4 4-9 5-12 5zm0 0" fill="#312d2b"/><path d="M93 175c-1 2-8 6-7 14h5l1 2c2 0 8 1 13-3 3-2 2-7-1-10-5-3-8-3-11-3zm0 0" fill="#32302e"/><path d="M93 175c-1 2-8 6-7 14h5l1 2c2 0 8 1 13-3 3-2 2-7-1-10-5-3-8-3-11-3zm0 0" fill="#2a2927"/><path d="M92 184l1 4c3 1 7 0 9-3 1-2 3-5 1-8-4-2-7-2-10-2-1 2-8 6-7 14l6-5zm0 0" fill="#32302e"/><path d="M91 188v1s0 2 1 2h3c2 0 7-1 10-3l2-4c0-2-1-4-3-5l-8-3h-3c-1 1-7 5-7 12h5zm4 4l-3-1-2-2h-5c0-6 3-10 8-14h3c3 0 5 1 8 3 2 1 3 4 3 6s0 4-2 5c-3 2-7 3-10 3zm0 0" fill="#272724"/><path d="M113 183c-1 1-8 6-9 12-1 1 5 1 6 1l1 4c2 0 9 0 14-5v-6c-5-5-9-6-12-6zm0 0" fill="#2a2927"/><path d="M112 195c6 2 13-6 11-8-4-3-7-4-10-4-1 1-8 6-9 12 3 0 6-2 8-4v4zm0 0" fill="#32302e"/><path d="M110 195v1l1 3h2c3 0 8-1 12-4v-5c-5-6-9-7-12-7-2 1-8 7-9 12h6zm3 5h-2l-1-4h-6l-1-1c2-7 10-13 10-13 3 0 8 1 12 7v6c-4 4-9 5-12 5zm0 0" fill="#272724"/><path d="M244 67s11-3 12 7c3 0 6 4 5 9 2 3 7 8 0 14 3 5-1 13-9 13s-8-43-8-43zm0 0" fill="#8ecef2"/><path d="M254 87c3 1 3 6 4 8 2 1 4 1 6-1 2-5-2-9-3-11 1-5-2-9-5-9-1-10-12-7-12-7v6c7 2 13 6 10 14zm0 0" fill="#a2d9f7"/><path d="M244 67c0 12 2 43 8 43 4 0 7-2 8-5 2-3 2-6 1-7v-1c6-6 2-11 0-13l-1-1v-7l-4-2h-1c0-6-4-7-8-7h-3zm8 43c-4 0-6-7-8-22l-1-21v-1h4c3 0 9 1 9 7l4 3c1 1 2 4 1 7 3 3 7 8 1 14 1 3 1 6-1 8-2 4-5 5-9 5zm0 0" fill="#6f6b6a"/><path d="M31 39s-21 5-28-9c-5-12-1-14 2-15 2 0 5 0 10 4s14 8 21 7c4 2-5 13-5 13zm0 0" fill="#4d4845"/><path d="M32 35s-20 8-27-6C0 17 2 16 5 15c2 0 5 0 10 4s14 8 21 7c4 2-4 9-4 9zm0 0" fill="#54504e"/><path d="M32 35s-20 8-27-6C0 17 2 16 5 15c2 0 5 0 10 4s14 8 21 7c4 2-4 9-4 9zm0 0" fill="#54504e"/><path d="M11 24c6 9 15 12 23 10 2-2 4-7 2-8-7 1-16-3-21-7s-8-4-10-4c-3 1-6 5-3 7 3-1 7 0 9 2zm0 0" fill="#918d8c"/><path d="M11 24c6 9 15 12 23 10 2-2 3-5 1-7-7 1-14-2-20-6-4-4-8-6-10-6-3 1-6 5-3 7 3-1 7 0 9 2zm0 0" fill="#676363"/><path d="M6 16H5l-4 2c-1 2 0 6 2 12 5 8 13 10 20 10l8-1c0-1 6-9 5-12v-1h-3c-6 0-13-2-18-7l-9-3zm17 24c-7 0-16-1-20-10-3-6-4-10-2-12 0-2 2-3 4-3 3-1 7 0 10 4 5 3 12 7 18 7l3-1 1 2c1 4-6 12-6 12v1h-8zm0 0" fill="#312d2b"/><path d="M5 22s3 13 14 11C18 28 8 22 5 22zm0 0" fill="#787271"/><path d="M9 23l-4-1s2 9 10 11c-4-3-6-5-6-10zm0 0" fill="#918d8c"/><path d="M5 22c1 2 4 11 12 11h2C18 28 9 23 5 22zm12 11C7 33 4 22 4 22h1c3 0 14 5 15 11h-3zm0 0" fill="#312d2b"/><path d="M2 22s5 0 10 6 8 8 17 7c0 0-3-5-12-11-11-6-15-2-15-2zm0 0" fill="#54504e"/><path d="M2 22s7-2 12 4 6 10 15 9c0 0-3-7-12-12-10-6-15-1-15-1zm0 0" fill="#676363"/><path d="M26 35c-7 0-10-2-14-7-5-6-10-6-10-6s5-1 10 5 8 8 17 7v1h-3zm0 0" fill="#312d2b"/><path d="M205 141s5 6 3 25l-1 7c-2 1-9 7-10 14h6c0 2-1 3 3 3 3 1 13 1 12-11 3 0 6-1 3-10-2-9-2-24 0-30l-16 2zm0 0" fill="#4d4845"/><path d="M211 148c0-2-1 1-3 2a72 72 0 0 1-1 23c8-5 7-17 4-25zm0 0" fill="#54504e"/><path d="M204 187v1 1l2 1h2c3 0 6-1 7-3 2-1 3-4 2-8h1l3-2v-8c-3-8-2-22-1-29l-14 1c1 2 4 9 2 25l-1 7c-7 6-9 11-9 14h5zm4 4h-2l-3-1v-2h-2l-4-1v-1c0-3 2-7 9-13l2-7c1-18-3-25-3-25v-1l16-1v-1 1c-1 7-2 21 1 30v9l-4 2c0 3 0 6-2 8s-4 3-8 3zm0 0" fill="#312d2b"/><path d="M229 148s3 20-2 29c-3 6-9 8-11 16h6v3s10 0 15-2c3-3-1-7 1-9s5-2 4-6l-1-20 1-11s-10-3-13 0zm0 0" fill="#54504e"/><path d="M229 148s3 20-2 29c-3 6-9 8-11 16h6v3s10 0 15-2c3-3-1-7 1-9s5-2 4-6l-1-20 1-11s-10-3-13 0zm0 0" fill="#4d4845"/><path d="M239 147s-7-2-10 1c0 0 3 20-2 29l-2 3 12 1 1-6v-17l1-11zm0 0" fill="#54504e"/><path d="M222 196c4 0 11-1 15-3 2-1 1-3 1-4v-4l1-1c2-1 3-2 3-5a112 112 0 0 1 0-31l-8-1-4 1c0 2 2 20-2 29l-6 6c-2 3-5 5-5 10h5v-1 4zm0 1l-1-1v-3l-3 1-2-1c1-5 3-8 6-10l5-6c4-9 2-29 2-29v-1l5-1 8 1h1v1l-1 11v20c1 3-1 4-2 5l-2 1v3c1 2 1 5-1 6-5 3-13 3-15 3zm0 0" fill="#312d2b"/><path d="M90 82s-13-1-8 14c-7 2-5 12 1 15-3 6-2 11 3 13 1 5 2 8 7 9 0 6 3 9 8 8 2 4 8 8 21 0 4 4 5 5 15 3 1 3 2 6 11 5 5 4 8 4 14 3 5 4 7 2 10-1 3 3 9 4 13 0 5 2 11 2 15-3 4 2 8 1 11-3 5 0 10-4 11-10 11 0 33-43 24-61 3-10-4-13-12-13-2-5-8-6-13-2-5-6-11-6-16-2-3-5-10-4-14 0-5-4-11-1-12 2-2-2-9-5-13 1-3-4-9-3-12 1-2-3-10-3-16-1 0-3-3-10-10-7 0-6-8-6-19-2-12 3-19 31-19 31zm0 0" fill="#a2d9f7"/><path d="M90 82s-13-1-8 14c-7 2-5 12 1 15-3 6-2 11 3 13 1 5 2 8 7 9 0 6 3 9 8 8 2 4 8 8 21 0 4 4 5 5 15 3 1 3 2 6 11 5 5 4 8 4 14 3 5 4 7 2 10-1 3 3 9 4 13 0 5 2 11 2 15-3 4 2 8 1 11-3 5 0 10-4 11-10 11 0 33-43 24-61 3-10-4-13-12-13-2-5-8-6-13-2-5-6-11-6-16-2-3-5-10-4-14 0-5-4-11-1-12 2-2-2-9-5-13 1-3-4-9-3-12 1-2-3-10-3-16-1 0-3-3-10-10-7 0-6-8-6-19-2-12 3-19 31-19 31zm0 0" fill="#a2d9f7"/><path d="M90 82s-13-1-8 14c-7 2-2 12 4 14-3 7-2 10 2 12 1 6 2 7 7 8 1 6 4 7 8 6 3 4 7 8 20 1 4 3 4 6 14 4 2 3 3 5 11 4 5 5 8 5 14 4 5 3 7 2 10-1 3 3 9 3 13-2 5 2 9 2 13-2 4 1 9 1 12-3 5 0 9-3 10-9 11 0 35-40 26-58 3-10-4-13-12-13-2-5-8-6-13-2-5-6-11-6-16-2-3-5-10-4-14 0-5-4-11-1-12 2-2-2-9-5-13 1-3-4-9-3-12 1-2-3-10-3-16-1 0-3-3-10-10-7 0-6-8-6-19-2-12 3-19 31-19 31zm0 0" fill="#8ecef2"/><path d="M234 61c-2-5-8-6-13-2-5-6-11-6-16-2-3-5-10-4-14 0-5-4-11-1-12 2-2-2-9-5-13 1-3-4-9-3-12 1-2-3-10-3-16-1 0-3-3-10-10-7 0-2-1-3-3-4-3 3-8 3-10 7-2 3-2 9-7 7 0 7-3 7-9 8-2 0-8 2-4 6 2 2 5 4 9 4-2 3 2 6 2 6-4 2-8 5-5 9-5 2-7 5-3 7-2 3-1 13 8 10-1 5 0 12 8 9-1 5 2 9 9 6 0 3 11 2 11-7 3 2 13-1 9-10 4 3 5 9 1 14 4 3 7 4 8 1 3 2 7 1 10-2 2 3 6 7 11 1 5 3 11 2 14-4 4 3 10 0 11-6 5 2 7 0 8-3 3 4 6 1 6 0 3 3 10 5 12-3 4 0 11-1 10-9 6-1 11-9 6-17 5-3 7-6 6-9 3-10-4-13-12-13zm0 0" fill="#cfeaf0"/><path d="M162 152l5 2c2 0 3-1 4-3h1c2 2 4 2 6 2l7-2v-1l6 2c3 0 6-2 8-4h5c3 0 5-1 7-4h1c5 0 9-4 10-9 4 0 9-5 14-13 9-15 16-37 10-48 1-4 1-6-1-8-2-3-5-4-10-4h-2c0-3-3-5-6-5l-6 2h-1c-2-3-5-4-8-4-2 0-4 0-6 2h-1c-2-3-4-3-6-3-3 0-6 1-8 3a8 8 0 0 0-5-1c-3 0-6 2-7 3h-1l-5-2c-2 0-4 0-6 3l-1 1v-1l-5-2c-3 0-5 1-6 3v1l-1-1c-1-2-4-2-8-2l-8 1-2-5c-1-1-2-2-5-2l-3 1h-1v-1-2c-2-2-3-2-6-2l-12 2c-11 3-19 31-19 31h-1s-4 0-6 3c-2 2-2 6-1 11-2 1-4 2-4 5s2 8 5 9v1c-2 6-1 10 3 12v1c1 5 2 8 7 8v1c0 6 3 8 8 7v1c2 2 5 4 8 4 4 0 8-2 13-4v-1 1h1c2 3 4 4 7 4l7-1c1 2 2 4 7 4h4c3 3 6 4 9 4h5zm5 3l-5-2h-5c-3 0-6-1-9-4h-4c-5 0-6-2-8-5l-6 1c-4 0-5-1-8-3v-1c-5 3-9 5-13 5-3 0-6-2-9-5-4 1-7-2-8-8-4-1-6-3-7-9-4-2-5-7-3-13-3-2-5-6-5-10 1-3 2-5 4-6-1-4-1-8 1-10 2-3 6-4 7-4 1-3 9-27 19-31l13-2 6 2 1 3 3-1c3 0 5 1 6 3l1 4 8-1 8 2c2-2 4-3 7-3l5 2c2-2 5-3 7-3l6 2c1-1 4-3 7-3l5 1c2-2 5-3 8-3 2 0 5 1 6 3l7-2c3 0 6 1 9 4l6-2c4 0 6 2 7 5h1c5 0 9 1 11 4s2 5 1 9c5 11-1 33-10 48-5 8-11 13-14 13-2 6-6 10-11 10h-1c-2 3-4 4-7 4l-4-1c-3 3-6 5-9 5l-6-2a10 10 0 0 1-13 1c-2 1-3 3-5 3zm0 0" fill="#6f6b6a"/><path d="M96 92s-4 4-11 2c-2 2-9 4-11-4-5 2-13-2-13-9 0-8 28-10 36-3zm0 0" fill="#d4d1d1"/><path d="M71 83c-1 0-2-1 0 2 1 1 3 2 5 1v5c3 4 6 0 6-3 2 3 6 5 8 3 4-1 2-5 1-8-3-5-8-4-12-6-1 4-3 7-8 6zm0 0" fill="#e7e5e5"/><path d="M80 96h-1c-1 0-4-1-5-5-3 0-7 0-9-2-3-2-4-5-4-8 0-2 1-4 4-5 9-4 26-4 32 2-6-5-23-5-32-1-1 1-4 2-4 4 0 3 2 5 4 7 3 2 6 3 9 2v-1 1c1 3 3 5 5 5 3 1 5 0 6-2h1c5 3 10-1 10-1s-4 5-11 2l-5 2zm0 0" fill="#6f6b6a"/><path d="M82 76s0 4-21 7c-9 0-9 6-13 11-4 6-15 4-20 2-5-1-5-6-3-10 1-4 3-11 1-18-3-7 5-28 4-36 0-6 3-7 4-8l4-5c0-2 31-9 40 0 12 10 7 50 4 57zm0 0" fill="#4d4845"/><path d="M83 74c0 2-3 1-5 1-2 1-4 4-17 5-8 1-12 7-15 12-4 5-13 6-18 4-5-1-5-6-3-10 1-4 3-11 1-18-3-7 5-28 4-36 0-6 3-7 4-8l4-5c0-2 31-9 40 0 11 10 7 44 5 55zm0 0" fill="#54504e"/><path d="M78 19c-9-9-40-2-40 0l-4 5c-1 1-4 2-4 8 1 8-7 29-4 36a19 19 0 0 1 1 7h7c6-2 15-13 19-3-3-1-4 2-4 3l-5 14c5-3 4-6 9-9 4-3 13-1 17-5 4-3 1-11 7-11-3 0-5-2-6-5-1-4 3-9 8-8-1-3-4-7-2-9l8-6c-1-7-3-14-7-17zm0 0" fill="#676363"/><path d="M35 26c2-1 5-6 3-7l-4 5c-1 1-4 2-4 8 2-3 2-4 5-6zm0 0" fill="#918d8c"/><path d="M62 15c-12 0-23 3-24 4s-2 5-4 6h-1c-1 1-3 2-2 7l-3 16c-1 8-3 16-2 20 2 5 2 11-1 18v7c0 2 1 3 3 3l10 2c3 0 8-1 10-4l2-3c2-5 4-8 11-9 20-2 21-6 21-6 1-3 3-15 3-27 0-11-1-24-7-30-3-3-9-4-16-4zM38 98l-10-1-4-3v-8c3-7 3-13 1-18-1-3 1-12 2-20l3-16c-1-6 2-7 3-8h1l3-5c1-2 14-5 25-5 7 0 13 2 16 4 12 11 7 51 5 58 0 1-2 5-22 7-7 1-8 4-11 8l-2 4c-2 3-7 3-10 3zm0 0" fill="#312d2b"/><path d="M30 77s2 5-1 10 2 7 5 6c4-1 9-2 11-11 3-9 6-12 6-12s2-10-21 7zm0 0" fill="#402926"/><path d="M51 70s2-10-21 7c0 0 2 5-1 10-2 4 0 6 3 6l1-1c2-4 0-10 4-13l2 1c1-4 5-7 9-5l3-5zm0 0" fill="#552a26"/><path d="M30 88c1-4 5-9 2-13l-2 2s2 5-1 10c-2 3-1 5 1 6v-5zm0 0" fill="#712621"/><path d="M39 83c-4-2-7 0-9 3l-1 1c-3 5 2 7 5 6 4-1 9-2 11-11-2-1-4 0-6 1zm0 0" fill="#f39e9d"/><path d="M36 91c3-1 7-4 5-7l-4 1-1-2c-3 0-5 1-6 3l-1 1-1 4h8zm0 0" fill="#f6b8b7"/><path d="M30 86l-1 1v4l4 2h1c4-1 8-3 11-11h-1l-5 1v1c-3-2-6-1-9 2zm3 8l-5-2c-1-1-1-3 1-5v-2h1c3-3 6-4 9-2l5-2 1 1h1c-3 9-8 11-12 12h-1zm0 0" fill="#ec6360"/><path d="M31 77c0 1 1 6-2 10v4l4 2h1c4-1 8-3 11-11 2-8 5-12 6-13v-1l-2-1c-2 0-7 2-18 10zm2 17l-5-2c-1-1-1-3 1-5 3-5 1-10 1-10 9-7 16-11 19-11l2 1 1 3s-4 3-6 12c-3 9-8 11-12 12h-1zm0 0" fill="#312d2b"/><path d="M8 62s-3 4-2 10 5 6 7 6c3 1 24 4 36-11l-18-6c-6-1-23 1-23 1zm0 0" fill="#54504e"/><path d="M8 62s-2 3-2 9c1 5 4 5 6 5 3 1 27 3 37-9 0 0-12-10-17-11-6-1-24 6-24 6zm0 0" fill="#676363"/><path d="M18 58c-1 1-3 2-7 2-2 0-4-3-5-5v8c2 7 5 9 11 6 6-2 8-4 9-6 0-9-7-6-8-5zm0 0" fill="#54504e"/><path d="M22 80l-9-2c-4 0-7-2-8-6 0-6 3-10 3-11v1s-3 4-2 10c1 4 4 5 7 5 3 2 24 5 36-10v1c-6 8-15 10-21 11l-6 1zm0 0" fill="#312d2b"/><path d="M45 66s5 1 8 6c0 0 1-4-2-6h-6zm0 0" fill="#676363"/><path d="M53 72c-3-5-8-6-8-6l5 2 3 4zm-40 6c-4-6-2-11-1-11v1s-2 4 1 10zm0 0" fill="#312d2b"/><path d="M33 32L18 42C12 45 4 52 6 62c1 7 5 9 10 6 7-2 8-4 10-7zm0 0" fill="#54504e"/><path d="M18 42c-4 2-9 6-11 11 2 10 10-1 15 0 3 1 11-21 11-21L18 42zm0 0" fill="#918d8c"/><path d="M19 43c-5 2-9 6-12 10 2 10 11 0 16 2 3 0 3 3 3 6l5-14 2-15s-8 8-14 11zm0 0" fill="#676363"/><path d="M12 70l-3-1c-1-1-3-3-3-7-3-12 8-19 12-21l15-9-15 10c-3 2-14 8-12 20 1 4 2 6 4 7l6-1c7-3 8-5 10-7s0 0 0 1c-1 2-3 4-9 7l-5 1zm0 0" fill="#312d2b"/><path d="M17 58c-1 0-2 2-6 2-2 0-4-3-5-5v7c1 7 5 9 10 6 6-2 8-4 10-7-1-8-8-4-9-3zm0 0" fill="#2a2927"/><path d="M17 58c-1 0-2 2-6 2-2 0-4-3-5-5v7l2 6c5-1 11-5 9-10zm0 0" fill="#7c7a78"/><path d="M17 58l-6 3c-2 0-3-2-4-4v6c1 7 1 6 8 4 3-1 4-1 8-5 3-6-5-5-6-4zm0 0" fill="#2e2c2a"/><path d="M6 56v6c1 5 3 7 6 7l4-1c6-2 8-4 9-7 0-3-1-4-3-4l-5 1-6 2c-2 0-3-1-5-4zm6 14c-3 0-5-2-6-8v-9l1 2c1 3 3 4 4 4l5-1 1-1 5-1c2 0 4 1 4 5v1l-9 7-5 1zm54-23c0 8-4 14-9 14s-9-6-9-14c0-7 4-13 9-13s9 6 9 13zm0 0" fill="#252422"/><path d="M65 48c0 7-4 13-8 13-5 0-9-6-9-13 0-8 4-13 9-13 4 0 8 5 8 13zm0 0" fill="#e0dddc"/><path d="M65 47c0-7-4-12-8-12-5 0-9 5-9 13l1 5c6 0 12-2 16-6zm0 0" fill="#fefefe"/><path d="M57 35c-4 0-8 6-8 13s4 12 8 12 8-5 8-12-4-13-8-13zm0 26c-5 0-9-6-9-13 0-8 4-14 9-14s9 6 9 14c0 7-4 13-9 13zm0 0" fill="#252422"/><path d="M62 49c0 3-2 5-4 5s-4-2-4-5 2-5 4-5 4 2 4 5zm0 0" fill="#4673b7"/><path d="M62 48c0-2-2-4-4-4s-4 2-4 5l1 3c3 0 6-2 7-4zm0 0" fill="#40a1da"/><path d="M58 44c-2 0-3 2-3 5s1 5 3 5 4-2 4-5-2-5-4-5zm0 11c-2 0-4-3-4-6s2-6 4-6c3 0 4 3 4 6s-1 6-4 6zm0 0" fill="#2c4172"/><path d="M65 32s-8-6-16-3c0-3 6-10 16 3zm0 0" fill="#2e2c2a"/><path d="M54 28l9 2c-4-4-7-5-9-5-3 0-4 2-4 4l4-1zm13 7l-3-2s-4-4-10-4h-5v1-1c0-2 2-5 5-5 2 0 6 2 11 8zm0 0" fill="#252422"/><path d="M37 88s0-4 3-6v1c-2 1-3 5-3 5zm0 0" fill="#ec6360"/><path d="M142 101s7 3 1 10c4 3 5 9 1 14 1 5 1 11-6 13 0 7-5 14-11 9-6 3-11 0-11-6-4 0-8-2-8-9-5 0-10-6-8-9zm0 0" fill="#d4d1d1"/><path d="M142 101s7 3 1 10c4 3 5 9 1 14 1 5-2 9-10 12 1 6 0 12-7 7-5 2-10 1-10-6-4 0-9 1-9-6-5 0-10-6-8-9zm0 0" fill="#e7e5e5"/><path d="M131 149l-4-1c-3 1-6 1-8-1-2-1-4-3-4-6-5 0-8-3-8-9-3 0-5-2-7-4-2-3 0-5 0-5-1 1 0 3 1 5s4 4 7 4c0 5 3 8 8 8v1l3 6h8c3 2 5 1 6 0 3-1 5-5 4-9h1c5-2 7-6 5-13 2-3 3-5 3-8 0-2-1-4-3-5v-1c2-2 2-5 2-6-1-3-3-3-3-3s3 0 4 3c0 1 0 4-2 6l3 6c0 3-1 6-3 8 2 7 0 12-6 13 0 4-1 8-4 10l-3 1zm14-83c-1-6-7-6-7-6v-1c7 1 7 7 7 7zm0 0" fill="#6f6b6a"/><path d="M246 72s12 1 6 15c4 4 4 11 0 14 4 4 5 12-1 16 1 5 1 9-4 12 1 4-1 10-4 11 2 3 0 14-7 8-3 6-9 7-11-5-5 1-9-1-8-8-3 2-12-1-11-9-3 1-11-6-8-13-2-2-4-9 0-13zm0 0" fill="#a2d9f7"/><path d="M1403 412s69 5 35 83c24 23 9 56-14 72 19 26 26 63-10 86 7 32 11 53-18 72 4 23-12 56-27 60 13 19 16 69-26 35-14 33-36 43-46-20-26 4-63 11-59-32-18 14-66-6-59-49-18 6-64-34-46-75-13-13-23-55-3-77zm0 0" transform="matrix(.17503 0 0 .1756 0 0)" fill="#8ecef2" stroke="#8ecef2"/><path d="M206 112c3 4 6 1 6 0 3 3 10 5 12-3 4 0 11-1 10-9 6-1 11-9 6-17 5-3 7-6 6-9l1-1-3-1-46 28c-4 4-2 11 0 13v2c5 2 7 0 8-3zm0 0" fill="#cfeaf0"/><path d="M231 153h-1c-2-1-4-4-5-9-3 0-5 0-7-2l-2-6c-1 1-4 0-6-1-3-2-4-5-4-8l-6-3c-3-3-4-7-2-11-6-8 0-13 0-13-4 3-2 11 0 13h1c-2 5 1 9 2 10l5 3h1c-1 4 1 7 3 8 3 2 5 2 7 1v-1 1c0 3 0 5 2 7l6 1c1 5 3 8 5 9 2 0 4-2 5-4v-1l1 1c2 2 4 2 6 1 2-2 2-7 1-9h-1 1c2-1 5-7 4-11 5-3 5-7 4-12l4-6c0-4-1-8-3-10v-1c2-1 2-3 3-5 0-3-1-6-4-8 2-5 2-8 1-11-2-3-7-4-7-4s5 0 8 4c1 3 1 6-1 11 2 2 4 5 3 8l-2 6c2 2 3 6 2 10 0 3-1 4-3 6 1 5 1 9-4 13 0 3-2 9-4 10 1 2 1 7-2 9-1 1-3 2-6 0-1 2-3 4-5 4zm0 0" fill="#a2d9f7"/><path d="M91 189h-1c1-5 3-6 3-6-2 2-2 6-2 6zm19 7c0-4 3-5 3-5-2 1-3 5-3 5zm0 0" fill="#272724"/><path d="M207 173c-2 1-9 7-10 14h6c0 2-1 3 3 3 3 1 13 1 12-10-4-4-10-6-11-7zm0 0" fill="#2a2927"/><path d="M205 183c0 2 2 4 3 3 4-2 7-9 4-10l-5-3c-2 1-9 7-10 13 3 1 6-1 8-3zm0 0" fill="#32302e"/><path d="M204 187v1 1l2 1h2c3 0 6-1 7-3 2-1 3-4 2-7-3-4-8-6-10-6-7 5-9 10-9 13h5zm4 4h-2l-3-1v-2h-2l-4-1v-1c0-3 2-7 9-13h1c2 1 8 3 11 6 0 4 0 7-2 9s-4 3-8 3zm0 0" fill="#272724"/><path d="M204 188l-1-1 3-5c-2 2-2 6-2 6zm0 0" fill="#272724"/><path d="M224 181c-3 3-7 6-8 12h6v3s10 0 15-2c2-2 1-4 1-6-6-7-11-7-14-7zm0 0" fill="#2a2927"/><path d="M226 194c5 1 13-5 10-8-5-5-9-5-12-5-3 3-6 6-8 11l7-2c0 2 1 4 3 4zm0 0" fill="#32302e"/><path d="M222 196c4 0 11-1 15-3 2-1 1-3 1-4v-1c-5-5-9-7-12-7h-2l-2 2c-2 3-5 5-5 10h5v-1 4zm0 1l-1-1v-3l-3 1-2-1c1-5 3-8 6-10l2-2h2c3 0 7 1 12 7 1 2 1 5-1 6-5 3-13 3-15 3zm0 0" fill="#272724"/><path d="M222 193h-1l2-4-1 4zm0 0" fill="#272724"/><path d="M49 55s12 4 17-3c0 0-1 11-9 11-9 0-8-8-8-8zm0 0" fill="#676363"/><path d="M56 56l-7-1c1 0 12 3 16-3v2l-6 2h-3zm0 0" fill="#252422"/><path d="M104 79s-2 10-9 7c-1 5-10 5-11-1-4 3-12-1-6-7-4-4-3-12 2-13-6-2-8-11 0-13-2-3-2-10 3-12-4-2-7-7-1-12-5-2-13-2-11-10-5 4-12 3-14-1-3 5-11 3-14 1-3 1-10 4-10-1-1-5 3-10 11-10 0-4 6-6 15-3 3-4 11-7 19 3 5-2 14 2 16 10 4-2 11 2 12 16 5 8 5 26-1 29 2 4-2 8-6 9zm0 0" fill="#d4d1d1"/><path d="M104 79s-2 7-9 5c-1 4-10 5-10-2-4 4-11 3-5-4-5-4-5-12 0-13-6-2-8-11 0-13-2-3-2-10 3-12-4-2-7-7-1-12-5-2-13-2-11-10-5 4-12 3-14-1-3 5-11 3-14 1-3 1-10 4-10-1-1-5 3-10 11-10 0-4 6-6 15-3 3-4 11-7 19 3 5-2 14 2 16 10 4-2 11 2 12 16 5 8 5 26-1 29 2 4-2 8-6 9zm0 0" fill="#e7e5e5"/><path d="M105 79s-4 5-10 1c-2 4-5 6-6-1-4 4-12 2-6-5-5-4-3-8 2-9-6-2-13-11-5-13-2-3-2-10 3-12-4-2-7-7-1-12-5-2-13-2-11-10-5 4-12 3-14-1-3 5-11 3-14 1-3 1-10 4-10-1-1-5 3-10 11-10 0-4 6-6 15-3 3-4 11-7 19 3 5-2 14 2 16 10 4-2 11 2 12 16 5 8 5 26-1 29 2 4-2 8-6 9zm0 0" fill="#cfeaf0"/><path d="M90 90h-1c-3-1-5-2-6-5-2 2-5 2-6 0-2-1-2-4 1-7-2-2-3-5-3-7 1-3 2-5 4-6-3-1-5-5-5-7 1-3 2-5 6-6-2-3-2-6-1-8l3-4c-2-1-4-3-4-5s1-5 3-7l-2-1-6-2c-2-1-3-3-2-6-3 2-7 2-10 2l-4-3-5 3-9-2h-1c-3 1-6 2-8 1l-2-3c0-3 1-5 3-7s5-3 9-3l2-3c3-2 8-2 13 0 2-3 5-4 8-4 4 0 8 3 11 7 3-1 6-1 9 1 3 1 6 5 7 8l6 1c2 2 6 6 6 16 4 6 5 17 3 24-1 3-2 4-4 5v5c-2 4-6 4-6 4 2-1 5-2 6-4 0-1 1-3-1-5h1l3-5c2-7 1-18-2-24h-1c0-10-4-13-6-15l-5-1h-1c-1-4-3-7-7-9h-8c-4-5-7-7-11-7s-7 3-7 3l-1 1V4H47l-3 3v1l-9 2-2 7 1 2c2 1 5 0 8-1h2l8 2c2 0 4-1 5-3v-1l1 1 3 3c3 1 7 0 10-3h1v1c-1 3 0 5 1 6l6 3h3v1c-3 2-3 5-3 7s2 4 4 5h1l-1 1c-2 0-3 1-3 3-1 2-1 6 1 8v1h-1c-3 0-5 2-5 5 0 2 2 6 5 7h2-2c-2 1-4 3-4 6-1 2 0 5 2 7h1-1c-2 3-2 5-1 7 2 1 5 1 6-1h1v1c1 2 2 4 5 4 2 0 5-1 6-3h5c3-2 4-7 4-7s-1 6-4 7l-5 1c0 2-3 3-5 3zm0 0" fill="#6f6b6a"/><path d="M86 34s10-1 16-5c7-5 20-12 30-6 5 3-7 23-22 29-14 4-13-3-21-2-5-3-3-16-3-16zm0 0" fill="#e7e5e5"/><path d="M86 33s10 0 16-5c7-5 20-11 30-5 5 3 2 21-14 27-19 6-19-4-29-1-5-3-3-16-3-16zm0 0" fill="#4d4845"/><path d="M86 33s10 0 16-5c7-5 15-9 26-4 5 4 6 16-10 22-18 6-18-3-29-1-5-3-3-12-3-12zm0 0" fill="#54504e"/><path d="M112 24l1-2c-4 1-8 4-11 6-6 5-16 5-16 5s-1 5 1 8c10-1 22-9 25-17zm0 0" fill="#918d8c"/><path d="M112 24l1-2c-4 1-7 6-11 8-6 5-16 3-16 3s-1 5 1 8c12 0 22-8 25-17zm0 0" fill="#676363"/><path d="M91 48l7 2 9 2 11-2c10-4 15-13 16-20l-2-7-9-2c-9 0-17 5-21 8-6 4-14 4-15 5s-2 12 2 14h2zm16 5c-4 0-7-2-9-3l-7-1h-2c-6-3-3-15-3-16s10 0 16-5c3-2 12-8 21-8l9 2c2 2 3 5 2 8 0 7-6 16-16 20l-11 3zm0 0" fill="#312d2b"/><path d="M91 43s7-1 17-8c7-5 13-7 18-6-1 5 0 12-12 16-9 2-15 2-23-2zm0 0" fill="#787271"/><path d="M118 34l-12 4c-1 1-3 2-2 3 2-1 4 0 6 1v4l4-1c12-4 11-11 12-16h-1l-7 5zm0 0" fill="#918d8c"/><path d="M92 43l12 3 10-1c10-4 11-10 12-15v-1h-3c-4 0-9 2-14 6-8 6-14 8-17 8zm12 4c-4 0-8-1-13-4h-2l2-1s7 0 17-8c6-4 10-6 15-6l3 1h1l-1 1c0 5-1 12-12 15l-10 2zm0 0M130 31l-4-2 4 2zm0 0" fill="#312d2b"/><path d="M87 31s9 6 1 12c4 2 4 5 2 9l-4-3-3-16zm0 0" fill="#e7e5e5"/><path d="M87 31s5 7-1 12c4 2 6 5 4 9l-4-3-3-16zm0 0" fill="#cfeaf0"/><path d="M90 52c1-2 2-3 1-5l-3-3-1-1c3-2 4-4 4-6 0-3-4-6-4-6s5 2 5 6c0 2-2 4-4 6l4 4c1 3-2 5-2 5zm0 0" fill="#6f6b6a"/><path d="M61 49c0 2-1 4-3 4s-2-2-2-4l2-4c2 0 3 2 3 4zm0 0" fill="#292829"/><path d="M59 47l-2 1-1-1 1-2 2 2zm2 3h-1l1-1v1zm-4 2h-1 1zm0 0" fill="#fefefe"/><path d="M31 89l-1 2-1-2 2-2v2zm0 0" fill="#f8cbcb"/><path d="M145 113zm0 0" fill="#fefefe"/><path d="M114 122c-1 5 2 9 9 6 0 3 11 2 11-7 3 2 13-1 9-10 6-7-2-11-2-11l-35 19c1 3 3 5 8 3zm0 0" fill="#cfeaf0"/><path d="M144 125v-1 1zm54-10zm0 0" fill="#fefefe"/></g></svg>