<svg xmlns="http://www.w3.org/2000/svg" width="228" height="267" viewBox="0 0 171 200"><path d="M171 186c0 8-38 14-85 14-48 0-86-6-86-14s38-14 86-14c47 0 85 6 85 14zm0 0" fill="#f3e0c5"/><path d="M58 45a2 2 0 0 1 1 0c2 0 3 1 3 3 0 1-1 2-3 2h-1v1h1l1 1a2 2 0 0 0 1-1c2 0 2-3 1-4l-1-2a2 2 0 0 0 0-1l-3 1zm17-2l-2 1a2 2 0 0 0 0 1l1-1c2 0 3 2 3 3 0 2-1 3-3 3l-1-1v1h1v1h2c2-1 2-3 1-5l-1-2a3 3 0 0 0-1-1zm0 0" fill="#fefefe"/><path d="M58 48l1-2 2 2-2 1-1-1zm4 0c0-2-1-3-3-3a2 2 0 0 0-1 0 10 10 0 0 0 0 1 8 8 0 0 0-1 2l1 1v1h1c2 0 3-1 3-2zm0 0" fill="#9ed8f7"/><path d="M59 48a1 1 0 0 1-1-1h1a1 1 0 0 1 0 1zm2 0l-2-2-1 2 1 1 2-1zm0 0" fill="#17669a"/><path d="M59 47a1 1 0 0 0-1 0l1 1a1 1 0 0 0 0-1zm0-1zm0 0" fill="#fefefe"/><path d="M73 47l1-2 2 2-2 2-1-2zm4 0c0-1-1-3-3-3l-1 1v1a8 8 0 0 0-1 1v2h1l1 1c2 0 3-1 3-3zm0 0" fill="#9ed8f7"/><path d="M74 48a1 1 0 0 1-1-1l1-1v1a1 1 0 0 1 0 1zm2-1l-2-2v0l-1 2 1 2 2-2zm0 0" fill="#17669a"/><path d="M74 46a1 1 0 0 0-1 1 1 1 0 0 0 1 0 1 1 0 0 0 0-1zm0 0h1a1 1 0 0 0 0-1h-1v1zm0 0" fill="#fefefe"/><path d="M105 108a109 109 0 0 0-3-6l3 6zm-14-9c1 2 3 9 6 10l6-1-8-17-6 3 2 5zm0 0" fill="#b29965"/><path d="M14 111l-1 1v2a20 20 0 0 0 0 2l2-6c-2 3-2 6-1 9 3 2 7 4 10 3v-1l2-3h1l1 1h-1l1 1h1l1 1h1v-1-1-1l-10-5v-1h-1v-1l-1-1-1-1-1-1-1-1a41 41 0 0 0-1 2l-1 2zm0 0" fill="#825531"/><path d="M47 140v-1-1h1v-1h2v1l-2 3-1-1zm-4 11l3-5 1-2 2-1v-1l1-1v-1-1a5 5 0 0 0 1-1v-1a3 3 0 0 0-1-1c-4-1-7 11-8 16a18 18 0 0 1 1-1zm0 0" fill="#e5332a"/><path d="M106 109l-1-1 1 1zm-14 8l2-1-1 1h-1zm8-4l4-2-1-3-6 1c-3-1-5-8-6-10l-2-5-2 2v2l2 4v1l1 2v1a39 39 0 0 1 1 5v1l1 2v2c3-1 6-1 8-3zm0 0" fill="#a18547"/><path d="M42 25c0 1-2 1-2-1a2 2 0 0 1 1-1h1v2zm7-15v1c-3 2-4 5-5 8-1 2-3 1-3 0-3 6-6 15 3 16a5 5 0 0 0 1 0h2a82 82 0 0 1 3-1l3-1h2l-1-2v-1-1-1-2c-1-2-2-4-1-7l4-4h1l1-2h1l1-1h1v-1h1a55 55 0 0 1 7 4l3 2v2l1 9v3h4l1-1a11 11 0 0 0 2-5l-1-3c-3-6-8-12-13-16a34 34 0 0 0-5 0v1l1 2h-1l-2-2a15 15 0 0 0-1-1l-3 1-7 3zm0 0" fill="#f08523"/><path d="M69 91h-1v3h2a68 68 0 0 1-1-3zm0 0" fill="#efb336"/><path d="M88 92l6-4a39 39 0 0 0-1-1l-6 3 1 2zm0 0" fill="#b29965"/><path d="M61 174h1v1a1 1 0 0 1-1 0v-1zm-3 2l-4 1-4 1-1-1 4-3c1 0 4-1 5 1v1zm-6-3c-3 1-7 3-9 6l7 2h4l10-1 1-1-1-4a6 6 0 0 0-2-2H52zm0 0" fill="#976d4b"/><path d="M69 87a69 69 0 0 1 0-4c2 2 3 3 4 1l7-8-1-2a63 63 0 0 1-1 2l-7 6c0 1 0 1 0 0a32 32 0 0 1-2-2 2 2 0 0 1-2 2h-1v1l1 3v2a2 2 0 0 1 2-1zm0 4l-1-1v1h1zm-2-13a29 29 0 0 1-3-4l1 1v3h2zm0 0" fill="#a58747"/><path d="M86 97v-1 1zm-16-3v3h16a11 11 0 0 1 0-3H70zm0 0" fill="#a98d54"/><path d="M72 153l-2-9v-2l-2 11v3h5l-1-3zm0 0" fill="#916d2e"/><path d="M95 91l-1-3-6 4 1 2 6-3zm0 0" fill="#f3c337"/><path d="M79 39v1l1 1v2s0 1 0 0h-1v-1a6 6 0 0 0-1-1h-3l2 1 1 1 4 2-1-4 1 1v-1a26 26 0 0 1-4-2h1zm-30 7c1-2 3-4 6-4a6 6 0 0 1 1 0c1-1 2-2 4-1a15 15 0 0 1-2-1l-1-1h-2a120 120 0 0 0-8 2l1 1v3h-1v3l-1 1a2 2 0 0 1 0 1v3l-1 1h1v4l1 1c-1-4 0-9 2-13zm0 0" fill="#f49d59"/><path d="M74 43l-1-1a3 3 0 0 1-1-1l3-1h-7 1a16 16 0 0 0 1 1h1v1h-2l-7-1a9 9 0 0 1 2 1h-7l3 1a3 3 0 0 1 1 0h13zm0 0" fill="#f49d59"/><path d="M47 63c-3-4-5-11-5-16h-4v3l1 1v2l1 2c2 5 4 9 8 12h1v1h2v1a23 23 0 0 0 2 0l1 1c-3-2-6-4-7-7zm0 0" fill="#825531"/><path d="M47 61v1a21 21 0 0 1 0-2l-1-1v-1h-1a72 72 0 0 1 0-2l-1-1v-2-2h-1v-1l1 3 3 8zm-5-15h-1-1 2zm1 0v0zm0 0" fill="#825531"/><path d="M22 63a9 9 0 0 1 0-2v2zm0 0" fill="#e95225"/><path d="M20 64c-1-4 1-7 3-10a20 20 0 0 1 2-2l-1 1-1 1c-3 4-8 14 0 15h5a12 12 0 0 1-2-1c-3 0-5-1-6-4zm0 0" fill="#e95225"/><path d="M83 128h8-8zm5-26a17 17 0 0 0 0-1l-1-1 1 2zm-10-2h-8 1l2 2a2 2 0 0 1-2 2l1 9a2 2 0 0 1 1 4c1 4 2 7 5 9l1 1 3-1 9-1v-2l-2-11-2-11v-1h-9zm0 0" fill="#a98d54"/><path d="M70 100h-1v2l1-2zm1 27h8l-1-1c-3-2-4-5-5-9a2 2 0 0 1-2 0l-2-2a2 2 0 0 1 3-2l-1-9a2 2 0 0 1-2-1v13l1 8v4h2a10 10 0 0 1-1-1zm0 0" fill="#a58747"/><path d="M29 25a8 8 0 0 0 0 1 8 8 0 0 0 0 1l-2 10 1-4 1-8zM50 5C39 6 33 18 31 27c-2 7-3 15-6 21l1-2h1l1-1 2-2h1l2-2a42 42 0 0 1 2-1h1a58 58 0 0 1 5-3h1l2-1h1v-1h-1c-9-1-6-10-3-16l1-1c1-3 3-7 6-8h1l7-3 3-1-3-1h-1l-5-1v1zm0 0" fill="#ed6e20"/><path d="M39 179a1 1 0 0 1 1 0h3c2-3 6-5 9-6h10l-1-1a6 6 0 0 0-1-1h-2-1c-4-1-8 0-12 2h-1l2-1a28 28 0 0 1 2-1 31 31 0 0 1 5-1h-3-2l-8 1h-2l1 8zm0 0" fill="#825531"/><path d="M44 142l1-2v-1l1-1-2 3v1zm-11-12v1l2 1v1h1v0a6 6 0 0 1 1 2v1l2 1 1 1 3 2v1l3-4a14 14 0 0 0-2-2h-1v-1a36 36 0 0 0-1-1l-1 1-2-2v-1a33 33 0 0 1-2-1l-1 2h-1v-1a21 21 0 0 1-1-1h-1zm0 0" fill="#ea5640"/><path d="M87 90a27 27 0 0 1 0-3l-3 2 1 2 2-1zm-35 3l-5 1-1 2h5l1-3zm0 0" fill="#efb336"/><path d="M59 29v-1h1l-1 1zm-2-4v-2h2v3l-2-1zm5-1l1-2v-1l-4 1 3-6h4l1 1 1-1-2-2-2-1 2 1a66 66 0 0 0-2-2 38 38 0 0 0-1 0h-1a59 59 0 0 1-4 4l-1 1 4-3h1c-2 3-6 5-6 9v7a17 17 0 0 1-1-2 126 126 0 0 1 0 3l1 2 1-1h3l2-1v-7zm0 0" fill="#ea5640"/><path d="M88 92l-2 2 1 2 2-2a41 41 0 0 1-1-2zm0 0" fill="#efb336"/><path d="M70 94h-2v3h2v-3zm0 0" fill="#a58747"/><path d="M86 179h2l7-5h1l6-2h1v-1h-1l-2-1a7 7 0 0 1-1 0l-10 3 1-1 3-2h-2l-8 1-4 2 2 6h5zm0 0" fill="#825531"/><path d="M51 96h-5a31 31 0 0 1-1 3l6-1v-2zm0 0" fill="#a58747"/><path d="M51 98l-6 1-1 1-1 3 6-1a46 46 0 0 0 2-4zm0 0" fill="#efb336"/><path d="M56 57h1v-1l1-1v2c3 4 6 4 10 4h2v-1 2h1-1v1a1 1 0 0 1 0-1v-1h-1v1a20 20 0 0 1-1 0h-1a6 6 0 0 1-1 0h-2a9 9 0 0 1-1 0 5 5 0 0 1-1 0v-1h-1a2 2 0 0 1-1-1h-1v-1a6 6 0 0 0-1-1v-1h-1v1a1 1 0 0 1-1-1zm0-5h2c1 1 0 2-1 1h-1v-1zm15 2l-1-1h2a1 1 0 0 1 0 1 3 3 0 0 0 1-1 2 2 0 0 0-1-1h-1-1v-2h1a7 7 0 0 1 0 2h2v1h1v1c-1 2-3 4-5 3v-1l-2-2h4zm-2-1v1-1zm-4 11l-1 1-1 1h-2v-2l-1-1 1 1h4zM55 52h-1v-1h1v1zm21 1l1-1v1h-1zm2-2h1v1h-1v-1zM57 69c5 0 12 0 17-3 5-4 7-9 9-15v-1-3-2-1a36 36 0 0 0-1-2l-1-1 1 4-4-2a5 5 0 0 1-1 0h-1l1 1 1 2c1 2 0 5-2 6h-1a2 2 0 0 1-1-1 3 3 0 0 1-1 0 3 3 0 0 1 0-1 4 4 0 0 1-1 0v-1a6 6 0 0 1 0-2 8 8 0 0 1 0-1v-1-1h1v-1a22 22 0 0 1-10 0l-1 1h-1a4 4 0 0 1 1 0v1l1 2c1 1 0 5-2 5h-1-1-1v-1a4 4 0 0 1 0-1 6 6 0 0 1-1-1 5 5 0 0 1 0-1 6 6 0 0 1 0-1v-1-1a4 4 0 0 1 2-2h1l-3-1-2 2h-1l2-2h-2c-2 0-4 2-5 4-2 4-3 9-2 13v1l3 5h1l1 1 1 1 1 1 3 1zm0 0M79 52zm0 0" fill="#f7b47f"/><path d="M82 80l-2-4-7 8c-1 2-2 1-4-1a67 67 0 0 0 0 4l2 2-2 2h15l-1-1-1-4 1 1-1-7zm0 0" fill="#a98d54"/><path d="M38 50a6 6 0 0 0-1 0l-4 1a9 9 0 0 1 3 1 8 8 0 0 1 3 2 58 58 0 0 1-1-3v-1zm-5 0a6 6 0 0 1 1-1 2 2 0 0 0-1 1l-1 1v1a5 5 0 0 1 1-2zm0 0" fill="#f49d59"/><path d="M65 183a18 18 0 0 0 0-1v-1h-1v1c-4 3-9 2-13 2-4-1-9-1-13-4a4 4 0 0 0-1 0 7 7 0 0 1-1-1 10 10 0 0 1-1 0h-1a3 3 0 0 1-1-1v2l1 1v3h3l1 1h2a74 74 0 0 0 10 1h15v-3zm0 0" fill="#674529"/><path d="M46 181a135 135 0 0 1-4-1h-2-1l7 1zm0 0" fill="#674529"/><path d="M87 90l-2 1 1 3 2-2a40 40 0 0 1-1-2zm0 0" fill="#a18547"/><path d="M52 91v-9l6 5 7-7-1-2v-2-1a10 10 0 0 0-1-2l-2 6-1 1v1l-2 3h-1l-7-5-4-4a4 4 0 0 1-1-1l-3 2c2-1 3 0 5 1a5 5 0 0 0-2 0 9 9 0 0 1 3 4v10l-1 3 5-1v-2zm0 0" fill="#a58747"/><path d="M109 117v-1a15 15 0 0 0-1-1 11 11 0 0 0-2-2v1l2 2v1l2 5-2 4-1 1a2 2 0 0 1-1 0 2 2 0 0 1-1-1l-1-2a9 9 0 0 0-2-3l-1-1a10 10 0 0 0 0-1 7 7 0 0 0-2-1 7 7 0 0 0-1 0h-1l1 1v4l-2 2h-2v1h1v1l1-1h3v1h1v1h1a5 5 0 0 0 1 0h2a4 4 0 0 0 1 0h3l1-1 1-1 1-3a1 1 0 0 0 0-1l-2-5zm0 0" fill="#6b4526"/><path d="M108 125c2-2 2-4 1-6a5 5 0 0 1-5 2c1 2 3 6 4 4zm0 0M103 121h-1a9 9 0 0 1 2 3l1 2 1 1h1c-2 0-3-4-4-6zm0 0" fill="#784b2a"/><path d="M100 116h-2a14 14 0 0 1-1 1h-1-1-2v5l1 1v2h3v-3-4l1 1-1-1h2a7 7 0 0 1 2 2l1 1h1l-1-1 1-1 1 2h1l4-2a23 23 0 0 0-3-4 33 33 0 0 1 2 2 17 17 0 0 0 0-1l-2-2v-1l-4 2-2 1zm0 0" fill="#825531"/><path d="M87 185h15v-1h3v-2-2l-2 1h-1c-3 2-7 2-10 2l-14-2v-1l12 1h2l-2-1H74l-1-1v1l1 1v3h2l4 1h7zm0 0" fill="#674529"/><path d="M102 173l1 1h-1v-1zm-6 1l3-1c2-1 3 2 1 2l-7 2c0 1-1 0 0 0l2-3h0l-7 5 7 1h1l7-1h2c0-2 0-5-2-7h-1l-6 2zm0 0" fill="#976d4b"/><path d="M84 185h-4l-4-1h-1a1 1 0 0 1-1 0v-2-1l-1-1v-1l1 1h16a296 296 0 0 1 2 0l3 1h8l2-1v4h-3v1H92h-4-1-3zm15-16a14 14 0 0 0-6 1 10 10 0 0 0-4 3l10-3h1l2 1h1v1c2 2 2 5 2 7h-2l-7 1h-1l-7-1h-7-1a105 105 0 0 1-2 0h-2-1-1l-1-1a4 4 0 0 1 0-1v-1-1-1a2 2 0 0 0 0 1h-1l1 4-1 1v4a1 1 0 0 0 1 0l5 2h23l5-1v-1-1-1-1-1-1c1-2 0-5-2-7v-1h-1a1 1 0 0 0 0-1h-1a4 4 0 0 0-1 0 27 27 0 0 0-1 0 9 9 0 0 0-1-1zm0 0" fill="#694226"/><path d="M77 172h-2a25 25 0 0 0 2 0zm12-6c-4 1-7 1-11-1a10 10 0 0 1-1-1l-6 1 3 7c2-2 7-3 9-4l13-1v-1h-7zm0 0" fill="#916d2e"/><path d="M77 164l1 1c4 2 7 2 11 1h7a97 97 0 0 0 0-5l-12 2-7 1zm0 0" fill="#9a7a39"/><path d="M75 161a10 10 0 0 0 2 3l7-1 12-2-1-3-12 2-8 1zm0 0" fill="#f3c337"/><path d="M74 159l1 2 8-1 12-2v-3l-12 2-9 2zm0 0" fill="#9a7a39"/><path d="M83 157l12-2a173 173 0 0 0 0-3l-12 2-10 2 1 3 9-2zm0 0" fill="#f3c337"/><path d="M56 134c-2 0-3 0-3 2l-1 1c1 2 2 4 1 6 0 4-5 8-8 12l6 1 10 1h3l1-4c1-6 4-11 4-17l1-1v9l2 9 1 3 10-2 12-2-3-18a102 102 0 0 1 0-4l-24 1-12 3zm0 0" fill="#9a7a39"/><path d="M87 37c1 0 0 0 0 0v-1h1c1 1 0 2-1 1zm-3 0l-3-1v-1h3v2zM33 66h1v1h-1a1 1 0 0 1 0-1zm53-20l1 1v1h1l3-2 3-5c1-2 0-4-3-5l-6-1-1-1h-2a73 73 0 0 0-3 0v1c-8 1-15 0-23 2l-19 5h-1v1l-2 1a88 88 0 0 0-3 2l-1 1h-1l-1 1-1 2a2 2 0 0 0-1 0l-1 1v1a20 20 0 0 0-2 2h1c0-1 0 0 0 0l-2 7v2l1 1c1 2 4 2 6 3v1h-3l2 1a30 30 0 0 0 3 0 68 68 0 0 0 7-1l1-1h3l-1-1-1-1v-1h-1c-4 1-14 1-15-5a9 9 0 0 1 1-2c0-2 2-4 4-6a43 43 0 0 1 4-4 39 39 0 0 1 1-1h1l1-1c6-3 13-5 19-6l1-1h1a223 223 0 0 1 17-2l6 1 6 2 1 1h6l-1 1a2 2 0 0 1-1 0l-4 1v1h-2v3h1zm0 0" fill="#e64125"/><path d="M89 128H71h-1v-1-3l-1-8v-1a365 365 0 0 0 0-11v-1a9 9 0 0 1 0-1v-2l-1-3v-1-2-2-1-1l-1-2v-1-1l-1-3v-1l-1-4v-1-2l-1-1a29 29 0 0 0 3 4 35 35 0 0 0 2 2 32 32 0 0 0 2 2c0 1 0 1 0 0l7-6a63 63 0 0 0 1-2h1l1 1a68 68 0 0 1 5 4 67 67 0 0 1 5 6 46 46 0 0 1 1 1l1 1a80 80 0 0 1 3 3 70 70 0 0 1 9 18l1 1v1l1 1c-4 3-9 5-13 5l-2 1v-1-2l-1-2a30 30 0 0 1 0-1 150 150 0 0 0-1-5v-1l-1-2v-1l-2-4v-2l-1-2-1-3a29 29 0 0 0-1-2 17 17 0 0 0-1-2l-1-1 1 4 1 1v1h1v2h1v3a13 13 0 0 0 1 1v2l1 1v1l2 9 3 15v1l-2 1h-1-1zm5-2v-1-1-1l-1-1v-1-1-3h4l1-1h2l2-1 4-2 1-1h1a1 1 0 0 0 0-1l-1-1v-1c-2-7-6-14-10-19v-1a1 1 0 0 1-1 0l-4-5-1-1-1-1v-1h-1l-1-1-1-1a13 13 0 0 0-1-1 4 4 0 0 0-1-1 43 43 0 0 0-1-1 12 12 0 0 0-1 0l-1-1-1-1h-1v-1a2 2 0 0 0 0-1h-1v-1l-1-1h-1-1a16 16 0 0 0-1-1h-1v-1a3 3 0 0 1 0 1l2 1 3 3-7 7-1 1a29 29 0 0 1-2-2l-4-5v-1h-1v-1h-1v1a32 32 0 0 0-2 3l-1 2-2 4-1 1-3-2-6-6c-1-1-4-2-2-4a9 9 0 0 1 2-2h1l-1-1-1 1-2 2a3 3 0 0 0-1 0v2l-4 2v1l-5 3h-1v1l-1 1a50 50 0 0 0-2 2l-2 1v1a57 57 0 0 0-2 1l-1 2a1 1 0 0 0-1 0l-1 2a168 168 0 0 0-3 3 51 51 0 0 0-7 11l1 1v1h1v1l1 1 1 1 1 1 1 1v1h1v1l10 5 1 1a18 18 0 0 0 2 0h1v-1a197 197 0 0 1 3-7v4l-1 2-1 6a47 47 0 0 0 0 2l1 1 2-15v-1-1l2-4 1-1 1-1 1-3 1-1a31 31 0 0 0 1-3l1-2 1-3v-1 1l-4 8-3 6-1 1v1h-1l-5 11h-1l-4-1a16 16 0 0 1-3-2l-4-3-1-1-4-4-2-3a2 2 0 0 0-1 0l5-7 7-8a62 62 0 0 1 7-7l6-5 2-1h1l3-2 1 1 4 4 7 5h1a15 15 0 0 0 2-3v-1l1-1 2-6 1 2v3l1 2 3 20v17l1 7v4a584 584 0 0 0-27 0l2 1h13l15-1 16 1 2-1h1l1 2v4l3 15a290 290 0 0 1 2 11v8l1 1-14 1-7 2a25 25 0 0 1-4 1h-1l-2-10v-1-1a46 46 0 0 1-1-2l-1-3v-3l2-11v-5-2l-1 1-3 18a177 177 0 0 1-2 9l-2 6v2l-4-2h-8a197 197 0 0 0-12 1h-4v-9-2l1-3v-2-1-1-1l-1 1v4h-1v15a1 1 0 0 0 1 0h6l8-1h5l7 1a9 9 0 0 1 2 0l1 1v-1l2-7a84 84 0 0 0 2-7v-1-1-1 1l1 1v3l1 3v3l2 5v2l1 1v1h1l6-1 4-2 8-1h2a14 14 0 0 1 6-1v-1-1-1l-1-5v-1-2l-1-3v-3a24 24 0 0 0 0-1v-1l-1-2v-2a20 20 0 0 1 0-1v-1l-1-2v-1-1-1l-1-4-1-1a64 64 0 0 0 0-3v-1h-1v-1-1h2a37 37 0 0 0 0-2zm0 0" fill="#86673a"/><path d="M45 130l1 1h1v1h1v1h1v1h1v1l1 1v5h-1v2h-1v1l-6 8-1 2h-1a9 9 0 0 1-1 0h-1a59 59 0 0 0-1-1 14 14 0 0 1-3-1 15 15 0 0 1 0 2l5 1h5c3-4 8-8 8-12 1-2 0-4-1-6l1-1c0-2 1-2 3-2l12-3 24-1-1-2h-1l-2 1-16-1-15 1H44l1 1zm0 0" fill="#916d2e"/><path d="M87 90l6-3-1-1a46 46 0 0 0-1-1l-4 2v3zm0 0" fill="#f3c337"/><path d="M93 36l-9-3-2-1a38 38 0 0 0-1 0h-1a92 92 0 0 0-2 0 57 57 0 0 0-3 0h-1a47 47 0 0 0-2 0h-3-1-5-1-1l-1 1h-1l-3 1-6 1c-7 2-15 5-20 10h-1l-2 2-5 6v1c-2 1-3 3-3 5v-1l1-1v-1a41 41 0 0 1 5-7l7-5c3-3 7-5 12-6 8-3 17-5 25-6h1a38 38 0 0 1 3 0 68 68 0 0 1 12 2l8 2zm0 0" fill="#f7b36f"/><path d="M91 85a67 67 0 0 0-5-6l1 8 4-2zm0 0" fill="#b29965"/><path d="M82 22c1 3 2 7 5 9l-5-9zm-1 3l-2 5-1 1h3l2 1a74 74 0 0 1 3 0c-2-1-4-4-5-7zm0 0" fill="#ed6e20"/><path d="M79 41v0zm5-2h-1a25 25 0 0 0-3-2l2 2h2zm-24 0l4 1h3-4l-3-1zm-1 0a36 36 0 0 0 6 2h3v-1h-1a4 4 0 0 0-1 0v-1h3a92 92 0 0 1-5-1c-1 0-1 0 0 0h9l5 2a7 7 0 0 0 0-1l-3-1-3-1c-1 0-1 0 0 0a9 9 0 0 1 4 1v-1 1h2l3 2h2l-6-3h1a34 34 0 0 0-4 0h-2l-15 2h2zm0 0" fill="#fde38e"/><path d="M88 49a4 4 0 0 0 0-1h-1a3 3 0 0 0 0-1l-1-1h-1l1 1 1 2v4h-1a5 5 0 0 1 0 1l-1 1h-1v1h1a4 4 0 0 0 1-1 3 3 0 0 0 1-1v-1h1a1 1 0 0 0 0-1v-1-1a5 5 0 0 0 0-1zm0 0" fill="#b34528"/><path d="M84 55h1l1-1v-1h1-1v-4l-1-1v2l1 1v1h-1v1h-1v2zm1-9l1 1-1-1v0zm0 0" fill="#f49d59"/><path d="M87 100v-2a9 9 0 0 1 0-1h-1a61 61 0 0 0 1 3zm-5-3H70v3h17l-1-3h-4zm0 0" fill="#f3c337"/><path d="M86 39l-3-1v1h1l3 1 1 1h-1l-4-1h-2l-3-2h-1-1v-1 1h1l1 1v1h1v1c-3-2-7-2-10-2h-3v1h2v1h0-2-1a36 36 0 0 1-6-2 26 26 0 0 1-1 0h-1l1 1a15 15 0 0 0 2 1 21 21 0 0 0 2 0l7 1h2v-1h-1a17 17 0 0 1-1-1h-1 7l3 1v1h1v1h1c0 1 0 0 0 0a6 6 0 0 0 0-1 6 6 0 0 0 0-1 6 6 0 0 0-1-1v-1h-1l4 2h3l1 1h1l4-1a2 2 0 0 0 1 0l1-1h-6a24 24 0 0 1-1-1zm0 0" fill="#f9b33b"/><path d="M86 42h-1v1l1-1zm0 0" fill="#9f2826"/><path d="M82 80l1 7 1 2 3-2-1-8a68 68 0 0 0-5-4l-1 1 2 4zm0 0" fill="#a18547"/><path d="M85 91zm0 0" fill="#a98d54"/><path d="M69 91l1 3h15a23 23 0 0 0 0-2h-1v-1H69zm0 0" fill="#f3c337"/><path d="M85 52v-1 1zm0 0" fill="#f49d59"/><path d="M84 42v5h-1v8l-1 2a6 6 0 0 1 0 1l-1 1a16 16 0 0 1 0 2h-1v0l1-1 1-2v-1l1-1a33 33 0 0 0 1-8c0 1 0 1 0 0v-3l1-2v-1h-1zm0 0" fill="#825531"/><path d="M83 41l1 1a1 1 0 0 0 1 0v-1a18 18 0 0 1-2 0zm0 0" fill="#e95225"/><path d="M83 42v-1h-1v1zm0 0" fill="#fde38e"/><path d="M81 75l-1-1h-1l1 2 1-1zm0 0" fill="#a98d54"/><path d="M74 175h1l1 1-1 1-1-2zm3 1a1 1 0 0 1 0 1c0 1 0 0 0 0v-1zm-4-2v4l1 1h7l-2-6-6 1zm0 0" fill="#976d4b"/><path d="M69 79l-4-5 4 5zm-4-6l6 5 4-3 2-2-1-1c-1 2-4 4-6 4l-3-4h-3v1h1zm0 0" fill="#b8a06d"/><path d="M70 162l1 3 6-1a10 10 0 0 1-2-3l-5 1v0zm0 0" fill="#eda616"/><path d="M74 43v-1h3l-2-1-2 1 1 1zm0 0" fill="#f7b47f"/><path d="M74 159a83 83 0 0 1-5 0l1 2v1l5-1-1-2zm0 0" fill="#916d2e"/><path d="M71 70l-2 1h-1a2 2 0 0 1-1 1l3 4c2 0 5-2 6-4v-1-1l-2-1a26 26 0 0 1-3 1zm0 0" fill="#a98d54"/><path d="M74 30l-1-9-1-2-3-2a7 7 0 0 1-1-1l-1 1 2 11-4 1-2-7a19 19 0 0 0-1 2v7a61 61 0 0 1 4 0 52 52 0 0 1 4 0h4v-1zm0 0" fill="#e63a2e"/><path d="M73 156h-5l1 3a83 83 0 0 0 5 0 32 32 0 0 1-1-3zm0 0" fill="#eda616"/><path d="M69 56h3l1-2a1 1 0 0 0 0-1l-1 1a1 1 0 0 1-1 0h-4l2 2zm0 0" fill="#f49d59"/><path d="M70 97h-2l1 3h1v-3zm0 0" fill="#efb336"/><path d="M71 69a46 46 0 0 0-2 1h-1l-5 1h3a13 13 0 0 0 3-1 9 9 0 0 0 1 0v-1h2-1zm0 0" fill="#825531"/><path d="M63 22l2 7 4-1-2-11-2 1-2 3zm0 0" fill="#be282f"/><path d="M69 128zm0-2v-2l-1-7 1 9zm-2-26l-18 2c-3 8-4 18 2 25h1l15-2v-25zm0 0" fill="#a98d54"/><path d="M67 98l-1-1h-4l-11 1a46 46 0 0 1-2 4l18-2a63 63 0 0 0 0-2zm0 0" fill="#f3c337"/><path d="M66 97v-3l-5 1-10 1v2l11-1h4zm0 0" fill="#a98d54"/><path d="M61 95l5-1v-3l-14 2-1 3 10-1zm0 0" fill="#f3c337"/><path d="M62 16l-3 6 4-1a10 10 0 0 1 4-4l-1-1h-4zm0 0" fill="#d7222c"/><path d="M65 85v-5l-7 7-6-5v9a39 39 0 0 1 0 2l14-2-1-6zm0 0" fill="#a98d54"/><path d="M67 6l-5-2a92 92 0 0 0-2-1l1 1v1l1 1a34 34 0 0 1 5 0zm0 0" fill="#ed6e20"/><path d="M51 159h12l1-2h-3l-10-1-6-1a38 38 0 0 0-2 3l8 1zm0 0" fill="#f3c337"/><path d="M51 159l-8-1-2 3h9l9 1h3l1-3H51zm0 0" fill="#9a7a39"/><path d="M64 64h-1a7 7 0 0 1-1 0 4 4 0 0 1-1 0 7 7 0 0 1-1-1l1 1h1v1h2l1-1h-1zm0 0" fill="#b34528"/><path d="M50 161h-9v2l8 1a101 101 0 0 0 13 1v-3h-3l-9-1zm0 0" fill="#f3c337"/><path d="M63 65h-1v-1h-1v2h2l1-1h-1zm0 0" fill="#f49d59"/><path d="M49 164l-8-1c-1 2 0 4 1 5h6c5 0 9-1 13 1l1-4a69 69 0 0 0-3 0l-10-1zm0 0" fill="#9a7a39"/><path d="M47 70c-1 1 0 2 1 3l3 3 6 5 1-3 3-2a32 32 0 0 1 2-4h-3c-3 5-10 3-13-2zm0 0" fill="#b8a06d"/><path d="M42 5l-1 1a17 17 0 0 1 9-2l9 1v1h2v1a4 4 0 0 0 0-1l-7-4-11 1a1 1 0 0 0 0 1l-1 1zm0 0" fill="#e95225"/><path d="M57 73zm-9-3a4 4 0 0 0-1 0c3 5 10 7 13 2l-7-2h-1a16 16 0 0 1-2-1h-2v1zm0 0" fill="#a98d54"/><path d="M39 120v6h-1 1v1h2l1 1a165 165 0 0 1 7 0h-6l9-1a20 20 0 0 0-1 0c-6-7-5-17-2-25l-6 1-1 1-1 1-2 4v11zm0 0" fill="#a58747"/><path d="M48 141v-2l1-1h-1a5 5 0 0 0 0 1v1l-1 1h1zm1-3v-1 1zm0 0" fill="#ea5b23"/><path d="M48 68l1 1h1l2 1h1a36 36 0 0 0 10 2h4l1-1h1a25 25 0 0 0 2-1 26 26 0 0 0 3-1 3 3 0 0 0 0-1 20 20 0 0 0 2-1h1v-1a4 4 0 0 0 1 0v-1h1v-1l4-7h1v-1-1l1-2h-1l1-1v-1-2-1-2-3-1 1l-1 5a38 38 0 0 1-1 8l-1 1v1l-1 2-1 1v1l-3 3-5 4h-1-1v1a9 9 0 0 1-1 0 14 14 0 0 1-6 1 34 34 0 0 1-9-1l-1-1a7 7 0 0 1-1 0 24 24 0 0 1-1 0v-1h-2v-1h-1c-4-3-6-7-8-12l-1-2a15 15 0 0 1 0-1v-1-1l-1-1v-2l1-1h4v5h1a29 29 0 0 0 0 2v2l1 1v2h1v1l1 1v2c2 3 6 7 10 8 0 0 1 0 0 0v-1l-3-1-1-1-1-1a15 15 0 0 1-1-1 3 3 0 0 1-1 0l-3-5a16 16 0 0 1 0-1l-1-1a33 33 0 0 1 0-1v-1l-1-3-1-2v-3l-1-1v-1-1h-3-1a2 2 0 0 1-1 0v1h-1v1h1v4a59 59 0 0 0 2 5l1 2a28 28 0 0 0 2 5 24 24 0 0 0 2 2v1l1 1h1l1 1zm0 0" fill="#6b4526"/><path d="M48 81a26 26 0 0 0-3-1c-3-1-6 1-8 3 3 2 7 5 9 9a148 148 0 0 0 2-4v-7zm0 0" fill="#b29965"/><path d="M42 76zm-7 6l2 1c2-2 5-4 8-3l3 1a10 10 0 0 0 0-2l-3-2c-3-1-7 2-10 5zm0 0" fill="#a98d54"/><path d="M46 44v1l-1 3v-2 1h-1a1 1 0 0 1 0 1v3l1-3 1-4zm-1 9zm0 0M45 43v1a27 27 0 0 1 1-2l1 1v-1h-2v1zm0 0" fill="#fde38e"/><path d="M43 131l-4-2c-1-1-2 0-2 1l1 1 1-1 1 1 2 2a35 35 0 0 1 1 1 1 1 0 0 1 1 1l2 2h1v-1h1v-1l-5-4zm-4-4h-1 1zm0 0" fill="#ed7154"/><path d="M45 94l1-2c-2-4-6-7-9-9a30 30 0 0 0-2 1l10 10zm0 0" fill="#f3c337"/><path d="M42 66h1v1h1a1 1 0 0 0 0 1h1l-2-2h-1zm3 0l1 2 1-1h-1l-1-1zm-1-1v-1h-1v-1h-1a12 12 0 0 1-1-1l-1-1a2 2 0 0 1 0-1h-1v-1 3l1 1-1-2h1l3 4v-1l2 2v-1h-1zm0 0" fill="#fde38e"/><path d="M35 84l-2 2 11 11 1-3-10-10zm0 0" fill="#b29965"/><path d="M43 47h1v-1a3 3 0 0 1 0-1h1v-1-1a5 5 0 0 1 0-1l-1 1v2l-1 1v1zm0 0" fill="#e95225"/><path d="M33 86h-1a27 27 0 0 0-1 2l12 11 1-2-11-11zm0 0" fill="#f3c337"/><path d="M31 88c-5 5-9 14-9 21l1 1 10 6 4-6a108 108 0 0 0 4-7l2-4-12-11zm-10 23l1 1 4 3-5-4zm0 0" fill="#b29965"/><path d="M43 158a38 38 0 0 1 2-3h-5l-5-1v2l4 1 4 1zm0 0" fill="#eda616"/><path d="M37 46h1v-1h2v-1l-3 2zm6-1v-1-1h-1l-1 1v1h1v-2l1 1-1 1h1zm0 0" fill="#fde38e"/><path d="M33 51v4l1 3 3 1h2v-1-1h-1v1h-1-1v-1h-1l-1-2v-1h1v-1h1l1 1 1 1a9 9 0 0 1 1 2l1 1v1a25 25 0 0 0 2 3l1 1a28 28 0 0 1-2-5 28 28 0 0 1-1-2 56 56 0 0 1-1-2 8 8 0 0 0-3-2 9 9 0 0 0-3-1zm0 0" fill="#f7b47f"/><path d="M43 46zm0 0" fill="#e63a34"/><path d="M40 149l3-8h-1l-3-3-2-2-1-1v2a8 8 0 0 1-1 1 6 6 0 0 1-1 1 9 9 0 0 1 0 1h-1v1a10 10 0 0 1-1 0c1 4 5 7 8 8zm0 0" fill="#e63a2e"/><path d="M39 137a21 21 0 0 1-2-1l2 1zm2 13v-1l1-1v-1a71 71 0 0 1 0-1l1-1v-1-1l1-1v-1l-3 9zm0 0" fill="#e63a2e"/><path d="M35 158v1l3 1 3 1 2-3a29 29 0 0 1-4-1l-4-1-1 3 1-1zm0 0" fill="#916d2e"/><path d="M41 151v-1 1zm-11-9c-1 0 0 0 0 0 3 4 5 8 10 9v-2c-3-1-7-4-8-8h-1v1h-1a8 8 0 0 1-1 0v1h1l2 5 1 1 1 1 1 1 1 1h2l1 1c-5-2-8-6-9-11zm0 0" fill="#ea5640"/><path d="M41 163v-2a34 34 0 0 1-3-1l-3-1v3l3 1h3zm0 0" fill="#eda616"/><path d="M38 170h1a54 54 0 0 1 2 0h-4 1zm3-7a32 32 0 0 1-3 0l-3-1a28 28 0 0 0 1 8l6-2c-1-1-2-3-1-5zm0 0" fill="#916d2e"/><path d="M34 47v0zm-8 14c2 3 8 3 12 3-4 0-10 0-12-3zm6-12zm-7 9a3 3 0 0 1 1 0h-1zm0 0" fill="#e64125"/><path d="M36 172v4l-2-1 1-2 1-1zm-1-1v1l-1 2v4h2l3 1-1-8h-1-1-1zm0 0" fill="#976d4b"/><path d="M38 49h-1-1v-1h-1a1 1 0 0 1 0-1v2h2l1 1v-1zm0 0" fill="#fde38e"/><path d="M37 60v1h-1v-1h-2a4 4 0 0 1 0-1 11 11 0 0 1-1 0 8 8 0 0 1-1-2h-1a7 7 0 0 1 0-2v-1-3c0-1 1-2 3-2h1a2 2 0 0 1-1 0v-1-1 1a73 73 0 0 0-2 1c-3 3-6 5-6 9a3 3 0 0 0-1 0v2h1v1c2 3 8 3 12 3l1-1-1-2v-1a3 3 0 0 1-1 0zm0 0" fill="#9f2826"/><path d="M37 47h-1v-1 2h2v-1h-1zm0 0" fill="#e95225"/><path d="M37 54h-2v2l1 1h1a1 1 0 0 0 1 0l-1-2v-1zm0 0" fill="#f49d59"/><path d="M29 122l-1-1c0 3 5 6 7 8l1-1v-1l-4-3-3-2zm8 5v-1 1zm0 0" fill="#ee7420"/><path d="M28 121v-1a10 10 0 0 0-1 0 54 54 0 0 1-1 2l-1 1a19 19 0 0 1 2 1l1 1 2 2h2v1h1v1h1v1h1v-1c-2-2-7-5-7-8zm0 0" fill="#ea5b23"/><path d="M33 83l2 1a30 30 0 0 1 2-1 27 27 0 0 0-2-1 55 55 0 0 0-2 1zm0 0" fill="#efb336"/><path d="M33 130h1l1 1v-1a5 5 0 0 0-1 0v-1h-1v-1h-1v-1h-1-1a56 56 0 0 0-2-2l-1-1a20 20 0 0 0-2-1 5 5 0 0 1 0 1l2 1 1 1 1 1h1l1 1 1 1 1 1zm0 0" fill="#e9522a"/><path d="M35 84l-2-1-2 2 2 1a63 63 0 0 1 2-2zm0 0" fill="#a98d54"/><path d="M32 86h1l-2-1-2 2 2 1 1-2zm0 0" fill="#efb336"/><path d="M31 120v1a34 34 0 0 0 1 1v-1-1-1l-1-1v2zm0 0" fill="#6b4526"/><path d="M32 122l-1-1h-1l-1-1h-1l-1-1v1h1l9 6v1l1-1h-1l-1-1-4-3zm0 0" fill="#e9522a"/><path d="M29 87l-2 2-7 10-3 5 5 5c0-7 4-16 9-21a24 24 0 0 0-2-1zm-8 24zm0 0" fill="#a98d54"/><path d="M29 127zm-4-3a4 4 0 0 1 0 1h-1v-3c-3 1-7-1-10-3a11 11 0 0 0 3 5c1 1 3 3 5 3 3 1 4 0 6-1l-1-1a34 34 0 0 1-2-1zm0 0" fill="#784b2a"/><path d="M26 122v-1l1-1v-1h1l-1-1v1l-2 2-1 3v1h1v-1-1l1-1zm0 0" fill="#6b4526"/><path d="M9 103a2 2 0 0 0-1-1 4 4 0 0 0-1 0l2 1zm5 4l-1 1-1-1-3-2a7 7 0 0 0-2-1c1 2 5 4 7 5v-1a2 2 0 0 1 0-1zm0 0" fill="#ee7420"/><path d="M7 102l-2 1 2-1zm0 2c-1-1-3 0-3 2v1h1a7 7 0 0 1 1 0 13 13 0 0 1 3 1l1 1 3 2v-1l1-1c-2-1-6-3-7-5zm0 0" fill="#ea5b23"/><path d="M56 30v-7c0-4 4-6 6-9h-1l-5 3-2 3 1 7v1l1 2zm0 0" fill="#ee775a"/><path d="M59 24v-1h-2v2l2 1v-2zm1 4h-1v1l1-1zm4-15l2 1 2 2 1 1 3 2a6 6 0 0 1 1 2v-1l-2-3-3-2a28 28 0 0 0-2-1l-2-1zm0 0" fill="#ee775a"/><path d="M36 132l1-2c0-1 1-2 2-1l4 2 5 4v1l1-1-10-8h-1a4 4 0 0 0-1 1l-2 3v1h1zm10 5l-3 3-3-2-1-1-2-1 2 2 3 3h1a19 19 0 0 0-3 10c-5-1-7-5-10-9 0 0-1 0 0 0a18 18 0 0 0 9 11h2v-2-1l3-9 2-3 1-2v1h-1zm0 0" fill="#f6b69e"/><path d="M42 133l-2-2-1-1-1 1h1v1l2 2 1-1zm2 2a1 1 0 0 0-1-1v1h1zm0 0" fill="#f6b69e"/><path d="M4 106c0-2 2-3 3-2a7 7 0 0 1 2 1l3 2 1 1 1-1-3-3-2-1a6 6 0 0 0-2-1l-2 1-1 1v2zm33 20l-9-6v1l1 1 3 2 4 3a7 7 0 0 1 1 0v-1zm11 15l1-2v-1-1 1l-1 1v2zm0 0" fill="#f3944b"/><path d="M93 177c-1 0 0 1 0 0l7-2c2 0 1-3-1-2l-3 1h-1l-2 3zm9-3h1l-1-1v1zm-49 0l-4 3 1 1 4-1 4-1v-1c-1-2-3-1-5-1zm9 1v-1h-1v1h1zm13 2l1-1-1-1h-1l1 2zm2 0a1 1 0 0 0 0-1v1s0 1 0 0zm-43-2l2 1v-2-1-1l-1 1-1 2zm72-60l3 4c1 2 1 4-1 6-1 2-3-2-4-4l-1-2-1 1 1 1c1 2 2 6 4 6l1-1 2-4-2-5a33 33 0 0 0-2-2zm-9 3v7h-3 2l2-2v-4a5 5 0 0 0-1-1zm-75 9c-2 0-4-2-5-3a11 11 0 0 1-3-5c-1-3-1-6 1-9l-2 6v1a10 10 0 0 0 1 4l4 5 4 2h4l3-1-1-1c-2 1-3 2-6 1zm0 0" fill="#ae8b6c"/><path d="M24 125v-1l1-3 2-2v-1h-1l-2 3v4zm0 0" fill="#ae8b6c"/><path d="M78 180v1l14 2c3 0 7 0 10-2a1 1 0 0 0 1 0h-8l-3-1v1h-2l-12-1zm-27 1h6-6zm0 0M64 182v-1c-4 2-10 1-15 1a61 61 0 0 1-3-1l-7-1h-1c4 3 8 3 13 4 4 0 9 1 13-2zm0 0" fill="#745033"/><path d="M67 82a2 2 0 0 0 2-2 35 35 0 0 1-2-2h-2l1 4h1zm2 9a2 2 0 0 0 2-2l-2-2a2 2 0 0 0-2 1l1 2 1 1zm2 13a2 2 0 0 0 2-2l-2-2h-1a2 2 0 0 0-1 2v1a2 2 0 0 0 2 1zm1 9a2 2 0 0 0-1 0l-2 2 2 2h2a2 2 0 0 0-1-4zm0 0" fill="#866d37"/><path d="M54 2l7 4c-1-3-5-5-9-5l-9 2 11-1zm0 0" fill="#f7ae63"/><path d="M22 51a44 44 0 0 1 3-3c3-6 4-14 6-21 2-9 8-21 19-22V4l-5 1c-7 3-11 8-14 14l-2 6-1 8-1 4v2l-3 9-2 3zm58-29l1 3c1 3 3 6 5 7a33 33 0 0 1 3 1 17 17 0 0 1-2-2c-3-2-4-6-5-9v-1A33 33 0 0 0 70 7l-8-3 5 2c5 4 10 10 13 16zm0 0" fill="#f7ae63"/><path d="M44 19c1-3 2-6 5-8v-1h-1c-3 1-5 5-6 8a1 1 0 0 0-1 1c0 1 2 2 3 0zm-2 4h-1a2 2 0 0 0-1 1c0 2 2 2 2 1v-1a2 2 0 0 0 0-1zm0 0" fill="#f7ae63"/><path d="M56 37c8-2 15-1 23-2v-1a77 77 0 0 0-42 8l19-5zm14-5l-5 1a62 62 0 0 1 9-1h-1a38 38 0 0 0-3 0zm14 3h-3v1l3 1v-2zm3 1v1s1 0 0 0c1 1 2 0 1-1h-1zM20 64c1 3 3 4 6 4h3v-1c-2-1-5-1-6-3l-1-1v-2l2-7s0-1 0 0h-1c-2 3-4 6-3 10zm13 3h1v-1h-1a1 1 0 0 0 0 1zm0 0" fill="#ec663d"/><path d="M72 54a1 1 0 0 0 0-1h-1-1l1 1h1zm-3 0v0zm2-2a7 7 0 0 0 0-2h-1v2a2 2 0 0 1 1 0zm-1 0h0zm-2 10h0zm0-1c-4 0-7 0-10-4 3 4 6 6 10 4zm-10-9h-2v1h1c1 1 2 0 1-1zm-4-1v1h1v-1h-1zm22 2h1v-1l-1 1zm3-1zm0 0v-1h-1v1h1zm0 0M68 69c4-1 8-3 10-7 3-3 4-7 5-11-2 6-4 11-9 15-5 3-12 3-17 3h11zM37 59l-3-1-1-3v-4l4-1-2-1h-1a6 6 0 0 0-1 1 5 5 0 0 0-1 2v3c0 2 1 3 3 4h2zm49-6h1v-2a4 4 0 0 0 0-2l-1-2-1-1v2l1 1v4zm0 0" fill="#fcdfc6"/><path d="M63 71l-6-1c-4-1-8-5-10-8v-1a31 31 0 0 1-4-11v-1-1-1-1h-1-2-1l-1 1h4c0 5 2 12 5 16 1 3 4 5 7 7a34 34 0 0 0 9 1zm21-26v3c0 1 0 1 0 0l1-5-1 2zm0 0" fill="#9f7756"/><path d="M58 78l-1 3-6-5-3-3c-1-1-2-2-1-3h1v-1a9 9 0 0 0-2 2c-2 2 1 3 2 4l6 6 3 2 1-1 2-4 1-2-3 2zm18-7v1l1 1-2 2-4 3-6-5v1l4 5a29 29 0 0 0 2 2l1-1 7-7-3-3v1zM23 91a28 28 0 0 0-2 2 168 168 0 0 1 3-3l-1 1zm25-3a148 148 0 0 1-2 4l-1 2-1 3-1 2-2 4-4 7-4 6-10-6a405 405 0 0 1-6-6l3-5 7-10 2-2 2-2 2-2 2-1c3-3 7-6 10-5a5 5 0 0 1 2 0c-2-1-3-2-5-1h-1l-2 1-6 5a62 62 0 0 0-7 7l-7 8-5 7h1l2 3 4 4 5 4 3 2 4 1h1l5-11h1v-1l1-1 3-6 4-8v-3zm16-13l-1-2 1 2zm1 10a133 133 0 0 0 1 9v3a63 63 0 0 1 1 3v25l-15 2a135 135 0 0 1-9 1h26v-2l-1-9a60 60 0 0 1 0-2v-15a152 152 0 0 0-3-15zm-2-12v-1 1zm-24 53v-6-9l-2 15h2zm52 2l2-1v-1l-3-15-2-9-1-2a61 61 0 0 1-1-3v-1-1 2l1 3v1l2 11 2 11v2l-9 1-3 1h-8a10 10 0 0 0 1 1h19zm4-37l8 17 1 3-4 2c-2 2-5 2-7 3h-1v1h1l1-1c4 0 9-2 13-5l-1-1v-1l-1-1-3-6-6-12a80 80 0 0 0-3-3l1 1 1 3zm1-2a39 39 0 0 0-4-5l4 5zm0 0" fill="#cfbf9e"/><path d="M69 136c0 6-3 11-4 17l-1 4-1 2-1 3v3l-1 4c-4-2-8-1-13-1h-6l-6 2a28 28 0 0 1-1-11v-1l-1 1v11h2a96 96 0 0 0 5 0 198 198 0 0 1 17-1l4 2v-2l2-6a179 179 0 0 0 5-27zm-34 35zm60-16v3l1 3a98 98 0 0 1 0 6l-13 1c-2 1-7 2-9 4l-3-7-1-3v1l2 10h1l2-1a27 27 0 0 1 2 0l7-2 14-1-1-1v-8a290 290 0 0 0-2-11l-3-15 3 18v3zm0 0" fill="#bca271"/><path d="M63 40h4-3l-4-1 3 1zm5-2h-4c-1 0-1 0 0 0a92 92 0 0 0 5 1c3 0 7 0 10 2v-1h-1l-5-2h-5zm4-1c-1 0-1 0 0 0l3 1 3 1a8 8 0 0 0-1-1h-1l-4-1zm5 0l6 3 4 1h1l-1-1-3-1a6 6 0 0 1-2 0l-2-2h-3zM45 50l2-5v-1a3 3 0 0 0 0-1l-1-1v1l-1 1v1a5 5 0 0 1 0 1 4 4 0 0 0 0 2l1-3v-1l-1 4-1 3 1 2v-3zm-2-6l-1-1v2l1-1zm-2 0a1 1 0 0 0-1 0v1h1v-1zm2 20v1l-3-4h-1l1 2 2 2v1h1l2 2h1l-1-2 1 1a18 18 0 0 1-1-1l-2-2zm0 0" fill="#fff6de"/><path d="M64 42a9 9 0 0 0-2-1 21 21 0 0 1-2 0c-1-1-3 0-4 1l-2 2h1l2-2h7zm8-1l1 1 2-1h3l-3-1-3 1zm0 0" fill="#b34528"/><path d="M30 127h-1l-3 1h-4l-4-2-4-5a10 10 0 0 1-1-4v-1-2-1-1a19 19 0 0 1 2-3 41 41 0 0 1 1-2v-1h-1v1l-1 1v1l-1 1v2a7 7 0 0 0-1 1v1a16 16 0 0 0 0 2v4l1 1a15 15 0 0 0 0 1l1 2a18 18 0 0 0 8 5l1 1h2l5-3zm0 0" fill="#6b4526"/><path d="M13 111l-3-2-1-1a11 11 0 0 1-1 0l-2-1a7 7 0 0 0-1 0H4v-1-2l1-1 2-1a4 4 0 0 1 2 1l2 1 3 3v1l1-1-1-1h-1v-1h-1a3 3 0 0 0-1-1l-1-1a16 16 0 0 0-1-1l-2-1H6 5a5 5 0 0 0 0 1 5 5 0 0 0-1 1 7 7 0 0 0-1 3v1h3l7 4zm0 0" fill="#e9522a"/><path d="M74 29v-1l-1-9v-2l-3-2-7-4h-1v1h-1l-1 1h-1l-1 2h-1l-4 4c-1 3 0 5 1 7v5l1 2h1l-1-2v-1a5 5 0 0 0 0-1 126 126 0 0 0 0-1v-1l-1-7 2-3h1l1-1 2-2 2-2h1a36 36 0 0 1 3 2l2 1 3 2 2 3v1l1 9v-1zm0 0" fill="#be282f"/><path d="M34 47v2h1v-1-1h-1zm11 7l1-1v-1-2-1l1-1v-3h1v-1-1-1l-1-1v4l-2 5v3a37 37 0 0 0 1 3v-2h-1zm0 0" fill="#f9b33b"/><path d="M27 39v-2l2-10v-1-1l2-6c3-6 7-11 14-14l5-1 5 1h1l3 1 1 1 2 2h1a8 8 0 0 0-1-2V6a9 9 0 0 0-1-1V4l-1-1a92 92 0 0 1 2 1l8 3a32 32 0 0 1 12 14v1l5 9 2 2a3 3 0 0 0-1 0 33 33 0 0 0-2-1 76 76 0 0 0-3 0l-2-1h-1-1-3-1-9a61 61 0 0 0-4 0l-2 1h-1-2l-1 1h-3l-3 1a82 82 0 0 0-3 1h-2v1h-1l-2 1h-1a58 58 0 0 0-5 3h-1l-2 1-2 2h-1l-2 2-1 1h-1l-1 2a44 44 0 0 0-3 3l2-3 3-9zM43 4a1 1 0 0 1 0-1l9-2c4 0 8 2 9 5v1a2 2 0 0 0 0-1h-1-1V5l-9-1h-1l-8 2 1-1 1-1zm50 32l-8-2a4 4 0 0 0-1 0 67 67 0 0 0-11-2h1a62 62 0 0 0-9 1 50 50 0 0 1 5-1h-1a82 82 0 0 0-37 12l-7 5a41 41 0 0 0-4 7l-1 1-1 1v1c0-2 1-4 3-5v-1l5-6 2-2h1c5-5 13-8 20-10a115 115 0 0 1 6-1l3-1h1l1-1h2a103 103 0 0 1 3 0h3a118 118 0 0 1 5 0h7a38 38 0 0 1 1 0l2 1 9 3zM42 67h-3l-1 1-7 1a30 30 0 0 1-5 0h-2-1c-8-1-3-11 0-15l1-1 1-1v-1l1-1a2 2 0 0 1 1 0l1-2 1-1h1l1-1a26 26 0 0 1 3-2 39 39 0 0 1 2-1v-1h1l14-5a77 77 0 0 1 31-3h2l1 1 6 1c3 1 4 3 3 5l-3 5-3 2v1l5-4c1-2 3-4 2-7a3 3 0 0 0 0-1 3 3 0 0 0-1-1v-1h-1l-3-2c-3-3-6-7-8-12l-3-6v-1a41 41 0 0 0-2-2l-1-1-1-1-1-1a3 3 0 0 0-1-1l-1-1h-1a25 25 0 0 0-3-2l-1-1a19 19 0 0 0-4-1h-1a8 8 0 0 0-1 0h-2a10 10 0 0 0-2-2h-1a3 3 0 0 0-1 0V0h-5a7 7 0 0 0-1 0h-1l-1 1h-1-1l-1 1h-1v1a13 13 0 0 0-4 4l-5 5v1h-1l-6 15v5h-1v7l-1 1v3l-1 1-5 11-1 2v1l-1 1v5a5 5 0 0 0 2 4h1l1 1h9l11-2h1v-1zm0 0" fill="#e63a34"/><path d="M48 68l-1-1-1 1h-2a1 1 0 0 1 0-1h-1v-1h-1v-1l-2-2-1-1v-1a4 4 0 0 1 0-1h-1v1l1 2 1 1v1l1 1 1 1v1h1v1h4l1-1zm0 0" fill="#f9b33b"/><path d="M38 57a1 1 0 0 1-1 0h-1a2 2 0 0 1-1-1v-2h2v1l1 2zm0-7l-1-1a5 5 0 0 0-1 0 3 3 0 0 0-1 0h-1c-2 0-3 1-3 2l-1 3 1 1v2h1a8 8 0 0 0 1 2h1v1h2v1h1v-1h2v-1 1h1v1l1 1 1 1h1v1h1v1h1a24 24 0 0 1-2-2 15 15 0 0 1-1-1 25 25 0 0 1-2-3v-1l-1-1a9 9 0 0 0-1-2l-1-1-1-1h-1a2 2 0 0 0-1 1v1l1 2h1v1h2v-1h1v2h-1-3c-2-1-3-2-3-4v-3-1l1-1a2 2 0 0 1 1-1h1a5 5 0 0 1 3 1v0zm0 0" fill="#b34528"/><path d="M44 47h1v-1-1-1-1-1h2v-1a120 120 0 0 1 8-2 45 45 0 0 1 2 0 109 109 0 0 1 15-2 36 36 0 0 1 2 0h6l3 2v-1l3 1-6-2-6-1a66 66 0 0 0-17 2h-1l-1 1a66 66 0 0 0-20 7h-1l-1 1a43 43 0 0 0-4 4c-2 2-4 4-4 6a9 9 0 0 0-1 2c1 6 11 6 15 5h1l-1-1-1 1c-4 0-10 0-12-3a3 3 0 0 1 0-1h-1a3 3 0 0 1 0-1v-1h1c0-4 3-6 6-9a73 73 0 0 1 2-1v-1h1a1 1 0 0 0 0 1h1v1h2a5 5 0 0 1 0-1h-2a2 2 0 0 1 0-1v-1 1h1v-1a39 39 0 0 1 3-2 1 1 0 0 1 1 0l1-1h1v3l1-1v-1-1l1-1v3h-1a3 3 0 0 0 0 1v1h-1l1 1a1 1 0 0 0 0-1zm0 0M43 48v-1 1zm0 0" fill="#e63a34"/><path d="M83 48v-1 1zm0-5v4h1v-2a22 22 0 0 0 0-2v-1a2 2 0 0 1-1 0v1zm0 0" fill="#6b4526"/><path d="M85 43h2a2 2 0 0 0 0-1h-1l-1 1zm0 0" fill="#e63a34"/><path d="M81 61a12 12 0 0 0 0-2 33 33 0 0 1 1-1 6 6 0 0 0 0-1l1-2v-1-1-1-2-2-3-1-1-1h-1a27 27 0 0 0 0-1v1a36 36 0 0 1 1 2v7c-1 4-2 8-5 11-2 4-6 6-10 7H57v1c1 0 0 0 0 0l6 1 5-1h1a68 68 0 0 1 3-1l5-4 3-3v-1h1zm4-8v-1h1v-1l-1-1v-1 3l-1 1h1zm0 0" fill="#b34528"/><path d="M85 42h1l-1-1v1a1 1 0 0 1-1 0l-1-1v1h2zm0 0" fill="#e63a34"/><path d="M48 140v-1-1h1v-1 2l-1 2h-1l1-1zm0 1l2-3v-1a2 2 0 0 0-1 0h-1v1h-1v2l1 1zm0 0" fill="#e9522a"/><path d="M60 171h-1 1zm0 0" fill="#86673a"/><path d="M73 54l-1 2h-1-1-1v1c2 1 4-1 5-3v-1a4 4 0 0 0-1 0v-1a1 1 0 0 0-1 0h-1-1 1a2 2 0 0 1 1 0l1 1v1zm-16 4v-1h1v1l1 1v1h1l1 1h1v1h7v-1h1v1a1 1 0 0 0 0 1v-1h0v-1-1 1h-1a1 1 0 0 1-1 0c-4 2-7 0-10-4v-1-1l-1 1v1h-1a1 1 0 0 0 1 1zm4-13l1 2c1 1 1 4-1 4a2 2 0 0 1 0 1h-1l-1-1h-1v-1-1a9 9 0 0 1-1-1l1-2v-1l3-1v1zm-2-1l-2 2a7 7 0 0 0 0 1v2a6 6 0 0 0 1 2v1h3c2 0 3-4 2-5a6 6 0 0 0-1-2v-1a1 1 0 0 0-1 0h-2zm0 0" fill="#b34528"/><path d="M63 43a2 2 0 0 0-1 0h-1a3 3 0 0 0-1 0h-1l-2 2a11 11 0 0 0 0 2v-1l2-2h3l1-1zm0 0" fill="#6f2523"/><path d="M76 44l1 2c1 2 1 4-1 5a2 2 0 0 1-1 0 2 2 0 0 1-1 0 1 1 0 0 1 0-1 3 3 0 0 1-1 0 5 5 0 0 1 0-1l-1-1v-1l1-1v-1-1l2-1 1 1zm-2-1l-2 2a5 5 0 0 0 0 1 8 8 0 0 0 0 1v3h1v1h1l1 1h1c2-1 3-4 2-6a6 6 0 0 0-1-2l-1-1h-2zm0 0" fill="#b34528"/><path d="M78 43l-1-1a3 3 0 0 0-1 0 4 4 0 0 0-1 0h-1v1h-1v1a5 5 0 0 0-1 0v1l2-2h4zm0 0" fill="#6f2523"/><path d="M50 136l1 1v1a5 5 0 0 1 0 1h-1v1a4 4 0 0 1 0 1l-1 1a10 10 0 0 1 0 1l-2 1-1 2-3 5h-1v1c1-5 4-17 8-16zm-15 16a14 14 0 0 0 3 1l1 1h3l1-2 6-8v-1h1v-1-1h1v-1-1-1-1-1l-1-1v-1h-1a6 6 0 0 0 0-1h-1v-1a10 10 0 0 0-1 0v-1h-1l-1-1a7 7 0 0 0-1-1l-2-1-1-1h-2a1 1 0 0 0 0-1h-1l-1 1a7 7 0 0 0-1 0v1l-1 1v2l2-3 1-1h1l10 8a3 3 0 0 0-1 1h-1l-1 2-1 1v1l-1 2a94 94 0 0 0-1 1v2l-1 1a71 71 0 0 0 0 1v1l-1 1v2a41 41 0 0 0 0 2 12 12 0 0 1-2 0l-1-1a10 10 0 0 1-1 0h-1a10 10 0 0 1-1-1 15 15 0 0 1-1-1 17 17 0 0 1-1-1l-1-1-2-5h-1v-1a8 8 0 0 0 1 0h1v-1h2v-1h1v-1h1v-1a8 8 0 0 0 1-1v-1l1-1a6 6 0 0 0-1-2v0a1 1 0 0 0-1 0v-1l-2-1v-1l-1-1v2l2 2a5 5 0 0 1 1 1l1 1-1 2-1 1a8 8 0 0 1 0 1l-3 1v1h-1l-1 1v2l4 5v1l1 1h1v1zm0 0" fill="#e42127"/><path d="M61 186H51h-1l-8-1a73 73 0 0 1-2 0h-2l-1-1h-2-1v-1-1-1a8 8 0 0 1-1-1v-2l1 1h2l1 1h1a20 20 0 0 0 1 0h3a136 136 0 0 0 7 2c5 0 11 1 15-1h1v5h-4zm1-15a9 9 0 0 0-2 0l-7-1-5 1-2 1a25 25 0 0 0-2 1h1c4-2 8-3 12-2h3l1 1 1 1a6 6 0 0 1 2 2l1 4-1 1-10 1h3a47 47 0 0 1-6 0h-1l-7-2h-1a14 14 0 0 0-1 0h-1a1 1 0 0 0-1 0l-3-1h-2v-4l1-2v-1h-1a10 10 0 0 0 0 1h-1v5a1 1 0 0 1 0 1v4l1 3h3l1 1h3l11 1h13v-1h1a5 5 0 0 0 0-1v-1-2-1-1-1a2 2 0 0 1 0-1c0-2-1-5-3-6l-1-1zm0 0" fill="#694226"/><path d="M157 181zm0 0" fill="#2b2a29"/><path d="M157 181zm0 0M157 181zm0 0" fill="#c72627"/><path d="M157 181zm0 0" fill="#2b2a29"/><path d="M154 150l1 1v4l2 12v14h-1l-3-12-9-11-4-2-4-2a131 131 0 0 0 0-6l11 1 7 1zm0 0" fill="#bd2828"/><path d="M157 181zm-2-30c1 0 2-2 1-3v-1l1 2c0 1 0 2-2 2zm0 0M156 147h-1 1zm0 0M156 147h-1v-1l1 1a1 1 0 0 0-1 0h1zm-1 4c0 1 0 0 0 0zm0 0M155 146v1l-36-11zm1 36v-1h1l-1 1zm-1-31s0 1 0 0l1 5 1 11 1 5-1 9v-10-4l-2-12v-4zm0 0" fill="#c72627"/><path d="M155 147l-8 1-4-1-5-2a150 150 0 0 1-17-4h-1l-1-5zm0 0" fill="#e22229"/><path d="M154 150s1 1 0 0zm0 0" fill="#c72627"/><path d="M156 181h-2c0-3-1-9-5-9l-4 1c-3 2-5 6-5 10l-3 1v-18l-1-12 4 2 4 2 9 11 3 12zm0 0" fill="#cc2627"/><path d="M154 182v-1 1zm0 0M154 181v0zm0 0M154 182v-1 1zm0 0M154 182v-1h2v1a5 5 0 0 0-2 0zm0 0M154 182v-1 1zm0 0" fill="#c72627"/><path d="M153 181h1v1h-1v-1zm0 0" fill="#6d2722"/><path d="M152 177l-3-3 3 2 2 5h-1v1l-1-5zm0 0M149 192c2-1 4-4 4-9v-1h1v1c0 5-2 9-5 9zm0-18h-2 2zm0 0" fill="#6d2722"/><path d="M149 185l-1-2 1-3 1 3-1 2zm0 0" fill="#f9b33b"/><path d="M146 183c0 3 1 5 3 5 1 0 3-2 3-5s-2-6-3-6c-2 0-3 3-3 6zm2 9l-3-3-1-6c0-5 2-9 4-9h1l3 3a13 13 0 0 1 1 6c0 5-2 8-4 9a2 2 0 0 1-1 0zm0 0" fill="#a73527"/><path d="M149 185l-2-2c0-2 1-3 2-3l1 3-1 2zm0-5l-1 3 1 2 1-2-1-3zm0 0" fill="#f3931a"/><path d="M149 149l-13-2h-3l-4-2-4-1a43 43 0 0 0-6-1l1-2h1l6 1c3 2 7 3 11 3l5 2 4 1 8-1h1v1c1 1 0 3-1 3v-1l-6-1zm0 0" fill="#bc2828"/><path d="M146 183c0-3 1-5 3-6l2 6c0 3-1 5-2 5-2 0-3-2-3-5zm1 0l2 2 1-2-1-3c-1 0-2 1-2 3zm0 0" fill="#e33527"/><path d="M147 174h-2l1-1 3 1a2 2 0 0 0-1 0h-1zm0 0" fill="#6d2722"/><path d="M149 174l-3-1a6 6 0 0 1 3 0c4 0 4 5 5 8l-2-5-3-2zm0 0" fill="#7a2622"/><path d="M147 192h2-1-1zm-1-9c0-3 1-6 3-6 1 0 3 3 3 6s-2 5-3 5c-2 0-3-2-3-5zm3-6c-2 1-3 3-3 6s1 5 3 5c1 0 2-2 2-5l-2-6zm0 0" fill="#6d2722"/><path d="M145 173h1a9 9 0 0 0-1 1zm0 0" fill="#c72627"/><path d="M145 173l4-1c4 0 5 6 5 9-1-3-1-8-5-8a6 6 0 0 0-3 0h-1zm0 0" fill="#c72627"/><path d="M143 185v-2c0-5 2-8 4-9h2a2 2 0 0 0-1 0c-2 0-4 4-4 9l1 6 3 3h-1l-2-2-2-5zm0 0" fill="#6d2722"/><path d="M139 185h4l2 5 2 2a45 45 0 0 1-2 0h-1c-2 0-4-3-5-7zm0 0" fill="#ae4630"/><path d="M143 185h-4v-1a23 23 0 0 0 2-1c0-2 0-5 2-7l2-2h2c-2 1-4 4-4 9v2zm0 0" fill="#a83929"/><path d="M144 192c-3 0-5-3-5-7 1 4 3 7 5 7h5l-1 1-3-1h-1zm0 0" fill="#6d2722"/><path d="M141 183h-1c0-4 2-8 5-10v1l-2 2c-2 2-2 5-2 7zm0 0M140 183h0zm0 0" fill="#c72627"/><path d="M139 184v1a11 11 0 0 1 0-1zm0 0" fill="#6d2722"/><path d="M139 184zm0 0M137 184l3-1h1a23 23 0 0 1-2 1h-2zm0 0" fill="#c72627"/><path d="M136 148v6a7 7 0 0 0 0-1 122 122 0 0 1 0-5zm0 0" fill="#7489a3"/><path d="M136 148a34 34 0 0 1 0-1l13 2 6 1v1l-1-1c1 0 0 0 0 0l-7-1-11-1zm0 0" fill="#c72627"/><path d="M137 176l-1-8v-2-3a462 462 0 0 1 0-9l1 12v10zm0 0" fill="#7489a3"/><path d="M136 148v-1 1zm0 0" fill="#c72627"/><path d="M137 184zm0 0" fill="#7489a3"/><path d="M135 152v-1-2-1h1v5a9 9 0 0 0-1 0v-1zm0 0M135 160l1-1a1 1 0 0 0-1 0v-2-1-1-2h1v10a1 1 0 0 0-1 0v-2-1zm0 4l1-1v2l-1-1zm0 0M135 168h1l1 8h-1a1 1 0 0 0 0-1v-1-2-1a35 35 0 0 0 0-2l-1-1zm0 0" fill="#a3aebf"/><path d="M137 184zm0 0" fill="#c72627"/><path d="M136 181v-1a38 38 0 0 0 0-2v-1-1h1v8h-1v-2-1zm-2-30a36 36 0 0 1 0-2v-1h1v3h-1zm0 0" fill="#a3aebf"/><path d="M135 155v-2 2zm0 0M135 153v-1 1zm0 6v-2-1 3zm0 4v-2-1 3zm0 0" fill="#7489a3"/><path d="M135 148h-1a1 1 0 0 1 1-1v1zm0 0" fill="#c72627"/><path d="M135 152zm0 15a42 42 0 0 1 0-2v-1l1 1v2a3 3 0 0 0-1 0zm0-11zm0 15v-2-1l1 1v2a2 2 0 0 0-1 0zm0-11zm0 0" fill="#7489a3"/><path d="M136 184zm0 0" fill="#c72627"/><path d="M135 175v-1-2h1v3a2 2 0 0 0-1 0zm0-11zm0 16v-2l1-1v3a1 1 0 0 0-1 0zm0-17zm0 4zm0 1zm1 15v-2 2zm0 0M136 172h-1 1zm0 5v-1 1zm-1-26h-1 1zm1 25h-1 1zm0 5zm-1-26zm0 0" fill="#7489a3"/><path d="M131 155v-3l4 1v2h-3-1zm0 0" fill="#cc2627"/><path d="M135 159zm0 4zm0 4h0zm0 4h0zm0 0" fill="#7489a3"/><path d="M132 168h3v3h-1-2v-3zm0 0" fill="#cc2627"/><path d="M135 176v-1h1v1h-1zm0 0" fill="#7489a3"/><path d="M132 173l3-1v3h-1-1-1v-2zm0 0" fill="#cc2627"/><path d="M135 180h0zm0 0" fill="#7489a3"/><path d="M132 177h4l-1 1v2h-1-1-1v-3zm0 0" fill="#cc2627"/><path d="M133 151h-1-1a60 60 0 0 0 0-4l3 1v3h-1zm0 0" fill="#bd2828"/><path d="M133 148a33 33 0 0 0-1-1h1v1zm0 0" fill="#c72627"/><path d="M135 160h-3 2c1 0 2 0 1-1h1l-1 1zm-3 12h4l-1-1h1v1h-1l-3 1v-1zm0 0" fill="#7489a3"/><path d="M132 181h4v3h-4v-3zm0 0" fill="#cc2627"/><path d="M131 156h4v-1 1h-4zm1 8h3l1-1a1 1 0 0 0-1 0h1l-1 1h-3zm0 4h3l1-1h-1 1v1h-4zm0 0" fill="#7489a3"/><path d="M134 185h-2v-1h5l-3 1zm0 0" fill="#c72627"/><path d="M134 156h-3v-1h4v1h-1zm0 0" fill="#a3aebf"/><path d="M131 152h4v1a15 15 0 0 0-4-1zm0 0" fill="#bd2828"/><path d="M132 159l-1-3h4v3h-3zm0 0" fill="#cc2627"/><path d="M134 152a19 19 0 0 1-3 0v-1h1a20 20 0 0 1 2 0h1l-1 1zm-2 7h3c1 1 0 1-1 1h-2v-1zm0 0" fill="#a3aebf"/><path d="M131 152a19 19 0 0 0 3 0l1-1v1h-4zm1 7h0zm-1-4h1a225 225 0 0 0 2 0h-2-1zm0 0" fill="#7489a3"/><path d="M132 163v-3h3v3h-3zm0 0" fill="#cc2627"/><path d="M131 151h4-1a20 20 0 0 0-2 0h-1zm2 12h-1 3-2zm0 0" fill="#7489a3"/><path d="M133 167h-1v-1-2h3v3h-3zm0 0" fill="#cc2627"/><path d="M135 168h-3v-1h4l-1 1zm-3 4v-1h3l1 1h-4zm0 0" fill="#a3aebf"/><path d="M131 155zm0 0" fill="#7489a3"/><path d="M135 164h-3v-1a20 20 0 0 1 3 0h1l-1 1zm-3 12h1a17 17 0 0 1 2 0h0-3zm0 4h4l-1 1h-3v-1zm0 0" fill="#a3aebf"/><path d="M132 164c-1 0-1 0 0 0zm0 3h3-3zm0 4h3-2-1zm0 9h4-3-1zm0 0M132 167zm-1-4h0zm0-11zm0 4zm0 4h1-1zm1 8c-1 0 0 0 0 0zm0 9v-1h4v-1a1 1 0 0 1 0 1v1h-4zm0-6zm0 0" fill="#7489a3"/><path d="M133 176h-1v-1h3v1h-2zm0 0" fill="#7489a3"/><path d="M131 147zm0 0" fill="#c72627"/><path d="M132 175v0zm0 6h3l1-1v1h-4zm-1-30zm0 8h0zm1 14v-1 1zm0 4v-1 1zm0 0M131 152v-5 5zm1 29zm0 0" fill="#7489a3"/><path d="M130 152v-5h1v5a8 8 0 0 0-1 0zm0 0" fill="#a3aebf"/><path d="M132 180zm0 0M132 184l-1-18v-14 4l1 3h-1 1v1h-1 1v3h-1 1v1c-1 0-1 0 0 0v4s-1 0 0 0v16zm0 0" fill="#7489a3"/><path d="M132 185v-1 1zm0 0" fill="#c72627"/><path d="M131 184v-18l-1-14h1v14a1198 1198 0 0 0 0 18zm0 0" fill="#a3aebf"/><path d="M129 152v-5h1v5h-1zm0 0" fill="#7489a3"/><path d="M129 147h0zm0 0" fill="#c72627"/><path d="M130 166l-1-14h1l1 14v18l-1-18zm0 0" fill="#7489a3"/><path d="M129 147v5h-1v-5h1zm0 0" fill="#bd2828"/><path d="M131 185v-1 1zm0 0" fill="#c72627"/><path d="M130 166a1532 1532 0 0 0-1 19l-1-19v-14h1l1 14zm0 0" fill="#cc2627"/><path d="M128 147a326 326 0 0 1 5 0h3v1h-1v-1a1 1 0 0 0-1 1l-3-1h-1-1-1zm0-1v1l-1-1h1zm0 0" fill="#c72627"/><path d="M128 147h-1v-1l1 1zm0 0M127 152v-5h1v5h-1zm0 0M128 166l-1-14h1v14l1 19-1-19zm0 0M129 185zm0 0h-1zm0 0" fill="#c72627"/><path d="M127 185v-6l-1-26v-1h1l1 14 1 19h-2zm0 0" fill="#e42127"/><path d="M127 179v0zm0 6zm0 0M127 185zm0 0M127 185h2l2-1v1-1h1v1a47 47 0 0 1-3 0h-1-1zm0 0M127 185zm0-5v-1 1zm0 0M127 185v-5-1-3 9zm0 0M127 180zm0-1v0zm0 6v-5 5zm0 0" fill="#c72627"/><path d="M120 145v-1a47 47 0 0 1 9 2l3 1h-4v-1h-1-7v-1zm0 0" fill="#b02827"/><path d="M124 177l-4-1 4-2c2 1 2 3 3 5l-3-2zm0 0" fill="#7a2622"/><path d="M125 174l1 2-1-2zm-1-9h0zm0 0" fill="#c72627"/><path d="M114 153h5a59 59 0 0 1 4 1h1v11h-1c1-2 0-6-2-8-1-1-5-3-7-2v-2zm0 0" fill="#d3e1f4"/><path d="M123 165h1a19 19 0 0 1-1 1zm0 0" fill="#c72627"/><path d="M124 177l3 2v1l-3-3zm0 18h-1c3-1 5-4 5-9v-1h1v1c-1 5-3 9-5 10v-1zm0 0M124 177h-2a4 4 0 0 1 2 0zm0 0" fill="#6d2722"/><path d="M123 188l-1-2 1-2h1v2l-1 2zm0 0" fill="#f9b33b"/><path d="M123 196l-2-1h3v1a3 3 0 0 1-1 0zm0 0" fill="#6d2722"/><path d="M119 136l1 5h-2v-1a5 5 0 0 0 0-1l-1-4zm0 0" fill="#e22229"/><path d="M122 186l1-3h1l1 3-2 2h-1v-2zm1-2l-1 2 1 2 1-2v-2h-1zm0 0" fill="#f3931a"/><path d="M120 186c0-3 2-5 3-5h2l1 5c0 3-1 5-3 5h-1l-2-5zm2 0v2h1l2-2-1-3h-1l-1 3zm0 0" fill="#e33527"/><path d="M120 146h-1 1zm0 0M127 147l-7-1h7v1zm-8-4l1 1h-1v-1zm0 0" fill="#c72627"/><path d="M120 141l-1 2a58 58 0 0 0-3 0l2-3v1h2zm0 0" fill="#e22229"/><path d="M119 146v-1-1h1v2a6 6 0 0 0-1 0zm0 0" fill="#c72627"/><path d="M97 144l3-1h5a119 119 0 0 1 14 1v2H98l-1-2zm0 0" fill="#cc2627"/><path d="M120 164c1-2-1-4-2-6h3v5l-1 1zm0 0" fill="#e43d25"/><path d="M112 163v-2-11l4 1h6a28 28 0 0 1 4 1l1 24h-1c0-3-3-4-6-3v-4l-1-3v-1a58 58 0 0 0 5 0h1v-6l-1-4v-1l-1-1a54 54 0 0 0-3 0 62 62 0 0 0-4 0h-2v4l-1 5v1zm0 0" fill="#d32326"/><path d="M120 177v-1l4 1a4 4 0 0 0-2 0h-2zm0 0" fill="#6d2722"/><path d="M120 174v-1c3-1 6 0 6 3l-1-2a3 3 0 0 0-1-1l-4 1zm0 2a5 5 0 0 0 0 1v-1zm0 0" fill="#c72627"/><path d="M120 186c0-3 1-6 3-6l2 1 1 5c0 3-1 5-3 6l-1-1-2-5zm3-5c-1 0-3 2-3 5l2 5h1c2 0 3-2 3-5l-1-5h-2zm0 0" fill="#6d2722"/><path d="M120 174v-1 1zm-1-16h-1 3l1 3-1 3h-2 1l1-1v-2-3h-3zm0 0" fill="#c72627"/><path d="M122 177l-3 2a11 11 0 0 1 1-2h2zm0 0" fill="#a83929"/><path d="M117 135a3 3 0 0 0-1 0l3 1zm0 0" fill="#c72627"/><path d="M117 190l3 4 1 1h-3c-2 0-4-2-5-5h4zm0 0" fill="#ae4630"/><path d="M118 140l-2 3h-1l3-3zm0 0" fill="#c72627"/><path d="M120 194l-3-4h1l2 4 3 1h-2a6 6 0 0 1-1-1zm0 0" fill="#6d2722"/><path d="M115 136c1 0 2 1 2 3l-2 2c-2 0-3-1-2-2 0-2 1-3 2-3zm0 0" fill="#e22229"/><path d="M118 181l1-2 3-2h2a4 4 0 0 0-1 0c-2 0-4 2-5 4zm0 0" fill="#6d2722"/><path d="M116 135h1l1 4a5 5 0 0 1 0 1v-1l-2-4zm0 0h-1 1zm2 47l1-3-1 2v1zm0 4v-1 1zm0 0zm-2-51l-1-1 1 1zm0 0" fill="#c72627"/><path d="M118 186v-1 1zm0-4l1-5c1-1 3-4 5-3h1l1 2h1v3l-2-5-5 2v1l-1 1v1l-1 3zm0 0" fill="#c72627"/><path d="M118 190v-4-1-4c1-2 3-4 5-4h1l3 3v5h1v1c0 5-2 8-5 9l-3-1-2-4zm4 1l1 1c2-1 3-3 3-6l-1-5-2-1c-2 0-3 3-3 6l2 5zm0 0" fill="#a73527"/><path d="M115 135v-1l1 1h1-1a3 3 0 0 0-1 0zm3 50a15 15 0 0 1 0-3v-1a17 17 0 0 0 0 4zm0 1zm0 0M118 186zm-1 0l1-1v1zm0 0" fill="#c72627"/><path d="M117 186h1v4a3 3 0 0 0-1 0 16 16 0 0 1 0-4zm0 0" fill="#6d2722"/><path d="M119 164l-3-1 3 1h0zm-3-1zm1 23h0zm0 0M117 186zm0 0" fill="#c72627"/><path d="M116 187l1-1v4h-4v-1l3-2zm0 0" fill="#a83929"/><path d="M114 143h0zm0 0" fill="#c72627"/><path d="M116 181v-2l1-2 3-3 4-1 1 1a3 3 0 0 0-1 0c-2-1-4 2-5 3l-1 5a15 15 0 0 0 0 3l-1 1v-5h-1zm0 0" fill="#e22229"/><path d="M115 161l1-2 2-1-2 1v2h-1zm0 0M115 161h0zm0-18h1a58 58 0 0 1 3 0 43 43 0 0 1 10 2l4 2h-1l-3-1a37 37 0 0 0-5-2 47 47 0 0 0-4 0l-1-1v1l-4-1zm0 0" fill="#c72627"/><path d="M73 181l2 1h5l12 1h11l10-1 3-1v1a11 11 0 0 1 0 4v1l-7 2h-7l-11-1h-4a246 246 0 0 0-7 0l-6-2-1-4v-1zm0 0" fill="#f9b33b"/><path d="M116 186h1a1 1 0 0 1-1 0zm0 0M116 186v-4-1h1v5h-1zm0 0" fill="#f3931a"/><path d="M116 186zm0-7l1-3 3-3v1l-3 3-1 2zm0 0" fill="#c72627"/><path d="M116 180a2 2 0 0 1 0-1v1zm0 7v-1h1l-1 1zm0 0" fill="#f3931a"/><path d="M113 143h2-1a3 3 0 0 1-1 0zm0 0" fill="#c72627"/><path d="M116 187c0 1 0 0 0 0zm0 0" fill="#f3931a"/><path d="M114 153zm0 0M114 153v2a2 2 0 0 0 0 1v-3zm0 0M114 153h2a62 62 0 0 1 7 0l1 1v1l1 4v6h-1v-5-6h-1a59 59 0 0 0-4-1h-5zm0 0" fill="#c72627"/><path d="M114 165l1-1a25 25 0 0 0 1-1l3 1h2l1-3-1-3h-3l-2 1-1 2-1 1v-5-2c2-1 6 1 7 2 2 2 3 6 2 8h-9zm0 0" fill="#dee9f7"/><path d="M113 162l1-5v-1a2 2 0 0 1 0-1v7h-1zm1 3zm0 0" fill="#c72627"/><path d="M114 143c-2-1-2-3-2-5s2-3 3-3h1l2 4v1l-3 3h-1zm1-7c-1 0-2 1-2 3-1 1 0 2 2 2l2-2c0-2-1-3-2-3zm0 0" fill="#e33527"/><path d="M118 195c-3 0-5-2-5-5 1 3 3 5 5 5h3l2 1h0l-4-1h-1zm0 0" fill="#6d2722"/><path d="M113 162h0zm1 3h9v1l-4-1h-5s-1 0 0 0zm0 0s0-1 0 0zm0 0M114 165zm-1 1h6l1 3v4l-1-4v-3h-6zm-1-28c0-2 1-4 3-4v1c-1 0-3 1-3 3zm0 0M113 166zm0 0M113 166zm0 0" fill="#c72627"/><path d="M113 166zm0-23l-2-5h1c0 2 0 4 2 5h-1zm1 22a3 3 0 0 1-1 0l2-2 2-1-1 1-1 1-1 1c0-1 0 0 0 0zm0 0M112 138zm0 0" fill="#c72627"/><path d="M112 138h-2v-1l2 1zm1 25v-1h1l1-1h1v-1l1 1-2 1-2 1zm0 0" fill="#c72627"/><path d="M113 166h-1v-3h1l2-1 2-1-1-1v-1l2-1c1 2 3 4 2 6h-1l-3-1 1-1-2 1a17 17 0 0 1-2 2h1c-1 0 0 0 0 0h5v1h-6zm0 0" fill="#d32326"/><path d="M113 179v-6-4-3h6v3l1 4-3 3-1 3a2 2 0 0 0-1 0h-2zm0 0" fill="#e22229"/><path d="M115 179l-2 1a3 3 0 0 1 0-1h3v2l-1-2zm0 0" fill="#f3931a"/><path d="M112 150zm0 0" fill="#c72627"/><path d="M113 180zm0 0a3 3 0 0 1 0-1v1zm0 0M112 180h0zm0 0" fill="#f3931a"/><path d="M112 180v-4-4-4l1-2v3a45 45 0 0 0 0 4v6a3 3 0 0 0 0 1h-1zm0 0" fill="#c72627"/><path d="M112 189h1v1l-1-1zm0 0" fill="#6d2722"/><path d="M113 189h-1 1zm-1-9h0zm1 0h-1 1zm0 0" fill="#f3931a"/><path d="M112 166h0zm0 0M113 166h-1 1zm0 0M111 166h1-1zm0 0v-2-3l1-11v16h-1zm0 0M111 166h1-1 0zm-2-14zm0 0" fill="#c72627"/><path d="M94 153l1-2 13 1h1v14h-3l-3-9-2-2-3-1-4-1zm0 0" fill="#d3e1f4"/><path d="M109 166h0zm0 0M113 166h-7 7zm0 0" fill="#c72627"/><path d="M104 143l1-3a10 10 0 0 0 4 0l1-1v-1h2-1l2 5h-9zm0 0" fill="#bc2828"/><path d="M106 166H94v-8-5l4 1 3 1 2 2 3 9zm0 0" fill="#ebf0fa"/><path d="M105 140l-1-4 6 2v1l-1 1a10 10 0 0 1-4 0zm0 0" fill="#e22229"/><path d="M103 135l7 2v1l-6-2a3 3 0 0 0-1-1zm0 0" fill="#c72627"/><path d="M102 136c1 0 2 1 2 3s-1 3-2 3l-2-3c0-2 1-3 2-3zm0 0" fill="#e22229"/><path d="M105 140l-1 3h-1l2-3-2-5 1 1 1 4zm0 0" fill="#c72627"/><path d="M105 173l-2-2 2-2 2 4a7 7 0 0 1-1 3l-1-3zm0 0" fill="#fcdb00"/><path d="M102 135h1zm0 0" fill="#c72627"/><path d="M104 177l-2-4 1-2 2 2 1 3-1 1zm0 0" fill="#fdc507"/><path d="M102 135h1l1 1-1-1h-1zm0 0M102 135h1zm0 8h2a139 139 0 0 1 10 0 1 1 0 0 0 1 0h-13zm0 0h-1 2-1zm0 0" fill="#c72627"/><path d="M101 143a3 3 0 0 1-1 0h4a3 3 0 0 1-2 0h-1zm0 0" fill="#c72627"/><path d="M104 178c-1 0-2-2-2-5l1-2 2-2 2 4c0 3-1 5-2 5h-1zm-1-7v2c-1 2 0 4 1 4h1l1-1a7 7 0 0 0 1-3l-2-4-2 2zm0 0" fill="#f3931a"/><path d="M99 139c0-2 1-4 3-4h1l2 5-2 3h-2l-2-4zm3-3c-1 0-2 1-2 3l2 3c1 0 2-1 2-3s-1-3-2-3zm0 0" fill="#e33527"/><path d="M102 135c-2 0-3 2-3 4l2 4h-1l-2-4c1-2 2-4 4-4zm0 0" fill="#c72627"/><path d="M96 170l3 2a4 4 0 0 1 1 2 4 4 0 0 1-1 3c-1-3-4-4-6-4h-7c1-2 2-3 4-3zm0 0" fill="#f49b3d"/><path d="M97 146v-3h3a3 3 0 0 0 2 0h-2l-3 1 1 2h-1zm0 0M98 146h-1 1zm0 0" fill="#c72627"/><path d="M99 177l-3 1h-6a4 4 0 0 1-3-1 4 4 0 0 1-1-3 4 4 0 0 1 0-1h6c3 0 6 1 7 4zm0 0" fill="#f9b33b"/><path d="M97 149h-3v-1h3l6-1 11 1 8 1 5 3h-1l-4-1-14-1a309 309 0 0 0-11-1zm0 0" fill="#e42127"/><path d="M97 148h-3v-1l2-1h6a285 285 0 0 1 25 1v5l-5-3-8-1-11-1-6 1zm0 0" fill="#e43d25"/><path d="M94 151h1-1zm0-4v-1h5a223 223 0 0 1 7 0h11a136 136 0 0 1 3 0 76 76 0 0 0-5 0 286 286 0 0 0-13 0h-6l-2 1zm0 0M94 149zm0 14a91 91 0 0 1 0-9v-3h1l-1 2v13-3zm0 3h12-12zm0 0" fill="#c72627"/><path d="M93 150l7 1a190 190 0 0 1 6 0h3l1 2v13h-1v-4-10h-1l-13-1h-1-1v-1zm1 16zm0 0M93 151v-1 1zm1 15zm0 0" fill="#c72627"/><path d="M93 158v-7h1v7a91 91 0 0 0 0 5v3h-2l1-8zm0 0" fill="#e42127"/><path d="M92 163a297 297 0 0 1 1-10v-2 7l-1 8v-3zm0 0M92 166zm0 0M94 166h-5a5 5 0 0 0 1 0 106 106 0 0 0 2 0h2zm0 0" fill="#c72627"/><path d="M93 189zm0 0" fill="#f3931a"/><path d="M90 167h-1v-1h24l-1 2v8l-2-4c-2-3-5-4-9-4l-11-1zm0 0" fill="#e64e27"/><path d="M89 156l1 10-7-1h-2a113 113 0 0 1 1-12h3c2 0 3 1 4 3zm0 0" fill="#ebf0fa"/><path d="M91 188l11 1h7l7-2s0 1 0 0l-3 2h-1l-3 1h-8l-8-1h-2v-1zm0 0M91 189h-1l1-1v1zm0 0" fill="#f3931a"/><path d="M89 166zm0 0" fill="#e33527"/><path d="M89 195v-1c1 0 3-2 4-5 0 3-2 5-4 6zm0 0" fill="#6d2722"/><path d="M88 191l-2-2h4l-2 2zm0 0" fill="#e33527"/><path d="M83 190a13 13 0 0 1 0-2l3 1 2 2 3-2h2c-1 3-3 5-4 5a3 3 0 0 1-1 1c-2 0-4-2-5-5zm0 0" fill="#a73527"/><path d="M88 195h-2l3-1v1h-1zm0 0" fill="#6d2722"/><path d="M83 151h10v2a159 159 0 0 0-1 10v3h-2l-1-10c-1-2-2-3-4-3h-3v-1l1-1zm0 0" fill="#d3e1f4"/><path d="M90 170c-2 0-3 1-4 3 0-2 2-3 4-3h6l3 1 1 3a4 4 0 0 1-1 3 4 4 0 0 0 1-3 4 4 0 0 0-1-2 4 4 0 0 0-3-2h-6zm0 0" fill="#f3931a"/><path d="M86 174v-1a4 4 0 0 0 0 1 4 4 0 0 0 1 3 4 4 0 0 0 3 1h6l3-1a4 4 0 0 1-3 1h-6a4 4 0 0 1-3-1 4 4 0 0 1-1-3zm0 0" fill="#f3931a"/><path d="M86 189l2 2 2-2h1l-3 2-2-2zm0 0" fill="#6d2722"/><path d="M86 188h5l-1 1a301 301 0 0 1-4-1zm0 0M86 188v0zm0 0" fill="#f3931a"/><path d="M83 190c0 2 2 4 3 5l-2-1a12 12 0 0 0-1 0c-2 0-4-2-5-5l5 1zm0 0" fill="#ae4630"/><path d="M86 195c-1-1-3-3-3-5 1 3 3 5 5 5l1-1-3 1zm0 0" fill="#6d2722"/><path d="M81 153l1-3h11v1a479 479 0 0 0-7 0h-3l-1 1v1a1 1 0 0 0-1 0zm0 0" fill="#c72627"/><path d="M83 190l-1-2h1v2zm0 0" fill="#6d2722"/><path d="M82 188h0zm0 0" fill="#f3931a"/><path d="M83 173l-1-1-2-1 1-2h1l1 4zm0 0" fill="#fcdb00"/><path d="M81 177l-2-4 1-2 2 1 1 1h1c-1 2-1 4-3 4zm0 0" fill="#fdc507"/><path d="M80 165v-4l1-8h1l-1 3v9h-1zm0 0" fill="#c72627"/><path d="M79 169c3-2 7-2 10-2h1l11 1c4 0 7 1 9 4l2 4v4H81l-6-1v-3-2l4-5zm0 2a7 7 0 0 0 0 2c0 3 1 4 2 5 2-1 3-2 3-4v-1l-2-4c-1 0-2 0-3 2zm7 3a4 4 0 0 0 1 3 4 4 0 0 0 3 1h6a4 4 0 0 0 3-1 4 4 0 0 0 1-3l-1-3a4 4 0 0 0-3-1h-6c-2 0-4 1-4 3a3 3 0 0 0 0 1zm17-3l-1 2c0 3 1 5 2 5h1c1 0 2-2 2-5l-2-4-2 2zm0 0" fill="#e33527"/><path d="M80 166v-1h1v1h-1zm0 0" fill="#c72627"/><path d="M79 171c1-2 2-2 3-2l2 4v1a3 3 0 0 0-1-1l-1-4h-1l-1 2h-1zm0 0" fill="#f3931a"/><path d="M79 165l1-11 1-4h2a31 31 0 0 1 3-1l11 1h15l-1 11v5h-1v-3a524 524 0 0 0 0-10l-1-2h-3a190 190 0 0 0-6 0l-7-1H82l-1 3-1 8v4h-1zm0 0" fill="#e42127"/><path d="M79 163v-1 1zm0 0" fill="#c72627"/><path d="M81 178c-1-1-2-2-2-5v-2h1a6 6 0 0 0-1 2l2 4c2 0 2-2 3-4h-1l1 1c0 2-1 3-3 4zm0 0" fill="#f3931a"/><path d="M79 164zm0 1c0 1 0 1 0 0zm0 0M80 154l-1 11v-1-1-1-5l1-3v-3l2-2a32 32 0 0 1 4 0h11a306 306 0 0 1 25 2l4 1v1l1 26v-1-2l-1-24a14 14 0 0 0-1 0 28 28 0 0 0-3-1h-6l-4-1H97l-11-1-3 1h-2l-1 4zm-2 8zm0 0" fill="#c72627"/><path d="M83 195c-2 0-4-2-5-6 1 3 3 5 5 5h1l2 1h2-4-1zm0 0" fill="#6d2722"/><path d="M78 164c0-1 0-1 0 0zm0 0zm0-2h-1 2v1l-1-1zm0 0" fill="#c72627"/><path d="M83 190l-5-1a12 12 0 0 1 0-1h4l1 2zm0 0" fill="#a83929"/><path d="M78 160h-1-1l1-1v1h1v0zm5 6h-6a9 9 0 0 1 2-1c0 1 0 1 0 0h1v1h1v-1h2l7 1a5 5 0 0 1-1 0h-6zm-5-2l-1-1h1l1 1a5 5 0 0 1-1 0c0-1 0-1 0 0zm0 0" fill="#c72627"/><path d="M78 164h-2v-4h2v2h-1 1l1 1v1l-1-1h-1l1 1zm0 0" fill="#d32326"/><path d="M77 166zm0 0" fill="#c72627"/><path d="M78 188zm0 0" fill="#f3931a"/><path d="M78 189a12 12 0 0 1-1-1h1v1zm0 0" fill="#6d2722"/><path d="M76 164h2v1l-2-1zm0 0" fill="#c72627"/><path d="M75 163v-3h1v4l-1-1zm0 0" fill="#e43d25"/><path d="M75 174l1-2v-3l1-3h12v1c-3 0-7 0-10 2l-4 5zm0 0" fill="#e64e27"/><path d="M75 163v-4h2l-1 1h-1v3l1 1-1-1zm0 16v-1-1-3a67 67 0 0 0 0 2v3zm0 0M75 177v-5l2-6-1 3a47 47 0 0 0 0 3l-1 2v3zm0 0M75 177v0zm0 0" fill="#c72627"/><path d="M75 179zm0 0M81 180l-6-1c-1 0 0 0 0 0l6 1h32s1 0 0 0l-6 1h-7l-11-1h-8zm0 0" fill="#f3931a"/><path d="M75 179l6 1a416 416 0 0 0 19 1h7l6-1c1 0 0 0 0 0l2-1 1 2-3 1-10 1H92l-12-1h-5l-2-1c0-1 0-3 2-3v1s-1 0 0 0zm0 0" fill="#f49b3d"/><path d="M75 178c-2 0-2 2-2 3 0-2 0-3 2-4v1zm0 0M74 186l6 2h6v1l-3-1h-5a19 19 0 0 1-3-1c-1 0-2-1-2-3v-3 1l1 4zm0 0" fill="#f3931a"/><path d="M113 136c2-2 4 0 4 2l-2 4v1c2 0 3-3 3-5 0-3-3-5-5-2zm-13 0h3l1 2c1 2 0 4-2 5 2 0 4-3 3-5 0-2-2-4-5-2zm0 0" fill="#e95c37"/><path d="M97 145l4-1h12c2 0 6-1 6 1 1-1 0-2-2-2h-9a5656 5656 0 0 0-11 2zm20-9a68 68 0 0 0 18 6l5 1c1 0 1 0 0 0l-10-4-13-4v1zm26 7l1 1h1l-1-1h-1s-1 0 0 0zm4 2h1s1 0 0 0v-1l-1 1zm-43-9l3 1 3 1-3-2h-3zm26 6l4 2 5 1v-1l-3-1-6-1zm11 3h1-1zm3 1v0zm-7 3l11 1 4 1c2 1 2 3 2 5l2 11 1 13v-14a163 163 0 0 1-1-7v-6c-1-3-3-3-6-4a88 88 0 0 0-13 0zm-9-2l-1 7 1 10v11l1 5v5l1-1v-4l-1-5v-10a229 229 0 0 0-1-18zm0 0M102 146l13 1 12 1v-1l-12-1h-13zm15 36l1-2 1-3c2-2 3-4 6-3-2-2-4 0-6 1l-1 4-1 3zm-1-23h5c1-1-5-2-5 0zm-36-1c0-2 0-7 3-7l5-1 5 1h10l5 1c2 0 2 3 2 4s0 1 0 0c1-2 1-5-2-6l-15-1a442 442 0 0 1-7 0l-5 1c-2 1-2 6-1 8zm0 0" fill="#e95c37"/><path d="M93 159l1-5v-4l-1 4v5zm0 1v0zm0 3c0 1 1 1 0 0zm17-3a4 4 0 0 0 0 1v1l1-2h-1zm0 3v1h1v-1h-1zm-33 5c0-2 3-2 5-1h18l7 1h3c2 0 1 2 1 3v6l-1 2h-3v1l5-1v-2-5-5l-2-1H85l-7-1c-2 1-2 2-2 3h1zm36-1h3c1 0 2 0 2 2l1 3-2 4 3-3-1-3v-3c0-2-5-1-6 0zm0 0" fill="#e95c37"/><path d="M113 169l-1 5v5l1 1 1-1v-1l-2 1h1v-4-6zm1 3h1l1-1v-1l-2 2s0 1 0 0zm2 2l1-1h-1v1zm-4-23l7 1c3 0 6 0 6 3l1 16h1l-1-10v-8c0-2-3-2-4-2h-10zm10 17l1 1 1-1v-1h-1l-1 1zm19-6h-1l2 1 2 1 2-1-3-3a4 4 0 0 0-1 0h-1s-1 1 0 0v2zm6 5l1-1a1 1 0 0 0 0-1h-1-1l1 2zm0 0" fill="#e95c37"/><path d="M74 181c4 3 10 2 15 2h15v-1H82l-8-1zm33 2l1 1h1v-1-1h-1l-1 1zm4 0h2l-1-1h-1v1zm0 0" fill="#fed567"/><path d="M74 179c-1 2-2 5 0 6 1 2 3 2 5 3l22 1h11l5-2c1-2-1-5-1-7-1-1-2-2-3-1v1c2-1 2 1 2 2l1 4c-1 2-3 2-5 2H97l-15-1-6-1c-2-1-3-4-2-7zm0 0" fill="#fed567"/><path d="M87 171c-1 1-2 2-1 4 0 2 2 3 4 3 2 1 10 1 10-3-2 2-5 2-8 2l-4-1c-2-1-2-3 0-5h-1zm0 0" fill="#fed567"/><path d="M88 175l5 1h3v-1h-8zm0-1h8v-1h-8v1zm1-2h7c-2-2-5-1-7 0zm0 0" fill="#fed567"/><path d="M103 171c1-2 3 0 3 2v2c-1 1-1 2-2 1h-1c1 2 2 2 3 1l1-4-2-4-2 2zm0 0" fill="#fbef70"/><path d="M104 174l1-1v-1h-1v2zm1 1a1 1 0 0 0 0-1v1zm-25-4c0-1 1-2 2-1l1 3a8 8 0 0 1-1 3h-2c0 1 2 2 3 1l1-4-2-4c-2 0-2 1-2 2s0 1 0 0zm0 0" fill="#fbef70"/><path d="M81 171l1 1v1l1-1-1-1h-1zm1 3h0c0-1 0-1 0 0zm0 0" fill="#fbef70"/><path d="M81 164l1-6 1-4c0-2 1-2 3-2 1-1 6-1 6 1v6l1-8h-1l-5-1c-2 0-4 0-5 2l-1 4a36 36 0 0 0 0 8zm0 0" fill="#fefefe"/><path d="M85 159l1-1 1-1-1-1-1 1v2zm1 1h1v-1a2 2 0 0 0-1 0v1zm8 1a50 50 0 0 1 1-5c0-1 0-4 2-4h9c1 0 3 0 3 2v9c0 3-4 2-5 3h5v-12-2l-4-1H95l-1 3v7zm0 0" fill="#fefefe"/><path d="M99 160l1-1v-1-1l-1 1v1l-1 1h1zm2 1v-1h-1l1 1zm13-3l1-3 4-1c2 0 4-1 4 1l1 3v-2c0-2-1-3-3-3h-7v5zm0 0" fill="#fefefe"/><path d="M117 157h1v-2l-1 1v1zm2 0h-1 1zm0 0" fill="#fefefe"/><path d="M132 152h1v-1h-1v1zm2 0l1-1h-1v1zm-2 4h1v-1h-1v1zm2 0h1v-1h-1v1zm-2 4h1v-1h-1v1zm2 0h1v-1h-1v1zm-2 3l1 1 1-1h-1-1zm2 1l1-1h-1v1zm-2 4h1v-1h-1v1zm2 0l1-1h-1v1zm-1 4h1l-1-1v1c-1 0 0 0 0 0zm2 0h1-1zm-2 4h0zm2 0zm-2 5h1v-1h-1v1zm2-1v0c0 1 0 1 0 0zm-5-31v7l1 4v3c0 1 0 1 0 0v-3-4l-1-7c0-1 0-1 0 0zm0 16l1 1v-1h-1zm1 3v0zm4-16l1 5v-5h-1zm-4 23v4l1 5v-5l-1-4zm5 3l1 2-1-2zm0 0" fill="#ced5ed"/><path d="M121 178c-3 2-3 4-3 6l1 8c0 2 1 3 3 3 2 1 4-1 5-3-2 1-3 4-6 2l-2-4c-1-4-1-9 2-11v-1zm0 0" fill="#b7583e"/><path d="M121 181h3l2 2c0-1 0-2-2-3l-3 1s0 1 0 0zm25-6c-2 2-2 5-2 8-1 2 0 6 1 8 2 1 4 2 6 0 2-1 2-4 2-7l-2 6-3 1c-2 0-2-2-3-3-1-4-1-9 1-12v-1zm0 0" fill="#b7583e"/><path d="M147 179v-1h3l2 3v2c1-2 0-5-2-6h-2c-1 0-2 1-1 2zm-20 11v-1c1 0 0-1 0 0h-1v1h1zm0-2h1a1 1 0 0 0 0-1h-1v1zm25-1l-1 1 1-1v-1l-1 1h1zm1-2h-1v-1 1h1zm-40 5c0 1 0 3 2 4 1 1 3 2 5 1l-4-1c-2-1-2-3-3-5v1zm0 0" fill="#b7583e"/><path d="M115 193h3l-1-1-2 1zm-1-1h3v-1c-1-1-3-1-3 1zm1-2h2v-1l-3 1h1zm27 1l1 1h2v-1l-2-1-1 1zm-1-2l1 1h1v-2h-1l-1 1zm-1-2l1 1h2v-1h-3zm1-1c-1 0-1 0 0 0h2v-1l-1-1-1 1h-1l1 1zm1-3l1 1v-2l-1 1zm-61 10h2l1-1h-2-1v1zm-1-2l1 1h1a1 1 0 0 0 1-2l-3 1c-1 0 0 0 0 0zm-1-2h2v-1h-1l-1 1zm0 0" fill="#b7583e"/><path d="M83 189c0 2 1 5 4 5 2 1 5 0 5-3l-2 1-3 1-4-4c0-1 0-1 0 0zm0 0" fill="#b7583e"/><path d="M123 185l1-1h-1a1 1 0 0 0-1 1h1zm0 1h0zm26-4v-1h-1v1h1zm0 0M149 183a1 1 0 0 0 0-1v1c-1 0 0 0 0 0zm0 0" fill="#fed567"/><path d="M140 183c0-4 1-8 6-10 2-1 5-1 6 1 2 2 2 5 2 7 0 1 1 1 0 0 0-2 1-5-1-8-1-2-4-2-6-2a9 9 0 0 0-6 5c-1 2-2 6-1 7 0 1 0 1 0 0zm0 0" fill="#e95c37"/><path d="M154 182l2-1 1-1-1 1h-2v1zm-21 2h2l-1-1-1 1zm4 0a8 8 0 0 1 2-1h0-2v1zm0 0" fill="#e95c37"/><path d="M153 182h1v-1a1 1 0 0 0-1 0v1zm0 0" fill="#c72627"/><path d="M118 182c1-3 3-5 5-5s3 1 4 3l-4-3c-2 0-4 2-5 5zm5 14l-3-2c-2-1-3-4-3-8h1l2 8 3 1c3 0 5-4 5-9v-1l1 1c-1 5-3 10-6 10zm0 0" fill="#6d2722"/><path d="M123 196l-4-1h-1c-3 0-5-2-6-6h1c1 3 3 6 5 6h6l-1 1zm1-19h-4v-1l4 1zm-1 4c-1 0-3 2-3 5l2 5h1c2 0 3-2 3-5l-1-5h-2zm0 11l-1-1-2-5c0-3 1-6 3-6l2 1 1 5c0 3-1 5-3 6zm0 0" fill="#6d2722"/><path d="M123 184l-1 2 1 2 1-2v-2h-1zm0 4h-1v-2l1-3h1l1 3-2 2zm0 0" fill="#f3931a"/><path d="M88 195c-3 0-5-3-6-7h1c1 4 3 7 5 7s4-3 5-6c0 3-3 6-5 6zm0 0" fill="#6d2722"/><path d="M88 195h-4-1c-3 0-5-3-6-7h1c1 4 3 6 5 6h6v1h-1zm0-4c-1 0-2-1-2-3 0 2 1 3 2 3l3-3v1l-3 2zm60-17c-2 0-4 4-4 9l1 6 3 3c3 0 5-4 5-9l-1-6c-1-2-2-3-4-3zm1 18h-1l-3-2-2-7c0-5 2-9 5-9l4 2 2 7c0 5-3 9-6 9zm0 0" fill="#6d2722"/><path d="M148 193l-3-1h-1c-3 0-5-4-5-8 0 4 2 8 5 8h5l-1 1zm1-19h-4v-1l4 1zm0 3c-2 1-3 3-3 6s1 5 3 5c1 0 2-2 2-5l-2-6zm0 11c-2 0-3-2-3-5s1-6 3-6c1 0 3 3 3 6s-2 5-3 5zm0 0" fill="#6d2722"/><path d="M149 180l-1 3 1 2 1-2-1-3zm0 5l-2-2c0-2 1-3 2-3l1 3-1 2zm0 0" fill="#f3931a"/><path d="M157 181zm0 0" fill="#2b2a29"/><path d="M116 186h2v-1l-1 1h-1zm-39-20h36-19l-11-1-6 1zm0 0M113 166l-1 2v12h1v-7-4-3zm0 0" fill="#c72627"/><path d="M79 165l1-11 1-4h2a31 31 0 0 1 3-1l11 1 19 1h6l3 1h1l1 33v-7c0-1-1-4-3-4-2-1-4 2-5 3-1 3-2 6-1 9l1-8c1-1 3-5 5-4s2 4 3 5v6l-1-32v-1l-4-1-14-1a309 309 0 0 0-11-1H86a32 32 0 0 0-4 0l-2 2v3l-1 3v8c0 1 0 1 0 0zm0 0" fill="#c72627"/><path d="M112 150l-1 10v6h1v-5-11zm-31 16a104 104 0 0 1 1-14l1-1h3a225 225 0 0 1 23 1v14h1v-3-6-4l-1-2h-9l-11-1h-7l-1 3-1 8v5h1zm0 0M112 166h7v3l1 5v-5l-1-3h-8 1zm0 0" fill="#c72627"/><path d="M116 180l1-3 3-3 4-1 2 3c0-3-3-4-6-3l-3 3c-1 1-2 3-1 4zm-23-30v3l-1 5v8l1-8v-8zm1 1v3a175 175 0 0 0 0 9v-5l1-7h-1zm0 0" fill="#c72627"/><path d="M105 169c-2 0-2 2-2 4-1 2 0 4 1 4h1l2-4-2-4zm0 9h-1c-1 0-2-2-2-5 0-2 1-4 3-4l2 4c0 3-1 5-2 5zm-24-9l-2 4 2 4c2 0 2-2 2-4 1-2 0-4-1-4zm0 9c-1-1-2-2-2-5 0-2 1-4 3-4l2 4c0 3-1 4-3 5zm9-8c-2 0-4 2-4 4a4 4 0 0 0 1 3 4 4 0 0 0 3 1h6c2 0 4-2 4-4a4 4 0 0 0-1-2 4 4 0 0 0-3-2h-6zm6 8h-6a4 4 0 0 1-3-1 4 4 0 0 1-1-3c0-2 2-4 4-4h6l3 1a4 4 0 0 1 1 3c0 2-2 4-4 4zm0 0" fill="#f3931a"/><path d="M114 165c-1 0 0 0 0 0 0-1 0 0 0 0zm0-12v4l-1 5h1v-5-4zm0 0M114 153h5a59 59 0 0 1 4 1h1v11h1v-6l-1-4v-1l-1-1a54 54 0 0 0-3 0 62 62 0 0 0-4 0h-2zm0 0M114 165h10c1 0 1 0 0 0h-10c-1 0-1 0 0 0zm13-19l1 20 1 19-1-19v-20h-1zm0 0" fill="#c72627"/><path d="M129 147l1 19a1054 1054 0 0 0 1 0l-1-19h-1zm2 0v19a1035 1035 0 0 0 1 19v-19l-1-19zm5 34v0zm0-4l-1 1v2h1v-2-2 1zm-1-5v3h1v-1-2h-1zm0-4v3h1a35 35 0 0 0 0-2l-1-1zm0-4v3h1v-2l-1-1zm0-4v0zm0-4v0zm0-4v0zm0-5l-1 2v2h1v-2-2zm1 0v19a1176 1176 0 0 0 1 0l-1-19zm0 0" fill="#7489a3"/><path d="M127 185h7l7-2-7 1-7 1zm0 0M141 183c0-2 0-4 2-7 1-2 3-3 6-3 4 0 4 6 5 9l3-1h-3v1c0-4 0-10-5-10s-9 7-9 11h1zm-28-20l2-1 2-1-1-1-2 2-1 1c-1 0 0 0 0 0zm0 2l2-1 2-2-2 1-2 2zm0 0" fill="#c72627"/><path d="M116 161v-2l3-1h2v5l-2 1-3-1c-1 1 2 1 3 1h2l1-3-1-3h-2l-3 1-1 2h1zm-39 2l1 1h1l-1-1h-1zm0-1h1l1 1-1-1h-1zm0 0" fill="#c72627"/><path d="M78 162v-2h-1l-2-1v4l3 2v-1c0-1 0-1 0 0l-3-1v-3h3v2zm0 0" fill="#c72627"/><path d="M131 151h1a20 20 0 0 1 2 0h1l-1 1h-3s6 1 4-1h-2-1-1zm0 4h3l1 1h-4s6 1 4-1h-3-1zm0 4h4c1 1 0 1-1 1h-3c1 0 6 1 5-1h-4-1zm0 4h5l-1 1h-3c-1 0-1 0 0 0 0 0 5 1 4-1h-4-1zm1 4h4l-1 1h-3s-1 0 0 0c0 0 5 1 4-1h-4zm0 4h3l1 1h-4v1s5 0 4-2h-2-2zm0 5h3-3v1s5 0 4-1l-2-1h-2v1zm0 4h4l-1 1h-3s6 1 4-1h-2-2zm0 0" fill="#7489a3"/><path d="M98 146l-1-2 3-1a422 422 0 0 1 24 1l5 2 4 2v-1l-4-2a40 40 0 0 0-13-2H97v3h1zm0 0" fill="#c72627"/><path d="M119 143v2l1 1v-1l-1-2zm-4-8c-2 0-3 1-3 3 0 3 1 5 2 5h1c1 0 3-2 3-4s-1-4-3-4zm0 8h-1c-2 0-3-2-3-5 1-2 2-4 4-4 2 1 4 3 3 5 0 2-2 4-3 4zm0 0" fill="#c72627"/><path d="M156 147l-41-12v-1l41 13zm0 0M155 147h1v1c1 2 0 3-1 3 0 0 0 1 0 0l2-2-2-2zm-53-12c-2 0-3 2-3 4l2 4h1l3-3c0-3-1-5-3-5zm0 8h-1c-2 0-3-2-3-4 1-2 2-4 4-4s4 2 3 5c0 2-1 3-3 3zm0 0" fill="#c72627"/><path d="M112 138l-10-3 10 3zm-18 11v-2l2-1h19l20 2 12 1 7 1c1 0 0 1 0 0l1 1v4l2 12v14l1-9-1-5-1-11-1-5v-1l-6-1-24-3H94v3s1 0 0 0zm0 0" fill="#c72627"/><path d="M75 177c-3 1-2 6-2 7 0 2 1 3 2 3l8 1 18 2h8c3 0 5-1 7-3l-7 2h-7l-15-1h-7l-6-2-1-4c0-2 0-4 2-5zm0 0" fill="#f3931a"/><path d="M113 180l2-1 1 3v5s0 1 0 0l1-1v-5l-2-2c-1-1-2 0-3 1h1zm0 0" fill="#f3931a"/><path d="M75 179v-3a53 53 0 0 1 1-7l1-3-2 6v7zm0 0" fill="#c72627"/><path d="M75 179l6 1h8l11 1h7l6-1c1 0 0 0 0 0H81l-6-1s-1 0 0 0zm0 0" fill="#f3931a"/></svg>