<svg xmlns="http://www.w3.org/2000/svg" width="199" height="265" viewBox="0 0 149 199"><g fill-rule="evenodd"><path d="M61 29c4-7 8-13 15-17 16-8 33-4 48-9h-2c-4-2-9-2-15-2H52c7 5 9 17 9 28zm0 0" fill="#f2f2f1"/><path d="M138 67c-4-6-10-9-16-11-9-2-17-8-19-17 0-6 0-10 2-16 0-9 6-15 15-17 2 0 4 0 4-2l4-1h-6c-4-2-9-2-15-2H40c-4 0-9 0-15 2h-4l2 1c2 2 4 2 6 2 9 2 15 8 15 17 2 6 2 10 0 16-2 13-13 15-25 21C0 67-2 92 0 111c2 23 11 47 27 65 4 3 5 7 5 11 0 6 0 6 6 8 12 3 35 3 37 3 0 0 24 0 36-3 4-2 6-2 6-8 0-4 1-8 3-11 21-21 31-52 27-82 0-10-4-19-9-27zm0 0" fill="#a2d9f7"/><path d="M75 191c-6 0-14-2-20-4-11-4-21-11-28-21-8-9-14-23-17-36-6-27-8-51 15-63 17-9 30-19 30-34 0-8 2-29-9-29-2 0-4-1-4-3h-2c-4 0-9 0-15 2 6-2 11-2 15-2h67c6 0 11 0 15 2h2c-15 5-32 1-48 9-9 6-15 15-19 27-7 24-5 53 8 78 10 19 27 30 46 30h9c8-2 16-4 21-8-3 14-11 27-21 37-2 3-3 5-3 11-8 2-18 2-25 2l-17 2zm0 0" fill="#a2d9f7"/><path d="M32 187c0-4-1-8-5-11-16-18-25-42-27-65v-10c0-17 4-36 19-41 12-6 21-8 25-19-4 11-13 13-25 19C0 67-2 92 0 111c2 23 11 47 27 65 4 3 5 7 5 11zM46 33l-2-10c0-9-6-15-15-17-2 0-4 0-6-2l-2-1 2 1c2 2 4 2 6 2 9 2 15 8 15 17l2 10zM21 3h4-4zm0 0" fill="#f5eeeb"/><path d="M75 198c-2 0-25 0-37-3-4-2-6-2-6-6v-2c0-4-1-8-5-11-16-18-25-42-27-65-2-19 0-44 19-51 12-6 21-8 25-19v-2c2-2 2-4 2-6l-2-10c0-9-6-15-15-17-2 0-4 0-6-2l-2-1h4c6-2 11-2 15-2h2c0 2 2 3 4 3 11 0 9 21 9 29 0 15-13 25-30 34-23 12-21 36-15 63 3 13 9 27 17 36a62 62 0 0 0 48 25l17-2c7 0 17 0 25-2v2c0 4-2 4-6 6-12 3-36 3-36 3zm0 0" fill="#8ecef2"/><path d="M132 71c2-2 6-2 7-2-40 4-82 4-122 0H8c40 4 82 4 124 2zM31 179v2a648 648 0 0 0 86 0l1-2c-28 2-59 2-87 0zM132 61a1152 1152 0 0 1-115 0h-2c38 4 79 4 117 0zm0 0" fill="#5870b2"/><path d="M132 67h6s0-2-2-2v-2h-2l-60 2c-19 0-38 0-57-2l-4-2c0 2-2 2-2 2v2l-1 2c21 2 43 4 65 4 19 0 38-2 57-4zm0 31l15-2v-2c-42 6-86 6-130 2-6 0-11 0-17-2v2c44 5 88 5 132 2zm0-10h15v-2c-44 6-86 6-130 2L2 86v2c42 4 86 4 130 0zm0 0" fill="#5870b2"/><path d="M132 96c6-2 9-2 15-2v-6c-25 4-50 4-72 4-20 0-39 0-58-2L0 88v6c25 2 50 4 75 4l57-2zM17 162c38 4 77 4 113 0h2a577 577 0 0 1-115 0zm0-9h-6s2 0 2 2c39 3 79 3 119 0h4v-2c-39 4-79 4-119 0zm0 0" fill="#5870b2"/><path d="M17 155h-4c0 2 0 2 2 2v1s0 2 2 2c19 2 38 2 58 2 19 0 38 0 57-2l2-2v-1s2 0 2-2l-62 3-57-3zm96-145l2-2a566 566 0 0 1-81 0l2 2c25 2 52 2 77 0zm0 0M109 12a415 415 0 0 1-69 0v2h69v-2zm0 0" fill="#5870b2"/><path d="M4 79h2v-2c-2 0-2 0-2-2v4zm0 0" fill="#ec6463"/><path d="M4 80c2 2 4 0 6 0l5-1 2 1h-2c0 2 2 2 2 0l-4-1-5 1H4h2l4-1c1-2 1-2 3-2h2v2h2l-2-2c-2 0-4 0-5 2H6l-2 1c2 0 2-1 4-3h2l1-2h2v2c2 0 0-2 0-2h-2c-3 2-3 4-7 5v-1H2v1h2-2 2zm0 0" fill="#597cba"/><path d="M31 79l-2 1h2v2h1l-1-3zm1 1h2v-1h-2v1zm0 0" fill="#ec6463"/><path d="M32 79h-1l1 3v-3zm0 0" fill="#e63e4f"/><path d="M32 77zm4 2l2 1 6 2 2-2h-2 2-2v2h-2l-4-2-2-1-4-2c2 0 4 0 6 2l4 1 4-1s0-2-2-2v2h-6c-2-2-4-2-6-2-1-2-5 0-7 0 0 2-2 2-4 2s-2 0-2-2c0 0 2 0 0 0 0-2-2 0-2 0l4 2 6-2h4l-2 2h-4l-4 1h-2v-1l2 1 6-1h2l2-2-4 3-2 2h-4c0-2 0-2 0 0h4c2 0 4-3 7-5v2h-1 1v-2c4 2 4 5 8 5 0 2 2 2 2 2v-2 2c-2 0-2-2-2-2h-2l-2-2-4-3 4 2zm0 0" fill="#597cba"/><path d="M59 82h2v-3h-2c0 1 2 1 0 3zm0-2v-1h-2v3h2v-2zm0 0" fill="#ec6463"/><path d="M59 82c2-2 0-2 0-3v3zm0 0" fill="#e63e4f"/><path d="M59 84v-2 2zm14-2s-2 2 0 2v-2h-8c-2 2-4 2-6 2l4-2s2 0 2-2h6l2 2v-2l-2-1-6 1-2 2-4 2c2-2 4-2 4-4l4-1h4v-2l-4 2c-2 0-4 3-8 3h2-4 2c-4 0-4-3-7-5h-2s-2 2 0 2v-2h2l1 2 2 1c0 2 2 2 4 4l-4-2-2-2-5-1-2 1 2-1h2l3 1 2 2 4 2c-2 0-4 0-6-2l-3-2c-2 0-4 0-4 2 0 0 0 2 2 0h-2c0-2 2-2 2-2l4 2c1 2 5 2 7 2s6 0 8-2h6zm0 0" fill="#597cba"/><path d="M88 80h-2v2h2v-2zm2 0c0 2-2 2-2 2h2c2-2 0-2 0-2zm0 0" fill="#ec6463"/><path d="M90 80h-2v2s2 0 2-2zm0 0" fill="#e63e4f"/><path d="M88 79zm4 0l2 1c2 2 3 2 5 2 0 0 2 0 2-2 0 0 0 2-2 2l-3-2-4-1h-2c0-2 2 0 4 0l5 1 4-1s-2-2-2 0c-2 0 0 0 0 0l-2 1-3-1-8-2v2c-2-2-4 0-6 0l-6 1-1-1h1c-2-2-2 0-2 0l4 1 4-1c2 0 4-2 6 0h-4l-2 1-4 2h-2l-1-2v2h1c2 0 4 0 6-2l2-1h4l-4 1c0 2-2 2-2 2l-2 2h-2c0-2 0-2 0 0-2 0 0 0 0 0h2c4-2 4-4 8-5v1h2-2v-1h2c2 0 4 3 6 5h3v-2h-2c0 2 2 2 2 2h-2l-1-2c-2 0-2 0-2-2l-4-1h2zm0 0" fill="#597cba"/><path d="M117 80l1-1h-3 2v1zm-2 0v-1h-2l2 1zm0 0" fill="#ec6463"/><path d="M115 80h2v-1h-2v1zm0 0" fill="#e63e4f"/><path d="M117 82h-2 2zm11-2v2s2 0 2-2h-4c-2 0-4 0-6 2h-3s1 0 1-2l4-1h4c0-2 0 0 2 0 0 1 0 1 0 0 2 0 0 0 0 0s0-2-2-2l-4 2-4 1-1 2 3-3s0-2 2-2h4c-2-2-2 0-2 0-4 0-6 3-7 5v-2h-2v2l-8-5h-2 2s2 0 2 2l2 1 4 2s-2 0-2-2h-4l-4-1-2 1c-2 0-2 0 0 0v-1h2l4 1 4 2h2-4l-6-2c-2 0-4 0-4 2 0 0 2 2 2 0h-2l4-2 4 2c2 0 4 2 6 0h2c1 2 3 0 5-2h6zm0 0" fill="#597cba"/><path d="M143 77c-2 0-2 0-2 2h4c-2 0-2-2-2-2zm0 0" fill="#ec6463"/><path d="M143 77s0 2 2 2l-2-2zm0 0" fill="#e63e4f"/><path d="M139 79s0 1-1 1h-2v2h-2c0-2 2-2 0-2v2l4-2 5-5-4 4zm-5 0l-4-2h2c0-2-2 0-2 0 0 2 4 2 4 2l5-4h4c-2 0-4 0-5 2-2 0-4 0-4 2zm0 0" fill="#597cba"/><path d="M138 79l-4 1h-2v-1c-2 0 0 0 0 0l2 1 4-1c1-2 1-2 3-2 0 0 0-2 2-2-2 0-2 0-2 2-2 0-2 0-3 2zM46 29c0-2 0-2-2-2 0 0 2 0 2 2v-2 2zm0 0" fill="#597cba"/><path d="M59 31h2v-2h-2s2 2 0 2zm0 0v-2h-2v2h2zm0 0" fill="#ec6463"/><path d="M59 31c2 0 0-2 0-2v2zm0 0" fill="#e63e4f"/><path d="M59 33zm14 0s-2 0 0 0c0 2 1 0 0 0 0-2-2-2-2-2l-6 2c-2 0-4 2-6 0h4c0-2 2-2 2-2l4-2h4v2h-2 2c0-2-2-2-2-2-2 0-4 0-6 2 0 0-2 0-2 2h-4l4-2 4-2v-2h2c0 2 2 2 2 2v-2h-4l-8 6v-2h2-4 2v2c-4-2-4-4-7-6h-2s-2 0 0 0h3c0 2 0 2 2 2 0 2 2 4 4 4l-4-2h-2c-1-2-3-2-5-2h-2v2h2c0-2-2-2-2-2h4l3 2s2 0 2 2h4c-2 2-4 0-6 0-1 0-1-2-3-2s-4 0-4 2h2l-2-2h2c2 0 4 0 4 2 1 0 5 2 7 0 2 2 6 0 8 0l4-2s2 0 2 2zm0 0" fill="#597cba"/><path d="M88 29h-2v2c2 0 2 0 2 2v-4zm2 2s-2 0-2 2h2v-2c2 0 0-2 0-2v2zm0 0" fill="#ec6463"/><path d="M90 29h-2v4c0-2 2-2 2-2v-2zm0 0" fill="#e63e4f"/><path d="M88 29v-2 2zm4 0s2 0 2 2c2 0 3 2 5 0h2v-2 2h-5l-4-2-2-2h4c2 2 3 2 5 2h4c0-2-2-2-2-2-2 0 0 2 0 2v-2 2h-5c-2-2-4-2-8-2-2 0-4 0-6 2h-7v-2 2l1-2c-2 0-2 0-2 2s2 2 4 0h4c2-2 4-2 6-2l-4 2-2 2-4 2s-2 0-2-2h-1 1s-2-2-2 0c2 0 2 2 2 2l6-2 2-2 4-2c-2 2-4 2-4 4l-2 2h-4c-2 0 0 0 0 2 0 0 2 0 2-2 4 0 4-4 8-4h2-2 2c2 0 4 4 6 4 1 0 1 2 3 0h-2 2-3c-2 0-2-2-2-2-2-2-4-2-4-4l2 2zm0 0" fill="#597cba"/><path d="M103 29c-2 0-2 2 0 2v-2zm0 2s-2 0-2 2h2v-2l-2 2v-2h2zM32 170zm-1 2h1v-2c4 2 4 6 8 6l2 1v-1 1l-2-1h-2l-2-2c0-2-2-2-4-4l4 2 2 2 6 2s0-2 2-2c-2-2-2 0-2 0h2-2c0 2-2 2-2 2l-4-2c0-2-2-2-2-2l-4-2h6c0 2 2 2 4 4 2 0 4 0 4-2s0-2-2-2v2h-6c-2-2-4-2-6-2-1-2-5 0-7 0l-2 2h2l2-2h4l-2 2h-4v2s0-2 2-2h2l2-2-4 4c2 0 2-2 5-4v2zm0 0" fill="#597cba"/><path d="M31 176h1l-1-4-2 2h2v2zm1-2h2v-2h-2v2zm0 0" fill="#ec6463"/><path d="M32 172h-1l1 4v-4zm0 0" fill="#e63e4f"/><path d="M59 176h2v-4h-2c0 2 2 2 0 4zm0-2v-2h-2v2c0 2 0 2 2 2v-2zm0 0" fill="#ec6463"/><path d="M59 176c2-2 0-2 0-4v4zm0 0" fill="#e63e4f"/><path d="M59 176zm-4 0l-2-2c-1-2-3-2-5-2 0 0-2 0-2 2l2-2h2l3 2 2 2 4 1-6-1c-1 0-1-2-3-2s-4 0-4 2h2-2c0-2 2-2 2-2l4 2 7 1 8-1h6s-2 0 0 1c0 0 2 0 0-1 0-2-2-2-2 0h-6l-6 1 4-1 2-2 4-2c2 0 2 2 2 2l2 2v-2l-2-2-6 2-2 2-4 1c2-1 4-1 4-3l4-2h4v-2l-4 2c-2 0-4 4-8 4h2-4 2c-4 0-4-4-7-6h-2s-2 2 0 2v-2h2l1 2s0 2 2 2c0 2 2 2 4 2h-4zm0 0" fill="#597cba"/><path d="M88 174h-2v2h2v-2zm2 0c0 2-2 2-2 2h2c2-2 0-2 0-2zm0 0" fill="#ec6463"/><path d="M90 174h-2v2s2 0 2-2zm0 0" fill="#e63e4f"/><path d="M88 172zm-14 0h2c-2-2-2 0-2 0 1 2 2 2 4 2l4-2c2 0 4-2 6 0h-4c0 2-2 2-2 2l-4 2h-2l-1-2v2h1c2 0 4 0 6-2 0 0 2 0 2-2h4l-4 2c0 2-2 2-2 2l-2 1h-2v-1c-2 1 0 1 0 1h2c4-1 4-3 8-5v2h2-2v-2h2c2 0 4 4 6 5h3v-1h-2l2 1h-2l-1-1c-2 0-2 0-2-2l-4-2h2c0 2 2 2 2 2 2 2 3 2 5 2 0 0 2 0 2-2l-2 2c-2 0-3-2-3-2l-4-2h-2c0-2 2 0 4 0l5 2 4-2c0-2-2-2-2-2-2 2 0 2 0 2l-2 2c-2 0-3-2-3-2l-8-2-6 2-6 2-1-2zm1 0" fill="#597cba"/><path d="M117 174l1-2h-3 2v2zm-2 0v-2h-2c0 2 0 2 2 2zm0 0" fill="#ec6463"/><path d="M115 174h2v-2h-2v2zm0 0" fill="#e63e4f"/><path d="M117 176h-2 2zm9-8c-2 0-2 2-2 2-4 0-6 4-7 6v-2h-2v2l-8-6h-2 2s2 0 2 2c0 0 2 0 2 2l4 2s-2 0-2-2h-4l-4-2c-2 0-2 0-2 2-2 0-2 0 0 0v-2h2l4 2 4 2h2-4l-6-2c-2 0-4 0-4 2h2-2l4-2 4 2h13v-2s0 2-2 2h-3s1 0 1-2l4-2h2v-2c0 2-2 2-2 2l-4 2-1 2 3-4s0-2 2-2h4v-2zm0 0" fill="#597cba"/></g></svg>