<svg xmlns="http://www.w3.org/2000/svg" width="107" height="265" viewBox="0 0 80 199"><path d="M7 158c-2 2-7 26-7 32 13 12 66 11 79 0 0-7-6-29-10-32-7-3-49-6-62 0zm0 0" fill="#c52727"/><path d="M59 156c-15-2-42-2-52 2-2 2-6 22-7 30 24 6 48-11 59-32zm0 0" fill="#e42424"/><path d="M1 190c5 5 20 8 38 8 17 0 33-3 39-8 0-7-6-29-9-32-3-1-20-3-35-3-9 0-21 0-27 3-2 3-7 26-6 32zm38 9c-14 0-32-3-39-9-1-6 4-30 7-33 6-2 18-3 27-3 15 0 32 2 36 3 3 4 9 26 9 33-6 5-23 9-40 9zm0 0" fill="#7f2622"/><path d="M7 158c-2 2 66 3 62 0-7-3-49-6-62 0zm0 0" fill="#f9b95d"/><path d="M8 158c1 1 15 2 33 2s27-1 28-2c-4-1-21-3-35-3-9 0-21 0-26 3zm33 2s-33 0-34-2v-1c6-2 18-3 27-3 15 0 32 2 36 3v1c-1 2-21 2-29 2zm0 0" fill="#c17e3c"/><path d="M79 190c0-6-5-23-8-30 0 12-3 26-5 32-5-7-12-24-14-29l-10 33-9-34-12 32-4-32-16 28c13 12 65 10 78 0zm0 0" fill="#5db139"/><path d="M33 162l-9 25c5-1 10-4 14-7zm19 1l-1 4 2-2-1-2zm-32 25l-3-26-15 26c6 2 11 2 18 0zm0 0" fill="#82bb31"/><path d="M1 190c6 5 21 8 38 8s33-3 39-8c0-6-4-21-7-28 0 11-3 25-4 30l-1 1v-1c-5-7-11-22-14-28l-9 32-1 1-9-34-12 31v2-2l-4-31c-4 4-12 20-16 27zm38 9c-17 0-32-3-38-8l-1-1h1c5-9 13-26 16-29v1l4 31 12-32v-1l9 34c3-6 9-28 10-31v-1l1 1c1 5 8 20 13 28l5-31v-1 1c4 7 8 24 8 30-6 5-23 9-40 9zm0 0" fill="#219a3f"/><path d="M25 169c0 2-1 3-2 3s-2-1-2-3l2-2 2 2zm0 0" fill="#faea1c"/><path d="M23 167l-2 2c0 2 1 3 2 3l1-3-1-2zm0 5c-1 0-3-1-3-3l3-3 2 3c0 2-1 3-2 3zm0 0" fill="#e38e1d"/><path d="M45 172l-2 4-2-4 2-3 2 3zm0 0" fill="#faea1c"/><path d="M43 170l-2 2 2 3 2-3-2-2zm0 6c-1 0-2-1-2-4 0-2 1-3 2-3s2 1 2 3c0 3-1 4-2 4zm0 0" fill="#e38e1d"/><path d="M13 187c0 2-1 3-2 3s-2-1-2-3l2-2 2 2zm0 0" fill="#faea1c"/><path d="M11 185l-2 2c0 2 1 3 2 3l1-3-1-2zm0 5c-2 0-3-1-3-3 0-1 1-3 3-3l2 3c0 2-1 3-2 3zm0 0" fill="#e38e1d"/><path d="M34 191l-2 3-2-3c0-2 1-3 2-3s2 1 2 3zm0 0" fill="#faea1c"/><path d="M32 189l-1 2 1 2 2-2-2-2zm0 5c-1 0-2-1-2-3s1-3 2-3c2 0 3 1 3 3s-1 3-3 3zm0 0" fill="#e38e1d"/><path d="M56 190l-2 3-2-3 2-3 2 3zm0 0" fill="#faea1c"/><path d="M54 188l-2 2 2 2 2-2-2-2zm0 5c-1 0-2-1-2-3s1-3 2-3 2 1 2 3-1 3-2 3zm0 0" fill="#e38e1d"/><path d="M75 185l-2 2-2-2c0-2 1-3 2-3s2 1 2 3zm0 0" fill="#faea1c"/><path d="M73 182l-1 3 1 2 2-2c0-2-1-3-2-3zm0 6l-2-3c0-2 1-3 2-3 2 0 3 1 3 3 0 1-1 3-3 3zm0 0" fill="#e38e1d"/><path d="M66 168c0 1-1 3-3 3l-2-3 2-3c2 0 3 2 3 3zm0 0" fill="#faea1c"/><path d="M63 166l-2 2 2 2c2 0 2-1 2-2s0-2-2-2zm0 5c-2 0-3-1-3-3s1-3 3-3 3 1 3 3-1 3-3 3zm0 0" fill="#e38e1d"/><path d="M22 147c3 3 16 7 23 7-5 2-9 8-8 11 2 1 5-2 7-1 2 0 2 3 4 3h6c2 2 4 0 5-3 1-2 4-3 9-3 6 0 9-4 10-10 5-12 1-22-13-26-12-5-21-10-28-18-6-8-5-14-1-21s7-16 4-23c-3-8-7-9-10-14-2-4-5-10-8-10-4 1-7 7-5 14 1 7 2 16-2 27-3 11-10 19-11 32-1 15 3 29 18 35zm0 0" fill="#6182a4"/><path d="M72 128c-2-2-4-3-7-3-12-5-21-10-28-18-6-8-5-14-1-21s7-16 4-23c-3-8-7-9-10-14-2-4-5-10-8-10-4 1-7 7-5 14 1 7 2 16-2 27-3 11-10 19-11 32l1 15 6 6c2 2 8-1 9 1l5 4-1-5c1 2 1 2 3 2 0-1 2-3 1-4 5 11 16 13 27 14h1c7 0 19 5 21-5 1-5-1-9-5-12zm0 0" fill="#84a2c7"/><path d="M17 54c1 7 2 15-2 26-3 10-8 18-10 28l7-14c11-13 9-27 5-40zm22 27c2-5 4-12 1-18l-4-7c4 8 4 16 3 25zm33 47c-2-2-4-3-7-3-12-5-21-10-28-18l-3-5c1 6 10 15 16 17 11 6 22 8 26 14l-4-5zm0 0" fill="#a1bddd"/><path d="M44 158c1 7 6-1 9 1 1 1 2 6 3 3 4-7 13-3 14-8 1-4-9-3-14-3-4 0-11 3-11 3-5 1-8 6-8 10 2-1 4-5 7-6zm0 0" fill="#84a2c7"/><path d="M52 166l2 1h2l3-3c1-2 4-3 9-3s9-4 9-10c3-6 3-12 1-16-2-5-7-8-13-10-14-5-22-10-28-18s-5-14-1-21c5-9 6-17 4-23l-6-9-4-5h-1c-2-4-4-10-7-9l-3 1c-1 2-2 7-1 12 1 7 2 16-1 28l-6 11c-3 6-6 12-6 20-2 17 4 29 17 35h1c3 2 15 6 22 6h2l-2 1c-3 1-6 5-7 7v4l2-1 4-1 2 2 2 2h3l1-1zm4 2h-2l-3-1-2 1h-1l-2-3-2-1-3 1-3 1h-1v-1c-1-1 0-2 1-4 1-3 3-5 6-7-8 0-19-4-22-7-14-5-20-18-18-35 1-8 4-14 6-20l5-12c4-11 3-20 2-27-2-5 0-10 2-12l3-2c3 0 6 5 8 9v1l4 5c2 2 5 4 7 9 2 6 1 14-4 23-4 7-6 13 1 21 5 7 14 13 27 16 7 3 12 7 14 12 2 4 2 10-1 16-1 6-4 10-10 10-5 0-8 1-8 3l-4 4zm0 0" fill="#3d5570"/><path d="M43 155v-1c8-5 24-3 24-3s-16-1-24 4zm0 0" fill="#3d5570"/><path d="M28 141c2-3 1-9 1-9H13s-4 7-1 21c-3 1-11 7-9 12 2 2 4-3 7-1 4 2 8 1 9-1s2-2 5-2c3 1 3-3 5-6 2-1 0-10-1-14zm0 0" fill="#6182a4"/><path d="M12 153c-3 0-9 5-9 9 1 1 2 2 3 1l2-4c2-2 4 2 5 3 5 2 2-5 6-7 2-1 4 3 5 2 3-3 2-7 1-9-4-6 2-10-1-15 2 2 4 0 4-1H13s-4 7-1 21zm0 0" fill="#84a2c7"/><path d="M4 166l-1-1v-5c1-3 6-7 8-8v-11c0-6 2-9 2-9s-3 8-1 21c-2 1-7 4-8 8v3h6l7 1 1-2c1-2 3-3 6-2 2 0 2-2 3-3l2-3c1-1 0-8-1-12v-2-9s2 6 1 9v2c1 6 2 11 1 13l-2 2c-1 2-2 4-4 3-3 0-4 1-5 3l-2 1c-2 1-5 0-7-1-1-1-3 0-4 1l-2 1zm0 0" fill="#3d5570"/><path d="M28 142c-2-6-5-9-5-9s4 3 6 9zm-18 12v-1c5-2 9-1 9-1s-4-1-9 2zm24-73c-3 0-3-7-3-7 0 3 1 6 3 6s2-4 2-6c0 0 1 7-2 7zM23 53s-6-2-6-7h1c0 4 6 6 6 6zm0 0" fill="#3d5570"/><path d="M21 39c-1 1-2 3-1 5 2 2 5 2 6 2s1-3-1-5l-4-2zm0 0" fill="#8e2724"/><path d="M22 40h-1l-1 1 1 3c1 2 3 2 5 2v-1c1-1 0-3-1-4l-3-1zm3 6c-2 0-4 0-5-2v-3l1-2 4 2c2 1 2 3 2 4l-1 1h-1zm0 0" fill="#602922"/><path d="M14 58s3-7 8-9v1c-5 2-8 8-8 8zm-3-3s1-6 9-8c-7 2-9 8-9 8zm-2-7s3-4 10-4v1c-6-1-10 3-10 3zm0 0" fill="#5b5857"/><path d="M35 63c0 3-2 5-5 5s-5-2-5-5c0-2 2-4 5-4s5 2 5 4zm0 0" fill="#dcdbdf"/><path d="M35 63c0 3-10 3-10 0 0-2 2-4 5-4s5 2 5 4zm0 0" fill="#fefefe"/><path d="M30 59c-2 0-4 2-4 4 0 3 2 5 4 5s4-2 4-5c0-2-2-4-4-4zm0 9c-3 0-5-2-5-5 0-2 2-5 5-5s5 3 5 5c0 3-2 5-5 5zm0 0" fill="#3d5570"/><path d="M34 62l-3 3c-2 0-3-2-3-3 0-2 1-3 3-3 1 0 3 1 3 3zm0 0" fill="#4262aa"/><path d="M31 59c-2 0-3 1-3 3 0 1 1 2 3 2l2-2c0-2-1-3-2-3zm0 6c-2 0-3-1-3-3s1-3 3-3c1 0 3 1 3 3s-2 3-3 3zm0 0" fill="#322f63"/><path d="M32 62l-1 1-2-1 2-2 1 2zm0 0" fill="#252422"/><path d="M31 60l-1 1-1-1h2zm0 0" fill="#fefefe"/><path d="M41 12c4 10-1 22-10 26-10 4-22-1-26-10C0 17 5 6 15 2s21 0 26 10zm0 0" fill="#f0871b"/><path d="M20 32c10-1 18-8 22-17l-1-3C36 2 25-2 15 2S0 17 5 28c4 4 10 5 15 4zm0 0" fill="#f9b116"/><path d="M37 13c0 6-6 11-14 11-9 0-15-5-15-11S14 2 23 2c8 0 14 5 14 11zm0 0" fill="#fcc249"/><path d="M15 2C5 6 1 17 5 28c4 9 16 14 25 10 10-5 14-16 10-26C36 3 25-2 15 2zm16 36C21 42 8 38 4 28 0 17 5 6 14 2c11-5 23 0 27 10s-1 22-10 26zm0 0" fill="#dd6523"/><path d="M21 18c7-6 10-11 11-16l-6-1c-1 3-3 8-9 12L3 20l1 8 17-10zm0 0" fill="#4973b7"/><path d="M5 27c5-1 10-5 16-9 6-5 9-10 10-15l-5-2c-1 4-4 9-8 12L3 21l2 6zm4-1l-4 2H4l-1-8 14-7c5-4 8-8 9-13l6 2c-1 6-5 11-11 16L9 26zm0 0" fill="#2e3f70"/><path d="M34 29l8-13-1-4-3-5c-1 5-4 11-10 17-6 8-14 10-19 11l10 4c5-2 10-5 15-10zm0 0" fill="#3d5ca5"/><path d="M42 15l-1-3-3-5c-1 5-4 11-10 17-3 5-7 7-10 8h2c10-1 18-8 22-17zm0 0" fill="#4973b7"/><path d="M19 39v-1c6-2 11-5 14-9 4-3 7-9 8-13l-1-4-2-4c-2 6-5 12-9 16-3 4-7 7-11 9l-8 2c2 2 5 3 9 4zm1 0h-1c-4 0-7-2-10-4v-1l9-2c4-2 7-4 10-8 5-5 8-10 10-17l3 5 1 4a36 36 0 0 1-22 23zm0 0" fill="#2e3f70"/></svg>