<svg xmlns="http://www.w3.org/2000/svg" width="247" height="265" viewBox="0 0 185 199"><path d="M163 181c-18-4-43-7-69-7-32-4-58-4-76 0H0v7c0 7 40 14 91 18 50 4 94 0 94-7v-11zm0 0" fill="#fde3a3"/><path d="M0 174v7c0 4 11 7 25 11 19 3 40 7 66 7h32c37 0 62-4 62-7v-11h-22c-18-4-43-7-69-7-11 0-21-4-32-4-18 0-33 4-44 4zm123 25H91c-51-4-91-11-91-18v-7h18c11 0 26-4 44-4 11 0 21 0 32 4 26 0 51 3 69 7h22v11c0 3-25 7-62 7zm0 0" fill="#1d1d1e"/><path d="M185 181c0 7-44 11-94 11-51-4-91-11-91-18 0-11 44-15 94-11 51 3 91 11 91 18zm0 0" fill="#d0932c"/><path d="M62 163c-37 0-62 3-62 11a326 326 0 0 0 91 14c11 4 21 4 32 4 37 0 62-4 62-11 0-4-11-7-25-11-19-4-44-4-66-7H62zm61 29H91c-51-4-91-11-91-18 0-8 25-11 62-11h32c51 3 91 11 91 18s-25 11-62 11zm0 0" fill="#1d1d1e"/><path d="M4 119v51c0 7 40 15 87 18 50 4 90 0 90-7l4-54zm0 0" fill="#1bb3b7"/><path d="M123 188H91c-22 0-44-3-62-7-14-4-25-7-25-11h11c7 4 10 4 18 4h40c10 0 21 0 29-4 10-4 18-11 25-18 4-4 7-11 7-15 26 0 44-3 51-7l-4 51c0 4-25 7-58 7zm0 0" fill="#0e9fb0"/><path d="M7 119l-3 51c0 4 11 7 25 11 18 4 40 7 62 7h32c33 0 58-3 58-7l4-54zm116 69H91c-47-3-87-11-87-18v-51l181 8-4 54c0 4-21 7-58 7zm0 0" fill="#1d1d1e"/><path d="M167 119l-73-10c-29 0-58 0-76 3H4v7c0 8 40 15 90 18 51 0 91-3 91-10v-8zm0 0" fill="#fde3a3"/><path d="M4 112v7c0 4 7 8 25 11 18 4 40 4 65 7h33c36 0 58-3 58-10v-8h-18l-73-10H62c-15 0-33 0-44 3zm123 25H94c-50-3-94-10-90-18v-10l14 3c11-3 29-3 44-3h32l73 10h18v8c0 7-22 10-58 10zm0 0" fill="#1d1d1e"/><path d="M185 119c0 8-40 11-91 8-50 0-90-11-90-18 0-8 40-11 90-8 51 4 91 11 91 18zm0 0" fill="#fde9d7"/><path d="M127 127H94c-25 0-47-4-65-8-18-3-25-7-25-10 0-4 21-8 58-8h7v4h-7c-26 0-44 0-44 4 0 7 29 14 69 14h22c25 0 43 0 43-7 0-4-18-7-47-11v-4c22 4 40 4 55 8 18 3 25 7 25 10 0 4-22 8-58 8zm-29-22H73v-4h25v4zm0 0" fill="#f4d9c1"/><path d="M145 116c0 3-22 7-47 3-25 0-47-3-47-7 0-3 22-7 47-3 25 0 47 3 47 7zm0 0" fill="#e7442e"/><path d="M62 101c-37 0-58 4-58 8 0 3 7 7 25 10 18 4 40 8 65 8h33c36 0 58-4 58-8 0-3-7-7-25-10-19-4-40-8-66-8H62zm65 29c-11 0-22 0-33-3-50 0-94-11-90-18 0-4 21-8 58-8h32c51 4 95 11 91 18 0 8-22 11-58 11zm0 0" fill="#1d1d1e"/><path d="M29 22c0 3 4 7 4 7 3 7 7 14 11 18l10 25c4 8 8 11 11 18 4 8 8 11 8 15 3 0 3 4 3 4l4 3c0 4-4 4-4 4-3 0-3-4-3-4v-7c-4-4-48-76-48-76l-3-7c3-4 3-4 7 0zm0 0" fill="#936b25"/><path d="M25 18s-3 0-3 4l3 7s44 72 48 76v7s0 4 3 4c0 0 4 0 4-4l-4-3-3-4c0-4-4-7-4-11 0 0-4 0-4-4l-3-10-8-8-10-25-8-11s-3-3-3-7l-4-7-4-4zm51 98c-3 0-3-4-3-4v-7c-4-4-48-76-48-76l-3-7c0-4 3-4 3-4s4 0 4 4l4 7c3 4 3 7 3 7l8 11 10 25c4 0 4 4 8 8l3 10 4 4c0 4 4 7 4 11h3v4l4 3c0 4-4 4-4 4zm0 0" fill="#1d1d1e"/><path d="M65 94L25 25c11 11 40 69 40 69zm11 22c-3-4-3-7-3-7h3c-3 3 0 7 0 7zm0 0" fill="#ca9f1d"/><path d="M131 7c0 4 0 4-4 7 0 8-4 15-4 22-3 7-3 15-7 26-4 7-4 14-7 21 0 4-4 11-4 15v7c-3 4-7 4-7 0 0 0 0-4 4-4v-3c3-8 21-91 21-91s0-7 4-7 4 4 4 7zm0 0" fill="#936b25"/><path d="M131 0h-4c-4 0-4 7-4 7 0 4-18 83-21 91v3c-4 0-4 4-4 4 4 4 4 4 4 0 3 0 3-4 3-4v-3c0-4 0-8 4-11v-4l3-14c0-4 4-7 4-7 4-11 4-19 7-26 0-3 0-11 4-14v-8l4-7V0zM98 105s0-4 4-4v-3c3-8 21-87 21-91 0 0 0-7 4-7h4v14c-4 4-4 8-4 8 0 7-4 11-4 14-3 7-3 15-7 26 0 3-4 3-4 7 0 7 0 11-3 14v4c0 3-4 7-4 11v7c-3 4-3 4-7 0zm0 0" fill="#1d1d1e"/><path d="M105 87l22-83c0 18-22 83-22 83zm-3 18c-4-4 0-4 0-4v4zm0 0" fill="#ca9f1d"/><path d="M123 195h-3l-18-58-26 58-25-65-29 55-18-66s0-3 3-3v3l15 66 29-58h3v3l22 62 26-58 21 58 26-62 21 58 11-61h4l-15 65h-3l-18-58zm0 0" fill="#e6e795"/><path d="M102 134l21 61 26-61 18 58h3l15-65h-4l-11 61-21-54v-4 4l-26 58-21-58-26 58-22-62v-3c-3 0-3 0-3 3l-29 55-15-66v-3 3H4l18 66 32-55 22 62zm21 61h-3l-18-58-26 58-25-61-29 54v-3L4 119v-3h3v3l15 62 29-54h3l22 61 26-54v-4 4l21 58 22-62h4l18 58 14-61h4l-15 65h-3l-18-55zm0 0" fill="#333230"/><path d="M7 119H4c0-3 0-3 3-3v3zm0 0" fill="#e7442e"/><path d="M7 119H4c0-3 0-3 3-3-3 0-3 0-3 3h3zm0 0" fill="#1d1d1e"/><path d="M54 130h-3c0-3 0-3 3-3v3zm0 0" fill="#e7442e"/><path d="M54 130h-3c0-3 0-3 3-3-3 0-3 0-3 3h3zm0 0" fill="#1d1d1e"/><path d="M105 134h-7c0-4 4-4 4-4s3 0 3 4zm0 0" fill="#e7442e"/><path d="M105 134h-7c0-4 4-4 4-4s3 0 3 4c0-4-3-4-3-4s-4 0-4 4h7zm0 0" fill="#1d1d1e"/><path d="M149 134h-4c0-4 0-4 4-4v4zm0 0" fill="#e7442e"/><path d="M149 134h-4c0-4 4-4 4-4v4h3c0-4-3-4-3-4-4 0-4 0-4 4h7zm0 0" fill="#1d1d1e"/><path d="M185 127s0 3-4 3v-7c4 0 4 4 4 4zm0 0" fill="#e7442e"/><path d="M185 127s0 3-4 3v-7c4 0 4 4 4 4s0-4-4-4v7c4 0 4-3 4-3zm0 0" fill="#1d1d1e"/><path d="M25 185c0 3-3 3-3 3s-4 0-4-3h7zm0 0" fill="#e7442e"/><path d="M25 185l-3 3s-4 0-4-3h4v-4c0 4-4 4-4 4 0 3 0 3 4 3 0 0 3 0 3-3zm0 0" fill="#1d1d1e"/><path d="M80 192c0 3-4 3-4 3s-3 0-3-3h7zm0 0" fill="#e7442e"/><path d="M80 192c0 3-4 3-4 3s-3 0-3-3c0 3 3 3 3 3s4 0 4-3zm0 0" fill="#1d1d1e"/><path d="M123 195v4c-3 0-3-4-3-4 0-3 0-3 3-3v3zm0 0" fill="#e7442e"/><path d="M123 195h-3c0-3 0-3 3-3-3 0-3 0-3 3 0 0 0 4 3 4v-4zm0 0" fill="#1d1d1e"/><path d="M170 192v3c-3 0-3-3-3-3s0-4 3-4v4zm0 0" fill="#e7442e"/><path d="M170 192v3c-3 0-3-3-3-3s0-4 3-4c-3 0-3 4-3 4s0 3 3 3v-3zm0 0" fill="#1d1d1e"/></svg>