<svg xmlns="http://www.w3.org/2000/svg" width="304" height="267" viewBox="0 0 228 200"><path d="M155 0S80-3 77 92c-2 93 76 93 76 93s75 8 75-97c0-84-73-88-73-88zm0 0" fill="#b18232"/><path d="M144 5c1 0 4 2 9 2s9-2 9-2c0-1-4-2-9-2s-8 1-9 2zm9 3c-1 0-12 0-12-3 0-4 11-4 12-4s11 0 11 4c0 3-10 3-11 3zm-36 9h-1v-2l5-4h1v2zm-9 9h-2v-1l4-6h2v2zm-9 10l-2 1v-2l4-5h1v1zm-6 13l-2 1v-2l2-6h2zm-5 11l-1 1-1-2 2-6 1-1 1 1zm-3 13h-2v-1l2-7h2v1zm-1 13l-1 1-1-1 1-7v-1l1 2zm-1 13v1l-2-1 1-7 1-1v1zm1 13h-1l-2-7 1-1h1zm2 14l-1 1-1-1-1-7v-1l2 1zm6 12l-1 1h-1l-3-6v-2l2 1zm5 11v1h-2l-3-6v-1h2zm8 10l-1 2-2-1-3-6 1-1 2 1zm9 10v1h-1l-5-4v-2h2zm4-143h-1v-2l4-5h1v2zm-10 9h-2v-1l4-5 2-1v2zm-6 11h-2v-1l2-7h2l1 1zm-6 10l-1 1v-2l2-5 2-1v1zm-3 12l-2 1v-2l2-6 1-1 1 1zm-2 12l-1 1-1-1v-7l2-1v1zm0 12l-2 1-1-1v-7l2-1 1 1zm-1 12l-1 2-1-1-1-6 1-2 1 1zm1 14v1l-1-1-1-6 1-2 1 1zm4 12l-1 1h-1l-2-7v-1h2zm5 11l-1 2v-1l-3-7c-1 0 0 0 0 0h2zm6 10v1h-2l-2-6v-1h1zm8 11h-1l-3-6v-2h1l1 1zm8 10v2l-2-1-4-5v-2h2zm4-157h-1v-2l5-3h2l-1 1zm6-7l-2-1h1l6-3h2l-1 2zm-5 12h-1v-1l5-4h2l-1 1zm-25 35l-1 1-1-1 2-6 1-1h1v1zm-3 13l-1 1-1-2 2-6h3zm0 13l-1 2-2-2 1-6 1-1 1 1zm-1 14l-1 1c-1 0-2-1-1-2v-6l1-1 1 1zm1 12l-1 1h-1l-2-7 1-1h2zm1 14l-1 2v-1l-2-6 1-2 1 1zm6 13v1h-2l-3-7 1-1h1zm5 10v2h-1l-4-7h2zm8 10l-1 2c0 1 0 0 0 0l-4-6v-1h2zm7 12l-1 1-2-1-3-5v-1h2zm7-144h-2v-2l5-5h1v2zm-11 9l-1-1 4-6h1v2zm-6 10l-2 1v-2l3-6h1l1 1zm-6 11l-1 1v-2l2-6h2l1 1zm-3 12h-1l-1-1 2-6 1-1 1 1zm-1 11l-2 2-1-2v-6l2-1 1 1zm-1 13l-2 1-1-1v-7h3zm-1 12l-1 1-1-1v-6-1l1 1zm2 13l-1 2-1-1-1-7 1-1 1 1zm3 12l-1 2-1-1-2-7h2zm5 12v1h-1l-3-7v-1h1l1 1zm7 10l-1 1-1-1-3-5v-2h1l1 1zm7 13v1l-1 1-1-1-2-7 1-1 1 1zm1 16v1h-1l-3-7c-1 0-1 0 0 0h1zm8-163l-1-1 1-1 5-4h2l-1 2zm-25 25l-2 1v-1l4-6 1-1v2zm21 132v1h-1l-3-6 1-2 2 1zm8 5v1l-2-1-2-6 1-1 1 1zM130 30h-1v-1l4-6h1v2zm-8 9v1l-1-2 3-6h1l1 2zm-5 11h-2l3-7h1l1 1zm-3 11l-2 1-1-1 3-7h1v1zm-2 12l-1 1-1-1v-6l1-2 1 2zm-1 13l-1 1-1-1 1-6v-2l1 2zm0 13l-1 1-1-1-1-7 1-1 1 1zm1 13l-1 2-1-1-1-7 1-1 1 1zm3 14v1h-1l-3-7 1-1h2zm7 12v1h-1l-1-1-2-6v-1h1zm6 12l-1 1-1-1-3-5v-2h1l1 1zm12-130h-2v-1l4-5h2v1zm-4 142h-1-1l-3-6v-1h2zm0 18v1h-2l-2-7c-1 0 0 0 0 0h1zm54-163h1v-2l-5-4h-2v2zm9 9h1v-1l-4-6h-1v2zm9 10l2 1v-2l-4-5h-1l-1 1zm6 13l1 1 1-2-2-6h-3zm5 11l1 1 1-2-3-6v-1l-1 1zm3 13h1l1-1-2-7h-2v1zm0 13l2 1 1-1v-7l-2-1-1 2zm1 13l2 1 1-1-1-7-1-1-1 1zm-1 13h3l1-7-1-1h-1zm-1 14l1 1 1-1 1-7-1-1-1 1zm-6 12v1h2l3-6v-2h-1l-1 1zm-5 11l1 1 4-6-1-1zm-7 10v2l1-1 3-6v-1l-1 1zm-11 10v1h2l5-4v-2h-2zm-3-143h2v-2l-5-5h-2v2zm10 9h1v-1l-4-5-1-1v2zm6 11h2v-1l-3-7h-1v1zm6 10l1 1 1-2-3-5-2-1v1zm3 12l1 1 1-2-2-6-1-1-1 1zm2 12l1 1 1-1v-7l-1-1-2 1zm1 12l1 1v-9l-2 1zm0 12l1 2 1-1 1-6-1-2-1 1zm-2 14l1 1 1-1 1-6v-2l-2 1zm-3 12l1 1h1l2-7-1-1h-1zm-5 11v2l2-1 2-7h-2zm-6 10v1h2l2-6v-1h-2zm-9 11h3l2-6-1-2-1 1zm-7 10v2l2-1 4-5v-2h-2zm-4-157h2l-1-2-6-3h-1l1 1zm-6-7l1-1-7-3h-1v2zm5 12h1v-1l-5-4h-1v1zm25 35l1 1 1-1-3-6-1-1v1zm2 13l2 1 1-2-3-6h-1s-1 0 0 0zm1 13l2 2 1-2v-6l-2-1-1 1zm1 14l2 1v-8l-1-1-1 1zm-1 12l1 1h2v-7-1h-1zm-1 14v2l1-1 2-6-1-2-1 1zm-6 13v1h2l3-7-1-1h-1zm-6 10v2h2l4-7h-1-1zm-7 10v2h2l3-6-1-1h-1zm-6 12v1l2-1 3-5v-1h-2zm-8-144h2v-2l-5-5h-1v2zm10 9h2v-1l-4-6h-2v2zm7 10l1 1v-2l-2-6h-2v1zm5 11l2 1 1-2-4-6h-1v1zm4 12h1l1-1-2-6-1-1-1 1zm2 11l1 2v-8-1h-1l-1 1zm1 13v1l1-1v-7h-1-1zm0 12v1c1 1 1 0 1-1l2-6-1-1-2 1zm-2 13l1 2 1-1 1-7-1-1-1 1zm-3 12l1 2 1-1 2-7h-1-1zm-6 12l1 1h2l2-7-1-1-1 1zm-6 10l1 1 1-1 3-5v-2l-2 1zm-7 13l1 1v1-1l3-7v-1h-1l-1 1zm-1 16v1h2l3-7h-1-2zm-9-163l2-1v-1l-6-4h-1v2zm26 25l1 1 1-1-4-6-1-1v1l-1 1zm-22 132l1 1h1l2-6-1-2v1zm-6 7v1h1l3-7-1-1h-2zm9-147h2v-1l-4-6h-2v2zm8 9l2 1v-2l-2-6h-2l-1 2zm6 11h1c1 0 1 0 0 0l-2-7h-2v1zm3 11l2 1v-1l-2-7h-1l-1 1zm2 12l1 1 1-1v-6l-2-2v2zm0 13l2 1 1-1v-6l-2-2-1 2zm1 13l1 1 1-1 1-7-1-1-1 1zm-1 13v2h1l1-1 1-7-1-1-1 1zm-4 14l1 1h1l2-7v-1h-2zm-6 12l1 1 1-1 2-6v-1h-2zm-6 12l1 1 1-1 3-5v-2l-2 1zM167 20h1v-1l-4-5h-1v1zm4 142h2l3-6v-1h-2zm0 18l1 1 4-7h-3zM127 42h-1l-1-1 2-7h2v1zm-5 12h-1l-1-1 2-6 1-1 1 1zm-4 13v1l-1-2 1-6v-1l1 1zm-3 24l-1 1-1-1v-6l1-1 1 1zm1 15l-1 1c-1 1-1 0-1-1l-1-6 1-1 1 1zm2 12v1h-2l-2-7h2zm-2-39l-1 1-1-1v-6l1-2 1 2zm7 49v2l-1-1-4-6 1-1 2 1zm23 53l-1 1-1-1v-6l1-1 1 1zm7 1l-1 1-1-1-1-6 1-2 1 1zm9-1l1 1h1v-7-1l-1 1zm-6 1v1l1-1 1-6c1-1 0-2-1-2l-1 1zM136 33h-2v-1l3-6v-1l1 1zm-4 13h-2l-1-1 2-7h2v1zm-5 10l-1 1-1-2 1-6 2-1 1 2zm-2 13l-1 1h-1l-1-1 1-7 1-1 2 1zm-3 14l-1 1-1-2 1-6 1-1 1 1zm-1 13h-2v-7l1-1 1 1zm4 11l-1 1h-1l-1-1v-7-1l1 1zm-1 11l-1 1-1-1-1-6 1-1 1 1zm4 13l-1 1-1-1-2-6 1-2 1 1zm1 12v1c-1 1-1 0-2-1l-1-6v-1l2 1zm7 12v1h-2l-2-6v-2l1 1zm16-40h-2c-1 1-1 0-1-1l1-6 1-1h1l1 1zm-7 9l-1 1-1-2 1-6 1-1 1 1zm1 16l-1 2-1-2v-6l1-1 1 1zm-1 14l-1 1-1-1v-7l1-1 1 1zm0 14l-1 1-1-1-1-6 1-2 2 1zm0-62l-2 1-1-2 1-6 1-1 1 1zm-4 11l-1 1-1-2 1-6 1-1 1 1zm0 14h-3v-8h3zm-1 13l-1 1-1-1v-7l1-1 1 1zm1 14h-2l-2-7 1-1h2zm-4-62h-1v-7l1-1 1 1zm-1 14l-2 1-1-2 1-6 1-1 1 1zm1 15l-1 2-2-1-1-7 2-1 1 1zm-4 11l-1 1-1-1v-6l1-2 1 2zm4 8l-1 1c-1 1-1 0-2-1l-1-6 1-1 2 1zm-4-78l-1 1-1-1 1-7 1-1v2zm-3 11l-1 1-1-1 1-7v-1l1 1zm-4 14v1l-2-1v-6l1-2 1 1zm4 13l-1 2-1-2v-6l1-2 1 2zm1 17l-1 1c-1 1-1 0-1-1l-1-6 1-1v1zm15-80l-1 1-1-1 1-7h3zm-5 10l-1 1-1-1 2-6 1-1v1zm-3 14h-1s-1 0 0 0v-7l1-1 1 1zm-1 13l-1 1-1-2 1-6 1-1 1 2zm-4 14h-2v-7l1-1h1v1zm14-73h-2v-1l3-7h1v1zm-4 9l-1 1-1-1 2-6 1-1h1v1zm-5 13l-1 1v-1l1-7h3zm-3 13l-2 1v-2l1-6 1-1 1 2zm19-22l-1 1-1-2 1-6 2-1 1 2zm-3 12h-2v-1l1-6 2-1 1 1zm-6 13l-2-1 1-6 1-1 1 1zm0 13c-1 1-1 2-2 1l-1-1 1-6 2-1v1zm-2 12l-1 2-1-2v-6l1-1 1 1zm17-26l-2 1-1-2 2-6 1-1 1 2zm-5 10l-2 1v-2l1-6 2-1v2zm-2 14l-1 1-2-1 1-7 1-1h1v1zm-3 13l-1 1-1-2 1-6 1-1 1 1zm-3 18l-1 1-1-1 1-7h2zm12-74l-2 1-1-1 2-7h2c1 0 0 0 0 0zm-4 11l-2 1v-2l1-6 2-1v2zm-4 13h-2v-7l1-1 1 1zm-3 13l-1 1-1-2 1-6 2-1v1zm-5 18h-1l-1-1 3-7 1 1h1zm22 69h2l1 1-2 6-1 1h-1v-1zm5-11h2v1l-1 7h-2l-1-1zm2-12l2-2 1 2-1 6-1 1-1-1zm3-14l1-1 1 1-1 7h-1-1zm1-13l1-1 1 1v6l-1 1-1-1zm3 25l1-1 1 2-1 6-2 1-1-1zm5-10l1-1 1 2-2 6-1 1-1-2zm4-13l1-1 1 1-1 7-1 1-1-2zm0-13l2-2 1 2-2 6-1 1-1-1zm1-15h2v8l-1-1zm-9 31l2-2 1 1-1 7-1 1-1-1zm4-12v-1l1 1v7l-1 1-1-1zm-1-14l1-1 1 1 1 6-1 2-1-1zm0-13l1-1 1 1v7h-1zm-1-14l1-1 1 1 1 6-1 2-1-1zm5 10h3l1 7v1l-2-1zm0-11l1-1h2l1 8h-1-1zm-3-13l1-1 1 1 2 5-1 2v-1zm-3 5l1-1h1l3 6-1 2-1-1zm-5-20v-1h2l3 5v2h-1zm-16 130l1-1 2 1-1 7-1 1-1-2zm3-11l1-1 1 1-1 7v1l-1-2zm2-13l2-1 1 1-1 7-1 1-1-1zm5-13l1-1 1 1-1 7-1 1-1-1zm0-14l1-1 1 1v8l-1-1zm-2-43l1-1h2l1 8h-3zm1-12l1-1 2 1v8h-1l-1-1zm-2-13l1-1v1l3 6-1 1h-2zm-3-13l1-2 1 1 2 7-1 1-1-1zm-4-13l1-1h2l2 6-1 2-1-1zm13 84l2-2v1l1 1-1 6-1 1h-1l-1-1zm6-11l1-1v7l-1 2v-1l-1-1zm-4-15l1-1 1 1v7h-1zm1-14v-1l2 1v7l-2 1v-1zm-1-13l1-1 1 1 1 6-1 1h-1zm-26-28h2v1l-2 7-1-1zm5-10l2-1v2l-1 6-2 1v-1zm8 26h2v7l-2 1-1-1zm9 1l1-1h1l1 7-1 1h-1zm-3-13l1-2 1 1 2 6v2l-2-1zm-13 137l1-1 1 1-1 7v1l-1-1zm3-11l1-1 1 2v6l-1 1h-1l-1-1zm0-13l1-1 1 1v7h-1zm0-14l2-1v9l-1-1zm-1-106l1-1 1 1 1 6v1h-2zm6 108l1-2 1 2v6l-1 1-1-1zm2-12l1-1 2 1v7l-2 1-1-1zm-1-14l1-1 2 1 1 7-1 1-2-1zm0-13v-1h1l1 1 1 6-1 2h-1l-1-1zm-2-14l1-1 1 1 1 7h-1c0 1 0 0 0 0zm-13 85l1-1 1 1-1 7h-1-1zm4-11v-1l1 1-1 7v1l-1-2zm0-13l1-1h1l1 1v6l-1 1-2-1zm2-14l1-1v9l-2-2zm0-13c-1-1 0-1 1-1v1l1 6-1 1-1-1zm-7 37l1-1v9l-1-1zm1-13l1-1h1l1 1-1 7h-2zm1-14l1-1 1 1v7l-1 1-2-1zm3-21v-1l1 1-1 7h-1zm0-13l1-2 2 1v7l-2 1-1-1zm16 9l1-1 2 1-1 7-1 1v-1h-1zm3-12v-2l1 2v6l-1 1-1-1zm-12 31l2-1 1 1-1 7h-1l-1-1zm4-58l1-1 1 1-1 7h-1v-1zm-7 10l1-1h1l1 1v6l-1 1-2-1zm1 36l1-1 1 1 1 6-1 2-1-1zm-1-14l1-1h1l1 1v8h-1l-1-1zm-1-13v-1l1 1 2 6-1 2-1-1zm0 0" fill="#9c6b2e"/><path d="M143 115l-3-11-1-3c-4-11-8-20-13-25-6-7-32-21-43-21 0 0-9-1-21 2-11 1-27 8-40 23-21 26-24 51-21 63l1 3 1 4c3 9 8 22 19 28l11 8c8 7 18 15 31 14 6 0 19-2 35-7 14-7 25-15 31-27v-1c14-25 15-26 14-37v-1l-1-12zm-2 0l1 12c1 12 2 11-13 38-15 26-48 32-65 33s-28-13-41-20c-13-8-17-24-20-32l-1-3c-2-12 0-37 22-62 24-29 59-24 59-24 10 0 36 13 43 20 6 7 9 19 11 25l4 14zm0 1" fill="#9c6b2e"/><path d="M60 182c-8-1-26-15-31-17-6-3-12-18-12-22-1-4 0-30 4-36 3-6 20-27 38-31 0 0 21-7 28-3 5 5 13 5 19 10 5 5 7 16 11 25 3 10 12 15 7 26-6 10-6 23-11 26-6 3-15 11-23 14-7 4-24 10-30 8zm69-17c15-27 14-26 13-38 0-13-3-19-5-25s-5-18-11-25c-7-7-33-20-43-20 0 0-35-5-59 24-24 28-24 56-21 65 3 8 7 24 20 32 13 7 24 21 41 20s50-7 65-33zm0 0" fill="#b1af34"/><path d="M113 160c5-3 5-16 11-26 5-11-4-16-7-26-4-9-6-20-11-25-6-5-14-5-19-10-7-4-28 3-28 3-18 4-35 25-38 31-4 6-5 32-4 36 0 4 6 19 12 22 5 2 23 16 31 17 6 2 23-4 30-8 8-3 17-11 23-14zm0 0" fill="#bcc037"/><path d="M69 111s9 5 11 4c3-1 8 2 8 2l3 6 3 10c1 2 0 6-2 6-1 2-4 2-6 3l-9 2c-5 0-6-1-7-2-1-2-2-4-6-5-4 0-8-2-8-6s2-6 4-11c3-4 7-9 9-9zm0 0" fill="#ebdf8d"/><path d="M113 85l-5 4-5 5-5 6-5 5-2 3-1 1-2 1-1 2-2 2-1 1 1-2v-1h1l1-3 3-2 1-3c2 0 3-1 4-3l2-2 5-6c3-1 4-3 6-5l5-4zm5 7l-6 4-10 9-3 3-3 2-2 2-3 2-1 1-2 2-1 1v-2l2-1 2-2 2-2 2-3 3-1 3-3 11-8 5-4zm5 7l-18 10-7 4-3 2-4 1-4 3h-1 1l2-2 2-2 3-1 3-2 7-4 14-7 5-3zm2 5l-6 3-13 6c-2 1-4 3-7 3l-3 2-3 1-2 1-2 1-2 1 2-2 2-1h2l2-2 4-1 7-4 13-6 6-2zm1 6l-6 2-13 5-3 2-4 1-3 1-3 1a86 86 0 0 0-6 1l6-3 3-1h3l3-2 3-1 14-4 6-2zm0 6l-5 2-13 4-6 1-3 1-3 1h-2l-2 1h-1l1-1h2l2-1 3-1h3l6-2 13-3a85 85 0 0 0 5-2zm2 7h-6l-13 3-7 1h-3l-3 1h-6 2l2-1h5l3-1 7-1 13-2a82 82 0 0 0 6-1zm3 8H89l2-1h2l3-1h14l8 1 7 1h6zm-5 12l-5-2-14-4-3-1-3-1h-3l-3-1-3-1-1-1h-2 6l3 1 3 1 4 1 3 1 13 5 5 2zm0 11l-19-9-7-4-3-2-3-1-4-3h-2v-1 1h4l3 2 2 2 3 1 7 4 13 7 6 3zm-4 7l-5-4-12-8-6-4-3-2-3-2-2-2-1-1-2-1 2 1 1 1 3 1 2 2 3 2 7 4 12 9 4 4zm-5 5l-5-5-10-9-3-2-3-3-2-2-3-2-4-4 5 3 3 2 2 3 2 2 3 2 11 10a35 35 0 0 0 5 4zm-8 4l-3-5-8-10-5-5-2-3-1-2-2-2-1-1v-2 2l2 1 2 2 1 1 2 3 4 5 8 11 3 5zm-2 8l-4-6-8-13a7398 7398 0 0 1-8-13l-2-3-1-2-1-2 1 2 2 2 1 3 2 2 2 3 4 7 9 14a58 58 0 0 0 3 6zM63 73l1 7v6l1 8 2 7v4l1 2v6-1l-1-1v-3l-1-3-1-4-1-3v-4-8l-1-6v-7zm9 0v40-1l-1-2v-3l-1-3V93l1-13v-7zm7-2l-4 21v8l-1 4-1 3-1 5v-5l1-3 1-4 1-8 3-15 1-6zm5 2l-1 6-4 14-1 7-1 4-1 4-1 2v4-2-5l1-3 1-4 2-7 4-14 1-6zm6 4l-2 7-5 13v3l-2 4-1 3-1 3-3 6 2-7 1-2v-3l2-4 2-4 4-12 3-7zm5 3l-3 6-5 13-3 6-1 3-1 4-2 2-1 2v1-1-3l2-2 1-3 1-3 4-7 5-13 3-5zm6 2l-3 6-7 11-3 6-1 3-2 3-2 1v2l-1 2 1-2v-2l1-2 2-2 1-4c0-2 3-4 4-5a297 297 0 0 1 10-17zm-85 40l7 1h14l8 2h5l2 1h4l2 1v-1h-2v-1h-2l-2-1-4-1H37l-8-1H16zm1 8l7-1h33l-1-1-3-1H37l-13 2-7 1zm-2 9l22-5 7-2 4-1h3l5-1h1-4l-2 1h-7l-8 2-15 4-6 2zm2 4l6-1 14-4 7-2 4-1 4-1 2-1h2l1-1h-1l-2 1h-3l-3 1-4 1-7 2-14 4-6 2zm4 6l5-2 14-5 3-1 4-2 3-1 2-1a58 58 0 0 0 6-3l-6 1-3 2-3 1-3 1-4 2-13 5-5 3zm6 1l5-2 12-5 6-3 2-1 3-1 2-2 2-1h1-4l-1 2-3 1-3 1-6 4-11 5-5 2zm2 6l5-2c3-3 7-5 12-7l6-4 3-2 2-2h2l1-2 2-1-2 1-1 1-3 1-2 1-3 2-6 4-11 7-5 3zm4 10l4-5 5-5 6-5 6-5 2-3h2l1-1 2-2 2-1 1-2-2 1-1 1h-1l-2 2-2 2-4 2-2 2-3 3c-2 2-3 4-6 5-1 3-3 4-4 5l-4 5zm11 5l3-5 8-12 1-3 3-3 1-2 2-3 2-2v-2h1v-1l-1 1-1 1-2 3-2 2-2 2-1 3-3 4-6 12c-3 3-3 5-3 5zm25 13l3-21 1-8 1-4v-3l1-5v-1 1l-1 2-1 3v3l-1 3v8l-3 16v6zm7 1v-7l1-14v-21 2l-1 1v39zm7-2v-6l-2-14v-8l-1-3v-3l-1-6v16l1 4 2 14 1 6zm8-4l-1-5-3-12-3-8-1-2v-3l-1-2-1-2v-1h-1l1 2v1l1 3 1 2v3l3 7 3 12 2 5zm8 4l-3-7-5-14-3-8-1-4-2-3-1-3-1-1-1-2 1 2v2l1 2 2 3 1 4 3 8 6 14 3 7zM44 77a134 134 0 0 0 8 11c0 3 2 5 4 7l4 7 1 2 1 2 2 2v2a298 298 0 0 1 3 3l-1-1v-2l-1-1-1-2-1-3-2-3-2-3-3-3-4-7-4-5a134 134 0 0 1-4-6zm-5 8l5 5 8 10 3 4 1 3 3 2 2 3 2 1 1 2v1h0v-1-3l-2-1-2-3-2-3-2-2-3-3-9-10c-3-2-4-5-4-5zm0 0" fill="#ebdf8d"/><path d="M32 89l16 14 6 5 3 2 3 2 4 3v0l-2-2-2-1-2-3-3-2-7-5-11-9c-4-2-5-5-5-5zm-3 4l5 4 11 9 7 4 3 2 2 2 3 2h1l2 2-2-2-1-1-2-2-2-1-4-3-6-4-12-9-5-3zm-3 7l6 3 12 7 3 2 3 1 3 2 3 1 6 3-6-3-2-2-3-2-3-2-4-2-12-6a57 57 0 0 1-6-3zm-1 6l5 3 13 7 6 3h3l3 2 2 1 3 1h0l-2-2-2-1-3-1-3-2-7-2-13-7c-3 0-5-2-5-2zm-2 6l6 2 12 4 7 2 3 2 2 1h5l2 1-2-1h-2l-2-1-3-1-3-2-7-2-12-4a85 85 0 0 1-6-1zm22 63l4-5 4-6 5-6 5-6 2-3 1-2 1-1 1-2 2-1 1-2-2 2h-1l-2 3-2 2-3 2-1 4-3 3-5 6c0 3-2 4-3 7a139 139 0 0 0-4 5zm13 3l2-5 5-13 2-4 1-3 1-3 1-3 1-2v-2l1-1-1 1-1 1-1 2-1 4-2 3-1 3-1 3c-2 5-4 10-4 14l-2 5zm0 0" fill="#ebdf8d"/><path d="M106 125l-4-2 4-3 4 2-4 3zm0 0" fill="#2e2726"/><path d="M108 122l-1-1h2l-1 1zm0 0" fill="#392c2b"/><path d="M101 123l-3-1 2-3 2 1c1 1 0 2-1 3zm0 0" fill="#2e2726"/><path d="M102 120h-1l1-1v1zm0 0" fill="#392c2b"/><path d="M106 129l-2-2h4l-2 2zm0 0" fill="#2e2726"/><path d="M107 127h1-1zm0 0" fill="#392c2b"/><path d="M102 134c-1-1-3-2-2-3l3-1 3 2-4 2zm8-2c-1 1-2 0-3-1l3-1 2 1-2 1zm-10-16l-2 1 3 1 1-2h-2zm1-12c-2 1-2 3-2 4l3-1c2-1 2-3 2-3h-3zm-6 7c-1 1-2 2-1 3l3-1 1-2h-3zm0 0" fill="#2e2726"/><path d="M97 112h1-1zm0 0" fill="#392c2b"/><path d="M99 140l-1-2h3l1 2h-3zm0 0" fill="#2e2726"/><path d="M101 139zm0 0" fill="#392c2b"/><path d="M102 147c-2-1-3-2-2-3h3l1 2-2 1zm0 0" fill="#2e2726"/><path d="M104 146h-1 1zm0 0" fill="#392c2b"/><path d="M92 151l-1-3 3 2v2c-1 1-2 0-2-1zm3 5v-2c1-1 3 0 3 1v3c-1 0-2 0-3-2zm0 0" fill="#2e2726"/><path d="M98 157v-1 1zm0 0" fill="#392c2b"/><path d="M87 152v-3l3 1-1 3-2-1zm0 0" fill="#2e2726"/><path d="M89 152v-1h1v1h-1zm0 0" fill="#392c2b"/><path d="M83 157l1-4c1 0 3 1 3 3l-1 2c-2 1-3 0-3-1zm0 0" fill="#2e2726"/><path d="M86 158v-1l1 1h-1zm0 0" fill="#392c2b"/><path d="M79 159l1-3c1 0 2 2 1 3l-2 2v-2zm0 0" fill="#2e2726"/><path d="M80 160h1l-1 1v-1zm0 0" fill="#392c2b"/><path d="M72 157c0-2 2-3 2-3l1 4-2 1-1-2zm-4-4c0-2 1-3 2-3l1 4-3 1v-2zm0 0" fill="#2e2726"/><path d="M69 154h0zm0 0" fill="#392c2b"/><path d="M68 153c0-2 1-3 2-3l1 4-3 1v-2zm0 0" fill="#2e2726"/><path d="M69 154h0zm0 0" fill="#392c2b"/><path d="M64 150l2-2v2c0 2-1 2-2 2v-2zm-6-2c1-1 2-2 3-1v3l-2 1c-1-1-2-1-1-3zm-2-5l3-1v3l-3 1v-3zm-8 1l4-1-1 3-3 1v-3zm0 0" fill="#2e2726"/><path d="M49 147h1-1zm0 0" fill="#392c2b"/><path d="M45 140h4l-2 3h-3l1-3zm0 0" fill="#2e2726"/><path d="M45 143h1-1zm0 0" fill="#392c2b"/><path d="M43 135l2 1-1 2c-2 1-3 0-3-1s0-2 2-2zm0 0" fill="#2e2726"/><path d="M42 137h1l-1 1v-1zm0 0" fill="#392c2b"/><path d="M47 129l2 2-2 1-2-1c-1-1 0-2 2-2zm0 0" fill="#2e2726"/><path d="M46 131h-1 1zm0 0" fill="#392c2b"/><path d="M44 124c2 0 4 2 4 3h-4c-2 0-3 0-2-1 0-2 1-2 2-2zm0 0" fill="#2e2726"/><path d="M43 126v1h-1l1-1zm0 0" fill="#392c2b"/><path d="M38 124l3 1-3 2-2-2 2-1zm58-22l-1 3 3-1 1-2h-3zm-8 4l-1 2h3l1-2h-3zm3-6v4l3-1v-3h-3zm0 0" fill="#2e2726"/><path d="M94 100l-1 1h1v-1zm0 0" fill="#392c2b"/><path d="M83 104l-1 4c1 1 2 0 4-1v-3h-3zm0 0" fill="#2e2726"/><path d="M86 105c-1 0-1 0 0 0 0 1 0 0 0 0zm0 0" fill="#392c2b"/><path d="M88 106l-1 2h3l1-2h-3zm-2-6l-1 2 2-1 1-2-2 1zm0 0" fill="#2e2726"/><path d="M87 100h1-1zm0 0" fill="#392c2b"/><path d="M75 102v3l2-1v-3l-2 1zm0 0" fill="#2e2726"/><path d="M77 103c-1 0-1 0 0 0v-1 1zm0 0" fill="#392c2b"/><path d="M80 99l-1 4c1 0 3 0 4-2v-3c-1-1-2 0-3 1zm-16 1l3 3 1-3c0-2-1-3-3-3l-1 3zm0 0" fill="#2e2726"/><path d="M66 98l1 1v-1h-1zm0 0" fill="#392c2b"/><path d="M58 96l2 2v-3c0-1 0-2-1-1l-1 2zm-4 5l2 2v-3l-2-1v2zm0 0" fill="#2e2726"/><path d="M55 100c1 0 1 0 0 0v-1 1zm0 0" fill="#392c2b"/><path d="M58 96l2 2v-3c0-1 0-2-1-1l-1 2zm-1 11l3 2v-3l-2-1-1 2zm-5 13l2 2-2 1c-2 0-2-1-2-2l2-1zm-9-2l1 2h-3v-2h2zm0 0" fill="#2e2726"/><path d="M41 119zm0 0" fill="#392c2b"/><path d="M50 113l2 3h-4v-2c0-1 0-2 2-1zm7-2l2 2h-3l-1-1 2-1zm0 0" fill="#2e2726"/><path d="M56 112h-1 1zm0 0" fill="#392c2b"/><path d="M52 107l1 2h-3l-1-2h3zm0 0" fill="#2e2726"/></svg>