<svg xmlns="http://www.w3.org/2000/svg" width="133" height="265" viewBox="0 0 100 199"><g fill-rule="evenodd"><path d="M44 94l2 2c8 1 15 6 19 13 3 4 5 8 6 13v2l1 2 1 2c1 2 3 4 3 7v1l1 1v1l1 2 9 14 9 13 3 7 1 3-1 2-6 5-5 1h-1c-1 0 0 0 0 0l3-1 4-2 2-1 3-3v-1l-1-4-6-11-8-12-6-8v-2l-1-1c0-1 0-1 0 0h-1v1l6 9 7 12 3 5v2l-1-2-8-14-6-10-1-1-2-1-2 2-2-1h-1l-1 2v1l3 8 3 9-1 1v-1l-1-2-2-7-3-8-2 1-2 1h-5l1-1h2l4-1 3-3h1-1l-3 3-6 1h-1v1l-1 2-1 2v2l3 11v2l-1-2-2-10v-3h-1c-1 0-2 0-3 2-1 0-3 0-4-2l-1 2 1 2 1 5v2l-1-2-1-6v-1l-1-2v4l3 20v1l1 2h-1v-1l-3-15-1-7v-4l-1-1v1c-2 3-4 3-6 3h-1v-1h3l3-3h1l1-1h4l5-1h1l1-1v-1h1l1-1h5l1-1 2-1 1-1 1-1 2-1 4-2c2-1 2-1 0-1l-2-8-1 1v1l2 5 1 2h-1v-1l-2-5v-1h-1v1l-2 1h-1l-1 1v-1h1l4-4 1-3-3 4-2 2h-3v1l1 1-1 1c-2 2-4 3-7 3h-5l-2 2v2l1 3-2-3-1-1-2 1-3-1v2l1 4h-1l-1-4v-2l-4 3h-1l-3-1v1c-1 2 0 4 2 6v1h-1l-2-6v-2l-1-1v-1l-1-2v-1l1 1v1l2 1-1-2-1-3v-1l-1-1v-1h1l1 4 1 2 1 2v1l5-2 1-1-1-3 1-1v1l1 3h5l4-2v-1l-1-2h1l1 2 5-1 4-1 1-1 1-1v-2 1h1l4-1v-2l-2-6v-1l1 2 2 5v1l1-1v-1l1-2-1-3c-1-4-2-7-5-10-2-4-5-7-9-10-3-2-6-4-10-4-1 0 0 0 0 0l-2 4-6 3h-3v-1h3c2-1 4-1 5-4l-1 2-5 1h-3 1v-1h6l3-4h1v-2h-1v-1zM19 16v1l1 1 1 2c3 4 6 9 7 14h1v4l1 2v3l-1 1v-5c-1-4-2-8-5-11l-3-8h-2v1l7 16v1s0 1 0 0l-5-12-2-4-1-1-1 1 1 4 4 12v1h-1l-3-10-1-4-1-2v-1l-2 1h-4l-1-1v14l3 6 4 10 1 1h-1c-4-6-6-11-8-17V20c1 0 0 0 0 0v-1h1v1h5l3-1c1 0 2-1 1-2l1-1zM6 17l-4-4-1-3V8L0 6l2-1 2-2h1l3-1h1l2-1h2l1 1h1l2-1h1v1c2 4 2 8 1 12l-1 1V5l-2 1 1 5v5l-1-3-1-6-3 1v1l2 6-1-2-2-4-4 1 2 4 1 2-1-2-3-4H2v1l3 4 2 2H6zm0 0" fill="#1f1b20"/><path d="M29 41v3l1-2-1-6v-2l1 5-1 10v3c1-1 1 0 2 1v3c5 6 10 12 12 20 1 5 2 10 1 16v1l-1 1v-8c0-6-1-12-4-18l-8-11c2 4 5 8 6 13l1 4c0 1 0 1 0 0l-3-7-3-7-2-2s0-1 0 0l-1 1 2 5 1 2-2-2-2-5-5 1h-3 2l4-1v-1h2l-2 1h-5v-1h3l4-1 2-1 1-1-1-1-2 2-4 2h-2v-1h1l5-2 2-2v-1l-1 1-2 2-4 1-2 1-1-1h-1 2l1-1h1l5-2v-1l1-9v-2zm0 0" fill="#1f1b20"/><path d="M33 101l-5-7c-4-5-7-10-9-16l-1-7v-9h1v9l1 6 3 10 8 10 2 2h4l4-2v-1l1-2v-5l-1-1-1-7v-1l2 4 1 6v5s0-1 1 0l-2 2-6 4h-3zm12 97h-3c-2-1-3-1-3-3-4-6-6-13-5-20l2-15 1-5v-2h1l1 1 2-1 2-1h1l-1 1-1 1h-4l-1 1v3l-2 8v9 5l1 7 3 8 3 2h4l4-1 4-1 2-1 1 1h-1l-5 1-6 2zm39-12c-2 3-4 4-7 5l-10 2-7 1h-2l7-1h2l3-1h1l3-1 6-2 1-2-1-7v-2l-1-3 1-1v2l1 3v9h1l2-3v1zm-55-51l-2-9c-1-7 0-14 4-20l1-2h1l-1 1-2 4-3 11 1 11 2 4h-1zm0 0" fill="#1f1b20"/><path d="M19 67c-1 0 0 0 0 0l-1-5v-5h-1v-1l1-1 1 1h-1l1-1 2 1h-2 3l-1 1-3-1v1h4v1h-4v1l1 1h-1 4l-1 1v3c0 5 1 9 3 14v1l-4-12v-6l-1-1v7zm0 0" fill="#1f1b20"/><path d="M33 104h-1l1-1v-2h2v1h-1 1-1v1h1v1l-1 1-1 1v-1l1-1v-1h-1v1zm0 0" fill="#1d1d1f"/><path d="M38 153h-1v1l-1-2-1-2h1l1 2v1h1zm0 0" fill="#1f2020"/><path d="M6 17h1l2 1 1 1-1 1v-1H8l1 1H8v-1-1l-2-1zm0 0" fill="#232320"/><path d="M58 194l-1 1-1-1-2 1v-1h4zm0 0" fill="#22211e"/><path d="M84 186v-1h4-3l-1 1zm0 0" fill="#232220"/><path d="M43 95s1 0 0 0v-2 1l1-2-1 2h1v1h-1zm0 0" fill="#2e2d29"/><path d="M18 55l-2-2h1l1 1v1zm0 0" fill="#2d2c29"/><path d="M29 135h1l1 2v1l-2-3zm0 0" fill="#333130"/><path d="M18 15l1 1-1 1h-1l1-2zm0 0" fill="#23221e"/><path d="M87 185h-3l-3 3-1-12-1-5v-1 4l1 2v2l1 6v5l-5 2h-2v-5 5l-3 1-3-11v-1l-1-2v-2 2l1 2 2 12c1 0 1 0 0 0l-3 1-1-1-2-8v-4l-1-2 1 5 2 8v2l-6 1h-6v1l-4 1-5 1h-2 1c1 0 1 0 0 0v-1h1l-1-4-2-9-1-1v-4l-1-1v-4l1 1v1l-1-5v-3l1-8v-2l-1-1v-1h2v1l1 4 1 10 3 13 1 6 1 2-1-2-1-6v-2l-4-18-1-7 2-2v2l1 5v2l1 4-1-3v-4l-1-5v-1l1-1v1l4 22 1 6v-5l-1-2-1-7-2-14v-1h1l2 7v1l1 4-1-5-1-6v-1h2v1l1 4-1-4 1-1h3l1-1 1 1 3 12v3l2 3 1 3-1-3-1-1-1-4v-2l-2-7-1-5h1l1-3h1v4l3 12 2 8 1 4v1l-1-1v-4l-3-15-2-8v-1l1-1h1l3 14 1 4-1-4-2-7-1-6v-1s0-1 1 0h1v1l1 4 1 3-1-4-1-4h1l3 1v1l1 3 1 2-1-2-1-3h3v2l2 6 1 3 3 6-2-4-1-2-2-7v-2l2 1 1 1 2 2 4 11 2 6v1l1 3-1-4-1-6h-1l-2-7-1-4v-1l2 2 4 3c2 2 3 3 3 5l2 3v2l1 3 2 10v-1l-2-8v-1l-1-2v-2l1 1 2 4 2 7 1 1v1l-7 2zm-54-79l1-1 2 1v7l2 13 1 7-2-14v-13h1l1 8 1 3 1 4 1 1-1-1-1-3v-1l-1-2-1-8v-1h1s1-1 1 0h1l1 7 3 9 2 4 2 4v1l-2-4v-2l-2-6-4-13v-1h1l3 7 1 2 1 2v1l-1-3-1-1-2-7-1-1h1l1-1 1 1c2 2 4 5 5 9l2 2-2-2-2-5-3-5 1-1 1 2h1l5 6 5 8 4 6 2 3-5-9-7-10-3-3-2-2 7 3h1v1h1l4 3 2 2 4 5 1 1 1 2 2 5-1 1-2-6-1-1-1-2 1 2 2 6v1l-1 1v-2l-3-6-5-6-1-1-1-2 2 2 4 6 2 5 2 3v1l-2 2h-2v-1 2l-1 1-1-2-4-7-1-1-1-2v-1l1 3 5 9v1s-1 1-2 0l-4-7v-1l-1-1 1 1 2 5 2 3v1l-4 1v-1l-3-6-1-2-1-3-1-2 1 2 1 3 3 7 1 2h-1l-2 1-1-2v3h-3a4465 4465 0 0 1-3-6l-1-2v-1l-1-2 1 2 3 8 1 1h-1l-4 2h-1l-1-4v5h-4l-1-1-1-4-1-1 1 2 1 3v1l-2-1-2-6-1-2v-9l-1-2v-1l1 1v-2 2l1-5v-3l1-1-1-1 1-3zm0 0" fill="#e6d5b6"/><path d="M87 168l-2-5-1-2-7-6h-1l-4-9-2-4-1-1h3l2-1h2l2 4 13 23 1 1v1l2 4 1 2v-2l-2-3-1-2-5-10-10-16-1-2 1-2 1 2 2 4 8 12 8 14 3 6-1 3-2 2h-1l-2-4h-1l-2-7-1-1 1 2 1 2v1l-1-2-2-3v1l-1-2zm-45-63h-1v-2l2-2 2-3v-1h2l7 5 5 4v-1l-7-6c-1 1-2-1-4-1l-1-1h-2l1-1c5 1 10 5 14 8 5 4 8 10 10 16l1 4h-1l-1-2v-1l-4-7-2-4-1-1 1 1 3 7 1 1v1l-2-2-5-6-4-3h-1l-1-2-3-2-4-5 7 7 1 1h-1l-6-3h-2v-1 1h-2l-1-1 1 1-1 1h-1zm0 0" fill="#c8b28b"/><path d="M74 137l-4 3h-1l-2 1-2 1h-1l-1-2v-1 1l1 2-1 1-1-2 1 2h-1l-2 1-1 1h-2v-1l-3-5h2l1 2 1 1-1-1v-2l2-1h1v1l1 3v-1l-1-3 3-2h1v1l1 2-1-3 2-1v1l2 3-1-2-1-2h3v1l1 1-1-2 2 1h2v1h1zm0 0" fill="#e6d5b6"/><path d="M31 118v12l-1-1v-1l1 1v4l1 1v4h-1v-1l-1-2-2-6c-2-6-1-12 1-18l1-2h2l-1 3v6zm0 0" fill="#f7ecd6"/><path d="M51 144l-1-3v-1l2-2h1l1 2 3 4v1h-1v1h-2v-1l-2-2v-1 1l2 2v1l-3 1h-1v-1l-1-1 1 2h-2l-1-5v-1h2l2 4v-1zm-6 4l-1 1h-1l-1-2-1-1v-1 1l2 3h-1l-4 1h-1 1v-1h1v-1l-2-4 1-1 1 1 1 4-1-5 3-1 2 4 1 2zm0 0" fill="#e6d5b6"/><path d="M60 138h-2l-1 1-1-1v1h-2l-1-2h6l5-3 1-1h1l1-1h1l1 3h-3l-1-2 1 1v1l-2 1h-1s1 0 0 0l-3 2zm14 16l-3-2-1-4-2-4v-1l1-2 1 2 2 5 2 6s2 0 0 0zm0 0" fill="#c8b28b"/><path d="M44 146l-1-4v-1l3 1s0-1 0 0h1l1 5v1h-3l-1-2zm0 0" fill="#e6d5b6"/><path d="M43 95h2v2l-4 4-5 1h-1l-1-1h1c1 0 2 0 3-2l5-4zm0 0" fill="#bed2db"/><path d="M50 154l-2-1v1l-1-4 3 2c2 0 4-2 5-3h1v4l-1-1-4 2h-1v-2 2zm24-17h-1 1l-1-2-2-5v-1l1-2 1 1 1 7 2 1-2 1zm-31-36v1l-1 1h-1v2l-1-1v2h-2v-1 1h-1v-1 1h-1l-2-1 1-1h2l6-2v-1zm27 51l-2-2h-1v-1l-2-4 2-1 3 8zm0 0" fill="#c8b28b"/><path d="M57 145v1c-1 3-3 4-6 4h-5l-2-1h2l7-1 3-2 1-1zm7-12l-1 1c-3 2-5 2-8 2h-2c4 0 8-1 11-4v1zm0 0" fill="#bed2db"/><path d="M61 148l-2 1v-2 2c-1 1-2 1-2 3h-1v-3l2-3h3v2zm-19-10l5-2h1l1 1-1-1h3l-5 2h-4zm0 0" fill="#c8b28b"/><path d="M64 131c2 0 4 0 5-2l2-4 1 1-2 3c-1 2-2 3-4 3h-2v-1zm0 0" fill="#bed2db"/><path d="M34 138l2 1v-1 1l1 1-1-1h5l-6 2v-1l-1-2zm0 0" fill="#c8b28b"/><path d="M63 110l6 11v1l1 4-3-7v-1l-4-8zm0 0" fill="#1f1b1f"/><path d="M59 132s0 1 0 0h2l1 1-5 1-5 1 2-1h1l4-1v-1zm0 0" fill="#c8b28b"/><path d="M61 148v-2 2l2 8 1 6s1 1 0 0l-3-12v-2zm0 0" fill="#1f1c1f"/><path d="M44 154l1 8v1l-1-5v-6l-1 1v-1s1 0 0 0c0-2 1-2 2-3v1l-1 2v2zm0 0" fill="#1f1b20"/><path d="M65 145v1l1 3h1l-3-1h-1v-2l2-1zm6-9l-2-1-1-2v-1l2-1 1 4v1zm-25 6h-3v-2h6v1h-2l-1 1zm0 0" fill="#c8b28b"/><path d="M70 131v-1l1 1 2 5h-2l-1-4v-1zm0 0" fill="#c8b28b"/><path d="M36 103h-2v-1h4l5-2c-1 2-4 3-6 3h-1zm0 0" fill="#bfd2da"/><path d="M52 136v1l-2 1-3 2-4-1h-1 5c2 0 3-1 5-3zm0 0" fill="#bed1d9"/><path d="M37 150l6-1v1l-4 2h-2s-1 0 0 0v-2zm0 0" fill="#c8b28b"/><path d="M50 147h1l2-1h1v1l-5 1h-1v-1h2zm0 0" fill="#c6b18b"/><path d="M58 145s-1 0 0 0l6-1 3-2 1-1s1-1 1 0c-2 3-4 4-7 4h-4zm0 0" fill="#bdd0d9"/><path d="M90 170l2 6 1 1 1 5v1l-3-8v-1l-1-3v-1zm0 0" fill="#1f1c1f"/><path d="M37 150v2l-1-2-2-4-1-3 1 1 2 4 1 2zm0 0" fill="#f1e4cb"/><path d="M71 141h-2l1-1 4-2v-1h2c-2 3-4 4-5 4zm0 0" fill="#bfd1da"/><path d="M62 133l-1-1v-2l-4-7-1-1v-1 1l4 5 2 5v1zm0 0" fill="#1f1d1e"/><path d="M94 182l-1-5 1 2 2 2-2 1zm0 0" fill="#e6d5b6"/><path d="M37 142h-4v-1c3 1 6 1 8-1v-1h1v1l-4 2h-1zm0 0" fill="#bdd0d9"/><path d="M67 128l1-1 1 1-1 1-4 1 2-2h1zm-14 11h-1l-2 1v1-2l2-2h1v2zm0 0" fill="#c8b28b"/><path d="M53 139v-2l1 2 3 5 1 1h1-2v-1l-4-5zm0 0" fill="#1f1d1e"/><path d="M45 149l-2 3-2 1-3 1v-1l-1-1v1h3c2 0 3-1 4-4h1zm0 0" fill="#bccfd8"/><path d="M31 138l1-1v-3 2l1 2v1h-1l-1-1zm0 0" fill="#e5d4b6"/><path d="M42 142l-3 1h-1l4-3v2zm2 12v-4h1l1 2-1 2v-1l-1 1zm0 0" fill="#c6b18b"/><path d="M70 126l-1-4 2 2-1 2zm0 0" fill="#e5d4b4"/><path d="M38 143h1l1 5-2-5h-1 1zm0 0" fill="#201e1d"/><path d="M64 142l3-1-2 2h-1v-1zm0 0" fill="#c6b28a"/><path d="M59 164l1 6 1 1-2-6s0 1 0 0v-1zm0 0" fill="#1f1d1e"/><path d="M34 144l-1-1v-1l4 1v1h-1l-1-1h-1v1zm0 0" fill="#c5b089"/><path d="M48 148h1-4l2-1h1v1zm0 0" fill="#c4b08a"/><path d="M37 144v-1 1l2 4h-1v-1l-1-3zm0 0" fill="#22211d"/><path d="M92 168l2 3 1 2h-1l-2-5zm0 0" fill="#24201b"/><path d="M32 139l1-1 1 3-2-2zm0 0" fill="#c5b089"/><path d="M59 145l3-2 1 1-4 1zm0 0" fill="#c4b08a"/><path d="M63 146l-1 1 1 1h-2v-2h2zm0 0" fill="#c6b18b"/><path d="M76 167l-3-6s0 1 0 0l1 1 2 4v1zm0 0" fill="#2e2a24"/><path d="M47 153h-1v-3l1 2v1zm0 0" fill="#c4b08a"/><path d="M54 147v-1l-2-3h1l1 3 1 1h-1zm0 0" fill="#211f1c"/><path d="M50 182v-2l-1-4v1c1 0 0 0 0 0v-2l1 4v3zm0 0" fill="#343029"/><path d="M68 132l1 3 1 2-1-2-1-3h-1 1zm0 0" fill="#332d24"/><path d="M43 150v-1l-2-3h1l1 3h1l-1 1zm0 0" fill="#24221d"/><path d="M64 142l-1-2 1 2zm0 0" fill="#2a2621"/><path d="M49 160l1 5-1-4v-1zm0 0" fill="#3f3a32"/><path d="M31 129v1l1 2h-1v1l-1-4h1zm0 0" fill="#282723"/><path d="M37 144v-1h1l-1 1zm0 0" fill="#c6b18b"/><path d="M64 142v1l-1 1v-1l1-1zm0 0" fill="#c4b08a"/><path d="M63 143v1l-1-1v-2l1 2zm0 0" fill="#3f3a30"/><path d="M55 147l-1-1h2l-1 1zm0 0" fill="#c3af88"/><path d="M64 131c0 1 1 2 2 1v1h-1l-1-1v-1zm0 0" fill="#232321"/><path d="M70 126v1l-1 1v-1l1-1zm0 0" fill="#bfac86"/><path d="M66 120l-1-2 1 2zm0 0" fill="#484239"/><path d="M58 145h3l-1 1h-2v-1zm0 0" fill="#323533"/><path d="M45 148l-1-2 1 2zm0 0" fill="#3d372f"/><path d="M63 129l-1-1 1 1zm0 0" fill="#36322b"/><path d="M17 25l2 6 3 8 1 4-1-4-3-9-1-4v-1l1 1 3 4 1 2 1 9c0 2 2 4 0 6v3l-3 3-1-1v-1 1l1 1h-1l-1 1-1-2-1-3c-1-4-1-7-3-10l-2-9-1-2v-4h2v1l1 5 4 12v1l1 3-1-3v-1l-4-12-1-6h2l2 1zm0 0" fill="#e6d5b6"/><path d="M21 53l1-1 2-2V39l-1-4v-4l-1-1-3-4-1-1v1l-1-4 1-1h1l2 6 5 11v1l1 2v-1l-1-3-2-6-4-9-1-1 1-1c0-1 0-1 0 0h1l5 10c2 3 3 7 3 10v12l-1 1-5 2h-1l-1-2zm0 0" fill="#c8b28b"/><path d="M11 29v-1l3 7 1 5 3 11v1h-1l-3-9-3-8v-2l-1-1 1 2c0 3 1 7 3 10l3 8 1 2-1-1-4-8c-2-3-4-7-4-11l-1-6 1-1v-1h2v3zm0 0" fill="#f7ecd6"/><path d="M17 17h2l-1 2c-3 1-5 2-8 1H9l1-1h1l4-1 2-1zm0 0" fill="#bed2db"/><path d="M13 24l1 7 4 11v1l-3-8-2-9v-3h-1 2l-1 1zm0 0" fill="#1f1b20"/><path d="M19 18v1l-2 2-7 1-1-2h8l2-2zm0 0" fill="#bfd2da"/><path d="M13 24v-1h1l2-1h1v3l-1-1h-3zm0 0" fill="#c8b28b"/><path d="M11 26H9v2H8l1-3v-1h1l1 2zm0 0" fill="#e5d4b4"/><path d="M10 24H9v-2l1 1v1zm2-1h1v1h-2v-1h1zm0 0" fill="#c6b18b"/><path d="M11 23v3l-1-2v-1h1zm0 0" fill="#363129"/><path d="M22 39l1 4-1-4zm0 0" fill="#3e3931"/><path d="M26 37l1 4-1-3v-1zm0 0" fill="#373226"/><path d="M11 19l-3-1-1-1-1-1h1l-2-3-1-3s-1 0 0 0l2-1v1l4 6 1 1-1-1-3-7c1 1 3 0 4-1 0 3 1 5 3 7v1l-2 2h-1v1zm0 0" fill="#e6d5b6"/><path d="M11 18h1l2-2h1s-1 0 0 0l1-3 1 3v-1l-1-8V5h2v10l-1 2-5 2-1-1zm0 0" fill="#c8b28b"/><path d="M16 13l-1 2v1l-1-1-3-7c2 0 3 0 4-2l1 7zm0 0" fill="#e6d5b6"/><path d="M4 10l3 6H6l-1-1-2-3-2-3 3 1zm0 0" fill="#f7ecd6"/><path d="M6 5l1 2-1 1H5L4 7H3l1-2h2zm0 0" fill="#f6ebd6"/><path d="M7 9V8c0-1 2-2 3-1v1c1 0 0 0 0 0L8 9H7zm8-4c-1 2-2 2-4 2V6l3-1h1zm0 0" fill="#f6edd6"/><path d="M9 4v1l2 1H8L7 5V4h2zm7 1h-2V4l2-1 2 1-2 1zm0 0" fill="#f6ebd5"/><path d="M12 3h1v1c0 1 0 0 0 0l-1 1h-2V4l2-1zm0 0" fill="#f6ebd5"/><path d="M8 3l4-2 2 1h-1l-1 1H8zm0 0" fill="#f5ead5"/><path d="M4 9H1l1-1h4v1H4zm0 0" fill="#f6ebd5"/><path d="M8 2L7 4H5l1-1 2-1zm0 0" fill="#f5ebd4"/><path d="M3 5v2L1 8V7l1-1 1-1zm0 0" fill="#f5ead3"/><path d="M16 2l-2 1c-1 0 0 0 0 0l3-1V1l1 1h-2zm0 0" fill="#e9decb"/><path d="M3 5l1-1 1 1H3zm0 0" fill="#efe4ce"/><path d="M14 15l1 1h-1v-1zm0 0" fill="#3d382e"/><path d="M10 16l1 1-1-1zm0 0" fill="#38332c"/><path d="M5 15l1 1 1 1-2-2zm0 0" fill="#232320"/><path d="M17 3h1-1zm0 0" fill="#a9a293"/><path d="M21 64v-2h1l2 7 2 2-2-2-1-6-1-1h1l7 1 2 3 1 2-1-2-1-2h1l1 1 2 2 2 6 1 1v2l1 1v1l1 2 1 8h1v4l-1 1h-1l-2-8-2-4-1-2 1 2 2 7 2 5v1l-1 2v-1a8942 8942 0 0 1-3-6l-3-7-3-5-1-3v-1 1l1 3 4 9 4 9 1 1-3 2v-1l-5-8-2-4-1-2h-1l-4-12-2-6v-1zm0 0" fill="#e6d5b6"/><path d="M43 93v-1l-2-11-1-1-1-3-1-3c-1-5-3-10-6-14l-2-3 1-1v1l8 12c4 6 5 13 4 20v4zM30 63l-6-1h-2v-2l6-1h1l1 4zm0 0" fill="#c8b28b"/><path d="M35 67l-3-3h-1l-1-3-1-2v-1l1-1 4 7 1 3zm0 0" fill="#c8b28b"/><path d="M22 57v1l-4-1v-1h5l6-3v-1h1v1l-2 2-5 2h-1zm0 0" fill="#bed2db"/><path d="M22 60h-3l-1-3 2 1 1 1 5-1 1 1-5 1zm0 0" fill="#bed2db"/><path d="M18 54h1s-1 0 0 0l1-1h1l1 2v1h-3l-1-1v-1zm0 0" fill="#c8b28b"/><path d="M24 58c3-1 5-2 6-4l1 1v1l-7 2zm0 0" fill="#bed1d9"/><path d="M22 60v2l2 6v1h2-2l-2-7v-2zm0 0" fill="#28251f"/><path d="M22 56v-1l-1-2-1-1 1 1 1 2h1l-1 1zm0 0" fill="#2c2821"/><path d="M38 74l1 3-1-3zm0 0" fill="#272520"/><path d="M33 68l-1-2 1 2zm0 0" fill="#454037"/><path d="M21 59l-1-1h3-2v1zm0 0" fill="#2b3133"/><path d="M27 59l-1-1h2l-1 1zm0 0" fill="#5f686d"/><path d="M21 64v1l2 7 4 9 1 2v1l1 2 3 8v1l-1-1-2-3-1-2 1 2 5 7-1 2c-6-8-11-15-13-23l-1-9v-3l1-1c0-1 0-1 0 0l2 9 2 7 2 4 1 1-1-1-2-5c-1-4-3-9-3-14v-1zm0 0" fill="#f7ecd6"/><path d="M39 96l1-2 1 1v2l-4 2v-1h-1l3-2zm0 0M41 93v-2l1-3v8l-1 1v-4zm0 0" fill="#c8b28b"/><path d="M29 91l3 4 2 3 1 1h1-1l-1-1-5-6v-1zm0 0" fill="#211f1c"/><path d="M19 64v-4l1 1v1l-1-1v3zm0 0" fill="#bfad89"/><path d="M36 100h-1l-1-2h2l1 2h-1zm0 0" fill="#c6b18b"/><path d="M34 98l1 2h-2l1-2zm0 0" fill="#c3ae88"/><path d="M39 77l1 2v1l-1-2v-1zm0 0" fill="#4d473e"/><path d="M37 100l-1-2h1v2zm0 0" fill="#584f3d"/><path d="M45 196v1h-3c-3-4-5-7-6-11l-1-7-1-4 1-7 2-10v22l1 3-1-2v-21l1-3v-2h2v12l1 6h-1l1 3v1l-1-1 1 3 1 4c0 5 1 9 3 13zm0 0" fill="#f7ecd6"/><path d="M34 175l1 2v5l2 6c1 3 2 6 5 8v1h-2l-1-1-4-13-1-8zm0 0" fill="#e6d5b6"/><path d="M40 156l-2-1h-1v-1h1c2 1 3 0 4-1v2h-2v1zm0 0" fill="#c8b28b"/><path d="M42 154v-1h1l1-1v2l-1 1s-1 0 0 0h-1v-1zm0 0" fill="#c5b089"/><path d="M37 155h1v1l-1 2v-3zm0 0" fill="#e1d0b2"/><path d="M66 193l-2-9v-3 1l1 2 1 9h1-1zm0 0" fill="#1f1c1f"/><path d="M70 192l-2-11v-1 1l3 10v1h-1zm0 0" fill="#1f1d1e"/><path d="M79 171l1 4v-1 4l-1-4v-3zm0 0" fill="#343029"/><path d="M32 109h-2l2-4h1v2l-1 2zm0 0" fill="#e6d5b6"/><path d="M33 105h-1l1-1v-1l1 1-1 1zm0 0" fill="#c5b189"/><path d="M19 64v-3l1 1v2h-1zm0 0" fill="#e6d5b6"/><path d="M22 60v2h-1v-1l1-1zm0 0" fill="#c8b28b"/><path d="M26 84l-2-4v-1 1l3 4h-1zm0 0" fill="#2c2b26"/><path d="M19 56h-1v-1l1 1zm13 53l1-3-1 3v1l-1 6v2-7l1-2zM11 18h2l3-1h1v1l-5 1h-2c-1 0-1 0 0 0h1v-1zm63 136l-1-5-3-6-1-2 1 1 2 5 5 8 3 9v2l1 1h-1l-4-11-2-2zm-32 0l1 1 1 8 3 18v2l-3-11-2-14v-4zm17-5v-2 2l2 9 3 15h-1l-2-10-2-14zm0 0" fill="#1f1b20"/><path d="M40 156h1l1 3-1 4v3l-1 2v1-13zm0 0" fill="#f6ebd5"/><path d="M58 179l-2-7-2-12v-1l2 11 2 6v3zm0 0" fill="#1e1c1f"/><path d="M45 196l-4-12v-3l1 1v1l1 5 2 8zm0 0" fill="#1f1c1f"/><path d="M40 156v11-12 1zm0 0" fill="#1f1b20"/><path d="M83 167l3 7 2 5v2c0 1 0 0 0 0l-3-8-2-5v-1zm-27 26l-2-7-1-3v-2h1v2l2 7v3zm0 0" fill="#1f1c1f"/><path d="M72 172l-2-11-1-2h1l2 7 1 5v2l-1-1zm0 0" fill="#1f1d1f"/><path d="M89 173l1 3 2 6-1 1-2-7v-3c0-1 0-1 0 0zm0 0" fill="#1f1c1f"/><path d="M44 183l-1-10v-1c-1 0-1 0 0 0v3l1 6 1 2h-1zm0 0" fill="#1f1d1f"/><path d="M57 184l1 3 1 6c1 0 1 0 0 0l-2-7v-2zm0 0" fill="#1e1c1f"/><path d="M51 178l-2-9 1-2v1l1 9v1zm0 0" fill="#201e1d"/><path d="M68 165l2 5 1 5v1l-3-9v-2zm0 0" fill="#2d2a23"/><path d="M49 187h1l1 7v1-1l-2-6v-1c0-1 0 0 0 0zm0 0" fill="#211e1c"/><path d="M67 149l-2-3v-1l2 4v1l1 3-1-4zm0 0" fill="#1f1e1e"/><path d="M80 167s0 1 1 0h-1v-1 1l2 6v1l-2-7zm0 0" fill="#211f1c"/><path d="M63 148l-1-1v-1h1v2l1 4v1l-1-5zm0 0" fill="#1f1b20"/><path d="M40 167v2l1 5v1l-1-2v-6zm0 0" fill="#322f29"/><path d="M50 154v-2 2l1 3v1l-1-4zm8 25v-1 1l1 4 1 1h-1l-1-5zm0 0" fill="#2c2922"/><path d="M47 183v-1l1 3v4l-1-6zm0 0" fill="#38332b"/><path d="M87 169l-4-7 4 7zm0 0" fill="#524b40"/><path d="M78 184l1 4v1l-1-5zm0 0" fill="#484239"/><path d="M72 172l1 1v-1 3l1 2h-1v-2l-1-3zm0 0" fill="#36322a"/><path d="M64 182v1l-1-6v1l1 4zm0 0" fill="#2a2722"/><path d="M54 181h-1v2-6 3l1 1zm0 0" fill="#2c2823"/><path d="M46 191l1 5-1-5zm0 0" fill="#686153"/><path d="M83 167v1l-1-4 1 3zm0 0" fill="#2b2822"/><path d="M42 182h-1v-4 3l1 1zm0 0" fill="#2b2924"/><path d="M45 163l1 3v1l-1-4zm0 0" fill="#292620"/><path d="M63 173h1l1 3v1h-1l-1-4zm0 0" fill="#4b453c"/><path d="M64 153v-1 2l1 2-1-3zm0 0" fill="#3a352d"/><path d="M89 173c0-1 0 0 0 0l-1-3v-1 1l1 3zm0 0" fill="#302c26"/><path d="M44 183h1v4l-1-4zm0 0" fill="#3f3a32"/><path d="M57 184l-1-3 1 2v1zm0 0" fill="#2e2b23"/><path d="M64 162l2 4-2-4zm0 0" fill="#4f4a3e"/><path d="M61 171l1 2v1l-1-3zm0 0" fill="#443f36"/><path d="M68 180l-1-2v-1l1 3zm0 0" fill="#4b453b"/><path d="M51 178v-1l1 3v1l-1-3zm0 0" fill="#4a443b"/><path d="M54 159v-2 2zm0 0" fill="#464137"/><path d="M59 184h1v3l-1-3zm0 0" fill="#665f51"/><path d="M82 174v-1l1 3-1-2zm0 0" fill="#635c4e"/><path d="M88 181l1 2-1-2zm0 0" fill="#36322a"/><path d="M71 176l1 3-1-3zm0 0" fill="#6e6557"/><path d="M41 178v1l-1-3 1 1v1zm0 0" fill="#5a564d"/><path d="M68 153l1 2-1-2zm0 0" fill="#504a3f"/><path d="M48 189l1 2-1-2zm0 0" fill="#8e8470"/><path d="M73 177h1v2l-1-2zm0 0" fill="#897f6c"/><path d="M82 164l-1-2 1 2zm0 0" fill="#655e51"/><path d="M88 169v1l-1-2h1v1zm0 0" fill="#686051"/><path d="M53 177v1l-1-2 1 1zm0 0" fill="#766d5d"/><path d="M64 177h1v2l-1-2zm0 0" fill="#897f6c"/><path d="M43 172s0-1 0 0v1-2 1zm0 0" fill="#544d43"/><path d="M56 193s1 1 0 1v-1zm0 0" fill="#4e483e"/><path d="M42 183v-1 1zm0 0" fill="#2b2924"/><path d="M36 106l1-1v7l1 16 1 5-2-7-1-13v-7zm28 22l-5-9-11-13v-1l1 1 10 13 4 6 1 3c0 1 0 1 0 0zm-24-22v-3 1l1 2 2 8 4 10v2l-1-2-6-18zm0 0" fill="#1f1b20"/><path d="M67 128l-3-6-6-9c5 4 8 9 9 15zm-32-19l-1 7v9-16l1-1v1zm9-5l-1-1 2 1 6 10h-1l-4-7-2-3zm4 32l1 1c0 1 0 0 0 0l-1-1-4-8v-1l2 5 2 4zm0 0" fill="#1f1c1f"/><path d="M38 106v-1 1l1 6 1 3v2l-2-11zm0 0" fill="#1e1d1f"/><path d="M31 117l1-7v-1l1 1v1l-2 5v1zm0 0" fill="#f6ebd5"/><path d="M55 134l-3-7-1-2 3 6 1 3zm0 0" fill="#1f1c1f"/><path d="M33 132l-1-5v-6l1 10v1s1 0 0 0zm0 0" fill="#1f1d1f"/><path d="M43 133l-2-4-1-5s-1 0 0 0v1l3 7v1zm0 0" fill="#1f1d1e"/><path d="M42 105v-1l1 1 2 7 1 2-4-9zm0 0" fill="#201e1d"/><path d="M59 132v1l-4-9 3 6 1 2zm0 0" fill="#312d26"/><path d="M36 139l1 1-1-2-1-3h-1l1-1 1 4v1zm0 0" fill="#26231e"/><path d="M47 126s0 1 0 0l1 2 1 3-2-5zm0 0" fill="#23211d"/><path d="M51 125l-1-3c0-1 0 0 0 0l1 2v1zm0 0" fill="#2b2822"/><path d="M40 117l1 1v3l-1-4zm0 0" fill="#343029"/><path d="M49 106l-1-1-2-1v-1l1 1 2 2zm0 0" fill="#4a4439"/><path d="M50 114h1l1 3-2-3zm0 0" fill="#3d372f"/><path d="M58 113l-2-2 2 2zm0 0" fill="#524b40"/><path d="M46 114l1 3-1-3zm0 0" fill="#554f43"/><path d="M44 127l-1-2 1 2zm0 0" fill="#443f36"/><path d="M56 122c0-1 0-1 0 0l-2-3h1l1 3zm0 0" fill="#554f43"/><path d="M43 133l1 2-1-2zm0 0" fill="#433e35"/><path d="M35 109v-1l-1 1 1-2v2zm0 0" fill="#423d34"/><path d="M55 107l-1-1 1 2v-1zm0 0" fill="#504838"/><path d="M35 134l-1 1v-2l1 1zm0 0" fill="#625a4d"/><path d="M50 122c0-1 0 0 0 0l-1-2 1 2zm0 0" fill="#746c5c"/><path d="M49 131l1 1-1-1zm0 0" fill="#766d5d"/><path d="M55 124l-1-1 1 1zm0 0" fill="#7e7464"/><path d="M41 121l1 1-1-1zm0 0" fill="#8a806d"/><path d="M33 132l1 1-1-1zm0 0" fill="#6f6758"/><path d="M40 124l-1-1 1 1zm0 0" fill="#504a3f"/><path d="M74 142l2 3 6 12h1l-1 1-8-15-1-1h1zm0 0" fill="#1f1c1f"/><path d="M76 149l-5-6v-1l1 1 4 6c0 1 0 0 0 0zm0 0" fill="#231f1b"/><path d="M96 172l1 4 1 2-2-5-1-1h1zm0 0" fill="#201d1e"/><path d="M82 158l1-1v2l1 2-2-3zm0 0" fill="#4d4536"/><path d="M96 172h-1v-2l1 2zm0 0" fill="#494133"/><path d="M76 149s0 1 0 0l1 4-1-4zm18 24s1 1 1 0v3l-1-3zm0 0" fill="#594f3e"/><path d="M90 170v1l-1-3 1 2zm0 0" fill="#675c48"/><path d="M74 142h-1v-1l1 1zm0 0" fill="#473f31"/><path d="M47 97c4 1 8 5 11 7l1 1v1c-3-3-7-7-11-8l-1-1zm0 0" fill="#1f1c1f"/><path d="M54 106l-8-7h1l5 5 2 2zm0 0" fill="#22201b"/><path d="M63 110l-1-1 1 1zm0 0" fill="#564d3c"/><path d="M59 106v-1l1 2-1-1zm0 0" fill="#5e5442"/><path d="M66 135l-1-2 1 2 2 4v1l-2-5zm0 0" fill="#1f1e1d"/><path d="M70 131v1l2 4h-1l-1-4v-1zm0 0" fill="#1f1b20"/><path d="M63 136v-1h1v1l1 3-2-3zm0 0" fill="#1f1d1e"/><path d="M60 138s-1 0 0 0l1 3v1l-1-4zm0 0" fill="#201e1d"/><path d="M56 139v-1h1v3l-1-2zm0 0" fill="#1f1d1e"/><path d="M57 141l1 1-1-1zm0 0" fill="#484239"/><path d="M71 136h1v1l-1-1zm0 0" fill="#c8b28b"/><path d="M31 129h-1v-1l1 1zm0 0" fill="#716c62"/><path d="M48 148v-1l-1-4-1-1v-1h1v1l1 4v2zm0 0" fill="#201e1d"/><path d="M50 147l1 1-1-1-1-3 1 3zm0 0" fill="#484238"/><path d="M53 143h-1v-1l1 1zm0 0" fill="#5c5549"/><path d="M37 144v1l1 3 1 1-1 1h-1v-1l-1-1v-1l-1-3v-1h1l1 1zm0 0" fill="#f7ecd6"/><path d="M36 148l1 2-1-1v-1zm0 0" fill="#34322c"/><path d="M42 146h-1v-1l1 1zm0 0" fill="#615a4d"/><path d="M39 149l-1-1h1v1zm0 0" fill="#6f6758"/><path d="M40 148l1 1-1-1zm0 0" fill="#817866"/><path d="M36 148v1l-2-5v-1h1v3l1 2zm0 0" fill="#1e1c1f"/><path d="M24 49v1l-1-3 1 2zm0 0" fill="#24211b"/><path d="M18 43v-1l1 3v1l-1-3zm0 0" fill="#423d34"/><path d="M19 54v1l-1-1-1-2h1l1 2zm0 0" fill="#4e483e"/><path d="M19 46l1 1-1-1zm0 0" fill="#877e6b"/><path d="M27 45v9-9zm0 0" fill="#221e1c"/><path d="M18 52h-1l-6-14v-4l-1-1h1v1c1 6 4 11 6 17l1 1zm0 0" fill="#1f1b20"/><path d="M11 33h-1l1 1-1-2 1 1zm0 0" fill="#3b3934"/><path d="M30 77l4 7 4 9 1 2h-1l-4-8-4-9v-1zm11 18l-1-1-1-3a6316 6316 0 0 1-3-9v-1c-1 0 0 0 0 0l4 11 1 1v2zm0 0" fill="#1f1c1f"/><path d="M37 98h-1v-1l-6-9-1-2v-1l6 11 1 2h1zm0 0" fill="#1e1c1f"/><path d="M32 73c-2-2-3-5-3-7v-1 1l3 7zm0 0" fill="#322e27"/><path d="M30 77l-1-3 1 3zm0 0" fill="#36322a"/><path d="M29 85h-1v-2l1 2zm0 0" fill="#575045"/><path d="M38 95h1v1l-1-1zm0 0" fill="#39342a"/><path d="M36 81l-2-2 2 2zm0 0" fill="#5b5448"/><path d="M24 69l2 2-2-2zm0 0" fill="#696153"/><path d="M32 73l1 2-1-2zm0 0" fill="#6f6758"/><path d="M28 84l1 1 4 7 3 6h-2l-2-3v-1l-2-5-2-5zm0 0" fill="#e6d5b6"/><path d="M29 91l-2-2 2 2zm0 0" fill="#514d46"/><path d="M26 84h1v1l-1-1zm0 0" fill="#797369"/><path d="M37 158l1-2s0-1 0 0v1l-1 10v5-14zm0 0" fill="#1f1b20"/><path d="M40 186v1l3 10-1-1-2-6-1-4h1zm0 0" fill="#1f1c1f"/><path d="M37 173v-6 12l1 1-1 1v-8zm0 0" fill="#32312b"/><path d="M37 180v1l1-1v4l-1-4zm0 0" fill="#615d54"/><path d="M40 186h-1v-2l1 2zm0 0" fill="#635e55"/><path d="M38 180l-1-1 1 1zm0 0" fill="#615d54"/><path d="M5 5L4 4 3 5h2zm11-3h1s1 0 0 0h-1l-2 1c-1 0-1 0 0 0 0 1 0 0 0 0l2-1zM3 6H2L1 7v1l2-1V6zm5-3H5v1h2l1-1zm29 150l1 1 3-1 3-3v-1c-2 4-4 5-7 4zM4 9h2L4 8H2v1h2zm4-6h5l1-1h-2L8 3zm5 1l-1-1-2 2h3V4zm17 50c-1 3-4 4-8 4l8-2 1-2h-1zm7 88l4-1 1-1-1-1-1 1c-2 2-4 2-7 1v1h4zM16 5l2-1-2-1-2 1v1h2zm-5 1L9 4H7L6 6h5zm60 135h1l4-3v-1l-2 1c-1 2-3 2-5 3h2zM15 6l-1-1-3 1v1l4-1zM7 9h2l1-1-1-1-2 1-1 1h1zm0-2L6 5H4L3 7l2 1h1l1-1zm50 138l1 1h3c3-1 6-2 8-5h-1l-1 1-1 2-6 1h-3zm-5-9c-2 2-3 3-5 3h-5l1 1h4l3-2 2-1v-1zm-8-36c-3 2-7 3-10 2v2l7-2 3-3zM18 57v2l1 1c2 0 5 0 8-2l-4 1-3-1-2-1zm-6-35c2 0 5 0 6-2l2-1-1-1v1l-1 1-4 1H9s0-1 0 0l2 1h1zm59 103l-2 4c-2 2-3 2-5 2l1 1c0 1 0 1 0 0 2 0 4-1 5-3l2-3-1-1zm-8 7c-2 3-6 4-10 4h2c3 1 6 0 8-2l1-1-1-1zm-18 17l1 1h5c3 0 5-1 6-3v-1l-1 1-6 2h-5zM12 20l6-1v-2l-5 2H9v1h3zm8 38h2l6-2 2-3v-1l-1 1c-3 3-7 5-11 3v1l2 1zm16 44l6-2 3-3v-2h-1l-2 2c-2 3-5 4-8 4h-1l1 1h2zM11 8l4 8c-2-2-4-5-4-8-1 2-3 2-4 1l4 8-1-1c-1-1-3-3-3-5l-1-1H1h1c0 2 2 4 3 5l3 3 1 1h2v-1l2 1 4-2 1-1v-2-9l-2 1h-1l1 1 1 8v1L15 6c-1 2-2 2-4 2zm8 38v-1l-5-14c-1-3-2-5-1-8h-2v6l-1-6-1-1v3c-1 6 0 12 2 17l8 14h3v-1l-1-2-1-1 2 3 1 1 5-3v-1l1-3c0-7 0-13-2-18l-7-11-1 1 1 1c3 6 6 12 7 18v1l-1-1-7-18-1-1v1l-1 1 6 18v1l-5-14-2-6-3 1 1 6 4 14 1 3zm14 23l-1-1-4-9-5 1-1 1 4 9v1c-2-2-4-7-4-9l-1-1h-1l1 6c1 6 2 11 5 16l1 2-1-1-6-18v-5l-1-1v10c0 5 1 10 4 15l10 15h2l-2-3-2-3-2-2-2-3 1 1 5 6 2 4c2 0 4-2 5-3l1-1v-1l-6-15v-1c3 6 5 11 6 18l1-2c0-6-1-11-3-16v-1l3 8 1 9v-6c1-7-1-15-5-21l-7-11s0-1 0 0h-1l3 4c3 6 5 11 6 17l-7-18-2-2c0-1 0-1 0 0h-1v1l2 5 2 5zm22 51c3 4 5 7 6 11l1 1 1-1v-2 1h2l3-1 1-1-3-9-1-1 4 10 1-1-2-5-6-12v-1c4 6 7 11 8 17l1-2a35 35 0 0 0-19-25c-2-2-4-2-6-2h-1v1l-1 3-9 3h-1l-1 4-2 9v2-9l2-4 1-2-1-1v1l-5 9-1 13 3 9 2 5 2 1-1-3-1-2-1-3v-2l-1-3 1 4 4 8v1c2 0 4 0 6-2v-3-1 2l1 1 1 1 3-1 5-2v-1l-1-2 2 2h3l6-2v-1l-3-7-3-5zm14 22l-1 2c-1 0 0 0 0 0l1 3 7 19v1c-3-4-4-9-6-14l-3-9c-2 2-4 2-6 2v1l3 13 1 6v-2c-2-3-2-6-3-10l-1-7-1-1h-2v1l-2 2 1 5 4 19 1 1h-1l-4-14-1-10-1-1-3 3c-1 0-3 0-5-2v2l2 9 1 4v-1l-2-6-1-6-1-2 1 8 3 21v3l-4-26-1-6c1 0 0 0 0 0l-1 2 2 13v3l-2-16-2 1c-1 2-3 2-4 1h-1v4l-2 14v11l4 13 1 1h5l5-1 5-1 4-1 7-1v-2l-3-12v-1 1l3 13 1 1 3-1-3-14 3 9 1 5 3-1v-4 4h2l4-2 1-1v-1l-2-16v-1l2 18 3-2 1-1 6-1 2-1 1-1-1-1-3-11h-1l1 1 3 9 1 2s0 1 0 0l5-4v-2l-2-5-8-13-8-12-3-7-1-1-1 2 2 3 10 17 7 13v1l-3-6-14-24-2-3h-7v1zm5-5h-1v-1l-2-6h-1l-2 2h-1l-2 1-1 1-6 3h-6l-2 3h-1l2 5-2-5-3 1-3-1v1l1 6 1 1c-2-3-3-5-3-8l-1 1-4 2 2 6-2-6h-1l-2-1-1 1 1 3 2 4 1 2h2c1 0 3 0 4-2v-1l-2-3v-1 1l2 3h2l4-1 5-1-2-5 2 5h1l1-2h1v-1l-1-1-3-6s-1 0 0 0l4 7 1 1 4-1 1-1-1-1v-1l1 2 1 1v-1l3-2h1v-1h2l4-3 2-1-2-1-1-7-1-1-1 3 2 5 1 2zM18 55c-5-6-9-13-10-20V19v-1l-4-3-3-3V9L0 8V7l2-2 2-1 1-1 3-1h1l2-1h2l1 1 3-1h1v2l1 11-1 2 1 2h1l1 2c5 5 7 12 8 18v14l1 1h1v3c5 6 10 13 12 20 2 6 2 12 0 18v1c1-1 2 0 3 1 4 0 8 2 11 5 8 5 12 12 14 21v2h1v2l1 2c1 2 3 4 3 7v2l1 1 1 2 8 12 8 12 5 9v6c-2 3-5 5-8 6l-6 1h-1l-7 6-11 2h-8l-2 1-6 2-5 1h-4l-2-2v-1c-4-6-6-13-5-20l2-14 1-6v-1l-1-2-3-7v-3l-1-1v-1c-3-4-4-8-5-13-1-4-1-9 1-14 0-3 1-5 3-8l2-2v-2l-1-2c-8-8-13-17-14-28V59l-1-2c1 0 0 0 0 0v-1l1-1zm0 0" fill="#1f1b20"/><path d="M69 142h1l1 1 8 19c1 4 3 8 3 13l1 1-1-2c-2-9-5-18-10-27l-3-5zm-27 12l6 36-1-5-4-24-1-6v-1zm23 23l-2-4-4-21v-5 1l5 27 1 2zm-27-22v28l-1-3a55 55 0 0 1 0-18l1-6v-1zm22 31a95 95 0 0 1-4-14l4 14zm-19-10l-1-4-1-12 1-4v-1c1 0 0 0 0 0v13l1 8zm-1 1l1 5 4 14-1-1-2-8-2-9v-1zm48 6a162 162 0 0 0-6-19l4 10 2 8v1zm-4-23l-11-18h1l3 4 6 13 1 1zm-31 17v3l3 13v1-1l-2-5-1-10v-1zm16-18l1 1 1 6 2 10v2l-4-19zm19 10l1 2 2 11 1 1h-1v-1l-2-8-1-5zm-45 2l2 16-3-16h1zm-4 14v1l4 11-1-1-3-11zm17-5v1l3 11v1s1 0 0 1v-1l-3-13zm-6-13l2 14c-1-2-3-13-2-14zm21 11l-3-13 3 13zm-22 8l2 8v1l-2-9zm16-30l-1-1-2-7v-2l1 1 1 8 1 1zm4-1l-4-9 1 1 3 7v1zm26 15v1l3 6v1l-3-7v-1zm-24-28l6 10-6-10zm-20 17l-1-7 1 7zm28 30l-1-6 1 6zm8-21l-3-5 3 5zm-41 24l1 4-1-4zm-9-87v14l2 16c-2-7-3-14-3-22v-7l1-1zm9-1c5 3 18 22 18 26l-8-14-10-12zm3 28l-1-3-8-23v-3 1l2 8 7 19v1zm8-20c4 4 8 8 9 13l1 3-3-6-7-10zm-23 15c-1-3 0-18 1-20l-1 10v10zm25-20L46 97h1l4 3 8 5v2zm-16-4h1l1 2c3 3 5 7 6 11h1l-9-13zm0 0M41 121l-1-3-2-10v-3c0 6 2 11 3 16zm9 0l1 2 4 11-1-1-4-12h-1 1zm-7 4v1l6 11v1l-1-1-1-1-4-10v-1zm-9 8c-2-1-3-11-2-12l2 12zm10 2c-2-1-5-11-5-12l5 12zm-2-30l5 11-5-11zm4-5l9 7-9-7zm13 33l-5-9 5 9zm-25 1l3 6-3-6zm5-37c-4-7-8-15-10-24l10 24zm-2 3l-1-2-3-5-5-8v-2l9 16zm-5-26c-1-3-3-5-3-8l3 8zM18 54c-3-7-6-13-7-19l-1-2v-1l4 11 4 11zm9 0v-9 9zm-3-7v0zm13 103l-1-1-2-5v-1h1l1 4 1 3zm28-17c1 2 3 4 3 7l-3-7zm-17 15v-1l-2-5v-1h1l1 4v3zm-8 1l-2-5v-1h1l1 6zm32-12l-2-6 2 6zm-7 3l-2-4v-1l1 1v1l1 3zm-4 2l-1-3-1-1h1l1 4zm-3 0l-2-3v-1l2 4zm9-10l1 1 2 4-2-4-1-1zm-3 11l-1-3 1 3zm-14 5l-1-3 1 3zm0 0" fill="#1f1b20"/></g></svg>