<svg height="133pt" viewBox="0 0 237 133" width="316" xmlns="http://www.w3.org/2000/svg"><path d="m75.02 122.42c-2.06-2.06-4.1-3.97-6.33-5.87-5.98-34.34-11.8-68.69-17.77-103.04 1.88-2.6 3.93-5.18 5.81-7.77 6.15 38.84 12.3 77.67 18.29 116.68zm0 0" fill="#705749"/><path d="m56.73 5.74a85.8 85.8 0 0 1 8.03 5.7c4.78 34.35 9.74 68.86 14.53 103.38-1.38 2.6-2.92 5.02-4.27 7.6-5.98-39-12.14-77.84-18.29-116.68zm0 0" fill="#d0a365"/><path d="m85.6 120.87c-2.04-2.07-4.1-3.97-6.31-6.05-4.8-34.52-9.75-69.03-14.53-103.38l6.15-7.77c4.78 39.01 9.74 78.2 14.7 117.2zm0 0" fill="#705749"/><path d="m70.91 3.67c2.57 1.9 5.13 3.97 7.69 5.87 3.94 34.7 7.7 69.4 11.45 103.9-1.53 2.42-3.07 5.01-4.44 7.43-4.96-39-9.92-78.19-14.7-117.2zm0 0" fill="#d0a365"/><path d="m96.03 119.66c-2.05-2.07-3.93-4.14-5.98-6.21-3.75-34.52-7.51-69.22-11.45-103.91 2.22-2.41 4.28-5 6.5-7.42 3.58 39.18 7.17 78.36 10.93 117.54zm0 0" fill="#705749"/><path d="m85.1 2.12c2.55 2.08 4.95 3.97 7.51 6.21l8.2 104.08c-1.7 2.41-3.24 4.84-4.78 7.25a26431.6 26431.6 0 0 1 -10.93-117.54zm0 0" fill="#d0a365"/><path d="m106.46 118.8c-1.88-2.07-3.76-4.14-5.64-6.39l-8.2-104.08c2.22-2.59 4.44-5 6.66-7.42 2.39 39.36 4.78 78.7 7.18 117.89zm0 0" fill="#705749"/><path d="m99.28.91c2.39 2.07 4.95 4.31 7.34 6.4 1.54 34.85 3.25 69.72 4.79 104.4a105.81 105.81 0 0 1 -4.95 7.09c-2.4-39.18-4.8-78.53-7.18-117.89zm0 0" fill="#d0a365"/><path d="m117.05 118.45-5.64-6.73c-1.54-34.69-3.25-69.56-4.79-104.42 2.22-2.25 4.45-4.67 6.84-7.08zm0 0" fill="#705749"/><path d="m113.46.22 7.18 6.73c.5 34.87 1.02 69.74 1.54 104.42-1.72 2.43-3.42 4.67-5.13 7.08zm0 0" fill="#d0a365"/><path d="m127.64 118.28c-1.88-2.42-3.59-4.66-5.46-6.9l-1.54-104.44c2.22-2.41 4.61-4.66 7-6.9v118.23zm0 0" fill="#705749"/><path d="m127.64.05c2.4 2.24 4.62 4.49 7 6.9-.5 34.87-1.19 69.74-1.7 104.42-1.71 2.25-3.59 4.5-5.3 6.9v-118.21zm0 0" fill="#d0a365"/><path d="m138.06 118.45c-1.54-2.41-3.42-4.65-5.12-7.08.51-34.68 1.2-69.55 1.7-104.42 2.4-2.25 4.8-4.48 7.18-6.73-1.2 39.36-2.39 78.88-3.76 118.23zm0 0" fill="#705749"/><path d="m141.82.22c2.22 2.41 4.62 4.83 6.84 7.08-1.71 34.86-3.25 69.73-4.96 104.42l-5.64 6.73c1.37-39.35 2.56-78.87 3.76-118.23zm0 0" fill="#d0a365"/><path d="m148.66 118.8c-1.53-2.25-3.25-4.66-4.96-7.08 1.71-34.69 3.25-69.56 4.96-104.42 2.4-2.08 4.78-4.32 7.34-6.39-2.39 39.36-4.95 78.7-7.34 117.89zm0 0" fill="#705749"/><path d="m156 .91c2.23 2.42 4.45 4.83 6.5 7.42-2.56 34.7-5.3 69.38-8.04 104.08l-5.8 6.39c2.4-39.18 4.95-78.53 7.34-117.89zm0 0" fill="#d0a365"/><path d="m159.25 119.66c-1.54-2.41-3.25-4.84-4.79-7.25 2.75-34.7 5.48-69.38 8.04-104.08 2.57-2.24 5.12-4.13 7.69-6.21-3.58 39.18-7.35 78.36-10.94 117.54zm0 0" fill="#705749"/><path d="m170.19 2.12c2.22 2.42 4.27 5 6.32 7.42-3.76 34.7-7.52 69.4-11.28 103.9-2.04 2.08-4.1 4.15-5.98 6.22 3.6-39.18 7.18-78.36 10.94-117.54zm0 0" fill="#d0a365"/><path d="m169.68 120.87c-1.54-2.42-2.91-5-4.45-7.42 3.76-34.52 7.52-69.22 11.28-103.91 2.56-1.9 5.13-3.97 7.86-5.87-4.95 39.01-9.74 78.2-14.7 117.2zm0 0" fill="#705749"/><path d="m184.37 3.67c2.06 2.6 4.1 5.18 5.98 7.77-4.79 34.35-9.56 68.86-14.53 103.38-2.04 2.08-4.1 3.98-6.14 6.05 4.95-39 9.74-78.19 14.7-117.2zm0 0" fill="#d0a365"/><path d="m180.1 122.42c-1.37-2.58-2.74-5-4.28-7.6 4.97-34.52 9.74-69.03 14.53-103.38a115.7 115.7 0 0 1 8.04-5.7c-5.98 38.84-12.14 77.67-18.29 116.68zm0 0" fill="#705749"/><path d="m198.39 5.74c2.04 2.6 3.92 5.18 5.98 7.77-5.98 34.35-11.96 68.7-17.78 103.04-2.22 1.9-4.44 3.8-6.49 5.87 6.15-39 12.3-77.84 18.29-116.68zm0 0" fill="#d0a365"/><path d="m48.36 129.5-22.22 3.45a8.72 8.72 0 0 1 -9.91-7.42l-16.06-104.93a8.54 8.54 0 0 1 7.18-10.01l22.2-3.63zm0 0" fill="#cf453e"/><path d="m66.81 126.56-17.94 2.77c-2.56.51-4.78-1.2-5.13-3.8l-17.43-113.4a4.5 4.5 0 0 1 3.76-5.18l17.94-2.75a4.45 4.45 0 0 1 5.13 3.79l17.43 113.4a4.62 4.62 0 0 1 -3.76 5.17zm0 0" fill="#b93431"/><path d="m39.82 10.75s0 .17-.34.69c-.18.52-.52 1.2-.7 2.07-.17.35-.33.86-.5 1.38 0 .52 0 1.2-.17 1.73 0 1.38.16 2.76.5 4.31a15.76 15.76 0 0 0 1.88 4.31c.69.7 1.03 1.39 1.72 1.9.85.7 1.53 1.21 2.22 1.9 1.53 1.39 3.41 2.94 4.1 5.7.17 1.38 0 2.6-.52 3.97a17.05 17.05 0 0 1 -1.88 2.93c-.5.87-1.2 1.73-1.54 2.42-.34.52-.68 1.04-.68 1.38-.17.52-.33.86-.33 1.2-.18.87-.18 1.9 0 2.6.16.35.16 1.03.5 1.38.17.17.35.52.51.86 1.03 1.22 2.75 1.73 4.1 1.22a2.77 2.77 0 0 0 2.06-2.95c-.18-1.2-1.03-2.4-2.05-2.58h-.86l-.68.17-1.03 1.04c-.5.69-.5 1.37-.5 1.9.17.51.17.69.17.69s0-.18-.34-.7c0-.34-.18-1.2.34-2.24.16-.34.5-.86 1.02-1.2.17-.18.52-.35.86-.53.33 0 .5-.16 1.2-.16 1.53.16 3.07 1.55 3.4 3.45 0 .34.17 1.2 0 1.55v.17c0 .17 0 0-.17.35v.17l-.33.69a4.02 4.02 0 0 1 -2.4 2.07c-.5.34-1.02.34-1.7.52h-.86c-.35 0-.51 0-.86-.18a5.05 5.05 0 0 1 -1.7-.68 8.4 8.4 0 0 1 -1.37-1.21c-.52-.34-.86-1.04-1.2-1.56-.33-.51-.33-.86-.51-1.37a9.63 9.63 0 0 1 -.17-3.8c0-.7.35-1.21.51-1.9.18-.52.34-1.04.69-1.56.5-1.03 1.2-1.9 1.88-2.76.5-.86 1.2-1.73 1.53-2.59.18-.51.51-1.55.34-2.24-.34-1.56-1.7-2.94-3.07-4.32-.68-.69-1.53-1.37-2.22-2.07-.69-.86-1.2-1.73-1.88-2.41-.86-1.9-1.54-3.63-1.71-5.35a9.7 9.7 0 0 1 .17-4.5c.17-.68.17-1.38.35-1.89.33-.52.5-1.04.67-1.56.34-.86.86-1.38 1.2-1.72.17-.52.35-.69.35-.69zm16.58 107.88-.53-.52c-.5-.34-1.2-.7-1.7-1.38-.35-.35-.69-.87-1.03-1.2-.34-.53-.69-1.05-1.03-1.73a14.48 14.48 0 0 1 -1.54-4.32c-.16-1.72-.16-3.46.18-5.53.34-.86.69-1.9 1.03-2.93.33-.68 1.02-1.72 1.54-2.59.85-1.72 1.7-3.45 1.53-5 0-.7-.68-1.73-1.03-2.07a8.18 8.18 0 0 0 -2.22-1.9c-.85-.7-1.7-1.38-2.73-2.25-.34-.35-.68-.69-1.03-1.21-.34-.5-.85-1.03-1.02-1.55a12.7 12.7 0 0 1 -1.02-3.63c.16-.68 0-1.03.16-1.72.17-.52.35-1.2.69-1.72.17-.53.51-1.21.85-1.56.51-.52 1.03-.86 1.37-1.21.51-.17.51-.17.85-.34.17-.17.51-.17.85-.35.52 0 1.2-.17 1.72 0 1.03 0 2.22.52 2.9 1.2l.51.53.17.17.18.35.16.17c.18.35.34 1.03.34 1.55a3.79 3.79 0 0 1 -2.21 4.14c-.52.35-.68.18-1.02.35-.35-.17-.87-.17-1.03-.17a5.75 5.75 0 0 1 -1.54-1.04 3 3 0 0 1 -.86-2.07c.18-.52.18-.69.18-.69v.69c.16.52.34 1.2 1.02 1.72.35.35.86.52 1.36.52l.7.18.67-.35c1.03-.51 1.54-1.9 1.38-3.1a3.17 3.17 0 0 0 -3.09-2.25c-1.36 0-2.73 1.03-3.41 2.41-.17.35-.17.7-.34 1.04v1.55c.17.52.34 1.56.85 2.43.17.34.35.68.68 1.02.18.35.68.7 1.03 1.04.52.69 1.37 1.21 2.22 1.9.85.7 1.88 1.38 2.73 2.24a7.6 7.6 0 0 1 1.55 3.63c.34 2.76-1.2 4.83-2.06 6.56-.68.86-1.02 1.56-1.54 2.59-.5.7-.85 1.56-1.2 2.24-.33 1.73-.67 3.29-.5 4.83.17 1.56.5 2.94.85 4.15.35.51.51 1.03.69 1.55.33.52.68 1.04.85 1.38.51.69 1.03 1.21 1.36 1.55.34.52.52.7.52.7zm-3.95-55.23a3.48 3.48 0 0 1 -2.9 3.96 3.63 3.63 0 0 1 -4.1-2.93 3.77 3.77 0 0 1 3.08-4.14 3.38 3.38 0 0 1 3.92 3.1zm-22.89-29.7-13.84 2.07-.5-2.93 13.83-2.07zm0 0" fill="#fefefe"/><path d="m20.33 33.53c.34 2.76-1.36 5.35-4.1 5.7a4.78 4.78 0 0 1 -5.64-4.14c-.5-2.77 1.37-5.18 4.1-5.7a5.02 5.02 0 0 1 5.64 4.14zm0 0" fill="#bdbab9"/><path d="m31.44 45.96-13.84 2.07-.51-2.93 13.84-2.25zm0 0" fill="#fefefe"/><path d="m22.21 45.79c.34 2.76-1.36 5.35-4.1 5.69a4.78 4.78 0 0 1 -5.64-4.14c-.5-2.76 1.37-5.18 4.1-5.7a5 5 0 0 1 5.64 4.15zm0 0" fill="#bdbab9"/><path d="m33.32 58.04-13.84 2.25-.51-2.94 13.84-2.24zm0 0" fill="#fefefe"/><path d="m24.09 58.04c.34 2.76-1.36 5.35-4.1 5.7-2.73.35-5.3-1.39-5.64-4.14a4.81 4.81 0 0 1 4.1-5.7c2.74-.52 5.13 1.39 5.64 4.14zm0 0" fill="#bdbab9"/><path d="m35.2 70.3-13.84 2.24-.51-2.93 13.84-2.25zm0 0" fill="#fefefe"/><path d="m25.97 70.3a5.02 5.02 0 0 1 -4.1 5.7c-2.73.34-5.3-1.4-5.64-4.15a4.82 4.82 0 0 1 4.1-5.7c2.74-.51 5.13 1.39 5.64 4.14zm0 0" fill="#bdbab9"/><path d="m37.08 82.55-13.84 2.25-.51-2.94 13.84-2.24zm0 0" fill="#fefefe"/><path d="m27.86 82.55a5.03 5.03 0 0 1 -4.1 5.7c-2.74.34-5.31-1.55-5.65-4.14a4.81 4.81 0 0 1 4.1-5.7c2.74-.52 5.13 1.38 5.65 4.14zm0 0" fill="#bdbab9"/><path d="m38.96 94.8-13.84 2.25-.51-2.93 13.84-2.25zm0 0" fill="#fefefe"/><path d="m29.73 94.8a5.13 5.13 0 0 1 -4.1 5.7 5.03 5.03 0 0 1 -5.63-4.14 4.82 4.82 0 0 1 4.1-5.7c2.74-.51 5.13 1.4 5.64 4.14zm0 0" fill="#bdbab9"/><path d="m40.84 107.06-13.84 2.24-.51-3.1 13.84-2.07zm0 0" fill="#fefefe"/><path d="m31.62 107.06a5.14 5.14 0 0 1 -4.1 5.7 5.01 5.01 0 0 1 -5.64-4.32c-.52-2.58 1.36-5.17 4.09-5.7a5.13 5.13 0 0 1 5.65 4.32zm0 0" fill="#bdbab9"/><path d="m208.98 7.13 24.43 4.13a4.43 4.43 0 0 1 3.59 5.01l-18.29 109.09a4.56 4.56 0 0 1 -5.12 3.62l-24.43-4.14a4.47 4.47 0 0 1 -3.42-5.18l18.28-108.9a4.3 4.3 0 0 1 4.96-3.63zm0 0" fill="#b93431"/><path d="m216.84 99.12c-1.03 5.7-6.5 9.67-12.13 8.64-5.82-.87-9.57-6.4-8.72-12.26l9.91-58.51c.85-5.87 6.33-9.67 12.13-8.8a10.67 10.67 0 0 1 8.54 12.25zm0 0" fill="#cf453e"/><path d="m214.45 43.37c-.34 1.73-1.88 2.77-3.42 2.42a2.87 2.87 0 0 1 -2.56-3.46 3.23 3.23 0 0 1 3.58-2.58 3.14 3.14 0 0 1 2.4 3.62zm-1.54 8.97c-.18 1.73-1.71 2.77-3.43 2.43-1.7-.18-2.73-1.73-2.55-3.46a3.21 3.21 0 0 1 3.58-2.58 3.13 3.13 0 0 1 2.4 3.61zm-1.37 8.98a2.97 2.97 0 0 1 -3.6 2.41c-1.7-.16-2.72-1.72-2.38-3.44.17-1.73 1.7-2.76 3.42-2.6 1.7.35 2.73 1.9 2.56 3.63zm-1.54 8.98a2.98 2.98 0 0 1 -3.59 2.41 2.87 2.87 0 0 1 -2.39-3.44c.17-1.73 1.7-2.77 3.42-2.6 1.7.35 2.73 1.9 2.56 3.62zm-1.53 8.97a2.98 2.98 0 0 1 -3.6 2.42 2.87 2.87 0 0 1 -2.38-3.46 3.15 3.15 0 0 1 3.41-2.58c1.7.34 2.9 1.9 2.57 3.62zm-1.54 8.98c-.34 1.72-1.88 2.76-3.43 2.42a2.88 2.88 0 0 1 -2.55-3.46 3.24 3.24 0 0 1 3.58-2.6 3.15 3.15 0 0 1 2.4 3.64zm-1.55 8.98c-.16 1.72-1.88 2.75-3.41 2.41-1.7-.17-2.73-1.73-2.57-3.45a3.23 3.23 0 0 1 3.6-2.6 3.14 3.14 0 0 1 2.38 3.64zm16.58-47.98a3.16 3.16 0 0 1 -3.4 2.58c-1.72-.35-2.92-1.9-2.58-3.62a3.1 3.1 0 0 1 3.59-2.42 2.88 2.88 0 0 1 2.4 3.46zm-1.53 8.96c-.18 1.73-1.88 2.77-3.42 2.6a3.25 3.25 0 0 1 -2.56-3.63 3.1 3.1 0 0 1 3.58-2.41 2.87 2.87 0 0 1 2.4 3.44zm-1.53 8.98c-.19 1.72-1.72 2.76-3.44 2.58a3.24 3.24 0 0 1 -2.55-3.61 3.1 3.1 0 0 1 3.58-2.43c1.72.18 2.74 1.73 2.4 3.46zm-1.38 8.98a3.23 3.23 0 0 1 -3.59 2.58 3.14 3.14 0 0 1 -2.4-3.62c.18-1.73 1.72-2.76 3.43-2.42 1.7.17 2.73 1.73 2.56 3.46zm-1.54 8.97a3.23 3.23 0 0 1 -3.59 2.59 3.12 3.12 0 0 1 -2.39-3.63 2.82 2.82 0 0 1 3.42-2.42c1.7.17 2.73 1.72 2.56 3.45zm-1.53 8.98a3.16 3.16 0 0 1 -3.42 2.59c-1.71-.35-2.9-1.9-2.56-3.63.34-1.72 1.88-2.76 3.41-2.41 1.7.17 2.9 1.72 2.57 3.45zm0 0" fill="#fafbfb"/></svg>