<svg height="133pt" viewBox="0 0 195 133" width="260" xmlns="http://www.w3.org/2000/svg" xmlns:xlink="http://www.w3.org/1999/xlink"><linearGradient id="a"><stop offset="0" stop-color="#9f9c9b"/><stop offset=".77" stop-color="#b9b5b4"/><stop offset="1" stop-color="#b9b5b4"/></linearGradient><linearGradient id="b" gradientTransform="matrix(.11552 0 0 .11656 .06 0)" gradientUnits="userSpaceOnUse" x1="773.12" x2="773.12" xlink:href="#a" y1="1398.08" y2="-361.56"/><linearGradient id="c" gradientTransform="matrix(.11552 0 0 .11656 .06 0)" gradientUnits="userSpaceOnUse" x1="773.13" x2="773.13" xlink:href="#a" y1="1398.08" y2="-361.56"/><linearGradient id="d" gradientTransform="matrix(.11552 0 0 .11656 .06 0)" gradientUnits="userSpaceOnUse" x1="773.13" x2="773.13" y1="1398.08" y2="-361.56"><stop offset="0" stop-color="#e3e1e0"/><stop offset=".77" stop-color="#ebecec"/><stop offset="1" stop-color="#ebecec"/></linearGradient><linearGradient id="e" gradientTransform="matrix(.11552 0 0 .11656 .06 0)" gradientUnits="userSpaceOnUse" x1="773.13" x2="773.13" y1="1398.09" y2="-361.57"><stop offset="0" stop-color="#746f6f"/><stop offset=".77" stop-color="#847f7e"/><stop offset="1" stop-color="#847f7e"/></linearGradient><linearGradient id="f" gradientTransform="matrix(.11552 0 0 .11656 .06 0)" gradientUnits="userSpaceOnUse" x1="773.13" x2="773.13" y1="1398.08" y2="-361.56"><stop offset="0" stop-color="#a7a5a5"/><stop offset=".77" stop-color="#c1bebe"/><stop offset="1" stop-color="#c1bebe"/></linearGradient><path d="m19.23 95.23h7.51v-4.53h-7.5zm8.9.82h6.93v-1.75h-6.93zm0 0" fill="#525453"/><path d="m27.2 82.64h-2.18v15.62h4.5v-15.62h-4.5 2.19-2.21v15.62h4.5v-15.62h-4.5zm0 0" fill="#dcdbdb"/><path d="m25.02 90.1h4.5v-7h-4.5zm0 0" fill="#828484"/><path d="m144.46 10.02h5.54v-10.02h-5.54zm0 0" fill="#898989"/><path d="m20.28 10.02h5.54v-10.02h-5.54zm0 0" fill="#343134"/><path d="m170.56 83.1h24.38v-51.4h-24.38zm0 0" fill="#898989"/><path d="m194.94 83.1h-16.29v-51.4h6v32.64h10.29v8.16h-10.51v6.3h10.5zm0 0" fill="#9793a0"/><g fill-rule="evenodd"><path d="m174.26 130.67h-164.16a6.05 6.05 0 0 1 -5.55-4.32l-4.37-17.01c-.58-2.45.92-4.32 3.35-4.32h103.27c2.42 0 4.39-2.09 4.27-4.54l-1.85-41.38a11.01 11.01 0 0 0 -3.7-7.23s-4.84-3.96-20.9-3.96-20.33 1.98-20.33 1.98a10.74 10.74 0 0 0 -5.32 6.18l-6.35 22.73a6.2 6.2 0 0 1 -5.66 4.3h-36.85a4.4 4.4 0 0 1 -4.4-4.42v-60.03c4.86-.93 32.6-6.06 73.25-6.06 44.93 0 99.7 8.74 99.7 8.74v104.91a4.41 4.41 0 0 1 -4.4 4.43zm-168.54-112.02v-2.1zm141.98 50.01a16.34 16.34 0 0 0 -16.29 16.43c0 8.98 7.28 16.32 16.3 16.32a16.3 16.3 0 0 0 16.17-16.32c0-9.1-7.28-16.43-16.18-16.43zm-132.97-41.39v36.26h19.99v-36.26zm132.96 5.73c-7.62 0-13.74 6.3-13.74 13.87 0 7.58 6.12 13.87 13.74 13.87 7.5 0 13.63-6.3 13.63-13.87s-6.12-13.87-13.63-13.87zm-96.34-3.97a4.78 4.78 0 0 0 -4.73 4.78c0 2.57 2.2 4.78 4.73 4.78a4.78 4.78 0 0 0 4.74-4.78 4.71 4.71 0 0 0 -4.74-4.78zm-21.03 30.07h-11.09v-27.4h11.1zm0 0" fill="#a2d9f7"/><path d="m147.7 60.73c-7.63 0-13.75-6.3-13.75-13.87s6.12-13.87 13.74-13.87c7.5 0 13.63 6.3 13.63 13.87 0 7.58-6.12 13.87-13.63 13.87zm0 0" fill="url(#b)"/><path d="m147.7 101.4a16.32 16.32 0 0 1 -16.3-16.31c0-9.1 7.28-16.43 16.3-16.43 8.89 0 16.17 7.34 16.17 16.43a16.3 16.3 0 0 1 -16.18 16.32zm0 0" fill="url(#c)"/></g><path d="m108.88 105.73h10.51l-2.43-48.73c-.11-3.14-2.19-7.35-4.73-9.21 0 0-6.24-5.13-26.8-5.13-20.68 0-26.1 2.57-26.1 2.57-2.9 1.27-5.9 4.9-6.83 7.92l-.22.82h-.35l-6 21.33h-40.21v5.6a4.51 4.51 0 0 0 4.39 4.54h36.85c1.04 0 2.08-.35 3-.93.24-.23.58-.47.82-.7h.11c.23-.24.46-.46.58-.7l.11-.11c.23-.24.35-.47.46-.7l.12-.24c.23-.35.34-.58.46-.93l6.35-22.85c.12-.35.24-.7.47-1.05l.11-.35c.11-.23.24-.47.47-.7l.1-.34c.24-.24.35-.47.59-.7l.23-.24c.23-.35.46-.7.8-.93a7.53 7.53 0 0 1 2.55-1.86s4.27-1.99 20.33-1.99 20.9 3.97 20.9 3.97c1.97 1.5 3.59 4.78 3.7 7.22l-.34 41.38c0 1.64 1.15 2.22 0 3.04zm0 0" fill="#aeacab"/><path d="m3.53 105.02c-2.43 0-4.16 1.99-2.66 4.32h119.56v-4.32zm0 0" fill="#eeedec"/><path d="m178.65 21.33v-2.43a5.47 5.47 0 0 0 -4.4-5.25s-10.96-1.75-26.79-3.62h2.54v-.58a860.05 860.05 0 0 1 28.65 3.62zm-172.93-4.78v-.47c0-2.56 1.97-4.89 4.39-5.47 0 0 3.59-.7 10.17-1.75v.58a320.61 320.61 0 0 0 -10.18 1.76 5.7 5.7 0 0 0 -4.4 5.36zm138.74-6.76c-18.6-2.21-43.09-4.43-64.8-4.43-23 0-41.6 1.75-53.84 3.38v-.58c12.24-1.64 30.84-3.26 53.83-3.26 20.91 0 45.4 1.97 64.81 3.96zm0 0" fill="#727271"/><path d="m150 10.02h-2.54c-1.03-.11-1.96-.23-3-.23v-.93c1.97.23 3.81.47 5.54.58zm0 0" fill="#dfdedd"/><path d="m20.28 9.44v-.58c1.73-.23 3.58-.47 5.54-.7v.58c-1.96.24-3.81.47-5.54.7zm0 0" fill="#aca7a8"/><path d="m178.65 21.33s-54.75-8.73-99.69-8.73c-40.66 0-68.39 5.13-73.24 6.06v-2.1a5.7 5.7 0 0 1 4.39-5.36s3.59-.7 10.17-1.75c1.73-.23 3.58-.46 5.54-.7a412.97 412.97 0 0 1 53.83-3.38c21.72 0 46.2 2.22 64.81 4.43 1.04 0 1.97.12 3 .23 15.83 1.87 26.8 3.62 26.8 3.62a5.47 5.47 0 0 1 4.4 5.25v2.44zm0 0" fill="url(#d)" fill-rule="evenodd"/><path d="m4.56 125.42.47 3.15a5.45 5.45 0 0 0 5.07 4.43h164.15c2.43 0 4.4-2.1 4.4-4.55v-3.03zm0 0" fill="#898989"/><path d="m187.9 44.77h7.04v-6.3h-7.05zm0 0" fill="#dadae0"/><path d="m184.43 78.8h10.5v-6.3h-10.5zm0 0" fill="#a6a4b0"/><path d="m142.84 53.97a11.51 11.51 0 0 1 -11.44-11.54c0-6.41 5.08-11.66 11.44-11.66s11.44 5.25 11.44 11.66c0 6.3-5.08 11.54-11.44 11.54zm0 0" fill="#c5e5e9"/><path d="m142.84 28.56c-7.5 0-13.63 6.18-13.63 13.87 0 7.57 6.13 13.76 13.63 13.76a13.82 13.82 0 0 0 0-27.63zm0 4.43c5.09 0 9.25 4.2 9.25 9.44a9.31 9.31 0 0 1 -9.25 9.32 9.31 9.31 0 0 1 -9.24-9.32 9.33 9.33 0 0 1 9.24-9.44zm0 0" fill="#a0a09f"/><path d="m51.35 38.58a4.86 4.86 0 0 1 -4.73-4.78c0-2.67 2.2-4.78 4.73-4.78 2.65 0 4.74 2.1 4.74 4.78a4.78 4.78 0 0 1 -4.74 4.78zm0 0" fill="url(#e)" fill-rule="evenodd"/><path d="m142.84 94.77c-7.74 0-13.98-6.41-13.98-14.23 0-7.8 6.24-14.1 13.98-14.1s14.1 6.3 14.1 14.1c0 7.82-6.36 14.23-14.1 14.23zm0 0" fill="#eeedee"/><path d="m142.84 64.1c-9 0-16.29 7.35-16.29 16.44 0 9.1 7.28 16.44 16.29 16.44 9 0 16.29-7.35 16.29-16.44 0-9.1-7.28-16.43-16.3-16.43zm0 4.56c6.47 0 11.78 5.36 11.78 11.88 0 6.65-5.3 11.9-11.78 11.9a11.8 11.8 0 0 1 -11.78-11.9c0-6.52 5.31-11.88 11.78-11.88zm0 0" fill="#dcdbdb"/><path d="m34.72 63.53h-19.99v-36.26h19.99zm-2.2-2.22v-2.21zm-13.29-29.6v27.39h11.1v-27.4zm0 0" fill="url(#f)" fill-rule="evenodd"/><path d="m45.46 31.36a4.04 4.04 0 0 1 4.04-4.09c2.31 0 4.05 1.75 4.05 4.09a4.04 4.04 0 0 1 -4.05 4.07 4.11 4.11 0 0 1 -4.04-4.07zm0 0" fill="#635a5b"/></svg>