<svg xmlns="http://www.w3.org/2000/svg" viewBox="0 0 460 460"><path d="M381.063 27.455c0-15.163 12.291-27.454 27.454-27.454l.001-.001H112.49C87.923 0 68.008 19.915 68.008 44.482v299.266c0 24.567 19.915 44.482 44.482 44.482h224.091c24.567 0 44.482-19.915 44.482-44.482V27.455z" fill="#d8d9dd"/><path d="M408.518.001c-15.163 0-27.454 12.292-27.454 27.454v48.041h54.909V27.455C435.971 12.292 423.68.001 408.518.001z" fill="#808083"/><path d="M345.53 58.002c0-12.284 9.958-22.243 22.242-22.243v-.001H139.254c-19.903 0-36.038 16.135-36.038 36.038v243.547c0 19.903 16.135 36.038 36.038 36.038h170.237c19.903 0 36.038-16.135 36.038-36.038V58.002h.001z" fill="#edeef0"/><path d="M310.738 349.7c0-17.862 11.498-33.005 27.482-38.529H62.557c-21.279 0-38.529 17.25-38.529 38.529 0 21.279 17.25 38.529 38.529 38.529H338.22c-15.984-5.524-27.482-20.666-27.482-38.529z" fill="#808083"/><path fill="#abcb57" d="M130.749 89.015h187.249v20H130.749zM130.749 160.524h187.249v20H130.749zM130.749 232.033h187.249v20H130.749z"/><path fill="#c8523b" d="M263.747 460l-30.342-23.118L201.617 460v-80.914h62.13z"/><path d="M275.832 364.423c0 24.1-19.54 43.646-43.649 43.646s-43.649-19.546-43.649-43.646c0-24.106 19.54-43.652 43.649-43.652s43.649 19.546 43.649 43.652z" fill="#e5c400"/><path d="M275.832 364.423c0-24.106-19.54-43.651-43.649-43.651v116.636l.722-.525L263.249 460v-64.926c7.778-7.883 12.583-18.705 12.583-30.651z" opacity=".3" fill="#5b5b5f"/></svg>