<svg height="388pt" viewBox="-25 0 388 388.092" width="388pt" xmlns="http://www.w3.org/2000/svg"><path d="M164.578 154.934c3.516-5.22 4.98-11.54 4.285-17.793-5.465-49.102-21.574-87.102-27.234-95.395-2.95-4.316-7-4.266-9.953.043-3.926 5.719-4.485 16.781-1.207 23.89zm0 0" fill="#99783d"/><path d="M164.578 161.758a6.827 6.827 0 0 1-6.379-4.387l-34.105-89.25c-4.09-8.82-3.29-22.555 1.957-30.203 2.746-4.004 6.527-6.211 10.633-6.211h.015c4.09 0 7.844 2.207 10.563 6.191 7.254 10.622 23.035 50.414 28.386 98.489.883 7.933-1.039 15.87-5.406 22.36a6.836 6.836 0 0 1-5.664 3.01zM136.7 46.718c-1.836 3.856-2.281 11.22-.027 16.102l23.652 61.867c-6.187-39.96-18.64-69.62-23.625-77.968zm-1.16-1.66"/><path d="M171.254 150.102S175.43 42.926 259.125 6.828c0 0 14.387 90.008-87.871 143.274zm0 0" fill="#83d816"/><path d="M171.258 156.926a6.819 6.819 0 0 1-3.656-1.059 6.837 6.837 0 0 1-3.165-6.035c.04-1.133 1.22-28.238 12.961-60.187 15.711-42.758 43.04-73.567 79.02-89.086a6.814 6.814 0 0 1 5.996.289 6.806 6.806 0 0 1 3.45 4.898c.156.953 13.948 95.5-91.454 150.406a6.787 6.787 0 0 1-3.152.774zm81.699-139.563c-54.71 29.223-69.605 93.121-73.523 120.336 67.02-40.367 73.691-97.898 73.523-120.336zm0 0"/><path d="M329.637 212.973c0-47.133-35.434-85.348-79.14-85.348-13.454 0-26.11 3.645-37.204 10.027-13.164 10.871-28.797 16.63-44.594 17.203-15.797-.574-31.433-6.332-44.601-17.203-11.094-6.382-23.75-10.027-37.2-10.027-43.71 0-79.14 38.21-79.14 85.348C1.035 278.21 34.27 326.207 62.328 354.41c9.68 9.73 20.988 17.14 33.184 22.074 18.672 7.547 39.476 5.977 57.593-3l.094-.046.004-.004c8.426-8.86 22.567-8.86 30.992 0l.004.004.09.046c18.121 8.98 38.934 10.547 57.606 2.993 12.199-4.938 23.511-12.356 33.195-22.09 28.055-28.203 61.265-76.196 54.547-141.414zm0 0" fill="#ee5281"/><path d="M216.93 388.094c-12.051 0-24.285-2.848-35.672-8.489-.711-.359-1.453-.882-2.008-1.46-2.773-2.918-6.523-4.524-10.559-4.524-4.027 0-7.773 1.606-10.543 4.52a6.857 6.857 0 0 1-1.73 1.316c-20.586 10.195-43.617 11.383-63.469 3.355-13.312-5.386-25.246-13.32-35.46-23.585C27.917 329.504-5.872 279.96.928 212.62c.18-50.664 38.673-91.82 85.966-91.82 14.125 0 28.168 3.777 40.605 10.93.328.195.648.414.941.656 11.754 9.707 25.754 15.113 40.5 15.644 14.254-.531 28.254-5.937 40-15.64.293-.246.614-.465.942-.66 12.441-7.153 26.488-10.93 40.613-10.93 47.293 0 85.79 41.156 85.965 91.82 6.809 67.324-26.973 116.867-56.531 146.578-10.227 10.285-22.168 18.227-35.48 23.606-8.723 3.535-18.067 5.289-27.52 5.289zm-28.703-20.29c16.527 7.926 35.132 8.794 51.105 2.348 11.598-4.687 22-11.613 30.918-20.582 27.535-27.672 59-73.718 52.594-135.898a8.464 8.464 0 0 1-.035-.7c0-43.292-32.442-78.523-72.313-78.523-11.558 0-23.074 3.063-33.324 8.848-13.988 11.394-30.649 17.746-48.23 18.375-18.067-.625-34.731-6.98-48.727-18.375-10.387-5.871-21.59-8.848-33.317-8.848-39.875 0-72.316 35.23-72.316 78.524 0 .23-.012.464-.031.699-6.406 62.191 25.078 108.246 52.617 135.926 8.91 8.945 19.309 15.867 30.902 20.562 15.938 6.438 34.512 5.57 51.098-2.355 5.273-5.067 12.152-7.84 19.52-7.84h.007c7.375 0 14.258 2.773 19.532 7.84zm148.238-154.831h.066zm0 0"/><path d="M291.504 226.18c0-32.137-26.902-58.188-60.094-58.188-10.219 0-19.828 2.485-28.25 6.836-9.996 7.41-21.87 11.336-33.867 11.727-11.996-.387-23.871-4.317-33.867-11.727-8.426-4.351-18.035-6.836-28.254-6.836-33.188 0-60.094 26.051-60.094 58.188-5.105 44.472 20.133 77.195 41.442 96.422 7.347 6.632 15.933 11.687 25.199 15.046 14.176 5.149 29.972 4.079 43.734-2.043l.07-.03.004-.005c6.399-6.039 17.137-6.039 23.532 0l.003.004.07.028c13.763 6.125 29.567 7.191 43.747 2.043 9.266-3.364 17.855-8.422 25.207-15.06 21.3-19.226 46.523-51.944 41.418-96.405zm0 0" fill="#ffdd95"/><path d="M205.926 347.727c-9.32 0-18.774-1.973-27.567-5.88a7.435 7.435 0 0 1-1.988-1.308c-3.773-3.559-10.387-3.559-14.16 0a6.75 6.75 0 0 1-1.86 1.246c-15.831 7.04-33.62 7.848-48.964 2.285-10.27-3.726-19.5-9.238-27.442-16.39-22.832-20.614-48.914-54.996-43.691-101.895.219-35.672 30.152-64.617 66.918-64.617 10.906 0 21.762 2.625 31.387 7.598.328.168.64.367.933.582 8.68 6.437 19.067 10.03 30.028 10.394 10.507-.363 20.894-3.953 29.574-10.394.293-.215.605-.414.933-.582 9.625-4.973 20.48-7.598 31.387-7.598 36.766 0 66.7 28.945 66.922 64.617 5.223 46.887-20.848 81.262-43.676 101.867-7.914 7.149-17.148 12.668-27.445 16.407-6.758 2.453-13.985 3.668-21.29 3.668zM107.172 174.82c-29.375 0-53.266 23.04-53.266 51.36 0 .257-.015.52-.047.777-4.738 41.32 18.72 72.07 39.235 90.582 6.617 5.965 14.344 10.57 22.953 13.691 11.758 4.266 25.465 3.723 37.758-1.484 8.785-7.414 22.172-7.414 30.972 0 12.313 5.223 26.008 5.766 37.774 1.477 8.633-3.133 16.36-7.746 22.96-13.703 20.509-18.516 43.954-49.247 39.216-90.563a5.767 5.767 0 0 1-.047-.777c0-28.32-23.895-51.36-53.266-51.36-8.687 0-16.98 1.965-24.66 5.84-10.828 7.88-23.688 12.278-37.234 12.719-13.993-.441-26.86-4.84-37.688-12.719-7.68-3.875-15.973-5.84-24.66-5.84zm191.16 51.36h.066zm0 0"/><path d="M214.879 257.621c0 10.672-8.676 19.324-19.379 19.324-10.707 0-19.383-8.652-19.383-19.324v-28.984zm0 0" fill="#99783d"/><path d="M195.5 283.773c-14.453 0-26.207-11.726-26.207-26.148v-28.984c0-2.59 1.46-4.946 3.766-6.106a6.86 6.86 0 0 1 7.148.637l38.762 28.988a6.808 6.808 0 0 1 2.738 5.465c-.004 14.422-11.758 26.148-26.207 26.148zm-12.555-41.507v15.359c0 6.887 5.633 12.492 12.551 12.492 5.84 0 10.762-3.984 12.152-9.37zm0 0"/><path d="M118.266 257.621c0 10.672 8.363 19.324 18.683 19.324s18.688-8.652 18.688-19.324v-28.984zm0 0" fill="#99783d"/><path d="M136.953 283.773c-14.066 0-25.516-11.726-25.516-26.148 0-2.105.973-4.098 2.641-5.39l37.375-28.989a6.836 6.836 0 0 1 7.192-.738 6.821 6.821 0 0 1 3.82 6.133v28.984c0 14.422-11.445 26.148-25.512 26.148zm-11.5-23.082c1.3 5.407 5.965 9.426 11.5 9.426 6.54 0 11.86-5.605 11.86-12.492v-15.05zm0 0"/></svg>