<svg height="416pt" viewBox="-85 0 416 416.427" width="416pt" xmlns="http://www.w3.org/2000/svg"><path d="M238.559 415.484a6.823 6.823 0 0 1-6.825-6.824v-60.5H13.867v60.5a6.827 6.827 0 0 1-13.652 0v-67.328a6.823 6.823 0 0 1 6.824-6.824h231.52a6.827 6.827 0 0 1 6.828 6.824v67.328a6.827 6.827 0 0 1-6.828 6.824zm0 0"/><path d="M122.8 416.426a6.827 6.827 0 0 1-6.827-6.824V35.074a6.826 6.826 0 0 1 13.652 0v374.528a6.823 6.823 0 0 1-6.824 6.824zm0 0M40.879 416.426a6.823 6.823 0 0 1-6.824-6.824v-68.27a6.827 6.827 0 0 1 13.652 0v68.27a6.827 6.827 0 0 1-6.828 6.824zm0 0M204.719 416.426a6.823 6.823 0 0 1-6.824-6.824v-68.27c0-3.77 3.054-6.824 6.824-6.824s6.828 3.054 6.828 6.824v68.27a6.827 6.827 0 0 1-6.828 6.824zm0 0M163.762 416.426a6.824 6.824 0 0 1-6.828-6.824v-68.27a6.824 6.824 0 0 1 6.828-6.824 6.823 6.823 0 0 1 6.824 6.824v68.27a6.823 6.823 0 0 1-6.824 6.824zm0 0M81.84 416.426a6.827 6.827 0 0 1-6.828-6.824v-68.27a6.827 6.827 0 0 1 6.828-6.824 6.827 6.827 0 0 1 6.828 6.824v68.27a6.827 6.827 0 0 1-6.828 6.824zm0 0"/><path d="M143.281 157.012h-40.96V27.309c0-11.313 9.167-20.48 20.48-20.48 11.308 0 20.48 9.167 20.48 20.48zm0 0" fill="#fcad3a"/><path d="M143.281 163.84h-40.96a6.828 6.828 0 0 1-6.829-6.828V27.309C95.492 12.25 107.742 0 122.801 0c15.054 0 27.304 12.25 27.304 27.309v129.703a6.824 6.824 0 0 1-6.824 6.828zm-34.136-13.653h27.308V27.31c0-7.532-6.125-13.657-13.652-13.657-7.531 0-13.656 6.125-13.656 13.657zm0 0"/></svg>