<svg height="386pt" viewBox="-2 0 386 386.559" width="386pt" xmlns="http://www.w3.org/2000/svg"><path d="M258.328 100.05s10.36-82.87 103.586-93.23c0 0 51.797 93.23-51.793 134.664zm0 0" fill="#ee5281"/><path d="M310.121 148.313a6.836 6.836 0 0 1-4.262-1.497l-51.793-41.43a6.83 6.83 0 0 1-2.511-6.179c.11-.883 12.152-88.344 109.605-99.168 2.754-.293 5.383 1.059 6.723 3.473.972 1.746 23.656 43.367 8.808 85.12-9.234 25.973-30.777 45.895-64.035 59.196a6.862 6.862 0 0 1-2.535.484zM265.77 97.266l45.468 36.37c27.332-11.706 45-28.34 52.555-49.484 10.352-28.98-1.008-59.195-5.867-69.941-71.914 10.34-88.91 67.922-92.156 83.055zm0 0"/><path d="M123.668 100.05S113.308 17.18 20.082 6.82c0 0-51.797 93.23 51.793 134.664zm0 0" fill="#ee5281"/><path d="M71.875 148.313c-.855 0-1.719-.16-2.535-.489-33.254-13.3-54.797-33.219-64.035-59.191C-9.543 46.879 13.14 5.258 14.113 3.512c1.34-2.414 4.016-3.739 6.723-3.473 97.453 10.824 109.496 98.285 109.605 99.164a6.83 6.83 0 0 1-2.507 6.18l-51.797 41.433a6.836 6.836 0 0 1-4.262 1.496zM24.07 14.21c-4.86 10.742-16.218 40.953-5.867 69.941 7.555 21.145 25.223 37.778 52.555 49.485l45.5-36.399c-3.121-15.34-19.555-72.64-92.188-83.027zm0 0"/><path d="M361.914 208.816c0 94.395-76.52 170.918-170.914 170.918-94.398 0-170.918-76.523-170.918-170.918 0-94.394 76.52-170.918 170.918-170.918 94.395 0 170.914 76.524 170.914 170.918zm0 0" fill="#f97da3"/><path d="M191 386.559c-98.008 0-177.746-79.735-177.746-177.743C13.254 110.813 92.992 31.07 191 31.07c98.004 0 177.742 79.743 177.742 177.746 0 98.008-79.738 177.743-177.742 177.743zm0-341.832c-90.48 0-164.09 73.613-164.09 164.09 0 90.48 73.61 164.09 164.09 164.09s164.086-73.61 164.086-164.09c0-90.481-73.606-164.09-164.086-164.09zm0 0"/><path d="M237.613 255.43c0 28.605-23.191 51.793-51.793 51.793-28.605 0-51.797-23.188-51.797-51.793 0-28.606 23.192-51.793 51.797-51.793 28.602 0 51.793 23.187 51.793 51.793zm0 0" fill="#ee5281"/><path d="M185.82 314.05c-32.324 0-58.62-26.296-58.62-58.616 0-32.325 26.296-58.622 58.62-58.622 32.325 0 58.618 26.297 58.618 58.622 0 32.32-26.297 58.617-58.618 58.617zm0-103.585c-24.793 0-44.968 20.172-44.968 44.969 0 24.793 20.171 44.964 44.968 44.964 24.793 0 44.965-20.171 44.965-44.964 0-24.797-20.176-44.97-44.965-44.97zm0 0"/><path d="M201.238 275.2a6.828 6.828 0 0 1-6.828-6.829v-20.48c0-3.774 3.059-6.825 6.828-6.825s6.828 3.051 6.828 6.825v20.48a6.828 6.828 0 0 1-6.828 6.828zm0 0M173.93 275.2a6.824 6.824 0 0 1-6.825-6.829v-20.48a6.82 6.82 0 0 1 6.825-6.825 6.822 6.822 0 0 1 6.828 6.825v20.48a6.825 6.825 0 0 1-6.828 6.828zm0 0M221.719 169.387a6.828 6.828 0 0 1-6.828-6.828c0-20.7 16.843-37.547 37.547-37.547a6.828 6.828 0 0 1 6.828 6.828 6.824 6.824 0 0 1-6.829 6.824c-13.171 0-23.89 10.723-23.89 23.895a6.828 6.828 0 0 1-6.828 6.828zm0 0M149.918 169.387a6.824 6.824 0 0 1-6.824-6.828c0-13.172-10.723-23.895-23.895-23.895a6.824 6.824 0 0 1-6.828-6.824 6.828 6.828 0 0 1 6.828-6.828c20.703 0 37.547 16.847 37.547 37.547a6.828 6.828 0 0 1-6.828 6.828zm0 0"/></svg>