<svg xmlns="http://www.w3.org/2000/svg" viewBox="0 0 46.285 46.285" width="512" height="512"><ellipse cx="25.451" cy="44.785" rx="17" ry="1.5" opacity=".15" fill="#45413c"/><path fill="#ff866e" d="M13.121 34.845l-4.53-.9-1.15 1.77 4.55 3.13z"/><path fill="#ffa694" d="M12.721 36.265l.4-1.42-4.53-.9-.66 1.01z"/><path d="M11.992 39.345c-.1 0-.199-.03-.283-.088l-4.55-3.131a.5.5 0 0 1-.136-.685l1.15-1.77a.5.5 0 0 1 .517-.218l4.53.9a.499.499 0 0 1 .384.625l-1.13 4a.5.5 0 0 1-.482.367zm-3.866-3.766l3.574 2.459.793-2.808-3.667-.729-.7 1.078z" fill="#45413c"/><path d="M8.591 33.935s-2.6-5.65-3.64-7.33-4.14-1.72-4.14 1.24c0 4.28 6.63 7.87 6.63 7.87l1.15-1.78z" fill="#ff866e"/><path d="M4.951 28.605c.74 1.19 2.28 4.42 3.1 6.17l.54-.83s-2.6-5.66-3.64-7.34-4.14-1.72-4.14 1.24c.009.338.056.673.14 1 .61-1.92 3.1-1.69 4-.24z" fill="#ffa694"/><path d="M7.441 36.214a.499.499 0 0 1-.238-.061C6.922 36.001.311 32.37.311 27.844c0-1.424.679-2.467 1.815-2.79 1.188-.334 2.586.215 3.25 1.286 1.044 1.687 3.562 7.153 3.668 7.385a.498.498 0 0 1-.034.48l-1.15 1.779a.494.494 0 0 1-.419.23zM2.854 25.956c-.154 0-.307.02-.453.062-.703.2-1.089.849-1.089 1.828 0 3.352 4.572 6.358 5.969 7.197l.742-1.147c-.514-1.108-2.606-5.592-3.496-7.026-.348-.563-1.024-.914-1.673-.914z" fill="#45413c"/><path d="M8.591 33.935c.13-2.533.094-5.072-.11-7.6-.35-1.92-3.22-3.13-4.31-.37-1.57 4 3.27 9.75 3.27 9.75l1.15-1.78z" fill="#ff866e"/><path d="M4.201 27.795c1.09-2.76 4-1.55 4.31.37.131.937.192 1.883.18 2.83a31.538 31.538 0 0 0-.18-4.66c-.35-1.92-3.22-3.13-4.31-.37a5.294 5.294 0 0 0-.23 2.69c.048-.294.125-.582.23-.86z" fill="#ffa694"/><path d="M7.441 36.214a.496.496 0 0 1-.382-.178c-.206-.244-5.013-6.026-3.353-10.255.521-1.319 1.535-2.037 2.704-1.924 1.236.122 2.338 1.147 2.563 2.387.211 2.594.249 5.173.118 7.716a.498.498 0 0 1-.08.246l-1.15 1.779a.5.5 0 0 1-.389.228l-.031.001zM6.168 24.846c-.658 0-1.198.457-1.532 1.302-1.176 2.998 1.658 7.221 2.767 8.704l.695-1.076a57.317 57.317 0 0 0-.116-7.401c-.14-.753-.876-1.443-1.671-1.521a1.386 1.386 0 0 0-.143-.008zm2.423 9.089h.01-.01z" fill="#45413c"/><path d="M14.081 34.015a3.18 3.18 0 0 0-.41 6.17l2.78.87 1.75-7.77-4.12.73z" fill="#ff866e"/><path d="M13.781 36.785l3.72-.41.7-3.09-4.11.73a3.18 3.18 0 0 0-2.56 2.47 3.225 3.225 0 0 0 .1 1.69 2.752 2.752 0 0 1 2.15-1.39z" fill="#ffa694"/><path d="M16.452 41.555a.537.537 0 0 1-.149-.022l-2.78-.87a3.664 3.664 0 0 1-2.53-2.893 3.65 3.65 0 0 1 .623-2.746 3.65 3.65 0 0 1 2.381-1.501l4.119-.73a.5.5 0 0 1 .575.601l-1.75 7.771a.501.501 0 0 1-.489.39zm1.097-7.646l-3.38.599-.003.001a2.657 2.657 0 0 0-1.735 1.093 2.66 2.66 0 0 0-.454 2 2.667 2.667 0 0 0 1.843 2.106l2.263.708 1.466-6.507zm-3.468.106h.01-.01z" fill="#45413c"/><path d="M42.051 16.055c.432-.98.653-2.039.65-3.11a7.74 7.74 0 0 0-6.5-7.66 6.501 6.501 0 0 0-12.4-.44 4.5 4.5 0 0 0-4.68 7.6c-.112.492-.17.995-.17 1.5a6.5 6.5 0 0 0 6.68 6.5 8.497 8.497 0 0 0 .77 6 14.53 14.53 0 0 0-1.05 4.14 6.744 6.744 0 0 0-.9.28 4.09 4.09 0 0 0-1.35-.86 4.23 4.23 0 0 0-5.54 5.39 5.49 5.49 0 0 0 1.64 9.22 5.478 5.478 0 0 0 5.2-.64 7 7 0 0 0 8.65-3.25c3.59-.29 7.26-3.26 9-7.76a14.001 14.001 0 0 0 1-6.13 6.49 6.49 0 0 0-1-10.78z" fill="#ffe500"/><g fill="#fff48c"><path d="M42.701 17.395a7.645 7.645 0 0 1-.65 3.1 6.48 6.48 0 0 1 3 3.52 6.5 6.5 0 0 0-2.46-7.61c.058.327.094.658.11.99zM21.951 8.895a4.425 4.425 0 0 1 1.85.4 6.5 6.5 0 0 1 12.4.46 7.77 7.77 0 0 1 6.14 5.41 7.76 7.76 0 0 0-6.14-9.88 6.501 6.501 0 0 0-12.4-.44 4.5 4.5 0 0 0-5.76 6.33 4.488 4.488 0 0 1 3.91-2.28z"/></g><path d="M21.219 45.5a5.987 5.987 0 0 1-2.201-.421 6.005 6.005 0 0 1-2.296-1.603 5.953 5.953 0 0 1-1.498-4.333 5.946 5.946 0 0 1 1.763-3.896 4.722 4.722 0 0 1 .151-3.072 4.737 4.737 0 0 1 6.148-2.636c.464.18.892.433 1.273.752.11-.037.221-.072.332-.104.159-1.277.48-2.525.958-3.719a8.99 8.99 0 0 1-.829-5.535 6.948 6.948 0 0 1-4.521-2.039 6.952 6.952 0 0 1-2.048-4.95c0-.441.041-.881.121-1.313a4.978 4.978 0 0 1-1.623-3.688 5.006 5.006 0 0 1 5-4.999c.006-.002.011 0 .017 0 .524 0 1.053.086 1.553.253A7.006 7.006 0 0 1 28.082.251a6.952 6.952 0 0 1 5.315.669 6.945 6.945 0 0 1 3.194 3.927 8.202 8.202 0 0 1 6.608 8.099 8.093 8.093 0 0 1-.521 2.894 6.969 6.969 0 0 1 1.756 1.557 7 7 0 0 1-.871 9.661 14.6 14.6 0 0 1-1.05 6.094c-1.703 4.406-5.358 7.606-9.153 8.045-1.786 3.071-5.523 4.477-8.889 3.335a5.96 5.96 0 0 1-3.252.968zm.317-15.297a3.735 3.735 0 0 0-3.468 2.345 3.728 3.728 0 0 0-.037 2.675.5.5 0 0 1-.138.547 4.956 4.956 0 0 0-1.67 3.435 4.956 4.956 0 0 0 1.247 3.609 5.006 5.006 0 0 0 1.914 1.336 4.962 4.962 0 0 0 4.727-.581.495.495 0 0 1 .468-.061 6.514 6.514 0 0 0 8.032-3.018.5.5 0 0 1 .401-.263c3.517-.284 6.962-3.275 8.573-7.443a13.585 13.585 0 0 0 .968-5.918.503.503 0 0 1 .186-.421 5.997 5.997 0 0 0 .918-8.421 5.974 5.974 0 0 0-1.841-1.528.503.503 0 0 1-.222-.643c.407-.922.611-1.9.607-2.906a7.209 7.209 0 0 0-6.08-7.168.5.5 0 0 1-.402-.361 5.956 5.956 0 0 0-2.815-3.627 5.962 5.962 0 0 0-4.557-.573 6.002 6.002 0 0 0-4.073 3.794.5.5 0 0 1-.679.289c-.511-.234-1.051-.333-1.641-.354h-.001a4.005 4.005 0 0 0-4.002 3.999c0 1.215.542 2.35 1.486 3.112a.5.5 0 0 1 .173.501c-.104.453-.157.92-.157 1.389 0 1.603.623 3.109 1.756 4.243a5.965 5.965 0 0 0 4.242 1.759l.171-.002c.149.003.303.065.4.186s.134.28.098.431a7.986 7.986 0 0 0 .724 5.646.503.503 0 0 1 .021.43 14.021 14.021 0 0 0-1.014 3.996.5.5 0 0 1-.383.437 6.228 6.228 0 0 0-.833.26.498.498 0 0 1-.527-.104 3.583 3.583 0 0 0-1.185-.756 3.684 3.684 0 0 0-1.387-.271z" fill="#45413c"/><path d="M33.952 13.944a.501.501 0 0 1-.495-.573c.02-.14.464-3.43-2.661-4.451a4.292 4.292 0 0 0-4.923 1.792.498.498 0 1 1-.843-.535 5.29 5.29 0 0 1 6.073-2.209c3.154 1.031 3.565 4.082 3.343 5.551a.5.5 0 0 1-.494.425zM33.215 34.975a3.6 3.6 0 0 1-.494-.035.501.501 0 0 1-.424-.566.503.503 0 0 1 .566-.424 2.435 2.435 0 0 0 2.788-2.487.5.5 0 0 1 .322-.485 4.74 4.74 0 0 0 2.957-3.534c.604-2.404-.84-4.823-3.213-5.421l.271-.961c2.881.725 4.65 3.688 3.917 6.596-.337 1.802-1.575 3.363-3.262 4.124a3.445 3.445 0 0 1-3.428 3.193z" fill="#45413c"/></svg>