<svg xmlns="http://www.w3.org/2000/svg" viewBox="0 0 47.608 47.608" width="512" height="512"><ellipse cx="23.873" cy="44.773" rx="9.77" ry="1.5" opacity=".15" fill="#45413c"/><path d="M15.171 41.775a.806.806 0 0 1-.074-.004.5.5 0 0 1-.133-.966c.188-.176 1.193-1.43 3.295-9.281 2.96-10.975 5.372-13.713 5.825-14.151a.501.501 0 0 1 .695.72c-.258.249-2.602 2.744-5.555 13.69-2.539 9.488-3.637 9.992-4.053 9.992z" fill="#45413c"/><path d="M32.133 4.853a18.34 18.34 0 0 0-8 11.89 1.13 1.13 0 0 0 .85 1.3 18.36 18.36 0 0 0 14.1-2.54 18.419 18.419 0 0 0 8-11.9 1.12 1.12 0 0 0-.85-1.33 18.35 18.35 0 0 0-14.1 2.58z" fill="#6dd627"/><path d="M24.653 17.903c2.875-9.116 12.257-14.507 21.58-12.4a.981.981 0 0 1 .33.13 20.25 20.25 0 0 0 .52-2 1.12 1.12 0 0 0-.822-1.354l-.028-.006C36.326.037 26.482 6.257 24.246 16.164c-.04.179-.078.359-.113.539-.106.471.104.956.52 1.2z" fill="#9ceb60"/><path d="M29.005 18.991a18.74 18.74 0 0 1-4.133-.46 1.631 1.631 0 0 1-1.231-1.876 18.936 18.936 0 0 1 8.218-12.219 18.947 18.947 0 0 1 14.483-2.65 1.624 1.624 0 0 1 1.229 1.923 19.02 19.02 0 0 1-8.215 12.213 18.971 18.971 0 0 1-10.351 3.069zM42.253 2.335a17.95 17.95 0 0 0-9.845 2.936l-.003.001a17.93 17.93 0 0 0-7.781 11.566.628.628 0 0 0 .475.719 17.953 17.953 0 0 0 13.711-2.472 18.02 18.02 0 0 0 7.782-11.577.626.626 0 0 0-.469-.747 17.698 17.698 0 0 0-3.87-.426zm-10.12 2.518h.01-.01z" fill="#45413c"/><path d="M30.513 28.723a12.817 12.817 0 0 0-8.38 5.55.79.79 0 0 0 .2 1.07c5.798 4.121 13.839 2.762 17.96-3.036.071-.1.141-.202.21-.304a.79.79 0 0 0-.2-1.07 12.85 12.85 0 0 0-9.79-2.21z" fill="#6dd627"/><path d="M22.333 35.273l.13.09a12.87 12.87 0 0 1 16.86-1.93c.429-.471.823-.972 1.18-1.5a.79.79 0 0 0-.2-1.07c-5.81-4.104-13.847-2.72-17.951 3.09-.075.106-.148.212-.219.32a.789.789 0 0 0 .2 1z" fill="#9ceb60"/><path d="M29.776 38.22c-2.681 0-5.387-.802-7.733-2.47a1.29 1.29 0 0 1-.33-1.749 13.392 13.392 0 0 1 8.708-5.771h.002a13.408 13.408 0 0 1 10.171 2.296 1.29 1.29 0 0 1 .328 1.748l-.222.321c-2.605 3.668-6.735 5.625-10.924 5.625zm.826-9.005a12.382 12.382 0 0 0-8.052 5.333.29.29 0 0 0 .076.39c5.564 3.954 13.306 2.644 17.26-2.921l.202-.293a.29.29 0 0 0-.078-.386 12.41 12.41 0 0 0-9.408-2.123z" fill="#45413c"/><path d="M12.683 20.513a16.249 16.249 0 0 0-10.81-6.59 1 1 0 0 0-1.11.8c-1.592 8.821 4.268 17.263 13.089 18.855.173.031.347.06.521.085a1 1 0 0 0 1.1-.79 16.214 16.214 0 0 0-2.79-12.36z" fill="#6dd627"/><path d="M12.683 20.523a16.232 16.232 0 0 0-10.81-6.6 1 1 0 0 0-1.11.8c-.13.714-.21 1.435-.24 2.16a17.998 17.998 0 0 1 10.83 6.39 18.114 18.114 0 0 1 4 9.82c.033-.077.057-.157.07-.24a16.18 16.18 0 0 0-2.74-12.33z" fill="#9ceb60"/><path d="M14.492 34.17c-.06 0-.12-.004-.18-.012a16.62 16.62 0 0 1-11.32-7.012A16.623 16.623 0 0 1 .271 14.633a1.503 1.503 0 0 1 1.667-1.208 16.853 16.853 0 0 1 11.152 6.794 16.79 16.79 0 0 1 2.876 12.741 1.517 1.517 0 0 1-1.474 1.21zM1.74 14.414a.502.502 0 0 0-.486.405c-1.539 8.529 4.152 16.727 12.688 18.267.167.03.335.058.504.082.239.035.485-.143.538-.396a15.78 15.78 0 0 0-2.706-11.967 15.834 15.834 0 0 0-10.477-6.388.638.638 0 0 0-.061-.003z" fill="#45413c"/><path d="M28.873 21.073a9.19 9.19 0 0 0-3.9 6 .56.56 0 0 0 .43.64 9.23 9.23 0 0 0 11-7.43.57.57 0 0 0-.44-.64 9.23 9.23 0 0 0-7.09 1.43z" fill="#6dd627"/><path d="M25.433 27.743h.06a9.19 9.19 0 0 1 10.38-5.67 8.97 8.97 0 0 0 .5-1.76.57.57 0 0 0-.44-.64 9.22 9.22 0 0 0-10.95 7.43.56.56 0 0 0 .45.64z" fill="#9ceb60"/><path d="M27.314 28.415c-.665 0-1.34-.069-2.016-.212a1.063 1.063 0 0 1-.819-1.214 9.75 9.75 0 0 1 4.112-6.329 9.774 9.774 0 0 1 7.473-1.506c.552.123.914.651.832 1.203-.02.12-.041.229-.064.338-.967 4.574-5.019 7.72-9.518 7.72zm6.682-8.433a8.553 8.553 0 0 0-4.84 1.504l-.003.002a8.736 8.736 0 0 0-3.688 5.673A8.674 8.674 0 0 0 35.91 20.2a8.49 8.49 0 0 0-1.914-.218zm-5.123 1.091h.01-.01z" fill="#45413c"/><path d="M16.623 8.993a13.609 13.609 0 0 0-10.08-3.28.84.84 0 0 0-.75.87c.426 7.505 6.855 13.243 14.359 12.817.127-.007.254-.016.381-.027a.83.83 0 0 0 .75-.86 13.575 13.575 0 0 0-4.66-9.52z" fill="#6dd627"/><path d="M6.063 8.593a.74.74 0 0 1 .48-.22 13.6 13.6 0 0 1 14.48 10.78.799.799 0 0 0 .26-.64c-.408-7.494-6.815-13.239-14.309-12.83-.144.008-.288.018-.431.03a.84.84 0 0 0-.75.87c.04.676.131 1.348.27 2.01z" fill="#9ceb60"/><path d="M19.361 19.922a14 14 0 0 1-9.376-3.584 14.014 14.014 0 0 1-4.691-9.727c-.03-.71.496-1.32 1.196-1.396a14.186 14.186 0 0 1 10.461 3.399 14.144 14.144 0 0 1 4.832 9.871 1.331 1.331 0 0 1-1.202 1.384 14.847 14.847 0 0 1-1.22.053zM7.686 6.164c-.367 0-.733.016-1.101.047a.34.34 0 0 0-.293.351 13.018 13.018 0 0 0 4.358 9.03 13.03 13.03 0 0 0 9.839 3.283.33.33 0 0 0 .293-.341 13.13 13.13 0 0 0-4.488-9.163 13.19 13.19 0 0 0-8.608-3.207zM15.962 40.643a.5.5 0 0 1-.442-.732 12.192 12.192 0 0 1 6.257-5.673.5.5 0 0 1 .373.927 11.19 11.19 0 0 0-5.743 5.208.501.501 0 0 1-.445.27zM18.623 32.663a.5.5 0 0 1-.483-.629c.49-1.834 2.234-2.633 3.773-3.338 1.071-.491 2.083-.954 2.655-1.689a.497.497 0 0 1 .701-.088.498.498 0 0 1 .088.701c-.722.929-1.894 1.466-3.028 1.985-1.468.673-2.855 1.308-3.224 2.687a.5.5 0 0 1-.482.371z" fill="#45413c"/><path d="M21.263 24.313a.5.5 0 0 1-.47-.67c.009-.025.876-2.496-.423-3.958a.5.5 0 1 1 .748-.664c1.699 1.911.661 4.839.616 4.963a.503.503 0 0 1-.471.329zM17.313 37.084a.5.5 0 0 1-.365-.158l-.3-.32a14.356 14.356 0 0 1-2.222-3.228.5.5 0 0 1 .893-.449 13.366 13.366 0 0 0 2.062 2.998l.295.315a.5.5 0 0 1-.363.842zM24.413 18.213a.5.5 0 0 1-.421-.771l.089-.14a24.02 24.02 0 0 1 10.872-8.833.5.5 0 0 1 .651.274.499.499 0 0 1-.273.653 23.008 23.008 0 0 0-10.414 8.457l-.083.13a.5.5 0 0 1-.421.23z" fill="#45413c"/><path d="M20.753 19.823a.5.5 0 0 1-.451-.283l-.14-.29c-.011-.022-1.544-2.977-7.029-7.522a.5.5 0 1 1 .638-.77c5.676 4.703 7.226 7.725 7.289 7.851l.143.296a.499.499 0 0 1-.45.718zM25.073 27.973a.502.502 0 0 1-.358-.85l.489-.5a22.618 22.618 0 0 1 5.12-3.78.5.5 0 0 1 .475.88 21.662 21.662 0 0 0-4.887 3.606l-.482.493a.493.493 0 0 1-.357.151zM21.974 35.202a.498.498 0 0 1-.291-.906c.145-.104 3.635-2.532 10.437-2.151a.5.5 0 0 1 .472.526c-.015.275-.243.505-.526.472-6.419-.354-9.771 1.945-9.804 1.969a.512.512 0 0 1-.288.09zM14.873 33.653a.5.5 0 0 1-.479-.357c-.015-.052-1.612-5.26-7.038-10.792a.5.5 0 0 1 .714-.7c5.612 5.723 7.217 10.987 7.283 11.208a.5.5 0 0 1-.48.641z" fill="#45413c"/></svg>