<svg xmlns="http://www.w3.org/2000/svg" viewBox="0 0 45.929 45.929" width="512" height="512"><ellipse cx="11.019" cy="44.429" rx="9" ry="1.5" opacity=".15" fill="#45413c"/><ellipse cx="35.739" cy="44.429" rx="9" ry="1.5" opacity=".15" fill="#45413c"/><path d="M9.559 28.929c0 4.17-1.95 10.69-1.95 10.69a.68.68 0 0 1-.78.5c-2.74-.49-5-.37-5.6.33a.33.33 0 0 0 .05.45c.56.49 2.39 1.85 6.35 2.83s6.22.64 6.94.46a.31.31 0 0 0 .25-.38c-.21-.9-2.14-2-4.8-2.9a.69.69 0 0 1-.45-.8s1.31-6.69 3.26-10.37l-3.27-.81z" fill="#00b8f0"/><path d="M12.501 44.894c-1.192 0-2.853-.15-4.992-.68C3.48 43.216 1.58 41.826.95 41.275a.831.831 0 0 1-.121-1.127c1.11-1.296 4.94-.728 6.088-.521a.182.182 0 0 0 .208-.132c.024-.084 1.935-6.518 1.935-10.565a.502.502 0 0 1 .62-.486l3.27.81a.502.502 0 0 1 .321.719c-1.893 3.571-3.199 10.166-3.211 10.231-.023.105.03.2.121.23 1.769.6 4.789 1.819 5.125 3.261.047.268-.003.482-.129.659a.806.806 0 0 1-.525.327c-.287.073-1.001.213-2.151.213zM1.764 40.653c.64.512 2.426 1.71 5.984 2.591 3.621.896 5.73.658 6.507.503-.347-.56-1.785-1.48-4.397-2.364a1.191 1.191 0 0 1-.779-1.38c.05-.253 1.22-6.164 3.021-9.929l-2.055-.509c-.169 4.173-1.881 9.941-1.958 10.197-.148.579-.747.954-1.349.849-2.798-.502-4.426-.268-4.974.042zm12.684 3.05l-.015.004.015-.004zM1.603 40.518l.003.003-.003-.003z" fill="#45413c"/><path d="M10.949 3.629c.9-.82 3.11-.62 6.54.23s5.48 1.7 5.9 2.85c1 2-.11 14.44-.7 16.82-1.298 5.247-6.603 8.448-11.85 7.15s-8.448-6.603-7.15-11.85c.64-2.38 5.42-13.9 7.26-15.2z" fill="#00b8f0"/><path d="M4.889 26.279c9.83-1.89 15.81-9.56 18.93-15.15a13.201 13.201 0 0 0-.41-4.42c-.42-1.15-2.46-2-5.9-2.85s-5.64-1-6.54-.23c-1.86 1.3-6.64 12.82-7.23 15.2a9.7 9.7 0 0 0 1.15 7.45z" fill="#4acfff"/><path d="M16.869 6.479c3.43.85 6.36 1 6.54.23-.42-1.15-2.46-2-5.9-2.85s-5.64-1-6.54-.23c-.18.72 2.46 2 5.9 2.85z" fill="#00b8f0"/><path d="M13.207 31.469c-.829 0-1.663-.101-2.488-.305-5.506-1.362-8.877-6.949-7.515-12.456.589-2.19 5.381-13.951 7.431-15.47 1.001-.884 3.028-.844 6.975.134 3.978.986 5.789 1.902 6.25 3.164 1.067 2.127-.086 14.698-.685 17.112a10.225 10.225 0 0 1-4.671 6.338 10.232 10.232 0 0 1-5.297 1.483zm-.338-27.858c-.692 0-1.273.104-1.584.387a.454.454 0 0 1-.048.039c-1.613 1.14-6.379 12.372-7.065 14.922-1.227 4.96 1.816 10.005 6.787 11.235a9.229 9.229 0 0 0 7.027-1.063 9.22 9.22 0 0 0 4.217-5.722c.592-2.387 1.637-14.679.738-16.476-.44-1.196-3.391-2.047-5.573-2.588-.867-.216-2.957-.734-4.499-.734zm-1.92.018h.01-.01z" fill="#45413c"/><path d="M21.68 7.696c-1.836 0-4.24-.561-4.931-.732-.685-.169-6.673-1.707-6.289-3.444a.5.5 0 0 1 .977.217c.141.273 1.97 1.369 5.552 2.256 3.568.884 5.685.768 5.978.513.067-.268.319-.391.585-.323.268.067.41.379.342.647-.163.652-1.081.866-2.214.866z" fill="#45413c"/><g><path d="M6.029 20.779s1.3-2.45 4.9-1.56a4.79 4.79 0 0 1 3.93 3.71l-8.83-2.15z" fill="#e04122"/><path d="M21.079 23.119a8.093 8.093 0 0 1-15.71-3.89 13.274 13.274 0 0 0 4.26 2.44c2 .49 5.23-1.48 7.19-1a13.26 13.26 0 0 1 4.26 2.45z" fill="#e04122"/><path d="M6.649 25.929a24.545 24.545 0 0 0 9.64-5.27c-2-.1-4.87 1.51-6.66 1.06a13.267 13.267 0 0 1-4.26-2.49 8.068 8.068 0 0 0 1.28 6.7z" fill="#ff6242"/></g><g fill="#e5f8ff"><path d="M13.359 9.399a1.34 1.34 0 0 1-1.606 1.006l-.024-.006a1.35 1.35 0 0 1 .596-2.634l.054.013c.714.183 1.15.904.98 1.621zM10.259 10.719a.68.68 0 1 1-.499-.822l.009.002a.68.68 0 0 1 .49.82z"/></g><g><path d="M32.339 27.089c2.2 3.54 4 10.13 4 10.13a.66.66 0 0 1-.39.82c-2.59 1-4.44 2.32-4.6 3.23a.33.33 0 0 0 .28.36c.73.12 3 .32 6.89-.93s5.63-2.73 6.15-3.25a.32.32 0 0 0 .008-.452l-.008-.008c-.65-.65-2.9-.62-5.61 0a.66.66 0 0 1-.8-.44s-2.4-6.38-2.67-10.54l-3.25 1.08z" fill="#00b8f0"/><path d="M32.89 42.218c-.617 0-1.064-.05-1.342-.096a.826.826 0 0 1-.696-.906c.243-1.391 2.8-2.827 4.917-3.645a.16.16 0 0 0 .095-.198c-.024-.088-1.814-6.584-3.949-10.021a.499.499 0 0 1 .268-.739l3.25-1.08a.502.502 0 0 1 .657.443c.262 4.039 2.615 10.333 2.639 10.396.035.109.121.149.202.133 1.153-.264 4.942-1.022 6.094.129a.616.616 0 0 1 .069.084c.096.087.178.294.174.513a.815.815 0 0 1-.249.576c-.584.584-2.384 2.094-6.345 3.366-2.624.844-4.547 1.045-5.784 1.045zm-.976-1.054c.915.113 3.024.159 6.451-.941 3.544-1.14 5.242-2.47 5.821-3.005-.417-.242-2.056-.418-5.017.258-.584.161-1.202-.183-1.389-.777-.085-.225-2.192-5.863-2.636-10.016l-2.061.686c2.061 3.633 3.666 9.46 3.736 9.719.184.563-.117 1.196-.693 1.418-2.504.967-3.882 2.058-4.212 2.658zm-.211-.029h.004-.004zm12.613-4.04l-.004.003.004-.003z" fill="#45413c"/><path d="M20.229 4.809c.33-1.17 2.32-2.16 5.72-3.24s5.53-1.43 6.48-.64c1.94 1.14 7.52 12.3 8.24 14.64 1.657 5.139-1.166 10.648-6.305 12.305s-10.648-1.166-12.305-6.305c-.75-2.37-2.73-14.64-1.83-16.76z" fill="#00b8f0"/><path d="M26.949 27.279c7.36-6.78 8.41-16.45 8.13-22.84a13.014 13.014 0 0 0-2.65-3.51c-.95-.75-3.15-.4-6.51.68s-5.36 2.07-5.69 3.24c-.9 2.09 1.08 14.39 1.83 16.73a9.719 9.719 0 0 0 4.89 5.7z" fill="#4acfff"/><path d="M26.739 4.129c3.37-1.08 5.91-2.53 5.69-3.2-.95-.75-3.15-.4-6.51.68s-5.36 2.07-5.69 3.24c.23.67 3.14.36 6.51-.72z" fill="#00b8f0"/><path d="M31.353 28.85c-1.608 0-3.203-.381-4.676-1.136a10.212 10.212 0 0 1-5.094-5.992c-.654-2.066-2.802-14.635-1.827-17.078.383-1.281 2.139-2.312 6.041-3.552 3.961-1.258 5.91-1.414 6.951-.547 2.076 1.212 7.668 12.504 8.398 14.877a10.2 10.2 0 0 1-.637 7.833 10.208 10.208 0 0 1-5.993 5.094 10.288 10.288 0 0 1-3.163.501zm-.511-27.835c-1.296 0-3.13.518-4.742 1.03-1.242.395-5.022 1.595-5.39 2.899a.608.608 0 0 1-.021.06c-.821 1.935 1.063 13.939 1.846 16.414.76 2.356 2.393 4.277 4.598 5.407s4.719 1.333 7.077.573c2.358-.761 4.279-2.394 5.409-4.599s1.334-4.719.574-7.077c-.723-2.348-6.254-13.326-8.017-14.362-.298-.245-.764-.345-1.334-.345zM20.229 4.809h.01-.01z" fill="#45413c"/><path d="M21.503 5.729c-.889 0-1.576-.19-1.75-.726a.5.5 0 0 1 .951-.309c.259.156 2.375.122 5.882-1.002 3.504-1.123 5.245-2.334 5.359-2.704-.082-.264.069-.5.333-.582.257-.081.547.11.628.374.519 1.676-4.92 3.513-6.016 3.864-.743.24-3.513 1.085-5.387 1.085z" fill="#45413c"/><g><path d="M25.039 21.999s-.18-2.77 3.35-3.91a4.779 4.779 0 0 1 5.31 1.13l-8.66 2.78z" fill="#e04122"/><path d="M39.069 16.079a8.092 8.092 0 0 1-15.41 4.94c1.632.252 3.296.201 4.91-.15 1.93-.62 3.67-4 5.59-4.63a13.294 13.294 0 0 1 4.91-.16z" fill="#e04122"/><path d="M28.239 26.009a24.63 24.63 0 0 0 5.44-9.55c-1.74 1-3.35 3.84-5.11 4.41a13.446 13.446 0 0 1-4.91.15 8.11 8.11 0 0 0 4.58 4.99z" fill="#ff6242"/></g><g fill="#e5f8ff"><path d="M25.299 8.459a1.35 1.35 0 1 1-1.699-.87 1.37 1.37 0 0 1 1.699.87zM23.349 11.209a.68.68 0 0 1-1.29.42.68.68 0 0 1 .44-.85.67.67 0 0 1 .848.423l.002.007z"/></g></g></svg>