<svg xmlns="http://www.w3.org/2000/svg" viewBox="0 0 43.319 43.319" width="512" height="512"><path d="M13.544 35.093a14.412 14.412 0 0 1-12.29.69 1.22 1.22 0 0 1-.74-1.31 14.419 14.419 0 0 1 7-10.15 14.412 14.412 0 0 1 12.29-.69c.514.22.817.756.74 1.31a14.419 14.419 0 0 1-7 10.15z" fill="#6dd627"/><path d="M20.514 24.933a14.467 14.467 0 0 1-7 10.16c-.669.372-1.368.687-2.09.94a20.71 20.71 0 0 1-8.09-8.12 13.393 13.393 0 0 1 4.1-3.59 14.428 14.428 0 0 1 12.3-.7c.529.206.851.746.78 1.31z" fill="#46b000"/><path d="M6.675 37.344c-1.897 0-3.799-.364-5.608-1.099a1.714 1.714 0 0 1-1.046-1.848 14.873 14.873 0 0 1 7.243-10.508 14.867 14.867 0 0 1 12.729-.72 1.743 1.743 0 0 1 1.047 1.841 14.876 14.876 0 0 1-7.244 10.515l-.013.007a14.874 14.874 0 0 1-7.108 1.812zm7.711-14.272a13.9 13.9 0 0 0-6.634 1.69 13.87 13.87 0 0 0-6.745 9.792c-.049.322.13.64.437.767a13.863 13.863 0 0 0 11.855-.664 13.872 13.872 0 0 0 6.751-9.795.739.739 0 0 0-.443-.769 13.89 13.89 0 0 0-5.221-1.021zm-.842 12.021h.01-.01z" fill="#45413c"/><path d="M29.774 35.093a14.412 14.412 0 0 0 12.29.69 1.21 1.21 0 0 0 .74-1.31 14.44 14.44 0 0 0-7-10.15 14.427 14.427 0 0 0-12.3-.69 1.22 1.22 0 0 0-.73 1.31 14.41 14.41 0 0 0 7 10.15z" fill="#6dd627"/><path d="M22.814 24.933a14.428 14.428 0 0 0 7 10.16c.669.372 1.368.687 2.09.94a20.71 20.71 0 0 0 8.09-8.12 13.282 13.282 0 0 0-4.1-3.59 14.413 14.413 0 0 0-12.29-.7 1.22 1.22 0 0 0-.79 1.31z" fill="#46b000"/><path d="M36.644 37.344c-2.45 0-4.891-.607-7.108-1.812l-.013-.007a14.854 14.854 0 0 1-7.242-10.503 1.72 1.72 0 0 1 1.028-1.851 14.882 14.882 0 0 1 12.733.711 14.894 14.894 0 0 1 7.255 10.509 1.7 1.7 0 0 1-1.046 1.854 14.879 14.879 0 0 1-5.607 1.099zm-6.625-2.687c3.67 1.99 7.99 2.23 11.857.663a.707.707 0 0 0 .434-.769 13.893 13.893 0 0 0-6.757-9.796 13.873 13.873 0 0 0-11.861-.659.719.719 0 0 0-.424.771 13.86 13.86 0 0 0 6.751 9.79z" fill="#45413c"/><path fill="#e0366f" d="M19.014 21.453l-1.63-5.02 4.27-3.1 4.27 3.1-1.63 5.02z"/><path d="M24.294 21.953h-5.28a.5.5 0 0 1-.476-.346l-1.63-5.02a.499.499 0 0 1 .182-.559l4.27-3.1a.501.501 0 0 1 .588 0l4.27 3.1a.502.502 0 0 1 .182.559l-1.63 5.02a.502.502 0 0 1-.476.346zm-4.917-1h4.554l1.405-4.329-3.682-2.673-3.682 2.673 1.405 4.329z" fill="#45413c"/><ellipse cx="21.664" cy="41.563" rx="12.16" ry="1.59" opacity=".15" fill="#45413c"/><path d="M17.504 16.473l-6.13-2a6.35 6.35 0 0 1-1.72-11.16l2-1.44a6.35 6.35 0 0 1 10 5.14v6.44a3.181 3.181 0 0 1-4.15 3.02z" fill="#ff87af"/><path d="M11.584 1.873l-1.93 1.44a6.269 6.269 0 0 0-2.5 6.32 6.24 6.24 0 0 1 2.5-3.92l2-1.44a6.35 6.35 0 0 1 10 5.14v-2.4a6.34 6.34 0 0 0-10.07-5.14z" fill="#ffb0ca"/><path d="M18.474 17.124a3.88 3.88 0 0 1-1.123-.175l-.002-.001-6.13-2a6.808 6.808 0 0 1-3.962-3.439 6.803 6.803 0 0 1-.368-5.229A6.804 6.804 0 0 1 9.36 2.909l2.002-1.441a6.859 6.859 0 0 1 9.547 1.664 6.826 6.826 0 0 1 1.245 3.877v6.444a3.684 3.684 0 0 1-3.68 3.671zm-.817-1.127c.261.084.533.126.81.127h.008a2.682 2.682 0 0 0 2.679-2.673V7.013a5.818 5.818 0 0 0-1.063-3.307 5.857 5.857 0 0 0-8.149-1.424L9.946 3.719a5.816 5.816 0 0 0-2.108 2.878 5.815 5.815 0 0 0 .314 4.466 5.811 5.811 0 0 0 3.38 2.936l6.125 1.998z" fill="#45413c"/><path d="M25.814 16.473l6.13-2a6.35 6.35 0 0 0 1.77-11.16l-2-1.44a6.34 6.34 0 0 0-10.06 5.14v6.44a3.17 3.17 0 0 0 4.16 3.02z" fill="#ff87af"/><path d="M31.734 1.873l2 1.44a6.269 6.269 0 0 1 2.5 6.32 6.24 6.24 0 0 0-2.5-3.92l-2-1.44a6.35 6.35 0 0 0-10.08 5.14v-2.4a6.341 6.341 0 0 1 10.08-5.14z" fill="#ffb0ca"/><path d="M24.824 17.131h-.01a3.647 3.647 0 0 1-2.593-1.082 3.646 3.646 0 0 1-1.068-2.598V7.013a6.799 6.799 0 0 1 1.301-4.02 6.794 6.794 0 0 1 4.46-2.741 6.802 6.802 0 0 1 5.092 1.216l1.999 1.439a6.825 6.825 0 0 1 2.47 3.398 6.808 6.808 0 0 1-.398 5.228 6.804 6.804 0 0 1-3.979 3.415l-6.13 2a3.638 3.638 0 0 1-1.144.183zm3.183-15.966a5.89 5.89 0 0 0-.934.075 5.802 5.802 0 0 0-3.809 2.34 5.805 5.805 0 0 0-1.111 3.432v6.44a2.652 2.652 0 0 0 .777 1.891 2.652 2.652 0 0 0 1.886.787h.008c.284 0 .564-.045.833-.133h.001l6.13-2a5.813 5.813 0 0 0 3.397-2.917 5.808 5.808 0 0 0 .339-4.464 5.813 5.813 0 0 0-2.105-2.9l-1.997-1.438a5.805 5.805 0 0 0-3.415-1.113z" fill="#45413c"/><path d="M24.224 21.353l3.79 5.22a6.35 6.35 0 0 1-5.13 10.08h-2.45a6.35 6.35 0 0 1-5.13-10.08l3.79-5.22a3.17 3.17 0 0 1 5.13 0z" fill="#ff87af"/><path d="M24.224 21.353a3.18 3.18 0 0 0-5.13 0l-1.46 2a7.562 7.562 0 0 1 8.05 0l-1.46-2z" fill="#ff6196"/><path d="M20.434 37.153a6.81 6.81 0 0 1-4.841-2.013 6.81 6.81 0 0 1-2-4.847 6.816 6.816 0 0 1 1.306-4.015l3.79-5.22a3.65 3.65 0 0 1 2.395-1.468 3.667 3.667 0 0 1 3.544 1.468l3.789 5.219a6.808 6.808 0 0 1 1.223 5.1 6.805 6.805 0 0 1-2.742 4.468 6.807 6.807 0 0 1-4.014 1.307h-2.45zm1.231-16.608a2.652 2.652 0 0 0-2.166 1.101l-3.79 5.22a5.817 5.817 0 0 0-1.116 3.429 5.855 5.855 0 0 0 5.841 5.857h2.45a5.823 5.823 0 0 0 3.427-1.115 5.806 5.806 0 0 0 2.342-3.816 5.811 5.811 0 0 0-1.043-4.354l-3.79-5.22-.001-.001a2.655 2.655 0 0 0-2.154-1.101z" fill="#45413c"/><path d="M4.134 24.803l-.76-2.32a6.35 6.35 0 0 1 8-8l6.13 2a3.17 3.17 0 0 1 1.59 4.88l-3.79 5.22a6.35 6.35 0 0 1-11.17-1.78z" fill="#ff87af"/><path d="M11.374 17.243l6.13 2a3.14 3.14 0 0 1 1.88 1.64 3.18 3.18 0 0 0-1.88-4.4l-6.13-2a6.34 6.34 0 0 0-8.16 7.39 6.35 6.35 0 0 1 8.16-4.63z" fill="#ff6196"/><path d="M10.164 29.689c-1.4 0-2.812-.427-4.027-1.313a6.808 6.808 0 0 1-2.479-3.418l-.76-2.32a6.806 6.806 0 0 1 .413-5.227 6.807 6.807 0 0 1 3.988-3.404 6.821 6.821 0 0 1 4.229 0l6.131 2a3.673 3.673 0 0 1 1.839 5.649l-3.79 5.221a6.845 6.845 0 0 1-5.544 2.812zm-.75-15.018c-.608 0-1.215.096-1.806.287a5.813 5.813 0 0 0-3.406 2.907 5.816 5.816 0 0 0-.353 4.463l.759 2.319v.001a5.815 5.815 0 0 0 2.117 2.919 5.859 5.859 0 0 0 8.174-1.279l3.789-5.22a2.674 2.674 0 0 0-1.339-4.111l-6.131-2a5.874 5.874 0 0 0-1.804-.286z" fill="#45413c"/><path d="M39.184 24.803l.76-2.32a6.35 6.35 0 0 0-8-8l-6.13 2a3.18 3.18 0 0 0-1.59 4.88l3.79 5.22a6.35 6.35 0 0 0 11.17-1.78z" fill="#ff87af"/><path d="M31.944 17.243l-6.13 2a3.17 3.17 0 0 0-1.88 1.64 3.18 3.18 0 0 1 1.88-4.4l6.13-2a6.34 6.34 0 0 1 8.16 7.39 6.35 6.35 0 0 0-8.16-4.63z" fill="#ff6196"/><path d="M33.159 29.693c-.356 0-.716-.027-1.074-.084a6.812 6.812 0 0 1-4.476-2.73l-3.79-5.222a3.685 3.685 0 0 1 1.838-5.649l6.131-2a6.803 6.803 0 0 1 4.23 0 6.807 6.807 0 0 1 3.988 3.404 6.8 6.8 0 0 1 .412 5.226l-.76 2.32a6.811 6.811 0 0 1-2.479 3.419 6.797 6.797 0 0 1-4.02 1.316zm.746-15.022c-.608 0-1.216.096-1.807.287l-6.129 2a2.684 2.684 0 0 0-1.339 4.113l3.788 5.219a5.857 5.857 0 0 0 8.173 1.278 5.803 5.803 0 0 0 2.117-2.919v-.001l.76-2.32c.482-1.485.357-3.07-.353-4.462s-1.919-2.424-3.405-2.907a5.832 5.832 0 0 0-1.805-.288zM21.654 18.323a.5.5 0 0 1-.478-.353 22.092 22.092 0 0 0-4.703-8.271.5.5 0 1 1 .741-.671 23.104 23.104 0 0 1 4.917 8.648.5.5 0 0 1-.477.647z" fill="#45413c"/><g><path d="M15.824 4.663a2.21 2.21 0 1 1-2.21-2.21h.04a2.21 2.21 0 0 1 2.17 2.21z" fill="#ffe500"/><path d="M13.614 7.373s-.001 0 0 0a2.713 2.713 0 0 1-2.71-2.71 2.713 2.713 0 0 1 2.71-2.709c1.516.027 2.71 1.242 2.709 2.71 0 .724-.282 1.405-.794 1.917a2.694 2.694 0 0 1-1.915.792zm.03-4.42c-.973 0-1.74.767-1.74 1.709 0 .943.767 1.71 1.709 1.71.457 0 .886-.178 1.209-.5.323-.323.501-.752.501-1.209a1.717 1.717 0 0 0-1.679-1.71c.001 0 .001 0 0 0z" fill="#45413c"/><path d="M19.724 7.093a2.34 2.34 0 1 1-2.34-2.34h.01a2.33 2.33 0 0 1 2.33 2.33v.01z" fill="#ffe500"/><path d="M17.384 9.933a2.843 2.843 0 0 1-2.84-2.84 2.843 2.843 0 0 1 2.84-2.84c1.57 0 2.84 1.27 2.84 2.83v.01a2.843 2.843 0 0 1-2.84 2.84zm.01-4.68c-1.025 0-1.85.825-1.85 1.84s.825 1.84 1.84 1.84 1.84-.825 1.84-1.84v-.01c0-1.009-.821-1.83-1.83-1.83z" fill="#45413c"/><g><path d="M13.294 8.223a2.21 2.21 0 1 1-4.419.001 2.21 2.21 0 0 1 4.419-.001z" fill="#ffe500"/><path d="M11.084 10.933c-1.494 0-2.71-1.216-2.71-2.71s1.216-2.71 2.71-2.71 2.71 1.216 2.71 2.71-1.216 2.71-2.71 2.71zm0-4.42c-.943 0-1.71.767-1.71 1.71s.767 1.71 1.71 1.71 1.71-.767 1.71-1.71-.767-1.71-1.71-1.71z" fill="#45413c"/></g><g><path d="M17.264 10.693a2.34 2.34 0 1 1-4.68 0 2.34 2.34 0 0 1 4.68 0z" fill="#ffe500"/><path d="M14.924 13.533c-1.566 0-2.84-1.274-2.84-2.84s1.274-2.84 2.84-2.84 2.84 1.274 2.84 2.84-1.274 2.84-2.84 2.84zm0-4.68c-1.015 0-1.84.825-1.84 1.84s.825 1.84 1.84 1.84 1.84-.826 1.84-1.84-.825-1.84-1.84-1.84z" fill="#45413c"/></g></g></svg>