<svg xmlns="http://www.w3.org/2000/svg" viewBox="0 0 43.999 43.999" width="512" height="512"><ellipse cx="21.999" cy="42.139" rx="14.91" ry="1.86" opacity=".15" fill="#45413c"/><path d="M10.199.509h3.73v41h-3.73a1.24 1.24 0 0 1-1.2-1.25V1.749c0-.67.531-1.219 1.2-1.24z" fill="#debb7e"/><path fill="#debb7e" d="M13.919.509h16.15v4.97h-16.15z"/><path fill="#f0d5a8" d="M13.929.509h16.15v2.48h-16.15z"/><path d="M30.07 5.979H13.92a.5.5 0 0 1-.5-.5V.509a.5.5 0 0 1 .5-.5h16.15a.5.5 0 0 1 .5.5v4.97a.5.5 0 0 1-.5.5zm-15.65-1h15.15v-3.97H14.42v3.97z" fill="#45413c"/><path fill="#debb7e" d="M13.929 20.389h16.15v4.97h-16.15z"/><path d="M30.08 25.859H13.93a.5.5 0 0 1-.5-.5v-4.97a.5.5 0 0 1 .5-.5h16.15a.5.5 0 0 1 .5.5v4.97a.5.5 0 0 1-.5.5zm-15.651-1h15.15v-3.97h-15.15v3.97z" fill="#45413c"/><path fill="#debb7e" d="M13.929 36.539h16.15v4.97h-16.15z"/><path d="M30.08 42.009H13.93a.5.5 0 0 1-.5-.5v-4.97a.5.5 0 0 1 .5-.5h16.15a.5.5 0 0 1 .5.5v4.97a.5.5 0 0 1-.5.5zm-15.651-1h15.15v-3.97h-15.15v3.97z" fill="#45413c"/><path d="M30.069.509h3.73c.669.022 1.2.57 1.2 1.24v38.51a1.24 1.24 0 0 1-1.2 1.24h-3.73v-41 .01z" fill="#debb7e"/><path d="M10.199.509a1.23 1.23 0 0 0-1.2 1.24v3.73a2.48 2.48 0 0 1 2.44-2.48h2.49V.509h-3.73zM33.799.509h-3.73v2.49h2.49a2.48 2.48 0 0 1 2.44 2.48v-3.73a1.229 1.229 0 0 0-1.2-1.24z" fill="#f0d5a8"/><path d="M13.929 42.009h-3.73a1.732 1.732 0 0 1-1.7-1.754V1.749c0-.944.739-1.709 1.683-1.74h3.747a.5.5 0 0 1 .5.5v41a.5.5 0 0 1-.5.5zm-3.72-41a.735.735 0 0 0-.709.739v38.51a.736.736 0 0 0 .716.75h3.214v-40h-3.221zM30.07 41.999a.5.5 0 0 1-.5-.5v-41c0-.31.307-.548.599-.49H33.8c.961.031 1.7.795 1.7 1.74v38.51c0 .945-.74 1.71-1.685 1.74H30.07zm.5-1h3.229a.734.734 0 0 0 .7-.74V1.749a.738.738 0 0 0-.717-.741h-3.213v39.991z" fill="#45413c"/><path d="M32.559 18.519h2.44v6.83h-1.2a1.24 1.24 0 0 1-1.24-1.24v-5.59z" fill="#ffe500"/><path d="M35 25.848h-1.2c-.96 0-1.74-.78-1.74-1.739v-5.59a.5.5 0 0 1 .5-.5H35a.5.5 0 0 1 .5.5v6.83a.5.5 0 0 1-.5.499zm-1.941-6.829v5.09a.74.74 0 0 0 .74.739h.7v-5.83h-1.44z" fill="#45413c"/><circle cx="33.799" cy="19.759" r="1.86" fill="#ffe500"/><path d="M33.799 19.479a1.842 1.842 0 0 1 1.68 1.07c.121-.246.182-.516.18-.79a1.86 1.86 0 0 0-3.72 0c.003.273.064.543.18.79a1.87 1.87 0 0 1 1.68-1.07z" fill="#fff48c"/><path d="M33.799 22.119c-1.302 0-2.36-1.059-2.36-2.36s1.059-2.36 2.36-2.36 2.36 1.059 2.36 2.36-1.058 2.36-2.36 2.36zm0-3.72c-.75 0-1.36.61-1.36 1.36s.61 1.36 1.36 1.36 1.36-.61 1.36-1.36-.61-1.36-1.36-1.36z" fill="#45413c"/><path fill="#debb7e" d="M13.929 5.479h16.15v14.91h-16.15z"/><path fill="#b89558" d="M13.929 5.479h16.15v2.43h-16.15z"/><path d="M30.08 20.889H13.93a.5.5 0 0 1-.5-.5V5.479a.5.5 0 0 1 .5-.5h16.15a.5.5 0 0 1 .5.5v14.91a.5.5 0 0 1-.5.5zm-15.651-1h15.15V5.979h-15.15v13.91z" fill="#45413c"/><path fill="#debb7e" d="M13.929 25.349h16.15v11.18h-16.15z"/><path fill="#b89558" d="M13.929 25.349h16.15v2.43h-16.15z"/><path d="M30.08 37.029H13.93a.5.5 0 0 1-.5-.5V25.348a.5.5 0 0 1 .5-.5h16.15a.5.5 0 0 1 .5.5v11.181a.5.5 0 0 1-.5.5zm-15.651-1h15.15V25.848h-15.15v10.181z" fill="#45413c"/></svg>