<svg xmlns="http://www.w3.org/2000/svg" viewBox="0 0 44.5 44.5" width="512" height="512"><ellipse cx="22.5" cy="38.61" rx="17.76" ry="1.67" opacity=".15" fill="#45413c"/><path d="M5.77 15.67a9.709 9.709 0 0 0-4.44 8.16v9.05h41.63V12.04a7.078 7.078 0 0 0-.61-2.87l-.65-1.45a5.088 5.088 0 0 0-4.64-3h-22.3a6.209 6.209 0 0 0-5.65 3.64l-3.34 7.31z" fill="#f0f0f0"/><path d="M42.35 9.17l-.65-1.45a5.088 5.088 0 0 0-4.64-3h-22.3a6.22 6.22 0 0 0-5.65 3.64l-3.34 7.31a9.709 9.709 0 0 0-4.44 8.16v4.25a9.71 9.71 0 0 1 4.44-8.15l3.34-7.32a6.209 6.209 0 0 1 5.65-3.64h22.3a5.08 5.08 0 0 1 4.64 3l.65 1.46c.399.897.607 1.868.61 2.85v-4.24a7.078 7.078 0 0 0-.61-2.87z" fill="#fff"/><path d="M42.96 33.38H1.33a.5.5 0 0 1-.5-.5v-9.05a10.172 10.172 0 0 1 4.545-8.499l3.28-7.179a6.723 6.723 0 0 1 6.104-3.932h22.3a5.601 5.601 0 0 1 5.097 3.294l.649 1.451a7.51 7.51 0 0 1 .654 3.074V32.88a.498.498 0 0 1-.499.5zm-41.13-1h40.63V12.04a6.52 6.52 0 0 0-.567-2.666l-.648-1.449A4.601 4.601 0 0 0 37.06 5.22h-22.3a5.723 5.723 0 0 0-5.195 3.347l-3.34 7.311a.508.508 0 0 1-.183.212 9.171 9.171 0 0 0-4.211 7.74v8.55zm3.94-16.71h.01-.01z" fill="#45413c"/><path d="M1.61 28.79h8.05c.613 0 1.11.497 1.11 1.11v1.87a1.11 1.11 0 0 1-1.11 1.11H1.61A1.11 1.11 0 0 1 .5 31.77V29.9c0-.613.497-1.11 1.11-1.11zM35.74 28.79h7.15c.613 0 1.11.497 1.11 1.11v1.87a1.11 1.11 0 0 1-1.11 1.11h-7.15a1.11 1.11 0 0 1-1.11-1.11V29.9c0-.613.497-1.11 1.11-1.11z" fill="#c0dceb"/><path d="M9.66 29.03h-8a1.11 1.11 0 0 0-1.159 1.059L.5 30.14v1.8c0-.613.497-1.11 1.11-1.11h8.05c.613 0 1.11.497 1.11 1.11v-1.8a1.11 1.11 0 0 0-1.11-1.11zM42.89 29.03h-7.15a1.11 1.11 0 0 0-1.11 1.11v1.8c0-.613.497-1.11 1.11-1.11h7.15c.613 0 1.11.497 1.11 1.11v-1.8a1.11 1.11 0 0 0-1.11-1.11z" fill="#daedf7"/><path d="M9.66 33.38H1.61c-.888 0-1.61-.722-1.61-1.61V29.9a1.61 1.61 0 0 1 1.61-1.609h8.05c.888 0 1.61.722 1.61 1.609v1.87c0 .888-.722 1.61-1.61 1.61zm-8.05-4.09a.61.61 0 0 0-.61.61v1.87c0 .337.273.61.61.61h8.05a.61.61 0 0 0 .61-.61V29.9a.61.61 0 0 0-.61-.609H1.61zM42.89 33.38h-7.15c-.888 0-1.61-.723-1.61-1.61V29.9c0-.888.723-1.609 1.61-1.609h7.149c.888 0 1.61.722 1.61 1.609v1.87a1.61 1.61 0 0 1-1.609 1.61zm-7.15-4.09a.61.61 0 0 0-.61.609v1.87c0 .337.273.61.61.61h7.149a.61.61 0 0 0 .61-.61V29.9a.61.61 0 0 0-.61-.609H35.74z" fill="#45413c"/><circle cx="10.77" cy="32.88" r="4.9" fill="#656769"/><circle cx="34.63" cy="32.88" r="4.9" fill="#656769"/><path d="M10.77 30.02a4.9 4.9 0 0 1 4.79 3.88 4.9 4.9 0 1 0-9.59 0 4.9 4.9 0 0 1 4.8-3.88zM34.63 30.02a4.9 4.9 0 0 1 4.8 3.88 4.91 4.91 0 1 0-9.59.001 4.9 4.9 0 0 1 4.79-3.881z" fill="#87898c"/><path d="M10.77 38.28c-2.978 0-5.4-2.422-5.4-5.399s2.422-5.4 5.4-5.4 5.4 2.423 5.4 5.4-2.422 5.399-5.4 5.399zm0-9.8a4.405 4.405 0 0 0-4.4 4.4c0 2.426 1.974 4.399 4.4 4.399s4.4-1.974 4.4-4.399c0-2.427-1.974-4.4-4.4-4.4zM34.63 38.28c-2.978 0-5.399-2.422-5.399-5.399s2.422-5.4 5.399-5.4 5.4 2.423 5.4 5.4-2.423 5.399-5.4 5.399zm0-9.8a4.404 4.404 0 0 0-4.399 4.4 4.404 4.404 0 0 0 4.399 4.399c2.427 0 4.4-1.974 4.4-4.399 0-2.427-1.973-4.4-4.4-4.4z" fill="#45413c"/><path d="M1.33 24.5v1.58h41.63v-3.8h-32a14.68 14.68 0 0 0-4.21.62l-5.42 1.6z" fill="#00dba8"/><path d="M42.96 26.58H1.33a.5.5 0 0 1-.5-.5V24.5c0-.222.146-.417.358-.479l5.42-1.601a15.22 15.22 0 0 1 4.351-.641h32a.5.5 0 0 1 .5.5v3.801a.498.498 0 0 1-.499.5zm-41.13-1h40.63v-2.8h-31.5a14.218 14.218 0 0 0-4.066.599L1.83 24.874v.706z" fill="#45413c"/><path d="M4.66 28.79H1.33v-4.33l2.1-.49a1 1 0 0 1 1.23 1v3.82z" fill="#ff8a14"/><path d="M4.66 29.29H1.33a.5.5 0 0 1-.5-.5v-4.33a.5.5 0 0 1 .386-.487l2.1-.49a1.505 1.505 0 0 1 1.804 1.116c.029.124.043.253.04.383v3.81a.498.498 0 0 1-.5.498zm-2.83-1h2.33v-3.32a.497.497 0 0 0-.614-.515l-1.715.4v3.435z" fill="#45413c"/><path d="M41.2 20.77h1.76v8h-3.12v-6.63a1.37 1.37 0 0 1 1.36-1.37z" fill="#ff8a14"/><path d="M42.96 29.27h-3.12a.5.5 0 0 1-.5-.5v-6.63c0-1.023.833-1.862 1.856-1.87h1.764a.5.5 0 0 1 .5.5v8a.5.5 0 0 1-.5.5zm-2.62-1h2.12v-7h-1.258a.873.873 0 0 0-.862.87v6.13z" fill="#45413c"/><path fill="#ffe500" d="M39.84 25.08h3.12v3.71h-3.12z"/><path d="M42.96 29.29h-3.12a.5.5 0 0 1-.5-.5v-3.71a.5.5 0 0 1 .5-.5h3.12a.5.5 0 0 1 .5.5v3.71a.5.5 0 0 1-.5.5zm-2.62-1h2.12v-2.71h-2.12v2.71z" fill="#45413c"/><circle cx="10.77" cy="32.88" r="1.8" fill="#c0dceb"/><path d="M10.77 35.18c-1.268 0-2.3-1.031-2.3-2.3s1.032-2.3 2.3-2.3 2.3 1.031 2.3 2.3-1.032 2.3-2.3 2.3zm0-3.6a1.301 1.301 0 0 0 0 2.6 1.301 1.301 0 0 0 0-2.6z" fill="#45413c"/><circle cx="34.63" cy="32.88" r="1.8" fill="#c0dceb"/><path d="M34.63 35.18c-1.269 0-2.3-1.031-2.3-2.3s1.031-2.3 2.3-2.3 2.3 1.031 2.3 2.3-1.032 2.3-2.3 2.3zm0-3.6a1.301 1.301 0 0 0 0 2.6 1.301 1.301 0 0 0 0-2.6z" fill="#45413c"/><path d="M13.85 8.37H9.1l-3.33 7.3h6.29a1.11 1.11 0 0 0 1-.74l1.79-5.09a1.11 1.11 0 0 0-1-1.47z" fill="#00b8f0"/><path d="M13.85 8.37h-1.18l-4.7 7.3h4.09a1.11 1.11 0 0 0 1-.74l1.79-5.09a1.11 1.11 0 0 0-1-1.47z" fill="#4acfff"/><path d="M20.86 15.67h-3.65a1.11 1.11 0 0 1-1.05-1.46l1.71-5.09a1.1 1.1 0 0 1 1.05-.75h1.94a1.1 1.1 0 0 1 1.11 1.09v5.1a1.1 1.1 0 0 1-1.09 1.11h-.02z" fill="#00b8f0"/><path d="M21.62 8.66l-4.51 7h3.75a1.1 1.1 0 0 0 1.11-1.09V9.48a1.17 1.17 0 0 0-.35-.82z" fill="#4acfff"/><path d="M38.15 15.67H25.67a1.17 1.17 0 0 1-1.17-1.16v-5a1.17 1.17 0 0 1 1.17-1.16H37.5a1.31 1.31 0 0 1 1.14.68l.39.72c.211.386.321.82.32 1.26v3.48a1.169 1.169 0 0 1-1.16 1.18h-.04z" fill="#00b8f0"/><path d="M38.61 9.05a1.312 1.312 0 0 0-1.11-.68h-2.09l-4.69 7.3h7.43a1.17 1.17 0 0 0 1.17-1.16v-3.48A2.616 2.616 0 0 0 39 9.77l-.39-.72z" fill="#4acfff"/><path d="M5.77 16.17a.498.498 0 0 1-.455-.707l3.33-7.3A.5.5 0 0 1 9.1 7.87h4.773a1.599 1.599 0 0 1 1.374.902c.189.387.216.823.076 1.23l-1.791 5.093a1.604 1.604 0 0 1-1.45 1.074l-6.312.001zm.778-1h5.512a.601.601 0 0 0 .528-.407l1.79-5.089a.61.61 0 0 0-.541-.804H9.421l-2.873 6.3zM20.86 16.17h-3.65a1.612 1.612 0 0 1-1.523-2.118l1.71-5.091a1.597 1.597 0 0 1 1.517-1.091h1.961c.871 0 1.588.708 1.596 1.585v5.105a1.602 1.602 0 0 1-1.585 1.61h-.026zm-1.944-7.3a.6.6 0 0 0-.572.409l-1.71 5.091a.61.61 0 0 0 .577.801h3.668a.6.6 0 0 0 .59-.606V9.48c-.003-.346-.275-.635-.606-.61h-1.947zM38.15 16.17H25.67A1.677 1.677 0 0 1 24 14.514V9.51a1.677 1.677 0 0 1 1.67-1.66H37.5a1.815 1.815 0 0 1 1.578.939l.392.722c.249.457.381.976.38 1.5v3.479c.004.441-.166.862-.479 1.181s-.73.496-1.177.5l-.044-.001zm-.654-7.32H25.67a.672.672 0 0 0-.67.665v4.996c.003.362.304.66.67.66h12.499a.677.677 0 0 0 .489-.2.663.663 0 0 0 .191-.476V11.01a2.135 2.135 0 0 0-.258-1.021l-.391-.721a.809.809 0 0 0-.704-.418z" fill="#45413c"/></svg>