<svg xmlns="http://www.w3.org/2000/svg" viewBox="0 0 46.533 46.533" width="512" height="512"><ellipse cx="28.426" cy="45.033" rx="9" ry="1.5" opacity=".15" fill="#45413c"/><path d="M37.526 45.033a24.918 24.918 0 0 0 7.88-10.68l-2.12-2.12a17.176 17.176 0 0 0-7.47-4.38c-2.825-.8-5.4-2.307-7.48-4.38l-4.71-4.72-3.09 3.1 4.71 4.68a17.176 17.176 0 0 1 4.38 7.47 17.257 17.257 0 0 0 4.38 7.53l3.52 3.5z" fill="#46b000"/><path d="M28.336 26.873a17.256 17.256 0 0 0 7.48 4.38 17.086 17.086 0 0 1 7.47 4.38l1.06 1.06c.391-.765.741-1.549 1.05-2.35l-2.11-2.11a17.176 17.176 0 0 0-7.47-4.38c-2.825-.8-5.4-2.307-7.48-4.38l-4.71-4.72-1.72 1.7 6.43 6.42z" fill="#6dd627"/><path d="M35.816 27.853c-2.825-.8-5.4-2.307-7.48-4.38l-4.71-4.72-3.09 3.1 4.71 4.68a17.176 17.176 0 0 1 4.38 7.47v.14l5-.77a.64.64 0 0 0 .53-.52l.76-5h-.1z" fill="#ffe500"/><path d="M35.446 31.143l.5-3.25h-.13c-2.825-.8-5.4-2.307-7.48-4.38l-4.71-4.72-1.72 1.66 6.41 6.42a17.252 17.252 0 0 0 7.13 4.27z" fill="#fff48c"/><path d="M29.626 34.643a.5.5 0 0 1-.5-.5v-.07a16.71 16.71 0 0 0-4.233-7.187l-4.709-4.679a.499.499 0 0 1-.001-.708l3.09-3.1a.515.515 0 0 1 .708 0l4.709 4.72a16.796 16.796 0 0 0 7.197 4.233h.029a.497.497 0 0 1 .494.575l-.76 5a1.146 1.146 0 0 1-.945.938l-5.003.771a.384.384 0 0 1-.076.007zm-8.382-12.792l4.355 4.327a17.721 17.721 0 0 1 4.424 7.397l4.527-.697a.14.14 0 0 0 .114-.113l.688-4.527a17.802 17.802 0 0 1-7.368-4.41l-4.357-4.367-2.383 2.39z" fill="#45413c"/><path d="M37.527 45.533a.498.498 0 0 1-.353-.146l-3.521-3.5a17.783 17.783 0 0 1-4.509-7.751 16.709 16.709 0 0 0-4.252-7.25l-4.709-4.679a.499.499 0 0 1-.001-.708l3.09-3.1a.515.515 0 0 1 .708 0l4.709 4.72a16.792 16.792 0 0 0 7.263 4.252 17.704 17.704 0 0 1 7.688 4.508L45.76 34c.14.14.184.349.113.532a25.44 25.44 0 0 1-8.038 10.895.5.5 0 0 1-.308.106zM21.244 21.851l4.355 4.327a17.724 17.724 0 0 1 4.509 7.688 16.786 16.786 0 0 0 4.253 7.313l3.202 3.184a24.423 24.423 0 0 0 7.259-9.889l-1.889-1.889a16.714 16.714 0 0 0-7.252-4.252 17.805 17.805 0 0 1-7.697-4.507l-4.357-4.367-2.383 2.392z" fill="#45413c"/><path d="M37.526 45.033a24.918 24.918 0 0 0 7.88-10.68l-.11-.11-9.28 9.29 1.51 1.5z" fill="#ffe500"/><path d="M37.527 45.533a.498.498 0 0 1-.353-.146l-1.511-1.5a.5.5 0 0 1-.001-.708l9.28-9.29a.514.514 0 0 1 .707 0l.111.111c.14.14.184.349.113.532a25.44 25.44 0 0 1-8.038 10.895.5.5 0 0 1-.308.106zm-.803-2.001l.839.832a24.411 24.411 0 0 0 6.5-8.18l-7.339 7.348z" fill="#45413c"/><path d="M20.089 20.967l2.652-2.652a.62.62 0 0 1 .877 0l.884.884a.31.31 0 0 1 0 .438l-3.09 3.09a.31.31 0 0 1-.438 0l-.884-.884a.618.618 0 0 1-.001-.876z" fill="#46b000"/><path d="M21.192 23.319a.807.807 0 0 1-.573-.237l-.884-.884a1.12 1.12 0 0 1 0-1.584l2.651-2.652a1.147 1.147 0 0 1 1.584 0l.884.884c.153.153.237.356.237.573s-.084.42-.237.573l-3.09 3.09a.803.803 0 0 1-.572.237zm.135-.944h.01-.01zm1.852-3.741a.12.12 0 0 0-.085.035l-2.651 2.652a.12.12 0 0 0 0 .17l.75.75 2.821-2.822-.75-.75a.12.12 0 0 0-.085-.035zm-3.09 2.333h.01-.01z" fill="#45413c"/><path d="M20.906 28.053a.94.94 0 0 1-1.87 0c.191-.64.485-1.244.87-1.79a.188.188 0 0 1 .15-.09.192.192 0 0 1 .16.09 6.16 6.16 0 0 1 .69 1.79z" fill="#fff"/><path d="M19.974 29.396a1.446 1.446 0 0 1-1.435-1.291.508.508 0 0 1 .019-.194 6.657 6.657 0 0 1 .94-1.936.677.677 0 0 1 .527-.302c.276.003.493.126.617.328.355.613.606 1.265.752 1.947a.51.51 0 0 1 .009.156c-.04.382-.226.727-.524.969a1.419 1.419 0 0 1-.905.323zm-.423-1.312c.05.166.198.292.375.311a.471.471 0 0 0 .323-.097.434.434 0 0 0 .148-.229 5.609 5.609 0 0 0-.365-1.073 5.565 5.565 0 0 0-.481 1.088zm.78-1.557l-.019.026c.007-.007.013-.017.019-.026z" fill="#45413c"/><path d="M34.576 16.423a4.29 4.29 0 0 1-3.54 2l-1.25-2.2a4.313 4.313 0 0 0 3.53-2l1.26 2.2z" fill="#6dd627"/><path d="M31.036 18.923a.5.5 0 0 1-.435-.253l-1.25-2.2a.5.5 0 0 1 .422-.747 3.807 3.807 0 0 0 3.121-1.768.501.501 0 0 1 .856.019l1.26 2.2a.5.5 0 0 1-.011.516 4.782 4.782 0 0 1-3.952 2.233h-.011zm-.44-2.287l.722 1.27a3.782 3.782 0 0 0 2.669-1.507l-.729-1.273a4.81 4.81 0 0 1-2.662 1.51z" fill="#45413c"/><path d="M25.956 40.213a3.49 3.49 0 0 1-2.87 1.62l-1-1.79a3.46 3.46 0 0 0 2.82-1.62l1.05 1.79z" fill="#ff6242"/><path d="M23.086 42.333a.502.502 0 0 1-.437-.256l-1-1.79a.503.503 0 0 1 .42-.744 2.956 2.956 0 0 0 2.413-1.386.465.465 0 0 1 .431-.234.503.503 0 0 1 .424.247l1.05 1.79a.499.499 0 0 1-.01.521 3.98 3.98 0 0 1-3.281 1.853l-.01-.001zm-.205-1.893l.487.872a2.982 2.982 0 0 0 1.995-1.124l-.515-.878a3.959 3.959 0 0 1-1.967 1.13z" fill="#45413c"/><path d="M31.826 6.143a3.787 3.787 0 0 1-.44 3.54l-2.21-.28a3.801 3.801 0 0 0 .44-3.53l2.21.27z" fill="#ffe500"/><path d="M31.386 10.183a.444.444 0 0 1-.063-.004l-2.21-.28a.5.5 0 0 1-.347-.783 3.295 3.295 0 0 0 .382-3.065.5.5 0 0 1 .528-.674l2.21.27a.5.5 0 0 1 .406.317 4.286 4.286 0 0 1-.498 4.007.497.497 0 0 1-.408.212zM29.98 9.001l1.156.146a3.281 3.281 0 0 0 .316-2.546l-1.156-.141a4.293 4.293 0 0 1-.316 2.541z" fill="#45413c"/><g><path d="M7.536 17.703a3.792 3.792 0 0 1-.43 3.54l-2.2-.28a3.772 3.772 0 0 0 .43-3.53l2.2.27z" fill="#ffe500"/><path d="M7.106 21.743a.444.444 0 0 1-.063-.004l-2.2-.28a.502.502 0 0 1-.347-.783 3.267 3.267 0 0 0 .373-3.063.502.502 0 0 1 .528-.677l2.2.27a.498.498 0 0 1 .405.316 4.285 4.285 0 0 1-.487 4.007.497.497 0 0 1-.409.214zM5.71 20.561l1.145.146a3.284 3.284 0 0 0 .309-2.546l-1.143-.14a4.258 4.258 0 0 1-.311 2.54z" fill="#45413c"/></g><g><path d="M22.046 9.073a3.61 3.61 0 0 1-.71-3.3l2.06-.44a3.601 3.601 0 0 0 .71 3.29l-2.06.45z" fill="#00b8f0"/><path d="M22.046 9.573a.499.499 0 0 1-.383-.179 4.11 4.11 0 0 1-.809-3.757.5.5 0 0 1 .377-.353l2.06-.44a.5.5 0 0 1 .586.624 3.098 3.098 0 0 0 .611 2.833.498.498 0 0 1 .09.483.497.497 0 0 1-.366.327l-2.06.45a.466.466 0 0 1-.106.012zm-.295-3.378c-.147.81.032 1.644.499 2.321l1.025-.224a4.1 4.1 0 0 1-.5-2.316l-1.024.219z" fill="#45413c"/></g><g><path d="M13.746 35.073a5.342 5.342 0 0 1-1.06-4.92l3.08-.62a5.34 5.34 0 0 0 1.05 4.92l-3.07.62z" fill="#6dd627"/><path d="M13.746 35.573a.495.495 0 0 1-.381-.177 5.83 5.83 0 0 1-1.16-5.381.503.503 0 0 1 .382-.353l3.08-.62a.503.503 0 0 1 .466.151c.118.129.161.31.113.478a4.829 4.829 0 0 0 .952 4.459.5.5 0 0 1-.283.812l-3.07.62a.417.417 0 0 1-.099.011zm-.652-4.992a4.827 4.827 0 0 0 .853 3.941l2.006-.405a5.821 5.821 0 0 1-.835-3.943l-2.024.407z" fill="#45413c"/></g><g><path d="M12.076 38.343a4.09 4.09 0 0 1 2.36 3l-1.88 1.48a4 4 0 0 0-2.36-3l1.88-1.48z" fill="#00b8f0"/><path d="M12.556 43.323a.497.497 0 0 1-.493-.416 3.49 3.49 0 0 0-2.065-2.625.5.5 0 0 1-.111-.852l1.88-1.48a.498.498 0 0 1 .513-.064 4.591 4.591 0 0 1 2.648 3.367.498.498 0 0 1-.182.482l-1.88 1.48a.5.5 0 0 1-.31.108zm-1.454-3.577a4.474 4.474 0 0 1 1.742 2.214l1.036-.815a3.595 3.595 0 0 0-1.742-2.214l-1.036.815z" fill="#45413c"/></g><g><path d="M42.236 18.323a4.579 4.579 0 0 1-4.1-1.39l.87-2.57a4.59 4.59 0 0 0 4.1 1.4l-.87 2.56z" fill="#ff6242"/><path d="M41.478 18.886a5.065 5.065 0 0 1-3.707-1.612.498.498 0 0 1-.108-.501l.87-2.57a.5.5 0 0 1 .84-.181 4.087 4.087 0 0 0 3.653 1.248.493.493 0 0 1 .463.17.503.503 0 0 1 .092.484l-.87 2.56a.501.501 0 0 1-.392.332c-.281.047-.562.07-.841.07zm.759-.563h.01-.01zm-3.528-1.525a4.082 4.082 0 0 0 3.154 1.069l.524-1.544a5.182 5.182 0 0 1-3.153-1.076l-.525 1.551z" fill="#45413c"/></g><g><path d="M7.596 36.193a3.928 3.928 0 0 1-3.48-1.18l.79-2.17a3.92 3.92 0 0 0 3.47 1.18l-.78 2.17z" fill="#ffe500"/><path d="M6.972 36.743a4.423 4.423 0 0 1-3.218-1.386.5.5 0 0 1-.106-.515l.79-2.171a.499.499 0 0 1 .834-.172 3.413 3.413 0 0 0 3.027 1.029.5.5 0 0 1 .55.663l-.78 2.17a.5.5 0 0 1-.392.325 4.438 4.438 0 0 1-.705.057zm.625-.55h.01-.01zm-2.9-1.313a3.419 3.419 0 0 0 2.533.853l.417-1.162a4.4 4.4 0 0 1-2.522-.868l-.428 1.177z" fill="#45413c"/></g><g><path d="M1.126 27.263a3.879 3.879 0 0 1 2.35-2.73l1.73 1.44a3.861 3.861 0 0 0-2.3 2.76l-1.78-1.47z" fill="#ff6242"/><path d="M2.906 29.233a.498.498 0 0 1-.318-.114l-1.78-1.47a.5.5 0 0 1-.168-.499 4.38 4.38 0 0 1 2.653-3.082.498.498 0 0 1 .503.081l1.73 1.44a.501.501 0 0 1-.129.846 3.359 3.359 0 0 0-2.002 2.402.5.5 0 0 1-.489.396zm-1.211-2.148l.957.79a4.357 4.357 0 0 1 1.661-1.995l-.917-.764a3.375 3.375 0 0 0-1.701 1.969z" fill="#45413c"/></g><g><circle cx="13.796" cy="17.643" r="1.09" fill="#fff"/><path d="M13.796 19.233c-.876 0-1.59-.713-1.59-1.59 0-.876.713-1.59 1.59-1.59s1.59.713 1.59 1.59c0 .877-.713 1.59-1.59 1.59zm0-2.18a.591.591 0 0 0 0 1.18.591.591 0 0 0 0-1.18z" fill="#45413c"/></g><g><circle cx="21.136" cy="13.113" r="1.11" fill="#fff"/><path d="M21.136 14.723c-.888 0-1.61-.722-1.61-1.61s.722-1.61 1.61-1.61c.888 0 1.61.722 1.61 1.61s-.722 1.61-1.61 1.61zm0-2.22a.61.61 0 1 0 .001 1.221.61.61 0 0 0-.001-1.221z" fill="#45413c"/></g><g><path d="M7.616 3.303l-2.55 2.55c-7.01-1.46 1.09-9.53 2.55-2.55z" fill="#debb7e"/><path d="M5.066 6.353a.443.443 0 0 1-.102-.011c-3.045-.634-3.259-2.395-3.209-3.123C1.862 1.646 3.397.114 4.975.005 5.702-.04 7.471.165 8.106 3.2a.502.502 0 0 1-.136.456l-2.55 2.55a.5.5 0 0 1-.354.147zM5.157.999c-.037 0-.075.001-.113.004-1.083.074-2.217 1.207-2.291 2.285-.065.945.698 1.655 2.155 2.016l2.16-2.159C6.721 1.753 6.05.999 5.157.999z" fill="#45413c"/><g><path d="M7.436 3.533l1.83 1.51c.131.115.21.277.22.45a.66.66 0 0 1-.18.48l-1.63 1.56a.62.62 0 0 1-.47.18.65.65 0 0 1-.45-.18l-1.51-1.86 2.19-2.14z" fill="#debb7e"/><path d="M7.238 8.214c-.02 0-.047.002-.059-.001-.272 0-.554-.113-.768-.318L4.858 5.988a.499.499 0 0 1 .039-.672l2.19-2.14a.5.5 0 0 1 .668-.028l1.83 1.51c.241.211.382.501.4.806.013.319-.102.627-.315.853L8.022 7.894c-.204.203-.489.32-.784.32zM5.922 5.712l1.222 1.506c-.016-.02.023-.005.062-.005.003-.002.122-.039.124-.042l1.63-1.56a.17.17 0 0 0 .026-.098.144.144 0 0 0-.05-.094L7.465 4.204 5.922 5.712z" fill="#45413c"/></g></g><g fill="#45413c"><path d="M16.456 14.853a.502.502 0 0 1-.354-.146l-2.89-2.89a.5.5 0 0 1 .707-.707l2.89 2.89a.5.5 0 0 1-.353.853zM15.327 11.643a.502.502 0 0 1-.354-.146l-1.44-1.44a.5.5 0 0 1 .707-.707l1.44 1.44a.5.5 0 0 1-.353.853zM12.926 9.233a.496.496 0 0 1-.347-.14l-.25-.24a.5.5 0 0 1 .693-.721l.25.24a.5.5 0 0 1-.346.861zM12.597 11.003a.502.502 0 0 1-.354-.146l-.24-.24a.5.5 0 0 1 .707-.707l.24.24a.5.5 0 0 1-.353.853zM11.716 8.033a.502.502 0 0 1-.354-.146l-.24-.24a.5.5 0 0 1 .707-.707l.24.24a.5.5 0 0 1-.353.853zM13.126 13.853a.502.502 0 0 1-.354-.146l-1.45-1.45a.5.5 0 0 1 .707-.707l1.45 1.45a.5.5 0 0 1-.353.853zM10.716 11.443a.5.5 0 0 1-.354-.147l-.24-.24a.5.5 0 1 1 .708-.706l.24.24a.5.5 0 0 1-.354.853zM9.506 10.243a.502.502 0 0 1-.354-.146l-.24-.24a.5.5 0 0 1 .707-.707l.24.24a.5.5 0 0 1-.353.853zM11.396 9.803a.498.498 0 0 1-.36-.153l-.24-.25a.5.5 0 0 1 .721-.693l.24.25a.5.5 0 0 1-.361.846z"/></g><g><path d="M22.546 16.223a1.8 1.8 0 0 0-2.54 0 1.478 1.478 0 0 0-.22-.29 1.44 1.44 0 1 0-2 2c.089.087.19.162.3.22h-.05a1.8 1.8 0 0 0 0 2.54c.325.317.756.502 1.21.52v2.62a.78.78 0 0 0 1.56 0v-3.3a1.793 1.793 0 0 0 1-.5 1.75 1.75 0 0 0 .5-1.07 1.68 1.68 0 0 0 .26-.2 1.8 1.8 0 0 0-.02-2.54z" fill="#fff"/><path d="M20.024 25.112c-.34 0-.66-.133-.901-.373a1.268 1.268 0 0 1-.376-.906v-2.189a2.336 2.336 0 0 1-1.059-.592 2.31 2.31 0 0 1-.34-2.824 1.943 1.943 0 0 1 .158-3.092 1.944 1.944 0 0 1 2.597.385 2.305 2.305 0 0 1 2.82 3.593 2.265 2.265 0 0 1-.154.134 2.259 2.259 0 0 1-.608 1.138c-.242.24-.537.423-.855.536v2.912c0 .706-.58 1.266-1.282 1.278zm-1.721-6.508a1.305 1.305 0 0 0 .088 1.737c.232.225.544.36.875.373a.5.5 0 0 1 .48.5v2.62c0 .075.029.146.082.198.053.053.153.112.197.081a.281.281 0 0 0 .281-.28v-3.299c0-.248.182-.458.427-.495.271-.04.526-.168.721-.36.201-.203.328-.474.354-.761a.504.504 0 0 1 .232-.377c.065-.041.126-.087.182-.14a1.3 1.3 0 0 0-.028-1.821l-.001-.001a1.301 1.301 0 0 0-1.834 0 .5.5 0 0 1-.785-.104.964.964 0 0 0-.146-.192c-.196-.276-.41-.417-.656-.464a.94.94 0 0 0-.705 1.701c.125.111.187.157.255.193.202.108.305.34.25.563a.505.505 0 0 1-.269.328z" fill="#45413c"/></g></svg>