<svg xmlns="http://www.w3.org/2000/svg" viewBox="0 0 45.97 45.97" width="512" height="512"><ellipse cx="22.985" cy="44.25" rx="15.5" ry="1.72" opacity=".15" fill="#45413c"/><path d="M22.985 22.03c6.205 0 11.239 5.025 11.25 11.23v8.31a2 2 0 0 1-2 2h-18.54a2 2 0 0 1-2-2v-8.31c.011-6.213 5.057-11.241 11.27-11.23h.02z" fill="#00b8f0"/><path d="M22.985 22.03c-6.205 0-11.239 5.025-11.25 11.23v8.31l17.6-17.54a11.193 11.193 0 0 0-6.35-2z" fill="#4acfff"/><path d="M32.235 44.07h-18.54a2.503 2.503 0 0 1-2.5-2.5v-8.31c.012-6.473 5.281-11.73 11.75-11.73h.021l.019.5v-.5c6.468 0 11.739 5.261 11.75 11.729v8.312a2.502 2.502 0 0 1-2.5 2.499zm-9.289-21.54c-5.92 0-10.74 4.81-10.751 10.731v8.31c0 .827.673 1.5 1.5 1.5h18.54c.827 0 1.5-.673 1.5-1.5V33.26c-.01-5.916-4.833-10.73-10.75-10.73h-.039z" fill="#45413c"/><path d="M34.235 10.77V2.45a2 2 0 0 0-2-1.95h-18.54a2 2 0 0 0-2 1.95v8.32c.002 6.213 5.04 11.249 11.253 11.247 6.211-.002 11.245-5.036 11.247-11.247h.04z" fill="#00b8f0"/><path d="M31.785.5h-18.09a2 2 0 0 0-2 1.95v8.32a11.201 11.201 0 0 0 2.6 7.18L31.785.5z" fill="#4acfff"/><path d="M22.944 22.517a11.674 11.674 0 0 1-8.306-3.439 11.672 11.672 0 0 1-3.444-8.308V2.45a2.49 2.49 0 0 1 2.5-2.45h18.542a2.485 2.485 0 0 1 2.499 2.438v8.333a.494.494 0 0 1-.042.2c-.109 6.384-5.336 11.545-11.745 11.546h-.004zM13.694 1c-.821 0-1.479.643-1.5 1.463v8.307a10.681 10.681 0 0 0 3.151 7.601 10.68 10.68 0 0 0 7.599 3.146h.004c5.923-.001 10.745-4.822 10.747-10.747 0-.07.015-.136.04-.196V2.45A1.49 1.49 0 0 0 32.236 1H13.694zm20.541 9.77h.01-.01z" fill="#45413c"/><path d="M11.735.5a2 2 0 0 0 0 3.91h22.5a2 2 0 0 0 0-3.91h-22.5z" fill="#bf8256"/><path d="M36.185 2.45a2 2 0 0 0-2-1.95h-22.45a2 2 0 0 0-1.95 1.95h26.4z" fill="#dea47a"/><path d="M34.235 4.91h-22.5a.52.52 0 0 1-.105-.011 2.506 2.506 0 0 1-1.917-1.917 2.482 2.482 0 0 1 .343-1.882A2.482 2.482 0 0 1 11.63.011.52.52 0 0 1 11.735 0h22.5c.035 0 .07.004.105.011a2.505 2.505 0 0 1 1.574 3.799 2.482 2.482 0 0 1-1.574 1.089.535.535 0 0 1-.105.011zm-22.443-1h22.386c.37-.093.688-.319.896-.642.217-.336.29-.738.206-1.129-.121-.559-.551-1-1.103-1.139H11.792a1.502 1.502 0 0 0-1.102 1.771c.121.559.551 1 1.102 1.139z" fill="#45413c"/><path d="M11.735 39.62a2 2 0 0 0 0 3.91h22.5a2 2 0 0 0 0-3.91h-22.5z" fill="#bf8256"/><path d="M9.785 41.57a2 2 0 0 0 1.95 2h22.5a2 2 0 0 0 2-2H9.785z" fill="#915e3a"/><path d="M34.235 44.03h-22.5a.457.457 0 0 1-.105-.012 2.506 2.506 0 0 1-1.917-1.916 2.485 2.485 0 0 1 .343-1.883 2.482 2.482 0 0 1 1.574-1.089.535.535 0 0 1 .105-.011h22.5c.035 0 .071.004.105.012a2.506 2.506 0 0 1 1.916 1.916c.142.652.02 1.32-.342 1.882a2.482 2.482 0 0 1-1.574 1.089.463.463 0 0 1-.105.012zm-22.443-1h22.385c.371-.093.688-.319.896-.643.217-.337.29-.737.206-1.129-.121-.558-.551-1-1.103-1.139H11.792a1.486 1.486 0 0 0-.896.642 1.49 1.49 0 0 0-.206 1.13 1.506 1.506 0 0 0 1.102 1.139z" fill="#45413c"/><g><path d="M30.405 11.23a1 1 0 0 1 1.24 1.14 8.81 8.81 0 0 1-17.32 0 1 1 0 0 1 1.24-1.14 26.892 26.892 0 0 0 7.42 1 26.892 26.892 0 0 0 7.42-1z" fill="#f0d5a8"/><path d="M16.075 16.21l4.11-4.12a25.193 25.193 0 0 1-4.62-.86 1 1 0 0 0-1.24 1.14 8.826 8.826 0 0 0 1.75 3.84z" fill="#fff5e3"/><path d="M22.988 20.062a9.379 9.379 0 0 1-1.714-.159c-3.75-.701-6.74-3.691-7.441-7.441a1.505 1.505 0 0 1 1.859-1.716c2.378.667 4.847.99 7.29.984a26.514 26.514 0 0 0 7.296-.983c.384-.103.79-.048 1.137.154s.594.526.695.914c.056.208.065.424.028.64-.838 4.477-4.757 7.607-9.15 7.607zm-7.677-8.365a.5.5 0 0 0-.494.587c.625 3.341 3.293 6.01 6.641 6.636 4.508.843 8.853-2.138 9.696-6.641a.492.492 0 0 0-.011-.208.495.495 0 0 0-.607-.357 27.32 27.32 0 0 1-7.554 1.017 27.424 27.424 0 0 1-7.552-1.019.451.451 0 0 0-.119-.015z" fill="#45413c"/></g><path d="M13.695 35.71a2 2 0 0 0 1.95 2h14.68a2 2 0 0 0 1.95-2s-1.95-3.92-9.29-3.92-9.29 3.92-9.29 3.92z" fill="#f0d5a8"/><path d="M21.455 31.86c-6.08.5-7.76 3.85-7.76 3.85a2 2 0 0 0 1.95 2l5.81-5.85z" fill="#fff5e3"/><path d="M15.645 38.21a2.488 2.488 0 0 1-2.45-2.5.51.51 0 0 1 .052-.223c.085-.172 2.175-4.197 9.738-4.197s9.652 4.025 9.737 4.197a.495.495 0 0 1 .053.223 2.486 2.486 0 0 1-2.438 2.5H15.645zM14.2 35.832a1.49 1.49 0 0 0 1.458 1.378h14.667a1.487 1.487 0 0 0 1.445-1.378c-.36-.6-2.455-3.542-8.785-3.542-6.325 0-8.421 2.938-8.785 3.542z" fill="#45413c"/></svg>