<svg xmlns="http://www.w3.org/2000/svg" viewBox="0 0 45.3 45.3" width="512" height="512"><path d="M34.06 31.795s.51-7.21 4.68-5.3-1.62 6.11-1.62 6.11l-3.06-.81z" fill="#fcd"/><path d="M37.91 28.575c1.08.5 1.51 1.13 1.55 1.81 1-1.3 1.48-2.88-.72-3.89-2.63-1.21-3.8 1.22-4.31 3.17a2.48 2.48 0 0 1 3.48-1.09z" fill="#ffe5ee"/><path d="M37.12 33.105a.506.506 0 0 1-.128-.017l-3.061-.81a.5.5 0 0 1-.371-.519c.013-.181.338-4.432 2.505-5.716.834-.494 1.806-.498 2.883-.003 1.1.503 1.702 1.212 1.791 2.107.221 2.22-2.962 4.597-3.325 4.86a.488.488 0 0 1-.294.098zm-2.521-1.684l2.415.639c.953-.737 2.861-2.504 2.73-3.813-.053-.523-.449-.948-1.212-1.297-.771-.355-1.412-.368-1.956-.047-1.272.754-1.819 3.225-1.977 4.518z" fill="#45413c"/><path d="M36.87 32.535l-.2-1.38c-.09-.843.03-1.695.35-2.48" fill="#ebcb00"/><path d="M36.869 33.035a.5.5 0 0 1-.494-.429l-.2-1.381a5.654 5.654 0 0 1 .382-2.739.498.498 0 1 1 .925.377 4.65 4.65 0 0 0-.315 2.238l.198 1.362a.5.5 0 0 1-.496.572z" fill="#45413c"/><path d="M36.67 32.565a9.08 9.08 0 0 1 3.89-1.06c1.498.166 2.944.65 4.24 1.42l-1.06 3.18a9.387 9.387 0 0 0-3.18-2.48 4.86 4.86 0 0 0-3.54 0l-.35-1.06z" fill="#fcd"/><path d="M43.74 36.605a.5.5 0 0 1-.385-.181 8.938 8.938 0 0 0-3.012-2.348 4.337 4.337 0 0 0-3.143.015.5.5 0 0 1-.657-.31l-.35-1.061a.5.5 0 0 1 .239-.598 9.632 9.632 0 0 1 4.104-1.118 11.02 11.02 0 0 1 4.518 1.49.5.5 0 0 1 .219.588l-1.06 3.18a.5.5 0 0 1-.473.343zm-4.95-3.815c.661 0 1.322.123 1.952.369a10.03 10.03 0 0 1 2.794 1.978l.659-1.98a9.993 9.993 0 0 0-3.69-1.154 8.64 8.64 0 0 0-3.225.815l.057.174a5.358 5.358 0 0 1 1.453-.202z" fill="#45413c"/><path d="M19.74 16.295l1.56 1a7.135 7.135 0 0 1 2.42 2.72 43.925 43.925 0 0 0 4.51 7.55 147.09 147.09 0 0 0 11.3 12l1.41-1.42a150.943 150.943 0 0 1-10.59-11.24 39.486 39.486 0 0 1-3.86-6.13 7.1 7.1 0 0 1-.53-5.86l-6.22 1.38z" fill="#6dd627"/><path d="M39.53 40.065a.496.496 0 0 1-.344-.138 147.974 147.974 0 0 1-11.339-12.04 44.52 44.52 0 0 1-4.58-7.66 6.636 6.636 0 0 0-2.244-2.515l-1.553-.996a.499.499 0 0 1 .162-.909l6.22-1.38a.5.5 0 0 1 .58.653 6.604 6.604 0 0 0 .493 5.448 39.312 39.312 0 0 0 3.822 6.073 150.954 150.954 0 0 0 10.539 11.183.502.502 0 0 1 .008.713l-1.41 1.42a.497.497 0 0 1-.354.148zM21.022 16.523l.548.352a7.64 7.64 0 0 1 2.596 2.915 43.494 43.494 0 0 0 4.466 7.478 147.291 147.291 0 0 0 10.889 11.598l.707-.712A151.765 151.765 0 0 1 29.969 27.23a40.227 40.227 0 0 1-3.924-6.227 7.574 7.574 0 0 1-.797-5.417l-4.226.937z" fill="#45413c"/><ellipse cx="25.08" cy="42.495" rx="15.5" ry="1.5" opacity=".15" fill="#45413c"/><path d="M9.09 14.185l.71.2a8.652 8.652 0 0 1 3.85 2.24l25.14 25.13 1.41-1.41-24.27-24.28a9 9 0 0 1-2.63-6.13l-4.21 4.25z" fill="#6dd627"/><path d="M38.79 42.255a.502.502 0 0 1-.354-.146l-25.14-25.13a8.17 8.17 0 0 0-3.628-2.111l-.714-.201a.501.501 0 0 1-.22-.833l4.21-4.25a.498.498 0 1 1 .855.339 8.46 8.46 0 0 0 2.484 5.789l24.27 24.28a.5.5 0 0 1 0 .707l-1.41 1.41a.498.498 0 0 1-.353.146zM10.042 13.934a9.156 9.156 0 0 1 3.961 2.338L38.79 41.048l.703-.703-23.916-23.927a9.456 9.456 0 0 1-2.684-5.362l-2.851 2.878z" fill="#45413c"/><path d="M8.67 11.765a5.74 5.74 0 0 1-5.93-5.52l-.11-3.25 2.79 2.58a10.555 10.555 0 0 1 3.25 6.19z" fill="#ff6242"/><path d="M8.474 12.268c-3.332 0-6.106-2.651-6.233-6.004L2.13 3.012a.5.5 0 0 1 .839-.385l2.79 2.58a11.105 11.105 0 0 1 3.405 6.485.5.5 0 0 1-.478.572c-.07.003-.142.004-.212.004zM3.17 4.176l.07 2.052c.101 2.678 2.216 4.823 4.832 5.025a10.103 10.103 0 0 0-2.993-5.312L3.17 4.176z" fill="#45413c"/><path d="M10.63 10.295a5.72 5.72 0 0 0-4.552-6.687l-.018-.003-3.43-.61L5 6.145a10.623 10.623 0 0 0 5.63 4.15z" fill="#ff6242"/><path d="M6.13 5.585a5.73 5.73 0 0 1 4.54 4.46 5.73 5.73 0 0 0-4.61-6.44l-3.43-.61 1.67 2.26 1.83.33z" fill="#ff866e"/><path d="M10.63 10.795a.494.494 0 0 1-.147-.022 11.155 11.155 0 0 1-5.895-4.346L2.23 3.296a.501.501 0 0 1 .488-.793l3.43.61c3.393.644 5.613 3.906 4.974 7.276a.496.496 0 0 1-.492.406zM3.793 3.71l1.606 2.134a10.185 10.185 0 0 0 4.816 3.781 5.228 5.228 0 0 0-4.231-5.526L3.793 3.71z" fill="#45413c"/><path d="M11.63 14.535a7 7 0 0 0 .001-9.899l-.001-.001-2.83-2.83v4.67c.001 2.93.999 5.772 2.83 8.06z" fill="#ff6242"/><path d="M10.88 6.465a7 7 0 0 1 1.84 6.66 7 7 0 0 0-1.09-8.49L8.8 1.805v2.59l2.08 2.07z" fill="#ff866e"/><path d="M11.63 15.035l-.028-.001a.502.502 0 0 1-.363-.187A13.456 13.456 0 0 1 8.3 6.475v-4.67a.5.5 0 0 1 .854-.354l2.83 2.83a7.45 7.45 0 0 1 2.197 5.304 7.452 7.452 0 0 1-2.197 5.303.5.5 0 0 1-.354.147zM9.3 3.012v3.463c.001 2.61.838 5.174 2.366 7.282a6.45 6.45 0 0 0 1.515-4.172 6.457 6.457 0 0 0-1.904-4.596L9.3 3.012z" fill="#45413c"/><g><path d="M9.2 9.645a12.957 12.957 0 0 0-3.22-.41H1.3l2.83 2.83a7 7 0 0 0 7 1.75 12.679 12.679 0 0 1-1.93-4.17z" fill="#ff6242"/><path d="M9.078 14.622a7.484 7.484 0 0 1-5.302-2.204L.946 9.589a.499.499 0 0 1 .354-.854h4.68c1.127 0 2.253.144 3.345.425a.501.501 0 0 1 .359.36c.37 1.441.993 2.789 1.854 4.005a.498.498 0 0 1-.262.766 7.465 7.465 0 0 1-2.198.331zM2.507 9.735l1.977 1.976a6.488 6.488 0 0 0 5.837 1.791 13.133 13.133 0 0 1-1.526-3.442 12.42 12.42 0 0 0-2.815-.325H2.507z" fill="#45413c"/></g><g><path d="M24.1 13.495a5.73 5.73 0 0 0-1.88-7.88l-2.78-1.72.86 3.72a10.508 10.508 0 0 0 3.8 5.88z" fill="#ffe500"/><path d="M21.64 7.285a5.72 5.72 0 0 1 2.66 5.9 5.73 5.73 0 0 0-2-7.57l-2.86-1.72.56 2.38 1.64 1.01z" fill="#fff48c"/><path d="M24.1 13.995a.503.503 0 0 1-.306-.104 11.046 11.046 0 0 1-3.98-6.159l-.861-3.724a.501.501 0 0 1 .751-.538l2.78 1.72a6.237 6.237 0 0 1 2.042 8.567.496.496 0 0 1-.426.238zm-3.903-9.044l.59 2.551a10.04 10.04 0 0 0 3.162 5.222 5.238 5.238 0 0 0-1.991-6.684l-1.761-1.089z" fill="#45413c"/><path d="M21.85 14.415a5.73 5.73 0 0 1-3.55-7.28l1.14-3.24 1.59 3.57a10.63 10.63 0 0 1 .82 7v-.05z" fill="#ffe500"/><path d="M21.851 14.965a.5.5 0 0 1-.355-.147 6.239 6.239 0 0 1-3.669-7.846l1.141-3.244a.5.5 0 0 1 .929-.037l1.59 3.57c1.1 2.25 1.405 4.853.852 7.313a.503.503 0 0 1-.488.391zm-2.356-9.719l-.723 2.055a5.236 5.236 0 0 0 2.711 6.425 10.173 10.173 0 0 0-.902-6.042l-1.086-2.438z" fill="#45413c"/><path d="M25.08 17.325a7 7 0 0 1-8.609-4.887l-.001-.003-1.06-3.86 4.05 2.31a12.91 12.91 0 0 1 5.62 6.44z" fill="#ffe500"/><path d="M23.221 18.078c-3.291 0-6.316-2.185-7.232-5.507l-1.061-3.863a.5.5 0 0 1 .729-.566l4.05 2.31a13.456 13.456 0 0 1 5.836 6.688.5.5 0 0 1-.331.668 7.522 7.522 0 0 1-1.991.27zm-7.009-8.47l.74 2.694a6.505 6.505 0 0 0 7.434 4.669 12.459 12.459 0 0 0-5.172-5.651l-3.002-1.712z" fill="#45413c"/><g><path d="M22.01 12.785a12.732 12.732 0 0 1 1.22-2.94l2.3-4.06 1.06 3.86a7 7 0 0 1-1.87 6.88 12.85 12.85 0 0 0-2.71-3.74z" fill="#ffe500"/><path d="M25.59 10.995c.5 1.81.251 3.745-.69 5.37a7 7 0 0 0 1.69-6.7l-1.06-3.88-.92 1.62.98 3.59z" fill="#fff48c"/><path d="M24.72 17.025a.5.5 0 0 1-.451-.284 12.299 12.299 0 0 0-2.604-3.595.499.499 0 0 1-.136-.494c.294-1.067.72-2.095 1.268-3.055l2.3-4.059a.5.5 0 0 1 .917.114l1.06 3.86a7.5 7.5 0 0 1-2.004 7.371.505.505 0 0 1-.35.142zm-2.147-4.389a13.28 13.28 0 0 1 2.266 3.025 6.498 6.498 0 0 0 1.269-5.884l-.739-2.693-1.703 3.007c-.46.804-.826 1.659-1.093 2.545z" fill="#45413c"/></g></g><g><path d="M12.95 19.515l1 1.55a7.006 7.006 0 0 0 2.72 2.42 44.227 44.227 0 0 1 7.63 4.51c4.9 3.85 13.78 13.09 13.78 13.09l-1.44 1.41s-8.26-8.5-13.08-12.37a39.695 39.695 0 0 0-6.13-3.87 7.13 7.13 0 0 0-5.86-.53l1.38-6.21z" fill="#6dd627"/><path d="M36.64 42.995h-.006a.509.509 0 0 1-.353-.151c-.083-.085-8.294-8.522-13.034-12.329a39.327 39.327 0 0 0-6.044-3.814 6.643 6.643 0 0 0-5.469-.503.5.5 0 0 1-.653-.581l1.38-6.21a.502.502 0 0 1 .908-.163l1 1.55a6.509 6.509 0 0 0 2.523 2.244 44.73 44.73 0 0 1 7.702 4.556C29.479 31.43 38.35 40.647 38.439 40.74a.5.5 0 0 1-.011.704l-1.44 1.41a.497.497 0 0 1-.348.141zM13.914 24.828c1.305 0 2.603.335 3.763.991a40.297 40.297 0 0 1 6.188 3.909c4.232 3.397 11.153 10.397 12.783 12.06l.728-.713c-1.682-1.733-9.11-9.329-13.384-12.687a43.733 43.733 0 0 0-7.531-4.45 7.518 7.518 0 0 1-2.928-2.6l-.354-.548-.939 4.224a7.642 7.642 0 0 1 1.674-.186z" fill="#45413c"/></g><g><path d="M10.09 23.865a5.73 5.73 0 0 1-7.88-1.87L.5 19.205l3.71.88a10.575 10.575 0 0 1 5.88 3.78z" fill="#ff87af"/><path d="M7.097 25.213a6.231 6.231 0 0 1-5.312-2.956L.074 19.465a.501.501 0 0 1 .541-.748l3.71.88a11.126 11.126 0 0 1 6.159 3.958.502.502 0 0 1-.132.733 6.176 6.176 0 0 1-3.255.925zm-5.542-5.244l1.082 1.765a5.24 5.24 0 0 0 6.681 1.982 10.12 10.12 0 0 0-5.223-3.145l-2.54-.602z" fill="#45413c"/><path d="M11.07 21.615a5.73 5.73 0 0 0-7.27-3.56l-3.3 1.15 3.63 1.59a10.474 10.474 0 0 0 6.94.82z" fill="#ff6196"/><path d="M8.766 22.371c-1.675 0-3.342-.381-4.857-1.127L.3 19.663a.5.5 0 0 1 .035-.931l3.3-1.15a6.238 6.238 0 0 1 7.907 3.87.501.501 0 0 1-.362.65 10.94 10.94 0 0 1-2.414.269zm-6.899-3.113l2.463 1.079a10.036 10.036 0 0 0 6.048.903 5.24 5.24 0 0 0-6.417-2.712l-2.094.73z" fill="#45413c"/><path d="M13.98 24.845a7 7 0 0 0-4.89-8.6l-3.85-1.07 2.3 4.06a12.88 12.88 0 0 0 6.44 5.61z" fill="#ff87af"/><path d="M8.93 17.825a7 7 0 0 1 5.14 6.68 7 7 0 0 0-5-8.26l-3.83-1.07 1.06 1.93 2.63.72z" fill="#ff6196"/><path d="M13.98 25.345a.515.515 0 0 1-.185-.035 13.426 13.426 0 0 1-6.69-5.828l-2.3-4.061a.5.5 0 0 1 .569-.728l3.85 1.07c3.981 1.098 6.331 5.231 5.239 9.214a.498.498 0 0 1-.483.368zm-7.709-9.364l1.704 3.008a12.434 12.434 0 0 0 5.65 5.162c.594-3.27-1.405-6.524-4.668-7.424l-2.686-.746z" fill="#45413c"/><g><path d="M9.44 21.785a12.72 12.72 0 0 0-2.94 1.21l-4 2.3 3.8 1.07a7 7 0 0 0 6.88-1.87 13.219 13.219 0 0 1-3.74-2.71z" fill="#ff87af"/><path d="M8.161 27.116a7.484 7.484 0 0 1-1.994-.27l-3.802-1.07a.5.5 0 0 1-.114-.915l4-2.3c.963-.546 1.991-.97 3.058-1.259a.5.5 0 0 1 .49.135 12.702 12.702 0 0 0 3.599 2.608.498.498 0 0 1 .14.799 7.495 7.495 0 0 1-5.377 2.272zm-4.381-1.98l2.655.747a6.498 6.498 0 0 0 5.884-1.271 13.698 13.698 0 0 1-3.027-2.266c-.887.264-1.742.627-2.545 1.083L3.78 25.136z" fill="#45413c"/></g></g><path d="M36.3 39.425s-7.48-7.36-8.48-14.14 6-13.79 6-13.79-3.18 5.3-1.06 13.08a28.476 28.476 0 0 0 6.41 12l-2.87 2.85z" fill="#6dd627"/><path d="M31.43 14.405a18.556 18.556 0 0 0-.59 12.11 32.351 32.351 0 0 0 6.51 11.89l1.84-1.82a28.476 28.476 0 0 1-6.41-12c-2.12-7.79 1.06-13.09 1.06-13.09a25.81 25.81 0 0 0-2.41 2.91z" fill="#9ceb60"/><path d="M36.3 39.925a.5.5 0 0 1-.351-.144c-.311-.306-7.61-7.557-8.624-14.423-1.024-6.949 5.849-13.923 6.142-14.217a.5.5 0 0 1 .782.61c-.03.051-3.041 5.229-1.007 12.691a28.1 28.1 0 0 0 6.3 11.798.499.499 0 0 1-.02.688l-2.87 2.851a.498.498 0 0 1-.352.146zm-4.09-25.748c-1.931 2.566-4.508 6.883-3.895 11.035.843 5.714 6.521 11.968 7.99 13.503l2.178-2.163a29.086 29.086 0 0 1-6.208-11.854c-1.222-4.487-.736-8.153-.065-10.521z" fill="#45413c"/><path d="M39.19 36.445s-4.11-6.05-14.12-9.82-18.45 4.88-18.45 4.88a17.451 17.451 0 0 1 16.53.27 52.808 52.808 0 0 1 11.75 8.93l4.29-4.26z" fill="#6dd627"/><path d="M24.07 29.245a32.818 32.818 0 0 1 13.4 8.91l1.72-1.71s-4.11-6.05-14.12-9.82-18.45 4.88-18.45 4.88a17.012 17.012 0 0 1 5.7-1.8 15.545 15.545 0 0 1 11.75-.46z" fill="#9ceb60"/><path d="M34.9 41.205c-.141.021-.261-.053-.355-.148a52.285 52.285 0 0 0-11.639-8.846 16.906 16.906 0 0 0-16.056-.262.504.504 0 0 1-.631-.146.5.5 0 0 1 .044-.647c.087-.088 8.788-8.841 18.984-4.998 10.043 3.782 14.187 9.754 14.357 10.006a.499.499 0 0 1-.061.636l-4.29 4.261a.501.501 0 0 1-.353.144zM14.636 29.05c3.018 0 6.032.764 8.758 2.288a53.259 53.259 0 0 1 11.507 8.661l3.628-3.604c-1.02-1.299-5.235-6.14-13.635-9.303-6.422-2.416-12.237.497-15.406 2.714a17.922 17.922 0 0 1 5.148-.756z" fill="#45413c"/><path fill="#fcd" d="M37.73 33.695l-5.3 5.3-4.25-2.83 6.72-6.72z"/><path fill="#ffe5ee" d="M37.73 33.695l-1.53 1.53-2.82-4.26 1.52-1.52z"/><path d="M32.43 39.495a.494.494 0 0 1-.277-.084l-4.25-2.83a.503.503 0 0 1-.076-.769l6.721-6.721a.503.503 0 0 1 .769.076l2.83 4.25a.5.5 0 0 1-.063.631l-5.301 5.301a.497.497 0 0 1-.353.146zm-3.465-3.408l3.401 2.265 4.721-4.721-2.265-3.401-5.857 5.857z" fill="#45413c"/></svg>