<svg xmlns="http://www.w3.org/2000/svg" viewBox="0 0 46.089 46.089" width="512" height="512"><ellipse cx="23.044" cy="42.684" rx="13.5" ry="1.5" opacity=".15" fill="#45413c"/><path d="M43.904 20.074a1.68 1.68 0 0 1 1.68 1.8c-.982 12.448-11.869 21.744-24.318 20.762C10.182 41.762 1.378 32.959.504 21.874a1.681 1.681 0 0 1 1.68-1.8h41.72z" fill="#9ceb60"/><path d="M23.044 40.664a24.752 24.752 0 0 1-20.22-10.48c5.588 11.167 19.17 15.69 30.337 10.103a22.615 22.615 0 0 0 10.103-10.103 24.748 24.748 0 0 1-20.22 10.48z" fill="#6dd627"/><path d="M2.184 24.254h41.72a1.68 1.68 0 0 1 1.25.56c.205-.97.348-1.952.43-2.94a1.681 1.681 0 0 0-1.68-1.8H2.184a1.68 1.68 0 0 0-1.68 1.8c.082.988.225 1.97.43 2.94a1.68 1.68 0 0 1 1.25-.56z" fill="#c8ffa1"/><path d="M23.081 43.208c-.616 0-1.233-.023-1.854-.073C9.829 42.236.905 33.311.006 21.913a2.182 2.182 0 0 1 2.179-2.339H43.91a2.184 2.184 0 0 1 2.174 2.335 22.955 22.955 0 0 1-8.033 15.762c-4.222 3.605-9.479 5.537-14.97 5.537zM2.184 20.574c-.738.05-1.228.616-1.182 1.265.86 10.901 9.398 19.439 20.303 20.3 5.89.451 11.604-1.392 16.095-5.227a21.967 21.967 0 0 0 7.686-15.077c.001-.733-.528-1.261-1.177-1.261H2.184z" fill="#45413c"/><path d="M42.724 20.074c0 10.869-8.811 19.68-19.68 19.68s-19.68-8.811-19.68-19.68h39.36z" fill="#fffacf"/><path d="M42.274 24.254c.297-1.374.448-2.775.45-4.18H3.364c.002 1.405.153 2.806.45 4.18h38.46z" fill="#fff"/><path d="M23.044 40.254c-11.127 0-20.18-9.053-20.18-20.18a.5.5 0 0 1 .5-.5h39.36a.5.5 0 0 1 .5.5c0 11.127-9.052 20.18-20.18 20.18zM3.87 20.574c.266 10.346 8.765 18.68 19.174 18.68s18.908-8.334 19.173-18.68H3.87z" fill="#45413c"/><path d="M40.214 20.074c0 9.483-7.687 17.17-17.17 17.17s-17.17-7.687-17.17-17.17h34.34z" fill="#ff87af"/><path d="M39.674 24.254c.353-1.366.534-2.77.54-4.18H5.874c.006 1.41.187 2.814.54 4.18h33.26z" fill="#ffb0ca"/><path d="M23.044 37.744c-9.743 0-17.67-7.927-17.67-17.67a.5.5 0 0 1 .5-.5h34.34a.5.5 0 0 1 .5.5c.001 9.743-7.926 17.67-17.67 17.67zM6.382 20.574c.265 8.962 7.638 16.17 16.663 16.17s16.398-7.208 16.663-16.17H6.382z" fill="#45413c"/><path d="M15.974 26.784c0 .39.48.71 1.06.71s1.06-.32 1.06-.71-.47-.71-1.06-.71-1.06.32-1.06.71z" fill="#ff6196"/><g><path d="M25.774 28.554a.71.71 0 0 1 .69.88 3.53 3.53 0 0 1-6.84 0 .71.71 0 0 1 .69-.88h5.46z" fill="#fcd"/><path d="M23.044 32.59a4.027 4.027 0 0 1-3.905-3.031 1.204 1.204 0 0 1 .138-.92 1.202 1.202 0 0 1 1.037-.584h5.462a1.205 1.205 0 0 1 1.174 1.499 4.04 4.04 0 0 1-3.906 3.036zm-2.73-3.535c-.147.029-.229.164-.205.26a3.027 3.027 0 0 0 2.184 2.181c.786.202 1.6.085 2.296-.329a3.014 3.014 0 0 0 1.391-1.855c.005-.145-.105-.256-.204-.256h-5.462z" fill="#45413c"/><g><path d="M23.044 32.084a3.53 3.53 0 0 0 2.78-1.37 5.532 5.532 0 0 0-5.56 0 3.53 3.53 0 0 0 2.78 1.37z" fill="#ff6196"/><path d="M23.046 32.584h-.003a3.998 3.998 0 0 1-3.174-1.564.498.498 0 0 1 .144-.738 6.049 6.049 0 0 1 6.063 0 .495.495 0 0 1 .239.337.497.497 0 0 1-.095.401 3.998 3.998 0 0 1-3.174 1.564zm-1.957-1.724a3.005 3.005 0 0 0 3.911 0 5.053 5.053 0 0 0-3.911 0z" fill="#45413c"/></g></g><path d="M16.684 25.874a.5.5 0 0 1-.5-.499c0-.417.161-.809.456-1.104a1.548 1.548 0 0 1 1.103-.457h.002c.415 0 .806.162 1.101.456.295.294.458.686.458 1.103a.5.5 0 0 1-1 0 .56.56 0 0 0-.56-.559h-.001a.558.558 0 0 0-.56.56.498.498 0 0 1-.499.5c.001 0 .001 0 0 0z" fill="#45413c"/><path d="M30.114 26.784c0 .39-.48.71-1.06.71s-1.01-.31-1.01-.71.47-.71 1.06-.71 1.01.32 1.01.71z" fill="#ff6196"/><path d="M29.404 25.874a.5.5 0 0 1-.5-.501.56.56 0 0 0-.559-.56h-.001a.562.562 0 0 0-.561.56.5.5 0 0 1-.5.499h-.001a.5.5 0 0 1-.499-.501c.001-.86.726-1.535 1.563-1.558.416 0 .808.162 1.102.458.295.295.457.687.456 1.104a.5.5 0 0 1-.5.499z" fill="#45413c"/><g><path d="M24.354 4.104a1.55 1.55 0 0 0-1.31-1.7 1.55 1.55 0 0 0-1.31 1.7 19.89 19.89 0 0 0 1.07 3.76.25.25 0 0 0 .48 0 19.87 19.87 0 0 0 1.07-3.76z" fill="#fff"/><path d="M23.044 3.534c-.617.058-1.12.52-1.23 1.13a3.024 3.024 0 0 1-.08-.56 1.55 1.55 0 0 1 1.31-1.7 1.55 1.55 0 0 1 1.31 1.7 3.024 3.024 0 0 1-.08.56 1.38 1.38 0 0 0-1.23-1.13z" fill="#ffe5ee"/><path d="M23.045 8.544a.75.75 0 0 1-.72-.539 20.195 20.195 0 0 1-1.083-3.812c-.124-1.131.637-2.119 1.728-2.284.05-.007.1-.007.149 0a2.044 2.044 0 0 1 1.732 2.249l-.005.035a20.45 20.45 0 0 1-1.097 3.854c-.058.204-.248.394-.495.466a.692.692 0 0 1-.209.031zm-.224-.862zm.439-.026l.01.025-.01-.025zm-.216-4.743a1.047 1.047 0 0 0-.813 1.138 19.45 19.45 0 0 0 .813 3.031c.357-1.008.628-2.021.814-3.047a1.047 1.047 0 0 0-.814-1.122zm1.31 1.191h.01-.01z" fill="#45413c"/><path d="M32.524 6.284a1.54 1.54 0 0 0-.56-2.1 1.54 1.54 0 0 0-1.86 1.1 19.164 19.164 0 0 0-.45 3.9.24.24 0 0 0 .44.18 19.476 19.476 0 0 0 2.43-3.08z" fill="#fff"/><path d="M31.534 5.264a1.37 1.37 0 0 0-1.57.57c.03-.187.077-.371.14-.55a1.54 1.54 0 0 1 1.86-1.1 1.54 1.54 0 0 1 .56 2.06c-.08.173-.177.337-.29.49a1.38 1.38 0 0 0-.7-1.47z" fill="#ffe5ee"/><path d="M29.884 9.983a.743.743 0 0 1-.729-.848c.02-1.331.175-2.663.461-3.958a2.058 2.058 0 0 1 2.469-1.478.507.507 0 0 1 .132.053 2.046 2.046 0 0 1 .741 2.782l-.012.02a20.16 20.16 0 0 1-2.462 3.128.753.753 0 0 1-.6.301zm.255-.678s0 .001 0 0c0 .001 0 0 0 0zm1.457-4.666c-.461 0-.886.31-1.009.773a18.628 18.628 0 0 0-.414 3.135 19.094 19.094 0 0 0 1.922-2.522 1.044 1.044 0 0 0-.321-1.372 1.186 1.186 0 0 0-.178-.014zm.928 1.645h.01-.01z" fill="#45413c"/><g><path d="M39.234 11.434a1.55 1.55 0 0 0 .27-2.13 1.54 1.54 0 0 0-2.13.28 19.7 19.7 0 0 0-1.9 3.42c-.12.25.09.45.34.33a20.044 20.044 0 0 0 3.42-1.9z" fill="#fff"/><path d="M38.704 10.104a1.37 1.37 0 0 0-1.66-.07c.095-.16.206-.311.33-.45a1.54 1.54 0 0 1 2.13-.28 1.55 1.55 0 0 1-.27 2.13 2.939 2.939 0 0 1-.46.34 1.37 1.37 0 0 0-.07-1.67z" fill="#ffe5ee"/><path d="M35.671 13.872a.734.734 0 0 1-.521-.213c-.224-.224-.272-.565-.125-.871a20.206 20.206 0 0 1 1.938-3.489c.71-.898 1.949-1.062 2.84-.396a.524.524 0 0 1 .103.102 2.045 2.045 0 0 1-.386 2.839 20.647 20.647 0 0 1-3.505 1.948.79.79 0 0 1-.344.08zm.264-.674l-.002.005.002-.005zm-.33-.318l-.007.003.007-.003zm2.977-3.384c-.307 0-.609.137-.815.398a19.11 19.11 0 0 0-1.564 2.715c.957-.455 1.87-.981 2.731-1.575.409-.341.495-.928.211-1.371a1.043 1.043 0 0 0-.563-.167zm.652 1.938h.01-.01z" fill="#45413c"/></g><g><path d="M13.564 6.284a1.54 1.54 0 0 1 .56-2.1 1.54 1.54 0 0 1 1.86 1.1c.283 1.281.434 2.588.45 3.9a.24.24 0 0 1-.44.18 19.534 19.534 0 0 1-2.43-3.08z" fill="#fff"/><path d="M14.554 5.264a1.37 1.37 0 0 1 1.57.57 3.169 3.169 0 0 0-.14-.55 1.54 1.54 0 0 0-1.86-1.1 1.54 1.54 0 0 0-.56 2.06c.08.173.177.337.29.49a1.381 1.381 0 0 1 .7-1.47z" fill="#ffe5ee"/><path d="M16.204 9.983a.746.746 0 0 1-.6-.303 20.055 20.055 0 0 1-2.473-3.146 2.044 2.044 0 0 1 .742-2.782.48.48 0 0 1 .131-.053 2.053 2.053 0 0 1 2.464 1.458c.291 1.317.446 2.649.466 3.978a.737.737 0 0 1-.73.848zm-.255-.676s.001 0 0 0c.001 0 0 0 0 0zm-1.957-3.281a19.126 19.126 0 0 0 1.923 2.522 18.83 18.83 0 0 0-.419-3.156c-.133-.503-.654-.827-1.181-.738a1.043 1.043 0 0 0-.323 1.372z" fill="#45413c"/></g><g><path d="M6.854 11.434a1.55 1.55 0 0 1-.27-2.13 1.54 1.54 0 0 1 2.13.28 19.7 19.7 0 0 1 1.9 3.42c.12.25-.09.45-.34.33a20.082 20.082 0 0 1-3.42-1.9z" fill="#fff"/><path d="M7.384 10.104a1.37 1.37 0 0 1 1.66-.07 2.906 2.906 0 0 0-.33-.45 1.54 1.54 0 0 0-2.13-.28 1.55 1.55 0 0 0 .27 2.13c.142.128.296.242.46.34a1.371 1.371 0 0 1 .07-1.67z" fill="#ffe5ee"/><path d="M10.421 13.87a.855.855 0 0 1-.363-.084 20.586 20.586 0 0 1-3.488-1.94c-.01-.007-.021-.014-.03-.022a2.043 2.043 0 0 1-.357-2.817.524.524 0 0 1 .102-.103 2.027 2.027 0 0 1 2.822.372 20.266 20.266 0 0 1 1.966 3.531.746.746 0 0 1-.133.853.73.73 0 0 1-.519.21zm-.261-.657l.003.008a.069.069 0 0 0-.003-.008zm.31-.339l.004.002-.004-.002zm-3.315-1.84c.864.596 1.78 1.124 2.731 1.575a19.358 19.358 0 0 0-1.583-2.74c-.319-.404-.912-.496-1.36-.207a1.048 1.048 0 0 0 .212 1.372z" fill="#45413c"/></g></g></svg>