<svg xmlns="http://www.w3.org/2000/svg" viewBox="0 0 45.657 45.657" width="512" height="512"><path d="M40.967 23.273a1 1 0 0 1-1.001-.999l.001-.051v-16.6a2.34 2.34 0 0 0-3.37-2.09l-2.52 1.24a1.05 1.05 0 1 1-.94-1.88l2.47-1.24a4.43 4.43 0 0 1 6.41 4v16.6a1 1 0 0 1-1.05 1.02z" fill="#e8f4fa"/><path d="M39.917 1.853a4.389 4.389 0 0 0-4.31-.2l-2.47 1.24a1.001 1.001 0 0 0-.47 1.411.868.868 0 0 0 .12.15c.093-.122.213-.221.35-.29l2.47-1.19a4.43 4.43 0 0 1 6.41 4v-1.35a4.41 4.41 0 0 0-2.1-3.771z" fill="#fff"/><path d="M41.042 23.774l-.073-.001h-.003c-.4 0-.776-.155-1.06-.438s-.439-.659-.439-1.06l.001-16.651a1.822 1.822 0 0 0-.545-1.296 1.818 1.818 0 0 0-1.304-.533 1.851 1.851 0 0 0-.802.188l-2.52 1.24a1.54 1.54 0 0 1-1.182.082 1.537 1.537 0 0 1-.896-.778 1.546 1.546 0 0 1 .693-2.081l2.469-1.239A4.895 4.895 0 0 1 39.146.94a4.9 4.9 0 0 1 2.851 2.473 4.96 4.96 0 0 1 .52 2.246v16.596c.009.39-.14.77-.417 1.059s-.65.453-1.051.462c-.002-.002-.004-.002-.007-.002zm-.075-.501h.01-.01zm0-.5l.04.002a.517.517 0 0 0 .371-.155.497.497 0 0 0 .139-.356V5.653a3.96 3.96 0 0 0-.414-1.794 3.909 3.909 0 0 0-2.272-1.971 3.91 3.91 0 0 0-3 .212l-2.469 1.24c-.133.066-.23.179-.277.319s-.036.289.03.421a.546.546 0 0 0 .738.246l2.523-1.242a2.868 2.868 0 0 1 1.237-.29h.015c.753 0 1.462.292 1.998.822.539.534.837 1.246.841 2.004v16.603c-.001.185.051.31.146.404.094.094.22.146.353.146h.001z" fill="#45413c"/><ellipse cx="23.077" cy="43.273" rx="20.92" ry="1.7" opacity=".15" fill="#45413c"/><path d="M42.537 24.853s.2 2.83-1.57 8.41c-1.62 5.11-7 6.31-20 6.31-6.22 0-13.54-.13-15.25-7.89-1.54-7-.35-9.89-2.62-11 0 0 .59-2.11 6.3-2.11s18.95 4.7 24.74 4.7 8.4 1.58 8.4 1.58z" fill="#fff"/><path d="M20.867 35.363c-5.94 0-12.8-.12-15.5-5.66.11.63.23 1.28.38 2 1.71 7.76 9 7.89 15.25 7.89 12.94 0 18.35-1.2 20-6.31.41-1.3.71-2.45.94-3.45-2.08 4.45-7.95 5.53-21.07 5.53z" fill="#f0f0f0"/><path d="M20.967 40.073c-5.872 0-13.913 0-15.738-8.282-.619-2.814-.805-5.008-.941-6.609-.221-2.604-.351-3.531-1.411-4.049a.5.5 0 0 1-.262-.584c.071-.253.863-2.475 6.781-2.475 2.906 0 7.523 1.143 12.411 2.352 4.664 1.154 9.486 2.348 12.33 2.348 5.862 0 8.548 1.585 8.659 1.652.139.084.229.23.24.393.008.119.186 2.99-1.593 8.597-1.794 5.661-8.032 6.657-20.476 6.657zM3.794 20.518c1.175.853 1.299 2.315 1.491 4.578.141 1.662.316 3.729.921 6.479 1.652 7.497 8.921 7.497 14.762 7.497 13.514 0 18.075-1.393 19.523-5.961 1.409-4.443 1.549-7.128 1.553-7.952-.751-.358-3.304-1.387-7.906-1.387-2.966 0-7.849-1.208-12.57-2.377-4.615-1.142-9.386-2.323-12.17-2.323-3.772.001-5.141.939-5.604 1.446z" fill="#45413c"/><path d="M43.597 25.383c-6.48 0-13.32-1.41-21.24-3l-5.88-1.2c-9.78-1.97-13.67-.21-13.7-.21a1.6 1.6 0 0 1-2.11-.72 1.58 1.58 0 0 1 .68-2.1c.47-.18 4.88-2.25 15.73-.1 2 .4 4 .81 5.9 1.2 7.75 1.59 14.44 3 20.6 3a1.579 1.579 0 1 1 0 3.16l.02-.03z" fill="#ffe500"/><path d="M.767 20.463c.148-.21.348-.379.58-.49.47-.25 4.88-2.3 15.75-.15 2 .4 4 .81 5.9 1.2 7.75 1.6 14.44 3 20.6 3a1.571 1.571 0 0 1 1.31.7c.168-.263.258-.568.26-.88a1.57 1.57 0 0 0-1.56-1.58h-.01c-6.16 0-12.85-1.38-20.6-3-1.89-.39-3.86-.8-5.9-1.2-10.87-2.16-15.28-.09-15.75.13a1.58 1.58 0 0 0-.68 2.1l.1.17z" fill="#fff48c"/><path d="M43.577 25.914a.529.529 0 0 1-.173-.03c-6.296-.027-12.886-1.351-20.504-2.881l-6.523-1.33c-8.771-1.766-12.696-.513-13.394-.243l-.013.005a2.091 2.091 0 0 1-2.748-.955 2.07 2.07 0 0 1 .893-2.77c.015-.008.104-.044.119-.051 1.617-.658 6.406-1.987 15.941-.097 2.002.4 4.002.811 5.903 1.201l.654.134c7.464 1.532 13.91 2.855 19.845 2.855 1.146 0 2.08.934 2.08 2.08a2.087 2.087 0 0 1-2.08 2.082zm-35.425-6.16c2.128 0 4.907.23 8.423.938l6.521 1.329c7.644 1.535 14.246 2.861 20.5 2.861.047 0 .092.007.136.019a1.08 1.08 0 0 0-.156-2.148c-6.036 0-12.528-1.333-20.046-2.876l-.654-.134c-1.899-.39-3.898-.8-5.897-1.2-9.269-1.836-13.835-.582-15.368.043-.554.285-.758.915-.496 1.445.27.529.909.746 1.448.49a.6.6 0 0 1 .054-.021c.472-.182 2.207-.746 5.535-.746z" fill="#45413c"/><path d="M7.527 43.273h-1.25a1.58 1.58 0 0 1-.002-3.16h.831a1.68 1.68 0 0 0 1.77-.64c.56-.52.69-2.34.56-3.4a1.58 1.58 0 0 1 1.389-1.75h.001a1.6 1.6 0 0 1 1.75 1.39c.08.69.38 4.25-1.54 6.06a4.473 4.473 0 0 1-3.509 1.5zM39.307 43.273h1.25a1.579 1.579 0 1 0 0-3.16h-.84a1.66 1.66 0 0 1-1.76-.64c-.56-.52-.69-2.34-.57-3.4a1.58 1.58 0 1 0-3.13-.36c-.08.69-.39 4.25 1.54 6.06a4.476 4.476 0 0 0 3.51 1.5z" fill="#ffe500"/><g fill="#fff48c"><path d="M9.477 37.213a1.57 1.57 0 0 1 1.35-1.24 1.59 1.59 0 0 1 1.75 1.4v.4a12.01 12.01 0 0 0 0-2.06 1.6 1.6 0 0 0-1.75-1.39 1.58 1.58 0 0 0-1.39 1.749v.001c.04.379.053.76.04 1.14zM6.277 41.763h.83a1.7 1.7 0 0 0 1.77-.65c.56-.52.69-2.34.56-3.39a3.124 3.124 0 0 1-.56 1.75 1.68 1.68 0 0 1-1.8.64h-.83a1.58 1.58 0 0 0-1.55 1.56c0 .294.083.582.24.83.29-.461.796-.74 1.34-.74z"/></g><g fill="#fff48c"><path d="M37.387 37.743c-.12 1 0 2.87.57 3.39a1.69 1.69 0 0 0 1.76.65h.84a1.58 1.58 0 0 1 1.33.74c.157-.248.24-.536.24-.83a1.57 1.57 0 0 0-1.56-1.58h-.85a1.66 1.66 0 0 1-1.76-.64 3.12 3.12 0 0 1-.57-1.76v.03zM34.257 37.373a1.57 1.57 0 0 1 3.1-.16 6.999 6.999 0 0 1 0-1.14 1.58 1.58 0 1 0-3.13-.36 11.81 11.81 0 0 0 0 2.06c.01-.17.02-.31.03-.4z"/></g><path d="M7.693 43.776c-.058 0-.117-.001-.175-.003H6.275a2.068 2.068 0 0 1-1.469-.608 2.07 2.07 0 0 1-.61-1.471c0-1.146.933-2.08 2.079-2.081h.832c.042 0 .083.005.123.016.469.117.958-.058 1.243-.449.399-.384.607-1.912.468-3.046a2.06 2.06 0 0 1 .438-1.534 2.08 2.08 0 0 1 3.695 1.051c.086.741.406 4.509-1.693 6.487a4.932 4.932 0 0 1-3.688 1.638zm-1.416-1.003h1.268a3.936 3.936 0 0 0 3.118-1.332c1.819-1.717 1.463-5.271 1.417-5.67-.074-.581-.621-.995-1.203-.951a1.068 1.068 0 0 0-.717.401c-.18.226-.26.508-.228.795.113.923.087 3.078-.717 3.823-.452.637-1.321.963-2.168.773h-.77a1.083 1.083 0 0 0-.764 1.845 1.073 1.073 0 0 0 .764.316zM39.141 43.776a4.96 4.96 0 0 1-3.718-1.671c-2.068-1.937-1.748-5.712-1.663-6.449a2.063 2.063 0 0 1 .912-1.607 2.09 2.09 0 0 1 1.56-.318 2.065 2.065 0 0 1 1.328.878c.311.461.424 1.015.318 1.56-.126 1.124.082 2.627.419 2.938a.53.53 0 0 1 .066.076c.28.39.761.567 1.229.446a.469.469 0 0 1 .124-.016h.84a2.084 2.084 0 0 1 1.472 3.551 2.07 2.07 0 0 1-1.472.609h-1.241a5.005 5.005 0 0 1-.174.003zm-3.306-9.084c-.214 0-.422.063-.604.186a1.074 1.074 0 0 0-.474.853c-.079.693-.369 4.036 1.382 5.677a3.997 3.997 0 0 0 3.149 1.365h1.269c.289 0 .56-.112.764-.316s.315-.475.315-.763c0-.596-.484-1.08-1.08-1.081h-.78a2.146 2.146 0 0 1-2.197-.811c-.756-.77-.792-2.871-.688-3.786a1.1 1.1 0 0 0-.159-.849 1.075 1.075 0 0 0-.897-.475z" fill="#45413c"/><path d="M34.041 2.877l.943 1.268a1.05 1.05 0 0 1-.216 1.469l-.843.627-2.196-2.953.843-.627a1.05 1.05 0 0 1 1.469.216zM31.717 3.283l-4.09-.22 5.33 7.17.96-3.99zM27.617 3.062l5.335 7.173-1.26.937a.53.53 0 0 1-.742-.109L26.247 4.74a.53.53 0 0 1 .109-.742l1.261-.936z" fill="#e8f4fa"/><path d="M32.957 4.973l.87-.66a1.05 1.05 0 0 1 1.2 0 1.09 1.09 0 0 0-.05-.11l-.9-1.33a1.05 1.05 0 0 0-1.47-.21l-.85.62 1.2 1.69z" fill="#fff"/><path fill="#fff" d="M28.847 4.713l4.08.19-1.21-1.62-4.09-.22zM27.497 6.413a.59.59 0 0 1 .13-.79l1.22-.91-1.23-1.65-1.26.91a.52.52 0 0 0-.11.73l1.25 1.71z"/><path d="M33.925 6.741a.5.5 0 0 1-.401-.202l-2.196-2.953a.5.5 0 0 1 .103-.7l.843-.627a1.555 1.555 0 0 1 1.15-.29c.41.06.771.276 1.019.608l.943 1.268c.51.686.366 1.659-.318 2.168l-.844.627a.486.486 0 0 1-.299.101zm-1.497-3.35l1.6 2.15.442-.328a.552.552 0 0 0 .112-.77l-.943-1.268a.55.55 0 0 0-.768-.113l-.443.329z" fill="#45413c"/><path d="M32.958 10.733a.498.498 0 0 1-.401-.202l-5.33-7.17a.501.501 0 0 1-.039-.535.484.484 0 0 1 .468-.263l4.09.22a.502.502 0 0 1 .374.201l2.2 2.96a.505.505 0 0 1 .085.416l-.96 3.99a.502.502 0 0 1-.487.383zM28.665 3.62l4.057 5.458.655-2.724-1.921-2.584-2.791-.15z" fill="#45413c"/><path d="M31.379 11.777a1.029 1.029 0 0 1-.829-.415l-4.703-6.323a1.024 1.024 0 0 1-.192-.765c.04-.272.184-.513.405-.677l1.259-.937a.499.499 0 0 1 .7.103l5.335 7.173a.5.5 0 0 1-.103.7l-1.26.937a1.02 1.02 0 0 1-.612.204zm-3.865-8.015l-.858.638 4.696 6.365.895-.64-4.733-6.363z" fill="#45413c"/><path d="M22.567 11.903a1.15 1.15 0 0 0-.59 1 1.17 1.17 0 0 0 2.26.42l1.27-3.15-2.94 1.73z" fill="#4acfff"/><path d="M23.147 14.568c-.443 0-.86-.171-1.175-.484a1.658 1.658 0 0 1-.495-1.178 1.654 1.654 0 0 1 .84-1.436l2.936-1.728a.5.5 0 0 1 .718.618L24.7 13.51a1.658 1.658 0 0 1-1.546 1.058h-.007zm1.347-3.218l-1.673.985-.01.006a.649.649 0 0 0-.135 1.033.592.592 0 0 0 .475.194.673.673 0 0 0 .621-.426l.722-1.792zm-1.927.553h.01-.01z" fill="#45413c"/><path d="M18.657 7.973a1.18 1.18 0 0 0 1.79 1.45l2.63-2.19-3.39.06a1.21 1.21 0 0 0-1.03.68z" fill="#4acfff"/><path d="M19.71 10.177a1.671 1.671 0 0 1-1.589-1.144 1.667 1.667 0 0 1 .088-1.281 1.708 1.708 0 0 1 1.454-.958l3.405-.061a.513.513 0 0 1 .478.326.5.5 0 0 1-.149.559l-2.63 2.19a1.702 1.702 0 0 1-1.057.369zm1.956-2.419l-1.97.035a.706.706 0 0 0-.589.398l-.002.004a.676.676 0 0 0 .306.912.686.686 0 0 0 .726-.076l1.529-1.273zm-3.009.215h.01-.01z" fill="#45413c"/><g><path d="M26.307 15.243a1.181 1.181 0 1 0 2 .92l.3-3.38-2.3 2.46z" fill="#4acfff"/><path d="M27.13 17.769c-.438 0-.877-.17-1.205-.509a1.668 1.668 0 0 1-.475-1.195c.006-.444.184-.86.5-1.171l2.292-2.452a.5.5 0 0 1 .863.385l-.3 3.38a1.668 1.668 0 0 1-.505 1.087 1.675 1.675 0 0 1-1.17.475zm.851-3.584l-1.309 1.399-.017.018a.676.676 0 0 0-.015.961.678.678 0 0 0 .479.207.607.607 0 0 0 .483-.192.683.683 0 0 0 .205-.446l.174-1.947zm-1.674 1.058h.01-.01z" fill="#45413c"/></g></svg>