<svg xmlns="http://www.w3.org/2000/svg" viewBox="0 0 44.111 44.111" width="512" height="512"><ellipse cx="22.035" cy="42.611" rx="11.5" ry="1.5" opacity=".15" fill="#45413c"/><path d="M39.475 32.201a.5.5 0 0 0-.13-.82 15.424 15.424 0 0 0-8.77-1.14l-.71.14a30.22 30.22 0 0 0 4-3.46 27.669 27.669 0 0 0 6.68-11.2.509.509 0 0 0-.64-.61 27.668 27.668 0 0 0-10.91 7.14 29.74 29.74 0 0 0-2.64 3.16 31.096 31.096 0 0 0 1.06-8 29.765 29.765 0 0 0-4.96-16.69.51.51 0 0 0-.84 0 29.76 29.76 0 0 0-4.92 16.64c0 2.718.356 5.425 1.06 8.05a29.74 29.74 0 0 0-2.64-3.16 27.668 27.668 0 0 0-10.91-7.14.51.51 0 0 0-.64.61 27.669 27.669 0 0 0 6.68 11.2 30.22 30.22 0 0 0 4 3.46l-.71-.14a15.476 15.476 0 0 0-8.78 1.14.5.5 0 0 0-.12.82 15.8 15.8 0 0 0 16.37 2.8 7.657 7.657 0 0 1-.97 2.87.49.49 0 0 0 .43.74h3.16a.49.49 0 0 0 .43-.74 7.657 7.657 0 0 1-.94-2.87 15.8 15.8 0 0 0 16.37-2.8h-.01z" fill="#ffaa54"/><g fill="#fc9"><path d="M26.865 24.681a.541.541 0 0 0 .27.59.53.53 0 0 0 .65-.1c.367-.38.757-.76 1.17-1.14a28.25 28.25 0 0 1 10.85-6.27c.27-.68.5-1.36.7-2a.509.509 0 0 0-.64-.61 27.668 27.668 0 0 0-10.91 7.14 29.108 29.108 0 0 0-2.09 2.39zM21.615 5.051a.55.55 0 0 1 .84 0 24.062 24.062 0 0 1 4.9 13.56v-1.25a29.766 29.766 0 0 0-4.9-16.64.51.51 0 0 0-.84 0 29.76 29.76 0 0 0-4.92 16.64v1.25a24.049 24.049 0 0 1 4.92-13.56zM12.335 30.971a.47.47 0 0 0 .47-.3.47.47 0 0 0-.16-.54 15.301 15.301 0 0 0-7.92 1.25.49.49 0 0 0-.15.8.376.376 0 0 1 .15-.07 16.904 16.904 0 0 1 7.61-1.14zM39.495 32.181a.5.5 0 0 0-.14-.8 15.345 15.345 0 0 0-7.93-1.27.47.47 0 0 0-.16.54.47.47 0 0 0 .47.3 16.999 16.999 0 0 1 7.62 1.16c.05.014.098.038.14.07zM4.265 17.761a28.25 28.25 0 0 1 10.85 6.27c.413.38.803.76 1.17 1.14a.53.53 0 0 0 .65.1.541.541 0 0 0 .27-.59 29.12 29.12 0 0 0-2.09-2.43 27.668 27.668 0 0 0-10.91-7.14.51.51 0 0 0-.64.61c.2.68.47 1.39.7 2.04z"/></g><path d="M20.445 39.11a.986.986 0 0 1-.841-1.495 7.12 7.12 0 0 0 .746-1.837c-5.538 1.899-11.613.708-16.046-3.202a1.002 1.002 0 0 1 .234-1.646 15.944 15.944 0 0 1 7.876-1.332 31.13 31.13 0 0 1-2.528-2.329 28.27 28.27 0 0 1-6.798-11.401 1.003 1.003 0 0 1 .49-1.156c.237-.129.511-.157.769-.081a28.294 28.294 0 0 1 11.133 7.278c.441.459.871.936 1.286 1.427a31.598 31.598 0 0 1-.57-5.975A30.169 30.169 0 0 1 21.198.445a1.017 1.017 0 0 1 1.021-.429.998.998 0 0 1 .648.42 30.153 30.153 0 0 1 5.048 16.978 31.616 31.616 0 0 1-.569 5.92c.415-.492.846-.97 1.289-1.431a28.283 28.283 0 0 1 11.103-7.265 1.007 1.007 0 0 1 1.293 1.201 28.284 28.284 0 0 1-6.809 11.431 31.105 31.105 0 0 1-2.525 2.328c2.69-.234 5.378.221 7.854 1.324a.998.998 0 0 1 .354 1.549.534.534 0 0 1-.088.103c-4.436 3.912-10.511 5.103-16.057 3.199.155.646.399 1.265.731 1.85a.998.998 0 0 1 .133.51.98.98 0 0 1-.304.699c-.19.184-.478.269-.704.276h-3.151c-.007.002-.014.002-.02.002zm.56-4.609a.498.498 0 0 1 .496.563 8.11 8.11 0 0 1-1.034 3.058l3.157-.012a7.948 7.948 0 0 1-1.006-3.051.5.5 0 0 1 .684-.522c5.399 2.183 11.463 1.148 15.834-2.695l-.001-.007a14.909 14.909 0 0 0-8.48-1.101l-.693.137a.498.498 0 0 1-.39-.895 29.916 29.916 0 0 0 3.934-3.402 27.274 27.274 0 0 0 6.562-11 27.414 27.414 0 0 0-10.708 7.02 29.398 29.398 0 0 0-2.599 3.111.5.5 0 0 1-.889-.423 30.588 30.588 0 0 0 1.043-7.871A29.159 29.159 0 0 0 22.039.998a29.115 29.115 0 0 0-4.843 16.359c0 2.677.351 5.342 1.043 7.925a.499.499 0 0 1-.888.423 29.145 29.145 0 0 0-2.595-3.106 27.282 27.282 0 0 0-10.717-7.016 27.388 27.388 0 0 0 6.564 10.988 29.821 29.821 0 0 0 3.936 3.405.5.5 0 0 1-.389.895l-.71-.14a14.937 14.937 0 0 0-8.479 1.106c4.378 3.844 10.452 4.882 15.859 2.699a.503.503 0 0 1 .185-.035z" fill="#45413c"/><path d="M22.034 32.001a.5.5 0 0 1-.5-.5v-20a.5.5 0 0 1 1 0v20a.5.5 0 0 1-.5.5zM24.534 32.001a.498.498 0 0 1-.37-.836l5-5.5a.5.5 0 1 1 .74.672l-5 5.5a.496.496 0 0 1-.37.164zM26.034 34.001a.5.5 0 0 1-.069-.995l3.5-.5a.5.5 0 1 1 .14.99l-3.5.5a.578.578 0 0 1-.071.005zM19.534 32.001a.498.498 0 0 1-.37-.164l-5-5.5a.5.5 0 1 1 .741-.672l5 5.5a.5.5 0 0 1-.371.836zM18.035 34.001a.578.578 0 0 1-.071-.005l-3.5-.5c-.273-.039-.463-.292-.424-.565s.296-.455.566-.425l3.5.5a.5.5 0 0 1-.071.995z" fill="#45413c"/></svg>