<svg xmlns="http://www.w3.org/2000/svg" viewBox="0 0 44.5 44.5" width="512" height="512"><path d="M44.5 42.97c0 1-10 1.3-22.25 1.3S0 43.96 0 42.97s10-1.81 22.25-1.81 22.25.81 22.25 1.81z" opacity=".15" fill="#45413c"/><path d="M5.23.73h34.04a3.52 3.52 0 0 1 3.52 3.52v34.04a3.52 3.52 0 0 1-3.52 3.52H5.23a3.52 3.52 0 0 1-3.52-3.52V4.25A3.52 3.52 0 0 1 5.23.73z" fill="#fff"/><path d="M39.27 42.31H5.23a4.025 4.025 0 0 1-4.02-4.021V4.25A4.024 4.024 0 0 1 5.23.23h34.04a4.025 4.025 0 0 1 4.021 4.02v34.04a4.027 4.027 0 0 1-4.021 4.02zM5.23 1.23a3.024 3.024 0 0 0-3.02 3.02v34.04a3.025 3.025 0 0 0 3.02 3.021h34.04a3.025 3.025 0 0 0 3.021-3.021V4.25a3.024 3.024 0 0 0-3.021-3.02H5.23z" fill="#45413c"/><path d="M5.82 3.67h32.87c.646 0 1.17.524 1.17 1.17v32.87a1.17 1.17 0 0 1-1.17 1.17H5.82a1.17 1.17 0 0 1-1.17-1.17V4.84c0-.646.524-1.17 1.17-1.17z" fill="#00b8f0"/><path d="M38.69 39.38H5.82c-.921 0-1.67-.749-1.67-1.67V4.84c0-.921.749-1.67 1.67-1.67h32.87c.921 0 1.67.749 1.67 1.67v32.87c0 .921-.749 1.67-1.67 1.67zM5.82 4.17c-.37 0-.67.3-.67.67v32.87c0 .369.3.67.67.67h32.87c.369 0 .67-.301.67-.67V4.84a.67.67 0 0 0-.67-.67H5.82z" fill="#45413c"/><path d="M4.65 16.94s4.88-3.92 17.6-3.92 17.6 3.92 17.6 3.92V37.7a1.17 1.17 0 0 1-1.17 1.17H5.82a1.17 1.17 0 0 1-1.17-1.17V16.94z" fill="#6dd627"/><path d="M4.61 34.52h35.24v3.18a1.17 1.17 0 0 1-1.17 1.17H5.78a1.17 1.17 0 0 1-1.17-1.17v-3.18z" fill="#46b000"/><path d="M38.68 39.37H5.82c-.921 0-1.67-.749-1.67-1.67V16.94c0-.151.069-.295.187-.39.205-.165 5.164-4.03 17.913-4.03s17.708 3.866 17.913 4.03a.5.5 0 0 1 .187.39V37.7c0 .921-.749 1.67-1.67 1.67zM5.15 17.196V37.7c0 .369.3.67.67.67h32.86c.369 0 .67-.301.67-.67V17.197c-1.003-.675-6.084-3.677-17.1-3.677-11.061 0-16.105 3.001-17.1 3.676z" fill="#45413c"/><path d="M10.41 25.27v4.3c0 1.4 5.3 2.54 11.84 2.54s11.84-1.14 11.84-2.54v-4.3H10.41z" fill="#e0e0e0"/><path d="M10.41 27.4c0 1.4 5.3 2.54 11.84 2.54s11.84-1.14 11.84-2.54v-2.13H10.41v2.13z" fill="#fff"/><path d="M22.25 32.61c-4.268 0-12.34-.636-12.34-3.04v-4.3a.5.5 0 0 1 .5-.5h23.68a.5.5 0 0 1 .5.5v4.3c0 2.404-8.071 3.04-12.34 3.04zm-11.34-6.84v3.8c0 .692 4.002 2.04 11.34 2.04 7.337 0 11.34-1.348 11.34-2.04v-3.8H10.91z" fill="#45413c"/><ellipse cx="22.25" cy="25.3" rx="11.84" ry="2.54" fill="#00dfeb"/><path d="M11.25 26.27c1.75-.93 6-1.59 11-1.59s9.23.66 11 1.59c.56-.3.86-.62.86-.95 0-1.41-5.3-2.55-11.84-2.55s-11.86 1.12-11.86 2.5c0 .36.3.68.84 1z" fill="#4aeff7"/><path d="M22.25 28.34c-4.268 0-12.34-.636-12.34-3.04s8.072-3.04 12.34-3.04c4.269 0 12.34.636 12.34 3.04s-8.071 3.04-12.34 3.04zm0-5.08c-7.337 0-11.34 1.348-11.34 2.04s4.002 2.04 11.34 2.04c7.337 0 11.34-1.348 11.34-2.04s-4.003-2.04-11.34-2.04z" fill="#45413c"/><path d="M24.44 25.15s-.19-2.36 1.52-3.23 5.2-1 5.2-4.2H13.34c0 3.17 3.49 3.33 5.2 4.2s1.52 3.23 1.52 3.23a6.05 6.05 0 0 0 4.38 0z" fill="#fff"/><path d="M14.59 20.27a26.48 26.48 0 0 0 7.66 1 25.995 25.995 0 0 0 7.69-1 2.998 2.998 0 0 0 1.23-2.52H13.34a3.001 3.001 0 0 0 1.25 2.52z" fill="#e0e0e0"/><path d="M22.25 26.061a6.546 6.546 0 0 1-2.371-.445.5.5 0 0 1-.317-.505c.001-.021.137-2.041-1.248-2.745-.373-.189-.861-.351-1.379-.521-1.728-.568-4.094-1.346-4.094-4.125a.5.5 0 0 1 .5-.5h17.82a.5.5 0 0 1 .5.5c0 2.799-2.363 3.566-4.088 4.127-.521.169-1.013.329-1.386.519-1.396.709-1.249 2.724-1.248 2.744a.497.497 0 0 1-.317.506 6.55 6.55 0 0 1-2.372.445zm-1.685-1.263c1.099.35 2.274.35 3.371 0 .021-.786.25-2.537 1.798-3.324.443-.226.971-.397 1.529-.578 1.527-.496 3.103-1.007 3.36-2.676H13.877c.261 1.653 1.839 2.172 3.369 2.675.555.183 1.08.355 1.52.579 1.548.787 1.777 2.538 1.799 3.324z" fill="#45413c"/><path d="M31.16 17.72c0 1.05-4 1.91-8.91 1.91s-8.91-.86-8.91-1.91 4-1.92 8.91-1.92 8.91.86 8.91 1.92z" fill="#00dfeb"/><path d="M14.25 18.54c1.43-.65 4.5-1.1 8.05-1.1s6.62.45 8 1.1c.55-.25.86-.53.86-.82 0-1.06-4-1.92-8.91-1.92s-8.91.86-8.91 1.92c0 .29.31.55.91.82z" fill="#4aeff7"/><path d="M22.25 20.13c-3.495 0-9.41-.507-9.41-2.41 0-1.911 5.915-2.42 9.41-2.42s9.41.51 9.41 2.42c0 1.903-5.915 2.41-9.41 2.41zm0-3.83c-5.157 0-8.218.939-8.413 1.442.195.456 3.257 1.388 8.413 1.388 5.085 0 8.134-.907 8.403-1.411-.26-.507-3.301-1.419-8.403-1.419zm8.413 1.439h.01-.01z" fill="#45413c"/><path d="M23.57 17.39s-.11-1.85.92-2.53 3.15-.81 3.15-3.31H16.86c0 2.5 2.11 2.63 3.15 3.31s.92 2.53.92 2.53a2.8 2.8 0 0 0 2.64 0z" fill="#fff"/><path d="M18.16 13.96c1.342.306 2.714.457 4.09.45a17.984 17.984 0 0 0 4.09-.45 2.551 2.551 0 0 0 1.3-2.41H16.86a2.551 2.551 0 0 0 1.3 2.41z" fill="#e0e0e0"/><path d="M22.25 18.222c-.534 0-1.068-.13-1.556-.391a.501.501 0 0 1-.263-.472c.026-.435-.047-1.657-.695-2.081-.208-.136-.492-.257-.792-.385-1.091-.464-2.584-1.101-2.584-3.343a.5.5 0 0 1 .5-.5h10.78a.5.5 0 0 1 .5.5c0 2.239-1.492 2.876-2.582 3.341-.301.129-.586.25-.792.387-.643.424-.721 1.648-.696 2.084a.502.502 0 0 1-.264.47 3.318 3.318 0 0 1-1.556.39zm-.818-1.151c.527.2 1.109.201 1.637-.001.021-.642.186-1.994 1.146-2.627.281-.186.606-.324.95-.471.898-.384 1.753-.749 1.938-1.921h-9.706c.185 1.176 1.04 1.54 1.939 1.923.342.146.666.284.947.468.969.633 1.13 1.985 1.149 2.629z" fill="#45413c"/><path d="M27.64 11.55c0 .64-2.41 1.16-5.39 1.16s-5.39-.52-5.39-1.16c0-.64 2.39-1.15 5.39-1.15s5.39.52 5.39 1.15z" fill="#00dfeb"/><path d="M17.58 12.13a15.54 15.54 0 0 1 4.67-.57 15.54 15.54 0 0 1 4.67.57c.46-.17.72-.36.72-.58 0-.63-2.41-1.15-5.39-1.15s-5.39.52-5.39 1.15c0 .22.26.41.72.58z" fill="#4aeff7"/><path d="M22.25 13.21c-.983 0-5.89-.08-5.89-1.66 0-1.531 4.508-1.65 5.89-1.65.983 0 5.89.08 5.89 1.65 0 1.58-4.907 1.66-5.89 1.66zm-4.761-1.66c.521.273 2.153.66 4.761.66 2.602 0 4.232-.385 4.757-.658-.527-.271-2.158-.652-4.757-.652-2.61 0-4.241.381-4.761.65zm9.684.118h.01-.01z" fill="#45413c"/></svg>