<svg xmlns="http://www.w3.org/2000/svg" viewBox="0 0 43.66 43.66" width="512" height="512"><ellipse cx="21.83" cy="40.36" rx="17.55" ry="1.65" opacity=".15" fill="#45413c"/><path d="M28.33 33.68H1.66L.92 21.59a4.65 4.65 0 0 1 3.77-4.84l23.64-4.45v21.38z" fill="#ffe500"/><path d="M4.69 16.75a4.65 4.65 0 0 0-3.77 4.84l.09 1.42a4.65 4.65 0 0 1 3.68-3.61l23.64-4.39V12.3L4.69 16.75z" fill="#fff48c"/><path d="M28.33 34.18H1.66a.5.5 0 0 1-.499-.47l-.74-12.09a5.165 5.165 0 0 1 4.175-5.362l23.641-4.45a.498.498 0 0 1 .593.491v21.38a.5.5 0 0 1-.5.501zm-26.2-1h25.7V12.903L4.782 17.241a4.162 4.162 0 0 0-3.363 4.319l.711 11.62z" fill="#45413c"/><circle cx="6.87" cy="33.14" r="6.37" fill="#656769"/><path d="M6.83 28.91a6.38 6.38 0 0 1 6.29 5.3c.055-.354.085-.712.09-1.07A6.38 6.38 0 1 0 .59 34.21a6.37 6.37 0 0 1 6.24-5.3z" fill="#87898c"/><path d="M6.87 40.01C3.082 40.01 0 36.928 0 33.14s3.082-6.87 6.87-6.87 6.87 3.082 6.87 6.87-3.082 6.87-6.87 6.87zm0-12.74C3.633 27.27 1 29.904 1 33.14s2.633 5.87 5.87 5.87 5.87-2.634 5.87-5.87-2.633-5.87-5.87-5.87z" fill="#45413c"/><path d="M9.36 33.14a2.49 2.49 0 1 1 0-.039v.039z" fill="#daedf7"/><path d="M6.83 32.34a2.48 2.48 0 0 1 2.38 1.67 2.59 2.59 0 0 0 .15-.84 2.5 2.5 0 1 0-5 0c.01.287.067.571.17.84a2.491 2.491 0 0 1 2.3-1.67z" fill="#c0dceb"/><path d="M6.87 36.13a2.994 2.994 0 0 1-2.99-2.99 3.002 3.002 0 0 1 2.942-2.989c.797.012 1.554.287 2.128.842.573.555.896 1.301.91 2.1v.049a2.993 2.993 0 0 1-2.99 2.988zm.002-4.98h-.033a1.998 1.998 0 0 0-1.958 1.989c0 1.098.893 1.99 1.99 1.99 1.098 0 1.99-.893 1.99-1.989v-.041a1.985 1.985 0 0 0-1.989-1.949z" fill="#45413c"/><path d="M4.24 19.36l-3 .34a4.59 4.59 0 0 0-.28 1.89l.13 2.1L4 23.36a1.65 1.65 0 0 0 1.43-1.65v-1.29a1.06 1.06 0 0 0-1.19-1.06z" fill="#ff8a14"/><path d="M1.09 24.19a.498.498 0 0 1-.499-.469l-.13-2.101a5.074 5.074 0 0 1 .311-2.095.499.499 0 0 1 .413-.322l2.997-.34a1.547 1.547 0 0 1 1.3.454c.292.297.452.69.449 1.107v1.286a2.155 2.155 0 0 1-1.863 2.146l-2.921.332-.057.002zm.524-4.029a4.068 4.068 0 0 0-.155 1.398l.098 1.576 2.387-.271a1.15 1.15 0 0 0 .986-1.148V20.42a.562.562 0 0 0-.556-.568l-.078.004-2.682.305zm2.626-.801h.01-.01z" fill="#45413c"/><path d="M8.18 19.94v1.82a1.1 1.1 0 0 0 1.22 1.09l8.92-1.06v-4.5l-9.23 1.57a1.09 1.09 0 0 0-.91 1.08z" fill="#87898c"/><path d="M9.293 23.357c-.892 0-1.61-.715-1.613-1.595V19.94a1.584 1.584 0 0 1 1.327-1.573l9.229-1.569a.5.5 0 0 1 .584.493v4.5a.499.499 0 0 1-.441.496l-8.92 1.061c-.061.005-.142.023-.166.009zm8.527-5.475l-8.646 1.47a.588.588 0 0 0-.494.585v1.822a.602.602 0 0 0 .601.597h.001l8.538-1.012v-3.462z" fill="#45413c"/><path d="M34.73 4.35H19.31a41.79 41.79 0 0 0-4.15 24.31l.65 5h20.45L34.73 4.35z" fill="#87898c"/><path d="M34.73 4.35H19.31a41.79 41.79 0 0 0-4.15 24.31l.65 5h20.45L34.73 4.35z" fill="#87898c"/><path d="M34.83 6.85l-.13-2.5H19.31c-.42.82-.81 1.66-1.16 2.5h16.68z" fill="#656769"/><path d="M36.26 34.16H15.81a.501.501 0 0 1-.496-.436l-.65-5a42.111 42.111 0 0 1 4.199-24.6.5.5 0 0 1 .446-.274h15.42a.5.5 0 0 1 .499.474l1.529 29.309a.492.492 0 0 1-.137.37.491.491 0 0 1-.36.157zm-20.01-1h19.484L34.256 4.85H19.619a41.113 41.113 0 0 0-3.963 23.744l.594 4.566z" fill="#45413c"/><path d="M18.32 3.67a2.001 2.001 0 0 1 1.94-1.52h13.36a2.001 2.001 0 0 1 1.94 1.52.549.549 0 0 1-.53.68h-16.2a.55.55 0 0 1-.51-.68z" fill="#ffe500"/><path d="M18.83 4.85a1.056 1.056 0 0 1-.997-1.296l.001-.004a2.496 2.496 0 0 1 2.425-1.9H33.62c1.152 0 2.149.782 2.425 1.9a1.048 1.048 0 0 1-1.008 1.3H18.83zm-.024-1.063l-.002.017 16.226.046a1.408 1.408 0 0 0-1.41-1.2H20.26a1.499 1.499 0 0 0-1.454 1.137z" fill="#45413c"/><path d="M31.27 6.81h-9.44a1.07 1.07 0 0 0-1 .65 40.017 40.017 0 0 0-2.69 8.37 37.762 37.762 0 0 0-.65 6.9c.011.6.5 1.08 1.1 1.08h13.16a1.1 1.1 0 0 0 1.08-1.119v-.011l-.48-14.8a1.1 1.1 0 0 0-1.08-1.07z" fill="#00b8f0"/><path d="M21.83 6.81a1.07 1.07 0 0 0-1 .65 40.017 40.017 0 0 0-2.69 8.37 37.762 37.762 0 0 0-.65 6.9c.011.6.5 1.08 1.1 1.08h1.16l8.34-17h-6.26z" fill="#4acfff"/><path d="M18.59 24.31a1.608 1.608 0 0 1-1.6-1.571c.004-2.349.226-4.701.659-7.001a40.563 40.563 0 0 1 2.725-8.482c.248-.58.842-.922 1.464-.945h9.441a1.597 1.597 0 0 1 1.571 1.557l.48 14.797c.016.9-.689 1.631-1.571 1.646H18.59zm3.231-17a.57.57 0 0 0-.531.346 39.559 39.559 0 0 0-2.66 8.273 37.433 37.433 0 0 0-.64 6.801.602.602 0 0 0 .6.579h13.16a.598.598 0 0 0 .58-.61l-.48-14.803a.6.6 0 0 0-.585-.586h-9.444z" fill="#45413c"/><path d="M22.83 23.2l9.46 5.41 9.31-5.66a5.33 5.33 0 0 0-2.38-6.1 13.68 13.68 0 0 0-13.28-.31 6.13 6.13 0 0 0-3.11 6.66z" fill="#ffe500"/><path d="M32.29 29.11a.488.488 0 0 1-.248-.066l-9.46-5.41a.493.493 0 0 1-.241-.331 6.663 6.663 0 0 1 3.364-7.203 14.09 14.09 0 0 1 13.768.32 5.822 5.822 0 0 1 2.606 6.673.497.497 0 0 1-.22.284l-9.31 5.66a.49.49 0 0 1-.259.073zm-9.012-6.229l9.004 5.149 8.889-5.404a4.824 4.824 0 0 0-2.207-5.346 13.098 13.098 0 0 0-12.791-.297 5.662 5.662 0 0 0-2.895 5.898z" fill="#45413c"/><circle cx="32.26" cy="28.61" r="10.9" fill="#656769"/><path d="M32.26 20.18a10.9 10.9 0 0 1 10.83 9.67c.049-.412.072-.826.07-1.24.182-6.017-4.548-11.043-10.565-11.225-6.017-.182-11.043 4.548-11.225 10.565-.007.22-.007.44 0 .66-.002.414.021.828.07 1.24a10.89 10.89 0 0 1 10.82-9.67z" fill="#87898c"/><path d="M32.26 40.01c-6.286 0-11.4-5.114-11.4-11.4s5.114-11.4 11.4-11.4 11.4 5.114 11.4 11.4-5.114 11.4-11.4 11.4zm0-21.8c-5.734 0-10.4 4.666-10.4 10.4s4.666 10.4 10.4 10.4 10.4-4.666 10.4-10.4-4.666-10.4-10.4-10.4z" fill="#45413c"/><circle cx="32.26" cy="28.61" r="5.62" fill="#ffe500"/><path d="M32.26 25.01a5.62 5.62 0 0 1 5.57 4.62c.063-.33.096-.664.1-1a5.63 5.63 0 0 0-11.25 0c.004.336.037.67.1 1a5.62 5.62 0 0 1 5.48-4.62z" fill="#ebcb00"/><path d="M32.26 34.73c-3.375 0-6.12-2.745-6.12-6.12s2.745-6.12 6.12-6.12 6.12 2.745 6.12 6.12-2.745 6.12-6.12 6.12zm0-11.24c-2.823 0-5.12 2.297-5.12 5.12s2.297 5.12 5.12 5.12 5.12-2.297 5.12-5.12-2.297-5.12-5.12-5.12z" fill="#45413c"/><circle cx="32.26" cy="28.61" r="2.47" fill="#daedf7"/><path d="M32.26 27.86a2.47 2.47 0 0 1 2.32 1.61 2.469 2.469 0 0 0-1.454-3.176 2.469 2.469 0 0 0-3.176 3.176 2.47 2.47 0 0 1 2.31-1.61z" fill="#c0dceb"/><path d="M32.26 31.58c-1.638 0-2.97-1.332-2.97-2.97s1.332-2.97 2.97-2.97 2.971 1.332 2.971 2.97-1.334 2.97-2.971 2.97zm0-4.94c-1.086 0-1.97.884-1.97 1.97s.884 1.97 1.97 1.97c1.087 0 1.971-.884 1.971-1.97s-.884-1.97-1.971-1.97z" fill="#45413c"/></svg>