<svg xmlns="http://www.w3.org/2000/svg" viewBox="0 0 43.946 43.946" width="512" height="512"><ellipse cx="22.413" cy="42.006" rx="20" ry="1.94" opacity=".15" fill="#45413c"/><path d="M40.803 18.526l-38.5 3.69 1.72 18a1.29 1.29 0 0 0 1.408 1.16h.002l36-3.45a1.28 1.28 0 0 0 1.161-1.389l-.001-.011-1.79-18z" fill="#bf8256"/><path d="M5.302 41.883c-.414 0-.811-.143-1.133-.408a1.784 1.784 0 0 1-.644-1.21l-1.72-18a.5.5 0 0 1 .45-.545l38.5-3.69a.499.499 0 0 1 .545.448l1.79 18c.09.993-.634 1.86-1.612 1.948L5.481 41.874c-.06.006-.12.009-.179.009zM2.848 22.667L4.52 40.169c.021.21.121.399.284.533a.76.76 0 0 0 .578.177l36.002-3.45a.782.782 0 0 0 .711-.847l-1.741-17.51-37.506 3.595z" fill="#45413c"/><path fill="#ffe3cf" d="M3.026 29.926l38.522-3.696.616 6.42-38.522 3.696z"/><path d="M3.643 36.848a.5.5 0 0 1-.497-.452l-.616-6.421a.5.5 0 0 1 .45-.546l38.523-3.695a.51.51 0 0 1 .546.45l.616 6.42a.5.5 0 0 1-.45.546L3.691 36.846l-.048.002zm-.071-6.471l.521 5.425 37.527-3.601-.52-5.424-37.528 3.6z" fill="#45413c"/><g><path d="M19.533 26.396a1.934 1.934 0 0 1 3.85-.37l.06.64a1.29 1.29 0 0 0 1.408 1.16h.002a1.28 1.28 0 0 0 1.161-1.389l-.001-.011-.06-.64a.644.644 0 0 1 1.28-.13l.17 1.79a2.69 2.69 0 0 0 2.4 2.5 2.58 2.58 0 0 0 2.75-2.82l-.25-3.24a1.934 1.934 0 0 0 3.85-.37l-.06-.65a1.28 1.28 0 0 1 1.149-1.399l.011-.001a1.29 1.29 0 0 1 1.41 1.158v.002l.07 1.32a3.86 3.86 0 0 0 2.31 3.18 1.28 1.28 0 0 0 1.75-1.33l-.7-7.35c-.36-3.79-8.08-8.68-18-8.93a3.774 3.774 0 0 0-2 .54l-19.68 11.45a2.6 2.6 0 0 0-1.26 2.44l.88 9.2a.65.65 0 0 0 .83.56 3.85 3.85 0 0 0 2.73-3.94 2 2 0 0 1 1.35-2.12 1.939 1.939 0 0 1 2.5 1.66l.06.65a1.934 1.934 0 0 0 3.85-.37l-.12-1.29a.643.643 0 0 1 1.28-.12l.17 1.77a2.67 2.67 0 0 0 2.4 2.46 2.58 2.58 0 0 0 2.75-2.82l-.3-3.19z" fill="#ff6242"/><path d="M2.677 34.232a1.14 1.14 0 0 1-.727-.261 1.14 1.14 0 0 1-.415-.776l-.88-9.201a3.084 3.084 0 0 1 1.501-2.917L21.841 9.624a4.362 4.362 0 0 1 2.258-.607c10.1.254 18.09 5.163 18.491 9.382l.7 7.35a1.776 1.776 0 0 1-2.435 1.841 4.364 4.364 0 0 1-2.621-3.597l-.07-1.341c-.042-.411-.435-.725-.862-.688a.78.78 0 0 0-.711.853l.06.653a2.415 2.415 0 0 1-.545 1.779 2.432 2.432 0 0 1-3.157.521l.102 1.316c.016.16.019.331.007.501-.121 1.696-1.613 2.966-3.29 2.856a3.19 3.19 0 0 1-2.864-2.966l-.169-1.776c-.006-.064-.087-.121-.157-.125a.145.145 0 0 0-.127.157l.061.646c.044.485-.101.947-.406 1.312-.305.365-.733.59-1.208.632a1.792 1.792 0 0 1-1.952-1.61l-.06-.642a1.428 1.428 0 0 0-1.564-1.288 1.435 1.435 0 0 0-1.29 1.564v.001l.3 3.189c.017.169.018.34.007.51-.12 1.695-1.603 2.962-3.29 2.856a3.169 3.169 0 0 1-2.864-2.922l-.169-1.759c-.008-.08-.083-.149-.155-.13a.142.142 0 0 0-.129.155l.12 1.29a2.437 2.437 0 0 1-2.19 2.654 2.45 2.45 0 0 1-1.781-.545A2.42 2.42 0 0 1 9.007 30l-.061-.651a1.443 1.443 0 0 0-1.855-1.228 1.506 1.506 0 0 0-1 1.587c.136 2.056-1.132 3.886-3.083 4.474a1.233 1.233 0 0 1-.331.05zm21.358-24.216c-.59 0-1.174.162-1.685.469L2.664 21.939a2.086 2.086 0 0 0-1.013 1.968l.879 9.192c.007.069.084.155.164.133A3.334 3.334 0 0 0 5.093 29.8c-.129-1.141.581-2.255 1.69-2.627a2.448 2.448 0 0 1 3.062 1.61c.047.156.079.313.095.474l.061.653c.036.38.219.724.515.968a1.436 1.436 0 0 0 2.34-1.244l-.121-1.29a1.144 1.144 0 0 1 1.031-1.245 1.152 1.152 0 0 1 1.245 1.031l.169 1.769a2.17 2.17 0 0 0 1.952 2.01c1.128.1 2.126-.785 2.208-1.929.008-.114.006-.23-.004-.346l-.3-3.19a2.437 2.437 0 0 1 2.19-2.655c1.33-.113 2.528.855 2.656 2.19l.06.642a.788.788 0 0 0 .862.708.781.781 0 0 0 .713-.845l-.061-.65a1.143 1.143 0 0 1 2.274-.226l.171 1.793a2.192 2.192 0 0 0 1.955 2.05 2.096 2.096 0 0 0 2.204-1.93c.008-.114.007-.23-.005-.346l-.25-3.249a.5.5 0 0 1 .455-.536.506.506 0 0 1 .541.45 1.428 1.428 0 0 0 1.564 1.289 1.42 1.42 0 0 0 .969-.515c.243-.295.357-.668.32-1.049l-.06-.652a1.78 1.78 0 0 1 1.598-1.942 1.792 1.792 0 0 1 1.968 1.604l.071 1.346a3.353 3.353 0 0 0 2.01 2.747.766.766 0 0 0 .585-.011.773.773 0 0 0 .47-.804l-.701-7.359c-.305-3.207-7.445-8.224-17.515-8.477l-.045-.001z" fill="#45413c"/><path d="M7.412 22.227a.5.5 0 0 1-.047-.997l30.831-2.96a.5.5 0 0 1 .096.995l-30.831 2.96-.049.002z" fill="#e04122"/></g><g><path d="M33.363 8.506c-.17-3.2-3.67-8.21-6.87-8s-6.18 5.5-6 8.7 3.54 5.64 6.74 5.47 6.29-2.97 6.13-6.17z" fill="#ff6242"/><path d="M26.91 15.185c-3.487 0-6.737-2.755-6.917-5.95-.186-3.299 2.878-8.992 6.466-9.228 1.207-.078 2.49.466 3.74 1.575 2.004 1.779 3.544 4.68 3.662 6.897v.002c.165 3.311-2.982 6.502-6.604 6.694-.114.007-.231.01-.347.01zM26.692 1c-.055 0-.11.001-.165.005-2.769.182-5.707 5.101-5.535 8.173.171 3.041 3.437 5.164 6.214 4.998 2.795-.148 5.809-2.593 5.658-5.644-.104-1.944-1.535-4.611-3.328-6.203C28.842 1.714 27.799 1 26.692 1z" fill="#45413c"/><path d="M23.053 9.537a.5.5 0 0 1-.499-.473l-.07-1.29a.499.499 0 0 1 .472-.526c.317-.029.512.197.526.472l.07 1.29a.498.498 0 0 1-.472.526l-.027.001zM24.783 5.576a.499.499 0 0 1-.499-.477l-.061-1.29a.5.5 0 1 1 .998-.047l.061 1.29a.5.5 0 0 1-.476.523l-.023.001zM26.923 9.336a.5.5 0 0 1-.499-.473l-.07-1.28a.499.499 0 0 1 .472-.526.505.505 0 0 1 .526.472l.07 1.28a.499.499 0 0 1-.472.526l-.027.001zM28.652 5.377a.5.5 0 0 1-.499-.473l-.069-1.29a.5.5 0 1 1 .998-.053l.069 1.29a.5.5 0 0 1-.473.526h-.026zM30.783 9.147a.499.499 0 0 1-.499-.477l-.061-1.29a.5.5 0 1 1 .998-.047l.061 1.29a.5.5 0 0 1-.499.524z" fill="#45413c"/></g><g><path d="M34.993 11.946c.17 1.78-3.14 3.54-7.4 4s-7.84-.7-8-2.47a1.94 1.94 0 0 1 1.705-2.149l.005-.001c1.06-.1 1.95 0 2.05 1.1-.2-2.13 1.42-3.38 3.55-3.58s3.95.71 4.16 2.84c-.11-1.06.74-1.37 1.8-1.47a1.94 1.94 0 0 1 2.13 1.73z" fill="#ffe3cf"/><path d="M25.755 16.546c-2.451 0-4.6-.535-5.752-1.479-.542-.444-.856-.979-.908-1.545a2.44 2.44 0 0 1 2.13-2.689l.031-.004c.583-.053 1.226-.068 1.74.189.456-1.465 1.866-2.481 3.859-2.669 2.026-.187 3.588.53 4.301 1.893.484-.369 1.16-.475 1.66-.522 1.323-.142 2.534.837 2.674 2.175l.001.005c.199 2.086-3.174 4.04-7.845 4.544-.642.069-1.277.102-1.891.102zm-4.388-4.724l-.012.001a1.443 1.443 0 0 0-1.266 1.596c.028.31.212.6.547.874 1.226 1.005 4 1.468 6.903 1.156 4.248-.458 7.074-2.188 6.957-3.453a1.449 1.449 0 0 0-1.581-1.282c-.655.062-1.073.2-1.246.412-.035.042-.142.172-.11.5l.002.012a.5.5 0 0 1-.448.546.512.512 0 0 1-.547-.446l-.002-.013c-.201-1.986-2.008-2.533-3.614-2.38-.972.091-1.808.423-2.354.934-.572.535-.823 1.239-.745 2.092l.001.011a.501.501 0 0 1-.452.543.504.504 0 0 1-.544-.451v-.002l-.001-.006c-.032-.346-.16-.452-.202-.487-.266-.22-.857-.197-1.286-.157z" fill="#45413c"/></g></svg>