<svg xmlns="http://www.w3.org/2000/svg" viewBox="0 0 126.666 126.666"><path d="M111.5 77c0 26.601-21.564 48.166-48.166 48.166-26.604 0-48.168-21.565-48.168-48.166 0-26.603 21.564-75.5 48.168-75.5C89.936 1.5 111.5 50.397 111.5 77z" fill="#fffffa"/><path d="M63.334 1.5v123.666c26.602 0 48.166-21.565 48.166-48.166 0-26.603-21.564-75.5-48.166-75.5z" fill="#f9f9e4"/><path d="M33.486 104.326c4.445 4.857 9.34 7.236 6.738 9.617-2.604 2.381-8.316.371-12.762-4.486-4.443-4.858-5.936-10.727-3.332-13.109 2.602-2.379 4.913 3.117 9.356 7.978z" fill="#7bc67b"/><path d="M93.18 104.326c-4.445 4.857-9.34 7.236-6.738 9.617 2.604 2.381 8.316.371 12.762-4.486 4.443-4.858 5.936-10.727 3.332-13.109-2.602-2.379-4.913 3.117-9.356 7.978z" fill="#54af79"/><path d="M63.334 126.666c-27.387 0-49.668-22.28-49.668-49.666 0-13.942 5.612-32.964 14.299-48.46C38.282 10.136 50.843 0 63.334 0c12.49 0 25.051 10.136 35.367 28.54C107.388 44.036 113 63.058 113 77c0 27.386-22.28 49.666-49.666 49.666zM63.334 3C48.01 3 36.236 19.921 30.582 30.007 22.128 45.088 16.666 63.534 16.666 77c0 25.732 20.936 46.666 46.668 46.666C89.065 123.666 110 102.732 110 77c0-13.466-5.462-31.912-13.916-46.993C90.431 19.921 78.657 3 63.334 3z" fill="#33363a"/><path d="M91.623 89.47c-6.268 13.575-19.066 21.016-28.588 16.62-9.521-4.396-5.098-12.389 1.17-25.965 6.266-13.573 12.002-27.589 21.523-23.191 9.522 4.394 12.161 18.963 5.895 32.536z" fill="#7bc67b"/><path d="M85.729 56.934c-9.521-4.397-15.258 9.618-21.523 23.191l-.871 1.88v24.209c9.488 4.109 22.088-3.309 28.289-16.744 6.265-13.573 3.626-28.142-5.895-32.536z" fill="#54af79"/><circle cx="35.636" cy="38.547" r="3.06" fill="#7bc67b"/><circle cx="46.678" cy="23.91" r="1.197" fill="#7bc67b"/><circle cx="40.426" cy="56.11" r="1.73" fill="#7bc67b"/><circle cx="67.392" cy="113.216" r="1.73" fill="#54af79"/><circle cx="59.251" cy="111.486" r="1.73" fill="#7bc67b"/><circle cx="83.879" cy="29.977" r="3.537" fill="#54af79"/><circle cx="93.913" cy="45.066" r="3.46" fill="#54af79"/><circle cx="44.668" cy="91.447" r="3.459" fill="#7bc67b"/><path d="M67.059 40.692c0 8.108 3.498 14.682-4.611 14.682s-14.682-6.573-14.682-14.682 6.572-14.685 14.682-14.685c8.109.001 4.611 6.577 4.611 14.685z" fill="#7bc67b"/><g><path d="M63.334 55.341c6.951-.482 3.725-6.854 3.725-14.648s3.227-14.169-3.725-14.651v29.299z" fill="#54af79"/></g></svg>