<svg xmlns="http://www.w3.org/2000/svg" viewBox="0 0 46.792 46.792" width="512" height="512"><ellipse cx="33.002" cy="44.431" rx="11.5" ry="1.5" opacity=".15" fill="#45413c"/><path d="M16.562 22.621l-3.57 1.57a1.5 1.5 0 0 0-.88 1.32 1.47 1.47 0 0 0 1.429 1.51h.011c.572.015 1.101-.3 1.36-.81l1.75-3.49a.08.08 0 0 0-.1-.1z" fill="#4acfff"/><path d="M13.591 27.522l-.053-.001a1.966 1.966 0 0 1-1.927-2.023 1.99 1.99 0 0 1 1.173-1.762l3.576-1.572a.352.352 0 0 1 .062-.022.691.691 0 0 1 .326 0 .583.583 0 0 1 .39.73l-1.78 3.564a1.99 1.99 0 0 1-1.767 1.086zm2.094-3.969l-2.492 1.096a.99.99 0 0 0-.581.878.962.962 0 0 0 .265.691.964.964 0 0 0 .678.303.976.976 0 0 0 .911-.536l1.219-2.432z" fill="#45413c"/><path d="M9.012 29.831l-3.22 2.19a1.461 1.461 0 0 0-.63 1.45 1.47 1.47 0 0 0 1.69 1.23 1.479 1.479 0 0 0 1.19-1l1.08-3.77a.074.074 0 0 0-.11-.1z" fill="#4acfff"/><path d="M6.62 35.218a1.971 1.971 0 0 1-1.952-1.672 1.96 1.96 0 0 1 .847-1.941l3.19-2.171a.577.577 0 0 1 .747.021c.099.09.183.267.189.399a.573.573 0 0 1-.056.275l-1.063 3.709a1.977 1.977 0 0 1-1.902 1.38zm1.703-4.314l-2.25 1.53a.964.964 0 0 0-.418.957.976.976 0 0 0 1.105.818.988.988 0 0 0 .807-.666l.756-2.639zm1.057-.734c-.001 0-.001 0 0 0-.001 0-.001 0 0 0z" fill="#45413c"/><path d="M13.612 17.561l-3.82.76a1.49 1.49 0 0 0-1.14 1.1 1.48 1.48 0 0 0 1.08 1.79 1.5 1.5 0 0 0 1.5-.5l2.47-3a.088.088 0 0 0 .03-.12.088.088 0 0 0-.12-.03z" fill="#4acfff"/><path d="M10.084 21.753c-.155 0-.312-.018-.468-.055a1.984 1.984 0 0 1-1.45-2.396 2.002 2.002 0 0 1 1.522-1.47l3.778-.751a.59.59 0 0 1 .694.253.588.588 0 0 1-.104.732l-2.439 2.963a1.99 1.99 0 0 1-1.533.724zm2.506-3.479l-2.7.537a.981.981 0 0 0-.037 1.915.998.998 0 0 0 .995-.334l1.742-2.118zm1.022-.713h.01-.01z" fill="#45413c"/><path d="M5.032 23.291l-3.62 1.48a1.46 1.46 0 0 0-.91 1.29 1.48 1.48 0 0 0 1.4 1.55 1.469 1.469 0 0 0 1.38-.78l1.84-3.44a.07.07 0 0 0-.022-.096.069.069 0 0 0-.068-.004z" fill="#4acfff"/><path d="M1.981 28.113a1.983 1.983 0 0 1-1.978-2.076 1.965 1.965 0 0 1 1.221-1.729l3.619-1.48a.653.653 0 0 1 .52.041.628.628 0 0 1 .183.787l-1.823 3.41a1.975 1.975 0 0 1-1.742 1.047zm2.139-3.908l-2.519 1.029a.964.964 0 0 0-.599.849.979.979 0 1 0 1.839.513l1.279-2.391zm.912-.914h.01-.01z" fill="#45413c"/><path d="M21.132 26.631l-3.29 2.1a1.48 1.48 0 0 0-.68 1.43 1.48 1.48 0 0 0 1.63 1.28 1.45 1.45 0 0 0 1.21-1l1.21-3.71a.08.08 0 0 0-.057-.097.097.097 0 0 0-.023-.003z" fill="#4acfff"/><path d="M18.635 31.95a1.992 1.992 0 0 1-1.969-1.725 1.989 1.989 0 0 1 .909-1.917l3.288-2.1a.575.575 0 0 1 .42-.059.58.58 0 0 1 .414.702l-1.219 3.744a1.952 1.952 0 0 1-1.843 1.355zm1.731-4.237l-2.255 1.44a.984.984 0 0 0-.453.947.982.982 0 0 0 1.079.844.951.951 0 0 0 .788-.654l.841-2.577z" fill="#45413c"/><path d="M15.262 35.451l-2.8 2.73a1.45 1.45 0 0 0-.36 1.53 1.46 1.46 0 0 0 1.844.929l.026-.009a1.46 1.46 0 0 0 1-1.23l.43-3.89a.08.08 0 0 0-.14-.06z" fill="#4acfff"/><path d="M13.492 41.209a1.956 1.956 0 0 1-1.865-1.341 1.95 1.95 0 0 1 .488-2.047l2.797-2.729v.001a.661.661 0 0 1 .455-.168c.329.036.56.318.532.63l-.431 3.9a1.957 1.957 0 0 1-1.343 1.65c-.21.07-.424.104-.633.104zm1.284-4.586l-1.965 1.917a.95.95 0 0 0-.238 1.004.967.967 0 0 0 1.217.622.973.973 0 0 0 .685-.818l.301-2.725zm.486-1.172h.01-.01z" fill="#45413c"/><path d="M26.412 28.841l-2.82 2.7a1.5 1.5 0 0 0-.38 1.54 1.48 1.48 0 0 0 1.87.93 1.47 1.47 0 0 0 1-1.23l.45-3.85a.075.075 0 0 0-.12-.09z" fill="#4acfff"/><path d="M24.618 34.587a1.985 1.985 0 0 1-1.88-1.346 1.99 1.99 0 0 1 .505-2.059l2.823-2.702.001.001a.669.669 0 0 1 .32-.164.66.66 0 0 1 .425.106.585.585 0 0 1 .209.632l-.442 3.783a1.975 1.975 0 0 1-1.961 1.749zm1.283-4.565l-1.964 1.88a.992.992 0 0 0-.25 1.023.978.978 0 0 0 1.897-.202l.317-2.701zm.913-.883zm-.402-.298h.01-.01zm-.282-.206c-.001 0-.001.001 0 0-.001.001-.001 0 0 0z" fill="#45413c"/><path d="M22.462 38.931l-2.39 3.09a1.47 1.47 0 0 0-.14 1.57 1.47 1.47 0 0 0 2 .65c.486-.256.79-.761.79-1.31l-.12-3.91a.083.083 0 0 0-.025-.115.083.083 0 0 0-.115.025z" fill="#4acfff"/><path d="M21.247 44.901c-.733 0-1.423-.4-1.763-1.088a1.978 1.978 0 0 1 .192-2.097l2.383-3.081a.584.584 0 0 1 .786-.152.596.596 0 0 1 .26.603l.118 3.83a1.98 1.98 0 0 1-1.057 1.768c-.3.148-.614.217-.919.217zm.89-4.732l-1.669 2.158a.973.973 0 0 0-.091 1.035.973.973 0 0 0 1.304.446.985.985 0 0 0 .542-.877l-.086-2.762zm.325-1.238h.01-.01z" fill="#45413c"/><path d="M35.102 13.391a4.34 4.34 0 0 1 1.25-3.12.72.72 0 0 0 0-1l-2.56-2.61a.72.72 0 0 0-1 0 4.28 4.28 0 0 1-3.17 1.27l-10.83-.24 16.53 16.54-.22-10.84z" fill="#c0dceb"/><path d="M34.032 7.931a.999.999 0 0 1 .76-.3l-1-1a.72.72 0 0 0-1 0 4.28 4.28 0 0 1-3.17 1.3l-10.83-.24 2.84 2.84 8.91-.86a5.765 5.765 0 0 0 3.49-1.74z" fill="#daedf7"/><path d="M35.322 24.731a.504.504 0 0 1-.354-.146l-16.53-16.54a.498.498 0 0 1-.106-.55c.081-.188.25-.281.471-.304l10.83.24a3.82 3.82 0 0 0 2.804-1.122 1.217 1.217 0 0 1 1.702-.008l2.57 2.62c.461.478.461 1.222.002 1.697a3.865 3.865 0 0 0-1.109 2.763l.221 10.84a.5.5 0 0 1-.501.51zM20.026 8.218l14.771 14.78-.195-9.597v-.002a4.865 4.865 0 0 1 1.395-3.479.219.219 0 0 0-.004-.301l-2.558-2.608c-.074-.073-.21-.073-.295.009-.922.933-2.224 1.427-3.532 1.411l-9.582-.213z" fill="#45413c"/><path d="M18.538 7.443l17.048 17.048a.37.37 0 0 1 0 .523l-1.541 1.541a.37.37 0 0 1-.523 0L16.473 9.508a.37.37 0 0 1 0-.523l1.541-1.541a.37.37 0 0 1 .524-.001z" fill="#e8f4fa"/><path d="M23.142 12.041l-4.61-4.61a.37.37 0 0 0-.52 0l-1.55 1.55a.37.37 0 0 0 0 .52l4.61 4.61 2.07-2.07z" fill="#fff"/><path d="M33.783 27.165a.866.866 0 0 1-.615-.255L16.12 9.861a.87.87 0 0 1 0-1.23l1.542-1.542a.863.863 0 0 1 .614-.255c.232 0 .451.09.615.255l17.048 17.048a.87.87 0 0 1 0 1.23l-1.541 1.542a.863.863 0 0 1-.615.256zM16.919 9.246l16.864 16.865 1.357-1.358L18.276 7.889l-1.357 1.357zm18.313 15.598h.01-.01z" fill="#45413c"/><path d="M16.972 10.021l16.023 16.023-.778.778a.73.73 0 0 1-1.032 0L16.23 11.866a.73.73 0 0 1 0-1.032l.778-.778-.036-.035z" fill="#adc4d9"/><path d="M18.942 11.981l-2-2-.78.77a.74.74 0 0 0 0 1l1.45 1.45 1.33-1.22z" fill="#c0dceb"/><path d="M31.701 27.536c-.329 0-.638-.128-.87-.36L15.876 12.22a1.232 1.232 0 0 1 0-1.739l.672-.672a.485.485 0 0 1 .089-.125c.195-.193.493-.212.688-.017L33.349 25.69a.5.5 0 0 1 0 .707l-.778.778a1.223 1.223 0 0 1-.87.361zM17.007 10.763l-.424.424a.23.23 0 0 0 0 .325l14.955 14.956a.229.229 0 0 0 .324.001l.426-.426-15.281-15.28z" fill="#45413c"/><path d="M45.362 4.611a.93.93 0 0 0 .93-.93v-1.39a.93.93 0 0 0-.93-.93h-3.06a7.087 7.087 0 0 0-5 2.08l-3.39 3.36 2.3 2.3 3.28-3.27a4.138 4.138 0 0 1 2.93-1.22h2.94z" fill="#e8f4fa"/><path d="M37.272 5.011a7.13 7.13 0 0 1 5-2.08h3.06a.91.91 0 0 1 .91.84.272.272 0 0 0 0-.09v-1.39a.93.93 0 0 0-.93-.93h-3.01a7.087 7.087 0 0 0-5 2.08l-3.39 3.36.79.78 2.57-2.57z" fill="#fff"/><path d="M36.212 9.601a.502.502 0 0 1-.354-.146l-2.3-2.3a.5.5 0 0 1 .002-.709l3.39-3.36A7.539 7.539 0 0 1 42.301.861h3.061c.789 0 1.431.642 1.431 1.43v1.39c0 .789-.642 1.43-1.431 1.43h-2.939a3.66 3.66 0 0 0-2.575 1.073l-3.282 3.271a.502.502 0 0 1-.354.146zm-1.591-2.799l1.592 1.592 2.927-2.917a4.664 4.664 0 0 1 3.281-1.366h2.94a.431.431 0 0 0 .431-.43v-1.39a.43.43 0 0 0-.431-.43h-3.06a6.545 6.545 0 0 0-4.646 1.934l-3.034 3.007z" fill="#45413c"/></svg>