<svg xmlns="http://www.w3.org/2000/svg" viewBox="0 0 46 46" width="512" height="512"><ellipse cx="20.379" cy="44.39" rx="14.5" ry="1.61" opacity=".15" fill="#45413c"/><path d="M11.869 10.08a4.72 4.72 0 1 0-4.08 2.34h.44a2.58 2.58 0 1 0 3.65-2.339h-.01z" fill="#fff"/><path d="M10.808 15.508h-.009a3.086 3.086 0 0 1-3.032-2.588 5.217 5.217 0 0 1-2.607-.712 5.226 5.226 0 0 1-1.875-7.14 5.226 5.226 0 0 1 7.14-1.875 5.182 5.182 0 0 1 2.417 3.182 5.18 5.18 0 0 1-.304 3.504 3.092 3.092 0 0 1 1.352 2.559 3.086 3.086 0 0 1-3.082 3.07zM7.8 3.478c-.36 0-.722.046-1.079.141a4.191 4.191 0 0 0-2.572 1.953 4.224 4.224 0 0 0 3.642 6.348h.439a.5.5 0 0 1 .5.501 2.064 2.064 0 0 0 .605 1.473c.392.394.913.612 1.469.614h.006a2.084 2.084 0 0 0 2.081-2.074 2.084 2.084 0 0 0-1.198-1.89.5.5 0 0 1-.253-.716c.568-.974.724-2.11.437-3.2a4.189 4.189 0 0 0-1.954-2.572A4.212 4.212 0 0 0 7.8 3.478z" fill="#45413c"/><circle cx="18.459" cy="3.08" r="2.58" fill="#fff"/><path d="M18.459 6.16c-1.698 0-3.08-1.382-3.08-3.08S16.761 0 18.459 0s3.08 1.382 3.08 3.08-1.382 3.08-3.08 3.08zm0-5.16c-1.147 0-2.08.933-2.08 2.08s.933 2.08 2.08 2.08 2.08-.933 2.08-2.08S19.606 1 18.459 1z" fill="#45413c"/><path d="M37.099 34.22a5.589 5.589 0 0 0 5.821-5.349 5.589 5.589 0 0 0-5.822-5.821h-2.15v3.44h2.15a2.151 2.151 0 0 1 0 4.3h-3.86v3.43h3.861z" fill="#e5f8ff"/><path d="M36.239 24.77a5.59 5.59 0 0 1 5.59 5.59c0 .555-.078 1.107-.23 1.64a5.59 5.59 0 0 0-4.5-8.9h-2.15v1.72l1.29-.05z" fill="#fff"/><path d="M37.342 34.725c-.084 0-.169-.001-.254-.005h-3.849a.5.5 0 0 1-.5-.5v-3.43a.5.5 0 0 1 .5-.5h3.859a1.653 1.653 0 0 0 1.649-1.648c0-.91-.74-1.65-1.649-1.651h-2.149a.5.5 0 0 1-.5-.5v-3.44a.5.5 0 0 1 .5-.5h2.149a6.098 6.098 0 0 1 6.322 6.342 6.057 6.057 0 0 1-1.965 4.227 6.046 6.046 0 0 1-4.113 1.605zm-3.603-1.005h3.38c1.355.075 2.657-.417 3.659-1.337a5.059 5.059 0 0 0 1.642-3.533 5.095 5.095 0 0 0-5.301-5.3h-1.671v2.44h1.649a2.654 2.654 0 0 1 2.649 2.651 2.654 2.654 0 0 1-2.649 2.648h-3.359v2.431z" fill="#45413c"/><path d="M4.879 19.5v9c-.139 8.697 6.799 15.861 15.496 16h.004c8.697-.137 15.637-7.299 15.5-15.996V19.5h-31z" fill="#fff"/><path d="M20.379 39c-6.45 0-12.08-2.79-15.11-6.94a15.62 15.62 0 0 0 15.11 12.44 15.62 15.62 0 0 0 15.11-12.44c-3.03 4.15-8.66 6.94-15.11 6.94z" fill="#e8f4fa"/><path d="M20.386 45c-8.979-.144-16.151-7.55-16.008-16.508V19.5a.5.5 0 0 1 .5-.5h31a.5.5 0 0 1 .5.5v9c.141 8.955-7.033 16.359-15.992 16.5zM5.379 20v8.5c-.135 8.415 6.596 15.365 15.004 15.5 8.396-.132 15.128-7.08 14.996-15.488V20h-30z" fill="#45413c"/><ellipse cx="20.379" cy="19.5" rx="15.5" ry="2" fill="#e8f4fa"/><path d="M20.379 22c-1.638 0-16-.07-16-2.5s14.362-2.5 16-2.5 16 .07 16 2.5-14.363 2.5-16 2.5zM5.47 19.5c.972.647 6.474 1.5 14.908 1.5s13.937-.853 14.908-1.5c-.972-.647-6.474-1.5-14.908-1.5s-13.936.853-14.908 1.5zm29.936.105h.01-.01z" fill="#45413c"/><path d="M23.699 32.94a.86.86 0 0 1 .84 1.06 4.3 4.3 0 0 1-8.32 0 .86.86 0 0 1 .84-1.07l6.64.01z" fill="#ffb0ca"/><path d="M20.387 37.714a4.804 4.804 0 0 1-4.653-3.588 1.361 1.361 0 0 1 1.324-1.696l6.639.011h.005c.36 0 .7.14.957.395a1.352 1.352 0 0 1 .365 1.279 4.769 4.769 0 0 1-2.222 2.94 4.773 4.773 0 0 1-2.415.659zm-3.329-4.284c-.286.06-.402.256-.354.448a3.801 3.801 0 0 0 7.352-.003c.007-.172-.031-.262-.1-.329a.31.31 0 0 0-.255-.104h-.003l-6.64-.012z" fill="#45413c"/><path d="M20.379 37.23a4.262 4.262 0 0 0 3.38-1.67 6.258 6.258 0 0 0-3.38-.91 6.258 6.258 0 0 0-3.38.91 4.26 4.26 0 0 0 3.38 1.67z" fill="#ff87af"/><path d="M20.379 37.73a4.786 4.786 0 0 1-3.777-1.867.501.501 0 0 1 .137-.731 6.748 6.748 0 0 1 3.65-.981 6.69 6.69 0 0 1 3.629.981.501.501 0 0 1 .137.731 4.786 4.786 0 0 1-3.776 1.867zm-2.584-2.032a3.789 3.789 0 0 0 2.583 1.032 3.79 3.79 0 0 0 2.584-1.032 5.782 5.782 0 0 0-2.574-.548 5.82 5.82 0 0 0-2.593.548z" fill="#45413c"/><path d="M11.789 30.79c0 .47.57.86 1.29.86s1.3-.39 1.3-.86-.58-.86-1.29-.86-1.3.38-1.3.86z" fill="#fcd"/><path d="M12.648 29.57a.5.5 0 0 1-.498-.456c-.042-.477.104-.94.411-1.307a1.776 1.776 0 0 1 1.215-.634c.478-.045.94.104 1.307.41a1.786 1.786 0 0 1 .634 1.528.5.5 0 0 1-.997-.084.787.787 0 0 0-.856-.859.786.786 0 0 0-.719.856.5.5 0 0 1-.497.546z" fill="#45413c"/><path d="M28.969 30.79c0 .47-.57.86-1.29.86s-1.3-.39-1.3-.86.58-.86 1.29-.86c.71 0 1.3.38 1.3.86z" fill="#fcd"/><path d="M25.538 29.57a.499.499 0 0 1-.497-.455 1.78 1.78 0 0 1 .634-1.531 1.792 1.792 0 0 1 2.933 1.53.508.508 0 0 1-.542.454.5.5 0 0 1-.454-.542.79.79 0 1 0-1.574 0 .5.5 0 0 1-.453.543l-.047.001z" fill="#45413c"/></svg>