<svg xmlns="http://www.w3.org/2000/svg" viewBox="0 0 45.79 45.79" width="512" height="512"><ellipse cx="24.484" cy="44.18" rx="15.02" ry="1.61" opacity=".15" fill="#45413c"/><path d="M40.294 36.41a.88.88 0 0 1 .87 1c-.75 5.94-7.44 6.89-17.07 6.89s-16.33-1-17.08-6.89a.88.88 0 0 1 .87-1h32.41z" fill="#bf8256"/><path d="M7.484 39.15a.922.922 0 0 1 .43-.11h32.38c.15 0 .298.038.43.11.22-.562.368-1.15.44-1.75a.88.88 0 0 0-.87-1H7.884a.88.88 0 0 0-.87 1c.082.601.24 1.189.47 1.75z" fill="#dea47a"/><path d="M24.094 44.8c-8.421 0-16.715-.565-17.576-7.326-.05-.36.045-.724.268-1.017a1.37 1.37 0 0 1 1.099-.547h32.412a1.381 1.381 0 0 1 1.362 1.574c-.853 6.75-9.145 7.316-17.565 7.316zm-16.21-7.89c-.15.017-.239.069-.301.15s-.087.181-.074.281c.685 5.379 6.854 6.458 16.584 6.458 9.981 0 15.892-1.056 16.574-6.452.005-.267-.165-.438-.374-.438H7.884z" fill="#45413c"/><path d="M26.484 4h-1.1v28h15.55a.88.88 0 0 0 .65-1.47 66.995 66.995 0 0 1-14.25-25.9.87.87 0 0 0-.85-.63z" fill="#ff6242"/><path d="M29.884 11.87a35.713 35.713 0 0 1-4.48 1.67v5.95a35.679 35.679 0 0 0 6.82-2.63c-.83-1.62-1.63-3.27-2.34-4.99zM34.594 21.1a35.256 35.256 0 0 1-9.19 3.54v5.89a34.197 34.197 0 0 0 12.13-5c-1.05-1.46-2.05-2.92-2.94-4.43z" fill="#ffe500"/><path d="M40.936 32.5H25.384a.5.5 0 0 1-.5-.5V4a.5.5 0 0 1 .5-.5h1.096a1.386 1.386 0 0 1 1.335.991 66.9 66.9 0 0 0 14.144 25.708 1.38 1.38 0 0 1-1.023 2.301zm-15.052-1h15.05a.376.376 0 0 0 .377-.381.378.378 0 0 0-.099-.255A67.904 67.904 0 0 1 26.854 4.768c-.046-.16-.184-.242-.362-.268h-.608v27z" fill="#45413c"/><g><path d="M23.654.5v33.29H4.864a.86.86 0 0 1-.61-1.49c7.67-7.43 14.02-18.33 19.4-31.8z" fill="#ff6242"/><path d="M23.654 10.29c-1.86.86-3.68 1.58-5.4 2.18a100.646 100.646 0 0 1-4.88 8.49 63.084 63.084 0 0 0 10.28-3.66v-7.01zM4.254 32.29a.86.86 0 0 0 .61 1.5h7.28a57.16 57.16 0 0 0 11.51-5.25v-7a59.814 59.814 0 0 1-15.37 6.39 58.513 58.513 0 0 1-4.03 4.36z" fill="#ffe500"/><path d="M4.825 34.291a1.36 1.36 0 0 1-.912-2.357c7.293-7.065 13.601-17.41 19.276-31.619a.5.5 0 0 1 .965.185v33.29a.5.5 0 0 1-.5.5H4.864l-.039.001zM23.154 3.048C17.675 16.184 11.593 25.887 4.602 32.659a.369.369 0 0 0-.122.281.35.35 0 0 0 .113.252c.069.065.141.1.257.098h18.304V3.048z" fill="#45413c"/></g><g><path fill="#bf8256" d="M23.654.5h1.75v35.91h-1.75z"/><path d="M25.404 36.91h-1.75a.5.5 0 0 1-.5-.5V.5a.5.5 0 0 1 .5-.5h1.75a.5.5 0 0 1 .5.5v35.91a.5.5 0 0 1-.5.5zm-1.25-1h.75V1h-.75v34.91z" fill="#45413c"/></g></svg>