<svg xmlns="http://www.w3.org/2000/svg" viewBox="0 0 127.323 127.323"><path d="M82.853 65.539c-3.857 6.604-11.004 11.065-19.191 11.065s-15.334-4.46-19.192-11.065H11.705c5.141 23.962 26.48 41.985 51.957 41.985s46.816-18.023 51.957-41.985H82.853z" fill="#ff908a"/><path d="M63.662 76.604c-8.188 0-15.334-4.461-19.191-11.065H16.343C25.152 82.729 43.05 94.53 63.661 94.53s38.51-11.801 47.318-28.991H82.853c-3.857 6.605-11.004 11.065-19.191 11.065z" fill="#ff6155"/><path d="M63.662 109.024c-25.589 0-48.058-18.156-53.424-43.171a1.501 1.501 0 0 1 1.467-1.814H44.47a1.5 1.5 0 0 1 1.295.744c3.719 6.367 10.576 10.322 17.896 10.322s14.178-3.955 17.896-10.322c.269-.46.762-.744 1.295-.744h32.766a1.502 1.502 0 0 1 1.467 1.814c-5.366 25.016-27.834 43.171-53.423 43.171zM13.595 67.039c5.744 22.7 26.505 38.985 50.066 38.985s44.322-16.285 50.066-38.985H83.696c-4.344 6.847-11.94 11.065-20.034 11.065s-15.69-4.218-20.034-11.065H13.595z" fill="#33363a"/><path d="M44.47 43.486c3.857-6.604 11.004-11.067 19.191-11.067s15.334 4.463 19.191 11.067h32.766C110.478 19.524 89.138 1.5 63.662 1.5S16.845 19.524 11.705 43.486H44.47z" fill="#ff908a"/><path d="M63.662 32.419c8.188 0 15.334 4.463 19.191 11.067h28.127c-8.809-17.194-26.707-28.992-47.318-28.992s-38.51 11.798-47.318 28.992H44.47c3.858-6.604 11.004-11.067 19.192-11.067z" fill="#ff6155"/><path d="M115.619 44.986H82.853a1.5 1.5 0 0 1-1.295-.744c-3.72-6.368-10.577-10.324-17.896-10.324s-14.177 3.956-17.896 10.324c-.269.46-.762.744-1.295.744H11.705a1.502 1.502 0 0 1-1.467-1.814C15.605 18.156 38.073 0 63.662 0s48.057 18.156 53.424 43.172a1.501 1.501 0 0 1-1.467 1.814zm-31.923-3h30.032C107.984 19.286 87.223 3 63.662 3S19.34 19.286 13.595 41.986h30.032c4.345-6.848 11.941-11.067 20.034-11.067s15.69 4.219 20.035 11.067z" fill="#33363a"/><path d="M75.246 54.511c0 6.402-5.186 11.586-11.584 11.586s-11.586-5.184-11.586-11.586c0-6.396 5.188-11.586 11.586-11.586s11.584 5.189 11.584 11.586z" fill="#ff908a"/><path d="M52.076 54.511c0-6.396 5.188-11.586 11.586-11.586s11.584 5.189 11.584 11.586" fill="#ff6155"/><path d="M63.662 67.597c-7.216 0-13.086-5.87-13.086-13.086s5.87-13.086 13.086-13.086c7.215 0 13.084 5.87 13.084 13.086s-5.869 13.086-13.084 13.086zm0-23.172c-5.562 0-10.086 4.524-10.086 10.086S58.1 64.597 63.662 64.597c5.561 0 10.084-4.524 10.084-10.086s-4.524-10.086-10.084-10.086zM41.566 56.011H25.197a1.5 1.5 0 1 1 0-3h16.369a1.5 1.5 0 1 1 0 3zM15.771 56.009a1.502 1.502 0 0 1-1.5-1.5c0-.39.16-.78.431-1.06.569-.56 1.569-.56 2.13 0a1.498 1.498 0 0 1-1.061 2.56zM7.181 56.009a1.54 1.54 0 0 1-1.069-.44 1.529 1.529 0 0 1-.431-1.06c0-.39.16-.78.431-1.06.569-.56 1.569-.56 2.13 0 .279.28.439.67.439 1.06s-.16.78-.439 1.06c-.29.28-.67.44-1.061.44zM102.127 56.011H85.76a1.5 1.5 0 1 1 0-3h16.367a1.5 1.5 0 1 1 0 3zM111.552 56.009a1.499 1.499 0 0 1-1.06-2.56c.56-.56 1.56-.56 2.12 0a1.502 1.502 0 0 1-1.06 2.56zM120.141 56.009c-.39 0-.77-.16-1.06-.44a1.499 1.499 0 0 1 0-2.12c.57-.56 1.57-.56 2.12 0a1.502 1.502 0 0 1-1.06 2.56z" fill="#33363a"/><path d="M83.828 101.588a2.739 2.739 0 0 0-2.217-1.87L70.91 98.161l-4.785-9.699a2.746 2.746 0 0 0-4.926 0l-4.785 9.699-10.701 1.557a2.741 2.741 0 0 0-2.219 1.87 2.753 2.753 0 0 0 .695 2.815l7.744 7.545-1.828 10.658a2.748 2.748 0 0 0 1.092 2.689c.85.611 1.969.695 2.895.205l9.57-5.029 9.57 5.029a2.746 2.746 0 0 0 3.986-2.894l-1.83-10.658 7.744-7.545a2.743 2.743 0 0 0 .696-2.815z" fill="#ffd00b"/><g><path d="M75.388 111.948l6.254-6.095c-.01 0-.02-.004-.031-.006L70.91 104.29l-4.785-9.698a2.743 2.743 0 0 0-2.463-1.529 2.742 2.742 0 0 0-2.463 1.529l-4.785 9.698-10.701 1.557c-.012.002-.021.006-.033.006l6.254 6.095-.9 5.25.9.879-1.17 6.816c.131.146.271.283.434.402.85.611 1.969.695 2.895.205l9.57-5.029 9.57 5.029a2.746 2.746 0 0 0 2.892-.205 2.77 2.77 0 0 0 .434-.402l-1.17-6.816.9-.879-.901-5.25z" fill="#ffbe08"/></g><g><path d="M52.81 127.323a4.254 4.254 0 0 1-2.489-.809 4.228 4.228 0 0 1-1.694-4.162l1.695-9.879-7.18-6.995a4.229 4.229 0 0 1-1.076-4.35 4.22 4.22 0 0 1 3.434-2.895l9.918-1.443 4.437-8.992c.707-1.437 2.202-2.366 3.808-2.366s3.101.929 3.809 2.366l4.436 8.991 9.921 1.443a4.267 4.267 0 0 1 3.428 2.892 4.217 4.217 0 0 1-1.076 4.353l-7.178 6.994 1.696 9.88a4.224 4.224 0 0 1-1.69 4.157 4.304 4.304 0 0 1-4.476.317l-8.869-4.661-8.872 4.663a4.226 4.226 0 0 1-1.982.496zm10.852-38.89c-.472 0-.91.271-1.117.692l-4.786 9.7a1.5 1.5 0 0 1-1.129.821l-10.701 1.557a1.239 1.239 0 0 0-1.008.85c-.145.446-.021.949.315 1.277l7.744 7.544a1.5 1.5 0 0 1 .432 1.328l-1.828 10.658a1.24 1.24 0 0 0 .497 1.224c.384.277.89.314 1.309.092l9.574-5.031a1.504 1.504 0 0 1 1.396 0l9.57 5.029c.424.225.94.18 1.313-.091a1.24 1.24 0 0 0 .497-1.221l-1.83-10.659a1.5 1.5 0 0 1 .432-1.328l7.744-7.545c.343-.333.463-.823.315-1.279a1.23 1.23 0 0 0-1.003-.847l-10.704-1.557a1.5 1.5 0 0 1-1.129-.821l-4.785-9.699a1.251 1.251 0 0 0-1.118-.694z" fill="#33363a"/></g></svg>