<svg xmlns="http://www.w3.org/2000/svg" viewBox="0 0 127.586 127.586"><path d="M41.314 47.316c.545 11.882-13.086.925-24.303.925-11.218 0-15.511-.998-15.511-5.855 0-4.859 9.092-8.798 20.311-8.798 15.972 0 19.281 8.875 19.503 13.728z" fill="#8d9aa3"/><path d="M31.943 51.767c.76-.85 1.143-2.26 1.043-4.45-.203-4.419-2.969-12.171-15.52-13.522-9.128.86-15.966 4.378-15.966 8.591 0 4.857 4.293 5.855 15.512 5.855 4.986 0 10.447 2.164 14.931 3.526z" fill="#5e707a"/><path d="M37.367 54.344c-2.404 0-5.36-.96-8.602-2.013-3.738-1.214-7.975-2.59-11.754-2.59C7.051 49.741 0 49.213 0 42.386c0-5.871 9.377-10.298 21.811-10.298 14.973 0 20.666 7.831 21.002 15.16.136 2.952-.528 4.944-2.031 6.089-.944.719-2.096 1.007-3.415 1.007zM21.811 35.088C10.726 35.088 3 38.934 3 42.386c0 3.012 2.023 4.355 14.012 4.355 4.254 0 8.73 1.454 12.681 2.737 3.862 1.254 7.853 2.552 9.271 1.473.812-.619.912-2.281.854-3.565-.134-2.886-1.824-12.298-18.007-12.298zM41.33 34.801h-1.143a1.5 1.5 0 1 1 0-3h1.143a1.5 1.5 0 1 1 0 3zM44.389 38.63h-1.145a1.5 1.5 0 1 1 0-3h1.145a1.5 1.5 0 1 1 0 3zM46.303 42.65H45.16a1.5 1.5 0 1 1 0-3h1.143a1.5 1.5 0 1 1 0 3zM47.447 47.245h-1.145a1.5 1.5 0 1 1 0-3h1.145a1.5 1.5 0 1 1 0 3zM47.447 52.108h-1.145a1.5 1.5 0 1 1 0-3h1.145a1.5 1.5 0 1 1 0 3z" fill="#33363a"/><path d="M80.635 80.27c.545-11.883-13.086-.926-24.305-.926-11.217 0-15.51.998-15.51 5.855 0 4.859 9.092 8.798 20.309 8.798 15.973.001 19.283-8.874 19.506-13.727z" fill="#8d9aa3"/><path d="M71.264 75.819c.758.85 1.143 2.26 1.043 4.451-.203 4.418-2.971 12.17-15.52 13.522-9.129-.861-15.967-4.379-15.967-8.592 0-4.857 4.293-5.855 15.51-5.855 4.988 0 10.449-2.164 14.934-3.526z" fill="#5e707a"/><path d="M80.65 95.785h-1.143a1.5 1.5 0 1 1 0-3h1.143a1.5 1.5 0 1 1 0 3zM83.709 91.956h-1.145a1.5 1.5 0 1 1 0-3h1.145a1.5 1.5 0 1 1 0 3zM85.623 87.936H84.48a1.5 1.5 0 1 1 0-3h1.143a1.5 1.5 0 1 1 0 3zM86.766 83.341h-1.143a1.5 1.5 0 1 1 0-3h1.143a1.5 1.5 0 1 1 0 3zM86.766 78.478h-1.143a1.5 1.5 0 1 1 0-3h1.143a1.5 1.5 0 1 1 0 3z" fill="#33363a"/><g fill="#33363a"><path d="M80.102 74.25c-2.664-2.033-6.999-.625-12.017 1.005-3.738 1.214-7.975 2.59-11.755 2.59-9.823 0-16.802.526-16.992 7.091h-7.207a1.5 1.5 0 1 0 0 3h7.777c.05 0 .098-.01.147-.015 2.406 4.462 10.655 7.577 21.074 7.577 19.33 0 20.888-12.627 21.004-15.159.136-2.952-.529-4.944-2.031-6.089zm-.965 5.952c-.133 2.885-1.822 12.296-18.008 12.296-11.084 0-18.809-3.846-18.809-7.298 0-3.012 2.022-4.355 14.01-4.355 4.255 0 8.731-1.454 12.682-2.737 2.851-.925 5.772-1.875 7.677-1.875.676 0 1.224.12 1.595.402.811.62.911 2.282.853 3.567zM25.607 84.936a1.5 1.5 0 1 0 0 3h.09c.828 0 1.455-.671 1.455-1.5s-.716-1.5-1.545-1.5zM20.416 84.936a1.5 1.5 0 1 0 0 3h.09c.828 0 1.455-.671 1.455-1.5s-.717-1.5-1.545-1.5zM15.225 84.936a1.5 1.5 0 1 0 0 3h.09c.828 0 1.455-.671 1.455-1.5s-.717-1.5-1.545-1.5z"/></g><g><path d="M119.955 47.316c.545 11.882-13.088.925-24.305.925s-15.512-.998-15.512-5.855c0-4.859 9.094-8.798 20.311-8.798 15.973 0 19.283 8.875 19.506 13.728z" fill="#8d9aa3"/><path d="M110.582 51.767c.76-.85 1.145-2.26 1.043-4.45-.203-4.419-2.969-12.171-15.52-13.522-9.127.861-15.967 4.379-15.967 8.592 0 4.857 4.295 5.855 15.512 5.855 4.987-.001 10.45 2.163 14.932 3.525z" fill="#5e707a"/><path d="M119.971 34.801h-1.145a1.5 1.5 0 1 1 0-3h1.145a1.5 1.5 0 1 1 0 3zM123.027 38.63h-1.143a1.5 1.5 0 1 1 0-3h1.143a1.5 1.5 0 1 1 0 3zM124.943 42.65h-1.145a1.5 1.5 0 1 1 0-3h1.145a1.5 1.5 0 1 1 0 3zM126.086 47.245h-1.143a1.5 1.5 0 1 1 0-3h1.143a1.5 1.5 0 1 1 0 3zM126.086 52.108h-1.143a1.5 1.5 0 1 1 0-3h1.143a1.5 1.5 0 1 1 0 3z" fill="#33363a"/><g fill="#33363a"><path d="M121.453 47.248c-.336-7.329-6.03-15.16-21.004-15.16-11.955 0-21.058 4.097-21.744 9.63l-.006-.001h-7.777a1.5 1.5 0 1 0 0 3h7.777c.094 0 .185-.011.274-.028 1.504 4.647 7.98 5.051 16.677 5.051 3.779 0 8.016 1.376 11.754 2.59 3.242 1.053 6.198 2.013 8.604 2.013 1.317 0 2.471-.288 3.414-1.007 1.503-1.145 2.167-3.136 2.031-6.088zm-3.849 3.703c-1.418 1.078-5.411-.219-9.272-1.473-3.949-1.283-8.427-2.737-12.681-2.737-11.988 0-14.012-1.344-14.012-4.355 0-3.452 7.726-7.298 18.811-7.298 16.186 0 17.875 9.413 18.008 12.297.058 1.285-.043 2.947-.854 3.566zM64.398 41.718a1.5 1.5 0 1 0 0 3h.09c.828 0 1.455-.671 1.455-1.5s-.716-1.5-1.545-1.5zM59.207 41.718a1.5 1.5 0 1 0 0 3h.09c.828 0 1.455-.671 1.455-1.5s-.717-1.5-1.545-1.5zM54.018 41.718a1.5 1.5 0 1 0 0 3h.09c.828 0 1.455-.671 1.455-1.5s-.717-1.5-1.545-1.5z"/></g></g></svg>