<svg xmlns="http://www.w3.org/2000/svg" viewBox="0 0 127.314 127.314"><circle cx="32.237" cy="90.36" r="30.737" fill="#ff1a1a"/><ellipse cx="32.237" cy="90.36" rx="30.737" ry="23.543" fill="#d60909"/><path d="M1.5 90.36c0 16.978 13.761 30.737 30.737 30.737 16.975 0 30.736-13.76 30.736-30.737H1.5z" fill="#fff"/><path d="M32.237 113.903c16.975 0 30.736-10.541 30.736-23.543H1.5c0 13.002 13.761 23.543 30.737 23.543z" fill="#d8e5ea"/><path d="M32.237 58.124C14.461 58.124 0 72.584 0 90.36c0 17.776 14.461 32.237 32.237 32.237s32.236-14.461 32.236-32.237c0-17.776-14.461-32.236-32.236-32.236zm0 3c15.618 0 28.415 12.31 29.198 27.736H3.038c.783-15.427 13.581-27.736 29.199-27.736zm0 58.473c-15.618 0-28.415-12.31-29.199-27.737h58.397c-.783 15.427-13.58 27.737-29.198 27.737z" fill="#33363a"/><circle cx="32.237" cy="93.438" r="9.308" fill="#a7bbc1"/><circle cx="32.237" cy="90.272" r="9.308" fill="#fff"/><path d="M25.655 96.854c-3.635-3.634-3.635-9.527 0-13.164a9.311 9.311 0 0 1 13.163 0" fill="#d8e5ea"/><path d="M32.237 101.08a10.733 10.733 0 0 1-7.642-3.166 10.732 10.732 0 0 1-3.166-7.642c0-2.887 1.125-5.601 3.166-7.644 4.215-4.212 11.07-4.211 15.284 0a10.74 10.74 0 0 1 3.166 7.644c0 2.887-1.125 5.601-3.166 7.642a10.735 10.735 0 0 1-7.642 3.166zm0-18.611c-2 0-3.999.761-5.521 2.282a7.76 7.76 0 0 0-2.287 5.522c0 2.085.813 4.046 2.287 5.52 1.475 1.475 3.436 2.287 5.521 2.287s4.046-.812 5.521-2.287c1.475-1.475 2.287-3.435 2.287-5.521s-.812-4.047-2.287-5.522a7.787 7.787 0 0 0-5.521-2.281z" fill="#33363a"/><circle cx="62.973" cy="36.955" r="30.737" fill="#ff1a1a"/><ellipse cx="62.973" cy="36.955" rx="30.737" ry="23.542" fill="#d60909"/><path d="M32.237 36.955c0 16.977 13.761 30.737 30.737 30.737 16.975 0 30.736-13.76 30.736-30.737H32.237z" fill="#fff"/><path d="M62.974 60.497c16.975 0 30.736-10.541 30.736-23.542H32.237c0 13.001 13.761 23.542 30.737 23.542z" fill="#d8e5ea"/><path d="M62.974 4.717c-17.775 0-32.237 14.461-32.237 32.237s14.461 32.237 32.237 32.237S95.21 54.73 95.21 36.955 80.749 4.717 62.974 4.717zm0 3c15.618 0 28.415 12.31 29.198 27.737H33.775c.783-15.427 13.581-27.737 29.199-27.737zm0 58.475c-15.618 0-28.415-12.31-29.199-27.737h58.397c-.784 15.427-13.58 27.737-29.198 27.737z" fill="#33363a"/><circle cx="62.973" cy="40.033" r="9.309" fill="#a7bbc1"/><circle cx="62.973" cy="36.867" r="9.308" fill="#fff"/><path d="M56.392 43.449a9.307 9.307 0 0 1 0-13.163 9.307 9.307 0 0 1 13.163 0" fill="#d8e5ea"/><path d="M62.974 47.675a10.733 10.733 0 0 1-7.642-3.166c-2.042-2.041-3.166-4.755-3.166-7.642s1.125-5.601 3.166-7.642c2.041-2.042 4.755-3.166 7.642-3.166s5.601 1.124 7.642 3.165a10.733 10.733 0 0 1 3.166 7.642c0 2.887-1.124 5.601-3.166 7.643a10.737 10.737 0 0 1-7.642 3.166zm0-18.615c-2.085 0-4.046.812-5.521 2.287s-2.287 3.436-2.287 5.521.813 4.046 2.287 5.521 3.436 2.287 5.521 2.287 4.046-.812 5.521-2.287c1.475-1.475 2.287-3.436 2.287-5.521s-.812-4.046-2.287-5.521a7.757 7.757 0 0 0-5.521-2.287z" fill="#33363a"/><g><circle cx="95.078" cy="90.36" r="30.737" fill="#ff1a1a"/></g><g><ellipse cx="95.078" cy="90.36" rx="30.737" ry="23.543" fill="#d60909"/></g><g><path d="M64.341 90.36c0 16.978 13.761 30.737 30.737 30.737 16.975 0 30.736-13.76 30.736-30.737H64.341z" fill="#fff"/></g><g><path d="M95.078 113.903c16.975 0 30.736-10.541 30.736-23.543H64.341c0 13.002 13.762 23.543 30.737 23.543z" fill="#d8e5ea"/></g><path d="M95.078 58.124c-17.775 0-32.237 14.461-32.237 32.236 0 17.776 14.461 32.237 32.237 32.237s32.236-14.461 32.236-32.237c0-17.776-14.46-32.236-32.236-32.236zm0 3c15.618 0 28.415 12.31 29.198 27.736H65.879c.784-15.427 13.581-27.736 29.199-27.736zm0 58.473c-15.618 0-28.415-12.31-29.199-27.737h58.397c-.783 15.427-13.58 27.737-29.198 27.737z" fill="#33363a"/><g><circle cx="95.078" cy="93.438" r="9.308" fill="#a7bbc1"/><circle cx="95.078" cy="90.272" r="9.308" fill="#fff"/><path d="M88.497 96.854c-3.635-3.634-3.635-9.527 0-13.164a9.311 9.311 0 0 1 13.163 0" fill="#d8e5ea"/><path d="M95.078 101.08a10.733 10.733 0 0 1-7.642-3.166 10.732 10.732 0 0 1-3.166-7.642c0-2.887 1.125-5.601 3.166-7.644 4.215-4.212 11.07-4.211 15.284 0a10.74 10.74 0 0 1 3.166 7.644c0 2.887-1.125 5.601-3.166 7.642a10.733 10.733 0 0 1-7.642 3.166zm0-18.611c-2 0-3.999.761-5.521 2.282a7.76 7.76 0 0 0-2.287 5.522c0 2.085.813 4.046 2.287 5.52 1.475 1.475 3.436 2.287 5.521 2.287s4.046-.812 5.521-2.287c1.475-1.475 2.287-3.435 2.287-5.521s-.812-4.047-2.287-5.522a7.787 7.787 0 0 0-5.521-2.281z" fill="#33363a"/></g></svg>