<svg xmlns="http://www.w3.org/2000/svg" viewBox="0 0 126.443 126.443"><path d="M63.222 23.336a3 3 0 0 1-3-3V3a3 3 0 1 1 6 0v17.336a3 3 0 0 1-3 3z" fill="#33363a"/><path d="M60.044 26.301a2.996 2.996 0 0 1-2.497-1.333l-9.636-14.416a3 3 0 1 1 4.988-3.334l9.636 14.416a3 3 0 0 1-2.491 4.667zM66.399 26.301a3 3 0 0 1-2.491-4.667l9.636-14.416a2.999 2.999 0 1 1 4.988 3.334l-9.636 14.416a2.996 2.996 0 0 1-2.497 1.333z" fill="#33363a"/><path d="M112.431 69.51c0 20.676-22.032 37.441-49.209 37.441-27.178 0-49.209-16.766-49.209-37.441 0-20.68 22.031-45.459 49.209-45.459 27.176 0 49.209 24.779 49.209 45.459z" fill="#fff800"/><path d="M112.431 69.51c0 20.676-22.032 37.441-49.209 37.441-27.178 0-49.209-16.766-49.209-37.441 0-20.68 22.031-34.928 49.209-34.928 27.176 0 49.209 14.248 49.209 34.928z" fill="#ffd400"/><path d="M73.701 58.367c0 1.395-4.691 1.645-10.479 1.645s-10.479-.25-10.479-1.645c0-1.393 4.691-5.035 10.479-5.035s10.479 3.643 10.479 5.035z" fill="#fff800"/><path d="M112.431 69.51c0 20.676-22.032 37.441-49.209 37.441-27.178 0-49.209-16.766-49.209-37.441 0-20.682 6.261 18.34 49.209 18.34s49.209-39.022 49.209-18.34z" fill="#ffb000"/><path d="M63.222 108.451c-27.961 0-50.709-17.469-50.709-38.941 0-21.27 22.619-46.959 50.709-46.959s50.709 25.689 50.709 46.959c0 21.472-22.748 38.941-50.709 38.941zm0-82.9c-26.428 0-47.709 24.048-47.709 43.959 0 19.818 21.402 35.941 47.709 35.941s47.709-16.123 47.709-35.941c0-19.911-21.282-43.959-47.709-43.959z" fill="#33363a"/><path d="M47.06 60.822a1.5 1.5 0 0 1-1.5-1.5c0-.87-2.487-2.469-6.552-2.469-4.063 0-6.551 1.599-6.551 2.469a1.5 1.5 0 0 1-3 0c0-3.118 4.105-5.469 9.551-5.469s9.552 2.351 9.552 5.469a1.5 1.5 0 0 1-1.5 1.5zM95.486 60.822a1.5 1.5 0 0 1-1.5-1.5c0-.87-2.487-2.469-6.551-2.469s-6.552 1.599-6.552 2.469a1.5 1.5 0 0 1-3 0c0-3.118 4.106-5.469 9.552-5.469s9.551 2.351 9.551 5.469a1.5 1.5 0 0 1-1.5 1.5z" fill="#33363a"/><path d="M102.636 101.758c0-12.697-11.573-16.83-20.176-23.713-14.393-12.383-9.663-20.273-18.641-20.889v-.043c-.209 0-.401.008-.598.014-.196-.006-.389-.014-.598-.014v.043c-8.978.615-4.248 8.506-18.641 20.889-8.603 6.883-20.176 11.016-20.176 23.713 0 20.506 20.319 22.297 38.816 23.145v.041c.198 0 .398-.016.598-.02.199.004.399.02.598.02v-.041c18.498-.848 38.818-2.639 38.818-23.145z" fill="#fff4c7"/><path d="M102.051 101.914C99.604 90.207 89.918 89.412 82.46 83.445c-14.393-12.383-9.663-20.272-18.641-20.889v-.043c-.209 0-.401.01-.598.016-.196-.006-.389-.016-.598-.016v.043c-8.978.617-4.248 8.506-18.641 20.889-7.458 5.967-17.144 6.762-19.591 18.469 3.435 15.287 21.568 16.822 38.231 17.588v.041c.198 0 .398-.016.598-.021.199.006.399.021.598.021v-.041c16.664-.766 34.798-2.301 38.233-17.588z" fill="#e0d5a4"/><path d="M63.819 126.443c-.136 0-.271-.006-.408-.012l-.219-.008-.16.008c-.282.013-.568.027-.824-.047-16.027-.735-39.9-1.992-39.9-24.627 0-10.637 7.495-15.701 14.743-20.599 2.02-1.364 4.107-2.774 5.995-4.285 6.861-5.905 9.193-10.729 10.896-14.253 1.74-3.601 3.123-6.462 8.226-6.933.31-.104.664-.075.984-.064l.114.004.024-.004c.327-.011.688-.038 1.003.065 5.087.477 6.469 3.335 8.207 6.932 1.703 3.523 4.035 8.348 10.938 14.287 1.847 1.477 3.935 2.887 5.954 4.251 7.248 4.897 14.743 9.962 14.743 20.599 0 22.64-23.886 23.892-39.913 24.628a1.407 1.407 0 0 1-.403.058zm-.627-3.019l.325.01c.076-.016.153-.026.233-.029 20.454-.938 37.385-3.214 37.385-21.646 0-9.043-6.52-13.448-13.423-18.112-2.068-1.397-4.207-2.843-6.19-4.43-7.416-6.38-10.007-11.742-11.722-15.29-1.717-3.553-2.428-5.023-6.083-5.274a1.579 1.579 0 0 1-.229-.033l-.102.003-.12.004-.21-.004-.105-.003a1.386 1.386 0 0 1-.225.033c-3.655.251-4.366 1.722-6.083 5.274-1.715 3.548-4.307 8.91-11.682 15.255-2.024 1.621-4.163 3.066-6.231 4.464-6.903 4.664-13.423 9.069-13.423 18.112 0 18.433 16.931 20.709 37.385 21.646.081.003.16.014.237.029l.263-.009z" fill="#33363a"/><path d="M59.077 76.213c-.573 0-1.12-.33-1.37-.887l-1.102-2.457a1.5 1.5 0 1 1 2.738-1.226l1.102 2.457a1.5 1.5 0 0 1-1.368 2.113zM67.366 76.213c-.205 0-.413-.042-.612-.131-.756-.339-1.095-1.227-.756-1.982l1.102-2.457c.34-.756 1.227-1.093 1.982-.756.756.339 1.095 1.227.756 1.982l-1.102 2.457c-.25.557-.797.887-1.37.887z" fill="#33363a"/></svg>