<svg xmlns="http://www.w3.org/2000/svg" viewBox="0 0 127.752 127.752"><path d="M122.352 65.614a4.68 4.68 0 0 1-4.679 4.68H88.435a4.68 4.68 0 0 1-4.679-4.68v-2.033a4.68 4.68 0 0 1 4.679-4.679h29.238a4.68 4.68 0 0 1 4.679 4.679v2.033z" fill="#fc70b0"/><path d="M88.435 58.903a4.68 4.68 0 0 0-4.306 2.849 4.68 4.68 0 0 0 4.306 2.846h29.238a4.677 4.677 0 0 0 4.305-2.846 4.678 4.678 0 0 0-4.305-2.849H88.435z" fill="#ffa9d4"/><path d="M117.673 71.794H88.435a6.186 6.186 0 0 1-6.179-6.18v-2.033a6.185 6.185 0 0 1 6.179-6.179h29.238a6.186 6.186 0 0 1 6.179 6.179v2.033a6.186 6.186 0 0 1-6.179 6.18zM88.435 60.403a3.182 3.182 0 0 0-3.179 3.179v2.033a3.183 3.183 0 0 0 3.179 3.18h29.238a3.183 3.183 0 0 0 3.179-3.18v-2.033a3.182 3.182 0 0 0-3.179-3.179H88.435z" fill="#33363a"/><path d="M116.504 77.003a4.68 4.68 0 0 1-4.679 4.678H82.587a4.68 4.68 0 0 1-4.679-4.678v-2.032a4.677 4.677 0 0 1 4.679-4.677h29.238a4.677 4.677 0 0 1 4.679 4.677v2.032z" fill="#fc70b0"/><path d="M82.587 70.294a4.679 4.679 0 0 0-4.306 2.845 4.682 4.682 0 0 0 4.306 2.849h29.238a4.68 4.68 0 0 0 4.305-2.849 4.676 4.676 0 0 0-4.305-2.845H82.587z" fill="#ffa9d4"/><path d="M111.825 83.181H82.587a6.185 6.185 0 0 1-6.179-6.178v-2.032a6.184 6.184 0 0 1 6.179-6.177h29.238a6.185 6.185 0 0 1 6.179 6.177v2.032a6.186 6.186 0 0 1-6.179 6.178zM82.587 71.794a3.181 3.181 0 0 0-3.179 3.177v2.032a3.182 3.182 0 0 0 3.179 3.178h29.238a3.182 3.182 0 0 0 3.179-3.178v-2.032a3.182 3.182 0 0 0-3.179-3.177H82.587z" fill="#33363a"/><path d="M110.656 88.394a4.679 4.679 0 0 1-4.679 4.676H76.739a4.678 4.678 0 0 1-4.679-4.676V86.36a4.68 4.68 0 0 1 4.679-4.679h29.238a4.68 4.68 0 0 1 4.679 4.679v2.034z" fill="#fc70b0"/><path d="M76.739 81.681a4.679 4.679 0 0 0-4.306 2.849 4.68 4.68 0 0 0 4.306 2.847h29.238a4.678 4.678 0 0 0 4.305-2.847 4.677 4.677 0 0 0-4.305-2.849H76.739z" fill="#ffa9d4"/><path d="M105.978 94.57H76.739a6.185 6.185 0 0 1-6.179-6.176V86.36a6.185 6.185 0 0 1 6.179-6.179h29.238a6.186 6.186 0 0 1 6.179 6.179v2.034a6.184 6.184 0 0 1-6.178 6.176zM76.739 83.181a3.182 3.182 0 0 0-3.179 3.179v2.034a3.181 3.181 0 0 0 3.179 3.176h29.238a3.181 3.181 0 0 0 3.179-3.176V86.36a3.182 3.182 0 0 0-3.179-3.179H76.739z" fill="#33363a"/><path d="M125.783 38.152a5.737 5.737 0 0 0-5.27-3.469H7.235A5.735 5.735 0 0 0 1.5 40.419v46.916a5.735 5.735 0 0 0 5.735 5.734h68.912a5.732 5.732 0 0 0 4.167-1.795l44.367-46.916a5.73 5.73 0 0 0 1.102-6.206z" fill="#fc70b0"/><path d="M7.235 93.07h68.912a5.732 5.732 0 0 0 4.167-1.795l43.252-45.736a5.725 5.725 0 0 0-3.053-.887H7.235A5.734 5.734 0 0 0 1.5 50.387v36.948a5.735 5.735 0 0 0 5.735 5.735z" fill="#e2378d"/><path d="M76.147 94.57H7.235C3.246 94.57 0 91.324 0 87.335V40.419c0-3.99 3.246-7.236 7.235-7.236h113.278a7.23 7.23 0 0 1 6.647 4.375 7.221 7.221 0 0 1-1.391 7.832L81.404 92.305a7.263 7.263 0 0 1-5.257 2.265zM7.235 36.183A4.24 4.24 0 0 0 3 40.419v46.916a4.24 4.24 0 0 0 4.235 4.234h68.912a4.25 4.25 0 0 0 3.077-1.326l44.367-46.916a4.226 4.226 0 0 0 .813-4.583 4.232 4.232 0 0 0-3.892-2.562H7.235z" fill="#33363a"/><path d="M95.584 48.03a3.533 3.533 0 0 0-3.245-2.14H22.547a3.536 3.536 0 0 0-3.534 3.535v28.906c0 1.95 1.583 3.53 3.534 3.53h42.457c.971 0 1.9-.398 2.566-1.104l27.336-28.905a3.528 3.528 0 0 0 .678-3.822z" fill="#7815ce"/><path d="M22.547 81.862h42.457c.971 0 1.9-.398 2.566-1.104l26.649-28.179a3.52 3.52 0 0 0-1.88-.546H22.547a3.533 3.533 0 0 0-3.534 3.532v22.767c0 1.95 1.583 3.53 3.534 3.53z" fill="#a02ff2"/><path d="M65.004 83.362H22.547a5.038 5.038 0 0 1-5.034-5.03V49.426a5.04 5.04 0 0 1 5.034-5.035h69.792a5.028 5.028 0 0 1 4.623 3.047 5.02 5.02 0 0 1-.966 5.446L68.66 81.789a5.047 5.047 0 0 1-3.656 1.573zM22.547 47.391a2.037 2.037 0 0 0-2.034 2.035v28.906c0 1.12.912 2.03 2.034 2.03h42.457c.558 0 1.096-.231 1.476-.634l27.337-28.907c.559-.59.712-1.453.391-2.197l-.001-.002a2.031 2.031 0 0 0-1.867-1.232H22.547z" fill="#33363a"/><path d="M44.577 69.648a3.778 3.778 0 0 1-3.778 3.777h-8.816a3.779 3.779 0 0 1-3.779-3.777V60.83a3.777 3.777 0 0 1 3.779-3.777h8.816a3.777 3.777 0 0 1 3.778 3.777v8.818z" fill="#7815ce"/><path d="M78.006 58.765H59.385c-.397 0-.779.158-1.061.439l-7.172 7.168h-5.075V61.55h4.228c.397 0 .779-.158 1.061-.439l5.871-5.873h14.824a1.5 1.5 0 1 0 0-3H56.615c-.397 0-.779.158-1.061.439l-5.871 5.873h-4.146c-.854-1.766-2.649-2.997-4.739-2.997h-8.816a5.284 5.284 0 0 0-5.279 5.277v8.817a5.284 5.284 0 0 0 5.279 5.277h8.816a5.284 5.284 0 0 0 5.278-5.277v-.275h5.696c.397 0 .779-.158 1.061-.439l7.172-7.168h18a1.5 1.5 0 0 0 .001-3zM43.077 69.648a2.28 2.28 0 0 1-2.278 2.277h-8.816a2.28 2.28 0 0 1-2.279-2.277V60.83a2.28 2.28 0 0 1 2.279-2.277h8.816a2.28 2.28 0 0 1 2.278 2.277v8.818z" fill="#33363a"/><g><path d="M68.65 68.446h-5.459a1.5 1.5 0 1 1 0-3h5.459a1.5 1.5 0 1 1 0 3z" fill="#33363a"/></g><g><path d="M64.166 73.804h-5.457a1.5 1.5 0 1 1 0-3h5.457a1.5 1.5 0 1 1 0 3z" fill="#33363a"/></g></svg>