<svg xmlns="http://www.w3.org/2000/svg" viewBox="0 0 127.9 127.9"><path fill="#adb8bc" d="M29.854 23.846h68.193v91.309H29.854z"/><path fill="#93a0a3" d="M50.152 23.846h27.596v91.309H50.152z"/><path fill="#ff8b00" d="M29.854 106.668h68.193v8.486H29.854z"/><path fill="#ffb000" d="M29.854 106.668h68.193v4.243H29.854z"/><path fill="#ebf4f7" d="M29.854 115.154h68.193l-8.67 11.246H38.522zM98.047 23.992H29.854L38.522 1.5h50.855z"/><path fill="#d8e5ea" d="M50.152 115.154h27.596L74.24 126.4H53.66zM77.748 23.992H50.152L53.66 1.5h20.58z"/><path d="M99.26 22.97L90.776.96A1.499 1.499 0 0 0 89.377 0H38.521c-.62 0-1.177.382-1.399.96L28.64 22.97a1.49 1.49 0 0 0-.286.875v91.308c0 .032.007.062.01.094a1.43 1.43 0 0 0 .084.411c.007.019.01.039.018.058a1.5 1.5 0 0 0 .182.322c.007.01.01.022.018.031l8.668 11.246a1.5 1.5 0 0 0 1.188.584h50.855c.465 0 .904-.216 1.188-.584l8.67-11.246c.007-.009.01-.02.017-.029.074-.1.138-.208.185-.326.007-.017.01-.034.016-.052a1.48 1.48 0 0 0 .085-.415c.002-.032.01-.062.01-.095V23.846a1.494 1.494 0 0 0-.288-.876zm-2.713 2.522v79.676H31.354V25.492h65.193zm-65.193 82.676h65.193v5.486H31.354v-5.486zM39.551 3h48.797l7.457 19.346h-63.71L39.551 3zM88.64 124.9H39.259l-6.355-8.246h62.093L88.64 124.9z" fill="#33363a"/><path d="M77.328 12.709a4 4 0 0 1-4 4H54.572a4 4 0 0 1-4-4v-.75a4 4 0 0 1 4-4h18.756a4 4 0 0 1 4 4v.75z" fill="#ff8b00"/><path d="M73.328 18.209H54.572a5.506 5.506 0 0 1-5.5-5.5v-.75c0-3.033 2.468-5.5 5.5-5.5h18.756c3.032 0 5.5 2.467 5.5 5.5v.75c0 3.033-2.468 5.5-5.5 5.5zm-18.756-8.75a2.503 2.503 0 0 0-2.5 2.5v.75c0 1.378 1.121 2.5 2.5 2.5h18.756c1.379 0 2.5-1.122 2.5-2.5v-.75c0-1.378-1.121-2.5-2.5-2.5H54.572z" fill="#33363a"/><path d="M36.367 81.853a1.5 1.5 0 0 1-1.5-1.5V38.834a1.5 1.5 0 1 1 3 0v41.519a1.5 1.5 0 0 1-1.5 1.5zM36.367 34.334a1.5 1.5 0 0 1-1.5-1.5v-2.853a1.5 1.5 0 1 1 3 0v2.853a1.5 1.5 0 0 1-1.5 1.5zM36.367 90.334a1.5 1.5 0 0 1-1.5-1.5v-2.853a1.5 1.5 0 1 1 3 0v2.853a1.5 1.5 0 0 1-1.5 1.5zM36.367 99.084a1.5 1.5 0 0 1-1.5-1.5v-2.853a1.5 1.5 0 1 1 3 0v2.853a1.5 1.5 0 0 1-1.5 1.5z" fill="#fdfeff"/><path d="M51.867 122.277h-1.166a1.5 1.5 0 1 1 0-3h1.166a1.5 1.5 0 1 1 0 3zM58.201 122.277h-1.168a1.5 1.5 0 1 1 0-3h1.168a1.5 1.5 0 1 1 0 3zM64.533 122.277h-1.166a1.5 1.5 0 1 1 0-3h1.166a1.5 1.5 0 1 1 0 3zM70.867 122.277h-1.168a1.5 1.5 0 1 1 0-3h1.168a1.5 1.5 0 1 1 0 3zM77.199 122.277h-1.166a1.5 1.5 0 1 1 0-3h1.166a1.5 1.5 0 1 1 0 3z" fill="#33363a"/><g><path d="M85.791 85.41c0 11.739-9.518 21.258-21.258 21.258S43.277 97.149 43.277 85.41c0-11.74 9.516-33.32 21.256-33.32s21.258 21.58 21.258 33.32z" fill="#fffffa"/><path d="M64.533 52.09v54.578c11.74 0 21.258-9.519 21.258-21.258 0-11.74-9.518-33.32-21.258-33.32z" fill="#f9f9e4"/><path d="M51.361 97.47c1.961 2.144 4.121 3.194 2.973 4.244-1.148 1.051-3.67.165-5.631-1.979-1.961-2.145-2.619-4.734-1.471-5.785 1.149-1.052 2.168 1.374 4.129 3.52z" fill="#7bc67b"/><path d="M77.705 97.47c-1.961 2.144-4.121 3.194-2.973 4.244 1.148 1.051 3.67.165 5.631-1.979 1.961-2.145 2.621-4.734 1.471-5.785-1.148-1.052-2.168 1.374-4.129 3.52z" fill="#54af79"/><path d="M64.533 108.168c-12.548 0-22.756-10.209-22.756-22.758 0-11.919 9.609-34.82 22.756-34.82s22.758 22.901 22.758 34.82c0 12.549-10.209 22.758-22.758 22.758zm0-54.578c-10.812 0-19.756 21.068-19.756 31.82 0 10.895 8.862 19.758 19.756 19.758 10.895 0 19.758-8.863 19.758-19.758 0-10.752-8.945-31.82-19.758-31.82z" fill="#33363a"/><path d="M77.02 90.914c-2.766 5.99-8.416 9.273-12.617 7.334-4.203-1.939-2.25-5.468.516-11.459 2.766-5.99 5.297-12.176 9.5-10.234 4.2 1.939 5.364 8.367 2.601 14.359z" fill="#7bc67b"/><path d="M74.418 76.555c-4.203-1.941-6.734 4.244-9.5 10.234-.131.283-.258.559-.385.829v10.685c4.188 1.814 9.748-1.46 12.486-7.389 2.764-5.992 1.6-12.42-2.601-14.359z" fill="#54af79"/><circle cx="52.31" cy="68.439" r="1.351" fill="#7bc67b"/><circle cx="57.184" cy="61.98" r=".529" fill="#7bc67b"/><circle cx="54.424" cy="76.191" r=".764" fill="#7bc67b"/><circle cx="66.324" cy="101.393" r=".764" fill="#54af79"/><circle cx="62.732" cy="100.629" r=".764" fill="#7bc67b"/><circle cx="73.601" cy="64.658" r="1.562" fill="#54af79"/><circle cx="78.029" cy="71.316" r="1.527" fill="#54af79"/><circle cx="56.296" cy="91.785" r="1.526" fill="#7bc67b"/><path d="M66.178 69.387c0 3.578 1.543 6.479-2.035 6.479a6.48 6.48 0 1 1 0-12.959c3.578-.001 2.035 2.902 2.035 6.48z" fill="#7bc67b"/><g><path d="M64.533 75.852c3.068-.213 1.645-3.025 1.645-6.465 0-3.439 1.424-6.253-1.645-6.467v12.932z" fill="#54af79"/></g></g></svg>