<svg height="512pt" viewBox="-3 0 511 512" width="512pt" xmlns="http://www.w3.org/2000/svg"><path d="M444.422 222.973c0 7.804-.41 15.507-1.23 23.109-4.833 45.266-23.696 86.352-52.153 118.8-34.148 38.938-82.105 65.47-136.223 71.907-7.07.848-14.242 1.32-21.5 1.465l-5.218 8.176a9.56 9.56 0 0 1-9.086 4.363l-41.934-4.55a9.527 9.527 0 0 1-7.933-6.208l-4.211-11.45a213.166 213.166 0 0 1-29.028-11.433 215.302 215.302 0 0 1-53.765-36.75 216.245 216.245 0 0 1-41.942-53.93l-10.125-2.44a9.554 9.554 0 0 1-6.765-6.083L8.672 276.785a9.543 9.543 0 0 1 1.41-8.988l6.66-8.75a223.693 223.693 0 0 1-1.808-13.082 217.099 217.099 0 0 1-1.215-22.992c0-7.774.41-15.461 1.215-23.024 4.921-46.195 24.433-88.039 53.863-120.804 39.418-43.903 96.629-71.52 160.277-71.52 35.617 0 69.227 8.648 98.817 23.969a223.24 223.24 0 0 1 8.347 4.55l20.2-4.246a9.563 9.563 0 0 1 8.722 2.586l62.73 62.739a9.567 9.567 0 0 1 2.594 8.722l-5.699 27.063a212.852 212.852 0 0 1 13.762 39.828 214.166 214.166 0 0 1 4.672 27.227 218.642 218.642 0 0 1 1.203 22.91zm0 0" fill="#fda736"/><path d="M444.422 222.973c0 7.804-.41 15.507-1.23 23.109-4.833 45.266-23.696 86.352-52.153 118.8-34.148 38.938-82.105 65.47-136.223 71.907-7.07.848-14.242 1.32-21.5 1.465l-5.218 8.176a9.56 9.56 0 0 1-9.086 4.363l-41.934-4.55a9.527 9.527 0 0 1-7.933-6.208l-4.211-11.45a213.166 213.166 0 0 1-29.028-11.433c42.067-132.277 159.977-230.742 302.637-244.316a213.6 213.6 0 0 1 4.676 27.227 218.642 218.642 0 0 1 1.203 22.91zm0 0" fill="#6163aa"/><path d="M327.895 31.59H244.46a81.158 81.158 0 0 0-57.402 23.777 81.194 81.194 0 0 1-57.402 23.777h-60.86C108.223 35.243 165.422 7.626 229.07 7.626c35.625 0 69.23 8.652 98.825 23.965zm0 0" fill="#fed370"/><path d="M444.422 222.973c0 7.804-.41 15.507-1.23 23.109-9.337-.012-25.524-.027-46.356-.055-16.899-.02-33.586 4.243-47.809 12.797-16.285 9.793-39.168 15.883-64.52 15.883-19.335 0-37.234-3.55-51.866-9.578-4.602-1.89-8.883-4.024-12.782-6.375-14.222-8.59-30.918-12.871-47.836-12.871-67.207-.024-127.972-.016-157.09.082-.8-7.555-1.21-15.23-1.21-22.992 0-7.774.41-15.461 1.21-23.024 29.165-.097 90.036-.11 157.348-.082 16.875 0 33.531-4.234 47.746-12.781 16.278-9.774 39.141-15.856 64.477-15.856 25.383 0 48.3 6.11 64.586 15.93a86.123 86.123 0 0 0 6.894 3.727c12.59 6.082 26.692 9.105 40.93 9.133 20.805.02 36.977.035 46.305.046a218.511 218.511 0 0 1 1.203 22.907zm0 0" fill="#fd8f07"/><path d="M444.422 222.973c0 7.804-.41 15.507-1.23 23.109-9.337-.012-25.524-.027-46.356-.055-16.899-.02-33.586 4.243-47.809 12.797-16.285 9.793-39.168 15.883-64.52 15.883-19.335 0-37.234-3.55-51.866-9.578 35.214-32.594 77.086-58.102 123.343-74.242 12.59 6.082 26.692 9.105 40.934 9.133 20.805.02 36.973.035 46.3.042a218.642 218.642 0 0 1 1.204 22.91zm0 0M391.04 364.887c-34.145 38.937-82.106 65.465-136.224 71.902-3.304-8.605-5.109-17.957-5.109-27.73 0-42.836 34.73-77.57 77.566-77.57 26.434 0 49.77 13.222 63.766 33.398zm0 0" fill="#4e5093"/><path d="M278.172 410.969c0 7.277.996 14.332 2.887 21.02a215.238 215.238 0 0 1-26.246 4.8c-3.305-8.61-5.106-17.965-5.106-27.73 0-42.836 34.734-77.57 77.563-77.57 6.687 0 13.183.843 19.375 2.437-38.547 4.504-68.473 37.285-68.473 77.043zm0 0" fill="#383c7c"/><path d="M327.277 222.973c0 11.488-18.64 20.797-41.62 20.797-8.528 0-16.446-1.274-23.036-3.477-11.203-3.727-18.586-10.086-18.586-17.316 0-11.497 18.64-20.809 41.621-20.809 11.434 0 21.778 2.3 29.305 6.031 7.605 3.77 12.316 8.996 12.316 14.774zm0 0" fill="#fed370"/><path d="M327.277 222.973c0 11.488-18.64 20.797-41.62 20.797-8.528 0-16.446-1.274-23.036-3.477a352.31 352.31 0 0 1 52.34-32.094c7.605 3.77 12.316 8.996 12.316 14.774zm0 0" fill="#898ec9"/><path d="M196.816 333.395c0 14.253-11.546 25.8-25.793 25.8-3.449 0-6.738-.68-9.746-1.906-9.41-3.844-16.043-13.094-16.043-23.894 0-14.243 11.547-25.79 25.79-25.79a25.645 25.645 0 0 1 17.453 6.813 25.67 25.67 0 0 1 8.34 18.977zm0 0" fill="#fed370"/><path d="M196.816 333.395c0 14.253-11.546 25.8-25.793 25.8-3.449 0-6.738-.68-9.746-1.906a351.65 351.65 0 0 1 27.2-42.871 25.67 25.67 0 0 1 8.34 18.977zm0 0" fill="#898ec9"/><path d="M117.594 194.465c0 9.992-8.098 18.09-18.09 18.09-9.992 0-18.09-8.098-18.09-18.09 0-9.992 8.098-18.09 18.09-18.09 9.992 0 18.09 8.098 18.09 18.09zm0 0" fill="#fed370"/><path d="M469.387 157.629c-.692.023-1.38.05-2.07.078-4.208.168-7.485 3.711-7.317 7.918a7.627 7.627 0 0 0 7.613 7.324c.102 0 .203-.004.309-.008.664-.027 1.328-.05 1.988-.074a7.622 7.622 0 0 0 7.36-7.879c-.149-4.21-3.692-7.504-7.883-7.36zm0 0M497.39 157.703c-.69-.027-1.382-.05-2.077-.074-4.2-.133-7.735 3.152-7.875 7.36a7.628 7.628 0 0 0 7.363 7.878c.66.02 1.324.047 1.988.07.102.004.203.008.305.008a7.624 7.624 0 0 0 .297-15.242zm0 0M126.691 440.734a7.624 7.624 0 0 0-9.152 5.692l-.465 2.015a7.624 7.624 0 1 0 14.864 3.395l.449-1.95a7.62 7.62 0 0 0-5.696-9.152zm0 0M117.121 494.746a7.622 7.622 0 0 0-8.21 6.988c-.06.692-.11 1.383-.165 2.075A7.627 7.627 0 0 0 116.36 512c3.95 0 7.293-3.05 7.594-7.055l.152-1.984a7.624 7.624 0 0 0-6.984-8.215zm0 0M120.895 467.563c-4.16-.653-8.06 2.199-8.707 6.359l-.313 2.043c-.629 4.164 2.238 8.05 6.398 8.676.387.058.77.09 1.149.09 3.707 0 6.96-2.711 7.527-6.489l.305-1.976a7.62 7.62 0 0 0-6.36-8.703zm0 0M309.348 56.063h-.032a7.624 7.624 0 0 0-7.62 7.597 7.625 7.625 0 0 0 7.593 7.653h.16a7.623 7.623 0 0 0 7.621-7.594c.02-4.211-3.383-7.637-7.593-7.657zm0 0M398.031 115.629h.13a7.622 7.622 0 0 0 7.62-7.625c0-4.211-3.41-7.621-7.62-7.621h-.13a7.62 7.62 0 0 0-7.625 7.62 7.625 7.625 0 0 0 7.625 7.626zm0 0M31.336 270.484h-.129a7.625 7.625 0 0 0-7.625 7.625 7.624 7.624 0 0 0 7.625 7.621h.129a7.624 7.624 0 0 0 7.625-7.62 7.625 7.625 0 0 0-7.625-7.626zm0 0M291.422 63.457h-.031a7.623 7.623 0 0 0-7.621 7.594c-.016 4.21 3.382 7.64 7.593 7.656h.16a7.623 7.623 0 0 0 7.622-7.594 7.623 7.623 0 0 0-7.594-7.656zm0 0M131.547 285.68h-.16a7.629 7.629 0 0 0-7.625 7.593 7.625 7.625 0 0 0 7.597 7.653h.157c4.199 0 7.609-3.39 7.625-7.594a7.622 7.622 0 0 0-7.594-7.652zm0 0"/><path d="M446.543 173.516a7.62 7.62 0 0 0 3.316-7.141 7.615 7.615 0 0 0-6.953-6.773 221.805 221.805 0 0 0-10.144-27.47l5.183-24.62a17.114 17.114 0 0 0-4.66-15.684l-26.797-26.797a7.625 7.625 0 0 0-10.781 10.781l26.797 26.797c.46.461.656 1.118.523 1.758l-5.011 23.797h-141.63c-8.144 0-15.796-3.172-21.554-8.93-8.637-8.636-20.125-13.394-32.34-13.394H57.512A208.128 208.128 0 0 1 72.25 86.766h57.414a88.303 88.303 0 0 0 33.98-6.762 88.38 88.38 0 0 0 28.813-19.25c13.883-13.89 32.352-21.543 52.008-21.543H326c2.156 1.14 4.313 2.32 6.441 3.543a7.63 7.63 0 0 0 5.371.851l20.2-4.253a1.927 1.927 0 0 1 1.761.523l12.497 12.496a7.618 7.618 0 0 0 10.78 0 7.625 7.625 0 0 0 0-10.781l-12.495-12.496a17.124 17.124 0 0 0-15.688-4.66l-17.375 3.656a225.504 225.504 0 0 0-6.09-3.274C300.02 8.582 264.637 0 229.078 0c-63.207 0-123.691 26.992-165.95 74.05-16.472 18.345-29.702 39.118-39.323 61.74a7.618 7.618 0 0 0 4.03 9.995 7.598 7.598 0 0 0 2.981.613 7.624 7.624 0 0 0 7.02-4.644 207.742 207.742 0 0 1 10.187-20.664h174.47c8.144 0 15.796 3.172 21.554 8.93 8.637 8.636 20.121 13.394 32.34 13.394h144.629a206.116 206.116 0 0 1 7.93 22.805 358.943 358.943 0 0 0-72.384 16.394 74.3 74.3 0 0 1-3.53-1.984c-18.204-10.977-42.536-17.02-68.52-17.02-25.914 0-50.207 6.016-68.407 16.946-12.734 7.648-27.886 11.691-43.816 11.691-16.93-.008-32.644-.012-47.168-.012-1.137-13.14-12.187-23.488-25.613-23.488-13.43 0-24.48 10.352-25.613 23.496-21.032.008-37.817.028-50.286.055a206.518 206.518 0 0 1 4.043-20.285 7.627 7.627 0 0 0-5.53-9.258c-4.079-1.035-8.227 1.445-9.255 5.531a223.378 223.378 0 0 0-5.504 30.856 227 227 0 0 0-1.258 23.828c0 7.953.426 15.957 1.258 23.797.356 3.34.805 6.777 1.34 10.261l-4.68 6.141A17.109 17.109 0 0 0 1.5 279.336l14.633 41.16a17.105 17.105 0 0 0 12.16 10.945l6.89 1.66a223.32 223.32 0 0 0 41.762 52.868c14.328 13.383 30.485 24.847 47.809 34.043l-.426 1.367c-1.246 4.02 1.008 8.289 5.027 9.535.75.234 1.512.344 2.258.344 2.957 0 5.7-1.746 6.938-4.52a220.236 220.236 0 0 0 20.515 7.969l2.926 7.961c2.266 6.168 7.735 10.441 14.27 11.152l41.937 4.547c.633.067 1.266.102 1.89.102 5.833 0 11.247-2.934 14.438-7.942l3.047-4.77c6.184-.226 12.274-.698 18.149-1.402 54.554-6.488 104.648-32.93 141.05-74.445a224.347 224.347 0 0 0 22.832-31.082 7.625 7.625 0 1 0-13.02-7.937 208.728 208.728 0 0 1-15.35 21.894c-16.079-18.262-39.337-28.922-63.954-28.922-46.976 0-85.195 38.215-85.195 85.192 0 7.164.902 14.203 2.64 21.035-3.796.277-7.652.465-11.55.539a7.626 7.626 0 0 0-6.281 3.523l-5.22 8.176a1.909 1.909 0 0 1-1.831.879l-41.938-4.547a1.912 1.912 0 0 1-1.601-1.25l-4.207-11.45a7.63 7.63 0 0 0-4.887-4.651 203.879 203.879 0 0 1-21.926-8.246 343.669 343.669 0 0 1 19.848-46.782 33.36 33.36 0 0 0 5.898.532c18.426 0 33.414-14.989 33.414-33.415 0-7.207-2.3-13.882-6.195-19.343a346.285 346.285 0 0 1 36.102-40.07c14.937 5.437 32.152 8.343 50.16 8.343 25.941 0 50.25-6.027 68.445-16.976 12.738-7.657 27.871-11.7 43.77-11.7h.109l37.703.04a206.528 206.528 0 0 1-12.805 47.062 7.63 7.63 0 0 0 4.211 9.93 7.624 7.624 0 0 0 9.926-4.215 221.58 221.58 0 0 0 14.91-59.582c.84-7.86 1.266-15.907 1.266-23.922 0-7.883-.418-15.856-1.246-23.707a222.31 222.31 0 0 0-4.258-25.742zM288.898 23.969h-44.433c-23.73 0-46.031 9.238-62.79 26.008a73.24 73.24 0 0 1-23.866 15.945 73.18 73.18 0 0 1-28.145 5.598H86.938c38.343-35.946 89.214-56.274 142.14-56.274 20.586 0 40.594 2.934 59.82 8.723zm38.38 315.144c20.913 0 40.636 9.375 53.867 25.34-32.114 34.516-74.7 57-121.098 63.93a69.71 69.71 0 0 1-2.711-19.328c0-38.567 31.375-69.942 69.941-69.942zm105.3-157.98a206.935 206.935 0 0 1 1.996 11.297l-37.648-.04a91.336 91.336 0 0 1-15.7-1.37 344.167 344.167 0 0 1 51.352-9.887zm-208.625 12.496c15.637-9.387 37.707-14.774 60.559-14.774 19.406 0 38.222 3.895 53.027 10.81a358.228 358.228 0 0 0-22.73 10.1c-8.055-3.308-18.059-5.222-29.149-5.222-28.074 0-49.242 12.223-49.242 28.43 0 7.351 4.367 13.875 11.746 18.816-1.16.926-2.324 1.844-3.473 2.781a365.359 365.359 0 0 0-13.5 11.575c-2.586-1.22-5.062-2.516-7.382-3.918-15.133-9.137-33.04-13.965-51.778-13.965-72.074-.028-122.468-.008-150.105.058a211.763 211.763 0 0 1-.574-15.347c0-5.141.203-10.301.574-15.422 13.273-.031 31.789-.055 55.422-.063 4.476 7.586 12.73 12.692 22.16 12.692s17.687-5.11 22.164-12.7c15.473.004 32.34.008 50.613.016 18.703 0 36.57-4.797 51.668-13.867zm95.703 29.344c0 4.472-12 13.175-33.996 13.175-1.27 0-2.5-.03-3.703-.086a344.509 344.509 0 0 1 32.77-19.207c3.25 2.18 4.93 4.442 4.93 6.118zm-67.988 0c0-4.473 11.996-13.18 33.992-13.18 3.246 0 6.27.191 9.074.531a360.277 360.277 0 0 0-33.285 21.387c-6.422-2.82-9.781-6.375-9.781-8.738zm-152.16-38.977c5.773 0 10.469 4.695 10.469 10.469 0 5.77-4.696 10.465-10.47 10.465-5.769 0-10.464-4.696-10.464-10.465 0-5.774 4.695-10.469 10.465-10.469zm31.98 222.328c-15.984-8.531-30.902-19.133-44.136-31.496a208.583 208.583 0 0 1-3.422-3.273h34.351a7.625 7.625 0 0 0 7.625-7.625 7.624 7.624 0 0 0-7.625-7.621H69.805a208.612 208.612 0 0 1-8.414-10.747h78.527a33.569 33.569 0 0 0 11.187 14.645 358.678 358.678 0 0 0-19.617 46.117zm21.375-72.926c0-10.015 8.149-18.168 18.168-18.168 2.297 0 4.485.446 6.508 1.227a358.946 358.946 0 0 0-19.05 30.059c-3.458-3.313-5.626-7.961-5.626-13.118zm36.336 0c0 9.27-6.98 16.926-15.96 18.02 4.687-8.102 9.71-16 15.042-23.691.586 1.789.918 3.691.918 5.671zm-2.402-29.453a33.227 33.227 0 0 0-15.766-3.96c-17.386 0-31.703 13.343-33.27 30.327H53.306c-.664 0-1.309.094-1.926.254a212.014 212.014 0 0 1-4.488-7.765 7.644 7.644 0 0 0-4.899-3.742l-10.129-2.438a1.921 1.921 0 0 1-1.367-1.23l-14.633-41.164a1.915 1.915 0 0 1 .285-1.813l6.668-8.746a7.628 7.628 0 0 0 1.454-5.89 213.405 213.405 0 0 1-.665-4.216c27.95-.062 77.758-.082 148.422-.05 15.965 0 31.145 4.07 43.903 11.77 1.12.679 2.27 1.335 3.437 1.976a362.126 362.126 0 0 0-32.57 36.687zm209.93-65.539c-18.664 0-36.516 4.801-51.625 13.883-15.633 9.402-37.715 14.797-60.59 14.797-12.946 0-25.637-1.73-37.051-4.934a347.424 347.424 0 0 1 6.863-5.761 343.453 343.453 0 0 1 9.766-7.668c6.445 1.722 13.738 2.675 21.57 2.675 28.074 0 49.242-12.222 49.242-28.425 0-4.871-1.922-9.38-5.359-13.305a342.949 342.949 0 0 1 26.07-10.574c12.649 5.59 26.715 8.527 41.297 8.547l39.32.039c.372 5.093.57 10.21.57 15.289 0 5.172-.202 10.351-.581 15.476l-39.367-.039zm0 0"/></svg>