<svg height="512pt" viewBox="0 0 512 512" width="512pt" xmlns="http://www.w3.org/2000/svg"><path d="M92.988 419.012c-20.41-20.41-25.949-51.969-15.195-86.586 8.309-26.746 25.941-54.535 49.648-78.242C201.805 179.82 482.555-11.371 502.965 9.039c20.41 20.41-172.465 302.84-245.149 375.52-23.707 23.707-51.492 41.34-78.242 49.648-34.617 10.754-66.176 5.215-86.586-15.195zm0 0" fill="#ff5c3c"/><path d="M257.813 384.555c-23.708 23.71-51.485 41.347-78.235 49.648-34.617 10.758-66.176 5.219-86.586-15.191a67.028 67.028 0 0 1-7.18-8.477c20.16 14.367 47.97 17.336 78.086 7.988 26.739-8.308 54.528-25.937 78.239-49.648C306.53 304.488 465.273 75.437 486.434 9.852c8.449-2.711 14.191-3.149 16.53-.809C523.372 29.449 330.5 311.879 257.813 384.555zm0 0" fill="#ff2e04"/><path d="M265.305 246.688c-21.114-21.114-70.77-5.688-110.91 34.453s-55.567 89.796-34.454 110.914c21.118 21.113 70.774 5.687 110.914-34.453 40.141-40.141 55.567-89.797 34.45-110.914zm0 0" fill="#fda736"/><path d="M230.86 357.602c-40.145 40.144-89.801 55.57-110.919 34.453-3.722-3.723-6.3-8.32-7.812-13.606 24.703 7.094 64.238-9.195 97.312-42.27 33.067-33.062 49.356-72.6 42.262-97.3 5.285 1.508 9.883 4.09 13.602 7.808 21.12 21.122 5.691 70.778-34.446 110.915zm0 0" fill="#fd8f07"/><path d="M264.313 145.121a7.501 7.501 0 0 0 10.457 1.77c50.566-35.922 102.91-70.301 143.605-94.32 55.11-32.532 73.238-37.106 78.55-37.54-.655 6.953-8.394 36.684-77.73 142.649a7.5 7.5 0 0 0 2.168 10.382 7.482 7.482 0 0 0 4.102 1.227 7.485 7.485 0 0 0 6.281-3.398c26.375-40.305 47.598-75.563 61.375-101.957 21.45-41.082 21.567-53.778 15.145-60.2-5.832-5.832-16.114-4.894-35.496 3.25-14.13 5.934-32.993 15.75-56.063 29.176-42.039 24.461-96.941 60.367-150.625 98.504a7.501 7.501 0 0 0-1.77 10.457zm0 0M197.512 257.555a7.5 7.5 0 0 0 2.93-10.196 7.494 7.494 0 0 0-10.192-2.93c-14.27 7.895-28.504 18.758-41.152 31.41-20.262 20.259-35.196 43.579-42.059 65.669-7.371 23.738-4.672 43.574 7.606 55.847 7.742 7.747 18.488 11.68 31.328 11.68 7.52 0 15.754-1.351 24.52-4.074 22.089-6.863 45.413-21.797 65.671-42.055 20.258-20.258 35.191-43.582 42.055-65.672 7.375-23.738 4.672-43.57-7.606-55.847-10.734-10.739-27.726-14.196-47.843-9.739a7.501 7.501 0 0 0-5.704 8.946 7.502 7.502 0 0 0 8.946 5.699c14.937-3.309 27.011-1.285 33.996 5.7 8.027 8.027 9.445 22.898 3.887 40.792-6.153 19.809-19.77 40.945-38.336 59.516-40.305 40.3-84.407 50.351-100.309 34.449-15.902-15.898-5.852-60 34.453-100.305 11.672-11.675 24.746-21.664 37.809-28.89zm0 0"/><path d="M343.313 451.2c-68.313 22.472-131.922 23-183.352 2.726 2.93.164 5.906.246 8.926.246 32.773 0 70.933-9.55 112.285-28.672 63.02-29.137 131.957-79.414 194.113-141.57a7.497 7.497 0 0 0 0-10.606 7.497 7.497 0 0 0-10.605 0c-60.942 60.938-128.348 110.149-189.801 138.563-29.668 13.715-57.399 22.261-82.285 25.668 24.449-9.66 49.133-26.297 70.527-47.692 32.875-32.875 93.332-111.883 150.442-196.597a7.498 7.498 0 0 0-2.024-10.41c-3.437-2.317-8.098-1.41-10.41 2.023-56.629 84-116.352 162.113-148.613 194.379-22.864 22.863-49.555 39.832-75.164 47.789-30.59 9.504-58.368 5.394-76.797-11.203a79.033 79.033 0 0 1-4.395-4.395c-16.601-18.43-20.707-46.207-11.203-76.8 7.953-25.602 24.926-52.297 47.79-75.16 21.405-21.41 61.386-53.844 112.69-91.438a7.494 7.494 0 0 0 4.579-9.281l-.098-.297a7.49 7.49 0 0 0-4.813-4.88 7.486 7.486 0 0 0-6.77 1.071c-52.75 38.578-94.015 72.04-116.194 94.219-21.399 21.394-38.036 46.078-47.692 70.527 3.403-24.887 11.95-52.617 25.668-82.285 28.41-61.453 77.621-128.86 138.563-189.805a7.497 7.497 0 0 0 0-10.605c-2.93-2.926-7.68-2.926-10.606 0-62.16 62.16-112.437 131.098-141.574 194.113-20.887 45.176-30.348 86.531-28.418 121.227-20.281-51.434-19.758-115.047 2.723-183.367a7.503 7.503 0 0 0-4.782-9.47A7.505 7.505 0 0 0 46.555 164C26.46 225.074 23.172 282.777 35.918 332.297c-10.234-18.727-17.441-37.09-21.082-54.238a7.5 7.5 0 1 0-14.672 3.113c9.527 44.875 41.426 97.05 87.52 143.144 46.093 46.09 98.27 77.993 143.144 87.52a7.506 7.506 0 0 0 8.895-5.781 7.497 7.497 0 0 0-5.782-8.89c-17.156-3.645-35.527-10.852-54.261-21.099 19.5 5.024 40.261 7.57 62.008 7.57 33.48 0 69.28-6.007 106.312-18.19a7.503 7.503 0 0 0 4.781-9.47 7.498 7.498 0 0 0-9.469-4.777zm0 0"/><path d="M317.977 226.637l-.082-.082a7.497 7.497 0 0 0-10.606-.063 7.497 7.497 0 0 0-.062 10.606l.078.078a7.473 7.473 0 0 0 5.336 2.23 7.501 7.501 0 0 0 5.336-12.77zm0 0M316.8 248.988a7.497 7.497 0 0 0-10.605-.031 7.497 7.497 0 0 0-.03 10.606l.077.078a7.48 7.48 0 0 0 5.32 2.214c1.91 0 3.825-.726 5.286-2.18a7.497 7.497 0 0 0 .03-10.605zm0 0M425.742 92.469a7.497 7.497 0 0 0 0-10.606l-.082-.078a7.497 7.497 0 0 0-10.605 0 7.504 7.504 0 0 0 0 10.606l.082.078a7.475 7.475 0 0 0 5.3 2.199c1.922 0 3.84-.734 5.305-2.2zm0 0M499.844 248.719a7.497 7.497 0 1 0-10.637 10.57l.078.082a7.492 7.492 0 0 0 5.32 2.211 7.497 7.497 0 0 0 5.316-12.785zm0 0M252.66 22.746a7.487 7.487 0 0 0 5.336 2.23 7.479 7.479 0 0 0 5.27-2.163 7.497 7.497 0 0 0 .066-10.606l-.078-.082a7.5 7.5 0 0 0-10.606-.063 7.497 7.497 0 0 0-.066 10.606zm0 0M72.797 129.523c-2.918-2.937-7.668-2.949-10.606-.03a7.497 7.497 0 0 0-.03 10.605l.077.078a7.48 7.48 0 0 0 5.32 2.215 7.497 7.497 0 0 0 5.316-12.785zm0 0M382.414 439.14a7.497 7.497 0 0 0-10.605 0 7.497 7.497 0 0 0 0 10.606l.078.082a7.49 7.49 0 0 0 5.304 2.195 7.47 7.47 0 0 0 5.301-2.195 7.497 7.497 0 0 0 0-10.605zm0 0M408.055 109.77a7.497 7.497 0 0 0 0-10.606 7.504 7.504 0 0 0-10.606 0l-41.504 41.508a7.497 7.497 0 0 0 5.301 12.8 7.48 7.48 0 0 0 5.305-2.195zm0 0M348.66 184.727l-25.984 25.984a7.497 7.497 0 0 0 5.304 12.8 7.47 7.47 0 0 0 5.301-2.195l25.985-25.984a7.497 7.497 0 0 0 0-10.605 7.504 7.504 0 0 0-10.606 0zm0 0M420.406 379.39a7.499 7.499 0 0 0-7.5 7.462l-.011 2.617a7.499 7.499 0 0 0 7.46 7.535h.04a7.499 7.499 0 0 0 7.5-7.461l.011-2.617a7.499 7.499 0 0 0-7.46-7.535h-.04zm0 0M420.36 406.023h-.036a7.502 7.502 0 0 0-7.5 7.465l-.011 2.617a7.5 7.5 0 0 0 7.464 7.536h.036a7.502 7.502 0 0 0 7.5-7.465l.011-2.617a7.502 7.502 0 0 0-7.465-7.536zm0 0M435.023 394.063l-2.617-.012c-4.113-.043-7.515 3.32-7.539 7.46a7.502 7.502 0 0 0 7.465 7.536l2.617.015h.04a7.501 7.501 0 0 0 .034-15zm0 0M415.848 401.516a7.5 7.5 0 0 0-7.465-7.536l-2.613-.011h-.04a7.499 7.499 0 0 0-7.496 7.465 7.5 7.5 0 0 0 7.465 7.535l2.617.011h.036a7.496 7.496 0 0 0 7.496-7.464zm0 0M467.77 412.809l-.012 2.617a7.499 7.499 0 0 0 7.46 7.535h.04a7.499 7.499 0 0 0 7.496-7.465l.012-2.617a7.5 7.5 0 0 0-7.465-7.535c-4.114-.051-7.512 3.324-7.531 7.465zm0 0M475.223 431.98h-.04a7.498 7.498 0 0 0-7.496 7.461l-.015 2.618a7.5 7.5 0 0 0 7.465 7.539h.035a7.502 7.502 0 0 0 7.5-7.465l.012-2.617a7.496 7.496 0 0 0-7.461-7.536zm0 0M489.883 420.02l-2.617-.016h-.04a7.499 7.499 0 0 0-7.496 7.465 7.499 7.499 0 0 0 7.461 7.535l2.618.012h.039a7.495 7.495 0 0 0 7.496-7.461 7.496 7.496 0 0 0-7.461-7.535zm0 0M470.71 427.473a7.502 7.502 0 0 0-7.46-7.54l-2.617-.011h-.04a7.5 7.5 0 1 0-.035 15l2.618.012h.035a7.499 7.499 0 0 0 7.5-7.461zm0 0M298.238 57.719h.04a7.499 7.499 0 0 0 7.495-7.465l.012-2.617a7.5 7.5 0 0 0-7.465-7.535h-.035c-4.125 0-7.476 3.336-7.5 7.464l-.012 2.618a7.502 7.502 0 0 0 7.465 7.535zm0 0M298.242 66.738h-.039c-4.125 0-7.476 3.336-7.5 7.465l-.012 2.617a7.5 7.5 0 0 0 7.465 7.535h.035a7.502 7.502 0 0 0 7.5-7.464l.012-2.614c.02-4.144-3.32-7.52-7.46-7.539zm0 0M302.75 62.227a7.505 7.505 0 0 0 7.46 7.539l2.618.011h.04c4.124 0 7.476-3.336 7.5-7.465a7.502 7.502 0 0 0-7.466-7.535l-2.617-.011h-.035a7.499 7.499 0 0 0-7.5 7.46zm0 0M283.578 69.684l2.617.011h.035c4.125 0 7.477-3.336 7.5-7.465a7.502 7.502 0 0 0-7.464-7.535l-2.618-.011h-.039a7.499 7.499 0 0 0-7.496 7.464 7.5 7.5 0 0 0 7.465 7.536zm0 0M79.918 72.348h.035a7.502 7.502 0 0 0 7.5-7.465l.012-2.617A7.5 7.5 0 0 0 80 54.73h-.035a7.5 7.5 0 0 0-7.5 7.465l-.012 2.618a7.502 7.502 0 0 0 7.465 7.535zm0 0M79.871 98.98a7.499 7.499 0 0 0 7.5-7.46l.012-2.618a7.499 7.499 0 0 0-7.461-7.535h-.04a7.499 7.499 0 0 0-7.5 7.461l-.01 2.617a7.499 7.499 0 0 0 7.46 7.535zm0 0M84.43 76.855a7.499 7.499 0 0 0 7.46 7.536l2.618.011h.039a7.495 7.495 0 0 0 7.496-7.46 7.502 7.502 0 0 0-7.461-7.54l-2.617-.011h-.04a7.499 7.499 0 0 0-7.495 7.464zm0 0M65.254 84.309l2.617.011h.04a7.501 7.501 0 0 0 7.5-7.46 7.505 7.505 0 0 0-7.466-7.54l-2.617-.011h-.035a7.502 7.502 0 0 0-7.5 7.464 7.499 7.499 0 0 0 7.46 7.536zm0 0"/></svg>