<svg height="511pt" viewBox="0 -9 511.998 511" width="511pt" xmlns="http://www.w3.org/2000/svg"><path d="M336.422 109.504c0 32.539-26.379 58.918-58.922 58.918-32.54 0-58.922-26.379-58.922-58.918 0-32.543 26.383-58.922 58.922-58.922 32.543 0 58.922 26.379 58.922 58.922zm0 0" fill="#edff85"/><path d="M336.426 109.5c0 32.54-26.38 58.922-58.922 58.922-4.442 0-8.777-.492-12.938-1.426 26.32-5.898 45.98-29.398 45.98-57.496s-19.66-51.598-45.98-57.496a59.072 59.072 0 0 1 12.938-1.426c32.543 0 58.922 26.383 58.922 58.922zm0 0" fill="#c5ee09"/><path d="M277.488 379.074c0 33.602-27.238 60.84-60.84 60.84-33.601 0-60.84-27.238-60.84-60.84 0-33.601 27.239-60.84 60.84-60.84 33.602 0 60.84 27.239 60.84 60.84zm0 0" fill="#2de0c7"/><path d="M269.89 349.633c16.258 29.402 5.602 66.422-23.8 82.68-5.653 3.125-11.574 5.257-17.59 6.445 17.691-18.73 22.121-47.457 8.988-71.207-13.136-23.754-39.82-35.27-65.09-30.246a60.536 60.536 0 0 1 14.813-11.473c29.402-16.258 66.418-5.602 82.68 23.8zm0 0" fill="#00c2cc"/><path d="M97.996 180.137c0 16.46-13.344 29.804-29.805 29.804-16.46 0-29.804-13.343-29.804-29.804s13.343-29.805 29.804-29.805 29.805 13.344 29.805 29.805zm0 0" fill="#fda736"/><path d="M97.992 180.137c0 16.465-13.344 29.804-29.8 29.804a29.77 29.77 0 0 1-8.25-1.156c12.445-3.578 21.55-15.05 21.55-28.648 0-13.598-9.105-25.07-21.55-28.645a29.627 29.627 0 0 1 8.25-1.16c16.456.004 29.8 13.344 29.8 29.805zm0 0" fill="#fd8f07"/><path d="M497.613 307.953c0 24.375-19.761 44.137-44.136 44.137s-44.137-19.762-44.137-44.137 19.762-44.137 44.137-44.137 44.136 19.762 44.136 44.137zm0 0" fill="#e667f9"/><path d="M497.61 307.953c0 24.375-19.758 44.137-44.13 44.137-4.242 0-8.343-.598-12.218-1.715 18.433-5.297 31.914-22.285 31.914-42.422s-13.48-37.125-31.914-42.422a44.077 44.077 0 0 1 12.218-1.715c24.372 0 44.13 19.758 44.13 44.137zm0 0" fill="#d82fea"/><path d="M192.707 176.273c0 7.809-6.332 14.141-14.14 14.141-7.813 0-14.145-6.332-14.145-14.14 0-7.813 6.332-14.145 14.144-14.145 7.809 0 14.141 6.332 14.141 14.144" fill="#ff2e04"/><path d="M455.582 71.965c0 7.812-6.332 14.144-14.14 14.144-7.813 0-14.145-6.332-14.145-14.144 0-7.809 6.332-14.14 14.144-14.14 7.809 0 14.141 6.331 14.141 14.14" fill="#fd8f07"/><path d="M211.125 472.008c0 7.812-6.332 14.144-14.14 14.144-7.813 0-14.145-6.332-14.145-14.144 0-7.809 6.332-14.14 14.144-14.14 7.809 0 14.141 6.331 14.141 14.14" fill="#d82fea"/><path d="M277.5 123.492c0 7.73-6.262 13.996-13.992 13.996-7.727 0-13.992-6.265-13.992-13.996 0-7.726 6.265-13.992 13.992-13.992 7.73 0 13.992 6.266 13.992 13.992zm0 0" fill="#c5ee09"/><path d="M277.504 123.492c0 7.727-6.27 13.996-13.992 13.996-2.559 0-4.946-.683-7-1.879 4.183-2.418 7-6.941 7-12.117 0-5.176-2.817-9.699-7-12.117a13.899 13.899 0 0 1 7-1.875c7.722 0 13.992 6.27 13.992 13.992zm0 0" fill="#84e507"/><path d="M182.355 127.176a7.525 7.525 0 0 0 8.493 6.41l1.945-.27a7.52 7.52 0 0 0 6.45-8.46 7.523 7.523 0 0 0-8.462-6.45l-2.015.278a7.524 7.524 0 0 0-6.41 8.492zm0 0M103.922 147.797a7.528 7.528 0 0 0 7.07 4.953 7.5 7.5 0 0 0 2.57-.457c.614-.223 1.223-.441 1.84-.66a7.525 7.525 0 0 0 4.563-9.613 7.52 7.52 0 0 0-9.61-4.563c-.648.23-1.293.461-1.937.695a7.524 7.524 0 0 0-4.496 9.645zm0 0M129.54 139.012a7.529 7.529 0 0 0 9.257 5.242 341.52 341.52 0 0 1 1.894-.52 7.523 7.523 0 0 0-3.93-14.523c-.66.176-1.32.36-1.98.539a7.525 7.525 0 0 0-5.242 9.262zm0 0M155.754 132.2c.723 3.562 3.86 6.023 7.363 6.023.496 0 1-.051 1.508-.153l1.934-.39a7.52 7.52 0 0 0 5.91-8.848 7.522 7.522 0 0 0-8.844-5.91l-2 .402a7.521 7.521 0 0 0-5.871 8.875zm0 0M38.93 300.453c-2.946-2.933-7.707-2.93-10.64.008a7.52 7.52 0 0 0 .003 10.637c.5.5 1.008 1 1.523 1.496a7.502 7.502 0 0 0 5.227 2.113c1.969 0 3.934-.77 5.41-2.297a7.522 7.522 0 0 0-.183-10.637 85.53 85.53 0 0 1-1.34-1.32zm0 0M99.52 355.156c.632.25 1.27.5 1.906.75.898.352 1.824.52 2.734.52a7.523 7.523 0 0 0 2.742-14.531l-1.828-.72a7.517 7.517 0 0 0-9.765 4.212 7.524 7.524 0 0 0 4.21 9.77zm0 0M15.266 259.832a54.225 54.225 0 0 1-.32-1.738c-.692-4.098-4.575-6.864-8.669-6.176a7.527 7.527 0 0 0-6.172 8.668c.125.734.258 1.469.407 2.2a7.52 7.52 0 0 0 8.851 5.901 7.523 7.523 0 0 0 5.903-8.855zm0 0M79.438 345.387a7.53 7.53 0 0 0 6.71-4.11c1.883-3.703.41-8.234-3.293-10.117l-1.73-.89a7.524 7.524 0 1 0-6.934 13.355c.61.316 1.223.629 1.84.945a7.497 7.497 0 0 0 3.406.817zm0 0M6.508 241.79a7.525 7.525 0 0 0 8.934-5.777c.124-.58.257-1.158.398-1.736a7.521 7.521 0 0 0-5.508-9.101 7.517 7.517 0 0 0-9.102 5.508c-.18.722-.343 1.445-.5 2.171a7.523 7.523 0 0 0 5.778 8.934zm0 0M136.988 359.836a7.522 7.522 0 0 0-5.05-9.363l-1.88-.57a7.532 7.532 0 0 0-9.394 4.995 7.528 7.528 0 0 0 4.996 9.395c.653.2 1.309.398 1.965.594a7.528 7.528 0 0 0 9.363-5.05zm0 0M23.719 201.625a7.521 7.521 0 0 0-10.426 2.125c-.398.605-.79 1.21-1.176 1.816a7.526 7.526 0 0 0 2.348 10.38 7.516 7.516 0 0 0 10.375-2.344c.328-.52.664-1.036 1.004-1.551a7.52 7.52 0 0 0-2.125-10.426zm0 0M23.414 280.75a7.524 7.524 0 1 0-12.984 7.61c.367.62.738 1.238 1.117 1.859a7.53 7.53 0 0 0 10.351 2.46 7.523 7.523 0 0 0 2.461-10.35c-.32-.524-.636-1.052-.945-1.579zm0 0M50.16 329.191c.567.399 1.14.793 1.719 1.184a7.528 7.528 0 0 0 10.453-1.996 7.524 7.524 0 0 0-2-10.45c-.531-.363-1.062-.726-1.586-1.09a7.519 7.519 0 0 0-10.473 1.884 7.52 7.52 0 0 0 1.887 10.468zm0 0M371.324 368.422c.664 0 1.344-.09 2.02-.277l1.96-.547a7.525 7.525 0 0 0-4.1-14.48l-1.895.53a7.526 7.526 0 0 0 2.015 14.774zm0 0M399.645 359.855l1.917-.68a7.524 7.524 0 0 0 4.56-9.612 7.525 7.525 0 0 0-9.618-4.555l-1.86.66a7.519 7.519 0 0 0-4.593 9.594 7.52 7.52 0 0 0 7.094 5.027 7.587 7.587 0 0 0 2.5-.434zm0 0M318.258 379.043c.316 0 .637-.02.96-.063l2.02-.261a7.521 7.521 0 1 0-1.965-14.914l-1.957.25c-4.12.527-7.039 4.293-6.511 8.414a7.522 7.522 0 0 0 7.453 6.574zm0 0M344.98 374.7c.489 0 .985-.052 1.48-.15.673-.132 1.34-.269 2.009-.405a7.522 7.522 0 0 0 5.855-8.883 7.522 7.522 0 0 0-8.883-5.856c-.64.133-1.28.262-1.925.39-4.075.813-6.715 4.778-5.903 8.852a7.528 7.528 0 0 0 7.367 6.051zm0 0M355.754 139.93l1.926.441a7.529 7.529 0 0 0 9.027-5.633 7.53 7.53 0 0 0-5.637-9.027l-1.984-.453c-4.047-.926-8.082 1.617-9 5.668a7.52 7.52 0 0 0 5.668 9.004zm0 0M505.035 256.621c-4.039-.973-8.105 1.508-9.078 5.547-.14.578-.289 1.152-.445 1.727a7.522 7.522 0 0 0 5.277 9.238c.664.183 1.328.27 1.984.27 3.309 0 6.34-2.2 7.254-5.544a87.36 87.36 0 0 0 .555-2.156 7.524 7.524 0 0 0-5.547-9.082zm0 0M496.75 238.355c.102.59.195 1.176.277 1.77a7.525 7.525 0 0 0 8.52 6.375 7.526 7.526 0 0 0 6.375-8.52c-.106-.73-.223-1.46-.348-2.187-.707-4.094-4.601-6.844-8.695-6.129a7.519 7.519 0 0 0-6.129 8.691zm0 0M381.414 146.71c.629.192 1.254.384 1.875.58.742.23 1.492.339 2.234.339 3.207 0 6.18-2.07 7.184-5.293a7.527 7.527 0 0 0-4.953-9.418c-.652-.203-1.309-.402-1.965-.602a7.518 7.518 0 0 0-9.383 5.012 7.518 7.518 0 0 0 5.008 9.383zm0 0M489.098 217.305a7.526 7.526 0 0 0 10.242 2.894 7.524 7.524 0 0 0 2.89-10.238c-.351-.633-.714-1.262-1.082-1.89a7.527 7.527 0 0 0-10.304-2.657 7.52 7.52 0 0 0-2.656 10.3c.312.532.613 1.06.91 1.59zm0 0M439.117 153.898c-.61-.32-1.219-.64-1.832-.957a7.518 7.518 0 0 0-10.14 3.22 7.527 7.527 0 0 0 3.218 10.14c.578.297 1.153.597 1.727.902a7.527 7.527 0 0 0 10.168-3.14 7.527 7.527 0 0 0-3.14-10.165zm0 0M473.953 197.402a7.513 7.513 0 0 0 5.383 2.266 7.509 7.509 0 0 0 5.258-2.145 7.53 7.53 0 0 0 .12-10.64c-.491-.5-.987-1.004-1.487-1.5a7.526 7.526 0 0 0-10.641.031 7.526 7.526 0 0 0 .031 10.64c.453.446.895.895 1.336 1.348zm0 0M461.336 167.336a7.523 7.523 0 0 0-8.574 12.363c.523.367 1.05.735 1.566 1.102a7.519 7.519 0 0 0 10.492-1.77 7.526 7.526 0 0 0-1.77-10.492 147.34 147.34 0 0 0-1.714-1.203zm0 0M413.855 142.2c-.632-.259-1.27-.512-1.906-.766a7.523 7.523 0 1 0-5.555 13.984c.61.242 1.215.484 1.817.727a7.492 7.492 0 0 0 2.82.554 7.525 7.525 0 0 0 2.824-14.5zm0 0M197.934 69.438c.609.214 1.218.433 1.832.656a7.53 7.53 0 0 0 9.637-4.516 7.526 7.526 0 0 0-4.516-9.633c-.649-.234-1.301-.468-1.946-.695a7.522 7.522 0 0 0-9.597 4.59c-1.387 3.918.672 8.215 4.59 9.597zm0 0M147.207 58.36c.629.038 1.262.081 1.898.128a7.525 7.525 0 0 0 8.074-6.93 7.521 7.521 0 0 0-6.929-8.07 129.62 129.62 0 0 0-2.102-.148c-4.183-.27-7.718 2.894-7.98 7.039-.258 4.148 2.89 7.723 7.039 7.98zm0 0M172.793 62.129c.625.14 1.254.285 1.879.434a7.527 7.527 0 0 0 9.05-5.602 7.53 7.53 0 0 0-5.6-9.047c-.68-.16-1.356-.316-2.032-.465a7.524 7.524 0 0 0-8.988 5.692 7.524 7.524 0 0 0 5.691 8.988zm0 0M95.117 68.094a7.506 7.506 0 0 0 3.57-.906 68.562 68.562 0 0 1 1.59-.833 7.523 7.523 0 0 0 3.32-10.109 7.522 7.522 0 0 0-10.109-3.32 102.8 102.8 0 0 0-1.957 1.023 7.526 7.526 0 0 0 3.586 14.145zm0 0M58.145 136.004a7.523 7.523 0 0 0 7.515-7.336c.016-.629.04-1.25.063-1.871a7.517 7.517 0 0 0-7.192-7.836 7.516 7.516 0 0 0-7.84 7.195c-.027.707-.054 1.422-.07 2.137A7.518 7.518 0 0 0 57.957 136c.063.004.125.004.188.004zm0 0M120.672 59.574c.41 0 .828-.035 1.246-.105.61-.102 1.219-.2 1.836-.29a7.524 7.524 0 0 0-2.184-14.887c-.715.106-1.422.22-2.129.337a7.522 7.522 0 0 0-6.183 8.656 7.533 7.533 0 0 0 7.414 6.29zm0 0M55.676 97.512c-.23.691-.45 1.39-.664 2.093a7.524 7.524 0 0 0 14.398 4.368c.176-.582.36-1.157.55-1.735a7.52 7.52 0 0 0-4.776-9.504c-3.946-1.304-8.204.832-9.508 4.778zm0 0M69.832 83.738a7.484 7.484 0 0 0 4.66 1.621c2.223 0 4.422-.98 5.906-2.855.368-.469.743-.93 1.125-1.383a7.516 7.516 0 0 0-.921-10.598 7.52 7.52 0 0 0-10.598.918c-.477.57-.945 1.145-1.406 1.727a7.527 7.527 0 0 0 1.234 10.57zm0 0M154.324 314.457a7.524 7.524 0 0 0-11.176 10.074l1.372 1.516a7.508 7.508 0 0 0 5.57 2.465 7.507 7.507 0 0 0 5.058-1.957 7.519 7.519 0 0 0 .508-10.625zm0 0M90.988 239.57a7.522 7.522 0 0 0 3.16-10.16c-.3-.578-.605-1.156-.902-1.734a7.524 7.524 0 0 0-10.14-3.227 7.52 7.52 0 0 0-3.223 10.137c.312.61.629 1.215.949 1.82a7.515 7.515 0 0 0 10.156 3.164zm0 0M137.043 294.172c-2.598-3.238-7.336-3.762-10.574-1.156-3.242 2.597-3.758 7.332-1.16 10.574l1.28 1.586a7.498 7.498 0 0 0 5.852 2.793 7.5 7.5 0 0 0 4.73-1.68 7.516 7.516 0 0 0 1.11-10.578zm0 0M120.39 285.027a7.523 7.523 0 0 0 1.739-10.496c-.383-.531-.766-1.066-1.14-1.601a7.523 7.523 0 0 0-10.489-1.793 7.523 7.523 0 0 0-1.793 10.488c.395.555.79 1.11 1.188 1.664a7.513 7.513 0 0 0 6.12 3.145c1.52 0 3.047-.457 4.376-1.407zm0 0M94.574 260.371a7.507 7.507 0 0 0 6.395 3.55 7.52 7.52 0 0 0 6.383-11.492l-1.036-1.679c-2.18-3.54-6.812-4.645-10.347-2.465a7.522 7.522 0 0 0-2.469 10.348zm0 0M299.512 421.738c-.598-.25-1.2-.504-1.801-.761a7.522 7.522 0 0 0-9.871 3.968c-1.633 3.82.144 8.239 3.965 9.871.633.27 1.261.536 1.894.801.95.399 1.934.586 2.903.586a7.531 7.531 0 0 0 6.945-4.621 7.527 7.527 0 0 0-4.035-9.844zm0 0M324.246 430.684c-.617-.188-1.238-.38-1.86-.57a7.522 7.522 0 0 0-9.421 4.945 7.53 7.53 0 0 0 4.945 9.421c.66.204 1.317.407 1.977.606.726.219 1.46.324 2.183.324a7.525 7.525 0 0 0 2.176-14.727zm0 0M421.473 424.008c-.47.363-.938.719-1.414 1.066a7.527 7.527 0 0 0 4.449 13.598c1.539 0 3.097-.473 4.433-1.453.606-.442 1.2-.89 1.79-1.352 3.273-2.558 3.859-7.285 1.3-10.558a7.519 7.519 0 0 0-10.558-1.301zm0 0M453.375 376.457a7.524 7.524 0 0 0-8.68 6.156c-.105.61-.215 1.215-.332 1.82a7.524 7.524 0 0 0 5.977 8.805c.476.09.953.137 1.422.137 3.535 0 6.691-2.508 7.379-6.11.136-.706.265-1.413.386-2.128a7.528 7.528 0 0 0-6.152-8.68zm0 0M375.21 438.563c-.624.015-1.25.023-1.878.027a7.525 7.525 0 0 0 .043 15.047h.047c.71-.004 1.422-.016 2.133-.032a7.52 7.52 0 0 0 7.347-7.69 7.5 7.5 0 0 0-7.691-7.353zm0 0M399.938 434.898a61.61 61.61 0 0 1-1.766.504 7.526 7.526 0 0 0-5.27 9.246 7.533 7.533 0 0 0 9.243 5.27c.703-.195 1.402-.395 2.093-.602a7.524 7.524 0 0 0-4.3-14.418zm0 0M349.617 436.64c-.629-.1-1.262-.206-1.894-.316a7.516 7.516 0 0 0-8.703 6.121 7.523 7.523 0 0 0 6.125 8.7c.687.12 1.375.238 2.062.347.406.067.813.098 1.211.098 3.625 0 6.82-2.625 7.418-6.317a7.522 7.522 0 0 0-6.219-8.632zm0 0M447.098 402.816c-3.645-1.996-8.22-.664-10.215 2.98-.29.528-.586 1.052-.89 1.571a7.52 7.52 0 0 0 2.702 10.29 7.455 7.455 0 0 0 3.785 1.03 7.522 7.522 0 0 0 6.504-3.73c.371-.637.735-1.277 1.09-1.926a7.52 7.52 0 0 0-2.976-10.215zm0 0M391.684 225.09l1.132 1.62a7.51 7.51 0 0 0 6.18 3.224 7.473 7.473 0 0 0 4.293-1.352 7.522 7.522 0 0 0 1.871-10.473l-1.164-1.668c-2.387-3.398-7.082-4.218-10.48-1.832s-4.223 7.082-1.832 10.48zm0 0M407.277 249a7.525 7.525 0 0 0 12.899-7.75c-.356-.586-.707-1.172-1.067-1.758-2.16-3.547-6.793-4.668-10.34-2.508a7.527 7.527 0 0 0-2.507 10.34c.343.559.68 1.117 1.015 1.676zm0 0M340.152 164.074l1.399 1.403a7.494 7.494 0 0 0 5.336 2.222 7.491 7.491 0 0 0 5.3-2.183 7.522 7.522 0 0 0 .04-10.641l-1.442-1.45a7.53 7.53 0 0 0-10.64.009 7.522 7.522 0 0 0 .007 10.64zm0 0M388.738 196.004l-1.265-1.594a7.524 7.524 0 0 0-10.57-1.191 7.52 7.52 0 0 0-1.196 10.57l1.23 1.55a7.514 7.514 0 0 0 5.907 2.856 7.5 7.5 0 0 0 4.66-1.62 7.527 7.527 0 0 0 1.234-10.571zm0 0M370.434 185.547c3.105-2.758 3.382-7.512.625-10.617l-1.36-1.528a7.525 7.525 0 0 0-11.207 10.043l1.32 1.477a7.504 7.504 0 0 0 5.626 2.527 7.503 7.503 0 0 0 4.996-1.902zm0 0M328.898 109.504c0 28.34-23.058 51.398-51.398 51.398-8.266 0-16.176-1.918-23.508-5.699a7.522 7.522 0 0 0-10.133 3.242 7.52 7.52 0 0 0 3.239 10.133c9.484 4.89 19.71 7.367 30.402 7.367 36.637 0 66.445-29.804 66.445-66.441 0-9.32-1.906-18.356-5.672-26.86a7.519 7.519 0 0 0-9.921-3.832 7.52 7.52 0 0 0-3.836 9.922 50.978 50.978 0 0 1 4.382 20.77zm0 0M226.73 146.906a7.525 7.525 0 0 0 6.473-11.348 51.33 51.33 0 0 1-7.101-26.058c0-28.34 23.058-51.398 51.398-51.398a51.163 51.163 0 0 1 28.309 8.503 7.524 7.524 0 0 0 10.425-2.125 7.525 7.525 0 0 0-2.129-10.425 66.152 66.152 0 0 0-36.601-11c-36.64 0-66.445 29.808-66.445 66.445a66.405 66.405 0 0 0 9.183 33.703 7.518 7.518 0 0 0 6.488 3.703zm0 0M284.215 366.676c16.523-14.79 22.262-26.13 17.543-34.664-4.746-8.578-17.54-9.7-39.035-3.461a68.086 68.086 0 0 0-14.852-10.301 7.522 7.522 0 0 0-10.125 3.266 7.52 7.52 0 0 0 3.266 10.125c9.433 4.836 17.144 12.316 22.297 21.632a53.123 53.123 0 0 1 3.675 8.254c-11.918 9.547-27.351 19.696-44.043 28.926-16.695 9.23-33.5 16.906-47.921 21.93a54.124 54.124 0 0 1-5.032-7.508c-6.89-12.465-8.515-26.863-4.578-40.55 3.942-13.688 12.977-25.02 25.438-31.91 6.933-3.833 14.437-6.04 22.304-6.548 4.149-.27 7.293-3.851 7.02-7.996a7.52 7.52 0 0 0-7.992-7.02c-10.098.657-19.727 3.481-28.614 8.395-15.98 8.836-27.562 23.367-32.613 40.918-2.957 10.266-3.45 20.848-1.598 31.063-16.73 14.898-22.558 26.328-17.816 34.91 2.742 4.957 8.16 7.43 16.399 7.43 5.945 0 13.359-1.29 22.292-3.856.122-.035.247-.078.372-.113 12.68 11.543 29.246 17.828 46.16 17.828a67.961 67.961 0 0 0 32.968-8.524c26.274-14.53 39.211-43.925 34.18-71.96.102-.087.207-.176.305-.266zm3.61-26.961c-.923 2.039-3.415 5.785-8.88 11.25a68.372 68.372 0 0 0-2.468-4.973 68.535 68.535 0 0 0-2.887-4.746c7.543-1.726 12.027-1.828 14.234-1.531zm-142.348 78.719c.918-2.028 3.39-5.774 8.87-11.25a70.113 70.113 0 0 0 2.477 4.972 67.667 67.667 0 0 0 2.883 4.739c-7.523 1.722-12.02 1.835-14.23 1.539zm96.976 7.3c-12.469 6.891-26.867 8.516-40.555 4.578a53.589 53.589 0 0 1-14.316-6.511c13.3-5.14 27.938-12.051 42.64-20.18 14.688-8.125 28.305-16.836 39.723-25.36.258 19.044-9.695 37.63-27.492 47.473zm0 0M68.191 217.465c20.582 0 37.329-16.746 37.329-37.328s-16.747-37.325-37.329-37.325c-20.586 0-37.328 16.743-37.328 37.325s16.742 37.328 37.328 37.328zm0-59.61c12.286 0 22.282 9.997 22.282 22.282s-9.996 22.281-22.282 22.281-22.28-9.996-22.28-22.281c0-12.285 9.995-22.282 22.28-22.282zm0 0M453.477 256.293c-28.485 0-51.657 23.176-51.657 51.66s23.172 51.66 51.657 51.66c28.484 0 51.66-23.175 51.66-51.66s-23.176-51.66-51.66-51.66zm0 88.273c-10.524 0-20.02-4.468-26.704-11.605 9.727-2.973 24.286-10.262 35.141-28.117a7.524 7.524 0 0 0-2.523-10.336c-3.547-2.16-8.176-1.031-10.336 2.52-10.164 16.718-24.149 21.273-30.305 22.5a36.395 36.395 0 0 1-1.887-11.575c0-20.187 16.426-36.613 36.614-36.613 10.496 0 19.964 4.445 26.648 11.543-.012.07-.027.14-.031.215-.024.25-2.64 25.129-23.442 39.863a7.518 7.518 0 0 0-1.789 10.484 7.513 7.513 0 0 0 6.145 3.176c1.504 0 3.023-.45 4.344-1.383 13.011-9.218 20.37-21.25 24.515-31.3.145 1.32.223 2.66.223 4.015 0 20.188-16.426 36.613-36.613 36.613zm0 0M375.809 66.91h.039c4.136 0 7.5-3.344 7.52-7.488l.015-2.73a7.525 7.525 0 0 0-7.488-7.56h-.036a7.522 7.522 0 0 0-7.523 7.49l-.016 2.73a7.525 7.525 0 0 0 7.489 7.558zm0 0M368.25 84.41l-.012 2.73a7.522 7.522 0 0 0 7.489 7.56h.035c4.136 0 7.5-3.345 7.523-7.49l.012-2.73a7.525 7.525 0 0 0-7.488-7.558c-4.2 0-7.54 3.336-7.559 7.488zm0 0M388.305 79.477l2.73.011h.035a7.524 7.524 0 0 0 .035-15.047l-2.73-.011h-.035a7.525 7.525 0 0 0-.035 15.047zm0 0M360.516 79.39l2.73.012h.035c4.137 0 7.5-3.343 7.524-7.488a7.527 7.527 0 0 0-7.489-7.559l-2.73-.011h-.04a7.521 7.521 0 0 0-7.519 7.488 7.522 7.522 0 0 0 7.489 7.559zm0 0M408.922 18.277h.039c4.137 0 7.5-3.343 7.523-7.488l.012-2.73A7.519 7.519 0 0 0 409.012.5h-.04a7.524 7.524 0 0 0-7.523 7.484l-.011 2.73a7.522 7.522 0 0 0 7.484 7.563zm0 0M408.922 28.29h-.035a7.527 7.527 0 0 0-7.524 7.487l-.011 2.73a7.522 7.522 0 0 0 7.488 7.56h.035a7.525 7.525 0 0 0 7.523-7.489l.012-2.73a7.527 7.527 0 0 0-7.488-7.559zm0 0M413.93 23.285a7.525 7.525 0 0 0 7.488 7.559l2.73.011h.036a7.525 7.525 0 0 0 .035-15.046l-2.73-.012h-.036a7.522 7.522 0 0 0-7.523 7.488zm0 0M393.629 30.758l2.73.012h.036a7.525 7.525 0 0 0 .035-15.047l-2.73-.012h-.036a7.521 7.521 0 0 0-7.523 7.484 7.525 7.525 0 0 0 7.488 7.563zm0 0M68.188 400.914h.039a7.524 7.524 0 0 0 7.523-7.484l.012-2.73a7.52 7.52 0 0 0-7.485-7.563h-.039a7.52 7.52 0 0 0-7.52 7.484l-.015 2.73a7.527 7.527 0 0 0 7.484 7.563zm0 0M68.188 410.926h-.036a7.524 7.524 0 0 0-7.52 7.488l-.015 2.73a7.522 7.522 0 0 0 7.488 7.56h.036a7.522 7.522 0 0 0 7.523-7.49l.012-2.73a7.525 7.525 0 0 0-7.489-7.558zm0 0M90.973 406.004a7.525 7.525 0 0 0-7.489-7.559l-2.73-.011c-4.152-.004-7.54 3.332-7.559 7.488a7.525 7.525 0 0 0 7.489 7.558l2.73.012h.04c4.136 0 7.5-3.344 7.519-7.488zm0 0M63.184 405.918a7.525 7.525 0 0 0-7.489-7.559l-2.73-.011h-.035a7.525 7.525 0 0 0-.035 15.047l2.73.011h.035a7.522 7.522 0 0 0 7.524-7.488zm0 0M106.742 445.992h.035a7.525 7.525 0 0 0 7.524-7.488l.011-2.73a7.525 7.525 0 0 0-7.488-7.56h-.035a7.527 7.527 0 0 0-7.523 7.49l-.012 2.73a7.522 7.522 0 0 0 7.488 7.558zm0 0M106.738 456.008h-.035a7.525 7.525 0 0 0-7.523 7.488l-.012 2.73a7.525 7.525 0 0 0 7.488 7.56h.035a7.527 7.527 0 0 0 7.524-7.49l.012-2.73a7.522 7.522 0 0 0-7.489-7.558zm0 0M122.035 443.527l-2.73-.015h-.035a7.527 7.527 0 0 0-7.524 7.488 7.525 7.525 0 0 0 7.488 7.559l2.73.015h.04a7.524 7.524 0 0 0 .031-15.047zm0 0M101.734 451a7.522 7.522 0 0 0-7.488-7.559l-2.73-.015h-.04a7.524 7.524 0 0 0-7.519 7.488 7.519 7.519 0 0 0 7.484 7.559l2.73.015h.04c4.137 0 7.5-3.347 7.523-7.488zm0 0M38.387 23.574h.035a7.522 7.522 0 0 0 7.523-7.488l.012-2.73c.023-4.153-3.332-7.54-7.488-7.56h-.035a7.524 7.524 0 0 0-7.52 7.49l-.016 2.73a7.525 7.525 0 0 0 7.489 7.558zm0 0M38.336 51.363a7.522 7.522 0 0 0 7.523-7.488l.012-2.727c.02-4.156-3.332-7.543-7.488-7.558h-.035a7.527 7.527 0 0 0-7.524 7.488l-.012 2.73a7.519 7.519 0 0 0 7.489 7.555zm0 0M43.395 28.582a7.516 7.516 0 0 0 7.484 7.559l2.73.011h.04a7.52 7.52 0 0 0 7.519-7.484 7.516 7.516 0 0 0-7.484-7.559l-2.73-.015h-.04a7.521 7.521 0 0 0-7.52 7.488zm0 0M23.09 36.055l2.73.011h.035a7.521 7.521 0 0 0 .036-15.043l-2.73-.015h-.036a7.525 7.525 0 0 0-.035 15.047zm0 0M178.566 197.938c11.946 0 21.664-9.72 21.664-21.665 0-11.949-9.718-21.668-21.664-21.668-11.949 0-21.668 9.72-21.668 21.668 0 11.946 9.723 21.665 21.668 21.665zm0-28.286c3.649 0 6.618 2.97 6.618 6.621a6.625 6.625 0 0 1-6.618 6.618c-3.652 0-6.62-2.97-6.62-6.618a6.627 6.627 0 0 1 6.62-6.62zm0 0M419.773 71.965c0 11.95 9.72 21.668 21.668 21.668 11.946 0 21.664-9.719 21.664-21.668 0-11.945-9.718-21.664-21.664-21.664-11.949 0-21.668 9.719-21.668 21.664zm21.668-6.617a6.625 6.625 0 0 1 6.618 6.617c0 3.652-2.97 6.62-6.618 6.62a6.627 6.627 0 0 1-6.62-6.62c0-3.649 2.968-6.617 6.62-6.617zm0 0M196.984 450.344c-11.945 0-21.664 9.719-21.664 21.664 0 11.949 9.715 21.668 21.664 21.668 11.946 0 21.664-9.719 21.664-21.668 0-11.945-9.718-21.664-21.664-21.664zm0 28.285a6.627 6.627 0 0 1-6.62-6.621c0-3.649 2.968-6.617 6.62-6.617a6.625 6.625 0 0 1 6.618 6.617c0 3.652-2.97 6.62-6.618 6.62zm0 0"/><path d="M263.508 145.008c11.863 0 21.515-9.649 21.515-21.516 0-11.863-9.652-21.515-21.515-21.515-11.863 0-21.516 9.652-21.516 21.515 0 11.863 9.653 21.516 21.516 21.516zm0-27.985a6.474 6.474 0 0 1 6.469 6.47c0 3.566-2.903 6.472-6.47 6.472-3.566 0-6.468-2.906-6.468-6.473a6.477 6.477 0 0 1 6.469-6.469zm0 0"/></svg>