<svg height="512pt" viewBox="0 -5 512 512" width="512pt" xmlns="http://www.w3.org/2000/svg"><path d="M492.848 183.215c0 97.043-78.672 175.71-175.715 175.71s-175.711-78.667-175.711-175.71S220.09 7.5 317.132 7.5c97.044 0 175.716 78.672 175.716 175.715zm0 0" fill="#2de0c7"/><path d="M492.852 183.21c0 97.048-78.672 175.72-175.723 175.72-4.328 0-8.629-.16-12.879-.47 91.031-6.593 162.828-82.53 162.828-175.25 0-92.71-71.797-168.651-162.828-175.241 4.25-.309 8.55-.469 12.879-.469 97.05 0 175.723 78.668 175.723 175.71zm0 0" fill="#00c2cc"/><path d="M301.676 73.371c0-10.164-11.301-18.402-25.242-18.402-13.946 0-25.247 8.238-25.247 18.402 0 10.16 11.301 18.399 25.247 18.399 13.941 0 25.242-8.239 25.242-18.399zm0 0" fill="#9bf2e5"/><path d="M274.008 87.156c0 39.403-31.945 71.344-71.348 71.344-39.398 0-71.344-31.941-71.344-71.344s31.946-71.344 71.344-71.344c39.403 0 71.348 31.942 71.348 71.344zm0 0" fill="#ff5c3c"/><path d="M274.012 87.16c0 39.399-31.953 71.34-71.352 71.34-3.71 0-7.36-.281-10.922-.832 34.223-5.258 60.422-34.82 60.422-70.508 0-35.691-26.2-65.262-60.422-70.52 3.563-.55 7.211-.831 10.922-.831 39.399 0 71.352 31.941 71.352 71.351zm0 0" fill="#ff2e04"/><path d="M504.5 402.41v70.777c0 11.883-9.629 21.512-21.52 21.512H29.02c-11.891 0-21.52-9.629-21.52-21.512V402.41zm0 0" fill="#fd7504"/><path d="M504.5 402.41v47.867c0 11.883-9.629 21.512-21.52 21.512H29.02c-11.891 0-21.52-9.629-21.52-21.512V402.41zm0 0" fill="#fda736"/><path d="M482.984 433.273H29.016c-11.883 0-21.516-9.632-21.516-21.515V297.949c0-11.883 9.633-21.515 21.516-21.515h453.968c11.883 0 21.516 9.632 21.516 21.515v113.809c0 11.883-9.633 21.515-21.516 21.515zm0 0" fill="#fed370"/><path d="M444.762 246.82v58H306.809v-175H356l24.898 75.828H416zm0 0" fill="#fd8f07"/><path d="M337.41 257.96v46.86H306.81v-77.46zm0 0" fill="#fd7504"/><path d="M259.398 196.918v-36.02l-31.796-31.796H13.898v66.386l95.364 37.98v29.462l35.547 17.21v77.739H325.41v-94.95zm0 0" fill="#fda736"/><path d="M259.398 196.918v-36.02l-31.796-31.796H200.82l42.2 42.187v36.02l66.011 66.011v84.559h16.38v-94.95zm0 0" fill="#fd8f07"/><path d="M325.41 322.61v35.269H144.81v-44.89zm0 0" fill="#fd8f07"/><path d="M98.64 322.543v56.113h282.258v-41.074zm0 0" fill="#fda736"/><path d="M116 399.82H55.004v-35.922H104zm0 0" fill="#fd8f07"/><path d="M448.371 154.71c0-10.163-11.305-18.401-25.246-18.401s-25.242 8.238-25.242 18.402c0 10.16 11.3 18.398 25.242 18.398s25.246-8.238 25.246-18.398zm0 0" fill="#9bf2e5"/><path d="M482.984 268.934h-3.918a183.08 183.08 0 0 0 21.282-85.72c0-32.308-8.532-64.07-24.664-91.855-15.649-26.949-38.07-49.636-64.848-65.601a7.5 7.5 0 0 0-7.684 12.883c21.696 12.937 40.274 30.683 54.22 51.675h-59.188c-9.145 0-17.743-3.558-24.207-10.027-9.301-9.297-21.665-14.418-34.817-14.418h-31.332c-3.976-10.758-16.348-18.402-31.394-18.402-1.844 0-3.672.133-5.473.37a79.262 79.262 0 0 0-17.07-20.542C273.934 19.137 295.16 15 317.133 15c19.16 0 37.976 3.207 55.922 9.531a7.497 7.497 0 0 0 9.566-4.582 7.498 7.498 0 0 0-4.582-9.562C358.49 3.492 337.996 0 317.133 0c-27.242 0-53.438 5.844-77.883 17.348a78.347 78.347 0 0 0-36.59-9.04c-43.473 0-78.844 35.372-78.844 78.844 0 12.094 2.727 23.79 7.926 34.446h-48.41a7.5 7.5 0 0 0-7.5 7.5c0 4.144 3.355 7.5 7.5 7.5h141.164L251.898 164v25.422h-107.09a7.497 7.497 0 0 0-7.5 7.5 7.5 7.5 0 0 0 7.5 7.5h111.485l61.617 61.617v60.676L152.31 317.89v-30.25h99.59a7.5 7.5 0 1 0 0-15H146.526l-29.765-14.41v-17.262h43.617c4.144 0 7.5-3.356 7.5-7.5s-3.356-7.5-7.5-7.5h-49.68l-89.297-35.567v-53.804h29.27a7.5 7.5 0 1 0 0-15h-36.77a7.5 7.5 0 0 0-7.5 7.5v66.39a7.502 7.502 0 0 0 4.723 6.969l90.637 36.098v24.379a7.501 7.501 0 0 0 3.027 6H29.016c-16 0-29.016 13.015-29.016 29.015v26.82a7.5 7.5 0 1 0 15 0v-26.82c0-7.73 6.29-14.015 14.016-14.015H134.82c.188 0 .367-.016.551-.032l1.938.938v32.254l-38.27-2.04a7.497 7.497 0 0 0-7.898 7.489v33.855H55.004a7.5 7.5 0 0 0-7.5 7.5v35.922c0 4.14 3.36 7.5 7.5 7.5h89.805a7.5 7.5 0 0 0 7.5-7.5c0-4.144-3.356-7.5-7.5-7.5h-23.407l-2.058-6.164H404c4.14 0 7.5-3.355 7.5-7.5s-3.36-7.5-7.5-7.5h-15.602v-33.57a7.505 7.505 0 0 0-7.101-7.492l-48.387-2.578V312.32H471a7.5 7.5 0 0 0 7.5-7.5 7.5 7.5 0 0 0-7.5-7.5h-18.734v-13.386h30.718c7.73 0 14.016 6.289 14.016 14.015v113.809c0 7.726-6.29 14.015-14.016 14.015H29.016c-7.73 0-14.016-6.289-14.016-14.015v-54.324a7.5 7.5 0 1 0-15 0v115.754c0 16 13.016 29.015 29.016 29.015h453.968c16 0 29.016-13.015 29.016-29.015V297.949c0-16-13.016-29.015-29.016-29.015zM62.504 392.32v-20.922h36.094l6.988 20.922zm310.894-21.164H114.332l-3.219-9.636a7.485 7.485 0 0 0-4.972-4.797v-26.27l267.257 14.242zM294.176 73.371c0 4.285-5.047 8.969-12.754 10.43a78.388 78.388 0 0 0-3.883-21.293c9.856.39 16.637 5.894 16.637 10.863zm-91.512-50.058c16.84 0 32.168 6.566 43.59 17.257-21.281 2.684-41.465 11.715-60.145 26.996-16.629 13.598-33.914 20.028-47.187 23.051a63.62 63.62 0 0 1-.106-3.46c0-35.204 28.641-63.844 63.848-63.844zm24.938 98.289H148.91a63.337 63.337 0 0 1-7.441-16.188c15.113-3.344 35.008-10.598 54.136-26.238 19.227-15.727 40.09-23.922 62.032-24.43a63.304 63.304 0 0 1 8.183 23.11c-32.074 18.226-62.507 14.562-62.882 14.511a7.506 7.506 0 0 0-8.422 6.422 7.502 7.502 0 0 0 6.422 8.445c.445.059 3.921.504 9.582.504 11.703 0 32.738-1.91 55.55-13.047-1.84 15.801-9.445 30.192-21.578 40.692l-11.586-11.586a7.504 7.504 0 0 0-5.304-2.195zm39.296 55.34h32.415v49.288l-32.415-32.414zm63.817 80.687l-16.402-16.402v-103.91h36.253l19.973 60.831h-24.875a7.5 7.5 0 1 0 0 15h66.426l18.285 26.168H351a7.5 7.5 0 1 0 0 15h86.266v43H332.91v-34.382c0-1.989-.789-3.899-2.195-5.305zm120.195-15.106l-28.762-41.168a7.504 7.504 0 0 0-6.148-3.207h-29.672l-23.203-70.668a7.494 7.494 0 0 0-7.125-5.16h-49.187a7.5 7.5 0 0 0-7.5 7.5v32.121h-32.415v-1.046c0-1.989-.789-3.895-2.199-5.301l-9.578-9.582c13.856-12.317 22.774-28.805 25.496-46.95 13.125-1.273 23.61-8.453 27.207-18.19h31.336c9.145 0 17.742 3.562 24.207 10.026 9.301 9.297 21.664 14.418 34.817 14.418 0 0 67.234-.105 67.894-.296 12.613 23.996 19.266 50.878 19.266 78.195 0 30.246-8.117 59.86-23.461 85.719h-9.617V246.82c0-1.539-.473-3.039-1.356-4.297zM29.016 440.773h453.968c5.082 0 9.86-1.32 14.016-3.62v13.124c0 7.727-6.29 14.012-14.02 14.012H29.02c-7.73 0-14.02-6.285-14.02-14.012v-13.125a28.857 28.857 0 0 0 14.016 3.621zm453.968 46.43H29.016c-6.828 0-12.528-4.914-13.762-11.39a28.875 28.875 0 0 0 13.766 3.476h453.96c4.977 0 9.665-1.262 13.766-3.476-1.234 6.476-6.933 11.39-13.762 11.39zm0 0"/><path d="M435.984 363.695a7.5 7.5 0 1 0 0 15h.106a7.5 7.5 0 1 0 0-15zm0 0M169.637 415.32h.074a7.501 7.501 0 0 0 7.496-7.43 7.497 7.497 0 0 0-7.43-7.57h-.101c-4.117-.035-7.531 3.285-7.57 7.43a7.499 7.499 0 0 0 7.425 7.57zm0 0M447.813 363.64h.101a7.5 7.5 0 0 0 7.5-7.5c0-4.144-3.355-7.5-7.5-7.5h-.101a7.5 7.5 0 1 0 0 15zm0 0M66 318.45a7.5 7.5 0 1 0 0-15h-.105a7.5 7.5 0 1 0 0 15zm0 0M455.867 154.71c0-14.523-14.383-25.901-32.742-25.901s-32.742 11.379-32.742 25.902c0 14.52 14.383 25.898 32.742 25.898s32.742-11.375 32.742-25.898zm-32.742 10.9c-10.457 0-17.742-5.747-17.742-10.9 0-5.155 7.285-10.901 17.742-10.901s17.742 5.746 17.742 10.902c0 5.152-7.285 10.898-17.742 10.898zm0 0M317.082 34.32a7.497 7.497 0 0 0-7.5 7.5 7.5 7.5 0 0 0 7.5 7.5h.102a7.5 7.5 0 0 0 7.5-7.5c0-4.144-3.356-7.5-7.5-7.5zm0 0M455.922 188.45a7.5 7.5 0 0 0-7.5-7.5h-.106c-4.14 0-7.5 3.355-7.5 7.5s3.36 7.5 7.5 7.5h.106c4.14 0 7.5-3.36 7.5-7.5zm0 0"/></svg>