<svg height="512pt" viewBox="0 -2 512.001 512" width="512pt" xmlns="http://www.w3.org/2000/svg"><path d="M504.5 407.988v70.778c0 11.882-9.629 21.511-21.52 21.511H29.02c-11.891 0-21.52-9.629-21.52-21.511v-70.778zm0 0" fill="#fd7504"/><path d="M504.5 407.988v47.871c0 11.88-9.629 21.508-21.52 21.508H29.02c-11.891 0-21.52-9.629-21.52-21.508v-47.87zm0 0" fill="#ffc183"/><path d="M482.984 438.852H29.016c-11.883 0-21.516-9.633-21.516-21.516V303.527c0-11.882 9.633-21.515 21.516-21.515h453.968c11.883 0 21.516 9.633 21.516 21.515v113.809c0 11.883-9.633 21.516-21.516 21.516zm0 0" fill="#ffe5c0"/><path d="M376.418 141.984c0 66.504-53.914 120.418-120.418 120.418s-120.418-53.914-120.418-120.418c0-66.507 53.914-120.422 120.418-120.422s120.418 53.915 120.418 120.422zm0 0" fill="#898ec9"/><path d="M376.422 141.988c0 66.5-53.91 120.41-120.422 120.41-4.512 0-8.95-.25-13.328-.742 60.226-6.629 107.078-57.68 107.078-119.668 0-62-46.852-113.05-107.078-119.68 4.379-.492 8.816-.742 13.328-.742 66.512 0 120.422 53.91 120.422 120.422zm0 0" fill="#6163aa"/><path d="M381.918 135.223v38.832c0 4.36-2.828 8.207-6.98 9.535a288.411 288.411 0 0 1-19.036 5.347c-28.996 7.13-63.226 11.243-99.902 11.243s-70.91-4.114-99.902-11.243a288.411 288.411 0 0 1-19.036-5.347 10.018 10.018 0 0 1-6.98-9.535v-38.832c0-6.653 6.39-11.485 12.773-9.606a297.678 297.678 0 0 0 13.18 3.547c29.004 7.137 63.266 11.258 99.965 11.258s70.96-4.121 99.965-11.258a297.678 297.678 0 0 0 13.18-3.547c6.382-1.879 12.773 2.953 12.773 9.606zm0 0" fill="#fd8f07"/><path d="M381.922 135.227v38.832c0 4.359-2.832 8.207-6.98 9.527a290.377 290.377 0 0 1-18.544 5.23 11.588 11.588 0 0 0 2.024-6.55v-45.36c0-2.969-1.094-5.617-2.844-7.648l.383-.09c4.527-1.11 8.93-2.3 13.18-3.55 6.39-1.88 12.78 2.948 12.78 9.609zm0 0" fill="#fd7504"/><g fill="#fd8f07"><path d="M269.113 47.5h-26.226V20.613c0-7.242 5.87-13.113 13.113-13.113s13.113 5.871 13.113 13.113zm0 0M105.328 413.582H44.336V387.66c0-5.523 4.477-10 10-10h31.793c4.3 0 8.121 2.754 9.484 6.832zm0 0M384.363 358.785h60.996v-25.922c0-5.523-4.476-10-10-10h-31.793a10.005 10.005 0 0 0-9.488 6.832zm0 0"/></g><path d="M482.984 274.512H381.527l-22.914-56.11a128.364 128.364 0 0 0 15.25-26.625v-.004c1.125-.343 2.254-.687 3.356-1.039 7.297-2.332 12.199-9.035 12.199-16.683v-38.828c0-5.575-2.563-10.688-7.027-14.028-.063-.047-.13-.09-.192-.132a127.684 127.684 0 0 0-24.824-57.09 7.5 7.5 0 0 0-10.52-1.36 7.493 7.493 0 0 0-1.359 10.516 112.808 112.808 0 0 1 20.984 45.453 293.87 293.87 0 0 1-12.308 3.3c-29.36 7.227-63.309 11.044-98.172 11.044-18.266 0-36.27-1.059-53.5-3.094v-12.289a7.5 7.5 0 1 0-15 0v10.242c-2.266-.355-4.52-.722-6.75-1.113v-13.168c0-4.145-3.355-7.5-7.5-7.5a7.5 7.5 0 0 0-7.5 7.5v10.21a301.55 301.55 0 0 1-20.23-5.129c4.578-21.812 15.386-41.534 31.511-57.312 16.211-15.863 36.293-26.27 58.356-30.32v9.05h-6.055a7.497 7.497 0 0 0-7.5 7.5c0 4.145 3.356 7.5 7.5 7.5h53.332c4.145 0 7.5-3.355 7.5-7.5 0-4.144-3.355-7.5-7.5-7.5h-6.05V30.95a112.74 112.74 0 0 1 47.081 20.653 7.457 7.457 0 0 0 4.493 1.5 7.489 7.489 0 0 0 6.007-3 7.502 7.502 0 0 0-1.5-10.5 127.701 127.701 0 0 0-56.718-23.977C273.734 6.665 265.64 0 256 0c-9.648 0-17.746 6.672-19.98 15.64-26.32 4.122-50.301 16.141-69.48 34.907-19.626 19.203-32.313 43.578-36.743 70.516-.063.046-.125.085-.188.132-4.464 3.34-7.027 8.453-7.027 14.028v38.828c0 7.648 4.902 14.351 12.2 16.683 1.109.356 2.241.7 3.374 1.047a128.633 128.633 0 0 0 15.223 26.64l-22.906 56.09H96.328a7.5 7.5 0 1 0 0 15h28.02l-23.094 56.555a7.499 7.499 0 0 0 6.937 10.336 7.505 7.505 0 0 0 6.95-4.664l25.41-62.226H248.5v114.476c0 4.14 3.355 7.5 7.5 7.5s7.5-3.36 7.5-7.5V289.512h107.95l15.484 37.91-7.973 23.863h-23.406a7.497 7.497 0 0 0-7.5 7.5c0 4.145 3.355 7.5 7.5 7.5h28.785c.008 0 .015.004.023.004s.016-.004.024-.004h67.668c4.144 0 7.5-3.355 7.5-7.5a7.502 7.502 0 0 0-6.696-7.457v-18.465c0-9.648-7.851-17.5-17.5-17.5h-31.793c-1.746 0-3.437.27-5.05.754l-10.864-26.605h95.332c7.73 0 14.016 6.285 14.016 14.015v113.809c0 7.73-6.285 14.016-14.016 14.016H29.016c-7.727 0-14.016-6.286-14.016-14.016V303.527c0-7.73 6.29-14.015 14.016-14.015h34.656a7.5 7.5 0 1 0 0-15H29.016c-16 0-29.016 13.015-29.016 29.015v175.235c0 16 13.016 29.02 29.016 29.02h453.968c16 0 29.016-13.02 29.016-29.02V303.527c0-16-13.016-29.015-29.016-29.015zM250.387 20.613c0-3.093 2.52-5.613 5.613-5.613s5.613 2.52 5.613 5.613V40h-11.226zm184.972 309.75c1.38 0 2.5 1.121 2.5 2.5v18.422h-43.086l6.418-19.21a2.503 2.503 0 0 1 2.375-1.712zM256 147.922c36.055 0 71.242-3.969 101.75-11.473a311.782 311.782 0 0 0 13.512-3.636c1.011-.297 1.773.117 2.144.39.375.285 1.012.922 1.012 2.02v38.828a2.508 2.508 0 0 1-1.762 2.394 283.404 283.404 0 0 1-18.543 5.211c-25.496 6.266-54.883 10.016-84.988 10.84a7.498 7.498 0 0 0-7.29 7.703 7.496 7.496 0 0 0 7.493 7.293h.207c29.988-.824 59.34-4.472 85.14-10.554A112.702 112.702 0 0 1 263.5 254.64v-12.899c0-4.144-3.355-7.5-7.5-7.5a7.5 7.5 0 0 0-7.5 7.5v12.899c-38.441-2.516-72.605-24.27-91.18-57.703 24.274 5.734 50.844 9.214 79.051 10.343 4.14.172 7.625-3.054 7.793-7.195a7.502 7.502 0 0 0-7.191-7.793c-27.977-1.117-55.32-4.797-79.086-10.637a285.767 285.767 0 0 1-18.54-5.207 2.517 2.517 0 0 1-1.761-2.398v-38.828c0-1.098.633-1.735 1.012-2.02.367-.273 1.132-.687 2.14-.39a313.111 313.111 0 0 0 13.508 3.636c30.512 7.504 65.7 11.473 101.754 11.473zm-109.324 126.59l17.652-43.219c21.914 22.535 51.727 36.496 84.172 38.371v4.848zm116.824 0v-4.848c32.383-1.883 62.227-15.855 84.164-38.394l17.66 43.242zM29.016 446.352h453.968c5.082 0 9.86-1.317 14.016-3.622v13.13c0 7.722-6.29 14.007-14.02 14.007H29.02c-7.73 0-14.02-6.285-14.02-14.008V442.73a28.825 28.825 0 0 0 14.016 3.622zm453.968 46.43H29.016c-6.828 0-12.528-4.915-13.758-11.391a28.815 28.815 0 0 0 13.762 3.476h453.96c4.977 0 9.665-1.258 13.762-3.476-1.23 6.476-6.93 11.39-13.758 11.39zm0 0"/><path d="M338.625 162.512h.175a7.5 7.5 0 0 0 .071-15h-.175a7.502 7.502 0 0 0-7.5 7.43 7.502 7.502 0 0 0 7.429 7.57zm0 0M338.625 180.332l.105.004h.07a7.5 7.5 0 1 0 .07-15l-.104-.004h-.07a7.5 7.5 0 1 0-.07 15zm0 0M134.14 406.082h-23.41l-8.003-23.965a17.484 17.484 0 0 0-16.598-11.957H54.336c-9.652 0-17.5 7.852-17.5 17.5v18.465a7.5 7.5 0 0 0-6.695 7.457c0 4.145 3.355 7.5 7.5 7.5h67.664c.007 0 .015.004.023.004.012 0 .02-.004.027-.004h28.786c4.144 0 7.5-3.355 7.5-7.5 0-4.14-3.36-7.5-7.5-7.5zM54.337 385.16h31.793c1.074 0 2.027.688 2.371 1.711l6.418 19.211H51.836V387.66a2.5 2.5 0 0 1 2.5-2.5zm0 0M452.105 392.668a7.5 7.5 0 0 0 7.5-7.5c0-4.145-3.355-7.5-7.5-7.5h-.101a7.497 7.497 0 0 0-7.5 7.5 7.5 7.5 0 0 0 7.5 7.5zm0 0M435.105 403.121a7.5 7.5 0 0 0 7.5-7.5 7.5 7.5 0 0 0-7.5-7.5H435a7.497 7.497 0 0 0-7.5 7.5c0 4.145 3.355 7.5 7.5 7.5zm0 0M282.719 351.086c4.144 0 7.5-3.356 7.5-7.5a7.5 7.5 0 0 0-7.5-7.5h-.106a7.5 7.5 0 1 0 0 15zm0 0M68 336.086a7.5 7.5 0 0 0-7.5 7.5c0 4.144 3.355 7.5 7.5 7.5h.105a7.5 7.5 0 1 0 0-15zm0 0M148.895 328.363H149c4.145 0 7.5-3.355 7.5-7.5a7.5 7.5 0 0 0-7.5-7.5h-.105a7.5 7.5 0 1 0 0 15zm0 0"/></svg>