<svg height="512pt" viewBox="0 0 512 512" width="512pt" xmlns="http://www.w3.org/2000/svg"><path d="M252.355 227.727v106.117H133.758l17.777-36.77 40.57-83.93h45.653c8.058 0 14.597 6.528 14.597 14.583zm0 0" fill="#4e5093"/><path d="M252.355 297.074v36.77H133.758l17.777-36.77zm0 0" fill="#fda736"/><path d="M219.324 15.941c56.164 56.164 56.164 147.223 0 203.383-56.164 56.164-147.219 56.164-203.383 0zm0 0" fill="#fef5e3"/><path d="M219.328 219.32c-30.695 30.696-71.816 44.618-111.973 41.754 33.286-2.39 65.899-16.3 91.348-41.754 52.688-52.672 55.945-136.05 9.793-192.543l10.832-10.832c56.164 56.164 56.164 147.223 0 203.375zm0 0" fill="#ffe5c0"/><path d="M75.285 75.29a351.516 351.516 0 0 0-12.59 13.269C15.285 141.262-5.62 197.762 15.941 219.324c18.551 18.555 62.957 5.668 108.563-28.484 11.887-8.899 23.86-19.246 35.473-30.86 11.613-11.613 21.96-23.585 30.863-35.472 34.152-45.61 47.035-90.016 28.484-108.567C197.762-5.62 141.262 15.29 88.56 62.695A354.735 354.735 0 0 0 75.285 75.29zm0 0" fill="#ffd4a1"/><path d="M8.324 204.453c1.219 5.945 3.727 10.977 7.621 14.871 18.551 18.551 62.953 5.668 108.559-28.48 11.89-8.903 23.86-19.254 35.473-30.867 11.613-11.614 21.964-23.582 30.855-35.465 34.16-45.617 47.047-90.016 28.492-108.567-3.89-3.894-8.922-6.406-14.87-7.62 4.585 22.378-9.114 57.663-36.099 93.698-8.902 11.88-19.253 23.848-30.867 35.461s-23.586 21.97-35.476 30.871c-36.035 26.985-71.32 40.684-93.688 36.098zm0 0" fill="#ffc183"/><path d="M37.836 47.43l24.86 41.129 61.812 102.28c11.883-8.898 23.855-19.245 35.469-30.859 11.613-11.613 21.96-23.585 30.863-35.472L88.559 62.695 47.426 37.84c-6.239-3.766-13.356 3.351-9.59 9.59zm0 0" fill="#fda736"/><path d="M114.98 175.086l9.524 15.754c11.894-8.903 23.86-19.25 35.476-30.856 11.606-11.617 21.965-23.593 30.856-35.48l-15.762-9.52c-8.265 10.72-17.703 21.477-28.164 31.93-10.453 10.457-21.21 19.899-31.93 28.172zm0 0" fill="#fd8f07"/><path d="M30.785 51.95h12.008c5.055 0 9.152-4.102 9.152-9.157V30.789c0-5.059-4.097-9.156-9.152-9.156H30.785a9.157 9.157 0 0 0-9.156 9.156v12.004c.004 5.055 4.101 9.156 9.156 9.156zm0 0" fill="#fef5e3"/><path d="M332.707 235.762h24.566v110.394h-24.566zm0 0" fill="#6163aa"/><path d="M390.973 246.379h-91.965c-9.2 0-16.66-7.461-16.66-16.66V198.64c0-9.2 7.46-16.657 16.66-16.657h91.965c9.199 0 16.656 7.457 16.656 16.657v31.078c0 9.199-7.457 16.66-16.656 16.66zm0 0" fill="#fda736"/><path d="M407.633 198.64v31.083c0 9.199-7.461 16.652-16.66 16.652h-18.004c9.203 0 16.664-7.453 16.664-16.652V198.64c0-9.203-7.461-16.66-16.664-16.66h18.004c9.199 0 16.66 7.457 16.66 16.66zm0 0" fill="#fd8f07"/><path d="M480.7 457.262H52.69c-7.16 0-12.261-6.95-10.128-13.782l4.32-13.82 31.512-100.918a10.6 10.6 0 0 1 10.128-7.453h356.344a10.6 10.6 0 0 1 10.13 7.453l31.51 100.918 4.321 13.82c2.133 6.833-2.969 13.782-10.129 13.782zm0 0" fill="#fef5e3"/><path d="M480.7 457.262H52.69c-7.16 0-12.261-6.95-10.128-13.782l4.32-13.82h439.625l4.32 13.82c2.133 6.833-2.969 13.782-10.129 13.782zm0 0" fill="#fd8f07"/><path d="M171.207 462.324c0 23.293-18.883 42.176-42.176 42.176s-42.176-18.883-42.176-42.176 18.883-42.176 42.176-42.176 42.176 18.883 42.176 42.176zm0 0" fill="#383c7c"/><path d="M144.805 462.324c0 8.711-7.063 15.774-15.774 15.774s-15.77-7.063-15.77-15.774c0-8.71 7.06-15.773 15.77-15.773s15.774 7.062 15.774 15.773zm0 0" fill="#fd8f07"/><path d="M310.297 462.324c0 23.293-18.883 42.176-42.176 42.176-23.293 0-42.176-18.883-42.176-42.176s18.883-42.176 42.176-42.176c23.293 0 42.176 18.883 42.176 42.176zm0 0" fill="#383c7c"/><path d="M283.895 462.324c0 8.711-7.063 15.774-15.774 15.774-8.71 0-15.773-7.063-15.773-15.774 0-8.71 7.062-15.773 15.773-15.773 8.711 0 15.774 7.062 15.774 15.773zm0 0" fill="#fd8f07"/><path d="M449.387 462.324c0 23.293-18.883 42.176-42.176 42.176-23.293 0-42.176-18.883-42.176-42.176s18.883-42.176 42.176-42.176c23.293 0 42.176 18.883 42.176 42.176zm0 0" fill="#383c7c"/><path d="M422.98 462.324c0 8.711-7.058 15.774-15.77 15.774-8.71 0-15.772-7.063-15.772-15.774 0-8.71 7.062-15.773 15.773-15.773 8.71 0 15.77 7.062 15.77 15.773zm0 0" fill="#fd8f07"/><path d="M438.809 283.563c0 9.062-7.344 16.406-16.403 16.406-9.062 0-16.406-7.344-16.406-16.406 0-9.06 7.344-16.407 16.406-16.407 9.059 0 16.403 7.348 16.403 16.406zm0 0" fill="#fef5e3"/><path d="M474.617 376.18h-71.976c-8.293 0-15.016-6.723-15.016-15.012 0-8.293 6.723-15.016 15.016-15.016h71.976c8.293 0 15.012 6.723 15.012 15.016 0 8.289-6.719 15.012-15.012 15.012zm0 0" fill="#fda736"/><path d="M118.074 346.156h62.64v25.473h-62.64zm0 0" fill="#2de0c7"/><path d="M314.777 206.68a7.497 7.497 0 0 0-7.5 7.5c0 4.144 3.356 7.5 7.5 7.5h.11a7.5 7.5 0 0 0 7.5-7.5 7.5 7.5 0 0 0-7.5-7.5zm0 0M375.203 221.68c4.145 0 7.5-3.356 7.5-7.5 0-4.145-3.355-7.5-7.5-7.5h-.11a7.497 7.497 0 0 0-7.5 7.5c0 4.144 3.356 7.5 7.5 7.5zm0 0M129.031 439.05c-12.832 0-23.273 10.442-23.273 23.274s10.441 23.274 23.273 23.274c12.836 0 23.274-10.442 23.274-23.274s-10.438-23.273-23.274-23.273zm0 31.548c-4.558 0-8.27-3.711-8.27-8.274 0-4.558 3.712-8.27 8.27-8.27 4.563 0 8.274 3.712 8.274 8.27 0 4.563-3.711 8.274-8.274 8.274zm0 0M268.121 439.05c-12.832 0-23.273 10.442-23.273 23.274s10.441 23.274 23.273 23.274c12.832 0 23.274-10.442 23.274-23.274s-10.442-23.273-23.274-23.273zm0 31.548c-4.562 0-8.27-3.711-8.27-8.274 0-4.558 3.712-8.27 8.27-8.27 4.563 0 8.274 3.712 8.274 8.27 0 4.563-3.711 8.274-8.274 8.274zm0 0M407.21 439.05c-12.831 0-23.272 10.442-23.272 23.274s10.437 23.274 23.273 23.274c12.832 0 23.273-10.442 23.273-23.274s-10.441-23.273-23.273-23.273zm0 31.548c-4.562 0-8.272-3.711-8.272-8.274 0-4.558 3.71-8.27 8.273-8.27 4.559 0 8.27 3.712 8.27 8.27 0 4.563-3.711 8.274-8.27 8.274zm0 0M129.047 390.016h-.07a7.497 7.497 0 0 0-7.497 7.433 7.495 7.495 0 0 0 7.434 7.567l.11.004h.066a7.504 7.504 0 0 0 7.5-7.438 7.505 7.505 0 0 0-7.434-7.566zm0 0M268.11 405.02h.066a7.5 7.5 0 0 0 7.5-7.434 7.5 7.5 0 0 0-7.434-7.57h-.176a7.498 7.498 0 0 0-7.5 7.433 7.495 7.495 0 0 0 7.434 7.567zm0 0M407.2 405.02h.066c4.109 0 7.46-3.317 7.5-7.438a7.505 7.505 0 0 0-7.434-7.566h-.18a7.5 7.5 0 0 0-.063 15zm0 0"/><path d="M504.492 243.95h-38.355a7.5 7.5 0 0 0-7.5 7.5v24.613h-13.54c-3.152-9.516-12.132-16.403-22.69-16.403-13.184 0-23.907 10.723-23.907 23.903 0 10.562 6.887 19.539 16.402 22.695v7.527h-50.129V253.88h26.2c13.32 0 24.16-10.84 24.16-24.16V198.64c0-13.32-10.84-24.16-24.16-24.16h-39.664a7.5 7.5 0 0 0-7.5 7.503 7.5 7.5 0 0 0 7.5 7.5h39.664c5.05 0 9.156 4.106 9.156 9.157v31.078c0 5.05-4.106 9.156-9.156 9.156h-91.965c-5.051 0-9.156-4.105-9.156-9.156V198.64c0-5.051 4.105-9.157 9.156-9.157h19.637a7.5 7.5 0 0 0 7.5-7.5 7.5 7.5 0 0 0-7.5-7.504h-19.637c-13.32 0-24.16 10.84-24.16 24.16v31.079c0 13.32 10.84 24.16 24.16 24.16h26.195v59.906h-14.918v-9.305a7.5 7.5 0 0 0-7.5-7.5 7.5 7.5 0 0 0-7.504 7.5v9.305h-5.433v-30.222c0-4.145-3.356-7.5-7.5-7.5a7.5 7.5 0 0 0-7.5 7.5v30.222h-15V227.73c0-11.218-8.407-20.503-19.254-21.898 13.265-18.437 22.191-39.582 26.117-62.258a7.497 7.497 0 0 0-6.11-8.668 7.494 7.494 0 0 0-8.667 6.11c-4.809 27.77-17.918 53.011-37.914 73.007-25.747 25.747-59.977 39.922-96.387 39.922-24.953 0-48.88-6.66-69.754-19.136 22.652-2.52 51.137-15.508 81.125-37.965 0 0 .004 0 .004-.004.012-.008.023-.016.031-.024 12.445-9.32 24.637-19.93 36.242-31.535 11.617-11.613 22.235-23.82 31.563-36.277 22.433-29.957 35.414-58.41 37.957-81.05a136.045 136.045 0 0 1 18.926 62.093 7.505 7.505 0 0 0 7.906 7.074 7.502 7.502 0 0 0 7.074-7.906C266.645 72.012 250.992 37 224.629 10.637a.047.047 0 0 1-.02-.02c-12.445-12.422-34.078-14-60.922-4.441-14.535 5.18-30.234 13.469-46.039 24.16H59.422c-.238-8.973-7.598-16.203-16.629-16.203H30.785c-9.183 0-16.656 7.469-16.656 16.652v12.008c0 9.031 7.234 16.39 16.207 16.633v58.222c-10.73 15.864-19.043 31.622-24.215 46.196-9.504 26.781-7.898 48.367 4.516 60.785 28.582 28.578 66.578 44.316 106.996 44.316 14.418 0 28.523-2.011 42.004-5.886l-24.52 50.726H88.523c-7.968 0-14.918 5.11-17.293 12.715l-9.34 29.918a7.5 7.5 0 1 0 14.32 4.469l9.34-29.914a3.098 3.098 0 0 1 2.973-2.188h326.38v9.867H402.64c-12.414 0-22.516 10.102-22.516 22.512 0 12.414 10.102 22.516 22.516 22.516h61.656l12.012 38.48H436.39c-8.2-5.976-18.282-9.512-29.18-9.512-10.902 0-20.984 3.536-29.184 9.512h-80.722c-8.2-5.976-18.285-9.512-29.184-9.512-10.898 0-20.98 3.536-29.18 9.512h-80.726c-8.2-5.976-18.281-9.512-29.18-9.512-10.902 0-20.984 3.536-29.183 9.512H57.078l8.934-28.61a7.499 7.499 0 0 0-4.926-9.394 7.499 7.499 0 0 0-9.395 4.926l-16.289 52.16c-1.734 5.563-.754 11.442 2.7 16.133 3.449 4.691 8.77 7.383 14.593 7.383h26.723C80.691 491.023 102.457 512 129.031 512c26.578 0 48.344-20.977 49.617-47.242h39.86C219.78 491.023 241.547 512 268.12 512c26.574 0 48.34-20.977 49.613-47.242h39.86C358.87 491.023 380.633 512 407.21 512c26.574 0 48.34-20.977 49.613-47.242h23.871c5.82 0 11.14-2.688 14.59-7.383 3.453-4.691 4.438-10.57 2.7-16.133l-18.165-58.176c9.91-2.355 17.309-11.277 17.309-21.898 0-12.414-10.098-22.516-22.512-22.516h-8.668l-3.793-12.148c-2.375-7.606-9.324-12.719-17.293-12.719h-14.957v-7.527a24 24 0 0 0 15.192-15.195h48.777c4.145 0 7.5-3.356 7.5-7.5a7.5 7.5 0 0 0-7.5-7.5h-20.238v-17.114h30.851a7.5 7.5 0 1 0 .004-15zm-389.969-55.122c-25.738 18.297-50.742 29.258-69.183 31.149v-97.688c4.933-7.027 10.375-14.074 16.258-21.039zm40.149-34.152c-9.059 9.058-18.484 17.46-28.098 25.086L52.13 56.574a16.767 16.767 0 0 0 4.445-4.445l123.188 74.445c-7.625 9.617-16.032 19.043-25.09 28.102zm34.152-40.149l-87.578-52.925c6.969-5.883 14.012-11.332 21.04-16.262h97.687c-1.887 18.441-12.848 43.445-31.149 69.187zM168.72 20.312c21.097-7.515 37.187-7.183 45.3.934 2.38 2.379 4.051 5.45 5.067 9.094H146.44c7.657-4.11 15.133-7.485 22.278-10.027zM87.73 53.434L74.34 45.34h23.055a326.279 326.279 0 0 0-9.665 8.094zM29.133 42.793V30.789c0-.914.742-1.656 1.652-1.656h12.008c.91 0 1.652.742 1.652 1.656v12.004c0 .91-.742 1.652-1.652 1.652H30.785c-.91 0-1.652-.742-1.652-1.652zm16.207 31.55l8.09 13.391a331.1 331.1 0 0 0-8.09 9.66zM20.258 168.86c2.55-7.183 5.945-14.703 10.078-22.41v72.64c-3.64-1.015-6.715-2.69-9.09-5.066-8.098-8.097-8.45-24.136-.988-45.164zM340.207 277.23h9.566v10.528h-9.566zm9.566-23.351v8.351h-9.566v-8.351zm-9.566 48.879h9.566v11.027h-9.566zm-115.578-78.13a153.608 153.608 0 0 0 3.836-3.983h9.297c3.906 0 7.086 3.18 7.086 7.085v61.836h-81.36l16.223-33.562c.059-.121.105-.246.156-.367 16.461-7.43 31.61-17.856 44.762-31.008zm-68.34 79.829c.406.066.82.113 1.246.113h87.313v9.215H151.78zm202.86 145.3h-42.965a49.44 49.44 0 0 0-5.258-12.597h53.48a49.3 49.3 0 0 0-5.258 12.598zm-139.09 0h-42.961a49.44 49.44 0 0 0-5.258-12.597h53.476a49.44 49.44 0 0 0-5.257 12.598zm-169.871-1.269a3.039 3.039 0 0 1-.465-2.773l2.672-8.555h33.832a49.29 49.29 0 0 0-5.254 12.598H52.695a3.042 3.042 0 0 1-2.507-1.27zM129.03 497c-19.117 0-34.672-15.555-34.672-34.676 0-19.117 15.555-34.676 34.672-34.676 19.121 0 34.676 15.559 34.676 34.676 0 19.121-15.555 34.676-34.676 34.676zm139.09 0c-19.121 0-34.676-15.555-34.676-34.676 0-19.117 15.555-34.676 34.676-34.676s34.676 15.559 34.676 34.676c0 19.121-15.555 34.676-34.676 34.676zm139.09 0c-19.121 0-34.676-15.555-34.676-34.676 0-19.117 15.555-34.676 34.676-34.676 19.117 0 34.672 15.559 34.672 34.676 0 19.121-15.555 34.676-34.672 34.676zm75.992-48.512c-.351.477-1.14 1.27-2.508 1.27h-25.422a49.44 49.44 0 0 0-5.257-12.598h30.98l2.672 8.555c.406 1.308-.117 2.3-.465 2.773zm-1.074-87.32c0 4.14-3.371 7.512-7.512 7.512h-71.976c-4.145 0-7.512-3.371-7.512-7.512a7.517 7.517 0 0 1 7.512-7.512h71.976c4.14 0 7.512 3.367 7.512 7.512zm-37.266-32.379c1.371 0 2.567.879 2.977 2.184l2.394 7.683h-20.328v-9.867zm-22.457-36.32c-4.91 0-8.906-3.996-8.906-8.906s3.996-8.903 8.906-8.903 8.903 3.992 8.903 8.903-3.993 8.906-8.903 8.906zm0 0"/><path d="M188.215 371.629v-25.473a7.5 7.5 0 0 0-7.5-7.504h-62.64a7.504 7.504 0 0 0-7.505 7.504v25.473a7.5 7.5 0 0 0 7.504 7.5h62.64c4.145 0 7.5-3.356 7.5-7.5zm-15-7.5h-47.64v-10.473h47.64zm0 0M204.941 355.777h43.707c4.145 0 7.5-3.355 7.5-7.5 0-4.144-3.355-7.5-7.5-7.5h-43.707a7.497 7.497 0 0 0-7.5 7.5c0 4.145 3.356 7.5 7.5 7.5zm0 0M204.941 374.883h18.23a7.5 7.5 0 1 0 0-15h-18.23a7.5 7.5 0 0 0-7.5 7.5c0 4.144 3.356 7.5 7.5 7.5zm0 0"/></svg>