<svg xmlns="http://www.w3.org/2000/svg" viewBox="0 0 467.071 467.071"><path fill="#808083" d="M240.688 443.831l-20.848-75.286h-15.054l-20.848 75.286h-49.079v23.24h154.907v-23.24z"/><path opacity=".3" fill="#5b5b5f" d="M289.767 443.831h-49.079l-20.848-75.286h-7.527v98.526h77.454z"/><circle cx="212.313" cy="166.222" r="159.149" fill="#5f95dd"/><path d="M258.318 50.313c-1.102 1.427-2.241 2.935-2.522 4.716-.459 2.907 1.452 5.602 3.26 7.924 2.744 3.525 5.812 7.269 10.147 8.35 8.079 2.014 15.309-6.074 23.609-6.74 6.665-.535 12.851 3.795 19.533 4.037 7.581.275 11.497-6.948 13.03-14.377A159.59 159.59 0 0 0 283.4 23.802c-6.093 7.887-18.99 18.626-25.082 26.511zM364.161 118.446c-2.941 8.971-11.209 6.597-21.931 7.422-13.767 1.059-22.133-5.711-34.849-8.238-11.801-2.346-22.172 5.782-27.686 15.567-4.094 7.264-10.509 23.341-5.121 30.762 2.575 3.546 6.439 5.894 10.198 8.147 5.412 3.244 10.851 6.501 16.702 8.862 6.727 2.714 14.446 4.571 18.725 10.428 3.524 4.823 3.809 11.274 3.197 17.216-1.662 16.131-15.71 30.448-2.884 45.104 4.819 5.507 11.378 8.553 18.696 8.56 20.239-26.696 32.256-59.969 32.256-96.054-.002-16.647-2.562-32.694-7.303-47.776zM219.729 39.468c5.778 2.633 13.046.152 17.038-4.786 3.992-4.938 7.682-18.263 6.748-24.545a159.903 159.903 0 0 0-39.65-2.844c1.907 5.841 5.3 10.909 6.324 16.976 1.037 6.145 3.87 12.615 9.54 15.199zM86.971 122.562a177.763 177.763 0 0 0 25.393 22.103c2.508 1.796 5.217 3.723 6.213 6.643 2.898 8.488-2.078 17.652 2.993 27.327 4.794 9.148 15.382 14.854 18.119 24.812 2.135 7.767-1.147 16.198.708 24.038 2.249 9.508 11.43 15.926 14.746 25.117 2.11 5.847 1.659 12.313 3.2 18.335s6.395 12.162 12.585 11.596c7.479-.683 10.551-9.903 11.135-17.391.585-7.487 1.352-16.517 8.056-19.902 3.566-1.8 8.224-1.521 11.014-4.379 4.637-4.749-.027-12.528.132-19.164.17-7.073 5.988-12.545 11.368-17.14l20.336-17.371c4.708-3.981 5.911-11.11 3.979-16.965-1.931-5.855-6.491-10.528-11.621-13.947-5.517-3.678-12.622-6.15-18.743-3.6-4.659 1.941-8.263 6.59-13.302 6.881-4.647.268-8.656-3.421-10.885-7.508-2.228-4.087-3.28-8.736-5.538-12.806-6.485-11.685-16.98-10.973-28.298-12.723-11.426-1.767-23.047-7.102-31.562-14.909-1.364-1.251-2.717-2.642-3.258-4.412-3.027-9.904 14.515-14.286 20.581-14.086 4.974.163 10.049 1.614 14.84.271 4.523-1.267 7.983-4.799 11.827-7.498 10.879-7.639 26.778 2.777 28.882-17.886.824-8.093-2.308-16.007-5.381-23.54-4.455-10.922-8.463-21.281-11.388-32.514-45.265 11.469-82.792 42.337-103.23 83.237 5.441 5.856 3.847 3.12 6.129 10.79 1.909 6.416 6.36 11.738 10.97 16.591z" fill="#abcb57"/><path d="M366.765 25.911l11.769-11.77L364.391 0l-37.343 37.343 14.143 14.142 11.412-11.412c31.267 34.688 48.376 79.102 48.376 126.149 0 50.395-19.625 97.772-55.26 133.407-71.189 71.189-185.581 73.48-259.555 6.883l11.413-11.413-14.143-14.143L46.092 318.3l14.143 14.143 11.774-11.774c39.671 36.081 89.979 54.125 140.305 54.121 53.428-.005 106.874-20.345 147.549-61.019 39.412-39.412 61.117-91.813 61.117-147.549-.001-52.392-19.182-101.832-54.215-140.311z" fill="#59595a"/><path d="M324.849 53.685L99.777 278.757c62.152 62.152 162.92 62.152 225.072 0s62.152-162.92 0-225.072z" opacity=".3" fill="#5b5b5f"/></svg>