<svg height="512pt" viewBox="0 -16 512 512" width="512pt" xmlns="http://www.w3.org/2000/svg"><path d="M285.488 452.621H57.218L44.79 292.875l240.7 23.414zm0 0" fill="#383c7c"/><path d="M391.988 470.684H49.738c-6.593 0-11.941-5.348-11.941-11.946 0-6.593 5.348-11.941 11.941-11.941h342.25zm0 0" fill="#898ec9"/><path d="M459.078 396.445c-.09 2.114-.18 4.114-.27 6.012-.609 12.43-10.84 22.2-23.277 22.2h-214.71c-114.93 0-210.571-94.04-210.36-208.962.21-115.02 93.508-208.199 208.578-208.199 85.742 0 141.352 38.75 177.23 92.621 6.86 10.301 13 21.149 18.493 32.39 37.398 76.571 44.699 171.15 44.886 231.56.051 12.378-.207 23.32-.57 32.378zm0 0" fill="#fef5e3"/><path d="M458.54 404.977c-1.75 11.21-11.419 19.68-23.009 19.68h-214.71c-114.93 0-210.571-94.04-210.36-208.962.11-62.386 27.61-118.347 71.117-156.488C49.45 95.828 29.95 143.785 29.86 196.297c-.21 114.922 95.43 208.96 210.36 208.96h214.71c1.231 0 2.442-.1 3.61-.28zm0 0" fill="#ffe5c0"/><path d="M459.078 396.445c-.207.012-.418.012-.629.012h-99.808c-61.782 0-112.032-50.262-112.032-112.031v-72.29c0-61.769 50.25-112.019 112.032-112.019h37.629c6.859 10.301 13 21.149 18.492 32.39 37.398 76.571 44.699 171.15 44.886 231.56.051 12.378-.207 23.32-.57 32.378zm0 0" fill="#ffe5c0"/><path d="M459.648 364.063H358.633c-9.309 0-18.235-1.594-26.543-4.532a79 79 0 0 1-13.621-6.328 79.992 79.992 0 0 1-24.344-22.082C284.605 318.011 279 301.875 279 284.43v-72.29c0-43.976 35.656-79.632 79.633-79.632h56.133c8.785 18.004 15.914 36.996 21.671 56.304 3.66 12.27 6.77 24.657 9.403 37.008 1.2 5.57 2.285 11.125 3.3 16.66a606.865 606.865 0 0 1 4.45 28.528c4.566 34.586 5.976 67 6.058 93.054zm0 0" fill="#2de0c7"/><path d="M453.59 271.008l-93.07 93.055h-1.887c-9.309 0-18.235-1.594-26.543-4.532l117.047-117.05a601.873 601.873 0 0 1 4.453 28.527zm0 0M445.84 225.82L318.469 353.203a79.992 79.992 0 0 1-24.344-22.082l142.313-142.309c3.656 12.27 6.769 24.657 9.402 37.008zm0 0" fill="#9bf2e5"/><path d="M458.45 384.453h-99.813c-55.157 0-100.028-44.871-100.028-100.023v-72.29c0-55.152 44.871-100.023 100.028-100.023H416.5c11.262 0 20.39 9.13 20.39 20.39 0 11.263-9.128 20.391-20.39 20.391h-57.863c-32.668 0-59.242 26.579-59.242 59.247v72.285c0 32.668 26.574 59.242 59.242 59.242h99.812c11.262 0 20.39 9.133 20.39 20.394 0 11.262-9.128 20.387-20.39 20.387zm0 0" fill="#898ec9"/><path d="M504.496 440.969c0 17.699-14.344 32.043-32.043 32.043H299.801c-38.184 0-73.082-22.465-88.887-57.235-3.726-8.215-10.566-14.425-18.734-17.515a33.564 33.564 0 0 0-11.817-2.157h-.875c-17.687 0-32.043-14.343-32.043-32.043s14.356-32.042 32.043-32.042h.875a97.28 97.28 0 0 1 38.29 7.851c22.035 9.414 40.34 26.813 50.605 49.383 5.43 11.945 17.422 19.672 30.543 19.672h172.652c17.7 0 32.043 14.344 32.043 32.043zm0 0" fill="#c5ee09"/><path d="M218.652 339.871l-26.472 58.39a33.564 33.564 0 0 0-11.817-2.156h-.875c-17.687 0-32.043-14.343-32.043-32.042s14.356-32.043 32.043-32.043h.875a97.266 97.266 0 0 1 38.29 7.851zm0 0" fill="#4e5093"/><path d="M180.434 248.168c0 13.004-10.54 23.543-23.543 23.543s-23.543-10.54-23.543-23.543c0-13.004 10.539-23.547 23.543-23.547s23.543 10.543 23.543 23.547zm0 0" fill="#898ec9"/><path d="M357.07 284.25h-14.132c-7.637 0-13.833-6.191-13.833-13.832v-44.266c0-7.64 6.196-13.832 13.832-13.832h14.133zm0 0" fill="#fef5e3"/><path d="M10.547 206.402a7.505 7.505 0 0 0 8.086-6.871C22.73 149.2 45.527 102.555 82.82 68.184a7.501 7.501 0 1 0-10.168-11.032C32.582 94.082 8.086 144.215 3.68 198.316a7.504 7.504 0 0 0 6.867 8.086zm0 0"/><path d="M472.457 401.426h-6.094c.164-3.528.305-7.121.418-10.742 11.324-3.555 19.559-14.145 19.559-26.622 0-12.542-8.324-23.175-19.735-26.671-1.457-39.2-5.77-76.309-12.843-110.332a7.497 7.497 0 0 0-8.867-5.817 7.498 7.498 0 0 0-5.817 8.867c6.797 32.692 10.985 68.356 12.469 106.063h-92.91c-28.532 0-51.742-23.211-51.742-51.742v-28.762h14.71v14.75c0 11.762 9.57 21.332 21.332 21.332h14.137a7.5 7.5 0 0 0 7.5-7.5v-71.93a7.5 7.5 0 0 0-7.5-7.5h-14.137c-11.761 0-21.332 9.57-21.332 21.332v14.516h-14.71v-28.527c0-28.532 23.21-51.743 51.742-51.743H416.5c.754 0 1.496-.039 2.234-.097 4.618 11.824 8.832 24.465 12.528 37.648a7.505 7.505 0 0 0 7.218 5.48 7.496 7.496 0 0 0 7.223-9.527c-3.8-13.562-8.133-26.586-12.89-38.789 7.007-5.074 11.578-13.312 11.578-22.605 0-15.38-12.512-27.89-27.891-27.89h-8.484C365.536 35.21 301.976 0 219.039 0c-42.766 0-84.117 12.48-119.594 36.098a7.5 7.5 0 1 0 8.313 12.488C140.762 26.613 179.238 15 219.035 15c74.16 0 131.688 30.152 171.192 89.613h-31.594c-59.29 0-107.524 48.239-107.524 107.528v28.523h-17.824v-.137a7.5 7.5 0 1 0-15 0v.137h-5.37v-7.129a7.5 7.5 0 1 0-15 0v7.13h-10.903c-3.364-13.505-15.59-23.544-30.125-23.544-17.117 0-31.043 13.926-31.043 31.043 0 17.121 13.926 31.047 31.043 31.047 14.535 0 26.761-10.04 30.125-23.547h10.902v7.36a7.5 7.5 0 1 0 15 0v-7.36h5.64c.868 3.191 3.77 5.535 7.231 5.535s6.367-2.344 7.235-5.535h18.09v28.766c0 59.289 48.234 107.523 107.523 107.523h93.097c-.109 3.2-.234 6.363-.382 9.473H299.805c-10.192 0-19.5-5.996-23.72-15.274-11-24.195-30.581-42.843-54.16-53.02-.058-.027-.113-.062-.175-.093-.098-.043-.2-.074-.3-.117a104.781 104.781 0 0 0-41.083-8.402h-.875c-21.805 0-39.543 17.738-39.543 39.543s17.738 39.542 39.543 39.542h.875c9.223 0 17.707 4.918 22.367 12.727-45.613-4.105-88.714-23.687-122.34-55.809-36.19-34.574-58.164-80.566-61.87-129.503a7.486 7.486 0 0 0-8.044-6.915c-4.128.317-7.226 3.915-6.914 8.047 2.282 30.121 10.996 59.188 25.309 85.508C12.187 322.72 0 338.238 0 356.56c0 13.62 6.742 25.687 17.059 33.066v.074c0 17.422 13.34 31.785 30.34 33.418l1.261 16.235c-10.219.562-18.363 9.03-18.363 19.386 0 10.723 8.723 19.446 19.441 19.446h228.098c.012 0 .027-.004.043-.004a104.555 104.555 0 0 0 21.926 2.336h172.652c21.805 0 39.543-17.743 39.543-39.547s-17.738-39.543-39.543-39.543zM336.605 226.152a6.338 6.338 0 0 1 6.332-6.332h6.633v56.93h-6.633c-3.492 0-6.332-2.84-6.332-6.328zm-179.714 38.059c-8.848 0-16.043-7.195-16.043-16.043 0-8.848 7.195-16.047 16.043-16.047s16.043 7.2 16.043 16.047c0 8.848-7.2 16.043-16.043 16.043zm109.218-52.07c0-51.02 41.508-92.524 92.528-92.524h57.86c7.108 0 12.894 5.781 12.894 12.89 0 7.11-5.786 12.891-12.895 12.891h-57.86c-36.804 0-66.745 29.942-66.745 66.747v28.523h-25.782zm0 72.289v-28.762h25.782v28.762c0 36.8 29.941 66.742 66.746 66.742h99.812c7.106 0 12.89 5.781 12.89 12.89s-5.78 12.895-12.89 12.895h-99.812c-51.02-.004-92.528-41.508-92.528-92.527zm42.41 131.996h24.66v49.09h-24.66zm39.66 0h24.657v49.09H348.18zm39.657 0h24.66v49.09h-24.66zm39.66 0h24.656v49.09h-24.656zm-133.976-.496v49.36a90.027 90.027 0 0 1-36.368-10.556l20.489-44.828a41.125 41.125 0 0 0 15.879 6.024zm-27.336-17.047l-21.739 47.57a90.006 90.006 0 0 1-22.797-26.195l35.36-38.016a89.216 89.216 0 0 1 5.422 10.117c1.05 2.317 2.328 4.485 3.754 6.524zm-202.48 40.414l-1.247-16.02h96.238c.22 0 .434-.015.645-.035a216.15 216.15 0 0 0 51.844 8.688 105.008 105.008 0 0 0 5.171 7.367zm38.995-42.137a220.524 220.524 0 0 0 19.242 11.117H61.29l-.86-11.078h41.5c.259 0 .516-.015.77-.039zm145.348-27c-.477.32-.93.692-1.34 1.13l-32.594 35.046a41.015 41.015 0 0 0-12.129-11.535l20.34-44.867a90.532 90.532 0 0 1 25.723 20.226zm-68.555 18.45c-13.531 0-24.543-11.012-24.543-24.548 0-13.53 11.012-24.542 24.543-24.542h.875a89.674 89.674 0 0 1 28.153 4.539l-20.536 45.293a40.773 40.773 0 0 0-7.617-.743zM70.032 371.37A224.72 224.72 0 0 0 82.25 382.2H59.262l-1.867-23.953a222.126 222.126 0 0 0 12.636 13.125zM36.89 331.195a222.971 222.971 0 0 0 3.82 5.766c.004.105 0 .21.008.32l3.496 44.918H40.64C26.504 382.2 15 370.695 15 356.56c0-12.864 9.523-23.543 21.89-25.364zm-3.512 65.34c2.36.43 4.781.664 7.262.664h4.742l.816 10.52a18.626 18.626 0 0 1-12.82-11.184zm16.36 66.649a4.447 4.447 0 0 1-4.442-4.446 4.446 4.446 0 0 1 4.441-4.441h180.664c3.684 3.23 7.586 6.2 11.672 8.887zm422.718 2.332h-5.305v-49.09h5.305c13.531 0 24.543 11.011 24.543 24.543 0 13.535-11.012 24.547-24.543 24.547zm0 0"/><path d="M340.68 96.18h.058a7.5 7.5 0 0 0 7.5-7.442c.035-4.14-3.297-7.523-7.437-7.558h-.184a7.501 7.501 0 0 0-7.5 7.437 7.505 7.505 0 0 0 7.442 7.563zm0 0M276.73 120.262a7.5 7.5 0 1 0 0-15h-.12a7.5 7.5 0 1 0 0 15zm0 0M238.219 177.945h.12a7.5 7.5 0 1 0 0-15h-.12a7.497 7.497 0 0 0-7.5 7.5 7.5 7.5 0 0 0 7.5 7.5zm0 0"/></svg>