<svg height="511pt" viewBox="0 0 511 512" width="511pt" xmlns="http://www.w3.org/2000/svg"><path d="M473.21 219.953c0 139.184-113.573 252.758-252.757 252.758-88.527 0-166.426-45.512-211.562-114.41-2.891-4.41 1.765-9.848 6.546-7.625 32.34 15.031 68.387 23.422 106.407 23.422 139.98 0 252.758-112.778 252.754-252.754 0-38.02-8.391-74.067-23.422-106.406-2.223-4.782 3.215-9.438 7.625-6.547 68.898 45.136 114.41 123.035 114.41 211.562zm0 0" fill="#fed370"/><path d="M473.207 219.96c0 139.18-113.57 252.75-252.75 252.75-77.578 0-146.988-34.94-193.348-89.952 43.977 37.07 100.79 59.41 162.809 59.422 139.18 0 252.762-113.582 252.762-252.762-.012-62.02-22.352-118.828-59.422-162.809 55.012 46.36 89.949 115.77 89.949 193.352zm0 0" fill="#fda736"/><path d="M466.293 286.172a7.55 7.55 0 0 1-1.754-.211 7.5 7.5 0 0 1-5.547-9.04 244.701 244.701 0 0 0 6.719-56.968c0-18.867-2.156-37.683-6.41-55.922a7.504 7.504 0 0 1 5.601-9.008c4.028-.933 8.067 1.567 9.008 5.602 4.516 19.355 6.8 39.316 6.8 59.332 0 20.363-2.394 40.707-7.128 60.461a7.507 7.507 0 0 1-7.289 5.754zm0 0M220.457 480.21h-.004c-88.078 0-169.512-44.038-217.836-117.8-3.16-4.82-2.75-10.98 1.012-15.332 3.75-4.336 9.766-5.625 14.973-3.203 29.199 13.57 60.449 21.137 92.878 22.484a7.5 7.5 0 0 1 7.18 7.805c-.172 4.14-3.664 7.36-7.805 7.184-31.71-1.32-62.367-8.243-91.246-20.602 45.993 65.567 120.489 104.465 200.844 104.465 50.242 0 98.602-15.211 139.848-43.992 40.312-28.13 71.008-67.07 88.773-112.617a7.5 7.5 0 0 1 13.973 5.453c-18.848 48.32-51.406 89.629-94.164 119.465-43.77 30.546-95.102 46.69-148.426 46.69zm0 0"/><path d="M143.82 380.648a7.502 7.502 0 0 1-.629-14.976c61.067-5.219 117.575-32.906 159.114-77.953 41.785-45.313 64.793-104.399 64.793-166.375 0-36.063-7.645-70.801-22.723-103.242-2.422-5.207-1.133-11.227 3.203-14.973C351.93-.637 358.09-1.04 362.91 2.117c45.55 29.844 81.317 74.192 100.703 124.871a7.502 7.502 0 0 1-14.012 5.36C432.274 87.05 401.06 47.118 361.255 19.12c13.836 32.317 20.844 66.668 20.844 102.223 0 65.758-24.422 128.453-68.766 176.543-44.09 47.812-104.059 77.191-168.863 82.734a9.092 9.092 0 0 1-.649.027zm0 0M89.793 240.895h-.035a7.502 7.502 0 0 1-7.465-7.536l.016-2.843a7.502 7.502 0 0 1 7.5-7.465h.035a7.502 7.502 0 0 1 7.465 7.535l-.016 2.844a7.502 7.502 0 0 1-7.5 7.465zm0 0M89.703 269.84h-.035a7.505 7.505 0 0 1-7.465-7.54l.016-2.84a7.499 7.499 0 0 1 7.496-7.464h.039a7.502 7.502 0 0 1 7.465 7.535l-.016 2.844a7.502 7.502 0 0 1-7.5 7.465zm0 0M105.648 253.996h-.035l-2.843-.016a7.5 7.5 0 0 1 .035-15h.035l2.844.016a7.5 7.5 0 0 1-.036 15zm0 0M76.707 253.906h-.039l-2.844-.015a7.494 7.494 0 0 1-7.46-7.536 7.499 7.499 0 0 1 7.495-7.464h.04l2.843.015a7.5 7.5 0 1 1-.035 15zm0 0M165.453 198.238h-.035a7.5 7.5 0 0 1-7.465-7.535l.016-2.844a7.496 7.496 0 0 1 7.496-7.464h.035a7.505 7.505 0 0 1 7.469 7.535l-.016 2.843a7.502 7.502 0 0 1-7.5 7.465zm0 0M165.363 227.184h-.035a7.503 7.503 0 0 1-7.465-7.54l.016-2.84a7.499 7.499 0 0 1 7.496-7.464h.04a7.502 7.502 0 0 1 7.464 7.535l-.016 2.844a7.502 7.502 0 0 1-7.5 7.465zm0 0M181.309 211.34h-.036l-2.843-.012a7.505 7.505 0 0 1-7.465-7.539 7.499 7.499 0 0 1 7.5-7.46h.035l2.844.01a7.5 7.5 0 0 1 7.465 7.536 7.5 7.5 0 0 1-7.5 7.465zm0 0M152.367 211.25h-.039l-2.84-.012a7.5 7.5 0 0 1-7.465-7.535c.02-4.144 3.364-7.5 7.536-7.465l2.843.012a7.503 7.503 0 0 1 7.465 7.54 7.499 7.499 0 0 1-7.5 7.46zm0 0M473.25 380.54h-.035a7.503 7.503 0 0 1-7.465-7.54l.012-2.844a7.501 7.501 0 0 1 7.5-7.46h.039c4.14.019 7.48 3.39 7.46 7.534l-.011 2.844a7.502 7.502 0 0 1-7.5 7.465zm0 0M473.16 409.48h-.035a7.502 7.502 0 0 1-7.465-7.535l.016-2.843a7.499 7.499 0 0 1 7.496-7.465h.039a7.502 7.502 0 0 1 7.465 7.535l-.016 2.844a7.5 7.5 0 0 1-7.5 7.464zm0 0M489.105 393.64h-.035l-2.843-.015a7.5 7.5 0 0 1 .035-15h.035l2.844.016a7.5 7.5 0 0 1-.036 15zm0 0M460.164 393.55h-.039l-2.844-.015a7.502 7.502 0 0 1-7.465-7.535 7.502 7.502 0 0 1 7.5-7.465h.036l2.847.016a7.499 7.499 0 0 1 7.461 7.535 7.499 7.499 0 0 1-7.496 7.465zm0 0M87.848 483.055h-.035a7.503 7.503 0 0 1-7.47-7.535l.016-2.844a7.502 7.502 0 0 1 7.5-7.465h.036c4.14.023 7.484 3.394 7.464 7.535l-.011 2.844a7.5 7.5 0 0 1-7.5 7.465zm0 0M87.758 512h-.035a7.5 7.5 0 0 1-7.465-7.535l.012-2.844a7.502 7.502 0 0 1 7.5-7.465h.035a7.502 7.502 0 0 1 7.465 7.535l-.012 2.844a7.502 7.502 0 0 1-7.5 7.465zm0 0M103.703 496.156h-.035l-2.844-.011a7.502 7.502 0 0 1-7.465-7.536 7.502 7.502 0 0 1 7.5-7.464h.036l2.843.011a7.502 7.502 0 0 1 7.465 7.535 7.502 7.502 0 0 1-7.5 7.465zm0 0M74.758 496.066h-.035l-2.844-.011a7.502 7.502 0 0 1-7.465-7.535 7.502 7.502 0 0 1 7.5-7.465h.035l2.844.011a7.5 7.5 0 1 1-.035 15zm0 0M489.145 26.242h-.036a7.5 7.5 0 0 1-7.464-7.535l.011-2.844a7.502 7.502 0 0 1 7.5-7.465h.04a7.499 7.499 0 0 1 7.46 7.536l-.011 2.843a7.502 7.502 0 0 1-7.5 7.465zm0 0M489.055 55.188h-.04a7.502 7.502 0 0 1-7.46-7.54l.011-2.84a7.502 7.502 0 0 1 7.5-7.464h.036a7.5 7.5 0 0 1 7.464 7.535l-.011 2.844a7.502 7.502 0 0 1-7.5 7.465zm0 0M505 39.344h-.04l-2.843-.016a7.496 7.496 0 0 1-7.46-7.535 7.499 7.499 0 0 1 7.495-7.465h.04l2.843.016a7.5 7.5 0 1 1-.035 15zm0 0M476.055 39.254h-.035l-2.844-.012a7.503 7.503 0 0 1-7.465-7.539 7.499 7.499 0 0 1 7.5-7.46h.035l2.844.01a7.5 7.5 0 0 1-.035 15zm0 0M479.691 99.762h-.148a7.496 7.496 0 0 1-7.465-7.532 7.5 7.5 0 0 1 7.496-7.468H479.723a7.5 7.5 0 1 1-.031 15zm0 0"/><path d="M296.328 149.07h-.117a7.497 7.497 0 0 1-7.5-7.5 7.5 7.5 0 0 1 7.5-7.5h.117a7.5 7.5 0 1 1 0 15zm0 0M371.531 472.758h-.117c-4.14 0-7.5-3.36-7.5-7.5 0-4.14 3.36-7.5 7.5-7.5h.117c4.14 0 7.5 3.36 7.5 7.5 0 4.14-3.36 7.5-7.5 7.5zm0 0M177.191 268.172h-.148c-4.14-.016-7.484-3.39-7.469-7.531a7.503 7.503 0 0 1 7.5-7.47H177.223c4.144.02 7.488 3.392 7.468 7.532a7.498 7.498 0 0 1-7.5 7.469zm0 0M161.684 311.48H161.535a7.5 7.5 0 0 1 .031-15H161.715a7.505 7.505 0 0 1 7.469 7.532 7.503 7.503 0 0 1-7.5 7.468zm0 0"/></svg>