<svg height="512pt" viewBox="0 -51 512 512" width="512pt" xmlns="http://www.w3.org/2000/svg"><path d="M322.172 207.008c0 19.172-3.426 37.539-9.695 54.527a156.998 156.998 0 0 1-22.95 41.434c-28.757 37.34-73.91 61.383-124.687 61.383-86.902 0-157.344-70.442-157.344-157.344 0-.496 0-.977.012-1.469.344-38.992 14.894-74.605 38.715-101.91C75.07 70.57 117.512 49.672 164.84 49.672c86.894 0 157.332 70.441 157.332 157.336zm0 0" fill="#fda736"/><path d="M322.172 207.008c0 19.172-3.426 37.539-9.695 54.527a156.998 156.998 0 0 1-22.95 41.434c-28.757 37.34-73.91 61.383-124.687 61.383-48.613 0-92.078-22.04-120.926-56.68 27.281 22.746 62.379 36.422 100.668 36.422 50.773 0 95.93-24.047 124.688-61.383a157.01 157.01 0 0 0 22.945-41.438c6.273-16.988 9.7-35.351 9.7-54.527 0-38.289-13.685-73.387-36.419-100.656 34.637 28.851 56.676 72.312 56.676 120.918zm0 0" fill="#fd8f07"/><path d="M312.477 261.535a156.998 156.998 0 0 1-22.95 41.434h-84.492c-11.437 0-20.719-9.274-20.719-20.715 0-11.445 9.282-20.719 20.72-20.719zm0 0M184.316 181.418c0 6.664-2.699 12.7-7.066 17.055a23.994 23.994 0 0 1-17.047 7.066H7.508c.344-38.992 14.894-74.605 38.715-101.91h50.562c14.817 0 26.832 12.016 26.832 26.832 0 7.414 3 14.113 7.86 18.973 4.863 4.859 11.558 7.859 18.972 7.859h9.754c13.317 0 24.113 10.809 24.113 24.125zm0 0" fill="#fed370"/><path d="M504.5 207.012c0 76.476-61.996 138.468-138.469 138.468-76.476 0-138.472-61.992-138.472-138.468 0-76.477 61.996-138.469 138.472-138.469 76.473 0 138.469 61.992 138.469 138.469zm0 0" fill="#6163aa"/><path d="M504.504 207.008c0 76.476-61.996 138.472-138.473 138.472-44.687 0-84.418-21.152-109.742-54 23.387 18.04 52.691 28.77 84.508 28.77 76.476 0 138.476-61.984 138.476-138.46 0-31.806-10.718-61.114-28.75-84.49 32.836 25.325 53.98 65.044 53.98 109.708zm0 0" fill="#4e5093"/><path d="M448.598 159.871c0 13.45-10.903 24.352-24.352 24.352-13.45 0-24.348-10.903-24.348-24.352 0-13.445 10.899-24.348 24.348-24.348 13.45 0 24.352 10.903 24.352 24.348zm0 0" fill="#4e5093"/><path d="M448.594 159.875c0 13.441-10.903 24.352-24.352 24.352-13.441 0-24.34-10.91-24.34-24.352 0-3.05.559-5.969 1.59-8.66 3.488 9.172 12.36 15.68 22.75 15.68 10.403 0 19.27-6.508 22.762-15.68a24.228 24.228 0 0 1 1.59 8.66zm0 0" fill="#383c7c"/><path d="M388.488 226.867c0 8.707-7.058 15.766-15.765 15.766-8.703 0-15.762-7.059-15.762-15.766 0-8.703 7.059-15.762 15.762-15.762 8.707 0 15.765 7.06 15.765 15.762zm0 0" fill="#4e5093"/><path d="M388.492 226.867c0 8.707-7.058 15.758-15.77 15.758-8.702 0-15.761-7.05-15.761-15.758 0-2.87.77-5.562 2.11-7.883 2.73 4.723 7.82 7.883 13.652 7.883 5.84 0 10.93-3.16 13.648-7.883a15.605 15.605 0 0 1 2.121 7.883zm0 0" fill="#383c7c"/><path d="M485.844 290.395c2.367-3.399 1.535-8.075-1.864-10.442a7.497 7.497 0 0 0-10.44 1.863c-24.52 35.168-64.712 56.168-107.509 56.168-72.219 0-130.972-58.754-130.972-130.972 0-72.215 58.754-130.969 130.972-130.969 19.836 0 38.89 4.32 56.637 12.844 3.734 1.793 8.215.222 10.008-3.512s.222-8.215-3.512-10.008c-19.789-9.508-41.031-14.324-63.133-14.324-32.125 0-61.851 10.437-85.984 28.09-30.973-30.309-71.742-46.957-115.211-46.957C73.946 42.176 0 116.12 0 207.012c0 38.308 13.437 75.629 37.84 105.086a7.48 7.48 0 0 0 5.777 2.715 7.499 7.499 0 0 0 5.773-12.281 149.173 149.173 0 0 1-20.933-33.497h25.168a7.5 7.5 0 1 0 0-15H22.59a149.953 149.953 0 0 1-7.461-40.996h145.074c8.453 0 16.395-3.293 22.344-9.258 5.976-5.96 9.27-13.902 9.27-22.363 0-17.438-14.184-31.625-31.614-31.625h-9.754c-5.16 0-10.015-2.012-13.668-5.664s-5.664-8.508-5.664-13.668c0-18.93-15.402-34.332-34.332-34.332h-32.62c26.616-24.191 61.952-38.953 100.67-38.953 38.938 0 75.485 14.699 103.485 41.484-29.617 26.735-48.261 65.406-48.261 108.352 0 7.183.53 14.246 1.539 21.156H132.25a7.497 7.497 0 0 0-7.5 7.5 7.5 7.5 0 0 0 7.5 7.5h92.344c.941 3.68 2.02 7.3 3.234 10.863h-22.797c-15.558 0-28.219 12.66-28.219 28.219s12.66 28.219 28.22 28.219h58.124a149.102 149.102 0 0 0 5.168 4.894c-28.004 26.778-64.617 41.485-103.488 41.485-34.27 0-66.524-11.27-93.281-32.582a7.5 7.5 0 0 0-9.348 11.73c29.441 23.453 64.93 35.852 102.629 35.852 43.398 0 84.226-16.668 115.203-46.961 24.133 17.656 53.863 28.093 85.988 28.093 47.703 0 92.493-23.394 119.817-62.585zM116.117 130.46c0 9.168 3.57 17.789 10.059 24.277 6.484 6.485 15.105 10.055 24.273 10.055h9.754c9.16 0 16.61 7.46 16.61 16.625 0 4.445-1.727 8.617-4.875 11.758a16.455 16.455 0 0 1-11.735 4.863H15.277c1.953-32.945 14.598-63.059 34.512-86.91h46.996c10.66 0 19.332 8.672 19.332 19.332zm75.7 151.793c0-7.29 5.93-13.219 13.218-13.219h28.88A145.972 145.972 0 0 0 250 295.47h-44.965c-7.289 0-13.219-5.93-13.219-13.215zm0 0M448.7 105.434c30.695 25.015 48.3 62.039 48.3 101.578 0 16.164-2.918 31.957-8.668 46.933a7.497 7.497 0 0 0 4.313 9.688 7.499 7.499 0 0 0 9.691-4.313c6.41-16.699 9.664-34.297 9.664-52.308 0-44.07-19.617-85.332-53.824-113.207a7.506 7.506 0 0 0-10.555 1.074 7.503 7.503 0 0 0 1.078 10.555zm0 0"/><path d="M118.805 310.473h.027a7.501 7.501 0 0 0 .027-15h-.164a7.501 7.501 0 0 0-.027 15zm0 0M96.473 304.5h.027a7.502 7.502 0 0 0 7.5-7.477 7.494 7.494 0 0 0-7.473-7.523h-.16a7.501 7.501 0 0 0-.027 15zm0 0M221.375 111.129h.027a7.501 7.501 0 0 0 .028-15h-.137c-4.188-.027-7.512 3.332-7.527 7.473a7.5 7.5 0 0 0 7.472 7.527zm0 0M60.738 141.367h.164a7.501 7.501 0 0 0 .028-15h-.164a7.501 7.501 0 0 0-.028 15zm0 0M424.246 191.723c17.563 0 31.852-14.29 31.852-31.852 0-17.559-14.29-31.848-31.852-31.848s-31.848 14.29-31.848 31.848c0 17.563 14.286 31.852 31.848 31.852zm0-48.7c9.293 0 16.852 7.559 16.852 16.848 0 9.29-7.559 16.852-16.852 16.852-9.289 0-16.848-7.563-16.848-16.852 0-9.289 7.559-16.848 16.848-16.848zm0 0M349.46 226.867c0 12.828 10.438 23.266 23.267 23.266 12.828 0 23.261-10.438 23.261-23.266 0-12.824-10.433-23.262-23.261-23.262-12.829 0-23.266 10.434-23.266 23.262zm23.263-8.262c4.558 0 8.265 3.708 8.265 8.262 0 4.559-3.707 8.266-8.265 8.266-4.555 0-8.262-3.707-8.262-8.266 0-4.554 3.707-8.262 8.262-8.262zm0 0M365.96 157.54a7.502 7.502 0 0 0 0 15.003h.138a7.5 7.5 0 0 0 7.5-7.504 7.5 7.5 0 0 0-7.5-7.5zm0 0M377.203 150.043h.16a7.501 7.501 0 0 0 .028-15h-.164a7.501 7.501 0 0 0-7.5 7.473 7.505 7.505 0 0 0 7.476 7.527zm0 0M426.508 356.047a7.502 7.502 0 0 0-7.5 7.465l-.016 2.879a7.503 7.503 0 0 0 7.465 7.539h.04a7.499 7.499 0 0 0 7.495-7.465l.016-2.88a7.5 7.5 0 0 0-7.465-7.538h-.035zm0 0M426.453 385.367h-.039a7.499 7.499 0 0 0-7.496 7.465l-.016 2.879a7.503 7.503 0 0 0 7.465 7.539h.035a7.502 7.502 0 0 0 7.5-7.465l.016-2.883a7.502 7.502 0 0 0-7.465-7.535zm0 0M442.59 372.2l-2.88-.012h-.038a7.496 7.496 0 0 0-7.496 7.464 7.5 7.5 0 0 0 7.465 7.536l2.879.011h.035a7.499 7.499 0 0 0 7.5-7.46 7.503 7.503 0 0 0-7.465-7.54zm0 0M413.27 372.11l-2.88-.016h-.038a7.503 7.503 0 0 0-.031 15.004l2.878.011h.035a7.497 7.497 0 0 0 7.5-7.464 7.5 7.5 0 0 0-7.464-7.536zm0 0M484.43 319.063h-.035a7.499 7.499 0 0 0-7.5 7.46l-.012 2.883a7.5 7.5 0 0 0 7.465 7.535h.035a7.502 7.502 0 0 0 7.5-7.464l.012-2.88a7.495 7.495 0 0 0-7.465-7.535zm0 0M484.34 348.379h-.035a7.502 7.502 0 0 0-7.5 7.465l-.012 2.879a7.498 7.498 0 0 0 7.465 7.539h.035a7.502 7.502 0 0 0 7.5-7.465l.012-2.879a7.5 7.5 0 0 0-7.465-7.54zm0 0M500.477 335.215l-2.88-.016h-.034a7.5 7.5 0 0 0-7.5 7.465 7.5 7.5 0 0 0 7.464 7.535l2.88.016h.038a7.499 7.499 0 0 0 7.496-7.465 7.492 7.492 0 0 0-7.464-7.535zm0 0M471.16 335.121l-2.883-.012h-.035a7.501 7.501 0 0 0-7.5 7.461 7.504 7.504 0 0 0 7.469 7.54l2.879.011h.035a7.5 7.5 0 0 0 .035-15zm0 0M40.773 51.645h.036a7.502 7.502 0 0 0 7.5-7.465l.011-2.88c.024-4.144-3.32-7.515-7.46-7.538-4.133-.004-7.52 3.324-7.54 7.465l-.011 2.882a7.5 7.5 0 0 0 7.464 7.536zm0 0M40.766 63.082h-.036a7.502 7.502 0 0 0-7.5 7.465l-.015 2.879a7.5 7.5 0 0 0 7.465 7.535h.039a7.501 7.501 0 0 0 7.5-7.461l.011-2.883a7.5 7.5 0 0 0-7.464-7.535zm0 0M53.953 64.902l2.879.016h.04a7.499 7.499 0 0 0 7.495-7.465c.024-4.144-3.32-7.516-7.46-7.539l-2.884-.012h-.035a7.5 7.5 0 0 0-.035 15zm0 0M24.633 64.813l2.879.011h.039a7.5 7.5 0 0 0 .035-15l-2.879-.011h-.039a7.499 7.499 0 0 0-7.5 7.46 7.503 7.503 0 0 0 7.465 7.54zm0 0M353.723 379.777v-.113a7.5 7.5 0 1 0-15 0v.113a7.5 7.5 0 1 0 15 0zm0 0M356.96 395.68a7.5 7.5 0 0 0-7.5 7.5v.113a7.5 7.5 0 1 0 15 0v-.113c0-4.145-3.355-7.5-7.5-7.5zm0 0M274.563 51.7c4.144 0 7.5-3.356 7.5-7.5v-.114a7.5 7.5 0 1 0-15 0v.113a7.5 7.5 0 0 0 7.5 7.5zm0 0M60.902 366.36c-4.14 0-7.5 3.359-7.5 7.5v.113c0 4.14 3.36 7.5 7.5 7.5s7.5-3.36 7.5-7.5v-.114c0-4.14-3.359-7.5-7.5-7.5zm0 0M99.191 28.688h.036a7.5 7.5 0 0 0 7.464-7.536v-.109a7.498 7.498 0 0 0-7.5-7.469h-.03a7.505 7.505 0 0 0-7.47 7.531v.114a7.503 7.503 0 0 0 7.5 7.468zm0 0M116.555 15.113c4.14 0 7.5-3.36 7.5-7.5V7.5a7.5 7.5 0 1 0-15 0v.113a7.5 7.5 0 0 0 7.5 7.5zm0 0"/></svg>