<svg height="512pt" viewBox="-1 0 511 512" width="512pt" xmlns="http://www.w3.org/2000/svg"><path d="M233.785 86.523c0 43.645-35.379 79.024-79.02 79.024-43.644 0-79.023-35.379-79.023-79.024 0-43.64 35.38-79.02 79.024-79.02 43.64 0 79.02 35.38 79.02 79.02zm0 0" fill="#edff85"/><path d="M233.781 86.523c0 43.649-35.375 79.024-79.011 79.024a78.784 78.784 0 0 1-21.88-3.07c33.005-9.48 57.145-39.899 57.145-75.954 0-36.05-24.14-66.468-57.144-75.949a78.784 78.784 0 0 1 21.879-3.07c43.636 0 79.011 35.375 79.011 79.02zm0 0" fill="#c5ee09"/><path d="M502.605 353.207c0 43.64-35.378 79.02-79.023 79.02-43.64 0-79.02-35.38-79.02-79.02 0-43.645 35.38-79.023 79.02-79.023 43.645 0 79.023 35.378 79.023 79.023zm0 0" fill="#ffe5c0"/><path d="M502.605 353.2c0 28.214-14.78 52.96-37.007 66.933 7.66-12.16 12.082-26.57 12.082-42.004 0-43.645-35.38-79.024-79.024-79.024-15.445 0-29.843 4.434-42.015 12.094 13.984-22.242 38.73-37.02 66.941-37.02 43.648 0 79.023 35.387 79.023 79.02zm0 0" fill="#ffd4a1"/><path d="M483.828 240.668c0 107.324-87.004 194.328-194.328 194.328S95.172 347.992 95.172 240.668 182.176 46.34 289.5 46.34s194.328 87.004 194.328 194.328zm0 0" fill="#fda736"/><path d="M483.832 240.668c0 107.324-87.008 194.324-194.336 194.324-6.14 0-12.226-.281-18.223-.844 98.778-9.191 176.09-92.308 176.09-193.48s-77.312-184.29-176.09-193.48a195.193 195.193 0 0 1 18.223-.844c107.328 0 194.336 87 194.336 194.324zm0 0" fill="#fd8f07"/><path d="M186.273 430.188a92.658 92.658 0 0 0 9.723-41.415c0-39.554-24.695-73.32-59.5-86.785l-2.5-12.93a10.001 10.001 0 0 0-9.82-8.101H81.734c-4.789 0-8.91 3.395-9.82 8.102l-2.504 12.93c-34.805 13.464-59.5 47.23-59.5 86.784a92.57 92.57 0 0 0 10.531 42.98L9.574 448.692a10.007 10.007 0 0 0 .977 12.082l11.5 12.817a10 10 0 0 0 11.906 2.273l18.277-9.101c14.594 9.511 32.004 15.054 50.723 15.054a92.634 92.634 0 0 0 37.957-8.097l17.211 11.629a10.001 10.001 0 0 0 12.672-1.215l25.152-25.153a10.007 10.007 0 0 0 1.219-12.675zm0 0" fill="#2de0c7"/><path d="M113.266 414.195c0 13.078-10.602 23.68-23.68 23.68s-23.68-10.602-23.68-23.68 10.602-23.68 23.68-23.68 23.68 10.602 23.68 23.68zm0 0" fill="#00c4ce"/><path d="M113.27 414.195c0 13.075-10.606 23.676-23.688 23.676-3.41 0-6.664-.719-9.594-2.027 8.301-3.684 14.082-11.996 14.082-21.649 0-9.652-5.78-17.965-14.082-21.644a23.423 23.423 0 0 1 9.594-2.031c13.082 0 23.688 10.601 23.688 23.675zm0 0" fill="#00a6cc"/><path d="M141.27 355.027c0 7.735-6.27 14.004-14 14.004-7.735 0-14.004-6.27-14.004-14.004s6.27-14.004 14.004-14.004c7.73 0 14 6.27 14 14.004zm0 0" fill="#00c4ce"/><path d="M484.707 292a201.538 201.538 0 0 0 6.621-51.332c0-24.168-4.234-47.82-12.594-70.309a7.502 7.502 0 0 0-14.063 5.23 185.687 185.687 0 0 1 9.849 39.056c-45.008 21.832-110.106 34.68-179.461 35.324a7.503 7.503 0 0 0 .066 15.004h.07c68.977-.641 134.164-13.13 180.848-34.461.18 3.375.281 6.761.281 10.156 0 27.648-6.043 53.91-16.867 77.543-.074.039-.152.066-.227.105-18.398 9.864-40.488 17.93-65.652 23.98a7.501 7.501 0 0 0-5.539 9.048 7.502 7.502 0 0 0 7.285 5.754c.582 0 1.172-.07 1.762-.211 18.297-4.399 35.09-9.844 50.18-16.254a187.7 187.7 0 0 1-14.746 20.094c-.004.003-.012.003-.016.007-41.738 14.973-91.188 22.883-143.004 22.883-29.96 0-59.156-2.648-86.852-7.87a100.11 100.11 0 0 0-3.136-15.056c28.457 5.512 58.668 8.305 89.988 8.305 18.793 0 37.488-1.035 55.57-3.074a7.505 7.505 0 0 0 6.617-8.293 7.508 7.508 0 0 0-8.296-6.617c-17.528 1.98-35.657 2.98-53.891 2.98-33.836 0-66.285-3.355-96.492-9.965a100.96 100.96 0 0 0-7.555-12.722c-10.726-15.356-25.308-27.293-42.36-34.711l-1.73-8.957c-1.59-8.219-8.82-14.18-17.187-14.18h-18.633a188.733 188.733 0 0 1-2.867-32.785c0-41.395 13.539-79.676 36.41-110.676 43.793 13.633 95.695 20.852 150.414 20.852 54.707 0 106.668-7.223 150.48-20.868 4.06 5.504 7.84 11.223 11.278 17.16 2.082 3.587 6.672 4.81 10.254 2.731a7.502 7.502 0 0 0 2.73-10.254c-17.437-30.09-42.496-55.324-72.46-72.976C360.897 48.453 325.531 38.84 289.5 38.84c-20.02 0-39.367 2.945-57.637 8.398C217.148 18.395 187.395 0 154.766 0c-15.891 0-31.43 4.348-44.942 12.574a7.5 7.5 0 0 0-2.504 10.309 7.5 7.5 0 0 0 10.309 2.508c11.16-6.797 24-10.387 37.137-10.387 26.242 0 50.23 14.394 62.714 37.129-44.976 17.234-82.265 50.117-105.164 91.957-18.308-13.461-29.07-34.55-29.07-57.567 0-14.695 4.438-28.824 12.836-40.859a7.501 7.501 0 1 0-12.305-8.586C73.613 51.645 68.238 68.742 68.238 86.523c0 28.723 13.852 54.965 37.29 71.157-11.47 25.328-17.86 53.425-17.86 82.988 0 11 .906 21.992 2.668 32.785h-8.602c-8.367 0-15.597 5.965-17.187 14.18l-1.735 8.957c-10.218 4.453-19.574 10.547-27.855 18.152a7.498 7.498 0 0 0-.45 10.598 7.498 7.498 0 0 0 10.598.453c7.938-7.29 17.024-12.941 27.012-16.805a7.505 7.505 0 0 0 4.66-5.57l2.504-12.934a2.502 2.502 0 0 1 2.453-2.023h42.442c1.195 0 2.226.852 2.453 2.023l2.504 12.934a7.497 7.497 0 0 0 4.66 5.57c15.93 6.16 29.539 16.848 39.355 30.907 10.043 14.375 15.348 31.277 15.348 48.882 0 13.348-3.008 26.157-8.937 38.067a7.492 7.492 0 0 0 .5 7.543l10.89 16.12c.668.993.54 2.325-.304 3.169l-25.153 25.152a2.504 2.504 0 0 1-3.168.305l-17.21-11.63a7.505 7.505 0 0 0-7.266-.632c-11.04 4.942-22.778 7.445-34.895 7.445-16.61 0-32.73-4.785-46.625-13.84a7.516 7.516 0 0 0-7.441-.43l-18.278 9.106a2.506 2.506 0 0 1-2.976-.57l-11.5-12.816a2.516 2.516 0 0 1-.246-3.024l10.867-16.933a7.503 7.503 0 0 0 .336-7.524c-6.422-12.3-9.68-25.594-9.68-39.512 0-13.753 3.18-26.902 9.453-39.074 1.895-3.68.45-8.207-3.234-10.101a7.501 7.501 0 0 0-10.106 3.234c-7.375 14.316-11.117 29.773-11.117 45.941 0 14.653 3.25 29.254 9.43 42.5l-8.578 13.368c-4.235 6.605-3.535 15.3 1.707 21.14l11.5 12.82c5.242 5.84 13.808 7.481 20.836 3.981l14.531-7.238c15.469 9.156 33.05 13.976 51.121 13.976 12.828 0 25.297-2.386 37.133-7.105l13.836 9.348a17.446 17.446 0 0 0 9.789 2.996c4.52 0 9.012-1.743 12.39-5.121l25.153-25.153c5.918-5.918 6.812-15.246 2.125-22.176l-8.5-12.586a100.11 100.11 0 0 0 3.414-8.777c28.11 14.242 59.48 21.754 91.207 21.754 30.098 0 58.668-6.633 84.352-18.496 14.609 10.289 31.738 15.726 49.73 15.726 47.711 0 86.527-38.816 86.527-86.523 0-23.234-9.02-44.867-25.402-61.207zM384.16 79.566c17.172 10.114 32.594 22.922 45.688 37.817-41.176 12.086-89.496 18.457-140.348 18.457-50.86 0-99.113-6.363-140.266-18.438a189.175 189.175 0 0 1 11.844-12.297c38.262 11.23 82.586 17.176 128.422 17.176 30.066 0 59.363-2.523 87.066-7.496a7.5 7.5 0 0 0 6.059-8.71 7.5 7.5 0 0 0-8.707-6.06c-26.836 4.817-55.238 7.262-84.418 7.262-40.684 0-80.059-4.812-114.75-13.941 31.691-24.734 71.527-39.492 114.75-39.492 33.355 0 66.09 8.894 94.66 25.722zM202.062 405.79c.82-4.805 1.293-9.687 1.407-14.637 27.535 4.953 56.43 7.47 86.031 7.47 42.477 0 83.473-5.196 120.258-15.102-32.52 27.421-74.488 43.976-120.258 43.976-30.516 0-60.66-7.512-87.438-21.707zm221.52 18.938c-12.133 0-23.789-2.997-34.227-8.711 41.512-23.735 73.82-61.778 90.18-107.36 10.09 12.598 15.567 28.086 15.567 44.551.003 39.434-32.082 71.52-71.52 71.52zm0 0"/><path d="M131.05 225.688a7.503 7.503 0 0 0-9.585 4.55 7.509 7.509 0 0 0 4.555 9.586c20.609 7.332 43.683 13.2 68.574 17.438a7.506 7.506 0 0 0 8.656-6.137 7.502 7.502 0 0 0-6.137-8.656c-24.039-4.094-46.27-9.739-66.062-16.781zm0 0M58.402 414.195c0 17.196 13.989 31.18 31.184 31.18 17.191 0 31.18-13.984 31.18-31.18 0-17.195-13.989-31.18-31.18-31.18-17.195 0-31.184 13.985-31.184 31.18zm31.184-16.175c8.918 0 16.176 7.253 16.176 16.175 0 8.918-7.258 16.176-16.176 16.176-8.922 0-16.176-7.258-16.176-16.176 0-8.922 7.254-16.175 16.176-16.175zm0 0M105.762 355.027c0 11.86 9.648 21.504 21.508 21.504 11.855 0 21.503-9.644 21.503-21.504s-9.648-21.507-21.503-21.507c-11.86 0-21.508 9.648-21.508 21.507zm21.504-6.504a6.512 6.512 0 0 1 6.504 6.504c0 3.586-2.918 6.5-6.504 6.5a6.508 6.508 0 0 1-6.5-6.5c0-3.586 2.918-6.504 6.5-6.504zm0 0M159.809 392.965H159.98a7.505 7.505 0 0 0 7.504-7.477 7.498 7.498 0 0 0-7.476-7.527h-.172a7.503 7.503 0 0 0-7.504 7.477 7.508 7.508 0 0 0 7.477 7.527zm0 0M46.543 386.543H46.711a7.503 7.503 0 0 0 .027-15.004h-.172a7.505 7.505 0 0 0-7.504 7.477 7.504 7.504 0 0 0 7.481 7.527zm0 0M42.516 144.438l-.016 3.246a7.503 7.503 0 0 0 7.465 7.539h.039a7.503 7.503 0 0 0 7.5-7.47l.016-3.245a7.505 7.505 0 0 0-7.465-7.54h-.04a7.503 7.503 0 0 0-7.5 7.47zm0 0M49.902 188.277a7.502 7.502 0 0 0 7.5-7.464l.016-3.25c.023-4.141-3.32-7.516-7.465-7.54h-.035a7.504 7.504 0 0 0-7.504 7.47l-.016 3.245a7.504 7.504 0 0 0 7.47 7.54zm0 0M64.828 170.168l3.246.016h.04a7.503 7.503 0 0 0 .035-15.004l-3.247-.016h-.039a7.503 7.503 0 0 0-.035 15.004zm0 0M24.305 162.531a7.503 7.503 0 0 0 7.468 7.535l3.247.016h.039a7.503 7.503 0 0 0 .035-15.004l-3.25-.016h-.035a7.504 7.504 0 0 0-7.504 7.47zm0 0M267.953 478.945h.035a7.503 7.503 0 0 0 7.5-7.468l.016-3.247a7.504 7.504 0 0 0-7.469-7.539H268a7.503 7.503 0 0 0-7.5 7.47l-.016 3.245a7.504 7.504 0 0 0 7.47 7.54zm0 0M267.934 493.746h-.036a7.503 7.503 0 0 0-7.5 7.469l-.015 3.246a7.503 7.503 0 0 0 7.465 7.539h.039a7.503 7.503 0 0 0 7.5-7.469l.015-3.246c.02-4.14-3.324-7.515-7.468-7.539zm0 0M286.129 478.902l-3.246-.015h-.035a7.503 7.503 0 0 0-.035 15.004l3.246.015h.035a7.505 7.505 0 0 0 7.504-7.465 7.504 7.504 0 0 0-7.47-7.539zm0 0M253.074 478.8l-3.246-.015h-.039a7.503 7.503 0 0 0-.031 15.004l3.246.016h.035a7.504 7.504 0 0 0 7.504-7.47 7.505 7.505 0 0 0-7.469-7.534zm0 0M40.617 76.148h.153a7.5 7.5 0 0 0 7.5-7.468 7.506 7.506 0 0 0-7.473-7.535h-.149a7.504 7.504 0 0 0-7.5 7.472 7.5 7.5 0 0 0 7.47 7.531zm0 0M371.398 449.586h-.117c-4.148-.008-7.515 3.328-7.535 7.473a7.5 7.5 0 0 0 7.473 7.53H371.367a7.504 7.504 0 0 0 7.504-7.468 7.509 7.509 0 0 0-7.473-7.535zm0 0M20.371 95.922H20.52a7.504 7.504 0 0 0 7.503-7.469 7.506 7.506 0 0 0-7.472-7.535H20.402a7.507 7.507 0 0 0-7.504 7.473 7.5 7.5 0 0 0 7.473 7.53zm0 0M42.457 264.14a7.502 7.502 0 0 0 .027-10.609l-8.39-8.441a7.502 7.502 0 0 0-10.64 10.578l8.39 8.441a7.48 7.48 0 0 0 5.32 2.215 7.48 7.48 0 0 0 5.293-2.183zm0 0M7.156 286.68l11.489 3.113a7.499 7.499 0 0 0 9.203-5.281c1.086-3.996-1.278-8.117-5.278-9.203l-11.488-3.114a7.505 7.505 0 0 0-9.203 5.278 7.51 7.51 0 0 0 5.277 9.207zm0 0M53.738 244.32a7.506 7.506 0 0 0 7.25 5.586c.633 0 1.282-.082 1.926-.254a7.498 7.498 0 0 0 5.328-9.172l-3.047-11.503a7.496 7.496 0 0 0-9.172-5.332c-4.003 1.058-6.39 5.167-5.332 9.171zm0 0M27.227 442.883c-3.25 2.574-3.801 7.293-1.227 10.539l3.25 4.105a7.486 7.486 0 0 0 5.887 2.848 7.506 7.506 0 0 0 5.879-12.16l-3.25-4.106a7.506 7.506 0 0 0-10.54-1.226zm0 0M153.895 462.957a7.473 7.473 0 0 0 5.378 2.27 7.482 7.482 0 0 0 5.23-2.125l12.337-12.004a7.503 7.503 0 0 0 .144-10.61c-2.886-2.968-7.636-3.031-10.605-.144l-12.34 12.004a7.503 7.503 0 0 0-.144 10.609zm0 0M111.664 293.844H93.918a7.503 7.503 0 0 0 0 15.004h17.746a7.502 7.502 0 0 0 0-15.004zm0 0"/></svg>