<svg height="512pt" viewBox="-6 0 512 512" width="512pt" xmlns="http://www.w3.org/2000/svg"><path d="M490.7 217.121l-10.891 10.602c.132 1.98.242 3.96.312 5.93.117 2.917.18 5.84.18 8.78 0 9.258-.563 18.399-1.66 27.38a221.927 221.927 0 0 1-6.172 31.636 223.774 223.774 0 0 1-16.38 42.63c-38.468 76.089-118.784 128.48-211.683 128.679l-27.52 28.488a10.626 10.626 0 0 1-10.6 2.832l-73.77-21.312a10.64 10.64 0 0 1-7.45-8.047l-7.878-37.813A236.484 236.484 0 0 1 71.84 400.36c-12.48-12.902-23.461-27.199-32.63-42.64a225.184 225.184 0 0 1-15.632-31.637A224.127 224.127 0 0 1 12.54 289.93c-3.3-15.32-5.027-31.22-5.027-47.496 0-11.364.84-22.52 2.468-33.43 3.63-24.32 11.16-47.399 21.95-68.64 13.05-25.688 30.879-48.657 52.36-67.817 42.038-37.54 98.085-60.442 159.616-60.442 9.758 0 19.367.583 28.797 1.704a241.347 241.347 0 0 1 42.879 9.09l18.98-13.442a10.648 10.648 0 0 1 10.942-.8l33.816 17.09a10.61 10.61 0 0 1 5.84 9.28l.442 23.028c35.558 25.992 63.347 61.52 79.378 102.687l9.739 1.992a10.64 10.64 0 0 1 8.082 7.418l10.668 36.36a10.59 10.59 0 0 1-2.77 10.61zm0 0" fill="#ff8b73"/><path d="M490.7 217.121l-10.891 10.602c.132 1.98.242 3.96.312 5.93.117 2.917.18 5.84.18 8.78 0 9.258-.563 18.399-1.66 27.38a221.927 221.927 0 0 1-6.172 31.636 223.774 223.774 0 0 1-16.38 42.63c-38.468 76.089-118.784 128.48-211.683 128.679l-27.52 28.488a10.626 10.626 0 0 1-10.6 2.832l-73.77-21.312a10.64 10.64 0 0 1-7.45-8.047l-6.027-28.942c18.438 3.86 37.559 5.891 57.149 5.891 153.414 0 277.78-124.379 277.78-277.793 0-14.703-1.136-29.133-3.34-43.21a227.393 227.393 0 0 1 14.352 30.077l9.739 1.992a10.64 10.64 0 0 1 8.082 7.418l10.668 36.36a10.59 10.59 0 0 1-2.77 10.61zm0 0M118.707 174.684c0 9.48-3.84 18.058-10.05 24.27a34.202 34.202 0 0 1-24.27 10.05H9.98c3.63-24.32 11.16-47.399 21.95-68.64h52.457c18.96 0 34.32 15.37 34.32 34.32zm0 0" fill="#ff5c3c"/><path d="M272.703 13.809c-18.836 16.086-55.941 33.48-100.41 45.546-33.129 8.985-64.215 13.352-88.008 13.192 42.047-37.54 98.094-60.438 159.617-60.438 9.762 0 19.371.575 28.801 1.7zm0 0M480.3 242.434c0 9.257-.562 18.398-1.66 27.379a221.927 221.927 0 0 1-6.171 31.636h-56.61c-.879-.02-1.75-.027-2.629-.027a96.183 96.183 0 0 0-67.988 28.137 96.085 96.085 0 0 1-67.969 28.16H39.211a225.184 225.184 0 0 1-15.633-31.637A224.127 224.127 0 0 1 12.54 289.93h264.734c25.5 0 49.95-10.137 67.97-28.168a96.187 96.187 0 0 1 67.987-28.14c.88 0 1.75.01 2.63.03h64.261c.117 2.918.18 5.84.18 8.782zm0 0" fill="#ffb5a6"/><path d="M480.3 242.434c0 9.257-.562 18.398-1.66 27.379a221.927 221.927 0 0 1-6.171 31.636H423a275.087 275.087 0 0 0 24.52-67.797h32.601c.117 2.918.18 5.84.18 8.782zm0 0" fill="#ff8b73"/><path d="M478.64 269.813c-3.199 26.386-10.98 51.398-22.55 74.265h-40.23c-7.31-.2-14.54.442-21.587 1.863a96.099 96.099 0 0 0-49.03 26.258 96.013 96.013 0 0 1-31.18 20.84 96.065 96.065 0 0 1-36.79 7.32H71.84c-20.64-21.332-37.14-46.5-48.262-74.277h253.695c25.5 0 49.95-10.133 67.97-28.16a96.187 96.187 0 0 1 67.987-28.14c.88 0 1.75.011 2.63.03zm0 0" fill="#ff5c3c"/><path d="M478.64 269.813c-3.199 26.386-10.98 51.398-22.55 74.265h-40.23c-7.31-.2-14.54.442-21.587 1.863 17.989-22.761 32.489-48.41 42.676-76.129zm0 0M235.648 212.508c0 19.058-15.453 34.512-34.515 34.512-19.059 0-34.512-15.454-34.512-34.512 0-19.063 15.453-34.512 34.512-34.512 19.062 0 34.515 15.45 34.515 34.512zm0 0" fill="#ff2e04"/><path d="M235.645 212.504c0 19.066-15.45 34.52-34.508 34.52-3.57 0-7.012-.544-10.25-1.551 14.05-4.371 24.25-17.48 24.25-32.97 0-15.491-10.2-28.589-24.25-32.96a34.433 34.433 0 0 1 10.25-1.55c19.058 0 34.508 15.448 34.508 34.51zm0 0" fill="#dd1f00"/><path d="M180.625 126.793c0 12.008-9.734 21.742-21.742 21.742-12.008 0-21.742-9.734-21.742-21.742 0-12.008 9.734-21.742 21.742-21.742 12.008 0 21.742 9.734 21.742 21.742zm0 0" fill="#ff2e04"/><path d="M180.625 126.793c0 12.012-9.738 21.742-21.738 21.742-2.82 0-5.52-.543-8-1.531 8.05-3.18 13.738-11.031 13.738-20.211 0-9.18-5.688-17.027-13.738-20.207a21.488 21.488 0 0 1 8-1.531c12 0 21.738 9.73 21.738 21.738zm0 0" fill="#dd1f00"/><path d="M265.21 400.355c0 7.786-6.312 14.098-14.097 14.098-7.789 0-14.101-6.312-14.101-14.098 0-7.789 6.312-14.097 14.101-14.097 7.785 0 14.098 6.308 14.098 14.097zm0 0M368.738 119.152c0 7.785-6.312 14.098-14.101 14.098-7.785 0-14.098-6.313-14.098-14.098 0-7.789 6.313-14.101 14.098-14.101 7.789 0 14.101 6.312 14.101 14.101zm0 0" fill="#ff2e04"/><path d="M265.125 64.504h.137a7.5 7.5 0 0 0 7.5-7.465 7.494 7.494 0 0 0-7.465-7.531h-.141a7.496 7.496 0 0 0-7.496 7.465 7.491 7.491 0 0 0 7.465 7.53zm0 0"/><path d="M500.672 204.402l-10.676-36.363a18.078 18.078 0 0 0-13.773-12.656l-5.774-1.18c-16.168-39.457-42.832-73.887-77.426-99.973l-.359-19.335a18.093 18.093 0 0 0-9.953-15.844L348.89 1.957a18.09 18.09 0 0 0-18.657 1.383l-15.992 11.324c-22.758-6.672-46.398-10.05-70.34-10.05-49.824 0-97.742 14.554-138.574 42.09C65.41 73.62 34.895 111.02 17.082 154.847a7.498 7.498 0 0 0 4.121 9.773 7.503 7.503 0 0 0 9.774-4.125 222.76 222.76 0 0 1 5.609-12.633h47.8c14.79 0 26.821 12.032 26.821 26.82 0 7.165-2.789 13.903-7.855 18.965-5.063 5.067-11.797 7.856-18.965 7.856H18.879c.601-3.16 1.25-6.313 1.992-9.438a7.502 7.502 0 0 0-5.562-9.03c-4.028-.954-8.075 1.534-9.032 5.566A233.498 233.498 0 0 0 0 242.437c0 38.31 9.062 74.891 26.941 108.735a7.495 7.495 0 0 0 10.133 3.129c3.664-1.934 5.063-6.473 3.13-10.137a223.091 223.091 0 0 1-5.22-10.582h242.29c27.683 0 53.703-10.781 73.269-30.355 16.5-16.489 39.348-25.946 62.684-25.946.824 0 1.632.008 2.457.028.058.003.12.003.18.003h54.148a216.707 216.707 0 0 1-18.504 59.27h-35.543c-28.297-.719-56.024 10.313-76.028 30.316a88.115 88.115 0 0 1-28.746 19.211 88.26 88.26 0 0 1-33.914 6.743h-5.91c-3.054-8.223-10.98-14.098-20.254-14.098-9.273 0-17.199 5.875-20.254 14.098H75.047a226.465 226.465 0 0 1-14.55-17.094 7.501 7.501 0 0 0-11.895 9.14c17.18 22.356 37.988 41.403 61.89 56.653l7.23 34.699a18.09 18.09 0 0 0 12.72 13.723l73.769 21.308a18.087 18.087 0 0 0 18.078-4.824l25.328-26.23c41.14-.61 81.57-11.364 117.137-31.184a7.502 7.502 0 0 0-7.305-13.102c-34.261 19.098-73.36 29.23-113.058 29.313a7.5 7.5 0 0 0-5.38 2.293l-27.515 28.496a3.122 3.122 0 0 1-3.121.832l-73.773-21.313a3.126 3.126 0 0 1-2.196-2.37l-7.879-37.82a7.519 7.519 0 0 0-3.394-4.849 229.31 229.31 0 0 1-30.582-22.668h140.308c3.055 8.223 10.977 14.098 20.254 14.098 9.27 0 17.196-5.875 20.254-14.098h5.906a103.13 103.13 0 0 0 39.657-7.886 103.06 103.06 0 0 0 33.613-22.461c17.133-17.133 40.875-26.582 65.121-25.93.066.004.133.004.2.004h27.753c-14.691 25.414-34.62 48.098-59.113 66.684a7.498 7.498 0 0 0 4.539 13.472 7.474 7.474 0 0 0 4.527-1.523c28.672-21.758 52.395-49.957 68.598-81.547 17.012-33.156 25.637-68.898 25.637-106.23 0-3.778-.106-7.711-.309-11.727l8.43-8.211a18.082 18.082 0 0 0 4.746-18.098zM251.113 406.953c-3.64 0-6.601-2.96-6.601-6.598 0-3.64 2.96-6.601 6.601-6.601 3.637 0 6.598 2.96 6.598 6.601a6.607 6.607 0 0 1-6.598 6.598zm-7.21-387.34c2.433 0 4.863.047 7.288.121-20.328 12.094-49.382 23.84-80.863 32.383-22.262 6.035-44.125 10.102-63.555 11.89a234.687 234.687 0 0 1 6.942-4.866c38.344-25.86 83.363-39.528 130.187-39.528zm172.05 242.7c-.91-.02-1.812-.032-2.726-.032-27.688 0-53.715 10.774-73.29 30.34-16.734 16.742-38.988 25.965-62.664 25.965H28.711a214.396 214.396 0 0 1-6.703-21.16h255.265c27.684 0 53.704-10.781 73.27-30.356 16.5-16.488 39.348-25.945 62.687-25.945.82 0 1.633.008 2.457.027.06.004.118.004.18.004h56.93c.004.426.012.856.012 1.281 0 6.68-.309 13.31-.903 19.875zm69.508-50.56l-10.883 10.599a7.5 7.5 0 0 0-2.09 3.804h-56.535c-.914-.023-1.812-.031-2.726-.031-27.688 0-53.715 10.773-73.29 30.336-16.734 16.746-38.988 25.965-62.664 25.965H18.645C16.223 269.363 15 256.016 15 242.437c0-8.683.523-17.347 1.547-25.933h67.84c11.175 0 21.675-4.352 29.574-12.25 7.898-7.895 12.246-18.399 12.246-29.57 0-23.059-18.762-41.82-41.82-41.82H44.53c11.375-19.614 25.715-37.4 42.614-52.829 24.937-.195 55.714-4.93 87.109-13.445 42.418-11.508 79.672-28.168 100.71-44.938a233.053 233.053 0 0 1 38.403 8.418 7.494 7.494 0 0 0 6.551-1.047l18.984-13.441a3.12 3.12 0 0 1 3.223-.238l33.82 17.093a3.127 3.127 0 0 1 1.72 2.739l.429 23.02a7.513 7.513 0 0 0 3.074 5.913c13.059 9.543 24.953 20.328 35.531 32.164-9.902 40.04-46.289 68.735-87.894 68.735h-78.102c-4.14 0-7.5 3.36-7.5 7.5 0 4.14 3.36 7.5 7.5 7.5h78.102c44.851 0 84.48-28.625 99.316-69.86 12.356 16.286 22.426 34.196 29.875 53.32a7.494 7.494 0 0 0 5.492 4.626l9.735 1.984a3.132 3.132 0 0 1 2.382 2.188l10.676 36.363a3.128 3.128 0 0 1-.82 3.125zm0 0"/><path d="M201.137 170.492c-23.168 0-42.016 18.848-42.016 42.016 0 23.164 18.848 42.012 42.016 42.012 23.164 0 42.011-18.848 42.011-42.012 0-23.168-18.847-42.016-42.011-42.016zm0 69.028c-14.899 0-27.016-12.118-27.016-27.012 0-14.899 12.117-27.016 27.016-27.016 14.894 0 27.011 12.117 27.011 27.016 0 14.894-12.117 27.012-27.011 27.012zm0 0M188.125 126.793c0-16.125-13.117-29.242-29.242-29.242s-29.242 13.117-29.242 29.242 13.117 29.242 29.242 29.242 29.242-13.117 29.242-29.242zm-29.242 14.246c-7.856 0-14.242-6.39-14.242-14.246 0-7.852 6.39-14.242 14.242-14.242 7.851 0 14.242 6.39 14.242 14.242 0 7.855-6.39 14.246-14.242 14.246zm0 0M354.637 97.55c-11.907 0-21.598 9.692-21.598 21.602 0 11.907 9.688 21.598 21.598 21.598 11.91 0 21.597-9.691 21.597-21.598 0-11.91-9.687-21.601-21.597-21.601zm0 28.2a6.607 6.607 0 0 1-6.598-6.598c0-3.64 2.961-6.601 6.598-6.601 3.64 0 6.597 2.96 6.597 6.601a6.604 6.604 0 0 1-6.597 6.598zm0 0M306.766 192.059h-33.309a7.497 7.497 0 0 0-7.5 7.5 7.5 7.5 0 0 0 7.5 7.5h33.309a7.5 7.5 0 0 0 7.5-7.5c0-4.145-3.356-7.5-7.5-7.5zm0 0M252.266 80.05h.14a7.502 7.502 0 0 0 7.5-7.464 7.502 7.502 0 0 0-7.465-7.535h-.14a7.5 7.5 0 1 0-.035 15zm0 0M217.672 435.496h.035a7.502 7.502 0 0 0 7.5-7.465 7.496 7.496 0 0 0-7.465-7.531h-.14a7.5 7.5 0 0 0-7.5 7.465 7.494 7.494 0 0 0 7.464 7.531zm0 0M272.758 214.402h-.106a7.5 7.5 0 1 0 0 15h.106c4.14 0 7.5-3.359 7.5-7.5s-3.36-7.5-7.5-7.5zm0 0M209.324 472.438c-8.039-4.356-17.55-8.286-27.504-11.356-12.925-3.992-25.562-6.281-36.547-6.629-4.152-.152-7.601 3.121-7.73 7.262a7.499 7.499 0 0 0 7.262 7.73c9.523.301 21.097 2.418 32.593 5.97 9.024 2.784 17.594 6.315 24.778 10.21a7.503 7.503 0 0 0 10.168-3.02 7.501 7.501 0 0 0-3.02-10.167zm0 0M363.703 58.508a7.5 7.5 0 1 0 0-15c-12.094 0-23.402-8.707-26.41-11.758a7.497 7.497 0 0 0-10.606-.074c-2.949 2.906-2.98 7.656-.074 10.605 5.532 5.61 20.407 16.227 37.09 16.227zm0 0M469.91 180.004a7.493 7.493 0 0 0-7.406-7.586c-4.16-.082-7.54 3.266-7.59 7.41-.117 9.824 1.75 23.469 11.324 32.676a7.476 7.476 0 0 0 5.2 2.094 7.498 7.498 0 0 0 5.2-12.902c-6.01-5.782-6.794-16.071-6.728-21.692zm0 0"/></svg>