<svg height="511pt" viewBox="-3 1 511 512" width="511pt" xmlns="http://www.w3.org/2000/svg"><path d="M198.715 399.574a12.271 12.271 0 0 0-3.528 10.887l10.442 60.922c1.723 10.039-8.82 17.703-17.848 12.969l-54.699-28.762a12.25 12.25 0 0 0-11.453 0l-54.7 28.762c-9.03 4.734-19.57-2.93-17.847-12.97l1.54-8.964 8.901-51.957a12.27 12.27 0 0 0-3.543-10.887l-44.253-43.136c-7.297-7.11-3.274-19.508 6.824-20.985l61.16-8.883a12.299 12.299 0 0 0 9.262-6.726l27.355-55.426c4.504-9.14 17.54-9.14 22.055 0l27.355 55.426A12.279 12.279 0 0 0 175 326.57l18.906 2.743 42.254 6.14c10.086 1.477 14.121 13.875 6.813 20.985zm0 0" fill="#fed370"/><path d="M198.715 399.574a12.271 12.271 0 0 0-3.528 10.887l10.442 60.922c1.723 10.039-8.82 17.703-17.848 12.969l-54.699-28.762a12.25 12.25 0 0 0-11.453 0l-54.7 28.762c-9.03 4.734-19.57-2.93-17.847-12.97l1.54-8.964c95.878-40.898 131.6-92.031 143.284-133.102l42.254 6.137c10.086 1.477 14.121 13.875 6.813 20.985zm0 0" fill="#fda736"/><path d="M55.586 186.836h-.035a7.5 7.5 0 0 1-7.465-7.535l.016-3.348a7.502 7.502 0 0 1 7.5-7.465h.035a7.5 7.5 0 0 1 7.465 7.54l-.016 3.347a7.499 7.499 0 0 1-7.5 7.46zm0 0M55.48 220.914h-.035a7.5 7.5 0 0 1-7.465-7.535l.016-3.348a7.502 7.502 0 0 1 7.5-7.465h.04c4.14.02 7.48 3.395 7.46 7.54l-.016 3.347a7.499 7.499 0 0 1-7.5 7.461zm0 0M74.258 202.266h-.04l-3.347-.02a7.5 7.5 0 0 1 .035-15h.035l3.352.02c4.14.02 7.48 3.39 7.46 7.535a7.499 7.499 0 0 1-7.495 7.465zm0 0M40.176 202.156h-.035l-3.348-.015a7.5 7.5 0 0 1 .035-15h.035l3.348.015a7.502 7.502 0 0 1 7.465 7.535 7.497 7.497 0 0 1-7.5 7.465zm0 0M271.68 477.922h-.035a7.5 7.5 0 0 1-7.465-7.535l.015-3.348a7.499 7.499 0 0 1 7.496-7.465h.04a7.5 7.5 0 0 1 7.464 7.535l-.015 3.348a7.502 7.502 0 0 1-7.5 7.465zm0 0M271.574 512h-.035a7.5 7.5 0 0 1-7.465-7.535l.016-3.348a7.5 7.5 0 0 1 7.5-7.465h.035a7.502 7.502 0 0 1 7.465 7.536l-.016 3.347a7.502 7.502 0 0 1-7.5 7.465zm0 0M290.348 493.348h-.04l-3.347-.016a7.497 7.497 0 0 1-7.461-7.539 7.495 7.495 0 0 1 7.496-7.461h.04l3.347.016a7.502 7.502 0 0 1 7.465 7.535 7.502 7.502 0 0 1-7.5 7.465zm0 0M256.27 493.242h-.04l-3.347-.015a7.496 7.496 0 0 1-7.461-7.536 7.496 7.496 0 0 1 7.496-7.464h.039l3.348.015a7.502 7.502 0 0 1 7.465 7.535 7.502 7.502 0 0 1-7.5 7.465zm0 0M321.434 420.035h-.04a7.502 7.502 0 0 1-7.464-7.535l.02-3.348a7.496 7.496 0 0 1 7.495-7.464h.04a7.502 7.502 0 0 1 7.464 7.535l-.02 3.347a7.499 7.499 0 0 1-7.495 7.465zm0 0M321.328 454.113h-.039a7.496 7.496 0 0 1-7.46-7.535l.015-3.348a7.496 7.496 0 0 1 7.496-7.464h.039a7.502 7.502 0 0 1 7.465 7.535l-.016 3.347c-.023 4.13-3.375 7.465-7.5 7.465zm0 0M340.102 435.46h-.04l-3.347-.015a7.5 7.5 0 1 1 .035-15h.04l3.347.016a7.496 7.496 0 0 1 7.46 7.535 7.499 7.499 0 0 1-7.495 7.465zm0 0M306.023 435.355h-.039l-3.347-.015a7.5 7.5 0 1 1 .035-15h.039l3.348.015a7.496 7.496 0 0 1 7.46 7.536 7.496 7.496 0 0 1-7.496 7.464zm0 0M64.04 336.348a7.506 7.506 0 0 1-7.415-6.426 7.504 7.504 0 0 1 6.344-8.5l15.66-2.274a4.795 4.795 0 0 0 3.613-2.625l27.356-55.421c3.359-6.809 10.16-11.04 17.754-11.04 7.59 0 14.394 4.231 17.753 11.04l4.72 9.558a7.498 7.498 0 0 1-3.407 10.043 7.495 7.495 0 0 1-10.043-3.406l-4.719-9.559c-1.191-2.414-3.406-2.675-4.304-2.675-.899 0-3.114.261-4.305 2.675L95.695 323.16a19.796 19.796 0 0 1-14.906 10.832l-15.66 2.274a7.39 7.39 0 0 1-1.09.082zm0 0M193.523 493.281c-3.148 0-6.308-.758-9.234-2.297l-54.703-28.757a4.808 4.808 0 0 0-4.469 0l-11.387 5.984c-3.664 1.93-8.199.52-10.128-3.149a7.505 7.505 0 0 1 3.148-10.128l11.387-5.985a19.79 19.79 0 0 1 18.43 0l54.703 28.758c2.382 1.254 4.332.164 5.058-.363.723-.528 2.363-2.04 1.906-4.696l-10.445-60.914a19.8 19.8 0 0 1 5.695-17.527l44.258-43.14c1.926-1.88 1.488-4.067 1.211-4.919-.277-.855-1.207-2.882-3.875-3.27l-61.16-8.886a19.803 19.803 0 0 1-14.91-10.832l-8.082-16.383a7.495 7.495 0 0 1 3.406-10.043 7.498 7.498 0 0 1 10.043 3.407l8.086 16.382a4.795 4.795 0 0 0 3.613 2.625l61.16 8.887c7.516 1.09 13.641 6.254 15.985 13.477 2.347 7.218.43 14.996-5.008 20.297l-44.258 43.14a4.788 4.788 0 0 0-1.379 4.25l10.446 60.914c1.285 7.485-1.735 14.903-7.875 19.367-3.473 2.52-7.532 3.801-11.622 3.801zm0 0M61.18 493.281c-4.086 0-8.149-1.281-11.618-3.804-6.144-4.461-9.164-11.883-7.878-19.364L52.133 409.2a4.801 4.801 0 0 0-1.383-4.25L6.496 361.81c-5.437-5.301-7.36-13.079-5.012-20.297 2.348-7.223 8.473-12.387 15.985-13.477l12.84-1.867a7.5 7.5 0 0 1 8.5 6.344 7.497 7.497 0 0 1-6.344 8.5l-12.84 1.867c-2.664.387-3.598 2.414-3.875 3.266-.277.855-.715 3.043 1.215 4.921l44.258 43.141a19.797 19.797 0 0 1 5.691 17.527L56.47 472.648c-.457 2.653 1.183 4.168 1.91 4.692.723.527 2.672 1.62 5.055.367l14.496-7.621c3.668-1.926 8.203-.52 10.129 3.148 1.925 3.668.52 8.204-3.149 10.13l-14.496 7.62a19.83 19.83 0 0 1-9.234 2.297zm0 0M165.098 233.504a7.504 7.504 0 0 1-5.305-12.805L353.418 27.074c2.926-2.926 7.676-2.926 10.605 0a7.502 7.502 0 0 1 0 10.61l-193.625 193.62a7.468 7.468 0 0 1-5.3 2.2zm0 0M282.426 281.742a7.484 7.484 0 0 1-5.305-2.199 7.497 7.497 0 0 1 0-10.606L436.203 109.86a7.497 7.497 0 0 1 10.606 0c2.925 2.93 2.925 7.68 0 10.606L287.727 279.547a7.48 7.48 0 0 1-5.301 2.195zm0 0M294.54 217.898a7.484 7.484 0 0 1-5.306-2.199 7.497 7.497 0 0 1 0-10.605L492.133 2.195c2.93-2.925 7.68-2.925 10.605 0a7.502 7.502 0 0 1 0 10.61L299.84 215.699a7.468 7.468 0 0 1-5.3 2.2zm0 0M218.172 294.262c-1.918 0-3.84-.73-5.3-2.196a7.497 7.497 0 0 1 0-10.605l46.792-46.793a7.497 7.497 0 0 1 10.606 0 7.497 7.497 0 0 1 0 10.605l-46.793 46.793a7.473 7.473 0 0 1-5.305 2.196zm0 0M449.66 172.32a7.497 7.497 0 0 1-5.305-12.8l10.375-10.375a7.497 7.497 0 0 1 10.606 0 7.497 7.497 0 0 1 0 10.605l-10.375 10.375a7.464 7.464 0 0 1-5.3 2.195zm0 0M162.145 154.52c-1.922 0-3.84-.73-5.305-2.196a7.497 7.497 0 0 1 0-10.605l10.375-10.375a7.497 7.497 0 0 1 10.605 0 7.497 7.497 0 0 1 0 10.605l-10.375 10.375a7.47 7.47 0 0 1-5.3 2.196zm0 0M218.172 121.637a7.468 7.468 0 0 1-5.3-2.2 7.497 7.497 0 0 1 0-10.605l10.374-10.375a7.497 7.497 0 0 1 10.606 0c2.925 2.93 2.925 7.68 0 10.606l-10.375 10.374a7.477 7.477 0 0 1-5.305 2.2zm0 0M256.723 405.984a7.497 7.497 0 0 1-5.305-12.8l112.805-112.809a7.51 7.51 0 0 1 10.609 0 7.51 7.51 0 0 1 0 10.61L262.023 403.788a7.47 7.47 0 0 1-5.3 2.195zm0 0M423.059 374.254h-.157a7.502 7.502 0 0 1-7.472-7.527c.02-4.133 3.37-7.473 7.5-7.473h.156a7.5 7.5 0 0 1-.027 15zm0 0M15.637 452.441h-.157a7.503 7.503 0 0 1-7.472-7.53 7.498 7.498 0 0 1 7.5-7.47h.156a7.502 7.502 0 0 1 7.473 7.528c-.02 4.133-3.371 7.472-7.5 7.472zm0 0M399.11 333.8h-.157a7.502 7.502 0 0 1-7.473-7.527c.02-4.132 3.372-7.472 7.5-7.472h.157a7.5 7.5 0 0 1 7.472 7.531 7.498 7.498 0 0 1-7.5 7.469zm0 0M396.05 379.176h-.155a7.5 7.5 0 0 1 .03-15h.157a7.501 7.501 0 0 1-.031 15zm0 0M36.555 271.246a7.5 7.5 0 0 1-.535-14.98l.125-.008a7.5 7.5 0 0 1 1.09 14.96l-.13.009c-.183.011-.367.02-.55.02zm0 0"/></svg>