<svg height="511pt" viewBox="0 -3 512 511" width="511pt" xmlns="http://www.w3.org/2000/svg"><path d="M18.367 498.809h475.281c7.008 0 12.141-6.528 10.579-13.348a257.7 257.7 0 0 0-20.23-56.738 260.606 260.606 0 0 0-31.653-49.2 265.502 265.502 0 0 0-18.168-20.12 265.45 265.45 0 0 0-23.422-20.817 262.273 262.273 0 0 0-39.906-25.941l-4.246-24.891c-.739-4.211-3.727-7.688-7.786-9.012l-39.093-12.847c-4.07-1.336-8.547-.325-11.606 2.64l-18.027 17.34c-47.258-7.352-95.883-1.398-139.797 17.898l-9.012-5.953a11.554 11.554 0 0 0-11.902-.5l-36.106 19.72a11.534 11.534 0 0 0-6.027 10.272l.227 16.504a230.342 230.342 0 0 0-4.79 4.313 233.114 233.114 0 0 0-6.882 6.613 243.727 243.727 0 0 0-19.75 22.293c-.696.88-1.371 1.758-2.043 2.649a241.528 241.528 0 0 0-17.516 26.39 241.636 241.636 0 0 0-11.512 22.781 243.618 243.618 0 0 0-8.64 22.52 247.075 247.075 0 0 0-8.656 34.652c-1.172 6.664 3.921 12.782 10.683 12.782zm0 0" fill="#ff8b73"/><path d="M493.648 498.809h-33.664c7 0 12.141-6.528 10.575-13.344a257.313 257.313 0 0 0-20.235-56.738 260.281 260.281 0 0 0-31.656-49.204 263.073 263.073 0 0 0-18.16-20.12 265.425 265.425 0 0 0-23.426-20.817 262.362 262.362 0 0 0-35.45-23.535 9.962 9.962 0 0 1-5.07-7.551l-4.457-37.531 26.704 8.765c4.074 1.325 7.05 4.809 7.789 9.024l4.254 24.887a262.293 262.293 0 0 1 39.898 25.94 265.425 265.425 0 0 1 23.426 20.817 263.187 263.187 0 0 1 18.168 20.121 259.469 259.469 0 0 1 31.648 49.204 257.5 257.5 0 0 1 20.23 56.738c1.567 6.816-3.562 13.344-10.574 13.344zm0 0" fill="#ff5c3c"/><path d="M483.992 428.727c-9.426-.02-20.797-.04-33.695-.063-33.445-.02-77.152-.02-123.77-.008-18.058 0-35.906 4.586-51.101 13.746-4.149 2.524-8.727 4.797-13.645 6.817-15.636 6.445-34.746 10.234-55.402 10.234-27.094 0-51.535-6.504-68.93-16.969-15.191-9.132-33.02-13.687-51.07-13.668-11.574.012-37.645.032-61.395.04a240.733 240.733 0 0 1 11.508-22.786 240.501 240.501 0 0 1 17.516-26.383c13.523 0 25.441 0 32.281-.011 15.223-.031 30.281-3.274 43.738-9.766a88.28 88.28 0 0 0 7.352-3.98c17.402-10.485 41.887-17.012 69-17.012 27.059 0 51.484 6.496 68.867 16.93 15.191 9.132 32.988 13.668 51.02 13.668 33.132-.024 64.808-.032 92.382-.012 12.094 0 23.395.012 33.7.02a259.64 259.64 0 0 1 31.644 49.203zm0 0" fill="#ff5c3c"/><path d="M483.992 428.727c-9.426-.02-20.797-.04-33.695-.063a259.816 259.816 0 0 0-31.629-49.14l-.02-.02c12.094 0 23.395.012 33.7.02a259.64 259.64 0 0 1 31.644 49.203zm0 0" fill="#ff2e04"/><path d="M406.95 77.516v89.05c0 6-4.86 10.856-10.86 10.856H257.102c-2.446 0-4.696-.817-6.516-2.172a10.851 10.851 0 0 1-4.344-8.688V66.656h149.852c5.996 0 10.855 4.86 10.855 10.86zm0 0" fill="#7e18ea"/><path d="M406.95 144.957v21.606c0 6-4.86 10.859-10.86 10.859H257.102c-2.446 0-4.696-.817-6.516-2.172a10.851 10.851 0 0 1-4.344-8.688v-21.605zm0 0" fill="#00c2cc"/><path d="M406.95 77.516v25.097H246.241V66.656h149.852c5.996 0 10.855 4.86 10.855 10.86zm0 0" fill="#ffe5c0"/><path d="M346.14 31.887v89.05c0 6-4.855 10.86-10.855 10.86H207.152V21.03h128.133c5.996 0 10.856 4.856 10.856 10.856zm0 0" fill="#b200bf"/><path d="M346.14 102.613v18.325c0 6-4.855 10.859-10.855 10.859H207.152v-29.184zm0 0" fill="#9bf2e5"/><path d="M346.14 31.887v25.101H207.153V21.031h128.133c5.996 0 10.856 4.856 10.856 10.856zm0 0" fill="#fef5e3"/><path d="M337.457 131.8l-86.871 43.446a10.84 10.84 0 0 1-4.344-8.687v-34.77zm0 0" fill="#2500ad"/><path d="M511.527 483.781c-11.234-48.933-36.148-93.777-72.05-129.683a277.005 277.005 0 0 0-17.754-16.246 7.5 7.5 0 1 0-9.633 11.5 260.854 260.854 0 0 1 16.781 15.355 262.61 262.61 0 0 1 7.012 7.3c-29.578-.015-67.028-.015-109.621.005-17.145 0-33.45-4.356-47.153-12.594-19.336-11.605-45.164-17.996-72.726-17.996-27.637 0-53.516 6.422-72.88 18.086a82.36 82.36 0 0 1-6.741 3.648c-12.157 5.867-26.157 8.985-40.48 9.02-3.997.004-9.731.008-16.5.008a239.96 239.96 0 0 1 11.316-12.145c3.5-3.5 7.308-7.059 11.32-10.586a7.483 7.483 0 0 0 2.55-5.734l-.214-16.492a4.037 4.037 0 0 1 2.105-3.606l36.118-19.723a4.029 4.029 0 0 1 4.168.176l9 5.953a7.498 7.498 0 0 0 7.156.61 238.976 238.976 0 0 1 46.347-14.926v12.766h-12.816a18.29 18.29 0 0 0-14.215 6.738l-5.054 6.183a7.502 7.502 0 0 0 5.804 12.247 7.47 7.47 0 0 0 5.809-2.754l5.054-6.184a3.354 3.354 0 0 1 2.602-1.23h40.473c1.039 0 2.039.492 2.668 1.32l4.312 5.644a7.502 7.502 0 0 0 10.516 1.41c3.293-2.511 3.922-7.218 1.41-10.511l-4.313-5.649c-3.453-4.52-8.906-7.218-14.593-7.218h-12.653v-15.47c6.45-.956 12.961-1.667 19.528-2.108a7.494 7.494 0 0 0 6.976-7.989c-.277-4.129-3.847-7.242-7.984-6.976a259.616 259.616 0 0 0-18.52 1.922V139.297h24.09v27.266c0 5.828 2.738 11.015 6.98 14.382.22.184.446.352.68.508 3.016 2.172 6.703 3.469 10.7 3.469h138.992c10.125 0 18.36-8.234 18.36-18.36v-89.05c0-10.125-8.235-18.36-18.36-18.36h-42.45V31.887c0-10.121-8.238-18.356-18.359-18.356h-65.953a7.5 7.5 0 1 0 0 15h65.953a3.363 3.363 0 0 1 3.36 3.356v17.601H214.652V28.531h22.02a7.5 7.5 0 0 0 0-15h-22.02V8a7.5 7.5 0 0 0-7.5-7.5 7.497 7.497 0 0 0-7.5 7.5v272.395a253.663 253.663 0 0 0-48.609 14.89l-5.625-3.722a19.003 19.003 0 0 0-19.629-.829l-36.121 19.723a19.002 19.002 0 0 0-9.914 16.965l.172 13.07a250.284 250.284 0 0 0-9.434 8.942C33.574 386.348 9.293 433.18.273 484.864a18.206 18.206 0 0 0 4.02 14.882 18.36 18.36 0 0 0 14.082 6.563h475.266a18.24 18.24 0 0 0 14.343-6.914c3.516-4.415 4.805-10.106 3.543-15.614zM214.652 110.117h123.993v10.824a3.36 3.36 0 0 1-3.36 3.356h-88.867c-.059 0-.113-.008-.176-.008-.058 0-.113.008-.172.008h-31.418zm184.801 27.34h-56.207c6.14-2.973 10.399-9.25 10.399-16.516v-10.824h45.808zm-93.754 1.844l-51.957 25.98v-25.98zm90.395 30.62H278l34.922-17.464h86.531v14.106a3.362 3.362 0 0 1-3.36 3.359zm0-95.765a3.36 3.36 0 0 1 3.36 3.356v17.601h-45.81V74.156zm-57.45-9.668v30.625H214.653V64.488zM86.31 387.176c16.562-.04 32.804-3.672 46.968-10.508a95.968 95.968 0 0 0 7.973-4.316c16.805-10.125 40.543-15.93 65.129-15.93 24.523 0 48.215 5.781 65.004 15.855 16.031 9.641 35.008 14.735 54.883 14.735 49.02-.024 91.234-.02 122.46.004a254.785 254.785 0 0 1 22.833 34.183c-31.43-.05-80.086-.066-145.028-.043-19.886 0-38.898 5.125-54.988 14.832-3.797 2.301-8.043 4.422-12.617 6.301-15.356 6.32-33.524 9.664-52.547 9.664-24.559 0-48.274-5.797-65.066-15.902-16.04-9.637-34.985-14.73-54.805-14.73h-.137c-8.883.007-26.312.015-44.676.023l-4.886.004a235.318 235.318 0 0 1 20.941-34.164c11.96 0 22.348 0 28.559-.008zM496.25 490.05a3.275 3.275 0 0 1-2.61 1.254H18.376a3.362 3.362 0 0 1-2.602-1.211c-.367-.438-.949-1.364-.726-2.653 3.094-17.714 8.098-34.816 14.883-51.09l11.773-.003c18.363-.008 35.793-.02 44.684-.024h.117c17.098 0 33.379 4.352 47.074 12.586 19.34 11.637 45.195 18.047 72.8 18.047 20.966 0 41.11-3.734 58.25-10.793 5.286-2.168 10.227-4.64 14.677-7.336 13.738-8.289 30.07-12.668 47.23-12.668 70.512-.023 121.832-.004 152.727.055a250.61 250.61 0 0 1 17.64 50.922 3.372 3.372 0 0 1-.652 2.914zm0 0"/><path d="M295.3 291.285l18.009-17.348a4.039 4.039 0 0 1 4.07-.93l39.094 12.845a4.045 4.045 0 0 1 2.726 3.164l4.254 24.898a7.502 7.502 0 0 0 3.895 5.371 253.36 253.36 0 0 1 18.894 11.04 7.448 7.448 0 0 0 4.051 1.19 7.501 7.501 0 0 0 6.316-3.44 7.505 7.505 0 0 0-2.254-10.368 271.752 271.752 0 0 0-16.734-9.934l-3.637-21.285a19 19 0 0 0-12.828-14.886l-39.097-12.844a18.998 18.998 0 0 0-19.157 4.375l-15.351 14.789a265 265 0 0 0-20.758-2.09c-4.121-.234-7.691 2.895-7.945 7.027-.25 4.133 2.894 7.692 7.027 7.946 7.75.472 15.512 1.312 23.07 2.488a7.511 7.511 0 0 0 6.356-2.008zm0 0M331.277 451.898h-.03a7.505 7.505 0 0 0-7.47 7.532v.113a7.503 7.503 0 0 0 7.5 7.469h.036a7.502 7.502 0 0 0 7.464-7.535v-.11a7.498 7.498 0 0 0-7.5-7.469zm0 0M271.004 324.176h-.031a7.502 7.502 0 0 0-7.47 7.531v.113a7.5 7.5 0 0 0 7.5 7.47h.036a7.502 7.502 0 0 0 7.465-7.536v-.11a7.498 7.498 0 0 0-7.5-7.468zm0 0M307.055 457.05h-.035a7.499 7.499 0 0 0-7.465 7.532v.113a7.498 7.498 0 0 0 7.5 7.47h.03a7.505 7.505 0 0 0 7.47-7.532v-.113a7.503 7.503 0 0 0-7.5-7.47zm0 0M203.77 438.582c26.015 0 46.39-14.953 46.39-34.039 0-19.082-20.375-34.035-46.39-34.035s-46.395 14.953-46.395 34.035c0 19.086 20.379 34.039 46.395 34.039zm0-53.074c17.015 0 31.39 8.719 31.39 19.035 0 10.32-14.375 19.035-31.39 19.035-17.02 0-31.395-8.715-31.395-19.035 0-10.316 14.375-19.035 31.395-19.035zm0 0M446.219 456.762c-3.45-4.524-8.906-7.219-14.59-7.219h-18.754a18.29 18.29 0 0 0-14.215 6.738l-5.055 6.188a7.497 7.497 0 0 0 1.063 10.55 7.497 7.497 0 0 0 10.55-1.058l5.055-6.188a3.354 3.354 0 0 1 2.602-1.23h18.754c1.039 0 2.039.492 2.668 1.32l8.383 10.977a7.476 7.476 0 0 0 5.965 2.945c1.585 0 3.187-.5 4.546-1.539a7.496 7.496 0 0 0 1.407-10.512zm0 0"/></svg>