<svg xmlns="http://www.w3.org/2000/svg" viewBox="0 0 464.004 464.004"><path fill="#5e342e" d="M129.002 244h206v88.005h-206z"/><path d="M380.379 436.832l-9.188-68.908a39.939 39.939 0 0 0-7.047-17.87c1.714-3.66.426-8.109-3.128-10.241l-26.278-15.767a8 8 0 0 0-10.9 2.62l-.553.885-32.343-11.9a16 16 0 0 1-10.94-15.179V274.67l34.461-14.358a48 48 0 0 0 29.539-44.308v-72c0-22.092-17.909-40.004-40-40.004h-144c-22.091 0-40 17.913-40 40.004v72a48 48 0 0 0 29.538 44.308l34.462 14.359v25.801a16 16 0 0 1-10.94 15.179l-32.343 11.9-.553-.885a8 8 0 0 0-10.9-2.62l-26.278 15.767c-3.555 2.133-4.842 6.581-3.128 10.241a39.95 39.95 0 0 0-7.047 17.87l-9.188 68.908c-1.918 14.388 9.275 27.172 23.789 27.172H356.59c14.515 0 25.708-12.784 23.789-27.172z" fill="#f6b47b"/><path d="M280.002 274.671l-96-21.334v47.135c0 5.759-3.186 10.831-8.017 13.659 67.094 11.744 104.017-39.46 104.017-39.46z" fill="#e2a071"/><path d="M314.464 260.312L262.77 281.85a80.012 80.012 0 0 1-61.539 0l-51.691-21.538a48 48 0 0 1-29.538-44.308v-72c0-22.091 17.909-40.004 40-40.004h144c22.091 0 40 17.913 40 40.004v72a48 48 0 0 1-29.538 44.308z" fill="#fdc88e"/><path d="M176.002 192.004c-4.4 0-8-3.6-8-8v-8c0-4.4 3.6-8 8-8s8 3.6 8 8v8c0 4.4-3.6 8-8 8zM288.002 192.004c-4.4 0-8-3.6-8-8v-8c0-4.4 3.6-8 8-8s8 3.6 8 8v8c0 4.4-3.6 8-8 8z" fill="#623f33"/><path d="M232.002 248.223c-14.223 0-27.527-3.5-36.5-9.605-3.652-2.484-4.602-7.461-2.113-11.113 2.48-3.648 7.461-4.598 11.113-2.113 6.289 4.277 16.57 6.832 27.5 6.832s21.211-2.555 27.5-6.832a7.992 7.992 0 0 1 11.113 2.113 7.997 7.997 0 0 1-2.113 11.113c-8.972 6.105-22.277 9.605-36.5 9.605z" fill="#e2a071"/><path d="M201.231 281.85a80.115 80.115 0 0 0 7.727 2.749c-22.844-16.711-38.05-31.32-46.96-40.872-6.482-6.95-9.995-16.121-9.995-25.625V104.81c-18.257 3.707-32 19.843-32 39.194v72a48 48 0 0 0 29.538 44.308l51.69 21.538z" fill="#f6b47b"/><path d="M323.839 326.666l-28.786 46.058a24 24 0 0 1-20.352 11.28h-85.396a24 24 0 0 1-20.352-11.28l-28.786-46.058a8 8 0 0 0-10.9-2.62l-26.278 15.767a8 8 0 0 0-2.668 11.1l35.682 57.092h192l35.682-57.092a8 8 0 0 0-2.668-11.1l-26.278-15.767a8 8 0 0 0-10.9 2.62z" fill="#ffc84a"/><path fill="#ffdc46" d="M136.002 408.004h192v56h-192z"/><path d="M362.388 113.314C348.002 42 297.635 0 232.002 0s-116 42-130.385 113.314C86.521 188.15 80.002 300.409 80.002 400l56 16c0-78.483 5.456-218.291 7.355-264.569 49.232-1.947 152.644-9.976 176.645-39.432 0 0 8 209 8 304l56-16c0-99.59-6.519-211.849-21.614-286.685z" fill="#6e4439"/><path d="M189.617 113.314c10.958-54.322 42.829-91.565 86.385-106.262C262.377 2.454 247.641 0 232.002 0c-65.632 0-116 42-130.385 113.314C86.521 188.15 80.002 300.409 80.002 400l56 16c0-78.483 5.456-218.291 7.355-264.569a966.528 966.528 0 0 0 40.125-2.432c1.868-12.582 3.896-24.586 6.135-35.685z" fill="#5e342e"/><path d="M360.076 120H103.929c-4.026 0-6.981-3.784-6.004-7.69l4.906-19.622A6.19 6.19 0 0 1 108.835 88H355.17a6.19 6.19 0 0 1 6.004 4.688l4.906 19.622c.976 3.906-1.978 7.69-6.004 7.69z" fill="#ffc84a"/><path d="M155.659 112.31l4.905-19.622A6.19 6.19 0 0 1 166.568 88h-57.735a6.19 6.19 0 0 0-6.004 4.688l-4.906 19.622c-.977 3.906 1.978 7.69 6.004 7.69h57.735c-4.025 0-6.979-3.784-6.003-7.69zM324.002 103.649c0 10.77-21.73 19.5-32.5 19.5s-19.5-8.73-19.5-19.5 8.73-19.5 19.5-19.5 32.5 8.731 32.5 19.5zM324.002 103.649c0-10.77 21.73-19.5 32.5-19.5s19.5 8.73 19.5 19.5-8.73 19.5-19.5 19.5c-10.769 0-32.5-8.73-32.5-19.5z" fill="#ffb04d"/><path d="M324.002 103.649c9.327 5.385 6.022 28.569.638 37.896-5.385 9.327-17.311 12.522-26.638 7.138-9.327-5.385-12.522-17.311-7.137-26.638 5.384-9.327 23.811-23.781 33.137-18.396z" fill="#ffdc46"/><path d="M324.002 103.649c-9.327-5.385-6.022-28.569-.637-37.896s17.311-12.522 26.638-7.138 12.522 17.311 7.138 26.638-23.812 23.781-33.139 18.396z" fill="#ffdc46"/><path d="M324.002 103.649c-9.327 5.385-6.022 28.569-.637 37.896s17.311 12.522 26.638 7.138 12.522-17.311 7.138-26.638-23.812-23.781-33.139-18.396z" fill="#ffc84a"/><path d="M324.002 103.649c9.327-5.385 6.022-28.569.638-37.896-5.385-9.327-17.311-12.522-26.638-7.138-9.327 5.385-12.522 17.311-7.137 26.638 5.384 9.327 23.811 23.781 33.137 18.396z" fill="#ffc84a"/><circle cx="324.002" cy="103.649" r="13" fill="#fff"/></svg>