<svg xmlns="http://www.w3.org/2000/svg" viewBox="0 0 464.004 464.004"><path d="M101.941 153.004c-7.98 19.92-15.94 48.624-15.94 83.892 0 46.747 118.667 67.037 148 67.037V153.004h-132.06z" fill="#5e342e"/><path d="M234.001 153.004v150.929c29.333 0 148-20.29 148-67.037 0-35.268-7.96-63.972-15.94-83.892h-132.06z" fill="#683f39"/><path d="M384.379 436.832l-9.188-68.908a40 40 0 0 0-25.837-32.253l-54.412-20.02a16 16 0 0 1-10.94-15.179V274.67l34.461-14.359a48 48 0 0 0 29.539-44.308v-8c13.255 0 24-10.745 24-24s-10.745-24-24-24v-16c0-22.091-17.909-56-40-56h-144c-22.091 0-40 33.909-40 56v16c-13.255 0-24 10.745-24 24s10.745 24 24 24v8a48 48 0 0 0 29.538 44.308l34.462 14.359v25.801a16 16 0 0 1-10.94 15.179l-54.412 20.02a40 40 0 0 0-25.837 32.253l-9.188 68.908c-1.918 14.388 9.275 27.172 23.789 27.172H360.59c14.515.001 25.708-12.783 23.789-27.171z" fill="#f6b47b"/><path d="M284.002 274.671l-96 .001v25.801a15.995 15.995 0 0 1-7.752 13.701c66.924 11.562 103.752-39.503 103.752-39.503z" fill="#e2a071"/><path d="M120.193 164.31H76.009c-5.66 0-9.53 5.716-7.428 10.971l8.123 20.307c1.83 4.574 7.319 6.424 11.544 3.889l31.945-19.167v-16z" fill="#ffab3b"/><path d="M120.193 164.31H76.009c-5.66 0-9.53-5.716-7.428-10.971l8.123-20.307c1.83-4.574 7.319-6.424 11.544-3.889l31.945 19.167v16z" fill="#ffc84a"/><path d="M343.811 164.31h44.184c5.66 0 9.53 5.716 7.428 10.971l-8.123 20.307c-1.83 4.574-7.319 6.424-11.544 3.889l-31.945-19.167v-16z" fill="#ffab3b"/><path d="M343.811 164.31h44.184c5.66 0 9.53-5.716 7.428-10.971l-8.123-20.307c-1.83-4.574-7.319-6.424-11.544-3.889l-31.945 19.167v16z" fill="#ffc84a"/><path d="M318.464 260.312L266.77 281.85a80.012 80.012 0 0 1-61.539 0l-51.691-21.538a48 48 0 0 1-29.538-44.308v-72c0-22.091 17.909-56 40-56h144c22.091 0 40 33.909 40 56v72a48 48 0 0 1-29.538 44.308z" fill="#fdc88e"/><circle cx="348.002" cy="184.004" r="24" fill="#fdc88e"/><path d="M180.001 192.004c-4.4 0-8-3.6-8-8v-8c0-4.4 3.6-8 8-8s8 3.6 8 8v8c0 4.4-3.6 8-8 8zM292.002 192.004c-4.4 0-8-3.6-8-8v-8c0-4.4 3.6-8 8-8s8 3.6 8 8v8c0 4.4-3.6 8-8 8z" fill="#623f33"/><path d="M236.001 248.223c-14.223 0-27.527-3.5-36.5-9.605-3.652-2.484-4.602-7.461-2.113-11.113 2.48-3.648 7.461-4.598 11.113-2.113 6.289 4.277 16.57 6.832 27.5 6.832s21.211-2.555 27.5-6.832a7.992 7.992 0 0 1 11.113 2.113 7.997 7.997 0 0 1-2.113 11.113c-8.971 6.105-22.276 9.605-36.5 9.605z" fill="#e2a071"/><path d="M257.002 85.004l-133 59v16c-13.255 0-24 10.745-24 24s10.745 24 24 24v8a48 48 0 0 0 29.538 44.308l51.69 21.538a80.115 80.115 0 0 0 7.727 2.749c-22.844-16.711-38.05-31.32-46.96-40.872-6.482-6.95-9.995-16.121-9.995-25.625v-51.427c27.547-6.414 108.033-35.437 128-70.674l-27-10.997z" fill="#f6b47b"/><path d="M327.839 326.666l-28.786 46.058a24 24 0 0 1-20.352 11.28h-85.396a24 24 0 0 1-20.352-11.28l-28.786-46.058a8 8 0 0 0-10.9-2.62l-26.278 15.767a8 8 0 0 0-2.668 11.1l35.682 57.092h192l35.682-57.092a8 8 0 0 0-2.668-11.1l-26.278-15.767a8 8 0 0 0-10.9 2.62z" fill="#00ab9a"/><path fill="#00bea4" d="M140.001 408.004h192v56h-192z"/><path d="M292.002 8c-11.578 0-19.826 1.597-25.702 3.78C257.984 4.669 245.807 0 228.001 0c-39 0-128 27-128 112 0 38.667 24 48.004 24 48.004s102.78-28.697 143.585-66.52c30.374 47.957 80.415 66.52 80.415 66.52s16-22.004 16-64.004-44.665-88-71.999-88z" fill="#683f39"/><path d="M228.001 0c-39 0-128 27-128 112 0 38.667 24 48.004 24 48.004s.314-.088.884-.251c19.806-16.702 110.02-94.271 141.657-147.623a52.375 52.375 0 0 1-1.516-1.384C256.756 4.223 244.925 0 228.001 0z" fill="#5e342e"/></svg>