<svg xmlns="http://www.w3.org/2000/svg" viewBox="0 0 460 460"><path d="M453.338 83.637L376.363 6.662c-8.882-8.882-23.284-8.883-32.166 0L6.661 344.197c-8.882 8.882-8.882 23.284 0 32.166l76.975 76.975c8.882 8.882 23.284 8.882 32.166 0l337.535-337.535c8.884-8.882 8.884-23.284.001-32.166zm-76.315-.66c-6.327-6.327-6.327-16.586 0-22.913s16.586-6.327 22.913 0 6.327 16.586 0 22.913-16.585 6.327-22.913 0z" fill="#e5c400"/><path fill="#59595a" d="M402.262 166.874l-24.127-24.127 7.07-7.071 24.128 24.127zM372.53 196.612l-24.128-24.127 7.071-7.07L379.6 189.54zM342.79 226.353l-24.127-24.127 7.07-7.071 24.128 24.127zM313.04 256.097l-24.127-24.128 7.07-7.07 24.128 24.127zM283.303 285.838l-24.127-24.127 7.07-7.07 24.128 24.126zM253.56 315.58l-24.127-24.127 7.071-7.071 24.127 24.127zM223.816 345.321l-24.128-24.127 7.07-7.071 24.129 24.127zM194.076 375.063l-24.127-24.127 7.071-7.071 24.127 24.127zM164.335 404.805l-24.127-24.127 7.071-7.071 24.127 24.127zM134.597 434.549l-24.127-24.127 7.071-7.071 24.127 24.127z"/><path d="M453.338 83.637L414.851 45.15l-14.914 14.914c6.327 6.327 6.327 16.586 0 22.913s-16.586 6.327-22.913 0L45.148 414.851l38.487 38.487c8.882 8.882 23.284 8.883 32.166 0l337.535-337.535c8.885-8.882 8.885-23.284.002-32.166z" opacity=".3" fill="#5b5b5f"/></svg>