<svg xmlns="http://www.w3.org/2000/svg" viewBox="0 0 464.002 464.002"><path d="M120.001 185.005c0 43-23 156.996-56 182.996l135.484 33.548c20.016-172.044-79.484-216.544-79.484-216.544z" fill="#e8a055"/><path d="M344.001 185.005c0 43 23 156.996 56 182.996l-135.484 33.548c-20.016-172.044 79.484-216.544 79.484-216.544z" fill="#f6b45e"/><path d="M380.379 436.83l-2.984-22.383-6.542-49.067a39.998 39.998 0 0 0-22.277-30.744l-30.861-14.879c-3.003-1.448-6.501-.135-7.99 2.804l-18.782-6.911a16 16 0 0 1-10.94-15.179v-25.802l34.461-14.359a48.003 48.003 0 0 0 29.537-44.309v-72c0-22.091-17.909-72-40-72h-144c-22.092 0-40 49.909-40 72v72a48 48 0 0 0 29.538 44.308l34.462 14.359v25.801a16 16 0 0 1-10.94 15.179l-18.782 6.911c-1.489-2.938-4.987-4.251-7.99-2.804l-30.861 14.879a40 40 0 0 0-22.277 30.744l-6.542 49.067-2.984 22.383c-1.919 14.389 9.274 27.173 23.789 27.173h249.175c14.515 0 25.708-12.784 23.79-27.171z" fill="#ffd7a3"/><path d="M320.001 326.34l-19.834-7.298c-9.615 28.45-36.469 48.959-68.166 48.959s-58.55-20.509-68.167-48.959l-19.833 7.298v9.661c0 48.601 39.399 88 88 88s88-39.399 88-88v-9.661z" fill="#72967d"/><path d="M380.379 436.83l-9.526-71.451a40 40 0 0 0-22.277-30.744l-30.861-14.879c-3.107-1.498-6.75-.046-8.143 3.109-20.236 45.826-54.904 67.136-77.571 77.139-22.667-10.002-57.335-31.313-77.569-77.14-1.393-3.155-5.036-4.606-8.143-3.109l-30.861 14.879a40 40 0 0 0-22.277 30.744l-9.526 71.451c-1.918 14.387 9.274 27.172 23.79 27.172H356.59c14.514.001 25.707-12.784 23.789-27.171z" fill="#8abe69"/><path d="M237.107 410.865c38.651-18.172 68.226-48.756 86.091-88.465l-5.484-2.644c-3.107-1.498-6.75-.046-8.143 3.109-20.235 45.826-54.903 67.136-77.57 77.139-22.667-10.002-57.335-31.313-77.569-77.14-1.393-3.155-5.036-4.606-8.143-3.109l-5.483 2.644c17.865 39.709 47.439 70.293 86.09 88.465l5.105 2.402 5.106-2.401zM144.001 429.726a40.003 40.003 0 0 0-8.426-24.558l-39.339-50.579c-1.497 3.403-2.582 7.011-3.086 10.79l-9.526 71.451c-1.918 14.387 9.274 27.172 23.79 27.172h36.587v-34.276z" fill="#9bce7a"/><path d="M280.001 274.668l-96 .001v25.801a15.995 15.995 0 0 1-7.752 13.701c66.923 11.562 103.75-39.499 103.752-39.503z" fill="#fdc88e"/><path d="M320.001 429.726a40.003 40.003 0 0 1 8.426-24.558l39.339-50.579c1.497 3.403 2.582 7.011 3.086 10.79l9.526 71.451c1.918 14.387-9.274 27.172-23.79 27.172h-36.587v-34.276z" fill="#9bce7a"/><path d="M314.463 260.309l-51.694 21.539a80.012 80.012 0 0 1-61.539 0l-51.691-21.538a48.004 48.004 0 0 1-29.538-44.309v-72c0-22.091 17.909-72 40-72h144c22.091 0 40 49.909 40 72v72a47.998 47.998 0 0 1-29.538 44.308z" fill="#ffe1b2"/><circle cx="120.001" cy="184.001" r="24" fill="#ffd7a3"/><circle cx="344.002" cy="184.001" r="24" fill="#ffe1b2"/><path d="M176.001 192.001c-4.4 0-8-3.6-8-8v-8c0-4.4 3.6-8 8-8s8 3.6 8 8v8c0 4.4-3.6 8-8 8zM288.001 192.001c-4.4 0-8-3.6-8-8v-8c0-4.4 3.6-8 8-8s8 3.6 8 8v8c0 4.4-3.6 8-8 8z" fill="#623f33"/><path d="M232.001 248.22c-14.223 0-27.527-3.5-36.5-9.605-3.652-2.484-4.602-7.461-2.113-11.113 2.48-3.648 7.461-4.598 11.113-2.113 6.289 4.277 16.57 6.832 27.5 6.832s21.211-2.555 27.5-6.832a7.992 7.992 0 0 1 11.113 2.113 7.997 7.997 0 0 1-2.113 11.113c-8.972 6.105-22.277 9.605-36.5 9.605z" fill="#e4b07b"/><path d="M245.877 86.403l-10.876-6.398-115 73.741v62.255a48 48 0 0 0 29.538 44.308l51.69 21.538a80.115 80.115 0 0 0 7.727 2.749c-22.844-16.711-38.05-31.32-46.96-40.872-6.482-6.95-9.995-16.121-9.995-25.625v-48.271c21.94-25.448 81.862-62.68 93.876-83.425z" fill="#ffd7a3"/><path d="M232.229 80.005c0 22.667 112 62.667 112 112 0 139.667 55.772 175.996 55.772 175.996-17-55.663-7.171-289.294-95.773-351.997-16.25-11.5-37.154-16.155-48-16-20.695.296-24 8-24 8v72.001h.001z" fill="#ffc85c"/><path d="M324.001 72.352c0 10.77-21.73 19.5-32.5 19.5-10.769 0-19.5-8.73-19.5-19.5s8.73-19.5 19.5-19.5 32.5 8.73 32.5 19.5zM324.001 72.352c0-10.77 21.73-19.5 32.5-19.5s19.5 8.73 19.5 19.5-8.73 19.5-19.5 19.5-32.5-8.73-32.5-19.5z" fill="#ffe095"/><path d="M324.001 72.352c9.327 5.385 6.022 28.569.637 37.896S307.327 122.77 298 117.386s-12.522-17.311-7.138-26.638c5.387-9.327 23.813-23.781 33.139-18.396z" fill="#ffeeb1"/><path d="M324.001 72.352c-9.327-5.385-6.022-28.569-.638-37.896 5.385-9.327 17.311-12.522 26.638-7.138s12.522 17.311 7.137 26.638c-5.384 9.327-23.81 23.781-33.137 18.396z" fill="#ffeeb1"/><path d="M324.001 72.352c-9.327 5.385-6.022 28.569-.638 37.896 5.385 9.327 17.311 12.522 26.638 7.138s12.522-17.311 7.137-26.638c-5.384-9.327-23.81-23.781-33.137-18.396z" fill="#fff2ce"/><path d="M324.001 72.352c9.327-5.385 6.022-28.569.637-37.896S307.327 21.934 298 27.318s-12.522 17.311-7.138 26.638c5.387 9.327 23.813 23.781 33.139 18.396z" fill="#fff2ce"/><circle cx="324.001" cy="72.352" r="13" fill="#fff"/><path d="M232.229 80.005c0 22.667-112 62.667-112 112 0 139.667-55.773 175.996-55.773 175.996 17-55.663 7.171-289.294 95.773-351.997 16.25-11.5 37.154-16.155 48-16 20.695.296 24 8 24 8v72.001z" fill="#ffc85c"/><path d="M208.229.005c-10.846-.155-31.75 4.5-48 16-88.602 62.702-78.773 296.334-95.773 351.996 0 0 55.772-36.329 55.772-175.996 0-15.446 10.98-29.977 26.064-43.348C169.006 25.335 232.229 8.005 232.229 8.005s-3.305-7.704-24-8z" fill="#f6b45e"/></svg>