<svg xmlns="http://www.w3.org/2000/svg" viewBox="0 0 460 460"><path d="M365.883 230.003c0 88.022 51.78 110.736 51.78 110.736L417.664 460H42.337l-.001-119.26s51.782-22.714 51.783-110.737c-.001-88.028-51.782-110.741-51.782-110.741L42.336.001 230 0h187.664v119.261s-51.781 22.714-51.781 110.742z" fill="#c8523b"/><path fill="#d8d9dd" d="M215.001 37.933h104.982v384.134H215.001z"/><path d="M302.553 230.002c0 17.978-14.574 32.55-32.553 32.553-17.981-.002-32.553-14.575-32.553-32.553 0-17.983 14.574-32.555 32.553-32.553 17.979-.004 32.553 14.57 32.553 32.553z" fill="#808083"/><path opacity=".3" fill="#5b5b5f" d="M137.362 37.933h52.971v384.134h-52.971z"/><path opacity=".4" fill="#5b5b5f" d="M287.253 219.819l-7.071-7.07L270 222.931l-10.182-10.182-7.071 7.07 10.182 10.183-10.182 10.183 7.071 7.07L270 237.073l10.182 10.182 7.071-7.07-10.182-10.183z"/><path fill="#fff" d="M190 37.933h25v384.134h-25z"/></svg>