<svg xmlns="http://www.w3.org/2000/svg" viewBox="0 0 464 464"><path d="M232.232 0h-.064C155.382 0 80.2 58 80.2 136c0 103.333 56 152 56 152s-11.542 23.589-15.012 44.996h41.961C159.318 310.596 160.2 288 160.2 288s216-39.333 216-152c0-76.786-67.182-136-143.968-136z" fill="#ff9656"/><path d="M299.295 15.919C279.017 5.733 256.092 0 232.232 0h-.063C155.382 0 80.2 58 80.2 136c0 103.333 56 152 56 152s-11.552 23.59-15.023 44.996h41.97C159.316 310.596 160.2 288 160.2 288s22.901-4.196 53.735-13.687L104.2 166.055s158.908-55.77 195.095-150.136z" fill="#ef8c56"/><path d="M383.588 413.991l-1.526-5.227a5.275 5.275 0 0 0-5.727-3.751l-5.334-40.002c-1.752-13.142-9.895-24.558-23.304-31.262l-15.714-7.857c-2.545-1.272-4.488.365-6.357 2.444l-34.485-12.689a16 16 0 0 1-10.94-15.179v-25.802l34.461-14.359a48 48 0 0 0 29.539-44.308v-8c13.255 0 24-10.745 24-24s-10.745-24-24-24v-16c0-22.091-17.909-56-40-56h-144c-22.092 0-40 33.909-40 56v16c-13.255 0-24 10.745-24 24s10.745 24 24 24v8a48 48 0 0 0 29.538 44.308l34.462 14.36v25.801a16 16 0 0 1-10.94 15.179l-34.485 12.689c-1.869-2.079-3.812-3.717-6.357-2.444l-15.714 7.857c-13.41 6.705-21.552 18.121-23.304 31.262l-5.334 40.002a5.275 5.275 0 0 0-5.727 3.751l-1.526 5.227a5.278 5.278 0 0 0 3.589 6.546l11.799 3.442V448c0 8.836 7.164 16 16 16h240c8.836 0 16-7.164 16-16v-24.021l11.799-3.442a5.278 5.278 0 0 0 3.587-6.546z" fill="#ffd7a3"/><path d="M280.2 273.831l-96 .165v26.472a15.995 15.995 0 0 1-7.752 13.701c66.923 11.563 103.749-40.334 103.752-40.338z" fill="#fdc88e"/><path d="M371.001 365.011c-1.752-13.142-9.895-24.558-23.304-31.262l-15.714-7.857c-2.905-1.452-5.025.886-7.146 3.345-42.636 49.431-92.635 70.767-92.635 70.767h-.002s-49.999-21.336-92.635-70.767c-2.121-2.459-4.242-4.797-7.146-3.345l-15.714 7.857c-13.41 6.705-21.552 18.121-23.304 31.262l-6.512 48.836C108.022 421.124 144.2 432 144.2 432v32h176v-32s36.178-10.876 57.313-18.153l-6.512-48.836z" fill="#9bce7a"/><path d="M344.2 160v-16c0-22.091-17.909-56-40-56h-144c-22.092 0-40 33.909-40 56v15.996c-13.255 0-24 10.745-24 24s10.745 24 24 24V216a48 48 0 0 0 29.538 44.308l51.691 21.538a80.007 80.007 0 0 0 61.539 0l51.694-21.539a48 48 0 0 0 29.539-44.308v-8c13.255 0 24-10.745 24-24S357.455 160 344.2 160z" fill="#ffe1b2"/><path d="M288.2 192c-4.4 0-8-3.6-8-8v-8c0-4.4 3.6-8 8-8s8 3.6 8 8v8c0 4.4-3.6 8-8 8z" fill="#623f33"/><path d="M232.2 248.219c-14.223 0-27.527-3.5-36.5-9.605a7.997 7.997 0 0 1-2.113-11.113c2.48-3.648 7.461-4.598 11.113-2.113 6.289 4.277 16.57 6.832 27.5 6.832s21.211-2.555 27.5-6.832a7.992 7.992 0 0 1 11.113 2.113 7.997 7.997 0 0 1-2.113 11.113c-8.973 6.105-22.277 9.605-36.5 9.605z" fill="#e4b07b"/><path d="M120.2 160c-13.255 0-24 10.745-24 24s10.745 24 24 24v8a48 48 0 0 0 29.538 44.308l51.69 21.538a80.115 80.115 0 0 0 7.727 2.749c-22.844-16.711-38.05-31.32-46.96-40.872-6.482-6.949-9.995-16.121-9.995-25.625V176s133.333-16.667 168-72c2.026-3.233 3.425-6.167 4.277-8.832C246.467 139.992 120.2 160 120.2 160z" fill="#ffd7a3"/><path d="M144.002 429.556c-.489-9.513-3.665-18.705-9.402-26.355l-37.557-50.076c-1.813 3.734-3.087 7.708-3.645 11.887l-6.341 47.561 56.945 16.983z" fill="#8abe69"/><path d="M80.812 413.991a5.278 5.278 0 0 0 3.588 6.546l59.799 17.444V432c0-3.779-.594-7.481-1.461-11.113l-53.856-15.71a5.277 5.277 0 0 0-6.544 3.588l-1.526 5.226z" fill="#76ab5f"/><path d="M320.398 429.556c.489-9.513 3.665-18.705 9.402-26.355l37.557-50.076c1.813 3.734 3.087 7.708 3.645 11.887l6.341 47.561-56.945 16.983z" fill="#8abe69"/><path d="M383.588 413.991a5.278 5.278 0 0 1-3.588 6.546l-59.8 17.444V432c0-3.779.594-7.481 1.461-11.113l53.856-15.71a5.277 5.277 0 0 1 6.544 3.588l1.527 5.226zM160.2 296h-24a8 8 0 0 1 0-16h24a8 8 0 0 1 0 16z" fill="#76ab5f"/><path d="M104.2 84.996v81.059c124.89-14.872 184.031-41.191 210.985-59.117 1.986 29.312 1.456 73.299-12.233 117.063 0 0 47.884-66.782 40.461-139.004L104.2 84.996z" fill="#ff9656"/><path d="M176.2 192c-4.4 0-8-3.6-8-8v-8c0-4.4 3.6-8 8-8s8 3.6 8 8v8c0 4.4-3.6 8-8 8z" fill="#623f33"/><path d="M104.2 84.996v81.059c.009-.003 83.212-29.188 142.933-81.059H104.2z" fill="#ef8c56"/></svg>