<svg xmlns="http://www.w3.org/2000/svg" viewBox="0 0 464 464"><path d="M380.377 436.829l-9.576-71.817a39.998 39.998 0 0 0-21.761-30.491l-17.232-8.616c-2.567-1.284-5.51-.145-6.766 2.29l-34.103-12.548a16 16 0 0 1-10.94-15.179v-25.802l34.461-14.359A47.996 47.996 0 0 0 344 216v-8c13.255 0 24-10.745 24-24s-10.745-24-24-24v-16c0-22.092-17.909-56-40-56H160c-22.092 0-40 33.909-40 56v72a48 48 0 0 0 29.538 44.308L184 274.667v25.801a16 16 0 0 1-10.94 15.179l-34.101 12.547c-1.242-2.438-4.18-3.583-6.742-2.302l-15.714 7.857c-13.41 6.705-21.552 18.121-23.304 31.262l-9.576 71.817C81.704 451.216 92.896 464 107.411 464h249.176c14.515 0 25.708-12.784 23.79-27.171z" fill="#ffd7a3"/><path d="M392 312s-24-139.333-24-192l-96 144 104 56c-5 9.5-9.529 22.472 8 40 15.5 15.5 24 48 24 48 22-82-16-96-16-96z" fill="#9d6e48"/><path d="M374.878 329.301l22.087-10.888a7.997 7.997 0 1 0-7.072-14.346l-22.087 10.888a7.997 7.997 0 0 0-3.636 10.712 7.996 7.996 0 0 0 10.708 3.634z" fill="#ffb04d"/><path d="M191.999 264l-96-144c0 52.667-24 192-24 192s-38 14-16 96c0 0 8.5-32.5 24-48 17.529-17.529 13-30.5 8-40l104-56z" fill="#8d5f3d"/><path d="M89.122 329.301l-22.087-10.888a7.997 7.997 0 1 1 7.072-14.346l22.087 10.888a7.997 7.997 0 1 1-7.072 14.346z" fill="#ffb04d"/><path d="M279 274h-95v26.468c0 5.759-3.186 10.831-8.017 13.659C243.076 325.871 279 274 279 274z" fill="#fdc88e"/><path d="M349.04 334.521l-17.232-8.616c-2.92-1.46-6.327.212-7.184 3.362-11.09 40.761-48.352 70.736-92.626 70.736-44.285 0-81.555-29.99-92.635-70.767-.852-3.134-4.242-4.797-7.146-3.345l-15.714 7.857c-13.41 6.705-21.552 18.121-23.304 31.262l-9.576 71.817c-1.918 14.388 9.275 27.172 23.789 27.172h249.176c14.515 0 25.708-12.784 23.789-27.172l-9.576-71.817a39.998 39.998 0 0 0-21.761-30.489z" fill="#ffc84a"/><path d="M96.842 353.124c-1.813 3.734-3.087 7.708-3.645 11.887l-9.576 71.817C81.704 451.216 92.897 464 107.412 464H144v-32a48.003 48.003 0 0 0-9.6-28.8l-37.558-50.076zM367.156 353.124c1.813 3.734 3.087 7.708 3.645 11.887l9.576 71.817c1.918 14.388-9.275 27.172-23.79 27.172H320v-32a47.997 47.997 0 0 1 9.6-28.8l37.556-50.076z" fill="#ffb04d"/><path d="M344 160v-16c0-22.092-17.909-56-40-56H160c-22.092 0-40 33.909-40 56v72a48 48 0 0 0 29.538 44.308l51.691 21.538a79.988 79.988 0 0 0 61.539 0l51.694-21.539A47.997 47.997 0 0 0 344 216v-8c13.255 0 24-10.745 24-24s-10.745-24-24-24z" fill="#ffe1b2"/><path d="M288 192c-4.4 0-8-3.6-8-8v-8c0-4.4 3.6-8 8-8s8 3.6 8 8v8c0 4.4-3.601 8-8 8z" fill="#623f33"/><path d="M231.999 248.219c-14.223 0-27.527-3.5-36.5-9.605a7.997 7.997 0 0 1-2.113-11.113c2.48-3.648 7.461-4.598 11.113-2.113 6.289 4.277 16.57 6.832 27.5 6.832s21.211-2.555 27.5-6.832a7.992 7.992 0 0 1 11.113 2.113 7.997 7.997 0 0 1-2.113 11.113c-8.971 6.105-22.276 9.605-36.5 9.605z" fill="#e4b07b"/><path d="M250.999 113.915l-19-31.915s-112 80.667-112 110v24a48 48 0 0 0 29.538 44.308l51.69 21.538a80.115 80.115 0 0 0 7.727 2.749c-22.844-16.711-38.05-31.32-46.96-40.872-6.482-6.95-9.995-16.121-9.995-25.625V208c0-50.557 78.252-58.189 99-94.085z" fill="#ffd7a3"/><g fill="#9d6e48"><path d="M103.999 166.055l-.037.008.037-.008zM272 0c-26 0-40 8-40 8s-14-8-40-8-124.666 50.055-88 166.055C116 199.5 136 216 136 216c-1.084-6.322-.063-14.108 2.386-22.368 6.856-23.12 23.648-42.277 45.392-52.704C209.736 128.48 232 111.078 232 88c0 55.333 128 78.055 128 78.055C396.667 50.055 298 0 272 0z"/></g><path d="M231.999 8s-14-8-40-8-124.666 50.055-88 166.055c12.5 34.778 32 49.945 32 49.945-50-152.667 81.334-204.667 96-208z" fill="#8d5f3d"/><path d="M231.999 416c52.755 0 96.872-36.521 108.747-85.627l-8.938-4.469c-2.919-1.46-6.327.212-7.184 3.362-11.09 40.761-48.352 70.736-92.627 70.736-44.285 0-81.555-29.99-92.635-70.767-.852-3.134-4.242-4.797-7.146-3.345l-8.964 4.482C135.128 379.48 179.244 416 231.999 416z" fill="#ffb04d"/><path d="M232.044 358.683c-32.102 0-60.59-16.711-69.277-40.625-1.508-4.156.637-8.742 4.789-10.258 4.172-1.469 8.742.641 10.25 4.789 6.434 17.719 28.738 30.094 54.238 30.094 25.371 0 47.648-12.297 54.172-29.906 1.539-4.148 6.156-6.266 10.277-4.719 4.145 1.531 6.258 6.133 4.723 10.281-8.797 23.75-37.242 40.344-69.172 40.344z" fill="#ffb04d"/><circle cx="232.044" cy="366.683" r="23.32" fill="#ffb04d"/><circle cx="232.044" cy="366.683" r="16" fill="#ff6473"/><path d="M224.044 366.683c0-7.447 5.111-13.65 12-15.434-1.286-.333-2.61-.566-4-.566-8.836 0-16 7.163-16 16 0 8.836 7.164 16 16 16 1.39 0 2.714-.233 4-.566-6.89-1.784-12-7.987-12-15.434z" fill="#f05467"/><g><circle cx="236.044" cy="362.683" r="4" fill="#ffa0b5"/></g><g><path d="M175.999 192c-4.4 0-8-3.6-8-8v-8c0-4.4 3.6-8 8-8s8 3.6 8 8v8c0 4.4-3.6 8-8 8z" fill="#623f33"/></g></svg>