<svg height="512pt" viewBox="-14 0 511 512" width="512pt" xmlns="http://www.w3.org/2000/svg"><path d="M223.215 410.11h37.543v58.757h-37.543zm0 0" fill="#ffc850"/><path d="M223.215 410.11h25.594v58.757h-25.594zm0 0M445.363 44.953h-61.105v33.711h53.476a4.258 4.258 0 0 1 4.258 4.258v118.973c0 45.476-28.199 84.945-66.297 104.12-7.554 17.919-19.738 33.454-35.027 45.09 74.766-8.546 135.031-72.195 135.031-149.21V75.293c.004-16.758-13.582-30.34-30.336-30.34zm0 0" fill="#feb644"/><path d="M457.734 78.664h-20a4.258 4.258 0 0 1 4.258 4.258v118.973c0 45.476-28.199 84.945-66.293 104.117-7.558 17.922-19.738 33.453-35.031 45.093a151.05 151.05 0 0 0 26.691-5.535 111.114 111.114 0 0 0 23.579-29.68c3.453-6.331 8.558-11.632 14.671-15.46 32.973-20.657 56.383-57.102 56.383-98.535V82.922a4.258 4.258 0 0 0-4.258-4.258zm0 0" fill="#f9972d"/><path d="M108.277 306.012c-38.093-19.172-66.293-58.64-66.293-104.117V82.922a4.254 4.254 0 0 1 4.254-4.258h53.477v-33.71H38.609c-16.754 0-30.336 13.585-30.336 30.339v126.602c0 77.015 60.266 140.664 135.032 149.21-15.29-11.64-27.473-27.175-35.028-45.093zm0 0" fill="#feb644"/><path d="M28.273 201.895V75.293c0-16.758 13.586-30.34 30.34-30.34H38.61c-16.754 0-30.336 13.582-30.336 30.34v126.602c0 77.011 60.266 140.664 135.032 149.21a110.68 110.68 0 0 1-6.688-5.535c-61.91-18.785-108.344-76.078-108.344-143.675zm0 0" fill="#f9972d"/><path d="M332.27 494.488V476.79a9.92 9.92 0 0 0-9.922-9.922H161.625c-5.477 0-9.918 4.442-9.918 9.922v17.7c0 5.48 4.441 9.921 9.918 9.921h160.723a9.92 9.92 0 0 0 9.922-9.922zm0 0M290.793 401.168v-17.7c0-5.48-4.441-9.925-9.922-9.925h-77.77c-5.48 0-9.921 4.445-9.921 9.926v17.699c0 5.477 4.441 9.922 9.922 9.922h77.77c5.48-.004 9.921-4.445 9.921-9.922zm0 0" fill="#feb644"/><path d="M97.715 42.953v222.645c0 60.472 49.476 109.949 109.945 109.949h68.653c60.468 0 109.945-49.477 109.945-109.95V42.954zm0 0" fill="#ffc850"/><path d="M127.715 265.598V42.953h-30v222.645c0 60.472 49.476 109.949 109.95 109.949h30c-60.474-.004-109.95-49.477-109.95-109.95zm0 0" fill="#feb644"/><path d="M397.793 7.41H86.183a9.92 9.92 0 0 0-9.921 9.922v17.7a9.92 9.92 0 0 0 9.922 9.921h311.609c5.477 0 9.918-4.441 9.918-9.922V17.332c0-5.48-4.441-9.922-9.918-9.922zm0 0M275.703 173.316h-30.125c-2.277 0-3.59-2.593-2.238-4.43l19.515-26.527c5.27-7.16 3.735-17.23-3.425-22.496-7.157-5.265-17.227-3.734-22.496 3.426l-41.621 56.582c-7.81 10.613-.2 25.625 12.96 25.625h30.122c2.28 0 3.59 2.59 2.242 4.426l-19.25 26.164c-5.13 6.976-4.192 16.918 2.531 22.379 7.18 5.832 17.695 4.43 23.121-2.942l41.625-56.582c7.805-10.613.2-25.625-12.96-25.625zm0 0" fill="#feb644"/><g fill="#f9972d"><path d="M225.313 179.871l39.324-53.46a16.025 16.025 0 0 0-5.207-6.552c-7.157-5.261-17.23-3.73-22.496 3.43l-41.625 56.582c-7.805 10.61-.196 25.621 12.96 25.621h30.004c-13.16.004-20.765-15.008-12.96-25.62zm0 0M251.39 236.086l19.247-26.164c1.351-1.836.039-4.426-2.239-4.426h-30.003c2.28 0 3.59 2.59 2.242 4.426l-19.25 26.164c-5.13 6.976-4.192 16.918 2.531 22.379 7.18 5.832 17.695 4.43 23.121-2.942l2.328-3.164c-2.168-5.199-1.527-11.445 2.024-16.273zm0 0M322.348 480.906H161.625c-4.469 0-8.246-2.957-9.488-7.02-.278.919-.434 1.891-.434 2.903v17.7c0 5.476 4.442 9.921 9.922 9.921h160.723c5.476 0 9.922-4.445 9.922-9.922V476.79a9.883 9.883 0 0 0-.434-2.902c-1.242 4.062-5.02 7.02-9.488 7.02zm0 0M280.871 387.586h-77.77c-4.468 0-8.246-2.957-9.488-7.02-.277.918-.43 1.891-.43 2.899v17.7c0 5.48 4.442 9.92 9.919 9.92h77.77a9.92 9.92 0 0 0 9.921-9.92v-17.7c0-1.008-.152-1.98-.434-2.899-1.242 4.063-5.02 7.02-9.488 7.02zm0 0M397.793 21.453H86.183c-4.468 0-8.245-2.957-9.488-7.02a9.877 9.877 0 0 0-.433 2.899v17.7a9.92 9.92 0 0 0 9.922 9.921h311.609c5.477 0 9.918-4.441 9.918-9.922V17.332c0-1.008-.152-1.98-.43-2.898-1.242 4.062-5.02 7.02-9.488 7.02zm0 0"/></g><path d="M137.98 358.371c13.98 10.274 30.301 17.531 48.008 20.805a17.443 17.443 0 0 0-.582 4.383v17.699c0 9.605 7.817 17.422 17.426 17.422h12.61v40.777h-54.087c-9.605 0-17.421 7.813-17.421 17.422v17.7c0 9.605 7.812 17.421 17.421 17.421h62.856a7.5 7.5 0 0 0 0-15h-62.856a2.426 2.426 0 0 1-2.421-2.422v-17.7a2.424 2.424 0 0 1 2.421-2.421h160.72a2.424 2.424 0 0 1 2.421 2.422v17.7a2.424 2.424 0 0 1-2.422 2.421h-62.86a7.5 7.5 0 1 0 0 15h62.86c9.606 0 17.422-7.816 17.422-17.422v-17.7c0-9.605-7.812-17.421-17.422-17.421h-54.09V418.68h12.614c9.605 0 17.422-7.817 17.422-17.422v-17.7c0-1.515-.215-2.98-.579-4.382 17.707-3.274 34.028-10.531 48.008-20.805 78.125-10.05 137.48-76.95 137.48-156.387v-36.898c0-4.145-3.355-7.5-7.5-7.5a7.497 7.497 0 0 0-7.5 7.5v36.898c0 63.965-42.206 118.895-101.546 136.668a117.743 117.743 0 0 0 16.922-27.148c39.492-21.016 65.914-62.469 65.914-109.52V78.754a7.5 7.5 0 0 0-7.5-7.5h-48.23V52.543h51.6c12.595 0 22.84 10.246 22.84 22.84v54.699a7.5 7.5 0 0 0 7.5 7.5 7.5 7.5 0 0 0 7.5-7.5v-54.7c0-20.866-16.972-37.839-37.84-37.839h-30.335c.11-.793.187-1.598.187-2.422v-17.7C414.941 7.817 407.125 0 397.52 0H85.91c-9.605 0-17.422 7.816-17.422 17.422v17.7c0 .823.078 1.628.188 2.421H38.34C17.477 37.543.5 54.516.5 75.383V201.98c0 79.34 59.258 146.329 137.48 156.391zm-45.265-69.289c-27.219-20.39-43.504-52.3-43.504-87.098V86.254h40.73v177.434c0 8.718.965 17.214 2.774 25.394zm160.27 170.375h-22.54V418.68h22.54zm27.613-78.32a2.423 2.423 0 0 1 2.422 2.418v17.699a2.424 2.424 0 0 1-2.422 2.422h-77.766a2.424 2.424 0 0 1-2.422-2.422v-17.7a2.423 2.423 0 0 1 2.422-2.417zm153.62-294.883v115.73c0 34.797-16.284 66.711-43.503 87.098a117.266 117.266 0 0 0 2.773-25.394V86.254zm-55.73 177.434c0 56.042-45.613 102.445-102.449 102.445h-68.648c-56.98 0-102.45-46.645-102.45-102.445V52.542h273.547zm-295-228.567v-17.7A2.424 2.424 0 0 1 85.91 15h311.61a2.424 2.424 0 0 1 2.421 2.422v17.7a2.426 2.426 0 0 1-2.418 2.421H85.906a2.426 2.426 0 0 1-2.418-2.422zM15.5 75.383c0-12.594 10.246-22.84 22.84-22.84H89.94v18.71h-48.23a7.5 7.5 0 0 0-7.5 7.5v123.231c0 47.067 26.437 88.512 65.914 109.52a117.625 117.625 0 0 0 16.926 27.148C57.71 320.88 15.5 265.95 15.5 201.984zm0 0"/><path d="M208 213.086h20.79l-13.985 19.012c-7.707 10.48-5.453 25.273 5.023 32.98 10.477 7.711 25.274 5.457 32.98-5.02l41.626-56.585c11.433-15.547.3-37.57-19.004-37.57h-20.793l13.988-19.012c7.727-10.5 5.48-25.254-5.023-32.98-10.48-7.708-25.274-5.454-32.98 5.023l-41.626 56.582c-11.437 15.547-.297 37.57 19.004 37.57zm-6.922-28.68l41.625-56.582c2.809-3.82 8.195-4.636 12.012-1.832a8.589 8.589 0 0 1 1.828 12.012L233.77 168.96c-3.63 4.934-.106 11.945 6.039 11.945h35.625c7.023 0 11.086 8.012 6.918 13.68l-41.625 56.582c-2.809 3.816-8.196 4.637-12.008 1.832-3.817-2.809-4.637-8.195-1.832-12.012l22.773-30.957a7.498 7.498 0 1 0-6.04-11.945h-35.62c-7.023 0-11.094-8.008-6.922-13.68zm0 0"/></svg>