<svg height="511pt" viewBox="-42 0 511 511.999" width="511pt" xmlns="http://www.w3.org/2000/svg"><path d="M418.672 299.64c-6.676-28.367-25.512-51.402-51.473-66.765-21.12-12.5-35.59-33.586-39.84-57.758-.293-1.68-.64-3.36-1.035-5.043-11.015-46.855-56.57-76.324-103.8-67.054-20.876 4.093-38.5 17.085-51.09 32.07a97.394 97.394 0 0 1 5.226.05c50.047 1.872 87.156 40.575 87.145 90.657 0 1.797-.055 3.582-.157 5.355-1.457 25.493 8.172 50.297 26.582 67.989 22.633 21.754 36.215 49.57 36.215 79.894 0 27.371-11.074 52.707-29.875 73.38 81.649-20.06 137.32-88.11 122.102-152.774zm0 0" fill="#ffc850"/><path d="M347.422 432.043c7.273-16.73 11.07-34.59 11.07-53.012 0-37.324-16.137-73.39-45.441-101.55-12.02-11.555-18.363-27.817-17.403-44.61v-.008c.133-2.34.204-4.715.204-7.058.015-56.11-37.098-103.317-88.625-118.028-14.235 6.098-26.414 16.149-35.793 27.313a97.373 97.373 0 0 1 5.226.047c50.047 1.87 87.156 40.574 87.14 90.656 0 1.8-.05 3.586-.152 5.355-1.46 25.493 8.172 50.301 26.582 67.993 22.63 21.75 36.215 49.57 36.215 79.89 0 27.375-11.074 52.707-29.875 73.38 18.453-4.532 35.575-11.524 50.852-20.368zm0 0" fill="#feb644"/><path d="M265.652 231.152c.102-1.773.157-3.558.157-5.355.011-50.082-39.102-90.79-89.149-92.66-52.816-1.973-96.254 40.258-96.254 92.633 0 .476.004.949.012 1.421.387 25.774-11.008 50.145-30.492 67.024-25.856 22.398-41.617 52.156-41.617 84.82 0 69.652 71.668 126.117 160.07 126.117s160.07-56.465 160.07-126.117c0-30.324-13.586-58.14-36.215-79.89-18.41-17.696-28.043-42.5-26.582-67.993zm0 0" fill="#ad7b64"/><path d="M265.652 231.152c.102-1.773.157-3.558.157-5.355.011-50.082-39.102-90.79-89.149-92.66-52.816-1.973-96.254 40.258-96.254 92.633 0 .476.004.949.012 1.421.387 25.774-11.008 50.145-30.492 67.024-25.856 22.398-41.617 52.156-41.617 84.82 0 69.652 71.668 126.117 160.07 126.117s160.07-56.465 160.07-126.117c0-30.324-13.586-58.14-36.215-79.89-18.41-17.696-28.043-42.5-26.582-67.993zm0 0" fill="#ffc850"/><path d="M38.453 379.031c0-32.66 15.762-62.418 41.617-84.816 19.485-16.88 30.875-41.25 30.489-67.028a85.438 85.438 0 0 1-.012-1.417c0-46.09 33.637-84.317 77.7-91.485a94.004 94.004 0 0 0-11.587-1.148c-52.816-1.977-96.254 40.254-96.254 92.633 0 .472.004.949.008 1.417.39 25.778-11.004 50.149-30.488 67.028C24.07 316.613 8.309 346.37 8.309 379.03c0 69.656 71.668 126.121 160.07 126.121 5.082 0 10.11-.195 15.07-.562-81.332-5.985-144.996-59.91-144.996-125.559zm0 0" fill="#feb644"/><path d="M155.941 56.746c-.261-1.492-1.226-2.644-2.648-3.16-14.305-5.184-33.3-1.215-48.52 11.57S82.367 95.965 85.008 110.95c.262 1.489 1.23 2.64 2.652 3.156 14.3 5.184 33.297 1.22 48.516-11.566 15.219-12.785 22.406-30.812 19.765-45.793zm0 0" fill="#6fd844"/><path d="M115.152 110.95c-2.64-14.985 4.547-33.009 19.766-45.794 6.05-5.082 12.695-8.75 19.406-11.023a4.327 4.327 0 0 0-1.031-.547c-14.305-5.184-33.3-1.219-48.52 11.57-15.218 12.785-22.406 30.809-19.765 45.793.262 1.489 1.23 2.64 2.648 3.156 8.621 3.125 18.938 2.903 29.11-.546-.848-.61-1.422-1.516-1.614-2.61zm0 0" fill="#54af25"/><path d="M232.137 460.324c34.008-17.484 56.883-45.703 62.754-77.418a7.512 7.512 0 0 0-14.773-2.734c-5.02 27.105-25.013 51.45-54.852 66.793a7.51 7.51 0 1 0 6.871 13.36zm0 0"/><path d="M44.734 288.629c-92.086 79.777-32.394 211.531 105.203 223.34A7.513 7.513 0 0 0 151.222 497C27.247 486.363-27.581 371.148 54.57 299.984c20.668-17.906 33.075-42.742 33.075-74.125 0-45.394 35.265-82.062 79.41-84.988-.118 6.336.136 10.188.164 10.578a7.509 7.509 0 0 0 8.02 6.953 7.513 7.513 0 0 0 6.968-8.011c-.008-.086-.227-3.477-.113-9.203 45.02 4.796 78.39 43.847 75.789 89.625-1.535 26.789 8.27 54.035 28.87 73.835 20.5 19.704 32.368 44.18 33.77 69.418 3.735 67.079-62.136 116.637-135.53 122.938a7.511 7.511 0 1 0 1.285 14.969c47.933-4.114 89.234-24 116.187-52.797 72-18.582 122.969-73.38 125.89-131.922a7.513 7.513 0 0 0-7.128-7.879c-4.133-.203-7.668 2.984-7.875 7.129-2.372 47.52-40.336 91.246-94.934 111.906 29.793-48.148 20.016-104.93-21.25-144.594-16.559-15.91-25.64-38.484-24.29-62.144 3-52.012-33.718-97.074-84.554-104.848 47.594-38.262 120.442-12.414 131.367 49.688 4.637 26.402 20.461 49.336 43.41 62.918 22.754 13.468 38.641 32.39 45.938 54.726a7.51 7.51 0 0 0 9.473 4.809 7.51 7.51 0 0 0 4.808-9.473c-8.449-25.855-26.625-47.637-52.566-62.992-19.168-11.344-32.387-30.512-36.266-52.59-9.527-54.2-61.691-89.687-116.054-77.656-5.079-13.57-14.754-22.281-21.075-26.79 10.13-23.187 24.813-41.839 43.946-55.901 3.34-2.454 4.058-7.157 1.601-10.5s-7.16-4.06-10.5-1.602c-15.437 11.344-28.433 25.727-38.691 42.625-7.152-.328-21.254-.313-36.512 3.273a12.022 12.022 0 0 0-1.625-.742C117.95 32.98 70.375 72.801 77.336 112.344c.73 4.148 3.531 7.484 7.492 8.918 35.29 12.793 80.297-21.567 78.844-59.938 8.25-1.672 16.043-2.215 22.012-2.312-9.957 20.972-15.602 43.906-17.735 66.441-.101.11-.195.223-.293.332-53.566 2.68-95.968 47.512-95.02 101.61.348 23.25-9.823 45.57-27.902 61.234zM91.855 107.75c-2.789-27.004 30.547-55.04 56.696-47.625 2.789 27.008-30.555 55.043-56.696 47.625zm112.168-7.14a95.004 95.004 0 0 0-18.894 9.925c1.64-9.285 3.793-17.781 6.644-26.441 4.172 3.511 9.204 8.96 12.25 16.515zm0 0"/></svg>