<svg height="511pt" viewBox="0 -61 511.998 511" width="511pt" xmlns="http://www.w3.org/2000/svg"><path d="M36.2 294.68L9.436 321.437c-2.347 2.352-2.187 6.227.364 8.356 58.836 49.059 139.644 63.738 209.836 44.043a225.644 225.644 0 0 1-70.551-33.902c-39.27-2.274-81.402-17.954-112.887-45.254zm0 0" fill="#5fbf32"/><path d="M72.86 319.125c-13.15-6.656-25.567-14.828-36.66-24.445L9.436 321.437c-2.347 2.352-2.187 6.227.364 8.356 9.738 8.117 20.086 15.273 30.879 21.512zm0 0" fill="#54af25"/><path d="M329.656 9.941c-2.133-2.554-6.004-2.714-8.355-.363l-27.64 27.637c21.171 25.015 37.944 69.84 44.972 104.797.05-.055.105-.106.152-.164 1.383-1.621 3.649-2.098 5.594-1.23 11.984 5.347 26.672 3.019 36.41-7.348-4.734-43.102-21.773-88.118-51.133-123.329zm0 0" fill="#5fbf32"/><path d="M351.05 40.93c-6.202-10.907-13.331-21.32-21.398-30.989-2.129-2.554-6-2.714-8.351-.363l-27.64 27.637c8.538 10.09 16.359 23.402 23.116 37.988zm0 0" fill="#54af25"/><path d="M135.957 329.793c-2.55-2.129-2.71-6.004-.36-8.355l172.344-172.344c2.118-2.117 5.282-2.73 8.067-1.633 7.988 3.16 17.195.93 22.777-5.613a4.705 4.705 0 0 1 2.73-1.567c-3.949-37.011-19-76.07-45.152-105.765L34.38 296.5c33.078 29.137 77.055 44.492 118.453 46.074a227.385 227.385 0 0 1-16.875-12.781zm0 0" fill="#f25c5c"/><path d="M320.969 71.016c-6.664-13.075-14.864-25.438-24.606-36.5L34.38 296.5c11.09 9.77 23.414 17.984 36.45 24.652zm0 0" fill="#d83f3f"/><path d="M452.809 9.941c-2.133-2.554-6.004-2.714-8.356-.363l-26.476 26.477c62.144 72.136 59.03 181.101-9.387 249.52-68.422 68.417-177.383 71.53-249.524 9.39l-26.472 26.472c-2.352 2.352-2.192 6.227.36 8.356 89.234 74.402 222.105 69.746 305.85-14 83.75-83.75 88.407-216.621 14.005-305.852zm0 0" fill="#5fbf32"/><path d="M449.988 61.117L472.902 38.2A226.595 226.595 0 0 0 452.81 9.941c-2.133-2.554-6.004-2.714-8.356-.363l-26.476 26.477a182.894 182.894 0 0 1 23.148 33.925zm0 0M163.063 348.04l26.476-26.474 3.457-3.457a183.09 183.09 0 0 1-33.93-23.144l-26.472 26.473c-2.352 2.351-2.192 6.226.36 8.355a226.496 226.496 0 0 0 28.765 20.398 5.685 5.685 0 0 1 1.344-2.152zm0 0" fill="#54af25"/><path d="M419.516 34.516l-24.329 24.328c-2.117 2.117-2.734 5.281-1.632 8.066 2.875 7.274 1.375 15.875-4.508 21.758-.36.36-.727.7-1.106 1.023-1.62 1.383-2.097 3.645-1.23 5.59 5.254 11.774 3.055 26.067-6.606 35.727-9.66 9.66-23.953 11.86-35.726 6.61-1.945-.872-4.211-.391-5.594 1.226-.32.379-.66.75-1.02 1.105-5.882 5.883-14.488 7.387-21.761 4.512-2.781-1.102-5.945-.484-8.063 1.629L157.531 296.5c72.914 64.219 184.164 61.508 253.828-8.156s72.375-180.91 8.157-253.828zm0 0" fill="#f25c5c"/><path d="M338.414 172.691c2.113-2.117 5.281-2.73 8.063-1.632 7.277 2.875 15.875 1.375 21.761-4.508.356-.36.696-.727 1.02-1.106 1.383-1.62 3.648-2.097 5.594-1.23 11.773 5.254 26.062 3.055 35.726-6.606 9.66-9.66 11.86-23.953 6.606-35.726-.868-1.945-.391-4.211 1.23-5.594.379-.32.746-.66 1.106-1.02 5.882-5.882 7.382-14.484 4.507-21.761-1.101-2.781-.484-5.945 1.633-8.063l17.375-17.379a185.103 185.103 0 0 0-23.52-33.554l-24.327 24.332c-2.118 2.117-2.731 5.281-1.633 8.062 2.875 7.274 1.375 15.88-4.508 21.762-.36.355-.727.695-1.106 1.02-1.62 1.382-2.097 3.648-1.23 5.593 5.254 11.774 3.055 26.067-6.606 35.727-9.66 9.66-23.953 11.86-35.726 6.605-1.945-.867-4.211-.39-5.594 1.23-.32.38-.66.747-1.02 1.106-5.882 5.883-14.484 7.383-21.757 4.508-2.785-1.098-5.95-.484-8.067 1.633L157.531 296.5a184.967 184.967 0 0 0 33.555 23.52zm0 0" fill="#d83f3f"/><path d="M241.34 271.652c-2.934-2.933-7.684-2.933-10.617 0s-2.934 7.688 0 10.618c6.597 6.601 7.879 8.675 11.785 8.675a7.486 7.486 0 0 0 5.308-2.199 7.504 7.504 0 0 0 0-10.617zm0 0M295.867 217.125c-2.93-2.934-7.687-2.93-10.617 0a7.504 7.504 0 0 0 0 10.617l6.477 6.477a7.509 7.509 0 1 0 10.617-10.621zm0 0M350.395 162.598a7.504 7.504 0 0 0-10.618 0 7.504 7.504 0 0 0 0 10.617l6.473 6.476c2.934 2.934 7.687 2.934 10.621 0s2.934-7.687 0-10.617zm0 0M295.152 270.934c-2.933-2.934-7.687-2.934-10.62 0s-2.934 7.687 0 10.617l6.476 6.476a7.504 7.504 0 0 0 10.617 0 7.504 7.504 0 0 0 0-10.617zm0 0M349.676 216.406a7.504 7.504 0 0 0-10.617 0 7.504 7.504 0 0 0 0 10.617l6.476 6.477a7.51 7.51 0 0 0 10.617-10.621zm0 0M348.957 270.215a7.504 7.504 0 0 0-10.617 0 7.504 7.504 0 0 0 0 10.617l6.472 6.477a7.51 7.51 0 1 0 10.621-10.621zm0 0M403.484 215.688a7.504 7.504 0 0 0-10.617 0 7.504 7.504 0 0 0 0 10.617l6.473 6.476a7.513 7.513 0 0 0 10.62 0 7.504 7.504 0 0 0 0-10.617zm0 0M393.586 161.879a7.504 7.504 0 0 0 0 10.617l6.473 6.477a7.51 7.51 0 0 0 10.62 0 7.504 7.504 0 0 0 0-10.618l-6.476-6.476a7.504 7.504 0 0 0-10.617 0zm0 0M124.664 278.129l-6.477-6.477a7.504 7.504 0 0 0-10.617 0 7.504 7.504 0 0 0 0 10.618l6.477 6.476a7.504 7.504 0 0 0 10.617 0 7.504 7.504 0 0 0 0-10.617zm0 0M168.57 234.219a7.513 7.513 0 0 0 10.621 0 7.513 7.513 0 0 0-.004-10.621l-6.472-6.473a7.513 7.513 0 0 0-10.621 0 7.508 7.508 0 0 0 .004 10.617zm0 0M223.098 179.691a7.504 7.504 0 0 0 10.617 0 7.508 7.508 0 0 0 .004-10.617l-6.477-6.476c-2.933-2.93-7.687-2.934-10.617 0a7.504 7.504 0 0 0 0 10.617zm0 0"/><path d="M438.871 4.36l-49.266 49.265c-4.214 4.215-5.511 10.55-3.304 16.133a12.737 12.737 0 0 1-1.61 12.265c-1.902 2.567-3.351 2.563-5.046 6.176-8.993-30.273-24.043-58.449-44.497-82.98-4.953-5.938-13.964-6.328-19.43-.864L3.86 316.22c-5.472 5.472-5.074 14.48.864 19.43 32.422 27.035 71.656 44.8 113.465 51.367a7.513 7.513 0 0 0 8.585-6.25c.641-4.098-2.156-7.942-6.253-8.582-38.457-6.043-74.582-22.204-104.614-46.774l18.625-18.625c31.782 25.965 71.399 41.23 112.532 43.274a230.92 230.92 0 0 0 41.476 22.222 221.676 221.676 0 0 1-33.75 2.582c-.133 0-.289-.004-.394 0-4.141 0-7.504 3.356-7.508 7.496a7.507 7.507 0 0 0 7.492 7.52h.41c20.852 0 41.547-2.75 61.543-8.164 143.61 38.96 285.465-63.543 295.648-210.055a7.51 7.51 0 0 0-6.972-8.012 7.51 7.51 0 0 0-8.012 6.97c-9.539 137.304-143.07 233.644-276.695 196.94-3.903-1.308-40.961-9.167-81.242-42.148l18.625-18.625c75.906 62.113 187.91 57.758 258.71-13.043 34.954-34.949 55.008-81.394 56.481-130.781 1.39-46.8-14-91.945-43.441-127.93l18.625-18.625c28.113 34.348 44.937 75.903 48.683 120.32.348 4.133 3.985 7.196 8.113 6.852 4.13-.348 7.196-3.98 6.848-8.113-4.062-48.18-22.531-93.219-53.406-130.242-4.942-5.938-13.957-6.328-19.426-.864zm-113.96 12.046c26.077 31.867 42.515 70.153 47.706 111.074-6.68 5.399-16.082 7.11-24.562 3.723-4.782-35.5-19.121-68.52-41.766-96.18zM45.202 296.113L295.617 45.7c20.41 25.36 33.324 55.508 37.613 87.887-4.207 4.43-8.917 6.277-14.738 3.98-5.582-2.21-11.914-.91-16.133 3.305L127.008 316.22a13.308 13.308 0 0 0-3.848 9.922c0 1.601.719 4.324 1.957 6.328-29.168-5.262-56.75-17.758-79.914-36.356zM418.77 45.7c56.496 70.25 51.402 173.035-12.993 237.426-64.386 64.39-167.175 69.477-237.422 12.992l28.668-28.66 115.95-115.926a27.78 27.78 0 0 0 29.867-6.219c32.027 12.41 63.57-19.32 51.203-51.207 7.457-7.316 10.484-19.093 6.18-29.863zm0 0"/></svg>