<svg height="512pt" viewBox="-13 0 512 512.001" width="512pt" xmlns="http://www.w3.org/2000/svg"><path d="M328.04 107.168c-8.903-1.059-18.052-4.68-26.161-10.906-1.75 14.062-8.578 26.078-18.094 33.273a7.174 7.174 0 0 1-8.957-.238c-9.125-7.692-15.305-20.067-16.3-34.211v.023c-8.333 5.72-17.54 8.848-26.391 9.485a51.226 51.226 0 0 0-1.856 7.347c-46.73 157.184-136.62 196.32-153.777 202.477a98.636 98.636 0 0 0-26.442 12.871C5.13 358.145-6.285 419.586 24.57 464.52c30.856 44.934 91.754 49.344 137.23 25.493 206.86-113.602 171.528-358.93 171.528-358.93-.906-9.176-2.504-16.789-5.289-23.914zm0 0" fill="#8277f2"/><path d="M54.563 475.516C23.706 430.582 35.12 369.14 80.055 338.286c8.347-5.731 17.257-10 26.441-12.868 17.156-6.16 107.047-45.297 153.777-202.48a50.727 50.727 0 0 1 1.86-7.348c.633-.043 1.27-.11 1.906-.18-3.039-6.012-4.992-12.922-5.512-20.324v.023c-8.332 5.715-17.539 8.848-26.39 9.48a51.357 51.357 0 0 0-1.856 7.349c-46.73 157.187-136.62 196.324-153.777 202.48a98.636 98.636 0 0 0-26.441 12.871C5.129 358.145-6.285 419.586 24.57 464.52c14.567 21.211 35.825 33.387 58.993 37.829-11.137-6.403-21.063-15.274-29-26.832zm0 0" fill="#7656e8"/><path d="M328.473 61.473c-12.907-10.328-28.578-13.875-41.707-10.762-.286.066-.555.172-.825.27 10.266 8.82 16.797 23.66 16.352 40.308a59.88 59.88 0 0 1-.43 5.664c12.793 9.961 28.176 13.371 41.102 10.305 3.27-.778 5.57-3.735 5.55-7.145-.078-13.68-7.132-28.312-20.042-38.64zm0 0" fill="#6fd844"/><path d="M326.258 99.184c-2.024-1.383-3.07-3.778-2.922-6.223.039-.645.07-1.293.086-1.941.43-16.211-5.547-30.715-15.07-39.786-7.387-1.949-14.825-2.129-21.586-.523-.286.066-.555.172-.825.27 10.266 8.82 16.797 23.66 16.352 40.308a59.88 59.88 0 0 1-.43 5.664c12.793 9.961 28.176 13.371 41.102 10.305.254-.063.484-.156.726-.242-5.945-1.438-11.879-4.043-17.433-7.832zm0 0" fill="#5fbf32"/><path d="M258.379 90.121c.441-16.648 7.754-31.117 18.473-39.383-.266-.113-.528-.23-.809-.312-12.945-3.809-28.781-1.098-42.223 8.531-13.441 9.625-21.261 23.863-22.066 37.52-.203 3.402 1.937 6.476 5.16 7.425 12.746 3.75 28.29 1.164 41.594-8.105-.13-1.863-.18-3.758-.13-5.676zm0 0" fill="#6fd844"/><path d="M241.29 96.477c.804-13.657 8.624-27.895 22.065-37.52a56.49 56.49 0 0 1 11.094-6.191 40.456 40.456 0 0 1 2.403-2.028c-.266-.113-.528-.23-.809-.312-12.941-3.809-28.781-1.098-42.219 8.531-13.441 9.625-21.265 23.863-22.07 37.52-.2 3.402 1.937 6.476 5.164 7.425 8.426 2.48 18.074 2.172 27.488-.992a7.282 7.282 0 0 1-3.117-6.433zm0 0" fill="#5fbf32"/><path d="M286.04 50.926c-2.712-2.2-6.63-2.301-9.454-.25-11.332 8.238-19.059 22.726-19.5 39.41-.445 16.684 6.496 31.562 17.379 40.39 2.71 2.2 6.625 2.305 9.45.254 11.335-8.238 19.058-22.73 19.503-39.41.441-16.687-6.5-31.562-17.379-40.394zm0 0" fill="#6fd844"/><path d="M285.96 90.086c.294-10.95 3.735-20.941 9.259-28.852-2.574-3.968-5.668-7.457-9.184-10.308-2.71-2.2-6.625-2.301-9.45-.25-11.335 8.238-19.058 22.726-19.5 39.41-.444 16.684 6.497 31.562 17.38 40.39 2.707 2.2 6.625 2.305 9.45.254 3.894-2.832 7.347-6.417 10.241-10.558-5.398-8.324-8.496-18.79-8.195-30.086zm0 0" fill="#5fbf32"/><path d="M459.008 107.168c-8.903-1.059-18.051-4.68-26.156-10.906-1.754 14.062-8.582 26.078-18.098 33.273a7.174 7.174 0 0 1-8.957-.238c-9.125-7.692-15.305-20.067-16.3-34.211v.023c-8.329 5.72-17.54 8.848-26.388 9.485a50.727 50.727 0 0 0-1.859 7.347c-46.73 157.184-136.621 196.32-153.777 202.48-9.184 2.868-18.094 7.138-26.442 12.868-44.933 30.856-56.347 92.297-25.492 137.23 30.856 44.938 91.754 49.348 137.23 25.493 206.86-113.602 171.528-358.93 171.528-358.93-.906-9.176-2.504-16.789-5.29-23.914zm0 0" fill="#8277f2"/><path d="M185.531 475.516c-30.855-44.934-19.441-106.375 25.496-137.23a98.54 98.54 0 0 1 26.438-12.868c17.156-6.16 107.047-45.297 153.777-202.48a51.239 51.239 0 0 1 1.86-7.348c.632-.043 1.27-.11 1.906-.18-3.04-6.012-4.992-12.922-5.512-20.324v.023c-8.328 5.715-17.539 8.848-26.387 9.48a50.856 50.856 0 0 0-1.859 7.349c-46.73 157.187-136.621 196.32-153.777 202.48a98.796 98.796 0 0 0-26.442 12.867c-44.933 30.86-56.347 92.297-25.492 137.235 14.566 21.207 35.824 33.386 58.992 37.828-11.136-6.403-21.062-15.274-29-26.832zm0 0" fill="#7656e8"/><path d="M459.441 61.473c-12.906-10.328-28.578-13.875-41.707-10.762-.285.066-.554.172-.824.27 10.266 8.82 16.797 23.66 16.356 40.308a59.876 59.876 0 0 1-.434 5.664c12.793 9.961 28.18 13.371 41.102 10.305 3.273-.778 5.57-3.735 5.55-7.145-.078-13.68-7.132-28.312-20.043-38.64zm0 0" fill="#6fd844"/><path d="M457.23 99.184c-2.027-1.383-3.07-3.778-2.925-6.223.039-.645.07-1.293.086-1.941.433-16.211-5.547-30.715-15.07-39.786-7.387-1.949-14.825-2.129-21.587-.523-.285.066-.554.172-.824.27 10.266 8.82 16.797 23.66 16.356 40.308a59.876 59.876 0 0 1-.434 5.664c12.793 9.961 28.176 13.371 41.102 10.305.253-.063.488-.156.726-.242-5.941-1.438-11.879-4.043-17.43-7.832zm0 0" fill="#5fbf32"/><path d="M389.348 90.121c.441-16.648 7.754-31.117 18.472-39.383-.265-.113-.527-.23-.808-.312-12.942-3.809-28.782-1.098-42.219 8.531-13.441 9.625-21.266 23.863-22.07 37.52-.203 3.402 1.937 6.476 5.164 7.425 12.742 3.75 28.285 1.164 41.59-8.105-.13-1.863-.18-3.758-.13-5.676zm0 0" fill="#6fd844"/><path d="M372.258 96.477c.805-13.657 8.629-27.895 22.07-37.52a56.35 56.35 0 0 1 11.09-6.191 40.456 40.456 0 0 1 2.402-2.028c-.261-.113-.523-.23-.808-.312-12.942-3.809-28.782-1.098-42.219 8.531-13.441 9.625-21.266 23.863-22.07 37.52-.2 3.402 1.937 6.476 5.164 7.425 8.425 2.48 18.074 2.172 27.488-.992a7.282 7.282 0 0 1-3.117-6.433zm0 0" fill="#5fbf32"/><path d="M417.008 50.926c-2.711-2.2-6.625-2.301-9.45-.25-11.335 8.238-19.058 22.726-19.503 39.41-.446 16.684 6.5 31.562 17.379 40.39 2.71 2.2 6.625 2.305 9.449.254 11.336-8.238 19.058-22.73 19.504-39.41.441-16.683-6.5-31.562-17.38-40.394zm0 0" fill="#6fd844"/><path d="M416.93 90.086c.293-10.95 3.734-20.941 9.257-28.852-2.574-3.968-5.667-7.457-9.18-10.308-2.71-2.2-6.628-2.301-9.452-.25-11.332 8.238-19.059 22.726-19.5 39.41-.446 16.684 6.496 31.562 17.379 40.39 2.71 2.2 6.625 2.305 9.449.254 3.894-2.832 7.351-6.417 10.242-10.558-5.398-8.324-8.492-18.79-8.195-30.086zm0 0" fill="#5fbf32"/><path d="M203.477 366.883a7.5 7.5 0 0 0-10.184-11.012c-18.3 16.922-25.832 41.371-21.816 64.512a7.497 7.497 0 1 0 14.773-2.563c-3.164-18.27 2.77-37.574 17.227-50.937zm0 0M60.621 355.871c-18.3 16.922-25.836 41.371-21.816 64.516.707 4.086 4.597 6.812 8.668 6.105a7.496 7.496 0 0 0 6.105-8.668c-3.152-18.187 2.711-37.523 17.223-50.941a7.5 7.5 0 0 0 .418-10.598c-2.813-3.039-7.559-3.226-10.598-.414zm0 0M460.895 242.023c-4.083-.714-7.973 1.997-8.696 6.07-13.094 73.669-52.039 174.302-163.246 235.403-13.183 6.902-27.95 11.34-42.703 12.824a7.492 7.492 0 0 0-6.707 8.211 7.494 7.494 0 0 0 8.21 6.707c17.442-1.754 34.657-7.234 48.356-14.562 116.454-63.957 157.188-169.051 170.856-245.957a7.505 7.505 0 0 0-6.07-8.696zm0 0"/><path d="M463.816 55.516c-12.957-10.22-28.988-14.844-43.707-12.817 2.762-24.195 16.075-27.687 16.688-27.836l-.149.032-.003-.016c3.53-.606 6.218-3.676 6.218-7.379 0-4.145-3.355-7.5-7.496-7.5-.562 0-1.11.066-1.637.184-1.632.332-25.113 5.777-28.664 42.199C383.57 38 359.125 48.102 345.172 67.68c-13.094-17.758-35.086-27.79-55.512-24.98 2.75-24.083 15.95-27.657 16.676-27.833 3.43-.691 6.016-3.719 6.016-7.351 0-4.141-3.36-7.5-7.5-7.5-.536 0-1.059.058-1.563.168-1.59.32-25.113 5.738-28.672 42.199-32.8-6.688-68.125 20.117-70.082 53.02-.41 6.89 3.934 13.046 10.563 14.968a48.615 48.615 0 0 0 7.629 1.543C177.07 263.274 91.516 301.207 74.359 307.402c-68.23 21.45-95.93 102.895-55.722 161.45 29.992 43.675 93.894 58.671 153.886 23.945 11.02 7.883 23.774 13.48 37.91 16.515a7.501 7.501 0 0 0 8.906-5.758 7.5 7.5 0 0 0-5.757-8.906c-84.684-18.175-95.531-140.996-3.852-173.082 39.168-14.066 91.864-56.726 129.762-133.476 15.348-31.012 26.985-66.309 29.227-76.57 5.058-.848 10.05-2.383 14.847-4.551 2.993 11.633 9.188 21.457 17.125 28.148 5.336 4.5 12.926 4.559 18.313.488 8.098-6.12 14.922-15.52 18.598-27.199 4.968 2.57 10.195 4.438 15.539 5.532 6.28 19.988 6.863 66.648 3.722 99.769a7.498 7.498 0 0 0 6.758 8.172 7.495 7.495 0 0 0 8.172-6.758c3.984-42.012 1.484-82.328-2.86-100.273 2.18-.203 4.34-.532 6.454-1.024 6.722-1.566 11.386-7.48 11.343-14.383-.097-16.27-8.664-32.691-22.914-43.925zM306.2 14.895v-.008c.04-.008.082-.012.125-.02zm-24.71 42.003c18.906 16.2 17.84 51.524-1.77 66.59-18.653-15.976-18.114-51.304 1.77-66.59zM219.522 96.04c1.364-20.262 21.16-38.09 42.051-39.598-6.703 9.727-10.46 22.051-10.445 34.707-9.817 5.641-21.438 7.75-31.606 4.891zm108.829 80.715c-36.247 75.875-87.395 117.605-123.547 130.648-76.543 24.063-98.63 120.618-44.442 175.063C119.41 505.355 60.156 502.82 31 460.363c-34.55-50.316-10.727-120.332 47.992-138.699.098-.031.195-.062.293-.098 18.09-6.492 110.746-47.004 158.434-207.398.14-.48.316-1.563.554-2.648 5.059-.848 10.051-2.383 14.848-4.551 2.766 10.758 8.559 20.93 17.125 28.148a14.651 14.651 0 0 0 18.313.488c8.203-6.203 14.964-15.66 18.597-27.199 4.969 2.57 10.196 4.438 15.54 5.535 4.827 15.368 5.812 46.563 5.656 62.813zm7.09-76.695c-7.829.379-16.946-1.84-25.458-7.356.668-11.973-2.12-24.66-8.586-35.203 14.758 1.86 29.047 12.043 35.848 25.863-1.422 4.48-3.031 12.051-1.805 16.696zm6.925 43.816c-.59-8.078-1.844-20.61-3.879-29.023 6.082-.567 9.028-1.516 11.657-3.399 1.003.184 2.011.34 3.03.461-3.398 11.266-7.01 21.918-10.808 31.961zm39.207-52.727c-11.363 6.532-23.52 7.383-31.601 4.887 1.464-20.363 21.16-38.086 42.05-39.594-6.445 9.356-10.464 21.625-10.449 34.707zm43.563 4.278c-.664 1-1.016 17.34-14.973 28.062-18.71-16.031-18.035-51.363 1.77-66.59 10.574 9.059 14.976 24.266 13.203 38.528zm15.297-2.723c.66-12.148-2.184-24.754-8.59-35.203 7.844.988 15.793 4.352 22.687 9.79 10.621 8.378 17.04 20.315 17.2 31.987-10.665 2.399-22.169-.66-31.297-6.574zm0 0"/></svg>