<svg height="511pt" viewBox="-29 0 511 511.998" width="511pt" xmlns="http://www.w3.org/2000/svg"><g fill="#ffc850"><path d="M253.66 34.031c0 14.703-11.922 26.621-26.62 26.621-14.704 0-26.626-11.918-26.626-26.62S212.336 7.41 227.04 7.41c14.7 0 26.621 11.918 26.621 26.621zm0 0M253.66 477.785c0 14.703-11.922 26.625-26.62 26.625-14.704 0-26.626-11.922-26.626-26.625 0-14.7 11.922-26.62 26.625-26.62 14.7 0 26.621 11.92 26.621 26.62zm0 0M57.938 353.527c-7.352-12.73-23.633-17.093-36.364-9.742-12.734 7.352-17.094 23.633-9.746 36.363 7.352 12.735 23.633 17.098 36.367 9.747 12.73-7.352 17.094-23.633 9.743-36.368zm0 0M442.23 131.656c-7.351-12.734-23.632-17.094-36.363-9.746-12.734 7.352-17.094 23.633-9.746 36.367 7.352 12.73 23.633 17.094 36.367 9.743 12.73-7.352 17.094-23.633 9.742-36.364zm0 0"/></g><path d="M230.25 34.031c0-9.176 4.645-17.265 11.707-22.05a26.488 26.488 0 0 0-14.918-4.57c-14.703 0-26.621 11.917-26.621 26.62s11.918 26.621 26.621 26.621c5.527 0 10.66-1.687 14.918-4.57-7.062-4.785-11.707-12.875-11.707-22.05zm0 0M230.25 477.785c0-9.172 4.645-17.262 11.707-22.05a26.518 26.518 0 0 0-14.918-4.57c-14.703 0-26.621 11.92-26.621 26.62 0 14.703 11.918 26.625 26.621 26.625 5.527 0 10.66-1.687 14.918-4.57-7.062-4.79-11.707-12.88-11.707-22.055zm0 0M41.664 380.16c-7.031-12.183-3.336-27.61 8.149-35.36-8.176-5.527-19.118-6.273-28.239-1.007-12.73 7.352-17.094 23.633-9.742 36.367 7.348 12.73 23.633 17.094 36.363 9.742.551-.316 1.078-.656 1.598-1.004a26.571 26.571 0 0 1-8.129-8.738zm0 0M425.969 158.281c-7.031-12.183-3.336-27.61 8.148-35.36-8.176-5.526-19.117-6.273-28.238-1.007-12.734 7.352-17.098 23.633-9.746 36.367 7.351 12.735 23.633 17.098 36.367 9.746.55-.32 1.078-.66 1.598-1.007a26.533 26.533 0 0 1-8.13-8.739zm0 0" fill="#feb644"/><path d="M315.285 200.676l-84.539-48.809a7.422 7.422 0 0 0-7.418 0l-84.539 48.809a7.416 7.416 0 0 0-3.707 6.426v97.617a7.418 7.418 0 0 0 3.707 6.422l84.54 48.808a7.422 7.422 0 0 0 7.417 0l84.54-48.808a7.418 7.418 0 0 0 3.706-6.422v-97.617a7.42 7.42 0 0 0-3.707-6.426zm0 0" fill="#ffc850"/><path d="M168.793 311.14a7.414 7.414 0 0 1-3.711-6.421v-97.617a7.415 7.415 0 0 1 3.711-6.426l73.246-42.29-11.293-6.515a7.403 7.403 0 0 0-7.418 0L138.79 200.68a7.41 7.41 0 0 0-3.707 6.422v97.617a7.418 7.418 0 0 0 3.707 6.422l84.54 48.808a7.422 7.422 0 0 0 7.417 0l11.293-6.52zm0 0" fill="#feb644"/><path d="M278.672 221.816l-47.926-27.668a7.403 7.403 0 0 0-7.418 0l-47.922 27.668a7.414 7.414 0 0 0-3.71 6.422v55.34a7.415 7.415 0 0 0 3.71 6.426l47.922 27.668a7.422 7.422 0 0 0 7.418 0l47.926-27.668a7.424 7.424 0 0 0 3.707-6.426v-55.34a7.418 7.418 0 0 0-3.707-6.422zm0 0" fill="#feb644"/><path d="M205.406 290.004a7.416 7.416 0 0 1-3.707-6.426v-55.34a7.418 7.418 0 0 1 3.707-6.422l36.633-21.148-11.293-6.52a7.403 7.403 0 0 0-7.418 0l-47.926 27.668a7.418 7.418 0 0 0-3.707 6.422v55.34a7.42 7.42 0 0 0 3.707 6.426l47.926 27.668a7.422 7.422 0 0 0 7.418 0l11.293-6.52zm0 0" fill="#f9972d"/><path d="M215.762 198.45a7.5 7.5 0 0 0-10.246-2.747l-34.133 19.707a14.958 14.958 0 0 0-7.461 12.918v55.34a14.96 14.96 0 0 0 7.46 12.922l47.927 27.668a14.962 14.962 0 0 0 14.914 0l47.925-27.668a14.96 14.96 0 0 0 7.461-12.922v-55.34c0-5.312-2.859-10.262-7.46-12.918l-34.133-19.707c-3.59-2.07-8.176-.84-10.243 2.746a7.498 7.498 0 0 0 2.743 10.246l34.09 19.633.042 55.27-47.843 27.668-47.88-27.598-.042-55.266 34.133-19.707c3.586-2.074 4.816-6.66 2.746-10.246zm0 0"/><path d="M318.723 245.996a7.5 7.5 0 0 0 7.5-7.5v-31.258l67.613-39.039c10.426 11.344 27.86 14.656 42.14 6.41 16.297-9.406 21.899-30.316 12.493-46.613-9.407-16.293-30.317-21.894-46.614-12.488-14.062 8.12-20.152 24.805-15.511 39.695l-67.621 39.043-84.457-48.762V67.402c15.218-3.425 26.62-17.043 26.62-33.28C260.887 15.308 245.583 0 226.767 0s-34.121 15.309-34.121 34.121c0 16.238 11.402 29.856 26.62 33.281v78.086L134.77 194.27a14.96 14.96 0 0 0-7.461 12.921v97.57l-67.614 39.036c-10.382-11.293-27.808-14.684-42.14-6.41C1.258 346.797-4.344 367.707 5.063 384c6.269 10.855 17.652 17.074 29.605 17.074 22.852 0 39.36-22.328 32.52-44.281l67.62-39.043 84.458 48.762v78.082c-15.22 3.43-26.621 17.047-26.621 33.281 0 18.816 15.304 34.121 34.12 34.121s34.122-15.305 34.122-34.121c0-16.238-11.403-29.852-26.621-33.281v-78.082l84.496-48.785a14.958 14.958 0 0 0 7.46-12.918V273.5a7.5 7.5 0 0 0-7.5-7.5 7.497 7.497 0 0 0-7.5 7.5l.04 31.234-84.442 48.801h-.03l-84.466-48.719c-.004-.011-.008-.023-.015-.03l-.043-97.524 84.445-48.801h.027l84.469 48.719c.004.011.008.02.016.03v31.286c0 4.145 3.355 7.5 7.5 7.5zm-274.547 137.5c-9.153 5.285-20.836 2.156-26.121-6.996-5.274-9.133-2.133-20.852 7-26.121 9.152-5.285 20.832-2.156 26.117 7 5.273 9.129 2.133 20.848-6.996 26.117zm201.71 94.379c0 10.547-8.577 19.125-19.12 19.125s-19.121-8.578-19.121-19.125c0-10.543 8.578-19.121 19.12-19.121s19.122 8.578 19.122 19.121zM409.357 128.5c9.132-5.273 20.851-2.133 26.12 7 5.274 9.129 2.133 20.848-7 26.121-9.152 5.285-20.835 2.152-26.117-7-5.273-9.133-2.132-20.848 6.996-26.121zM207.644 34.121c0-10.543 8.578-19.121 19.12-19.121s19.122 8.578 19.122 19.121-8.578 19.121-19.121 19.121-19.121-8.578-19.121-19.12zm0 0"/></svg>