<svg height="511pt" viewBox="-105 0 511 511.999" width="511pt" xmlns="http://www.w3.org/2000/svg"><path d="M248.93 210.684c4.73-9.61 8.226-19.868 10.207-30.743 6.73-36.937-3.176-84.09-40.223-105.144-20.836-11.703-45.64-11.8-65.191-.027a4.085 4.085 0 0 1-2.082.585h-.059a4.085 4.085 0 0 1-2.082-.585c-19.55-11.774-44.36-11.676-65.191.027-40.2 23-56.29 82.226-29.727 135.887zm0 0" fill="#f25c5c"/><path d="M115.059 74.793a69.342 69.342 0 0 1 17.671-6.953c-15.863-3.942-33.203-1.594-48.421 6.953-40.204 23.004-56.29 82.227-29.73 135.89h30.753c-26.559-53.66-10.473-112.886 29.727-135.89zm0 0" fill="#d83f3f"/><path d="M157.578 36.836l-5.816-9.86c-6.875-11.66-22.04-15.574-33.7-8.699l-9.863 5.817a2.186 2.186 0 0 0-.773 2.992l5.816 9.863c6.875 11.66 22.04 15.574 33.7 8.696l9.863-5.813a2.19 2.19 0 0 0 .773-2.996zm0 0" fill="#6fd844"/><path d="M143.992 36.95l-5.812-9.864a2.182 2.182 0 0 1 .773-2.992l6.762-3.992c-7.742-6.024-18.723-7.09-27.653-1.825l-9.863 5.817a2.186 2.186 0 0 0-.773 2.992l5.816 9.863c6.875 11.66 22.04 15.574 33.7 8.696l3.097-1.825a24.457 24.457 0 0 1-6.047-6.87zm0 0" fill="#5fbf32"/><path d="M99.02 276.688H203.62v29.5H99.02zm0 0" fill="#d8dce5"/><path d="M99.02 276.688h30.75v29.5H99.02zm0 0" fill="#c3c8d1"/><path d="M288.918 207.598H13.723c-3.5 0-6.102 3.261-5.305 6.668 5.734 24.472 27.207 45.746 57.797 59.695 6.762 3.086 14.137 4.601 21.566 4.601h127.074c7.434 0 14.805-1.515 21.567-4.601 30.59-13.95 52.062-35.223 57.797-59.695.8-3.407-1.801-6.668-5.301-6.668zm0 0" fill="#e4eaf8"/><path d="M39.172 214.266c-.8-3.407 1.805-6.668 5.305-6.668H13.723c-3.5 0-6.102 3.261-5.305 6.668 5.738 24.472 27.21 45.746 57.797 59.695 6.762 3.086 14.137 4.601 21.566 4.601h30.754c-7.433 0-14.805-1.515-21.566-4.601-30.59-13.95-52.063-35.223-57.797-59.695zm0 0" fill="#d8dce5"/><path d="M230.664 314.324a13.301 13.301 0 0 0-13.129-11.156H85.105a13.301 13.301 0 0 0-13.128 11.156L45.125 480.922h212.39zm0 0" fill="#707487"/><path d="M115.855 303.168h-30.75a13.301 13.301 0 0 0-13.128 11.156L45.125 480.922h30.75l26.852-166.598a13.301 13.301 0 0 1 13.128-11.156zm0 0" fill="#52586d"/><path d="M203.621 391.574c0 28.887-23.414 52.301-52.3 52.301-28.887 0-52.301-23.414-52.301-52.3s23.414-52.302 52.3-52.302c28.887 0 52.301 23.414 52.301 52.301zm0 0" fill="#e4eaf8"/><path d="M129.77 391.574c0-23.531 15.546-43.433 36.925-50a52.304 52.304 0 0 0-15.375-2.3c-28.886 0-52.3 23.414-52.3 52.3s23.414 52.301 52.3 52.301c5.352 0 10.516-.809 15.375-2.3-21.379-6.567-36.925-26.466-36.925-50zm0 0" fill="#d8dce5"/><path d="M263.488 478.922H39.152c-4.914 0-8.894 3.98-8.894 8.89v7.704c0 4.91 3.98 8.894 8.894 8.894h224.336a8.895 8.895 0 0 0 8.895-8.894v-7.704c0-4.91-3.98-8.89-8.895-8.89zm0 0" fill="#52586d"/><path d="M263.488 487.719H39.152c-3.273 0-6.12-1.77-7.668-4.399a8.818 8.818 0 0 0-1.226 4.493v7.703c0 4.91 3.98 8.894 8.89 8.894h224.34a8.895 8.895 0 0 0 8.895-8.894v-7.704c0-1.64-.453-3.171-1.23-4.492a8.877 8.877 0 0 1-7.665 4.399zm0 0" fill="#434a5e"/><path d="M151.047 331.863c-32.973 0-59.8 26.828-59.8 59.801 0 32.977 26.827 59.805 59.8 59.805 32.976 0 59.805-26.828 59.805-59.805-.004-32.973-26.829-59.8-59.805-59.8zm0 104.602c-24.703 0-44.8-20.098-44.8-44.8 0-24.704 20.097-44.802 44.8-44.802s44.805 20.098 44.805 44.801c-.004 24.703-20.102 44.8-44.805 44.8zm0 0"/><path d="M158.547 372.46v-11.015c0-4.144-3.356-7.5-7.5-7.5a7.5 7.5 0 0 0-7.5 7.5v11.016c-7.676 3.012-13.133 10.473-13.133 19.203 0 11.379 9.258 20.637 20.633 20.637 11.379 0 20.637-9.258 20.637-20.637 0-8.73-5.461-16.191-13.137-19.203zm-7.5 24.84a5.64 5.64 0 0 1-5.633-5.636c0-3.105 2.527-5.633 5.633-5.633s5.637 2.528 5.637 5.633c-.004 3.106-2.532 5.637-5.637 5.637zm0 0"/><path d="M288.645 200.188h-28.47c3.606-9.29 5.794-18.122 7.028-27.313a7.502 7.502 0 0 0-14.871-1.992c-1.297 9.695-3.898 19.336-8.406 29.304H59.02c-20.79-45.554-8.418-98.171 28.628-118.917 18.512-10.176 40.645-10.23 57.766-.141 3.793 2.238 8.402 2.035 11.844.004 33.355-19.66 84.976-1.121 94.597 56.972.676 4.086 4.54 6.844 8.625 6.172a7.497 7.497 0 0 0 6.172-8.625c-10.3-62.21-64.148-88.984-107.18-72.21 4.126-35.512 26.055-48.786 27.165-49.434a7.495 7.495 0 0 0 2.797-10.2 7.498 7.498 0 0 0-10.22-2.835c-.812.46-11.886 6.922-21.437 22.004-9.074-15.04-28.66-19.997-43.797-11.07l-9.863 5.816a9.681 9.681 0 0 0-3.422 13.265l5.813 9.86c7.918 13.425 24.469 19.304 39.168 13.652a105.862 105.862 0 0 0-1.317 9.41c-20.093-8.254-43.8-6.855-63.988 4.242-40.914 22.914-58.793 78.832-37.656 132.036H13.453c-8.332 0-14.512 7.761-12.605 15.882 6.183 26.38 28.195 49.399 61.984 64.809 7.68 3.5 15.98 5.277 24.68 5.277h3.734v9.602h-6.414a20.72 20.72 0 0 0-20.527 17.449L38.473 471.531c-8.852.219-15.985 7.473-15.985 16.375v7.7c0 9.039 7.352 16.394 16.39 16.394h94.673a7.502 7.502 0 0 0 0-15.004H38.879c-.766 0-1.39-.625-1.39-1.39v-7.7c0-.77.624-1.394 1.39-1.394h224.34c.77 0 1.394.625 1.394 1.394v7.7c0 .765-.625 1.39-1.394 1.39H168.55a7.5 7.5 0 0 0-7.5 7.504 7.5 7.5 0 0 0 7.5 7.5h94.668c9.039 0 16.394-7.355 16.394-16.395v-7.699c0-8.902-7.136-16.156-15.988-16.375l-25.828-158.324a20.723 20.723 0 0 0-20.527-17.45h-6.418v-9.6h3.738c8.7 0 17-1.778 24.676-5.278 33.793-15.41 55.804-38.43 61.988-64.809 1.898-8.113-4.27-15.883-12.61-15.883zM119.43 33.23l-3.118-5.285 5.286-3.117c8.12-4.789 18.664-2.035 23.43 6.047l3.117 5.285-5.286 3.117c-8.086 4.762-18.644 2.067-23.43-6.047zm103.558 282.395l25.434 155.887H53.676l25.43-155.887a5.78 5.78 0 0 1 5.726-4.867h132.434a5.779 5.779 0 0 1 5.722 4.867zm-27.14-19.867h-89.602v-9.606h89.602zm37.191-28.528c-5.71 2.602-11.918 3.922-18.453 3.922H87.512c-6.535 0-12.746-1.32-18.453-3.925-27.891-12.72-47.016-31.57-52.942-52.04H285.98c-5.925 20.47-25.05 39.32-52.94 52.043zm0 0"/></svg>