<svg height="512pt" viewBox="0 -6 512 512" width="512pt" xmlns="http://www.w3.org/2000/svg"><path d="M210.422 250.352H169.09V128.789h41.332zm0 0" fill="#5fbf32"/><path d="M208.422 128.805h102.582c33.543 0 60.734 27.215 60.734 60.78 0 33.571-27.191 60.782-60.734 60.782H208.422zm0 0" fill="#00c3ff"/><path d="M68.508 128.79H171.09v121.558H68.508c-33.543 0-60.735-27.211-60.735-60.778 0-33.57 27.192-60.78 60.735-60.78zm0 0" fill="#6fd844"/><path d="M210.422 493.207H169.09V371.629h41.332zm0 0" fill="#5fbf32"/><path d="M169.09 463.2h41.332v30.007H169.09zm0 0" fill="#54af25"/><path d="M208.422 371.633h102.582c33.543 0 60.734 27.215 60.734 60.785 0 33.574-27.191 60.789-60.734 60.789H208.422zm0 0" fill="#00c3ff"/><path d="M311.004 463.2H208.422v30.007h102.582c33.543 0 60.734-27.215 60.734-60.789 0-5.176-.652-10.203-1.867-15.004-6.68 26.316-30.5 45.785-58.867 45.785zm0 0" fill="#00aaf0"/><path d="M68.508 371.633H171.09v121.574H68.508c-33.543 0-60.735-27.215-60.735-60.789 0-33.57 27.192-60.785 60.735-60.785zm0 0" fill="#6fd844"/><path d="M9.64 417.414a61.098 61.098 0 0 0-1.867 15.004c0 33.574 27.192 60.789 60.735 60.789H171.09v-30.008H68.508c-28.367 0-52.192-19.469-58.867-45.785zm0 0" fill="#5fbf32"/><path d="M169.09 220.36h41.332v30.007H169.09zm0 0" fill="#54af25"/><path d="M311.004 220.36H208.422v30.007h102.582c33.543 0 60.734-27.219 60.734-60.789a61.05 61.05 0 0 0-1.867-15.004c-6.68 26.317-30.5 45.785-58.867 45.785zm0 0" fill="#00aaf0"/><path d="M9.64 174.574a61.05 61.05 0 0 0-1.867 15.004c0 33.57 27.192 60.79 60.735 60.79H171.09v-30.009H68.508c-28.367 0-52.192-19.468-58.867-45.785zm0 0" fill="#5fbf32"/><path d="M169.09 7.41h41.332V128.88H169.09zm0 0" fill="#00aaf0"/><path d="M171.09 7.41H68.508c-33.543 0-60.735 27.192-60.735 60.738 0 33.54 27.192 60.73 60.735 60.73H171.09zm0 0" fill="#00c3ff"/><path d="M311.004 7.41H208.422V128.88h102.582c33.543 0 60.734-27.191 60.734-60.73 0-33.544-27.191-60.739-60.734-60.739zm0 0" fill="#6fd844"/><path d="M169.09 250.27h41.332v121.468H169.09zm0 0" fill="#00aaf0"/><path d="M169.09 341.84v29.898h41.332V341.84zm0 0" fill="#059adb"/><path d="M171.09 250.27H68.508c-33.543 0-60.735 27.19-60.735 60.734 0 33.543 27.192 60.734 60.735 60.734H171.09zm0 0" fill="#00c3ff"/><path d="M9.633 296.055a60.865 60.865 0 0 0-1.86 14.949c0 33.543 27.192 60.734 60.735 60.734H171.09V341.84H68.508c-28.383 0-52.215-19.473-58.875-45.785zm0 0" fill="#00aaf0"/><path d="M311.004 250.27H208.422v121.468h102.582c33.543 0 60.734-27.191 60.734-60.734 0-33.543-27.191-60.734-60.734-60.734zm0 0" fill="#6fd844"/><path d="M311.004 341.84H208.422v29.898h102.582c33.543 0 60.734-27.187 60.734-60.73 0-5.16-.648-10.168-1.86-14.953-6.663 26.312-30.491 45.785-58.874 45.785zm0 0" fill="#5fbf32"/><path d="M169.09 98.98v29.899h41.332V98.98zm0 0" fill="#059adb"/><path d="M9.633 53.195a60.873 60.873 0 0 0-1.86 14.953c0 33.54 27.192 60.73 60.735 60.73H171.09V98.98H68.508c-28.383 0-52.215-19.472-58.875-45.785zm0 0" fill="#00aaf0"/><path d="M311.004 98.98H208.422v29.899h102.582c33.543 0 60.734-27.191 60.734-60.73 0-5.16-.648-10.169-1.86-14.954-6.663 26.313-30.491 45.785-58.874 45.785zm0 0" fill="#5fbf32"/><path d="M300.816 382.594c1.93-23.281 11.797-46.02 29.57-63.793a102.042 102.042 0 0 1 26.259-18.992c-38.329-19.332-86.278-13.016-118.286 18.992-.226.226-.441.453-.66.68zm0 0" fill="#ffc850"/><path d="M268.543 318.371c16.25-16.25 36.586-25.922 57.7-29.02-31.06-4.554-63.802 5.118-87.708 29.02-.332.332-.656.676-.984 1.012l16.762 16.762a103.015 103.015 0 0 1 14.23-17.774zm0 0" fill="#feb644"/><path d="M330.387 463.352c-22.133-22.133-32.301-52.266-29.477-81.997l-62.55-62.554c-39.919 39.918-39.919 104.633 0 144.55 32.007 32.008 79.956 38.32 118.285 18.993a103.185 103.185 0 0 1-26.258-18.992zm0 0" fill="#feb644"/><path d="M473.488 464.766c.34-.329.68-.653 1.012-.989 40.156-40.152 40.156-105.254 0-145.406-40.152-40.152-105.254-40.152-145.406 0-.336.332-.656.676-.989 1.012zm0 0" fill="#f97a7a"/><path d="M359.102 318.371c16.25-16.25 36.586-25.922 57.699-29.02-31.059-4.554-63.805 5.118-87.707 29.02-.336.332-.656.676-.989 1.012l16.762 16.762a103.226 103.226 0 0 1 14.235-17.774zm0 0" fill="#f25c5c"/><path d="M329.094 318.371c-40.153 40.152-40.153 105.254 0 145.406 40.152 40.157 105.254 40.157 145.406 0zm0 0" fill="#f25c5c"/><path d="M359.102 463.777c-35.02-35.02-39.48-88.992-13.45-128.851l-16.558-16.555c-40.153 40.152-40.153 105.254 0 145.406 23.906 23.907 56.656 33.578 87.715 29.02-21.118-3.098-41.454-12.766-57.707-29.02zm0 0" fill="#d83f3f"/><path d="M268.543 463.777c-35.02-35.02-39.48-88.992-13.45-128.851l-16.558-16.555c-40.152 40.152-40.152 105.254 0 145.406 23.906 23.907 56.656 33.578 87.719 29.02-21.117-3.098-41.457-12.766-57.711-29.02zm0 0" fill="#f9972d"/><path d="M373.836 285.258c-6.246-15.188-17.758-27.406-31.988-34.738 16.066-8.184 28.578-22.63 34.144-40.864a7.501 7.501 0 1 0-14.347-4.383c-6.88 22.528-27.34 37.665-50.915 37.665h-95.078V136.472h95.078c23.415 0 44.403 15.672 51.04 38.109 1.175 3.973 5.351 6.242 9.32 5.066a7.498 7.498 0 0 0 5.066-9.32c-5.39-18.23-18.172-32.965-34.449-41.324 22.094-11.305 37.258-34.293 37.258-60.766C378.965 30.61 348.355 0 310.73 0H68.234C30.61 0 0 30.61 0 68.238c0 26.45 15.137 49.414 37.191 60.73-49.554 25.438-49.476 96.079 0 121.47-49.554 25.437-49.472 96.078 0 121.468C15.137 383.226 0 406.191 0 432.641c0 37.625 30.61 68.238 68.238 68.238h239.02c16.89.473 33.66-2.977 49.082-10.106a109.369 109.369 0 0 0 27.265 8.489 7.501 7.501 0 1 0 2.56-14.782c-71.544-12.375-103.735-98.617-55.821-154.75l133.5 133.5c-12.903 11.036-28.399 18.34-45.23 21.25a7.502 7.502 0 0 0 2.558 14.786c86.754-15.004 121.633-122.84 58.793-185.676-28.7-28.703-69.477-38.149-106.13-28.332zm-78.191 80.582l-46.72-46.719c25.454-21.734 60.024-28.086 90.786-18.016-22.07 15.375-37.848 38.387-44.066 64.735zm44.074 115.383c-44.875 14.691-93.082-6.23-113.828-47.258-17.207-34.012-12.368-75.219 12.425-104.235l54.575 54.575c-2.461 39.433 16.05 75.433 46.828 96.918zm-139.07-238.286H178.32V136.473h22.328zm-22.329 15.004h22.328v106.465H178.32zm181.301 32.184c-.559.238-2.242.977-3.246 1.438-51.809-24.012-112.496-3.973-140.723 44.167v-77.789h95.078c21.364 0 40.59 12.942 48.891 32.184zm4.34-221.887c0 29.352-23.879 53.23-53.23 53.23h-95.079V15.005h95.078c29.352 0 53.23 23.879 53.23 53.234zm-163.313 53.23H178.32V15.005h22.328zM15.004 68.239c0-29.355 23.879-53.234 53.234-53.234h95.078v106.465H68.238c-29.355 0-53.234-23.88-53.234-53.23zm0 121.469c0-29.355 23.879-53.234 53.234-53.234h95.078v106.464H68.238c-29.355 0-53.234-23.878-53.234-53.23zm0 121.465c0-29.352 23.879-53.23 53.234-53.23h95.078v106.464H68.238c-29.355 0-53.234-23.879-53.234-53.234zm0 121.469c0-29.352 23.879-53.23 53.234-53.23h95.078v106.464H68.238c-29.355 0-53.234-23.879-53.234-53.234zm163.316-53.23h22.328v106.464H178.32zm37.332 106.464v-39.313c9.586 16.395 23.25 29.907 39.282 39.313zm258.801-33.254l-133.5-133.5c61.492-52.457 156.145-8.273 156.145 72.047 0 22.777-7.993 44.328-22.645 61.453zm0 0"/></svg>