<svg height="512pt" viewBox="0 -33 512 512" width="512pt" xmlns="http://www.w3.org/2000/svg"><path d="M444.746 65.113l-79.039-51.996a13.664 13.664 0 0 1 2.602 8.024v24.043l62.382 40.754c5.754 3.886 13.559 2.363 17.438-3.383 3.883-5.75 2.367-13.559-3.383-17.442zm0 0" fill="#e4eaf8"/><path d="M88.418 21.137c0-2.332.586-4.528 1.613-6.453l-76.719 50.43c-5.75 3.878-7.265 11.69-3.382 17.437 3.879 5.75 11.683 7.27 17.437 3.386l61.051-39.855zm0 0" fill="#d8dce5"/><path d="M367.848 13.305L338.797 68.84a13.039 13.039 0 0 1-11.547 6.992H129.477a13.039 13.039 0 0 1-11.547-6.992L88.879 13.305a13.66 13.66 0 0 0-2.461 7.832v403.722c0 7.579 6.144 13.727 13.727 13.727h256.437c7.582 0 13.73-6.149 13.73-13.727V21.137c0-2.91-.917-5.61-2.464-7.832zm0 0" fill="#ffc850"/><path d="M116.418 424.86V65.95l-27.54-52.645a13.66 13.66 0 0 0-2.46 7.832v403.722c0 7.579 6.144 13.727 13.727 13.727h30c-7.583 0-13.727-6.145-13.727-13.727zm0 0" fill="#feb644"/><path d="M356.582 7.41H100.145c-5.25 0-9.805 2.95-12.118 7.274L117.93 71.84a13.039 13.039 0 0 0 11.547 6.992h197.77c4.85 0 9.3-2.691 11.55-6.992l29.898-57.156c-2.308-4.325-6.863-7.274-12.113-7.274zm0 0" fill="#e4eaf8"/><path d="M147.934 71.84L121.69 21.68c-3.324-6.36 1.121-14.188 8.297-14.27h.157-30c-5.247 0-9.805 2.945-12.114 7.274L117.93 71.84a13.039 13.039 0 0 0 11.547 6.992h30.003a13.03 13.03 0 0 1-11.546-6.992zm0 0" fill="#d8dce5"/><path d="M370.313 389v-98.918c-5.907-3.71-278.012-174.77-283.895-178.469v98.918C91.973 214.023 368.5 387.86 370.312 389zm0 0" fill="#feb644"/><path d="M116.418 130.473c-17.523-11.016-28.852-18.137-30-18.86v98.918l30 18.86zm0 0" fill="#f9972d"/><path d="M492.71 240.04H333.517v58.276c0-18.925 15.414-34.27 34.425-34.27h124.43c6.492 0 12.078-4.968 12.387-11.421.324-6.895-5.195-12.586-12.047-12.586zm0 0" fill="#00aaf0"/><path d="M363.516 240.04h-30v58.276c0-17.43 13.078-31.812 30-33.976zm0 0" fill="#059adb"/><path d="M194.719 241.793h122.066l-33.988-33.984c-14.875-14.88-39.215-14.88-54.094 0zm0 0" fill="#ad7b64"/><path d="M270.754 199.695c-13.942-5.902-30.73-3.203-42.05 8.114l-33.985 33.984h30.004l33.984-33.984a37.886 37.886 0 0 1 12.047-8.114zm0 0" fill="#9e6b57"/><path d="M334.3 240.04H168.442c-6.37 0-11.89 4.82-12.316 11.179-.465 7.011 5.086 12.84 12 12.828 6.672-.012 11.969 5.656 11.969 12.324v46.438c0 35.226 28.558 63.785 63.785 63.785h26.637c35.226 0 63.785-28.559 63.785-63.785zm0 0" fill="#00c3ff"/><path d="M210.098 322.809V276.37c0-6.668-5.301-12.336-11.97-12.324-6.913.012-12.468-5.817-12-12.828.423-6.36 5.946-11.18 12.317-11.18h-30.004c-6.37 0-11.89 4.82-12.316 11.18-.465 7.011 5.086 12.84 12 12.828 6.672-.012 11.969 5.656 11.969 12.324v46.438c0 35.226 28.558 63.785 63.785 63.785h26.637c.562 0 1.12-.028 1.683-.043-34.449-.895-62.101-29.078-62.101-63.742zm0 0" fill="#00aaf0"/><path d="M31.293 92.242l47.352-31.96v364.663c0 11.707 9.523 21.23 21.226 21.23h256.441c11.704 0 21.227-9.523 21.227-21.23V271.637h114.617c10.625 0 19.328-8.157 19.82-18.57.536-11.399-8.609-20.442-19.48-20.442H377.54v-67.11c0-4.144-3.355-7.5-7.5-7.5a7.497 7.497 0 0 0-7.5 7.5v67.11H317.25c-18.277-18.273-11.672-11.672-30.469-30.469-14.265-14.265-36.426-16.976-53.648-6.91L93.645 107.56V42.207l17.367 33.2a20.475 20.475 0 0 0 18.195 11.015h81.383c4.144 0 7.5-3.356 7.5-7.5s-3.356-7.5-7.5-7.5h-81.383a5.514 5.514 0 0 1-4.902-2.969L96.777 15.832A6.3 6.3 0 0 1 99.871 15h256.442a6.28 6.28 0 0 1 3.093.832L331.88 68.453a5.514 5.514 0 0 1-4.902 2.969h-81.383a7.497 7.497 0 0 0-7.5 7.5 7.5 7.5 0 0 0 7.5 7.5h81.383c7.668 0 14.64-4.223 18.191-11.016l17.371-33.203v88.313a7.5 7.5 0 0 0 7.5 7.5 7.5 7.5 0 0 0 7.5-7.5v-71.13l48.684 32.86c9.215 6.219 21.66 3.77 27.851-5.406 6.207-9.192 3.79-21.649-5.402-27.852L372.64 7.672C368.613 2.809 362.574 0 356.309 0H99.87A21.229 21.229 0 0 0 82.36 9.25c-.047.074-.097.145-.144.215L8.844 58.988c-9.192 6.2-11.61 18.66-5.407 27.852 6.208 9.195 18.66 11.61 27.856 5.402zm408.988-20.82a5.056 5.056 0 0 1 1.36 7.023c-1.54 2.282-4.668 2.957-7.024 1.364L377.54 41.285v-12.21zM356.31 431.176H99.87a6.233 6.233 0 0 1-6.226-6.227V224.195l56.16 35.305c3.136 7.684 10.453 12.137 18.027 12.137h.043c2.504 0 4.45 2.3 4.45 4.824v46.437c0 39.297 31.968 71.286 71.284 71.286h26.633c21.63 0 41.028-9.696 54.11-24.957l38.187 24.003v31.72a6.234 6.234 0 0 1-6.23 6.226zm6.23-158.91v4.332l-4.574-2.875a25.237 25.237 0 0 1 4.574-1.457zm0 103.25l-29.633-18.63c5.692-10.452 8.621-22.167 8.621-33.988v-24.492c0-4.96 1.352-9.976 4.344-14.566l16.668 10.476zm129.953-127.887a4.504 4.504 0 0 1 4.5 4.73c-.11 2.356-2.281 4.274-4.836 4.274H370.04c-11.086 0-20.016 2.59-28.512 9.73V247.63zm-165.965 50.777v24.492c0 30.95-25.16 56.282-56.285 56.282H243.61c-31.035 0-56.285-25.246-56.285-56.282v-46.437c0-10.727-8.57-19.824-19.445-19.824h-.047c-2.637 0-4.668-2.235-4.492-4.828.152-2.305 2.32-4.18 4.832-4.18h158.36v50.777zm-50.355-85.64l19.86 19.863h-81.106l19.86-19.863a.253.253 0 0 0 .034-.032c11.438-11.379 30.012-11.304 41.352.032zM221 205.34l-27.29 27.289h-25.542c-7.223 0-13.773 3.902-17.246 9.851l-57.277-36.003v-81.2zM17.234 71.422l61.41-41.45v12.215L22.899 79.81a5.053 5.053 0 0 1-7.027-1.364 5.059 5.059 0 0 1 1.363-7.023zm0 0"/></svg>