<svg height="512pt" viewBox="0 -16 512.003 512" width="512pt" xmlns="http://www.w3.org/2000/svg"><path d="M204.906 51.48c20.403 0 39.528 1.977 57.281 5.325a120.542 120.542 0 0 1 16.04-18.551c8.597-8.094 5.515-23.078-5.559-26.352-11.59-3.425-23.914-4.976-36.672-4.312-36.414 1.89-68.523 22.039-88.375 51.879 17.524-5.012 36.617-7.989 57.285-7.989zm0 0" fill="#875848"/><path d="M209.195 51.531c15.418-19.593 36.493-34.05 60.485-40.445a109.053 109.053 0 0 0-33.684-3.496c-36.41 1.89-68.523 22.039-88.375 51.879 17.524-5.012 36.617-7.989 57.285-7.989 1.442 0 2.86.032 4.29.051zm0 0" fill="#7a4c40"/><path d="M475.078 172.164a15.47 15.47 0 0 1 0-14.601l29.07-54.356c2.149-4.012-1.859-8.523-6.097-6.871l-71.559 27.953a17.35 17.35 0 0 1-17.547-2.93c-22.633-19.218-95.09-72.379-204.043-72.379-41.515 0-76.707 11.297-105.484 26.833 23.414 26.355 37.648 61.054 37.648 99.082 0 31.703-9.894 61.09-26.754 85.261.899.18 1.793.367 2.704.54 26.046 11.933 56.695 20.05 91.886 20.05 108.953 0 181.41-53.16 204.043-72.379a17.35 17.35 0 0 1 17.547-2.93l71.559 27.95c4.238 1.656 8.246-2.856 6.097-6.867zm0 0" fill="#9e6b57"/><path d="M490.125 200.293l-63.629-24.852a17.348 17.348 0 0 0-17.547 2.926c-22.637 19.219-95.094 72.38-204.043 72.38-30.261 0-57.152-6.009-80.66-15.278a149.302 149.302 0 0 1-13.93 24.687c.895.18 1.79.367 2.7.54 26.05 11.933 56.699 20.046 91.89 20.046 108.95 0 181.406-53.156 204.043-72.375a17.35 17.35 0 0 1 17.547-2.93l71.555 27.95c4.238 1.656 8.246-2.86 6.101-6.867zm0 0" fill="#875848"/><path d="M11.582 153.281a19.686 19.686 0 0 0 0 23.164 263.867 263.867 0 0 0 12.988 16.387c1.817 2.117 1.754 5.262-.168 7.281l-6.851 7.215c-2.883 3.035-2.559 7.871.683 10.516 12.66 10.328 45.52 33.531 94.72 42.84 17.077-24.274 27.112-53.86 27.112-85.79 0-38.55-14.617-73.683-38.609-100.167-46.52 24.53-76.617 60.335-89.875 78.554zm0 0" fill="#ad7b64"/><path d="M115.57 231.848a25.067 25.067 0 0 0-5.23-1.684c-.008-.004-.016-.004-.024-.004-41.254-8.32-70.683-26.285-85.941-37.555.066.079.129.153.195.227 1.813 2.117 1.75 5.262-.172 7.285l-6.851 7.211c-2.883 3.035-2.559 7.871.683 10.516 12.66 10.328 45.52 33.531 94.72 42.84a149.158 149.158 0 0 0 13.859-24.223 225.15 225.15 0 0 1-11.239-4.613zm0 0" fill="#9e6b57"/><path d="M103.035 145.746c0 8.426-6.832 15.258-15.258 15.258-8.43 0-15.261-6.832-15.261-15.258 0-8.43 6.832-15.262 15.261-15.262 8.426 0 15.258 6.832 15.258 15.262zm0 0" fill="#e4eaf8"/><path d="M92.266 145.746c0-4.66 2.093-8.824 5.386-11.621a15.184 15.184 0 0 0-9.875-3.637c-8.425 0-15.257 6.828-15.257 15.258 0 8.426 6.832 15.258 15.257 15.258 3.77 0 7.211-1.375 9.875-3.637-3.293-2.8-5.386-6.965-5.386-11.62zm0 0" fill="#d8dce5"/><path d="M339.48 442.277a82.628 82.628 0 0 1-14.449-10.66c-21.777 9.125-47.14 16.875-75.765 20.988 18.816 15.965 44.12 23.04 69.507 16.961a79.094 79.094 0 0 0 20.793-8.226c7.18-4.09 7.067-14.918-.086-19.063zm0 0M204.906 227.309c20.403 0 39.528 1.976 57.281 5.324a120.726 120.726 0 0 1 16.04-18.551c8.597-8.094 5.515-23.074-5.559-26.348-11.59-3.425-23.914-4.98-36.672-4.316-36.414 1.894-68.523 22.043-88.375 51.879 17.524-5.012 36.617-7.988 57.285-7.988zm0 0" fill="#875848"/><path d="M326.617 448.723a306.26 306.26 0 0 0 15.824-3.88 10.608 10.608 0 0 0-2.96-2.566 82.628 82.628 0 0 1-14.45-10.66c-21.777 9.125-47.14 16.875-75.761 20.988 18.812 15.965 44.117 23.04 69.507 16.961a79.173 79.173 0 0 0 9.754-3.027 74.448 74.448 0 0 1-3.472-1.426c-7.672-3.367-6.63-14.61 1.558-16.39zm0 0M209.195 227.363c15.418-19.597 36.493-34.054 60.485-40.445a109.054 109.054 0 0 0-33.684-3.5c-36.41 1.894-68.523 22.043-88.375 51.879 17.524-5.012 36.617-7.988 57.285-7.988 1.442 0 2.86.035 4.29.054zm0 0" fill="#7a4c40"/><path d="M475.078 347.996a15.478 15.478 0 0 1 0-14.605l29.07-54.356c2.149-4.008-1.859-8.523-6.097-6.867l-71.559 27.95a17.35 17.35 0 0 1-17.547-2.927c-22.633-19.218-95.09-72.378-204.043-72.378-41.515 0-76.707 11.296-105.484 26.832 23.414 26.355 37.648 61.05 37.648 99.082 0 31.703-9.894 61.09-26.754 85.257.899.184 1.793.368 2.704.54 26.046 11.937 56.695 20.05 91.886 20.05 108.953 0 181.41-53.16 204.043-72.379a17.35 17.35 0 0 1 17.547-2.925l71.559 27.949c4.238 1.652 8.246-2.86 6.097-6.871zm0 0" fill="#9e6b57"/><path d="M490.125 376.125l-63.629-24.855a17.35 17.35 0 0 0-17.547 2.93c-22.637 19.218-95.094 72.378-204.043 72.378-30.261 0-57.152-6.008-80.66-15.277a149.265 149.265 0 0 1-13.93 24.683c.895.184 1.79.368 2.7.54 26.05 11.937 56.699 20.05 91.89 20.05 108.95 0 181.406-53.16 204.043-72.379a17.348 17.348 0 0 1 17.547-2.925l71.555 27.949c4.238 1.652 8.246-2.86 6.101-6.871zm0 0" fill="#875848"/><path d="M11.582 329.113a19.68 19.68 0 0 0 0 23.16A262.71 262.71 0 0 0 24.57 368.66c1.817 2.117 1.754 5.262-.168 7.285l-6.851 7.211c-2.883 3.035-2.559 7.871.683 10.52 12.66 10.324 45.52 33.527 94.72 42.836 17.077-24.27 27.112-53.856 27.112-85.79 0-38.546-14.617-73.679-38.609-100.163-46.52 24.527-76.617 60.332-89.875 78.554zm0 0" fill="#ad7b64"/><path d="M115.57 407.68a25.078 25.078 0 0 0-5.23-1.688c-.008 0-.016-.004-.024-.004-41.254-8.316-70.683-26.281-85.941-37.554l.195.23c1.813 2.117 1.75 5.258-.172 7.281l-6.851 7.211c-2.883 3.04-2.559 7.871.683 10.52 12.66 10.324 45.52 33.531 94.72 42.836a148.993 148.993 0 0 0 13.859-24.223 225.126 225.126 0 0 1-11.239-4.61zm0 0" fill="#9e6b57"/><path d="M103.035 321.574c0 8.43-6.832 15.258-15.258 15.258-8.43 0-15.261-6.828-15.261-15.258 0-8.426 6.832-15.258 15.261-15.258 8.426 0 15.258 6.832 15.258 15.258zm0 0" fill="#e4eaf8"/><path d="M92.266 321.574c0-4.656 2.093-8.82 5.386-11.62a15.184 15.184 0 0 0-9.875-3.638c-8.425 0-15.257 6.832-15.257 15.258s6.832 15.258 15.257 15.258c3.77 0 7.211-1.371 9.875-3.637-3.293-2.797-5.386-6.96-5.386-11.62zm0 0" fill="#d8dce5"/><path d="M64.746 145.836c0 12.547 10.211 22.758 22.758 22.758 12.55 0 22.758-10.211 22.758-22.758 0-12.55-10.207-22.762-22.758-22.762-12.547.004-22.758 10.211-22.758 22.762zm30.516 0c0 4.277-3.48 7.758-7.758 7.758s-7.758-3.48-7.758-7.758c0-4.281 3.48-7.762 7.758-7.762s7.758 3.485 7.758 7.762zm0 0M87.504 298.906c-12.547 0-22.758 10.211-22.758 22.758 0 12.55 10.211 22.758 22.758 22.758 12.55 0 22.758-10.207 22.758-22.758 0-12.547-10.211-22.758-22.758-22.758zm0 30.516c-4.277 0-7.758-3.48-7.758-7.758 0-4.277 3.48-7.758 7.758-7.758 4.281 0 7.762 3.48 7.762 7.758-.004 4.277-3.485 7.758-7.762 7.758zm0 0M171.043 407.754a7.494 7.494 0 0 0 6.816-4.363c18.97-41.207 16.028-89.086-7.113-127.418a7.505 7.505 0 0 0-10.297-2.547c-3.547 2.14-4.687 6.754-2.547 10.297 20.586 34.101 23.211 76.726 6.336 113.394-2.289 4.969 1.36 10.637 6.805 10.637zm0 0M215.129 397.48a7.507 7.507 0 0 0 7.059-4.964c11.964-33.309 10.796-71.305-5.31-104.954-1.788-3.734-6.273-5.312-10.003-3.523-3.734 1.79-5.316 6.266-3.527 10 14.336 29.945 15.363 63.785 4.722 93.402-1.754 4.88 1.868 10.04 7.059 10.04zm0 0"/><path d="M5.246 356.777a267.136 267.136 0 0 0 12.16 15.446l-5.566 5.859c-5.274 5.547-6.332 15.344 2.605 22.48 24.938 19.895 59.266 36.16 96.008 43.25 20.918 9.481 42.953 15.727 65.512 18.555 4.101.512 7.855-2.398 8.37-6.508a7.495 7.495 0 0 0-6.507-8.375c-18.48-2.316-36.59-7.093-53.953-14.218 34.344-55.36 31.059-127.778-10.79-180.18 93.981-44.621 219.442-10.625 290.74 49.914a24.83 24.83 0 0 0 25.128 4.195l64.988-25.382-25.746 48.132a22.925 22.925 0 0 0 0 21.68l25.746 48.133-64.988-25.383a24.823 24.823 0 0 0-25.129 4.195c-47.879 40.653-117.625 68.887-192.09 70.512a7.498 7.498 0 0 0-7.336 7.66 7.5 7.5 0 0 0 7.497 7.336c.054 0 .109 0 .164-.004a335.395 335.395 0 0 0 34.824-2.566c28.828 21.566 66.262 23.125 95.984 7.05 12.457-6.742 12.25-24.503-.043-31.265a67.063 67.063 0 0 1-3.023-1.77c29.07-12.933 54.683-29.343 73.73-45.515a9.841 9.841 0 0 1 9.965-1.664l71.559 27.953c10.722 4.183 20.863-7.25 15.437-17.395l-29.074-54.355a7.98 7.98 0 0 1 0-7.527l29.074-54.352c5.43-10.152-4.722-21.578-15.437-17.395l-71.559 27.95a9.832 9.832 0 0 1-9.965-1.66c-10.074-8.555-30.297-24.09-59.277-38.696 28.926-14.578 49.117-30.062 59.277-38.691a9.842 9.842 0 0 1 9.965-1.66l71.559 27.949c4.89 1.91 10.297.605 13.777-3.317 3.484-3.921 4.137-9.449 1.66-14.074l-25.683-48.02c-1.954-3.652-6.497-5.027-10.149-3.074s-5.031 6.497-3.078 10.149l22.36 41.8-64.989-25.386a24.826 24.826 0 0 0-25.129 4.2c-10.844 9.202-33.746 26.66-67.113 41.917-.05-.023-.102-.043-.152-.062-19.707-8.524-40.004-15.067-60.766-19.59a109.57 109.57 0 0 1 7.144-6.977c12.958-11.504 8.375-32.972-8.523-37.683-14.098-3.93-29.086-5.364-44.36-3.95.954-22.609-3.503-44.453-13.175-64.66a7.495 7.495 0 0 0-10-3.527 7.5 7.5 0 0 0-3.527 10.004c8.722 18.219 13.011 38.695 11.558 60.535a122.305 122.305 0 0 0-25.644 8.77c3.777-30.426-2.715-61.2-18.516-87.375a7.5 7.5 0 0 0-10.297-2.543 7.496 7.496 0 0 0-2.547 10.293c16.535 27.386 21.14 59.554 14.457 89.355-11.195 7.7-21.426 17.613-29.52 28.621-1.491.418-2.984.86-4.468 1.313 17.48-49.286 9.437-106.5-25.352-150.008 94.493-44.79 220.047-10.082 290.801 49.992a24.817 24.817 0 0 0 25.13 4.2l64.987-25.384-18.226 34.079a7.494 7.494 0 0 0 3.074 10.148 7.5 7.5 0 0 0 10.148-3.074l21.555-40.297c5.43-10.152-4.722-21.578-15.437-17.395l-71.559 27.95a9.848 9.848 0 0 1-9.965-1.657c-11.426-9.703-35.898-28.39-71.406-44.508-21.445-9.738-43.61-17.097-66.332-22.05a109.5 109.5 0 0 1 7.148-6.977C295.895 30.7 291.312 9.23 274.414 4.52 226.602-8.812 174.156 7.652 142.86 50.04 89.254 65.147 41.766 100.862 8.477 144.624c-.004 0-.004 0-.004.004-3.684 4.84-10.45 12.687-7.918 25.55 1.207 6.13 3.445 10.387 16.851 26.216l-5.566 5.855c-5.84 6.145-5.293 16.05 1.383 21.496 10.418 8.496 31.16 23.172 61.21 34.203-26.492 17.867-50.703 41.434-69.187 66.84a27.11 27.11 0 0 0 0 31.988zm318.129 85.559a89.86 89.86 0 0 0 12.219 8.102c1.937 1.062 2.12 3.851.136 4.925-19.457 10.524-43.91 12.348-65.882 2.41a334.435 334.435 0 0 0 53.527-15.437zm-214.098-14.07c-33.422-7.11-64.672-22.536-86.32-40.106l6.61-6.96c4.66-4.903 4.66-12.391.425-17.333-2.586-3.012-13.117-15.457-14.375-19.363-2.156-6.691 1.762-10.957 4.262-14.266 21.152-28.09 48.898-52.855 79.598-70.125 39.683 47.606 43.937 115.973 9.8 168.153zm161.106-233.473c5.363 1.496 6.754 8.328 2.594 12.023a126.441 126.441 0 0 0-14.227 14.946c-27.734-4.528-60.996-6.293-91.145-1.383 27.856-26.426 66.856-35.602 102.778-25.586zM119.5 233.848a237.819 237.819 0 0 0-28.559 13.84c-33.937-10.375-56.98-26.422-67.988-35.36l6.613-6.957a12.904 12.904 0 0 0 .426-17.332c-4.219-4.918-8.601-10.398-12.62-15.918a12.175 12.175 0 0 1-2.34-7.168c0-4.598 2.183-7.012 5.011-10.765C33.805 136 60.285 106.25 99.477 84.285c35.425 42.492 42.3 100.926 20.023 149.563zM270.383 18.965c5.336 1.484 6.777 8.308 2.594 12.023A123.656 123.656 0 0 0 258.75 45.93c-28.914-4.72-61.86-6.153-91.152-1.38 27.949-26.616 67.082-35.542 102.785-25.585zm0 0"/></svg>