<svg height="512pt" viewBox="-66 0 512 512" width="512pt" xmlns="http://www.w3.org/2000/svg"><path d="M116.5 153.348c37.715 15.566 79.785 6.668 100.125-1.176a98.687 98.687 0 0 0-23.691-35.684l-31.692-30.48H69.77l-31.692 30.48a98.702 98.702 0 0 0-22.543 32.82c18.84-6.605 52.113-16.12 100.965 4.04zm0 0" fill="#e4eaf8"/><path d="M67.828 116.488l31.695-30.48H69.77l-31.692 30.48a98.702 98.702 0 0 0-22.543 32.82c8.3-2.91 19.402-6.382 33.403-7.632 4.87-9.262 11.203-17.793 18.89-25.188zm0 0" fill="#d8dce5"/><path d="M15.902 205.602a23.78 23.78 0 0 1 7.555 12.726h168.371l-1.723-28.129a6.237 6.237 0 0 1 6.227-6.617h26.816a98.75 98.75 0 0 0-7.449-33.738c-18.637 7.844-61.746 18.062-100.199 2.195-48.691-20.094-81.508-9.934-99.637-3.5a98.778 98.778 0 0 0-8.09 39.145 23.824 23.824 0 0 0 8.13 17.918zm0 0" fill="#00c3ff"/><path d="M45.656 205.602a23.815 23.815 0 0 1-8.133-17.918c0-14.336 2.957-26.82 8.094-39.145h.008a97.753 97.753 0 0 1 3.828-7.851c-14.25 1.3-25.418 4.953-33.59 7.851a98.778 98.778 0 0 0-8.09 39.145 23.824 23.824 0 0 0 8.13 17.918 23.78 23.78 0 0 1 7.554 12.726h29.738c-1.074-4.746-3.613-9.293-7.539-12.726zm0 0" fill="#00aaf0"/><path d="M208.992 498.55l-9.465-154.538-2.617-42.727H23.852a23.821 23.821 0 0 1-6.793 13.942l-2.313 2.312a23.813 23.813 0 0 0-6.973 16.836v149.96c0 11.087 8.985 20.075 20.07 20.075h175.325c2.797 0 5.457-.574 7.875-1.61a6.214 6.214 0 0 1-2.05-4.25zm0 0" fill="#00c3ff"/><path d="M37.523 484.336V334.375c0-17.54 14.512-17.457 16.114-33.09H23.852a23.821 23.821 0 0 1-6.793 13.942l-2.313 2.312a23.806 23.806 0 0 0-6.973 16.836v149.96c0 11.087 8.985 20.075 20.07 20.075h29.755c-11.086 0-20.075-8.988-20.075-20.074zm0 0" fill="#00aaf0"/><path d="M23.61 302.844h173.394l-1.133-18.531-4.137-67.547H23.047c.644 2.172.988 4.441.988 6.754v74.87a23.83 23.83 0 0 1-.426 4.454zm0 0" fill="#00aaf0"/><path d="M23.61 302.844h29.816c.23-1.352.36-2.824.36-4.453V223.52c0-2.258-.34-4.54-1-6.754h-29.74c.645 2.172.99 4.441.99 6.754v74.87a23.83 23.83 0 0 1-.427 4.454zm0 0" fill="#059adb"/><path d="M120.75 440.715c0 9.887-8.012 17.898-17.898 17.898-9.883 0-17.899-8.011-17.899-17.898 0-9.883 8.016-17.899 17.899-17.899 9.886 0 17.898 8.016 17.898 17.899zm0 0M169.574 382.816c0 7.391-5.992 13.38-13.383 13.38s-13.379-5.989-13.379-13.38 5.989-13.382 13.38-13.382 13.382 5.992 13.382 13.382zm0 0" fill="#00aaf0"/><path d="M49.29 34.578h132.433c.547 0 1.086.043 1.617.11V20.331c0-7.105-5.817-12.922-12.922-12.922H60.594c-7.106 0-12.918 5.817-12.918 12.922v14.355a12.96 12.96 0 0 1 1.613-.109zm0 0" fill="#00c3ff"/><path d="M77.676 20.332c0-7.105 5.816-12.922 12.922-12.922H60.594c-7.106 0-12.918 5.817-12.918 12.922v14.355a12.96 12.96 0 0 1 1.613-.109h28.387zm0 0" fill="#00aaf0"/><path d="M181.723 58.84H49.289c-.547 0-1.086-.043-1.613-.106V75.09c0 7.105 5.812 12.918 12.918 12.918h109.824c7.105 0 12.918-5.813 12.918-12.918V58.734c-.527.063-1.066.106-1.613.106zm0 0" fill="#00c3ff"/><path d="M77.676 75.09V58.84H49.289c-.547 0-1.082-.043-1.613-.106V75.09c0 7.105 5.812 12.918 12.918 12.918h30.004c-7.106 0-12.922-5.813-12.922-12.918zm0 0" fill="#00aaf0"/><path d="M182.656 32.578H48.36c-6.722 0-12.168 5.445-12.168 12.168v5.93c0 6.719 5.446 12.168 12.168 12.168h134.297c6.719 0 12.168-5.45 12.168-12.168v-5.93c0-6.723-5.449-12.168-12.168-12.168zm0 0" fill="#00aaf0"/><path d="M192.277 37.316c-2.226 2.88-5.703 4.743-9.62 4.743H48.358c-3.922 0-7.398-1.864-9.625-4.743a12.107 12.107 0 0 0-2.543 7.43v5.93c0 6.719 5.446 12.168 12.168 12.168h134.297c6.719 0 12.168-5.45 12.168-12.168v-5.93c0-2.8-.957-5.371-2.547-7.43zm0 0" fill="#059adb"/><path d="M366.672 183.578H195.844c-3.606 0-6.465 3.031-6.246 6.621l5.902 96.07c14.852-5.312 43.066-15.269 85.758 2.301 33.36 13.73 70.875 4.22 85.765-2.425l5.891-95.946c.223-3.59-2.637-6.62-6.242-6.62zm0 0" fill="#e4eaf8"/><path d="M219.602 190.2c-.223-3.59 2.64-6.618 6.242-6.618h-30c-3.606 0-6.465 3.027-6.246 6.617l5.902 96.074c6.914-2.476 16.734-5.957 29.559-7.195zm0 0" fill="#d8dce5"/><path d="M281.258 286.57c-42.805-17.617-71.059-7.558-85.88-2.254l11.876 193.329h148.012l11.886-193.551c-14.808 6.644-52.441 16.242-85.894 2.476zm0 0" fill="#00c3ff"/><g fill="#00aaf0"><path d="M237.234 477.32L225.5 286.273l-.563-9.183c-12.84 1.258-22.656 4.758-29.558 7.226l11.875 193.329h30zm0 0M283.938 401.078c0-7.39-6.008-13.383-13.418-13.383-7.415 0-13.422 5.993-13.422 13.383s6.007 13.383 13.422 13.383c7.41 0 13.418-5.992 13.418-13.383zm0 0"/><path d="M207.234 477.32l1.305 21.23c.2 3.294 2.938 5.86 6.242 5.86h132.953a6.25 6.25 0 0 0 6.246-5.86l1.301-21.23zm0 0"/></g><path d="M238.54 498.55l-1.306-21.23h-30l1.305 21.23c.2 3.294 2.938 5.86 6.242 5.86h30.004a6.25 6.25 0 0 1-6.246-5.86zm0 0" fill="#059adb"/><path d="M27.574 512h175.32c2.422 0 4.801-.316 7.106-.93 1.691.653 3.324.93 4.945.93h132.586c7.25 0 13.274-5.668 13.715-12.898l6.836-111.618a7.498 7.498 0 0 0-7.027-7.945c-4.13-.258-7.692 2.895-7.946 7.027l-5.125 83.668H214.496L203.434 289.61c14.902-4.988 39.453-10.664 74.945 3.985 28.871 11.914 60.754 7.543 80.328 1.574l-3.453 56.395a7.5 7.5 0 0 0 7.027 7.945c4.114.258 7.692-2.89 7.946-7.028l4.148-67.738v-.012l5.754-93.98c.484-7.895-5.8-14.582-13.711-14.582H229.824c-4.715-43.29-29.715-62.832-51.86-84.129 7.391-3.078 12.602-10.367 12.602-18.86v-5.55c6.766-3.113 11.485-9.941 11.485-17.863v-5.93c0-7.922-4.719-14.75-11.485-17.863v-5.551C190.566 9.16 181.406 0 170.145 0h-37.457a7.5 7.5 0 1 0 0 15h37.457a5.43 5.43 0 0 1 5.421 5.422v3.746H54.902v-3.746A5.43 5.43 0 0 1 60.324 15h37.364c4.144 0 7.5-3.355 7.5-7.5a7.5 7.5 0 0 0-7.5-7.5H60.324C49.063 0 39.902 9.16 39.902 20.422v5.55c-6.765 3.114-11.484 9.942-11.484 17.864v5.93c0 7.922 4.719 14.75 11.484 17.859v5.555c0 8.488 5.211 15.78 12.602 18.855C35.086 108.785 0 135.25 0 187.77a31.318 31.318 0 0 0 10.691 23.566c3.63 3.172 5.57 7.766 5.57 12.273v74.871c0 7.532-4.538 11.297-7.09 13.844C3.259 318.238 0 326.102 0 334.464v149.962C0 499.629 12.367 512 27.574 512zm3.688-287.64h153.144l4.352 71.074H31.262zm315.804 260.874L346.348 497H216.133l-.719-11.766zm12.63-206.207c-16.024 6.024-47.544 12.278-75.594.7-37.348-15.415-64.801-10.684-81.618-5.563l-5.082-82.992h167.672zM43.417 49.766v-5.93c0-2.758 2.367-4.559 3.984-4.559l135.922-.015a4.679 4.679 0 0 1 3.727 4.574v5.93a4.678 4.678 0 0 1-3.73 4.57H47.14a4.675 4.675 0 0 1-3.723-4.57zm11.484 19.668h120.664v3.746a5.426 5.426 0 0 1-5.421 5.418H60.325a5.426 5.426 0 0 1-5.423-5.418zM72.52 93.602h85.43c31.87 30.648 38.78 35.773 47.273 52.136-20.442 6.805-55.711 12.426-87.137-.543-38.25-15.785-67.715-13.613-87.023-9.097 6.64-9.696 9.355-11.625 41.457-42.496zm-51.223 60.972c16.043-5.547 46.273-14 91.066 4.488 35.883 14.805 75.93 8.258 98.649.547a91.035 91.035 0 0 1 3.71 16.559h-18.66c-7.906 0-14.199 6.684-13.714 14.582l1.14 18.605H27.824a31.177 31.177 0 0 0-7.254-9.308A16.313 16.313 0 0 1 15 187.77c0-11.34 2.164-22.622 6.297-33.196zM15 334.464c0-11.675 8.746-11.527 13.906-24.03h160.77L201.102 497H27.574C20.641 497 15 491.36 15 484.426zm0 0"/><path d="M270.527 380.285c-11.511 0-20.882 9.367-20.882 20.883s9.37 20.883 20.882 20.883c11.516 0 20.883-9.367 20.883-20.883s-9.367-20.883-20.883-20.883zm0 26.762a5.885 5.885 0 0 1-5.879-5.879 5.888 5.888 0 0 1 5.88-5.883 5.889 5.889 0 0 1 5.882 5.883 5.886 5.886 0 0 1-5.883 5.879zm0 0M102.582 466.203c14.004 0 25.398-11.394 25.398-25.398s-11.394-25.399-25.398-25.399c-14.008 0-25.402 11.395-25.402 25.399 0 14.004 11.394 25.398 25.402 25.398zm0-35.797c5.73 0 10.395 4.664 10.395 10.399 0 5.734-4.665 10.398-10.395 10.398-5.734 0-10.402-4.664-10.402-10.398 0-5.735 4.668-10.399 10.402-10.399zm0 0M155.922 403.79c11.512 0 20.879-9.372 20.879-20.884 0-11.515-9.367-20.883-20.88-20.883-11.515 0-20.882 9.368-20.882 20.88 0 11.515 9.367 20.886 20.883 20.886zm0-26.767a5.885 5.885 0 0 1 5.879 5.88 5.886 5.886 0 0 1-5.88 5.882 5.887 5.887 0 0 1-5.882-5.883 5.886 5.886 0 0 1 5.883-5.879zm0 0M102.582 353.273c4.16 0 7.492-3.39 7.492-7.5 0-4.757-4.375-8.296-8.96-7.347-3.727.695-6.7 4.406-5.891 8.82.777 3.64 3.867 6.027 7.359 6.027zm0 0M298.645 360.895c4.167 0 7.5-3.383 7.5-7.5a7.487 7.487 0 0 0-6.032-7.348c-4.488-.93-8.968 2.527-8.968 7.348 0 4.152 3.375 7.5 7.5 7.5zm0 0"/></svg>