<svg height="511pt" viewBox="0 -33 512 511" width="511pt" xmlns="http://www.w3.org/2000/svg"><path d="M400.625 358.066H41.211c-25.297 0-41.523 29.2-29.203 51.293.14.258.285.512.43.766 9.84 17.426 28.445 28.066 48.457 28.066H380.94c20.016 0 38.618-10.64 48.461-28.066.141-.254.286-.508.426-.766 12.32-22.093-3.906-51.293-29.203-51.293zm0 0" fill="#f0a479"/><path d="M56.574 410.125c-.144-.254-.285-.508-.43-.766-12.316-22.093 3.91-51.293 29.208-51.293H41.21c-25.297 0-41.523 29.2-29.203 51.293.14.258.285.512.43.766 9.84 17.426 28.445 28.066 48.457 28.066h44.14c-20.015 0-38.617-10.64-48.46-28.066zm0 0" fill="#e5966e"/><path d="M156.434 334.727c0-8.497-6.95-15.45-15.446-15.45h-14.101c-8.5 0-15.45 6.95-15.45 15.446v25.351h45.055c-.027-.36-.058-.719-.058-1.086zm0 0M74.46 313.05c0-7.062-5.722-12.784-12.784-12.784h-34.13c-6.937 0-12.608 5.675-12.608 12.613v34.582c0 6.937 5.671 12.613 12.609 12.613H74.46zm0 0" fill="#f25c5c"/><path d="M48.469 347.46V312.88c0-6.938 5.676-12.613 12.613-12.613H27.547c-6.934 0-12.61 5.675-12.61 12.613v34.582c0 6.937 5.672 12.613 12.61 12.613h33.535c-6.937 0-12.613-5.676-12.613-12.613zm0 0" fill="#d83f3f"/><path d="M414.29 300.266H206.194c-7.062 0-12.785 5.722-12.785 12.785v45.937c0 .367-.031.727-.055 1.086H414.29c6.938 0 12.613-5.676 12.613-12.613v-34.586c0-6.934-5.675-12.61-12.613-12.61zm0 0" fill="#f25c5c"/><path d="M337.027 186.762c-6.851-6.856-12.464-16.477-16.894-24.57H41.21c-8.953 0-16.754-3.41-22.563-8.786-3.808 3.801-6.164 11.067-6.164 16.875 0 11.61 9.41 21.02 21.02 21.02 5.66 0 7.32 1.039 12.246 4.137 6.707 4.21 16.84 10.574 34.605 10.574s27.899-6.364 34.606-10.575c4.926-3.097 6.586-4.136 12.246-4.136s7.32 1.039 12.246 4.137c6.707 4.21 16.84 10.574 34.606 10.574s27.898-6.364 34.601-10.575c4.93-3.097 6.59-4.136 12.25-4.136 5.656 0 7.317 1.039 12.246 4.137 6.707 4.21 16.84 10.574 34.606 10.574s27.898-6.364 34.605-10.575c4.926-3.097 6.586-4.136 12.246-4.136s7.324 1.043 12.254 4.137c6.703 4.21 16.84 10.574 34.606 10.574.882 0 1.734-.028 2.582-.055a99.169 99.169 0 0 1-27.028-19.195zm0 0" fill="#6fd844"/><path d="M97.16 195.438c-4.926-3.098-6.586-4.137-12.246-4.137-11.61 0-21.02-9.41-21.02-21.02 0-2.554.458-5.39 1.294-8.09H41.21c-8.953 0-16.754-3.41-22.563-8.785-3.808 3.801-6.164 11.067-6.164 16.875 0 11.61 9.41 21.02 21.02 21.02 5.66 0 7.32 1.039 12.246 4.137 6.707 4.21 16.84 10.574 34.605 10.574 11.297 0 19.5-2.575 25.704-5.532-3.551-1.69-6.457-3.511-8.899-5.042zm0 0" fill="#5fbf32"/><path d="M411.453 261.285H30.383c-8.496 0-15.445 6.953-15.445 15.45v10.09c0 8.495 6.949 15.448 15.445 15.448h29.285c7.062 0 12.789 5.723 12.789 12.786v64.246c0 8.496 6.95 15.449 15.445 15.449h10.09c8.496 0 15.45-6.953 15.45-15.45V336.73c0-8.496 6.953-15.445 15.449-15.445h10.09c8.496 0 15.449 6.95 15.449 15.45v22.253c0 8.496 6.949 15.45 15.445 15.45h10.09c8.496 0 15.45-6.954 15.45-15.45v-43.93c0-7.062 5.722-12.785 12.784-12.785h203.254c8.496 0 15.445-6.953 15.445-15.449v-10.09c.004-8.496-6.949-15.449-15.445-15.449zm0 0" fill="#ffc850"/><path d="M102.55 379.305v-64.246c0-7.063-5.726-12.786-12.788-12.786H60.48c-8.5 0-15.449-6.953-15.449-15.449v-10.09c0-8.496 6.95-15.449 15.45-15.449H30.382c-8.496 0-15.446 6.953-15.446 15.45v10.09c0 8.495 6.95 15.448 15.446 15.448h29.285c7.062 0 12.789 5.723 12.789 12.786v64.246c0 8.496 6.95 15.449 15.445 15.449h10.094c3.809 0 7.3-1.406 10-3.711-3.324-2.84-5.445-7.05-5.445-11.738zm0 0M184.523 358.988V336.73c0-8.496-6.953-15.445-15.449-15.445h-10.09c-3.808 0-7.3 1.402-10.004 3.711 3.325 2.84 5.45 7.047 5.45 11.734v22.258c0 8.496 6.949 15.45 15.445 15.45h10.09c3.808 0 7.3-1.407 10.004-3.715-3.324-2.836-5.446-7.047-5.446-11.735zm0 0" fill="#feb644"/><path d="M337.027 46.508a99.887 99.887 0 0 1 10.063-8.77C310.969 18.926 267.586 7.961 220.918 7.961 127.465 7.96 47.16 51.934 12.047 114.84-.301 136.96 15.879 164.2 41.21 164.2h278.922c-20.598-37.645-14.98-85.817 16.894-117.692zm0 0" fill="#f0a479"/><path d="M42.14 114.844C75.36 55.34 149.005 12.785 235.966 8.352c-4.973-.254-9.988-.391-15.047-.391-93.453 0-173.754 43.973-208.871 106.879-12.348 22.12 3.832 49.36 29.164 49.36h30.094c-25.332 0-41.512-27.24-29.164-49.356zm0 0" fill="#e5966e"/><path d="M425.512 212.086c-20.621 3.863-42.219 1.144-61.457-8.137a68.99 68.99 0 0 1-2.578.059c-17.77 0-27.903-6.367-34.61-10.578-4.93-3.094-6.59-4.137-12.25-4.137s-7.32 1.043-12.25 4.137c-6.703 4.21-16.836 10.578-34.601 10.578s-27.903-6.367-34.606-10.578c-4.93-3.094-6.59-4.137-12.25-4.137s-7.32 1.043-12.246 4.137c-6.703 4.21-16.84 10.578-34.601 10.578-17.766 0-27.903-6.367-34.606-10.578-4.93-3.094-6.586-4.137-12.246-4.137s-7.32 1.043-12.25 4.137c-6.703 4.21-16.84 10.578-34.606 10.578-17.761 0-27.898-6.367-34.601-10.578-.516-.32-.992-.621-1.445-.903-5.106-3.16-11.696-2.605-16.145 1.426-8.086 7.32-13.223 18.8-13.223 30.2 0 20.507 16.625 37.132 37.133 37.132H389.77c20.511 0 37.132-16.625 37.132-37.133 0-3.488-.488-8.867-1.39-12.066zm0 0" fill="#ad7b64"/><path d="M74.46 224.152c0-7.02 1.954-14.066 5.34-20.16-17.413-.133-27.417-6.394-34.05-10.562-.516-.32-.992-.621-1.445-.903-5.106-3.16-11.696-2.605-16.145 1.426-8.086 7.32-13.223 18.8-13.223 30.2 0 20.507 16.625 37.132 37.133 37.132h59.524c-20.508 0-37.133-16.625-37.133-37.133zm0 0" fill="#9e6b57"/><path d="M477.031 45.91c-39.062-39.058-102.39-39.058-141.449 0-39.062 39.059-39.062 102.39 0 141.45 39.059 39.058 102.387 39.058 141.45 0 39.058-39.06 39.058-102.391 0-141.45zm0 0" fill="#f25c5c"/><path d="M365.68 187.36c-39.063-39.063-39.063-102.391 0-141.45 15.687-15.691 35.3-25.074 55.675-28.16-30.347-4.59-62.402 4.79-85.773 28.16-39.059 39.059-39.059 102.387 0 141.45 23.371 23.367 55.426 32.75 85.773 28.156-20.375-3.086-39.988-12.465-55.675-28.157zm0 0" fill="#d83f3f"/><path d="M431.79 118.977a3.312 3.312 0 0 1 0-4.684l19.952-19.953c6.336-6.332 6.153-16.719-.55-22.817-6.278-5.714-16.055-5.164-22.06.84L409.497 92a3.308 3.308 0 0 1-4.68 0l-19.953-19.953c-6.156-6.156-16.136-6.156-22.293 0s-6.156 16.137 0 22.293l19.953 19.953a3.312 3.312 0 0 1 0 4.684l-19.636 19.632c-6 6.004-6.555 15.778-.848 22.059 6.098 6.703 16.488 6.89 22.824.555l19.953-19.953a3.308 3.308 0 0 1 4.68 0l19.953 19.953c6.336 6.336 16.723 6.148 22.82-.555 5.711-6.277 5.16-16.055-.84-22.055zm0 0" fill="#e4eaf8"/><path d="M389.219 138.61l19.636-19.637a3.315 3.315 0 0 0 0-4.68L388.902 94.34c-5.468-5.465-6.07-13.942-1.828-20.082l-2.21-2.211c-6.157-6.156-16.137-6.156-22.294 0s-6.156 16.137 0 22.293l19.953 19.953a3.312 3.312 0 0 1 0 4.684l-19.636 19.632c-6 6.004-6.555 15.778-.848 22.059 6.098 6.703 16.488 6.89 22.824.555l2.215-2.22c-4.266-6.241-3.355-14.898 2.14-20.394zm0 0" fill="#d8dce5"/><path d="M455.984 66.047c-9.207-8.379-23.457-7.902-32.441 1.086l-16.66 16.656-16.973-16.973c-9.101-9.101-23.828-9.101-32.933 0-9.082 9.082-9.082 23.856 0 32.934l16.972 16.973-16.656 16.656c-8.984 8.984-9.465 23.234-1.094 32.437 9.16 10.075 24.52 10.004 33.711.813l16.973-16.973 16.972 16.973c9.196 9.2 24.551 9.254 33.707-.809 8.375-9.207 7.899-23.453-1.085-32.437l-16.66-16.66 16.972-16.973c9.176-9.176 9.27-24.531-.805-33.703zm-9.836 23.062l-19.953 19.957c-4.222 4.223-4.222 11.094 0 15.317l19.64 19.64c3.24 3.239 3.505 8.473.599 11.672-3.25 3.57-8.684 3.555-11.938.297l-19.953-19.953a10.826 10.826 0 0 0-15.32 0l-19.953 19.953c-3.247 3.242-8.676 3.29-11.938-.297-2.906-3.199-2.637-8.433.602-11.675l19.636-19.637c4.223-4.223 4.223-11.094 0-15.317L367.617 89.11c-3.215-3.21-3.215-8.437-.004-11.652a8.239 8.239 0 0 1 11.657 0l19.953 19.953a10.826 10.826 0 0 0 15.32 0l19.637-19.637c3.242-3.238 8.476-3.507 11.675-.597a8.23 8.23 0 0 1 .293 11.933zm0 0"/><path d="M5.168 413.121l.445.793c11.11 19.672 32.188 31.895 55.008 31.895H203.09a7.525 7.525 0 0 0 7.523-7.528 7.524 7.524 0 0 0-7.523-7.523H60.62c-17.402 0-33.46-9.29-41.906-24.246l-.41-.727C8.82 388.77 21.3 367.688 40.94 367.688h23.72v11.707c0 12.668 10.304 22.972 22.972 22.972h10.09c12.66 0 22.972-10.3 22.972-22.972v-11.707h27.618c3.476 8.562 11.847 14.363 21.292 14.363h10.09c9.371 0 17.79-5.73 21.293-14.363h199.367c9.262 0 17.602 4.78 22.305 12.789 4.637 7.898 4.762 17.359.332 25.3l-.414.739c-8.445 14.953-24.504 24.246-41.906 24.246H238.199a7.524 7.524 0 0 0 0 15.047h142.469c22.82 0 43.902-12.223 55.008-31.891l.453-.805c7.058-12.66 6.875-27.71-.496-40.258a41.5 41.5 0 0 0-8.383-10.164c4.219-3.695 6.902-9.101 6.902-15.136v-32.582c0-5.188-1.992-9.91-5.23-13.485a22.868 22.868 0 0 0 5.23-14.574v-10.09c0-9.21-5.453-17.168-13.297-20.828 9.368-9.25 14.407-22.258 13.06-36.086 17.75-4.617 34.534-13.86 48.413-27.738 15.48-15.48 25.7-35.043 29.555-56.567.73-4.09-1.992-8-6.082-8.73a7.519 7.519 0 0 0-8.73 6.078c-3.31 18.485-12.087 35.281-25.384 48.578-16.742 16.742-38.406 25.64-60.375 26.696h-.07c-43.89 2.07-82.453-27.067-93.082-68.676-8.39-32.996 2.059-69.297 29.227-92.508 36.754-31.246 90.812-28.61 124.3 4.875 13.297 13.297 22.075 30.094 25.383 48.578a7.525 7.525 0 0 0 14.813-2.652c-3.856-21.524-14.074-41.082-29.555-56.567C445.316 4.27 387.66.187 346.094 29.027 225.164-31.098 63.219 7.336 5.204 111.266c-8.04 14.402-6.614 31.644 3.394 44.672-7.711 13.105-3.79 30.453 9.726 38.765a44.54 44.54 0 0 0-11.183 29.54c0 12.413 5.093 23.655 13.293 31.753-7.84 3.66-13.293 11.617-13.293 20.828v10.09c0 5.527 1.96 10.606 5.226 14.574-3.238 3.575-5.226 8.297-5.226 13.489v32.578c0 6.035 2.68 11.445 6.898 15.136-13.977 12.274-18.617 32.954-8.871 50.43zm17.02-98.148c0-2.758 2.328-5.086 5.085-5.086h32.122a5.266 5.266 0 0 1 5.261 5.261v37.493H27.273c-2.757 0-5.086-2.328-5.086-5.086zm124.445 37.668h-25.938v-15.82c0-4.368 3.555-7.923 7.922-7.923h10.09c4.371 0 7.926 3.555 7.926 7.922zm22.972 14.363c-4.175 0-7.851-3.352-7.925-7.926V336.82c0-12.664-10.305-22.972-22.973-22.972h-10.09c-12.664 0-22.969 10.304-22.972 22.972v42.575c0 4.367-3.551 7.925-7.922 7.925h-10.09c-4.371 0-7.926-3.554-7.926-7.925v-64.25c0-11.2-9.113-20.31-20.309-20.31H30.113c-4.37 0-7.926-3.554-7.926-7.925v-10.09c0-4.367 3.555-7.922 7.926-7.922H411.18c4.37 0 7.925 3.555 7.925 7.922v10.09c0 4.371-3.554 7.926-7.925 7.926H207.93c-11.2 0-20.313 9.113-20.313 20.309v43.925a7.961 7.961 0 0 1-7.922 7.93h-10.09zm244.41-57.117c2.758 0 5.09 2.328 5.09 5.086v32.582c0 2.758-2.332 5.086-5.09 5.086H202.669v-37.493a5.266 5.266 0 0 1 5.262-5.261zM80.083 213.625c19.93 0 31.621-7.34 38.605-11.727 4.575-2.87 4.754-2.984 8.247-2.984 3.492 0 3.671.113 8.25 2.984 6.98 4.387 18.671 11.727 38.601 11.727s31.617-7.34 38.61-11.727c4.57-2.87 4.75-2.984 8.242-2.984 3.496 0 3.672.113 8.25 2.988 6.984 4.383 18.672 11.723 38.605 11.723 19.93 0 31.621-7.34 38.606-11.727 4.574-2.87 4.754-2.984 8.246-2.984 3.496 0 3.676.113 8.25 2.984 11.472 7.204 22.816 12.02 39.605 11.72 17.133 7.878 36.988 11.339 56.867 9.093.852 17.066-12.77 31.14-29.57 31.14h-337.7c-16.327 0-29.609-13.28-29.609-29.609a29.56 29.56 0 0 1 13.965-25.137c5.02 1.036 16.97 14.52 43.93 14.52zM33.23 183.867c-9.074 0-15.617-8.84-12.875-17.558 6.114 3.558 13.157 5.504 20.582 5.504H315.5c3.566 5.914 6.934 10.304 10.684 14.71-3.895-2.085-7.54-2.656-11.84-2.656-7.824 0-10.996 1.992-16.25 5.29-6.332 3.976-15.004 9.425-30.602 9.425-15.601 0-24.27-5.45-30.605-9.426-5.254-3.297-8.422-5.289-16.25-5.289s-10.996 1.992-16.25 5.293c-6.332 3.973-15.004 9.422-30.602 9.422s-24.27-5.45-30.601-9.426c-5.254-3.3-8.422-5.289-16.25-5.289-7.825 0-10.996 1.992-16.25 5.29-6.332 3.976-15.004 9.425-30.602 9.425s-24.27-5.45-30.605-9.426c-5.957-3.742-8.985-5.289-16.247-5.289zm-14.886-65.27c53.273-95.433 202.105-131.16 314.879-79.062-31.825 30.281-41.543 76.797-25.239 117.23H40.937c-19.605 0-32.14-21.066-22.593-38.167zm0 0"/></svg>