<svg xmlns="http://www.w3.org/2000/svg" viewBox="0 0 460 460"><path d="M266.853 59.815C246.5 59.815 230 76.314 230 96.667c0-20.353-16.5-36.852-36.853-36.852H0v300.688l230 2.246 230-2.246V59.815H266.853z" fill="#abcb57"/><path d="M263.256 85.376c-18.367 0-33.256 14.889-33.256 33.256 0-18.367-14.889-33.256-33.256-33.256H22.443v244.116h174.301c18.367 0 33.256 14.89 33.256 33.257 0-18.367 14.889-33.257 33.256-33.257h174.301V85.376H263.256z" fill="#edeef0"/><path opacity=".4" fill="#5b5b5f" d="M60.184 118.118h74.524v10H60.184zM60.184 146.347h132.075v10H60.184zM60.184 174.577h132.075v10H60.184zM60.184 202.806h132.075v10H60.184zM60.184 231.036h132.075v10H60.184zM60.184 259.266h132.075v10H60.184zM60.184 287.495h132.075v10H60.184zM267.741 146.347h132.075v10H267.741zM267.741 118.118h132.075v10H267.741zM267.741 174.577h132.075v10H267.741zM267.741 202.806h132.075v10H267.741zM267.741 231.036h132.075v10H267.741zM267.741 259.266h132.075v10H267.741zM267.741 287.495h132.075v10H267.741z"/><path d="M266.852 59.815C246.5 59.815 230 76.314 230 96.667v266.082l230-2.246V59.815H266.852z" opacity=".3" fill="#5b5b5f"/><path fill="#b8554e" d="M357.506 400.185l-12.215-12.826-12.797 12.826V59.922h25.012z"/><path opacity=".3" fill="#5b5b5f" d="M357.506 400.185l-12.215-12.826V59.922h12.215z"/></svg>