<svg height="512pt" viewBox="0 -23 512 512" width="512pt" xmlns="http://www.w3.org/2000/svg"><path d="M431.188 20.402c42.578 36.086 13.882 135.496-61.618 223.27-30.605 35.586-64.539 63.629-96.902 81.992 9.3 22.856 15.418 45.164 13.707 62.5 62.133 2.336 124.703-22.543 168.21-73.125 75.505-87.777 65.028-219.691-23.397-294.637zm0 0" fill="#9e6b57"/><path d="M312.96 341.555c-2.937-11.13-7.026-22.555-12.14-34.078-9.437 6.816-18.86 12.914-28.156 18.187 9.305 22.856 15.422 45.164 13.707 62.5a212.879 212.879 0 0 0 31.836-1.203c.793-13.8-.93-29.043-5.246-45.406zm0 0" fill="#875848"/><path d="M431.188 20.402c-42.575-36.086-138.297 7.817-213.797 95.59-22.282 25.903-35.621 56.047-48.875 82.168 20.828 13.77 37.347 27.278 56.804 49.899 22.266 25.886 39.008 53.199 49.348 78.609 32.363-18.367 66.297-46.41 96.902-81.992 75.504-87.778 102.196-188.188 59.617-224.274zm0 0" fill="#875848"/><path d="M301.637 309.328c-11.836-27.226-29.477-55.043-51.438-80.762-20.5-24.007-43.394-44.582-66.715-60.191-5.285 10.195-10.136 20.258-14.968 29.785 20.828 13.77 37.347 27.278 56.804 49.899 22.266 25.886 39.008 53.199 49.348 78.605 8.902-5.05 17.93-10.863 26.969-17.336zm0 0" fill="#7a4c40"/><path d="M409.07 30.082c-38.172-32.355-123.988 5.215-191.68 83.91-22.535 26.195-40.21 53.645-52.37 79.809 20.445 13.687 41.214 32.066 60.3 54.258 16.489 19.168 29.946 39.12 40.024 58.5 30.031-16.403 61.761-42.25 90.277-75.403 67.691-78.695 91.625-168.719 53.45-201.074zm0 0" fill="#e4eaf8"/><path d="M292.14 289.684c-11.05-20.797-25.245-41.567-41.94-61.118-21.575-25.27-45.81-46.734-70.395-62.609-5.582 9.367-10.528 18.684-14.785 27.844 20.445 13.687 41.21 32.066 60.3 54.258 16.489 19.168 29.946 39.12 40.02 58.504 8.828-4.825 17.805-10.481 26.8-16.88zm0 0" fill="#d8dce5"/><path d="M373.422 56.203c-24.406-20.687-86.52 11.75-138.735 72.45-23.128 26.89-40.43 54.812-50.41 79.378 14.04 11.36 27.938 24.79 41.043 40.028a331.236 331.236 0 0 1 17.676 22.406c25.176-13.086 53.875-36.43 80.082-66.895 52.211-60.699 74.754-126.68 50.344-147.367zm0 0" fill="#d8dce5"/><path d="M269.758 253.61a361.956 361.956 0 0 0-19.559-25.044c-16.066-18.816-33.605-35.523-51.668-49.386-5.73 9.937-10.508 19.629-14.258 28.851 14.043 11.36 27.942 24.79 41.047 40.028a331.236 331.236 0 0 1 17.676 22.406c8.59-4.465 17.59-10.125 26.762-16.856zm0 0" fill="#c3c8d1"/><path d="M64.14 176.074c-32.503 27.758-9.124 101.985 48.52 169.492 57.645 67.512 127.723 102.743 160.23 74.989-67.511 57.64-168.968 49.644-226.613-17.867-57.644-67.512-49.644-168.97 17.864-226.614zm0 0" fill="#9e6b57"/><path d="M75.46 402.688C33.692 353.77 26.399 287.034 51.224 232.054c-4.563-24.27-.801-44.266 12.918-55.98-67.508 57.644-75.508 159.1-17.864 226.613 35.207 41.234 86.762 60.261 136.946 55.695-40.356-3.645-79.375-22.445-107.762-55.695zm0 0" fill="#875848"/><path d="M227.36 248.074c-57.641-67.512-130.72-99.742-163.223-71.988-32.508 27.754-12.133 104.98 45.508 172.492 57.636 67.512 130.714 99.738 163.222 71.988 32.508-27.753 12.133-104.98-45.508-172.492zm0 0" fill="#e4eaf8"/><path d="M139.672 348.57c-57.64-67.511-78.02-144.738-45.516-172.496 4.61-3.933 10.04-6.66 16.121-8.254-18.703-3.777-34.863-1.37-46.136 8.254-32.508 27.758-12.13 104.985 45.515 172.496 49.473 57.938 110.309 89.887 147.114 80.239-35.211-7.11-79.446-36.145-117.098-80.239zm0 0" fill="#d8dce5"/><path d="M214.152 259.348C171.945 209.914 121.734 183.492 102 200.34c-19.73 16.847-1.512 70.582 40.695 120.015 42.207 49.438 92.418 75.856 112.153 59.008 19.73-16.847 1.511-70.578-40.696-120.015zm0 0" fill="#d8dce5"/><path d="M172.727 320.348c-42.211-49.438-60.434-103.168-40.704-120.016a19.03 19.03 0 0 1 2.653-1.89c-13.785-4.653-25.332-4.376-32.668 1.89-19.73 16.848-1.508 70.578 40.703 120.016 40.434 47.359 88.215 73.586 109.508 60.894-23.297-7.867-52.973-29.836-79.492-60.894zm0 0" fill="#c3c8d1"/><path d="M458.426 60.355c23.242 31.567 36.672 69.266 38.574 109.618.195 4.14 3.715 7.343 7.852 7.14 4.14-.191 7.336-3.707 7.14-7.847-1.379-29.25-8.476-57.407-21.097-83.692-13.067-27.215-31.426-51.031-54.563-70.789-22.754-19.43-58.895-19.719-101.762-.812C265.38 44.484 199.043 115.14 163.207 182.336c-31.398-19.34-76.324-35.688-104.21-11.879a.679.679 0 0 1-.06.05c-103.07 88.087-64.335 254.833 64.774 290.15 3.992 1.085 8.125-1.262 9.219-5.262a7.506 7.506 0 0 0-5.258-9.22C27.14 418.68-17.29 300.044 40.934 213.095c-2.985 85.547 106.476 214.02 191.648 224.418-22.156 10.265-46.598 15.129-71.52 13.945a7.495 7.495 0 0 0-7.847 7.145 7.503 7.503 0 0 0 7.14 7.847c41.692 1.977 83.61-11.476 117.137-40.097 8.68-7.415 14.274-17.762 16.711-30.454 112.176.817 203.54-83.148 216.469-190.363a7.504 7.504 0 0 0-6.55-8.348c-4.11-.476-7.856 2.438-8.352 6.551-11.852 98.301-95.235 177.168-200.165 177.168.098-17.015-4.296-34.875-10.214-50.91 96.043-57.832 182.437-185.879 173.035-269.64zm-211.614 200.45c-14.73-19.735-32.351-38.79-51.378-54.918C234.614 116.227 339.867 36.918 369.242 62c30.254 25.832-37.086 149.82-122.43 198.805zm8.739 12.277c24.773-14.48 50.875-37.121 74.297-64.55C426.039 95.878 400.664 8.772 312.113 55.354c-50.27 26.446-103.777 86.426-128.765 140.829a269.955 269.955 0 0 0-6.586-4.84c30.004-61.336 90.05-126.844 151.62-153.996C443.548-13.438 449.06 111.23 350.739 226.37c-24.957 29.23-52.8 53.274-80.918 69.926a300.836 300.836 0 0 0-14.27-23.215zm-186.824-91.2c.007-.003.011-.007.015-.01.004 0 .004-.005.008-.009 49.469-42.215 192.293 79.832 210.145 180.606 9.824 55.773-23.622 73.886-75.438 51.039C102.407 368.949 23.551 220.5 68.727 181.883zM279.64 315.915a248.917 248.917 0 0 0-2.914-6.27C403.949 234.84 486.445 48.974 398.832 15.267c100.246 9.289 22.844 213.574-119.191 300.648zm0 0"/><path d="M259.469 385.148c12.035-10.277 13.851-30.132 5.11-55.906-26.06-76.84-128.974-167.61-167.716-134.527-12.035 10.277-13.851 30.129-5.113 55.902 26.133 77.055 129.066 167.528 167.719 134.531zm-152.86-179.02c13.938-11.901 59.29 8.642 101.579 58.169 42.167 49.387 55.734 97.312 41.535 109.437-13.871 11.844-59.141-8.464-101.578-58.168-42.446-49.71-55.403-97.601-41.536-109.437zm0 0"/></svg>