<svg height="496pt" viewBox="0 0 496.128 496" width="496pt" xmlns="http://www.w3.org/2000/svg"><path d="M480.559 106.543c4.882 14.32 7.441 29.602 7.441 45.52 0 19.761-4 38.562-11.2 55.68-12.32-9.759-27.84-15.68-44.8-15.68-39.762 0-72 32.242-72 72 0 10.722 2.398 20.882 6.64 30.082v.078a140.612 140.612 0 0 1-22.64 1.84c-8.48 0-16.8-.72-24.96-2.16v-.16c10.562-11.84 16.96-29.04 16.96-53.84 0-48.958-29.68-55.84-56-61.919v-73.921h-22.398c19.918-20.477 50.078-36.958 53.918-92.16v-.16c10.242-2.4 20.878-3.598 31.84-3.68-4.32 58.562-31.36 74.562-31.36 104 0 25.761 31.121 25.601 43.281 41.28 7.2 9.282 18.32 14.72 30.078 14.72 12.641 0 24.641-6.079 31.602-16.637 10.238-15.602 30.16-37.602 63.598-44.883zm0 0" fill="#69d6f4"/><g fill="#b4dd7f"><path d="M336 239.902c0 24.801-6.398 42-16.96 53.84v.16c-13.759-2.398-26.88-6.718-39.04-12.797v-103.12c26.32 6.077 56 12.96 56 61.917zm0 0M476.8 207.742c-18.878 45.203-60.241 78.64-110.16 86.48v-.077c-4.242-9.2-6.64-19.36-6.64-30.082 0-39.758 32.238-72 72-72 16.96 0 32.48 5.921 44.8 15.68zm0 0M344 8.063c63.602 0 117.602 41.28 136.559 98.48-33.438 7.281-53.36 29.281-63.598 44.883C410 161.984 398 168.063 385.359 168.063c-11.757 0-22.879-5.438-30.078-14.72-12.16-15.679-43.281-15.519-43.281-41.28 0-29.438 27.04-45.438 31.36-104zm0 0M311.52 11.742v.16c-3.84 55.203-34 71.684-53.918 92.16h-49.364c16.242-45.917 55.121-81.199 103.282-92.32zm0 0"/></g><path d="M480 376.063l-56 32v-64zm0 0" fill="#969faa"/><path d="M280 344.063h144v32H280zm0 0" fill="#fcd770"/><path d="M280 376.063h144v32H280zm0 0" fill="#b4dd7f"/><path d="M265.36 433.426c-5.758 5.84-9.36 13.84-9.36 22.636 0 17.68 14.32 32 32 32H40c-17.68 0-32-14.32-32-32 0-8.796 3.602-16.796 9.36-22.636 5.84-5.762 13.84-9.363 22.64-9.363h240l.238.96c-5.68 1.442-10.797 4.403-14.879 8.403zm0 0" fill="#ffeaa7"/><path d="M56 104.063v320H40c-8.8 0-16.8 3.601-22.64 9.363-5.758 5.84-9.36 13.84-9.36 22.637v-320c0-17.68 14.32-32 32-32zm0 0" fill="#ffc729"/><path d="M56 424.063v-320h224v320zm0 0" fill="#e6e9ed"/><path d="M88 136.063h160v128H88zm0 0" fill="#fcd770"/><path d="M32 448.063h16v16H32zm0 0M64 448.063h32v16H64zm0 0M112 448.063h120v16H112zm0 0M256 128.063H80v144h176zm-16 128H96v-112h144zm0 0M80 288.063h176v16H80zm0 0M80 320.063h176v16H80zm0 0M80 352.063h176v16H80zm0 0M80 384.063h176v16H80zm0 0"/><path d="M426.129 336.063H272v80H64V112.055l149.863-.032 1.89-5.335c14.368-40.618 46.903-71.239 86.52-84.047-5.273 34.254-22.296 49.84-38.859 64.886-3.156 2.871-6.184 5.688-9.094 8.528h-14.28v16H272v208h16v-26.703c17.77 7.082 36.535 10.71 56 10.71 83.816 0 152-68.183 152-152s-68.184-152-152-152c-.273 0-.543.036-.816.036h-7.254l-.028.277C276.801 3.527 224.52 40.902 202.664 96.023L40 96.063c-22.055 0-40 17.945-40 40v320c0 22.058 17.945 40 40 40h248v-16c-13.23 0-24-10.766-24-24 0-13.231 10.77-24 24-24v-16h138.129l70-40zM288 188.12c22.328 5.742 40 14.488 40 51.75 0 19.344-4.031 34.145-12.207 45.145-9.555-2.008-18.816-5.114-27.793-9.184zm45.266 99.336C340.39 274.703 344 258.77 344 239.871c0-51.062-30.64-62.055-56-68.223V96.063h-10.2c17.138-15.735 36.626-36.055 41.138-77.567 5.101-.96 10.269-1.68 15.519-2.055-3.227 26.063-11.21 42.278-18.379 56.68C309.602 86.137 304 97.383 304 112.063c0 20.945 15.762 28.824 28.426 35.16 6.703 3.343 13.031 6.511 16.504 11.015 8.62 11.16 22.238 17.825 36.437 17.825 15.617 0 29.914-7.567 38.25-20.254 9.192-13.993 25.488-31.496 51.48-39.418C478.2 127.785 480 139.703 480 152.063c0 15.144-2.594 29.671-7.184 43.296-12.32-7.382-26.222-11.296-40.816-11.296-44.113 0-80 35.89-80 80 0 7.992 1.273 15.816 3.625 23.41-3.84.328-7.703.59-11.625.59-3.617 0-7.168-.329-10.734-.606zm38.421-2.242c-2.421-6.832-3.687-13.918-3.687-21.152 0-35.286 28.71-64 64-64 12.48 0 24.266 3.73 34.61 10.464-18.075 37.739-52.915 65.961-94.923 74.688zm98.36-184c-30.27 9.32-49.152 29.594-59.8 45.8-5.376 8.176-14.673 13.048-24.88 13.048-9.27 0-18.16-4.336-23.773-11.606-5.715-7.394-14-11.535-22.02-15.547C327.07 126.656 320 122.61 320 112.063c0-10.918 4.594-20.141 10.398-31.817 7.555-15.168 16.73-33.894 20.13-63.855 54.175 2.593 100.113 36.898 119.519 84.824zM432 357.848l31.871 18.215L432 394.28zm-16-5.785v16H288v-16zm-376-240h8v304h-8c-9.04 0-17.297 3.128-24 8.21v-288.21c0-13.231 10.77-24 24-24zm216.207 368H40c-13.23 0-24-10.766-24-24 0-13.231 10.77-24 24-24h216.207c-5.078 6.707-8.207 14.96-8.207 24 0 9.042 3.129 17.296 8.207 24zm31.793-96h128v16H288zm0 0"/><path d="M344 96.063h16v16h-16zm0 0M368 64.063h16v16h-16zm0 0M384 120.063h16v16h-16zm0 0M416 72.063h16v16h-16zm0 0M392 240.063h16v16h-16zm0 0M424 216.063h16v16h-16zm0 0"/></svg>