<svg xmlns="http://www.w3.org/2000/svg" viewBox="0 0 460 460"><path d="M412.557 287.245l.125-112.286-10-.011-.125 112.285c-6.039 2.072-10.386 7.786-10.386 14.527 0 8.488 6.881 15.369 15.369 15.369s15.369-6.881 15.369-15.369c.001-6.729-4.331-12.433-10.352-14.515z" fill="#c8523b"/><path d="M460 162.909L230 67.567 0 162.909l122.978 50.978v134.908c0 24.101 47.915 43.638 107.022 43.638s107.022-19.538 107.022-43.638V213.887L460 162.909z" fill="#59595a"/><path opacity=".3" fill="#211915" d="M337.022 213.887L230 258.249l-107.022-44.362v21.649l99.363 41.189 7.659 3.174 7.659-3.174 99.363-41.189z"/></svg>