<svg height="496pt" viewBox="0 0 496 496" width="496pt" xmlns="http://www.w3.org/2000/svg"><path d="M488 424v32c0 17.68-14.32 32-32 32H248c-17.68 0-32-14.32-32-32v-32zm0 0M488 40v32H216V40c0-17.68 14.32-32 32-32h208c17.68 0 32 14.32 32 32zm0 0" fill="#838f9b"/><path d="M488 72v352H216v-64h32v32h208V104H248v32h-32V72zm0 0" fill="#4fc1e9"/><path d="M248 104v32h32v224h-32v32h208V104zm0 0" fill="#e6e9ed"/><path d="M280 136v224H8V136zm0 0" fill="#ccd1d9"/><path d="M184 296H40c0-14.238 9.441-26.719 23.04-30.559L96 256v-12.398C86.48 238 80 227.84 80 216v-16c0-18.64 15.922-33.52 34.879-31.84 16.8 1.442 29.121 16.64 29.121 33.52V216c0 11.84-6.48 22-16 27.602V256l32.96 9.441c6.802 1.918 12.56 6 16.642 11.36 4 5.437 6.398 12.078 6.398 19.199zm0 0" fill="#b4dd7f"/><path d="M352 176c39.762 0 72 32.238 72 72s-32.238 72-72 72-72-32.238-72-72 32.238-72 72-72zm0 0" fill="#ffeaa7"/><path d="M376 248l-48 24v-48zm0 0" fill="#ff826e"/><path d="M320 32h64v16h-64zm0 0M400 32h16v16h-16zm0 0M288 32h16v16h-16zm0 0M328 448h48v16h-48zm0 0"/><path d="M456 0H248c-22.055 0-40 17.945-40 40v88H0v240h192v-16H16V144h256v208h-64v104c0 22.055 17.945 40 40 40h208c22.055 0 40-17.945 40-40V40c0-22.055-17.945-40-40-40zM248 16h208c13.23 0 24 10.77 24 24v24H224V40c0-13.23 10.77-24 24-24zm40 352v-72.207C302.602 315.297 325.816 328 352 328c44.113 0 80-35.887 80-80s-35.887-80-80-80c-26.184 0-49.398 12.703-64 32.207V128h-32v-16h192v272H256v-16zm0-120c0-35.29 28.71-64 64-64s64 28.71 64 64-28.71 64-64 64-64-28.71-64-64zm-48 120v32h224V96H240v32h-16V80h256v336H224v-48zm216 112H248c-13.23 0-24-10.77-24-24v-24h256v24c0 13.23-10.77 24-24 24zm0 0"/><path d="M320 211.055v73.89L393.887 248zm16 25.89L358.113 248 336 259.055zm0 0M163.121 257.71L136 249.97v-2.137c9.969-7.512 16-19.328 16-31.832v-14.344c0-21.496-16.008-39.726-36.45-41.504-11.19-.976-22.343 2.809-30.573 10.352A40.127 40.127 0 0 0 72 200v16c0 12.504 6.031 24.32 16 31.832v2.137l-27.121 7.742C43.87 262.574 32 278.32 32 296v8h160v-8c0-17.68-11.871-33.426-28.879-38.29zM49.398 288c2.547-7.078 8.38-12.762 15.883-14.895L104 262.031v-23.07l-3.977-2.313C92.496 232.266 88 224.543 88 216v-16c0-6.71 2.84-13.16 7.793-17.695 5.008-4.602 11.504-6.817 18.383-6.207C126.406 177.16 136 188.383 136 201.656V216c0 8.543-4.496 16.266-12.023 20.648L120 238.961v23.07l38.719 11.074c7.504 2.141 13.336 7.825 15.883 14.895zm0 0M32 320h16v16H32zm0 0M64 320h128v16H64zm0 0M184 160h72v16h-72zm0 0M184 192h72v16h-72zm0 0M184 224h72v16h-72zm0 0M208 256h48v16h-48zm0 0"/></svg>