<svg height="496pt" viewBox="0 0 496 496" width="496pt" xmlns="http://www.w3.org/2000/svg"><path d="M262.398 411.2C268.48 419.28 277.922 424 288 424h168V200h32v240c0 8.8-7.2 16-16 16H280c0 8.8-3.602 16.8-9.36 22.64C264.8 484.399 256.8 488 248 488s-16.8-3.602-22.64-9.36C219.601 472.8 216 464.8 216 456H24c-8.8 0-16-7.2-16-16V200h32v224h168c10.078 0 19.52-4.719 25.602-12.8L248 392zm0 0" fill="#b4dd7f"/><path d="M296 136c-26.48 0-48 21.52-48 48v208l14.398 19.2C268.48 419.28 277.922 424 288 424h168V136zm0 0" fill="#e6e9ed"/><path d="M424 168v112H280V168zm0 0" fill="#fcd770"/><path d="M376 224l-48 24v-48zm0 0" fill="#ff826e"/><path d="M200 136h-64v80l-32 48-32-48v-80H40v288h168c10.078 0 19.52-4.719 25.602-12.8L248 392V184c0-26.48-21.52-48-48-48zm0 0" fill="#e6e9ed"/><path d="M136 216l-32 48-32-48zm0 0" fill="#838f9b"/><path d="M136 136v80h-32V40h32zm0 0" fill="#ffc729"/><path d="M104 40v176H72V40zm0 0" fill="#fcd770"/><path d="M136 24v16H72V24c0-8.8 7.2-16 16-16h32c8.8 0 16 7.2 16 16zm0 0" fill="#969faa"/><path d="M464 192v-64H296c-20.344 0-38.191 10.902-48 27.176C238.191 138.902 220.344 128 200 128h-56V24c0-13.23-10.77-24-24-24H88C74.77 0 64 10.77 64 24v104H32v64H0v248c0 13.23 10.77 24 24 24h184.809c3.718 18.23 19.87 32 39.191 32s35.48-13.77 39.191-32H472c13.23 0 24-10.77 24-24V192zm-208-8c0-22.055 17.945-40 40-40h152v272H288c-7.512 0-14.688-3.586-19.2-9.594l-12.8-17.07zM80 208V48h16v160zm41.055 16L104 249.574 86.945 224zM128 208h-16V48h16zM88 16h32c4.414 0 8 3.586 8 8v8H80v-8c0-4.414 3.586-8 8-8zM48 144h16v74.426l40 60 40-60V144h56c22.055 0 40 17.945 40 40v205.336l-12.8 17.062C222.687 412.414 215.511 416 208 416H48zm432 296c0 4.414-3.586 8-8 8H272v8c0 13.23-10.77 24-24 24s-24-10.77-24-24v-8H24c-4.414 0-8-3.586-8-8V208h16v224h176c12.512 0 24.488-5.977 32-16l8-10.664 8 10.672C263.512 426.023 275.488 432 288 432h176V208h16zm0 0"/><path d="M432 160H272v128h160zm-16 112H288v-96h128zm0 0"/><path d="M320 187.055v73.89L393.887 224zm16 25.89L358.113 224 336 235.055zm0 0M272 304h160v16H272zm0 0M272 336h128v16H272zm0 0M416 336h16v16h-16zm0 0M64 288h160v16H64zm0 0M64 320h160v16H64zm0 0M208 352h16v16h-16zm0 0M64 352h128v16H64zm0 0M160 256h64v16h-64zm0 0M160 224h64v16h-64zm0 0M160 192h64v16h-64zm0 0M160 160h64v16h-64zm0 0"/></svg>