<svg height="496pt" viewBox="0 0 496 496" width="496pt" xmlns="http://www.w3.org/2000/svg"><path d="M415.602 200H488c0 86.48-57.281 159.68-136 183.68V368c0-22.078-17.922-40-40-40-13.281 0-24-10.719-24-24s10.719-24 24-24h88c13.281 0 24-10.719 24-24s-10.719-24-24-24h-11.762C363.84 232 344 212.16 344 187.762c0-7.684-2-15.282-5.84-22l-20.398-35.684C314.16 123.84 307.602 120 300.398 120H300c-11.04 0-20 8.96-20 20s-8.96 20-20 20a43.972 43.972 0 0 0-44 44c0 17.04-9.922 32.64-25.36 39.84l-38.64 18v-12.48c0-16.72-12.238-31.598-28.879-33.2-6.562-.64-12.723.719-18.082 3.52C104.32 213.2 104 206.64 104 200c0-7.52.398-15.04 1.36-22.32 7.12 4 15.44 6.32 24.242 6.32H156c15.441 0 28-12.559 28-28s12.559-28 28-28h8c15.441 0 28-12.559 28-28v-7.84c0-12 7.68-22.719 19.121-26.558 17.277-5.762 28.879-21.84 28.879-40 0-6.16-1.2-12.082-3.2-17.524C293.84 8 294.96 8 296 8c18 0 35.441 2.48 52 7.2-12.32 13.12-20 30.8-20 50.32s7.762 38.242 21.52 52l14.878 14.878a39.608 39.608 0 0 1 11.602 28c0 21.84 17.762 39.602 39.602 39.602zm0 0" fill="#69d6f4"/><g fill="#b4dd7f"><path d="M400 232c13.281 0 24 10.719 24 24s-10.719 24-24 24h-88c-13.281 0-24 10.719-24 24s10.719 24 24 24c22.078 0 40 17.922 40 40v15.68c-17.68 5.441-36.48 8.32-56 8.32-39.68 0-76.559-12-107.121-32.64C194.8 350 205.602 344 217.359 344H232v-64c0-8.8-7.2-16-16-16h-64v-2.16l38.64-18c15.438-7.2 25.36-22.8 25.36-39.84a43.972 43.972 0 0 1 44-44c11.04 0 20-8.96 20-20s8.96-20 20-20h.398c7.204 0 13.762 3.84 17.364 10.078l20.398 35.684a44.366 44.366 0 0 1 5.84 22C344 212.16 363.84 232 388.238 232zm0 0M488 200h-72.398C393.762 200 376 182.238 376 160.398a39.608 39.608 0 0 0-11.602-28L349.52 117.52c-13.758-13.758-21.52-32.48-21.52-52s7.68-37.2 20-50.32C428.8 37.84 488 112 488 200zm0 0M292.8 8.078c2 5.442 3.2 11.363 3.2 17.524 0 18.16-11.602 34.238-28.879 40C255.68 69.442 248 80.16 248 92.16V100c0 15.441-12.559 28-28 28h-8c-15.441 0-28 12.559-28 28s-12.559 28-28 28h-26.398c-8.801 0-17.122-2.32-24.243-6.32C116.24 83.2 195.762 9.602 292.801 8.078zm0 0"/></g><path d="M188.879 359.36c-2.559 4-4.238 8.562-4.719 13.519C182.32 391.922 197.281 408 216 408h16v64c0 8.8-7.2 16-16 16H24c-8.8 0-16-7.2-16-16v-64h16c18.719 0 33.68-16.078 31.84-35.121C54.238 356.239 39.36 344 22.64 344H8v-64c0-8.8 7.2-16 16-16h64v-16c0-12.32 6.879-22.96 17.04-28.32 5.358-2.801 11.519-4.16 18.081-3.52 16.64 1.602 28.879 16.48 28.879 33.2V264h64c8.8 0 16 7.2 16 16v64h-14.64c-11.758 0-22.56 6-28.481 15.36zm0 0" fill="#fcd770"/><path d="M152 376c0 17.672-14.328 32-32 32s-32-14.328-32-32 14.328-32 32-32 32 14.328 32 32zm0 0" fill="#ffc729"/><path d="M128 336.809V304h-16v32.809c-18.23 3.718-32 19.87-32 39.191s13.77 35.473 32 39.191V448h16v-32.809c18.23-3.718 32-19.87 32-39.191s-13.77-35.473-32-39.191zM120 400c-13.23 0-24-10.77-24-24s10.77-24 24-24 24 10.77 24 24-10.77 24-24 24zm0 0"/><path d="M296 0C185.719 0 96 89.719 96 200c0 5.281.273 10.55.68 15.777-1.2.864-2.473 1.614-3.575 2.614A40.099 40.099 0 0 0 80 248v8H24c-13.23 0-24 10.77-24 24v72h22.625c13.008 0 24.11 9.496 25.262 21.617.656 6.88-1.52 13.461-6.125 18.52A24.024 24.024 0 0 1 24 400H0v72c0 13.23 10.77 24 24 24h192c13.23 0 24-10.77 24-24v-72h-24a24.075 24.075 0 0 1-17.77-7.855c-4.597-5.067-6.78-11.641-6.125-18.52.079-.863.32-1.68.504-2.52C223.762 389.97 259.266 400 296 400c110.281 0 200-89.719 200-200S406.281 0 296 0zm183.8 192h-64.198C398.176 192 384 177.824 384 160.398c0-12.71-4.953-24.664-13.945-33.656l-14.856-14.855C342.824 99.504 336 83.047 336 65.535c0-15.094 5.23-29.535 14.742-41.222C423.122 46.91 476.398 113.097 479.801 192zM286.77 16.23c.726 3.09 1.23 6.211 1.23 9.356a34.162 34.162 0 0 1-23.383 32.445A35.942 35.942 0 0 0 240 92.176V100c0 11.031-8.969 20-20 20h-8c-19.848 0-36 16.152-36 36 0 11.031-8.969 20-20 20h-26.414A41.562 41.562 0 0 1 114 172.953C126.688 87.246 198.656 20.61 286.77 16.23zM216 416h8v56c0 4.414-3.586 8-8 8H24c-4.414 0-8-3.586-8-8v-56h8a40.099 40.099 0 0 0 29.61-13.105c7.55-8.31 11.277-19.536 10.199-30.797C61.879 351.855 43.8 336 22.625 336H16v-56c0-4.414 3.586-8 8-8h72v-24a24.075 24.075 0 0 1 7.855-17.77c5.067-4.597 11.61-6.734 18.52-6.125 12.129 1.16 21.625 12.262 21.625 25.27V272h72c4.414 0 8 3.586 8 8v56h-6.625c-21.168 0-39.254 15.855-41.184 36.105-1.078 11.254 2.649 22.489 10.2 30.797A40.12 40.12 0 0 0 216 416zm-14.793-58.39c4.434-3.465 10.066-5.61 16.168-5.61H240v-72c0-13.23-10.77-24-24-24h-32.512L194 251.098c18.223-8.504 30-27 30-47.114 0-19.84 16.152-35.984 36-35.984 15.441 0 28-12.559 28-28 0-6.617 5.383-12 12.39-12 4.298 0 8.29 2.32 10.426 6.047l20.414 35.723a36.32 36.32 0 0 1 4.77 17.984C336 216.559 359.441 240 388.246 240H400c8.824 0 16 7.176 16 16s-7.176 16-16 16h-88c-17.648 0-32 14.352-32 32s14.352 32 32 32 32 14.352 32 32v9.61a183.423 183.423 0 0 1-48 6.39c-33.672 0-66.215-9.16-94.793-26.39zM360 372.503V368c0-26.473-21.527-48-48-48-8.824 0-16-7.176-16-16s7.176-16 16-16h88c17.648 0 32-14.352 32-32s-14.352-32-32-32h-11.754C368.258 224 352 207.742 352 187.754a52.385 52.385 0 0 0-6.879-25.922l-20.418-35.719C319.734 117.406 310.414 112 300 112c-15.441 0-28 12.559-28 28 0 6.617-5.39 12-12.016 12C231.32 152 208 175.32 208 203.984c0 13.918-8.152 26.72-20.77 32.61l-27.238 12.71c-.031-21.144-15.87-39.19-36.097-41.12-3.942-.383-7.848.023-11.672.793A185.789 185.789 0 0 1 112 200c0-3.617.137-7.207.344-10.77 5.566 1.754 11.367 2.77 17.242 2.77H156c19.848 0 36-16.152 36-36 0-11.031 8.969-20 20-20h8c19.848 0 36-16.152 36-36v-7.824a19.995 19.995 0 0 1 13.68-18.977A50.117 50.117 0 0 0 304 25.586c0-3.16-.297-6.297-.824-9.402 10.543.41 20.87 1.687 30.886 3.8C324.97 33.391 320 49.152 320 65.535c0 21.785 8.488 42.258 23.879 57.656l14.855 14.856c5.977 5.976 9.266 13.914 9.266 22.351 0 26.25 21.352 47.602 47.602 47.602h64.191C476.551 283.496 427.617 347.336 360 372.504zm0 0"/></svg>