<svg height="496pt" viewBox="0 0 496 496" width="496pt" xmlns="http://www.w3.org/2000/svg"><path d="M472 104v32H344v-32zm0 0M184 8h160v32H184zm0 0" fill="#969faa"/><path d="M472 136H328v128h80l48 96h-16v48h48V136zm0 0" fill="#e6e9ed"/><path d="M360 40v64h-16v32h-16v128h-35.2L248 208l-44.8 56H200V152h-16v-32h-16V40zm0 0" fill="#aab2bd"/><path d="M200 152v112H88l-48 96h16v80H8V152zm0 0" fill="#e6e9ed"/><path d="M424 232h32v32h-32zm0 0M424 168h32v32h-32zm0 0" fill="#ffeaa7"/><path d="M408 264l48 96H328v-32h16l-51.2-64zm0 0" fill="#fc6e51"/><path d="M440 408v80H328V360h112zm0 0" fill="#969faa"/><path d="M360 392h48v64h-48zm0 0" fill="#fcd770"/><path d="M360 232h32v32h-32zm0 0M360 168h32v32h-32zm0 0" fill="#ffeaa7"/><path d="M292.8 264l51.2 64H152l51.2-64 44.8-56zm0 0" fill="#ff826e"/><path d="M328 360v128h-32V376h-96v112h-32V328h160zm0 0" fill="#e6e9ed"/><path d="M296 376v112l-32-24v-64zm0 0" fill="#cf9e76"/><path d="M232 136h64v32h-64zm0 0M232 72h64v32h-64zm0 0" fill="#ffeaa7"/><path d="M296 376l-32 24v64l32 24h-96l32-24v-64l-32-24zm0 0" fill="#aab2bd"/><path d="M232 400v64l-32 24V376zm0 0" fill="#cf9e76"/><path d="M203.2 264L152 328h16v32H40l48-96zm0 0" fill="#fc6e51"/><path d="M184 120v32H24v-32zm0 0M168 360v128H56V360zm0 0" fill="#969faa"/><path d="M136 184h32v48h-32zm0 0" fill="#ffeaa7"/><path d="M88 392h48v64H88zm0 0" fill="#fcd770"/><g fill="#ffeaa7"><path d="M104 184h32v48h-32zm0 0M72 184h32v48H72zm0 0M88 264l-24 48H40v-48zm0 0M40 184h32v48H40zm0 0"/></g><path d="M480 480h16v16h-16zm0 0M0 480h16v16H0zm0 0M480 128V96H368V32h-16V0H176v32h-16v80H16v32H0v304h48v32H32v16h432v-16h-16v-64h48V128zm-16 0H352v-16h112zM192 16h144v16H192zm-16 32h176v48h-16v32h-16v128h-23.352L248 195.191l-40 50V144h-16v-32h-16zm208 208h-16v-16h16zm16 16h3.055l40 80H336v-16h24.648l-51.199-64zM224 404v56l-16 12v-80zm16 64v-72l-16-12h48l-16 12v72l16 12h-48zm48-76v80l-16-12v-56zm-96-24v112h-16V336h144v144h-16V368zM52.945 352l40-80h93.606l-51.2 64H160v16zm6.11-48H48v-32h27.055zm109.593 16L248 220.809 327.352 320zM32 128h144v16H32zM16 432V160h176v96H32v64h19.055l-24 48H48v64zm48-64h96v112H64zm272 112V368h96v112zm144-80h-32v-32h20.945l-48-96H464v-48h-48v38.113L412.945 256H400v-32h-48v32h-16V144h144zm-48-144v-16h16v16zm0 0"/><path d="M352 384v80h64v-80zm48 64h-32v-48h32zm0 0M80 384v80h64v-80zm48 64H96v-48h32zm0 0M176 176H32v64h144zm-64 16h16v32h-16zm-16 32H80v-32h16zm-48-32h16v32H48zm112 32h-16v-32h16zm0 0M400 160h-48v48h48zm-16 32h-16v-16h16zm0 0M464 160h-48v48h48zm-16 32h-16v-16h16zm0 0M304 64h-80v48h80zm-16 32h-48V80h48zm0 0M304 128h-80v48h80zm-16 32h-48v-16h48zm0 0"/></svg>