<svg height="496pt" viewBox="0 0 496 496" width="496pt" xmlns="http://www.w3.org/2000/svg"><path d="M488 248v208c0 17.68-14.32 32-32 32h-32V216h32c17.68 0 32 14.32 32 32zm0 0M72 216v272H40c-17.68 0-32-14.32-32-32V248c0-17.68 14.32-32 32-32zm0 0" fill="#838f9b"/><path d="M424 216v272H72V216h64v32h-32v208h288V248h-32v-32zm0 0" fill="#69d6f4"/><path d="M392 248v208H104V248h32v48c0 17.68 14.32 32 32 32h88v16l24-16 24 16v-16h64c-8.8 0-16.8-3.602-22.64-9.36C339.601 312.8 336 304.8 336 296c0-14.96 10.32-27.602 24.238-31.04L360 264v-16zm0 0" fill="#e6e9ed"/><path d="M304 328v16l-24-16-24 16v-80h48zm0 0" fill="#ff826e"/><path d="M304 264h56l.238.96C346.32 268.399 336 281.04 336 296c0 8.8 3.602 16.8 9.36 22.64C351.2 324.399 359.2 328 368 328h-64zm0 0M256 264v64h-88c-17.68 0-32-14.32-32-32 0-8.8 3.602-16.8 9.36-22.64C151.2 267.601 159.2 264 168 264zm0 0" fill="#ccd1d9"/><path d="M136 248V40c0-17.68 14.32-32 32-32h16v256h-16c-8.8 0-16.8 3.602-22.64 9.36C139.601 279.2 136 287.2 136 296zm0 0" fill="#cf9e76"/><path d="M184 264V8h176v256zm0 0" fill="#e6e9ed"/><path d="M328 96c0 30.93-25.07 56-56 56s-56-25.07-56-56 25.07-56 56-56 56 25.07 56 56zm0 0" fill="#b4dd7f"/><path d="M456 208h-88V0H168c-22.055 0-40 17.945-40 40v152h16V40c0-13.23 10.77-24 24-24h8v240h-8c-9.04 0-17.297 3.129-24 8.207V208H40c-22.055 0-40 17.945-40 40v208c0 22.055 17.945 40 40 40h416c22.055 0 40-17.945 40-40V248c0-22.055-17.945-40-40-40zm-328 88c0 22.055 17.945 40 40 40h80v22.945l32-21.328 32 21.328V336h56v-16c-13.23 0-24-10.77-24-24s10.77-24 24-24v-16h16v192H112V256h16zm168-24v57.055l-16-10.672-16 10.672V272zm40.016 48H312v-48h24.207c-5.078 6.703-8.207 14.96-8.207 24 0 9 2.992 17.313 8.016 24zM192 16h160v240H192zm-24 256h80v48h-80c-13.23 0-24-10.77-24-24s10.77-24 24-24zm-40-32H96v224h304V240h-32v-16h48v256H80V224h48zM16 456V248c0-13.23 10.77-24 24-24h24v256H40c-13.23 0-24-10.77-24-24zm464 0c0 13.23-10.77 24-24 24h-24V224h24c13.23 0 24 10.77 24 24zm0 0"/><path d="M448 320h16v64h-16zm0 0M448 400h16v16h-16zm0 0M448 288h16v16h-16zm0 0M32 328h16v48H32zm0 0M272 32c-35.29 0-64 28.71-64 64s28.71 64 64 64 64-28.71 64-64-28.71-64-64-64zm0 112c-26.473 0-48-21.527-48-48s21.527-48 48-48 48 21.527 48 48-21.527 48-48 48zm0 0M208 176h128v16H208zm0 0M208 208h96v16h-96zm0 0M320 208h16v16h-16zm0 0"/></svg>