<svg height="512pt" viewBox="0 0 512 512" width="512pt" xmlns="http://www.w3.org/2000/svg"><path d="M106.52 58.48L53.293 91.332 33.266 56.801a30.963 30.963 0 0 1-4.207-15.59c0-10.79 5.62-21.281 15.668-27.05 14.949-8.59 34.07-3.493 42.703 11.41zm0 0" fill="#595959"/><path d="M154.934 141.941l-53.235 32.832-43.316-74.671-5.09-8.77L106.52 58.48zm0 0" fill="#ffea77"/><path d="M501.98 444.059c0 32-26.02 57.941-58.113 57.941H327.02c-21.993 0-42.305-11.68-53.313-30.66L101.699 174.773l53.235-32.832 151.504 261.207c7.335 12.649 20.882 20.442 35.539 20.442h139.472c5.672 0 10.801 2.289 14.52 5.988 3.719 3.711 6.011 8.82 6.011 14.48zm0 0" fill="#595959"/><path d="M405.48 58.48l53.227 32.852 20.027-34.531a30.963 30.963 0 0 0 4.207-15.59c0-10.79-5.62-21.281-15.668-27.05-14.949-8.59-34.066-3.493-42.703 11.41zm0 0" fill="#757679"/><path d="M357.066 141.941l53.235 32.832 43.316-74.671 5.09-8.77L405.48 58.48zm0 0" fill="#ffea77"/><path d="M10.02 444.059c0 32 26.02 57.941 58.113 57.941H184.98c21.993 0 42.305-11.68 53.317-30.66L410.3 174.773l-53.235-32.832-151.503 261.207c-7.336 12.649-20.883 20.442-35.54 20.442H30.551c-5.672 0-10.801 2.289-14.52 5.988-3.718 3.711-6.011 8.82-6.011 14.48zm0 0" fill="#757679"/><path d="M503.043 422.5c-5.77-5.75-13.438-8.91-21.59-8.91H341.977c-11.051 0-21.34-5.922-26.872-15.453l-11.39-19.64L418.969 179.78l48.406-83.441 20.027-34.531a41.08 41.08 0 0 0 5.563-20.602c0-14.7-7.926-28.39-20.692-35.719-19.707-11.32-44.996-4.562-56.37 15.07l-19.087 32.91-48.418 83.462L256 296.234 163.602 136.93l-48.418-83.461-19.075-32.91C84.727.926 59.437-5.832 39.727 5.489 26.965 12.82 19.039 26.507 19.039 41.21c0 7.207 1.922 14.34 5.559 20.598l20.03 34.53 48.403 83.442 115.246 198.707-11.39 19.649c-5.524 9.531-15.813 15.453-26.864 15.453H30.551c-8.156 0-15.82 3.16-21.602 8.918C3.176 428.27 0 435.918 0 444.058 0 481.52 30.559 512 68.133 512H184.98c25.48 0 49.227-13.66 61.98-35.652L256 460.77l9.04 15.578C277.792 498.34 301.54 512 327.02 512h116.847C481.441 512 512 481.52 512 444.059c0-8.141-3.176-15.79-8.957-21.559zM433.246 30.578c5.852-10.11 18.879-13.578 29.027-7.75a21.232 21.232 0 0 1 10.653 18.379c0 3.703-.992 7.363-2.86 10.582L455.2 77.41l-36.172-22.332zM408.988 72.41v-.012L445.16 94.73l-38.363 66.122-36.184-22.309zM41.934 51.79a21.118 21.118 0 0 1-2.856-10.58A21.235 21.235 0 0 1 60.316 20c7.348 0 14.512 3.8 18.45 10.578l14.207 24.504L56.8 77.41zm25.117 43.3l-.211-.36 36.172-22.332v.012l38.375 66.133-36.18 22.309zm48.195 83.082l36.18-22.309 92.992 160.32-24.559 42.352zm129.18 262.637l-14.797 25.52C220.44 482.16 203.329 492 184.98 492H68.133c-16.16 0-30.488-7.988-39.215-20.21h74.352c5.53 0 10.023-4.481 10.023-10 0-5.532-4.492-10-10.023-10H20.66a48.085 48.085 0 0 1-.62-7.731c0-2.801 1.093-5.43 3.065-7.399a10.501 10.501 0 0 1 7.446-3.07h139.472c18.176 0 35.118-9.742 44.204-25.43l5.632-9.71 11.575-19.954L256 336.145l11.574-19.95 93-160.332 36.184 22.309L292.14 358.547l-11.575 19.96L256 420.86zM443.867 492H327.02c-18.348 0-35.461-9.84-44.649-25.672l-14.797-25.52 24.567-42.351 5.62 9.7c9.098 15.69 26.044 25.433 44.216 25.433h139.472c2.805 0 5.453 1.09 7.438 3.058a10.394 10.394 0 0 1 3.074 7.41c0 26.43-21.57 47.942-48.094 47.942zm0 0"/><path d="M138.36 471.785c-5.532 0-10.024-4.476-10.024-10 0-5.523 4.48-10 10.016-10h.007c5.536 0 10.02 4.477 10.02 10 0 5.524-4.484 10-10.02 10zm0 0"/></svg>