<svg height="512pt" viewBox="-61 0 512 512" width="512pt" xmlns="http://www.w3.org/2000/svg"><path d="M129.66 10H380v360.762H129.66zm0 0" fill="#ea4253"/><path d="M281.023 257.453c-16.523 0-30.043 13.531-30.043 30.067v83.144H130.16V83.054c0-16.534-13.515-30.062-30.039-30.062-16.523 0-30.043 13.528-30.043 30.063v108.289c0-16.535-13.516-30.063-30.039-30.063C23.52 161.281 10 174.81 10 191.344v193.41c0 16.601 13.45 30.062 30.04 30.062h10.343v40.082h220.3v-40.082h10.34c16.594 0 30.043-13.46 30.043-30.066v-97.23c-.004-16.536-13.52-30.067-30.043-30.067zm0 0" fill="#ffe7b3"/><path d="M50.383 454.898H270.68V502H50.383zm0 0" fill="#0579bb"/><path d="M380 0H129.66c-5.52 0-10 4.48-10 10v38.09a39.757 39.757 0 0 0-19.539-5.102c-22.082 0-40.043 17.98-40.043 40.07v73.614a39.685 39.685 0 0 0-20.039-5.39C17.961 151.281 0 169.25 0 191.34v193.41c0 22.09 17.96 40.07 40.04 40.07h.339V502c0 5.52 4.48 10 10 10h220.3c5.52 0 10-4.48 10-10v-77.18h.34c22.083 0 40.04-17.98 40.04-40.07v-3.988H380c5.52 0 10-4.473 10-10V10c0-5.52-4.48-10-10-10zM260.68 492H60.379v-27.102h200.3zm40.379-107.25c0 11.07-8.989 20.07-20.04 20.07h-10.34c-5.519 0-10 4.47-10 10v30.078H60.38V414.82a9.99 9.99 0 0 0-10-10h-10.34c-11.05 0-20.039-9-20.039-20.07V191.34c0-11.059 8.988-20.059 20.04-20.059 11.05 0 20.038 9 20.038 20.059v106.93c0 5.52 4.48 10 10 10 5.524 0 10-4.48 10-10V83.059c0-11.07 8.992-20.07 20.043-20.07 9.527 0 17.52 6.69 19.54 15.632.327 1.418.5 2.91.5 4.438v287.613c0 5.52 4.48 10 10 10h120.82c5.53 0 10-4.48 10-10V287.52c0-11.06 8.988-20.06 20.039-20.06s20.039 9 20.039 20.06zM370 360.762h-48.941V287.52c0-22.09-17.957-40.06-40.04-40.06-22.078 0-40.039 17.97-40.039 40.06v73.152H140.16V83.059c0-2.149-.172-4.258-.5-6.32V20H370zm0 0"/><path d="M321.988 213.379c3.903 3.902 3.903 10.242-.008 14.14-1.949 1.95-4.511 2.93-7.07 2.93s-5.12-.98-7.07-2.937l-53.012-53.051-53.008 53.05c-1.949 1.958-4.511 2.938-7.07 2.938s-5.121-.98-7.07-2.93c-3.91-3.898-3.91-10.238 0-14.14l53.02-53.059-53.02-53.058c-3.91-3.91-3.91-10.242 0-14.14 3.91-3.911 10.242-3.903 14.14 0l53.008 53.05 53.012-53.05c3.898-3.903 10.23-3.911 14.14 0 3.91 3.898 3.91 10.23.008 14.14l-53.02 53.058zm0 0M70.113 347.871c-5.52 0-10.004-4.476-10.004-10 0-5.523 4.473-10 9.996-10h.008c5.524 0 10 4.477 10 10 0 5.524-4.476 10-10 10zm0 0"/></svg>