<svg height="512pt" viewBox="0 0 512 512" width="512pt" xmlns="http://www.w3.org/2000/svg"><path d="M10 461.695h105.93V502H10zm0 0M502 461.707V502H395.93v-40.313zm0 0" fill="#ff5964"/><path d="M502 399.645v62.062l-106.07-.02V502h-280v-40.305H10v-62.05c0-57.293 40.18-106.665 96.102-118.07l34.609-7.071 38.2-7.8 23.78-4.852a266.71 266.71 0 0 1 106.618 0l23.78 4.851 32.65 6.676 40.16 8.195C461.82 292.98 502 342.352 502 399.644zm0 0" fill="#fff"/><path d="M346 62.855V82.38H166V62.855C166 33.665 189.566 10 218.64 10h74.72C322.433 10 346 33.664 346 62.855zm0 0" fill="#595959"/><path d="M346 82.379v138.84c0 49.687-40.477 90.344-89.965 90.367h-.058c-49.489-.012-89.977-40.68-89.977-90.367V82.379zm0 0" fill="#ffe7b3"/><path d="M351.012 202.617h-190c-11.047 0-20-8.953-20-20v-80.242c0-11.047 8.953-20 20-20h190c11.047 0 20 8.953 20 20v80.242c0 11.047-8.953 20-20 20zm0 0" fill="#d3d3d3"/><path d="M482.68 317.09c-18.918-23.238-45.48-39.34-74.782-45.309l-59.52-12.152c4.911-11.84 7.622-24.809 7.622-38.41v-9.028c14.18-2.37 25.012-14.73 25.012-29.57v-80.25c0-14.84-10.832-27.2-25.012-29.57v-9.942C356 28.2 327.898 0 293.36 0h-74.72C184.103 0 156 28.2 156 62.86v9.94c-14.172 2.38-24.988 14.74-24.988 29.571v80.25c0 14.828 10.816 27.188 24.988 29.57v9.028c0 13.601 2.71 26.57 7.621 38.41l-59.52 12.152C44.165 283.992 0 338.516 0 399.641V502c0 5.52 4.48 10 10 10h492c5.52 0 10-4.48 10-10V399.64c0-30-10.41-59.32-29.32-82.55-18.918-23.238 18.91 23.23 0 0zm-76.75-25.281c11.332 2.53 22.148 6.87 32.05 12.75v147.14l-32.05-.008zM176 62.859C176 39.23 195.129 20 218.64 20h74.72C316.87 20 336 39.23 336 62.86v9.519H176zm-14.988 129.762c-5.336 0-10-4.64-10-10V154.06H295.5c12.84 0 12.86-20 0-20H151.012V102.37c0-5.371 4.66-10 10-10h190c5.332 0 10 4.64 10 10v80.25c0 5.367-4.664 10-10 10zM20 399.641c0-29.832 12.41-59.204 33.98-79.84v131.898H20zM105.93 492H20v-20.3h85.93zm0-40.3H73.98V304.577c9.872-5.867 20.649-10.2 31.95-12.738zm70.05-172.938V492h-50.05V287.73l47.66-9.742 2.469-.5c-.047.41-.079.84-.079 1.274zm70 213.238h-50V301.43c14.211 10.742 31.348 17.77 50 19.64zm70 0h-50V321.078c18.641-1.86 35.782-8.879 50-19.61zm.66-218.45C269.208 328.97 176 293.93 176 221.22v-8.598h160v8.598c0 19.082-6.934 37.851-19.36 52.332-14.671 17.14 4.66-5.43 0 0zM385.93 492h-49.95V278.762a9.05 9.05 0 0 0-.09-1.274l2.508.512 47.532 9.7zM492 492h-86.07v-20.309l86.07.008zm0-40.3h-34.02V319.77c21.61 20.613 34.02 50.039 34.02 79.87zm0 0"/><path d="M330.52 154.059c-5.524 0-10.004-4.477-10.004-10 0-5.524 4.472-10 9.996-10h.008c5.523 0 10 4.476 10 10 0 5.523-4.477 10-10 10zm0 0"/></svg>