<svg height="512pt" viewBox="0 -55 512 512" width="512pt" xmlns="http://www.w3.org/2000/svg"><path d="M275.625 10.008H492c5.523 0 10 4.48 10 10.008V260.19c0 5.528-4.477 10.008-10 10.008h-30V50.035H50V270.2H20c-5.523 0-10-4.48-10-10.008V20.016c0-5.528 4.477-10.008 10-10.008h175.012" fill="#ff5964"/><path d="M367 330.902c0 11.051-17.898 20.016-40 20.016-21.98 0-39.82-8.875-40-19.844v-.172c0-11.054 17.91-20.011 40-20.011 22.102 0 40 8.957 40 20.011zm0 0" fill="#757679"/><path d="M367 330.902v40.032c0 11.046-17.898 20.015-40 20.015-22.09 0-40-8.969-40-20.015v-39.86c.18 10.969 18.02 19.848 40 19.848 22.102-.004 40-8.969 40-20.02zm0 0" fill="#757679"/><path d="M492 0H275.629c-5.527 0-10 4.484-10 10.008 0 5.523 4.473 10.008 10 10.008H492V260.19h-20V50.035c0-5.523-4.48-10.008-10-10.008H50c-5.52 0-10 4.485-10 10.008v210.156H20V20.016h175.012c5.52 0 10-4.485 10-10.008 0-5.524-4.48-10.008-10-10.008H20C8.969 0 0 8.977 0 20.016V260.19c0 11.04 8.969 20.016 20 20.016h30c.3 0 .602-.012.89-.039h410.22c.288.027.59.039.89.039h30c11.031 0 20-8.977 20-20.016V20.016C512 8.976 503.031 0 492 0zM122.398 260.152H60v-35.027h62.398zm0-55.043H60v-35.023h62.398zm0-55.039H60v-35.027h62.398zm0-55.039H60V60.043h62.398zm82.403 165.121h-62.403v-35.027h62.403zm0-55.043h-62.403v-35.023h62.403zm0-55.039h-62.403v-35.027h62.403zm0-55.039h-62.403V60.043h62.403zm82.398 165.121h-62.398v-35.027h62.398zm0-55.043h-62.398v-35.023h62.398zm0-55.039h-62.398v-35.027h62.398zm0-55.039h-62.398V60.043h62.398zm20-34.988h62.403v34.988h-62.403zm0 55h62.403v35.027h-62.403zm0 55.043h62.403v35.023h-62.403zm0 90.066v-35.027h62.403v35.027zm144.801 0h-62.398v-35.027H452zm0-55.043h-62.398v-35.023H452zm0-55.039h-62.398v-35.027H452zm0-55.039h-62.398V60.043H452zm0 0"/><path d="M236.02 20.016c-5.524 0-10.004-4.48-10.004-10.008C226.016 4.48 230.488 0 236.012 0h.008c5.523 0 10 4.48 10 10.008 0 5.523-4.477 10.008-10 10.008zm0 0M376.988 330.344c-1.113-40.793-99.3-40.668-99.976.219-.012.171-.012.34-.012.511v39.86c0 41.421 100 41.418 100 0v-40.032c0-.187-.012-.379-.012-.558-.457-16.832 0 .18 0 0zM357 370.934c0 13.933-60 13.855-60 0V355.28c.21.09.422.18.629.262.11.05.21.09.32.129.531.219 1.07.441 1.621.629.059.031.11.05.168.07 5.13 1.914 10.832 3.508 16.32 3.875 4.5.594 9.06.762 13.59.64h.043c3.793-.074 7.875-.284 11.598-1.113 2.969-.484 6.008-1.09 8.86-2.039A47.187 47.187 0 0 0 357 355.25zm-6.191-34.829c-11.149 5.582-25.891 6.243-37.98 3.293-2.352-.48-4.75-1.23-6.977-2.12-.024-.02-.051-.02-.07-.032-2.036-.777-8.782-3.203-8.782-6.336v-.008c0-10.175 31.434-10.187 36.652-9.652 6.844.703 33.743 6.543 17.157 14.855-6.098 3.055 4.671-2.34 0 0zm0 0"/></svg>