<svg height="512pt" viewBox="0 -18 512 512" width="512pt" xmlns="http://www.w3.org/2000/svg"><path d="M366 465.996H146v-.043c0-33.137 26.863-60 60-60h100c33.137 0 60 26.863 60 60zm0 0" fill="#757679"/><path d="M226 285.867h60v120.086h-60zm0 0M492 170.121H20c-5.523 0-10-4.476-10-10V20.004c0-5.524 4.477-10 10-10h472c5.523 0 10 4.476 10 10V160.12c0 5.524-4.477 10-10 10zm0 0" fill="#ea4253"/><path d="M256.02 254.934c-5.524 0-10.004-4.48-10.004-10.008 0-5.528 4.472-10.008 9.996-10.008h.008c5.523 0 10 4.48 10 10.008 0 5.527-4.477 10.008-10 10.008zm0 0M306 395.941h-10V285.863c0-5.523-4.48-10.008-10-10.008h-60c-5.52 0-10 4.485-10 10.008v110.078h-10c-38.602 0-70 31.422-70 70.051 0 5.524 4.48 10.008 10 10.008h220c5.52 0 10-4.484 10-10.008 0-38.629-31.398-70.05-70-70.05zm-70-100.07h40v100.07h-40zm-79 160.113c4.648-22.804 24.852-40.027 49-40.027h100c24.148 0 44.352 17.223 49 40.027zm0 0M492 0H20C8.969 0 0 8.977 0 20.016v140.097c0 11.04 8.969 20.016 20 20.016h226v29.77c0 5.527 4.48 10.007 10 10.007s10-4.48 10-10.008v-29.77h226c11.031 0 20-8.976 20-20.015V20.016C512 8.976 503.031 0 492 0zm.012 160.113H20V100.07h140c5.52 0 10-4.48 10-10.007 0-5.524-4.48-10.004-10-10.004H20V20.016h472v60.043H352c-5.52 0-10 4.48-10 10.004 0 5.527 4.48 10.007 10 10.007h140.012zm0 0"/><path d="M258.672 131.082a9.998 9.998 0 0 1-8.914-5.477L219.297 65.57c-2.5-4.93-.535-10.953 4.387-13.453 4.925-2.5 10.945-.535 13.445 4.39l20.668 40.74 16.765-40.079c2.133-5.098 7.993-7.504 13.086-5.367 5.094 2.133 7.497 7.996 5.364 13.094l-25.114 60.043a10.001 10.001 0 0 1-9.226 6.144zm0 0"/></svg>