<svg height="487pt" viewBox="0 -44 487.648 487" width="487pt" xmlns="http://www.w3.org/2000/svg"><path d="M123.824 312.324c-15.761 5.281-30.16 14.16-41.922 25.918l-6.078 6.082c0-15.922 1.918-31.84 5.84-47.281l2.16-8.719c-15.68 0-30.96 4.64-44 13.281l-4 2.72v-14.083a75.765 75.765 0 0 1 8-33.918h-32l.88-2.16c8.96-22.398 28.081-39.039 51.28-44.96 20.399 32.562 64.559 55.12 115.84 55.12 38.238 0 72.48-12.64 95.918-32.64 16.961 20.32 39.442 32.64 64.082 32.64 33.121 0 62.238-22.32 79.52-56.238l.48.238c24.961 4.961 45.68 22.239 55.121 45.84l.88 2.16h-32a75.765 75.765 0 0 1 8 33.918v14.082l-4-2.719c-13.04-8.64-28.321-13.28-44-13.28l2.16 8.718c3.917 15.441 5.84 31.36 5.84 47.281l-6.083-6.082c-11.758-11.758-26.156-20.637-41.918-25.918 2.559 7.84 3.918 15.918 3.918 24 0 8.078-1.36 16.16-3.918 24l-21.281-17.039c-12.078-9.68-27.2-14.96-42.719-14.96a75.765 75.765 0 0 1 8 33.917v14.082l-40-32-24 40-24-40-40 32v-14.082a75.765 75.765 0 0 1 8-33.918c-15.52 0-30.64 5.281-42.719 14.961l-21.28 17.04c-2.56-7.84-3.923-15.923-3.923-24 0-8.083 1.364-16.16 3.922-24zm0 0" fill="#cf9e76"/><path d="M250.785 88.484c14.16-47.039 48.719-80.16 89.04-80.16 53.038 0 96 57.281 96 128 0 26.559-6.083 51.281-16.481 71.762-17.281 33.918-46.399 56.238-79.52 56.238-24.64 0-47.12-12.32-64.082-32.64-19.597-23.442-31.918-57.52-31.918-95.36 0-16.96 2.48-33.039 6.961-47.84zm0 0" fill="#fcd770"/><path d="M63.984 209.203c-7.84-12.398-12.16-26.238-12.16-40.879 0-53.039 57.281-96 128-96 26.238 0 50.64 5.918 70.961 16.16-4.48 14.801-6.96 30.88-6.96 47.84 0 37.84 12.32 71.918 31.917 95.36-23.437 20-57.68 32.64-95.918 32.64-51.281 0-95.441-22.558-115.84-55.12zm0 0" fill="#ffeaa7"/><path d="M411.824 136.324c0-35.656-13.289-69.625-34.68-88.664l-10.632 11.953c18.082 16.094 29.312 45.489 29.312 76.711zm0 0M179.824 240.324v-16c-31.222 0-60.617-11.23-76.703-29.312l-11.953 10.633c19.031 21.39 53 34.68 88.656 34.68zm0 0M91.824 168.324h-16c0 6.414 1.266 12.809 3.75 18.992l14.84-5.976c-1.719-4.281-2.59-8.656-2.59-13.016zm0 0"/><path d="M487.648 264.324l-5.25-13.097c-9.328-23.313-28.398-40.832-51.972-48.352 8.496-19.695 13.398-42.367 13.398-66.55 0-74.993-46.656-136-104-136-41.222 0-76.816 31.609-93.633 77.19-20.222-8.648-42.968-13.19-66.367-13.19-74.992 0-136 46.655-136 104 0 12.784 3.176 24.976 8.711 36.296-21.383 8.254-38.597 24.871-47.289 46.598L0 264.324h31.938a83.871 83.871 0 0 0-4.114 25.887v29.059l16.473-10.985a71.108 71.108 0 0 1 29.101-11.21 203.2 203.2 0 0 0-5.574 47.25v19.312l19.77-19.77a99.343 99.343 0 0 1 25.039-18.191c-1.578 12.449-.375 25.23 3.605 37.168l3.633 10.886 30.219-24.175a60.753 60.753 0 0 1 25.453-11.965 83.884 83.884 0 0 0-3.719 24.62v30.755l45.848-36.68 26.152 43.59 26.153-43.582 45.847 36.68v-30.754a84.219 84.219 0 0 0-3.703-24.614 60.608 60.608 0 0 1 25.453 11.965l30.219 24.176 3.633-10.887c3.98-11.933 5.176-24.718 3.605-37.168a99.343 99.343 0 0 1 25.04 18.192l19.753 19.754v-19.313a202.82 202.82 0 0 0-5.578-47.238c10.371 1.52 20.281 5.324 29.106 11.207l16.472 10.984V290.22a83.871 83.871 0 0 0-4.113-25.887h31.937zm-147.824-248c48.52 0 88 53.832 88 120s-39.48 120-88 120-88-53.832-88-120 39.48-120 88-120zm-160 64c21.817 0 42.93 4.36 61.535 12.574a173.2 173.2 0 0 0-5.535 43.426c0 36.367 11.04 69.375 28.88 93.801-22.536 16.664-52.942 26.2-84.88 26.2-66.168 0-120-39.481-120-88s53.832-88 120-88zm224 200h-10.25l4.664 18.656a186.562 186.562 0 0 1 4.563 25.833c-10.809-8.817-23.227-15.672-36.45-20.083l-15.175-5.054 5.054 15.176c3.356 10.074 4.274 20.878 2.747 31.351l-11.418-9.137c-13.497-10.796-30.454-16.742-47.735-16.742H286.88l5.793 11.574a68.19 68.19 0 0 1 7.105 27.739l-34.097-27.282-21.856 36.418-21.847-36.418-34.098 27.282a68.096 68.096 0 0 1 7.105-27.739l5.786-11.574h-12.946c-17.281 0-34.238 5.946-47.734 16.742l-11.418 9.137c-1.52-10.473-.61-21.277 2.742-31.351l5.059-15.176-15.176 5.054c-13.219 4.41-25.64 11.274-36.45 20.083a187.136 187.136 0 0 1 4.56-25.833l4.663-18.656H83.824a87.009 87.009 0 0 0-40 9.703 68.13 68.13 0 0 1 7.16-30.129l5.786-11.574H24.406c8.13-14.023 21.043-24.535 36.41-29.777 23.2 32.023 67.832 53.777 119.008 53.777 35.649 0 69.762-10.887 95.106-29.894 17.804 18.656 40.351 29.894 64.894 29.894 34.098 0 64.32-21.664 83.297-54.914 17 4.73 31.344 15.777 40.117 30.914h-32.36l5.794 11.574a68.13 68.13 0 0 1 7.16 30.13 87.064 87.064 0 0 0-40.008-9.704zm0 0"/><path d="M275.824 280.324h16v16h-16zm0 0M195.824 288.324h16v16h-16zm0 0M363.824 272.324h16v16h-16zm0 0M243.824 304.324h16v16h-16zm0 0M115.824 280.324h16v16h-16zm0 0"/></svg>