<svg height="496pt" viewBox="0 0 496 496" width="496pt" xmlns="http://www.w3.org/2000/svg"><path d="M488 320v136c0 17.68-14.32 32-32 32H312c-17.68 0-32-14.32-32-32V40c0-17.68 14.32-32 32-32h144c17.68 0 32 14.32 32 32zm0 0M216 320v136c0 17.68-14.32 32-32 32H40c-17.68 0-32-14.32-32-32V40C8 22.32 22.32 8 40 8h144c17.68 0 32 14.32 32 32zm0 0" fill="#dfb28b"/><g fill="#8cc152"><path d="M384 392h-16c-26.48 0-48-21.52-48-48h16c26.48 0 48 21.52 48 48zm0 0M432 344h16c0 13.281-5.36 25.281-14.078 33.922C425.282 386.64 413.282 392 400 392h-16c0-26.48 21.52-48 48-48zm0 0M432 72h16c0 13.281-5.36 25.281-14.078 33.922C425.282 114.64 413.282 120 400 120h-16c0-26.48 21.52-48 48-48zm0 0M384 120h-16c-26.48 0-48-21.52-48-48h16c26.48 0 48 21.52 48 48zm0 0M160 208h16c0 13.281-5.36 25.281-14.078 33.922C153.282 250.64 141.282 256 128 256h-16c0-26.48 21.52-48 48-48zm0 0M112 256H96c-26.48 0-48-21.52-48-48h16c26.48 0 48 21.52 48 48zm0 0"/></g><path d="M384 256h-16c-26.48 0-48-21.52-48-48h16c26.48 0 48 21.52 48 48zm0 0M432 208h16c0 13.281-5.36 25.281-14.078 33.922C425.282 250.64 413.282 256 400 256h-16c0-26.48 21.52-48 48-48zm0 0M160 72h16c0 13.281-5.36 25.281-14.078 33.922C153.282 114.64 141.282 120 128 120h-16c0-26.48 21.52-48 48-48zm0 0M160 344h16c0 13.281-5.36 25.281-14.078 33.922C153.282 386.64 141.282 392 128 392h-16c0-26.48 21.52-48 48-48zm0 0M112 120H96c-26.48 0-48-21.52-48-48h16c26.48 0 48 21.52 48 48zm0 0M112 392H96c-26.48 0-48-21.52-48-48h16c26.48 0 48 21.52 48 48zm0 0" fill="#a0d468"/><path d="M128 128c30.879 0 56-25.121 56-56v-8h-24c-20.383 0-38.207 10.977-48.008 27.297C102.2 74.977 84.375 64 64 64H40v8c0 30.879 25.121 56 56 56h8v16H88v16h48v-16h-16v-16zm-32-16c-19.32 0-35.48-13.77-39.191-32H64c19.32 0 35.48 13.77 39.191 32zm64-32h7.191c-3.71 18.23-19.879 32-39.191 32h-7.191c3.71-18.23 19.87-32 39.191-32zm0 0M40 208c0 30.879 25.121 56 56 56h8v16H88v16h48v-16h-16v-16h8c30.879 0 56-25.121 56-56v-8h-24c-20.383 0-38.207 10.977-48.008 27.297C102.2 210.977 84.375 200 64 200H40zm120 8h7.191c-3.71 18.23-19.879 32-39.191 32h-7.191c3.71-18.23 19.87-32 39.191-32zm-96 0c19.32 0 35.48 13.77 39.191 32H96c-19.32 0-35.48-13.77-39.191-32zm0 0M40 344c0 30.879 25.121 56 56 56h8v16H88v16h48v-16h-16v-16h8c30.879 0 56-25.121 56-56v-8h-24c-20.383 0-38.207 10.977-48.008 27.297C102.2 346.977 84.375 336 64 336H40zm120 8h7.191c-3.71 18.23-19.879 32-39.191 32h-7.191c3.71-18.23 19.87-32 39.191-32zm-96 0c19.32 0 35.48 13.77 39.191 32H96c-19.32 0-35.48-13.77-39.191-32zm0 0"/><path d="M208 456c0 13.23-10.77 24-24 24H40c-13.23 0-24-10.77-24-24V168H0v288c0 22.055 17.945 40 40 40h144c22.055 0 40-17.945 40-40V320h-16zm0 0M184 0H40C17.945 0 0 17.945 0 40v112h16V40c0-13.23 10.77-24 24-24h144c13.23 0 24 10.77 24 24v264h16V40c0-22.055-17.945-40-40-40zm0 0M400 128c30.879 0 56-25.121 56-56v-8h-24c-20.383 0-38.207 10.977-48.008 27.297C374.2 74.977 356.375 64 336 64h-24v8c0 30.879 25.121 56 56 56h8v16h-16v16h48v-16h-16v-16zm-32-16c-19.32 0-35.48-13.77-39.191-32H336c19.32 0 35.48 13.77 39.191 32zm64-32h7.191c-3.71 18.23-19.879 32-39.191 32h-7.191c3.71-18.23 19.87-32 39.191-32zm0 0M312 208c0 30.879 25.121 56 56 56h8v16h-16v16h48v-16h-16v-16h8c30.879 0 56-25.121 56-56v-8h-24c-20.383 0-38.207 10.977-48.008 27.297C374.2 210.977 356.375 200 336 200h-24zm120 8h7.191c-3.71 18.23-19.879 32-39.191 32h-7.191c3.71-18.23 19.87-32 39.191-32zm-96 0c19.32 0 35.48 13.77 39.191 32H368c-19.32 0-35.48-13.77-39.191-32zm0 0M312 344c0 30.879 25.121 56 56 56h8v16h-16v16h48v-16h-16v-16h8c30.879 0 56-25.121 56-56v-8h-24c-20.383 0-38.207 10.977-48.008 27.297C374.2 346.977 356.375 336 336 336h-24zm120 8h7.191c-3.71 18.23-19.879 32-39.191 32h-7.191c3.71-18.23 19.87-32 39.191-32zm-96 0c19.32 0 35.48 13.77 39.191 32H368c-19.32 0-35.48-13.77-39.191-32zm0 0"/><path d="M480 456c0 13.23-10.77 24-24 24H312c-13.23 0-24-10.77-24-24V168h-16v288c0 22.055 17.945 40 40 40h144c22.055 0 40-17.945 40-40V320h-16zm0 0M456 0H312c-22.055 0-40 17.945-40 40v112h16V40c0-13.23 10.77-24 24-24h144c13.23 0 24 10.77 24 24v264h16V40c0-22.055-17.945-40-40-40zm0 0"/></svg>