<svg height="496pt" viewBox="-32 0 496 496" width="496pt" xmlns="http://www.w3.org/2000/svg"><path d="M344 296v88l-16 24-16-24v-88h-80v160c0 17.68 14.32 32 32 32h128c17.68 0 32-14.32 32-32V296zm0 0" fill="#e6e9ed"/><path d="M344 328v56l-16 24-16-24V88c0-8.8 7.2-16 16-16 4.398 0 8.398 1.762 11.281 4.719C342.238 79.602 344 83.602 344 88zm0 0" fill="#ccd1d9"/><path d="M344 88c0-4.398-1.762-8.398-4.719-11.281C336.398 73.762 332.398 72 328 72c-8.8 0-16 7.2-16 16v16l-34-27.2c-3.762-3.038-6-7.6-6-12.48V16c0-4.398 3.602-8 8-8h96c4.398 0 8 3.602 8 8v48.32c0 4.88-2.238 9.442-6 12.48L344 104zm0 0" fill="#fcd770"/><path d="M176 296h-64v88l-16 24-16-24v-88H16c-4.398 0-8 3.602-8 8v50.719c0 26.402 6.96 51.922 19.52 74.242a151.402 151.402 0 0 0 53.601 54.96C85.601 486.56 90.801 488 96 488s10.398-1.441 14.879-4.078C156.239 456.64 184 407.602 184 354.719V304c0-4.398-3.602-8-8-8zm0 0" fill="#e6e9ed"/><path d="M112 328v56l-16 24-16-24V72h32zm0 0" fill="#ccd1d9"/><path d="M144 40v24c0 4.398-3.602 8-8 8H56c-4.398 0-8-3.602-8-8V16c0-4.398 3.602-8 8-8h80c4.398 0 8 3.602 8 8zm0 0" fill="#fcd770"/><path d="M176 288h-56V80h16c8.824 0 16-7.176 16-16V16c0-8.824-7.176-16-16-16H56c-8.824 0-16 7.176-16 16v48c0 8.824 7.176 16 16 16h16v208H16c-8.824 0-16 7.176-16 16v50.703c0 55.41 29.512 107.527 77.023 136.04C82.753 494.175 89.313 496 96 496s13.246-1.824 18.977-5.258C162.488 462.23 192 410.113 192 354.703V304c0-8.824-7.176-16-16-16zm0 16v16h-56v-16zM56 48h48V32H56V16h80v16h-16v16h16.008v16H56zm48 32v301.574l-8 12-8-12V80zM72 304v16H16v-16zm34.742 173.023c-6.484 3.887-15 3.887-21.484 0C42.535 451.391 16 404.52 16 354.703V336h56v50.426l24 36 24-36V336h56v18.703c0 49.817-26.535 96.688-69.258 122.32zm0 0M352 288V107.848l31-24.801a23.899 23.899 0 0 0 9-18.734V16c0-8.824-7.176-16-16-16h-96c-8.824 0-16 7.176-16 16v48.313c0 7.32 3.281 14.152 9.008 18.742L304 107.848V288h-80v168c0 22.055 17.945 40 40 40h128c22.055 0 40-17.945 40-40V288zm64 16v16h-64v-16zM280 64.312V48h56V32h-56V16h96v16h-24v16h24v16.313a7.952 7.952 0 0 1-3 6.238l-21.063 16.847C351.618 74.45 341.031 64 328 64s-23.617 10.45-23.938 23.398l-21.054-16.84A7.962 7.962 0 0 1 280 64.313zM336 88v293.574l-8 12-8-12V88c0-4.414 3.594-8 8-8s8 3.586 8 8zm-32 216v16h-64v-16zm88 176H264c-13.23 0-24-10.77-24-24V336h64v50.426l24 36 24-36V336h64v120c0 13.23-10.77 24-24 24zm0 0"/></svg>