<svg xmlns="http://www.w3.org/2000/svg" viewBox="0 0 462.042 462.042"><path d="M226.02 407.014v-20c76.93 0 139.517-62.587 139.517-139.516 0-76.93-62.587-139.517-139.517-139.517v-20c87.958 0 159.517 71.559 159.517 159.517-.001 87.957-71.558 159.516-159.517 159.516z" fill="#d8d9dd"/><path fill="#90c5ff" d="M76.505 345.68h183.78v20H76.505z"/><path d="M261.033 345.68h-31.606c-27.112 0-49.091 21.979-49.091 49.091h129.788c0-27.112-21.979-49.091-49.091-49.091z" fill="#59595a"/><path fill="#d8d9dd" d="M239.725 84.253l9.64-29.696-59.011-19.154-9.639 29.697-11.611-3.769-68.969 212.491 82.232 26.691 68.97-212.492z"/><path fill="#59595a" d="M179.295 310.023l-82.239-26.69 6.175-19.025 82.238 26.69zM194.148 264.244l-82.238-26.689 3.705-11.414 82.238 26.689zM260.855 19.153L201.845 0l-3.704 11.414 8.702 2.825-7.786 23.989 41.604 13.504 7.786-23.989 8.704 2.824z"/><path opacity=".3" fill="#5b5b5f" d="M239.725 84.253l9.64-29.696-8.704-2.825 8.107-24.977 8.703 2.824 3.064-9.437-29.506-9.577-92.33 284.467 41.114 13.345 2.554-7.865v.001l68.97-212.492z"/><path opacity=".4" fill="#5b5b5f" d="M239.732 84.246l-59.014-19.153 2.552-7.864 59.015 19.152z"/><path fill="#59595a" d="M76.505 422.042h299.032v40H76.505z"/><path fill="#d8d9dd" d="M92.521 392.042H359.52v30H92.521z"/><circle cx="226.02" cy="112.133" r="40.494" fill="#c8523b"/><path d="M226.02 71.639v80.988c22.364 0 40.494-18.13 40.494-40.494.001-22.364-18.13-40.494-40.494-40.494z" opacity=".4" fill="#5b5b5f"/></svg>