<svg height="496pt" viewBox="0 0 496 495" width="496pt" xmlns="http://www.w3.org/2000/svg"><path d="M167.922 392.656c18 2 18.879 23.844 38.637 23.844 20.64 0 20.64-24 41.28-24 20.72 0 20.72 24 41.36 24s20.64-24 41.36-24c20.64 0 20.64 24 41.28 24 18.88 0 20.56-20 36.4-23.441 1.523-.403 3.12-.559 4.96-.559 20.723 0 20.723 24 41.442 24 20.64 0 20.64-24 41.359-24v72c-20.719 0-20.719 24-41.36 24-20.718 0-20.718-24-41.44-24-20.641 0-20.641 24-41.36 24-20.64 0-20.64-24-41.281-24-20.72 0-20.72 24-41.36 24s-20.64-24-41.36-24c-20.64 0-20.64 24-41.28 24-20.72 0-20.72-24-41.36-24s-20.64 24-41.277 24c-20.64 0-20.64-24-41.363-24-20.637 0-20.637 24-41.278 24s-20.64-24-41.281-24v-72c20.64 0 20.64 24 41.281 24s20.64-24 41.278-24c20.722 0 20.722 24 41.363 24 20.637 0 20.637-24 41.277-24 .961 0 1.84.078 2.723.156zm0 0" fill="#69d6f4"/><path d="M441.2 278.098c8.48-2.559 16.402-7.2 22.8-13.598 0 50.719-21.441 96.398-55.762 128.559-15.84 3.441-17.52 23.441-36.398 23.441-20.64 0-20.64-24-41.281-24-20.72 0-20.72 24-41.36 24s-20.64-24-41.36-24c-20.64 0-20.64 24-41.28 24-19.758 0-20.637-21.844-38.637-23.844-33.363-31.199-54.64-75.277-55.844-123.597-.879-34.082 7.922-66.082 23.922-93.36l.398-.722c-3.359-1.68-6.558-3.598-9.68-5.68-6.48-4.399-12.398-9.598-17.437-15.52-10-11.597-16.96-25.84-19.84-41.52-1.28-7.038-1.68-14.398-1.203-21.917 2.961-44.16 40-80.082 84.242-81.762C222.72 6.656 264 46.738 264 96.5c0 15.918-4.238 29.598-11.68 41.36-12.48 19.917-20.32 42.48-20.32 66v1.359c-24.48 8.879-43.441 29.918-47.2 56.64-6.402 44.48 27.919 82.641 71.2 82.641l40 .477h7.52c22.32 0 40.48-18.16 40.48-40.477l-.078-.8C362.238 300.02 376 283.86 376 264.5h-16c11.04 0 21.04-4.48 28.32-11.684C395.52 245.54 400 235.54 400 224.5h-24l1.68-.8A210.05 210.05 0 0 0 432 184.5l6 6c11.52 11.52 18 27.2 18 43.438 0 9.601-2.238 19.039-6.48 27.519zm0 0" fill="#fcd770"/><path d="M360 264.5h16c0 19.36-13.762 35.52-32.078 39.2l.078.8c0 22.316-18.16 40.477-40.48 40.477H296l-40-.477c-43.281 0-77.602-38.16-71.2-82.64 3.759-26.723 22.72-47.762 47.2-56.641 8.238-3.04 17.2-4.719 26.32-4.719 19.602 0 38.72 4.559 56.078 13.2a102.145 102.145 0 0 0 45.762 10.8H400c0 11.04-4.48 21.04-11.68 28.316-7.28 7.204-17.28 11.684-28.32 11.684zm0 0" fill="#ffc729"/><path d="M126.719 169.297l-18.16 10.883C95.12 188.258 79.679 192.5 64 192.5c-13.281 0-24-10.723-24-24h4.238c22.563 0 44.723-4.96 65.043-14.723 5.04 5.922 10.957 11.121 17.438 15.52zm0 0" fill="#ff826e"/><path d="M89.441 112.258c2.88 15.68 9.84 29.922 19.84 41.52-20.32 9.761-42.48 14.722-65.043 14.722h-6.797C30 168.5 24 162.5 24 155.059c0-6.243 4.238-11.602 10.238-13.121 14.32-3.598 27.84-10 39.762-18.88L88 112.5zm0 0" fill="#ff826e"/><path d="M160 80.5c0 8.836-7.164 16-16 16s-16-7.164-16-16c0-8.84 7.164-16 16-16s16 7.16 16 16zm0 0" fill="#ffc729"/><path d="M469.246 399.273c-5.223 6.059-8.246 9.227-14.629 9.227-6.387 0-9.41-3.168-14.633-9.227-3.578-4.144-8.082-9.261-14.777-12.253C455.097 353.48 472 309.7 472 264.5v-19.313l-12.031 12.032c2.64-7.45 4.031-15.344 4.031-23.242 0-18.567-7.23-36.024-20.36-49.153L432 173.187l-5.656 5.657a200.827 200.827 0 0 1-52.239 37.656H360.13c-14.555 0-29.129-3.441-42.145-9.953-18.382-9.192-39.023-14.047-59.687-14.047-6.098 0-12.031.727-17.785 1.965 1.695-17.55 8.008-35.461 18.61-52.344C267.663 128.523 272 113.18 272 96.5c0-26.348-10.457-50.922-29.45-69.188C223.567 9.052 198.56-.468 172.208.578c-48.305 1.863-88.695 41.063-91.977 89.23a96.003 96.003 0 0 0 .504 18.145l-11.566 8.672a102.635 102.635 0 0 1-36.902 17.563A21.435 21.435 0 0 0 16 155.02c0 10.3 7.297 18.91 16.984 20.984C36.383 190.027 48.954 200.5 64 200.5a94.67 94.67 0 0 0 48.695-13.488l12.016-7.211a183.925 183.925 0 0 0-20.648 89.472c1.105 43.528 18.32 85.801 47.73 118.395-5.914 3.055-9.992 7.766-13.305 11.613-5.215 6.059-8.23 9.219-14.593 9.219-6.36 0-9.368-3.16-14.582-9.219-5.368-6.238-12.72-14.781-26.711-14.781-13.993 0-21.356 8.543-26.723 14.781-5.215 6.059-8.23 9.219-14.598 9.219-6.351 0-9.37-3.16-14.578-9.219C21.336 393.043 13.993 384.5 0 384.5v16c6.352 0 9.367 3.156 14.574 9.215 5.371 6.238 12.715 14.785 26.707 14.785 14 0 21.352-8.547 26.719-14.785 5.215-6.059 8.23-9.215 14.602-9.215 6.359 0 9.367 3.156 14.582 9.215 5.367 6.238 12.71 14.785 26.71 14.785s21.352-8.547 26.723-14.785c5.215-6.059 8.223-9.215 14.59-9.215 6.367 0 9.387 3.156 14.61 9.223 5.367 6.23 12.718 14.777 26.718 14.777s21.36-8.547 26.73-14.785c5.223-6.059 8.239-9.215 14.606-9.215 6.367 0 9.387 3.156 14.61 9.215 5.367 6.238 12.718 14.785 26.726 14.785s21.36-8.547 26.738-14.777c5.215-6.067 8.23-9.223 14.606-9.223 6.36 0 9.386 3.156 14.601 9.215 5.368 6.238 12.72 14.785 26.72 14.785 14.007 0 21.366-8.547 26.737-14.777 5.223-6.055 8.246-9.223 14.621-9.223 6.387 0 9.41 3.168 14.633 9.223 5.375 6.238 12.739 14.777 26.754 14.777 14.016 0 21.375-8.54 26.75-14.777 5.227-6.055 8.25-9.223 14.633-9.223v-16c-14.008 0-21.375 8.535-26.754 14.773zM310.832 220.86c15.23 7.614 32.281 11.641 49.305 11.641h30.855c-3.558 13.781-16.105 24-30.992 24h-48v16h48c2.398 0 4.734-.234 7.04-.578-3.368 14.055-15.962 24.578-31.04 24.578h-48v16h46.879c-3.59 14.031-16.23 24.477-31.367 24.477L256 336.5a64.014 64.014 0 0 1-48.375-22.098c-12.344-14.23-17.648-32.488-14.945-51.398 4.449-31.074 32.656-54.504 65.617-54.504 18.191 0 36.36 4.27 52.535 12.36zm-274.68-71.152c15.504-3.883 29.84-10.703 42.625-20.289l5.727-4.297a96.636 96.636 0 0 0 12.344 25.313c-16.72 6.57-34.672 10.066-52.625 10.066H37.48a5.485 5.485 0 0 1-5.48-5.48c0-2.52 1.703-4.7 4.152-5.313zM64 184.5c-5.969 0-11.121-3.32-13.871-8.18 19.672-.742 39.223-5.101 57.305-12.886 1.671 1.718 3.453 3.336 5.254 4.93l-8.223 4.933A78.733 78.733 0 0 1 64 184.5zm322.496 214.773c-5.223 6.059-8.25 9.227-14.625 9.227-6.36 0-9.383-3.16-14.598-9.219-5.37-6.238-12.722-14.781-26.722-14.781s-21.36 8.543-26.735 14.773c-5.214 6.067-8.242 9.227-14.609 9.227-6.367 0-9.383-3.16-14.605-9.219-5.372-6.238-12.73-14.781-26.73-14.781s-21.352 8.543-26.727 14.773c-5.215 6.067-8.235 9.227-14.61 9.227-6.367 0-9.383-3.16-14.597-9.219-4.434-5.144-10.274-11.773-20.016-13.976-31.844-30.696-50.762-72.848-51.875-116.438a167.81 167.81 0 0 1 19.89-83.61c7.168 2.93 14.735 5.106 22.704 6.216l2.207-15.84c-41.344-5.774-71.504-43-68.664-84.735 2.726-40.128 36.382-72.777 76.632-74.335 21.918-.793 42.825 7.062 58.641 22.289C247.289 54.066 256 74.547 256 96.5c0 13.805-3.406 25.941-10.426 37.11-13.285 21.16-20.597 43.937-21.414 66.152-24.863 11.008-43.398 33.601-47.32 60.976-3.328 23.23 3.488 46.617 18.695 64.153 15.219 17.543 37.258 27.609 60.367 27.609l40.098.477h7.52c24.937 0 45.52-18.926 48.175-43.168 18.305-6.36 31.578-23.47 32.235-43.758C398.29 257.746 408 242.25 408 224.5v-8h-2.39c9.261-6.258 18.07-13.152 26.285-20.793l.433.43C442.434 206.242 448 219.684 448 233.977c0 8.265-1.953 16.539-5.648 23.93l-6.711 13.413c-3.336.754-6.77 1.18-10.274 1.18H424v16h1.367c10.586 0 20.762-2.61 29.809-7.516-3.953 39.723-22.13 77.16-51.16 104.922-8.297 2.672-13.48 8.672-17.52 13.367zm0 0M469.246 471.273c-5.223 6.059-8.246 9.227-14.629 9.227-6.387 0-9.41-3.168-14.633-9.227-5.375-6.238-12.746-14.773-26.754-14.773-14.007 0-21.367 8.543-26.734 14.773-5.223 6.059-8.25 9.227-14.625 9.227-6.36 0-9.383-3.16-14.598-9.219-5.37-6.238-12.722-14.781-26.722-14.781s-21.36 8.543-26.735 14.773c-5.214 6.067-8.242 9.227-14.609 9.227-6.367 0-9.383-3.16-14.605-9.219-5.372-6.238-12.73-14.781-26.73-14.781s-21.352 8.543-26.727 14.773c-5.215 6.067-8.235 9.227-14.61 9.227-6.367 0-9.383-3.16-14.597-9.219-5.372-6.238-12.731-14.781-26.731-14.781s-21.352 8.543-26.719 14.781c-5.215 6.059-8.23 9.219-14.593 9.219-6.36 0-9.368-3.16-14.582-9.219-5.368-6.238-12.72-14.781-26.711-14.781-13.993 0-21.356 8.543-26.723 14.781-5.215 6.059-8.23 9.219-14.598 9.219-6.351 0-9.37-3.16-14.578-9.219C21.336 465.043 13.993 456.5 0 456.5v16c6.352 0 9.367 3.156 14.574 9.215 5.371 6.238 12.715 14.785 26.707 14.785 14 0 21.352-8.547 26.719-14.785 5.215-6.059 8.23-9.215 14.602-9.215 6.359 0 9.367 3.156 14.582 9.215 5.367 6.238 12.71 14.785 26.71 14.785s21.352-8.547 26.723-14.785c5.215-6.059 8.223-9.215 14.59-9.215 6.367 0 9.387 3.156 14.61 9.223 5.367 6.23 12.718 14.777 26.718 14.777s21.36-8.547 26.73-14.785c5.223-6.059 8.239-9.215 14.606-9.215 6.367 0 9.387 3.156 14.61 9.215 5.367 6.238 12.718 14.785 26.726 14.785s21.36-8.547 26.738-14.777c5.215-6.067 8.23-9.223 14.606-9.223 6.36 0 9.387 3.156 14.601 9.215 5.368 6.238 12.72 14.785 26.72 14.785 14.007 0 21.366-8.547 26.737-14.777 5.223-6.055 8.246-9.223 14.621-9.223 6.387 0 9.41 3.168 14.633 9.223 5.375 6.238 12.739 14.777 26.754 14.777 14.016 0 21.375-8.54 26.75-14.777 5.227-6.055 8.25-9.223 14.633-9.223v-16c-14.008 0-21.375 8.535-26.754 14.773zm0 0"/><path d="M144 56.5c-13.23 0-24 10.766-24 24 0 13.23 10.77 24 24 24s24-10.77 24-24c0-13.234-10.77-24-24-24zm0 32c-4.406 0-8-3.594-8-8 0-4.41 3.594-8 8-8s8 3.59 8 8c0 4.406-3.594 8-8 8zm0 0"/></svg>