<svg height="496pt" viewBox="0 -20 496 496" width="496pt" xmlns="http://www.w3.org/2000/svg"><path d="M67.04 308.96c3.038 3.04 4.96 7.36 4.96 12 0 4.481-1.762 8.802-4.96 12L56 344v64l11.04 11.04c3.198 3.198 4.96 7.519 4.96 12 0 4.64-1.922 8.96-4.96 12a17.068 17.068 0 0 1-12 4.96c-4.481 0-8.802-1.762-12-4.96L40 440l-3.04 3.04c-3.198 3.198-7.519 4.96-12 4.96-4.64 0-8.96-1.922-12-4.96a17.068 17.068 0 0 1-4.96-12c0-4.481 1.762-8.802 4.96-12L24 408v-64l-11.04-11.04c-3.198-3.198-4.96-7.519-4.96-12 0-4.64 1.922-8.96 4.96-12 3.04-3.038 7.36-4.96 12-4.96 4.481 0 8.802 1.762 12 4.96L40 312l3.04-3.04c3.198-3.198 7.519-4.96 12-4.96 4.64 0 8.96 1.922 12 4.96zm0 0" fill="#e6e9ed"/><path d="M450.16 122.16A129.228 129.228 0 0 1 488 213.52c0 17.44-3.52 34.8-10.48 50.878L464.879 294c-9.2-11.121-20.879-20.398-34.48-26.8L432 264l9.68-24.238A88.302 88.302 0 0 0 448 206.96c0-20-6.8-39.52-19.36-55.121l-8.96-11.2a16.96 16.96 0 0 1-3.68-10.562v-1.117c0-9.36 7.602-16.961 16.96-16.961 4.481 0 8.802 1.762 12 4.96zm0 0M116 411.2l28-11.2v-3.68c0-13.441-2.398-26.8-7.121-39.36-9.84-26.081-15.36-53.519-16.64-81.28h.081a118.658 118.658 0 0 0 34.72 48.16c1.6 1.281 3.198 2.64 4.8 3.84 2.398 9.922 5.441 19.68 9.039 29.28 4.723 12.56 7.121 25.919 7.121 39.36V400l-28 11.2c-7.281 2.878-12 9.921-12 17.679 0 5.281 2.16 10.082 5.602 13.52a19.096 19.096 0 0 0 13.52 5.601h-32a19.096 19.096 0 0 1-13.52-5.602 19.096 19.096 0 0 1-5.602-13.52c0-7.757 4.719-14.8 12-17.679zm0 0" fill="#cf9e76"/><path d="M159.84 327.68c-1.602-1.2-3.2-2.559-4.8-3.84a118.658 118.658 0 0 1-34.72-48.16A118.726 118.726 0 0 1 112 232l.8-3.84c4.481 2.399 9.68 3.84 15.2 3.84h64c8.8 0 16.8-3.602 22.64-9.36C220.399 216.8 224 208.8 224 200c16.559 0 30.8-10.078 36.879-24.398L264 176l5.281 4.719a385.781 385.781 0 0 0 71.598 50.242c25.68 13.918 52.883 24.879 81.2 32.719 2.882 1.039 5.6 2.242 8.32 3.52 13.601 6.402 25.28 15.679 34.48 26.8a130.856 130.856 0 0 1 5.043 6.64C481.442 317.2 488 337.122 488 358.239c0 13.364-2.64 26.48-7.68 38.563-5.039 12.16-12.398 23.277-21.84 32.719A63.164 63.164 0 0 1 413.84 448H280c-6.64 0-12.64-2.719-16.96-7.04-4.321-4.32-7.04-10.32-7.04-16.96 0-13.281 10.719-24 24-24h32v-23.441c0-2.88.078-5.68.32-8.559h-35.36c-18.081 0-35.839-2.559-52.96-7.52V432c0 8.8-7.2 16-16 16h-52.879a19.096 19.096 0 0 1-13.52-5.602 19.096 19.096 0 0 1-5.601-13.52c0-7.757 4.719-14.8 12-17.679L176 400v-3.68c0-13.441-2.398-26.8-7.121-39.36-3.598-9.6-6.64-19.358-9.04-29.28zm0 0" fill="#ecc19c"/><path d="M296 100.48c0 7.598-3.04 14.48-8.078 19.442C282.96 124.96 276.078 128 268.48 128H264c0-28.719-11.68-54.719-30.48-73.52-10.961-10.96-24.32-19.52-39.282-24.64l7.602-7.68A48.392 48.392 0 0 1 236 8c8.64 0 16.96 2.32 24.16 6.559 7.281 4.16 13.442 10.242 17.762 17.761C289.762 53.121 296 76.56 296 100.48zm0 0M118.16 22.16l7.68 7.68C85.2 43.84 56 82.559 56 128h-4.48c-7.598 0-14.48-3.04-19.442-8.078C27.04 114.96 24 108.078 24 100.48c0-23.921 6.238-47.359 18.078-68.16 4.32-7.52 10.48-13.601 17.762-17.761A47.593 47.593 0 0 1 84 8c12.8 0 25.121 5.121 34.16 14.16zm0 0" fill="#cf9e76"/><path d="M125.84 29.84C136.559 26 148 24 160 24s23.52 2 34.238 5.84c14.961 5.12 28.32 13.68 39.282 24.64C252.32 73.281 264 99.281 264 128v32c0 5.52-1.121 10.8-3.121 15.602C254.8 189.922 240.559 200 224 200c0-17.68-7.2-33.68-18.719-45.281-11.281-11.2-26.64-18.239-43.68-18.64-.48-.079-1.042-.079-1.601-.079s-1.121 0-1.602.078c-17.039.402-32.398 7.442-43.68 18.64C103.2 166.32 96 182.32 96 200c-22.078 0-40-17.922-40-40v-32c0-45.441 29.2-84.16 69.84-98.16zm0 0" fill="#ecc19c"/><path d="M161.602 136.078c17.039.402 32.398 7.442 43.68 18.64C216.8 166.32 224 182.32 224 200c0 8.8-3.602 16.8-9.36 22.64C208.8 228.399 200.8 232 192 232h-64c-5.52 0-10.719-1.441-15.2-3.84-10-5.441-16.8-16-16.8-28.16 0-17.68 7.2-33.68 18.719-45.281 11.281-11.2 26.64-18.239 43.68-18.64zm0 0" fill="#b27946"/><path d="M161.602 136.078c8.078.8 14.398 7.684 14.398 15.922 0 8.8-7.2 16-16 16s-16-7.2-16-16c0-8.238 6.32-15.121 14.398-15.922.48-.078 1.043-.078 1.602-.078s1.121 0 1.602.078zm0 0" fill="#838f9b"/><path d="M484.91 267.512c7.363-17.176 11.09-35.344 11.09-54.016 0-36.633-14.266-71.07-40.168-96.976l-5.207-5.207c-4.715-4.711-10.984-7.313-17.656-7.313-13.77 0-24.969 11.2-24.969 24.969v1.078a25.091 25.091 0 0 0 5.473 15.601l8.918 11.16C433.742 170.993 440 188.817 440 206.993a79.883 79.883 0 0 1-5.754 29.832l-8.008 20.024c-.687-.274-1.351-.582-2.047-.848-55.128-15.184-106.863-43.297-149.605-81.297l-3.961-3.52c.871-3.59 1.375-7.328 1.375-11.183v-24.352c17.91-1.793 32-16.777 32-35.16 0-25.273-6.625-50.215-19.16-72.136C274.848 10.863 256.137 0 235.992 0c-15.023 0-29.16 5.848-39.785 16.48l-4.23 4.23C181.832 17.68 171.113 16 160 16s-21.832 1.68-31.977 4.71l-4.23-4.23C113.168 5.848 99.031 0 84.008 0 63.863 0 45.152 10.863 35.16 28.352A145.544 145.544 0 0 0 16 100.488c0 18.375 14.09 33.36 32 35.16V160c0 24 17.719 43.879 40.742 47.39 1.899 10.06 7.586 18.723 15.504 24.61H104c0 15.633 2.984 30.824 8.352 45.047 1.351 28.32 7.046 56.144 17.007 82.707a103.787 103.787 0 0 1 6.625 34.832l-22.96 9.184C102.68 407.91 96 417.785 96 428.922 96 443.848 108.152 456 123.078 456H208c13.23 0 24-10.77 24-24v-61.258c14.734 3.434 29.8 5.258 44.969 5.258h27.062c0 .191-.023.375-.023.566V392h-24c-17.649 0-32 14.352-32 32s14.351 32 32 32h133.855c19 0 36.856-7.398 50.29-20.832C484.687 414.625 496 387.312 496 358.266c0-24.008-8.07-46.754-22.016-65.243zm-50.023-120.703l-8.918-11.16a8.98 8.98 0 0 1-1.969-5.602v-1.078c0-4.946 4.023-8.969 8.969-8.969 2.398 0 4.648.938 6.344 2.625l5.207 5.207c22.878 22.879 35.48 53.305 35.48 85.664 0 16.496-3.297 32.55-9.793 47.719l-7.969 18.594c-6.43-6.153-13.613-11.586-21.511-16.082l8.378-20.957A95.907 95.907 0 0 0 456 206.992c0-21.8-7.504-43.168-21.113-60.183zM235.992 16c14.414 0 27.809 7.777 34.961 20.29A129.579 129.579 0 0 1 288 100.487c0 9.696-7.137 17.703-16.426 19.2-3.023-40.864-28.023-75.618-63.238-92.567C215.848 19.992 225.594 16 235.992 16zM48.426 119.688C39.136 118.19 32 110.184 32 100.488 32 78 37.895 55.801 49.047 36.29 56.199 23.777 69.594 16 84.007 16c10.4 0 20.145 3.992 27.657 11.121-35.215 16.95-60.215 51.695-63.238 92.567zm40.191 71.367C74.535 187.703 64 175.098 64 160v-32c0-52.937 43.062-96 96-96s96 43.063 96 96v32c0 15.098-10.535 27.703-24.617 31.055C226.96 155.566 196.664 128 160 128s-66.96 27.566-71.383 63.055zM168 152c0 4.406-3.594 8-8 8s-8-3.594-8-8 3.594-8 8-8 8 3.594 8 8zm-31.734-2.648c-.098.878-.266 1.746-.266 2.648 0 10.414 6.71 19.215 16 22.527v6.16l-21.656 21.657 11.312 11.312L160 195.313l18.344 18.343 11.312-11.312L168 180.688v-6.16c9.29-3.313 16-12.114 16-22.528 0-.902-.168-1.77-.266-2.648C202.762 158.305 216 177.609 216 200c0 13.23-10.77 24-24 24h-64c-13.23 0-24-10.77-24-24 0-22.39 13.238-41.695 32.266-50.648zm-3.563 163.062c5.145 6.313 10.817 12.266 17.2 17.586.937.777 1.898 1.52 2.84 2.281 2.402 9.27 5.241 18.438 8.624 27.473a103.787 103.787 0 0 1 6.625 34.832L152 400.984v-4.632c0-14.465-2.574-28.664-7.656-42.215-5.098-13.594-8.918-27.543-11.64-41.723zM112 428.922c0-4.555 2.734-8.594 6.969-10.29l14.312-5.73c-3.336 4.54-5.281 10.082-5.281 16.02 0 3.957.895 7.687 2.434 11.078h-7.356c-6.101 0-11.078-4.977-11.078-11.078zm340.832-5.067C442.426 434.265 428.574 440 413.855 440H280c-8.824 0-16-7.176-16-16s7.176-16 16-16h80v-16h-40v-15.434c0-34.343 13.375-66.628 37.656-90.91l-11.312-11.312c-23.352 23.351-37.649 53.32-41.32 85.656H276.96c-15.191 0-30.274-2-44.969-5.742V312h-16v120c0 4.406-3.594 8-8 8H155.07c-6.093 0-11.07-4.977-11.07-11.078 0-4.555 2.734-8.594 6.969-10.29L184 405.415v-9.062c0-14.465-2.574-28.664-7.656-42.215C165.504 325.215 160 294.887 160 264h-16c0 13.672 1.07 27.238 3.098 40.64-15.746-18.273-25.13-41.113-26.7-65.41 2.465.48 5 .77 7.602.77h64c19.52 0 35.77-14.078 39.258-32.61 13.582-2.07 25.316-9.804 32.652-20.765l.05.04c44.567 39.616 98.505 68.92 155.345 84.55 36.304 13.379 60.695 48.36 60.695 87.05 0 24.774-9.648 48.07-27.168 65.59zm0 0"/><path d="M216 96a8 8 0 1 1-16 0 8 8 0 0 1 16 0zm0 0M120 96a8 8 0 1 1-16 0 8 8 0 0 1 16 0zm0 0M72.688 338.625C77.397 333.91 80 327.641 80 320.969 80 307.199 68.8 296 55.031 296c-5.496 0-10.718 1.762-15.031 5.023-4.313-3.261-9.535-5.023-15.031-5.023C11.199 296 0 307.2 0 320.969c0 6.672 2.602 12.941 7.313 17.656L16 347.313v57.375l-8.688 8.687C2.603 418.09 0 424.359 0 431.031 0 444.801 11.2 456 24.969 456c5.496 0 10.718-1.762 15.031-5.023 4.313 3.261 9.535 5.023 15.031 5.023C68.801 456 80 444.8 80 431.031c0-6.672-2.602-12.941-7.313-17.656L64 404.687v-57.375zm-11.313 86.063A8.937 8.937 0 0 1 64 431.03c0 4.946-4.023 8.969-8.969 8.969a8.937 8.937 0 0 1-6.343-2.625L40 428.687l-8.688 8.688A8.937 8.937 0 0 1 24.97 440c-4.946 0-8.969-4.023-8.969-8.969 0-2.398.938-4.648 2.625-6.344L32 411.313v-70.625l-13.375-13.375A8.937 8.937 0 0 1 16 320.97c0-4.946 4.023-8.969 8.969-8.969 2.398 0 4.648.938 6.343 2.625L40 323.313l8.688-8.688A8.937 8.937 0 0 1 55.03 312c4.946 0 8.969 4.023 8.969 8.969a8.937 8.937 0 0 1-2.625 6.344L48 340.688v70.625zm0 0"/></svg>