<svg height="496pt" viewBox="0 0 496 496" width="496pt" xmlns="http://www.w3.org/2000/svg"><path d="M432 16v48c0 4.398-3.602 8-8 8H312c-4.398 0-8-3.602-8-8V16c0-4.398 3.602-8 8-8h112c4.398 0 8 3.602 8 8zm0 0" fill="#aab2bd"/><path d="M472 141.281V328H352l-1.281-.48c.883-2.32 1.281-4.88 1.281-7.52v-8h-16c-2.64 0-5.2.398-7.52 1.281L328 312v-1.36A54.687 54.687 0 0 0 312 272h128v-96h-52.8L368 144l-19.2 32H296v96h16a110.246 110.246 0 0 1-20.64 28.64L280 312l-.398 1.602a44.42 44.42 0 0 0-11.84-1.602H264V141.281c0-8.48 3.36-16.64 9.36-22.64L320 72h96l46.64 46.64c6 6 9.36 14.16 9.36 22.641zm0 0" fill="#69d6f4"/><path d="M280 424.48V424l9.121-16H472c8.8 0 16 7.2 16 16v48c0 8.8-7.2 16-16 16H264c-8.8 0-16-7.2-16-16v-32h16c8.64 0 15.762-6.96 16-15.52zm0 0M488 344v48c0 8.8-7.2 16-16 16H289.121l17.04-29.762a44.366 44.366 0 0 0 5.839-22 44.42 44.42 0 0 0-1.602-11.84L312 344h16c10.64 0 19.602-6.879 22.719-16.48L352 328h120c8.8 0 16 7.2 16 16zm0 0" fill="#dfb28b"/><path d="M192 16v48c0 4.398-3.602 8-8 8H72c-4.398 0-8-3.602-8-8V16c0-4.398 3.602-8 8-8h112c4.398 0 8 3.602 8 8zm0 0" fill="#aab2bd"/><path d="M232 141.281V312h-3.762a44.42 44.42 0 0 0-11.84 1.602L216 312l-11.36-11.36A110.246 110.246 0 0 1 184 272h16v-96h-52.8L128 144l-20.48 34.16L104 176H56v96h128a54.687 54.687 0 0 0-16 38.64V312l-.48 1.281c-2.32-.883-4.88-1.281-7.52-1.281h-16v8c0 2.64.398 5.2 1.281 7.52L144 328H24V141.281c0-8.48 3.36-16.64 9.36-22.64L80 72h96l46.64 46.64c6 6 9.36 14.16 9.36 22.641zm0 0" fill="#69d6f4"/><path d="M206.879 408H24c-8.8 0-16-7.2-16-16v-48c0-8.8 7.2-16 16-16h120l1.281-.48C148.398 337.12 157.36 344 168 344h16l1.602.398a44.42 44.42 0 0 0-1.602 11.84c0 7.684 2 15.282 5.84 22zm0 0M216 424.48c.238 8.56 7.36 15.52 16 15.52h16v32c0 8.8-7.2 16-16 16H24c-8.8 0-16-7.2-16-16v-48c0-8.8 7.2-16 16-16h182.879L216 424zm0 0" fill="#dfb28b"/><path d="M289.121 408L280 424v.48c-.16-4.48-2-8.558-4.96-11.52a17.068 17.068 0 0 0-12-4.96c-4.481 0-8.802 1.762-12 4.96L248 416l-3.04-3.04c-3.198-3.198-7.519-4.96-12-4.96-9.198 0-16.722 7.36-16.96 16.48V424l-9.121-16-17.04-29.762a44.366 44.366 0 0 1-5.839-22c0-4.078.559-8.078 1.602-11.84a44.254 44.254 0 0 1 11.359-19.437c5.36-5.36 12-9.281 19.437-11.36a44.42 44.42 0 0 1 11.84-1.601h39.524c4.078 0 8.078.559 11.84 1.602 14.878 4.16 26.636 15.918 30.796 30.796a44.42 44.42 0 0 1 1.602 11.84c0 7.684-2 15.282-5.84 22zm0 0" fill="#e6e9ed"/><path d="M280 424.48c-.238 8.56-7.36 15.52-16 15.52h-32c-8.64 0-15.762-6.96-16-15.52.238-9.12 7.762-16.48 16.96-16.48 4.481 0 8.802 1.762 12 4.96L248 416l3.04-3.04c3.198-3.198 7.519-4.96 12-4.96 4.64 0 8.96 1.922 12 4.96 2.96 2.962 4.8 7.04 4.96 11.52zm0 0" fill="#969faa"/><path d="M352 312v8c0 2.64-.398 5.2-1.281 7.52C347.602 337.12 338.64 344 328 344h-16v-8c0-10.64 6.879-19.602 16.48-22.719 2.32-.883 4.88-1.281 7.52-1.281zm0 0M184 336v8h-16c-10.64 0-19.602-6.879-22.719-16.48-.883-2.32-1.281-4.88-1.281-7.52v-8h16c2.64 0 5.2.398 7.52 1.281C177.12 316.398 184 325.36 184 336zm0 0" fill="#ecc19c"/><g fill="#e6e9ed"><path d="M328 312l.48 1.281C318.88 316.398 312 325.36 312 336v8l-1.602.398c-4.16-14.878-15.918-26.636-30.796-30.796L280 312l11.36-11.36A110.246 110.246 0 0 0 312 272a54.687 54.687 0 0 1 16 38.64zm0 0M216 312l.398 1.602a44.254 44.254 0 0 0-19.437 11.359c-5.36 5.36-9.281 12-11.36 19.437L184 344v-8c0-10.64-6.879-19.602-16.48-22.719L168 312v-1.36A54.687 54.687 0 0 1 184 272a110.246 110.246 0 0 0 20.64 28.64zm0 0M440 176v96H296v-96h52.8l-1.359 2.32c-2.242 3.68-3.441 8-3.441 12.32V192c0 13.281 10.719 24 24 24s24-10.719 24-24v-1.36c0-4.32-1.2-8.64-3.441-12.32l-1.36-2.32zm0 0"/></g><path d="M387.2 176l1.359 2.32c2.242 3.68 3.441 8 3.441 12.32V192c0 13.281-10.719 24-24 24s-24-10.719-24-24v-1.36c0-4.32 1.2-8.64 3.441-12.32l1.36-2.32L368 144zm0 0" fill="#69d6f4"/><path d="M200 176v96H56v-96h48l3.52 2.16-.079.16c-2.242 3.68-3.441 8-3.441 12.32V192c0 13.281 10.719 24 24 24s24-10.719 24-24v-1.36c0-4.32-1.2-8.64-3.441-12.32l-1.36-2.32zm0 0" fill="#e6e9ed"/><path d="M147.2 176l1.359 2.32c2.242 3.68 3.441 8 3.441 12.32V192c0 13.281-10.719 24-24 24s-24-10.719-24-24v-1.36c0-4.32 1.2-8.64 3.441-12.32l.079-.16L128 144zm0 0" fill="#69d6f4"/><path d="M160 312h-16v8c0 13.258 10.742 24 24 24h16v-8c0-13.258-10.742-24-24-24zm0 0M336 312c-13.258 0-24 10.742-24 24v8h16c13.258 0 24-10.742 24-24v-8zm0 0" fill="#e6e9ed"/><path d="M288 352a8 8 0 1 1-16 0 8 8 0 0 1 16 0zm0 0M224 352a8 8 0 1 1-16 0 8 8 0 0 1 16 0zm0 0M152 264H64v-80h32.777c-.472 2.184-.777 4.398-.777 6.648V192c0 17.648 14.352 32 32 32s32-14.352 32-32v-1.352c0-2.25-.305-4.464-.777-6.648H192v64h16v-80h-56.273L128 128.457l-24 40V168H48v112h104zm-40-73.352c0-2.894.793-5.753 2.281-8.234L128 159.543l13.71 22.855a16.073 16.073 0 0 1 2.29 8.25V192c0 8.824-7.176 16-16 16s-16-7.176-16-16zm0 0"/><path d="M496 344c0-10.414-6.71-19.215-16-22.527V141.258c0-10.692-4.16-20.738-11.71-28.29l-35.587-35.577C437.09 74.535 440 69.609 440 64V16c0-8.824-7.176-16-16-16H312c-8.824 0-16 7.176-16 16v48c0 5.61 2.91 10.535 7.297 13.39L267.71 112.97c-7.55 7.55-11.711 17.597-11.711 28.289V304h-16V141.258c0-10.692-4.16-20.738-11.71-28.29l-35.587-35.577C197.09 74.535 200 69.609 200 64V16c0-8.824-7.176-16-16-16H72c-8.824 0-16 7.176-16 16v48c0 5.61 2.91 10.535 7.297 13.39L27.71 112.97C20.16 120.519 16 130.566 16 141.258v180.215C6.71 324.785 0 333.586 0 344v48c0 6.168 2.406 11.742 6.238 16C2.406 412.258 0 417.832 0 424v48c0 13.23 10.77 24 24 24h208c6.168 0 11.742-2.406 16-6.238 4.258 3.84 9.832 6.238 16 6.238h208c13.23 0 24-10.77 24-24v-48c0-6.168-2.406-11.742-6.238-16 3.84-4.258 6.238-9.832 6.238-16zm-215.559 63.105c-4.496-4.394-10.64-7.105-17.41-7.105A24.837 24.837 0 0 0 248 405.023 24.837 24.837 0 0 0 232.969 400c-6.77 0-12.914 2.71-17.41 7.105l-18.782-32.875A36.328 36.328 0 0 1 192 356.246C192 336.258 208.266 320 228.246 320h39.508c19.98 0 36.246 16.258 36.246 36.246a36.35 36.35 0 0 1-4.777 17.984zM232 432a8.003 8.003 0 0 1-7.984-7.527c.257-4.711 4.175-8.473 8.953-8.473 2.398 0 4.648.93 6.344 2.625l8.687 8.688 8.688-8.688A8.905 8.905 0 0 1 263.03 416c4.778 0 8.696 3.762 8.953 8.473A8.003 8.003 0 0 1 264 432zm-55.855-123.473c.351-7.984 2.617-15.625 6.726-22.304a118.502 118.502 0 0 0 16.121 20.082l4.145 4.144c-5.489 3.016-10.344 7.016-14.41 11.719a31.964 31.964 0 0 0-12.582-13.64zM176 336h-8c-8.824 0-16-7.176-16-16h8c8.824 0 16 7.176 16 16zm168-16c0 8.824-7.176 16-16 16h-8c0-8.824 7.176-16 16-16zm-36.727 2.168c-4.066-4.703-8.93-8.695-14.41-11.719l4.145-4.144a118.12 118.12 0 0 0 16.12-20.082c4.11 6.68 6.376 14.32 6.727 22.304a31.964 31.964 0 0 0-12.582 13.641zm5.84 60A52.29 52.29 0 0 0 320 356.246c0-1.43-.105-2.848-.215-4.246H328c11.793 0 22-6.48 27.55-16H472c4.406 0 8 3.586 8 8v48c0 4.414-3.594 8-8 8H302.93zM312 16h112v48H312zm-32.977 108.281L323.313 80h89.375l44.289 44.281c4.527 4.535 7.023 10.559 7.023 16.977V320H360v-16h-24c-.121 0-.23.031-.36.04-1.48-14.24-7.73-27.438-17.984-37.696l-7.847-7.84-4.97 9.922a102.03 102.03 0 0 1-19.151 26.566l-9.72 9.719c-1.312-.207-2.632-.39-3.976-.496V141.258c.008-6.418 2.504-12.442 7.031-16.977zM72 16h112l.008 48H72zM39.023 124.281L83.313 80h89.374l44.29 44.281c4.527 4.535 7.023 10.559 7.023 16.977v162.957c-1.344.113-2.664.289-3.977.496l-9.718-9.719a102.07 102.07 0 0 1-19.153-26.566l-4.968-9.922-7.848 7.84c-10.266 10.258-16.504 23.449-17.984 37.695-.122-.008-.23-.039-.352-.039h-24v16H32V141.258c0-6.418 2.496-12.442 7.023-16.977zM16 344c0-4.414 3.594-8 8-8h116.45c5.55 9.52 15.757 16 27.55 16h8.215c-.11 1.406-.215 2.816-.215 4.246a52.29 52.29 0 0 0 6.887 25.922L193.07 400H24c-4.406 0-8-3.586-8-8zm216 136H24c-4.406 0-8-3.586-8-8v-48c0-4.414 3.594-8 8-8h178.215l6.023 10.535C209.528 438.566 219.633 448 232 448h8v24c0 4.414-3.594 8-8 8zm248-8c0 4.414-3.594 8-8 8H264c-4.406 0-8-3.586-8-8v-24h8c12.367 0 22.473-9.434 23.762-21.465L293.785 416H472c4.406 0 8 3.586 8 8zm0 0"/><path d="M304 184h32.777c-.472 2.184-.777 4.398-.777 6.648V192c0 17.648 14.352 32 32 32s32-14.352 32-32v-1.352c0-2.25-.305-4.464-.777-6.648H432v80h-88v16h104V168h-56.273L368 128.457 344.273 168H288v80h16zm64-24.457l13.71 22.855a16.073 16.073 0 0 1 2.29 8.25V192c0 8.824-7.176 16-16 16s-16-7.176-16-16v-1.352c0-2.894.793-5.753 2.281-8.234zm0 0"/></svg>