<svg height="496pt" viewBox="0 0 496.008 496" width="496pt" xmlns="http://www.w3.org/2000/svg"><path d="M208.64 79.766l61.919 136.238H240c-4 0-7.84.96-11.121 2.719l-63.04-138.72H208zm0 0M181.2 19.445l9.359 20.559h-42.957l-1.84-4.16c-1.203-2.559-1.762-5.282-1.762-8.078v-.32c0-5.36 2.16-10.243 5.68-13.762a19.408 19.408 0 0 1 13.761-5.68c7.68 0 14.559 4.48 17.758 11.441zm0 0" fill="#aab2bd"/><path d="M190.559 40.004l18.082 39.762-.641.238H72.719L54.8 40.562 56 40.005zm0 0" fill="#969faa"/><path d="M72.719 80.004l69.441 152.8 16.078 35.36c1.203 2.559 1.762 5.281 1.762 8.078v.32c0 5.364-2.16 10.243-5.68 13.762a19.408 19.408 0 0 1-13.761 5.68c-7.68 0-14.559-4.48-17.758-11.442l-23.922-52.558L9.762 35.844C8.559 33.285 8 30.562 8 27.766v-.32C8 16.722 16.719 8.003 27.441 8.003c7.68 0 14.559 4.48 17.758 11.441l9.602 21.117zm0 0" fill="#aab2bd"/><path d="M342.64 229.285l9.36 18.719h-64c-4.398 0-8 3.601-8 8v40h-64v-56c0-9.281 5.2-17.281 12.879-21.281 3.281-1.758 7.121-2.72 11.121-2.72h81.2c9.038 0 17.359 5.122 21.44 13.282zm0 0" fill="#ff826e"/><g fill="#e6e9ed"><path d="M312 248.004h32v48h-32zm0 0M312 248.004v48h-32v-40c0-4.399 3.602-8 8-8zm0 0M352 248.004l24 48h-32v-48zm0 0"/></g><path d="M144 344.004c-34.398 0-63.2 24.16-70.32 56.398l-1.68-.398H56c-8.8 0-16-7.2-16-16v-136c0-8.8 7.2-16 16-16h42.879l23.922 52.558c3.199 6.961 10.078 11.442 17.758 11.442 5.363 0 10.242-2.16 13.761-5.68a19.408 19.408 0 0 0 5.68-13.761v-.32c0-2.798-.559-5.52-1.762-8.079l-16.078-35.36 1.84-.8h36.879c6.723 0 12.64 4.16 15.043 10.398L216 296.004h-16.8c-9.278 0-17.759 5.36-21.68 13.762l-17.04 36.16c-5.28-1.281-10.8-1.922-16.48-1.922zm0 0" fill="#fcd770"/><path d="M344 400.004H216l-1.68.398c-6-26.957-27.039-48.238-53.84-54.476l17.04-36.16c3.921-8.403 12.402-13.762 21.68-13.762h190.96c10.559 0 19.918 6.96 22.961 17.121L432 376.004c-19.36 0-36.398 9.762-46.48 24.719l-1.52-.72zm0 0" fill="#ff826e"/><path d="M384 400.004l1.52.719c-6 8.882-9.52 19.601-9.52 31.28H216l-1.68-.398c1.121-5.043 1.68-10.242 1.68-15.601s-.559-10.559-1.68-15.602l1.68-.398zm0 0" fill="#ccd1d9"/><path d="M432 376.004c30.96 0 56 25.039 56 56 0 30.96-25.04 56-56 56s-56-25.04-56-56c0-11.68 3.52-22.399 9.52-31.281 10.082-14.957 27.12-24.72 46.48-24.72zm0 0M160.48 345.926c26.801 6.238 47.84 27.52 53.84 54.476 1.121 5.043 1.68 10.243 1.68 15.602s-.559 10.558-1.68 15.601c-7.12 32.239-35.922 56.399-70.32 56.399-39.762 0-72-32.238-72-72 0-5.36.559-10.559 1.68-15.602 7.12-32.238 35.922-56.398 70.32-56.398 5.68 0 11.2.64 16.48 1.922zm0 0" fill="#838f9b"/><path d="M456 432.004c0 13.254-10.746 24-24 24s-24-10.746-24-24 10.746-24 24-24 24 10.746 24 24zm0 0M184 416.004c0 22.09-17.91 40-40 40s-40-17.91-40-40 17.91-40 40-40 40 17.91 40 40zm0 0" fill="#e6e9ed"/><path d="M438.047 368.309L420.8 310.813c-4.098-13.641-16.418-22.81-30.656-22.81h-9.192l-31.16-62.312c-5.457-10.902-16.426-17.687-28.625-17.687h-45.465l-87.23-191.887c-4.442-9.793-14.258-16.113-25-16.113C148.32.004 136 12.324 136 27.789c0 1.406.23 2.816.457 4.215h-76.77l-7.214-15.887C48.03 6.324 38.215.004 27.473.004 12.32.004 0 12.324 0 27.789c0 3.895.848 7.824 2.465 11.367l84.023 184.848H56c-13.23 0-24 10.77-24 24v136c0 13.23 10.77 24 24 24h8.406a80.774 80.774 0 0 0-.406 8c0 44.113 35.887 80 80 80 35.754 0 66.09-23.582 76.313-56h148.246c3.96 31.52 30.875 56 63.449 56 35.289 0 64-28.711 64-64-.008-33.246-25.504-60.633-57.961-63.695zm-32.574-52.907l16.054 53.54c-15.847 2.62-29.75 11.046-39.406 23.062H352v-40h-16v40h-16v-40h-16v40h-16v-40h-16v40h-16v-40h-16v40h-19.688c-7.44-23.61-25.593-42.441-48.687-50.984l13.117-27.848c2.625-5.567 8.313-9.168 14.473-9.168h190.922c7.129 0 13.289 4.586 15.336 11.398zM85.145 88.004h75.52l58.23 128.129c-6.622 5.863-10.895 14.336-10.895 23.87v11.888l-4.617-12.313c-3.488-9.316-12.52-15.574-22.473-15.574H146.97zm234.855 200v-32h16v32zm-16 0h-16v-32h16zm48 0V265.89l11.055 22.113zm-16.52-55.16l3.575 7.16H288c-8.824 0-16 7.176-16 16v32h-48v-48c0-8.824 7.176-16 16-16h81.168c6.098 0 11.586 3.39 14.312 8.84zM240 208.004c-2.36 0-4.648.297-6.863.785L178.238 88.004h25.336l54.547 120zM152 27.477c0-6.32 5.152-11.473 11.473-11.473 4.488 0 8.574 2.64 10.437 6.726l4.211 9.274h-25.273a12.097 12.097 0 0 1-.848-4.527zm33.39 20.527l10.915 24H77.87l-10.902-24zM16 27.477c0-6.32 5.152-11.473 11.473-11.473 4.488 0 8.574 2.64 10.437 6.726l113.074 248.754c.664 1.473 1.016 3.106 1.016 5.047 0 6.32-5.152 11.473-11.473 11.473-4.488 0-8.574-2.64-10.437-6.727L17.023 32.523C16.352 31.051 16 29.422 16 27.477zm40 364.527c-4.414 0-8-3.582-8-8v-136c0-4.414 3.586-8 8-8h37.762l21.765 47.887c4.442 9.793 14.258 16.113 25 16.113 15.153 0 27.473-12.32 27.473-27.785 0-3.895-.848-7.832-2.465-11.367l-11.297-24.848h26.672c3.313 0 6.32 2.09 7.488 5.191l16.059 42.809h-5.234c-12.328 0-23.696 7.2-28.942 18.351L155.84 336.98c-3.88-.578-7.809-.976-11.84-.976-35.754 0-66.09 23.586-76.313 56zm88 88c-35.29 0-64-28.711-64-64 0-35.29 28.71-64 64-64s64 28.71 64 64c0 35.289-28.71 64-64 64zm79.594-72H372.71a63.91 63.91 0 0 0-4.16 16H223.594c.261-2.633.406-5.297.406-8s-.145-5.367-.406-8zm208.406 72c-26.473 0-48-21.527-48-48s21.527-48 48-48 48 21.527 48 48-21.527 48-48 48zm0 0"/><path d="M432 400.004c-17.648 0-32 14.351-32 32 0 17.648 14.352 32 32 32s32-14.352 32-32c0-17.649-14.352-32-32-32zm0 48c-8.824 0-16-7.176-16-16s7.176-16 16-16 16 7.176 16 16-7.176 16-16 16zm0 0M144 368.004c-9.414 0-18.559 2.77-26.457 7.984l8.84 13.344c5.265-3.488 11.351-5.328 17.617-5.328 17.648 0 32 14.351 32 32 0 6.266-1.84 12.351-5.328 17.61l13.344 8.84c5.214-7.892 7.984-17.032 7.984-26.45 0-26.473-21.527-48-48-48zm0 0M144 448.004c-17.648 0-32-14.352-32-32 0-6.266 1.84-12.352 5.328-17.61l-13.344-8.84C98.77 397.446 96 406.59 96 416.005c0 26.473 21.527 48 48 48 9.414 0 18.559-2.77 26.457-7.984l-8.84-13.344c-5.265 3.488-11.351 5.328-17.617 5.328zm0 0"/></svg>