<svg height="496pt" viewBox="0 0 496 496" width="496pt" xmlns="http://www.w3.org/2000/svg"><path d="M472 319.797c8.8 0 16 7.2 16 16 0 4.402-1.762 8.402-4.719 11.281-2.883 2.961-6.883 4.719-11.281 4.719h-40v-32zm0 0M360 319.797h72v32h-72zm0 0" fill="#d3a06c"/><path d="M247.52 319.797H360v144H247.52c19.921-17.598 32.48-43.36 32.48-72s-12.559-54.399-32.48-72zm0 0M32 319.797h88.48c-19.921 17.601-32.48 43.36-32.48 72s12.559 54.402 32.48 72H8v-144zm0 0" fill="#dfb28b"/><path d="M247.52 319.797c19.921 17.601 32.48 43.36 32.48 72s-12.559 54.402-32.48 72c-16.88 14.96-39.122 24-63.52 24s-46.64-9.04-63.52-24c-19.921-17.598-32.48-43.36-32.48-72s12.559-54.399 32.48-72c16.88-14.957 39.122-24 63.52-24s46.64 9.043 63.52 24zm0 0" fill="#838f9b"/><path d="M239.441 359.797c-11.043-19.117-31.761-32-55.441-32s-44.398 12.883-55.441 32c-5.438 9.36-8.559 20.32-8.559 32s3.121 22.64 8.559 32c11.043 19.121 31.761 32 55.441 32s44.398-12.879 55.441-32c5.438-9.36 8.559-20.32 8.559-32s-3.121-22.64-8.559-32zm0 0" fill="#e6e9ed"/><path d="M335.52 316.277l.48 3.52h-88.48c-16.88-14.957-39.122-24-63.52-24s-46.64 9.043-63.52 24H32l.48-3.52c4.961-40.16 15.598-79.359 31.52-116.48l24-16 32 48 40-32 24 32 24-32 40 32 32-48 24 16c15.922 37.121 26.559 76.32 31.52 116.48zm0 0M85.2 123.719L64 135.797c7.84-23.36 19.2-45.2 33.762-64.719 14.558-19.441 32.16-36.719 52.398-50.8l4.719-3.282c8.562-6 18.723-9.2 29.121-9.2s20.559 3.2 29.121 9.2l4.719 3.281c40.398 28.243 70.558 68.801 86.16 115.52l-21.2-12.078-34.8-19.922-8 32-32-32-24 24-24-24-32 32-8-32zm0 0" fill="#ffeaa7"/><path d="M318.078 189.238L328 215.797l-48-32-32 48-40-32-24 32-24-32-40 32-32-48-48 32 9.922-26.559c8.797-23.281 20.637-45.36 35.277-65.52L120 103.798l8 32 32-32 24 24 24-24 32 32 8-32 34.8 19.922c14.641 20.16 26.481 42.238 35.278 65.52zm0 0" fill="#fcd770"/><path d="M184 319.797c-39.695 0-72 32.297-72 72 0 39.707 32.305 72 72 72s72-32.293 72-72c0-39.703-32.305-72-72-72zm56 72c0 7.336-1.457 14.336-4.04 20.762L200 391.797l35.96-20.758c2.583 6.422 4.04 13.422 4.04 20.758zm-112 0c0-7.336 1.457-14.336 4.04-20.758L168 391.797l-35.96 20.762c-2.583-6.426-4.04-13.426-4.04-20.762zm99.938-34.606L192 377.941v-41.503c14.52 2.09 27.246 9.738 35.938 20.753zM176 336.438v41.503l-35.938-20.75c8.692-11.015 21.418-18.664 35.938-20.753zm-35.938 89.968L176 405.652v41.504c-14.52-2.086-27.238-9.734-35.938-20.75zM192 447.156v-41.504l35.938 20.754c-8.7 11.016-21.418 18.664-35.938 20.75zm0 0"/><path d="M472 311.797H343a439.005 439.005 0 0 0-22.281-91.238l23.48 15.656-18.664-49.77c-5.152-13.734-11.414-26.984-18.582-39.742l11.254 6.43-6.621-19.863c-16.02-48.04-47.684-90.497-89.18-119.543l-4.71-3.305c-19.856-13.895-47.528-13.895-67.391 0l-4.72 3.297c-41.495 29.047-73.16 71.504-89.179 119.543l-6.62 19.863 11.253-6.43c-7.168 12.75-13.43 26.008-18.582 39.743l-18.664 49.769 23.48-15.656A439.674 439.674 0 0 0 25 311.797H0v160h117.64c18.024 14.976 41.153 24 66.36 24s48.336-9.024 66.36-24H368v-112h104c13.23 0 24-10.766 24-24 0-13.23-10.77-24-24-24zM79.687 117.62c16.344-36.23 42.458-67.96 75.075-90.793l4.71-3.3c14.458-10.122 34.59-10.122 49.04 0l4.71 3.3c32.618 22.832 58.731 54.555 75.075 90.793l-.145-.078c-.609-.832-1.144-1.715-1.77-2.535l-1.16.87-42.437-24.25-7.137 28.536L208 92.484l-24 24-24-24-27.664 27.664-7.137-28.535-42.437 24.25-1.16-.867c-.618.824-1.16 1.707-1.77 2.54zM57.45 192.063c8.32-22.208 19.64-43.122 33.438-62.41l23.914-13.665 8.863 35.465L160 115.11l24 24 24-24 36.336 36.336 8.863-35.465 23.914 13.665c13.79 19.289 25.11 40.203 33.438 62.41l1.25 3.328-34.016-22.68-31.601 47.39-39.633-31.702L184 218.46l-22.55-30.07-39.634 31.703-31.601-47.39-34.016 22.679zm13.031 13.03l15.305-10.198 32.399 48.609 40.367-32.297L184 245.133l25.45-33.926 40.366 32.297 32.399-48.61 15.305 10.2c14.41 34.136 24.25 70 29.32 106.703h-76.488c-18.024-14.977-41.153-24-66.36-24s-48.336 9.023-66.36 24h-76.48C46.23 275.094 56.07 239.23 70.48 205.094zM16 327.798h86.191C88.344 345.469 80 367.652 80 391.797s8.344 46.328 22.191 64H16zm168 152c-48.52 0-88-39.48-88-88s39.48-88 88-88 88 39.48 88 88-39.48 88-88 88zm81.809-24c13.847-17.672 22.191-39.856 22.191-64s-8.344-46.328-22.191-64H352v128zm102.191-128h56v16h-56zm104 16h-32v-16h32c4.406 0 8 3.586 8 8 0 4.418-3.594 8-8 8zm0 0"/><path d="M320 423.797h16v16h-16zm0 0M32 423.797h16v16H32zm0 0M320 343.797h16v16h-16zm0 0M32 343.797h16v16H32zm0 0"/></svg>