<svg height="496pt" viewBox="0 0 496 496" width="496pt" xmlns="http://www.w3.org/2000/svg"><path d="M160.48 216c7.918 9.04 17.2 17.121 27.36 23.922l6.48 4.238L160 248l-7.84 15.602C147.2 273.68 136.88 280 125.68 280c-8.239 0-15.602-3.36-20.961-8.719S96 258.56 96 250.321c0-11.923 3.84-23.442 11.04-32.962l29.679-39.597c5.84 14 13.84 26.879 23.761 38.238zm0 0" fill="#ecc19c"/><path d="M273.84 428.96L296 488h-24l-38.559-51.36c-6.082-8.242-9.441-18.16-9.441-28.402 0-10.558 3.52-20.718 10-29.039L280 320l1.602-.96a256.862 256.862 0 0 0 30.558 40.8l-.16.16-33.2 39.84a29.328 29.328 0 0 0-6.8 18.8c0 3.52.64 7.04 1.84 10.32zm0 0" fill="#d3a06c"/><path d="M263.762 143.36l-2.883 6.64c-17.438 39.922-56.8 65.84-100.399 66-9.921-11.36-17.921-24.238-23.761-38.238L192 104v24c8.48-12.8 19.602-23.52 32.48-31.602l11.282 8.403c13.039 9.758 22.797 23.199 28 38.558zm0 0" fill="#cf9e76"/><path d="M387.68 411.04c-1.04 4.401-2.239 8.722-3.68 12.96-5.281 15.922-8 32.559-8 49.281V488h-40c0-21.281-2.64-42.398-7.762-63.04L324 408c-2.64-10.64-4-21.52-4-32.48 0-2.48.078-5.04.238-7.52H320c-2.64-2.64-5.281-5.36-7.84-8.16a256.862 256.862 0 0 1-30.558-40.8 260.27 260.27 0 0 1-33.122-84.72L248 232l-1.2-2.238c-17.28 8.558-28.64 11.758-40.32 13.039l-12.16 1.36-6.48-4.24c-10.16-6.8-19.442-14.882-27.36-23.921 43.598-.16 82.961-26.078 100.399-66l2.883-6.64 17.84-40.72c.078 2.4.32 4.801.718 7.2 3.68 22.238 14.239 42.719 30.16 58.64L320 176l8-24c15.602 20.8 24 46 24 72v8l24-24 13.52 20.32c1.68 2.48 3.12 5.04 4.48 7.68 8.879 17.84 24.96 31.121 44.16 36.64L464 280l-16-24h40v192c-18.078 0-35.84-3.2-52.64-9.281-16.801-6.078-32.481-15.04-46.4-26.559zm0 0" fill="#cf9e76"/><g fill="#ffeaa7"><path d="M288 79.84c8.48 4.16 16.238 9.84 22.8 17.039L334.56 122.8c27.52 30 59.12 55.84 94 76.719C446.48 210.32 467.039 216 488 216v40h-40l16 24-25.84-7.36c-19.2-5.519-35.281-18.8-44.16-36.64-1.36-2.64-2.8-5.2-4.48-7.68L376 208l-24 24v-8c0-26-8.398-51.2-24-72l-8 24-7.52-7.52c-15.921-15.921-26.48-36.402-30.16-58.64-.398-2.399-.64-4.8-.718-7.2-.082-.718-.082-1.44-.082-2.16 0-6 .96-12 2.878-17.761.403-1.2.801-2.399 1.122-3.598zm0 0"/><path d="M254.879 10.879L256 8h8l3.68 3.68c6.48 6.48 11.52 14.16 15.039 22.48A69.576 69.576 0 0 1 288 60.72c0 6.16-.8 12.402-2.48 18.402-.32 1.2-.72 2.399-1.122 3.598a56.24 56.24 0 0 0-2.878 17.761c0 .72 0 1.442.082 2.16l-17.84 40.72c-5.203-15.36-14.961-28.801-28-38.56l-11.282-8.402a95.506 95.506 0 0 1 9.282-5.277L240 88c0-10.64.8-21.2 2.398-31.602 2.403-15.597 6.563-30.878 12.48-45.52zm0 0"/><path d="M224.48 96.398C211.602 104.48 200.48 115.2 192 128V88h-24l32-24-16-16 4-1.04A65.575 65.575 0 0 1 240 56l2.398.398A208.11 208.11 0 0 0 240 88l-6.238 3.121a95.506 95.506 0 0 0-9.282 5.277zm0 0"/></g><path d="M208 144h16v16h-16zm0 0M120 240h16v16h-16zm0 0"/><path d="M384 473.297c0-15.914 2.55-31.649 7.594-46.77.207-.632.351-1.289.558-1.918C419.895 444.848 453.504 456 488 456h8l-.008-248h-8a107.57 107.57 0 0 1-55.32-15.32 413.543 413.543 0 0 1-92.192-75.266l-23.816-25.973c-6.328-6.906-13.727-12.578-21.922-17.043.809-4.503 1.258-9.054 1.258-13.656 0-20.367-8.273-40.328-22.688-54.75l-6-5.992h-16.718l-3.16 7.887c-4.793 11.992-8.489 24.281-11.051 36.8-15.488-7.671-33.367-9.695-50.313-5.457l-17.71 4.45 19.456 19.457L144 96h40v5.336l-83.398 111.191C92.48 223.36 88 236.793 88 250.336 88 271.106 104.895 288 125.664 288c14.36 0 27.273-7.977 33.688-20.824l5.855-11.711 42.145-4.68c11.937-1.32 23.578-4.746 34.503-9.723a268.893 268.893 0 0 0 29.762 76.672l-43.969 56.532C220.137 383.937 216 396 216 408.23c0 11.891 3.93 23.672 11.062 33.176L256 480H81.762l.43-2.152c3.234-16.153 12.55-30.063 26.25-39.192l-8.876-13.312c-7.71 5.136-14.246 11.535-19.558 18.8V408H64v36.145c-5.313-7.266-11.855-13.657-19.559-18.801l-8.875 13.312c13.7 9.137 23.02 23.047 26.25 39.192l.422 2.152H32v16h432v-16h-80zm96-183.723L462.953 264H480zM328.68 128.223a429.949 429.949 0 0 0 95.77 78.168A123.408 123.408 0 0 0 480 223.734V248h-46.953l12.219 18.328-4.938-1.418c-17-4.848-31.289-16.71-39.191-32.52a79.16 79.16 0 0 0-4.946-8.511l-18.953-28.43-17.71 17.711c-2.055-23.762-10.801-46.84-25.137-65.953l-9.16-12.215-8.727 26.176c-13.91-14.559-23-32.711-26.313-52.633-1-6-.824-12.16.434-18.086a68.302 68.302 0 0 1 14.238 11.809zM248 92.945V88c0-24.543 4.45-48.574 13.223-71.473l.777.778c11.441 11.449 18 27.28 18 43.437 0 6.61-1.055 13.145-3.152 19.41-2.215 6.672-3.223 13.688-3.2 20.696l-10.113 23.12a88.666 88.666 0 0 0-22.976-25.542l-1.407-1.059zm-47.535-39.793c11.558-.648 23.176 2.176 33.168 8.274a218.56 218.56 0 0 0-1.578 21.605l-1.832.914A116.858 116.858 0 0 0 200 105.711V80h-8l20.176-15.137zm-1.809 79.29c6.856-10.274 15.625-19.098 25.656-26.212l6.649 4.985c10.992 8.25 19.176 19.351 24.101 32.105l-1.535 3.512c-15.703 35.887-50.496 59.441-89.39 61.008-7.297-8.809-13.375-18.594-18.176-29.13L184 127.993v26.422zm-43.863 108.085l-9.746 19.496C141.352 267.414 133.93 272 125.664 272 113.72 272 104 262.281 104 250.336c0-10.113 3.336-20.129 9.398-28.2L135.2 193.07c9.281 17.578 21.938 32.992 37.426 45.48zM272 176a51.697 51.697 0 0 1-23.063 43.098c-12.93 8.613-27.921 14.078-43.351 15.789l-9.29 1.035-4.015-2.676c-4.898-3.262-9.496-6.879-13.867-10.719 39.363-6.207 73.465-32.007 89.77-69.28l10.64-24.325c5.656 16.965 15.145 32.375 28 45.223l16.672 16.664 6.816-20.434C339.207 186.762 344 205.312 344 224v27.312l30.762-30.761 8.133 12.203a63.249 63.249 0 0 1 3.937 6.789c9.91 19.816 27.809 34.672 49.113 40.762L480 292.895v146.89c-30.406-1.672-59.664-12.906-83.512-31.953 2.246-10.887 3.512-21.96 3.512-33.129V352h-16v22.703c0 15.914-2.55 31.649-7.594 46.77A163.79 163.79 0 0 0 368 473.297V480h-24.246c-.578-19.215-3.098-38.344-7.754-56.984l-4.246-17A125.72 125.72 0 0 1 328 375.543c0-19.406 4.586-38.832 13.266-56.184l1.886-3.785-14.312-7.16-1.887 3.785c-5.976 11.961-10.21 24.793-12.617 37.961-29.176-33.238-49.106-73.32-57.922-116.945.457-.285.945-.512 1.395-.817C276.71 219.808 288 198.718 288 176zm44.23 233.895l4.25 16.992c4.344 17.379 6.704 35.21 7.282 53.113H301.55l-20.176-53.809a21.293 21.293 0 0 1-1.375-7.527c0-5.008 1.77-9.879 4.969-13.726l27.129-32.555c-.028 1.058-.098 2.113-.098 3.16 0 11.578 1.426 23.137 4.23 34.352zm-76.375 21.93c-5.062-6.77-7.855-15.145-7.855-23.595 0-8.695 2.945-17.261 8.281-24.132l40.32-51.84c6.407 9.62 13.36 18.918 21.016 27.703l-28.937 34.726a37.468 37.468 0 0 0-6.297 37.13L284.457 480H276zm0 0M480 480h16v16h-16zm0 0M0 480h16v16H0zm0 0"/></svg>