<svg height="496pt" viewBox="-64 0 496 496" width="496pt" xmlns="http://www.w3.org/2000/svg"><path d="M355.602 165.762c2.718 1.36 4.398 4.16 4.398 7.199V184h-16c-8.8 0-16 7.2-16 16v48h-32V128l44.719-52.16c2.082-2.48 5.12-3.84 8.32-3.84C355.121 72 360 76.879 360 82.96v1.759c0 2.16-.64 4.242-1.84 6.082l-27.281 40.8c-1.84 2.88-2.879 6.239-2.879 9.68 0 6.559 3.68 12.559 9.602 15.52zm0 0" fill="#aab2bd"/><path d="M360 184v56c0 4.398-3.602 8-8 8h-24v-48c0-8.8 7.2-16 16-16zm0 0" fill="#838f9b"/><path d="M48 72V8h160v64zm0 0" fill="#e6e9ed"/><path d="M232 136v56c0 4.398-3.602 8-8 8h-32v-24c0-4.398-3.602-8-8-8H72c-4.398 0-8 3.602-8 8v24H32c-4.398 0-8-3.602-8-8v-56zm0 0" fill="#b4dd7f"/><g fill="#ffeaa7"><path d="M232 112v24h-64v-32h56c4.398 0 8 3.602 8 8zm0 0M88 104h80v32H88zm0 0M88 104v32H24v-24c0-4.398 3.602-8 8-8zm0 0"/></g><path d="M192 176v24H64v-24c0-4.398 3.602-8 8-8h112c4.398 0 8 3.602 8 8zm0 0" fill="#e6e9ed"/><path d="M208 200v32h-32v-32zm0 0M80 200v32H48v-32zm0 0" fill="#969faa"/><path d="M248 456v32H8v-32zm0 0" fill="#cf9e76"/><path d="M232 272v184h-32V264H56v192H24V248c0-8.8 7.2-16 16-16h176c8.8 0 16 7.2 16 16zm0 0" fill="#b4dd7f"/><path d="M56 264h144v192H56zm0 0" fill="#e6e9ed"/><path d="M152 398.64V400c0 13.281-10.719 24-24 24s-24-10.719-24-24v-1.36c0-4.32 1.2-8.64 3.441-12.32L128 352l20.559 34.32c2.242 3.68 3.441 8 3.441 12.32zm0 0M144 304c0 8.836-7.164 16-16 16s-16-7.164-16-16 7.164-16 16-16 16 7.164 16 16zm0 0" fill="#69d6f4"/><path d="M72 32h112v16H72zm0 0M128 432c17.648 0 32-14.352 32-32v-1.352c0-5.8-1.574-11.488-4.559-16.464L128 336.449l-27.441 45.735A32.004 32.004 0 0 0 96 398.648V400c0 17.648 14.352 32 32 32zm-16-33.352c0-2.894.793-5.746 2.281-8.234L128 367.551l13.719 22.863a16.064 16.064 0 0 1 2.281 8.234V400c0 8.824-7.176 16-16 16s-16-7.176-16-16zm0 0M128 328c13.23 0 24-10.77 24-24s-10.77-24-24-24-24 10.77-24 24 10.77 24 24 24zm0-32c4.406 0 8 3.594 8 8s-3.594 8-8 8-8-3.594-8-8 3.594-8 8-8zm0 0"/><path d="M364.824 95.191A18.972 18.972 0 0 0 368 84.68v-1.72C368 72.505 359.496 64 349.04 64a18.906 18.906 0 0 0-14.392 6.625L288 125.039V392c0 4.406-3.594 8-8 8s-8-3.594-8-8V288c0-13.23-10.77-24-24-24h-8v-16c0-13.23-10.77-24-24-24v-16h8c8.824 0 16-7.176 16-16v-80c0-8.824-7.176-16-16-16h-24V80h16V0H40v80h16v16H32c-8.824 0-16 7.176-16 16v80c0 8.824 7.176 16 16 16h8v16c-13.23 0-24 10.77-24 24v200H0v48h256v-48h-16V280h8c4.406 0 8 3.594 8 8v104c0 13.23 10.77 24 24 24s24-10.77 24-24V256h48c8.824 0 16-7.176 16-16v-67.055c0-6.105-3.39-11.586-8.84-14.312l-17.976-8.992a9.308 9.308 0 0 1-5.184-8.375c0-1.86.543-3.657 1.574-5.203zM200 224h-16v-16h16zm-16-32H72v-16h112zm-16 16v16H88v-16zm56-80h-48v-16h48zm-64-16v16H96v-16zM56 16h144v48H56zm16 64h112v16H72zm8 32v16H32v-16zm-48 32h192.008l.008 48H200v-16c0-8.824-7.176-16-16-16H72c-8.824 0-16 7.176-16 16v16H32zm24 64h16v16H56zm184 272H16v-16h224zm-48-32H64V272h128zm16 0V256H48v192H32V248c0-4.406 3.594-8 8-8h176c4.406 0 8 3.594 8 8v200zm128-208v-40c0-4.406 3.594-8 8-8h8v48zm-1.977-76.04L352 172.946V176h-8c-13.23 0-24 10.77-24 24v40h-16V130.96l42.793-49.929c1.621-1.91 5.207-.566 5.207 1.93v1.719c0 .593-.168 1.16-.496 1.648l-27.238 40.863A25.238 25.238 0 0 0 320 141.266c0 9.672 5.375 18.367 14.023 22.695zm0 0"/></svg>