<svg height="496pt" viewBox="0 0 496 496" width="496pt" xmlns="http://www.w3.org/2000/svg"><g fill="#ffeaa7"><path d="M456 312h32v176h-32zm0 0M392 384h32v104h-32zm0 0M328 424h32v64h-32zm0 0M264 456h32v32h-32zm0 0"/></g><path d="M248 8c110.48 0 200 89.52 200 200s-89.52 200-200 200S48 318.48 48 208 137.52 8 248 8zm0 0" fill="#b4dd7f"/><path d="M403.2 272.32a166.699 166.699 0 0 1-30 47.68H280c0-8.398-3.281-16-8.559-21.762L256.72 136c-.399-4.559-4.16-8-8.719-8s-8.32 3.441-8.719 8L224.56 298.238C219.28 304 216 311.602 216 320h-93.2a166.699 166.699 0 0 1-30-47.68C84.56 252.48 80 230.8 80 208s4.559-44.48 12.8-64.32a168.31 168.31 0 0 1 36.4-54.48 168.31 168.31 0 0 1 54.48-36.4C203.52 44.56 225.2 40 248 40s44.48 4.559 64.32 12.8a168.31 168.31 0 0 1 54.48 36.4 168.31 168.31 0 0 1 36.4 54.48C411.44 163.52 416 185.2 416 208s-4.559 44.48-12.8 64.32zm0 0" fill="#e6e9ed"/><path d="M280 320h93.2c-30.72 34.398-75.438 56-125.2 56s-94.48-21.602-125.2-56zm0 0" fill="#b4dd7f"/><path d="M224.559 298.238L239.28 136c.399-4.559 4.16-8 8.719-8s8.32 3.441 8.719 8l14.722 162.238C265.601 291.922 257.281 288 248 288s-17.602 3.922-23.441 10.238zm0 0" fill="#fcd770"/><path d="M280 320h-64c0-8.398 3.281-16 8.559-21.762C230.399 291.922 238.719 288 248 288s17.602 3.922 23.441 10.238C276.72 304 280 311.602 280 320zm0 0" fill="#ffc729"/><path d="M248 416c114.688 0 208-93.305 208-208S362.687 0 248 0 40 93.305 40 208s93.313 208 208 208zm0-400c105.863 0 192 86.137 192 192s-86.137 192-192 192S56 313.863 56 208 142.137 16 248 16zm0 0"/><path d="M248 384c97.047 0 176-78.953 176-176S345.047 32 248 32 72 110.953 72 208s78.953 176 176 176zM119.29 252.656l-21.825 9.04c-5.153-14.407-8.266-29.727-9.067-45.696H128v-16H88.406c.793-15.96 3.906-31.29 9.067-45.695l21.824 9.039 6.129-14.785-21.809-9.032a160.492 160.492 0 0 1 25.918-38.695l27.961 27.969 11.313-11.313-27.961-27.968a160.295 160.295 0 0 1 38.687-25.918l9.031 21.804 14.786-6.125-9.04-21.824c14.399-5.144 29.727-8.258 45.688-9.05V88h16V48.406c15.96.793 31.29 3.907 45.695 9.067l-9.039 21.824 14.785 6.129 9.032-21.809a160.295 160.295 0 0 1 38.687 25.918l-27.96 27.969 11.312 11.312 27.96-27.968a160.113 160.113 0 0 1 25.919 38.695l-21.805 9.031 6.125 14.785 21.824-9.039c5.152 14.407 8.266 29.727 9.067 45.696H368v16h39.594c-.793 15.96-3.907 31.289-9.067 45.695l-21.824-9.04-6.129 14.786 21.809 9.031c-6.125 12.88-13.856 24.825-23.047 35.535H287.19c-1.27-6.238-4.128-11.847-7.945-16.664l-14.55-160.086C263.901 126.551 256.725 120 248 120s-15.902 6.55-16.688 15.238l-14.55 160.09c-3.825 4.824-6.684 10.434-7.953 16.672h-82.153c-9.191-10.71-16.922-22.656-23.047-35.535l21.805-9.031zM248 296c10.414 0 19.215 6.71 22.527 16H225.48c3.305-9.29 12.106-16 22.52-16zm-14.023-13.328l13.27-145.977c.073-.8 1.44-.8 1.507 0l13.27 145.977C257.647 281.023 252.953 280 248 280s-9.64 1.016-14.023 2.672zM142.52 328h210.953C325.28 352.816 288.426 368 248 368s-77.281-15.184-105.48-40zm0 0M448 304v176h-16V376h-48v104h-16v-64h-48v64h-16v-32h-48v32h-16v16h256V304zm-48 88h16v88h-16zm-64 40h16v48h-16zm-64 32h16v16h-16zm208 16h-16V320h16zm0 0M114.457 452.352L93.953 384H0v16h82.047l27.496 91.648L140.527 440H192v-16h-60.527zm0 0"/><path d="M32 432h16v16H32zm0 0M0 432h16v16H0zm0 0M64 432h16v16H64zm0 0"/></svg>