<svg height="640" viewBox="0 -96 480 480" width="640" xmlns="http://www.w3.org/2000/svg"><path d="M40 104h400c17.672 0 32 14.328 32 32v32H8v-32c0-17.672 14.328-32 32-32zm0 0" fill="#83acb1"/><path d="M464 280H16l16-112h416zm0 0" fill="#fee5b5"/><path d="M360 112a8 8 0 0 1-8-8V56a8 8 0 0 1 16 0v48a8 8 0 0 1-8 8zm0 0" fill="#83acb1"/><g fill="#e9cfb7"><path d="M56 168h16v112H56zm0 0M88 168h16v112H88zm0 0M120 168h16v112h-16zm0 0M152 168h16v112h-16zm0 0M184 168h16v112h-16zm0 0M216 168h16v112h-16zm0 0M248 168h16v112h-16zm0 0M280 168h16v112h-16zm0 0M312 168h16v112h-16zm0 0M344 168h16v112h-16zm0 0M376 168h16v112h-16zm0 0M408 168h16v112h-16zm0 0"/></g><path d="M456 8H141.977c-19 0-37.016 8.438-49.176 23.031L32 104v24h64v-24l30.398-36.488A32.017 32.017 0 0 1 150.984 56H456c8.836 0 16-7.164 16-16V24c0-8.836-7.164-16-16-16zm0 0" fill="#83acb1"/><path d="M456 0H141.977a71.815 71.815 0 0 0-55.313 25.902L26.04 98.656A39.947 39.947 0 0 0 0 136v32a8 8 0 0 0 8 8h14.777L8.078 278.863a8.013 8.013 0 0 0 1.875 6.38A8.011 8.011 0 0 0 16 288h448a8.011 8.011 0 0 0 6.047-2.758 8.013 8.013 0 0 0 1.875-6.379L457.222 176H472a8 8 0 0 0 8-8v-32c-.027-22.082-17.918-39.973-40-40h-72V64h88c13.254 0 24-10.746 24-24V24c0-13.254-10.746-24-24-24zM25.223 272l13.714-96H56v96zM72 272v-96h16v96zm32 0v-96h16v96zm32 0v-96h16v96zm32 0v-96h16v96zm32 0v-96h16v96zm32 0v-96h16v96zm32 0v-96h16v96zm32 0v-96h16v96zm32 0v-96h16v96zm32 0v-96h16v96zm32 0v-96h16v96zm62.777 0H424v-96h17.063zM464 136v24H16v-24c0-13.254 10.746-24 24-24h400c13.254 0 24 10.746 24 24zM352 96H113.078l19.473-23.36A23.938 23.938 0 0 1 150.953 64H352zm112-56a8 8 0 0 1-8 8H150.984a39.9 39.9 0 0 0-30.726 14.398L92.258 96H49.055l49.883-59.848A55.815 55.815 0 0 1 141.976 16H456a8 8 0 0 1 8 8zm0 0"/></svg>