<svg height="640" viewBox="-32 0 480 480.013" width="640" xmlns="http://www.w3.org/2000/svg"><path d="M350.406 76.133C330.02 33.859 286.934 7.273 240.008 8.012A122.411 122.411 0 0 0 140.43 57.5a142.924 142.924 0 0 0-20.422-1.488c-53.016 0-96 28.656-96 64s42.984 64 96 64c6.832-.004 13.66-.5 20.422-1.489a122.39 122.39 0 0 0 99.578 49.489 124.06 124.06 0 0 0 84.137-32.192c1.285.075 2.558.192 3.863.192 30.879-.09 57.293-22.223 62.785-52.61 5.496-30.39-11.492-60.367-40.387-71.27zm0 0" fill="#e9cfb7"/><path d="M392.008 136.012c0 35.347-28.656 64-64 64-35.348 0-64-28.653-64-64 0-35.344 28.652-64 64-64 35.344 0 64 28.656 64 64zm0 0" fill="#a3d4f7"/><path d="M216.008 120.012c0-35.344-42.98-64-96-64s-96 28.656-96 64c0 35.347 42.98 64 96 64s96-28.653 96-64zm0 0" fill="#fef1d8"/><path d="M344.008 472.012h-272l-48-320h368zm0 0" fill="#83acb1"/><g fill="#e9cfb7"><path d="M224.008 336.012c-4.418 0-8-3.578-8-8v-32a8 8 0 0 1 16 0v32c0 4.422-3.582 8-8 8zm0 0M256.008 336.012c-4.418 0-8-3.578-8-8v-32a8 8 0 0 1 16 0v32c0 4.422-3.582 8-8 8zm0 0M288.008 336.012c-4.418 0-8-3.578-8-8v-32a8 8 0 0 1 16 0v32c0 4.422-3.582 8-8 8zm0 0M320.008 336.012c-4.418 0-8-3.578-8-8v-32a8 8 0 0 1 16 0v32c0 4.422-3.582 8-8 8zm0 0M96.008 336.012c-4.418 0-8-3.578-8-8v-32a8 8 0 0 1 16 0v32c0 4.422-3.582 8-8 8zm0 0M128.008 336.012c-4.418 0-8-3.578-8-8v-32a8 8 0 0 1 16 0v32c0 4.422-3.582 8-8 8zm0 0M160.008 336.012c-4.418 0-8-3.578-8-8v-32a8 8 0 0 1 16 0v32c0 4.422-3.582 8-8 8zm0 0M192.008 336.012c-4.418 0-8-3.578-8-8v-32a8 8 0 0 1 16 0v32c0 4.422-3.582 8-8 8zm0 0M208.008 256.012c-4.418 0-8-3.578-8-8v-32a8 8 0 0 1 16 0v32c0 4.422-3.582 8-8 8zm0 0M240.008 256.012c-4.418 0-8-3.578-8-8v-32a8 8 0 0 1 16 0v32c0 4.422-3.582 8-8 8zm0 0M272.008 256.012c-4.418 0-8-3.578-8-8v-32a8 8 0 0 1 16 0v32c0 4.422-3.582 8-8 8zm0 0M304.008 256.012c-4.418 0-8-3.578-8-8v-32a8 8 0 0 1 16 0v32c0 4.422-3.582 8-8 8zm0 0M336.008 256.012c-4.418 0-8-3.578-8-8v-32a8 8 0 0 1 16 0v32c0 4.422-3.582 8-8 8zm0 0M240.008 416.012c-4.418 0-8-3.578-8-8v-32a8 8 0 0 1 16 0v32c0 4.422-3.582 8-8 8zm0 0M272.008 416.012c-4.418 0-8-3.578-8-8v-32a8 8 0 0 1 16 0v32c0 4.422-3.582 8-8 8zm0 0M304.008 416.012c-4.418 0-8-3.578-8-8v-32a8 8 0 0 1 16 0v32c0 4.422-3.582 8-8 8zm0 0M112.008 416.012c-4.418 0-8-3.578-8-8v-32a8 8 0 0 1 16 0v32c0 4.422-3.582 8-8 8zm0 0M144.008 416.012c-4.418 0-8-3.578-8-8v-32a8 8 0 0 1 16 0v32c0 4.422-3.582 8-8 8zm0 0M176.008 416.012c-4.418 0-8-3.578-8-8v-32a8 8 0 0 1 16 0v32c0 4.422-3.582 8-8 8zm0 0M208.008 416.012c-4.418 0-8-3.578-8-8v-32a8 8 0 0 1 16 0v32c0 4.422-3.582 8-8 8zm0 0"/></g><path d="M8.008 120.012h400v32h-400zm0 0" fill="#326859"/><path d="M208.008 184.012l-32-64h176zm0 0" fill="#a3d4f7"/><path d="M80.008 120.012h96v144h-96zm0 0" fill="#e9cfb7"/><path d="M80.008 224.012h96v16h-96zm0 0" fill="#fff"/><path d="M232.008 296.012a8 8 0 0 0-16 0v32c0 4.422 3.582 8 8 8s8-3.578 8-8zm0 0M264.008 296.012a8 8 0 0 0-16 0v32c0 4.422 3.582 8 8 8s8-3.578 8-8zm0 0M280.008 296.012v32c0 4.422 3.582 8 8 8s8-3.578 8-8v-32a8 8 0 0 0-16 0zm0 0M312.008 328.012c0 4.422 3.582 8 8 8s8-3.578 8-8v-32a8 8 0 0 0-16 0zm0 0M104.008 296.012a8 8 0 0 0-16 0v32c0 4.422 3.582 8 8 8s8-3.578 8-8zm0 0M136.008 296.012a8 8 0 0 0-16 0v32c0 4.422 3.582 8 8 8s8-3.578 8-8zm0 0M168.008 296.012a8 8 0 0 0-16 0v32c0 4.422 3.582 8 8 8s8-3.578 8-8zm0 0M200.008 296.012a8 8 0 0 0-16 0v32c0 4.422 3.582 8 8 8s8-3.578 8-8zm0 0M208.008 256.012c4.418 0 8-3.578 8-8v-32a8 8 0 0 0-16 0v32c0 4.422 3.582 8 8 8zm0 0M240.008 256.012c4.418 0 8-3.578 8-8v-32a8 8 0 0 0-16 0v32c0 4.422 3.582 8 8 8zm0 0M272.008 256.012c4.418 0 8-3.578 8-8v-32a8 8 0 0 0-16 0v32c0 4.422 3.582 8 8 8zm0 0M304.008 256.012c4.418 0 8-3.578 8-8v-32a8 8 0 0 0-16 0v32c0 4.422 3.582 8 8 8zm0 0M336.008 256.012c4.418 0 8-3.578 8-8v-32a8 8 0 0 0-16 0v32c0 4.422 3.582 8 8 8zm0 0M240.008 368.012a8 8 0 0 0-8 8v32c0 4.422 3.582 8 8 8s8-3.578 8-8v-32a8 8 0 0 0-8-8zm0 0M272.008 368.012a8 8 0 0 0-8 8v32c0 4.422 3.582 8 8 8s8-3.578 8-8v-32a8 8 0 0 0-8-8zm0 0M304.008 368.012a8 8 0 0 0-8 8v32c0 4.422 3.582 8 8 8s8-3.578 8-8v-32a8 8 0 0 0-8-8zm0 0M112.008 368.012a8 8 0 0 0-8 8v32c0 4.422 3.582 8 8 8s8-3.578 8-8v-32a8 8 0 0 0-8-8zm0 0M144.008 368.012a8 8 0 0 0-8 8v32c0 4.422 3.582 8 8 8s8-3.578 8-8v-32a8 8 0 0 0-8-8zm0 0M176.008 368.012a8 8 0 0 0-8 8v32c0 4.422 3.582 8 8 8s8-3.578 8-8v-32a8 8 0 0 0-8-8zm0 0M208.008 368.012a8 8 0 0 0-8 8v32c0 4.422 3.582 8 8 8s8-3.578 8-8v-32a8 8 0 0 0-8-8zm0 0"/><path d="M408.008 112.012h-12.145a72.008 72.008 0 0 0-39.562-42.16C333.953 26.372 288.89-.691 240.008.012a130.885 130.885 0 0 0-103.2 48.953c-.8-.086-1.601-.13-2.402-.207-1.113-.106-2.215-.2-3.336-.281-3.703-.27-7.398-.465-11.062-.465-53.442 0-97.547 28.058-103.32 64h-8.68a8 8 0 0 0-8 8v32c0 4.422 3.582 8 8 8h9.11l46.976 313.187a8.002 8.002 0 0 0 7.914 6.813h272a7.998 7.998 0 0 0 7.91-6.813l46.977-313.187h9.113c4.418 0 8-3.578 8-8v-32a8 8 0 0 0-8-8zM130.223 64.43c1.77.136 3.535.367 5.312.574a99.473 99.473 0 0 1 58.809 25.305 7.993 7.993 0 0 0 7.777 2.191 8.003 8.003 0 0 0 3.55-13.488 107.633 107.633 0 0 0-50.6-26.742 115.6 115.6 0 0 1 84.937-36.258 114.037 114.037 0 0 1 94.59 48.363 72.326 72.326 0 0 0-24.59 1.98 8.003 8.003 0 0 0 4 15.496 55.89 55.89 0 0 1 32.8 1.29c.255.18.52.34.797.48a55.901 55.901 0 0 1 30.801 28.39H33.016c.136-.613.27-1.238.437-1.847.211-.742.418-1.488.672-2.223.355-1.03.8-2.039 1.234-3.046.305-.696.582-1.395.934-2.075.531-1.047 1.152-2.07 1.777-3.093.375-.602.711-1.227 1.114-1.825.8-1.16 1.68-2.289 2.59-3.41.335-.414.632-.855.984-1.27a57.35 57.35 0 0 1 4.234-4.425c.32-.305.696-.59 1.031-.895a69.63 69.63 0 0 1 3.817-3.242c.613-.488 1.293-.933 1.941-1.406 1.13-.8 2.266-1.649 3.473-2.402.8-.504 1.601-.965 2.402-1.446a92.177 92.177 0 0 1 3.559-2.066c.879-.469 1.785-.91 2.687-1.36 1.23-.613 2.473-1.214 3.754-1.793.957-.421 1.934-.796 2.926-1.238a90.974 90.974 0 0 1 4-1.535c1.023-.367 2.066-.738 3.113-1.082a132.77 132.77 0 0 1 4.215-1.293c1.074-.305 2.145-.617 3.25-.898a110.8 110.8 0 0 1 4.488-1.047c1.102-.242 2.192-.489 3.309-.703 1.602-.305 3.203-.555 4.875-.801 1.078-.16 2.145-.344 3.238-.48 1.832-.231 3.703-.391 5.602-.544.933-.082 1.855-.191 2.797-.25 2.761-.199 5.633-.304 8.539-.304 3.437 0 6.847.16 10.215.418zm146.68 80.207l-65.16 28.976-22.794-45.601h125.364zm-108.895 71.375v8h-80v-96h80zm-80 32v-8h80v16h-80zm-72-120h56v16h-56zm321.11 336H78.894l-45.602-304h38.715v104c0 4.422 3.582 8 8 8h96c4.418 0 8-3.578 8-8v-110.11l16.84 33.688a7.997 7.997 0 0 0 10.398 3.734l70.465-31.312h101.008zm62.89-320H317.71l36-16h46.297zm0 0"/></svg>