<svg height="640" viewBox="0 0 480 480" width="640" xmlns="http://www.w3.org/2000/svg"><path d="M280 264c.027 22.14 15.195 41.387 36.71 46.594 21.52 5.207 43.81-4.98 53.954-24.656 15.992 12.375 38.027 13.402 55.102 2.562 17.074-10.836 25.523-31.215 21.129-50.953s-20.688-34.61-40.747-37.18c-20.062-2.574-39.582 7.703-48.812 25.696a47.909 47.909 0 0 0-43.648-7.887c14.843-14.574 18.613-37.051 9.332-55.668-9.282-18.617-29.5-29.137-50.075-26.055-20.57 3.082-36.816 19.067-40.234 39.586H232a47.909 47.909 0 0 0-40.879 22.938 48 48 0 1 0-93.73 20.359c-19.621-7.629-41.922-1.578-55.004 14.918-13.078 16.496-13.883 39.59-1.98 56.953 11.898 17.367 33.726 24.953 53.831 18.707C114.344 303.668 128.031 285.051 128 264zm0 0" fill="#a3d4f7"/><path d="M24 264h432c8.836 0 16 7.164 16 16s-7.164 16-16 16H24c-8.836 0-16-7.164-16-16s7.164-16 16-16zm0 0" fill="#4f3328"/><path d="M448 296c0 97.2-32 176-112 176H144C64 472 32 371.52 32 296zm0 0" fill="#ac8168"/><path d="M24 264h432c8.836 0 16 7.164 16 16s-7.164 16-16 16H24c-8.836 0-16-7.164-16-16s7.164-16 16-16zm0 0" fill="#4f3328"/><path d="M24 264h432c8.836 0 16 7.164 16 16s-7.164 16-16 16H24c-8.836 0-16-7.164-16-16s7.164-16 16-16zm0 0" fill="#4f3328"/><path d="M40 168H8a8 8 0 0 1 0-16h32a8 8 0 0 1 0 16zm0 0" fill="#60a2d7"/><path d="M24 184a8 8 0 0 1-8-8v-32a8 8 0 0 1 16 0v32a8 8 0 0 1-8 8zm0 0" fill="#60a2d7"/><path d="M160 88c0 13.254-10.746 24-24 24s-24-10.746-24-24 10.746-24 24-24 24 10.746 24 24zm0 0" fill="#a3d4f7"/><path d="M472 64h-32a8 8 0 0 1 0-16h32a8 8 0 0 1 0 16zm0 0" fill="#60a2d7"/><path d="M456 80a8 8 0 0 1-8-8V40a8 8 0 0 1 16 0v32a8 8 0 0 1-8 8zm0 0" fill="#60a2d7"/><path d="M392 112c0 13.254-10.746 24-24 24s-24-10.746-24-24 10.746-24 24-24 24 10.746 24 24zm0 0" fill="#a3d4f7"/><path d="M280 32h-32a8 8 0 0 1 0-16h32a8 8 0 0 1 0 16zm0 0" fill="#60a2d7"/><path d="M264 48a8 8 0 0 1-8-8V8a8 8 0 0 1 16 0v32a8 8 0 0 1-8 8zm0 0" fill="#60a2d7"/><path d="M456 256h-.695c.425-2.645.66-5.32.695-8-.016-24.203-15.574-45.656-38.574-53.184-23-7.53-48.238.567-62.563 20.07a55.168 55.168 0 0 0-24.27-6.823 56 56 0 0 0-6.183-58.25c-12.86-16.708-34.015-24.774-54.734-20.872s-37.489 19.11-43.395 39.348a55.347 55.347 0 0 0-32.25 14.566c-11.656-23.18-37.707-35.32-62.953-29.332C105.832 159.508 88.004 182.055 88 208v.586a53.779 53.779 0 0 0-8-.586c-27.805.055-51.367 20.484-55.36 48H24c-13.254 0-24 10.746-24 24s10.746 24 24 24h.137C26.344 377.602 59.078 480 144 480h192c74.473 0 117.816-64.098 119.809-176H456c13.254 0 24-10.746 24-24s-10.746-24-24-24zM80 224c4.96.008 9.879.941 14.496 2.754a8.002 8.002 0 1 0 10.672-9.328 39.998 39.998 0 0 1 11.289-39.489 39.99 39.99 0 0 1 40.129-8.726 40.002 40.002 0 0 1 26.672 31.23 8 8 0 0 0 6.398 6.399 7.92 7.92 0 0 0 8.246-3.68A39.852 39.852 0 0 1 232.344 184h.105a8 8 0 0 0 8.153-6.672c2.843-17.101 16.386-30.422 33.53-32.988 17.145-2.57 33.993 6.2 41.727 21.719 7.73 15.515 4.586 34.246-7.789 46.39a8.007 8.007 0 0 0-1.246 9.817 8.005 8.005 0 0 0 9.246 3.52 40.188 40.188 0 0 1 36.38 6.573 7.999 7.999 0 0 0 6.62 1.485 8.014 8.014 0 0 0 5.38-4.14c8.452-16.4 27.03-24.888 44.964-20.544 17.934 4.344 30.57 20.387 30.586 38.84a39.308 39.308 0 0 1-.8 8H40.8c3.825-18.613 20.2-31.98 39.2-32zm256 240H144c-73.344 0-101.777-92.8-103.871-160H439.91C438.793 357.895 425.2 464 336 464zm120-176H24a8 8 0 0 1 0-16h432a8 8 0 0 1 0 16zm0 0M24 136a8 8 0 0 0-8 8v8H8a8 8 0 0 0 0 16h8v8a8 8 0 0 0 16 0v-8h8a8 8 0 0 0 0-16h-8v-8a8 8 0 0 0-8-8zm0 0M136 120c17.672 0 32-14.328 32-32s-14.328-32-32-32-32 14.328-32 32 14.328 32 32 32zm0-48c8.836 0 16 7.164 16 16s-7.164 16-16 16-16-7.164-16-16 7.164-16 16-16zm0 0M472 48h-8v-8a8 8 0 0 0-16 0v8h-8a8 8 0 0 0 0 16h8v8a8 8 0 0 0 16 0v-8h8a8 8 0 0 0 0-16zm0 0M400 112c0-17.672-14.328-32-32-32s-32 14.328-32 32 14.328 32 32 32 32-14.328 32-32zm-48 0c0-8.836 7.164-16 16-16s16 7.164 16 16-7.164 16-16 16-16-7.164-16-16zm0 0M264 0a8 8 0 0 0-8 8v8h-8a8 8 0 0 0 0 16h8v8a8 8 0 0 0 16 0v-8h8a8 8 0 0 0 0-16h-8V8a8 8 0 0 0-8-8zm0 0"/></svg>