<svg height="640" viewBox="0 -8 480.089 480" width="640" xmlns="http://www.w3.org/2000/svg"><path d="M432.035 360.348h-384l-16-240h416zm0 0" fill="#e9cfb7"/><path d="M392.035 120.348v240a8 8 0 0 1-16 0v-240zm0 0M104.035 120.348v240a8 8 0 0 1-16 0v-240zm0 0" fill="#414649"/><path d="M48.035 360.348h384v32h-384zm0 0M8.035 88.348h464v16c0 8.836-7.164 16-16 16h-432c-8.836 0-16-7.164-16-16zm0 0" fill="#abb1ba"/><path d="M24.035 96.348a8 8 0 0 1-7.832-6.403l-16-80a8 8 0 1 1 15.672-3.2l16 80.001a8.002 8.002 0 0 1-7.84 9.602zm0 0M456.035 96.348a8 8 0 0 1-7.84-9.602l16-80a7.995 7.995 0 1 1 13.242-4.648 7.992 7.992 0 0 1 2.438 7.785l-16 80a8.006 8.006 0 0 1-7.84 6.465zm0 0" fill="#abb1ba"/><g fill="#414649"><path d="M72.035 392.348h16v48h-16zm0 0M392.035 392.348h16v48h-16zm0 0M104.035 88.348h16v32h-16zm0 0M232.035 88.348h16v32h-16zm0 0M360.035 88.348h16v32h-16zm0 0"/></g><path d="M96.035 440.348c0 8.836-7.164 16-16 16s-16-7.164-16-16c0-8.84 7.164-16 16-16s16 7.16 16 16zm0 0M416.035 440.348c0 8.836-7.164 16-16 16s-16-7.164-16-16c0-8.84 7.164-16 16-16s16 7.16 16 16zm0 0" fill="#7e8589"/><path d="M472.035 80.348h-6.242l14.082-70.403a8 8 0 0 0-6.242-9.437c-4.328-.887-8.555 1.91-9.438 6.238l-14.722 73.602H30.593L15.876 6.746A8 8 0 0 0 6.434.508 8 8 0 0 0 .195 9.945l14.078 70.403H8.035a8 8 0 0 0-8 8v16c0 13.254 10.746 24 24 24h.52l15.48 232.238v31.762a8 8 0 0 0 8 8h24v17.468c-11.02 3.899-17.633 15.168-15.656 26.688 1.976 11.52 11.965 19.941 23.656 19.941 11.688 0 21.676-8.422 23.653-19.941 1.976-11.52-4.633-22.79-15.653-26.688v-17.468h304v17.468c-11.02 3.899-17.633 15.168-15.656 26.688 1.976 11.52 11.965 19.941 23.656 19.941 11.688 0 21.676-8.422 23.653-19.941 1.976-11.52-4.633-22.79-15.653-26.688v-17.468h24a8 8 0 0 0 8-8v-31.762l15.48-232.238h.52c13.254 0 24-10.746 24-24v-16a8 8 0 0 0-8-8zm-392 368a8 8 0 1 1 0-16.001 8 8 0 0 1 0 16zm320 0a8 8 0 1 1 0-16.001 8 8 0 0 1 0 16zm-296-96v-224h272v224zm16-256h112v16h-112zm128 16v-16h112v16zm-232-8v-8h88v16h-80a8 8 0 0 1-8-8zm72 24v224H55.523l-14.937-224zm336 256h-368v-16h368zm.512-32h-32.512v-224h47.45zm39.488-248a8 8 0 0 1-8 8h-80v-16h88zm0 0"/></svg>