<svg height="640" viewBox="-40 0 480 480" width="640" xmlns="http://www.w3.org/2000/svg"><path d="M24 8h352v464H24zm0 0" fill="#ced8dc"/><path d="M200 400c-61.855 0-112-50.145-112-112s50.145-112 112-112 112 50.145 112 112c-.066 61.828-50.172 111.934-112 112zm0-208c-53.02 0-96 42.98-96 96s42.98 96 96 96 96-42.98 96-96c-.059-52.996-43.004-95.941-96-96zm0 0" fill="#fff"/><path d="M272 288c0 39.766-32.234 72-72 72s-72-32.234-72-72 32.234-72 72-72 72 32.234 72 72zm0 0" fill="#688cba"/><path d="M24 440h352v32H24zm0 0" fill="#7e8589"/><path d="M248 312c-13.254 0-24-10.746-24-24 0 13.254-10.746 24-24 24s-24-10.746-24-24c0 13.254-10.746 24-24 24s-24-10.746-24-24c0 39.766 32.234 72 72 72s72-32.234 72-72c0 13.254-10.746 24-24 24zm0 0M184 256a8 8 0 1 1-16 0 8 8 0 0 1 16 0zm0 0" fill="#a3d4f7"/><path d="M264 112s-14.328 24-32 24-32-24-32-24-14.328 24-32 24-32-24-32-24-14.328 24-32 24-32-24-32-24-14.328 24-32 24-32-10.742-32-24L24 8h352l16 104c0 13.258-14.328 24-32 24s-32-24-32-24-14.328 24-32 24-32-24-32-24zm0 0" fill="#ee638c"/><path d="M88 8L72 112s14.328 24 32 24 32-24 32-24l8-104zm0 0" fill="#fce666"/><path d="M9.23 104L8 112c0 13.258 14.328 24 32 24s32-24 32-24 14.328 24 32 24 32-24 32-24 14.328 24 32 24 32-24 32-24 14.328 24 32 24 32-24 32-24 14.328 24 32 24 32-24 32-24 14.328 24 32 24 32-10.742 32-24l-1.23-8zm0 0" fill="#ee4b87"/><path d="M376 8h-64l16 104s14.328 24 32 24 32-10.742 32-24zm0 0" fill="#fce666"/><path d="M390.77 104h-64l1.23 8s14.328 24 32 24 32-10.742 32-24zm0 0" fill="#fcd366"/><path d="M200 8v104s14.328 24 32 24 32-24 32-24L256 8zm0 0" fill="#fce666"/><path d="M200 104v8s14.328 24 32 24 32-24 32-24l-.617-8zm0 0" fill="#fcd366"/><path d="M136.617 104L144 8H88l-14.77 96zm0 0" fill="#fce666"/><path d="M73.23 104L72 112s14.328 24 32 24 32-24 32-24l.617-8zm0 0" fill="#fcd366"/><path d="M200 176c-61.855 0-112 50.145-112 112s50.145 112 112 112 112-50.145 112-112c-.066-61.828-50.172-111.934-112-112zm0 208c-53.02 0-96-42.98-96-96s42.98-96 96-96 96 42.98 96 96c-.059 52.996-43.004 95.941-96 96zm0 0"/><path d="M200 208c-44.184 0-80 35.816-80 80s35.816 80 80 80 80-35.816 80-80c-.047-44.164-35.836-79.953-80-80zm0 144a64.045 64.045 0 0 1-56-33.145 30.934 30.934 0 0 0 32-9.91 31.581 31.581 0 0 0 48 0 30.927 30.927 0 0 0 32.04 9.91A64.043 64.043 0 0 1 200 352zm48-48c-8.836 0-16-7.164-16-16a8 8 0 0 0-16 0c0 8.836-7.164 16-16 16s-16-7.164-16-16a8 8 0 0 0-16 0c0 8.836-7.164 16-16 16s-16-7.164-16-16c0-35.348 28.652-64 64-64s64 28.652 64 64c0 8.836-7.164 16-16 16zm0 0"/><path d="M184 256a8 8 0 1 1-16 0 8 8 0 0 1 16 0zm0 0"/><path d="M16.098 6.785l-16 104A7.457 7.457 0 0 0 0 112a30.353 30.353 0 0 0 16 25.441V472a8 8 0 0 0 8 8h352a8 8 0 0 0 8-8V137.441A30.353 30.353 0 0 0 400 112c0-.406-.031-.813-.098-1.215l-16-104A7.994 7.994 0 0 0 376 0H24a7.994 7.994 0 0 0-7.902 6.785zM384 112.52c-.45 8.449-11.246 15.48-24 15.48-8.52 0-17.45-9.52-22.297-16h46.2zM270.793 96l-6.152-80h40.496l12.312 80zm47.52 16c-4.801 6.48-13.711 16-22.313 16s-17.45-9.52-22.297-16zm-63.57-16H208V16h40.594zm-.43 16c-4.801 6.48-13.711 16-22.313 16s-17.45-9.52-22.297-16zM192 96h-46.742l6.148-80H192zm-1.688 16c-4.8 6.48-13.71 16-22.312 16s-17.45-9.52-22.297-16zm-61.105-16H82.551l12.312-80h40.496zm-2.894 16c-4.801 6.48-13.711 16-22.313 16s-17.45-9.52-22.297-16zM16 112.52l.098-.52h46.215c-4.801 6.48-13.711 16-22.313 16-12.754 0-23.55-7.031-24-15.48zM32 464v-16h336v16zm336-32H32V143.352c2.645.433 5.32.648 8 .648a44.992 44.992 0 0 0 32-18.398A44.992 44.992 0 0 0 104 144a44.992 44.992 0 0 0 32-18.398A44.992 44.992 0 0 0 168 144a44.992 44.992 0 0 0 32-18.398A44.992 44.992 0 0 0 232 144a44.992 44.992 0 0 0 32-18.398A44.992 44.992 0 0 0 296 144a44.992 44.992 0 0 0 32-18.398A44.992 44.992 0 0 0 360 144c2.68 0 5.355-.215 8-.648zm13.441-336h-47.84l-12.273-80h47.809zM78.671 16L66.399 96h-47.84l12.305-80zm0 0"/></svg>