<svg height="640" viewBox="0 0 480.05 480" width="640" xmlns="http://www.w3.org/2000/svg"><path d="M104 176.023H8a8 8 0 0 1 0-16h96a8 8 0 0 1 0 16zm0 0M104 320.023H8a8 8 0 0 1 0-16h96a8 8 0 0 1 0 16zm0 0" fill="#7e8589"/><path d="M8 480.023c-4.418 0-8-3.578-8-8v-464a8 8 0 0 1 16 0v464c0 4.422-3.582 8-8 8zm0 0M472 240.023c0 106.04-85.96 192-192 192s-192-85.96-192-192c0-106.035 85.96-192 192-192s192 85.965 192 192zm0 0" fill="#688cba"/><path d="M440 240.023c0 88.368-71.633 160-160 160s-160-71.632-160-160c0-88.363 71.633-160 160-160s160 71.637 160 160zm0 0" fill="#fef1d8"/><path d="M336 296.023v-96l16 16 16-32-32-32h-32c0 13.258-10.746 24-24 24s-24-10.742-24-24h-32l-32 32 16 32 16-16v96zm0 0" fill="#60a2d7"/><path d="M184 224.023c0 4.422-3.582 8-8 8s-8-3.578-8-8a8 8 0 0 1 16 0zm0 0M368 256.023c0 17.672-21.488 32-48 32s-48-14.328-48-32c0 17.672-21.488 32-48 32s-48-14.328-48-32c0 17.672-21.488 32-48 32h-.664c21.086 67.055 83.465 112.493 153.754 112 70.285-.492 132.023-46.8 152.168-114.14a69.121 69.121 0 0 1-17.258 2.14c-26.512 0-48-14.328-48-32zm0 0" fill="#a3d4f7"/><path d="M280 40.023c-79.54.094-151.484 47.243-183.313 120.137-.238 0-.449-.137-.687-.137H16v-152a8 8 0 0 0-16 0v464c0 4.422 3.582 8 8 8s8-3.578 8-8v-152h80c.238 0 .45-.117.688-.132 39.898 91.601 141.277 139.707 237.468 112.675 96.188-27.027 157.672-120.898 144.016-219.875C464.52 113.715 379.914 40 280 40.023zm-264 264v-128h74.559a199.245 199.245 0 0 0 0 128zm264 120c-101.621 0-184-82.378-184-184 0-101.617 82.379-184 184-184s184 82.383 184 184c-.11 101.579-82.426 183.891-184 184zm0 0"/><path d="M280 80.023c-92.633 0-168 71.778-168 160 0 88.227 75.367 160 168 160s168-71.773 168-160c0-88.222-75.367-160-168-160zM133.992 279.648c.649 2.145 1.367 4.266 2.106 6.403a151.215 151.215 0 0 1-2.106-6.403zM280 384.023c-60.215.715-115.21-34.078-140.36-88.796A58 58 0 0 0 176 276.824a62.501 62.501 0 0 0 48 19.2 62.548 62.548 0 0 0 48-19.2 62.548 62.548 0 0 0 48 19.2 62.548 62.548 0 0 0 48-19.2 62.548 62.548 0 0 0 48 19.2c1.383 0 2.734-.07 4.09-.141-25.32 54.355-80.13 88.844-140.09 88.14zm52.938-191.39a8.002 8.002 0 0 0-4.938 7.39v79.489a61.54 61.54 0 0 1-8 .511c-21.68 0-40-10.992-40-24a8 8 0 0 0-16 0c0 11.372-14 21.196-32 23.489v-79.489a8 8 0 0 0-13.656-5.652l-8.153 8.149-8.457-16.895 25.602-25.602h21.703c3.649 14.13 16.395 24.004 30.984 24.004 14.594 0 27.336-9.875 30.985-24.004h21.703l25.601 25.602-8.457 16.922-8.152-8.152a7.992 7.992 0 0 0-8.765-1.762zm90.964 93.383c.801-2.286 1.602-4.582 2.258-6.91-3.355.582-6.754.89-10.16.917-21.68 0-40-10.992-40-24a8 8 0 0 0-16 0 23.332 23.332 0 0 1-16 18.938v-55.625l2.344 2.344a7.912 7.912 0 0 0 6.937 2.242 8.007 8.007 0 0 0 5.88-4.32l16-32c1.538-3.082.929-6.801-1.505-9.23l-32-32a8.005 8.005 0 0 0-5.656-2.349h-32a8 8 0 0 0-8 8c0 8.84-7.164 16-16 16s-16-7.16-16-16a8 8 0 0 0-8-8h-32a8.005 8.005 0 0 0-5.656 2.348l-32 32a7.997 7.997 0 0 0-1.504 9.23l16 32a8.004 8.004 0 0 0 5.867 4.313 8.003 8.003 0 0 0 6.934-2.234l2.359-2.344v60.176c-18-2.293-32-12.117-32-23.489a8 8 0 0 0-16 0c0 11.786-15.07 21.825-34.008 23.625A136.102 136.102 0 0 1 128 240.023c0-79.398 68.184-144 152-144s152 64.602 152 144a136.263 136.263 0 0 1-8.098 45.993zm0 0"/><path d="M184 224.023c0 4.422-3.582 8-8 8s-8-3.578-8-8a8 8 0 0 1 16 0zm0 0"/></svg>