<svg xmlns="http://www.w3.org/2000/svg" viewBox="0 0 460 460"><path fill="#abcb57" d="M230.004 44.477L0 202.274h460z"/><path opacity=".3" fill="#5b5b5f" d="M112.883 167.274l117.12-80.352 117.117 80.352z"/><path fill="#abcb57" d="M20.972 370.522H439.03v45.001H20.972zM61.803 202.274h73.842v168.247H61.803zM193.083 202.274h73.842v168.247h-73.842zM324.347 202.274h73.842v168.247h-73.842z"/><path fill="#abcb57" d="M20.972 202.274H439.03V214H20.972zM20.972 370.521H439.03v22.501H20.972z"/><path d="M20.972 202.274V214h77.752v156.521H20.972v22.501H439.03v-22.501h-40.84V214h40.84v-11.726H20.972zM135.645 214H230v156.521h-94.355V214zm225.623 156.521h-94.343V214h94.343v156.521z" opacity=".3" fill="#5b5b5f"/></svg>