<svg height="640" viewBox="-16 0 480 480" width="640" xmlns="http://www.w3.org/2000/svg"><path d="M392 48H56a8 8 0 0 1 0-16h336a8 8 0 0 1 0 16zm0 0" fill="#7e8589"/><path d="M24 8h32v432H24zm0 0" fill="#83acb1"/><path d="M24 440h32c8.836 0 16 7.164 16 16v16H8v-16c0-8.836 7.164-16 16-16zm0 0" fill="#abb1ba"/><path d="M392 8h32v432h-32zm0 0" fill="#83acb1"/><path d="M392 440h32c8.836 0 16 7.164 16 16v16h-64v-16c0-8.836 7.164-16 16-16zm0 0" fill="#abb1ba"/><path d="M128 80a8 8 0 0 1-8-8V24a8 8 0 0 1 16 0v48a8 8 0 0 1-8 8zm0 0" fill="#ac8168"/><path d="M128 72c8.836 0 16 7.164 16 16v200h-32V88c0-8.836 7.164-16 16-16zm0 0" fill="#60a2d7"/><path d="M128 72c-8.836 0-16 7.164-16 16v64h32V88c0-8.836-7.164-16-16-16zm0 0" fill="#688cba"/><path d="M192 80a8 8 0 0 1-8-8V24a8 8 0 0 1 16 0v48a8 8 0 0 1-8 8zm0 0" fill="#ac8168"/><path d="M192 72c8.836 0 16 7.164 16 16v240h-32V88c0-8.836 7.164-16 16-16zm0 0" fill="#fee5b5"/><path d="M192 72c-8.836 0-16 7.164-16 16v72h32V88c0-8.836-7.164-16-16-16zm0 0" fill="#e9cfb7"/><path d="M256 80a8 8 0 0 1-8-8V24a8 8 0 0 1 16 0v48a8 8 0 0 1-8 8zm0 0" fill="#ac8168"/><path d="M256 72c8.836 0 16 7.164 16 16v200h-32V88c0-8.836 7.164-16 16-16zm0 0" fill="#f6a7bd"/><path d="M256 72c-8.836 0-16 7.164-16 16v64h32V88c0-8.836-7.164-16-16-16zm0 0" fill="#ee638c"/><path d="M320 80a8 8 0 0 1-8-8V24a8 8 0 0 1 16 0v48a8 8 0 0 1-8 8zm0 0" fill="#ac8168"/><path d="M320 72c8.836 0 16 7.164 16 16v240h-32V88c0-8.836 7.164-16 16-16zm0 0" fill="#60a2d7"/><path d="M320 72c-8.836 0-16 7.164-16 16v72h32V88c0-8.836-7.164-16-16-16zm0 0" fill="#688cba"/><path d="M16 8v425.473A24.003 24.003 0 0 0 0 456v16a8 8 0 0 0 8 8h64a8 8 0 0 0 8-8v-16a24.003 24.003 0 0 0-16-22.527V48h56v17.473A24.003 24.003 0 0 0 104 88v200a8 8 0 0 0 8 8h32a8 8 0 0 0 8-8V88a24.003 24.003 0 0 0-16-22.527V48h48v17.473A24.003 24.003 0 0 0 168 88v240a8 8 0 0 0 8 8h32a8 8 0 0 0 8-8V88a24.003 24.003 0 0 0-16-22.527V48h48v17.473A24.003 24.003 0 0 0 232 88v200a8 8 0 0 0 8 8h32a8 8 0 0 0 8-8V88a24.003 24.003 0 0 0-16-22.527V48h48v17.473A24.003 24.003 0 0 0 296 88v240a8 8 0 0 0 8 8h32a8 8 0 0 0 8-8V88a24.003 24.003 0 0 0-16-22.527V48h56v385.473A24.003 24.003 0 0 0 368 456v16a8 8 0 0 0 8 8h64a8 8 0 0 0 8-8v-16a24.003 24.003 0 0 0-16-22.527V8a8 8 0 0 0-8-8h-32a8 8 0 0 0-8 8v24h-56v-8a8 8 0 0 0-16 0v8h-48v-8a8 8 0 0 0-16 0v8h-48v-8a8 8 0 0 0-16 0v8h-48v-8a8 8 0 0 0-16 0v8H64V8a8 8 0 0 0-8-8H24a8 8 0 0 0-8 8zm112 72a8 8 0 0 1 8 8v56h-16V88a8 8 0 0 1 8-8zm-8 200V160h16v120zm72-200a8 8 0 0 1 8 8v64h-16V88a8 8 0 0 1 8-8zm-8 240V168h16v152zm72-240a8 8 0 0 1 8 8v56h-16V88a8 8 0 0 1 8-8zm-8 200V160h16v120zm72-200a8 8 0 0 1 8 8v64h-16V88a8 8 0 0 1 8-8zm-8 240V168h16v152zm120 144h-48v-8a8 8 0 0 1 8-8h32a8 8 0 0 1 8 8zM400 16h16v416h-16zM64 464H16v-8a8 8 0 0 1 8-8h32a8 8 0 0 1 8 8zM32 16h16v416H32zm0 0"/></svg>