<svg height="640" viewBox="0 -28 480 480" width="640" xmlns="http://www.w3.org/2000/svg"><path d="M360 416c-64 0-80-16-144-16s-80 16-144 16c-35.344 0-64-32.23-64-72V200c0-39.77 28.656-72 64-72 64 0 80 16 144 16s80-16 144-16c35.344 0 64 32.23 64 72v144c0 39.77-32 72-64 72zm0 0" fill="#fce666"/><path d="M112 224h208c8.836 0 16 7.164 16 16v64c0 8.836-7.164 16-16 16H112c-8.836 0-16-7.164-16-16v-64c0-8.836 7.164-16 16-16zm0 0" fill="#f7cc38"/><path d="M472 216c0 22.09-17.91 40-40 40s-40-17.91-40-40 17.91-40 40-40 40 17.91 40 40zm0 0M472 80c0 17.672-14.328 32-32 32s-32-14.328-32-32 14.328-32 32-32 32 14.328 32 32zm0 0M360 128c0 26.508-21.492 48-48 48s-48-21.492-48-48 21.492-48 48-48 48 21.492 48 48zm0 0" fill="#a3d4f7"/><g fill="#60a2d7"><path d="M240 72h-32a8 8 0 0 1 0-16h32a8 8 0 0 1 0 16zm0 0"/><path d="M224 88a8 8 0 0 1-8-8V48a8 8 0 0 1 16 0v32a8 8 0 0 1-8 8zm0 0M376 32h-32a8 8 0 0 1 0-16h32a8 8 0 0 1 0 16zm0 0"/><path d="M360 48a8 8 0 0 1-8-8V8a8 8 0 0 1 16 0v32a8 8 0 0 1-8 8zm0 0"/></g><path d="M320 216H112c-13.254 0-24 10.746-24 24v64c0 13.254 10.746 24 24 24h208c13.254 0 24-10.746 24-24v-64c0-13.254-10.746-24-24-24zm8 88a8 8 0 0 1-8 8H112a8 8 0 0 1-8-8v-64a8 8 0 0 1 8-8h208a8 8 0 0 1 8 8zm0 0"/><path d="M432 168a47.934 47.934 0 0 0-5.895.398 72.797 72.797 0 0 0-58.671-47.925c-4.16-29.008-29.973-49.903-59.211-47.93C278.988 74.52 256.219 98.699 256 128c0 1.824.105 3.625.273 5.398A296.08 296.08 0 0 1 216 136a317.101 317.101 0 0 1-70.398-7.84A334.189 334.189 0 0 0 72 120c-39.695 0-72 35.887-72 80v144c0 44.113 32.305 80 72 80a334.189 334.189 0 0 0 73.602-8.16 320.292 320.292 0 0 1 140.863 0A334.3 334.3 0 0 0 360 424c38.352 0 72-37.383 72-80v-80c26.508 0 48-21.492 48-48s-21.492-48-48-48zM312 88a40.003 40.003 0 0 1 36.07 22.102 40.004 40.004 0 0 1-3.941 42.12 39.989 39.989 0 0 1-39.543 15.024c-.8-.148-1.602-.414-2.402-.621a38.363 38.363 0 0 1-4.551-1.418c-.89-.344-1.754-.742-2.61-1.144a40.234 40.234 0 0 1-3.87-2.102c-.801-.504-1.602-1-2.4-1.555a39.086 39.086 0 0 1-3.495-2.879c-.649-.59-1.336-1.144-1.953-1.773a41.321 41.321 0 0 1-3.375-4.098 67.65 67.65 0 0 1-1.692-2.398 40.962 40.962 0 0 1-2.734-5.035c-.496-1.118-.848-2.328-1.238-3.512A39.381 39.381 0 0 1 272 128c.027-22.082 17.918-39.973 40-40zm104 173.266V344c0 36.633-29.602 64-56 64a317.101 317.101 0 0 1-70.398-7.84 335.75 335.75 0 0 0-147.137 0A317.253 317.253 0 0 1 72 408c-30.879 0-56-28.71-56-64V200c0-35.29 25.121-64 56-64a317.101 317.101 0 0 1 70.398 7.84A334.189 334.189 0 0 0 216 152a310.84 310.84 0 0 0 44.152-2.93 55.675 55.675 0 0 0 3.52 7.09c.183.313.375.617.558.918a56.544 56.544 0 0 0 4.266 6.106l.145.191a56.74 56.74 0 0 0 5.039 5.352l1.23 1.113a55.631 55.631 0 0 0 12.13 8.215c.472.242.944.465 1.433.687a55.158 55.158 0 0 0 14.175 4.41c.582.106 1.168.192 1.75.274 2.52.36 5.059.554 7.602.574a56.12 56.12 0 0 0 5.465-.281c.605-.055 1.191-.168 1.8-.246 1.176-.153 2.4-.313 3.52-.536.695-.136 1.367-.32 2.055-.48 1.039-.25 2.082-.496 3.097-.8.704-.208 1.391-.45 2.086-.688a58.3 58.3 0 0 0 2.872-1.047 63.685 63.685 0 0 0 2.05-.89 60.421 60.421 0 0 0 4.664-2.367c.856-.49 1.688-1 2.512-1.536.633-.402 1.254-.8 1.863-1.227.801-.574 1.602-1.175 2.399-1.789.57-.449 1.144-.883 1.695-1.343.8-.672 1.555-1.387 2.305-2.098.496-.465 1-.91 1.48-1.39.801-.84 1.602-1.731 2.403-2.618.351-.406.726-.8 1.062-1.2a56.003 56.003 0 0 0 3.063-4.089c.25-.367.464-.8.707-1.145.687-1.062 1.367-2.14 1.98-3.253.32-.586.602-1.2.906-1.801a53.19 53.19 0 0 0 1.375-2.856c.297-.672.551-1.367.801-2.047a63.88 63.88 0 0 0 1.047-2.847c.234-.723.441-1.457.648-2.196a62.36 62.36 0 0 0 .754-2.91c.168-.761.32-1.527.453-2.297.098-.496.227-.976.297-1.48a57.178 57.178 0 0 1 43.41 36.48 47.987 47.987 0 0 0-26.12 35.579c-.063.39-.13.796-.176 1.16A46.928 46.928 0 0 0 384 216c.02 2.285.2 4.566.543 6.824.066.45.129.887.2 1.336a49.21 49.21 0 0 0 1.6 6.567l.063.183a47.94 47.94 0 0 0 2.586 6.25c.106.207.192.426.305.633a47.183 47.183 0 0 0 3.52 5.824c.12.176.253.344.382.52a48.426 48.426 0 0 0 4.137 4.976c.129.125.238.27.367.399a48.448 48.448 0 0 0 4.883 4.328c.36.281.726.55 1.086.8a49.472 49.472 0 0 0 5.488 3.551l.274.13c1.867.984 3.8 1.843 5.78 2.574.266.113.513.273.786.37zM432 248c-2.148 0-4.293-.219-6.398-.648-.09 0-.168-.063-.258-.079a31.072 31.072 0 0 1-5.465-1.699c-.55-.222-1.047-.535-1.598-.797a32.084 32.084 0 0 1-3.601-1.96c-.61-.391-1.16-.848-1.735-1.282a31.37 31.37 0 0 1-2.793-2.297c-.586-.55-1.129-1.14-1.672-1.734a30.932 30.932 0 0 1-2.12-2.566 37.4 37.4 0 0 1-1.45-2.114c-.574-.922-1.078-1.894-1.598-2.879-.367-.8-.753-1.52-1.074-2.32a32.126 32.126 0 0 1-1.078-3.488c-.191-.711-.433-1.41-.574-2.137a31.555 31.555 0 0 1-.586-6c.016-1.992.219-3.98.602-5.938.109-.582.285-1.132.421-1.703a32.572 32.572 0 0 1 1.215-3.91c.242-.625.504-1.226.801-1.824a32.46 32.46 0 0 1 1.785-3.281c.383-.617.742-1.239 1.168-1.832a30.725 30.725 0 0 1 1.992-2.399 32.073 32.073 0 0 1 15.13-9.648c.054 0 .093-.067.152-.082A31.693 31.693 0 0 1 432 184c17.672 0 32 14.328 32 32s-14.328 32-32 32zm0 0M440 40c-22.09 0-40 17.91-40 40s17.91 40 40 40 40-17.91 40-40c-.027-22.082-17.918-39.973-40-40zm0 64c-13.254 0-24-10.746-24-24s10.746-24 24-24 24 10.746 24 24-10.746 24-24 24zm0 0"/><path d="M224 88a8 8 0 0 0 8-8v-8h8a8 8 0 0 0 0-16h-8v-8a8 8 0 0 0-16 0v8h-8a8 8 0 0 0 0 16h8v8a8 8 0 0 0 8 8zm0 0M360 48a8 8 0 0 0 8-8v-8h8a8 8 0 0 0 0-16h-8V8a8 8 0 0 0-16 0v8h-8a8 8 0 0 0 0 16h8v8a8 8 0 0 0 8 8zm0 0"/></svg>