<svg height="640" viewBox="0 -8 480.012 480" width="640" xmlns="http://www.w3.org/2000/svg"><g fill="#a3d4f7"><path d="M368.012 360.152c0 17.672-14.328 32-32 32-17.676 0-32-14.328-32-32 0-24 32-80 32-80s32 56 32 80zm0 0M272.012 424.152c0 17.672-14.328 32-32 32-17.676 0-32-14.328-32-32 0-24 32-80 32-80s32 56 32 80zm0 0M176.012 360.152c0 17.672-14.328 32-32 32-17.676 0-32-14.328-32-32 0-24 32-80 32-80s32 56 32 80zm0 0"/></g><path d="M388.082 232.152h-92.07l21.3-74.558c6.235-21.817 32.364-37.442 62.625-37.442h92.075l-21.305 74.559c-6.234 21.816-32.36 37.441-62.625 37.441zm0 0M100.082 232.152H8.012l21.3-74.558c6.235-21.817 32.364-37.442 62.626-37.442h92.074l-21.305 74.559c-6.234 21.816-32.36 37.441-62.625 37.441zm0 0" fill="#60a2d7"/><path d="M244.082 248.152h-92.07l24-96c5.836-28.328 31.008-48.492 59.925-48h92.075l-24 96c-5.836 28.328-31.012 48.493-59.93 48zm0 0" fill="#688cba"/><path d="M336.012 80.152c0 39.766-32.239 72-72 72-39.766 0-72-32.234-72-72s32.234-72 72-72c39.761 0 72 32.235 72 72zm0 0" fill="#ee638c"/><path d="M275.32 80.152l18.348-18.343a8 8 0 0 0-11.313-11.313L264.012 68.84l-18.344-18.344a8 8 0 0 0-11.313 11.313L252.7 80.152l-18.344 18.344a8.001 8.001 0 0 0-2.183 7.781 8.002 8.002 0 1 0 13.496 3.531l18.344-18.343 18.343 18.344a8 8 0 0 0 11.313-11.313zm0 0" fill="#fff"/><path d="M329.066 276.152c-3.382 5.953-33.054 58.61-33.054 84 0 22.09 17.906 40 40 40 22.09 0 40-17.91 40-40 0-25.39-29.672-78.047-33.059-84a8.322 8.322 0 0 0-6.941-3.738 8.323 8.323 0 0 0-6.946 3.738zm30.946 84c0 13.254-10.746 24-24 24-13.258 0-24-10.746-24-24 0-14.144 13.902-43.91 24-63.246 10.093 19.336 24 49.102 24 63.246zm0 0M233.066 340.152c-3.382 5.953-33.054 58.61-33.054 84 0 22.09 17.906 40 40 40 22.09 0 40-17.91 40-40 0-25.39-29.672-78.047-33.059-84a8.322 8.322 0 0 0-6.941-3.738 8.323 8.323 0 0 0-6.946 3.738zm30.946 84c0 13.254-10.746 24-24 24-13.258 0-24-10.746-24-24 0-14.144 13.902-43.91 24-63.246 10.093 19.336 24 49.102 24 63.246zm0 0M137.066 276.152c-3.382 5.953-33.054 58.61-33.054 84 0 22.09 17.906 40 40 40 22.09 0 40-17.91 40-40 0-25.39-29.672-78.047-33.059-84a8.322 8.322 0 0 0-6.941-3.738 8.323 8.323 0 0 0-6.946 3.738zm6.946 108c-13.258 0-24-10.746-24-24 0-14.144 13.902-43.91 24-63.246 10.093 19.336 24 49.102 24 63.246 0 13.254-10.746 24-24 24zm0 0M21.61 155.398L.304 229.961a8.001 8.001 0 0 0 7.707 10.191h92.07a84.807 84.807 0 0 0 49.398-14.87l-5.23 20.933a8 8 0 0 0 7.762 9.937h92.07a68.984 68.984 0 0 0 47.063-17.91 7.865 7.865 0 0 0 4.867 1.91h92.07c34.129 0 63.047-17.785 70.32-43.246l21.305-74.562a8 8 0 0 0-7.695-10.192h-92.074a84.845 84.845 0 0 0-49.399 14.864l1.07-4.27c20.38-32.246 15.157-74.394-12.476-100.691C291.5-4.242 249.145-7.371 217.945 14.578c-31.195 21.953-42.554 62.875-27.136 97.766-.657.562-1.262 1.168-1.903 1.754a7.825 7.825 0 0 0-4.894-1.946H91.937c-34.128 0-63.046 17.786-70.328 43.246zm358.327-27.246h81.465l-18.398 64.36c-5.227 18.336-28.328 31.64-54.922 31.64h-81.465l18.403-64.359c5.222-18.336 28.328-31.64 54.917-31.64zm-115.925-112c24.89-.047 47.547 14.364 58.054 36.926 10.512 22.563 6.965 49.18-9.09 68.203-.511.606-1.07 1.176-1.597 1.766a67.537 67.537 0 0 1-3.29 3.394 65.256 65.256 0 0 1-2.175 1.977 66.153 66.153 0 0 1-3.383 2.727c-.746.566-1.472 1.152-2.242 1.68a62.121 62.121 0 0 1-5.648 3.503c-.477.266-.973.48-1.461.727a69.934 69.934 0 0 1-5.176 2.402c-.762.305-1.547.566-2.313.848a67.743 67.743 0 0 1-4.625 1.48c-.8.223-1.601.438-2.457.633-1.656.39-3.336.695-5.023.95-.734.105-1.457.25-2.191.335-5.051.633-10.16.606-15.2-.078-.715-.09-1.41-.207-2.105-.32a66.8 66.8 0 0 1-5.871-1.207c-.633-.16-1.274-.313-1.907-.489a64.9 64.9 0 0 1-7.285-2.554l-.273-.125a63.517 63.517 0 0 1-6.399-3.258c-.707-.399-1.394-.8-2.074-1.254a63.405 63.405 0 0 1-4.414-3.027c-.656-.496-1.328-.957-1.96-1.47a63.546 63.546 0 0 1-5.298-4.8c-.558-.57-1.062-1.183-1.597-1.77a62.13 62.13 0 0 1-3.434-4.046 39.603 39.603 0 0 1-1.601-2.184 63.736 63.736 0 0 1-11.965-36.969c.039-35.328 28.668-63.96 64-64zm-60.41 116.29a89.385 89.385 0 0 0 2.718 2.992c1.098 1.144 2.242 2.23 3.403 3.312.953.879 1.879 1.774 2.87 2.606 1.602 1.343 3.282 2.601 4.985 3.816.8.586 1.602 1.184 2.399 1.727a79.746 79.746 0 0 0 6.632 3.945c.801.433 1.68.8 2.52 1.215a82.624 82.624 0 0 0 5.539 2.465c.934.367 1.871.695 2.812 1.03 1.891.665 3.801 1.25 5.747 1.778.953.258 1.894.512 2.847.734 2.07.473 4.176.844 6.305 1.153.855.12 1.695.289 2.558.394 3.012.352 6.04.536 9.075.543 2.468 0 4.91-.152 7.343-.375.735-.066 1.454-.16 2.184-.25a80.464 80.464 0 0 0 5.246-.8c.703-.133 1.41-.254 2.106-.407a78.614 78.614 0 0 0 13.734-4.289c.465-.191.914-.398 1.379-.597a81.96 81.96 0 0 0 5.375-2.602l1.23-.656a77.76 77.76 0 0 0 6.664-4.063l-13.078 52.305c-5.11 24.61-26.98 42.125-52.113 41.734H162.25l21.602-86.265a53.836 53.836 0 0 1 15.062-27.27c.504.695 1.098 1.313 1.602 1.992a76.049 76.049 0 0 0 3.086 3.832zm-111.665-4.29h81.465l-18.398 64.36c-5.227 18.336-28.328 31.64-54.922 31.64H18.617l18.403-64.359c5.222-18.336 28.328-31.64 54.917-31.64zm0 0"/><path d="M234.355 109.809c3.122 3.12 8.188 3.12 11.313 0l18.344-18.344 18.343 18.344a8 8 0 0 0 11.313-11.313L275.32 80.152l18.348-18.343a8 8 0 0 0-11.313-11.313L264.012 68.84l-18.344-18.344a8 8 0 0 0-11.313 11.313L252.7 80.152l-18.344 18.344a7.997 7.997 0 0 0 0 11.313zm0 0"/></svg>