<svg height="640" viewBox="0 -48 480 480" width="640" xmlns="http://www.w3.org/2000/svg"><path d="M472 192.195l-64 32v-64h64zm0 0M24 344.195h352v32H8v-16c0-8.836 7.164-16 16-16zm0 0" fill="#ac8168"/><path d="M424 136.195H232c-114.875 0-208 93.125-208 208h368c0-22.09 21.488-40 48-40zm-32 128H160c0-44.183 35.816-80 80-80h152zm0 0" fill="#e9cfb7"/><path d="M216 232.195h32c8.836 0 16 7.164 16 16v16h-64v-16c0-8.836 7.164-16 16-16zm0 0" fill="#ac8168"/><path d="M312 80.195c0 39.762-32.234 72-72 72s-72-32.238-72-72c0-39.765 32.234-72 72-72s72 32.235 72 72zm0 0" fill="#ee638c"/><path d="M251.313 80.195l18.343-18.343a8 8 0 0 0-11.312-11.313L240 68.883l-18.344-18.344a8 8 0 0 0-11.312 11.313l18.344 18.343-18.344 18.344a7.997 7.997 0 0 0-2.18 7.781 8 8 0 0 0 13.492 3.531L240 91.509l18.344 18.344a8 8 0 0 0 11.312-11.313zm0 0" fill="#fff"/><path d="M392 176.195H240c-48.578.055-87.941 39.422-88 88a8 8 0 0 0 8 8h232a8 8 0 0 0 8-8v-80a8 8 0 0 0-8-8zm-184 80v-8a8 8 0 0 1 8-8h32a8 8 0 0 1 8 8v8zm176 0H272v-8c0-13.254-10.746-24-24-24h-32c-13.254 0-24 10.746-24 24v8h-23.55c4.113-36.422 34.898-63.957 71.55-64h144zm0 0"/><path d="M472 152.195h-38.398L432 135.434a7.886 7.886 0 0 0-.855-2.903 8.046 8.046 0 0 0-1.458-1.906c-.113-.11-.175-.262-.296-.367a7.78 7.78 0 0 0-2.047-1.281c-.16-.07-.29-.184-.457-.247a7.477 7.477 0 0 0-1.832-.343c-.344-.09-.7-.157-1.055-.192H303.848c25.511-33.8 20.265-81.62-11.97-109.086-32.23-27.464-80.276-25.054-109.6 5.493-29.321 30.55-29.758 78.66-.997 109.738-94.715 22.5-162.433 105.922-164.984 203.238A23.956 23.956 0 0 0 0 360.195v16a8 8 0 0 0 8 8h368a8 8 0 0 0 8-8v-24h8a8 8 0 0 0 8-8c0-17.648 17.945-32 40-32 .266.016.535.016.8 0 .454-.097.903-.23 1.337-.402a8.184 8.184 0 0 0 1.383-.422c.8-.582 1.601-1.168 2.402-1.754.047-.047.055-.117.094-.168a7.86 7.86 0 0 0 1.183-2.054c.153-.239.285-.485.41-.735.34-1.031.461-2.12.36-3.203l-8.215-86.191 35.82-17.871a8.001 8.001 0 0 0 4.426-7.2v-32a8 8 0 0 0-8-8zm-232-136c28.04.04 52.785 18.32 61.063 45.11 8.273 26.789-1.852 55.843-24.985 71.691l-.469.328a66.41 66.41 0 0 1-4.953 3.016l-.922.46c-1.46.802-2.949 1.505-4.488 2.169-.375.16-.758.304-1.14.457a66.194 66.194 0 0 1-4.489 1.648l-1.351.418c-1.465.438-2.961.797-4.473 1.149-.512.113-1.023.234-1.547.328-1.504.297-3.023.511-4.55.699-.52.062-1.032.148-1.598.2a65.13 65.13 0 0 1-6.137.312 63.819 63.819 0 0 1-8.8-.68 67.64 67.64 0 0 1-2.016-.305 63.926 63.926 0 0 1-8.489-2l-.297-.113a63.466 63.466 0 0 1-8.113-3.297l-1.207-.582a65.031 65.031 0 0 1-7.793-4.68c-22.875-16.015-32.715-45.023-24.3-71.648 8.413-26.629 33.128-44.715 61.054-44.68zm128 352H16v-8a8 8 0 0 1 8-8h344zm16.8-32H32.16c3.39-93.86 71.95-172.566 164.457-188.8.223.144.473.238.703.382a79.974 79.974 0 0 0 8.313 4.586c.582.278 1.16.582 1.742.848a79.557 79.557 0 0 0 9.602 3.605c.527.16 1.07.266 1.597.418a81.084 81.084 0 0 0 8.442 1.848 83.26 83.26 0 0 0 2.718.418c3.407.45 6.832.68 10.266.695 2.45 0 4.887-.144 7.32-.367.961-.09 1.903-.234 2.848-.355a83.69 83.69 0 0 0 4.2-.637 97.05 97.05 0 0 0 3.464-.715c1.145-.254 2.23-.559 3.344-.863 1.23-.344 2.472-.672 3.68-1.07 1.015-.329 2-.731 3-1.098 2.007-.75 4-1.598 5.906-2.473 1.215-.566 2.445-1.125 3.636-1.758.907-.48 1.77-1.007 2.649-1.52 1.242-.722 2.473-1.448 3.672-2.234.8-.503 1.511-1.03 2.265-1.597.75-.57 1.329-.875 1.97-1.352h128.8l14.527 152.582c-22.289 1.977-40.914 17.785-46.48 39.457zM464 187.25l-25.863 12.945-3.047-32H464zm0 0"/><path d="M210.344 109.852a8.004 8.004 0 0 0 11.312 0L240 91.508l18.344 18.344a8 8 0 0 0 11.312-11.313l-18.344-18.344 18.344-18.343a8 8 0 0 0-11.312-11.313L240 68.883l-18.344-18.344a8 8 0 0 0-11.312 11.313l18.344 18.343-18.344 18.344a8.004 8.004 0 0 0 0 11.313zm0 0"/></svg>