<svg height="640" viewBox="0 -16 480.021 480" width="640" xmlns="http://www.w3.org/2000/svg"><path d="M464.012 256.012c-44.801 0-43.203-16-88-16-44.801 0-43.203 16-88 16-44.801 0-51.203-16-96-16-44.801 0-43.203 16-88 16-44.801 0-43.203-16-88-16h-2l10 200h432l9.199-184zm0 0" fill="#a3d4f7"/><path d="M456.012 448.012h-432a7.999 7.999 0 0 1-8-7.602l-16-320a8.002 8.002 0 0 1 2.054-5.777 8 8 0 0 1 5.543-2.621c4.399-.168 8.125 3.207 8.403 7.597l15.605 312.403h416.801l15.594-312.403a8.146 8.146 0 0 1 8.398-7.597 8 8 0 0 1 7.602 8.398l-16 320a8.004 8.004 0 0 1-8 7.602zm0 0" fill="#60a2d7"/><g fill="#7e8589"><path d="M352.012 176.012h-48a8 8 0 0 1 0-16h48a8 8 0 0 1 0 16zm0 0M336.012 144.012h-32a8 8 0 0 1 0-16h32a8 8 0 0 1 0 16zm0 0M352.012 112.012h-48a8 8 0 0 1 0-16h48a8 8 0 0 1 0 16zm0 0M336.012 80.012h-32a8 8 0 0 1 0-16h32a8 8 0 0 1 0 16zm0 0M352.012 48.012h-48a8 8 0 0 1 0-16h48a8 8 0 0 1 0 16zm0 0"/></g><path d="M272.012 288.012v-248c0-17.676-14.328-32-32-32-17.676 0-32 14.324-32 32v248a59.99 59.99 0 0 0-24 48c0 30.926 25.07 56 56 56 30.926 0 56-25.074 56-56a60.002 60.002 0 0 0-24-48zm0 0" fill="#ced8dc"/><path d="M240.012 318.355a8 8 0 0 1-8-8V168.012a8 8 0 0 1 16 0v142.343a8 8 0 0 1-8 8zm0 0" fill="#7e8589"/><path d="M264.012 335.21c0 13.255-10.746 24-24 24-13.258 0-24-10.745-24-24 0-13.253 10.742-24 24-24 13.254 0 24 10.747 24 24zm0 0" fill="#7e8589"/><path d="M472.41 112.012a8.146 8.146 0 0 0-8.398 7.597l-6.403 128.258a98.75 98.75 0 0 1-34.824-7.36 115.876 115.876 0 0 0-46.773-8.495 115.828 115.828 0 0 0-46.778 8.496 100.9 100.9 0 0 1-41.222 7.504c-2.778 0-5.434-.067-8-.192V40.012c0-22.094-17.91-40-40-40-22.094 0-40 17.906-40 40v192.183a182.106 182.106 0 0 0-8-.183 115.865 115.865 0 0 0-46.785 8.496 100.852 100.852 0 0 1-41.215 7.504 95.57 95.57 0 0 1-41.075-7.93 108.97 108.97 0 0 0-41.328-8.871l-5.597-111.602c-.278-4.39-4.004-7.765-8.403-7.597a8 8 0 0 0-5.543 2.62 8.002 8.002 0 0 0-2.054 5.778l16 320a7.999 7.999 0 0 0 8 7.602h432a8.004 8.004 0 0 0 8-7.602l16-320a8 8 0 0 0-7.602-8.398zm-256.398-72c0-13.258 10.742-24 24-24 13.254 0 24 10.742 24 24v248a8.008 8.008 0 0 0 3.558 6.656 51.844 51.844 0 0 1 20.442 41.344c0 26.508-21.492 48-48 48-26.512 0-48-21.492-48-48a51.628 51.628 0 0 1 20.437-41.344 8.002 8.002 0 0 0 3.563-6.656zm232.39 392H31.617L22.41 247.21a93.46 93.46 0 0 1 34.703 7.777 110.579 110.579 0 0 0 46.899 9.024 115.991 115.991 0 0 0 46.781-8.496 100.74 100.74 0 0 1 41.219-7.504c2.773 0 5.43.062 8 .191v35.902a67.987 67.987 0 0 0-24 51.907c0 35.343 28.652 64 64 64 35.343 0 64-28.657 64-64a68.013 68.013 0 0 0-24-51.907v-20.277c2.59.11 5.23.184 8 .184a115.942 115.942 0 0 0 46.773-8.496 100.842 100.842 0 0 1 41.227-7.504 100.9 100.9 0 0 1 41.222 7.504 113.59 113.59 0 0 0 39.575 8.328zm0 0"/><path d="M304.012 176.012h48a8 8 0 0 0 0-16h-48a8 8 0 0 0 0 16zm0 0M304.012 144.012h32a8 8 0 0 0 0-16h-32a8 8 0 0 0 0 16zm0 0M304.012 112.012h48a8 8 0 0 0 0-16h-48a8 8 0 0 0 0 16zm0 0M304.012 80.012h32a8 8 0 0 0 0-16h-32a8 8 0 0 0 0 16zm0 0M304.012 48.012h48a8 8 0 0 0 0-16h-48a8 8 0 0 0 0 16zm0 0M240.012 368.012c17.879-.25 32.191-14.918 32-32.801.203-14.484-9.84-27.106-24-30.152V168.012a8 8 0 0 0-16 0v137.015c-14.176 3.051-24.223 15.688-24 30.184-.192 17.883 14.117 32.55 32 32.8zm0-48a15.085 15.085 0 0 1 16 15.199c0 8.836-7.164 16-16 16s-16-7.164-16-16a15.082 15.082 0 0 1 4.695-11.078 15.074 15.074 0 0 1 11.305-4.121zm0 0"/></svg>