<svg height="640" viewBox="-56 0 480 480" width="640" xmlns="http://www.w3.org/2000/svg"><path d="M8 8h352v464H8zm0 0" fill="#ced8dc"/><path d="M8 8h352v96H8zm0 0" fill="#7e8589"/><path d="M240 40h88v32h-88zm0 0" fill="#ced8dc"/><path d="M184 72c-8.836 0-16-7.164-16-16s7.164-16 16-16 16 7.164 16 16-7.164 16-16 16zm0-16" fill="#fff"/><path d="M8 8h112v96H8zm0 0" fill="#414649"/><path d="M88 64H40a8 8 0 0 1 0-16h48a8 8 0 0 1 0 16zm0 0M8 440h352v32H8zm0 0" fill="#7e8589"/><g fill="#688cba"><path d="M168 312h-32a8 8 0 0 1-8-8v-32a8 8 0 0 1 8-8h24v-16h-24a8 8 0 0 1 0-16h32a8 8 0 0 1 8 8v32a8 8 0 0 1-8 8h-24v16h24a8 8 0 0 1 0 16zm0 0M248 280h-48a8 8 0 0 1-8-8v-32a8 8 0 0 1 16 0v24h40a8 8 0 0 1 0 16zm0 0"/><path d="M232 312a8 8 0 0 1-8-8v-56a8 8 0 0 1 16 0v56a8 8 0 0 1-8 8zm0 0"/></g><path d="M288 264a8 8 0 0 0-8 8c.004 45.8-32.348 85.223-77.266 94.16-44.922 8.938-89.898-15.101-107.425-57.414s-2.727-91.113 35.355-116.562c38.078-25.446 88.828-20.45 121.215 11.937 1.898 1.895 3.687 3.902 5.426 5.957l-7.36-1.84c-4.273-1.035-8.582 1.567-9.648 5.832a8 8 0 0 0 5.758 9.692l32 8a8.007 8.007 0 0 0 6.867-1.453A8.011 8.011 0 0 0 288 224v-32a8 8 0 0 0-16 0v10.863c-33.813-42.914-93.672-55.136-141.602-28.91-47.925 26.23-69.902 83.235-51.988 134.848 17.918 51.613 70.492 82.738 124.36 73.629 53.87-9.114 93.28-55.797 93.23-110.43a8 8 0 0 0-8-8zm0 0" fill="#fff"/><path d="M88 48H40a8 8 0 0 0 0 16h48a8 8 0 0 0 0-16zm0 0"/><path d="M368 472V8a8 8 0 0 0-8-8H8a8 8 0 0 0-8 8v464a8 8 0 0 0 8 8h352a8 8 0 0 0 8-8zM16 112h336v320H16zm336-16H128V16h224zM16 16h96v80H16zm0 448v-16h336v16zm0 0"/><path d="M240 80h88a8 8 0 0 0 8-8V40a8 8 0 0 0-8-8h-88a8 8 0 0 0-8 8v32a8 8 0 0 0 8 8zm8-32h72v16h-72zm0 0M200 56c0 8.836-7.164 16-16 16s-16-7.164-16-16 7.164-16 16-16 16 7.164 16 16zm0 0M288 264a8 8 0 0 0-8 8c.004 45.8-32.348 85.223-77.266 94.16-44.922 8.938-89.898-15.101-107.425-57.414s-2.727-91.113 35.355-116.562c38.078-25.446 88.828-20.45 121.215 11.937 1.898 1.895 3.687 3.902 5.426 5.957l-7.36-1.84c-4.273-1.035-8.582 1.567-9.648 5.832a8 8 0 0 0 5.758 9.692l32 8a8.007 8.007 0 0 0 6.867-1.453A8.011 8.011 0 0 0 288 224v-32a8 8 0 0 0-16 0v10.863c-33.813-42.914-93.672-55.136-141.602-28.91-47.925 26.23-69.902 83.235-51.988 134.848 17.918 51.613 70.492 82.738 124.36 73.629 53.87-9.114 93.28-55.797 93.23-110.43a8 8 0 0 0-8-8zm0 0"/><path d="M168 280a8 8 0 0 0 8-8v-32a8 8 0 0 0-8-8h-32a8 8 0 0 0 0 16h24v16h-24a8 8 0 0 0-8 8v32a8 8 0 0 0 8 8h32a8 8 0 0 0 0-16h-24v-16zm0 0M232 312a8 8 0 0 0 8-8v-24h8a8 8 0 0 0 0-16h-8v-16a8 8 0 0 0-16 0v16h-16v-24a8 8 0 0 0-16 0v32a8 8 0 0 0 8 8h24v24a8 8 0 0 0 8 8zm0 0"/></svg>