<svg height="640" viewBox="0 -24 480 480" width="640" xmlns="http://www.w3.org/2000/svg"><path d="M472 88L384 8h-96c0 26.512-21.488 48-48 48-26.508 0-48-21.488-48-48H96L8 80l56 88 32-29.09V424h288V141.816L416 168zm0 0" fill="#60a2d7"/><g fill="#4f3328"><path d="M256 272c0-13.254-10.742-24-24-24a23.777 23.777 0 0 0-11.758 3.2A24.004 24.004 0 0 0 176 264c0 .52.121 1.008.152 1.52A23.707 23.707 0 0 0 168 264c-11.625-.02-21.586 8.313-23.621 19.758-2.035 11.445 4.441 22.699 15.36 26.691a23.997 23.997 0 0 0-4.825 29.106 23.996 23.996 0 0 0 27.047 11.789A23.99 23.99 0 0 0 200 328a23.817 23.817 0 0 0 16-6.23c9.441 8.59 23.969 8.25 32.992-.778 9.028-9.027 9.371-23.55.778-32.992a23.832 23.832 0 0 0 6.23-16zm0 0M312 328a23.857 23.857 0 0 0-18.598 9 15.92 15.92 0 0 0-15.879 27 15.994 15.994 0 0 0-3.726 19.45 15.995 15.995 0 0 0 18.035 8.175A15.997 15.997 0 0 0 304 376c0-.527-.117-1.016-.168-1.52a24.003 24.003 0 0 0 25.82-5.968A24 24 0 0 0 312 328zm0 0M296 304a8 8 0 1 1-16 0 8 8 0 0 1 16 0zm0 0M232 384a8 8 0 1 1-16 0 8 8 0 0 1 16 0zm0 0"/></g><path d="M96 432h288c4.422 0 8-3.582 8-8V158.703l18.938 15.488a7.99 7.99 0 0 0 6.156 1.735 8.014 8.014 0 0 0 5.46-3.332l56-80a7.998 7.998 0 0 0-1.167-10.504l-88-80A7.994 7.994 0 0 0 384 0h-96a8 8 0 0 0-8 8c0 22.09-17.906 40-40 40-22.09 0-40-17.91-40-40 0-4.418-3.578-8-8-8H96c-1.844 0-3.633.64-5.063 1.809l-88 72A8 8 0 0 0 1.25 84.297l56 88a7.997 7.997 0 0 0 12.137 1.598L88 156.992V424a8 8 0 0 0 8 8zM65.648 155.687L18.563 81.695 98.859 16h85.711c3.957 27.57 27.578 48.043 55.43 48.043 27.855 0 51.477-20.473 55.434-48.043h85.472l80.504 73.184-47.015 67.199-25.329-20.711a7.992 7.992 0 0 0-8.472-1.043 8 8 0 0 0-4.594 7.195V416H104V138.91a8 8 0 0 0-13.383-5.918zm0 0"/><path d="M144 328c-.043 16.305 12.18 30.04 28.379 31.883 16.203 1.847 31.2-8.785 34.824-24.684a32.224 32.224 0 0 0 8.797-3.527A31.648 31.648 0 0 0 232 336c17.676 0 32-14.328 32-32a31.619 31.619 0 0 0-4.36-16 31.619 31.619 0 0 0 4.36-16c0-17.672-14.324-32-32-32-3.172 0-6.324.488-9.352 1.45A31.717 31.717 0 0 0 200 232c-14.586.016-27.324 9.879-30.992 24a31.939 31.939 0 0 0-31.047 20.777 31.933 31.933 0 0 0 9.914 36.024A31.554 31.554 0 0 0 144 328zm24-56c1.855.023 3.691.371 5.426 1.031 2.531.918 5.355.5 7.512-1.11a7.994 7.994 0 0 0 3.199-6.89c0-.199-.11-.8-.137-1.023a15.962 15.962 0 0 1 11.531-15.371 15.957 15.957 0 0 1 17.95 6.851 8.001 8.001 0 0 0 10.707 2.68A15.71 15.71 0 0 1 232 256c8.84 0 16 7.164 16 16a15.816 15.816 0 0 1-4.168 10.648 8 8 0 0 0 0 10.704A15.816 15.816 0 0 1 248 304c0 8.836-7.16 16-16 16a15.833 15.833 0 0 1-10.645-4.168 8.005 8.005 0 0 0-10.707 0A15.835 15.835 0 0 1 200 320a8 8 0 0 0-8 8c0 8.836-7.16 16-16 16-8.836 0-16-7.164-16-16 0-4.45 1.883-8.691 5.176-11.68a7.995 7.995 0 0 0 2.406-7.437 7.992 7.992 0 0 0-5.086-5.938 15.95 15.95 0 0 1-10.254-17.785c1.36-7.633 8.008-13.187 15.758-13.16zm0 0"/><path d="M267.273 364A23.78 23.78 0 0 0 264 376c-.016 11.703 8.41 21.71 19.945 23.691 11.535 1.977 22.813-4.652 26.696-15.691 17.675.375 32.304-13.648 32.68-31.32.374-17.672-13.645-32.305-31.321-32.68a31.68 31.68 0 0 0-21.223 8.176A23.92 23.92 0 1 0 267.273 364zm15.512-6.023A7.945 7.945 0 0 1 280 352a8 8 0 0 1 8-8 7.878 7.878 0 0 1 2.7.527 7.995 7.995 0 0 0 8.925-2.496 15.954 15.954 0 0 1 27.957 13.621A15.954 15.954 0 0 1 312 368a15.567 15.567 0 0 1-5.43-1.04 8.007 8.007 0 0 0-7.578 1.599A8.633 8.633 0 0 0 296 376a8 8 0 0 1-16 0 7.945 7.945 0 0 1 2.785-5.977c1.738-1.52 2.738-3.714 2.738-6.023s-1-4.504-2.738-6.023zm0 0M296 304a8 8 0 1 1-16 0 8 8 0 0 1 16 0zm0 0M232 384a8 8 0 1 1-16 0 8 8 0 0 1 16 0zm0 0"/></svg>