<svg height="512pt" viewBox="0 -12 512 512" width="512pt" xmlns="http://www.w3.org/2000/svg"><path d="M151.813 228.04h209.914V113.39c0-58.566-47.125-106.046-105.262-106.054-58.133.008-105.258 47.488-105.258 106.055V228.1c.203-.023.398-.062.605-.062zm0 0" fill="#54a0ff"/><path d="M186.207 113.39c0-52.558 37.957-96.183 87.758-104.585a105.03 105.03 0 0 0-17.5-1.47c-58.133.009-105.258 47.49-105.258 106.056V228.1c.203-.023.398-.062.605-.062h34.395zm0 0" fill="#338def"/><path d="M315.082 124.89c0 32.38-26.25 58.626-58.629 58.626s-58.625-26.246-58.625-58.625 26.246-58.625 58.625-58.625 58.629 26.246 58.629 58.625zm0 0" fill="#fcd486"/><path d="M232.828 124.89c0-26.28 17.297-48.523 41.129-55.968a58.611 58.611 0 0 0-17.504-2.656c-32.375 0-58.625 26.246-58.625 58.625s26.25 58.625 58.625 58.625c6.098 0 11.977-.93 17.504-2.657-23.832-7.445-41.129-29.687-41.129-55.968zm0 0" fill="#feca57"/><path d="M151.207 253.336v24.988l13.633 14.297h183.254l13.633-14.297v-24.906c-220.782 0-209.688.043-210.52-.082zm0 0" fill="#576574"/><path d="M186.629 253.418c-38.078 0-34.586.043-35.422-.082v24.988l13.633 14.297h21.789zm0 0" fill="#3e4b5a"/><path d="M364.117 226.41H151.812a5.373 5.373 0 0 0-5.37 5.371v20.047a5.373 5.373 0 0 0 5.37 5.371h212.305a5.37 5.37 0 0 0 5.371-5.37V231.78a5.37 5.37 0 0 0-5.37-5.37zm0 0" fill="#8ac2ff"/><path d="M181.445 251.828v-20.047a5.37 5.37 0 0 1 5.371-5.37h-35a5.374 5.374 0 0 0-5.375 5.37v20.047a5.374 5.374 0 0 0 5.375 5.371h35a5.37 5.37 0 0 1-5.37-5.37zm0 0" fill="#6fb1ff"/><path d="M164.84 287.254l25.066 21.164a26.963 26.963 0 0 1 8.489-1.363c12.312 0 22.785 8.265 26.667 19.8h62.81c3.882-11.535 14.355-19.8 26.667-19.8 2.957 0 5.809.476 8.488 1.363l25.067-21.164zm0 0" fill="#3e4b5a"/><path d="M186.629 287.254h-21.79l21.79 18.394zm0 0" fill="#374451"/><path d="M281.59 124.89c0 13.88-11.254 25.133-25.137 25.133-13.879 0-25.133-11.253-25.133-25.132 0-13.883 11.254-25.133 25.133-25.133 13.883 0 25.137 11.25 25.137 25.133zm0 0" fill="#feca57"/><path d="M266.32 124.89c0-7.074 2.93-13.464 7.637-18.03-4.527-4.395-10.695-7.102-17.504-7.102-13.879 0-25.133 11.25-25.133 25.133 0 13.879 11.254 25.132 25.133 25.132 6.809 0 12.977-2.707 17.504-7.101-4.707-4.567-7.637-10.957-7.637-18.031zm0 0" fill="#f4b537"/><path d="M287.96 332.996c0-3.469.606-6.797 1.716-9.89h-66.672a29.335 29.335 0 0 1 1.715 9.89c0 10.254-5.258 19.293-13.258 24.625a40.204 40.204 0 0 0 19.574 5.055h50.61c7.109 0 13.785-1.84 19.57-5.055-7.996-5.332-13.254-14.371-13.254-24.625zm0 0" fill="#e4eaf8"/><path d="M288.598 339.05c-2.262.391-4.578.614-6.953.614h-50.61c-2.37 0-4.691-.223-6.95-.613-1.616 7.703-6.241 14.316-12.624 18.57a40.246 40.246 0 0 0 19.574 5.055h50.61a40.22 40.22 0 0 0 19.57-5.055c-6.375-4.254-11.004-10.867-12.617-18.57zm0 0" fill="#c7d2e5"/><path d="M189.906 307.406l-67.25-54.066c-1.008 11.562-8.965 21.133-19.68 24.5l67.25 54.066c1.008-11.562 8.965-21.133 19.68-24.5zm0 0M94.488 279.137c-9.054 0-17.113-4.262-22.289-10.887L8.77 460.387c-2.722 8.242 1.754 17.129 9.997 19.847 8.238 2.723 17.125-1.754 19.843-9.996l63.43-192.129a28.323 28.323 0 0 1-7.55 1.028zm0 0" fill="#e4eaf8"/><path d="M29.77 460.387l59.968-181.653c-7.093-1.203-13.289-5.046-17.539-10.484L8.77 460.387c-2.722 8.242 1.754 17.129 9.997 19.847 5.539 1.832 11.367.395 15.418-3.242-4.489-4.043-6.43-10.496-4.414-16.605zm0 0" fill="#c7d2e5"/><path d="M323.027 307.406l67.246-54.066c1.008 11.562 8.97 21.133 19.684 24.5l-67.25 54.066c-1.008-11.562-8.969-21.133-19.68-24.5zm0 0" fill="#e4eaf8"/><path d="M136.113 270.184a28.576 28.576 0 0 0 2.918-3.684l-16.375-13.16c-1.008 11.562-8.965 21.133-19.68 24.5l67.25 54.066a28.083 28.083 0 0 1 4.63-13.16l-37.465-30.121c-5.723-4.602-6.29-13.082-1.278-18.441zm0 0M357.441 296.621l37.461-30.121a28.11 28.11 0 0 1-4.629-13.16l-67.246 54.066c10.711 3.367 18.672 12.938 19.68 24.5l16.371-13.16a28.213 28.213 0 0 0-2.914-3.684c-5.016-5.363-4.445-13.84 1.277-18.44zm0 0" fill="#c7d2e5"/><path d="M418.441 279.137c9.059 0 17.118-4.262 22.293-10.887l63.43 192.137c2.723 8.242-1.754 17.129-9.996 19.847-8.238 2.723-17.125-1.754-19.844-9.996l-63.43-192.129a28.294 28.294 0 0 0 7.547 1.028zm0 0" fill="#e4eaf8"/><path d="M490.988 458.766l-60.234-182.457a28.071 28.071 0 0 1-12.313 2.828c-2.613 0-5.144-.364-7.546-1.028l63.425 192.13c2.723 8.238 11.61 12.714 19.848 9.995 5.184-1.71 8.875-5.863 10.223-10.761-6-.586-11.387-4.614-13.403-10.707zm0 0M343.719 334.395c0 15.867-12.864 28.73-28.73 28.73-15.872 0-28.735-12.863-28.735-28.73 0-15.872 12.863-28.735 28.734-28.735 15.867 0 28.73 12.863 28.73 28.735zm0 0" fill="#c7d2e5"/><path d="M321.258 334.395c0-9.282 4.402-17.528 11.23-22.782a28.596 28.596 0 0 0-17.5-5.953c-15.867 0-28.734 12.863-28.734 28.735 0 15.867 12.867 28.73 28.734 28.73a28.596 28.596 0 0 0 17.5-5.953c-6.828-5.254-11.23-13.5-11.23-22.777zm0 0" fill="#bac7db"/><path d="M226.68 334.395c0 15.89-12.883 28.773-28.778 28.773-15.89 0-28.773-12.883-28.773-28.773 0-15.895 12.883-28.778 28.773-28.778 15.895 0 28.778 12.883 28.778 28.778zm0 0" fill="#c7d2e5"/><path d="M204.129 334.395c0-9.31 4.422-17.579 11.273-22.836a28.635 28.635 0 0 0-17.5-5.942c-15.89 0-28.773 12.883-28.773 28.778 0 15.89 12.883 28.773 28.773 28.773a28.635 28.635 0 0 0 17.5-5.941c-6.851-5.258-11.273-13.528-11.273-22.832zm0 0" fill="#bac7db"/><path d="M124.008 252.086c0 16.3-13.215 29.52-29.52 29.52-16.3 0-29.515-13.22-29.515-29.52 0-16.3 13.215-29.516 29.515-29.516 16.305 0 29.52 13.215 29.52 29.516zm0 0" fill="#54a0ff"/><path d="M111.992 228.32a29.38 29.38 0 0 0-17.504-5.75c-16.3 0-29.515 13.215-29.515 29.516 0 16.3 13.215 29.52 29.515 29.52 6.555 0 12.606-2.141 17.504-5.754-16.027-11.82-16.015-35.723 0-47.532zm0 0" fill="#338def"/><path d="M447.96 252.086c0 16.3-13.214 29.52-29.519 29.52-16.3 0-29.515-13.22-29.515-29.52 0-16.3 13.215-29.516 29.515-29.516 16.305 0 29.52 13.215 29.52 29.516zm0 0" fill="#54a0ff"/><path d="M435.945 228.32a29.38 29.38 0 0 0-17.504-5.75c-16.3 0-29.515 13.215-29.515 29.516 0 16.3 13.215 29.52 29.515 29.52 6.555 0 12.606-2.141 17.504-5.754-16.03-11.82-16.007-35.727 0-47.532zm0 0" fill="#338def"/><path d="M496.063 487.523c12.152-4.015 18.777-17.168 14.765-29.32L448.563 269.59a35.588 35.588 0 0 0 5.207-18.57c0-19.73-16.051-35.786-35.786-35.786-19.382 0-35.203 15.496-35.754 34.746l-6.02 4.84c.204-.91.321-1.855.321-2.828V231.95c0-5.285-3.199-9.828-7.761-11.812V167.69a7.5 7.5 0 0 0-7.5-7.5 7.5 7.5 0 0 0-7.504 7.5v51.383H158.25v-106.3c0-53.903 43.852-97.762 97.754-97.774a.04.04 0 0 1 .012.004.017.017 0 0 0 .011-.004c53.899.023 97.739 43.875 97.739 97.773v19.914a7.5 7.5 0 0 0 7.5 7.5c4.144 0 7.5-3.355 7.5-7.5v-19.914C368.766 50.598 318.184.008 256.008 0 193.832.008 143.25 50.598 143.25 112.773v109.188c-2.906 2.363-4.766 5.96-4.766 9.984v20.047c0 2.301.61 4.453 1.672 6.324l-10.367-8.336c-.555-19.253-16.375-34.746-35.758-34.746-19.73 0-35.785 16.051-35.785 35.782a35.568 35.568 0 0 0 5.207 18.57L1.188 458.203c-4.965 15.035 6.261 30.492 22.027 30.492 9.742 0 18.84-6.191 22.058-15.941l60.305-182.668 56.598 45.508c.554 19.254 16.375 34.746 35.758 34.746a35.56 35.56 0 0 0 16.082-3.832 45.22 45.22 0 0 0 18.152 3.832h7.836a7.5 7.5 0 1 0 0-15h-7.836c-1.617 0-3.234-.13-4.824-.387 4.355-6.281 6.695-13.816 6.324-22.324h44.68c-.364 8.375 1.894 15.941 6.324 22.324-1.59.258-3.207.387-4.824.387h-4.84a7.5 7.5 0 0 0-7.5 7.5c0 4.144 3.355 7.5 7.5 7.5h4.84A45.22 45.22 0 0 0 298 366.508c23.438 11.844 51.094-4.914 51.84-30.914l56.598-45.508 60.3 182.668c4.016 12.156 17.164 18.781 29.325 14.77zM153.483 234.074h208.047v15.79H153.484zm200.282 30.793v7.996l-8.774 7.055H167.023l-8.773-7.055v-7.996zM31.027 468.051c-1.418 4.3-6.074 6.648-10.37 5.226a8.207 8.207 0 0 1-5.227-10.37L75.309 281.53c4.875 3.004 10.37 4.692 15.601 5.137zM94.031 271.8c-11.531 0-20.785-9.41-20.785-20.785 0-11.457 9.324-20.782 20.785-20.782s20.782 9.325 20.782 20.782c0 11.523-9.391 20.785-20.782 20.785zm71.598 47.32l-49.582-39.863a35.55 35.55 0 0 0 10.289-12.805l49.582 39.863a35.583 35.583 0 0 0-10.29 12.805zm32.305 36.219c-13.727 0-24.059-13.293-19.829-27.004 2.665-8.48 10.598-14.563 19.829-14.563 11.394 0 20.785 9.313 20.785 20.786 0 11.375-9.262 20.78-20.785 20.78zm84.62-37.711h-53.093c-7.168-13.36-22.48-21.203-38.207-18.23l-5.574-4.481h140.656l-5.574 4.48c-15.61-2.949-30.953 4.747-38.207 18.23zm31.524 37.71c-8.531 0-16.031-5.202-19.2-12.85-5.722-13.805 4.638-28.716 19.2-28.716 11.586 0 20.785 9.461 20.785 20.786 0 11.457-9.324 20.78-20.785 20.78zm32.309-36.218a35.583 35.583 0 0 0-10.29-12.805l49.583-39.863a35.583 35.583 0 0 0 10.289 12.805zm71.597-47.32c-11.554 0-20.78-9.43-20.78-20.785 0-11.457 9.32-20.782 20.78-20.782s20.782 9.325 20.782 20.782c.004 11.425-9.309 20.785-20.782 20.785zm63 196.25l-59.879-181.383a95.27 95.27 0 0 0 2.27-.273c.207-.032.406-.07.61-.106a35.524 35.524 0 0 0 12.722-4.758l59.875 181.371c1.418 4.301-.926 8.957-5.227 10.375-4.296 1.418-8.953-.922-10.37-5.226zm0 0"/><path d="M223.36 125.055c0 17.996 14.64 32.636 32.636 32.636 17.992 0 32.633-14.64 32.633-32.636 0-17.993-14.64-32.633-32.633-32.633-17.996 0-32.637 14.64-32.637 32.633zm50.269 0c0 9.722-7.91 17.632-17.633 17.632s-17.633-7.91-17.633-17.632c0-9.723 7.91-17.633 17.633-17.633s17.633 7.91 17.633 17.633zm0 0"/><path d="M189.867 125.055c0 36.465 29.664 66.129 66.13 66.129 36.46 0 66.124-29.664 66.124-66.13 0-36.46-29.664-66.124-66.125-66.124-36.465 0-66.129 29.664-66.129 66.125zm117.254 0c0 28.191-22.934 51.125-51.125 51.125s-51.125-22.934-51.125-51.125c0-28.192 22.934-51.125 51.125-51.125s51.125 22.933 51.125 51.125zm0 0"/></svg>