<svg height="512pt" viewBox="-62 0 512 512" width="512pt" xmlns="http://www.w3.org/2000/svg"><path d="M199.84 71.41c-44.336 0-80.278 35.942-80.278 80.274 0 37.714 26.016 69.34 61.075 77.949l39.207-.188c34.656-8.89 60.27-40.332 60.27-77.761 0-44.332-35.942-80.274-80.274-80.274zm0 0" fill="#fcd486"/><path d="M154.566 151.684c0-38.32 26.86-70.348 62.774-78.336a80.49 80.49 0 0 0-17.5-1.938c-44.336 0-80.278 35.942-80.278 80.274 0 37.714 26.016 69.34 61.075 77.949l34.394-.164c-34.75-8.824-60.465-40.29-60.465-77.785zm0 0" fill="#feca57"/><path d="M199.84 101.121c-27.926 0-50.563 22.637-50.563 50.563 0 21.125 12.961 39.218 31.36 46.78l39.207-.335c17.976-7.754 30.558-25.625 30.558-46.445 0-27.926-22.636-50.563-50.562-50.563zm0 0" fill="#feca57"/><path d="M184.277 151.684c0-21.77 13.762-40.329 33.063-47.45a50.46 50.46 0 0 0-17.5-3.113c-27.926 0-50.563 22.637-50.563 50.563 0 21.125 12.961 39.218 31.36 46.78l34.324-.296c-18.04-7.723-30.684-25.621-30.684-46.484zm0 0" fill="#f4b537"/><path d="M257.059 303.27L225.8 344.305c-1.942 2.547-6.012 1.175-6.012-2.028V159.391c.008-10.836-8.71-19.63-19.55-19.637-10.833-.004-19.63 8.77-19.637 19.605-.012 17.246-.008.543-.008 138.79v-19.012c0-10.825-9.059-19.598-19.883-19.598s-19.598 8.773-19.598 19.598v5.285c0-10.82-8.773-19.598-19.597-19.598s-19.598 8.778-19.598 19.598v3.965c0-10.82-8.773-19.594-19.598-19.594-10.824 0-19.597 8.773-19.597 19.594v30.597h.062l-.062 82.79c-.032 35.347 28.117 32.75 28.101 61.175l-.011 22.27c0 14.926 9.242 18.426 15.34 19.113h95.14c21.062 0 18.219-18.71 18.219-31.43h-.004c.113-13.101 1.3-24.023 7.828-30.488 0 0 12.383-12.266 12.48-12.36v-.003c8.622-8.54 14.149-20.25 14.215-20.395l38.664-88.476c9.57-20.758-19.414-40.621-35.636-17.91zm0 0" fill="#ffcdbf"/><g fill="#ffbeab"><path d="M116.883 485.219l.012-22.27c.015-28.426-28.133-25.828-28.102-61.176l.062-82.789h-.062v-30.597c0-5.817 2.539-11.035 6.562-14.625a19.513 19.513 0 0 0-13.035-4.969c-10.824 0-19.597 8.773-19.597 19.598v30.593h.062l-.062 82.79c-.032 35.347 28.117 32.75 28.097 61.175l-.011 22.27c0 14.926 9.242 18.43 15.343 19.117h26.07c-6.097-.691-15.34-4.191-15.34-19.117zm0 0M147.629 333.41a6.518 6.518 0 0 0 6.52-6.52v-66.222c-7.594 2.7-13.036 9.95-13.036 18.469v5.289-.004 42.469a6.518 6.518 0 0 0 6.516 6.52zm0 0M187.113 333.41a6.518 6.518 0 0 0 6.516-6.52V140.896c-7.586 2.707-13.02 9.949-13.027 18.464-.012 16.426-.008-2.054-.008 119.778v-.004 47.758a6.518 6.518 0 0 0 6.52 6.52zm0 0"/><path d="M114.953 326.89v-60.933c-7.594 2.7-13.035 9.945-13.035 18.469v42.469a6.518 6.518 0 1 0 13.035-.004zm0 0M282.71 294.973c-.015-.004-.026-.012-.038-.016-8.547-3.887-18.567-1.535-25.606 8.297 0 .004-.003.008-.007.012L225.8 344.305c-1.684 2.21-4.965 1.468-5.809-.86l.024.13c.25 1.382 2.855 14.347 13.07 14.347 5.766 0 10.262-3.285 13.305-6.485l36.738-48.167c1.441-2.016 2.984-3.692 4.59-5.067a21.078 21.078 0 0 0-5.008-3.23zm0 0"/></g><path d="M363.438 24.152c0 9.285-7.528 16.813-16.817 16.813-9.285 0-16.816-7.528-16.816-16.813 0-9.289 7.53-16.816 16.816-16.816 9.29 0 16.816 7.527 16.816 16.816zm0 0" fill="#feca57"/><path d="M354.746 24.152c0-4.336 1.652-8.273 4.344-11.254-3.074-3.41-7.516-5.562-12.469-5.562-9.285 0-16.816 7.527-16.816 16.816 0 9.285 7.53 16.813 16.816 16.813 4.953 0 9.395-2.153 12.469-5.563-2.692-2.98-4.344-6.918-4.344-11.25zm0 0" fill="#f4b537"/><path d="M380.254 150.816c0 9.29-7.531 16.817-16.817 16.817-9.289 0-16.816-7.528-16.816-16.817 0-9.285 7.527-16.816 16.816-16.816 9.286 0 16.817 7.531 16.817 16.816zm0 0" fill="#feca57"/><path d="M371.559 150.816c0-4.332 1.656-8.27 4.347-11.254-3.078-3.406-7.515-5.558-12.469-5.558-9.285 0-16.816 7.527-16.816 16.812 0 9.29 7.527 16.817 16.816 16.817 4.954 0 9.391-2.156 12.47-5.563-2.692-2.98-4.348-6.918-4.348-11.254zm0 0" fill="#f4b537"/><path d="M363.438 276.89c0 9.286-7.528 16.817-16.817 16.817-9.285 0-16.816-7.531-16.816-16.816 0-9.29 7.53-16.817 16.816-16.817 9.29 0 16.816 7.528 16.816 16.817zm0 0" fill="#feca57"/><path d="M354.746 276.89c0-4.335 1.652-8.273 4.344-11.253-3.074-3.407-7.516-5.563-12.469-5.563-9.285 0-16.816 7.528-16.816 16.817 0 9.285 7.53 16.816 16.816 16.816 4.953 0 9.395-2.156 12.469-5.562-2.692-2.985-4.344-6.922-4.344-11.254zm0 0" fill="#f4b537"/><path d="M58.406 24.152c0 9.285-7.527 16.813-16.816 16.813-9.285 0-16.817-7.528-16.817-16.813 0-9.289 7.532-16.816 16.817-16.816 9.289 0 16.816 7.527 16.816 16.816zm0 0" fill="#feca57"/><path d="M49.715 24.152c0-4.336 1.652-8.273 4.344-11.254-3.075-3.41-7.516-5.562-12.47-5.562-9.284 0-16.816 7.527-16.816 16.816 0 9.285 7.532 16.813 16.817 16.813 4.953 0 9.394-2.153 12.469-5.563-2.692-2.98-4.344-6.918-4.344-11.25zm0 0" fill="#f4b537"/><path d="M41.59 150.816c0 9.29-7.528 16.817-16.817 16.817-9.285 0-16.816-7.528-16.816-16.817 0-9.285 7.531-16.816 16.816-16.816 9.29 0 16.817 7.531 16.817 16.816zm0 0" fill="#feca57"/><path d="M32.898 150.816c0-4.332 1.653-8.27 4.348-11.254-3.078-3.406-7.52-5.558-12.473-5.558-9.285 0-16.816 7.527-16.816 16.812 0 9.29 7.531 16.817 16.816 16.817 4.954 0 9.395-2.156 12.473-5.563-2.695-2.98-4.348-6.918-4.348-11.254zm0 0" fill="#f4b537"/><path d="M187.68 326.992v-28.754a7.502 7.502 0 0 0-15.004 0v28.754a7.5 7.5 0 0 0 7.504 7.5 7.5 7.5 0 0 0 7.5-7.5zm0 0M284.977 91.445a7.497 7.497 0 0 0-2.309 10.352c2.223 3.504 6.86 4.527 10.352 2.308l57.164-36.312a7.504 7.504 0 0 0 3.48-6.332V47.44c9.746-3.168 16.816-12.336 16.816-23.125C370.48 10.906 359.57 0 346.164 0c-13.41 0-24.316 10.906-24.316 24.316 0 10.79 7.066 19.957 16.816 23.125v9.899zm51.87-67.129c0-5.136 4.18-9.316 9.317-9.316 5.133 0 9.313 4.18 9.313 9.316 0 5.133-4.18 9.313-9.313 9.313-5.137 0-9.316-4.176-9.316-9.313zm0 0M66.285 232.809l36.02-22.883a7.498 7.498 0 0 0 2.308-10.352 7.5 7.5 0 0 0-10.351-2.312l-36.02 22.883a7.498 7.498 0 0 0-2.308 10.351 7.497 7.497 0 0 0 10.351 2.313zm0 0M65.434 24.316C65.434 10.906 54.524 0 41.117 0c-13.41 0-24.316 10.906-24.316 24.316 0 10.79 7.066 19.957 16.812 23.125v14.02a7.513 7.513 0 0 0 3.48 6.332l57.165 36.312a7.502 7.502 0 1 0 8.047-12.664L48.617 57.336V47.44c9.746-3.168 16.817-12.336 16.817-23.125zm-24.317 9.317c-5.137 0-9.316-4.18-9.316-9.317C31.8 19.18 35.98 15 41.117 15c5.137 0 9.313 4.18 9.313 9.316 0 5.133-4.176 9.317-9.313 9.317zm0 0M321.848 277.055c0 13.41 10.906 24.316 24.316 24.316 13.406 0 24.313-10.906 24.313-24.316 0-10.79-7.067-19.957-16.813-23.125v-14.02a7.504 7.504 0 0 0-3.48-6.332l-57.164-36.312a7.5 7.5 0 0 0-10.356 2.308c-2.219 3.496-1.187 8.133 2.313 10.352l53.687 34.105v9.899c-9.75 3.168-16.816 12.336-16.816 23.125zm24.316-9.317c5.137 0 9.313 4.18 9.313 9.317 0 5.136-4.18 9.316-9.313 9.316-5.137 0-9.316-4.18-9.316-9.316 0-5.137 4.18-9.317 9.316-9.317zm0 0M387.293 150.98c0-13.406-10.906-24.312-24.313-24.312-10.683 0-19.77 6.926-23.027 16.52h-34.45c-4.144 0-7.5 3.355-7.5 7.5s3.356 7.5 7.5 7.5h34.25c3.075 9.902 12.325 17.109 23.227 17.109 13.407 0 24.313-10.906 24.313-24.317zm-24.313 9.317c-5.136 0-9.316-4.18-9.316-9.317 0-5.132 4.18-9.312 9.316-9.312 5.133 0 9.313 4.18 9.313 9.312 0 5.137-4.18 9.317-9.313 9.317zm0 0M0 150.98c0 13.41 10.906 24.317 24.316 24.317 10.899 0 20.149-7.207 23.227-17.11h34.23a7.5 7.5 0 0 0 0-15h-34.43c-3.257-9.597-12.347-16.523-23.027-16.523C10.906 126.664 0 137.574 0 150.98zm24.316-9.312c5.137 0 9.313 4.18 9.313 9.312 0 5.137-4.18 9.317-9.313 9.317-5.136 0-9.316-4.18-9.316-9.317 0-5.132 4.18-9.312 9.316-9.312zm0 0M206.879 42.207V19.898a7.5 7.5 0 1 0-15 0v22.309a7.5 7.5 0 0 0 7.5 7.5c4.144 0 7.5-3.355 7.5-7.5zm0 0"/><path d="M138.207 263.52c-11.773-9.63-29.223-7.7-38.605 4.472-17.493-15.16-44.84-2.68-44.84 20.485v113.418c-.02 21.68 9.59 31.62 17.308 39.605 6.274 6.492 10.809 11.188 10.801 21.594l-.012 22.281c0 15.086 8.227 25.02 22.008 26.574.278.035.559.051.84.051h29.883a7.5 7.5 0 0 0 7.5-7.5c0-4.145-3.356-7.5-7.5-7.5h-29.426c-4.168-.555-8.3-2.488-8.3-11.621l.007-22.277c.012-16.477-7.973-24.735-15.016-32.024-7.03-7.277-13.105-13.562-13.09-29.176V288.477c0-6.676 5.43-12.106 12.102-12.106 6.676 0 12.106 5.43 12.106 12.106v38.515c0 4.145 3.355 7.5 7.5 7.5 4.144 0 7.5-3.355 7.5-7.5v-42.48c0-6.676 5.43-12.106 12.105-12.106s12.106 5.43 12.106 12.106v42.48c0 4.145 3.355 7.5 7.5 7.5 4.144 0 7.5-3.355 7.5-7.5v-47.77c0-6.675 5.43-12.105 12.105-12.105 6.715 0 12.39 5.543 12.39 12.106a7.5 7.5 0 0 0 7.5 7.5 7.5 7.5 0 0 0 7.5-7.5c0-60.637 0-32.29.008-119.817.004-6.68 5.442-12.117 12.133-12.117h.004c6.68.004 12.07 5.406 12.067 12.14v182.954c0 10.367 13.214 14.8 19.476 6.574l31.274-41.05c.046-.063.093-.126.136-.188 10.907-15.266 28.559-2.207 22.735 10.422-.02.043-.043.09-.063.136l-38.625 88.395c-6.515 13.488-14.254 19.75-25.164 30.555-16.62 16.468-5.664 50.242-12.746 57.48-1.488 1.52-4.187 2.293-8.027 2.293h-30.29c-4.144 0-7.5 3.355-7.5 7.5s3.356 7.5 7.5 7.5h30.29c8.027 0 14.336-2.29 18.754-6.805 8.629-8.824 6.972-22.605 6.972-32.074.09-10.312.828-20.504 5.606-25.234 10.422-10.32 21.156-19.371 28.234-34.95.024-.046.047-.097.067-.144l38.648-88.45c13.234-28.906-27.05-55.323-48.527-25.44l-23.75 31.179v-94.855c28.976-9.512 50.925-33.305 57.945-63.313a7.498 7.498 0 0 0-5.594-9.012 7.497 7.497 0 0 0-9.012 5.594c-5.437 23.23-21.66 41.969-43.34 50.766V202.98a58.026 58.026 0 0 0 30.555-51.128c0-32.016-26.047-58.063-58.062-58.063-32.016 0-58.063 26.047-58.063 58.063 0 21.921 12.157 41.632 31.36 51.554v16.164c-27.551-10.8-46.07-37.41-46.07-67.718 0-40.125 32.644-72.774 72.773-72.774 34.203 0 64.144 24.254 71.195 57.672.856 4.055 4.844 6.64 8.887 5.793a7.503 7.503 0 0 0 5.793-8.89c-8.508-40.313-44.621-69.575-85.875-69.575-48.399 0-87.778 39.375-87.778 87.774 0 38.53 24.836 72.093 61.075 83.605v19.598c-11.758-5.926-26.465-2.766-34.473 8.465zm34.469-77.864c-10.192-8.027-16.356-20.36-16.356-33.804 0-23.747 19.317-43.063 43.063-43.063 23.742 0 43.062 19.316 43.062 43.063a43.036 43.036 0 0 1-15.558 33.136v-25.55c.015-14.942-12.008-27.137-27.051-27.149h-.02c-14.949 0-27.12 12.156-27.132 27.11zm0 0"/></svg>