<svg height="512pt" viewBox="-18 0 512 512" width="512pt" xmlns="http://www.w3.org/2000/svg"><path d="M292.16 7.336c-79.281 0-145.95 55.355-164.281 130.195h122.969c6.797 0 12.359 5.64 12.359 12.54v.218h15.535c6.797 0 12.36 5.645 12.36 12.543v1.047h168.793c.296 0 .59.016.882.043C453.2 76.168 380.605 7.336 292.16 7.336zm0 0" fill="#e4eaf8"/><path d="M309.688 8.254a168.744 168.744 0 0 0-17.528-.918c-79.281 0-145.95 55.355-164.281 130.195h35.082C179.92 68.285 238.266 15.727 309.688 8.254zm0 0" fill="#c7d2e5"/><path d="M459.895 227.07H291.102v2.078c0 6.864-5.563 12.477-12.36 12.477h-15.574c.016-.273.039-.547.039-.824 0 6.86-5.562 12.472-12.36 12.472H116.806c-2.008 4.165-6.239 7.059-11.114 7.059h-2.816a102.958 102.958 0 0 1-9.973 11.7L69.594 295.55c-9.871 9.96-2.88 26.996 11.082 26.996h33.52c4.792 0 8.679 3.922 8.679 8.762v29.02c0 43.362 35.16 78.843 78.133 78.843 16.754 0 30.383 13.703 30.383 30.664v25.187c0 5.141 4.129 9.309 9.222 9.309h144.188c5.172 0 9.36-4.227 9.36-9.445v-64.598c0-25.328 8.366-50.258 24.972-69.25 26.328-30.105 42.308-69.644 42.308-112.96v-21.153c-.504.09-1.02.144-1.546.144zm0 0" fill="#e4eaf8"/><path d="M266.473 495.027v-25.191c0-16.957-13.63-30.66-30.383-30.66-42.973 0-78.133-35.48-78.133-78.848v-29.02c0-4.835-3.887-8.761-8.68-8.761h-33.52c-13.96 0-20.952-17.031-11.081-26.992l23.308-23.52a102.72 102.72 0 0 0 8.36-9.55c1.054-1.368 2.703-2.15 4.43-2.15 4.878 0 9.105-2.894 11.113-7.058h-35.082c-2.008 4.164-6.239 7.059-11.114 7.059h-2.816a102.958 102.958 0 0 1-9.973 11.7l-23.308 23.519c-9.871 9.96-2.88 26.992 11.082 26.992h33.52c4.792 0 8.679 3.926 8.679 8.762v29.02c0 43.366 35.16 78.847 78.133 78.847 16.754 0 30.383 13.703 30.383 30.66v25.191c0 5.141 4.129 9.309 9.222 9.309h35.082c-5.093 0-9.222-4.168-9.222-9.309zm0 0" fill="#c7d2e5"/><path d="M459.895 161.605H288.102v67.985h171.793a9.066 9.066 0 0 0 9.066-9.067v-49.851a9.066 9.066 0 0 0-9.066-9.067zm0 0" fill="#feca57"/><path d="M288.102 161.605h38.003v67.985h-38.003zm0 0" fill="#f4b537"/><path d="M288.102 195.598v33.992h171.793a9.066 9.066 0 0 0 9.066-9.067v-24.925zm0 0" fill="#fcd486"/><path d="M288.102 195.598h38.003v33.992h-38.003zm0 0" fill="#feca57"/><path d="M278.742 148.215h-17.535v94.98c0 .278-.023.547-.039.817h17.574c6.797 0 12.36-5.563 12.36-12.364v-71.074c0-6.797-5.563-12.36-12.36-12.36zm0 0" fill="#54a0ff"/><path d="M250.848 135.64H113.805a12.246 12.246 0 0 1 1.246 5.364V250.19c0 1.922-.457 3.739-1.246 5.364h137.043c6.797 0 12.359-5.563 12.359-12.36V148c0-6.797-5.562-12.36-12.36-12.36zm0 0" fill="#338def"/><path d="M113.805 255.555h39.25V135.637h-39.25a12.275 12.275 0 0 1 1.246 5.367V250.19c0 1.922-.457 3.739-1.246 5.364zm0 0" fill="#2c80e5"/><path d="M105.691 128.645H94.703c-6.797 0-12.36 5.562-12.36 12.359V250.19c0 6.797 5.563 12.36 12.36 12.36h10.988c6.797 0 12.36-5.563 12.36-12.36V141.004c0-6.797-5.563-12.36-12.36-12.36zm0 0" fill="#54a0ff"/><path d="M105.844 250.191V141.004c0-4.516 2.46-8.477 6.105-10.633a12.243 12.243 0 0 0-6.258-1.726H94.703c-6.797 0-12.36 5.562-12.36 12.359V250.19c0 6.797 5.563 12.36 12.36 12.36h10.988c2.282 0 4.418-.637 6.258-1.727-3.64-2.156-6.105-6.117-6.105-10.633zm0 0" fill="#338def"/><path d="M43.21 203.262a7.5 7.5 0 1 0 0-15H7.5a7.5 7.5 0 0 0-7.5 7.5c0 4.144 3.355 7.5 7.5 7.5zm0 0M46.215 147.285l-31.418-13.734c-3.793-1.656-8.219.074-9.875 3.87a7.497 7.497 0 0 0 3.867 9.876l31.418 13.734a7.5 7.5 0 1 0 6.008-13.746zm0 0M14.797 257.973l31.418-13.735a7.495 7.495 0 0 0 3.867-9.875 7.497 7.497 0 0 0-9.875-3.867L8.789 244.23a7.495 7.495 0 0 0-3.867 9.875 7.495 7.495 0 0 0 9.875 3.868zm0 0M413.05 357.547c-17.316 19.617-26.847 45.75-26.847 73.582v64.012c0 1.023-.836 1.859-1.86 1.859h-59.156a7.5 7.5 0 1 0 0 15h59.157c9.297 0 16.86-7.566 16.86-16.86V431.13c0-24.176 8.198-46.781 23.093-63.656a176.556 176.556 0 0 0 44.187-116.899v-16.027c4.52-2.961 7.516-8.063 7.516-13.86v-49.851c0-6.297-3.531-11.781-8.719-14.582C457.055 67.922 382.051 0 291.7 0c-82.09 0-149.242 55.406-170.031 128.305h-1.332c-3.649-4.274-9.059-6.996-15.106-6.996H94.246c-10.953 0-19.863 8.91-19.863 19.859v109.187c0 8.48 5.351 15.715 12.847 18.56-.03.026-.058.062-.09.093l-23.308 23.305c-14.594 14.597-4.285 39.554 16.383 39.554h33.52c.652 0 1.183.528 1.183 1.18v28.758c0 47.215 38.414 85.629 85.633 85.629 12.613 0 22.879 10.265 22.879 22.882v24.961c0 9.22 7.504 16.723 16.726 16.723h50.031a7.5 7.5 0 0 0 7.5-7.5c0-4.145-3.355-7.5-7.5-7.5h-50.03c-.95 0-1.723-.773-1.723-1.723v-24.96c0-20.891-16.996-37.883-37.883-37.883-38.946 0-70.633-31.684-70.633-70.63v-28.757c0-8.922-7.258-16.184-16.184-16.184h-33.52c-7.273 0-10.921-8.797-5.776-13.941l23.308-23.309a109.828 109.828 0 0 0 8.39-9.414 20 20 0 0 0 14.2-6.976H250.39c7.683 0 14.789-4.535 18.035-11.547h9.855c3.145 0 6.602-.809 9.653-2.516a20.04 20.04 0 0 0 9.453-11.902h156.097v13.316c0 39.438-14.359 77.426-40.433 106.973zM461 170.836v17.426H298.145V169.27h161.289c.863 0 1.566.703 1.566 1.566zm-205.75-22.457v94.918c-.23 3.422-2.617 4.926-4.863 4.926H125.094v-34.961a7.5 7.5 0 1 0-15 0v37.093c0 2.63-2.278 4.86-4.864 4.86H94.246c-2.637 0-4.86-2.227-4.86-4.86V141.168c0-2.633 2.227-4.86 4.86-4.86h10.984c2.743 0 4.864 2.376 4.864 4.86v37.094c0 4.14 3.355 7.5 7.5 7.5s7.5-3.36 7.5-7.5v-34.957h125.293c2.636 0 4.863 2.226 4.863 4.86zm27.895 47.383v36.054c0 2.633-2.227 4.86-4.864 4.86h-8.031v-80.797h8.031c2.637 0 4.864 2.226 4.864 4.863zm13.918-41.492c-2.747-7.95-10.348-13.391-18.782-13.391h-9.414c-2.902-7.348-10.168-12.574-18.48-12.574H137.305C158.285 61.125 220.449 15 291.699 15c80.348 0 149.168 60.54 160.211 139.27zm1.082 67.984v-18.992H461v17.425a1.57 1.57 0 0 1-1.223 1.528c-.023.004-.047.004-.07.008a2.704 2.704 0 0 1-.125.015.91.91 0 0 1-.148.016zm0 0"/></svg>