<svg height="511pt" viewBox="0 1 511 511.999" width="511pt" xmlns="http://www.w3.org/2000/svg"><path d="M18.203 259.523c-5.683 1.172-9.746 6.016-9.746 11.618v154.543c0 5.605 4.063 10.445 9.746 11.617l87.965 15.527V243.996zm0 0" fill="#54a0ff"/><path d="M42.855 431.504V265.32c0-4.949 2.954-9.343 7.395-11.453l-32.047 5.656c-5.683 1.172-9.746 6.012-9.746 11.618v154.543c0 5.601 4.063 10.445 9.746 11.617l32.047 5.656c-4.441-2.11-7.395-6.504-7.395-11.453zm0 0" fill="#338def"/><path d="M495.504 259.523c5.75 1.172 9.863 6.016 9.863 11.618v154.543c0 5.605-4.113 10.445-9.863 11.617l-89.04 15.523V243.996zm0 0" fill="#54a0ff"/><path d="M446.309 250.945l-39.844-6.949v208.828l39.844-6.945zm0 0" fill="#338def"/><path d="M411.18 242.133V458c0 25.55-20.785 46.336-46.336 46.336H148.98c-25.55 0-46.335-20.785-46.335-46.336V242.133c0-25.547 20.785-46.332 46.335-46.332h215.868c25.547 0 46.332 20.785 46.332 46.332zm0 0" fill="#576574"/><path d="M137.64 458V242.133c0-25.547 20.786-46.332 46.337-46.332H148.98c-25.55 0-46.335 20.785-46.335 46.332V458c0 25.55 20.785 46.336 46.335 46.336h34.997c-25.551 0-46.336-20.785-46.336-46.336zm0 0" fill="#3e4b5a"/><path d="M133.191 458c0 8.707 7.082 15.79 15.786 15.79h215.867c8.707 0 15.789-7.083 15.789-15.79V242.133c0-8.703-7.082-15.785-15.79-15.785H148.98c-8.707 0-15.789 7.082-15.789 15.785zm0 0" fill="#3e4b5a"/><path d="M168.188 458V242.133c0-8.703 7.082-15.785 15.785-15.785h-34.996c-8.704 0-15.786 7.082-15.786 15.785V458c0 8.707 7.082 15.79 15.786 15.79h34.996c-8.703 0-15.786-7.083-15.786-15.79zm0 0" fill="#374451"/><path d="M273.59 355.54c0 9.214-7.465 16.679-16.68 16.679-9.21 0-16.676-7.465-16.676-16.68 0-9.21 7.465-16.676 16.676-16.676 9.215 0 16.68 7.465 16.68 16.676zm0 0" fill="#54a0ff"/><path d="M269 344.07c-3.04-3.199-7.324-5.207-12.09-5.207-9.21 0-16.68 7.465-16.68 16.676 0 9.211 7.47 16.68 16.68 16.68 4.766 0 9.05-2.008 12.09-5.211a16.621 16.621 0 0 1 0-22.938zm0 0" fill="#338def"/><path d="M202.625 401.758h-27.094a6.605 6.605 0 0 0-6.605 6.605v28.196a6.605 6.605 0 0 0 6.605 6.605h27.094a6.605 6.605 0 0 0 6.605-6.605v-28.196a6.605 6.605 0 0 0-6.605-6.605zm0 0" fill="#54a0ff"/><path d="M270.457 401.758h-27.09a6.608 6.608 0 0 0-6.61 6.605v28.196a6.608 6.608 0 0 0 6.61 6.605h27.09a6.608 6.608 0 0 0 6.61-6.605v-28.196a6.608 6.608 0 0 0-6.61-6.605zm0 0" fill="#feca57"/><path d="M338.293 401.758h-27.094a6.605 6.605 0 0 0-6.605 6.605v28.196a6.605 6.605 0 0 0 6.605 6.605h27.094a6.605 6.605 0 0 0 6.605-6.605v-28.196a6.605 6.605 0 0 0-6.605-6.605zm0 0" fill="#ff6b6b"/><path d="M197.133 436.559v-28.196a6.6 6.6 0 0 1 6.05-6.578 6.603 6.603 0 0 0-.558-.027h-27.094a6.605 6.605 0 0 0-6.605 6.605v28.196a6.608 6.608 0 0 0 6.605 6.609h27.094c.188 0 .375-.016.555-.031a6.6 6.6 0 0 1-6.047-6.578zm0 0" fill="#338def"/><path d="M264.965 436.559v-28.196a6.603 6.603 0 0 1 6.05-6.578 6.603 6.603 0 0 0-.558-.027h-27.09a6.608 6.608 0 0 0-6.61 6.605v28.196c0 3.648 2.962 6.609 6.61 6.609h27.09c.188 0 .375-.016.559-.031a6.603 6.603 0 0 1-6.051-6.578zm0 0" fill="#f4b537"/><path d="M332.797 436.559v-28.196a6.603 6.603 0 0 1 6.05-6.578 6.51 6.51 0 0 0-.554-.027h-27.094a6.605 6.605 0 0 0-6.605 6.605v28.196a6.608 6.608 0 0 0 6.605 6.609h27.094c.187 0 .371-.016.555-.031a6.603 6.603 0 0 1-6.051-6.578zm0 0" fill="#ee5253"/><path d="M305.566 55.988c0 26.875-21.78 48.657-48.656 48.657-26.87 0-48.656-21.782-48.656-48.657 0-26.87 21.785-48.656 48.656-48.656 26.875 0 48.656 21.785 48.656 48.656zm0 0" fill="#ffcdbf"/><path d="M243.254 55.988c0-20.699 12.934-38.37 31.156-45.398a48.449 48.449 0 0 0-17.496-3.258c-26.871 0-48.656 21.785-48.656 48.656 0 26.875 21.781 48.657 48.656 48.657a48.53 48.53 0 0 0 17.496-3.254c-18.222-7.032-31.156-24.7-31.156-45.403zm0 0" fill="#ffbeab"/><path d="M303.844 105.969l-44.797 44.797a2.65 2.65 0 0 1-3.742 0l-44.895-44.899c-21.496 4.922-37.664 24.25-37.664 47.184v83.508c0 4.09 3.344 7.437 7.438 7.437H333.64c4.093 0 7.437-3.348 7.437-7.437V153.05c0-22.781-15.953-42.004-37.234-47.082zm0 0" fill="#e4eaf8"/><path d="M207.738 236.559V153.05c0-13.68 5.754-26.07 14.961-34.895l-12.289-12.285c-21.5 4.918-37.668 24.246-37.668 47.18v83.508c0 4.093 3.348 7.437 7.442 7.437h34.996c-4.094 0-7.442-3.348-7.442-7.437zm0 0" fill="#c7d2e5"/><path d="M221.148 104.645c-4.546 0-8.945.648-13.125 1.835l47.282 47.286a2.65 2.65 0 0 0 3.742 0l47.164-47.168a48.01 48.01 0 0 0-13.54-1.953zm0 0" fill="#feca57"/><path d="M251.746 115.207c-3.86-3.86-1.195-10.547 4.262-10.562h.137-34.997c-4.546 0-8.945.648-13.125 1.835l47.282 47.286a2.65 2.65 0 0 0 3.742 0l15.625-15.63zm0 0" fill="#f4b537"/><path d="M256.453 379.883c13.332 0 24.18-10.848 24.18-24.176 0-13.332-10.848-24.18-24.18-24.18s-24.18 10.848-24.18 24.18c0 13.328 10.848 24.176 24.18 24.176zm0-33.356c5.063 0 9.18 4.118 9.18 9.18s-4.117 9.18-9.18 9.18-9.18-4.117-9.18-9.18 4.118-9.18 9.18-9.18zm0 0M256.453 321.93c4.14 0 7.5-3.36 7.5-7.5v-27.832a7.5 7.5 0 0 0-7.5-7.5 7.497 7.497 0 0 0-7.5 7.5v27.832c0 4.14 3.36 7.5 7.5 7.5zm0 0M201.566 325.363a7.5 7.5 0 0 0 12.922-7.613l-30.902-52.477a7.499 7.499 0 0 0-12.922 7.61zm0 0M301.074 328.02a7.502 7.502 0 0 0 10.27-2.657l30.898-52.48a7.496 7.496 0 0 0-2.656-10.266 7.496 7.496 0 0 0-10.266 2.656l-30.902 52.48a7.5 7.5 0 0 0 2.656 10.267zm0 0M202.168 394.422h-27.094c-7.777 0-14.105 6.328-14.105 14.105v28.196c0 7.78 6.328 14.105 14.105 14.105h27.094c7.777 0 14.105-6.324 14.105-14.105v-28.196c0-7.777-6.328-14.105-14.105-14.105zm-.895 41.41h-25.308v-26.41h25.308zm0 0M270 394.422h-27.094c-7.777 0-14.105 6.328-14.105 14.105v28.196c0 7.78 6.328 14.105 14.105 14.105H270c7.777 0 14.105-6.324 14.105-14.105v-28.196c0-7.777-6.328-14.105-14.105-14.105zm-.89 41.41H243.8v-26.41h25.31zm0 0M337.832 394.422h-27.094c-7.777 0-14.105 6.328-14.105 14.105v28.196c0 7.78 6.328 14.105 14.105 14.105h27.094c7.777 0 14.105-6.324 14.105-14.105v-28.196c0-7.777-6.328-14.105-14.105-14.105zm-.895 41.41h-25.304v-26.41h25.305zm0 0"/><path d="M497.082 252.355a3.613 3.613 0 0 0-.219-.042l-78.843-14.438c-2.274-27.621-25.465-49.41-53.668-49.41h-16.235v-35.25c0-29.91-23.68-54.586-53.574-55.848 11.098-10.265 18.062-24.941 18.062-41.215C312.605 25.192 287.418 0 256.453 0s-56.156 25.191-56.156 56.156c0 16.274 6.965 30.946 18.062 41.211-29.89 1.27-53.574 25.926-53.574 55.848v35.25h-16.234c-28.2 0-51.39 21.789-53.664 49.41l-78.844 14.438c-.074.015-.148.027-.219.042C6.945 254.254.5 262.227.5 271.305v154.543c0 9.082 6.445 17.05 15.324 18.949.07.015.145.031.219.043l78.672 14.406C95.312 488.434 119.223 512 148.55 512h90.406a7.5 7.5 0 1 0 0-15h-90.406c-21.43 0-38.867-17.434-38.867-38.867V242.332c0-21.434 17.437-38.867 38.867-38.867h16.234v15.55H148.52c-12.84 0-23.286 10.446-23.286 23.286v215.867c0 12.84 10.446 23.285 23.286 23.285h215.867c12.84 0 23.285-10.445 23.285-23.285V242.301c0-12.84-10.445-23.285-23.285-23.285H348.12v-15.551h16.234c21.43 0 38.868 17.433 38.868 38.867v215.8c0 21.434-17.438 38.868-38.868 38.868H273.95a7.496 7.496 0 0 0-7.496 7.5c0 4.14 3.356 7.5 7.496 7.5h90.406c29.329 0 53.239-23.566 53.836-52.754l78.672-14.406c.074-.012.149-.028.219-.043 8.879-1.899 15.324-9.867 15.324-18.95v-58.042a7.495 7.495 0 0 0-7.496-7.496 7.496 7.496 0 0 0-7.5 7.496v58.043a4.406 4.406 0 0 1-3.383 4.265l-75.804 13.883V253.16l75.804 13.88a4.406 4.406 0 0 1 3.383 4.265v61.504c0 4.144 3.356 7.5 7.5 7.5a7.496 7.496 0 0 0 7.496-7.5v-61.504c0-9.078-6.445-17.047-15.324-18.95zM94.688 443.996l-75.81-13.883a4.403 4.403 0 0 1-3.382-4.265V271.305a4.398 4.398 0 0 1 3.383-4.262l75.808-13.883zm120.609-387.84c0-22.695 18.46-41.156 41.156-41.156 22.692 0 41.156 18.46 41.156 41.156 0 22.692-18.464 41.156-41.156 41.156-22.695 0-41.156-18.464-41.156-41.156zm74.305 56.153l-32.883 32.886-32.887-32.886zm-109.817 40.906c0-17.203 10.684-31.953 25.758-37.985l44.004 44.004c3.95 3.946 10.383 3.953 14.344-.004l43.851-43.851c14.88 6.129 25.38 20.777 25.38 37.836.038 51.555-.009 71.652.062 83.457h-21.586v-77.86c0-4.144-3.356-7.5-7.5-7.5a7.496 7.496 0 0 0-7.496 7.5v77.868l-80.293.03v-77.898a7.5 7.5 0 1 0-15 0v77.907l-21.524.008v-83.512zm184.602 80.797c4.57 0 8.289 3.718 8.289 8.289v215.867c0 4.566-3.719 8.285-8.29 8.285H148.52c-4.57 0-8.286-3.719-8.286-8.285V242.301c0-4.57 3.715-8.29 8.286-8.29h16.265v2.716c0 8.234 6.703 14.933 14.938 14.933h153.46c8.235 0 14.938-6.7 14.938-14.933v-2.715zm0 0"/></svg>