<svg height="511pt" viewBox="0 -9 511.999 511" width="511pt" xmlns="http://www.w3.org/2000/svg"><path d="M447.414 139.184c-2.726-.493-4.805-2.704-5.02-5.465C436.907 62.813 377.638 6.98 305.32 6.98c-53.312 0-99.527 30.348-122.34 74.7-1.328 2.586-4.296 3.87-7.074 3.027a71.77 71.77 0 0 0-20.87-3.086c-32.848 0-60.544 22.012-69.173 52.086-.746 2.594-3.156 4.32-5.855 4.32h-.047c-40.07 0-72.492 32.743-71.969 72.93.512 39.555 33.485 71.023 73.043 71.023h352.469c39.918 0 73.371-32.66 73.043-72.578-.285-35.097-25.7-64.199-59.133-70.218zm0 0" fill="#54a0ff"/><path d="M190.086 81.621a71.895 71.895 0 0 1 20.867 3.086c2.781.844 5.746-.441 7.074-3.027 20.282-39.426 59.059-67.766 104.871-73.578A138.795 138.795 0 0 0 305.32 6.98c-53.312 0-99.527 30.344-122.34 74.7-.058.113-.136.21-.203.32a72.884 72.884 0 0 1 7.309-.379zm0 0M43.04 210.957c-.524-40.187 31.898-72.93 71.968-72.93h.047c2.703 0 5.11-1.722 5.855-4.32 7.04-24.527 26.762-43.687 51.617-49.926a71.926 71.926 0 0 0-17.492-2.16c-32.847 0-60.543 22.008-69.172 52.086-.746 2.594-3.156 4.32-5.855 4.32h-.047c-40.07 0-72.492 32.743-71.969 72.93.512 39.555 33.485 71.02 73.043 71.02h35.047c-39.559 0-72.531-31.465-73.043-71.02zm0 0" fill="#338def"/><path d="M89 379.434c0 10.218-8.285 18.507-18.508 18.507-10.219 0-18.504-8.289-18.504-18.507 0-10.223 8.285-18.508 18.504-18.508 10.223 0 18.508 8.285 18.508 18.508zm0 0" fill="#feca57"/><path d="M77.066 379.434c0-5.38 2.309-10.204 5.97-13.586-3.302-3.047-7.696-4.922-12.544-4.922-10.219 0-18.504 8.285-18.504 18.508 0 10.218 8.285 18.507 18.504 18.507 4.848 0 9.242-1.878 12.543-4.925-3.66-3.38-5.969-8.207-5.969-13.582zm0 0" fill="#f4b537"/><path d="M238.324 467.129c0 10.223-8.285 18.508-18.508 18.508s-18.507-8.285-18.507-18.508c0-10.219 8.285-18.508 18.507-18.508s18.508 8.29 18.508 18.508zm0 0" fill="#feca57"/><path d="M226.39 467.129c0-5.375 2.305-10.203 5.965-13.582-3.296-3.047-7.69-4.926-12.539-4.926-10.218 0-18.507 8.29-18.507 18.508 0 10.223 8.289 18.508 18.507 18.508 4.848 0 9.243-1.875 12.54-4.922-3.66-3.383-5.965-8.207-5.965-13.586zm0 0" fill="#f4b537"/><path d="M303.297 467.129c0 10.223-8.285 18.508-18.504 18.508-10.223 0-18.508-8.285-18.508-18.508 0-10.219 8.285-18.508 18.508-18.508 10.219 0 18.504 8.29 18.504 18.508zm0 0" fill="#feca57"/><path d="M291.363 467.129c0-5.375 2.309-10.203 5.969-13.582-3.3-3.047-7.695-4.926-12.539-4.926-10.223 0-18.508 8.29-18.508 18.508 0 10.223 8.285 18.508 18.508 18.508 4.844 0 9.238-1.875 12.539-4.922-3.66-3.383-5.969-8.207-5.969-13.586zm0 0" fill="#f4b537"/><path d="M452.621 379.434c0 10.218-8.285 18.507-18.508 18.507-10.218 0-18.508-8.289-18.508-18.507 0-10.223 8.29-18.508 18.508-18.508 10.223 0 18.508 8.285 18.508 18.508zm0 0" fill="#feca57"/><path d="M440.688 379.434c0-5.38 2.304-10.204 5.968-13.586-3.3-3.047-7.695-4.922-12.543-4.922-10.218 0-18.508 8.285-18.508 18.508 0 10.218 8.29 18.507 18.508 18.507 4.848 0 9.242-1.878 12.543-4.925-3.664-3.38-5.969-8.207-5.969-13.582zm0 0" fill="#f4b537"/><path d="M145.742 310.043v62.031H94.953c-3.238-10.695-13.18-18.508-24.922-18.508-14.351 0-26.031 11.68-26.031 26.032 0 14.355 11.68 26.03 26.031 26.03 11.739 0 21.684-7.808 24.922-18.507h58.313a7.522 7.522 0 0 0 7.523-7.523v-69.555c0-4.156-3.367-7.523-7.523-7.523s-7.524 3.367-7.524 7.523zm-75.707 80.539c-6.058 0-10.984-4.926-10.984-10.984 0-6.055 4.926-10.98 10.984-10.98 6.055 0 10.98 4.925 10.98 10.98 0 6.058-4.925 10.984-10.98 10.984zm0 0M219.355 302.52a7.522 7.522 0 0 0-7.523 7.523v132.332c-10.695 3.238-18.508 13.184-18.508 24.922 0 14.351 11.68 26.031 26.031 26.031 14.356 0 26.032-11.68 26.032-26.031 0-11.738-7.809-21.684-18.508-24.922V310.043a7.522 7.522 0 0 0-7.524-7.523zm10.985 164.777c0 6.055-4.926 10.98-10.98 10.98-6.06 0-10.985-4.925-10.985-10.98 0-6.059 4.926-10.985 10.984-10.985 6.055 0 10.98 4.926 10.98 10.985zm0 0M350.422 302.52a7.525 7.525 0 0 0-7.527 7.523v69.555a7.525 7.525 0 0 0 7.527 7.523h58.312c3.239 10.7 13.18 18.508 24.918 18.508 14.356 0 26.032-11.676 26.032-26.031 0-14.352-11.676-26.032-26.032-26.032-11.734 0-21.68 7.813-24.918 18.508h-50.789v-62.031a7.524 7.524 0 0 0-7.523-7.523zm83.23 66.093c6.059 0 10.985 4.93 10.985 10.985 0 6.054-4.926 10.984-10.985 10.984-6.054 0-10.98-4.93-10.98-10.984 0-6.055 4.926-10.985 10.98-10.985zm0 0M284.332 302.52a7.525 7.525 0 0 0-7.527 7.523v132.332c-10.696 3.238-18.504 13.184-18.504 24.922 0 14.351 11.676 26.031 26.031 26.031 14.352 0 26.031-11.68 26.031-26.031 0-11.738-7.812-21.684-18.508-24.922V310.043a7.522 7.522 0 0 0-7.523-7.523zm10.98 164.777c0 6.055-4.925 10.98-10.98 10.98-6.059 0-10.984-4.925-10.984-10.98 0-6.059 4.925-10.985 10.984-10.985 6.055 0 10.98 4.926 10.98 10.985zm0 0M145.742 238.992v11.16c0 4.157 3.367 7.524 7.524 7.524s7.523-3.367 7.523-7.524v-11.16a7.524 7.524 0 0 0-15.047 0zm0 0M211.832 238.992v11.16c0 4.157 3.367 7.524 7.523 7.524s7.524-3.367 7.524-7.524v-11.16a7.524 7.524 0 0 0-15.047 0zm0 0M284.332 231.469a7.528 7.528 0 0 0-7.527 7.523v11.16c0 4.157 3.37 7.524 7.527 7.524s7.523-3.367 7.523-7.524v-11.16a7.524 7.524 0 0 0-7.523-7.523zm0 0M342.895 238.992v11.16c0 4.157 3.37 7.524 7.527 7.524s7.523-3.367 7.523-7.524v-11.16c0-4.152-3.367-7.523-7.523-7.523s-7.527 3.37-7.527 7.523zm0 0"/><path d="M292.73 7.469c-.585-4.114-4.402-6.977-8.511-6.387-45.961 6.555-86.18 35.012-107.82 76.23C134.038 65.216 90.8 90.094 78.5 130.677 34.656 131.21-.566 167.14.008 211.223c.562 43.254 36.703 78.445 80.566 78.445h352.469c35.46 0 67.258-23.598 77.328-57.387a7.523 7.523 0 0 0-5.062-9.36 7.523 7.523 0 0 0-9.36 5.063c-8.183 27.457-34.05 46.637-62.906 46.637H80.57c-35.672 0-65.062-28.531-65.52-63.594-.464-35.886 28.38-65.312 64.49-65.312h.007c6.055 0 11.433-4.016 13.086-9.77 9.715-33.855 45.789-54.433 80.625-43.87 6.246 1.894 12.953-.962 15.949-6.786 19.277-37.477 55.59-63.387 97.137-69.309a7.526 7.526 0 0 0 6.386-8.511zm0 0M434.434 134.465c.472 6.137 5.074 11.191 11.187 12.289 25.785 4.644 46 24.21 51.496 49.844a7.529 7.529 0 0 0 8.934 5.78 7.528 7.528 0 0 0 5.781-8.933c-6.707-31.277-31.172-55.23-62.492-61.3C443.477 63.508 389.777 8.258 321.234.547a7.524 7.524 0 0 0-1.68 14.953c61.766 6.95 110.079 56.98 114.88 118.965zm0 0"/></svg>