<svg height="512pt" viewBox="0 0 512 512" width="512pt" xmlns="http://www.w3.org/2000/svg"><path d="M17.703 259.523c-5.683 1.172-9.742 6.016-9.742 11.618v154.543c0 5.605 4.059 10.445 9.742 11.617l87.965 15.527V243.996zm0 0" fill="#54a0ff"/><path d="M42.355 431.504V265.32c0-4.949 2.954-9.343 7.399-11.453l-32.05 5.656c-5.684 1.172-9.743 6.012-9.743 11.618v154.543c0 5.601 4.059 10.445 9.742 11.617l32.05 5.656c-4.444-2.11-7.398-6.504-7.398-11.453zm0 0" fill="#338def"/><path d="M495.004 259.523c5.754 1.172 9.863 6.016 9.863 11.618v154.543c0 5.605-4.11 10.445-9.863 11.617l-89.04 15.523V243.996zm0 0" fill="#54a0ff"/><path d="M445.809 250.945l-39.844-6.949v208.828l39.844-6.945zm0 0" fill="#338def"/><path d="M410.68 242.133V458c0 25.55-20.785 46.336-46.332 46.336H148.48c-25.55 0-46.335-20.785-46.335-46.336V242.133c0-25.547 20.785-46.332 46.335-46.332h215.868c25.55 0 46.332 20.785 46.332 46.332zm0 0" fill="#576574"/><path d="M137.14 458V242.133c0-25.547 20.786-46.332 46.337-46.332H148.48c-25.55 0-46.335 20.785-46.335 46.332V458c0 25.55 20.785 46.336 46.335 46.336h34.997c-25.551 0-46.336-20.785-46.336-46.336zm0 0" fill="#3e4b5a"/><path d="M132.691 458c0 8.707 7.082 15.79 15.79 15.79h215.867c8.703 0 15.785-7.083 15.785-15.79V242.133c0-8.703-7.082-15.785-15.785-15.785H148.48c-8.707 0-15.789 7.082-15.789 15.785zm0 0" fill="#3e4b5a"/><path d="M167.688 458V242.133c0-8.703 7.082-15.785 15.789-15.785H148.48c-8.707 0-15.789 7.082-15.789 15.785V458c0 8.707 7.082 15.79 15.79 15.79h34.996c-8.707 0-15.79-7.083-15.79-15.79zm0 0" fill="#374451"/><path d="M273.094 355.54c0 9.214-7.469 16.679-16.68 16.679-9.21 0-16.68-7.465-16.68-16.68 0-9.21 7.47-16.676 16.68-16.676 9.211 0 16.68 7.465 16.68 16.676zm0 0" fill="#54a0ff"/><path d="M268.504 344.07c-3.043-3.199-7.328-5.207-12.09-5.207-9.21 0-16.68 7.465-16.68 16.676 0 9.211 7.465 16.68 16.68 16.68 4.762 0 9.047-2.008 12.09-5.211a16.613 16.613 0 0 1 0-22.938zm0 0" fill="#338def"/><path d="M202.125 401.758h-27.09a6.605 6.605 0 0 0-6.605 6.605v28.196a6.605 6.605 0 0 0 6.605 6.605h27.09a6.606 6.606 0 0 0 6.61-6.605v-28.196a6.606 6.606 0 0 0-6.61-6.605zm0 0" fill="#54a0ff"/><path d="M269.96 401.758h-27.093a6.605 6.605 0 0 0-6.605 6.605v28.196a6.605 6.605 0 0 0 6.605 6.605h27.094a6.605 6.605 0 0 0 6.605-6.605v-28.196a6.605 6.605 0 0 0-6.605-6.605zm0 0" fill="#feca57"/><path d="M337.793 401.758h-27.094a6.605 6.605 0 0 0-6.605 6.605v28.196a6.605 6.605 0 0 0 6.605 6.605h27.094a6.605 6.605 0 0 0 6.605-6.605v-28.196a6.605 6.605 0 0 0-6.605-6.605zm0 0" fill="#ff6b6b"/><path d="M196.633 436.559v-28.196a6.603 6.603 0 0 1 6.05-6.578 6.51 6.51 0 0 0-.554-.027h-27.094a6.605 6.605 0 0 0-6.605 6.605v28.196a6.608 6.608 0 0 0 6.605 6.609h27.09c.191 0 .375-.016.559-.031a6.603 6.603 0 0 1-6.051-6.578zm0 0" fill="#338def"/><path d="M264.465 436.559v-28.196a6.603 6.603 0 0 1 6.05-6.578 6.51 6.51 0 0 0-.554-.027h-27.094a6.605 6.605 0 0 0-6.605 6.605v28.196a6.608 6.608 0 0 0 6.605 6.609h27.094c.187 0 .371-.016.555-.031a6.603 6.603 0 0 1-6.051-6.578zm0 0" fill="#f4b537"/><path d="M332.3 436.559v-28.196a6.6 6.6 0 0 1 6.052-6.578 6.683 6.683 0 0 0-.559-.027h-27.094a6.605 6.605 0 0 0-6.605 6.605v28.196a6.608 6.608 0 0 0 6.605 6.609h27.094c.187 0 .371-.016.559-.031a6.6 6.6 0 0 1-6.051-6.578zm0 0" fill="#ee5253"/><path d="M383.664 134.582c0 70.281-56.973 127.254-127.25 127.254-70.281 0-127.25-56.973-127.25-127.254 0-70.277 56.969-127.25 127.25-127.25 70.277 0 127.25 56.973 127.25 127.25zm0 0" fill="#54a0ff"/><path d="M171.785 134.582c0-63.012 45.809-115.32 105.942-125.46-78.215-13.192-148.563 47.151-148.563 125.46 0 78.352 70.39 138.648 148.563 125.465-60.133-10.14-105.942-62.45-105.942-125.465zm0 0" fill="#338def"/><path d="M255.953 379.883c13.332 0 24.18-10.848 24.18-24.176 0-13.332-10.848-24.18-24.18-24.18-13.328 0-24.176 10.848-24.176 24.18 0 13.328 10.848 24.176 24.176 24.176zm0-33.356c5.063 0 9.18 4.118 9.18 9.18s-4.117 9.18-9.18 9.18-9.18-4.117-9.18-9.18 4.122-9.18 9.18-9.18zm0 0M255.953 321.93a7.5 7.5 0 0 0 7.5-7.5v-27.832c0-4.145-3.355-7.5-7.5-7.5a7.496 7.496 0 0 0-7.496 7.5v27.832c0 4.14 3.356 7.5 7.496 7.5zm0 0M201.066 325.363a7.501 7.501 0 0 0 12.926-7.613l-30.902-52.477a7.504 7.504 0 0 0-10.27-2.656 7.496 7.496 0 0 0-2.656 10.266zm0 0M300.578 328.02c3.563 2.101 8.16.914 10.266-2.657l30.902-52.48a7.5 7.5 0 0 0-12.926-7.61l-30.902 52.48c-2.102 3.567-.91 8.165 2.66 10.267zm0 0M201.668 394.422h-27.094c-7.777 0-14.105 6.328-14.105 14.105v28.196c0 7.78 6.328 14.105 14.105 14.105h27.094c7.777 0 14.105-6.324 14.105-14.105v-28.196c0-7.777-6.328-14.105-14.105-14.105zm-.895 41.41H175.47v-26.41h25.304zm0 0M269.5 394.422h-27.094c-7.777 0-14.101 6.328-14.101 14.105v28.196c0 7.78 6.324 14.105 14.101 14.105H269.5c7.777 0 14.105-6.324 14.105-14.105v-28.196c0-7.777-6.328-14.105-14.105-14.105zm-.89 41.41H243.3v-26.41h25.31zm0 0M310.242 394.422c-7.777 0-14.105 6.328-14.105 14.105v28.196c0 7.78 6.328 14.105 14.105 14.105h27.09c7.781 0 14.105-6.324 14.105-14.105v-28.196c0-7.777-6.324-14.105-14.105-14.105zm26.2 41.41h-25.31v-26.41h25.31zm0 0"/><path d="M496.582 252.355a3.613 3.613 0 0 0-.219-.042l-78.84-14.434c-1.859-22.399-17.687-41.262-38.921-47.336 7.765-17.012 12.101-35.906 12.101-55.793C390.703 60.246 330.238 0 255.953 0c-74.613 0-134.75 60.625-134.75 134.75 0 19.887 4.336 38.781 12.106 55.793-21.235 6.074-37.067 24.937-38.926 47.336l-78.84 14.434c-.074.015-.148.027-.219.042C6.445 254.254 0 262.227 0 271.305v154.543c0 9.082 6.445 17.05 15.324 18.949.07.015.145.031.219.043l78.672 14.406C94.793 488.434 118.699 512 148.02 512h90.437c4.14 0 7.496-3.36 7.496-7.5 0-4.145-3.355-7.5-7.496-7.5H148.02c-21.415 0-38.833-17.422-38.833-38.836V242.301c0-18.617 13.415-34.54 31.29-38.086a135.27 135.27 0 0 0 10.332 14.8h-2.79c-12.84 0-23.285 10.446-23.285 23.286v215.867c0 12.84 10.446 23.285 23.286 23.285h215.867c12.84 0 23.289-10.445 23.289-23.285V242.301c0-12.84-10.45-23.285-23.29-23.285h-2.784a135.27 135.27 0 0 0 10.332-14.801c17.875 3.547 31.289 19.469 31.289 38.086v215.867c0 21.41-17.422 38.832-38.836 38.832h-90.434a7.5 7.5 0 0 0-7.5 7.5c0 4.145 3.356 7.5 7.5 7.5h90.434c29.324 0 53.226-23.566 53.808-52.754l78.672-14.402c.074-.016.145-.028.219-.043 8.879-1.903 15.324-9.871 15.324-18.95v-58.046a7.496 7.496 0 0 0-7.5-7.496c-4.14 0-7.5 3.355-7.5 7.496v58.043a4.406 4.406 0 0 1-3.383 4.265l-75.804 13.883V253.16l75.804 13.88a4.406 4.406 0 0 1 3.383 4.265v61.504a7.5 7.5 0 0 0 7.5 7.5c4.145 0 7.5-3.356 7.5-7.5v-61.504c0-9.078-6.445-17.047-15.328-18.95zM94.188 443.996l-75.81-13.883A4.404 4.404 0 0 1 15 425.848V271.305a4.4 4.4 0 0 1 3.379-4.262l75.808-13.883zm249.64-390.508a120.789 120.789 0 0 1-13.25 12.313c-3.418-8.965-7.508-17.36-12.262-24.992-3.113-5.004-6.437-9.582-9.941-13.711a120.37 120.37 0 0 1 35.453 26.39zM330.578 203.7a120.03 120.03 0 0 1 13.25 12.313c-9.73 10.523-21.707 19.675-35.437 26.37 9.656-11.39 16.937-24.91 22.187-38.683zM263.453 15.668c15.7 2.789 30.438 14.277 42.129 33.062 4.863 7.817 8.961 16.547 12.273 25.938-16.355 9.89-34.968 15.77-54.402 16.977zm0 91.012a134.323 134.323 0 0 0 58.824-17.223c2.953 11.934 4.723 24.652 5.211 37.793h-64.035zm0 35.57h64.035c-.488 13.137-2.258 25.86-5.21 37.793a134.323 134.323 0 0 0-58.825-17.223zm0 35.602c19.434 1.21 38.043 7.09 54.402 16.976-9.12 25.852-27.507 54.227-54.402 59zM248.457 15.668v75.977c-19.434-1.208-38.047-7.086-54.402-16.977 9.156-25.961 27.62-54.246 54.402-59zm-54.402 179.16c16.355-9.887 34.968-15.766 54.402-16.976v75.976c-26.96-4.781-45.258-33.07-54.402-59zm9.465 47.555c-13.258-6.457-25.336-15.45-35.438-26.371a119.682 119.682 0 0 1 13.25-12.313c3.414 8.961 7.508 17.356 12.262 24.992 3.11 4.996 6.426 9.567 9.926 13.692zm-13.887-62.34c-2.953-11.934-4.727-24.656-5.215-37.793h64.039v20.57a134.308 134.308 0 0 0-58.824 17.223zm-5.215-52.793c.488-13.14 2.262-25.86 5.215-37.793a134.308 134.308 0 0 0 58.824 17.223v20.57zm19.117-100.152C193.98 38.363 186.66 51.816 181.332 65.8a120.435 120.435 0 0 1-13.25-12.313 120.437 120.437 0 0 1 35.453-26.39zm-45.012 38.101a135.31 135.31 0 0 0 17.872 15.707c-4.036 14.531-6.422 30.172-6.989 46.344h-32.96c1.429-23.04 9.398-44.336 22.077-62.05zm-22.078 77.051h32.961c.567 16.172 2.953 31.812 6.989 46.344-6.36 4.66-12.34 9.91-17.868 15.699-12.582-17.57-20.625-38.754-22.082-62.043zm227.442 91.762c4.57 0 8.289 3.718 8.289 8.289v215.867c0 4.566-3.719 8.285-8.29 8.285H148.02c-4.57 0-8.286-3.719-8.286-8.285V242.301c0-4.57 3.715-8.29 8.286-8.29h16.812c25.016 22.997 57.422 35.489 91.121 35.489 32.45 0 65.188-11.64 91.125-35.488zm-10.504-29.719a135.531 135.531 0 0 0-17.867-15.703c4.035-14.528 6.421-30.168 6.984-46.34h32.965c-1.406 22.488-9.004 43.79-22.082 62.043zM342.5 127.25c-.563-16.172-2.95-31.813-6.984-46.344A135.03 135.03 0 0 0 353.383 65.2c12.68 17.715 20.652 39.012 22.082 62.051zm0 0"/></svg>