<svg height="512pt" viewBox="0 -58 512.004 512" width="512pt" xmlns="http://www.w3.org/2000/svg"><path d="M347.39 101.023V61.848c0-6.532-5.007-11.871-11.132-11.871H176.656c-6.12 0-11.133 5.34-11.133 11.87v39.176zm0 0" fill="#8ac2ff"/><path d="M211.66 49.977h-35c-6.125 0-11.137 5.34-11.137 11.87v39.176h35.004V61.848c0-6.532 5.008-11.871 11.133-11.871zm0 0" fill="#6fb1ff"/><path d="M440.988 7.336h-6.086c-7.37 0-13.347 6.39-13.347 14.273v52.317h32.78V21.609c-.003-7.882-5.976-14.273-13.347-14.273zm0 0" fill="#e4eaf8"/><path d="M448.695 9.973c-2.18-1.653-4.836-2.637-7.71-2.637h-6.083c-7.37 0-13.347 6.39-13.347 14.273v52.317h21.5V21.609c0-4.808 2.23-9.05 5.64-11.636zm0 0" fill="#c7d2e5"/><path d="M78.016 7.336H71.93c-7.371 0-13.348 6.39-13.348 14.273v52.317h32.781V21.609c0-7.882-5.976-14.273-13.347-14.273zm0 0" fill="#e4eaf8"/><path d="M85.723 9.973c-2.176-1.653-4.832-2.637-7.707-2.637H71.93c-7.371 0-13.348 6.39-13.348 14.273v52.317h21.5V21.609c0-4.808 2.234-9.05 5.64-11.636zm0 0M454.234 69.605h-32.582c-7.773 0-14.132 6.922-14.132 15.375v29.043h60.847V84.98c0-8.453-6.36-15.375-14.133-15.375zm0 0" fill="#c7d2e5"/><path d="M455.445 69.676c-.402-.04-.8-.07-1.21-.07h-32.583c-7.773 0-14.132 6.921-14.132 15.374v29.043h35V84.98c.003-8.011 5.714-14.632 12.925-15.304zm0 0" fill="#bac7db"/><path d="M407.52 145.594c0 18.664 13.69 33.933 30.425 33.933 16.73 0 30.422-15.27 30.422-33.933v-6.567H407.52zm0 0" fill="#54a0ff"/><path d="M442.523 145.594v-6.567H407.52v6.567c0 18.664 13.69 33.933 30.425 33.933 6.504 0 12.54-2.312 17.5-6.23-7.8-6.16-12.922-16.293-12.922-27.703zm0 0" fill="#338def"/><path d="M91.266 69.605H58.68c-7.774 0-14.133 6.922-14.133 15.375v29.043h60.851V84.98c0-8.453-6.359-15.375-14.132-15.375zm0 0" fill="#c7d2e5"/><path d="M92.473 69.676c-.399-.04-.801-.07-1.207-.07H58.68c-7.774 0-14.133 6.921-14.133 15.374v29.043H79.55V84.98c0-8.011 5.71-14.632 12.922-15.304zm0 0" fill="#bac7db"/><path d="M44.547 145.594c0 18.664 13.691 33.933 30.426 33.933s30.425-15.27 30.425-33.933v-6.567H44.547zm0 0" fill="#54a0ff"/><path d="M79.55 145.594v-6.567H44.548v6.567c0 18.664 13.691 33.933 30.426 33.933 6.504 0 12.543-2.312 17.5-6.23-7.801-6.16-12.922-16.293-12.922-27.703zm0 0" fill="#338def"/><path d="M143.523 112.004c0-.531.036-1.055.094-1.57H21.555c-7.508 0-13.598 5.976-13.598 13.347v6.086c0 7.371 6.09 13.348 13.598 13.348h121.968zm0 0M491.52 110.434H370.867c.059.515.094 1.039.094 1.57v31.21H491.52c7.421 0 13.437-5.976 13.437-13.347v-6.086c0-7.37-6.016-13.347-13.437-13.347zm0 0" fill="#e4eaf8"/><path d="M10.078 116.648a13.085 13.085 0 0 0-2.117 7.133v6.086c0 7.371 6.086 13.348 13.594 13.348h121.968v-20.348H21.555a13.627 13.627 0 0 1-11.477-6.219zm0 0M491.52 122.867H370.96v20.348h120.56c7.421 0 13.437-5.977 13.437-13.348v-6.086c0-2.625-.773-5.066-2.094-7.133a13.431 13.431 0 0 1-11.343 6.22zm0 0" fill="#c7d2e5"/><path d="M321.473 218.383H191.445c-10.718 0-19.488 8.77-19.488 19.488v130.027c0 10.72 8.77 19.489 19.488 19.489h130.028c10.718 0 19.488-8.77 19.488-19.489v-130.03c0-10.716-8.77-19.485-19.488-19.485zm0 0" fill="#576574"/><path d="M405.43 257.2c-11.184 0-20.754-6.884-24.723-16.645l-34.969 33.836a15.687 15.687 0 0 0-4.777 11.273v53.262c0 8.664 7.023 15.687 15.687 15.687s15.688-7.023 15.688-15.687v-46.61l36.527-35.347c-1.125.144-2.27.23-3.433.23zm0 0" fill="#e4eaf8"/><path d="M362.598 338.926v-53.258c0-4.25 1.722-8.32 4.777-11.273l22.762-22.024a26.812 26.812 0 0 1-9.43-11.816l-34.969 33.84a15.68 15.68 0 0 0-4.777 11.273v53.258c0 8.668 7.023 15.691 15.687 15.691 4.2 0 8.004-1.66 10.817-4.347-2.992-2.856-4.867-6.875-4.867-11.344zm0 0" fill="#c7d2e5"/><path d="M107.488 257.2c11.184 0 20.754-6.884 24.723-16.645l34.969 33.836a15.703 15.703 0 0 1 4.777 11.273v53.262c0 8.664-7.023 15.687-15.687 15.687-8.665 0-15.688-7.023-15.688-15.687v-46.61l-36.531-35.347c1.125.144 2.273.23 3.437.23zm0 0" fill="#e4eaf8"/><path d="M162.219 338.926v-46.61l-41.082-39.535c-4.024 2.434-8.61 4.418-13.649 4.418-1.164 0-2.308-.086-3.437-.23l36.531 35.347v46.204c0 8.246 6.195 15.394 14.414 16.046 4.7.371 8.996-1.34 12.094-4.296-2.996-2.856-4.871-6.875-4.871-11.344zm0 0" fill="#c7d2e5"/><path d="M371.676 176.668c-1.082 6.715-6.926 11.89-13.934 11.89h-21.246l43.184 34.954c3.058-11.282 13.332-19.594 25.558-19.676zm0 0" fill="#e4eaf8"/><path d="M359.23 189.445h-1.601v-.886h-21.133l43.184 34.953c1.242-4.575 3.683-8.645 6.945-11.895zm0 0" fill="#c7d2e5"/><path d="M155.176 188.559c-7.012 0-12.852-5.176-13.938-11.891l-33.562 27.168c12.23.086 22.5 8.394 25.558 19.676l43.188-34.953h-21.246zm0 0" fill="#e4eaf8"/><path d="M141.238 176.668l-33.562 27.168c5.699.039 10.969 1.863 15.285 4.941l18.894-15.093 7.766-6.286c-4.36-1.886-7.601-5.906-8.383-10.73zm0 0" fill="#c7d2e5"/><path d="M357.742 97.871H155.176c-7.774 0-14.133 6.516-14.133 14.48v63.95c0 7.96 6.36 14.476 14.133 14.476h202.566c7.774 0 14.133-6.515 14.133-14.476v-63.95c0-7.964-6.36-14.48-14.133-14.48zm0 0" fill="#54a0ff"/><path d="M176.043 176.3v-63.948c0-7.965 6.36-14.48 14.133-14.48h-35c-7.774 0-14.133 6.515-14.133 14.48V176.3c0 7.96 6.36 14.476 14.133 14.476h35c-7.774 0-14.133-6.515-14.133-14.476zm0 0" fill="#338def"/><path d="M301.8 302.883c0 25.043-20.3 45.344-45.343 45.344-25.039 0-45.34-20.301-45.34-45.344 0-25.043 20.301-45.344 45.34-45.344 25.043 0 45.344 20.3 45.344 45.344zm0 0" fill="#8ac2ff"/><path d="M276.215 302.883c0 10.91-8.844 19.758-19.758 19.758-10.91 0-19.754-8.848-19.754-19.758 0-10.91 8.844-19.754 19.754-19.754 10.914 0 19.758 8.844 19.758 19.754zm0 0" fill="#54a0ff"/><path d="M206.96 367.898V237.871c0-10.719 8.77-19.488 19.485-19.488h-35c-10.718 0-19.488 8.77-19.488 19.488v130.027c0 10.72 8.77 19.489 19.488 19.489h35c-10.715 0-19.484-8.77-19.484-19.489zm0 0" fill="#576574"/><path d="M238.36 302.883c0-20.293 13.335-37.473 31.722-43.258a45.355 45.355 0 0 0-13.621-2.082c-25.043 0-45.344 20.3-45.344 45.34 0 25.043 20.301 45.344 45.344 45.344 4.746 0 9.32-.735 13.621-2.086-18.387-5.786-31.723-22.961-31.723-43.258zm0 0" fill="#6fb1ff"/><path d="M271.148 289.707c-3.617-4.031-8.847-6.578-14.691-6.578-10.91 0-19.754 8.844-19.754 19.754 0 10.914 8.844 19.758 19.754 19.758 5.844 0 11.074-2.551 14.691-6.579a19.661 19.661 0 0 1 0-26.355zm0 0" fill="#338def"/><path d="M432.113 230.512c0 15.277-12.383 27.66-27.656 27.66-15.277 0-27.66-12.383-27.66-27.66 0-15.274 12.383-27.657 27.66-27.657 15.273 0 27.656 12.383 27.656 27.657zm0 0" fill="#c7d2e5"/><path d="M421.957 209.098a27.556 27.556 0 0 0-17.5-6.243c-15.277 0-27.66 12.383-27.66 27.66 0 15.274 12.383 27.657 27.66 27.657 6.64 0 12.73-2.34 17.5-6.242-13.55-11.09-13.535-31.758 0-42.832zm0 0" fill="#bac7db"/><path d="M135.574 230.512c0 15.125-12.262 27.386-27.387 27.386s-27.382-12.261-27.382-27.386 12.257-27.383 27.382-27.383 27.387 12.258 27.387 27.383zm0 0" fill="#c7d2e5"/><path d="M125.691 209.453a27.28 27.28 0 0 0-17.504-6.324c-15.124 0-27.382 12.262-27.382 27.387s12.257 27.382 27.382 27.382a27.298 27.298 0 0 0 17.504-6.32c-13.175-10.96-13.187-31.16 0-42.125zm0 0" fill="#bac7db"/><path d="M504.5 41.375c4.145 0 7.5-3.355 7.5-7.5a7.5 7.5 0 0 0-7.5-7.5h-43.125v-5.523c0-11.497-9.352-20.848-20.848-20.848h-6.086c-11.496 0-20.847 9.351-20.847 20.848v5.523h-43.125a7.5 7.5 0 1 0 0 15h43.125v22.277c-8.192 3.086-14.035 11-14.035 20.254v19.192h-22.645c-3.434-7.407-10.941-12.563-19.629-12.563h-2.851V61.277c0-10.273-8.36-18.636-18.633-18.636H273.5a7.5 7.5 0 0 0-7.5 7.5c0 4.144 3.355 7.5 7.5 7.5h62.3c1.97 0 3.634 1.664 3.634 3.636v29.258H172.566V61.277c0-1.972 1.664-3.636 3.633-3.636H238.5a7.5 7.5 0 1 0 0-15h-62.3c-10.274 0-18.634 8.359-18.634 18.636v29.258h-2.851c-8.692 0-16.195 5.156-19.633 12.563h-22.645V83.906c0-9.258-5.843-17.168-14.03-20.254V41.375h43.12c4.145 0 7.5-3.355 7.5-7.5a7.5 7.5 0 0 0-7.5-7.5H98.402v-5.523C98.402 9.355 89.051.004 77.555.004h-6.082C59.977.004 50.62 9.355 50.62 20.852v5.523H7.5a7.5 7.5 0 0 0-7.5 7.5c0 4.145 3.355 7.5 7.5 7.5h43.125v22.277c-8.191 3.086-14.035 11-14.035 20.254v19.192H20.848C9.352 103.098 0 112.453 0 123.949v6.082c0 11.496 9.352 20.848 20.848 20.848h15.78c.849 20.168 17.513 36.316 37.888 36.316 20.37 0 37.035-16.148 37.882-36.316h20.684v22.535l-28.648 23.188c-17.641 1.332-31.59 16.101-31.59 34.078 0 16.46 11.695 30.238 27.21 33.465l32.567 31.515v43.434c0 12.785 10.406 23.187 23.191 23.187 2.883 0 5.641-.531 8.188-1.496v7.277c0 14.883 12.105 26.989 26.988 26.989h130.028c14.882 0 26.988-12.106 26.988-26.988v-7.278a23.058 23.058 0 0 0 8.187 1.496c12.786 0 23.188-10.402 23.188-23.187V295.66l32.57-31.515c15.516-3.227 27.211-17.004 27.211-33.465 0-17.977-13.95-32.746-31.59-34.078l-28.648-23.188V150.88h20.683c.848 20.168 17.512 36.316 37.883 36.316 20.371 0 37.035-16.148 37.883-36.316h15.785c11.496 0 20.848-9.352 20.848-20.848v-6.082c0-11.496-9.352-20.851-20.848-20.851h-15.742V83.906c0-9.258-5.844-17.168-14.035-20.254V41.375zm-356.418 70.797c0-.168.016-.332.027-.492.004-.082.012-.16.02-.246.004-.012.004-.024.004-.036.383-3.293 3.187-5.859 6.582-5.859h202.57c3.395 0 6.2 2.566 6.582 5.86a6.37 6.37 0 0 1 .05.773v62.418c.001.308-.03.613-.07.91-.007.047-.027.09-.03.137-.45 2.781-2.649 4.965-5.337 5.472-.015 0-.03.004-.046.004a6.22 6.22 0 0 1-1.149.11H154.715c-3.653 0-6.633-3.082-6.633-6.633v-62.418zm-82.457-91.32A5.855 5.855 0 0 1 71.473 15h6.086c3.222 0 5.843 2.625 5.843 5.852v5.523H65.625zm0 20.523h17.777v20.898H65.625zM51.59 83.906a6.64 6.64 0 0 1 6.633-6.633h32.582a6.64 6.64 0 0 1 6.632 6.633v19.192H51.59zm22.926 88.285c-12.102 0-22.04-9.421-22.871-21.312h45.738c-.832 11.89-10.77 21.312-22.867 21.312zM20.848 135.88A5.854 5.854 0 0 1 15 130.03v-6.082a5.854 5.854 0 0 1 5.848-5.847h112.234v17.777H20.848zm117.347 52.695c3.996 4.738 9.973 7.649 16.578 7.649l-19.253 15.582c-2.965-4.45-7.145-8.426-12.211-11.18zm-33.437 61.14c-9.512-1.128-16.914-9.226-16.914-19.034 0-10.578 8.605-19.188 19.183-19.188 10.461 0 19.184 8.559 19.184 19.188 0 11.215-9.79 20.425-21.453 19.035zm59.238 89.38c0 4.515-3.672 8.187-8.187 8.187s-8.188-3.672-8.188-8.187V292.48a7.502 7.502 0 0 0-2.285-5.39l-25.516-24.688a33.976 33.976 0 0 0 13.442-9.78l28.238 27.327a8.226 8.226 0 0 1 2.496 5.883zM333 368.063c0 6.609-5.379 11.988-11.984 11.988H190.984c-6.605 0-11.984-5.38-11.984-11.988V238.035c0-6.61 5.379-11.988 11.984-11.988h130.032c6.605 0 11.984 5.379 11.984 11.988zm-11.984-157.016H190.984c-14.879 0-26.984 12.105-26.984 26.988v23.45l-23.71-22.942c.597-2.527.925-5.156.925-7.863 0-1.352-.09-2.68-.242-3.985l37.644-30.472h154.766l37.644 30.472a33.749 33.749 0 0 0 .684 11.852L348 261.484v-23.449c0-14.883-12.105-26.988-26.984-26.988zm45.644 76.043a7.499 7.499 0 0 0-2.281 5.39v46.614c0 4.515-3.676 8.187-8.191 8.187-4.508 0-8.176-3.664-8.188-8.168v-53.3a8.23 8.23 0 0 1 2.496-5.864l28.238-27.328a33.976 33.976 0 0 0 13.442 9.781zm38.309-75.594c10.578 0 19.187 8.606 19.187 19.184 0 9.808-7.406 17.906-16.914 19.035-11.55 1.379-21.453-7.711-21.453-19.035 0-10.473 8.59-19.184 19.18-19.184zm-16.278-10.871a34.715 34.715 0 0 0-12.214 11.18l-19.25-15.582c6.601 0 12.578-2.907 16.574-7.649zm39.903-179.773A5.857 5.857 0 0 1 434.44 15h6.086a5.857 5.857 0 0 1 5.848 5.852v5.523h-17.777v-5.523zm0 20.523h17.781v20.898h-17.781zm-14.031 42.531a6.637 6.637 0 0 1 6.632-6.633h32.582a6.64 6.64 0 0 1 6.633 6.633v19.192h-45.848zm22.921 88.285c-12.097 0-22.039-9.421-22.867-21.312h45.735c-.829 11.89-10.766 21.312-22.868 21.312zm53.668-54.09A5.854 5.854 0 0 1 497 123.95v6.082a5.854 5.854 0 0 1-5.848 5.848H378.914v-17.777zm0 0"/><path d="M228.742 303.047c0 15.031 12.227 27.258 27.258 27.258 15.027 0 27.258-12.227 27.258-27.258 0-15.027-12.23-27.254-27.258-27.254-15.031 0-27.258 12.227-27.258 27.254zm39.512 0c0 6.762-5.496 12.258-12.254 12.258s-12.258-5.496-12.258-12.258c0-6.758 5.5-12.254 12.258-12.254s12.254 5.496 12.254 12.254zm0 0"/><path d="M290.918 288.445a7.5 7.5 0 0 0 9.816 4.02 7.5 7.5 0 0 0 4.02-9.817c-8.254-19.707-27.39-32.441-48.754-32.441-29.137 0-52.844 23.703-52.844 52.844 0 29.137 23.707 52.84 52.844 52.84 21.363 0 40.5-12.735 48.754-32.442a7.5 7.5 0 0 0-4.02-9.816 7.5 7.5 0 0 0-9.816 4.02A37.77 37.77 0 0 1 256 340.894c-20.867 0-37.844-16.977-37.844-37.844s16.977-37.844 37.844-37.844c15.3 0 29.008 9.121 34.918 23.238zm0 0"/></svg>