<svg height="512pt" viewBox="-101 0 512 512.001" width="512pt" xmlns="http://www.w3.org/2000/svg"><path d="M151.102 293.379c6.246 0 12.265.96 17.921 2.734v-47.047h-35.421v46.922a59.79 59.79 0 0 1 17.5-2.61zm0 0M151.102 403.043a59.79 59.79 0 0 1-17.5-2.61v54.993h35.421v-55.117a59.809 59.809 0 0 1-17.921 2.734zm0 0" fill="#e4eaf8"/><g fill="#c7d2e5"><path d="M156.367 249.066h-22.77v46.922a59.836 59.836 0 0 1 17.505-2.61c1.773 0 3.527.087 5.265.24zm0 0M156.367 402.805a60.184 60.184 0 0 1-5.265.238 59.79 59.79 0 0 1-17.5-2.61v54.993h22.765zm0 0M173.352 249.066l9.57-38.27L172.879 205a41.05 41.05 0 0 1-21.606 6.105A41.047 41.047 0 0 1 129.672 205l-9.969 5.754 9.578 38.312zm0 0"/></g><path d="M129.672 205l-9.969 5.754 9.582 38.312h28.012l-9.535-38.125a41.049 41.049 0 0 1-18.09-5.941zm0 0" fill="#bac7db"/><path d="M301.691 241.816l-111.855-64.578c-.777 12.93-7.914 24.145-18.328 30.559l89.851 51.875c14.739 8.512 33.586 3.46 42.094-11.277a4.813 4.813 0 0 0-1.762-6.579zm0 0" fill="#e4eaf8"/><path d="M288.246 259.676l-77.293-44.63c-5.664-3.269-6.879-10.776-2.765-15.855a38.581 38.581 0 0 0 5.171-8.37l-23.523-13.583c-.777 12.93-7.914 24.145-18.328 30.559l89.851 51.879c9.192 5.304 19.98 5.336 28.864 1.035-.664-.32-1.325-.66-1.977-1.035zm0 0" fill="#c7d2e5"/><path d="M151.277 136.246a38.47 38.47 0 0 1 17.641 4.266V38.148c0-17.015-13.797-30.812-30.816-30.812a4.816 4.816 0 0 0-4.817 4.816v128.54a38.49 38.49 0 0 1 17.992-4.446zm0 0" fill="#e4eaf8"/><path d="M159.238 16.656c-5.597-5.746-13.414-9.32-22.07-9.32a4.815 4.815 0 0 0-4.816 4.812v128.543a38.43 38.43 0 0 1 17.992-4.445c3.062 0 6.039.367 8.894 1.043zm0 0" fill="#c7d2e5"/><path d="M112.719 177.238l-89.34 51.578C8.64 237.328 3.594 256.172 12.102 270.91a4.811 4.811 0 0 0 6.578 1.762l112.367-64.875c-10.414-6.414-17.547-17.629-18.328-30.559zm0 0" fill="#e4eaf8"/><path d="M50.27 228.816l65.812-37.996a38.531 38.531 0 0 1-3.363-13.582l-89.34 51.578C8.64 237.328 3.594 256.172 12.102 270.91a4.812 4.812 0 0 0 6.578 1.762l17.062-9.852c-3.176-12.965 2.383-26.992 14.528-34.004zm0 0" fill="#c7d2e5"/><path d="M210.934 348.21c0 33.044-26.79 59.833-59.832 59.833-33.043 0-59.832-26.79-59.832-59.832 0-33.047 26.789-59.832 59.832-59.832s59.832 26.785 59.832 59.832zm0 0" fill="#feca57"/><path d="M126.273 348.21c0-26.952 17.825-49.737 42.329-57.222a59.79 59.79 0 0 0-17.5-2.61c-33.043 0-59.832 26.79-59.832 59.833s26.789 59.832 59.832 59.832a59.79 59.79 0 0 0 17.5-2.61c-24.504-7.484-42.329-30.269-42.329-57.222zm0 0" fill="#f4b537"/><path d="M191.98 174.883c0 22.46-18.207 40.668-40.667 40.668s-40.668-18.207-40.668-40.668 18.207-40.668 40.668-40.668 40.667 18.207 40.667 40.668zm0 0" fill="#8ac2ff"/><path d="M133.41 174.883c0-18.508 12.367-34.117 29.285-39.043a40.693 40.693 0 0 0-11.382-1.625c-22.461 0-40.668 18.207-40.668 40.668 0 22.46 18.207 40.668 40.668 40.668 3.953 0 7.769-.574 11.382-1.625-16.918-4.926-29.285-20.535-29.285-39.043zm0 0" fill="#6fb1ff"/><path d="M164.988 174.883c0 7.55-6.125 13.676-13.675 13.676-7.555 0-13.676-6.125-13.676-13.676 0-7.555 6.12-13.676 13.675-13.676 7.551 0 13.676 6.121 13.676 13.676zm0 0" fill="#54a0ff"/><path d="M162.695 167.309c-2.449-3.676-6.632-6.102-11.382-6.102-7.555 0-13.676 6.121-13.676 13.676 0 7.554 6.12 13.676 13.675 13.676 4.75 0 8.934-2.426 11.383-6.102a13.651 13.651 0 0 1 0-15.148zm0 0" fill="#338def"/><path d="M180.79 477.848v-16.29c0-6.148-4.99-11.132-11.138-11.132h-36.68c-6.152 0-11.136 4.984-11.136 11.133v16.289zm0 0" fill="#3e4b5a"/><path d="M122.098 459.18c-.168.77-.262 1.562-.262 2.379v16.289h58.953v-16.29c0-.816-.094-1.609-.262-2.378h-58.43zm0 0" fill="#374451"/><path d="M193.547 474.848h-84.473c-4.672 0-8.496 3.824-8.496 8.496v12.496c0 4.672 3.824 8.492 8.496 8.492h84.473c4.676 0 8.496-3.82 8.496-8.492v-12.496c0-4.672-3.82-8.496-8.496-8.496zm0 0" fill="#576574"/><path d="M193.547 485.668h-84.473c-3.582 0-6.66-2.254-7.902-5.41-.379.96-.594 2-.594 3.086v12.496c0 4.672 3.824 8.496 8.496 8.496h84.473c4.672 0 8.496-3.824 8.496-8.496v-12.496a8.392 8.392 0 0 0-.594-3.086c-1.238 3.156-4.316 5.41-7.902 5.41zm0 0" fill="#3e4b5a"/><path d="M150.82 154.555c-11.3 0-20.492 9.191-20.492 20.492s9.192 20.492 20.492 20.492c11.297 0 20.493-9.191 20.493-20.492s-9.196-20.492-20.493-20.492zm0 25.984c-3.027 0-5.492-2.465-5.492-5.492s2.465-5.492 5.492-5.492c3.028 0 5.489 2.465 5.489 5.492s-2.461 5.492-5.489 5.492zm0 0"/><path d="M257.152 266.336c18.34 10.586 41.75 4.316 52.336-14.024 3.407-5.894 1.39-13.421-4.504-16.824L196.906 173.09c-.644-15.36-8.832-28.793-20.949-36.7V38.317C175.957 17.187 158.77 0 137.645 0c-6.793 0-12.317 5.523-12.317 12.316v124.301c-11.922 7.938-19.957 21.262-20.594 36.473l-85.562 49.398c-18.34 10.586-24.613 34-14.024 52.34 3.391 5.875 10.93 7.906 16.82 4.508l94.419-54.512 4.52 18.063a7.485 7.485 0 0 0-3.516 6.343 7.5 7.5 0 0 0 7.5 7.5h.75v29.149c-24.778 9.95-42.328 34.203-42.328 62.5 0 28.289 17.55 52.547 42.328 62.496v33.543c-6.883 2.742-11.766 9.46-11.766 17.309v5.789h-5.258c-8.82 0-15.996 7.175-15.996 15.996v12.492c0 8.82 7.176 15.996 15.996 15.996h24.524c4.144 0 7.5-3.355 7.5-7.5s-3.356-7.5-7.5-7.5h-24.524c-.531 0-.996-.465-.996-.996v-12.496c0-.528.465-.992.996-.992h84.473c.527 0 .996.464.996.992v12.496c0 .527-.469.996-.996.996h-24.945a7.497 7.497 0 0 0-7.5 7.5 7.5 7.5 0 0 0 7.5 7.5h24.945c8.82 0 15.996-7.176 15.996-15.996v-12.496c0-8.817-7.176-15.996-15.996-15.996h-5.262v-5.79c0-7.843-4.883-14.562-11.762-17.304v-33.711c19.125-7.812 34.149-24.215 39.664-45.078a7.497 7.497 0 0 0-5.332-9.168 7.495 7.495 0 0 0-9.168 5.332c-7.304 27.613-35.648 44.496-63.78 37.227-22.49-5.864-39.137-26.344-39.137-50.645s16.648-44.781 39.14-50.645c26.5-6.847 53.68 7.774 62.613 33.446a7.498 7.498 0 0 0 9.547 4.617 7.504 7.504 0 0 0 4.621-9.55c-6.484-18.626-20.632-33.04-38.168-40.208V256.73h.68a7.5 7.5 0 0 0 7.5-7.5 7.491 7.491 0 0 0-3.445-6.304l4.515-18.067zm-240.222-1.41c-4.633-10.649-.7-23.422 9.742-29.446l80.226-46.32c2.059 6.39 5.692 12.637 10.547 17.73zm123.71 150.039a68.73 68.73 0 0 0 20.426-.063v28.188h-20.425zm-11.761 46.758c0-1.782 1.191-3.633 4.262-3.633h36.054a3.636 3.636 0 0 1 3.633 3.633v5.789h-43.95zm11.45-446.57c11.597 1.335 20.628 11.214 20.628 23.163v91.727a46.21 46.21 0 0 0-20.629.078zm20.737 266.695a68.355 68.355 0 0 0-20.425-.063V256.73h20.425zm4.57-40.118h-29.558l-6.18-24.71.793-.454c12.754 6.188 27.72 6.079 40.254 0 .43.246.524.301.86.496zm-14.816-35.546c-17.062 0-31.136-13.883-31.136-31.137 0-17.246 14.074-31.137 31.136-31.137 17.14 0 31.133 13.961 31.133 31.137 0 17.043-13.855 31.137-31.133 31.137zm43.918-17.024l100.285 57.899c-6.89 9.312-19.914 12.324-30.37 6.285L184.19 206.89c4.602-4.82 8.387-11.024 10.547-17.73zm0 0"/><path d="M136.527 384.691a7.5 7.5 0 0 0 10.555-1.078l24.82-30.46.012-.012.02-.028c.011-.011.02-.027.027-.039 3.965-4.93.387-12.199-5.844-12.199H150.95l14.883-18.266a7.498 7.498 0 0 0-1.074-10.55 7.503 7.503 0 0 0-10.555 1.078l-24.82 30.465c-.004.003-.008.003-.012.007l-.02.028a.263.263 0 0 0-.027.043c-3.894 4.836-.515 12.195 5.844 12.195h15.168l-14.883 18.266a7.498 7.498 0 0 0 1.074 10.55zm0 0"/></svg>