<svg height="511pt" viewBox="1 -2 512 511" width="511pt" xmlns="http://www.w3.org/2000/svg"><path d="M14.902 275.676c-9.261-13.11-9.261-30.727 0-43.836 117.91-166.887 365.266-166.793 483.11 0 9.261 13.11 9.261 30.726 0 43.836-117.942 166.933-365.305 166.738-483.11 0zm0 0" fill="#fcd486"/><path d="M49.906 275.676c-9.265-13.11-9.265-30.727 0-43.836 55.18-78.102 138.707-119.625 224.043-124.617C176.957 101.55 77.621 143.07 14.906 231.84c-9.265 13.11-9.265 30.726-.004 43.836C77.586 364.398 176.953 405.96 273.98 400.289c-85.37-4.996-168.921-46.55-224.074-124.613zm0 0" fill="#feca57"/><path d="M41.168 250.395a5.83 5.83 0 0 0 0 6.722c105.004 148.613 325.547 148.656 430.578 0a5.83 5.83 0 0 0 0-6.722c-105-148.614-325.55-148.653-430.578 0zm0 0" fill="#feca57"/><path d="M76.172 257.117a5.83 5.83 0 0 1 0-6.722c48.742-68.989 122.371-105.93 197.781-110.88-87.062-5.71-176.508 31.227-232.785 110.88a5.844 5.844 0 0 0 0 6.722c56.27 79.64 145.723 116.594 232.797 110.88-75.422-4.95-149.055-41.9-197.793-110.88zm0 0" fill="#f4b537"/><path d="M363.516 253.758c0 59.125-47.93 107.058-107.059 107.058-59.125 0-107.059-47.933-107.059-107.058 0-59.13 47.934-107.063 107.059-107.063 59.129 0 107.059 47.934 107.059 107.063zm0 0" fill="#54a0ff"/><path d="M193.344 253.758c0-51.598 36.5-94.664 85.086-104.801-66.73-13.922-129.032 37.047-129.032 104.8 0 67.868 62.418 118.696 129.032 104.798-48.586-10.137-85.086-53.203-85.086-104.797zm0 0" fill="#338def"/><path d="M53.762 54.21c0 9.161-7.426 16.587-16.586 16.587-9.16 0-16.586-7.426-16.586-16.586 0-9.156 7.426-16.582 16.586-16.582 9.16 0 16.586 7.426 16.586 16.582zm0 0" fill="#54a0ff"/><path d="M48.676 42.277a16.51 16.51 0 0 0-11.5-4.648c-9.16 0-16.586 7.426-16.586 16.582 0 14.598 17.578 22.066 28.086 11.937-6.785-6.543-6.774-17.34 0-23.87zm0 0" fill="#338def"/><path d="M492.324 54.21c0 9.161-7.426 16.587-16.586 16.587-9.16 0-16.582-7.426-16.582-16.586 0-9.156 7.422-16.582 16.582-16.582s16.586 7.426 16.586 16.582zm0 0" fill="#54a0ff"/><path d="M487.242 42.277c-3.254-3.129-7.765-4.96-12.715-4.605-8.273.59-14.965 7.457-15.355 15.742-.707 15.059 17.36 23.055 28.07 12.734a16.545 16.545 0 0 1 0-23.87zm0 0" fill="#338def"/><path d="M53.762 453.3c0 9.16-7.426 16.587-16.586 16.587-9.16 0-16.586-7.426-16.586-16.586 0-9.16 7.426-16.586 16.586-16.586 9.16 0 16.586 7.426 16.586 16.586zm0 0" fill="#54a0ff"/><path d="M48.676 441.367a16.514 16.514 0 0 0-11.5-4.652c-9.16 0-16.586 7.426-16.586 16.586 0 14.594 17.578 22.062 28.086 11.933-6.785-6.543-6.774-17.34 0-23.867zm0 0" fill="#338def"/><path d="M492.324 453.3c0 9.16-7.426 16.587-16.586 16.587-9.16 0-16.582-7.426-16.582-16.586 0-9.16 7.422-16.586 16.582-16.586s16.586 7.426 16.586 16.586zm0 0" fill="#54a0ff"/><path d="M487.242 441.367c-3.254-3.133-7.765-4.96-12.715-4.61-8.273.59-14.965 7.458-15.355 15.743-.707 15.063 17.36 23.059 28.07 12.734a16.54 16.54 0 0 1 0-23.867zm0 0" fill="#338def"/><path d="M273.043 483.09c0 9.16-7.426 16.586-16.586 16.586-9.16 0-16.586-7.426-16.586-16.586 0-9.156 7.426-16.582 16.586-16.582 9.16 0 16.586 7.426 16.586 16.582zm0 0" fill="#54a0ff"/><path d="M267.957 471.156a16.514 16.514 0 0 0-11.5-4.652c-9.16 0-16.586 7.426-16.586 16.586 0 14.597 17.578 22.066 28.086 11.933-6.785-6.539-6.773-17.336 0-23.867zm0 0" fill="#338def"/><path d="M272.875 24.422c0 9.16-7.426 16.586-16.586 16.586-9.16 0-16.586-7.426-16.586-16.586S247.13 7.836 256.29 7.836c9.16 0 16.586 7.426 16.586 16.586zm0 0" fill="#54a0ff"/><path d="M267.79 12.488a16.514 16.514 0 0 0-11.5-4.652c-9.161 0-16.587 7.426-16.587 16.586 0 14.594 17.574 22.062 28.086 11.933a16.547 16.547 0 0 1 0-23.867zm0 0" fill="#338def"/><path d="M369.617 98.023a7.505 7.505 0 0 0 10.547-1.148l28.121-34.996h44.11c3.16 9.621 12.222 16.586 22.886 16.586 13.278 0 24.082-10.805 24.082-24.086s-10.804-24.086-24.082-24.086c-10.664 0-19.726 6.969-22.886 16.586h-47.707a7.502 7.502 0 0 0-5.844 2.8l-30.375 37.798a7.506 7.506 0 0 0 1.148 10.546zm105.664-52.73c5.008 0 9.082 4.074 9.082 9.086 0 5.008-4.074 9.086-9.082 9.086-5.011 0-9.086-4.078-9.086-9.086 0-5.012 4.075-9.086 9.086-9.086zm0 0M280.086 24.586C280.086 11.305 269.28.5 256 .5s-24.086 10.805-24.086 24.086c0 10.664 6.965 19.723 16.586 22.883V73.28a7.5 7.5 0 1 0 15 0V47.47c9.617-3.16 16.586-12.219 16.586-22.883zM256 33.672c-5.012 0-9.086-4.074-9.086-9.086 0-5.008 4.074-9.086 9.086-9.086 5.008 0 9.086 4.078 9.086 9.086 0 5.012-4.078 9.086-9.086 9.086zm0 0M12.633 54.379c0 13.281 10.805 24.086 24.086 24.086 10.66 0 19.722-6.969 22.883-16.586h44.109l28.121 34.996a7.505 7.505 0 0 0 10.547 1.148 7.506 7.506 0 0 0 1.148-10.546L113.152 49.68a7.504 7.504 0 0 0-5.847-2.801H59.602c-3.16-9.621-12.22-16.586-22.883-16.586-13.282 0-24.086 10.805-24.086 24.086zm33.168 0c0 5.008-4.074 9.086-9.082 9.086-5.012 0-9.086-4.078-9.086-9.086 0-5.012 4.074-9.086 9.086-9.086 5.008 0 9.082 4.074 9.082 9.086zm0 0M142.016 410.273a7.503 7.503 0 0 0-10.547 1.149l-27.758 34.543H59.6c-3.16-9.621-12.218-16.586-22.882-16.586-13.282 0-24.086 10.805-24.086 24.086s10.805 24.086 24.086 24.086c10.664 0 19.722-6.969 22.883-16.586h47.707a7.507 7.507 0 0 0 5.847-2.805l30.008-37.344a7.498 7.498 0 0 0-1.148-10.543zM36.719 462.551c-5.012 0-9.086-4.074-9.086-9.086 0-5.008 4.074-9.086 9.086-9.086 5.008 0 9.082 4.078 9.082 9.086s-4.074 9.086-9.082 9.086zm0 0M263.5 460.371v-23.5a7.5 7.5 0 0 0-7.5-7.5 7.497 7.497 0 0 0-7.5 7.5v23.5c-9.621 3.16-16.586 12.223-16.586 22.883 0 13.281 10.805 24.09 24.086 24.09s24.086-10.809 24.086-24.09c0-10.66-6.969-19.719-16.586-22.883zm-7.5 31.973c-5.012 0-9.086-4.078-9.086-9.086 0-5.012 4.074-9.086 9.086-9.086 5.008 0 9.086 4.074 9.086 9.086 0 5.008-4.078 9.086-9.086 9.086zm0 0M475.281 429.379c-10.664 0-19.722 6.965-22.886 16.586h-44.11l-28.12-34.996a7.501 7.501 0 0 0-11.692 9.398l30.37 37.797a7.51 7.51 0 0 0 5.848 2.8h47.707c3.16 9.622 12.22 16.587 22.883 16.587 13.282 0 24.086-10.805 24.086-24.086s-10.804-24.086-24.086-24.086zm0 33.172c-5.011 0-9.086-4.074-9.086-9.086 0-5.008 4.075-9.086 9.086-9.086 5.008 0 9.082 4.078 9.082 9.086s-4.074 9.086-9.082 9.086zm0 0"/><path d="M273.938 99.902c-4.137-.261-7.684 2.914-7.926 7.051a7.502 7.502 0 0 0 7.05 7.926c87.875 5.144 167.465 49.41 218.368 121.453 7.433 10.523 7.433 24.66 0 35.184-115.118 162.93-355.887 162.726-470.86 0-7.433-10.524-7.433-24.66.004-35.184 50.903-72.05 130.496-116.32 218.363-121.457a7.505 7.505 0 0 0 7.051-7.926c-.242-4.136-3.804-7.3-7.925-7.05-92.45 5.406-176.188 51.976-229.743 127.777-11.093 15.699-11.093 36.797 0 52.496 120.953 171.191 374.578 170.957 495.364 0 11.09-15.7 11.09-36.797-.004-52.496-53.547-75.79-137.285-122.363-229.742-127.774zm0 0"/><path d="M454.746 241.137a7.497 7.497 0 0 0 10.55 1.113 7.5 7.5 0 0 0 1.114-10.547C354.664 93.57 139.074 98.34 34.586 246.234a13.341 13.341 0 0 0 0 15.375C139.465 410.047 355.09 413.75 466.41 276.141a7.501 7.501 0 0 0-11.664-9.434c-41.363 51.133-99.285 83.434-163.25 92.152 44.64-15.082 75.262-57.207 75.262-104.937 0-47.758-30.621-89.848-75.242-104.93 63.949 8.727 121.875 41.02 163.23 92.145zM47.523 253.922c41.391-58.031 103.254-95.277 172.739-104.86-44.508 15.149-75.02 57.22-75.02 104.86 0 47.656 30.504 89.7 75.012 104.855-69.484-9.59-131.344-46.828-172.73-104.855zm136.895 7.5c.531 12.402 2.363 24.414 5.402 35.637a110.642 110.642 0 0 0-12.707 11.078c-9.59-13.91-15.273-29.965-16.578-46.715zm-23.883-15c1.344-17.25 7.278-33.227 16.578-46.715 3.973 4.04 8.223 7.73 12.707 11.078-3.039 11.223-4.87 23.235-5.402 35.637zm34.309 65.77c3.465 8.706 7.816 17.042 13.37 24.687a96.599 96.599 0 0 1-21.581-17.016 96.804 96.804 0 0 1 8.21-7.672zm-8.211-124.215a96.46 96.46 0 0 1 21.586-17.016c-5.547 7.629-9.903 15.965-13.375 24.691a96.852 96.852 0 0 1-8.211-7.675zM248.5 348.805c-20.164-4.66-33.937-26.051-41.016-45.508A95.398 95.398 0 0 1 248.5 290.41zm0-73.426a110.371 110.371 0 0 0-45.375 13.152c-2.012-8.613-3.258-17.719-3.695-27.11h49.07zm0-28.957h-49.07c.437-9.39 1.683-18.496 3.695-27.11a110.371 110.371 0 0 0 45.375 13.153zm0-28.988a95.415 95.415 0 0 1-41.016-12.887c7.051-19.383 20.86-40.875 41.016-45.508zm15 15.03a110.406 110.406 0 0 0 45.375-13.151c2.008 8.613 3.254 17.718 3.691 27.109H263.5zm0 28.958h49.066c-.437 9.387-1.683 18.496-3.691 27.11-13.875-7.548-29.316-12.075-45.375-13.157zm0 87.383V290.41a95.398 95.398 0 0 1 41.012 12.887c-7.067 19.437-20.89 40.894-41.012 45.508zm40.281-11.926c5.555-7.645 9.907-15.977 13.371-24.688a96.804 96.804 0 0 1 8.211 7.672 96.356 96.356 0 0 1-21.582 17.016zm31.106-28.746a111.32 111.32 0 0 0-12.707-11.074c3.035-11.223 4.87-23.235 5.398-35.637h23.887c-1.305 16.71-6.973 32.777-16.578 46.71zm0-108.426c9.297 13.488 15.234 29.465 16.578 46.715h-23.887c-.527-12.406-2.363-24.418-5.398-35.637 4.48-3.348 8.734-7.039 12.707-11.078zm-9.52-11.73a96.268 96.268 0 0 1-8.215 7.675c-3.472-8.73-7.828-17.062-13.37-24.691a96.436 96.436 0 0 1 21.585 17.016zm-20.855 16.57a95.398 95.398 0 0 1-41.012 12.887v-58.395c20.11 4.61 33.938 26.047 41.012 45.508zm0 0"/></svg>