<svg height="512pt" viewBox="-76 0 512 512" width="512pt" xmlns="http://www.w3.org/2000/svg"><path d="M302.555 399.215a12.346 12.346 0 0 1-6.618 1.93h-230.8a12.37 12.37 0 0 1-6.621-1.93l-37.043 75.238h318.125zm0 0" fill="#c7d2e5"/><path d="M65.137 401.145a12.37 12.37 0 0 1-6.621-1.93l-37.043 75.238h40.254l36.093-73.308zm0 0" fill="#bac7db"/><path d="M324.727 151.523c0 79.637-64.555 144.192-144.192 144.192-79.633 0-144.187-64.555-144.187-144.192 0-79.632 64.554-144.187 144.187-144.187 79.637 0 144.192 64.555 144.192 144.187zm0 0" fill="#54a0ff"/><path d="M79.531 151.523c0-72.293 53.207-132.16 122.598-142.578a145.215 145.215 0 0 0-21.594-1.61c-79.633 0-144.187 64.556-144.187 144.188 0 88.157 78.402 155.704 165.78 142.582-69.39-10.421-122.597-70.285-122.597-142.582zm0 0" fill="#338def"/><path d="M340.64 472.453H20.435c-6.86 0-12.477 5.613-12.477 12.477v6.93c0 6.859 5.617 12.476 12.477 12.476H340.64c6.863 0 12.476-5.617 12.476-12.477v-6.93c0-6.863-5.613-12.476-12.476-12.476zm0 0" fill="#e4eaf8"/><path d="M42.96 491.86v-6.93c0-6.864 5.614-12.477 12.477-12.477H20.434c-6.86 0-12.477 5.613-12.477 12.477v6.93c0 6.859 5.613 12.476 12.477 12.476h35.004c-6.864 0-12.477-5.617-12.477-12.477zm0 0" fill="#c7d2e5"/><path d="M308.41 390.668v-6.93c0-6.863-5.613-12.476-12.473-12.476h-230.8c-6.86 0-12.473 5.613-12.473 12.476v6.93c0 6.86 5.613 12.477 12.473 12.477h230.8c6.86 0 12.473-5.614 12.473-12.477zm0 0" fill="#e4eaf8"/><path d="M87.664 390.668v-6.93c0-6.863 5.613-12.476 12.477-12.476H65.137c-6.86 0-12.473 5.613-12.473 12.476v6.93c0 6.86 5.613 12.477 12.473 12.477h35.004c-6.864 0-12.477-5.614-12.477-12.477zm0 0" fill="#c7d2e5"/><path d="M180.078 303.379c127.606 0 199.035-149.742 116.684-248.613C267.609 19.71 224.895 0 180.078 0 96.488 0 28.387 67.926 28.387 151.691c0 83.407 67.613 151.688 151.691 151.688zm55.461-26.77c12.547-13.574 22.055-30.699 28.652-48.402a137.102 137.102 0 0 1 16.817 15.566c-12.34 13.504-27.664 24.907-45.469 32.836zm55.04-44.562a152.101 152.101 0 0 0-21.474-18.934c4.747-16.86 7.508-35.082 8.09-53.922h39.364c-1.387 25.438-9.848 50.723-25.98 72.856zm0-160.715c15.081 20.68 24.507 45.727 25.98 72.86h-39.364c-.582-18.84-3.343-37.063-8.09-53.926a151.855 151.855 0 0 0 21.473-18.934zm-9.571-11.727a137.419 137.419 0 0 1-16.817 15.57c-6.597-17.706-16.109-34.831-28.656-48.405 17.36 7.734 32.82 18.98 45.473 32.835zm-93.43-44.027c31.574 4.84 53.23 37.906 63.848 68.465-19.133 11.727-41.008 18.629-63.848 19.871zm0 103.348c24.313-1.192 47.66-8.153 68.313-20.078 3.636 14.265 5.773 29.55 6.289 45.343h-74.602zm0 40.265h74.602c-.516 15.793-2.653 31.075-6.29 45.344-20.648-11.93-44-18.89-68.312-20.082zm0 40.278c22.84 1.242 44.715 8.144 63.848 19.87-10.61 30.528-32.266 63.626-63.848 68.462zm-108.43 44.304a137.727 137.727 0 0 1 16.817-15.57c6.582 17.664 16.082 34.805 28.652 48.406a137.318 137.318 0 0 1-45.469-32.836zm93.43 44.028c-31.543-4.781-53.289-38.074-63.848-68.461 19.133-11.727 41.004-18.63 63.848-19.871zm0-103.348c-24.312 1.192-47.66 8.152-68.312 20.082-3.633-14.27-5.774-29.55-6.29-45.344h74.602zm0-40.262H97.977c.515-15.793 2.652-31.078 6.289-45.343 20.652 11.925 44 18.886 68.312 20.078zm0-128.613v88.336c-22.844-1.246-44.715-8.148-63.848-19.871 10.504-30.23 32.06-63.645 63.848-68.465zM124.621 26.77c-12.574 13.601-22.074 30.742-28.656 48.406a137.135 137.135 0 0 1-16.817-15.57c12.653-13.856 28.114-25.102 45.473-32.836zM69.578 71.332a151.855 151.855 0 0 0 21.473 18.934c-4.746 16.863-7.508 35.082-8.09 53.925H43.598c1.472-27.132 10.902-52.18 25.98-72.859zm-25.98 87.86H82.96c.582 18.84 3.344 37.058 8.09 53.921a151.855 151.855 0 0 0-21.473 18.934c-15.152-20.766-24.512-45.848-25.98-72.856zm0 0M19.977 512H340.18c11.015 0 19.976-8.96 19.976-19.977v-6.93c0-9.75-7.023-17.878-16.273-19.62l-7.508-14.434a7.5 7.5 0 0 0-13.309 6.918l3.723 7.16H33.367l28.36-54.531c.671.102 1.984.223 2.953.223h230.797c.968 0 2.265-.118 2.953-.223l6.433 12.371a7.504 7.504 0 0 0 10.117 3.195c3.672-1.914 5.106-6.441 3.192-10.117l-6.824-13.125c2.562-3.36 4.105-7.535 4.105-12.078v-6.93c0-11.015-8.96-19.976-19.976-19.976h-97.899a7.5 7.5 0 1 0 0 15h97.899c2.695 0 4.976 2.277 4.976 4.976v6.93c0 2.781-2.387 4.977-4.976 4.977H64.68c-2.621 0-4.977-2.22-4.977-4.977v-6.93c0-2.699 2.277-4.976 4.977-4.976h97.898c4.14 0 7.5-3.36 7.5-7.5s-3.36-7.5-7.5-7.5H64.68c-11.016 0-19.977 8.96-19.977 19.976v6.93c0 4.543 1.54 8.719 4.106 12.078l-32.536 62.563C7.023 467.215 0 475.343 0 485.09v6.933C0 503.04 8.96 512 19.977 512zM15 485.094c0-2.7 2.277-4.977 4.977-4.977H340.18c2.699 0 4.976 2.278 4.976 4.977v6.93c0 2.699-2.277 4.976-4.976 4.976H19.977c-2.7 0-4.977-2.277-4.977-4.977zm0 0M180.078 310.21a7.5 7.5 0 0 0-7.5 7.5v28.419a7.5 7.5 0 1 0 15 0V317.71c0-4.14-3.36-7.5-7.5-7.5zm0 0M85.098 305.078a7.501 7.501 0 0 0-.11 10.606l34.953 35.695a7.501 7.501 0 0 0 10.606.11 7.498 7.498 0 0 0 .113-10.606l-34.957-35.696a7.494 7.494 0 0 0-10.605-.109zm0 0M264.45 305.188l-34.954 35.69a7.502 7.502 0 0 0 .113 10.61 7.498 7.498 0 0 0 10.606-.113l34.953-35.691a7.506 7.506 0 0 0-.11-10.61 7.502 7.502 0 0 0-10.609.114zm0 0"/><path d="M168.297 429.496a7.5 7.5 0 0 0-7.5 7.504 7.5 7.5 0 0 0 7.5 7.5h23.562a7.5 7.5 0 0 0 7.5-7.5 7.5 7.5 0 0 0-7.5-7.504zm0 0"/></svg>