<svg xmlns="http://www.w3.org/2000/svg" width="512" height="512"><path fill="#2f5994" d="M432.53 230.59l-125.01-9.29 6.27 197.7.95 30 2 63H195.26l2-63 .95-30 6.27-197.7-125.01 9.29V107.77l123.81 9.2L194.59 0h122.82l-8.69 116.97 123.81-9.2z"/><path fill="#183158" d="M432.53 230.59l-125.01-9.29 6.27 197.7.95 30 2 63H255.5V0h61.91l-8.69 116.97 123.81-9.2z"/><path d="M339.75 168.25c0 46.18-37.57 83.75-83.75 83.75-.17 0-.33 0-.5-.01-45.95-.26-83.25-37.73-83.25-83.74s37.3-83.48 83.25-83.74c.17-.01.33-.01.5-.01 46.18 0 83.75 37.57 83.75 83.75z" fill="#446fa4"/><path fill="#ebded9" d="M314.74 449H197.26l.95-30h115.58z"/><path fill="#c9bbb6" d="M313.79 419l.95 30H255.5v-30z"/><path d="M339.75 168.25c0 46.18-37.57 83.75-83.75 83.75-.17 0-.33 0-.5-.01V84.51c.17-.01.33-.01.5-.01 46.18 0 83.75 37.57 83.75 83.75z" fill="#2f5995"/></svg>