<svg xmlns="http://www.w3.org/2000/svg" width="512" height="512"><path fill="#2f5994" d="M501.27 170.8V512H10.73V170.8l.69-.46L256 9.44z"/><path fill="#183158" d="M501.27 170.8V512H256V9.44z"/><path fill="#f80" d="M501.27 170.8l-60.32 57.17L256 403.28 71.05 228.7l-60.32-56.94.69-1.42 59.63-39.23L256 9.44l184.95 121.68z"/><path fill="#bd6100" d="M501.27 170.8l-60.32 57.17L256 403.28V9.44l184.95 121.68z"/><path fill="#fff1f1" d="M440.95 0v227.97L256 403.28 71.05 228.7V0z"/><path fill="#ebded9" d="M440.95 0v227.97L256 403.28V0z"/><path d="M374.597 202.422c0 19.773-16.034 35.807-35.807 35.807-9.317 0-17.784-3.559-24.151-9.377l-.07.03c5.838 6.368 9.407 14.855 9.407 24.171 0 19.773-16.034 35.807-35.817 35.807-14.115 0-26.33-8.177-32.158-20.043-5.828 11.866-18.044 20.043-32.158 20.043-19.783 0-35.817-16.034-35.817-35.807 0-9.437 3.659-18.003 9.607-24.401l.34-.34-.02-.03-.34.35c-6.398 5.948-14.975 9.597-24.401 9.597-19.773 0-35.807-16.034-35.807-35.807 0-14.125 8.167-26.33 20.043-32.158-11.876-5.838-20.043-18.044-20.043-32.158 0-19.783 16.034-35.817 35.807-35.817 9.357 0 17.874 3.599 24.251 9.477l.05-.03c-5.878-6.388-9.487-14.895-9.487-24.261 0-19.773 16.034-35.807 35.817-35.807 14.115 0 26.33 8.167 32.158 20.043 5.828-11.876 18.044-20.043 32.158-20.043 19.783 0 35.817 16.034 35.817 35.807 0 9.317-3.569 17.794-9.397 24.161l.04.05c6.378-5.828 14.854-9.397 24.171-9.397 19.773 0 35.807 16.034 35.807 35.817 0 14.115-8.167 26.32-20.043 32.158 11.876 5.828 20.043 18.033 20.043 32.158z" fill="#60da4d"/><path d="M354.554 170.264c11.876 5.828 20.043 18.033 20.043 32.158 0 19.773-16.034 35.807-35.807 35.807-9.317 0-17.784-3.559-24.151-9.377l-.07.03c5.838 6.368 9.407 14.855 9.407 24.171 0 19.773-16.034 35.807-35.817 35.807-14.115 0-26.33-8.177-32.158-20.043V71.709c5.828-11.876 18.044-20.043 32.158-20.043 19.783 0 35.817 16.034 35.817 35.807 0 9.317-3.569 17.794-9.397 24.161l.04.05c6.378-5.828 14.854-9.397 24.171-9.397 19.773 0 35.807 16.034 35.807 35.817 0 14.116-8.167 26.322-20.043 32.16z" fill="#00b863"/></svg>