<svg xmlns="http://www.w3.org/2000/svg" width="512" height="512"><path d="M512 325.41c0 42.7-34.61 77.31-77.3 77.31-20.1 0-38.38-7.69-52.12-20.26l-.15.08c12.59 13.75 20.29 32.05 20.29 52.16 0 42.69-34.61 77.3-77.31 77.3-30.47 0-56.82-17.64-69.41-43.27-12.59 25.63-38.94 43.27-69.41 43.27-42.7 0-77.31-34.61-77.31-77.3 0-20.35 7.88-38.85 20.73-52.66l.74-.73-.05-.06-.74.74c-13.81 12.85-32.31 20.73-52.66 20.73-42.69 0-77.3-34.61-77.3-77.31 0-30.47 17.64-56.82 43.27-69.41C17.64 243.41 0 217.06 0 186.59c0-42.7 34.61-77.31 77.3-77.31 20.2 0 38.58 7.77 52.35 20.45l.1-.06c-12.69-13.78-20.47-32.16-20.47-52.37 0-42.69 34.61-77.3 77.31-77.3 30.47 0 56.82 17.64 69.41 43.27C268.59 17.64 294.94 0 325.41 0c42.7 0 77.31 34.61 77.31 77.3 0 20.11-7.7 38.4-20.28 52.15l.1.12c13.75-12.59 32.05-20.29 52.16-20.29 42.69 0 77.3 34.61 77.3 77.31 0 30.47-17.64 56.82-43.27 69.41 25.63 12.59 43.27 38.94 43.27 69.41z" fill="#60da4d"/><path fill="#00ab00" d="M351.95 240.95v30H271v80.94h-30v-80.94h-80.95v-30H241V160h30v80.95z"/><path d="M512 325.41c0 42.7-34.61 77.31-77.3 77.31-20.1 0-38.38-7.69-52.12-20.26l-.15.08c12.59 13.75 20.29 32.05 20.29 52.16 0 42.69-34.61 77.3-77.31 77.3-30.47 0-56.82-17.64-69.41-43.27V43.27C268.59 17.64 294.94 0 325.41 0c42.7 0 77.31 34.61 77.31 77.3 0 20.11-7.7 38.4-20.28 52.15l.1.12c13.75-12.59 32.05-20.29 52.16-20.29 42.69 0 77.3 34.61 77.3 77.31 0 30.47-17.64 56.82-43.27 69.41 25.63 12.59 43.27 38.94 43.27 69.41z" fill="#00b863"/><path fill="#008040" d="M351.95 240.95v30H271v80.94h-15V160h15v80.95z"/></svg>