<svg xmlns="http://www.w3.org/2000/svg" viewBox="0 0 512.14 512.14" width="512" height="512"><path fill="#2f5994" d="M181.74 99.07H330.4v30H181.74z"/><path fill="#183158" d="M256.07 99.07h74.33v30h-74.33z"/><path fill="#60da4d" d="M74.19 250h363.76v262.14H74.19z"/><path fill="#00b863" d="M256.07 250h181.88v262.14H256.07z"/><path fill="#183158" d="M339.505 0h77.131v280h-77.131z"/><path fill="#2f5994" d="M95.505 0h77.131v280H95.505z"/><path fill="#00ab00" d="M74.19 250h363.76v75.56H74.19zM241.07 377.8h30v134.34h-30z"/><path fill="#fabc00" d="M86.403 78.662h95.333v70.815H86.403z"/><path fill="#ff9600" d="M330.403 78.662h95.333v70.815h-95.333z"/><path fill="#008040" d="M256.07 250h181.88v75.56H256.07zM256.07 377.8h15v134.34h-15z"/><path fill="#fabc00" d="M214.07 250h84v75.56h-84z"/><path fill="#ff9600" d="M256.07 250h42v75.56h-42z"/></svg>