<svg xmlns="http://www.w3.org/2000/svg" viewBox="0 0 128.633 128.633"><path fill="#afd7dd" d="M117.845 33.981l-49.618 92.025-49.618-76.332-2.838-18.719 9.802-14.568L46.5 6.32l24.9-3.443L93.652 6.32l18.278 10.596z"/><path fill="#d8e5ea" d="M117.845 33.981l-49.618 92.025-49.618-76.332-2.838-18.719 9.802-14.568L46.5 6.32l24.9-3.443L93.652 6.32l18.278 10.596z"/><path fill="#f0fbfc" d="M117.845 33.981L72.18 99.828 18.609 49.674l-2.838-18.719 9.802-14.568L46.5 6.32l24.9-3.443L93.652 6.32l18.278 10.596z"/><path fill="#d8e5ea" d="M117.845 33.981L88.356 76.775 18.609 49.674l-2.838-18.719 9.802-14.568L46.5 6.32l24.9-3.443L93.652 6.32l18.278 10.596z"/><path d="M68.226 127.506a1.5 1.5 0 0 1-1.258-.683L17.351 50.491a1.52 1.52 0 0 1-.226-.593L14.288 31.18a1.501 1.501 0 0 1 1.259-1.708 1.51 1.51 0 0 1 1.708 1.259l2.789 18.397 48.063 73.94 48.418-89.8a1.5 1.5 0 1 1 2.64 1.424l-49.618 92.025a1.498 1.498 0 0 1-1.259.787c-.021.002-.041.002-.062.002z" fill="#33363a"/><path d="M104.727 9.473C96.202 4.551 84.421 1.494 71.463 1.5c-16.013 0-30.517 3.75-40.971 9.826-10.477 6.088-16.959 14.508-16.907 23.795.064 11.504 8.185 21.926 21.232 29.457 13.046 7.533 31.063 12.203 50.911 12.197 1.453-.002 2.635-.688 2.63-1.529-.003-.422-.298-.803-.774-1.076-.477-.275-1.135-.445-1.861-.445-18.417-.006-35.078-4.32-47.184-11.309-12.104-6.988-19.617-16.633-19.676-27.295-.049-8.457 5.835-16.088 15.375-21.631 9.519-5.531 22.672-8.939 37.23-8.939 11.539 0 21.953 2.709 29.536 7.086 7.572 4.371 12.258 10.394 12.296 17.066.029 5.26-3.623 10.008-9.553 13.453-5.928 3.445-14.102 5.568-23.17 5.563-7.134 0-13.572-1.678-18.262-4.385-4.667-2.693-7.528-6.412-7.551-10.518-.03-3.219 2.202-6.115 5.824-8.219 3.622-2.105 8.624-3.4 14.17-3.4 4.294 0 8.168.996 10.995 2.629s4.562 3.873 4.576 6.361c.011 1.904-1.3 3.613-3.462 4.869-2.151 1.25-5.099 2.016-8.387 2.016-2.493-.008-4.721-.584-6.371-1.524-1.626-.951-2.64-2.246-2.648-3.684.006-1.07.728-2.021 1.942-2.729 1.204-.699 2.855-1.127 4.701-1.133 1.453 0 2.623-.68 2.618-1.521-.002-.422-.297-.801-.773-1.078-.478-.273-1.136-.443-1.863-.443-3.297-.008-6.291.77-8.43 2.014-2.15 1.25-3.482 2.986-3.473 4.891.013 2.279 1.635 4.352 4.215 5.842 2.58 1.488 6.164 2.422 10.088 2.414 4.741 0 9.029-1.113 12.117-2.908 3.098-1.801 5.007-4.285 4.992-7.033-.02-3.316-2.361-6.334-6.131-8.51-3.77-2.178-8.988-3.537-14.725-3.531-6.988-.006-13.33 1.639-17.889 4.301-4.57 2.645-7.39 6.322-7.365 10.377.026 4.936 3.496 9.43 9.116 12.676 5.632 3.25 13.415 5.277 21.991 5.283 10.511 0 20.034-2.467 26.9-6.455 6.865-3.992 11.116-9.516 11.082-15.617-.038-7.501-5.332-14.313-13.847-19.231" fill="#f0fbfc"/><path d="M80.596 52.275c-8.547-.006-16.623-1.953-22.741-5.484-6.334-3.658-9.838-8.618-9.866-13.967-.027-4.49 2.854-8.64 8.114-11.683 4.971-2.903 11.578-4.503 18.603-4.503h.077c5.787 0 11.268 1.325 15.435 3.732 4.415 2.548 6.858 6.028 6.881 9.8.018 3.217-2.021 6.178-5.738 8.339-3.452 2.007-8.022 3.111-12.871 3.111h-.053c-4.031 0-7.86-.928-10.784-2.614-3.188-1.841-4.95-4.374-4.966-7.133-.012-2.373 1.525-4.631 4.219-6.196 2.459-1.43 5.701-2.217 9.134-2.217.931-.012 1.921.22 2.658.642.971.564 1.523 1.428 1.528 2.373a1.5 1.5 0 0 1-1.493 1.507h-.007a1.5 1.5 0 0 1-1.479-1.252c-.014-.009-.029-.019-.049-.029-.268-.154-.695-.254-1.153-.24-2.874 0-5.651.659-7.631 1.811-1.739 1.011-2.733 2.318-2.727 3.586.009 1.625 1.272 3.284 3.465 4.551 2.439 1.407 5.823 2.213 9.29 2.213h.045c4.33 0 8.365-.961 11.366-2.705 2.749-1.599 4.257-3.633 4.246-5.729-.016-2.661-1.927-5.225-5.381-7.219-3.718-2.147-8.667-3.33-13.938-3.33h-.072c-6.504 0-12.573 1.454-17.097 4.096-4.293 2.484-6.643 5.705-6.622 9.073.022 4.239 2.994 8.282 8.366 11.386 5.67 3.271 13.214 5.076 21.242 5.082 9.919 0 19.205-2.221 26.146-6.252 6.694-3.894 10.365-8.976 10.335-14.312-.037-6.711-4.69-13.082-13.101-17.94a1.5 1.5 0 1 1 1.5-2.598c9.372 5.413 14.557 12.7 14.601 20.521.036 6.456-4.164 12.466-11.828 16.923-7.393 4.293-17.213 6.657-27.654 6.657z" fill="#33363a"/><path d="M85.692 78.275c-19.447 0-37.777-4.402-51.625-12.398-14.11-8.145-21.917-19.064-21.982-30.747-.053-9.54 6.217-18.454 17.653-25.101C40.866 3.562 55.684 0 71.463 0h.038c12.781 0 24.846 2.902 33.977 8.174a1.5 1.5 0 1 1-1.5 2.598C95.296 5.76 83.763 3 71.501 3h-.037c-15.259 0-29.541 3.418-40.218 9.623-10.469 6.083-16.208 14.07-16.161 22.489.06 10.573 7.333 20.576 20.482 28.167 13.397 7.736 31.197 11.996 50.123 11.996.616.02 1.016-.157 1.188-.27a1.5 1.5 0 0 1 1.472-1.26h.009a1.5 1.5 0 0 1 1.5 1.491c.004.665-.274 1.314-.783 1.827-.752.757-2.002 1.209-3.345 1.211l-.039.001zM47.487 91.191c-5.521 0-10.743-1.26-14.708-3.549-4.221-2.436-6.556-5.765-6.576-9.372-.017-3.024 1.896-5.808 5.386-7.837a1.5 1.5 0 0 1 1.508 2.594c-2.521 1.466-3.903 3.322-3.894 5.227.014 2.497 1.816 4.909 5.076 6.791 3.516 2.029 8.206 3.146 13.208 3.146h.013a1.5 1.5 0 0 1 .001 3h-.014zM63.238 116.834c-3.411 0-6.648-.783-9.116-2.206-2.725-1.574-4.231-3.754-4.245-6.139-.012-2.039 1.242-3.895 3.529-5.224a1.5 1.5 0 0 1 1.508 2.594c-1.3.755-2.042 1.707-2.037 2.612.007 1.258 1.008 2.554 2.744 3.558 1.989 1.146 4.766 1.805 7.618 1.805h.012a1.5 1.5 0 0 1 1.5 1.499c.001.833-.652 1.546-1.513 1.501zM73.03 100.098a1.5 1.5 0 0 1 0-3c3.847 0 7.434-.854 10.101-2.402 2.413-1.402 3.735-3.176 3.726-4.995a1.5 1.5 0 0 1 1.491-1.509h.009a1.5 1.5 0 0 1 1.5 1.491c.017 2.94-1.837 5.642-5.218 7.606-3.119 1.812-7.241 2.809-11.609 2.809z" fill="#33363a"/><circle cx="17.555" cy="68.834" r="2.843" fill="#d8e5ea"/><circle cx="104.512" cy="78.1" r="1.325" fill="#d8e5ea"/><circle cx="112.857" cy="72.676" r="3.841" fill="#d8e5ea"/><circle cx="9.302" cy="54.42" r=".948" fill="#d8e5ea"/><circle cx="6.633" cy="19.168" r="1.722" fill="#d8e5ea"/><circle cx="118.42" cy="63.436" r="1.722" fill="#d8e5ea"/><circle cx="16.088" cy="6.971" r="2.503" fill="#d8e5ea"/><path d="M88.356 128.633h-29.2a1.5 1.5 0 0 1 0-3h29.2a1.5 1.5 0 0 1 0 3zM102.396 128.633h-5.484a1.5 1.5 0 0 1 0-3h5.484a1.5 1.5 0 0 1 0 3z" fill="#33363a"/><path fill="#ffbf31" d="M99.357 36.721H63.756L44.138 71.15h15.94l-20.914 42.495 54.962-49.18H76.269z"/><path fill="#ffd833" d="M60.078 71.15h11.66L60.002 94.998l34.124-30.533H76.269l23.088-27.744H75.416L55.799 71.15z"/><path d="M39.164 115.145a1.499 1.499 0 0 1-1.345-2.162l19.85-40.332h-13.53a1.501 1.501 0 0 1-1.304-2.242l19.618-34.43a1.502 1.502 0 0 1 1.304-.758h35.602a1.5 1.5 0 0 1 1.153 2.46L79.469 62.965h14.657a1.499 1.499 0 0 1 1 2.618l-54.962 49.18a1.496 1.496 0 0 1-1 .382zm7.555-45.495h13.359a1.499 1.499 0 0 1 1.345 2.162l-17.502 35.563L90.2 65.965H76.269a1.5 1.5 0 0 1-1.153-2.46l21.042-25.284h-31.53L46.719 69.65z" fill="#33363a"/><g><path d="M112.51 127.133l9.712-36-17.56 10.42-.001.002c.018 2.514-1.253 4.971-3.566 6.344-2.313 1.373-5.079 1.309-7.276.09l-9.256 5.492c5.47 5.908 14.519 7.422 21.715 3.152.068-.041.133-.084.199-.125l.068.572 5.965 10.053z" fill="#3e5054"/></g><g><path d="M101.095 107.898c-2.313 1.373-5.079 1.309-7.276.09l-7.945 4.715c5.371 3.379 12.404 3.713 18.227.258 5.822-3.455 8.9-9.789 8.506-16.121l-7.944 4.715c.016 2.513-1.255 4.97-3.568 6.343z" fill="#4a5d60"/></g><g><path d="M90.121 101.76c-.016-2.514 1.254-4.971 3.566-6.344 2.313-1.373 5.08-1.309 7.277-.09l9.256-5.494c-5.469-5.906-14.52-7.422-21.715-3.148-7.197 4.27-10.204 12.938-7.64 20.566l9.256-5.49z" fill="#3e5054"/></g><g><path d="M93.687 95.416c2.313-1.373 5.08-1.309 7.277-.09l7.945-4.717c-5.371-3.381-12.404-3.713-18.227-.258-5.822 3.457-8.9 9.789-8.508 16.121l7.945-4.713c-.014-2.513 1.256-4.97 3.568-6.343z" fill="#4a5d60"/></g><g><path d="M80.866 108.75a1.495 1.495 0 0 1-1.421-1.023c-2.828-8.412.661-17.805 8.296-22.334 7.632-4.533 17.549-3.096 23.581 3.419a1.5 1.5 0 0 1-.335 2.309l-9.256 5.494a1.501 1.501 0 0 1-1.493.021c-1.809-1.001-4.022-.977-5.784.068a5.836 5.836 0 0 0-2.832 5.044 1.502 1.502 0 0 1-.734 1.3l-9.255 5.49a1.494 1.494 0 0 1-.767.212zM97.38 85.758c-2.79 0-5.596.724-8.108 2.216-5.881 3.488-8.84 10.406-7.476 16.98l6.864-4.072c.265-2.786 1.844-5.32 4.262-6.756 2.417-1.436 5.4-1.606 7.973-.503l6.865-4.075c-2.932-2.49-6.641-3.79-10.38-3.79z" fill="#33363a"/></g><path d="M123.129 89.938a1.5 1.5 0 0 0-1.673-.096l-17.56 10.42a1.509 1.509 0 0 0-.735 1.303c.015 2.065-1.07 3.998-2.832 5.043s-3.977 1.069-5.783.068a1.501 1.501 0 0 0-1.493.021l-9.256 5.492a1.501 1.501 0 0 0-.335 2.308c5.685 6.143 14.83 7.774 22.262 4.136l4.152 6.998h-.6a1.5 1.5 0 0 0 0 3h5.484a1.5 1.5 0 0 0 0-3h-.292l9.202-34.109a1.5 1.5 0 0 0-.541-1.584zm-11.142 33.375l-3.99-6.726-.031-.257a1.503 1.503 0 0 0-.838-1.174 1.508 1.508 0 0 0-1.439.075l-.177.111c-5.88 3.488-13.371 2.769-18.488-1.578l6.864-4.073a8.843 8.843 0 0 0 7.973-.503 8.842 8.842 0 0 0 4.263-6.758l13.688-8.124-7.825 29.007z" fill="#33363a"/><g><path d="M39.547 30.131a24.571 24.571 0 0 1-.383-4.281c0-13.447 10.902-24.35 24.35-24.35 9.697 0 18.068 5.67 21.984 13.875.392-.029.785-.047 1.184-.047 8.527 0 15.494 6.668 15.975 15.078 4.227 1.541 7.25 5.584 7.25 10.346 0 6.088-4.936 11.021-11.024 11.021H42.478c-6.09 0-11.025-4.934-11.025-11.021 0-5.074 3.431-9.334 8.094-10.621z" fill="#436377"/></g><g><path d="M63.514 6.014c9.697 0 18.068 5.67 21.984 13.877.392-.031.785-.051 1.184-.051 8.527 0 15.494 6.67 15.975 15.076a11.038 11.038 0 0 1 7.012 8.107c-1.048 4.998-5.478 8.75-10.786 8.75H42.478c-5.309 0-9.739-3.752-10.787-8.748a11.032 11.032 0 0 1 7.856-8.379 24.6 24.6 0 0 1-.383-4.285l.002-.109c.129-.037.252-.084.381-.121a26.234 26.234 0 0 1-.274-2.039C40.42 15.711 50.832 6.014 63.514 6.014z" fill="#364b5b"/></g><g><path d="M69.695 42.955a9.57 9.57 0 0 0 3.055-1.523l9.375 10.34h.076l-12.506-8.817zM64.643 21.809c-7.676 0-13.995 5.783-14.851 13.228a19.137 19.137 0 0 1-.102-1.955c0-8.256 6.693-14.949 14.952-14.949 6.604 0 11.96 5.354 11.96 11.959 0 .602-.062 1.188-.167 1.756-.919-5.692-5.841-10.039-11.792-10.039z" fill="#436377"/></g><path d="M111.349 39.629c-.011-.127-.027-.253-.042-.379a12.35 12.35 0 0 0-.111-.723c-.026-.143-.049-.287-.079-.429a12.97 12.97 0 0 0-.236-.917c-.061-.204-.133-.402-.204-.602-.043-.12-.085-.24-.131-.358-.084-.216-.173-.43-.269-.64-.032-.07-.067-.138-.1-.208-.344-.72-.753-1.4-1.222-2.036l-.123-.165c-.158-.208-.32-.411-.491-.608l-.019-.021a12.755 12.755 0 0 0-1.183-1.188l-.066-.06c-.196-.17-.397-.331-.603-.488l-.168-.126a12.508 12.508 0 0 0-2.228-1.317c-.982-8.786-8.444-15.537-17.391-15.537-.094 0-.188.001-.28.003-.037-.071-.081-.137-.119-.208-.216-.4-.44-.795-.676-1.182-.117-.193-.242-.379-.365-.568a28.963 28.963 0 0 0-.881-1.283c-.26-.353-.527-.701-.803-1.04-.052-.063-.102-.128-.154-.19a25.968 25.968 0 0 0-1.021-1.151c-.063-.068-.128-.134-.192-.201-3.931-4.113-9.198-6.933-15.101-7.754l-.089-.011a26.407 26.407 0 0 0-1.499-.158c-.116-.009-.231-.019-.347-.026A25.526 25.526 0 0 0 63.514 0c-14.254 0-25.85 11.596-25.85 25.85 0 1.06.064 2.123.193 3.162.002.013.01.023.011.036l.006.063-.019.008a12.726 12.726 0 0 0-.98.444c-.209.105-.416.214-.619.33-.101.058-.198.12-.297.181-.649.398-1.258.852-1.823 1.357-.094.084-.188.167-.279.254-.161.153-.317.311-.469.472-.083.087-.162.177-.242.266-.155.173-.309.347-.454.528l-.037.049c-.322.407-.615.837-.885 1.282-.052.086-.106.17-.156.257a12.856 12.856 0 0 0-.488.947c-.093.199-.184.397-.266.602-.058.145-.108.293-.161.44-.105.291-.2.586-.283.887-.059.21-.116.421-.164.635a13.66 13.66 0 0 0-.089.457c-.044.237-.08.476-.11.717-.016.13-.033.258-.045.389-.035.376-.058.755-.058 1.138 0 6.904 5.619 12.521 12.525 12.521h56.403c6.906 0 12.524-5.617 12.524-12.521.004-.377-.019-.751-.053-1.122zM98.882 50.273H87.435l-.019-.002H68.381c-9.479 0-17.189-7.711-17.189-17.189 0-7.416 6.034-13.449 13.452-13.449 5.768 0 10.46 4.691 10.46 10.459 0 4.45-3.619 8.07-8.068 8.07a6.163 6.163 0 0 1-6.155-6.156 1.5 1.5 0 0 0-3 0c0 5.049 4.107 9.156 9.155 9.156 6.104 0 11.068-4.966 11.068-11.07 0-7.421-6.038-13.459-13.46-13.459-9.071 0-16.452 7.379-16.452 16.449 0 7.271 3.876 13.636 9.656 17.191h-15.37c-5.252 0-9.525-4.271-9.525-9.521 0-.298.018-.593.045-.884.011-.113.028-.224.042-.336a8.72 8.72 0 0 1 .268-1.32c.044-.156.088-.312.139-.465.03-.091.066-.179.099-.269.234-.633.53-1.239.889-1.805.014-.023.027-.047.042-.069a9.4 9.4 0 0 1 .366-.522l.109-.146a9.342 9.342 0 0 1 .519-.613c.141-.154.286-.306.437-.45l.085-.078a9.503 9.503 0 0 1 2.413-1.642l.089-.043c.214-.099.433-.19.656-.273l.081-.03a9.492 9.492 0 0 1 3.247-.582 1.5 1.5 0 0 0 0-3c-.563 0-1.114.05-1.657.123-.013-.115-.035-.231-.046-.345-.009-.099-.019-.197-.027-.296a22.392 22.392 0 0 1-.084-1.856c0-12.6 10.25-22.85 22.85-22.85.501 0 1 .021 1.496.054l.306.023c5.342.429 10.336 2.742 14.119 6.404l.026.024c.364.353.715.72 1.056 1.098.055.061.107.124.161.185.252.286.495.58.733.878.099.125.2.25.297.377.259.34.511.686.752 1.042.102.151.196.306.295.459a22.21 22.21 0 0 1 .762 1.271 22.709 22.709 0 0 1 2.849 11.034 1.5 1.5 0 0 0 3 0c0-3.152-.569-6.174-1.607-8.969 6.485.479 11.819 5.232 13.112 11.517a12.512 12.512 0 0 0-1.986-.173 1.5 1.5 0 0 0 0 3c1.139 0 2.228.211 3.241.58l.02.011a9.5 9.5 0 0 1 3.103 1.868l.021.019a9.603 9.603 0 0 1 1.782 2.172l.031.05c.112.188.216.381.315.577l.05.103c.263.54.473 1.107.631 1.692.033.122.067.243.094.367a9.454 9.454 0 0 1 .156.905c.013.106.028.212.038.319.026.285.044.573.044.865-.006 5.249-4.278 9.52-9.53 9.52z" fill="#33363a"/></svg>