<svg xmlns="http://www.w3.org/2000/svg" width="512" height="512"><path d="M316.419 133.29c0 100.57-120.06 179.03-125.17 182.32l-8.12 5.23-.15-.1-7.97-5.13c-5.11-3.29-125.17-81.75-125.17-182.32C49.839 59.84 109.549.08 182.979 0h.15c73.5 0 133.29 59.79 133.29 133.29z" fill="#ff7816"/><path d="M316.419 133.29c0 100.57-120.06 179.03-125.17 182.32l-8.12 5.23-.15-.1V0h.15c73.5 0 133.29 59.79 133.29 133.29z" fill="#ff4b00"/><path fill="#ffe892" d="M168.129 310.75h30V512h-30z"/><path fill="#ffc072" d="M182.979 310.75h15.15V512h-15.15z"/><path d="M462.161 198.13c0 100.57-120.06 179.03-125.17 182.32l-8.12 5.23-.15-.1-7.97-5.13c-5.11-3.29-125.17-81.75-125.17-182.32 0-73.45 59.71-133.21 133.14-133.29h.15c73.5 0 133.29 59.79 133.29 133.29z" fill="#60da4d"/><path d="M462.161 198.13c0 100.57-120.06 179.03-125.17 182.32l-8.12 5.23-.15-.1V64.84h.15c73.5 0 133.29 59.79 133.29 133.29z" fill="#00b863"/><path fill="#ffe892" d="M313.871 375.59h30V512h-30z"/><path fill="#ffc072" d="M328.721 375.59h15.15V512h-15.15z"/><path d="M413.257 194.561h-30c0-28.872-23.489-52.36-52.36-52.36v-30c45.413-.001 82.36 36.946 82.36 82.36z" fill="#b5f94c"/></svg>