<svg xmlns="http://www.w3.org/2000/svg" viewBox="0 0 512.14 512.14" width="512" height="512"><path d="M158.359 15V0h-35.648c-36.393 0-66 29.607-66 66v58h89.255v-15l10.416-79h1.978V15h-.001z" fill="#ebded9"/><path d="M389.429 0h-35.648v30h1.978l10.416 79v15h89.255V66c-.001-36.393-29.608-66-66.001-66z" fill="#c9bbb6"/><path d="M453.31 417.27v94.87H58.83v-94.87c0-33.46 5.96-66.12 17.7-97.06 10.98-28.92 26.53-55.05 46.25-77.74 1.43-1.65 2.88-3.28 4.36-4.89l11.19-12.22V0h90.27v35.99c0 11.58 9.43 21.01 21.01 21.01h12.92c11.58 0 21.01-9.43 21.01-21.01V0h90.27v225.36L385 237.58c1.48 1.61 2.93 3.24 4.36 4.89 19.72 22.69 35.27 48.82 46.25 77.74 11.74 30.94 17.7 63.6 17.7 97.06z" fill="#60da4d"/><path d="M453.31 417.27v94.87H256.07V57h6.46c11.58 0 21.01-9.43 21.01-21.01V0h90.27v225.36L385 237.58c1.48 1.61 2.93 3.24 4.36 4.89 19.72 22.69 35.27 48.82 46.25 77.74 11.74 30.94 17.7 63.6 17.7 97.06z" fill="#00b863"/><path d="M301.07 0v225h-90V0h17.53v35.99c0 11.58 9.43 21.01 21.01 21.01h12.92c11.58 0 21.01-9.43 21.01-21.01V0h17.53z" fill="#ebded9"/><g fill="#00ab00"><path d="M167.37 331.5h30v27.804h-30zM241.07 343.4h30v27.81h-30zM328.12 242.47c10.9 19.07 16.65 40.6 16.65 62.63v9.23h-30v-9.23c0-18.17-5.12-35.9-14.8-51.28l-7.15-11.35h-21.75V327h-30v-84.53h-21.75l-7.15 11.35a96.147 96.147 0 0 0-14.8 51.28v9.23h-30v-9.23c0-22.03 5.75-43.56 16.65-62.63h-61.24c1.43-1.65 2.88-3.28 4.36-4.89l11.19-12.22v-12.89h235.48v12.89L385 237.58c1.48 1.61 2.93 3.24 4.36 4.89h-61.24z"/></g><path d="M301.07 0v225h-45V57h6.46c11.58 0 21.01-9.43 21.01-21.01V0h17.53z" fill="#c9bbb6"/><path fill="#008040" d="M256.07 343.4h15v27.81h-15zM328.12 242.47c10.9 19.07 16.65 40.6 16.65 62.63v9.23h-30v-9.23c0-18.17-5.12-35.9-14.8-51.28l-7.15-11.35h-21.75V327h-15V212.47h117.74v12.89L385 237.58c1.48 1.61 2.93 3.24 4.36 4.89h-61.24z"/><path fill="#f80" d="M211.07 88.74h90v30h-90zM211.07 149.26h90v30h-90z"/><path fill="#bd6100" d="M256.07 88.74h45v30h-45zM256.07 149.26h45v30h-45z"/></svg>