<svg xmlns="http://www.w3.org/2000/svg" width="512" height="512"><path fill="#f80" d="M241 0h30v65.18h-30z"/><path fill="#bd6100" d="M256 0h15v65.18h-15z"/><path d="M309.83 128.3c0 42.01-43.17 73.91-45 75.24l-8.83 6.43-8.83-6.43c-1.83-1.33-45-33.23-45-75.24s43.17-73.91 45-75.25l8.83-6.42 8.83 6.42c1.83 1.34 45 33.24 45 75.25z" fill="#fabc00"/><path d="M264.83 203.54l-8.83 6.43V46.63l8.83 6.42c1.83 1.34 45 33.24 45 75.25s-43.17 73.91-45 75.24z" fill="#ff9600"/><path fill="#f80" d="M241 198.43h30V512h-30z"/><path fill="#bd6100" d="M256 198.43h15V512h-15z"/><path fill="#f80" d="M145.506 41.458h30v174.747h-30z"/><path fill="#bd6100" d="M336.487 41.458h30v174.747h-30z"/><path d="M339.12 298.1c-16.67 14.17-38.83 17.64-56.56 17.64-11.79 0-21.62-1.54-26.56-2.48-4.94.94-14.77 2.48-26.56 2.48-17.73 0-39.89-3.47-56.56-17.64-32.01-27.21-28.36-80.76-28.19-83.02l.82-10.89 10.61-2.57c2.21-.53 54.47-12.76 86.48 14.45 5.43 4.62 9.83 9.99 13.4 15.74 3.57-5.75 7.97-11.12 13.4-15.74 32.01-27.21 84.27-14.98 86.48-14.45l10.61 2.57.82 10.89c.17 2.26 3.82 55.81-28.19 83.02zM339.12 428.21c-16.67 14.17-38.83 17.65-56.56 17.65-11.79 0-21.62-1.54-26.56-2.49-4.94.95-14.77 2.49-26.56 2.49-17.73 0-39.89-3.48-56.56-17.65-32.01-27.21-28.36-80.76-28.19-83.02l.82-10.89 10.61-2.56c2.21-.54 54.47-12.77 86.48 14.44 5.43 4.62 9.83 9.99 13.4 15.74 3.57-5.75 7.97-11.12 13.4-15.74 32.01-27.21 84.27-14.98 86.48-14.44l10.61 2.56.82 10.89c.17 2.26 3.82 55.81-28.19 83.02z" fill="#fabc00"/><path d="M367.31 345.19c.17 2.26 3.82 55.81-28.19 83.02-16.67 14.17-38.83 17.65-56.56 17.65-11.79 0-21.62-1.54-26.56-2.49v-81.45c3.57-5.75 7.97-11.12 13.4-15.74 32.01-27.21 84.27-14.98 86.48-14.44l10.61 2.56.82 10.89zM282.56 315.74c-11.79 0-21.62-1.54-26.56-2.48v-81.45c3.57-5.75 7.97-11.12 13.4-15.74 32.01-27.21 84.27-14.98 86.48-14.45l10.61 2.57.82 10.89c.17 2.26 3.82 55.81-28.19 83.02-16.67 14.17-38.83 17.64-56.56 17.64z" fill="#ff9600"/></svg>