<svg height="511pt" viewBox="1 -44 511.999 511" width="511pt" xmlns="http://www.w3.org/2000/svg"><path d="M183.488 415.004H162.36a3.857 3.857 0 0 1-3.855-3.86v-58.878a3.856 3.856 0 0 1 3.855-3.856h21.13a3.856 3.856 0 0 1 3.855 3.856v58.879a3.857 3.857 0 0 1-3.856 3.859zm0 0M349.64 415.004h-21.128a3.857 3.857 0 0 1-3.856-3.86v-58.878a3.856 3.856 0 0 1 3.856-3.856h21.129a3.856 3.856 0 0 1 3.855 3.856v58.879a3.857 3.857 0 0 1-3.855 3.859zm0 0" fill="#c8d2dc"/><path d="M406.855 367.695h-301.71c-11.856 0-21.461-9.61-21.461-21.46v-211.93c0-11.852 9.605-21.461 21.46-21.461h301.711c11.856 0 21.461 9.61 21.461 21.46v211.93c0 11.852-9.605 21.461-21.46 21.461zm0 0" fill="#dce6eb"/><path d="M402.16 144.305v191.93a5.304 5.304 0 0 1-5.3 5.304H115.14a5.304 5.304 0 0 1-5.3-5.305v-191.93c0-2.925 2.375-5.3 5.3-5.3h281.72c2.925 0 5.3 2.375 5.3 5.3zm0 0" fill="#4e5a61"/><path d="M402.16 144.305v191.93a5.304 5.304 0 0 1-5.3 5.304H150.686a5.297 5.297 0 0 1-5.292-5.305v-191.93c0-2.925 2.367-5.3 5.292-5.3H396.86c2.926 0 5.301 2.375 5.301 5.3zm0 0" fill="#5f6c75"/><path d="M90.984 49.77v245.988c0 17.035-10.21 31.695-24.851 38.172a41.558 41.558 0 0 1-16.871 3.554c-23.043 0-41.715-18.683-41.715-41.726V49.77c0-11.52 4.668-21.954 12.215-29.5 7.543-7.555 17.976-12.223 29.5-12.223 6.004 0 11.71 1.265 16.87 3.55 14.641 6.481 24.852 21.137 24.852 38.173zm0 0M504.453 49.77v245.988c0 17.035-10.21 31.695-24.84 38.172a41.563 41.563 0 0 1-16.875 3.554c-23.039 0-41.722-18.683-41.722-41.726V49.77c0-23.04 18.683-41.723 41.722-41.723a41.56 41.56 0 0 1 16.875 3.55 41.692 41.692 0 0 1 12.625 8.673c7.547 7.546 12.215 17.98 12.215 29.5zm0 0" fill="#4e5a61"/><path d="M90.984 49.77v245.988c0 17.035-10.21 31.695-24.851 38.172-14.64-6.477-24.86-21.13-24.86-38.172V49.77c0-11.52 4.668-21.954 12.223-29.5a41.653 41.653 0 0 1 12.637-8.672c14.64 6.48 24.851 21.136 24.851 38.172zm0 0M504.453 49.77v245.988c0 17.035-10.21 31.695-24.84 38.172-14.648-6.477-24.863-21.13-24.863-38.172V49.77c0-17.043 10.215-31.692 24.863-38.172a41.692 41.692 0 0 1 12.625 8.672c7.547 7.546 12.215 17.98 12.215 29.5zm0 0" fill="#5f6c75"/><g fill="#909ba6"><path d="M483.445 54.484c0 11.438-9.27 20.711-20.707 20.711s-20.71-9.273-20.71-20.71 9.273-20.712 20.71-20.712 20.707 9.274 20.707 20.711zm0 0M483.445 133.336c0 11.437-9.27 20.71-20.707 20.71s-20.71-9.273-20.71-20.71 9.273-20.711 20.71-20.711 20.707 9.273 20.707 20.71zm0 0M483.445 212.191c0 11.438-9.27 20.707-20.707 20.707s-20.71-9.27-20.71-20.707c0-11.441 9.273-20.71 20.71-20.71s20.707 9.269 20.707 20.71zm0 0M483.445 291.043c0 11.437-9.27 20.71-20.707 20.71s-20.71-9.273-20.71-20.71 9.273-20.711 20.71-20.711 20.707 9.273 20.707 20.711zm0 0M69.973 54.484c0 11.438-9.274 20.711-20.711 20.711s-20.707-9.273-20.707-20.71 9.27-20.712 20.707-20.712 20.71 9.274 20.71 20.711zm0 0M69.973 133.336c0 11.437-9.274 20.71-20.711 20.71s-20.707-9.273-20.707-20.71 9.27-20.711 20.707-20.711 20.71 9.273 20.71 20.71zm0 0M69.973 212.191c0 11.438-9.274 20.707-20.711 20.707s-20.707-9.27-20.707-20.707c0-11.441 9.27-20.71 20.707-20.71s20.71 9.269 20.71 20.71zm0 0M69.973 291.043c0 11.437-9.274 20.71-20.711 20.71s-20.707-9.273-20.707-20.71 9.27-20.711 20.707-20.711 20.71 9.273 20.71 20.711zm0 0"/></g><path d="M282.52 333.988a7.544 7.544 0 0 0-7.547 7.547 7.544 7.544 0 0 0 7.547 7.547h114.34c7.081 0 12.843-5.762 12.843-12.848v-191.93c0-7.081-5.762-12.847-12.844-12.847H115.141c-7.082 0-12.844 5.766-12.844 12.848v191.93c0 7.085 5.762 12.847 12.844 12.847h137.191a7.547 7.547 0 0 0 0-15.094H117.387V146.551h277.226v187.437zm0 0M49.262 82.742c15.582 0 28.261-12.68 28.261-28.254 0-15.586-12.68-28.261-28.261-28.261-15.578 0-28.254 12.675-28.254 28.261 0 15.575 12.676 28.254 28.254 28.254zm0-41.426c7.261 0 13.168 5.907 13.168 13.172 0 7.254-5.907 13.16-13.168 13.16-7.254 0-13.16-5.906-13.16-13.16 0-7.265 5.906-13.172 13.16-13.172zm0 0"/><path d="M462.738.5c-27.164 0-49.27 22.105-49.27 49.27v56.304c-5.652-1.367-6.042-.535-54.331-.777-4.164 0-7.543 3.383-7.543 7.547s3.379 7.547 7.543 7.547h47.722c7.73 0 13.914 6.304 13.914 13.914v211.933c0 7.664-6.246 13.914-13.914 13.914H105.141c-7.668 0-13.914-6.25-13.914-13.914V134.305c0-5.274 2.957-9.88 7.304-12.246 5.844-3.176-4.242-1.047 230.422-1.668 4.176 0 7.547-3.383 7.547-7.547s-3.371-7.547-7.547-7.547c-236.351.273-224.55-.645-230.422.777V49.77C98.531 22.605 76.426.5 49.261.5 26.493.5 6.813 15.934 1.399 38.027c-.984 4.055 1.5 8.141 5.543 9.125a7.554 7.554 0 0 0 9.125-5.53C19.813 26.296 33.465 15.59 49.262 15.59c18.843 0 34.175 15.336 34.175 34.18v65.316a28.916 28.916 0 0 0-6.511 12.48c-2.672-12.824-14.059-22.488-27.664-22.488-15.578 0-28.254 12.68-28.254 28.258s12.676 28.258 28.254 28.258c12.535 0 23.187-8.211 26.87-19.531v61.398c-3.683-11.32-14.335-19.527-26.87-19.527-15.578 0-28.254 12.675-28.254 28.254 0 15.582 12.676 28.257 28.254 28.257 12.535 0 23.187-8.207 26.87-19.53v61.401c-3.683-11.324-14.335-19.53-26.87-19.53-15.578 0-28.254 12.675-28.254 28.253 0 15.582 12.676 28.258 28.254 28.258 12.535 0 23.187-8.207 26.87-19.531v17.09c-20.105 25.53-61.038 11.124-61.038-21.098V69.914a7.544 7.544 0 0 0-7.547-7.547A7.537 7.537 0 0 0 0 69.914v225.844c0 24.601 18.121 45.05 41.719 48.695v62.527H22.754a7.547 7.547 0 0 0 0 15.094h53.02a7.547 7.547 0 0 0 0-15.094H56.808v-62.53a48.924 48.924 0 0 0 19.324-7.41v9.198c0 15.985 13.02 29.004 29.008 29.004h45.82v35.899c0 6.289 5.11 11.41 11.398 11.41h21.13c6.288 0 11.398-5.121 11.398-11.41v-35.899h122.226v35.899c0 6.289 5.11 11.41 11.399 11.41h21.129c6.289 0 11.398-5.121 11.398-11.41v-35.899h45.82c15.989 0 29.008-13.02 29.008-29.004v-9.199a48.924 48.924 0 0 0 19.324 7.41v62.531h-18.964a7.547 7.547 0 0 0 0 15.094h53.02a7.547 7.547 0 0 0 0-15.094H470.28v-62.527C493.88 340.81 512 320.36 512 295.758V49.77C512 22.605 489.906.5 462.738.5zm-413.476 146c-7.258 0-13.164-5.906-13.164-13.164s5.906-13.164 13.164-13.164 13.164 5.906 13.164 13.164S56.52 146.5 49.262 146.5zm0 78.855c-7.258 0-13.164-5.906-13.164-13.167 0-7.258 5.906-13.165 13.164-13.165s13.164 5.907 13.164 13.165c0 7.261-5.906 13.167-13.164 13.167zm0 78.852c-7.258 0-13.164-5.906-13.164-13.168 0-7.258 5.906-13.164 13.164-13.164s13.164 5.906 13.164 13.164c0 7.262-5.906 13.168-13.164 13.168zm130.535 103.254H166.05v-32.219h13.746zm166.152 0h-13.746v-32.219h13.746zm150.957-111.703c0 32.238-40.941 46.62-61.039 21.097V299.77c3.684 11.32 14.336 19.527 26.871 19.527 15.578 0 28.254-12.676 28.254-28.258 0-15.578-12.676-28.254-28.254-28.254-12.535 0-23.183 8.207-26.87 19.528v-61.395c3.683 11.32 14.335 19.527 26.87 19.527 15.578 0 28.254-12.675 28.254-28.257 0-15.579-12.676-28.254-28.254-28.254-12.535 0-23.183 8.207-26.87 19.527v-61.398c3.683 11.324 14.335 19.53 26.87 19.53 15.578 0 28.254-12.675 28.254-28.257 0-15.578-12.676-28.254-28.254-28.254-13.605 0-24.992 9.66-27.664 22.484a28.88 28.88 0 0 0-6.512-12.476V49.77c0-18.844 15.333-34.18 34.18-34.18 18.844 0 34.168 15.336 34.168 34.18v245.988zm-47.332-4.719c0-7.258 5.906-13.164 13.164-13.164s13.164 5.906 13.164 13.164c0 7.262-5.906 13.168-13.164 13.168s-13.164-5.906-13.164-13.168zm0-78.851c0-7.258 5.906-13.165 13.164-13.165s13.164 5.907 13.164 13.165c0 7.261-5.906 13.167-13.164 13.167s-13.164-5.906-13.164-13.167zm0-78.852c0-7.258 5.906-13.164 13.164-13.164s13.164 5.906 13.164 13.164-5.906 13.164-13.164 13.164-13.164-5.906-13.164-13.164zm0 0"/><path d="M462.738 26.227c-15.582 0-28.258 12.675-28.258 28.257 0 15.578 12.676 28.254 28.258 28.254 15.578 0 28.254-12.675 28.254-28.254 0-15.582-12.676-28.257-28.254-28.257zm0 41.421c-7.258 0-13.164-5.906-13.164-13.164 0-7.261 5.906-13.164 13.164-13.164s13.164 5.903 13.164 13.164c0 7.258-5.906 13.164-13.164 13.164zm0 0"/></svg>