<svg height="512pt" viewBox="0 0 512 512" width="512pt" xmlns="http://www.w3.org/2000/svg"><path d="M503.781 33.605v444.196c0 14.402-11.672 26.066-26.07 26.066H263.293c-14.398 0-26.063-11.664-26.063-26.066V33.605c0-14.398 11.665-26.062 26.063-26.062h214.418c14.398 0 26.07 11.664 26.07 26.062zm0 0" fill="#60c8dd"/><path d="M442.902 7.543l-6.664 38.672a6.107 6.107 0 0 1-6.015 5.066h-118.54a6.105 6.105 0 0 1-5.992-4.937L298.11 7.543zm0 0" fill="#2cb3cd"/><path d="M476.59 89.672v374.293c0 7.152-5.805 12.953-12.953 12.953H277.375c-7.148 0-12.95-5.8-12.95-12.953V89.672c0-7.149 5.802-12.95 12.95-12.95h186.262c7.148 0 12.953 5.801 12.953 12.95zm0 0" fill="#c2eaf2"/><path d="M476.59 89.672v374.293c0 7.152-5.805 12.953-12.953 12.953H309.71c-7.148 0-12.95-5.8-12.95-12.953V89.672c0-7.149 5.802-12.95 12.95-12.95h153.926c7.148 0 12.953 5.801 12.953 12.95zm0 0" fill="#def4f8"/><path d="M119.672 382.418h24.41v112.887h-24.41zm0 0" fill="#c8d2dc"/><path d="M256.203 280.684c0 68.664-55.664 124.328-124.328 124.328S7.551 349.348 7.551 280.684s55.66-124.329 124.324-124.329 124.328 55.665 124.328 124.329zm0 0" fill="#dce6eb"/><path d="M194.238 343.043c-10.937 10.941-24.039 18.41-37.937 22.395-29.832 8.566-63.285 1.105-86.785-22.395-34.442-34.438-34.442-90.277 0-124.715 23.5-23.5 56.953-30.969 86.785-22.402 13.898 3.992 27 11.453 37.937 22.402 34.442 34.438 34.442 90.277 0 124.715zm0 0" fill="#4e5a61"/><path d="M194.238 343.043c-10.937 10.941-24.039 18.41-37.937 22.395-13.895-3.985-26.996-11.454-37.938-22.395-34.437-34.438-34.437-90.277 0-124.715 10.942-10.95 24.043-18.41 37.938-22.402 13.898 3.992 27 11.453 37.937 22.402 34.442 34.438 34.442 90.277 0 124.715zm0 0" fill="#5f6c75"/><path d="M174.398 251.86c0 12.93-10.48 23.41-23.406 23.41-12.93 0-23.41-10.48-23.41-23.41s10.48-23.41 23.41-23.41c12.926 0 23.406 10.48 23.406 23.41zm0 0" fill="#7e8b96"/><path d="M155.902 504.457h-48.054c-8.004 0-14.493-6.488-14.493-14.492s6.489-14.496 14.493-14.496h48.054c8.004 0 14.493 6.492 14.493 14.496s-6.489 14.492-14.493 14.492zm0 0" fill="#a2abb8"/><path d="M217.375 303.617c4.105.723 8.027-2 8.75-6.105 10.465-58.832-34.738-112.555-94.246-112.555-85.742 0-127.371 103.738-67.691 163.414 44.351 44.383 119.289 34.922 150.847-20.21 2.059-3.618.805-8.224-2.808-10.286a7.527 7.527 0 0 0-10.286 2.805c-26.468 46.191-89.52 54.613-127.097 17.035-50.27-50.27-15.188-137.676 57.035-137.676 50.414 0 88.18 45.621 79.394 94.84-.722 4.101 2.012 8.012 6.102 8.738zm0 0"/><path d="M120.043 251.863c0 17.063 13.887 30.95 30.95 30.95s30.948-13.887 30.948-30.95c0-17.066-13.886-30.949-30.949-30.949s-30.949 13.883-30.949 30.95zm46.816 0c0 8.746-7.117 15.867-15.867 15.867-8.746 0-15.867-7.12-15.867-15.867 0-8.75 7.121-15.867 15.867-15.867 8.75 0 15.867 7.117 15.867 15.867zm0 0"/><path d="M477.707 0H263.289c-18.523 0-33.605 15.074-33.605 33.605v158.72c-48.41-53.532-129.567-57.79-183.254-12.087-3.168 2.707-3.551 7.461-.856 10.63a7.53 7.53 0 0 0 10.63.855c52.987-45.102 134.483-34.434 173.48 25.218 55.648 85.051-17.528 196.2-117.555 178.852-85-14.527-125.254-113.664-75.082-183.285 2.433-3.38 1.66-8.086-1.719-10.531-3.379-2.43-8.086-1.657-10.527 1.722-57.184 79.41-10.254 192.664 87.328 207.387v56.844h-4.285c-12.145 0-22.028 9.882-22.028 22.03 0 12.157 9.883 22.04 22.028 22.04h48.054c12.157 0 22.043-9.883 22.043-22.04 0-12.148-9.886-22.03-22.043-22.03h-4.273v-56.844c49.29-7.438 89.715-42.25 105.258-88.41v141.293c0 11.297 9.191 20.488 20.488 20.488h186.27c11.296 0 20.488-9.191 20.488-20.488V89.672c0-11.3-9.191-20.492-20.488-20.492h-26.352a7.54 7.54 0 0 0-7.543 7.543 7.54 7.54 0 0 0 7.543 7.539h26.352a5.414 5.414 0 0 1 5.406 5.41v374.297a5.413 5.413 0 0 1-5.406 5.406H277.37a5.413 5.413 0 0 1-5.406-5.406V89.672a5.414 5.414 0 0 1 5.406-5.41h132.766a7.54 7.54 0 0 0 7.543-7.54 7.54 7.54 0 0 0-7.543-7.542H277.37c-11.297 0-20.488 9.191-20.488 20.492v149.062a131.287 131.287 0 0 0-12.117-26.136V33.605c0-10.218 8.316-18.523 18.523-18.523h28.61l6.39 32.715c1.254 6.39 6.887 11.027 13.395 11.027h118.539a13.611 13.611 0 0 0 13.445-11.328l5.59-32.414h28.449c10.223 0 18.531 8.305 18.531 18.523v444.196c0 10.219-8.308 18.523-18.531 18.523H263.289c-10.207 0-18.523-8.304-18.523-18.523V373.699c0-4.16-3.368-7.539-7.54-7.539-4.164 0-7.542 3.38-7.542 7.54v104.1c0 18.536 15.082 33.606 33.605 33.606h214.418c18.54 0 33.613-15.07 33.613-33.605V33.605C511.32 15.075 496.246 0 477.707 0zM127.211 412.473c3.266.105 6.004.109 9.332 0v55.457h-9.332zm28.687 70.539c3.832 0 6.961 3.117 6.961 6.949 0 3.84-3.129 6.957-6.96 6.957h-48.055c-3.828 0-6.946-3.117-6.946-6.957 0-3.832 3.118-6.95 6.946-6.95zM429.012 43.738H312.867l-5.601-28.656h126.683zm0 0"/><path d="M417.93 29.715a7.54 7.54 0 0 1-7.543 7.539 7.539 7.539 0 0 1-7.54-7.54 7.54 7.54 0 0 1 7.54-7.542 7.54 7.54 0 0 1 7.543 7.543zm0 0M328.234 36.61h50.059a7.54 7.54 0 0 0 7.543-7.54 7.54 7.54 0 0 0-7.543-7.543h-50.059a7.54 7.54 0 0 0-7.539 7.543 7.539 7.539 0 0 0 7.54 7.54zm0 0M316.836 135.031h-23.79a7.539 7.539 0 0 0-7.538 7.54v23.175a7.542 7.542 0 0 0 15.082 0v-15.633h16.246a7.54 7.54 0 0 0 7.539-7.543 7.539 7.539 0 0 0-7.54-7.539zm0 0M455.504 142.57a7.539 7.539 0 0 0-7.54-7.539h-23.788a7.539 7.539 0 0 0-7.54 7.54 7.54 7.54 0 0 0 7.54 7.542h16.246v15.633a7.54 7.54 0 0 0 7.543 7.54 7.539 7.539 0 0 0 7.539-7.54zm0 0M447.965 380.352a7.54 7.54 0 0 0-7.543 7.543v15.632h-16.246a7.539 7.539 0 0 0-7.54 7.54 7.54 7.54 0 0 0 7.54 7.542h23.789a7.54 7.54 0 0 0 7.539-7.543v-23.171a7.54 7.54 0 0 0-7.54-7.543zm0 0M293.047 380.352a7.54 7.54 0 0 0-7.54 7.543v23.171a7.54 7.54 0 0 0 7.54 7.543h23.789a7.54 7.54 0 0 0 7.539-7.543 7.539 7.539 0 0 0-7.54-7.539H300.59v-15.632a7.543 7.543 0 0 0-7.543-7.543zm0 0"/></svg>