<svg height="512pt" viewBox="0 0 512 512" width="512pt" xmlns="http://www.w3.org/2000/svg"><path d="M401.43 48.54V360.44c0 22.63-18.348 40.993-40.989 40.993H48.551c-22.645 0-40.992-18.364-40.992-40.993V48.54c0-22.633 18.347-40.98 40.992-40.98h311.89c22.641 0 40.989 18.347 40.989 40.98zm0 0" fill="#b9c3cd"/><path d="M401.43 48.54V360.44c0 22.63-18.348 40.993-40.989 40.993H84.511c-22.632 0-40.98-18.364-40.98-40.993V48.54c0-22.633 18.348-40.98 40.98-40.98h275.93c22.641 0 40.989 18.347 40.989 40.98zm0 0" fill="#c8d2dc"/><path d="M306.953 165.035c0 50.442-36.508 92.613-84.863 100.957-5.715.988-11.59 1.5-17.594 1.5-56.613 0-102.46-45.867-102.46-102.457 0-56.601 45.87-102.46 102.46-102.46 6.004 0 11.879.515 17.594 1.503 48.367 8.352 84.863 50.535 84.863 100.957zm0 0" fill="#5f6c75"/><path d="M306.953 165.035c0 50.442-36.508 92.613-84.863 100.957-48.238-8.312-84.906-50.351-84.906-100.957 0-50.613 36.68-92.633 84.906-100.957 48.367 8.352 84.863 50.535 84.863 100.957zm0 0" fill="#7e8b96"/><path d="M264.3 165.035c0 8.715-7.066 15.781-15.78 15.781-8.715 0-15.778-7.066-15.778-15.78s7.063-15.782 15.778-15.782c8.714 0 15.78 7.066 15.78 15.781zm0 0M176.242 165.035c0 8.715-7.062 15.781-15.777 15.781s-15.781-7.066-15.781-15.78 7.066-15.782 15.78-15.782 15.778 7.066 15.778 15.781zm0 0" fill="#4e5a61"/><path d="M343.129 319.559v20.214c0 3.649-3.004 6.63-6.652 6.63h-57.004c-3.645 0-6.649-2.981-6.649-6.63V319.56c0-3.657 3.004-6.641 6.649-6.641h57.004c3.648 0 6.652 2.984 6.652 6.64zm0 0M239.64 319.559v20.214c0 3.649-2.992 6.63-6.648 6.63h-57.004c-3.648 0-6.64-2.981-6.64-6.63V319.56c0-3.657 2.992-6.641 6.64-6.641h57.004c3.656 0 6.649 2.984 6.649 6.64zm0 0M136.156 319.559v20.214c0 3.649-2.992 6.63-6.64 6.63H72.5c-3.648 0-6.64-2.981-6.64-6.63V319.56c0-3.657 2.992-6.641 6.64-6.641h57.016c3.648 0 6.64 2.984 6.64 6.64zm0 0" fill="#7e8b96"/><g fill="#5f6c75"><path d="M343.129 334.676v5.097c0 3.649-3.004 6.63-6.652 6.63h-57.004c-3.645 0-6.649-2.981-6.649-6.63v-5.097c0-3.66 3.004-6.64 6.649-6.64h57.004c3.648 0 6.652 2.98 6.652 6.64zm0 0M239.64 334.676v5.097c0 3.649-2.992 6.63-6.648 6.63h-57.004c-3.648 0-6.64-2.981-6.64-6.63v-5.097c0-3.66 2.992-6.64 6.64-6.64h57.004c3.656 0 6.649 2.98 6.649 6.64zm0 0M136.156 334.676v5.097c0 3.649-2.992 6.63-6.64 6.63H72.5c-3.648 0-6.64-2.981-6.64-6.63v-5.097c0-3.66 2.992-6.64 6.64-6.64h57.016c3.648 0 6.64 2.98 6.64 6.64zm0 0"/></g><path d="M504.414 402.14c0 51.423-38.191 94.098-87.707 101.13a100.7 100.7 0 0 1-14.45 1.027c-56.339 0-102.167-45.828-102.167-102.156 0-56.336 45.828-102.168 102.168-102.168 4.906 0 9.734.343 14.449 1.03 49.516 7.032 87.707 49.708 87.707 101.138zm0 0" fill="#1ab975"/><path d="M504.414 402.14c0 51.423-38.191 94.098-87.707 101.13-49.516-7.024-87.727-49.7-87.727-101.13s38.211-94.113 87.727-101.136c49.516 7.031 87.707 49.707 87.707 101.137zm0 0" fill="#1ed688"/><path d="M401.43 456.11c-8.551 0-15.504-6.954-15.504-15.505 0-8.546 6.953-15.503 15.504-15.503 8.547 0 15.504 6.957 15.504 15.503 0 8.551-6.957 15.504-15.504 15.504zm0 0" fill="#106e46"/><path d="M314.512 165.035c0-60.664-49.356-110.02-110.02-110.02-88.492 0-140.066 99.333-91.191 171.598a7.558 7.558 0 0 0 10.496 2.024 7.558 7.558 0 0 0 2.027-10.492C83.86 156.109 127.88 70.133 204.492 70.133c52.332 0 94.906 42.574 94.906 94.902 0 80.235-93.453 123.496-154.73 73.688a7.551 7.551 0 0 0-10.629 1.097 7.555 7.555 0 0 0 1.098 10.63c71.043 57.753 179.375 7.597 179.375-85.415zm0 0"/><path d="M271.855 165.035c0-12.867-10.468-23.336-23.335-23.336-12.868 0-23.336 10.469-23.336 23.336 0 12.867 10.468 23.336 23.336 23.336 12.867 0 23.335-10.469 23.335-23.336zm-31.558 0c0-4.535 3.687-8.222 8.223-8.222 4.535 0 8.222 3.687 8.222 8.222s-3.687 8.223-8.222 8.223c-4.536 0-8.223-3.688-8.223-8.223zm0 0M160.46 188.371c12.868 0 23.337-10.469 23.337-23.336 0-12.867-10.469-23.336-23.336-23.336-12.867 0-23.34 10.469-23.34 23.336 0 12.867 10.473 23.336 23.34 23.336zm0-31.559c4.536 0 8.224 3.688 8.224 8.223s-3.688 8.223-8.223 8.223-8.223-3.688-8.223-8.223 3.688-8.222 8.223-8.222zm0 0M175.988 305.363c-7.828 0-14.199 6.367-14.199 14.196v20.214c0 7.829 6.371 14.188 14.2 14.188h57.003c7.84 0 14.207-6.36 14.207-14.188V319.56c0-7.829-6.367-14.196-14.207-14.196zm56.098 33.485h-55.18v-18.371h55.18zm0 0M72.5 305.363c-7.828 0-14.195 6.367-14.195 14.196v20.214c0 7.829 6.367 14.188 14.195 14.188h57.016c7.828 0 14.195-6.36 14.195-14.188V319.56c0-7.829-6.367-14.196-14.195-14.196zm56.098 33.485h-55.18v-18.371h55.18zm0 0"/><path d="M488.293 334.11c-2.59-3.274-7.348-3.82-10.621-1.231-3.266 2.59-3.82 7.348-1.23 10.613 48.617 61.375 5.113 153.242-74.184 153.242-49.86 0-90.84-38.761-94.367-87.746-5.657-79.488 83.57-129.492 148.207-84.601 3.425 2.386 8.14 1.531 10.52-1.895a7.536 7.536 0 0 0-1.895-10.512c-16.567-11.515-35.711-18.148-55.735-19.355V48.539C408.988 21.777 387.215 0 360.441 0h-103.89a7.547 7.547 0 0 0-7.559 7.559 7.551 7.551 0 0 0 7.559 7.554h103.89c18.43 0 33.434 14.996 33.434 33.426v244.195a108.806 108.806 0 0 0-48.61 15.68 14.11 14.11 0 0 0-8.788-3.05h-57.004c-7.828 0-14.207 6.366-14.207 14.195v20.214c0 7.829 6.379 14.188 14.207 14.188h24.214a108.607 108.607 0 0 0-10.84 39.914H48.552c-18.442 0-33.438-15.004-33.438-33.434V48.54c0-18.43 14.996-33.426 33.438-33.426h177.77a7.559 7.559 0 0 0 7.558-7.554A7.554 7.554 0 0 0 226.32 0H48.55C21.778 0 0 21.777 0 48.54V360.44c0 26.762 21.777 48.547 48.55 48.547h244.204c3.539 57.328 51.3 102.864 109.504 102.864 91.918 0 142.472-106.512 86.035-177.743zm-207.91 4.738v-18.371h48.668a110.332 110.332 0 0 0-16.375 18.37zm0 0"/><path d="M476.93 397.96a7.56 7.56 0 0 0 3.125-10.222c-32.844-61.734-120.696-62.883-155.47-2.633a7.559 7.559 0 0 0 13.095 7.555c13.148-22.785 37.64-36.937 63.918-36.937 27.328 0 52.277 14.988 65.113 39.113 1.957 3.687 6.535 5.082 10.219 3.125zm0 0"/><path d="M459.004 413.52a7.558 7.558 0 0 0 3.39-10.137c-24.726-49.57-94.683-50.371-120.812-1.946a7.56 7.56 0 0 0 3.066 10.243c3.672 1.984 8.258.61 10.239-3.063 9.273-17.195 27.129-27.875 46.597-27.875 20.184 0 38.34 11.262 47.383 29.39 1.867 3.743 6.406 5.247 10.137 3.388zm0 0"/><path d="M440.574 429.5a7.56 7.56 0 0 0 3.688-10.031c-16.512-35.711-67.41-36.934-85.133-1.121a7.555 7.555 0 0 0 3.422 10.125 7.555 7.555 0 0 0 10.125-3.422c12.062-24.367 46.64-23.524 57.867.758a7.56 7.56 0 0 0 10.031 3.691zm0 0"/><path d="M401.43 417.543c-12.72 0-23.063 10.344-23.063 23.059 0 12.718 10.344 23.062 23.063 23.062 12.715 0 23.062-10.344 23.062-23.062 0-12.715-10.347-23.059-23.062-23.059zm0 31.008c-4.383 0-7.95-3.567-7.95-7.95 0-4.378 3.567-7.945 7.95-7.945 4.382 0 7.945 3.567 7.945 7.946 0 4.382-3.563 7.949-7.945 7.949zm0 0"/></svg>