<svg height="512pt" viewBox="0 0 512 511" width="512pt" xmlns="http://www.w3.org/2000/svg"><path d="M443.8 504.555H68.2c-33.49 0-60.638-27.149-60.638-60.637V68.695c0-33.484 27.149-60.633 60.637-60.633h375.602c33.488 0 60.633 27.149 60.633 60.633v375.227c.003 33.484-27.145 60.633-60.633 60.633zm0 0" fill="#a6e0ec"/><path d="M68.2 479.348c-19.536 0-35.43-15.895-35.43-35.43V68.695c0-19.53 15.894-35.425 35.43-35.425h375.6c19.536 0 35.427 15.894 35.427 35.425v375.227c0 19.531-15.891 35.426-35.426 35.426zm0 0" fill="#44bfd7"/><path d="M451.73 256.309c0 107.925-87.804 195.73-195.73 195.73S60.27 364.234 60.27 256.31c0-107.926 87.804-195.735 195.73-195.735s195.73 87.809 195.73 195.735zm0 0" fill="#dce6eb"/><path d="M420.602 256.309c0 83.375-62.301 152.46-142.793 163.16A166.038 166.038 0 0 1 256 420.91c-90.766 0-164.602-73.836-164.602-164.601S165.234 91.707 256 91.707c7.39 0 14.672.496 21.809 1.441 80.492 10.7 142.793 79.786 142.793 163.16zm0 0" fill="#a2abb8"/><path d="M420.602 256.309c0 83.375-62.301 152.46-142.793 163.16-80.5-10.7-142.813-79.785-142.813-163.16S197.31 103.848 277.81 93.149c80.492 10.699 142.793 79.785 142.793 163.16zm0 0" fill="#b9c3cd"/><g fill="#2cb3cd"><path d="M298.934 180.61l-17.403 75.699h-52.34l-16.214-76.196a26.487 26.487 0 0 1 .496-12.996l8.257-28.09c4.426-15.054 18.239-25.39 33.926-25.39 5.215 0 10.227 1.14 14.75 3.226 2.168.989 4.215 2.2 6.133 3.602a35.28 35.28 0 0 1 12.824 17.836l9.004 28.351a26.544 26.544 0 0 1 .567 13.957zm0 0"/><path d="M269.398 279.527l-57.875 52.141a26.558 26.558 0 0 1-11.492 6.07l-21.054 5.102-7.41 1.793c-15.243 3.691-31.106-3.106-38.95-16.688a35.309 35.309 0 0 1-4.738-17.683 35.28 35.28 0 0 1 9.246-23.836l20.043-21.98c3.2-3.5 7.281-6.079 11.809-7.473l74.257-22.778 4.438 7.684zm0 0"/><path d="M379.727 327.34a35.372 35.372 0 0 1-30.622 17.695 35.29 35.29 0 0 1-7.582-.824l-29.058-6.383a26.476 26.476 0 0 1-12.375-6.496l-56.856-52.914 14.813-25.66 11.351-19.668 74.098 24.055a26.637 26.637 0 0 1 11.012 6.925l20.195 21.196a35.298 35.298 0 0 1 9.649 21.636 35.287 35.287 0 0 1-4.625 20.438zm0 0"/></g><path d="M384.352 306.902a35.387 35.387 0 0 1-23.875 9.278c-2.512 0-5.051-.274-7.582-.828l-29.047-6.383a26.42 26.42 0 0 1-12.371-6.492l-53.43-49.72 11.351-19.667 74.098 24.055a26.637 26.637 0 0 1 11.012 6.925l20.195 21.196a35.298 35.298 0 0 1 9.649 21.636zm0 0" fill="#60c8dd"/><path d="M298.934 180.61l-17.403 75.699h-22.847l-16.215-76.196a26.487 26.487 0 0 1 .496-12.996l8.258-28.09a35.294 35.294 0 0 1 19.183-22.164c2.168.989 4.215 2.2 6.133 3.602a35.28 35.28 0 0 1 12.824 17.836l9.004 28.351a26.544 26.544 0 0 1 .567 13.957zm0 0M269.398 279.527l-57.875 52.141a26.558 26.558 0 0 1-11.492 6.07l-21.054 5.102a35.309 35.309 0 0 1-16.868-14.895 35.269 35.269 0 0 1-4.738-17.683 35.28 35.28 0 0 1 9.246-23.836l20.043-21.98c3.2-3.5 7.281-6.079 11.809-7.473l49.203-15.094zm0 0" fill="#60c8dd"/><path d="M295.504 256.309c0 16.605-10.242 30.812-24.754 36.66a39.386 39.386 0 0 1-14.75 2.844c-21.82 0-39.504-17.684-39.504-39.504 0-21.82 17.684-39.504 39.504-39.504 5.21 0 10.195 1.007 14.75 2.843 14.512 5.848 24.754 20.055 24.754 36.66zm0 0" fill="#a6e0ec"/><path d="M295.504 256.309c0 16.605-10.242 30.812-24.754 36.66-14.52-5.836-24.762-20.055-24.762-36.66 0-16.606 10.242-30.825 24.762-36.66 14.512 5.847 24.754 20.054 24.754 36.66zm0 0" fill="#def4f8"/><path d="M443.8.5H68.2C30.59.5 0 31.09 0 68.7v375.218c0 37.61 30.59 68.2 68.2 68.2h375.6c37.61 0 68.2-30.59 68.2-68.2V68.699C512 31.09 481.41.5 443.8.5zm53.075 443.418c0 29.27-23.805 53.074-53.074 53.074H68.199c-29.27 0-53.074-23.804-53.074-53.074V68.699c0-29.27 23.805-53.074 53.074-53.074h375.602c29.27 0 53.074 23.805 53.074 53.074zm0 0"/><path d="M443.8 25.707H68.2c-23.708 0-42.993 19.285-42.993 42.988v375.227c0 23.703 19.285 42.988 42.992 42.988h375.602c23.707 0 42.988-19.285 42.988-42.988V139.008a7.559 7.559 0 0 0-7.562-7.563 7.558 7.558 0 0 0-7.559 7.563v304.914c0 15.363-12.5 27.863-27.867 27.863H68.199c-15.367 0-27.867-12.5-27.867-27.863V68.695c0-15.363 12.5-27.863 27.867-27.863h375.602c15.363 0 27.867 12.5 27.867 27.863v40.063a7.56 7.56 0 1 0 15.121 0V68.695c0-23.703-19.281-42.988-42.988-42.988zm0 0"/><path d="M292.5 56.297C167.36 33.52 52.707 130.113 52.707 256.309c0 112.097 91.195 203.293 203.293 203.293s203.293-91.196 203.293-203.293c0-86.352-54.832-163.512-136.445-192.004-3.938-1.38-8.254.703-9.633 4.648a7.559 7.559 0 0 0 4.648 9.629c75.547 26.375 126.305 97.797 126.305 177.727 0 103.757-84.41 188.168-188.168 188.168S67.828 360.067 67.828 256.309c0-116.805 106.125-206.22 221.965-185.133 4.105.746 8.047-1.977 8.793-6.086a7.558 7.558 0 0 0-6.086-8.793zm0 0"/><path d="M419.781 274.504c4.156.258 7.762-2.899 8.028-7.063C434.195 168.047 355.07 84.145 256 84.145c-94.93 0-172.164 77.234-172.164 172.164 0 143.988 166.734 223.535 278.652 135.195 29.711-23.45 51.164-56.43 60.41-92.86a7.563 7.563 0 0 0-5.468-9.19c-4.043-1.024-8.164 1.421-9.192 5.468-17.691 69.73-80.297 118.43-152.238 118.43-86.594 0-157.04-70.45-157.04-157.043 0-86.59 70.446-157.043 157.04-157.043 90.098 0 162.531 76.226 156.719 167.207-.27 4.168 2.894 7.761 7.062 8.03zm0 0"/><path d="M188.113 356.996a7.562 7.562 0 0 0 2.672 10.356c39.094 23.046 89.23 24.34 130.488-.055 0 0 .004 0 .004-.004 8.684-4.719 1.508-18.469-7.476-13.148-35.465 21.082-79.813 21.12-115.336.175-3.594-2.12-8.23-.922-10.352 2.676zm0 0M377.238 264.79a7.565 7.565 0 0 0 7.555-7.31c1.504-44.523-23.977-89.843-65.555-113.351a7.565 7.565 0 0 0-10.304 2.86 7.562 7.562 0 0 0 2.863 10.304c37.023 20.937 59.18 60.988 57.879 99.68a7.562 7.562 0 0 0 7.562 7.816zm0 0M202.742 147.152c-2.066-3.629-6.687-4.898-10.312-2.832-42.715 24.313-67.223 71.368-65.207 113.621a7.56 7.56 0 0 0 7.547 7.2c4.32 0 7.765-3.602 7.558-7.922-1.695-35.75 19.23-77.926 57.582-99.754a7.563 7.563 0 0 0 2.832-10.313zm0 0M275.895 343.566a7.558 7.558 0 0 0 5.699-9.046 7.558 7.558 0 0 0-9.051-5.7c-10.719 2.434-22.098 2.453-32.82.055a7.561 7.561 0 0 0-3.3 14.758 89.967 89.967 0 0 0 39.472-.067zm0 0M310.91 195.117a7.563 7.563 0 0 0-.402 10.688c7.508 8.09 13.203 17.879 16.465 28.312a7.565 7.565 0 0 0 9.476 4.957c3.985-1.246 6.203-5.488 4.957-9.476-3.933-12.567-10.781-24.352-19.812-34.078a7.558 7.558 0 0 0-10.684-.403zm0 0M190.082 195.871c-8.937 9.723-15.707 21.488-19.59 34.035a7.56 7.56 0 0 0 4.992 9.457c3.989 1.235 8.227-1 9.457-4.988 6.547-21.172 17.473-26.703 18.286-32.445 1.046-7.508-8.262-11.543-13.145-6.059zm0 0"/><path d="M379.313 340.176c16.855-16.73 16.613-43.598.867-60.121l-20.196-21.207c-8.32-8.7-12.703-8.391-62.402-24.559h-.012a44.034 44.034 0 0 0-2.316-3.914l11.047-48.063c3.277-14.3-3.235-22.664-9.727-46.3-5.687-17.907-22.133-29.938-40.918-29.938-18.914 0-35.851 12.676-41.187 30.824-6.434 25.32-11.766 31.414-8.89 44.79l10.566 49.624a43.113 43.113 0 0 0-2.239 3.973l-47.148 14.461c-13.012 3.992-17.145 12.762-22.059 17.152l-13.16 14.426c-28.406 31.117.781 80.512 41.813 70.66 27.128-6.601 34.53-6.836 43.234-14.703l37.68-33.945c.398 0 1.043.117 4.586-.05 6.28 5.843 31.921 29.706 36.086 33.585 8.656 8.063 14.25 7.973 44.96 14.719 14.329 3.144 29.2-1.2 39.414-11.414zM228.976 141.164c7.66-26.035 44.84-26.848 53.18-.574 7.636 26.324 11.32 29.969 9.406 38.324l-8.883 38.648c-16.192-11.195-37.77-11.128-53.922.391l-8.39-39.414c-1.669-7.793 1.679-11.715 8.609-37.375zm-30.73 189.223c-30.618 7.386-30.587 7.707-35.18 7.664-24.063-.227-36.52-28.836-20.356-46.535 19.934-21.403 21.21-25.07 28.484-27.313l37.89-11.613c-1.608 19.605 9.345 38.234 27.306 46.5-32.106 28.8-31.703 29.738-38.145 31.297zm50.987-42.852l-.011-.012c-17.895-3.878-28.97-22.12-23.977-39.894l.012-.012c6.617-23.394 36.351-31.308 53.629-13.57v.008a31.76 31.76 0 0 1 7.531 12.504v.011c7.469 23.235-13.02 46.11-37.184 40.965zm27 11.262c17.79-8.508 28.528-27.274 26.621-46.895l38.313 12.434c7.602 2.473 9.223 7.238 28.062 26.152 18.81 19.73.747 52.227-26.093 46.332-29.953-6.707-29.61-6.218-32.649-7.562-5.058-2.235-4.691-3.383-34.254-30.461zm0 0"/></svg>