<svg height="511pt" viewBox="1 -114 512 511" width="511pt" xmlns="http://www.w3.org/2000/svg"><path d="M255.7 8.164c-73.282-3.715-211.345 100.91-245.177 127.5-3.941 3.094-3.941 9.055 0 12.152 33.832 26.59 171.895 131.211 245.176 127.496.2-.011.399-.011.602 0 73.281 3.715 211.344-100.906 245.176-127.496 3.941-3.097 3.941-9.058 0-12.152C467.645 109.074 329.582 4.45 256.3 8.164a5.15 5.15 0 0 1-.602 0zm0 0" fill="#def4f8"/><path d="M338.059 247.121a134.634 134.634 0 0 1-8.282 5.953 141.847 141.847 0 0 1-6.855 4.25 132.354 132.354 0 0 1-45.106 16.203c-18.253 3.02-36.851 2.16-54.562-2.32a130.86 130.86 0 0 1-15.137-4.781c-25.078-9.598-47.488-26.824-63.453-50.91-12.16-18.368-19.195-38.641-21.434-59.137a126.64 126.64 0 0 1-.789-15.137c.192-43.078 21.172-85.258 59.782-110.84 29.234-19.363 63.312-25.73 95.39-20.453 35.39 5.801 68.348 25.762 89.723 58.012a134.413 134.413 0 0 1 13.723 26.812 133.077 133.077 0 0 1 4.683 15.137c12.281 50.055-5.347 104.324-47.683 137.211zm0 0" fill="#2cb3cd"/><path d="M338.059 247.121a134.634 134.634 0 0 1-8.282 5.953 141.847 141.847 0 0 1-6.855 4.25 132.354 132.354 0 0 1-45.106 16.203 133.698 133.698 0 0 1-11.16-2.32 130.86 130.86 0 0 1-15.136-4.781c-25.079-9.598-47.489-26.824-63.454-50.91-12.16-18.368-19.195-38.641-21.433-59.137a126.64 126.64 0 0 1-.79-15.137c.192-43.078 21.173-85.258 59.782-110.84 16.227-10.746 33.945-17.488 51.988-20.453 35.39 5.801 68.348 25.762 89.723 58.012a134.413 134.413 0 0 1 13.723 26.812 133.077 133.077 0 0 1 4.683 15.137c12.281 50.055-5.347 104.324-47.683 137.211zm0 0" fill="#44bfd7"/><g fill="#269ab1"><path d="M330.496 102.34c0 10.187-8.258 18.445-18.445 18.445-10.184 0-18.442-8.258-18.442-18.445 0-10.184 8.258-18.442 18.442-18.442 10.187 0 18.445 8.258 18.445 18.442zm0 0M299.41 167.254c0 10.187-8.258 18.445-18.445 18.445-10.184 0-18.442-8.258-18.442-18.445s8.258-18.445 18.442-18.445c10.187 0 18.445 8.257 18.445 18.445zm0 0M252.578 63.184c0 10.187-8.258 18.445-18.445 18.445-10.184 0-18.442-8.258-18.442-18.445s8.258-18.442 18.442-18.442c10.187 0 18.445 8.254 18.445 18.442zm0 0M234.133 201.816c0 10.184-8.258 18.442-18.442 18.442-10.187 0-18.445-8.258-18.445-18.442 0-10.187 8.258-18.445 18.445-18.445 10.184 0 18.442 8.258 18.442 18.445zm0 0"/></g><path d="M506.152 129.71C443.48 80.458 331.598.5 251.812.5 176.133.5 44.415 99.398 5.845 129.715c-7.785 6.12-7.801 17.91.004 24.05 55.382 43.528 179.879 132.54 250.097 129.11.317 0 1.723.102 4.243.102 37.851 0 93.789-24.16 166.261-71.817a7.567 7.567 0 0 0 2.168-10.48c-2.297-3.493-6.992-4.465-10.484-2.164-18.48 12.152-35.918 22.754-52.223 31.785 41.067-50.899 42.195-124.574.035-177.043 57.371 31.855 131.868 87.8 130.852 88.605-9.55 7.508-29.238 22.657-53.742 39.754a7.573 7.573 0 0 0-1.875 10.54 7.572 7.572 0 0 0 10.539 1.874c24.812-17.312 44.754-32.66 54.433-40.27 7.786-6.12 7.805-17.906 0-24.05zM372.91 94.774h-35.972c-3.25-10.664-13.176-18.445-24.887-18.445-14.34 0-26.012 11.672-26.012 26.012 0 14.344 11.668 26.012 26.012 26.012 11.71 0 21.637-7.778 24.887-18.442h41c11.875 45.45-2.473 95.383-39.872 127.434v-70.09c0-4.18-3.39-7.57-7.57-7.57h-24.644c-3.25-10.66-13.172-18.442-24.887-18.442-14.34 0-26.012 11.668-26.012 26.012s11.672 26.012 26.012 26.012c11.71 0 21.637-7.782 24.887-18.446h17.078v73.64c-31.274 19.626-67.453 23.595-99.672 14.946V226.7c10.664-3.25 18.445-13.172 18.445-24.883 0-14.343-11.668-26.011-26.012-26.011s-26.011 11.668-26.011 26.011c0 11.711 7.78 21.633 18.441 24.883v31.594c-43.219-17.734-72.113-57.508-77.273-101.914h103.285a7.57 7.57 0 0 0 7.57-7.57V88.07c10.664-3.25 18.445-13.175 18.445-24.886 0-14.344-11.671-26.012-26.015-26.012-14.34 0-26.012 11.668-26.012 26.012 0 11.71 7.781 21.636 18.445 24.886v53.172h-96.558a126.708 126.708 0 0 1 4.558-33.086 7.564 7.564 0 0 0-5.28-9.308 7.567 7.567 0 0 0-9.31 5.277c-11.734 42.512-3.331 89.496 26.079 126.094-57.36-31.848-131.871-87.809-130.852-88.61 16.168-12.707 72.64-56.03 130.836-88.343a139.531 139.531 0 0 0-14.156 21.254 7.562 7.562 0 0 0 3.058 10.253 7.567 7.567 0 0 0 10.258-3.058c9.746-18.035 23.996-33.598 41.211-45.004 66.356-43.965 156.653-16.004 186.5 58.062zm-49.984 7.567c0 5.996-4.88 10.875-10.875 10.875-5.996 0-10.875-4.88-10.875-10.875s4.879-10.875 10.875-10.875 10.875 4.879 10.875 10.875zm-31.086 64.914c0 5.996-4.875 10.875-10.875 10.875-5.996 0-10.875-4.879-10.875-10.875s4.879-10.875 10.875-10.875c6 0 10.875 4.879 10.875 10.875zM215.69 212.69c-5.996 0-10.875-4.879-10.875-10.875s4.875-10.875 10.875-10.875c5.997 0 10.875 4.88 10.875 10.875s-4.878 10.875-10.875 10.875zm7.567-149.507c0-5.996 4.879-10.875 10.875-10.875 6 0 10.875 4.879 10.875 10.875s-4.875 10.875-10.875 10.875c-5.996 0-10.875-4.88-10.875-10.875zm0 0"/></svg>