<svg height="511pt" viewBox="-41 1 511 511.999" width="511pt" xmlns="http://www.w3.org/2000/svg"><path d="M241.457 494.332a317.825 317.825 0 0 1-21.2 9.09 15.358 15.358 0 0 1-11.034 0C15.75 428.594 6.96 214.632 8.148 157.828c.16-7.71 6.102-14.004 13.782-14.707 93.39-8.488 154.988-88.71 180.078-128.547 5.898-9.37 19.566-9.37 25.469 0a360.804 360.804 0 0 0 13.98 20.598c30.582 41.988 86.918 100.75 166.094 107.95 7.68.702 13.62 6.995 13.781 14.706 1.148 54.652-6.945 254.781-179.875 336.504zm0 0" fill="#169b62"/><path d="M241.457 494.332C68.52 412.609 60.426 212.48 61.574 157.828c.16-7.71 6.11-14.004 13.781-14.707 79.176-7.2 135.508-65.96 166.102-107.95 30.582 41.99 86.918 100.75 166.094 107.95 7.68.703 13.62 6.996 13.781 14.707 1.148 54.652-6.945 254.781-179.875 336.504zm0 0" fill="#1ab975"/><path d="M220.09 175.84v97.906c0 7.543-6.13 13.668-13.668 13.668-7.531 0-13.664-6.125-13.664-13.668V175.84c0-18.992-15.45-34.438-34.438-34.438h-.414c-18.793.227-34.015 15.586-34.015 34.438v66.492c0 7.543-6.133 13.668-13.664 13.668-7.54 0-13.665-6.125-13.665-13.668V175.84c0-34.063 27.708-61.77 61.758-61.77a61.54 61.54 0 0 1 19.856 3.27c24.344 8.297 41.914 31.383 41.914 58.5zm0 0" fill="#def4f8"/><path d="M332.918 235.918v158.66c0 6.305-5.105 11.406-11.406 11.406h-142.75c-6.301 0-11.403-5.101-11.403-11.406v-158.66c0-6.305 5.102-11.418 11.403-11.418h142.75c6.3 0 11.406 5.113 11.406 11.418zm0 0" fill="#a6e0ec"/><path d="M321.512 224.5H210.898c-6.304 0-11.418 5.113-11.418 11.418v117.57c0 28.992 23.508 52.496 52.508 52.496h69.524c6.3 0 11.406-5.101 11.406-11.406v-158.66c0-6.305-5.105-11.418-11.406-11.418zm0 0" fill="#c2eaf2"/><path d="M274.398 298.191c0 8.09-3.957 15.25-10.035 19.66a5.24 5.24 0 0 0-1.16 1.133 5.894 5.894 0 0 0-1.262 3.664v22.114c0 6.879-5.964 12.43-12.976 11.742-6.11-.594-10.633-5.977-10.633-12.11v-21.746c0-1.91-.934-3.71-2.477-4.843-6.617-4.817-10.699-12.89-9.878-21.871 1.066-11.782 10.78-21.215 22.601-21.954 5.41-.335 10.469 1.094 14.656 3.801 6.715 4.297 11.164 11.836 11.164 20.41zm0 0" fill="#60c8dd"/><path d="M158.324 106.527c-38.515 0-69.308 31.293-69.308 69.309v66.504c0 11.695 9.511 21.21 21.21 21.21 11.7 0 21.223-9.515 21.223-21.21v-66.504c0-14.816 12.059-26.887 26.875-26.887h.332c14.64.18 26.547 12.239 26.547 26.887v41.113h-6.441c-10.45 0-18.957 8.508-18.957 18.965v158.664c0 10.45 8.507 18.957 18.957 18.957h142.746c10.46 0 18.957-8.508 18.957-18.957V235.914c0-10.457-8.496-18.965-18.957-18.965h-93.871v-41.113c0-38.223-31.086-69.309-69.313-69.309zm.426 27.32h-.426c-23.14 0-41.976 18.837-41.976 41.989v66.504c0 3.36-2.75 6.11-6.121 6.11-3.372 0-6.11-2.75-6.11-6.11v-66.504c0-29.672 24.016-54.211 54.207-54.211 29.899 0 54.211 24.324 54.211 54.21v41.114h-12.23v-41.113c0-22.871-18.606-41.707-41.555-41.988zm162.758 98.204a3.863 3.863 0 0 1 3.855 3.863v158.664a3.861 3.861 0 0 1-3.855 3.856H178.762a3.861 3.861 0 0 1-3.856-3.856V235.914a3.863 3.863 0 0 1 3.856-3.863zm0 0"/><path d="M230.785 323.438v21.32c0 5.437 2.317 10.66 6.363 14.324 12.375 11.227 32.344 2.555 32.344-14.695v-20.95c23.39-17.914 11.703-55.199-17.324-56.988-31.465-1.984-46.156 37.875-21.383 56.988zm20.45-41.918c15.527.96 21.355 21.011 8.726 30.187-3.484 2.559-5.566 6.645-5.566 10.945v21.735c0 3.949-4.266 6.074-7.098 3.511a4.178 4.178 0 0 1-1.41-3.14v-22.106c0-4.48-2.235-8.543-5.535-10.914a16.768 16.768 0 0 1-6.926-13.55c0-9.68 8.148-17.258 17.808-16.668zm0 0M142.27 458.133C50.883 389.793 13.117 269.398 15.7 157.977c.077-3.836 3.05-6.985 6.905-7.336 15.614-1.422 31.176-4.864 46.258-10.239 3.926-1.402 5.969-5.73 4.57-9.656a7.549 7.549 0 0 0-9.644-4.57c-13.883 4.953-28.2 8.125-42.543 9.422C9.72 136.645.84 146.14.598 157.664c-1.008 45.281 5.664 99.524 20.84 147.965 21.996 70.195 59.605 125.574 111.78 164.594a7.527 7.527 0 0 0 4.52 1.5c7.25 0 10.325-9.25 4.532-13.59zm0 0M417.406 227.398c-4.129-.613-7.953 2.247-8.558 6.372-13.348 91.207-57.38 210.812-191.32 262.605a7.709 7.709 0 0 1-5.575 0c-15.945-6.16-31.18-13.54-45.281-21.938a7.55 7.55 0 0 0-10.348 2.63 7.544 7.544 0 0 0 2.625 10.347c14.828 8.82 30.824 16.582 47.555 23.043a22.758 22.758 0 0 0 16.473 0c117.75-45.523 182.242-147.59 200.812-274.5.606-4.129-2.254-7.953-6.383-8.559zm0 0M428.883 157.664c-.242-11.523-9.121-21.02-20.649-22.066-91.535-8.313-152.43-90.22-174.367-125.04-8.89-14.105-29.422-14.05-38.254 0-16.781 26.649-52.781 75.563-105.308 103.79-3.676 1.984-5.055 6.554-3.082 10.226a7.556 7.556 0 0 0 10.23 3.082c55.578-29.879 93.36-81.148 110.934-109.054 2.949-4.672 9.761-4.668 12.707 0 41.922 66.59 106.476 124.824 185.781 132.039 3.855.351 6.828 3.5 6.906 7.336.301 13.011-.136 29.375-1.539 46.226-.375 4.406 3.113 8.176 7.531 8.176 3.883 0 7.188-2.98 7.508-6.926 1.446-17.285 1.903-34.074 1.602-47.789zm0 0"/></svg>