<svg height="496pt" viewBox="-124 0 496 496" width="496pt" xmlns="http://www.w3.org/2000/svg"><path d="M124.45 216v9.52c0 64.8-29.442 126-80 166.48l-.563-.078c.402-2.48.562-4.961.562-7.442V245.281c0-29.043 11.52-56.8 32-77.281h48zm0 0" fill="#ffeaa7"/><path d="M221.09 424.64l16.476 16.481c-8.16 8.238-19.039 12-29.757 11.598-3.762 10.082-11.442 18.64-22.16 23.12-10.72 4.4-22.16 3.763-31.922-.718-7.36 7.84-17.68 12.879-29.278 12.879-11.601 0-21.922-5.04-29.281-12.879-9.762 4.48-21.2 5.117-31.922.719-10.719-4.48-18.398-13.04-22.156-23.121-10.723.402-21.602-3.36-29.762-11.598l16.48-16.48a56.535 56.535 0 0 0 16.079-32.72l.562.079c50.559-40.48 80-101.68 80-166.48 0 64.8 29.438 126 80 166.48l.559-.078c1.601 12.316 7.199 23.84 16.082 32.719zm0 0" fill="#e6e9ed"/><path d="M205.008 391.922l-.559.078c-50.562-40.48-80-101.68-80-166.48V168h48a109.382 109.382 0 0 1 23.68 35.441 109.081 109.081 0 0 1 8.32 41.84v139.2c0 2.48.16 4.96.559 7.44zm0 0" fill="#fcd770"/><path d="M172.45 136v32h-96v-32zm0 0" fill="#e6e9ed"/><path d="M187.969 51.36a50.026 50.026 0 0 1 8.48 27.84c0 10.878-3.52 21.519-10.082 30.241L172.45 128l-38.082-38.078a111.177 111.177 0 0 1-9.918-11.363c15.438-20.16 24-44.88 24-70.559h32v18.398c0 8.883 2.64 17.524 7.52 24.961zm0 0" fill="#ffeaa7"/><path d="M124.45 78.559c3.038 4 6.32 7.761 9.917 11.363L172.45 128v8h-96v-8l-13.922-18.559C55.97 100.72 52.45 90.078 52.45 79.2a49.995 49.995 0 0 1 8.48-27.84c4.88-7.437 7.52-16.078 7.52-24.96V8h32c0 15.36 3.04 30.398 8.797 44.32 3.844 9.36 8.961 18.16 15.203 26.239zm0 0" fill="#fcd770"/><path d="M226.734 418.977c-9.214-9.215-14.285-21.473-14.285-34.497V245.258c0-30.196-11.336-58.649-32-80.504v-34.09l12.336-16.45c7.52-10.023 11.664-22.437 11.664-34.984a58.161 58.161 0 0 0-9.793-32.343 36.882 36.882 0 0 1-6.207-20.496V0h-48v8c0 19.93-5.64 39.64-16.035 56.559C114.008 47.734 108.45 28.297 108.45 8V0h-48v26.39c0 7.313-2.152 14.41-6.21 20.497a58.157 58.157 0 0 0-9.79 32.343c0 12.54 4.145 24.961 11.664 34.977l12.336 16.457v34.09c-20.664 21.855-32 50.308-32 80.504V384.48c0 13.032-5.074 25.282-14.289 34.497L0 441.145l5.656 5.656c8.176 8.168 18.735 12.969 30.184 13.808 5.16 10.262 13.64 18.184 24.312 22.606 10.688 4.426 22.282 4.824 33.176 1.21C102.031 491.923 112.895 496 124.45 496c11.551 0 22.414-4.078 31.11-11.574 10.898 3.605 22.488 3.207 33.175-1.211 10.672-4.422 19.153-12.344 24.313-22.606 11.45-.832 22.008-5.632 30.183-13.808l5.657-5.656zm-30.285-173.72v129.071c-40.832-38.633-64-91.93-64-148.785V176h36.473c17.719 18.84 27.527 43.273 27.527 69.258zM84.45 144h80v16h-80zm71.735-128h16.265v10.39c0 10.481 3.07 20.633 8.895 29.38a42.164 42.164 0 0 1 7.105 23.46c0 9.098-3 18.114-8.465 25.387l-8.41 11.2L140.04 84.28a109.443 109.443 0 0 1-5.512-5.937C147.191 59.969 154.72 38.266 156.184 16zM60.449 79.23a42.13 42.13 0 0 1 7.11-23.468 52.856 52.856 0 0 0 8.89-29.371V16h16.254c1.906 30.09 14.527 58.105 36.031 79.594L161.137 128H84.449v-2.664L68.91 104.609c-5.46-7.265-8.46-16.28-8.46-25.379zM79.977 176h36.472v49.543c0 56.855-23.168 110.152-64 148.785v-129.07c0-25.985 9.809-50.418 27.528-69.258zM208.09 444.71l-5.8-.222-2.017 5.442c-3.16 8.527-9.425 15.101-17.656 18.504-8.242 3.414-17.32 3.191-25.562-.594l-5.27-2.426-3.945 4.25C141.664 476.328 133.352 480 124.45 480c-8.907 0-17.22-3.672-23.395-10.336l-3.942-4.25-5.273 2.426c-8.254 3.793-17.328 4-25.559.594-8.234-3.41-14.496-9.977-17.656-18.504l-2.016-5.442-5.8.223c-6.274.242-12.282-1.254-17.465-4.297l10.129-10.125c9.304-9.305 15.406-20.945 17.808-33.594 35.934-29.383 61.16-68.488 73.168-112.086 12.008 43.598 37.23 82.703 73.168 112.086 2.399 12.649 8.504 24.297 17.809 33.594l10.125 10.125c-5.192 3.05-11.207 4.547-17.461 4.297zm0 0"/></svg>