<svg height="496pt" viewBox="0 0 496 496" width="496pt" xmlns="http://www.w3.org/2000/svg"><g fill="#cf9e76"><path d="M488 328.8v8.16c0 6.161-1.04 12.24-3.04 18.08-4.241 12.081-12.562 22.48-23.679 29.6L452.72 390c-1.438-3.121-3.438-6-5.918-8.559l-44.403-46.082c-2.957-3.12-6.636-5.359-10.636-6.398L392 328l5.281-2.48c20.399-9.68 33.36-29.52 33.36-51.2 0-5.68 4.8-10.32 10.8-10.32 5.52 0 10.88 1.68 15.278 4.879 9.84 7.121 17.68 16.242 23.043 26.48A72.065 72.065 0 0 1 488 328.801zm0 0M232.238 328.96c-7.597 3.599-9.199 4.88-10.636 6.4l-44.403 46.081c-2.48 2.559-4.48 5.438-5.918 8.559l-8.562-5.36c-11.117-7.12-19.438-17.519-23.68-29.6-2-5.84-3.039-11.919-3.039-18.08v-8.16c0-11.76 2.879-23.198 8.238-33.44 5.364-10.239 13.203-19.36 23.043-26.481 4.399-3.2 9.758-4.879 15.278-4.879 6 0 10.8 4.64 10.8 10.32 0 21.68 12.961 41.52 33.36 51.2L232 328zm0 0M360 159.04v8.16c0 11.76-2.879 23.198-8.238 33.44-5.364 10.239-13.203 19.36-23.043 26.481-4.399 3.2-9.758 4.879-15.278 4.879-6 0-10.8-4.64-10.8-10.32 0-21.68-12.961-41.52-33.36-51.2L264 168l-.238-.96c4-1.04 7.68-3.278 10.636-6.4l44.403-46.081c2.48-2.559 4.48-5.438 5.918-8.559l8.562 5.36c11.117 7.12 19.438 17.519 23.68 29.6 2 5.84 3.039 11.919 3.039 18.08zm0 0M93.602 160.64c1.437 1.52 3.039 2.801 10.636 6.4L104 168l-5.281 2.48c-20.399 9.68-33.36 29.52-33.36 51.2 0 5.68-4.8 10.32-10.8 10.32-5.52 0-10.88-1.68-15.278-4.879-9.84-7.121-17.68-16.242-23.043-26.48A72.065 72.065 0 0 1 8 167.199v-8.16c0-6.16 1.04-12.238 3.04-18.078 4.241-12.082 12.562-22.48 23.679-29.602L43.28 106c1.438 3.121 3.438 6 5.918 8.559zm0 0"/></g><path d="M452.719 390c2.16 4.48 3.281 9.441 3.281 14.48 0 8.641-3.281 16.961-9.2 23.04l-33.6 34.96c-5.919 6.079-13.84 9.52-22.16 9.52-6.321 0-12.321-1.922-17.438-5.441l-.082-.079c1.601-3.921 2.48-8.16 2.48-12.402 0-2.238-.238-4.476-.719-6.719l-21.84-102.398 18.48-12.723c4-2.797 8.638-4.238 13.36-4.238 2.239 0 4.399.32 6.48.96 4 1.04 7.68 3.278 10.637 6.4l44.403 46.081c2.48 2.559 4.48 5.438 5.918 8.559zm0 0M171.281 390c1.438-3.121 3.438-6 5.918-8.559l44.403-46.082c1.437-1.52 3.039-2.8 10.636-6.398a21.91 21.91 0 0 1 6.48-.961c4.723 0 9.36 1.441 13.36 4.238l18.48 12.723-21.84 102.398c-1.437 6.403-.718 13.04 1.762 19.121l-.082.079c-5.117 3.52-11.117 5.441-17.359 5.441-8.398 0-16.32-3.441-22.238-9.52l-33.602-34.96C171.281 421.44 168 413.12 168 404.48c0-5.039 1.121-10 3.281-14.48zm0 0M324.719 106c-1.438 3.121-3.438 6-5.918 8.559l-44.403 46.082c-2.957 3.12-6.636 5.359-10.636 6.398a21.91 21.91 0 0 1-6.48.961c-4.723 0-9.36-1.441-13.36-4.238l-18.48-12.723 21.84-102.398c1.437-6.403.718-13.04-1.762-19.121l.082-.079c5.117-3.52 11.117-5.441 17.437-5.441 8.32 0 16.242 3.441 22.16 9.52l33.602 34.96C324.719 74.56 328 82.88 328 91.52c0 5.039-1.121 10-3.281 14.48zm0 0M120 41.922c0 2.238.238 4.476.719 6.719l21.84 102.398-18.48 12.723c-4 2.797-8.638 4.238-13.36 4.238a21.91 21.91 0 0 1-6.48-.96c-7.598-3.599-9.2-4.88-10.637-6.4L49.199 114.56C46.72 112 44.72 109.12 43.281 106 41.121 101.52 40 96.559 40 91.52c0-8.641 3.281-16.961 9.2-23.04l33.6-34.96C88.72 27.44 96.64 24 105.04 24c6.241 0 12.241 1.922 17.358 5.441l.082.079C120.88 33.44 120 37.68 120 41.922zm0 0" fill="#dfb28b"/><path d="M270.559 344.96l.562-2.722C272.88 334 280.641 328 289.68 328h44.64c9.04 0 16.801 6 18.559 14.238l.562 2.723 21.84 102.398c.48 2.243.719 4.48.719 6.72 0 4.241-.879 8.48-2.48 12.401-.961 2.16-2.079 4.239-3.442 6.16-6.719 9.598-18.156 15.36-30.316 15.36h-55.524c-12.16 0-23.597-5.762-30.316-15.36-1.363-1.921-2.48-4-3.442-6.16-2.48-6.082-3.199-12.718-1.761-19.12zm0 0M225.441 151.04l-.562 2.722C223.12 162 215.359 168 206.32 168h-44.64c-9.04 0-16.801-6-18.559-14.238l-.562-2.723-21.84-102.398a31.973 31.973 0 0 1-.719-6.72c0-4.241.879-8.48 2.48-12.401.961-2.16 2.079-4.239 3.442-6.16C132.64 13.761 144.078 8 156.238 8h55.524c12.16 0 23.597 5.762 30.316 15.36 1.363 1.921 2.48 4 3.442 6.16 2.48 6.082 3.199 12.718 1.761 19.12zm0 0" fill="#f0d0b4"/><path d="M495.992 328.77c-.023-25.946-12.969-50.762-34.61-66.372-5.726-4.125-12.816-6.398-19.956-6.398-10.371 0-18.809 8.207-18.809 18.297 0 18.719-11 35.558-28.715 43.95l-4.804 2.273c-7.54-.91-15.364.703-21.739 5.12l-9.953 6.887c-4.765-7.566-13.445-12.527-23.07-12.527h-44.664c-9.633 0-18.305 4.96-23.07 12.527l-9.954-6.886c-6.382-4.418-14.207-6.04-21.746-5.121l-4.789-2.262c-17.722-8.403-28.722-25.242-28.722-43.961 0-10.09-8.438-18.297-18.805-18.297-7.145 0-14.234 2.273-19.961 6.398-21.648 15.61-34.586 40.426-34.61 66.372l-.015 8.167a62.722 62.722 0 0 0 3.52 20.774c4.793 13.715 14.351 25.664 26.937 33.648l3.207 2.04c-.976 3.585-1.664 7.273-1.664 11.097 0 10.793 4.055 20.945 11.434 28.594L205.047 468c7.344 7.625 17.539 12 27.953 12 4.96 0 9.785-1.055 14.328-2.887.031.047.047.102.078.153 8.219 11.726 22 18.734 36.86 18.734h55.468c14.86 0 28.641-7.008 36.86-18.734.031-.051.054-.106.086-.153 4.543 1.832 9.36 2.887 14.32 2.887 10.414 0 20.61-4.375 27.953-12l33.613-34.895C459.946 425.45 464 415.29 464 404.496c0-3.824-.687-7.512-1.672-11.105l3.207-2.04c12.586-7.984 22.153-19.937 26.938-33.648A62.451 62.451 0 0 0 496 336.937zM167.04 377.855c-9.55-6.07-16.809-15.101-20.414-25.43A46.736 46.736 0 0 1 144 336.954l.008-8.168c.015-20.832 10.48-40.793 27.969-53.402C175 273.199 178.762 272 182.574 272c1.524 0 2.809 1.055 2.809 2.297 0 22.512 11.875 42.84 31.32 54.75-.277.273-.605.473-.879.754l-44.39 46.101c-.946.977-1.672 2.106-2.496 3.153zm49.527 79.047L182.953 422c-4.418-4.594-6.953-10.969-6.953-17.504s2.535-12.902 6.953-17.504l44.39-46.097c5.313-5.504 13.985-6.415 20.192-2.11l14.067 9.735-20.723 97.136c-1.184 5.543-1.102 11.246.082 16.735-8.274 3.074-18.016 1.113-24.395-5.489zm146.922 11.188c-5.23 7.453-14.113 11.91-23.754 11.91h-55.468c-9.649 0-18.524-4.457-23.754-11.922-3.985-5.672-5.39-12.445-3.985-19.07l22.418-105.086c.977-4.586 5.489-7.922 10.72-7.922h44.663c5.23 0 9.742 3.336 10.719 7.93L367.465 449c1.414 6.633.008 13.406-3.977 19.09zM441.047 422l-33.613 34.895c-6.372 6.617-16.106 8.57-24.387 5.503 1.183-5.488 1.258-11.199.082-16.742l-20.73-97.12 14.066-9.735c6.207-4.305 14.879-3.395 20.183 2.101l44.391 46.114c4.426 4.57 6.961 10.953 6.961 17.48s-2.535 12.918-6.953 17.504zm36.328-69.566c-3.605 10.328-10.855 19.359-20.414 25.43l-1.89 1.198c-.833-1.054-1.56-2.175-2.497-3.152l-44.398-46.11c-.274-.28-.59-.48-.871-.753 19.449-11.902 31.32-32.23 31.32-54.75 0-1.242 1.285-2.297 2.809-2.297 3.812 0 7.574 1.2 10.597 3.383 17.496 12.61 27.953 32.57 27.969 53.402v8.168c0 5.27-.879 10.488-2.625 15.48zm0 0M128.648 170.36l9.954-6.887c4.765 7.566 13.437 12.527 23.062 12.527h44.664c9.633 0 18.305-4.96 23.07-12.527l9.954 6.886c5.335 3.688 11.543 5.641 17.968 5.641 1.352 0 2.672-.238 4.008-.414l4.567 2.156c17.722 8.403 28.722 25.242 28.722 43.961 0 10.09 8.438 18.297 18.809 18.297 7.14 0 14.23-2.273 19.957-6.398 21.648-15.61 34.586-40.426 34.61-66.372l.007-8.167a62.722 62.722 0 0 0-3.52-20.774c-4.793-13.715-14.351-25.664-26.937-33.648l-3.207-2.04c.984-3.585 1.664-7.273 1.664-11.097 0-10.793-4.055-20.945-11.434-28.594L290.953 28c-10.848-11.246-28.023-14.496-42.234-9.023-.047-.075-.078-.16-.125-.235C240.375 7.008 226.594 0 211.734 0h-55.468c-14.86 0-28.641 7.008-36.86 18.734-.054.075-.078.16-.133.243-14.218-5.473-31.386-2.223-42.234 9.03L43.434 62.903C36.054 70.551 32 80.711 32 91.504c0 3.824.688 7.512 1.672 11.105l-3.207 2.032c-12.586 7.984-22.152 19.933-26.938 33.648A62.53 62.53 0 0 0 0 159.063l.008 8.167c.023 25.946 12.969 50.762 34.61 66.372C40.343 237.727 47.433 240 54.573 240c10.371 0 18.809-8.207 18.809-18.297 0-18.719 11-35.558 28.715-43.95l4.574-2.167c1.336.176 2.656.414 4.008.414 6.425 0 12.632-1.953 17.968-5.64zm200.313-52.215c9.55 6.07 16.809 15.101 20.414 25.43A46.736 46.736 0 0 1 352 159.046l-.008 8.168c-.015 20.832-10.48 40.793-27.969 53.402C321 222.801 317.238 224 313.426 224c-1.524 0-2.809-1.055-2.809-2.297 0-22.52-11.875-42.848-31.328-54.758.277-.273.613-.472.887-.754l44.39-46.093c.946-.977 1.672-2.106 2.504-3.16zm-49.527-79.047l33.613 34.91c4.418 4.578 6.953 10.96 6.953 17.496s-2.535 12.91-6.953 17.504l-44.39 46.097c-5.313 5.504-13.993 6.407-20.192 2.11l-14.067-9.75 20.723-97.137c1.176-5.543 1.102-11.238-.074-16.726 8.273-3.059 18.023-1.106 24.387 5.496zM132.512 27.91c5.23-7.453 14.113-11.91 23.754-11.91h55.468c9.649 0 18.524 4.457 23.754 11.922 3.985 5.672 5.39 12.445 3.985 19.07l-22.418 105.086c-.977 4.586-5.489 7.922-10.72 7.922h-44.663c-5.23 0-9.742-3.336-10.719-7.93L128.527 47c-1.406-6.633 0-13.406 3.985-19.09zM54.953 74l33.613-34.895c6.371-6.617 16.106-8.562 24.387-5.503-1.183 5.488-1.258 11.191-.074 16.742l20.723 97.129-14.067 9.734c-6.207 4.297-14.887 3.395-20.183-2.102L54.96 109C50.535 104.406 48 98.031 48 91.504S50.535 78.594 54.953 74zm2.43 147.703c0 1.242-1.285 2.297-2.809 2.297-3.812 0-7.574-1.2-10.597-3.383-17.497-12.61-27.954-32.57-27.97-53.402L16 159.047c0-5.27.879-10.488 2.625-15.48 3.605-10.329 10.855-19.36 20.414-25.43l1.89-1.2c.833 1.055 1.56 2.176 2.497 3.153l44.398 46.11c.274.28.602.48.88.745-19.446 11.91-31.321 32.239-31.321 54.758zm0 0"/></svg>