<svg height="496pt" viewBox="0 0 496 496" width="496pt" xmlns="http://www.w3.org/2000/svg"><path d="M185.602 320c4.078 7.04 6.398 15.2 6.398 24s-2.32 16.96-6.398 24A48.863 48.863 0 0 1 168 385.602c-7.04 4.078-15.2 6.398-24 6.398s-16.96-2.32-24-6.398A48.863 48.863 0 0 1 102.398 368C98.32 360.96 96 352.8 96 344s2.32-16.96 6.398-24A48.863 48.863 0 0 1 120 302.398c7.04-4.078 15.2-6.398 24-6.398s16.96 2.32 24 6.398A48.863 48.863 0 0 1 185.602 320zM160 344c0-8.8-7.2-16-16-16s-16 7.2-16 16 7.2 16 16 16 16-7.2 16-16zm0 0" fill="#fcd770"/><path d="M159.84 208.96C227.52 216.72 280 274.239 280 344c0 75.121-60.879 136-136 136S8 419.121 8 344c0-69.762 52.48-127.281 120.16-135.04 5.2-.64 10.48-.96 15.84-.96s10.64.32 15.84.96zM234.078 396C242.961 380.719 248 362.96 248 344s-5.121-36.719-13.922-52H234a103.038 103.038 0 0 0-38-38v-.078c-15.281-8.8-33.04-13.922-52-13.922s-36.719 5.121-52 13.922V254a103.038 103.038 0 0 0-38 38h-.078C45.122 307.281 40 325.04 40 344s5.121 36.719 13.922 52H54a103.038 103.038 0 0 0 38 38v.078c15.281 8.8 33.04 13.922 52 13.922s36.719-5.121 52-13.922V434a103.038 103.038 0 0 0 38-38zm0 0M424 329.602c36.48 7.437 64 39.68 64 78.398 0 44.16-35.84 80-80 80s-80-35.84-80-80c0-38.719 27.52-70.96 64-78.398v33.117c-18.64 6.64-32 24.402-32 45.281 0 26.48 21.52 48 48 48s48-21.52 48-48c0-20.879-13.36-38.64-32-45.281zm0 0" fill="#aab2bd"/><g fill="#ef7385"><path d="M368 112v47.04c-10-5.84-20.96-10.08-32.559-12.56L336 144v-32zm0 0"/><path d="M368 159.04c33.52 19.358 56 55.519 56 96.96v144c0 8.8-7.2 16-16 16-4.398 0-8.398-1.762-11.281-4.719C393.762 408.398 392 404.398 392 400V256c0-44.16-35.84-80-80-80H160v-32h152c8 0 15.84.879 23.441 2.48C347.04 148.96 358 153.2 368 159.04zm0 0M160 208l-.16.96c-5.2-.64-10.48-.96-15.84-.96s-10.64.32-15.84.96L128 208V104h32zm0 0"/></g><path d="M408 80c8.8 0 16 7.2 16 16 0 4.398-1.762 8.398-4.719 11.281C416.398 110.238 412.398 112 408 112H296c-8.8 0-16-7.2-16-16 0-4.398 1.762-8.398 4.719-11.281C287.602 81.762 291.602 80 296 80zm0 0M208 8c9.68 0 17.441 8.64 15.762 18.719-1.282 7.84-8.64 13.281-16.64 13.281H112c-4.398 0-8.398 1.762-11.281 4.719C97.762 47.602 96 51.602 96 56c0 8.8 7.2 16 16 16h95.121c8 0 15.36 5.441 16.64 13.281C225.442 95.36 217.68 104 208 104h-96c-13.281 0-25.281-5.36-33.922-14.078C69.36 81.282 64 69.282 64 56c0-26.48 21.52-48 48-48zm0 0" fill="#fcd770"/><path d="M144 320c-13.23 0-24 10.77-24 24s10.77 24 24 24 24-10.77 24-24-10.77-24-24-24zm0 32c-4.406 0-8-3.586-8-8s3.594-8 8-8 8 3.586 8 8-3.594 8-8 8zm0 0"/><path d="M32 344c0 61.762 50.238 112 112 112s112-50.238 112-112-50.238-112-112-112S32 282.238 32 344zm167.36 8h40.234c-.969 11.672-4.067 22.727-8.852 32.848l-34.781-20.078c1.625-4.051 2.758-8.329 3.398-12.77zm0-16c-.641-4.441-1.774-8.719-3.4-12.762l34.782-20.078c4.785 10.121 7.875 21.176 8.852 32.848h-40.235zM184 344c0 22.055-17.945 40-40 40s-40-17.945-40-40 17.945-40 40-40 40 17.945 40 40zm-48 55.36v40.234c-11.672-.969-22.719-4.059-32.848-8.852l20.078-34.781c4.051 1.625 8.329 2.758 12.77 3.398zm16 0c4.441-.641 8.719-1.774 12.762-3.4l20.078 34.782c-10.121 4.785-21.176 7.875-32.848 8.852v-40.235zM88.64 336H48.407c.969-11.672 4.067-22.727 8.852-32.848l34.781 20.078c-1.625 4.051-2.758 8.329-3.398 12.77zm0 16c.641 4.441 1.774 8.719 3.4 12.762L57.257 384.84c-4.793-10.113-7.883-21.168-8.852-32.84zM136 288.64c-4.441.641-8.719 1.774-12.762 3.4l-20.078-34.782c10.121-4.785 21.176-7.875 32.848-8.852v40.235zm16 0v-40.234c11.672.969 22.727 4.067 32.848 8.852l-20.078 34.781c-4.051-1.625-8.329-2.758-12.77-3.398zm-62.719-23.417l20.11 34.832a56.743 56.743 0 0 0-9.336 9.336l-34.832-20.11a96.835 96.835 0 0 1 24.058-24.058zM65.223 398.719l34.832-20.11a56.743 56.743 0 0 0 9.336 9.336l-20.11 34.832a96.835 96.835 0 0 1-24.058-24.058zm133.496 24.058l-20.11-34.832a56.743 56.743 0 0 0 9.336-9.336l34.832 20.11a96.835 96.835 0 0 1-24.058 24.058zm24.058-133.496l-34.832 20.11a57.048 57.048 0 0 0-9.336-9.336l20.11-34.832a96.835 96.835 0 0 1 24.058 24.058zm0 0"/><path d="M432 323.36V256c0-42.633-22.406-80.04-56-101.328V120h32c13.23 0 24-10.77 24-24s-10.77-24-24-24H296c-13.23 0-24 10.77-24 24s10.77 24 24 24h32v17.191c-5.246-.703-10.559-1.191-16-1.191H168v-24h40c7.047 0 13.71-3.078 18.29-8.457 4.565-5.367 6.534-12.488 5.39-19.512C229.816 72.61 219.273 64 207.145 64H112c-4.406 0-8-3.594-8-8s3.594-8 8-8h95.145c12.128 0 22.671-8.61 24.535-20.031 1.144-7.032-.825-14.145-5.39-19.512A24.004 24.004 0 0 0 208 0h-96C81.121 0 56 25.121 56 56s25.121 56 56 56h8v90.168C52.008 213.648 0 272.793 0 344c0 79.398 64.602 144 144 144s144-64.602 144-144c0-71.207-52.008-130.352-120-141.832V184h144c39.695 0 72 32.305 72 72v67.36c-37.45 10.609-64 45.175-64 84.64 0 48.52 39.48 88 88 88s88-39.48 88-88c0-39.465-26.55-74.031-64-84.64zM408 424c13.23 0 24-10.77 24-24v-23.977c9.871 7.426 16 19.184 16 31.977 0 22.055-17.945 40-40 40s-40-17.945-40-40c0-12.793 6.129-24.55 16-31.977V400c0 13.23 10.77 24 24 24zM288 96c0-4.406 3.594-8 8-8h112c4.406 0 8 3.594 8 8s-3.594 8-8 8H296c-4.406 0-8-3.594-8-8zm56 24h16v26.09c-5.152-2.258-10.504-4.106-16-5.625zM72 56c0-22.055 17.945-40 40-40h96a7.966 7.966 0 0 1 6.098 2.824c1.543 1.824 2.175 4.16 1.789 6.582-.606 3.7-4.446 6.594-8.742 6.594H112c-13.23 0-24 10.77-24 24s10.77 24 24 24h95.145c4.296 0 8.136 2.895 8.742 6.602.394 2.421-.239 4.757-1.79 6.582A7.985 7.985 0 0 1 208 96h-96c-22.055 0-40-17.945-40-40zm200 288c0 70.574-57.426 128-128 128S16 414.574 16 344s57.426-128 128-128 128 57.426 128 128zM144 200c-2.703 0-5.336.258-8 .406V112h16v88.406c-2.664-.148-5.297-.406-8-.406zm168-32H168v-16h144c57.344 0 104 46.656 104 104v144c0 4.414-3.594 8-8 8s-8-3.586-8-8V256c0-48.52-39.48-88-88-88zm96 312c-39.695 0-72-32.297-72-72 0-30.734 19.695-57.809 48-67.832v17.383c-19.305 9.203-32 28.722-32 50.441 0 30.871 25.121 56 56 56s56-25.129 56-56c0-21.719-12.695-41.238-32-50.441v-17.383c28.305 10.023 48 37.098 48 67.832 0 39.703-32.305 72-72 72zm0 0"/></svg>