<svg height="496pt" viewBox="0 0 496 496" width="496pt" xmlns="http://www.w3.org/2000/svg"><path d="M460.559 456L456 488H40l-4.559-32zm0 0" fill="#e6e9ed"/><path d="M488 262c0 1.36-.078 2.64-.32 4l-27.121 190H35.44L8.321 266c-.243-1.36-.321-2.64-.321-4 0-12.96 8.8-24.16 21.36-27.36L72 224v168c0 8.8 7.2 16 16 16h112v8c0 4.398 3.602 8 8 8h80c4.398 0 8-3.602 8-8v-8h112c8.8 0 16-7.2 16-16V224l42.64 10.64c6.32 1.598 11.598 5.2 15.36 10s6 10.88 6 17.36zm0 0" fill="#ecc19c"/><path d="M296 408v8c0 4.398-3.602 8-8 8h-80c-4.398 0-8-3.602-8-8v-48c0-4.398 3.602-8 8-8h80c4.398 0 8 3.602 8 8zm0 0M424 224v168c0 8.8-7.2 16-16 16H296v-32h96V216c0-8.8 7.121-16 16-16 .879 0 1.762.078 2.719.238 7.84 1.282 13.281 8.64 13.281 16.64zm0 0M200 376v32H88c-8.8 0-16-7.2-16-16V216c0-8.238 6.238-15.121 14.32-15.922 1.442-.156 2.88-.078 4.399.16 7.84 1.282 13.281 8.64 13.281 16.64V376zm0 0" fill="#fcd770"/><path d="M382.64 209.36C376.8 203.601 368.8 200 360 200H136c-8.8 0-16.8 3.602-22.64 9.36C107.601 215.2 104 223.2 104 232v144h96v-8c0-4.398 3.602-8 8-8h80c4.398 0 8 3.602 8 8v8h96V232c0-8.8-3.602-16.8-9.36-22.64zm0 0" fill="#cf9e76"/><g fill="#fcd770"><path d="M214.238 38c1.922 11.281-4.398 22.64-15.52 26.719-11.198 4.082-23.437-.797-29.116-10.88-.641-1.12-1.122-2.32-1.602-3.519-4.559-12.398 1.84-26.242 14.32-30.718 12.48-4.563 26.239 1.84 30.801 14.32.48 1.36.8 2.719 1.117 4.078zm0 0M158.398 55.84c8.48 10.16 7.204 25.36-2.957 33.84a23.752 23.752 0 0 1-22.96 4.398c-4.083-1.36-7.922-3.84-10.88-7.36-8.48-10.16-7.203-25.277 2.958-33.84 10.16-8.48 25.28-7.116 33.84 2.962zm0 0M437.121 166.64c2.238 13.04-6.48 25.52-19.52 27.84-2.96.56-5.84.48-8.562 0-9.52-1.761-17.437-9.359-19.2-19.52-1.679-9.44 2.4-18.48 9.68-23.679 2.801-2 6.16-3.441 9.762-4.082 13.04-2.32 25.52 6.403 27.84 19.442zm0 0M371.441 52.879c10.16 8.562 11.438 23.68 2.957 33.84-2.398 2.8-5.277 4.96-8.476 6.402-8.16 3.758-18 2.719-25.363-3.441-9.04-7.52-11.04-20.399-5.438-30.32.719-1.2 1.52-2.4 2.48-3.52 8.56-10.078 23.68-11.442 33.84-2.961zm0 0M414.238 104c6.64 11.441 2.723 26.16-8.718 32.8-2.641 1.52-5.52 2.481-8.399 2.962-9.52 1.437-19.281-2.961-24.402-11.762-6.64-11.441-2.719-26.16 8.8-32.8.961-.56 1.922-1.04 2.88-1.438 10.96-4.48 23.84-.242 29.84 10.238zm0 0M313.68 19.602c12.48 4.476 18.879 18.32 14.32 30.718-.879 2.48-2.16 4.64-3.68 6.559-6.242 8-17.039 11.441-27.039 7.84C286.161 60.64 279.84 49.28 281.761 38c.317-1.36.637-2.719 1.118-4.078 4.562-12.48 18.32-18.883 30.8-14.32zm0 0M114.48 95.2c11.52 6.64 15.442 21.359 8.801 32.8-5.12 8.8-14.883 13.2-24.402 11.762a25.771 25.771 0 0 1-8.399-2.961c-11.44-6.64-15.359-21.36-8.718-32.801 6.558-11.441 21.277-15.441 32.718-8.8zm0 0M272 32c0 1.68-.16 3.281-.48 4.879C269.28 47.762 259.602 56 248 56s-21.281-8.238-23.52-19.121c-.32-1.598-.48-3.2-.48-4.879 0-13.281 10.719-24 24-24s24 10.719 24 24zm0 0M96.48 151.281c7.282 5.2 11.36 14.239 9.68 23.68-1.84 10.719-10.398 18.48-20.64 19.758a26.66 26.66 0 0 1-7.122-.239c-13.039-2.32-21.757-14.8-19.52-27.84 2.321-13.038 14.802-21.761 27.84-19.44 3.602.64 6.962 2.081 9.762 4.081zm0 0"/></g><path d="M468.602 226.902L432 217.762v-.899c0-6.297-2.352-12.129-6.176-16.582 5.52-2.312 10.32-6.074 13.84-11.097 4.902-7 6.785-15.496 5.305-23.91-1.489-8.419-6.16-15.754-13.16-20.649-4.856-3.402-10.442-5.234-16.2-5.617 4.168-4 7.27-8.992 8.797-14.719 2.211-8.258 1.074-16.883-3.199-24.281-4.27-7.406-11.168-12.695-19.43-14.903-5.715-1.539-11.593-1.351-17.136.254 2.55-5.183 3.75-10.933 3.23-16.84-.75-8.519-4.766-16.238-11.312-21.718-11.489-9.64-27.766-9.723-39.375-1.266.625-5.742-.215-11.558-2.72-16.918-3.609-7.754-10.023-13.625-18.058-16.547-14.086-5.132-29.414.371-37.43 12.29C275.52 10.397 262.993 0 248 0s-27.52 10.406-30.977 24.352c-8.007-11.918-23.335-17.422-37.43-12.29-8.034 2.922-14.448 8.801-18.058 16.547-2.504 5.368-3.344 11.184-2.719 16.918-11.609-8.449-27.894-8.367-39.367 1.258-6.554 5.496-10.57 13.215-11.312 21.727-.52 5.894.68 11.656 3.23 16.832-5.55-1.617-11.43-1.793-17.137-.254-8.253 2.207-15.16 7.504-19.43 14.902-4.273 7.399-5.41 16.024-3.19 24.281 1.535 5.72 4.62 10.72 8.788 14.711-5.765.383-11.343 2.215-16.191 5.625-7 4.895-11.672 12.23-13.16 20.649-1.488 8.422.394 16.91 5.305 23.91 3.496 5 8.265 8.734 13.746 11.047C66.246 204.575 64 210.113 64 216v1.762l-36.602 9.148C11.273 230.93 0 245.367 0 262c0 1.703.121 3.414.36 5.121L33.062 496h429.875l32.703-228.887c.238-1.699.359-3.41.359-5.113a36.125 36.125 0 0 0-27.398-35.098zM192 400H88c-4.406 0-8-3.586-8-8V216a7.994 7.994 0 0 1 2.824-6.105c1.817-1.543 4.145-2.2 6.574-1.782 3.707.606 6.602 4.438 6.602 8.742V384h96zm163.313-32l-24-24L356 319.312l28 28V368zm-22.625 0h-25.375L320 355.312zm-192 0H112v-20.688l28-28L164.688 344zM176 355.312L188.688 368h-25.375zM114.406 221.72L128.687 236 112 252.688V232c0-3.695.902-7.152 2.406-10.281zM164.687 272L140 296.688 115.312 272 140 247.312zm-13.375-36L176 211.312 200.688 236 176 260.688zM112 291.313L128.688 308 112 324.688zM151.313 308L176 283.312 200.688 308 176 332.688zm36-36L212 247.312 236.688 272 212 296.688zm36-36L248 211.312 272.688 236 248 260.688zM248 283.313L272.688 308 248 332.688 223.312 308zM259.313 272L284 247.312 308.688 272 284 296.688zM320 260.687L295.312 236 320 211.312 344.688 236zm36-13.375L380.688 272 356 296.688 331.312 272zm-36 36L344.688 308 320 332.688 295.312 308zm64 41.375L367.312 308 384 291.312zm0-72L367.312 236l14.282-14.281C383.098 224.848 384 228.305 384 232zm-28-28L339.312 208H360c3.695 0 7.152.902 10.281 2.406zm-72 0L267.312 208h33.375zm-72 0L195.312 208h33.375zm-72 0l-14.281-14.28C128.848 208.901 132.305 208 136 208h20.688zm58.504 130.504L187.313 344 212 319.312 236.688 344l-8 8H208c-3.566 0-6.832 1.215-9.496 3.191zM208 368h80l.008 48H208zm80-16h-20.688l-8-8L284 319.312 308.688 344l-11.192 11.191c-2.664-1.976-5.93-3.191-9.496-3.191zm16 32h96V216a7.994 7.994 0 0 1 2.824-6.105c1.817-1.543 4.13-2.2 6.574-1.782 3.707.606 6.602 4.438 6.602 8.742V392c0 4.414-3.594 8-8 8H304zm125.2-215.953a15.866 15.866 0 0 1-2.65 11.96c-2.452 3.505-6.116 5.833-10.327 6.579-4.207.719-8.446-.203-11.957-2.656-3.504-2.45-5.832-6.121-6.579-10.328a15.89 15.89 0 0 1 2.649-11.954 15.912 15.912 0 0 1 10.336-6.578 16.004 16.004 0 0 1 2.816-.238c3.254 0 6.422.992 9.145 2.887a15.847 15.847 0 0 1 6.566 10.328zm-35.727-68.055c1.382 0 2.785.184 4.168.551a15.878 15.878 0 0 1 9.71 7.457 15.927 15.927 0 0 1 1.602 12.145 15.878 15.878 0 0 1-7.457 9.71c-3.695 2.145-8.008 2.696-12.137 1.602a15.878 15.878 0 0 1-9.71-7.457 15.927 15.927 0 0 1-1.602-12.145 15.878 15.878 0 0 1 7.457-9.71 15.83 15.83 0 0 1 7.969-2.153zm-49.746-38.969A16.002 16.002 0 0 1 356 55.313c3.633 0 7.281 1.222 10.273 3.742a15.93 15.93 0 0 1 5.657 10.855 15.925 15.925 0 0 1-3.684 11.676c-5.672 6.758-15.781 7.652-22.543 1.965a15.914 15.914 0 0 1-5.656-10.856 15.88 15.88 0 0 1 3.68-11.672zm-53.301-24.367c2.36-6.488 8.52-10.52 15.054-10.52 1.817 0 3.657.313 5.457.962a15.87 15.87 0 0 1 9.024 8.27c1.8 3.87 2 8.218.527 12.241-3.015 8.286-12.191 12.582-20.504 9.559-8.289-3.016-12.578-12.223-9.558-20.512zM248 16c8.824 0 16 7.176 16 16s-7.176 16-16 16-16-7.176-16-16 7.176-16 16-16zm-26.457 33.969C227.313 58.434 237.016 64 248 64s20.687-5.566 26.457-14.031c2.527 9.918 9.734 18.472 20.063 22.23a31.819 31.819 0 0 0 10.914 1.93c6.78 0 13.328-2.207 18.742-6.113-.2 2-.239 4.023-.063 6.074.742 8.512 4.758 16.23 11.313 21.719a31.835 31.835 0 0 0 20.543 7.48c2.984 0 5.918-.57 8.8-1.387a31.98 31.98 0 0 0-2.183 5.817c-2.211 8.258-1.074 16.883 3.2 24.281 4.269 7.406 11.167 12.695 19.429 14.902 1.976.54 3.976.801 5.976.953-1.437 1.403-2.777 2.93-3.953 4.61-4.902 7-6.781 15.496-5.3 23.91 1.43 8.098 5.863 15.137 12.43 20.031-.634.442-1.313.793-1.903 1.297-1.899 1.617-3.395 3.555-4.688 5.61C380.574 196.343 370.801 192 360 192H136c-10.855 0-20.68 4.375-27.895 11.426a24.76 24.76 0 0 0-6.503-6.977c6.59-4.898 11.039-11.953 12.468-20.066 1.489-8.422-.398-16.91-5.3-23.91a32.232 32.232 0 0 0-3.954-4.61c2-.152 4-.422 5.977-.953 8.254-2.207 15.16-7.504 19.43-14.902 4.273-7.399 5.41-16.024 3.191-24.281a31.98 31.98 0 0 0-2.184-5.817c2.883.824 5.817 1.387 8.81 1.387a31.85 31.85 0 0 0 20.534-7.473c6.555-5.496 10.57-13.207 11.313-21.726a32.16 32.16 0 0 0-.063-6.075c5.414 3.907 11.961 6.114 18.742 6.114 3.633 0 7.313-.617 10.914-1.93 10.329-3.766 17.543-12.32 20.063-22.238zm-45.504-14.602c1.809-3.87 5.008-6.816 9.023-8.27 1.801-.648 3.641-.96 5.458-.96 6.535 0 12.687 4.039 15.054 10.52 3.02 8.288-1.27 17.495-9.558 20.511-8.29 3.023-17.496-1.273-20.504-9.559a15.853 15.853 0 0 1 .527-12.242zm-46.312 23.68A15.963 15.963 0 0 1 140 55.313c4.566 0 9.113 1.945 12.273 5.71a15.935 15.935 0 0 1 3.68 11.672c-.379 4.258-2.387 8.121-5.664 10.864-6.77 5.664-16.863 4.793-22.535-1.965a15.9 15.9 0 0 1-3.684-11.684 15.964 15.964 0 0 1 5.657-10.863zM88.648 108c2.145-3.703 5.59-6.352 9.72-7.457a16.163 16.163 0 0 1 4.167-.55c2.777 0 5.504.726 7.977 2.16a15.906 15.906 0 0 1 7.457 9.71c1.11 4.13.535 8.442-1.594 12.145-2.145 3.703-5.59 6.351-9.719 7.457-4.129 1.101-8.441.543-12.144-1.602a15.906 15.906 0 0 1-7.457-9.71A15.909 15.909 0 0 1 88.648 108zm-21.847 60.047a15.924 15.924 0 0 1 6.574-10.328 15.955 15.955 0 0 1 9.145-2.887c.937 0 1.87.078 2.816.238v.008a15.904 15.904 0 0 1 10.328 6.57 15.898 15.898 0 0 1 2.648 11.954 15.926 15.926 0 0 1-6.578 10.328c-3.504 2.453-7.75 3.375-11.957 2.656a15.926 15.926 0 0 1-10.328-6.578 15.873 15.873 0 0 1-2.648-11.961zm413 96.8L453.633 448H416v16h35.352l-2.29 16H46.937l-2.289-16H80v-16H42.367l-26.16-183.145A18.907 18.907 0 0 1 16 262a20.136 20.136 0 0 1 15.281-19.574L64 234.238V392c0 13.23 10.77 24 24 24h104c0 8.824 7.176 16 16 16h80c8.824 0 16-7.176 16-16h104c13.23 0 24-10.77 24-24V234.238l32.719 8.176A20.16 20.16 0 0 1 480 262c0 .953-.063 1.91-.2 2.848zm0 0"/><path d="M96 448h304v16H96zm0 0"/></svg>