<svg height="496pt" viewBox="0 0 496 496" width="496pt" xmlns="http://www.w3.org/2000/svg"><g fill="#e6e9ed"><path d="M472 360c8.8 0 16 7.2 16 16 0 4.398-1.762 8.398-4.719 11.281C480.398 390.238 476.398 392 472 392H264c-8.8 0-16-7.2-16-16 0-4.398 1.762-8.398 4.719-11.281C255.602 361.762 259.602 360 264 360h16l4-4c2.559-2.559 6-4 9.68-4h4.64c3.68 0 7.121 1.441 9.68 4s6 4 9.68 4h4.64c3.68 0 7.121-1.441 9.68-4s6-4 9.68-4h4.64c3.68 0 7.121 1.441 9.68 4s6 4 9.68 4h4.64c3.68 0 7.121-1.441 9.68-4s6-4 9.68-4h4.64c3.68 0 7.121 1.441 9.68 4s6 4 9.68 4h4.64c3.68 0 7.121-1.441 9.68-4s6-4 9.68-4h4.64c3.68 0 7.121 1.441 9.68 4l4 4zm0 0M472 392c8.8 0 16 7.2 16 16 0 4.398-1.762 8.398-4.719 11.281C480.398 422.238 476.398 424 472 424H264c-8.8 0-16-7.2-16-16 0-4.398 1.762-8.398 4.719-11.281C255.602 393.762 259.602 392 264 392zm0 0M131.281 252.719C134.238 255.602 136 259.602 136 264v208c0 8.8-7.2 16-16 16-4.398 0-8.398-1.762-11.281-4.719C105.762 480.398 104 476.398 104 472V264c0-8.8 7.2-16 16-16 4.398 0 8.398 1.762 11.281 4.719zm0 0M104 264v208c0 8.8-7.2 16-16 16-4.398 0-8.398-1.762-11.281-4.719C73.762 480.398 72 476.398 72 472v-16l-4-4c-2.559-2.559-4-6-4-9.68v-4.64c0-3.68 1.441-7.121 4-9.68s4-6 4-9.68v-4.64c0-3.68-1.441-7.121-4-9.68s-4-6-4-9.68v-4.64c0-3.68 1.441-7.121 4-9.68s4-6 4-9.68v-4.64c0-3.68-1.441-7.121-4-9.68s-4-6-4-9.68v-4.64c0-3.68 1.441-7.121 4-9.68s4-6 4-9.68v-4.64c0-3.68-1.441-7.121-4-9.68s-4-6-4-9.68v-4.64c0-3.68 1.441-7.121 4-9.68l4-4v-16c0-8.8 7.2-16 16-16 4.398 0 8.398 1.762 11.281 4.719C102.238 255.602 104 259.602 104 264zm0 0M428 140c2.559 2.559 4 6 4 9.68v4.64c0 3.68-1.441 7.121-4 9.68s-4 6-4 9.68v4.64c0 3.68 1.441 7.121 4 9.68s4 6 4 9.68v4.64c0 3.68-1.441 7.121-4 9.68l-4 4v16c0 4.398-1.762 8.398-4.719 11.281C416.398 246.238 412.398 248 408 248c-8.8 0-16-7.2-16-16V24c0-4.398 1.762-8.398 4.719-11.281C399.602 9.762 403.602 8 408 8c8.8 0 16 7.2 16 16v16l4 4c2.559 2.559 4 6 4 9.68v4.64c0 3.68-1.441 7.121-4 9.68s-4 6-4 9.68v4.64c0 3.68 1.441 7.121 4 9.68s4 6 4 9.68v4.64c0 3.68-1.441 7.121-4 9.68s-4 6-4 9.68v4.64c0 3.68 1.441 7.121 4 9.68zm0 0M392 24v208c0 4.398-1.762 8.398-4.719 11.281C384.398 246.238 380.398 248 376 248c-8.8 0-16-7.2-16-16V24c0-4.398 1.762-8.398 4.719-11.281C367.602 9.762 371.602 8 376 8c8.8 0 16 7.2 16 16zm0 0M232 72c8.8 0 16 7.2 16 16 0 4.398-1.762 8.398-4.719 11.281C240.398 102.238 236.398 104 232 104H24c-8.8 0-16-7.2-16-16 0-4.398 1.762-8.398 4.719-11.281C15.602 73.762 19.602 72 24 72h16l4-4c2.559-2.559 6-4 9.68-4h4.64c3.68 0 7.121 1.441 9.68 4s6 4 9.68 4h4.64c3.68 0 7.121-1.441 9.68-4s6-4 9.68-4h4.64c3.68 0 7.121 1.441 9.68 4s6 4 9.68 4h4.64c3.68 0 7.121-1.441 9.68-4s6-4 9.68-4h4.64c3.68 0 7.121 1.441 9.68 4s6 4 9.68 4h4.64c3.68 0 7.121-1.441 9.68-4s6-4 9.68-4h4.64c3.68 0 7.121 1.441 9.68 4l4 4zm0 0M232 104c8.8 0 16 7.2 16 16 0 4.398-1.762 8.398-4.719 11.281C240.398 134.238 236.398 136 232 136H24c-8.8 0-16-7.2-16-16 0-4.398 1.762-8.398 4.719-11.281C15.602 105.762 19.602 104 24 104zm0 0"/></g><path d="M424 24c36.559 4.559 64 35.68 64 72.48v63.04c0 36.8-27.441 67.921-64 72.48v-16l4-4c2.559-2.559 4-6 4-9.68v-4.64c0-3.68-1.441-7.121-4-9.68s-4-6-4-9.68v-4.64c0-3.68 1.441-7.121 4-9.68s4-6 4-9.68v-4.64c0-3.68-1.441-7.121-4-9.68s-4-6-4-9.68v-4.64c0-3.68 1.441-7.121 4-9.68s4-6 4-9.68v-4.64c0-3.68-1.441-7.121-4-9.68s-4-6-4-9.68v-4.64c0-3.68 1.441-7.121 4-9.68s4-6 4-9.68v-4.64c0-3.68-1.441-7.121-4-9.68l-4-4zm0 0M360 24v208c-36.559-4.559-64-35.68-64-72.48V96.48c0-36.8 27.441-67.921 64-72.48zm0 0" fill="#69d6f4"/><path d="M264 424h208c-4.559 36.559-35.68 64-72.48 64h-63.04c-36.8 0-67.921-27.441-72.48-64zm0 0M399.52 296c36.8 0 67.921 27.441 72.48 64h-16l-4-4c-2.559-2.559-6-4-9.68-4h-4.64c-3.68 0-7.121 1.441-9.68 4s-6 4-9.68 4h-4.64c-3.68 0-7.121-1.441-9.68-4s-6-4-9.68-4h-4.64c-3.68 0-7.121 1.441-9.68 4s-6 4-9.68 4h-4.64c-3.68 0-7.121-1.441-9.68-4s-6-4-9.68-4h-4.64c-3.68 0-7.121 1.441-9.68 4s-6 4-9.68 4h-4.64c-3.68 0-7.121-1.441-9.68-4s-6-4-9.68-4h-4.64c-3.68 0-7.121 1.441-9.68 4l-4 4h-16c4.559-36.559 35.68-64 72.48-64zm0 0" fill="#b4dd7f"/><path d="M200 336.48v63.04c0 36.8-27.441 67.921-64 72.48V264c36.559 4.559 64 35.68 64 72.48zm0 0M68 308c2.559 2.559 4 6 4 9.68v4.64c0 3.68-1.441 7.121-4 9.68s-4 6-4 9.68v4.64c0 3.68 1.441 7.121 4 9.68s4 6 4 9.68v4.64c0 3.68-1.441 7.121-4 9.68s-4 6-4 9.68v4.64c0 3.68 1.441 7.121 4 9.68s4 6 4 9.68v4.64c0 3.68-1.441 7.121-4 9.68s-4 6-4 9.68v4.64c0 3.68 1.441 7.121 4 9.68l4 4v16c-36.559-4.559-64-35.68-64-72.48v-63.04c0-36.8 27.441-67.921 64-72.48v16l-4 4c-2.559 2.559-4 6-4 9.68v4.64c0 3.68 1.441 7.121 4 9.68zm0 0" fill="#fcd770"/><path d="M24 136h208c-4.559 36.559-35.68 64-72.48 64H96.48c-36.8 0-67.921-27.441-72.48-64zm0 0M159.52 8c36.8 0 67.921 27.441 72.48 64h-16l-4-4c-2.559-2.559-6-4-9.68-4h-4.64c-3.68 0-7.121 1.441-9.68 4s-6 4-9.68 4h-4.64c-3.68 0-7.121-1.441-9.68-4s-6-4-9.68-4h-4.64c-3.68 0-7.121 1.441-9.68 4s-6 4-9.68 4h-4.64c-3.68 0-7.121-1.441-9.68-4s-6-4-9.68-4h-4.64C98 64 94.559 65.441 92 68s-6 4-9.68 4h-4.64C74 72 70.559 70.559 68 68s-6-4-9.68-4h-4.64C50 64 46.559 65.441 44 68l-4 4H24C28.559 35.441 59.68 8 96.48 8zm0 0" fill="#ef7385"/><path d="M256 120c0-6.168-2.406-11.742-6.238-16 3.84-4.258 6.238-9.832 6.238-16 0-10.809-7.23-19.863-17.07-22.863C231.406 27.617 198.297 0 159.504 0h-63c-38.8 0-71.91 27.625-79.434 65.137C7.23 68.137 0 77.19 0 88c0 6.168 2.406 11.742 6.238 16C2.406 108.258 0 113.832 0 120c0 10.809 7.23 19.863 17.07 22.863C24.594 180.375 57.703 208 96.496 208h63c38.793 0 71.902-27.625 79.426-65.137C248.77 139.863 256 130.81 256 120zM96.496 16h63c29.633 0 55.121 20.098 62.719 48h-2.903l-1.656-1.656C213.56 58.246 208.13 56 202.344 56h-4.688c-5.785 0-11.215 2.246-15.312 6.344a5.627 5.627 0 0 1-4 1.656h-4.688a5.627 5.627 0 0 1-4-1.656C165.56 58.246 160.13 56 154.344 56h-4.688c-5.785 0-11.215 2.246-15.312 6.344a5.627 5.627 0 0 1-4 1.656h-4.688a5.627 5.627 0 0 1-4-1.656C117.56 58.246 112.13 56 106.344 56h-4.688c-5.785 0-11.215 2.246-15.312 6.344a5.627 5.627 0 0 1-4 1.656h-4.688a5.627 5.627 0 0 1-4-1.656C69.56 58.246 64.13 56 58.344 56h-4.688c-5.785 0-11.215 2.246-15.312 6.344L36.687 64h-2.902c7.59-27.902 33.078-48 62.711-48zM24 80h19.313l6.343-6.344a5.627 5.627 0 0 1 4-1.656h4.688c1.504 0 2.93.586 4 1.656C66.44 77.754 71.87 80 77.656 80h4.688c5.785 0 11.215-2.246 15.312-6.344a5.627 5.627 0 0 1 4-1.656h4.688c1.504 0 2.93.586 4 1.656C114.44 77.754 119.87 80 125.656 80h4.688c5.785 0 11.215-2.246 15.312-6.344a5.627 5.627 0 0 1 4-1.656h4.688c1.504 0 2.93.586 4 1.656C162.44 77.754 167.87 80 173.656 80h4.688c5.785 0 11.215-2.246 15.312-6.344a5.627 5.627 0 0 1 4-1.656h4.688c1.504 0 2.93.586 4 1.656L212.688 80H232c4.414 0 8 3.586 8 8s-3.586 8-8 8H24c-4.414 0-8-3.586-8-8s3.586-8 8-8zm0 32h208c4.414 0 8 3.586 8 8s-3.586 8-8 8H24c-4.414 0-8-3.586-8-8s3.586-8 8-8zm135.504 80h-63c-29.633 0-55.121-20.098-62.719-48h188.43c-7.59 27.902-33.078 48-62.711 48zm0 0M478.93 353.137C471.406 315.617 438.297 288 399.504 288h-63c-38.793 0-71.902 27.625-79.426 65.137C247.23 356.137 240 365.19 240 376c0 6.168 2.406 11.742 6.238 16-3.84 4.258-6.238 9.832-6.238 16 0 10.809 7.23 19.863 17.07 22.863 7.524 37.52 40.633 65.137 79.426 65.137h63c38.793 0 71.902-27.625 79.426-65.137C488.77 427.863 496 418.81 496 408c0-6.168-2.406-11.742-6.238-16 3.84-4.258 6.238-9.832 6.238-16 0-10.809-7.23-19.863-17.07-22.863zM336.496 304h63c29.633 0 55.121 20.098 62.719 48h-2.903l-1.656-1.656c-4.097-4.098-9.527-6.344-15.312-6.344h-4.688c-5.785 0-11.215 2.246-15.312 6.344a5.627 5.627 0 0 1-4 1.656h-4.688a5.627 5.627 0 0 1-4-1.656c-4.097-4.098-9.527-6.344-15.312-6.344h-4.688c-5.785 0-11.215 2.246-15.312 6.344a5.627 5.627 0 0 1-4 1.656h-4.688a5.627 5.627 0 0 1-4-1.656c-4.097-4.098-9.527-6.344-15.312-6.344h-4.688c-5.785 0-11.215 2.246-15.312 6.344a5.627 5.627 0 0 1-4 1.656h-4.688a5.627 5.627 0 0 1-4-1.656c-4.097-4.098-9.527-6.344-15.312-6.344h-4.688c-5.785 0-11.215 2.246-15.312 6.344L276.687 352h-2.902c7.59-27.902 33.078-48 62.711-48zM264 368h19.313l6.343-6.344a5.627 5.627 0 0 1 4-1.656h4.688c1.504 0 2.93.586 4 1.656 4.097 4.098 9.527 6.344 15.312 6.344h4.688c5.785 0 11.215-2.246 15.312-6.344a5.627 5.627 0 0 1 4-1.656h4.688c1.504 0 2.93.586 4 1.656 4.097 4.098 9.527 6.344 15.312 6.344h4.688c5.785 0 11.215-2.246 15.312-6.344a5.627 5.627 0 0 1 4-1.656h4.688c1.504 0 2.93.586 4 1.656 4.097 4.098 9.527 6.344 15.312 6.344h4.688c5.785 0 11.215-2.246 15.312-6.344a5.627 5.627 0 0 1 4-1.656h4.688c1.504 0 2.93.586 4 1.656l6.344 6.344H472c4.414 0 8 3.586 8 8s-3.586 8-8 8H264c-4.414 0-8-3.586-8-8s3.586-8 8-8zm135.504 112h-63c-29.633 0-55.121-20.098-62.719-48h188.43c-7.59 27.902-33.078 48-62.711 48zM472 416H264c-4.414 0-8-3.586-8-8s3.586-8 8-8h208c4.414 0 8 3.586 8 8s-3.586 8-8 8zm0 0M142.863 257.07c-3-9.84-12.054-17.07-22.863-17.07-6.168 0-11.742 2.406-16 6.238-4.258-3.84-9.832-6.238-16-6.238-10.809 0-19.863 7.23-22.863 17.07C27.625 264.594 0 297.703 0 336.496v63c0 38.793 27.625 71.902 65.137 79.426C68.137 488.77 77.19 496 88 496c6.168 0 11.742-2.406 16-6.238 4.258 3.84 9.832 6.238 16 6.238 10.809 0 19.863-7.23 22.863-17.07 37.52-7.524 65.137-40.633 65.137-79.426v-63c0-38.8-27.617-71.91-65.137-79.434zM16 399.504v-63c0-29.633 20.098-55.121 48-62.719v2.903l-1.656 1.656C58.246 282.44 56 287.87 56 293.656v4.688c0 5.785 2.246 11.215 6.344 15.312a5.627 5.627 0 0 1 1.656 4v4.688c0 1.504-.586 2.93-1.656 4C58.246 330.44 56 335.87 56 341.656v4.688c0 5.785 2.246 11.215 6.344 15.312a5.627 5.627 0 0 1 1.656 4v4.688c0 1.504-.586 2.93-1.656 4C58.246 378.44 56 383.87 56 389.656v4.688c0 5.785 2.246 11.215 6.344 15.312a5.627 5.627 0 0 1 1.656 4v4.688c0 1.504-.586 2.93-1.656 4C58.246 426.44 56 431.87 56 437.656v4.688c0 5.785 2.246 11.215 6.344 15.312L64 459.313v2.902c-27.902-7.59-48-33.078-48-62.711zM88 480c-4.414 0-8-3.586-8-8v-19.313l-6.344-6.343a5.627 5.627 0 0 1-1.656-4v-4.688c0-1.504.586-2.93 1.656-4C77.754 429.56 80 424.13 80 418.344v-4.688c0-5.785-2.246-11.215-6.344-15.312a5.627 5.627 0 0 1-1.656-4v-4.688c0-1.504.586-2.93 1.656-4C77.754 381.56 80 376.13 80 370.344v-4.688c0-5.785-2.246-11.215-6.344-15.312a5.627 5.627 0 0 1-1.656-4v-4.688c0-1.504.586-2.93 1.656-4C77.754 333.56 80 328.13 80 322.344v-4.688c0-5.785-2.246-11.215-6.344-15.312a5.627 5.627 0 0 1-1.656-4v-4.688c0-1.504.586-2.93 1.656-4L80 283.312V264c0-4.414 3.586-8 8-8s8 3.586 8 8v208c0 4.414-3.586 8-8 8zm40-8c0 4.414-3.586 8-8 8s-8-3.586-8-8V264c0-4.414 3.586-8 8-8s8 3.586 8 8zm64-72.496c0 29.633-20.098 55.121-48 62.719V273.785c27.902 7.59 48 33.078 48 62.719zm0 0M430.863 17.07C427.863 7.23 418.81 0 408 0c-6.168 0-11.742 2.406-16 6.238C387.742 2.406 382.168 0 376 0c-10.809 0-19.863 7.23-22.863 17.07C315.625 24.594 288 57.703 288 96.496v63c0 38.793 27.625 71.902 65.137 79.426C356.137 248.77 365.19 256 376 256c6.168 0 11.742-2.406 16-6.238 4.258 3.84 9.832 6.238 16 6.238 10.809 0 19.863-7.23 22.863-17.07 37.52-7.524 65.137-40.633 65.137-79.426v-63c0-38.8-27.617-71.91-65.137-79.434zM304 159.504v-63c0-29.633 20.098-55.121 48-62.719v188.43c-27.902-7.59-48-33.078-48-62.711zM376 240c-4.414 0-8-3.586-8-8V24c0-4.414 3.586-8 8-8s8 3.586 8 8v208c0 4.414-3.586 8-8 8zm40-27.313V232c0 4.414-3.586 8-8 8s-8-3.586-8-8V24c0-4.414 3.586-8 8-8s8 3.586 8 8v19.313l6.344 6.343a5.627 5.627 0 0 1 1.656 4v4.688c0 1.504-.586 2.93-1.656 4C418.246 66.44 416 71.87 416 77.656v4.688c0 5.785 2.246 11.215 6.344 15.312a5.627 5.627 0 0 1 1.656 4v4.688c0 1.504-.586 2.93-1.656 4-4.098 4.097-6.344 9.527-6.344 15.312v4.688c0 5.785 2.246 11.215 6.344 15.312a5.627 5.627 0 0 1 1.656 4v4.688c0 1.504-.586 2.93-1.656 4-4.098 4.097-6.344 9.527-6.344 15.312v4.688c0 5.785 2.246 11.215 6.344 15.312a5.627 5.627 0 0 1 1.656 4v4.688c0 1.504-.586 2.93-1.656 4zm64-53.183c0 29.633-20.098 55.121-48 62.719v-2.903l1.656-1.656c4.098-4.105 6.344-9.535 6.344-15.32v-4.688c0-5.785-2.246-11.215-6.344-15.312a5.627 5.627 0 0 1-1.656-4v-4.688c0-1.504.586-2.93 1.656-4 4.098-4.097 6.344-9.527 6.344-15.312v-4.688c0-5.785-2.246-11.215-6.344-15.312a5.627 5.627 0 0 1-1.656-4v-4.688c0-1.504.586-2.93 1.656-4 4.098-4.097 6.344-9.527 6.344-15.312v-4.688c0-5.785-2.246-11.215-6.344-15.312a5.627 5.627 0 0 1-1.656-4v-4.688c0-1.504.586-2.93 1.656-4C437.754 69.56 440 64.13 440 58.344v-4.688c0-5.785-2.246-11.215-6.344-15.312L432 36.687v-2.902c27.902 7.59 48 33.078 48 62.719zm0 0"/></svg>