<svg height="496pt" viewBox="0 0 496 496" width="496pt" xmlns="http://www.w3.org/2000/svg"><path d="M344 424v64h-32v-96h32zm0 0M280 392h32v96h-32zm0 0M184 392h32v96h-32zm0 0M184 392v96h-32v-96zm0 0" fill="#e6e9ed"/><path d="M216 392h64v96h-64zm0 0" fill="#838f9b"/><path d="M472 424v64H344v-64zm0 0M152 424v64H24v-64zm0 0" fill="#e6e9ed"/><g fill="#b4dd7f"><path d="M376 392h32v32h-32zm0 0M440 392h32v32h-32zm0 0M344 392h32v32h-32zm0 0M408 392h32v32h-32zm0 0M88 392h32v32H88zm0 0M24 392h32v32H24zm0 0M56 392h32v32H56zm0 0M120 392h32v32h-32zm0 0"/></g><path d="M344 360v32H152v-32zm0 0" fill="#b27946"/><path d="M484.719 372.719c2.082 2.082 3.281 4.96 3.281 8 0 6.242-5.04 11.281-11.281 11.281H344v-32h8l-26.16-30.16L328 328h112zm0 0M170.16 329.84L144 360h8v32H19.281A11.266 11.266 0 0 1 8 380.719c0-3.04 1.2-5.918 3.281-8L56 328h112zm0 0" fill="#cf9e76"/><path d="M288 240v46.16L248 240zm0 0M320 240v80l-1.52 1.281-30.48-35.12V240zm0 0" fill="#e6e9ed"/><path d="M328 328l-2.16 1.84-7.36-8.559L320 320v-80h32v88zm0 0M248 240l-40 46.16V240zm0 0M144 240h64v46.16l-37.84 43.68L168 328h-24zm0 0M312 360H184l64-72zm0 0" fill="#e6e9ed"/><path d="M208 286.16L248 240l40 46.16 30.48 35.121 7.36 8.559L352 360h-40l-64-72-64 72h-40l26.16-30.16zm0 0" fill="#fcd770"/><path d="M368 208v32H128v-32zm0 0" fill="#aab2bd"/><path d="M152 159.68h192V208H152v-47.281-1.04zm0 0" fill="#e6e9ed"/><path d="M344 159.68H152c.32-30.48 13.922-59.36 37.441-78.88L248 32l58.559 48.8c23.52 19.52 37.12 48.4 37.441 78.88zm0 0" fill="#fcd770"/><path d="M240 320h16v16h-16zm0 0"/><path d="M496 380.688c0-5.16-2.008-10.008-5.656-13.657L443.313 320H360v-72h16v-48h-24v-39.29c0-33.335-14.688-64.694-40.305-86.038L256 28.258V0h-16v28.258l-55.695 46.414C158.687 96.008 144 127.367 144 160.71V200h-24v48h16v72H52.687l-47.03 47.031A19.182 19.182 0 0 0 0 380.687c0 9.512 6.93 17.391 16 18.977V496h464v-96.336c9.07-1.586 16-9.465 16-18.976zM344 320h-16v.098l-.078-.098H328v-72h16zm120 80v16h-16v-16zm-32 16h-16v-16h16zm-32 0h-16v-16h16zm-32 0h-16v-16h16zm-32 64h-16v-80h16zM32 400h16v16H32zm32 0h16v16H64zm32 0h16v16H96zm32 0h16v16h-16zm32 0h16v80h-16zm32 0h16v80h-16zm32 0h48v80h-48zm64 0h16v80h-16zm-128-16v-16h176v16zm136-100.832V248h16v53.633zm-16-18.457L265.52 248H280zM230.48 248L216 264.71V248zM200 283.168l-16 18.465V248h16zm48-30.953L334.48 352h-18.886L248 275.96 180.406 352H161.52zM294.184 352h-92.368L248 300.04zM194.543 86.96L248 42.415l53.457 44.547c19.613 16.344 31.68 39.559 34.047 64.695H160.496c2.367-25.136 14.434-48.351 34.047-64.695zM160 167.657h176V200H160zM136 216h224v16H251.656L248 227.785 244.344 232H136zm16 32h16v72h.078l-.078.098V320h-16zM16.969 378.344L59.312 336h94.903l-27.735 32H144v16H19.312A3.32 3.32 0 0 1 16 380.687c0-.87.352-1.726.969-2.343zM32 432h112v48H32zm320 48v-48h112v48zm124.688-96H352v-16h17.52l-27.735-32h94.903l42.343 42.344c.617.617.969 1.472.969 2.344a3.32 3.32 0 0 1-3.313 3.312zm0 0"/><path d="M240 176h16v16h-16zm0 0M272 176h16v16h-16zm0 0M304 176h16v16h-16zm0 0M208 176h16v16h-16zm0 0M176 176h16v16h-16zm0 0"/></svg>