<svg height="496pt" viewBox="-15 0 495 496" width="496pt" xmlns="http://www.w3.org/2000/svg"><path d="M232.5 344h-64v-64c0 23.68 12.879 44.398 32 55.441 9.36 5.438 20.32 8.559 32 8.559zm0 0M296.5 280v64h-64c11.68 0 22.64-3.121 32-8.559 19.121-11.043 32-31.761 32-55.441zm0 0M296.5 216v32h-8.559a63.37 63.37 0 0 0-23.441-23.441c-9.36-5.438-20.32-8.559-32-8.559zm0 0M200.5 216h32c-11.68 0-22.64 3.121-32 8.559A63.37 63.37 0 0 0 177.059 248H168.5v-32zm0 0" fill="#dfb28b"/><path d="M240.5 293.84l24 41.601c-9.36 5.438-20.32 8.559-32 8.559s-22.64-3.121-32-8.559l24-41.601c2.32 1.36 5.121 2.16 8 2.16s5.68-.8 8-2.16zm0 0" fill="#f5e0cd"/><path d="M224.5 293.84l-24 41.601c-19.121-11.043-32-31.761-32-55.441h48c0 5.922 3.2 11.04 8 13.84zm0 0M248.5 280h48c0 23.68-12.879 44.398-32 55.441l-24-41.601c4.8-2.8 8-7.918 8-13.84zm0 0M264.5 224.559l-24 41.601c-2.32-1.36-5.121-2.16-8-2.16s-5.68.8-8 2.16l-24-41.601c9.36-5.438 20.32-8.559 32-8.559s22.64 3.121 32 8.559zm0 0" fill="#f5e0cd"/><path d="M296.5 280h-48c0-5.922-3.2-11.04-8-13.84l24-41.601A63.37 63.37 0 0 1 287.941 248c5.438 9.36 8.559 20.32 8.559 32zm0 0M200.5 224.559l24 41.601c-4.8 2.8-8 7.918-8 13.84h-48c0-11.68 3.121-22.64 8.559-32a63.37 63.37 0 0 1 23.441-23.441zm0 0" fill="#f5e0cd"/><path d="M240.5 266.16c4.8 2.8 8 7.918 8 13.84s-3.2 11.04-8 13.84c-2.32 1.36-5.121 2.16-8 2.16s-5.68-.8-8-2.16c-4.8-2.8-8-7.918-8-13.84s3.2-11.04 8-13.84c2.32-1.36 5.121-2.16 8-2.16s5.68.8 8 2.16zm0 0" fill="#b27946"/><path d="M440.5 8v32h-128V8zm0 0M152.5 8v32h-128V8zm0 0" fill="#f5e0cd"/><g fill="#cf9e76"><path d="M392.5 40h32v32h-32zm0 0M328.5 40v32h-32V40zm0 0M328.5 40h32v32h-32zm0 0M360.5 40h32v32h-32zm0 0M456.5 40v32h-32V40zm0 0M72.5 40h32v32h-32zm0 0M40.5 40h32v32h-32zm0 0M168.5 40v32h-32V40zm0 0M40.5 40v32h-32V40zm0 0M104.5 40h32v32h-32zm0 0"/></g><path d="M424.5 376h32v112h-32zm0 0" fill="#f5e0cd"/><path d="M424.5 344h32v32h-32zm0 0" fill="#cf9e76"/><path d="M456.5 248v96h-160v-96zm-32 64v-32h-32v32zm-64 0v-32h-32v32zm0 0" fill="#ecc19c"/><path d="M424.5 216h32v32h-32zm0 0" fill="#b27946"/><path d="M424.5 168h32v48h-32zm0 0" fill="#cf9e76"/><path d="M456.5 72v96h-160V72zm-32 64v-32h-32v32zm-64 0v-32h-32v32zm0 0M424.5 376v112h-32v-64c0-4.398-1.762-8.398-4.719-11.281-2.883-2.957-6.883-4.719-11.281-4.719-8.8 0-16 7.2-16 16v64h-32V376zm0 0" fill="#ecc19c"/><path d="M392.5 344h32v32h-32zm0 0" fill="#cf9e76"/><path d="M392.5 280h32v32h-32zm0 0" fill="#f5e0cd"/><path d="M392.5 216h32v32h-32zm0 0" fill="#b27946"/><path d="M392.5 168h32v48h-32zm0 0" fill="#cf9e76"/><path d="M392.5 104h32v32h-32zm0 0" fill="#f5e0cd"/><path d="M392.5 424v64h-32v-64c0-8.8 7.2-16 16-16 4.398 0 8.398 1.762 11.281 4.719 2.957 2.883 4.719 6.883 4.719 11.281zm0 0M360.5 344h32v32h-32zm0 0" fill="#cf9e76"/><path d="M360.5 216h32v32h-32zm0 0" fill="#b27946"/><path d="M360.5 168h32v48h-32zm0 0M328.5 344h32v32h-32zm0 0" fill="#cf9e76"/><path d="M328.5 280h32v32h-32zm0 0" fill="#f5e0cd"/><path d="M328.5 216h32v32h-32zm0 0" fill="#b27946"/><path d="M328.5 168h32v48h-32zm0 0" fill="#cf9e76"/><path d="M328.5 104h32v32h-32zm0 0M296.5 376h32v112h-32zm0 0" fill="#f5e0cd"/><path d="M296.5 344h32v32h-32zm0 0" fill="#cf9e76"/><path d="M296.5 216h32v32h-32zm0 0" fill="#b27946"/><path d="M296.5 168h32v48h-32zm0 0" fill="#cf9e76"/><path d="M296.5 376v112h-48v-64c0-4.398-1.762-8.398-4.719-11.281-2.883-2.957-6.883-4.719-11.281-4.719-8.8 0-16 7.2-16 16v64h-48V376zm0 0" fill="#ecc19c"/><path d="M264.5 344h32v32h-32zm0 0M264.5 168h32v48h-32zm0 0M232.5 344h32v32h-32zm0 0M232.5 168h32v48h-32zm0 0M248.5 424v64h-32v-64c0-8.8 7.2-16 16-16 4.398 0 8.398 1.762 11.281 4.719 2.957 2.883 4.719 6.883 4.719 11.281zm0 0M200.5 344h32v32h-32zm0 0M200.5 168h32v48h-32zm0 0M168.5 344h32v32h-32zm0 0M168.5 168h32v48h-32zm0 0" fill="#cf9e76"/><path d="M136.5 376h32v112h-32zm0 0" fill="#f5e0cd"/><path d="M136.5 344h32v32h-32zm0 0" fill="#cf9e76"/><path d="M168.5 280v64H8.5v-96h160zm-32 32v-32h-32v32zm-64 0v-32h-32v32zm0 0" fill="#ecc19c"/><path d="M136.5 216h32v32h-32zm0 0" fill="#b27946"/><path d="M136.5 168h32v48h-32zm0 0" fill="#cf9e76"/><path d="M168.5 72v96H8.5V72zm-32 64v-32h-32v32zm-64 0v-32h-32v32zm0 0M136.5 376v112h-32v-64c0-4.398-1.762-8.398-4.719-11.281C96.898 409.762 92.898 408 88.5 408c-8.8 0-16 7.2-16 16v64h-32V376zm0 0" fill="#ecc19c"/><path d="M104.5 344h32v32h-32zm0 0" fill="#cf9e76"/><path d="M104.5 280h32v32h-32zm0 0" fill="#f5e0cd"/><path d="M104.5 216h32v32h-32zm0 0" fill="#b27946"/><path d="M104.5 168h32v48h-32zm0 0" fill="#cf9e76"/><path d="M104.5 104h32v32h-32zm0 0" fill="#f5e0cd"/><path d="M104.5 424v64h-32v-64c0-8.8 7.2-16 16-16 4.398 0 8.398 1.762 11.281 4.719 2.957 2.883 4.719 6.883 4.719 11.281zm0 0M72.5 344h32v32h-32zm0 0" fill="#cf9e76"/><path d="M72.5 216h32v32h-32zm0 0" fill="#b27946"/><path d="M72.5 168h32v48h-32zm0 0M40.5 344h32v32h-32zm0 0" fill="#cf9e76"/><path d="M40.5 280h32v32h-32zm0 0" fill="#f5e0cd"/><path d="M40.5 216h32v32h-32zm0 0" fill="#b27946"/><path d="M40.5 168h32v48h-32zm0 0" fill="#cf9e76"/><path d="M40.5 104h32v32h-32zm0 0M8.5 376h32v112h-32zm0 0" fill="#f5e0cd"/><path d="M8.5 344h32v32h-32zm0 0" fill="#cf9e76"/><path d="M8.5 216h32v32h-32zm0 0" fill="#b27946"/><path d="M8.5 168h32v48h-32zm0 0" fill="#cf9e76"/><path d="M448.5 32V0h-144v32h-16v128h-112V32h-16V0h-144v32H.5v464h464V32zm-96 16v16h-16V48zm16 0h16v16h-16zm32 0h16v16h-16zm32 0h16v16h-16zm-112-32h112v16h-112zm0 32v16h-16V48zm-16 32h144v80h-144zm80 400h-16v-56c0-4.406 3.594-8 8-8s8 3.594 8 8zm-8-80c-13.23 0-24 10.77-24 24v56h-16v-96h80v96h-16v-56c0-13.23-10.77-24-24-24zm-280 80h-16v-56c0-4.406 3.594-8 8-8s8 3.594 8 8zm-8-80c-13.23 0-24 10.77-24 24v56h-16v-96h80v96h-16v-56c0-13.23-10.77-24-24-24zm312-160v-16h16v16zm-64 0v-16h16v16zm32-16h16v16h-16zm32-16v-32h16v32zm-16 0h-16v-32h16zm-32 0h-16v-32h16zm-32 0h-16v-32h16zm0 16v16h-16v-16zm-110.527 64a23.83 23.83 0 0 0 4.343 7.488l-16.425 28.457c-11.016-8.699-18.664-21.418-20.75-35.937h32.832zm30.527-8c0 4.406-3.594 8-8 8s-8-3.594-8-8 3.594-8 8-8 8 3.594 8 8zm-28.762 51.969l16.403-28.41c1.414.265 2.863.441 4.359.441s2.945-.176 4.36-.441l16.402 28.41C246.836 334.543 239.836 336 232.5 336s-14.336-1.457-20.762-4.031zm55.371-8.031l-16.425-28.458a23.83 23.83 0 0 0 4.343-7.488h32.832c-2.086 14.528-9.734 27.254-20.75 35.945zM255.027 272a23.98 23.98 0 0 0-4.343-7.488l16.425-28.457c11.016 8.699 18.664 21.418 20.75 35.937h-32.832zm-1.765-43.969l-16.403 28.41c-1.414-.265-2.863-.441-4.359-.441s-2.945.176-4.36.441l-16.402-28.41c6.426-2.574 13.426-4.031 20.762-4.031s14.336 1.457 20.762 4.031zm-55.371 8.031l16.425 28.458a23.83 23.83 0 0 0-4.343 7.488H177.14c2.086-14.528 9.734-27.254 20.75-35.945zM187.348 336H176.5v-10.848A72.288 72.288 0 0 0 187.348 336zM288.5 325.152V336h-10.848a72.288 72.288 0 0 0 10.848-10.848zm0-90.304A72.288 72.288 0 0 0 277.652 224H288.5zM240.5 208v-32h16v32zm-16 0h-16v-32h16zm-48 26.848V224h10.848a72.288 72.288 0 0 0-10.848 10.848zm-16 5.152h-16v-16h16zm-112 0v-16h16v16zm32-16h16v16h-16zm32 0h16v16h-16zm32-16v-32h16v32zm-16 0h-16v-32h16zm-32 0h-16v-32h16zm-32 0h-16v-32h16zm-32 0h-16v-32h16zm0 16v16h-16v-16zm128 32v80h-144v-80zm-80 112v-16h16v16zm-48-16v16h-16v-16zm16 0h16v16h-16zm64 16v-16h16v16zm32-16h16v16h-16zm32 0h16v16h-16zm32 0h16v16h-16zm32 0h16v16h-16zm32 0h16v16h-16zm32 0h16v16h-16zm32 0h16v16h-16zm32 16v-16h16v16zm32 0v-16h16v16zm32-16h16v16h-16zm-128-16v-80h144v80zm128-96v-16h16v16zm0-32v-32h16v32zm-144 0h-16v-32h16zm-96-32v32h-16v-32zm-176-16V80h144v80zm48-112v16h-16V48zm96 16h-16V48h16zm-32 0h-16V48h16zm-32 0h-16V48h16zm-64-48h112v16h-112zm0 32v16h-16V48zm-16 336h16v96h-16zm128 96v-96h16v96zm96 0h-16v-56c0-4.406 3.594-8 8-8s8 3.594 8 8zm16 0v-56c0-13.23-10.77-24-24-24s-24 10.77-24 24v56h-32v-96h112v96zm48-96h16v96h-16zm128 96v-96h16v96zm0 0"/><path d="M80.5 320v-48h-48v48zm-32-32h16v16h-16zm0 0M144.5 272h-48v48h48zm-16 32h-16v-16h16zm0 0M320.5 320h48v-48h-48zm16-32h16v16h-16zm0 0M384.5 272v48h48v-48zm32 32h-16v-16h16zm0 0M32.5 144h48V96h-48zm16-32h16v16h-16zm0 0M96.5 96v48h48V96zm32 32h-16v-16h16zm0 0M320.5 144h48V96h-48zm16-32h16v16h-16zm0 0M384.5 96v48h48V96zm32 32h-16v-16h16zm0 0"/></svg>