<svg height="512pt" viewBox="-76 0 512 512.001" width="512pt" xmlns="http://www.w3.org/2000/svg"><path d="M318.254 18.648V95.23h-37.922V18.648c0-6.16 5-11.148 11.16-11.148h15.61c6.16 0 11.152 4.988 11.152 11.148zm0 0" fill="#c97f4c"/><path d="M280.332 70.969h37.922V95.23h-37.922zm0 0" fill="#aa6344"/><path d="M258.434 62.89v25.65H102.293V62.89c0-6.16 5-11.152 11.16-11.152h133.82c6.16 0 11.16 4.992 11.16 11.153zm0 0" fill="#bddff4"/><path d="M102.293 70.969h156.14v17.57h-156.14zm0 0" fill="#9cc6db"/><path d="M337.875 129.95l-2.352 20.78-38.968 343.872a11.157 11.157 0 0 1-11.082 9.898H75.253a11.157 11.157 0 0 1-11.081-9.898L25.203 150.73l-2.351-20.78c-.75-6.622 4.433-12.41 11.093-12.41h292.84c6.66 0 11.84 5.788 11.09 12.41zm0 0" fill="#ffeee1"/><path d="M337.875 129.95l-2.352 20.78H25.203l-2.351-20.78c-.75-6.622 4.433-12.41 11.093-12.41h292.84c6.66 0 11.84 5.788 11.09 12.41zm0 0" fill="#fedfc5"/><path d="M337.871 129.95l-41.32 364.652a11.14 11.14 0 0 1-11.074 9.89h-22.754c5.68 0 10.441-4.246 11.086-9.89l41.312-364.653c.758-6.625-4.418-12.414-11.074-12.414h22.738c6.656.004 11.832 5.79 11.086 12.414zm0 0" fill="#fedfc5"/><path d="M55.992 424.48a11.149 11.149 0 0 1-11.086-9.945l-22.11-203.347c-.718-6.598 4.45-12.36 11.087-12.36h292.96c6.637 0 11.805 5.762 11.087 12.36l-22.11 203.347a11.149 11.149 0 0 1-11.086 9.945" fill="#1cc939"/><path d="M337.938 211.184L315.82 414.539c-.613 5.652-5.398 9.95-11.086 9.95h-26.921c5.699 0 10.472-4.298 11.097-9.95l22.106-203.355c.71-6.59-4.45-12.356-11.086-12.356h26.91c6.637 0 11.812 5.766 11.097 12.356zm0 0" fill="#00ad00"/><path d="M342.074 138.727H18.652c-6.16 0-11.152-4.993-11.152-11.153V94.117c0-6.156 4.992-11.152 11.152-11.152h323.422c6.16 0 11.153 4.996 11.153 11.152v33.457c0 6.16-4.993 11.153-11.153 11.153zm0 0" fill="#e3f4ff"/><path d="M247.734 311.473c0 37.093-30.074 67.168-67.168 67.168-37.097 0-67.168-30.075-67.168-67.168s30.07-67.168 67.168-67.168c37.094 0 67.168 30.074 67.168 67.168zm0 0" fill="#ffeee1"/><path d="M231.238 364.895c0-19.403-11.61-35.13-25.933-35.13-14.32 0-25.93 15.727-25.93 35.13 0 19.402 11.61 35.128 25.93 35.128 14.324 0 25.933-15.726 25.933-35.128zm0 0" fill="#aa6344"/><path d="M171.785 383.227c13.719-13.72 16.63-33.051 6.504-43.176-10.125-10.13-29.457-7.215-43.176 6.504s-16.633 33.05-6.504 43.175c10.125 10.125 29.457 7.215 43.176-6.503zm0 0" fill="#c97f4c"/><path d="M342.074 75.465h-16.316V18.652C325.758 8.367 317.387 0 307.102 0h-15.61c-10.285 0-18.652 8.367-18.652 18.652v56.813h-6.91V62.89c0-10.286-8.364-18.653-18.649-18.653h-81.996a7.5 7.5 0 1 0 0 15h81.996a3.656 3.656 0 0 1 3.649 3.653v12.574H109.797V62.89a3.657 3.657 0 0 1 3.652-3.653h19.176a7.5 7.5 0 1 0 0-15h-19.176c-10.285 0-18.652 8.367-18.652 18.653v12.574H18.652C8.367 75.465 0 83.832 0 94.117v33.457c0 9.778 7.566 17.805 17.145 18.578l5.546 48.926a18.345 18.345 0 0 0-2.691 2.45 18.654 18.654 0 0 0-4.66 14.468l22.11 203.352a18.628 18.628 0 0 0 11.945 15.43l7.328 64.671A18.637 18.637 0 0 0 75.253 512h37.872c4.145 0 7.5-3.355 7.5-7.5s-3.355-7.5-7.5-7.5H75.254a3.655 3.655 0 0 1-3.629-3.242l-6.996-61.774H236.12a7.5 7.5 0 0 0 7.5-7.5c0-4.144-3.355-7.5-7.5-7.5H56.703a7.586 7.586 0 0 0-.789-.007 3.643 3.643 0 0 1-3.55-3.25l-22.11-203.348c-.156-1.41.504-2.383.91-2.836s1.3-1.211 2.719-1.211h292.965c1.418 0 2.312.758 2.718 1.211s1.063 1.426.91 2.836l-22.109 203.348a3.648 3.648 0 0 1-3.629 3.257h-35.957a7.5 7.5 0 1 0 0 15h27.32l-7 61.778a3.646 3.646 0 0 1-3.628 3.238H145.785a7.5 7.5 0 1 0 0 15h139.688c9.496 0 17.46-7.113 18.53-16.55l7.329-64.673a18.618 18.618 0 0 0 11.945-15.43l22.11-203.35a18.683 18.683 0 0 0-4.66-14.47 18.546 18.546 0 0 0-2.692-2.449l5.547-48.926c9.578-.773 17.145-8.8 17.145-18.578V94.117c0-10.285-8.368-18.652-18.653-18.652zM287.84 18.652A3.654 3.654 0 0 1 291.492 15h15.61a3.657 3.657 0 0 1 3.652 3.652v56.813h-22.918V18.652zM37.36 191.328l-5.11-45.101h296.227l-5.11 45.101zm308.367-63.754a3.657 3.657 0 0 1-3.653 3.653H18.652A3.654 3.654 0 0 1 15 127.574V94.117a3.657 3.657 0 0 1 3.652-3.652h323.422a3.657 3.657 0 0 1 3.653 3.652zm0 0"/><path d="M45.531 103.61h-.086c-4.144 0-7.457 3.355-7.457 7.5s3.399 7.5 7.543 7.5a7.5 7.5 0 1 0 0-15zm0 0M66.68 103.61h-.09c-4.14 0-7.457 3.355-7.457 7.5s3.402 7.5 7.543 7.5c4.144 0 7.5-3.356 7.5-7.5s-3.356-7.5-7.496-7.5zm0 0M294.133 103.61h-.086c-4.14 0-7.457 3.355-7.457 7.5s3.402 7.5 7.543 7.5c4.144 0 7.5-3.356 7.5-7.5s-3.356-7.5-7.5-7.5zm0 0M315.281 103.61h-.086c-4.144 0-7.457 3.355-7.457 7.5s3.403 7.5 7.543 7.5c4.145 0 7.5-3.356 7.5-7.5s-3.355-7.5-7.5-7.5zm0 0M258.43 103.348H102.297a7.5 7.5 0 1 0 0 15H258.43a7.5 7.5 0 0 0 7.5-7.5c0-4.145-3.356-7.5-7.5-7.5zm0 0M180.566 236.809c-41.171 0-74.668 33.492-74.668 74.664 0 15.8 4.817 30.761 13.957 43.476-2.175 4.336-3.668 8.871-4.355 13.43-1.59 10.566 1.18 20.035 7.805 26.66 5.488 5.488 12.937 8.149 20.972 8.149 11.047 0 23.188-5.032 32.809-14.653v-.004c.078-.074.148-.152.223-.23 6.027 11.754 16.43 19.222 28 19.222 18.433 0 33.43-19.12 33.43-42.628 0-2.102-.126-4.168-.36-6.192a74.601 74.601 0 0 0 16.855-47.23c-.004-41.172-33.496-74.664-74.668-74.664zM133.91 384.434c-3.172-3.172-4.441-8.079-3.578-13.82.98-6.485 4.652-13.321 10.082-18.75 5.43-5.43 12.266-9.106 18.75-10.083a23.177 23.177 0 0 1 3.418-.265c1.164 0 2.277.109 3.336.3l-24.082 24.082a7.502 7.502 0 0 0 5.3 12.805 7.49 7.49 0 0 0 5.305-2.195l24.086-24.086c1.395 7.621-2.27 17.726-10.047 25.504-10.59 10.594-25.507 13.57-32.57 6.508zm71.395 8.09c-7.817 0-15.094-8.075-17.535-19.301 3.851-8.504 4.945-17.446 3.082-25.258 1.89-3.574 4.285-6.375 6.953-8.211v34.062a7.5 7.5 0 0 0 7.5 7.5c4.144 0 7.5-3.355 7.5-7.5v-34.062c6.375 4.402 10.93 14.14 10.93 25.14 0 14.977-8.438 27.63-18.43 27.63zm16.242-64.872c6.324-16.093 2.617-34.886-9.828-47.332a7.51 7.51 0 0 0-10.61 0 7.502 7.502 0 0 0 0 10.61c8.27 8.265 10.672 20.773 6.38 31.433a26.976 26.976 0 0 0-2.184-.097c-8.672 0-16.766 4.136-22.86 11.41-6.547-5.84-15.535-8.23-25.515-6.727-.29.043-.578.102-.864.149-7.25-11.34-5.73-26.489 3.954-36.172a7.497 7.497 0 0 0 0-10.606 7.497 7.497 0 0 0-10.606 0c-13.863 13.864-16.68 35.114-7.695 51.926-4.258 2.36-8.29 5.387-11.91 9.012-.204.203-.399.414-.598.62-5.457-9.16-8.313-19.53-8.313-30.405 0-32.903 26.766-59.668 59.668-59.668 32.899 0 59.668 26.765 59.668 59.668a59.642 59.642 0 0 1-7.543 29.015c-2.902-5.277-6.71-9.68-11.144-12.836zm0 0"/><path d="M189.715 304.156h-18.703a7.5 7.5 0 1 0 0 15h18.703c4.144 0 7.5-3.355 7.5-7.5s-3.36-7.5-7.5-7.5zm0 0M177.016 297.902h6.691a7.5 7.5 0 0 0 7.5-7.5c0-4.144-3.355-7.5-7.5-7.5h-6.691a7.5 7.5 0 1 0 0 15zm0 0"/></svg>