<svg height="512pt" viewBox="0 0 512 512" width="512pt" xmlns="http://www.w3.org/2000/svg"><path d="M7.5 256C7.5 118.758 118.758 7.5 256 7.5S504.5 118.758 504.5 256 393.242 504.5 256 504.5 7.5 393.242 7.5 256zM256 404.598c82.07 0 148.598-66.528 148.598-148.598S338.07 107.402 256 107.402 107.402 173.93 107.402 256 173.93 404.598 256 404.598zm0 0" fill="#83d9ff"/><path d="M256 504.5v-99.898c18.969 0 37.102-3.551 53.781-10.032l34.18 93.91C316.609 498.828 286.969 504.5 256 504.5zm0 0" fill="#3fefef"/><path d="M309.781 394.57c17.168-6.672 32.797-16.441 46.2-28.629l64.25 76.559c-22.25 19.602-48.032 35.29-76.27 45.98zm0 0" fill="#1dd1d9"/><path d="M355.98 365.941a149.428 149.428 0 0 0 32.551-42.64l86.59 50c-14.07 26.238-32.73 49.668-54.89 69.199zm0 0" fill="#17b5ba"/><path d="M400.531 221.309l98.5-17.368c3.59 16.79 5.469 34.2 5.469 52.059 0 11.602-.8 23.012-2.34 34.191l-98.5-17.363c.621-5.52.942-11.137.942-16.828 0-11.95-1.41-23.559-4.07-34.691zm0 0" fill="#9be058"/><path d="M380.54 174.89l86.6-50c14.891 23.938 25.829 50.59 31.891 79.051l-98.5 17.368a147.92 147.92 0 0 0-19.992-46.418zm0 0" fill="#c0ff66"/><path d="M346.91 138.45l64.25-76.571a249.737 249.737 0 0 1 55.98 63.012l-86.6 50a149.634 149.634 0 0 0-33.63-36.442zm0 0" fill="#ffdf46"/><path d="M173.96 21.371C199.649 12.38 227.25 7.5 256 7.5v99.898c-16.75 0-32.852 2.774-47.871 7.883zm0 0" fill="#fc3e81"/><path d="M100.84 61.879c21.691-17.36 46.36-31.16 73.11-40.508h.01l34.169 93.91a147.978 147.978 0 0 0-43.04 23.168zm0 0" fill="#f01054"/><path d="M44.86 124.89a249.737 249.737 0 0 1 55.98-63.011l64.25 76.57a149.634 149.634 0 0 0-33.63 36.442zm0 0" fill="#7884ea"/><path d="M9.84 290.191l98.5-17.363a147.843 147.843 0 0 0 15.129 50.473l-86.59 50a246.735 246.735 0 0 1-27.04-83.11zm0 0" fill="#1685fb"/><path d="M36.879 373.3l86.59-50a149.428 149.428 0 0 0 32.55 42.641L91.77 442.5c-22.16-19.531-40.82-42.96-54.89-69.2zm0 0" fill="#43a3f9"/><path d="M91.77 442.5l64.25-76.559c13.402 12.188 29.03 21.957 46.199 28.63l-34.18 93.91c-28.238-10.692-54.02-26.38-76.27-45.981zm0 0" fill="#64bdff"/><path d="M12.969 203.941c6.062-28.46 17-55.113 31.89-79.05l86.602 50a147.92 147.92 0 0 0-19.992 46.418zm0 0" fill="#4a5be5"/><path d="M388.531 323.3a147.843 147.843 0 0 0 15.13-50.472l98.5 17.363a246.735 246.735 0 0 1-27.04 83.11zm0 0" fill="#1cc939"/><path d="M7.5 256c0-17.86 1.879-35.27 5.469-52.059l98.5 17.368a149.076 149.076 0 0 0-4.07 34.691c0 5.691.32 11.309.94 16.828l-98.5 17.363A250.563 250.563 0 0 1 7.5 256zm0 0" fill="#364ec6"/><path d="M303.871 115.281l34.18-93.91c26.75 9.348 51.418 23.149 73.11 40.508l-64.25 76.57a147.978 147.978 0 0 0-43.04-23.168zm0 0" fill="#f9b200"/><path d="M256 107.398V7.5c28.75 0 56.36 4.879 82.05 13.871l-34.179 93.91c-15.02-5.11-31.121-7.883-47.871-7.883zm0 0" fill="#fd6096"/><path d="M394.453 40.64a7.5 7.5 0 0 0-10.367 2.247 7.504 7.504 0 0 0 2.242 10.367c4.832 3.11 9.52 6.375 14.074 9.781l-54.754 65.25a155.927 155.927 0 0 0-32.187-17.422l29.059-79.84a243.758 243.758 0 0 1 16.109 6.875 7.5 7.5 0 0 0 6.394-13.566C330.777 8.187 294.098 0 256 0 187.621 0 123.332 26.629 74.98 74.98 26.63 123.332 0 187.621 0 256c0 84.328 41.55 163.242 111.152 211.09a7.475 7.475 0 0 0 4.243 1.32 7.488 7.488 0 0 0 6.187-3.254 7.5 7.5 0 0 0-1.934-10.43 241.296 241.296 0 0 1-17.343-13.113l54.617-65.078a156.337 156.337 0 0 0 35.816 22.156l-29.101 79.957a244.625 244.625 0 0 1-16.746-7.71 7.501 7.501 0 0 0-6.801 13.37C176.215 502.685 215.21 512 256 512c68.379 0 132.668-26.629 181.02-74.98C485.37 388.668 512 324.379 512 256c0-87.434-43.941-167.941-117.547-215.36zm71.387 250.762l27.812 4.903a238.397 238.397 0 0 1-21.539 66.597l-73.86-42.648a154.724 154.724 0 0 0 11.74-38.692l24.046 4.239a7.503 7.503 0 0 0 8.688-6.086 7.5 7.5 0 0 0-6.086-8.688l-24.91-4.39c.238-3.52.37-7.063.37-10.637 0-9.785-.914-19.36-2.644-28.648l83.645-14.75a243.325 243.325 0 0 1 2.566 68.828l-27.227-4.797a7.494 7.494 0 0 0-8.687 6.082 7.495 7.495 0 0 0 6.086 8.687zM348.39 478.727l-29.128-80.036c12.96-5.77 25-13.246 35.816-22.156l54.633 65.098c-18.656 15.504-39.297 27.96-61.32 37.094zm-84.89-66.813a155.156 155.156 0 0 0 41.773-7.793l29.082 79.899c-22.582 7.738-46.406 12.109-70.855 12.851zm-7.5-14.816c-77.8 0-141.098-63.293-141.098-141.098S178.2 114.902 256 114.902 397.098 178.2 397.098 256 333.8 397.098 256 397.098zM18.39 296.297l83.614-14.735a154.893 154.893 0 0 0 11.742 38.692l-73.75 42.586a241.014 241.014 0 0 1-21.605-66.543zM15 256c0-14.715 1.324-29.223 3.89-43.398l83.657 14.75A156.311 156.311 0 0 0 99.902 256c0 3.574.133 7.121.371 10.637l-83.925 14.789A240.957 240.957 0 0 1 15 256zm91.008-43.27l-83.992-14.812a237.995 237.995 0 0 1 25.437-62.871l73.633 42.515a155.228 155.228 0 0 0-15.078 35.168zM248.5 100.086a155.093 155.093 0 0 0-35.766 5.922l-29.101-79.992c20.789-6.512 42.566-10.211 64.867-10.887zm-49.96 10.773a155.942 155.942 0 0 0-32.188 17.426L111.586 63.02c17.84-13.41 37.289-24.176 57.875-32.083zm291.42 87.063l-83.968 14.808a155.333 155.333 0 0 0-15.078-35.171l73.656-42.524a239.653 239.653 0 0 1 25.39 62.887zM412.138 72.387a240.797 240.797 0 0 1 44.496 49.91l-73.903 42.672a157.365 157.365 0 0 0-25.234-27.465zm-112.871 33.62a155.093 155.093 0 0 0-35.766-5.921V15.12c22.246.672 43.945 4.328 64.863 10.93zM85.586 85.587c4.613-4.61 9.383-9 14.293-13.188l54.625 65.106a157.341 157.341 0 0 0-25.234 27.46L55.39 122.31a243.753 243.753 0 0 1 30.196-36.723zm5.465 346.101a241.43 241.43 0 0 1-43.98-55.613l73.53-42.457a157.033 157.033 0 0 0 25.2 32.832zm115.672-27.566a155.213 155.213 0 0 0 41.777 7.793v84.969c-24.426-.73-48.125-5.063-70.844-12.895zm219.691 22.293a257.182 257.182 0 0 1-5.465 5.277L366.2 366.45a156.9 156.9 0 0 0 25.2-32.832l73.628 42.516c-10.476 18.156-23.394 35.058-38.613 50.281zm0 0"/></svg>