<svg height="512pt" viewBox="0 -48 512 512" width="512pt" xmlns="http://www.w3.org/2000/svg"><path d="M487.617 398.441h-153.84l-45.496-79.18-51.558-.515a9.202 9.202 0 0 1-9.11-9.203v-67.066H196.2a9.202 9.202 0 0 1-9.199-8.86c-.805-21.57-.145-77.93 24.945-117.351.387-.61.778-1.207 1.176-1.809 7.363-11.09 19.961-21.367 26.688-29.543h187.386a116.155 116.155 0 0 1 7.864 31.625c1.066 10.215.812 20.82-.957 31.633l-22.739 132.996a8.46 8.46 0 0 0 1.325 6.16zm0 0" fill="#fecbaa"/><path d="M487.621 398.445H466.43l-74.938-111.12a8.477 8.477 0 0 1-1.324-6.153l22.738-133.004c1.778-10.809 2.031-21.414.965-31.629a116.24 116.24 0 0 0-7.867-31.621h21.191a116.097 116.097 0 0 1 7.868 31.621c1.066 10.215.812 20.82-.961 31.629l-22.739 133.004a8.458 8.458 0 0 0 1.325 6.152zm0 0" fill="#ffae85"/><path d="M434.113 148.172l-21.656 126.601c-.875 5.122-6.11 8.25-11.031 6.602l-61.73-20.7a9.207 9.207 0 0 1-6.278-8.726V135.72h-30.922a9.121 9.121 0 0 1-5.824-2.082 9.151 9.151 0 0 1-3.379-7.117V82.57h132.93c8.472 19.723 11.707 42.18 7.89 65.602zm0 0" fill="#c97f4c"/><path d="M469.133 352.582c-18.871 6.52-99.875 33.527-154.91 36.29-4.887.241-8.707 4.292-8.707 9.183v6.683c0 5.082 4.117 9.203 9.199 9.203h188.078c5.39 0 9.602-4.605 9.172-9.976-.965-12.082-7.078-32.985-34.883-50.442-2.379-1.492-5.297-1.859-7.95-.941zm0 0" fill="#f80"/><path d="M432.719 106.523h-213.75c-27.54 0-49.86-22.32-49.86-49.859v-46c0-5.082 4.118-9.203 9.2-9.203H363.66c43.223 0 78.262 35.039 78.262 78.262v17.601c0 5.082-4.121 9.2-9.203 9.2zm0 0" fill="#aa6344"/><path d="M189.047 413.941l-19.406-42.175c20.375-20.914 26.863-53.121 13.859-81.383l-26.61-57.84c-4.28-9.297-15.382-13.273-24.538-8.656-8.723 4.398-12.125 15.18-8.012 24.113l-24.117-52.418c-3.211-6.977-11.61-10.293-18.48-6.973-6.661 3.22-9.532 11.23-6.403 18.024L64.375 182.8c-3.21-6.977-11.61-10.293-18.48-6.973-6.66 3.219-9.528 11.23-6.403 18.027l5.559 12.079c-3.13-6.797-11.078-9.829-17.856-6.864-6.988 3.059-9.937 11.594-6.726 18.567l5.406 11.754c-3.125-6.793-11.074-9.828-17.852-6.864-6.992 3.059-9.937 11.594-6.726 18.57l50.547 109.864c8.949 19.445 25.32 33.11 44.156 39.129l10.973 23.851zm0 0" fill="#e89069"/><path d="M132.566 413.941h82.075l-31.895-69.316c20.371-20.91 26.863-53.117 13.86-81.379l-26.614-57.84c-4.277-9.297-15.379-13.273-24.535-8.656-8.723 4.395-12.125 15.18-8.016 24.113l-24.117-52.418c-3.207-6.976-11.605-10.293-18.476-6.972-6.664 3.218-9.528 11.23-6.403 18.023L77.48 155.664c-3.21-6.977-11.609-10.293-18.48-6.973-6.66 3.22-9.531 11.23-6.402 18.028l5.558 12.078c-3.129-6.797-11.078-9.828-17.855-6.863-6.992 3.058-9.938 11.593-6.727 18.57l5.406 11.754c-3.125-6.797-11.074-9.832-17.855-6.867-6.988 3.058-9.934 11.593-6.727 18.57L64.95 323.824c8.95 19.446 25.32 33.106 44.156 39.13zm0 0" fill="#fecbaa"/><path d="M511.95 397.621c-2.294-28.648-24.387-46.578-37.352-54.719-4.278-2.68-9.434-3.28-14.16-1.652h.003c-1.12.387-2.593.89-4.359 1.488l-41.762-61.93a.735.735 0 0 1-.113-.523l8.965-52.41a7.5 7.5 0 0 0-6.129-8.656 7.507 7.507 0 0 0-8.656 6.129l-7.895 46.164a.114.114 0 0 0-.008.035c-.015.082-.054.324-.34.496a.67.67 0 0 1-.593.062l-59.914-20.085c-.59-.2-.989-.747-.989-1.364V137.828c0-4.14-3.359-7.5-7.5-7.5h-30.015c-.34 0-.637-.105-.914-.336a1.381 1.381 0 0 1-.52-1.097v-11.907h122.309c1.39 10.438 1.219 21.078-.508 31.66l-7.625 44.602a7.5 7.5 0 0 0 14.785 2.527l7.637-44.66c2.016-12.375 2.156-24.785.45-36.957 4.358-2.957 7.23-7.953 7.23-13.61V83.466c0-18.598-6-36.207-17.356-50.926-2.531-3.281-7.242-3.89-10.52-1.36a7.505 7.505 0 0 0-1.359 10.52c9.313 12.07 14.235 26.516 14.235 41.766v17.086c0 .789-.641 1.433-1.434 1.433H220.055c-22.555 0-40.903-18.347-40.903-40.902V16.434c0-.79.641-1.434 1.434-1.434h118.617a7.5 7.5 0 0 0 7.5-7.5 7.5 7.5 0 0 0-7.5-7.5H180.586c-9.063 0-16.434 7.371-16.434 16.434v44.652c0 26.203 18.13 48.246 42.5 54.266-18.054 28.652-23.57 65.464-24.925 92.203l-2.403-5.215c-2.883-6.266-8.047-10.969-14.543-13.238-6.453-2.258-13.363-1.805-19.465 1.27a24.684 24.684 0 0 0-7.382 5.679l-13.618-29.594c-2.375-5.16-6.816-9.227-12.183-11.152-5.27-1.895-10.89-1.621-15.832.765-1.656.801-3.156 1.801-4.492 2.961l-2.29-4.98c-2.374-5.16-6.816-9.227-12.187-11.156-5.266-1.891-10.887-1.618-15.828.77-7.988 3.858-12.399 12.362-11.555 20.815-2.14.192-4.277.723-6.34 1.625-5.027 2.2-8.89 6.29-10.882 11.52a21.523 21.523 0 0 0-1.297 9.617c-2.168.188-4.34.723-6.434 1.637-5.027 2.2-8.89 6.293-10.883 11.523-1.734 4.563-1.824 9.633-.328 14.235-.508.175-1.012.367-1.508.582-5.027 2.199-8.894 6.293-10.882 11.523-2.028 5.328-1.829 11.348.546 16.508l49.067 106.645c8.73 18.976 24.726 33.726 44.203 40.898l9.312 20.238a7.5 7.5 0 1 0 13.63-6.27L107.5 381.61a7.497 7.497 0 0 0-4.531-4.007c-16.914-5.407-30.887-17.79-38.332-33.977l-49.07-106.64a6.376 6.376 0 0 1-.153-4.907c.316-.832 1.11-2.34 2.875-3.113a5.536 5.536 0 0 1 1.719-.434L63.73 323.56c8.73 18.972 24.727 33.722 44.204 40.894l21.433 46.586a7.497 7.497 0 0 0 9.946 3.676 7.496 7.496 0 0 0 3.68-9.945l-22.774-49.497a7.475 7.475 0 0 0-4.531-4.007c-16.915-5.41-30.883-17.793-38.333-33.977L28.29 210.645a6.378 6.378 0 0 1-.156-4.907c.316-.832 1.113-2.343 2.879-3.113 2.824-1.238 6.199.074 7.511 2.922v.004c0 .004.004.008.004.008l33.024 71.773a7.499 7.499 0 1 0 13.625-6.27l-38.278-83.19a6.395 6.395 0 0 1-.152-4.907c.317-.832 1.113-2.34 2.875-3.11 2.828-1.238 6.2.075 7.512 2.922l.004.004 38.422 83.508a7.498 7.498 0 0 0 9.945 3.676 7.492 7.492 0 0 0 3.68-9.945l-43.817-95.235c-1.312-2.851-.117-6.265 2.664-7.61 1.735-.84 3.399-.46 4.235-.16 1.601.579 2.925 1.782 3.625 3.31l43.672 94.917a7.507 7.507 0 0 0 6.82 4.367 7.454 7.454 0 0 0 3.129-.691 7.499 7.499 0 0 0 3.68-9.945l-33.028-71.782c-1.312-2.851-.117-6.265 2.664-7.613 1.735-.836 3.399-.457 4.235-.156a6.383 6.383 0 0 1 3.628 3.308l39.91 86.747a7.503 7.503 0 0 0 9.95 3.675 7.499 7.499 0 0 0 3.68-9.945l-16.504-35.863c-2.344-5.098-.395-11.188 4.343-13.578a9.85 9.85 0 0 1 7.762-.504 10.058 10.058 0 0 1 5.867 5.347l25.836 56.145c10.895 23.687 6.067 52.07-12.015 70.633a7.501 7.501 0 0 0-1.442 8.367l30.961 67.285a7.506 7.506 0 0 0 6.816 4.367c1.051 0 2.118-.222 3.133-.691a7.494 7.494 0 0 0 3.676-9.945l-28.883-62.782c19.461-22.922 24.117-55.816 11.38-83.504l-4.384-9.523h20.164v57.602c0 8.968 7.297 16.34 16.27 16.433l45.762.457 30.207 52.563c-.344.02-.692.043-1.035.058-8.735.438-15.579 7.645-15.579 16.406v6.489c0 9.062 7.372 16.433 16.43 16.433H495.57c4.567 0 8.965-1.925 12.063-5.28a16.54 16.54 0 0 0 4.316-12.5zm-218.11-85.36a7.505 7.505 0 0 0-6.43-3.765l-50.05-.5a1.436 1.436 0 0 1-1.419-1.433v-20.34c3.473-.024 7.813-.2 12.551-.73 15.75-1.77 27.856-6.454 35.977-13.915 7.535-6.93 11.36-15.926 11.36-26.742a7.5 7.5 0 0 0-7.5-7.5 7.497 7.497 0 0 0-7.5 7.5c0 6.523-2.126 11.656-6.493 15.68-9.324 8.59-27.207 10.617-38.395 10.726v-29.781c0-4.14-3.359-7.5-7.5-7.5H197.95a1.431 1.431 0 0 1-1.433-1.379c-2.38-64.098 16.066-99.148 24.105-111.246a59.042 59.042 0 0 1 3.219-4.348h60.86v11.91c0 4.957 2.202 9.594 6.01 12.696a16.398 16.398 0 0 0 10.423 3.734h22.515v105.328a16.433 16.433 0 0 0 11.215 15.582l59.918 20.09c1.633.547 3.317.817 5 .817.313 0 .625-.012.938-.032.34.715.719 1.414 1.164 2.078l39.387 58.407c-26.692 8.507-73.079 22.047-111.668 26.89zm202.77 87.684a1.387 1.387 0 0 1-1.044.457h-182.57c-.789 0-1.434-.644-1.434-1.433v-6.489c0-.761.586-1.386 1.333-1.425 53.562-2.688 130.226-27.95 152.445-35.625.14-.051.289-.075.441-.075.285 0 .578.086.84.25 10.586 6.645 28.606 21.094 30.375 43.211.043.543-.184.914-.387 1.13zm0 0"/><path d="M331.863 15h28.645c11.117 0 21.742 2.598 31.574 7.719a7.438 7.438 0 0 0 3.457.851 7.5 7.5 0 0 0 3.473-14.152C387.187 3.258 373.872 0 360.508 0h-28.64a7.5 7.5 0 0 0-7.5 7.5c0 4.145 3.355 7.5 7.495 7.5zm0 0M259.441 168.215a7.504 7.504 0 0 0-10.043 3.414c-.347.707-1.148 1.465-2.347 1.465s-2-.754-2.348-1.461c-1.824-3.719-6.324-5.246-10.039-3.422a7.503 7.503 0 0 0-3.418 10.043c2.988 6.07 9.043 9.84 15.805 9.84s12.816-3.77 15.808-9.836a7.5 7.5 0 0 0-3.418-10.043zm0 0M110.344 83.754h.039a7.495 7.495 0 0 0 7.46-7.54l-.011-1.866a7.498 7.498 0 0 0-7.496-7.461h-.04a7.505 7.505 0 0 0-7.464 7.539l.012 1.867a7.501 7.501 0 0 0 7.5 7.46zm0 0M110.398 94.418h-.035a7.5 7.5 0 0 0-7.465 7.535l.008 1.867a7.502 7.502 0 0 0 7.5 7.465h.035a7.5 7.5 0 0 0 7.465-7.535l-.008-1.867a7.502 7.502 0 0 0-7.5-7.465zm0 0M123.2 96.563h.042l1.867-.012a7.501 7.501 0 0 0-.04-15h-.038l-1.867.011a7.497 7.497 0 0 0-7.46 7.54 7.498 7.498 0 0 0 7.495 7.46zm0 0M95.672 96.625h.039l1.867-.012a7.5 7.5 0 0 0 7.461-7.539 7.499 7.499 0 0 0-7.5-7.46H97.5l-1.867.007a7.502 7.502 0 1 0 .04 15.004zm0 0M28.191 118h.04a7.505 7.505 0 0 0 7.46-7.54l-.007-1.866a7.501 7.501 0 0 0-7.5-7.461h-.043c-4.141.02-7.48 3.398-7.461 7.539l.011 1.867a7.499 7.499 0 0 0 7.5 7.461zm0 0M28.246 128.664h-.043c-4.14.02-7.48 3.395-7.46 7.54l.01 1.866a7.499 7.499 0 0 0 7.5 7.461h.04a7.5 7.5 0 0 0 7.46-7.539l-.01-1.87c-.02-4.126-3.376-7.458-7.497-7.458zm0 0M41.047 130.805h.043l1.867-.008a7.505 7.505 0 0 0 7.461-7.54c-.023-4.128-3.375-7.464-7.5-7.464h-.04l-1.866.012a7.5 7.5 0 0 0-7.461 7.539 7.498 7.498 0 0 0 7.496 7.46zm0 0M13.516 130.867h.043l1.867-.008a7.505 7.505 0 0 0 7.46-7.539 7.501 7.501 0 0 0-7.5-7.46h-.038l-1.868.011a7.495 7.495 0 0 0-7.46 7.54c.02 4.124 3.375 7.456 7.496 7.456zm0 0M147.93 118.035h.035a7.497 7.497 0 0 0 7.465-7.535l-.008-1.867a7.499 7.499 0 0 0-7.496-7.465h-.04a7.502 7.502 0 0 0-7.464 7.535l.012 1.867a7.496 7.496 0 0 0 7.496 7.465zm0 0M147.984 128.7h-.035a7.502 7.502 0 0 0-7.465 7.534l.012 1.868a7.499 7.499 0 0 0 7.496 7.464h.035a7.5 7.5 0 0 0 7.465-7.535l-.008-1.867a7.5 7.5 0 0 0-7.5-7.465zm0 0M160.79 130.84h.034l1.867-.008a7.5 7.5 0 0 0 7.465-7.535 7.496 7.496 0 0 0-7.496-7.465h-.039l-1.867.008a7.502 7.502 0 0 0-7.465 7.535 7.502 7.502 0 0 0 7.5 7.465zm0 0M125.758 123.438a7.5 7.5 0 0 0 7.5 7.464h.035l1.867-.007a7.5 7.5 0 0 0 7.465-7.536 7.5 7.5 0 0 0-7.5-7.464h-.035l-1.867.007a7.502 7.502 0 0 0-7.465 7.535zm0 0"/></svg>