<svg height="512pt" viewBox="-36 0 512 512" width="512pt" xmlns="http://www.w3.org/2000/svg"><path d="M169.762 400.68l38 95.804c4.238 10.688 19.367 10.688 23.605 0l38.004-95.804zm0 0" fill="#4e7693"/><path d="M269.367 400.68l-38 95.8c-3.562 8.97-14.781 10.41-20.8 4.32 1.16-1.16 2.12-2.6 2.8-4.32l38-95.8zm0 0" fill="#38627c"/><path d="M158.785 95.2v298.335c0 5.98 4.848 10.828 10.828 10.828h99.895c5.98 0 10.828-4.847 10.828-10.828V95.2zm0 0" fill="#64bdff"/><path d="M280.336 95.2v298.34c0 5.98-4.852 10.82-10.832 10.82h-22.738c5.98 0 10.832-4.84 10.832-10.82V95.2zm0 0" fill="#43a3f9"/><path d="M158.785 95.2v298.335c0 5.98 4.848 10.828 10.828 10.828h49.95V95.2zm0 0" fill="#1685fb"/><path d="M329.348 96.172c0-24.524-15.25-45.484-36.782-53.926C289.852 22.617 273.008 7.5 252.633 7.5c-11.567 0-21.988 4.867-29.344 12.668a13.74 13.74 0 0 0-3.723 9.422v171.262c0 9.835 7.887 17.937 17.723 18.015h.207c12.93 0 23.668-9.375 25.797-21.695 1.61.18 3.238.273 4.894.273 23.91 0 43.29-19.379 43.29-43.285 0-4.918-.82-9.64-2.332-14.047 12.367-10.617 20.203-26.363 20.203-43.941zm0 0" fill="#fc3e81"/><path d="M109.785 96.172c0-24.524 15.246-45.484 36.781-53.926C149.277 22.617 166.121 7.5 186.5 7.5c11.563 0 21.988 4.867 29.34 12.668a13.725 13.725 0 0 1 3.726 9.422v171.262c0 9.835-7.886 17.937-17.722 18.015h-.207c-12.934 0-23.668-9.375-25.801-21.695-1.606.18-3.238.273-4.895.273-23.906 0-43.285-19.379-43.285-43.285 0-4.918.82-9.64 2.332-14.047-12.367-10.617-20.203-26.363-20.203-43.941zm0 0" fill="#fd82ac"/><path d="M292.578 452.137c-.605.207-1.215.41-1.824.613a7.5 7.5 0 0 0-4.774 9.473 7.504 7.504 0 0 0 7.122 5.152c.777 0 1.57-.121 2.347-.379.66-.219 1.317-.437 1.969-.66a7.5 7.5 0 0 0 4.68-9.52 7.5 7.5 0 0 0-9.52-4.68zm0 0M267.496 458.844c-.629.12-1.258.242-1.89.36a7.5 7.5 0 0 0-6 8.745 7.5 7.5 0 0 0 8.746 6c.68-.125 1.355-.258 2.03-.39 4.063-.797 6.716-4.739 5.919-8.801a7.5 7.5 0 0 0-8.805-5.914zm0 0M424.926 215.082a7.5 7.5 0 0 0-5.617 8.996c.144.621.28 1.242.421 1.867a7.499 7.499 0 0 0 7.317 5.89c.535 0 1.078-.058 1.621-.179a7.495 7.495 0 0 0 5.707-8.937c-.145-.676-.297-1.348-.453-2.02a7.503 7.503 0 0 0-8.996-5.617zm0 0M400.992 175.621c.305.563.606 1.129.906 1.695a7.495 7.495 0 0 0 10.133 3.13c3.664-1.934 5.063-6.473 3.13-10.137-.325-.61-.65-1.22-.977-1.825a7.495 7.495 0 0 0-10.164-3.027 7.495 7.495 0 0 0-3.028 10.164zm0 0M371.805 135.105a7.487 7.487 0 0 0 5.48 2.38 7.477 7.477 0 0 0 5.121-2.024c3.024-2.832 3.184-7.578.352-10.602-.473-.504-.945-1.007-1.422-1.507a7.503 7.503 0 0 0-10.606-.247 7.498 7.498 0 0 0-.246 10.602c.442.465.883.934 1.32 1.398zm0 0M388.258 155.203a7.48 7.48 0 0 0 6.117 3.156 7.463 7.463 0 0 0 4.34-1.39 7.501 7.501 0 0 0 1.765-10.461c-.402-.563-.808-1.13-1.218-1.688a7.5 7.5 0 0 0-10.48-1.644 7.5 7.5 0 0 0-1.645 10.476c.379.516.75 1.036 1.12 1.551zm0 0M430.207 241.547a7.501 7.501 0 0 0-6.77 8.168c.06.637.118 1.273.168 1.914a7.502 7.502 0 0 0 8.094 6.855 7.503 7.503 0 0 0 6.856-8.097 185.05 185.05 0 0 0-.184-2.07c-.383-4.126-4.047-7.145-8.164-6.77zm0 0M411.781 199.23c.227.602.453 1.204.672 1.81a7.507 7.507 0 0 0 7.043 4.913c.86 0 1.734-.148 2.586-.465a7.497 7.497 0 0 0 4.45-9.625c-.235-.644-.477-1.289-.72-1.93a7.496 7.496 0 0 0-9.664-4.367 7.496 7.496 0 0 0-4.367 9.664zm0 0M424.664 321.879c-3.945-1.246-8.164.937-9.414 4.887-.191.617-.39 1.226-.59 1.84-1.293 3.933.856 8.171 4.79 9.464a7.512 7.512 0 0 0 2.34.375 7.51 7.51 0 0 0 7.124-5.168c.215-.66.43-1.32.637-1.984a7.5 7.5 0 0 0-4.887-9.414zm0 0M403.484 371.441a7.5 7.5 0 0 0-10.37 2.215c-.348.54-.7 1.074-1.055 1.606a7.503 7.503 0 0 0 6.242 11.648c2.43 0 4.816-1.18 6.258-3.355.382-.578.765-1.157 1.14-1.742 2.254-3.473 1.262-8.118-2.215-10.372zm0 0M415.746 347.379c-3.746-1.774-8.215-.168-9.988 3.574-.274.586-.551 1.168-.832 1.746a7.503 7.503 0 0 0 6.746 10.77 7.495 7.495 0 0 0 6.754-4.235c.304-.62.601-1.246.898-1.87a7.505 7.505 0 0 0-3.578-9.985zm0 0M430.082 295.414c-4.074-.703-7.96 2.027-8.672 6.106-.11.632-.223 1.265-.34 1.898a7.499 7.499 0 0 0 7.387 8.855c3.547 0 6.7-2.527 7.367-6.14.125-.684.246-1.363.363-2.043.711-4.078-2.023-7.965-6.105-8.676zm0 0M431.922 268.488c-4.137-.156-7.625 3.063-7.785 7.203-.024.641-.055 1.286-.086 1.922a7.5 7.5 0 0 0 7.5 7.864 7.498 7.498 0 0 0 7.484-7.137c.035-.688.063-1.375.09-2.067a7.498 7.498 0 0 0-7.203-7.785zm0 0M316.512 442.14c-.567.286-1.14.563-1.711.844a7.496 7.496 0 0 0-3.473 10.02 7.499 7.499 0 0 0 10.024 3.473c.625-.301 1.246-.61 1.863-.918a7.5 7.5 0 1 0-6.703-13.418zm0 0M363.383 116.305a7.498 7.498 0 0 0-1.059-10.555c-.535-.438-1.074-.871-1.613-1.305a7.5 7.5 0 1 0-9.379 11.707c.504.399 1.004.805 1.5 1.211a7.462 7.462 0 0 0 4.742 1.692 7.467 7.467 0 0 0 5.809-2.75zm0 0M338.91 429.02c-.527.359-1.055.714-1.586 1.07a7.493 7.493 0 0 0-2.101 10.394 7.487 7.487 0 0 0 10.394 2.102c.578-.383 1.153-.77 1.727-1.16a7.5 7.5 0 0 0 1.988-10.418 7.511 7.511 0 0 0-10.422-1.988zm0 0M388.133 393.652a7.499 7.499 0 0 0-10.574.817c-.418.488-.84.972-1.262 1.457a7.5 7.5 0 0 0 11.293 9.87 169.9 169.9 0 0 0 1.36-1.57 7.5 7.5 0 0 0-.817-10.574zm0 0M359.379 413.035c-.477.43-.957.852-1.438 1.274a7.5 7.5 0 1 0 9.891 11.28c.52-.456 1.035-.913 1.55-1.374a7.502 7.502 0 1 0-10.003-11.18zm0 0M7.43 258.48a7.502 7.502 0 0 0 8.094-6.852c.054-.64.109-1.276.171-1.913a7.507 7.507 0 0 0-6.77-8.168c-4.12-.375-7.78 2.644-8.167 6.77-.063.69-.125 1.378-.184 2.07-.34 4.129 2.727 7.754 6.856 8.093zm0 0M17.047 205.488a7.45 7.45 0 0 0 2.59.465 7.498 7.498 0 0 0 7.039-4.914c.222-.601.449-1.207.676-1.809 1.46-3.875-.493-8.203-4.368-9.664a7.5 7.5 0 0 0-9.668 4.368c-.242.64-.48 1.285-.718 1.93-1.43 3.886.562 8.198 4.449 9.624zm0 0M10.465 231.656c.543.121 1.086.18 1.62.18a7.505 7.505 0 0 0 7.317-5.89c.137-.626.278-1.247.422-1.868a7.505 7.505 0 0 0-5.62-8.996c-4.032-.93-8.063 1.582-8.997 5.617-.156.672-.305 1.348-.453 2.02a7.498 7.498 0 0 0 5.71 8.937zm0 0M27.102 180.445a7.495 7.495 0 0 0 10.133-3.129c.3-.566.6-1.132.906-1.695a7.498 7.498 0 0 0-3.028-10.164 7.495 7.495 0 0 0-10.164 3.027c-.328.606-.656 1.215-.976 1.825a7.498 7.498 0 0 0 3.129 10.136zm0 0M40.418 156.969a7.493 7.493 0 0 0 10.457-1.762c.371-.52.742-1.039 1.117-1.555a7.496 7.496 0 0 0-1.644-10.476 7.496 7.496 0 0 0-10.477 1.644c-.41.563-.816 1.125-1.219 1.692a7.494 7.494 0 0 0 1.766 10.457zm0 0M61.848 137.484c2.004 0 4.004-.8 5.48-2.379.438-.464.879-.933 1.32-1.394a7.502 7.502 0 0 0-10.852-10.36c-.476.5-.948 1.004-1.421 1.508a7.5 7.5 0 0 0 5.473 12.625zm0 0M88.96 105.61c-2.589-3.231-7.308-3.758-10.542-1.165-.54.434-1.078.868-1.61 1.305a7.502 7.502 0 0 0 4.75 13.309 7.466 7.466 0 0 0 4.743-1.696c.496-.406.996-.808 1.496-1.21a7.499 7.499 0 0 0 1.164-10.544zm0 0M101.809 430.09c-.532-.356-1.063-.711-1.59-1.067a7.502 7.502 0 0 0-10.418 1.985 7.505 7.505 0 0 0 1.988 10.422c.574.386 1.148.773 1.727 1.156a7.487 7.487 0 0 0 10.395-2.102 7.501 7.501 0 0 0-2.102-10.394zm0 0M124.332 442.98a174.25 174.25 0 0 1-1.71-.84 7.495 7.495 0 0 0-10.063 3.356 7.503 7.503 0 0 0 3.355 10.063c.621.308 1.242.613 1.867.918a7.503 7.503 0 0 0 10.023-3.473 7.501 7.501 0 0 0-3.472-10.024zm0 0M173.527 459.203c-.632-.117-1.261-.238-1.89-.36-4.063-.8-8.008 1.852-8.805 5.915s1.852 8.008 5.918 8.805c.676.132 1.352.261 2.031.386.465.086.926.13 1.383.13a7.502 7.502 0 0 0 1.363-14.875zm0 0M148.379 452.75c-.61-.203-1.219-.406-1.828-.613a7.5 7.5 0 0 0-4.836 14.199c.652.223 1.308.441 1.965.66.78.258 1.57.379 2.351.379a7.5 7.5 0 0 0 2.348-14.625zm0 0M81.191 414.313c-.48-.426-.96-.848-1.441-1.278a7.5 7.5 0 0 0-10 11.18c.516.46 1.031.918 1.55 1.375a7.487 7.487 0 0 0 4.942 1.86c2.086 0 4.16-.864 5.64-2.555a7.495 7.495 0 0 0-.69-10.583zm0 0M7.95 285.469a7.494 7.494 0 0 0 7.128-7.852c-.031-.64-.058-1.281-.082-1.926-.164-4.14-3.644-7.379-7.785-7.203a7.503 7.503 0 0 0-7.207 7.785c.027.692.058 1.383.094 2.07a7.5 7.5 0 0 0 7.484 7.137c.121 0 .246-.003.367-.011zm0 0M61.574 394.469a7.5 7.5 0 0 0-11.39 9.758c.449.527.902 1.046 1.355 1.57a7.49 7.49 0 0 0 5.652 2.562c1.75 0 3.508-.609 4.93-1.851a7.497 7.497 0 0 0 .715-10.582c-.422-.485-.844-.969-1.262-1.457zm0 0M24.473 328.605c-.2-.613-.399-1.226-.594-1.84a7.498 7.498 0 0 0-9.414-4.886 7.5 7.5 0 0 0-4.887 9.414c.211.664.422 1.324.64 1.984a7.502 7.502 0 0 0 9.466 4.79 7.5 7.5 0 0 0 4.789-9.462zm0 0M12.043 312.148a7.499 7.499 0 0 0 6.02-8.73c-.118-.633-.231-1.266-.34-1.898a7.502 7.502 0 0 0-8.676-6.106 7.503 7.503 0 0 0-6.102 8.676c.118.683.239 1.363.364 2.043a7.507 7.507 0 0 0 7.367 6.144c.449-.004.906-.043 1.367-.129zm0 0M46.02 373.656a7.5 7.5 0 1 0-12.59 8.156c.379.586.757 1.165 1.144 1.743a7.487 7.487 0 0 0 6.254 3.355 7.499 7.499 0 0 0 6.242-11.648c-.351-.532-.703-1.067-1.05-1.606zm0 0M34.207 352.7a181.14 181.14 0 0 1-.836-1.747c-1.77-3.742-6.242-5.348-9.984-3.574a7.497 7.497 0 0 0-3.575 9.984c.293.625.594 1.246.895 1.871a7.495 7.495 0 0 0 10.016 3.485 7.503 7.503 0 0 0 3.484-10.02zm0 0M317.625 142.48a65.345 65.345 0 0 0 19.223-46.308 65.177 65.177 0 0 0-4.051-22.684 7.499 7.499 0 0 0-9.637-4.433 7.499 7.499 0 0 0-4.433 9.636 50.203 50.203 0 0 1 3.12 17.48 50.333 50.333 0 0 1-10.859 31.22c-7.476-11.368-19.168-19.368-32.531-21.918-.363-8.383-2.836-16.336-7.207-23.125a7.497 7.497 0 0 0-10.367-2.243c-3.48 2.243-4.488 6.883-2.242 10.364 3.187 4.949 4.87 10.89 4.87 17.187 0 7.344-2.331 14.281-6.57 19.535a7.504 7.504 0 0 0 1.133 10.547 7.473 7.473 0 0 0 4.703 1.66 7.477 7.477 0 0 0 5.844-2.793c3.781-4.69 6.547-10.214 8.176-16.18 11.262 2.598 21.02 11.106 25.297 22.259a35.77 35.77 0 0 1 1.883 11.476c0 21.008-18.235 37.875-39.668 35.57-6.805-1.097-13.16-4.277-18.387-9.214a7.5 7.5 0 0 0-10.602.3 7.504 7.504 0 0 0 .301 10.606c5.234 4.941 11.297 8.648 17.848 10.965a18.634 18.634 0 0 1-15.973 8.984l-.148-.004c-5.672-.043-10.282-4.762-10.282-10.515V61.516c7.875.05 15.493 3.004 21.422 8.441a7.48 7.48 0 0 0 5.067 1.973 7.49 7.49 0 0 0 5.53-2.434 7.505 7.505 0 0 0-.46-10.598c-8.73-8-19.953-12.336-31.562-12.378V29.59c0-1.606.597-3.125 1.683-4.278C235.02 18.66 243.5 15 252.633 15c16.3 0 30.277 12.156 32.504 28.273a7.506 7.506 0 0 0 4.695 5.957 50.344 50.344 0 0 1 11.89 6.657 7.501 7.501 0 0 0 10.505-1.48 7.496 7.496 0 0 0-1.48-10.5 65.523 65.523 0 0 0-11.544-6.966C294.223 15.605 274.922 0 252.633 0c-12.293 0-24.211 4.813-33.067 13.281C210.707 4.812 198.793 0 186.5 0c-22.285 0-41.586 15.602-46.57 36.938-23.004 10.738-37.645 33.546-37.645 59.234a65.352 65.352 0 0 0 19.223 46.308 50.859 50.859 0 0 0-1.352 11.68c0 21.035 12.86 39.113 31.121 46.813v111.699a7.5 7.5 0 1 0 15 0V204.719a49.42 49.42 0 0 0 3.97.222 33.6 33.6 0 0 0 31.386 21.43l.156-.004h.113a25.036 25.036 0 0 0 10.164-2.242v172.754H169.61a3.338 3.338 0 0 1-3.332-3.332v-48.219a7.5 7.5 0 1 0-15 0v48.219c0 8.867 6.332 16.281 14.715 17.969l34.801 87.734c3.07 7.746 10.441 12.75 18.773 12.75 8.332 0 15.704-5.004 18.774-12.75l34.8-87.734c8.38-1.688 14.712-9.102 14.712-17.97v-83.218a7.5 7.5 0 1 0-15 0v83.219a3.334 3.334 0 0 1-3.329 3.332h-42.457V224.133a24.873 24.873 0 0 0 10.118 2.234h.312c14.14 0 26.45-8.691 31.39-21.426a49.22 49.22 0 0 0 3.966-.222v72.949a7.5 7.5 0 0 0 7.5 7.5c4.144 0 7.5-3.356 7.5-7.5v-76.695c18.265-7.7 31.125-25.778 31.125-46.813 0-3.957-.454-7.87-1.352-11.68zM224.398 493.72c-1.175 2.96-3.773 3.281-4.832 3.281-1.062 0-3.656-.32-4.832-3.281l-32.46-81.84h74.585zm-22.554-282.352h-.211a18.634 18.634 0 0 1-15.973-8.984c6.55-2.313 12.617-6.02 17.848-10.965a7.496 7.496 0 0 0 .3-10.602 7.496 7.496 0 0 0-10.601-.3c-5.223 4.933-11.582 8.117-18.387 9.214a36.02 36.02 0 0 1-3.879.215c-19.734 0-35.785-16.054-35.785-35.785 0-3.93.633-7.789 1.88-11.476 4.28-11.153 14.038-19.66 25.296-22.258 1.633 5.965 4.398 11.488 8.176 16.18a7.49 7.49 0 0 0 5.847 2.792 7.47 7.47 0 0 0 4.7-1.66c3.226-2.597 3.73-7.32 1.132-10.547-4.234-5.254-6.57-12.191-6.57-19.535 0-6.297 1.688-12.238 4.875-17.187a7.496 7.496 0 0 0-2.246-10.364 7.497 7.497 0 0 0-10.367 2.243c-4.371 6.789-6.84 14.742-7.207 23.125-13.36 2.55-25.05 10.55-32.527 21.918a50.333 50.333 0 0 1-10.86-31.22c0-20.894 12.567-39.32 32.016-46.94a7.501 7.501 0 0 0 4.691-5.958C156.222 27.156 170.195 15 186.5 15c9.133 0 17.613 3.66 23.883 10.313a6.2 6.2 0 0 1 1.683 4.277v16.93c-11.609.046-22.828 4.378-31.558 12.378a7.502 7.502 0 0 0 5.066 13.032 7.472 7.472 0 0 0 5.067-1.973c5.933-5.437 13.547-8.39 21.425-8.441v139.336c0 5.753-4.613 10.472-10.222 10.515zm0 0"/></svg>