<svg height="512pt" viewBox="0 -25 512 511" width="512pt" xmlns="http://www.w3.org/2000/svg"><path d="M308.504 298c0 83.117-67.383 150.5-150.5 150.5C74.883 448.5 7.5 381.117 7.5 298c0-83.121 67.383-150.504 150.504-150.504 83.117 0 150.5 67.383 150.5 150.504zm0 0" fill="#fc3e81"/><path d="M504.5 298c0 83.117-67.383 150.5-150.504 150.5-83.117 0-150.5-67.383-150.5-150.5 0-83.121 67.383-150.504 150.5-150.504C437.117 147.496 504.5 214.88 504.5 298zm0 0" fill="#ffdf46"/><path d="M301.5 343.5c-8.55 27-24.512 50.7-45.5 68.719-20.988-18.02-36.95-41.719-45.5-68.719 14.352 4.55 29.64 7 45.5 7s31.148-2.45 45.5-7zm0 0" fill="#f80"/><path d="M406.504 200.004c0 83.117-67.383 150.5-150.504 150.5s-150.504-67.383-150.504-150.5C105.496 116.883 172.88 49.5 256 49.5s150.504 67.383 150.504 150.504zm0 0" fill="#43a3f9"/><path d="M308.5 298c0 15.86-2.45 31.148-7 45.5-14.352 4.55-29.64 7-45.5 7s-31.148-2.45-45.5-7c-4.55-14.352-7-29.64-7-45.5 0-45.691 20.36-86.621 52.5-114.219C288.14 211.38 308.5 252.31 308.5 298zm0 0" fill="#3fefef"/><path d="M203.5 298c0 15.86 2.45 31.148 7 45.5-60.879-19.29-105-76.238-105-143.5 0-15.86 2.45-31.148 7-45.5 14.352-4.55 29.64-7 45.5-7 37.43 0 71.672 13.66 98 36.281C223.86 211.38 203.5 252.31 203.5 298zm0 0" fill="#7884ea"/><path d="M406.5 200c0 67.262-44.121 124.21-105 143.5 4.55-14.352 7-29.64 7-45.5 0-45.691-20.36-86.621-52.5-114.219 26.328-22.62 60.57-36.281 98-36.281 15.86 0 31.148 2.45 45.5 7 4.55 14.352 7 29.64 7 45.5zm0 0" fill="#9be058"/><path d="M311 63c0 30.375-24.625 55-55 55s-55-24.625-55-55 24.625-55 55-55 55 24.625 55 55zm0 0" fill="#e3f4ff"/><path d="M311 63c0 30.371-24.629 55-55 55-3.773 0-7.445-.375-11-1.11 25.102-5.093 44-27.292 44-53.89s-18.898-48.797-44-53.89A54.272 54.272 0 0 1 256 8c30.371 0 55 24.629 55 55zm0 0" fill="#bddff4"/><path d="M448.242 347.813l-13.008-27.7c-1.8-3.832-7.254-3.832-9.05 0l-13.012 27.7zm0 0" fill="#4e7693"/><path d="M453.43 356.07V444c0 5.52-4.47 10-10 10h-25.442c-5.527 0-10-4.48-10-10v-87.93c0-5.53 4.473-10 10-10h25.442a9.99 9.99 0 0 1 10 10zm0 0" fill="#43a3f9"/><path d="M453.43 356.07V444c0 5.52-4.47 10-10 10h-12.72V346.07h12.72a9.99 9.99 0 0 1 10 10zm0 0" fill="#1685fb"/><path d="M453.43 427.629v16.367c0 5.52-4.473 10-10 10h-25.442c-5.531 0-10-4.48-10-10V427.63zm0 0" fill="#fd82ac"/><path d="M83.309 416.941h35.004c1.707-14.187 7.378-27.648 16.128-39.132a42.023 42.023 0 0 0 8.614-25.563c0-24.008-20.024-43.336-44.285-42.195-21.77 1.023-39.356 18.789-40.172 40.566-.387 10.348 2.945 19.899 8.77 27.434 8.765 11.336 14.273 24.777 15.94 38.89zm0 0" fill="#ffdf46"/><path d="M143.059 352.25c0 9.61-3.22 18.46-8.618 25.559-8.75 11.48-14.421 24.941-16.132 39.132H99.62c1.707-14.191 7.379-27.652 16.129-39.132a42.067 42.067 0 0 0 8.61-25.559c0-20.11-14.051-36.95-32.88-41.21 2.36-.54 4.801-.868 7.29-.99 24.261-1.14 44.289 18.188 44.289 42.2zm0 0" fill="#f9b200"/><path d="M118.082 453.996H83.539a6.282 6.282 0 0 1-6.281-6.281v-25.75a6.282 6.282 0 0 1 6.281-6.281h34.547a6.278 6.278 0 0 1 6.277 6.28v25.75a6.282 6.282 0 0 1-6.281 6.282zm0 0" fill="#a7c7d3"/><path d="M512 298c0-69.098-44.59-127.973-106.5-149.379-5.508-16.027-13.637-31.148-24.246-44.926a7.498 7.498 0 0 0-10.516-1.367 7.498 7.498 0 0 0-1.367 10.52c7.379 9.582 13.43 19.886 18.102 30.73A158.113 158.113 0 0 0 353.996 140c-36.957 0-70.988 12.758-97.93 34.098a157.711 157.711 0 0 0-43.03-24.243c-3.884-1.445-8.2.536-9.645 4.418a7.504 7.504 0 0 0 4.418 9.645 142.606 142.606 0 0 1 36.754 20.227C214.645 212.91 195.996 253.316 195.996 298c0 11.426 1.219 22.594 3.535 33.371C148.684 309.43 112.996 258.81 112.996 200c0-13.492 1.895-26.738 5.535-39.46a142.66 142.66 0 0 1 39.473-5.544c6.437 0 12.96.441 19.394 1.313 4.102.558 7.883-2.32 8.442-6.422a7.504 7.504 0 0 0-6.426-8.442A160.253 160.253 0 0 0 158 139.996a157.98 157.98 0 0 0-33.43 3.57 143.032 143.032 0 0 1 13.485-24.453c14.265-20.758 33.5-37.207 55.984-48.015 3.984 30.648 30.242 54.402 61.957 54.402s57.969-23.746 61.957-54.387A142.965 142.965 0 0 1 347.52 90.13a7.466 7.466 0 0 0 4.796 1.738 7.497 7.497 0 0 0 4.809-13.258 157.51 157.51 0 0 0-39.203-23.972C313.82 24.113 287.625.5 256 .5c-31.621 0-57.816 23.61-61.922 54.125-27.656 11.785-51.265 31.078-68.383 55.992a157.376 157.376 0 0 0-19.14 37.985C44.613 169.992 0 228.879 0 298c0 52.82 26.027 101.578 69.758 131.059v18.656c0 7.601 6.183 13.781 13.781 13.781h34.543c5.492 0 10.227-3.234 12.441-7.89a159.516 159.516 0 0 0 27.48 2.394c36.938 0 70.954-12.746 97.888-34.063 22.375 17.727 49.757 29.563 79.96 33.02a7.501 7.501 0 0 0 8.3-6.598 7.497 7.497 0 0 0-6.596-8.304c-26.344-3.016-50.32-13.078-70.149-28.172 17.887-17.188 31.742-38.535 40.004-62.473C369.367 328.031 414 269.133 414 200.004c0-11.36-1.188-22.516-3.504-33.36C461.328 188.59 497 239.205 497 298c0 35.082-12.992 68.895-36.066 94.922v-36.86c0-5.765-2.817-10.875-7.133-14.066l-11.778-25.07c-2.082-4.434-6.418-7.188-11.312-7.188-4.899 0-9.234 2.754-11.316 7.188l-11.778 25.07c-4.316 3.191-7.133 8.3-7.133 14.066v77.204a142.633 142.633 0 0 1-31.875 7 7.502 7.502 0 0 0-6.707 8.218 7.503 7.503 0 0 0 8.22 6.703 157.397 157.397 0 0 0 31.054-6.37c2.101 7.308 8.832 12.68 16.808 12.68h25.45c9.652 0 17.5-7.852 17.5-17.5V414.3C493.398 384.43 512 342.125 512 298zM256 15.5c26.191 0 47.5 21.309 47.5 47.5s-21.309 47.5-47.5 47.5-47.5-21.309-47.5-47.5 21.309-47.5 47.5-47.5zM210.996 298c0-40.988 17.34-77.996 45.059-104.094a143.97 143.97 0 0 1 18.761 21.594c17.133 24.207 26.188 52.734 26.188 82.5 0 13.684-1.938 26.922-5.54 39.46A142.645 142.645 0 0 1 256 343.005a142.655 142.655 0 0 1-39.492-5.55A143.24 143.24 0 0 1 210.996 298zM84.758 424.441h32.105v2.899H84.758zm27.445-16.257H89.441a86.478 86.478 0 0 0-16.14-34.723c-5.028-6.5-7.52-14.3-7.207-22.563.668-17.863 15.18-32.515 33.027-33.355 9.625-.465 18.73 2.941 25.668 9.562 6.941 6.622 10.766 15.551 10.766 25.141 0 7.668-2.45 14.938-7.082 21.02-8.008 10.511-13.551 22.457-16.27 34.918zm-27.445 38.312v-4.156h32.105v4.156zM158.004 441c-8.79 0-17.563-.8-26.14-2.383v-16.652c0-4.266-1.95-8.082-5-10.613 2.253-10.317 6.866-20.235 13.542-28.997 6.64-8.714 10.149-19.128 10.149-30.109 0-13.726-5.473-26.512-15.41-35.992-9.934-9.48-22.993-14.352-36.727-13.692-25.57 1.204-46.356 22.188-47.316 47.778-.438 11.644 3.234 23.113 10.332 32.297a71.4 71.4 0 0 1 13.343 28.703c-.625.515-1.199 1.094-1.726 1.71C36.543 386.099 15 343.724 15 298c0-58.816 35.691-109.441 86.555-131.379A158.695 158.695 0 0 0 97.996 200c0 69.117 44.613 128.004 106.55 149.395 8.2 23.886 21.97 45.257 39.845 62.48C220.375 430.141 190.434 441 158.004 441zm97.898-38.867a143.176 143.176 0 0 1-33.343-47.703A158.037 158.037 0 0 0 256 358.004c11.45 0 22.617-1.234 33.383-3.563-7.82 18.137-19.29 34.344-33.48 47.692zM399.004 200c0 58.816-35.7 109.445-86.563 131.383A157.794 157.794 0 0 0 316.004 298c0-32.887-10.008-64.41-28.941-91.164a159.459 159.459 0 0 0-19.481-22.695c24.023-18.278 53.973-29.145 86.418-29.145 13.703 0 26.965 1.945 39.523 5.559 3.618 12.675 5.48 25.906 5.48 39.445zm16.48 156.066c0-1.378 1.121-2.5 2.5-2.5h5.223v66.563h-7.723zm22.723-2.5h5.227c1.379 0 2.5 1.122 2.5 2.5v64.063h-7.727zm-2.594-15h-9.812l4.906-10.445zm7.82 107.93h-25.449a2.502 2.502 0 0 1-2.5-2.5v-8.867h30.45v8.867c0 1.379-1.122 2.5-2.5 2.5zm0 0"/><path d="M256 70.5h14.3c4.141 0 7.5-3.355 7.5-7.5s-3.359-7.5-7.5-7.5h-6.8V31.832c0-4.14-3.355-7.5-7.5-7.5s-7.5 3.36-7.5 7.5V63c0 4.145 3.355 7.5 7.5 7.5zm0 0M263.5 310.008v-3.45c7.348-2.98 12.55-10.18 12.55-18.585 0-11.055-8.991-20.051-20.05-20.051-2.785 0-5.05-2.266-5.05-5.05s2.265-5.052 5.05-5.052c1.684 0 3.25.832 4.191 2.23a7.5 7.5 0 0 0 10.414 2.016 7.498 7.498 0 0 0 2.016-10.414 20.06 20.06 0 0 0-9.121-7.375v-2.808c0-4.14-3.355-7.5-7.5-7.5s-7.5 3.36-7.5 7.5v2.82c-7.348 2.977-12.55 10.176-12.55 18.582 0 11.055 8.991 20.05 20.05 20.05 2.785 0 5.05 2.267 5.05 5.052s-2.265 5.054-5.05 5.054a5.022 5.022 0 0 1-4.555-2.863c-1.804-3.73-6.285-5.297-10.015-3.492a7.5 7.5 0 0 0-3.493 10.015c2.192 4.54 6.02 8.008 10.563 9.852v3.469a7.5 7.5 0 1 0 15 0zm0 0M55.61 276.258a7.497 7.497 0 0 0-10.606.027 7.497 7.497 0 0 0 .027 10.606l5.653 5.625a7.481 7.481 0 0 0 5.289 2.183 7.477 7.477 0 0 0 5.316-2.21 7.497 7.497 0 0 0-.027-10.606zm0 0M46.89 295.906l-7.706-2.047c-4.004-1.054-8.11 1.325-9.172 5.329s1.32 8.109 5.324 9.171l7.707 2.043a7.485 7.485 0 0 0 1.93.254 7.502 7.502 0 0 0 7.242-5.578c1.062-4.004-1.32-8.113-5.324-9.172zm0 0M77.031 266.457c-1.082-3.996-5.195-6.355-9.199-5.281-3.996 1.082-6.36 5.203-5.281 9.199l2.082 7.695a7.506 7.506 0 0 0 7.234 5.543 7.499 7.499 0 0 0 7.246-9.46zm0 0"/></svg>