<svg height="511pt" viewBox="-5 1 511 511.999" width="511pt" xmlns="http://www.w3.org/2000/svg"><path d="M126.793 324.238c-11.29-42.14 13.719-85.457 55.86-96.75l276.488-74.082c6.671-1.789 13.53 2.172 15.32 8.844 9.504 35.469-11.547 71.926-47.016 81.43zm0 0" fill="#64bdff"/><path d="M188.574 210.613c-14.054-48.867-65.074-77.086-113.949-63.027-48.863 14.059-77.086 65.074-63.027 113.941 14.058 48.875 65.074 77.082 113.937 63.028 48.875-14.063 77.102-65.07 63.04-113.942zM62.137 246.988c-6.032-20.965 6.058-42.847 27.02-48.879 20.964-6.027 42.85 6.078 48.882 27.04C144.07 246.108 131.961 268 111 274.03s-42.836-6.082-48.863-27.043zm0 0" fill="#fc3e81"/><path d="M495.285 17.5v322.914c0 8.906-10.77 13.371-17.07 7.07L331.832 201.105l-83.879-83.882-92.648-92.649c-6.301-6.3-1.84-17.074 7.07-17.074h322.91c5.524 0 10 4.477 10 10zm0 0" fill="#9be058"/><path d="M495.285 17.5v322.914c0 8.91-10.77 13.371-17.07 7.07l-7.742-7.738V17.5c0-5.52-4.47-10-10-10h24.812c5.52 0 10 4.48 10 10zm0 0" fill="#23cc4f"/><path d="M370.582 56.453l-38.75 144.652-83.879-83.882 9.434-35.215c9.16-34.207 40.27-58.09 75.633-58.09 6.835 0 13.667.898 20.324 2.68 6.289 1.691 11.55 5.726 14.804 11.363 3.254 5.637 4.114 12.203 2.434 18.492zm0 0" fill="#1cc939"/><path d="M188.285 385.727c42.14 11.293 85.457-13.715 96.746-55.856l74.086-276.488c1.79-6.672-2.172-13.531-8.844-15.32-35.468-9.504-71.925 11.546-81.43 47.011zm0 0" fill="#83d9ff"/><path d="M187.969 386.988c-14.055 48.864 14.152 99.875 63.027 113.938 48.863 14.054 99.883-14.164 113.938-63.028 14.062-48.875-14.16-99.894-63.024-113.953-48.875-14.058-99.879 14.164-113.941 63.043zm50.523 14.535c6.031-20.96 27.918-33.07 48.88-27.039 20.964 6.032 33.07 27.918 27.038 48.883-6.027 20.961-27.914 33.051-48.875 27.02-20.96-6.032-33.074-27.903-27.043-48.864zm0 0" fill="#fc3e81"/><path d="M280.344 248.875c0 8.008-6.492 14.5-14.5 14.5-8.004 0-14.496-6.492-14.496-14.5 0-8.004 6.492-14.496 14.496-14.496 8.008 0 14.5 6.492 14.5 14.496zm0 0" fill="#4e7693"/><path d="M145.25 223.078c-7.164-24.902-33.254-39.332-58.156-32.172-24.903 7.168-39.336 33.258-32.172 58.16 3.469 12.063 11.43 22.055 22.418 28.13 7.058 3.906 14.828 5.894 22.68 5.894 4.363 0 8.75-.613 13.058-1.852 24.906-7.164 39.336-33.258 32.172-58.16zm-36.32 43.742c-16.95 4.88-34.715-4.945-39.59-21.902-2.363-8.211-1.387-16.856 2.75-24.332 4.137-7.48 10.937-12.899 19.148-15.262a31.905 31.905 0 0 1 8.836-1.25c13.903 0 26.73 9.145 30.758 23.153 4.879 16.953-4.945 34.714-21.902 39.593zm0 0"/><path d="M485.285 0H162.38a17.444 17.444 0 0 0-16.168 10.805 17.451 17.451 0 0 0 3.793 19.074l99.27 99.266-20.997 78.355-30.715 8.23a101.528 101.528 0 0 0-1.78-7.187c-7.356-25.563-24.223-46.73-47.497-59.606-23.273-12.875-50.168-15.914-75.73-8.562-52.766 15.184-83.344 70.46-68.164 123.227 12.546 43.605 52.468 72.054 95.734 72.054 9.09 0 27.883-4.008 28.078-4.066.176-.035 71.98-19.254 71.98-19.254s-19.386 72.43-19.425 72.57c-7.356 25.563-4.313 52.457 8.562 75.73 12.875 23.274 34.04 40.141 59.602 47.493A99.56 99.56 0 0 0 276.437 512c13.383 0 26.739-2.687 39.153-8.004 20.7-8.863 37.937-24.61 48.539-44.336a7.499 7.499 0 1 0-13.21-7.102c-9.005 16.747-23.646 30.118-41.235 37.649-17.832 7.637-37.934 8.883-56.614 3.508-21.71-6.246-39.687-20.57-50.625-40.34-10.933-19.77-13.515-42.61-7.27-64.32 6.247-21.711 20.571-39.688 40.34-50.621 19.766-10.938 42.61-13.52 64.32-7.274a84.482 84.482 0 0 1 47.731 35.504c10.973 17.066 15.465 37.469 12.657 57.45-.578 4.1 2.277 7.898 6.379 8.472 4.097.574 7.894-2.277 8.472-6.379 3.313-23.539-1.972-47.566-14.89-67.656a99.488 99.488 0 0 0-56.204-41.809 101.58 101.58 0 0 0-7.187-1.785l8.23-30.71 78.352-20.997 22.34 22.34a7.473 7.473 0 0 0 5.305 2.195 7.502 7.502 0 0 0 5.3-12.805l-85.82-85.82 35.863-133.836c1.383-5.16.672-10.554-2-15.183s-6.988-7.938-12.148-9.32c-19.09-5.114-39.028-2.489-56.145 7.39-17.113 9.883-29.355 25.836-34.468 44.926l-7.848 29.277-93.145-93.144c-1.027-1.024-.78-2.145-.543-2.723.243-.578.86-1.547 2.313-1.547h322.91c1.375 0 2.5 1.121 2.5 2.5v39.707c0 4.145 3.356 7.5 7.5 7.5a7.5 7.5 0 0 0 7.5-7.5V17.5c0-9.648-7.852-17.5-17.504-17.5zM18.81 259.453c-12.895-44.816 13.078-91.765 57.894-104.66a84.948 84.948 0 0 1 23.504-3.332c14.129 0 28.11 3.574 40.816 10.605 19.766 10.934 34.094 28.914 40.34 50.621 12.89 44.817-13.082 91.77-57.898 104.66-44.813 12.9-91.762-13.077-104.656-57.894zm153.882 44.723c18.25-19.524 28.313-46.012 26.836-73.446l24.266-6.5-19.125 71.375zm198.438-53.172l-61.621 16.512 16.512-61.625zM303.574 51.199c13.645-7.875 29.54-9.969 44.758-5.89a4.996 4.996 0 0 1 3.043 2.332 4.99 4.99 0 0 1 .5 3.8l-36.93 137.817c-.004.008-.004.015-.007.023l-33.141 123.692c-18.492-1.032-36.942 3.144-53.543 12.332a99.942 99.942 0 0 0-19.871 14.402L276.09 87.016c4.078-15.22 13.84-27.938 27.484-35.817zm0 0"/><path d="M495.285 82.367c-4.14 0-7.5 3.36-7.5 7.504v250.54c0 1.452-.965 2.07-1.543 2.308-.574.238-1.695.488-2.722-.543l-44.102-44.102c-2.93-2.926-7.68-2.926-10.606 0a7.502 7.502 0 0 0 0 10.61l44.102 44.101a17.452 17.452 0 0 0 19.07 3.793 17.448 17.448 0 0 0 10.805-16.168V89.871a7.504 7.504 0 0 0-7.504-7.504zm0 0M253.703 371.313c-10.984 6.078-18.945 16.066-22.418 28.132-7.164 24.903 7.27 50.993 32.172 58.157a46.94 46.94 0 0 0 12.977 1.836c20.418 0 39.261-13.43 45.18-34.008 7.163-24.903-7.266-50.993-32.169-58.157-12.066-3.468-24.757-2.035-35.742 4.04zm53.496 49.972c-2.363 8.211-7.781 15.012-15.262 19.149-7.476 4.136-16.117 5.117-24.332 2.75-8.214-2.364-15.015-7.782-19.152-15.262-4.137-7.477-5.113-16.117-2.75-24.332 2.363-8.211 7.781-15.016 15.262-19.149 4.805-2.66 10.094-4.015 15.441-4.015 2.969 0 5.957.418 8.89 1.261 16.954 4.88 26.782 22.641 21.903 39.598zm0 0M265.844 270.875c12.133 0 22-9.871 22-22s-9.867-21.996-22-21.996c-12.13 0-21.996 9.867-21.996 21.996s9.867 22 21.996 22zm0-28.996c3.86 0 7 3.14 7 6.996 0 3.86-3.14 6.996-7 6.996-3.856 0-6.996-3.137-6.996-6.996 0-3.855 3.14-6.996 6.996-6.996zm0 0"/></svg>