<svg height="512pt" viewBox="0 -25 512 512" width="512pt" xmlns="http://www.w3.org/2000/svg"><path d="M326.16 91.832H154.41c-5.523 0-10-4.477-10-10V28.125c0-5.523 4.477-10 10-10h137.04a9.995 9.995 0 0 1 8.398 4.574l34.71 53.703c4.301 6.657-.476 15.43-8.398 15.43zm0 0" fill="#fd6096"/><path d="M209.25 81.207H37.5c-5.523 0-10-4.477-10-10V17.5c0-5.523 4.477-10 10-10h137.04c3.394 0 6.558 1.723 8.398 4.57l34.71 53.707c4.301 6.653-.476 15.43-8.398 15.43zm0 0" fill="#9be058"/><path d="M504.5 59.293v320.348c0 5.52-4.48 10-10 10h-477c-5.52 0-10-4.48-10-10V59.293c0-5.52 4.48-10 10-10h477c5.52 0 10 4.48 10 10zm0 0" fill="#edb48a"/><path d="M485.32 163.313V389.64H23.488v-13.09c0-12.14 9.871-22 22-22H152.36V163.313c0-12.141 9.871-22 22-22H463.32c12.13 0 22 9.859 22 22zm0 0" fill="#e29c6d"/><path d="M504.5 59.293v320.348c0 5.52-4.48 10-10 10h-36.73c5.52 0 10-4.48 10-10V59.293c0-5.52-4.48-10-10-10h36.73c5.52 0 10 4.48 10 10zm0 0" fill="#e29c6d"/><path d="M164.36 163.309v291.097h246.515c34.488 0 62.445-27.957 62.445-62.445V163.309c0-5.524-4.476-10-10-10H174.36c-5.52 0-10 4.476-10 10zm0 0" fill="#64bdff"/><path d="M473.32 163.313V391.96c0 34.488-27.96 62.441-62.441 62.441h-19.34c34.492 0 62.45-27.953 62.45-62.441V163.312c0-5.53-4.477-10-10-10h19.331c5.52 0 10 4.47 10 10zm0 0" fill="#43a3f9"/><path d="M334.473 366.547c5.52 0 10 4.476 10 10v15.418c0 34.484 27.953 62.437 62.437 62.437H97.93c-34.485 0-62.446-27.957-62.446-62.441v-15.414c0-5.524 4.48-10 10-10zm0 0" fill="#1685fb"/><path d="M350 211.465h81.254v27.226H350zm0 0" fill="#9be058"/><path d="M7.5 130.125c4.14 0 7.5-3.36 7.5-7.5V59.293c0-1.379 1.121-2.5 2.5-2.5h340.754a7.5 7.5 0 0 0 7.5-7.5c0-4.145-3.356-7.5-7.5-7.5h-37.137l-14.969-23.164a17.436 17.436 0 0 0-14.699-8.004H190.934L189.238 8a17.442 17.442 0 0 0-14.699-8H37.5C27.852 0 20 7.852 20 17.5v24.293h-2.5c-9.648 0-17.5 7.848-17.5 17.5v63.332c0 4.14 3.36 7.5 7.5 7.5zm283.95-104.5c.85 0 1.636.43 2.1 1.145l9.708 15.023h-92.18l-10.45-16.168zM35 17.5c0-1.379 1.121-2.5 2.5-2.5h137.04c.855 0 1.64.426 2.1 1.145l16.579 25.648H35zm0 0"/><path d="M494.5 41.793H390.914a7.5 7.5 0 1 0 0 15H494.5c1.379 0 2.5 1.121 2.5 2.5v320.348c0 1.379-1.121 2.5-2.5 2.5h-13.68V163.309c0-9.653-7.851-17.5-17.5-17.5H261.922a7.497 7.497 0 0 0-7.5 7.5 7.5 7.5 0 0 0 7.5 7.5H463.32c1.38 0 2.5 1.12 2.5 2.5V391.96c0 30.297-24.644 54.941-54.941 54.941h-3.969c-30.293 0-54.937-24.644-54.937-54.937v-15.418c0-9.649-7.852-17.5-17.5-17.5H171.859V163.309c0-1.38 1.121-2.5 2.5-2.5h54.903a7.5 7.5 0 1 0 0-15h-54.903c-9.648 0-17.5 7.847-17.5 17.5v195.738H45.484c-9.648 0-17.5 7.851-17.5 17.5v5.59H17.5a2.502 2.502 0 0 1-2.5-2.5V155.285a7.5 7.5 0 1 0-15 0v224.352c0 9.648 7.852 17.5 17.5 17.5h10.7c2.66 36.156 32.905 64.765 69.73 64.765h312.949c36.82 0 67.07-28.609 69.73-64.765H494.5c9.648 0 17.5-7.852 17.5-17.5V59.293c0-9.652-7.852-17.5-17.5-17.5zM97.93 446.903c-30.297 0-54.946-24.645-54.946-54.942v-15.414c0-1.379 1.125-2.5 2.5-2.5H334.47c1.379 0 2.5 1.121 2.5 2.5v15.418c0 22.258 10.453 42.12 26.707 54.937zm0 0"/><path d="M209.043 279.047h15.176a7.5 7.5 0 1 0 0-15h-15.176a7.5 7.5 0 1 0 0 15zm0 0M240.734 271.547a7.5 7.5 0 0 0 7.5 7.5h183.02c4.144 0 7.5-3.356 7.5-7.5a7.5 7.5 0 0 0-7.5-7.5h-183.02c-4.14 0-7.5 3.36-7.5 7.5zm0 0M431.254 289.047H209.043a7.5 7.5 0 1 0 0 15h222.21a7.5 7.5 0 1 0 0-15zm0 0M431.254 314.047H209.043a7.5 7.5 0 1 0 0 15h222.21a7.5 7.5 0 1 0 0-15zm0 0M431.254 246.191c4.144 0 7.5-3.355 7.5-7.5v-27.226c0-4.145-3.356-7.5-7.5-7.5H350a7.497 7.497 0 0 0-7.5 7.5v27.226c0 4.145 3.355 7.5 7.5 7.5zM357.5 218.965h66.254v12.226H357.5zm0 0"/></svg>