<svg height="512pt" viewBox="0 0 511 512" width="512pt" xmlns="http://www.w3.org/2000/svg"><g fill="#96a0ee"><path d="M39.977 49.871H18.398C12.656 49.871 8 45.22 8 39.477V17.898C8 12.156 12.656 7.5 18.398 7.5h21.579c5.742 0 10.394 4.656 10.394 10.398v21.579c0 5.742-4.652 10.394-10.394 10.394zm0 0M266.8 49.871H245.22c-5.742 0-10.395-4.652-10.395-10.394V17.898c0-5.742 4.653-10.398 10.395-10.398H266.8c5.738 0 10.394 4.656 10.394 10.398v21.579c0 5.742-4.652 10.394-10.394 10.394zm0 0M493.621 49.871h-21.578c-5.742 0-10.395-4.652-10.395-10.394V17.898c0-5.742 4.653-10.398 10.395-10.398h21.578c5.742 0 10.399 4.656 10.399 10.398v21.579c0 5.742-4.657 10.394-10.399 10.394zm0 0M39.977 504.5H18.398C12.656 504.5 8 499.844 8 494.102v-21.579c0-5.742 4.656-10.394 10.398-10.394h21.579c5.742 0 10.394 4.652 10.394 10.394v21.579c0 5.742-4.652 10.398-10.394 10.398zm0 0M266.8 504.5H245.22c-5.742 0-10.395-4.656-10.395-10.398v-21.579c0-5.742 4.653-10.394 10.395-10.394H266.8c5.738 0 10.394 4.652 10.394 10.394v21.579c0 5.742-4.652 10.398-10.394 10.398zm0 0M39.977 277.188H18.398C12.656 277.188 8 272.53 8 266.788v-21.578c0-5.742 4.656-10.399 10.398-10.399h21.579c5.742 0 10.394 4.657 10.394 10.399v21.578c0 5.742-4.652 10.399-10.394 10.399zm0 0M493.621 277.188h-21.578c-5.742 0-10.395-4.657-10.395-10.399v-21.578c0-5.742 4.653-10.399 10.395-10.399h21.578c5.742 0 10.399 4.657 10.399 10.399v21.578c0 5.742-4.657 10.399-10.399 10.399zm0 0"/></g><path d="M483.324 399.047v73.867c0 5.742-4.656 10.399-10.398 10.399h-73.871c-9.262 0-13.903-11.2-7.352-17.75l73.871-73.872c6.551-6.546 17.75-1.91 17.75 7.356zm0 0" fill="#4e7693"/><path d="M341.719 234.063L205.746 370.034c-10.297 10.297-24.348 14.567-37.754 12.813-5.566-.727-11.023 2.148-13.273 7.289-2.832 6.511-7.293 13.09-13.211 19.004-16.89 16.89-39.227 21.925-49.899 11.257-10.668-10.668-5.632-33.003 11.258-49.894 5.918-5.918 12.492-10.379 19.008-13.215 5.14-2.25 8.012-7.703 7.285-13.273-1.75-13.403 2.52-27.453 12.817-37.75l135.972-135.973zm0 0" fill="#e3f4ff"/><path d="M260.996 187.238l16.95-16.945 63.769 63.77-16.95 16.945zm0 0" fill="#bddff4"/><path d="M341.719 234.063L205.746 370.034c-10.297 10.297-24.348 14.567-37.754 12.813-5.566-.727-11.023 2.148-13.273 7.289-2.832 6.511-7.293 13.09-13.211 19.004-16.89 16.89-39.227 21.925-49.899 11.257-2.84-2.84-4.566-6.503-5.246-10.668 11.492 1.907 26.836-4.109 39.23-16.503 5.915-5.915 10.372-12.5 13.212-19.004 2.242-5.149 7.707-8.016 13.265-7.297 13.414 1.761 27.461-2.508 37.762-12.805l135.973-135.973zm0 0" fill="#bddff4"/><path d="M389.293 221.094l-15.469-15.469c-4.457-4.457-4.457-11.684 0-16.14l41.563-41.563c14.164-14.164 14.164-37.133 0-51.297-14.168-14.168-37.133-14.168-51.301 0l-41.563 41.563c-4.457 4.457-11.683 4.457-16.14 0l-15.469-15.47c-4.457-4.456-11.684-4.456-16.14 0l-21.391 21.391c-4.457 4.457-4.457 11.684 0 16.141l98.379 98.379c4.457 4.457 11.68 4.457 16.136 0l21.395-21.395c4.457-4.457 4.457-11.683 0-16.14zm0 0" fill="#364ec6"/><path d="M246.652 336.637c1.918 0 3.84-.735 5.305-2.2l20.777-20.777a7.504 7.504 0 0 0 0-10.605 7.502 7.502 0 0 0-10.609 0l-20.777 20.777c-2.926 2.93-2.926 7.68 0 10.606a7.484 7.484 0 0 0 5.304 2.199zm0 0"/><path d="M346.457 263.93a18.777 18.777 0 0 0 13.371 5.543 18.78 18.78 0 0 0 13.375-5.543l21.39-21.39c3.571-3.571 5.54-8.321 5.54-13.376 0-5.05-1.969-9.8-5.54-13.375l-15.468-15.469a3.918 3.918 0 0 1 0-5.53l41.563-41.563c17.066-17.07 17.066-44.84 0-61.907-8.266-8.27-19.258-12.82-30.954-12.82-11.691 0-22.683 4.55-30.953 12.82l-41.562 41.563c-1.477 1.476-4.055 1.476-5.531 0l-15.47-15.469c-3.573-3.57-8.323-5.539-13.374-5.539s-9.801 1.965-13.371 5.54l-21.395 21.394c-7.371 7.37-7.371 19.37 0 26.746l11.996 11.996-123.398 123.402c-11.645 11.64-17.09 27.692-14.95 44.043.305 2.324-.867 4.55-2.851 5.414-7.574 3.305-14.945 8.418-21.312 14.785-20.122 20.125-25.067 46.703-11.258 60.512 5.277 5.277 12.414 7.816 20.347 7.813 12.828 0 27.73-6.637 40.16-19.07 6.372-6.368 11.481-13.74 14.786-21.313.867-1.985 3.09-3.16 5.418-2.852 16.347 2.145 32.398-3.305 44.039-14.95l17.804-17.804a7.497 7.497 0 0 0 0-10.605 7.5 7.5 0 0 0-10.605 0l-17.805 17.804c-8.316 8.32-19.789 12.215-31.484 10.68-8.902-1.164-17.594 3.656-21.113 11.727-2.563 5.875-6.59 11.648-11.645 16.707-11.953 11.953-31.035 19.515-39.297 11.258-8.262-8.262-.695-27.344 11.258-39.297 5.059-5.055 10.832-9.082 16.707-11.645 8.07-3.52 12.89-12.203 11.723-21.113-1.528-11.692 2.363-23.168 10.683-31.485L270.684 188.16l53.168 53.168-38.63 38.633a7.497 7.497 0 0 0 0 10.605 7.475 7.475 0 0 0 5.301 2.2c1.922 0 3.84-.735 5.305-2.2l38.633-38.629zm-87.77-114.516l21.391-21.39a3.895 3.895 0 0 1 2.766-1.145c1.004 0 2.004.379 2.77 1.144l15.468 15.47c7.375 7.374 19.371 7.37 26.746 0l41.563-41.563c5.437-5.438 12.66-8.43 20.347-8.43s14.91 2.992 20.348 8.43c11.219 11.218 11.219 29.472 0 40.691l-41.566 41.563c-7.372 7.375-7.372 19.37 0 26.746l15.468 15.468a3.876 3.876 0 0 1 1.149 2.766 3.885 3.885 0 0 1-1.149 2.77l-21.39 21.39a3.915 3.915 0 0 1-5.532 0l-98.378-98.375a3.916 3.916 0 0 1 0-5.535zm0 0"/><path d="M384.09 119.273a7.497 7.497 0 0 0 0-10.605 7.497 7.497 0 0 0-10.606 0l-22.062 22.059a7.497 7.497 0 0 0 0 10.605 7.477 7.477 0 0 0 5.305 2.2 7.475 7.475 0 0 0 5.3-2.2zm0 0M270.707 220.582a7.497 7.497 0 0 0-10.605 0l-86.176 86.176a7.497 7.497 0 0 0 0 10.605c1.465 1.465 3.386 2.2 5.304 2.2s3.84-.735 5.305-2.2l86.176-86.175a7.5 7.5 0 0 0-.004-10.606zm0 0M311.836 333.492h5.172a7.5 7.5 0 0 0 7.5-7.5 7.5 7.5 0 0 0-7.5-7.5h-5.172a7.5 7.5 0 0 0-7.5 7.5 7.5 7.5 0 0 0 7.5 7.5zm0 0M379.375 318.492h-42.352c-4.14 0-7.5 3.36-7.5 7.5 0 4.14 3.36 7.5 7.5 7.5h42.352a7.5 7.5 0 0 0 7.5-7.5 7.5 7.5 0 0 0-7.5-7.5zm0 0M311.836 358.492h67.539a7.5 7.5 0 0 0 7.5-7.5 7.5 7.5 0 0 0-7.5-7.5h-67.54a7.5 7.5 0 0 0-7.5 7.5 7.5 7.5 0 0 0 7.5 7.5zm0 0M386.875 375.992a7.5 7.5 0 0 0-7.5-7.5h-67.54a7.5 7.5 0 0 0-7.5 7.5 7.5 7.5 0 0 0 7.5 7.5h67.54a7.5 7.5 0 0 0 7.5-7.5zm0 0"/><path d="M493.621 57.371c9.871 0 17.899-8.027 17.899-17.894V17.898C511.52 8.028 503.492 0 493.62 0h-21.578c-9.867 0-17.895 8.027-17.895 17.898v3.29H284.695v-3.29c0-9.87-8.027-17.898-17.894-17.898h-21.578c-9.871 0-17.899 8.027-17.899 17.898v3.29H57.871v-3.29C57.871 8.028 49.844 0 39.977 0H18.398C8.528 0 .5 8.027.5 17.898v21.579c0 9.867 8.027 17.894 17.895 17.894h2.8v169.941h-2.8C8.527 227.313.5 235.34.5 245.212v21.578c0 9.867 8.027 17.899 17.895 17.899h2.8v169.937h-2.8C8.527 454.625.5 462.652.5 472.523v21.579C.5 503.972 8.527 512 18.398 512h21.579c9.867 0 17.894-8.027 17.894-17.898v-3.29h169.453v3.29c0 9.87 8.028 17.898 17.895 17.898h21.578c9.871 0 17.898-8.027 17.898-17.898v-21.579c0-9.867-8.027-17.894-17.898-17.894h-21.578c-9.867 0-17.895 8.027-17.895 17.894v3.29H57.871v-3.29c0-9.867-8.027-17.894-17.894-17.894h-3.782V284.687h3.782c9.867 0 17.894-8.027 17.894-17.898v-21.578c0-9.871-8.027-17.899-17.894-17.899h-3.782V57.373h3.782c9.867 0 17.894-8.028 17.894-17.895v-3.29h169.453v3.29c0 9.867 8.028 17.894 17.895 17.894h21.578c9.871 0 17.898-8.027 17.898-17.894v-3.29h169.45v3.29c0 9.867 8.027 17.894 17.898 17.894h3.777v169.941h-3.777c-9.871 0-17.898 8.028-17.898 17.899v21.578c0 9.867 8.027 17.899 17.898 17.899h21.578c9.867 0 17.895-8.032 17.895-17.899v-21.578c0-9.871-8.028-17.899-17.895-17.899h-2.8V57.373zM242.324 472.523a2.896 2.896 0 0 1 2.895-2.894h21.578a2.9 2.9 0 0 1 2.898 2.894v21.579c0 1.597-1.3 2.898-2.898 2.898h-21.578a2.9 2.9 0 0 1-2.895-2.898zm-199.453 0v21.579A2.9 2.9 0 0 1 39.977 497H18.398a2.902 2.902 0 0 1-2.898-2.898v-21.579a2.9 2.9 0 0 1 2.898-2.894h21.579a2.896 2.896 0 0 1 2.894 2.894zm0-227.312v21.578a2.9 2.9 0 0 1-2.894 2.899H18.398a2.902 2.902 0 0 1-2.898-2.899v-21.578c0-1.598 1.3-2.898 2.898-2.898h21.579a2.9 2.9 0 0 1 2.894 2.898zm0-205.734a2.896 2.896 0 0 1-2.894 2.894H18.398a2.9 2.9 0 0 1-2.898-2.894V17.898c0-1.597 1.3-2.898 2.898-2.898h21.579a2.9 2.9 0 0 1 2.894 2.898zm226.824 0a2.896 2.896 0 0 1-2.894 2.894h-21.578a2.9 2.9 0 0 1-2.899-2.894V17.898c0-1.597 1.301-2.898 2.899-2.898H266.8a2.9 2.9 0 0 1 2.894 2.898zM496.52 245.21v21.578c0 1.598-1.301 2.899-2.895 2.899h-21.578a2.9 2.9 0 0 1-2.899-2.899v-21.578c0-1.598 1.301-2.898 2.899-2.898h21.578c1.594 0 2.895 1.3 2.895 2.898zM469.148 39.477V17.898A2.9 2.9 0 0 1 472.043 15h21.578c1.598 0 2.899 1.3 2.899 2.898v21.579a2.9 2.9 0 0 1-2.899 2.894h-21.578a2.896 2.896 0 0 1-2.895-2.894zm0 0M479.777 382.512a17.848 17.848 0 0 0-19.507 3.879l-24.422 24.421c-2.926 2.926-2.926 7.676 0 10.606a7.502 7.502 0 0 0 10.609 0l24.422-24.422c1.187-1.191 2.488-.906 3.156-.629.668.278 1.79.992 1.79 2.676v73.871c0 1.598-1.302 2.898-2.9 2.898h-73.87c-1.684 0-2.399-1.12-2.676-1.789-.277-.668-.563-1.964.629-3.156l26.355-26.355a7.504 7.504 0 0 0 0-10.606 7.502 7.502 0 0 0-10.61 0l-26.355 26.356a17.849 17.849 0 0 0-3.878 19.504 17.845 17.845 0 0 0 16.535 11.046h73.87c9.872 0 17.9-8.027 17.9-17.898v-73.871a17.84 17.84 0 0 0-11.048-16.531zm0 0"/></svg>