<svg height="512pt" viewBox="0 0 511 512" width="512pt" xmlns="http://www.w3.org/2000/svg"><g fill="#f9b200"><path d="M39.977 49.871H18.398C12.656 49.871 8 45.22 8 39.477V17.898C8 12.156 12.656 7.5 18.398 7.5h21.579c5.742 0 10.394 4.656 10.394 10.398v21.579c0 5.742-4.652 10.394-10.394 10.394zm0 0M266.8 49.871H245.22c-5.742 0-10.395-4.652-10.395-10.394V17.898c0-5.742 4.653-10.398 10.395-10.398H266.8c5.738 0 10.394 4.656 10.394 10.398v21.579c0 5.742-4.652 10.394-10.394 10.394zm0 0M493.621 49.871h-21.578c-5.742 0-10.395-4.652-10.395-10.394V17.898c0-5.742 4.653-10.398 10.395-10.398h21.578c5.742 0 10.399 4.656 10.399 10.398v21.579c0 5.742-4.657 10.394-10.399 10.394zm0 0M39.977 504.5H18.398C12.656 504.5 8 499.844 8 494.102v-21.579c0-5.742 4.656-10.394 10.398-10.394h21.579c5.742 0 10.394 4.652 10.394 10.394v21.579c0 5.742-4.652 10.398-10.394 10.398zm0 0M266.8 504.5H245.22c-5.742 0-10.395-4.656-10.395-10.398v-21.579c0-5.742 4.653-10.394 10.395-10.394H266.8c5.738 0 10.394 4.652 10.394 10.394v21.579c0 5.742-4.652 10.398-10.394 10.398zm0 0M39.977 277.188H18.398C12.656 277.188 8 272.53 8 266.788v-21.578c0-5.742 4.656-10.399 10.398-10.399h21.579c5.742 0 10.394 4.657 10.394 10.399v21.578c0 5.742-4.652 10.399-10.394 10.399zm0 0M493.621 277.188h-21.578c-5.742 0-10.395-4.657-10.395-10.399v-21.578c0-5.742 4.653-10.399 10.395-10.399h21.578c5.742 0 10.399 4.657 10.399 10.399v21.578c0 5.742-4.657 10.399-10.399 10.399zm0 0"/></g><path d="M483.324 399.047v73.867c0 5.742-4.656 10.399-10.398 10.399h-73.871c-9.262 0-13.903-11.2-7.352-17.75l73.871-73.872c6.551-6.546 17.75-1.91 17.75 7.356zm0 0" fill="#43a3f9"/><path d="M421.867 249.297a9.981 9.981 0 0 1 0 13.422c-44.328 48.902-102.344 78.539-165.851 78.539-63.52 0-121.524-29.637-165.86-78.54a9.977 9.977 0 0 1-.004-13.421c44.34-48.918 102.344-78.555 165.864-78.555 63.507 0 121.523 29.637 165.851 78.555zm0 0" fill="#e3f4ff"/><path d="M317.352 256c0 33.879-27.461 61.344-61.34 61.344-33.88 0-61.344-27.465-61.344-61.344s27.465-61.344 61.344-61.344c33.879 0 61.34 27.465 61.34 61.344zm0 0" fill="#43a3f9"/><path d="M277.195 256c0 11.703-9.484 21.188-21.183 21.188-11.703 0-21.188-9.485-21.188-21.188s9.485-21.188 21.188-21.188c11.699 0 21.183 9.485 21.183 21.188zm0 0" fill="#364ec6"/><path d="M282.148 238.496c0 7.219-5.851 13.07-13.07 13.07s-13.066-5.851-13.066-13.07 5.847-13.07 13.066-13.07 13.07 5.851 13.07 13.07zm0 0" fill="#e3f4ff"/><path d="M427.422 267.754a17.433 17.433 0 0 0 .004-23.492c-47.34-52.246-108.215-81.02-171.41-81.02-63.188 0-124.067 28.774-171.418 81.02a17.434 17.434 0 0 0 0 23.496 279.727 279.727 0 0 0 25.129 24.449 7.5 7.5 0 1 0 9.757-11.395 264.318 264.318 0 0 1-23.773-23.132 2.482 2.482 0 0 1 0-3.344c44.473-49.07 101.402-76.094 160.305-76.094 58.906 0 115.832 27.024 160.293 76.09a2.48 2.48 0 0 1 0 3.348c-44.465 49.058-101.391 76.078-160.293 76.078-39.04 0-76.36-11.36-110.926-33.762a7.498 7.498 0 0 0-10.371 2.219c-2.254 3.472-1.262 8.117 2.215 10.37 36.511 23.665 77.691 36.173 119.082 36.173 63.187 0 124.062-28.77 171.406-81.004zm0 0M479.777 382.512a17.847 17.847 0 0 0-19.507 3.879l-24.422 24.421c-2.926 2.926-2.926 7.676 0 10.606a7.502 7.502 0 0 0 10.609 0l24.422-24.422c1.187-1.191 2.484-.906 3.156-.629.668.278 1.79.992 1.79 2.676v73.871a2.9 2.9 0 0 1-2.9 2.898h-73.87c-1.684 0-2.399-1.12-2.676-1.789-.277-.668-.563-1.964.629-3.156l26.355-26.355a7.504 7.504 0 0 0 0-10.606 7.502 7.502 0 0 0-10.61 0l-26.355 26.356a17.849 17.849 0 0 0-3.878 19.504 17.845 17.845 0 0 0 16.535 11.046h73.87c9.872 0 17.9-8.027 17.9-17.898v-73.871a17.84 17.84 0 0 0-11.048-16.531zm0 0"/><path d="M493.621 57.371c9.871 0 17.899-8.027 17.899-17.894V17.898C511.52 8.028 503.492 0 493.62 0h-21.578c-9.867 0-17.895 8.027-17.895 17.898v3.29H284.695v-3.29c0-9.87-8.027-17.898-17.894-17.898h-21.578c-9.871 0-17.899 8.027-17.899 17.898v3.29H57.871v-3.29C57.871 8.028 49.844 0 39.977 0H18.398C8.528 0 .5 8.027.5 17.898v21.579c0 9.867 8.027 17.894 17.895 17.894h2.8v169.941h-2.8C8.527 227.313.5 235.34.5 245.212v21.578c0 9.867 8.027 17.899 17.895 17.899h2.8v169.937h-2.8C8.527 454.625.5 462.652.5 472.523v21.579C.5 503.972 8.527 512 18.398 512h21.579c9.867 0 17.894-8.027 17.894-17.898v-3.29h169.453v3.29c0 9.87 8.028 17.898 17.895 17.898h21.578c9.871 0 17.898-8.027 17.898-17.898v-21.579c0-9.867-8.027-17.894-17.898-17.894h-21.578c-9.867 0-17.895 8.027-17.895 17.894v3.29H57.871v-3.29c0-9.867-8.027-17.894-17.894-17.894h-3.782V284.687h3.782c9.867 0 17.894-8.027 17.894-17.898v-21.578c0-9.871-8.027-17.899-17.894-17.899h-3.782V57.373h3.782c9.867 0 17.894-8.028 17.894-17.895v-3.29h169.453v3.29c0 9.867 8.028 17.894 17.895 17.894h21.578c9.871 0 17.898-8.027 17.898-17.894v-3.29h169.45v3.29c0 9.867 8.027 17.894 17.898 17.894h3.777v169.941h-3.777c-9.871 0-17.898 8.028-17.898 17.899v21.578c0 9.867 8.027 17.899 17.898 17.899h21.578c9.867 0 17.895-8.032 17.895-17.899v-21.578c0-9.871-8.028-17.899-17.895-17.899h-2.8V57.373zM242.324 472.523a2.896 2.896 0 0 1 2.895-2.894h21.578a2.9 2.9 0 0 1 2.898 2.894v21.579c0 1.597-1.3 2.898-2.898 2.898h-21.578a2.9 2.9 0 0 1-2.895-2.898zM39.977 469.63a2.896 2.896 0 0 1 2.894 2.894v21.579A2.9 2.9 0 0 1 39.977 497H18.398a2.902 2.902 0 0 1-2.898-2.898v-21.579a2.9 2.9 0 0 1 2.898-2.894zm0-227.316a2.9 2.9 0 0 1 2.894 2.898v21.578a2.9 2.9 0 0 1-2.894 2.899H18.398a2.902 2.902 0 0 1-2.898-2.899v-21.578c0-1.598 1.3-2.899 2.898-2.899zM42.87 39.477a2.896 2.896 0 0 1-2.894 2.894H18.398a2.9 2.9 0 0 1-2.898-2.894V17.898c0-1.597 1.3-2.898 2.898-2.898h21.579a2.9 2.9 0 0 1 2.894 2.898zm226.824 0a2.896 2.896 0 0 1-2.894 2.894h-21.578a2.9 2.9 0 0 1-2.899-2.894V17.898c0-1.597 1.301-2.898 2.899-2.898H266.8a2.9 2.9 0 0 1 2.894 2.898zm223.926 202.836c1.598 0 2.899 1.3 2.899 2.898v21.578c0 1.598-1.301 2.899-2.899 2.899h-21.578a2.9 2.9 0 0 1-2.895-2.899v-21.578a2.9 2.9 0 0 1 2.895-2.899zM472.043 42.37a2.896 2.896 0 0 1-2.895-2.894V17.898A2.9 2.9 0 0 1 472.043 15h21.578c1.598 0 2.899 1.3 2.899 2.898v21.579a2.9 2.9 0 0 1-2.899 2.894zm0 0"/><path d="M308.79 245.309c.815 4.058 4.772 6.691 8.831 5.87a7.5 7.5 0 0 0 5.871-8.831c-6.437-31.98-34.82-55.192-67.48-55.192-37.961 0-68.844 30.883-68.844 68.844s30.883 68.844 68.844 68.844c29.097 0 55.176-18.426 64.894-45.852a7.5 7.5 0 0 0-4.566-9.574 7.5 7.5 0 0 0-9.574 4.562c-7.598 21.45-27.996 35.864-50.754 35.864-29.692 0-53.844-24.156-53.844-53.844 0-29.691 24.152-53.844 53.844-53.844 25.547 0 47.742 18.149 52.777 43.153zm0 0"/><path d="M269.078 217.926c-7.355 0-13.805 3.898-17.441 9.722-13.75 2.11-24.313 14.02-24.313 28.352 0 15.82 12.867 28.688 28.688 28.688 15.816 0 28.683-12.868 28.683-28.688 0-1.293-.093-2.582-.265-3.86 3.234-3.632 5.218-8.406 5.218-13.644 0-11.344-9.226-20.57-20.57-20.57zm0 15c3.07 0 5.57 2.5 5.57 5.57 0 3.07-2.5 5.57-5.57 5.57s-5.566-2.5-5.566-5.57c0-3.07 2.496-5.57 5.566-5.57zm-13.066 36.762c-7.547 0-13.688-6.141-13.688-13.688 0-5.11 2.817-9.566 6.977-11.918 2.441 8.633 10.375 14.98 19.777 14.98.09 0 .176-.011.262-.011-1.39 6.082-6.832 10.636-13.328 10.636zm0 0M256.02 141.348h.02c4.14-.008 7.487-3.375 7.48-7.52l-.024-8.289a7.495 7.495 0 0 0-7.5-7.48h-.016a7.503 7.503 0 0 0-7.484 7.52l.024 8.288a7.5 7.5 0 0 0 7.5 7.48zm0 0M236.203 144.988a7.467 7.467 0 0 0 3.758-1.015 7.5 7.5 0 0 0 2.723-10.25l-4.164-7.172c-2.079-3.582-6.668-4.797-10.25-2.719s-4.801 6.668-2.723 10.25l4.164 7.172a7.498 7.498 0 0 0 6.492 3.734zm0 0M275.852 144.89a7.495 7.495 0 0 0 6.511-3.769l4.13-7.187c2.062-3.59.82-8.176-2.774-10.239-3.59-2.062-8.176-.82-10.239 2.774l-4.125 7.187c-2.062 3.59-.82 8.176 2.77 10.239a7.461 7.461 0 0 0 3.727.996zm0 0M256 370.652h-.02c-4.14.008-7.488 3.375-7.48 7.52l.023 8.289a7.495 7.495 0 0 0 7.5 7.48h.016a7.503 7.503 0 0 0 7.484-7.52l-.023-8.288a7.498 7.498 0 0 0-7.5-7.48zm0 0M282.309 370.746c-2.079-3.582-6.668-4.797-10.25-2.719a7.5 7.5 0 0 0-2.723 10.25l4.164 7.172a7.498 7.498 0 0 0 10.25 2.719 7.5 7.5 0 0 0 2.723-10.25zm0 0M229.656 370.875l-4.129 7.191a7.503 7.503 0 0 0 6.5 11.235 7.504 7.504 0 0 0 6.512-3.77l4.125-7.187a7.498 7.498 0 0 0-2.77-10.239c-3.59-2.062-8.175-.82-10.238 2.77zm0 0"/></svg>