<svg xmlns="http://www.w3.org/2000/svg" viewBox="0 0 415.22 415.22"><path fill="#f7f1e6" d="M181.263 61.178h11.666v31.785h-11.666zM181.263 102.414h11.666v31.785h-11.666z"/><path d="M233.956 304.213V26.346C233.956 11.793 222.162 0 207.609 0s-26.347 11.793-26.347 26.346v25.381h11.666V30.413c0-8.109 6.571-14.681 14.681-14.681s14.681 6.572 14.681 14.681v285.813c.592.298 1.168.62 1.739.953 15.952 6.41 27.22 22.015 27.22 40.259 0 23.96-19.424 43.384-43.385 43.384-23.96 0-43.383-19.424-43.383-43.384 0-17.618 10.508-32.773 25.594-39.566a32.5 32.5 0 0 1 2.854-1.646v-48.868h-11.666v36.855c-19.146 9.649-32.285 29.472-32.285 52.375 0 32.381 26.25 58.632 58.632 58.632s58.632-26.251 58.632-58.632c0-22.903-13.14-42.725-32.286-52.375z" fill="#f7f1e6"/><path fill="#f7f1e6" d="M181.263 184.886h11.666v31.786h-11.666zM181.263 226.121h11.666v31.785h-11.666zM181.263 143.649h11.666v31.786h-11.666z"/><path d="M207.61 56.452a4.726 4.726 0 0 1-4.724 4.726h-9.957v31.785h9.957a4.726 4.726 0 0 1 0 9.451h-9.957v31.785h9.957a4.726 4.726 0 0 1 0 9.45h-9.957v31.786h9.957a4.726 4.726 0 0 1 0 9.451h-9.957v31.786h9.957a4.725 4.725 0 0 1 0 9.45h-9.957v31.785h9.957a4.726 4.726 0 0 1 0 9.452h-9.957v48.868a32.645 32.645 0 0 0-2.854 1.646c-15.086 6.793-25.594 21.949-25.594 39.566 0 23.96 19.423 43.384 43.383 43.384 23.961 0 43.385-19.424 43.385-43.384 0-18.245-11.268-33.85-27.22-40.259a32.146 32.146 0 0 0-1.739-.953V30.413c0-8.109-6.571-14.681-14.681-14.681s-14.681 6.572-14.681 14.681v21.313h9.957a4.728 4.728 0 0 1 4.725 4.726z" fill="#e74424"/><path d="M202.886 61.178a4.726 4.726 0 0 0 0-9.452h-21.908v9.451h11.951l9.957.001zM202.886 102.414a4.726 4.726 0 0 0 0-9.451h-21.908v9.451h21.908zM202.886 143.649a4.725 4.725 0 0 0 0-9.45h-21.908v9.45h21.908zM202.886 184.886a4.725 4.725 0 0 0 0-9.451h-21.908v9.451h21.908zM202.886 226.121a4.726 4.726 0 0 0 0-9.45h-21.908v9.45h21.908zM202.886 267.358a4.726 4.726 0 0 0 0-9.452h-21.908v9.451h21.908v.001z" fill="#2b3237"/></svg>