<svg xmlns="http://www.w3.org/2000/svg" viewBox="0 0 396.375 396.375"><path d="M198.066 62.24c-17.324.309-32.673 4.768-32.831 4.813-.089.026-.18.044-.269.067a105.72 105.72 0 0 0 3.744 6.263c9.773 15.059 18.609 28.404 29.355 43.369 10.746-14.965 19.582-28.311 29.355-43.369a105.72 105.72 0 0 0 3.744-6.263c-.089-.023-.18-.041-.269-.067-.156-.045-15.505-4.504-32.829-4.813z" fill="none"/><path d="M163.574 67.12c.089-.023-.428-.041-.339-.067.158-.045 17.507-4.504 34.831-4.813 17.324.309 32.673 4.768 32.831 4.813.089.026 1.004.044 1.093.067 13.516-24.368 16.951-51.9 16.801-53.374.005.003-.52-.338-.516-.334-2.222-1.481-3.988-2.395-4.416-2.631-.059-.033-1.363-.752-1.423-.783C229.951 3.461 214.609.004 198.066 0c-16.543.004-31.885 3.461-44.37 9.998-.06.031-1.364.75-1.423.783-.428.236-2.194 1.149-4.416 2.631.004-.004-.762.493-.757.49-.15 1.474 2.958 28.85 16.474 53.218z" fill="#d43d21"/><path d="M353.995 328.539a113674.327 113674.327 0 0 0-85.104-112.447c-9.444-12.467-17.797-23.492-25.233-33.315 6.175-7.562 25.936-31.836 31.426-39.468 7.098-9.963 16.783-23.563 7.441-52.639-10.055-31.84-17.548-52.377-20.712-60.617-3.162-8.235-4.713-10.981-13.538-16.641a.071.071 0 0 0-.014-.01c.15 1.474-3.58 29.35-17.096 53.718a105.72 105.72 0 0 1-3.744 6.263c-9.773 15.059-18.609 28.404-29.355 43.369-10.746-14.965-19.582-28.311-29.355-43.369a105.72 105.72 0 0 1-3.744-6.263c-13.516-24.368-17.246-52.244-17.096-53.718l-.014.01c-8.826 5.659-10.377 8.405-13.538 16.641-3.164 8.24-10.657 28.777-20.712 60.617-9.342 29.076.344 42.676 7.44 52.639 5.491 7.632 25.252 31.906 31.425 39.468a99233.309 99233.309 0 0 1-25.231 33.315 116513.363 116513.363 0 0 0-85.104 112.447c-2.237 2.959-2.22 6.918.045 9.859l41.901 54.436c1.712 2.225 4.466 3.541 7.396 3.541.042 0 .085 0 .128-.002 2.978-.039 5.746-1.434 7.414-3.734.818-1.129 50.26-69.326 99.045-136.781a154119.56 154119.56 0 0 0 72.411 100.028h.001c1.158.001 26.26-36.238 26.632-36.752 1.669-2.301 4.438-3.695 7.415-3.734.043-.002.086-.002.128-.002 2.93 0 5.684 1.316 7.396 3.541l28.439 36.947 1.464.001 12.456-16.983c2.264-2.942 1.824-7.406-.413-10.365z" fill="#e74424"/><path d="M306.155 314.552c-.043 0-.087 0-.131.002-3.039.04-7.1-.002-9.616 4.214-.253.425-8.91 12.502-25.93 37.118l-.001.001h71.475l-.001-.001-28.245-37.72c-1.748-2.27-4.56-3.614-7.551-3.614z" fill="#d43d21"/></svg>