<svg xmlns="http://www.w3.org/2000/svg" viewBox="0 0 424.989 424.989"><path d="M316.538 86.002a37.823 37.823 0 0 1-13.728-11.644l-80.459 94.915a52.54 52.54 0 0 1 15.097 10.028l79.09-93.299zM161.231 251.247l-93.172 89.475a37.842 37.842 0 0 1 12.571 12.884l94.494-90.745a52.695 52.695 0 0 1-13.893-11.614zM71.341 130.039a37.806 37.806 0 0 1-11.85 13.813l91.776 57.691a52.35 52.35 0 0 1 8.341-16.018l-88.267-55.486zM185.295 111.826a30.062 30.062 0 0 1-10.806 2.059l10.244 53.69a52.09 52.09 0 0 1 10.747-2.361l-10.185-53.388zM199.059 269.82l4.003 55.061a30.139 30.139 0 0 1 8.348-1.18c.878 0 1.745.046 2.604.119l-3.976-54.675a52.818 52.818 0 0 1-8.708.732 51.796 51.796 0 0 1-2.271-.057zM362.523 320.7l-116.06-76.508a52.774 52.774 0 0 1-11.824 13.764l117.552 77.491a37.722 37.722 0 0 1 10.332-14.747zM253.774 219.502l59.214-12.806a30.06 30.06 0 0 1-2.311-10.754l-57.629 12.463c.502 2.918.779 5.913.779 8.974a51.46 51.46 0 0 1-.053 2.123zM98.504 235.519a30.008 30.008 0 0 1 2.468 10.75l52.168-8.05a52.17 52.17 0 0 1-3.307-10.62l-51.329 7.92z" fill="#2b3237"/><path d="M71.341 138.232a37.492 37.492 0 0 0 3.995-16.878c0-20.803-16.866-37.667-37.668-37.667S0 100.551 0 121.354s16.866 37.667 37.668 37.667a37.48 37.48 0 0 0 21.823-6.976 37.79 37.79 0 0 0 11.85-13.813zM316.538 86.002a37.501 37.501 0 0 0 16.785 3.948c20.802 0 37.668-16.864 37.668-37.667s-16.866-37.667-37.668-37.667-37.668 16.864-37.668 37.667a37.49 37.49 0 0 0 7.155 22.076 37.82 37.82 0 0 0 13.728 11.643zM387.321 311.372c-9.499 0-18.171 3.524-24.798 9.328a37.732 37.732 0 0 0-10.332 14.748 37.56 37.56 0 0 0-2.538 13.592c0 20.803 16.866 37.667 37.668 37.667s37.668-16.864 37.668-37.667-16.866-37.668-37.668-37.668zM68.059 340.722a37.472 37.472 0 0 0-19.891-5.684c-20.802 0-37.668 16.864-37.668 37.667s16.866 37.667 37.668 37.667 37.668-16.864 37.668-37.667a37.47 37.47 0 0 0-5.206-19.1 37.857 37.857 0 0 0-12.571-12.883z" fill="#d09220"/><path d="M247.477 244.794a53.376 53.376 0 0 0 7.475-25.243c.028-.721.055-1.443.055-2.171 0-3.13-.283-6.191-.797-9.175-2.005-11.629-7.746-21.973-15.951-29.758a53.693 53.693 0 0 0-15.436-10.253 53.464 53.464 0 0 0-27.473-4.15 53.289 53.289 0 0 0-10.989 2.415c-10.308 3.434-19.224 9.901-25.688 18.353a53.51 53.51 0 0 0-8.528 16.377 53.632 53.632 0 0 0-2.491 16.191c0 3.577.357 7.068 1.024 10.449a53.346 53.346 0 0 0 3.381 10.858 53.688 53.688 0 0 0 8.272 13.321 53.926 53.926 0 0 0 14.206 11.875 53.36 53.36 0 0 0 24.472 7.115c.77.033 1.542.059 2.321.059 3.035 0 6.007-.265 8.903-.749a53.444 53.444 0 0 0 25.154-11.44 54.002 54.002 0 0 0 12.09-14.074z" fill="#d43d21"/><path d="M70.837 217.38c-16.66 0-30.168 13.507-30.168 30.168 0 16.662 13.508 30.168 30.168 30.168s30.168-13.506 30.168-30.168c0-.429-.015-.854-.032-1.278a29.987 29.987 0 0 0-2.468-10.75c-4.648-10.674-15.285-18.14-27.668-18.14zM204.501 83.721c0-16.661-13.508-30.168-30.168-30.168s-30.168 13.507-30.168 30.168c0 16.662 13.508 30.168 30.168 30.168.053 0 .104-.004.156-.004 3.812-.02 7.452-.75 10.806-2.059 11.238-4.387 19.206-15.312 19.206-28.105zM340.823 225.218c16.66 0 30.168-13.506 30.168-30.168 0-16.661-13.508-30.168-30.168-30.168s-30.168 13.507-30.168 30.168c0 .299.014.595.022.893.111 3.802.918 7.43 2.311 10.754 4.558 10.878 15.303 18.521 27.835 18.521zM203.062 324.88c-12.599 3.622-21.82 15.225-21.82 28.988 0 16.662 13.508 30.168 30.168 30.168s30.168-13.506 30.168-30.168c0-15.783-12.124-28.728-27.564-30.049a30.689 30.689 0 0 0-2.604-.119 30.214 30.214 0 0 0-8.348 1.18z" fill="#e0dcd3"/></svg>