<svg xmlns="http://www.w3.org/2000/svg" viewBox="0 0 358.08 358.08"><path d="M313.862 1.375H44.218C19.797 1.375 0 21.172 0 45.592v266.896c0 24.42 19.797 44.217 44.218 44.217h223.519V310.58c0-24.421 19.797-44.218 44.217-44.218l46.126-2.25V45.592c0-24.42-19.797-44.217-44.218-44.217zm-42.977 185.496c0 12.93-10.482 23.414-23.419 23.414h-37.178v37.18c0 12.936-10.481 23.422-23.419 23.422H171.21c-12.934 0-23.423-10.486-23.423-23.422v-37.18h-37.178c-12.928 0-23.414-10.484-23.414-23.414v-15.668c0-12.93 10.486-23.414 23.414-23.414h37.178v-37.176c0-12.938 10.489-23.42 23.423-23.42H186.869c12.938 0 23.419 10.482 23.419 23.42v37.176h37.178c12.937 0 23.419 10.484 23.419 23.414v15.668z" fill="#e74424"/><path d="M267.654 309.432v47.273l90.426-92.593h-45.107c-25.029 0-45.319 20.29-45.319 45.32z" fill="#d43d21"/><path d="M247.466 147.789h-37.178v-37.176c0-12.938-10.481-23.42-23.419-23.42H171.21c-12.934 0-23.423 10.482-23.423 23.42v37.176h-37.178c-12.928 0-23.414 10.484-23.414 23.414v15.668c0 12.93 10.486 23.414 23.414 23.414h37.178v37.18c0 12.936 10.489 23.422 23.423 23.422H186.869c12.938 0 23.419-10.486 23.419-23.422v-37.18h37.178c12.937 0 23.419-10.484 23.419-23.414v-15.668c0-12.93-10.483-23.414-23.419-23.414z" fill="#f7f1e6"/></svg>