<svg xmlns="http://www.w3.org/2000/svg" viewBox="0 0 408.477 408.477"><path d="M241.441 237.807c8.404 4.995 17.842 10.945 26.99 18.088 11.918 4.199 25.148 10.151 40.351 18.577 2.306 1.278 4.706 2.489 7.145 3.681.339-2.52.439-4.99.306-7.349-.843-14.801-9.318-9.221-11.544-7.975-4.042 2.261-8.863.399-12.377-3.896 14.753-7.68 23.069-22.836 23.078-35.101.009-11.144-6.965-7.333-9.149-6.447-11.084 4.483-21.789-17.621-6.508-34.154 8.315-8.011 4.105-13.646 1.612-16.446a74.397 74.397 0 0 0-8.882-8.451c-.873 1.664-1.553 3.15-2.39 4.453-6.081 30.055-24.412 59.547-48.632 75.02zM171.303 239.309l-.308-.187c-.02 2.667-.053 5.698-.008 8.968l.315-.045.001-8.736z" fill="#664b3a"/><path d="M142.283 255.121c8.348-7.357 20.341-12.196 28.713-15.998-21.787-14.004-41.099-40.878-48.654-67.72-2.145-1.824-4.212-5.485-6.405-11.541-2.306 1.997-4.746 4.43-6.966 6.924-2.494 2.801-6.705 8.436 1.61 16.446 15.282 16.533 4.576 38.638-6.508 34.154-2.185-.886-9.157-4.696-9.149 6.447.011 12.265 8.325 27.421 23.078 35.101-3.514 4.295-8.334 6.156-12.375 3.896-2.227-1.246-10.703-6.826-11.544 7.975a38.324 38.324 0 0 0 .202 6.494 141.703 141.703 0 0 0 5.41-2.826c16.159-8.957 30.095-15.123 42.588-19.352z" fill="#664b3a"/><path d="M204.702 349.532c.047-.095.091-.191.138-.285l-.129-.188c-.005.159-.009.319-.009.473zM170.988 248.091c.036 2.64.126 5.434.315 8.321v-8.366l-.315.045z" fill="#dec8ae"/><path d="M204.569 340.695c.153 1.808.259 3.685.312 5.64.129-1.863.201-3.83-.312-5.64zM204.922 349.076c0 .1.003.194.003.294 0-.104.003-.203.003-.307l-.006.013z" fill="#f7f1e6"/><path d="M315.926 278.153c-2.438-1.191-4.839-2.402-7.145-3.681-15.202-8.426-28.433-14.378-40.351-18.577 9.646 8.686 17.346 18.766 18.867 27.992-9.84-7.182-16.989-11.862-39.856-12.061 5.492 5.988 13.189 21.519 16.186 35.622-14.197.029-37.421 10.307-58.702 41.921l-.085-.123c-.047.094-.091.19-.138.285 0-.154.004-.313.009-.473-21.224-31.366-44.343-41.581-58.491-41.61 2.995-14.104 10.692-29.634 16.184-35.622-22.866.198-30.016 4.879-39.855 12.061 1.567-9.502 9.687-19.91 19.735-28.767-12.493 4.229-26.429 10.396-42.588 19.352a140.285 140.285 0 0 1-5.41 2.826c-19.011 9.473-41.276 16.983-41.276 43.838v60.745c0 15.227 15.54 26.596 37.436 26.596l113.794-.001 113.792.001c21.898 0 37.436-11.369 37.436-26.596v-60.745c-.002-26.042-20.939-33.893-39.542-42.983zm-12.019 92.735a5.019 5.019 0 0 1-5.019 5.019h-7.965v7.966a5.02 5.02 0 0 1-5.019 5.021h-3.355a5.02 5.02 0 0 1-5.019-5.021v-7.966h-7.968a5.02 5.02 0 0 1-5.017-5.019v-3.354a5.02 5.02 0 0 1 5.017-5.019h7.968v-7.965a5.018 5.018 0 0 1 5.019-5.019h3.355a5.018 5.018 0 0 1 5.019 5.019v7.965h7.965a5.019 5.019 0 0 1 5.019 5.019v3.354z" fill="#f7f1e6"/><path d="M238.855 239.398c-10.385 6.104-21.775 9.653-33.698 9.653-11.981 0-23.427-3.583-33.853-9.742v17.102c.56 8.519 2.004 17.829 5.609 26.276 1.526 3.575 3.435 6.996 5.831 10.135 11.612 15.209 20.04 26.863 21.824 47.872.514 1.81.442 3.777.312 5.64.024.898.039 1.81.042 2.741l.006-.013c.07-26.516 9.104-39.123 22.174-56.24 2.542-3.328 4.534-6.975 6.103-10.784 6.009-14.594 5.734-31.62 5.65-42.64z" fill="#dec8ae"/><path d="M170.996 239.123l.308.187c10.426 6.159 21.871 9.742 33.853 9.742 11.923 0 23.313-3.55 33.698-9.653 1.123-.657 1.426-.86 2.586-1.591 24.222-15.474 42.552-44.851 48.632-74.904-8.219 12.792-14.534 8.188-15.832-12.357-.865-13.661-8.678-29.628-23.976-40.866 2.563 6.465 4.317 13.659 5.085 21.581.533 5.499-1.301 17.234-16.342 15.946-34.143-5.135-64.18-20.944-80.797-38.318-17.332 12.773-23.045 31.488-22.737 42.194.345 11.99-5.853 26.688-13.132 20.5 7.556 26.842 24.549 52.096 46.336 66.1.718.49.926.699 2.318 1.439z" fill="#f3dbbd"/><path d="M204.88 346.335a97.592 97.592 0 0 0-.312-5.64c-1.784-21.009-10.212-32.663-21.824-47.872-2.396-3.139-4.305-6.56-5.831-10.135-3.605-8.447-5.05-17.758-5.609-26.276-.189-2.888.036-5.515 0-8.154-.045-3.27-.02-3.499 0-6.166.006-.855 0-2.192 0-2.969-1.494-.67-1.001-.556-2.159-1.241-8.372 3.802-18.514 9.882-26.861 17.239-10.049 8.856-18.168 19.265-19.735 28.767 9.84-7.182 16.989-11.862 39.855-12.061-5.491 5.988-13.188 21.519-16.184 35.622 14.148.029 37.268 10.244 58.491 41.61l.129.188.085.123c0-.1-.003-.194-.003-.294-.003-.932-.017-1.843-.042-2.741z" fill="#fff"/><path d="M238.855 239.398c.084 11.02.359 28.046-5.65 42.641-1.568 3.81-3.561 7.456-6.103 10.784-13.069 17.117-22.104 29.725-22.174 56.24 0 .104-.003.203-.003.307 21.281-31.614 44.505-41.892 58.702-41.921-2.996-14.104-10.693-29.634-16.186-35.622 22.867.198 30.017 4.879 39.856 12.061-1.521-9.227-9.222-19.307-18.867-27.992-8.451-7.609-26.99-18.088-26.99-18.088s-1.545.991-2.585 1.59z" fill="#fff"/><path d="M122.341 171.583c7.279 6.188 13.477-8.51 13.132-20.5-.308-10.706 5.405-29.421 22.737-42.194 16.617 17.374 46.654 33.184 80.797 38.318 15.041 1.288 16.875-10.447 16.342-15.946-.768-7.922-2.521-15.116-5.085-21.581 15.298 11.238 23.11 27.205 23.976 40.866 1.298 20.546 7.613 25.149 15.832 12.357a58.625 58.625 0 0 0 2.564-4.442 87.617 87.617 0 0 0 1.756-3.542c6.71-14.325-1.725-59.683-28.894-89.351-4.054 7.383-11.702 12.563-23.121 12.563h-70.554c-13.98 0-22.313-7.759-25.311-17.825l-.221-.74c-29.266 24.545-40.08 65.143-33.303 91.36.91 3.521 1.84 6.544 2.777 9.133 2.194 6.055 4.433 9.7 6.576 11.524z" fill="#664b3a"/><path d="M171.823 78.131h70.555c11.419 0 19.067-5.18 23.121-12.563a26.76 26.76 0 0 0 2.19-5.263c2.998-10.066 10.039-33.837 10.039-33.837C281.76 14.476 275.074 0 261.095 0h-107.99c-13.978 0-20.665 14.476-16.634 26.468 0 0 6.712 22.658 9.82 33.097l.221.74c2.997 10.067 11.329 17.826 25.311 17.826zm15.596-40.745a5.019 5.019 0 0 1 5.017-5.018h7.968v-7.965a5.018 5.018 0 0 1 5.019-5.019h3.355a5.018 5.018 0 0 1 5.018 5.019v7.965h7.966a5.02 5.02 0 0 1 5.019 5.018v3.356a5.02 5.02 0 0 1-5.019 5.019h-7.966v7.965a5.02 5.02 0 0 1-5.018 5.021h-3.355a5.02 5.02 0 0 1-5.019-5.021v-7.965h-7.968a5.02 5.02 0 0 1-5.017-5.019v-3.356z" fill="#f7f1e6"/><path d="M192.436 45.761h7.968v7.965a5.02 5.02 0 0 0 5.019 5.021h3.355a5.02 5.02 0 0 0 5.018-5.021v-7.965h7.966a5.02 5.02 0 0 0 5.019-5.019v-3.356a5.019 5.019 0 0 0-5.019-5.018h-7.966v-7.965a5.018 5.018 0 0 0-5.018-5.019h-3.355a5.018 5.018 0 0 0-5.019 5.019v7.965h-7.968a5.019 5.019 0 0 0-5.017 5.018v3.356a5.02 5.02 0 0 0 5.017 5.019zM298.888 362.515h-7.965v-7.965a5.018 5.018 0 0 0-5.019-5.019h-3.355a5.018 5.018 0 0 0-5.019 5.019v7.965h-7.968a5.02 5.02 0 0 0-5.017 5.019v3.354a5.02 5.02 0 0 0 5.017 5.019h7.968v7.966a5.02 5.02 0 0 0 5.019 5.021h3.355a5.02 5.02 0 0 0 5.019-5.021v-7.966h7.965a5.019 5.019 0 0 0 5.019-5.019v-3.354a5.019 5.019 0 0 0-5.019-5.019z" fill="#e74424"/></svg>