<svg height="512pt" viewBox="0 -1 512.001 512" width="512pt" xmlns="http://www.w3.org/2000/svg"><path d="M256.25 476.414a7.574 7.574 0 0 1-7.574-7.574v-.106a7.573 7.573 0 0 1 15.145 0v.106a7.573 7.573 0 0 1-7.571 7.574zm0 0M37.95 310.672h-.036a7.568 7.568 0 0 1-7.539-7.606v-.109a7.572 7.572 0 0 1 7.57-7.535h.035a7.57 7.57 0 0 1 7.54 7.605v.11a7.572 7.572 0 0 1-7.57 7.535zm0 0" fill="#898ec9"/><path d="M83.695 371.137c15.79-15.79 41.383-15.79 57.168 0 15.79 15.785 15.79 41.379 0 57.168-11.086 11.086-47.14 18.949-67.629 22.648-7.203 1.3-13.488-4.984-12.187-12.187 3.7-20.489 11.562-56.543 22.648-67.63zm0 0" fill="#fda736"/><path d="M106.426 371.137c9.511-9.512 24.93-9.512 34.437 0 9.512 9.508 9.512 24.926 0 34.437-5.652 5.653-22.086 9.914-34.484 12.442-7.387 1.507-13.902-5.004-12.395-12.395 2.528-12.398 6.79-28.832 12.442-34.484zm0 0" fill="#7e18ea"/><path d="M476.324 72.316a7.548 7.548 0 0 1-5.355-2.218 7.57 7.57 0 0 1 0-10.707l15.12-15.121a7.577 7.577 0 0 1 10.708 0 7.575 7.575 0 0 1 0 10.71L481.68 70.102a7.56 7.56 0 0 1-5.356 2.214zm0 0M447.254 43.246a7.545 7.545 0 0 1-5.352-2.215 7.575 7.575 0 0 1 0-10.71l15.118-15.118a7.57 7.57 0 0 1 10.707-.004 7.568 7.568 0 0 1 0 10.711l-15.118 15.121a7.56 7.56 0 0 1-5.355 2.215zm0 0M469.863 49.71a7.575 7.575 0 0 1-5.355-12.93L499.074 2.22a7.57 7.57 0 0 1 10.707 0 7.563 7.563 0 0 1 0 10.707l-34.566 34.566a7.539 7.539 0 0 1-5.352 2.219zm0 0M269.52 412.836a7.575 7.575 0 0 1-5.355-12.93l7.468-7.469a7.575 7.575 0 0 1 10.71-.003 7.575 7.575 0 0 1 0 10.71l-7.468 7.473a7.564 7.564 0 0 1-5.355 2.219zm0 0" fill="#4e5093"/><path d="M175.395 510.254a7.57 7.57 0 0 1-5.355-12.926l81.023-81.027a7.579 7.579 0 0 1 10.71 0 7.575 7.575 0 0 1 0 10.71l-81.023 81.024a7.548 7.548 0 0 1-5.355 2.219zm0 0" fill="#898ec9"/><path d="M274.473 406.863l-43.356-81.168-41.793 41.793 60.188 60.188c3.941 3.941 10.336 3.941 14.277 0l8.918-8.918a10.1 10.1 0 0 0 1.766-11.895zm0 0" fill="#a7acd3"/><path d="M106.738 250.055a7.575 7.575 0 0 1-5.355-12.93l7.472-7.469a7.57 7.57 0 0 1 10.707 0 7.563 7.563 0 0 1 0 10.707l-7.468 7.473a7.548 7.548 0 0 1-5.356 2.219zm0 0" fill="#4e5093"/><path d="M57.152 296.457a7.575 7.575 0 0 1-5.355-12.93l35.98-35.98c2.957-2.957 7.754-2.957 10.711 0s2.957 7.75 0 10.71l-35.984 35.981a7.549 7.549 0 0 1-5.352 2.219zm0 0" fill="#898ec9"/><path d="M105.137 237.527l81.168 43.356-41.793 41.793-60.188-60.188c-3.941-3.941-3.941-10.336 0-14.277l8.918-8.918a10.1 10.1 0 0 1 11.895-1.766zm0 0" fill="#a7acd3"/><path d="M473.453 67.617l-84.492 84.488-29.066-29.066 84.488-84.492a10.11 10.11 0 0 1 6.941-2.953l15.086-.297c5.73-.113 10.406 4.562 10.293 10.293l-.297 15.086a10.102 10.102 0 0 1-2.953 6.941zm0 0" fill="#6163aa"/><path d="M476.71 45.133l-.304 15.543a10.095 10.095 0 0 1-2.953 6.941l-84.492 84.488-9.61-9.609zm0 0" fill="#4e5093"/><path d="M415.516 125.55l-26.555 26.555-29.066-29.066 26.554-26.555zm0 0" fill="#a7acd3"/><path d="M379.348 142.496l26.55-26.555 9.614 9.614-26.555 26.55zm0 0" fill="#898ec9"/><path d="M352.66 119.34l-18.293 7.5a10.04 10.04 0 0 0-3.308 2.203l-213.77 213.766 51.902 51.902 213.766-213.77a10.102 10.102 0 0 0 2.203-3.308l7.5-18.293a10.095 10.095 0 0 0-2.203-10.969l-26.828-26.828a10.095 10.095 0 0 0-10.969-2.203zm0 0" fill="#6163aa"/><path d="M392.66 159.336l-7.504 18.297a10.04 10.04 0 0 1-2.203 3.308L169.188 394.707l-14.668-14.668 215.199-215.2 10.824-26.382 9.914 9.906a10.096 10.096 0 0 1 2.203 10.973zm0 0" fill="#4e5093"/><path d="M286.227 277.68L261.907 302l-14.673-14.668L210 250.094l24.324-24.32zm0 0" fill="#d82fea"/><path d="M247.23 287.332l24.325-24.324 14.672 14.668L261.902 302zm0 0" fill="#b200bf"/><path d="M154.297 395.324l-37.621-37.62c-3.942-3.946-3.942-10.337 0-14.282l19.187-19.184 51.899 51.899-19.184 19.187c-3.945 3.942-10.34 3.942-14.281 0zm0 0" fill="#a7acd3"/><path d="M327.988 246.621c-1.472 1.473-3.414 2.211-5.351 2.211s-3.875-.738-5.352-2.21l-14.668-14.673-37.238-37.234a7.566 7.566 0 0 1 0-10.703 7.58 7.58 0 0 1 10.715 0l51.894 51.898a7.575 7.575 0 0 1 0 10.711zm0 0" fill="#d82fea"/><path d="M323.082 215.871c-1.957 0-3.91-.75-5.39-2.25a7.579 7.579 0 0 1 .066-10.71l.082-.079a7.567 7.567 0 0 1 10.707.066 7.57 7.57 0 0 1-.063 10.707l-.082.079a7.554 7.554 0 0 1-5.32 2.187zm0 0M434.66 114.023a7.59 7.59 0 0 1-5.363 2.211 7.555 7.555 0 0 1-5.348-2.21l-25.969-25.97a7.575 7.575 0 1 1 10.71-10.715l25.97 25.97a7.58 7.58 0 0 1 0 10.714zm0 0M462.566 86.113a7.584 7.584 0 0 1-5.359 2.223 7.54 7.54 0 0 1-5.352-2.223l-25.968-25.968a7.568 7.568 0 0 1 0-10.711 7.59 7.59 0 0 1 10.71 0l25.97 25.968a7.59 7.59 0 0 1 0 10.711zm0 0" fill="#a7acd3"/><g fill="#898ec9"><path d="M7.574 416.465a7.547 7.547 0 0 1-5.355-2.215 7.575 7.575 0 0 1 0-10.71l92.449-92.45a7.575 7.575 0 0 1 10.71 0 7.57 7.57 0 0 1 0 10.707L12.927 414.25a7.545 7.545 0 0 1-5.352 2.215zm0 0M189.633 458.629a7.575 7.575 0 0 1-5.355-12.93l18.761-18.762a7.577 7.577 0 0 1 10.707 0 7.568 7.568 0 0 1 0 10.711l-18.758 18.762a7.564 7.564 0 0 1-5.355 2.219zm0 0M109.004 504a7.545 7.545 0 0 1-5.352-2.215 7.575 7.575 0 0 1 0-10.71l84.43-84.43c2.957-2.958 7.754-2.958 10.711 0s2.957 7.75 0 10.707l-84.434 84.433a7.547 7.547 0 0 1-5.355 2.215zm0 0M26.676 360.14a7.575 7.575 0 0 1-5.352-12.93l20.074-20.073a7.57 7.57 0 0 1 10.707 0 7.568 7.568 0 0 1 0 10.71l-20.074 20.075a7.535 7.535 0 0 1-5.355 2.219zm0 0"/></g><path d="M327.988 246.621c-1.472 1.473-3.414 2.211-5.351 2.211s-3.875-.738-5.352-2.21l-14.668-14.673 10.703-10.71 14.668 14.671a7.575 7.575 0 0 1 0 10.711zm0 0" fill="#b200bf"/><path d="M434.66 103.309a7.58 7.58 0 0 1 0 10.714 7.59 7.59 0 0 1-5.363 2.211 7.555 7.555 0 0 1-5.348-2.21l-8.058-8.06L426.6 95.25zm0 0M462.566 86.113a7.584 7.584 0 0 1-5.359 2.223 7.54 7.54 0 0 1-5.352-2.223l-8.058-8.054 10.715-10.715 8.054 8.058a7.59 7.59 0 0 1 0 10.711zm0 0" fill="#898ec9"/></svg>