<svg height="512pt" viewBox="-83 0 512 512.001" width="512pt" xmlns="http://www.w3.org/2000/svg"><path d="M317.8 421.313v-231.34a90.223 90.223 0 0 0-34.577-71.02 7.702 7.702 0 0 0-9.504 0 90.235 90.235 0 0 0-34.578 71.02v231.34zm0 0" fill="#ff5c3c"/><path d="M317.797 189.977v231.335H295.5V189.977a90.229 90.229 0 0 0-28.176-65.5 87.56 87.56 0 0 1 6.395-5.528 7.707 7.707 0 0 1 4.754-1.633c1.675 0 3.359.543 4.75 1.633a90.217 90.217 0 0 1 34.574 71.028zm0 0" fill="#ff2e04"/><g fill="#dd1f00"><path d="M315.973 210.32h-74.7a7.726 7.726 0 1 1 0-15.453h74.7c4.27 0 7.726 3.461 7.726 7.727a7.724 7.724 0 0 1-7.726 7.726zm0 0M315.973 261.969h-74.7a7.729 7.729 0 0 1-7.726-7.727 7.729 7.729 0 0 1 7.726-7.726h74.7c4.27 0 7.726 3.46 7.726 7.726a7.726 7.726 0 0 1-7.726 7.727zm0 0M315.973 313.617h-74.7a7.726 7.726 0 1 1 0-15.453h74.7a7.724 7.724 0 0 1 7.726 7.727 7.726 7.726 0 0 1-7.726 7.726zm0 0M315.973 365.266h-74.7a7.726 7.726 0 1 1 0-15.453h74.7a7.724 7.724 0 0 1 7.726 7.726 7.726 7.726 0 0 1-7.726 7.727zm0 0M298.223 344.621c-4.266 0-7.778-3.457-7.778-7.726 0-4.266 3.407-7.723 7.676-7.723h.102a7.723 7.723 0 0 1 7.726 7.723 7.724 7.724 0 0 1-7.726 7.726zm0 0M298.223 293.707h-.075c-4.27-.043-7.742-3.535-7.703-7.805.043-4.238 3.442-7.648 7.676-7.648h.18a7.726 7.726 0 0 1 7.648 7.8 7.728 7.728 0 0 1-7.726 7.653zm0 0M298.223 242.793c-4.266 0-7.778-3.461-7.778-7.727 0-4.27 3.407-7.726 7.676-7.726h.102c4.27 0 7.726 3.46 7.726 7.726s-3.457 7.727-7.726 7.727zm0 0"/></g><path d="M29.246 421.313v-231.34a90.223 90.223 0 0 1 34.578-71.02 7.702 7.702 0 0 1 9.504 0 90.235 90.235 0 0 1 34.578 71.02v231.34zm0 0" fill="#ff5c3c"/><path d="M29.25 189.977v231.335h22.297V189.977a90.229 90.229 0 0 1 28.176-65.5 87.56 87.56 0 0 0-6.395-5.528c-1.39-1.09-3.078-1.633-4.754-1.633s-3.36.543-4.75 1.633a90.217 90.217 0 0 0-34.574 71.028zm0 0" fill="#ff2e04"/><path d="M105.77 210.32H31.074a7.724 7.724 0 0 1-7.726-7.726 7.726 7.726 0 0 1 7.726-7.727h74.7a7.727 7.727 0 0 1-.004 15.453zm0 0M105.77 261.969H31.074a7.726 7.726 0 0 1-7.726-7.727 7.726 7.726 0 0 1 7.726-7.726h74.7a7.729 7.729 0 0 1 7.726 7.726 7.73 7.73 0 0 1-7.73 7.727zm0 0M105.77 313.617H31.074a7.726 7.726 0 0 1-7.726-7.726 7.724 7.724 0 0 1 7.726-7.727h74.7a7.726 7.726 0 1 1-.004 15.453zm0 0M105.77 365.266H31.074a7.726 7.726 0 0 1-7.726-7.727 7.724 7.724 0 0 1 7.726-7.726h74.7a7.726 7.726 0 1 1-.004 15.453zm0 0M48.926 344.621h-.102a7.724 7.724 0 0 1-7.726-7.726 7.723 7.723 0 0 1 7.726-7.723c4.266 0 7.778 3.457 7.778 7.723 0 4.27-3.407 7.726-7.676 7.726zm0 0M48.824 293.707a7.728 7.728 0 0 1-7.726-7.652c-.043-4.266 3.382-7.758 7.652-7.801h.074c4.235 0 7.735 3.406 7.778 7.648.043 4.27-3.332 7.762-7.598 7.805h-.18zm0 0M48.926 242.793h-.102a7.726 7.726 0 0 1-7.726-7.727 7.724 7.724 0 0 1 7.726-7.726c4.266 0 7.778 3.46 7.778 7.726s-3.407 7.727-7.676 7.727zm0 0" fill="#dd1f00"/><path d="M252.184 369.957V145.32A180.452 180.452 0 0 0 183.027 3.281a15.404 15.404 0 0 0-19.007 0 180.452 180.452 0 0 0-69.157 142.04v224.636zm0 0" fill="#fd8f07"/><path d="M252.188 145.324v224.633h-29.72V145.324c0-53.152-23.413-103.48-63.792-137.676a164.594 164.594 0 0 1 5.344-4.367A15.388 15.388 0 0 1 173.523 0c3.352 0 6.704 1.09 9.504 3.281a180.422 180.422 0 0 1 69.16 142.043zm0 0" fill="#fd7504"/><path d="M259.625 205.719a8.331 8.331 0 0 1-6.84 3.55 8.29 8.29 0 0 1-4.8-1.523 129.47 129.47 0 0 0-25.516-13.96c-15.403-6.294-31.957-9.548-48.946-9.548-26.835 0-52.578 8.125-74.46 23.508-3.77 2.656-8.985 1.75-11.641-2.027-2.66-3.774-1.742-8.985 2.027-11.645 24.715-17.367 53.79-26.547 84.074-26.547 16.875 0 33.368 2.856 48.946 8.387a145.709 145.709 0 0 1 35.129 18.16c3.77 2.66 4.687 7.871 2.027 11.645zm0 0M259.625 310.063a8.325 8.325 0 0 1-6.84 3.554 8.29 8.29 0 0 1-4.8-1.523 129.067 129.067 0 0 0-25.516-13.961c-15.403-6.293-31.957-9.547-48.946-9.547-26.835 0-52.578 8.125-74.46 23.508-3.77 2.656-8.985 1.742-11.641-2.031-2.66-3.782-1.742-8.981 2.027-11.641 24.715-17.367 53.79-26.547 84.074-26.547 16.875 0 33.368 2.855 48.946 8.387a145.43 145.43 0 0 1 35.129 18.16c3.77 2.66 4.687 7.86 2.027 11.64zm0 0" fill="#fda736"/><path d="M259.625 310.063a8.325 8.325 0 0 1-6.84 3.554 8.29 8.29 0 0 1-4.8-1.523 129.067 129.067 0 0 0-25.516-13.961v-17.871a145.43 145.43 0 0 1 35.129 18.16c3.77 2.66 4.687 7.86 2.027 11.64zm0 0" fill="#fd8f07"/><path d="M67.395 459.39v42.688a9.914 9.914 0 0 1-9.918 9.918H38.305c-5.477 0-9.918-4.441-9.918-9.918v-42.687zm0 0" fill="#a7acd3"/><path d="M67.395 492.824v9.254c0 5.477-4.438 9.918-9.918 9.918H38.305c-5.477 0-9.918-4.441-9.918-9.918v-9.254zm0 0" fill="#7e18ea"/><path d="M326.266 459.39v42.688c0 5.48-4.442 9.918-9.918 9.918h-19.172c-5.477 0-9.918-4.441-9.918-9.918v-42.687zm0 0" fill="#a7acd3"/><path d="M326.266 492.824v9.254c0 5.477-4.442 9.918-9.918 9.918h-19.172c-5.477 0-9.918-4.441-9.918-9.918v-9.254zm0 0" fill="#7e18ea"/><path d="M212.867 459.39v42.688a9.92 9.92 0 0 1-9.922 9.922h-58.843a9.918 9.918 0 0 1-9.922-9.922v-42.687zm0 0" fill="#898ec9"/><path d="M165.797 459.39h15.453V512h-15.453zm0 0" fill="#6163aa"/><path d="M212.867 492.828v9.25a9.92 9.92 0 0 1-9.922 9.922h-58.843a9.92 9.92 0 0 1-9.922-9.922v-9.25zm0 0" fill="#7e18ea"/><path d="M165.797 492.828h15.453V512h-15.453zm0 0" fill="#5100cb"/><path d="M337.117 469.547h-120.39V331.414c4.515 2.906 11.714 7.34 19.332 13.29 12.664 9.89 26.5 23.964 31.242 42.124 2.054 7.844 8.469 13.758 16.375 15.5 18.043 3.996 47.68 14.57 59.262 41.895 1.796 4.215 3.164 8.84 3.976 13.898.984 6-3.726 11.426-9.797 11.426zm0 0" fill="#898ec9"/><path d="M236.059 344.703v124.844h-19.332V331.414c4.515 2.906 11.714 7.34 19.332 13.29zm0 0" fill="#6163aa"/><path d="M337.117 469.547h-120.39v-25.32H342.94c1.793 4.214 3.16 8.836 3.977 13.894.98 6-3.73 11.426-9.8 11.426zm0 0" fill="#b200bf"/><path d="M216.727 444.227h19.332v25.32h-19.332zm0 0" fill="#7e18ea"/><path d="M130.32 331.414v138.133H9.93c-6.07 0-10.782-5.426-9.801-11.426.816-5.059 2.183-9.68 3.98-13.898 11.582-27.325 41.22-37.899 59.262-41.895 7.902-1.746 14.32-7.656 16.375-15.5 4.738-18.164 18.574-32.234 31.242-42.125 7.617-5.95 14.817-10.383 19.332-13.289zm0 0" fill="#898ec9"/><path d="M110.988 344.703c7.617-5.95 14.817-10.383 19.332-13.289v138.133h-19.332zm0 0" fill="#6163aa"/><path d="M130.32 444.227v25.32H9.93c-6.07 0-10.782-5.426-9.801-11.426.816-5.059 2.183-9.68 3.98-13.894zm0 0" fill="#b200bf"/><path d="M110.988 444.227h19.332v25.32h-19.332zm0 0" fill="#7e18ea"/><path d="M224.156 239.93v229.617H122.891V239.93c0-35.707 16.41-69.426 44.515-91.442a9.94 9.94 0 0 1 6.117-2.11c2.165 0 4.329.712 6.118 2.11a116.112 116.112 0 0 1 32.804 40.59 116.195 116.195 0 0 1 11.711 50.852zm0 0" fill="#a7acd3"/><path d="M224.156 239.926v229.62h-22.664v-229.62c0-17.852-4.105-35.2-11.722-50.852a116.044 116.044 0 0 0-27.575-36.242 111.46 111.46 0 0 1 5.207-4.344 9.892 9.892 0 0 1 6.121-2.113c2.165 0 4.325.703 6.122 2.113a115.942 115.942 0 0 1 32.789 40.586 116.147 116.147 0 0 1 11.722 50.852zm0 0" fill="#898ec9"/><path d="M200.586 241.125a7.7 7.7 0 0 1-4.793-1.672c-6.402-5.07-14.102-7.754-22.27-7.754s-15.867 2.684-22.27 7.754a7.726 7.726 0 0 1-10.855-1.258 7.73 7.73 0 0 1 1.258-10.855c9.16-7.254 20.18-11.094 31.867-11.094s22.707 3.84 31.868 11.094a7.728 7.728 0 0 1-4.805 13.785zm0 0" fill="#2de0c7"/><path d="M122.89 422.96h101.266v15.454H122.891zm0 0M122.89 401.79h101.266v15.452H122.891zm0 0" fill="#898ec9"/><path d="M200.645 388.492h-.075c-4.27-.043-7.746-3.535-7.703-7.805.043-4.238 3.442-7.648 7.672-7.648h.18c4.27.043 7.695 3.535 7.652 7.8a7.73 7.73 0 0 1-7.726 7.653zm0 0M200.645 367.367c-4.27 0-7.778-3.457-7.778-7.722 0-4.27 3.406-7.727 7.672-7.727h.106a7.725 7.725 0 0 1 0 15.45zm0 0" fill="#7e18ea"/><path d="M259.625 111.672a8.335 8.335 0 0 1-6.84 3.555 8.295 8.295 0 0 1-4.8-1.528 129.071 129.071 0 0 0-32.028-16.41c-13.516-4.687-27.816-7.098-42.434-7.098-26.835 0-52.578 8.13-74.46 23.508-3.77 2.66-8.981 1.754-11.641-2.027-2.656-3.77-1.742-8.984 2.031-11.64 24.711-17.372 53.785-26.548 84.07-26.548 12.227 0 24.262 1.493 35.891 4.43 17.164 4.316 33.453 11.766 48.184 22.117 3.77 2.656 4.687 7.871 2.027 11.64zm0 0" fill="#fda736"/><path d="M259.625 205.719a8.331 8.331 0 0 1-6.84 3.55 8.29 8.29 0 0 1-4.8-1.523 129.47 129.47 0 0 0-25.516-13.96v-17.872a145.709 145.709 0 0 1 35.129 18.16c3.77 2.66 4.687 7.871 2.027 11.645zm0 0M247.984 113.7a129.071 129.071 0 0 0-32.027-16.41 179.617 179.617 0 0 0-6.543-19.38c17.164 4.32 33.453 11.766 48.184 22.121 3.77 2.656 4.687 7.867 2.027 11.64a8.335 8.335 0 0 1-6.84 3.556 8.295 8.295 0 0 1-4.8-1.528zm0 0" fill="#fd8f07"/></svg>