<svg height="512pt" viewBox="0 0 511 512" width="512pt" xmlns="http://www.w3.org/2000/svg"><path d="M256.184 263.605a7.726 7.726 0 0 1-7.727-7.726v-28.05a7.723 7.723 0 0 1 7.727-7.724 7.725 7.725 0 0 1 7.726 7.723v28.05a7.729 7.729 0 0 1-7.726 7.727zm0 0M437.602 205.238a7.722 7.722 0 0 1-7.723-7.722v-29.899a7.723 7.723 0 0 1 7.723-7.726c4.27 0 7.726 3.46 7.726 7.726v29.899a7.723 7.723 0 0 1-7.726 7.722zm0 0" fill="#6163aa"/><path d="M57.605 60.363a7.726 7.726 0 0 1-7.726-7.726V22.844a7.726 7.726 0 1 1 15.453 0v29.793c0 4.27-3.46 7.726-7.727 7.726zm0 0M79.21 60.363a7.726 7.726 0 0 1-7.726-7.726V37.742c0-4.27 3.461-7.726 7.727-7.726a7.726 7.726 0 0 1 7.727 7.726v14.895a7.724 7.724 0 0 1-7.727 7.726zm0 0" fill="#2de0c7"/><path d="M153.293 232.25a7.726 7.726 0 0 1-7.727-7.727v-38.566a7.724 7.724 0 0 1 7.727-7.727 7.729 7.729 0 0 1 7.727 7.727v38.566a7.729 7.729 0 0 1-7.727 7.727zm0 0" fill="#5100cb"/><path d="M511.867 417.043v72.824c0 12.223-9.91 22.133-22.144 22.133H22.64C10.406 512 .5 502.094.5 489.867v-72.824zm0 0" fill="#b200bf"/><path d="M511.867 417.043v49.254c0 12.223-9.91 22.133-22.144 22.133H22.64C10.406 488.43.5 478.52.5 466.297v-49.254zm0 0" fill="#d82fea"/><path d="M489.727 448.797H22.637C10.41 448.797.5 438.887.5 426.66V309.563c0-12.227 9.91-22.137 22.137-22.137h467.09c12.226 0 22.136 9.91 22.136 22.137V426.66c.004 12.227-9.91 22.137-22.136 22.137zm0 0" fill="#e667f9"/><path d="M283.902 102.457h23.684v147.77h-23.684zm0 0" fill="#5100cb"/><path d="M429.375 99.043v32.297c0 18.078-59.832 32.726-133.633 32.726-8.972 0-17.73-.214-26.207-.636a454.328 454.328 0 0 1-23.066-1.668c-4.91-.473-9.684-1.02-14.282-1.625-7.542-.996-14.652-2.172-21.226-3.508-29.828-5.988-48.852-15.094-48.852-25.29V99.044zm0 0" fill="#2de0c7"/><path d="M293.281 99.043l-61.094 61.094c-7.542-.996-14.652-2.168-21.226-3.508l57.586-57.59h24.734zm0 0M333.926 99.043l-64.39 64.387a454.424 454.424 0 0 1-23.067-1.664l62.718-62.723zm0 0" fill="#9bf2e5"/><path d="M95.64 381.168V59.938c0-5.688-4.617-10.305-10.304-10.305H49.508c-5.688 0-10.305 4.617-10.305 10.304v321.231zm0 0" fill="#6163aa"/><path d="M95.64 381.168v-34.652H85.103v-5.938c0-10.68-8.696-19.375-19.38-19.375H39.204v59.965zm0 0" fill="#4e5093"/><path d="M170.328 381.168V230.906c0-5.687-4.605-10.3-10.305-10.3h-32.14v-74.454c0-3.554-1.844-6.87-4.863-8.746l-41.184-25.601c-6.863-4.266-15.742.672-15.742 8.758v260.605zm0 0" fill="#898ec9"/><path d="M170.328 381.168v-34.652H159.82V269.69c0-10.68-8.695-19.375-19.379-19.375h-10.886c-10.676 0-19.371 8.696-19.371 19.375v76.825H85.102v-5.938c0-10.558-8.5-19.172-19.008-19.363v59.953zm0 0M429.379 99.04c0-18.075-59.832-32.728-133.637-32.728S162.105 80.966 162.105 99.04c0 18.074 59.832 32.727 133.637 32.727S429.38 117.113 429.38 99.039zm0 0" fill="#6163aa"/><path d="M468.371 380.652V202.113c0-5.699-4.605-10.304-10.305-10.304H331.438a10.268 10.268 0 0 0-7.286 3.02l-49.418 49.405a10.28 10.28 0 0 1-7.28 3.02h-17.977c-5.688 0-10.301 4.613-10.301 10.3v123.098zm0 0" fill="#898ec9"/><path d="M468.371 380.652v-41.27h-33.41c-2.328-8.085-9.797-14.019-18.625-14.019h-3.617V234.84c0-10.684-8.696-19.375-19.367-19.375h-14.68a19.226 19.226 0 0 0-13.692 5.676l-14.894 14.894a19.25 19.25 0 0 0-5.676 13.703v95.66h-22.695v-60.386c0-10.672-8.695-19.367-19.367-19.367H274.21c-10.684 0-19.375 8.695-19.375 19.367v36.054h-15.66v59.586zm0 0" fill="#6163aa"/><path d="M102.875 371.973a7.726 7.726 0 0 1-7.727-7.727v-38.043a7.726 7.726 0 1 1 15.453 0v38.043a7.724 7.724 0 0 1-7.726 7.727zm0 0M337.895 365.492a7.726 7.726 0 0 1-7.727-7.726v-81.461c0-4.27 3.46-7.727 7.727-7.727a7.724 7.724 0 0 1 7.726 7.727v81.46c0 4.27-3.46 7.727-7.726 7.727zm0 0M295.426 287.484a7.729 7.729 0 0 1-7.727-7.726V267.41a7.726 7.726 0 1 1 15.453 0v12.348a7.726 7.726 0 0 1-7.726 7.726zm0 0" fill="#2500ad"/><path d="M29.145 397.172v-56.594a7.01 7.01 0 0 1 7.007-7.012h29.57a7.013 7.013 0 0 1 7.012 7.012v11.29a7.007 7.007 0 0 0 7.008 7.007h35.797a7.007 7.007 0 0 0 7.008-7.008v-82.18a7.01 7.01 0 0 1 7.012-7.007h10.886a7.007 7.007 0 0 1 7.008 7.007v82.18a7.01 7.01 0 0 0 7.012 7.008h31.695a7.007 7.007 0 0 0 7.008-7.008v-11.433a7.007 7.007 0 0 1 7.008-7.008h60.015a7.01 7.01 0 0 0 7.008-7.012v-41.398a7.013 7.013 0 0 1 7.012-7.012h28.133a7.01 7.01 0 0 1 7.008 7.012v65.738a7.01 7.01 0 0 0 7.007 7.012h33.403a7.013 7.013 0 0 0 7.011-7.012v-101.02c0-1.859.739-3.64 2.051-4.957l14.895-14.894a7.024 7.024 0 0 1 4.957-2.055h14.676a7.01 7.01 0 0 1 7.007 7.012v95.879a7.007 7.007 0 0 0 7.008 7.008h8.977c3.87 0 7.008 3.136 7.008 7.007s3.136 7.012 7.007 7.012h45.856a7.01 7.01 0 0 1 7.012 7.008v38.883a7.008 7.008 0 0 1-7.016 7.008l-440.063-.465a7.008 7.008 0 0 1-7.003-7.008zm0 0" fill="#5100cb"/><path d="M483.227 378.79v18.85c0 3.876-3.141 7.005-7.016 7.005l-440.066-.461c-3.864-.012-7.004-3.145-7.004-7.02v-18.84c0 3.875 3.14 7.004 7.004 7.016l440.066.465a7.018 7.018 0 0 0 7.016-7.016zm0 0" fill="#2500ad"/><path d="M476.313 258.813h-31.446c-8.555 0-15.488-6.938-15.488-15.493 0-8.554 6.933-15.488 15.488-15.488h31.445c8.555 0 15.489 6.934 15.489 15.488 0 8.555-6.934 15.493-15.488 15.493zm0 0M81.176 205.238h-8.043c-6.856 0-12.406-5.55-12.406-12.402v-6.172c0-6.851 5.55-12.402 12.406-12.402h8.043c6.851 0 12.406 5.55 12.406 12.402v6.172c0 6.851-5.555 12.402-12.406 12.402zm0 0M81.176 259.742h-8.043c-6.856 0-12.406-5.555-12.406-12.406v-6.168c0-6.852 5.55-12.406 12.406-12.406h8.043c6.851 0 12.406 5.554 12.406 12.406v6.168c0 6.851-5.555 12.406-12.406 12.406zm0 0" fill="#2de0c7"/><g fill="#fda736"><path d="M224.973 361.195h-10.29a7.724 7.724 0 0 1-7.726-7.726 7.729 7.729 0 0 1 7.727-7.727h10.289c4.27 0 7.726 3.461 7.726 7.727 0 4.27-3.46 7.726-7.726 7.726zm0 0M257.21 361.195h-10.288a7.724 7.724 0 0 1-7.727-7.726 7.729 7.729 0 0 1 7.727-7.727h10.289c4.27 0 7.726 3.461 7.726 7.727a7.724 7.724 0 0 1-7.726 7.726zm0 0M368.844 284.027h-10.29a7.726 7.726 0 1 1 0-15.453h10.29c4.27 0 7.726 3.461 7.726 7.727a7.724 7.724 0 0 1-7.726 7.726zm0 0M368.844 305.121h-10.29c-4.265 0-7.726-3.46-7.726-7.726s3.461-7.727 7.727-7.727h10.289c4.27 0 7.726 3.46 7.726 7.727s-3.457 7.726-7.726 7.726zm0 0M368.844 326.215h-10.29a7.726 7.726 0 1 1 0-15.453h10.29c4.27 0 7.726 3.46 7.726 7.726s-3.457 7.727-7.726 7.727zm0 0M368.844 347.305h-10.29a7.725 7.725 0 0 1 0-15.45h10.29a7.723 7.723 0 0 1 7.726 7.723 7.724 7.724 0 0 1-7.726 7.727zm0 0"/></g><path d="M383.523 98.684h-175.57c-6.152 0-10.95-5.364-10.242-11.477C203.398 38.113 245.113 0 295.742 0c15.785 0 30.703 3.715 43.938 10.3a97.57 97.57 0 0 1 14.886 9.157 98.766 98.766 0 0 1 21.575 21.996 98.206 98.206 0 0 1 11.793 21.969 97.857 97.857 0 0 1 5.828 23.734c.71 6.133-4.067 11.528-10.239 11.528zm0 0" fill="#2de0c7"/><path d="M354.566 19.457L275.34 98.684h-24.043L339.68 10.3a97.88 97.88 0 0 1 14.886 9.156zm0 0M387.934 63.422l-35.262 35.262h-33.758l57.23-57.23a98.363 98.363 0 0 1 11.79 21.968zm0 0" fill="#9bf2e5"/><path d="M360.559 59.8a7.708 7.708 0 0 1-5.555-3.116 71.192 71.192 0 0 0-21.29-19.215 7.726 7.726 0 0 1-2.737-10.578 7.725 7.725 0 0 1 10.578-2.739c10.16 5.98 18.867 13.844 25.886 23.364a7.726 7.726 0 0 1-1.636 10.804 7.717 7.717 0 0 1-5.246 1.48zm0 0" fill="#9bf2e5"/><path d="M307.586 41.383v57.3h-23.684v-57.3c0-3.274 1.328-6.235 3.47-8.375a11.808 11.808 0 0 1 8.374-3.469c6.531 0 11.84 5.3 11.84 11.844zm0 0" fill="#7e18ea"/><path d="M307.586 42.39v24.047l-23.684 23.684V66.074zm0 0" fill="#b200bf"/></svg>