<svg height="512pt" viewBox="-69 0 512 512" width="512pt" xmlns="http://www.w3.org/2000/svg"><path d="M356.89 502.926a7.726 7.726 0 0 1-7.726-7.727v-49.238l-97.789-73.988a7.67 7.67 0 0 1-1.688-1.758l-31.464-45.39-52.364-24.329a7.676 7.676 0 0 1-1.68-1.062l-35.167-29.196a7.676 7.676 0 0 1-1.219-1.273L10.645 114.496a7.727 7.727 0 0 1 12.312-9.34L139.57 258.918l33.707 27.984 53.356 24.793a7.702 7.702 0 0 1 3.094 2.606l31.957 46.094 99.87 75.558a7.73 7.73 0 0 1 3.063 6.164v53.078a7.73 7.73 0 0 1-7.726 7.73zm0 0" fill="#5100cb"/><path d="M223.371 326.43a7.721 7.721 0 0 1-6.867-11.25l28.14-54.89-53.199-12.356a7.73 7.73 0 0 1-2.914-13.691l47.766-36.098-32.484-49.016a7.77 7.77 0 0 1-.735-1.406L151.984 19.664a7.729 7.729 0 0 1 4.317-10.039 7.725 7.725 0 0 1 10.039 4.313l50.797 127.32 36.05 54.406a7.726 7.726 0 0 1-1.78 10.43l-40.384 30.52 46.762 10.863a7.744 7.744 0 0 1 5.262 4.273c1 2.16.95 4.66-.137 6.777l-32.656 63.7a7.734 7.734 0 0 1-6.883 4.203zm0 0" fill="#5100cb"/><path d="M33.602 109.828c0 9.277-7.524 16.8-16.801 16.8-9.278 0-16.801-7.523-16.801-16.8s7.523-16.8 16.8-16.8c9.278 0 16.802 7.523 16.802 16.8zm0 0" fill="#f0a9ff"/><path d="M175.965 16.8c0 9.278-7.524 16.802-16.805 16.802-9.277 0-16.8-7.524-16.8-16.801C142.36 7.523 149.882 0 159.16 0c9.281 0 16.805 7.523 16.805 16.8zm0 0" fill="#e667f9"/><path d="M227.328 145.305c0 9.277-7.52 16.8-16.8 16.8-9.278 0-16.801-7.523-16.801-16.8 0-9.282 7.523-16.801 16.8-16.801 9.282 0 16.801 7.52 16.801 16.8zm0 0" fill="#d82fea"/><path d="M263.602 199.91c0 9.278-7.524 16.8-16.801 16.8-9.278 0-16.801-7.523-16.801-16.8 0-9.281 7.523-16.8 16.8-16.8 9.278 0 16.802 7.519 16.802 16.8zm0 0" fill="#e667f9"/><path d="M210.043 240.262c0 9.281-7.52 16.8-16.8 16.8-9.278 0-16.802-7.519-16.802-16.8 0-9.278 7.524-16.801 16.801-16.801 9.281 0 16.801 7.523 16.801 16.8zm0 0" fill="#f0a9ff"/><path d="M272.836 255.215c0 9.277-7.52 16.8-16.8 16.8-9.278 0-16.802-7.523-16.802-16.8 0-9.281 7.524-16.8 16.801-16.8 9.281 0 16.8 7.519 16.8 16.8zm0 0M240.586 318.703c0 9.277-7.52 16.8-16.8 16.8-9.278 0-16.802-7.523-16.802-16.8s7.524-16.8 16.801-16.8c9.281 0 16.8 7.523 16.8 16.8zm0 0" fill="#e667f9"/><path d="M272.79 366.164c0 9.277-7.524 16.8-16.802 16.8-9.277 0-16.8-7.523-16.8-16.8 0-9.281 7.523-16.8 16.8-16.8 9.278 0 16.801 7.519 16.801 16.8zm0 0" fill="#f0a9ff"/><path d="M373.691 442.098c0 9.277-7.52 16.8-16.8 16.8-9.278 0-16.801-7.523-16.801-16.8 0-9.282 7.523-16.801 16.8-16.801 9.282 0 16.801 7.52 16.801 16.8zm0 0M373.691 495.2c0 9.277-7.52 16.8-16.8 16.8-9.278 0-16.801-7.523-16.801-16.8 0-9.278 7.523-16.802 16.8-16.802 9.282 0 16.801 7.524 16.801 16.801zm0 0" fill="#e667f9"/><path d="M185.566 293.41c0 9.281-7.52 16.805-16.8 16.805-9.278 0-16.801-7.524-16.801-16.805 0-9.277 7.523-16.8 16.8-16.8 9.282 0 16.801 7.523 16.801 16.8zm0 0" fill="#d82fea"/><path d="M150.68 263.582c0 9.277-7.524 16.8-16.801 16.8s-16.8-7.523-16.8-16.8c0-9.281 7.523-16.8 16.8-16.8s16.8 7.519 16.8 16.8zm0 0" fill="#e667f9"/><g fill="#d82fea"><path d="M286.785 133.469h-.035a7.73 7.73 0 0 1-7.691-7.766l.011-2.805a7.728 7.728 0 0 1 7.727-7.687h.039a7.723 7.723 0 0 1 7.687 7.762l-.011 2.804a7.729 7.729 0 0 1-7.727 7.692zm0 0M286.695 162.008h-.035a7.729 7.729 0 0 1-7.691-7.762l.015-2.805a7.701 7.701 0 0 1 7.762-7.691 7.73 7.73 0 0 1 7.692 7.766l-.016 2.8a7.729 7.729 0 0 1-7.727 7.692zm0 0M302.422 146.387h-.04l-2.804-.016a7.72 7.72 0 0 1-7.687-7.762 7.723 7.723 0 0 1 7.722-7.691h.04l2.804.016a7.725 7.725 0 0 1 7.688 7.761 7.723 7.723 0 0 1-7.723 7.692zm0 0M273.879 146.297h-.04l-2.804-.012a7.729 7.729 0 0 1-7.687-7.765 7.725 7.725 0 0 1 7.726-7.688h.035l2.805.012a7.73 7.73 0 0 1 7.691 7.765 7.728 7.728 0 0 1-7.726 7.688zm0 0M52.402 269.613h-.039a7.731 7.731 0 0 1-7.687-7.765l.015-2.805a7.725 7.725 0 0 1 7.723-7.688h.04a7.724 7.724 0 0 1 7.687 7.766l-.012 2.805a7.725 7.725 0 0 1-7.727 7.687zm0 0M52.316 298.152h-.039a7.725 7.725 0 0 1-7.687-7.761l.012-2.805a7.726 7.726 0 0 1 7.726-7.691h.035a7.726 7.726 0 0 1 7.692 7.761l-.016 2.805a7.723 7.723 0 0 1-7.723 7.691zm0 0M68.04 282.531H68l-2.805-.015a7.725 7.725 0 0 1-7.687-7.762 7.726 7.726 0 0 1 7.726-7.692h.036l2.804.016a7.727 7.727 0 0 1-.035 15.453zm0 0M39.496 282.441h-.035l-2.805-.011a7.723 7.723 0 0 1-7.687-7.762 7.723 7.723 0 0 1 7.722-7.691h.04l2.8.011a7.725 7.725 0 1 1-.035 15.453zm0 0"/></g><path d="M286.281 453.754h-.039a7.72 7.72 0 0 1-7.687-7.762l.011-2.805a7.728 7.728 0 0 1 7.723-7.69h.04a7.732 7.732 0 0 1 7.69 7.765l-.015 2.804a7.725 7.725 0 0 1-7.723 7.688zm0 0M286.191 482.297h-.039c-4.265-.02-7.707-3.496-7.687-7.766l.012-2.8a7.726 7.726 0 0 1 7.726-7.692h.035a7.726 7.726 0 0 1 7.692 7.762l-.016 2.804a7.725 7.725 0 0 1-7.723 7.692zm0 0M301.914 466.676h-.035l-2.805-.016a7.726 7.726 0 0 1-7.691-7.762c.02-4.27 3.512-7.757 7.762-7.691l2.804.016a7.724 7.724 0 0 1 7.692 7.761 7.729 7.729 0 0 1-7.727 7.692zm0 0M273.371 466.586h-.035l-2.805-.016a7.72 7.72 0 0 1-7.687-7.761 7.725 7.725 0 0 1 7.722-7.692h.04l2.804.016c4.266.02 7.707 3.496 7.688 7.765a7.725 7.725 0 0 1-7.727 7.688zm0 0" fill="#e667f9"/><path d="M329.559 172.535h-.04a7.731 7.731 0 0 1-7.687-7.765l.016-2.805a7.725 7.725 0 0 1 7.722-7.688h.04c4.269.024 7.71 3.5 7.687 7.766l-.012 2.805a7.725 7.725 0 0 1-7.726 7.687zm0 0M329.473 201.074h-.04a7.725 7.725 0 0 1-7.687-7.762l.012-2.804a7.729 7.729 0 0 1 7.726-7.692h.036a7.732 7.732 0 0 1 7.69 7.766l-.015 2.805a7.722 7.722 0 0 1-7.722 7.687zm0 0M345.195 185.453h-.039l-2.804-.012a7.729 7.729 0 0 1-7.688-7.765 7.725 7.725 0 0 1 7.723-7.688h.039l2.804.012a7.729 7.729 0 0 1 7.688 7.766 7.722 7.722 0 0 1-7.723 7.687zm0 0M316.652 185.367h-.035l-2.804-.015a7.726 7.726 0 0 1 .035-15.454h.039l2.804.016a7.725 7.725 0 0 1 7.688 7.762 7.729 7.729 0 0 1-7.727 7.691zm0 0" fill="#d82fea"/><path d="M95.223 93.074h-.04a7.723 7.723 0 0 1-7.687-7.761l.012-2.805a7.725 7.725 0 0 1 7.726-7.688h.036a7.726 7.726 0 0 1 7.69 7.762l-.015 2.805a7.722 7.722 0 0 1-7.722 7.687zm0 0M95.133 121.617h-.035a7.726 7.726 0 0 1-7.692-7.762l.016-2.804a7.725 7.725 0 0 1 7.723-7.692h.039a7.725 7.725 0 0 1 7.687 7.762l-.012 2.805a7.729 7.729 0 0 1-7.726 7.691zm0 0M110.855 105.996h-.035l-2.804-.016a7.726 7.726 0 0 1 .035-15.453h.039l2.8.016a7.724 7.724 0 0 1 7.692 7.762 7.729 7.729 0 0 1-7.727 7.691zm0 0M82.316 105.906h-.039l-2.8-.011a7.726 7.726 0 0 1 .035-15.454h.035l2.805.012a7.724 7.724 0 0 1 7.687 7.766 7.722 7.722 0 0 1-7.723 7.687zm0 0" fill="#f0a9ff"/></svg>