<svg height="512pt" viewBox="0 0 512 512" width="512pt" xmlns="http://www.w3.org/2000/svg"><path d="M94.375 417.625c-20.715-20.715-26.336-52.742-15.422-87.879 8.434-27.144 26.328-55.344 50.387-79.406 75.472-75.473 360.41-269.516 381.12-248.8 20.716 20.714-175.034 307.355-248.8 381.12-24.062 24.059-52.262 41.953-79.406 50.387-35.133 10.914-67.164 5.293-87.879-15.422zm0 0" fill="#ff5c3c"/><path d="M261.66 382.652c-24.062 24.063-52.258 41.965-79.406 50.391-35.133 10.918-67.164 5.297-87.875-15.418a67.87 67.87 0 0 1-7.29-8.605c20.462 14.585 48.684 17.597 79.255 8.109 27.136-8.434 55.34-26.324 79.402-50.387C311.102 301.395 472.211 68.93 493.687 2.363c8.575-2.75 14.399-3.195 16.774-.82 20.715 20.715-175.031 307.352-248.8 381.11zm0 0" fill="#ff2e04"/><path d="M269.262 242.734c-21.426-21.43-71.824-5.777-112.563 34.965-40.742 40.738-56.394 91.137-34.969 112.567 21.43 21.425 71.829 5.773 112.567-34.97 40.738-40.737 56.394-91.136 34.965-112.562zm0 0" fill="#fda736"/><path d="M234.3 355.297c-40.741 40.746-91.136 56.402-112.573 34.969-3.774-3.778-6.395-8.446-7.926-13.805 25.07 7.2 65.195-9.336 98.761-42.902 33.56-33.559 50.094-73.684 42.895-98.754 5.363 1.53 10.027 4.152 13.805 7.925 21.433 21.438 5.777 71.832-34.961 112.567zm0 0" fill="#fd8f07"/><path d="M245.293 483.215c-62.188 0-116.512-20.422-156.3-60.207-61.528-61.528-76.743-157.824-41.743-264.2 1.313-3.992 5.617-6.16 9.61-4.851a7.615 7.615 0 0 1 4.85 9.61C28.575 264.284 42.442 354.925 99.759 412.241c57.316 57.317 147.957 71.184 248.676 38.047a7.612 7.612 0 0 1 4.758 14.46c-37.587 12.368-73.919 18.466-107.899 18.466zm0 0" fill="#fd8f07"/><path d="M235.86 512a7.666 7.666 0 0 1-1.59-.168c-45.543-9.668-98.497-42.043-145.278-88.824S9.836 323.273.168 277.73a7.607 7.607 0 0 1 5.863-9.023 7.606 7.606 0 0 1 9.028 5.863c9.074 42.739 39.945 92.918 84.699 137.676 44.75 44.754 94.933 75.621 137.672 84.695a7.615 7.615 0 0 1 5.867 9.028 7.617 7.617 0 0 1-7.438 6.031zm0 0" fill="#fda736"/><path d="M171.406 453.309c-33.957 0-62.215-10.102-82.414-30.301-39.98-39.98-40.418-111.551-1.203-196.371 29.57-63.957 80.594-133.922 143.684-197.008 2.972-2.973 7.789-2.973 10.761 0s2.973 7.793 0 10.766c-61.851 61.847-111.793 130.261-140.629 192.632-36.382 78.688-37.054 144.012-1.851 179.215 35.207 35.207 100.527 34.531 179.219-1.847 62.37-28.836 130.785-78.782 192.632-140.63a7.613 7.613 0 0 1 10.766 0 7.608 7.608 0 0 1 0 10.762c-63.086 63.086-133.05 114.114-197.008 143.684-41.968 19.402-80.695 29.098-113.957 29.098zm0 0" fill="#fda736"/><path d="M317.3 235.34a7.595 7.595 0 0 1-5.417-2.262l-.078-.082a7.608 7.608 0 0 1 .066-10.762 7.605 7.605 0 0 1 10.762.067l.082.078a7.616 7.616 0 0 1-.067 10.766 7.578 7.578 0 0 1-5.347 2.195zm0 0" fill="#fda736"/><path d="M316.207 258.125a7.59 7.59 0 0 1-5.398-2.246l-.082-.082c-2.961-2.98-2.95-7.8.035-10.762a7.608 7.608 0 0 1 10.761.031l.082.082a7.608 7.608 0 0 1-.03 10.762 7.594 7.594 0 0 1-5.368 2.215zm0 0" fill="#fd8f07"/><path d="M426.707 88.441a7.595 7.595 0 0 1-5.383-2.226l-.078-.082a7.613 7.613 0 0 1 0-10.766c2.969-2.969 7.79-2.969 10.762 0l.082.082a7.613 7.613 0 0 1 0 10.766 7.589 7.589 0 0 1-5.383 2.226zm0 0" fill="#ff2e04"/><path d="M501.98 257.848a7.566 7.566 0 0 1-5.398-2.246l-.082-.079a7.613 7.613 0 0 1 .031-10.765 7.616 7.616 0 0 1 10.766.035l.082.078a7.613 7.613 0 0 1-5.399 12.977zm0 0M261.844 17.715a7.58 7.58 0 0 1-5.414-2.262l-.082-.082a7.616 7.616 0 0 1 .066-10.766 7.616 7.616 0 0 1 10.766.067l.078.082a7.613 7.613 0 0 1-5.414 12.96zm0 0" fill="#fd7504"/><path d="M68.566 136.879a7.566 7.566 0 0 1-5.398-2.246l-.082-.078a7.613 7.613 0 0 1 10.797-10.735l.082.082a7.613 7.613 0 0 1-5.399 12.977zm0 0M382.813 451.129a7.59 7.59 0 0 1-5.383-2.23l-.078-.083a7.608 7.608 0 0 1 0-10.761 7.608 7.608 0 0 1 10.761 0l.082.082a7.608 7.608 0 0 1 0 10.761 7.577 7.577 0 0 1-5.382 2.23zm0 0" fill="#fda736"/><path d="M366.633 148.125a7.602 7.602 0 0 1-5.383-2.227 7.613 7.613 0 0 1 0-10.765l42.125-42.125a7.613 7.613 0 0 1 10.766 10.765l-42.125 42.125a7.589 7.589 0 0 1-5.383 2.227zm0 0M332.871 219.21a7.577 7.577 0 0 1-5.383-2.23 7.608 7.608 0 0 1 0-10.761l26.371-26.371a7.608 7.608 0 0 1 10.762 0 7.608 7.608 0 0 1 0 10.761L338.25 216.98a7.574 7.574 0 0 1-5.379 2.23zm0 0" fill="#ff2e04"/><g fill="#fda736"><path d="M426.664 395.29h-.039a7.612 7.612 0 0 1-7.574-7.65l.015-2.656a7.609 7.609 0 0 1 7.61-7.574h.035a7.607 7.607 0 0 1 7.574 7.649l-.012 2.656a7.611 7.611 0 0 1-7.609 7.574zm0 0M426.578 422.32h-.035a7.615 7.615 0 0 1-7.578-7.644l.015-2.656a7.612 7.612 0 0 1 7.61-7.579h.035a7.62 7.62 0 0 1 7.578 7.649l-.012 2.656a7.612 7.612 0 0 1-7.613 7.574zm0 0M441.473 407.527h-.04l-2.656-.015c-4.203-.02-7.593-3.446-7.574-7.649s3.477-7.617 7.649-7.574l2.656.016a7.61 7.61 0 0 1 7.574 7.648 7.611 7.611 0 0 1-7.61 7.574zm0 0M414.441 407.441h-.039l-2.656-.011a7.61 7.61 0 0 1-7.574-7.649 7.611 7.611 0 0 1 7.61-7.574h.034l2.657.012a7.611 7.611 0 1 1-.031 15.223zm0 0M482.344 421.633h-.04a7.612 7.612 0 0 1-7.574-7.649l.012-2.656c.02-4.203 3.469-7.629 7.645-7.574a7.61 7.61 0 0 1 7.578 7.644l-.012 2.657a7.612 7.612 0 0 1-7.61 7.578zm0 0M482.258 448.664h-.04a7.606 7.606 0 0 1-7.57-7.648l.012-2.657a7.611 7.611 0 0 1 7.61-7.574h.039a7.612 7.612 0 0 1 7.574 7.649l-.012 2.656a7.615 7.615 0 0 1-7.613 7.574zm0 0M497.152 433.867h-.039l-2.656-.012a7.612 7.612 0 0 1 .035-15.222h.04l2.656.012a7.615 7.615 0 0 1 7.574 7.652c-.02 4.187-3.426 7.57-7.61 7.57zm0 0M470.117 433.785h-.035l-2.656-.012a7.607 7.607 0 0 1-7.574-7.648 7.611 7.611 0 0 1 7.609-7.574h.039l2.656.011a7.612 7.612 0 0 1-.039 15.223zm0 0"/></g><path d="M302.723 50.945h-.036a7.61 7.61 0 0 1-7.578-7.644l.012-2.656a7.615 7.615 0 0 1 7.61-7.579h.039a7.612 7.612 0 0 1 7.574 7.649l-.012 2.656a7.609 7.609 0 0 1-7.61 7.574zm0 0M302.637 77.977h-.035a7.61 7.61 0 0 1-7.575-7.649l.012-2.656a7.611 7.611 0 0 1 7.61-7.574h.038c4.204.02 7.594 3.445 7.575 7.652l-.012 2.652a7.612 7.612 0 0 1-7.613 7.575zm0 0M317.531 63.184h-.039l-2.656-.012a7.615 7.615 0 0 1-7.574-7.652 7.617 7.617 0 0 1 7.613-7.575h.035l2.656.016a7.61 7.61 0 0 1 7.575 7.648 7.609 7.609 0 0 1-7.61 7.575zm0 0M290.5 63.098h-.04l-2.655-.012a7.612 7.612 0 0 1 .035-15.223h.035l2.656.012a7.611 7.611 0 1 1-.031 15.223zm0 0" fill="#fd8f07"/><path d="M81.148 65.79h-.039a7.609 7.609 0 0 1-7.574-7.645l.012-2.657a7.612 7.612 0 0 1 7.61-7.578h.034a7.613 7.613 0 0 1 7.579 7.649l-.012 2.656a7.611 7.611 0 0 1-7.61 7.574zm0 0M81.063 92.824h-.04a7.612 7.612 0 0 1-7.574-7.648l.016-2.656a7.609 7.609 0 0 1 7.61-7.575h.038a7.612 7.612 0 0 1 7.575 7.649l-.016 2.656a7.611 7.611 0 0 1-7.61 7.574zm0 0M95.957 78.027h-.039l-2.656-.011a7.615 7.615 0 0 1-7.575-7.653c.02-4.187 3.426-7.57 7.61-7.57h.039l2.656.012a7.612 7.612 0 0 1-.035 15.222zm0 0M68.922 77.941h-.04l-2.655-.011a7.612 7.612 0 0 1 .035-15.223h.039l2.656.012a7.61 7.61 0 0 1 7.574 7.648 7.609 7.609 0 0 1-7.61 7.574zm0 0" fill="#fd7504"/></svg>