<svg height="512pt" viewBox="0 -12 512 512" width="512pt" xmlns="http://www.w3.org/2000/svg"><path d="M427.945 65.855c0 34.25-27.761 62.012-62.011 62.012-34.247 0-62.012-27.762-62.012-62.012 0-34.246 27.765-62.011 62.012-62.011 34.25 0 62.011 27.765 62.011 62.011zm0 0" fill="#2de0c7"/><path d="M427.941 65.855c0 34.25-27.761 62.008-62.011 62.008-4.871 0-9.598-.558-14.14-1.62 27.429-6.407 47.858-31.009 47.858-60.388 0-29.382-20.43-53.98-47.859-60.39a61.983 61.983 0 0 1 14.14-1.621c34.25 0 62.012 27.761 62.012 62.011zm0 0" fill="#00c2cc"/><path d="M463.129 252.352c0 111.261-90.188 201.46-201.45 201.46-61.89 0-117.257-27.91-154.21-71.828-22.188-26.37-37.739-58.52-44.07-93.851-.91-5.09-1.637-10.25-2.149-15.461-.68-6.68-1.02-13.457-1.02-20.32 0-11.2.91-22.18 2.668-32.868.82-4.98 1.813-9.89 3-14.742 21.383-88.27 100.922-153.84 195.782-153.84 28.191 0 55.03 5.79 79.39 16.243a201.102 201.102 0 0 1 21.239 10.648 202.396 202.396 0 0 1 41.511 31.809c3.93 3.91 7.7 7.98 11.301 12.21 22.399 26.301 38.16 58.442 44.668 93.813a202.81 202.81 0 0 1 3.34 36.727zm0 0" fill="#e667f9"/><path d="M415.121 121.813a7.522 7.522 0 0 1-4.59 2c-.11.011-14.36 1.21-37.582 10.84-21.488 8.91-55.258 27.05-94.148 62.902a7.476 7.476 0 0 1-5.082 1.988c-2.02 0-4.04-.809-5.52-2.418-2.8-3.043-2.61-7.793.43-10.594 65.77-60.629 118.3-74.058 135.191-76.93 3.93 3.91 7.7 7.981 11.301 12.212zm0 0M239 234.977a7.501 7.501 0 0 1-5.602-12.488 555.38 555.38 0 0 1 14.739-15.903 7.498 7.498 0 0 1 10.605-.188 7.498 7.498 0 0 1 .188 10.606 525.151 525.151 0 0 0-14.328 15.465 7.495 7.495 0 0 1-5.602 2.508zm0 0" fill="#d82fea"/><path d="M463.129 252.355c0 111.258-90.188 201.458-201.45 201.458-5.917 0-11.788-.258-17.577-.758 103.007-8.922 183.84-95.371 183.84-200.7 0-12.542-1.153-24.82-3.34-36.73-16.223-88.082-89.75-156.102-180.5-163.96 5.789-.5 11.66-.763 17.578-.763 98.718 0 180.851 71.012 198.11 164.723a202.854 202.854 0 0 1 3.339 36.73zm0 0M161.262 281.023c-24.223 7.008-47.73 8.98-66.492 8.98-13.34 0-24.282-1-31.372-1.87-.91-5.09-1.636-10.25-2.148-15.461 5.84.84 17.98 2.25 33.59 2.25 17.672 0 39.781-1.809 62.25-8.309 3.98-1.14 8.14 1.149 9.289 5.13a7.49 7.49 0 0 1-5.117 9.28zm0 0" fill="#d82fea"/><path d="M463.129 252.355c0 18.68-2.54 36.758-7.297 53.918-23.57 85.082-101.57 147.54-194.152 147.54-5.918 0-11.79-.25-17.578-.758-14.383-1.243-28.32-4-41.68-8.11-37.492-11.511-70.313-33.68-94.953-62.96 45.46-60.442 113.21-111.551 210.972-113.282 44.989-.8 80.84-12.8 109.07-29.5 12.118-7.16 22.84-15.187 32.278-23.578a202.854 202.854 0 0 1 3.34 36.73zm0 0" fill="#2de0c7"/><path d="M463.129 252.355c0 18.68-2.54 36.758-7.297 53.918-23.57 85.082-101.57 147.54-194.152 147.54-5.918 0-11.79-.25-17.578-.758 103.007-8.922 183.84-95.371 183.84-200.7 0-4.421-.141-8.8-.43-13.152 12.117-7.16 22.84-15.187 32.277-23.578a202.854 202.854 0 0 1 3.34 36.73zm0 0" fill="#00c2cc"/><path d="M455.832 306.273a200.586 200.586 0 0 1-7.32 21.551 195.734 195.734 0 0 1-6.621 14.63c-33.051 66.03-101.34 111.358-180.211 111.358-5.918 0-11.79-.25-17.578-.757-14.383-1.243-28.32-4-41.68-8.114 20.758-8.886 43.238-24.546 59.258-52.136 29.941-51.582 87.8-81.832 158.91-86.352 11.422-.738 23.191-.8 35.242-.18zm0 0" fill="#7e18ea"/><path d="M455.832 306.273c-23.57 85.082-101.57 147.54-194.152 147.54-5.918 0-11.79-.25-17.578-.758 84.68-7.332 154.367-67.063 176.488-146.602 11.422-.738 23.191-.8 35.242-.18zm0 0" fill="#5100cb"/><path d="M476.719 75.715c-6.43 15.469-17.938 35.047-34.2 58.187-33.03 47-82.328 104-138.808 160.48-56.48 56.493-113.48 105.782-160.492 138.821-23.137 16.262-42.707 27.762-58.18 34.192-9.668 4.02-17.738 6.027-24.309 6.027-6.218 0-11.09-1.797-14.699-5.41-14.011-14.008-.543-48.707 41.168-106.098a7.36 7.36 0 0 1 3.68-2.691c2.57 4.101 5.281 8.09 8.121 11.98-44.34 61.102-45.621 82.942-42.371 86.2 3 2.992 22.832 2.269 77.973-36.47 46.32-32.558 102.609-81.261 158.5-137.152 55.886-55.886 104.597-112.187 137.148-158.508 38.75-55.128 39.469-74.968 36.48-77.96-3.28-3.282-25.16-1.938-86.21 42.359a193.131 193.131 0 0 0-12.79-8.617 7.65 7.65 0 0 1 1.88-1.98c58.34-42.653 93.581-56.512 107.722-42.372 7.418 7.422 7.219 20.18-.613 39.012zm0 0" fill="#c5ee09"/><path d="M477.332 468.012c-3.613 3.613-8.48 5.41-14.703 5.41-6.57 0-14.64-2.008-24.297-6.027-15.48-6.43-35.05-17.93-58.191-34.192-47.012-33.039-104-82.328-160.493-138.82-56.476-56.48-105.777-113.48-138.808-160.48-16.258-23.141-27.77-42.72-34.2-58.188-7.831-18.832-8.03-31.59-.609-39.012 13.957-13.969 48.54-.601 105.68 40.879a7.52 7.52 0 0 1 2.84 4.14c-4 2.512-7.91 5.173-11.711 7.962-61.121-44.36-82.95-45.63-86.211-42.371-2.988 2.992-2.258 22.832 36.48 77.96 32.551 46.32 81.262 102.622 137.153 158.508 55.886 55.89 112.18 104.594 158.5 137.153 55.136 38.738 74.968 39.46 77.968 36.468 3.282-3.277 1.942-25.16-42.378-86.21 3.039-4.137 5.918-8.41 8.628-12.778a7.143 7.143 0 0 1 1.989 1.867c42.652 58.352 56.511 93.582 42.363 107.73zm0 0" fill="#edff85"/><path d="M101.184 279.422c0 19.105-15.489 34.594-34.594 34.594-19.11 0-34.598-15.489-34.598-34.594s15.488-34.594 34.598-34.594c19.105 0 34.594 15.488 34.594 34.594zm0 0" fill="#9bf2e5"/><g fill="#2de0c7"><path d="M101.18 279.426c0 19.097-15.489 34.59-34.59 34.59-3.59 0-7.059-.551-10.32-1.563 14.062-4.398 24.261-17.527 24.261-33.027 0-15.512-10.199-28.64-24.261-33.043a34.923 34.923 0 0 1 10.32-1.559c19.101 0 34.59 15.489 34.59 34.602zm0 0M169.18 17.617h-.035a7.5 7.5 0 0 1-7.465-7.535l.011-2.617c.02-4.14 3.371-7.465 7.536-7.465a7.502 7.502 0 0 1 7.464 7.535l-.011 2.617c-.024 4.13-3.375 7.465-7.5 7.465zm0 0M169.098 44.254h-.04a7.502 7.502 0 0 1-7.464-7.535l.015-2.617c.02-4.145 3.36-7.5 7.536-7.465a7.503 7.503 0 0 1 7.464 7.539l-.015 2.617a7.495 7.495 0 0 1-7.496 7.46zm0 0M183.77 29.676h-.036l-2.617-.016a7.499 7.499 0 0 1-7.465-7.531 7.503 7.503 0 0 1 7.5-7.469h.036l2.617.016a7.5 7.5 0 0 1-.035 15zm0 0M157.133 29.594h-.035l-2.618-.016a7.5 7.5 0 0 1 .036-15h.035l2.62.016a7.499 7.499 0 0 1 7.462 7.535 7.502 7.502 0 0 1-7.5 7.465zm0 0M22.164 338.762h-.039a7.508 7.508 0 0 1-7.465-7.54l.016-2.617a7.499 7.499 0 0 1 7.5-7.46h.035a7.5 7.5 0 0 1 7.465 7.535l-.016 2.617a7.501 7.501 0 0 1-7.496 7.465zm0 0M22.082 365.398h-.035a7.5 7.5 0 0 1-7.465-7.535l.012-2.617a7.496 7.496 0 0 1 7.496-7.465h.039c4.14.02 7.48 3.39 7.465 7.535l-.012 2.618c-.023 4.128-3.375 7.464-7.5 7.464zm0 0M36.754 350.816h-.035l-2.617-.011c-4.141-.02-7.485-3.395-7.465-7.535s3.386-7.497 7.535-7.465l2.617.011a7.502 7.502 0 0 1 7.465 7.536 7.502 7.502 0 0 1-7.5 7.464zm0 0M10.117 350.734h-.035l-2.617-.011A7.5 7.5 0 0 1 0 343.183a7.499 7.499 0 0 1 7.5-7.46h.035l2.617.011a7.5 7.5 0 0 1 7.465 7.54 7.499 7.499 0 0 1-7.5 7.46zm0 0M489.91 353.387h-.035a7.505 7.505 0 0 1-7.469-7.535l.016-2.618c.02-4.14 3.355-7.46 7.535-7.464 4.14.02 7.48 3.394 7.465 7.535l-.016 2.617a7.496 7.496 0 0 1-7.496 7.465zm0 0M489.828 380.023h-.039a7.502 7.502 0 0 1-7.465-7.535l.016-2.617c.02-4.144 3.422-7.52 7.535-7.465a7.5 7.5 0 0 1 7.465 7.54l-.016 2.616a7.498 7.498 0 0 1-7.496 7.461zm0 0M504.5 365.445h-.035l-2.617-.011a7.5 7.5 0 1 1 .035-15h.035l2.617.011a7.5 7.5 0 0 1-.035 15zm0 0M477.863 365.363h-.035l-2.617-.015a7.5 7.5 0 0 1 .035-15h.035l2.617.015a7.5 7.5 0 0 1-.035 15zm0 0"/></g><path d="M142.797 473.426H142.656a7.5 7.5 0 0 1-7.465-7.535 7.5 7.5 0 0 1 7.5-7.465h.141a7.5 7.5 0 0 1-.035 15zm0 0M178.508 487.262h-.106c-4.14 0-7.5-3.36-7.5-7.5s3.36-7.5 7.5-7.5h.106c4.14 0 7.5 3.36 7.5 7.5s-3.36 7.5-7.5 7.5zm0 0M278.2 30.746H278.057a7.502 7.502 0 0 1-7.464-7.535c.02-4.145 3.398-7.512 7.535-7.465h.105a7.497 7.497 0 0 1 7.465 7.535 7.5 7.5 0 0 1-7.5 7.465zm0 0M459.324 15h-.14a7.502 7.502 0 0 1-7.465-7.535 7.502 7.502 0 0 1 7.5-7.465h.14a7.5 7.5 0 0 1 7.465 7.535 7.5 7.5 0 0 1-7.5 7.465zm0 0M477.918 26.078H477.777a7.5 7.5 0 0 1-7.464-7.535 7.496 7.496 0 0 1 7.496-7.465h.144a7.5 7.5 0 0 1-.035 15zm0 0M38.715 227.77H38.574a7.5 7.5 0 0 1-7.465-7.536 7.497 7.497 0 0 1 7.5-7.464h.141c4.14.015 7.484 3.39 7.465 7.535a7.502 7.502 0 0 1-7.5 7.465zm0 0" fill="#00c2cc"/><path d="M245.672 143.75c0-15.145-19.367-27.418-43.25-27.418-23.887 0-43.25 12.273-43.25 27.418 0 15.14 19.363 27.414 43.25 27.414 23.883 0 43.25-12.273 43.25-27.414zm0 0" fill="#7e18ea"/><path d="M159.172 143.754c0-15.152 19.36-27.422 43.25-27.422 23.57 0 42.75 11.95 43.242 26.832-7.89-6.652-20.441-10.95-34.582-10.95-23.879 0-43.25 12.27-43.25 27.419 0 .191 0 .39.012.582-5.442-4.582-8.672-10.281-8.672-16.461zm0 0" fill="#5100cb"/><path d="M362.309 77.793a7.402 7.402 0 0 1-4.09 1.82c-49.328 5.649-84.77 32.399-85.117 32.668a7.487 7.487 0 0 1-4.563 1.543c-2.25 0-4.48-1-5.957-2.93a7.51 7.51 0 0 1 1.379-10.511c1.41-1.078 31.871-24.18 77.11-33.238a201.102 201.102 0 0 1 21.238 10.648zm0 0M115.39 219.965c-.269 3.957-3.57 6.988-7.48 6.988-.172 0-.34-.012-.512-.02-21.68-1.468-38.988-5.91-44.5-7.449.82-4.98 1.813-9.89 3-14.742 1.301.383 5.66 1.602 12.122 2.973 7.699 1.617 18.378 3.45 30.39 4.258 4.13.28 7.262 3.851 6.98 7.992zm0 0" fill="#d82fea"/><path d="M448.512 327.824a195.734 195.734 0 0 1-6.621 14.63c-11.512.769-44.641 3.5-59.84 10.28-.992.45-2.031.66-3.051.66a7.496 7.496 0 0 1-6.852-4.453 7.503 7.503 0 0 1 3.801-9.91c21.04-9.379 67.301-11.707 69.25-11.808 1.172-.051 2.301.16 3.313.601zm0 0" fill="#5100cb"/></svg>