<svg height="512pt" viewBox="-46 0 512 512" width="512pt" xmlns="http://www.w3.org/2000/svg"><path d="M328.938 31.512l-3.06-22.469A10.448 10.448 0 0 0 315.524 0H105.566a10.451 10.451 0 0 0-10.355 9.04l-3.055 22.468h236.781zm0 0" fill="#d82fea"/><path d="M338.02 512H83.07C32.766 512-6 467.621.77 417.77l1.945-14.258 31.926-235.13 3.687-27.206h344.434l3.687 27.207 31.926 235.129 1.945 14.258c6.77 49.851-31.996 94.23-82.3 94.23zm0 0" fill="#898ec9"/><path d="M386.45 168.383a24.31 24.31 0 0 1-3.485.246H38.125a24.31 24.31 0 0 1-3.484-.246l3.687-27.207h344.434zm0 0" fill="#6163aa"/><path d="M338.023 511.996h-21.812c50.305 0 89.066-44.375 82.297-94.223l-1.938-14.261-35.617-262.34h21.809l35.617 262.34 1.937 14.261c6.774 49.848-31.992 94.223-82.293 94.223zm0 0" fill="#6163aa"/><path d="M338.023 511.996H83.066c-50.3 0-89.062-44.375-82.293-94.223l1.938-14.261h415.668l1.937 14.261c6.774 49.848-31.992 94.223-82.293 94.223zm0 0" fill="#d82fea"/><path d="M338.023 511.996h-21.812c50.305 0 89.066-44.375 82.297-94.223l-1.938-14.261h21.809l1.937 14.261c6.774 49.848-31.992 94.223-82.293 94.223zm0 0" fill="#b200bf"/><path d="M351.012 156.27H70.078c-7.621 0-13.504-6.73-12.473-14.282l7.438-54.66 6.594-48.512c.855-6.23 6.18-10.886 12.476-10.886H336.98c6.293 0 11.622 4.656 12.477 10.886l6.594 48.512 7.437 54.66c1.028 7.551-4.855 14.282-12.476 14.282zm0 0" fill="#898ec9"/><path d="M351.012 156.27H70.078c-7.621 0-13.504-6.73-12.473-14.282l7.438-54.66h291.008l7.437 54.66c1.028 7.551-4.855 14.282-12.476 14.282zm0 0" fill="#6163aa"/><path d="M351.012 156.262h-21.813c7.63 0 13.504-6.723 12.473-14.274L327.64 38.816c-.86-6.23-6.18-10.886-12.473-10.886h21.809c6.293 0 11.628 4.656 12.472 10.886l14.031 103.172c1.036 7.555-4.843 14.274-12.468 14.274zm0 0" fill="#6163aa"/><path d="M382.965 156.27H38.125c-6.95 0-12.582-5.633-12.582-12.583v-31.414c0-6.953 5.633-12.585 12.582-12.585h344.84c6.95 0 12.582 5.636 12.582 12.585v31.415c.004 6.949-5.633 12.582-12.582 12.582zm0 0" fill="#2de0c7"/><path d="M130.828 512V279.02c0-44.028 35.692-79.715 79.719-79.715 44.023 0 79.715 35.687 79.715 79.715V512zm0 0" fill="#383c7c"/><path d="M258.242 280.316c0 26.352-21.36 47.7-47.695 47.7a47.546 47.546 0 0 1-20.98-4.852 47.666 47.666 0 0 1-19.02-16.875 47.446 47.446 0 0 1-7.7-25.973c0-26.336 21.36-47.683 47.7-47.683 9.574 0 18.5 2.82 25.969 7.683a47.897 47.897 0 0 1 16.879 19.02 47.556 47.556 0 0 1 4.847 20.98zm0 0" fill="#2de0c7"/><path d="M253.395 259.336l-63.829 63.828a47.666 47.666 0 0 1-19.02-16.875l65.97-65.973a47.897 47.897 0 0 1 16.879 19.02zm0 0" fill="#9bf2e5"/><path d="M165.922 391.355a7.724 7.724 0 0 1-7.727-7.726v-10.695a7.724 7.724 0 0 1 7.727-7.727 7.726 7.726 0 0 1 7.726 7.727v10.695c0 4.27-3.46 7.726-7.726 7.726zm0 0" fill="#898ec9"/><path d="M358.836 343.125c0 9.133-7.406 16.535-16.54 16.535s-16.534-7.402-16.534-16.535 7.402-16.54 16.535-16.54 16.539 7.407 16.539 16.54zm0 0M95.328 343.125c0 9.133-7.402 16.535-16.535 16.535s-16.535-7.402-16.535-16.535 7.402-16.54 16.535-16.54 16.535 7.407 16.535 16.54zm0 0" fill="#d82fea"/><g fill="#b200bf"><path d="M182.281 50.34a7.726 7.726 0 0 1-7.726-7.727V30.445c0-4.265 3.46-7.722 7.726-7.722s7.727 3.457 7.727 7.722v12.168a7.726 7.726 0 0 1-7.727 7.727zm0 0M210.547 50.34a7.726 7.726 0 0 1-7.727-7.727V30.445a7.723 7.723 0 0 1 7.727-7.722 7.722 7.722 0 0 1 7.723 7.722v12.168a7.725 7.725 0 0 1-7.723 7.727zm0 0M238.809 50.34a7.729 7.729 0 0 1-7.727-7.727V30.445c0-4.265 3.461-7.722 7.727-7.722s7.726 3.457 7.726 7.722v12.168a7.729 7.729 0 0 1-7.726 7.727zm0 0"/></g><path d="M76.34 440.281h-.13a7.726 7.726 0 0 1-7.726-7.726 7.726 7.726 0 0 1 7.727-7.727h.129c4.27 0 7.726 3.461 7.726 7.727a7.726 7.726 0 0 1-7.726 7.726zm0 0M102.73 440.281h-.128a7.726 7.726 0 0 1-7.727-7.726 7.726 7.726 0 0 1 7.727-7.727h.128c4.27 0 7.727 3.461 7.727 7.727a7.726 7.726 0 0 1-7.727 7.726zm0 0" fill="#383c7c"/></svg>