<svg height="512pt" viewBox="-12 0 512 512" width="512pt" xmlns="http://www.w3.org/2000/svg"><path d="M470.43 264.91c0 124.469-100.903 225.371-225.368 225.371-124.468 0-225.37-100.902-225.37-225.37 0-124.466 100.902-225.368 225.37-225.368 124.465 0 225.368 100.902 225.368 225.367zm0 0" fill="#e667f9"/><path d="M435.453 264.91c0 105.152-85.242 190.395-190.39 190.395-105.153 0-190.395-85.243-190.395-190.395 0-105.148 85.242-190.39 190.394-190.39 105.149 0 190.391 85.242 190.391 190.39zm0 0" fill="#6163aa"/><path d="M275.215 512c-33.774 0-66.61-6.434-97.59-19.121-32.164-13.172-60.762-32.484-84.992-57.399-38.625-39.71-59.895-92.5-59.895-148.632 0-56.133 21.27-108.918 59.895-148.633 31.226-32.106 72.77-49.79 116.957-49.79 44.191 0 85.73 17.684 116.957 49.79 52.023 53.492 52.023 140.523 0 194.015-20.606 21.184-47.895 32.704-76.535 32.704-4.864 0-9.758-.332-14.672-1.004a7.498 7.498 0 0 1-6.414-8.446 7.502 7.502 0 0 1 8.449-6.414c29.086 3.98 57.672-5.968 78.422-27.297 46.414-47.722 46.414-125.375 0-173.097-28.383-29.18-66.102-45.25-106.207-45.25-40.106 0-77.824 16.066-106.203 45.25-74.106 76.187-74.106 200.156 0 276.347 22.785 23.426 49.675 41.586 79.922 53.973C212.477 490.941 243.399 497 275.215 497c31.812 0 62.734-6.059 91.902-18.004 30.246-12.387 57.137-30.547 79.926-53.973a7.493 7.493 0 0 1 10.602-.148 7.502 7.502 0 0 1 .148 10.605c-24.23 24.915-52.828 44.227-84.992 57.399C341.82 505.566 308.984 512 275.215 512zm0 0" fill="#7e18ea"/><path d="M251.57 458.813c-91.148 0-165.3-74.157-165.3-165.301 0-73.742 59.996-133.739 133.738-133.739 60.05 0 104.469 43.922 113.16 111.899a7.507 7.507 0 0 1-6.488 8.39c-4.098.52-7.868-2.378-8.395-6.488-3.824-29.949-15.195-55.039-32.879-72.558-17.332-17.168-39.945-26.243-65.398-26.243-65.473 0-118.738 53.266-118.738 118.739 0 82.875 67.425 150.297 150.3 150.297 104.625 0 189.746-85.121 189.746-189.746 0-63.856-24.867-123.891-70.02-169.043C326.146 39.867 266.114 15 202.259 15a7.5 7.5 0 1 1 0-15c67.86 0 131.66 26.426 179.648 74.414 47.985 47.984 74.41 111.785 74.41 179.649 0 112.898-91.847 204.75-204.746 204.75zm0 0" fill="#5100cb"/><path d="M334.027 283.984c0 45.063-36.53 81.594-81.593 81.594s-81.594-36.531-81.594-81.594c0-45.066 36.531-81.593 81.594-81.593s81.593 36.527 81.593 81.593zm0 0" fill="#fd8f07"/><path d="M334.027 283.988c0 45.055-36.527 81.586-81.597 81.586a81.292 81.292 0 0 1-17.867-1.969c36.476-8.136 63.722-40.695 63.722-79.617s-27.246-71.492-63.722-79.629a81.292 81.292 0 0 1 17.867-1.968c45.066 0 81.597 36.53 81.597 81.597zm0 0" fill="#fd7504"/><g fill="#e667f9"><path d="M23.766 408.195h-.036a7.5 7.5 0 0 1-7.464-7.535l.011-2.902c.024-4.14 3.43-7.496 7.535-7.465a7.5 7.5 0 0 1 7.465 7.535l-.011 2.902a7.5 7.5 0 0 1-7.5 7.465zm0 0M23.676 437.746h-.04a7.502 7.502 0 0 1-7.464-7.535l.015-2.902a7.5 7.5 0 0 1 7.5-7.465h.036a7.5 7.5 0 0 1 7.465 7.535l-.016 2.902a7.499 7.499 0 0 1-7.496 7.465zm0 0M39.953 421.57h-.035l-2.906-.011a7.502 7.502 0 0 1-7.465-7.536 7.502 7.502 0 0 1 7.5-7.464h.035l2.902.011a7.502 7.502 0 0 1 7.465 7.535 7.494 7.494 0 0 1-7.496 7.465zm0 0M10.402 421.48h-.035l-2.902-.011a7.5 7.5 0 1 1 .035-15h.035l2.902.011a7.5 7.5 0 0 1-.035 15zm0 0M40.277 463.867h-.039a7.502 7.502 0 0 1-7.465-7.535l.016-2.902a7.502 7.502 0 0 1 7.5-7.465h.035a7.503 7.503 0 0 1 7.465 7.539l-.016 2.902a7.498 7.498 0 0 1-7.496 7.461zm0 0M40.184 493.418h-.04a7.502 7.502 0 0 1-7.46-7.54l.011-2.901a7.501 7.501 0 0 1 7.5-7.461h.04a7.496 7.496 0 0 1 7.46 7.535l-.011 2.902a7.502 7.502 0 0 1-7.5 7.465zm0 0M56.46 477.242h-.034l-2.903-.012a7.502 7.502 0 0 1-7.464-7.535 7.502 7.502 0 0 1 7.5-7.465h.035l2.902.012c4.14.024 7.484 3.395 7.465 7.535a7.497 7.497 0 0 1-7.5 7.465zm0 0M26.914 477.152h-.039l-2.902-.011a7.505 7.505 0 0 1-7.461-7.54c.02-4.14 3.437-7.503 7.535-7.46l2.902.011a7.503 7.503 0 0 1 7.465 7.54 7.499 7.499 0 0 1-7.5 7.46zm0 0M375.684 320.773h-.04a7.5 7.5 0 0 1-7.464-7.535l.015-2.902a7.502 7.502 0 0 1 7.5-7.465h.04a7.505 7.505 0 0 1 7.46 7.54l-.015 2.901a7.498 7.498 0 0 1-7.496 7.461zm0 0M375.59 350.324h-.035a7.5 7.5 0 0 1-7.465-7.535l.015-2.902a7.496 7.496 0 0 1 7.497-7.465h.039a7.499 7.499 0 0 1 7.464 7.531l-.015 2.906a7.502 7.502 0 0 1-7.5 7.465zm0 0M391.867 334.148h-.035l-2.902-.011a7.5 7.5 0 0 1 .035-15H389l2.902.011a7.5 7.5 0 1 1-.035 15zm0 0M362.32 334.059h-.035l-2.902-.012a7.5 7.5 0 1 1 .035-15h.035l2.902.012a7.502 7.502 0 0 1 7.465 7.535 7.502 7.502 0 0 1-7.5 7.465zm0 0M426.613 49.59h-.035a7.502 7.502 0 0 1-7.465-7.535l.016-2.903a7.502 7.502 0 0 1 7.5-7.465h.035a7.5 7.5 0 0 1 7.465 7.536l-.016 2.902a7.5 7.5 0 0 1-7.5 7.465zm0 0M426.523 79.137h-.035a7.497 7.497 0 0 1-7.465-7.535l.012-2.903c.024-4.129 3.375-7.465 7.5-7.465h.035a7.5 7.5 0 0 1 7.465 7.536l-.012 2.902a7.5 7.5 0 0 1-7.5 7.465zm0 0M442.8 62.965h-.034l-2.903-.016a7.5 7.5 0 0 1 .035-15h.036l2.902.016A7.5 7.5 0 0 1 450.3 55.5a7.5 7.5 0 0 1-7.5 7.465zm0 0M413.254 62.875h-.035l-2.903-.016a7.497 7.497 0 0 1-7.464-7.535 7.502 7.502 0 0 1 7.5-7.465h.035l2.902.016a7.5 7.5 0 0 1-.035 15zm0 0"/></g><path d="M88 57.281c0 7.598-6.164 13.762-13.766 13.762-7.597 0-13.761-6.164-13.761-13.762 0-7.601 6.164-13.761 13.761-13.761C81.836 43.52 88 49.68 88 57.28zm0 0" fill="#c5ee09"/><path d="M474.012 111.777c0 7.602-6.16 13.762-13.762 13.762s-13.762-6.16-13.762-13.762c0-7.601 6.16-13.761 13.762-13.761s13.762 6.16 13.762 13.761zm0 0" fill="#7e18ea"/><path d="M273.703 104.965c0 7.601-6.16 13.762-13.762 13.762-7.601 0-13.761-6.16-13.761-13.762s6.16-13.762 13.761-13.762c7.602 0 13.762 6.16 13.762 13.762zm0 0" fill="#fd8f07"/><path d="M109.543 484.246c0 7.602-6.16 13.766-13.762 13.766s-13.761-6.164-13.761-13.766c0-7.598 6.16-13.762 13.761-13.762s13.762 6.164 13.762 13.762zm0 0" fill="#c5ee09"/><path d="M233.734 400.215c0 7.601-6.164 13.762-13.761 13.762-7.602 0-13.762-6.16-13.762-13.762s6.16-13.762 13.762-13.762c7.597 0 13.761 6.16 13.761 13.762zm0 0M124.852 283.984c0 12.754-10.336 23.09-23.09 23.09s-23.094-10.336-23.094-23.09 10.34-23.093 23.094-23.093c12.754 0 23.09 10.34 23.09 23.093zm0 0" fill="#2de0c7"/><path d="M488.988 358.52c0 12.753-10.34 23.093-23.093 23.093-12.754 0-23.094-10.34-23.094-23.093 0-12.754 10.34-23.094 23.094-23.094 12.753 0 23.093 10.34 23.093 23.094zm0 0" fill="#9bf2e5"/><path d="M477.336 412.18a7.484 7.484 0 0 1-5.305-2.2l-.082-.078c-2.926-2.93-2.926-7.68 0-10.605a7.502 7.502 0 0 1 10.61 0l.078.078a7.497 7.497 0 0 1 0 10.605 7.468 7.468 0 0 1-5.301 2.2zm0 0M210.54 202.39a7.467 7.467 0 0 1-5.321-2.214l-.078-.082c-2.922-2.938-2.907-7.688.03-10.606s7.688-2.902 10.606.032l.078.082a7.497 7.497 0 0 1-.03 10.605 7.462 7.462 0 0 1-5.286 2.184zm0 0" fill="#2de0c7"/><path d="M65.113 100.469a7.47 7.47 0 0 1-5.336-2.23l-.078-.079a7.497 7.497 0 0 1 .063-10.605 7.497 7.497 0 0 1 10.605.062l.082.082a7.497 7.497 0 0 1-.066 10.606 7.486 7.486 0 0 1-5.27 2.164zm0 0" fill="#5100cb"/><path d="M346.957 35.527a7.467 7.467 0 0 1-5.32-2.215l-.078-.082a7.497 7.497 0 0 1 .03-10.605c2.938-2.918 7.688-2.906 10.606.031l.078.082a7.497 7.497 0 0 1-.03 10.606 7.462 7.462 0 0 1-5.286 2.183zm0 0" fill="#fd8f07"/><path d="M43.031 105.516a7.465 7.465 0 0 1-5.316-2.215l-.082-.078a7.506 7.506 0 0 1 .031-10.61 7.5 7.5 0 0 1 10.606.035l.082.079a7.506 7.506 0 0 1-.032 10.609 7.484 7.484 0 0 1-5.289 2.18zm0 0" fill="#6163aa"/><path d="M131.516 329.809a7.465 7.465 0 0 1-5.317-2.215l-.082-.082c-2.918-2.938-2.906-7.688.031-10.606a7.51 7.51 0 0 1 10.61.031l.078.083a7.497 7.497 0 0 1-.031 10.605 7.465 7.465 0 0 1-5.29 2.184zm0 0" fill="#c5ee09"/><path d="M255.148 273.363c0 11.035-8.941 19.98-19.976 19.98s-19.98-8.945-19.98-19.98 8.945-19.976 19.98-19.976 19.976 8.941 19.976 19.976zm0 0" fill="#fc5921"/></svg>