<svg height="512pt" viewBox="-14 0 512 512" width="512pt" xmlns="http://www.w3.org/2000/svg"><path d="M483.39 75.66v87.313c0 5.882-4.765 10.648-10.648 10.648H336.465c-2.399 0-4.606-.805-6.39-2.129a10.64 10.64 0 0 1-4.259-8.52V65.017h146.926c5.883-.004 10.649 4.761 10.649 10.644zm0 0" fill="#7e18ea"/><path d="M483.39 141.79v21.183c0 5.882-4.765 10.648-10.648 10.648H336.465c-2.399 0-4.606-.805-6.39-2.129a10.64 10.64 0 0 1-4.259-8.52V141.79zm0 0" fill="#00c2cc"/><path d="M483.39 75.66v24.61H325.817V65.012h146.926c5.883 0 10.649 4.765 10.649 10.648zm0 0" fill="#ffe5c0"/><path d="M423.766 30.922v87.316a10.64 10.64 0 0 1-10.645 10.645H287.488V20.277h125.63c5.886 0 10.648 4.762 10.648 10.645zm0 0" fill="#b200bf"/><path d="M423.766 100.27v17.968a10.64 10.64 0 0 1-10.645 10.645H287.488V100.27zm0 0" fill="#9bf2e5"/><path d="M423.766 30.922v24.613H287.488V20.277h125.63c5.886 0 10.648 4.762 10.648 10.645zm0 0" fill="#fef5e3"/><path d="M287.484 512a7.5 7.5 0 0 1-7.5-7.5V7.5a7.5 7.5 0 0 1 7.5-7.5c4.145 0 7.5 3.355 7.5 7.5v497c0 4.145-3.355 7.5-7.5 7.5zm0 0" fill="#6163aa"/><path d="M415.254 128.887l-85.18 42.601a10.63 10.63 0 0 1-4.258-8.52v-34.09zm0 0" fill="#2500ad"/><path d="M183.484 129.8v176.872c0 9.887-8.007 17.898-17.898 17.898H24.074c-9.887 0-17.91-8.011-17.91-17.898V129.8zm0 0" fill="#ffe5c0"/><path d="M183.484 157.18v63.058h-23.5V324.57H24.074c-9.887 0-17.91-8.011-17.91-17.898v-133.23c6.512-7.66 14.75-12.872 23.602-15.07A83.298 83.298 0 0 1 14.805 129.8h160.05a83.199 83.199 0 0 1-14.03 27.379zm0 0" fill="#ffd4a1"/><path d="M41.676 291.898h106.308v175.34H41.676zm0 0" fill="#898ec9"/><g fill="#6163aa"><path d="M41.676 291.898h106.308v34.141H41.676zm0 0M124.828 397.98H64.836a7.5 7.5 0 0 1-7.5-7.5c0-4.144 3.355-7.5 7.5-7.5h59.992c4.145 0 7.5 3.356 7.5 7.5 0 4.141-3.36 7.5-7.5 7.5zm0 0"/><path d="M94.836 291.898h53.148v175.34H94.836zm0 0"/></g><path d="M94.836 291.898h53.148v34.141H94.836zm0 0M132.324 390.48c0 4.141-3.36 7.5-7.5 7.5H94.836v-15h29.988c4.14 0 7.5 3.36 7.5 7.5zm0 0" fill="#4e5093"/><path d="M41.676 413.637c12.789 0 23.16-10.367 23.16-23.157 0-12.792-10.371-23.16-23.16-23.16zm0 0M147.988 413.637c-12.793 0-23.16-10.367-23.16-23.157 0-12.792 10.367-23.16 23.16-23.16zm0 0" fill="#2de0c7"/><path d="M183.05 141.188H6.61a5.453 5.453 0 0 1-5.454-5.454v-23.523c0-6.023 4.883-10.906 10.906-10.906h165.536c6.02 0 10.902 4.882 10.902 10.906v23.523a5.452 5.452 0 0 1-5.45 5.453zm0 0" fill="#fef5e3"/><path d="M147.984 169.18v144.86H3.394v-98.028c0-21.563 11.18-39.711 26.403-45.16a28.172 28.172 0 0 1 9.55-1.672zm0 0" fill="#6163aa"/><path d="M147.984 169.18v144.86H29.797V170.851a28.172 28.172 0 0 1 9.55-1.672zm0 0" fill="#4e5093"/><path d="M41.797 169.18h106.07v144.86H41.797zm0 0" fill="#898ec9"/><path d="M147.867 169.18v1.41c-14.43 11.922-32.91 19.082-53.043 19.082-20.117 0-38.597-7.16-53.027-19.07v-1.422zm0 0M147.867 169.18h119.45v39.058h-119.45zm0 0" fill="#6163aa"/><path d="M166.25 106.25c0 39.441-31.977 71.418-71.422 71.418-39.441 0-71.418-31.977-71.418-71.418 0-39.445 31.977-71.422 71.418-71.422 39.445 0 71.422 31.977 71.422 71.422zm0 0" fill="#a7acd3"/><path d="M147.867 105.16c0 18.352-9.332 34.531-23.5 44.05a52.407 52.407 0 0 1-20.73 8.25c-2.86.49-5.813.74-8.813.74a50.49 50.49 0 0 1-6.91-.462 51.042 51.042 0 0 1-7.656-1.566 52.897 52.897 0 0 1-14.961-6.961 52.73 52.73 0 0 1-8.582-7.191c-9.25-9.54-14.93-22.54-14.93-36.86 0-27.969 21.66-37.59 49.13-38.39 1.292-.04 2.593-.06 3.91-.06 8.952 0 17.382.849 24.773 2.88a54.552 54.552 0 0 1 7.25 2.512c4.66 2.02 8.726 4.668 12.007 8.058 5.692 5.899 9.012 14.04 9.012 25zm0 0" fill="#2de0c7"/><path d="M138.855 80.16l-35.218 77.3c-2.86.49-5.813.74-8.813.74a50.49 50.49 0 0 1-6.91-.462l38.934-85.636c4.66 2.02 8.726 4.668 12.007 8.058zm0 0M119.598 69.59l-39.34 86.582a52.897 52.897 0 0 1-14.961-6.961 52.73 52.73 0 0 1-8.582-7.191l34.2-75.25c1.292-.04 2.593-.06 3.91-.06 8.952 0 17.382.849 24.773 2.88zm0 0" fill="#9bf2e5"/><path d="M45.836 111.605c0-8.144-5.348-14.746-11.945-14.746-6.602 0-11.95 6.602-11.95 14.746 0 8.141 5.348 14.743 11.95 14.743 6.597 0 11.945-6.602 11.945-14.743zm0 0M167.719 111.605c0-8.144-5.352-14.746-11.95-14.746-6.597 0-11.949 6.602-11.949 14.746 0 8.141 5.352 14.743 11.95 14.743 6.597 0 11.949-6.602 11.949-14.743zm0 0" fill="#4e5093"/><path d="M33.719 353.496h-.117C15.043 353.496 0 338.453 0 319.895v-8.813a8.095 8.095 0 0 1 8.094-8.094h34.32a8.094 8.094 0 0 1 8.098 8.094v25.625c-.004 9.27-7.52 16.79-16.793 16.79zm0 0" fill="#2de0c7"/><path d="M171.047 489.762v6.36c0 4.616-3.75 8.366-8.383 8.366l-59.457.012c-4.621 0-8.371-3.75-8.383-8.371V471.66c0-4.62 3.75-8.37 8.383-8.37l41.36-.009c14.62 0 26.48 11.86 26.48 26.48zm0 0" fill="#00c4ce"/><path d="M136.047 485.34c.027 4.14-3.3 7.531-7.442 7.57l-33.71.29h-.07v-15l33.652-.29h.07a7.5 7.5 0 0 1 7.5 7.43zm0 0" fill="#00a6cc"/><path d="M94.824 471.66v24.469c0 4.621-3.75 8.371-8.367 8.371l-59.473-.012c-4.617 0-8.367-3.75-8.367-8.367v-6.36c0-14.62 11.86-26.48 26.48-26.48l41.36.008a8.365 8.365 0 0 1 8.367 8.371zm0 0" fill="#2de0c7"/><path d="M94.824 478.2v15h-.058l-33.72-.29c-4.14-.039-7.472-3.43-7.429-7.57a7.5 7.5 0 0 1 7.5-7.43h.07zm0 0" fill="#00c2cc"/><path d="M317.824 199.574v-.117c0-18.559-15.047-33.602-33.601-33.602h-8.813a8.096 8.096 0 0 0-8.097 8.094v34.32a8.097 8.097 0 0 0 8.097 8.098h25.621c9.274-.004 16.793-7.52 16.793-16.793zm0 0" fill="#2de0c7"/><path d="M122.523 215.742h-15a7.5 7.5 0 1 1 0-15h15a7.5 7.5 0 1 1 0 15zm0 0M124.879 240.61h-.102a7.5 7.5 0 0 1-7.5-7.5c0-4.145 3.356-7.5 7.5-7.5h.102c4.144 0 7.5 3.355 7.5 7.5a7.5 7.5 0 0 1-7.5 7.5zm0 0M124.883 257.168h-.074l-.102-.004a7.494 7.494 0 0 1-7.43-7.566 7.5 7.5 0 0 1 7.496-7.434h.075l.101.004a7.5 7.5 0 0 1 7.43 7.57 7.499 7.499 0 0 1-7.496 7.43zm0 0" fill="#ff5c3c"/><path d="M66.664 296.773a7.5 7.5 0 0 1-7.5-7.5v-49.515a7.5 7.5 0 0 1 7.5-7.5c4.145 0 7.5 3.355 7.5 7.5v49.515c0 4.145-3.355 7.5-7.5 7.5zm0 0" fill="#6163aa"/><path d="M147.984 299.398H41.676a7.5 7.5 0 1 1 0-15h106.308a7.5 7.5 0 1 1 0 15zm0 0" fill="#2de0c7"/><path d="M147.867 169.18h12v39.058h-12zm0 0" fill="#4e5093"/></svg>