<svg height="512pt" viewBox="0 -13 512 512" width="512pt" xmlns="http://www.w3.org/2000/svg"><path d="M254.934 3.004c11.175 32.7 54.004 40.25 75.691 13.348.555-.696 1.672-.286 1.656.601-.683 34.547 36.98 56.293 66.559 38.43.762-.461 1.672.304 1.351 1.133-12.457 32.234 15.5 65.547 49.403 58.879.875-.172 1.469.855.883 1.527-22.727 26.023-7.856 66.894 26.289 72.223.875.136 1.082 1.304.304 1.734-30.261 16.684-30.261 60.176 0 76.86.778.429.57 1.6-.304 1.738-34.145 5.328-49.016 46.195-26.29 72.222.587.668-.007 1.7-.882 1.528-33.903-6.672-61.86 26.644-49.403 58.875.32.828-.59 1.593-1.351 1.132-29.578-17.863-67.242 3.883-66.559 38.43.016.89-1.101 1.297-1.656.606-21.688-26.907-64.516-19.352-75.691 13.343-.29.84-1.477.84-1.766 0-11.176-32.695-54.004-40.25-75.691-13.343-.555.69-1.672.285-1.657-.606.684-34.547-36.98-56.293-66.558-38.43-.762.461-1.672-.304-1.352-1.132 12.453-32.23-15.5-65.547-49.402-58.875-.875.168-1.469-.86-.883-1.528 22.727-26.027 7.855-66.894-26.29-72.222-.874-.137-1.081-1.309-.304-1.739 30.262-16.683 30.262-60.176 0-76.86-.777-.429-.57-1.597.305-1.733 34.144-5.329 49.016-46.2 26.289-72.223-.586-.672.008-1.7.883-1.527 33.902 6.667 61.86-26.645 49.402-58.88-.32-.828.59-1.593 1.352-1.132 29.578 17.863 67.242-3.883 66.558-38.43-.015-.887 1.102-1.297 1.657-.601 21.687 26.902 64.515 19.347 75.691-13.348.285-.84 1.477-.84 1.766 0zm0 0" fill="#fed370"/><path d="M473.453 274.309h.008zm-.015-.008c.003 0 .007.004.011.004-.004 0-.008-.004-.011-.004zm0 0" fill="#fc5921"/><path d="M254.05 395.594c-91.69 0-166.284-74.594-166.284-166.285 0-91.688 74.593-166.282 166.285-166.282 91.687 0 166.285 74.594 166.285 166.282 0 91.691-74.598 166.285-166.285 166.285zm0 0" fill="#fda736"/><path d="M404.281 229.309c0 82.972-67.261 150.23-150.23 150.23-8.84 0-17.512-.758-25.93-2.23a148.17 148.17 0 0 1-17.16-4.047c-27.27-8.14-51.29-23.832-69.64-44.64-3.321-3.77-6.45-7.7-9.38-11.794-17.703-24.648-28.12-54.867-28.12-87.52 0-82.968 67.257-150.23 150.23-150.23 9.39 0 18.578.863 27.5 2.524a147.76 147.76 0 0 1 17.027 4.18c24.172 7.488 45.73 20.917 62.961 38.577 3.5 3.582 6.82 7.34 9.95 11.262 20.523 25.68 32.792 58.25 32.792 93.688zm0 0" fill="#fd8f07"/><path d="M404.281 229.309c0 82.972-67.265 150.226-150.23 150.226-6.723 0-13.348-.445-19.836-1.308 73.582-9.704 130.367-72.68 130.367-148.918 0-76.23-56.785-139.204-130.367-148.91a150.386 150.386 0 0 1 19.836-1.31c82.965 0 150.23 67.255 150.23 150.22zm0 0M389.242 15H389.094a7.497 7.497 0 0 1-7.469-7.531A7.5 7.5 0 0 1 389.121 0h.149a7.497 7.497 0 0 1 7.468 7.531A7.497 7.497 0 0 1 389.242 15zm0 0" fill="#fd7504"/><path d="M477.613 429.781h-.12a7.5 7.5 0 1 1 0-15h.12a7.5 7.5 0 1 1 0 15zm0 0M446.688 429.781H446.538a7.497 7.497 0 0 1-7.469-7.531 7.497 7.497 0 0 1 7.496-7.469h.153a7.5 7.5 0 0 1-.031 15zm0 0M201.719 486.988h-.117a7.5 7.5 0 0 1-7.5-7.5c0-4.144 3.355-7.5 7.5-7.5h.117c4.144 0 7.5 3.356 7.5 7.5 0 4.14-3.36 7.5-7.5 7.5zm0 0" fill="#fc5921"/><path d="M7.617 139.008H7.47a7.5 7.5 0 0 1 .031-15H7.648c4.145.015 7.485 3.39 7.47 7.531a7.498 7.498 0 0 1-7.5 7.469zm0 0" fill="#fed370"/><path d="M43.86 27.324h-.118a7.5 7.5 0 1 1 0-15h.117a7.5 7.5 0 0 1 7.5 7.5c0 4.145-3.355 7.5-7.5 7.5zm0 0" fill="#fda736"/><g fill="#fc5921"><path d="M68.027 15.168h-.148a7.5 7.5 0 0 1 .031-15h.149a7.495 7.495 0 0 1 7.468 7.531 7.5 7.5 0 0 1-7.5 7.469zm0 0M30.582 432.438h-.035a7.5 7.5 0 0 1-7.465-7.54l.012-2.652c.02-4.144 3.41-7.488 7.539-7.465a7.499 7.499 0 0 1 7.46 7.535l-.011 2.657a7.502 7.502 0 0 1-7.5 7.464zm0 0M30.5 459.453h-.04a7.499 7.499 0 0 1-7.46-7.535l.012-2.656a7.499 7.499 0 0 1 7.5-7.461h.035a7.5 7.5 0 0 1 7.465 7.535L38 451.988a7.502 7.502 0 0 1-7.5 7.465zm0 0M45.383 444.664h-.035l-2.657-.012c-4.14-.02-7.48-3.394-7.464-7.535a7.502 7.502 0 0 1 7.5-7.465h.039l2.652.012a7.5 7.5 0 1 1-.035 15zm0 0M18.367 444.582h-.039l-2.652-.012a7.5 7.5 0 0 1-7.465-7.539 7.499 7.499 0 0 1 7.5-7.46h.035l2.656.011a7.499 7.499 0 0 1 7.461 7.535 7.496 7.496 0 0 1-7.496 7.465zm0 0M489.7 28.281h-.036a7.502 7.502 0 0 1-7.465-7.535l.016-2.656a7.495 7.495 0 0 1 7.496-7.461h.039c4.14.02 7.48 3.39 7.465 7.535l-.016 2.652a7.502 7.502 0 0 1-7.5 7.465zm0 0M489.617 55.297h-.035a7.5 7.5 0 0 1-7.465-7.535l.012-2.657a7.499 7.499 0 0 1 7.5-7.46h.039c4.14.02 7.48 3.39 7.46 7.535l-.01 2.652a7.502 7.502 0 0 1-7.5 7.465zm0 0M504.5 40.512h-.035l-2.656-.016a7.499 7.499 0 0 1-7.461-7.535 7.499 7.499 0 0 1 7.496-7.465h.039l2.652.016A7.497 7.497 0 0 1 512 33.047a7.502 7.502 0 0 1-7.5 7.465zm0 0M477.484 40.426h-.039l-2.652-.012c-4.14-.02-7.48-3.394-7.465-7.535.024-4.129 3.375-7.465 7.5-7.465h.04l2.652.012a7.5 7.5 0 1 1-.035 15zm0 0"/></g><path d="M99.996 442.281h-.035a7.5 7.5 0 0 1-7.465-7.535l.012-2.652c.02-4.145 3.383-7.469 7.535-7.465a7.5 7.5 0 0 1 7.465 7.535l-.012 2.652a7.502 7.502 0 0 1-7.5 7.465zm0 0M99.914 469.297h-.039c-4.14-.02-7.48-3.395-7.465-7.535l.016-2.653a7.5 7.5 0 0 1 7.5-7.464h.035a7.502 7.502 0 0 1 7.465 7.535l-.016 2.656c-.015 4.129-3.37 7.46-7.496 7.46zm0 0M114.797 454.512h-.04l-2.652-.012a7.505 7.505 0 0 1-7.464-7.54 7.499 7.499 0 0 1 7.5-7.46h.035l2.656.012c4.14.02 7.48 3.394 7.465 7.535-.024 4.129-3.375 7.465-7.5 7.465zm0 0M87.781 454.43h-.039l-2.652-.016a7.5 7.5 0 0 1 .035-15h.035l2.656.016c4.141.02 7.48 3.39 7.461 7.535a7.496 7.496 0 0 1-7.496 7.465zm0 0" fill="#fed370"/><path d="M259.719 210.262L141.82 328.172c-.16.156-.332.308-.5.45-3.32-3.77-6.449-7.7-9.379-11.794l117.18-117.168a7.488 7.488 0 0 1 10.598 0c2.93 2.918 2.93 7.668 0 10.602zm0 0M246.617 299.086a7.477 7.477 0 0 1-5.304-2.2 7.497 7.497 0 0 1 0-10.605l28.578-28.578a7.502 7.502 0 0 1 10.609 0c2.926 2.93 2.926 7.68 0 10.606l-28.578 28.578a7.484 7.484 0 0 1-5.305 2.199zm0 0M298.578 85.781L189.27 195.078a7.433 7.433 0 0 1-5.301 2.203c-1.918 0-3.84-.73-5.297-2.203-2.934-2.93-2.934-7.68 0-10.598L281.55 81.602a147.76 147.76 0 0 1 17.027 4.18zm0 0M303.59 307.352c-1.922 0-3.84-.73-5.305-2.196a7.497 7.497 0 0 1 0-10.605l11.668-11.668a7.497 7.497 0 0 1 10.606 0 7.497 7.497 0 0 1 0 10.605l-11.668 11.668a7.464 7.464 0 0 1-5.301 2.196zm0 0M336.258 274.688a7.477 7.477 0 0 1-5.305-2.2 7.497 7.497 0 0 1 0-10.605l35.508-35.508a7.497 7.497 0 0 1 10.605 0 7.497 7.497 0 0 1 0 10.605l-35.507 35.508a7.475 7.475 0 0 1-5.301 2.2zm0 0M371.488 135.621L315.91 191.2a7.43 7.43 0 0 1-5.3 2.2 7.467 7.467 0 0 1-5.31-2.2 7.502 7.502 0 0 1 0-10.597l56.24-56.243c3.5 3.582 6.82 7.34 9.948 11.262zm0 0M241.398 364.031l-13.277 13.278a148.17 148.17 0 0 1-17.16-4.047l19.828-19.84a7.495 7.495 0 0 1 10.61 0 7.502 7.502 0 0 1 0 10.61zm0 0" fill="#fc5921"/></svg>