<svg xmlns="http://www.w3.org/2000/svg" width="512" height="512"><path fill="#c0c8d2" d="M361 427.5h-45l-30 15 30 15h45z"/><path fill="#dae0e7" d="M151 427.5h165v30H151z"/><path fill="#a6b0bd" d="M346 336.845h30V504.5h-30zM136 336.845h30V504.5h-30z"/><path d="M256 7.5v390c107.695 0 195-87.304 195-195s-87.305-195-195-195z" fill="#ff4e51"/><path d="M421 202.5c0-107.696-73.873-195-165-195-107.696 0-195 87.304-195 195s87.304 195 195 195c91.127 0 165-87.304 165-195z" fill="#ff7149"/><path d="M256 37.5v330c91.127 0 165-73.873 165-165s-73.873-165-165-165z" fill="#fff7e8"/><path d="M391 202.5c0-91.127-60.442-165-135-165-91.127 0-165 73.873-165 165s73.873 165 165 165c74.558 0 135-73.873 135-165z" fill="#fff"/><path d="M256 97.5v210c57.99 0 105-47.01 105-105s-47.01-105-105-105z" fill="#ff4e51"/><path d="M331 202.5c0-57.99-33.579-105-75-105-57.99 0-105 47.01-105 105s47.01 105 105 105c41.421 0 75-47.01 75-105z" fill="#ff7149"/><path d="M256 157.5v90c24.853 0 45-20.147 45-45s-20.147-45-45-45z" fill="#ffeac3"/><path d="M271 202.5c0-24.853-6.716-45-15-45-24.853 0-45 20.147-45 45s20.147 45 45 45c8.284 0 15-20.147 15-45z" fill="#fff7e8"/><circle cx="256" cy="202.5" r="15" fill="#ff4e51"/><path d="M256 225c12.406 0 22.5-10.093 22.5-22.5S268.406 180 256 180s-22.5 10.093-22.5 22.5S243.594 225 256 225zm0-30c4.136 0 7.5 3.364 7.5 7.5s-3.364 7.5-7.5 7.5-7.5-3.364-7.5-7.5 3.364-7.5 7.5-7.5z"/><path d="M377.97 80.524c-30.646-30.646-71.355-48.532-114.627-50.363-43.003-1.823-84.816 12.31-117.736 39.786a7.5 7.5 0 0 0-.952 10.563 7.498 7.498 0 0 0 10.563.952c62.919-52.512 154.121-48.357 212.145 9.667 29.748 29.748 46.131 69.3 46.131 111.369 0 42.07-16.383 81.622-46.131 111.37-61.408 61.41-161.329 61.409-222.737 0-58.024-58.024-62.181-149.227-9.668-212.145a7.498 7.498 0 0 0-.952-10.563 7.498 7.498 0 0 0-10.563.952c-27.476 32.92-41.605 74.732-39.786 117.736 1.83 43.272 19.717 83.98 50.362 114.626 33.629 33.629 77.803 50.443 121.976 50.443 44.174 0 88.348-16.814 121.977-50.443 32.58-32.581 50.523-75.899 50.523-121.976-.002-46.074-17.945-89.393-50.525-121.974z"/><path d="M458.5 202.5C458.5 90.841 367.659 0 256 0S53.5 90.841 53.5 202.5c0 63.376 29.273 120.037 75 157.196V504.5a7.5 7.5 0 0 0 7.5 7.5h30a7.5 7.5 0 0 0 7.5-7.5V465h165v39.5a7.5 7.5 0 0 0 7.5 7.5h30a7.5 7.5 0 0 0 7.5-7.5V359.696c45.727-37.159 75-93.82 75-157.196zM158.5 497h-15V370.791a202.71 202.71 0 0 0 15 9.141V497zm180-77h-165v-32.583C198.712 398.709 226.634 405 256 405s57.288-6.291 82.5-17.583V420zm-165 30v-15h165v15h-165zm195 47h-15V379.933a203.05 203.05 0 0 0 15-9.141V497zM256 390c-103.388 0-187.5-84.112-187.5-187.5S152.612 15 256 15s187.5 84.112 187.5 187.5S359.388 390 256 390z"/><path d="M256 315c62.033 0 112.5-50.467 112.5-112.5S318.033 90 256 90s-112.5 50.467-112.5 112.5S193.967 315 256 315zm0-210c53.762 0 97.5 43.738 97.5 97.5S309.762 300 256 300s-97.5-43.738-97.5-97.5S202.238 105 256 105z"/><path d="M256 255c28.948 0 52.5-23.551 52.5-52.5S284.948 150 256 150s-52.5 23.551-52.5 52.5S227.052 255 256 255zm0-90c20.678 0 37.5 16.822 37.5 37.5S276.678 240 256 240s-37.5-16.822-37.5-37.5S235.322 165 256 165z"/></svg>