<svg xmlns="http://www.w3.org/2000/svg" width="512" height="512"><path d="M368.839 34.541L361.115 49.7l70.746 176.695 45.598-83.233c-23.823-46.663-61.958-84.798-108.62-108.621zM361.115 462.3l7.724 15.159c46.662-23.823 84.797-61.958 108.62-108.62l-45.598-83.233L361.115 462.3z" fill="#ffeac3"/><path d="M477.459 143.161l-45.598 23.233v179.211l45.598 23.233C494.747 334.977 504.5 296.628 504.5 256s-9.753-78.977-27.041-112.839z" fill="#ff4e51"/><path d="M361.115 462.3L256 504.5c40.628 0 78.977-9.753 112.839-27.041l-7.724-15.159zM256 7.5c38.921 0 75.084 15.554 105.115 42.2l7.724-15.159C334.977 17.253 296.628 7.5 256 7.5zM384.5 256c0 21.009-5.043 40.839-13.983 58.349v43.274h84.929C467.686 326.6 474.5 292.206 474.5 256s-6.814-70.6-19.054-101.623h-84.929v43.273c8.94 17.511 13.983 37.341 13.983 58.35zM127.5 256c0-21.009 5.043-40.839 13.983-58.349v-54.49H34.541C17.253 177.023 7.5 215.372 7.5 256s9.753 78.977 27.041 112.839h106.942v-54.49c-8.94-17.51-13.983-37.34-13.983-58.349z" fill="#ff7149"/><path d="M256 127.5c21.009 0 40.839 5.043 58.349 13.983h51.216V40.965C333.355 19.691 295.931 7.5 256 7.5c-40.628 0-78.977 9.753-112.839 27.041v106.942h54.49c17.51-8.94 37.34-13.983 58.349-13.983z" fill="#ff7149"/><path d="M370.517 197.651l84.929-43.273c-18.804-47.662-50.428-87.354-89.88-113.412L314.35 141.484a129.055 129.055 0 0 1 56.167 56.167z" fill="#fff7e8"/><path d="M256 384.5c-21.009 0-40.839-5.043-58.349-13.983h-54.49v106.942C177.023 494.747 215.372 504.5 256 504.5c39.931 0 77.355-12.191 109.566-33.465l3.273-100.518h-54.49c-17.51 8.94-37.34 13.983-58.349 13.983z" fill="#ff7149"/><path d="M141.483 314.349l-106.942 54.49c23.823 46.662 61.958 84.797 108.62 108.62l54.49-106.942a129.06 129.06 0 0 1-56.168-56.168zM197.651 141.483l-54.49-106.942c-46.662 23.823-84.797 61.958-108.62 108.62l106.942 54.49a129.06 129.06 0 0 1 56.168-56.168zM455.446 357.623l-84.929-43.274a129.06 129.06 0 0 1-56.168 56.168l51.216 100.518c39.453-26.058 71.077-65.751 89.881-113.412z" fill="#fff7e8"/><path d="M512 256c0-27.823-4.41-54.969-12.897-80.639 10.926-21.757 15.102-46.859 11.737-71.099-3.645-26.242-15.498-50.04-34.279-68.822-18.783-18.782-42.581-30.635-68.823-34.28-24.242-3.367-49.342.81-71.099 11.737C310.969 4.41 283.823 0 256 0c-27.823 0-54.969 4.41-80.639 12.897-21.756-10.926-46.857-15.1-71.099-11.737C78.02 4.805 54.222 16.658 35.44 35.439 16.658 54.222 4.804 78.02 1.161 104.262c-3.366 24.24.811 49.342 11.736 71.099C4.41 201.031 0 228.177 0 256s4.41 54.969 12.897 80.639C1.971 358.396-2.206 383.498 1.161 407.738c3.644 26.242 15.498 50.04 34.279 68.822 18.782 18.781 42.58 30.635 68.822 34.279 5.485.762 11.01 1.138 16.536 1.138 18.897-.001 37.746-4.41 54.583-12.868C201.045 507.592 228.184 512 256 512s54.955-4.408 80.62-12.891c16.838 8.458 35.684 12.868 54.582 12.868 5.524 0 11.053-.377 16.536-1.138 26.242-3.645 50.04-15.498 68.822-34.279 18.781-18.782 30.635-42.58 34.279-68.822 3.365-24.24-.811-49.342-11.737-71.099C507.59 310.969 512 283.823 512 256zM372.018 467.177l-47.702-93.621a137.016 137.016 0 0 0 49.24-49.24l93.621 47.702c-22.064 40.001-55.158 73.095-95.159 95.159zM44.823 372.018l93.621-47.702a137.021 137.021 0 0 0 49.241 49.241l-47.702 93.621c-40.002-22.065-73.097-55.159-95.16-95.16zm-6.83-218.68l33.282 16.958a7.5 7.5 0 0 0 10.087-3.278 7.5 7.5 0 0 0-3.278-10.088l-33.262-16.948c22.064-40.001 55.159-73.096 95.16-95.16l47.702 93.621a137.021 137.021 0 0 0-49.241 49.241l-33.629-17.135a7.5 7.5 0 1 0-6.809 13.365l33.608 17.124C124.154 217.855 120 236.45 120 256s4.154 38.145 11.613 54.961l-93.62 47.701C23.259 327.499 15 292.698 15 256s8.259-71.499 22.993-102.662zM135 256c0-66.72 54.28-121 121-121s121 54.28 121 121-54.28 121-121 121-121-54.28-121-121zm332.177-116.018l-93.621 47.702a137.016 137.016 0 0 0-49.24-49.24l47.702-93.621c40.001 22.064 73.095 55.158 95.159 95.159zm6.83 218.68l-93.62-47.701C387.846 294.145 392 275.55 392 256c0-19.549-4.154-38.145-11.613-54.961l93.62-47.701C488.741 184.502 497 219.302 497 256s-8.259 71.498-22.993 102.662zm-8.054-312.615c28.636 28.635 38.052 71.414 25.426 108.987-12.668-29.519-30.962-56.656-54.359-80.053s-50.534-41.691-80.053-54.359c37.572-12.626 80.35-3.211 108.986 25.425zm-107.291-8.054l-47.701 93.62C294.145 124.154 275.549 120 256 120s-38.145 4.154-54.961 11.613l-47.701-93.62C184.502 23.259 219.302 15 256 15s71.498 8.259 102.662 22.993zM46.046 46.047C74.683 17.41 117.461 7.995 155.033 20.622 125.515 33.29 98.378 51.583 74.98 74.98c-23.397 23.397-41.691 50.534-54.359 80.053-12.626-37.573-3.21-80.351 25.425-108.986zm0 419.906C17.411 437.318 7.995 394.54 20.622 356.967c12.668 29.519 30.961 56.655 54.359 80.053 23.398 23.397 50.534 41.691 80.053 54.359-37.573 12.625-80.351 3.21-108.988-25.426zm107.292 8.054l47.701-93.62C217.855 387.846 236.451 392 256 392s38.145-4.154 54.961-11.613l47.701 93.62C327.498 488.741 292.698 497 256 497s-71.498-8.259-102.662-22.993zm312.615-8.054c-28.636 28.636-71.413 38.053-108.987 25.426 29.519-12.668 56.656-30.962 80.053-54.359 23.397-23.397 41.691-50.534 54.359-80.053 12.627 37.572 3.211 80.351-25.425 108.986z"/></svg>