<svg xmlns="http://www.w3.org/2000/svg" width="512" height="512"><path d="M489.5 127.609L256 361.109c128.752 0 233.5-104.748 233.5-233.5z" fill="#ffb4b3"/><path d="M489.5 127.609c-128.752 0-233.5 104.748-233.5 233.5 100.468-28.284 205.215-133.032 233.5-233.5z" fill="#ffcad6"/><path d="M382.369 56.027L256 361.109c118.951-49.271 175.641-186.131 126.369-305.082z" fill="#ffeac3"/><path d="M382.369 56.027C263.417 105.298 206.728 242.157 256 361.109c81.996-64.579 138.685-201.438 126.369-305.082z" fill="#fff7e8"/><path d="M22.5 127.609l233.5 233.5c0-128.752-104.748-233.5-233.5-233.5z" fill="#ffb4b3"/><path d="M22.5 127.609c0 128.752 104.748 233.5 233.5 233.5-28.285-100.468-133.032-205.216-233.5-233.5z" fill="#ffcad6"/><path d="M129.631 56.027L256 361.109c49.271-118.952-7.418-255.811-126.369-305.082z" fill="#ffeac3"/><path d="M129.631 56.027C80.359 174.978 137.048 311.838 256 361.109c12.316-103.644-44.373-240.504-126.369-305.082z" fill="#fff7e8"/><path d="M256 30.89v330.219c91.041-91.042 91.042-239.177 0-330.219z" fill="#ffb4b3"/><path d="M256 30.89c-91.042 91.042-91.042 239.177 0 330.219 51.041-91.042 51.041-239.177 0-330.219z" fill="#ffcad6"/><path d="M489.5 391.109h-30v30h30c8.284 0 15-6.716 15-15s-6.716-15-15-15z" fill="#53a143"/><path d="M7.5 406.109c0 8.284 6.716 15 15 15H226l30-30H22.5c-8.284 0-15 6.716-15 15zM474.5 406.109c0-8.284-6.716-15-15-15H256l30 30h173.5c8.284 0 15-6.716 15-15z" fill="#60ba4d"/><path d="M255.941 368.608c.019 0 .037.003.056.003.024 0 .043-.003.061-.003C388.919 368.576 497 260.477 497 127.609c0-4.143-3.357-7.5-7.5-7.5-28.234 0-55.777 4.844-82.03 14.388-1.242-27.613-7.292-55.074-18.172-81.34a7.499 7.499 0 0 0-9.799-4.059c-26.088 10.806-49.68 25.816-70.282 44.678-11.714-25.034-27.812-48.088-47.914-68.19a7.503 7.503 0 0 0-10.607 0c-45.448 45.45-70.477 105.97-70.477 170.414 0 51.434 15.96 100.361 45.504 141.129-89.955-56.06-130.156-169.468-91.965-271.136a225.506 225.506 0 0 1 43.329 25.842 7.5 7.5 0 1 0 9.082-11.938c-16.412-12.485-34.468-22.848-53.669-30.8a7.499 7.499 0 0 0-9.799 4.06c-11.027 26.622-16.904 54.113-18.107 81.364-26.273-9.559-53.837-14.411-82.095-14.411a7.5 7.5 0 0 0-7.5 7.5C15 260.477 123.081 368.576 255.941 368.608zm37.208-18.068c42.896-26.358 76.364-65.453 96.048-112.972 11.654-28.135 17.801-57.599 18.456-87.12 23.73-9.258 48.643-14.368 74.22-15.213-3.622 108.544-84.163 197.937-188.724 215.305zm85.093-284.549c20.216 53.77 19.247 112.362-2.903 165.837-18.31 44.206-49.337 80.637-89.094 105.346 29.565-40.777 45.536-89.72 45.536-141.174 0-30.455-5.597-60.031-16.291-87.557 18.381-17.634 39.443-31.883 62.752-42.452zM256 41.675c18.56 19.83 33.151 42.472 43.384 66.949.157.574.383 1.131.678 1.662 10.962 26.828 16.72 55.817 16.72 85.713 0 57.881-21.527 112.385-60.781 154.324-39.254-41.94-60.781-96.443-60.781-154.324S216.746 83.616 256 41.675zM104.433 150.482c1.816 80.348 43.956 156.661 114.466 200.066-104.584-17.349-185.15-106.752-188.772-215.313 25.608.846 50.55 5.968 74.306 15.247zM489.5 383.609h-467c-12.407 0-22.5 10.094-22.5 22.5s10.093 22.5 22.5 22.5H226a7.5 7.5 0 0 0 5.303-2.196L256 401.715l24.696 24.697a7.502 7.502 0 0 0 5.304 2.196h203.5c12.406 0 22.5-10.094 22.5-22.5s-10.094-22.499-22.5-22.499zm-266.606 30H22.5c-4.136 0-7.5-3.364-7.5-7.5s3.364-7.5 7.5-7.5h215.394l-15 15zm266.606 0H289.106l-15-15H489.5c4.136 0 7.5 3.364 7.5 7.5s-3.364 7.5-7.5 7.5zM459.5 443.609H226c-4.142 0-7.5 3.357-7.5 7.5s3.358 7.5 7.5 7.5h233.5c4.143 0 7.5-3.357 7.5-7.5s-3.357-7.5-7.5-7.5zM203.5 451.109a7.5 7.5 0 0 0-7.5-7.5H52.5c-4.142 0-7.5 3.357-7.5 7.5s3.358 7.5 7.5 7.5H196a7.5 7.5 0 0 0 7.5-7.5zM429.5 473.609h-15c-4.143 0-7.5 3.357-7.5 7.5s3.357 7.5 7.5 7.5h15c4.143 0 7.5-3.357 7.5-7.5s-3.357-7.5-7.5-7.5zM384.5 473.609h-302c-4.142 0-7.5 3.357-7.5 7.5s3.358 7.5 7.5 7.5h302c4.143 0 7.5-3.357 7.5-7.5s-3.357-7.5-7.5-7.5z"/></svg>