<svg xmlns="http://www.w3.org/2000/svg" viewBox="0 0 126.947 126.947"><path d="M88.579 1.5H49.172c-16.322 0-29.557 13.232-29.557 29.553v14.94l-6.369 6.369c-5.911 5.91-5.91 15.496 0 21.404l13.378 13.379c.104.105.221.195.328.297a29.618 29.618 0 0 0 14.49 9.082 4.66 4.66 0 0 0-.681 2.406v21.805a4.715 4.715 0 0 0 4.715 4.713h49.205a4.715 4.715 0 0 0 4.715-4.713V98.93c0-1.152-.431-2.193-1.117-3.014 11.557-4.018 19.855-14.996 19.855-27.918V31.053C118.134 14.732 104.9 1.5 88.579 1.5z" fill="#ff1a1a"/><path d="M88.579 13.156H49.172c-16.322 0-29.557 13.234-29.557 29.555V57.65l-6.369 6.367a15.1 15.1 0 0 0-3.264 4.875 15.06 15.06 0 0 0 3.264 4.873l13.378 13.379c.104.105.221.195.328.297a29.618 29.618 0 0 0 14.49 9.082 4.66 4.66 0 0 0-.681 2.406v9.037c.229.068.45.15.681.213a4.667 4.667 0 0 0-.681 2.408v10.146a4.715 4.715 0 0 0 4.715 4.713h49.205a4.715 4.715 0 0 0 4.715-4.713v-10.146c0-1.152-.431-2.193-1.117-3.014.379-.133.744-.291 1.117-.438V98.93c0-1.152-.431-2.193-1.117-3.014 11.557-4.018 19.855-14.996 19.855-27.918V42.711c0-16.32-13.234-29.555-29.555-29.555z" fill="#d60909"/><path d="M73.406 97.25h-2.819a1.5 1.5 0 1 1 0-3h2.819a1.5 1.5 0 1 1 0 3zM63.474 97.25h-2.82a1.5 1.5 0 1 1 0-3h2.82a1.5 1.5 0 1 1 0 3zM53.541 97.25h-2.819a1.5 1.5 0 1 1 0-3h2.819a1.5 1.5 0 1 1 0 3z" fill="#33363a"/><path d="M90.754 43.147a2.739 2.739 0 0 0-2.218-1.869l-10.7-1.557-4.786-9.699a2.746 2.746 0 0 0-4.926 0l-4.786 9.699-10.701 1.557a2.747 2.747 0 0 0-1.522 4.685l7.744 7.545-1.83 10.658a2.747 2.747 0 0 0 3.988 2.894l9.57-5.029 9.57 5.029a2.751 2.751 0 0 0 2.893-.205 2.747 2.747 0 0 0 1.092-2.689l-1.828-10.658 7.744-7.545a2.75 2.75 0 0 0 .696-2.816z" fill="#ffd00b"/><path d="M82.314 53.508l6.254-6.096c-.012 0-.021-.004-.032-.006l-10.7-1.557-4.786-9.697c-.462-.938-1.417-1.529-2.463-1.529s-2.002.592-2.463 1.529l-4.786 9.697-10.701 1.557c-.01.002-.021.006-.031.006l6.254 6.096-.9 5.25.9.879-1.17 6.816c.13.146.271.283.434.402a2.75 2.75 0 0 0 2.894.205l9.57-5.029 9.57 5.029a2.751 2.751 0 0 0 2.893-.205c.162-.119.303-.256.434-.402l-1.17-6.816.9-.879-.901-5.25z" fill="#ffbe08"/><path d="M59.736 68.883a4.248 4.248 0 0 1-2.489-.81 4.227 4.227 0 0 1-1.696-4.162l1.696-9.88-7.179-6.994a4.22 4.22 0 0 1-1.075-4.354 4.212 4.212 0 0 1 3.431-2.891l9.918-1.443 4.437-8.992a4.272 4.272 0 0 1 3.808-2.365c1.628 0 3.087.906 3.808 2.365l4.437 8.992 9.92 1.443a4.213 4.213 0 0 1 3.429 2.891 4.226 4.226 0 0 1-1.075 4.354l-7.18 6.994 1.695 9.881a4.223 4.223 0 0 1-1.687 4.155c-1.288.934-3.076 1.06-4.479.319l-8.869-4.661-8.873 4.663a4.205 4.205 0 0 1-1.977.495zm10.851-38.891c-.472 0-.91.271-1.117.692l-4.787 9.7a1.502 1.502 0 0 1-1.129.82l-10.701 1.557a1.235 1.235 0 0 0-1.006.848c-.147.456-.027.945.315 1.279l7.745 7.545a1.5 1.5 0 0 1 .432 1.328l-1.83 10.658c-.082.472.109.94.498 1.223.386.278.89.315 1.308.093l9.575-5.032a1.504 1.504 0 0 1 1.396 0l9.57 5.029c.421.223.94.18 1.315-.092a1.24 1.24 0 0 0 .494-1.22l-1.829-10.659a1.5 1.5 0 0 1 .432-1.328l7.744-7.545a1.24 1.24 0 0 0 .315-1.279 1.237 1.237 0 0 0-1.004-.848L77.62 41.205a1.499 1.499 0 0 1-1.129-.82l-4.786-9.699a1.256 1.256 0 0 0-1.118-.694z" fill="#33363a"/><path d="M88.579 0H49.172C32.047 0 18.115 13.931 18.115 31.053v14.318l-5.93 5.93a16.527 16.527 0 0 0-4.873 11.764c0 4.444 1.73 8.621 4.873 11.762L25.558 88.2c.086.087.177.168.269.248l.056.049a31.024 31.024 0 0 0 13.556 8.988 6.028 6.028 0 0 0-.177 1.444v21.805a6.22 6.22 0 0 0 6.215 6.213h49.205a6.22 6.22 0 0 0 6.215-6.213V98.93c0-.778-.145-1.533-.427-2.243 11.535-4.781 19.165-16.089 19.165-28.688V31.053C119.635 13.931 105.703 0 88.579 0zm6.102 123.947H45.476a3.218 3.218 0 0 1-3.215-3.213v-4.318h55.635v4.318a3.217 3.217 0 0 1-3.215 3.213zm21.954-55.949c0 11.715-7.311 22.18-18.248 26.265-.044-.004-.087-.013-.133-.013h-16.25a1.5 1.5 0 1 0 0 3H97.4c.264.415.497.98.497 1.68v14.486H42.261V98.93c0-.568.157-1.118.467-1.635a1.502 1.502 0 0 0-.893-2.219c-5.331-1.451-10.088-4.434-13.756-8.623a1.563 1.563 0 0 0-.098-.102c-.061-.059-.125-.114-.188-.169a1.583 1.583 0 0 1-.11-.099L14.306 72.705a13.543 13.543 0 0 1-3.994-9.641c0-3.644 1.418-7.067 3.994-9.643l3.809-3.809v8.879c0 .034.008.066.01.099l-.598.598a1.5 1.5 0 1 0 2.122 2.121l3.75-3.75a1.5 1.5 0 1 0-2.121-2.121l-.162.162V31.052C21.115 15.584 33.701 3 49.172 3h39.407c15.47 0 28.056 12.584 28.056 28.053v36.945z" fill="#33363a"/></svg>