<svg xmlns="http://www.w3.org/2000/svg" width="512" height="512"><path fill="#ff9441" d="M208.815 281.97l21.213 21.213-64.625 64.626-21.213-21.213z"/><path fill="#ffb739" d="M176.008 378.419l-53.033-10.607 53.033-31.819 21.213 21.213z"/><path fill="#ffd17e" d="M133.581 378.419v-42.426l21.213-21.214 21.214 21.214z"/><path fill="#ffb739" d="M71.14 483.287l-10.607-53.033-31.82 53.033L49.927 504.5z"/><path fill="#ffd17e" d="M71.14 440.86H28.713L7.5 462.074l21.213 21.213z"/><path fill="#1e8aff" d="M71.14 483.287l-21.22-21.22 38.288-66.58 66.572-38.295 21.221 21.22z"/><path fill="#54a5ff" d="M133.58 335.986l21.22 21.22L49.933 462.073l-21.22-21.22z"/><circle cx="324.5" cy="187.5" r="180" fill="#ffd17e"/><path d="M430.566 81.434L218.434 293.566c58.485 58.485 153.647 58.485 212.132 0s58.485-153.647 0-212.132z" fill="#bfdcff"/><path d="M409.353 272.353c58.485-58.485 68.001-144.131 21.213-190.919-58.485-58.485-153.647-58.485-212.132 0s-58.485 153.647 0 212.132c46.788 46.788 132.434 37.272 190.919-21.213z" fill="#fff"/><path d="M457.083 54.918C421.669 19.503 374.583 0 324.5 0s-97.168 19.503-132.583 54.917S137 137.417 137 187.5c0 42.504 14.053 82.845 39.952 115.729l-11.551 11.55-5.303-5.303a7.5 7.5 0 0 0-10.606 0L2.197 456.771a7.5 7.5 0 0 0 0 10.606l42.426 42.426c1.464 1.464 3.384 2.197 5.303 2.197s3.839-.732 5.303-2.197l126.076-126.076 21.218-21.218a7.5 7.5 0 0 0 0-10.606l-5.303-5.303 11.551-11.551C241.656 360.947 281.996 375 324.5 375c50.083 0 97.168-19.503 132.583-54.917S512 237.583 512 187.5s-19.503-97.168-54.917-132.582zM71.14 472.68l-31.82-31.82 94.261-94.261 31.82 31.82L71.14 472.68zm-21.214 21.214l-31.82-31.82 10.607-10.607 31.82 31.82-10.607 10.607zm126.082-126.082l-31.82-31.82 10.607-10.607 31.82 31.82-10.607 10.607zm10.606-31.819l-10.607-10.607 10.72-10.72a192.989 192.989 0 0 0 5.19 5.416 190.256 190.256 0 0 0 5.417 5.19l-10.72 10.721zm259.862-26.517C413.895 342.057 370.577 360 324.5 360c-41.276 0-80.332-14.409-111.446-40.831l-.078-.066a175.86 175.86 0 0 1-10.452-9.627 175.965 175.965 0 0 1-9.63-10.455l-.058-.069C166.411 267.838 152 228.779 152 187.5c0-46.077 17.943-89.395 50.524-121.976S278.423 15 324.5 15s89.395 17.943 121.976 50.524S497 141.423 497 187.5s-17.943 89.395-50.524 121.976z"/><circle cx="324.501" cy="187.501" r="7.5"/><circle cx="354.501" cy="187.501" r="7.5"/><circle cx="294.501" cy="187.501" r="7.5"/><path d="M435.869 76.131C408.11 48.372 371.186 32.076 331.9 30.244c-39.013-1.817-77.046 10.721-107.082 35.309a7.502 7.502 0 0 0 9.502 11.608c56.854-46.541 138.942-42.423 190.942 9.577 26.87 26.87 41.667 62.654 41.667 100.763s-14.797 73.893-41.667 100.763S362.609 329.93 324.5 329.93s-73.893-14.797-100.763-41.667c-52.001-52.001-56.119-134.088-9.578-190.942a7.5 7.5 0 0 0-11.607-9.502c-24.587 30.036-37.126 68.065-35.308 107.082 1.832 39.286 18.127 76.209 45.887 103.969 29.702 29.703 69.254 46.061 111.369 46.061s81.667-16.358 111.369-46.061c29.703-29.702 46.061-69.254 46.061-111.369s-16.358-81.668-46.061-111.37z"/></svg>