<svg xmlns="http://www.w3.org/2000/svg" width="512" height="512"><path fill="#c0c8d2" d="M67.5 202.5v60l15 30 15-30v-60zM347 202.5h-30v60l15 30 15-30z"/><path fill="#dae0e7" d="M67.5 262.5h30v212h-30zM317 262.5h30v212h-30z"/><path fill="#57697d" d="M407 37.5H7.5v195H407l97.5-97.5z"/><path fill="#ff9441" d="M394.574 67.5h-30v135h30l67.5-67.5z"/><path fill="#ffb739" d="M364.574 67.5H37.5v135h327.074l67.5-67.5z"/><path d="M509.803 129.697l-97.5-97.5A7.497 7.497 0 0 0 407 30H7.5A7.5 7.5 0 0 0 0 37.5v195a7.5 7.5 0 0 0 7.5 7.5H60v234.5a7.5 7.5 0 0 0 7.5 7.5h30a7.5 7.5 0 0 0 7.5-7.5V240h204.5v234.5a7.5 7.5 0 0 0 7.5 7.5h30a7.5 7.5 0 0 0 7.5-7.5V240H407c1.989 0 3.897-.79 5.303-2.197l97.5-97.5a7.5 7.5 0 0 0 0-10.606zM90 467H75V240h15v227zm249.5 0h-15V240h15v227zm64.394-242H15V45h388.894l90 90-90 90z"/><path d="M394.574 60H37.5a7.5 7.5 0 0 0-7.5 7.5v135a7.5 7.5 0 0 0 7.5 7.5h30a7.5 7.5 0 0 0 0-15H45V75h346.467l60 60-60 60H97.5a7.5 7.5 0 0 0 0 15h297.074c1.989 0 3.897-.79 5.303-2.197l67.5-67.5a7.5 7.5 0 0 0 0-10.606l-67.5-67.5A7.497 7.497 0 0 0 394.574 60z"/></svg>