<svg xmlns="http://www.w3.org/2000/svg" width="512" height="512"><path d="M317.5 7.5l-60 317c49.706 0 90-40.294 90-90V7.5h-30z" fill="#ff9e90"/><path d="M317.5 234.5V7.5h-150v227c0 49.706 40.294 90 90 90 33.137 0 60-40.294 60-90z" fill="#ffb4b3"/><path d="M301.375 163.592h-87.749c-9.998 10.718-16.125 25.094-16.125 40.908v30c0 33.137 26.863 60 60 60s60-26.863 60-60v-30c-.001-15.814-6.129-30.189-16.126-40.908z" fill="#ffcad6"/><path d="M257.5 144.5c-17.323 0-32.922 7.351-43.875 19.092C226.607 170.855 241.568 175 257.5 175s30.893-4.145 43.875-11.408C290.422 151.851 274.823 144.5 257.5 144.5z" fill="#fff"/><path fill="#ff2b59" d="M356 354.5l-30 80h60v-80z"/><path fill="#ff4e51" d="M129 354.5h227v80H129z"/><path d="M419.638 429.052C417.637 421.048 409.25 414.5 401 414.5h-30l33.75 75h30l-15.112-60.448z" fill="#a6b0bd"/><path d="M371 414.5H114c-8.25 0-16.637 6.548-18.638 14.552L80.25 489.5h324.5l-15.112-60.448C387.637 421.048 379.25 414.5 371 414.5z" fill="#c0c8d2"/><path d="M446 474.5h-30v30h30c8.284 0 15-6.716 15-15s-6.716-15-15-15z" fill="#8c98a7"/><path d="M431 489.5c0-8.284-6.716-15-15-15H69c-8.284 0-15 6.716-15 15s6.716 15 15 15h347c8.284 0 15-6.716 15-15z" fill="#a6b0bd"/><path d="M257.5 332c53.762 0 97.5-43.738 97.5-97.5V7.5c0-4.143-3.357-7.5-7.5-7.5h-180a7.499 7.499 0 0 0-7.5 7.5v227c0 53.762 43.738 97.5 97.5 97.5zM175 15h165v219.5c0 45.49-37.01 82.5-82.5 82.5S175 279.99 175 234.5V15zM444.5 467h-7.644l-9.942-39.768C424.077 415.887 412.694 407 401 407h-7.5v-52.5c0-4.143-3.357-7.5-7.5-7.5H129a7.499 7.499 0 0 0-7.5 7.5V407H114c-11.694 0-23.077 8.887-25.914 20.232L78.144 467H67.5C55.094 467 45 477.094 45 489.5S55.094 512 67.5 512h377c12.406 0 22.5-10.094 22.5-22.5S456.906 467 444.5 467zm-308-105h242v45h-242v-45zm308 135h-377c-4.136 0-7.5-3.364-7.5-7.5s3.364-7.5 7.5-7.5H129c4.143 0 7.5-3.357 7.5-7.5s-3.357-7.5-7.5-7.5H93.606l9.032-36.129c1.16-4.643 6.576-8.871 11.361-8.871h287c4.785 0 10.201 4.229 11.361 8.871L421.394 467H159c-4.143 0-7.5 3.357-7.5 7.5s3.357 7.5 7.5 7.5h285.5c4.136 0 7.5 3.364 7.5 7.5s-3.364 7.5-7.5 7.5z"/><path d="M257.5 302c37.22 0 67.5-30.28 67.5-67.5v-30c0-17.568-6.751-33.585-17.789-45.606a7.427 7.427 0 0 0-.873-.915C294.036 145.069 276.698 137 257.5 137c-19.197 0-36.534 8.069-48.836 20.977a7.412 7.412 0 0 0-.876.919C196.751 170.916 190 186.933 190 204.5v30c0 37.22 30.28 67.5 67.5 67.5zm30.366-140.286c-9.619 3.801-19.943 5.786-30.366 5.786s-20.747-1.985-30.366-5.786c8.58-6.107 19.056-9.714 30.366-9.714s21.786 3.607 30.366 9.714zM205 204.5c0-11.804 3.918-22.709 10.519-31.488 13.047 6.222 27.436 9.488 41.981 9.488s28.934-3.266 41.981-9.488C306.082 181.791 310 192.696 310 204.5v30c0 28.948-23.552 52.5-52.5 52.5S205 263.448 205 234.5v-30zM302.5 77h-90c-4.143 0-7.5-3.357-7.5-7.5s3.357-7.5 7.5-7.5h90c4.143 0 7.5 3.357 7.5 7.5s-3.357 7.5-7.5 7.5zM302.5 47h-90c-4.143 0-7.5-3.357-7.5-7.5s3.357-7.5 7.5-7.5h90c4.143 0 7.5 3.357 7.5 7.5s-3.357 7.5-7.5 7.5z"/></svg>