<svg xmlns="http://www.w3.org/2000/svg" width="512" height="512"><path fill="#53a143" d="M421.67 219.83V414.5l82.83-60z"/><path fill="#60ba4d" d="M421.67 219.83l-17.53 28.5-44.68-72.64L256 128.93l-103.46 46.76-44.68 72.64-17.53-28.5L7.5 354.5l248.5 60 218.5-60z"/><path fill="#bfdcff" d="M256 7.5l56.884 243.904 46.576-75.714z"/><path d="M256 7.5L152.54 175.69l46.58 75.72L256 158.93l56.88 92.48c.004-.006 16.58-75.72 16.58-75.72L256 7.5z" fill="#fff"/><path fill="#54a5ff" d="M504.5 504.5h-30l-105-75 105-75h30z"/><path fill="#89c1ff" d="M474.5 504.5h-30l-188.5-60-188.5 60h-60v-150h152.266l96.234 30 96.234-30H474.5z"/><path fill="#09213d" d="M352.234 354.5h-30L307 429.501 414.5 504.5h30z"/><path fill="#233952" d="M270.999 354.5L256 369.5l-15-15h-81.234L67.5 504.5H226l30-30 30 30h128.5l-92.266-150z"/><path fill="#fff" d="M271 354.502h-30l-6 59.999h42zM280 444.501h-48l-6 59.999h60z"/><path d="M511.935 353.563c-.01-.078-.023-.154-.035-.232a7.464 7.464 0 0 0-.158-.754c-.015-.057-.027-.115-.044-.171a7.421 7.421 0 0 0-.321-.894c-.013-.03-.029-.058-.042-.087a7.417 7.417 0 0 0-.39-.745c-.021-.035-.035-.072-.056-.107l-82.833-134.667a7.5 7.5 0 0 0-12.778-.001l-11.141 18.112L262.389 3.571a7.5 7.5 0 0 0-12.777 0l-43.869 71.32a7.5 7.5 0 1 0 12.776 7.858L256 21.815l94.65 153.877-37.766 61.399-50.495-82.092a7.5 7.5 0 0 0-12.777 0l-50.495 82.092-37.767-61.399 41.451-67.388a7.5 7.5 0 0 0-12.776-7.86l-82.162 133.574-11.141-18.112a7.5 7.5 0 0 0-12.776 0L1.112 350.573c-.02.033-.034.07-.054.103a7.332 7.332 0 0 0-.393.751l-.041.085a7.421 7.421 0 0 0-.321.894c-.017.057-.029.114-.044.171a7.523 7.523 0 0 0-.158.754c-.012.078-.026.155-.035.232a7.27 7.27 0 0 0-.066.939V504.5a7.5 7.5 0 0 0 7.5 7.5h497a7.5 7.5 0 0 0 7.5-7.5V354.502c0-.319-.026-.631-.065-.939zM90.333 234.15l11.141 18.112a7.5 7.5 0 0 0 12.776 0l38.294-62.255 40.184 65.329a7.499 7.499 0 0 0 12.776 0L256 173.243l50.495 82.092a7.5 7.5 0 0 0 12.778 0l40.183-65.327 38.293 62.255a7.5 7.5 0 0 0 12.778 0l11.141-18.112 69.415 112.852H20.919L90.333 234.15zM292.787 497l-5.325-53.245a7.5 7.5 0 0 0-7.463-6.754h-48a7.5 7.5 0 0 0-7.463 6.754L219.213 497H80.919l83.038-134.998h68.755l-5.175 51.753a7.5 7.5 0 0 0 7.463 8.246h42a7.5 7.5 0 0 0 7.463-8.246l-5.175-51.753h68.756L431.081 497H292.787zm-15.074 0h-43.425l4.5-44.999h34.425l4.5 44.999zm-13.5-134.998l4.5 44.999h-25.425l4.5-44.999h16.425zm-249.213 0h131.346L63.308 497H15V362.002zM448.692 497l-83.038-134.998H497V497h-48.308z"/></svg>