<svg xmlns="http://www.w3.org/2000/svg" width="512" height="512"><path d="M414.5 376l-181-60h-166v90h317c16.57 0 30-13.43 30-30z" fill="#ff9e90"/><path d="M384.5 346l90-30c0-16.57-13.43-30-30-30l60-30c0-16.57-13.43-30-30-30h-30l30-30c0-16.57-13.43-30-30-30h-105v-30h-272v240h347c0-16.57-13.43-30-30-30z" fill="#ffb4b3"/><path d="M234.5 166h105c16.57 0 30-13.43 30-30s-13.43-30-30-30h-272v180h47c66.33 0 120-53.67 120-120z" fill="#ffcad6"/><path fill="#54a5ff" d="M52.5 421h-45v-30l75-30z"/><path fill="#89c1ff" d="M52.5 91h-45v300h45l15-150z"/><path fill="#bfdcff" d="M82.5 406h-30v-60l30 30z"/><path fill="#fff" d="M52.5 106h30v270h-30z"/><path d="M384.5 346h-105v-30h195c0 16.57-13.43 30-30 30h-60zM444.5 286h-165v-30h225c0 16.57-13.43 30-30 30h-30zM444.5 226h-165v-30h195c0 16.57-13.43 30-30 30z" fill="#ff9e90"/><path d="M512 256c0-20.678-16.822-37.5-37.5-37.5A37.416 37.416 0 0 0 482 196c0-20.678-16.822-37.5-37.5-37.5h-75.02A37.302 37.302 0 0 0 377 136c0-20.678-16.822-37.5-37.5-37.5H60V91a7.5 7.5 0 0 0-7.5-7.5h-45A7.5 7.5 0 0 0 0 91v330a7.5 7.5 0 0 0 7.5 7.5h45A7.5 7.5 0 0 0 60 421v-7.5h324.5c20.678 0 37.5-16.822 37.5-37.5a37.302 37.302 0 0 0-7.52-22.5h30.02c20.678 0 37.5-16.822 37.5-37.5a37.302 37.302 0 0 0-7.52-22.5c20.698 0 37.52-16.822 37.52-37.5zM45 413.5H15v-315h30v315zm15-300h15v285H60v-285zM467 316c0 12.407-10.093 22.5-22.5 22.5h-165a7.5 7.5 0 0 0-7.5 7.5v30a7.5 7.5 0 0 0 15 0v-22.5h97.5c12.407 0 22.5 10.093 22.5 22.5s-10.093 22.5-22.5 22.5H90v-285h249.5c12.407 0 22.5 10.093 22.5 22.5s-10.093 22.5-22.5 22.5h-105a7.5 7.5 0 0 0-7.5 7.5c0 62.033-50.467 112.5-112.5 112.5a7.5 7.5 0 0 0 0 15c67.785 0 123.385-53.175 127.282-120H272V196a7.5 7.5 0 0 0 15 0v-22.5h157.5c12.407 0 22.5 10.093 22.5 22.5s-10.093 22.5-22.5 22.5h-165a7.5 7.5 0 0 0-7.5 7.5v30a7.5 7.5 0 0 0 15 0v-22.5h187.5c12.407 0 22.5 10.093 22.5 22.5s-10.093 22.5-22.5 22.5h-195a7.5 7.5 0 0 0-7.5 7.5v30a7.5 7.5 0 0 0 15 0v-22.5h157.5c12.407 0 22.5 10.093 22.5 22.5z"/></svg>