<svg xmlns="http://www.w3.org/2000/svg" width="512" height="512"><path d="M256 459.5v-407l72.5 30c16.5 0 30 13.5 30 30v42.476l30.924 42.452C409.277 224.669 421 258.213 421 294.5c0 91.127-73.873 165-165 165z" fill="#ffd17e"/><path d="M328.5 112.5v42.476l30.924 42.452C379.277 224.669 391 258.213 391 294.5c0 91.127-60.442 165-135 165-91.127 0-165-73.873-165-165 0-36.287 11.723-69.831 31.576-97.072l30.924-42.452V112.5c0-16.5 13.5-30 30-30l72.5-30 42.5 30c16.5 0 30 13.5 30 30z" fill="#ffeac3"/><path d="M286 142.509c0 16.569-13.431 30-30 30l-30-120h60v90z" fill="#ffb739"/><path d="M226 142.509v-90h30v120c-16.569 0-30-13.431-30-30z" fill="#ffd17e"/><path fill="#8b9ea4" d="M283.502 7.5h59.997v75h-59.997z"/><path fill="#a3bbc0" d="M168.5 82.5v-75h145v75H256zM343.5 82.5h-30v-30h30c8.284 0 15 6.716 15 15s-6.716 15-15 15z"/><path d="M313.5 82.5h-145c-8.284 0-15-6.716-15-15s6.716-15 15-15h145c8.284 0 15 6.716 15 15s-6.716 15-15 15z" fill="#bddbe0"/><path d="M256 512a7.5 7.5 0 0 1-7.5-7.5v-15a7.5 7.5 0 0 1 15 0v15a7.5 7.5 0 0 1-7.5 7.5zM175.634 496.017a7.5 7.5 0 0 1-6.926-10.372l5.74-13.858a7.5 7.5 0 1 1 13.858 5.74l-5.74 13.858a7.503 7.503 0 0 1-6.932 4.632zM107.508 450.492a7.474 7.474 0 0 1-5.303-2.197 7.5 7.5 0 0 1 0-10.606l10.606-10.606a7.5 7.5 0 0 1 10.606 0 7.5 7.5 0 0 1 0 10.606l-10.606 10.606a7.474 7.474 0 0 1-5.303 2.197zM61.988 382.365a7.503 7.503 0 0 1-2.873-14.431l13.858-5.74a7.5 7.5 0 0 1 5.74 13.858l-13.858 5.74a7.468 7.468 0 0 1-2.867.573zM61 302H46a7.5 7.5 0 0 1 0-15h15a7.5 7.5 0 0 1 0 15zM336.366 496.017a7.504 7.504 0 0 1-6.932-4.632l-5.74-13.858a7.498 7.498 0 0 1 4.059-9.799 7.499 7.499 0 0 1 9.799 4.059l5.74 13.858a7.498 7.498 0 0 1-4.059 9.799 7.472 7.472 0 0 1-2.867.573zM404.492 450.492a7.478 7.478 0 0 1-5.304-2.197l-10.606-10.606a7.5 7.5 0 0 1 10.607-10.606l10.606 10.606a7.5 7.5 0 0 1 0 10.606 7.474 7.474 0 0 1-5.303 2.197zM450.012 382.365a7.468 7.468 0 0 1-2.867-.573l-13.858-5.74a7.5 7.5 0 0 1-4.059-9.799 7.502 7.502 0 0 1 9.799-4.059l13.858 5.74a7.5 7.5 0 0 1 4.059 9.799 7.502 7.502 0 0 1-6.932 4.632zM466 302h-15c-4.143 0-7.5-3.358-7.5-7.5s3.357-7.5 7.5-7.5h15c4.143 0 7.5 3.358 7.5 7.5s-3.357 7.5-7.5 7.5z"/><path d="M395.486 193.012L366 152.534V112.5c0-10.08-4.005-19.237-10.498-25.982C361.804 82.526 366 75.496 366 67.5c0-9.777-6.271-18.114-15-21.21V7.5a7.5 7.5 0 0 0-7.5-7.5h-175a7.5 7.5 0 0 0-7.5 7.5v38.79c-8.729 3.096-15 11.432-15 21.21 0 7.996 4.196 15.026 10.498 19.018C150.005 93.263 146 102.42 146 112.5v40.034l-29.485 40.477C94.917 222.646 83.5 257.741 83.5 294.5 83.5 389.617 160.883 467 256 467s172.5-77.383 172.5-172.5c0-36.759-11.416-71.853-33.014-101.488zM168.5 60a7.5 7.5 0 0 0 7.5-7.5V15h160v30H198.5a7.5 7.5 0 0 0 0 15h145c4.136 0 7.5 3.364 7.5 7.5s-3.364 7.5-7.5 7.5h-175c-4.136 0-7.5-3.364-7.5-7.5s3.364-7.5 7.5-7.5zm58.348 106.062c6.88 8.5 17.39 13.947 29.152 13.947s22.271-5.447 29.151-13.947l33.188 112.096-8.484-5.09a7.502 7.502 0 0 0-7.717 0l-21.145 12.685-21.141-12.685a7.497 7.497 0 0 0-7.717 0l-21.14 12.685-21.14-12.685a7.501 7.501 0 0 0-7.718 0l-8.479 5.087 33.19-112.093zm7.942-16.053h42.42c-3.096 8.729-11.433 15-21.21 15-9.778 0-18.114-6.27-21.21-15zm43.71-15h-45V90h45v45.009zM256 452c-86.846 0-157.5-70.654-157.5-157.5 0-33.563 10.421-65.602 30.138-92.656l30.924-42.452a7.497 7.497 0 0 0 1.438-4.416V112.5c0-12.407 10.093-22.5 22.5-22.5h35v51.422L173.809 292.37a7.5 7.5 0 0 0 11.051 8.561l21.139-12.685 21.14 12.685a7.501 7.501 0 0 0 7.718 0l21.14-12.685 21.141 12.685a7.502 7.502 0 0 0 7.717 0L306 288.246l21.145 12.685a7.491 7.491 0 0 0 3.857 1.069c4.163 0 7.521-3.358 7.521-7.5 0-.938-.172-1.836-.486-2.665L293.5 141.422V90h35c12.406 0 22.5 10.093 22.5 22.5v42.476c0 1.587.503 3.133 1.438 4.416l30.925 42.454c19.717 27.053 30.138 59.092 30.138 92.654C413.5 381.346 342.846 452 256 452z"/></svg>