<svg height="672" viewBox="-83 0 503 504" width="672" xmlns="http://www.w3.org/2000/svg"><path d="M264.766 448h64l-6.817-211.09c-.695-21.758-15.96-40.316-37.176-45.215L216.766 176h-96l-68.008 15.695c-21.219 4.899-36.488 23.465-37.18 45.215L8.766 448zm0 0" fill="#cf9e76"/><path d="M284.773 191.695L216.766 176h-96l-68.008 15.695c-7.211 1.664-13.649 5.008-19.153 9.418a172.528 172.528 0 0 1 29.047 51.262c.078.2.13.418.192.617 1.558 4.422 2.976 8.887 4.168 13.422.242.899.383 1.832.61 2.746.948 3.856 1.862 7.735 2.55 11.656.36 2.047.527 4.137.816 6.192.39 2.832.856 5.656 1.114 8.52.445 4.96.664 9.952.664 14.96V496h192V310.488c0-5.008.214-10 .656-14.953.246-2.863.719-5.687 1.11-8.52.28-2.062.456-4.152.816-6.19.687-3.923 1.601-7.802 2.55-11.657.227-.91.372-1.84.61-2.742 1.191-4.531 2.61-9 4.168-13.426.07-.2.12-.414.191-.617a172.431 172.431 0 0 1 29.047-51.262c-5.492-4.418-11.934-7.762-19.14-9.426zm0 0" fill="#dfb28b"/><path d="M152.766 496V168a109.244 109.244 0 0 1-32-77.258V88c0-26.504 21.488-48 48-48 26.504 0 48 21.496 48 48v2.742c0 28.977-11.512 56.77-32 77.258v328zm0 0" fill="#b27946"/><path d="M168.766 8c-44.188 0-80 35.816-80 80a135.193 135.193 0 0 0 39.59 95.594L152.765 208v-40a109.244 109.244 0 0 1-32-77.258V88c0-26.504 21.488-48 48-48 26.504 0 48 21.496 48 48v2.742c0 28.977-11.512 56.77-32 77.258v40l24.406-24.406A135.197 135.197 0 0 0 248.766 88c0-44.184-35.825-80-80-80zm0 0" fill="#cf9e76"/><path d="M152.766 208h32v288h-32zm0 0" fill="#b27946"/><path d="M112.766 288h16v16h-16zm0 0"/><path d="M337.027 456l-7.07-219.336c-.824-25.36-18.664-47.055-43.379-52.762l-56.375-13.007c17.168-24.07 26.563-52.735 26.563-82.895 0-48.52-39.48-88-88-88-48.524 0-88 39.48-88 88 0 30.16 9.39 58.824 26.566 82.887l-56.367 13.008c-24.723 5.707-42.563 27.402-43.387 52.761L.5 456h64.266v48h208v-48zm-23.07-218.824L320.5 440h-47.734V310.488c0-35.09 11.406-69.265 32.093-97.425a39.893 39.893 0 0 1 9.098 24.113zM168.766 16c39.695 0 72 32.305 72 72 0 33.977-13.235 65.922-37.258 89.945l-10.742 10.743v-17.442c20.664-21.848 32-50.3 32-80.492V88c0-30.879-25.121-56-56-56-30.883 0-56 25.121-56 56v2.742c0 30.195 11.336 58.656 32 80.496v17.442l-10.746-10.743C109.996 153.923 96.766 121.977 96.766 88c0-39.695 32.3-72 72-72zm-10.344 146.344c-19.129-19.13-29.656-44.551-29.656-71.602V88c0-22.055 17.941-40 40-40 22.054 0 40 17.945 40 40v2.742c0 27.051-10.532 52.473-29.657 71.602l-2.343 2.344V488h-16V164.687zM17.027 440l6.543-202.824a39.94 39.94 0 0 1 9.098-24.113c20.687 28.152 32.098 62.328 32.098 97.425V440zm28.137-236.902c2.945-1.54 6.04-2.832 9.39-3.602l58.212-13.441V272h16v-76.688l16 16V488h-64V310.488c0-38.71-12.657-76.398-35.602-107.39zM256.766 488h-64V211.312l16-16V272h16v-85.945l58.207 13.433c3.343.77 6.437 2.07 9.39 3.602-22.941 31-35.597 68.687-35.597 107.398zm0 0"/><path d="M208.766 288h16v16h-16zm0 0"/></svg>