<svg height="496pt" viewBox="-120 0 496 496" width="496pt" xmlns="http://www.w3.org/2000/svg"><path d="M16 336h224v32a202.565 202.565 0 0 0-95.664 118.887L144 488h-32l-.336-1.113A202.623 202.623 0 0 0 16 368zm0 0M234.496 104H232l-40.777 8.152A104.683 104.683 0 0 0 128 152a104.683 104.683 0 0 0-63.223-39.848L24 104l-2.383-.191C12.801 117.55 8 133.586 8 150.055a85.7 85.7 0 0 0 14.39 47.53l4.297 6.446A79.28 79.28 0 0 1 40 248h176a79.28 79.28 0 0 1 13.313-43.969l4.296-6.445A85.718 85.718 0 0 0 248 150.055c0-16.39-4.754-32.344-13.504-46.055zm0 0" fill="#ffeaa7"/><path d="M64.777 112.152A104.683 104.683 0 0 1 128 152a104.683 104.683 0 0 1 63.223-39.848L232 104l-16-24-30.32 3.793A98.865 98.865 0 0 0 128 112a98.865 98.865 0 0 0-57.68-28.207L40 80l-16 24zm0 0M16 336l41.688 12.504A225.126 225.126 0 0 1 128 384a225.042 225.042 0 0 1 70.313-35.496L240 336zm0 0" fill="#ff826e"/><path d="M8 372.71l4.121 2.282c44.59 24.785 77.223 65.336 91.887 114.215l2.055 6.793h43.874l2.063-6.816c14.656-48.856 47.29-89.414 91.879-114.192l4.121-2.281V328H8zM138.113 480h-20.218c-16-49.328-49.118-90.465-93.887-116.648v-16.598l31.39 9.414a216.222 216.222 0 0 1 67.817 34.223l4.8 3.601 4.801-3.601a216.139 216.139 0 0 1 67.817-34.223L232 346.754v16.598C187.215 389.535 154.105 430.68 138.113 480zM69.137 344h117.718c-20.968 7.246-40.757 17.215-58.863 30.098-18.097-12.883-37.887-22.852-58.855-30.098zm0 0M20.031 208.473A71.057 71.057 0 0 1 32 248v8h192v-8a71.057 71.057 0 0 1 11.969-39.527l4.297-6.45C250.559 186.586 256 168.617 256 150.055c0-21.184-7.29-41.977-20.52-58.52L224 77.191V0h-16v72.938l-23.313 2.91C163.77 78.465 143.91 87.352 128 101.078c-15.91-13.734-35.777-22.613-56.688-25.23L48 72.938V0H32v77.191L20.52 91.527C7.29 108.09 0 128.871 0 150.055c0 18.554 5.441 36.52 15.734 51.968zm102.313-90.817l5.656 5.656 5.656-5.656c14.223-14.222 33.055-23.433 53.016-25.93l25.879-3.23 7.754 9.688-30.649 6.129c-23.914 4.785-45.48 17.12-61.656 35.101-16.176-17.98-37.742-30.316-61.656-35.101l-30.649-6.13 7.754-9.687 25.88 3.23c19.96 2.497 38.792 11.708 53.015 25.93zm-96.649-5.16L63.2 120a96.548 96.548 0 0 1 58.403 36.8l6.398 8.528 6.398-8.527A96.548 96.548 0 0 1 192.801 120l37.504-7.504c6.304 11.45 9.695 24.406 9.695 37.559 0 15.386-4.504 30.289-13.047 43.09l-4.297 6.449c-8.105 12.148-12.976 25.98-14.289 40.406H47.633c-1.313-14.426-6.184-28.258-14.29-40.406l-4.296-6.45C20.504 180.345 16 165.45 16 150.055c0-13.152 3.39-26.109 9.695-37.558zm0 0"/></svg>