<svg height="496pt" viewBox="-5 0 496 496.944" width="496pt" xmlns="http://www.w3.org/2000/svg"><path d="M371.047 224.945l104-40-54.688-129.882a47.998 47.998 0 0 0-32.59-27.934L299.048 8.945l-56 88-56-88L98.328 27.13a47.996 47.996 0 0 0-32.594 27.933L11.047 184.946l104 40zm0 0" fill="#fcd770"/><path d="M243.047 96.945l-56-88L98.328 27.13l-15.281 5.816 4.129 14.446a724.582 724.582 0 0 1 27.87 199.015 1081.28 1081.28 0 0 1-24 226.54c34 0 50 16 83.993 16 33.984 0 33.984-16 67.969-16h.082c33.98 0 33.98 16 67.965 16 33.992 0 49.992-16 83.992-16a1081.65 1081.65 0 0 1-24-226.54 724.586 724.586 0 0 1 27.875-199.015l4.125-14.446-15.277-5.816-88.723-18.184zm0 0" fill="#e6e9ed"/><path d="M275.047 304.945h11.96c28.747 0 52.04-23.297 52.04-52.043v-11.957H327.09c-28.746 0-52.043 23.293-52.043 52.04zm0 0" fill="#b4dd7f"/><path d="M163.047 13.863l16 115.082 64-32-56-88zm0 0M323.047 13.863l-16 115.082-64-32 56-88zm0 0" fill="#fcd770"/><g fill="#ff826e"><path d="M202.246 328.176c-2.254-7.13-8.726-11.559-15.652-11.535-2.121-6.77-8.242-11.696-15.547-11.696s-13.422 4.926-15.543 11.696c-6.93-.024-13.399 4.414-15.656 11.535-2.254 7.12.433 14.601 6.047 18.77-2.16 6.75-.04 14.421 5.875 18.824 5.902 4.406 13.687 4.101 19.277-.098 5.594 4.191 13.379 4.496 19.281.098 5.91-4.403 8.031-12.075 5.871-18.825 5.625-4.168 8.313-11.648 6.047-18.77zm0 0M346.246 416.176c-2.254-7.13-8.726-11.559-15.652-11.535-2.121-6.77-8.242-11.696-15.547-11.696s-13.422 4.926-15.543 11.696c-6.93-.024-13.399 4.414-15.656 11.535-2.254 7.12.433 14.601 6.047 18.77-2.16 6.75-.04 14.421 5.875 18.824 5.902 4.406 13.687 4.101 19.277-.098 5.594 4.191 13.379 4.496 19.281.098 5.91-4.403 8.031-12.075 5.871-18.825 5.625-4.168 8.313-11.648 6.047-18.77zm0 0M371.047 80.945c-7.305 0-13.422 4.926-15.543 11.696-6.93-.024-13.399 4.414-15.656 11.535-2.254 7.12.433 14.601 6.047 18.77-2.16 6.75-.04 14.421 5.875 18.824 5.902 4.406 13.687 4.101 19.277-.098 2.152 1.617 4.656 2.457 7.219 2.871a729.179 729.179 0 0 1 8.812-49.598l-.476-2.304c-2.13-6.77-8.25-11.696-15.555-11.696zm0 0M122.594 84.64c-2.121-6.769-8.242-11.695-15.547-11.695-4.672 0-8.848 2.016-11.817 5.23l.258 1.458A715.569 715.569 0 0 1 106.2 134.23c.29-.183.578-.359.848-.558 5.594 4.191 13.379 4.496 19.281.098 5.91-4.403 8.031-12.075 5.871-18.825 5.617-4.168 8.305-11.648 6.047-18.77-2.254-7.12-8.719-11.558-15.652-11.534zm0 0"/></g><path d="M211.047 256.945H199.09c-28.746 0-52.043-23.297-52.043-52.043v-11.957h11.96c28.747 0 52.04 23.293 52.04 52.04zm0 0M211.047 400.945H199.09c-28.746 0-52.043 23.293-52.043 52.04v11.96h11.96c28.747 0 52.04-23.297 52.04-52.043zm0 0" fill="#b4dd7f"/><path d="M379.047 246.406c0-5.36.16-10.719.281-16.07l106.297-40.887-57.898-137.488c-6.805-16.168-21.016-28.344-38.36-32.672L295.257 0l-52.21 82.04L190.84 0 96.39 19.367c-17.007 4.25-31.222 16.434-38.03 32.594l-22.954 54.512-.199.039.059.297L.473 189.44l106.297 40.887c.117 5.36.277 10.711.277 16.078 0 75.45-8.016 151.106-23.824 224.86l-2.07 9.68h9.894c15.754 0 27.312 3.702 39.562 7.613 12.871 4.129 26.184 8.386 44.43 8.386 18.785 0 28.664-4.656 37.395-8.761 8.246-3.887 15.375-7.239 30.644-7.239 15.211 0 22.336 3.352 30.586 7.239 8.719 4.105 18.61 8.761 37.39 8.761 18.25 0 31.563-4.257 44.434-8.386 12.246-3.91 23.809-7.614 39.559-7.614h9.898l-2.074-9.68a1075.038 1075.038 0 0 1-23.824-224.859zm-7.992-114.734l-4.809 3.601c-2.926 2.184-6.82 2.215-9.703.079-3.008-2.239-4.223-6.239-3.031-9.961l1.754-5.461-4.61-3.418c-3.062-2.266-4.344-6.254-3.183-9.918 1.136-3.563 4.336-5.953 7.976-5.953h.024l5.894.023 1.77-5.625c1.144-3.648 4.32-6.094 7.91-6.094 3.539 0 6.656 2.39 7.848 5.95-2.63 12.449-4.833 24.984-6.817 37.546zm70.425-5.824c-13.953 9.992-24.593 24.265-30.023 40.566l15.176 5.066c3.976-11.937 11.543-22.382 21.312-30.265l16.52 39.234-84.535 32.512c2.582-55.274 11.46-110.09 26.687-163.375l.352-1.242c2.437 2.953 4.511 6.222 6.023 9.816zM302.84 17.887l11.648 2.386-13.793 96.551-46.136-23.07zm-119.582 0l48.277 75.867-46.137 23.07-13.789-96.55zm-58.672 99.504c1.191 3.722-.027 7.722-3.035 9.96-2.414 1.801-5.535 1.977-8.223.704a733.05 733.05 0 0 0-9.152-46.383c4.144-1.442 9.328.703 10.793 5.367l1.765 5.625 5.899-.023h.023c3.64 0 6.84 2.39 7.977 5.96 1.16 3.657-.121 7.645-3.184 9.91l-4.61 3.419zM21.625 180.449l20.207-48c5.8 14.246 15.695 26.438 28.777 35.16l8.871-13.312c-13.695-9.137-23.015-23.05-26.25-39.192l-1.32-6.601 21.195-50.336c1.512-3.594 3.59-6.871 6.024-9.824l.36 1.25c15.222 53.285 24.105 108.101 26.687 163.375zm183.992 293.262c-8.25 3.883-15.379 7.234-30.578 7.234-12.27 0-22-2.265-31.496-5.113 1.504-.922 2.969-1.922 4.441-2.887H159c33.113 0 60.047-26.93 60.047-60.043v-19.957H199.09c-33.106 0-60.043 26.926-60.043 60.04v6.695a135.056 135.056 0 0 1-17.11 9.593c-6.464-1.753-13.312-3.226-21.128-3.906 14.757-71.926 22.238-145.55 22.238-218.96 0-19.512-.871-38.973-2.422-58.384 6.406 2.915 12.582 6.266 18.422 10.114v6.773c0 33.106 26.937 60.035 60.043 60.035h19.957v-19.96c0-33.114-26.934-60.04-60.04-60.04H148.13a150.718 150.718 0 0 0-27.258-14.289l-1.832-.726a725.44 725.44 0 0 0-3.062-25.028c.27.008.535.067.8.067 5.024 0 10.047-1.594 14.328-4.793 7.055-5.246 10.672-13.832 9.797-22.45a24.987 24.987 0 0 0 4.97-23.964c-2.68-8.48-9.52-14.64-17.825-16.524-4.305-7.52-12.2-12.293-21-12.293-2.262 0-4.473.438-6.621 1.07-1.77-6.96-3.586-13.902-5.563-20.816l-2.16-7.55c2.32-1.114 4.73-2.055 7.234-2.68l55.965-11.473 16.793 117.567 62.352-31.176V465.28c-13.758 1.102-22.04 4.95-29.43 8.43zm-32.969-45.566a134.626 134.626 0 0 1-17.136 18.816c2.953-21.434 21.343-38.016 43.578-38.016h3.957v3.957c0 20.633-14.285 37.953-33.473 42.707 5.73-5.539 11.074-11.472 15.875-17.867zm0-198.403l12.801-9.59c-4.808-6.41-10.144-12.336-15.855-17.863 19.176 4.75 33.453 22.07 33.453 42.695v3.961h-3.957c-22.219 0-40.594-16.554-43.578-37.96 6.258 5.687 12.023 11.937 17.136 18.757zm177.97 243.586c-12.25 3.91-23.81 7.617-39.563 7.617-15.2 0-22.328-3.351-30.575-7.234-7.375-3.48-15.656-7.313-29.433-8.422V109.887l62.351 31.176 16.793-117.567 55.633 11.39c2.633.657 5.145 1.634 7.559 2.794l-2.153 7.52c-2.94 10.312-5.574 20.695-8.062 31.113-3.61-2.13-7.734-3.368-12.121-3.368-8.8 0-16.695 4.774-21 12.293-8.305 1.883-15.145 8.051-17.824 16.516a24.997 24.997 0 0 0 4.968 23.973c-.87 8.617 2.746 17.195 9.801 22.449 4.281 3.183 9.305 4.793 14.328 4.793 2.711 0 5.399-.586 8-1.512-2.945 22.527-4.906 45.191-5.746 67.926-8.98 3.722-17.566 8.242-25.605 13.57h-10.871c-17.41 0-33.067 7.496-44.043 19.367v-11.375h-16v16h12.136c-7.59 10.047-12.144 22.504-12.144 36.04v19.96h19.96c33.106 0 60.04-26.93 60.04-60.043v-6.773a135.01 135.01 0 0 1 16.16-9.121c-.039 3.137-.16 6.265-.16 9.398 0 73.418 7.48 147.035 22.234 218.961-13.449 1.168-24.21 4.61-34.664 7.961zm-37.169-195.586c5.11-6.812 10.88-13.062 17.125-18.75-2.972 21.399-21.351 37.953-43.566 37.953h-3.961v-3.96c0-20.626 14.281-37.938 33.457-42.696-5.711 5.52-11.047 11.453-15.856 17.863zm0 0"/><path d="M267.047 192.945h16v16h-16zm0 0M267.047 336.945h16v16h-16zm0 0M192.047 309.238c-4.305-7.52-12.2-12.293-21-12.293s-16.695 4.774-21 12.293c-8.305 1.883-15.145 8.051-17.824 16.516a24.997 24.997 0 0 0 4.968 23.973c-.87 8.617 2.746 17.195 9.801 22.449 7.106 5.281 16.23 6.191 24.063 2.71a23.911 23.911 0 0 0 9.738 2.083c5.023 0 10.047-1.594 14.328-4.793 7.055-5.246 10.672-13.832 9.8-22.45a25.006 25.006 0 0 0 4.966-23.972c-2.696-8.465-9.535-14.633-17.84-16.516zm-.606 31.274l-4.609 3.418 1.754 5.46c1.191 3.723-.027 7.723-3.035 9.962-2.871 2.136-6.774 2.12-9.703-.079l-4.801-3.601-4.8 3.601c-2.927 2.192-6.821 2.207-9.704.079-3.008-2.239-4.223-6.239-3.031-9.961l1.754-5.461-4.61-3.418c-3.062-2.266-4.344-6.254-3.183-9.918 1.136-3.563 4.336-5.953 7.976-5.953h.024l5.894.023 1.77-5.625c1.144-3.648 4.32-6.094 7.91-6.094 3.594 0 6.77 2.446 7.914 6.094l1.766 5.625 5.898-.023h.023c3.641 0 6.84 2.39 7.977 5.953v.008c1.16 3.656-.121 7.644-3.184 9.91zm0 0M336.047 397.238c-4.305-7.52-12.2-12.293-21-12.293s-16.695 4.774-21 12.293c-8.305 1.883-15.145 8.051-17.824 16.516a24.997 24.997 0 0 0 4.968 23.973c-.87 8.617 2.747 17.195 9.801 22.449 7.106 5.281 16.223 6.191 24.063 2.71a23.911 23.911 0 0 0 9.738 2.083c5.023 0 10.047-1.594 14.328-4.793 7.055-5.246 10.672-13.832 9.8-22.45a25.006 25.006 0 0 0 4.966-23.972c-2.696-8.465-9.535-14.633-17.84-16.516zm-.606 31.274l-4.609 3.418 1.754 5.46c1.191 3.723-.027 7.723-3.035 9.962-2.871 2.144-6.766 2.113-9.703-.079l-4.801-3.601-4.8 3.601c-2.927 2.184-6.821 2.215-9.704.079-3.008-2.239-4.223-6.239-3.031-9.961l1.754-5.461-4.61-3.418c-3.062-2.266-4.344-6.254-3.183-9.918 1.136-3.563 4.336-5.953 7.976-5.953h.024l5.894.023 1.77-5.625c1.144-3.648 4.32-6.094 7.91-6.094 3.594 0 6.77 2.446 7.914 6.094l1.766 5.625 5.898-.023h.023c3.641 0 6.84 2.39 7.977 5.953v.008c1.16 3.656-.121 7.644-3.184 9.91zm0 0"/></svg>