<svg height="496pt" viewBox="0 -64 496 496" width="496pt" xmlns="http://www.w3.org/2000/svg"><path d="M486.457 281.047L440 72H56L9.543 281.047A65.16 65.16 0 0 0 8 295.129C8 330.953 37.047 360 72.871 360H192l36.602-168.367C230.586 182.503 238.664 176 248 176s17.414 6.504 19.398 15.633L304 360h119.129C458.953 360 488 330.953 488 295.129c0-4.738-.512-9.457-1.543-14.082zm0 0" fill="#fcd770"/><path d="M41.063 178.969L32 184l-15.977 67.879-.023.129v11.12C16 298.954 45.047 328 80.871 328h118.082l29.649-136.367C230.586 182.503 238.664 176 248 176s17.414 6.504 19.398 15.633L297.047 328h118.082C450.953 328 480 298.953 480 263.129v-11.121l-.023-.13L464 184l-9.063-5.031C416.097 157.383 392 116.44 392 72H104c0 44.441-24.098 85.383-62.938 106.969zm0 0" fill="#ff826e"/><path d="M440 72H56V24c0-8.832 7.168-16 16-16h352c8.832 0 16 7.168 16 16zm0 0" fill="#e6e9ed"/><path d="M56 56h384v16H56zm0 0" fill="#ccd1d9"/><path d="M494.266 279.313L448 71.129V24c0-13.23-10.77-24-24-24H72C58.77 0 48 10.77 48 24v47.129L1.734 279.312A73.294 73.294 0 0 0 0 295.13C0 335.305 32.695 368 72.879 368h125.57l37.965-174.664c1.18-5.414 6.05-9.336 11.586-9.336s10.406 3.922 11.586 9.336L297.55 368h125.57C463.305 368 496 335.305 496 295.129c0-5.305-.586-10.633-1.734-15.816zM95.71 80c-2.543 36.238-22.23 69.207-52.992 88.648L62.414 80zM96 64V16h16v48zm32-48h16v48h-16zm32 0h16v48h-16zm32 0h16v48h-16zm32 48V16h16v48zm32-48h16v48h-16zm32 0h16v48h-16zm32 0h16v48h-16zm32 0h16v48h-16zm32 0h16v48h-16zm49.586 64l19.695 88.648C422.52 149.2 402.832 116.238 400.29 80zM432 24v40h-16V16h8c4.406 0 8 3.586 8 8zM64 24c0-4.414 3.594-8 8-8h8v48H64zm8.879 328c-30.977 0-56.2-24.895-56.824-55.727C28.152 319.816 52.64 336 80.879 336H189.03l-3.48 16zM248 168c-13.008 0-24.457 9.223-27.215 21.93L192.504 320H80.879C49.512 320 24 294.488 24 263.129v-10.25l14.016-63.07 6.937-3.848C83.97 164.28 109.016 124.19 111.727 80h111.21l-1.914 15.32c-2.886 23.086-15.214 44.328-33.824 58.282l9.602 12.796c22.054-16.535 36.672-41.726 40.094-69.093L239.062 80h17.883l2.16 17.305c3.422 27.367 18.04 52.55 40.094 69.093l9.602-12.796c-18.61-13.954-30.938-35.196-33.824-58.282L273.063 80h111.21c2.711 44.191 27.766 84.281 66.782 105.96l6.93 3.849L472 252.879v10.25c0 31.36-25.512 56.871-56.879 56.871H303.496l-28.281-130.07C272.457 177.223 261.008 168 248 168zm175.121 184H310.45l-3.48-16H415.12c28.238 0 52.727-16.184 64.824-39.727C479.32 327.105 454.098 352 423.121 352zm0 0"/></svg>