<svg height="496pt" viewBox="-15 0 495 496" width="496pt" xmlns="http://www.w3.org/2000/svg"><path d="M445.195 90.336C442.746 64.688 425.165 43 400.57 35.313L313.164 8h-160L65.758 35.313C41.164 43 23.578 64.686 21.133 90.335L9.164 216l88 16v256h272V232l88-16zm0 0" fill="#fcd770"/><path d="M409.164 40v-1.281a65.015 65.015 0 0 0-8.594-3.407L313.164 8h-32.656l-31.344 48v432h120V164.824c0-44.761 40-124.824 40-124.824zm0 0M217.164 56l-35.2-48h-28.8l-48 15-39.406 12.313c-3.29 1.023-6.426 2.343-9.442 3.84l.848.847s40 80.063 40 124.824V488h120zm0 0" fill="#b4dd7f"/><g fill="#e6e9ed"><path d="M113.164 24l-2.047-2.855-31.008 9.687L81.164 32a199.402 199.402 0 0 1 48 129.762V488h32V168a240.03 240.03 0 0 0-48-144zm0 0M337.164 344V161.762a199.402 199.402 0 0 1 48-129.762l.863-1.223-30.687-9.593L353.164 24a239.98 239.98 0 0 0-48 144v320h32zm0 0M217.164 56h32v432h-32zm0 0"/></g><path d="M313.164 8c0 44.184-35.824 80-80 80-44.184 0-80-35.816-80-80zm0 0" fill="#ffc729"/><path d="M465.828 222.55L453.156 89.575c-2.761-28.933-22.465-53.23-50.199-61.894L315.547.367 153.164 0l-89.8 27.68c-27.735 8.664-47.438 32.96-50.192 61.894L.5 222.551l88.664 16.12V496h288V238.672zM437.234 91.099L448.5 209.449l-71.336 12.965v-57.598c0-41.312 12.23-80.93 35.176-115.105 13.902 9.184 23.258 24.21 24.894 41.387zM233.164 80c-37 0-67.535-28.055-71.527-64H304.69c-3.992 35.945-34.527 64-71.527 64zM17.828 209.45L29.094 91.097c1.636-17.168 10.992-32.203 24.894-41.38 22.946 34.169 35.176 73.794 35.176 115.106v57.602zm50.75-166.641l8.762-2.739c28.222 34.235 43.824 77.243 43.824 121.692V248h16v-86.238c0-46-15.496-90.547-43.527-126.778l14.304-4.472c29.133 39.61 45.223 88.312 45.223 137.488v312h-16V264h-16v216h-16V164.824c0-43.719-12.719-85.656-36.586-122.015zM169.164 480V168c0-50.742-16.129-100.969-45.258-142.48l21.969-6.864c4.305 35.442 29.73 64.39 63.29 73.93V480zm56 0V95.594c2.64.238 5.297.406 8 .406 2.703 0 5.36-.168 8-.406V480zm32-387.406c33.566-9.547 58.984-38.496 63.29-73.93l21.968 6.863c-29.129 41.504-45.258 91.73-45.258 142.473v312h-40zm104 387.406h-16V360h-16v120h-16V168c0-49.176 16.078-97.879 45.223-137.488l14.304 4.472c-28.03 36.223-43.527 80.778-43.527 126.778V344h16V161.762c0-44.45 15.602-87.457 43.824-121.692l8.758 2.739c-23.863 36.359-36.582 78.304-36.582 122.015zm0 0"/></svg>