<svg height="496pt" viewBox="-112 0 496 496" width="496pt" xmlns="http://www.w3.org/2000/svg"><path d="M248 40l-16-8.879H40L24 40a223.782 223.782 0 0 0-16 83.078v1.77c0 7.433.367 14.855 1.113 22.257L40 456v8h64v-8l23.32-272.031c.383-4.504 4.16-7.969 8.68-7.969s8.297 3.465 8.68 7.969L168 456v8h64v-8l30.887-308.895A221.997 221.997 0 0 0 264 124.84v-1.77c0-28.445-5.434-56.644-16-83.07zm0 0" fill="#fcd770"/><path d="M40 456h64v32H40zm0 0M232 488h-64v-32h64zm0 0" fill="#ff826e"/><path d="M9.465 98.047C8.527 106.344 8 114.695 8 123.078v1.77c0 7.433.367 14.855 1.113 22.257L40 456h32L48 152zm0 0M264 124.84v-1.77c0-8.382-.527-16.734-1.465-25.03L224 152l-24 304h32l30.887-308.895A221.997 221.997 0 0 0 264 124.84zm0 0" fill="#e6e9ed"/><g fill="#ff826e"><path d="M55.543 247.543l-40.43-40.43 6.223 62.223 39.008 39.008zm0 0M255.105 208l-38.578 38.566-4.793 60.801 38.036-38.031.992-.895 6.27-62.714zm0 0M24 8h224v32H24zm0 0"/></g><path d="M256 38.566V0H16v38.566C5.398 65.594 0 94.016 0 123.07v1.77c0 7.656.383 15.418 1.152 23.055L32 456.406V496h80v-39.64l23.29-271.704c.062-.734 1.358-.726 1.42-.008L160 456.36V496h80v-39.594l30.848-308.504A231.222 231.222 0 0 0 272 124.84v-1.77c0-29.054-5.398-57.468-16-84.504zm0 84.512v1.77c0 7.129-.36 14.351-1.07 21.465l-5.618 56.167-23.097 23.094 5.586-70.726 24.152-33.809c.008.672.047 1.352.047 2.04zm-36.52 187.86l21.094-21.098L224.762 448h-16.106zm23.61-46.243l-21.676 21.672 2.867-36.238 22.52-22.52zM32 16h208v16H32zm31.344 432H47.238L31.52 290.84l21.074 21.07zM29.008 265.703l-3.711-37.086 22.496 22.496 2.863 36.239zm-6.223-62.23l-5.722-57.168A219.119 219.119 0 0 1 16 124.84v-1.77c0-.687.04-1.36.047-2.047l24.152 33.809 5.664 71.703zM96 480H48v-16h48zm40-312c-8.742 0-15.902 6.566-16.656 15.29L96.656 448H79.398l-23.59-298.84L17.77 95.902C19.832 79.566 23.777 63.551 29.559 48h89.808l-1.613 2.016C103.719 67.543 96 89.55 96 112h16c0-18.832 6.48-37.29 18.23-51.984l5.77-7.207 5.77 7.207C153.52 74.71 160 93.168 160 112h16c0-22.45-7.719-44.457-21.742-61.984L152.648 48h89.809c5.773 15.543 9.719 31.566 11.79 47.902l-38.04 53.258L192.609 448h-17.257l-22.688-264.719C151.902 174.566 144.742 168 136 168zm88 312h-48v-16h48zm0 0"/><path d="M160 128h16v16h-16zm0 0M96 128h16v16H96zm0 0"/></svg>