<svg height="496pt" viewBox="-80 0 496 496" width="496pt" xmlns="http://www.w3.org/2000/svg"><path d="M272 472H64l-48-16-7.047-28.176A32.113 32.113 0 0 1 8 420.062V271.266c0-28.098 18.328-52.907 45.176-61.168L112 192h112l58.816 18.105C309.672 218.36 328 243.168 328 271.265v148.797c0 2.618-.32 5.22-.953 7.762L320 456zm0 0" fill="#a0d468"/><path d="M152 240l-29.184-32.434A166.733 166.733 0 0 1 80 96c0-48.602 39.398-88 88-88s88 39.398 88 88c0 41.2-15.246 80.945-42.816 111.566L184 240l-17 19zm0 0" fill="#a0d468"/><path d="M168 192l15.52 62.09c.312 1.27.48 2.574.48 3.879V264c0 8.832-7.168 16-16 16-8.84 0-16-7.168-16-16v-6.031c0-1.305.16-2.61.48-3.88zm0 0" fill="#e6e9ed"/><path d="M72 423.176h16L72 267.12zm0 0M248 423.176h16V267.12zm0 0" fill="#8cc152"/><path d="M272 456h48v32h-48zm0 0M64 488H16v-32h48zm0 0" fill="#fcd770"/><path d="M181.48 188.45L168 200l-13.488-11.55A121.778 121.778 0 0 1 112 96c0-30.93 25.07-56 56-56s56 25.07 56 56a121.759 121.759 0 0 1-42.52 92.45zm0 0" fill="#969faa"/><path d="M160 328h16v24h-16zm0 0M160 368h16v24h-16zm0 0M160 408h16v24h-16zm0 0"/><path d="M285.168 202.457l-47.313-14.562A174.41 174.41 0 0 0 264 96c0-52.938-43.063-96-96-96S72 43.063 72 96a174.41 174.41 0 0 0 26.145 91.895l-47.313 14.562C20.426 211.809 0 239.465 0 271.273v148.79c0 3.265.398 6.53 1.191 9.699L8 456.977V496h64v-16h192v16h64v-39.023l6.816-27.215a40.372 40.372 0 0 0 1.184-9.7V271.274c0-31.808-20.426-59.464-50.832-68.816zM168 16c44.113 0 80 35.887 80 80 0 39.297-14.48 77.016-40.762 106.215l-22.254 24.746-6.375-25.512 8.086-6.93A129.618 129.618 0 0 0 232 96c0-35.29-28.71-64-64-64s-64 28.71-64 64c0 37.93 16.512 73.832 45.313 98.52l8.085 6.93-6.32 25.277-22.316-24.512C102.48 173.015 88 135.297 88 96c0-44.113 35.887-80 80-80zm8.281 166.367L168 189.465l-8.281-7.098A113.647 113.647 0 0 1 120 96c0-26.473 21.527-48 48-48s48 21.527 48 48c0 33.246-14.48 64.727-39.719 86.367zM168 272c-4.414 0-8-3.594-8-8v-6.031c0-.649.09-1.313.23-1.938l7.77-31.039L175.762 256c.16.656.238 1.32.238 1.969V264c0 4.406-3.586 8-8 8zM56 480H24v-16h32zm120-16v-16h-16v16H72v-7.023l6.719-26.856C108.258 419.457 128 391.535 128 360h-16c0 22.297-12.566 42.29-32 52.168V264H64v156.063c0 1.96-.238 3.921-.71 5.816L57.761 448H22.246l-5.527-22.121a23.698 23.698 0 0 1-.719-5.816v-148.79c0-24.738 15.887-46.25 39.527-53.53l52.137-16.04c2.922 3.84 5.953 7.61 9.2 11.227l29.472 32.734-1.633 6.52a24.421 24.421 0 0 0-.703 5.785V264c0 10.414 6.71 19.215 16 22.527V312h16v-25.473c9.29-3.312 16-12.113 16-22.527v-6.031a24.21 24.21 0 0 0-.719-5.824l-1.687-6.747 29.535-32.476c3.246-3.617 6.277-7.387 9.2-11.227l52.136 16.04C304.113 225.022 320 246.526 320 271.272v148.79c0 1.96-.238 3.921-.71 5.816L313.761 448h-35.516l-5.527-22.121a23.698 23.698 0 0 1-.719-5.816V264h-16v148.168c-19.434-9.887-32-29.871-32-52.168h-16c0 31.535 19.742 59.457 49.29 70.121l6.71 26.856V464zm136 16h-32v-16h32zm0 0"/></svg>