<svg height="496pt" viewBox="0 0 496 496" width="496pt" xmlns="http://www.w3.org/2000/svg"><g fill="#e6e9ed"><path d="M392 176v24h-80v-24c0-4.398 3.602-8 8-8h64c4.398 0 8 3.602 8 8zm0 0M328 56h48v112h-48zm0 0"/><path d="M328 56v112h-8c-4.398 0-8 3.602-8 8v24h-32V56zm0 0M56 56h32v256H56zm0 0M184 192v120h-48V56h48zm0 0M136 192v120H88V56h48zm0 0M232 192v120h-48V56h48zm0 0M424 56v144h-32v-24c0-4.398-3.602-8-8-8h-8V56zm0 0M280 56v144h-8c-4.398 0-8 3.602-8 8v104h-32V56zm0 0"/></g><path d="M488 312v96H232v-96zm0 0" fill="#dfb28b"/><path d="M440 408h32v80h-32zm0 0" fill="#cf9e76"/><path d="M440 248v64H264v-64h72v16h32v-16zm0 0" fill="#fcd770"/><path d="M440 208v40h-72v-16h-32v16h-72v-40c0-4.398 3.602-8 8-8h160c4.398 0 8 3.602 8 8zm0 0" fill="#ffeaa7"/><path d="M440 16v32c0 4.398-3.602 8-8 8H48c-4.398 0-8-3.602-8-8V16c0-4.398 3.602-8 8-8h384c4.398 0 8 3.602 8 8zm0 0" fill="#969faa"/><path d="M368 248v16h-32v-32h32zm0 0" fill="#e6e9ed"/><path d="M232 408h32v80h-32zm0 0" fill="#cf9e76"/><path d="M232 312v96h-80c26.48 0 48-21.52 48-48s-21.52-48-48-48zm0 0" fill="#dfb28b"/><path d="M152 312c26.48 0 48 21.52 48 48s-21.52 48-48 48-48-21.52-48-48 21.52-48 48-48zm0 0" fill="#838f9b"/><path d="M168 360c0 8.836-7.164 16-16 16s-16-7.164-16-16 7.164-16 16-16 16 7.164 16 16zm0 0" fill="#fcd770"/><path d="M136 312h16c-26.48 0-48 21.52-48 48 0-26.48-21.52-48-48-48zm0 0M152 408H56c26.48 0 48-21.52 48-48 0 26.48 21.52 48 48 48zm0 0" fill="#dfb28b"/><path d="M56 312c26.48 0 48 21.52 48 48s-21.52 48-48 48-48-21.52-48-48 21.52-48 48-48zm0 0" fill="#838f9b"/><path d="M56 408h32v80H56zm0 0" fill="#cf9e76"/><path d="M72 360c0 8.836-7.164 16-16 16s-16-7.164-16-16 7.164-16 16-16 16 7.164 16 16zm0 0" fill="#fcd770"/><path d="M152 384c13.23 0 24-10.77 24-24s-10.77-24-24-24-24 10.77-24 24 10.77 24 24 24zm0-32c4.406 0 8 3.586 8 8s-3.594 8-8 8-8-3.586-8-8 3.594-8 8-8zm0 0M80 360c0-13.23-10.77-24-24-24s-24 10.77-24 24 10.77 24 24 24 24-10.77 24-24zm-32 0c0-4.414 3.594-8 8-8s8 3.586 8 8-3.594 8-8 8-8-3.586-8-8zm0 0"/><path d="M496 304h-48v-96c0-8.824-7.176-16-16-16V64c8.824 0 16-7.176 16-16V16c0-8.824-7.176-16-16-16H48c-8.824 0-16 7.176-16 16v32c0 8.824 7.176 16 16 16v240.64C20.902 308.544 0 331.849 0 360s20.902 51.457 48 55.36V496h48v-80h128v80h48v-80h160v80h48v-80h16zm-224 0v-48h56v16h48v-16h56v48zm-48-112v112h-32V192h-16v112h-32V192h-16v112H96V64h32v112h16V64h32v112h16V64h32v112h16V64h32v128c-8.824 0-16 7.176-16 16v96h-16V192zm-32 168c0 22.055-17.945 40-40 40s-40-17.945-40-40 17.945-40 40-40 40 17.945 40 40zm-79.113-40c-3.43 3.36-6.399 7.168-8.887 11.305-2.488-4.137-5.457-7.953-8.887-11.305zM432 208v32h-56v-16h-48v16h-56v-32zm-72 32v16h-16v-16zm-40-48v-16h64v16zm16-32V64h32v96zm-16 0c-8.824 0-16 7.176-16 16v16h-16V64h32zm96 32h-16v-16c0-8.824-7.176-16-16-16V64h32zM47.992 16H432v32H48zM80 64v240H64V64zM16 360c0-22.055 17.945-40 40-40s40 17.945 40 40-17.945 40-40 40-40-17.945-40-40zm64 120H64v-64h16zm15.113-80c3.43-3.36 6.399-7.168 8.887-11.305 2.488 4.137 5.457 7.953 8.887 11.305zm96 0C201.52 389.824 208 375.664 208 360s-6.48-29.824-16.887-40H224v80zM256 480h-16v-64h16zm208 0h-16v-64h16zm16-80H240v-80h240zm0 0"/><path d="M448 368h16v16h-16zm0 0M416 368h16v16h-16zm0 0M384 368h16v16h-16zm0 0"/></svg>