<svg height="496pt" viewBox="0 0 496 496" width="496pt" xmlns="http://www.w3.org/2000/svg"><g fill="#ffeaa7"><path d="M288 368c-22.078 0-40 17.922-40 40 0-11.04-4.48-21.04-11.68-28.32-7.28-7.2-17.28-11.68-28.32-11.68zm0 0M200 368h8c-22.078 0-40 17.922-40 40v80h-32V352h64zm0 0M296 368v-16h64v136h-32v-80c0-11.04-4.48-21.04-11.68-28.32-7.28-7.2-17.28-11.68-28.32-11.68zm0 0"/></g><path d="M408 312v176h-48V312c0-6.64 2.719-12.64 7.04-16.96 4.32-4.321 10.32-7.04 16.96-7.04 2.64 0 5.2.398 7.52 1.281C401.12 292.398 408 301.36 408 312zm0 0M136 352v136H88V312c0-10.64 6.879-19.602 16.48-22.719 2.32-.883 4.88-1.281 7.52-1.281 6.64 0 12.64 2.719 16.96 7.04 4.321 4.32 7.04 10.32 7.04 16.96zm0 0" fill="#fcd770"/><path d="M392 288l-.48 1.281c-2.32-.883-4.88-1.281-7.52-1.281-6.64 0-12.64 2.719-16.96 7.04-4.321 4.32-7.04 10.32-7.04 16.96v-77.762c0-15.277-10.8-28.398-25.762-31.36l-36.718-7.358L280 192v-16l-.719-1.52a58.026 58.026 0 0 0 8.32-6.878c4.477-4.48 8.239-9.762 10.958-15.602H328c35.36 0 64 28.64 64 64zm0 0M104 288v-72c0-35.36 28.64-64 64-64h29.441c4.239 9.121 10.957 16.879 19.278 22.48L216 176v16l-17.52 3.52-36.718 7.359C146.8 205.839 136 218.96 136 234.239V312c0-6.64-2.719-12.64-7.04-16.96-4.32-4.321-10.32-7.04-16.96-7.04-2.64 0-5.2.398-7.52 1.281zm0 0" fill="#ffeaa7"/><path d="M192 128c0 8.64 1.922 16.719 5.441 24H176c-26.48 0-48-21.52-48-48V56c0-26.48 21.52-48 48-48h144c26.48 0 48 21.52 48 48v48c0 26.48-21.52 48-48 48h-21.441c3.52-7.281 5.441-15.36 5.441-24V89.922c0-10.961-6.16-21.043-16-25.922l-.559-.8C277.84 48.718 261.52 40 244.078 40c-14.316 0-27.36 5.84-36.797 15.281C197.84 64.72 192 77.761 192 92.078zm0 0" fill="#fcd770"/><path d="M248 408v80h-80v-80c0-22.078 17.922-40 40-40 11.04 0 21.04 4.48 28.32 11.68 7.2 7.28 11.68 17.28 11.68 28.32zm0 0M328 408v80h-80v-80c0-22.078 17.922-40 40-40 11.04 0 21.04 4.48 28.32 11.68 7.2 7.28 11.68 17.28 11.68 28.32zm0 0" fill="#838f9b"/><path d="M320 320h-24v-16h-96v16h-64v-85.762c0-15.277 10.8-28.398 25.762-31.36l36.718-7.358L216 248l32-24 32 24 17.52-52.48 36.718 7.359C349.2 205.839 360 218.96 360 234.239V320zm0 0" fill="#b4dd7f"/><path d="M297.52 195.52L280 248l-32-24 32-32zm0 0M248 224l-32 24-17.52-52.48L216 192zm0 0" fill="#8cc152"/><path d="M360 320v32h-64v-32zm0 0M200 320v32h-64v-32zm0 0" fill="#969faa"/><path d="M296 352v16h-48v-64h48zm0 0M248 336v32h-48v-64h48zm0 0" fill="#aab2bd"/><path d="M280 192l-32 32-32-32v-16l.719-1.52c8.883 6 19.68 9.52 31.281 9.52 3.84 0 7.68-.398 31.281-9.52L280 176zm0 0" fill="#f0d0b4"/><path d="M304 112v16c0 8.64-1.922 16.719-5.441 24-2.72 5.84-6.48 11.121-10.957 15.602a58.026 58.026 0 0 1-8.32 6.878C255.68 183.602 251.84 184 248 184c-11.602 0-22.398-3.52-31.281-9.52-8.32-5.601-15.04-13.359-19.278-22.48-3.52-7.281-5.441-15.36-5.441-24v-16h35.121A53.967 53.967 0 0 0 272 88zm0 0" fill="#f0d0b4"/><path d="M304 89.922V112l-32-24c-10 14.96-26.8 24-44.879 24H192V92.078c0-14.316 5.84-27.36 15.281-36.797C216.72 45.84 229.761 40 244.078 40c17.442 0 33.762 8.719 43.363 23.2l.559.8c9.84 4.879 16 14.96 16 25.922zm0 0" fill="#b27946"/><path d="M416 480V312c0-11.793-6.48-22-16-27.55V216c0-30.71-19.36-56.91-46.488-67.246C367.137 138.527 376 122.304 376 104V56c0-30.871-25.129-56-56-56H176c-30.871 0-56 25.129-56 56v48c0 18.305 8.863 34.527 22.488 44.754C115.36 159.078 96 185.289 96 216v68.45C86.48 290 80 300.206 80 312v168H0v16h496v-16zM296 96l-25.969-19.48-4.687 7.039A45.793 45.793 0 0 1 227.16 104H200V92.113C200 67.793 219.793 48 244.113 48c14.782 0 28.496 7.344 36.703 19.64l1.711 2.56 1.899.952C291.559 74.727 296 81.902 296 89.887zm-96 24h27.16c17.903 0 34.695-7.672 46.352-20.863L296 116v12c0 26.473-21.527 48-48 48s-48-21.527-48-48zm82.625 80.688l4.422.878-11.125 33.371-15.746-11.808zM248 192a63.56 63.56 0 0 0 24-4.71v1.398l-24 24-24-24v-1.399A63.56 63.56 0 0 0 248 192zm-34.625 8.688l22.45 22.449-15.747 11.808-11.125-33.37zm-20.23 4.039l18.777 56.335L248 234l36.078 27.063 18.777-56.336 29.848 5.968C343.88 212.93 352 222.832 352 234.23V312h-24v-80h-16v80h-8v-16H192v16h-8v-80h-16v80h-24v-77.77c0-11.406 8.121-21.3 19.297-23.535zM352 344h-48v-16h48zm-208-16h48v16h-48zm96 0h-16v16h16v16h-32v-48h32zm12.32 48c-1.558 1.742-3.023 3.566-4.32 5.52-1.297-1.954-2.762-3.786-4.32-5.52zm3.68-16v-48h32v48zm-112 0h48v2.8c-18.617 6.606-32 24.345-32 45.2v72h-16zm32 48c0-17.648 14.352-32 32-32s32 14.352 32 32v72h-64zm80 0c0-17.648 14.352-32 32-32s32 14.352 32 32v72h-64zm48-45.2V360h48v120h-16v-72c0-20.855-13.383-38.594-32-45.2zm64-42.8v-8c0-8.824 7.176-16 16-16s16 7.176 16 16v168h-32zm-40-160c30.871 0 56 25.129 56 56v64c-5.855 0-11.273 1.695-16 4.45v-50.22c0-19-13.52-35.503-32.16-39.222L288 185.44v-7.562c6.16-4.941 11.352-11.016 15.344-17.879zm-192-56V56c0-22.055 17.945-40 40-40h144c22.055 0 40 17.945 40 40v48c0 22.055-17.945 40-40 40h-10.105c1.328-5.129 2.105-10.465 2.105-16V89.887c0-13.336-7.023-25.399-18.473-31.992A59.99 59.99 0 0 0 244.113 32C210.97 32 184 58.969 184 92.113V128c0 5.535.777 10.871 2.105 16H176c-22.055 0-40-17.945-40-40zm-24 112c0-30.871 25.129-56 56-56h24.656c3.985 6.863 9.184 12.938 15.344 17.879v7.562l-47.84 9.567C141.52 198.734 128 215.23 128 234.23v50.22c-4.727-2.755-10.145-4.45-16-4.45zm-16 96c0-8.824 7.176-16 16-16s16 7.176 16 16v168H96zm0 0"/></svg>