<svg height="496pt" viewBox="0 0 496 496" width="496pt" xmlns="http://www.w3.org/2000/svg"><path d="M280 312c0 17.68-14.32 32-32 32-2.8 0-5.441-.32-8-1.04l-1.52.321a96.306 96.306 0 0 0-26.8-51.601L200 280h192V48h56v264zm0 0M152 280v32H48V48h56v232zm0 0" fill="#b4dd7f"/><g fill="#e6e9ed"><path d="M248 160v120h-48v-48c0-11.04-4.48-21.04-11.68-28.32-7.28-7.2-17.28-11.68-28.32-11.68-4.398 0-8 3.602-8 8v80h-48V160zm0 0M248 152V72c0-35.36 28.64-64 64-64h80v272H248zm0 0M184 8c35.36 0 64 28.64 64 64v88H104V8zm0 0"/></g><path d="M192 424v64h120v-64zm0 0" fill="#fcd770"/><path d="M238.48 343.281l1.52-.32c2.559.719 5.2 1.039 8 1.039 17.68 0 32-14.32 32-32h64v25.2c0 4.48-.96 8.878-2.719 13.038l-26.562 59.524C312.96 413.922 312 418.32 312 422.8V424H192a32.958 32.958 0 0 0-4-15.281l-32-57.438c-2.64-4.8-4-10.16-4-15.601V200c0-4.398 3.602-8 8-8 11.04 0 21.04 4.48 28.32 11.68 7.2 7.28 11.68 17.28 11.68 28.32v48l11.68 11.68a96.306 96.306 0 0 1 26.8 51.601zm0 0" fill="#f0d0b4"/><path d="M320 480v-57.207c0-3.387.695-6.664 2.07-9.746l26.48-59.582a39.876 39.876 0 0 0 3.45-16.258V320h104V40h-56V0h-88c-27.832 0-52.016 15.871-64 39.031C236.016 15.871 211.832 0 184 0H96v40H40v280h104v15.71a40.133 40.133 0 0 0 5.031 19.427l31.953 57.504A24.05 24.05 0 0 1 184 424.289V480H0v16h496v-16zM440 56v248H272v8c0 13.23-10.77 24-24 24-1 0-1.969-.246-2.96-.375-4.231-17.77-13.04-34.113-25.903-47.625H400V56zM112 16h72c30.871 0 56 25.121 56 56v64h16V72c0-30.879 25.129-56 56-56h72v256H256V152h-16v120h-32v-40c0-26.473-21.527-48-48-48-8.824 0-16 7.176-16 16v72h-32zM56 304V56h40v232h48v16zm107.016 43.367A24.102 24.102 0 0 1 160 335.711V200c17.648 0 32 14.352 32 32v51.313l14.063 14.062C222.792 314.105 232 336.344 232 360h16c0-2.695-.191-5.36-.39-8.023.132 0 .261.023.39.023 19.32 0 35.48-13.77 39.191-32H336v17.207c0 3.387-.695 6.664-2.07 9.746l-26.48 59.582c-1.352 3.04-2.184 6.227-2.747 9.465H199.055c-.825-3.879-2.153-7.648-4.086-11.137zM200 464h72v-16h-72v-16h104v16h-16v16h16v16H200zm0 0"/><path d="M312 208h16v16h-16zm0 0M344 208h16v16h-16zm0 0M280 208h16v16h-16zm0 0M272 240h96v16h-96zm0 0M272 176h96v16h-96zm0 0M272 120h96v16h-96zm0 0M272 88h96v16h-96zm0 0M272 56h96v16h-96zm0 0M168 88h16v16h-16zm0 0M200 88h16v16h-16zm0 0M136 88h16v16h-16zm0 0M128 56h96v16h-96zm0 0M128 120h96v16h-96zm0 0M128 152h96v16h-96zm0 0"/></svg>