<svg height="412pt" viewBox="0 -17 412.82 412" width="412pt" xmlns="http://www.w3.org/2000/svg"><path d="M342.066 221.086c36.957-11.008 63.926-45.207 63.926-85.742 0-49.426-40.07-89.492-89.496-89.492-49.422 0-91.336 40.785-91.336 90.21v155.114c0 43.933 32.488 77.851 76.422 77.851s79.55-35.617 79.55-79.55c0-29.133-15.706-54.532-39.066-68.391zm0 0" fill="#ee5281"/><path d="M301.582 375.852c-47.46 0-83.25-36.403-83.25-84.676V136.063c0-52.602 44.957-97.04 98.164-97.04 53.113 0 96.324 43.207 96.324 96.32 0 37.778-22.597 72.102-56.316 87.583 19.664 16.277 31.457 40.75 31.457 66.547 0 47.629-38.75 86.379-86.379 86.379zm14.914-323.176c-45.809 0-84.512 38.187-84.512 83.387v155.113c0 40.492 29.922 71.023 69.598 71.023 40.098 0 72.723-32.625 72.723-72.722 0-25.497-13.688-49.45-35.723-62.52a6.838 6.838 0 0 1-3.297-6.71 6.837 6.837 0 0 1 4.828-5.708c34.77-10.351 59.051-42.918 59.051-79.195 0-45.582-37.086-82.668-82.668-82.668zm0 0"/><path d="M70.75 221.086c-36.957-11.008-63.926-45.207-63.926-85.742 0-49.426 40.07-89.492 89.496-89.492 49.426 0 91.336 40.785 91.336 90.21v155.114c0 43.933-32.484 77.851-76.422 77.851-43.933 0-79.55-35.617-79.55-79.55 0-29.133 15.707-54.532 39.066-68.391zm0 0" fill="#ee5281"/><path d="M111.234 375.852c-47.629 0-86.379-38.75-86.379-86.375 0-25.801 11.79-50.27 31.457-66.547C22.599 207.445 0 173.12 0 135.348c0-53.114 43.21-96.325 96.32-96.325 53.211 0 98.164 44.442 98.164 97.04v155.113c0 48.273-35.789 84.676-83.25 84.676zM96.32 52.676c-45.586 0-82.668 37.086-82.668 82.668 0 36.277 24.282 68.844 59.047 79.195a6.829 6.829 0 0 1 1.531 12.418c-22.03 13.07-35.722 37.027-35.722 62.52 0 40.097 32.625 72.722 72.726 72.722 39.672 0 69.594-30.535 69.594-71.023V136.063c0-45.2-38.7-83.387-84.508-83.387zm0 0M214.219 56.527a6.827 6.827 0 0 1-6.813-6.511c-.48-10.414 2.403-20.465 8.336-29.07 7.196-10.438 18.024-17.45 30.488-19.739 12.47-2.297 25.075.41 35.508 7.602a6.818 6.818 0 0 1 1.746 9.492 6.814 6.814 0 0 1-9.492 1.746c-7.43-5.129-16.402-7.067-25.297-5.414-8.875 1.633-16.59 6.62-21.71 14.055-4.227 6.132-6.278 13.289-5.938 20.699a6.832 6.832 0 0 1-6.508 7.136c-.105.004-.21.004-.32.004zm0 0M194.27 62.766a6.826 6.826 0 0 1-6.695-8.184c1.835-9.074-.044-18.27-5.298-25.895-10.586-15.343-31.675-19.207-47.015-8.64-3.106 2.137-7.356 1.36-9.492-1.746a6.82 6.82 0 0 1 1.746-9.492c21.55-14.856 51.156-9.407 66 12.136 7.375 10.7 10.02 23.61 7.437 36.352a6.83 6.83 0 0 1-6.683 5.469zm0 0"/><path d="M206.672 372.426c-13.195 0-23.895-10.7-23.895-23.895V68.457c0-13.2 10.7-23.895 23.895-23.895s23.894 10.696 23.894 23.895v280.074c0 13.196-10.699 23.895-23.894 23.895zm0 0" fill="#fcad3a"/><path d="M206.672 379.25c-16.942 0-30.719-13.777-30.719-30.719V68.457c0-16.941 13.777-30.723 30.719-30.723s30.719 13.782 30.719 30.723v280.074c0 16.942-13.778 30.719-30.72 30.719zm0-327.86c-9.41 0-17.067 7.653-17.067 17.067v280.074c0 9.41 7.657 17.067 17.067 17.067s17.066-7.657 17.066-17.067V68.457c0-9.414-7.656-17.066-17.066-17.066zm0 0"/><path d="M225.16 283.496h-42.383a6.827 6.827 0 0 1 0-13.652h42.383c3.77 0 6.824 3.054 6.824 6.824s-3.054 6.828-6.824 6.828zm0 0M230.566 317.629h-47.789a6.827 6.827 0 0 1 0-13.652h47.79a6.826 6.826 0 0 1 0 13.652zm0 0M230.566 351.762h-47.789a6.824 6.824 0 0 1-6.824-6.828 6.823 6.823 0 0 1 6.824-6.825h47.79a6.823 6.823 0 0 1 6.824 6.825 6.824 6.824 0 0 1-6.825 6.828zm0 0M151.297 139.195a6.83 6.83 0 0 1-6.828-6.828c0-26.781-21.79-48.574-48.57-48.574a6.827 6.827 0 0 1 0-13.652c34.312 0 62.222 27.914 62.222 62.226a6.827 6.827 0 0 1-6.824 6.828zm0 0M151.297 194.59a6.827 6.827 0 0 1-6.828-6.824v-29.547a6.826 6.826 0 0 1 13.652 0v29.547a6.823 6.823 0 0 1-6.824 6.824zm0 0M302.715 334.934c-3.77 0-6.824-3.059-6.824-6.829s3.054-6.828 6.824-6.828c18.637 0 33.8-15.16 33.8-33.797 0-3.77 3.06-6.824 6.829-6.824s6.828 3.055 6.828 6.824c-.004 26.165-21.29 47.454-47.457 47.454zm0 0"/></svg>