<svg height="409pt" viewBox="0 -32 409.6 409" width="409pt" xmlns="http://www.w3.org/2000/svg"><path d="M375.371 120.734c0-25.906-22.91-46.91-51.172-46.91s-51.172 21.004-51.172 46.91 22.91 46.907 51.172 46.907 51.172-21 51.172-46.907zm0 0" fill="#feda38"/><path d="M324.2 174.465c-31.981 0-58-24.102-58-53.73S292.218 67 324.2 67s58 24.105 58 53.734-26.02 53.73-58 53.73zm0-93.809c-24.454 0-44.345 17.977-44.345 40.078 0 22.098 19.891 40.079 44.344 40.079s44.348-17.981 44.348-40.079c0-22.101-19.895-40.078-44.348-40.078zm0 0"/><path d="M243.668 43.5c-27.906-12.59-61.523 1.563-75.082 31.617-13.563 30.051-1.934 64.621 25.976 77.215 27.907 12.594 61.524-1.562 75.083-31.613 13.562-30.055 1.933-64.625-25.977-77.219zm0 0" fill="#fcad3a"/><path d="M215.895 163.727a58.501 58.501 0 0 1-24.149-5.184c-15.246-6.879-26.687-19.7-32.207-36.106-5.45-16.222-4.457-34.03 2.813-50.14 15.093-33.438 52.835-49.149 84.113-35.035 31.297 14.12 44.48 52.812 29.394 86.246-11.324 25.101-35.418 40.219-59.964 40.219zm6.386-118.004c-19.336 0-38.437 12.129-47.488 32.187-5.848 12.961-6.664 27.227-2.309 40.172 4.297 12.766 13.13 22.715 24.875 28.016 24.414 11.023 54.059-1.633 66.059-28.203 11.988-26.575 1.867-57.165-22.566-68.188a44.99 44.99 0 0 0-18.57-3.984zm0 0"/><path d="M170.684 116.469c0-32.973-24.817-59.7-55.434-59.7s-55.438 26.727-55.438 59.7 24.82 59.699 55.438 59.699 55.434-26.727 55.434-59.7zm0 0" fill="#ee5281"/><path d="M115.254 182.992c-34.336 0-62.266-29.844-62.266-66.523 0-36.684 27.93-66.528 62.266-66.528 34.332 0 62.258 29.844 62.258 66.528.004 36.68-27.926 66.523-62.258 66.523zm0-119.394c-26.809 0-48.613 23.718-48.613 52.87 0 29.157 21.804 52.872 48.613 52.872 26.797 0 48.605-23.715 48.605-52.871 0-29.153-21.808-52.871-48.605-52.871zm0 0"/><path d="M6.828 114.031h395.945v40.957H6.828zm0 0" fill="#99783d"/><path d="M402.773 161.816H6.828A6.825 6.825 0 0 1 0 154.988v-40.957a6.828 6.828 0 0 1 6.828-6.828h395.945a6.828 6.828 0 0 1 6.829 6.828v40.957a6.825 6.825 0 0 1-6.829 6.828zm-389.12-13.652h382.292v-27.309H13.652zm0 0"/><path d="M6.828 154.988h395.945v47.79H6.828zm0 0" fill="#99783d"/><path d="M402.773 209.602H6.828A6.824 6.824 0 0 1 0 202.777v-47.789a6.824 6.824 0 0 1 6.828-6.824h395.945a6.824 6.824 0 0 1 6.829 6.824v47.79a6.824 6.824 0 0 1-6.829 6.824zm-389.12-13.653h382.292v-34.133H13.652zm0 0"/><path d="M6.828 195.95h395.945v40.96H6.828zm0 0" fill="#99783d"/><path d="M402.773 243.738H6.828A6.828 6.828 0 0 1 0 236.91v-40.96a6.824 6.824 0 0 1 6.828-6.825h395.945a6.824 6.824 0 0 1 6.829 6.824v40.961a6.828 6.828 0 0 1-6.829 6.828zm-389.12-13.656h382.292v-27.305H13.652zm0 0"/><path d="M6.828 236.91h395.945v40.461H6.828zm0 0" fill="#99783d"/><path d="M402.773 284.195H6.828A6.824 6.824 0 0 1 0 277.371v-40.46a6.828 6.828 0 0 1 6.828-6.829h395.945a6.828 6.828 0 0 1 6.829 6.828v40.461a6.824 6.824 0 0 1-6.829 6.824zm-389.12-13.652h382.292v-26.805H13.652zm0 0"/><path d="M6.828 277.871h395.945v40.961H6.828zm0 0" fill="#99783d"/><path d="M402.773 325.656H6.828A6.824 6.824 0 0 1 0 318.832v-40.96a6.828 6.828 0 0 1 6.828-6.829h395.945a6.828 6.828 0 0 1 6.829 6.828v40.961a6.824 6.824 0 0 1-6.829 6.824zm-389.12-13.652h382.292v-27.309H13.652zm0 0M132.52 66.2a6.824 6.824 0 0 1-6.773-6.004l-4.481-36.716a6.826 6.826 0 0 1 5.945-7.605 6.8 6.8 0 0 1 7.602 5.95l3.433 28.1 21.512-8.073c3.527-1.317 7.46.453 8.793 3.988 1.32 3.531-.465 7.469-3.992 8.789l-29.641 11.129a6.7 6.7 0 0 1-2.398.441zm0 0M226.848 45.578a6.817 6.817 0 0 1-4.813-1.988l-22.441-22.328a6.832 6.832 0 0 1-.028-9.657 6.838 6.838 0 0 1 9.653-.023l16.297 16.207 14.672-24.203a6.832 6.832 0 0 1 9.378-2.297 6.824 6.824 0 0 1 2.301 9.375l-19.18 31.625a6.824 6.824 0 0 1-5.84 3.29zm0 0M308 80.633c-.7 0-1.406-.106-2.094-.324l-26.441-8.512a6.833 6.833 0 0 1-4.406-8.59c1.16-3.59 4.996-5.547 8.593-4.406l15.121 4.867-6.828-31.016a6.822 6.822 0 0 1 5.2-8.132c3.648-.836 7.32 1.507 8.136 5.199l9.387 42.625A6.818 6.818 0 0 1 308 80.633zm0 0"/><path d="M307.133 80.656a6.764 6.764 0 0 1-3.047-.722 6.825 6.825 0 0 1-3.05-9.16l17.058-34.114a6.83 6.83 0 0 1 9.16-3.055 6.823 6.823 0 0 1 3.05 9.16l-17.058 34.118a6.83 6.83 0 0 1-6.113 3.773zm0 0"/><path d="M307.14 100.375h41.02v238.934h-41.02zm0 0" fill="#8c6b37"/><path d="M348.16 346.137h-41.02a6.825 6.825 0 0 1-6.827-6.828V100.375a6.824 6.824 0 0 1 6.828-6.824h41.02a6.824 6.824 0 0 1 6.827 6.824v238.934a6.825 6.825 0 0 1-6.828 6.828zm-34.191-13.653h27.363v-225.28h-27.363zm0 0"/><path d="M61.441 100.375h41.016v238.934H61.441zm0 0" fill="#8c6b37"/><path d="M102.46 346.137H61.442a6.825 6.825 0 0 1-6.828-6.828V100.375a6.824 6.824 0 0 1 6.828-6.824h41.02a6.82 6.82 0 0 1 6.824 6.824v238.934a6.822 6.822 0 0 1-6.824 6.828zm-34.194-13.653h27.367v-225.28H68.266zm0 0"/><path d="M88.746 127.684a6.827 6.827 0 1 1-13.652 0 6.827 6.827 0 0 1 13.652 0zm0 0M88.746 312.004a6.827 6.827 0 1 1-13.652 0 6.827 6.827 0 0 1 13.652 0zm0 0M334.508 127.684a6.83 6.83 0 0 1-6.828 6.828 6.83 6.83 0 0 1-6.828-6.828 6.83 6.83 0 0 1 6.828-6.829 6.83 6.83 0 0 1 6.828 6.829zm0 0M334.508 312.004a6.83 6.83 0 0 1-6.828 6.828 6.83 6.83 0 0 1-6.828-6.828 6.83 6.83 0 0 1 6.828-6.828 6.83 6.83 0 0 1 6.828 6.828zm0 0M243.586 83.066a6.81 6.81 0 0 1-5.074-2.257c-4.492-4.993-10.407-7.739-16.645-7.739a6.824 6.824 0 0 1-6.828-6.824 6.828 6.828 0 0 1 6.828-6.828c10.168 0 19.68 4.355 26.793 12.258a6.83 6.83 0 0 1-.508 9.64 6.811 6.811 0 0 1-4.566 1.75zm0 0"/></svg>