<svg xmlns="http://www.w3.org/2000/svg" viewBox="0 0 127.971 127.971"><path d="M98.636 91.818c0 19.139-15.514 34.652-34.65 34.652s-34.65-15.514-34.65-34.652c0-19.137 15.514-54.314 34.65-54.314s34.65 35.178 34.65 54.314z" fill="#f9f9e4"/><path d="M63.985 37.504v88.967c19.137 0 34.65-15.514 34.65-34.652.001-19.137-15.513-54.315-34.65-54.315zM42.514 111.479c3.197 3.494 6.719 5.203 4.847 6.918-1.873 1.713-5.984.268-9.18-3.227-3.197-3.496-4.271-7.719-2.398-9.432 1.872-1.711 3.533 2.242 6.731 5.741z" fill="#e5e4c3"/><path d="M85.456 111.479c-3.197 3.494-6.719 5.203-4.848 6.918 1.874 1.713 5.984.268 9.181-3.227 3.197-3.496 4.271-7.719 2.398-9.432-1.873-1.711-3.534 2.242-6.731 5.741z" fill="#d8d593"/><path d="M84.337 100.789c-4.509 9.766-13.717 15.121-20.566 11.959-6.85-3.162-3.667-8.914.842-18.68 4.508-9.766 8.634-19.848 15.484-16.686 6.849 3.163 8.748 13.643 4.24 23.407z" fill="#e5e4c3"/><path d="M80.097 77.383c-6.851-3.162-10.976 6.92-15.484 16.686l-.627 1.352v17.416c6.828 2.957 15.891-2.379 20.352-12.047 4.507-9.765 2.608-20.245-4.241-23.407z" fill="#d8d593"/><circle cx="44.06" cy="64.156" r="2.201" fill="#e5e4c3"/><path d="M52.865 53.625a.862.862 0 1 1-.862-.859c.476 0 .862.388.862.859z" fill="#e5e4c3"/><circle cx="47.505" cy="76.791" r="1.244" fill="#e5e4c3"/><circle cx="66.904" cy="117.873" r="1.245" fill="#d8d593"/><circle cx="61.048" cy="116.629" r="1.244" fill="#e5e4c3"/><circle cx="78.765" cy="57.992" r="2.545" fill="#d8d593"/><circle cx="85.984" cy="68.846" r="2.489" fill="#d8d593"/><circle cx="50.558" cy="102.213" r="2.488" fill="#e5e4c3"/><g fill="#33363a"><path d="M50.685 0H40.233a1.5 1.5 0 0 0-1.5 1.5v15.238a1.5 1.5 0 0 0 1.5 1.5h10.451a1.5 1.5 0 0 0 1.5-1.5V1.5A1.5 1.5 0 0 0 50.685 0zm-1.5 15.238h-7.451V3h7.451v12.238zM69.524 0a1.5 1.5 0 0 0-1.5 1.5v6.119h-7.451V1.5a1.5 1.5 0 1 0-3 0v15.238a1.5 1.5 0 1 0 3 0v-6.119h7.451v6.119a1.5 1.5 0 1 0 3 0V1.5a1.5 1.5 0 0 0-1.5-1.5zM87.737 0H77.286a1.5 1.5 0 0 0-1.5 1.5v3.191a1.5 1.5 0 1 0 3 0V3h7.451v4.619H82.51a1.5 1.5 0 0 0-1.5 1.5c0 .023.006.045.007.067-.001.023-.007.044-.007.067v3.256a1.5 1.5 0 1 0 3 0v-1.891h3.727a1.5 1.5 0 0 0 1.5-1.5V1.5a1.5 1.5 0 0 0-1.5-1.5zM81.445 15.675c-.27.28-.43.67-.43 1.061 0 .399.16.78.44 1.06.27.28.66.44 1.06.44.39 0 .78-.16 1.06-.44a1.487 1.487 0 0 0-.01-2.121c-.55-.56-1.56-.55-2.12 0z"/></g><path d="M89.795 56.751c-7.5-13.379-16.666-20.747-25.81-20.747s-18.311 7.368-25.81 20.747c-6.281 11.207-10.34 24.972-10.34 35.067 0 19.935 16.217 36.152 36.15 36.152s36.15-16.218 36.15-36.152c.001-10.095-4.058-23.86-10.34-35.067zm-25.81 68.22c-18.279 0-33.15-14.872-33.15-33.152 0-17.847 15.009-52.814 33.15-52.814 15.137 0 28.085 24.338 31.961 42.769l-3.519-3.521a1.5 1.5 0 0 0-2.122 0l-4.962 4.962-4.961-4.962c-.563-.563-1.56-.563-2.122 0l-4.96 4.962-4.961-4.962c-.563-.563-1.559-.563-2.122 0l-4.96 4.962-4.961-4.962c-.563-.563-1.558-.563-2.122 0l-6.021 6.023a1.501 1.501 0 0 0 2.122 2.121l4.96-4.963 4.962 4.963c.293.293.676.439 1.06.439s.768-.146 1.061-.439l4.959-4.962 4.962 4.962c.293.293.676.439 1.06.439s.768-.146 1.061-.439l4.959-4.962 4.96 4.962c.293.293.677.439 1.061.439s.768-.146 1.06-.439l4.962-4.962 4.959 4.962c.135.135.294.232.459.305.227 1.814.351 3.536.351 5.117.005 18.28-14.866 33.152-33.146 33.152z" fill="#33363a"/></svg>