<svg height="421pt" viewBox="0 -85 421.775 421" width="421pt" xmlns="http://www.w3.org/2000/svg"><path d="M306.074 133.148c7.184 43.332-14.398 47.09-14.398 47.09-3.844-23.07-9.844-39.343-15.953-50.851-16.07-1.555-33.028-2.551-50.602-2.903 14.492 56.286-11.43 60.844-11.43 60.844-5.117-30.7-14.027-49.433-21.968-60.734-16.582.449-32.575 1.472-47.762 3 20.988 66.781-8.254 71.91-8.254 71.91-6.258-37.524-18.176-57.238-27.062-67.219-60.86 10.223-101.82 29.278-101.82 51.11 0 32.625 91.363 59.07 204.058 59.07 112.699 0 204.062-26.445 204.062-59.07 0-22.668-44.136-42.348-108.87-52.247zm0 0" fill="#eac583"/><path d="M210.887 251.29C108.652 251.29 0 228.194 0 185.394c0-35.91 75.191-52.418 107.516-57.844a6.869 6.869 0 0 1 6.23 2.191c8.59 9.645 19.785 27.672 26.664 59.918.195-.3.39-.625.582-.965 3.45-6.12 7.574-21.68-3.543-57.062-.617-1.957-.316-4.09.817-5.805s2.976-2.824 5.015-3.031c15.649-1.567 31.883-2.582 48.25-3.027 2.606-.008 4.461 1.03 5.774 2.898 9.394 13.36 16.468 31.09 21.093 52.809.106-.168.215-.348.32-.524 3.774-6.312 6.802-19.543-.21-46.77a6.819 6.819 0 0 1 1.258-5.937c1.328-1.672 3.488-2.586 5.492-2.594 17.46.356 34.664 1.34 51.129 2.942a6.813 6.813 0 0 1 5.367 3.594c6.258 11.777 11.172 25.98 14.652 42.312 3.469-5.527 5.946-16.066 2.934-34.234-.36-2.16.34-4.36 1.875-5.914a6.728 6.728 0 0 1 5.894-1.954c34.473 5.274 114.664 21.575 114.664 58.993 0 42.804-108.656 65.898-210.886 65.898zm-104.95-109.614c-63.714 11.234-92.285 29.937-92.285 43.719 0 24.707 81 52.238 197.235 52.238 116.23 0 197.23-27.531 197.23-52.238 0-13.708-29.531-32.918-94.117-44.047 3.52 40.812-20.074 45.425-21.156 45.613a6.799 6.799 0 0 1-5.114-1.16 6.809 6.809 0 0 1-2.785-4.446c-2.972-17.808-7.539-33.101-13.601-45.52a650.804 650.804 0 0 0-37.586-2.296c4.469 21.809 3.168 38.383-3.887 49.328-6.031 9.36-14.098 11.02-15 11.18a6.883 6.883 0 0 1-5.117-1.152 6.845 6.845 0 0 1-2.797-4.454c-3.816-22.886-10.137-41.336-18.809-54.914a656.76 656.76 0 0 0-35.289 2.086c7.532 27.356 7.364 47.762-.523 60.735-6.07 9.972-14.512 11.714-15.45 11.879a6.908 6.908 0 0 1-5.124-1.153 6.81 6.81 0 0 1-2.79-4.453c-5.417-32.5-15.09-50.851-23.035-60.945zm0 0"/><path d="M143.96 129.59c-12.355 1.246-24.167 2.82-35.315 4.691 8.886 9.985 20.804 29.696 27.062 67.223 0 0 29.242-5.133 8.254-71.914zm0 0" fill="#99783d"/><path d="M135.707 208.328a6.832 6.832 0 0 1-3.945-1.254 6.802 6.802 0 0 1-2.79-4.449c-5.976-35.84-17.124-54.48-25.425-63.8a6.83 6.83 0 0 1 3.969-11.274c11.32-1.899 23.351-3.5 35.757-4.754 3.262-.285 6.23 1.66 7.204 4.746 9.878 31.441 10.5 54.586 1.859 68.809-6.07 9.972-14.512 11.71-15.45 11.878a7.51 7.51 0 0 1-1.179.098zM120.98 139.27c6.98 10.652 14.372 26.68 19.43 50.39.195-.3.39-.625.582-.965 3.27-5.804 7.149-20.093-1.937-51.726a575.07 575.07 0 0 0-18.075 2.3zm0 0"/><path d="M225.121 126.484c-4.707-.093-9.445-.16-14.234-.16-6.469 0-12.852.098-19.164.27 7.941 11.3 16.851 30.035 21.968 60.73 0 0 25.922-4.558 11.43-60.84zm0 0" fill="#99783d"/><path d="M213.695 194.148a6.829 6.829 0 0 1-3.941-1.253 6.826 6.826 0 0 1-2.797-4.454c-4.105-24.625-11.113-44.113-20.82-57.918a6.816 6.816 0 0 1-.52-6.988 6.84 6.84 0 0 1 5.914-3.765c11.094-.301 22.574-.336 33.723-.114a6.837 6.837 0 0 1 6.48 5.125c6.739 26.176 6.114 45.723-1.863 58.086-6.031 9.36-14.098 11.024-15 11.184a7.058 7.058 0 0 1-1.176.097zm-9.949-60.96c6.246 11.699 11.152 25.855 14.652 42.289.106-.168.215-.348.32-.524 3.536-5.91 6.415-17.883 1.009-41.738a588.977 588.977 0 0 0-15.98-.028zm0 0"/><path d="M306.074 133.148c-9.68-1.484-19.828-2.738-30.351-3.761 6.109 11.508 12.109 27.781 15.953 50.851 0-.004 21.582-3.758 14.398-47.09zm0 0" fill="#99783d"/><path d="M291.68 187.063a6.783 6.783 0 0 1-3.946-1.262 6.78 6.78 0 0 1-2.789-4.446c-3.234-19.39-8.363-35.8-15.246-48.765a6.813 6.813 0 0 1 .352-6.992 6.827 6.827 0 0 1 6.336-3c10.68 1.03 21.011 2.312 30.718 3.804a6.811 6.811 0 0 1 5.7 5.625c8.203 49.45-18.801 54.735-19.957 54.938a6.932 6.932 0 0 1-1.168.097zm-4.649-49.594c3.809 9.23 6.942 19.613 9.375 31.035 3.145-5.008 5.473-14.149 3.633-29.348a499.848 499.848 0 0 0-13.008-1.687zm0 0"/><path d="M112.797 7.215l5.578 5.574a16.912 16.912 0 0 1 2.113 21.336c-4.472 6.703-3.586 15.633 2.114 21.332l5.574 5.578" fill="#eac583"/><path d="M128.176 67.863a6.812 6.812 0 0 1-4.828-2l-5.578-5.582c-7.973-7.968-9.22-20.562-2.965-29.949 2.66-3.984 2.129-9.332-1.258-12.719l-5.574-5.574a6.82 6.82 0 0 1 0-9.652 6.828 6.828 0 0 1 9.652 0l5.574 5.574c7.973 7.973 9.219 20.566 2.965 29.945-2.656 3.989-2.125 9.336 1.258 12.715l5.582 5.586c2.664 2.664 2.664 6.992-.004 9.652a6.791 6.791 0 0 1-4.824 2.004zm0 0"/><path d="M189.684 7.215l5.574 5.574a16.912 16.912 0 0 1 2.113 21.336 16.907 16.907 0 0 0 2.113 21.332l5.575 5.578" fill="#eac583"/><path d="M205.059 67.863c-1.746 0-3.5-.668-4.832-2l-5.575-5.582c-7.968-7.968-9.218-20.562-2.96-29.949 2.656-3.984 2.128-9.332-1.258-12.719l-5.575-5.574a6.828 6.828 0 0 1 0-9.652 6.828 6.828 0 0 1 9.653 0l5.574 5.574c7.969 7.965 9.219 20.559 2.965 29.945-2.66 3.989-2.125 9.336 1.262 12.715l5.582 5.586a6.837 6.837 0 0 1-.008 9.66 6.824 6.824 0 0 1-4.828 1.996zm0 0"/><path d="M274.258 7.215l5.574 5.574a16.912 16.912 0 0 1 2.113 21.336 16.907 16.907 0 0 0 2.114 21.332l5.574 5.578" fill="#eac583"/><path d="M289.633 67.863c-1.746 0-3.5-.668-4.832-2l-5.574-5.582c-7.973-7.968-9.22-20.562-2.961-29.949 2.656-3.984 2.129-9.332-1.258-12.719l-5.574-5.574a6.82 6.82 0 0 1 0-9.652 6.828 6.828 0 0 1 9.652 0l5.574 5.574c7.965 7.965 9.219 20.559 2.965 29.945-2.66 3.989-2.125 9.336 1.262 12.715l5.578 5.586a6.834 6.834 0 0 1-.004 9.66 6.831 6.831 0 0 1-4.828 1.996zm0 0"/></svg>