<svg height="412pt" viewBox="-47 0 412 412.08" width="412pt" xmlns="http://www.w3.org/2000/svg"><path d="M167.23 241.64c5.727 135.403 51.543 163.61 51.543 163.61H87.047s45.82-28.207 51.547-163.61zm0 0" fill="#8c6b37"/><path d="M218.77 412.078H87.047a6.835 6.835 0 0 1-6.57-4.965 6.827 6.827 0 0 1 2.992-7.672c.36-.238 42.851-29.254 48.3-158.09a6.825 6.825 0 0 1 6.82-6.535h28.641a6.825 6.825 0 0 1 6.82 6.536c5.446 128.835 47.938 157.851 48.368 158.132 2.539 1.645 3.719 4.786 2.867 7.684-.86 2.902-3.484 4.91-6.515 4.91zm-115.286-13.652h98.856c-14.582-18.485-36.887-60.856-41.613-149.957h-15.625c-4.73 89.101-27.036 131.472-41.618 149.957zm0 0"/><path d="M289.219 177.148c12.73-8.14 21.191-22.367 21.191-38.597 0-25.305-20.512-45.817-45.816-45.817-4.442 0-8.723.664-12.785 1.844.836-3.348 1.328-6.828 1.328-10.437 0-23.723-19.23-42.954-42.953-42.954-1.454 0-2.891.079-4.309.215-5.02-19.859-22.953-34.578-44.371-34.578-23.492 0-42.824 17.684-45.48 40.457-5.86-3.84-12.856-6.097-20.383-6.097-20.563 0-37.23 16.668-37.23 37.23 0 .969.073 1.918.144 2.871-.047 0-.094-.008-.145-.008-28.465 0-51.543 23.078-51.543 51.543 0 16.688 7.961 31.477 20.258 40.899-12.148 7.586-20.258 21.039-20.258 36.418 0 23.722 19.23 42.957 42.953 42.957 12.934 0 24.5-5.742 32.375-14.785 17.313 19.566 42.535 31.964 70.715 31.964 29.832 0 56.39-13.855 73.707-35.441 7.774 11.035 20.59 18.262 35.113 18.262 23.723 0 42.954-19.23 42.954-42.957 0-13.258-6.02-25.11-15.465-32.989zm0 0" fill="#83d816"/><path d="M152.914 277.105c-26.527 0-51.976-10.507-70.879-29.054-8.953 7.617-20.344 11.87-32.21 11.87-27.45 0-49.786-22.327-49.786-49.776 0-14.254 5.992-27.504 16.36-36.856C5.913 162.477.038 148.141.038 132.83c0-29.93 22.64-54.669 51.691-57.997 1.829-22.617 20.825-40.469 43.91-40.469 5.352 0 10.606.965 15.547 2.84C117.825 15.45 138.028 0 161.507 0c22.22 0 41.774 13.879 49.325 34.367 27.152.348 49.133 22.543 49.133 49.778 0 .656-.012 1.316-.04 1.976a50.44 50.44 0 0 1 4.669-.215c29.023 0 52.644 23.617 52.644 52.649 0 15.195-6.472 29.37-17.64 39.285a49.611 49.611 0 0 1 11.914 32.305c0 27.449-22.332 49.78-49.782 49.78-13.273 0-25.917-5.343-35.183-14.609-19.129 20.301-45.527 31.79-73.633 31.79zm-70.719-45.617a6.82 6.82 0 0 1 5.114 2.305c16.68 18.852 40.593 29.66 65.601 29.66 26.688 0 51.613-11.984 68.38-32.887 1.347-1.675 3.394-2.703 5.542-2.55a6.832 6.832 0 0 1 5.367 2.89c6.778 9.621 17.817 15.364 29.531 15.364 19.922 0 36.13-16.208 36.13-36.13 0-10.738-4.743-20.855-13.016-27.75a6.818 6.818 0 0 1-2.438-5.671 6.814 6.814 0 0 1 3.133-5.32c11.297-7.227 18.047-19.508 18.047-32.848 0-21.5-17.496-38.992-38.996-38.992-3.621 0-7.281.53-10.887 1.578a6.868 6.868 0 0 1-6.64-1.645 6.832 6.832 0 0 1-1.88-6.578c.747-2.98 1.126-5.934 1.126-8.773 0-19.922-16.207-36.13-36.125-36.13-1.23 0-2.45.071-3.649.184-3.254.32-6.453-1.843-7.289-5.12-4.371-17.325-19.89-29.427-37.746-29.427-19.773 0-36.41 14.801-38.7 34.426a6.815 6.815 0 0 1-3.89 5.39 6.802 6.802 0 0 1-6.633-.472 30.26 30.26 0 0 0-16.644-4.98c-16.762 0-30.399 13.636-30.399 30.402 0 .758.059 1.504.118 2.246.14 1.89-.512 3.817-1.805 5.211-1.29 1.387-3.098 2.238-4.996 2.238h-.016c-24.797 0-44.848 20.055-44.848 44.711 0 13.989 6.41 26.918 17.583 35.477a6.817 6.817 0 0 1 2.667 5.746 6.816 6.816 0 0 1-3.203 5.465c-10.675 6.664-17.047 18.117-17.047 30.629 0 19.922 16.208 36.125 36.13 36.125 10.417 0 20.34-4.532 27.226-12.434 1.3-1.484 2.91-2.457 5.152-2.34zm0 0"/><path d="M161.5 225.559a6.822 6.822 0 0 1-6.813-6.516C149.267 99.855 92.133 88.102 91.555 87.996a6.827 6.827 0 0 1-5.496-7.933c.675-3.708 4.203-6.149 7.937-5.5 2.793.507 68.418 13.921 74.328 143.863.176 3.765-2.738 6.953-6.504 7.129-.11 0-.215.004-.32.004zm0 0"/><path d="M145.59 144.648a6.827 6.827 0 0 1-6.813-6.543c-.879-21.035 4.774-37.859 16.793-50.015 20.063-20.278 50.403-19.582 51.668-19.547a6.834 6.834 0 0 1 6.614 7.035c-.122 3.762-3.227 6.777-7.02 6.613-.36-.004-25.812-.476-41.621 15.57-9.2 9.348-13.508 22.727-12.793 39.778a6.819 6.819 0 0 1-6.531 7.102c-.102.004-.196.007-.297.007zm0 0M201.586 225.559a6.827 6.827 0 0 1-6.754-5.86c-.105-.742-2.46-18.36 9.746-30.953 9.285-9.586 23.953-13.355 43.586-11.16a6.828 6.828 0 0 1 6.035 7.535c-.414 3.75-3.828 6.5-7.539 6.031-15.222-1.691-26.074.7-32.273 7.098-7.48 7.715-6.055 19.402-6.035 19.516a6.824 6.824 0 0 1-6.766 7.793zm0 0M92.77 156.832a6.827 6.827 0 0 1-6.618-5.168c-3.144-12.582-8.89-21.379-17.082-26.16-12.023-7.027-25.86-3.328-25.996-3.29-3.644.997-7.39-1.112-8.402-4.73-1.016-3.617 1.066-7.375 4.68-8.406.785-.226 19.324-5.351 36.433 4.531 11.578 6.692 19.524 18.38 23.613 34.739a6.828 6.828 0 0 1-6.628 8.484zm0 0"/></svg>