<svg height="379pt" viewBox="-119 0 379 379.95136" width="379pt" xmlns="http://www.w3.org/2000/svg"><path d="m92.503906 48.34375c0 22.925781-21.441406 42.089844-21.441406 42.089844s-21.441406-19.164063-21.441406-42.089844 21.441406-41.515625 21.441406-41.515625 21.441406 18.585937 21.441406 41.515625zm0 0" fill="#feda38"/><path d="m71.0625 97.257812c-1.625 0-3.253906-.578124-4.550781-1.734374-.964844-.867188-23.714844-21.496094-23.714844-47.183594 0-25.746094 22.824219-45.828125 23.792969-46.667969 2.566406-2.230469 6.378906-2.230469 8.945312 0 .96875.839844 23.792969 20.921875 23.792969 46.667969 0 25.6875-22.75 46.316406-23.714844 47.183594-1.296875 1.15625-2.921875 1.734374-4.550781 1.734374zm0-80.726562c-5.644531 6.296875-14.613281 18.410156-14.613281 31.8125 0 13.476562 8.933593 25.800781 14.601562 32.261719 5.671875-6.488281 14.625-18.855469 14.625-32.261719 0-13.402344-8.96875-25.515625-14.613281-31.8125zm0 0"/><path d="m120.546875 117.203125c-16.210937 16.210937-44.921875 14.601563-44.921875 14.601563s-1.609375-28.714844 14.601562-44.925782c16.210938-16.210937 44.515626-14.191406 44.515626-14.191406s2.015624 28.304688-14.195313 44.515625zm0 0" fill="#feda38"/><path d="m77.871094 138.675781c-1.496094 0-2.425782-.046875-2.632813-.058593-3.464843-.195313-6.234375-2.960938-6.433593-6.433594-.074219-1.296875-1.570313-31.96875 16.589843-50.132813 18.207031-18.199219 48.542969-16.273437 49.832031-16.175781 3.386719.246094 6.078126 2.9375 6.320313 6.324219.09375 1.285156 2.035156 31.625-16.175781 49.828125-15.300782 15.308594-39.492188 16.648437-47.5 16.648437zm50.007812-59.125c-8.441406.460938-23.351562 2.679688-32.828125 12.15625-9.53125 9.53125-11.925781 24.5625-12.484375 33.136719 8.59375-.574219 23.671875-2.988281 33.15625-12.46875 9.472656-9.476562 11.695313-24.382812 12.15625-32.824219zm0 0"/><path d="m21.578125 117.203125c16.210937 16.210937 44.921875 14.601563 44.921875 14.601563s1.613281-28.714844-14.597656-44.925782c-16.214844-16.210937-44.515625-14.191406-44.515625-14.191406s-2.019531 28.304688 14.191406 44.515625zm0 0" fill="#feda38"/><path d="m64.257812 138.675781c-8.007812 0-32.195312-1.339843-47.503906-16.648437-18.210937-18.203125-16.265625-48.542969-16.175781-49.824219.242187-3.386719 2.933594-6.082031 6.320313-6.324219 1.273437-.09375 31.613281-2.042968 49.832031 16.171875 18.160156 18.164063 16.664062 48.839844 16.589843 50.136719-.195312 3.46875-2.96875 6.234375-6.433593 6.433594-.207031.007812-1.136719.054687-2.628907.054687zm-50.011718-59.144531c.457031 8.4375 2.675781 23.363281 12.160156 32.84375 9.535156 9.53125 24.5625 11.925781 33.140625 12.484375-.578125-8.59375-2.992187-23.671875-12.472656-33.15625-9.535157-9.53125-24.40625-11.730469-32.828125-12.171875zm0 0"/><path d="m120.546875 180.566406c-16.210937 16.210938-44.921875 14.597656-44.921875 14.597656s-1.609375-28.710937 14.601562-44.921874c16.210938-16.210938 44.515626-14.191407 44.515626-14.191407s2.015624 28.300781-14.195313 44.515625zm0 0" fill="#feda38"/><path d="m77.871094 202.039062c-1.5 0-2.425782-.046874-2.632813-.058593-3.46875-.195313-6.234375-2.960938-6.433593-6.433594-.074219-1.296875-1.570313-31.972656 16.589843-50.132813 18.203125-18.207031 48.542969-16.269531 49.832031-16.175781 3.386719.242188 6.078126 2.9375 6.320313 6.320313.09375 1.285156 2.035156 31.625-16.175781 49.832031-15.300782 15.308594-39.492188 16.648437-47.5 16.648437zm50.007812-59.128906c-8.441406.460938-23.351562 2.683594-32.828125 12.160156-9.53125 9.53125-11.925781 24.5625-12.484375 33.140626 8.59375-.578126 23.671875-2.992188 33.15625-12.472657 9.472656-9.476562 11.695313-24.382812 12.15625-32.828125zm0 0"/><path d="m21.578125 180.566406c16.210937 16.210938 44.921875 14.597656 44.921875 14.597656s1.613281-28.710937-14.597656-44.921874c-16.214844-16.210938-44.515625-14.191407-44.515625-14.191407s-2.019531 28.300781 14.191406 44.515625zm0 0" fill="#feda38"/><path d="m64.257812 202.039062c-8.007812 0-32.195312-1.339843-47.503906-16.648437-18.210937-18.207031-16.265625-48.546875-16.175781-49.828125.242187-3.386719 2.933594-6.078125 6.320313-6.324219 1.285156-.078125 31.628906-2.023437 49.832031 16.179688 18.160156 18.160156 16.664062 48.835937 16.589843 50.132812-.195312 3.46875-2.964843 6.234375-6.433593 6.433594-.207031.007813-1.136719.054687-2.628907.054687zm-50.011718-59.148437c.457031 8.441406 2.675781 23.363281 12.160156 32.847656 9.535156 9.53125 24.5625 11.925781 33.140625 12.484375-.578125-8.59375-2.992187-23.675781-12.472656-33.15625-9.535157-9.53125-24.40625-11.734375-32.828125-12.175781zm0 0"/><path d="m120.546875 239.054688c-16.210937 16.210937-44.921875 14.601562-44.921875 14.601562s-1.609375-28.714844 14.601562-44.925781c16.210938-16.210938 44.515626-14.191407 44.515626-14.191407s2.015624 28.304688-14.195313 44.515626zm0 0" fill="#feda38"/><path d="m77.871094 260.527344c-1.5 0-2.425782-.042969-2.632813-.054688-3.46875-.195312-6.234375-2.960937-6.433593-6.433594-.074219-1.296874-1.570313-31.972656 16.589843-50.132812 18.210938-18.203125 48.550781-16.265625 49.832031-16.179688 3.386719.246094 6.078126 2.9375 6.320313 6.324219.09375 1.285157 2.035156 31.621094-16.175781 49.828125-15.300782 15.308594-39.492188 16.648438-47.5 16.648438zm50.007812-59.128906c-8.441406.460937-23.351562 2.683593-32.828125 12.160156-9.53125 9.53125-11.925781 24.5625-12.484375 33.140625 8.59375-.578125 23.671875-2.992188 33.15625-12.476563 9.472656-9.472656 11.695313-24.378906 12.15625-32.824218zm0 0"/><path d="m21.578125 239.054688c16.210937 16.210937 44.921875 14.601562 44.921875 14.601562s1.613281-28.714844-14.597656-44.925781c-16.214844-16.210938-44.515625-14.191407-44.515625-14.191407s-2.019531 28.304688 14.191406 44.515626zm0 0" fill="#feda38"/><path d="m64.257812 260.527344c-8.003906 0-32.199218-1.339844-47.503906-16.648438-18.210937-18.203125-16.265625-48.542968-16.175781-49.828125.242187-3.382812 2.933594-6.078125 6.320313-6.320312 1.277343-.09375 31.625-2.035157 49.832031 16.175781 18.160156 18.160156 16.664062 48.835938 16.589843 50.132812-.195312 3.472657-2.964843 6.238282-6.433593 6.433594-.207031.011719-1.136719.054688-2.628907.054688zm-50.011718-59.128906c.460937 8.441406 2.683594 23.351562 12.160156 32.824218 9.535156 9.535156 24.5625 11.929688 33.140625 12.492188-.578125-8.597656-2.992187-23.679688-12.472656-33.160156-9.472657-9.472657-24.382813-11.695313-32.828125-12.15625zm0 0"/><path d="m120.546875 302.414062c-16.210937 16.214844-44.921875 14.601563-44.921875 14.601563s-1.609375-28.710937 14.601562-44.921875c16.210938-16.210938 44.515626-14.191406 44.515626-14.191406s2.015624 28.300781-14.195313 44.511718zm0 0" fill="#feda38"/><path d="m77.875 323.890625c-1.5 0-2.433594-.046875-2.636719-.058594-3.46875-.195312-6.234375-2.964843-6.433593-6.433593-.074219-1.296876-1.570313-31.96875 16.589843-50.132813 18.207031-18.199219 48.542969-16.273437 49.832031-16.175781 3.386719.246094 6.078126 2.9375 6.320313 6.324218.09375 1.285157 2.035156 31.625-16.175781 49.828126-15.296875 15.304687-39.480469 16.648437-47.496094 16.648437zm50.003906-59.128906c-8.441406.460937-23.351562 2.683593-32.828125 12.15625-9.53125 9.535156-11.925781 24.5625-12.484375 33.140625 8.59375-.578125 23.671875-2.988282 33.15625-12.472656 9.472656-9.472657 11.695313-24.378907 12.15625-32.824219zm0 0"/><path d="m21.578125 302.414062c16.210937 16.214844 44.921875 14.601563 44.921875 14.601563s1.613281-28.710937-14.597656-44.921875c-16.214844-16.210938-44.515625-14.191406-44.515625-14.191406s-2.019531 28.300781 14.191406 44.511718zm0 0" fill="#feda38"/><path d="m64.25 323.890625c-8.011719 0-32.195312-1.34375-47.496094-16.648437-18.210937-18.203126-16.265625-48.542969-16.175781-49.824219.242187-3.386719 2.933594-6.082031 6.320313-6.324219 1.273437-.097656 31.613281-2.039062 49.832031 16.171875 18.160156 18.164063 16.664062 48.835937 16.589843 50.132813-.195312 3.46875-2.964843 6.238281-6.433593 6.4375-.203125.007812-1.136719.054687-2.636719.054687zm-50.003906-59.144531c.457031 8.4375 2.675781 23.359375 12.160156 32.84375 9.535156 9.53125 24.5625 11.925781 33.140625 12.484375-.578125-8.59375-2.992187-23.671875-12.472656-33.15625-9.535157-9.535157-24.40625-11.734375-32.828125-12.171875zm0 0"/><path d="m71.0625 379.953125c-3.769531 0-6.824219-3.058594-6.824219-6.828125v-282.691406c0-3.769532 3.054688-6.828125 6.824219-6.828125s6.828125 3.058593 6.828125 6.828125v282.691406c0 3.769531-3.058594 6.828125-6.828125 6.828125zm0 0"/></svg>