<?xml version="1.0" encoding="iso-8859-1"?>
<!-- Generator: Adobe Illustrator 21.0.0, SVG Export Plug-In . SVG Version: 6.00 Build 0)  -->
<svg xmlns="http://www.w3.org/2000/svg" xmlns:xlink="http://www.w3.org/1999/xlink" version="1.1" id="Capa_1" x="0px" y="0px" viewBox="0 0 43.69 43.69" style="enable-background:new 0 0 43.69 43.69;" xml:space="preserve" width="512" height="512">
<g>
	<g id="_Group__516_">
		
			<ellipse id="_Ellipse__586_" style="opacity:0.15;fill:#45413C;enable-background:new    ;" cx="22.325" cy="41.83" rx="19.81" ry="1.86"/>
		<path id="_Path__606_" style="fill:#FFFFFF;" d="M7.005,18.59l-1,3.44c-0.178,0.621-0.591,1.148-1.15,1.47l-1.77,1    c-1.045,0.601-1.69,1.714-1.69,2.92v4.87c0,0.679,0.551,1.23,1.23,1.23c0.003,0,0.007,0,0.01,0h18V14.33h-8    C10.019,14.337,7.723,16.074,7.005,18.59z"/>
		<path id="_Path_2_598_" style="fill:#F0F0F0;" d="M1.415,29.81v2.48c0,0.679,0.551,1.23,1.23,1.23c0.003,0,0.007,0,0.01,0h18    v-2.47h-18C1.97,31.05,1.415,30.495,1.415,29.81L1.415,29.81z"/>
		<path style="fill:#45413C;" d="M2.625,34.021c-0.954-0.001-1.73-0.777-1.73-1.73v-4.87c0-1.381,0.744-2.666,1.941-3.354    l1.773-1.002c0.446-0.257,0.772-0.674,0.916-1.172l1-3.44c0.775-2.714,3.287-4.615,6.109-4.622h8.001c0.276,0,0.5,0.224,0.5,0.5    V33.52c0,0.276-0.224,0.5-0.5,0.5H2.656C2.645,34.021,2.635,34.021,2.625,34.021z M12.635,14.83    c-2.378,0.006-4.496,1.608-5.149,3.897c0,0.001,0,0.001-0.001,0.002l-1,3.44c-0.215,0.748-0.705,1.375-1.38,1.764l-1.773,1.002    c-0.884,0.508-1.436,1.461-1.436,2.484v4.87c0,0.396,0.318,0.72,0.713,0.73c0.009-0.001,0.018-0.001,0.027-0.001h17.5V14.83    H12.635z M7.005,18.59h0.01H7.005z"/>
		<path id="_Rectangle__205_" style="fill:#ADC4D9;" d="M2.035,33.52h31.57l0,0v5l0,0H2.035c-0.685,0-1.24-0.555-1.24-1.24l0,0    v-2.52C0.795,34.075,1.35,33.52,2.035,33.52z"/>
		<path id="_Path_4_590_" style="fill:#8CA4B8;" d="M0.795,35.15v2.09c0,0.685,0.555,1.24,1.24,1.24c0,0,0,0,0,0h31.57v-2.09H2.035    C1.35,36.39,0.795,35.835,0.795,35.15L0.795,35.15z"/>
		<path style="fill:#45413C;" d="M33.605,39.02H2.035c-0.959,0-1.74-0.78-1.74-1.739V34.76c0-0.96,0.781-1.74,1.74-1.74h31.569    c0.276,0,0.5,0.224,0.5,0.5v5C34.105,38.796,33.881,39.02,33.605,39.02z M2.035,34.02c-0.408,0-0.74,0.332-0.74,0.74v2.521    c0,0.407,0.332,0.739,0.74,0.739h31.069v-4H2.035z"/>
		<path id="_Rectangle_3_163_" style="fill:#FFFFFF;" d="M23.085,8.76h17.33c1.37,0,2.48,1.11,2.48,2.48v24.75    c0,1.37-1.11,2.48-2.48,2.48h-17.33c-1.37,0-2.48-1.11-2.48-2.48V11.24C20.605,9.87,21.716,8.76,23.085,8.76z"/>
		<path id="_Path_5_579_" style="fill:#F0F0F0;" d="M40.415,33.52h-17.33c-1.366,0-2.474-1.104-2.48-2.47v5    c0,1.37,1.11,2.48,2.48,2.48h17.33c1.37,0,2.48-1.11,2.48-2.48v-5C42.89,32.416,41.781,33.52,40.415,33.52z"/>
		<path style="fill:#45413C;" d="M40.415,38.97h-17.33c-1.643,0-2.98-1.337-2.98-2.979V11.24c0-1.644,1.337-2.98,2.98-2.98h17.33    c1.643,0,2.979,1.337,2.979,2.98v24.75C43.395,37.633,42.058,38.97,40.415,38.97z M23.085,9.26c-1.092,0-1.98,0.889-1.98,1.98    v24.75c0,1.092,0.888,1.979,1.98,1.979h17.33c1.092,0,1.979-0.888,1.979-1.979V11.24c0-1.092-0.888-1.98-1.979-1.98H23.085z"/>
		<circle id="_Path_6_541_" style="fill:#656769;" cx="12.555" cy="37.24" r="4.95"/>
		<path id="_Path_7_520_" style="fill:#87898C;" d="M12.555,34.76c2.253,0.004,4.217,1.536,4.77,3.72    c0.108-0.405,0.165-0.821,0.17-1.24c0-2.734-2.217-4.95-4.951-4.949c-2.733,0-4.949,2.216-4.949,4.949    c0.004,0.42,0.064,0.837,0.18,1.24C8.329,36.292,10.298,34.76,12.555,34.76z"/>
		<path style="fill:#45413C;" d="M12.555,42.69c-3.005,0-5.45-2.445-5.45-5.45s2.445-5.45,5.45-5.45c3.005,0,5.45,2.445,5.45,5.45    S15.56,42.69,12.555,42.69z M12.555,32.79c-2.454,0-4.45,1.996-4.45,4.45s1.996,4.45,4.45,4.45s4.45-1.996,4.45-4.45    S15.009,32.79,12.555,32.79z"/>
		<circle id="_Path_9_460_" style="fill:#656769;" cx="34.225" cy="37.24" r="4.95"/>
		<path id="_Path_10_424_" style="fill:#87898C;" d="M34.225,34.76c2.249,0.024,4.204,1.546,4.78,3.72    c0.108-0.405,0.165-0.821,0.17-1.24c0-2.734-2.217-4.95-4.951-4.949c-2.733,0-4.949,2.216-4.949,4.949    c0.005,0.419,0.062,0.835,0.17,1.24C29.999,36.292,31.968,34.76,34.225,34.76z"/>
		<path style="fill:#45413C;" d="M34.225,42.69c-3.005,0-5.449-2.445-5.449-5.45s2.444-5.45,5.449-5.45s5.45,2.445,5.45,5.45    S37.23,42.69,34.225,42.69z M34.225,32.79c-2.453,0-4.449,1.996-4.449,4.45s1.996,4.45,4.449,4.45c2.454,0,4.45-1.996,4.45-4.45    S36.679,32.79,34.225,32.79z"/>
		<path id="_Path_12_366_" style="fill:#00B8F0;" d="M16.325,23.62h-5.32c-0.685,0-1.24-0.555-1.24-1.24    c0-0.091,0.01-0.181,0.03-0.27l0.53-2.13c0.249-1.13,1.253-1.934,2.41-1.93h3.59c0.679,0,1.23,0.551,1.23,1.23    c0,0.003,0,0.007,0,0.01v3.09C17.555,23.061,17.006,23.615,16.325,23.62z"/>
		<path id="_Path_13_347_" style="fill:#4ACFFF;" d="M12.685,18.05c-1.139,0.02-2.115,0.818-2.36,1.93l-0.48,2.13    c-0.15,0.663,0.266,1.321,0.929,1.471c0.073,0.016,0.147,0.026,0.221,0.029l4.29-5.56L12.685,18.05z"/>
		<path style="fill:#45413C;" d="M16.325,24.12h-5.32c-0.959,0-1.74-0.78-1.74-1.74c0-0.126,0.014-0.254,0.042-0.378l0.533-2.143    c0.294-1.334,1.51-2.31,2.888-2.31c0.003,0,0.006,0,0.009,0h3.588c0.954,0,1.73,0.776,1.73,1.73l0,3.1    c0,0.951-0.773,1.732-1.726,1.74C16.328,24.12,16.326,24.12,16.325,24.12z M12.729,18.55c-0.915,0-1.719,0.646-1.916,1.538    l-0.533,2.144c-0.009,0.041-0.015,0.095-0.015,0.148c0,0.408,0.332,0.74,0.74,0.74h5.317c0.404-0.005,0.733-0.336,0.732-0.74    v-3.09c0-0.413-0.327-0.74-0.73-0.74h-3.59C12.733,18.55,12.731,18.55,12.729,18.55z"/>
		<g>
			<path id="_Path_15_300_" style="fill:#FF6242;" d="M1.415,27.43v2.38h19.19v-3.72H1.715C1.525,26.512,1.423,26.968,1.415,27.43z"/>
			<path style="fill:#45413C;" d="M20.605,30.31H1.415c-0.276,0-0.5-0.224-0.5-0.5v-2.38c0-0.003,0-0.006,0-0.009     c0.009-0.532,0.125-1.05,0.344-1.536c0.081-0.18,0.259-0.295,0.456-0.295h18.89c0.276,0,0.5,0.224,0.5,0.5v3.72     C21.105,30.086,20.882,30.31,20.605,30.31z M1.915,29.31h18.19v-2.72H2.057c-0.089,0.272-0.136,0.556-0.142,0.845V29.31z"/>
		</g>
		<g>
			<rect id="_Rectangle_5_118_" x="20.605" y="26.09" style="fill:#FF6242;" width="22.29" height="3.71"/>
			<path style="fill:#45413C;" d="M42.895,30.3h-22.29c-0.276,0-0.5-0.224-0.5-0.5v-3.71c0-0.276,0.224-0.5,0.5-0.5h22.29     c0.276,0,0.5,0.224,0.5,0.5v3.71C43.395,30.076,43.171,30.3,42.895,30.3z M21.105,29.3h21.29v-2.71h-21.29V29.3z"/>
		</g>
		<g>
			<path id="_Rectangle_6_108_" style="fill:#FFE500;" d="M1.415,27.43h1.86c0.685,0.005,1.236,0.565,1.23,1.25     c0,0.003,0,0.007,0,0.01v1.15c0,0.685-0.555,1.24-1.24,1.24c0,0,0,0,0,0h-1.85l0,0V27.43L1.415,27.43z"/>
			<path style="fill:#45413C;" d="M3.265,31.58h-1.85c-0.276,0-0.5-0.224-0.5-0.5v-3.65c0-0.276,0.224-0.5,0.5-0.5h1.86     c0.963,0.008,1.737,0.795,1.73,1.754v1.156C5.005,30.8,4.225,31.58,3.265,31.58z M1.915,30.58h1.35c0.408,0,0.74-0.332,0.74-0.74     V28.69c0.003-0.423-0.326-0.757-0.734-0.761H1.915V30.58z"/>
		</g>
		<g>
			<polygon id="_Path_16_288_" style="fill:#FF6242;" points="36.085,15.57 33.605,15.57 33.605,13.09 29.895,13.09 29.895,15.57      27.415,15.57 27.415,19.28 29.895,19.28 29.895,21.76 33.605,21.76 33.605,19.28 36.085,19.28    "/>
			<path style="fill:#45413C;" d="M33.605,22.26h-3.71c-0.276,0-0.5-0.224-0.5-0.5v-1.98h-1.979c-0.276,0-0.5-0.224-0.5-0.5v-3.71     c0-0.276,0.224-0.5,0.5-0.5h1.979v-1.98c0-0.276,0.224-0.5,0.5-0.5h3.71c0.276,0,0.5,0.224,0.5,0.5v1.98h1.98     c0.276,0,0.5,0.224,0.5,0.5v3.71c0,0.276-0.224,0.5-0.5,0.5h-1.98v1.98C34.105,22.036,33.881,22.26,33.605,22.26z M30.395,21.26     h2.71v-1.98c0-0.276,0.224-0.5,0.5-0.5h1.98v-2.71h-1.98c-0.276,0-0.5-0.224-0.5-0.5v-1.98h-2.71v1.98c0,0.276-0.224,0.5-0.5,0.5     h-1.979v2.71h1.979c0.276,0,0.5,0.224,0.5,0.5V21.26z"/>
		</g>
		<path style="fill:#FF8A14;" d="M14.415,10c-1.37,0-2.48,1.11-2.48,2.48v1.85h5v-1.85c0-1.37-1.11-2.48-2.48-2.48    C14.442,10,14.429,10,14.415,10z"/>
		<path style="fill:#FFAA54;" d="M14.415,10c-1.37,0-2.48,1.11-2.48,2.48v1.75c0-1.381,1.119-2.5,2.5-2.5s2.5,1.119,2.5,2.5v-1.75    c0-1.37-1.11-2.48-2.48-2.48C14.442,10,14.429,10,14.415,10z"/>
		<path style="fill:#45413C;" d="M16.935,14.83h-5c-0.276,0-0.5-0.224-0.5-0.5v-1.85c0-1.643,1.337-2.98,2.98-2.98v1    c-1.092,0-1.98,0.888-1.98,1.98v1.35h4v-1.35c0-1.092-0.888-1.98-1.98-1.98l-0.04-0.5l0.011-0.5c1.672,0,3.009,1.337,3.009,2.98    v1.85C17.435,14.606,17.212,14.83,16.935,14.83z"/>
		<g>
			<circle id="_Path_17_256_" style="fill:#C0DCEB;" cx="12.555" cy="37.24" r="1.86"/>
			<path style="fill:#45413C;" d="M12.555,39.6c-1.301,0-2.36-1.059-2.36-2.359c0-1.302,1.059-2.36,2.36-2.36s2.36,1.059,2.36,2.36     C14.915,38.541,13.856,39.6,12.555,39.6z M12.555,35.88c-0.75,0-1.36,0.61-1.36,1.36s0.61,1.359,1.36,1.359     s1.36-0.609,1.36-1.359S13.305,35.88,12.555,35.88z"/>
		</g>
		<g>
			<circle id="_Path_18_221_" style="fill:#C0DCEB;" cx="34.225" cy="37.24" r="1.86"/>
			<path style="fill:#45413C;" d="M34.225,39.6c-1.301,0-2.359-1.059-2.359-2.359c0-1.302,1.059-2.36,2.359-2.36     c1.302,0,2.36,1.059,2.36,2.36C36.585,38.541,35.527,39.6,34.225,39.6z M34.225,35.88c-0.75,0-1.359,0.61-1.359,1.36     s0.609,1.359,1.359,1.359s1.36-0.609,1.36-1.359S34.975,35.88,34.225,35.88z"/>
		</g>
		<g>
			<polygon id="_Path_19_200_" style="fill:#FFE500;" points="14.415,4.89 12.565,0.5 16.235,0.5    "/>
			<path style="fill:#45413C;" d="M14.415,5.39c-0.201,0-0.383-0.121-0.461-0.306l-1.85-4.39c-0.065-0.155-0.048-0.331,0.044-0.471     S12.398,0,12.565,0h3.67c0.167,0,0.323,0.083,0.416,0.222c0.093,0.139,0.11,0.315,0.046,0.469l-1.82,4.39     C14.8,5.268,14.618,5.39,14.417,5.39C14.416,5.39,14.416,5.39,14.415,5.39z M13.319,1l1.093,2.594L15.487,1H13.319z"/>
		</g>
		<g>
			<polygon id="_Path_20_178_" style="fill:#FFE500;" points="9.035,6.74 4.625,4.95 7.215,2.36    "/>
			<path style="fill:#45413C;" d="M9.035,7.24c-0.063,0-0.127-0.012-0.188-0.037l-4.41-1.79c-0.155-0.063-0.269-0.2-0.302-0.364     C4.102,4.885,4.153,4.715,4.272,4.597l2.59-2.59C6.98,1.888,7.149,1.836,7.312,1.87c0.164,0.032,0.3,0.144,0.365,0.298l1.82,4.38     C9.574,6.734,9.533,6.949,9.39,7.092C9.295,7.189,9.166,7.24,9.035,7.24z M5.512,4.771l2.603,1.056L7.04,3.242L5.512,4.771z"/>
		</g>
		<g>
			<polygon id="_Path_21_164_" style="fill:#FFE500;" points="7.225,11.82 2.835,13.66 2.835,10    "/>
			<path style="fill:#45413C;" d="M2.835,14.16c-0.097,0-0.194-0.028-0.277-0.083c-0.139-0.093-0.223-0.249-0.223-0.417V10     c0-0.167,0.083-0.323,0.222-0.416c0.139-0.093,0.315-0.109,0.469-0.046l4.39,1.82c0.187,0.077,0.308,0.259,0.309,0.461     s-0.121,0.384-0.307,0.462l-4.39,1.84C2.967,14.147,2.901,14.16,2.835,14.16z M3.335,10.749v2.16l2.591-1.086L3.335,10.749z"/>
		</g>
		<g>
			<polygon id="_Path_22_147_" style="fill:#FFE500;" points="19.535,6.74 23.945,4.95 21.355,2.36    "/>
			<path style="fill:#45413C;" d="M19.535,7.24c-0.131,0-0.259-0.051-0.355-0.148c-0.142-0.143-0.184-0.357-0.107-0.544l1.82-4.38     c0.064-0.154,0.201-0.266,0.365-0.298c0.164-0.034,0.333,0.019,0.451,0.137l2.59,2.59c0.118,0.119,0.17,0.289,0.137,0.453     c-0.033,0.165-0.146,0.301-0.302,0.364l-4.411,1.79C19.662,7.228,19.599,7.24,19.535,7.24z M21.53,3.242l-1.074,2.585     l2.603-1.056L21.53,3.242z"/>
		</g>
	</g>
</g>















</svg>
