<?xml version="1.0" encoding="iso-8859-1"?>
<!-- Generator: Adobe Illustrator 21.0.0, SVG Export Plug-In . SVG Version: 6.00 Build 0)  -->
<svg xmlns="http://www.w3.org/2000/svg" xmlns:xlink="http://www.w3.org/1999/xlink" version="1.1" id="Capa_1" x="0px" y="0px" viewBox="0 0 44.55 44.55" style="enable-background:new 0 0 44.55 44.55;" xml:space="preserve" width="512" height="512">
<g>
	<g id="_Group__508_">
		<path id="_Path__595_" style="opacity:0.15;fill:#45413C;enable-background:new    ;" d="M44.525,43.25c0,1-10,1.3-22.25,1.3    s-22.25-0.31-22.25-1.3s10-1.81,22.25-1.81S44.525,42.25,44.525,43.25z"/>
		<path id="_Rectangle__196_" style="fill:#FFFFFF;" d="M4.835,0.5h34.87c1.994,0,3.61,1.616,3.61,3.61v34.87    c0,1.994-1.616,3.61-3.61,3.61H4.835c-1.994,0-3.61-1.616-3.61-3.61V4.11C1.225,2.116,2.841,0.5,4.835,0.5z"/>
		<path id="_Path_2_587_" style="fill:#F0F0F0;" d="M39.715,39.55H4.835c-1.959-0.027-3.538-1.611-3.56-3.57v3    c0,1.994,1.616,3.61,3.61,3.61h0h34.83c1.994,0,3.61-1.616,3.61-3.61l0,0v-3C43.303,37.958,41.693,39.55,39.715,39.55z"/>
		<path style="fill:#45413C;" d="M39.705,43.09H4.835c-2.266,0-4.11-1.844-4.11-4.109V4.11C0.725,1.844,2.569,0,4.835,0h34.87    c2.267,0,4.11,1.844,4.11,4.11V38.98C43.815,41.246,41.971,43.09,39.705,43.09z M4.835,1c-1.715,0-3.11,1.395-3.11,3.11V38.98    c0,1.715,1.395,3.109,3.11,3.109h34.87c1.715,0,3.11-1.395,3.11-3.109V4.11c0-1.715-1.396-3.11-3.11-3.11H4.835z"/>
		<path id="_Rectangle_3_155_" style="fill:#00B8F0;" d="M5.435,3.51h33.68c0.663,0,1.2,0.537,1.2,1.2v33.68    c0,0.663-0.537,1.2-1.2,1.2H5.435c-0.663,0-1.2-0.537-1.2-1.2V4.71C4.235,4.047,4.772,3.51,5.435,3.51z"/>
		<path id="_Path_3_584_" style="fill:#009FD9;" d="M39.115,36.55H5.435c-0.636-0.021-1.144-0.534-1.16-1.17v3    c0.016,0.636,0.524,1.149,1.16,1.17h33.68c0.663,0,1.2-0.537,1.2-1.2l0,0v-3C40.315,36.013,39.778,36.55,39.115,36.55    L39.115,36.55z"/>
		<path style="fill:#45413C;" d="M39.115,40.09H5.435c-0.938,0-1.7-0.763-1.7-1.7V4.71c0-0.938,0.763-1.7,1.7-1.7h33.68    c0.938,0,1.7,0.763,1.7,1.7v33.68C40.815,39.327,40.052,40.09,39.115,40.09z M5.435,4.01c-0.386,0-0.7,0.314-0.7,0.7v33.68    c0,0.386,0.314,0.7,0.7,0.7h33.68c0.386,0,0.7-0.314,0.7-0.7V4.71c0-0.386-0.314-0.7-0.7-0.7H5.435z"/>
		<polygon id="_Path_4_579_" style="fill:#FF6242;" points="19.865,21.55 12.055,39.59 16.865,39.59 22.275,23.96 27.685,39.59     32.495,39.59 24.685,21.55   "/>
		<g id="_Group_2_339_">
			<polygon id="_Path_5_568_" style="fill:#E04122;" points="13.355,36.58 12.055,39.59 16.865,39.59 17.905,36.58    "/>
			<polygon id="_Path_6_530_" style="fill:#E04122;" points="26.645,36.58 27.685,39.59 32.495,39.59 31.195,36.58    "/>
		</g>
		<path style="fill:#45413C;" d="M32.495,39.94h-4.81c-0.213,0-0.402-0.135-0.473-0.337l-4.938-14.266l-4.938,14.266    c-0.07,0.202-0.26,0.337-0.473,0.337h-4.81c-0.168,0-0.326-0.085-0.418-0.226s-0.108-0.318-0.041-0.473l7.81-18.041    c0.079-0.183,0.26-0.301,0.459-0.301h4.82c0.199,0,0.38,0.119,0.459,0.301l7.81,18.041c0.066,0.154,0.052,0.332-0.041,0.473    S32.663,39.94,32.495,39.94z M28.042,38.94h3.691L24.357,21.9h-4.164L12.816,38.94h3.693l5.293-15.294    c0.14-0.404,0.806-0.404,0.945,0L28.042,38.94z"/>
		<g>
			<path id="_Compound_Path__105_" style="fill:#FFFFFF;" d="M22.275,8.92c-6.975,0-12.63,5.655-12.63,12.63     s5.655,12.63,12.63,12.63s12.63-5.655,12.63-12.63C34.899,14.577,29.248,8.926,22.275,8.92z M22.275,31.17     c-5.313,0-9.62-4.307-9.62-9.62c0-5.313,4.307-9.62,9.62-9.62c5.313,0,9.62,4.307,9.62,9.62v0     C31.895,26.863,27.588,31.17,22.275,31.17z"/>
			<path style="fill:#45413C;" d="M22.275,34.68c-7.24,0-13.13-5.89-13.13-13.13c0-7.24,5.89-13.13,13.13-13.13h0     c7.234,0.005,13.124,5.896,13.129,13.129C35.405,28.79,29.515,34.68,22.275,34.68z M22.275,9.42     c-6.688,0-12.13,5.441-12.13,12.13s5.441,12.13,12.13,12.13s12.13-5.441,12.13-12.13C34.399,14.867,28.958,9.425,22.275,9.42     L22.275,9.42z M22.275,31.67c-5.58,0-10.12-4.54-10.12-10.12s4.54-10.12,10.12-10.12s10.12,4.54,10.12,10.12     S27.855,31.67,22.275,31.67z M22.275,12.43c-5.029,0-9.12,4.091-9.12,9.12c0,5.029,4.091,9.12,9.12,9.12     c5.029,0,9.12-4.091,9.12-9.12C31.395,16.521,27.304,12.43,22.275,12.43z"/>
		</g>
		<circle id="_Path_8_482_" style="fill:#FF6242;" cx="22.275" cy="10.73" r="3.01"/>
		<circle id="_Path_9_449_" style="fill:#FF6242;" cx="22.275" cy="32.98" r="3.01"/>
		<path id="_Path_10_413_" style="fill:#FF6242;" d="M14.145,13.68c1.432,0.833,1.918,2.669,1.085,4.101    c-0.833,1.432-2.669,1.918-4.101,1.085c-1.427-0.83-1.915-2.656-1.094-4.087c0.825-1.437,2.658-1.933,4.095-1.109    C14.135,13.674,14.14,13.677,14.145,13.68z"/>
		<path id="_Path_11_382_" style="fill:#FF6242;" d="M33.415,24.81c1.425,0.845,1.895,2.686,1.05,4.111    c-0.845,1.425-2.686,1.895-4.111,1.05c-1.405-0.834-1.885-2.639-1.079-4.06c0.817-1.441,2.648-1.947,4.09-1.129    C33.381,24.79,33.398,24.8,33.415,24.81z"/>
		<path id="_Path_12_356_" style="fill:#FF6242;" d="M11.135,24.81c1.437-0.825,3.27-0.328,4.095,1.109    c0.825,1.437,0.328,3.27-1.109,4.095c-1.431,0.821-3.257,0.333-4.087-1.094c-0.833-1.432-0.347-3.269,1.085-4.101    C11.125,24.816,11.13,24.813,11.135,24.81z"/>
		<path id="_Path_13_337_" style="fill:#FF6242;" d="M30.405,13.68c1.444-0.812,3.273-0.3,4.086,1.144    c0.812,1.444,0.3,3.273-1.144,4.086c-1.434,0.807-3.251,0.307-4.072-1.119c-0.826-1.436-0.331-3.27,1.106-4.096    C30.389,13.689,30.397,13.685,30.405,13.68z"/>
		<path id="_Path_14_310_" style="fill:#FF866E;" d="M22.275,9.82c1.268,0.004,2.397,0.804,2.82,2    c0.126-0.349,0.187-0.719,0.18-1.09c0-1.657-1.343-3-3-3s-3,1.343-3,3c0.001,0.358,0.065,0.714,0.19,1.05    C19.9,10.603,21.021,9.822,22.275,9.82z"/>
		<path id="_Path_15_290_" style="fill:#FF866E;" d="M22.275,32.07c1.268,0.004,2.397,0.804,2.82,2c0.119-0.32,0.183-0.658,0.19-1    c0-1.657-1.343-3-3-3s-3,1.343-3,3c0.007,0.342,0.071,0.68,0.19,1C19.895,32.881,21.014,32.082,22.275,32.07z"/>
		<path id="_Path_16_277_" style="fill:#FF866E;" d="M10.035,16.89c0.825-1.437,2.658-1.933,4.095-1.109    c0.005,0.003,0.01,0.006,0.015,0.009c0.603,0.349,1.067,0.897,1.31,1.55c0.573-1.555-0.223-3.279-1.778-3.852    c-1.555-0.573-3.279,0.223-3.852,1.778c-0.247,0.669-0.247,1.405,0,2.074C9.887,17.186,9.957,17.036,10.035,16.89z"/>
		<path id="_Path_17_246_" style="fill:#FF6242;" d="M29.275,28.01c0.822-1.439,2.654-1.939,4.093-1.118    c0.613,0.35,1.083,0.905,1.327,1.568c0.573-1.555-0.223-3.279-1.778-3.852c-1.555-0.573-3.279,0.223-3.852,1.778    c-0.247,0.669-0.247,1.405,0,2.074C29.125,28.306,29.195,28.155,29.275,28.01z"/>
		<path id="_Path_18_213_" style="fill:#FF866E;" d="M11.135,26.91c1.425-0.845,3.265-0.375,4.111,1.05    c0.01,0.017,0.02,0.034,0.029,0.05c0.08,0.149,0.15,0.302,0.21,0.46c0.573-1.555-0.223-3.279-1.778-3.852    c-1.555-0.573-3.279,0.223-3.852,1.778c-0.247,0.669-0.247,1.405,0,2.074C10.089,27.818,10.541,27.267,11.135,26.91z"/>
		<path id="_Path_19_192_" style="fill:#FF866E;" d="M30.405,15.79c1.432-0.833,3.269-0.347,4.101,1.085    c0.003,0.005,0.006,0.01,0.009,0.015c0.078,0.146,0.148,0.296,0.21,0.45c0.573-1.555-0.223-3.279-1.778-3.852    c-1.555-0.573-3.279,0.223-3.852,1.778c-0.247,0.669-0.247,1.405,0,2.074C29.338,16.687,29.802,16.139,30.405,15.79z"/>
		<circle id="_Path_20_168_" style="fill:#FF6242;" cx="22.275" cy="21.55" r="2.41"/>
		<path id="_Path_21_152_" style="fill:#FF866E;" d="M22.275,20.95c1.015,0.004,1.919,0.644,2.26,1.6    c0.096-0.266,0.147-0.547,0.15-0.83c-0.001-1.331-1.08-2.41-2.411-2.409c-1.33,0.001-2.408,1.079-2.409,2.409    c0.003,0.283,0.054,0.564,0.15,0.83C20.356,21.594,21.26,20.954,22.275,20.95z"/>
		<path style="fill:#45413C;" d="M22.275,14.24c-1.935,0-3.51-1.575-3.51-3.51c0-1.935,1.575-3.51,3.51-3.51    c1.936,0,3.51,1.575,3.51,3.51C25.785,12.666,24.211,14.24,22.275,14.24z M22.275,8.22c-1.384,0-2.51,1.126-2.51,2.51    c0,1.384,1.126,2.51,2.51,2.51s2.51-1.126,2.51-2.51C24.785,9.346,23.659,8.22,22.275,8.22z"/>
		<path style="fill:#45413C;" d="M12.631,19.775c-0.61,0-1.212-0.161-1.754-0.476c-1.659-0.964-2.231-3.104-1.276-4.768    c0.96-1.673,3.104-2.254,4.778-1.293c0,0,0.016,0.01,0.017,0.01c0.808,0.47,1.385,1.226,1.624,2.13    c0.239,0.904,0.112,1.847-0.358,2.655c-0.47,0.808-1.226,1.385-2.13,1.624C13.234,19.736,12.932,19.775,12.631,19.775z     M12.643,13.772c-0.866,0-1.712,0.451-2.175,1.256c-0.682,1.189-0.273,2.717,0.912,3.406c0.577,0.336,1.251,0.426,1.896,0.256    c0.646-0.171,1.186-0.583,1.521-1.161c0.335-0.577,0.426-1.25,0.256-1.896c-0.171-0.646-0.583-1.186-1.16-1.521    c-0.002-0.001-0.004-0.002-0.006-0.003L13.873,14.1C13.486,13.878,13.062,13.772,12.643,13.772z"/>
		<path style="fill:#45413C;" d="M31.879,30.892c-0.621,0-1.231-0.166-1.779-0.491c-1.629-0.966-2.193-3.091-1.259-4.737    c0.952-1.68,3.093-2.271,4.771-1.317c0.002,0.001,0.055,0.032,0.058,0.034c0.805,0.477,1.375,1.238,1.606,2.145    s0.096,1.848-0.382,2.651c-0.477,0.804-1.237,1.374-2.144,1.605C32.462,30.855,32.169,30.892,31.879,30.892z M31.89,24.889    c-0.224,0-0.449,0.03-0.671,0.092c-0.644,0.178-1.18,0.596-1.51,1.177c-0.667,1.175-0.264,2.693,0.899,3.384    c1.186,0.702,2.723,0.31,3.426-0.875c0.341-0.574,0.438-1.247,0.272-1.895c-0.165-0.646-0.572-1.19-1.146-1.531l-0.05-0.029    C32.735,24.998,32.316,24.889,31.89,24.889z"/>
		<path style="fill:#45413C;" d="M12.637,30.91c-1.208,0-2.386-0.624-3.034-1.739c-0.97-1.668-0.401-3.814,1.266-4.785    c0.001,0,0.017-0.01,0.018-0.01c1.674-0.962,3.818-0.38,4.777,1.294c0.466,0.811,0.587,1.754,0.343,2.656    c-0.245,0.903-0.826,1.656-1.637,2.121C13.824,30.761,13.227,30.91,12.637,30.91z M11.387,25.241l-0.01,0.006    c-1.197,0.696-1.603,2.229-0.911,3.422c0.689,1.185,2.217,1.593,3.406,0.911c0.58-0.332,0.995-0.87,1.169-1.515    s0.087-1.318-0.245-1.897C14.111,24.974,12.582,24.559,11.387,25.241z"/>
		<path style="fill:#45413C;" d="M31.886,19.792c-1.215,0-2.399-0.631-3.045-1.753c-0.466-0.81-0.589-1.754-0.345-2.656    c0.243-0.903,0.824-1.657,1.635-2.123c0.001,0,0.027-0.015,0.028-0.016c1.685-0.948,3.821-0.347,4.767,1.334    c0.945,1.683,0.347,3.821-1.335,4.767C33.053,19.648,32.466,19.792,31.886,19.792z M31.872,13.795    c-0.415,0-0.835,0.103-1.222,0.32l0,0c0,0-0.013,0.007-0.014,0.008c-0.586,0.336-1,0.875-1.175,1.52    c-0.174,0.645-0.086,1.319,0.247,1.897c0.682,1.184,2.202,1.604,3.393,0.933c1.201-0.675,1.629-2.203,0.954-3.405    C33.596,14.254,32.747,13.795,31.872,13.795z"/>
		<path style="fill:#45413C;" d="M22.275,24.61c-1.604,0-2.91-1.306-2.91-2.91s1.306-2.91,2.91-2.91s2.91,1.306,2.91,2.91    S23.879,24.61,22.275,24.61z M22.275,19.79c-1.053,0-1.91,0.857-1.91,1.91c0,1.054,0.857,1.91,1.91,1.91    c1.054,0,1.91-0.856,1.91-1.91C24.185,20.647,23.329,19.79,22.275,19.79z"/>
		<path style="fill:#45413C;" d="M22.275,19.64c-0.276,0-0.5-0.224-0.5-0.5v-5.41c0-0.276,0.224-0.5,0.5-0.5s0.5,0.224,0.5,0.5v5.41    C22.775,19.417,22.551,19.64,22.275,19.64z"/>
		<path style="fill:#45413C;" d="M19.864,20.85c-0.084,0-0.17-0.021-0.249-0.066l-4.2-2.41c-0.239-0.137-0.322-0.443-0.185-0.683    c0.137-0.239,0.441-0.322,0.683-0.185l4.2,2.41c0.239,0.137,0.322,0.443,0.185,0.683C20.206,20.76,20.038,20.85,19.864,20.85z"/>
		<path style="fill:#45413C;" d="M24.685,20.85c-0.173,0-0.341-0.09-0.434-0.251c-0.138-0.24-0.055-0.545,0.185-0.683l4.2-2.41    c0.239-0.137,0.543-0.056,0.683,0.185c0.138,0.24,0.055,0.545-0.185,0.683l-4.2,2.41C24.855,20.829,24.77,20.85,24.685,20.85z"/>
		<path style="fill:#45413C;" d="M15.666,26.26c-0.173,0-0.342-0.09-0.434-0.251c-0.138-0.239-0.055-0.545,0.185-0.683l4.2-2.41    c0.239-0.137,0.545-0.055,0.683,0.185s0.055,0.545-0.185,0.683l-4.2,2.41C15.836,26.238,15.75,26.26,15.666,26.26z"/>
		<path style="fill:#45413C;" d="M28.885,26.26c-0.085,0-0.17-0.021-0.249-0.066l-4.2-2.41c-0.239-0.138-0.322-0.443-0.185-0.683    c0.138-0.24,0.442-0.322,0.683-0.185l4.2,2.41c0.239,0.138,0.322,0.443,0.185,0.683C29.226,26.17,29.058,26.26,28.885,26.26z"/>
		<path style="fill:#45413C;" d="M22.275,36.49c-1.935,0-3.51-1.574-3.51-3.51s1.575-3.511,3.51-3.511    c1.936,0,3.51,1.575,3.51,3.511S24.211,36.49,22.275,36.49z M22.275,30.47c-1.384,0-2.51,1.126-2.51,2.511    c0,1.384,1.126,2.51,2.51,2.51s2.51-1.126,2.51-2.51C24.785,31.596,23.659,30.47,22.275,30.47z"/>
	</g>
</g>















</svg>
