<?xml version="1.0" encoding="iso-8859-1"?>
<!-- Generator: Adobe Illustrator 21.0.0, SVG Export Plug-In . SVG Version: 6.00 Build 0)  -->
<svg xmlns="http://www.w3.org/2000/svg" xmlns:xlink="http://www.w3.org/1999/xlink" version="1.1" id="Capa_1" x="0px" y="0px" viewBox="0 0 43.756 43.756" style="enable-background:new 0 0 43.756 43.756;" xml:space="preserve" width="512" height="512">
<g>
	<g id="_Group__456_">
		
			<ellipse id="_Ellipse__522_" style="opacity:0.15;fill:#45413C;enable-background:new    ;" cx="21.878" cy="40.163" rx="20.12" ry="1.89"/>
		<path id="_Path__535_" style="fill:#B89558;" d="M21.248,2.203c-9.53,0-16,2.83-19.49,6.92l12.58,16.93l7.54-0.34v14.84l16.92-4    c1.136-0.269,1.939-1.283,1.94-2.45v-13.15c0.034-1.624,0.512-3.207,1.38-4.58c0.806-1.351,1.199-2.908,1.13-4.48    C42.878,4.233,29.228,2.203,21.248,2.203z"/>
		<path style="fill:#DEBB7E;" d="M41.748,17.053c0.11-0.22,0.24-0.45,0.37-0.67c0.806-1.351,1.199-2.908,1.13-4.48    c-0.35-7.66-14-9.69-22-9.69c-9.53,0-16,2.83-19.49,6.92l8.73,11.77l0,0h1c0,0,9-8.49,18.65-9.85    C36.818,10.053,42.068,10.693,41.748,17.053z"/>
		<path style="fill:#45413C;" d="M21.878,41.052c-0.111,0-0.221-0.037-0.31-0.107c-0.12-0.096-0.19-0.239-0.19-0.393V26.236    l-7.018,0.315c-0.161,0.025-0.325-0.067-0.424-0.201L1.357,9.421c-0.139-0.187-0.13-0.446,0.021-0.623    c3.904-4.575,10.961-7.095,19.87-7.095c8.174,0,22.112,2.141,22.5,10.166c0.074,1.675-0.341,3.32-1.199,4.76    c-0.827,1.305-1.277,2.8-1.311,4.334v13.14c-0.001,1.405-0.957,2.612-2.324,2.936l-16.92,4    C21.955,41.048,21.917,41.052,21.878,41.052z M21.878,25.213c0.129,0,0.252,0.05,0.346,0.139c0.099,0.094,0.154,0.225,0.154,0.361    v14.208l16.305-3.854c0.915-0.217,1.554-1.023,1.555-1.963v-13.15c0.037-1.727,0.542-3.399,1.458-4.848    c0.752-1.26,1.118-2.713,1.053-4.19c-0.351-7.271-13.68-9.212-21.5-9.212c-8.413,0-15.084,2.286-18.847,6.446l12.18,16.392    l7.275-0.327C21.863,25.213,21.871,25.213,21.878,25.213z"/>
		<path id="_Path_3_524_" style="fill:#F7E5C6;" d="M24.388,17.903c-0.007-3.744-2.585-6.993-6.23-7.85l-11.48-2.69    C4.093,6.638,1.411,8.146,0.686,10.73c-0.106,0.379-0.166,0.769-0.178,1.163c-0.069,1.572,0.324,3.129,1.13,4.48    c0.868,1.373,1.346,2.956,1.38,4.58v13.2c-0.003,1.169,0.802,2.185,1.94,2.45l16.92,3.95v-15.5    c-0.037-1.408,0.427-2.783,1.31-3.88C23.967,20.262,24.393,19.101,24.388,17.903z"/>
		<g id="_Group_2_303_">
			<path id="_Path_4_519_" style="fill:#FFF5E3;" d="M1.348,14.403C1.3,11.874,3.311,9.785,5.84,9.737     c0.417-0.008,0.834,0.041,1.238,0.146l10.68,2.68c3.494,0.999,5.876,4.227,5.8,7.86c0.005,0.087,0.005,0.173,0,0.26     c0.563-0.817,0.863-1.787,0.86-2.78c-0.01-3.753-2.603-7.005-6.26-7.85l-11.48-2.69C4.093,6.638,1.411,8.146,0.686,10.73     c-0.106,0.379-0.166,0.769-0.178,1.163c-0.056,1.423,0.268,2.835,0.94,4.09C1.364,15.461,1.33,14.931,1.348,14.403z"/>
		</g>
		<path style="fill:#45413C;" d="M21.878,41.052c-0.038,0-0.076-0.004-0.114-0.013L4.844,37.09c-1.373-0.32-2.33-1.529-2.327-2.938    V20.953c-0.032-1.522-0.482-3.017-1.302-4.313c-0.866-1.45-1.281-3.096-1.207-4.77c0.013-0.428,0.08-0.859,0.196-1.276    C0.591,9.216,1.491,8.071,2.739,7.37c1.249-0.702,2.695-0.874,4.074-0.488l11.459,2.685c3.888,0.914,6.609,4.342,6.616,8.336    c0.005,1.317-0.464,2.595-1.32,3.596c-0.798,0.992-1.224,2.253-1.189,3.542v15.513c0,0.152-0.069,0.297-0.189,0.392    C22.1,41.015,21.99,41.052,21.878,41.052z M5.356,7.682c-0.741,0-1.467,0.189-2.126,0.56c-1.015,0.57-1.748,1.502-2.062,2.624    c-0.095,0.339-0.149,0.69-0.16,1.043c-0.065,1.484,0.301,2.938,1.06,4.208c0.911,1.438,1.415,3.111,1.451,4.826v13.211    c-0.002,0.942,0.637,1.749,1.554,1.963l16.306,3.807v-14.87c-0.04-1.512,0.464-3.005,1.42-4.193    c0.711-0.831,1.095-1.876,1.09-2.955c0,0,0,0,0-0.001c-0.007-3.528-2.41-6.557-5.844-7.364L6.564,7.85    C6.163,7.737,5.757,7.682,5.356,7.682z"/>
	</g>
</g>















</svg>
