<?xml version="1.0" encoding="iso-8859-1"?>
<!-- Generator: Adobe Illustrator 21.0.0, SVG Export Plug-In . SVG Version: 6.00 Build 0)  -->
<svg xmlns="http://www.w3.org/2000/svg" xmlns:xlink="http://www.w3.org/1999/xlink" version="1.1" id="Capa_1" x="0px" y="0px" viewBox="0 0 44.161 44.161" style="enable-background:new 0 0 44.161 44.161;" xml:space="preserve" width="512" height="512">
<g>
	<g id="_Group__470_">
		
			<ellipse id="_Ellipse__537_" style="opacity:0.15;fill:#45413C;enable-background:new    ;" cx="22.096" cy="42.661" rx="9.5" ry="1.5"/>
		<g id="_Group_2_311_">
			<g id="_Group_3_249_">
				<g id="_Group_4_203_">
					<path id="_Path__550_" style="fill:#F0D5A8;" d="M29.096,29.051h-14c-0.418,0.002-0.782-0.284-0.88-0.69l-0.91-3.63       c-0.122-0.488,0.175-0.982,0.663-1.103c0.071-0.018,0.144-0.027,0.217-0.027h15.82c0.503,0.002,0.909,0.41,0.907,0.913       c0,0.073-0.009,0.146-0.027,0.217l-0.91,3.63C29.879,28.768,29.514,29.053,29.096,29.051z"/>
					<path id="_Path_2_542_" style="fill:#F7E5C6;" d="M13.586,25.871h17l0.28-1.14c0.122-0.488-0.175-0.982-0.663-1.103       c-0.071-0.018-0.144-0.027-0.217-0.027h-15.8c-0.503,0.002-0.909,0.41-0.907,0.913c0,0.073,0.009,0.146,0.027,0.217       L13.586,25.871z"/>
					<path style="fill:#45413C;" d="M15.087,29.551c-0.646,0-1.205-0.439-1.357-1.072l-0.908-3.626       c-0.091-0.366-0.035-0.745,0.159-1.068c0.194-0.323,0.502-0.551,0.868-0.642c0.106-0.026,0.218-0.04,0.331-0.042h15.827       c0.379,0.001,0.732,0.149,0.998,0.417c0.266,0.267,0.41,0.621,0.409,0.998c0,0.109-0.014,0.223-0.042,0.336l-0.91,3.632       c-0.149,0.627-0.708,1.067-1.358,1.067c-0.003,0-0.006,0-0.009,0H15.096C15.093,29.551,15.09,29.551,15.087,29.551z        M29.096,28.551c0.001-0.001,0.004-0.001,0.007,0c0.185,0,0.344-0.125,0.387-0.306l0.911-3.636       c0.013-0.207-0.029-0.31-0.106-0.388c-0.077-0.077-0.181-0.121-0.29-0.121H14.186c-0.03,0-0.064,0.005-0.096,0.013       c-0.106,0.026-0.196,0.093-0.252,0.187c-0.057,0.094-0.073,0.204-0.046,0.311l0.909,3.63c0.045,0.185,0.204,0.311,0.389,0.311       c0.001,0,0.002,0,0.003,0H29.096z"/>
				</g>
				<g id="_Group_5_157_">
					<path id="_Path_4_534_" style="fill:#F0D5A8;" d="M24.246,42.661h-4.3c-1.365,0.002-2.519-1.007-2.7-2.36l-1.5-11.25h12.7       l-1.5,11.25C26.766,41.654,25.611,42.663,24.246,42.661z"/>
					<polygon id="_Path_5_523_" style="fill:#DEBB7E;" points="28.146,31.321 28.446,29.051 15.746,29.051 16.046,31.321      "/>
					<path style="fill:#45413C;" d="M24.25,43.161c-0.002,0-0.003,0-0.005,0h-4.299c-0.001,0-0.003,0-0.004,0       c-1.606,0-2.978-1.2-3.191-2.794l-1.5-11.25c-0.019-0.144,0.024-0.287,0.12-0.396c0.095-0.108,0.232-0.171,0.376-0.171h12.7       c0.145,0,0.281,0.063,0.376,0.171s0.139,0.252,0.12,0.396l-1.5,11.25C27.23,41.961,25.858,43.161,24.25,43.161z M19.946,42.161       h4.301c0,0,0.002,0,0.004,0c1.108,0,2.054-0.828,2.201-1.927l1.424-10.684H16.318l1.424,10.684       c0.147,1.099,1.092,1.927,2.2,1.927C19.943,42.161,19.944,42.161,19.946,42.161z"/>
				</g>
			</g>
			<g id="_Group_6_128_">
				<g id="_Group_7_120_">
					<path id="_Path_7_464_" style="fill:#FFFEF2;" d="M31.096,13.951c0.325-0.504,0.499-1.09,0.5-1.69       c0-1.751-1.419-3.17-3.17-3.17c-0.003,0-0.007,0-0.01,0h-1.13c1.011-1.104,0.935-2.818-0.169-3.829       c-0.5-0.458-1.153-0.712-1.831-0.711h-1.37c-1.491,0.006-2.705-1.197-2.712-2.688c-0.002-0.478,0.123-0.948,0.362-1.362       c-3.029,0.268-5.356,2.799-5.37,5.84c-0.002,0.936,0.154,1.866,0.46,2.75h-0.91c-1.751-0.006-3.174,1.409-3.18,3.16       c0,0.003,0,0.007,0,0.01c0.001,0.6,0.175,1.186,0.5,1.69c-2.568,1.014-3.828,3.919-2.814,6.487       c0.745,1.886,2.556,3.136,4.584,3.163h14.52c2.761-0.053,4.956-2.334,4.904-5.095C34.221,16.489,32.974,14.692,31.096,13.951z"/>
					<path id="_Path_8_441_" style="fill:#FFFFFF;" d="M12.566,20.431c0.005-2.07,1.285-3.923,3.22-4.66       c-0.944-1.468-0.52-3.423,0.947-4.367c0.516-0.332,1.119-0.507,1.733-0.503h0.91c-0.301-0.882-0.457-1.808-0.46-2.74       c-0.001-1.994,1.008-3.853,2.68-4.94c-0.517-0.844-0.517-1.906,0-2.75c-3.053,0.255-5.4,2.807-5.4,5.87       c-0.002,0.936,0.154,1.866,0.46,2.75h-0.91c-1.751-0.006-3.174,1.409-3.18,3.16c0,0.003,0,0.007,0,0.01       c0.001,0.6,0.175,1.186,0.5,1.69c-2.574,1.001-3.848,3.899-2.847,6.472c0.578,1.485,1.828,2.606,3.367,3.018       C12.928,22.576,12.57,21.519,12.566,20.431z"/>
					<path style="fill:#45413C;" d="M14.836,24.101c-2.247-0.029-4.226-1.395-5.048-3.479c-0.54-1.366-0.515-2.861,0.069-4.209       c0.51-1.175,1.393-2.116,2.517-2.696c-0.201-0.456-0.306-0.951-0.308-1.455c0.007-2.032,1.652-3.671,3.67-3.671       c0.004,0,0.007,0,0.011,0h0.235c-0.191-0.733-0.288-1.488-0.287-2.251c0.016-3.32,2.52-6.044,5.826-6.337       c0.184-0.022,0.365,0.072,0.465,0.229s0.105,0.357,0.012,0.519c-0.194,0.337-0.296,0.721-0.295,1.11       c0.005,1.209,0.991,2.19,2.199,2.19c0.004,0,0.007,0,0.011,0h1.372c0.806,0,1.575,0.299,2.169,0.843       c0.632,0.579,1.001,1.37,1.039,2.226c0.022,0.515-0.076,1.016-0.283,1.471h0.205c2.033,0,3.68,1.646,3.68,3.67       c-0.001,0.505-0.106,1-0.308,1.456c1.783,0.92,2.932,2.741,2.972,4.78c0.028,1.469-0.518,2.861-1.536,3.919       c-1.019,1.058-2.389,1.656-3.857,1.685H14.836z M15.738,9.591c-1.47,0-2.667,1.192-2.672,2.662       c0.001,0.512,0.146,1.003,0.42,1.428c0.082,0.125,0.102,0.281,0.056,0.424s-0.153,0.257-0.292,0.312       c-1.118,0.442-1.997,1.292-2.475,2.395c-0.479,1.103-0.499,2.326-0.057,3.444c0.673,1.705,2.292,2.823,4.125,2.846h14.514       c2.471-0.047,4.451-2.104,4.403-4.584c-0.035-1.822-1.153-3.432-2.848-4.1c-0.14-0.055-0.246-0.17-0.292-0.313       s-0.025-0.298,0.056-0.424c0.273-0.425,0.419-0.916,0.42-1.42c0-1.471-1.197-2.669-2.67-2.669h-1.14       c-0.198,0-0.378-0.117-0.458-0.298c-0.079-0.182-0.045-0.393,0.089-0.54c0.823-0.898,0.762-2.299-0.138-3.122       c-0.408-0.374-0.938-0.58-1.493-0.58h-1.37c-0.005,0-0.01,0-0.015,0c-1.755,0-3.189-1.426-3.197-3.186       c-0.001-0.247,0.026-0.491,0.082-0.729c-2.37,0.581-4.078,2.691-4.09,5.208c-0.001,0.882,0.144,1.751,0.433,2.583       c0.053,0.153,0.029,0.322-0.065,0.454s-0.246,0.21-0.407,0.21h-0.91C15.743,9.591,15.741,9.591,15.738,9.591z"/>
				</g>
				<path style="fill:#45413C;" d="M28.447,20.472c-1.024,0-1.859-0.833-1.86-1.859v-3.172c0-0.276,0.224-0.5,0.5-0.5      s0.5,0.224,0.5,0.5v3.17c0.001,0.475,0.387,0.861,0.86,0.861c0,0,0,0,0.001,0c0.474,0,0.859-0.387,0.858-0.861v-1.36      c0-0.276,0.224-0.5,0.5-0.5s0.5,0.224,0.5,0.5v1.36c0.001,1.025-0.832,1.86-1.857,1.861      C28.448,20.472,28.448,20.472,28.447,20.472z"/>
				<path style="fill:#45413C;" d="M20.282,15.834c-0.053,0-0.106-0.002-0.16-0.007c-0.909-0.078-1.625-0.794-1.704-1.703      l-0.002-0.963c0-0.276,0.224-0.5,0.5-0.5s0.5,0.224,0.5,0.5v0.92c0.035,0.38,0.368,0.713,0.791,0.75      c0.226,0.018,0.457-0.052,0.634-0.202s0.287-0.359,0.307-0.591l-0.002-2.228c0-0.276,0.224-0.5,0.5-0.5s0.5,0.224,0.5,0.5v2.27      C22.061,15.095,21.242,15.834,20.282,15.834z"/>
				<g id="_Group_8_108_">
					<path id="_Path_12_328_" style="fill:#FFFEF2;" d="M18.016,22.701v2.27c-0.065,0.754-0.728,1.313-1.482,1.248       c-0.664-0.057-1.191-0.584-1.248-1.248v-2.27H18.016z"/>
					<path style="fill:#45413C;" d="M16.652,26.724c-0.053,0-0.106-0.002-0.16-0.007c-0.91-0.077-1.626-0.794-1.704-1.704       l-0.002-2.312c0-0.276,0.224-0.5,0.5-0.5s0.5,0.224,0.5,0.5v2.27c0.034,0.381,0.368,0.714,0.791,0.75       c0.234,0.018,0.457-0.052,0.635-0.201c0.178-0.15,0.287-0.36,0.307-0.592l-0.002-1.327c0-0.276,0.224-0.5,0.5-0.5       s0.5,0.224,0.5,0.5v1.37C18.431,25.985,17.612,26.724,16.652,26.724z"/>
				</g>
			</g>
		</g>
	</g>
</g>















</svg>
