<?xml version="1.0" encoding="iso-8859-1"?>
<!-- Generator: Adobe Illustrator 21.0.0, SVG Export Plug-In . SVG Version: 6.00 Build 0)  -->
<svg xmlns="http://www.w3.org/2000/svg" xmlns:xlink="http://www.w3.org/1999/xlink" version="1.1" id="Capa_1" x="0px" y="0px" viewBox="0 0 46.497 46.497" style="enable-background:new 0 0 46.497 46.497;" xml:space="preserve" width="512" height="512">
<g>
	<g id="_Group__504_">
		
			<ellipse id="_Ellipse__575_" style="opacity:0.15;fill:#45413C;enable-background:new    ;" cx="23.248" cy="44.997" rx="18.5" ry="1.5"/>
		<path id="_Rectangle__189_" style="fill:#FFCCDD;" d="M23.998,12.997h16l0,0v30.5c0,0.276-0.224,0.5-0.5,0.5h-15.5l0,0V12.997    L23.998,12.997z"/>
		<rect id="_Path__588_" x="23.998" y="12.997" style="fill:#FFB0CA;" width="16" height="1.91"/>
		<path style="fill:#45413C;" d="M39.498,44.497h-15.5c-0.276,0-0.5-0.224-0.5-0.5v-31c0-0.276,0.224-0.5,0.5-0.5h16    c0.276,0,0.5,0.224,0.5,0.5v30.5C40.498,44.049,40.05,44.497,39.498,44.497z M24.498,43.497h15v-30h-15V43.497z"/>
		<path id="_Path_2_580_" style="fill:#FFCCDD;" d="M6.498,43.997h17.5v-23h-17c-0.552,0-1,0.448-1,1v21.5    C5.998,43.773,6.222,43.997,6.498,43.997z"/>
		<path id="_Path_3_577_" style="fill:#FFE5EE;" d="M6.998,20.997c-0.552,0-1,0.448-1,1v2.29c0-0.552,0.448-1,1-1h17v-2.29H6.998z"/>
		<path style="fill:#45413C;" d="M23.998,44.497h-17.5c-0.551,0-1-0.448-1-1v-21.5c0-0.827,0.673-1.5,1.5-1.5h17    c0.276,0,0.5,0.224,0.5,0.5v23C24.498,44.273,24.275,44.497,23.998,44.497z M6.998,21.497c-0.276,0-0.5,0.224-0.5,0.5v21.5h17v-22    H6.998z"/>
		<rect id="_Rectangle_4_132_" x="28.998" y="36.997" style="fill:#00B8F0;" width="6" height="7"/>
		<polygon id="_Path_4_572_" style="fill:#4ACFFF;" points="29.318,43.997 34.998,43.997 34.998,36.997 32.598,36.997   "/>
		<path style="fill:#45413C;" d="M34.998,44.497h-6c-0.276,0-0.5-0.224-0.5-0.5v-7c0-0.276,0.224-0.5,0.5-0.5h6    c0.276,0,0.5,0.224,0.5,0.5v7C35.498,44.273,35.275,44.497,34.998,44.497z M29.498,43.497h5v-6h-5V43.497z"/>
		<path style="fill:#FF6242;" d="M31.998,32.997c-2.209,0-4,1.791-4,4h8C35.998,34.788,34.208,32.997,31.998,32.997z"/>
		<path id="_Path_5_561_" style="fill:#FF866E;" d="M31.998,34.997c1.424,0.005,2.738,0.767,3.45,2h0.55c0-2.209-1.791-4-4-4    s-4,1.791-4,4h0.55C29.26,35.763,30.574,35.002,31.998,34.997z"/>
		<path style="fill:#45413C;" d="M35.998,37.497h-8c-0.276,0-0.5-0.224-0.5-0.5c0-2.481,2.019-4.5,4.5-4.5s4.5,2.019,4.5,4.5    C36.498,37.273,36.275,37.497,35.998,37.497z M28.534,36.497h6.93c-0.244-1.694-1.705-3-3.465-3S28.778,34.803,28.534,36.497z"/>
		<rect id="_Rectangle_6_97_" x="8.498" y="37.997" style="fill:#00B8F0;" width="13" height="3"/>
		<polygon id="_Path_6_523_" style="fill:#4ACFFF;" points="16.378,40.997 21.498,40.997 21.498,37.997 17.788,37.997   "/>
		<path style="fill:#45413C;" d="M21.498,41.497h-13c-0.276,0-0.5-0.224-0.5-0.5v-3c0-0.276,0.224-0.5,0.5-0.5h13    c0.276,0,0.5,0.224,0.5,0.5v3C21.998,41.273,21.775,41.497,21.498,41.497z M8.998,40.497h12v-2h-12V40.497z"/>
		<g>
			<rect id="_Rectangle_8_94_" x="8.498" y="31.577" style="fill:#00B8F0;" width="2.59" height="3"/>
			<path style="fill:#45413C;" d="M11.088,35.077h-2.59c-0.276,0-0.5-0.224-0.5-0.5v-3c0-0.276,0.224-0.5,0.5-0.5h2.59     c0.276,0,0.5,0.224,0.5,0.5v3C11.588,34.853,11.365,35.077,11.088,35.077z M8.998,34.077h1.59v-2h-1.59V34.077z"/>
		</g>
		<g>
			<rect id="_Rectangle_9_83_" x="13.698" y="31.577" style="fill:#00B8F0;" width="2.59" height="3"/>
			<path style="fill:#45413C;" d="M16.288,35.077h-2.59c-0.276,0-0.5-0.224-0.5-0.5v-3c0-0.276,0.224-0.5,0.5-0.5h2.59     c0.276,0,0.5,0.224,0.5,0.5v3C16.788,34.853,16.565,35.077,16.288,35.077z M14.199,34.077h1.59v-2h-1.59V34.077z"/>
		</g>
		<g>
			<rect id="_Rectangle_10_68_" x="18.908" y="31.577" style="fill:#00B8F0;" width="2.59" height="3"/>
			<path style="fill:#45413C;" d="M21.498,35.077h-2.59c-0.276,0-0.5-0.224-0.5-0.5v-3c0-0.276,0.224-0.5,0.5-0.5h2.59     c0.276,0,0.5,0.224,0.5,0.5v3C21.998,34.853,21.775,35.077,21.498,35.077z M19.409,34.077h1.59v-2h-1.59V34.077z"/>
		</g>
		<g>
			<rect id="_Rectangle_11_61_" x="8.498" y="25.247" style="fill:#00B8F0;" width="2.59" height="3"/>
			<path style="fill:#45413C;" d="M11.088,28.747h-2.59c-0.276,0-0.5-0.224-0.5-0.5v-3c0-0.276,0.224-0.5,0.5-0.5h2.59     c0.276,0,0.5,0.224,0.5,0.5v3C11.588,28.523,11.365,28.747,11.088,28.747z M8.998,27.747h1.59v-2h-1.59V27.747z"/>
		</g>
		<g>
			<rect id="_Rectangle_12_55_" x="13.698" y="25.247" style="fill:#00B8F0;" width="2.59" height="3"/>
			<path style="fill:#45413C;" d="M16.288,28.747h-2.59c-0.276,0-0.5-0.224-0.5-0.5v-3c0-0.276,0.224-0.5,0.5-0.5h2.59     c0.276,0,0.5,0.224,0.5,0.5v3C16.788,28.523,16.565,28.747,16.288,28.747z M14.199,27.747h1.59v-2h-1.59V27.747z"/>
		</g>
		<g>
			<rect id="_Rectangle_13_44_" x="18.908" y="25.247" style="fill:#00B8F0;" width="2.59" height="3"/>
			<path style="fill:#45413C;" d="M21.498,28.747h-2.59c-0.276,0-0.5-0.224-0.5-0.5v-3c0-0.276,0.224-0.5,0.5-0.5h2.59     c0.276,0,0.5,0.224,0.5,0.5v3C21.998,28.523,21.775,28.747,21.498,28.747z M19.409,27.747h1.59v-2h-1.59V27.747z"/>
		</g>
		<g>
			<rect id="_Rectangle_14_37_" x="27.508" y="27.577" style="fill:#00B8F0;" width="2.59" height="3"/>
			<path style="fill:#45413C;" d="M30.098,31.077h-2.59c-0.276,0-0.5-0.224-0.5-0.5v-3c0-0.276,0.224-0.5,0.5-0.5h2.59     c0.276,0,0.5,0.224,0.5,0.5v3C30.598,30.853,30.374,31.077,30.098,31.077z M28.008,30.077h1.59v-2h-1.59V30.077z"/>
		</g>
		<g>
			<rect id="_Rectangle_15_23_" x="34.218" y="27.577" style="fill:#00B8F0;" width="2.59" height="3"/>
			<path style="fill:#45413C;" d="M36.808,31.077h-2.59c-0.276,0-0.5-0.224-0.5-0.5v-3c0-0.276,0.224-0.5,0.5-0.5h2.59     c0.276,0,0.5,0.224,0.5,0.5v3C37.308,30.853,37.084,31.077,36.808,31.077z M34.718,30.077h1.59v-2h-1.59V30.077z"/>
		</g>
		<g>
			<rect id="_Rectangle_16_15_" x="27.508" y="21.787" style="fill:#00B8F0;" width="2.59" height="3"/>
			<path style="fill:#45413C;" d="M30.098,25.287h-2.59c-0.276,0-0.5-0.224-0.5-0.5v-3c0-0.276,0.224-0.5,0.5-0.5h2.59     c0.276,0,0.5,0.224,0.5,0.5v3C30.598,25.063,30.374,25.287,30.098,25.287z M28.008,24.287h1.59v-2h-1.59V24.287z"/>
		</g>
		<g>
			<rect id="_Rectangle_17_13_" x="34.218" y="21.787" style="fill:#00B8F0;" width="2.59" height="3"/>
			<path style="fill:#45413C;" d="M36.808,25.287h-2.59c-0.276,0-0.5-0.224-0.5-0.5v-3c0-0.276,0.224-0.5,0.5-0.5h2.59     c0.276,0,0.5,0.224,0.5,0.5v3C37.308,25.063,37.084,25.287,36.808,25.287z M34.718,24.287h1.59v-2h-1.59V24.287z"/>
		</g>
		<g>
			<rect id="_Rectangle_18_7_" x="27.508" y="16.157" style="fill:#00B8F0;" width="2.59" height="3"/>
			<path style="fill:#45413C;" d="M30.098,19.657h-2.59c-0.276,0-0.5-0.224-0.5-0.5v-3c0-0.276,0.224-0.5,0.5-0.5h2.59     c0.276,0,0.5,0.224,0.5,0.5v3C30.598,19.433,30.374,19.657,30.098,19.657z M28.008,18.657h1.59v-2h-1.59V18.657z"/>
		</g>
		<g>
			<rect id="_Rectangle_19_7_" x="34.218" y="16.157" style="fill:#00B8F0;" width="2.59" height="3"/>
			<path style="fill:#45413C;" d="M36.808,19.657h-2.59c-0.276,0-0.5-0.224-0.5-0.5v-3c0-0.276,0.224-0.5,0.5-0.5h2.59     c0.276,0,0.5,0.224,0.5,0.5v3C37.308,19.433,37.084,19.657,36.808,19.657z M34.718,18.657h1.59v-2h-1.59V18.657z"/>
		</g>
		<g>
			<path style="fill:#FF6242;" d="M39.498,10.997h-15c-0.552,0-1,0.448-1,1s0.448,1,1,1h15c0.552,0,1-0.448,1-1     S40.051,10.997,39.498,10.997z"/>
			<path style="fill:#45413C;" d="M39.498,13.497h-15c-0.827,0-1.5-0.673-1.5-1.5s0.673-1.5,1.5-1.5h15c0.827,0,1.5,0.673,1.5,1.5     S40.326,13.497,39.498,13.497z M24.498,11.497c-0.275,0-0.5,0.224-0.5,0.5s0.225,0.5,0.5,0.5h15c0.275,0,0.5-0.224,0.5-0.5     s-0.225-0.5-0.5-0.5H24.498z"/>
		</g>
		<g>
			<path id="_Rectangle_20_8_" style="fill:#FFE5EE;" d="M9.998,18.497h10c0.552,0,1,0.448,1,1v1.5l0,0h-12l0,0v-1.5     C8.998,18.944,9.446,18.497,9.998,18.497z"/>
			<path style="fill:#45413C;" d="M20.998,21.497h-12c-0.276,0-0.5-0.224-0.5-0.5v-1.5c0-0.827,0.673-1.5,1.5-1.5h10     c0.827,0,1.5,0.673,1.5,1.5v1.5C21.498,21.273,21.275,21.497,20.998,21.497z M9.498,20.497h11v-1c0-0.276-0.224-0.5-0.5-0.5h-10     c-0.276,0-0.5,0.224-0.5,0.5V20.497z"/>
		</g>
		<path style="fill:#45413C;" d="M31.998,44.497c-0.276,0-0.5-0.224-0.5-0.5v-7c0-0.276,0.224-0.5,0.5-0.5s0.5,0.224,0.5,0.5v7    C32.498,44.273,32.275,44.497,31.998,44.497z"/>
		<path style="fill:#FF87AF;" d="M14.138,9.957c-0.159-0.613-0.585-1.123-1.16-1.39c-0.886-0.403-1.933-0.137-2.52,0.64l-0.6,0.79    l-0.91-0.41C7.906,9.104,6.67,9.558,6.187,10.6c-0.201,0.434-0.246,0.923-0.128,1.387c0.308,1.185,1.104,2.184,2.19,2.75    l3.23,1.76l2.06-3.06C14.226,12.416,14.445,11.149,14.138,9.957z"/>
		<path id="_Path_8_475_" style="fill:#FFB0CA;" d="M10.458,11.697l-0.6,0.8l-0.91-0.42c-0.923-0.422-2.015-0.113-2.58,0.73    c-0.13-0.263-0.234-0.537-0.31-0.82c-0.283-1.113,0.39-2.245,1.503-2.528C8.025,9.34,8.515,9.386,8.948,9.587l0.91,0.41l0.6-0.79    c0.587-0.777,1.634-1.043,2.52-0.64c0.575,0.267,1.001,0.777,1.16,1.39c0.179,0.757,0.151,1.548-0.08,2.29    c-0.386-1.076-1.571-1.636-2.647-1.25C11.032,11.132,10.701,11.376,10.458,11.697z"/>
		<path style="fill:#45413C;" d="M11.478,16.997c-0.081,0-0.163-0.02-0.239-0.061l-3.23-1.76c-1.201-0.625-2.091-1.743-2.435-3.063    c-0.146-0.576-0.09-1.187,0.159-1.723c0.29-0.625,0.806-1.101,1.453-1.338c0.647-0.237,1.347-0.209,1.973,0.081l0.542,0.244    l0.359-0.473c0.732-0.969,2.017-1.296,3.125-0.793c0.716,0.332,1.239,0.958,1.437,1.719c0,0,0,0.001,0,0.001    c0.341,1.33,0.097,2.746-0.67,3.884l-2.06,3.06C11.797,16.919,11.639,16.997,11.478,16.997z M8.076,9.895    c-0.598,0-1.169,0.34-1.436,0.915c-0.152,0.329-0.187,0.703-0.098,1.054c0.271,1.044,0.978,1.93,1.937,2.43l2.838,1.547    l1.806-2.683c0.607-0.902,0.801-2.022,0.53-3.076c-0.123-0.471-0.445-0.857-0.886-1.062c-0.675-0.307-1.461-0.107-1.911,0.488    l-0.601,0.791c-0.141,0.186-0.391,0.25-0.604,0.153l-0.91-0.41C8.527,9.942,8.3,9.895,8.076,9.895z"/>
		<path style="fill:#FF87AF;" d="M24.848,2.867c-0.727-0.973-2.03-1.314-3.14-0.82l-1.14,0.5l-0.75-1    c-0.857-1.152-2.486-1.391-3.638-0.533c-0.473,0.352-0.812,0.854-0.962,1.423c-0.389,1.472-0.13,3.04,0.71,4.31l2.52,3.85l4.1-2.1    c1.34-0.71,2.32-1.951,2.7-3.42C25.455,4.317,25.308,3.505,24.848,2.867z"/>
		<path id="_Path_9_442_" style="fill:#FFB0CA;" d="M25.118,5.497c-0.586-1.297-2.112-1.874-3.41-1.29l-1.14,0.5l-0.75-1    c-0.857-1.152-2.485-1.392-3.638-0.535c-0.556,0.413-0.923,1.03-1.022,1.715c-0.155-0.813-0.124-1.651,0.09-2.45    c0.366-1.389,1.788-2.218,3.177-1.852c0.57,0.15,1.072,0.489,1.423,0.962l0.75,1l1.14-0.5c1.315-0.577,2.849,0.021,3.426,1.336    c0.23,0.524,0.281,1.109,0.144,1.664C25.248,5.227,25.168,5.357,25.118,5.497z"/>
		<path style="fill:#45413C;" d="M18.449,11.097c-0.164,0-0.324-0.081-0.419-0.226l-2.52-3.85c-0.917-1.385-1.2-3.104-0.775-4.711    c0.178-0.676,0.585-1.279,1.146-1.697c1.372-1.021,3.317-0.736,4.338,0.636L20.73,1.93l0.777-0.341    c1.329-0.59,2.87-0.189,3.741,0.979c0.002,0.002,0.004,0.005,0.005,0.007c0.552,0.765,0.726,1.725,0.478,2.633    c-0.412,1.595-1.487,2.957-2.949,3.731l-4.105,2.103C18.604,11.079,18.526,11.097,18.449,11.097z M17.73,1    c-0.436,0-0.875,0.135-1.251,0.415c-0.38,0.283-0.656,0.691-0.777,1.15c-0.352,1.333-0.117,2.757,0.644,3.907l2.275,3.476    l3.699-1.895c1.207-0.64,2.1-1.771,2.444-3.101c0.17-0.621,0.053-1.271-0.319-1.789c-0.59-0.789-1.631-1.059-2.533-0.659    l-1.143,0.501c-0.211,0.092-0.461,0.028-0.601-0.158l-0.75-1C19.006,1.292,18.371,1,17.73,1z"/>
	</g>
</g>















</svg>
