<?xml version="1.0" encoding="iso-8859-1"?>
<!-- Generator: Adobe Illustrator 21.0.0, SVG Export Plug-In . SVG Version: 6.00 Build 0)  -->
<svg xmlns="http://www.w3.org/2000/svg" xmlns:xlink="http://www.w3.org/1999/xlink" version="1.1" id="Capa_1" x="0px" y="0px" viewBox="0 0 46.34 46.34" style="enable-background:new 0 0 46.34 46.34;" xml:space="preserve" width="512" height="512">
<g>
	<g id="_Group__460_">
		
			<ellipse id="_Ellipse__526_" style="opacity:0.15;fill:#45413C;enable-background:new    ;" cx="23.17" cy="39.615" rx="20.46" ry="1.66"/>
		<g id="_Group_2_306_">
			<path id="_Path__539_" style="fill:#DEBB7E;" d="M42.52,26.615v5c0,4-8.66,7.19-19.35,7.19s-19.35-3.25-19.35-7.22v-5     L42.52,26.615z"/>
			<g id="_Group_3_247_">
				<path id="_Path_2_531_" style="fill:#B89558;" d="M3.82,28.825c0,4,8.66,7.19,19.35,7.19s19.35-3.22,19.35-7.19v-2.21H3.82      V28.825z"/>
			</g>
			<path style="fill:#45413C;" d="M23.17,39.305c-11.131,0-19.85-3.392-19.85-7.721v-5c0-0.133,0.053-0.26,0.146-0.354     s0.221-0.146,0.354-0.146c0,0,0,0,0,0l38.699,0.03c0.276,0,0.5,0.224,0.5,0.5v5C43.02,35.927,34.301,39.305,23.17,39.305z      M4.32,27.084v4.5c0,3.643,8.632,6.721,18.85,6.721s18.85-3.063,18.85-6.69v-4.5L4.32,27.084z"/>
		</g>
		<g id="_Group_4_201_">
			<g>
				<path id="_Path_4_524_" style="fill:#BF8256;" d="M23.17,33.275c23.84,0,23.22-7.74,20.46-12.16c-2.77-3.9-9.16-7.22-20.46-7.22      s-17.69,3.32-20.46,7.19C-0.05,25.505-0.67,33.275,23.17,33.275z"/>
				<path style="fill:#45413C;" d="M23.17,33.775c-12.144,0-19.413-2.006-21.607-5.962c-1.105-1.993-0.848-4.477,0.723-6.993      c1.996-2.79,7.336-7.425,20.884-7.425c13.565,0,18.897,4.655,20.867,7.43c1.586,2.538,1.844,5.015,0.743,7      C42.591,31.773,35.32,33.775,23.17,33.775z M23.17,14.395c-13.101,0-18.188,4.374-20.053,6.981      c-0.952,1.526-1.859,3.824-0.679,5.952c1.378,2.485,6.094,5.447,20.732,5.447c14.647,0,19.36-2.955,20.735-5.435      c1.175-2.118,0.269-4.411-0.699-5.961C41.363,18.787,36.286,14.395,23.17,14.395z"/>
			</g>
		</g>
		<g>
			<path id="_Path_5_513_" style="fill:#6DD627;" d="M42.52,18.875c0,0,3.32,1.1,3.32,4.42s-4.43,0.55-6.08,1.66     s-0.42,3.64-2.77,4.42c-3.32,1.11-5-2.09-7.19-1.66c-2.76,0.56-1.63,3.32-6.63,3.32s-3.87-2.76-6.63-3.32     c-2.17-0.44-3.87,2.77-7.19,1.66c-2.35-0.78-1.11-3.32-2.77-4.42s-6.08,1.66-6.08-1.68s3.32-4.4,3.32-4.4H42.52z"/>
			<path style="fill:#45413C;" d="M23.17,31.535c-3.216,0-4.119-1.102-4.915-2.073c-0.488-0.595-0.873-1.065-1.814-1.256     c-0.749-0.155-1.485,0.27-2.343,0.759c-1.245,0.709-2.795,1.586-4.906,0.885c-1.571-0.521-1.828-1.751-2.033-2.739     c-0.152-0.729-0.283-1.36-0.854-1.738c-0.484-0.321-1.464-0.179-2.41-0.041c-1.208,0.175-2.458,0.357-3.242-0.321     C0.219,24.635,0,24.052,0,23.275c0-3.663,3.631-4.865,3.668-4.876c0.049-0.016,0.1-0.024,0.152-0.024h38.7     c0.054,0,0.106,0.009,0.157,0.025c0.037,0.012,3.663,1.256,3.663,4.895c0,0.77-0.218,1.349-0.647,1.72     c-0.782,0.674-2.03,0.49-3.237,0.314c-0.952-0.14-1.936-0.283-2.416,0.04c-0.567,0.382-0.699,1.011-0.852,1.739     c-0.207,0.988-0.465,2.218-2.04,2.74c-2.108,0.704-3.654-0.174-4.896-0.88c-0.858-0.489-1.598-0.915-2.355-0.764     c-0.938,0.19-1.323,0.661-1.812,1.256C27.288,30.433,26.386,31.535,23.17,31.535z M16.126,27.173     c0.168,0,0.339,0.017,0.514,0.052c1.29,0.262,1.874,0.975,2.389,1.603c0.72,0.878,1.399,1.707,4.142,1.707     s3.422-0.829,4.142-1.707c0.515-0.628,1.099-1.341,2.389-1.603c1.122-0.223,2.101,0.336,3.047,0.875     c1.179,0.67,2.396,1.365,4.085,0.8c1.029-0.341,1.183-1.071,1.377-1.996c0.172-0.823,0.367-1.756,1.271-2.364     c0.803-0.541,1.98-0.367,3.12-0.199c0.985,0.144,2.003,0.293,2.438-0.082c0.199-0.173,0.301-0.497,0.301-0.963     c0-2.674-2.462-3.748-2.909-3.92H3.904C3.448,19.542,1,20.566,1,23.275c0,0.474,0.103,0.803,0.306,0.979     c0.438,0.378,1.458,0.229,2.444,0.088c1.131-0.165,2.303-0.336,3.106,0.196c0.914,0.605,1.109,1.542,1.281,2.368     C8.33,27.83,8.481,28.56,9.507,28.9c1.689,0.563,2.913-0.131,4.095-0.805C14.401,27.641,15.222,27.173,16.126,27.173z"/>
		</g>
		<g>
			<path id="_Path_6_475_" style="fill:#FF6242;" d="M6.03,21.085c0,0-1.84,3.82,2.21,5c3.87,1.11,7.74-2.21,11.06-2.21     s6.42,4.89,10.5,3.87c4.43-1.1,2.22-3.31,5-4.42s12.16,2.76,6.63-3.87L6.03,21.085z"/>
			<path style="fill:#45413C;" d="M28.676,28.384c-1.998,0-3.763-1.163-5.351-2.209c-1.405-0.926-2.733-1.801-4.025-1.801     c-1.275,0-2.681,0.542-4.168,1.116c-2.259,0.871-4.595,1.773-7.029,1.074c-1.341-0.391-2.245-1.094-2.689-2.09     c-0.747-1.676,0.128-3.529,0.166-3.607c0.08-0.166,0.244-0.274,0.428-0.283l35.399-1.63c0.162-0.002,0.308,0.059,0.407,0.179     c1.603,1.92,2.12,3.146,1.681,3.972c-0.585,1.101-2.488,0.904-4.693,0.679c-1.421-0.147-3.028-0.31-3.815,0.004     c-1.004,0.4-1.209,0.931-1.47,1.601c-0.372,0.96-0.835,2.154-3.596,2.84C29.495,28.336,29.081,28.384,28.676,28.384z      M19.3,23.374c1.592,0,3.042,0.955,4.576,1.966c1.823,1.201,3.71,2.443,5.803,1.919c2.258-0.56,2.572-1.371,2.905-2.23     c0.291-0.753,0.622-1.606,2.03-2.168c1.016-0.406,2.681-0.235,4.288-0.07c1.371,0.141,3.438,0.353,3.709-0.153     c0.052-0.098,0.219-0.675-1.408-2.672L6.374,21.57c-0.175,0.491-0.463,1.57-0.044,2.503c0.32,0.713,1.01,1.229,2.051,1.531     c2.111,0.606,4.287-0.234,6.392-1.046C16.349,23.95,17.838,23.374,19.3,23.374z"/>
		</g>
		<g>
			<path id="_Path_7_454_" style="fill:#FFE500;" d="M24.28,24.405h-9.4v2.76c0,1.221,0.989,2.21,2.21,2.21l0,0h1.08v2.49     c0.077,1.069,1.006,1.873,2.074,1.796c0.962-0.069,1.727-0.834,1.796-1.796v-4.15c1.221,0.006,2.214-0.979,2.22-2.2     c0-0.003,0-0.007,0-0.01L24.28,24.405z"/>
			<path style="fill:#45413C;" d="M20.101,34.166c-0.585,0-1.146-0.208-1.593-0.595c-0.493-0.427-0.79-1.02-0.836-1.67l-0.001-2.026     H17.09c-1.494,0-2.71-1.216-2.71-2.71v-2.76c0-0.276,0.224-0.5,0.5-0.5h9.4c0.134,0,0.263,0.054,0.356,0.149     c0.095,0.096,0.146,0.226,0.144,0.36l-0.021,1.101c-0.003,0.726-0.288,1.405-0.802,1.915c-0.394,0.39-0.885,0.645-1.418,0.741     v3.693c-0.088,1.237-1.059,2.208-2.26,2.295C20.22,34.164,20.16,34.166,20.101,34.166z M15.38,24.905v2.26     c0,0.943,0.767,1.71,1.71,1.71h1.08c0.276,0,0.5,0.224,0.5,0.5v2.49c0.026,0.348,0.202,0.698,0.493,0.95     c0.291,0.252,0.664,0.377,1.045,0.347c0.709-0.051,1.282-0.624,1.333-1.333l-0.001-4.113c0-0.133,0.053-0.261,0.147-0.354     c0.094-0.093,0.204-0.163,0.355-0.146c0.002,0,0.005,0,0.007,0c0.455,0,0.882-0.176,1.205-0.496     c0.324-0.321,0.504-0.749,0.506-1.206l0.011-0.608H15.38z"/>
		</g>
		<g id="_Group_5_155_">
			<g id="_Group_6_126_">
				<path id="_Path_8_430_" style="fill:#F0D5A8;" d="M42.52,18.275c0,4-8.66,7.19-19.35,7.19s-19.35-3.19-19.35-7.19      c0,0,1.11-12.71,19.35-12.71S42.52,18.275,42.52,18.275z"/>
				<path id="_Path_9_399_" style="fill:#DEBB7E;" d="M23.17,21.635c-9.13,0-16.79-2.35-18.82-5.51      c-0.253,0.696-0.431,1.416-0.53,2.15c0,4,8.66,7.19,19.35,7.19s19.35-3.19,19.35-7.19c-0.097-0.747-0.274-1.481-0.53-2.19      C39.96,19.275,32.3,21.635,23.17,21.635z"/>
				<path style="fill:#45413C;" d="M23.17,25.965c-11.131,0-19.85-3.378-19.85-7.69C3.333,18.1,4.686,5.065,23.17,5.065      S43.006,18.1,43.018,18.231c0.001,0.015,0.002,0.029,0.002,0.043C43.02,22.587,34.301,25.965,23.17,25.965z M23.17,6.065      c-17.578,0-18.841,12.131-18.852,12.253c0.002,3.583,8.634,6.647,18.852,6.647c10.196,0,18.813-3.051,18.85-6.668      C41.944,17.549,40.506,6.065,23.17,6.065z"/>
			</g>
			<g>
				<path id="_Path_11_347_" style="fill:#DEBB7E;" d="M11.83,11.455c-0.59,0.161-0.939,0.769-0.78,1.36      c0.149,0.583,0.742,0.935,1.326,0.786c0.008-0.002,0.016-0.004,0.024-0.006l1.07-0.32c0.588-0.16,0.935-0.767,0.775-1.355      c-0.16-0.588-0.767-0.935-1.355-0.775L11.83,11.455z"/>
				<path style="fill:#45413C;" d="M12.116,14.128c-0.729,0-1.369-0.477-1.55-1.19c-0.229-0.847,0.277-1.73,1.128-1.964l1.056-0.309      c0.421-0.114,0.854-0.061,1.226,0.153c0.372,0.212,0.639,0.557,0.751,0.971c0.232,0.853-0.273,1.736-1.126,1.969l-1.059,0.316      C12.399,14.111,12.256,14.128,12.116,14.128z M13.181,11.606c-0.053,0-0.107,0.007-0.16,0.021l-1.051,0.308      c-0.003,0.001-0.006,0.001-0.009,0.002c-0.324,0.088-0.516,0.423-0.429,0.748c0.041,0.159,0.137,0.288,0.272,0.368      c0.135,0.08,0.294,0.102,0.447,0.064l1.075-0.321c0.333-0.091,0.523-0.423,0.436-0.745c-0.042-0.156-0.143-0.285-0.283-0.365      C13.387,11.633,13.285,11.606,13.181,11.606z M11.83,11.455h0.01H11.83z"/>
			</g>
			<g>
				<path id="_Path_12_322_" style="fill:#DEBB7E;" d="M18.29,14.445c-0.326,0.519-0.169,1.204,0.35,1.53      c0.519,0.326,1.204,0.169,1.53-0.35c0.051-0.081,0.091-0.169,0.12-0.26l0.45-1c0.257-0.544,0.024-1.194-0.52-1.451      c-0.006-0.003-0.013-0.006-0.02-0.009c-0.555-0.255-1.212-0.014-1.47,0.54L18.29,14.445z"/>
				<path style="fill:#45413C;" d="M19.227,16.645c-0.299,0-0.593-0.084-0.853-0.247c-0.364-0.229-0.617-0.585-0.713-1.004      c-0.093-0.406-0.027-0.824,0.185-1.181l0.427-0.969c0.377-0.811,1.334-1.161,2.136-0.793c0.817,0.386,1.158,1.335,0.784,2.128      l-0.446,0.992c-0.019,0.074-0.078,0.202-0.152,0.321c-0.229,0.365-0.586,0.618-1.005,0.714      C19.469,16.632,19.348,16.645,19.227,16.645z M19.736,13.306c-0.233,0-0.451,0.13-0.553,0.35l-0.436,0.99      c-0.01,0.022-0.021,0.044-0.034,0.064c-0.086,0.138-0.114,0.302-0.078,0.46c0.036,0.159,0.132,0.294,0.27,0.381      c0.139,0.086,0.304,0.113,0.46,0.078c0.159-0.037,0.294-0.132,0.381-0.271c0.028-0.045,0.05-0.093,0.065-0.142l0.472-1.058      c0.143-0.302,0.016-0.655-0.278-0.793C19.918,13.326,19.826,13.306,19.736,13.306z M18.29,14.445h0.01H18.29z"/>
			</g>
			<g>
				<path id="_Path_13_304_" style="fill:#DEBB7E;" d="M34.51,11.455c0.59,0.161,0.939,0.769,0.78,1.36      c-0.149,0.583-0.742,0.935-1.326,0.786c-0.008-0.002-0.016-0.004-0.024-0.006l-1.07-0.32c-0.588-0.16-0.935-0.767-0.775-1.355      c0.16-0.588,0.767-0.935,1.355-0.775L34.51,11.455z"/>
				<path style="fill:#45413C;" d="M34.233,14.136c-0.13,0-0.262-0.016-0.394-0.05l-1.113-0.332      c-0.841-0.229-1.347-1.112-1.114-1.965c0.112-0.414,0.38-0.758,0.752-0.971c0.371-0.213,0.804-0.267,1.218-0.155l1.063,0.312      c0.852,0.234,1.357,1.117,1.127,1.971C35.591,13.658,34.942,14.135,34.233,14.136z M33.161,11.605      c-0.103,0-0.207,0.027-0.301,0.081c-0.141,0.08-0.241,0.209-0.283,0.365c-0.087,0.321,0.103,0.654,0.425,0.741l1.082,0.323      c0.322,0.083,0.641-0.11,0.722-0.425c0.089-0.33-0.104-0.666-0.427-0.753c-0.004-0.001-0.007-0.001-0.01-0.002l-1.06-0.31      C33.262,11.612,33.211,11.605,33.161,11.605z"/>
			</g>
			<g>
				<path id="_Path_14_283_" style="fill:#DEBB7E;" d="M28.05,14.445c0.182,0.585-0.145,1.208-0.73,1.39      c-0.481,0.15-1.002-0.043-1.27-0.47l-0.45-1c-0.256-0.545-0.021-1.194,0.524-1.45c0.015-0.007,0.031-0.014,0.046-0.02      c0.555-0.255,1.212-0.014,1.47,0.54L28.05,14.445z"/>
				<path style="fill:#45413C;" d="M26.991,16.385c-0.544,0-1.065-0.276-1.365-0.754l-0.482-1.061      c-0.368-0.787-0.024-1.735,0.768-2.107c0.858-0.391,1.81-0.038,2.182,0.762l0.42,1.033c0.006,0.013,0.011,0.026,0.015,0.039      c0.128,0.411,0.088,0.847-0.111,1.228c-0.2,0.38-0.536,0.661-0.947,0.789C27.312,16.361,27.15,16.385,26.991,16.385z       M26.636,13.293c-0.086,0-0.174,0.018-0.257,0.056c-0.337,0.157-0.464,0.509-0.326,0.804l0.453,1.007      c0.114,0.173,0.401,0.28,0.666,0.197c0.155-0.048,0.282-0.154,0.358-0.298c0.073-0.139,0.09-0.297,0.047-0.448l-0.4-0.988      C27.081,13.419,26.863,13.293,26.636,13.293z"/>
			</g>
		</g>
	</g>
</g>















</svg>
