<?xml version="1.0" encoding="iso-8859-1"?>
<!-- Generator: Adobe Illustrator 21.0.0, SVG Export Plug-In . SVG Version: 6.00 Build 0)  -->
<svg xmlns="http://www.w3.org/2000/svg" xmlns:xlink="http://www.w3.org/1999/xlink" version="1.1" id="Capa_1" x="0px" y="0px" viewBox="0 0 47.106 47.106" style="enable-background:new 0 0 47.106 47.106;" xml:space="preserve" width="512" height="512">
<g>
	<g id="_Group__523_">
		<path id="_Path__616_" style="fill:#FF6242;" d="M12.412,37.203l1.9-16.33c0.152-1.31,1.261-2.299,2.58-2.3h13.45    c1.319,0.001,2.428,0.99,2.58,2.3l1.9,16.33H12.412z"/>
		<path id="_Path_2_608_" style="fill:#FF6242;" d="M12.412,37.203l1.9-16.33c0.152-1.31,1.261-2.299,2.58-2.3h13.45    c1.319,0.001,2.428,0.99,2.58,2.3l1.9,16.33H12.412z"/>
		<path id="_Path_3_605_" style="fill:#FF866E;" d="M16.452,21.973h14.33c0.994-0.01,1.919,0.507,2.43,1.36l-0.29-2.46    c-0.152-1.31-1.261-2.299-2.58-2.3h-13.45c-1.319,0.001-2.428,0.99-2.58,2.3l-0.29,2.46    C14.532,22.479,15.458,21.961,16.452,21.973z"/>
		<path style="fill:#45413C;" d="M34.822,37.703h-22.41c-0.143,0-0.278-0.061-0.374-0.168c-0.095-0.106-0.14-0.248-0.123-0.39    l1.9-16.33c0.182-1.562,1.504-2.741,3.076-2.742h13.45c1.572,0.001,2.896,1.18,3.077,2.742l1.9,16.33    c0.016,0.142-0.028,0.283-0.124,0.39C35.101,37.643,34.965,37.703,34.822,37.703z M12.974,36.703h21.287l-1.836-15.772    c-0.123-1.058-1.019-1.856-2.083-1.857h-13.45c-1.064,0.001-1.96,0.799-2.083,1.857L12.974,36.703z"/>
		<path id="_Rectangle__212_" style="fill:#C0DCEB;" d="M11.792,37.203h23.39c0.48,0,0.87,0.39,0.87,0.87v2.16    c0,0.48-0.39,0.87-0.87,0.87h-23.39c-0.48,0-0.87-0.39-0.87-0.87v-2.16C10.922,37.593,11.312,37.203,11.792,37.203z"/>
		<path id="_Path_5_589_" style="fill:#DAEDF7;" d="M35.192,37.203h-23.4c-0.48,0-0.87,0.39-0.87,0.87v2c0-0.48,0.39-0.87,0.87-0.87    h23.4c0.475,0,0.86,0.385,0.86,0.86c0,0.003,0,0.007,0,0.01v-1.97c0.022-0.474-0.345-0.877-0.819-0.899    C35.22,37.203,35.206,37.203,35.192,37.203z"/>
		<path style="fill:#45413C;" d="M35.183,41.604H11.792c-0.755,0-1.37-0.614-1.37-1.37v-2.16c0-0.756,0.614-1.37,1.37-1.37h23.391    c0.755,0,1.369,0.614,1.369,1.37v2.16C36.552,40.989,35.938,41.604,35.183,41.604z M11.792,37.703c-0.204,0-0.37,0.166-0.37,0.37    v2.16c0,0.204,0.166,0.37,0.37,0.37h23.391c0.203,0,0.369-0.166,0.369-0.37v-2.16c0-0.204-0.166-0.37-0.369-0.37H11.792z"/>
		<rect id="_Rectangle_3_170_" x="21.822" y="32.433" style="fill:#87898C;" width="3.47" height="4.77"/>
		<rect id="_Rectangle_4_153_" x="21.822" y="32.433" style="fill:#656769;" width="3.47" height="1.61"/>
		<path style="fill:#45413C;" d="M25.292,37.703h-3.47c-0.276,0-0.5-0.224-0.5-0.5v-4.771c0-0.276,0.224-0.5,0.5-0.5h3.47    c0.276,0,0.5,0.224,0.5,0.5v4.771C25.792,37.48,25.569,37.703,25.292,37.703z M22.322,36.703h2.47v-3.771h-2.47V36.703z"/>
		<path style="fill:#FFE500;" d="M23.552,25.503c-1.657,0-3,1.343-3,3v3c0,0.475,0.385,0.86,0.86,0.86c0,0,0,0,0,0h4.34    c0.475,0,0.86-0.385,0.86-0.86l0,0v-3c0-1.657-1.343-3-2.999-3.001C23.593,25.503,23.573,25.503,23.552,25.503z"/>
		<path id="_Path_6_551_" style="fill:#FFF48C;" d="M23.552,25.503c-1.657,0-3,1.343-3,3v1.95c0-1.673,1.357-3.03,3.03-3.03    c1.673,0,3.03,1.357,3.03,3.03v-1.91c0.022-1.657-1.302-3.018-2.959-3.04C23.62,25.502,23.586,25.502,23.552,25.503z"/>
		<path style="fill:#45413C;" d="M25.752,32.863h-4.34c-0.75,0-1.36-0.61-1.36-1.36v-3c0-1.93,1.57-3.5,3.5-3.5h0.061    c1.929,0,3.5,1.57,3.5,3.5v3C27.112,32.253,26.502,32.863,25.752,32.863z M23.552,26.003c-1.378,0-2.5,1.121-2.5,2.5v3    c0,0.198,0.162,0.36,0.36,0.36h4.34c0.198,0,0.36-0.162,0.36-0.36v-3c0-1.379-1.121-2.5-2.5-2.5H23.552z"/>
		<g>
			<path id="_Path_7_534_" style="fill:#FFE500;" d="M35.892,8.223c-0.122-0.11-0.289-0.155-0.45-0.12     c-0.163,0.03-0.303,0.133-0.38,0.28l-3.29,6.27c-0.117,0.213-0.072,0.479,0.11,0.64c0.191,0.148,0.459,0.148,0.65,0l5.78-3.93     c0.136-0.089,0.221-0.238,0.23-0.4c0.015-0.16-0.044-0.318-0.16-0.43L35.892,8.223z"/>
			<path style="fill:#45413C;" d="M32.215,15.907c-0.224,0-0.45-0.072-0.64-0.219c-0.385-0.34-0.474-0.857-0.24-1.278l3.285-6.26     c0.145-0.279,0.418-0.481,0.731-0.539c0.301-0.066,0.635,0.023,0.876,0.241c0.002,0.001,0.004,0.003,0.005,0.004l2.489,2.31     c0.233,0.223,0.347,0.528,0.318,0.842c-0.016,0.301-0.186,0.597-0.452,0.772l-5.774,3.926     C32.643,15.839,32.431,15.907,32.215,15.907z M35.55,8.591c0,0-0.001,0-0.002,0l-3.333,6.293l5.816-3.936l-2.475-2.356     C35.555,8.592,35.553,8.591,35.55,8.591z"/>
		</g>
		<g>
			<path id="_Path_8_505_" style="fill:#FFE500;" d="M21.772,4.503c-0.172-0.003-0.337,0.07-0.45,0.2     c-0.106,0.128-0.144,0.3-0.1,0.46l1.91,6.85c0.068,0.241,0.29,0.405,0.54,0.4c0.252,0,0.473-0.168,0.54-0.41l1.67-6.81     c0.039-0.154,0.001-0.318-0.1-0.44c-0.104-0.132-0.262-0.209-0.43-0.21L21.772,4.503z"/>
			<path style="fill:#45413C;" d="M23.653,12.913c-0.459,0-0.874-0.312-1.001-0.764l-1.911-6.852     c-0.087-0.321-0.013-0.662,0.197-0.914c0.217-0.25,0.527-0.374,0.842-0.38l3.578,0.04c0.319,0.002,0.618,0.148,0.817,0.401     c0.194,0.234,0.269,0.564,0.19,0.872l-1.669,6.806C24.565,12.601,24.131,12.902,23.653,12.913z M21.76,5.003     c-0.023,0-0.045,0.01-0.06,0.027l1.914,6.849l0.598,0.124l-0.486-0.119l1.67-6.81l-3.63-0.071     C21.765,5.003,21.762,5.003,21.76,5.003z"/>
		</g>
		<g>
			<path id="_Path_9_472_" style="fill:#FFE500;" d="M45.972,22.043c0.113,0.27-0.014,0.581-0.284,0.693     c-0.043,0.018-0.089,0.03-0.136,0.037l-7,0.9c-0.276,0.102-0.583-0.039-0.685-0.315c-0.102-0.276,0.039-0.583,0.315-0.685l5.71-4     c0.13-0.095,0.296-0.124,0.45-0.08c0.155,0.046,0.28,0.16,0.34,0.31L45.972,22.043z"/>
			<path style="fill:#45413C;" d="M38.366,24.207c-0.146,0-0.292-0.032-0.429-0.095c-0.252-0.115-0.443-0.321-0.539-0.581     c-0.096-0.259-0.086-0.54,0.03-0.791c0.104-0.228,0.285-0.406,0.512-0.509l5.665-3.969c0.244-0.179,0.572-0.236,0.875-0.15     c0.306,0.09,0.547,0.31,0.666,0.602l1.288,3.138c0.104,0.253,0.105,0.532,0.001,0.786c-0.104,0.254-0.302,0.453-0.556,0.559     c-0.08,0.035-0.172,0.06-0.266,0.071l-6.951,0.894C38.566,24.192,38.466,24.207,38.366,24.207z M38.369,23.14     c0.035,0,0.049,0.06,0.119,0.037l7-0.9c-0.001-0.001,0.021-0.043,0.021-0.044l-1.289-3.14l-5.75,3.99     c-0.035,0.024-0.073,0.044-0.113,0.059C38.361,23.14,38.365,23.14,38.369,23.14z"/>
		</g>
		<g>
			<path id="_Path_10_436_" style="fill:#FFE500;" d="M45.722,34.543c-0.037,0.159-0.149,0.289-0.3,0.35     c-0.146,0.08-0.324,0.08-0.47,0l-6.14-3.54c-0.26-0.134-0.363-0.453-0.229-0.714c0.097-0.189,0.297-0.301,0.509-0.286l7,0.23     c0.161,0.007,0.311,0.083,0.41,0.21c0.093,0.13,0.126,0.294,0.09,0.45L45.722,34.543z"/>
			<path style="fill:#45413C;" d="M45.2,35.457c-0.162,0-0.333-0.041-0.488-0.126l-6.149-3.544c-0.484-0.25-0.684-0.872-0.424-1.376     c0.189-0.368,0.581-0.589,0.99-0.557l6.979,0.229c0.313,0.014,0.598,0.159,0.787,0.401c0.189,0.265,0.252,0.576,0.184,0.871     l-0.872,3.308c-0.075,0.314-0.299,0.573-0.6,0.693C45.491,35.423,45.35,35.457,45.2,35.457z M39.075,30.854l6.127,3.605     c0.001-0.005,0.034-0.038,0.036-0.044l0.87-3.3L39.075,30.854z"/>
		</g>
		<g>
			<path id="_Path_11_405_" style="fill:#FFE500;" d="M11.212,8.223c0.122-0.11,0.289-0.155,0.45-0.12     c0.163,0.03,0.303,0.133,0.38,0.28l3.29,6.27c0.117,0.213,0.072,0.479-0.11,0.64c-0.191,0.148-0.459,0.148-0.65,0l-5.78-3.91     c-0.136-0.089-0.221-0.238-0.23-0.4c-0.015-0.16,0.044-0.318,0.16-0.43L11.212,8.223z"/>
			<path style="fill:#45413C;" d="M14.888,15.902c-0.222,0-0.44-0.072-0.623-0.214l-5.753-3.891     C8.251,11.626,8.08,11.33,8.063,11.01c-0.027-0.294,0.086-0.599,0.313-0.817l2.495-2.335c0.002-0.002,0.004-0.004,0.006-0.006     c0.241-0.217,0.575-0.306,0.891-0.238c0.302,0.056,0.569,0.252,0.717,0.537l3.29,6.27c0.227,0.411,0.139,0.928-0.221,1.247     C15.352,15.825,15.118,15.902,14.888,15.902z M11.212,8.223l0.342,0.365l-2.49,2.33l5.789,3.96l-3.253-6.264L11.212,8.223z"/>
		</g>
		<g>
			<path id="_Path_12_378_" style="fill:#FFE500;" d="M1.132,22.043c-0.08,0.146-0.08,0.324,0,0.47     c0.077,0.147,0.224,0.245,0.39,0.26l7,0.9c0.276,0.102,0.583-0.039,0.685-0.315c0.102-0.276-0.039-0.583-0.315-0.685l-5.71-4     c-0.13-0.095-0.296-0.124-0.45-0.08c-0.155,0.046-0.28,0.16-0.34,0.31L1.132,22.043z"/>
			<path style="fill:#45413C;" d="M8.708,24.207c-0.1,0-0.2-0.015-0.297-0.044l-6.953-0.894c-0.316-0.028-0.611-0.224-0.769-0.523     c-0.153-0.28-0.158-0.621-0.012-0.912l1.251-3.117c0.118-0.293,0.358-0.513,0.661-0.603c0.304-0.09,0.635-0.03,0.888,0.155     l5.657,3.963c0.488,0.222,0.73,0.789,0.541,1.299c-0.095,0.259-0.286,0.465-0.537,0.58C9.002,24.175,8.855,24.207,8.708,24.207z      M1.576,22.274l7.01,0.903c0.038,0.005,0.074,0.014,0.11,0.027c-0.04-0.015-0.056-0.097-0.091-0.122l-5.71-4l-1.299,3.146     C1.591,22.245,1.584,22.259,1.576,22.274z M1.132,22.043h0.01H1.132z"/>
		</g>
		<g>
			<path id="_Path_13_358_" style="fill:#FFE500;" d="M1.382,34.543c0.037,0.159,0.149,0.289,0.3,0.35c0.146,0.08,0.324,0.08,0.47,0     l6.14-3.54c0.26-0.134,0.363-0.453,0.229-0.714c-0.097-0.189-0.297-0.301-0.509-0.286l-7,0.23     c-0.161,0.007-0.311,0.083-0.41,0.21c-0.093,0.13-0.126,0.294-0.09,0.45L1.382,34.543z"/>
			<path style="fill:#45413C;" d="M1.915,35.452c-0.163,0-0.325-0.04-0.472-0.121c-0.247-0.095-0.469-0.353-0.545-0.666     l-0.869-3.294c-0.071-0.313-0.009-0.623,0.167-0.869c0.203-0.26,0.488-0.405,0.795-0.419l7.005-0.229     c0.396-0.035,0.781,0.189,0.97,0.558c0.259,0.503,0.06,1.125-0.444,1.387l-6.12,3.528C2.247,35.41,2.08,35.452,1.915,35.452z      M1.87,34.431h0.01H1.87z M8.043,30.92l-7.014,0.163l0.837,3.332c0.001,0.005,0.002,0.009,0.003,0.013L8.043,30.92z"/>
		</g>
		<ellipse style="opacity:0.15;fill:#45413C;enable-background:new    ;" cx="23.552" cy="41.603" rx="14" ry="1.5"/>
	</g>
</g>















</svg>
