<?xml version="1.0" encoding="iso-8859-1"?>
<!-- Generator: Adobe Illustrator 21.0.0, SVG Export Plug-In . SVG Version: 6.00 Build 0)  -->
<svg xmlns="http://www.w3.org/2000/svg" xmlns:xlink="http://www.w3.org/1999/xlink" version="1.1" id="Capa_1" x="0px" y="0px" viewBox="0 0 43.058 43.058" style="enable-background:new 0 0 43.058 43.058;" xml:space="preserve" width="512" height="512">
<g>
	<g>
		<path id="_Path__615_" style="fill:#DAEDF7;" d="M39.031,5.84c0.313,0.412,0.367,0.965,0.14,1.43l-2.46,4.91l-4-4.53l3.46-2.3    C37.102,4.722,38.362,4.938,39.031,5.84z"/>
		<path style="fill:#45413C;" d="M36.711,12.679c-0.143,0-0.279-0.061-0.375-0.169l-4-4.53c-0.096-0.108-0.14-0.253-0.121-0.396    c0.02-0.144,0.099-0.271,0.22-0.352l3.46-2.3c1.15-0.776,2.707-0.512,3.537,0.606c0.428,0.566,0.5,1.313,0.188,1.95l-2.462,4.914    c-0.074,0.148-0.218,0.25-0.383,0.271C36.754,12.678,36.733,12.679,36.711,12.679z M33.466,7.749l3.13,3.544l2.128-4.248    c0.144-0.292,0.109-0.64-0.091-0.904c-0.001-0.001-0.002-0.003-0.003-0.004c-0.512-0.688-1.468-0.851-2.18-0.373L33.466,7.749z"/>
	</g>
	
		<ellipse id="_Ellipse__591_" style="opacity:0.15;fill:#45413C;enable-background:new    ;" cx="21.171" cy="36.87" rx="20.98" ry="1.7"/>
	<path id="_Path_2_603_" style="fill:#FF6242;" d="M38.631,18.23l-0.5-0.38l-1.36-7.9c-0.288-1.364-1.477-2.35-2.87-2.38   l-11.73-0.61c-5.405-0.331-10.468,2.658-12.79,7.55l-2.27,5.06l0,0c-3.326-0.089-6.136,2.451-6.38,5.77l-0.23,4.63   c-0.034,1.104,0.833,2.027,1.937,2.061c0.051,0.002,0.102,0.001,0.153-0.001h37.58c1.275,0.043,2.343-0.956,2.386-2.232   c0.004-0.12-0.001-0.24-0.016-0.358l-0.95-6.29C41.293,21.183,40.229,19.414,38.631,18.23z"/>
	<path id="_Path_3_600_" style="fill:#FF866E;" d="M0.721,28.38c0.2-2.79,2.252-5.097,5-5.62c0.936-0.208,1.717-0.851,2.1-1.73   l1.56-3.46c2.321-4.894,7.383-7.886,12.79-7.56l11.73,0.56c1.409,0.035,2.603,1.047,2.87,2.43l1.4,7.91l0.5,0.38   c1.614,1.176,2.694,2.946,3,4.92l0.7,4.61c0.235-0.419,0.322-0.905,0.25-1.38l-0.95-6.29c-0.308-1.973-1.387-3.743-3-4.92   l-0.5-0.38l-1.36-7.9c-0.291-1.378-1.502-2.368-2.91-2.38l-11.73-0.61c-5.405-0.331-10.468,2.658-12.79,7.55l-2.27,5.06   c-3.326-0.084-6.136,2.452-6.39,5.77l-0.22,4.63c-0.01,0.242,0.028,0.483,0.11,0.71L0.721,28.38z"/>
	<path style="fill:#45413C;" d="M2.504,32.532c-0.024,0-0.05-0.001-0.075-0.001c-1.383-0.043-2.47-1.199-2.427-2.577l0.23-4.639   c0.257-3.49,3.106-6.169,6.556-6.246l2.137-4.764c2.427-5.114,7.637-8.183,13.277-7.844L33.928,7.07   c1.618,0.035,2.995,1.177,3.332,2.776l1.33,7.725l0.341,0.259c1.715,1.272,2.835,3.135,3.154,5.245l0.95,6.29   c0.02,0.158,0.026,0.304,0.021,0.45c-0.051,1.548-1.369,2.764-2.902,2.715H2.591C2.567,32.531,2.537,32.532,2.504,32.532z    M6.941,20.067c-2.996,0-5.49,2.304-5.711,5.31l-0.229,4.617c-0.025,0.818,0.626,1.512,1.453,1.537l0.118-0.001h37.599   c1.021,0.043,1.853-0.751,1.886-1.748c0.003-0.094,0-0.188-0.012-0.282l-0.948-6.275c-0.28-1.848-1.262-3.479-2.764-4.593   c-0.002-0.001-0.003-0.002-0.005-0.004l-0.5-0.38c-0.101-0.076-0.169-0.188-0.19-0.313l-1.36-7.9   c-0.236-1.124-1.22-1.939-2.387-1.965l-11.746-0.61C16.908,7.129,12.079,9.99,9.833,14.724l-2.266,5.05   c-0.083,0.184-0.268,0.276-0.469,0.295C7.046,20.068,6.993,20.067,6.941,20.067z"/>
	<circle id="_Path_5_584_" style="fill:#87898C;" cx="10.051" cy="32.03" r="4.54"/>
	<circle id="_Path_6_546_" style="fill:#87898C;" cx="33.301" cy="32.03" r="4.54"/>
	<path id="_Path_7_525_" style="fill:#656769;" d="M10.051,29.48c2.123,0.001,3.961,1.477,4.42,3.55c0.075-0.328,0.115-0.663,0.12-1   c0-2.507-2.033-4.54-4.54-4.54s-4.54,2.033-4.54,4.54c0.005,0.337,0.045,0.672,0.12,1C6.091,30.957,7.928,29.481,10.051,29.48z"/>
	<path id="_Path_8_498_" style="fill:#656769;" d="M33.301,29.48c2.123,0.001,3.961,1.477,4.42,3.55c0.075-0.328,0.115-0.663,0.12-1   c0-2.507-2.033-4.54-4.54-4.54s-4.54,2.033-4.54,4.54c0.005,0.337,0.045,0.672,0.12,1C29.344,30.959,31.179,29.485,33.301,29.48z"/>
	<path style="fill:#45413C;" d="M10.051,37.07c-2.779,0-5.04-2.261-5.04-5.04s2.261-5.04,5.04-5.04s5.04,2.261,5.04,5.04   S12.83,37.07,10.051,37.07z M10.051,27.99c-2.228,0-4.04,1.813-4.04,4.04s1.813,4.04,4.04,4.04s4.04-1.813,4.04-4.04   S12.279,27.99,10.051,27.99z"/>
	<path style="fill:#45413C;" d="M33.301,37.07c-2.779,0-5.04-2.261-5.04-5.04s2.261-5.04,5.04-5.04s5.04,2.261,5.04,5.04   S36.08,37.07,33.301,37.07z M33.301,27.99c-2.228,0-4.04,1.813-4.04,4.04s1.813,4.04,4.04,4.04s4.04-1.813,4.04-4.04   S35.529,27.99,33.301,27.99z"/>
	<path id="_Path_11_398_" style="fill:#00B8F0;" d="M11.891,18.57c-0.055,0.197,0.059,0.401,0.256,0.456   c0.031,0.009,0.062,0.013,0.094,0.014h17.09c0.63,0,1.14-0.51,1.14-1.14v-6.33c0.001-0.598-0.463-1.093-1.06-1.13l-5.24-0.41   C18.574,9.615,13.451,13.178,11.891,18.57z"/>
	<path style="fill:#4ACFFF;" d="M25.701,10.14l-1.53-0.11c-5.598-0.415-10.721,3.148-12.28,8.54   c-0.055,0.197,0.059,0.401,0.256,0.456c0.031,0.009,0.062,0.013,0.094,0.014h8.43L25.701,10.14z"/>
	<path style="fill:#45413C;" d="M29.331,19.54h-17.09c-0.044,0-0.182-0.02-0.225-0.031c-0.466-0.132-0.736-0.613-0.607-1.074   c0-0.001,0.001-0.003,0.001-0.004c1.616-5.587,7.009-9.33,12.797-8.9l5.242,0.41c0.851,0.053,1.521,0.769,1.521,1.629V17.9   C30.971,18.804,30.236,19.54,29.331,19.54z M23.301,10.497c-4.949,0-9.42,3.27-10.881,8.048l16.911-0.005   c0.353,0,0.64-0.287,0.64-0.64v-6.33c0.001-0.333-0.259-0.61-0.591-0.631l-5.248-0.411C23.854,10.507,23.576,10.497,23.301,10.497z   "/>
	<g>
		<path style="fill:#BDBEC0;" d="M27.061,21.82h-3.4c-0.627,0.059-1.087,0.615-1.028,1.242c0.051,0.545,0.483,0.977,1.028,1.028h3.4    c0.627,0.059,1.183-0.402,1.242-1.028c0.059-0.627-0.402-1.183-1.028-1.242C27.204,21.813,27.132,21.813,27.061,21.82z"/>
		<path style="fill:#45413C;" d="M27.168,24.594c-0.051,0-0.103-0.002-0.154-0.007l-3.353,0.002    c-0.83-0.075-1.452-0.697-1.526-1.481c-0.042-0.437,0.09-0.862,0.37-1.199c0.279-0.338,0.674-0.546,1.109-0.587l3.425-0.002    c0.097-0.007,0.189-0.006,0.283,0.002c0.435,0.041,0.829,0.249,1.108,0.586c0.279,0.337,0.411,0.763,0.37,1.199    C28.722,23.956,28.005,24.594,27.168,24.594z M27.061,23.59c0.393,0.035,0.712-0.223,0.744-0.575    c0.017-0.17-0.035-0.336-0.145-0.468c-0.108-0.132-0.262-0.213-0.433-0.229c-0.04-0.004-0.079-0.004-0.119,0    c-0.016,0.001-0.032,0.002-0.048,0.002h-3.399c-0.124,0.014-0.277,0.095-0.387,0.227c-0.108,0.132-0.16,0.298-0.144,0.468    c0.028,0.306,0.271,0.549,0.576,0.577L27.061,23.59z"/>
	</g>
	<g>
		<path style="fill:#FFE500;" d="M3.811,25.23h-3.08v0.1l-0.16,3.3h2.86c0.49-0.001,0.925-0.315,1.08-0.78l0.38-1.13    c0.193-0.599-0.136-1.242-0.735-1.435C4.045,25.249,3.928,25.23,3.811,25.23z"/>
		<path style="fill:#45413C;" d="M0.571,29.13c-0.137,0-0.268-0.056-0.362-0.155c-0.095-0.099-0.144-0.232-0.138-0.369l0.16-3.3    l0-0.076c0-0.276,0.224-0.5,0.5-0.5h3.08c0.17,0.003,0.338,0.028,0.499,0.08c0.417,0.134,0.756,0.423,0.956,0.813    c0.2,0.391,0.235,0.835,0.101,1.251l-0.382,1.136c-0.222,0.669-0.846,1.12-1.552,1.121H0.571z M1.096,28.13h2.335    c0.275-0.001,0.518-0.177,0.605-0.438l0.381-1.132c0.05-0.157,0.036-0.33-0.042-0.482c-0.078-0.152-0.21-0.265-0.374-0.317    c-0.063-0.02-0.128-0.03-0.194-0.031H1.212L1.096,28.13z"/>
	</g>
	<g>
		<path id="_Path_13_353_" style="fill:#FFE500;" d="M41.851,24.66h-1.74c-0.939,0-1.7,0.761-1.7,1.7s0.761,1.7,1.7,1.7h2.25    L41.851,24.66z"/>
		<path style="fill:#45413C;" d="M42.362,28.559h-2.25c-1.213,0-2.2-0.986-2.2-2.199s0.987-2.2,2.2-2.2h1.739    c0.247,0,0.458,0.181,0.494,0.426l0.511,3.399c0.021,0.144-0.021,0.29-0.115,0.4S42.507,28.559,42.362,28.559z M40.112,25.16    c-0.662,0-1.2,0.538-1.2,1.2c0,0.661,0.538,1.199,1.2,1.199h1.669l-0.36-2.399H40.112z"/>
	</g>
	<path style="fill:#45413C;" d="M12.321,28.61c-0.276,0-0.5-0.224-0.5-0.5v-5.15c0-0.276,0.224-0.5,0.5-0.5s0.5,0.224,0.5,0.5v5.15   C12.821,28.386,12.597,28.61,12.321,28.61z"/>
	<path style="fill:#45413C;" d="M33.301,28c-0.276,0-0.5-0.224-0.5-0.5v-3.63c-0.001-1.112-0.554-2.146-1.479-2.765   c-0.229-0.154-0.291-0.464-0.137-0.694c0.153-0.229,0.463-0.291,0.693-0.137c1.202,0.805,1.921,2.148,1.922,3.596v3.63   C33.801,27.776,33.577,28,33.301,28z"/>
	<g>
		<circle id="_Path_16_292_" style="fill:#DAEDF7;" cx="10.051" cy="32.03" r="1.7"/>
		<path style="fill:#45413C;" d="M10.051,34.229c-1.213,0-2.2-0.986-2.2-2.199s0.987-2.2,2.2-2.2c1.213,0,2.2,0.987,2.2,2.2    S11.264,34.229,10.051,34.229z M10.051,30.83c-0.662,0-1.2,0.538-1.2,1.2c0,0.661,0.538,1.199,1.2,1.199s1.2-0.538,1.2-1.199    C11.251,31.368,10.713,30.83,10.051,30.83z"/>
	</g>
	<g>
		<circle id="_Path_17_260_" style="fill:#DAEDF7;" cx="33.301" cy="32.03" r="1.7"/>
		<path style="fill:#45413C;" d="M33.301,34.229c-1.213,0-2.2-0.986-2.2-2.199s0.987-2.2,2.2-2.2s2.2,0.987,2.2,2.2    S34.514,34.229,33.301,34.229z M33.301,30.83c-0.662,0-1.2,0.538-1.2,1.2c0,0.661,0.538,1.199,1.2,1.199s1.2-0.538,1.2-1.199    C34.501,31.368,33.963,30.83,33.301,30.83z"/>
	</g>
</g>















</svg>
