<?xml version="1.0" encoding="iso-8859-1"?>
<!-- Generator: Adobe Illustrator 21.0.0, SVG Export Plug-In . SVG Version: 6.00 Build 0)  -->
<svg xmlns="http://www.w3.org/2000/svg" xmlns:xlink="http://www.w3.org/1999/xlink" version="1.1" id="Capa_1" x="0px" y="0px" viewBox="0 0 45.3 45.3" style="enable-background:new 0 0 45.3 45.3;" xml:space="preserve" width="512" height="512">
<g>
	<path id="_Path__503_" style="fill:#FFCCDD;" d="M34.06,31.795c0,0,0.51-7.21,4.68-5.3s-1.62,6.11-1.62,6.11L34.06,31.795z"/>
	<path id="_Path_2_495_" style="fill:#FFE5EE;" d="M37.91,28.575c1.08,0.5,1.51,1.13,1.55,1.81c1-1.3,1.48-2.88-0.72-3.89   c-2.63-1.21-3.8,1.22-4.31,3.17c0.585-1.238,2.063-1.768,3.302-1.183C37.792,28.51,37.852,28.541,37.91,28.575z"/>
	<path style="fill:#45413C;" d="M37.12,33.105c-0.043,0-0.086-0.006-0.128-0.017l-3.061-0.81c-0.232-0.062-0.388-0.279-0.371-0.519   c0.013-0.181,0.338-4.432,2.505-5.716c0.834-0.494,1.806-0.498,2.883-0.003c1.1,0.503,1.702,1.212,1.791,2.107   c0.221,2.22-2.962,4.597-3.325,4.86C37.327,33.072,37.225,33.105,37.12,33.105z M34.599,31.421l2.415,0.639   c0.953-0.737,2.861-2.504,2.73-3.813c-0.053-0.523-0.449-0.948-1.212-1.297c-0.771-0.355-1.412-0.368-1.956-0.047   C35.304,27.657,34.757,30.128,34.599,31.421z"/>
	<g>
		<path id="_Path_4_495_" style="fill:#EBCB00;" d="M36.87,32.535l-0.2-1.38c-0.09-0.843,0.03-1.695,0.35-2.48"/>
		<path style="fill:#45413C;" d="M36.869,33.035c-0.244,0-0.458-0.18-0.494-0.429l-0.2-1.381c-0.101-0.939,0.032-1.881,0.382-2.739    c0.104-0.256,0.395-0.38,0.651-0.274c0.256,0.104,0.379,0.396,0.274,0.651c-0.287,0.706-0.396,1.48-0.315,2.238l0.198,1.362    c0.039,0.272-0.15,0.526-0.424,0.566C36.918,33.033,36.893,33.035,36.869,33.035z"/>
	</g>
	<g>
		<path id="_Path_5_485_" style="fill:#FFCCDD;" d="M36.67,32.565c1.201-0.64,2.53-1.003,3.89-1.06    c1.498,0.166,2.944,0.65,4.24,1.42l-1.06,3.18c-0.868-1.047-1.953-1.894-3.18-2.48c-1.138-0.445-2.402-0.445-3.54,0L36.67,32.565z    "/>
		<path style="fill:#45413C;" d="M43.74,36.605c-0.147,0-0.289-0.065-0.385-0.181c-0.817-0.985-1.858-1.798-3.012-2.348    c-0.989-0.386-2.117-0.385-3.143,0.015c-0.128,0.05-0.271,0.046-0.395-0.014c-0.124-0.059-0.219-0.165-0.262-0.296l-0.35-1.061    c-0.076-0.23,0.024-0.483,0.239-0.598c1.258-0.671,2.677-1.058,4.104-1.118c1.658,0.178,3.152,0.679,4.518,1.49    c0.202,0.12,0.293,0.364,0.219,0.588l-1.06,3.18c-0.058,0.172-0.204,0.3-0.383,0.333C43.802,36.602,43.77,36.605,43.74,36.605z     M38.79,32.79c0.661,0,1.322,0.123,1.952,0.369c1.046,0.498,1.992,1.172,2.794,1.978l0.659-1.98    c-1.146-0.622-2.386-1.01-3.69-1.154c-1.07,0.051-2.196,0.33-3.225,0.815l0.057,0.174C37.812,32.858,38.302,32.79,38.79,32.79z"/>
	</g>
	<g>
		<path id="_Path_6_445_" style="fill:#6DD627;" d="M19.74,16.295l1.56,1c1.028,0.682,1.862,1.619,2.42,2.72    c1.247,2.661,2.758,5.191,4.51,7.55c3.539,4.208,7.312,8.214,11.3,12l1.41-1.42c-3.719-3.563-7.254-7.315-10.59-11.24    c-1.472-1.921-2.764-3.973-3.86-6.13c-1.016-1.785-1.209-3.922-0.53-5.86L19.74,16.295z"/>
		<path style="fill:#45413C;" d="M39.53,40.065c-0.124,0-0.248-0.046-0.344-0.138c-3.984-3.78-7.799-7.832-11.339-12.04    c-1.787-2.404-3.321-4.974-4.58-7.66c-0.512-1.008-1.29-1.883-2.244-2.515l-1.553-0.996c-0.17-0.109-0.258-0.31-0.222-0.508    c0.035-0.199,0.187-0.357,0.384-0.401l6.22-1.38c0.179-0.038,0.362,0.021,0.482,0.156s0.158,0.326,0.098,0.497    c-0.631,1.802-0.451,3.788,0.493,5.448c1.088,2.14,2.37,4.176,3.822,6.073c3.291,3.872,6.843,7.642,10.539,11.183    c0.097,0.093,0.152,0.221,0.154,0.355c0.002,0.134-0.051,0.263-0.146,0.358l-1.41,1.42C39.787,40.015,39.659,40.065,39.53,40.065z     M21.022,16.523l0.548,0.352c1.104,0.731,2,1.738,2.596,2.915c1.237,2.64,2.737,5.151,4.466,7.478    c3.393,4.032,7.06,7.939,10.889,11.598l0.707-0.712c-3.59-3.462-7.039-7.135-10.259-10.924c-1.505-1.965-2.819-4.053-3.924-6.227    c-0.934-1.64-1.214-3.578-0.797-5.417L21.022,16.523z"/>
	</g>
	
		<ellipse id="_Ellipse__490_" style="opacity:0.15;fill:#45413C;enable-background:new    ;" cx="25.08" cy="42.495" rx="15.5" ry="1.5"/>
	<g id="_Group__428_">
		<g>
			<path id="_Path_7_425_" style="fill:#6DD627;" d="M9.09,14.185l0.71,0.2c1.457,0.398,2.784,1.17,3.85,2.24l25.14,25.13l1.41-1.41     l-24.27-24.28c-1.629-1.631-2.571-3.825-2.63-6.13L9.09,14.185z"/>
			<path style="fill:#45413C;" d="M38.79,42.255c-0.128,0-0.256-0.049-0.354-0.146l-25.14-25.13     c-1.004-1.007-2.258-1.737-3.628-2.111l-0.714-0.201c-0.17-0.048-0.303-0.183-0.348-0.354c-0.045-0.171,0.003-0.354,0.128-0.479     l4.21-4.25c0.142-0.143,0.354-0.184,0.539-0.113c0.187,0.074,0.311,0.251,0.316,0.452c0.056,2.187,0.938,4.243,2.484,5.789     l24.27,24.28c0.195,0.195,0.195,0.512,0,0.707l-1.41,1.41C39.046,42.206,38.918,42.255,38.79,42.255z M10.042,13.934     c1.493,0.427,2.861,1.234,3.961,2.338L38.79,41.048l0.703-0.703L15.577,16.418c-1.463-1.464-2.395-3.337-2.684-5.362     L10.042,13.934z"/>
		</g>
		<g>
			<path id="_Path_8_407_" style="fill:#FF6242;" d="M8.67,11.765L8.67,11.765c-3.159,0.107-5.811-2.361-5.93-5.52l-0.11-3.25     l2.79,2.58C7.175,7.209,8.321,9.392,8.67,11.765z"/>
			<path style="fill:#45413C;" d="M8.474,12.268c-3.332,0-6.106-2.651-6.233-6.004L2.13,3.012C2.123,2.81,2.238,2.624,2.422,2.54     c0.184-0.084,0.4-0.048,0.547,0.087l2.79,2.58C7.591,6.914,8.8,9.217,9.164,11.692c0.021,0.141-0.02,0.284-0.111,0.393     s-0.225,0.175-0.367,0.179C8.616,12.267,8.544,12.268,8.474,12.268z M3.17,4.176L3.24,6.228c0.101,2.678,2.216,4.823,4.832,5.025     C7.648,9.225,6.599,7.356,5.079,5.941L3.17,4.176z"/>
		</g>
		<path id="_Path_9_374_" style="fill:#FF6242;" d="M10.63,10.295L10.63,10.295c0.589-3.104-1.449-6.097-4.552-6.687    C6.072,3.607,6.066,3.606,6.06,3.605l-3.43-0.61L5,6.145C6.354,8.124,8.339,9.587,10.63,10.295z"/>
		<path style="fill:#FF866E;" d="M6.13,5.585c2.276,0.432,4.067,2.192,4.54,4.46c0.433-3.034-1.598-5.872-4.61-6.44l-3.43-0.61    l1.67,2.26L6.13,5.585z"/>
		<path style="fill:#45413C;" d="M10.63,10.795c-0.049,0-0.099-0.007-0.147-0.022c-2.39-0.738-4.483-2.281-5.895-4.346L2.23,3.296    C2.107,3.131,2.096,2.908,2.204,2.733c0.108-0.175,0.309-0.27,0.514-0.23l3.43,0.61c3.393,0.644,5.613,3.906,4.974,7.276    c-0.026,0.14-0.111,0.262-0.233,0.335C10.809,10.771,10.72,10.795,10.63,10.795z M3.793,3.71l1.606,2.134    c1.185,1.732,2.876,3.053,4.816,3.781C10.417,7.011,8.619,4.6,5.984,4.099L3.793,3.71z"/>
		<path id="_Path_11_324_" style="fill:#FF6242;" d="M11.63,14.535L11.63,14.535c2.734-2.734,2.734-7.166,0.001-9.899    c0,0,0,0-0.001-0.001L8.8,1.805v4.67C8.801,9.405,9.799,12.247,11.63,14.535z"/>
		<path id="_Path_12_303_" style="fill:#FF866E;" d="M10.88,6.465c1.743,1.742,2.441,4.271,1.84,6.66    c1.611-2.748,1.163-6.238-1.09-8.49L8.8,1.805v2.59L10.88,6.465z"/>
		<path style="fill:#45413C;" d="M11.63,15.035c-0.009,0-0.019,0-0.028-0.001c-0.142-0.008-0.274-0.076-0.363-0.187    C9.345,12.48,8.301,9.507,8.3,6.475v-4.67c0-0.202,0.122-0.385,0.309-0.462s0.402-0.034,0.545,0.108l2.83,2.83    c1.417,1.417,2.197,3.3,2.197,5.304c0,2.003-0.781,3.887-2.197,5.303C11.889,14.983,11.762,15.035,11.63,15.035z M9.3,3.012v3.463    c0.001,2.61,0.838,5.174,2.366,7.282c0.981-1.168,1.515-2.629,1.515-4.172c0-1.736-0.676-3.368-1.904-4.596L9.3,3.012z"/>
		<g>
			<path style="fill:#FF6242;" d="M9.2,9.645c-1.052-0.271-2.134-0.409-3.22-0.41H1.3l2.83,2.83c1.83,1.834,4.523,2.507,7,1.75     C10.238,12.554,9.584,11.141,9.2,9.645z"/>
			<path style="fill:#45413C;" d="M9.078,14.622c-1.96,0-3.872-0.771-5.302-2.204l-2.83-2.829C0.803,9.446,0.76,9.231,0.838,9.044     C0.915,8.857,1.098,8.735,1.3,8.735h4.68c1.127,0,2.253,0.144,3.345,0.425c0.176,0.046,0.314,0.184,0.359,0.36     c0.37,1.441,0.993,2.789,1.854,4.005c0.093,0.131,0.117,0.298,0.065,0.45s-0.173,0.27-0.327,0.316     C10.552,14.514,9.811,14.622,9.078,14.622z M2.507,9.735l1.977,1.976c1.541,1.545,3.727,2.2,5.837,1.791     c-0.672-1.07-1.184-2.224-1.526-3.442C7.872,9.844,6.926,9.736,5.98,9.735H2.507z"/>
		</g>
	</g>
	<g id="_Group_2_290_">
		<path id="_Path_14_268_" style="fill:#FFE500;" d="M24.1,13.495L24.1,13.495c1.656-2.695,0.814-6.223-1.88-7.88l-2.78-1.72    l0.86,3.72C20.857,9.952,22.199,12.027,24.1,13.495z"/>
		<path id="_Path_15_251_" style="fill:#FFF48C;" d="M21.64,7.285c2.021,1.228,3.078,3.573,2.66,5.9c1.43-2.656,0.556-5.967-2-7.57    l-2.86-1.72L20,6.275L21.64,7.285z"/>
		<path style="fill:#45413C;" d="M24.1,13.995c-0.11,0-0.217-0.036-0.306-0.104c-1.985-1.533-3.398-3.72-3.98-6.159l-0.861-3.724    c-0.045-0.197,0.032-0.401,0.196-0.519c0.164-0.119,0.382-0.125,0.555-0.019l2.78,1.72c2.923,1.798,3.84,5.642,2.042,8.567    c-0.074,0.121-0.196,0.205-0.336,0.23C24.16,13.992,24.13,13.995,24.1,13.995z M20.197,4.951l0.59,2.551    c0.482,2.023,1.597,3.857,3.162,5.222c1.122-2.376,0.298-5.275-1.991-6.684L20.197,4.951z"/>
		<g>
			<path id="_Path_17_213_" style="fill:#FFE500;" d="M21.85,14.415L21.85,14.415c-2.99-1.031-4.578-4.289-3.55-7.28l1.14-3.24     l1.59,3.57c1.061,2.172,1.351,4.641,0.82,7V14.415z"/>
			<path style="fill:#45413C;" d="M21.851,14.965c-0.019,0-0.037-0.001-0.056-0.003c-0.117-0.013-0.221-0.066-0.299-0.144     c-3.121-1.19-4.763-4.665-3.669-7.846l1.141-3.244c0.068-0.193,0.247-0.325,0.452-0.333c0.204-0.01,0.393,0.109,0.477,0.296     l1.59,3.57c1.1,2.25,1.405,4.853,0.852,7.313C22.286,14.805,22.081,14.965,21.851,14.965z M19.495,5.246l-0.723,2.055     c-0.873,2.539,0.333,5.303,2.711,6.425c0.325-2.049,0.012-4.171-0.902-6.042L19.495,5.246z"/>
		</g>
		<g>
			<path id="_Path_18_184_" style="fill:#FFE500;" d="M25.08,17.325L25.08,17.325c-3.727,1.028-7.581-1.16-8.609-4.887     c0-0.001-0.001-0.002-0.001-0.003l-1.06-3.86l4.05,2.31C22.01,12.331,23.992,14.602,25.08,17.325z"/>
			<path style="fill:#45413C;" d="M23.221,18.078c-3.291,0-6.316-2.185-7.232-5.507l-1.061-3.863     c-0.054-0.195,0.016-0.403,0.175-0.527c0.16-0.123,0.378-0.141,0.554-0.039l4.05,2.31c2.638,1.496,4.711,3.872,5.836,6.688     c0.053,0.132,0.047,0.28-0.016,0.408c-0.063,0.127-0.178,0.222-0.315,0.26C24.549,17.99,23.879,18.078,23.221,18.078z      M16.212,9.608l0.74,2.694c0.902,3.27,4.154,5.271,7.434,4.669c-1.082-2.371-2.9-4.363-5.172-5.651L16.212,9.608z"/>
		</g>
		<g id="_Group_3_238_">
			<path id="_Path_19_165_" style="fill:#FFE500;" d="M22.01,12.785c0.282-1.027,0.692-2.015,1.22-2.94l2.3-4.06l1.06,3.86     c0.679,2.463-0.038,5.1-1.87,6.88C24.05,15.125,23.132,13.858,22.01,12.785z"/>
			<path id="_Path_20_143_" style="fill:#FFF48C;" d="M25.59,10.995c0.5,1.81,0.251,3.745-0.69,5.37     c1.703-1.78,2.345-4.325,1.69-6.7l-1.06-3.88l-0.92,1.62L25.59,10.995z"/>
			<path style="fill:#45413C;" d="M24.72,17.025c-0.029,0-0.059-0.002-0.088-0.008c-0.158-0.028-0.294-0.131-0.363-0.276     c-0.646-1.351-1.522-2.56-2.604-3.595c-0.133-0.127-0.185-0.317-0.136-0.494c0.294-1.067,0.72-2.095,1.268-3.055l2.3-4.059     c0.099-0.176,0.298-0.272,0.496-0.25c0.201,0.025,0.367,0.168,0.421,0.364l1.06,3.86c0.727,2.638-0.041,5.463-2.004,7.371     C24.974,16.975,24.849,17.025,24.72,17.025z M22.573,12.636c0.898,0.898,1.658,1.913,2.266,3.025     c1.352-1.624,1.838-3.82,1.269-5.884l-0.739-2.693l-1.703,3.007C23.206,10.895,22.84,11.75,22.573,12.636z"/>
		</g>
	</g>
	<g>
		<path id="_Path_22_121_" style="fill:#6DD627;" d="M12.95,19.515l1,1.55c0.677,1.032,1.616,1.867,2.72,2.42    c2.688,1.244,5.244,2.755,7.63,4.51c4.9,3.85,13.78,13.09,13.78,13.09l-1.44,1.41c0,0-8.26-8.5-13.08-12.37    c-1.921-1.474-3.973-2.77-6.13-3.87c-1.786-1.012-3.921-1.205-5.86-0.53L12.95,19.515z"/>
		<path style="fill:#45413C;" d="M36.64,42.995c-0.002,0-0.004,0-0.006,0c-0.133-0.002-0.26-0.057-0.353-0.151    c-0.083-0.085-8.294-8.522-13.034-12.329c-1.882-1.444-3.918-2.729-6.044-3.814c-1.681-0.952-3.668-1.131-5.469-0.503    c-0.17,0.06-0.361,0.021-0.497-0.1c-0.135-0.12-0.195-0.305-0.156-0.481l1.38-6.21c0.044-0.197,0.202-0.348,0.4-0.384    c0.197-0.034,0.399,0.051,0.508,0.221l1,1.55c0.626,0.954,1.499,1.731,2.523,2.244c2.701,1.251,5.297,2.785,7.702,4.556    c4.885,3.836,13.756,13.053,13.845,13.146c0.19,0.198,0.186,0.512-0.011,0.704l-1.44,1.41    C36.895,42.945,36.77,42.995,36.64,42.995z M13.914,24.828c1.305,0,2.603,0.335,3.763,0.991c2.161,1.103,4.249,2.421,6.188,3.909    c4.232,3.397,11.153,10.397,12.783,12.06l0.728-0.713c-1.682-1.733-9.11-9.329-13.384-12.687c-2.339-1.721-4.877-3.222-7.531-4.45    c-1.196-0.599-2.204-1.495-2.928-2.6l-0.354-0.548l-0.939,4.224C12.792,24.89,13.354,24.828,13.914,24.828z"/>
	</g>
	<g id="_Group_4_195_">
		<g>
			<path id="_Path_23_108_" style="fill:#FF87AF;" d="M10.09,23.865L10.09,23.865c-2.693,1.658-6.219,0.821-7.88-1.87l-1.71-2.79     l3.71,0.88C6.542,20.642,8.615,21.975,10.09,23.865z"/>
			<path style="fill:#45413C;" d="M7.097,25.213c-2.091,0-4.136-1.05-5.312-2.956l-1.711-2.792     c-0.105-0.172-0.097-0.391,0.021-0.555c0.118-0.163,0.326-0.24,0.52-0.193l3.71,0.88c2.433,0.582,4.62,1.987,6.159,3.958     c0.087,0.112,0.123,0.256,0.098,0.396c-0.025,0.14-0.109,0.263-0.23,0.337C9.337,24.915,8.21,25.213,7.097,25.213z M1.555,19.969     l1.082,1.765c1.41,2.283,4.308,3.103,6.681,1.982c-1.369-1.554-3.203-2.662-5.223-3.145L1.555,19.969z"/>
		</g>
		<g>
			<path id="_Path_24_96_" style="fill:#FF6196;" d="M11.07,21.615L11.07,21.615c-1.027-2.988-4.28-4.581-7.27-3.56l-3.3,1.15     l3.63,1.59C6.281,21.855,8.731,22.144,11.07,21.615z"/>
			<path style="fill:#45413C;" d="M8.766,22.371c-1.675,0-3.342-0.381-4.857-1.127l-3.609-1.581C0.111,19.58-0.008,19.391,0,19.185     c0.008-0.206,0.141-0.385,0.335-0.453l3.3-1.15c3.249-1.11,6.794,0.628,7.907,3.87c0.046,0.134,0.033,0.282-0.036,0.406     c-0.069,0.124-0.188,0.213-0.326,0.244C10.385,22.282,9.574,22.371,8.766,22.371z M1.867,19.258l2.463,1.079     c1.883,0.927,4.002,1.238,6.048,0.903c-1.12-2.371-3.877-3.578-6.417-2.712L1.867,19.258z"/>
		</g>
		<path id="_Path_25_90_" style="fill:#FF87AF;" d="M13.98,24.845L13.98,24.845c1.022-3.725-1.167-7.573-4.89-8.6l-3.85-1.07    l2.3,4.06C8.986,21.783,11.258,23.762,13.98,24.845z"/>
		<path id="_Path_26_79_" style="fill:#FF6196;" d="M8.93,17.825c3.012,0.83,5.109,3.556,5.14,6.68c0.803-3.646-1.397-7.281-5-8.26    l-3.83-1.07l1.06,1.93L8.93,17.825z"/>
		<path style="fill:#45413C;" d="M13.98,25.345c-0.063,0-0.125-0.012-0.185-0.035c-2.817-1.121-5.193-3.19-6.69-5.828l-2.3-4.061    c-0.1-0.176-0.083-0.395,0.041-0.554c0.125-0.16,0.331-0.229,0.528-0.174l3.85,1.07c3.981,1.098,6.331,5.231,5.239,9.214    c-0.038,0.138-0.132,0.252-0.259,0.315C14.133,25.327,14.057,25.345,13.98,25.345z M6.271,15.981l1.704,3.008    c1.289,2.27,3.281,4.085,5.65,5.162c0.594-3.27-1.405-6.524-4.668-7.424L6.271,15.981z"/>
		<g id="_Group_5_149_">
			<g>
				<path id="_Path_28_61_" style="fill:#FF87AF;" d="M9.44,21.785c-1.027,0.279-2.014,0.685-2.94,1.21l-4,2.3l3.8,1.07      c2.463,0.679,5.1-0.038,6.88-1.87C11.784,23.818,10.518,22.901,9.44,21.785z"/>
				<path style="fill:#45413C;" d="M8.161,27.116c-0.665,0-1.335-0.088-1.994-0.27l-3.802-1.07c-0.194-0.055-0.336-0.22-0.361-0.42      c-0.025-0.199,0.072-0.395,0.247-0.495l4-2.3c0.963-0.546,1.991-0.97,3.058-1.259c0.174-0.047,0.364,0.003,0.49,0.135      c1.04,1.076,2.251,1.954,3.599,2.608c0.145,0.07,0.247,0.206,0.274,0.363c0.027,0.158-0.022,0.32-0.134,0.436      C12.107,26.317,10.159,27.116,8.161,27.116z M3.78,25.136l2.655,0.747c2.065,0.569,4.26,0.081,5.884-1.271      c-1.11-0.613-2.125-1.372-3.027-2.266c-0.887,0.264-1.742,0.627-2.545,1.083L3.78,25.136z"/>
			</g>
		</g>
	</g>
	<path id="_Path_29_49_" style="fill:#6DD627;" d="M36.3,39.425c0,0-7.48-7.36-8.48-14.14s6-13.79,6-13.79s-3.18,5.3-1.06,13.08   c1.136,4.459,3.335,8.577,6.41,12L36.3,39.425z"/>
	<path id="_Path_30_40_" style="fill:#9CEB60;" d="M31.43,14.405c-1.547,3.857-1.755,8.121-0.59,12.11   c1.306,4.379,3.525,8.431,6.51,11.89l1.84-1.82c-3.075-3.423-5.274-7.541-6.41-12c-2.12-7.79,1.06-13.09,1.06-13.09   C32.967,12.405,32.161,13.377,31.43,14.405z"/>
	<path style="fill:#45413C;" d="M36.3,39.925c-0.127,0-0.253-0.048-0.351-0.144c-0.311-0.306-7.61-7.557-8.624-14.423   c-1.024-6.949,5.849-13.923,6.142-14.217c0.177-0.177,0.46-0.195,0.66-0.041c0.199,0.155,0.252,0.435,0.122,0.651   c-0.03,0.051-3.041,5.229-1.007,12.691c1.113,4.371,3.291,8.447,6.3,11.798c0.178,0.198,0.169,0.501-0.02,0.688l-2.87,2.851   C36.555,39.876,36.427,39.925,36.3,39.925z M32.21,14.177c-1.931,2.566-4.508,6.883-3.895,11.035   c0.843,5.714,6.521,11.968,7.99,13.503l2.178-2.163c-2.954-3.401-5.097-7.489-6.208-11.854   C31.053,20.211,31.539,16.545,32.21,14.177z"/>
	<path id="_Path_32_33_" style="fill:#6DD627;" d="M39.19,36.445c0,0-4.11-6.05-14.12-9.82s-18.45,4.88-18.45,4.88   c5.206-2.691,11.415-2.59,16.53,0.27c4.315,2.412,8.271,5.418,11.75,8.93L39.19,36.445z"/>
	<path id="_Path_33_33_" style="fill:#9CEB60;" d="M24.07,29.245c5.137,1.812,9.742,4.874,13.4,8.91l1.72-1.71   c0,0-4.11-6.05-14.12-9.82s-18.45,4.88-18.45,4.88c1.779-0.932,3.709-1.541,5.7-1.8C16.025,28.019,20.244,27.854,24.07,29.245z"/>
	<path style="fill:#45413C;" d="M34.9,41.205c-0.141,0.021-0.261-0.053-0.355-0.148c-3.447-3.479-7.362-6.456-11.639-8.846   c-4.983-2.786-10.984-2.884-16.056-0.262c-0.218,0.11-0.485,0.05-0.631-0.146c-0.146-0.197-0.127-0.472,0.044-0.647   c0.087-0.088,8.788-8.841,18.984-4.998c10.043,3.782,14.187,9.754,14.357,10.006c0.136,0.199,0.11,0.467-0.061,0.636l-4.29,4.261   C35.159,41.154,35.032,41.205,34.9,41.205z M14.636,29.05c3.018,0,6.032,0.764,8.758,2.288c4.212,2.354,8.082,5.267,11.507,8.661   l3.628-3.604c-1.02-1.299-5.235-6.14-13.635-9.303c-6.422-2.416-12.237,0.497-15.406,2.714   C11.169,29.302,12.903,29.05,14.636,29.05z"/>
	<polygon id="_Path_35_25_" style="fill:#FFCCDD;" points="37.73,33.695 32.43,38.995 28.18,36.165 34.9,29.445  "/>
	<polygon id="_Path_36_23_" style="fill:#FFE5EE;" points="37.73,33.695 36.2,35.225 33.38,30.965 34.9,29.445  "/>
	<path style="fill:#45413C;" d="M32.43,39.495c-0.096,0-0.192-0.027-0.277-0.084l-4.25-2.83c-0.124-0.083-0.205-0.218-0.22-0.366   c-0.016-0.149,0.037-0.298,0.144-0.403l6.721-6.721c0.105-0.107,0.253-0.164,0.403-0.144c0.148,0.015,0.283,0.096,0.366,0.22   l2.83,4.25c0.132,0.198,0.106,0.463-0.063,0.631l-5.301,5.301C32.686,39.446,32.559,39.495,32.43,39.495z M28.965,36.087   l3.401,2.265l4.721-4.721l-2.265-3.401L28.965,36.087z"/>
</g>















</svg>
