<?xml version="1.0" encoding="iso-8859-1"?>
<!-- Generator: Adobe Illustrator 21.0.0, SVG Export Plug-In . SVG Version: 6.00 Build 0)  -->
<svg xmlns="http://www.w3.org/2000/svg" xmlns:xlink="http://www.w3.org/1999/xlink" version="1.1" id="Capa_1" x="0px" y="0px" viewBox="0 0 47 47" style="enable-background:new 0 0 47 47;" xml:space="preserve" width="512" height="512">
<g>
	<g id="_Group__488_">
		
			<ellipse id="_Ellipse__559_" style="opacity:0.15;fill:#45413C;enable-background:new    ;" cx="23.5" cy="45.44" rx="10.38" ry="1.56"/>
		<g>
			<path id="_Path__573_" style="fill:#00B8F0;" d="M33.61,43.12c-0.62-1.18-3.72-2.13-7.74-2.41c-0.517-0.047-0.912-0.481-0.91-1     v-7.84h-2.92v7.88c0.002,0.519-0.393,0.953-0.91,1c-4,0.28-7.12,1.23-7.74,2.41c-0.11,0.229-0.013,0.504,0.216,0.614     c0.005,0.002,0.009,0.004,0.014,0.006c1,0.49,4,1.76,9.88,1.76s8.93-1.27,9.88-1.76c0.237-0.092,0.353-0.359,0.261-0.596     C33.632,43.162,33.622,43.141,33.61,43.12z"/>
			<path style="fill:#45413C;" d="M23.5,46.04c-5.567,0-8.717-1.135-10.1-1.811c-0.241-0.115-0.416-0.31-0.501-0.552     s-0.071-0.503,0.04-0.734c0.854-1.627,4.772-2.455,8.155-2.692c0.25-0.022,0.446-0.237,0.445-0.499V31.87     c0-0.276,0.224-0.5,0.5-0.5h2.92c0.276,0,0.5,0.224,0.5,0.5v7.84c-0.001,0.259,0.199,0.479,0.455,0.502     c3.373,0.235,7.29,1.062,8.138,2.676l0,0c0.017,0.032,0.047,0.096,0.055,0.114c0.094,0.238,0.088,0.5-0.015,0.735     c-0.103,0.234-0.291,0.415-0.529,0.509C32.549,44.771,29.442,46.04,23.5,46.04z M22.54,32.37v7.38     c0.003,0.782-0.584,1.427-1.365,1.498c-4.24,0.297-6.9,1.304-7.342,2.145c1.312,0.577,4.301,1.647,9.667,1.647     c5.884,0,8.875-1.305,9.652-1.704c-0.001-0.001-0.001-0.001-0.001-0.001c0.001,0,0.016,0.019,0.017,0.019c0,0,0,0,0-0.001     c-0.443-0.842-3.104-1.849-7.333-2.144c-0.791-0.072-1.377-0.717-1.375-1.501V32.37H22.54z"/>
		</g>
		<g id="_Group_2_326_">
			<path id="_Path_2_564_" style="fill:#00B8F0;" d="M23.5,33.59c9.68,0,17.52-4.38,17.52-11.19c0-5.23-3-13.58-7.3-19.47     C32.26,1.47,29.14,0.5,23.5,0.5s-8.76,1-10.22,2.43c-4.31,5.89-7.3,14.24-7.3,19.47C5.98,29.21,13.82,33.59,23.5,33.59z"/>
			<path id="_Path_3_561_" style="fill:#4ACFFF;" d="M9.81,29.64C21.5,24.48,30.44,13.71,35.7,6c-0.614-1.034-1.281-2.036-2-3     c-1.44-1.53-4.56-2.5-10.2-2.5s-8.76,1-10.22,2.43c-4.31,5.89-7.3,14.24-7.3,19.47C6.035,25.284,7.457,27.971,9.81,29.64z"/>
			<path id="_Path_4_556_" style="fill:#00B8F0;" d="M13.28,2.93c0,1.35,4.58,2.44,10.22,2.44s10.22-1.09,10.22-2.44     C32.26,1.47,29.14,0.5,23.5,0.5S14.74,1.47,13.28,2.93z"/>
			<path style="fill:#45413C;" d="M23.5,5.87c-3.708,0-10.72-0.614-10.72-2.94c0-0.276,0.224-0.5,0.5-0.5s0.5,0.224,0.5,0.5     c0,0.658,3.431,1.94,9.72,1.94s9.72-1.282,9.72-1.94c0-0.276,0.224-0.5,0.5-0.5s0.5,0.224,0.5,0.5     C34.22,5.256,27.208,5.87,23.5,5.87z"/>
			<path style="fill:#45413C;" d="M23.5,34.09c-10.441,0-18.02-4.916-18.02-11.69c0-5.505,3.18-14.002,7.396-19.765     C14.673,0.866,18.229,0,23.5,0c5.306,0,8.864,0.867,10.574,2.577C38.34,8.411,41.52,16.908,41.52,22.4     C41.52,29.174,33.942,34.09,23.5,34.09z M23.5,1c-6.228,0-8.805,1.244-9.87,2.287C9.577,8.837,6.48,17.081,6.48,22.4     c0,6.194,7.158,10.69,17.02,10.69c9.862,0,17.02-4.496,17.02-10.69c0-5.306-3.097-13.55-7.204-19.175     C31.851,1.769,28.532,1,23.5,1z"/>
			<g id="_Group_3_262_">
				<path id="_Path_7_486_" style="fill:#FF8A14;" d="M10.36,23.86c0,0,2.43-2.92,5.84-2.92s5.84,2.92,5.84,2.92H10.36z"/>
				<path id="_Path_8_461_" style="fill:#FF8A14;" d="M30.31,18.51c-4.86,0-8.27,5.35-14.6,5.35c-2.47-0.032-4.923-0.405-7.29-1.11      c0,0,0,0.09,0,0.14c0,4.56,6.76,8.27,15.09,8.27s15.09-3.71,15.09-8.27c-0.004-0.902-0.108-1.801-0.31-2.68      C35.75,19.181,33.049,18.605,30.31,18.51z"/>
				<path id="_Path_9_429_" style="fill:#FFAA54;" d="M15.71,23.86c-2.47-0.032-4.923-0.405-7.29-1.11c0,0,0,0.09,0,0.14      c0,2.13,1.49,4.07,3.91,5.54c3.046-1.628,5.915-3.569,8.56-5.79C19.274,23.423,17.505,23.84,15.71,23.86z"/>
			</g>
		</g>
		<g id="_Group_4_215_">
			<circle id="_Ellipse_2_324_" style="fill:#E5F8FF;" cx="15.23" cy="10.72" r="1.95"/>
			<circle id="_Ellipse_3_306_" style="fill:#E5F8FF;" cx="12.31" cy="13.64" r="0.97"/>
		</g>
	</g>
</g>















</svg>
