<?xml version="1.0" encoding="iso-8859-1"?>
<!-- Generator: Adobe Illustrator 21.0.0, SVG Export Plug-In . SVG Version: 6.00 Build 0)  -->
<svg xmlns="http://www.w3.org/2000/svg" xmlns:xlink="http://www.w3.org/1999/xlink" version="1.1" id="Capa_1" x="0px" y="0px" viewBox="0 0 46.226 46.226" style="enable-background:new 0 0 46.226 46.226;" xml:space="preserve" width="512" height="512">
<g>
	
		<ellipse id="_Ellipse__491_" style="opacity:0.15;fill:#45413C;enable-background:new    ;" cx="23.038" cy="44.726" rx="10" ry="1.5"/>
	<path style="fill:#6DD627;" d="M21.558,43.556c0,0.828,0.672,1.5,1.5,1.5s1.5-0.672,1.5-1.5v-5.22   c0.084-2.815,1.833-5.31,4.45-6.35l-5.97-3.93l-5.19,3.93c2.215,1.085,3.642,3.314,3.7,5.78v5.79L21.558,43.556z"/>
	<path style="fill:#46B000;" d="M17.858,31.986c2.037,1.008,3.423,2.982,3.68,5.24c1.027,0.12,2.063,0.12,3.09,0   c0.485-2.361,2.117-4.323,4.35-5.23l-5.94-3.94L17.858,31.986z"/>
	<path style="fill:#45413C;" d="M23.058,45.556c-1.064,0-1.936-0.835-1.997-1.884c-0.009-0.037-0.014-0.076-0.014-0.116v-5.79   c-0.054-2.276-1.364-4.323-3.42-5.331c-0.156-0.076-0.261-0.229-0.277-0.401s0.057-0.342,0.196-0.446l5.19-3.93   c0.169-0.127,0.401-0.134,0.577-0.02l5.97,3.93c0.155,0.103,0.241,0.283,0.222,0.469c-0.019,0.186-0.14,0.345-0.313,0.414   c-2.433,0.967-4.056,3.283-4.135,5.9v5.205C25.057,44.659,24.16,45.556,23.058,45.556z M22.048,43.457   c0.007,0.032,0.01,0.065,0.01,0.1c0,0.552,0.449,1,1,1s1-0.448,1-1v-5.22c0.082-2.72,1.596-5.147,3.931-6.423l-4.93-3.245   l-4.299,3.255c1.991,1.265,3.232,3.435,3.289,5.831V43.457z"/>
	<path id="_Path__504_" style="fill:#6DD627;" d="M23.738,30.386c0.883-2.639,2.441-5,4.52-6.85c2.06-1.437,4.542-2.141,7.05-2   c0.466,0,0.845,0.374,0.85,0.84c0,1.75-0.31,5.94-3.94,8.37C27.318,34.006,23.738,30.386,23.738,30.386z"/>
	<path id="_Path_2_496_" style="fill:#46B000;" d="M34.328,21.736c0,1.75-0.31,5.95-3.94,8.38c-1.499,1.107-3.381,1.561-5.22,1.26   c-0.524-0.26-1.006-0.597-1.43-1c0.883-2.639,2.441-5,4.52-6.85c1.764-1.271,3.876-1.97,6.05-2   C34.319,21.596,34.326,21.666,34.328,21.736z"/>
	<path style="fill:#45413C;" d="M28.127,32.6c-2.855,0-4.717-1.835-4.744-1.862c-0.133-0.134-0.179-0.331-0.119-0.51   c0.909-2.717,2.521-5.159,4.662-7.064c2.188-1.531,4.793-2.272,7.41-2.126h0.001c0.707,0,1.312,0.598,1.321,1.333   c0,2.247-0.541,6.367-4.162,8.792C30.89,32.23,29.408,32.6,28.127,32.6z M24.319,30.237c0.82,0.681,3.756,2.665,7.621,0.094   c3.234-2.166,3.718-5.913,3.718-7.955c-0.002-0.185-0.159-0.34-0.351-0.34c-2.404-0.129-4.804,0.544-6.764,1.911   C26.659,25.628,25.189,27.809,24.319,30.237z"/>
	<path id="_Path_4_489_" style="fill:#FF6242;" d="M15.298,5.166c0,0-2-4.13,0.58-4.58c3.43-0.62,7.16,2.29,8.68,5.88L15.298,5.166z   "/>
	<path id="_Path_5_481_" style="fill:#FF866E;" d="M15.878,2.226c2.83-0.5,5.86,1.38,7.68,4.07l1,0.14   c-1.52-3.56-5.25-6.47-8.68-5.85c-1.36,0.24-1.42,1.54-1.19,2.69C14.831,2.715,15.303,2.298,15.878,2.226z"/>
	<path style="fill:#45413C;" d="M24.557,6.966c-0.023,0-0.046-0.001-0.069-0.005l-9.26-1.3c-0.166-0.023-0.308-0.127-0.381-0.277   c-0.135-0.279-1.297-2.767-0.528-4.267c0.282-0.551,0.791-0.904,1.472-1.023c3.843-0.694,7.709,2.596,9.227,6.178   c0.069,0.166,0.045,0.356-0.064,0.5C24.858,6.895,24.712,6.966,24.557,6.966z M15.64,4.709l8.06,1.132   c-1.543-2.832-4.711-5.311-7.733-4.763c-0.496,0.086-0.669,0.324-0.757,0.494C14.8,2.372,15.319,3.955,15.64,4.709z"/>
	<path id="_Path_7_424_" style="fill:#FF6242;" d="M28.958,5.166c0,0,1.82-4.13-0.54-4.58c-3.21-0.62-6.69,2.29-8.11,5.88   L28.958,5.166z"/>
	<path id="_Path_8_401_" style="fill:#FF866E;" d="M28.418,2.226c0.54,0.078,0.981,0.472,1.12,1c0.21-1.15,0.15-2.45-1.12-2.69   c-3.21-0.62-6.69,2.29-8.11,5.88l0.93-0.14C22.948,3.636,25.778,1.756,28.418,2.226z"/>
	<path style="fill:#45413C;" d="M20.308,6.966c-0.151,0-0.296-0.068-0.392-0.189c-0.111-0.14-0.139-0.329-0.073-0.495   c1.419-3.589,5.051-6.889,8.669-6.187c0.606,0.116,1.069,0.447,1.338,0.958c0.775,1.476-0.309,4.029-0.435,4.315   c-0.069,0.157-0.214,0.267-0.384,0.293l-8.65,1.3C20.357,6.964,20.332,6.966,20.308,6.966z M27.535,1.002   c-2.551,0-5.092,2.272-6.394,4.833l7.462-1.122c0.311-0.801,0.78-2.4,0.361-3.197c-0.127-0.241-0.33-0.381-0.641-0.44   C28.062,1.026,27.799,1.002,27.535,1.002z M28.958,5.166h0.01H28.958z"/>
	<g>
		<circle id="_Path_10_350_" style="fill:#E04122;" cx="23.088" cy="17.596" r="12.43"/>
		<path style="fill:#45413C;" d="M23.088,30.526c-7.129,0-12.93-5.8-12.93-12.93s5.8-12.93,12.93-12.93    c7.13,0,12.931,5.8,12.931,12.93S30.217,30.526,23.088,30.526z M23.088,5.666c-6.578,0-11.93,5.352-11.93,11.93    s5.352,11.93,11.93,11.93s11.931-5.352,11.931-11.93S29.666,5.666,23.088,5.666z"/>
	</g>
	<path id="_Path_11_325_" style="fill:#FF6242;" d="M30.938,7.776c1.23-2.49,2.17-6.09-2-4.58c-5.12,1.88-8.51,9.82-8.51,9.82   l1.5,4.75h11.22L30.938,7.776z"/>
	<path id="_Path_12_304_" style="fill:#FF866E;" d="M28.978,5.996c1.45-0.53,2.27-0.43,2.68,0c0.67-2.09,0.53-4-2.68-2.83   c-5.12,1.88-8.51,9.82-8.51,9.82l0.57,1.71C22.138,12.446,25.038,7.436,28.978,5.996z"/>
	<path style="fill:#45413C;" d="M33.148,18.266h-11.22c-0.218,0-0.411-0.142-0.477-0.35l-1.5-4.75   c-0.036-0.114-0.03-0.237,0.017-0.347c0.142-0.333,3.535-8.161,8.798-10.093c1.58-0.574,2.645-0.517,3.256,0.167   c1.018,1.137,0.126,3.521-0.559,4.945l2.173,9.82c0.032,0.148-0.004,0.303-0.099,0.421S33.3,18.266,33.148,18.266z M22.294,17.266   h10.231L30.45,7.884c-0.024-0.111-0.011-0.227,0.04-0.329c0.928-1.879,1.244-3.484,0.787-3.995   c-0.295-0.331-1.065-0.293-2.169,0.106c-4.459,1.637-7.629,8.244-8.146,9.38L22.294,17.266z"/>
	<path id="_Path_14_269_" style="fill:#FF866E;" d="M27.668,27.646v1.49l0.46-0.2C27.958,28.506,27.798,28.076,27.668,27.646z"/>
	<path id="_Path_15_252_" style="fill:#FF6242;" d="M27.668,29.136c4.735-1.874,7.846-6.448,7.85-11.54l0,0c0-5.75-2-6.62-2-10   c-0.043-1.239,0.394-2.446,1.22-3.37c0.243-0.264,0.225-0.676-0.039-0.918c-0.149-0.136-0.352-0.196-0.551-0.162   c-2.1,0.37-4.57,2.89-6.48,6.59c-2.835,5.549-2.835,12.121,0,17.67L27.668,29.136z"/>
	<path id="_Path_16_239_" style="fill:#FF866E;" d="M27.668,13.616c1.73-3.39,3.93-5.76,5.9-6.39c0.022-1.107,0.437-2.17,1.17-3   c0.243-0.264,0.225-0.676-0.039-0.918c-0.149-0.136-0.352-0.196-0.551-0.162c-2.1,0.37-4.57,2.89-6.48,6.59   c-1.685,3.357-2.378,7.124-2,10.86C25.892,18.165,26.57,15.797,27.668,13.616z"/>
	<path style="fill:#45413C;" d="M27.668,29.636c-0.099,0-0.197-0.029-0.281-0.087c-0.137-0.093-0.219-0.247-0.219-0.413v-1.611   c-2.844-5.652-2.826-12.377,0.055-18.016c2.01-3.893,4.565-6.455,6.839-6.855c0.352-0.062,0.709,0.042,0.975,0.284   c0.468,0.431,0.499,1.159,0.07,1.626c-0.739,0.827-1.127,1.899-1.088,3.015c0,1.392,0.357,2.335,0.771,3.426   c0.576,1.521,1.229,3.245,1.229,6.591c-0.004,5.331-3.21,10.043-8.167,12.005C27.793,29.624,27.73,29.636,27.668,29.636z    M34.258,3.637c-0.008,0-0.017,0-0.025,0.002c-1.937,0.341-4.282,2.766-6.121,6.327c-2.753,5.388-2.753,11.823,0.001,17.212   c0.036,0.07,0.055,0.148,0.055,0.228v0.971c4.182-1.958,6.847-6.112,6.851-10.781c0-3.163-0.619-4.795-1.164-6.236   c-0.43-1.134-0.836-2.205-0.836-3.763c-0.048-1.357,0.431-2.678,1.347-3.703c0.061-0.066,0.057-0.161-0.005-0.218   C34.333,3.65,34.297,3.637,34.258,3.637z"/>
	<path id="_Path_18_183_" style="fill:#FF6242;" d="M23.088,30.026c1.664-0.005,3.31-0.345,4.84-1c0.78-1.11,1.69-3.26,1.05-6.87   c-0.72-4-3-8.13-7.2-13.74c-2.74-3.57-5.43-5.35-10.06-4.83c-0.368,0.04-0.633,0.371-0.593,0.739   c0.016,0.147,0.08,0.284,0.183,0.391c0.883,0.866,1.359,2.064,1.31,3.3c0,3.26-2,4.09-2,9.58c0,6.865,5.565,12.43,12.43,12.43   C23.061,30.026,23.074,30.026,23.088,30.026z"/>
	<path id="_Path_19_166_" style="fill:#FF866E;" d="M28.978,22.226c-0.72-4-3-8.13-7.2-13.74c-2.74-3.64-5.43-5.42-10.06-4.9   c-0.368,0.04-0.633,0.371-0.593,0.739c0.016,0.147,0.08,0.284,0.183,0.391c0.642,0.621,1.069,1.43,1.22,2.31   c4.14-0.23,6.7,1.55,9.25,4.92c4.25,5.61,6.48,9.7,7.2,13.73c0,0.18,0,0.34,0.08,0.51C29.253,24.871,29.225,23.532,28.978,22.226z"/>
	<path style="fill:#45413C;" d="M23.089,30.526C23.089,30.526,23.088,30.526,23.089,30.526h-0.041c-7.129,0-12.93-5.8-12.93-12.93   c0-3.196,0.652-4.847,1.228-6.304c0.415-1.048,0.772-1.953,0.772-3.276c0.043-1.112-0.379-2.177-1.16-2.943   c-0.188-0.196-0.302-0.438-0.33-0.693c-0.034-0.311,0.055-0.616,0.25-0.86c0.195-0.244,0.474-0.397,0.785-0.431   c5.088-0.573,7.88,1.595,10.511,5.022c4.474,5.975,6.586,10.017,7.296,13.956c0.659,3.72-0.253,5.994-1.134,7.247   c-0.054,0.075-0.127,0.135-0.212,0.172C26.523,30.171,24.829,30.522,23.089,30.526z M13.227,3.998c-0.46,0-0.943,0.028-1.453,0.085   c-0.081,0.009-0.16,0.108-0.151,0.188c0.004,0.038,0.02,0.072,0.046,0.1c0.971,0.952,1.503,2.292,1.449,3.666   c0,1.495-0.408,2.529-0.841,3.625c-0.543,1.374-1.158,2.931-1.158,5.936c0,6.578,5.352,11.93,11.93,11.93l0.04,0.5l-0.001-0.5   c1.557-0.004,3.073-0.308,4.511-0.903c0.746-1.121,1.467-3.115,0.889-6.379c-0.68-3.772-2.739-7.692-7.108-13.528   C19.161,5.828,16.954,3.998,13.227,3.998z"/>
	<path id="_Path_21_130_" style="fill:#6DD627;" d="M24.398,30.326c-1.077-2.725-2.892-5.097-5.24-6.85c-2.82-1.94-6.68-2.06-8.31-2   c-0.457,0.021-0.82,0.392-0.83,0.85c-0.144,3.416,1.61,6.631,4.56,8.36C20.248,33.946,24.398,30.326,24.398,30.326z"/>
	<path id="_Path_22_120_" style="fill:#9CEB60;" d="M10.848,23.846c1.63-0.05,5.49,0.07,8.31,2c1.829,1.326,3.331,3.054,4.39,5.05   c0.302-0.165,0.587-0.359,0.85-0.58c-1.077-2.725-2.892-5.097-5.24-6.85c-2.82-1.94-6.68-2.06-8.31-2   c-0.457,0.021-0.82,0.392-0.83,0.85c-0.014,0.64,0.033,1.279,0.14,1.91C10.314,23.997,10.57,23.855,10.848,23.846z"/>
	<path style="fill:#45413C;" d="M19.312,32.537c-1.462,0-3.152-0.364-4.983-1.417c-3.121-1.828-4.962-5.205-4.811-8.814   c0.016-0.708,0.59-1.295,1.307-1.329c1.596-0.058,5.621,0.027,8.616,2.087c2.44,1.821,4.31,4.265,5.422,7.078   c0.077,0.196,0.022,0.421-0.137,0.561C24.696,30.729,22.57,32.537,19.312,32.537z M11.49,21.964c-0.237,0-0.446,0.005-0.624,0.011   c-0.189,0.009-0.344,0.168-0.349,0.362c-0.137,3.248,1.516,6.278,4.313,7.917c4.529,2.604,7.977,0.61,8.96-0.091   c-1.057-2.495-2.757-4.663-4.932-6.287C16.451,22.221,13.241,21.964,11.49,21.964z"/>
	<g>
		<path id="_Path_24_97_" style="fill:#6DD627;" d="M21.558,39.726l-1.59,0.5c-0.226,0.072-0.351,0.314-0.279,0.54    c0.037,0.115,0.12,0.209,0.229,0.26l1.64,0.8V39.726z"/>
		<path style="fill:#45413C;" d="M21.558,42.326c-0.075,0-0.15-0.017-0.219-0.051l-1.64-0.8c-0.227-0.105-0.408-0.31-0.486-0.558    c-0.075-0.235-0.054-0.487,0.06-0.708s0.307-0.384,0.544-0.46l1.592-0.5c0.151-0.049,0.318-0.021,0.446,0.073    c0.128,0.095,0.204,0.244,0.204,0.403v2.1c0,0.173-0.089,0.333-0.235,0.424C21.742,42.3,21.65,42.326,21.558,42.326z     M20.258,40.659l0.799,0.378v-0.629L20.258,40.659z M20.118,40.703L20.118,40.703L20.118,40.703L20.118,40.703z"/>
	</g>
	<g>
		<path id="_Path_25_92_" style="fill:#6DD627;" d="M24.528,41.396l1.59,0.53c0.226,0.072,0.351,0.314,0.279,0.54    c-0.037,0.115-0.12,0.209-0.229,0.26l-1.64,0.8V41.396z"/>
		<path style="fill:#45413C;" d="M24.528,44.026c-0.092,0-0.184-0.025-0.265-0.076c-0.146-0.091-0.235-0.251-0.235-0.424v-2.13    c0-0.161,0.077-0.312,0.208-0.405c0.13-0.095,0.297-0.118,0.451-0.069l1.59,0.53c0.23,0.074,0.424,0.236,0.537,0.457    c0.114,0.221,0.136,0.473,0.061,0.71c-0.08,0.248-0.261,0.452-0.495,0.561l-1.632,0.796    C24.677,44.009,24.603,44.026,24.528,44.026z M25.028,42.09v0.636l0.774-0.378L25.028,42.09z M25.949,42.277    C25.948,42.277,25.948,42.277,25.949,42.277L25.949,42.277L25.949,42.277z"/>
	</g>
	<g>
		<path id="_Path_26_81_" style="fill:#FFFFFF;" d="M7.828,37.476c0.18-0.769,0.781-1.37,1.55-1.55l3.1-0.71    c0.118-0.032,0.2-0.138,0.2-0.26c-0.001-0.119-0.084-0.222-0.2-0.25l-3.1-0.71c-0.769-0.18-1.37-0.781-1.55-1.55l-0.72-3.11    c-0.039-0.138-0.183-0.218-0.321-0.179C6.7,29.182,6.632,29.25,6.608,29.336l-0.72,3.11c-0.18,0.769-0.781,1.37-1.55,1.55    l-3.1,0.71c-0.116,0.028-0.199,0.131-0.2,0.25c0,0.122,0.082,0.228,0.2,0.26l3.1,0.71c0.769,0.18,1.37,0.781,1.55,1.55l0.72,3.11    c0.039,0.138,0.183,0.218,0.321,0.179c0.086-0.025,0.154-0.092,0.179-0.179L7.828,37.476z"/>
		<path style="fill:#45413C;" d="M6.86,41.274c-0.333,0-0.638-0.218-0.733-0.55l-0.727-3.136c-0.138-0.586-0.589-1.037-1.177-1.176    l-3.097-0.709c-0.354-0.097-0.587-0.4-0.588-0.745C0.542,34.6,0.783,34.3,1.123,34.22l3.103-0.711    c0.586-0.138,1.037-0.589,1.175-1.178l0.719-3.107c0.08-0.28,0.275-0.476,0.53-0.548c0.193-0.055,0.398-0.031,0.576,0.066    c0.178,0.1,0.307,0.262,0.362,0.458l0.726,3.132c0.137,0.588,0.588,1.039,1.177,1.178l3.098,0.709    c0.343,0.081,0.584,0.381,0.588,0.731c-0.001,0.353-0.235,0.656-0.568,0.748l-3.12,0.715c-0.585,0.138-1.037,0.589-1.175,1.176    l-0.72,3.109c-0.078,0.276-0.272,0.472-0.524,0.546C7,41.265,6.929,41.274,6.86,41.274z M2.364,34.961l2.085,0.478    c0.963,0.227,1.7,0.963,1.925,1.923l0.483,2.088l0.482-2.086c0-0.001,0-0.001,0-0.002c0.225-0.96,0.961-1.696,1.922-1.922    l2.087-0.479l-2.085-0.478c-0.963-0.227-1.7-0.963-1.925-1.924l-0.483-2.088l-0.482,2.086c-0.226,0.963-0.963,1.699-1.923,1.925    L2.364,34.961z"/>
	</g>
	<g>
		<path id="_Path_27_71_" style="fill:#FFFFFF;" d="M41.538,8.836c0.135-0.57,0.58-1.015,1.15-1.15l2.35-0.53    c0.088-0.015,0.151-0.091,0.15-0.18c0.002-0.091-0.061-0.171-0.15-0.19l-2.35-0.56c-0.564-0.126-1.009-0.559-1.15-1.12l-0.5-2.3    c-0.019-0.089-0.099-0.152-0.19-0.15c-0.089-0.001-0.165,0.062-0.18,0.15l-0.54,2.3c-0.142,0.567-0.597,1.003-1.17,1.12l-2.3,0.53    c-0.089,0.019-0.152,0.099-0.15,0.19c-0.001,0.089,0.062,0.165,0.15,0.18l2.3,0.53c0.567,0.136,1.008,0.582,1.14,1.15l0.54,2.3    c0.015,0.088,0.091,0.151,0.18,0.15c0.091,0.002,0.171-0.061,0.19-0.15L41.538,8.836z"/>
		<path style="fill:#45413C;" d="M40.822,11.756c-0.008,0-0.015,0-0.022,0c-0.314,0-0.597-0.236-0.654-0.563L39.611,8.92    c-0.09-0.388-0.385-0.686-0.771-0.778l-2.295-0.529c-0.303-0.05-0.542-0.335-0.538-0.672c-0.007-0.314,0.223-0.604,0.546-0.673    l2.292-0.529c0.395-0.081,0.703-0.375,0.797-0.754l0.539-2.293c0.049-0.298,0.334-0.526,0.675-0.536c0.004,0,0.009,0,0.014,0    c0.305,0,0.587,0.226,0.656,0.542l0.5,2.301c0.092,0.364,0.389,0.653,0.771,0.739L45.154,6.3c0.312,0.067,0.541,0.357,0.534,0.687    c0.004,0.322-0.235,0.607-0.568,0.663l-2.321,0.524c-0.383,0.091-0.681,0.388-0.773,0.776l-0.53,2.27    C41.43,11.528,41.148,11.756,40.822,11.756z M40.521,10.989c-0.001,0.005-0.002,0.01-0.003,0.015L40.521,10.989z M41.118,10.965    l0.006,0.026C41.123,10.983,41.121,10.974,41.118,10.965z M38.081,6.941l0.989,0.228c0.762,0.183,1.34,0.767,1.515,1.525    l0.237,1.01l0.229-0.981c0.001,0,0.001-0.001,0.001-0.002c0.181-0.758,0.764-1.341,1.521-1.521l1.05-0.237l-1.051-0.25    c-0.747-0.167-1.331-0.736-1.52-1.485l-0.212-0.974L40.614,5.22c-0.188,0.756-0.799,1.341-1.556,1.496L38.081,6.941z M44.92,7.272    c0.004,0.001,0.009,0.002,0.014,0.003L44.92,7.272z M36.779,7.242L36.77,7.244C36.773,7.243,36.776,7.242,36.779,7.242z     M44.927,6.668C44.919,6.67,44.909,6.672,44.9,6.675L44.927,6.668z M36.74,6.633l0.039,0.009    C36.766,6.638,36.754,6.635,36.74,6.633z M41.161,2.889l-0.01,0.042C41.155,2.917,41.159,2.903,41.161,2.889z"/>
	</g>
</g>















</svg>
