<?xml version="1.0" encoding="iso-8859-1"?>
<!-- Generator: Adobe Illustrator 21.0.0, SVG Export Plug-In . SVG Version: 6.00 Build 0)  -->
<svg xmlns="http://www.w3.org/2000/svg" xmlns:xlink="http://www.w3.org/1999/xlink" version="1.1" id="Capa_1" x="0px" y="0px" viewBox="0 0 43.04 43.04" style="enable-background:new 0 0 43.04 43.04;" xml:space="preserve" width="512" height="512">
<g>
	<g id="_Group__529_">
		
			<ellipse id="_Ellipse__606_" style="opacity:0.15;fill:#45413C;enable-background:new    ;" cx="22.003" cy="41.38" rx="16.02" ry="1.66"/>
		<path id="_Path__627_" style="fill:#FFFFFF;" d="M32.073,40.54h-15.45c-0.552,0.003-1.002-0.443-1.005-0.995    c0-0.035,0.001-0.07,0.005-0.105V22.59h20.44c-1.963,2.849-3.009,6.23-3,9.69v7.16C33.092,40.016,32.65,40.508,32.073,40.54z"/>
		<path id="_Path_2_619_" style="fill:#E0E0E0;" d="M15.633,36.12c0.848,0.153,1.708,0.23,2.57,0.23c5.192-0.088,9.867-3.165,12-7.9    c0.326-0.821,1.117-1.363,2-1.37h1.72c0.497-1.6,1.235-3.114,2.19-4.49h-20.48V36.12z"/>
		<path style="fill:#45413C;" d="M16.615,41.04c-0.395,0-0.77-0.154-1.052-0.434c-0.285-0.282-0.443-0.658-0.445-1.059    c0-0.058,0.002-0.111,0.009-0.164L15.124,22.59c0-0.276,0.224-0.5,0.5-0.5h20.439c0.186,0,0.356,0.103,0.442,0.268    c0.087,0.164,0.075,0.363-0.03,0.516c-1.914,2.778-2.921,6.03-2.912,9.406v7.161c0.041,0.823-0.614,1.552-1.461,1.599    c-0.01,0.001-0.019,0.001-0.028,0.001h-15.45C16.621,41.04,16.618,41.04,16.615,41.04z M16.118,39.542    c0.001,0.275,0.226,0.498,0.5,0.498c0.001,0,0.002,0,0.003,0h15.436c0.295-0.022,0.521-0.278,0.507-0.575l-0.001-7.185    c-0.009-3.266,0.881-6.424,2.578-9.19H16.124V39.44l-0.505,0.104L16.118,39.542z"/>
		<path id="_Path_4_611_" style="fill:#FFFFFF;" d="M26.853,22.59v18h-15.34c-0.608,0.003-1.103-0.487-1.106-1.094    c-0.002-0.31,0.128-0.606,0.356-0.816c1.751-1.537,3.085-3.49,3.88-5.68c1.065-3.351,1.621-6.844,1.65-10.36L26.853,22.59z"/>
		<path id="_Path_5_600_" style="fill:#E0E0E0;" d="M14.643,32.95c-0.34,0.972-0.796,1.899-1.36,2.76    c1.867,0.316,3.757,0.473,5.65,0.47c2.734,0.007,5.438-0.583,7.92-1.73V22.59h-10.56C16.265,26.106,15.709,29.599,14.643,32.95z"/>
		<path style="fill:#45413C;" d="M11.505,41.09c-0.422,0-0.821-0.164-1.123-0.463c-0.304-0.3-0.473-0.701-0.475-1.129    c-0.003-0.448,0.186-0.881,0.517-1.187c1.692-1.483,2.985-3.377,3.749-5.482c1.045-3.287,1.592-6.724,1.621-10.193    c0.002-0.273,0.224-0.495,0.498-0.496l10.56-0.05c0,0,0.001,0,0.002,0c0.132,0,0.259,0.053,0.353,0.146    c0.095,0.094,0.147,0.222,0.147,0.354v18c0,0.276-0.224,0.5-0.5,0.5h-15.34C11.511,41.09,11.508,41.09,11.505,41.09z     M16.786,23.138c-0.075,3.402-0.635,6.769-1.667,10.014c-0.828,2.282-2.218,4.317-4.027,5.904    c-0.115,0.106-0.186,0.269-0.185,0.438c0.001,0.16,0.064,0.311,0.178,0.423c0.114,0.113,0.27,0.19,0.425,0.174h14.842V23.092    L16.786,23.138z"/>
		<path id="_Rectangle__219_" style="fill:#FFFFFF;" d="M27.873,3.26h10.58l0,0v18.23c0,0.608-0.492,1.1-1.1,1.1h-8.35    c-0.608,0-1.1-0.492-1.1-1.1l0,0V3.26H27.873z"/>
		<rect id="_Path_7_540_" x="27.873" y="3.26" style="fill:#E0E0E0;" width="10.59" height="3.24"/>
		<path style="fill:#45413C;" d="M37.353,23.09h-8.35c-0.883,0-1.601-0.718-1.601-1.6V3.429c-0.019-0.053-0.029-0.11-0.029-0.169    c0-0.276,0.224-0.5,0.5-0.5h10.58c0.276,0,0.5,0.224,0.5,0.5v18.23C38.954,22.372,38.236,23.09,37.353,23.09z M28.403,3.76v17.73    c0,0.331,0.27,0.6,0.601,0.6h8.35c0.331,0,0.601-0.269,0.601-0.6V3.76H28.403z"/>
		<g>
			<path id="_Rectangle_3_177_" style="fill:#FFFFFF;" d="M28.053,0.5h10.23c0.608,0,1.1,0.492,1.1,1.1v0.56     c0,0.608-0.492,1.1-1.1,1.1h-10.23c-0.608,0-1.1-0.492-1.1-1.1V1.6C26.953,0.992,27.446,0.5,28.053,0.5z"/>
			<path style="fill:#45413C;" d="M38.284,3.76h-10.23c-0.882,0-1.6-0.718-1.6-1.6V1.6c0-0.882,0.718-1.6,1.6-1.6h10.23     c0.882,0,1.6,0.718,1.6,1.6v0.56C39.883,3.042,39.166,3.76,38.284,3.76z M28.053,1c-0.331,0-0.6,0.269-0.6,0.6v0.56     c0,0.331,0.269,0.6,0.6,0.6h10.23c0.331,0,0.6-0.269,0.6-0.6V1.6c0-0.331-0.269-0.6-0.6-0.6H28.053z"/>
		</g>
		<path id="_Path_8_513_" style="fill:#FFFFFF;" d="M29.253,22.59c0,5.72-4.95,10.36-11,10.36c-8.4,0-13.37-4.64-13.37-10.36H29.253    z"/>
		<path id="_Path_9_480_" style="fill:#E0E0E0;" d="M5.283,25.46h23.54c0.286-0.93,0.431-1.897,0.43-2.87H4.833    C4.834,23.564,4.986,24.532,5.283,25.46z"/>
		<path style="fill:#45413C;" d="M18.253,33.45c-8.167,0-13.87-4.466-13.87-10.86c0-0.276,0.224-0.5,0.5-0.5h24.37    c0.276,0,0.5,0.224,0.5,0.5C29.753,28.578,24.594,33.45,18.253,33.45z M5.396,23.09c0.295,5.537,5.499,9.36,12.857,9.36    c5.611,0,10.209-4.154,10.486-9.36H5.396z"/>
		<g>
			<path style="fill:#FFFFFF;" d="M5.213,19.83c-0.762-0.092-1.455,0.451-1.546,1.214c-0.092,0.762,0.451,1.455,1.214,1.546     c0.111,0.013,0.222,0.013,0.333,0h22.66v-2.76H5.213z"/>
			<path style="fill:#45413C;" d="M5.051,23.101c-0.071,0-0.152-0.005-0.231-0.015c-1.033-0.124-1.773-1.067-1.649-2.102     c0.061-0.501,0.313-0.949,0.71-1.261c0.388-0.304,0.868-0.443,1.361-0.393h22.632c0.276,0,0.5,0.224,0.5,0.5v2.76     c0,0.276-0.224,0.5-0.5,0.5H5.213C5.171,23.097,5.114,23.101,5.051,23.101z M5.045,20.32c-0.198,0-0.39,0.066-0.548,0.19     c-0.187,0.147-0.306,0.357-0.334,0.593c-0.029,0.236,0.037,0.469,0.183,0.656c0.147,0.187,0.357,0.306,0.593,0.334     c0.071,0.007,0.142,0.007,0.212,0l22.221-0.004v-1.76H5.213c-0.02,0-0.04-0.001-0.06-0.003C5.117,20.322,5.081,20.32,5.045,20.32     z"/>
		</g>
		<g>
			<path id="_Rectangle_4_158_" style="fill:#FFFFFF;" d="M26.953,5.88h0.92l0,0v3.87l0,0h-0.92c-0.608,0-1.1-0.492-1.1-1.1v0V6.99     c-0.006-0.607,0.482-1.104,1.09-1.11C26.947,5.88,26.95,5.88,26.953,5.88z"/>
			<path style="fill:#45413C;" d="M27.874,10.25h-0.92c-0.883,0-1.601-0.718-1.601-1.6V6.99c-0.007-0.877,0.704-1.602,1.585-1.61     c0.002,0,0.014,0,0.016,0h0.92c0.276,0,0.5,0.224,0.5,0.5v3.87C28.374,10.026,28.15,10.25,27.874,10.25z M26.943,6.38     c-0.326,0.003-0.593,0.275-0.59,0.606V8.65c0,0.331,0.27,0.6,0.601,0.6h0.42V6.38H26.943z"/>
		</g>
	</g>
</g>















</svg>
