<?xml version="1.0" encoding="iso-8859-1"?>
<!-- Generator: Adobe Illustrator 21.0.0, SVG Export Plug-In . SVG Version: 6.00 Build 0)  -->
<svg xmlns="http://www.w3.org/2000/svg" xmlns:xlink="http://www.w3.org/1999/xlink" version="1.1" id="Capa_1" x="0px" y="0px" viewBox="0 0 45 45" style="enable-background:new 0 0 45 45;" xml:space="preserve" width="512" height="512">
<g>
	<path id="_Rectangle__199_" style="fill:#656769;" d="M3.12,6.64h38.75c1.105,0,2,0.895,2,2v25.72c0,1.105-0.895,2-2,2H3.12   c-1.105,0-2-0.895-2-2V8.64C1.12,7.535,2.015,6.64,3.12,6.64z"/>
	<path id="_Path__600_" style="fill:#87898C;" d="M41.88,6.64H3.12c-1.105,0-2,0.895-2,2v3.44c0-1.105,0.895-2,2-2h38.76   c1.105,0,2,0.895,2,2V8.64C43.88,7.535,42.985,6.64,41.88,6.64z"/>
	<path style="fill:#45413C;" d="M41.87,36.86H3.12c-1.378,0-2.5-1.121-2.5-2.5V8.64c0-1.378,1.122-2.5,2.5-2.5h38.75   c1.379,0,2.5,1.122,2.5,2.5v25.72C44.37,35.739,43.249,36.86,41.87,36.86z M3.12,7.14c-0.827,0-1.5,0.673-1.5,1.5v25.72   c0,0.827,0.673,1.5,1.5,1.5h38.75c0.827,0,1.5-0.673,1.5-1.5V8.64c0-0.827-0.673-1.5-1.5-1.5H3.12z"/>
	
		<ellipse id="_Ellipse__580_" style="opacity:0.15;fill:#45413C;enable-background:new    ;" cx="22.5" cy="37.36" rx="22.5" ry="1.5"/>
	<path id="_Rectangle_3_158_" style="fill:#E8F4FA;" d="M4.58,9.22h35.85c0.552,0,1,0.448,1,1v22.56c0,0.552-0.448,1-1,1H4.58   c-0.552,0-1-0.448-1-1V10.22C3.58,9.668,4.028,9.22,4.58,9.22z"/>
	<path id="_Path_2_592_" style="fill:#C0DCEB;" d="M40.42,9.22H4.58c-0.552,0-1,0.448-1,1v2.64c0-0.552,0.448-1,1-1h35.84   c0.552,0,1,0.448,1,1v-2.64C41.42,9.668,40.972,9.22,40.42,9.22z"/>
	<path style="fill:#45413C;" d="M40.43,34.28H4.58c-0.827,0-1.5-0.673-1.5-1.5V10.22c0-0.827,0.673-1.5,1.5-1.5h35.85   c0.827,0,1.5,0.673,1.5,1.5v22.56C41.93,33.607,41.257,34.28,40.43,34.28z M4.58,9.72c-0.276,0-0.5,0.224-0.5,0.5v22.56   c0,0.275,0.224,0.5,0.5,0.5h35.85c0.275,0,0.5-0.225,0.5-0.5V10.22c0-0.276-0.225-0.5-0.5-0.5H4.58z"/>
	<path style="fill:#FFFFFF;" d="M14.42,12.1c-0.034-0.16-0.176-0.273-0.34-0.27H7.37c-0.164-0.003-0.306,0.11-0.34,0.27   c-0.91,4.589-0.91,9.311,0,13.9c0.025,0.166,0.172,0.287,0.34,0.28h6.71c0.168,0.007,0.315-0.114,0.34-0.28   C15.33,21.411,15.33,16.689,14.42,12.1z"/>
	<path style="fill:#E0E0E0;" d="M7.37,11.86c-0.164-0.003-0.306,0.11-0.34,0.27c-0.12,0.6-0.22,1.19-0.31,1.79h8   c-0.09-0.6-0.19-1.19-0.31-1.79c-0.034-0.16-0.176-0.273-0.34-0.27H7.37z"/>
	<path style="fill:#45413C;" d="M7.334,26.781c-0.387,0-0.736-0.297-0.798-0.705c-0.923-4.654-0.923-9.396,0.004-14.073   c0.084-0.401,0.439-0.693,0.841-0.673h6.7c0.391-0.007,0.746,0.271,0.829,0.667c0,0.002,0.001,0.004,0.001,0.006   c0.928,4.676,0.928,9.418,0,14.095c-0.061,0.398-0.431,0.726-0.854,0.681L7.37,26.78C7.358,26.781,7.346,26.781,7.334,26.781z    M13.929,25.91c-0.001,0.005-0.002,0.01-0.003,0.016C13.927,25.919,13.928,25.914,13.929,25.91z M7.518,25.893   c0.001,0.004,0.001,0.007,0.002,0.01C7.52,25.9,7.519,25.897,7.518,25.893z M7.355,25.78c-0.002,0-0.005,0-0.008,0.001h0.016   C7.36,25.78,7.358,25.78,7.355,25.78z M7.494,12.33c-0.867,4.459-0.867,8.985,0.002,13.451l6.458-0.001   c0.869-4.477,0.868-8.994,0.001-13.45H7.494z M14.075,25.78c-0.002,0-0.003,0-0.005,0h0.011   C14.078,25.78,14.077,25.78,14.075,25.78z M7.375,12.33H7.37C7.371,12.329,7.373,12.329,7.375,12.33z M14.084,12.33   c0.002,0,0.005,0,0.006,0H14.084z"/>
	<path id="_Rectangle_5_110_" style="fill:#FF866E;" d="M6.85,28.62h12.57c0.276,0,0.5,0.224,0.5,0.5v1.83   c0,0.276-0.224,0.5-0.5,0.5H6.85c-0.276,0-0.5-0.224-0.5-0.5v-1.83C6.35,28.844,6.574,28.62,6.85,28.62z"/>
	<path id="_Path_3_589_" style="fill:#FF6242;" d="M19.41,28.62H6.85c-0.276,0-0.5,0.224-0.5,0.5v1.41c0-0.276,0.224-0.5,0.5-0.5   h12.56c0.276,0,0.5,0.224,0.5,0.5v-1.41C19.91,28.844,19.686,28.62,19.41,28.62z"/>
	<path style="fill:#45413C;" d="M19.42,31.95H6.85c-0.551,0-1-0.448-1-1V29.12c0-0.552,0.449-1,1-1h12.57c0.551,0,1,0.448,1,1v1.829   C20.42,31.501,19.971,31.95,19.42,31.95z M6.85,29.12v1.829h12.57V29.12H6.85z M6.85,28.62l-0.001,0.5c0,0,0.001,0,0.001,0V28.62z"/>
	<path id="_Rectangle_7_101_" style="fill:#9CEB60;" d="M22.96,28.62h5.09c0.276,0,0.5,0.224,0.5,0.5v1.83   c0,0.276-0.224,0.5-0.5,0.5h-5.09c-0.276,0-0.5-0.224-0.5-0.5v-1.83C22.46,28.844,22.684,28.62,22.96,28.62z"/>
	<path id="_Rectangle_8_97_" style="fill:#9CEB60;" d="M31.51,28.62h6.56c0.276,0,0.5,0.224,0.5,0.5v1.83c0,0.276-0.224,0.5-0.5,0.5   h-6.56c-0.276,0-0.5-0.224-0.5-0.5v-1.83C31.01,28.844,31.234,28.62,31.51,28.62z"/>
	<path id="_Path_4_584_" style="fill:#6DD627;" d="M28.05,28.62h-5.09c-0.276,0-0.5,0.224-0.5,0.5v1.41c0-0.276,0.224-0.5,0.5-0.5   h5.09c0.274,0.005,0.495,0.226,0.5,0.5v-1.41C28.55,28.844,28.326,28.62,28.05,28.62z"/>
	<path id="_Path_5_573_" style="fill:#6DD627;" d="M38.06,28.62H31.5c-0.276,0-0.5,0.224-0.5,0.5v1.41c0-0.276,0.224-0.5,0.5-0.5   h6.55c0.276,0,0.5,0.224,0.5,0.5v-1.41C38.55,28.848,38.332,28.625,38.06,28.62z"/>
	<path style="fill:#45413C;" d="M28.05,31.95h-5.09c-0.551,0-1-0.448-1-1V29.12c0-0.552,0.449-1,1-1h5.09c0.552,0,1,0.448,1,1v1.829   C29.05,31.501,28.602,31.95,28.05,31.95z M22.96,29.12l0,1.829h5.09V29.12H22.96z M22.96,28.62l0,0.5h0V28.62z"/>
	<path style="fill:#45413C;" d="M38.07,31.95H31.51c-0.552,0-1-0.448-1-1V29.12c0-0.552,0.448-1,1-1h6.561c0.552,0,1,0.448,1,1   v1.829C39.07,31.501,38.622,31.95,38.07,31.95z M31.51,29.12v1.829h6.561V29.12H31.51z M31.51,28.62l-0.001,0.5h0.001V28.62z"/>
	<g id="_Group__511_">
		<path style="fill:#FF6242;" d="M9.25,21.45l2.12-4H9.2c-0.174,0.013-0.345-0.049-0.47-0.17c-0.106-0.114-0.163-0.265-0.16-0.42    c-0.026-0.297,0.193-0.559,0.49-0.586c0.047-0.004,0.094-0.002,0.14,0.006h3.07c0.174-0.013,0.343,0.062,0.45,0.2    c0.097,0.115,0.154,0.259,0.16,0.41c-0.002,0.083-0.023,0.165-0.06,0.24c0,0.09-0.08,0.19-0.14,0.32l-2.1,4.27    c-0.09,0.18-0.17,0.32-0.22,0.4c-0.051,0.075-0.12,0.137-0.2,0.18c-0.09,0.043-0.19,0.064-0.29,0.06    c-0.191,0.008-0.376-0.065-0.51-0.2c-0.12-0.099-0.193-0.244-0.2-0.4C9.163,21.651,9.194,21.544,9.25,21.45z"/>
	</g>
	<g>
		<path id="_Path_6_537_" style="fill:#9F5AE5;" d="M7.96,11.86c0.531,1.05,1.585,1.733,2.76,1.79c1.182-0.05,2.245-0.734,2.78-1.79    H7.96z"/>
		<path style="fill:#45413C;" d="M10.741,14.149c-1.396-0.065-2.616-0.856-3.228-2.063c-0.078-0.155-0.071-0.34,0.021-0.488    c0.091-0.148,0.252-0.238,0.426-0.238h5.54c0.174,0,0.335,0.09,0.426,0.238c0.091,0.148,0.099,0.333,0.021,0.488    C13.33,13.302,12.102,14.093,10.741,14.149z M8.938,12.36c0.478,0.469,1.119,0.757,1.806,0.79c0.663-0.029,1.3-0.317,1.779-0.79    H8.938z"/>
	</g>
	<g>
		<path id="_Path_7_517_" style="fill:#BDBEC0;" d="M7.96,26.28c0.531-1.05,1.585-1.733,2.76-1.79c1.182,0.05,2.245,0.734,2.78,1.79    H7.96z"/>
		<path style="fill:#45413C;" d="M13.5,26.78H7.96c-0.174,0-0.335-0.09-0.426-0.238c-0.091-0.147-0.099-0.332-0.021-0.487    c0.611-1.207,1.83-1.998,3.182-2.063c1.407,0.057,2.635,0.848,3.25,2.063c0.078,0.154,0.071,0.339-0.021,0.487    C13.835,26.69,13.674,26.78,13.5,26.78z M8.937,25.78h3.586c-0.482-0.473-1.129-0.762-1.823-0.79    C10.043,25.023,9.412,25.311,8.937,25.78z"/>
	</g>
	<path style="fill:#FFFFFF;" d="M37.97,12.1c-0.034-0.16-0.176-0.273-0.34-0.27h-6.71c-0.164-0.003-0.306,0.11-0.34,0.27   c-0.91,4.589-0.91,9.311,0,13.9c0.025,0.166,0.172,0.287,0.34,0.28h6.71c0.168,0.007,0.315-0.114,0.34-0.28   C38.879,21.414,38.861,16.69,37.97,12.1z"/>
	<path style="fill:#E0E0E0;" d="M30.92,11.86c-0.164-0.003-0.306,0.11-0.34,0.27c-0.12,0.6-0.22,1.19-0.31,1.79h8   c-0.09-0.6-0.19-1.19-0.31-1.79c-0.034-0.16-0.176-0.273-0.34-0.27H30.92z"/>
	<path style="fill:#45413C;" d="M30.884,26.781c-0.387,0-0.735-0.297-0.798-0.705c-0.924-4.654-0.924-9.396,0.004-14.073   c0.081-0.394,0.426-0.673,0.822-0.673c0.007,0,0.013,0,0.019,0h6.699c0.006,0,0.012,0,0.017,0c0.388,0,0.732,0.278,0.813,0.668   c0.001,0.002,0.001,0.004,0.002,0.006c0.917,4.722,0.917,9.464-0.001,14.093c-0.061,0.397-0.408,0.717-0.854,0.681L30.92,26.78   C30.908,26.781,30.896,26.781,30.884,26.781z M37.479,25.91c-0.001,0.005-0.002,0.01-0.003,0.016   C37.477,25.92,37.478,25.914,37.479,25.91z M31.068,25.893c0.001,0.004,0.002,0.007,0.002,0.01   C31.07,25.9,31.069,25.897,31.068,25.893z M30.905,25.78c-0.003,0-0.006,0-0.009,0.001h0.017   C30.91,25.78,30.907,25.78,30.905,25.78z M31.044,12.33c-0.867,4.46-0.867,8.986,0.002,13.451l6.458-0.001   c0.859-4.433,0.858-8.949,0.001-13.45H31.044z M37.625,25.78c-0.002,0-0.004,0-0.006,0h0.011   C37.628,25.78,37.626,25.78,37.625,25.78z M30.926,12.33H30.92C30.922,12.33,30.924,12.33,30.926,12.33z M37.634,12.33   c0.002,0,0.005,0,0.007,0H37.634z"/>
	<g id="_Group_2_341_">
		<path style="fill:#FF6242;" d="M32.8,21.45l2.12-4h-2.17c-0.174,0.013-0.345-0.049-0.47-0.17c-0.106-0.114-0.163-0.265-0.16-0.42    c-0.026-0.297,0.193-0.559,0.49-0.586c0.047-0.004,0.094-0.002,0.14,0.006h3.07c0.174-0.013,0.343,0.062,0.45,0.2    c0.094,0.116,0.147,0.26,0.15,0.41c0.002,0.083-0.015,0.165-0.05,0.24c0,0.09-0.08,0.19-0.14,0.32l-2.1,4.27    c-0.1,0.18-0.17,0.32-0.22,0.4c-0.051,0.075-0.12,0.137-0.2,0.18c-0.09,0.043-0.19,0.064-0.29,0.06    c-0.191,0.01-0.377-0.063-0.51-0.2c-0.12-0.099-0.193-0.244-0.2-0.4C32.713,21.651,32.744,21.544,32.8,21.45z"/>
	</g>
	<g>
		<path id="_Path_8_490_" style="fill:#9F5AE5;" d="M31.5,11.86c0.643,1.527,2.402,2.244,3.929,1.601    c0.722-0.304,1.297-0.879,1.601-1.601H31.5z"/>
		<path style="fill:#45413C;" d="M34.266,14.198c-0.447,0-0.895-0.087-1.321-0.261c-0.866-0.353-1.543-1.021-1.905-1.883    c-0.064-0.154-0.048-0.331,0.044-0.47c0.093-0.14,0.249-0.224,0.417-0.224h5.53c0.168,0,0.324,0.084,0.417,0.224    s0.108,0.316,0.044,0.471c-0.358,0.848-1.021,1.511-1.868,1.868C35.186,14.106,34.726,14.198,34.266,14.198z M32.397,12.36    c0.251,0.282,0.564,0.504,0.924,0.651c0.619,0.253,1.298,0.25,1.913-0.011c0.349-0.146,0.653-0.365,0.897-0.64H32.397z"/>
	</g>
	<g>
		<path id="_Path_9_455_" style="fill:#BDBEC0;" d="M31.5,26.28c0.643-1.527,2.402-2.244,3.929-1.601    c0.722,0.304,1.297,0.879,1.601,1.601H31.5z"/>
		<path style="fill:#45413C;" d="M37.03,26.78H31.5c-0.168,0-0.324-0.084-0.417-0.224c-0.092-0.14-0.108-0.316-0.044-0.471    c0.362-0.861,1.039-1.529,1.905-1.883c0.866-0.353,1.816-0.347,2.679,0.016c0.847,0.355,1.51,1.019,1.868,1.867    c0.064,0.154,0.049,0.331-0.044,0.471S37.198,26.78,37.03,26.78z M32.399,25.78h3.732c-0.245-0.274-0.549-0.493-0.896-0.64    C34.225,24.716,33.091,25.005,32.399,25.78z"/>
	</g>
	<path style="fill:#FFFFFF;" d="M26.2,12.1c-0.034-0.16-0.176-0.273-0.34-0.27h-6.72c-0.164-0.003-0.306,0.11-0.34,0.27   c-0.9,4.59-0.9,9.31,0,13.9c0.029,0.164,0.173,0.283,0.34,0.28h6.72c0.168,0.007,0.315-0.114,0.34-0.28   C27.098,21.415,27.061,16.692,26.2,12.1z"/>
	<path style="fill:#E0E0E0;" d="M19.14,11.86c-0.164-0.003-0.306,0.11-0.34,0.27c-0.11,0.6-0.22,1.19-0.3,1.79h8   c-0.08-0.6-0.18-1.19-0.3-1.79c-0.034-0.16-0.176-0.273-0.34-0.27H19.14z"/>
	<path style="fill:#45413C;" d="M25.876,26.78c-0.013,0-0.025,0-0.039-0.001L19.14,26.78c-0.416-0.002-0.759-0.283-0.833-0.69   c-0.915-4.668-0.915-9.41,0.001-14.085c0.084-0.402,0.424-0.694,0.841-0.674h6.71c0.006,0,0.012,0,0.017,0   c0.386,0,0.729,0.277,0.813,0.666c0.001,0.004,0.001,0.008,0.002,0.012c0.895,4.775,0.895,9.515-0.001,14.088   C26.632,26.484,26.284,26.78,25.876,26.78z M25.709,25.911c-0.001,0.005-0.002,0.01-0.003,0.015   C25.707,25.92,25.708,25.915,25.709,25.911z M19.29,25.901c0,0.001,0,0.002,0.001,0.003C19.29,25.903,19.29,25.902,19.29,25.901z    M19.134,25.78c-0.001,0-0.002,0-0.003,0h0.005C19.136,25.78,19.135,25.78,19.134,25.78z M19.265,12.33   c-0.858,4.459-0.858,8.984,0.001,13.45h6.468c0.837-4.38,0.836-8.896,0-13.45H19.265z M25.855,25.78c-0.002,0-0.004,0-0.006,0   h0.011C25.858,25.78,25.856,25.78,25.855,25.78z M19.146,12.33H19.14C19.141,12.329,19.143,12.329,19.146,12.33z M25.864,12.33   c0.002,0,0.005,0,0.007,0H25.864z"/>
	<g id="_Group_3_273_">
		<path style="fill:#FF6242;" d="M21.03,21.45l2.11-4h-2.17c-0.173,0.011-0.343-0.051-0.47-0.17c-0.099-0.117-0.152-0.267-0.15-0.42    c-0.004-0.154,0.05-0.303,0.15-0.42c0.126-0.12,0.297-0.178,0.47-0.16h3.07c0.177-0.013,0.349,0.062,0.46,0.2    c0.094,0.116,0.147,0.26,0.15,0.41c0.013,0.079,0.013,0.161,0,0.24l-0.14,0.32l-2.11,4.27c-0.063,0.139-0.137,0.272-0.22,0.4    c-0.048,0.075-0.113,0.136-0.19,0.18c-0.094,0.043-0.197,0.063-0.3,0.06c-0.19,0.007-0.375-0.066-0.51-0.2    c-0.118-0.1-0.187-0.246-0.19-0.4C20.978,21.655,20.991,21.548,21.03,21.45z"/>
	</g>
	<g>
		<path id="_Path_10_419_" style="fill:#9F5AE5;" d="M19.73,11.86c0.542,1.04,1.598,1.711,2.77,1.76    c1.172-0.049,2.228-0.72,2.77-1.76H19.73z"/>
		<path style="fill:#45413C;" d="M22.521,14.119c-1.388-0.057-2.611-0.833-3.234-2.028c-0.081-0.155-0.075-0.341,0.016-0.491    c0.091-0.149,0.253-0.241,0.428-0.241h5.54c0.175,0,0.337,0.091,0.428,0.241s0.097,0.335,0.016,0.49    C25.09,13.286,23.867,14.063,22.521,14.119z M20.727,12.36c0.48,0.454,1.116,0.731,1.794,0.76c0.65-0.029,1.276-0.306,1.753-0.76    H20.727z"/>
	</g>
	<g>
		<path id="_Path_11_388_" style="fill:#BDBEC0;" d="M19.73,26.28c0.534-1.051,1.592-1.735,2.77-1.79    c1.178,0.055,2.236,0.739,2.77,1.79L19.73,26.28z"/>
		<path style="fill:#45413C;" d="M25.27,26.78h-5.54c-0.174,0-0.335-0.091-0.426-0.238c-0.091-0.148-0.098-0.333-0.02-0.488    c0.615-1.209,1.838-1.999,3.192-2.063c1.401,0.063,2.624,0.854,3.238,2.063c0.079,0.155,0.072,0.34-0.02,0.488    C25.604,26.689,25.443,26.78,25.27,26.78z M20.709,25.78h3.581c-0.48-0.47-1.124-0.758-1.813-0.791    C21.82,25.022,21.187,25.31,20.709,25.78z"/>
	</g>
</g>















</svg>
