<?xml version="1.0" encoding="iso-8859-1"?>
<!-- Generator: Adobe Illustrator 21.0.0, SVG Export Plug-In . SVG Version: 6.00 Build 0)  -->
<svg xmlns="http://www.w3.org/2000/svg" xmlns:xlink="http://www.w3.org/1999/xlink" version="1.1" id="Capa_1" x="0px" y="0px" viewBox="0 0 45.303 45.303" style="enable-background:new 0 0 45.303 45.303;" xml:space="preserve" width="512" height="512">
<g>
	<g id="_Group__439_">
		
			<ellipse id="_Ellipse__502_" style="opacity:0.15;fill:#45413C;enable-background:new    ;" cx="22.652" cy="44.123" rx="9.43" ry="1.18"/>
		<path id="_Path__515_" style="fill:#6DD627;" d="M30.022,42.443c0.181,0.626-0.18,1.28-0.806,1.461    c-0.041,0.012-0.082,0.021-0.124,0.029c-0.662,0.098-1.332,0.128-2,0.09c-3.072-0.113-5.904-1.689-7.62-4.24    c-4.14-6.52-0.38-14.69-0.22-15c0.276-0.591,0.979-0.846,1.57-0.57s0.846,0.979,0.57,1.57l0,0l0,0c0,0.08-3.37,7.36,0.07,12.77    c1.62,2.351,4.453,3.555,7.27,3.09c0.588-0.089,1.152,0.269,1.32,0.84L30.022,42.443z"/>
		<path id="_Path_2_507_" style="fill:#46B000;" d="M21.392,25.743c-0.945,2.215-1.448,4.593-1.48,7c0.002,0.669,0.052,1.338,0.15,2    h-2.42c-0.351-3.414,0.194-6.86,1.58-10c0.276-0.591,0.979-0.846,1.57-0.57s0.846,0.979,0.57,1.57L21.392,25.743z"/>
		<path style="fill:#45413C;" d="M27.679,44.539c-0.195,0-0.391-0.005-0.585-0.017c-3.212-0.118-6.208-1.785-8.007-4.459    c-4.356-6.86-0.292-15.425-0.25-15.509c0.384-0.822,1.386-1.185,2.227-0.794c0.839,0.393,1.203,1.396,0.811,2.235l-0.263,0.563    c-0.926,2.483-2.299,7.643,0.272,11.686c1.493,2.167,4.155,3.3,6.766,2.865c0.917-0.151,1.783,0.467,1.936,1.382    c0.074,0.442-0.028,0.887-0.289,1.253c-0.261,0.365-0.648,0.607-1.092,0.682C28.696,44.501,28.185,44.539,27.679,44.539z     M20.353,24.602c-0.257,0-0.503,0.146-0.619,0.394c-0.049,0.096-3.856,8.148,0.189,14.521c1.613,2.397,4.313,3.9,7.217,4.007    c0.643,0.037,1.282,0.009,1.908-0.085c0.17-0.028,0.327-0.126,0.433-0.274c0.105-0.147,0.147-0.328,0.117-0.508    c-0.03-0.179-0.128-0.336-0.276-0.442c-0.149-0.105-0.332-0.145-0.509-0.117c-2.996,0.497-6.042-0.8-7.763-3.3    c-3.021-4.75-1.124-10.756-0.169-13.119v-0.822c-0.063-0.078-0.144-0.144-0.241-0.188C20.547,24.623,20.45,24.602,20.353,24.602z"/>
		<path id="_Path_4_500_" style="fill:#6DD627;" d="M28.922,27.743c-0.046-0.814-0.294-1.605-0.72-2.3    c0.419,0.704,1.006,1.291,1.71,1.71c3.65,2.16,7.77-2.2,5.72-5.91l-0.88-1.58c-0.152-0.281-0.066-0.632,0.2-0.81l1.51-1    c3.55-2.33,1.93-8.1-2.31-7.89c-0.818,0.043-1.612,0.291-2.31,0.72c0.704-0.419,1.291-1.006,1.71-1.71    c2.16-3.67-2.16-7.76-5.9-5.67l-1.58,0.88c-0.284,0.15-0.635,0.059-0.81-0.21l-1-1.5c-2.32-3.59-8.09-1.97-7.87,2.27    c0.042,0.815,0.29,1.606,0.72,2.3c-0.423-0.711-1.013-1.309-1.72-1.74c-3.65-2.16-7.77,2.2-5.72,5.91l0.88,1.58    c0.15,0.284,0.059,0.635-0.21,0.81l-1.5,1c-3.55,2.33-1.93,8.1,2.31,7.89c0.814-0.046,1.605-0.294,2.3-0.72    c-0.703,0.415-1.291,0.999-1.71,1.7c-2.16,3.66,2.19,7.78,5.91,5.73l1.58-0.9c0.281-0.152,0.632-0.066,0.81,0.2l1,1.51    C23.392,33.603,29.132,31.983,28.922,27.743z"/>
		<g id="_Group_2_297_">
			<path id="_Path_5_492_" style="fill:#9CEB60;" d="M17.102,7.043c-0.42-0.71-1.007-1.308-1.71-1.74c-3.65-2.16-7.77,2.2-5.72,5.91     l0.88,1.58c-1.37-5.73,5.12-8.11,7.84-3.6L17.102,7.043z"/>
		</g>
		<g id="_Group_3_242_">
			<path id="_Path_6_456_" style="fill:#9CEB60;" d="M24.272,6.073l1,1.51c0.178,0.266,0.529,0.352,0.81,0.2l1.58-0.88     c2.147-1.151,4.82-0.343,5.97,1.803c0.01,0.019,0.02,0.038,0.03,0.057c1.87-3.59-2.37-7.46-6.01-5.46l-1.58,0.88     c-0.284,0.15-0.635,0.059-0.81-0.21l-1-1.5c-2.32-3.59-8.09-1.97-7.87,2.27c0.033,0.576,0.168,1.142,0.4,1.67     c1.171-2.123,3.841-2.895,5.964-1.724C23.364,5.024,23.883,5.499,24.272,6.073z"/>
			<path id="_Path_7_435_" style="fill:#9CEB60;" d="M8.842,18.303l1.55-1c0.269-0.175,0.36-0.526,0.21-0.81l-0.88-1.58     c-0.122-0.197-0.232-0.4-0.33-0.61l-0.55,0.37c-1.796,1.185-2.459,3.504-1.56,5.46C7.613,19.385,8.155,18.749,8.842,18.303z"/>
		</g>
		<path style="fill:#45413C;" d="M24.691,32.486c-1.468,0-3.039-0.627-4.068-2.199l-0.999-1.507c-0.033-0.05-0.1-0.066-0.155-0.037    l-1.571,0.896c-2.244,1.236-4.569,0.428-5.881-0.925c-1.492-1.536-1.77-3.693-0.707-5.494c0.051-0.086,0.104-0.169,0.16-0.251    c-0.096,0.011-0.193,0.019-0.291,0.024c-2.089,0.111-3.869-1.146-4.533-3.182c-0.583-1.79-0.216-4.223,1.92-5.625l1.497-0.998    c0.057-0.037,0.075-0.104,0.045-0.16l-0.875-1.571C7.999,9.219,8.811,6.893,10.164,5.58c1.536-1.492,3.688-1.769,5.482-0.707    c0.091,0.055,0.181,0.113,0.268,0.174c-0.01-0.092-0.017-0.185-0.022-0.278c-0.108-2.091,1.138-3.868,3.175-4.526    c1.792-0.579,4.221-0.197,5.614,1.959l0.996,1.494c0.037,0.058,0.106,0.074,0.161,0.045l1.569-0.875    c2.242-1.253,4.566-0.466,5.874,0.871c1.491,1.525,1.766,3.679,0.7,5.489c-0.053,0.089-0.108,0.177-0.166,0.263    c0.103-0.011,0.205-0.02,0.309-0.025c2.111-0.095,3.867,1.147,4.531,3.183c0.583,1.79,0.216,4.223-1.92,5.625l-1.508,0.999    c-0.05,0.033-0.066,0.1-0.037,0.155L36.068,21c1.236,2.237,0.424,4.564-0.929,5.877c-1.535,1.49-3.687,1.768-5.482,0.707    c-0.089-0.054-0.176-0.108-0.262-0.167c0.012,0.1,0.02,0.198,0.025,0.298c0,0.001,0,0.002,0,0.004    c0.104,2.088-1.139,3.863-3.166,4.522C25.77,32.399,25.238,32.486,24.691,32.486z M19.531,27.729c0.362,0,0.711,0.176,0.926,0.496    l1.002,1.512c1.124,1.718,3.064,2.018,4.486,1.554c1.262-0.41,2.574-1.551,2.478-3.521c-0.042-0.709-0.254-1.403-0.616-2.014    c-0.012-0.02-0.023-0.039-0.034-0.059c-0.141-0.236-0.063-0.541,0.172-0.684c0.233-0.14,0.541-0.066,0.685,0.168    c0.012,0.019,0.023,0.038,0.034,0.058c0.372,0.607,0.892,1.119,1.505,1.484c1.693,1.001,3.318,0.364,4.275-0.564    c1.08-1.049,1.73-2.9,0.751-4.675l-0.879-1.578c-0.28-0.516-0.124-1.146,0.358-1.469l1.512-1.001    c1.696-1.113,1.985-3.052,1.52-4.48c-0.414-1.269-1.533-2.589-3.529-2.494c-0.707,0.037-1.401,0.248-2.011,0.61    c-0.022,0.014-0.045,0.027-0.067,0.041c-0.234,0.14-0.541,0.065-0.684-0.171c-0.143-0.235-0.068-0.541,0.165-0.685    c0.022-0.014,0.045-0.027,0.068-0.041c0.604-0.373,1.113-0.89,1.475-1.499c1.006-1.708,0.373-3.332-0.555-4.281    c-1.042-1.064-2.89-1.693-4.672-0.697l-1.58,0.88c-0.526,0.279-1.156,0.114-1.474-0.375l-0.996-1.495    c-1.109-1.717-3.044-2.016-4.47-1.556c-1.268,0.41-2.587,1.551-2.484,3.523c0.036,0.7,0.243,1.385,0.6,1.987    c0.017,0.028,0.034,0.056,0.051,0.084c0.14,0.236,0.064,0.541-0.17,0.683c-0.236,0.142-0.541,0.069-0.685-0.164    c-0.018-0.028-0.035-0.056-0.051-0.084c-0.376-0.606-0.895-1.121-1.504-1.493c-1.687-0.998-3.313-0.361-4.271,0.567    c-1.08,1.048-1.731,2.9-0.751,4.674l0.879,1.579c0.278,0.524,0.115,1.153-0.374,1.472L9.119,15.02    c-1.698,1.114-1.986,3.053-1.521,4.481c0.414,1.269,1.552,2.586,3.529,2.493c0.7-0.04,1.39-0.249,1.996-0.606    c0.025-0.015,0.05-0.03,0.075-0.045c0.236-0.138,0.542-0.062,0.683,0.173c0.141,0.235,0.066,0.541-0.167,0.684    c-0.024,0.015-0.049,0.03-0.074,0.045c-0.6,0.368-1.106,0.881-1.468,1.485c-1.002,1.698-0.366,3.329,0.565,4.287    c1.047,1.078,2.899,1.728,4.675,0.749l1.574-0.897C19.159,27.774,19.347,27.729,19.531,27.729z"/>
		<path style="fill:#45413C;" d="M19.792,12.003c-0.169,0-0.335-0.086-0.429-0.242l-2.69-4.46c-0.143-0.236-0.066-0.544,0.17-0.687    c0.237-0.144,0.544-0.067,0.687,0.17l2.69,4.46c0.143,0.236,0.066,0.544-0.17,0.687C19.969,11.98,19.88,12.003,19.792,12.003z"/>
		<path style="fill:#45413C;" d="M28.202,25.943c-0.169,0-0.334-0.086-0.428-0.242l-2.69-4.459c-0.143-0.236-0.067-0.544,0.17-0.687    c0.233-0.141,0.543-0.068,0.686,0.17l2.69,4.46c0.143,0.236,0.067,0.543-0.17,0.686C28.38,25.919,28.291,25.943,28.202,25.943z"/>
		<path style="fill:#45413C;" d="M27.392,13.883c-0.169,0-0.334-0.086-0.428-0.241c-0.143-0.236-0.067-0.544,0.169-0.687l4.45-2.69    c0.236-0.142,0.544-0.067,0.687,0.169s0.067,0.544-0.169,0.687l-4.45,2.69C27.569,13.86,27.48,13.883,27.392,13.883z"/>
		<path style="fill:#45413C;" d="M13.452,22.293c-0.169,0-0.335-0.086-0.429-0.242c-0.143-0.236-0.066-0.544,0.17-0.687l4.46-2.69    c0.237-0.144,0.544-0.067,0.687,0.17c0.143,0.236,0.066,0.544-0.17,0.687l-4.46,2.69C13.629,22.271,13.54,22.293,13.452,22.293z"/>
	</g>
</g>















</svg>
