<?xml version="1.0" encoding="iso-8859-1"?>
<!-- Generator: Adobe Illustrator 21.0.0, SVG Export Plug-In . SVG Version: 6.00 Build 0)  -->
<svg xmlns="http://www.w3.org/2000/svg" xmlns:xlink="http://www.w3.org/1999/xlink" version="1.1" id="Capa_1" x="0px" y="0px" viewBox="0 0 41 41" style="enable-background:new 0 0 41 41;" xml:space="preserve" width="512" height="512">
<g>
	<g id="_Group__503_">
		
			<ellipse id="_Ellipse__574_" style="opacity:0.15;fill:#45413C;enable-background:new    ;" cx="20.5" cy="38" rx="20.5" ry="1.5"/>
		<path id="_Rectangle__188_" style="fill:#8CA4B8;" d="M1.5,7.5h38c0.552,0,1,0.448,1,1v1c0,0.552-0.448,1-1,1h-38    c-0.552,0-1-0.448-1-1v-1C0.5,7.948,0.948,7.5,1.5,7.5z"/>
		<path id="_Path__587_" style="fill:#ADC4D9;" d="M39.5,7.5h-38c-0.552,0-1,0.448-1,1v1c-0.01,0.083-0.01,0.167,0,0.25    C0.617,9.297,1.032,8.985,1.5,9h38c0.468-0.015,0.883,0.297,1,0.75c0.01-0.083,0.01-0.167,0-0.25v-1    C40.5,7.948,40.052,7.5,39.5,7.5z"/>
		<path style="fill:#45413C;" d="M39.5,11h-38C0.673,11,0,10.327,0,9.5v-1C0,7.673,0.673,7,1.5,7h38C40.327,7,41,7.673,41,8.5v1    C41,10.327,40.327,11,39.5,11z M1.5,8C1.224,8,1,8.224,1,8.5v1C1,9.776,1.224,10,1.5,10h38c0.275,0,0.5-0.224,0.5-0.5v-1    C40,8.224,39.775,8,39.5,8H1.5z"/>
		<path id="_Rectangle_3_148_" style="fill:#FFFFFF;" d="M1.5,10.5h38l0,0V36c0,0.552-0.448,1-1,1h-36c-0.552,0-1-0.448-1-1V10.5    L1.5,10.5z"/>
		<rect id="_Path_2_579_" x="1.5" y="10.5" style="fill:#E0E0E0;" width="38" height="2.25"/>
		<path style="fill:#45413C;" d="M38.5,37.5h-36C1.673,37.5,1,36.827,1,36V10.5C1,10.224,1.224,10,1.5,10h38    c0.276,0,0.5,0.224,0.5,0.5V36C40,36.827,39.327,37.5,38.5,37.5z M2,11v25c0,0.275,0.224,0.5,0.5,0.5h36    c0.275,0,0.5-0.225,0.5-0.5V11H2z"/>
		<rect id="_Rectangle_5_102_" x="10" y="5" style="fill:#FFFFFF;" width="21" height="32"/>
		<rect id="_Rectangle_6_96_" x="10" y="5" style="fill:#E0E0E0;" width="21" height="1.79"/>
		<path style="fill:#45413C;" d="M31,37.5H10c-0.276,0-0.5-0.224-0.5-0.5V5c0-0.276,0.224-0.5,0.5-0.5h21c0.276,0,0.5,0.224,0.5,0.5    v32C31.5,37.276,31.276,37.5,31,37.5z M10.5,36.5h20v-31h-20V36.5z"/>
		<rect id="_Rectangle_8_92_" x="14.5" y="26" style="fill:#00B8F0;" width="12" height="11"/>
		<polygon id="_Path_3_576_" style="fill:#4ACFFF;" points="16.94,37 22.14,37 26.5,26.43 26.5,26 21.47,26   "/>
		<path style="fill:#45413C;" d="M26.5,37.5h-12c-0.276,0-0.5-0.224-0.5-0.5V26c0-0.276,0.224-0.5,0.5-0.5h12    c0.276,0,0.5,0.224,0.5,0.5v11C27,37.276,26.776,37.5,26.5,37.5z M15,36.5h11v-10H15V36.5z"/>
		<path id="_Rectangle_10_66_" style="fill:#8CA4B8;" d="M14.5,22.5h12c0.552,0,1,0.448,1,1V25c0,0.552-0.448,1-1,1h-12    c-0.552,0-1-0.448-1-1v-1.5C13.5,22.948,13.948,22.5,14.5,22.5z"/>
		<path id="_Path_4_571_" style="fill:#ADC4D9;" d="M26.5,22.5h-12c-0.552,0-1,0.448-1,1V25c-0.005,0.04-0.005,0.08,0,0.12    c0.066-0.501,0.495-0.874,1-0.87h12c0.505-0.004,0.934,0.369,1,0.87c0.005-0.04,0.005-0.08,0-0.12v-1.5    C27.5,22.948,27.052,22.5,26.5,22.5z"/>
		<path style="fill:#45413C;" d="M26.5,26.5h-12c-0.827,0-1.5-0.673-1.5-1.5v-1.5c0-0.827,0.673-1.5,1.5-1.5h12    c0.827,0,1.5,0.673,1.5,1.5V25C28,25.827,27.327,26.5,26.5,26.5z M14.5,23c-0.276,0-0.5,0.225-0.5,0.5V25    c0,0.275,0.224,0.5,0.5,0.5h12c0.275,0,0.5-0.225,0.5-0.5v-1.5c0-0.275-0.225-0.5-0.5-0.5H14.5z"/>
		<path id="_Rectangle_12_52_" style="fill:#8CA4B8;" d="M10,2h21c0.552,0,1,0.448,1,1v1c0,0.552-0.448,1-1,1H10    C9.448,5,9,4.552,9,4V3C9,2.448,9.448,2,10,2z"/>
		<path id="_Path_5_560_" style="fill:#ADC4D9;" d="M31,2H10C9.448,2,9,2.448,9,3v1c0.006,0.085,0.023,0.169,0.05,0.25    C9.162,3.815,9.551,3.508,10,3.5h21c0.468-0.015,0.883,0.297,1,0.75c0.01-0.083,0.01-0.167,0-0.25V3C32,2.448,31.552,2,31,2z"/>
		<path style="fill:#45413C;" d="M31,5.5H10C9.173,5.5,8.5,4.827,8.5,4V3c0-0.827,0.673-1.5,1.5-1.5h21c0.827,0,1.5,0.673,1.5,1.5v1    C32.5,4.827,31.827,5.5,31,5.5z M10,2.5C9.724,2.5,9.5,2.724,9.5,3v1c0,0.276,0.224,0.5,0.5,0.5h21c0.275,0,0.5-0.224,0.5-0.5V3    c0-0.276-0.225-0.5-0.5-0.5H10z"/>
		<g>
			<path id="_Path_6_524_" style="fill:#FF6242;" d="M24,11.5h-1.5c-0.276,0-0.5-0.224-0.5-0.5V9.5C22,9.224,21.776,9,21.5,9h-2     C19.224,9,19,9.224,19,9.5V11c0,0.276-0.224,0.5-0.5,0.5H17c-0.276,0-0.5,0.224-0.5,0.5v2c0,0.276,0.224,0.5,0.5,0.5h1.5     c0.276,0,0.5,0.224,0.5,0.5v1.5c0,0.276,0.224,0.5,0.5,0.5h2c0.276,0,0.5-0.224,0.5-0.5V15c0-0.276,0.224-0.5,0.5-0.5H24     c0.276,0,0.5-0.224,0.5-0.5v-2C24.5,11.724,24.276,11.5,24,11.5z"/>
			<path style="fill:#45413C;" d="M21.5,17.5h-2c-0.551,0-1-0.449-1-1V15H17c-0.551,0-1-0.449-1-1v-2c0-0.551,0.449-1,1-1h1.5V9.5     c0-0.551,0.449-1,1-1h2c0.552,0,1,0.449,1,1V11H24c0.552,0,1,0.449,1,1v2c0,0.551-0.448,1-1,1h-1.5v1.5     C22.5,17.051,22.052,17.5,21.5,17.5z M17,12v2h1.5c0.551,0,1,0.449,1,1v1.5h2V15c0-0.551,0.448-1,1-1H24v-2h-1.5     c-0.552,0-1-0.449-1-1V9.5h-2V11c0,0.551-0.449,1-1,1H17z"/>
		</g>
		<path id="_Rectangle_14_31_" style="fill:#00B8F0;" d="M5,13h1.5C6.776,13,7,13.224,7,13.5V17c0,0.276-0.224,0.5-0.5,0.5H5    c-0.276,0-0.5-0.224-0.5-0.5v-3.5C4.5,13.224,4.724,13,5,13z"/>
		<path id="_Path_7_501_" style="fill:#4ACFFF;" d="M5,17.5h1.5C6.776,17.5,7,17.276,7,17v-3.5c-0.003-0.109-0.042-0.215-0.11-0.3    l-2.22,4.17C4.76,17.453,4.878,17.499,5,17.5z"/>
		<path id="_Rectangle_15_21_" style="fill:#00B8F0;" d="M5,20h1.5C6.776,20,7,20.224,7,20.5V24c0,0.276-0.224,0.5-0.5,0.5H5    c-0.276,0-0.5-0.224-0.5-0.5v-3.5C4.5,20.224,4.724,20,5,20z"/>
		<path id="_Path_8_474_" style="fill:#4ACFFF;" d="M5,24.5h1.5C6.776,24.5,7,24.276,7,24v-3.5c-0.003-0.109-0.042-0.215-0.11-0.3    l-2.22,4.17C4.76,24.453,4.878,24.499,5,24.5z"/>
		<path id="_Rectangle_16_13_" style="fill:#00B8F0;" d="M5,27h1.5C6.776,27,7,27.224,7,27.5V31c0,0.276-0.224,0.5-0.5,0.5H5    c-0.276,0-0.5-0.224-0.5-0.5v-3.5C4.5,27.224,4.724,27,5,27z"/>
		<path id="_Path_9_441_" style="fill:#4ACFFF;" d="M5,31.5h1.5C6.776,31.5,7,31.276,7,31v-3.5c-0.003-0.109-0.042-0.215-0.11-0.3    l-2.22,4.17C4.76,31.453,4.878,31.499,5,31.5z"/>
		<path style="fill:#45413C;" d="M6.5,18H5c-0.551,0-1-0.449-1-1v-3.5c0-0.551,0.449-1,1-1h1.5c0.551,0,1,0.449,1,1V17    C7.5,17.551,7.051,18,6.5,18z M5,13.5V17h1.5v-3.5H5z M5,13l-0.001,0.5c0,0,0.001,0,0.001,0V13z"/>
		<path style="fill:#45413C;" d="M6.5,25H5c-0.551,0-1-0.448-1-1v-3.5c0-0.551,0.449-1,1-1h1.5c0.551,0,1,0.449,1,1V24    C7.5,24.552,7.051,25,6.5,25z M5,20.5V24h1.5v-3.5H5z M5,20l-0.001,0.5c0,0,0.001,0,0.001,0V20z"/>
		<path style="fill:#45413C;" d="M6.5,32H5c-0.551,0-1-0.448-1-1v-3.5c0-0.552,0.449-1,1-1h1.5c0.551,0,1,0.448,1,1V31    C7.5,31.552,7.051,32,6.5,32z M5,27.5V31h1.5v-3.5H5z M5,27l-0.001,0.5c0,0,0.001,0,0.001,0V27z"/>
		<path id="_Rectangle_20_5_" style="fill:#00B8F0;" d="M34.5,13H36c0.276,0,0.5,0.224,0.5,0.5V17c0,0.276-0.224,0.5-0.5,0.5h-1.5    c-0.276,0-0.5-0.224-0.5-0.5v-3.5C34,13.224,34.224,13,34.5,13z"/>
		<path id="_Path_10_407_" style="fill:#4ACFFF;" d="M34.5,17.5H36c0.276,0,0.5-0.224,0.5-0.5v-3.5    c-0.003-0.109-0.042-0.215-0.11-0.3l-2.22,4.17C34.26,17.453,34.378,17.499,34.5,17.5z"/>
		<path id="_Rectangle_21_1_" style="fill:#00B8F0;" d="M34.5,20H36c0.276,0,0.5,0.224,0.5,0.5V24c0,0.276-0.224,0.5-0.5,0.5h-1.5    c-0.276,0-0.5-0.224-0.5-0.5v-3.5C34,20.224,34.224,20,34.5,20z"/>
		<path id="_Path_11_376_" style="fill:#4ACFFF;" d="M34.5,24.5H36c0.276,0,0.5-0.224,0.5-0.5v-3.5    c-0.003-0.109-0.042-0.215-0.11-0.3l-2.22,4.17C34.26,24.453,34.378,24.499,34.5,24.5z"/>
		<path id="_Rectangle_22_1_" style="fill:#00B8F0;" d="M34.5,27H36c0.276,0,0.5,0.224,0.5,0.5V31c0,0.276-0.224,0.5-0.5,0.5h-1.5    c-0.276,0-0.5-0.224-0.5-0.5v-3.5C34,27.224,34.224,27,34.5,27z"/>
		<path id="_Path_12_351_" style="fill:#4ACFFF;" d="M34.5,31.5H36c0.276,0,0.5-0.224,0.5-0.5v-3.5    c-0.003-0.109-0.042-0.215-0.11-0.3l-2.22,4.17C34.26,31.453,34.378,31.499,34.5,31.5z"/>
		<path style="fill:#45413C;" d="M36,18h-1.5c-0.552,0-1-0.449-1-1v-3.5c0-0.551,0.448-1,1-1H36c0.552,0,1,0.449,1,1V17    C37,17.551,36.552,18,36,18z M34.5,13.5V17H36v-3.5H34.5z M34.5,13l-0.001,0.5H34.5V13z"/>
		<path style="fill:#45413C;" d="M36,25h-1.5c-0.552,0-1-0.448-1-1v-3.5c0-0.551,0.448-1,1-1H36c0.552,0,1,0.449,1,1V24    C37,24.552,36.552,25,36,25z M34.5,20.5V24H36v-3.5H34.5z M34.5,20l-0.001,0.5H34.5V20z"/>
		<path style="fill:#45413C;" d="M36,32h-1.5c-0.552,0-1-0.448-1-1v-3.5c0-0.552,0.448-1,1-1H36c0.552,0,1,0.448,1,1V31    C37,31.552,36.552,32,36,32z M34.5,27.5V31H36v-3.5H34.5z M34.5,27l-0.001,0.5H34.5V27z"/>
		<path style="fill:#45413C;" d="M20.5,37.5c-0.276,0-0.5-0.224-0.5-0.5V26c0-0.276,0.224-0.5,0.5-0.5S21,25.724,21,26v11    C21,37.276,20.776,37.5,20.5,37.5z"/>
	</g>
</g>















</svg>
