<?xml version="1.0" encoding="iso-8859-1"?>
<!-- Generator: Adobe Illustrator 21.0.0, SVG Export Plug-In . SVG Version: 6.00 Build 0)  -->
<svg xmlns="http://www.w3.org/2000/svg" xmlns:xlink="http://www.w3.org/1999/xlink" version="1.1" id="Capa_1" x="0px" y="0px" viewBox="0 0 46.576 46.576" style="enable-background:new 0 0 46.576 46.576;" xml:space="preserve" width="512" height="512">
<g>
	<g id="_Group__442_">
		
			<ellipse id="_Ellipse__505_" style="opacity:0.15;fill:#45413C;enable-background:new    ;" cx="28.344" cy="43.292" rx="12" ry="1.5"/>
		<path id="_Path__518_" style="fill:#6DD627;" d="M0.504,6.212c-0.04-0.42,0.188-0.82,0.57-1c2.87-1.32,15.19-6.26,26.22,0.82    c8.21,5.24,12.67,7.07,14.83,7.71c0.522,0.182,0.797,0.752,0.616,1.273c-0.049,0.142-0.13,0.271-0.236,0.377    c-3.32,3.41-13.35,11.81-26.6,7.88S0.794,8.992,0.504,6.212z"/>
		<path id="_Path_2_510_" style="fill:#9CEB60;" d="M27.294,10.042c6.57,4.21,10.76,6.22,13.28,7.17c0.8-0.68,1.46-1.31,2-1.82    c0.384-0.397,0.374-1.03-0.023-1.414c-0.112-0.109-0.248-0.189-0.397-0.236c-2.19-0.64-6.65-2.47-14.86-7.71    c-11.03-7.08-23.35-2.14-26.21-0.82c-0.382,0.18-0.61,0.58-0.57,1c0.105,1.016,0.303,2.02,0.59,3    C4.004,7.872,16.284,2.972,27.294,10.042z"/>
		<path style="fill:#45413C;" d="M22.818,24.796c-2.225,0-4.584-0.312-7.056-1.044C2.423,19.795,0.331,9.366,0.007,6.264    c0-0.001,0-0.003,0-0.004c-0.06-0.629,0.284-1.232,0.855-1.5c3.47-1.596,15.64-6.25,26.703,0.852    c7.964,5.083,12.391,6.967,14.701,7.651c0.804,0.279,1.218,1.136,0.946,1.917c-0.072,0.208-0.194,0.404-0.353,0.564    C40.524,18.143,33.105,24.796,22.818,24.796z M1.002,6.163c0.308,2.949,2.304,12.851,15.045,16.63    c13.359,3.963,23.354-4.931,26.1-7.75c0.057-0.057,0.098-0.122,0.121-0.191c0.091-0.262-0.047-0.547-0.307-0.638    C39.61,13.518,35.09,11.6,27.026,6.454C16.39-0.374,4.634,4.125,1.284,5.666C1.097,5.754,0.983,5.954,1.002,6.163z"/>
		<path id="_Path_4_503_" style="fill:#6DD627;" d="M32.884,30.892c-3.742,2.272-6.404,5.962-7.38,10.23    c-0.103,0.513,0.206,1.019,0.71,1.16c8.636,2.254,17.463-2.92,19.717-11.556c0.044-0.167,0.085-0.336,0.123-0.504    c0.104-0.51-0.2-1.014-0.7-1.16C41.122,27.958,36.622,28.618,32.884,30.892z"/>
		<path id="_Path_5_495_" style="fill:#9CEB60;" d="M26.234,42.282h0.13c3.056-7.409,11.091-11.448,18.86-9.48    c0.345-0.833,0.623-1.692,0.83-2.57c0.104-0.51-0.2-1.014-0.7-1.16c-8.627-2.264-17.456,2.894-19.721,11.521    c-0.046,0.176-0.089,0.352-0.129,0.529C25.403,41.641,25.723,42.149,26.234,42.282z"/>
		<path style="fill:#45413C;" d="M30.324,43.313c-1.412,0-2.833-0.182-4.235-0.548c-0.761-0.213-1.229-0.978-1.074-1.742    c1.003-4.387,3.775-8.23,7.61-10.558l0,0c3.83-2.333,8.519-3.021,12.855-1.887c0.77,0.223,1.221,0.971,1.064,1.743    c-0.042,0.185-0.084,0.359-0.13,0.531c-1.123,4.306-3.856,7.916-7.695,10.166C36.131,42.537,33.247,43.312,30.324,43.313z     M41.304,29.043c-2.853,0-5.693,0.776-8.159,2.276v0.001c-3.605,2.188-6.212,5.802-7.152,9.913    c-0.049,0.242,0.107,0.497,0.358,0.567c8.344,2.178,16.916-2.846,19.098-11.2c0.042-0.163,0.082-0.326,0.119-0.488    c0.05-0.247-0.101-0.496-0.353-0.569C43.933,29.208,42.617,29.043,41.304,29.043z M32.885,30.892h0.01H32.885z"/>
		<path style="fill:#45413C;" d="M34.885,35.473c-0.115,0-0.23-0.039-0.325-0.12c-0.21-0.179-0.234-0.495-0.055-0.705    c2.871-3.36,7.052-5.386,11.47-5.556c0.315,0.007,0.509,0.205,0.52,0.48c0.01,0.276-0.205,0.509-0.48,0.52    c-4.141,0.159-8.059,2.057-10.749,5.206C35.166,35.413,35.025,35.473,34.885,35.473z"/>
		<path style="fill:#45413C;" d="M19.554,10.792c-0.088,0-0.177-0.023-0.258-0.072C13.499,7.212,5.582,6.147,0.57,6.302    C0.309,6.298,0.064,6.094,0.055,5.818C0.046,5.541,0.263,5.311,0.539,5.302c5.158-0.155,13.291,0.94,19.274,4.562    c0.236,0.143,0.312,0.45,0.169,0.687C19.889,10.706,19.724,10.792,19.554,10.792z"/>
	</g>
</g>















</svg>
