<?xml version="1.0" encoding="iso-8859-1"?>
<!-- Generator: Adobe Illustrator 21.0.0, SVG Export Plug-In . SVG Version: 6.00 Build 0)  -->
<svg xmlns="http://www.w3.org/2000/svg" xmlns:xlink="http://www.w3.org/1999/xlink" version="1.1" id="Capa_1" x="0px" y="0px" viewBox="0 0 45.83 45.83" style="enable-background:new 0 0 45.83 45.83;" xml:space="preserve" width="512" height="512">
<g>
	<path id="_Path__599_" style="fill:#F7E5C6;" d="M36.647,10.98c-1.039-1.227-1.347-2.914-0.81-4.43   c0.702-1.629,2.001-2.928,3.63-3.63c0.896-0.506,1.506-1.401,1.65-2.42c0,0,3.3,4.58,1.61,8.47c-1.61,3.69-4,2.82-4,2.82   L36.647,10.98z"/>
	<path id="_Path_2_591_" style="fill:#FFF5E3;" d="M39.467,2.92c-1.597,0.696-2.877,1.961-3.59,3.55   c1.201-0.45,2.529-0.422,3.71,0.08c1.314,0.413,2.399,1.35,3,2.59l0.08-0.17c1.72-3.89-1.55-8.47-1.55-8.47   C40.973,1.519,40.364,2.414,39.467,2.92z"/>
	<path style="fill:#45413C;" d="M39.341,12.369c-0.47,0-0.775-0.105-0.784-0.109l-2.091-0.814c-0.077-0.03-0.146-0.079-0.2-0.143   c-1.149-1.358-1.494-3.244-0.9-4.92c0.769-1.785,2.15-3.167,3.903-3.922c0.709-0.404,1.232-1.171,1.354-2.031   c0.028-0.202,0.177-0.367,0.375-0.416c0.199-0.049,0.406,0.027,0.525,0.193c0.142,0.197,3.446,4.858,1.664,8.962   C41.987,11.916,40.313,12.369,39.341,12.369z M36.951,10.561l1.958,0.763c0.064,0.019,1.974,0.624,3.36-2.554   c1.13-2.603-0.184-5.606-1.002-7.075c-0.335,0.69-0.876,1.276-1.555,1.66c-1.566,0.678-2.763,1.874-3.417,3.392   C35.846,8.021,36.093,9.482,36.951,10.561z"/>
	<path style="fill:#45413C;" d="M38.417,12.06c-0.144,0-0.286-0.062-0.385-0.181c-0.177-0.212-0.146-0.528,0.065-0.704   c1.011-0.836,1.743-1.942,2.121-3.199c0.079-0.264,0.36-0.413,0.622-0.335c0.265,0.08,0.415,0.358,0.335,0.623   c-0.434,1.445-1.277,2.718-2.439,3.681C38.643,12.022,38.529,12.06,38.417,12.06z"/>
	<path style="fill:#45413C;" d="M37.437,11.75c-0.242,0-0.456-0.177-0.493-0.425c-0.202-1.328-0.039-2.685,0.472-3.926   c0.104-0.255,0.397-0.375,0.652-0.272c0.255,0.105,0.377,0.397,0.271,0.653c-0.441,1.072-0.582,2.246-0.407,3.395   c0.042,0.273-0.146,0.528-0.419,0.569C37.487,11.748,37.462,11.75,37.437,11.75z"/>
	
		<ellipse id="_Ellipse__579_" style="opacity:0.15;fill:#45413C;enable-background:new    ;" cx="23.117" cy="44.33" rx="11.5" ry="1.5"/>
	<path id="_Compound_Path__102_" style="fill:#F0D5A8;" d="M20.117,5.44c-9.67,0-17.5,4.72-17.5,13v0.07   c0.045,2.109,1.792,3.782,3.901,3.737c0.647-0.014,1.28-0.192,1.839-0.517l3.12-1.74c0.534-0.29,1.202-0.093,1.492,0.441   c0.186,0.341,0.177,0.755-0.022,1.089l-4.32,7c-1.013,1.62-0.52,3.755,1.1,4.768c0.094,0.059,0.19,0.113,0.29,0.162   c2.686,1.317,5.638,2.001,8.63,2c9.66,0,17.5-6.71,17.5-15S29.807,5.44,20.117,5.44z M17.117,31.94c-1.66,0-3-1-3-2.25   s1.34-2.25,3-2.25s3,1,3,2.25S18.797,31.94,17.117,31.94z"/>
	<path id="_Path_6_534_" style="fill:#F7E5C6;" d="M20.117,8.44c9,0,15.15,5.87,15.91,13.41c0.055-0.468,0.085-0.939,0.09-1.41   c0-8.28-6.34-15-16-15s-17.5,4.72-17.5,13v0.07c0.001,0.356,0.055,0.71,0.16,1.05C3.907,12.45,11.237,8.44,20.117,8.44z"/>
	<path style="fill:#45413C;" d="M18.641,35.95c-3.05,0-6.107-0.709-8.844-2.051c-0.117-0.06-0.228-0.12-0.334-0.188   c-1.852-1.157-2.417-3.605-1.259-5.457l4.319-6.998c0.104-0.174,0.108-0.402,0.007-0.587c-0.076-0.141-0.203-0.243-0.357-0.289   c-0.153-0.045-0.315-0.028-0.456,0.048l-3.115,1.737c-0.624,0.363-1.343,0.565-2.072,0.581c-1.18,0.016-2.248-0.401-3.081-1.2   s-1.306-1.873-1.331-3.027c0-8.155,7.234-13.581,18-13.581c9.578,0,16.53,6.523,16.53,15.51c0,8.547-8.075,15.5-18,15.5   C18.645,35.95,18.643,35.95,18.641,35.95z M12.001,19.356c0.152,0,0.305,0.022,0.455,0.066c0.41,0.121,0.748,0.395,0.952,0.77   c0.269,0.494,0.256,1.101-0.031,1.583l-4.325,7.006c-0.866,1.387-0.444,3.217,0.94,4.082c0.081,0.05,0.164,0.097,0.249,0.14   c2.595,1.272,5.501,1.946,8.399,1.946c0.002,0,0.004,0,0.006,0c9.375,0,17-6.505,17-14.5c0-8.408-6.531-14.51-15.53-14.51   c-8.462,0-17,3.865-17,12.5c0.019,0.946,0.382,1.772,1.022,2.385c0.641,0.614,1.481,0.94,2.368,0.922   c0.561-0.012,1.113-0.167,1.599-0.449l3.127-1.744C11.475,19.422,11.737,19.356,12.001,19.356z M17.117,32.44   c-1.962,0-3.5-1.208-3.5-2.75s1.538-2.75,3.5-2.75s3.5,1.208,3.5,2.75S19.08,32.44,17.117,32.44z M17.117,27.94   c-1.378,0-2.5,0.785-2.5,1.75s1.122,1.75,2.5,1.75s2.5-0.785,2.5-1.75S18.496,27.94,17.117,27.94z"/>
	<ellipse id="_Path_7_513_" style="fill:#FF6242;" cx="27.497" cy="26.19" rx="3.15" ry="2.25"/>
	<ellipse id="_Path_8_486_" style="fill:#FF8A14;" cx="28.897" cy="16.15" rx="2.75" ry="2.29"/>
	<ellipse id="_Path_9_453_" style="fill:#6DD627;" cx="10.347" cy="13.19" rx="2.7" ry="2.25"/>
	<ellipse id="_Path_10_417_" style="fill:#FFE500;" cx="20.067" cy="10.69" rx="2.93" ry="2.25"/>
	<path id="_Path_11_386_" style="fill:#E04122;" d="M27.497,25.31c1.218-0.094,2.383,0.515,3,1.57c0.106-0.215,0.163-0.45,0.17-0.69   c0-1.24-1.41-2.25-3.15-2.25s-3.15,1-3.15,2.25c0.003,0.239,0.058,0.474,0.16,0.69C25.141,25.837,26.29,25.23,27.497,25.31z"/>
	<path id="_Path_12_360_" style="fill:#EB6D00;" d="M28.897,15.23c1.116-0.053,2.151,0.581,2.61,1.6   c0.088-0.216,0.135-0.447,0.14-0.68c-0.122-1.398-1.351-2.435-2.75-2.32c-1.402-0.132-2.646,0.897-2.778,2.299   c-0.001,0.007-0.001,0.014-0.002,0.021c0,0.234,0.048,0.465,0.14,0.68C26.72,15.801,27.77,15.164,28.897,15.23z"/>
	<path id="_Path_13_341_" style="fill:#46B000;" d="M10.347,12.31c1.094-0.049,2.108,0.573,2.56,1.57   c0.087-0.22,0.135-0.454,0.14-0.69c-0.137-1.36-1.337-2.36-2.7-2.25c-1.363-0.11-2.563,0.89-2.7,2.25   c0.001,0.237,0.049,0.471,0.14,0.69C8.237,12.881,9.253,12.258,10.347,12.31z"/>
	<path id="_Path_14_313_" style="fill:#EBCB00;" d="M20.117,9.83c1.155-0.069,2.243,0.545,2.78,1.57   c0.095-0.218,0.146-0.452,0.15-0.69c0-1.24-1.31-2.25-2.93-2.25s-3,0.99-3,2.23c0.004,0.238,0.055,0.472,0.15,0.69   C17.818,10.336,18.942,9.726,20.117,9.83z"/>
	<path style="fill:#45413C;" d="M27.497,28.94c-2.013,0-3.649-1.233-3.649-2.75s1.637-2.75,3.649-2.75s3.65,1.233,3.65,2.75   S29.51,28.94,27.497,28.94z M27.497,24.44c-1.437,0-2.649,0.802-2.649,1.75s1.213,1.75,2.649,1.75s2.65-0.802,2.65-1.75   S28.934,24.44,27.497,24.44z"/>
	<path style="fill:#45413C;" d="M28.897,18.94c-1.792,0-3.25-1.251-3.25-2.79s1.458-2.79,3.25-2.79s3.25,1.251,3.25,2.79   S30.689,18.94,28.897,18.94z M28.897,14.36c-1.24,0-2.25,0.803-2.25,1.79s1.01,1.79,2.25,1.79s2.25-0.803,2.25-1.79   S30.138,14.36,28.897,14.36z"/>
	<path style="fill:#45413C;" d="M10.347,15.94c-1.765,0-3.2-1.233-3.2-2.75s1.436-2.75,3.2-2.75s3.2,1.233,3.2,2.75   S12.112,15.94,10.347,15.94z M10.347,11.44c-1.213,0-2.2,0.785-2.2,1.75s0.987,1.75,2.2,1.75s2.2-0.785,2.2-1.75   S11.561,11.44,10.347,11.44z"/>
	<path style="fill:#45413C;" d="M20.067,13.44c-1.892,0-3.43-1.233-3.43-2.75s1.539-2.75,3.43-2.75c1.891,0,3.43,1.233,3.43,2.75   S21.958,13.44,20.067,13.44z M20.067,8.94c-1.34,0-2.43,0.785-2.43,1.75s1.09,1.75,2.43,1.75s2.43-0.785,2.43-1.75   S21.407,8.94,20.067,8.94z"/>
	<path style="fill:#4ACFFF;" d="M36.457,15.99c-1.085-0.336-2.249,0.192-2.71,1.23l-0.52,1.19c-1.548,3.502-2.763,7.141-3.63,10.87   l-2.91,12.47c-0.248,0.86,0.247,1.758,1.107,2.006c0.82,0.237,1.683-0.203,1.973-1.006l4.73-11.92c1.417-3.559,2.502-7.241,3.24-11   l0.25-1.27C38.212,17.438,37.551,16.327,36.457,15.99z"/>
	<path id="_Path_19_194_" style="fill:#80DDFF;" d="M28.467,42.83l2.91-12.5c0.873-3.731,2.088-7.373,3.63-10.88l0.52-1.18   c0.373-0.85,1.233-1.379,2.16-1.33c-0.28-0.456-0.718-0.794-1.23-0.95c-1.085-0.336-2.249,0.192-2.71,1.23l-0.52,1.19   c-1.548,3.502-2.763,7.141-3.63,10.87l-2.91,12.47c-0.191,0.824,0.284,1.655,1.09,1.91c0.246,0.06,0.504,0.06,0.75,0   C28.432,43.394,28.411,43.107,28.467,42.83z"/>
	<path style="fill:#45413C;" d="M28.242,44.319c-0.194,0-0.392-0.026-0.587-0.083c-0.544-0.157-0.995-0.517-1.269-1.014   c-0.273-0.495-0.337-1.068-0.18-1.611l2.903-12.444c0.871-3.748,2.102-7.435,3.66-10.959l0.519-1.188   c0.565-1.272,1.99-1.917,3.316-1.507c1.345,0.415,2.149,1.767,1.872,3.146l-0.25,1.268c-0.743,3.783-1.842,7.514-3.266,11.089   l-4.729,11.919C29.928,43.779,29.113,44.319,28.242,44.319z M35.794,16.389c-0.672,0-1.305,0.392-1.59,1.034l-0.519,1.187   c-1.533,3.469-2.744,7.096-3.601,10.783l-2.91,12.47c-0.09,0.313-0.057,0.615,0.088,0.877s0.383,0.452,0.67,0.535   c0.563,0.165,1.165-0.142,1.364-0.695l4.735-11.935c1.401-3.518,2.483-7.188,3.215-10.912l0.25-1.271   c0.176-0.875-0.335-1.733-1.188-1.995c0,0,0,0-0.001,0C36.138,16.414,35.965,16.389,35.794,16.389z"/>
	<path id="_Path_20_170_" style="fill:#DAEDF7;" d="M37.637,18.45c0.256,0.089,0.535-0.046,0.624-0.302   c0.014-0.041,0.023-0.085,0.026-0.128c0.066-1.123,0.237-2.238,0.51-3.33c0.246-0.729,0.582-1.424,1-2.07   c0.23-0.35-0.08-0.84-0.63-1l-2.45-0.79c-0.55-0.18-1.08,0.05-1.1,0.47c-0.009,0.774-0.12,1.544-0.33,2.29   c-0.403,1.044-0.901,2.048-1.49,3c-0.138,0.239-0.057,0.545,0.182,0.683c0.034,0.02,0.07,0.035,0.108,0.047L37.637,18.45z"/>
	<path id="_Path_21_154_" style="fill:#E8F4FA;" d="M35.257,17.33c0.59-0.951,1.089-1.955,1.49-3c0.22-0.751,0.344-1.527,0.37-2.31   c0-0.42,0.54-0.64,1.09-0.47l1.65,0.52c-0.143-0.224-0.364-0.388-0.62-0.46l-2.52-0.78c-0.56-0.18-1.08,0.05-1.1,0.47   c-0.009,0.774-0.12,1.544-0.33,2.29c-0.403,1.044-0.901,2.048-1.49,3c-0.138,0.239-0.057,0.545,0.182,0.683   c0.034,0.02,0.07,0.035,0.108,0.047l1.12,0.35C35.184,17.554,35.202,17.434,35.257,17.33z"/>
	<path style="fill:#45413C;" d="M37.797,18.977c-0.105,0-0.212-0.017-0.316-0.053l-3.545-1.128   c-0.067-0.021-0.139-0.051-0.205-0.089c-0.479-0.278-0.642-0.891-0.367-1.367c0.58-0.937,1.067-1.918,1.457-2.93   c0.183-0.657,0.288-1.384,0.297-2.117c0.015-0.329,0.177-0.613,0.444-0.798c0.35-0.242,0.841-0.296,1.311-0.141l2.448,0.789   c0.465,0.135,0.84,0.458,0.987,0.861c0.112,0.305,0.078,0.629-0.093,0.89c-0.393,0.607-0.711,1.267-0.944,1.956   c-0.253,1.016-0.42,2.105-0.484,3.199c-0.006,0.093-0.024,0.181-0.054,0.266C38.591,18.721,38.207,18.977,37.797,18.977z    M37.801,17.978h0.01H37.801z M36.341,11.268c-0.125,0-0.21,0.039-0.228,0.064c-0.007,0.793-0.124,1.607-0.345,2.393   c-0.427,1.114-0.942,2.151-1.547,3.127l3.566,1.121c0.001,0,0.001,0,0.001,0c0.068-1.146,0.244-2.293,0.522-3.406   c0.271-0.806,0.626-1.54,1.065-2.219c-0.007-0.031-0.114-0.181-0.35-0.249l-2.464-0.794C36.48,11.279,36.405,11.268,36.341,11.268z   "/>
</g>















</svg>
