<?xml version="1.0" encoding="iso-8859-1"?>
<!-- Generator: Adobe Illustrator 21.0.0, SVG Export Plug-In . SVG Version: 6.00 Build 0)  -->
<svg xmlns="http://www.w3.org/2000/svg" xmlns:xlink="http://www.w3.org/1999/xlink" version="1.1" id="Capa_1" x="0px" y="0px" viewBox="0 0 45 45" style="enable-background:new 0 0 45 45;" xml:space="preserve" width="512" height="512">
<g>
	<g id="_Group__518_">
		<path id="_Path__609_" style="fill:#FF8A14;" d="M27.5,8.752h-6l1-4.68c0.158-0.521,0.657-0.862,1.2-0.82h1.6    c0.536-0.033,1.024,0.307,1.18,0.82L27.5,8.752z"/>
		<path id="_Path_2_601_" style="fill:#FFAA54;" d="M23.49,5.092h2c0.48-0.019,0.948,0.154,1.3,0.48l-0.33-1.5    c-0.155-0.506-0.632-0.843-1.16-0.82h-1.6c-0.536-0.033-1.024,0.307-1.18,0.82l-0.33,1.5C22.542,5.246,23.01,5.073,23.49,5.092z"/>
		<path style="fill:#45413C;" d="M27.5,9.252h-6c-0.151,0-0.294-0.068-0.389-0.186c-0.095-0.117-0.132-0.271-0.1-0.419l1-4.68    c0.238-0.792,0.932-1.276,1.727-1.214L25.3,2.752c0.764-0.042,1.434,0.438,1.659,1.174l1.029,4.72    c0.032,0.148-0.004,0.302-0.099,0.42C27.795,9.184,27.651,9.252,27.5,9.252z M22.118,8.252h4.761l-0.887-4.073    c-0.079-0.254-0.352-0.44-0.662-0.428L23.7,3.752c-0.36-0.03-0.632,0.167-0.722,0.465L22.118,8.252z"/>
		<path id="_Path_4_593_" style="fill:#00B8F0;" d="M13,20.752l3.44-6.25c1.278-2.322,3.69-3.795,6.34-3.87l11-0.31    c1.559-0.062,2.929,1.027,3.22,2.56l1.5,7.87H13z"/>
		<path id="_Path_5_582_" style="fill:#4ACFFF;" d="M25.32,10.562l-6.51,10.19h9.64l5.68-10.41h-0.31L25.32,10.562z"/>
		
			<ellipse id="_Ellipse__589_" style="opacity:0.15;fill:#45413C;enable-background:new    ;" cx="23" cy="40.752" rx="21" ry="1.5"/>
		<path id="_Rectangle__208_" style="fill:#FFE500;" d="M1.5,31.252h42c0.552,0,1,0.448,1,1v2c0,1.105-0.895,2-2,2h-40    c-1.105,0-2-0.895-2-2v-2C0.5,31.7,0.948,31.252,1.5,31.252z"/>
		<path id="_Path_6_544_" style="fill:#FFF48C;" d="M43.5,31.252h-42c-0.552,0-1,0.448-1,1v2c0-0.552,0.448-1,1-1h42    c0.552,0,1,0.448,1,1v-2C44.5,31.7,44.052,31.252,43.5,31.252z"/>
		<path style="fill:#45413C;" d="M42.5,36.752h-40c-1.378,0-2.5-1.121-2.5-2.5v-2c0-0.827,0.673-1.5,1.5-1.5h42    c0.827,0,1.5,0.673,1.5,1.5v2C45,35.631,43.879,36.752,42.5,36.752z M1.5,31.752c-0.276,0-0.5,0.225-0.5,0.5v2    c0,0.827,0.673,1.5,1.5,1.5h40c0.827,0,1.5-0.673,1.5-1.5v-2c0-0.275-0.225-0.5-0.5-0.5H1.5z"/>
		<path id="_Compound_Path__103_" style="fill:#FFE500;" d="M43.37,22.332l-0.87-2c-0.261-0.58-0.808-0.979-1.44-1.05l-1.38-7.65    c-0.409-2.246-2.398-3.857-4.68-3.79l-13,0.29c-3.382,0.07-6.464,1.953-8.07,4.93l-4,7.5c-0.849,0.199-1.679,0.474-2.48,0.82    l-2.27,1c-1.957,0.855-3.323,2.673-3.6,4.79L1,31.252h43v-5.95C44.001,24.279,43.787,23.267,43.37,22.332z M33.82,10.332    c1.541-0.043,2.887,1.036,3.18,2.55l1.09,5.66c0.077,0.384-0.171,0.759-0.556,0.836c-0.041,0.008-0.082,0.013-0.124,0.014    l-7.75,0.2l0.84-9.23L33.82,10.332z M16.44,14.502c1.278-2.322,3.69-3.795,6.34-3.87l5.21-0.2l-0.84,9.23L15,20.092    c-0.513,0.026-0.95-0.369-0.976-0.882c-0.009-0.174,0.031-0.346,0.116-0.498L16.44,14.502z"/>
		<g id="_Group_2_343_">
			<path id="_Path_7_523_" style="fill:#FFF48C;" d="M43.37,22.332l-0.87-2c-0.261-0.58-0.808-0.979-1.44-1.05l-1.38-7.65     c-0.409-2.246-2.398-3.857-4.68-3.79l-13,0.29c-3.382,0.07-6.464,1.953-8.07,4.93l-4,7.5c-0.849,0.199-1.679,0.474-2.48,0.82     l-2.27,1c-1.957,0.855-3.323,2.673-3.6,4.79L1,31.252h0.36l0.19-1.39c0.279-2.114,1.645-3.928,3.6-4.78l2.27-1     c0.8-0.35,1.63-0.628,2.48-0.83l4-7.5c1.43-2.634,4.03-4.428,7-4.83c0.615-0.181,1.25-0.282,1.89-0.3l5.21-0.2v0.27h2.5v-0.29     h3.32c0.421-0.006,0.839,0.072,1.23,0.23c2.274-0.043,4.241,1.579,4.63,3.82l1.38,7.66c0.621,0.061,1.166,0.44,1.44,1l0.87,2     c0.423,0.943,0.638,1.966,0.63,3v-2.81C44.001,24.279,43.787,23.267,43.37,22.332z"/>
		</g>
		<path style="fill:#45413C;" d="M44,31.752H1c-0.145,0-0.283-0.063-0.377-0.172c-0.095-0.109-0.138-0.255-0.118-0.398l0.58-4.08    c0.298-2.272,1.791-4.259,3.895-5.178l2.269-1c0.759-0.328,1.546-0.595,2.346-0.795l3.895-7.302    c1.689-3.131,4.946-5.121,8.501-5.195l13-0.29c2.582-0.058,4.726,1.692,5.183,4.2l1.319,7.318    c0.644,0.186,1.186,0.647,1.465,1.267l0.872,2.004c0.447,1.003,0.673,2.071,0.672,3.171v5.95C44.5,31.529,44.276,31.752,44,31.752    z M1.576,30.752H43.5v-5.45c0.001-0.961-0.196-1.892-0.587-2.767c0-0.001-0.001-0.003-0.001-0.004l-0.87-2    c-0.186-0.411-0.584-0.702-1.038-0.752c-0.22-0.025-0.397-0.191-0.437-0.408l-1.38-7.65c-0.368-2.017-2.101-3.453-4.173-3.378    l-13.003,0.29c-3.196,0.066-6.124,1.855-7.641,4.667l-3.999,7.498c-0.068,0.127-0.187,0.219-0.327,0.251    c-0.819,0.192-1.625,0.458-2.396,0.792l-2.267,0.999c-1.787,0.78-3.053,2.466-3.306,4.397L1.576,30.752z M14.947,20.594    c-0.75,0-1.384-0.595-1.422-1.358c-0.013-0.268,0.048-0.533,0.178-0.767l2.298-4.207c0,0,0-0.001,0.001-0.001    c1.357-2.466,3.949-4.048,6.764-4.129l5.205-0.199c0.167-0.012,0.284,0.052,0.382,0.155c0.1,0.104,0.148,0.246,0.136,0.39    l-0.84,9.23c-0.022,0.25-0.229,0.445-0.48,0.454l-12.15,0.43C14.994,20.593,14.971,20.594,14.947,20.594z M16.878,14.743    l-2.299,4.208c-0.041,0.073-0.06,0.153-0.055,0.233c0.011,0.238,0.225,0.417,0.451,0.408l11.717-0.415l0.748-8.225l-4.642,0.178    C20.333,11.202,18.065,12.586,16.878,14.743L16.878,14.743z M29.66,20.092c-0.138,0-0.271-0.057-0.365-0.158    c-0.098-0.104-0.146-0.245-0.133-0.387l0.84-9.23c0.023-0.256,0.236-0.452,0.493-0.455l3.316-0.03    c1.799-0.053,3.338,1.194,3.68,2.955l1.09,5.661c0.13,0.65-0.295,1.29-0.948,1.421c-0.069,0.014-0.14,0.021-0.211,0.023    l-7.749,0.2C29.669,20.092,29.664,20.092,29.66,20.092z M30.957,10.858l-0.748,8.22l7.188-0.186    c0.151-0.027,0.225-0.138,0.202-0.251l-1.091-5.664c-0.247-1.279-1.385-2.21-2.675-2.145c-0.003,0-0.006,0-0.009,0L30.957,10.858z     M33.82,10.332h0.01H33.82z"/>
		<circle id="_Path_8_496_" style="fill:#656769;" cx="10.5" cy="35.752" r="5"/>
		<circle id="_Path_9_463_" style="fill:#656769;" cx="35.5" cy="35.752" r="5"/>
		<path id="_Path_10_427_" style="fill:#87898C;" d="M10.5,32.752c2.376,0,4.425,1.672,4.9,4c0.064-0.33,0.097-0.664,0.1-1    c0-2.761-2.239-5-5-5s-5,2.239-5,5c0.003,0.336,0.036,0.67,0.1,1C6.075,34.424,8.124,32.751,10.5,32.752z"/>
		<path id="_Path_11_396_" style="fill:#87898C;" d="M35.5,32.752c2.376,0,4.425,1.672,4.9,4c0.064-0.33,0.097-0.664,0.1-1    c0-2.761-2.239-5-5-5s-5,2.239-5,5c0.003,0.336,0.036,0.67,0.1,1C31.075,34.424,33.124,32.751,35.5,32.752z"/>
		<path style="fill:#45413C;" d="M10.5,41.252c-3.033,0-5.5-2.468-5.5-5.5s2.467-5.5,5.5-5.5s5.5,2.468,5.5,5.5    S13.533,41.252,10.5,41.252z M10.5,31.252c-2.481,0-4.5,2.019-4.5,4.5s2.019,4.5,4.5,4.5s4.5-2.019,4.5-4.5    S12.981,31.252,10.5,31.252z"/>
		<path style="fill:#45413C;" d="M35.5,41.252c-3.032,0-5.5-2.468-5.5-5.5s2.468-5.5,5.5-5.5s5.5,2.468,5.5,5.5    S38.532,41.252,35.5,41.252z M35.5,31.252c-2.481,0-4.5,2.019-4.5,4.5s2.019,4.5,4.5,4.5s4.5-2.019,4.5-4.5    S37.981,31.252,35.5,31.252z"/>
		<circle id="_Path_14_322_" style="fill:#C0DCEB;" cx="10.5" cy="35.752" r="2"/>
		<circle id="_Path_15_302_" style="fill:#C0DCEB;" cx="35.5" cy="35.752" r="2"/>
		<path id="_Path_16_289_" style="fill:#ADC4D9;" d="M10.5,35.252c0.813,0.002,1.545,0.496,1.85,1.25    c0.101-0.237,0.152-0.492,0.15-0.75c0-1.105-0.895-2-2-2s-2,0.895-2,2c-0.002,0.258,0.049,0.513,0.15,0.75    C8.955,35.748,9.687,35.254,10.5,35.252z"/>
		<path id="_Path_17_257_" style="fill:#ADC4D9;" d="M35.5,35.252c0.813,0.002,1.545,0.496,1.85,1.25    c0.101-0.237,0.152-0.492,0.15-0.75c0-1.105-0.895-2-2-2s-2,0.895-2,2c-0.002,0.258,0.049,0.513,0.15,0.75    C33.955,35.748,34.687,35.254,35.5,35.252z"/>
		<path style="fill:#45413C;" d="M10.5,38.252c-1.378,0-2.5-1.121-2.5-2.5s1.122-2.5,2.5-2.5s2.5,1.121,2.5,2.5    S11.878,38.252,10.5,38.252z M10.5,34.252c-0.827,0-1.5,0.673-1.5,1.5s0.673,1.5,1.5,1.5s1.5-0.673,1.5-1.5    S11.327,34.252,10.5,34.252z"/>
		<path style="fill:#45413C;" d="M35.5,38.252c-1.379,0-2.5-1.121-2.5-2.5s1.121-2.5,2.5-2.5s2.5,1.121,2.5,2.5    S36.879,38.252,35.5,38.252z M35.5,34.252c-0.827,0-1.5,0.673-1.5,1.5s0.673,1.5,1.5,1.5s1.5-0.673,1.5-1.5    S36.327,34.252,35.5,34.252z"/>
		<path id="_Path_20_177_" style="fill:#FFE500;" d="M15.56,23.002c-1.65,0-3-0.56-3-2s1.35-2,3-2V23.002z"/>
		<path id="_Path_21_161_" style="fill:#FFF48C;" d="M12.56,21.002c0.001,0.241,0.052,0.479,0.15,0.7c0.37-0.92,1.5-1.31,2.85-1.31    v-1.39C13.91,19.002,12.56,19.562,12.56,21.002z"/>
		<path style="fill:#45413C;" d="M15.56,23.502c-2.191,0-3.5-0.935-3.5-2.5c0-1.565,1.309-2.5,3.5-2.5c0.276,0,0.5,0.224,0.5,0.5v4    C16.06,23.279,15.836,23.502,15.56,23.502z M15.06,19.521c-0.905,0.074-2,0.389-2,1.48c0,1.092,1.095,1.407,2,1.481V19.521z"/>
		<path id="_Path_23_130_" style="fill:#FF8A14;" d="M3.63,25.702c-0.49,1-0.38,2.05,0.24,2.35s1.52-0.26,2-1.25    s0.38-2.05-0.24-2.35S4.11,24.712,3.63,25.702z"/>
		<path id="_Path_24_118_" style="fill:#FFAA54;" d="M3.63,27.182c0.48-1,1.38-1.55,2-1.25c0.187,0.1,0.332,0.263,0.41,0.46    c0.27-0.86,0.12-1.68-0.41-1.94s-1.52,0.26-2,1.25c-0.32,0.578-0.382,1.264-0.17,1.89C3.51,27.462,3.56,27.322,3.63,27.182z"/>
		<path style="fill:#45413C;" d="M4.234,28.633c-0.201,0-0.397-0.042-0.582-0.131c-0.333-0.161-0.58-0.453-0.715-0.845    c-0.213-0.616-0.122-1.429,0.243-2.175c0.61-1.258,1.779-1.912,2.667-1.481c0.879,0.427,1.086,1.752,0.472,3.019    C5.836,28.018,5,28.633,4.234,28.633z M5.264,24.871c-0.34,0-0.867,0.396-1.185,1.049c0,0.001,0,0.002,0,0.002    c-0.295,0.604-0.295,1.124-0.197,1.41c0.047,0.137,0.116,0.228,0.206,0.271c0.312,0.154,0.964-0.259,1.333-1.018    c0.371-0.766,0.3-1.533-0.009-1.683C5.368,24.88,5.318,24.871,5.264,24.871z M3.63,25.702h0.01H3.63z"/>
		<path id="_Path_26_99_" style="fill:#FF8A14;" d="M43,25.252h1c-0.007-1.006-0.222-2-0.63-2.92l-0.48-1.08H41.5    c-0.387,0.004-0.697,0.321-0.692,0.708c0.001,0.079,0.015,0.158,0.042,0.232l0.81,2.15C41.866,24.901,42.404,25.267,43,25.252z"/>
		<path id="_Path_27_84_" style="fill:#FFAA54;" d="M42,22.522h1.46c-0.019-0.065-0.042-0.128-0.07-0.19l-0.5-1.08H41.5    c-0.387,0.004-0.697,0.321-0.692,0.708c0.001,0.079,0.015,0.158,0.042,0.232l0.29,0.77C41.322,22.666,41.654,22.497,42,22.522z"/>
		<path style="fill:#45413C;" d="M42.965,25.752c-0.791,0-1.5-0.492-1.774-1.238l-0.809-2.146c-0.049-0.137-0.072-0.269-0.074-0.402    c-0.007-0.663,0.525-1.207,1.187-1.214h1.396c0.197,0,0.377,0.116,0.457,0.297l0.48,1.08c0.438,0.987,0.664,2.037,0.673,3.12    c0.001,0.134-0.051,0.262-0.146,0.356C44.261,25.7,44.133,25.752,44,25.752h-0.994C42.992,25.752,42.979,25.752,42.965,25.752z     M41.5,21.752c-0.104,0.001-0.193,0.092-0.192,0.203l0.82,2.211c0.133,0.362,0.494,0.595,0.859,0.587c0.005,0,0.009,0,0.013,0    h0.478c-0.062-0.767-0.251-1.511-0.564-2.217l-0.349-0.783H41.5z"/>
		<g>
			<rect id="_Rectangle_3_169_" x="13" y="23.752" style="fill:#45413C;" width="2" height="2"/>
			<path style="fill:#45413C;" d="M15,26.252h-2c-0.276,0-0.5-0.224-0.5-0.5v-2c0-0.276,0.224-0.5,0.5-0.5h2     c0.276,0,0.5,0.224,0.5,0.5v2C15.5,26.029,15.276,26.252,15,26.252z M13.5,25.252h1v-1h-1V25.252z"/>
		</g>
		<g>
			<rect id="_Rectangle_4_151_" x="18" y="23.752" style="fill:#45413C;" width="2" height="2"/>
			<path style="fill:#45413C;" d="M20,26.252h-2c-0.276,0-0.5-0.224-0.5-0.5v-2c0-0.276,0.224-0.5,0.5-0.5h2     c0.276,0,0.5,0.224,0.5,0.5v2C20.5,26.029,20.276,26.252,20,26.252z M18.5,25.252h1v-1h-1V25.252z"/>
		</g>
		<g>
			<rect id="_Rectangle_5_120_" x="23" y="23.752" style="fill:#45413C;" width="2" height="2"/>
			<path style="fill:#45413C;" d="M25,26.252h-2c-0.276,0-0.5-0.224-0.5-0.5v-2c0-0.276,0.224-0.5,0.5-0.5h2     c0.276,0,0.5,0.224,0.5,0.5v2C25.5,26.029,25.276,26.252,25,26.252z M23.5,25.252h1v-1h-1V25.252z"/>
		</g>
		<g>
			<rect id="_Rectangle_6_112_" x="28" y="23.752" style="fill:#45413C;" width="2" height="2"/>
			<path style="fill:#45413C;" d="M30,26.252h-2c-0.276,0-0.5-0.224-0.5-0.5v-2c0-0.276,0.224-0.5,0.5-0.5h2     c0.276,0,0.5,0.224,0.5,0.5v2C30.5,26.029,30.276,26.252,30,26.252z M28.5,25.252h1v-1h-1V25.252z"/>
		</g>
		<g>
			<rect id="_Rectangle_7_107_" x="33" y="23.752" style="fill:#45413C;" width="2" height="2"/>
			<path style="fill:#45413C;" d="M35,26.252h-2c-0.276,0-0.5-0.224-0.5-0.5v-2c0-0.276,0.224-0.5,0.5-0.5h2     c0.276,0,0.5,0.224,0.5,0.5v2C35.5,26.029,35.276,26.252,35,26.252z M33.5,25.252h1v-1h-1V25.252z"/>
		</g>
		<g>
			<rect id="_Rectangle_8_103_" x="15.5" y="26.252" style="fill:#45413C;" width="2" height="2"/>
			<path style="fill:#45413C;" d="M17.5,28.752h-2c-0.276,0-0.5-0.224-0.5-0.5v-2c0-0.276,0.224-0.5,0.5-0.5h2     c0.276,0,0.5,0.224,0.5,0.5v2C18,28.529,17.776,28.752,17.5,28.752z M16,27.752h1v-1h-1V27.752z"/>
		</g>
		<g>
			<rect id="_Rectangle_9_89_" x="20.5" y="26.252" style="fill:#45413C;" width="2" height="2"/>
			<path style="fill:#45413C;" d="M22.5,28.752h-2c-0.276,0-0.5-0.224-0.5-0.5v-2c0-0.276,0.224-0.5,0.5-0.5h2     c0.276,0,0.5,0.224,0.5,0.5v2C23,28.529,22.776,28.752,22.5,28.752z M21,27.752h1v-1h-1V27.752z"/>
		</g>
		<g>
			<rect id="_Rectangle_10_76_" x="25.5" y="26.252" style="fill:#45413C;" width="2" height="2"/>
			<path style="fill:#45413C;" d="M27.5,28.752h-2c-0.276,0-0.5-0.224-0.5-0.5v-2c0-0.276,0.224-0.5,0.5-0.5h2     c0.276,0,0.5,0.224,0.5,0.5v2C28,28.529,27.776,28.752,27.5,28.752z M26,27.752h1v-1h-1V27.752z"/>
		</g>
		<g>
			<rect id="_Rectangle_11_64_" x="30.5" y="26.252" style="fill:#45413C;" width="2" height="2"/>
			<path style="fill:#45413C;" d="M32.5,28.752h-2c-0.276,0-0.5-0.224-0.5-0.5v-2c0-0.276,0.224-0.5,0.5-0.5h2     c0.276,0,0.5,0.224,0.5,0.5v2C33,28.529,32.776,28.752,32.5,28.752z M31,27.752h1v-1h-1V27.752z"/>
		</g>
		<g>
			<rect id="_Rectangle_12_60_" x="35.5" y="26.252" style="fill:#45413C;" width="2" height="2"/>
			<path style="fill:#45413C;" d="M37.5,28.752h-2c-0.276,0-0.5-0.224-0.5-0.5v-2c0-0.276,0.224-0.5,0.5-0.5h2     c0.276,0,0.5,0.224,0.5,0.5v2C38,28.529,37.776,28.752,37.5,28.752z M36,27.752h1v-1h-1V27.752z"/>
		</g>
	</g>
</g>















</svg>
