<?xml version="1.0" encoding="iso-8859-1"?>
<!-- Generator: Adobe Illustrator 21.0.0, SVG Export Plug-In . SVG Version: 6.00 Build 0)  -->
<svg xmlns="http://www.w3.org/2000/svg" xmlns:xlink="http://www.w3.org/1999/xlink" version="1.1" id="Capa_1" x="0px" y="0px" viewBox="0 0 44.937 44.937" style="enable-background:new 0 0 44.937 44.937;" xml:space="preserve" width="512" height="512">
<g>
	<g id="_Group__480_">
		
			<ellipse id="_Ellipse__550_" style="opacity:0.15;fill:#45413C;enable-background:new    ;" cx="22.447" cy="42.977" rx="15.02" ry="1.96"/>
		<path id="_Path__563_" style="fill:#F0D5A8;" d="M32.076,41.247c-6.206,2.25-13.004,2.25-19.21,0c-0.924-0.302-1.661-1.009-2-1.92    l-1.89-6.84c-1.441-4.188-1.635-8.704-0.56-13l1-2h26.11l1,2c1.069,4.297,0.874,8.811-0.56,13l-1.92,6.84    C33.715,40.232,32.99,40.939,32.076,41.247z"/>
		<path id="_Path_2_555_" style="fill:#DEBB7E;" d="M36.716,20.497c-0.07-0.35-0.13-0.7-0.22-1l-1-2H9.447l-1,2    c-0.09,0.35-0.16,0.7-0.23,1.06c2.46,2.03,6.89,3.28,14.23,3.28S34.286,22.577,36.716,20.497z"/>
		<path style="fill:#45413C;" d="M22.471,43.431c-3.312,0-6.624-0.571-9.775-1.715c-1.06-0.346-1.903-1.155-2.298-2.215L8.494,32.62    c-1.467-4.261-1.665-8.854-0.562-13.255c0.009-0.035,0.021-0.069,0.038-0.102l1-2c0.085-0.169,0.258-0.276,0.447-0.276h26.11    c0.189,0,0.362,0.107,0.447,0.276l1,2c0.017,0.033,0.029,0.067,0.038,0.103c1.094,4.4,0.896,8.994-0.573,13.283l-1.911,6.813    c-0.396,1.088-1.225,1.897-2.286,2.257C29.091,42.86,25.781,43.431,22.471,43.431z M8.888,19.661    c-1.04,4.196-0.846,8.574,0.561,12.663l1.899,6.87c0.274,0.731,0.889,1.321,1.673,1.577c6.1,2.213,12.802,2.211,18.884,0.006    c0.004-0.002,0.008-0.003,0.011-0.004c0.774-0.262,1.38-0.852,1.66-1.618l1.908-6.803c1.408-4.116,1.603-8.494,0.57-12.692    l-0.837-1.674H9.726L8.888,19.661z"/>
		<path id="_Path_4_547_" style="fill:#F0D5A8;" d="M22.447,20.737c11.26,0,14.15-2.89,13.66-6.83c-0.37-2.92-5-5.57-13.66-5.57    s-13.32,2.65-13.68,5.6C8.277,17.847,11.217,20.737,22.447,20.737z"/>
		<path id="_Path_5_536_" style="fill:#F7E5C6;" d="M22.447,10.717c8.24,0,12.84,2.41,13.57,5.16c0.15-0.656,0.18-1.333,0.09-2    c-0.37-2.92-5-5.57-13.66-5.57s-13.32,2.68-13.68,5.63c-0.097,0.666-0.066,1.345,0.09,2C9.597,13.117,14.247,10.717,22.447,10.717    z"/>
		<path style="fill:#45413C;" d="M22.447,21.237c-6.846,0-11.109-1.061-13.036-3.244c-0.962-1.09-1.346-2.476-1.14-4.118    c0.448-3.667,6.013-6.038,14.176-6.038c9.887,0,13.805,3.236,14.156,6.007c0.207,1.667-0.178,3.067-1.146,4.162    C33.537,20.18,29.281,21.237,22.447,21.237z M22.447,8.837c-8.625,0-12.88,2.675-13.184,5.161    c-0.171,1.366,0.123,2.456,0.898,3.334c1.702,1.928,5.835,2.905,12.286,2.905c6.44,0,10.566-0.973,12.261-2.892    c0.78-0.883,1.076-1.988,0.903-3.376C35.297,11.497,31.044,8.837,22.447,8.837z"/>
		<ellipse id="_Path_7_477_" style="fill:#FFE500;" cx="22.477" cy="14.067" rx="10.45" ry="3.12"/>
		<ellipse id="_Path_8_452_" style="fill:#EBCB00;" cx="22.477" cy="15.497" rx="9.29" ry="1.7"/>
		<path style="fill:#45413C;" d="M22.476,17.687c-5.441,0-10.95-1.244-10.95-3.62s5.508-3.62,10.95-3.62    c5.442,0,10.951,1.243,10.951,3.62S27.918,17.687,22.476,17.687z M22.476,11.447c-6.165,0-9.95,1.526-9.95,2.62    c0,1.094,3.785,2.62,9.95,2.62c6.166,0,9.951-1.526,9.951-2.62C32.427,12.973,28.642,11.447,22.476,11.447z"/>
		<g>
			<path id="_Path_10_390_" style="fill:#FF8A14;" d="M35.016,35.727l0.89-3.24c0.392-1.151,0.693-2.332,0.9-3.53     c-2.14,1.3-6.36,2.88-14.36,2.88s-12.23-1.61-14.36-2.9c0.205,1.212,0.506,2.406,0.9,3.57l0.89,3.22     c4.046,1.416,8.314,2.094,12.6,2C26.742,37.815,30.99,37.137,35.016,35.727z"/>
			<path style="fill:#45413C;" d="M21.667,38.235c-4.069,0-8.093-0.685-11.955-2.037c-0.155-0.054-0.273-0.181-0.317-0.339     l-0.89-3.22c-0.393-1.159-0.702-2.386-0.911-3.619c-0.033-0.192,0.05-0.387,0.212-0.496c0.162-0.11,0.373-0.114,0.54-0.015     c2.131,1.29,6.307,2.827,14.101,2.827c7.833,0,11.992-1.526,14.101-2.808c0.169-0.1,0.38-0.095,0.541,0.015     c0.162,0.11,0.245,0.305,0.212,0.498c-0.212,1.223-0.521,2.437-0.92,3.606l-0.881,3.211c-0.044,0.158-0.162,0.285-0.317,0.339     c-4.098,1.437-8.376,2.114-12.716,2.028C22.199,38.232,21.933,38.235,21.667,38.235z M10.288,35.34     c3.926,1.343,8.007,1.976,12.177,1.887c4.141,0.079,8.228-0.548,12.139-1.887l0.819-2.985c0.275-0.81,0.504-1.625,0.686-2.445     c-2.43,1.206-6.628,2.428-13.663,2.428c-7.012,0-11.222-1.234-13.667-2.45c0.181,0.832,0.409,1.655,0.681,2.46L10.288,35.34z      M35.017,35.726h0.01H35.017z"/>
		</g>
		<path id="_Path_11_361_" style="fill:#FFF5E3;" d="M31.507,0.557c-1.41-0.298-2.795,0.603-3.094,2.013    c-0.192,0.91,0.114,1.853,0.804,2.477l-2.53,11.89c0.932-0.12,1.855-0.307,2.76-0.56l2.32-10.79    c1.36-0.479,2.073-1.97,1.594-3.329c-0.294-0.836-0.993-1.465-1.854-1.671V0.557z"/>
		<path id="_Path_12_336_" style="fill:#F7E5C6;" d="M29.167,13.067c-0.576,0.301-1.183,0.539-1.81,0.71l-0.67,3.16    c0.932-0.12,1.855-0.307,2.76-0.56l0.83-3.89L29.167,13.067z"/>
		<path style="fill:#45413C;" d="M26.687,17.437c-0.139,0-0.272-0.058-0.368-0.161c-0.109-0.119-0.154-0.284-0.121-0.443    L28.67,5.208c-0.669-0.734-0.954-1.759-0.746-2.742c0.172-0.813,0.649-1.51,1.346-1.963c0.697-0.454,1.53-0.606,2.34-0.436    c0.066,0.014,0.127,0.041,0.181,0.078c0.953,0.284,1.709,1.001,2.042,1.946c0.276,0.783,0.23,1.627-0.128,2.377    C33.387,5.13,32.86,5.648,32.2,5.95l-2.265,10.531c-0.039,0.182-0.176,0.327-0.354,0.376c-0.928,0.259-1.88,0.453-2.831,0.575    C26.729,17.435,26.708,17.437,26.687,17.437z M30.962,1c-0.404,0-0.8,0.117-1.146,0.342c-0.473,0.307-0.797,0.78-0.913,1.332    c-0.155,0.733,0.094,1.5,0.648,2.002c0.133,0.12,0.191,0.301,0.154,0.475l-2.38,11.187c0.569-0.095,1.138-0.217,1.696-0.363    l2.256-10.492c0.037-0.17,0.159-0.309,0.323-0.367c0.531-0.187,0.958-0.57,1.201-1.079c0.244-0.508,0.274-1.081,0.087-1.612    C32.651,1.745,32.09,1.24,31.39,1.073c-0.048-0.011-0.092-0.029-0.133-0.053C31.158,1.007,31.06,1,30.962,1z"/>
		<path id="_Path_14_293_" style="fill:#FFE500;" d="M15.597,15.037c-2.14-0.48-3.22,0-3.91,2s0.45,3.54,0.34,5.7    c-0.11,2.38,2.26,2.87,3.27,1.31c0.49-0.76,0-2.61,1.3-2.61c2.21,0,0.17,7.18,3.27,7.18s2.92-2.77,2.92-5.05    c0.017-2.206,0.238-4.405,0.66-6.57C23.887,15.157,20.127,16.057,15.597,15.037z"/>
		<g id="_Group_2_319_">
			<path id="_Path_15_275_" style="fill:#FFF48C;" d="M11.727,19.607c0.82-2,2.09-2.44,4.63-2c2.267,0.369,4.555,0.596,6.85,0.68     c0.08-0.55,0.16-1,0.24-1.33c0.44-1.84-3.32-0.94-7.84-2c-2.15-0.48-3.23,0-3.92,2c-0.278,0.933-0.278,1.927,0,2.86     C11.693,19.746,11.707,19.675,11.727,19.607z"/>
		</g>
		<path style="fill:#45413C;" d="M19.866,29.117c-2.142,0-2.343-2.497-2.504-4.504c-0.101-1.254-0.215-2.676-0.766-2.676    c-0.311,0-0.412,0.134-0.528,1.079c-0.057,0.46-0.115,0.936-0.351,1.302c-0.6,0.927-1.656,1.344-2.63,1.027    c-0.801-0.257-1.631-1.082-1.56-2.631c0.042-0.838-0.122-1.597-0.281-2.332c-0.236-1.087-0.479-2.211-0.032-3.508    c0.759-2.196,2.062-2.87,4.492-2.325h0c1.692,0.381,3.296,0.49,4.585,0.577c1.782,0.121,2.959,0.2,3.465,0.889    c0.22,0.299,0.279,0.668,0.176,1.098c-0.411,2.11-0.63,4.29-0.646,6.458l0.001,0.351c0.006,1.549,0.013,3.303-1.026,4.347    C21.7,28.832,20.895,29.117,19.866,29.117z M16.596,20.937c1.473,0,1.62,1.829,1.762,3.596c0.169,2.099,0.376,3.584,1.508,3.584    c0.763,0,1.315-0.182,1.687-0.555c0.746-0.749,0.74-2.283,0.734-3.636l-0.001-0.359c0.017-2.234,0.242-4.475,0.669-6.666    c0.036-0.151,0.033-0.243-0.005-0.293c-0.231-0.315-1.5-0.401-2.727-0.484c-1.323-0.09-2.97-0.201-4.737-0.599l0,0    c-1.93-0.434-2.741-0.026-3.328,1.675c-0.356,1.032-0.161,1.93,0.064,2.97c0.173,0.798,0.353,1.624,0.303,2.593    c-0.039,0.834,0.285,1.444,0.866,1.63c0.448,0.146,1.08,0.008,1.484-0.617c0.112-0.174,0.156-0.533,0.199-0.882    C15.166,22.162,15.317,20.937,16.596,20.937z"/>
	</g>
</g>















</svg>
