<?xml version="1.0" encoding="iso-8859-1"?>
<!-- Generator: Adobe Illustrator 21.0.0, SVG Export Plug-In . SVG Version: 6.00 Build 0)  -->
<svg xmlns="http://www.w3.org/2000/svg" xmlns:xlink="http://www.w3.org/1999/xlink" version="1.1" id="Capa_1" x="0px" y="0px" viewBox="0 0 44.12 44.12" style="enable-background:new 0 0 44.12 44.12;" xml:space="preserve" width="512" height="512">
<g>
	<g id="_Group__472_">
		
			<ellipse id="_Ellipse__540_" style="opacity:0.15;fill:#45413C;enable-background:new    ;" cx="22.06" cy="42.53" rx="15.34" ry="1.59"/>
		<path id="_Compound_Path__99_" style="fill:#FFFACF;" d="M22.06,0.5C10.672,0.5,1.44,9.732,1.44,21.12s9.232,20.62,20.62,20.62    s20.62-9.232,20.62-20.62c0,0,0,0,0,0C42.68,9.732,33.448,0.5,22.06,0.5z M22.06,29.05c-4.38,0-7.93-3.55-7.93-7.93    s3.55-7.93,7.93-7.93s7.93,3.55,7.93,7.93S26.44,29.05,22.06,29.05L22.06,29.05z"/>
		<g id="_Group_2_313_">
			<path id="_Path__553_" style="fill:#FFFCE5;" d="M22.06,3.67c10.757-0.001,19.704,8.275,20.54,19c0.05-0.53,0.08-1.05,0.08-1.59     C42.669,9.692,33.428,0.469,22.04,0.48S1.429,9.732,1.44,21.12c0,0.54,0,1.06,0.08,1.59C2.336,11.969,11.288,3.67,22.06,3.67z"/>
		</g>
		<path style="fill:#45413C;" d="M22.06,42.24c-11.646,0-21.12-9.475-21.12-21.12S10.414,0,22.06,0s21.12,9.475,21.12,21.12    S33.706,42.24,22.06,42.24z M22.06,1C10.966,1,1.94,10.026,1.94,21.12c0,11.095,9.026,20.12,20.12,20.12    c11.095,0,20.12-9.025,20.12-20.12C42.18,10.026,33.155,1,22.06,1z M22.06,29.55c-4.648,0-8.43-3.781-8.43-8.43    s3.782-8.43,8.43-8.43s8.43,3.782,8.43,8.43S26.708,29.55,22.06,29.55z M22.06,13.69c-4.097,0-7.43,3.333-7.43,7.43    c0,4.097,3.333,7.43,7.43,7.43c4.097,0,7.43-3.333,7.43-7.43C29.49,17.023,26.157,13.69,22.06,13.69z"/>
		<path id="_Compound_Path_3_5_" style="fill:#FF87AF;" d="M39.71,19.25c0.964-1.88,0.346-4.185-1.43-5.33l0,0    c-1.108-0.722-1.803-1.93-1.87-3.25c-0.11-2.107-1.793-3.79-3.9-3.9c-1.32-0.067-2.528-0.762-3.25-1.87l0,0    c-1.145-1.776-3.45-2.394-5.33-1.43c-1.174,0.6-2.566,0.6-3.74,0c-1.88-0.964-4.185-0.346-5.33,1.43l0,0    c-0.722,1.108-1.93,1.803-3.25,1.87c-2.107,0.11-3.79,1.793-3.9,3.9c-0.067,1.32-0.762,2.528-1.87,3.25l0,0    c-1.776,1.145-2.394,3.45-1.43,5.33c0.6,1.174,0.6,2.566,0,3.74c-0.964,1.88-0.346,4.185,1.43,5.33l0,0    c1.108,0.722,1.803,1.93,1.87,3.25c0.11,2.107,1.793,3.79,3.9,3.9c1.32,0.067,2.528,0.762,3.25,1.87l0,0    c1.145,1.776,3.45,2.394,5.33,1.43c1.174-0.6,2.566-0.6,3.74,0c1.88,0.964,4.185,0.346,5.33-1.43l0,0    c0.722-1.108,1.93-1.803,3.25-1.87c2.107-0.11,3.79-1.793,3.9-3.9c0.067-1.32,0.762-2.528,1.87-3.25l0,0    c1.776-1.145,2.394-3.45,1.43-5.33C39.11,21.816,39.11,20.424,39.71,19.25z M22.06,29.05c-4.38,0-7.93-3.55-7.93-7.93    s3.55-7.93,7.93-7.93s7.93,3.55,7.93,7.93S26.44,29.05,22.06,29.05L22.06,29.05z"/>
		<path style="fill:#45413C;" d="M10.43,20.56c-0.075,0-0.151-0.017-0.223-0.053l-2.12-1.06c-0.247-0.124-0.347-0.424-0.224-0.671    c0.124-0.247,0.424-0.346,0.671-0.224l2.12,1.06c0.247,0.124,0.347,0.424,0.224,0.671C10.789,20.459,10.613,20.56,10.43,20.56z"/>
		<path style="fill:#45413C;" d="M10.949,30.08c-0.075,0-0.152-0.017-0.224-0.053c-0.247-0.124-0.346-0.425-0.222-0.672l1.06-2.11    c0.124-0.246,0.423-0.348,0.671-0.223c0.247,0.124,0.346,0.425,0.222,0.672l-1.06,2.11C11.309,29.979,11.132,30.08,10.949,30.08z"/>
		<path style="fill:#45413C;" d="M34.749,24.26c-0.209,0-0.404-0.132-0.474-0.341l-0.529-1.58c-0.088-0.262,0.053-0.545,0.314-0.633    s0.546,0.054,0.633,0.315l0.529,1.58c0.088,0.262-0.053,0.546-0.314,0.633C34.856,24.252,34.802,24.26,34.749,24.26z"/>
		<path style="fill:#45413C;" d="M33.69,17.39c-0.128,0-0.256-0.049-0.354-0.146c-0.195-0.195-0.195-0.512,0-0.707l1.06-1.06    c0.195-0.195,0.512-0.195,0.707,0s0.195,0.512,0,0.707l-1.06,1.06C33.946,17.341,33.818,17.39,33.69,17.39z"/>
		<g id="_Group_3_251_">
			<path id="_Path_6_488_" style="fill:#FFB0CA;" d="M22.06,32.88c4.38,0,7.93-3.55,7.93-7.93l0,0c0-0.647-0.077-1.291-0.23-1.92     c-1.047,4.253-5.343,6.851-9.596,5.804c-2.863-0.705-5.099-2.941-5.804-5.804c-0.153,0.629-0.23,1.273-0.23,1.92     C14.13,29.33,17.68,32.88,22.06,32.88z"/>
			<path id="_Path_7_467_" style="fill:#FFB0CA;" d="M4.43,19.28c0.331-0.625,0.816-1.156,1.41-1.54     c1.108-0.716,1.804-1.922,1.87-3.24c0.105-2.109,1.791-3.795,3.9-3.9c1.322-0.071,2.529-0.77,3.25-1.88     c1.148-1.772,3.449-2.389,5.33-1.43c1.172,0.61,2.568,0.61,3.74,0c1.881-0.959,4.182-0.342,5.33,1.43     c0.721,1.11,1.928,1.809,3.25,1.88c2.109,0.105,3.795,1.791,3.9,3.9c0.066,1.318,0.762,2.524,1.87,3.24     c0.594,0.384,1.079,0.915,1.41,1.54l0,0c0.964-1.88,0.346-4.185-1.43-5.33c-1.108-0.722-1.803-1.93-1.87-3.25     c-0.11-2.107-1.793-3.79-3.9-3.9c-1.319-0.08-2.519-0.787-3.23-1.9c-1.145-1.776-3.45-2.394-5.33-1.43     c-1.174,0.6-2.566,0.6-3.74,0c-1.88-0.964-4.185-0.346-5.33,1.43c-0.722,1.108-1.93,1.803-3.25,1.87     c-2.107,0.11-3.79,1.793-3.9,3.9c-0.067,1.32-0.762,2.528-1.87,3.25c-1.776,1.145-2.394,3.45-1.43,5.33L4.43,19.28z"/>
		</g>
		<path style="fill:#45413C;" d="M18.308,39.728c-1.519,0-2.99-0.754-3.868-2.117c-0.631-0.968-1.699-1.582-2.855-1.642    c-2.37-0.123-4.25-2.003-4.374-4.372c-0.059-1.157-0.673-2.226-1.644-2.857c-1.999-1.289-2.688-3.859-1.602-5.978    c0.525-1.028,0.525-2.256,0-3.284C2.878,17.36,3.568,14.79,5.569,13.5c0.968-0.631,1.583-1.699,1.642-2.855    c0.124-2.37,2.004-4.25,4.374-4.374c1.157-0.059,2.225-0.673,2.857-1.644c1.289-1.999,3.859-2.689,5.977-1.602    c1.028,0.526,2.256,0.524,3.285,0c2.117-1.088,4.688-0.397,5.978,1.604c0.631,0.968,1.699,1.583,2.855,1.642    c2.37,0.124,4.25,2.004,4.373,4.374c0.06,1.157,0.674,2.225,1.645,2.857c1.999,1.289,2.688,3.859,1.602,5.978    c-0.525,1.028-0.525,2.256,0,3.284c1.087,2.117,0.397,4.688-1.604,5.978c-0.968,0.631-1.582,1.699-1.642,2.855    c-0.123,2.37-2.003,4.25-4.372,4.373c-1.157,0.06-2.226,0.674-2.857,1.645c-1.29,1.998-3.858,2.688-5.978,1.602    c-1.027-0.525-2.256-0.525-3.284,0C19.741,39.562,19.019,39.728,18.308,39.728z M18.309,3.514c-1.189,0-2.341,0.591-3.029,1.657    c-0.808,1.239-2.17,2.023-3.645,2.099c-1.856,0.097-3.329,1.57-3.426,3.426c-0.075,1.475-0.859,2.836-2.097,3.643    c-1.569,1.012-2.109,3.024-1.258,4.683c0.671,1.313,0.671,2.882,0,4.196C4.004,24.877,4.544,26.89,6.111,27.9    c1.239,0.808,2.023,2.17,2.099,3.645c0.097,1.856,1.57,3.329,3.426,3.426c1.475,0.075,2.836,0.858,3.643,2.096    c1.011,1.569,3.026,2.112,4.683,1.258c1.314-0.67,2.882-0.67,4.196,0c1.658,0.852,3.671,0.312,4.683-1.255    c0.808-1.24,2.17-2.023,3.645-2.099c1.856-0.097,3.329-1.569,3.426-3.427c0.075-1.474,0.858-2.836,2.096-3.643    c1.569-1.012,2.109-3.024,1.258-4.683c-0.671-1.315-0.671-2.883,0-4.196c0,0,0,0,0-0.001c0.852-1.659,0.312-3.671-1.255-4.681    c-1.24-0.808-2.023-2.17-2.099-3.645c-0.097-1.856-1.569-3.329-3.427-3.426c-1.474-0.075-2.836-0.859-3.643-2.097    c-1.011-1.568-3.021-2.109-4.683-1.258c-1.314,0.671-2.883,0.671-4.196,0C19.433,3.644,18.867,3.514,18.309,3.514z M22.06,29.55    c-4.648,0-8.43-3.781-8.43-8.43s3.782-8.43,8.43-8.43s8.43,3.782,8.43,8.43S26.708,29.55,22.06,29.55z M22.06,13.69    c-4.097,0-7.43,3.333-7.43,7.43c0,4.097,3.333,7.43,7.43,7.43c4.097,0,7.43-3.333,7.43-7.43    C29.49,17.023,26.157,13.69,22.06,13.69z"/>
		<g>
			<circle id="_Path_8_445_" style="fill:#FFE500;" cx="29.99" cy="10.54" r="1.59"/>
			<path style="fill:#45413C;" d="M29.99,12.63c-1.152,0-2.09-0.938-2.09-2.09s0.938-2.09,2.09-2.09s2.09,0.938,2.09,2.09     S31.142,12.63,29.99,12.63z M29.99,9.45c-0.601,0-1.09,0.489-1.09,1.09s0.489,1.09,1.09,1.09s1.09-0.489,1.09-1.09     S30.59,9.45,29.99,9.45z"/>
		</g>
		<g>
			<circle id="_Path_9_413_" style="fill:#9CEB60;" cx="13.07" cy="12.13" r="1.59"/>
			<path style="fill:#45413C;" d="M13.07,14.22c-1.152,0-2.09-0.938-2.09-2.09c0-1.152,0.938-2.09,2.09-2.09     c1.153,0,2.09,0.938,2.09,2.09C15.16,13.283,14.223,14.22,13.07,14.22z M13.07,11.04c-0.601,0-1.09,0.489-1.09,1.09     s0.489,1.09,1.09,1.09s1.09-0.489,1.09-1.09S13.671,11.04,13.07,11.04z"/>
		</g>
		<path style="fill:#45413C;" d="M23.65,9.46c-0.128,0-0.255-0.048-0.353-0.146c-0.195-0.194-0.196-0.511-0.002-0.707l1.58-1.59    c0.195-0.196,0.512-0.197,0.707-0.002c0.195,0.194,0.196,0.511,0.002,0.707l-1.58,1.59C23.907,9.411,23.779,9.46,23.65,9.46z"/>
		<path style="fill:#45413C;" d="M16.77,7.87c-0.162,0-0.32-0.078-0.417-0.223c-0.153-0.229-0.091-0.54,0.139-0.693l1.59-1.06    c0.23-0.153,0.54-0.091,0.693,0.139s0.091,0.54-0.139,0.693l-1.59,1.06C16.962,7.843,16.866,7.87,16.77,7.87z"/>
		<g>
			<circle id="_Path_12_332_" style="fill:#FFB0CA;" cx="30.52" cy="29.58" r="1.59"/>
			<path style="fill:#45413C;" d="M30.52,31.67c-1.152,0-2.09-0.938-2.09-2.09s0.938-2.09,2.09-2.09s2.09,0.938,2.09,2.09     S31.672,31.67,30.52,31.67z M30.52,28.49c-0.601,0-1.09,0.489-1.09,1.09s0.489,1.09,1.09,1.09s1.09-0.489,1.09-1.09     S31.121,28.49,30.52,28.49z"/>
		</g>
		<path style="fill:#45413C;" d="M19.94,34.31c-0.184,0-0.36-0.102-0.448-0.276c-0.124-0.247-0.023-0.548,0.224-0.671l2.12-1.06    c0.247-0.124,0.548-0.022,0.671,0.224c0.124,0.247,0.023,0.548-0.224,0.671l-2.12,1.06C20.092,34.293,20.016,34.31,19.94,34.31z"/>
	</g>
</g>















</svg>
