<?xml version="1.0" encoding="iso-8859-1"?>
<!-- Generator: Adobe Illustrator 21.0.0, SVG Export Plug-In . SVG Version: 6.00 Build 0)  -->
<svg xmlns="http://www.w3.org/2000/svg" xmlns:xlink="http://www.w3.org/1999/xlink" version="1.1" id="Capa_1" x="0px" y="0px" viewBox="0 0 46.385 46.385" style="enable-background:new 0 0 46.385 46.385;" xml:space="preserve" width="512" height="512">
<g>
	<g id="_Group__476_">
		
			<ellipse id="_Ellipse__545_" style="opacity:0.15;fill:#45413C;enable-background:new    ;" cx="19.038" cy="40.957" rx="16.5" ry="1.5"/>
		<g id="_Group_2_316_">
			<g id="_Group_3_254_">
				<g>
					<path id="_Path__559_" style="fill:#BF8256;" d="M44.368,8.637l-17.68,2.16l1.62,13.26l16.79-2.05       c0.488-0.057,0.838-0.498,0.782-0.987c-0.001-0.005-0.001-0.009-0.002-0.013L44.368,8.637z"/>
					<path style="fill:#45413C;" d="M28.307,24.557c-0.249,0-0.465-0.186-0.495-0.439l-1.62-13.26       c-0.017-0.131,0.021-0.264,0.103-0.369c0.081-0.104,0.201-0.172,0.333-0.188l17.68-2.16c0.133-0.015,0.264,0.021,0.368,0.102       c0.104,0.082,0.173,0.202,0.188,0.333l1.511,12.37c0.044,0.385-0.059,0.749-0.289,1.04s-0.562,0.475-0.931,0.517l-16.786,2.049       C28.348,24.556,28.328,24.557,28.307,24.557z M27.245,11.233L28.744,23.5l16.294-1.989c0.106-0.013,0.199-0.064,0.264-0.146       s0.094-0.184,0.081-0.287l-1.45-11.884L27.245,11.233z"/>
				</g>
				<g>
					
						<rect id="_Rectangle__185_" x="27.54" y="15.013" transform="matrix(0.9926 -0.1212 0.1212 0.9926 -1.8203 4.5433)" style="fill:#FFE3CF;" width="17.81" height="4.45"/>
					<path style="fill:#45413C;" d="M27.875,21.026c-0.111,0-0.22-0.037-0.309-0.106c-0.104-0.082-0.172-0.201-0.188-0.333       l-0.539-4.417c-0.033-0.274,0.161-0.523,0.436-0.557l17.679-2.158c0.134-0.017,0.264,0.021,0.369,0.103       c0.104,0.082,0.172,0.201,0.188,0.333l0.539,4.417c0.033,0.274-0.161,0.523-0.436,0.557l-17.679,2.158       C27.915,21.024,27.895,21.026,27.875,21.026z M27.892,16.544l0.418,3.424l16.687-2.037l-0.418-3.424L27.892,16.544z"/>
				</g>
				<g id="_Group_4_207_">
					<path id="_Path_2_550_" style="fill:#FF6242;" d="M31.488,13.347c-0.067-0.487-0.512-0.829-1-0.77       c-0.488,0.062-0.833,0.508-0.771,0.995c0,0.002,0,0.003,0.001,0.005l0.11,0.88c0.029,0.739-0.547,1.363-1.286,1.392       c-0.653,0.026-1.229-0.423-1.364-1.062l-0.49-4l5.43-6.33c7.22-0.26,12.8,1.35,13.13,4.05l0.48,3.95       c0.03,0.241-0.141,0.461-0.382,0.491c-0.039,0.005-0.079,0.005-0.118-0.001c-0.757-0.144-1.333-0.764-1.42-1.53       c-0.061-0.489-0.506-0.836-0.995-0.775c-0.489,0.061-0.836,0.506-0.775,0.995l0,0l0.11,0.88       c0.061,0.489-0.286,0.934-0.775,0.995c-0.489,0.061-0.934-0.286-0.995-0.775l0,0c-0.058-0.489-0.501-0.838-0.99-0.78       c-0.489,0.058-0.838,0.501-0.78,0.99l0.11,0.89c0.119,0.978-0.577,1.866-1.555,1.985s-1.866-0.577-1.985-1.555l0,0l-0.16-1.33       c-0.056-0.483-0.492-0.829-0.975-0.773c-0.008,0.001-0.017,0.002-0.025,0.003c-0.491,0.062-0.839,0.509-0.78,1l0.06,0.44       c0.061,0.489-0.286,0.934-0.775,0.995c-0.489,0.061-0.934-0.286-0.995-0.775l0,0L31.488,13.347z"/>
					<path style="fill:#45413C;" d="M28.488,16.35c-0.868,0-1.618-0.604-1.799-1.46l-0.497-4.042       c-0.018-0.14,0.025-0.28,0.116-0.387l5.43-6.33c0.091-0.106,0.223-0.169,0.362-0.174c7.779-0.291,13.282,1.523,13.645,4.489       l0.479,3.951c0.031,0.247-0.036,0.494-0.19,0.692c-0.154,0.198-0.376,0.324-0.625,0.355c-0.083,0.011-0.166,0.01-0.249-0.002       c-1.004-0.19-1.736-0.98-1.849-1.969c-0.025-0.209-0.227-0.361-0.437-0.335c-0.104,0.013-0.196,0.065-0.261,0.148       c-0.064,0.083-0.092,0.185-0.079,0.288l0.109,0.881c0.095,0.761-0.448,1.458-1.208,1.553c-0.779,0.093-1.46-0.448-1.554-1.209       c-0.026-0.217-0.224-0.367-0.436-0.345c-0.214,0.025-0.367,0.221-0.343,0.435l0.11,0.887c0.151,1.251-0.741,2.391-1.99,2.543       c-0.607,0.073-1.204-0.093-1.684-0.469c-0.48-0.376-0.785-0.917-0.858-1.522l-0.16-1.331c-0.013-0.103-0.063-0.193-0.142-0.256       c-0.08-0.063-0.179-0.088-0.28-0.08c-0.236,0.03-0.392,0.229-0.366,0.447l0.06,0.431c0.047,0.376-0.054,0.74-0.282,1.034       s-0.558,0.48-0.927,0.526c-0.374,0.047-0.733-0.055-1.026-0.283c-0.294-0.229-0.48-0.558-0.526-0.927l-0.041-0.483       c-0.035-0.213-0.228-0.363-0.442-0.332c-0.211,0.026-0.362,0.222-0.335,0.436l0.11,0.886c0.044,1.056-0.748,1.913-1.762,1.953       C28.538,16.35,28.513,16.35,28.488,16.35z M27.212,10.946l0.463,3.781c0.078,0.359,0.403,0.639,0.849,0.624       c0.462-0.019,0.823-0.41,0.805-0.873l-0.105-0.838c-0.097-0.764,0.443-1.461,1.202-1.558c0.758-0.089,1.455,0.446,1.559,1.198       c0.001,0.009,0.002,0.018,0.003,0.027l0.04,0.48c0.011,0.083,0.063,0.176,0.146,0.24c0.082,0.064,0.181,0.092,0.289,0.08       c0.104-0.013,0.196-0.065,0.261-0.148c0.064-0.083,0.093-0.186,0.08-0.29l-0.06-0.433c-0.092-0.77,0.452-1.467,1.212-1.564       c0.395-0.048,0.757,0.057,1.047,0.286c0.289,0.229,0.471,0.557,0.514,0.923l0.159,1.328c0.041,0.339,0.213,0.643,0.482,0.854       c0.271,0.211,0.606,0.308,0.946,0.264c0.702-0.085,1.204-0.727,1.119-1.429l-0.11-0.888c-0.09-0.765,0.456-1.458,1.218-1.548       c0.748-0.084,1.455,0.456,1.545,1.217c0.026,0.213,0.231,0.364,0.438,0.338c0.214-0.027,0.366-0.223,0.34-0.438l-0.109-0.88       c-0.047-0.368,0.054-0.733,0.282-1.026s0.558-0.48,0.927-0.526c0.76-0.1,1.458,0.448,1.553,1.209       c0.06,0.522,0.422,0.941,0.917,1.078l-0.469-3.866c-0.28-2.282-5.594-3.822-12.398-3.618L27.212,10.946z M45.322,12.456       L45.322,12.456L45.322,12.456L45.322,12.456z"/>
					<path style="fill:#E04122;" d="M29.777,10.917c-0.249,0-0.465-0.186-0.495-0.439c-0.033-0.274,0.161-0.523,0.436-0.557       l12.82-1.56c0.27-0.039,0.523,0.161,0.557,0.436s-0.161,0.523-0.436,0.557l-12.82,1.56       C29.818,10.916,29.798,10.917,29.777,10.917z"/>
				</g>
			</g>
			<g id="_Group_5_161_">
				<g id="_Group_6_132_">
					<g>
						<path id="_Path_4_543_" style="fill:#BF8256;" d="M2.168,18.977c-0.36,3.18,6.28,6.54,14.8,7.48s15.78-0.81,16.14-4        l-1.48,13.31c-0.36,3.18-7.59,5-16.14,4s-15.19-4.31-14.83-7.52L2.168,18.977z"/>
						<path style="fill:#45413C;" d="M20.139,40.545c-1.506,0-3.088-0.092-4.708-0.281C6.329,39.2-0.235,35.729,0.161,32.192        l1.51-13.267c0-0.001,0-0.003,0-0.004l0,0c0.031-0.274,0.273-0.476,0.553-0.44c0.274,0.031,0.472,0.278,0.441,0.553        c0,0,0,0,0,0v0.002c-0.062,0.555,0.152,1.144,0.637,1.75c1.918,2.401,7.432,4.48,13.721,5.174        c8.972,0.994,15.305-1.04,15.588-3.559c0.031-0.274,0.28-0.474,0.553-0.441c0.274,0.031,0.472,0.278,0.441,0.552v0.001        c0,0,0,0,0,0l-1.479,13.309c-0.095,0.832-0.563,1.588-1.393,2.246C28.723,39.663,24.801,40.545,20.139,40.545z M2.411,21.268        L1.155,32.304c-0.316,2.826,6.274,6.017,14.392,6.966c6.289,0.735,12.142-0.062,14.564-1.984        c0.614-0.487,0.958-1.017,1.021-1.575l1.235-11.113c-2.504,2.12-8.484,3.126-15.453,2.357        c-6.638-0.732-12.288-2.909-14.393-5.544C2.483,21.363,2.446,21.315,2.411,21.268z"/>
					</g>
					<g>
						<path id="_Path_5_532_" style="fill:#FFE3CF;" d="M1.558,24.287c-0.36,3.17,6.28,6.54,14.84,7.51        c8.56,0.97,15.77-0.82,16.13-4l-0.5,4.42c-0.36,3.18-7.59,5-16.14,4s-15.19-4.33-14.83-7.51L1.558,24.287z"/>
						<path style="fill:#45413C;" d="M20.539,36.995c-1.506,0-3.088-0.092-4.708-0.281c-8.955-1.048-15.662-4.589-15.269-8.063        l0.5-4.417c0-0.001,0-0.002,0-0.003c0.03-0.274,0.273-0.474,0.553-0.44c0.274,0.031,0.472,0.279,0.441,0.554h0        c-0.146,1.292,1.24,2.778,3.804,4.077c2.753,1.395,6.516,2.417,10.595,2.879c4.083,0.464,7.977,0.308,10.963-0.432        c2.785-0.691,4.467-1.831,4.613-3.127v-0.001c0.031-0.274,0.279-0.47,0.554-0.44c0.273,0.031,0.472,0.279,0.44,0.553        c0,0.001,0,0.002-0.001,0.003l-0.499,4.418c-0.094,0.831-0.562,1.587-1.392,2.245C29.124,36.114,25.201,36.995,20.539,36.995z         M1.803,26.573l-0.248,2.191c-0.285,2.514,5.43,5.908,14.391,6.956c6.289,0.735,12.143-0.063,14.565-1.984        c0.613-0.487,0.957-1.017,1.02-1.574l0.248-2.188c-0.915,0.779-2.309,1.416-4.12,1.865c-3.1,0.769-7.118,0.93-11.317,0.455        c-4.195-0.476-8.078-1.534-10.935-2.98C3.74,28.468,2.522,27.535,1.803,26.573z"/>
					</g>
				</g>
				<g id="_Group_7_124_">
					<path id="_Path_6_493_" style="fill:#FF6242;" d="M22.188,15.597c-1.24-0.25-2.54-0.46-3.88-0.61c-9-1-16.67,0.71-17,3.89       l-0.8,7.08c-0.083,0.732,0.443,1.392,1.175,1.475c0.732,0.083,1.392-0.443,1.475-1.175l0,0       c0.047-0.739,0.684-1.299,1.423-1.252c0.739,0.047,1.299,0.684,1.252,1.423c-0.003,0.043-0.008,0.086-0.015,0.129l-0.3,2.66       c-0.138,1.221,0.739,2.322,1.96,2.46c1.221,0.138,2.322-0.739,2.46-1.96c0.083-0.732,0.743-1.258,1.475-1.175       c0.732,0.083,1.258,0.743,1.175,1.475l-0.1,0.88c-0.057,0.738,0.495,1.382,1.232,1.44c0.698,0.054,1.32-0.438,1.428-1.13       l0.05-0.45c0.141-1.221,1.244-2.096,2.465-1.955c1.221,0.141,2.096,1.244,1.955,2.465l0,0l-0.15,1.32       c-0.057,0.738,0.495,1.382,1.232,1.44c0.698,0.054,1.32-0.438,1.428-1.13l0.35-3.1c0.05-0.224,0.263-0.372,0.49-0.34       c0.237,0.02,0.413,0.227,0.393,0.464c-0.001,0.009-0.002,0.017-0.003,0.026c-0.103,1.227,0.809,2.305,2.036,2.408       c1.177,0.098,2.227-0.738,2.394-1.908l0.2-1.77c0.083-0.732,0.743-1.258,1.475-1.175c0.732,0.083,1.258,0.743,1.175,1.475l0,0       c-0.057,0.738,0.494,1.382,1.232,1.44c0.698,0.054,1.32-0.438,1.428-1.13l0.67-5.83c0.064-0.487-0.279-0.934-0.767-0.998       c-0.004-0.001-0.009-0.001-0.013-0.002l-17.26-2L22.188,15.597z"/>
					<path style="fill:#45413C;" d="M20.805,34.531c-0.047,0-0.095-0.002-0.143-0.006c-0.489-0.037-0.936-0.264-1.255-0.637       s-0.475-0.85-0.437-1.34l0.152-1.338c0.109-0.944-0.571-1.802-1.516-1.911c-0.944-0.113-1.802,0.57-1.911,1.516l-0.05,0.448       c-0.149,0.965-0.996,1.66-1.963,1.572c-0.49-0.038-0.936-0.265-1.255-0.638c-0.32-0.373-0.475-0.849-0.437-1.339l0.101-0.898       c0.026-0.229-0.036-0.444-0.174-0.618c-0.138-0.174-0.335-0.283-0.556-0.308c-0.463-0.063-0.874,0.28-0.927,0.739       c-0.082,0.723-0.44,1.371-1.009,1.824c-0.57,0.453-1.281,0.656-2.004,0.576c-0.723-0.082-1.371-0.44-1.824-1.01       c-0.453-0.568-0.658-1.28-0.576-2.004l0.3-2.659l0.512-0.072l-0.499-0.032c0.015-0.224-0.059-0.44-0.208-0.608       c-0.148-0.169-0.353-0.269-0.577-0.283c-0.222-0.017-0.44,0.059-0.609,0.207s-0.269,0.354-0.283,0.577       C3.6,26.8,3.359,27.237,2.976,27.541s-0.863,0.439-1.349,0.388C1.141,27.874,0.705,27.633,0.4,27.25       c-0.306-0.383-0.444-0.862-0.388-1.35l0.799-7.08c0.081-0.779,0.514-1.492,1.286-2.114c2.625-2.115,9.163-3.006,16.266-2.217       c1.29,0.145,2.61,0.352,3.923,0.617c0.192,0.039,0.343,0.186,0.388,0.375c0.044,0.19-0.025,0.389-0.179,0.509l-5.297,4.129       l16.047,1.859c0.367,0.046,0.693,0.229,0.922,0.514c0.233,0.278,0.344,0.655,0.297,1.025l-0.669,5.824       c-0.15,0.963-0.999,1.652-1.963,1.571c-0.491-0.038-0.937-0.265-1.257-0.638c-0.319-0.373-0.475-0.849-0.436-1.339       c0.053-0.474-0.276-0.888-0.733-0.939c-0.449-0.055-0.87,0.277-0.922,0.734l-0.199,1.77c-0.207,1.445-1.509,2.481-2.932,2.351       c-0.728-0.061-1.387-0.4-1.858-0.957c-0.318-0.376-0.524-0.82-0.606-1.292l-0.265,2.349       C22.483,33.87,21.699,34.531,20.805,34.531z M17.407,28.287c0.104,0,0.208,0.006,0.314,0.018       c1.493,0.174,2.566,1.527,2.395,3.02l-0.15,1.319c-0.016,0.206,0.055,0.423,0.201,0.594c0.146,0.17,0.349,0.273,0.573,0.29       c0.439,0.043,0.828-0.276,0.895-0.707l0.347-3.079c0.114-0.526,0.568-0.851,1.056-0.779c0.221,0.018,0.445,0.133,0.606,0.323       c0.161,0.189,0.237,0.431,0.216,0.678c-0.082,0.977,0.627,1.814,1.578,1.895c0.897,0.078,1.728-0.574,1.856-1.48l0.197-1.756       c0.114-1.005,1.012-1.732,2.029-1.616c1.004,0.114,1.729,1.024,1.615,2.029c-0.016,0.206,0.055,0.423,0.2,0.593       c0.146,0.171,0.35,0.274,0.574,0.292c0.452,0.025,0.827-0.279,0.895-0.709l0.667-5.81c0.013-0.102-0.016-0.199-0.077-0.272       c-0.071-0.09-0.165-0.142-0.269-0.155l-17.255-1.999c-0.202-0.023-0.369-0.166-0.424-0.362       c-0.055-0.195,0.014-0.404,0.174-0.529l5.388-4.2c-0.925-0.164-1.848-0.297-2.756-0.398       c-6.858-0.764-13.097,0.042-15.528,2.001c-0.557,0.449-0.866,0.935-0.919,1.443l-0.8,7.084       c-0.025,0.222,0.037,0.439,0.176,0.614c0.139,0.174,0.336,0.283,0.557,0.308c0.225,0.028,0.44-0.037,0.614-0.176       s0.284-0.337,0.309-0.559c0.029-0.466,0.25-0.915,0.619-1.239c0.369-0.325,0.842-0.49,1.333-0.454       c0.49,0.031,0.939,0.252,1.264,0.62c0.325,0.369,0.486,0.843,0.455,1.334c-0.003,0.059-0.01,0.121-0.021,0.182l-0.295,2.63       c-0.052,0.458,0.078,0.909,0.364,1.269c0.287,0.36,0.697,0.587,1.155,0.639c0.456,0.052,0.908-0.078,1.268-0.364       c0.36-0.287,0.587-0.697,0.639-1.155c0.115-1.005,1.031-1.73,2.032-1.62c0.487,0.056,0.922,0.297,1.226,0.679       c0.305,0.383,0.441,0.861,0.386,1.347l-0.1,0.889c-0.016,0.206,0.055,0.423,0.201,0.593c0.146,0.171,0.349,0.274,0.573,0.292       c0.438,0.021,0.828-0.277,0.895-0.709l0.047-0.429C14.862,29.313,16.043,28.287,17.407,28.287z"/>
					<g>
						<polygon id="_Path_8_454_" style="fill:#BF8256;" points="21.558,21.177 22.188,15.597 15.878,20.537       "/>
						<path style="fill:#45413C;" d="M21.559,21.678c-0.019,0-0.038-0.001-0.057-0.003l-5.68-0.64        c-0.202-0.023-0.37-0.166-0.425-0.361c-0.056-0.195,0.013-0.405,0.173-0.53l6.31-4.94c0.158-0.124,0.376-0.141,0.552-0.043        c0.176,0.098,0.276,0.292,0.253,0.493l-0.63,5.58C22.026,21.489,21.81,21.678,21.559,21.678z M17.149,20.178l3.968,0.447        l0.44-3.899L17.149,20.178z"/>
					</g>
					<path style="fill:#E04122;" d="M22.843,25.548c-1.792,0-3.724-0.109-5.701-0.334c-7.319-0.836-14.92-3.29-14.59-6.193       c0.03-0.274,0.266-0.477,0.553-0.44c0.274,0.031,0.471,0.279,0.44,0.553c-0.165,1.452,4.971,4.089,13.71,5.086       c5.284,0.603,10.204,0.375,12.841-0.593c0.259-0.094,0.547,0.038,0.642,0.298c0.095,0.259-0.038,0.546-0.298,0.642       C28.676,25.213,25.973,25.548,22.843,25.548z"/>
				</g>
			</g>
		</g>
	</g>
</g>















</svg>
