<svg height="512pt" viewBox="-69 0 512 512" width="512pt" xmlns="http://www.w3.org/2000/svg"><path d="m81.03125 306.964844-19.679688-65.351563c-1.132812-3.761719-4.597656-6.339843-8.527343-6.339843-3.929688 0-7.390625 2.578124-8.523438 6.339843l-19.683593 65.351563zm0 0" fill="#2de0c7"/><path d="m348.621094 306.964844-19.679688-65.351563c-1.132812-3.761719-4.597656-6.339843-8.527344-6.339843-3.925781 0-7.390624 2.578124-8.523437 6.339843l-19.679687 65.351563zm0 0" fill="#2de0c7"/><path d="m161.101562 171.78125v109.46875c0 5.621094-4.5625 10.171875-10.171874 10.171875h-23.378907c-3.660156 0-7.039062-1.972656-8.851562-5.160156l-14.929688-26.441407c-1.21875-2.140624-1.609375-4.660156-1.109375-7.070312l17.28125-83.039062c.980469-4.722657 5.128906-8.101563 9.949219-8.101563h21.039063c5.609374 0 10.171874 4.550781 10.171874 10.171875zm0 0" fill="#383c7c"/><path d="m161.101562 171.78125v109.46875c0 5.621094-4.5625 10.171875-10.171874 10.171875h-14.097657v-129.8125h14.097657c5.609374 0 10.171874 4.550781 10.171874 10.171875zm0 0" fill="#292e68"/><path d="m269.472656 259.820312-14.933594 26.441407c-1.808593 3.1875-5.1875 5.160156-8.847656 5.160156h-23.378906c-5.613281 0-10.171875-4.550781-10.171875-10.171875v-109.46875c0-5.621094 4.558594-10.171875 10.171875-10.171875h21.039062c4.820313 0 8.96875 3.378906 9.949219 8.101563l17.28125 83.039062c.5 2.410156.109375 4.929688-1.109375 7.070312zm0 0" fill="#383c7c"/><path d="m236.410156 161.609375v129.8125h-14.097656c-5.613281 0-10.171875-4.550781-10.171875-10.171875v-109.46875c0-5.621094 4.558594-10.171875 10.171875-10.171875zm0 0" fill="#292e68"/><path d="m365.742188 304.570312v84.648438c0 5.621094-4.550782 10.171875-10.171876 10.171875h-133.4375v-129.25l18.179688 5.597656 88.429688 27.261719v-5.378906c0-7.25 7.378906-12.179688 14.078124-9.382813l16.660157 6.941407c3.789062 1.582031 6.261719 5.28125 6.261719 9.390624zm0 0" fill="#898ec9"/><path d="m261.640625 349.621094-27.75 33.320312c-3.070313 3.6875-7.191406 6.230469-11.757813 7.339844v-120.140625l18.179688 5.597656 24.25 50.023438c3.789062 7.816406 2.636719 17.179687-2.921875 23.859375zm0 0" fill="#6163aa"/><path d="m151.109375 270.140625v129.25h-133.4375c-5.621094 0-10.171875-4.550781-10.171875-10.171875v-84.648438c0-4.109374 2.472656-7.808593 6.261719-9.390624l16.660156-6.941407c6.699219-2.796875 14.078125 2.132813 14.078125 9.382813v5.378906l88.429688-27.261719zm0 0" fill="#898ec9"/><path d="m132.929688 275.738281 18.179687-5.597656v120.140625c-4.570313-1.109375-8.6875-3.652344-11.757813-7.339844l-27.75-33.320312c-5.5625-6.679688-6.710937-16.042969-2.921874-23.859375zm0 0" fill="#6163aa"/><path d="m174.402344 504.5h24.4375c4.46875 0 8.414062-2.914062 9.722656-7.1875l15.921875-51.921875c1.003906-3.28125.289063-6.851563-1.910156-9.488281l-16.214844-19.464844h-39.472656l-16.214844 19.464844c-2.199219 2.636718-2.917969 6.207031-1.910156 9.488281l15.917969 51.921875c1.308593 4.273438 5.253906 7.1875 9.722656 7.1875zm0 0" fill="#4e5093"/><path d="m224.410156 94.28125v315.5c0 5.609375-4.558594 10.167969-10.167968 10.167969h-55.242188c-5.609375 0-10.167969-4.558594-10.167969-10.167969v-392.109375c0-5.621094 4.558594-10.171875 10.167969-10.171875h30.050781c5.609375 0 10.171875 4.550781 10.171875 10.171875v51.9375c0 3.96875 2.296875 7.570313 5.886719 9.230469l13.402344 6.210937c3.597656 1.660157 5.898437 5.257813 5.898437 9.230469zm0 0" fill="#6163aa"/><path d="m224.410156 242.949219v146.640625c-2.390625.871094-4.9375 1.332031-7.550781 1.332031h-7.199219c-6.480468 6.039063-14.398437 9.558594-23.039062 9.558594s-16.558594-3.519531-23.039063-9.558594h-7.199219c-2.613281 0-5.160156-.460937-7.550781-1.332031v-146.640625l9.550781-19.699219c3.679688-7.589844 11.507813-12.5 19.949219-12.5h16.578125c8.441406 0 16.269532 4.910156 19.949219 12.5zm0 0" fill="#4e5093"/><path d="m252.421875 341.941406-27.75 33.320313c-1.929687 2.316406-4.789063 3.660156-7.8125 3.660156h-60.476563c-3.023437 0-5.882812-1.34375-7.8125-3.660156l-10.1875-12.242188-12.910156-15.5-4.652344-5.578125c-.378906-.460937-.710937-.941406-1.007812-1.441406-1.652344-2.878906-1.8125-6.441406-.332031-9.5l7.089843-14.621094 42.609376-87.898437c1.703124-3.5 5.25-5.730469 9.152343-5.730469h16.578125c3.902344 0 7.449219 2.230469 9.152344 5.730469l3.398438 7.007812 5.660156 11.691407 4.148437 8.539062 9.269531 19.140625 27.222657 56.140625c1.738281 3.589844 1.21875 7.871094-1.339844 10.941406zm0 0" fill="#2de0c7"/><path d="m213.121094 247.179688-93.308594 93.320312c-1.652344-2.878906-1.8125-6.441406-.332031-9.5l7.089843-14.621094 80.890626-80.890625zm0 0" fill="#9bf2e5"/><path d="m226.539062 274.859375-88.15625 88.160156-12.910156-15.5 91.796875-91.800781zm0 0" fill="#9bf2e5"/><g fill="#383c7c"><path d="m214.734375 346.363281c0-23.261719-12.585937-42.121093-28.113281-42.121093s-28.113282 18.859374-28.113282 42.121093 12.585938 42.117188 28.113282 42.117188 28.113281-18.855469 28.113281-42.117188zm0 0"/><path d="m95.710938 399.390625c0 12.832031-10.402344 23.234375-23.234376 23.234375-12.828124 0-23.230468-10.402344-23.230468-23.234375s10.402344-23.234375 23.230468-23.234375c12.832032 0 23.234376 10.402344 23.234376 23.234375zm0 0"/><path d="m323.996094 399.390625c0 12.832031-10.402344 23.234375-23.230469 23.234375-12.832031 0-23.234375-10.402344-23.234375-23.234375s10.402344-23.234375 23.234375-23.234375c12.828125 0 23.230469 10.402344 23.230469 23.234375zm0 0"/></g><path d="m362.367188 288.257812-13.203126-5.503906-13.039062-43.304687c-2.105469-6.980469-8.414062-11.675781-15.707031-11.675781s-13.605469 4.691406-15.707031 11.675781l-13.308594 44.195312-22.804688-7.027343 7.40625-13.105469c2.109375-3.730469 2.789063-8.09375 1.917969-12.289063l-17.273437-83.042968c-1.695313-8.152344-8.972657-14.070313-17.300782-14.070313h-11.4375v-14.78125c0-4.140625-3.359375-7.5-7.5-7.5-4.144531 0-7.5 3.359375-7.5 7.5v98.457031l-6.097656-12.574218c-2.933594-6.050782-9.175781-9.960938-15.898438-9.960938h-16.585937c-6.722656 0-12.964844 3.910156-15.898437 9.960938l-6.09375 12.574218v-220.117187c0-1.472657 1.195312-2.667969 2.667968-2.667969h30.042969c1.472656 0 2.671875 1.195312 2.671875 2.667969v51.945312c0 6.859375 4.019531 13.152344 10.242188 16.035157l13.398437 6.203124c.941406.4375 1.546875 1.386719 1.546875 2.421876v12.398437c0 4.140625 3.359375 7.5 7.5 7.5 4.144531 0 7.5-3.359375 7.5-7.5v-12.398437c0-6.855469-4.019531-13.148438-10.242188-16.03125l-13.398437-6.207032c-.941406-.433594-1.546875-1.386718-1.546875-2.421875v-51.945312c0-9.742188-7.929688-17.667969-17.671875-17.667969h-30.042969c-9.742187 0-17.667968 7.925781-17.667968 17.667969v136.441406h-11.441407c-8.328125 0-15.601562 5.917969-17.296875 14.070313l-17.277344 83.042968c-.871093 4.195313-.191406 8.558594 1.917969 12.289063l7.40625 13.105469-22.800781 7.027343-13.3125-44.195312c-2.101562-6.980469-8.414062-11.671875-15.707031-11.671875s-13.601563 4.691406-15.707031 11.671875l-13.039063 43.304687-13.207031 5.503906c-6.601563 2.75-10.871094 9.152344-10.871094 16.308594v11.105469c0 4.140625 3.359375 7.5 7.5 7.5s7.5-3.359375 7.5-7.5v-11.105469c0-1.082031.644531-2.046875 1.640625-2.464844l16.664063-6.941406c1.148437-.480468 2.0625-.054687 2.507812.242188s1.1875.980468 1.1875 2.21875v5.382812c0 2.382813 1.128906 4.621094 3.046875 6.035156 1.914063 1.414063 4.386719 1.832032 6.664063 1.132813l87.625-27.007813-7.285157 15.019532-62.289062 19.199218c-3.148438.96875-5.292969 3.875-5.292969 7.167969v26.832031c0 4.144532 3.359375 7.5 7.5 7.5h58.199219l16.164062 19.40625v13.605469h-39.050781c-3.355469-13.335937-15.445312-23.234375-29.804688-23.234375-14.359374 0-26.445312 9.902344-29.804687 23.234375h-25.003906c-1.472657 0-2.667969-1.199219-2.667969-2.671875v-40.894531c0-4.140625-3.359375-7.5-7.5-7.5s-7.5 3.359375-7.5 7.5v40.894531c0 9.742188 7.925781 17.667969 17.667969 17.667969h25.007812c3.355469 13.335937 15.441407 23.234375 29.800781 23.234375 14.363282 0 26.449219-9.902344 29.804688-23.234375h39.054688v2.886719c0 6.460937 3.496093 12.105468 8.683593 15.1875l-5.113281 6.140625c-3.832031 4.597656-5.070312 10.761719-3.316406 16.484375l15.921875 51.921875c2.289062 7.46875 9.078125 12.488281 16.890625 12.488281h24.4375c7.8125 0 14.601562-5.019531 16.894531-12.488281l2.535156-8.273438c1.214844-3.957031-1.011719-8.152343-4.972656-9.367187-3.957031-1.214844-8.152344 1.011718-9.367187 4.972656l-2.535157 8.269531c-.347656 1.128907-1.375 1.890625-2.554687 1.890625h-24.4375c-1.179688 0-2.207032-.761718-2.550782-1.886718l-15.921874-51.921876c-.265626-.863281-.078126-1.792968.503906-2.488281l11.042968-13.261719h38.289063l11.046875 13.261719c.578125.695313.765625 1.625.5 2.488281l-3.8125 12.429688c-1.214844 3.960938 1.011719 8.152344 4.972656 9.367188.734375.226562 1.472656.332031 2.203125.332031 3.207031 0 6.175781-2.078125 7.167969-5.304688l3.808594-12.429687c1.753906-5.722656.515625-11.886719-3.316406-16.484375l-5.113282-6.140625c5.191406-3.078125 8.6875-8.726563 8.6875-15.1875v-2.886719h39.050782c3.355468 13.335937 15.445312 23.234375 29.804687 23.234375s26.445313-9.902344 29.804687-23.234375h25.003907c9.742187 0 17.667969-7.925781 17.667969-17.667969v-84.65625c0-7.15625-4.265626-13.558594-10.875-16.308594zm-289.890626 126.867188c-8.671874 0-15.730468-7.058594-15.730468-15.734375 0-8.671875 7.058594-15.730469 15.730468-15.730469 8.675782 0 15.734376 7.058594 15.734376 15.730469 0 8.675781-7.058594 15.734375-15.734376 15.734375zm246.59375-171.351562c.179688-.585938.730469-1 1.347657-1 .621093 0 1.164062.402343 1.34375 1l11.203125 37.207031c-1.34375.484375-2.636719 1.128906-3.855469 1.941406-3.617187 2.410156-6.167969 6.015625-7.265625 10.105469l-16.109375-4.964844zm-75.722656-74.664063c1.257813 0 2.359375.894531 2.613282 2.125l17.273437 83.042969c.132813.632812.03125 1.292968-.289063 1.855468l-9.019531 15.960938-22.019531-6.785156v-96.199219zm17.164063 158.613281-5.375-11.085937 43.632812 13.449219v13.796874h-38.652343c2.6875-4.945312 2.90625-10.976562.394531-16.160156zm-84.585938-95.96875c.441407-.910156 1.386719-1.503906 2.402344-1.503906h16.585937c1.015626 0 1.957032.59375 2.402344 1.503906l49.695313 102.511719c.457031.941406.316406 2.070313-.351563 2.875l-27.753906 33.316406c-.359375.429688-.839844.722657-1.367188.859375 2.988282-7.289062 4.695313-15.789062 4.695313-24.953125 0-27.824219-15.644531-49.621093-35.613281-49.621093-19.972656 0-35.613282 21.796874-35.613282 49.621093 0 9.160157 1.703126 17.664063 4.691407 24.953125-.527344-.136718-1.007813-.429687-1.367188-.863281l-27.753906-33.3125c-.667969-.804687-.804687-1.933594-.347656-2.875zm38.3125 180.691406h-55.234375c-1.472656 0-2.667968-1.199218-2.667968-2.667968v-23.363282h.046874 8.972657c5.898437 6.03125 13.230469 9.566407 21.265625 9.566407 8.039062 0 15.371094-3.535157 21.269531-9.566407h8.96875.050781v23.363282c-.003906 1.46875-1.199218 2.667968-2.671875 2.667968zm-27.617187-31.464843c-11.175782 0-20.613282-15.851563-20.613282-34.617188s9.4375-34.621093 20.613282-34.621093c11.175781 0 20.613281 15.855468 20.613281 34.621093s-9.4375 34.617188-20.613281 34.617188zm-76.324219-124.847657c-.320313-.5625-.421875-1.222656-.289063-1.855468l17.273438-83.042969c.253906-1.230469 1.355469-2.125 2.613281-2.125h11.4375v96.199219l-22.015625 6.785156zm-66.164063 26.789063c-1.21875-.8125-2.511718-1.457031-3.855468-1.941406l11.203125-37.207031c.179687-.597657.71875-1 1.34375-1s1.164062.402343 1.34375 1l13.339843 44.289062-16.113281 4.964844c-1.09375-4.089844-3.640625-7.691406-7.261719-10.105469zm30.339844 47.164063 43.632813-13.449219-5.375 11.085937c-2.511719 5.183594-2.292969 11.214844.394531 16.160156h-38.652344zm226.292969 85.039062c-8.675781 0-15.734375-7.058594-15.734375-15.734375 0-8.671875 7.058594-15.730469 15.734375-15.730469 8.671875 0 15.730469 7.058594 15.730469 15.730469 0 8.675781-7.058594 15.734375-15.730469 15.734375zm57.476563-25.902344c0 1.472656-1.195313 2.667969-2.667969 2.667969h-25.007813c-3.355468-13.332031-15.445312-23.230469-29.804687-23.230469s-26.445313 9.898438-29.800781 23.230469h-39.054688v-13.605469l16.164062-19.402344h58.199219c4.140625 0 7.5-3.359374 7.5-7.5v-26.832031c0-3.292969-2.148437-6.199219-5.292969-7.167969l-62.289062-19.199218-7.28125-15.023438 87.625 27.011719c2.273438.699219 4.746094.277344 6.664062-1.136719 1.914063-1.414062 3.042969-3.652344 3.042969-6.03125v-5.382812c0-1.242188.746094-1.925782 1.191407-2.21875.441406-.296875 1.359374-.722656 2.503906-.246094l16.664062 6.945312c1 .414063 1.644532 1.382813 1.644532 2.464844zm0 0"/><path d="m181.578125 41.394531c0-4.140625-3.355469-7.5-7.5-7.5-4.140625 0-7.5 3.359375-7.5 7.5v7.457031c0 4.144532 3.359375 7.5 7.5 7.5 4.144531 0 7.5-3.355468 7.5-7.5zm0 0"/><path d="m181.578125 75.378906c0-4.144531-3.355469-7.5-7.5-7.5-4.140625 0-7.5 3.355469-7.5 7.5v7.457032c0 4.144531 3.359375 7.5 7.5 7.5 4.144531 0 7.5-3.355469 7.5-7.5zm0 0"/><path d="m181.578125 109.363281c0-4.144531-3.355469-7.5-7.5-7.5-4.140625 0-7.5 3.355469-7.5 7.5v7.457031c0 4.144532 3.359375 7.5 7.5 7.5 4.144531 0 7.5-3.355468 7.5-7.5zm0 0"/><path d="m181.578125 143.347656c0-4.144531-3.355469-7.5-7.5-7.5-4.140625 0-7.5 3.355469-7.5 7.5v7.457032c0 4.140624 3.359375 7.5 7.5 7.5 4.144531 0 7.5-3.359376 7.5-7.5zm0 0"/><path d="m174.078125 169.832031c-4.140625 0-7.5 3.355469-7.5 7.5v7.457031c0 4.140626 3.359375 7.5 7.5 7.5 4.144531 0 7.5-3.359374 7.5-7.5v-7.457031c0-4.144531-3.355469-7.5-7.5-7.5zm0 0"/><path d="m30.988281 377h.105469c4.144531 0 7.5-3.355469 7.5-7.5s-3.355469-7.5-7.5-7.5h-.105469c-4.140625 0-7.5 3.355469-7.5 7.5s3.359375 7.5 7.5 7.5zm0 0"/><path d="m31.023438 357.929688h.074218c4.105469 0 7.457032-3.3125 7.496094-7.429688.039062-4.140625-3.289062-7.53125-7.429688-7.570312h-.105468c-.023438 0-.046875 0-.070313 0-4.109375 0-7.460937 3.3125-7.5 7.429687-.039062 4.144531 3.289063 7.53125 7.433594 7.570313zm0 0"/><path d="m342.253906 362h-.105468c-4.144532 0-7.5 3.355469-7.5 7.5s3.355468 7.5 7.5 7.5h.105468c4.140625 0 7.5-3.355469 7.5-7.5s-3.359375-7.5-7.5-7.5zm0 0"/><path d="m342.320312 342.929688h-.101562c-.023438 0-.046875 0-.070312 0-4.113282 0-7.460938 3.3125-7.5 7.429687-.039063 4.144531 3.289062 7.53125 7.429687 7.570313h.105469.070312c4.109375 0 7.460938-3.3125 7.5-7.429688.035156-4.140625-3.289062-7.53125-7.433594-7.570312zm0 0"/></svg>