<svg height="512pt" viewBox="0 -52 512.00033 512" width="512pt" xmlns="http://www.w3.org/2000/svg"><path d="m462.785156 7.410156h-177.171875c28.859375 0 52.335938 23.480469 52.335938 52.335938 0 17.367187-8.640625 33.578125-23.113281 43.367187-1.277344.863281-2.039063 2.316407-2.039063 3.886719v169.84375c5.171875-.363281 10.410156-.546875 15.699219-.546875 60.523437 0 116.96875 24.234375 149.046875 61.246094v-237.015625c0-6.542969 3.230469-12.679688 8.652343-16.34375 11.183594-7.5625 18.570313-20.355469 18.570313-34.792969 0-23.089844-18.890625-41.980469-41.980469-41.980469zm0 0" fill="#e5966e"/><path d="m346.9375 107c0-1.570312.761719-3.023438 2.039062-3.886719 14.472657-9.789062 23.113282-26 23.113282-43.367187 0-28.859375-23.476563-52.335938-52.335938-52.335938h-34.140625c28.859375 0 52.335938 23.476563 52.335938 52.335938 0 17.367187-8.640625 33.578125-23.113281 43.367187-1.277344.863281-2.039063 2.316407-2.039063 3.886719v169.84375c11.453125-.804688 22.640625-.722656 34.140625.214844zm0 0" fill="#d6835f"/><path d="m315.796875 276.84375v-169.84375c0-1.570312.761719-3.023438 2.039063-3.886719 14.472656-9.789062 23.113281-26 23.113281-43.367187 0-28.859375-23.476563-52.335938-52.335938-52.335938h-228.503906c-28.859375 0-52.335937 23.476563-52.335937 52.335938 0 17.367187 8.640624 33.578125 23.113281 43.363281 1.277343.867187 2.039062 2.316406 2.039062 3.886719v228.742187c0 15.574219 12.671875 28.246094 28.246094 28.246094h107.707031c23.988282-49.351563 78.367188-82.335937 146.917969-87.140625zm0 0" fill="#f0a479"/><path d="m62.925781 335.738281v-228.738281c0-1.570312-.761719-3.023438-2.039062-3.890625-14.46875-9.785156-23.113281-25.996094-23.113281-43.363281 0-28.855469 23.480468-52.335938 52.335937-52.335938h-30c-28.859375 0-52.335937 23.480469-52.335937 52.335938 0 17.367187 8.640624 33.578125 23.113281 43.363281 1.277343.867187 2.039062 2.320313 2.039062 3.890625v228.738281c0 15.574219 12.671875 28.246094 28.246094 28.246094h30c-15.574219 0-28.246094-12.671875-28.246094-28.246094zm0 0" fill="#e5966e"/><path d="m288.707031 280.453125v-173.453125c0-10.574219 5.214844-20.417969 13.953125-26.324219 7.015625-4.746093 11.203125-12.566406 11.203125-20.929687 0-13.921875-11.328125-25.246094-25.25-25.246094h-228.503906c-13.921875 0-25.25 11.324219-25.25 25.246094 0 8.363281 4.1875 16.183594 11.203125 20.925781 8.738281 5.914063 13.953125 15.753906 13.953125 26.328125v228.738281c0 .636719.519531 1.15625 1.15625 1.15625h125.28125c24.230469-29.179687 58.554687-47.785156 102.253906-56.441406zm0 0" fill="#f9bea5"/><path d="m90.015625 335.738281v-228.738281c0-10.574219-5.214844-20.414062-13.953125-26.328125-7.011719-4.742187-11.199219-12.5625-11.199219-20.925781 0-13.921875 11.324219-25.25 25.246094-25.25h-30c-13.921875 0-25.25 11.328125-25.25 25.25 0 8.363281 4.191406 16.183594 11.203125 20.925781 8.738281 5.914063 13.953125 15.753906 13.953125 26.328125v228.738281c0 .636719.519531 1.15625 1.15625 1.15625h30c-.636719 0-1.15625-.519531-1.15625-1.15625zm0 0" fill="#f7b594"/><path d="m504.128906 381.796875c-18.933594-62.273437-89.039062-108.503906-172.632812-108.503906s-153.695313 46.230469-172.628906 108.503906c-2.828126 9.300781 4.113281 18.699219 13.835937 18.699219h317.589844c9.722656 0 16.664062-9.398438 13.835937-18.699219zm0 0" fill="#9e6b57"/><path d="m188.871094 381.796875c17.785156-58.511719 80.75-102.851563 157.628906-108-4.949219-.332031-9.949219-.503906-15-.503906-83.59375 0-153.699219 46.230469-172.632812 108.5-2.828126 9.304687 4.113281 18.703125 13.835937 18.703125h30c-9.71875 0-16.660156-9.398438-13.832031-18.699219zm0 0" fill="#875848"/><path d="m484.773438 331.929688v-113.5c0-4.144532-3.359376-7.503907-7.5-7.503907-4.144532 0-7.5 3.359375-7.5 7.503907v97.8125c-39.125-35.625-93.167969-52.070313-146.746094-50.214844v-157.488282c1.570312-1.121093 3.058594-2.328124 4.496094-3.578124 13.035156-11.316407 20.65625-27.699219 20.65625-45.125 0-16.855469-7.214844-33.300782-20.253907-44.835938h134.585938c33.820312 0 47.429687 43.980469 19.210937 63.058594-7.484375 5.0625-11.949218 13.496094-11.949218 22.558594v82.8125c0 4.140624 3.355468 7.5 7.5 7.5 4.140624 0 7.5-3.359376 7.5-7.5v-82.8125c0-4.078126 2-7.863282 5.351562-10.132813 13.695312-9.257813 21.867188-24.589844 21.867188-41.003906 0-27.285157-22.195313-49.480469-49.480469-49.480469-7.351563 0-385.832031 0-402.671875 0-32.996094 0-59.839844 26.839844-59.839844 59.835938 0 19.351562 9.375 37.441406 25.152344 48.703124v227.289063c0 19.707031 16.035156 35.746094 35.746094 35.746094h93.308593c-1.019531 2.683593-1.957031 5.394531-2.789062 8.128906-4.300781 14.144531 6.25 28.382813 21.011719 28.382813h141.296874c4.140626 0 7.5-3.355469 7.5-7.5 0-4.144532-3.359374-7.5-7.5-7.5h-141.296874c-4.691407 0-8.023438-4.535157-6.65625-9.019532 9.078124-29.863281 30.144531-54.171875 56.019531-71.402344v24.320313c0 4.140625 3.355469 7.5 7.5 7.5 4.140625 0 7.5-3.359375 7.5-7.5v-33.257813c11.191406-5.941406 23.261719-10.84375 35.964843-14.5625v47.820313c0 4.140625 3.359376 7.5 7.5 7.5 4.144532 0 7.503907-3.359375 7.503907-7.5v-51.601563c12.355469-2.613281 24.203125-3.964843 35.964843-4.371093v55.972656c0 4.140625 3.355469 7.5 7.5 7.5 4.144532 0 7.5-3.359375 7.5-7.5v-55.957031c12.261719.429687 24.308594 1.90625 35.964844 4.351562v51.605469c0 4.140625 3.359375 7.5 7.503906 7.5 4.140626 0 7.5-3.359375 7.5-7.5v-47.863281c12.667969 3.683594 24.742188 8.546875 35.964844 14.484375v33.378906c0 4.140625 3.359375 7.5 7.5 7.5 4.144532 0 7.5-3.359375 7.5-7.5v-24.46875c26.089844 17.371094 46.863282 41.421875 56.019532 71.550781 1.367187 4.488282-1.96875 9.019532-6.65625 9.019532h-141.296876c-4.144531 0-7.5 3.355468-7.5 7.5 0 4.140624 3.355469 7.5 7.5 7.5h141.292969c14.785157 0 25.304688-14.261719 21.011719-28.382813-5.1875-17.066406-14.15625-33.261719-26.257812-47.773437zm-305.0625-2.445313h-112.46875v-222.398437c0-13.066407-6.449219-25.230469-17.25-32.539063-14.621094-9.878906-7.515626-32.457031 9.84375-32.457031h228.503906c9.789062 0 17.75 7.960937 17.75 17.746094 0 5.867187-2.957032 11.367187-7.90625 14.714843-10.800782 7.308594-17.246094 19.46875-17.246094 32.535157v164.332031c-38.46875 8.710937-75.363281 28.335937-101.226562 58.066406zm-139.558594 6.34375v-228.742187c0-4.0625-1.996094-7.835938-5.335938-10.097657-12.410156-8.390625-19.816406-22.277343-19.816406-37.152343 0-24.722657 20.113281-44.835938 44.835938-44.835938h228.503906c24.722656 0 44.839844 20.113281 44.839844 44.835938 0 14.867187-7.402344 28.757812-19.820313 37.152343-3.414063 2.3125-5.335937 6.148438-5.335937 10.097657v159.941406c-4.0625.40625-8.089844.917968-12.085938 1.535156v-161.476562c0-8.078126 3.980469-15.597657 10.652344-20.109376 9.078125-6.144531 14.5-16.289062 14.5-27.140624 0-18.058594-14.691406-32.75-32.75-32.75h-228.503906c-32.152344 0-45.023438 41.789062-18.246094 59.886718 6.667968 4.515625 10.652344 12.035156 10.652344 20.113282v228.742187c0 4.773437 3.882812 8.65625 8.65625 8.65625h107.347656c-2.625 3.933594-5.054688 7.960937-7.242188 12.085937h-100.105468c-11.4375.003907-20.746094-9.304687-20.746094-20.742187zm0 0"/></svg>