<svg height="512pt" viewBox="-42 0 512 512" width="512pt" xmlns="http://www.w3.org/2000/svg"><path d="m321.476562 7.410156c-30.378906 0-61.457031 17.339844-92.375 51.539063-47.023437 52.015625-27.921874 62.726562-112.621093 111.113281-40.21875 22.976562-85.800781 49.015625-104.5625 119.363281-22.609375 84.777344 46.484375 214.984375 217.71875 214.984375 73.496093 0 134.265625-30.203125 167.511719-96.347656 23.109374-45.972656 23.375-91.746094 23.375-93.671875v-185.40625c0-39.585937-6.628907-67.242187-20.863282-87.03125-16.484375-22.921875-42.789062-34.542969-78.183594-34.542969zm0 0" fill="#f97a7a"/><path d="m41.917969 289.425781c18.761719-70.347656 64.34375-96.386719 104.5625-119.363281 84.703125-48.386719 65.597656-59.097656 112.621093-111.113281 26.617188-29.4375 53.351563-46.375 79.65625-50.519531-5.496093-.675782-11.253906-1.019532-17.285156-1.019532-30.375 0-61.453125 17.339844-92.371094 51.539063-47.023437 52.015625-27.921874 62.726562-112.625 111.113281-40.21875 22.976562-85.800781 49.015625-104.5625 119.363281-22.605468 84.777344 46.488282 214.984375 217.722657 214.984375 4.75 0 9.445312-.132812 14.085937-.386718-159.589844-7.792969-223.699218-132.496094-201.804687-214.597657zm0 0" fill="#f25c5c"/><path d="m375.925781 317.316406c-.023437 1.65625-.792969 39.363282-19.613281 75.597656-24.148438 46.496094-65.328125 69.097657-125.890625 69.097657-142.148437 0-190.328125-101.367188-175.597656-156.609375 13.785156-51.691406 43.234375-68.515625 83.988281-91.796875 100.132812-57.203125 90.371094-81.699219 132.039062-127.792969 20.992188-23.21875 40.9375-36.007812 56.164063-36.007812 26.984375 0 48.914063 2.605468 48.914063 72.605468v194.90625zm0 0" fill="#f25c5c"/><path d="m84.824219 305.40625c13.789062-51.695312 43.234375-68.519531 83.988281-91.800781 100.136719-57.199219 90.371094-81.699219 132.042969-127.792969 16.570312-18.332031 32.488281-30.152344 45.949219-34.320312-6.054688-1.503907-12.75-1.6875-19.789063-1.6875-15.226563 0-35.171875 12.789062-56.164063 36.007812-41.667968 46.09375-31.90625 70.589844-132.039062 127.792969-40.753906 23.28125-70.203125 40.105469-83.988281 91.796875-14.734375 55.242187 33.449219 156.609375 175.597656 156.609375 4.847656 0 9.558594-.160157 14.160156-.449219-129.875-7.234375-173.925781-103.023438-159.757812-156.15625zm0 0" fill="#d83f3f"/><path d="m257.351562 334.589844c0 23.867187-19.347656 43.214844-43.210937 43.214844-23.867187 0-43.214844-19.347657-43.214844-43.214844 0-23.867188 19.347657-43.210938 43.214844-43.210938 23.863281 0 43.210937 19.34375 43.210937 43.210938zm0 0" fill="#f7b594"/><path d="m200.929688 334.589844c0-18.589844 11.738281-34.4375 28.210937-40.53125-4.675781-1.730469-9.726563-2.679688-15-2.679688-23.867187 0-43.214844 19.347656-43.214844 43.210938 0 23.867187 19.347657 43.214844 43.214844 43.214844 5.273437 0 10.324219-.949219 15-2.679688-16.472656-6.097656-28.210937-21.945312-28.210937-40.535156zm0 0" fill="#f0a479"/><path d="m326.742188 42.394531c-17.625 0-38.96875 13.304688-61.726563 38.476563-42.667969 47.199218-31.527344 69.945312-130.195313 126.3125-40.742187 23.273437-72.921874 41.65625-87.515624 96.378906-16.242188 60.90625 36.800781 166.042969 182.847656 166.042969 63.625 0 106.980468-23.925781 132.542968-73.144531 19.65625-37.839844 20.4375-77.285157 20.460938-78.945313 0-.035156 0-.070313 0-.105469v-194.90625c0-72.078125-23.308594-80.109375-56.414062-80.109375zm41.414062 80.109375v194.84375c-.035156 2.085938-.886719 37.769532-18.773438 72.199219-22.734374 43.773437-61.738281 65.058594-119.234374 65.058594-135.917969 0-182.054688-95.796875-168.351563-147.179688 12.980469-48.667969 39.824219-64.003906 80.460937-87.21875 101.5-57.980469 93.3125-84.394531 133.886719-129.273437 19.265625-21.3125 37.707031-33.535156 50.597657-33.535156 24.046874-.003907 41.414062.867187 41.414062 65.105468zm0 0"/><path d="m273.371094 220.089844c-3.621094-2.023438-8.1875-.730469-10.207032 2.886718l-35.203124 63c-4.476563-1.300781-9.203126-2.007812-14.09375-2.007812-27.964844 0-50.714844 22.75-50.714844 50.710938 0 20.609374 12.3125 39.011718 31.367187 46.882812 3.824219 1.582031 8.214844-.238281 9.796875-4.070312 1.582032-3.828126-.242187-8.210938-4.070312-9.792969-13.421875-5.546875-22.089844-18.503907-22.089844-33.019531 0-19.691407 16.019531-35.710938 35.710938-35.710938 19.691406 0 35.710937 16.019531 35.710937 35.710938 0 13.714843-8.011719 26.382812-20.410156 32.273437-3.742188 1.777344-5.335938 6.25-3.558594 9.992187 1.78125 3.742188 6.257813 5.335938 9.996094 3.558594 17.601562-8.363281 28.972656-26.351562 28.972656-45.824218 0-17.71875-9.140625-33.335938-22.949219-42.40625l34.628906-61.980469c2.023438-3.613281.730469-8.183594-2.886718-10.203125zm0 0"/><path d="m229.367188 512c76.300781 0 139.65625-31.734375 174.210937-100.480469 23.898437-47.546875 24.171875-95.039062 24.171875-97.039062v-40.980469c0-4.140625-3.355469-7.5-7.5-7.5s-7.5 3.359375-7.5 7.5v40.980469c0 1.851562-.257812 45.898437-22.574219 90.304687-30.324219 60.324219-85.933593 92.214844-160.808593 92.214844-166.351563 0-231.78125-125.664062-210.476563-205.550781 17.957031-67.324219 62.09375-92.539063 101.035156-114.785157 58.28125-33.292968 69.105469-49.792968 84.089844-72.628906 26.578125-40.511718 68.886719-89.035156 117.1875-89.035156 69.664063 0 91.546875 45.210938 91.546875 114.074219v109.425781c0 4.140625 3.355469 7.5 7.5 7.5s7.5-3.359375 7.5-7.5v-109.425781c0-41.234375-7.078125-70.28125-22.273438-91.410157-17.972656-24.992187-46.328124-37.664062-84.273437-37.664062-54.339844 0-99.976563 50.46875-129.730469 95.804688-14.351562 21.875-23.832031 36.328124-78.988281 67.835937-41.492187 23.703125-88.519531 50.566406-108.089844 123.945313-23.734375 89 48.273438 224.414062 224.972657 224.414062zm0 0"/></svg>