<svg height="512pt" viewBox="-13 0 512 512.00059" width="512pt" xmlns="http://www.w3.org/2000/svg"><path d="m328.039062 107.167969c-8.902343-1.058594-18.050781-4.679688-26.160156-10.90625-1.75 14.0625-8.578125 26.078125-18.09375 33.273437-2.679687 2.023438-6.390625 1.925782-8.957031-.238281-9.125-7.691406-15.304687-20.066406-16.300781-34.210937v.023437c-8.332032 5.71875-17.539063 8.847656-26.390625 9.484375-.796875 2.402344-1.421875 4.855469-1.855469 7.347656-46.730469 157.183594-136.621094 196.320313-153.777344 202.476563-9.183594 2.871093-18.097656 7.140625-26.441406 12.871093-44.933594 30.855469-56.347656 92.296876-25.492188 137.230469 30.855469 44.933594 91.753907 49.34375 137.230469 25.492188 206.859375-113.601563 171.527344-358.929688 171.527344-358.929688-.90625-9.175781-2.503906-16.789062-5.289063-23.914062zm0 0" fill="#8277f2"/><path d="m54.5625 475.515625c-30.855469-44.933594-19.441406-106.375 25.492188-137.230469 8.347656-5.730468 17.257812-10 26.441406-12.867187 17.15625-6.160157 107.046875-45.296875 153.777344-202.480469.433593-2.492188 1.058593-4.945312 1.859374-7.347656.632813-.042969 1.269532-.109375 1.90625-.179688-3.039062-6.011718-4.992187-12.921875-5.511718-20.324218v.023437c-8.332032 5.714844-17.539063 8.847656-26.390625 9.480469-.796875 2.402344-1.421875 4.859375-1.855469 7.347656-46.730469 157.1875-136.621094 196.324219-153.777344 202.480469-9.183594 2.871093-18.097656 7.140625-26.441406 12.871093-44.933594 30.855469-56.347656 92.296876-25.492188 137.230469 14.566407 21.210938 35.824219 33.386719 58.992188 37.828125-11.136719-6.402344-21.0625-15.273437-29-26.832031zm0 0" fill="#7656e8"/><path d="m328.472656 61.472656c-12.90625-10.328125-28.578125-13.875-41.707031-10.761718-.285156.066406-.554687.171874-.824219.269531 10.265625 8.820312 16.796875 23.660156 16.351563 40.308593-.050781 1.917969-.203125 3.804688-.429688 5.664063 12.792969 9.960937 28.175781 13.371094 41.101563 10.304687 3.269531-.777343 5.570312-3.734374 5.550781-7.144531-.078125-13.679687-7.132813-28.3125-20.042969-38.640625zm0 0" fill="#6fd844"/><path d="m326.257812 99.183594c-2.023437-1.382813-3.070312-3.777344-2.921874-6.222656.039062-.644532.070312-1.292969.085937-1.941407.429687-16.210937-5.546875-30.714843-15.070313-39.785156-7.386718-1.949219-14.824218-2.128906-21.585937-.523437-.285156.066406-.554687.171874-.824219.269531 10.265625 8.820312 16.796875 23.660156 16.351563 40.308593-.050781 1.917969-.203125 3.804688-.429688 5.664063 12.792969 9.960937 28.175781 13.371094 41.101563 10.304687.253906-.0625.484375-.15625.726562-.242187-5.945312-1.4375-11.878906-4.042969-17.433594-7.832031zm0 0" fill="#5fbf32"/><path d="m258.378906 90.121094c.441406-16.648438 7.753906-31.117188 18.472656-39.382813-.265624-.113281-.527343-.230469-.808593-.3125-12.945313-3.808593-28.78125-1.097656-42.222657 8.53125-13.441406 9.625-21.261718 23.863281-22.066406 37.519531-.203125 3.402344 1.9375 6.476563 5.160156 7.425782 12.746094 3.75 28.289063 1.164062 41.59375-8.105469-.128906-1.863281-.179687-3.757813-.128906-5.675781zm0 0" fill="#6fd844"/><path d="m241.289062 96.476562c.804688-13.65625 8.625-27.894531 22.066407-37.519531 3.5625-2.550781 7.292969-4.601562 11.09375-6.191406.78125-.707031 1.578125-1.390625 2.402343-2.027344-.265624-.113281-.527343-.230469-.808593-.3125-12.941407-3.808593-28.78125-1.097656-42.21875 8.53125-13.441407 9.625-21.265625 23.863281-22.070313 37.519531-.199218 3.402344 1.9375 6.476563 5.164063 7.425782 8.425781 2.480468 18.074219 2.171875 27.488281-.992188-2.039062-1.410156-3.273438-3.820312-3.117188-6.433594zm0 0" fill="#5fbf32"/><path d="m286.039062 50.925781c-2.710937-2.199219-6.628906-2.300781-9.453124-.25-11.332032 8.238281-19.058594 22.726563-19.5 39.410157-.445313 16.683593 6.496093 31.5625 17.378906 40.390624 2.710937 2.199219 6.625 2.304688 9.449218.253907 11.335938-8.238281 19.058594-22.730469 19.503907-39.410157.441406-16.6875-6.5-31.5625-17.378907-40.394531zm0 0" fill="#6fd844"/><path d="m285.960938 90.085938c.292968-10.949219 3.734374-20.941407 9.257812-28.851563-2.574219-3.96875-5.667969-7.457031-9.183594-10.308594-2.710937-2.199219-6.625-2.300781-9.449218-.25-11.335938 8.238281-19.058594 22.726563-19.5 39.410157-.445313 16.683593 6.496093 31.5625 17.378906 40.390624 2.707031 2.199219 6.625 2.304688 9.449218.253907 3.894532-2.832031 7.347657-6.417969 10.242188-10.558594-5.398438-8.324219-8.496094-18.789063-8.195312-30.085937zm0 0" fill="#5fbf32"/><path d="m459.007812 107.167969c-8.902343-1.058594-18.050781-4.679688-26.15625-10.90625-1.753906 14.0625-8.582031 26.078125-18.097656 33.273437-2.675781 2.023438-6.390625 1.925782-8.957031-.238281-9.125-7.691406-15.304687-20.066406-16.300781-34.210937v.023437c-8.328125 5.71875-17.539063 8.847656-26.386719 9.484375-.800781 2.402344-1.425781 4.855469-1.859375 7.347656-46.730469 157.183594-136.621094 196.320313-153.777344 202.480469-9.183594 2.867187-18.09375 7.136719-26.441406 12.867187-44.933594 30.855469-56.347656 92.296876-25.492188 137.230469 30.855469 44.9375 91.753907 49.347657 137.230469 25.492188 206.859375-113.601563 171.527344-358.929688 171.527344-358.929688-.90625-9.175781-2.503906-16.789062-5.289063-23.914062zm0 0" fill="#8277f2"/><path d="m185.53125 475.515625c-30.855469-44.933594-19.441406-106.375 25.496094-137.230469 8.34375-5.730468 17.257812-10 26.4375-12.867187 17.15625-6.160157 107.046875-45.296875 153.777344-202.480469.4375-2.492188 1.058593-4.945312 1.859374-7.347656.632813-.042969 1.269532-.109375 1.90625-.179688-3.039062-6.011718-4.992187-12.921875-5.511718-20.324218v.023437c-8.328125 5.714844-17.539063 8.847656-26.386719 9.480469-.800781 2.402344-1.425781 4.859375-1.859375 7.347656-46.730469 157.1875-136.621094 196.320312-153.777344 202.480469-9.183594 2.871093-18.09375 7.140625-26.441406 12.867187-44.933594 30.859375-56.347656 92.296875-25.492188 137.234375 14.566407 21.207031 35.824219 33.386719 58.992188 37.828125-11.136719-6.402344-21.0625-15.273437-29-26.832031zm0 0" fill="#7656e8"/><path d="m459.441406 61.472656c-12.90625-10.328125-28.578125-13.875-41.707031-10.761718-.285156.066406-.554687.171874-.824219.269531 10.265625 8.820312 16.796875 23.660156 16.355469 40.308593-.050781 1.917969-.207031 3.804688-.433594 5.664063 12.792969 9.960937 28.179688 13.371094 41.101563 10.304687 3.273437-.777343 5.570312-3.734374 5.550781-7.144531-.078125-13.679687-7.132813-28.3125-20.042969-38.640625zm0 0" fill="#6fd844"/><path d="m457.230469 99.183594c-2.027344-1.382813-3.070313-3.777344-2.925781-6.222656.039062-.644532.070312-1.292969.085937-1.941407.433594-16.210937-5.546875-30.714843-15.070313-39.785156-7.386718-1.949219-14.824218-2.128906-21.585937-.523437-.285156.066406-.554687.171874-.824219.269531 10.265625 8.820312 16.796875 23.660156 16.355469 40.308593-.050781 1.917969-.207031 3.804688-.433594 5.664063 12.792969 9.960937 28.175781 13.371094 41.101563 10.304687.253906-.0625.488281-.15625.726562-.242187-5.941406-1.4375-11.878906-4.042969-17.429687-7.832031zm0 0" fill="#5fbf32"/><path d="m389.347656 90.121094c.441406-16.648438 7.753906-31.117188 18.472656-39.382813-.265624-.113281-.527343-.230469-.808593-.3125-12.941407-3.808593-28.78125-1.097656-42.21875 8.53125-13.441407 9.625-21.265625 23.863281-22.070313 37.519531-.203125 3.402344 1.9375 6.476563 5.164063 7.425782 12.742187 3.75 28.285156 1.164062 41.589843-8.105469-.128906-1.863281-.179687-3.757813-.128906-5.675781zm0 0" fill="#6fd844"/><path d="m372.257812 96.476562c.804688-13.65625 8.628907-27.894531 22.070313-37.519531 3.558594-2.550781 7.289063-4.601562 11.089844-6.191406.78125-.707031 1.578125-1.390625 2.402343-2.027344-.261718-.113281-.523437-.230469-.808593-.3125-12.941407-3.808593-28.78125-1.097656-42.21875 8.53125-13.441407 9.625-21.265625 23.863281-22.070313 37.519531-.199218 3.402344 1.9375 6.476563 5.164063 7.425782 8.425781 2.480468 18.074219 2.171875 27.488281-.992188-2.039062-1.410156-3.273438-3.820312-3.117188-6.433594zm0 0" fill="#5fbf32"/><path d="m417.007812 50.925781c-2.710937-2.199219-6.625-2.300781-9.449218-.25-11.335938 8.238281-19.058594 22.726563-19.503906 39.410157-.445313 16.683593 6.5 31.5625 17.378906 40.390624 2.710937 2.199219 6.625 2.304688 9.449218.253907 11.335938-8.238281 19.058594-22.730469 19.503907-39.410157.441406-16.683593-6.5-31.5625-17.378907-40.394531zm0 0" fill="#6fd844"/><path d="m416.929688 90.085938c.292968-10.949219 3.734374-20.941407 9.257812-28.851563-2.574219-3.96875-5.667969-7.457031-9.179688-10.308594-2.710937-2.199219-6.628906-2.300781-9.453124-.25-11.332032 8.238281-19.058594 22.726563-19.5 39.410157-.445313 16.683593 6.496093 31.5625 17.378906 40.390624 2.710937 2.199219 6.625 2.304688 9.449218.253907 3.894532-2.832031 7.351563-6.417969 10.242188-10.558594-5.398438-8.324219-8.492188-18.789063-8.195312-30.085937zm0 0" fill="#5fbf32"/><path d="m203.476562 366.882812c3.039063-2.8125 3.226563-7.558593.414063-10.597656-2.8125-3.039062-7.554687-3.226562-10.597656-.414062-18.300781 16.921875-25.832031 41.371094-21.816407 64.511718.707032 4.089844 4.597657 6.816407 8.667969 6.109376 4.082031-.710938 6.816407-4.589844 6.105469-8.671876-3.164062-18.269531 2.769531-37.574218 17.226562-50.9375zm0 0"/><path d="m60.621094 355.871094c-18.300782 16.921875-25.835938 41.371094-21.816406 64.515625.707031 4.085937 4.597656 6.8125 8.667968 6.105469 4.082032-.707032 6.8125-4.589844 6.105469-8.667969-3.152344-18.1875 2.710937-37.523438 17.222656-50.941407 3.042969-2.8125 3.226563-7.558593.417969-10.597656-2.8125-3.039062-7.558594-3.226562-10.597656-.414062zm0 0"/><path d="m460.894531 242.023438c-4.082031-.714844-7.972656 1.996093-8.695312 6.070312-13.09375 73.667969-52.039063 174.300781-163.246094 235.402344-13.183594 6.902344-27.949219 11.339844-42.703125 12.824218-4.121094.414063-7.125 4.089844-6.707031 8.210938.386719 3.863281 3.644531 6.746094 7.449219 6.746094.25 0 .503906-.011719.761718-.039063 17.441406-1.753906 34.65625-7.234375 48.355469-14.5625 116.453125-63.957031 157.1875-169.050781 170.855469-245.957031.722656-4.074219-1.996094-7.96875-6.070313-8.695312zm0 0"/><path d="m463.816406 55.515625c-12.957031-10.21875-28.988281-14.84375-43.707031-12.816406 2.761719-24.195313 16.074219-27.6875 16.6875-27.835938l-.148437.03125-.003907-.015625c3.53125-.605468 6.21875-3.675781 6.21875-7.378906 0-4.144531-3.355469-7.5-7.496093-7.5-.5625 0-1.109376.0664062-1.636719.183594-1.632813.332031-25.113281 5.777344-28.664063 42.199218-21.496094-4.382812-45.941406 5.71875-59.894531 25.296876-13.09375-17.757813-35.085937-27.789063-55.511719-24.980469 2.75-24.082031 15.949219-27.65625 16.675782-27.832031 3.429687-.691407 6.015624-3.71875 6.015624-7.351563 0-4.140625-3.359374-7.5-7.5-7.5-.535156 0-1.058593.0585938-1.5625.167969-1.589843.320312-25.113281 5.738281-28.671874 42.199218-32.800782-6.6875-68.125 20.117188-70.082032 53.019532-.410156 6.890625 3.933594 13.046875 10.5625 14.96875 2.484375.71875 5.035156 1.226562 7.628906 1.542968-45.65625 151.359376-131.210937 189.292969-148.367187 195.488282-68.230469 21.449218-95.929687 102.894531-55.722656 161.449218 29.992187 43.675782 93.894531 58.671876 153.886719 23.945313 11.019531 7.882813 23.773437 13.480469 37.910156 16.515625.53125.113281 1.0625.167969 1.582031.167969 3.460937 0 6.570313-2.410157 7.324219-5.925781.867187-4.050782-1.707032-8.035157-5.757813-8.90625-84.683593-18.175782-95.53125-140.996094-3.851562-173.082032 39.167969-14.066406 91.863281-56.726562 129.761719-133.476562 15.347656-31.011719 26.984374-66.308594 29.226562-76.570313 5.058594-.847656 10.050781-2.382812 14.847656-4.550781 2.992188 11.632812 9.1875 21.457031 17.125 28.148438 5.335938 4.5 12.925782 4.558593 18.3125.488281 8.097656-6.121094 14.921875-15.519531 18.597656-27.199219 4.96875 2.570312 10.195313 4.4375 15.539063 5.53125 6.28125 19.988281 6.863281 66.648438 3.722656 99.769531-.390625 4.125 2.636719 7.78125 6.757813 8.171875 4.125.390625 7.78125-2.632812 8.171875-6.757812 3.984375-42.011719 1.484375-82.328125-2.859375-100.273438 2.179687-.203125 4.339844-.53125 6.453125-1.023437 6.722656-1.566407 11.386719-7.480469 11.34375-14.382813-.097657-16.269531-8.664063-32.691406-22.914063-43.925781zm-157.617187-40.621094v-.007812c.039062-.007813.082031-.011719.125-.019531zm-24.710938 42.003907c18.90625 16.199218 17.839844 51.523437-1.769531 66.589843-18.652344-15.976562-18.113281-51.304687 1.769531-66.589843zm-61.964843 39.140624c1.363281-20.261718 21.160156-38.089843 42.050781-39.597656-6.703125 9.726563-10.460938 22.050782-10.445313 34.707032-9.816406 5.640624-21.4375 7.75-31.605468 4.890624zm108.828124 80.714844c-36.246093 75.875-87.394531 117.605469-123.546874 130.648438-76.542969 24.0625-98.628907 120.617187-44.441407 175.0625-40.953125 22.890625-100.207031 20.355468-129.363281-22.101563-34.550781-50.316406-10.726562-120.332031 47.992188-138.699219.097656-.03125.195312-.0625.292968-.097656 18.089844-6.492187 110.746094-47.003906 158.433594-207.398437.140625-.480469.316406-1.5625.554688-2.648438 5.058593-.847656 10.050781-2.382812 14.847656-4.550781 2.765625 10.757812 8.558594 20.929688 17.125 28.148438 5.199218 4.386718 12.777344 4.671874 18.3125.488281 8.203125-6.203125 14.964844-15.660157 18.597656-27.199219 4.96875 2.570312 10.195312 4.4375 15.539062 5.535156 4.828126 15.367188 5.8125 46.5625 5.65625 62.8125zm7.089844-76.695312c-7.828125.378906-16.945312-1.839844-25.457031-7.355469.667969-11.972656-2.121094-24.660156-8.585937-35.203125 14.757812 1.859375 29.046874 12.042969 35.847656 25.863281-1.421875 4.480469-3.03125 12.050781-1.804688 16.695313zm6.925782 43.816406c-.589844-8.078125-1.84375-20.609375-3.878907-29.023438 6.082031-.566406 9.027344-1.515624 11.65625-3.398437 1.003907.183594 2.011719.339844 3.03125.460937-3.398437 11.265626-7.011719 21.917969-10.808593 31.960938zm39.207031-52.726562c-11.363281 6.53125-23.519531 7.382812-31.601563 4.886718 1.464844-20.363281 21.160156-38.085937 42.050782-39.59375-6.445313 9.355469-10.464844 21.625-10.449219 34.707032zm43.5625 4.277343c-.664063 1-1.015625 17.339844-14.972657 28.0625-18.710937-16.03125-18.035156-51.363281 1.769532-66.589843 10.574218 9.058593 14.976562 24.265624 13.203125 38.527343zm15.296875-2.722656c.660156-12.148437-2.183594-24.753906-8.589844-35.203125 7.84375.988281 15.792969 4.351562 22.6875 9.789062 10.621094 8.378907 17.039062 20.316407 17.199219 31.988282-10.664063 2.398437-22.167969-.660156-31.296875-6.574219zm0 0"/></svg>