<svg height="511pt" viewBox="-29 0 511 511.998" width="511pt" xmlns="http://www.w3.org/2000/svg"><g fill="#ffc850"><path d="m253.660156 34.03125c0 14.703125-11.921875 26.621094-26.621094 26.621094-14.703124 0-26.625-11.917969-26.625-26.621094s11.921876-26.621094 26.625-26.621094c14.699219 0 26.621094 11.917969 26.621094 26.621094zm0 0"/><path d="m253.660156 477.785156c0 14.703125-11.921875 26.625-26.621094 26.625-14.703124 0-26.625-11.921875-26.625-26.625 0-14.699218 11.921876-26.621094 26.625-26.621094 14.699219 0 26.621094 11.921876 26.621094 26.621094zm0 0"/><path d="m57.9375 353.527344c-7.351562-12.730469-23.632812-17.09375-36.363281-9.742188-12.734375 7.351563-17.09375 23.632813-9.746094 36.363282 7.351563 12.734374 23.632813 17.097656 36.367187 9.746093 12.730469-7.351562 17.09375-23.632812 9.742188-36.367187zm0 0"/><path d="m442.230469 131.65625c-7.351563-12.734375-23.632813-17.09375-36.363281-9.746094-12.734376 7.351563-17.09375 23.632813-9.746094 36.367188 7.351562 12.730468 23.632812 17.09375 36.367187 9.742187 12.730469-7.351562 17.09375-23.632812 9.742188-36.363281zm0 0"/></g><path d="m230.25 34.03125c0-9.175781 4.644531-17.265625 11.707031-22.050781-4.257812-2.886719-9.390625-4.570313-14.917969-4.570313-14.703124 0-26.621093 11.917969-26.621093 26.621094s11.917969 26.621094 26.621093 26.621094c5.527344 0 10.660157-1.6875 14.917969-4.570313-7.0625-4.785156-11.707031-12.875-11.707031-22.050781zm0 0" fill="#feb644"/><path d="m230.25 477.785156c0-9.171875 4.644531-17.261718 11.707031-22.050781-4.257812-2.882813-9.390625-4.570313-14.917969-4.570313-14.703124 0-26.621093 11.921876-26.621093 26.621094 0 14.703125 11.917969 26.625 26.621093 26.625 5.527344 0 10.660157-1.6875 14.917969-4.570312-7.0625-4.789063-11.707031-12.878906-11.707031-22.054688zm0 0" fill="#feb644"/><path d="m41.664062 380.160156c-7.03125-12.183594-3.335937-27.609375 8.148438-35.359375-8.175781-5.527343-19.117188-6.273437-28.238281-1.007812-12.730469 7.351562-17.09375 23.632812-9.742188 36.367187 7.347657 12.730469 23.632813 17.09375 36.363281 9.742188.550782-.316406 1.078126-.65625 1.597657-1.003906-3.238281-2.191407-6.042969-5.128907-8.128907-8.738282zm0 0" fill="#feb644"/><path d="m425.96875 158.28125c-7.03125-12.183594-3.335938-27.609375 8.148438-35.359375-8.175782-5.527344-19.117188-6.273437-28.238282-1.007813-12.734375 7.351563-17.097656 23.632813-9.746094 36.367188 7.351563 12.734375 23.632813 17.097656 36.367188 9.746094.550781-.320313 1.078125-.660156 1.597656-1.007813-3.238281-2.191406-6.042968-5.125-8.128906-8.738281zm0 0" fill="#feb644"/><path d="m315.285156 200.675781-84.539062-48.808593c-2.296875-1.324219-5.121094-1.324219-7.417969 0l-84.539063 48.808593c-2.296874 1.328125-3.707031 3.773438-3.707031 6.425781v97.617188c0 2.648438 1.414063 5.097656 3.707031 6.421875l84.539063 48.808594c2.296875 1.324219 5.121094 1.324219 7.417969 0l84.539062-48.808594c2.292969-1.324219 3.707032-3.773437 3.707032-6.421875v-97.617188c0-2.652343-1.414063-5.101562-3.707032-6.425781zm0 0" fill="#ffc850"/><path d="m168.792969 311.140625c-2.296875-1.324219-3.710938-3.773437-3.710938-6.421875v-97.617188c0-2.652343 1.414063-5.101562 3.710938-6.425781l73.246093-42.289062-11.292968-6.515625c-2.296875-1.328125-5.121094-1.328125-7.417969 0l-84.539063 48.808594c-2.296874 1.324218-3.707031 3.773437-3.707031 6.421874v97.617188c0 2.648438 1.414063 5.097656 3.707031 6.421875l84.539063 48.808594c2.296875 1.324219 5.121094 1.324219 7.417969 0l11.292968-6.519531zm0 0" fill="#feb644"/><path d="m278.671875 221.816406-47.925781-27.667968c-2.292969-1.328126-5.121094-1.328126-7.417969 0l-47.921875 27.667968c-2.296875 1.324219-3.710938 3.773438-3.710938 6.421875v55.339844c0 2.652344 1.414063 5.101563 3.710938 6.425781l47.921875 27.667969c2.296875 1.324219 5.125 1.324219 7.417969 0l47.925781-27.667969c2.292969-1.328125 3.707031-3.773437 3.707031-6.425781v-55.339844c0-2.648437-1.414062-5.097656-3.707031-6.421875zm0 0" fill="#feb644"/><path d="m205.40625 290.003906c-2.296875-1.328125-3.707031-3.773437-3.707031-6.425781v-55.339844c0-2.648437 1.414062-5.097656 3.707031-6.421875l36.632812-21.148437-11.292968-6.519531c-2.296875-1.328126-5.121094-1.328126-7.417969 0l-47.925781 27.667968c-2.292969 1.324219-3.707032 3.773438-3.707032 6.421875v55.339844c0 2.652344 1.414063 5.101563 3.707032 6.425781l47.925781 27.667969c2.296875 1.324219 5.121094 1.324219 7.417969 0l11.292968-6.519531zm0 0" fill="#f9972d"/><path d="m215.761719 198.449219c-2.074219-3.589844-6.660157-4.816407-10.246094-2.746094l-34.132813 19.707031c-4.601562 2.65625-7.460937 7.605469-7.460937 12.917969v55.339844c0 5.316406 2.859375 10.265625 7.460937 12.921875l47.925782 27.667968c4.597656 2.65625 10.3125 2.652344 14.914062 0l47.925782-27.667968c4.601562-2.65625 7.460937-7.605469 7.460937-12.921875v-55.339844c0-5.3125-2.859375-10.261719-7.460937-12.917969l-34.132813-19.707031c-3.589844-2.070313-8.175781-.839844-10.242187 2.746094-2.074219 3.589843-.84375 8.175781 2.742187 10.246093l34.089844 19.632813.042969 55.269531-47.84375 27.667969-47.878907-27.597656-.042969-55.265625 34.132813-19.707032c3.585937-2.074218 4.816406-6.660156 2.746094-10.246093zm0 0"/><path d="m318.722656 245.996094c4.140625 0 7.5-3.355469 7.5-7.5v-31.257813l67.613282-39.039062c10.425781 11.34375 27.859374 14.65625 42.140624 6.410156 16.296876-9.40625 21.898438-30.316406 12.492188-46.613281-9.40625-16.292969-30.316406-21.894532-46.613281-12.488282-14.0625 8.121094-20.152344 24.804688-15.511719 39.695313l-67.621094 39.042969-84.457031-48.761719v-78.082031c15.21875-3.425782 26.621094-17.042969 26.621094-33.28125 0-18.8125-15.304688-34.121094-34.121094-34.121094s-34.121094 15.308594-34.121094 34.121094c0 16.238281 11.402344 29.855468 26.621094 33.28125v78.085937l-84.496094 48.78125c-4.601562 2.65625-7.460937 7.605469-7.460937 12.921875v97.570313l-67.613282 39.035156c-10.382812-11.292969-27.808593-14.683594-42.140624-6.410156-16.296876 9.410156-21.898438 30.320312-12.492188 46.613281 6.269531 10.855469 17.652344 17.074219 29.605469 17.074219 22.851562 0 39.359375-22.328125 32.519531-44.28125l67.621094-39.042969 84.457031 48.761719v78.082031c-15.21875 3.429688-26.621094 17.046875-26.621094 33.28125 0 18.816406 15.304688 34.121094 34.121094 34.121094s34.121094-15.304688 34.121094-34.121094c0-16.238281-11.402344-29.851562-26.621094-33.28125v-78.082031l84.496094-48.785157c4.601562-2.65625 7.460937-7.605468 7.460937-12.917968v-31.308594c0-4.144531-3.359375-7.5-7.5-7.5-4.144531 0-7.5 3.355469-7.5 7.5l.039063 31.234375-84.441407 48.800781c-.011718 0-.019531 0-.03125 0l-84.464843-48.71875c-.003907-.011718-.007813-.023437-.015625-.03125l-.042969-97.523437 84.445313-48.800781h.027343l84.46875 48.71875c.003907.011718.007813.019531.015625.03125v31.285156c0 4.144531 3.355469 7.5 7.5 7.5zm-274.546875 137.5c-9.152343 5.285156-20.835937 2.15625-26.121093-6.996094-5.273438-9.132812-2.132813-20.851562 7-26.121094 9.152343-5.285156 20.832031-2.15625 26.117187 7 5.273437 9.128906 2.132813 20.847656-6.996094 26.117188zm201.710938 94.378906c0 10.546875-8.578125 19.125-19.121094 19.125s-19.121094-8.578125-19.121094-19.125c0-10.542969 8.578125-19.121094 19.121094-19.121094s19.121094 8.578125 19.121094 19.121094zm163.46875-349.375c9.132812-5.273438 20.851562-2.132812 26.121093 7 5.273438 9.128906 2.132813 20.847656-7 26.121094-9.152343 5.285156-20.835937 2.152344-26.117187-7-5.273437-9.132813-2.132813-20.847656 6.996094-26.121094zm-201.710938-94.378906c0-10.542969 8.578125-19.121094 19.121094-19.121094s19.121094 8.578125 19.121094 19.121094c0 10.542968-8.578125 19.121094-19.121094 19.121094s-19.121094-8.578126-19.121094-19.121094zm0 0"/></svg>