<svg height="511pt" viewBox="0 0 511 511.99951" width="511pt" xmlns="http://www.w3.org/2000/svg"><path d="m505.558594 230.324219c0-56.226563-33.488282-104.625-81.605469-126.351563-21.289063-9.613281-39.84375-24.203125-54.226563-42.613281-25.65625-32.835937-65.621093-53.945313-110.523437-53.945313-58.714844 0-108.992187 36.097657-129.867187 87.3125-9.433594 23.152344-24.445313 43.644532-44.292969 58.851563-46.242188 35.429687-76.203125 91.039063-76.714844 153.671875-.878906 107.695312 86.460937 196.421875 194.160156 197.160156 72.742188.496094 136.363281-38.730468 170.457031-97.269531 13.308594-22.859375 33.117188-41.222656 56.703126-53.199219 45.042968-22.875 75.910156-69.640625 75.910156-123.617187zm0 0" fill="#e4eaf8"/><path d="m38.34375 307.25c.511719-62.632812 30.472656-118.242188 76.714844-153.671875 19.847656-15.207031 34.859375-35.699219 44.296875-58.851563 19.070312-46.796874 62.699219-80.953124 114.878906-86.503906-4.941406-.523437-9.953125-.808594-15.03125-.808594-58.714844 0-108.992187 36.097657-129.867187 87.3125-9.433594 23.152344-24.445313 43.644532-44.292969 58.851563-46.242188 35.429687-76.203125 91.039063-76.714844 153.671875-.878906 107.695312 86.460937 196.421875 194.160156 197.160156 5.546875.035156 11.039063-.160156 16.472657-.574218-101.378907-7.714844-181.457032-93.441407-180.617188-196.585938zm0 0" fill="#d8dce5"/><path d="m337.835938 259.480469c0 60.425781-48.984376 109.410156-109.410157 109.410156s-109.414062-48.984375-109.414062-109.410156 48.988281-109.410157 109.414062-109.410157 109.410157 48.984376 109.410157 109.410157zm0 0" fill="#feb644"/><path d="m149.945312 259.480469c0-55.175781 40.84375-100.804688 93.945313-108.316407-5.054687-.71875-10.214844-1.09375-15.464844-1.09375-60.425781 0-109.414062 48.984376-109.414062 109.410157s48.984375 109.410156 109.414062 109.410156c5.25 0 10.410157-.378906 15.464844-1.09375-53.101563-7.515625-93.945313-53.140625-93.945313-108.316406zm0 0" fill="#f9972d"/><path d="m299.457031 268.144531c4.144531 0 7.503907-3.359375 7.503907-7.503906 0-15.894531-4.65625-31.246094-13.46875-44.398437-2.304688-3.445313-6.96875-4.367188-10.410157-2.058594-3.441406 2.304687-4.363281 6.964844-2.058593 10.410156 7.148437 10.671875 10.929687 23.136719 10.929687 36.042969 0 4.148437 3.359375 7.507812 7.503906 7.507812zm0 0"/><path d="m259.277344 204.308594c1.175781.675781 2.457031.992187 3.722656.992187 2.601562 0 5.132812-1.355469 6.519531-3.773437 2.058594-3.597656.8125-8.183594-2.78125-10.242188-2.792969-1.597656-5.707031-3.042968-8.664062-4.289062-3.816407-1.605469-8.21875.183594-9.828125 4.003906-1.609375 3.816406.183594 8.21875 4 9.828125 2.398437 1.011719 4.765625 2.183594 7.03125 3.480469zm0 0"/><path d="m210.9375 159.117188c4.085938-.695313 6.835938-4.570313 6.140625-8.65625-.691406-4.085938-4.5625-6.835938-8.652344-6.140626-55.382812 9.417969-97.1875 57.65625-97.1875 115.25 0 64.464844 52.445313 116.914063 116.914063 116.914063 100.058594 0 153.695312-118.132813 88.363281-193.472656-18.222656-21.015625-43.328125-34.875-70.6875-39.027344-4.089844-.625-7.921875 2.195313-8.546875 6.292969-.621094 4.097656 2.195312 7.925781 6.292969 8.546875 49.304687 7.480469 86.484375 50.789062 86.484375 100.746093 0 56.191407-45.714844 101.90625-101.90625 101.90625s-101.90625-45.714843-101.90625-101.90625c0-49.863281 35.617187-92.109374 84.691406-100.453124zm0 0"/><path d="m379.15625 411.007812c12.476562-21.421874 31.015625-38.808593 53.617188-50.289062 42.941406-21.804688 72.367187-63.242188 78.710937-110.84375.546875-4.105469-2.335937-7.878906-6.445313-8.429688-4.101562-.546874-7.882812 2.339844-8.429687 6.449219-5.691406 42.699219-32.09375 79.875-70.628906 99.445313-25.183594 12.789062-45.859375 32.191406-59.792969 56.113281-62.160156 106.738281-208.902344 126.15625-296.390625 37.339844-79.691406-80.890625-70.351563-212.296875 19.539063-281.167969 20.375-15.613281 36.519531-37.042969 46.675781-61.976562 20.460937-50.203126 68.710937-82.640626 122.917969-82.640626 41.128906 0 79.257812 18.613282 104.613281 51.0625 15.0625 19.28125 34.789062 34.78125 57.050781 44.832032 41.644531 18.800781 70.863281 58.59375 76.25 103.851562.488281 4.113282 4.210938 7.058594 8.335938 6.5625 4.117187-.488281 7.054687-4.222656 6.566406-8.335937-6.003906-50.449219-38.566406-94.804688-84.976563-115.757813-20.050781-9.050781-37.824219-23.019531-51.398437-40.390625-28.222656-36.117187-70.660156-56.832031-116.441406-56.832031-29.933594 0-58.757813 8.910156-83.363282 25.765625-24.015625 16.449219-42.5 39.347656-53.449218 66.21875-9.15625 22.464844-23.648438 41.734375-41.910157 55.726563-96.988281 74.308593-107.191406 216.222656-21.101562 303.617187 94.605469 96.035156 253.054687 74.71875 320.050781-40.320313zm0 0"/></svg>