<svg height="511pt" viewBox="-50 1 511 511.99845" width="511pt" xmlns="http://www.w3.org/2000/svg"><path d="m124.191406 362.5625c0-78.285156 61.460938-139.746094 139.746094-139.746094 4.667969 0 9.28125.230469 13.832031.671875-14.375-36.082031-38.484375-67.191406-68.125-84.0625-4.195312-2.390625-7.601562-5.980469-9.609375-10.371093-9.816406-21.453126-28.453125-35.941407-49.839844-35.941407-21.386718 0-40.027343 14.488281-49.839843 35.941407-2.011719 4.390624-5.414063 7.980468-9.613281 10.371093-48.777344 27.765625-82.636719 88.644531-82.636719 159.285157 0 70.640624 33.855469 131.519531 82.636719 159.289062 4.199218 2.390625 7.601562 5.976562 9.613281 10.371094 9.8125 21.453125 28.453125 35.9375 49.839843 35.9375 15.714844 0 29.945313-9.832032 40.28125-22.496094-40.933593-24.851562-66.285156-67.855469-66.285156-119.25zm0 0" fill="#6fd844"/><path d="m130.351562 468.371094c-2.007812-4.394532-5.414062-7.980469-9.613281-10.371094-48.777343-27.769531-82.636719-88.648438-82.636719-159.289062 0-70.640626 33.855469-131.519532 82.636719-159.285157 4.199219-2.390625 7.601563-5.980469 9.613281-10.371093 7.433594-16.246094 19.925782-28.492188 34.839844-33.480469-4.777344-1.601563-9.804687-2.460938-14.996094-2.460938-21.386718 0-40.027343 14.488281-49.839843 35.9375-2.007813 4.394531-5.414063 7.980469-9.613281 10.371094-48.777344 27.769531-82.632813 88.648437-82.632813 159.289063 0 70.640624 33.855469 131.519531 82.632813 159.289062 4.199218 2.390625 7.601562 5.976562 9.613281 10.371094 9.8125 21.449218 28.453125 35.9375 49.839843 35.9375 4.9375 0 9.730469-.972656 14.300782-2.699219-14.605469-5.128906-26.828125-17.246094-34.144532-33.238281zm0 0" fill="#5fbf32"/><path d="m405.683594 362.5625c0 78.285156-63.460938 141.746094-141.746094 141.746094s-141.746094-63.460938-141.746094-141.746094 63.460938-141.746094 141.746094-141.746094 141.746094 63.460938 141.746094 141.746094zm0 0" fill="#5fbf32"/><path d="m152.1875 362.5625c0-73.21875 55.515625-133.464844 126.75-140.957031-4.929688-.515625-9.933594-.789063-15-.789063-78.285156 0-141.746094 63.460938-141.746094 141.746094s63.460938 141.746094 141.746094 141.746094c5.066406 0 10.070312-.269532 15-.789063-71.234375-7.492187-126.75-67.738281-126.75-140.957031zm0 0" fill="#54af25"/><path d="m373.746094 362.5625c0 60.648438-49.164063 109.8125-109.808594 109.8125-60.648438 0-109.8125-49.164062-109.8125-109.8125 0-60.644531 49.164062-109.808594 109.8125-109.808594 60.644531 0 109.808594 49.164063 109.808594 109.808594zm0 0" fill="#6fd844"/><path d="m191.5625 362.5625c0-54.265625 39.363281-99.328125 91.09375-108.214844-6.085938-1.042968-12.335938-1.59375-18.71875-1.59375-60.648438 0-109.8125 49.164063-109.8125 109.808594 0 60.648438 49.164062 109.8125 109.8125 109.8125 6.382812 0 12.632812-.554688 18.71875-1.597656-51.730469-8.886719-91.09375-53.949219-91.09375-108.214844zm0 0" fill="#5fbf32"/><path d="m127.734375 40.625c-.273437-1.554688-1.285156-2.757812-2.769531-3.296875-14.933594-5.410156-34.765625-1.269531-50.65625 12.078125s-23.390625 32.167969-20.636719 47.8125c.273437 1.554688 1.285156 2.757812 2.769531 3.296875 14.933594 5.410156 34.765625 1.269531 50.652344-12.078125 15.894531-13.347656 23.394531-32.167969 20.640625-47.8125zm0 0" fill="#6fd844"/><path d="m83.667969 97.21875c-2.753907-15.644531 4.746093-34.464844 20.636719-47.8125 6.605468-5.546875 13.894531-9.480469 21.230468-11.824219-.183594-.09375-.371094-.179687-.570312-.253906-14.933594-5.414063-34.765625-1.269531-50.65625 12.078125s-23.390625 32.167969-20.636719 47.8125c.273437 1.554688 1.285156 2.757812 2.769531 3.292969 8.726563 3.164062 19.121094 3.039062 29.425782-.25-1.171876-.613281-1.960938-1.695313-2.199219-3.042969zm0 0" fill="#5fbf32"/><path d="m263.664062 245.34375c-31.9375 0-61.546874 12.964844-82.949218 34.359375-73.855469 73.875-20.84375 200.257813 82.949218 200.257813 64.652344 0 117.308594-52.617188 117.308594-117.308594 0-64.65625-52.617187-117.308594-117.308594-117.308594zm77.421876 184.121094-59.316407-59.3125h83.929688c-1.644531 22.578125-10.644531 43.148437-24.613281 59.3125zm-179.457032-59.3125h83.929688l-59.3125 59.316406c-13.972656-16.167969-22.972656-36.738281-24.617188-59.316406zm24.617188-74.3125 59.3125 59.3125h-83.929688c1.644532-22.578125 10.644532-43.148438 24.617188-59.3125zm84.917968-35.222656c22.578126 1.644531 43.148438 10.644531 59.316407 24.617187l-59.316407 59.3125zm-15 83.929687-59.3125-59.3125c16.164063-13.972656 36.734376-22.972656 59.3125-24.617187zm0 36.210937v83.929688c-22.578124-1.644531-43.148437-10.644531-59.3125-24.613281zm15 0 59.316407 59.316407c-16.167969 13.96875-36.738281 22.96875-59.316407 24.613281zm10.605469-25.605468 59.316407-59.3125c13.96875 16.164062 22.96875 36.734375 24.613281 59.3125zm0 0"/><path d="m141.265625 86.40625c-20.132813 3.269531-38.03125 17.828125-48 39.617188-1.324219 2.894531-3.574219 5.304687-6.503906 6.976562-114.875 65.390625-115.160157 266.046875 0 331.605469 2.929687 1.667969 5.179687 4.082031 6.503906 6.976562 7.042969 15.390625 18.316406 27.582031 31.753906 34.332031 3.699219 1.855469 8.207031.363282 10.066407-3.335937 1.855468-3.699219.363281-8.207031-3.335938-10.066406-10.394531-5.222657-19.21875-14.871094-24.847656-27.167969-2.640625-5.777344-7.042969-10.539062-12.722656-13.769531-47.894532-27.269531-78.84375-87.234375-78.84375-152.773438 0-65.539062 30.949218-125.503906 78.84375-152.769531 5.683593-3.234375 10.082031-7.996094 12.722656-13.769531 6.933594-15.148438 18.453125-25.832031 31.535156-29.824219-.511719 4.425781 2.9375 8.355469 7.453125 8.355469 3.679687 0 6.894531-2.714844 7.417969-6.464844.152344-1.117187.328125-2.261719.507812-3.421875 16.136719 1.636719 30.878906 13.332031 39.125 31.355469 2.640625 5.769531 7.039063 10.53125 12.722656 13.769531 25.050782 14.257812 46.085938 37.933594 60.097657 67.390625-85.394531-1.191406-154.496094 69.675781-151.226563 154.90625 1.714844 45.5625 24.398438 89.382813 64.046875 116.953125-5.222656 4.699219-11.109375 8.085938-17.347656 9.945312-3.96875 1.183594-6.226563 5.359376-5.042969 9.328126 1.183594 3.972656 5.359375 6.226562 9.328125 5.046874 9.691407-2.890624 18.660157-8.453124 26.238281-16.207031 92.167969 50.890625 207.164063-7.902343 220.019532-112.328125.507812-4.109375-2.414063-7.855468-6.527344-8.359375-4.085938-.511719-7.851562 2.414063-8.355469 6.527344-8.261719 67.078125-65.539062 117.664063-133.230469 117.664063-74.152343 0-134.25-60.371094-134.25-134.246094 0-78.613282 67.800782-141.21875 147.183594-133.625 61.933594 5.960937 112.566406 54.28125 120.296875 117.042968.503907 4.109376 4.253907 7.046876 8.355469 6.523438 4.113281-.503906 7.035156-4.246094 6.527344-8.355469-8.394532-68.191406-62.339844-121.042969-129.035156-129.605469-15.183594-35.75-39.789063-64.632812-69.65625-81.636718-2.933594-1.667969-5.183594-4.078125-6.503907-6.976563-10.28125-22.464843-28.988281-37.238281-49.886719-39.886719 6.441407-27.386718 18.777344-53.160156 38.671876-73.375 2.902343-2.953124 2.867187-7.699218-.085938-10.605468-2.949219-2.902344-7.699219-2.867188-10.605469.085937-8.597656 8.738281-15.671875 18.136719-21.496093 27.761719-7.210938-.328125-21.40625-.308594-36.761719 3.304688-10.476563-5.710938-36.164063-6.054688-57.898438 12.207031-16.847656 14.152343-25.667969 35.023437-22.472656 53.171875.734375 4.152344 3.535156 7.488281 7.5 8.925781 35.277344 12.785156 80.851563-21.53125 79.332031-60.363281 8.367188-1.703125 16.269532-2.25 22.308594-2.347656-6.765625 14.300781-11.128906 28.59375-13.921875 41.507812zm-80.722656 7.710938c-2.859375-27.28125 30.832031-55.605469 57.234375-48.078126 2.859375 27.285157-30.835938 55.605469-57.234375 48.078126zm0 0"/></svg>