<svg height="511pt" viewBox="-105 0 511 511.99867" width="511pt" xmlns="http://www.w3.org/2000/svg"><path d="m248.929688 210.683594c4.730468-9.609375 8.226562-19.867188 10.207031-30.742188 6.730469-36.9375-3.175781-84.089844-40.222657-105.144531-20.835937-11.703125-45.640624-11.800781-65.191406-.027344-.644531.386719-1.363281.582031-2.082031.585938h-.058594c-.71875-.003907-1.4375-.199219-2.082031-.585938-19.550781-11.773437-44.359375-11.675781-65.191406.027344-40.199219 23-56.289063 82.226563-29.726563 135.886719zm0 0" fill="#f25c5c"/><path d="m115.058594 74.792969c5.660156-3.175781 11.613281-5.492188 17.671875-6.953125-15.863281-3.941406-33.203125-1.59375-48.421875 6.953125-40.203125 23.003906-56.289063 82.226562-29.730469 135.890625h30.753906c-26.558593-53.660156-10.472656-112.886719 29.726563-135.890625zm0 0" fill="#d83f3f"/><path d="m157.578125 36.835938-5.816406-9.859376c-6.875-11.660156-22.039063-15.574218-33.699219-8.699218l-9.863281 5.816406c-1.039063.613281-1.386719 1.953125-.773438 2.992188l5.816407 9.863281c6.875 11.660156 22.039062 15.574219 33.699218 8.695312l9.863282-5.8125c1.039062-.613281 1.386718-1.957031.773437-2.996093zm0 0" fill="#6fd844"/><path d="m143.992188 36.949219-5.8125-9.863281c-.613282-1.039063-.269532-2.378907.773437-2.992188l6.761719-3.992188c-7.742188-6.023437-18.722656-7.089843-27.652344-1.824218l-9.863281 5.816406c-1.039063.613281-1.386719 1.953125-.773438 2.992188l5.816407 9.863281c6.875 11.660156 22.039062 15.574219 33.699218 8.695312l3.097656-1.824219c-2.367187-1.84375-4.433593-4.140624-6.046874-6.871093zm0 0" fill="#5fbf32"/><path d="m99.019531 276.6875h104.601563v29.5h-104.601563zm0 0" fill="#d8dce5"/><path d="m99.019531 276.6875h30.75v29.5h-30.75zm0 0" fill="#c3c8d1"/><path d="m288.917969 207.597656h-275.195313c-3.5 0-6.101562 3.261719-5.304687 6.667969 5.734375 24.472656 27.207031 45.746094 57.796875 59.695313 6.761718 3.085937 14.136718 4.601562 21.566406 4.601562h127.074219c7.433593 0 14.804687-1.515625 21.566406-4.601562 30.589844-13.949219 52.0625-35.222657 57.796875-59.695313.800781-3.40625-1.800781-6.667969-5.300781-6.667969zm0 0" fill="#e4eaf8"/><path d="m39.171875 214.265625c-.800781-3.40625 1.804687-6.667969 5.304687-6.667969h-30.753906c-3.5 0-6.101562 3.261719-5.304687 6.667969 5.738281 24.472656 27.210937 45.746094 57.796875 59.695313 6.761718 3.085937 14.136718 4.601562 21.566406 4.601562h30.753906c-7.433594 0-14.804687-1.515625-21.566406-4.601562-30.589844-13.949219-52.0625-35.222657-57.796875-59.695313zm0 0" fill="#d8dce5"/><path d="m230.664062 314.324219c-1.050781-6.433594-6.609374-11.15625-13.128906-11.15625h-132.429687c-6.519531 0-12.078125 4.722656-13.128907 11.15625l-26.851562 166.597656h212.390625zm0 0" fill="#707487"/><path d="m115.855469 303.167969h-30.75c-6.519531 0-12.078125 4.722656-13.128907 11.15625l-26.851562 166.597656h30.75l26.851562-166.597656c1.050782-6.433594 6.609376-11.15625 13.128907-11.15625zm0 0" fill="#52586d"/><path d="m203.621094 391.574219c0 28.886719-23.414063 52.300781-52.300782 52.300781-28.886718 0-52.300781-23.414062-52.300781-52.300781s23.414063-52.300781 52.300781-52.300781c28.886719 0 52.300782 23.414062 52.300782 52.300781zm0 0" fill="#e4eaf8"/><path d="m129.769531 391.574219c0-23.53125 15.546875-43.433594 36.925781-50-4.859374-1.492188-10.023437-2.300781-15.375-2.300781-28.886718 0-52.300781 23.414062-52.300781 52.300781s23.414063 52.300781 52.300781 52.300781c5.351563 0 10.515626-.808594 15.375-2.300781-21.378906-6.566407-36.925781-26.464844-36.925781-50zm0 0" fill="#d8dce5"/><path d="m263.488281 478.921875h-224.335937c-4.914063 0-8.894532 3.980469-8.894532 8.890625v7.703125c0 4.910156 3.980469 8.894531 8.894532 8.894531h224.335937c4.914063 0 8.894531-3.984375 8.894531-8.894531v-7.703125c0-4.910156-3.980468-8.890625-8.894531-8.890625zm0 0" fill="#52586d"/><path d="m263.488281 487.71875h-224.335937c-3.273438 0-6.121094-1.769531-7.667969-4.398438-.777344 1.320313-1.226563 2.851563-1.226563 4.492188v7.703125c0 4.910156 3.980469 8.894531 8.890626 8.894531h224.339843c4.914063 0 8.894531-3.984375 8.894531-8.894531v-7.703125c0-1.640625-.453124-3.171875-1.230468-4.492188-1.542969 2.628907-4.394532 4.398438-7.664063 4.398438zm0 0" fill="#434a5e"/><path d="m151.046875 331.863281c-32.972656 0-59.800781 26.828125-59.800781 59.800781 0 32.976563 26.828125 59.804688 59.800781 59.804688 32.976563 0 59.804687-26.828125 59.804687-59.804688-.003906-32.972656-26.828124-59.800781-59.804687-59.800781zm0 104.601563c-24.703125 0-44.800781-20.097656-44.800781-44.800782 0-24.703124 20.097656-44.800781 44.800781-44.800781s44.804687 20.097657 44.804687 44.800781c-.003906 24.703126-20.101562 44.800782-44.804687 44.800782zm0 0"/><path d="m158.546875 372.460938v-11.015626c0-4.144531-3.355469-7.5-7.5-7.5-4.140625 0-7.5 3.355469-7.5 7.5v11.015626c-7.675781 3.011718-13.132813 10.472656-13.132813 19.203124 0 11.378907 9.257813 20.636719 20.632813 20.636719 11.378906 0 20.636719-9.257812 20.636719-20.636719 0-8.730468-5.460938-16.191406-13.136719-19.203124zm-7.5 24.839843c-3.105469 0-5.632813-2.527343-5.632813-5.636719 0-3.105468 2.527344-5.632812 5.632813-5.632812s5.636719 2.527344 5.636719 5.632812c-.003906 3.105469-2.53125 5.636719-5.636719 5.636719zm0 0"/><path d="m288.644531 200.1875h-28.46875c3.605469-9.289062 5.792969-18.121094 7.027344-27.3125.550781-4.101562-2.332031-7.878906-6.4375-8.429688-4.113281-.542968-7.882813 2.332032-8.433594 6.4375-1.296875 9.695313-3.898437 19.335938-8.40625 29.304688h-184.90625c-20.789062-45.554688-8.417969-98.171875 28.628907-118.917969 18.511718-10.175781 40.644531-10.230469 57.765624-.140625 3.792969 2.238282 8.402344 2.035156 11.84375.003906 33.355469-19.660156 84.976563-1.121093 94.597657 56.972657.675781 4.085937 4.539062 6.84375 8.625 6.171875 4.085937-.675782 6.851562-4.539063 6.171875-8.625-10.300782-62.210938-64.148438-88.984375-107.179688-72.210938 4.125-35.511718 26.054688-48.785156 27.164063-49.433594 3.578125-2.046874 4.832031-6.605468 2.796875-10.199218-2.039063-3.605469-6.613282-4.875-10.21875-2.835938-.8125.460938-11.886719 6.921875-21.4375 22.003906-9.074219-15.039062-28.660156-19.996093-43.796875-11.070312l-9.863281 5.816406c-4.609376 2.71875-6.144532 8.652344-3.421876 13.265625l5.8125 9.859375c7.917969 13.425782 24.46875 19.304688 39.167969 13.652344-.558593 2.992188-1.003906 6.125-1.316406 9.410156-20.09375-8.253906-43.800781-6.855468-63.988281 4.242188-40.914063 22.914062-58.792969 78.832031-37.65625 132.035156h-29.261719c-8.332031 0-14.511719 7.761719-12.605469 15.882812 6.183594 26.378907 28.195313 49.398438 61.984375 64.808594 7.679688 3.5 15.980469 5.277344 24.679688 5.277344h3.734375v9.601562h-6.414063c-10.246093 0-18.878906 7.339844-20.527343 17.449219l-25.832032 158.324219c-8.851562.21875-15.984375 7.472656-15.984375 16.375v7.699219c0 9.039062 7.351563 16.394531 16.390625 16.394531h94.671875c4.140625 0 7.5-3.359375 7.5-7.5 0-4.144531-3.359375-7.503906-7.5-7.503906h-94.671875c-.765625 0-1.390625-.625-1.390625-1.390625v-7.699219c0-.769531.625-1.394531 1.390625-1.394531h224.339844c.769531 0 1.394531.625 1.394531 1.394531v7.699219c0 .765625-.625 1.390625-1.394531 1.390625h-94.667969c-4.144531 0-7.5 3.359375-7.5 7.503906 0 4.140625 3.355469 7.5 7.5 7.5h94.667969c9.039062 0 16.394531-7.355469 16.394531-16.394531v-7.699219c0-8.902344-7.136719-16.15625-15.988281-16.375l-25.828125-158.324219c-1.648437-10.109375-10.285156-17.449219-20.527344-17.449219h-6.417969v-9.601562h3.738282c8.699218 0 17-1.777344 24.675781-5.277344 33.792969-15.410156 55.804687-38.429687 61.988281-64.808594 1.898438-8.113281-4.269531-15.882812-12.609375-15.882812zm-169.214843-166.957031-3.117188-5.285157 5.285156-3.117187c8.121094-4.789063 18.664063-2.035156 23.429688 6.046875l3.117187 5.285156-5.285156 3.117188c-8.085937 4.761718-18.644531 2.066406-23.429687-6.046875zm103.558593 282.394531 25.433594 155.886719h-194.746094l25.429688-155.886719c.460937-2.820312 2.867187-4.867188 5.726562-4.867188h132.433594c2.855469 0 5.261719 2.046876 5.722656 4.867188zm-27.140625-19.867188h-89.601562v-9.605468h89.601562zm37.191406-28.527343c-5.710937 2.601562-11.917968 3.921875-18.453124 3.921875-11.09375 0-122.464844 0-127.074219 0-6.535157 0-12.746094-1.320313-18.453125-3.925782-27.890625-12.71875-47.015625-31.570312-52.941406-52.039062h269.863281c-5.925781 20.46875-25.050781 39.320312-52.941407 52.042969zm0 0"/></svg>