<svg height="512pt" viewBox="-37 0 512 512.00092" width="512pt" xmlns="http://www.w3.org/2000/svg"><path d="m414.429688 59.375c-14.3125-16.804688-32.175782-25.65625-53.089844-26.308594-26.890625-.820312-55.933594 12.765625-76.464844 26.777344-3.875 17.121094-5.75 32.070312-6.035156 45.351562 16.835937-15.40625 53.015625-41.066406 81.503906-40.191406 11.6875.367188 21.421875 5.300782 29.757812 15.089844 22.851563 26.832031 8.53125 63.972656-18.183593 113.414062h36.230469c8.875-17.128906 16.765624-36.460937 21.273437-53.636718 8.371094-31.898438 3.328125-58.984375-14.992187-80.496094zm0 0" fill="#d8dce5"/><path d="m361.339844 33.066406c-26.890625-.820312-55.933594 12.765625-76.464844 26.777344-3.875 17.121094-5.75 32.070312-6.035156 45.351562 8.210937-7.511718 21.023437-17.457031 35.296875-25.582031.011719-.0625.019531-.125.03125-.1875 1.945312-12.898437 9.894531-24.167969 21.429687-30.265625 12.117188-6.402344 25.65625-11.785156 39.292969-14.410156-4.363281-.960938-8.875-1.539062-13.550781-1.683594zm0 0" fill="#c3c8d1"/><path d="m423.101562 80.09375c-13.269531-15.582031-29.417968-18.054688-49.21875-12.253906 1 .664062 3.554688 1.109375 8.726563 5.070312 37.375 28.679688 11.210937 80.0625-10.691406 120.597656h36.230469c14.917968-28.800781 29.800781-66.414062 23.699218-98.207031v-.003906c-1.855468-5.394531-4.710937-10.464844-8.746094-15.203125zm0 0" fill="#c3c8d1"/><path d="m39.367188 27.609375c56.308593 23.972656 56.949218 92.289063 56.949218 92.289063-2.949218 40.429687-21.953125 64.355468-41.601562 90.71875 21.890625-6.832032 57.769531-10.984376 101.140625 10.449218 31.0625 15.351563 63.9375 16.117188 88.578125 11.964844l-2.03125-32.066406c-.214844-3.5 2.566406-6.457032 6.074218-6.457032h60.296876c-22.652344-32.347656-38.65625-70.984374-19.339844-145.164062 1.425781-5.484375-3.921875-10.300781-8.984375-8.039062-36.605469 16.351562-79.4375 1.320312-124.800781-21.527344-9.191407-4.628906-18.347657-7.613282-27.191407-9.398438-27.039062-6.507812-63.808593-.945312-87.949219 4.25-6.394531 1.375-7.175781 10.410156-1.140624 12.980469zm0 0" fill="#e4eaf8"/><path d="m96.316406 119.898438c-2.953125 40.429687-21.953125 64.355468-41.601562 90.71875 8.394531-2.617188 18.855468-4.839844 31-5.378907.679687-.941406 1.363281-1.878906 2.046875-2.8125 18.902343-25.941406 36.707031-50.1875 39.554687-90.191406 0 0-.640625-70.035156-56.949218-94.609375-3.203126-1.398438-4.46875-4.65625-4.011719-7.625-9.402344 1.320312-18.25 2.992188-25.847657 4.628906-6.394531 1.375-7.179687 10.40625-1.140624 12.980469 56.308593 23.972656 56.949218 92.289063 56.949218 92.289063zm0 0" fill="#d8dce5"/><path d="m259.15625 471.578125-7.808594-127.523437-3.324218-54.300782-3.785157-61.78125c-23.957031 4.839844-57.5625 5.03125-89.203125-10.605468-42.519531-21.015626-77.519531-16.304688-98.277344-9.488282-23.632812 31.640625-48.984374 65.871094-48.984374 135.996094 0 52.679688 27.902343 98.617188 51.089843 127.699219h200.292969zm0 0" fill="#00c3ff"/><path d="m88.28125 470.703125h.007812c-22.855468-29.902344-49.515624-76.074219-49.515624-128.863281 0-71.886719 25.351562-106.980469 48.988281-139.414063.046875-.0625.09375-.125.136719-.191406-12.351563.558594-22.875 2.929687-31.140626 5.644531-23.632812 31.640625-48.984374 65.871094-48.984374 135.996094 0 52.679688 27.902343 98.617188 51.089843 127.699219h30.09375c-.351562-.453125-.675781-.871094-.675781-.871094zm0 0" fill="#00aaf0"/><path d="m260.820312 498.695312-1.785156-29.117187h-201.753906c4.132812 5.277344 8.144531 10.039063 11.851562 14.21875 11.632813 13.128906 28.082032 20.613281 45.34375 20.613281h151.550782c.226562 0 .449218-.015625.675781-.019531-3.128906-.097656-5.691406-2.546875-5.882813-5.695313zm0 0" fill="#00aaf0"/><path d="m89.875 472.753906h-.011719c0-.003906-1.582031-2.050781-1.582031-2.050781h.007812c-.28125-.367187-.566406-.753906-.847656-1.125h-30.160156c4.132812 5.277344 8.144531 10.039063 11.851562 14.21875 11.632813 13.128906 28.082032 20.613281 45.34375 20.613281h15.414063c-19.65625-5.3125-31.085937-20.171875-40.015625-31.65625zm0 0" fill="#059adb"/><path d="m411.621094 191.507812c-7.03125 0-158.507813 0-166.144532 0-3.507812 0-6.289062 2.957032-6.074218 6.457032l5.742187 93.746094c14.441407-5.183594 41.882813-14.890626 83.402344 2.242187 32.445313 13.390625 68.929687 4.117187 83.414063-2.359375l5.734374-93.628906c.210938-3.5-2.570312-6.457032-6.074218-6.457032zm0 0" fill="#e4eaf8"/><path d="m269.402344 197.964844c-.214844-3.5 2.566406-6.457032 6.070312-6.457032-16.328125 0-28.015625 0-30 0-3.507812 0-6.285156 2.957032-6.070312 6.457032l5.738281 93.746094c6.875-2.464844 16.695313-5.949219 29.566406-7.085938zm0 0" fill="#d8dce5"/><path d="m256.558594 478.140625 1.261718 20.554687c.195313 3.210938 2.855469 5.714844 6.074219 5.714844h129.304688c3.21875 0 5.878906-2.503906 6.074219-5.714844l1.261718-20.554687zm0 0" fill="#00aaf0"/><path d="m287.820312 498.695312-1.25-20.386718-.007812-.167969h-30.003906l1.261718 20.554687c.195313 3.210938 2.855469 5.714844 6.074219 5.714844h30c-3.21875 0-5.878906-2.503906-6.074219-5.714844zm0 0" fill="#059adb"/><path d="m328.546875 291.957031c-41.632813-17.183593-69.113281-7.371093-83.523437-2.203125l11.546874 188.554688h143.953126l11.5625-188.769532c-14.402344 6.480469-51.003907 15.84375-83.539063 2.417969zm0 0" fill="#00c3ff"/><path d="m286.570312 478.308594-11.546874-188.554688-.4375-7.117187c-12.886719 1.152343-22.707032 4.660156-29.5625 7.117187l11.546874 188.554688zm0 0" fill="#00aaf0"/><path d="m331.53125 392.335938c0 8.257812-6.695312 14.953124-14.953125 14.953124-8.261719 0-14.957031-6.695312-14.957031-14.953124 0-8.261719 6.695312-14.957032 14.957031-14.957032 8.257813 0 14.953125 6.695313 14.953125 14.957032zm0 0" fill="#00aaf0"/><path d="m316.304688 369.96875c-12.382813 0-22.457032 10.074219-22.457032 22.457031 0 12.382813 10.074219 22.453125 22.457032 22.453125 12.382812 0 22.453124-10.070312 22.453124-22.453125 0-12.382812-10.070312-22.457031-22.453124-22.457031zm0 29.910156c-4.109376 0-7.457032-3.34375-7.457032-7.453125s3.347656-7.457031 7.457032-7.457031c4.109374 0 7.453124 3.347656 7.453124 7.457031s-3.34375 7.453125-7.453124 7.453125zm0 0"/><path d="m349.199219 331.6875c-4.6875-.914062-8.972657 2.679688-8.972657 7.351562 0 4.214844 3.421876 7.5 7.5 7.5 4.097657 0 7.5-3.320312 7.5-7.5 0-3.464843-2.359374-6.566406-6.027343-7.351562zm0 0"/><path d="m293.285156 64.476562c39.820313-26.363281 84.054688-36.675781 115.160156-.148437 8.054688 9.453125 13.320313 20.21875 15.667969 31.992187.808594 4.066407 4.757813 6.703126 8.816407 5.894532 4.0625-.808594 6.703124-4.757813 5.894531-8.820313-8.664063-43.539062-58.675781-96.847656-142.214844-48.621093-1.746094-8.671876-11.070313-13.992188-19.488281-10.226563-35.371094 15.796875-77.792969-.941406-118.371094-21.378906-36.902344-18.585938-79.261719-14.574219-120.089844-5.78125-13.511718 2.90625-15.25 21.785156-2.5 27.214843 21.214844 9.03125 36.460938 25.964844 45.308594 50.332032 6.320312 17.394531 7.003906 32.6875 7.070312 34.863281-2.757812 36.449219-18.976562 58.15625-38.050781 83.671875-.003906.003906-.007812.007812-.007812.011719-23.664063 31.675781-50.480469 67.578125-50.480469 140.484375 0 53.234375 27.800781 104.894531 63.246094 144.898437 13.03125 14.703125 31.605468 23.136719 50.960937 23.136719h64.875c4.144531 0 7.5-3.355469 7.5-7.5 0-4.140625-3.355469-7.5-7.5-7.5h-64.875c-14.84375 0-29.179687-5.972656-41.265625-19.832031h175.765625l1.214844 19.832031h-35.835937c-4.144532 0-7.503907 3.359375-7.503907 7.5 0 4.144531 3.359375 7.5 7.503907 7.5h178.84375c7.164062 0 13.121093-5.601562 13.558593-12.753906.949219-15.5 17.460938-285.050782 18.417969-300.734375.28125-4.589844-1.804688-9.292969-6.003906-12.101563 8.609375-17.449218 16.464844-36.183594 19.851562-55.238281.726563-4.078125-1.988281-7.972656-6.066406-8.695313-4.070312-.726562-7.976562 1.988282-8.699219 6.066407-3.382812 18.992187-11.90625 38.210937-20.695312 55.558593h-19.152344c22.152344-42.363281 36.121094-79.753906 11.398437-108.777343-28.40625-33.363281-71.605468-14.101563-106.1875 12.78125.898438-7.898438 2.265626-15.855469 3.933594-23.628907zm-249.398437-42.867187c36.054687-7.558594 75.21875-11.613281 108.113281 4.953125 43.273438 21.796875 88.875 39.527344 129.527344 22.417969-13.148438 51.324219-13.144532 92.410156 13.058594 135.117187h-49.382813c-7.21875 0-13.261719 5.6875-13.574219 13.023438-.019531.460937-.015625.925781.011719 1.394531l1.429687 23.324219c-26.476562 4.128906-51.671874.414062-74.980468-11.105469-32.855469-16.242187-61.550782-17.976563-83.570313-14.703125 14.578125-20.757812 26.628907-42.933594 29.003907-75.496094.558593-7.808594-4.117188-73.875-59.636719-98.925781zm349.308593 449.289063h-129.84375l-10.769531-175.847657c14.523438-4.84375 38.382813-10.289062 72.832031 3.925781 28.074219 11.585938 59.066407 7.40625 78.210938 1.621094zm-378.195312-126.933594c0-64.195313 21.195312-96.253906 46.054688-129.574219 20.457031-6.222656 52.117187-9.125 90.386718 9.789063 25.746094 12.722656 53.476563 16.988281 82.550782 12.710937.671874 10.917969 13.132812 214.40625 13.796874 225.277344h-187.085937c-21.128906-27.722657-45.703125-70.269531-45.703125-118.203125zm249.953125 153.035156-.679687-11.105469h128.003906l-.679688 11.105469zm144.890625-297.898438-5.230469 85.371094c-15.628906 5.847656-46.234375 11.882813-73.476562.640625-36.316407-14.988281-63.054688-10.476562-79.496094-5.5-.171875-2.765625-4.542969-74.167969-4.933594-80.511719zm-50.007812-126.511718c9.585937.300781 17.300781 4.257812 24.28125 12.457031 18.421874 21.632813 8.941406 50.5625-16.957032 99.054687h-54.726562c-12.894532-18.914062-24.316406-40.789062-24.304688-75.523437 20.589844-18.246094 49.476563-36.632813 71.707032-35.988281zm0 0"/></svg>