<svg height="496pt" viewBox="0 0 496 496" width="496pt" xmlns="http://www.w3.org/2000/svg"><path d="m415.601562 200h72.398438c0 86.480469-57.28125 159.679688-136 183.679688v-15.679688c0-22.078125-17.921875-40-40-40-13.28125 0-24-10.71875-24-24s10.71875-24 24-24h88c13.28125 0 24-10.71875 24-24s-10.71875-24-24-24h-11.761719c-24.398437 0-44.238281-19.839844-44.238281-44.238281 0-7.683594-2-15.28125-5.839844-22l-20.398437-35.683594c-3.601563-6.238281-10.160157-10.078125-17.363281-10.078125h-.398438c-11.039062 0-20 8.960938-20 20s-8.960938 20-20 20c-12.160156 0-23.199219 4.960938-31.121094 12.878906-7.917968 7.921875-12.878906 18.960938-12.878906 31.121094 0 17.039062-9.921875 32.640625-25.359375 39.839844l-38.640625 18v-12.480469c0-16.71875-12.238281-31.597656-28.878906-33.199219-6.5625-.640625-12.722656.71875-18.082032 3.519532-.71875-6.480469-1.039062-13.039063-1.039062-19.679688 0-7.519531.398438-15.039062 1.359375-22.320312 7.121094 4 15.441406 6.320312 24.242187 6.320312h26.398438c15.441406 0 28-12.558594 28-28s12.558594-28 28-28h8c15.441406 0 28-12.558594 28-28v-7.839844c0-12 7.679688-22.71875 19.121094-26.558594 17.277344-5.761718 28.878906-21.839843 28.878906-40 0-6.160156-1.199219-12.082031-3.199219-17.523437 1.039063-.078125 2.160157-.078125 3.199219-.078125 18 0 35.441406 2.480469 52 7.199219-12.320312 13.121093-20 30.800781-20 50.320312s7.761719 38.242188 21.519531 52l14.878907 14.878907c7.441406 7.441406 11.601562 17.523437 11.601562 28 0 21.839843 17.761719 39.601562 39.601562 39.601562zm0 0" fill="#69d6f4"/><g fill="#b4dd7f"><path d="m400 232c13.28125 0 24 10.71875 24 24s-10.71875 24-24 24h-88c-13.28125 0-24 10.71875-24 24s10.71875 24 24 24c22.078125 0 40 17.921875 40 40v15.679688c-17.679688 5.441406-36.480469 8.320312-56 8.320312-39.679688 0-76.558594-12-107.121094-32.640625 5.921875-9.359375 16.722656-15.359375 28.480469-15.359375h14.640625v-64c0-8.800781-7.199219-16-16-16h-64v-2.160156l38.640625-18c15.4375-7.199219 25.359375-22.800782 25.359375-39.839844 0-12.160156 4.960938-23.199219 12.878906-31.121094 7.921875-7.917968 18.960938-12.878906 31.121094-12.878906 11.039062 0 20-8.960938 20-20s8.960938-20 20-20h.398438c7.203124 0 13.761718 3.839844 17.363281 10.078125l20.398437 35.683594c3.839844 6.71875 5.839844 14.316406 5.839844 22 0 24.398437 19.839844 44.238281 44.238281 44.238281zm0 0"/><path d="m488 200h-72.398438c-21.839843 0-39.601562-17.761719-39.601562-39.601562 0-10.476563-4.160156-20.558594-11.601562-28l-14.878907-14.878907c-13.757812-13.757812-21.519531-32.480469-21.519531-52s7.679688-37.199219 20-50.320312c80.800781 22.640625 140 96.800781 140 184.800781zm0 0"/><path d="m292.800781 8.078125c2 5.441406 3.199219 11.363281 3.199219 17.523437 0 18.160157-11.601562 34.238282-28.878906 40-11.441406 3.839844-19.121094 14.558594-19.121094 26.558594v7.839844c0 15.441406-12.558594 28-28 28h-8c-15.441406 0-28 12.558594-28 28s-12.558594 28-28 28h-26.398438c-8.800781 0-17.121093-2.320312-24.242187-6.320312 10.878906-94.480469 90.402344-168.078126 187.441406-169.601563zm0 0"/></g><path d="m188.878906 359.359375c-2.558594 4-4.238281 8.5625-4.71875 13.519531-1.839844 19.042969 13.121094 35.121094 31.839844 35.121094h16v64c0 8.800781-7.199219 16-16 16h-192c-8.800781 0-16-7.199219-16-16v-64h16c18.71875 0 33.679688-16.078125 31.839844-35.121094-1.601563-16.640625-16.480469-28.878906-33.199219-28.878906h-14.640625v-64c0-8.800781 7.199219-16 16-16h64v-16c0-12.320312 6.878906-22.960938 17.039062-28.320312 5.359376-2.800782 11.519532-4.160157 18.082032-3.519532 16.640625 1.601563 28.878906 16.480469 28.878906 33.199219v14.640625h64c8.800781 0 16 7.199219 16 16v64h-14.640625c-11.757813 0-22.558594 6-28.480469 15.359375zm0 0" fill="#fcd770"/><path d="m152 376c0 17.671875-14.328125 32-32 32s-32-14.328125-32-32 14.328125-32 32-32 32 14.328125 32 32zm0 0" fill="#ffc729"/><path d="m128 336.808594v-32.808594h-16v32.808594c-18.230469 3.71875-32 19.871094-32 39.191406s13.769531 35.472656 32 39.191406v32.808594h16v-32.808594c18.230469-3.71875 32-19.871094 32-39.191406s-13.769531-35.472656-32-39.191406zm-8 63.191406c-13.230469 0-24-10.769531-24-24s10.769531-24 24-24 24 10.769531 24 24-10.769531 24-24 24zm0 0"/><path d="m296 0c-110.28125 0-200 89.71875-200 200 0 5.28125.273438 10.550781.679688 15.777344-1.199219.863281-2.472657 1.613281-3.574219 2.613281-8.328125 7.570313-13.105469 18.363281-13.105469 29.609375v8h-56c-13.230469 0-24 10.769531-24 24v72h22.625c13.007812 0 24.109375 9.496094 25.261719 21.617188.65625 6.878906-1.519531 13.460937-6.125 18.519531-4.539063 5-11.007813 7.863281-17.761719 7.863281h-24v72c0 13.230469 10.769531 24 24 24h192c13.230469 0 24-10.769531 24-24v-72h-24c-6.753906 0-13.222656-2.863281-17.769531-7.855469-4.597657-5.066406-6.78125-11.640625-6.125-18.519531.078125-.863281.320312-1.679688.503906-2.519531 31.152344 18.863281 66.65625 28.894531 103.390625 28.894531 110.28125 0 200-89.71875 200-200s-89.71875-200-200-200zm183.800781 192h-64.199219c-17.425781 0-31.601562-14.175781-31.601562-31.601562 0-12.710938-4.953125-24.664063-13.945312-33.65625l-14.855469-14.855469c-12.375-12.382813-19.199219-28.839844-19.199219-46.351563 0-15.09375 5.230469-29.535156 14.742188-41.222656 72.378906 22.597656 125.65625 88.785156 129.058593 167.6875zm-193.03125-175.769531c.726563 3.089843 1.230469 6.210937 1.230469 9.355469 0 14.742187-9.398438 27.78125-23.382812 32.445312-14.730469 4.90625-24.617188 18.632812-24.617188 34.144531v7.824219c0 11.03125-8.96875 20-20 20h-8c-19.847656 0-36 16.152344-36 36 0 11.03125-8.96875 20-20 20h-26.414062c-5.347657 0-10.648438-1.046875-15.585938-3.046875 12.6875-85.707031 84.65625-152.34375 172.769531-156.722656zm-70.769531 399.769531h8v56c0 4.414062-3.585938 8-8 8h-192c-4.414062 0-8-3.585938-8-8v-56h8c11.246094 0 22.039062-4.777344 29.609375-13.105469 7.550781-8.308593 11.277344-19.535156 10.199219-30.796875-1.929688-20.242187-20.007813-36.097656-41.183594-36.097656h-6.625v-56c0-4.414062 3.585938-8 8-8h72v-24c0-6.753906 2.863281-13.222656 7.855469-17.769531 5.066406-4.597657 11.609375-6.734375 18.519531-6.125 12.128906 1.160156 21.625 12.261719 21.625 25.269531v22.625h72c4.414062 0 8 3.585938 8 8v56h-6.625c-21.167969 0-39.253906 15.855469-41.183594 36.105469-1.078125 11.253906 2.648438 22.488281 10.199219 30.796875 7.570313 8.320312 18.363281 13.097656 29.609375 13.097656zm-14.792969-58.390625c4.433594-3.464844 10.066407-5.609375 16.167969-5.609375h22.625v-72c0-13.230469-10.769531-24-24-24h-32.511719l10.511719-4.902344c18.222656-8.503906 30-27 30-47.113281 0-19.839844 16.152344-35.984375 36-35.984375 15.441406 0 28-12.558594 28-28 0-6.617188 5.382812-12 12.390625-12 4.296875 0 8.289063 2.320312 10.425781 6.046875l20.414063 35.722656c3.121093 5.460938 4.769531 11.6875 4.769531 17.984375 0 28.804688 23.441406 52.246094 52.246094 52.246094h11.753906c8.824219 0 16 7.175781 16 16s-7.175781 16-16 16h-88c-17.648438 0-32 14.351562-32 32s14.351562 32 32 32 32 14.351562 32 32v9.609375c-15.3125 4.144531-31.390625 6.390625-48 6.390625-33.671875 0-66.214844-9.160156-94.792969-26.390625zm158.792969 14.894531v-4.503906c0-26.472656-21.527344-48-48-48-8.824219 0-16-7.175781-16-16s7.175781-16 16-16h88c17.648438 0 32-14.351562 32-32s-14.351562-32-32-32h-11.753906c-19.988282 0-36.246094-16.257812-36.246094-36.246094 0-9.082031-2.382812-18.042968-6.878906-25.921875l-20.417969-35.71875c-4.96875-8.707031-14.289063-14.113281-24.703125-14.113281-15.441406 0-28 12.558594-28 28 0 6.617188-5.390625 12-12.015625 12-28.664063 0-51.984375 23.320312-51.984375 51.984375 0 13.917969-8.152344 26.71875-20.769531 32.609375l-27.238281 12.710938c-.03125-21.144532-15.871094-39.191407-36.097657-41.121094-3.941406-.382813-7.847656.023437-11.671875.792968-.144531-2.984374-.222656-5.984374-.222656-8.976562 0-3.617188.136719-7.207031.34375-10.769531 5.566406 1.753906 11.367188 2.769531 17.242188 2.769531h26.414062c19.847656 0 36-16.152344 36-36 0-11.03125 8.96875-20 20-20h8c19.847656 0 36-16.152344 36-36v-7.824219c0-8.625 5.503906-16.238281 13.679688-18.976562 20.527343-6.832031 34.320312-25.976563 34.320312-47.613281 0-3.160157-.296875-6.296876-.824219-9.402344 10.542969.410156 20.871094 1.6875 30.886719 3.800781-9.09375 13.40625-14.0625 29.167969-14.0625 45.550781 0 21.785156 8.488281 42.257813 23.878906 57.65625l14.855469 14.855469c5.976563 5.976563 9.265625 13.914063 9.265625 22.351563 0 26.25 21.351562 47.601562 47.601562 47.601562h64.191407c-3.242188 75.496094-52.175781 139.335938-119.792969 164.503906zm0 0"/></svg>