<svg height="496pt" viewBox="0 0 496 496" width="496pt" xmlns="http://www.w3.org/2000/svg"><path d="m472 104v32h-128v-32zm0 0" fill="#969faa"/><path d="m184 8h160v32h-160zm0 0" fill="#969faa"/><path d="m472 136h-144v128h80l48 96h-16v48h48v-272zm0 0" fill="#e6e9ed"/><path d="m360 40v64h-16v32h-16v128h-35.199219l-44.800781-56-44.800781 56h-3.199219v-112h-16v-32h-16v-80zm0 0" fill="#aab2bd"/><path d="m200 152v112h-112l-48 96h16v80h-48v-288zm0 0" fill="#e6e9ed"/><path d="m424 232h32v32h-32zm0 0" fill="#ffeaa7"/><path d="m424 168h32v32h-32zm0 0" fill="#ffeaa7"/><path d="m408 264 48 96h-128v-32h16l-51.199219-64zm0 0" fill="#fc6e51"/><path d="m440 408v80h-112v-128h112zm0 0" fill="#969faa"/><path d="m360 392h48v64h-48zm0 0" fill="#fcd770"/><path d="m360 232h32v32h-32zm0 0" fill="#ffeaa7"/><path d="m360 168h32v32h-32zm0 0" fill="#ffeaa7"/><path d="m292.800781 264 51.199219 64h-192l51.199219-64 44.800781-56zm0 0" fill="#ff826e"/><path d="m328 360v128h-32v-112h-96v112h-32v-160h160zm0 0" fill="#e6e9ed"/><path d="m296 376v112l-32-24v-64zm0 0" fill="#cf9e76"/><path d="m232 136h64v32h-64zm0 0" fill="#ffeaa7"/><path d="m232 72h64v32h-64zm0 0" fill="#ffeaa7"/><path d="m296 376-32 24v64l32 24h-96l32-24v-64l-32-24zm0 0" fill="#aab2bd"/><path d="m232 400v64l-32 24v-112zm0 0" fill="#cf9e76"/><path d="m203.199219 264-51.199219 64h16v32h-128l48-96zm0 0" fill="#fc6e51"/><path d="m184 120v32h-160v-32zm0 0" fill="#969faa"/><path d="m168 360v128h-112v-128zm0 0" fill="#969faa"/><path d="m136 184h32v48h-32zm0 0" fill="#ffeaa7"/><path d="m88 392h48v64h-48zm0 0" fill="#fcd770"/><g fill="#ffeaa7"><path d="m104 184h32v48h-32zm0 0"/><path d="m72 184h32v48h-32zm0 0"/><path d="m88 264-24 48h-24v-48zm0 0"/><path d="m40 184h32v48h-32zm0 0"/></g><path d="m480 480h16v16h-16zm0 0"/><path d="m0 480h16v16h-16zm0 0"/><path d="m480 128v-32h-112v-64h-16v-32h-176v32h-16v80h-144v32h-16v304h48v32h-16v16h432v-16h-16v-64h48v-288zm-16 0h-112v-16h112zm-272-112h144v16h-144zm-16 32h176v48h-16v32h-16v128h-23.351562l-48.648438-60.808594-40 50v-101.191406h-16v-32h-16zm208 208h-16v-16h16zm16 16h3.054688l40 80h-107.054688v-16h24.648438l-51.199219-64zm-176 132v56l-16 12v-80zm16 64v-72l-16-12h48l-16 12v72l16 12h-48zm48-76v80l-16-12v-56zm-96-24v112h-16v-144h144v144h-16v-112zm-139.054688-16 40-80h93.605469l-51.199219 64h24.648438v16zm6.109376-48h-11.054688v-32h27.054688zm109.59375 16 79.351562-99.191406 79.351562 99.191406zm-136.648438-192h144v16h-144zm-16 304v-272h176v96h-160v64h19.054688l-24 48h20.945312v64zm48-64h96v112h-96zm272 112v-112h96v112zm144-80h-32v-32h20.945312l-48-96h43.054688v-48h-48v38.113281l-3.054688-6.113281h-12.945312v-32h-48v32h-16v-112h144zm-48-144v-16h16v16zm0 0"/><path d="m352 384v80h64v-80zm48 64h-32v-48h32zm0 0"/><path d="m80 384v80h64v-80zm48 64h-32v-48h32zm0 0"/><path d="m176 176h-144v64h144zm-64 16h16v32h-16zm-16 32h-16v-32h16zm-48-32h16v32h-16zm112 32h-16v-32h16zm0 0"/><path d="m400 160h-48v48h48zm-16 32h-16v-16h16zm0 0"/><path d="m464 160h-48v48h48zm-16 32h-16v-16h16zm0 0"/><path d="m304 64h-80v48h80zm-16 32h-48v-16h48zm0 0"/><path d="m304 128h-80v48h80zm-16 32h-48v-16h48zm0 0"/></svg>