<svg height="496pt" viewBox="0 0 496 496" width="496pt" xmlns="http://www.w3.org/2000/svg"><path d="m232 136c0 8 .71875 15.839844 2.160156 23.441406 2.640625 14.558594 7.839844 28.160156 14.960938 40.558594h-241.121094v-64zm0 0" fill="#ccd1d9"/><path d="m8 488v-288h241.121094c4.480468 7.839844 9.839844 15.199219 15.839844 21.839844 4.640624 5.121094 9.679687 9.839844 15.039062 14.082031v92.078125h176v-96h-11.28125c20.082031-17.761719 34.5625-41.679688 40.402344-68.800781 1.917968-8.800781 2.878906-17.839844 2.878906-27.199219v352zm0 0" fill="#e6e9ed"/><path d="m280 360h176v96h-176zm0 0" fill="#ff826e"/><path d="m456 232v96h-176v-92.078125c19.921875 16 44.800781 26.15625 72 27.839844 2.640625.160156 5.28125.238281 8 .238281 32.480469 0 62.078125-12.078125 84.640625-32 0 0 .078125.078125.078125 0zm0 0" fill="#b4dd7f"/><path d="m120 432v24h-32v-48h32zm0 0" fill="#fcd770"/><path d="m232 232v144h-192v-144zm0 0" fill="#ffeaa7"/><path d="m168 304-64 32v-64zm0 0" fill="#ff826e"/><path d="m460 168c8.878906 0 17.28125-1.761719 25.039062-4.800781h.082032c-5.839844 27.121093-20.320313 51.039062-40.402344 68.800781 0 .078125-.078125 0-.078125 0-22.5625 19.921875-52.160156 32-84.640625 32-2.71875 0-5.359375-.078125-8-.238281v-.480469c0-21.679688 17.601562-39.28125 39.28125-39.28125 13.679688 0 24.71875-11.039062 24.71875-24.71875 0-9.359375-5.28125-17.921875-13.679688-22.082031l-26-13.039063c-5.519531-2.71875-11.519531-4.160156-17.601562-4.160156h-38.878906c-8.71875 0-15.839844 7.121094-15.839844 15.839844 0 5.121094-2.480469 9.921875-6.640625 12.878906l-3.757813 2.722656c-11.601562 8.238282-21.121093 18.558594-28.480468 30.238282l-.160156.160156c-6-6.640625-11.359376-14-15.839844-21.839844-7.121094-12.398438-12.320313-26-14.960938-40.558594h.078125c1.839844.320313 3.761719.558594 5.761719.558594 17.679688 0 32-14.320312 32-32v-17.199219c0-8.160156 6.640625-14.800781 14.800781-14.800781 5.679688 0 10.800781 3.199219 13.277344 8.160156l4.5625 9.121094c4.480469 9.039062 13.757813 14.71875 23.839844 14.71875h4.878906c14.71875 0 26.640625-11.921875 26.640625-26.640625 0-8.398437-3.921875-16.320313-10.640625-21.359375l-10.71875-8c-6.71875-5.039062-10.640625-12.960938-10.640625-21.359375 0-13.039063-4.320312-25.121094-11.601562-34.878906l-.078126-.082031v-.078126c13.601563-4.882812 28.320313-7.601562 43.679688-7.601562 1.28125 0 2.558594 0 3.839844.078125v.082031c-2.398438 5.28125-3.839844 11.121094-3.839844 17.28125 0 9.4375 3.199219 18.558594 9.121094 25.917969l13.757812 17.28125c5.921875 7.359375 9.121094 16.480469 9.121094 25.917969v13.441406c0 11.039062 8.960938 20 20 20h8c11.039062 0 20 8.960938 20 20s8.960938 20 20 20zm0 0" fill="#69d6f4"/><g fill="#b4dd7f"><path d="m488 136c0 9.359375-.960938 18.398438-2.878906 27.199219h-.082032c-7.757812 3.039062-16.160156 4.800781-25.039062 4.800781-11.039062 0-20-8.960938-20-20s-8.960938-20-20-20h-8c-11.039062 0-20-8.960938-20-20v-13.441406c0-9.4375-3.199219-18.558594-9.121094-25.917969l-13.757812-17.28125c-5.921875-7.359375-9.121094-16.480469-9.121094-25.917969 0-6.160156 1.441406-12 3.839844-17.28125v-.082031c68.960937 2 124.160156 58.480469 124.160156 127.921875zm0 0"/><path d="m352 263.601562v.160157c-27.199219-1.683594-52.078125-11.839844-72-27.839844-5.359375-4.242187-10.398438-8.960937-15.039062-14.082031l.160156-.160156c7.359375-11.679688 16.878906-22 28.480468-30.238282l3.757813-2.722656c4.160156-2.957031 6.640625-7.757812 6.640625-12.878906 0-8.71875 7.121094-15.839844 15.839844-15.839844h38.878906c6.082031 0 12.082031 1.441406 17.601562 4.160156l26 13.039063c8.398438 4.160156 13.679688 12.722656 13.679688 22.082031 0 13.679688-11.039062 24.71875-24.71875 24.71875-21.679688 0-39.28125 17.601562-39.28125 39.28125zm0 0"/><path d="m360 101.359375c0 14.71875-11.921875 26.640625-26.640625 26.640625h-4.878906c-10.082031 0-19.359375-5.679688-23.839844-14.71875l-4.5625-9.121094c-2.476563-4.960937-7.597656-8.160156-13.277344-8.160156-8.160156 0-14.800781 6.640625-14.800781 14.800781v17.199219c0 17.679688-14.320312 32-32 32-2 0-3.921875-.238281-5.761719-.558594h-.078125c-1.441406-7.601562-2.160156-15.441406-2.160156-23.441406 0-55.359375 35.121094-102.480469 84.320312-120.320312l.078126.082031c7.28125 9.757812 11.601562 21.839843 11.601562 34.878906 0 8.398437 3.921875 16.320313 10.640625 21.359375l10.71875 8c6.71875 5.039062 10.640625 12.960938 10.640625 21.359375zm0 0"/></g><path d="m32 160h16v16h-16zm0 0"/><path d="m64 160h16v16h-16zm0 0"/><path d="m96 160h16v16h-16zm0 0"/><path d="m32 384h208v-160h-208zm16-144h176v128h-176zm0 0"/><path d="m96 348.945312 89.886719-44.945312-89.886719-44.945312zm16-64 38.113281 19.054688-38.113281 19.054688zm0 0"/><path d="m128 400h-48v24h-48v16h48v24h48v-24h112v-16h-112zm-16 48h-16v-32h16zm0 0"/><path d="m272 464h192v-112h-192zm16-96h160v80h-160zm0 0"/><path d="m304 384h128v16h-128zm0 0"/><path d="m304 416h128v16h-128zm0 0"/><path d="m304 288h128v16h-128zm0 0"/><path d="m360 0c-72.289062 0-131.414062 56.734375-135.59375 128h-224.40625v368h496v-360c0-74.992188-61.007812-136-136-136zm88 240v80h-160v-68.832031c20.910156 13.121093 45.542969 20.832031 72 20.832031 33.296875 0 63.792969-12.0625 87.457031-32zm-103.214844 14.929688c-26.921875-3.433594-51.105468-15.707032-69.417968-33.953126 6.464843-8.976562 14.082031-16.753906 22.855468-23.015624l3.800782-2.714844c6.242187-4.460938 9.976562-11.71875 9.976562-19.40625 0-4.328125 3.511719-7.839844 7.839844-7.839844h38.878906c4.832031 0 9.664062 1.144531 13.992188 3.304688l26.042968 13.015624c5.710938 2.847657 9.246094 8.582032 9.246094 14.960938 0 9.214844-7.503906 16.71875-16.71875 16.71875-23.21875 0-42.539062 16.832031-46.496094 38.929688zm16.175782 1.023437c3.320312-13.707031 15.605468-23.953125 30.320312-23.953125 18.039062 0 32.71875-14.679688 32.71875-32.71875 0-12.480469-6.929688-23.695312-18.089844-29.273438l-26.046875-13.015624c-6.535156-3.265626-13.847656-4.992188-21.136719-4.992188h-38.878906c-13.152344 0-23.847656 10.695312-23.847656 23.839844 0 2.527344-1.222656 4.921875-3.28125 6.390625l-3.796875 2.707031c-9.1875 6.558594-17.328125 14.46875-24.320313 23.558594-9.203124-12.070313-16.144531-25.910156-20.25-40.945313 19.984376-2.191406 35.648438-18.984375 35.648438-39.550781v-17.167969c0-3.761719 3.070312-6.832031 6.832031-6.832031 2.601563 0 4.945313 1.449219 6.113281 3.777344l4.527344 9.0625c5.917969 11.816406 17.792969 19.160156 31.015625 19.160156h4.847657c19.121093 0 34.664062-15.542969 34.664062-34.664062 0-10.847657-5.175781-21.214844-13.863281-27.734376l-10.664063-8c-4.679687-3.503906-7.472656-9.097656-7.472656-14.9375 0-10.679687-2.535156-21-7.375-30.359374 7.824219-2.121094 15.941406-3.457032 24.304688-3.945313-.585938 3.007813-.929688 6.039063-.929688 9.105469 0 11.191406 3.847656 22.167968 10.832031 30.886718l13.832031 17.289063c4.734376 5.902344 7.335938 13.328125 7.335938 20.894531v13.464844c0 15.441406 12.558594 28 28 28h8c6.617188 0 12 5.382812 12 12 0 15.441406 12.558594 28 28 28 4.527344 0 9.023438-.441406 13.457031-1.246094-16.066406 46.894532-60.320312 80.78125-112.496093 81.199219zm119.039062-119.953125c0 7.222656-.753906 14.273438-1.984375 21.144531-5.863281 1.863281-11.894531 2.855469-18.015625 2.855469-6.617188 0-12-5.382812-12-12 0-15.441406-12.558594-28-28-28h-8c-6.617188 0-12-5.382812-12-12v-13.464844c0-11.183594-3.847656-22.167968-10.832031-30.894531l-13.832031-17.289063c-4.734376-5.894531-7.335938-13.320312-7.335938-20.886718 0-3.023438.59375-6.015625 1.449219-8.984375 61.757812 4.847656 110.550781 56.535156 110.550781 119.519531zm-166.871094-110.457031c4.429688 7.664062 6.871094 16.199219 6.871094 25.121093 0 10.847657 5.175781 21.214844 13.863281 27.734376l10.664063 8c4.679687 3.503906 7.472656 9.097656 7.472656 14.9375 0 10.289062-8.375 18.664062-18.664062 18.664062h-4.847657c-7.121093 0-13.511719-3.953125-16.695312-10.320312l-4.527344-9.070313c-3.90625-7.777344-11.738281-12.609375-20.433594-12.609375-12.59375 0-22.832031 10.238281-22.832031 22.832031v17.167969c0 12.832031-10.144531 23.257812-22.824219 23.878906-.695312-5.207031-1.175781-10.480468-1.175781-15.878906 0-49.542969 30.183594-92.167969 73.128906-110.457031zm-88.722656 118.457031c1 17.03125 5.082031 33.207031 11.800781 48h-220.207031v-48zm255.59375 336h-464v-272h228.832031c7.433594 11.839844 16.566407 22.480469 27.167969 31.503906v96.496094h192v-112h-.496094c6.3125-7.414062 11.871094-15.480469 16.496094-24.136719zm0 0"/></svg>