<svg height="496pt" viewBox="0 0 496 496" width="496pt" xmlns="http://www.w3.org/2000/svg"><path d="m456 40v32h-352v-32c0-17.679688 14.320312-32 32-32h288c17.679688 0 32 14.320312 32 32zm0 0" fill="#838f9b"/><path d="m344 451.199219v36.800781h-208c-17.679688 0-32-14.320312-32-32v-32h227.199219l5.761719 7.199219c4.558593 5.679687 7.039062 12.722656 7.039062 20zm0 0" fill="#838f9b"/><path d="m316.71875 405.921875 14.480469 18.078125h-227.199219v-192h32v160h174.320312l.078126.640625c1.042968 4.800781 3.203124 9.359375 6.320312 13.28125zm0 0" fill="#69d6f4"/><path d="m424 232v-128h-288v32h-32v-64h352v176c0-4.398438-1.761719-8.398438-4.71875-11.28125-2.882812-2.957031-6.882812-4.71875-11.28125-4.71875-8.800781 0-16 7.199219-16 16zm0 0" fill="#69d6f4"/><path d="m408 216c-8.800781 0-16 7.199219-16 16v-64c0-8.800781-7.199219-16-16-16-4.398438 0-8.398438 1.761719-11.28125 4.71875-2.957031 2.882812-4.71875 6.882812-4.71875 11.28125v107.839844c-4.160156-4.71875-9.761719-8.238282-16.238281-9.917969l-39.761719-9.921875v-14.480469c14.320312-8.320312 24-23.757812 24-41.519531v-14c0-26.238281-20.238281-49.199219-46.558594-50-27.121094-.800781-49.441406 20.960938-49.441406 48v16c0 17.761719 9.679688 33.199219 24 41.519531v14.480469l-39.761719 9.921875c-14.238281 3.597656-24.238281 16.398437-24.238281 31.039063v31.039062h106.878906l11.441406 64h-174.320312v-160h32c8.800781 0 16-7.199219 16-16v-64c0-8.800781-7.199219-16-16-16h-32v-32h288v128c0-4.398438-1.761719-8.398438-4.71875-11.28125-2.882812-2.957031-6.882812-4.71875-11.28125-4.71875zm0 0" fill="#e6e9ed"/><path d="m8 216v-64c0-8.800781 7.199219-16 16-16h144c8.800781 0 16 7.199219 16 16v64c0 8.800781-7.199219 16-16 16h-64v32l-40-32h-40c-8.800781 0-16-7.199219-16-16zm0 0" fill="#ffeaa7"/><path d="m296 310.398438c0 1.042968.078125 2.160156.320312 3.203124l2.558594 14.398438h-106.878906v-31.039062c0-14.640626 10-27.441407 24.238281-31.039063l39.761719-9.921875v-14.480469c-14.320312-8.320312-24-23.757812-24-41.519531v-16c0-27.039062 22.320312-48.800781 49.441406-48 26.320313.800781 46.558594 23.761719 46.558594 50v14c0 17.761719-9.679688 33.199219-24 41.519531v14.480469l39.761719 9.921875c6.476562 1.679687 12.078125 5.199219 16.238281 9.917969v76.160156c-9.441406 0-17.601562-6.398438-19.921875-15.519531l-8.636719-34.878907c-2-8-9.203125-13.601562-17.441406-13.601562-4.960938 0-9.441406 2-12.71875 5.28125-3.28125 3.277344-5.28125 7.757812-5.28125 12.71875zm0 0" fill="#b4dd7f"/><path d="m424 232v16c0-8.800781 7.199219-16 16-16 4.398438 0 8.398438 1.761719 11.28125 4.71875 2.957031 2.882812 4.71875 6.882812 4.71875 11.28125v16c0-4.398438 1.761719-8.398438 4.71875-11.28125 2.882812-2.957031 6.882812-4.71875 11.28125-4.71875 8.800781 0 16 7.199219 16 16v118.320312c0 6.320313-1.839844 12.480469-5.359375 17.757813l-21.28125 31.84375c-3.519531 5.277344-5.359375 11.4375-5.359375 17.757813v38.320312h-112v-36.800781c0-7.277344-2.480469-14.320313-7.039062-20l-5.761719-7.199219-14.480469-18.078125c-3.117188-3.921875-5.277344-8.480469-6.320312-13.28125l-.078126-.640625-11.441406-64-2.558594-14.398438c-.242187-1.042968-.320312-2.160156-.320312-3.203124v-4.398438c0-4.960938 2-9.441406 5.28125-12.71875 3.277344-3.28125 7.757812-5.28125 12.71875-5.28125 8.238281 0 15.441406 5.601562 17.441406 13.601562l8.636719 34.878907c2.320313 9.121093 10.480469 15.519531 19.921875 15.519531v-184c0-4.398438 1.761719-8.398438 4.71875-11.28125 2.882812-2.957031 6.882812-4.71875 11.28125-4.71875 8.800781 0 16 7.199219 16 16v64c0-8.800781 7.199219-16 16-16 4.398438 0 8.398438 1.761719 11.28125 4.71875 2.957031 2.882812 4.71875 6.882812 4.71875 11.28125zm0 0" fill="#f0d0b4"/><path d="m299.902344 336h-115.902344v-39.015625c0-18.390625 12.457031-34.34375 30.296875-38.808594l33.703125-8.421875v-3.84375c-14.910156-10.414062-24-27.597656-24-45.902344v-16c0-15.28125 6.039062-29.550781 17.007812-40.191406 10.960938-10.632812 25.289063-16.152344 40.710938-15.785156 29.929688.898438 54.28125 26.90625 54.28125 57.984375v13.984375c0 18.3125-9.089844 35.503906-24.007812 45.910156v3.832032l33.710937 8.433593c7.960937 1.992188 15 6.296875 20.394531 12.449219l-12.042968 10.542969c-3.230469-3.695313-7.460938-6.273438-12.238282-7.480469l-45.808594-11.449219-.023437-25.316406 4-2.3125c12.34375-7.144531 20.015625-20.410156 20.015625-34.609375v-13.984375c0-22.511719-17.390625-41.351563-38.761719-41.992187-11.039062-.449219-21.261719 3.671874-29.085937 11.265624-7.832032 7.597657-12.152344 17.800782-12.152344 28.710938v16c0 14.191406 7.664062 27.457031 20.007812 34.601562l3.992188 2.308594v25.335938l-45.824219 11.449218c-10.695312 2.679688-18.175781 12.257813-18.175781 23.289063v23.015625h99.902344zm0 0"/><path d="m32 160h16v16h-16zm0 0"/><path d="m64 160h96v16h-96zm0 0"/><path d="m32 192h128v16h-128zm0 0"/><path d="m248 32h64v16h-64zm0 0"/><path d="m328 32h16v16h-16zm0 0"/><path d="m216 32h16v16h-16zm0 0"/><path d="m256 448h48v16h-48zm0 0"/><path d="m472 240c-2.816406 0-5.488281.574219-8 1.472656v-201.472656c0-22.054688-17.945312-40-40-40h-288c-22.054688 0-40 17.945312-40 40v104h72c4.40625 0 8 3.585938 8 8v64c0 4.414062-3.59375 8-8 8h-72v23.351562l-29.191406-23.351562h-42.808594c-4.40625 0-8-3.585938-8-8v-64c0-4.414062 3.59375-8 8-8h56v-16h-56c-13.230469 0-24 10.769531-24 24v64c0 13.230469 10.769531 24 24 24h37.191406l50.808594 40.648438v-40.648438h16v160h176.335938c1.480468 3.910156 3.519531 7.625 6.136718 10.894531l4.078125 5.105469h-202.550781v-118.832031h-16v158.832031c0 22.054688 17.945312 40 40 40h328v-46.3125c0-4.75 1.390625-9.351562 4.03125-13.3125l21.25-31.871094c4.390625-6.59375 6.71875-14.265625 6.71875-22.183594v-118.320312c0-13.230469-10.769531-24-24-24zm-336-224h288c13.230469 0 24 10.769531 24 24v24h-336v-24c0-13.230469 10.769531-24 24-24zm-24 64h336v145.472656c-2.511719-.898437-5.183594-1.472656-8-1.472656s-5.488281.574219-8 1.472656v-129.472656h-304v32h-16zm32 160h24c13.230469 0 24-10.769531 24-24v-64c0-13.230469-10.769531-24-24-24h-24v-16h272v97.472656c-2.511719-.898437-5.183594-1.472656-8-1.472656s-5.488281.574219-8 1.472656v-41.472656c0-13.230469-10.769531-24-24-24s-24 10.769531-24 24v173.113281c-1.984375-1.648437-3.457031-3.921875-4.121094-6.570312l-8.71875-34.863281c-2.886718-11.589844-13.257812-19.679688-25.191406-19.679688-14.320312 0-25.96875 11.648438-25.96875 25.96875v4.4375c0 1.539062.136719 3.066406.40625 4.570312l12.347656 69.023438h-156.753906zm-8 240c-13.230469 0-24-10.769531-24-24v-24h215.351562l3.382813 4.230469c3.402344 4.242187 5.265625 9.570312 5.265625 14.992187v28.777344zm344-97.6875c0 4.75-1.390625 9.351562-4.03125 13.3125l-21.25 31.871094c-4.390625 6.601562-6.71875 14.273437-6.71875 22.191406v30.3125h-96v-28.777344c0-9.054687-3.113281-17.925781-8.769531-24.992187l-20.261719-25.328125c-2.320312-2.902344-3.953125-6.351563-4.671875-9.695313l-14.136719-79.046875c-.113281-.585937-.160156-1.167968-.160156-1.753906v-4.4375c0-5.496094 4.472656-9.96875 9.96875-9.96875 4.582031 0 8.558594 3.105469 9.671875 7.542969l8.71875 34.863281c3.167969 12.722656 14.535156 21.59375 27.640625 21.59375h8v-192c0-4.414062 3.59375-8 8-8s8 3.585938 8 8v160h16v-96c0-4.414062 3.59375-8 8-8s8 3.585938 8 8v96h16v-80c0-4.414062 3.59375-8 8-8s8 3.585938 8 8v80h16v-64c0-4.414062 3.59375-8 8-8s8 3.585938 8 8zm0 0"/><path d="m160 352h16v16h-16zm0 0"/><path d="m192 352h88v16h-88zm0 0"/></svg>