<svg height="496pt" viewBox="-80 0 496 496" width="496pt" xmlns="http://www.w3.org/2000/svg"><path d="m328 488h-144v-115.359375c4.878906 2.160156 10.320312 3.359375 16 3.359375 22.078125 0 40-17.921875 40-40 0-3.28125-.398438-6.398438-1.121094-9.441406l5.121094 1.441406 49.199219 14.078125c20.5625 5.84375 34.800781 24.722656 34.800781 46.160156zm0 0" fill="#fcd770"/><path d="m72 488h-64v-99.761719c0-21.4375 14.238281-40.316406 34.800781-46.160156l49.199219-14.078125 5.121094-1.441406c-.722656 3.042968-1.121094 6.160156-1.121094 9.441406 0 22.078125 17.921875 40 40 40 5.679688 0 11.121094-1.199219 16-3.359375v115.359375zm0 0" fill="#fcd770"/><path d="m152 372.640625c6.398438-2.800781 11.921875-7.199219 16-12.640625 4.078125 5.441406 9.601562 9.839844 16 12.640625v115.359375h-32zm0 0" fill="#e6e9ed"/><path d="m238.878906 326.558594c.722656 3.042968 1.121094 6.160156 1.121094 9.441406 0 22.078125-17.921875 40-40 40-5.679688 0-11.121094-1.199219-16-3.359375-6.398438-2.800781-11.921875-7.199219-16-12.640625l48-40zm0 0" fill="#b4dd7f"/><path d="m168 360c-4.078125 5.441406-9.601562 9.839844-16 12.640625-4.878906 2.160156-10.320312 3.359375-16 3.359375-22.078125 0-40-17.921875-40-40 0-3.28125.398438-6.398438 1.121094-9.441406l22.878906-6.558594zm0 0" fill="#b4dd7f"/><g fill="#b27946"><path d="m244 327.921875v.078125l-5.121094-1.441406-22.878906-6.558594v-24c3.039062-2.320312 5.921875-4.800781 8.558594-7.441406 12.722656-12.71875 21.203125-29.679688 23.042968-48.558594h32.398438.480469c2.160156 22.160156 13.519531 42.480469 31.519531 56 0 0-5.679688 7.519531-16.960938 15.359375-11.359374 7.761719-28.320312 15.679687-51.039062 16.5625zm0 0"/><path d="m92 328v-.078125c-22.71875-.882813-39.679688-8.800781-51.039062-16.5625-11.28125-7.839844-16.960938-15.359375-16.960938-15.359375 18-13.519531 29.359375-33.839844 31.519531-56h.480469 32.398438c2.242187 22.878906 14.160156 42.878906 31.601562 56v24l-22.878906 6.558594zm0 0"/><path d="m264 136v24h-16c-12.960938 0-25.761719-2.238281-37.761719-6.398438-12-4.242187-23.359375-10.480468-33.4375-18.5625l-8.800781-7.039062-8.800781 7.039062c-20.160157 16.160157-45.277344 24.960938-71.199219 24.960938h-16v-24c0-32.480469 16.160156-61.199219 40.960938-78.640625 15.597656-10.960937 34.558593-17.359375 55.039062-17.359375s39.441406 6.398438 55.039062 17.359375c24.800782 17.441406 40.960938 46.160156 40.960938 78.640625zm0 0"/></g><path d="m224 56 16-24 .878906-1.28125c6.320313 4.402344 12.242188 9.28125 17.679688 14.722656 23.121094 23.199219 37.441406 55.199219 37.441406 90.558594v28.320312c-4.71875-2.71875-10.160156-4.320312-16-4.320312h-16v-24c0-32.480469-16.160156-61.199219-40.960938-78.640625zm0 0" fill="#aab2bd"/><path d="m240.878906 30.71875-.878906 1.28125-16 24-.960938 1.359375c-15.597656-10.960937-34.558593-17.359375-55.039062-17.359375s-39.441406 6.398438-55.039062 17.359375l-.960938-1.359375-16-24-.878906-1.28125c20.71875-14.320312 45.757812-22.71875 72.878906-22.71875s52.160156 8.398438 72.878906 22.71875zm0 0" fill="#ccd1d9"/><path d="m40 136c0-43.601562 21.839844-82.160156 55.121094-105.28125l.878906 1.28125 16 24 .960938 1.359375c-24.800782 17.441406-40.960938 46.160156-40.960938 78.640625v24h-16c-5.839844 0-11.28125 1.601562-16 4.320312zm0 0" fill="#aab2bd"/><path d="m280.480469 240c-.160157 0-.320313 0-.480469 0h-32.398438c.238282-2.640625.398438-5.28125.398438-8v-72h32c5.839844 0 11.28125 1.601562 16 4.320312 9.601562 5.519532 16 15.839844 16 27.679688v16c0 17.519531-14.078125 31.761719-31.519531 32zm0 0" fill="#838f9b"/><path d="m55.519531 240c-17.441406-.238281-31.519531-14.480469-31.519531-32v-16c0-11.839844 6.398438-22.160156 16-27.679688 4.71875-2.71875 10.160156-4.320312 16-4.320312h32v72c0 2.71875.160156 5.359375.398438 8h-32.398438c-.160156 0-.320312 0-.480469 0zm0 0" fill="#838f9b"/><path d="m168 312c9.839844 0 19.359375-1.761719 48-16v24l-48 40-48-40v-24c13.359375 10 30 16 48 16zm0 0" fill="#f0d0b4"/><path d="m248 160v72c0 2.71875-.160156 5.359375-.398438 8-1.839843 18.878906-10.320312 35.839844-23.042968 48.558594-2.636719 2.640625-5.519532 5.121094-8.558594 7.441406-28.640625 14.238281-38.160156 16-48 16-18 0-34.640625-6-48-16-17.441406-13.121094-29.359375-33.121094-31.601562-56-.238282-2.640625-.398438-5.28125-.398438-8v-72c25.921875 0 51.039062-8.800781 71.199219-24.960938l8.800781-7.039062 8.800781 7.039062c10.078125 8.082032 21.4375 14.320313 33.4375 18.5625 12 4.160157 24.800781 6.398438 37.761719 6.398438zm0 0" fill="#f0d0b4"/><path d="m295.382812 334.359375-17.734374-5.0625c26.472656-9.929687 40.007812-27.496094 40.75-28.496094l4.808593-6.402343-6.40625-4.796876c-14.046875-10.539062-23.601562-25.953124-27.175781-42.90625 17.390625-4.335937 30.375-19.976562 30.375-38.695312v-16c0-13.128906-6.449219-24.703125-16.246094-32h.246094v-24c0-74.992188-61.007812-136-136-136s-136 61.007812-136 136v24h.246094c-9.796875 7.296875-16.246094 18.871094-16.246094 32v16c0 18.71875 12.984375 34.359375 30.375 38.695312-3.574219 16.953126-13.128906 32.367188-27.175781 42.90625l-6.398438 4.796876 4.808594 6.402343c.75 1 14.277344 18.566407 40.75 28.496094l-17.734375 5.0625c-23.921875 6.824219-40.625 28.96875-40.625 53.839844v107.800781h336v-107.800781c0-24.871094-16.703125-47.015625-40.617188-53.839844zm-63.382812 1.640625c0 17.648438-14.351562 32-32 32-7.574219 0-14.679688-2.609375-20.34375-7.296875l38.222656-31.847656 13.9375 3.984375c.09375 1.046875.183594 2.097656.183594 3.160156zm-127.816406-3.160156 13.9375-3.984375 38.222656 31.847656c-5.664062 4.6875-12.769531 7.296875-20.34375 7.296875-17.648438 0-32-14.351562-32-32 0-1.0625.089844-2.113281.183594-3.160156zm-24.183594-180.839844v-16c0-48.519531 39.480469-88 88-88s88 39.480469 88 88v16h-8c-23.984375 0-47.503906-8.246094-66.230469-23.230469l-13.769531-11.015625-13.769531 11.007813c-18.726563 14.992187-42.246094 23.238281-66.230469 23.238281zm16 15.734375c24.800781-1.644531 48.769531-10.902344 68.230469-26.476563l3.769531-3.011718 3.769531 3.011718c19.46875 15.574219 43.4375 24.832032 68.230469 26.476563v64.265625c0 39.703125-32.296875 72-72 72s-72-32.296875-72-72zm72 152.265625c14.40625 0 27.984375-3.550781 40-9.710938v5.957032l-40 33.339844-40-33.339844v-5.957032c12.015625 6.160157 25.59375 9.710938 40 9.710938zm0 51.703125c2.480469 2.234375 5.152344 4.167969 8 5.824219v102.472656h-16v-102.472656c2.847656-1.648438 5.519531-3.589844 8-5.824219zm76.585938-51.855469-20.585938-5.878906v-14.144531c15.617188-12.914063 26.648438-31.121094 30.472656-51.832031h19.101563c3.488281 18.632812 12.867187 35.863281 26.867187 48.777343-8.378906 7.984375-26.921875 21.726563-55.855468 23.078125zm59.414062-111.847656c0 13.230469-10.769531 24-24 24h-24v-64h24c13.230469 0 24 10.769531 24 24zm-16-72v16.808594c-2.585938-.527344-5.265625-.808594-8-.808594h-8v-16c0-32.359375-14.863281-61.3125-38.121094-80.398438l8.875-13.3125c27.535156 22.007813 45.246094 55.808594 45.246094 93.710938zm-58.414062-102.800781-8.875 13.304687c-15.480469-9.152344-33.464844-14.503906-52.710938-14.503906s-37.230469 5.351562-52.710938 14.503906l-8.875-13.304687c18.035157-10.847657 39.058594-17.199219 61.585938-17.199219s43.550781 6.351562 61.585938 17.199219zm-181.585938 102.800781c0-37.902344 17.710938-71.703125 45.246094-93.710938l8.875 13.3125c-23.257813 19.085938-38.121094 48.039063-38.121094 80.398438v16h-8c-2.734375 0-5.414062.28125-8 .808594zm-16 72v-16c0-13.230469 10.769531-24 24-24h24v64h-24c-13.230469 0-24-10.769531-24-24zm3.558594 88.777344c14-12.914063 23.378906-30.144532 26.867187-48.777344h19.101563c3.824218 20.703125 14.855468 38.910156 30.472656 51.832031v14.144531l-20.585938 5.878907c-28.949218-1.359375-47.492187-15.121094-55.855468-23.078125zm-19.558594 91.421875c0-17.765625 11.929688-33.574219 29.007812-38.457031l43.0625-12.300782c.777344 25.796875 21.945313 46.558594 47.929688 46.558594 2.71875 0 5.375-.296875 8-.734375v96.734375h-64v-3.3125l-4.199219-4.199219c-7.617187-7.617187-11.800781-17.726562-11.800781-28.488281s4.183594-20.871094 11.800781-28.488281l4.199219-4.199219v-19.3125h-16v12.695312c-10.320312 10.570313-16 24.496094-16 39.304688 0 13.320312 4.632812 25.902344 13.070312 36h-45.070312zm304 91.800781h-45.070312c8.4375-10.097656 13.070312-22.679688 13.070312-36 0-14.808594-5.679688-28.734375-16-39.304688v-12.695312h-16v19.3125l4.199219 4.199219c7.617187 7.617187 11.800781 17.726562 11.800781 28.488281s-4.183594 20.871094-11.800781 28.488281l-4.199219 4.199219v3.3125h-64v-96.734375c2.625.4375 5.28125.734375 8 .734375 25.984375 0 47.152344-20.761719 47.929688-46.558594l43.0625 12.300782c17.078124 4.882812 29.007812 20.699218 29.007812 38.457031zm0 0"/><path d="m136 192c0 4.417969-3.582031 8-8 8s-8-3.582031-8-8 3.582031-8 8-8 8 3.582031 8 8zm0 0"/><path d="m216 192c0 4.417969-3.582031 8-8 8s-8-3.582031-8-8 3.582031-8 8-8 8 3.582031 8 8zm0 0"/><path d="m168 280c17.648438 0 32-14.351562 32-32h-16c0 8.824219-7.175781 16-16 16s-16-7.175781-16-16h-16c0 17.648438 14.351562 32 32 32zm0 0"/></svg>