<svg height="512pt" viewBox="-61 0 512 512" width="512pt" xmlns="http://www.w3.org/2000/svg"><path d="m129.660156 10h250.339844v360.761719h-250.339844zm0 0" fill="#ea4253"/><path d="m281.023438 257.453125c-16.523438 0-30.042969 13.53125-30.042969 30.066406v83.144531h-120.820313v-287.609374c0-16.535157-13.515625-30.0625-30.039062-30.0625-16.523438 0-30.042969 13.527343-30.042969 30.0625v108.289062c0-16.535156-13.515625-30.0625-30.039063-30.0625-16.519531 0-30.039062 13.527344-30.039062 30.0625v193.410156c0 16.601563 13.449219 30.0625 30.039062 30.0625h10.34375v40.082032h220.300782v-40.082032h10.339844c16.59375 0 30.042968-13.460937 30.042968-30.066406v-97.230469c-.003906-16.535156-13.519531-30.066406-30.042968-30.066406zm0 0" fill="#ffe7b3"/><path d="m50.382812 454.898438h220.296876v47.101562h-220.296876zm0 0" fill="#0579bb"/><path d="m380 0h-250.339844c-5.519531 0-10 4.480469-10 10v38.089844c-5.78125-3.25-12.449218-5.101563-19.539062-5.101563-22.082032 0-40.042969 17.980469-40.042969 40.070313v73.613281c-5.898437-3.433594-12.738281-5.390625-20.039063-5.390625-22.078124 0-40.039062 17.96875-40.039062 40.058594v193.410156c0 22.089844 17.960938 40.070312 40.039062 40.070312h.339844v77.179688c0 5.519531 4.480469 10 10 10h220.300782c5.519531 0 10-4.480469 10-10v-77.179688h.339843c22.082031 0 40.039063-17.980468 40.039063-40.070312v-3.988281h58.941406c5.519531 0 10-4.472657 10-10v-360.761719c0-5.519531-4.480469-10-10-10zm-119.320312 492h-200.300782v-27.101562h200.300782zm40.378906-107.25c0 11.070312-8.988282 20.070312-20.039063 20.070312h-10.339843c-5.519532 0-10 4.46875-10 10v30.078126h-200.300782v-30.078126c0-5.53125-4.46875-10-10-10h-10.339844c-11.050781 0-20.039062-9-20.039062-20.070312v-193.410156c0-11.058594 8.988281-20.058594 20.039062-20.058594 11.050782 0 20.039063 9 20.039063 20.058594v106.929687c0 5.519531 4.480469 10 10 10 5.523437 0 10-4.480469 10-10v-215.210937c0-11.070313 8.992187-20.070313 20.042969-20.070313 9.527344 0 17.519531 6.691407 19.539062 15.632813.328125 1.417968.5 2.910156.5 4.4375v287.613281c0 5.519531 4.480469 10 10 10h120.820313c5.53125 0 10-4.480469 10-10v-83.152344c0-11.058593 8.988281-20.058593 20.039062-20.058593s20.039063 9 20.039063 20.058593zm68.941406-23.988281h-48.941406v-73.242188c0-22.089843-17.957032-40.058593-40.039063-40.058593-22.078125 0-40.039062 17.96875-40.039062 40.058593v73.152344h-100.820313v-277.613281c0-2.148438-.171875-4.257813-.5-6.320313v-56.738281h230.339844zm0 0"/><path d="m321.988281 213.378906c3.902344 3.902344 3.902344 10.242188-.007812 14.140625-1.949219 1.949219-4.511719 2.929688-7.070313 2.929688s-5.121094-.980469-7.070312-2.9375l-53.011719-53.050781-53.007813 53.050781c-1.949218 1.957031-4.511718 2.9375-7.070312 2.9375s-5.121094-.980469-7.070312-2.929688c-3.910157-3.898437-3.910157-10.238281 0-14.140625l53.019531-53.058594-53.019531-53.058593c-3.910157-3.910157-3.910157-10.242188 0-14.140625 3.910156-3.910156 10.242187-3.902344 14.140624 0l53.007813 53.050781 53.011719-53.050781c3.898437-3.902344 10.230468-3.910156 14.140625 0 3.910156 3.898437 3.910156 10.230468.007812 14.140625l-53.019531 53.058593zm0 0"/><path d="m70.113281 347.871094c-5.519531 0-10.003906-4.476563-10.003906-10 0-5.523438 4.472656-10 9.996094-10h.007812c5.523438 0 10 4.476562 10 10 0 5.523437-4.476562 10-10 10zm0 0"/></svg>