<svg height="512pt" viewBox="0 0 512 512" width="512pt" xmlns="http://www.w3.org/2000/svg"><path d="m10 461.695312h105.929688v40.304688h-105.929688zm0 0" fill="#595959"/><path d="m502 461.707031v40.292969h-106.070312v-40.3125zm0 0" fill="#595959"/><path d="m502 399.644531v62.0625l-106.070312-.019531v40.3125h-280v-40.304688h-105.929688v-62.050781c0-57.292969 40.179688-106.664062 96.101562-118.070312l34.609376-7.070313 38.199218-7.800781 23.78125-4.851563c35.179688-7.175781 71.4375-7.175781 106.617188 0l23.78125 4.851563 32.648437 6.675781 40.160157 8.195313c55.921874 11.40625 96.101562 60.777343 96.101562 118.070312zm0 0" fill="#90f3ff"/><path d="m346 62.855469v19.523437h-180v-19.523437c0-29.191407 23.566406-52.855469 52.640625-52.855469h74.71875c29.074219 0 52.640625 23.664062 52.640625 52.855469zm0 0" fill="#595959"/><path d="m346 82.378906v138.839844c0 49.6875-40.476562 90.34375-89.964844 90.367188h-.058594c-49.488281-.011719-89.976562-40.679688-89.976562-90.367188v-138.839844zm0 0" fill="#ffe7b3"/><path d="m351.011719 202.617188h-190c-11.046875 0-20-8.953126-20-20v-80.242188c0-11.046875 8.953125-20 20-20h190c11.046875 0 20 8.953125 20 20v80.242188c0 11.046874-8.953125 20-20 20zm0 0" fill="#d3d3d3"/><path d="m396 411.816406v90.183594h-280v-90.183594" fill="#90f3ff"/><path d="m482.679688 317.089844c-18.917969-23.238282-45.480469-39.339844-74.78125-45.308594l-59.519532-12.152344c4.910156-11.839844 7.621094-24.808594 7.621094-38.410156v-9.027344c14.179688-2.371094 25.011719-14.730468 25.011719-29.570312v-80.25c0-14.839844-10.832031-27.199219-25.011719-29.570313v-9.941406c0-34.660156-28.101562-62.859375-62.640625-62.859375h-74.71875c-34.539063 0-62.640625 28.199219-62.640625 62.859375v9.941406c-14.171875 2.378907-24.988281 14.738281-24.988281 29.570313v80.25c0 14.828125 10.816406 27.1875 24.988281 29.570312v9.027344c0 13.601562 2.710938 26.570312 7.621094 38.410156l-59.519532 12.152344c-59.9375 12.210938-104.101562 66.734375-104.101562 127.859375v102.359375c0 5.519531 4.480469 10 10 10h492c5.519531 0 10-4.480469 10-10v-102.359375c0-30-10.410156-59.320313-29.320312-82.550781-18.917969-23.238282 18.910156 23.230468 0 0zm-306.679688-254.230469c0-23.628906 19.128906-42.859375 42.640625-42.859375h74.71875c23.511719 0 42.640625 19.230469 42.640625 42.859375v9.519531h-160zm-14.988281 129.761719c-5.335938 0-10-4.640625-10-10v-28.5625h144.488281c12.839844 0 12.859375-20 0-20h-144.488281v-31.6875c0-5.371094 4.660156-10 10-10h190c5.332031 0 10 4.640625 10 10v80.25c0 5.367187-4.664063 10-10 10zm174.988281 20v8.597656c0 43.585938-36.347656 80.363281-80.019531 80.359375-43.671875 0-79.980469-36.78125-79.980469-80.359375v-8.597656zm-230.070312 279.378906h-85.929688v-20.300781h85.929688zm386.070312 0h-86v-20.308594l86 .007813zm0-40.300781-86-.007813v-39.871094c0-12.839843-20-12.859374-20 0v80.179688h-260v-80.179688c0-12.839843-20-12.859374-20 0v39.878907h-86v-52.058594c0-51.722656 37.34375-97.910156 88.101562-108.269531l65.488282-13.371094c39.15625 57.050781 125.667968 57.074219 164.808594 0l65.5 13.371094c50.757812 10.359375 88.101562 56.546875 88.101562 108.269531zm0 0"/><path d="m235.613281 471.746094h-40c-12.839843 0-12.855469-20 0-20h10v-50.933594l-6.132812 4.238281c-10.566407 7.300781-21.949219-9.140625-11.371094-16.453125l21.820313-15.078125c6.425781-4.4375 15.683593.34375 15.683593 8.226563v70h10c12.839844 0 12.859375 20 0 20zm0 0"/><path d="m296.386719 471.746094h-10c-16.542969 0-30-13.457032-30-30v-40c0-16.542969 13.457031-30 30-30h10c16.539062 0 30 13.457031 30 30v40c0 16.542968-13.460938 30-30 30zm-10-80c-5.515625 0-10 4.488281-10 10v40c0 5.515625 4.484375 10 10 10h10c5.511719 0 10-4.484375 10-10v-40c0-5.511719-4.488281-10-10-10zm0 0"/><path d="m330.519531 154.058594c-12.839843 0-12.867187-20-.007812-20h.007812c12.839844 0 12.859375 20 0 20zm0 0"/></svg>