<svg height="512pt" viewBox="0 0 512 512" width="512pt" xmlns="http://www.w3.org/2000/svg"><path d="m346 62.75v19.480469h-180v-19.480469c0-29.132812 23.566406-52.75 52.640625-52.75h74.71875c29.074219 0 52.640625 23.617188 52.640625 52.75zm0 0" fill="#ff5964"/><path d="m10 461.777344h105.929688v40.222656h-105.929688zm0 0" fill="#ffe7b3"/><path d="m502 461.789062v40.210938h-106.070312v-40.230469zm0 0" fill="#ffe7b3"/><path d="m502 399.851562v61.9375l-106.070312-.019531v40.230469h-280v-40.222656h-105.929688v-61.925782c0-57.175781 40.179688-106.445312 96.101562-117.828124l34.609376-7.054688 38.199218-7.785156 23.78125-4.839844c35.179688-7.167969 71.4375-7.167969 106.617188 0l23.78125 4.839844 32.648437 6.664062 40.160157 8.175782c55.921874 11.382812 96.101562 60.652343 96.101562 117.828124zm0 0" fill="#494949"/><path d="m346 82.230469v138.558593c0 49.589844-40.476562 90.160157-89.964844 90.183594h-.058594c-49.488281-.011718-89.976562-40.59375-89.976562-90.183594v-138.558593zm0 0" fill="#ffe7b3"/><path d="m336 93.042969v-10.8125h-160v10.8125c0 16.164062 20.949219 29.269531 46.792969 29.269531h66.414062c25.84375 0 46.792969-13.105469 46.792969-29.269531zm0 0" fill="#dd3a4a"/><path d="m291 395.785156c0-19.371094-15.671875-35.070312-35-35.070312s-35 15.699218-35 35.070312c0 19.367188 15.671875 35.070313 35 35.070313s35-15.703125 35-35.070313zm0 0" fill="#ffea77"/><path d="m482.671875 317.449219c-18.921875-23.199219-45.472656-39.257813-74.773437-45.230469l-59.886719-12.199219c5.136719-12.050781 7.988281-25.308593 7.988281-39.230469v-158.039062c0-34.601562-28.101562-62.75-62.640625-62.75h-74.71875c-34.539063 0-62.640625 28.148438-62.640625 62.75v158.039062c0 13.910157 2.851562 27.179688 7.988281 39.230469l-25.179687 5.128907c-.160156.03125-.320313.070312-.46875.101562l-34.230469 6.96875c-29.308594 5.972656-55.859375 22.03125-74.78125 45.230469-18.90625 23.191406-29.328125 52.449219-29.328125 82.402343v102.148438c0 5.519531 4.480469 10 10 10h492c5.519531 0 10-4.480469 10-10v-102.148438c0-29.953124-10.421875-59.210937-29.328125-82.402343zm-306.671875-254.699219c0-23.570312 19.128906-42.75 42.640625-42.75h74.71875c23.511719 0 42.640625 19.179688 42.640625 42.75v9.480469h-160zm150 29.480469v.808593c0 11.03125-19.421875 19.269532-36.789062 19.269532h-66.421876c-17.367187 0-36.789062-8.238282-36.789062-19.269532v-.808593zm-150 23.339843c10.160156 10.191407 27.160156 16.738282 46.789062 16.738282h66.421876c19.628906 0 36.628906-6.546875 46.789062-16.738282v105.21875c0 12.589844-2.910156 24.511719-8.109375 35.132813-3.179687 6.527344-7.230469 12.566406-12.011719 17.957031-14.660156 16.601563-36.070312 27.082032-59.898437 27.089844-23.800781-.007812-45.210938-10.480469-59.859375-27.078125-4.78125-5.390625-8.832032-11.429687-12.019532-17.96875-5.191406-10.613281-8.101562-22.542969-8.101562-35.132813zm-1.800781 162.78125c18.121093 25.75 48.039062 42.609376 81.839843 42.617188 33.75-.019531 63.652344-16.867188 81.75-42.617188l8.621094 1.75-69.609375 75.726563c-6.230469-3.269531-13.300781-5.117187-20.800781-5.117187-7.460938 0-14.511719 1.828124-20.71875 5.070312l-74.390625-74.722656zm106.800781 117.429688c0 13.828125-11.210938 25.078125-25 25.078125s-25-11.25-25-25.078125c0-13.820312 11.210938-25.070312 25-25.070312s25 11.25 25 25.070312zm-175.070312 96.21875h-85.929688v-20.21875h85.929688zm290-90.179688c-5.519532 0-10 4.46875-10 10v80.179688h-260v-80.179688c0-5.53125-4.480469-10-10-10-5.519532 0-10 4.46875-10 10v39.960938h-85.929688v-51.929688c0-25.351562 8.820312-50.132812 24.828125-69.773437 16.011719-19.617187 38.480469-33.207031 63.273437-38.257813l29.320313-5.96875 82.578125 82.929688c-5.648438 7.527344-9 16.878906-9 27 0 24.859375 20.191406 45.078125 45 45.078125 9.238281 0 17.851562-2.808594 25-7.621094v35.441407c0 5.519531 4.480469 10 10 10s10-4.480469 10-10v-72.898438c0-.179688 0-.351562-.011719-.519531-.109375-9.902344-3.429687-19.050781-8.96875-26.441407l77.269531-84.050781 34.621094 7.050781c24.78125 5.050782 47.25 18.640626 63.261719 38.257813 16.007813 19.640625 24.828125 44.421875 24.828125 69.773437v51.9375l-86.070312-.019531v-39.949219c0-5.53125-4.480469-10-10-10zm96.070312 90.179688h-86.070312v-20.230469l86.070312.019531zm0 0"/><path d="m256.019531 405.785156c-5.523437 0-10.003906-4.480468-10.003906-10 0-5.523437 4.472656-10 9.996094-10h.007812c5.523438 0 10 4.476563 10 10 0 5.519532-4.476562 10-10 10zm0 0"/></svg>