<svg height="512pt" viewBox="0 -16 512 512" width="512pt" xmlns="http://www.w3.org/2000/svg"><path d="m89.769531 110.371094c0 25.800781-22.417969 47.808594-48 56.25-.050781.019531-.097656.039062-.140625.050781-7.179687 2.359375-14.609375 3.636719-21.859375 3.636719-3.328125 0-6.589843-.269532-9.769531-.796875v-29.640625c0-27.589844 22.390625-49.949219 50-49.949219h26.191406c.058594.15625.109375.308594.160156.46875 2.207032 6.25 3.417969 12.96875 3.417969 19.980469zm0 0" fill="#ea4253"/><path d="m502 140.339844v279.710937c0 27.578125-22.390625 49.949219-50 49.949219h-392c-27.609375 0-50-22.371094-50-49.949219v-250.070312c3.179688.53125 6.441406.800781 9.769531.800781 7.710938 0 15.089844-1.453125 21.859375-4.109375.042969-.011719.089844-.03125.140625-.050781 25.582031-8.441406 48-30.449219 48-56.25 0-7.011719-1.210937-13.730469-3.417969-19.980469h365.648438c27.609375 0 50 22.371094 50 49.949219zm0 0" fill="#f5fdff"/><g fill="#ea4253"><path d="m331 248.503906h-43.75v-43.703125h-62.5v43.703125h-43.75v62.4375h43.75v43.703125h62.5v-43.703125h43.75zm0 0"/><path d="m422.230469 110.367188c0 33.097656 36.871093 59.9375 70 59.9375 3.328125 0 6.589843-.269532 9.769531-.796876v-29.640624c0-27.582032-22.390625-49.949219-50-49.949219h-26.191406c-2.308594 6.382812-3.578125 13.265625-3.578125 20.449219zm0 0"/><path d="m89.769531 449.546875c0-33.09375-36.871093-59.9375-70-59.9375-3.328125 0-6.589843.269531-9.769531.800781v29.636719c0 27.582031 22.390625 49.949219 50 49.949219h26.191406c2.308594-6.382813 3.578125-13.265625 3.578125-20.449219zm0 0"/><path d="m422.230469 449.546875c0-33.09375 36.871093-59.9375 70-59.9375 3.328125 0 6.589843.269531 9.769531.800781v29.636719c0 27.582031-22.390625 49.949219-50 49.949219h-26.191406c-2.308594-6.382813-3.578125-13.265625-3.578125-20.449219zm0 0"/></g><path d="m287.25 364.644531h-62.5c-5.523438 0-10-4.476562-10-10v-33.703125h-33.75c-5.523438 0-10-4.476562-10-10v-62.4375c0-5.523437 4.476562-10 10-10h33.75v-33.703125c0-5.523437 4.476562-10 10-10h62.5c5.523438 0 10 4.476563 10 10v33.703125h33.75c5.523438 0 10 4.476563 10 10v62.4375c0 5.523438-4.476562 10-10 10h-33.75v33.703125c0 5.523438-4.476562 10-10 10zm-52.5-20h42.5v-33.703125c0-5.523437 4.476562-10 10-10h33.75v-42.4375h-33.75c-5.523438 0-10-4.476562-10-10v-33.703125h-42.5v33.703125c0 5.523438-4.476562 10-10 10h-33.75v42.4375h33.75c5.523438 0 10 4.476563 10 10zm0 0"/><path d="m316 440.566406h-80c-5.523438 0-10-4.476562-10-10 0-5.523437 4.476562-10 10-10h80c5.523438 0 10 4.476563 10 10 0 5.523438-4.476562 10-10 10zm0 0"/><path d="m196.019531 440.566406c-5.523437 0-10.003906-4.476562-10.003906-10 0-5.523437 4.472656-10 9.996094-10h.007812c5.523438 0 10 4.476563 10 10 0 5.523438-4.476562 10-10 10zm0 0"/><path d="m452 80.390625h-86v-20.441406c0-33.058594-26.921875-59.949219-60-59.949219h-100c-33.078125 0-60 26.890625-60 59.949219v20.441406h-56.800781c-.960938-.3125-1.96875-.46875-3.007813-.46875h-26.191406c-33.078125 0-60 26.886719-60 59.949219v280.179687c0 33.050781 26.921875 59.949219 60 59.949219h392c33.078125 0 60-26.898438 60-59.949219v-279.710937c0-33.058594-26.921875-59.949219-60-59.949219zm-286-20.441406c0-22.027344 17.941406-39.949219 40-39.949219h100c22.058594 0 40 17.921875 40 39.949219v20.441406h-180zm-146 79.921875c0-22.03125 17.941406-39.949219 40-39.949219h18.671875c.726563 3.417969 1.097656 6.90625 1.097656 10.449219 0 21.328125-19.53125 39.457031-40.929687 46.640625-6.269532 2.097656-12.699219 3.257812-18.839844 3.289062zm58.671875 320.128906h-18.671875c-22.058594 0-40-17.921875-40-39.949219v-20.441406c27.128906.121094 59.769531 22.351563 59.769531 49.941406 0 3.527344-.371093 7.027344-1.097656 10.449219zm413.328125-39.949219c0 22.027344-17.941406 39.949219-40 39.949219h-18.671875c-.726563-3.421875-1.097656-6.921875-1.097656-10.449219 0-12.441406 6.699219-24.730469 18.878906-34.621093 11.75-9.539063 27.019531-15.257813 40.890625-15.320313zm0-40.421875c-18.589844.089844-38.078125 7.25-53.5 19.78125-8.46875 6.871094-15.039062 14.769532-19.488281 23.261719-4.453125 8.488281-6.78125 17.589844-6.78125 26.878906 0 3.519531.257812 7 .78125 10.449219h-314.023438c.523438-3.449219.78125-6.929688.78125-10.449219 0-18.582031-9.328125-36.390625-26.269531-50.140625-15.421875-12.53125-34.910156-19.691406-53.5-19.78125v-198.847656c8.558594-.03125 16.78125-1.601562 24.359375-4.460938h.011719c10.410156-3.359374 20.410156-8.742187 29.128906-15.808593 16.941406-13.761719 26.269531-31.570313 26.269531-50.140625 0-3.359375-.238281-6.691406-.710937-9.980469h313.882812c-.472656 3.289063-.710937 6.621094-.710937 9.980469 0 18.570312 9.328125 36.378906 26.269531 50.140625 15.429688 12.527343 34.921875 19.738281 53.5 19.796875zm0-219.328125c-13.871094-.0625-29.140625-5.78125-40.890625-15.320312-6.089844-4.941407-10.808594-10.480469-14.007813-16.351563-3.203124-5.859375-4.871093-12.050781-4.871093-18.257812 0-3.382813.339843-6.710938 1.007812-9.980469.023438-.160156.0625-.3125.089844-.46875h18.671875c21.871094 0 39.691406 17.617187 39.988281 39.386719.011719.191406.011719.371094.011719.5625zm0 0"/></svg>