<svg height="511pt" viewBox="-45 0 511 511.99922" width="511pt" xmlns="http://www.w3.org/2000/svg"><path d="m210.816406 502.757812c-88.132812 0-160.238281-157.421874-160.238281-236.371093v-90.914063c0-78.949218 72.105469-143.542968 160.238281-143.542968 88.136719 0 160.242188 64.59375 160.242188 143.542968v90.914063c0 78.949219-72.109375 236.371093-160.242188 236.371093zm0 0" fill="#fff"/><g fill="#595959"><path d="m311.375 277.359375h-30.046875c-27.539063 0-50.074219-22.53125-50.074219-50.074219v-2.019531c0-11.0625 8.96875-20.03125 20.03125-20.03125h60.089844c5.53125 0 10.015625 4.484375 10.015625 10.015625v52.09375c0 5.535156-4.484375 10.015625-10.015625 10.015625zm0 0"/><path d="m110.070312 277.359375h30.046876c27.539062 0 50.074218-22.53125 50.074218-50.074219v-2.019531c0-11.0625-8.96875-20.03125-20.03125-20.03125h-60.089844c-5.53125 0-10.015624 4.484375-10.015624 10.015625v52.09375c0 5.535156 4.484374 10.015625 10.015624 10.015625zm0 0"/><path d="m170.757812 10.015625h80.121094v70.125h-80.121094zm0 0"/><path d="m371.058594 186.199219h40.0625v70.125h-40.0625zm0 0"/><path d="m10.515625 186.199219h40.058594v70.125h-40.058594zm0 0"/></g><path d="m311.375 287.375h-30.042969c-33.136719 0-60.09375-26.957031-60.09375-60.089844v-2.023437c0-16.566407 13.480469-30.042969 30.046875-30.042969h60.089844c11.046875 0 20.03125 8.984375 20.03125 20.027344v52.097656c0 11.046875-8.984375 20.03125-20.03125 20.03125zm-60.089844-72.125c-5.523437 0-10.015625 4.492188-10.015625 10.015625v2.019531c0 22.089844 17.972657 40.0625 40.0625 40.0625h30.042969c.011719 0 .015625-.003906.015625-.003906l-.015625-52.09375zm0 0"/><path d="m140.117188 287.375h-30.046876c-11.042968 0-20.027343-8.984375-20.027343-20.03125v-52.097656c0-11.042969 8.984375-20.027344 20.027343-20.027344h60.09375c16.566407 0 30.042969 13.476562 30.042969 30.042969v2.023437c0 33.132813-26.957031 60.089844-60.089843 60.089844zm-30.046876-72.125v52.097656h30.046876c22.089843 0 40.0625-17.972656 40.0625-40.0625v-2.019531c0-5.523437-4.496094-10.015625-10.015626-10.015625zm0 0"/><path d="m411.121094 176.1875h-30.046875v-.710938c0-68.964843-50.667969-127.453124-120.179688-146.785156v-18.675781c0-5.527344-4.488281-10.015625-10.015625-10.015625h-80.121094c-5.53125 0-10.015624 4.488281-10.015624 10.015625v18.675781c-69.515626 19.332032-120.183594 77.820313-120.183594 146.785156v.710938h-30.042969c-5.527344 0-10.015625 4.484375-10.015625 10.011719v70.128906c0 5.527344 4.488281 10.015625 10.015625 10.015625h30.042969v.039062c0 42.535157 15.046875 85.917969 33.101562 123.894532 18.929688 39.816406 45.148438 80.546875 82.832032 104.972656 77.59375 50.292969 147.691406-22.550781 182.976562-88.15625 22.671875-42.148438 41.605469-92.210938 41.605469-140.710938v-.039062h30.046875c5.527344 0 10.011718-4.488281 10.011718-10.015625v-70.128906c0-5.527344-4.484374-10.011719-10.011718-10.011719zm-370.5625 70.125h-20.027344v-50.097656h20.027344zm140.214844-226.28125h60.089843v50.09375h-60.089843zm180.269531 246.351562c0 63.863282-33.273438 136.03125-74.691407 183.414063-19.074218 21.820313-45.042968 42.953125-75.535156 42.945313-45.515625-.007813-80.386718-44.109376-101.914062-79.273438-26.167969-42.738281-48.3125-96.183594-48.3125-147.085938v-90.90625c0-59.550781 45.207031-108.539062 100.152344-125.890624v30.554687c0 5.527344 4.484374 10.015625 10.015624 10.015625h80.121094c5.527344 0 10.015625-4.488281 10.015625-10.015625v-30.554687c54.941407 17.351562 100.148438 66.335937 100.148438 125.890624zm40.0625-20.070312h-20.03125v-50.097656h20.03125zm0 0"/><path d="m210.835938 187.199219c-12.855469 0-12.886719-20.03125-.007813-20.03125h.007813c12.859374 0 12.878906 20.03125 0 20.03125zm0 0"/><path d="m230.867188 147.128906c-12.859376 0-12.886719-20.03125-.011719-20.03125h.011719c12.859374 0 12.878906 20.03125 0 20.03125zm0 0"/><path d="m190.808594 147.128906c-12.859375 0-12.890625-20.03125-.011719-20.03125h.011719c12.859375 0 12.875 20.03125 0 20.03125zm0 0"/><path d="m230.867188 457.675781c-12.859376 0-12.886719-20.027343-.011719-20.027343h.011719c12.859374 0 12.878906 20.027343 0 20.027343zm0 0"/><path d="m190.808594 457.675781c-12.859375 0-12.890625-20.027343-.011719-20.027343h.011719c12.859375 0 12.875 20.027343 0 20.027343zm0 0"/><path d="m230.867188 417.605469c-12.859376 0-12.886719-20.027344-.011719-20.027344h.011719c12.859374 0 12.878906 20.027344 0 20.027344zm0 0"/><path d="m190.808594 417.605469c-12.859375 0-12.890625-20.027344-.011719-20.027344h.011719c12.859375 0 12.875 20.027344 0 20.027344zm0 0"/><path d="m230.867188 377.535156c-12.859376 0-12.886719-20.03125-.011719-20.03125h.011719c12.859374 0 12.878906 20.03125 0 20.03125zm0 0"/><path d="m190.808594 377.535156c-12.859375 0-12.890625-20.03125-.011719-20.03125h.011719c12.859375 0 12.875 20.03125 0 20.03125zm0 0"/><path d="m230.867188 337.464844c-12.859376 0-12.886719-20.03125-.011719-20.03125h.011719c12.859374 0 12.878906 20.03125 0 20.03125zm0 0"/><path d="m190.808594 337.464844c-12.859375 0-12.890625-20.03125-.011719-20.03125h.011719c12.859375 0 12.875 20.03125 0 20.03125zm0 0"/><path d="m150.746094 357.5c-12.859375 0-12.886719-20.03125-.007813-20.03125h.007813c12.859375 0 12.878906 20.03125 0 20.03125zm0 0"/><path d="m130.714844 397.570312c-12.855469 0-12.886719-20.03125-.007813-20.03125h.007813c12.859375 0 12.878906 20.03125 0 20.03125zm0 0"/><path d="m270.929688 357.5c-12.859376 0-12.890626-20.03125-.011719-20.03125h.011719c12.859374 0 12.875 20.03125 0 20.03125zm0 0"/><path d="m290.957031 397.570312c-12.855469 0-12.886719-20.03125-.007812-20.03125h.007812c12.859375 0 12.878907 20.03125 0 20.03125zm0 0"/></svg>