<svg height="512pt" viewBox="-71 0 512 512" width="512pt" xmlns="http://www.w3.org/2000/svg"><path d="m30 502h310c11.046875 0 20-8.953125 20-20v-386.433594c0-11.046875-8.953125-20-20-20h-310c-11.046875 0-20 8.953125-20 20v386.433594c0 11.046875 8.953125 20 20 20zm0 0" fill="#fff"/><path d="m137 40.019531h16c.011719-16.582031 14.332031-30.019531 32-30.019531s31.988281 13.4375 32 30.019531h16c17.601562 0 32 13.515625 32 30.035157 0 16.519531-14.398438 30.035156-32 30.035156h-96c-17.601562 0-32-13.515625-32-30.035156 0-16.519532 14.398438-30.035157 32-30.035157zm0 0" fill="#fcc85e"/><path d="m59.730469 182.527344h40v40h-40zm0 0" fill="#9ff9cf"/><g fill="#ff5964"><path d="m59.730469 262.527344h40v40h-40zm0 0"/><path d="m59.730469 342.527344h40v40h-40zm0 0"/><path d="m59.730469 422.527344h40v40h-40zm0 0"/></g><path d="m340 65.570312h-65.269531c-2.339844-19.96875-20.160157-35.550781-41.730469-35.550781h-7.328125c-4.683594-17.238281-21.140625-30.019531-40.671875-30.019531s-35.988281 12.78125-40.671875 30.019531h-7.328125c-21.570312 0-39.390625 15.582031-41.730469 35.550781h-65.269531c-16.539062 0-30 13.449219-30 30v386.429688c0 16.539062 13.460938 30 30 30h310c16.539062 0 30-13.460938 30-30v-386.429688c0-16.550781-13.460938-30-30-30zm-224.441406 0c2.242187-8.898437 11.011718-15.550781 21.441406-15.550781h16c5.519531 0 10-4.480469 10-10 .011719-11.039062 9.878906-20.019531 22-20.019531s21.988281 8.980469 22 20.019531c0 5.519531 4.480469 10 10 10h16c10.429688 0 19.199219 6.652344 21.441406 15.550781.367188 1.441407.558594 2.949219.558594 4.488282 0 6.25-3.160156 11.839844-8.101562 15.511718-3.796876 2.820313-8.636719 4.519532-13.898438 4.519532h-96c-5.261719 0-10.101562-1.699219-13.898438-4.519532-4.941406-3.671874-8.101562-9.261718-8.101562-15.511718 0-1.539063.191406-3.046875.558594-4.488282zm234.441406 416.429688c0 5.511719-4.488281 10-10 10h-310c-5.511719 0-10-4.488281-10-10v-386.429688c0-5.519531 4.488281-10 10-10h68.28125c6.367188 14.390626 21.328125 24.519532 38.71875 24.519532h96c17.390625 0 32.351562-10.128906 38.71875-24.519532h68.28125c5.511719 0 10 4.480469 10 10zm0 0"/><path d="m99.730469 232.527344h-40c-5.523438 0-10-4.480469-10-10v-40c0-5.523438 4.476562-10 10-10h40c5.523437 0 10 4.476562 10 10v40c0 5.523437-4.476563 10-10 10zm-30-20h20v-20h-20zm0 0"/><path d="m310.269531 212.527344h-170.652343c-5.523438 0-10-4.480469-10-10 0-5.523438 4.476562-10 10-10h170.652343c5.523438 0 10 4.476562 10 10 0 5.519531-4.476562 10-10 10zm0 0"/><path d="m99.730469 312.527344h-40c-5.523438 0-10-4.480469-10-10v-40c0-5.523438 4.476562-10 10-10h40c5.523437 0 10 4.476562 10 10v40c0 5.523437-4.476563 10-10 10zm-30-20h20v-20h-20zm0 0"/><path d="m310.269531 292.527344h-170.652343c-5.523438 0-10-4.480469-10-10 0-5.523438 4.476562-10 10-10h170.652343c5.523438 0 10 4.476562 10 10 0 5.519531-4.476562 10-10 10zm0 0"/><path d="m99.730469 392.527344h-40c-5.523438 0-10-4.480469-10-10v-40c0-5.523438 4.476562-10 10-10h40c5.523437 0 10 4.476562 10 10v40c0 5.523437-4.476563 10-10 10zm-30-20h20v-20h-20zm0 0"/><path d="m310.269531 372.527344h-170.652343c-5.523438 0-10-4.480469-10-10 0-5.523438 4.476562-10 10-10h170.652343c5.523438 0 10 4.476562 10 10 0 5.519531-4.476562 10-10 10zm0 0"/><path d="m99.730469 472.527344h-40c-5.523438 0-10-4.480469-10-10v-40c0-5.523438 4.476562-10 10-10h40c5.523437 0 10 4.476562 10 10v40c0 5.523437-4.476563 10-10 10zm-30-20h20v-20h-20zm0 0"/><path d="m310.269531 452.527344h-170.652343c-5.523438 0-10-4.480469-10-10 0-5.523438 4.476562-10 10-10h170.652343c5.523438 0 10 4.476562 10 10 0 5.519531-4.476562 10-10 10zm0 0"/><path d="m212.5 150h-90c-5.523438 0-10-4.476562-10-10s4.476562-10 10-10h90c5.523438 0 10 4.476562 10 10s-4.476562 10-10 10zm0 0"/><path d="m247.519531 150c-5.523437 0-10.003906-4.476562-10.003906-10s4.472656-10 9.996094-10h.007812c5.523438 0 10 4.476562 10 10s-4.476562 10-10 10zm0 0"/></svg>