<svg height="512pt" viewBox="0 -18 512 512" width="512pt" xmlns="http://www.w3.org/2000/svg"><path d="m366 465.996094h-220v-.042969c0-33.136719 26.863281-60 60-60h100c33.136719 0 60 26.863281 60 60zm0 0" fill="#757679"/><path d="m226 285.867188h60v120.085937h-60zm0 0" fill="#ea4253"/><path d="m492 170.121094h-472c-5.523438 0-10-4.476563-10-10v-140.117188c0-5.523437 4.476562-10 10-10h472c5.523438 0 10 4.476563 10 10v140.117188c0 5.523437-4.476562 10-10 10zm0 0" fill="#ea4253"/><path d="m256.019531 254.933594c-5.523437 0-10.003906-4.480469-10.003906-10.007813 0-5.527343 4.472656-10.007812 9.996094-10.007812h.007812c5.523438 0 10 4.480469 10 10.007812 0 5.527344-4.476562 10.007813-10 10.007813zm0 0"/><path d="m306 395.941406h-10v-110.078125c0-5.523437-4.480469-10.007812-10-10.007812h-60c-5.519531 0-10 4.484375-10 10.007812v110.078125h-10c-38.601562 0-70 31.421875-70 70.050782 0 5.523437 4.480469 10.007812 10 10.007812h220c5.519531 0 10-4.484375 10-10.007812 0-38.628907-31.398438-70.050782-70-70.050782zm-70-100.070312h40v100.070312h-40zm-79 160.113281c4.648438-22.804687 24.851562-40.027344 49-40.027344h100c24.148438 0 44.351562 17.222657 49 40.027344zm0 0"/><path d="m492 0h-472c-11.03125 0-20 8.976562-20 20.015625v140.097656c0 11.039063 8.96875 20.015625 20 20.015625h226v29.769532c0 5.527343 4.480469 10.007812 10 10.007812s10-4.480469 10-10.007812v-29.769532h226c11.03125 0 20-8.976562 20-20.015625v-140.097656c0-11.039063-8.96875-20.015625-20-20.015625zm.011719 160.113281s0 0-.011719 0h-472v-60.042969h140c5.519531 0 10-4.480468 10-10.007812 0-5.523438-4.480469-10.003906-10-10.003906h-140v-60.042969h472v60.042969h-140c-5.519531 0-10 4.480468-10 10.003906 0 5.527344 4.480469 10.007812 10 10.007812h140.011719zm0 0"/><path d="m258.671875 131.082031c-3.753906 0-7.207031-2.109375-8.914063-5.476562l-30.460937-60.035157c-2.5-4.929687-.535156-10.953124 4.386719-13.453124 4.925781-2.5 10.945312-.535157 13.445312 4.390624l20.667969 40.738282 16.765625-40.078125c2.132812-5.097657 7.992188-7.503907 13.085938-5.367188 5.09375 2.132813 7.496093 7.996094 5.363281 13.09375l-25.113281 60.042969c-1.503907 3.597656-4.960938 5.992188-8.859376 6.136719-.121093.003906-.242187.007812-.367187.007812zm0 0"/></svg>