<svg height="496pt" viewBox="0 0 496 496" width="496pt" xmlns="http://www.w3.org/2000/svg"><path d="m488 456v32h-336v-32zm0 0" fill="#b27946"/><path d="m472 296h-304v40l8 8-8 8v64l8 8-8 8v24h304v-24l-8-8 8-8v-64l-8-8 8-8zm-100.71875 59.28125c-2.882812 2.957031-6.882812 4.71875-11.28125 4.71875h-80c-8.800781 0-16-7.199219-16-16 0-4.398438 1.761719-8.398438 4.71875-11.28125 2.882812-2.957031 6.882812-4.71875 11.28125-4.71875h80c8.800781 0 16 7.199219 16 16 0 4.398438-1.761719 8.398438-4.71875 11.28125zm0 0" fill="#cf9e76"/><path d="m456 296h-80c0-19.601562-6.078125-37.441406-16-50.320312 10.160156-13.359376 24.320312-21.679688 40-21.679688 30.960938 0 56 32.238281 56 72zm0 0" fill="#ffeaa7"/><path d="m376 296h-112c0-19.601562 6.078125-37.441406 16-50.320312 10.160156-13.359376 24.320312-21.679688 40-21.679688s29.839844 8.320312 40 21.679688c9.921875 12.878906 16 30.71875 16 50.320312zm0 0" fill="#fcd770"/><path d="m240 224c15.679688 0 29.839844 8.320312 40 21.679688-9.921875 12.878906-16 30.71875-16 50.320312h-80c0-39.761719 25.039062-72 56-72zm0 0" fill="#fcd770"/><path d="m72 184v24h-64v-112h64zm0 0" fill="#b4dd7f"/><path d="m215.839844 136h61.921875c6.636719 0 13.117187-2.078125 18.558593-6l43.441407-30.960938c2.796875-2 6.078125-3.039062 9.4375-3.039062h2c.242187 0 .5625 0 .800781.078125 6.078125.242187 11.921875 3.523437 14.480469 9.121094 3.28125 7.199219 1.039062 15.199219-4.71875 19.601562l-58.800781 45.757813c-4.5625 3.601562-10 5.839844-15.679688 6.5625l-79.042969 6.800781c-.796875 0-1.519531.078125-2.238281.078125h-134v-64h48l59.039062-59.039062c3.199219-3.199219 7.519532-4.960938 12-4.960938 9.359376 0 16.960938 7.601562 16.960938 16.960938 0 1.117187-.078125 2.238281-.320312 3.277343-.640626 3.28125-2.238282 6.320313-4.640626 8.722657l-15.117187 15.117187c-4 4-5.921875 9.203125-5.921875 14.320313 0 7.28125 3.921875 14.5625 11.28125 18.242187 4.398438 2.238281 9.277344 3.359375 14.238281 3.359375zm0 0" fill="#f0d0b4"/><path d="m352 96v.078125c-.238281-.078125-.558594-.078125-.800781-.078125h-2c-3.359375 0-6.640625 1.039062-9.4375 3.039062l-43.441407 30.960938c-5.441406 3.921875-11.921874 6-18.558593 6h-61.921875c-5.039063-12-7.839844-25.601562-7.839844-40 0-6.640625.640625-13.121094 1.761719-19.359375 7.199219-39.28125 35.917969-68.640625 70.238281-68.640625 39.761719 0 72 39.359375 72 88zm0 0" fill="#fcd770"/><path d="m206.34375 191.992188 81.914062-6.96875c7.140626-.886719 13.910157-3.695313 19.589844-8.113282l58.832032-45.757812c8.863281-6.894532 11.769531-18.921875 7.074218-29.242188-2.683594-5.894531-7.832031-10.285156-14.042968-12.429687-2.800782-49.894531-37.429688-89.480469-79.710938-89.480469-31.777344 0-59.199219 22.398438-72.097656 54.679688-4.453125-4.113282-10.351563-6.679688-16.871094-6.679688-6.671875 0-12.941406 2.601562-17.65625 7.3125l-56.6875 56.6875h-36.6875v-24h-80v128h80v-24zm73.65625-175.992188c33.320312 0 60.734375 32 63.703125 72.695312-3.046875.710938-5.949219 1.945313-8.550781 3.800782l-43.457032 31.03125c-4.09375 2.929687-8.917968 4.472656-13.953124 4.472656h-56.269532c-3.519531-10.046875-5.472656-20.96875-5.472656-32 0-44.113281 28.710938-80 64-80zm-75.503906 111.640625c-2.65625-.34375-5.28125-.976563-7.671875-2.175781-3.59375-1.800782-6.015625-5.097656-6.664063-9.066406-.640625-3.957032.617188-7.863282 3.457032-10.703126l6.535156-6.535156c.261718 9.824219 1.6875 19.359375 4.34375 28.480469zm-81.183594.359375 61.375-61.375c1.695312-1.6875 3.945312-2.625 6.34375-2.625 4.945312 0 8.96875 4.023438 8.96875 8.96875 0 2.398438-.9375 4.648438-2.625 6.34375l-15.070312 15.070312c-6.519532 6.519532-9.417969 15.480469-7.9375 24.578126 1.480468 9.09375 7.058593 16.6875 15.304687 20.816406 5.519531 2.757812 11.703125 4.222656 17.878906 4.222656h70.191407c8.386718 0 16.425781-2.574219 23.25-7.449219l43.449218-31.03125c1.390625-1 3.023438-1.519531 4.726563-1.519531h2.03125c3.554687 0 6.769531 1.824219 8 4.535156 1.640625 3.609375.703125 7.625-2.335938 9.992188l-58.832031 45.761718c-3.40625 2.65625-7.472656 4.335938-11.457031 4.839844l-78.71875 6.792969-127.855469.070313v-47.992188zm-59.3125 72h-48v-96h48zm0 0"/><path d="m200 416h16v16h-16zm0 0"/><path d="m424 416h16v16h-16zm0 0"/><path d="m200 336h16v16h-16zm0 0"/><path d="m424 336h16v16h-16zm0 0"/><path d="m480 448v-19.3125l-4.6875-4.6875 4.6875-4.6875v-70.625l-4.6875-4.6875 4.6875-4.6875v-51.3125h-16.328125c-3.222656-40.367188-30.542969-72-63.671875-72-14.824219 0-28.726562 6.238281-40.023438 17.625-10.96875-11-24.855468-17.625-39.976562-17.625s-29.007812 6.625-39.976562 17.625c-11.296876-11.386719-25.199219-17.625-40.023438-17.625-33.128906 0-60.457031 31.632812-63.671875 72h-16.328125v51.3125l4.6875 4.6875-4.6875 4.6875v70.625l4.6875 4.6875-4.6875 4.6875v19.3125h-16v48h352v-48zm-32.414062-160h-63.90625c-1.253907-15.726562-6.191407-30.089844-13.679688-41.808594 8.519531-9.191406 19.007812-14.191406 30-14.191406 24.433594 0 44.617188 24.480469 47.585938 56zm-127.585938-56c24.433594 0 44.617188 24.480469 47.585938 56h-95.171876c2.96875-31.519531 23.152344-56 47.585938-56zm-80 0c10.992188 0 21.480469 5 30.007812 14.191406-7.488281 11.71875-12.421874 26.089844-13.679687 41.808594h-63.902344c2.957031-31.519531 23.140625-56 47.574219-56zm-64 123.3125 11.3125-11.3125-11.3125-11.3125v-28.6875h288v28.6875l-11.3125 11.3125 11.3125 11.3125v28.6875h-288zm0 80 11.3125-11.3125-11.3125-11.3125v-12.6875h288v12.6875l-11.3125 11.3125 11.3125 11.3125v12.6875h-288zm304 44.6875h-320v-16h320zm0 0"/><path d="m360 320h-80c-13.230469 0-24 10.769531-24 24s10.769531 24 24 24h80c13.230469 0 24-10.769531 24-24s-10.769531-24-24-24zm0 32h-80c-4.40625 0-8-3.585938-8-8s3.59375-8 8-8h80c4.40625 0 8 3.585938 8 8s-3.59375 8-8 8zm0 0"/><path d="m300.273438 38.097656c-6.394532-4.050781-13.21875-6.097656-20.273438-6.097656v16c3.984375 0 7.929688 1.214844 11.726562 3.617188zm0 0"/><path d="m328 96c0-16.695312-4.929688-32.59375-13.878906-44.742188l-12.882813 9.484376c6.839844 9.289062 10.761719 22.136718 10.761719 35.257812zm0 0"/></svg>