<svg height="496pt" viewBox="-14 0 495 496" width="496pt" xmlns="http://www.w3.org/2000/svg"><path d="m240.5 408c5.199219 0 10.480469-.320312 15.601562-.960938 19.117188-2 37.519532-8 54-17.4375 3.4375-1.839843 6.796876-3.921874 10-6.160156l.398438.558594h63.039062c9.199219 0 17.839844-2.960938 24.882813-8.160156l.078125.160156-16.480469 20.078125c-17.597656 21.523437-39.519531 38.480469-64 50.082031-22.160156 10.480469-46.480469 16.640625-71.519531 17.601563-2.558594.160156-5.199219.238281-7.761719.238281-8.078125 0-16.078125-.558594-24-1.601562-55.277343-7.199219-104.878906-39.199219-134.316406-87.597657l-4-6.5625c-9.121094-15.039062-13.921875-32.316406-13.921875-49.917969 0-18.960937 5.601562-37.519531 16.160156-53.28125 20.71875-31.199218 31.839844-67.757812 31.839844-105.199218v-20.640625c0-6.480469-3.761719-12.398438-9.761719-14.71875-12.398437-4.960938-24.160156-11.121094-35.277343-18.480469l-2.960938-2v-56l10.878906-13.601562c13.359375-16.71875 33.519532-26.398438 54.882813-26.398438 19.359375 0 36.957031 7.839844 49.679687 20.558594 12.71875 12.722656 20.558594 30.320312 20.558594 49.679687v173.683594c-18.71875 5.277344-35.679688 16.15625-47.839844 31.839844-18.082031 23.199219-19.601562 46.476562-11.199218 66.558593 13.757812 33.359376 54.558593 57.679688 91.039062 57.679688zm0 0" fill="#e6e9ed"/><path d="m376.5 320h80c-2.398438 9.441406-7.761719 17.441406-14.960938 23.039062-5.039062 3.921876-10.878906 6.722657-17.277343 8-2.800781.640626-5.761719.960938-8.722657.960938h-62.480468c.640625-.71875 1.203125-1.519531 1.761718-2.238281zm0 0" fill="#ccd1d9"/><path d="m415.539062 352c2.960938 0 5.921876-.320312 8.722657-.960938l.238281.960938c-2.480469 9.839844-8.320312 18.160156-16.078125 23.839844-7.042969 5.199218-15.683594 8.160156-24.882813 8.160156h-63.039062l-.398438-.558594c12.558594-8.5625 23.679688-19.121094 32.957032-31.441406zm0 0" fill="#ccd1d9"/><path d="m362.738281 317.28125c-8.878906-1.761719-17.277343-4.882812-25.117187-9.203125l-1.121094 1.921875-5.679688 7.761719c-5.121093 7.039062-10.800781 13.519531-17.039062 19.359375-8.160156 7.757812-17.203125 14.480468-26.882812 20-11.917969 6.957031-24.878907 12.078125-38.398438 15.117187-10.398438 2.480469-21.121094 3.761719-32 3.761719-11.199219 0-22.800781-2.320312-33.921875-6.480469-11.039063-4.078125-21.679687-10.160156-30.878906-17.519531l-2.238281-1.679688c13.757812 33.359376 54.558593 57.679688 91.039062 57.679688 5.199219 0 10.480469-.320312 15.601562-.960938 19.117188-2 37.519532-8 54-17.4375 3.4375-1.839843 6.796876-3.921874 10-6.160156 12.558594-8.5625 23.679688-19.121094 32.957032-31.441406.640625-.71875 1.203125-1.519531 1.761718-2.238281l21.679688-29.761719zm0 0" fill="#fcd770"/><path d="m208.5 251.921875c8.800781-2.640625 18.078125-3.921875 27.441406-3.921875 11.757813 0 23.199219 2.320312 33.757813 6.71875 10.640625 4.402344 20.402343 10.882812 28.640625 19.121094l19.28125 19.28125c5.917968 5.917968 12.71875 10.957031 20 14.957031l-1.121094 1.921875-5.679688 7.761719c-5.121093 7.039062-10.800781 13.519531-17.039062 19.359375-8.160156 7.757812-17.203125 14.480468-26.882812 20-11.917969 6.957031-24.878907 12.078125-38.398438 15.117187-10.398438 2.480469-21.121094 3.761719-32 3.761719-11.199219 0-22.800781-2.320312-33.921875-6.480469-11.039063-4.078125-21.679687-10.160156-30.878906-17.519531l-2.238281-1.679688c-8.402344-20.082031-6.882813-43.359374 11.199218-66.558593 12.160156-15.683594 29.121094-26.5625 47.839844-31.839844zm0 0" fill="#ccd1d9"/><path d="m72.5 48v56h-53.679688c-5.679687 0-10.320312-4.640625-10.320312-10.320312 0-3.519532 1.839844-6.800782 4.800781-8.71875zm0 0" fill="#fcd770"/><path d="m377.292969 312-13.015625-2.601562c-15.59375-3.117188-29.777344-10.710938-41.015625-21.949219l-19.25-19.25c-18.191407-18.191407-42.359375-28.199219-68.070313-28.199219-6.59375 0-13.074218.761719-19.441406 1.9375v-163.699219c0-43.140625-35.105469-78.238281-78.238281-78.238281-23.898438 0-46.167969 10.703125-61.089844 29.359375l-10.070313 12.578125-58.007812 36.253906c-5.386719 3.359375-8.59375 9.160156-8.59375 15.511719 0 10.089844 8.207031 18.296875 18.296875 18.296875h51.277344l.9375.625c11.527343 7.6875 23.902343 14.167969 36.792969 19.261719 2.808593 1.113281 4.695312 4.042969 4.695312 7.28125v20.65625c0 35.976562-10.542969 70.816406-30.496094 100.742187-11.449218 17.160156-17.503906 37.144532-17.503906 57.785156 0 19.039063 5.214844 37.71875 15.089844 54.007813l4.015625 6.625c29.132812 48.054687 78.285156 80.769531 132.894531 90.160156v26.855469h16v-24.785156c5.304688.457031 10.632812.769531 16 .777344v24.007812h16v-24.703125c52.167969-4.21875 100.257812-29.199219 133.742188-70.128906l16.1875-19.777344c7.671874-5.984375 13.4375-14.269531 16.621093-23.917969 16.121094-5.242187 28.914063-18.367187 33.210938-35.527344l2.484375-9.945312zm-312.792969-216h-45.703125c-1.265625 0-2.296875-1.023438-2.296875-2.296875 0-.78125.414062-1.527344 1.078125-1.941406l46.921875-29.328125zm298.183594 229.398438-13.464844 18.511718c-8.453125-.335937-16.511719-2.886718-23.480469-7.429687 4.121094-4.410157 7.992188-9.074219 11.578125-14l2.984375-4.105469c6.625 3 13.589844 5.265625 20.832031 6.714844zm-121.726563 56.523437c.574219 6.101563 1.847657 12.109375 3.734375 17.949219-1.398437.050781-2.792968.128906-4.191406.128906-21.015625 0-43.464844-9.046875-60.390625-22.878906 12.03125 4.445312 24.519531 6.878906 36.390625 6.878906 8.257812 0 16.425781-.734375 24.457031-2.078125zm20.09375 16.414063c-2.4375-6.390626-3.863281-13.144532-4.292969-19.960938 9.328126-2.621094 18.375-6.09375 26.988282-10.445312 3.808594 6.878906 8.203125 13.390624 13.296875 19.375-11.367188 5.335937-23.480469 9.0625-35.992188 11.03125zm50.449219-18.921876c-5.390625-5.925781-10.039062-12.4375-13.894531-19.453124 5.71875-3.695313 11.207031-7.769532 16.390625-12.226563 6.960937 5.152344 14.824218 8.777344 23.222656 10.671875-7.695312 8.089844-16.351562 15.121094-25.71875 21.007812zm-18.808594-99.910156 19.25 19.25c4.398438 4.40625 9.214844 8.292969 14.3125 11.726563l-1.875 2.574219c-25.023437 34.410156-65.351562 54.945312-107.878906 54.945312-20.144531 0-42.496094-8.3125-60.03125-22.40625l-.417969-.3125c-5.3125-14.25-6.503906-34.273438 10.898438-56.601562 15.933593-20.464844 41.71875-32.679688 68.992187-32.679688 21.429688 0 41.589844 8.34375 56.75 23.503906zm122.824219 64.496094h-31.015625v16h27.953125c-6.136719 9.742188-16.914063 16-28.9375 16h-31.015625v16h31.015625c.550781 0 1.074219-.121094 1.625-.136719-33.769531 40.761719-83.402344 64.136719-136.375 64.136719-61.53125 0-119.570313-32.6875-151.480469-85.3125l-4.015625-6.617188c-8.355469-13.789062-12.769531-29.597656-12.769531-45.71875 0-17.472656 5.128906-34.382812 14.816406-48.910156 21.703125-32.570312 33.183594-70.472656 33.183594-109.617187v-20.65625c0-9.742188-5.953125-18.65625-14.808594-22.160157-11.617187-4.59375-22.777344-10.421874-33.191406-17.3125v-48.886718l9.167969-11.449219c11.871093-14.847656 29.585937-23.359375 48.59375-23.359375 34.316406 0 62.238281 27.921875 62.238281 62.238281v167.832031c-18.257812 6.425782-34.441406 17.707032-46.175781 32.769532-19.367188 24.855468-23.023438 52.878906-10.304688 78.914062 16.214844 33.207032 57.695313 58.246094 96.480469 58.246094 47.632812 0 92.808594-23 120.824219-61.519531l19.246093-26.480469h63.9375c-6.136718 9.761719-16.953124 16-28.992187 16zm0 0"/><path d="m128.5 56c0 4.417969-3.582031 8-8 8s-8-3.582031-8-8 3.582031-8 8-8 8 3.582031 8 8zm0 0"/></svg>