<svg height="496pt" viewBox="0 -63 496 496" width="496pt" xmlns="http://www.w3.org/2000/svg"><path d="m336 87.175781v2.320313h-144l96-80c14.71875 7.359375 26.71875 18.558594 35.039062 32 8.320313 13.519531 12.960938 29.28125 12.960938 45.679687zm0 0" fill="#fcd770"/><path d="m350.238281 89.496094h25.761719c5.121094 0 9.679688 2.398437 12.558594 6.160156 2.160156 2.71875 3.441406 6.160156 3.441406 9.839844 0 4.398437-1.761719 8.398437-4.71875 11.28125-2.882812 2.957031-6.882812 4.71875-11.28125 4.71875h-192c-8.800781 0-16-7.199219-16-16 0-4.398438 1.761719-8.398438 4.71875-11.28125 2.882812-2.957032 6.882812-4.71875 11.28125-4.71875zm0 0" fill="#aab2bd"/><path d="m408 57.496094c44.160156 0 80 46.558594 80 104s-35.839844 104-80 104l-1.921875.398437-6.957031-33.679687c2.878906.882812 5.839844 1.28125 8.878906 1.28125 26.480469 0 48-32.238282 48-72 0-39.761719-21.519531-72-48-72-6.878906 0-13.519531 2.160156-19.441406 6.160156-2.878906-3.761719-7.4375-6.160156-12.558594-6.160156h-25.761719c14.5625-19.761719 35.042969-32 57.761719-32zm0 0" fill="#969faa"/><path d="m88 33.496094h-40l-40 40v40l56 8 32-32zm0 0" fill="#e6e9ed"/><path d="m174.320312 167.816406-24.480468 117.597656-85.839844-163.917968 32-32zm0 0" fill="#aab2bd"/><path d="m382.640625 153.496094 16.398437 78.71875h.082032l6.957031 33.679687 9.042969 43.203125c.558594 2.957032.878906 5.917969.878906 8.878906 0 24-19.519531 43.519532-43.519531 43.519532h-184.960938c-12 0-22.878906-4.878906-30.71875-12.800782-7.921875-7.839843-12.800781-18.71875-12.800781-30.71875 0-2.960937.320312-5.921874.878906-8.878906l4.960938-23.683594 24.480468-117.597656 3.039063-14.320312 6.640625-32h192zm0 0" fill="#e6e9ed"/><path d="m264.800781 204.777344c2-6.480469 8-11.28125 15.199219-11.28125s13.199219 4.800781 15.199219 11.28125c6.082031-3.203125 13.679687-2.320313 18.722656 2.796875 5.117187 5.042969 6 12.640625 2.796875 18.722656 6.480469 2 11.28125 8 11.28125 15.199219 0 7.199218-4.800781 13.199218-11.28125 15.199218 3.203125 6.082032 2.320312 13.679688-2.796875 18.71875-5.042969 5.121094-12.640625 6-18.722656 2.800782-2 6.480468-8 11.28125-15.199219 11.28125s-13.199219-4.800782-15.199219-11.28125c-6.082031 3.199218-13.679687 2.320312-18.722656-2.800782-5.117187-5.039062-6-12.636718-2.796875-18.71875-6.480469-2-11.28125-8-11.28125-15.199218 0-7.199219 4.800781-13.199219 11.28125-15.199219-3.203125-6.082031-2.320312-13.679687 2.796875-18.722656 5.042969-5.117188 12.640625-6 18.722656-2.796875zm0 0" fill="#ff826e"/><path d="m296 241.496094c0 8.835937-7.164062 16-16 16s-16-7.164063-16-16c0-8.835938 7.164062-16 16-16s16 7.164062 16 16zm0 0" fill="#e6e9ed"/><path d="m347.140625 179.113281 15.652344-3.265625 3.335937 16-15.652344 3.265625zm0 0"/><path d="m369.480469 207.863281-15.65625 3.265625 22.175781 106.855469c0 1.9375-1.574219 3.511719-3.511719 3.511719h-12.488281v16h12.488281c10.75 0 19.511719-8.753906 19.511719-19.511719 0-1.367187-.144531-2.71875-.414062-3.976563zm0 0"/><path d="m496 161.496094c0-61.761719-39.480469-112-88-112-23.351562 0-45.015625 11.398437-61.511719 32h-2.6875c-1.984375-33.855469-21.59375-63.839844-52.226562-79.160156l-4.679688-2.335938-97.789062 81.496094h-5.105469c-13.230469 0-24 10.769531-24 24 0 9.886718 6.015625 18.382812 14.566406 22.054687l-5.03125 24.167969-65.992187-65.992188-8.605469-60.230468h-50.25l-44.6875 44.6875v50.25l58.816406 8.398437 82.625 157.742188-4.351562 20.898437c-.722656 3.4375-1.089844 6.976563-1.089844 10.511719 0 28.398437 23.113281 51.511719 51.511719 51.511719h184.96875c28.40625 0 51.519531-23.113282 51.519531-51.511719 0-3.527344-.367188-7.074219-1.089844-10.503906l-7.183594-34.472657c44.914063-5.015624 80.273438-53.070312 80.273438-111.511718zm-207.039062-142.390625c22.574218 13.152343 36.824218 36.359375 38.671874 62.390625h-113.535156zm-104.960938 78.390625h192c4.414062 0 8 3.59375 8 8s-3.585938 8-8 8h-192c-4.414062 0-8-3.59375-8-8s3.585938-8 8-8zm216 8c0-2.183594-.382812-4.257813-.9375-6.273438 2.921875-1.101562 5.90625-1.726562 8.9375-1.726562 21.679688 0 40 29.3125 40 64s-18.320312 64-40 64c-.726562 0-1.464844-.089844-2.199219-.152344l-20.375-97.785156c8.558594-3.679688 14.574219-12.175782 14.574219-22.0625zm-312.488281-18.832032-26.34375 26.34375-36.199219-5.167968 57.375-57.375zm-36.199219-45.167968h17.375l-52.6875 52.6875v-17.375zm22.503906 81.496094 22.183594-22.183594 69.632812 69.632812-19.058593 91.460938zm298.671875 230.503906h-184.976562c-19.582031 0-35.511719-15.9375-35.511719-35.511719 0-2.441406.246094-4.871094.742188-7.242187l31.089843-149.246094h24.167969v-16h-20.832031l3.335937-16h179l3.335938 16h-148.839844v16h152.167969l31.097656 149.246094c.496094 2.371093.742187 4.800781.742187 7.242187-.007812 19.574219-15.9375 35.511719-35.519531 35.511719zm39.953125-96.296875-3.289062-15.785157c30.839844-.855468 54.847656-35.613281 54.847656-79.917968 0-44.855469-24.601562-80-56-80-6.34375 0-12.488281 1.457031-18.335938 4.320312-3.878906-2.710937-8.585937-4.320312-13.664062-4.320312h-7.695312c11.6875-10.390625 25.359374-16 39.695312-16 39.703125 0 72 43.0625 72 96 0 50.9375-29.929688 92.617187-67.558594 95.703125zm0 0"/><path d="m280 217.496094c-13.230469 0-24 10.769531-24 24 0 13.230468 10.769531 24 24 24s24-10.769532 24-24c0-13.230469-10.769531-24-24-24zm0 32c-4.414062 0-8-3.59375-8-8s3.585938-8 8-8 8 3.59375 8 8-3.585938 8-8 8zm0 0"/><path d="m326.335938 222.304688c1.105468-7.351563-1.257813-14.921876-6.742188-20.410157-5.488281-5.480469-13.058594-7.847656-20.402344-6.734375-4.414062-5.984375-11.4375-9.664062-19.191406-9.664062s-14.777344 3.679687-19.191406 9.664062c-7.34375-1.089844-14.914063 1.265625-20.402344 6.734375-5.484375 5.488281-7.839844 13.058594-6.742188 20.410157-5.976562 4.414062-9.664062 11.4375-9.664062 19.191406 0 7.75 3.6875 14.777344 9.664062 19.191406-1.105468 7.351562 1.257813 14.921875 6.734376 20.402344 5.488281 5.496094 13.066406 7.839844 20.410156 6.742187 4.414062 5.984375 11.4375 9.664063 19.191406 9.664063s14.777344-3.679688 19.191406-9.664063c7.367188 1.113281 14.921875-1.257812 20.402344-6.734375 5.484375-5.488281 7.839844-13.058594 6.742188-20.410156 5.976562-4.414062 9.664062-11.441406 9.664062-19.191406 0-7.753906-3.6875-14.777344-9.664062-19.191406zm-11.992188 26.757812-9.183594 2.859375 4.488282 8.511719c1.648437 3.125 1.105468 6.886718-1.359376 9.34375-2.464843 2.453125-6.21875 3.007812-9.34375 1.351562l-8.511718-4.472656-2.847656 9.183594c-1.066407 3.382812-4.105469 5.65625-7.585938 5.65625s-6.519531-2.273438-7.566406-5.648438l-2.847656-9.183594-8.515626 4.472657c-3.117187 1.640625-6.886718 1.109375-9.34375-1.351563-2.460937-2.464844-3.007812-6.21875-1.359374-9.34375l4.488281-8.511718-9.183594-2.859376c-3.398437-1.054687-5.671875-4.09375-5.671875-7.574218 0-3.480469 2.273438-6.519532 5.65625-7.566406l9.183594-2.859376-4.488282-8.511718c-1.648437-3.125-1.105468-6.886719 1.359376-9.34375 2.472656-2.453125 6.21875-3.007813 9.34375-1.351563l8.511718 4.472657 2.847656-9.183594c1.066407-3.382813 4.105469-5.65625 7.585938-5.65625s6.519531 2.273437 7.566406 5.648437l2.847656 9.183594 8.515626-4.472656c3.125-1.65625 6.871093-1.101563 9.34375 1.351562 2.460937 2.464844 3.007812 6.21875 1.359374 9.34375l-4.488281 8.511719 9.183594 2.859375c3.398437 1.054687 5.671875 4.09375 5.671875 7.574219 0 3.480468-2.273438 6.519531-5.65625 7.566406zm0 0"/></svg>