<svg height="496pt" viewBox="0 0 496 496" width="496pt" xmlns="http://www.w3.org/2000/svg"><path d="m472 319.796875c8.800781 0 16 7.199219 16 16 0 4.402344-1.761719 8.402344-4.71875 11.28125-2.882812 2.960937-6.882812 4.71875-11.28125 4.71875h-40v-32zm0 0" fill="#d3a06c"/><path d="m360 319.796875h72v32h-72zm0 0" fill="#d3a06c"/><path d="m247.519531 319.796875h112.480469v144h-112.480469c19.921875-17.597656 32.480469-43.359375 32.480469-72s-12.558594-54.398437-32.480469-72zm0 0" fill="#dfb28b"/><path d="m32 319.796875h88.480469c-19.921875 17.601563-32.480469 43.359375-32.480469 72s12.558594 54.402344 32.480469 72h-112.480469v-144zm0 0" fill="#dfb28b"/><path d="m247.519531 319.796875c19.921875 17.601563 32.480469 43.359375 32.480469 72s-12.558594 54.402344-32.480469 72c-16.878906 14.960937-39.121093 24-63.519531 24s-46.640625-9.039063-63.519531-24c-19.921875-17.597656-32.480469-43.359375-32.480469-72s12.558594-54.398437 32.480469-72c16.878906-14.957031 39.121093-24 63.519531-24s46.640625 9.042969 63.519531 24zm0 0" fill="#838f9b"/><path d="m239.441406 359.796875c-11.042968-19.117187-31.761718-32-55.441406-32s-44.398438 12.882813-55.441406 32c-5.4375 9.359375-8.558594 20.320313-8.558594 32s3.121094 22.640625 8.558594 32c11.042968 19.121094 31.761718 32 55.441406 32s44.398438-12.878906 55.441406-32c5.4375-9.359375 8.558594-20.320313 8.558594-32s-3.121094-22.640625-8.558594-32zm0 0" fill="#e6e9ed"/><path d="m335.519531 316.277344.480469 3.519531h-88.480469c-16.878906-14.957031-39.121093-24-63.519531-24s-46.640625 9.042969-63.519531 24h-88.480469l.480469-3.519531c4.960937-40.160156 15.597656-79.359375 31.519531-116.480469l24-16 32 48 40-32 24 32 24-32 40 32 32-48 24 16c15.921875 37.121094 26.558594 76.320313 31.519531 116.480469zm0 0" fill="#ffeaa7"/><path d="m85.199219 123.71875-21.199219 12.078125c7.839844-23.359375 19.199219-45.199219 33.761719-64.71875 14.558593-19.441406 32.160156-36.71875 52.398437-50.800781l4.71875-3.28125c8.5625-6 18.722656-9.199219 29.121094-9.199219s20.558594 3.199219 29.121094 9.199219l4.71875 3.28125c40.398437 28.242187 70.558594 68.800781 86.160156 115.519531l-21.199219-12.078125-34.800781-19.921875-8 32-32-32-24 24-24-24-32 32-8-32zm0 0" fill="#ffeaa7"/><path d="m318.078125 189.238281 9.921875 26.558594-48-32-32 48-40-32-24 32-24-32-40 32-32-48-48 32 9.921875-26.558594c8.796875-23.28125 20.636719-45.359375 35.277344-65.519531l34.800781-19.921875 8 32 32-32 24 24 24-24 32 32 8-32 34.800781 19.921875c14.640625 20.160156 26.480469 42.238281 35.277344 65.519531zm0 0" fill="#fcd770"/><path d="m184 319.796875c-39.695312 0-72 32.296875-72 72 0 39.707031 32.304688 72 72 72s72-32.292969 72-72c0-39.703125-32.304688-72-72-72zm56 72c0 7.335937-1.457031 14.335937-4.039062 20.761719l-35.960938-20.761719 35.960938-20.757813c2.582031 6.421876 4.039062 13.421876 4.039062 20.757813zm-112 0c0-7.335937 1.457031-14.335937 4.039062-20.757813l35.960938 20.757813-35.960938 20.761719c-2.582031-6.425782-4.039062-13.425782-4.039062-20.761719zm99.9375-34.605469-35.9375 20.75v-41.503906c14.519531 2.089844 27.246094 9.738281 35.9375 20.753906zm-51.9375-20.753906v41.503906l-35.9375-20.75c8.691406-11.015625 21.417969-18.664062 35.9375-20.753906zm-35.9375 89.96875 35.9375-20.753906v41.503906c-14.519531-2.085938-27.238281-9.734375-35.9375-20.75zm51.9375 20.75v-41.503906l35.9375 20.753906c-8.699219 11.015625-21.417969 18.664062-35.9375 20.75zm0 0"/><path d="m472 311.796875h-129c-4.144531-31.160156-11.625-61.726563-22.28125-91.238281l23.480469 15.65625-18.664063-49.769532c-5.152344-13.734374-11.414062-26.984374-18.582031-39.742187l11.253906 6.429687-6.621093-19.863281c-16.019532-48.039062-47.683594-90.496093-89.179688-119.542969l-4.710938-3.304687c-19.855468-13.894531-47.527343-13.894531-67.390624 0l-4.71875 3.296875c-41.496094 29.046875-73.160157 71.503906-89.179688 119.542969l-6.621094 19.863281 11.253906-6.429688c-7.167968 12.75-13.429687 26.007813-18.582031 39.742188l-18.664062 49.769531 23.480469-15.65625c-10.648438 29.519531-18.128907 60.085938-22.273438 91.246094h-25v160h117.640625c18.023437 14.976563 41.152344 24 66.359375 24s48.335938-9.023437 66.359375-24h117.640625v-112h104c13.230469 0 24-10.765625 24-24 0-13.230469-10.769531-24-24-24zm-392.3125-194.175781c16.34375-36.230469 42.457031-67.960938 75.074219-90.792969l4.710937-3.300781c14.457032-10.121094 34.589844-10.121094 49.039063 0l4.710937 3.300781c32.617188 22.832031 58.730469 54.554687 75.074219 90.792969l-.144531-.078125c-.609375-.832031-1.144532-1.714844-1.769532-2.535157l-1.160156.871094-42.4375-24.25-7.136718 28.535156-27.648438-27.679687-24 24-24-24-27.664062 27.664063-7.136719-28.535157-42.4375 24.25-1.160157-.867187c-.617187.824218-1.160156 1.707031-1.769531 2.539062zm-22.238281 74.441406c8.320312-22.207031 19.640625-43.121094 33.4375-62.410156l23.914062-13.664063 8.863281 35.464844 36.335938-36.34375 24 24 24-24 36.335938 36.335937 8.863281-35.464843 23.914062 13.664062c13.789063 19.289063 25.109375 40.203125 33.4375 62.410157l1.25 3.328124-34.015625-22.679687-31.601562 47.390625-39.632813-31.703125-22.550781 30.070313-22.550781-30.070313-39.632813 31.703125-31.601562-47.390625-34.015625 22.679687zm13.03125 13.03125 15.304687-10.199219 32.398438 48.609375 40.367187-32.296875 25.449219 33.925781 25.449219-33.925781 40.367187 32.296875 32.398438-48.609375 15.304687 10.199219c14.410157 34.136719 24.25 70 29.320313 106.703125h-76.488282c-18.023437-14.976563-41.152343-24-66.359374-24-25.207032 0-48.335938 9.023437-66.359376 24h-76.480468c5.078125-36.703125 14.917968-72.566406 29.328125-106.703125zm-54.480469 122.703125h86.191406c-13.847656 17.671875-22.191406 39.855469-22.191406 64s8.34375 46.328125 22.191406 64h-86.191406zm168 152c-48.519531 0-88-39.480469-88-88s39.480469-88 88-88 88 39.480469 88 88-39.480469 88-88 88zm81.808594-24c13.847656-17.671875 22.191406-39.855469 22.191406-64s-8.34375-46.328125-22.191406-64h86.191406v128zm102.191406-128h56v16h-56zm104 16h-32v-16h32c4.40625 0 8 3.585937 8 8 0 4.417969-3.59375 8-8 8zm0 0"/><path d="m320 423.796875h16v16h-16zm0 0"/><path d="m32 423.796875h16v16h-16zm0 0"/><path d="m320 343.796875h16v16h-16zm0 0"/><path d="m32 343.796875h16v16h-16zm0 0"/></svg>