<svg height="496pt" viewBox="-28 0 496 496" width="496pt" xmlns="http://www.w3.org/2000/svg"><path d="m264 344h-48c-4.398438 0-8 3.601562-8 8v128c0 4.398438 3.601562 8 8 8h48c4.398438 0 8-3.601562 8-8v-128c0-4.398438-3.601562-8-8-8zm0 0" fill="#cf9e76"/><path d="m256 240v104h-32v-192c0-4.398438 3.601562-8 8-8h16c4.398438 0 8 3.601562 8 8zm0 0" fill="#969faa"/><path d="m56 120v352c0 8.800781-7.199219 16-16 16-4.398438 0-8.398438-1.761719-11.28125-4.71875-2.957031-2.882812-4.71875-6.882812-4.71875-11.28125v-352zm0 0" fill="#cf9e76"/><path d="m72 96v24h-64v-80c0-17.679688 14.320312-32 32-32 8.800781 0 16.800781 3.601562 22.640625 9.359375 2.160156 2.160156 4 4.640625 5.519531 7.441406 2.398438 4.480469 3.839844 9.679688 3.839844 15.199219zm0 0" fill="#969faa"/><path d="m424 256-24.960938-4.160156c-47.277343-7.917969-95.117187-11.839844-143.039062-11.839844v-80.320312c42.640625 2.878906 118.558594 19.359374 168 96.320312zm0 0" fill="#e6e9ed"/><path d="m312 128s-112-32-240-32v-56c0-5.519531-1.441406-10.71875-3.839844-15.199219l3.839844-.800781s160-8 240 104zm0 0" fill="#e6e9ed"/><path d="m80 104.0625c122.015625 1.28125 228.71875 31.320312 229.808594 31.632812l22.007812 6.28125-13.304687-18.625c-81.128907-113.582031-238.320313-107.710937-246.71875-107.351562-7.304688-9.65625-18.777344-16-31.792969-16-22.054688 0-40 17.945312-40 40v88h16v344c0 13.230469 10.769531 24 24 24s24-10.769531 24-24v-344h16zm-32 367.9375c0 4.414062-3.585938 8-8 8s-8-3.585938-8-8v-344h16zm16-360h-48v-72c0-13.230469 10.769531-24 24-24s24 10.769531 24 24zm226.777344 2.398438c-38.671875-9.054688-120.640625-25.375-210.777344-26.308594v-48.089844c0-2.777344-.289062-5.480469-.832031-8.105469 28.65625.097657 141.753906 5.5625 211.609375 82.503907zm0 0"/><path d="m32 40h16v16h-16zm0 0"/><path d="m32 72h16v16h-16zm0 0"/><path d="m397.710938 259.726562 42.785156 7.136719-9.769532-15.183593c-48.804687-75.917969-122.558593-95.054688-166.726562-99.328126v-.351562c0-8.824219-7.175781-16-16-16h-16c-8.824219 0-16 7.175781-16 16v184c-8.824219 0-16 7.175781-16 16v128c0 8.824219 7.175781 16 16 16h48c8.824219 0 16-7.175781 16-16v-128c0-8.824219-7.175781-16-16-16v-87.832031c44.695312.417969 89.632812 4.214843 133.710938 11.558593zm8.6875-14.773437-6.0625-1.007813c-44.945313-7.488281-90.761719-11.359374-136.335938-11.777343v-63.726563c38.007812 3.933594 98.238281 19.679688 142.398438 76.511719zm-190.398438 155.046875h48.007812v32h-48.007812zm0 80v-32h48.007812v32zm48-96h-48v-32h48zm-32-48v-184h16v184zm0 0"/></svg>