<svg height="496pt" viewBox="0 0 496 496" width="496pt" xmlns="http://www.w3.org/2000/svg"><path d="m272 456v24c0 4.398438-3.601562 8-8 8h-32c-4.398438 0-8-3.601562-8-8v-24h40c2.640625 0 5.28125-.320312 7.761719-.960938zm0 0" fill="#838f9b"/><path d="m96 456v24c0 4.398438-3.601562 8-8 8h-32c-4.398438 0-8-3.601562-8-8v-24l.238281-.960938c2.480469.640626 5.121094.960938 7.761719.960938zm0 0" fill="#838f9b"/><path d="m296 416v8c0 14.960938-10.320312 27.601562-24.238281 31.039062-2.480469.640626-5.121094.960938-7.761719.960938h-72v-16h-64v16h-72c-2.640625 0-5.28125-.320312-7.761719-.960938-13.917969-3.4375-24.238281-16.078124-24.238281-31.039062v-8l33.441406 6.71875c4.320313.800781 8.796875 1.28125 13.277344 1.28125 15.121094 0 28.480469-9.679688 33.28125-24l.320312-3.039062c16.71875 1.757812 35.601563 3.039062 55.679688 3.039062 20.800781 0 39.519531-1.121094 55.679688-2.71875l.320312 2.71875c4.800781 14.320312 18.160156 24 33.28125 24 4.480469 0 8.957031-.480469 13.277344-1.28125zm0 0" fill="#ffeaa7"/><path d="m192 456v16h-64v-32h64zm0 0" fill="#ccd1d9"/><path d="m280 361.359375 10.640625 21.28125-2.640625 1.359375s-26.238281 8.71875-72.320312 13.28125c-16.160157 1.597656-34.878907 2.71875-55.679688 2.71875-20.078125 0-38.960938-1.28125-55.679688-3.039062-43.199218-4.640626-72.320312-12.960938-72.320312-12.960938l-2.640625-1.359375 10.640625-21.28125zm0 0" fill="#fcd770"/><path d="m296 400.960938v15.039062l-33.441406 6.71875c-4.320313.800781-8.796875 1.28125-13.277344 1.28125-15.121094 0-28.480469-9.679688-33.28125-24l-.320312-2.71875c46.082031-4.5625 72.320312-13.28125 72.320312-13.28125l2.640625-1.359375 2 4c2.238281 4.398437 3.359375 9.28125 3.359375 14.320313zm0 0" fill="#e6e9ed"/><path d="m104.320312 396.960938-.320312 3.039062c-4.800781 14.320312-18.160156 24-33.28125 24-4.480469 0-8.957031-.480469-13.277344-1.28125l-33.441406-6.71875v-15.039062c0-5.039063 1.121094-9.921876 3.359375-14.320313l2-4 2.640625 1.359375s29.121094 8.320312 72.320312 12.960938zm0 0" fill="#e6e9ed"/><path d="m459.039062 44.960938c18 19.839843 28.960938 46.238281 28.960938 75.039062 0 53.761719-37.921875 98.71875-88.558594 109.519531-7.601562 1.601563-15.441406 2.480469-23.441406 2.480469s-15.839844-.878906-23.441406-2.480469c-50.636719-10.800781-88.558594-55.757812-88.558594-109.519531 0-61.839844 50.160156-112 112-112 32.960938 0 62.640625 14.238281 83.039062 36.960938zm0 0" fill="#ccd1d9"/><path d="m436.398438 67.601562c12.242187 14 19.601562 32.320313 19.601562 52.398438 0 44.160156-35.839844 80-80 80s-80-35.839844-80-80 35.839844-80 80-80c24.078125 0 45.761719 10.71875 60.398438 27.601562zm0 0" fill="#69d6f4"/><path d="m399.441406 229.519531c-7.601562 1.601563-15.441406 2.480469-23.441406 2.480469s-15.839844-.878906-23.441406-2.480469l-.558594 2.480469v128h48v-128zm0 0" fill="#cf9e76"/><path d="m296 320c8.800781 0 16 7.199219 16 16 0 4.398438-1.761719 8.398438-4.71875 11.28125-2.882812 2.957031-6.882812 4.71875-11.28125 4.71875h-18l-6.71875-31.839844.71875-.160156zm0 0" fill="#ccd1d9"/><path d="m278 352 2 9.359375h-31.28125v-1.359375l-17.199219-73.839844c-.878906-3.601562-4.078125-6.160156-7.839843-6.160156h-127.359376c-3.761718 0-6.960937 2.558594-7.839843 6.160156l-17.199219 73.839844v1.359375h-31.28125l2-9.359375 6.71875-31.839844 9.921875-46.800781c3.121094-14.800781 16.160156-25.359375 31.28125-25.359375h140.15625c15.121094 0 28.160156 10.558594 31.28125 25.359375l9.921875 46.800781zm0 0" fill="#ffeaa7"/><path d="m248.71875 360v1.359375h-177.4375v-1.359375l17.199219-73.839844c.878906-3.601562 4.078125-6.160156 7.839843-6.160156h127.359376c3.761718 0 6.960937 2.558594 7.839843 6.160156zm0 0" fill="#69d6f4"/><path d="m48.71875 320.160156-6.71875 31.839844h-18c-4.398438 0-8.398438-1.761719-11.28125-4.71875-2.957031-2.882812-4.71875-6.882812-4.71875-11.28125 0-8.800781 7.199219-16 16-16h24zm0 0" fill="#ccd1d9"/><path d="m431.6875 188.128906-10.136719-12.386718c-12.808593 10.480468-28.992187 16.257812-45.550781 16.257812-39.695312 0-72-32.304688-72-72 0-16.558594 5.777344-32.742188 16.257812-45.550781l-12.386718-10.136719c-12.816406 15.664062-19.871094 35.441406-19.871094 55.6875 0 48.519531 39.480469 88 88 88 20.246094 0 40.023438-7.054688 55.6875-19.871094zm0 0"/><path d="m408 368v-64h16v-16h-16v-16h16v-16h-16v-20.464844c50.65625-14.054687 88-60.464844 88-115.535156 0-28.167969-9.824219-54.054688-26.136719-74.550781l23.792969-23.792969-11.3125-11.3125-23.265625 23.265625c-21.582031-20.761719-50.839844-33.609375-83.078125-33.609375-66.167969 0-120 53.832031-120 120 0 55.070312 37.34375 101.480469 88 115.535156v20.464844h-16v16h16v16h-16v16h16v64zm-16-16h-32v-48h32zm-120-232c0-57.34375 46.65625-104 104-104 27.832031 0 53.089844 11.046875 71.769531 28.921875l-11.3125 11.308594c-15.777343-14.972657-37.042969-24.230469-60.457031-24.230469-20.246094 0-40.023438 7.054688-55.6875 19.871094l10.136719 12.386718c12.808593-10.480468 28.992187-16.257812 45.550781-16.257812 19.007812 0 36.273438 7.457031 49.152344 19.535156l-57.152344 57.152344-18.34375-18.34375-11.3125 11.3125 29.65625 29.65625 67.625-67.625c7.808594 11.511719 12.375 25.382812 12.375 40.3125 0 16.558594-5.777344 32.742188-16.257812 45.550781l12.386718 10.136719c12.816406-15.664062 19.871094-35.441406 19.871094-55.6875 0-19.34375-6.34375-37.183594-16.960938-51.726562l11.417969-11.417969c13.445313 17.535156 21.542969 39.382812 21.542969 63.144531 0 57.34375-46.65625 104-104 104s-104-46.65625-104-104zm88 118.808594c5.246094.703125 10.558594 1.191406 16 1.191406s10.753906-.488281 16-1.191406v17.191406h-32zm0 33.191406h32v16h-32zm0 0"/><path d="m296 312h-18.273438l-8.527343-40.289062c-3.894531-18.375-20.351563-31.710938-39.136719-31.710938h-140.125c-18.785156 0-35.242188 13.335938-39.136719 31.710938l-8.527343 40.289062h-18.273438c-13.230469 0-24 10.769531-24 24s10.769531 24 24 24h7.742188l-11.511719 23.03125c-2.765625 5.527344-4.230469 11.710938-4.230469 17.898438v23.070312c0 16.359375 9.894531 30.414062 24 36.609375v19.390625c0 8.824219 7.175781 16 16 16h32c8.824219 0 16-7.175781 16-16v-16h16v16h80v-16h16v16c0 8.824219 7.175781 16 16 16h32c8.824219 0 16-7.175781 16-16v-19.390625c14.105469-6.195313 24-20.25 24-36.609375v-23.070312c0-6.175782-1.464844-12.371094-4.222656-17.890626l-11.519532-23.039062h7.742188c13.230469 0 24-10.769531 24-24s-10.769531-24-24-24zm-8 88.929688v8.519531l-27 5.398437c-3.847656.761719-7.785156 1.152344-11.703125 1.152344-9.128906 0-17.375-4.585938-22.335937-11.855469 30.78125-3.664062 51.238281-8.929687 59.464843-11.304687.933594 2.601562 1.574219 5.320312 1.574219 8.089844zm-254.375-8.210938c8.382812 2.167969 30.03125 7.289062 59.679688 11.007812-4.929688 7.511719-13.304688 12.273438-22.601563 12.273438-3.917969 0-7.855469-.390625-11.703125-1.160156l-27-5.398438v-8.519531c0-2.808594.65625-5.5625 1.625-8.203125zm7.023438-14.75 4.296874-8.59375h230.109376l4.394531 8.777344c-15.015625 4.054687-57.625 13.847656-119.449219 13.847656-56.167969 0-102.839844-10.007812-119.351562-14.03125zm25.808593-102.945312c2.335938-11.023438 12.207031-19.023438 23.480469-19.023438h140.132812c11.273438 0 21.144532 8 23.480469 19.023438l16.585938 78.34375h-14.761719l-16.0625-69c-1.703125-7.277344-8.113281-12.367188-15.59375-12.367188h-95.71875v16h95.71875l15.21875 65.367188h-157.875l15.226562-65.367188h15.710938v-16h-15.710938c-7.480468 0-13.890624 5.089844-15.585937 12.367188l-16.070313 69h-14.761718zm-50.457031 60.976562c0-4.40625 3.59375-8 8-8h14.886719l-3.382813 16h-11.503906c-4.40625 0-8-3.59375-8-8zm72 144h-32v-16h32zm96-16h-48v-16h48zm80 16h-32v-16h32zm0-32h-64v-16h-80v16h-64c-12.625 0-22.878906-9.824219-23.816406-22.207031l23.679687 4.734375c4.878907.976562 9.871094 1.472656 14.839844 1.472656 17.449219 0 32.890625-10.519531 39.585937-26.382812 15.199219 1.429687 31.941407 2.382812 49.710938 2.382812 18.382812 0 34.984375-.847656 49.824219-2.128906 6.761719 15.730468 22.121093 26.128906 39.472656 26.128906 4.96875 0 9.960937-.496094 14.839844-1.472656l23.679687-4.734375c-.9375 12.382812-11.199218 22.207031-23.816406 22.207031zm32-104h-11.496094l-3.382812-16h14.878906c4.40625 0 8 3.59375 8 8s-3.59375 8-8 8zm0 0"/><path d="m55.503906 189.464844 53.769532-125.464844h122.726562v-16h-133.273438l-42.230468 98.535156-18.953125-50.535156h-37.542969v16h26.457031zm0 0"/><path d="m120 80h112v16h-112zm0 0"/><path d="m120 112h112v16h-112zm0 0"/><path d="m120 144h112v16h-112zm0 0"/><path d="m160 176h16v16h-16zm0 0"/><path d="m192 176h16v16h-16zm0 0"/><path d="m128 176h16v16h-16zm0 0"/><path d="m88 144h16v16h-16zm0 0"/><path d="m472 456h-16v24h-16v-48h-16v48h-16v-72h-16v72h-16v-96h-16v112h136v-16h-24zm0 0"/></svg>