<svg height="496pt" viewBox="-48 0 496 496" width="496pt" xmlns="http://www.w3.org/2000/svg"><path d="m328 72v32h-72l-2.160156-.558594c1.441406-4.882812 2.160156-10.082031 2.160156-15.441406s-.71875-10.558594-2.160156-15.441406l2.160156-.558594zm0 0" fill="#ccd1d9"/><path d="m144 88c0 5.359375.71875 10.558594 2.160156 15.441406l-2.160156.558594h-72v-32h72l2.160156.558594c-1.441406 4.882812-2.160156 10.082031-2.160156 15.441406zm0 0" fill="#ccd1d9"/><path d="m248 392h80v32h-80zm0 0" fill="#ccd1d9"/><path d="m72 392h80v32h-80zm0 0" fill="#ccd1d9"/><path d="m152 360h96v32h-96zm0 0" fill="#fcd770"/><path d="m248 360h-96l48-40zm0 0" fill="#ffc729"/><path d="m248 424v64h-96v-96h96zm0 0" fill="#ff826e"/><path d="m216 440c0 8.835938-7.164062 16-16 16s-16-7.164062-16-16 7.164062-16 16-16 16 7.164062 16 16zm0 0" fill="#fcd770"/><path d="m200 144c15.519531 0 29.441406-6.238281 39.601562-16.398438l.398438.398438-6.878906 41.28125c-.640625 3.917969-4 6.71875-7.921875 6.71875h-50.398438c-3.921875 0-7.28125-2.800781-7.921875-6.71875l-6.878906-41.28125.398438-.398438c10.160156 10.160157 24.082031 16.398438 39.601562 16.398438zm0 0" fill="#ccd1d9"/><path d="m253.839844 72.558594c1.441406 4.882812 2.160156 10.082031 2.160156 15.441406s-.71875 10.558594-2.160156 15.441406c-2.640625 9.277344-7.601563 17.519532-14.238282 24.160156-10.160156 10.160157-24.082031 16.398438-39.601562 16.398438s-29.441406-6.238281-39.601562-16.398438c-6.636719-6.640624-11.597657-14.882812-14.238282-24.160156-1.441406-4.882812-2.160156-10.082031-2.160156-15.441406s.71875-10.558594 2.160156-15.441406c6.640625-23.4375 28.238282-40.558594 53.839844-40.558594s47.199219 17.121094 53.839844 40.558594zm0 0" fill="#ff826e"/><path d="m224 88c0 13.253906-10.746094 24-24 24s-24-10.746094-24-24 10.746094-24 24-24 24 10.746094 24 24zm0 0" fill="#fcd770"/><g fill="#838f9b"><path d="m392 24-32 32-32-32c0-8.800781 7.199219-16 16-16h32c8.800781 0 16 7.199219 16 16zm0 0"/><path d="m392 24v48l-32 32-32-32v-48l32 32zm0 0"/><path d="m392 72v48l-32 32-32-32v-48l32 32zm0 0"/><path d="m392 120v48c0 8.800781-7.199219 16-16 16h-32c-8.800781 0-16-7.199219-16-16v-48l32 32zm0 0"/><path d="m392 424v48c0 8.800781-7.199219 16-16 16h-32c-8.800781 0-16-7.199219-16-16v-48l32 32zm0 0"/><path d="m392 328v48l-32 32-32-32v-48l32 32zm0 0"/><path d="m392 376v48l-32 32-32-32v-48l32 32zm0 0"/><path d="m392 328-32 32-32-32c0-8.800781 7.199219-16 16-16h32c8.800781 0 16 7.199219 16 16zm0 0"/><path d="m72 328v48l-32 32-32-32v-48l32 32zm0 0"/><path d="m72 328-32 32-32-32c0-8.800781 7.199219-16 16-16h32c8.800781 0 16 7.199219 16 16zm0 0"/><path d="m72 392v32l-32 32-32-32v-48l32 32 32-32zm0 0"/><path d="m72 424v48c0 8.800781-7.199219 16-16 16h-32c-8.800781 0-16-7.199219-16-16v-48l32 32zm0 0"/><path d="m72 24v48l-32 32-32-32v-48l32 32zm0 0"/><path d="m72 104v16l-32 32-32-32v-48l32 32 32-32zm0 0"/><path d="m72 120v48c0 8.800781-7.199219 16-16 16h-32c-8.800781 0-16-7.199219-16-16v-48l32 32zm0 0"/><path d="m72 24-32 32-32-32c0-8.800781 7.199219-16 16-16h32c8.800781 0 16 7.199219 16 16zm0 0"/></g><path d="m200 56c-17.648438 0-32 14.351562-32 32s14.351562 32 32 32 32-14.351562 32-32-14.351562-32-32-32zm0 48c-8.824219 0-16-7.175781-16-16s7.175781-16 16-16 16 7.175781 16 16-7.175781 16-16 16zm0 0"/><path d="m344 192h32c13.230469 0 24-10.769531 24-24v-144c0-13.230469-10.769531-24-24-24h-32c-13.230469 0-24 10.769531-24 24v40h-60.710938c-9.519531-23.425781-32.488281-40-59.289062-40s-49.769531 16.574219-59.289062 40h-60.710938v-40c0-13.230469-10.769531-24-24-24h-32c-13.230469 0-24 10.769531-24 24v144c0 13.230469 10.769531 24 24 24h32c13.230469 0 24-10.769531 24-24v-56h60.710938c2.785156 6.855469 6.746093 13.097656 11.601562 18.535156l6.679688 40.105469c1.304687 7.742187 7.9375 13.359375 15.785156 13.359375h17.222656v132.257812l-48 40v27.742188h-64v-56c0-13.230469-10.769531-24-24-24h-32c-13.230469 0-24 10.769531-24 24v144c0 13.230469 10.769531 24 24 24h32c13.230469 0 24-10.769531 24-24v-40h64v64h112v-64h64v40c0 13.230469 10.769531 24 24 24h32c13.230469 0 24-10.769531 24-24v-144c0-13.230469-10.769531-24-24-24h-32c-13.230469 0-24 10.769531-24 24v56h-64v-27.753906l-48-40v-132.246094h17.222656c7.839844 0 14.480469-5.617188 15.785156-13.375l6.679688-40.089844c4.855469-5.4375 8.816406-11.679687 11.601562-18.535156h60.710938v56c0 13.230469 10.769531 24 24 24zm-104 176v16h-80v-16zm-65.902344-16 25.902344-21.585938 25.902344 21.585938zm-134.097656 19.3125 24-24v25.375l-24 24-24-24v-25.375zm-24 24 24 24 24-24v25.375l-24 24-24-24zm8-75.3125h32c3.441406 0 6.3125 2.199219 7.441406 5.246094l-23.441406 23.441406-23.441406-23.441406c1.128906-3.046875 4-5.246094 7.441406-5.246094zm32 160h-32c-4.414062 0-8-3.585938-8-8v-28.6875l24 24 24-24v28.6875c0 4.414062-3.585938 8-8 8zm24-64v-16h64v16zm80 64v-80h80v80zm200-108.6875 24-24v25.375l-24 24-24-24v-25.375zm24 49.375-24 24-24-24v-25.375l24 24 24-24zm-8 59.3125h-32c-4.414062 0-8-3.585938-8-8v-28.6875l24 24 24-24v28.6875c0 4.414062-3.585938 8-8 8zm-32-160h32c3.441406 0 6.3125 2.199219 7.441406 5.246094l-23.441406 23.441406-23.441406-23.441406c1.128906-3.046875 4-5.246094 7.441406-5.246094zm-24 80v16h-64v-16zm40-332.6875 24-24v25.375l-24 24-24-24v-25.375zm0 48 24-24v25.375l-24 24-24-24v-25.375zm16 60.6875h-32c-4.414062 0-8-3.585938-8-8v-28.6875l24 24 24-24v28.6875c0 4.414062-3.585938 8-8 8zm-32-160h32c3.441406 0 6.3125 2.199219 7.441406 5.246094l-23.441406 23.441406-23.441406-23.441406c1.128906-3.046875 4-5.246094 7.441406-5.246094zm-280 100.6875-24 24-24-24v-25.375l24 24 24-24zm-24-49.375 24-24v25.375l-24 24-24-24v-25.375zm-16-51.3125h32c3.441406 0 6.3125 2.199219 7.441406 5.246094l-23.441406 23.441406-23.441406-23.441406c1.128906-3.046875 4-5.246094 7.441406-5.246094zm32 160h-32c-4.414062 0-8-3.585938-8-8v-28.6875l24 24 24-24v28.6875c0 4.414062-3.585938 8-8 8zm24-80v-16h56.550781c-.328125 2.625-.550781 5.289062-.550781 8s.222656 5.375.550781 8zm128 72h-33.222656l-3.839844-23.054688c8.726562 4.480469 18.589844 7.054688 29.0625 7.054688s20.335938-2.574219 29.0625-7.054688l-3.839844 23.054688zm-8-32c-26.472656 0-48-21.527344-48-48s21.527344-48 48-48 48 21.527344 48 48-21.527344 48-48 48zm63.449219-40c.328125-2.625.550781-5.289062.550781-8s-.222656-5.375-.550781-8h56.550781v16zm0 0"/><path d="m200 416c-13.230469 0-24 10.769531-24 24s10.769531 24 24 24 24-10.769531 24-24-10.769531-24-24-24zm0 32c-4.414062 0-8-3.585938-8-8s3.585938-8 8-8 8 3.585938 8 8-3.585938 8-8 8zm0 0"/></svg>