<svg height="496pt" viewBox="0 0 496 496" width="496pt" xmlns="http://www.w3.org/2000/svg"><path d="m472 392v32h-58.800781c-6.480469-18.640625-24.320313-32-45.199219-32s-38.71875 13.359375-45.199219 32h-149.601562c-6.480469-18.640625-24.320313-32-45.199219-32s-38.71875 13.359375-45.199219 32h-58.800781v-52.878906c0-15.679688 11.28125-29.042969 26.71875-31.601563l55.601562-9.28125c8.71875-1.4375 16.480469-6.398437 21.359376-13.757812l30.800781-46.242188c5.917969-8.878906 15.917969-14.238281 26.640625-14.238281h151.199218c9.917969 0 19.199219 4.558594 25.28125 12.320312l39.597657 50.960938c4.402343 5.679688 10.5625 9.679688 17.519531 11.359375l29.042969 7.28125c11.199219 2.878906 19.839843 11.4375 22.957031 22.078125.800781 2.878906 1.28125 5.839844 1.28125 8.960938zm0 0" fill="#fcd770"/><path d="m358.238281 325.039062c1.121094 1.921876 1.761719 4.160157 1.761719 6.402344 0 6.957032-5.601562 12.558594-12.558594 12.558594h-174.882812c-6.957032 0-12.558594-5.601562-12.558594-12.558594 0-2.242187.640625-4.480468 1.761719-6.402344l18.558593-30.960937c2.320313-3.757813 6.398438-6.078125 10.800782-6.078125h137.757812c4.402344 0 8.480469 2.320312 10.800782 6.078125zm0 0" fill="#69d6f4"/><g fill="#ccd1d9"><path d="m472 456h-58.800781c1.839843-5.039062 2.800781-10.398438 2.800781-16s-.960938-10.960938-2.800781-16h58.800781c8.800781 0 16 7.199219 16 16s-7.199219 16-16 16zm0 0"/><path d="m322.800781 456h-149.601562c1.839843-5.039062 2.800781-10.398438 2.800781-16s-.960938-10.960938-2.800781-16h149.601562c-1.839843 5.039062-2.800781 10.398438-2.800781 16s.960938 10.960938 2.800781 16zm0 0"/><path d="m24 424h58.800781c-1.839843 5.039062-2.800781 10.398438-2.800781 16s.960938 10.960938 2.800781 16h-58.800781c-8.800781 0-16-7.199219-16-16s7.199219-16 16-16zm0 0"/></g><path d="m413.199219 424c1.839843 5.039062 2.800781 10.398438 2.800781 16s-.960938 10.960938-2.800781 16c-6.480469 18.640625-24.320313 32-45.199219 32s-38.71875-13.359375-45.199219-32c-1.839843-5.039062-2.800781-10.398438-2.800781-16s.960938-10.960938 2.800781-16c6.480469-18.640625 24.320313-32 45.199219-32s38.71875 13.359375 45.199219 32zm0 0" fill="#838f9b"/><path d="m173.199219 424c1.839843 5.039062 2.800781 10.398438 2.800781 16s-.960938 10.960938-2.800781 16c-6.480469 18.640625-24.320313 32-45.199219 32s-38.71875-13.359375-45.199219-32c-1.839843-5.039062-2.800781-10.398438-2.800781-16s.960938-10.960938 2.800781-16c6.480469-18.640625 24.320313-32 45.199219-32s38.71875 13.359375 45.199219 32zm0 0" fill="#838f9b"/><path d="m384 440c0 8.835938-7.164062 16-16 16s-16-7.164062-16-16 7.164062-16 16-16 16 7.164062 16 16zm0 0" fill="#e6e9ed"/><path d="m144 440c0 8.835938-7.164062 16-16 16s-16-7.164062-16-16 7.164062-16 16-16 16 7.164062 16 16zm0 0" fill="#e6e9ed"/><path d="m480 417.472656v-48.488281c0-18.390625-12.464844-34.34375-30.296875-38.808594l-29.039063-7.265625c-5.183593-1.292968-9.847656-4.335937-13.128906-8.542968l-39.605468-50.925782c-7.632813-9.808594-19.144532-15.441406-31.585938-15.441406h-151.214844c-13.410156 0-25.847656 6.664062-33.28125 17.816406l-30.808594 46.214844c-3.664062 5.496094-9.503906 9.273438-16.023437 10.359375l-55.582031 9.265625c-19.378906 3.222656-33.433594 19.816406-33.433594 39.457031v46.367188c-9.289062 3.304687-16 12.105469-16 22.519531 0 13.230469 10.769531 24 24 24h53.480469c9.007812 18.886719 28.238281 32 50.519531 32s41.511719-13.113281 50.519531-32h138.960938c9.007812 18.886719 28.238281 32 50.519531 32s41.511719-13.113281 50.519531-32h53.480469c13.230469 0 24-10.769531 24-24 0-10.414062-6.710938-19.214844-16-22.527344zm-427.945312-70.039062 55.585937-9.265625c10.863281-1.808594 20.597656-8.105469 26.710937-17.265625l30.808594-46.214844c4.457032-6.6875 11.917969-10.6875 19.96875-10.6875h151.222656c7.464844 0 14.367188 3.375 18.945313 9.265625l39.613281 50.925781c5.464844 7.023438 13.234375 12.082032 21.867188 14.25l29.046875 7.261719c4.320312 1.082031 8.078125 3.320313 11.0625 6.296875h-16.886719v16h23.921875c.015625.328125.078125.648438.078125.984375v15.015625h-24v16h24v16h-45.480469c-9.007812-18.886719-28.238281-32-50.519531-32s-41.511719 13.113281-50.519531 32h-138.960938c-9.007812-18.886719-28.238281-32-50.519531-32s-41.511719 13.113281-50.519531 32h-45.480469v-44.886719c0-11.785156 8.433594-21.746093 20.054688-23.679687zm-28.054688 100.566406c-4.40625 0-8-3.59375-8-8s3.59375-8 8-8h48.640625c-.375 2.625-.640625 5.28125-.640625 8s.265625 5.375.640625 8zm104 32c-22.054688 0-40-17.945312-40-40s17.945312-40 40-40 40 17.945312 40 40-17.945312 40-40 40zm55.359375-32c.375-2.625.640625-5.28125.640625-8s-.265625-5.375-.640625-8h129.28125c-.375 2.625-.640625 5.28125-.640625 8s.265625 5.375.640625 8zm184.640625 32c-22.054688 0-40-17.945312-40-40s17.945312-40 40-40 40 17.945312 40 40-17.945312 40-40 40zm104-32h-48.640625c.375-2.625.640625-5.28125.640625-8s-.265625-5.375-.640625-8h48.640625c4.40625 0 8 3.59375 8 8s-3.59375 8-8 8zm0 0"/><path d="m368 416c-13.230469 0-24 10.769531-24 24s10.769531 24 24 24 24-10.769531 24-24-10.769531-24-24-24zm0 32c-4.40625 0-8-3.59375-8-8s3.59375-8 8-8 8 3.59375 8 8-3.59375 8-8 8zm0 0"/><path d="m128 416c-13.230469 0-24 10.769531-24 24s10.769531 24 24 24 24-10.769531 24-24-10.769531-24-24-24zm0 32c-4.40625 0-8-3.59375-8-8s3.59375-8 8-8 8 3.59375 8 8-3.59375 8-8 8zm0 0"/><path d="m172.527344 352h174.9375c11.328125 0 20.535156-9.207031 20.535156-20.527344 0-3.710937-1.007812-7.367187-2.929688-10.5625l-18.558593-30.933594c-3.6875-6.152343-10.433594-9.976562-17.609375-9.976562h-137.804688c-7.167968 0-13.921875 3.824219-17.601562 9.96875l-18.566406 30.941406c-1.921876 3.195313-2.929688 6.84375-2.929688 10.5625 0 11.320313 9.207031 20.527344 20.527344 20.527344zm-3.878906-22.855469 18.566406-30.945312c.808594-1.359375 2.296875-2.199219 3.882812-2.199219h137.8125c1.585938 0 3.074219.839844 3.882813 2.199219l18.558593 30.9375c.425782.703125.648438 1.511719.648438 2.335937 0 2.496094-2.03125 4.527344-4.527344 4.527344h-174.945312c-2.496094 0-4.527344-2.03125-4.527344-4.527344 0-.824218.222656-1.632812.648438-2.328125zm0 0"/><path d="m224 368h24v16h-24zm0 0"/><path d="m253.65625 114.34375 11.3125-11.3125c-9.066406-9.070312-24.871094-9.070312-33.9375 0l11.3125 11.3125c3.023438-3.023438 8.289062-3.023438 11.3125 0zm0 0"/><path d="m287.601562 80.398438c-10.585937-10.574219-24.640624-16.398438-39.601562-16.398438s-29.015625 5.824219-39.601562 16.398438l11.3125 11.3125c7.5625-7.550782 17.609374-11.710938 28.289062-11.710938s20.726562 4.160156 28.289062 11.710938zm0 0"/><path d="m310.222656 57.777344c-16.613281-16.617188-38.71875-25.777344-62.222656-25.777344s-45.609375 9.160156-62.222656 25.777344l11.3125 11.3125c13.597656-13.601563 31.679687-21.089844 50.910156-21.089844s37.3125 7.488281 50.910156 21.089844zm0 0"/><path d="m248 16c27.785156 0 53.894531 10.816406 73.535156 30.464844l11.3125-11.3125c-22.65625-22.664063-52.792968-35.152344-84.847656-35.152344s-62.191406 12.488281-84.847656 35.152344l11.3125 11.3125c19.640625-19.648438 45.75-30.464844 73.535156-30.464844zm0 0"/><path d="m70.222656 255.03125 11.3125 11.3125c3.023438-3.023438 8.289063-3.023438 11.3125 0l11.3125-11.3125c-9.054687-9.070312-24.871094-9.070312-33.9375 0zm0 0"/><path d="m126.792969 232.398438c-10.578125-10.574219-24.640625-16.398438-39.601563-16.398438-14.960937 0-29.015625 5.824219-39.597656 16.398438l11.308594 11.3125c7.5625-7.550782 17.609375-11.710938 28.289062-11.710938 10.679688 0 20.730469 4.160156 28.289063 11.710938zm0 0"/><path d="m149.425781 209.777344c-16.625-16.617188-38.730469-25.777344-62.234375-25.777344s-45.605468 9.160156-62.222656 25.777344l11.3125 11.3125c13.597656-13.601563 31.671875-21.089844 50.910156-21.089844 19.234375 0 37.3125 7.488281 50.914063 21.089844zm0 0"/><path d="m87.191406 168c27.785156 0 53.898438 10.816406 73.535156 30.464844l11.3125-11.3125c-22.65625-22.664063-52.78125-35.152344-84.847656-35.152344-32.046875 0-62.183594 12.488281-84.847656 35.152344l11.3125 11.3125c19.648438-19.648438 45.757812-30.464844 73.535156-30.464844zm0 0"/><path d="m391.832031 255.03125 11.3125 11.3125c3.023438-3.023438 8.289063-3.023438 11.3125 0l11.3125-11.3125c-9.058593-9.070312-24.875-9.070312-33.9375 0zm0 0"/><path d="m448.398438 232.398438c-10.574219-10.574219-24.636719-16.398438-39.597657-16.398438-14.960937 0-29.015625 5.824219-39.601562 16.398438l11.3125 11.3125c7.558593-7.550782 17.609375-11.710938 28.296875-11.710938s20.726562 4.160156 28.289062 11.710938zm0 0"/><path d="m471.023438 209.777344c-16.617188-16.617188-38.710938-25.777344-62.214844-25.777344s-45.609375 9.160156-62.222656 25.777344l11.308593 11.3125c13.601563-13.601563 31.679688-21.089844 50.914063-21.089844 19.230468 0 37.3125 7.488281 50.910156 21.089844zm0 0"/><path d="m335.265625 198.464844c19.636719-19.648438 45.757813-30.464844 73.542969-30.464844 27.777344 0 53.894531 10.816406 73.535156 30.464844l11.3125-11.3125c-22.664062-22.664063-52.800781-35.152344-84.847656-35.152344-32.054688 0-62.191406 12.488281-84.847656 35.152344zm0 0"/><path d="m240 160h16v16h-16zm0 0"/><path d="m224 176h16v16h-16zm0 0"/><path d="m240 192h16v16h-16zm0 0"/><path d="m256 176h16v16h-16zm0 0"/></svg>