<svg height="496pt" viewBox="0 -43 496 495" width="496pt" xmlns="http://www.w3.org/2000/svg"><path d="m344 288.5c-2.71875 0-5.359375.160156-7.921875.640625-12.316406 1.679687-23.277344 7.359375-31.679687 15.757813-8.398438 8.402343-14.078126 19.363281-15.757813 31.679687-.480469 2.5625-.640625 5.203125-.640625 7.921875 0 30.960938 25.039062 56 56 56s56-25.039062 56-56-25.039062-56-56-56zm0 80c-13.28125 0-24-10.71875-24-24s10.71875-24 24-24 24 10.71875 24 24-10.71875 24-24 24zm0 0" fill="#969faa"/><path d="m207.359375 336.578125c-1.679687-12.316406-7.359375-23.277344-15.757813-31.679687-8.320312-8.398438-19.363281-14.078126-31.679687-15.757813-2.5625-.480469-5.203125-.640625-7.921875-.640625-30.960938 0-56 25.039062-56 56s25.039062 56 56 56 56-25.039062 56-56c0-2.71875-.160156-5.359375-.640625-7.921875zm-55.359375 31.921875c-13.28125 0-24-10.71875-24-24s10.71875-24 24-24 24 10.71875 24 24-10.71875 24-24 24zm0 0" fill="#969faa"/><g fill="#cf9e76"><path d="m192 304.5-.398438.398438c-8.320312-8.398438-19.363281-14.078126-31.679687-15.757813l.078125-.640625 40-40 24 24zm0 0"/><path d="m248 296.5-40 40-.640625.078125c-1.679687-12.316406-7.359375-23.277344-15.757813-31.679687l32.398438-32.398438zm0 0"/><path d="m271.996094 224.503906 55.996094-55.996094 24.003906 24-55.996094 55.996094zm0 0"/><path d="m247.996094 200.503906 55.996094-55.996094 24.003906 24-55.996094 55.996094zm0 0"/><path d="m304 304.5.398438.398438c-8.398438 8.402343-14.078126 19.363281-15.757813 31.679687l-.640625-.078125-144-144 24-24zm0 0"/><path d="m336 288.5.078125.640625c-12.316406 1.679687-23.277344 7.359375-31.679687 15.757813l-136.398438-136.398438 24-24zm0 0"/></g><path d="m322 42.5 132 132-58 58h-28v-24l-80-80h-24v-28zm0 0" fill="#838f9b"/><path d="m478 150.5-132-132 7.679688-7.679688c1.441406-1.441406 3.519531-2.320312 5.601562-2.320312h21.4375c2.082031 0 4.160156.878906 5.601562 2.320312l99.359376 99.359376c1.441406 1.441406 2.320312 3.519531 2.320312 5.601562v21.4375c0 2.082031-.878906 4.160156-2.320312 5.601562zm0 0" fill="#838f9b"/><path d="m42 174.5 132-132 58 58v28h-24l-80 80v24h-28zm0 0" fill="#838f9b"/><path d="m136.71875 8.5c2.082031 0 4.160156.878906 5.601562 2.320312l7.679688 7.679688-132 132-7.679688-7.679688c-1.441406-1.441406-2.320312-3.519531-2.320312-5.601562v-21.4375c0-2.082031.878906-4.160156 2.320312-5.601562l99.359376-99.359376c1.441406-1.441406 3.519531-2.320312 5.601562-2.320312zm0 0" fill="#838f9b"/><path d="m322 42.5 24-24 132.003906 132-24.003906 24.003906zm0 0" fill="#fcd770"/><path d="m18.003906 150.5 132-132 24 24-132 132zm0 0" fill="#fcd770"/><path d="m376 136.5c0 8.835938-7.164062 16-16 16s-16-7.164062-16-16 7.164062-16 16-16 16 7.164062 16 16zm0 0" fill="#ffc729"/><path d="m152 136.5c0 8.835938-7.164062 16-16 16s-16-7.164062-16-16 7.164062-16 16-16 16 7.164062 16 16zm0 0" fill="#ffc729"/><path d="m136 112.5c-13.230469 0-24 10.769531-24 24s10.769531 24 24 24 24-10.769531 24-24-10.769531-24-24-24zm0 32c-4.414062 0-8-3.59375-8-8s3.585938-8 8-8 8 3.59375 8 8-3.585938 8-8 8zm0 0"/><path d="m491.3125 104.5-99.3125-99.3125c-2.976562-2.984375-7.105469-4.6875-11.3125-4.6875h-21.375c-4.207031 0-8.335938 1.703125-11.3125 4.6875l-92 92v39.3125h28.6875l8 8-44.6875 44.6875-44.6875-44.6875 8-8h28.6875v-39.3125l-92-92c-2.976562-2.984375-7.105469-4.6875-11.3125-4.6875h-21.375c-4.207031 0-8.335938 1.703125-11.3125 4.6875l-99.3125 99.3125c-3.023438 3.023438-4.6875 7.039062-4.6875 11.3125v21.375c0 4.273438 1.664062 8.289062 4.6875 11.3125l92 92h39.3125v-28.6875l8-8 44.6875 44.6875-32.222656 32.222656c-1.480469-.101562-2.960938-.222656-4.464844-.222656-35.289062 0-64 28.710938-64 64s28.710938 64 64 64 64-28.710938 64-64c0-1.503906-.121094-2.984375-.222656-4.464844l32.222656-32.222656 32.222656 32.222656c-.101562 1.480469-.222656 2.960938-.222656 4.464844 0 35.289062 28.710938 64 64 64s64-28.710938 64-64-28.710938-64-64-64c-1.503906 0-2.984375.121094-4.464844.222656l-32.222656-32.222656 44.6875-44.6875 8 8v28.6875h39.3125l92-92c3.023438-3.023438 4.6875-7.039062 4.6875-11.3125v-21.375c0-4.273438-1.664062-8.289062-4.6875-11.3125zm-110.625-88 99.3125 99.3125v21.375l-2 2-120.6875-120.6875 2-2zm86 134-12.6875 12.6875-120.6875-120.6875 12.6875-12.6875zm-162.6875 5.3125 12.6875 12.6875-44.6875 44.6875-12.6875-12.6875zm-141.3125-113.3125-120.6875 120.6875-12.6875-12.6875 120.6875-120.6875zm-146.6875 73.3125 99.3125-99.3125h21.375l2 2-120.6875 120.6875-2-2zm104 89.375v19.3125h-16.6875l-50-50 120.6875-120.6875 50 50v16.6875h-19.3125zm80 54.625 12.6875 12.6875-21.503906 21.503906c-4.886719-3.800781-10.335938-6.902344-16.207032-9.167968zm-48 132.6875c-26.472656 0-48-21.527344-48-48s21.527344-48 48-48 48 21.527344 48 48-21.527344 48-48 48zm59.664062-70.976562c-2.273437-5.871094-5.367187-11.3125-9.167968-16.207032l21.503906-21.503906 12.6875 12.6875zm180.335938 22.976562c0 26.472656-21.527344 48-48 48s-48-21.527344-48-48 21.527344-48 48-48 48 21.527344 48 48zm-87.183594-50.496094-59.160156-59.160156-11.3125 11.3125 59.160156 59.160156c-3.800781 4.886719-6.902344 10.335938-9.167968 16.207032l-129.023438-129.023438 12.6875-12.6875 58.34375 58.34375 11.3125-11.3125-58.34375-58.34375 12.6875-12.6875 129.023438 129.023438c-5.871094 2.273437-11.3125 5.367187-16.207032 9.167968zm-8.816406-56.816406-12.6875-12.6875 44.6875-44.6875 12.6875 12.6875zm96.6875-12.6875h-16.6875v-19.3125l-84.6875-84.6875h-19.3125v-16.6875l50-50 120.6875 120.6875zm0 0"/><path d="m360 112.5c-13.230469 0-24 10.769531-24 24s10.769531 24 24 24 24-10.769531 24-24-10.769531-24-24-24zm0 32c-4.414062 0-8-3.59375-8-8s3.585938-8 8-8 8 3.59375 8 8-3.585938 8-8 8zm0 0"/><path d="m152 312.5c-4.6875 0-9.304688 1.070312-13.726562 3.175781l6.871093 14.449219c10.96875-5.210938 22.855469 3.261719 22.855469 14.375 0 2.289062-.542969 4.59375-1.617188 6.839844l14.441407 6.886718c2.105469-4.414062 3.175781-9.039062 3.175781-13.726562 0-17.648438-14.351562-32-32-32zm0 0"/><path d="m136 344.5c0-2.289062.542969-4.59375 1.617188-6.839844l-14.441407-6.886718c-2.105469 4.414062-3.175781 9.039062-3.175781 13.726562 0 17.648438 14.351562 32 32 32 4.6875 0 9.304688-1.070312 13.726562-3.175781l-6.871093-14.449219c-10.960938 5.234375-22.855469-3.261719-22.855469-14.375zm0 0"/><path d="m329.617188 351.339844c-1.074219-2.246094-1.617188-4.550782-1.617188-6.839844 0-11.113281 11.902344-19.585938 22.847656-14.375l6.871094-14.449219c-4.414062-2.105469-9.03125-3.175781-13.71875-3.175781-17.648438 0-32 14.351562-32 32 0 4.6875 1.070312 9.3125 3.175781 13.734375zm0 0"/><path d="m337.152344 358.875-6.871094 14.449219c4.414062 2.105469 9.03125 3.175781 13.71875 3.175781 17.648438 0 32-14.351562 32-32 0-4.6875-1.070312-9.3125-3.175781-13.734375l-14.441407 6.886719c1.074219 2.253906 1.617188 4.558594 1.617188 6.847656 0 11.113281-11.878906 19.609375-22.847656 14.375zm0 0"/></svg>