<svg height="496pt" viewBox="0 0 496 496" width="496pt" xmlns="http://www.w3.org/2000/svg"><g fill="#ffeaa7"><path d="m456 312h32v176h-32zm0 0"/><path d="m392 384h32v104h-32zm0 0"/><path d="m328 424h32v64h-32zm0 0"/><path d="m264 456h32v32h-32zm0 0"/></g><path d="m248 8c110.480469 0 200 89.519531 200 200s-89.519531 200-200 200-200-89.519531-200-200 89.519531-200 200-200zm0 0" fill="#b4dd7f"/><path d="m403.199219 272.320312c-7.277344 17.601563-17.4375 33.679688-30 47.679688h-93.199219c0-8.398438-3.28125-16-8.558594-21.761719l-14.722656-162.238281c-.398438-4.558594-4.160156-8-8.71875-8s-8.320312 3.441406-8.71875 8l-14.722656 162.238281c-5.277344 5.761719-8.558594 13.363281-8.558594 21.761719h-93.199219c-12.5625-14-22.722656-30.078125-30-47.679688-8.242187-19.839843-12.800781-41.519531-12.800781-64.320312s4.558594-44.480469 12.800781-64.320312c8.480469-20.480469 20.960938-39.039063 36.398438-54.480469 15.441406-15.4375 34-27.917969 54.480469-36.398438 19.839843-8.242187 41.519531-12.800781 64.320312-12.800781s44.480469 4.558594 64.320312 12.800781c20.480469 8.480469 39.039063 20.960938 54.480469 36.398438 15.4375 15.441406 27.917969 34 36.398438 54.480469 8.242187 19.839843 12.800781 41.519531 12.800781 64.320312s-4.558594 44.480469-12.800781 64.320312zm0 0" fill="#e6e9ed"/><path d="m280 320h93.199219c-30.71875 34.398438-75.4375 56-125.199219 56s-94.480469-21.601562-125.199219-56zm0 0" fill="#b4dd7f"/><path d="m224.558594 298.238281 14.722656-162.238281c.398438-4.558594 4.160156-8 8.71875-8s8.320312 3.441406 8.71875 8l14.722656 162.238281c-5.839844-6.316406-14.160156-10.238281-23.441406-10.238281s-17.601562 3.921875-23.441406 10.238281zm0 0" fill="#fcd770"/><path d="m280 320h-64c0-8.398438 3.28125-16 8.558594-21.761719 5.839844-6.316406 14.160156-10.238281 23.441406-10.238281s17.601562 3.921875 23.441406 10.238281c5.277344 5.761719 8.558594 13.363281 8.558594 21.761719zm0 0" fill="#ffc729"/><path d="m248 416c114.6875 0 208-93.304688 208-208s-93.3125-208-208-208-208 93.304688-208 208 93.3125 208 208 208zm0-400c105.863281 0 192 86.136719 192 192s-86.136719 192-192 192-192-86.136719-192-192 86.136719-192 192-192zm0 0"/><path d="m248 384c97.046875 0 176-78.953125 176-176s-78.953125-176-176-176-176 78.953125-176 176 78.953125 176 176 176zm-128.710938-131.34375-21.824218 9.039062c-5.152344-14.40625-8.265625-29.726562-9.066406-45.695312h39.601562v-16h-39.59375c.792969-15.960938 3.90625-31.289062 9.066406-45.695312l21.824219 9.039062 6.128906-14.785156-21.808593-9.03125c6.75-14.175782 15.496093-27.175782 25.917968-38.695313l27.960938 27.96875 11.3125-11.3125-27.960938-27.96875c11.511719-10.421875 24.511719-19.167969 38.6875-25.917969l9.03125 21.804688 14.785156-6.125-9.039062-21.824219c14.398438-5.144531 29.726562-8.257812 45.6875-9.050781v39.59375h16v-39.59375c15.960938.792969 31.289062 3.90625 45.695312 9.066406l-9.039062 21.824219 14.785156 6.128906 9.03125-21.808593c14.175782 6.75 27.175782 15.496093 38.6875 25.917968l-27.960937 27.96875 11.3125 11.3125 27.960937-27.96875c10.421875 11.511719 19.175782 24.519532 25.917969 38.695313l-21.804687 9.03125 6.125 14.785156 21.824218-9.039063c5.152344 14.40625 8.265625 29.726563 9.066406 45.695313h-39.601562v16h39.59375c-.792969 15.960937-3.90625 31.289063-9.066406 45.695313l-21.824219-9.039063-6.128906 14.785156 21.808593 9.03125c-6.125 12.878907-13.855468 24.824219-23.046874 35.535157h-82.144532c-1.269531-6.238282-4.128906-11.847657-7.945312-16.664063l-14.550782-160.085937c-.792968-8.722657-7.96875-15.273438-16.695312-15.273438s-15.902344 6.550781-16.6875 15.238281l-14.550781 160.089844c-3.824219 4.824219-6.683594 10.433594-7.953125 16.671875h-82.152344c-9.191406-10.710938-16.921875-22.65625-23.046875-35.535156l21.804687-9.03125zm128.710938 43.34375c10.414062 0 19.214844 6.710938 22.527344 16h-45.046875c3.304687-9.289062 12.105469-16 22.519531-16zm-14.023438-13.328125 13.269532-145.976563c.074218-.800781 1.441406-.800781 1.507812 0l13.269532 145.976563c-4.375-1.648437-9.070313-2.671875-14.023438-2.671875s-9.640625 1.015625-14.023438 2.671875zm-91.457031 45.328125h210.953125c-28.191406 24.816406-65.046875 40-105.472656 40s-77.28125-15.183594-105.480469-40zm0 0"/><path d="m448 304v176h-16v-104h-48v104h-16v-64h-48v64h-16v-32h-48v32h-16v16h256v-192zm-48 88h16v88h-16zm-64 40h16v48h-16zm-64 32h16v16h-16zm208 16h-16v-160h16zm0 0"/><path d="m114.457031 452.351562-20.503906-68.351562h-93.953125v16h82.046875l27.496094 91.648438 30.984375-51.648438h51.472656v-16h-60.527344zm0 0"/><path d="m32 432h16v16h-16zm0 0"/><path d="m0 432h16v16h-16zm0 0"/><path d="m64 432h16v16h-16zm0 0"/></svg>