<svg height="480pt" viewBox="-72 0 480 480" width="480pt" xmlns="http://www.w3.org/2000/svg"><path d="m328 472h-320v-256c0-18.519531 32-112 32-112h256s32 82.488281 32 112zm0 0" fill="#ced8dc"/><path d="m40 8v96h256v-96zm160 64h-64c-8.835938 0-16-7.164062-16-16s7.164062-16 16-16h64c8.835938 0 16 7.164062 16 16s-7.164062 16-16 16zm0 0" fill="#7e8589"/><path d="m200 344v-112l16 16 16-32-32-32h-32c0 13.253906-10.746094 24-24 24s-24-10.746094-24-24h-32l-32 32 16 32 16-16v112zm0 0" fill="#60a2d7"/><path d="m301.335938 370.0625c-12.382813-9.609375-28.683594-12.558594-43.648438-7.886719 14.84375-14.574219 18.613281-37.050781 9.332031-55.667969-9.28125-18.617187-29.5-29.136718-50.074219-26.054687-20.570312 3.082031-36.816406 19.066406-40.234374 39.585937-.238282-.039062-.472657-.039062-.710938-.039062-16.691406.003906-32.179688 8.691406-40.878906 22.9375-3.011719-17.375-15.304688-31.703125-32.023438-37.3125-16.71875-5.613281-35.164062-1.605469-48.046875 10.4375-12.886719 12.039062-18.128906 30.175781-13.660156 47.234375-10.699219-4.214844-22.566406-4.394531-33.390625-.503906v109.207031h320v-125.144531c-11.507812 4.074219-21.039062 12.371093-26.664062 23.207031zm0 0" fill="#a3d4f7"/><path d="m296 248c0 8.835938-7.164062 16-16 16s-16-7.164062-16-16 7.164062-16 16-16 16 7.164062 16 16zm0 0" fill="#a3d4f7"/><path d="m296 0h-256c-4.417969 0-8 3.582031-8 8v94.671875c-4.648438 13.601563-32 94.601563-32 113.328125v256c0 4.417969 3.582031 8 8 8h320c4.417969 0 8-3.582031 8-8v-256c0-28.878906-27.671875-102.207031-32-113.488281v-94.511719c0-4.417969-3.582031-8-8-8zm-248 16h240v80h-240zm-32 448v-95.089844c7.515625-1.550781 15.324219-.914062 22.488281 1.84375 2.777344 1.082032 5.925781.527344 8.167969-1.433594 2.246094-1.960937 3.210938-5.007812 2.511719-7.90625-3.804688-14.238281.53125-29.414062 11.285156-39.496093 10.75-10.082031 26.171875-13.4375 40.140625-8.726563 13.964844 4.707032 24.210938 16.714844 26.664062 31.25.605469 3.25 3.148438 5.792969 6.398438 6.398438.476562.085937.960938.128906 1.449219.128906.199219 0 .390625-.058594.589843-.074219.199219-.015625.519532-.054687.800782-.101562.488281-.085938.96875-.21875 1.433594-.394531.238281-.09375.46875-.175782.695312-.277344.460938-.226563.898438-.496094 1.3125-.800782.175781-.144531.375-.25.542969-.410156.566406-.5 1.058593-1.078125 1.464843-1.71875 7.148438-11.859375 19.960938-19.132812 33.808594-19.191406h.796875c3.953125.054688 7.351563-2.785156 8-6.679688.375-2.085937.910157-4.136718 1.601563-6.136718.167968-.488282.320312-.976563.503906-1.457032.675781-1.78125 1.480469-3.511718 2.398438-5.183593.328124-.589844.714843-1.152344 1.066406-1.726563.6875-1.097656 1.429687-2.152344 2.214844-3.199218.527343-.6875 1.039062-1.386719 1.601562-2.03125 1.019531-1.152344 2.101562-2.246094 3.246094-3.273438.761718-.679688 1.558594-1.328125 2.402344-1.953125.839843-.625 1.484374-1.078125 2.253906-1.597656.769531-.523438 1.40625-.992188 2.160156-1.425781.070312 0 .121094-.105469.191406-.144532 17.4375-9.839844 39.460938-5.273437 51.550782 10.683594 12.085937 15.960938 10.511718 38.402344-3.6875 52.515625-2.621094 2.59375-3.132813 6.644531-1.234376 9.808594 1.898438 3.160156 5.714844 4.617187 9.234376 3.519531 12.476562-3.824219 26.027343-1.371094 36.371093 6.585938 1.398438 1.082031 3.121094 1.671874 4.894531 1.671874.582032-.003906 1.160157-.0625 1.726563-.183593 2.324219-.515625 4.296875-2.039063 5.386719-4.152344 2.800781-5.285156 6.753906-9.875 11.566406-13.433594v103.792969zm180.9375-239.390625c-2.988281 1.238281-4.9375 4.15625-4.9375 7.390625v50.105469c-.089844.054687-.152344.132812-.238281.199219-2.386719 1.6875-4.632813 3.558593-6.722657 5.597656-.144531.136718-.304687.257812-.4375.394531-2.179687 2.15625-4.175781 4.488281-5.96875 6.976563l-.105468.125c-3.683594 5.128906-6.472656 10.84375-8.238282 16.90625-2.15625.261718-4.292968.652343-6.402343 1.175781-.839844.183593-1.710938.238281-2.535157.464843-.945312.253907-1.824218.679688-2.75.984376-7.644531 2.4375-14.667968 6.515624-20.578124 11.941406-1.097657-2.167969-2.335938-4.257813-3.710938-6.261719-.441406-.648437-.945312-1.242187-1.417969-1.875-.964843-1.308594-1.957031-2.597656-3.039062-3.8125-.609375-.691406-1.269531-1.335937-1.917969-1.992187-1.042969-1.066407-2.097656-2.097657-3.203125-3.074219-.734375-.640625-1.476563-1.238281-2.238281-1.832031-1.152344-.902344-2.328125-1.75-3.542969-2.558594-.800781-.535156-1.601563-1.058594-2.402344-1.554688-1.285156-.757812-2.605469-1.445312-3.949219-2.101562-.800781-.417969-1.65625-.800782-2.511718-1.207032-1.496094-.640624-3.042969-1.175781-4.601563-1.699218-.761719-.246094-1.496093-.542969-2.265625-.757813-2.359375-.679687-4.765625-1.195312-7.199218-1.550781v-64.59375c0-3.234375-1.949219-6.152344-4.9375-7.390625-2.988282-1.238281-6.429688-.550781-8.71875 1.734375l-8.152344 8.152344-8.480469-16.894532 25.601563-25.601562h21.695312c3.636719 14.144531 16.386719 24.03125 30.992188 24.03125 14.605468 0 27.355468-9.886719 30.992187-24.03125h21.695313l25.601562 25.601562-8.457031 16.917969-8.152344-8.152343c-2.289063-2.316407-5.757813-3.011719-8.765625-1.757813zm123.0625 116.941406c-8.378906 3.929688-15.644531 9.890625-21.136719 17.335938-7.457031-4.117188-15.761719-6.453125-24.269531-6.832031 9.644531-19.972657 6.546875-43.761719-7.898438-60.597657-14.445312-16.832031-37.488281-23.511719-58.695312-17.007812v-23.136719l2.34375 2.34375c1.828125 1.800781 4.398438 2.632812 6.9375 2.238281 2.539062-.410156 4.726562-2.015625 5.878906-4.320312l16-32c1.539063-3.078125.929688-6.796875-1.503906-9.230469l-32-32c-1.5-1.5-3.535156-2.34375-5.65625-2.34375h-32c-4.417969 0-8 3.582031-8 8 0 8.835938-7.164062 16-16 16s-16-7.164062-16-16c0-4.417969-3.582031-8-8-8h-32c-2.121094 0-4.15625.84375-5.65625 2.34375l-32 32c-2.433594 2.433594-3.042969 6.152344-1.503906 9.230469l16 32c1.152344 2.296875 3.332031 3.902343 5.867187 4.3125 2.535157.414062 5.113281-.417969 6.933594-2.230469l2.359375-2.34375v45.328125c-27.527344 3.972656-47.96875 27.546875-48 55.359375v.585938c-5.308594-.742188-10.699219-.714844-16 .078124v-136.664062c0-11.910156 17.511719-67.878906 29.726562-104h244.800782c9.730468 25.847656 29.472656 82.566406 29.472656 104zm0 0"/><path d="m200 32h-64c-13.253906 0-24 10.746094-24 24s10.746094 24 24 24h64c13.253906 0 24-10.746094 24-24s-10.746094-24-24-24zm0 32h-64c-4.417969 0-8-3.582031-8-8s3.582031-8 8-8h64c4.417969 0 8 3.582031 8 8s-3.582031 8-8 8zm0 0"/><path d="m256 248c0 13.253906 10.746094 24 24 24s24-10.746094 24-24-10.746094-24-24-24-24 10.746094-24 24zm32 0c0 4.417969-3.582031 8-8 8s-8-3.582031-8-8 3.582031-8 8-8 8 3.582031 8 8zm0 0"/></svg>