<svg height="480pt" viewBox="0 0 480.00169 480" width="480pt" xmlns="http://www.w3.org/2000/svg"><path d="m472 136-88-80h-96c0 26.511719-21.488281 48-48 48-26.507812 0-48-21.488281-48-48h-96l-88 72 56 88 32-29.085938v285.085938h288v-282.183594l32 26.183594zm0 0" fill="#60a2d7"/><path d="m472 32h-464c-4.417969 0-8-3.582031-8-8s3.582031-8 8-8h464c4.421875 0 8 3.582031 8 8s-3.578125 8-8 8zm0 0" fill="#7e8589"/><path d="m136 80c-4.417969 0-8-3.582031-8-8v-64c0-4.417969 3.582031-8 8-8 4.421875 0 8 3.582031 8 8v64c0 4.417969-3.578125 8-8 8zm0 0" fill="#e9cfb7"/><path d="m344 80c-4.417969 0-8-3.582031-8-8v-64c0-4.417969 3.582031-8 8-8 4.421875 0 8 3.582031 8 8v64c0 4.417969-3.578125 8-8 8zm0 0" fill="#e9cfb7"/><path d="m472 16h-120v-8c0-4.417969-3.578125-8-8-8-4.417969 0-8 3.582031-8 8v8h-192v-8c0-4.417969-3.578125-8-8-8-4.417969 0-8 3.582031-8 8v8h-120c-4.417969 0-8 3.582031-8 8s3.582031 8 8 8h120v16h-32c-1.84375 0-3.632812.640625-5.0625 1.808594l-88 72c-3.136719 2.5625-3.863281 7.070312-1.6875 10.488281l56 88c1.265625 1.992187 3.347656 3.320313 5.6875 3.632813 2.339844.304687 4.695312-.429688 6.449219-2.007813l18.613281-16.929687v267.007812c0 4.417969 3.582031 8 8 8h288c4.421875 0 8-3.582031 8-8v-265.296875l18.9375 15.488281c1.722656 1.410156 3.953125 2.039063 6.15625 1.734375 2.203125-.304687 4.183594-1.511719 5.460938-3.332031l56-80c2.308593-3.296875 1.808593-7.796875-1.167969-10.503906l-88-80c-1.472657-1.34375-3.394531-2.085938-5.386719-2.089844h-32v-16h120c4.421875 0 8-3.582031 8-8s-3.578125-8-8-8zm-91.09375 48 80.503906 73.183594-47.015625 67.203125-25.328125-20.714844c-2.386718-1.949219-5.683594-2.355469-8.472656-1.042969s-4.578125 4.113282-4.59375 7.195313v274.175781h-272v-277.085938c.003906-3.167968-1.863281-6.039062-4.761719-7.320312-2.898437-1.28125-6.277343-.734375-8.621093 1.398438l-24.96875 22.695312-47.085938-73.992188 80.296875-65.695312h29.140625v8c0 4.417969 3.582031 8 8 8 4.421875 0 8-3.582031 8-8v-8h40.570312c3.957032 27.574219 27.578126 48.046875 55.429688 48.046875 27.855469 0 51.476562-20.472656 55.433594-48.046875h40.566406v8c0 4.417969 3.582031 8 8 8 4.421875 0 8-3.582031 8-8v-8zm-44.90625-16h-48c-4.417969 0-8 3.582031-8 8 0 22.09375-17.90625 40-40 40-22.089844 0-40-17.90625-40-40 0-4.417969-3.578125-8-8-8h-48v-16h192zm0 0"/></svg>