<svg height="480pt" viewBox="0 -28 480 480" width="480pt" xmlns="http://www.w3.org/2000/svg"><path d="m360 416c-64 0-80-16-144-16s-80 16-144 16c-35.34375 0-64-32.230469-64-72v-144c0-39.769531 28.65625-72 64-72 64 0 80 16 144 16s80-16 144-16c35.34375 0 64 32.230469 64 72v144c0 39.769531-32 72-64 72zm0 0" fill="#fce666"/><path d="m112 224h208c8.835938 0 16 7.164062 16 16v64c0 8.835938-7.164062 16-16 16h-208c-8.835938 0-16-7.164062-16-16v-64c0-8.835938 7.164062-16 16-16zm0 0" fill="#f7cc38"/><path d="m472 216c0 22.089844-17.910156 40-40 40s-40-17.910156-40-40 17.910156-40 40-40 40 17.910156 40 40zm0 0" fill="#a3d4f7"/><path d="m472 80c0 17.671875-14.328125 32-32 32s-32-14.328125-32-32 14.328125-32 32-32 32 14.328125 32 32zm0 0" fill="#a3d4f7"/><path d="m360 128c0 26.507812-21.492188 48-48 48s-48-21.492188-48-48 21.492188-48 48-48 48 21.492188 48 48zm0 0" fill="#a3d4f7"/><g fill="#60a2d7"><path d="m240 72h-32c-4.417969 0-8-3.582031-8-8s3.582031-8 8-8h32c4.417969 0 8 3.582031 8 8s-3.582031 8-8 8zm0 0"/><path d="m224 88c-4.417969 0-8-3.582031-8-8v-32c0-4.417969 3.582031-8 8-8s8 3.582031 8 8v32c0 4.417969-3.582031 8-8 8zm0 0"/><path d="m376 32h-32c-4.417969 0-8-3.582031-8-8s3.582031-8 8-8h32c4.417969 0 8 3.582031 8 8s-3.582031 8-8 8zm0 0"/><path d="m360 48c-4.417969 0-8-3.582031-8-8v-32c0-4.417969 3.582031-8 8-8s8 3.582031 8 8v32c0 4.417969-3.582031 8-8 8zm0 0"/></g><path d="m320 216h-208c-13.253906 0-24 10.746094-24 24v64c0 13.253906 10.746094 24 24 24h208c13.253906 0 24-10.746094 24-24v-64c0-13.253906-10.746094-24-24-24zm8 88c0 4.417969-3.582031 8-8 8h-208c-4.417969 0-8-3.582031-8-8v-64c0-4.417969 3.582031-8 8-8h208c4.417969 0 8 3.582031 8 8zm0 0"/><path d="m432 168c-1.972656.011719-3.941406.144531-5.894531.398438-9.050781-25.695313-31.6875-44.1875-58.671875-47.925782-4.160156-29.007812-29.972656-49.902344-59.210938-47.929687-29.234375 1.976562-52.003906 26.15625-52.222656 55.457031 0 1.824219.105469 3.625.273438 5.398438-13.351563 1.78125-26.804688 2.652343-40.273438 2.601562-23.6875.023438-47.300781-2.605469-70.398438-7.839844-24.15625-5.4375-48.839843-8.175781-73.601562-8.160156-39.695312 0-72 35.886719-72 80v144c0 44.113281 32.304688 80 72 80 24.761719.015625 49.445312-2.722656 73.601562-8.160156 46.371094-10.453125 94.488282-10.453125 140.863282 0 24.132812 5.433594 48.796875 8.167968 73.535156 8.160156 38.351562 0 72-37.382812 72-80v-80c26.507812 0 48-21.492188 48-48s-21.492188-48-48-48zm-120-80c15.253906-.113281 29.246094 8.460938 36.070312 22.101562 6.824219 13.644532 5.296876 29.980469-3.941406 42.121094-9.238281 12.140625-24.578125 17.96875-39.542968 15.023438-.800782-.148438-1.601563-.414063-2.402344-.621094-1.546875-.378906-3.066406-.851562-4.550782-1.417969-.890624-.34375-1.753906-.742187-2.609374-1.144531-1.328126-.628906-2.621094-1.332031-3.871094-2.101562-.800782-.503907-1.601563-1-2.398438-1.554688-1.21875-.890625-2.386718-1.851562-3.496094-2.878906-.648437-.589844-1.335937-1.144532-1.953124-1.773438-1.210938-1.292968-2.339844-2.660156-3.375-4.097656-.585938-.800781-1.160157-1.601562-1.691407-2.398438-1.027343-1.613281-1.941406-3.292968-2.734375-5.035156-.496094-1.117187-.847656-2.328125-1.238281-3.511718-1.449219-4.082032-2.214844-8.378907-2.265625-12.710938.027344-22.082031 17.917969-39.972656 40-40zm104 173.265625v82.734375c0 36.632812-29.601562 64-56 64-23.6875.023438-47.300781-2.605469-70.398438-7.839844-48.445312-10.878906-98.695312-10.878906-147.136718 0-23.121094 5.238282-46.757813 7.867188-70.464844 7.839844-30.878906 0-56-28.710938-56-64v-144c0-35.289062 25.121094-64 56-64 23.6875-.023438 47.300781 2.605469 70.398438 7.839844 24.15625 5.4375 48.839843 8.175781 73.601562 8.160156 14.769531.074219 29.523438-.90625 44.152344-2.929688 1.003906 2.445313 2.179687 4.8125 3.519531 7.089844.183594.3125.375.617188.558594.917969 1.289062 2.128906 2.710937 4.167969 4.265625 6.105469l.144531.191406c1.5625 1.890625 3.246094 3.679688 5.039063 5.351562l1.230468 1.113282c3.664063 3.261718 7.742188 6.023437 12.128906 8.214844.472657.242187.945313.464843 1.433594.6875 4.503906 2.101562 9.273438 3.585937 14.175782 4.410156.582031.105468 1.167968.191406 1.75.273437 2.519531.359375 5.058593.554688 7.601562.574219 1.847656 0 3.664062-.105469 5.464844-.28125.605468-.054688 1.191406-.167969 1.800781-.246094 1.175781-.152344 2.398437-.3125 3.519531-.535156.695313-.136719 1.367188-.320312 2.054688-.480469 1.039062-.25 2.082031-.496093 3.097656-.800781.703125-.207031 1.390625-.449219 2.085938-.6875.96875-.328125 1.929687-.671875 2.871093-1.046875.691407-.28125 1.371094-.585937 2.050781-.890625.902344-.40625 1.796876-.839844 2.679688-1.296875.671875-.34375 1.328125-.703125 1.984375-1.070313.855469-.488281 1.6875-1 2.511719-1.535156.632812-.402344 1.253906-.800781 1.863281-1.226562.800781-.574219 1.601563-1.175782 2.398437-1.789063.570313-.449219 1.144532-.882812 1.695313-1.34375.800781-.671875 1.554687-1.386719 2.304687-2.097656.496094-.464844 1-.910156 1.480469-1.390625.800781-.839844 1.601563-1.730469 2.402344-2.617188.351563-.40625.726563-.800781 1.0625-1.199218 1.078125-1.3125 2.105469-2.679688 3.0625-4.089844.25-.367188.464844-.800781.707031-1.144531.6875-1.0625 1.367188-2.140625 1.980469-3.253907.320313-.585937.601563-1.199218.90625-1.800781.480469-.945312.953125-1.886719 1.375-2.855469.296875-.671874.550781-1.367187.800781-2.046874.367188-.945313.726563-1.890626 1.046875-2.847657.234375-.722656.441407-1.457031.648438-2.195312.273437-.964844.527343-1.933594.753906-2.910157.167969-.761718.320313-1.527343.453125-2.296874.097656-.496094.226562-.976563.296875-1.480469 19.90625 3.625 36.414063 17.496093 43.410156 36.480469-13.96875 6.914062-23.707031 20.179687-26.121093 35.578124-.0625.390626-.128907.796876-.175782 1.160157-.296875 2.066406-.453125 4.148437-.472656 6.238281.019531 2.285156.199219 4.566406.542969 6.824219.066406.449219.128906.886719.199219 1.335937.382812 2.222656.917968 4.417969 1.601562 6.566406l.0625.183594c.714844 2.144532 1.578125 4.230469 2.585938 6.25.105468.207032.191406.425782.304687.632813 1.03125 2.023437 2.207031 3.96875 3.519531 5.824219.121094.175781.253906.34375.382813.519531 1.265625 1.75 2.648437 3.410156 4.136719 4.976562.128906.125.238281.269531.367187.398438 1.527344 1.550781 3.160156 2.996093 4.882813 4.328125.359374.28125.726562.550781 1.085937.800781 1.75 1.304687 3.582031 2.488281 5.488281 3.550781l.273438.128906c1.867187.984376 3.800781 1.84375 5.78125 2.574219.265625.113281.511718.273438.785156.371094zm16-13.265625c-2.148438 0-4.292969-.21875-6.398438-.648438-.089843 0-.167968-.0625-.257812-.078124-1.871094-.398438-3.699219-.964844-5.464844-1.699219-.550781-.222657-1.046875-.535157-1.597656-.796875-1.242188-.578125-2.445312-1.230469-3.601562-1.960938-.609376-.390625-1.160157-.847656-1.734376-1.28125-.972656-.710937-1.90625-1.476562-2.792968-2.296875-.585938-.550781-1.128906-1.140625-1.671875-1.734375-.753907-.816406-1.460938-1.675781-2.121094-2.566406-.503906-.691406-.992187-1.386719-1.449219-2.113281-.574218-.921875-1.078125-1.894531-1.597656-2.878907-.367188-.800781-.753906-1.519531-1.074219-2.320312-.425781-1.140625-.785156-2.308594-1.078125-3.488281-.191406-.710938-.433594-1.410157-.574218-2.136719-.386719-1.976562-.582032-3.984375-.585938-6 .015625-1.992188.21875-3.980469.601562-5.9375.109376-.582031.285157-1.132812.421876-1.703125.324218-1.328125.726562-2.632813 1.214843-3.910156.242188-.625.503907-1.226563.800781-1.824219.53125-1.128906 1.128907-2.222656 1.785157-3.28125.382812-.617188.742187-1.238281 1.167969-1.832031.621093-.832031 1.289062-1.632813 1.992187-2.398438 4.023437-4.589843 9.269531-7.9375 15.128906-9.648437.054688 0 .09375-.066406.152344-.082032 2.832031-.867187 5.773437-1.332031 8.734375-1.382812 17.671875 0 32 14.328125 32 32s-14.328125 32-32 32zm0 0"/><path d="m440 40c-22.089844 0-40 17.910156-40 40s17.910156 40 40 40 40-17.910156 40-40c-.027344-22.082031-17.917969-39.972656-40-40zm0 64c-13.253906 0-24-10.746094-24-24s10.746094-24 24-24 24 10.746094 24 24-10.746094 24-24 24zm0 0"/><path d="m224 88c4.417969 0 8-3.582031 8-8v-8h8c4.417969 0 8-3.582031 8-8s-3.582031-8-8-8h-8v-8c0-4.417969-3.582031-8-8-8s-8 3.582031-8 8v8h-8c-4.417969 0-8 3.582031-8 8s3.582031 8 8 8h8v8c0 4.417969 3.582031 8 8 8zm0 0"/><path d="m360 48c4.417969 0 8-3.582031 8-8v-8h8c4.417969 0 8-3.582031 8-8s-3.582031-8-8-8h-8v-8c0-4.417969-3.582031-8-8-8s-8 3.582031-8 8v8h-8c-4.417969 0-8 3.582031-8 8s3.582031 8 8 8h8v8c0 4.417969 3.582031 8 8 8zm0 0"/></svg>