<svg height="480pt" viewBox="0 -48 480.00012 480" width="480pt" xmlns="http://www.w3.org/2000/svg"><path d="m472 192.195312-64 32v-64h64zm0 0" fill="#ac8168"/><path d="m24 344.195312h352v32h-368v-16c0-8.835937 7.164062-16 16-16zm0 0" fill="#ac8168"/><path d="m424 136.195312h-192c-114.875 0-208 93.125-208 208h368c0-22.089843 21.488281-40 48-40zm-32 128h-232c0-44.183593 35.816406-80 80-80h152zm0 0" fill="#e9cfb7"/><path d="m216 232.195312h32c8.835938 0 16 7.164063 16 16v16h-64v-16c0-8.835937 7.164062-16 16-16zm0 0" fill="#ac8168"/><path d="m312 80.195312c0 39.761719-32.234375 72-72 72s-72-32.238281-72-72c0-39.765624 32.234375-72 72-72s72 32.234376 72 72zm0 0" fill="#ee638c"/><path d="m251.3125 80.195312 18.34375-18.34375c3.03125-3.140624 2.988281-8.128906-.097656-11.214843-3.085938-3.085938-8.074219-3.128907-11.214844-.097657l-18.34375 18.34375-18.34375-18.34375c-3.140625-3.03125-8.128906-2.988281-11.214844.097657-3.085937 3.085937-3.128906 8.074219-.097656 11.214843l18.34375 18.34375-18.34375 18.34375c-2.078125 2.007813-2.914062 4.980469-2.179688 7.78125.730469 2.796876 2.914063 4.980469 5.710938 5.710938 2.796875.734375 5.773438-.101562 7.78125-2.179688l18.34375-18.34375 18.34375 18.34375c3.140625 3.03125 8.128906 2.988282 11.214844-.097656 3.085937-3.085937 3.128906-8.078125.097656-11.214844zm0 0" fill="#fff"/><path d="m392 176.195312h-152c-48.578125.054688-87.941406 39.421876-88 88 0 4.417969 3.582031 8 8 8h232c4.417969 0 8-3.582031 8-8v-80c0-4.417968-3.582031-8-8-8zm-184 80v-8c0-4.417968 3.582031-8 8-8h32c4.417969 0 8 3.582032 8 8v8zm176 0h-112v-8c0-13.253906-10.746094-24-24-24h-32c-13.253906 0-24 10.746094-24 24v8h-23.550781c4.113281-36.421874 34.898437-63.957031 71.550781-64h144zm0 0"/><path d="m472 152.195312h-38.398438l-1.601562-16.761718c-.09375-1.011719-.386719-2-.855469-2.902344-.386719-.703125-.878906-1.347656-1.457031-1.90625-.113281-.109375-.175781-.261719-.296875-.367188-.609375-.53125-1.300781-.960937-2.046875-1.28125-.160156-.070312-.289062-.183593-.457031-.246093-.59375-.191407-1.207031-.304688-1.832031-.34375-.34375-.089844-.699219-.15625-1.054688-.191407h-120.152344c25.511719-33.800781 20.265625-81.621093-11.96875-109.085937-32.230468-27.464844-80.277344-25.054687-109.601562 5.492187-29.320313 30.550782-29.757813 78.660157-.996094 109.738282-94.714844 22.5-162.433594 105.921875-164.984375 203.238281-9.710937 3.277344-16.2617188 12.367187-16.296875 22.617187v16c0 4.417969 3.582031 8 8 8h368c4.417969 0 8-3.582031 8-8v-24h8c4.417969 0 8-3.582031 8-8 0-17.648437 17.945312-32 40-32 .265625.015626.535156.015626.800781 0 .453125-.097656.902344-.230468 1.335938-.402343.472656-.097657.933593-.242188 1.382812-.421875.800781-.582032 1.601563-1.167969 2.402344-1.753906.046875-.046876.054687-.117188.09375-.167969.496094-.621094.894531-1.3125 1.183594-2.054688.152343-.238281.285156-.484375.410156-.734375.339844-1.03125.460937-2.121094.359375-3.203125l-8.214844-86.191406 35.820313-17.871094c2.726562-1.363281 4.441406-4.152343 4.425781-7.199219v-32c0-4.417968-3.582031-8-8-8zm-232-136c28.039062.039063 52.785156 18.320313 61.0625 45.109376 8.273438 26.789062-1.851562 55.84375-24.984375 71.691406l-.46875.328125c-1.601563 1.078125-3.257813 2.078125-4.953125 3.015625l-.921875.460937c-1.460937.800781-2.949219 1.503907-4.488281 2.167969-.375.160156-.757813.304688-1.140625.457031-1.472657.601563-2.96875 1.152344-4.488281 1.648438l-1.351563.417969c-1.464844.4375-2.960937.796874-4.472656 1.148437-.511719.113281-1.023438.234375-1.546875.328125-1.503906.296875-3.023438.511719-4.550782.699219-.519531.0625-1.03125.148437-1.597656.199219-2.027344.191406-4.066406.3125-6.136718.3125-2.945313-.023438-5.886719-.25-8.800782-.679688-.679687-.089844-1.34375-.195312-2.015625-.304688-2.871093-.472656-5.707031-1.140624-8.488281-2l-.296875-.113281c-2.777344-.910156-5.484375-2.011719-8.113281-3.296875l-1.207032-.582031c-2.703124-1.375-5.308593-2.941406-7.792968-4.679687-22.875-16.015626-32.714844-45.023438-24.300782-71.648438 8.414063-26.628906 33.128907-44.714844 61.054688-44.679688zm128 352h-352v-8c0-4.417968 3.582031-8 8-8h344zm16.800781-32h-352.640625c3.390625-93.859374 71.949219-172.566406 164.457032-188.800781.222656.144531.472656.238281.703124.382813 2.675782 1.691406 5.453126 3.222656 8.3125 4.585937.582032.277344 1.160157.582031 1.742188.847657 3.121094 1.40625 6.328125 2.613281 9.601562 3.605468.527344.160156 1.070313.265625 1.597657.417969 2.78125.765625 5.597656 1.382813 8.441406 1.847656.914063.152344 1.808594.296875 2.71875.417969 3.40625.449219 6.832031.679688 10.265625.695312 2.449219 0 4.886719-.144531 7.320312-.367187.960938-.089844 1.902344-.234375 2.847657-.355469 1.40625-.183594 2.808593-.382812 4.199219-.636718 1.167968-.21875 2.320312-.457032 3.464843-.714844 1.144531-.253906 2.230469-.558594 3.34375-.863282 1.230469-.34375 2.472657-.671874 3.679688-1.070312 1.015625-.328125 2-.730469 3-1.097656 2.007812-.75 4-1.597656 5.90625-2.472656 1.214843-.566407 2.445312-1.125 3.636719-1.757813.90625-.480469 1.769531-1.007813 2.648437-1.519531 1.242187-.722656 2.472656-1.449219 3.671875-2.234375.800781-.503907 1.511719-1.03125 2.265625-1.597657.75-.570312 1.328125-.875 1.96875-1.351562h128.800781l14.527344 152.582031c-22.289062 1.976563-40.914062 17.785157-46.480469 39.457031zm79.199219-148.945312-25.863281 12.945312-3.046875-32h28.910156zm0 0"/><path d="m210.34375 109.851562c3.125 3.121094 8.1875 3.121094 11.3125 0l18.34375-18.34375 18.34375 18.34375c3.140625 3.03125 8.128906 2.988282 11.214844-.097656 3.085937-3.085937 3.128906-8.078125.097656-11.214844l-18.34375-18.34375 18.34375-18.34375c3.03125-3.140624 2.988281-8.128906-.097656-11.214843-3.085938-3.085938-8.074219-3.128907-11.214844-.097657l-18.34375 18.34375-18.34375-18.34375c-3.140625-3.03125-8.128906-2.988281-11.214844.097657-3.085937 3.085937-3.128906 8.074219-.097656 11.214843l18.34375 18.34375-18.34375 18.34375c-3.121094 3.125-3.121094 8.1875 0 11.3125zm0 0"/></svg>