<svg height="480pt" viewBox="-152 0 480 480.00005" width="480pt" xmlns="http://www.w3.org/2000/svg"><path d="m40 472h-32v-464c44.183594 0 80 35.816406 80 80v176zm0 0" fill="#ac8168"/><path d="m168 472h-32l-48-208v-168c0-52.183594 35.816406-88 80-88zm0 0" fill="#e9cfb7"/><path d="m120 248c0 17.671875-14.328125 32-32 32s-32-14.328125-32-32 14.328125-32 32-32 32 14.328125 32 32zm0 0" fill="#4f3328"/><path d="m88 256c-3.234375 0-6.152344-1.949219-7.390625-4.9375s-.550781-6.429688 1.734375-8.71875l80-80c3.140625-3.03125 8.128906-2.988281 11.214844.097656 3.085937 3.085938 3.128906 8.074219.097656 11.214844l-80 80c-1.5 1.5-3.535156 2.34375-5.65625 2.34375zm0 0" fill="#abb1ba"/><path d="m40 208c-2.121094 0-4.15625-.84375-5.65625-2.34375l-32-32c-3.03125-3.140625-2.988281-8.128906.097656-11.214844 3.085938-3.085937 8.074219-3.128906 11.214844-.097656l32 32c3.144531 3.128906-3.609375 13.65625-5.65625 13.65625zm0 0" fill="#abb1ba"/><path d="m136 480h32c4.417969 0 8-3.582031 8-8v-464c0-4.417969-3.582031-8-8-8-34.753906-.0351562-66.074219 20.953125-79.246094 53.113281-13.941406-32.207031-45.660156-53.0703122-80.753906-53.113281-4.417969 0-8 3.582031-8 8v464c0 4.417969 3.582031 8 8 8h32c3.726562.003906 6.960938-2.570312 7.800781-6.199219l40.199219-174.207031 40.199219 174.207031c.839843 3.628907 4.074219 6.203125 7.800781 6.199219zm6.398438-16-41.207032-178.398438c11.644532-4.011718 20.773438-13.191406 24.714844-24.855468 3.945312-11.667969 2.253906-24.503906-4.570312-34.753906l38.664062-38.679688v276.6875zm-54.398438-240c3.5625.015625 7.078125.835938 10.28125 2.398438l-15.9375 15.9375c-2.078125 2.007812-2.914062 4.984374-2.179688 7.78125.730469 2.796874 2.914063 4.980468 5.710938 5.710937 2.796875.734375 5.773438-.101563 7.78125-2.179687l15.945312-15.929688c1.5625 3.203125 2.382813 6.71875 2.398438 10.28125 0 13.253906-10.746094 24-24 24s-24-10.746094-24-24 10.746094-24 24-24zm72-207.574219v148.261719l-49.976562 49.976562c-4.253907-2.839843-9.015626-4.832031-14.023438-5.863281v-112.800781c0-43.335938 26.464844-75.558594 64-79.574219zm-126.359375 447.574219h-17.640625v-276.6875l18.34375 18.34375c3.140625 3.03125 8.128906 2.988281 11.214844-.097656 3.085937-3.085938 3.128906-8.074219.097656-11.214844l-29.65625-29.65625v-148.246094c36.421875 4.117188 63.957031 34.90625 64 71.558594v120.800781c-17.652344 3.53125-30.75 18.453125-31.964844 36.414063-1.210937 17.960937 9.757813 34.507812 26.773438 40.386718zm0 0"/></svg>