<svg height="480pt" viewBox="0 -47 480 479" width="480pt" xmlns="http://www.w3.org/2000/svg"><path d="m8 8.5h304v240h-304zm0 0" fill="#e9cfb7"/><path d="m472 200.5-46.039062-138.121094c-4.355469-13.066406-16.585938-21.878906-30.359376-21.878906h-83.601562v208h-304v64h464zm0 0" fill="#60a2d7"/><path d="m424 168.5h-80v-96h24.9375c13.789062-.019531 26.039062 8.796875 30.398438 21.878906zm0 0" fill="#fef1d8"/><path d="m216 184.5v-80l16 16 16-32-32-32h-32c0 13.253906-10.746094 24-24 24s-24-10.746094-24-24h-32l-32 32 16 32 16-16v80" fill="#60a2d7"/><path d="m64 128.5c0 4.417969-3.582031 8-8 8s-8-3.582031-8-8 3.582031-8 8-8 8 3.582031 8 8zm0 0" fill="#a3d4f7"/><path d="m440 200.5h32v32h-32zm0 0" fill="#fef1d8"/><path d="m424 328.5c0 26.507812-21.492188 48-48 48s-48-21.492188-48-48 21.492188-48 48-48 48 21.492188 48 48zm0 0" fill="#ac8168"/><path d="m384 328.5c0 4.417969-3.582031 8-8 8s-8-3.582031-8-8 3.582031-8 8-8 8 3.582031 8 8zm0 0" fill="#4f3328"/><path d="m376 344.5c-8.835938 0-16-7.164062-16-16s7.164062-16 16-16 16 7.164062 16 16-7.164062 16-16 16zm0-16" fill="#4f3328"/><path d="m152 328.5c0 26.507812-21.492188 48-48 48s-48-21.492188-48-48 21.492188-48 48-48 48 21.492188 48 48zm0 0" fill="#ac8168"/><path d="m112 328.5c0 4.417969-3.582031 8-8 8s-8-3.582031-8-8 3.582031-8 8-8 8 3.582031 8 8zm0 0" fill="#4f3328"/><path d="m104 344.5c-8.835938 0-16-7.164062-16-16s7.164062-16 16-16 16 7.164062 16 16-7.164062 16-16 16zm0-16" fill="#4f3328"/><path d="m296 184.5c-21.679688 0-40-10.992188-40-24 0-4.417969-3.582031-8-8-8s-8 3.582031-8 8c0 13.007812-18.320312 24-40 24s-40-10.992188-40-24c0-4.417969-3.582031-8-8-8s-8 3.582031-8 8c0 13.007812-18.320312 24-40 24s-40-10.992188-40-24c0-4.417969-3.582031-8-8-8s-8 3.582031-8 8c0 13.007812-18.320312 24-40 24v64h304v-66.121094c-5.214844 1.410156-10.597656 2.121094-16 2.121094zm0 0" fill="#a3d4f7"/><path d="m392 328.5c0 8.835938-7.164062 16-16 16s-16-7.164062-16-16 7.164062-16 16-16 16 7.164062 16 16zm0 0"/><path d="m120 328.5c0 8.835938-7.164062 16-16 16s-16-7.164062-16-16 7.164062-16 16-16 16 7.164062 16 16zm0 0"/><path d="m433.550781 59.851562c-5.429687-16.34375-20.726562-27.367187-37.949219-27.351562h-75.601562v-24c0-4.417969-3.582031-8-8-8h-304c-4.417969 0-8 3.582031-8 8v304c0 4.417969 3.582031 8 8 8h40.59375c0 .207031 0 .414062-.050781.617188-3.042969 21.664062 6.8125 43.121093 25.234375 54.929687 18.417968 11.808594 42.027344 11.808594 60.445312 0 18.421875-11.808594 28.277344-33.265625 25.234375-54.929687 0-.203126 0-.410157-.050781-.617188h161.1875c0 .207031 0 .414062-.050781.617188-3.042969 21.664062 6.8125 43.121093 25.234375 54.929687 18.417968 11.808594 42.027344 11.808594 60.445312 0 18.421875-11.808594 28.277344-33.265625 25.234375-54.929687 0-.203126 0-.410157-.050781-.617188h40.59375c4.417969 0 8-3.582031 8-8v-112c0-.859375-.136719-1.710938-.40625-2.527344zm30.449219 164.648438h-16v-16h16zm-448-208h288v167.488281c-2.652344.34375-5.324219.511719-8 .511719-21.679688 0-40-10.992188-40-24 0-4.417969-3.582031-8-8-8s-8 3.582031-8 8c-1.261719 8.855469-7.476562 16.214844-16 18.9375v-55.625l2.34375 2.34375c1.820312 1.8125 4.398438 2.644531 6.933594 2.230469 2.53125-.410157 4.714844-2.015625 5.867187-4.3125l16-32c1.535157-3.078125.929688-6.796875-1.503906-9.230469l-32-32c-1.496094-1.496094-3.523437-2.339844-5.640625-2.34375h-32c-4.417969 0-8 3.582031-8 8 0 8.835938-7.164062 16-16 16s-16-7.164062-16-16c0-4.417969-3.582031-8-8-8h-32c-2.121094 0-4.15625.84375-5.65625 2.34375l-32 32c-2.433594 2.433594-3.042969 6.152344-1.503906 9.230469l16 32c1.152344 2.304687 3.339844 3.910156 5.878906 4.320312 2.539062.429688 5.128906-.40625 6.9375-2.238281l2.34375-2.34375v60.175781c-18.007812-2.296875-32-12.121093-32-23.488281 0-4.417969-3.582031-8-8-8s-8 3.582031-8 8c0 11.367188-13.992188 21.191406-32 23.488281zm136 136c-4.417969 0-8 3.582031-8 8 0 11.367188-13.992188 21.191406-32 23.488281v-79.488281c0-3.234375-1.949219-6.152344-4.9375-7.390625s-6.429688-.550781-8.71875 1.734375l-8.152344 8.152344-8.457031-16.894532 25.601563-25.601562h21.695312c3.636719 14.144531 16.386719 24.03125 30.992188 24.03125 14.605468 0 27.355468-9.886719 30.992187-24.03125h21.695313l25.601562 25.601562-8.457031 16.917969-8.152344-8.152343c-2.28125-2.316407-5.734375-3.027344-8.746094-1.789063-3.007812 1.234375-4.964843 4.167969-4.957031 7.421875v79.488281c-2.652344.34375-5.324219.511719-8 .511719-21.679688 0-40-10.992188-40-24 0-4.417969-3.582031-8-8-8zm-136 47.566406c15.238281-.902344 29.550781-7.601562 40-18.726562 12.492188 13 29.988281 19.984375 48 19.160156 18.019531.824219 35.519531-6.175781 48-19.199219 12.480469 13.023438 29.980469 20.023438 48 19.199219 18.019531.824219 35.519531-6.175781 48-19.199219 12.480469 13.023438 29.980469 20.023438 48 19.199219 2.726562 0 5.382812-.175781 8-.433594v40.433594h-288zm88 168.433594c-11.910156.101562-23.238281-5.15625-30.847656-14.320312-7.613282-9.164063-10.703125-21.261719-8.417969-32.953126.21875-1.160156.585937-2.300781.914063-3.445312 4.726562-17.285156 20.429687-29.273438 38.351562-29.273438s33.625 11.988282 38.351562 29.273438c.328126 1.144531.695313 2.285156.914063 3.445312 2.285156 11.691407-.804687 23.789063-8.417969 32.953126-7.609375 9.164062-18.9375 14.421874-30.847656 14.320312zm272 0c-11.910156.101562-23.238281-5.15625-30.847656-14.320312-7.613282-9.164063-10.703125-21.261719-8.417969-32.953126.21875-1.160156.585937-2.300781.914063-3.445312 4.726562-17.285156 20.429687-29.273438 38.351562-29.273438s33.625 11.988282 38.351562 29.273438c.328126 1.144531.695313 2.285156.914063 3.445312 2.285156 11.691407-.804687 23.789063-8.417969 32.953126-7.609375 9.164062-18.9375 14.421874-30.847656 14.320312zm50.519531-64c-9.234375-19.539062-28.910156-32-50.519531-32s-41.285156 12.460938-50.519531 32h-170.960938c-9.234375-19.539062-28.910156-32-50.519531-32s-41.285156 12.460938-50.519531 32h-37.480469v-48h296c4.417969 0 8-3.582031 8-8v-200h75.601562c10.347657-.027344 19.542969 6.59375 22.796876 16.414062l42.503906 127.585938h-20.902344c-4.417969 0-8 3.582031-8 8v32c0 4.417969 3.582031 8 8 8h24v64zm0 0"/><path d="m406.878906 91.851562c-5.429687-16.34375-20.722656-27.367187-37.941406-27.351562h-24.9375c-4.417969 0-8 3.582031-8 8v96c0 4.417969 3.582031 8 8 8h80c2.570312 0 4.988281-1.234375 6.492188-3.320312 1.503906-2.085938 1.914062-4.769532 1.101562-7.207032zm-54.878906 68.648438v-80h16.9375c10.332031 0 19.5 6.613281 22.765625 16.414062l21.199219 63.585938zm0 0"/><path d="m64 128.5c0 4.417969-3.582031 8-8 8s-8-3.582031-8-8 3.582031-8 8-8 8 3.582031 8 8zm0 0"/></svg>