<svg height="480pt" viewBox="0 0 480 480.46384" width="480pt" xmlns="http://www.w3.org/2000/svg"><path d="m8.230469 256.230469h464v24h-464zm0 0" fill="#ac8168"/><path d="m476.097656 241.03125-227.867187-125.757812v-36.082032c20.625-4.210937 34.457031-23.683594 31.640625-44.542968-2.8125-20.859376-21.316406-35.96875-42.316406-34.5585942-21 1.4101562-37.320313 18.8515622-37.324219 39.9023442 0 4.417968 3.582031 8 8 8s8-3.582032 8-8c0-13.253907 10.746093-24 24-24 13.257812 0 24 10.746093 24 24 0 13.253906-10.742188 24-24 24-4.417969 0-8 3.582031-8 8v43.28125l-227.863281 125.757812c-2.539063 1.402344-4.121094 4.066406-4.136719 6.96875v32c0 4.417969 3.582031 8 8 8h464c4.417969 0 8-3.582031 8-8v-32c-.011719-2.902344-1.59375-5.566406-4.132813-6.96875zm-11.867187 30.96875h-448v-19.273438l224-123.589843 224 123.589843zm0 0" fill="#ac8168"/><path d="m96.230469 247.992188h288v208.480468c0 8.835938-7.160157 16-16 16h-256c-8.835938 0-16-7.164062-16-16zm0 0" fill="#f6a7bd"/><path d="m96.230469 391.992188h288v32h-288zm0 0" fill="#fef1d8"/><path d="m476.097656 241.03125-227.867187-125.757812v-36.082032c20.625-4.210937 34.457031-23.683594 31.640625-44.542968-2.8125-20.859376-21.316406-35.96875-42.316406-34.5585942-21 1.4101562-37.320313 18.8515622-37.324219 39.9023442 0 4.417968 3.582031 8 8 8s8-3.582032 8-8c0-13.253907 10.746093-24 24-24 13.257812 0 24 10.746093 24 24 0 13.253906-10.742188 24-24 24-4.417969 0-8 3.582031-8 8v43.28125l-227.863281 125.757812c-2.539063 1.402344-4.121094 4.066406-4.136719 6.96875v32c0 4.417969 3.582031 8 8 8h80v168.464844c0 13.253906 10.746093 24 24 24h256c13.257812 0 24-10.746094 24-24v-168.464844h80c4.417969 0 8-3.582031 8-8v-32c-.011719-2.902344-1.59375-5.566406-4.132813-6.96875zm-235.867187-111.894531 201.363281 111.09375h-402.722656zm-224 142.863281v-15.769531h72v15.769531zm360 184.464844c0 4.417968-3.582031 8-8 8h-256c-4.417969 0-8-3.582032-8-8v-24.464844h272zm0-40.464844h-272v-16h272zm-272-32v-127.769531h272v127.769531zm288-112v-15.769531h72v15.769531zm0 0"/></svg>