<svg height="512pt" viewBox="-80 0 512 512.002" width="512pt" xmlns="http://www.w3.org/2000/svg"><path d="m177.59375 7.382812c-48.796875 0-88.347656 39.554688-88.347656 88.347657v124.613281c0 6.46875 5.246094 11.714844 11.714844 11.714844h40.136718v-.46875h73.109375v.46875h40.023438c6.46875 0 11.714843-5.246094 11.714843-11.714844 0-41.589844 0-83.089844 0-124.613281 0-48.792969-39.550781-88.347657-88.351562-88.347657zm0 0" fill="#576574"/><path d="m140.121094 220.34375c0-1.296875 0-123.316406 0-124.613281 0-39.949219 26.519531-73.6875 62.910156-84.613281-8.054688-2.421876-16.59375-3.738282-25.4375-3.738282-48.796875 0-88.347656 39.558594-88.347656 88.351563v124.613281c0 6.46875 5.246094 11.710938 11.714844 11.710938h40.136718v-.464844h7.492188c-4.886719-1.40625-8.46875-5.90625-8.46875-11.246094zm0 0" fill="#3e4b5a"/><path d="m214.207031 231.589844v.46875h40.023438c1.128906 0 2.214843-.167969 3.25-.46875zm0 0" fill="#3e4b5a"/><path d="m176.640625 281.566406c19.257813 0 35.835937-11.453125 43.316406-27.914062l-.292969-.113282c-3.351562-1.296874-5.5625-4.523437-5.5625-8.121093v-27.699219c-10.355468 7.144531-22.894531 11.339844-36.398437 11.339844-14.132813 0-26.554687-3.882813-36.710937-10.371094v26.417969c0 3.785156-2.324219 7.179687-5.855469 8.546875l-1.53125.59375c7.601562 16.140625 24.007812 27.320312 43.035156 27.320312zm0 0" fill="#ffbeab"/><path d="m176.238281 229.03125c-13.523437-.257812-25.441406-4.082031-35.246093-10.34375v26.417969c0 3.785156-2.328126 7.179687-5.855469 8.546875l-1.535157.59375c7.554688 16.027344 23.785157 27.15625 42.636719 27.3125zm0 0" fill="#f7af9f"/><path d="m310.804688 288.835938-18.453126-7.148438-112 112c-1.015624 1.011719-2.65625 1.011719-3.671874 0l-112.519532-112.519531-19.773437 7.667969s-35.765625 14.703124-35.765625 55.476562v143.765625c0 9.003906 7.296875 16.300781 16.300781 16.300781h305.347656c9.003907 0 16.300781-7.296875 16.300781-16.300781v-143.765625c0-40.773438-35.765624-55.476562-35.765624-55.476562zm0 0" fill="#e4eaf8"/><path d="m43.621094 488.078125v-165.128906c0-17.800781 6.816406-30.628907 14.496094-39.4375l-13.730469 5.324219s-35.765625 14.703124-35.765625 55.476562v143.765625c0 9.003906 7.296875 16.300781 16.300781 16.300781h35c-9 0-16.300781-7.296875-16.300781-16.300781zm0 0" fill="#c7d2e5"/><path d="m264.757812 271-84.40625 84.410156c-1.015624 1.011719-2.65625 1.011719-3.671874 0l-84.933594-84.9375-29.027344 11.253906 113.960938 113.960938c1.011718 1.011719 2.65625 1.011719 3.667968 0l113.441406-113.441406zm0 0" fill="#feca57"/><path d="m176.679688 357.410156c1.015624 1.011719 2.65625 1.011719 3.671874 0l85.847657-85.851562-46.535157-18.019532c-.917968-.355468-1.742187-.867187-2.464843-1.480468-6.535157 15.90625-22.171875 27.109375-40.429688 27.109375-17.953125 0-33.367187-10.832031-40.089843-26.308594-.488282.304687-.996094.582031-1.542969.792969l-44.832031 17.378906zm0 0" fill="#54a0ff"/><path d="m237.332031 109.925781c-7.839843-2.382812-23.199219-8.65625-38-23.917969-2.414062-2.488281-6.367187-2.304687-8.582031.214844-10.367188 11.824219-38.257812 40.722656-73.210938 53.628906-2.292968.847657-3.816406 3.03125-3.816406 5.476563v23.300781c0 32.894532 25.773438 62.960938 64.785156 62.960938 34.71875 0 62.960938-28.246094 62.960938-62.960938v-53.117187c.003906-2.570313-1.679688-4.835938-4.136719-5.585938zm0 0" fill="#ffcdbf"/><path d="m164.597656 168.628906v-57.015625c-12.84375 10.640625-29.003906 21.570313-47.058594 28.238281-2.292968.847657-3.816406 3.03125-3.816406 5.476563v23.300781c0 32.894532 25.773438 62.964844 64.785156 62.964844 8.695313 0 16.984376-1.773438 24.527344-4.976562-22.566406-9.582032-38.4375-31.96875-38.4375-57.988282zm0 0" fill="#ffbeab"/><path d="m105.558594 166.40625v-45.597656c0-.375.023437-.742188.058594-1.105469h-15.195313c-4.527344 0-8.234375 3.707031-8.234375 8.238281v31.332032c0 4.53125 3.707031 8.238281 8.234375 8.238281h15.195313c-.035157-.367188-.058594-.734375-.058594-1.105469zm0 0" fill="#54a0ff"/><path d="m98.519531 159.273438v-31.332032c0-4.140625 3.101563-7.585937 7.09375-8.148437 0-.03125 0-.058594.003907-.089844h-15.195313c-4.527344 0-8.234375 3.707031-8.234375 8.238281v31.332032c0 4.53125 3.707031 8.234374 8.234375 8.234374h15.195313c-.003907-.027343-.003907-.058593-.003907-.089843-3.992187-.5625-7.09375-4.003907-7.09375-8.144531zm0 0" fill="#338def"/><path d="m264.769531 119.703125h-15.191406c.035156.363281.054687.730469.054687 1.105469v45.597656c0 .371094-.023437.738281-.054687 1.101562h15.191406c4.53125 0 8.238281-3.703124 8.238281-8.234374v-31.335938c0-4.527344-3.707031-8.234375-8.238281-8.234375zm0 0" fill="#54a0ff"/><path d="m265.96875 166.40625v-45.597656c0-.34375-.023438-.679688-.050781-1.015625-.378907-.050781-.757813-.089844-1.148438-.089844h-15.191406c.03125.363281.054687.730469.054687 1.105469v45.597656c0 .371094-.023437.738281-.054687 1.101562h15.191406c.390625 0 .769531-.035156 1.148438-.089843.027343-.332031.050781-.667969.050781-1.011719zm0 0" fill="#338def"/><path d="m239.648438 106.820312h-124.105469c-6.589844 0-11.984375 5.394532-11.984375 11.988282v48.597656c0 6.589844 5.394531 11.984375 11.984375 11.984375h124.105469c6.59375 0 11.984374-5.394531 11.984374-11.984375v-48.597656c0-6.59375-5.390624-11.988282-11.984374-11.988282zm0 0" fill="#e4eaf8"/><path d="m138.5625 167.40625v-48.597656c0-6.59375 5.390625-11.988282 11.984375-11.988282h-35c-6.59375 0-11.988281 5.394532-11.988281 11.988282v48.597656c0 6.589844 5.394531 11.984375 11.988281 11.984375h35c-6.59375 0-11.984375-5.394531-11.984375-11.984375zm0 0" fill="#c7d2e5"/><path d="m224.378906 131.246094h-93.566406c-2.15625 0-3.90625 1.75-3.90625 3.90625v16.910156c0 2.15625 1.75 3.902344 3.90625 3.902344h93.566406c2.15625 0 3.90625-1.746094 3.90625-3.902344v-16.910156c0-2.15625-1.75-3.90625-3.90625-3.90625zm0 0" fill="#54a0ff"/><path d="m161.910156 152.0625v-16.910156c0-2.15625 1.746094-3.90625 3.90625-3.90625h-35.003906c-2.15625 0-3.90625 1.75-3.90625 3.90625v16.910156c0 2.15625 1.75 3.902344 3.90625 3.902344h35.003906c-2.160156 0-3.90625-1.746094-3.90625-3.902344zm0 0" fill="#338def"/><path d="m284.582031 350.945312c-4.144531 0-7.5 3.359376-7.5 7.503907v138.550781h-83.101562c-4.144531 0-7.5 3.355469-7.5 7.5s3.355469 7.5 7.5 7.5h135.171875c13.125 0 23.804687-10.675781 23.804687-23.800781v-62.335938c0-4.144531-3.359375-7.5-7.503906-7.5-4.140625 0-7.5 3.355469-7.5 7.5v62.335938c0 4.851562-3.945313 8.800781-8.800781 8.800781h-37.070313v-138.550781c0-4.144531-3.359375-7.503907-7.5-7.503907zm0 0"/><path d="m118.289062 135.269531v16.910157c0 6.289062 5.117188 11.40625 11.40625 11.40625h93.566407c6.289062 0 11.40625-5.117188 11.40625-11.40625v-16.910157c0-6.289062-5.117188-11.402343-11.40625-11.402343h-93.566407c-6.289062-.003907-11.40625 5.113281-11.40625 11.402343zm15 3.597657h86.375v9.71875h-86.375zm0 0"/><path d="m352.957031 344.433594c0-41.035156-31.839843-58.398438-39.039062-61.800782-1.804688-.851562 7.160156 2.6875-92.667969-35.972656-.386719-.148437-.769531-.59375-.769531-1.125v-5.859375h32.632812c10.59375 0 19.214844-8.617187 19.214844-19.214843v-47.953126c4.25-2.820312 7.0625-7.644531 7.0625-13.113281v-31.335937c0-5.472656-2.8125-10.296875-7.0625-13.117188v-19.089844c0-52.855468-43-95.851562-95.851563-95.851562-52.851562 0-95.847656 42.996094-95.847656 95.851562v19.089844c-4.25 2.820313-7.0625 7.644532-7.0625 13.117188v31.335937c0 5.46875 2.8125 10.292969 7.0625 13.113281v47.957032c0 10.59375 8.617188 19.210937 19.210938 19.210937h32.53125v5.550781c0 .683594-.429688 1.308594-1.0625 1.554688-38.507813 14.925781-85.417969 33.113281-90.75 35.179688-.046875.019531-.09375.039062-.140625.058593-1.652344.679688-40.417969 17.136719-40.417969 62.414063v143.765625c0 13.125 10.679688 23.804687 23.800781 23.804687h135.175781c4.144532 0 7.5-3.359375 7.5-7.503906 0-4.140625-3.355468-7.5-7.5-7.5h-83.101562v-138.550781c0-4.144531-3.355469-7.503907-7.5-7.503907-4.140625 0-7.5 3.359376-7.5 7.503907v138.550781h-37.074219c-4.851562 0-8.800781-3.949219-8.800781-8.800781v-143.765625c0-34.707032 29.292969-47.761719 31.074219-48.523438l13.679687-5.304687 110.503906 110.503906c3.949219 3.949219 10.332032 3.945313 14.277344 0l109.988282-109.984375 12.347656 4.78125c1.984375.851562 31.082031 13.933594 31.082031 48.523438v.019531 46.410156c0 4.140625 3.359375 7.5 7.5 7.5 4.144531 0 7.5-3.359375 7.5-7.5v-46.425781zm-230.0625-158.421875h107.160157c-16.921876 51.199219-90.371094 50.515625-107.160157 0zm84.453125 67.011719c-13.433594 24.488281-48.324218 25.058593-62.683594 1.246093 1.71875-2.648437 2.707032-5.777343 2.707032-9.046875v-11.824218c.011718-.0625.019531-.125.03125-.1875 16.902344 7.28125 38.726562 8.609374 58.078125.152343v12.171875c0 2.65625.675781 5.214844 1.867187 7.488282zm29.183594-136.582032c2.453125 0 4.484375 2.113282 4.484375 4.484375v45.597657c0 2.429687-2.097656 4.484374-4.484375 4.484374h-120.105469c-2.363281 0-4.484375-2.03125-4.484375-4.484374v-45.597657c0-2.367187 2.015625-4.484375 4.484375-4.484375zm-50.734375-15c2.601563-2.628906 5.632813-5.832031 8.292969-8.816406 3.339844 3.335938 6.699218 6.257812 10.003906 8.816406zm71.53125 119.019532c0 2.324218-1.890625 4.214843-4.214844 4.214843h-32.523437v-.335937c12.769531-9.953125 22.203125-24.4375 25.71875-40.988282 2.433594-1.417968 4.535156-3.34375 6.152344-5.644531 1.664062-.332031 3.289062-.785156 4.867187-1.359375zm6.371094-93.128907c.363281.027344.6875.359375.6875.726563v31.335937c0 .363281-.320313.691407-.683594.722657-.027344.003906-.058594.007812-.085937.011718h-7.601563v-32.804687h7.601563c.027343 0 .054687.003906.082031.007812zm-168.070313-31.480469c0-44.582031 36.269532-80.851562 80.847656-80.851562 44.582032 0 80.851563 36.269531 80.851563 80.851562v16.472657h-3.339844c-3.292969-6.652344-10.089843-10.882813-17.457031-10.882813h-2.296875c-10.625-4.03125-21.292969-10.898437-30.636719-20.535156-5.128906-5.289062-13.425781-5.316406-18.632812-.503906 0 0-9.683594 11.042968-21.007813 21.039062h-47.53125c-7.199219 0-14.09375 4.089844-17.457031 10.882813h-3.339844zm-6.378906 64.265626c-.363281-.035157-.683594-.359376-.683594-.722657v-31.335937c0-.375.332032-.707032.703125-.726563.019531-.003906.035157-.007812.035157-.007812h7.636718v32.804687h-7.59375c-.035156-.003906-.066406-.007812-.097656-.011718zm10.589844 64.558593c-2.320313 0-4.210938-1.890625-4.210938-4.214843v-45.332032h3.335938c.011718.019532.023437.035156.03125.054688 1.699218 3.410156 4.363281 6.25 7.640625 8.164062 3.558593 16.730469 13.015625 31.203125 25.734375 41.007813v.320312zm32.285156 37.875c19.414062 31.351563 64.660156 32.417969 85.554688 2.300781.628906-.90625 1.230468-1.835937 1.804687-2.785156l21.238281 8.222656 10.914063 4.226563-74.238281 74.242187-74.769532-74.769531zm45.273438 124.484375-102.355469-102.355468 12.296875-4.765626 82.917968 82.917969c3.949219 3.945313 10.332032 3.945313 14.277344 0l82.394532-82.394531 12.300781 4.765625zm0 0"/></svg>