<svg height="511pt" viewBox="1 -1 511.999 511" width="511pt" xmlns="http://www.w3.org/2000/svg"><path d="m277.308594 471.144531c.0625-.679687.101562-1.363281.101562-2.058593 0-11.863282-9.429687-21.570313-20.953125-21.570313-11.519531 0-20.949219 9.707031-20.949219 21.570313 0 .695312.039063 1.382812.101563 2.058593zm0 0" fill="#ff6b6b"/><path d="m270.773438 453.375c-3.753907-3.628906-8.792969-5.859375-14.316407-5.859375-11.519531 0-20.949219 9.707031-20.949219 21.570313 0 .695312.039063 1.378906.101563 2.058593h28.625c-.0625-.679687-.101563-1.363281-.101563-2.058593 0-6.179688 2.5625-11.769532 6.640626-15.710938zm0 0" fill="#ee5253"/><path d="m470.386719 7.832031c-2.953125 0-408.339844 0-427.859375 0-19.011719 0-34.566406 15.558594-34.566406 34.570313v213.421875c0 19.011719 15.554687 34.570312 34.566406 34.570312h427.859375c19.015625 0 34.570312-15.558593 34.570312-34.570312v-213.421875c0-19.011719-15.554687-34.570313-34.570312-34.570313zm0 0" fill="#8ac2ff"/><path d="m42.960938 255.824219v-213.421875c0-19.011719 15.554687-34.566406 34.570312-34.566406-19.214844 0-31.921875 0-35.003906 0-19.011719 0-34.566406 15.554687-34.566406 34.566406v213.421875c0 19.015625 15.554687 34.570312 34.566406 34.570312h35.003906c-19.015625 0-34.570312-15.554687-34.570312-34.570312zm0 0" fill="#6fb1ff"/><path d="m42.527344 260.390625h427.859375c2.4375 0 4.570312-2.132813 4.570312-4.566406v-213.421875c0-2.429688-2.136719-4.566406-4.570312-4.566406h-427.859375c-2.433594 0-4.566406 2.136718-4.566406 4.566406v213.421875c0 2.433593 2.132812 4.566406 4.566406 4.566406zm0 0" fill="#54a0ff"/><path d="m72.964844 255.824219v-213.421875c0-2.429688 2.132812-4.566406 4.566406-4.566406h-35.003906c-2.433594 0-4.566406 2.136718-4.566406 4.566406v213.421875c0 2.433593 2.132812 4.566406 4.566406 4.566406h35.003906c-2.433594 0-4.566406-2.132813-4.566406-4.566406zm0 0" fill="#338def"/><path d="m255.875 232.746094c12.148438 0 22.578125-7.296875 27.191406-17.742188-1.863281-.949218-3.070312-2.863281-3.070312-4.988281v-17.925781c-6.675782 4.605468-14.761719 7.3125-23.46875 7.3125-9.113282 0-17.121094-2.503906-23.675782-6.6875v17.101562c0 2.4375-1.496093 4.628906-3.773437 5.511719l-.21875.082031c4.703125 10.226563 15.019531 17.335938 27.015625 17.335938zm0 0" fill="#ffbeab"/><path d="m265.488281 198.417969c-2.886719.636719-5.882812.984375-8.960937.984375-9.113282 0-17.121094-2.503906-23.675782-6.6875v17.101562c0 2.441406-1.496093 4.628906-3.773437 5.511719l-.21875.085937c4.703125 10.222657 15.019531 17.335938 27.011719 17.335938 3.371094 0 6.601562-.582031 9.617187-1.613281zm0 0" fill="#f7af9f"/><path d="m170.558594 238.015625s-15.011719 6.179687-20.808594 22.375h86.277344l-34.476563-34.390625zm0 0" fill="#e4eaf8"/><path d="m189.945312 230.5-19.386718 7.515625s-15.011719 6.179687-20.808594 22.375h25.699219c3.824219-20.371094 13.339843-28.917969 14.496093-29.890625zm0 0" fill="#c7d2e5"/><path d="m342.359375 238.015625-30.136719-11.671875-34.148437 34.046875h85.09375c-5.796875-16.195313-20.808594-22.375-20.808594-22.375zm0 0" fill="#e4eaf8"/><path d="m291.921875 470.464844h-70.925781c-2.507813 0-4.539063 2.035156-4.539063 4.539062v22.425782c0 2.507812 2.03125 4.539062 4.539063 4.539062h70.925781c2.507813 0 4.539063-2.03125 4.539063-4.539062v-22.425782c0-2.503906-2.03125-4.539062-4.539063-4.539062zm0 0" fill="#e4eaf8"/><path d="m245.082031 497.429688v-22.425782c0-2.503906 2.03125-4.539062 4.539063-4.539062h-28.625c-2.507813 0-4.539063 2.035156-4.539063 4.539062v22.425782c0 2.507812 2.03125 4.539062 4.539063 4.539062h28.625c-2.507813 0-4.539063-2.03125-4.539063-4.539062zm0 0" fill="#c7d2e5"/><path d="m255.867188 56.519531c-31.15625 0-56.414063 25.257813-56.414063 56.414063v22.828125c3.773437-3.496094 10.136719-4.394531 15.371094-3.695313v-4.8125c0-2.234375 1.910156-4 4.121093-3.832031 21.8125 1.566406 43.007813-5.363281 59.789063-16.328125 1.570313-1.023438 3.644531-.769531 4.914063.601562 14.351562 15.421876 13.261718 13.824219 13.261718 15.839844v7.519532c5.742188-.859376 11.832032.914062 15.367188 4.203124v-22.324218c.003906-31.15625-25.253906-56.414063-56.410156-56.414063zm0 0" fill="#576574"/><path d="m234.457031 112.933594c0-25.046875 16.324219-46.265625 38.910157-53.632813-5.511719-1.796875-11.386719-2.78125-17.5-2.78125-31.15625 0-56.414063 25.257813-56.414063 56.414063v22.828125c3.773437-3.496094 10.136719-4.394531 15.371094-3.695313v-4.808594c0-2.238281 1.910156-4 4.121093-3.832031 5.222657.375 10.410157.25 15.511719-.289062zm0 0" fill="#3e4b5a"/><path d="m281.996094 214.300781c-4.214844 10.253907-14.296875 17.480469-26.070313 17.480469-11.574219 0-21.519531-6.984375-25.851562-16.964844-.316407.195313-.640625.375-.996094.511719l-28.910156 11.207031 33.855469 33.855469h46.050781l33.519531-33.515625-30.007812-11.625c-.59375-.226562-1.121094-.554688-1.589844-.949219zm0 0" fill="#feca57"/><path d="m297.445312 128.671875v31.644531c0 .34375-.019531.683594-.027343 1.027344 11.199219 1.695312 19.96875-6.398438 19.96875-16.335938 0-9.957031-8.777344-18.011718-19.941407-16.335937zm0 0" fill="#ffbeab"/><path d="m312.109375 132.933594c-3.617187-3.339844-8.8125-5.140625-14.667969-4.261719v31.644531c0 .34375-.015625.683594-.023437 1.027344 5.871093.886719 11.070312-.917969 14.691406-4.261719zm0 0" fill="#f7af9f"/><path d="m214.148438 160.207031v-31.40625c-9.679688-1.292969-19.800782 6.136719-19.800782 16.207031 0 9.851563 8.6875 17.898438 19.824219 16.214844-.007813-.339844-.023437-.675781-.023437-1.015625zm0 0" fill="#ffbeab"/><path d="m214.148438 156.898438c-3.203126-3.011719-5.132813-7.25-5.132813-11.890626 0-4.503906 2.027344-8.476562 5.132813-11.378906v-4.828125c-9.679688-1.289062-19.800782 6.136719-19.800782 16.207031 0 9.851563 8.6875 17.898438 19.824219 16.214844-.007813-.339844-.023437-.675781-.023437-1.015625zm0 0" fill="#f7af9f"/><path d="m283.648438 106.695312c-1.269532-1.367187-3.347657-1.621093-4.914063-.597656-16.78125 10.964844-38.980469 17.894532-60.789063 16.328125-2.214843-.167969-4.121093 1.597657-4.121093 3.832031v33.703126c0 21.660156 16.972656 41.441406 42.644531 41.441406 22.851562 0 41.441406-18.59375 41.441406-41.441406v-36.425782c0-2.011718.089844-1.417968-14.261718-16.839844zm0 0" fill="#ffcdbf"/><path d="m248.824219 159.957031v-40.636719c-9.960938 2.644532-20.460938 3.851563-30.878907 3.105469-2.214843-.167969-4.121093 1.59375-4.121093 3.832031v33.699219c0 21.660157 16.972656 41.445313 42.644531 41.445313 6.015625 0 11.734375-1.300782 16.898438-3.617188-14.445313-6.484375-24.542969-20.992187-24.542969-37.828125zm0 0" fill="#ffbeab"/><path d="m228.085938 463.128906h-7.546876c-6.640624 0-12.042968 5.402344-12.042968 12.042969v22.421875c0 6.640625 5.402344 12.039062 12.042968 12.039062h70.925782c6.636718 0 12.039062-5.398437 12.039062-12.039062v-22.421875c0-6.640625-5.402344-12.042969-12.039062-12.042969h-7.550782c-2.570312-13.0625-14.105468-22.949218-27.914062-22.949218-13.804688 0-25.34375 9.886718-27.914062 22.949218zm60.414062 15.003906v16.5h-65.003906v-16.5zm-20.226562-15.003906h-24.546876c4.761719-10.585937 19.792969-10.570312 24.546876 0zm0 0"/><path d="m30 42.570312v213.417969c0 6.542969 5.527344 12.070313 12.070312 12.070313h427.859376c6.542968 0 12.066406-5.527344 12.066406-12.070313v-213.417969c0-6.542968-5.523438-12.070312-12.066406-12.070312h-427.859376c-6.542968 0-12.070312 5.527344-12.070312 12.070312zm132.417969 210.488282c3.210937-3.5625 7.433593-6.554688 10.507812-7.929688l24.9375-9.667968 17.597657 17.597656zm114.089843 0h-39.832031l-23.523437-23.523438 13.214844-5.125c6.601562 9.3125 17.386718 15.035156 29.101562 15.035156 11.957031 0 22.785156-5.875 29.324219-15.335937l14.898437 5.769531zm-55.640624-122.789063c20.644531.597657 41.742187-5.566406 58.902343-16.078125 5.125 5.492188 8.621094 9.164063 10.183594 10.933594 0 40.9375.003906 34.253906-.007813 35.398438-.867187 27.890624-30.5 41.847656-52.703124 28.511718-9.582032-5.792968-15.996094-16.320312-16.355469-28.089844-.03125-1.054687-.019531 1.921876-.019531-30.675781zm53.308593-30.289062c-16.796875 10.972656-37.269531 16.480469-56.125 15.128906-3.164062-.246094-6.277343.894531-8.550781 2.992187h-.003906c-1.121094 1.003907-2.148438 2.542969-2.726563 3.890626-.09375.019531-.183593.035156-.273437.054687v-8.949219c0-26.96875 21.941406-48.910156 48.914062-48.910156 26.96875 0 48.910156 21.941406 48.910156 48.910156v6.617188c-.96875-2.328125-3.601562-5.105469-8.65625-10.496094-1.828124-1.949219-4.117187-4.386719-6.980468-7.464844-3.765625-4.050781-9.863282-4.804687-14.507813-1.773437zm-1.261719 114.867187c-3.746093 5.921875-10.261718 9.597656-17.445312 9.597656-6.796875 0-13.050781-3.332031-16.878906-8.742187.839844-1.761719 1.304687-3.710937 1.304687-5.722656v-3.386719c9.980469 3.179688 21.53125 3.472656 32.144531-.203125v3.789063c0 1.625.308594 3.199218.875 4.667968zm24.808594 38.210938 17.257813-17.261719 24.097656 9.335937c.492187.214844 5.753906 2.644532 10.511719 7.925782zm-252.71875-207.554688h421.992188v207.554688h-99.359375c-7.773438-15.4375-22.210938-21.539063-22.882813-21.816406-.046875-.019532-.097656-.039063-.144531-.058594l-28.765625-11.140625s-28.800781-11.152344-28.804688-11.152344v-10.945313c8.875-7.296874 15.136719-17.648437 17.179688-29.429687 12.066406-1.894531 20.210938-11.945313 20.210938-23.34375 0-5.371094-1.832032-10.515625-5.109376-14.648437v-17.425782c0-35.242187-28.671874-63.914062-63.910156-63.914062-35.242187 0-63.914062 28.671875-63.914062 63.914062v17.886719c-3.3125 4.074219-5.105469 8.988281-5.105469 14.1875 0 6.878906 2.984375 13.390625 8.1875 17.863281 3.390625 2.917969 7.554687 4.777344 12.003906 5.476563 2.101563 12.335937 8.765625 22.964843 18.3125 30.242187v10.136719l-57.503906 22.296875c-.050781.019531-.097656.035156-.144531.058594-.671875.277344-15.109375 6.375-22.882813 21.8125h-99.359375zm259.949219 107.195313v-15.050781c2.625 1.4375 4.476563 4.183593 4.476563 7.523437 0 3.160156-1.71875 6.027344-4.476563 7.527344zm-99.085937-14.589844v14.59375c-2.839844-1.546875-4.476563-4.460937-4.476563-7.53125 0-3.003906 1.925781-5.542969 4.476563-7.0625zm0 0"/><path d="m66.109375 312.925781c-2.820313 3.03125-2.648437 7.777344.382813 10.601563l136.945312 127.402344c3.03125 2.820312 7.777344 2.648437 10.601562-.382813 2.820313-3.035156 2.648438-7.78125-.382812-10.601563l-136.945312-127.402343c-3.03125-2.820313-7.777344-2.648438-10.601563.382812zm0 0"/><path d="m297.960938 450.542969c2.824218 3.035156 7.566406 3.207031 10.601562.386719l136.949219-127.40625c3.03125-2.824219 3.203125-7.570313.382812-10.601563-2.824219-3.03125-7.566406-3.203125-10.601562-.382813l-136.949219 127.40625c-3.03125 2.820313-3.203125 7.566407-.382812 10.597657zm0 0"/><path d="m172.722656 314.546875c-1.921875-3.667969-6.460937-5.082031-10.125-3.160156-3.671875 1.921875-5.085937 6.457031-3.160156 10.125l61.0625 116.496093c1.921875 3.671876 6.460938 5.085938 10.125 3.164063 3.667969-1.925781 5.085938-6.457031 3.160156-10.125zm0 0"/><path d="m349.402344 311.386719c-3.667969-1.921875-8.199219-.507813-10.125 3.160156l-62 118.289063c-2.621094 4.996093 1.03125 10.980468 6.636718 10.980468 2.699219 0 5.308594-1.460937 6.648438-4.019531l62-118.285156c1.925781-3.667969.511719-8.203125-3.160156-10.125zm0 0"/><path d="m263.5 425.648438v-107.617188c0-4.144531-3.355469-7.503906-7.5-7.503906s-7.5 3.359375-7.5 7.503906v107.617188c0 4.144531 3.355469 7.5 7.5 7.5s7.5-3.355469 7.5-7.5zm0 0"/><path d="m363.507812 81.46875h76.226563c4.144531 0 7.5-3.359375 7.5-7.5 0-4.144531-3.355469-7.503906-7.5-7.503906h-76.226563c-4.144531 0-7.5 3.359375-7.5 7.503906 0 4.140625 3.355469 7.5 7.5 7.5zm0 0"/><path d="m363.507812 113.136719h76.226563c4.144531 0 7.5-3.359375 7.5-7.5 0-4.144531-3.355469-7.5-7.5-7.5h-76.226563c-4.144531 0-7.5 3.355469-7.5 7.5 0 4.140625 3.355469 7.5 7.5 7.5zm0 0"/><path d="m363.507812 144.804688h76.226563c4.144531 0 7.5-3.359376 7.5-7.5 0-4.144532-3.355469-7.5-7.5-7.5h-76.226563c-4.144531 0-7.5 3.355468-7.5 7.5 0 4.140624 3.355469 7.5 7.5 7.5zm0 0"/><path d="m469.929688.5h-196.429688c-4.144531 0-7.5 3.355469-7.5 7.5s3.355469 7.5 7.5 7.5h196.429688c14.925781 0 27.070312 12.144531 27.070312 27.070312v85.144532c0 4.144531 3.355469 7.5 7.5 7.5 4.140625 0 7.5-3.355469 7.5-7.5v-85.144532c0-23.199218-18.871094-42.070312-42.070312-42.070312zm0 0"/><path d="m504.5 155.21875c-4.144531 0-7.5 3.355469-7.5 7.5v93.273438c0 14.925781-12.144531 27.066406-27.070312 27.066406h-427.859376c-14.925781 0-27.070312-12.144532-27.070312-27.070313v-213.417969c0-14.925781 12.144531-27.070312 27.070312-27.070312h196.429688c4.140625 0 7.5-3.355469 7.5-7.5s-3.359375-7.5-7.5-7.5h-196.429688c-23.199218 0-42.070312 18.871094-42.070312 42.070312v213.417969c0 23.199219 18.871094 42.070313 42.070312 42.070313h427.859376c23.195312 0 42.070312-18.871094 42.070312-42.070313v-93.273437c0-4.140625-3.359375-7.496094-7.5-7.496094zm0 0"/></svg>