<svg height="512pt" viewBox="0 -1 512 512" width="512pt" xmlns="http://www.w3.org/2000/svg"><path d="m7.960938 257.363281v209.417969c0 19.015625 15.554687 34.570312 34.566406 34.570312h427.859375c19.015625 0 34.570312-15.554687 34.570312-34.570312v-209.417969c0-19.015625-15.554687-34.570312-34.570312-34.570312-10.246094 0-415.710938 0-427.859375 0-19.011719 0-34.566406 15.554687-34.566406 34.570312zm0 0" fill="#576574"/><path d="m42.960938 466.78125v-209.417969c0-19.015625 15.554687-34.570312 34.570312-34.570312-20.105469 0-32.984375 0-35.003906 0-19.011719 0-34.566406 15.554687-34.566406 34.570312v209.417969c0 19.015625 15.554687 34.570312 34.566406 34.570312h35.003906c-19.015625 0-34.570312-15.554687-34.570312-34.570312zm0 0" fill="#3e4b5a"/><path d="m101.234375 471.292969h317.050781c2.402344 0 4.507813-2.109375 4.507813-4.511719v-209.417969c0-2.402343-2.105469-4.511719-4.507813-4.511719-12.898437 0-293.996094 0-317.050781 0zm0 0" fill="#feca57"/><path d="m138.238281 252.851562c-19.148437 0-32.660156 0-37.003906 0v218.441407h37.003906zm0 0" fill="#f4b537"/><path d="m68.082031 257.363281v175.886719h35.152344v-180.398438h-30.644531c-2.402344 0-4.507813 2.109376-4.507813 4.511719zm0 0" fill="#54a0ff"/><path d="m68.082031 431.25v35.53125c0 2.402344 2.105469 4.511719 4.507813 4.511719h30.644531v-40.042969zm0 0" fill="#ff6b6b"/><path d="m462.917969 344.996094c-9.390625 0-17.074219 7.683594-17.074219 17.074218 0 9.394532 7.683594 17.078126 17.074219 17.078126s17.074219-7.683594 17.074219-17.078126c0-9.390624-7.683594-17.074218-17.074219-17.074218zm0 0" fill="#3e4b5a"/><path d="m469.402344 362.070312c0-4.828124 2.042968-9.199218 5.296875-12.3125-3.070313-2.9375-7.21875-4.761718-11.78125-4.761718-9.390625 0-17.074219 7.683594-17.074219 17.074218 0 9.394532 7.683594 17.078126 17.074219 17.078126 4.5625 0 8.710937-1.824219 11.78125-4.761719-3.253907-3.113281-5.296875-7.484375-5.296875-12.316407zm0 0" fill="#374451"/><path d="m291.054688 362.773438 130.773437-108.101563c-.839844-1.082031-2.132813-1.820313-3.542969-1.820313-4.496094 0-41.355468 0-88.433594 0l-75.621093 62.511719c-2.644531 2.183594-6.574219 1.757813-8.691407-.941406-9.535156-12.128906-18.445312-23.457031-26.730468-33.976563l-9.535156 17.601563c-2.902344 5.351563-10.585938 5.351563-13.488282 0l-24.488281-45.195313h-50.761719c36.332032 45.699219 106.363282 134.890626 171.78125 218.441407h76.1875c-21.003906-26.847657-49.160156-62.808594-78.363281-100.046875-2.042969-2.605469-1.636719-6.367188.914063-8.472656zm0 0" fill="#e4eaf8"/><path d="m138.238281 275.1875v-22.335938h-17.707031c5.238281 6.589844 11.179688 14.085938 17.707031 22.335938zm0 0" fill="#c7d2e5"/><path d="m288.484375 42.878906c-47.472656-47.472656-124.4375-47.472656-171.910156 0-47.515625 47.515625-47.617188 124.050782-.21875 171.6875 10.503906 10.558594 22.46875 18.78125 35.242187 24.667969 7.914063 3.648437 14.386719 9.820313 18.539063 17.480469l25.648437 47.332031c2.898438 5.355469 10.585938 5.355469 13.488282 0l25.644531-47.332031c4.195312-7.742188 10.796875-13.886719 18.78125-17.589844 12.59375-5.839844 24.394531-13.953125 34.78125-24.339844 47.472656-47.46875 47.472656-124.4375.003906-171.90625zm-30.859375 141.097656c-30.457031 30.457032-79.835938 30.457032-110.292969 0-30.453125-30.457031-30.453125-79.832031 0-110.289062 30.457031-30.457031 79.835938-30.457031 110.292969 0 30.453125 30.457031 30.453125 79.832031 0 110.289062zm0 0" fill="#ff6b6b"/><path d="m205.140625 256.714844c-4.152344-7.660156-10.625-13.832032-18.539063-17.480469-12.773437-5.886719-24.738281-14.109375-35.246093-24.667969-70.839844-71.199218-29.300781-191.855468 68.675781-206.03125-36.652344-5.304687-75.257812 6.144532-103.457031 34.34375-47.515625 47.515625-47.617188 124.050782-.21875 171.6875 10.503906 10.558594 22.46875 18.78125 35.242187 24.667969 7.914063 3.648437 14.386719 9.820313 18.539063 17.480469l25.648437 47.332031c2.898438 5.351563 10.585938 5.351563 13.488282 0l10.753906-19.855469zm0 0" fill="#ee5253"/><path d="m487.035156 362.238281c0-13.554687-11.023437-24.578125-24.574218-24.578125-13.554688 0-24.578126 11.023438-24.578126 24.578125 0 13.550781 11.023438 24.574219 24.578126 24.574219 13.550781 0 24.574218-11.023438 24.574218-24.574219zm-34.152344 0c0-5.28125 4.296876-9.578125 9.578126-9.578125 5.277343 0 9.574218 4.296875 9.574218 9.578125 0 5.277344-4.296875 9.574219-9.574218 9.574219-5.28125 0-9.578126-4.296875-9.578126-9.574219zm0 0"/><path d="m30.0625 344.117188v36.238281c0 4.144531 3.355469 7.5 7.5 7.5 4.140625 0 7.5-3.355469 7.5-7.5v-36.238281c0-4.140626-3.359375-7.5-7.5-7.5-4.144531 0-7.5 3.355468-7.5 7.5zm0 0"/><path d="m504.5 372.238281c-4.144531 0-7.5 3.355469-7.5 7.5v87.210938c0 14.925781-12.144531 27.066406-27.070312 27.066406h-196.429688c-4.144531 0-7.5 3.359375-7.5 7.5 0 4.144531 3.355469 7.5 7.5 7.5h196.429688c23.195312 0 42.070312-18.871094 42.070312-42.066406v-87.210938c0-4.144531-3.359375-7.5-7.5-7.5zm0 0"/><path d="m469.929688 215.457031h-172.042969c45.789062-50.625 44.359375-128.796875-4.558594-177.71875-50.320313-50.316406-132.199219-50.316406-182.515625 0-49.25 49.25-50.292969 127.191407-4.5625 177.71875h-64.179688c-23.199218 0-42.070312 18.871094-42.070312 42.070313v209.417968c0 23.199219 18.871094 42.070313 42.070312 42.070313h196.429688c4.140625 0 7.5-3.355469 7.5-7.5 0-4.140625-3.359375-7.5-7.5-7.5h-196.429688c-14.925781 0-27.070312-12.144531-27.070312-27.070313v-209.417968c0-14.925782 12.144531-27.070313 27.070312-27.070313h80.253907c7.140625 5.632813 15.417969 10.863281 24.226562 15.0625-15.492187 0-59.101562 0-74.421875 0-6.507812 0-12.007812 5.5-12.007812 12.007813v209.421875c0 6.507812 5.5 12.007812 12.007812 12.007812h345.695313c6.511719 0 12.011719-5.5 12.011719-12.007812v-209.421875c0-6.613282-5.636719-12.011719-12.011719-12.011719-7.894531 0-152.410157 0-160.234375 0 8.632812-4.113281 16.796875-9.207031 24.226562-15.058594h188.113282c14.925781 0 27.070312 12.144531 27.070312 27.066407v87.210937c0 4.140625 3.355469 7.5 7.5 7.5s7.5-3.359375 7.5-7.5v-87.210937c0-23.195313-18.871094-42.066407-42.070312-42.066407zm-374.652344 248.5h-20.15625v-25.042969h20.15625zm0-40.042969h-20.15625v-163.398437h20.15625zm15 40.042969c0-15.597656 0-197.097656 0-203.441406h6.175781c30.691406 38.640625 88.40625 112.027344 160.003906 203.441406zm304.558594 0h-43.136719c-18.6875-23.882812-46.175781-58.996093-75.277344-96.105469l118.410156-97.882812v193.988281zm-82.746094-203.441406h70.632812l-116.90625 96.640625c-5.726562 4.734375-6.625 13.027344-2.035156 18.882812 25.84375 32.953126 50.476562 64.414063 68.867188 87.917969h-57.140626c-69.488281-88.75-126.644531-161.460937-159.90625-203.441406h27.515626l25.613281 47.269531c5.730469 10.578125 20.945312 10.574219 26.675781 0l6.03125-11.128906c5.652344 7.183594 11.566406 14.707031 17.742188 22.566406 4.71875 6.003906 13.457031 6.972656 19.371093 2.085938zm-23.546875 0-58.445313 48.316406c-7.335937-9.332031-14.289062-18.171875-20.875-26.542969l11.796875-21.773437zm-34.136719-43.347656c-21.007812 17.277343-35.3125 15.40625-46.539062 36.136719l-25.691407 47.402343c-.046875.023438-.167969.023438-.257812-.070312l-25.644531-47.332031c-11.273438-20.804688-25.589844-18.910157-46.542969-36.140626-.003907-.003906-.007813-.003906-.007813-.007812-52.492187-43.1875-55.445312-121.667969-8.304687-168.8125 22.238281-22.234375 51.441406-33.351562 80.652343-33.351562 62.675782 0 114.054688 50.570312 114.054688 114.003906 0 34.234375-15.015625 66.207031-41.71875 88.171875zm0 0"/><path d="m202.101562 214.488281c-22.835937 0-44.304687-8.890625-60.449218-25.035156-16.144532-16.148437-25.039063-37.617187-25.039063-60.449219 0-22.835937 8.894531-44.304687 25.039063-60.449218 16.148437-16.148438 37.613281-25.039063 60.449218-25.039063 22.835938 0 44.300782 8.890625 60.449219 25.039063 33.328125 33.332031 33.328125 87.566406 0 120.898437-16.148437 16.144531-37.613281 25.035156-60.449219 25.035156zm0-155.972656c-18.828124 0-36.527343 7.332031-49.839843 20.644531-13.316407 13.316406-20.648438 31.015625-20.648438 49.84375 0 18.824219 7.332031 36.527344 20.648438 49.839844 13.3125 13.3125 31.011719 20.644531 49.839843 20.644531 18.828126 0 36.527344-7.332031 49.839844-20.644531 27.484375-27.484375 27.484375-72.199219 0-99.683594-13.3125-13.3125-31.011718-20.644531-49.839844-20.644531zm55.144532 125.632813h.007812zm0 0"/></svg>