<svg height="511pt" viewBox="-50 1 511 511.99988" width="511pt" xmlns="http://www.w3.org/2000/svg"><path d="m241.472656 209.074219v-27.90625c0-3-2.433594-5.429688-5.429687-5.429688h-55.546875c-3 0-5.429688 2.429688-5.429688 5.429688v27.90625zm0 0" fill="#c7d2e5"/><path d="m215.496094 175.738281h-35c-3 0-5.429688 2.429688-5.429688 5.429688v27.90625h35v-27.90625c0-3 2.429688-5.429688 5.429688-5.429688zm0 0" fill="#bac7db"/><path d="m383.601562 303.015625h-92.429687c-3.492187 0-6.324219 2.832031-6.324219 6.324219v194.996094h105.078125v-194.996094c0-3.492188-2.832031-6.324219-6.324219-6.324219zm0 0" fill="#54a0ff"/><path d="m326.171875 303.015625h-35c-3.492187 0-6.324219 2.832031-6.324219 6.324219v194.996094h35v-194.996094c0-3.492188 2.832032-6.324219 6.324219-6.324219zm0 0" fill="#338def"/><path d="m276.511719 207.074219h-136.484375c-5.15625 0-9.335938 4.183593-9.335938 9.339843v116.765626c17.917969-.003907 35.839844 7.824218 49.511719 21.496093 27.324219 27.328125 25.324219 66.636719-2 93.964844-5.980469 5.976563-12.773437 10.644531-20.023437 14.007813-4.597657 2.132812-8.398438 5.671874-10.8125 10.128906l-14.765626 29.246094c-.835937 1.539062-2.359374 2.3125-3.882812 2.3125h157.128906v-287.921876c0-5.15625-4.179687-9.339843-9.335937-9.339843zm0 0" fill="#e4eaf8"/><path d="m158.179688 462.648438c-4.597657 2.132812-8.398438 5.671874-10.8125 10.125l-14.765626 29.25c-.835937 1.539062-2.359374 2.308593-3.882812 2.308593h36.972656v-45.757812c-2.4375 1.519531-4.945312 2.882812-7.511718 4.074219zm0 0" fill="#c7d2e5"/><path d="m165.691406 216.414062c0-5.15625 4.179688-9.339843 9.335938-9.339843h-35c-5.15625 0-9.335938 4.183593-9.335938 9.339843v116.765626c12.101563-.003907 24.203125 3.582031 35 10.113281zm0 0" fill="#c7d2e5"/><path d="m83.113281 448.511719c-27.289062-27.421875-27.230469-67.480469.125-94.835938 4.929688-4.929687 8.414063-8.953125 14.25-12.105469v-33.125c0-2.996093-2.433593-5.429687-5.433593-5.429687h-60.730469c-3 0-5.429688 2.429687-5.429688 5.429687v195.886719h71.59375v-43.59375c-5.882812-3.175781-9.414062-7.242187-14.375-12.226562zm0 0" fill="#feca57"/><path d="m66.117188 303.015625h-34.792969c-3 0-5.429688 2.433594-5.429688 5.433594v195.886719h34.789063v-195.886719c.003906-3 2.433594-5.433594 5.433594-5.433594zm0 0" fill="#f4b537"/><path d="m220.734375 132.769531c0 8.070313-6.539063 14.613281-14.609375 14.613281-8.074219 0-14.613281-6.542968-14.613281-14.613281 0-8.070312 6.539062-14.613281 14.613281-14.613281 8.070312 0 14.609375 6.542969 14.609375 14.613281zm0 0" fill="#54a0ff"/><path d="m212.246094 132.769531c0-4.015625 1.621094-7.652343 4.246094-10.292969-2.648438-2.667968-6.3125-4.320312-10.367188-4.320312-8.070312 0-14.613281 6.542969-14.613281 14.613281 0 8.070313 6.542969 14.613281 14.613281 14.613281 4.054688 0 7.71875-1.652343 10.367188-4.320312-2.625-2.640625-4.246094-6.277344-4.246094-10.292969zm0 0" fill="#338def"/><path d="m180.199219 351.675781c-27.328125-27.328125-71.632813-27.328125-98.960938 0-27.355469 27.355469-27.414062 71.414063-.125 98.835938 6.046875 6.078125 12.933594 10.8125 20.289063 14.203125 4.554687 2.097656 8.28125 5.652344 10.671875 10.0625l14.761719 27.246094c1.671874 3.082031 6.09375 3.082031 7.765624 0l14.765626-27.246094c2.414062-4.457032 6.214843-7.996094 10.8125-10.128906 7.25-3.359376 14.042968-8.03125 20.019531-14.007813 27.328125-27.328125 27.328125-71.636719 0-98.964844zm0 0" fill="#ff6b6b"/><path d="m147.074219 474.773438c-2.390625-4.40625-6.117188-7.960938-10.671875-10.058594-7.355469-3.390625-14.242188-8.125-20.289063-14.203125-27.285156-27.421875-27.230469-71.480469.125-98.835938 9.175781-9.175781 20.265625-15.253906 31.980469-18.265625-23.183594-5.964844-48.828125.113282-66.980469 18.265625-27.351562 27.355469-27.410156 71.410157-.125 98.835938 6.046875 6.078125 12.9375 10.8125 20.289063 14.203125 4.554687 2.097656 8.28125 5.652344 10.671875 10.058594l14.765625 27.25c1.667968 3.082031 6.09375 3.082031 7.761718 0l13.621094-25.132813zm0 0" fill="#ee5253"/><path d="m158.421875 373.421875c-15.316406-15.320313-40.152344-15.320313-55.472656 0-15.316407 15.316406-15.316407 40.152344 0 55.46875 15.320312 15.320313 40.15625 15.320313 55.472656 0 15.320313-15.316406 15.320313-40.152344 0-55.46875zm0 0" fill="#ee5253"/><path d="m138.007812 428.894531c-15.316406-15.320312-15.316406-40.15625 0-55.472656 3.070313-3.070313 6.527344-5.515625 10.210938-7.355469-14.6875-7.335937-33.015625-4.894531-45.265625 7.355469-15.316406 15.316406-15.316406 40.152344 0 55.472656 12.25 12.246094 30.578125 14.691407 45.265625 7.351563-3.683594-1.839844-7.140625-4.28125-10.210938-7.351563zm0 0" fill="#d83941"/><path d="m252.253906 105.335938c2.929688-2.929688 2.929688-7.679688 0-10.605469-25.75-25.75-67.425781-25.753907-93.175781 0-2.929687 2.929687-2.929687 7.675781 0 10.605469 2.925781 2.925781 7.675781 2.929687 10.605469 0 19.882812-19.886719 52.074218-19.890626 71.960937 0 2.933594 2.929687 7.679688 2.925781 10.609375 0zm0 0"/><path d="m278.851562 78.734375c2.929688-2.929687 2.929688-7.675781 0-10.605469-40.355468-40.355468-106.019531-40.355468-146.375 0-2.929687 2.929688-2.929687 7.675782 0 10.605469 2.929688 2.929687 7.679688 2.929687 10.605469 0 34.507813-34.507813 90.65625-34.507813 125.160157 0 2.933593 2.929687 7.679687 2.929687 10.609374 0zm0 0"/><path d="m305.566406 52.019531c2.929688-2.929687 2.929688-7.675781 0-10.605469-55.21875-55.214843-144.585937-55.222656-199.804687 0-2.929688 2.929688-2.929688 7.675782 0 10.605469 2.929687 2.929688 7.679687 2.929688 10.605469 0 49.355468-49.355469 129.234374-49.355469 178.589843 0 2.933594 2.929688 7.679688 2.929688 10.609375 0zm0 0"/><path d="m183.550781 132.933594c0 12.191406 9.921875 22.113281 22.113281 22.113281 12.191407 0 22.113282-9.921875 22.113282-22.113281s-9.921875-22.113282-22.113282-22.113282c-12.191406 0-22.113281 9.921876-22.113281 22.113282zm29.226563 0c0 3.921875-3.191406 7.113281-7.113282 7.113281-3.921874 0-7.113281-3.191406-7.113281-7.113281s3.191407-7.113282 7.113281-7.113282c3.921876 0 7.113282 3.191407 7.113282 7.113282zm0 0"/><path d="m50.582031 336.867188h21.300781c4.140626 0 7.5-3.359376 7.5-7.5 0-4.144532-3.359374-7.5-7.5-7.5h-21.300781c-4.144531 0-7.5 3.355468-7.5 7.5 0 4.140624 3.355469 7.5 7.5 7.5zm0 0"/><path d="m71.882812 467.476562h-21.300781c-4.144531 0-7.5 3.359376-7.5 7.5 0 4.144532 3.355469 7.5 7.5 7.5h21.300781c4.140626 0 7.5-3.355468 7.5-7.5 0-4.140624-3.359374-7.5-7.5-7.5zm0 0"/><path d="m364.597656 321.867188h-55.136718c-4.140626 0-7.5 3.355468-7.5 7.5 0 4.140624 3.359374 7.5 7.5 7.5h55.136718c4.144532 0 7.5-3.359376 7.5-7.5 0-4.144532-3.355468-7.5-7.5-7.5zm0 0"/><path d="m364.597656 350.988281h-55.136718c-4.140626 0-7.5 3.355469-7.5 7.5s3.359374 7.5 7.5 7.5h55.136718c4.144532 0 7.5-3.355469 7.5-7.5s-3.355468-7.5-7.5-7.5zm0 0"/><path d="m364.597656 438.355469h-55.136718c-4.140626 0-7.5 3.355469-7.5 7.5 0 4.140625 3.359374 7.5 7.5 7.5h55.136718c4.144532 0 7.5-3.359375 7.5-7.5 0-4.144531-3.355468-7.5-7.5-7.5zm0 0"/><path d="m364.597656 467.476562h-55.136718c-4.140626 0-7.5 3.359376-7.5 7.5 0 4.144532 3.359374 7.5 7.5 7.5h55.136718c4.144532 0 7.5-3.355468 7.5-7.5 0-4.140624-3.355468-7.5-7.5-7.5zm0 0"/><path d="m364.597656 380.109375h-55.136718c-4.140626 0-7.5 3.359375-7.5 7.5 0 4.144531 3.359374 7.5 7.5 7.5h55.136718c4.144532 0 7.5-3.355469 7.5-7.5 0-4.140625-3.355468-7.5-7.5-7.5zm0 0"/><path d="m364.597656 409.230469h-55.136718c-4.140626 0-7.5 3.359375-7.5 7.5 0 4.144531 3.359374 7.5 7.5 7.5h55.136718c4.144532 0 7.5-3.355469 7.5-7.5 0-4.140625-3.355468-7.5-7.5-7.5zm0 0"/><path d="m159.703125 249.5h95.601563c4.144531 0 7.5-3.355469 7.5-7.5 0-4.140625-3.355469-7.5-7.5-7.5h-95.601563c-4.144531 0-7.5 3.359375-7.5 7.5 0 4.144531 3.355469 7.5 7.5 7.5zm0 0"/><path d="m159.703125 278.621094h95.601563c4.144531 0 7.5-3.355469 7.5-7.5 0-4.140625-3.355469-7.5-7.5-7.5h-95.601563c-4.144531 0-7.5 3.359375-7.5 7.5 0 4.144531 3.355469 7.5 7.5 7.5zm0 0"/><path d="m159.703125 307.746094h95.601563c4.144531 0 7.5-3.359375 7.5-7.5 0-4.144532-3.355469-7.5-7.5-7.5h-95.601563c-4.144531 0-7.5 3.355468-7.5 7.5 0 4.140625 3.355469 7.5 7.5 7.5zm0 0"/><path d="m97.191406 434.363281c29.175782 29.175781 79.765625 8.746094 79.765625-33.039062 0-25.828125-20.898437-46.726563-46.726562-46.726563-41.464844 0-62.394531 50.40625-33.039063 79.765625zm33.039063-64.765625c17.535156 0 31.726562 14.191406 31.726562 31.726563 0 28.359375-34.339843 42.246093-54.15625 22.433593-19.917969-19.917968-5.742187-54.160156 22.429688-54.160156zm0 0"/><path d="m17.933594 308.613281v188.386719h-9.933594c-4.144531 0-7.5 3.355469-7.5 7.5s3.355469 7.5 7.5 7.5h395.328125c4.140625 0 7.5-3.355469 7.5-7.5s-3.359375-7.5-7.5-7.5h-5.359375v-72.457031c0-4.144531-3.359375-7.5-7.5-7.5-4.144531 0-7.5 3.355469-7.5 7.5v72.457031h-90.082031v-186.316406h90.082031v78.859375c0 4.140625 3.355469 7.5 7.5 7.5 4.140625 0 7.5-3.359375 7.5-7.5v-80.039063c0-7.621094-6.203125-13.820312-13.824219-13.820312h-91.257812v-79.105469c0-9.285156-7.550781-16.839844-16.835938-16.839844h-27.539062v-18.40625c0-7.128906-5.800781-12.929687-12.929688-12.929687h-10.273437c-4.140625 0-7.5 3.355468-7.5 7.5 0 4.144531 3.359375 7.5 7.5 7.5h8.203125v16.335937h-51.40625v-16.335937h8.203125c4.144531 0 7.5-3.355469 7.5-7.5 0-4.144532-3.355469-7.5-7.5-7.5h-10.269532c-7.132812 0-12.933593 5.800781-12.933593 12.929687v18.40625h-27.535157c-9.285156 0-16.839843 7.554688-16.839843 16.839844v107.667969c-6.175781.597656-12.289063 1.933594-18.203125 4.003906v-19.636719c0-7.132812-5.800782-12.933593-12.929688-12.933593h-60.734375c-7.128906.003906-12.929687 5.804687-12.929687 12.933593zm86.59375 188.386719v-19.3125c.171875.273438.339844.542969.492187.828125l10.015625 18.484375zm33.203125-280.421875c0-1.011719.824219-1.835937 1.839843-1.835937h136.480469c1.011719 0 1.835938.824218 1.835938 1.835937v280.421875h-132.402344l9.011719-16.632812c1.347656 1.304687 3.179687 2.109374 5.207031 2.109374h95.601563c4.144531 0 7.5-3.355468 7.5-7.5 0-4.140624-3.355469-7.5-7.5-7.5h-84.722657c6.410157-3.914062 12.003907-8.53125 17.085938-14.121093h67.636719c4.144531 0 7.5-3.359375 7.5-7.5 0-4.144531-3.355469-7.5-7.5-7.5h-56.964844c2.457031-4.5 4.457031-9.226563 5.964844-14.125h51c4.144531 0 7.5-3.355469 7.5-7.5 0-4.140625-3.355469-7.5-7.5-7.5h-47.96875c.460937-4.660157.550781-8.863281.136718-14.121094h47.832032c4.144531 0 7.5-3.355469 7.5-7.5 0-4.140625-3.355469-7.5-7.5-7.5h-50.515626c-1.382812-4.886719-3.242187-9.609375-5.558593-14.121094h56.074219c4.144531 0 7.5-3.355469 7.5-7.5s-3.355469-7.5-7.5-7.5h-66.167969c-4.398438-5.128906-9.527344-9.871093-15.875-14.121093h82.046875c4.140625 0 7.5-3.359376 7.5-7.5 0-4.144532-3.359375-7.5-7.5-7.5h-95.605469c-3.351563 0-6.191406 2.199218-7.148437 5.234374-4.804688-1.433593-9.757813-2.421874-14.820313-2.902343v-107.621094zm34.402343 138.375c33.335938 30.144531 24.816407 84.328125-15.566406 103.054687-6.039062 2.800782-11.101562 7.546876-14.253906 13.359376l-12.050781 22.242187-12.054688-22.242187c-3.160156-5.835938-8.175781-10.558594-14.125-13.300782-21.464843-9.894531-36.289062-31.613281-36.257812-56.824218.070312-54.203126 64.519531-82.300782 104.308593-46.289063zm-139.199218-44.269531h56.59375v24.730468c-7.195313 4.445313-13.128906 9.726563-18.144532 15.574219h-20.800781c-4.144531 0-7.5 3.355469-7.5 7.5 0 4.140625 3.355469 7.5 7.5 7.5h10.6875c-2.324219 4.511719-4.191406 9.238281-5.582031 14.121094h-5.105469c-4.144531 0-7.5 3.355469-7.5 7.5s3.355469 7.5 7.5 7.5h2.414063c-.351563 4.414063-.410156 8.75.136718 14.121094h-2.550781c-4.144531 0-7.5 3.359375-7.5 7.5 0 4.144531 3.355469 7.5 7.5 7.5h5.597657c1.515624 4.894531 3.519531 9.621093 5.984374 14.121093h-11.582031c-4.144531 0-7.5 3.359376-7.5 7.5 0 4.144532 3.355469 7.5 7.5 7.5 22.867188 0 21.429688.035157 22.21875-.058593 5.015625 5.523437 10.765625 10.246093 16.730469 13.933593v29.769532h-56.597656zm0 0"/></svg>