<svg height="511pt" viewBox="1 -19 511.999 511" width="511pt" xmlns="http://www.w3.org/2000/svg"><path d="m209.917969 358.464844v34.609375c0 11.324219-5.609375 21.835937-14.816407 27.78125l-22.242187 16.359375h167.203125l-22.246094-16.359375c-9.207031-5.945313-14.816406-16.457031-14.816406-27.78125v-34.609375c-30.609375 0-62.472656 0-93.082031 0zm0 0" fill="#c7d2e5"/><path d="m244.511719 393.074219v-34.609375c-11.617188 0-23.195313 0-34.59375 0v34.609375c0 11.324219-5.609375 21.835937-14.816407 27.78125l-22.242187 16.359375h34.59375l22.246094-16.359375c9.207031-5.945313 14.8125-16.457031 14.8125-27.78125zm0 0" fill="#bac7db"/><path d="m355.625 435.214844h-198.332031c-5.523438 0-10 4.476562-10 10v11.195312c0 5.523438 4.476562 10 10 10h198.332031c5.523438 0 10-4.476562 10-10v-11.195312c0-5.523438-4.476562-10-10-10zm0 0" fill="#e4eaf8"/><path d="m355.625 446.988281h-198.332031c-4.054688 0-7.539063-2.417969-9.109375-5.886719-.566406 1.253907-.890625 2.644532-.890625 4.113282v11.195312c0 5.523438 4.476562 10 10 10h198.332031c5.523438 0 10-4.476562 10-10v-11.195312c0-1.46875-.324219-2.859375-.890625-4.113282-1.570313 3.46875-5.054687 5.886719-9.109375 5.886719zm0 0" fill="#c7d2e5"/><path d="m476.140625 7.832031h-439.363281c-15.890625 0-28.816406 12.929688-28.816406 28.820313v297.992187c0 15.890625 12.925781 28.820313 28.816406 28.820313h439.363281c15.890625 0 28.816406-12.925782 28.816406-28.820313v-297.992187c0-15.890625-12.925781-28.820313-28.816406-28.820313zm0 0" fill="#576574"/><path d="m39.15625 334.644531v-297.992187c0-15.890625 12.925781-28.820313 28.820312-28.820313h-31.199218c-15.890625 0-28.816406 12.929688-28.816406 28.820313v297.992187c0 15.890625 12.925781 28.820313 28.816406 28.820313h31.199218c-15.894531 0-28.820312-12.929688-28.820312-28.820313zm0 0" fill="#3e4b5a"/><path d="m39.15625 74.117188v254.003906c0 2.292968 1.855469 4.148437 4.144531 4.148437h426.316407c2.289062 0 4.144531-1.855469 4.144531-4.148437 0-6.71875 0-180.785156 0-254.003906zm0 0" fill="#e4eaf8"/><path d="m69.15625 328.121094v-254.003906h-30v254.003906c0 2.292968 1.855469 4.148437 4.144531 4.148437h30.003907c-2.292969 0-4.148438-1.855469-4.148438-4.148437zm0 0" fill="#c7d2e5"/><path d="m469.617188 39.027344h-426.316407c-2.289062 0-4.144531 1.859375-4.144531 4.148437v32.941407h434.605469c0-17.359376 0-29.449219 0-32.941407 0-2.289062-1.855469-4.148437-4.144531-4.148437zm0 0" fill="#54a0ff"/><path d="m84.191406 39.027344h-40.890625c-2.289062 0-4.144531 1.859375-4.144531 4.148437v32.941407h45.035156zm0 0" fill="#ff6b6b"/><path d="m73.304688 39.027344h-30.003907c-2.289062 0-4.144531 1.859375-4.144531 4.148437v32.941407h30v-32.941407c0-2.289062 1.855469-4.148437 4.148438-4.148437zm0 0" fill="#ee5253"/><path d="m393.101562 125.015625c-16.414062-9.648437-40.1875-15.714844-66.640624-15.714844-28.320313 0-53.570313 6.953125-70.003907 17.8125v166.292969c16.433594-10.859375 41.683594-17.8125 70.003907-17.8125 23.132812 0 44.214843 4.640625 60.117187 12.253906 4.589844 2.195313 9.890625-1.203125 9.890625-6.289062v-150.585938c0-2.4375-1.265625-4.722656-3.367188-5.957031zm0 0" fill="#fff6e9"/><path d="m291.460938 113.054688c-13.769532 3.097656-25.773438 7.960937-35 14.054687v166.292969c9.226562-6.09375 21.230468-10.957032 35-14.054688zm0 0" fill="#f9e4c7"/><path d="m119.816406 125.015625c16.414063-9.648437 40.1875-15.714844 66.640625-15.714844 28.320313 0 53.570313 6.953125 70.003907 17.8125v166.292969c-16.433594-10.859375-41.683594-17.8125-70.003907-17.8125-23.132812 0-44.214843 4.640625-60.117187 12.253906-4.589844 2.195313-9.890625-1.203125-9.890625-6.289062v-150.585938c0-2.4375 1.265625-4.722656 3.367187-5.957031zm0 0" fill="#fff6e9"/><path d="m150.949219 113.183594c-11.9375 2.734375-22.550781 6.785156-31.132813 11.832031-2.101562 1.234375-3.367187 3.519531-3.367187 5.957031v150.585938c0 5.085937 5.304687 8.484375 9.890625 6.289062 7.226562-3.460937 15.535156-6.300781 24.609375-8.375zm0 0" fill="#f9e4c7"/><path d="m469.15625 31.695312c-17.632812 0-408.636719 0-426.3125 0-.402344 0-.800781.019532-1.191406.058594-5.863282.597656-10.457032 5.566406-10.457032 11.585938v284.949218c0 6.421876 5.226563 11.644532 11.648438 11.644532h426.3125c6.421875 0 11.648438-5.226563 11.648438-11.644532 0-12.679687 0-260.132812 0-284.949218 0-6.019532-4.59375-10.988282-10.460938-11.585938-.386719-.039062-.785156-.058594-1.1875-.058594zm-422.960938 15h30.035157v22.085938h-30.035157zm419.609376 278.238282h-419.609376v-241.148438h419.609376zm0-256.152344h-374.574219v-22.085938h374.574219zm0 0"/><path d="m129.117188 294.777344c35.300781-16.902344 92.125-15.183594 122.75 5.050781 2.433593 1.609375 5.753906 1.660156 8.265624 0 30.640626-20.242187 87.464844-21.945313 122.75-5.050781 9.550782 4.578125 20.625-2.441406 20.625-13.054688v-150.585937c0-5.101563-2.707031-9.859375-7.0625-12.421875-37.464843-22.023438-102.042968-22.53125-140.445312-.238282-38.394531-22.289062-102.972656-21.789062-140.445312.238282-4.355469 2.5625-7.0625 7.320312-7.0625 12.421875v150.585937c0 10.632813 11.085937 17.621094 20.625 13.054688zm134.382812-163.328125c33.398438-19.464844 92.03125-19.144531 125.007812.003906v149.390625c-35.753906-16.714844-88.992187-16.84375-125.007812 0zm-140.007812.003906c33.007812-19.167969 91.636718-19.449219 125.007812-.003906v149.394531c-36.042969-16.855469-89.289062-16.699219-125.007812 0zm0 0"/><path d="m288.722656 157.15625c25.011719-6.78125 53.714844-6.0625 76.585938.566406 3.976562 1.152344 8.140625-1.132812 9.292968-5.113281 1.152344-3.980469-1.136718-8.140625-5.113281-9.292969-27.117187-7.859375-58.554687-7.722656-84.691406-.636718-3.996094 1.082031-6.359375 5.203124-5.277344 9.199218 1.085938 4 5.203125 6.363282 9.203125 5.277344zm0 0"/><path d="m288.722656 188.148438c25.011719-6.777344 53.714844-6.0625 76.585938.570312 3.976562 1.148438 8.140625-1.136719 9.292968-5.117188 1.152344-3.980468-1.136718-8.140624-5.113281-9.292968-27.117187-7.859375-58.554687-7.722656-84.691406-.636719-3.996094 1.082031-6.359375 5.203125-5.277344 9.199219 1.085938 4 5.203125 6.363281 9.203125 5.277344zm0 0"/><path d="m288.722656 219.144531c25.011719-6.78125 53.714844-6.0625 76.585938.566407 3.976562 1.152343 8.140625-1.136719 9.292968-5.117188 1.152344-3.976562-1.136718-8.136719-5.113281-9.289062-27.117187-7.863282-58.554687-7.726563-84.691406-.640626-3.996094 1.085938-6.359375 5.203126-5.277344 9.203126 1.085938 3.996093 5.203125 6.363281 9.203125 5.277343zm0 0"/><path d="m365.308594 250.703125c3.976562 1.152344 8.140625-1.132813 9.292968-5.113281 1.152344-3.980469-1.136718-8.140625-5.113281-9.292969-27.117187-7.863281-58.558593-7.722656-84.691406-.640625-3.996094 1.085938-6.359375 5.203125-5.277344 9.203125 1.085938 3.996094 5.203125 6.359375 9.203125 5.277344 25.070313-6.796875 53.773438-6.046875 76.585938.566406zm0 0"/><path d="m147.765625 157.726562c22.871094-6.632812 51.574219-7.351562 76.589844-.570312 3.992187 1.082031 8.117187-1.277344 9.199219-5.273438 1.082031-4-1.277344-8.121093-5.277344-9.203124-26.136719-7.085938-57.566406-7.222657-84.691406.636718-3.976563 1.15625-6.269532 5.316406-5.113282 9.292969 1.15625 3.984375 5.316406 6.265625 9.292969 5.117187zm0 0"/><path d="m147.765625 188.71875c22.871094-6.632812 51.574219-7.347656 76.589844-.566406 3.992187 1.082031 8.117187-1.28125 9.199219-5.277344 1.082031-4-1.277344-8.117188-5.277344-9.203125-26.136719-7.085937-57.566406-7.222656-84.691406.640625-3.976563 1.152344-6.269532 5.3125-5.113282 9.292969s5.316406 6.265625 9.292969 5.113281zm0 0"/><path d="m147.765625 219.710938c22.871094-6.628907 51.574219-7.347657 76.589844-.566407 3.992187 1.082031 8.117187-1.277343 9.199219-5.277343 1.082031-3.996094-1.277344-8.117188-5.277344-9.203126-26.136719-7.082031-57.566406-7.222656-84.691406.640626-3.976563 1.152343-6.269532 5.3125-5.113282 9.292968 1.15625 3.980469 5.316406 6.265625 9.292969 5.113282zm0 0"/><path d="m224.355469 250.136719c3.992187 1.082031 8.117187-1.277344 9.199219-5.277344 1.082031-3.996094-1.277344-8.117187-5.277344-9.199219-26.136719-7.085937-57.570313-7.222656-84.691406.636719-3.976563 1.152344-6.269532 5.3125-5.113282 9.292969 1.15625 3.984375 5.316406 6.269531 9.292969 5.117187 22.8125-6.617187 51.511719-7.367187 76.589844-.570312zm0 0"/><path d="m36.320312 371.128906h165.636719v22.109375c0 8.71875-4.359375 16.949219-11.382812 21.480469l-20.386719 13.160156h-13.355469c-9.648437 0-17.5 7.851563-17.5 17.5v11.195313c0 9.652343 7.851563 17.503906 17.5 17.503906h81.667969c4.144531 0 7.5-3.359375 7.5-7.503906 0-4.140625-3.355469-7.5-7.5-7.5h-81.667969c-1.375 0-2.496093-1.121094-2.496093-2.5v-11.195313c0-1.378906 1.121093-2.5 2.496093-2.5h198.335938c1.375 0 2.496093 1.121094 2.496093 2.5v11.195313c0 1.378906-1.121093 2.5-2.496093 2.5h-81.667969c-4.140625 0-7.5 3.359375-7.5 7.5 0 4.144531 3.359375 7.503906 7.5 7.503906h81.667969c9.648437 0 17.496093-7.851563 17.496093-17.503906v-11.195313c0-9.648437-7.847656-17.5-17.496093-17.5h-13.355469l-20.386719-13.160156c-7.023437-4.53125-11.382812-12.761719-11.382812-21.480469v-22.109375h165.636719c20.027343 0 36.320312-16.292968 36.320312-36.320312v-123.582032c0-4.140624-3.359375-7.5-7.5-7.5-4.144531 0-7.5 3.359376-7.5 7.5v123.582032c0 11.757812-9.566406 21.320312-21.320312 21.320312-11.910157 0-427.910157 0-439.359376 0-11.753906 0-21.320312-9.5625-21.320312-21.320312v-297.988282c0-11.757812 9.566406-21.320312 21.320312-21.320312h439.359376c11.753906 0 21.320312 9.5625 21.320312 21.320312v139.402344c0 4.144532 3.355469 7.5 7.5 7.5 4.140625 0 7.5-3.355468 7.5-7.5v-139.402344c0-20.027343-16.292969-36.320312-36.320312-36.320312h-439.359376c-20.027343 0-36.320312 16.292969-36.320312 36.320312v297.992188c0 20.023438 16.292969 36.316406 36.320312 36.316406zm180.636719 22.109375v-22.109375h78.085938v22.109375c0 13.96875 6.820312 26.707031 18.246093 34.085938l.863282.554687h-116.304688l.863282-.554687c11.425781-7.378907 18.246093-20.117188 18.246093-34.085938zm0 0"/></svg>