<svg height="512pt" viewBox="-18 0 512 512" width="512pt" xmlns="http://www.w3.org/2000/svg"><path d="m292.160156 7.335938c-79.28125 0-145.949218 55.355468-164.28125 130.195312h122.96875c6.796875 0 12.359375 5.640625 12.359375 12.539062v.21875h15.535157c6.796874 0 12.359374 5.644532 12.359374 12.542969v1.046875h168.792969c.296875 0 .589844.015625.882813.042969-7.578125-87.753906-80.171875-156.585937-168.617188-156.585937zm0 0" fill="#e4eaf8"/><path d="m309.6875 8.253906c-5.761719-.601562-11.609375-.917968-17.527344-.917968-79.28125 0-145.949218 55.355468-164.28125 130.195312h35.082032c16.960937-69.246094 75.304687-121.804688 146.726562-129.277344zm0 0" fill="#c7d2e5"/><path d="m459.894531 227.070312h-168.792969v2.078126c0 6.863281-5.5625 12.476562-12.359374 12.476562h-15.574219c.015625-.273438.039062-.546875.039062-.824219 0 6.859375-5.5625 12.472657-12.359375 12.472657h-134.042968c-2.007813 4.164062-6.238282 7.058593-11.113282 7.058593h-2.816406c-3.011719 4.121094-6.34375 8.035157-9.972656 11.699219l-23.308594 23.519531c-9.871094 9.960938-2.878906 26.996094 11.082031 26.996094h33.519531c4.792969 0 8.679688 3.921875 8.679688 8.761719v29.019531c0 43.363281 35.160156 78.84375 78.132812 78.84375 16.753907 0 30.382813 13.703125 30.382813 30.664063v25.1875c0 5.140624 4.128906 9.308593 9.222656 9.308593h144.1875c5.171875 0 9.359375-4.226562 9.359375-9.445312v-64.597657c0-25.328124 8.367188-50.257812 24.972656-69.25 26.328126-30.105468 42.308594-69.644531 42.308594-112.960937v-21.152344c-.503906.089844-1.019531.144531-1.546875.144531zm0 0" fill="#e4eaf8"/><path d="m266.472656 495.027344v-25.191406c0-16.957032-13.628906-30.660157-30.382812-30.660157-42.972656 0-78.132813-35.480469-78.132813-78.847656v-29.019531c0-4.835938-3.886719-8.761719-8.679687-8.761719h-33.519532c-13.960937 0-20.953124-17.03125-11.082031-26.992187l23.308594-23.519532c2.996094-3.023437 5.785156-6.214844 8.359375-9.550781 1.054688-1.367187 2.703125-2.148437 4.429688-2.148437 4.878906 0 9.105468-2.894532 11.113281-7.058594h-35.082031c-2.007813 4.164062-6.238282 7.058594-11.113282 7.058594h-2.816406c-3.011719 4.121093-6.34375 8.035156-9.972656 11.699218l-23.308594 23.519532c-9.871094 9.960937-2.878906 26.992187 11.082031 26.992187h33.519531c4.792969 0 8.679688 3.925781 8.679688 8.761719v29.019531c0 43.367187 35.160156 78.847656 78.132812 78.847656 16.753907 0 30.382813 13.703125 30.382813 30.660157v25.191406c0 5.140625 4.128906 9.308594 9.222656 9.308594h35.082031c-5.09375 0-9.222656-4.167969-9.222656-9.308594zm0 0" fill="#c7d2e5"/><path d="m459.894531 161.605469h-171.792969v67.984375h171.792969c5.007813 0 9.066407-4.058594 9.066407-9.066406v-49.851563c0-5.007813-4.058594-9.066406-9.066407-9.066406zm0 0" fill="#feca57"/><path d="m288.101562 161.605469h38.003907v67.984375h-38.003907zm0 0" fill="#f4b537"/><path d="m288.101562 195.597656v33.992188h171.792969c5.007813 0 9.066407-4.058594 9.066407-9.066406v-24.925782zm0 0" fill="#fcd486"/><path d="m288.101562 195.597656h38.003907v33.992188h-38.003907zm0 0" fill="#feca57"/><path d="m278.742188 148.214844h-17.535157v94.980468c0 .277344-.023437.546876-.039062.816407h17.574219c6.796874 0 12.359374-5.5625 12.359374-12.363281v-71.074219c0-6.796875-5.5625-12.359375-12.359374-12.359375zm0 0" fill="#54a0ff"/><path d="m250.847656 135.640625h-137.042968c.789062 1.625 1.246093 3.441406 1.246093 5.363281v109.1875c0 1.921875-.457031 3.738282-1.246093 5.363282h137.042968c6.796875 0 12.359375-5.5625 12.359375-12.359376v-95.195312c0-6.796875-5.5625-12.359375-12.359375-12.359375zm0 0" fill="#338def"/><path d="m113.804688 255.554688h39.25v-119.917969h-39.25c.789062 1.628906 1.246093 3.445312 1.246093 5.367187v109.1875c0 1.921875-.457031 3.738282-1.246093 5.363282zm0 0" fill="#2c80e5"/><path d="m105.691406 128.644531h-10.988281c-6.796875 0-12.359375 5.5625-12.359375 12.359375v109.1875c0 6.796875 5.5625 12.359375 12.359375 12.359375h10.988281c6.796875 0 12.359375-5.5625 12.359375-12.359375v-109.1875c0-6.796875-5.5625-12.359375-12.359375-12.359375zm0 0" fill="#54a0ff"/><path d="m105.84375 250.191406v-109.1875c0-4.515625 2.460938-8.476562 6.105469-10.632812-1.839844-1.089844-3.976563-1.726563-6.257813-1.726563h-10.988281c-6.796875 0-12.359375 5.5625-12.359375 12.359375v109.1875c0 6.796875 5.5625 12.359375 12.359375 12.359375h10.988281c2.28125 0 4.417969-.636719 6.257813-1.726562-3.640625-2.15625-6.105469-6.117188-6.105469-10.632813zm0 0" fill="#338def"/><path d="m43.210938 203.261719c4.140624 0 7.5-3.355469 7.5-7.5 0-4.140625-3.359376-7.5-7.5-7.5h-35.710938c-4.144531 0-7.5 3.359375-7.5 7.5 0 4.144531 3.355469 7.5 7.5 7.5zm0 0"/><path d="m46.214844 147.285156-31.417969-13.734375c-3.792969-1.65625-8.21875.074219-9.875 3.871094-1.660156 3.792969.070313 8.214844 3.867187 9.875l31.417969 13.734375c3.785157 1.65625 8.214844-.070312 9.875-3.867188 1.660157-3.796874-.070312-8.21875-3.867187-9.878906zm0 0"/><path d="m14.796875 257.972656 31.417969-13.734375c3.796875-1.65625 5.527344-6.078125 3.867187-9.875-1.660156-3.796875-6.082031-5.527343-9.875-3.867187l-31.417969 13.734375c-3.796874 1.65625-5.527343 6.078125-3.867187 9.875 1.65625 3.796875 6.078125 5.527343 9.875 3.867187zm0 0"/><path d="m413.050781 357.546875c-17.316406 19.617187-26.847656 45.75-26.847656 73.582031v64.011719c0 1.023437-.835937 1.859375-1.859375 1.859375h-59.15625c-4.140625 0-7.5 3.355469-7.5 7.5 0 4.140625 3.359375 7.5 7.5 7.5h59.15625c9.296875 0 16.859375-7.566406 16.859375-16.859375v-64.011719c0-24.175781 8.199219-46.78125 23.09375-63.65625 28.492187-32.289062 44.1875-73.804687 44.1875-116.898437v-16.027344c4.519531-2.960937 7.515625-8.0625 7.515625-13.859375v-49.851562c0-6.296876-3.53125-11.78125-8.71875-14.582032-10.226562-88.332031-85.230469-156.253906-175.582031-156.253906-82.089844 0-149.242188 55.40625-170.03125 128.304688h-1.332031c-3.648438-4.273438-9.058594-6.996094-15.105469-6.996094h-10.984375c-10.953125 0-19.863282 8.910156-19.863282 19.859375v109.1875c0 8.480469 5.351563 15.714843 12.847657 18.558593-.03125.027344-.058594.0625-.089844.09375l-23.308594 23.304688c-14.59375 14.597656-4.285156 39.554688 16.382813 39.554688h33.519531c.652344 0 1.183594.527343 1.183594 1.179687v28.757813c0 47.214843 38.414062 85.628906 85.632812 85.628906 12.613281 0 22.878907 10.265625 22.878907 22.882812v24.960938c0 9.21875 7.503906 16.722656 16.726562 16.722656h50.03125c4.144531 0 7.5-3.359375 7.5-7.5 0-4.144531-3.355469-7.5-7.5-7.5h-50.03125c-.949219 0-1.722656-.773438-1.722656-1.722656v-24.960938c0-20.890625-16.996094-37.882812-37.882813-37.882812-38.945312 0-70.632812-31.683594-70.632812-70.628906v-28.757813c0-8.921875-7.257813-16.183594-16.183594-16.183594h-33.519531c-7.273438 0-10.921875-8.796875-5.777344-13.941406l23.308594-23.308594c2.964844-2.960937 5.773437-6.117187 8.390625-9.414062 5.257812-.25 10.515625-2.65625 14.199219-6.976563h130.054687c7.683594 0 14.789063-4.535156 18.035156-11.546875h9.855469c3.144531 0 6.601562-.808593 9.652344-2.515625 4.742187-2.648437 8.066406-7.0625 9.453125-11.902344h156.097656v13.316407c0 39.4375-14.359375 77.425781-40.433594 106.972656zm47.949219-186.710937v17.425781h-162.855469v-18.992188h161.289063c.863281 0 1.566406.703125 1.566406 1.566407zm-205.75-22.457032v94.917969c-.230469 3.421875-2.617188 4.925781-4.863281 4.925781h-125.292969v-34.960937c0-4.140625-3.355469-7.5-7.5-7.5s-7.5 3.359375-7.5 7.5v37.09375c0 2.628906-2.277344 4.859375-4.863281 4.859375-6.214844 0-4.867188 0-10.984375 0-2.636719 0-4.859375-2.226563-4.859375-4.859375v-109.1875c0-2.632813 2.226562-4.859375 4.859375-4.859375h10.984375c2.742187 0 4.863281 2.375 4.863281 4.859375v37.09375c0 4.140625 3.355469 7.5 7.5 7.5s7.5-3.359375 7.5-7.5v-34.957031h125.292969c2.636719 0 4.863281 2.226562 4.863281 4.859374zm27.894531 47.382813v36.054687c0 2.632813-2.226562 4.859375-4.863281 4.859375h-8.03125v-80.796875h8.03125c2.636719 0 4.863281 2.226563 4.863281 4.863282zm13.917969-41.492188c-2.746094-7.949219-10.347656-13.390625-18.78125-13.390625h-9.414062c-2.902344-7.347656-10.167969-12.574218-18.480469-12.574218h-113.082031c20.980468-67.179688 83.144531-113.304688 154.394531-113.304688 80.347656 0 149.167969 60.539062 160.210937 139.269531zm1.082031 67.984375v-18.992187h162.855469v17.425781c0 .746094-.523438 1.367188-1.222656 1.527344-.023438.003906-.046875.003906-.070313.007812-.054687.007813-.085937.011719-.125.015625-.046875.007813-.097656.015625-.148437.015625zm0 0"/></svg>