<svg height="512pt" viewBox="0 -69 512.001 512" width="512pt" xmlns="http://www.w3.org/2000/svg"><path d="m374.601562 233.085938v13.949218c0 7.867188 6.378907 14.246094 14.246094 14.246094 7.867188 0 14.246094-6.378906 14.246094-14.246094v-13.949218zm0 0" fill="#e4eaf8"/><path d="m86.367188 233.085938v13.949218c0 7.867188 6.378906 14.246094 14.246093 14.246094 7.867188 0 14.246094-6.378906 14.246094-14.246094v-13.949218zm0 0" fill="#e4eaf8"/><path d="m438.929688 199.378906c-3.554688 0-6.875-1.652344-9.144532-4.394531-.125-.152344-.261718-.292969-.390625-.445313h-80.738281c-.128906.152344-.265625.296876-.390625.445313-2.273437 2.742187-5.589844 4.394531-9.148437 4.394531h-3.015626c-1.941406 2.328125-3.117187 5.316406-3.117187 8.566406v13.734376c0 7.375 6.035156 13.40625 13.410156 13.40625h84.910157c7.375 0 13.40625-6.03125 13.40625-13.40625v-13.734376c0-3.25-1.175782-6.238281-3.117188-8.566406zm0 0" fill="#576574"/><path d="m431.304688 210.8125h-84.910157c-5.5 0-10.253906-3.359375-12.3125-8.125-.699219 1.621094-1.097656 3.394531-1.097656 5.257812v13.734376c0 7.375 6.035156 13.40625 13.410156 13.40625h84.910157c7.375 0 13.40625-6.03125 13.40625-13.40625v-13.734376c0-1.863281-.398438-3.636718-1.09375-5.257812-2.0625 4.765625-6.8125 8.125-12.3125 8.125zm0 0" fill="#3e4b5a"/><path d="m150.492188 199.378906c-3.558594 0-6.875-1.652344-9.148438-4.394531-.125-.152344-.261719-.292969-.390625-.445313h-80.738281c-.128906.152344-.265625.296876-.390625.445313-2.269531 2.742187-5.589844 4.394531-9.144531 4.394531h-2.8125c-1.945313 2.328125-3.117188 5.316406-3.117188 8.566406v13.734376c0 7.375 6.03125 13.40625 13.40625 13.40625h84.914062c7.371094 0 13.40625-6.03125 13.40625-13.40625v-13.734376c0-3.25-1.175781-6.238281-3.117187-8.566406zm0 0" fill="#576574"/><path d="m143.070312 210.8125h-84.914062c-5.5 0-10.25-3.359375-12.3125-8.125-.695312 1.621094-1.09375 3.394531-1.09375 5.257812v13.734376c0 7.375 6.03125 13.40625 13.40625 13.40625h84.914062c7.371094 0 13.40625-6.03125 13.40625-13.40625v-13.734376c0-1.863281-.398437-3.636718-1.09375-5.257812-2.0625 4.765625-6.8125 8.125-12.3125 8.125zm0 0" fill="#3e4b5a"/><path d="m313.585938 40.476562-13.957032-15.429687c-10.199218-11.277344-24.691406-17.710937-39.894531-17.710937h-165.746094c-17.949219 0-34.714843 8.949218-44.699219 23.867187l-5.125 9.273437zm0 0" fill="#54a0ff"/><path d="m128.988281 7.335938h-35c-17.949219 0-34.714843 8.949218-44.699219 23.867187l-5.125 9.273437h35l5.125-9.273437c9.988282-14.917969 26.75-23.867187 44.699219-23.867187zm0 0" fill="#338def"/><path d="m438.535156 105.988281h-55.058594c-3.738281 0-7.378906-.875-10.65625-2.503906h-360.238281c-3.054687 10.488281-4.621093 21.394531-4.621093 32.402344v53.777343c0 6.46875 5.242187 11.714844 11.714843 11.714844h31.003907c3.558593 0 6.875-1.65625 9.144531-4.394531 9.710937-11.710937 24.359375-19.179687 40.761719-19.179687 16.402343 0 31.050781 7.46875 40.761718 19.179687 2.269532 2.738281 5.589844 4.394531 9.144532 4.394531h188.628906c3.554687 0 6.875-1.65625 9.144531-4.394531 9.710937-11.710937 24.359375-19.179687 40.761719-19.179687s31.050781 7.46875 40.757812 19.179687c2.269532 2.738281 5.589844 4.394531 9.148438 4.394531h54.308594c6.472656 0 11.71875-5.246094 11.71875-11.714844v-17.25c-.003907-36.683593-29.742188-66.425781-66.425782-66.425781zm0 0" fill="#54a0ff"/><path d="m42.960938 189.664062v-53.777343c0-11.007813 1.570312-21.914063 4.621093-32.402344h-35c-3.054687 10.488281-4.621093 21.394531-4.621093 32.402344v53.777343c0 6.46875 5.242187 11.714844 11.714843 11.714844h31.003907c.664062 0 1.320312-.074218 1.960937-.1875-5.496094-.964844-9.679687-5.753906-9.679687-11.527344zm0 0" fill="#338def"/><path d="m494.449219 136.574219h-46.382813c-7.867187 0-14.246094 6.378906-14.246094 14.246093 0 7.867188 6.378907 14.246094 14.246094 14.246094h56.476563c-1.144531-10.414062-4.703125-20.09375-10.09375-28.492187zm0 0" fill="#feca57"/><path d="m468.824219 150.820312c0-7.867187 6.375-14.246093 14.246093-14.246093h-35.003906c-7.867187 0-14.246094 6.378906-14.246094 14.246093 0 7.867188 6.378907 14.246094 14.246094 14.246094h35.003906c-7.867187.003906-14.246093-6.375-14.246093-14.246094zm0 0" fill="#f4b537"/><path d="m383.476562 105.988281c-6.773437 0-13.230468-2.863281-17.777343-7.890625l-54.378907-60.125h-265.773437l-23.128906 41.851563c-4.582031 8.292969-8.101563 17.085937-10.523438 26.164062zm0 0" fill="#fcd486"/><path d="m114.261719 37.972656h-68.714844l-23.128906 41.851563c-4.582031 8.292969-8.101563 17.085937-10.523438 26.164062h102.367188zm0 0" fill="#feca57"/><path d="m80.550781 37.972656h-35.003906l-23.128906 41.851563c-4.582031 8.292969-8.101563 17.085937-10.523438 26.164062h35c2.425781-9.078125 5.945313-17.871093 10.527344-26.164062zm0 0" fill="#f4b537"/><path d="m433.128906 283.199219c2.925782-2.929688 2.925782-7.675781 0-10.605469-2.933594-2.929688-7.679687-2.929688-10.609375 0-18.816406 18.820312-49.441406 18.820312-68.257812 0-2.929688-2.929688-7.679688-2.929688-10.609375 0-2.925782 2.929688-2.925782 7.679688 0 10.605469 24.667968 24.667969 64.804687 24.671875 89.476562 0zm0 0"/><path d="m318.246094 298c-2.929688 2.929688-2.929688 7.679688 0 10.605469 38.769531 38.769531 101.515625 38.773437 140.285156 0 2.929688-2.929688 2.929688-7.679688 0-10.605469-2.929688-2.929688-7.675781-2.929688-10.605469 0-32.90625 32.90625-86.164062 32.90625-119.070312 0-2.929688-2.929688-7.679688-2.929688-10.609375 0zm0 0"/><path d="m292.730469 323.515625c-2.929688 2.929687-2.929688 7.679687 0 10.605469 52.871093 52.871094 138.441406 52.878906 191.320312 0 2.925781-2.925782 2.925781-7.675782 0-10.605469-2.933593-2.929687-7.679687-2.929687-10.609375 0-47.007812 47.007813-123.089844 47.011719-170.101562 0-2.933594-2.925781-7.679688-2.925781-10.609375 0zm0 0"/><path d="m144.890625 283.199219c2.929687-2.929688 2.929687-7.675781 0-10.605469s-7.679687-2.929688-10.609375 0c-18.859375 18.863281-49.390625 18.867188-68.257812 0-2.929688-2.929688-7.675782-2.929688-10.605469 0-2.929688 2.929688-2.929688 7.679688 0 10.605469 24.726562 24.726562 64.746093 24.730469 89.472656 0zm0 0"/><path d="m30.011719 298c-2.929688 2.929688-2.929688 7.679688 0 10.605469 38.765625 38.769531 101.511719 38.773437 140.285156 0 2.929687-2.929688 2.929687-7.679688 0-10.605469-2.929687-2.929688-7.679687-2.929688-10.609375 0-32.902344 32.90625-86.160156 32.90625-119.070312 0-2.929688-2.929688-7.675782-2.929688-10.605469 0zm0 0"/><path d="m195.8125 334.125c2.929688-2.929688 2.929688-7.679688 0-10.609375-2.929688-2.925781-7.675781-2.929687-10.605469 0-47.007812 47.007813-123.09375 47.015625-170.105469 0-2.929687-2.925781-7.675781-2.929687-10.605468 0-2.929688 2.929687-2.929688 7.679687 0 10.609375 52.871094 52.871094 138.441406 52.875 191.316406 0zm0 0"/><path d="m19.21875 209.046875h17.617188c-.0625 1.226563-.046876-.90625-.046876 12.796875 0 11.53125 9.378907 20.910156 20.910157 20.910156h20.707031v6.445313c0 11.988281 9.757812 21.746093 21.746094 21.746093 11.992187 0 21.746094-9.757812 21.746094-21.746093v-6.445313h20.710937c11.527344 0 20.90625-9.378906 20.90625-20.910156 0-13.71875.019531-11.574219-.046875-12.796875h62.238281c4.144531 0 7.5-3.359375 7.5-7.5 0-4.144531-3.355469-7.5-7.5-7.5h-72.808593c-3.730469 0-4.542969.332031-6.734376-2.246094-24.183593-28.460937-67.964843-28.429687-92.121093.046875-.867188 1-1.847657 2.199219-3.824219 2.199219-12.476562 0-18.671875 0-31 0-2.324219 0-4.21875-1.894531-4.21875-4.21875v-53.777344c0-7.539062.808594-15.046875 2.363281-22.394531h365.65625 55.058594c15.363281 0 29.371094 5.917969 39.871094 15.585938h-30.339844c-11.992187 0-21.746094 9.753906-21.746094 21.746093 0 11.988281 9.753907 21.746094 21.746094 21.746094h49.390625v17.09375c0 2.324219-1.890625 4.21875-4.214844 4.21875-11.660156 0-44.082031 0-54.3125 0-1.710937 0-2.726562-.902344-3.84375-2.222656-24.429687-28.777344-68.402344-28.175781-92.191406.074219-.90625 1-1.792969 2.148437-3.777344 2.148437-9.378906 0-68.507812 0-77.949218 0-4.144532 0-7.5 3.355469-7.5 7.5 0 4.140625 3.355468 7.5 7.5 7.5h64.363281c-.019531.355469-.046875.707031-.046875 1.066406v11.730469c0 11.53125 9.378906 20.910156 20.910156 20.910156h20.707031v6.445313c0 11.988281 9.757813 21.746093 21.746094 21.746093 11.992187 0 21.746094-9.757812 21.746094-21.746093v-6.445313h20.710937c11.527344 0 20.90625-9.378906 20.90625-20.910156v-11.730469c0-.359375-.027344-.710937-.046875-1.066406h41.078125c10.59375 0 19.214844-8.621094 19.214844-19.21875v-17.25c0-40.703125-33.160156-73.921875-73.921875-73.921875h-55.058594c-4.644531 0-9.097656-1.976562-12.214843-5.421875-11.65625-12.890625-59.816407-66.140625-66.070313-73.054687-11.597656-12.824219-28.167969-20.179688-45.457031-20.179688h-165.75c-20.492188 0-39.53125 10.167969-50.933594 27.195312-.117188.175782-.226562.355469-.332031.542969-28.8125 52.148438-34.082031 59.753907-38.109375 76.648438-2.734375 10.304687-4.152344 20.960937-4.152344 31.664062v53.777344c0 10.597656 8.621094 19.21875 19.21875 19.21875zm87.679688 40.152344c0 3.71875-3.023438 6.746093-6.746094 6.746093-3.71875 0-6.742188-3.027343-6.742188-6.746093v-6.445313h13.488282zm11.234374-59.996094h-36.015624c11.507812-4.972656 24.5-4.980469 36.015624 0zm-66.234374 19.769531c3.964843-.347656 8.066406-2.09375 11.039062-4.769531h74.371094c3.339844 2.882813 7.144531 4.4375 11.097656 4.773437.175781.894532.109375.789063.109375 12.867188 0 3.257812-2.648437 5.910156-5.90625 5.910156-8.394531 0-75.789063 0-84.910156 0-3.257813 0-5.910157-2.652344-5.910157-5.910156 0-12.070312-.066406-11.980469.109376-12.871094zm354.675781-19.769531h-36.015625c11.507812-4.976563 24.496094-4.980469 36.015625 0zm-11.4375 59.996094c0 3.71875-3.027344 6.746093-6.746094 6.746093-3.722656 0-6.746094-3.027343-6.746094-6.746093v-6.445313h13.492188zm41.617187-27.355469c0 3.257812-2.652344 5.910156-5.90625 5.910156-9.199218 0-76.507812 0-84.914062 0-3.253906 0-5.90625-2.652344-5.90625-5.910156 0-12.074219-.066406-11.972656.105468-12.855469 4.230469-.328125 8.265626-2.132812 11.246094-4.785156h74.371094c2.910156 2.589844 6.765625 4.351563 10.890625 4.753906.179687.914063.113281.816407.113281 12.886719zm58.347656-64.109375h-47.492187c-3.71875 0-6.746094-3.027344-6.746094-6.746094s3.027344-6.746093 6.746094-6.746093h42.109375c2.441406 4.445312 4.234375 9.070312 5.382812 13.492187zm-401.574218-142.734375h165.75c12.597656 0 25.144531 5.085938 34.6875 15.636719-2.28125 0-232.089844 0-235.117188 0 8.71875-9.882813 21.289063-15.636719 34.679688-15.636719zm-44.011719 30.636719h56.789063v9.007812c0 4.140625 3.355468 7.5 7.5 7.5 4.140624 0 7.5-3.359375 7.5-7.5v-9.007812h186.226562c39.59375 43.777343 25.214844 27.878906 47.949219 53.019531h-234.175781v-9.007812c0-4.144532-3.359376-7.503907-7.5-7.503907-4.144532 0-7.5 3.359375-7.5 7.503907v9.007812h-84.632813c3.722656-10.144531 5.570313-12.714844 27.84375-53.019531zm0 0"/></svg>