<svg height="511pt" viewBox="1 -41 511.999 511" width="511pt" xmlns="http://www.w3.org/2000/svg"><path d="m7.960938 177.097656v209.417969c0 19.015625 15.554687 34.570313 34.566406 34.570313h427.859375c19.015625 0 34.570312-15.554688 34.570312-34.570313v-209.417969c0-19.015625-15.554687-34.570312-34.570312-34.570312-10.246094 0-415.710938 0-427.859375 0-19.011719 0-34.566406 15.554687-34.566406 34.570312zm0 0" fill="#576574"/><path d="m42.960938 386.515625v-209.417969c0-19.015625 15.554687-34.570312 34.570312-34.570312-20.105469 0-32.984375 0-35.003906 0-19.011719 0-34.566406 15.554687-34.566406 34.570312v209.417969c0 19.015625 15.554687 34.570313 34.566406 34.570313h35.003906c-19.015625 0-34.570312-15.554688-34.570312-34.570313zm0 0" fill="#3e4b5a"/><path d="m101.234375 391.027344h317.050781c2.402344 0 4.507813-2.109375 4.507813-4.511719v-209.417969c0-2.402344-2.105469-4.511718-4.507813-4.511718-12.898437 0-293.996094 0-317.050781 0zm0 0" fill="#8ac2ff"/><path d="m138.238281 172.585938c-19.148437 0-32.660156 0-37.003906 0v218.441406h37.003906zm0 0" fill="#6fb1ff"/><path d="m68.082031 177.097656v175.886719h35.152344v-180.398437h-30.644531c-2.402344 0-4.507813 2.109374-4.507813 4.511718zm0 0" fill="#54a0ff"/><path d="m68.082031 350.984375v35.53125c0 2.402344 2.105469 4.511719 4.507813 4.511719h30.644531v-40.042969zm0 0" fill="#ff6b6b"/><path d="m462.917969 264.730469c-9.390625 0-17.074219 7.683593-17.074219 17.074219 0 9.394531 7.683594 17.078124 17.074219 17.078124s17.074219-7.683593 17.074219-17.078124c0-9.390626-7.683594-17.074219-17.074219-17.074219zm0 0" fill="#3e4b5a"/><path d="m469.402344 281.804688c0-4.828126 2.042968-9.199219 5.296875-12.3125-3.070313-2.9375-7.21875-4.761719-11.78125-4.761719-9.390625 0-17.074219 7.683593-17.074219 17.074219 0 9.394531 7.683594 17.078124 17.074219 17.078124 4.5625 0 8.710937-1.824218 11.78125-4.761718-3.253907-3.113282-5.296875-7.484375-5.296875-12.316406zm0 0" fill="#374451"/><path d="m433.800781 7.835938h-344.683593c-5.320313 0-8.988282 5.335937-7.085938 10.300781l113.191406 295.332031c1.125 2.933594 3.941406 4.871094 7.082032 4.871094h118.308593c3.140625 0 5.957031-1.9375 7.082031-4.871094l113.1875-295.332031c1.90625-4.964844-1.761718-10.300781-7.082031-10.300781zm0 0" fill="#feca57"/><path d="m230.476562 313.46875-113.191406-295.332031c-1.902344-4.964844 1.765625-10.300781 7.085938-10.300781h-35.253906c-5.320313 0-8.988282 5.335937-7.085938 10.300781l113.191406 295.332031c1.125 2.933594 3.941406 4.871094 7.082032 4.871094h35.253906c-3.140625 0-5.957032-1.9375-7.082032-4.871094zm0 0" fill="#f4b537"/><path d="m295.675781 95.75c0 18.039062-14.621093 32.664062-32.660156 32.664062s-32.664063-14.625-32.664063-32.664062 14.625-32.660156 32.664063-32.660156 32.660156 14.621094 32.660156 32.660156zm0 0" fill="#ffcdbf"/><path d="m265.351562 95.75c0-11.597656 6.050782-21.777344 15.164063-27.570312-5.0625-3.21875-11.0625-5.089844-17.503906-5.089844-18.039063 0-32.660157 14.621094-32.660157 32.660156 0 18.042969 14.621094 32.664062 32.660157 32.664062 6.441406 0 12.441406-1.871093 17.503906-5.089843-9.113281-5.792969-15.164063-15.972657-15.164063-27.574219zm0 0" fill="#ffbeab"/><path d="m284.765625 128.414062h-43.503906c-19.113281 0-34.75 15.640626-34.75 34.753907v51.546875c0 3.988281 3.261719 7.25 7.25 7.25h98.503906c3.988281 0 7.25-3.261719 7.25-7.25v-51.546875c0-19.113281-15.636719-34.753907-34.75-34.753907zm0 0" fill="#54a0ff"/><path d="m241.511719 214.714844v-51.546875c0-19.113281 15.640625-34.753907 34.753906-34.753907h-35.003906c-19.113281 0-34.75 15.640626-34.75 34.753907v51.546875c0 3.988281 3.261719 7.25 7.25 7.25h35c-3.988281 0-7.25-3.261719-7.25-7.25zm0 0" fill="#2388e2"/><path d="m487.035156 281.972656c0-13.554687-11.023437-24.578125-24.574218-24.578125-13.554688 0-24.578126 11.023438-24.578126 24.578125 0 13.550782 11.023438 24.574219 24.578126 24.574219 13.550781 0 24.574218-11.023437 24.574218-24.574219zm-34.152344 0c0-5.28125 4.296876-9.578125 9.574219-9.578125 5.28125 0 9.578125 4.296875 9.578125 9.578125 0 5.277344-4.296875 9.574219-9.578125 9.574219-5.277343 0-9.574219-4.296875-9.574219-9.574219zm0 0"/><path d="m30.0625 263.851562v36.238282c0 4.144531 3.355469 7.503906 7.5 7.503906 4.140625 0 7.5-3.359375 7.5-7.503906v-36.238282c0-4.140624-3.359375-7.5-7.5-7.5-4.144531 0-7.5 3.359376-7.5 7.5zm0 0"/><path d="m349.792969 108.832031 20.921875-99.28125c.855468-4.054687-1.738282-8.035156-5.789063-8.886719-4.054687-.855468-8.03125 1.738282-8.886719 5.792969l-20.921874 99.28125c-.855469 4.054688 1.738281 8.03125 5.789062 8.886719 4.054688.851562 8.035156-1.738281 8.886719-5.792969zm0 0"/><path d="m184.199219 114.625c4.054687-.855469 6.648437-4.832031 5.792969-8.886719l-20.921876-99.28125c-.851562-4.054687-4.835937-6.648437-8.886718-5.792969-4.050782.855469-6.644532 4.832032-5.792969 8.886719l20.921875 99.28125c.855469 4.050781 4.835938 6.644531 8.886719 5.792969zm0 0"/><path d="m198.550781 163.332031v51.546875c0 8.132813 6.617188 14.75 14.75 14.75h98.507813c8.132812 0 14.75-6.617187 14.75-14.75v-51.546875c0-20.296875-14.386719-37.289062-33.496094-41.335937 6.011719-7.023438 9.65625-16.128906 9.65625-26.078125 0-22.148438-18.019531-40.164063-40.164062-40.164063-22.148438 0-40.164063 18.015625-40.164063 40.164063 0 9.949219 3.644531 19.058593 9.65625 26.082031-19.109375 4.042969-33.496094 21.035156-33.496094 41.332031zm64.003907-92.578125c13.875 0 25.164062 11.289063 25.164062 25.164063s-11.289062 25.164062-25.164062 25.164062-25.164063-11.289062-25.164063-25.164062 11.289063-25.164063 25.164063-25.164063zm-49.003907 92.578125c0-15.027343 12.226563-27.25 27.253907-27.25h43.5c15.027343 0 27.253906 12.222657 27.253906 27.25v51.296875h-15.304688v-49.796875c0-4.140625-3.359375-7.5-7.5-7.5-4.144531 0-7.5 3.359375-7.5 7.5v49.796875h-37.398437v-49.796875c0-4.140625-3.355469-7.5-7.5-7.5s-7.5 3.359375-7.5 7.5v49.796875h-15.304688zm0 0"/><path d="m504.5 291.972656c-4.144531 0-7.5 3.359375-7.5 7.5v87.210938c0 14.925781-12.144531 27.066406-27.070312 27.066406h-196.429688c-4.144531 0-7.5 3.359375-7.5 7.5 0 4.144531 3.355469 7.5 7.5 7.5h196.429688c23.195312 0 42.070312-18.871094 42.070312-42.066406v-87.210938c0-4.140625-3.359375-7.5-7.5-7.5zm0 0"/><path d="m469.929688 135.191406h-66.269532l47.71875-124.503906c1.480469-3.867188-.453125-8.207031-4.320312-9.6875-3.867188-1.484375-8.207032.449219-9.6875 4.316406-5.167969 13.480469-111.089844 289.851563-117.15625 305.6875h-13.023438l12.605469-59.824218c.855469-4.054688-1.738281-8.03125-5.789063-8.886719-4.054687-.851563-8.035156 1.738281-8.886718 5.792969l-13.257813 62.917968h-58.617187l-13.257813-62.917968c-.855469-4.054688-4.835937-6.648438-8.886719-5.792969-4.054687.855469-6.644531 4.835937-5.792968 8.886719l12.609375 59.824218h-16.128907l-65.539062-170.996094-51.621094-134.6875c-1.480468-3.867187-5.816406-5.800781-9.6875-4.320312-3.867187 1.480469-5.800781 5.820312-4.316406 9.6875l47.714844 124.503906h-76.269532c-23.199218 0-42.070312 18.871094-42.070312 42.070313v209.421875c0 23.195312 18.871094 42.066406 42.070312 42.066406h196.429688c4.140625 0 7.5-3.355469 7.5-7.5 0-4.140625-3.359375-7.5-7.5-7.5h-196.429688c-14.925781 0-27.070312-12.140625-27.070312-27.066406v-209.421875c0-14.925781 12.144531-27.070313 27.070312-27.070313h82.019532l5.773437 15.0625c-11.757812 0-46.523437 0-57.734375 0-6.511718 0-12.007812 5.5-12.007812 12.007813v209.421875c0 6.507812 5.496094 12.007812 12.007812 12.007812h345.695313c6.511719 0 12.011719-5.5 12.011719-12.007812v-209.421875c0-6.511719-5.5-12.011719-12.011719-12.011719h-25.6875l5.773437-15.058594h72.019532c14.925781 0 27.066406 12.144532 27.066406 27.070313v87.207031c0 4.144531 3.359375 7.5 7.5 7.5 4.144531 0 7.5-3.355469 7.5-7.5v-87.207031c.003906-23.199219-18.867188-42.070313-42.066406-42.070313zm-374.65625 248.5h-20.152344v-25.042968h20.152344zm0-40.042968h-20.152344v-163.394532h20.152344zm319.5625-163.394532v203.4375h-304.558594c0-15.597656 0-197.09375 0-203.4375h25.335937l50.109375 130.75h-4.5625c-4.140625 0-7.5 3.359375-7.5 7.5 0 4.144532 3.359375 7.503906 7.5 7.503906h159.675782c4.144531 0 7.503906-3.359374 7.503906-7.503906 0-4.140625-3.359375-7.5-7.503906-7.5h-4.558594l50.109375-130.75zm0 0"/></svg>