<svg height="512pt" viewBox="0 -14 512 511" width="512pt" xmlns="http://www.w3.org/2000/svg"><g fill="#feca57"><path d="m89.699219 33.554688h54.25v74.269531h-54.25zm0 0"/><path d="m186.714844 33.554688h-13.929688v74.269531h13.929688c21.234375 0 38.453125-16.625 38.453125-37.132813 0-20.511718-17.21875-37.136718-38.453125-37.136718zm0 0"/><path d="m60.695312 33.554688h-14.023437c-21.378906 0-38.710937 16.625-38.710937 37.136718 0 20.507813 17.332031 37.132813 38.710937 37.132813h14.023437zm0 0"/></g><path d="m89.699219 73.527344h54.25v34.296875h-54.25zm0 0" fill="#f4b537"/><path d="m186.714844 73.527344h-13.929688v34.296875h13.929688c21.234375 0 38.453125-16.625 38.453125-37.132813 0-6.191406-1.578125-12.019531-4.351563-17.152344-6.414062 11.875-19.273437 19.988282-34.101562 19.988282zm0 0" fill="#f4b537"/><path d="m12.339844 53.539062c-2.792969 5.132813-4.378906 10.960938-4.378906 17.152344 0 20.507813 17.332031 37.132813 38.714843 37.132813h14.019531v-34.296875h-14.023437c-14.925781 0-27.875-8.113282-34.332031-19.988282zm0 0" fill="#f4b537"/><path d="m174.582031 139.214844v-114.136719c0-9.523437-7.554687-17.242187-16.875-17.242187-9.316406 0-16.871093 7.71875-16.871093 17.242187v114.136719zm0 0" fill="#338def"/><path d="m73 139.214844h19.292969v-114.136719c0-9.523437-7.554688-17.242187-16.875-17.242187-9.316407 0-16.871094 7.71875-16.871094 17.242187v115.804687c4.648437-1.078124 9.480469-1.667968 14.453125-1.667968zm0 0" fill="#338def"/><path d="m169.84375 13.117188c-3.070312-3.25-7.367188-5.28125-12.136719-5.28125-9.316406 0-16.871093 7.71875-16.871093 17.246093v114.136719h24.269531v-114.140625c0-4.648437 1.808593-8.859375 4.738281-11.960937zm0 0" fill="#2c80e5"/><path d="m82.816406 25.078125c0-4.648437 1.808594-8.859375 4.738282-11.960937-3.070313-3.25-7.367188-5.28125-12.136719-5.28125-9.316407 0-16.871094 7.71875-16.871094 17.246093v115.804688c4.648437-1.082031 9.480469-1.667969 14.453125-1.667969h9.816406zm0 0" fill="#2c80e5"/><path d="m136.988281 264.46875-14.175781 54.910156c1.175781.429688 2.378906.820313 3.613281 1.152344 22.570313 6.046875 47.773438-7.347656 53.820313-29.917969l6.46875-26.144531zm0 0" fill="#3e4b5a"/><path d="m174.957031 264.46875h-37.96875l-14.175781 54.910156c1.175781.429688 2.378906.820313 3.613281 1.152344 12.222657 3.273438 25.210938.839844 35.515625-5.660156zm0 0" fill="#374451"/><path d="m73 264.46875c-7.242188 0-14.203125-1.203125-20.710938-3.386719l-42.878906 162.019531c-6.046875 22.574219 7.347656 45.773438 29.917969 51.820313 22.570313 6.050781 45.773437-7.34375 51.820313-29.917969l47.839843-180.535156zm0 0" fill="#576574"/><path d="m44.414062 423.105469 41.980469-158.636719h-13.394531c-7.242188 0-14.203125-1.203125-20.710938-3.386719l-42.878906 162.023438c-6.046875 22.570312 7.347656 45.769531 29.921875 51.816406 9.859375 2.644531 19.835938 1.574219 28.453125-2.347656-18.527344-8.390625-28.808594-29.179688-23.371094-49.46875zm0 0" fill="#3e4b5a"/><path d="m377.964844 222.289062h55.671875c-2.828125-6.550781-4.382813-13.5625-4.382813-20.859374 0-7.300782 1.554688-14.3125 4.382813-20.863282h-55.671875c2.828125 6.550782 4.382812 13.5625 4.382812 20.863282 0 7.296874-1.554687 14.308593-4.382812 20.859374zm0 0" fill="#338def"/><path d="m323.339844 136.386719h-250.339844c-35.921875 0-65.039062 29.121093-65.039062 65.039062 0 35.921875 29.117187 65.039063 65.039062 65.039063h250.339844c35.917968 0 65.039062-29.117188 65.039062-65.039063 0-35.917969-29.121094-65.039062-65.039062-65.039062zm0 0" fill="#8ac2ff"/><path d="m323.339844 232.757812h-250.339844c-30.089844 0-55.394531-20.4375-62.824219-48.183593-1.4375 5.375-2.214843 11.023437-2.214843 16.851562 0 35.921875 29.117187 65.039063 65.039062 65.039063h250.339844c35.917968 0 65.039062-29.117188 65.039062-65.039063 0-5.828125-.777344-11.476562-2.21875-16.851562-7.425781 27.746093-32.730468 48.183593-62.820312 48.183593zm0 0" fill="#6fb1ff"/><path d="m473.210938 138.652344c-27.660157 7.484375-48.019532 32.746094-48.019532 62.773437 0 30.03125 20.359375 55.292969 48.019532 62.773438zm0 0" fill="#e4eaf8"/><path d="m427.589844 183.925781c-1.550782 5.570313-2.394532 11.4375-2.394532 17.5 0 30.03125 20.355469 55.292969 48.015626 62.773438v-35c-22.074219-5.972657-39.484376-23.269531-45.621094-45.273438zm0 0" fill="#c7d2e5"/><path d="m109.230469 200.605469c0-6.171875 1.710937-11.941407 4.679687-16.871094h-36.003906c-9.316406 0-16.871094 7.554687-16.871094 16.871094 0 9.320312 7.554688 16.875 16.871094 16.875h36.003906c-2.96875-4.929688-4.679687-10.699219-4.679687-16.875zm0 0" fill="#54a0ff"/><path d="m317.515625 183.734375h-153.449219c2.96875 4.929687 4.679688 10.699219 4.679688 16.871094 0 6.175781-1.710938 11.945312-4.679688 16.875h153.449219c9.316406 0 16.871094-7.554688 16.871094-16.875 0-9.316407-7.554688-16.871094-16.871094-16.871094zm0 0" fill="#54a0ff"/><path d="m109.761719 194.8125h-31.855469c-4.949219 0-9.386719-2.144531-12.472656-5.539062-2.722656 2.996093-4.398438 6.964843-4.398438 11.332031 0 9.320312 7.554688 16.875 16.871094 16.875h36.003906c-2.96875-4.929688-4.675781-10.699219-4.675781-16.875-.003906-1.976563.191406-3.910157.527344-5.792969zm0 0" fill="#338def"/><path d="m317.515625 194.8125h-149.300781c.335937 1.882812.53125 3.816406.53125 5.792969 0 6.175781-1.707032 11.945312-4.675782 16.875h153.445313c9.320313 0 16.875-7.554688 16.875-16.875 0-4.367188-1.675781-8.335938-4.402344-11.332031-3.085937 3.394531-7.523437 5.539062-12.472656 5.539062zm0 0" fill="#338def"/><path d="m471.210938 139.222656v124.410156c6.019531 1.839844 12.402343 2.835938 19.023437 2.835938h14.722656v-130.082031h-14.722656c-6.621094 0-13.003906.996093-19.023437 2.835937zm0 0" fill="#c7d2e5"/><path d="m471.210938 228.632812v35c6.019531 1.839844 12.402343 2.835938 19.023437 2.835938h14.722656v-35.003906h-14.722656c-6.621094 0-13.003906-.996094-19.023437-2.832032zm0 0" fill="#bac7db"/><path d="m171.746094 200.605469c0 18.09375-14.667969 32.757812-32.757813 32.757812-18.089843 0-32.757812-14.664062-32.757812-32.757812 0-18.089844 14.667969-32.753907 32.757812-32.753907 18.089844 0 32.757813 14.664063 32.757813 32.753907zm0 0" fill="#338def"/><path d="m140.824219 200.605469c0-11.738281 6.179687-22.03125 15.460937-27.8125-5.019531-3.128907-10.945312-4.941407-17.296875-4.941407-18.089843 0-32.753906 14.664063-32.753906 32.753907 0 18.09375 14.664063 32.757812 32.753906 32.757812 6.351563 0 12.277344-1.8125 17.296875-4.941406-9.28125-5.78125-15.460937-16.074219-15.460937-27.816406zm0 0" fill="#2c80e5"/><path d="m341.429688 200.773438c0-13.441407-10.9375-24.375-24.375-24.375h-146.511719c-7.363281-9.644532-18.972657-15.882813-32.011719-15.882813-13.042969 0-24.648438 6.238281-32.011719 15.882813h-29.070312c-13.441407 0-24.375 10.933593-24.375 24.375 0 13.4375 10.933593 24.375 24.375 24.375h29.070312c16.175781 21.191406 47.878907 21.148437 64.023438 0h146.511719c13.441406 0 24.375-10.9375 24.375-24.375zm-242.054688 9.371093h-21.925781c-5.167969 0-9.375-4.203125-9.375-9.371093 0-5.167969 4.207031-9.375 9.375-9.375h21.925781c-1.515625 6.371093-1.402344 12.867187 0 18.746093zm61.171875 2.976563c-10 17.761718-35.710937 16.980468-44.6875-1.226563-8.257813-16.8125 4.109375-36.378906 22.671875-36.378906 19.128906 0 31.523438 20.683594 22.015625 37.605469zm17.136719-21.722656h139.371094c5.167968 0 9.375 4.207031 9.375 9.375 0 5.167968-4.207032 9.371093-9.375 9.371093h-139.371094c1.410156-5.914062 1.503906-12.4375 0-18.746093zm0 0"/><path d="m0 201.59375c0 29.425781 17.621094 54.792969 42.859375 66.160156l-41.152344 153.574219c-7.105469 26.527344 8.695313 53.898437 35.222657 61.003906 26.527343 7.113281 53.898437-8.691406 61.007812-35.21875l31.710938-118.355469c25.4375 4.859376 50.585937-10.671874 57.382812-36.042968l4.980469-18.582032h40.757812c4.140625 0 7.5-3.359374 7.5-7.5 0-4.144531-3.359375-7.503906-7.5-7.503906-6.660156 0-152.75 0-160.230469 0-31.46875 0-57.539062-25.59375-57.539062-57.535156 0-31.835938 25.960938-57.539062 57.539062-57.539062h250.339844c31.800782 0 57.539063 25.921874 57.539063 57.539062 0 31.570312-25.699219 57.535156-57.539063 57.535156h-55.109375c-4.140625 0-7.5 3.359375-7.5 7.503906 0 4.140626 3.359375 7.5 7.5 7.5h55.109375c29.941406 0 55.699219-18.234374 66.761719-44.179687h33.371094c11.246093 26.367187 37.296875 44.179687 66.761719 44.179687h7.226562v4.359376c0 4.144531 3.355469 7.503906 7.5 7.503906s7.5-3.359375 7.5-7.503906c0-6.691407 0-148.59375 0-155.4375 0-4.144532-3.355469-7.5-7.5-7.5s-7.5 3.355468-7.5 7.5v5.996093c-6.886719 0-17.007812-.496093-28.542969 3.203125-20.480469 6.308594-37.121093 21.457032-45.445312 40.976563h-33.371094c-11.0625-25.945313-36.820313-44.179688-66.761719-44.179688h-141.257812v-13.5625h5.953125c16.488281 0 31.574219-9.039062 39.367187-23.59375 1.953125-3.652343.578125-8.195312-3.074218-10.152343-3.652344-1.957032-8.199219-.578126-10.152344 3.074218-5.175782 9.667969-15.191406 15.671875-26.140625 15.671875h-5.953125v-59.265625h5.953125c10.945312 0 20.964843 6.003906 26.140625 15.671875 1.957031 3.652344 6.496094 5.027344 10.152344 3.074219 3.652343-1.957031 5.027343-6.5 3.074218-10.152344-7.792968-14.554687-22.878906-23.597656-39.367187-23.597656h-5.953125c0-16.070312-11.789063-25.71875-24.371094-25.71875-12.503906 0-24.375 9.554688-24.375 25.71875h-33.542969c0-16.1875-11.90625-25.71875-24.371093-25.71875-13.441407 0-24.375 10.933594-24.375 24.375v1.34375h-5.949219c-24.613281 0-44.636719 20.023438-44.636719 44.636719s20.023438 44.636719 44.636719 44.636719h5.949219v16.964843c-29.296876 9.324219-50.585938 36.789063-50.585938 69.136719zm144.285156 72.539062h32.195313l-3.9375 14.699219c-4.691407 17.503907-21.765625 28.117188-39 25.390625zm-87.160156-1.660156c4.789062 1.046875 10.136719 1.660156 15.414062 1.660156h56.214844l-45.308594 169.097657c-4.96875 18.539062-24.097656 29.574219-42.632812 24.613281-18.539062-4.96875-29.582031-24.09375-24.617188-42.636719zm421.128906-127.257812c6.851563-1.398438 11.953125-1.160156 18.746094-1.160156v115.074218c-6.945312 0-11.929688.230469-18.746094-1.160156zm-15 5.339844v102.074218c-18.851562-9.835937-31.019531-29.402344-31.019531-51.035156 0-21.71875 12.246094-41.242188 31.019531-51.039062zm-69.074218 37.675781h24.292968c-.703125 3.753906-1.238281 8.59375-1.238281 13.363281 0 4.671875.53125 9.585938 1.238281 13.359375h-24.292968c.664062-3.554687 1.242187-8.539063 1.242187-13.359375 0-4.367188-.429687-9.011719-1.242187-13.363281zm-246.304688-163.355469c0-5.167969 4.207031-9.375 9.375-9.375s9.371094 4.207031 9.371094 9.375v104.179688h-18.746094c0-12.902344 0-88.613282 0-104.179688zm-48.542969 16.34375h33.542969v59.269531h-33.542969zm0 74.273438h33.542969v13.5625h-33.542969zm-33.746093-90.617188c0-5.167969 4.207031-9.375 9.375-9.375 5.167968 0 9.371093 4.207031 9.371093 9.375v104.179688h-11.792969c-2.179687 0-4.589843.105468-6.953124.335937 0-12.460937 0-92.011719 0-104.515625zm-20.949219 75.613281c-16.339844 0-29.636719-13.292969-29.636719-29.632812 0-16.339844 13.296875-29.632813 29.636719-29.632813h5.949219v59.269532h-5.949219zm0 0"/></svg>