<svg height="512pt" viewBox="-118 0 512 512.001" width="512pt" xmlns="http://www.w3.org/2000/svg"><path d="m26.25 343.195312 32.84375 144.976563c2.140625 9.457031 10.449219 16.160156 20.023438 16.160156h118.804687c9.578125 0 17.882813-6.703125 20.023437-16.160156l32.84375-144.976563zm0 0" fill="#ff6b6b"/><path d="m94.097656 488.171875-32.84375-144.976563h-35.003906l32.84375 144.976563c2.144531 9.457031 10.449219 16.160156 20.023438 16.160156h35c-9.574219.003907-17.878907-6.703125-20.019532-16.160156zm0 0" fill="#ee5253"/><path d="m175.367188 50.804688v-35.199219c0-4.546875-3.640626-8.269531-8.089844-8.269531h-4.824219c-4.449219 0-8.09375 3.722656-8.09375 8.269531v35.199219zm0 0" fill="#e4eaf8"/><path d="m122.679688 50.804688v-35.199219c0-4.546875-3.644532-8.269531-8.09375-8.269531h-4.820313c-4.453125 0-8.09375 3.722656-8.09375 8.269531v35.199219zm0 0" fill="#e4eaf8"/><path d="m65.09375 171.085938h29.398438c24.214843 0 44.027343 19.8125 44.027343 44.027343v29.398438c0 4.941406-4.003906 8.945312-8.945312 8.945312h-29.398438c-24.214843 0-44.027343-19.8125-44.027343-44.027343v-29.398438c0-4.9375 4.007812-8.945312 8.945312-8.945312zm0 0" fill="#29e5af"/><path d="m91.570312 209.429688v-29.394532c0-4.296875 3.027344-7.878906 7.0625-8.746094-1.363281-.128906-2.742187-.199218-4.140624-.199218h-29.398438c-4.9375 0-8.945312 4.003906-8.945312 8.945312v29.394532c0 24.214843 19.8125 44.027343 44.027343 44.027343h29.398438c.644531 0 1.273437-.070312 1.882812-.199219-22.292969-2.109374-39.886719-21.007812-39.886719-43.828124zm0 0" fill="#1dd1a1"/><path d="m211.945312 171.085938h-29.398437c-24.214844 0-44.027344 19.8125-44.027344 44.027343v29.398438c0 4.941406 4.003907 8.945312 8.945313 8.945312h29.398437c24.214844 0 44.027344-19.8125 44.027344-44.027343v-29.398438c0-4.9375-4.003906-8.945312-8.945313-8.945312zm0 0" fill="#29e5af"/><path d="m173.941406 244.511719v-29.394531c0-22.820313 17.59375-41.722657 39.886719-43.828126-.609375-.128906-1.238281-.199218-1.882813-.199218h-29.398437c-24.214844 0-44.027344 19.8125-44.027344 44.027344v29.394531c0 4.941406 4.003907 8.945312 8.945313 8.945312h29.398437c1.394531 0 2.777344-.070312 4.140625-.199219-4.035156-.867187-7.0625-4.449218-7.0625-8.746093zm0 0" fill="#1dd1a1"/><path d="m260.832031 306.140625h-244.625c-4.554687 0-8.246093 3.691406-8.246093 8.246094v22.722656c0 4.554687 3.691406 8.246094 8.246093 8.246094h244.625c4.554688 0 8.25-3.691407 8.25-8.246094v-22.722656c0-4.554688-3.695312-8.246094-8.25-8.246094zm0 0" fill="#ee5253"/><path d="m260.832031 321.351562h-244.625c-4.335937 0-7.886719-3.351562-8.214843-7.605468-.015626.214844-.03125.425781-.03125.640625v22.71875c0 4.558593 3.691406 8.25 8.246093 8.25h244.628907c4.554687 0 8.246093-3.691407 8.246093-8.25v-22.71875c0-.214844-.015625-.425781-.03125-.640625-.328125 4.253906-3.878906 7.605468-8.21875 7.605468zm0 0" fill="#d83941"/><path d="m151.605469 120.847656h-26.171875c-4.453125 0-8.09375 3.644532-8.09375 8.09375v5.824219c0 4.449219 3.644531 8.09375 8.09375 8.09375h26.171875c4.453125 0 8.09375-3.644531 8.09375-8.09375v-5.824219c0-4.449218-3.640625-8.09375-8.09375-8.09375zm0 0" fill="#2388e2"/><path d="m144.71875 134.765625v-5.824219c0-4.246094 3.316406-7.75 7.488281-8.0625-.199219-.011718-.398437-.03125-.601562-.03125h-26.171875c-4.453125 0-8.09375 3.644532-8.09375 8.09375v5.824219c0 4.449219 3.640625 8.09375 8.09375 8.09375h26.171875c.203125 0 .402343-.019531.601562-.03125-4.171875-.3125-7.488281-3.816406-7.488281-8.0625zm0 0" fill="#2d80e2"/><path d="m178.5 49.875h-79.957031c-3.851563 0-6.972657 3.121094-6.972657 6.96875v44.46875c0 11.292969 9.242188 20.535156 20.539063 20.535156h52.824219c11.292968 0 20.539062-9.242187 20.539062-20.535156v-44.46875c-.003906-3.847656-3.125-6.96875-6.972656-6.96875zm0 0" fill="#54a0ff"/><path d="m126.574219 101.3125v-44.46875c0-3.847656 3.121093-6.972656 6.972656-6.972656h-35.003906c-3.851563 0-6.972657 3.125-6.972657 6.972656v44.46875c0 11.292969 9.242188 20.535156 20.539063 20.535156h35.003906c-11.296875 0-20.539062-9.238281-20.539062-20.535156zm0 0" fill="#2388e2"/><path d="m150.015625 80.515625c0 6.347656-5.148437 11.496094-11.496094 11.496094-6.347656 0-11.492187-5.148438-11.492187-11.496094s5.144531-11.492187 11.492187-11.492187c6.347657 0 11.496094 5.144531 11.496094 11.492187zm0 0" fill="#2388e2"/><path d="m15.75 298.804688c-8.683594 0-15.75 7.066406-15.75 15.75v22.71875c0 8.683593 7.066406 15.746093 15.75 15.746093h4.070312l31.503907 137.214844c2.941406 12.816406 14.183593 21.765625 27.332031 21.765625h41.902344c4.144531 0 7.5-3.355469 7.5-7.5 0-4.140625-3.355469-7.5-7.5-7.5h-41.902344c-6.117188 0-11.34375-4.164062-12.710938-10.125l-30.734374-133.855469h205.699218l-30.734375 133.855469c-1.367187 5.960938-6.59375 10.125-12.710937 10.125h-41.902344c-4.144531 0-7.5 3.355469-7.5 7.5 0 4.140625 3.355469 7.5 7.5 7.5h41.902344c13.148437 0 24.390625-8.953125 27.332031-21.769531l31.507813-137.210938h4.070312c8.683594 0 15.746094-7.0625 15.746094-15.746093v-22.71875c0-8.683594-7.0625-15.75-15.746094-15.75h-114.8125v-37.753907c.476562.042969.957031.074219 1.445312.074219h29.394532c28.414062 0 51.53125-23.117188 51.53125-51.53125v-29.394531c0-9.070313-7.378906-16.445313-16.449219-16.445313h-29.394531c-14.261719 0-27.1875 5.828125-36.527344 15.222656v-28.453124h5.585938c8.597656 0 15.59375-6.996094 15.59375-15.59375v-4.820313c0-.234375-.027344-.457031-.035157-.6875 13.445313-1.050781 24.292969-11.503906 25.664063-25.144531.410156-4.125-2.59375-7.800782-6.714844-8.210938-4.117188-.421875-7.800781 2.59375-8.214844 6.710938-.65625 6.582031-6.355468 11.738281-12.96875 11.738281-24.296875 0-28.523437 0-52.824218 0-7.1875 0-13.035157-5.851563-13.035157-13.039063v-43.9375h78.898438v10.988282c0 4.140625 3.355469 7.5 7.5 7.5s7.5-3.359375 7.5-7.5v-11.515625c0-6.457031-4.25-11.9375-10.101563-13.796875v-27.621094c0-8.597656-6.996094-15.59375-15.59375-15.59375h-4.820312c-8.597656 0-15.59375 6.996094-15.59375 15.59375v26.945312h-16.683594v-26.945312c0-8.597656-6.992188-15.59375-15.59375-15.59375h-4.820312c-8.597657 0-15.59375 6.996094-15.59375 15.59375v27.625c-5.847657 1.855469-10.101563 7.335938-10.101563 13.792969v44.464843c0 14.707032 11.386719 26.800782 25.804687 27.941407-.007812.230469-.035156.457031-.035156.691406v4.820313c0 8.597656 6.996094 15.59375 15.59375 15.59375h5.585938v28.453124c-9.335938-9.398437-22.261719-15.226562-36.527344-15.226562h-29.394531c-9.070313 0-16.449219 7.378906-16.449219 16.449219v29.394531c0 28.414062 23.117188 51.527344 51.53125 51.527344h29.398438c.484374 0 .964843-.027344 1.441406-.070313v37.753907zm145.652344-283.210938c0-.308594.28125-.59375.59375-.59375h4.820312c.3125 0 .59375.285156.59375.59375v26.945312h-6.007812zm-52.691406 0c0-.308594.28125-.59375.59375-.59375h4.820312c.3125 0 .59375.285156.59375.59375v26.945312h-6.007812zm73.378906 163.160156h29.394531c.800781 0 1.445313.648438 1.445313 1.445313v29.394531c0 20.144531-16.382813 36.527344-36.527344 36.527344h-19.753906l39.707031-40.023438c2.917969-2.9375 2.898437-7.6875-.042969-10.605468-2.9375-2.917969-7.6875-2.898438-10.605469.042968l-40.144531 40.464844v-20.71875c0-20.140625 16.386719-36.527344 36.527344-36.527344zm-57.113282-43.230468c-.3125 0-.59375-.285157-.59375-.59375v-4.820313c0-.3125.28125-.59375.59375-.59375h26.171876c.308593 0 .59375.28125.59375.59375v4.820313c0 .308593-.285157.589843-.59375.589843h-26.171876zm-34.5625 60.011718c-2.914062-2.941406-7.664062-2.960937-10.605468-.042968-2.941406 2.917968-2.960938 7.667968-.042969 10.605468l39.710937 40.023438h-19.757812c-20.140625 0-36.527344-16.382813-36.527344-36.527344v-29.394531c0-.796875.648438-1.445313 1.445313-1.445313h29.398437c20.140625 0 36.527344 16.386719 36.527344 36.527344v20.71875zm169.960938 118.269532c.410156 0 .746094.335937.746094.75v22.71875c0 .410156-.335938.746093-.746094.746093-17.621094 0-236.890625 0-244.625 0-.414062 0-.746094-.335937-.746094-.746093v-22.71875c0-.414063.332032-.75.746094-.75zm0 0"/><path d="m138.0625 61.6875c-10.472656 0-18.996094 8.523438-18.996094 18.996094s8.523438 18.992187 18.996094 18.992187 18.992188-8.519531 18.992188-18.992187-8.519532-18.996094-18.992188-18.996094zm0 22.988281c-2.203125 0-3.992188-1.792969-3.992188-3.992187 0-2.203125 1.789063-3.996094 3.992188-3.996094s3.992188 1.792969 3.992188 3.996094c0 2.199218-1.789063 3.992187-3.992188 3.992187zm0 0"/></svg>