<?xml version="1.0" encoding="iso-8859-1"?>
<!-- Generator: Adobe Illustrator 21.0.0, SVG Export Plug-In . SVG Version: 6.00 Build 0)  -->
<svg xmlns="http://www.w3.org/2000/svg" xmlns:xlink="http://www.w3.org/1999/xlink" version="1.1" id="Capa_1" x="0px" y="0px" viewBox="0 0 512 512" style="enable-background:new 0 0 512 512;" xml:space="preserve" width="512" height="512">
<g>
	<polygon style="fill:#2F5994;" points="501.27,170.8 501.27,512 10.73,512 10.73,170.8 11.42,170.34 256,9.44  "/>
	<polygon style="fill:#183158;" points="501.27,170.8 501.27,512 256,512 256,9.44  "/>
	<polygon style="fill:#FF8800;" points="501.27,170.8 440.95,227.97 256,403.28 71.05,228.7 10.73,171.76 11.42,170.34    71.05,131.11 256,9.44 440.95,131.12  "/>
	<polygon style="fill:#BD6100;" points="501.27,170.8 440.95,227.97 256,403.28 256,9.44 440.95,131.12  "/>
	<polygon style="fill:#FFF1F1;" points="440.95,0 440.95,227.97 256,403.28 71.05,228.7 71.05,0  "/>
	<polygon style="fill:#EBDED9;" points="440.95,0 440.95,227.97 256,403.28 256,0  "/>
	<g>
		<path style="fill:#60DA4D;" d="M374.597,202.422c0,19.773-16.034,35.807-35.807,35.807c-9.317,0-17.784-3.559-24.151-9.377    l-0.07,0.03c5.838,6.368,9.407,14.855,9.407,24.171c0,19.773-16.034,35.807-35.817,35.807c-14.115,0-26.33-8.177-32.158-20.043    c-5.828,11.866-18.044,20.043-32.158,20.043c-19.783,0-35.817-16.034-35.817-35.807c0-9.437,3.659-18.003,9.607-24.401l0.34-0.34    l-0.02-0.03l-0.34,0.35c-6.398,5.948-14.975,9.597-24.401,9.597c-19.773,0-35.807-16.034-35.807-35.807    c0-14.125,8.167-26.33,20.043-32.158c-11.876-5.838-20.043-18.044-20.043-32.158c0-19.783,16.034-35.817,35.807-35.817    c9.357,0,17.874,3.599,24.251,9.477l0.05-0.03c-5.878-6.388-9.487-14.895-9.487-24.261c0-19.773,16.034-35.807,35.817-35.807    c14.115,0,26.33,8.167,32.158,20.043c5.828-11.876,18.044-20.043,32.158-20.043c19.783,0,35.817,16.034,35.817,35.807    c0,9.317-3.569,17.794-9.397,24.161l0.04,0.05c6.378-5.828,14.854-9.397,24.171-9.397c19.773,0,35.807,16.034,35.807,35.817    c0,14.115-8.167,26.32-20.043,32.158C366.43,176.092,374.597,188.297,374.597,202.422z"/>
		<path style="fill:#00B863;" d="M354.554,170.264c11.876,5.828,20.043,18.033,20.043,32.158c0,19.773-16.034,35.807-35.807,35.807    c-9.317,0-17.784-3.559-24.151-9.377l-0.07,0.03c5.838,6.368,9.407,14.855,9.407,24.171c0,19.773-16.034,35.807-35.817,35.807    c-14.115,0-26.33-8.177-32.158-20.043V71.709c5.828-11.876,18.044-20.043,32.158-20.043c19.783,0,35.817,16.034,35.817,35.807    c0,9.317-3.569,17.794-9.397,24.161l0.04,0.05c6.378-5.828,14.854-9.397,24.171-9.397c19.773,0,35.807,16.034,35.807,35.817    C374.597,152.22,366.43,164.426,354.554,170.264z"/>
	</g>
</g>















</svg>
