<?xml version="1.0" encoding="iso-8859-1"?>
<!-- Generator: Adobe Illustrator 21.0.0, SVG Export Plug-In . SVG Version: 6.00 Build 0)  -->
<svg xmlns="http://www.w3.org/2000/svg" xmlns:xlink="http://www.w3.org/1999/xlink" version="1.1" id="Capa_1" x="0px" y="0px" viewBox="0 0 512 512" style="enable-background:new 0 0 512 512;" xml:space="preserve" width="512" height="512">
<g>
	<path style="fill:#FF7816;" d="M316.419,133.29c0,100.57-120.06,179.03-125.17,182.32l-8.12,5.23l-0.15-0.1l-7.97-5.13   c-5.11-3.29-125.17-81.75-125.17-182.32c0-73.45,59.71-133.21,133.14-133.29h0.15C256.629,0,316.419,59.79,316.419,133.29z"/>
	<path style="fill:#FF4B00;" d="M316.419,133.29c0,100.57-120.06,179.03-125.17,182.32l-8.12,5.23l-0.15-0.1V0h0.15   C256.629,0,316.419,59.79,316.419,133.29z"/>
	<rect x="168.129" y="310.75" style="fill:#FFE892;" width="30" height="201.25"/>
	<rect x="182.979" y="310.75" style="fill:#FFC072;" width="15.15" height="201.25"/>
	<path style="fill:#60DA4D;" d="M462.161,198.13c0,100.57-120.06,179.03-125.17,182.32l-8.12,5.23l-0.15-0.1l-7.97-5.13   c-5.11-3.29-125.17-81.75-125.17-182.32c0-73.45,59.71-133.21,133.14-133.29h0.15C402.371,64.84,462.161,124.63,462.161,198.13z"/>
	<path style="fill:#00B863;" d="M462.161,198.13c0,100.57-120.06,179.03-125.17,182.32l-8.12,5.23l-0.15-0.1V64.84h0.15   C402.371,64.84,462.161,124.63,462.161,198.13z"/>
	<rect x="313.871" y="375.59" style="fill:#FFE892;" width="30" height="136.41"/>
	<rect x="328.721" y="375.59" style="fill:#FFC072;" width="15.15" height="136.41"/>
	<path style="fill:#B5F94C;" d="M413.257,194.561h-30c0-28.872-23.489-52.36-52.36-52.36v-30   C376.31,112.2,413.257,149.147,413.257,194.561z"/>
</g>















</svg>
