<?xml version="1.0" encoding="iso-8859-1"?>
<!-- Generator: Adobe Illustrator 21.0.0, SVG Export Plug-In . SVG Version: 6.00 Build 0)  -->
<svg xmlns="http://www.w3.org/2000/svg" xmlns:xlink="http://www.w3.org/1999/xlink" version="1.1" id="Capa_1" x="0px" y="0px" viewBox="0 0 512 512" style="enable-background:new 0 0 512 512;" xml:space="preserve" width="512" height="512">
<g>
	<rect x="183.024" y="185.106" style="fill:#FABC00;" width="233" height="70.892"/>
	<rect x="299.524" y="185.106" style="fill:#FF9600;" width="116.5" height="70.892"/>
	<rect x="183.024" y="255.998" style="fill:#FFE892;" width="233" height="70.892"/>
	<rect x="299.524" y="255.998" style="fill:#FFC072;" width="116.5" height="70.892"/>
	<rect x="183.024" y="43.322" style="fill:#FABC00;" width="233" height="70.892"/>
	<rect x="299.524" y="43.322" style="fill:#FF9600;" width="116.5" height="70.892"/>
	<rect x="183.024" y="114.214" style="fill:#FFE892;" width="233" height="70.892"/>
	<rect x="299.524" y="114.214" style="fill:#FFC072;" width="116.5" height="70.892"/>
	<rect x="183.024" y="326.89" style="fill:#FABC00;" width="233" height="70.892"/>
	<rect x="299.524" y="326.89" style="fill:#FF9600;" width="116.5" height="70.892"/>
	<rect x="183.024" y="397.783" style="fill:#FFE892;" width="233" height="70.892"/>
	<rect x="299.524" y="397.783" style="fill:#FFC072;" width="116.5" height="70.892"/>
	<rect x="27.012" y="80.342" style="fill:#FF9600;" width="30" height="30"/>
	<rect x="88.554" y="80.342" style="fill:#FF9600;" width="30" height="30"/>
	<rect x="57.887" y="49.009" style="fill:#FF9600;" width="30" height="30"/>
	<rect x="57.887" y="111.655" style="fill:#FF9600;" width="30" height="30"/>
	<path style="fill:#FABC00;" d="M512,352.178c0,64.24-52.26,116.5-116.5,116.5S279,416.418,279,352.178s52.26-116.5,116.5-116.5   S512,287.938,512,352.178z"/>
	<rect y="185.106" style="fill:#FABC00;" width="233" height="70.892"/>
	<rect x="116.5" y="185.106" style="fill:#FF9600;" width="116.5" height="70.892"/>
	<rect y="255.998" style="fill:#FFE892;" width="233" height="70.892"/>
	<rect x="116.5" y="255.998" style="fill:#FFC072;" width="116.5" height="70.892"/>
	<rect y="326.89" style="fill:#FABC00;" width="233" height="70.892"/>
	<rect x="116.5" y="326.89" style="fill:#FF9600;" width="116.5" height="70.892"/>
	<rect y="397.783" style="fill:#FFE892;" width="233" height="70.892"/>
	<rect x="116.5" y="397.783" style="fill:#FFC072;" width="116.5" height="70.892"/>
	<path style="fill:#FF9600;" d="M512,352.178c0,64.24-52.26,116.5-116.5,116.5v-233C459.74,235.678,512,287.938,512,352.178z"/>
	<path style="fill:#FFE892;" d="M466.014,352.178c0,38.874-31.629,70.503-70.514,70.503s-70.514-31.629-70.514-70.503   c0-38.884,31.629-70.514,70.514-70.514S466.014,313.294,466.014,352.178z"/>
	<path style="fill:#FFC072;" d="M466.014,352.178c0,38.874-31.629,70.503-70.514,70.503V281.665   C434.384,281.665,466.014,313.294,466.014,352.178z"/>
</g>















</svg>
