<?xml version="1.0" encoding="iso-8859-1"?>
<!-- Generator: Adobe Illustrator 21.0.0, SVG Export Plug-In . SVG Version: 6.00 Build 0)  -->
<svg xmlns="http://www.w3.org/2000/svg" xmlns:xlink="http://www.w3.org/1999/xlink" version="1.1" id="Capa_1" x="0px" y="0px" viewBox="0 0 512 512" style="enable-background:new 0 0 512 512;" xml:space="preserve" width="512" height="512">
<g>
	<polygon style="fill:#60DA4D;" points="485.71,403.82 456.29,409.73 455.7,406.78 58.3,406.78 57.71,409.73 28.29,403.82    29.35,398.56 43.54,327.88 103.14,31.12 410.86,31.12 470.46,327.88 484.65,398.56  "/>
	<polygon style="fill:#00B863;" points="485.71,403.82 456.29,409.73 455.7,406.78 255.77,406.78 255.77,31.12 410.86,31.12    470.46,327.88 484.65,398.56  "/>
	<polygon style="fill:#2F5994;" points="484.65,398.56 29.35,398.56 43.54,327.88 470.46,327.88  "/>
	<rect x="119.814" y="327.877" style="fill:#FF7816;" width="272.247" height="70.686"/>
	<polygon style="fill:#183158;" points="484.65,398.56 255.77,398.56 255.77,327.88 470.46,327.88  "/>
	<rect x="255.768" y="327.877" style="fill:#FF4B00;" width="136.294" height="70.686"/>
	<rect x="175.636" y="282.116" style="fill:#FABC00;" width="160.263" height="132.384"/>
	<rect x="255.768" y="282.116" style="fill:#FF9600;" width="80.131" height="132.384"/>
	<g>
		<rect x="195.507" y="228.116" style="fill:#00AB00;" width="28.986" height="30"/>
		<rect x="241.51" y="228.12" style="fill:#00AB00;" width="28.98" height="30"/>
		<rect x="287.51" y="228.12" style="fill:#00AB00;" width="28.98" height="30"/>
	</g>
	<rect y="391.78" style="fill:#60DA4D;" width="512" height="89.1"/>
	<rect x="255.77" y="228.12" style="fill:#008040;" width="14.72" height="30"/>
	<rect x="287.51" y="228.12" style="fill:#008040;" width="28.98" height="30"/>
	<rect x="255.77" y="391.78" style="fill:#00B863;" width="256.23" height="89.1"/>
</g>















</svg>
