<?xml version="1.0" encoding="iso-8859-1"?>
<!-- Generator: Adobe Illustrator 21.0.0, SVG Export Plug-In . SVG Version: 6.00 Build 0)  -->
<svg xmlns="http://www.w3.org/2000/svg" xmlns:xlink="http://www.w3.org/1999/xlink" version="1.1" id="Capa_1" x="0px" y="0px" viewBox="0 0 512 512" style="enable-background:new 0 0 512 512;" xml:space="preserve" width="512" height="512">
<g>
	<rect x="80.763" y="138.24" style="fill:#EBDED9;" width="405.733" height="373.76"/>
	<rect x="283.635" y="138.24" style="fill:#C9BBB6;" width="202.862" height="373.76"/>
	<path style="fill:#FFF1F1;" d="M486.496,134.32v257.49c0,36-28.866,65.19-64.476,65.19H80.763V134.32H486.496z"/>
	<path style="fill:#EBDED9;" d="M486.496,134.32v257.49c0,36-28.866,65.19-64.476,65.19H283.635V134.32H486.496z"/>
	<rect x="54.725" y="27.34" style="fill:#2F5994;" width="457.275" height="125.9"/>
	<rect x="283.635" y="27.34" style="fill:#183158;" width="228.365" height="125.9"/>
	<path style="fill:#60DA4D;" d="M423.563,457H64.466C28.866,457,0,427.81,0,391.81h359.097C359.097,427.81,387.963,457,423.563,457z   "/>
	<g>
		<polygon style="fill:#FF7816;" points="235.26,345.304 264.927,345.304 264.927,203.862 210.588,203.862 210.588,233.862     235.26,233.862   "/>
		<polygon style="fill:#FF4B00;" points="298.892,345.304 330.197,345.304 366.315,236.855 366.315,203.862 284.225,203.862     284.225,233.862 336.008,233.862   "/>
	</g>
	<g>
		<rect x="139.17" style="fill:#FFF1F1;" width="29.667" height="93"/>
		<rect x="225.6" style="fill:#FFF1F1;" width="29.667" height="93"/>
		<rect x="312.03" style="fill:#EBDED9;" width="29.667" height="93"/>
		<rect x="398.46" style="fill:#EBDED9;" width="29.667" height="93"/>
	</g>
	<path style="fill:#00B863;" d="M423.563,457H283.635v-65.19h75.463C359.097,427.81,387.963,457,423.563,457z"/>
</g>















</svg>
