<?xml version="1.0" encoding="iso-8859-1"?>
<!-- Generator: Adobe Illustrator 21.0.0, SVG Export Plug-In . SVG Version: 6.00 Build 0)  -->
<svg xmlns="http://www.w3.org/2000/svg" xmlns:xlink="http://www.w3.org/1999/xlink" version="1.1" id="Capa_1" x="0px" y="0px" viewBox="0 0 512 512" style="enable-background:new 0 0 512 512;" xml:space="preserve" width="512" height="512">
<g>
	<g>
		<polygon style="fill:#FF9600;" points="74,164.9 89.5,164.9 89.5,194.9 119.5,194.9 119.5,164.9 135,164.9 135,134.9 74,134.9       "/>
		<polygon style="fill:#FF9600;" points="152.5,164.9 168,164.9 168,194.9 198,194.9 198,164.9 213.5,164.9 213.5,134.9     152.5,134.9   "/>
		<polygon style="fill:#FF9600;" points="292,134.9 231,134.9 231,164.9 246.5,164.9 246.5,194.9 276.5,194.9 276.5,164.9     292,164.9   "/>
	</g>
	<polygon style="fill:#FF9600;" points="246,363.9 26,363.9 26,273.4 56,273.4 56,333.9 216,333.9 216,273.4 246,273.4  "/>
	<path style="fill:#FABC00;" d="M451,105.14v263.52l-56.33-54.23c-17.44-16.79-40.25-26.03-64.23-26.03H0v-103h330.44   c23.98,0,46.79-9.24,64.22-26.03h0.01L451,105.14z"/>
	<polygon style="fill:#FF4B00;" points="369.329,280.213 304.333,274.678 304.333,273.4 274.333,273.4 274.333,415.1    329.333,390.35 384.333,415.1 384.333,280.213  "/>
	<path style="fill:#FF9600;" d="M451,236.9v131.76l-56.33-54.23c-17.44-16.79-40.25-26.03-64.23-26.03H0v-51.5H451z"/>
	<rect x="421" y="96.9" style="fill:#FFE892;" width="91" height="280"/>
	<rect x="56" y="185.4" style="fill:#FFE892;" width="30" height="103"/>
	<rect x="56" y="236.9" style="fill:#FFC072;" width="30" height="51.5"/>
	<rect x="421" y="236.9" style="fill:#FFC072;" width="91" height="140"/>
</g>















</svg>
