<svg height="512pt" viewBox="-42 0 512 512.00051" width="512pt" xmlns="http://www.w3.org/2000/svg"><path d="m410.183594 462.386719c-.019532 0-.03125 0-.050782 0-.003906 0-.011718 0-.015624 0-.101563 0-.195313 0-.285157 0h.183594c-.078125 0-.1875 0-.328125 0h.121094c-.285156 0-.507813 0-.6875 0-.011719 0-.023438 0-.035156 0-.011719 0-.023438 0-.03125 0-.0625 0-.117188 0-.183594 0-.0625 0-.140625 0-.210938 0h.082032c-.054688 0-.097657 0-.128907 0h.007813c-3.550782-.003907-14.246094-.007813-42.84375-.019531 5.648437 0 10.226562-4.578126 10.226562-10.226563v-21.601563c0-5.644531-4.578125-10.222656-10.226562-10.222656h-24.023438v-238.523437l44.535156 44.621093c5.738282 5.738282 15.039063 5.738282 20.777344 0l5.519532-5.519531c5.738281-5.738281 5.738281-15.039062 0-20.777343l-187.902344-188.238282c-5.738282-5.738281-15.160156-5.761718-20.921875 0l-188.378907 188.238282c-5.734374 5.738281-5.734374 15.039062 0 20.777343l5.523438 5.523438c5.738281 5.738281 15.039062 5.738281 20.777344 0l44.535156-44.503907v238.402344h-24.027344c-5.644531 0-10.222656 4.578125-10.222656 10.222656v21.605469c0 5.644531 4.578125 10.222657 10.222656 10.222657-28.597656.011718-39.292968.015624-42.839844.019531h.007813c-.03125 0-.078125 0-.128906 0h.082031c-.074219 0-.148438 0-.214844 0s-.121094 0-.179687 0c-.011719 0-.019531 0-.03125 0s-.023438 0-.035157 0c-.179687 0-.40625 0-.691406 0h.125c-.144531 0-.25 0-.328125 0h.179688c-.085938 0-.183594 0-.285157 0-.003906 0-.011718 0-.015624 0-.019532 0-.03125 0-.050782 0-5.644531 0-10.222656 4.578125-10.222656 10.222656v21.605469c0 5.644531 4.578125 10.222656 10.222656 10.222656h392.394532c5.648437 0 10.226562-4.578125 10.226562-10.222656v-21.605469c0-5.648437-4.578125-10.222656-10.222656-10.222656zm0 0" fill="#def4f8"/><path d="m341.75 148.515625v355.765625h-255.53125v-355.765625l127.765625-117.703125 20.1875 18.59375zm0 0" fill="#c2eaf2"/><path d="m341.75 148.515625v355.765625h-218.632812v-315.972656c0-14.683594 5.667968-28.8125 15.820312-39.421875l95.234375-99.480469zm0 0" fill="#def4f8"/><path d="m412.585938 200.117188-187.902344-188.238282c-5.738282-5.738281-15.160156-5.761718-20.921875 0l-188.378907 188.238282c-5.734374 5.738281-5.734374 15.039062 0 20.777343l5.523438 5.523438c5.734375 5.734375 15.039062 5.734375 20.777344 0l172.539062-172.402344 172.066406 172.402344c5.734376 5.734375 15.039063 5.734375 20.773438 0l5.523438-5.523438c5.738281-5.738281 5.738281-15.039062 0-20.777343zm0 0" fill="#60c8dd"/><path d="m365.777344 462.367188h-303.585938c-5.644531 0-10.222656-4.578126-10.222656-10.226563v-21.601563c0-5.644531 4.578125-10.222656 10.222656-10.222656h303.585938c5.644531 0 10.222656 4.578125 10.222656 10.222656v21.601563c0 5.648437-4.578125 10.226563-10.222656 10.226563zm0 0" fill="#44bfd7"/><path d="m17.789062 504.4375h392.394532c5.644531 0 10.222656-4.578125 10.222656-10.222656v-21.605469c0-5.644531-4.578125-10.222656-10.222656-10.222656h-392.394532c-5.648437 0-10.226562 4.578125-10.226562 10.222656v21.605469c0 5.644531 4.578125 10.222656 10.226562 10.222656zm0 0" fill="#2cb3cd"/><path d="m252.746094 396.152344h-77.523438c-10.023437 0-18.148437-8.125-18.148437-18.152344v-207.21875c0-10.023438 8.125-18.148438 18.148437-18.148438h77.523438c10.023437 0 18.152344 8.125 18.152344 18.148438v207.21875c0 10.023438-8.128907 18.152344-18.152344 18.152344zm0 0" fill="#1ab975"/><path d="m248.710938 152.632812h-69.449219v-20.335937c0-7.984375 6.46875-14.453125 14.449219-14.453125h40.546874c7.980469 0 14.453126 6.46875 14.453126 14.453125zm0 0" fill="#1ed688"/><path d="m211.863281 199.265625h19.71875c3.976563 0 6.667969 4.050781 5.128907 7.714844l-19.542969 48.738281c-1.539063 3.664062 1.152343 7.714844 5.128906 7.714844h26.316406c4.304688 0 6.976563 4.679687 4.792969 8.386718l-41.539062 70.472657c-3.234376 5.492187-11.660157 2.109375-10.203126-4.09375l10.65625-45.355469c.820313-3.488281-1.828124-6.832031-5.414062-6.832031h-27.554688c-4.011718 0-6.703124-4.117188-5.09375-7.792969l32.507813-75.625c.886719-2.023438 2.886719-3.328125 5.097656-3.328125zm0 0" fill="#ffc14f"/><path d="m410.183594 454.820312h-26.84375c.414062-2.707031.140625-2.105468.226562-24.28125 0-9.808593-7.980468-17.789062-17.789062-17.789062h-16.464844v-212.675781l31.625 31.683593c8.671875 8.671876 22.734375 8.738282 31.472656 0 2.6875-3.414062 12.039063-8.746093 12.039063-21.257812 0-5.9375-2.308594-11.523438-6.511719-15.730469l-187.910156-188.238281c-8.691406-8.695312-22.894532-8.722656-31.613282 0l-188.382812 188.238281c-8.679688 8.683594-8.699219 22.773438 0 31.472657 3.527344 2.773437 8.824219 12.042968 21.257812 12.042968 5.949219 0 11.539063-2.320312 15.742188-6.515625l31.625-31.605469v212.585938h-16.464844c-9.808594 0-17.785156 7.980469-17.785156 17.789062v21.601563c0 .914063.089844 1.804687.222656 2.679687h-26.839844c-9.808593 0-17.789062 7.980469-17.789062 17.789063v21.601563c0 9.808593 7.980469 17.789062 17.789062 17.789062h312.605469c4.179688 0 7.566407-3.382812 7.566407-7.5625s-3.386719-7.5625-7.566407-7.5625h-312.605469c-1.46875 0-2.664062-1.195312-2.664062-2.664062v-21.601563c0-1.464844 1.195312-2.660156 2.664062-2.660156 175.1875 0 217.199219-.015625 392.394532 0 1.464844 0 2.660156 1.195312 2.660156 2.660156v21.601563c0 1.46875-1.195312 2.664062-2.660156 2.664062h-50.542969c-4.175781 0-7.5625 3.382812-7.5625 7.5625s3.386719 7.5625 7.5625 7.5625h50.542969c9.804687 0 17.785156-7.980469 17.785156-17.789062v-21.601563c0-9.808594-7.980469-17.789063-17.785156-17.789063zm-373.851563-233.75c-1.339843 1.339844-3.136719 2.085938-5.042969 2.085938-4.527343 0-5.988281-3.59375-10.558593-7.613281-2.765625-2.746094-2.800781-7.292969 0-10.074219 6.136719-6.128906 10.773437-10.753906 188.382812-188.238281 2.851563-2.851563 7.480469-2.746094 10.214844-.011719 234.132813 234.566406 119.699219 119.917969 187.910156 188.25 1.351563 1.34375 2.085938 3.136719 2.085938 5.03125 0 4.539062-3.578125 5.984375-7.601563 10.570312-2.832031 2.808594-7.328125 2.757813-10.085937 0-183.933594-184.289062-172.496094-174.617187-177.410157-174.617187-5.917968 0-3.179687 1.15625-81.871093 78.667969-2.957031 2.953125-2.957031 7.742187 0 10.699218 2.953125 2.953126 7.742187 2.953126 10.699219 0l71.160156-71.105468 119.972656 120.203125v227.832031h-240.40625v-227.699219l28.578125-28.558593c2.957031-2.957032 2.957031-7.746094.011719-10.699219-2.957032-2.957031-7.746094-2.957031-10.699219 0-73.132813 73.0625-7.265625 7.257812-75.339844 75.277343zm332.105469 231.070313c0 1.46875-1.191406 2.664063-2.660156 2.664063h-303.585938c-1.464844 0-2.660156-1.195313-2.660156-2.664063v-21.601563c0-1.46875 1.195312-2.660156 2.660156-2.660156h303.585938c1.46875 0 2.660156 1.191406 2.660156 2.660156zm0 0"/><path d="m175.222656 403.714844h77.523438c14.179687 0 25.714844-11.535156 25.714844-25.714844v-29.832031c0-4.179688-3.386719-7.566407-7.5625-7.566407-4.179688 0-7.566407 3.386719-7.566407 7.566407v29.832031c0 5.839844-4.75 10.589844-10.585937 10.589844h-77.523438c-5.839844 0-10.585937-4.75-10.585937-10.589844v-207.21875c0-5.835938 4.746093-10.585938 10.585937-10.585938h77.523438c5.839844 0 10.585937 4.75 10.585937 10.585938v147.132812c0 4.179688 3.386719 7.5625 7.566407 7.5625 4.175781 0 7.5625-3.382812 7.5625-7.5625v-147.132812c0-12.980469-9.671876-23.742188-22.1875-25.464844v-13.019531c0-12.140625-9.875-22.015625-22.015626-22.015625h-40.546874c-12.140626 0-22.015626 9.875-22.015626 22.015625v13.019531c-12.515624 1.722656-22.1875 12.484375-22.1875 25.464844v207.21875c0 14.179688 11.535157 25.714844 25.714844 25.714844zm11.601563-271.417969c0-3.800781 3.089843-6.890625 6.886719-6.890625h40.546874c3.796876 0 6.890626 3.089844 6.890626 6.890625v12.769531h-54.324219zm0 0"/><path d="m218.382812 346.132812c43.054688-74.265624 43.363282-70.828124 43.363282-77.125 0-7.246093-5.890625-13.136718-13.132813-13.136718h-23.355469c19.105469-48.441406 19.453126-46.660156 19.453126-51.050782 0-7.234374-5.890626-13.121093-13.128907-13.121093h-19.71875c-5.214843 0-9.933593 3.089843-12.042969 7.910156-34.421874 80.964844-33.597656 76.117187-33.597656 80.84375 0 7.234375 5.890625 13.121094 13.128906 13.121094h25.03125l-10.082031 42.898437c-3.449219 14.722656 16.527344 22.480469 24.082031 9.660156zm-35.988281-67.683593 30.789063-71.621094h15.4375c-19.105469 48.441406-19.453125 46.660156-19.453125 51.050781 0 7.234375 5.890625 13.121094 13.128906 13.121094h22.816406l-33.074219 56.109375c7.925782-34.230469 7.996094-32.875 7.996094-35.550781 0-7.226563-5.886718-13.109375-13.125-13.109375zm0 0"/></svg>