<svg height="512pt" viewBox="-42 0 512 512.00055" width="512pt" xmlns="http://www.w3.org/2000/svg"><path d="m410.183594 462.386719c-.019532 0-.03125 0-.046875 0-.007813 0-.015625 0-.019531 0-.097657 0-.195313 0-.285157 0h.183594c-.078125 0-.183594 0-.328125 0h.125c-.289062 0-.511719 0-.691406 0-.011719 0-.023438 0-.035156 0-.011719 0-.023438 0-.03125 0-.058594 0-.117188 0-.179688 0-.066406 0-.140625 0-.214844 0h.082032c-.050782 0-.097657 0-.128907 0h.007813c-3.546875-.003907-14.246094-.007813-42.839844-.019531 5.644531 0 10.222656-4.578126 10.222656-10.226563v-21.601563c0-5.644531-4.578125-10.222656-10.222656-10.222656h-24.027344v-238.523437l44.535156 44.625c5.738282 5.734375 15.039063 5.734375 20.777344 0l5.519532-5.523438c5.738281-5.738281 5.738281-15.039062 0-20.777343l-187.902344-188.238282c-5.738282-5.738281-15.160156-5.761718-20.921875 0l-188.375 188.238282c-5.738281 5.738281-5.738281 15.039062 0 20.777343l5.519531 5.523438c5.738281 5.738281 15.039062 5.738281 20.777344 0l44.535156-44.503907v238.402344h-24.027344c-5.644531 0-10.222656 4.578125-10.222656 10.222656v21.605469c0 5.644531 4.578125 10.222657 10.222656 10.222657-28.59375.011718-39.292968.015624-42.839844.019531h.007813c-.03125 0-.078125 0-.128906 0h.082031c-.070312 0-.148438 0-.210938 0-.066406 0-.121093 0-.183593 0-.011719 0-.019531 0-.03125 0s-.023438 0-.035157 0c-.179687 0-.402343 0-.6875 0h.121094c-.140625 0-.25 0-.328125 0h.179688c-.085938 0-.183594 0-.28125 0-.007813 0-.015625 0-.019531 0-.015626 0-.03125 0-.046876 0-5.648437 0-10.226562 4.578125-10.226562 10.222656v21.605469c0 5.644531 4.578125 10.222656 10.226562 10.222656h392.394532c5.644531 0 10.222656-4.578125 10.222656-10.222656v-21.605469c0-5.644531-4.578125-10.222656-10.222656-10.222656zm0 0" fill="#c0694e"/><path d="m341.75 148.515625v355.765625h-255.53125v-355.765625l127.765625-117.703125 20.191406 18.59375zm0 0" fill="#ae583e"/><path d="m341.75 148.515625v355.765625h-218.632812v-315.972656c0-14.683594 5.667968-28.8125 15.824218-39.421875l95.234375-99.480469zm0 0" fill="#c0694e"/><path d="m412.585938 200.117188-187.902344-188.238282c-5.738282-5.738281-15.160156-5.761718-20.921875 0l-188.375 188.238282c-5.738281 5.738281-5.738281 15.039062 0 20.777343l5.519531 5.523438c5.738281 5.734375 15.039062 5.734375 20.777344 0l172.539062-172.402344 172.066406 172.402344c5.734376 5.734375 15.039063 5.734375 20.777344 0l5.519532-5.523438c5.738281-5.738281 5.738281-15.039062 0-20.777343zm0 0" fill="#954c35"/><path d="m365.777344 462.367188h-303.585938c-5.644531 0-10.222656-4.578126-10.222656-10.226563v-21.601563c0-5.644531 4.578125-10.222656 10.222656-10.222656h303.585938c5.648437 0 10.226562 4.578125 10.226562 10.222656v21.601563c0 5.648437-4.578125 10.226563-10.226562 10.226563zm0 0" fill="#954c35"/><path d="m17.789062 504.4375h392.394532c5.644531 0 10.222656-4.578125 10.222656-10.222656v-21.605469c0-5.644531-4.578125-10.222656-10.222656-10.222656h-392.394532c-5.648437 0-10.226562 4.578125-10.226562 10.222656v21.605469c0 5.644531 4.578125 10.222656 10.226562 10.222656zm0 0" fill="#7c3f2c"/><path d="m156.132812 361.773438c-1.191406.304687-2.398437.59375-3.621093.886718 0 0-72.644531-78.9375 67.3125-158.378906 3.773437-2.140625 7.644531-4.085938 11.566406-5.921875 9.339844-4.34375 33.367187-17.886719 38.523437-43.835937.613282-3.113282 5.039063-3.183594 5.734376-.078126 2.058593 9.15625 4.136718 20.800782 5.246093 33.941407 4.878907 57.710937-8.855469 144.082031-124.761719 173.386719zm0 0" fill="#1ab975"/><path d="m156.132812 361.773438c-5.625-29.636719 4.738282-72.535157 73.28125-121.855469 3.519532-2.53125 7.148438-4.882813 10.859376-7.128907 8.816406-5.324218 31.261718-21.359374 33.59375-47.710937.28125-3.164063 4.675781-3.710937 5.707031-.695313.433593 1.28125.875 2.613282 1.320312 4.003907 4.878907 57.710937-8.855469 144.082031-124.761719 173.386719zm0 0" fill="#1ed688"/><path d="m410.183594 454.824219h-26.84375c.414062-2.707031.140625-2.105469.226562-24.285157 0-9.808593-7.980468-17.789062-17.789062-17.789062h-16.464844v-212.675781l31.625 31.683593c4.207031 4.207032 9.792969 6.527344 15.742188 6.527344 12.4375 0 17.765624-9.296875 21.257812-12.042968 8.683594-8.683594 8.699219-22.769532 0-31.472657l-187.90625-188.238281c-8.660156-8.660156-22.839844-8.753906-31.617188 0l-188.378906 188.238281c-4.207031 4.207031-6.515625 9.792969-6.515625 15.730469 0 12.507812 9.308594 17.785156 12.039063 21.257812 8.6875 8.6875 22.746094 8.71875 31.472656.011719l31.625-31.605469v212.585938h-16.460938c-9.808593 0-17.789062 7.980469-17.789062 17.789062v21.601563c0 .914063.089844 1.804687.222656 2.683594h-26.839844c-9.808593 0-17.789062 7.976562-17.789062 17.785156v21.605469c0 9.804687 7.980469 17.785156 17.789062 17.785156h312.609376c4.175781 0 7.5625-3.386719 7.5625-7.5625s-3.386719-7.5625-7.5625-7.5625h-312.609376c-1.46875 0-2.664062-1.195312-2.664062-2.660156v-21.605469c0-1.464844 1.195312-2.660156 2.664062-2.660156 103.910157-.011719 255.765626 0 392.394532 0 1.464844 0 2.660156 1.195312 2.660156 2.660156v21.605469c0 1.464844-1.195312 2.660156-2.660156 2.660156h-50.542969c-4.175781 0-7.5625 3.386719-7.5625 7.5625s3.386719 7.5625 7.5625 7.5625h50.542969c9.808594 0 17.785156-7.980469 17.785156-17.785156v-21.605469c0-9.808594-7.976562-17.785156-17.785156-17.785156zm-378.890625-231.667969c-4.554688 0-6.039063-3.632812-10.558594-7.613281-2.769531-2.746094-2.800781-7.292969 0-10.074219 6.132813-6.128906 10.769531-10.753906 188.378906-188.238281 2.824219-2.824219 7.4375-2.769531 10.21875-.011719 203.011719 203.394531 189.992188 189.449219 189.992188 193.28125 0 1.90625-.734375 3.703125-2.085938 5.042969-4.492187 3.953125-6.003906 7.613281-10.558593 7.613281-1.90625 0-3.699219-.746094-5.042969-2.085938-183.933594-184.289062-172.496094-174.617187-177.410157-174.617187-5.9375 0-2.558593.546875-81.871093 78.667969-2.957031 2.953125-2.957031 7.742187 0 10.699218 2.953125 2.953126 7.742187 2.953126 10.699219 0l71.164062-71.105468 119.96875 120.203125v227.832031h-240.40625v-227.699219l28.578125-28.558593c2.957031-2.957032 2.957031-7.746094.011719-10.699219-2.953125-2.957031-7.746094-2.957031-10.699219 0-81.042969 80.976562-75.816406 77.363281-80.378906 77.363281zm337.144531 228.984375c0 1.46875-1.191406 2.664063-2.660156 2.664063h-303.585938c-1.464844 0-2.660156-1.195313-2.660156-2.664063v-21.601563c0-1.46875 1.195312-2.660156 2.660156-2.660156h303.585938c1.46875 0 2.660156 1.191406 2.660156 2.660156zm0 0"/><path d="m124.777344 393.660156c-4.152344.476563-7.128906 4.226563-6.652344 8.375 1.683594 14.636719 36.976562 6.320313 41.570312-33.375 8.828126-2.296875 17.296876-4.96875 25.226563-7.980468 3.90625-1.480469 5.871094-5.847657 4.386719-9.753907-1.480469-3.90625-5.847656-5.871093-9.753906-4.386719-6.152344 2.335938-12.671876 4.445313-19.441407 6.332032 1.175781-36.179688 14.089844-68.847656 46.726563-84.789063 41.382812-20.214843 56.332031-48.347656 56.949218-49.535156 1.921876-3.707031.476563-8.273437-3.230468-10.195313-3.707032-1.921874-8.273438-.476562-10.199219 3.230469-.125.246094-13.214844 24.863281-50.160156 42.90625-33.074219 16.160157-49.460938 46.714844-54.007813 82.644531-20.992187-53.605468 27.503906-97.964843 77.371094-126.269531 11.167969-6.339843 34.785156-14.417969 47.804688-38.398437 10.484374 67.820312-6.878907 127.8125-65.597657 161.730468-3.617187 2.089844-4.855469 6.714844-2.765625 10.332032 2.089844 3.617187 6.714844 4.855468 10.332032 2.765625 69.675781-40.25 87.28125-116.175781 69.695312-194.507813-2.484375-11.027344-18.332031-10.863281-20.539062.269532-4.433594 22.347656-25.457032 34.335937-34.292969 38.453124-27.75 12.933594-64.085938 38.421876-83.375 65.621094-26.59375 37.5-23.28125 78.484375-.019531 108.09375-.601563 7.179688-3.730469 26.5625-20.027344 28.4375zm0 0"/></svg>