<svg height="511pt" viewBox="0 0 511.99976 511" width="511pt" xmlns="http://www.w3.org/2000/svg"><path d="m368.523438 22.90625v331.242188c0 8.21875-6.65625 14.875-14.863282 14.875h-331.246094c-8.214843 0-14.871093-6.65625-14.871093-14.875v-331.242188c0-8.207031 6.65625-14.863281 14.871093-14.863281h331.246094c8.207032 0 14.863282 6.65625 14.863282 14.863281zm0 0" fill="#c8d2dc"/><path d="m368.523438 22.90625v331.242188c0 8.21875-6.65625 14.875-14.863282 14.875h-295.769531c-8.203125 0-14.859375-6.65625-14.859375-14.875v-331.242188c0-8.207031 6.65625-14.863281 14.859375-14.863281h295.769531c8.207032 0 14.863282 6.65625 14.863282 14.863281zm0 0" fill="#dce6eb"/><path d="m318.101562 99.492188v178.070312c0 11.363281-9.199218 20.574219-20.5625 20.574219h-219c-11.363281 0-20.578124-9.210938-20.578124-20.574219v-178.070312c0-11.363282 9.214843-20.574219 20.578124-20.574219h219c11.363282 0 20.5625 9.210937 20.5625 20.574219zm0 0" fill="#2cb3cd"/><path d="m318.101562 99.492188v158.53125h-215.257812c-11.363281 0-20.574219-9.210938-20.574219-20.574219v-158.53125h215.269531c11.363282 0 20.5625 9.210937 20.5625 20.574219zm0 0" fill="#44bfd7"/><path d="m504.429688 402.109375c0 51.316406-38.113282 93.902344-87.527344 100.921875-4.707032.683594-9.523438 1.027344-14.421875 1.027344-56.222657 0-101.957031-45.734375-101.957031-101.949219 0-56.222656 45.734374-101.957031 101.957031-101.957031 4.898437 0 9.714843.339844 14.421875 1.027344 49.414062 7.015624 87.527344 49.605468 87.527344 100.929687zm0 0" fill="#1ab975"/><path d="m504.429688 402.109375c0 51.316406-38.113282 93.902344-87.527344 100.921875-49.414063-7.007812-87.546875-49.59375-87.546875-100.921875 0-51.324219 38.132812-93.921875 87.546875-100.929687 49.414062 7.015624 87.527344 49.605468 87.527344 100.929687zm0 0" fill="#1ed688"/><path d="m401.65625 455.96875c-8.53125 0-15.472656-6.9375-15.472656-15.472656 0-8.53125 6.941406-15.46875 15.472656-15.46875s15.472656 6.9375 15.472656 15.46875c0 8.535156-6.941406 15.472656-15.472656 15.472656zm0 0" fill="#106e46"/><path d="m318.105469 128.066406c4.164062 0 7.542969-3.378906 7.542969-7.542968v-21.03125c0-15.503907-12.613282-28.117188-28.113282-28.117188h-219c-15.503906 0-28.113281 12.613281-28.113281 28.117188v178.074218c0 15.503906 12.609375 28.117188 28.113281 28.117188h219c15.5 0 28.113282-12.613282 28.113282-28.117188v-129.894531c0-4.164063-3.375-7.539063-7.542969-7.539063-4.164063 0-7.539063 3.375-7.539063 7.539063v129.894531c0 7.1875-5.847656 13.03125-13.03125 13.03125h-101.957031v-204.136718h101.957031c7.183594 0 13.03125 5.84375 13.03125 13.03125v21.03125c-.003906 4.164062 3.375 7.542968 7.539063 7.542968zm-137.613281 162.53125h-101.957032c-7.183594 0-13.03125-5.847656-13.03125-13.03125v-178.074218c0-7.1875 5.847656-13.03125 13.03125-13.03125h101.957032zm0 0"/><path d="m488.339844 334.21875c-2.585938-3.269531-7.332032-3.8125-10.597656-1.226562-3.269532 2.585937-3.8125 7.332031-1.226563 10.589843 48.515625 61.25 5.101563 152.929688-74.035156 152.929688-69.371094 0-115.023438-72.699219-85.222657-135.03125 24.996094-52.207031 90.945313-70.296875 138.964844-36.964844 3.417969 2.382813 8.113282 1.527344 10.488282-1.890625 2.382812-3.417969 1.539062-8.117188-1.890626-10.488281-27.003906-18.773438-59.597656-23.582031-88.753906-16.300781v-272.929688c0-12.359375-10.046875-22.40625-22.40625-22.40625h-279.226562c-4.164063 0-7.539063 3.378906-7.539063 7.542969 0 4.164062 3.375 7.539062 7.539063 7.539062h279.226562c4.042969 0 7.320313 3.28125 7.320313 7.324219v277.875c-27.34375 11.234375-49.171875 33.238281-60.183594 60.699219h-278.382813c-4.042968 0-7.328124-3.289063-7.328124-7.332031v-331.242188c0-4.042969 3.285156-7.324219 7.328124-7.324219h24.871094c4.160156 0 7.539063-3.375 7.539063-7.539062 0-4.164063-3.378907-7.542969-7.539063-7.542969h-24.871094c-12.359374 0-22.414062 10.046875-22.414062 22.40625v331.242188c0 12.359374 10.054688 22.417968 22.414062 22.417968h273.585938c-16.5625 68.859375 35.96875 135.03125 106.480469 135.03125 91.734375 0 142.183593-106.296875 85.859375-177.378906zm0 0"/><path d="m477.007812 397.933594c3.667969-1.949219 5.066407-6.515625 3.105469-10.195313-32.890625-61.863281-120.636719-62.359375-155.144531-2.625-2.082031 3.597657-.84375 8.214844 2.765625 10.296875 3.601563 2.082032 8.21875.84375 10.296875-2.765625 28.949219-50.011719 101.652344-48.792969 128.769531 2.183594 1.957031 3.667969 6.523438 5.058594 10.207031 3.105469zm0 0"/><path d="m459.113281 413.464844c3.726563-1.859375 5.242188-6.386719 3.382813-10.113282-24.675782-49.472656-94.496094-50.269531-120.5625-1.941406-1.976563 3.667969-.609375 8.242188 3.058594 10.21875 3.664062 1.976563 8.238281.609375 10.21875-3.058594 20.308593-37.648437 74.59375-36.964843 93.789062 1.511719 1.855469 3.730469 6.382812 5.242188 10.113281 3.382813zm0 0"/><path d="m440.71875 429.410156c3.78125-1.746094 5.429688-6.230468 3.683594-10.011718-16.480469-35.632813-67.269532-36.859376-84.960938-1.117188-1.847656 3.734375-.320312 8.257812 3.414063 10.105469 3.734375 1.847656 8.257812.320312 10.105469-3.414063 12.035156-24.316406 46.542968-23.476562 57.75.757813 1.753906 3.792969 6.238281 5.425781 10.007812 3.679687zm0 0"/><path d="m401.65625 417.484375c-12.691406 0-23.015625 10.316406-23.015625 23.007813 0 12.6875 10.324219 23.015624 23.015625 23.015624s23.007812-10.328124 23.007812-23.015624c0-12.691407-10.316406-23.007813-23.007812-23.007813zm0 30.941406c-4.375 0-7.933594-3.5625-7.933594-7.933593 0-4.367188 3.558594-7.925782 7.933594-7.925782s7.925781 3.558594 7.925781 7.925782c0 4.371093-3.550781 7.933593-7.925781 7.933593zm0 0"/></svg>