<svg height="512pt" viewBox="0 0 512.00046 512" width="512pt" xmlns="http://www.w3.org/2000/svg"><path d="m401.429688 48.539062v311.902344c0 22.628906-18.347657 40.992188-40.988282 40.992188h-311.890625c-22.644531 0-40.992187-18.363282-40.992187-40.992188v-311.902344c0-22.632812 18.347656-40.980468 40.992187-40.980468h311.890625c22.640625 0 40.988282 18.347656 40.988282 40.980468zm0 0" fill="#b9c3cd"/><path d="m401.429688 48.539062v311.902344c0 22.628906-18.347657 40.992188-40.988282 40.992188h-275.929687c-22.632813 0-40.980469-18.363282-40.980469-40.992188v-311.902344c0-22.632812 18.347656-40.980468 40.980469-40.980468h275.929687c22.640625 0 40.988282 18.347656 40.988282 40.980468zm0 0" fill="#c8d2dc"/><path d="m306.953125 165.035156c0 50.441406-36.507813 92.613282-84.863281 100.957032-5.714844.988281-11.589844 1.5-17.59375 1.5-56.613282 0-102.460938-45.867188-102.460938-102.457032 0-56.601562 45.871094-102.460937 102.460938-102.460937 6.003906 0 11.878906.515625 17.59375 1.503906 48.367187 8.351563 84.863281 50.535156 84.863281 100.957031zm0 0" fill="#5f6c75"/><path d="m306.953125 165.035156c0 50.441406-36.507813 92.613282-84.863281 100.957032-48.238282-8.3125-84.90625-50.351563-84.90625-100.957032 0-50.613281 36.679687-92.632812 84.90625-100.957031 48.367187 8.351563 84.863281 50.535156 84.863281 100.957031zm0 0" fill="#7e8b96"/><path d="m264.300781 165.035156c0 8.714844-7.066406 15.78125-15.78125 15.78125-8.714843 0-15.777343-7.066406-15.777343-15.78125s7.0625-15.78125 15.777343-15.78125c8.714844 0 15.78125 7.066406 15.78125 15.78125zm0 0" fill="#4e5a61"/><path d="m176.242188 165.035156c0 8.714844-7.0625 15.78125-15.777344 15.78125s-15.78125-7.066406-15.78125-15.78125 7.066406-15.78125 15.78125-15.78125 15.777344 7.066406 15.777344 15.78125zm0 0" fill="#4e5a61"/><path d="m343.128906 319.558594v20.214844c0 3.648437-3.003906 6.628906-6.652344 6.628906h-57.003906c-3.644531 0-6.648437-2.980469-6.648437-6.628906v-20.214844c0-3.65625 3.003906-6.640625 6.648437-6.640625h57.003906c3.648438 0 6.652344 2.984375 6.652344 6.640625zm0 0" fill="#7e8b96"/><path d="m239.640625 319.558594v20.214844c0 3.648437-2.992187 6.628906-6.648437 6.628906h-57.003907c-3.648437 0-6.640625-2.980469-6.640625-6.628906v-20.214844c0-3.65625 2.992188-6.640625 6.640625-6.640625h57.003907c3.65625 0 6.648437 2.984375 6.648437 6.640625zm0 0" fill="#7e8b96"/><path d="m136.15625 319.558594v20.214844c0 3.648437-2.992188 6.628906-6.640625 6.628906h-57.015625c-3.648438 0-6.640625-2.980469-6.640625-6.628906v-20.214844c0-3.65625 2.992187-6.640625 6.640625-6.640625h57.015625c3.648437 0 6.640625 2.984375 6.640625 6.640625zm0 0" fill="#7e8b96"/><g fill="#5f6c75"><path d="m343.128906 334.675781v5.097657c0 3.648437-3.003906 6.628906-6.652344 6.628906h-57.003906c-3.644531 0-6.648437-2.980469-6.648437-6.628906v-5.097657c0-3.660156 3.003906-6.640625 6.648437-6.640625h57.003906c3.648438 0 6.652344 2.980469 6.652344 6.640625zm0 0"/><path d="m239.640625 334.675781v5.097657c0 3.648437-2.992187 6.628906-6.648437 6.628906h-57.003907c-3.648437 0-6.640625-2.980469-6.640625-6.628906v-5.097657c0-3.660156 2.992188-6.640625 6.640625-6.640625h57.003907c3.65625 0 6.648437 2.980469 6.648437 6.640625zm0 0"/><path d="m136.15625 334.675781v5.097657c0 3.648437-2.992188 6.628906-6.640625 6.628906h-57.015625c-3.648438 0-6.640625-2.980469-6.640625-6.628906v-5.097657c0-3.660156 2.992187-6.640625 6.640625-6.640625h57.015625c3.648437 0 6.640625 2.980469 6.640625 6.640625zm0 0"/></g><path d="m504.414062 402.140625c0 51.421875-38.191406 94.097656-87.707031 101.128906-4.714843.683594-9.542969 1.027344-14.449219 1.027344-56.339843 0-102.167968-45.828125-102.167968-102.15625 0-56.335937 45.828125-102.167969 102.167968-102.167969 4.90625 0 9.734376.34375 14.449219 1.03125 49.515625 7.03125 87.707031 49.707032 87.707031 101.136719zm0 0" fill="#1ab975"/><path d="m504.414062 402.140625c0 51.421875-38.191406 94.097656-87.707031 101.128906-49.515625-7.023437-87.726562-49.699219-87.726562-101.128906s38.210937-94.113281 87.726562-101.136719c49.515625 7.03125 87.707031 49.707032 87.707031 101.136719zm0 0" fill="#1ed688"/><path d="m401.429688 456.109375c-8.550782 0-15.503907-6.953125-15.503907-15.503906 0-8.546875 6.953125-15.503907 15.503907-15.503907 8.546874 0 15.503906 6.957032 15.503906 15.503907 0 8.550781-6.957032 15.503906-15.503906 15.503906zm0 0" fill="#106e46"/><path d="m314.511719 165.035156c0-60.664062-49.355469-110.019531-110.019531-110.019531-88.492188 0-140.066407 99.332031-91.191407 171.597656 2.339844 3.457031 7.035157 4.363281 10.496094 2.023438 3.457031-2.335938 4.363281-7.035157 2.027344-10.492188-41.964844-62.035156 2.054687-148.011719 78.667969-148.011719 52.332031 0 94.90625 42.574219 94.90625 94.902344 0 80.234375-93.453126 123.496094-154.730469 73.6875-3.238281-2.636718-8-2.140625-10.628907 1.097656-2.632812 3.238282-2.140624 7.996094 1.097657 10.628907 71.042969 57.753906 179.375 7.597656 179.375-85.414063zm0 0"/><path d="m271.855469 165.035156c0-12.867187-10.46875-23.335937-23.335938-23.335937-12.867187 0-23.335937 10.46875-23.335937 23.335937 0 12.867188 10.46875 23.335938 23.335937 23.335938 12.867188 0 23.335938-10.46875 23.335938-23.335938zm-31.558594 0c0-4.535156 3.6875-8.222656 8.222656-8.222656 4.535157 0 8.222657 3.6875 8.222657 8.222656s-3.6875 8.222656-8.222657 8.222656c-4.535156 0-8.222656-3.6875-8.222656-8.222656zm0 0"/><path d="m160.460938 188.371094c12.867187 0 23.335937-10.46875 23.335937-23.335938 0-12.867187-10.46875-23.335937-23.335937-23.335937-12.867188 0-23.339844 10.46875-23.339844 23.335937 0 12.867188 10.472656 23.335938 23.339844 23.335938zm0-31.558594c4.535156 0 8.222656 3.6875 8.222656 8.222656s-3.6875 8.222656-8.222656 8.222656c-4.535157 0-8.222657-3.6875-8.222657-8.222656s3.6875-8.222656 8.222657-8.222656zm0 0"/><path d="m175.988281 305.363281c-7.828125 0-14.199219 6.367188-14.199219 14.195313v20.214844c0 7.828124 6.371094 14.1875 14.199219 14.1875h57.003907c7.839843 0 14.207031-6.359376 14.207031-14.1875v-20.214844c0-7.828125-6.367188-14.195313-14.207031-14.195313zm56.097657 33.484375h-55.179688v-18.371094h55.179688zm0 0"/><path d="m72.5 305.363281c-7.828125 0-14.195312 6.367188-14.195312 14.195313v20.214844c0 7.828124 6.367187 14.1875 14.195312 14.1875h57.015625c7.828125 0 14.195313-6.359376 14.195313-14.1875v-20.214844c0-7.828125-6.367188-14.195313-14.195313-14.195313zm56.097656 33.484375h-55.179687v-18.371094h55.179687zm0 0"/><path d="m488.292969 334.109375c-2.589844-3.273437-7.347657-3.820313-10.621094-1.230469-3.265625 2.589844-3.820313 7.347656-1.230469 10.613282 48.617188 61.375 5.113282 153.242187-74.183594 153.242187-49.859374 0-90.839843-38.761719-94.367187-87.746094-5.65625-79.488281 83.570313-129.492187 148.207031-84.601562 3.425782 2.386719 8.140625 1.53125 10.519532-1.894531 2.386718-3.425782 1.542968-8.132813-1.894532-10.511719-16.566406-11.515625-35.710937-18.148438-55.734375-19.355469v-244.085938c0-26.761718-21.773437-48.539062-48.546875-48.539062h-103.890625c-4.183593 0-7.558593 3.375-7.558593 7.558594 0 4.171875 3.375 7.554687 7.558593 7.554687h103.890625c18.429688 0 33.433594 14.996094 33.433594 33.425781v244.195313c-17.695312 1.339844-34.230469 6.894531-48.609375 15.679687-2.417969-1.914062-5.472656-3.050781-8.789063-3.050781h-57.003906c-7.828125 0-14.207031 6.367188-14.207031 14.195313v20.214844c0 7.828124 6.378906 14.1875 14.207031 14.1875h24.214844c-5.996094 12.210937-9.785156 25.683593-10.839844 39.914062h-244.296875c-18.441406 0-33.4375-15.003906-33.4375-33.433594v-311.902344c0-18.429687 14.996094-33.425781 33.4375-33.425781h177.769531c4.171876 0 7.558594-3.382812 7.558594-7.554687 0-4.183594-3.386718-7.558594-7.558594-7.558594h-177.769531c-26.773437 0-48.550781 21.777344-48.550781 48.539062v311.902344c0 26.761719 21.777344 48.546875 48.550781 48.546875h244.203125c3.539063 57.328125 51.300782 102.863281 109.503906 102.863281 91.917969 0 142.472657-106.511718 86.035157-177.742187zm-207.910157 4.738281v-18.371094h48.667969c-6.117187 5.480469-11.609375 11.648438-16.375 18.371094zm0 0"/><path d="m476.929688 397.960938c3.6875-1.960938 5.082031-6.539063 3.125-10.222657-32.84375-61.734375-120.695313-62.882812-155.46875-2.632812-2.085938 3.613281-.847657 8.234375 2.769531 10.324219 3.613281 2.082031 8.234375.847656 10.324219-2.769532 13.148437-22.785156 37.640624-36.9375 63.917968-36.9375 27.328125 0 52.277344 14.988282 65.113282 39.113282 1.957031 3.6875 6.535156 5.082031 10.21875 3.125zm0 0"/><path d="m459.003906 413.519531c3.734375-1.863281 5.253906-6.398437 3.390625-10.136719-24.726562-49.570312-94.683593-50.371093-120.8125-1.945312-1.980469 3.675781-.609375 8.257812 3.066407 10.242188 3.671874 1.984374 8.257812.609374 10.238281-3.0625 9.273437-17.195313 27.128906-27.875 46.597656-27.875 20.183594 0 38.339844 11.261718 47.382813 29.390624 1.867187 3.742188 6.40625 5.246094 10.136718 3.386719zm0 0"/><path d="m440.574219 429.5c3.789062-1.753906 5.4375-6.246094 3.6875-10.03125-16.511719-35.710938-67.410157-36.933594-85.132813-1.121094-1.851562 3.742188-.320312 8.273438 3.421875 10.125 3.742188 1.851563 8.273438.320313 10.125-3.421875 12.0625-24.367187 46.640625-23.523437 57.867188.757813 1.746093 3.777344 6.230469 5.445312 10.03125 3.691406zm0 0"/><path d="m401.429688 417.542969c-12.71875 0-23.0625 10.34375-23.0625 23.058593 0 12.71875 10.34375 23.0625 23.0625 23.0625 12.714843 0 23.0625-10.34375 23.0625-23.0625 0-12.714843-10.347657-23.058593-23.0625-23.058593zm0 31.007812c-4.382813 0-7.949219-3.566406-7.949219-7.949219 0-4.378906 3.566406-7.945312 7.949219-7.945312 4.382812 0 7.945312 3.566406 7.945312 7.945312 0 4.382813-3.5625 7.949219-7.945312 7.949219zm0 0"/></svg>