<svg height="512pt" viewBox="-28 0 512 512" width="512pt" xmlns="http://www.w3.org/2000/svg"><path d="m268.070312 31.667969v448.664062c0 13.320313-10.789062 24.109375-24.109374 24.109375h-212.292969c-13.308594 0-24.109375-10.789062-24.109375-24.109375v-448.664062c0-13.320313 10.800781-24.109375 24.109375-24.109375h212.292969c13.320312 0 24.109374 10.789062 24.109374 24.109375zm0 0" fill="#954c35"/><path d="m268.070312 31.667969v448.664062c0 13.320313-10.789062 24.109375-24.109374 24.109375h-170.792969c-13.320313 0-24.109375-10.789062-24.109375-24.109375v-448.664062c0-13.320313 10.789062-24.109375 24.109375-24.109375h170.792969c13.320312 0 24.109374 10.789062 24.109374 24.109375zm0 0" fill="#ae583e"/><path d="m223.960938 151.71875c0 38.890625-25.765626 71.757812-61.160157 82.46875-7.910156 2.386719-16.300781 3.675781-24.988281 3.675781-47.574219 0-86.144531-38.570312-86.144531-86.144531 0-47.578125 38.570312-86.148438 86.144531-86.148438 8.6875 0 17.078125 1.292969 24.988281 3.679688 35.394531 10.710938 61.160157 43.578125 61.160157 82.46875zm0 0" fill="#f29500"/><path d="m223.960938 151.71875c0 38.890625-25.765626 71.757812-61.160157 82.46875-35.394531-10.710938-61.160156-43.578125-61.160156-82.46875s25.765625-71.757812 61.160156-82.46875c35.394531 10.710938 61.160157 43.578125 61.160157 82.46875zm0 0" fill="#ffa90b"/><path d="m443.617188 152.132812c0 5.359376-1.167969 10.445313-3.265626 15.019532-1.800781 3.949218-4.300781 7.527344-7.332031 10.558594-6.550781 6.550781-15.597656 10.601562-25.582031 10.601562h-265.179688c-19.992187 0-36.183593-16.203125-36.183593-36.179688 0-9.988281 4.050781-19.035156 10.589843-25.582031 6.550782-6.550781 15.597657-10.601562 25.59375-10.601562h265.179688c19.976562 0 36.179688 16.203125 36.179688 36.183593zm0 0" fill="#c97e67"/><path d="m443.617188 152.132812c0 5.359376-1.167969 10.445313-3.265626 15.019532h-245.46875c-19.980468 0-36.183593-16.199219-36.183593-36.179688 0-5.359375 1.167969-10.449218 3.265625-15.023437h245.472656c19.976562 0 36.179688 16.203125 36.179688 36.183593zm0 0" fill="#d29380"/><path d="m178.519531 364.058594c-2.148437 10.902344-8.574219 20.273437-17.460937 26.289062-2.519532 1.703125-4.050782 4.523438-4.050782 7.554688v36.839844c0 4.996093-1.863281 9.660156-4.957031 13.207031-3.296875 3.777343-7.992187 6.265625-13.320312 6.519531-11.03125.511719-20.140625-8.273438-20.140625-19.195312v-37.371094c0-3.019532-1.511719-5.84375-4.019532-7.535156-10.054687-6.789063-15.6875-16.3125-17.550781-26.308594-4.363281-23.332032 11.828125-49.328125 40.339844-49.621094h.433594c4.925781 0 9.671875.878906 14.097656 2.5 15.34375 5.601562 26.660156 20.058594 27.382813 37.1875.152343 3.417969-.121094 6.742188-.753907 9.933594zm0 0" fill="#7c3f2c"/><path d="m178.519531 364.058594c-2.148437 10.902344-8.574219 20.273437-17.460937 26.289062-2.519532 1.703125-4.050782 4.523438-4.050782 7.554688v36.839844c0 4.996093-1.863281 9.660156-4.957031 13.207031-2.972656-3.375-4.777343-7.816407-4.777343-12.675781v-37.371094c0-3.019532-1.511719-5.84375-4.019532-7.535156-10.054687-6.789063-15.6875-16.3125-17.550781-26.308594-3.578125-19.132813 6.660156-40.046875 26.1875-47.121094 15.34375 5.601562 26.660156 20.058594 27.382813 37.1875.152343 3.417969-.121094 6.742188-.753907 9.933594zm0 0" fill="#954c35"/><path d="m451.171875 152.132812c0-24.121093-19.613281-43.738281-43.734375-43.738281h-69.773438c-4.171874 0-7.558593 3.382813-7.558593 7.554688s3.386719 7.558593 7.558593 7.558593h69.773438c15.785156 0 28.621094 12.835938 28.621094 28.625 0 15.777344-12.835938 28.621094-28.621094 28.621094-88.246094 0-176.765625 0-265.179688 0-15.789062 0-28.625-12.84375-28.625-28.621094 0-15.789062 12.835938-28.625 28.625-28.625h165.179688c4.179688 0 7.554688-3.386718 7.554688-7.558593s-3.375-7.554688-7.554688-7.554688h-31.808594v-76.726562c0-17.460938-14.207031-31.667969-31.667968-31.667969h-212.292969c-17.460938 0-31.667969 14.207031-31.667969 31.667969v448.664062c0 17.460938 14.207031 31.667969 31.667969 31.667969h153.066406c4.171875 0 7.558594-3.386719 7.558594-7.558594 0-4.167968-3.386719-7.554687-7.558594-7.554687h-153.066406c-9.128907 0-16.554688-7.425781-16.554688-16.554688v-448.664062c0-9.128907 7.425781-16.554688 16.554688-16.554688h212.292969c9.128906 0 16.554687 7.425781 16.554687 16.554688v76.726562h-39.640625c-15.65625-29.914062-47.011719-50.378906-83.0625-50.378906-51.667969 0-93.703125 42.035156-93.703125 93.703125s42.035156 93.703125 93.703125 93.703125c35.71875 0 66.820312-20.082031 82.628906-49.554687h40.074219v284.464843c0 9.128907-7.425781 16.554688-16.554687 16.554688h-29c-4.179688 0-7.554688 3.386719-7.554688 7.554687 0 4.171875 3.375 7.558594 7.554688 7.558594h29c17.460937 0 31.667968-14.207031 31.667968-31.667969v-284.464843h131.808594c24.121094 0 43.734375-19.625 43.734375-43.734376zm-313.359375 78.175782c-43.332031 0-78.589844-35.253906-78.589844-78.589844s35.257813-78.589844 78.589844-78.589844c27.335938 0 51.457031 14.023438 65.53125 35.265625h-61.085938c-24.121093 0-43.738281 19.617188-43.738281 43.738281 0 24.109376 19.617188 43.734376 43.738281 43.734376h60.53125c-14.15625 20.777343-37.992187 34.441406-64.976562 34.441406zm0 0"/><path d="m165.292969 396.605469c13.035156-8.820313 21.578125-23.894531 21.578125-40.636719 0-27.152344-22.644532-49.085938-49.078125-49.085938h-.511719c-35.320312.359376-56.332031 35.449219-45.835938 65.546876 1.371094 3.941406 5.679688 6.023437 9.621094 4.652343 3.941406-1.375 6.023438-5.683593 4.648438-9.625-6.898438-19.792969 5.875-45.195312 31.644531-45.460937h.433594c17.949219 0 33.171875 14.558594 33.933593 32.46875.539063 11.996094-5.335937 23.148437-14.898437 29.621094-4.621094 3.125-7.378906 8.289062-7.378906 13.816406v36.839844c0 6.429687-4.964844 11.890624-11.070313 12.175781-6.679687.324219-12.234375-5.023438-12.234375-11.644531-.71875-35.855469 1.753907-39.324219-2.527343-46.175782-2.210938-3.539062-6.871094-4.617187-10.410157-2.40625-3.539062 2.210938-4.617187 6.875-2.40625 10.414063.460938.738281.101563-1.261719.230469 38.167969 0 15.164062 12.695312 27.464843 28.050781 26.742187 14.289063-.667969 25.480469-12.648437 25.480469-27.273437.277344-38.207032-.65625-37.199219.730469-38.136719zm0 0"/><path d="m383.964844 238.832031c-3.613282-2.082031-8.234375-.847656-10.320313 2.769531-2.085937 3.613282-.847656 8.234376 2.765625 10.324219 86.925782 50.160157 85.183594 176.820313-3.785156 224.144531-3.683594 1.960938-5.082031 6.539063-3.121094 10.222657 1.960938 3.683593 6.535156 5.082031 10.222656 3.121093 99.503907-52.933593 101.347657-194.539062 4.238282-250.582031zm0 0"/><path d="m356.835938 267.265625c-3.671876-1.980469-8.253907-.609375-10.238282 3.066406-1.980468 3.671875-.609375 8.253907 3.0625 10.238281 66.546875 35.898438 65.339844 131.867188-2.671875 165.792969-3.734375 1.863281-5.253906 6.402344-3.390625 10.132813 1.867188 3.742187 6.410156 5.25 10.136719 3.390625 78.558594-39.183594 80.777344-150.71875 3.101563-192.621094zm0 0"/><path d="m328.78125 296.625c-3.742188-1.851562-8.277344-.320312-10.125 3.421875-1.851562 3.738281-.320312 8.273437 3.417969 10.125 44.492187 22.019531 42.953125 85.171875-1.382813 105.675781-3.789062 1.75-5.4375 6.242188-3.6875 10.03125 1.742188 3.765625 6.226563 5.445313 10.03125 3.6875 55.761719-25.789062 57.679688-105.257812 1.746094-132.941406zm0 0"/></svg>