<svg height="512pt" viewBox="-18 0 512 512.00011" width="512pt" xmlns="http://www.w3.org/2000/svg"><path d="m463.992188 504.4375h-415.402344c-2.785156 0-5.042969-2.257812-5.042969-5.042969v-411.84375c0-12.3125 9.980469-22.296875 22.292969-22.296875h380.898437c12.316407 0 22.296875 9.984375 22.296875 22.296875v411.84375c0 2.785157-2.257812 5.042969-5.042968 5.042969zm0 0" fill="#a2abb8"/><path d="m216.546875 443.203125v32.171875c0 8.007812-3.25 15.265625-8.5 20.519531-2.84375 2.84375-6 4.929688-9.308594 6.324219-17.945312 7.589844-40.269531-5.054688-40.269531-26.84375v-32.171875zm0 0" fill="#4e5a61"/><path d="m354.113281 443.203125v32.171875c0 8.007812-3.246093 15.265625-8.5 20.519531-2.84375 2.84375-6 4.929688-9.304687 6.324219-17.949219 7.589844-40.273438-5.054688-40.273438-26.84375v-32.171875zm0 0" fill="#4e5a61"/><path d="m216.546875 443.203125v32.171875c0 8.007812-3.25 15.265625-8.5 20.519531-2.84375 2.84375-6 4.929688-9.308594 6.324219-10.171875-4.15625-18.066406-13.875-18.066406-26.84375v-32.171875zm0 0" fill="#5f6c75"/><path d="m354.113281 443.203125v32.171875c0 8.007812-3.246093 15.265625-8.5 20.519531-2.84375 2.84375-6 4.929688-9.304687 6.324219-10.175782-4.15625-18.070313-13.875-18.070313-26.84375v-32.171875zm0 0" fill="#5f6c75"/><path d="m395.804688 397.195312v54.992188h-279.03125v-54.992188c0-23.398437 18.972656-42.378906 42.382812-42.378906h194.265625c23.410156 0 42.382813 18.980469 42.382813 42.378906zm0 0" fill="#f44545"/><path d="m408.328125 446.320312v.046876c0 .152343 0 .3125-.011719.464843-.109375 4.246094-1.882812 8.085938-4.699218 10.890625-2.902344 2.902344-6.90625 4.699219-11.339844 4.699219h-271.972656c-8.871094 0-16.050782-7.191406-16.050782-16.054687 0-4.433594 1.796875-8.4375 4.699219-11.351563 2.632813-2.632813 6.191406-4.355469 10.121094-4.648437.253906-.019532.515625-.03125.769531-.039063.148438-.011719.3125-.011719.460938-.011719h271.972656c8.839844 0 16.019531 7.148438 16.050781 16.003906zm0 0" fill="#c42d2d"/><path d="m408.328125 446.320312c-.414063.027344-.828125.046876-1.242187.046876h-271.957032c-8.855468 0-16.023437-7.15625-16.054687-16 .253906-.019532.515625-.03125.769531-.039063.148438-.011719.3125-.011719.460938-.011719h271.972656c8.839844 0 16.019531 7.148438 16.050781 16.003906zm0 0" fill="#d63030"/><path d="m187.507812 391.8125v12.269531c0 4.46875-3.652343 8.105469-8.105468 8.105469h-28.6875c-4.464844 0-8.105469-3.636719-8.105469-8.105469v-12.269531c0-4.457031 3.640625-8.105469 8.105469-8.105469h28.6875c4.453125 0 8.105468 3.648438 8.105468 8.105469zm0 0" fill="#c2eaf2"/><path d="m369.972656 391.8125v12.269531c0 4.46875-3.648437 8.105469-8.105468 8.105469h-28.6875c-4.464844 0-8.105469-3.636719-8.105469-8.105469v-12.269531c0-4.457031 3.640625-8.105469 8.105469-8.105469h28.6875c4.457031 0 8.105468 3.648438 8.105468 8.105469zm0 0" fill="#c2eaf2"/><path d="m187.507812 391.8125v5.332031h-21.75c-4.457031 0-8.105468-3.648437-8.105468-8.105469v-5.332031h21.75c4.453125 0 8.105468 3.648438 8.105468 8.105469zm0 0" fill="#def4f8"/><path d="m369.972656 391.8125v5.332031h-21.75c-4.453125 0-8.105468-3.648437-8.105468-8.105469v-5.332031h21.75c4.457031 0 8.105468 3.648438 8.105468 8.105469zm0 0" fill="#def4f8"/><path d="m425.667969 128.261719v251.59375c0 6.964843-5.636719 12.601562-12.601563 12.601562h-313.550781c-6.96875 0-12.601563-5.636719-12.601563-12.601562v-251.59375c0-6.957031 5.632813-12.59375 12.601563-12.59375h313.550781c6.964844 0 12.601563 5.636719 12.601563 12.59375zm0 0" fill="#4e5a61"/><g fill="#5f6c75"><path d="m425.667969 128.261719v39.945312h-338.753907v-39.945312c0-6.957031 5.632813-12.59375 12.601563-12.59375h313.550781c6.964844 0 12.601563 5.636719 12.601563 12.59375zm0 0"/><path d="m86.914062 224.269531h338.753907v56.058594h-338.753907zm0 0"/><path d="m425.667969 336.398438v43.457031c0 6.964843-5.636719 12.601562-12.601563 12.601562h-313.550781c-6.96875 0-12.601563-5.636719-12.601563-12.601562v-43.457031zm0 0"/></g><path d="m193.679688 347.835938c0 11.644531-9.441407 21.085937-21.085938 21.085937h-143.960938c-11.648437 0-21.085937-9.441406-21.085937-21.085937v-319.191407c0-11.644531 9.4375-21.085937 21.085937-21.085937h143.960938c11.648438 0 21.085938 9.441406 21.085938 21.085937zm0 0" fill="#60c8dd"/><path d="m94.300781 7.5625h-59.292969l9.414063 40.75c.640625 2.777344 3.113281 4.742188 5.964844 4.742188h100.449219c2.851562 0 5.328124-1.964844 5.96875-4.742188l9.410156-40.75zm0 0" fill="#2cb3cd"/><path d="m170.730469 83.746094v251.257812c0 2.78125-2.257813 5.042969-5.042969 5.042969h-130.144531c-2.785157 0-5.042969-2.261719-5.042969-5.042969v-251.257812c0-2.785156 2.257812-5.042969 5.042969-5.042969h130.144531c2.785156 0 5.042969 2.257813 5.042969 5.042969zm0 0" fill="#c2eaf2"/><path d="m170.730469 83.746094v251.257812c0 2.78125-2.257813 5.042969-5.042969 5.042969h-107.175781c-2.785157 0-5.042969-2.261719-5.042969-5.042969v-251.257812c0-2.785156 2.257812-5.042969 5.042969-5.042969h107.175781c2.785156 0 5.042969 2.257813 5.042969 5.042969zm0 0" fill="#def4f8"/><path d="m116.523438 255.960938h-31.820313c-2.78125 0-5.039063-2.257813-5.039063-5.042969v-95.546875l20.949219-19.300782 20.953125 19.300782v95.546875c-.003906 2.785156-2.261718 5.042969-5.042968 5.042969zm0 0" fill="#1ab975"/><path d="m446.742188 57.691406h-245.480469v-29.046875c0-15.800781-12.847657-28.644531-28.648438-28.644531-28.058593 0-115.894531 0-143.957031 0-15.800781 0-28.65625 12.84375-28.65625 28.644531v319.1875c0 15.796875 12.855469 28.652344 28.65625 28.652344h7.328125v127.949219c0 4.175781 3.386719 7.5625 7.5625 7.5625 85.910156 0 86.535156.007812 425.488281 0 4.175782 0 7.5625-3.386719 7.5625-7.5625v-416.886719c0-16.464844-13.390625-29.855469-29.855468-29.855469zm-290.015626-42.566406-7.011718 30.367188h-98.164063l-7.015625-30.367188zm-128.070312 346.238281c-7.460938 0-13.53125-6.070312-13.53125-13.53125v-319.1875c0-7.460937 6.070312-13.519531 13.53125-13.519531h.359375l8.058594 34.886719c1.441406 6.246093 6.921875 10.605469 13.332031 10.605469h100.453125c6.40625 0 11.890625-4.359376 13.332031-10.605469l8.058594-34.886719h.363281c7.453125 0 13.523438 6.058594 13.523438 13.519531v319.1875c0 7.460938-6.070313 13.53125-13.523438 13.53125-17.355469 0-127.976562 0-143.957031 0zm50.695312 135.507813h-28.242187v-120.386719h28.242187zm15.121094 0v-96.851563h14.742188v25.5c-21.789063 11.589844-13.222656 44.464844 11.089844 44.464844h30.601562c.324219 2.738281-1.84375 14.910156 6.867188 26.886719zm56.242188-77.121094h28.6875c8.640625 0 15.667968-7.027344 15.667968-15.667969v-4.0625h122.441407v4.0625c0 8.640625 7.027343 15.667969 15.667969 15.667969h28.6875c8.640624 0 15.667968-7.027344 15.667968-15.667969v-4.0625h10.707032v22.734375h-263.902344v-22.734375h10.707031v4.0625c0 8.640625 7.027344 15.667969 15.667969 15.667969zm28.6875-15.125c-28.878906-.257812-29.230469.535156-29.230469-.542969v-4.0625h29.773437c-.175781 3.117188.40625 4.605469-.542968 4.605469zm182.464844 0c-28.882813-.257812-29.230469.535156-29.230469-.542969v-4.0625h29.773437c-.175781 3.117188.40625 4.605469-.542968 4.605469zm30.410156 33.253906c7.550781 0 11.320312 9.167969 5.996094 14.488282-1.601563 1.613281-3.730469 2.492187-5.996094 2.492187-55.476563 0-216.746094 0-271.972656 0-4.675782 0-8.488282-3.8125-8.488282-8.492187 0-4.675782 3.769532-8.363282 8.226563-8.488282zm-189.585938 52.671875c-7.460937 7.460938-16.96875 7.28125-23.390625 4.628907-16.300781-6.765626-12.832031-23.753907-13.269531-25.195313h42.953125c-.398437 2.929687 1.914063 12.359375-6.292969 20.566406zm14.4375 6.320313c8.847656-12.136719 6.652344-24.144532 6.976563-26.886719h64.371093c.320313 2.738281-1.84375 14.910156 6.863282 26.886719zm123.128906-6.320313c-7.460937 7.460938-16.976562 7.28125-23.390624 4.628907-16.300782-6.765626-12.828126-23.753907-13.269532-25.195313h42.953125c-.398437 2.929687 1.914063 12.359375-6.292969 20.566406zm77.847657 6.320313h-63.40625c8.847656-12.136719 6.652343-24.144532 6.976562-26.886719h30.601563c6.300781 0 12.238281-2.453125 16.695312-6.917969 11.175782-11.175781 8.453125-30.042968-5.605468-37.539062v-25.507813h14.738281zm0-111.976563c-66.546875 0-257.195313 0-323.632813 0v-8.410156h78.140625c15.691407 0 28.648438-12.757813 28.648438-28.652344v-3.871093h216.84375zm0-112.128906h-119.457031c-4.175782 0-7.5625 3.386719-7.5625 7.5625 0 4.183594 3.386718 7.5625 7.5625 7.5625h119.457031v40.945313h-216.84375v-40.945313h67.136719c4.175781 0 7.5625-3.378906 7.5625-7.5625 0-4.175781-3.386719-7.5625-7.5625-7.5625h-67.136719v-40.933594h216.84375zm0-112.117187h-48.878907c-4.175781 0-7.5625 3.386718-7.5625 7.558593 0 4.175781 3.386719 7.5625 7.5625 7.5625h48.878907v40.9375h-216.84375v-40.9375h137.71875c4.171875 0 7.558593-3.386719 7.558593-7.5625 0-4.171875-3.386718-7.558593-7.558593-7.558593h-137.71875v-37.417969h216.84375zm43.367187 336.222656h-28.242187v-381.203125c0-4.175781-3.386719-7.5625-7.5625-7.5625h-224.40625v-35.289063h245.480469c8.117187 0 14.730468 6.613282 14.730468 14.730469zm0 0"/><path d="m63.753906 37.417969h46.800782c4.175781 0 7.5625-3.382813 7.5625-7.558594 0-4.179687-3.386719-7.5625-7.5625-7.5625h-46.800782c-4.175781 0-7.558594 3.382813-7.558594 7.5625 0 4.175781 3.382813 7.558594 7.558594 7.558594zm0 0"/><path d="m137.507812 29.859375c0 3.835937-3.113281 6.949219-6.949218 6.949219-3.839844 0-6.953125-3.113282-6.953125-6.949219 0-3.839844 3.113281-6.953125 6.953125-6.953125 3.835937 0 6.949218 3.113281 6.949218 6.953125zm0 0"/><path d="m178.308594 339.070312v-259.390624c0-4.707032-3.828125-8.535157-8.535156-8.535157h-138.285157c-4.703125 0-8.53125 3.828125-8.53125 8.535157v259.390624c0 4.707032 3.828125 8.53125 8.53125 8.53125h138.285157c4.707031 0 8.535156-3.824218 8.535156-8.53125zm-15.125-6.589843h-125.101563v-246.210938h125.101563zm0 0"/><path d="m50.472656 290.238281h100.320313c4.175781 0 7.5625-3.382812 7.5625-7.558593 0-4.175782-3.386719-7.5625-7.5625-7.5625h-100.320313c-4.179687 0-7.5625 3.386718-7.5625 7.5625 0 4.175781 3.382813 7.558593 7.5625 7.558593zm0 0"/><path d="m72.101562 170.257812v85.703126c0 4.175781 3.382813 7.5625 7.558594 7.5625h41.902344c4.175781 0 7.5625-3.386719 7.5625-7.5625v-17.734376c0-4.175781-3.386719-7.5625-7.5625-7.5625s-7.5625 3.386719-7.5625 7.5625v10.171876h-26.777344v-89.710938l13.390625-12.335938 13.386719 12.335938v49.289062c0 4.175782 3.386719 7.5625 7.5625 7.5625s7.5625-3.386718 7.5625-7.5625v-37.722656c7.125.484375 10.875-8.296875 5.628906-13.109375-26.875-24.667969-29.175781-26.753906-29.25-26.828125-2.960937-2.519531-7.246094-2.351562-10.007812.1875l-28.992188 26.640625c-5.246094 4.820313-1.488281 13.558594 5.597656 13.113281zm0 0"/></svg>