<svg height="496pt" viewBox="0 0 496 496" width="496pt" xmlns="http://www.w3.org/2000/svg"><path d="m272 264h24v32h-32v-32zm0 0" fill="#fcd770"/><path d="m312 264h16v32h-32v-32zm0 0" fill="#fcd770"/><path d="m200 264v32h-32v-32zm0 0" fill="#fcd770"/><path d="m232 264v32h-32v-32zm0 0" fill="#fcd770"/><path d="m232 264h32v32h-32zm0 0" fill="#fcd770"/><g fill="#ccd1d9"><path d="m272 64v8h-48v-8c0-13.28125 10.71875-24 24-24 6.640625 0 12.640625 2.71875 16.960938 7.039062 4.320312 4.320313 7.039062 10.320313 7.039062 16.960938zm0 0"/><path d="m264 152v32h-32v-32zm0 0"/><path d="m232 152v32h-32v-32zm0 0"/><path d="m296 152v32h-32v-32zm0 0"/><path d="m344 296v32h-192v-32zm0 0"/><path d="m400 456v32h-88v-32zm0 0"/><path d="m184 456v32h-88v-32zm0 0"/></g><path d="m408 448h-18.121094l-37.878906-121.222656v-38.777344h-16v-32h-17.441406l-14.558594-72.792969v-39.207031h-16.761719l-7.238281-72.40625v-7.59375c0-14.863281-10.238281-27.289062-24-30.863281v-33.136719h-16v33.136719c-13.761719 3.574219-24 16-24 30.863281v7.59375l-7.238281 72.40625h-16.761719v39.207031l-14.558594 72.792969h-17.441406v32h-16v38.777344l-37.878906 121.222656h-18.121094v32h-56v16h432v-16h-56zm-16 32h-72v-16h72zm-73.230469-77c-1.183593-3.550781-2.640625-6.953125-4.296875-10.214844l39.382813 11.734375-23.328125 33.753907zm-94.769531-29.710938v10.710938h-16.136719c4.730469-4.457031 10.191407-8.039062 16.136719-10.710938zm16-4.65625c2.632812-.359374 5.289062-.632812 8-.632812s5.367188.273438 8 .632812v15.367188h-16zm32 4.65625c5.945312 2.671876 11.40625 6.253907 16.136719 10.710938h-16.136719zm36.886719 1.136719 31.417969-31.417969 14.054687 44.96875zm-13.511719-9.113281-17.34375-29.3125h46.65625zm-35.933594-29.3125 11.621094 19.640625c-7.308594-2.367187-15.070312-3.640625-23.0625-3.640625-7.953125 0-15.679688 1.265625-22.960938 3.609375l11.535157-19.609375zm-58.714844 29.414062-29.414062-29.414062h46.703125zm-13.511718 9.113282-45.589844 13.511718 14.070312-45.03125zm-5.75 18.394531c-1.625 3.222656-3.066406 6.574219-4.234375 10.078125l-11.742188 35.246094-23.222656-33.710938zm10.941406 15.140625c.9375-2.804688 2.105469-5.488281 3.417969-8.0625h104.34375c1.3125 2.574219 2.480469 5.257812 3.417969 8.0625l13.308593 39.9375h-12.894531v32h-112v-32h-12.894531zm150.851562 39.9375 20.566407-29.753906 9.296875 29.753906zm-23.257812-160h-16v-16h16zm-88.632812-144 16.632812-23.769531 16.632812 23.769531zm26.402343-37.710938 8.421875-12.03125 2.808594 28.0625zm-9.769531-13.953124-8.632812-12.335938h17.273437zm-9.769531 13.953124-11.222657 16.039063 2.808594-28.0625zm17.769531 53.710938v16h-16v-16zm-57.574219 96 21.941407-14.632812-2.925782 14.632812zm35.335938 0 12.796875-64h2.890625l12.796875 64zm44.796875 0-2.925782-14.632812 21.941407 14.632812zm-2-33.238281 15.867187-15.867188 6.101563 30.511719zm-7.648438-14.984375-3.148437-15.777344h18.925781zm-38.671875-15.777344-3.148437 15.777344-15.777344-15.777344zm-26.664062 14.894531 15.867187 15.867188-21.96875 14.644531zm20.425781 65.105469v16h-16v-16zm16 0h16v16h-16zm32 0h16v16h-16zm16-96h-16v-16h16zm-40-128c8.824219 0 16 7.175781 16 16h-32c0-8.824219 7.175781-16 16-16zm-40 112h16v16h-16zm-32 112h16v16h-16zm-16 32h176v16h-176zm-27.792969 114.152344 20.570313 29.847656h-29.898438zm-28.207031 45.847656h72v16h-72zm0 0"/><path d="m0 480h16v16h-16zm0 0"/><path d="m480 480h16v16h-16zm0 0"/></svg>