<svg height="496pt" viewBox="-8 0 496 496" width="496pt" xmlns="http://www.w3.org/2000/svg"><path d="m456 40v264h-64v-264c0-17.679688 14.320312-32 32-32 8.800781 0 16.800781 3.601562 22.640625 9.359375 5.757813 5.839844 9.359375 13.839844 9.359375 22.640625zm0 0" fill="#b4dd7f"/><path d="m456 304v32h-64v-32zm0 0" fill="#fcd770"/><path d="m408 336h32v32h-32zm0 0" fill="#e6e9ed"/><path d="m472 425.359375c0 9.679687-2.238281 18.960937-6.480469 27.441406-4.160156 8.320313-10.320312 15.839844-18 21.597657l-7.519531 5.601562-1.839844-7.441406c-3.839844-15.277344-15.199218-27.597656-30.160156-32.558594v32l-10.960938-8.238281c-13.277343-9.921875-21.039062-25.523438-21.039062-42 0-13.921875 5.519531-27.28125 15.359375-37.121094l16.640625-16.640625h32l14.078125 14.078125c11.441406 11.441406 17.921875 27.042969 17.921875 43.28125zm0 0" fill="#b4dd7f"/><path d="m344 284.960938v8.960937c0 49.199219-6.398438 98.15625-19.121094 145.679687-3.757812 14.320313-12.160156 26.398438-23.277344 34.878907-11.121093 8.558593-24.960937 13.519531-39.761718 13.519531-23.359375 0-45.039063-12.558594-56.640625-32.878906l-5.277344-9.199219c-4.882813-8.640625-14-13.921875-23.921875-13.921875s-19.039062 5.28125-23.921875 13.921875l-5.277344 9.199219c-5.839843 10.160156-14.160156 18.398437-23.921875 24.078125-9.757812 5.679687-21.039062 8.800781-32.71875 8.800781-14.800781 0-28.640625-4.960938-39.761718-13.519531-11.117188-8.480469-19.519532-20.558594-23.277344-34.878907-12.722656-47.523437-19.121094-96.480468-19.121094-145.679687v-8.960937c0-40.242188 8-80.082032 23.679688-117.121094 12.160156-29.039063 32.480468-52.960938 57.679687-69.679688 25.121094-16.71875 55.121094-26.160156 86.640625-26.160156s61.519531 9.441406 86.640625 26.160156c25.199219 16.71875 45.519531 40.640625 57.679687 69.679688 15.679688 37.039062 23.679688 76.878906 23.679688 117.121094zm0 0" fill="#dfb28b"/><g fill="#b27946"><path d="m312 320c0 17.671875-14.328125 32-32 32s-32-14.328125-32-32 14.328125-32 32-32 32 14.328125 32 32zm0 0"/><path d="m296 208c0 17.671875-14.328125 32-32 32s-32-14.328125-32-32 14.328125-32 32-32 32 14.328125 32 32zm0 0"/><path d="m208 136c0 17.671875-14.328125 32-32 32s-32-14.328125-32-32 14.328125-32 32-32 32 14.328125 32 32zm0 0"/><path d="m120 208c0 17.671875-14.328125 32-32 32s-32-14.328125-32-32 14.328125-32 32-32 32 14.328125 32 32zm0 0"/><path d="m120 424c0 17.671875-14.328125 32-32 32s-32-14.328125-32-32 14.328125-32 32-32 32 14.328125 32 32zm0 0"/><path d="m104 320c0 17.671875-14.328125 32-32 32s-32-14.328125-32-32 14.328125-32 32-32 32 14.328125 32 32zm0 0"/></g><path d="m176 64c-66.40625 0-125.96875 39.542969-151.734375 100.742188-16.097656 38.257812-24.265625 78.691406-24.265625 120.179687v9.015625c0 49.839844 6.511719 99.527344 19.359375 147.6875 8.527344 32.015625 37.640625 54.375 70.777344 54.375 26.214843 0 50.589843-14.144531 63.597656-36.902344l5.273437-9.234375c3.480469-6.078125 9.984376-9.863281 16.992188-9.863281s13.511719 3.785156 16.992188 9.855469l5.273437 9.234375c13.007813 22.765625 37.382813 36.910156 63.597656 36.910156 33.136719 0 62.242188-22.359375 70.777344-54.375 12.839844-48.160156 19.359375-97.839844 19.359375-147.6875v-9.015625c0-41.496094-8.167969-81.929687-24.265625-120.179687-25.765625-61.199219-85.328125-100.742188-151.734375-100.742188zm160 229.9375c0 48.453125-6.328125 96.757812-18.816406 143.558594-6.679688 25.023437-29.414063 42.503906-55.320313 42.503906-20.496093 0-39.535156-11.054688-49.710937-28.839844l-5.273438-9.238281c-6.3125-11.058594-18.144531-17.921875-30.878906-17.921875s-24.566406 6.863281-30.878906 17.921875l-5.273438 9.230469c-10.175781 17.792968-29.222656 28.847656-49.710937 28.847656-25.898438 0-48.640625-17.480469-55.320313-42.496094-12.488281-46.808594-18.816406-95.113281-18.816406-143.566406v-9.015625c0-39.347656 7.742188-77.691406 23.015625-113.96875 23.257813-55.25 77.03125-90.953125 136.984375-90.953125s113.726562 35.703125 136.984375 90.960938c15.273437 36.269531 23.015625 74.613281 23.015625 113.960937zm0 0"/><path d="m176 96c-22.054688 0-40 17.945312-40 40s17.945312 40 40 40 40-17.945312 40-40-17.945312-40-40-40zm0 64c-13.230469 0-24-10.769531-24-24s10.769531-24 24-24 24 10.769531 24 24-10.769531 24-24 24zm0 0"/><path d="m88 168c-22.054688 0-40 17.945312-40 40s17.945312 40 40 40 40-17.945312 40-40-17.945312-40-40-40zm0 64c-13.230469 0-24-10.769531-24-24s10.769531-24 24-24 24 10.769531 24 24-10.769531 24-24 24zm0 0"/><path d="m112 320c0-22.054688-17.945312-40-40-40s-40 17.945312-40 40 17.945312 40 40 40 40-17.945312 40-40zm-64 0c0-13.230469 10.769531-24 24-24s24 10.769531 24 24-10.769531 24-24 24-24-10.769531-24-24zm0 0"/><path d="m304 208c0-22.054688-17.945312-40-40-40s-40 17.945312-40 40 17.945312 40 40 40 40-17.945312 40-40zm-64 0c0-13.230469 10.769531-24 24-24s24 10.769531 24 24-10.769531 24-24 24-24-10.769531-24-24zm0 0"/><path d="m280 280c-22.054688 0-40 17.945312-40 40s17.945312 40 40 40 40-17.945312 40-40-17.945312-40-40-40zm0 64c-13.230469 0-24-10.769531-24-24s10.769531-24 24-24 24 10.769531 24 24-10.769531 24-24 24zm0 0"/><path d="m88 384c-22.054688 0-40 17.945312-40 40s17.945312 40 40 40 40-17.945312 40-40-17.945312-40-40-40zm0 64c-13.230469 0-24-10.769531-24-24s10.769531-24 24-24 24 10.769531 24 24-10.769531 24-24 24zm0 0"/><path d="m459.71875 376.40625-11.71875-11.71875v-20.6875h16v-304c0-22.054688-17.945312-40-40-40s-40 17.945312-40 40v304h16v20.6875l-14.28125 14.28125c-11.429688 11.421875-17.71875 26.617188-17.71875 42.785156 0 18.941406 9.046875 37.03125 24.199219 48.398438l23.800781 17.847656v-34.976562c7.054688 5.167968 12.175781 12.679687 14.375 21.464843l4.792969 19.144531 17.144531-12.847656c17.335938-13.023437 27.6875-33.730468 27.6875-55.410156 0-18.503906-7.199219-35.886719-20.28125-48.96875zm-59.71875-48.40625v-16h48v16zm24-312c13.230469 0 24 10.769531 24 24v256h-48v-256c0-13.230469 10.769531-24 24-24zm8 328v16h-16v-16zm12.671875 122.425781c-5.390625-16.050781-17.886719-28.59375-34.144531-34.011719l-10.527344-3.519531v27.027344c-10.0625-8.402344-16-21.011719-16-34.167969 0-11.890625 4.625-23.066406 13.03125-31.472656l14.28125-14.28125h25.375l11.71875 11.71875c10.058594 10.058594 15.59375 23.433594 15.59375 37.65625 0 15.824219-7.175781 30.992188-19.328125 41.050781zm0 0"/><path d="m416 32h16v16h-16zm0 0"/></svg>