<svg height="495pt" viewBox="-79 0 495 495.76" width="495pt" xmlns="http://www.w3.org/2000/svg"><path d="m283.660156 404.480469c2.960938 2.878906 4.71875 6.878906 4.71875 11.28125 0 8.796875-7.199218 16-16 16h-32c-4.398437 0-8.398437-1.761719-11.277344-4.722657-2.960937-2.878906-4.722656-6.878906-4.722656-11.277343 0-8.800781 7.199219-16 16-16h32c4.402344 0 8.402344 1.757812 11.28125 4.71875zm0 0" fill="#fcd770"/><path d="m96.378906 399.761719c8.800782 0 16 7.199219 16 16 0 4.398437-1.757812 8.398437-4.71875 11.277343-2.878906 2.960938-6.878906 4.722657-11.28125 4.722657h-32c-8.800781 0-16-7.203125-16-16 0-4.402344 1.761719-8.402344 4.722656-11.28125 2.878907-2.960938 6.878907-4.71875 11.277344-4.71875zm0 0" fill="#fcd770"/><path d="m328.378906 396.640625v59.121094h-56v-24c8.800782 0 16-7.203125 16-16 0-4.402344-1.757812-8.402344-4.71875-11.28125-2.878906-2.960938-6.878906-4.71875-11.28125-4.71875v-54.960938l20.402344 5.4375c20.957031 5.601563 35.597656 24.640625 35.597656 46.402344zm0 0" fill="#e6e9ed"/><path d="m240.378906 336.320312v63.441407c-8.800781 0-16 7.199219-16 16h-112c0-8.800781-7.199218-16-16-16v-63.441407l32-8.558593s8 32 40 32 40-32 40-32zm0 0" fill="#e6e9ed"/><path d="m64.378906 431.761719v24h-56v-59.121094c0-21.761719 14.640625-40.800781 35.601563-46.402344l20.398437-5.4375v54.960938c-4.398437 0-8.398437 1.757812-11.277344 4.71875-2.960937 2.878906-4.722656 6.878906-4.722656 11.28125 0 8.796875 7.199219 16 16 16zm0 0" fill="#e6e9ed"/><path d="m272.378906 344.800781v54.960938h-32v-63.441407zm0 0" fill="#3bafda"/><path d="m272.378906 455.761719v32h-208v-56h32c4.402344 0 8.402344-1.761719 11.28125-4.722657 2.960938-2.878906 4.71875-6.878906 4.71875-11.277343h112c0 4.398437 1.761719 8.398437 4.722656 11.277343 2.878907 2.960938 6.878907 4.722657 11.277344 4.722657h32zm0 0" fill="#3bafda"/><path d="m96.378906 336.320312v63.441407h-32v-54.960938zm0 0" fill="#3bafda"/><path d="m272.378906 455.761719h56v32h-56zm0 0" fill="#f0d0b4"/><path d="m8.378906 455.761719h56v32h-56zm0 0" fill="#f0d0b4"/><path d="m128.378906 307.601562c30.800782 11.679688 35.359375 12.160157 40 12.160157 14.800782 0 28.5625-4.480469 40-12.160157v20.160157s-8 32-40 32-40-32-40-32zm0 0" fill="#f0d0b4"/><path d="m272.378906 135.761719v24h-208v-24zm0 0" fill="#e6e9ed"/><path d="m288.378906 105.28125c0 9.277344-3.679687 18.160156-10.238281 24.71875l-5.761719 5.761719s-200 0-208 0l-5.757812-5.761719c-6.5625-6.558594-10.242188-15.441406-10.242188-24.71875 0-11.042969 5.199219-21.441406 14-28l5.199219-3.921875c14.5625-10.878906 30.722656-19.359375 47.683594-24.960937 17.039062-5.679688 34.957031-8.636719 53.117187-8.636719 36.320313 0 71.679688 11.757812 100.800782 33.597656l5.199218 3.921875c8.800782 6.558594 14 16.957031 14 28zm0 0" fill="#ef7385"/><path d="m96.378906 191.761719v56c0 2.636719.160156 5.277343.480469 7.917969l-.480469.082031c-17.679687 0-32-14.320313-32-32 0-17.683594 14.320313-32 32-32zm0 0" fill="#f0d0b4"/><path d="m272.378906 223.761719c0 17.679687-14.320312 32-32 32l-.480468-.082031c.320312-2.640626.480468-5.28125.480468-7.917969v-56c17.679688 0 32 14.316406 32 32zm0 0" fill="#f0d0b4"/><path d="m102.460938 183.761719c21.679687 0 42.558593-8.640625 57.917968-24h80v88c0 2.636719-.160156 5.277343-.480468 7.917969-2.320313 21.679687-14.320313 40.398437-31.519532 51.921874-11.4375 7.679688-25.199218 12.160157-40 12.160157-4.640625 0-9.199218-.480469-40-12.160157-3.917968-2.640624-7.597656-5.601562-10.878906-8.960937-11.28125-11.199219-18.878906-26.242187-20.640625-42.960937-.320313-2.640626-.480469-5.28125-.480469-7.917969v-64zm0 0" fill="#f0d0b4"/><g fill="#b27946"><path d="m272.378906 223.761719c0-17.683594-14.320312-32-32-32v-32h32zm0 0"/><path d="m200.378906 159.761719h-104v24h6.082032c11.808593 0 23.34375-2.648438 33.917968-7.464844v7.464844h6.082032c11.808593 0 23.34375-2.648438 33.917968-7.464844v7.464844h6.082032c21.679687 0 42.558593-8.640625 57.917968-24zm0 0"/><path d="m96.378906 183.761719v8c-17.679687 0-32 14.316406-32 32v-64h32zm0 0"/><path d="m200.378906 263.761719v16h-64v-16c0-8.800781 7.199219-16 16-16h32c8.800782 0 16 7.199219 16 16zm0 0"/></g><path d="m216.378906 207.761719c0 4.417969-3.582031 8-8 8-4.417968 0-8-3.582031-8-8 0-4.421875 3.582032-8 8-8 4.417969 0 8 3.578125 8 8zm0 0"/><path d="m136.378906 207.761719c0 4.417969-3.582031 8-8 8-4.417968 0-8-3.582031-8-8 0-4.421875 3.582032-8 8-8 4.417969 0 8 3.578125 8 8zm0 0"/><path d="m294.8125 342.535156-78.433594-20.925781v-10.007813c15.488282-11.671874 26.632813-28.769531 30.488282-48.503906 18.960937-3.121094 33.511718-19.503906 33.511718-39.335937v-84.691407l3.410156-3.40625c8.117188-8.113281 12.589844-18.921874 12.589844-30.398437 0-13.464844-6.429687-26.320313-17.199218-34.402344l-5.207032-3.902343c-26.855468-20.152344-59.425781-32.207032-92.863281-34.679688 5.175781-7.304688 12.773437-12.648438 21.75-14.898438l7.464844-1.863281-3.886719-15.519531-7.457031 1.863281c-16.183594 4.046875-29.289063 15.144531-36.066407 30.113281-35.964843 1.152344-71.324218 13.375-100.125 34.984376l-5.199218 3.894531c-10.777344 8.082031-17.203125 20.9375-17.203125 34.402343 0 11.484376 4.472656 22.285157 12.59375 30.40625l3.398437 3.40625v84.691407c0 19.832031 14.554688 36.214843 33.511719 39.34375 3.847656 19.726562 15 36.832031 30.488281 48.503906v10.007813l-78.429687 20.917968c-24.472657 6.519532-41.570313 28.761719-41.570313 54.097656v99.128907h336v-99.128907c0-25.335937-17.09375-47.578124-41.566406-54.097656zm25.566406 54.097656v51.128907h-40v-9.472657c9.289063-3.3125 16-12.113281 16-22.527343 0-10.417969-6.710937-19.21875-16-22.53125v-37.992188l10.304688 2.746094c17.488281 4.664063 29.695312 20.558594 29.695312 38.648437zm-232-4.871093h-16v-40.785157l16-4.265624zm-24 16h32c4.417969 0 8 3.582031 8 8 0 4.414062-3.582031 8-8 8h-32c-4.414062 0-8-3.585938-8-8 0-4.417969 3.585938-8 8-8zm8 32h24c10.417969 0 19.21875-6.714844 22.527344-16h98.953125c3.3125 9.285156 12.113281 16 22.527344 16h24v40h-192.007813zm192-48h-16v-45.058594l16 4.265625zm-24 16h32c4.417969 0 8 3.582031 8 8 0 4.414062-3.582031 8-8 8h-32c-4.414062 0-8-3.585938-8-8 0-4.417969 3.585938-8 8-8zm-168-264h192v8h-192zm32 24h31.464844c-9.664062 4.910156-20.351562 7.621093-31.464844 7.902343zm59.074219 0h12.390625c-6.511719 3.300781-13.472656 5.605469-20.726562 6.855469 2.894531-2.105469 5.671874-4.394532 8.335937-6.855469zm40 0h12.390625c-6.511719 3.300781-13.472656 5.605469-20.726562 6.855469 2.894531-2.105469 5.671874-4.394532 8.335937-6.855469zm44.925781 78.527343v-45.050781c9.289063 3.3125 16 12.113281 16 22.53125 0 10.414063-6.710937 19.207031-16 22.519531zm16-54.320312c-4.671875-3.535156-10.054687-6.183594-16-7.394531v-16.8125h16zm-197.199218-108.3125 5.199218-3.894531c27.511719-20.632813 61.609375-32 96-32 34.394532 0 68.488282 11.367187 96 32l5.199219 3.894531c6.761719 5.070312 10.800781 13.152344 10.800781 21.601562 0 7.109376-2.878906 14.070313-7.902344 19.09375l-3.410156 3.410157h-201.375l-3.40625-3.410157c-5.023437-5.023437-7.90625-11.984374-7.90625-19.085937 0-8.457031 4.042969-16.539063 10.800782-21.609375zm21.199218 84.105469v16.804687c-5.941406 1.21875-11.328125 3.859375-16 7.394532v-24.199219zm-16 56c0-10.417969 6.714844-19.21875 16-22.53125v45.050781c-9.285156-3.304688-16-12.105469-16-22.519531zm32 24v-56.097657c11.144532-.230468 21.953125-2.441406 32-6.527343v6.625h6.066406c11.832032 0 23.300782-2.289063 33.933594-6.625v6.625h6.066406c18.046876 0 35.277344-5.289063 49.933594-15.113281v71.113281c0 35.285156-28.710937 64-64 64-35.285156 0-64-28.714844-64-64zm64 80c11.378906 0 22.191406-2.425781 32-6.730469v5.59375c-1.367187 4.421875-9 25.136719-32 25.136719s-30.632812-20.714844-32-25.136719v-5.59375c9.808594 4.304688 20.625 6.730469 32 6.730469zm-45.03125 9.621093c5.96875 13.335938 20 30.378907 45.03125 30.378907s39.066406-17.042969 45.03125-30.378907l18.96875 5.058594v50.789063c-6.773437 2.417969-12.109375 7.753906-14.527344 14.53125h-98.945312c-2.414062-6.777344-7.75-12.113281-14.527344-14.53125v-50.789063zm-77.273437 20.601563 10.304687-2.746094v37.992188c-9.285156 3.3125-16 12.113281-16 22.53125 0 10.414062 6.714844 19.214843 16 22.527343v9.472657h-40v-51.128907c0-18.089843 12.210938-33.984374 29.695313-38.648437zm-29.695313 105.777344h40v16h-40zm264 16v-16h40v16zm0 0"/><path d="m128.378906 263.761719v24h80v-24c0-13.234375-10.765625-24-24-24h-32c-13.230468 0-24 10.765625-24 24zm16 0c0-4.417969 3.585938-8 8-8h32c4.417969 0 8 3.582031 8 8v8h-48zm0 0"/></svg>