<svg height="496pt" viewBox="0 0 496 496" width="496pt" xmlns="http://www.w3.org/2000/svg"><path d="m344 72h96v64h-96zm0 0" fill="#838f9b"/><path d="m56 72h96v64h-96zm0 0" fill="#838f9b"/><path d="m152 72h96v64h-96zm0 0" fill="#838f9b"/><path d="m248 72h96v64h-96zm0 0" fill="#838f9b"/><path d="m304 456h128v32h-128zm0 0" fill="#ccd1d9"/><path d="m64 456h128v32h-128zm0 0" fill="#ccd1d9"/><path d="m432 328v96h-128v-96zm0 0" fill="#ccd1d9"/><path d="m192 328v96h-128v-96zm0 0" fill="#ccd1d9"/><path d="m384 376c0 8.835938-7.164062 16-16 16s-16-7.164062-16-16 7.164062-16 16-16 16 7.164062 16 16zm0 0" fill="#fcd770"/><path d="m144 376c0 8.835938-7.164062 16-16 16s-16-7.164062-16-16 7.164062-16 16-16 16 7.164062 16 16zm0 0" fill="#fcd770"/><path d="m432 200v96h-128v-8c0-30.960938-25.039062-56-56-56-15.519531 0-29.441406 6.238281-39.601562 16.398438-10.160157 10.160156-16.398438 24.082031-16.398438 39.601562v8h-128v-96zm0 0" fill="#ccd1d9"/><path d="m336 232h64v32h-64zm0 0" fill="#fcd770"/><path d="m96 232h64v32h-64zm0 0" fill="#fcd770"/><g fill="#aab2bd"><path d="m88 168h32v32h-32zm0 0"/><path d="m152 168h32v32h-32zm0 0"/><path d="m456 168-24 32h-24v-32zm0 0"/><path d="m376 168h32v32h-32zm0 0"/><path d="m120 168h32v32h-32zm0 0"/><path d="m280 168h32v32h-32zm0 0"/><path d="m216 168h32v32h-32zm0 0"/><path d="m312 168h32v32h-32zm0 0"/><path d="m248 168h32v32h-32zm0 0"/><path d="m184 168h32v32h-32zm0 0"/><path d="m88 168v32h-24l-24-32zm0 0"/><path d="m344 168h32v32h-32zm0 0"/><path d="m456 40-16 32h-384l-16-32zm0 0"/></g><path d="m304 424h128v32h-128zm0 0" fill="#e6e9ed"/><path d="m64 424h128v32h-128zm0 0" fill="#e6e9ed"/><path d="m304 296h128v32h-128zm0 0" fill="#e6e9ed"/><path d="m64 296h128v32h-128zm0 0" fill="#e6e9ed"/><path d="m456 136v32h-416v-32zm0 0" fill="#e6e9ed"/><path d="m40 8h416v32h-416zm0 0" fill="#e6e9ed"/><path d="m32 41.886719 16 32v54.113281h-16v42.664062l24 32v277.335938h-24v16h432v-16h-24v-277.335938l24-32v-42.664062h-16v-54.113281l16-32v-41.886719h-432zm28.945312 22.113281-8-16h390.109376l-8 16zm195.054688 64v-48h80v48zm-16-48v48h-80v-48zm-176 0h80v48h-80zm384 64v16h-400v-16zm-24 304h-112v-16h112zm-240-32h-112v-80h112zm0-96h-112v-16h112zm-112 112h112v16h-112zm224 48h-96v-192c0-26.472656 21.527344-48 48-48s48 21.527344 48 48zm128-64h-112v-80h112zm0-96h-112v-16h112zm0-32h-112c0-35.289062-28.710938-64-64-64s-64 28.710938-64 64h-112v-80h352zm-40-96v-16h16v16zm-16 0h-16v-16h16zm-32 0h-16v-16h16zm-32 0h-16v-16h16zm-32 0h-16v-16h16zm-32 0h-16v-16h16zm-32 0h-16v-16h16zm-32 0h-16v-16h16zm-32 0h-16v-16h16zm-32 0h-16v-16h16zm-32 0h-12l-12-16h24zm336 0v-16h24l-12 16zm-344 272h112v16h-112zm240 16v-16h112v16zm40-352v-48h80v48zm96-112v16h-400v-16zm0 0"/><path d="m96 96h16v16h-16zm0 0"/><path d="m192 96h16v16h-16zm0 0"/><path d="m288 96h16v16h-16zm0 0"/><path d="m384 96h16v16h-16zm0 0"/><path d="m128 400c13.230469 0 24-10.769531 24-24s-10.769531-24-24-24-24 10.769531-24 24 10.769531 24 24 24zm0-32c4.414062 0 8 3.59375 8 8s-3.585938 8-8 8-8-3.59375-8-8 3.585938-8 8-8zm0 0"/><path d="m168 272v-48h-80v48zm-64-32h48v16h-48zm0 0"/><path d="m368 400c13.230469 0 24-10.769531 24-24s-10.769531-24-24-24-24 10.769531-24 24 10.769531 24 24 24zm0-32c4.414062 0 8 3.59375 8 8s-3.585938 8-8 8-8-3.59375-8-8 3.585938-8 8-8zm0 0"/><path d="m408 224h-80v48h80zm-16 32h-48v-16h48zm0 0"/><path d="m480 480h16v16h-16zm0 0"/><path d="m0 480h16v16h-16zm0 0"/></svg>