<svg height="493pt" viewBox="-22 0 493 493.656" width="493pt" xmlns="http://www.w3.org/2000/svg"><path d="m392.328125 357.65625v54.238281l-56-54.238281zm0 0" fill="#3bafda"/><path d="m336.328125 357.65625v64h-64zm0 0" fill="#3bafda"/><path d="m272.328125 357.65625v64l-64-64zm0 0" fill="#3bafda"/><path d="m208.328125 357.65625v64h-56l-.960937-.960938.960937-1.039062zm0 0" fill="#3bafda"/><g fill="#69d6f4"><path d="m424.328125 357.65625v22.078125c0 6.320313-2.558594 12.480469-7.039063 16.960937l-20 20-.960937-.960937-4-3.839844v-54.238281zm0 0"/><path d="m392.328125 411.894531 4 3.839844.960937.960937-4.960937 4.960938h-56v-64zm0 0"/><path d="m336.328125 357.65625-64 64v-64zm0 0"/><path d="m272.328125 421.65625h-64v-64zm0 0"/><path d="m440.328125 165.65625v48h-336v-48zm0 0"/><path d="m440.328125 213.65625-16 96v38l-24-30v-64l32-40zm0 0"/></g><path d="m400.328125 253.65625-32-40h64zm0 0" fill="#4fc1e9"/><path d="m424.328125 347.65625v10h-56l32-40zm0 0" fill="#4fc1e9"/><path d="m400.328125 253.65625v64l-32 40v-144zm0 0" fill="#3bafda"/><path d="m392.328125 421.65625-32 32h-176l-32-32zm0 0" fill="#69d6f4"/><path d="m392.328125 485.65625h-240c0-8.800781 3.601563-16.800781 9.359375-22.640625 5.839844-5.757813 13.839844-9.359375 22.640625-9.359375h176c17.679687 0 32 14.320312 32 32zm0 0" fill="#3bafda"/><path d="m368.328125 213.65625v144l-32-40v-64zm0 0" fill="#69d6f4"/><path d="m336.328125 253.65625-32-40h64zm0 0" fill="#4fc1e9"/><path d="m336.328125 317.65625 32 40h-64zm0 0" fill="#4fc1e9"/><path d="m336.328125 253.65625v64l-32 40v-144zm0 0" fill="#3bafda"/><path d="m304.328125 213.65625v144l-32-40v-64zm0 0" fill="#69d6f4"/><path d="m272.328125 253.65625-32-40h64zm0 0" fill="#4fc1e9"/><path d="m272.328125 317.65625 32 40h-64zm0 0" fill="#4fc1e9"/><path d="m272.328125 253.65625v64l-32 40v-144zm0 0" fill="#3bafda"/><path d="m240.328125 213.65625v144l-32-40v-64zm0 0" fill="#69d6f4"/><path d="m208.328125 253.65625-32-40h64zm0 0" fill="#4fc1e9"/><path d="m208.328125 317.65625 32 40h-64zm0 0" fill="#4fc1e9"/><path d="m208.328125 253.65625v64l-32 40v-144zm0 0" fill="#3bafda"/><path d="m176.328125 213.65625v144l-32-40v-64zm0 0" fill="#69d6f4"/><path d="m144.328125 253.65625-32-40h64zm0 0" fill="#4fc1e9"/><path d="m144.328125 317.65625 32 40h-56v-10zm0 0" fill="#4fc1e9"/><path d="m127.367188 396.695312 21.039062 21.039063c-9.039062 2.480469-18.398438 3.921875-28.078125 3.921875-61.839844 0-112-53.761719-112-120 0-60.398438 41.761719-110.320312 96-118.640625v30.640625l.320313 1.679688c-36.71875 8.078124-64.320313 43.601562-64.320313 86.320312 0 48.640625 35.839844 88 80 88l2.878906 1.359375c1.039063 2.082031 2.480469 4 4.160157 5.679687zm0 0" fill="#69d6f4"/><path d="m144.328125 253.65625v64l-24 30v-38l-15.679687-94.320312-.320313-1.679688h8zm0 0" fill="#3bafda"/><path d="m176.328125 357.65625h-24v62l56-62zm0 0" fill="#69d6f4"/><path d="m120.328125 357.65625v22.078125c0 3.921875.960937 7.839844 2.878906 11.28125 1.039063 2.082031 2.480469 4 4.160157 5.679687l24 24 .960937-1.039062v-62zm0 0" fill="#3bafda"/><path d="m96.328125 157.65625v18.839844c-55.167969 12.023437-96 64.503906-96 125.160156 0 70.574219 53.832031 128 120 128 8.375 0 16.960937-1.089844 25.574219-3.113281l22.480468 22.480469c-14.136718 6.175781-24.054687 20.25-24.054687 36.632812v8h256v-8c0-16.382812-9.921875-30.457031-24.046875-36.640625l46.671875-46.671875c5.957031-5.953125 9.375-14.199219 9.375-22.625v-69.398438l15.886719-95.351562.113281-57.3125zm336 16v32h-320v-32zm-15.921875 151.296875-8.078125-10.105469v-58.382812l21.167969-26.457032-13.054688 78.335938zm-318.109375-99.394531 14.03125 84.761718v69.398438c0 .488281.121094.953125.144531 1.441406-36.015625-4.367187-64.144531-38.34375-64.144531-79.503906 0-34.984375 20.59375-65.609375 49.96875-76.097656zm246.03125 30.90625 16-20v98.382812l-16-20zm-16 58.382812-16 20v-98.382812l16 20zm-120 15.617188 15.351563 19.191406h-30.710938zm64 0 15.351563 19.191406h-30.710938zm-8 35.191406v36.6875l-36.6875-36.6875zm16 0h36.6875l-36.6875 36.6875zm16-30.808594-16-20v-58.382812l16-20zm-32-20-16 20v-98.382812l16 20zm-32 20-16-20v-58.382812l16-20zm-32-20-16 20v-98.382812l16 20zm-32 20-16-20v-58.382812l16-20zm-32-20-8 10v-15.191406l-13.191406-79.679688 21.191406 26.488282zm8 15.617188 15.351563 19.191406h-30.710938zm45.984375 35.191406-29.984375 33.183594v-33.183594zm10.015625 12.785156v35.214844h-31.824219zm16-1.472656 36.6875 36.6875h-36.6875zm112 0v36.6875h-36.6875zm16-.425781 38.335937 37.113281h-38.335937zm-23.351563-26.886719 15.351563-19.191406 15.351563 19.191406zm55.351563-113.191406 16 20v58.382812l-16 20zm24 4.382812-15.351563-19.191406h30.710938zm-64 0-15.351563-19.191406h30.710938zm-64 0-15.351563-19.191406h30.710938zm-64 0-15.351563-19.191406h30.710938zm-64 0-15.351563-19.191406h30.710938zm-16 124.808594h16v36.6875l-11.3125-11.3125c-2.984375-2.976562-4.6875-7.101562-4.6875-11.3125zm244.6875 64-16 16h-169.375l-16-16zm-16.917969-64h28.230469v27.335938zm28.878906-16 15.351563-19.191406 15.351563 19.191406zm-264.648437 64c-57.34375 0-104-50.242188-104-112 0-51.914062 33.792969-97.03125 80-108.847656v16.527344c-37.457031 11.558593-64 49.238281-64 92.320312 0 51.992188 38.097656 94.351562 85.425781 95.855469 1.148438 1.726562 2.46875 3.351562 3.949219 4.832031l10.496094 10.496094c-4 .527344-7.96875.816406-11.871094.816406zm262.632813 64h-221.265626c3.304688-9.3125 12.199219-16 22.632813-16h176c10.433594 0 19.328125 6.6875 22.632813 16zm28.679687-86.625-11.3125 11.3125v-36.6875h16.023437l-.023437 14.0625c0 4.210938-1.703125 8.335938-4.6875 11.3125zm0 0"/><path d="m333.984375 68.6875c-8.679687 8.679688-13.65625 20.695312-13.65625 32.96875s4.976563 24.289062 13.65625 32.96875l12.6875 12.6875 11.3125-11.3125-12.6875-12.6875c-5.695313-5.703125-8.96875-13.59375-8.96875-21.65625s3.273437-15.953125 8.96875-21.65625l1.375-1.375c8.679687-8.679688 13.65625-20.695312 13.65625-32.96875s-4.976563-24.289062-13.65625-32.96875l-12.6875-12.6875-11.3125 11.3125 12.6875 12.6875c5.695313 5.703125 8.96875 13.59375 8.96875 21.65625s-3.273437 15.953125-8.96875 21.65625zm0 0"/><path d="m261.984375 68.6875c-8.679687 8.679688-13.65625 20.695312-13.65625 32.96875s4.976563 24.289062 13.65625 32.96875l12.6875 12.6875 11.3125-11.3125-12.6875-12.6875c-5.695313-5.703125-8.96875-13.59375-8.96875-21.65625s3.273437-15.953125 8.96875-21.65625l1.375-1.375c8.679687-8.679688 13.65625-20.695312 13.65625-32.96875s-4.976563-24.289062-13.65625-32.96875l-12.6875-12.6875-11.3125 11.3125 12.6875 12.6875c5.695313 5.703125 8.96875 13.59375 8.96875 21.65625s-3.273437 15.953125-8.96875 21.65625zm0 0"/><path d="m197.984375 68.6875c-8.679687 8.679688-13.65625 20.695312-13.65625 32.96875s4.976563 24.289062 13.65625 32.96875l12.6875 12.6875 11.3125-11.3125-12.6875-12.6875c-5.695313-5.703125-8.96875-13.59375-8.96875-21.65625s3.273437-15.953125 8.96875-21.65625l1.375-1.375c8.679687-8.679688 13.65625-20.695312 13.65625-32.96875s-4.976563-24.289062-13.65625-32.96875l-12.6875-12.6875-11.3125 11.3125 12.6875 12.6875c5.695313 5.703125 8.96875 13.59375 8.96875 21.65625s-3.273437 15.953125-8.96875 21.65625zm0 0"/></svg>