<svg height="512pt" viewBox="0 0 512 512" width="512pt" xmlns="http://www.w3.org/2000/svg"><path d="m7.5 256c0-137.242188 111.257812-248.5 248.5-248.5s248.5 111.257812 248.5 248.5-111.257812 248.5-248.5 248.5-248.5-111.257812-248.5-248.5zm248.5 148.597656c82.070312 0 148.597656-66.527344 148.597656-148.597656s-66.527344-148.597656-148.597656-148.597656-148.597656 66.527344-148.597656 148.597656 66.527344 148.597656 148.597656 148.597656zm0 0" fill="#83d9ff"/><path d="m256 504.5v-99.898438c18.96875 0 37.101562-3.550781 53.78125-10.03125l34.179688 93.910157c-27.351563 10.347656-56.992188 16.019531-87.960938 16.019531zm0 0" fill="#3fefef"/><path d="m309.78125 394.570312c17.167969-6.671874 32.796875-16.441406 46.199219-28.628906l64.25 76.558594c-22.25 19.601562-48.03125 35.289062-76.269531 45.980469zm0 0" fill="#1dd1d9"/><path d="m355.980469 365.941406c13.257812-12.070312 24.328125-26.5 32.550781-42.640625l86.589844 50c-14.070313 26.238281-32.730469 49.667969-54.890625 69.199219zm0 0" fill="#17b5ba"/><path d="m400.53125 221.308594 98.5-17.367188c3.589844 16.789063 5.46875 34.199219 5.46875 52.058594 0 11.601562-.800781 23.011719-2.339844 34.191406l-98.5-17.363281c.621094-5.519531.941406-11.136719.941406-16.828125 0-11.949219-1.410156-23.558594-4.070312-34.691406zm0 0" fill="#9be058"/><path d="m380.539062 174.890625 86.601563-50c14.890625 23.9375 25.828125 50.589844 31.890625 79.050781l-98.5 17.367188c-4.011719-16.757813-10.851562-32.410156-19.992188-46.417969zm0 0" fill="#c0ff66"/><path d="m346.910156 138.449219 64.25-76.570313c22.039063 17.640625 41.011719 38.949219 55.980469 63.011719l-86.601563 50c-9.109374-13.949219-20.5-26.269531-33.628906-36.441406zm0 0" fill="#ffdf46"/><path d="m173.960938 21.371094c25.6875-8.992188 53.289062-13.871094 82.039062-13.871094v99.898438c-16.75 0-32.851562 2.773437-47.871094 7.882812zm0 0" fill="#fc3e81"/><path d="m100.839844 61.878906c21.691406-17.359375 46.359375-31.160156 73.109375-40.507812h.011719l34.167968 93.910156c-15.6875 5.328125-30.199218 13.21875-43.039062 23.167969zm0 0" fill="#f01054"/><path d="m44.859375 124.890625c14.96875-24.0625 33.941406-45.371094 55.980469-63.011719l64.25 76.570313c-13.128906 10.171875-24.519532 22.492187-33.628906 36.441406zm0 0" fill="#7884ea"/><path d="m9.839844 290.191406 98.5-17.363281c2.03125 17.992187 7.269531 35.011719 15.128906 50.472656l-86.589844 50c-13.617187-25.390625-22.957031-53.410156-27.039062-83.109375zm0 0" fill="#1685fb"/><path d="m36.878906 373.300781 86.589844-50c8.222656 16.140625 19.292969 30.570313 32.550781 42.640625l-64.25 76.558594c-22.160156-19.53125-40.820312-42.960938-54.890625-69.199219zm0 0" fill="#43a3f9"/><path d="m91.769531 442.5 64.25-76.558594c13.402344 12.1875 29.03125 21.957032 46.199219 28.628906l-34.179688 93.910157c-28.238281-10.691407-54.019531-26.378907-76.269531-45.980469zm0 0" fill="#64bdff"/><path d="m12.96875 203.941406c6.0625-28.460937 17-55.113281 31.890625-79.050781l86.601563 50c-9.140626 14.007813-15.980469 29.660156-19.992188 46.417969zm0 0" fill="#4a5be5"/><path d="m388.53125 323.300781c7.859375-15.460937 13.097656-32.480469 15.128906-50.472656l98.5 17.363281c-4.082031 29.699219-13.421875 57.71875-27.039062 83.109375zm0 0" fill="#1cc939"/><path d="m7.5 256c0-17.859375 1.878906-35.269531 5.46875-52.058594l98.5 17.367188c-2.660156 11.132812-4.070312 22.742187-4.070312 34.691406 0 5.691406.320312 11.308594.941406 16.828125l-98.5 17.363281c-1.539063-11.179687-2.339844-22.589844-2.339844-34.191406zm0 0" fill="#364ec6"/><path d="m303.871094 115.28125 34.179687-93.910156c26.75 9.347656 51.417969 23.148437 73.109375 40.507812l-64.25 76.570313c-12.839844-9.949219-27.351562-17.839844-43.039062-23.167969zm0 0" fill="#f9b200"/><path d="m256 107.398438v-99.898438c28.75 0 56.359375 4.878906 82.050781 13.871094l-34.179687 93.910156c-15.019532-5.109375-31.121094-7.882812-47.871094-7.882812zm0 0" fill="#fd6096"/><path d="m394.453125 40.640625c-3.480469-2.242187-8.125-1.238281-10.367187 2.246094-2.242188 3.480469-1.238282 8.121093 2.242187 10.367187 4.832031 3.109375 9.519531 6.375 14.074219 9.78125l-54.753906 65.25c-9.941407-7-20.734376-12.871094-32.1875-17.421875l29.058593-79.839843c5.425781 2.09375 10.800781 4.375 16.109375 6.875 3.746094 1.765624 8.214844.160156 9.980469-3.585938s.160156-8.214844-3.585937-9.980469c-34.246094-16.144531-70.925782-24.332031-109.023438-24.332031-68.378906 0-132.667969 26.628906-181.019531 74.980469-48.351563 48.351562-74.980469 112.640625-74.980469 181.019531 0 84.328125 41.550781 163.242188 111.152344 211.089844 1.296875.890625 2.777344 1.320312 4.242187 1.320312 2.386719 0 4.734375-1.136718 6.1875-3.253906 2.347657-3.414062 1.480469-8.082031-1.933593-10.429688-6.007813-4.128906-11.789063-8.507812-17.34375-13.113281l54.617187-65.078125c10.816406 8.910156 22.855469 16.386719 35.816406 22.15625l-29.101562 79.957032c-5.648438-2.355469-11.238281-4.910157-16.746094-7.710938-3.691406-1.878906-8.207031-.40625-10.085937 3.285156-1.875 3.691406-.40625 8.207032 3.285156 10.085938 36.125 18.375 75.121094 27.691406 115.910156 27.691406 68.378906 0 132.667969-26.628906 181.019531-74.980469 48.351563-48.351562 74.980469-112.640625 74.980469-181.019531 0-87.433594-43.941406-167.941406-117.546875-215.359375zm71.386719 250.761719 27.8125 4.902344c-3.894532 23.261718-11.15625 45.65625-21.539063 66.597656l-73.859375-42.648438c5.511719-12.152344 9.496094-25.132812 11.738282-38.691406l24.046874 4.238281c.4375.078125.875.113281 1.308594.113281 3.574219 0 6.738282-2.5625 7.378906-6.199218.71875-4.078125-2.003906-7.96875-6.085937-8.6875l-24.910156-4.390625c.238281-3.519531.371093-7.0625.371093-10.636719 0-9.785156-.914062-19.359375-2.644531-28.648438l83.644531-14.75c2.566407 14.164063 3.898438 28.675782 3.898438 43.398438 0 8.554688-.457031 17.039062-1.332031 25.429688l-27.226563-4.796876c-4.082031-.722656-7.96875 2.003907-8.6875 6.082032-.71875 4.082031 2.003906 7.972656 6.085938 8.6875zm-117.449219 187.324218-29.128906-80.035156c12.960937-5.769531 25-13.246094 35.816406-22.15625l54.632813 65.097656c-18.65625 15.503907-39.296876 27.960938-61.320313 37.09375zm-84.890625-66.8125c14.527344-.691406 28.542969-3.378906 41.773438-7.792968l29.082031 79.898437c-22.582031 7.738281-46.40625 12.109375-70.855469 12.851563zm-7.5-14.816406c-77.800781 0-141.097656-63.292968-141.097656-141.097656s63.296875-141.097656 141.097656-141.097656 141.097656 63.296875 141.097656 141.097656-63.296875 141.097656-141.097656 141.097656zm-237.609375-100.800781 83.613281-14.734375c2.246094 13.558594 6.230469 26.539062 11.742188 38.691406l-73.75 42.585938c-10.335938-20.894532-17.660156-43.292969-21.605469-66.542969zm-3.390625-40.296875c0-14.714844 1.324219-29.222656 3.890625-43.398438l83.65625 14.75c-1.730469 9.289063-2.644531 18.863282-2.644531 28.648438 0 3.574219.132812 7.121094.371094 10.636719l-83.925782 14.789062c-.890625-8.394531-1.347656-16.878906-1.347656-25.425781zm91.007812-43.269531-83.992187-14.8125c5.441406-22.09375 14-43.222657 25.4375-62.871094l73.632813 42.515625c-6.390626 10.949219-11.488282 22.742188-15.078126 35.167969zm142.492188-112.644531c-12.347656.585937-24.324219 2.613281-35.765625 5.921874l-29.101563-79.992187c20.789063-6.511719 42.566407-10.210937 64.867188-10.886719zm-49.960938 10.773437c-11.453124 4.550781-22.246093 10.425781-32.1875 17.425781l-54.765624-65.265625c17.839843-13.410156 37.289062-24.175781 57.875-32.082031zm291.421876 87.0625-83.96875 14.808594c-3.589844-12.425781-8.6875-24.21875-15.078126-35.171875l73.65625-42.523438c11.355469 19.570313 19.921876 40.722656 25.390626 62.886719zm-77.824219-125.535156c17.246093 14.636719 32.175781 31.453125 44.496093 49.910156l-73.902343 42.671875c-7.296875-10.128906-15.777344-19.355469-25.234375-27.464844zm-112.871094 33.621093c-11.441406-3.308593-23.417969-5.335937-35.765625-5.921874v-84.964844c22.246094.671875 43.945312 4.328125 64.863281 10.929687zm-213.679687-20.421874c4.613281-4.609376 9.382812-9 14.292968-13.1875l54.625 65.105468c-9.457031 8.109375-17.9375 17.332032-25.234375 27.460938l-73.878906-42.65625c8.746094-13.058594 18.832031-25.359375 30.195313-36.722656zm5.464843 346.101562c-17.4375-16.382812-32.214843-35.152344-43.980469-55.613281l73.53125-42.457031c6.929688 12.042968 15.425782 23.082031 25.199219 32.832031zm115.671875-27.566406c13.234375 4.414062 27.25 7.101562 41.777344 7.792968v84.96875c-24.425781-.730468-48.125-5.0625-70.84375-12.894531zm219.691406 22.292968c-1.796874 1.792969-3.625 3.546876-5.464843 5.277344l-54.75-65.242187c9.777343-9.75 18.269531-20.789063 25.199219-32.832031l73.628906 42.515624c-10.476563 18.15625-23.394532 35.058594-38.613282 50.28125zm0 0"/></svg>