<svg height="511pt" viewBox="0 -26 511.9998 511" width="511pt" xmlns="http://www.w3.org/2000/svg"><path d="m461.371094 451.945312c-14.136719-2.234374-25.226563-16.539062-19.96875-32.21875.117187-.355468.242187-.703124.371094-1.054687 3.046874-8.171875 9.050781-14.378906 16.339843-17.867187 7.65625-3.671876 16.738281-4.339844 25.316407-1.132813 16.753906 6.257813 25.257812 24.910156 19 41.660156 0 .011719-.003907.023438-.011719.03125-.664063 1.78125-2.503907 2.828125-4.386719 2.535157-6.566406-1.023438-14.246094 1.761718-20.921875 5.316406-5.230469 2.785156-10.683594 3.53125-15.738281 2.730468zm0 0" fill="#e29c6d"/><path d="m502.425781 441.332031c0 .007813 0 .03125-.007812.03125-.660157 1.777344-2.511719 2.828125-4.390625 2.539063-6.558594-1.019532-14.238282 1.757812-20.917969 5.308594-5.230469 2.789062-10.679687 3.53125-15.742187 2.730468-14.128907-2.230468-25.226563-16.53125-19.96875-32.21875.121093-.351562.25-.699218.378906-1.050781.019531-.050781.042968-.097656.0625-.148437 3.300781 8.019531 10.839844 13.949218 19.527344 15.328124 5.0625.800782 10.511718.050782 15.742187-2.730468 6.679687-3.558594 14.359375-6.339844 20.917969-5.320313 1.878906.292969 3.730468-.757812 4.390625-2.539062.007812 0 .007812-.019531.007812-.03125.292969-.757813.542969-1.527344.75-2.296875 1.902344 6.46875 1.792969 13.589844-.75 20.398437zm0 0" fill="#c97f4c"/><path d="m436.929688 439.914062c3.210937-.269531 5.679687-2.957031 5.679687-6.179687v-17.605469c0-3.222656-2.46875-5.910156-5.679687-6.179687l-92.515626-7.808594-326.535156 12.023437c-5.792968.210938-10.378906 4.96875-10.378906 10.765626 0 5.796874 4.585938 10.558593 10.378906 10.769531l326.535156 12.023437zm0 0" fill="#43a3f9"/><path d="m442.609375 417.007812v16.730469c0 3.21875-2.46875 5.910157-5.679687 6.179688l-92.519532 7.808593-326.53125-12.027343c-5.789062-.210938-10.378906-4.972657-10.378906-10.769531 0-3.371094 1.550781-6.382813 3.988281-8.351563 1.75 1.429687 3.960938 2.320313 6.390625 2.398437l326.53125 12.019532 92.519532-7.808594c3.210937-.269531 5.679687-2.949219 5.679687-6.179688zm0 0" fill="#1685fb"/><path d="m442.609375 416.128906v17.609375c0 3.21875-2.46875 5.910157-5.679687 6.179688l-92.519532 7.808593v-45.585937l92.519532 7.808594c3.210937.269531 5.679687 2.960937 5.679687 6.179687zm0 0" fill="#bddff4"/><path d="m442.609375 417.007812v16.730469c0 3.21875-2.46875 5.910157-5.679687 6.179688l-92.519532 7.808593v-16.730468l92.519532-7.808594c3.210937-.269531 5.679687-2.949219 5.679687-6.179688zm0 0" fill="#9cc6db"/><path d="m474.472656 374.042969h-279.992187c-5.523438 0-10-4.476563-10-10v-345.496094c0-5.523437 4.476562-10 10-10h279.992187c5.523438 0 10 4.476563 10 10v345.496094c0 5.523437-4.476562 10-10 10zm0 0" fill="#e3f4ff"/><path d="m474.472656 374.042969h-279.992187c-5.523438 0-10-4.476563-10-10v-345.496094c0-5.523437 4.476562-10 10-10h279.992187c5.523438 0 10 4.476563 10 10v345.496094c0 5.523437-4.476562 10-10 10zm0 0" fill="#e29c6d"/><path d="m484.472656 18.542969v345.5c0 5.519531-4.480468 10-10 10h-17.820312c5.519531 0 10-4.480469 10-10v-345.5c0-5.519531-4.480469-10-10-10h17.820312c5.519532 0 10 4.480469 10 10zm0 0" fill="#c97f4c"/><path d="m214.480469 38.542969h239.992187v305.5h-239.992187zm0 0" fill="#e3f4ff"/><path d="m435.394531 38.542969h19.078125v305.5h-19.078125zm0 0" fill="#bddff4"/><path d="m373.484375 243.269531c0 29.035157-23.535156 52.570313-52.570313 52.570313-29.035156 0-52.574218-23.535156-52.574218-52.570313 0-29.035156 23.539062-52.574219 52.574218-52.574219 29.035157 0 52.570313 23.539063 52.570313 52.574219zm0 0" fill="#43a3f9"/><path d="m140.0625 365.210938h-89.011719c-13 0-23.535156-10.539063-23.535156-23.539063v-310.136719c0-12.996094 10.535156-23.535156 23.535156-23.535156h89.011719c5.523438 0 10 4.476562 10 10v337.210938c0 5.523437-4.476562 10-10 10zm0 0" fill="#e3f4ff"/><path d="m150.0625 18.003906v337.210938c0 5.519531-4.480469 10-10 10h-18.699219c5.527344 0 10-4.480469 10-10v-337.210938c0-5.53125-4.472656-10-10-10h18.699219c5.519531 0 10 4.46875 10 10zm0 0" fill="#bddff4"/><path d="m103.757812 306.953125c0 12.179687-9.871093 22.050781-22.050781 22.050781-12.179687 0-22.050781-9.871094-22.050781-22.050781s9.871094-22.050781 22.050781-22.050781c12.179688 0 22.050781 9.871094 22.050781 22.050781zm0 0" fill="#43a3f9"/><path d="m103.757812 226.722656c0 12.175782-9.871093 22.050782-22.050781 22.050782-12.179687 0-22.050781-9.875-22.050781-22.050782 0-12.179687 9.871094-22.054687 22.050781-22.054687 12.179688 0 22.050781 9.875 22.050781 22.054687zm0 0" fill="#fc3e81"/><path d="m103.757812 146.488281c0 12.179688-9.871093 22.050781-22.050781 22.050781-12.179687 0-22.050781-9.871093-22.050781-22.050781 0-12.179687 9.871094-22.050781 22.050781-22.050781 12.179688 0 22.050781 9.871094 22.050781 22.050781zm0 0" fill="#f9b200"/><path d="m103.757812 66.257812c0 12.175782-9.871093 22.050782-22.050781 22.050782-12.179687 0-22.050781-9.875-22.050781-22.050782 0-12.179687 9.871094-22.054687 22.050781-22.054687 12.179688 0 22.050781 9.875 22.050781 22.054687zm0 0" fill="#c0ff66"/><path d="m508.382812 413.457031c-4.417968-9.691406-12.347656-17.082031-22.328124-20.8125-10.246094-3.828125-21.320313-3.332031-31.175782 1.394531-4.875 2.332032-9.195312 5.636719-12.726562 9.648438-1.410156-.648438-2.953125-1.074219-4.59375-1.210938l-92.515625-7.8125c-.300781-.023437-.601563-.03125-.910157-.019531l-326.527343 12.023438c-9.875.363281-17.605469 8.386719-17.605469 18.261719 0 9.878906 7.730469 17.902343 17.605469 18.265624l228.347656 8.410157c4.167969.121093 7.617187-3.078125 7.769531-7.21875s-3.078125-7.621094-7.21875-7.773438l-228.347656-8.40625c-1.769531-.066406-3.15625-1.503906-3.15625-3.273437 0-1.773438 1.386719-3.210938 3.15625-3.273438l318.757812-11.738281v30.023437l-57.75-2.128906c-4.136718-.125-7.617187 3.082032-7.769531 7.21875-.152343 4.140625 3.078125 7.621094 7.21875 7.773438l65.523438 2.410156c.09375.003906.183593.007812.277343.007812.210938 0 .421876-.011718.628907-.027343l92.519531-7.808594c.617188-.050781 1.21875-.15625 1.808594-.285156 5.09375 6.488281 12.546875 10.941406 20.828125 12.246093 1.671875.265626 3.347656.398438 5.019531.398438 5.304688 0 10.554688-1.324219 15.417969-3.914062 6.609375-3.523438 12.378906-5.128907 16.246093-4.527344 5.34375.832031 10.585938-2.195313 12.519532-7.207032.019531-.046874.039062-.097656.058594-.144531 3.722656-9.976562 3.34375-20.808593-1.078126-30.5zm-73.273437 19.085938-83.199219 7.023437v-29.269531l83.199219 7.023437zm61.085937 3.664062c-6.601562-.261719-14.1875 1.902344-22.613281 6.390625-3.492187 1.859375-7.304687 2.53125-11.039062 1.941406-5.191407-.820312-9.941407-4.050781-12.632813-8.519531.125-.746093.199219-1.503906.199219-2.285156v-15.3125c2.472656-4.707031 6.414063-8.542969 11.25-10.851563 6.148437-2.953124 13.054687-3.261718 19.449219-.875 6.222656 2.328126 11.171875 6.9375 13.929687 12.984376 2.390625 5.246093 2.886719 11.023437 1.457031 16.527343zm0 0"/><path d="m194.480469 381.542969h279.992187c9.648438 0 17.5-7.851563 17.5-17.5v-345.496094c0-9.648437-7.851562-17.5-17.5-17.5h-279.992187c-9.648438 0-17.5 7.851563-17.5 17.5v227.820313c0 4.144531 3.355469 7.5 7.5 7.5s7.5-3.355469 7.5-7.5v-227.820313c0-1.378906 1.121093-2.5 2.5-2.5h279.992187c1.378906 0 2.5 1.121094 2.5 2.5v345.496094c0 1.378906-1.121094 2.5-2.5 2.5h-279.992187c-1.378907 0-2.5-1.121094-2.5-2.5v-85.015625c0-4.140625-3.355469-7.5-7.5-7.5s-7.5 3.359375-7.5 7.5v85.015625c0 9.648437 7.851562 17.5 17.5 17.5zm0 0"/><path d="m454.472656 351.542969c4.144532 0 7.5-3.355469 7.5-7.5v-305.496094c0-4.144531-3.355468-7.5-7.5-7.5h-239.992187c-4.144531 0-7.5 3.355469-7.5 7.5v305.496094c0 4.144531 3.355469 7.5 7.5 7.5zm-232.492187-305.5h224.992187v290.5h-224.992187zm0 0"/><path d="m273.054688 126.476562c0-4.144531-3.359376-7.5-7.5-7.5h-.078126c-4.144531 0-7.460937 3.355469-7.460937 7.5 0 4.144532 3.394531 7.5 7.539063 7.5 4.140624 0 7.5-3.355468 7.5-7.5zm0 0"/><path d="m288.351562 133.976562c4.140626 0 7.5-3.355468 7.5-7.5 0-4.144531-3.359374-7.5-7.5-7.5h-.078124c-4.144532 0-7.460938 3.355469-7.460938 7.5 0 4.144532 3.394531 7.5 7.539062 7.5zm0 0"/><path d="m265.554688 114.492188c4.140624 0 7.5-3.355469 7.5-7.496094 0-4.144532-3.359376-7.5-7.5-7.5h-.078126c-4.144531 0-7.460937 3.355468-7.460937 7.5 0 4.140625 3.394531 7.496094 7.539063 7.496094zm0 0"/><path d="m288.351562 114.492188c4.140626 0 7.5-3.355469 7.5-7.496094 0-4.144532-3.359374-7.5-7.5-7.5h-.078124c-4.144532 0-7.460938 3.355468-7.460938 7.5 0 4.140625 3.394531 7.496094 7.539062 7.496094zm0 0"/><path d="m265.554688 95.011719c4.140624 0 7.5-3.359375 7.5-7.5 0-4.144531-3.359376-7.5-7.5-7.5h-.078126c-4.144531 0-7.460937 3.355469-7.460937 7.5 0 4.140625 3.394531 7.5 7.539063 7.5zm0 0"/><path d="m288.351562 95.011719c4.140626 0 7.5-3.359375 7.5-7.5 0-4.144531-3.359374-7.5-7.5-7.5h-.078124c-4.144532 0-7.460938 3.355469-7.460938 7.5 0 4.140625 3.394531 7.5 7.539062 7.5zm0 0"/><path d="m396.589844 222c4.144531 0 7.5-3.355469 7.5-7.5 0-4.140625-3.355469-7.5-7.5-7.5h-.078125c-4.144531 0-7.460938 3.359375-7.460938 7.5 0 4.144531 3.394531 7.5 7.539063 7.5zm0 0"/><path d="m419.386719 207h-.078125c-4.140625 0-7.460938 3.359375-7.460938 7.5 0 4.144531 3.398438 7.5 7.539063 7.5 4.144531 0 7.5-3.355469 7.5-7.5 0-4.140625-3.355469-7.5-7.5-7.5zm0 0"/><path d="m396.589844 202.515625c4.144531 0 7.5-3.355469 7.5-7.5 0-4.140625-3.355469-7.5-7.5-7.5h-.078125c-4.144531 0-7.460938 3.359375-7.460938 7.5 0 4.144531 3.394531 7.5 7.539063 7.5zm0 0"/><path d="m419.386719 187.515625h-.078125c-4.140625 0-7.460938 3.359375-7.460938 7.5 0 4.144531 3.398438 7.5 7.539063 7.5 4.144531 0 7.5-3.355469 7.5-7.5 0-4.140625-3.355469-7.5-7.5-7.5zm0 0"/><path d="m394.089844 237.726562-13.164063 3.144532c-.609375-15.363282-7.007812-29.257813-17.078125-39.558594l17.753906-20.832031c4.816407-5.652344 5.527344-13.457031 1.8125-19.886719-3.71875-6.429688-10.84375-9.703125-18.140624-8.351562l-63.359376 11.769531c-1.367187.261719-2.097656-.507813-2.457031-1.191407-.363281-.683593-.582031-1.710937.410157-2.699218l71.265624-71.269532c2.929688-2.929687 2.929688-7.679687 0-10.609374-2.929687-2.925782-7.675781-2.925782-10.605468 0l-71.269532 71.269531c-5.476562 5.476562-6.683593 13.441406-3.074218 20.296875 3.605468 6.851562 10.851562 10.359375 18.46875 8.953125l63.363281-11.769531c1.324219-.246094 2.042969.46875 2.410156 1.109374.375.644532.632813 1.625-.238281 2.648438l-18.070312 21.203125c-9.101563-5.554687-19.785157-8.757813-31.203126-8.757813-33.125 0-60.070312 26.949219-60.070312 60.074219 0 33.121094 26.945312 60.070313 60.070312 60.070313 28.527344 0 52.457032-19.992188 58.554688-46.699219l18.105469-4.328125c1.3125-.3125 2.070312.367188 2.472656.988281.402344.625.710937 1.59375-.109375 2.660157l-31.042969 40.21875c-2.527343 3.28125-1.921875 7.992187 1.355469 10.519531 1.363281 1.054687 2.976562 1.566406 4.578125 1.566406 2.242187 0 4.464844-1.003906 5.941406-2.917969l31.039063-40.222656c4.542968-5.886719 4.871094-13.722656.832031-19.96875-4.039063-6.242188-11.328125-9.160156-18.550781-7.429688zm-28.105469 5.542969c0 .394531-.019531.785157-.027344 1.179688l-41.945312 10.023437c-1.34375.324219-2.101563-.386718-2.5-1.035156-.398438-.648438-.6875-1.644531.210937-2.695312l32.351563-37.960938c7.386719 8.03125 11.910156 18.738281 11.910156 30.488281zm-45.070313 45.074219c-24.855468 0-45.074218-20.222656-45.074218-45.074219 0-24.851562 20.21875-45.074219 45.074218-45.074219 7.703126 0 14.957032 1.949219 21.308594 5.367188l-31.917968 37.449219c-4.945313 5.804687-5.566407 13.761719-1.582032 20.265625 3.988282 6.503906 11.355469 9.558594 18.773438 7.785156l34.980468-8.359375c-6.832031 16.222656-22.890624 27.640625-41.5625 27.640625zm0 0"/><path d="m51.050781 372.710938h89.011719c9.648438 0 17.5-7.851563 17.5-17.5v-155.675782c0-4.144531-3.355469-7.5-7.5-7.5s-7.5 3.355469-7.5 7.5v155.675782c0 1.378906-1.121094 2.5-2.5 2.5h-89.011719c-8.84375 0-16.035156-7.195313-16.035156-16.039063v-310.136719c0-8.84375 7.191406-16.035156 16.035156-16.035156h89.011719c1.378906 0 2.5 1.121094 2.5 2.5v148.875c0 4.140625 3.355469 7.5 7.5 7.5s7.5-3.359375 7.5-7.5v-148.875c0-9.648438-7.851562-17.5-17.5-17.5h-89.011719c-17.113281 0-31.035156 13.921875-31.035156 31.035156v310.136719c0 17.113281 13.921875 31.039063 31.035156 31.039063zm0 0"/><path d="m81.707031 277.402344c-16.292969 0-29.550781 13.253906-29.550781 29.550781s13.257812 29.550781 29.550781 29.550781c16.296875 0 29.550781-13.253906 29.550781-29.550781s-13.253906-29.550781-29.550781-29.550781zm0 44.101562c-8.023437 0-14.550781-6.527344-14.550781-14.550781s6.527344-14.550781 14.550781-14.550781c8.023438 0 14.550781 6.527344 14.550781 14.550781s-6.527343 14.550781-14.550781 14.550781zm0 0"/><path d="m81.707031 197.167969c-16.292969 0-29.550781 13.257812-29.550781 29.554687 0 16.292969 13.257812 29.550782 29.550781 29.550782 16.296875 0 29.550781-13.257813 29.550781-29.550782 0-16.296875-13.253906-29.554687-29.550781-29.554687zm0 44.105469c-8.023437 0-14.550781-6.527344-14.550781-14.554688 0-8.023438 6.527344-14.550781 14.550781-14.550781 8.023438 0 14.550781 6.527343 14.550781 14.550781 0 8.027344-6.527343 14.554688-14.550781 14.554688zm0 0"/><path d="m81.707031 116.9375c-16.292969 0-29.550781 13.253906-29.550781 29.550781s13.257812 29.550781 29.550781 29.550781c16.296875 0 29.550781-13.253906 29.550781-29.550781s-13.253906-29.550781-29.550781-29.550781zm0 44.101562c-8.023437 0-14.550781-6.527343-14.550781-14.550781 0-8.023437 6.527344-14.550781 14.550781-14.550781 8.023438 0 14.550781 6.527344 14.550781 14.550781 0 8.023438-6.527343 14.550781-14.550781 14.550781zm0 0"/><path d="m81.707031 36.703125c-16.292969 0-29.550781 13.257813-29.550781 29.554687 0 16.292969 13.257812 29.550782 29.550781 29.550782 16.296875 0 29.550781-13.257813 29.550781-29.550782 0-16.296874-13.253906-29.554687-29.550781-29.554687zm0 44.105469c-8.023437 0-14.550781-6.527344-14.550781-14.554688 0-8.019531 6.527344-14.550781 14.550781-14.550781 8.023438 0 14.550781 6.527344 14.550781 14.550781 0 8.027344-6.527343 14.554688-14.550781 14.554688zm0 0"/></svg>