<svg height="512pt" viewBox="-73 0 512 512" width="512pt" xmlns="http://www.w3.org/2000/svg"><path d="m359.140625 17.5v477c0 5.519531-4.480469 10-10 10h-331.640625c-5.519531 0-10-4.480469-10-10v-377.320312c0-1.460938.320312-2.890626.929688-4.191407.480468-1.058593 1.160156-2.039062 2-2.878906l99.679687-99.679687c.839844-.839844 1.820313-1.519532 2.882813-2.007813 1.296874-.601563 2.730468-.921875 4.1875-.921875h231.960937c5.519531 0 10 4.480469 10 10zm0 0" fill="#e3f4ff"/><path d="m359.140625 17.5v477c0 5.519531-4.480469 10-10 10h-21.878906c5.519531 0 10-4.480469 10-10v-477c0-5.519531-4.480469-10-10-10h21.878906c5.519531 0 10 4.480469 10 10zm0 0" fill="#bddff4"/><path d="m112.992188 8.421875-.191407 94.398437c-.019531 5.5-4.480469 9.960938-9.980469 9.980469l-94.390624.1875c.480468-1.058593 1.160156-2.039062 2-2.878906l99.679687-99.679687c.839844-.839844 1.820313-1.519532 2.882813-2.007813zm0 0" fill="#fd6096"/><path d="m309.320312 196.347656c0 47.457032-38.472656 85.933594-85.929687 85.933594-23.734375 0-45.214844-9.621094-60.761719-25.171875-15.550781-15.550781-25.171875-37.027344-25.171875-60.761719 0-47.457031 38.476563-85.933594 85.933594-85.933594s85.929687 38.476563 85.929687 85.933594zm0 0" fill="#64bdff"/><path d="m243.304688 216.265625c-5.304688 5.304687-11.277344 9.921875-17.8125 13.71875l-64.367188 37.496094c-5.765625 3.359375-12.226562-3.101563-8.867188-8.867188l37.496094-64.367187c3.796875-6.535156 8.414063-12.507813 13.71875-17.8125 5.304688-5.304688 11.28125-9.921875 17.816406-13.722656l64.363282-37.492188c5.765625-3.359375 12.226562 3.101562 8.867187 8.867188l-37.492187 64.363281c-3.800782 6.535156-8.417969 12.511719-13.722656 17.816406zm0 0" fill="#e3f4ff"/><path d="m243.304688 216.265625-39.832032-39.832031c5.304688-5.304688 11.28125-9.921875 17.816406-13.722656l64.363282-37.492188c5.765625-3.359375 12.226562 3.101562 8.867187 8.867188l-37.492187 64.363281c-3.800782 6.535156-8.417969 12.511719-13.722656 17.816406zm0 0" fill="#fc3e81"/><path d="m7.5 183.171875c4.144531 0 7.5-3.359375 7.5-7.5v-55.191406l87.847656-.179688c9.589844-.035156 17.417969-7.867187 17.453125-17.464843l.179688-87.835938h28.511719c4.140624 0 7.5-3.359375 7.5-7.5s-3.359376-7.5-7.5-7.5h-31.808594c-4.675782 0-9.070313 1.820312-12.375 5.125l-99.679688 99.679688c-3.308594 3.304687-5.128906 7.703124-5.128906 12.375v58.488281c0 4.144531 3.359375 7.503906 7.5 7.503906zm97.960938-157.484375-.160157 77.105469c-.003906 1.378906-1.128906 2.503906-2.496093 2.507812l-77.113282.160157zm0 0"/><path d="m349.140625 0h-167.488281c-4.144532 0-7.5 3.359375-7.5 7.5s3.355468 7.5 7.5 7.5h167.488281c1.378906 0 2.5 1.121094 2.5 2.5v477c0 1.378906-1.121094 2.5-2.5 2.5h-331.640625c-1.378906 0-2.5-1.121094-2.5-2.5v-286.171875c0-4.140625-3.355469-7.5-7.5-7.5-4.140625 0-7.5 3.359375-7.5 7.5v286.171875c0 9.648438 7.851562 17.5 17.5 17.5h331.640625c9.648437 0 17.5-7.851562 17.5-17.5v-477c0-9.648438-7.851563-17.5-17.5-17.5zm0 0"/><path d="m294.0625 61.5c4.144531 0 7.5-3.359375 7.5-7.5s-3.355469-7.5-7.5-7.5h-.078125c-4.140625 0-7.460937 3.359375-7.460937 7.5s3.398437 7.5 7.539062 7.5zm0 0"/><path d="m314.304688 46.5h-.078126c-4.144531 0-7.460937 3.359375-7.460937 7.5s3.394531 7.5 7.539063 7.5c4.140624 0 7.5-3.359375 7.5-7.5s-3.359376-7.5-7.5-7.5zm0 0"/><path d="m267.257812 61.5c4.144532 0 7.5-3.359375 7.5-7.5s-3.355468-7.5-7.5-7.5h-39c-4.140624 0-7.5 3.359375-7.5 7.5s3.359376 7.5 7.5 7.5zm0 0"/><path d="m53.320312 203.519531h42.039063c4.144531 0 7.5-3.359375 7.5-7.5s-3.355469-7.5-7.5-7.5h-42.039063c-4.140624 0-7.5 3.359375-7.5 7.5s3.359376 7.5 7.5 7.5zm0 0"/><path d="m53.320312 224.519531h42.039063c4.144531 0 7.5-3.359375 7.5-7.5s-3.355469-7.5-7.5-7.5h-42.039063c-4.140624 0-7.5 3.359375-7.5 7.5s3.359376 7.5 7.5 7.5zm0 0"/><path d="m53.320312 245.519531h42.039063c4.144531 0 7.5-3.359375 7.5-7.5s-3.355469-7.5-7.5-7.5h-42.039063c-4.140624 0-7.5 3.359375-7.5 7.5s3.359376 7.5 7.5 7.5zm0 0"/><path d="m53.320312 266.519531h42.039063c4.144531 0 7.5-3.359375 7.5-7.5s-3.355469-7.5-7.5-7.5h-42.039063c-4.140624 0-7.5 3.359375-7.5 7.5s3.359376 7.5 7.5 7.5zm0 0"/><path d="m41.582031 342c0 4.140625 3.355469 7.5 7.5 7.5h15.175781c4.140626 0 7.5-3.359375 7.5-7.5s-3.359374-7.5-7.5-7.5h-15.175781c-4.144531 0-7.5 3.359375-7.5 7.5zm0 0"/><path d="m317.5625 334.5h-229.292969c-4.140625 0-7.5 3.359375-7.5 7.5s3.359375 7.5 7.5 7.5h229.292969c4.140625 0 7.5-3.359375 7.5-7.5s-3.359375-7.5-7.5-7.5zm0 0"/><path d="m317.5625 359.5h-268.480469c-4.144531 0-7.5 3.359375-7.5 7.5s3.355469 7.5 7.5 7.5h268.480469c4.140625 0 7.5-3.359375 7.5-7.5s-3.359375-7.5-7.5-7.5zm0 0"/><path d="m325.0625 392c0-4.140625-3.359375-7.5-7.5-7.5h-268.480469c-4.144531 0-7.5 3.359375-7.5 7.5s3.355469 7.5 7.5 7.5h268.480469c4.140625 0 7.5-3.359375 7.5-7.5zm0 0"/><path d="m53.359375 176.5c4.144531 0 7.5-3.359375 7.5-7.5s-3.355469-7.5-7.5-7.5h-.078125c-4.140625 0-7.460938 3.359375-7.460938 7.5s3.398438 7.5 7.539063 7.5zm0 0"/><path d="m175.820312 450.332031v13c0 4.140625 3.359376 7.5 7.5 7.5 4.144532 0 7.5-3.359375 7.5-7.5v-13c0-4.140625-3.355468-7.5-7.5-7.5-4.140624 0-7.5 3.355469-7.5 7.5zm0 0"/><path d="m204.058594 449.332031c-4.144532 0-7.5 3.359375-7.5 7.5s3.355468 7.5 7.5 7.5h14.40625c4.140625 0 7.5-3.359375 7.5-7.5s-3.359375-7.5-7.5-7.5zm0 0"/><path d="m148.175781 449.332031c-4.140625 0-7.5 3.359375-7.5 7.5s3.359375 7.5 7.5 7.5h14.40625c4.144531 0 7.5-3.359375 7.5-7.5s-3.355469-7.5-7.5-7.5zm0 0"/><path d="m129.957031 196.347656c0 19.964844 6.1875 38.910156 17.882813 54.945313l-2.0625 3.539062c-3.246094 5.570313-2.363282 12.375 2.195312 16.933594 2.726563 2.726563 6.253906 4.136719 9.84375 4.136719 2.414063 0 4.851563-.636719 7.089844-1.941406l3.519531-2.050782c16.027344 11.703125 34.945313 17.871094 54.964844 17.871094 19.828125 0 38.785156-6.152344 54.820313-17.792969 3.351562-2.433593 4.097656-7.125 1.664062-10.476562-2.433594-3.351563-7.121094-4.097657-10.476562-1.664063-13.457032 9.769532-29.367188 14.933594-46.007813 14.933594-14.535156 0-28.371094-3.871094-40.546875-11.269531l46.425781-27.050781c14.152344-8.242188 25.988281-20.082032 34.234375-34.230469l27.042969-46.421875c7.394531 12.183594 11.273437 26.027344 11.273437 40.539062 0 14.800782-4.160156 29.230469-12.035156 41.726563-2.207031 3.503906-1.152344 8.136719 2.351563 10.34375 1.242187.78125 2.625 1.15625 3.988281 1.15625 2.492188 0 4.929688-1.242188 6.355469-3.503907 9.382812-14.894531 14.339843-32.089843 14.339843-49.722656 0-19.992187-6.175781-38.917968-17.875-54.949218l2.058594-3.53125c3.242188-5.570313 2.363282-12.375-2.195312-16.9375-4.558594-4.558594-11.363282-5.4375-16.9375-2.195313l-3.53125 2.058594c-16.035156-11.695313-34.964844-17.875-54.949219-17.875-51.519531 0-93.433594 41.910156-93.433594 93.429687zm91.761719 27.152344-61.054688 35.574219 35.570313-61.058594c2.203125-3.78125 4.714844-7.363281 7.492187-10.71875l28.714844 28.710937c-3.355468 2.777344-6.9375 5.289063-10.722656 7.492188zm28.824219-28.820312c-2.203125 3.78125-4.714844 7.367187-7.492188 10.722656l-28.714843-28.714844c3.355468-2.777344 6.941406-5.289062 10.722656-7.492188l61.054687-35.570312zm-27.152344-76.761719c14.507813 0 28.351563 3.878906 40.535156 11.273437l-46.417969 27.042969c-14.152343 8.246094-25.988281 20.082031-34.234374 34.234375l-27.039063 46.410156c-7.390625-12.1875-11.277344-26.035156-11.277344-40.53125 0-43.246094 35.183594-78.429687 78.433594-78.429687zm0 0"/></svg>