<svg height="511pt" viewBox="1 -18 511.999 511" width="511pt" xmlns="http://www.w3.org/2000/svg"><path d="m471.660156 145.921875c0 18.332031-4.28125 35.671875-11.910156 51.050781-18.808594 37.988282-57.980469 64.109375-103.25 64.109375-63.601562 0-115.160156-51.558593-115.160156-115.160156 0-40.039063 20.441406-75.308594 51.449218-95.9375 18.242188-12.152344 40.152344-19.222656 63.710938-19.222656 63.601562 0 115.160156 51.5625 115.160156 115.160156zm0 0" fill="#fedfc5"/><path d="m459.75 196.972656c-18.808594 37.988282-57.980469 64.109375-103.25 64.109375-63.601562 0-115.160156-51.558593-115.160156-115.160156 0-40.039063 20.441406-75.308594 51.449218-95.9375 4.160157 9.339844 5.53125 19.417969 3.949219 29.386719-1.089843 6.902344-3.507812 13.339844-6.957031 19.0625 12.1875 7 23.4375 15.769531 33.328125 26.121094 9.5-2.523438 19.3125-3.792969 29.242187-3.792969 49.578126 0 91.847657 31.871093 107.398438 76.210937zm0 0" fill="#edb48a"/><path d="m445.371094 152.761719c0 4.25-1.382813 8.171875-3.722656 11.351562-3.488282 4.738281-9.109376 7.820313-15.449219 7.820313-10.589844 0-19.167969-8.582032-19.167969-19.171875 0-5.648438 2.4375-10.71875 6.320312-14.230469 3.398438-3.058594 7.898438-4.9375 12.847657-4.9375 10.582031 0 19.171875 8.578125 19.171875 19.167969zm0 0" fill="#64bdff"/><path d="m441.648438 164.113281c-3.488282 4.738281-9.109376 7.820313-15.449219 7.820313-10.589844 0-19.167969-8.582032-19.167969-19.171875 0-5.648438 2.4375-10.71875 6.320312-14.230469 10.808594 6.890625 20.378907 15.550781 28.296876 25.582031zm0 0" fill="#43a3f9"/><path d="m188.078125 387.792969s134.507813-20.519531 178.210937 66.023437c4.125 8.171875 12.40625 13.414063 21.5625 13.414063 18.167969 0 29.773438-19.378907 21.195313-35.394531l-64.046875-119.609376h-125zm0 0" fill="#f01054"/><path d="m453.476562 246.050781c.425782-3.777343.652344-7.617187.652344-11.511719 0-56.210937-45.570312-101.78125-101.78125-101.78125-11.5625 0-22.671875 1.933594-33.027344 5.484376-24.964843-29.078126-61.992187-47.5-103.324218-47.5-57.660156 0-106.949219 35.847656-126.792969 86.476562-46.160156 6.382812-81.703125 45.988281-81.703125 93.902344 0 52.359375 42.445312 94.808594 94.808594 94.808594 6.933594 0 13.6875-.753907 20.199218-2.167969 14.804688 33.070312 47.996094 56.109375 86.570313 56.109375 39.183594 0 72.8125-23.769532 87.257813-57.675782 14.824218 9.605469 32.503906 15.1875 51.480468 15.1875 22.367188 0 42.921875-7.75 59.132813-20.707031 10.121093 7.300781 22.539062 11.613281 35.972656 11.613281 34.007813 0 61.578125-27.570312 61.578125-61.582031 0-30.40625-22.046875-55.648437-51.023438-60.65625zm0 0" fill="#fd82ac"/><path d="m504.492188 305.71875c.523437 33.433594-26.257813 61.535156-59.679688 62.539062-14.15625.425782-27.269531-3.941406-37.863281-11.582031-16.210938 12.960938-36.757813 20.710938-59.128907 20.710938-18.980468 0-36.660156-5.589844-51.480468-15.191407-14.449219 33.902344-48.078125 57.679688-87.261719 57.679688-38.578125 0-71.769531-23.039062-86.566406-56.109375-5.898438 1.277344-12 2.015625-18.246094 2.140625-50.652344 1.035156-93.585937-38.480469-96.59375-89.054688-.425781-7.113281-.050781-14.085937 1.015625-20.816406 7.222656 45.203125 46.390625 79.75 93.621094 79.75 4.441406 0 8.8125-.304687 13.09375-.902344 4.136718-.574218 8.238281 1.382813 10.226562 5.054688 16.019532 29.648438 47.378906 49.789062 83.449219 49.789062 35.585937 0 66.597656-19.609374 82.8125-48.609374 2.628906-4.699219 8.488281-6.40625 13.296875-3.980469 12.8125 6.460937 27.296875 10.101562 42.632812 10.101562 20.003907 0 38.550782-6.199219 53.84375-16.769531 3.132813-2.164062 7.246094-2.433594 10.542969-.527344 9.039063 5.214844 19.523438 8.207032 30.710938 8.207032 28.8125 0 53-19.78125 59.722656-46.507813 1.140625 4.507813 1.773437 9.226563 1.851563 14.078125zm0 0" fill="#fd6096"/><path d="m284.890625 77.5c-3.601563 22.789062-26.660156 40.667969-51.941406 32.1875-.570313-.1875-1.128907-.390625-1.699219-.597656-13.171875-4.910156-23.179688-14.589844-28.800781-26.339844-5.917969-12.339844-7-26.980469-1.828125-40.8125 10.089844-27.007812 40.160156-40.71875 67.160156-30.628906.019531 0 .039062.011718.046875.019531 2.871094 1.070313 4.5625 4.039063 4.09375 7.070313-1.652344 10.589843 2.839844 22.96875 8.566406 33.730468 4.492188 8.429688 5.691407 17.21875 4.402344 25.371094zm0 0" fill="#e29c6d"/><path d="m284.890625 77.5c-3.601563 22.789062-26.660156 40.667969-51.941406 32.1875-.570313-.1875-1.128907-.390625-1.699219-.597656-13.171875-4.910156-23.179688-14.589844-28.800781-26.339844 11.109375-11.589844 26.75-18.800781 44.070312-18.800781 14.539063 0 27.878907 5.070312 38.371094 13.550781zm0 0" fill="#f9b200"/><path d="m230.195312 110.191406h28.382813c5.199219 0 9.527344 3.980469 9.964844 9.15625l12.589843 149.144532h-73.488281l12.589844-149.144532c.433594-5.179687 4.765625-9.15625 9.960937-9.15625zm0 0" fill="#bddff4"/><path d="m281.128906 268.492188h-17.539062l-13.359375-158.300782h8.34375c5.199219 0 9.527343 3.980469 9.964843 9.15625zm0 0" fill="#9cc6db"/><path d="m159.867188 299.003906c0-39.269531 37.222656-71.101562 83.132812-71.101562s83.132812 31.832031 83.132812 71.101562zm0 0" fill="#fd82ac"/><path d="m351.660156 82.75c0 10.585938-8.582031 19.167969-19.171875 19.167969-10.585937 0-19.167969-8.582031-19.167969-19.167969 0-10.589844 8.582032-19.171875 19.167969-19.171875 10.589844 0 19.171875 8.582031 19.171875 19.171875zm0 0" fill="#f01054"/><path d="m418.367188 94.222656c0 10.589844-8.582032 19.171875-19.171876 19.171875-10.585937 0-19.171874-8.582031-19.171874-19.171875 0-10.585937 8.585937-19.171875 19.171874-19.171875 10.589844 0 19.171876 8.585938 19.171876 19.171875zm0 0" fill="#9be058"/><path d="m461.480469 240.164062c.097656-1.882812.148437-3.761718.148437-5.625 0-7.5-.761718-14.824218-2.207031-21.898437 12.910156-19.875 19.738281-42.882813 19.738281-66.71875 0-9.746094-1.152344-19.472656-3.433594-28.898437-.972656-4.027344-5.023437-6.503907-9.050781-5.53125-4.027343.972656-6.503906 5.027343-5.53125 9.054687 2 8.273437 3.015625 16.8125 3.015625 25.375 0 16.441406-3.699218 32.433594-10.777344 46.992187-2.828124-6.84375-6.328124-13.34375-10.429687-19.410156 6.171875-4.980468 9.914063-12.535156 9.914063-20.742187 0-14.707031-11.964844-26.671875-26.671876-26.671875-9.183593 0-17.488281 4.761718-22.308593 12.109375-15.363281-8.253907-32.914063-12.941407-51.542969-12.941407-10.4375 0-20.730469 1.464844-30.65625 4.363282-10.996094-11.925782-24.09375-22.042969-38.378906-29.652344 2.582031-3.480469 4.722656-7.3125 6.304687-11.390625 3.605469-9.273437 4.207031-19.070313 1.898438-28.476563 18.613281-14.101562 41.539062-21.839843 64.988281-21.839843 38.445312 0 74.242188 20.730469 93.417969 54.109375 1.386719 2.414062 3.914062 3.765625 6.511719 3.765625 1.265624 0 2.550781-.324219 3.726562-1 3.59375-2.0625 4.832031-6.648438 2.769531-10.238281-21.84375-38.019532-62.625-61.636719-106.425781-61.636719-25.378906 0-50.226562 7.949219-70.835938 22.519531-5.1875-10.488281-7.378906-19.519531-6.335937-26.234375 1.019531-6.527344-2.710937-12.9375-8.925781-15.269531-30.835938-11.515625-65.289063 4.195312-76.808594 35.03125-5.730469 15.339844-4.714844 31.578125 1.542969 45.441406-14.761719 2.144531-29.003907 6.550781-42.449219 13.160156-3.714844 1.828125-5.246094 6.324219-3.417969 10.042969 1.304688 2.652344 3.964844 4.191406 6.734375 4.191406 1.109375 0 2.238282-.25 3.304688-.773437 14.054687-6.910156 29.089844-11.132813 44.703125-12.574219 3.5 4.140625 7.585937 7.824219 12.195312 10.925781-1.921875 2.550782-3.167969 5.636719-3.453125 8.992188l-9.242187 109.507812c-5.0625 2.128906-9.929688 4.671875-14.535157 7.640625-3.480468 2.242188-4.484374 6.882813-2.242187 10.363281 2.246094 3.484376 6.882813 4.488282 10.367187 2.246094 13.277344-8.554687 29.148438-13.074218 45.894532-13.074218 19.574218 0 38.148437 6.285156 52.300781 17.691406 1.386719 1.117187 3.050781 1.660156 4.703125 1.660156 2.1875 0 4.359375-.953125 5.84375-2.792969 2.597656-3.222656 2.09375-7.945312-1.132812-10.542969-5.878907-4.742187-12.390626-8.714843-19.347657-11.90625l-4.554687-53.996093c10.78125-13.636719 24.917968-24.054688 41.058594-30.214844 9.789062-3.34375 20.042968-5.039063 30.476562-5.039063 51.988281 0 94.28125 42.292969 94.28125 94.28125 0 3.457032-.199219 6.992188-.585938 10.503907-2.871093 18.105469-11.292968 34.980469-24.359374 48.8125-2.84375 3.007812-2.707032 7.757812.300781 10.601562 1.449219 1.371094 3.300781 2.046875 5.152343 2.046875 1.988282 0 3.976563-.789062 5.449219-2.347656 13.273438-14.050781 22.417969-30.851562 26.730469-48.988281 22.214844 7.003906 37.683594 27.640625 37.683594 51.539062 0 29.820313-24.257813 54.082031-54.078125 54.082031-11.410157 0-22.332031-3.527343-31.582031-10.195312-2.730469-1.972656-6.4375-1.878906-9.066407.222656-15.609375 12.472656-34.441406 19.0625-54.453125 19.0625-16.894531 0-33.285156-4.832031-47.402344-13.980468-1.855468-1.203126-4.152343-1.523438-6.269531-.875-2.117187.644531-3.839843 2.195312-4.707031 4.230468-10.941406 25.667969-33.660156 44.703125-60.785156 50.914063-4.035156.921875-6.558594 4.945312-5.636719 8.984375.796875 3.472656 3.886719 5.828125 7.304687 5.828125.554688 0 1.117188-.0625 1.683594-.191407 17.875-4.09375 34.117188-12.945312 47.191406-25.25 38.808594 9.476563 65.855469 28.859376 80.398438 57.65625 5.460938 10.816407 16.289062 17.53125 28.257812 17.53125 11.195313 0 21.3125-5.730468 27.0625-15.335937 5.75-9.601563 6.027344-21.226563.742188-31.097656l-27.667969-51.667969c6.765625-2.882812 13.234375-6.480469 19.25-10.769531 10.753907 6.515625 22.980469 9.933593 35.683594 9.933593 38.089844 0 69.078125-30.992187 69.078125-69.082031 0-31.371093-20.871094-58.34375-50.519531-66.542969zm-225.875-137.472656c-.089844-.035156-.179688-.078125-.273438-.109375-.488281-.164062-.972656-.335937-1.457031-.515625-9.453125-3.53125-17.007812-9.949218-22.042969-17.875 9.660157-8.253906 21.789063-12.742187 34.6875-12.742187 10.859375 0 21.132813 3.148437 29.976563 9.152343-.253906.851563-.53125 1.699219-.859375 2.542969-3.519531 9.050781-10.898438 16.324219-19.742188 19.457031-.074219.023438-.144531.058594-.21875.085938h-20.070312zm-27.960938-58.132812c8.527344-22.816406 33.824219-34.578125 56.75-26.503906-1.386719 10.535156 1.796875 23.179687 9.472657 37.601562 1.363281 2.558594 2.367187 5.210938 3.035156 7.902344-9.390625-4.632813-19.804688-7.109375-30.382813-7.109375-14.878906 0-28.945312 4.679687-40.632812 13.335937-1.800781-8.136718-1.367188-16.855468 1.757812-25.226562zm35.355469 175.84375c-8.21875 0-16.269531.949218-24.007812 2.78125l8.710937-103.203125c.113281-1.308594 1.183594-2.289063 2.492187-2.289063h28.382813c1.289063 0 2.382813 1.003906 2.492187 2.289063l8.773438 103.945312c-8.605469-2.308593-17.632812-3.523437-26.84375-3.523437zm36.089844-65.28125-3.074219-36.402344c-.203125-2.394531-.90625-4.644531-1.980469-6.664062 11.953125 6.066406 23.042969 14.085937 32.609375 23.570312-10.128906 5.050781-19.40625 11.625-27.554687 19.496094zm137.480468-8.941406c2.128907-3.09375 5.691407-5.089844 9.625-5.089844 6.4375 0 11.671876 5.238281 11.671876 11.671875 0 3.507812-1.554688 6.742187-4.140626 8.921875-5.152343-5.746094-10.90625-10.949219-17.15625-15.503906zm-14.132812 289.195312c2.769531 5.175781 2.625 11.273438-.390625 16.3125-3.019531 5.035156-8.320313 8.042969-14.191406 8.042969-6.277344 0-11.976563-3.5625-14.871094-9.296875-15.605469-30.902344-43.335937-52.191406-82.496094-63.414063 3.398438-4.453125 6.445313-9.203125 9.09375-14.207031 14.78125 7.917969 31.296875 12.070312 48.238281 12.070312 8.738282 0 17.40625-1.152343 25.789063-3.34375zm0 0"/><path d="m198.5625 411.734375c-30.058594-3.609375-56.453125-22.980469-69.003906-50.597656-10.980469-30.105469-4.347656-63.476563 17.328125-87.125 2.796875-3.054688 2.589843-7.800781-.464844-10.597657-3.054687-2.800781-7.796875-2.59375-10.597656.460938-23.449219 25.589844-31.902344 60.867188-23.027344 93.914062-3.480469.417969-6.988281.640626-10.492187.640626-48.140626 0-87.304688-39.167969-87.304688-87.308594 0-43.367188 32.339844-80.542969 75.230469-86.472656 2.6875-.371094 4.964843-2.167969 5.953125-4.691407 7.753906-19.785156 20.5-37.546875 36.855468-51.367187 3.164063-2.671875 3.5625-7.402344.886719-10.566406-2.671875-3.164063-7.40625-3.5625-10.570312-.886719-17.140625 14.484375-30.730469 32.859375-39.496094 53.34375-22.566406 4.121093-43.1875 15.789062-58.453125 33.167969-16.382812 18.65625-25.40625 42.617187-25.40625 67.472656 0 56.410156 45.894531 102.304687 102.308594 102.304687 5.335937 0 10.675781-.414062 15.945312-1.242187 15.492188 29.769531 45.074219 50.429687 78.523438 54.441406.300781.039062.601562.054688.902344.054688 3.742187 0 6.976562-2.796876 7.4375-6.605469.492187-4.113281-2.441407-7.847657-6.554688-8.339844zm0 0"/><path d="m250.5 316.402344c0-4.144532-3.355469-7.5-7.5-7.5h-.078125c-4.144531 0-7.460937 3.355468-7.460937 7.5 0 4.140625 3.394531 7.5 7.539062 7.5s7.5-3.359375 7.5-7.5zm0 0"/><path d="m267.539062 330.304688c0-4.140626-3.355468-7.5-7.5-7.5h-.078124c-4.144532 0-7.460938 3.359374-7.460938 7.5 0 4.144531 3.394531 7.5 7.539062 7.5 4.144532 0 7.5-3.355469 7.5-7.5zm0 0"/><path d="m216 335.804688h-.078125c-4.144531 0-7.460937 3.359374-7.460937 7.5 0 4.144531 3.394531 7.5 7.539062 7.5s7.5-3.355469 7.5-7.5c0-4.140626-3.355469-7.5-7.5-7.5zm0 0"/><path d="m453.5625 343.902344c4.140625-.027344 7.480469-3.40625 7.453125-7.546875-.027344-4.144531-3.382813-7.484375-7.546875-7.453125h-.078125c-4.140625.023437-7.4375 3.402344-7.414063 7.546875.027344 4.125 3.417969 7.453125 7.539063 7.453125zm0 0"/><path d="m412.015625 219.3125c4.140625-.027344 7.476563-3.40625 7.453125-7.546875-.027344-4.144531-3.453125-7.480469-7.546875-7.453125h-.078125c-4.144531.023438-7.441406 3.402344-7.414062 7.546875.023437 4.125 3.417968 7.453125 7.539062 7.453125zm0 0"/><path d="m93.921875 267.3125h-.078125c-4.144531.023438-7.441406 3.402344-7.414062 7.546875.023437 4.125 3.417968 7.453125 7.539062 7.453125h.046875c4.140625-.027344 7.476563-3.40625 7.453125-7.546875-.027344-4.128906-3.378906-7.453125-7.5-7.453125-.015625 0-.03125 0-.046875 0zm0 0"/><path d="m166.78125 164.605469c4.144531-.027344 7.480469-3.40625 7.453125-7.546875-.023437-4.125-3.378906-7.453125-7.496094-7.453125-.015625 0-.035156 0-.050781 0h-.078125c-4.140625.023437-7.4375 3.40625-7.414063 7.546875.027344 4.125 3.417969 7.453125 7.539063 7.453125zm0 0"/><path d="m332.488281 56.078125c-14.707031 0-26.671875 11.964844-26.671875 26.667969 0 14.707031 11.964844 26.671875 26.671875 26.671875s26.671875-11.964844 26.671875-26.671875c0-14.703125-11.964844-26.667969-26.671875-26.667969zm0 38.339844c-6.433593 0-11.671875-5.234375-11.671875-11.671875 0-6.433594 5.238282-11.667969 11.671875-11.667969 6.4375 0 11.671875 5.234375 11.671875 11.667969 0 6.4375-5.234375 11.671875-11.671875 11.671875zm0 0"/><path d="m372.523438 94.222656c0 14.707032 11.964843 26.671875 26.671874 26.671875 14.707032 0 26.671876-11.964843 26.671876-26.671875 0-14.707031-11.964844-26.671875-26.671876-26.671875-14.707031 0-26.671874 11.964844-26.671874 26.671875zm38.34375 0c0 6.4375-5.234376 11.671875-11.671876 11.671875-6.433593 0-11.671874-5.234375-11.671874-11.671875s5.238281-11.671875 11.671874-11.671875c6.4375 0 11.671876 5.234375 11.671876 11.671875zm0 0"/></svg>