<svg height="512pt" viewBox="-73 0 512 512" width="512pt" xmlns="http://www.w3.org/2000/svg"><path d="m359.140625 17.5v477c0 5.519531-4.480469 10-10 10h-331.640625c-5.519531 0-10-4.480469-10-10v-377.320312c0-1.460938.320312-2.890626.929688-4.191407.480468-1.058593 1.160156-2.039062 2-2.878906l99.679687-99.679687c.839844-.839844 1.820313-1.519532 2.882813-2.007813 1.296874-.601563 2.730468-.921875 4.1875-.921875h231.960937c5.519531 0 10 4.480469 10 10zm0 0" fill="#e3f4ff"/><path d="m359.140625 17.5v477c0 5.519531-4.480469 10-10 10h-21.878906c5.519531 0 10-4.480469 10-10v-477c0-5.519531-4.480469-10-10-10h21.878906c5.519531 0 10 4.480469 10 10zm0 0" fill="#bddff4"/><path d="m112.992188 8.421875-.191407 94.398437c-.019531 5.5-4.480469 9.960938-9.980469 9.980469l-94.390624.1875c.480468-1.058593 1.160156-2.039062 2-2.878906l99.679687-99.679687c.839844-.839844 1.820313-1.519532 2.882813-2.007813zm0 0" fill="#f9b200"/><path d="m322.757812 204.40625c0 52.1875-42.308593 94.5-94.5 94.5-26.097656 0-49.71875-10.582031-66.820312-27.679688-17.097656-17.101562-27.679688-40.722656-27.679688-66.820312 0-52.191406 42.3125-94.5 94.5-94.5 52.191407 0 94.5 42.308594 94.5 94.5zm0 0" fill="#fd6096"/><path d="m322.757812 204.40625h-94.5v-94.5c52.191407 0 94.5 42.308594 94.5 94.5zm0 0" fill="#f9b200"/><path d="m322.757812 204.40625c0 52.1875-42.308593 94.5-94.5 94.5-26.097656 0-49.71875-10.582031-66.820312-27.679688l66.820312-66.820312zm0 0" fill="#9be058"/><path d="m349.140625 0h-231.957031c-4.675782 0-9.070313 1.820312-12.375 5.125l-99.683594 99.683594c-3.304688 3.304687-5.125 7.699218-5.125 12.375v377.316406c0 9.648438 7.851562 17.5 17.5 17.5h331.640625c9.648437 0 17.5-7.851562 17.5-17.5v-43.171875c0-4.140625-3.359375-7.5-7.5-7.5-4.144531 0-7.5 3.359375-7.5 7.5v43.171875c0 1.378906-1.121094 2.5-2.5 2.5h-331.640625c-1.378906 0-2.5-1.121094-2.5-2.5v-374.019531l87.847656-.179688c9.589844-.035156 17.417969-7.867187 17.453125-17.464843l.179688-87.835938h228.660156c1.378906 0 2.5 1.121094 2.5 2.5v83.171875c0 4.140625 3.359375 7.5 7.5 7.5s7.5-3.359375 7.5-7.5v-83.171875c0-9.648438-7.851563-17.5-17.5-17.5zm-246.335937 105.300781-77.117188.160157 79.773438-79.773438-.160157 77.105469c-.003906 1.378906-1.128906 2.503906-2.496093 2.507812zm0 0"/><path d="m359.140625 125.828125c-4.140625 0-7.5 3.359375-7.5 7.5v31.34375c0 4.140625 3.359375 7.5 7.5 7.5s7.5-3.359375 7.5-7.5v-31.34375c0-4.140625-3.359375-7.5-7.5-7.5zm0 0"/><path d="m359.140625 189.828125c-4.140625 0-7.5 3.359375-7.5 7.5v221.34375c0 4.140625 3.359375 7.5 7.5 7.5s7.5-3.359375 7.5-7.5v-221.34375c0-4.140625-3.359375-7.5-7.5-7.5zm0 0"/><path d="m228.257812 102.40625c-56.242187 0-102 45.753906-102 102 0 27.242188 10.609376 52.855469 29.878907 72.121094 19.265625 19.269531 44.878906 29.878906 72.121093 29.878906 56.246094 0 102-45.757812 102-102 0-56.246094-45.753906-102-102-102zm86.675782 94.5h-79.175782v-79.175781c42.003907 3.605469 75.570313 37.175781 79.175782 79.175781zm-94.175782-79.175781v83.570312l-59.078124 59.082031c-13.207032-15.65625-20.421876-35.261718-20.421876-55.976562 0-45.445312 35.027344-82.859375 79.5-86.675781zm7.5 173.675781c-20.71875 0-40.316406-7.210938-55.972656-20.417969l59.078125-59.082031h83.570313c-3.816406 44.472656-41.230469 79.5-86.675782 79.5zm0 0"/><path d="m301.5625 54c0-4.140625-3.359375-7.5-7.5-7.5h-.078125c-4.140625 0-7.460937 3.359375-7.460937 7.5s3.398437 7.5 7.539062 7.5 7.5-3.359375 7.5-7.5zm0 0"/><path d="m321.804688 54c0-4.140625-3.359376-7.5-7.5-7.5h-.078126c-4.144531 0-7.460937 3.359375-7.460937 7.5s3.394531 7.5 7.539063 7.5c4.140624 0 7.5-3.359375 7.5-7.5zm0 0"/><path d="m267.257812 61.5c4.144532 0 7.5-3.359375 7.5-7.5s-3.355468-7.5-7.5-7.5h-39c-4.140624 0-7.5 3.359375-7.5 7.5s3.359376 7.5 7.5 7.5zm0 0"/><path d="m53.320312 203.519531h42.039063c4.144531 0 7.5-3.359375 7.5-7.5s-3.355469-7.5-7.5-7.5h-42.039063c-4.140624 0-7.5 3.359375-7.5 7.5s3.359376 7.5 7.5 7.5zm0 0"/><path d="m53.320312 224.519531h42.039063c4.144531 0 7.5-3.359375 7.5-7.5s-3.355469-7.5-7.5-7.5h-42.039063c-4.140624 0-7.5 3.359375-7.5 7.5s3.359376 7.5 7.5 7.5zm0 0"/><path d="m53.320312 245.519531h42.039063c4.144531 0 7.5-3.359375 7.5-7.5s-3.355469-7.5-7.5-7.5h-42.039063c-4.140624 0-7.5 3.359375-7.5 7.5s3.359376 7.5 7.5 7.5zm0 0"/><path d="m53.320312 266.519531h42.039063c4.144531 0 7.5-3.359375 7.5-7.5s-3.355469-7.5-7.5-7.5h-42.039063c-4.140624 0-7.5 3.359375-7.5 7.5s3.359376 7.5 7.5 7.5zm0 0"/><path d="m41.582031 342c0 4.140625 3.355469 7.5 7.5 7.5h15.175781c4.140626 0 7.5-3.359375 7.5-7.5s-3.359374-7.5-7.5-7.5h-15.175781c-4.144531 0-7.5 3.359375-7.5 7.5zm0 0"/><path d="m317.5625 334.5h-229.292969c-4.140625 0-7.5 3.359375-7.5 7.5s3.359375 7.5 7.5 7.5h229.292969c4.140625 0 7.5-3.359375 7.5-7.5s-3.359375-7.5-7.5-7.5zm0 0"/><path d="m317.5625 359.5h-268.480469c-4.144531 0-7.5 3.359375-7.5 7.5s3.355469 7.5 7.5 7.5h268.480469c4.140625 0 7.5-3.359375 7.5-7.5s-3.359375-7.5-7.5-7.5zm0 0"/><path d="m325.0625 392c0-4.140625-3.359375-7.5-7.5-7.5h-268.480469c-4.144531 0-7.5 3.359375-7.5 7.5s3.355469 7.5 7.5 7.5h268.480469c4.140625 0 7.5-3.359375 7.5-7.5zm0 0"/><path d="m53.359375 176.5c4.144531 0 7.5-3.359375 7.5-7.5s-3.355469-7.5-7.5-7.5h-.078125c-4.140625 0-7.460938 3.359375-7.460938 7.5s3.398438 7.5 7.539063 7.5zm0 0"/><path d="m175.820312 450.332031v13c0 4.140625 3.359376 7.5 7.5 7.5 4.144532 0 7.5-3.359375 7.5-7.5v-13c0-4.140625-3.355468-7.5-7.5-7.5-4.140624 0-7.5 3.355469-7.5 7.5zm0 0"/><path d="m204.058594 449.332031c-4.140625 0-7.5 3.359375-7.5 7.5s3.359375 7.5 7.5 7.5h14.40625c4.140625 0 7.5-3.359375 7.5-7.5s-3.359375-7.5-7.5-7.5zm0 0"/><path d="m148.175781 449.332031c-4.140625 0-7.5 3.359375-7.5 7.5s3.359375 7.5 7.5 7.5h14.40625c4.140625 0 7.5-3.359375 7.5-7.5s-3.359375-7.5-7.5-7.5zm0 0"/></svg>