<svg height="512pt" viewBox="0 -7 512.001 512" width="512pt" xmlns="http://www.w3.org/2000/svg"><path d="m463.25 141.847656-28.539062 37.46875-23.800782 31.25c-4.03125 5.289063-12.421875 1.269532-10.820312-5.191406l7.851562-31.707031h-21.910156c-4.460938 0-7.421875-4.621094-5.570312-8.671875l7.070312-15.460938 8.570312-18.75h-21.242187c-4.609375 0-7.570313-4.898437-5.429687-8.980468l31.332031-59.617188c1.058593-2.019531 3.136719-3.28125 5.417969-3.28125h45.300781c4.628906 0 7.578125 4.929688 5.398437 9.011719l-11.359375 21.277343h12.53125c4.558594 0 7.519531 4.800782 5.480469 8.871094l-17.019531 33.941406h11.867187c5.070313 0 7.941406 5.808594 4.871094 9.839844zm0 0" fill="#f9b200"/><path d="m434.710938 179.316406-23.800782 31.25c-4.03125 5.289063-12.421875 1.269532-10.820312-5.191406l7.851562-31.707031h-21.910156c-4.460938 0-7.421875-4.621094-5.570312-8.671875l7.070312-15.460938c18.148438 5.910156 34.308594 16.269532 47.179688 29.78125zm0 0" fill="#f80"/><path d="m128.96875 181.007812h-21.238281l15.640625 34.199219c1.847656 4.058594-1.109375 8.679688-5.570313 8.679688h-21.910156l7.847656 31.710937c1.601563 6.449219-6.789062 10.46875-10.816406 5.179688l-44.632813-58.589844-7.710937-10.121094c-3.078125-4.03125-.199219-9.839844 4.871094-9.839844h11.871093l-17.019531-33.941406c-2.039062-4.078125.917969-8.867187 5.46875-8.867187h12.539063l-11.359375-21.28125c-2.179688-4.082031.769531-9.011719 5.402343-9.011719h45.296876c2.273437 0 4.363281 1.261719 5.421874 3.273438l14.269532 27.15625 17.058594 32.472656c2.140624 4.078125-.820313 8.980468-5.429688 8.980468zm0 0" fill="#f9b200"/><path d="m134.398438 172.027344c2.140624 4.078125-.820313 8.980468-5.429688 8.980468h-21.238281l15.640625 34.199219c1.847656 4.058594-1.109375 8.679688-5.570313 8.679688h-21.910156l7.847656 31.710937c1.601563 6.449219-6.789062 10.46875-10.816406 5.179688l-44.632813-58.589844c10-5.882812 20.941407-10.109375 32.390626-12.472656 8.550781-19.1875 21.019531-36.21875 36.660156-50.160156zm0 0" fill="#f80"/><path d="m188.078125 410.996094s134.507813-20.519532 178.210937 66.023437c4.125 8.171875 12.40625 13.414063 21.5625 13.414063 18.167969 0 29.773438-19.378906 21.195313-35.394532l-64.046875-119.605468h-125zm0 0" fill="#f01054"/><path d="m453.476562 269.253906c.425782-3.777344.652344-7.617187.652344-11.507812 0-56.214844-45.570312-101.785156-101.78125-101.785156-11.5625 0-22.671875 1.933593-33.027344 5.484374-24.964843-29.078124-61.992187-47.5-103.324218-47.5-57.660156 0-106.949219 35.851563-126.792969 86.476563-46.160156 6.382813-81.703125 45.988281-81.703125 93.902344 0 52.359375 42.445312 94.808593 94.808594 94.808593 6.933594 0 13.6875-.753906 20.199218-2.167968 14.804688 33.070312 47.996094 56.109375 86.570313 56.109375 39.183594 0 72.8125-23.769531 87.257813-57.675781 14.824218 9.605468 32.503906 15.1875 51.480468 15.1875 22.367188 0 42.921875-7.75 59.132813-20.707032 10.121093 7.300782 22.539062 11.613282 35.972656 11.613282 34.007813 0 61.578125-27.570313 61.578125-61.578126 0-30.410156-22.046875-55.652343-51.023438-60.660156zm0 0" fill="#fd82ac"/><path d="m504.492188 328.921875c.523437 33.433594-26.257813 61.535156-59.679688 62.539063-14.15625.425781-27.269531-3.9375-37.863281-11.582032-16.210938 12.960938-36.757813 20.710938-59.128907 20.710938-18.980468 0-36.660156-5.589844-51.480468-15.191406-14.449219 33.902343-48.078125 57.679687-87.261719 57.679687-38.578125 0-71.769531-23.039063-86.566406-56.109375-5.898438 1.277344-12 2.015625-18.246094 2.140625-50.652344 1.03125-93.585937-38.480469-96.59375-89.054687-.425781-7.113282-.050781-14.085938 1.015625-20.816407 7.222656 45.203125 46.390625 79.75 93.621094 79.75 4.441406 0 8.8125-.308593 13.09375-.902343 4.136718-.574219 8.238281 1.378906 10.226562 5.054687 16.019532 29.648437 47.378906 49.789063 83.449219 49.789063 35.585937 0 66.597656-19.609376 82.8125-48.609376 2.628906-4.699218 8.488281-6.40625 13.296875-3.984374 12.8125 6.460937 27.296875 10.105468 42.632812 10.105468 20.003907 0 38.550782-6.199218 53.84375-16.769531 3.132813-2.164063 7.246094-2.433594 10.542969-.53125 9.039063 5.21875 19.523438 8.210937 30.710938 8.210937 28.8125 0 53-19.78125 59.722656-46.511718 1.140625 4.511718 1.773437 9.230468 1.851563 14.082031zm0 0" fill="#fd6096"/><path d="m225.425781 15.652344-57.425781 109.308594c-3.929688 7.480468 1.496094 16.453124 9.941406 16.453124h38.945313l-28.667969 62.714844c-3.402344 7.4375 2.035156 15.898438 10.210938 15.898438h40.167968l-14.402344 58.132812c-2.933593 11.832032 12.445313 19.203125 19.832032 9.503906l95.964844-125.96875c5.632812-7.394531.359374-18.035156-8.933594-18.035156h-21.753906l31.199218-62.226562c3.742188-7.46875-1.6875-16.261719-10.039062-16.261719h-22.988282l20.839844-39.007813c3.996094-7.480468-1.425781-16.519531-9.90625-16.519531h-83.042968c-4.171876 0-8 2.3125-9.941407 6.007813zm0 0" fill="#ffdf46"/><path d="m159.867188 322.210938c0-39.269532 37.222656-71.105469 83.132812-71.105469s83.132812 31.835937 83.132812 71.105469zm0 0" fill="#fd82ac"/><path d="m15 294.324219c0-43.367188 32.339844-80.539063 75.230469-86.472657 2.6875-.371093 4.964843-2.164062 5.953125-4.691406 11.832031-30.179687 34.621094-54.6875 63.496094-68.757812.445312 1.890625 1.1875 3.738281 2.230468 5.46875 3.421875 5.664062 9.414063 9.042968 16.03125 9.042968h27.269532l-23.8125 52.09375c-2.664063 5.828126-2.1875 12.523438 1.273437 17.914063 3.464844 5.386719 9.355469 8.605469 15.761719 8.605469h30.582031l-4.382813 17.683594c-12.839843 2.28125-24.9375 6.957031-35.652343 13.855468-3.480469 2.242188-4.484375 6.882813-2.242188 10.367188 2.242188 3.480468 6.882813 4.488281 10.367188 2.242187 13.277343-8.550781 29.148437-13.070312 45.894531-13.070312 19.574219 0 38.148438 6.28125 52.300781 17.691406 1.386719 1.117187 3.050781 1.660156 4.703125 1.660156 2.1875 0 4.359375-.957031 5.84375-2.792969 2.597656-3.222656 2.089844-7.945312-1.132812-10.546874-6.984375-5.628907-14.863282-10.191407-23.320313-13.621094l17.386719-22.824219c2.511719-3.292969 1.875-8-1.421875-10.511719-3.292969-2.511718-8-1.871094-10.511719 1.421875l-20.671875 27.136719c-7.492187-1.710938-15.265625-2.613281-23.175781-2.613281-.84375 0-1.683594.023437-2.527344.042969l5.40625-21.816407c.554688-2.238281.050782-4.609375-1.371094-6.425781-1.421874-1.816406-3.601562-2.875-5.90625-2.875h-40.167968c-1.773438 0-2.730469-1.074219-3.140625-1.714844-.410157-.640625-.988281-1.957031-.253907-3.566406l28.671876-62.714844c1.058593-2.320312.867187-5.023437-.511719-7.171875-1.382813-2.148437-3.757813-3.445312-6.3125-3.445312h-38.945313c-1.898437 0-2.863281-1.257813-3.191406-1.800781-.324219-.542969-.992188-1.984376-.109375-3.664063l30.292969-57.667969c1.929687-3.664062.515625-8.199218-3.148438-10.125-3.664062-1.925781-8.203125-.515625-10.128906 3.152344l-27.460938 52.273438c-14.183593 5.488281-27.273437 13.140624-38.855468 22.574218l-15.625-29.746094c-2.363282-4.496093-6.984375-7.289062-12.066406-7.289062h-45.296876c-4.832031 0-9.203124 2.476562-11.6875 6.621094-2.484374 4.144531-2.609374 9.164062-.332031 13.425781l5.472657 10.242187h-.03125c-4.757813 0-9.09375 2.417969-11.59375 6.472657-2.5 4.050781-2.71875 9.007812-.585938 13.261719l11.574219 23.085937c-5.105469.101563-9.65625 2.984375-11.929688 7.574219-2.3125 4.671875-1.789062 10.15625 1.371094 14.304687l10.050781 13.191407c-7.050781 4.816406-13.53125 10.53125-19.253906 17.050781-16.382812 18.652343-25.40625 42.613281-25.40625 67.46875 0 21.285156 6.480469 41.695312 18.734375 59.019531 1.460937 2.066406 3.777344 3.171875 6.128906 3.171875 1.496094 0 3.007813-.449219 4.324219-1.378906 3.382812-2.390625 4.183594-7.070313 1.792969-10.453125-10.453125-14.777344-15.980469-32.191406-15.980469-50.359375zm33.222656-104.597657h9.09375c2.601563 0 5.015625-1.347656 6.382813-3.5625 1.363281-2.210937 1.488281-4.972656.320312-7.300781l-16.019531-31.953125h10.3125c2.636719 0 5.078125-1.382812 6.433594-3.644531 1.355468-2.257813 1.425781-5.0625.183594-7.386719l-10.285157-19.257812h42.175781l17.046876 32.449218c-12.605469 12.746094-22.84375 27.84375-30.007813 44.613282-9.09375 1.660156-17.863281 4.566406-26.101563 8.558594zm0 0"/><path d="m461.480469 263.371094c.097656-1.886719.148437-3.765625.148437-5.625 0-26.167969-9.246094-50.210938-24.640625-69.046875l32.230469-42.308594c3.160156-4.148437 3.683594-9.628906 1.371094-14.304687-2.273438-4.589844-6.828125-7.472657-11.929688-7.574219l11.574219-23.082031c2.132813-4.257813 1.914063-9.214844-.585937-13.265626-2.5-4.050781-6.835938-6.46875-11.597657-6.46875h-.027343l5.472656-10.242187c2.277344-4.261719 2.152344-9.28125-.332032-13.425781-2.484374-4.144532-6.851562-6.621094-11.6875-6.621094h-45.296874c-5.082032 0-9.703126 2.792969-12.0625 7.289062l-31.328126 59.628907c-2.234374 4.257812-2.085937 9.261719.402344 13.382812 2.488282 4.117188 6.847656 6.578125 11.664063 6.578125h9.566406l-6.082031 13.308594c-8.335938-2.039062-17.039063-3.132812-25.996094-3.132812-1.222656 0-2.449219.039062-3.675781.078124-.238281-.660156-.507813-1.316406-.824219-1.960937-3.183594-6.425781-9.617188-10.417969-16.785156-10.417969h-9.605469l25.75-51.363281c2.933594-5.847656 2.632813-12.664063-.804687-18.230469-3.4375-5.570312-9.394532-8.894531-15.9375-8.894531h-10.476563l14.945313-27.96875c3.128906-5.859375 2.957031-12.761719-.457032-18.457031-3.417968-5.699219-9.421875-9.097656-16.066406-9.097656h-83.042969c-6.980469 0-13.332031 3.835937-16.578125 10.015624l-9.976562 18.984376c-1.925782 3.667968-.515625 8.203124 3.152344 10.128906 3.667968 1.925781 8.203124.515625 10.128906-3.152344l9.972656-18.984375c.648438-1.226563 1.914062-1.992187 3.300781-1.992187h83.042969c1.910156 0 2.875 1.265624 3.199219 1.8125.328125.542968.992187 1.992187.09375 3.675781l-20.839844 39.003906c-1.242187 2.324219-1.171875 5.132813.183594 7.390625 1.355469 2.261719 3.796875 3.644531 6.433593 3.644531h22.984376c1.878906 0 2.847656 1.238281 3.175781 1.769531s1 1.953126.160156 3.632813l-31.195313 62.222656c-1.167968 2.328125-1.046874 5.089844.320313 7.300781 1.367187 2.214844 3.78125 3.5625 6.382813 3.5625h21.753906c2.089844 0 3.035156 1.453126 3.34375 2.074219.308594.625.890625 2.253907-.375 3.917969l-27.53125 36.136719c-2.511719 3.296875-1.875 8.003906 1.421875 10.511719 1.355469 1.035156 2.953125 1.535156 4.539062 1.535156 2.261719 0 4.496094-1.019532 5.972657-2.957032l27.527343-36.136718c.644531-.84375 1.199219-1.734375 1.683594-2.652344 1.566406-.078125 3.140625-.128906 4.707031-.128906 51.984375 0 94.28125 42.296875 94.28125 94.285156 0 3.457031-.199218 6.988281-.589844 10.5-2.871093 18.105469-11.289062 34.980469-24.355468 48.8125-2.847656 3.011719-2.710938 7.757812.300781 10.605469 1.449219 1.367187 3.300781 2.046875 5.148437 2.046875 1.988282 0 3.976563-.789063 5.453126-2.347656 13.273437-14.050782 22.417968-30.855469 26.730468-48.992188 22.214844 7.003906 37.679688 27.640625 37.679688 51.542969 0 29.820312-24.257813 54.078125-54.078125 54.078125-11.410157 0-22.332031-3.523438-31.582031-10.195313-2.730469-1.96875-6.441407-1.875-9.066407.226563-15.609375 12.472656-34.4375 19.0625-54.453125 19.0625-16.894531 0-33.285156-4.832032-47.402344-13.980469-1.855468-1.203125-4.152343-1.523437-6.269531-.878906-2.117187.648437-3.839843 2.195312-4.707031 4.234375-13.75 32.265625-45.292969 53.117187-80.359375 53.117187-34.21875 0-65.378906-20.101562-79.523437-51.246093-10.972657-30.101563-4.339844-63.46875 17.332031-87.117188 2.796875-3.050781 2.589843-7.796875-.464844-10.59375-3.054687-2.800781-7.796875-2.59375-10.597656.460938-23.449219 25.589843-31.902344 60.867187-23.027344 93.914062-3.480469.417969-6.984375.636719-10.492187.636719-18 0-35.289063-5.4375-49.992188-15.726563-3.394531-2.375-8.070312-1.546875-10.445312 1.84375-2.375 3.394532-1.546876 8.070313 1.847656 10.445313 17.234375 12.0625 37.496094 18.4375 58.59375 18.4375 5.335937 0 10.675781-.414063 15.941406-1.242188 17.515625 33.714844 52.539062 55.1875 90.828125 55.1875 26.648437 0 51.554687-10.285156 70.167969-27.820312 38.78125 9.476562 65.808594 28.859375 80.347656 57.644531 5.464844 10.816406 16.292969 17.535156 28.261719 17.535156 11.191406 0 21.308593-5.734375 27.058593-15.339844 5.753907-9.601562 6.03125-21.226562.746094-31.09375l-27.667968-51.671874c6.765624-2.882813 13.230468-6.476563 19.246093-10.769532 10.753907 6.515625 22.980469 9.933594 35.683594 9.933594 38.089844 0 69.078125-30.992188 69.078125-69.082031 0-31.378907-20.871094-58.347657-50.519531-66.546875zm-68.75-107.171875 10.191406-22.296875c1.0625-2.320313.867187-5.023438-.511719-7.171875-1.378906-2.148438-3.757812-3.445313-6.3125-3.445313h-18.96875l29.882813-56.878906h42.175781l-10.289062 19.253906c-1.242188 2.324219-1.171876 5.132813.183593 7.390625 1.355469 2.261719 3.796875 3.644531 6.433594 3.644531h10.3125l-16.019531 31.953126c-1.164063 2.324218-1.042969 5.089843.324218 7.300781 1.363282 2.214843 3.777344 3.5625 6.378907 3.5625h9.09375l-29.03125 38.105469c-9.792969-9.078126-21.242188-16.390626-33.84375-21.417969zm9.707031 302.382812c2.769531 5.171875 2.625 11.269531-.390625 16.304688-3.019531 5.039062-8.320313 8.042969-14.191406 8.042969-6.277344 0-11.976563-3.558594-14.871094-9.292969-15.601563-30.898438-43.324219-52.1875-82.46875-63.40625 3.375-4.441407 6.417969-9.1875 9.070313-14.210938 14.78125 7.914063 31.292968 12.066407 48.234374 12.066407 8.738282 0 17.40625-1.152344 25.789063-3.339844zm0 0"/><path d="m242.953125 332.105469h-.078125c-4.140625.023437-7.4375 3.402343-7.414062 7.546875.027343 4.125 3.417968 7.449218 7.539062 7.449218h.046875c4.140625-.023437 7.480469-3.402343 7.453125-7.546874-.027344-4.125-3.378906-7.453126-7.5-7.453126-.015625.003907-.03125.003907-.046875.003907zm0 0"/><path d="m259.992188 346.007812h-.078126c-4.140624.027344-7.4375 3.40625-7.414062 7.546876.027344 4.128906 3.417969 7.453124 7.539062 7.453124h.046876c4.140624-.023437 7.480468-3.402343 7.453124-7.546874-.027343-4.125-3.378906-7.453126-7.5-7.453126-.015624 0-.03125 0-.046874 0zm0 0"/><path d="m215.875 359.007812c-4.140625.027344-7.4375 3.40625-7.414062 7.546876.027343 4.128906 3.417968 7.453124 7.539062 7.453124h.046875c4.140625-.023437 7.480469-3.402343 7.453125-7.546874-.027344-4.140626-3.375-7.492188-7.546875-7.453126zm0 0"/><path d="m461.015625 359.605469c0-4.144531-3.355469-7.5-7.5-7.5h-.078125c-4.140625 0-7.460938 3.355469-7.460938 7.5 0 4.140625 3.398438 7.5 7.539063 7.5 4.144531 0 7.5-3.359375 7.5-7.5zm0 0"/><path d="m419.46875 235.015625c0-4.144531-3.359375-7.5-7.5-7.5h-.078125c-4.144531 0-7.460937 3.355469-7.460937 7.5 0 4.140625 3.394531 7.5 7.539062 7.5 4.140625 0 7.5-3.359375 7.5-7.5zm0 0"/><path d="m93.890625 290.515625c-4.144531 0-7.460937 3.355469-7.460937 7.5 0 4.140625 3.394531 7.5 7.539062 7.5 4.140625 0 7.5-3.359375 7.5-7.5 0-4.144531-3.359375-7.5-7.5-7.5zm0 0"/><path d="m166.65625 172.808594c-4.140625 0-7.460938 3.359375-7.460938 7.5s3.398438 7.5 7.539063 7.5c4.144531 0 7.5-3.359375 7.5-7.5s-3.355469-7.5-7.5-7.5zm0 0"/><path d="m129.042969 66.242188h.035156c4.144531-.019532 7.484375-3.390626 7.464844-7.535157l-.007813-1.867187c-.019531-4.128906-3.375-7.464844-7.5-7.464844-.011718 0-.023437 0-.035156 0-4.144531.023438-7.484375 3.394531-7.464844 7.535156l.007813 1.867188c.019531 4.132812 3.375 7.464844 7.5 7.464844zm0 0"/><path d="m129.097656 76.90625c-.011718 0-.023437 0-.035156 0-4.140625.019531-7.484375 3.394531-7.464844 7.535156l.007813 1.867188c.023437 4.132812 3.375 7.464844 7.5 7.464844h.035156c4.144531-.019532 7.484375-3.390626 7.464844-7.535157l-.007813-1.867187c-.019531-4.128906-3.371094-7.464844-7.5-7.464844zm0 0"/><path d="m141.902344 79.050781h.035156l1.867188-.011719c4.144531-.019531 7.484374-3.394531 7.464843-7.535156-.023437-4.128906-3.375-7.464844-7.5-7.464844-.011719 0-.023437 0-.039062 0l-1.867188.011719c-4.140625.019531-7.480469 3.394531-7.460937 7.535157.019531 4.128906 3.375 7.464843 7.5 7.464843zm0 0"/><path d="m114.371094 79.113281h.039062l1.867188-.011719c4.140625-.019531 7.480468-3.394531 7.460937-7.535156-.019531-4.144531-3.429687-7.453125-7.535156-7.464844l-1.867187.011719c-4.144532.019531-7.484376 3.394531-7.464844 7.535157.023437 4.128906 3.375 7.464843 7.5 7.464843zm0 0"/><path d="m376.273438 16.867188h.035156c4.144531-.019532 7.484375-3.394532 7.464844-7.535157l-.007813-1.867187c-.019531-4.128906-3.375-7.464844-7.5-7.464844-.011719 0-.023437 0-.035156 0-4.144531.0195312-7.484375 3.394531-7.464844 7.535156l.007813 1.867188c.019531 4.132812 3.375 7.464844 7.5 7.464844zm0 0"/><path d="m376.292969 27.53125c-4.144531.019531-7.484375 3.394531-7.464844 7.535156l.007813 1.867188c.019531 4.128906 3.375 7.464844 7.5 7.464844h.035156c4.144531-.019532 7.484375-3.394532 7.464844-7.535157l-.007813-1.867187c-.019531-4.140625-3.402344-7.484375-7.535156-7.464844zm0 0"/><path d="m389.132812 29.671875h.039063l1.863281-.007813c4.144532-.019531 7.484375-3.394531 7.464844-7.535156-.019531-4.128906-3.375-7.464844-7.5-7.464844-.011719 0-.023438 0-.035156 0l-1.867188.007813c-4.144531.023437-7.484375 3.398437-7.464844 7.539063.019532 4.128906 3.375 7.460937 7.5 7.460937zm0 0"/><path d="m361.601562 29.734375h.039063l1.867187-.007813c4.140626-.019531 7.480469-3.394531 7.460938-7.535156-.019531-4.132812-3.371094-7.464844-7.496094-7.464844-.015625 0-.027344 0-.039062 0l-1.867188.007813c-4.144531.023437-7.484375 3.394531-7.464844 7.539063.019532 4.128906 3.375 7.460937 7.5 7.460937zm0 0"/><path d="m471.6875 183.195312c.019531 4.132813 3.375 7.464844 7.5 7.464844h.035156c4.144532-.019531 7.484375-3.390625 7.464844-7.535156l-.007812-1.867188c-.019532-4.128906-3.375-7.464843-7.5-7.464843-.011719 0-.023438 0-.035157 0-4.144531.023437-7.484375 3.394531-7.464843 7.535156zm0 0"/><path d="m479.25 218.191406h.035156c4.144532-.019531 7.484375-3.390625 7.464844-7.535156l-.007812-1.867188c-.019532-4.128906-3.375-7.464843-7.5-7.464843-.011719 0-.023438 0-.035157 0-4.144531.019531-7.484375 3.394531-7.464843 7.535156l.007812 1.867187c.019531 4.132813 3.375 7.464844 7.5 7.464844zm0 0"/><path d="m492.046875 203.464844h.039063l1.863281-.007813c4.144531-.019531 7.484375-3.394531 7.464843-7.535156-.019531-4.128906-3.375-7.464844-7.5-7.464844-.011718 0-.023437 0-.035156 0l-1.867187.007813c-4.144531.023437-7.484375 3.398437-7.464844 7.539062.019531 4.128906 3.375 7.460938 7.5 7.460938zm0 0"/><path d="m466.386719 188.519531c-.015625 0-.027344 0-.039063 0l-1.867187.011719c-4.144531.019531-7.484375 3.394531-7.464844 7.535156.023437 4.128906 3.375 7.464844 7.5 7.464844h.039063l1.867187-.011719c4.140625-.019531 7.480469-3.394531 7.460937-7.535156-.019531-4.132813-3.371093-7.464844-7.496093-7.464844zm0 0"/></svg>