<?xml version="1.0" encoding="iso-8859-1"?>
<!-- Generator: Adobe Illustrator 19.0.0, SVG Export Plug-In . SVG Version: 6.00 Build 0)  -->
<svg xmlns="http://www.w3.org/2000/svg" xmlns:xlink="http://www.w3.org/1999/xlink" version="1.1" id="Capa_1" x="0px" y="0px" viewBox="0 0 512 512" style="enable-background:new 0 0 512 512;" xml:space="preserve" width="512" height="512">
<g>
	<polygon style="fill:#B33E78;" points="331,382.656 271,382.656 301,492.5 331,504.5  "/>
	<polygon style="fill:#FF2B59;" points="216,382.656 256,474.5 301,492.5 301,382.656  "/>
	<polygon style="fill:#FF4E51;" points="181,382.656 181,504.5 256,474.5 256,382.656  "/>
	<path style="fill:#B33E78;" d="M466,217.5c0-15.183-6.453-28.853-16.757-38.438c5.851-12.799,6.582-27.898,0.771-41.925   s-17.003-24.187-30.191-29.1c0.508-14.064-4.595-28.293-15.331-39.029s-24.965-15.839-39.029-15.332   c-4.913-13.188-15.073-24.38-29.1-30.191c-11.592-4.802-23.912-5.125-35.065-1.795l-0.004,391.618   c11.154,3.332,23.476,3.009,35.069-1.793c14.027-5.81,24.187-17.003,29.1-30.191c14.064,0.508,28.293-4.595,39.029-15.331   s15.839-24.965,15.331-39.029c13.188-4.913,24.38-15.073,30.191-29.1s5.08-29.126-0.771-41.925   C459.547,246.353,466,232.683,466,217.5z"/>
	<path style="fill:#FF2B59;" d="M335.464,381.324c14.064,0.508,28.293-4.595,39.029-15.331s15.839-24.965,15.331-39.029   c13.188-4.913,24.38-15.073,30.191-29.1s5.08-29.126-0.771-41.925C429.547,246.353,436,232.683,436,217.5   s-6.453-28.853-16.757-38.438c5.851-12.799,6.582-27.898,0.771-41.925s-17.003-24.187-30.191-29.1   c0.508-14.064-4.595-28.293-15.331-39.029s-24.965-15.839-39.029-15.332c-4.913-13.188-15.073-24.38-29.1-30.191   c-1.675-0.694-3.366-1.285-5.065-1.795c-2.343,0.7-4.638,1.55-6.86,2.566C284.853,13.953,271.183,7.5,256,7.5   c-15.183,0-28.853,6.453-38.439,16.757c-12.799-5.851-27.898-6.582-41.925-0.771s-24.187,17.003-29.1,30.191   c-14.064-0.508-28.293,4.595-39.029,15.332s-15.839,24.965-15.331,39.029c-13.188,4.913-24.381,15.073-30.191,29.1   s-5.08,29.126,0.771,41.925C52.453,188.647,46,202.317,46,217.5s6.453,28.853,16.757,38.438   c-5.851,12.799-6.582,27.898-0.771,41.925s17.003,24.187,30.191,29.1c-0.508,14.064,4.595,28.293,15.331,39.029   s24.965,15.839,39.029,15.331c4.913,13.188,15.073,24.381,29.1,30.191s29.126,5.08,41.925-0.771   C227.147,421.047,240.817,427.5,256,427.5c15.183,0,28.853-6.453,38.439-16.757c2.221,1.015,4.514,1.865,6.856,2.565   c1.701-0.51,3.393-1.099,5.069-1.793C320.391,405.704,330.551,394.511,335.464,381.324z"/>
	<path style="fill:#FF7149;" d="M256,67.5v300c82.843,0,150-67.157,150-150S338.843,67.5,256,67.5z"/>
	<path style="fill:#FF9441;" d="M376,217.5c0-82.843-53.726-150-120-150c-82.843,0-150,67.157-150,150s67.157,150,150,150   C322.274,367.5,376,300.343,376,217.5z"/>
	<path style="fill:#FFB739;" d="M256,127.5v180c49.706,0,90-40.294,90-90S305.706,127.5,256,127.5z"/>
	<path style="fill:#FFD17E;" d="M316,217.5c0-49.706-26.863-90-60-90c-49.706,0-90,40.294-90,90s40.294,90,90,90   C289.137,307.5,316,267.206,316,217.5z"/>
	<path d="M473.5,217.5c0-14.843-5.582-29.218-15.465-40.188c4.934-13.917,4.589-29.333-1.091-43.046s-16.338-24.857-29.667-31.21   c-0.769-14.745-6.986-28.856-17.481-39.353c-10.6-10.6-24.477-16.742-39.354-17.486c-6.353-13.326-17.496-23.981-31.208-29.661   c-7.331-3.037-15.042-4.577-22.92-4.577c-6.803,0-13.669,1.196-20.126,3.486C285.218,5.582,270.843,0,256,0   s-29.218,5.582-40.188,15.466c-6.457-2.29-13.323-3.486-20.126-3.486c-7.877,0-15.588,1.54-22.919,4.577   c-13.711,5.68-24.855,16.335-31.208,29.661c-14.877,0.744-28.755,6.887-39.354,17.486C91.709,74.2,85.492,88.312,84.723,103.057   c-13.329,6.353-23.987,17.497-29.667,31.21s-6.024,29.129-1.091,43.046C44.082,188.282,38.5,202.657,38.5,217.5   s5.582,29.218,15.465,40.188c-4.934,13.917-4.589,29.333,1.091,43.046s16.338,24.857,29.667,31.21   c0.769,14.745,6.986,28.856,17.481,39.353c10.6,10.6,24.477,16.742,39.354,17.486c6.353,13.326,17.496,23.981,31.208,29.661   c7.331,3.037,15.042,4.577,22.919,4.577c6.803,0,13.669-1.196,20.126-3.486c9.108,8.206,20.566,13.435,32.688,14.977v34.911l-60,24   v-50.017c0-4.143-3.358-7.5-7.5-7.5s-7.5,3.357-7.5,7.5V504.5c0,2.488,1.234,4.815,3.295,6.211c2.061,1.395,4.679,1.677,6.99,0.753   L256,482.578l72.214,28.886c0.899,0.359,1.844,0.536,2.785,0.536c1.478,0,2.946-0.437,4.205-1.289   c2.061-1.396,3.295-3.723,3.295-6.211v-85.773c0.244-0.097,0.49-0.183,0.733-0.283c13.711-5.68,24.855-16.335,31.208-29.661   c14.877-0.744,28.755-6.887,39.354-17.486c10.496-10.496,16.713-24.607,17.481-39.353c13.329-6.353,23.987-17.497,29.667-31.21   s6.024-29.129,1.091-43.046C467.918,246.718,473.5,232.343,473.5,217.5z M323.5,493.422l-60-24v-34.911   c12.122-1.542,23.579-6.771,32.688-14.977c6.457,2.29,13.323,3.486,20.126,3.486c2.414,0,4.81-0.162,7.187-0.45V493.422z    M442.422,259.057c5.261,11.507,5.496,24.27,0.663,35.937c-4.833,11.667-14.023,20.525-25.88,24.942   c-3.028,1.128-4.994,4.069-4.877,7.299c0.457,12.644-4.21,24.524-13.14,33.455c-8.493,8.492-19.792,13.169-31.816,13.169   c-0.546,0-1.093-0.01-1.639-0.029c-3.21-0.119-6.171,1.848-7.299,4.877c-4.417,11.855-13.274,21.046-24.942,25.88   c-5.502,2.278-11.282,3.435-17.18,3.435c-6.407,0-12.893-1.417-18.756-4.099c-2.939-1.342-6.409-0.653-8.61,1.713   C280.33,414.898,268.628,420,256,420s-24.33-5.102-32.947-14.365c-1.452-1.561-3.455-2.392-5.494-2.392   c-1.053,0-2.115,0.222-3.116,0.679c-5.864,2.682-12.35,4.099-18.757,4.099c-5.897,0-11.677-1.156-17.179-3.435   c-11.667-4.834-20.525-14.024-24.942-25.88c-1.129-3.028-4.073-4.971-7.299-4.877c-0.547,0.02-1.092,0.029-1.639,0.029   c-12.024,0-23.324-4.677-31.816-13.17c-8.93-8.93-13.596-20.811-13.14-33.454c0.117-3.229-1.849-6.171-4.877-7.299   c-11.856-4.417-21.047-13.275-25.88-24.942c-4.833-11.667-4.598-24.43,0.663-35.937c1.344-2.938,0.654-6.408-1.712-8.609   C58.602,241.83,53.5,230.129,53.5,217.5s5.102-24.33,14.365-32.947c2.366-2.201,3.056-5.671,1.712-8.609   c-5.261-11.507-5.496-24.27-0.663-35.937c4.833-11.667,14.023-20.525,25.88-24.942c3.028-1.128,4.994-4.069,4.877-7.299   c-0.457-12.644,4.21-24.524,13.14-33.455c8.492-8.492,19.792-13.169,31.816-13.169c0.546,0,1.093,0.01,1.639,0.029   c3.202,0.106,6.171-1.849,7.299-4.877c4.417-11.855,13.274-21.046,24.942-25.88c5.502-2.278,11.282-3.435,17.179-3.435   c6.407,0,12.893,1.417,18.757,4.099c2.94,1.342,6.409,0.653,8.61-1.713C231.67,20.102,243.372,15,256,15s24.33,5.102,32.947,14.365   c2.201,2.366,5.67,3.055,8.61,1.713c5.864-2.682,12.35-4.099,18.756-4.099c5.897,0,11.678,1.156,17.18,3.435   c11.667,4.834,20.525,14.024,24.942,25.88c1.128,3.028,4.068,4.966,7.299,4.877c0.547-0.02,1.092-0.029,1.639-0.029   c12.024,0,23.324,4.677,31.816,13.17c8.93,8.93,13.596,20.811,13.14,33.454c-0.117,3.229,1.849,6.171,4.877,7.299   c11.856,4.417,21.047,13.275,25.88,24.942c4.833,11.667,4.598,24.43-0.663,35.937c-1.344,2.938-0.654,6.408,1.712,8.609   c9.264,8.617,14.365,20.318,14.365,32.947s-5.102,24.33-14.365,32.947C441.769,252.648,441.079,256.118,442.422,259.057z"/>
	<path d="M256,120c-20.398,0-39.936,6.235-56.498,18.03c-3.374,2.403-4.161,7.086-1.758,10.46c2.402,3.374,7.085,4.16,10.459,1.759   C222.211,140.272,238.739,135,256,135c45.491,0,82.5,37.01,82.5,82.5S301.491,300,256,300s-82.5-37.01-82.5-82.5   c0-17.261,5.273-33.789,15.249-47.797c2.403-3.374,1.615-8.057-1.759-10.46c-3.374-2.402-8.057-1.615-10.46,1.759   c-11.795,16.563-18.03,36.101-18.03,56.498c0,53.762,43.738,97.5,97.5,97.5s97.5-43.738,97.5-97.5S309.762,120,256,120z"/>
	<path d="M256,60c-86.846,0-157.5,70.654-157.5,157.5S169.154,375,256,375s157.5-70.654,157.5-157.5S342.846,60,256,60z M256,360   c-78.575,0-142.5-63.925-142.5-142.5S177.425,75,256,75s142.5,63.925,142.5,142.5S334.575,360,256,360z"/>
</g>















</svg>
