<?xml version="1.0" encoding="iso-8859-1"?>
<!-- Generator: Adobe Illustrator 19.0.0, SVG Export Plug-In . SVG Version: 6.00 Build 0)  -->
<svg xmlns="http://www.w3.org/2000/svg" xmlns:xlink="http://www.w3.org/1999/xlink" version="1.1" id="Capa_1" x="0px" y="0px" viewBox="0 0 512 512" style="enable-background:new 0 0 512 512;" xml:space="preserve" width="512" height="512">
<g>
	<path style="fill:#FFEAC3;" d="M368.839,34.541L361.115,49.7l70.746,176.695l45.598-83.233   C453.636,96.499,415.501,58.364,368.839,34.541z"/>
	<path style="fill:#FFEAC3;" d="M361.115,462.3l7.724,15.159c46.662-23.823,84.797-61.958,108.62-108.62l-45.598-83.233   L361.115,462.3z"/>
	<path style="fill:#FF4E51;" d="M477.459,143.161l-45.598,23.233v179.211l45.598,23.233C494.747,334.977,504.5,296.628,504.5,256   S494.747,177.023,477.459,143.161z"/>
	<path style="fill:#FF7149;" d="M361.115,462.3L256,504.5c40.628,0,78.977-9.753,112.839-27.041L361.115,462.3z"/>
	<path style="fill:#FF7149;" d="M256,7.5c38.921,0,75.084,15.554,105.115,42.2l7.724-15.159C334.977,17.253,296.628,7.5,256,7.5z"/>
	<path style="fill:#FF7149;" d="M384.5,256c0,21.009-5.043,40.839-13.983,58.349v43.274h84.929   C467.686,326.6,474.5,292.206,474.5,256s-6.814-70.6-19.054-101.623h-84.929l0,43.273C379.457,215.161,384.5,234.991,384.5,256z"/>
	<path style="fill:#FF7149;" d="M127.5,256c0-21.009,5.043-40.839,13.983-58.349v-54.49H34.541C17.253,177.023,7.5,215.372,7.5,256   s9.753,78.977,27.041,112.839h106.942v-54.49C132.543,296.839,127.5,277.009,127.5,256z"/>
	<path style="fill:#FF7149;" d="M256,127.5c21.009,0,40.839,5.043,58.349,13.983h51.216V40.965C333.355,19.691,295.931,7.5,256,7.5   c-40.628,0-78.977,9.753-112.839,27.041v106.942h54.49C215.161,132.543,234.991,127.5,256,127.5z"/>
	<path style="fill:#FFF7E8;" d="M370.517,197.651l84.929-43.273c-18.804-47.662-50.428-87.354-89.88-113.412l-51.216,100.518   C338.478,153.802,358.198,173.522,370.517,197.651z"/>
	<path style="fill:#FF7149;" d="M256,384.5c-21.009,0-40.839-5.043-58.349-13.983h-54.49v106.942   C177.023,494.747,215.372,504.5,256,504.5c39.931,0,77.355-12.191,109.566-33.465l3.273-100.518h-54.49   C296.839,379.457,277.009,384.5,256,384.5z"/>
	<path style="fill:#FFF7E8;" d="M141.483,314.349l-106.942,54.49c23.823,46.662,61.958,84.797,108.62,108.62l54.49-106.942   C173.522,358.198,153.802,338.478,141.483,314.349z"/>
	<path style="fill:#FFF7E8;" d="M197.651,141.483l-54.49-106.942c-46.662,23.823-84.797,61.958-108.62,108.62l106.942,54.49   C153.802,173.522,173.522,153.802,197.651,141.483z"/>
	<path style="fill:#FFF7E8;" d="M455.446,357.623l-84.929-43.274c-12.319,24.129-32.039,43.849-56.168,56.168l51.216,100.518   C405.018,444.977,436.642,405.284,455.446,357.623z"/>
	<path d="M512,256c0-27.823-4.41-54.969-12.897-80.639c10.926-21.757,15.102-46.859,11.737-71.099   c-3.645-26.242-15.498-50.04-34.279-68.822C457.778,16.658,433.98,4.805,407.738,1.16c-24.242-3.367-49.342,0.81-71.099,11.737   C310.969,4.41,283.823,0,256,0c-27.823,0-54.969,4.41-80.639,12.897c-21.756-10.926-46.857-15.1-71.099-11.737   C78.02,4.805,54.222,16.658,35.44,35.439C16.658,54.222,4.804,78.02,1.161,104.262c-3.366,24.24,0.811,49.342,11.736,71.099   C4.41,201.031,0,228.177,0,256s4.41,54.969,12.897,80.639C1.971,358.396-2.206,383.498,1.161,407.738   c3.644,26.242,15.498,50.04,34.279,68.822c18.782,18.781,42.58,30.635,68.822,34.279c5.485,0.762,11.01,1.138,16.536,1.138   c18.897-0.001,37.746-4.41,54.583-12.868C201.045,507.592,228.184,512,256,512s54.955-4.408,80.62-12.891   c16.838,8.458,35.684,12.868,54.582,12.868c5.524,0,11.053-0.377,16.536-1.138c26.242-3.645,50.04-15.498,68.822-34.279   c18.781-18.782,30.635-42.58,34.279-68.822c3.365-24.24-0.811-49.342-11.737-71.099C507.59,310.969,512,283.823,512,256z    M372.018,467.177l-47.702-93.621c20.357-11.876,37.365-28.884,49.24-49.24l93.621,47.702   C445.113,412.019,412.019,445.113,372.018,467.177z M44.823,372.018l93.621-47.702c11.876,20.357,28.884,37.365,49.241,49.241   l-47.702,93.621C99.981,445.113,66.886,412.019,44.823,372.018z M37.993,153.338l33.282,16.958c1.09,0.556,2.253,0.819,3.399,0.819   c2.73,0,5.364-1.497,6.688-4.097c1.88-3.691,0.413-8.207-3.278-10.088l-33.262-16.948c22.064-40.001,55.159-73.096,95.16-95.16   l47.702,93.621c-20.357,11.876-37.365,28.884-49.241,49.241l-33.629-17.135c-3.69-1.88-8.207-0.414-10.087,3.277   s-0.413,8.207,3.278,10.088l33.608,17.124C124.154,217.855,120,236.45,120,256s4.154,38.145,11.613,54.961l-93.62,47.701   C23.259,327.499,15,292.698,15,256S23.259,184.501,37.993,153.338z M135,256c0-66.72,54.28-121,121-121s121,54.28,121,121   s-54.28,121-121,121S135,322.72,135,256z M467.177,139.982l-93.621,47.702c-11.876-20.357-28.884-37.365-49.24-49.24l47.702-93.621   C412.019,66.887,445.113,99.981,467.177,139.982z M474.007,358.662l-93.62-47.701C387.846,294.145,392,275.55,392,256   c0-19.549-4.154-38.145-11.613-54.961l93.62-47.701C488.741,184.502,497,219.302,497,256S488.741,327.498,474.007,358.662z    M465.953,46.047c28.636,28.635,38.052,71.414,25.426,108.987c-12.668-29.519-30.962-56.656-54.359-80.053   s-50.534-41.691-80.053-54.359C394.539,7.996,437.317,17.411,465.953,46.047z M358.662,37.993l-47.701,93.62   C294.145,124.154,275.549,120,256,120c-19.549,0-38.145,4.154-54.961,11.613l-47.701-93.62C184.502,23.259,219.302,15,256,15   S327.498,23.259,358.662,37.993z M46.046,46.047C74.683,17.41,117.461,7.995,155.033,20.622   C125.515,33.29,98.378,51.583,74.98,74.98c-23.397,23.397-41.691,50.534-54.359,80.053C7.995,117.46,17.411,74.682,46.046,46.047z    M46.046,465.953C17.411,437.318,7.995,394.54,20.622,356.967c12.668,29.519,30.961,56.655,54.359,80.053   c23.398,23.397,50.534,41.691,80.053,54.359C117.461,504.004,74.683,494.589,46.046,465.953z M153.338,474.007l47.701-93.62   C217.855,387.846,236.451,392,256,392c19.549,0,38.145-4.154,54.961-11.613l47.701,93.62C327.498,488.741,292.698,497,256,497   S184.502,488.741,153.338,474.007z M465.953,465.953c-28.636,28.636-71.413,38.053-108.987,25.426   c29.519-12.668,56.656-30.962,80.053-54.359c23.397-23.397,41.691-50.534,54.359-80.053   C504.005,394.539,494.589,437.318,465.953,465.953z"/>
</g>















</svg>
