<?xml version="1.0" encoding="iso-8859-1"?>
<!-- Generator: Adobe Illustrator 19.0.0, SVG Export Plug-In . SVG Version: 6.00 Build 0)  -->
<svg xmlns="http://www.w3.org/2000/svg" xmlns:xlink="http://www.w3.org/1999/xlink" version="1.1" id="Capa_1" x="0px" y="0px" viewBox="0 0 512 512" style="enable-background:new 0 0 512 512;" xml:space="preserve" width="512" height="512">
<g>
	<path style="fill:#FF7149;" d="M143.167,172.5h-30l30,167.511c0,8.28,6.71,14.5,15,14.5c8.28,0,15-6.22,15-14.5l30-68.75   l-30-68.761C173.167,186,159.667,172.5,143.167,172.5z"/>
	<path style="fill:#FF2B59;" d="M37.5,172.5h30l-30,167.011c0,8.28-6.72,15-15,15s-15-6.72-15-15V202.5C7.5,186,21,172.5,37.5,172.5   z"/>
	<path style="fill:#FF4E51;" d="M143.167,202.5c0-16.5-13.5-30-30-30H67.5c-16.5,0-30,13.5-30,30v283.084   c0,10.447,8.469,18.916,18.917,18.916c10.447,0,18.917-8.469,18.917-18.916V339.511h30v146.073   c0,10.447,8.469,18.916,18.917,18.916c10.447,0,18.916-8.469,18.916-18.916L143.167,202.5z"/>
	<path style="fill:#FFB739;" d="M308.833,172.5h-30l30,167.511c0,8.28,6.71,14.5,15,14.5c8.28,0,15-6.22,15-14.5l30-68.75   l-30-68.761C338.833,186,325.333,172.5,308.833,172.5z"/>
	<path style="fill:#FFEAC3;" d="M203.167,172.5h30l-30,167.011c0,8.28-6.72,15-15,15s-15-6.72-15-15V202.5   C173.167,186,186.667,172.5,203.167,172.5z"/>
	<path style="fill:#FFD17E;" d="M308.833,202.5c0-16.5-13.5-30-30-30h-45.667c-16.5,0-30,13.5-30,30v283.084   c0,10.447,8.469,18.916,18.917,18.916c10.447,0,18.917-8.469,18.917-18.916V339.511h30v146.073   c0,10.447,8.469,18.916,18.917,18.916c10.447,0,18.916-8.469,18.916-18.916L308.833,202.5z"/>
	<path style="fill:#1A64B6;" d="M474.5,172.5h-30l30,167.511c0,8.28,6.71,14.5,15,14.5c8.28,0,15-6.22,15-14.5V202.5   C504.5,186,491,172.5,474.5,172.5z"/>
	<path style="fill:#54A5FF;" d="M368.833,172.5h30l-30,167.011c0,8.28-6.72,15-15,15s-15-6.72-15-15V202.5   C338.833,186,352.333,172.5,368.833,172.5z"/>
	<path style="fill:#1E8AFF;" d="M474.5,202.5c0-16.5-13.5-30-30-30h-45.667c-16.5,0-30,13.5-30,30v283.084   c0,10.447,8.469,18.916,18.917,18.916c10.447,0,18.917-8.469,18.917-18.916V339.511h30v146.073   c0,10.447,8.469,18.916,18.917,18.916c10.447,0,18.916-8.469,18.916-18.916L474.5,202.5z"/>
	<path style="fill:#FFB739;" d="M256.329,30v90c24.853,0,45-20.147,45-45S281.182,30,256.329,30z"/>
	<path style="fill:#FFD17E;" d="M271.329,75c0-24.853-6.716-45-15-45c-24.853,0-45,20.147-45,45s20.147,45,45,45   C264.613,120,271.329,99.853,271.329,75z"/>
	<path style="fill:#1A64B6;" d="M421.338,52.5v90c24.853,0,45-20.147,45-45S446.19,52.5,421.338,52.5z"/>
	<path style="fill:#1E8AFF;" d="M436.338,97.5c0-24.853-6.716-45-15-45c-24.853,0-45,20.147-45,45s20.147,45,45,45   C429.622,142.5,436.338,122.353,436.338,97.5z"/>
	<path style="fill:#FF7149;" d="M90.662,52.5v90c24.853,0,45-20.147,45-45S115.515,52.5,90.662,52.5z"/>
	<path style="fill:#FF4E51;" d="M105.662,97.5c0-24.853-6.716-45-15-45c-24.853,0-45,20.147-45,45s20.147,45,45,45   C98.947,142.5,105.662,122.353,105.662,97.5z"/>
	<path d="M203.167,195c-4.142,0-7.5,3.358-7.5,7.5v30c0,4.142,3.358,7.5,7.5,7.5s7.5-3.358,7.5-7.5v-30   C210.667,198.358,207.309,195,203.167,195z"/>
	<path d="M474.5,165H368.833c-12.254,0-23.153,5.909-30,15.026c-6.847-9.117-17.746-15.026-30-15.026H203.167   c-12.254,0-23.153,5.909-30,15.026c-6.847-9.117-17.746-15.026-30-15.026H37.5C16.822,165,0,181.822,0,202.5v137.011   c0,12.407,10.093,22.5,22.5,22.5c2.629,0,5.153-0.458,7.5-1.29v124.863C30,500.149,41.851,512,56.417,512   s26.417-11.851,26.417-26.417V347.011h15v138.573c0,14.566,11.851,26.417,26.417,26.417s26.417-11.851,26.417-26.417V360.798   c2.337,0.784,4.858,1.213,7.5,1.213c5.892,0,11.186-2.108,15.158-5.611c3.965,3.488,9.159,5.611,14.842,5.611   c2.629,0,5.153-0.458,7.5-1.29v124.863c0,14.566,11.851,26.417,26.417,26.417s26.417-11.851,26.417-26.417V347.011h15v138.573   c0,14.566,11.851,26.417,26.417,26.417s26.417-11.851,26.417-26.417V360.798c2.337,0.784,4.858,1.213,7.501,1.213   c5.892,0,11.186-2.108,15.158-5.611c3.965,3.488,9.159,5.611,14.842,5.611c2.629,0,5.153-0.458,7.5-1.29v124.863   c0,14.566,11.851,26.417,26.417,26.417s26.417-11.851,26.417-26.417V347.011h15v138.573c0,14.566,11.851,26.417,26.417,26.417   S482,500.149,482,485.583V360.798c2.337,0.784,4.858,1.213,7.5,1.213c12.617,0,22.5-9.664,22.5-22V202.5   C512,181.822,495.178,165,474.5,165z M158.167,347.011c-4.276,0-7.5-3.009-7.5-7c0-0.01,0-137.511,0-137.511   c0-4.142-3.358-7.5-7.5-7.5s-7.5,3.358-7.5,7.5v283.083c0,6.295-5.122,11.417-11.417,11.417s-11.417-5.122-11.417-11.417V339.511   c0-4.142-3.358-7.5-7.5-7.5h-30c-4.142,0-7.5,3.358-7.5,7.5v146.073c0,6.295-5.122,11.417-11.417,11.417S45,491.878,45,485.583   V202.5c0-4.142-3.358-7.5-7.5-7.5s-7.5,3.358-7.5,7.5v137.011c0,4.136-3.364,7.5-7.5,7.5s-7.5-3.364-7.5-7.5V202.5   c0-12.407,10.093-22.5,22.5-22.5h105.667c12.407,0,22.5,10.093,22.5,22.5v137.011c0,0.112,0.007,0.221,0.008,0.333   c-0.001,0.056-0.008,0.111-0.008,0.167C165.667,344.001,162.442,347.011,158.167,347.011z M323.833,347.011   c-4.276,0-7.5-3.009-7.5-7c-0.001-0.019-0.001-137.511-0.001-137.511c0-4.142-3.358-7.5-7.5-7.5s-7.5,3.358-7.5,7.5v283.083   c0,6.295-5.122,11.417-11.417,11.417s-11.417-5.122-11.417-11.417V339.511c0-4.142-3.358-7.5-7.5-7.5h-30   c-4.142,0-7.5,3.358-7.5,7.5v146.073c0,6.295-5.122,11.417-11.417,11.417s-11.417-5.122-11.417-11.417V262.511   c0-4.142-3.358-7.5-7.5-7.5s-7.5,3.358-7.5,7.5v77c0,4.136-3.365,7.5-7.5,7.5c-4.136,0-7.5-3.364-7.5-7.5V202.5   c0-12.407,10.093-22.5,22.5-22.5h105.667c12.407,0,22.5,10.093,22.5,22.5v137.011c0,0.112,0.007,0.221,0.008,0.333   c-0.001,0.056-0.008,0.111-0.008,0.167C331.333,344.001,328.109,347.011,323.833,347.011z M497,340.011c0,3.991-3.224,7-7.5,7   s-7.5-3.009-7.5-7c0-0.01,0-137.511,0-137.511c0-4.142-3.358-7.5-7.5-7.5s-7.5,3.358-7.5,7.5v283.083   c0,6.295-5.122,11.417-11.417,11.417s-11.417-5.122-11.417-11.417V339.511c0-4.142-3.358-7.5-7.5-7.5h-30   c-4.142,0-7.5,3.358-7.5,7.5v146.073c0,6.295-5.122,11.417-11.417,11.417s-11.417-5.122-11.417-11.417V202.5   c0-4.142-3.358-7.5-7.5-7.5s-7.5,3.358-7.5,7.5v137.011c0,4.136-3.365,7.5-7.5,7.5c-4.136,0-7.5-3.364-7.5-7.5V202.5   c0-12.407,10.093-22.5,22.5-22.5H474.5c12.407,0,22.5,10.093,22.5,22.5V340.011z"/>
	<path d="M421.338,150c28.949,0,52.5-23.551,52.5-52.5S450.287,45,421.338,45s-52.5,23.551-52.5,52.5S392.389,150,421.338,150z    M421.338,60c20.678,0,37.5,16.822,37.5,37.5s-16.822,37.5-37.5,37.5s-37.5-16.822-37.5-37.5S400.66,60,421.338,60z"/>
	<path d="M90.662,150c28.949,0,52.5-23.551,52.5-52.5S119.611,45,90.662,45s-52.5,23.551-52.5,52.5S61.713,150,90.662,150z    M90.662,60c20.678,0,37.5,16.822,37.5,37.5S111.34,135,90.662,135s-37.5-16.822-37.5-37.5S69.984,60,90.662,60z"/>
	<path d="M188.829,82.5h15.544c1.276,8.881,4.775,17.053,9.925,23.924l-11.002,11.002c-2.929,2.929-2.929,7.677,0,10.606   c1.464,1.465,3.384,2.197,5.303,2.197s3.839-0.732,5.303-2.197l11.002-11.002c6.871,5.15,15.044,8.649,23.924,9.925V142.5   c0,4.142,3.358,7.5,7.5,7.5s7.5-3.358,7.5-7.5v-15.544c8.881-1.276,17.053-4.775,23.924-9.925l11.002,11.002   c1.464,1.464,3.384,2.197,5.303,2.197s3.839-0.732,5.303-2.197c2.929-2.929,2.929-7.678,0-10.606l-11.002-11.002   c5.15-6.871,8.649-15.043,9.925-23.924h15.544c4.142,0,7.5-3.358,7.5-7.5s-3.358-7.5-7.5-7.5h-15.544   c-1.276-8.881-4.775-17.053-9.925-23.924l11.002-11.002c2.929-2.929,2.929-7.678,0-10.606c-2.929-2.929-7.678-2.929-10.606,0   l-11.002,11.002c-6.871-5.15-15.044-8.649-23.924-9.925V7.5c0-4.142-3.358-7.5-7.5-7.5s-7.5,3.358-7.5,7.5v15.544   c-8.881,1.276-17.053,4.775-23.924,9.925l-11.002-11.002c-2.929-2.93-7.678-2.929-10.606,0c-2.929,2.929-2.929,7.678,0,10.606   l11.002,11.002c-5.15,6.871-8.649,15.043-9.925,23.924h-15.544c-4.142,0-7.5,3.358-7.5,7.5S184.687,82.5,188.829,82.5z    M256.329,37.5c20.678,0,37.5,16.822,37.5,37.5s-16.822,37.5-37.5,37.5s-37.5-16.822-37.5-37.5S235.651,37.5,256.329,37.5z"/>
</g>















</svg>
