<?xml version="1.0" encoding="iso-8859-1"?>
<!-- Generator: Adobe Illustrator 19.0.0, SVG Export Plug-In . SVG Version: 6.00 Build 0)  -->
<svg xmlns="http://www.w3.org/2000/svg" xmlns:xlink="http://www.w3.org/1999/xlink" version="1.1" id="Capa_1" x="0px" y="0px" viewBox="0 0 512 512" style="enable-background:new 0 0 512 512;" xml:space="preserve" width="512" height="512">
<g>
	<polygon style="fill:#FFD17E;" points="444.5,172.5 414.5,172.5 309.5,97.5 414.5,22.5 444.5,22.5  "/>
	<rect x="67.5" y="22.5" style="fill:#FFEAC3;" width="347" height="150"/>
	<polygon style="fill:#53A143;" points="474.5,504.5 444.5,504.5 339.5,429.5 444.5,354.5 489.5,354.5 489.5,489.5  "/>
	<polygon style="fill:#60BA4D;" points="444.5,504.5 256,444.5 67.5,504.5 37.5,504.5 22.5,489.5 22.5,354.5 159.766,354.5    256,384.5 352.234,354.5 444.5,354.5  "/>
	<path style="fill:#A6B0BD;" d="M22.5,7.5c-8.284,0-15,6.716-15,15l0,482h30v-482C37.5,14.216,30.784,7.5,22.5,7.5z"/>
	<path style="fill:#A6B0BD;" d="M489.5,7.5c-8.284,0-15,6.716-15,15l0,482h30v-482C504.5,14.216,497.784,7.5,489.5,7.5z"/>
	<polygon style="fill:#09213D;" points="352.234,354.5 322.234,354.5 307,429.501 414.5,504.5 444.5,504.5  "/>
	<polygon style="fill:#233952;" points="270.999,354.5 256,369.5 241,354.5 159.766,354.5 67.5,504.5 226,504.5 256,474.5    286,504.5 414.5,504.5 322.234,354.5  "/>
	<polygon style="fill:#FFFFFF;" points="271,354.502 241,354.502 235,414.501 277,414.501  "/>
	<polygon style="fill:#FFFFFF;" points="280,444.501 232,444.501 226,504.5 286,504.5  "/>
	<path d="M489.5,0c-9.777,0-18.114,6.271-21.21,15H43.71C40.614,6.271,32.278,0,22.5,0C10.093,0,0,10.094,0,22.5v482   c0,4.143,3.358,7.5,7.5,7.5h59.978c0.03,0,158.5,0,158.5,0c0.028,0,0.056,0,0.084,0h59.908c0.04,0,158.521,0,158.521,0   c0.03,0,60.008,0,60.008,0c4.142,0,7.5-3.357,7.5-7.5v-482C512,10.094,501.907,0,489.5,0z M75,165V30h362v135H75z M45,165V30h15   v135H45z M452,30h15v135h-15V30z M30,497H15V22.5c0-4.136,3.364-7.5,7.5-7.5s7.5,3.364,7.5,7.5V497z M232.713,362l-5.176,51.755   c-0.211,2.108,0.48,4.207,1.902,5.778s3.442,2.468,5.561,2.468h42c2.119,0,4.139-0.896,5.561-2.468s2.113-3.67,1.902-5.778   L279.287,362h68.755l83.039,135H292.788l-5.325-53.245c-0.383-3.834-3.61-6.754-7.463-6.754h-48c-3.853,0-7.08,2.92-7.463,6.754   L219.213,497H80.919l83.04-135H232.713z M264.212,362l4.5,45.001h-25.425l4.5-45.001H264.212z M277.713,497h-43.425l4.5-44.999   h34.425L277.713,497z M448.692,497l-83.039-135H444.5c4.142,0,7.5-3.357,7.5-7.5s-3.358-7.5-7.5-7.5h-377   c-4.142,0-7.5,3.357-7.5,7.5s3.358,7.5,7.5,7.5h78.847l-83.04,135H45V180h422v317H448.692z M497,497h-15V22.5   c0-4.136,3.364-7.5,7.5-7.5s7.5,3.364,7.5,7.5V497z"/>
</g>















</svg>
