<?xml version="1.0" encoding="iso-8859-1"?>
<!-- Generator: Adobe Illustrator 19.0.0, SVG Export Plug-In . SVG Version: 6.00 Build 0)  -->
<svg xmlns="http://www.w3.org/2000/svg" xmlns:xlink="http://www.w3.org/1999/xlink" version="1.1" id="Capa_1" x="0px" y="0px" viewBox="0 0 512 512" style="enable-background:new 0 0 512 512;" xml:space="preserve" width="512" height="512">
<g>
	<rect x="241" y="127.5" style="fill:#57697D;" width="45" height="177.365"/>
	<rect x="226" y="127.5" style="fill:#728192;" width="30" height="177.365"/>
	<path style="fill:#C0C8D2;" d="M256,272v187.5h157.5v-30C413.5,342.515,342.985,272,256,272z"/>
	<path style="fill:#DAE0E7;" d="M256,272c-86.985,0-157.5,70.515-157.5,157.5v30h285v-30C383.5,342.515,326.416,272,256,272z"/>
	<path style="fill:#A6B0BD;" d="M256,332c-53.848,0-97.5,43.652-97.5,97.5v30h195v-30C353.5,375.652,309.848,332,256,332z"/>
	<path style="fill:#57697D;" d="M256,362v82.5h67.5v-15C323.5,392.221,293.279,362,256,362z"/>
	<path style="fill:#728192;" d="M256,362c-37.279,0-67.5,30.221-67.5,67.5v15h105v-15C293.5,392.221,276.711,362,256,362z"/>
	<polygon style="fill:#FF4E51;" points="444.5,429.5 414.5,429.5 388.138,489.5 459.5,474.5  "/>
	<polygon style="fill:#FF7149;" points="414.5,429.5 68.5,429.5 53.5,474.5 53.5,489.5 429.5,489.5 429.5,474.5  "/>
	<path style="fill:#C0C8D2;" d="M489.5,474.5h-30v30h30c8.284,0,15-6.716,15-15C504.5,481.216,497.784,474.5,489.5,474.5z"/>
	<path style="fill:#DAE0E7;" d="M474.5,489.5c0-8.284-6.716-15-15-15h-437c-8.284,0-15,6.716-15,15c0,8.284,6.716,15,15,15h437   C467.784,504.5,474.5,497.784,474.5,489.5z"/>
	<path style="fill:#FF4E51;" d="M256,7.5l25,150h20l19.223-61.712c2.119-6.55,3.277-13.533,3.277-20.788   C323.5,37.721,293.279,7.5,256,7.5z"/>
	<path style="fill:#FF7149;" d="M293.5,75c0-37.279-16.789-67.5-37.5-67.5c-37.279,0-67.5,30.221-67.5,67.5   c0,7.256,1.158,14.238,3.277,20.788L211,157.5h70l10.679-61.712C292.857,89.238,293.5,82.256,293.5,75z"/>
	<path d="M490,467h-25.094l-13.291-39.872c-1.021-3.063-3.887-5.128-7.115-5.128h-23.678   c-3.362-74.757-56.697-136.722-127.322-153.198V165h7.5c3.283,0,6.185-2.135,7.161-5.27l19.197-61.634   C329.774,90.629,331,82.857,331,75c0-41.355-33.645-75-75-75s-75,33.645-75,75c0,7.856,1.225,15.627,3.616,23.019l19.224,61.712   c0.976,3.135,3.877,5.27,7.16,5.27h7.5v103.802C147.874,285.278,94.54,347.243,91.178,422H68.5c-3.229,0-6.095,2.065-7.115,5.128   L48.094,467H22.5C10.094,467,0,477.094,0,489.5S10.094,512,22.5,512h467c12.406,0,22.5-10.094,22.5-22.5S502.131,467,490,467z    M198.912,93.48C196.979,87.504,196,81.287,196,75c0-33.084,26.916-60,60-60s60,26.916,60,60c0,6.287-0.98,12.505-2.938,18.558   L295.48,150H216.52L198.912,93.48z M233.5,165h45v101.041c-7.359-1.008-14.868-1.541-22.5-1.541s-15.141,0.533-22.5,1.541V165z    M256,279.5c80.195,0,145.891,63.261,149.812,142.5h-45.083c-3.859-54.41-49.354-97.5-104.729-97.5   c-22.45,0-43.87,6.991-61.945,20.219c-3.342,2.446-4.069,7.14-1.623,10.482c2.447,3.342,7.138,4.067,10.482,1.623   C218.4,345.49,236.757,339.5,256,339.5c47.1,0,85.861,36.37,89.685,82.5h-15.061c-3.775-37.847-35.8-67.5-74.624-67.5   s-70.849,29.653-74.624,67.5h-15.064c1.353-16.495,7.161-32.125,17.012-45.586c2.446-3.343,1.719-8.036-1.623-10.482   c-3.344-2.444-8.036-1.72-10.482,1.623c-11.746,16.05-18.561,34.741-19.943,54.445h-45.088   C110.109,342.761,175.805,279.5,256,279.5z M315.515,422H196.485c3.705-29.555,28.972-52.5,59.515-52.5S311.81,392.445,315.515,422   z M73.905,437h365.189l10,30H63.906L73.905,437z M489.5,497h-467c-4.136,0-7.5-3.364-7.5-7.5s3.364-7.5,7.5-7.5h30.844   c0.024,0,406.131,0,406.131,0c0.049,0,30.526,0,30.526,0c3.729,0,7,3.505,7,7.5C497,493.636,493.636,497,489.5,497z"/>
</g>















</svg>
