<?xml version="1.0" encoding="iso-8859-1"?>
<!-- Generator: Adobe Illustrator 19.0.0, SVG Export Plug-In . SVG Version: 6.00 Build 0)  -->
<svg xmlns="http://www.w3.org/2000/svg" xmlns:xlink="http://www.w3.org/1999/xlink" version="1.1" id="Capa_1" x="0px" y="0px" viewBox="0 0 512 512" style="enable-background:new 0 0 512 512;" xml:space="preserve" width="512" height="512">
<g>
	<path style="fill:#FFB739;" d="M127.5,297.206l-15,21l15,21h30C157.5,319.812,144.976,303.322,127.5,297.206z"/>
	<path style="fill:#FFD17E;" d="M97.5,339.206h30v-42C110.024,303.322,97.5,319.812,97.5,339.206z"/>
	<path style="fill:#FFB739;" d="M212.35,42.65c-22.93-22.93-52.82-34.64-82.87-35.13c0,0.01-1.97,289.68-1.97,289.68   c0.95-0.95,61.59-61.6,84.84-84.85C259.22,165.49,259.22,89.51,212.35,42.65z"/>
	<path style="fill:#FFD17E;" d="M129.48,7.53c18.18,0.53,36.25,8.36,51.55,23.48c3.53,3.49,6.91,7.37,10.11,11.64   c17.58,23.43,26.36,54.14,26.36,84.85s-8.78,61.42-26.36,84.85c-17.43,23.25-62.92,83.9-63.63,84.85   c-0.01,0.01-61.43-61.42-84.86-84.85c-46.87-46.86-46.87-122.84,0-169.7C66.58,18.71,98.11,7,129.48,7.53z"/>
	<path style="fill:#54A5FF;" d="M384.5,297.206l-15,21l15,21h30C414.5,319.812,401.976,303.322,384.5,297.206z"/>
	<path style="fill:#89C1FF;" d="M354.5,339.206h30v-42C367.024,303.322,354.5,319.812,354.5,339.206z"/>
	<path style="fill:#54A5FF;" d="M469.35,42.65c-22.93-22.93-52.82-34.64-82.87-35.13c0,0.01-1.97,289.68-1.97,289.68   c0.95-0.95,61.59-61.6,84.84-84.85C516.22,165.49,516.22,89.51,469.35,42.65z"/>
	<path style="fill:#89C1FF;" d="M386.48,7.53c18.18,0.53,36.25,8.36,51.55,23.48c3.53,3.49,6.91,7.37,10.11,11.64   c17.58,23.43,26.36,54.14,26.36,84.85s-8.78,61.42-26.36,84.85c-17.43,23.25-62.92,83.9-63.63,84.85   c-0.01,0.01-61.43-61.42-84.86-84.85c-46.87-46.86-46.87-122.84,0-169.7C323.58,18.71,355.11,7,386.48,7.53z"/>
	<path style="fill:#FF2B59;" d="M256,297.206l-15,21l15,21h30C286,319.812,273.476,303.322,256,297.206z"/>
	<path style="fill:#FF4E51;" d="M226,339.206h30v-42C238.524,303.322,226,319.812,226,339.206z"/>
	<path style="fill:#FF2B59;" d="M340.85,42.65c-22.93-22.93-52.82-34.64-82.87-35.13c0,0.01-1.97,289.68-1.97,289.68   c0.95-0.95,61.59-61.6,84.84-84.85C387.72,165.49,387.72,89.51,340.85,42.65z"/>
	<path style="fill:#FF4E51;" d="M257.98,7.53c18.18,0.53,36.25,8.36,51.55,23.48c3.53,3.49,6.91,7.37,10.11,11.64   C337.22,66.08,346,96.79,346,127.5s-8.78,61.42-26.36,84.85c-17.43,23.25-62.92,83.9-63.63,84.85   c-0.01,0.01-61.43-61.42-84.86-84.85c-46.87-46.86-46.87-122.84,0-169.7C195.08,18.71,226.61,7,257.98,7.53z"/>
	<circle style="fill:#FFD17E;" cx="22.5" cy="369.5" r="15"/>
	<circle style="fill:#FF9441;" cx="52.5" cy="309.5" r="15"/>
	<circle style="fill:#FF4E51;" cx="52.5" cy="489.5" r="15"/>
	<circle style="fill:#54A5FF;" cx="459.5" cy="489.5" r="15"/>
	<circle style="fill:#89C1FF;" cx="82.5" cy="399.5" r="15"/>
	<circle style="fill:#FF9441;" cx="489.5" cy="369.5" r="15"/>
	<circle style="fill:#FFD17E;" cx="459.5" cy="309.5" r="15"/>
	<circle style="fill:#FF4E51;" cx="429.5" cy="399.5" r="15"/>
	<path d="M414.5,346.706c4.142,0,7.5-3.358,7.5-7.5c0-18.183-9.599-34.791-24.735-44.159l77.39-77.391   C498.738,193.574,512,161.556,512,127.5c0-34.056-13.262-66.074-37.344-90.156c-20.617-20.617-47.913-33.633-76.859-36.649   c-26.945-2.808-54.279,3.093-77.518,16.643C300.981,6.034,278.956,0,256,0c-22.956,0-44.982,6.034-64.279,17.337   c-23.238-13.549-50.572-19.45-77.517-16.643c-28.946,3.017-56.243,16.032-76.86,36.649c-49.712,49.712-49.712,130.6,0,180.312   l77.391,77.391C99.599,304.414,90,321.022,90,339.206c0,4.142,3.358,7.5,7.5,7.5H120V444.5c0,12.407,10.093,22.5,22.5,22.5   s22.5-10.093,22.5-22.5v-45c0-4.136,3.364-7.5,7.5-7.5s7.5,3.364,7.5,7.5v105c0,4.142,3.358,7.5,7.5,7.5s7.5-3.358,7.5-7.5v-105   c0-12.407-10.093-22.5-22.5-22.5S150,387.093,150,399.5v45c0,4.136-3.364,7.5-7.5,7.5s-7.5-3.364-7.5-7.5v-97.794h22.5   c4.142,0,7.5-3.358,7.5-7.5c0-18.183-9.599-34.791-24.734-44.159l51.484-51.484l51.485,51.484   c-15.135,9.368-24.735,25.975-24.735,44.159c0,4.142,3.358,7.5,7.5,7.5h22.5V504.5c0,4.142,3.358,7.5,7.5,7.5s7.5-3.358,7.5-7.5   V346.706H286c4.142,0,7.5-3.358,7.5-7.5c0-18.183-9.599-34.791-24.734-44.159l77.39-77.39c49.712-49.712,49.712-130.6,0-180.313   c-3.77-3.771-7.736-7.275-11.872-10.506c42.62-21.197,95.552-13.103,129.766,21.112C485.298,69.199,497,97.45,497,127.5   c0,30.05-11.702,58.301-32.951,79.55l-79.549,79.55l-37.738-37.738c-2.929-2.929-7.678-2.929-10.606,0   c-2.929,2.929-2.929,7.678,0,10.606l35.579,35.579C356.599,304.414,347,321.022,347,339.206c0,4.142,3.358,7.5,7.5,7.5H377V444.5   c0,4.136-3.364,7.5-7.5,7.5s-7.5-3.364-7.5-7.5v-45c0-12.407-10.093-22.5-22.5-22.5S317,387.093,317,399.5v105   c0,4.142,3.358,7.5,7.5,7.5s7.5-3.358,7.5-7.5v-105c0-4.136,3.364-7.5,7.5-7.5s7.5,3.364,7.5,7.5v45   c0,12.407,10.093,22.5,22.5,22.5s22.5-10.093,22.5-22.5v-97.794H414.5z M105.779,331.706c2.449-11.66,10.503-21.617,21.721-26.455   c11.218,4.838,19.272,14.794,21.721,26.455H105.779z M127.5,286.599l-79.55-79.55C4.086,163.186,4.086,91.814,47.95,47.95   c34.216-34.215,87.147-42.31,129.766-21.113c-4.137,3.231-8.102,6.736-11.873,10.506c-49.712,49.712-49.712,130.6,0,180.313   l15.3,15.299L127.5,286.599z M234.279,331.706c2.449-11.66,10.503-21.617,21.721-26.455c11.218,4.838,19.272,14.794,21.721,26.455   H234.279z M335.549,207.05L256,286.599l-58.943-58.943c-0.007-0.007-20.606-20.606-20.606-20.606   c-43.863-43.864-43.863-115.236,0-159.1c5.817-5.817,12.162-10.913,18.922-15.255c0.269-0.148,0.527-0.317,0.778-0.499   C213.907,20.997,234.492,15,256,15c21.508,0,42.093,5.997,59.849,17.196c0.251,0.182,0.51,0.351,0.779,0.5   c6.76,4.342,13.104,9.438,18.921,15.254C379.413,91.814,379.413,163.186,335.549,207.05z M384.5,305.251   c11.218,4.838,19.272,14.794,21.721,26.455h-43.442C365.228,320.045,373.282,310.089,384.5,305.251z"/>
	<path d="M45,369.5c0-12.407-10.093-22.5-22.5-22.5S0,357.093,0,369.5S10.093,392,22.5,392S45,381.907,45,369.5z M22.5,377   c-4.136,0-7.5-3.364-7.5-7.5s3.364-7.5,7.5-7.5s7.5,3.364,7.5,7.5S26.636,377,22.5,377z"/>
	<path d="M75,309.5c0-12.407-10.093-22.5-22.5-22.5S30,297.093,30,309.5S40.093,332,52.5,332S75,321.907,75,309.5z M52.5,317   c-4.136,0-7.5-3.364-7.5-7.5s3.364-7.5,7.5-7.5s7.5,3.364,7.5,7.5S56.636,317,52.5,317z"/>
	<path d="M52.5,467C40.093,467,30,477.093,30,489.5S40.093,512,52.5,512S75,501.907,75,489.5S64.907,467,52.5,467z M52.5,497   c-4.136,0-7.5-3.364-7.5-7.5s3.364-7.5,7.5-7.5s7.5,3.364,7.5,7.5S56.636,497,52.5,497z"/>
	<path d="M459.5,467c-12.407,0-22.5,10.093-22.5,22.5s10.093,22.5,22.5,22.5s22.5-10.093,22.5-22.5S471.907,467,459.5,467z    M459.5,497c-4.136,0-7.5-3.364-7.5-7.5s3.364-7.5,7.5-7.5s7.5,3.364,7.5,7.5S463.636,497,459.5,497z"/>
	<path d="M82.5,377C70.093,377,60,387.093,60,399.5S70.093,422,82.5,422s22.5-10.093,22.5-22.5S94.907,377,82.5,377z M82.5,407   c-4.136,0-7.5-3.364-7.5-7.5s3.364-7.5,7.5-7.5s7.5,3.364,7.5,7.5S86.636,407,82.5,407z"/>
	<path d="M489.5,347c-12.407,0-22.5,10.093-22.5,22.5s10.093,22.5,22.5,22.5s22.5-10.093,22.5-22.5S501.907,347,489.5,347z    M489.5,377c-4.136,0-7.5-3.364-7.5-7.5s3.364-7.5,7.5-7.5s7.5,3.364,7.5,7.5S493.636,377,489.5,377z"/>
	<path d="M437,309.5c0,12.407,10.093,22.5,22.5,22.5s22.5-10.093,22.5-22.5S471.907,287,459.5,287S437,297.093,437,309.5z    M467,309.5c0,4.136-3.364,7.5-7.5,7.5s-7.5-3.364-7.5-7.5s3.364-7.5,7.5-7.5S467,305.364,467,309.5z"/>
	<path d="M452,399.5c0-12.407-10.093-22.5-22.5-22.5S407,387.093,407,399.5s10.093,22.5,22.5,22.5S452,411.907,452,399.5z    M429.5,407c-4.136,0-7.5-3.364-7.5-7.5s3.364-7.5,7.5-7.5s7.5,3.364,7.5,7.5S433.636,407,429.5,407z"/>
	<circle cx="320.25" cy="339.206" r="7.5"/>
	<circle cx="221.75" cy="399.5" r="7.5"/>
	<circle cx="52.5" cy="444.5" r="7.5"/>
	<circle cx="489.5" cy="444.5" r="7.5"/>
</g>















</svg>
