<?xml version="1.0" encoding="iso-8859-1"?>
<!-- Generator: Adobe Illustrator 19.0.0, SVG Export Plug-In . SVG Version: 6.00 Build 0)  -->
<svg xmlns="http://www.w3.org/2000/svg" xmlns:xlink="http://www.w3.org/1999/xlink" version="1.1" id="Capa_1" x="0px" y="0px" viewBox="-57 148 497 497" style="enable-background:new -57 148 497 497;" xml:space="preserve" width="512" height="512">
<g>
	<polygon style="fill:#FFB4B3;" points="-49.721,169.841 -0.215,374.66 383.213,374.66 432.719,169.841  "/>
	<polygon style="fill:#FF9E90;" points="383.213,374.66 -0.215,374.66 -49.721,579.478 432.719,579.478  "/>
	<polygon style="fill:#FFCAD6;" points="-49.721,169.841 -49.721,579.478 155.098,374.66  "/>
	<polygon style="fill:#FF876C;" points="227.9,374.66 432.719,579.478 432.719,169.841  "/>
	<polygon style="fill:#09213D;" points="374.477,198.962 316.234,374.66 374.477,550.357 403.598,550.357 403.598,198.962  "/>
	<rect x="-20.599" y="198.962" style="fill:#233952;" width="395.076" height="351.395"/>
	<circle style="fill:#FFFFFF;" cx="220.622" cy="428.051" r="7.28"/>
	<circle style="fill:#FFFFFF;" cx="278.864" cy="428.051" r="7.28"/>
	<circle style="fill:#FFFFFF;" cx="249.743" cy="428.051" r="7.28"/>
	<rect x="-49.721" y="579.478" style="fill:#FF876C;" width="482.439" height="43.682"/>
	<path style="fill:#FFFFFF;" d="M198.237,425.292l-15.895-38.854c-0.012-0.027-0.021-0.054-0.033-0.081l-27.753-67.841   c-1.119-2.735-3.782-4.523-6.738-4.523c-2.956,0-5.618,1.788-6.738,4.523l-27.753,67.842c-0.012,0.026-0.021,0.052-0.032,0.08   l-15.895,38.856c-1.522,3.722,0.26,7.972,3.982,9.494c3.724,1.527,7.973-0.261,9.494-3.982l14.032-34.306h45.82l14.033,34.305   c1.153,2.819,3.872,4.525,6.741,4.525c0.917,0,1.851-0.175,2.754-0.545C197.978,433.264,199.76,429.013,198.237,425.292z    M130.864,381.94l16.953-41.441l16.953,41.441H130.864z"/>
	<path d="M439.999,169.846c0-0.243-0.013-0.484-0.036-0.726c-0.01-0.099-0.028-0.194-0.042-0.291   c-0.019-0.138-0.036-0.276-0.063-0.413c-0.023-0.116-0.055-0.229-0.083-0.344c-0.029-0.116-0.054-0.233-0.089-0.348   c-0.035-0.114-0.077-0.223-0.116-0.334c-0.041-0.113-0.078-0.227-0.123-0.338c-0.043-0.104-0.094-0.204-0.142-0.306   c-0.053-0.114-0.104-0.228-0.164-0.34c-0.051-0.096-0.111-0.187-0.166-0.281c-0.066-0.111-0.128-0.222-0.201-0.33   c-0.067-0.101-0.143-0.195-0.215-0.292c-0.07-0.094-0.135-0.189-0.21-0.281c-0.127-0.155-0.264-0.303-0.404-0.447   c-0.027-0.028-0.049-0.058-0.077-0.085c-0.026-0.026-0.054-0.048-0.081-0.073c-0.146-0.142-0.295-0.28-0.452-0.409   c-0.084-0.07-0.175-0.13-0.261-0.195c-0.103-0.078-0.205-0.157-0.312-0.229c-0.1-0.067-0.204-0.125-0.307-0.186   c-0.101-0.061-0.201-0.124-0.306-0.181c-0.102-0.054-0.206-0.1-0.31-0.15c-0.112-0.053-0.222-0.109-0.338-0.156   c-0.098-0.041-0.199-0.073-0.298-0.11c-0.124-0.046-0.248-0.092-0.375-0.131c-0.097-0.029-0.196-0.05-0.294-0.076   c-0.132-0.034-0.263-0.071-0.398-0.097c-0.108-0.021-0.216-0.033-0.324-0.049c-0.126-0.019-0.251-0.042-0.381-0.054   c-0.18-0.017-0.36-0.023-0.541-0.027c-0.058-0.001-0.115-0.009-0.173-0.009H-49.72c-0.058,0-0.115,0.008-0.173,0.009   c-0.181,0.004-0.36,0.01-0.541,0.027c-0.129,0.013-0.253,0.036-0.381,0.054c-0.108,0.017-0.216,0.028-0.324,0.049   c-0.135,0.026-0.266,0.063-0.398,0.097c-0.098,0.025-0.197,0.047-0.294,0.076c-0.127,0.039-0.249,0.085-0.374,0.131   c-0.1,0.036-0.201,0.069-0.299,0.11c-0.115,0.048-0.225,0.103-0.337,0.156c-0.104,0.049-0.209,0.095-0.311,0.15   c-0.105,0.056-0.204,0.119-0.306,0.181c-0.103,0.061-0.207,0.119-0.307,0.186c-0.108,0.072-0.209,0.151-0.312,0.229   c-0.087,0.065-0.177,0.125-0.261,0.195c-0.157,0.129-0.307,0.267-0.452,0.409c-0.026,0.025-0.054,0.047-0.081,0.073   c-0.027,0.027-0.05,0.057-0.077,0.085c-0.14,0.144-0.277,0.291-0.404,0.447c-0.075,0.091-0.14,0.186-0.21,0.281   c-0.072,0.097-0.148,0.191-0.215,0.292c-0.072,0.108-0.135,0.219-0.201,0.33c-0.055,0.093-0.115,0.184-0.166,0.281   c-0.06,0.112-0.111,0.227-0.165,0.342c-0.048,0.101-0.098,0.2-0.141,0.304c-0.047,0.112-0.084,0.226-0.124,0.341   c-0.04,0.111-0.082,0.219-0.116,0.332c-0.035,0.115-0.06,0.231-0.089,0.348c-0.028,0.115-0.061,0.227-0.083,0.344   c-0.027,0.137-0.044,0.275-0.063,0.413c-0.014,0.097-0.032,0.193-0.042,0.291c-0.024,0.242-0.037,0.483-0.036,0.726V623.16   c0,4.022,3.259,7.28,7.28,7.28H432.72c4.022,0,7.28-3.259,7.28-7.28L439.999,169.846L439.999,169.846z M425.439,561.901   l-14.561-14.561V201.978l14.561-14.561V561.901z M-13.319,543.077V206.243h409.637v336.834H-13.319z M400.582,191.682H-17.584   l-14.561-14.561h447.285L400.582,191.682z M-27.88,201.978V547.34l-14.561,14.561V187.418L-27.88,201.978z M-17.584,557.637   h418.164l14.561,14.561H-32.144L-17.584,557.637z M-42.44,615.879v-29.121h467.879v29.121H-42.44z"/>
</g>
</svg>
