<?xml version="1.0" encoding="iso-8859-1"?>
<!-- Generator: Adobe Illustrator 19.0.0, SVG Export Plug-In . SVG Version: 6.00 Build 0)  -->
<svg xmlns="http://www.w3.org/2000/svg" xmlns:xlink="http://www.w3.org/1999/xlink" version="1.1" id="Capa_1" x="0px" y="0px" viewBox="0 0 512 512" style="enable-background:new 0 0 512 512;" xml:space="preserve" width="512" height="512">
<g>
	<path style="fill:#A6B0BD;" d="M444.5,33.008L256,504.5c126.897-41.797,218.5-161.201,218.5-302V42   C464.555,38.773,454.552,35.782,444.5,33.008z"/>
	<path style="fill:#C0C8D2;" d="M444.5,202.5V33.008C311.254-3.765,169.33-0.773,37.5,42v160.5c0,140.799,91.603,260.203,218.5,302   C365.474,462.703,444.5,343.299,444.5,202.5z"/>
	<path style="fill:#DAE0E7;" d="M384.5,80.322l-30,55.036v85.036l60-21.643V87.125C404.551,84.617,394.549,82.352,384.5,80.322z"/>
	<path style="fill:#FFFFFF;" d="M256,67.5c-53.665,0-106.801,6.589-158.5,19.625v111.625L256,220.394h128.5V80.322   C342.33,71.803,299.338,67.5,256,67.5z"/>
	<path style="fill:#FFB739;" d="M256,123.751v90c24.853,0,45-20.147,45-45S280.853,123.751,256,123.751z"/>
	<path style="fill:#FFD17E;" d="M271,168.751c0-24.853-6.716-45-15-45c-24.853,0-45,20.147-45,45s20.147,45,45,45   C264.284,213.751,271,193.603,271,168.751z"/>
	<path style="fill:#1E8AFF;" d="M256,440.52c43.169-18.003,80.403-47.261,108.511-85.456C397.214,310.622,414.5,257.868,414.5,202.5   v-3.75h-30L256,440.52z"/>
	<path style="fill:#85CF75;" d="M97.5,198.751v3.75c0,55.367,17.286,108.122,49.989,152.563   c28.107,38.195,65.342,67.453,108.511,85.456V198.751H97.5z"/>
	<path style="fill:#54A5FF;" d="M256,198.751V440.52c34.998-18.003,65.185-47.261,87.972-85.456   C370.486,310.622,384.5,257.868,384.5,202.5v-3.75H256z"/>
	<path d="M476.814,34.866C405.51,11.73,331.217,0,256,0S106.49,11.73,35.186,34.866C32.094,35.869,30,38.75,30,42v160.5   c0,69.864,21.827,136.454,63.123,192.57c19.871,27.003,43.687,50.713,70.783,70.469c27.43,19.999,57.625,35.504,89.747,46.084   c0.763,0.251,1.555,0.377,2.347,0.377s1.584-0.126,2.347-0.377c32.122-10.58,62.317-26.085,89.747-46.084   c27.097-19.756,50.912-43.466,70.783-70.469C460.173,338.954,482,272.364,482,202.5V42C482,38.75,479.906,35.869,476.814,34.866z    M467,202.5c0,133.514-84.692,251.385-211,294.094C129.692,453.885,45,336.014,45,202.5V47.474C113.222,25.923,184.178,15,256,15   s142.778,10.923,211,32.474V202.5z"/>
	<path d="M95.666,79.853C92.335,80.692,90,83.689,90,87.125V202.5c0,47.315,12.56,93.675,36.32,134.067   c2.101,3.57,6.697,4.76,10.268,2.662c3.57-2.101,4.762-6.697,2.662-10.268c-21.778-37.021-33.575-79.373-34.219-122.711H248.5   v222.73c-36.473-17.224-68.476-43.255-93.05-75.798c-2.495-3.305-7.198-3.963-10.505-1.466c-3.306,2.496-3.962,7.199-1.466,10.505   c28.465,37.695,66.346,67.15,109.551,85.184c0.255,0.11,0.516,0.207,0.785,0.288c0.25,0.074,0.479,0.133,0.712,0.179   c0.067,0.013,0.136,0.019,0.203,0.031c0.174,0.03,0.347,0.06,0.524,0.078c0.248,0.025,0.497,0.038,0.746,0.038   s0.498-0.013,0.746-0.038c0.177-0.018,0.351-0.048,0.524-0.078c0.068-0.012,0.136-0.018,0.203-0.031   c0.233-0.046,0.462-0.105,0.687-0.172c0.294-0.088,0.556-0.185,0.811-0.295c44.285-18.486,82.868-48.879,111.581-87.897   C404.209,313.77,422,259.477,422,202.5V87.125c0-3.436-2.335-6.433-5.666-7.272C364.091,66.68,310.146,60,256,60   S147.909,66.68,95.666,79.853z M358.47,350.618c-24.847,33.765-57.513,60.681-94.97,78.364V206.251h143.463   C406.201,258.636,389.479,308.479,358.47,350.618z M407,191.251H105V92.996C154.273,81.054,205.046,75,256,75   s101.727,6.054,151,17.996V191.251z"/>
	<path d="M248.5,101.251v15.539c-8.88,1.276-17.046,4.786-23.917,9.936l-11.009-11.009c-2.93-2.928-7.678-2.928-10.607,0   c-2.929,2.93-2.929,7.678,0,10.607l11.007,11.007c-5.151,6.872-8.664,15.038-9.94,23.919H188.5c-4.143,0-7.5,3.357-7.5,7.5   s3.357,7.5,7.5,7.5H211c4.143,0,7.5-3.357,7.5-7.5c0-20.678,16.822-37.5,37.5-37.5s37.5,16.822,37.5,37.5   c0,4.143,3.357,7.5,7.5,7.5h22.5c4.143,0,7.5-3.357,7.5-7.5s-3.357-7.5-7.5-7.5h-15.534c-1.276-8.881-4.789-17.048-9.94-23.919   l11.007-11.007c2.929-2.93,2.929-7.678,0-10.607c-2.93-2.928-7.678-2.928-10.607,0l-11.009,11.009   c-6.871-5.15-15.036-8.661-23.917-9.936v-15.539c0-4.143-3.357-7.5-7.5-7.5S248.5,97.108,248.5,101.251z"/>
</g>















</svg>
