<svg height="490pt" viewBox="-56 0 490 490.216" width="490pt" xmlns="http://www.w3.org/2000/svg"><path d="m217.027344 121.222656h-54.703125l-25.457031-95.007812h103.335937zm0 0" fill="#ffeaa7"/><path d="m333.53125 410.214844 32 40-9.335938 3.113281c-9.648437 3.214844-18.40625 8.632813-25.589843 15.824219-8.371094 8.359375-19.722657 13.0625-31.5625 13.0625-8.816407 0-17.429688-2.605469-24.757813-7.496094l-1.539062-1.023438c-7.308594-4.878906-15.910156-7.480468-24.703125-7.480468-6.910157 0-13.734375 1.609375-19.917969 4.707031l-8.28125 4.140625c-9.414062 4.699219-19.792969 7.152344-30.3125 7.152344s-20.894531-2.453125-30.3125-7.160156l-8.277344-4.144532c-6.195312-3.085937-13.007812-4.695312-19.929687-4.695312-8.792969 0-17.390625 2.601562-24.703125 7.488281l-1.535156 1.023437c-7.328126 4.882813-15.945313 7.488282-24.761719 7.488282-11.832031 0-23.183594-4.703125-31.550781-13.070313-7.183594-7.183593-15.945313-12.601562-25.59375-15.824219l-9.335938-3.105468 32-40zm0 0" fill="#ffeaa7"/><path d="m293.53125 26.214844-56-16c-5.230469 36.609375-20.535156 71.050781-44.207031 99.457031l-3.792969 4.542969-3.792969-4.542969c-23.671875-28.40625-38.980469-62.847656-44.207031-99.457031l-56 16 11.304688 18.847656c8.136718 13.546875 10.535156 29.769531 6.710937 45.097656-1.335937 5.34375-2.015625 10.847656-2.015625 16.367188 0 15.335937 5.214844 30.207031 14.800781 42.183594l17.199219 21.503906v24h112v-24l17.199219-21.503906c9.578125-11.976563 14.800781-26.847657 14.800781-42.183594 0-5.519532-.679688-11.023438-2.015625-16.375-3.832031-15.328125-1.421875-31.542969 6.710937-45.097656zm0 0" fill="#ff826e"/><path d="m305.402344 297.425781c-13.039063-30.984375-33.621094-58.210937-59.871094-79.210937v-8.71875h-112v8.71875c-26.246094 21-46.839844 48.226562-59.871094 79.210937l-44.128906 104.789063c9.382812 3.746094 17.089844 10.769531 21.679688 19.769531l.585937 1.160156c5.976563 11.703125 18.007813 19.070313 31.152344 19.070313 6.902343 0 13.648437-2.046875 19.390625-5.871094l5.6875-3.792969c6.199218-4.136719 13.480468-6.335937 20.929687-6.335937 8.167969 0 16.109375 2.648437 22.640625 7.546875l9.132813 6.855469c8.304687 6.230468 18.417969 9.597656 28.800781 9.597656s20.488281-3.367188 28.800781-9.597656l9.144531-6.847657c6.527344-4.898437 14.480469-7.546875 22.640626-7.546875 7.445312 0 14.726562 2.203125 20.925781 6.335938l5.738281 3.832031c5.703125 3.792969 12.414062 5.824219 19.269531 5.824219 13.167969 0 25.191407-7.4375 31.089844-19.207032 4.144531-8.304687 10.871094-15.03125 19.175781-19.175781l3.214844-1.617187zm0 0" fill="#ff826e"/><path d="m133.53125 186.214844h112v32h-112zm0 0" fill="#ffeaa7"/><path d="m133.492188 186.214844h56.039062c8.832031 0 16 7.167968 16 16 0 8.832031-7.167969 16-16 16h-56.039062zm0 0" fill="#fcd770"/><path d="m346.1875 413.222656c1.199219-.808594 2.410156-1.597656 3.703125-2.253906l9.929687-4.945312-47.03125-111.703126c-13.015624-30.894531-33.496093-58.367187-59.257812-79.792968v-41.503906l15.449219-19.304688c10.671875-13.34375 16.550781-30.101562 16.550781-47.191406 0-6.175782-.757812-12.34375-2.253906-18.3125-3.335938-13.367188-1.28125-27.222656 5.808594-39.039063l16.671874-27.792969-74.851562-21.382812-1.292969 9.078125c-.824219 5.785156-2.007812 11.488281-3.351562 17.136719h-73.464844c-1.34375-5.648438-2.519531-11.351563-3.351563-17.136719l-1.296874-9.078125-74.847657 21.382812 16.671875 27.792969c7.085938 11.816407 9.152344 25.671875 5.808594 39.03125-1.488281 5.976563-2.25 12.144531-2.25 18.320313 0 17.089844 5.878906 33.839844 16.554688 47.183594l15.445312 19.3125v41.503906c-25.757812 21.425781-46.238281 48.898437-59.253906 79.800781l-47.289063 112.304687 7.574219 3.015626c2.28125.910156 4.386719 2.128906 6.386719 3.488281l-32.839844 41.054687 20.222656 6.730469c8.425781 2.8125 16.191407 7.613281 22.472657 13.886719 9.933593 9.925781 23.160156 15.40625 37.214843 15.40625 10.425781 0 20.511719-3.054688 29.207031-8.839844l1.519532-1.023438c10.714844-7.136718 25.097656-8.03125 36.609375-2.273437l8.289062 4.136719c20.945313 10.472656 46.824219 10.472656 67.777344 0l8.277344-4.144532c11.519531-5.757812 25.914062-4.847656 36.59375 2.265626l1.550781 1.039062c8.6875 5.785156 18.777344 8.839844 29.199219 8.839844 14.058593 0 27.28125-5.480469 37.21875-15.414063 6.269531-6.273437 14.039062-11.082031 22.460937-13.878906l20.234375-6.738281zm-124.464844-371.007812c-7.117187 21.488281-17.933594 41.648437-32.191406 59.457031-14.261719-17.808594-25.070312-37.96875-32.191406-59.457031zm-99.152344 101.503906c-8.40625-10.519531-13.039062-23.726562-13.039062-37.191406 0-4.863282.601562-9.726563 1.777344-14.4375 4.375-17.503906 1.671875-35.675782-7.617188-51.152344l-5.933594-9.898438 37.34375-10.671874c6.527344 34.722656 21.804688 67.191406 44.496094 94.433593l9.933594 11.910157 9.929688-11.902344c22.6875-27.234375 37.96875-59.710938 44.496093-94.433594l37.34375 10.671875-5.9375 9.898437c-9.289062 15.480469-11.992187 33.640626-7.617187 51.160157 1.1875 4.695312 1.785156 9.558593 1.785156 14.421875 0 13.464844-4.632812 26.671875-13.039062 37.183594l-18.960938 23.695312v10.808594h-96v-10.808594zm18.960938 66.496094v-16h48c4.410156 0 8 3.585937 8 8 0 4.417968-3.589844 8-8 8zm70.527344-16h25.472656v16h-25.472656c.898437-2.511719 1.472656-5.183594 1.472656-8s-.574219-5.488282-1.472656-8zm-131.03125 106.3125c12.144531-28.824219 31.3125-54.4375 55.449218-74.3125h24.34375c-12.585937 27.503906-19.289062 57.753906-19.289062 88h16c0-30.167969 7.128906-60.375 20.625-87.351563l.320312-.648437h14.191407c13.609375 25.847656 20.863281 54.402344 20.863281 82.929687h16c0-28.382812-6.519531-56.800781-18.902344-82.929687h31.960938c24.132812 19.875 43.308594 45.488281 55.445312 74.3125l41.273438 98.023437c-8.242188 4.96875-15.015625 12.265625-19.328125 20.875-4.558594 9.125-13.726563 14.789063-23.929688 14.789063-5.304687 0-10.429687-1.550782-14.839843-4.496094l-5.734376-3.832031c-15.703124-10.480469-37.6875-9.863281-52.808593 1.472656l-9.136719 6.855469c-13.75 10.3125-34.246094 10.3125-48 0l-9.136719-6.847656c-15.117187-11.335938-37.101562-11.941407-52.796875-1.472657l-5.691406 3.792969c-4.445312 2.960938-9.621094 4.527344-14.957031 4.527344-10.183594 0-19.394531-5.640625-24.023438-14.734375l-.59375-1.128907c-4.222656-8.289062-10.664062-15.167968-18.519531-19.917968zm243.921875 162.960937c-6.921875 6.910157-16.121094 10.726563-25.90625 10.726563-7.253907 0-14.277344-2.125-20.304688-6.144532l-1.550781-1.039062c-15.414062-10.277344-36.078125-11.542969-52.640625-3.269531l-8.277344 4.140625c-16.539062 8.265625-36.945312 8.265625-53.472656 0l-8.28125-4.140625c-16.566406-8.273438-37.214844-7.019531-52.65625 3.277343l-1.519531 1.023438c-6.039063 4.027344-13.0625 6.152344-20.320313 6.152344-9.785156 0-18.984375-3.816406-25.902343-10.726563-7.640626-7.640625-17-13.566406-27.183594-17.214843l16.871094-21.089844c.085937.160156.207031.296875.289062.457031l.582031 1.136719c7.375 14.453125 22.039063 23.4375 38.273438 23.4375 8.503906 0 16.75-2.496094 23.832031-7.214844l5.695312-3.792969c10.199219-6.808593 24.496094-6.421875 34.328126.953125l9.128906 6.855469c9.628906 7.222656 21.558594 11.199219 33.597656 11.199219s23.976562-3.976563 33.601562-11.199219l9.136719-6.847656c9.824219-7.375 24.117188-7.761719 34.328125-.953125l5.742188 3.832031c7.046875 4.679687 15.25 7.167969 23.710937 7.167969 16.296875 0 30.953125-9.054688 38.242188-23.628906.253906-.523438.613281-.976563.894531-1.480469l16.9375 21.167969c-10.167969 3.648437-19.546875 9.574218-27.175781 17.214843zm0 0"/><path d="m141.53125 330.214844h16v16h-16zm0 0"/><path d="m213.53125 322.214844h16v16h-16zm0 0"/></svg>