<svg height="496pt" viewBox="-6 0 496 496" width="496pt" xmlns="http://www.w3.org/2000/svg"><path d="m422.953125 232.632812-17.394531-156.511718c-1.277344-11.535156-6.726563-21.945313-14.917969-29.640625-.089844-.082031-.175781-.160157-.265625-.242188-1.261719-1.148437-2.558594-2.269531-3.941406-3.292969-.472656-.351562-.984375-.65625-1.464844-1-1.074219-.738281-2.136719-1.496093-3.273438-2.144531-1.71875-1-3.511718-1.90625-5.375-2.679687l-69.886718-29.121094h-128l-69.882813 29.121094c-1.871093.773437-3.65625 1.679687-5.375 2.679687-1.144531.65625-2.199219 1.40625-3.273437 2.144531-.496094.335938-1 .640626-1.46875 1-1.386719 1.023438-2.679688 2.144532-3.9375 3.3125-.089844.078126-.175782.148438-.265625.238282-8.199219 7.695312-13.636719 18.105468-14.917969 29.640625l-17.402344 156.496093c-7.613281 68.558594-24.949218 135.6875-51.476562 199.367188l56 24 10.476562-27.230469c19.617188-51.015625 33.425782-104.082031 41.160156-158.183593l12.363282-86.585938v229.335938c0 6.921874 2.238281 13.65625 6.398437 19.191406l17.601563 23.472656v32h176v-32l17.597656-23.472656c4.152344-5.535156 6.402344-12.269532 6.402344-19.191406v-229.335938l12.367187 86.574219c7.734375 54.113281 21.535157 107.179687 41.152344 158.1875l10.480469 27.238281 56-24c-26.53125-63.679688-43.867188-130.808594-51.480469-199.367188zm0 0" fill="#b4dd7f"/><path d="m242.433594 128 15.175781 45.535156c.542969 1.632813.824219 3.335938.824219 5.058594v5.40625c0 8.832031-7.167969 16-16 16-8.839844 0-16-7.167969-16-16v-5.40625c0-1.722656.277344-3.425781.8125-5.058594zm0 0" fill="#e6e9ed"/><path d="m306.433594 8c0 45.328125-21.34375 88.007812-57.601563 115.199219l-6.398437 4.800781-6.402344-4.800781c-36.253906-27.191407-57.597656-69.871094-57.597656-115.199219zm0 0" fill="#e6e9ed"/><path d="m274.433594 8-.449219 3.542969c-5.007813 40.105469-15.632813 79.304687-31.550781 116.457031-15.921875-37.152344-26.546875-76.351562-31.554688-116.457031l-.445312-3.542969zm0 0" fill="#838f9b"/><path d="m154.433594 456h176v32h-176zm0 0" fill="#a0d468"/><g fill="#ffeaa7"><path d="m394.433594 384-1.738282.777344c3.242188 10.382812 6.738282 20.6875 10.449219 30.917968l55.289063-23.695312-1.921875-7.6875c-2.640625-7.863281-5.144531-15.761719-7.511719-23.695312zm0 0"/><path d="m92.175781 384.742188-56.304687-24.125c-2.375 7.933593-4.871094 15.832031-7.511719 23.695312l-1.925781 7.6875 55.285156 23.695312c3.722656-10.238281 7.203125-20.558593 10.457031-30.953124zm0 0"/><path d="m94.304688 225.519531c2.695312-32.390625-3.5625-64.886719-18.097657-93.953125l-1.773437-3.566406-.785156-.945312-11.738282 105.578124c-2.316406 20.886719-5.652344 41.625-9.765625 62.183594 24.101563-15.222656 39.777344-40.808594 42.160157-69.296875zm0 0"/><path d="m410.433594 128-1.785156 3.558594c-14.527344 29.066406-20.792969 61.5625-18.097657 93.953125 2.378907 28.488281 18.050781 54.082031 42.160157 69.304687-1.949219-9.761718-3.71875-19.550781-5.269532-29.402344-.121094-.765624-.257812-1.519531-.378906-2.285156-1.558594-10.136718-2.984375-20.296875-4.117188-30.503906l-11.824218-106.378906zm0 0"/></g><path d="m481.816406 428.921875c-26.25-63.011719-43.382812-129.347656-50.914062-197.167969l-17.390625-156.507812c-2.246094-20.230469-15.328125-37.671875-34.121094-45.503906l-71.359375-29.742188h-131.199219l-71.359375 29.734375c-18.792968 7.832031-31.863281 25.273437-34.121094 45.503906l-17.390624 156.515625c-7.527344 67.820313-24.664063 134.15625-50.914063 197.167969l-3.046875 7.308594 70.910156 30.394531 13.464844-34.984375c17.105469-44.496094 29.855469-90.710937 38.058594-137.6875v119.382813c0 8.601562 2.839844 17.128906 8 23.992187l16 21.335937v37.335938h192v-37.335938l16-21.328124c5.160156-6.871094 8-15.398438 8-24v-119.382813c8.199218 46.976563 20.949218 93.191406 38.054687 137.6875l13.464844 34.984375 70.910156-30.394531zm-32.671875-41.640625-41.359375 17.726562c-1.824218-5.230468-3.601562-10.480468-5.304687-15.75l41.535156-17.800781c1.65625 5.285157 3.351563 10.566407 5.128906 15.824219zm-34.152343-153.769531c1.535156 13.800781 3.550781 27.511719 5.855468 41.175781-12.671875-13.511719-20.757812-31.007812-22.328125-49.839844-1.894531-22.816406.886719-45.671875 8.03125-67.230468zm-211.558594-217.511719c3.863281 29.078125 10.597656 57.671875 20.160156 85.359375-21.753906-23.121094-35.007812-53.457031-36.921875-85.359375zm39 176c-4.417969 0-8-3.585938-8-8v-5.40625c0-.867188.132812-1.714844.40625-2.523438l7.59375-22.765624 7.589844 22.773437c.273437.800781.410156 1.648437.410156 2.515625v5.40625c0 4.414062-3.585938 8-8 8zm55.757812-176c-1.910156 31.902344-15.167968 62.238281-36.917968 85.359375 9.550781-27.6875 16.285156-56.28125 20.160156-85.359375zm-32.917968 0c-4.265626 30.886719-11.921876 61.175781-22.839844 90.359375-10.921875-29.183594-18.578125-59.472656-22.839844-90.359375zm-195.402344 217.511719 8.433594-75.894531c7.144531 21.566406 9.925781 44.414062 8.03125 67.230468-1.566407 18.839844-9.65625 36.328125-22.328126 49.839844 2.3125-13.65625 4.328126-27.375 5.863282-41.175781zm-29.023438 137.9375 41.535156 17.796875c-1.703124 5.273437-3.480468 10.523437-5.304687 15.753906l-41.359375-17.726562c1.777344-5.25 3.472656-10.53125 5.128906-15.824219zm28.59375 54.4375-7.496094 19.488281-41.128906-17.621094c3.382813-8.386718 6.582032-16.824218 9.65625-25.3125l41.113282 17.613282c-.722657 1.9375-1.402344 3.898437-2.144532 5.832031zm40.703125-156.4375c-5.039062 35.3125-12.792969 70.246093-23.015625 104.4375l-41.570312-17.816407c5.378906-18.636718 9.929687-37.503906 13.816406-56.519531 24.457031-16.734375 40.433594-43.664062 42.898438-73.375 2.824218-33.855469-3.722657-67.816406-18.90625-98.191406l-1.445313-2.90625 5.34375-48.070313c.351563-3.160156 1.132813-6.191406 2.183594-9.105468 21.246093 28.378906 32.984375 63.007812 32.984375 98.585937v16.925781zm52.289063 210.550781v-16h160v16zm184-66.664062c0 5.160156-1.707032 10.273437-4.800782 14.398437l-15.199218 20.265625h-76v-16h-16v16h-76l-15.203125-20.273438c-3.09375-4.117187-4.796875-9.230468-4.796875-14.390624v-246.847657c0-41.105469-14.226563-81.089843-39.9375-113.097656 3.679687-3.75 8.121094-6.796875 13.136718-8.886719l59.328126-24.71875c3.414062 43.222656 25.359374 83.628906 60.277343 109.816406l1.785157 1.335938-13.359376 40.054688c-.816406 2.457031-1.230468 5.007812-1.230468 7.601562v5.40625c0 10.414062 6.710937 19.214844 16 22.527344v17.472656h16v-17.472656c9.285156-3.3125 16-12.113282 16-22.527344v-5.40625c0-2.59375-.417969-5.152344-1.234375-7.585938l-13.359375-40.0625 1.785156-1.335937c34.917969-26.183594 56.871094-66.601563 60.277344-109.816406l59.328125 24.71875c5.007812 2.089843 9.449219 5.136719 13.136719 8.886719-25.710938 32.007812-39.933594 72-39.933594 113.097656zm16-229.921876v-16.925781c0-35.578125 11.742187-70.207031 32.980468-98.585937 1.050782 2.921875 1.832032 5.953125 2.1875 9.105468l5.34375 48.070313-1.449218 2.90625c-15.183594 30.382813-21.726563 64.335937-18.902344 98.191406 2.46875 29.703125 18.4375 56.640625 42.894531 73.375 3.886719 19.007813 8.441407 37.882813 13.816407 56.519531l-41.570313 17.816407c-10.222656-34.183594-17.972656-69.125-23.015625-104.4375zm60.488281 261.960938-7.496094-19.488281c-.746093-1.933594-1.425781-3.894531-2.152343-5.839844l41.109374-17.613281c3.074219 8.488281 6.273438 16.933594 9.65625 25.308594zm0 0"/><path d="m234.433594 240h16v32h-16zm0 0"/><path d="m234.433594 288h16v32h-16zm0 0"/><path d="m234.433594 336h16v32h-16zm0 0"/><path d="m234.433594 384h16v32h-16zm0 0"/></svg>