<svg height="497pt" viewBox="0 -40 497.504 497" width="497pt" xmlns="http://www.w3.org/2000/svg"><path d="m449.695312 102.5c-.625-4.128906-2.046874-8.097656-4.191406-11.671875l-20.75-34.574219v-16h-352v16l-20.753906 34.574219c-2.152344 3.574219-3.566406 7.542969-4.191406 11.671875l-39.054688 257.753906c57.742188 31.503906 122.46875 48 188.238282 48h11.761718l30.734375-192.105468c.726563-4.542969 4.65625-7.894532 9.265625-7.894532 4.605469 0 8.535156 3.351563 9.261719 7.894532l30.738281 192.105468h11.757813c65.777343 0 130.496093-16.496094 188.242187-48zm0 0" fill="#fcd770"/><path d="m216.753906 40.234375v120.019531l32 16 32-16v-120.019531zm0 0" fill="#ffeaa7"/><g fill="#e6e9ed"><path d="m72.753906 8.253906h352v48h-352zm0 0"/><path d="m213.871094 376.253906 5.167968-32.257812-2.285156.257812h-11.761718c-65.183594 0-129.320313-16.25-186.664063-47.203125l-4.511719 29.792969 2.9375 1.410156c44.726563 24.398438 93.644532 39.796875 144 45.503906l16 1.484376c9.382813.664062 18.796875 1.011718 28.238282 1.011718zm0 0"/><path d="m283.632812 376.253906h8.871094c65.777344 0 130.496094-16.496094 188.238282-48l2.890624-1.738281-4.457031-29.464844c-57.34375 30.953125-121.488281 47.203125-186.664062 47.203125h-11.757813l-2.289062-.304687zm0 0"/></g><path d="m122.574219 56.253906h-49.820313l-20.753906 34.574219c-2.152344 3.574219-3.566406 7.542969-4.191406 11.671875l-10.992188 72.558594c48.886719-17.160156 84.230469-63.628906 85.757813-118.804688zm0 0" fill="#ff826e"/><path d="m374.742188 56.253906h49.824218l20.753906 34.574219c2.152344 3.574219 3.566407 7.542969 4.191407 11.671875l10.992187 72.558594c-48.894531-17.160156-84.238281-63.628906-85.761718-118.804688zm0 0" fill="#ff826e"/><path d="m467.894531 169.1875.113281-.246094-.160156-.074218-10.238281-67.566407c-.785156-5.183593-2.554687-10.089843-5.25-14.59375l-19.605469-32.671875v-53.78125h-368v53.78125l-19.609375 32.679688c-2.695312 4.496094-4.464843 9.402344-5.25 14.585937l-10.238281 67.566407-.160156.074218.113281.246094-29.609375 195.410156 4.921875 2.679688c58.734375 32.039062 125.148437 48.976562 192.070313 48.976562h18.582031l31.816406-198.832031c.21875-1.347656 2.511719-1.347656 2.738281 0l31.800782 198.832031h18.582031c66.921875 0 133.335937-16.9375 192.074219-48.976562l4.917968-2.679688zm7.007813 153.054688c-55.902344 30.074218-118.894532 46.011718-182.390625 46.011718h-2.0625l-2.5625-16h4.625c62.558593 0 124.59375-14.976562 180.410156-43.082031zm-362.148438-273.988282v-32h16v32zm32-32h16v32h-16zm32 0h16v32h-16zm80 32h-16v-32h16zm16-32h16v32h-16zm-48 32h-16v-32h16zm0 16h48v91.054688l-24 12-24-12zm80-48h16v32h-16zm32 0h16v32h-16zm32 0h16v32h-16zm32 0h16v32h-16zm-320 0h16v32h-16zm116.238282 384c-62.382813 0-124.320313-15.328125-179.488282-44.386718l2.558594-16.910157c43.730469 22.742188 90.691406 37.183594 139.785156 42.742188l1.808594-15.886719c-48.953125-5.542969-95.710938-20.222656-139.054688-43.542969l1.984376-13.097656c55.8125 28.105469 117.847656 43.082031 180.40625 43.082031h4.625l-2.5625 16h-2.0625c-9.144532 0-18.449219-.339844-27.664063-.992187l-1.144531 15.949219c9.425781.671874 18.953125 1.015624 28.3125 1.03125l-2.566406 16.011718zm51.761718-200c-8.585937 0-15.808594 6.148438-17.167968 14.628906l-19.417969 121.371094h-7.175781c-61.816407 0-123.105469-15.195312-177.886719-43.730468l17.0625-112.589844 3.550781-1.578125c40.578125-18.03125 70.023438-53.078125 80.800781-96.160157l-15.519531-3.878906c-9.03125 36.121094-32.960938 65.710938-65.910156 82.414063l8.636718-57.023438c.472657-3.109375 1.53125-6.054687 3.152344-8.75l18.402344-30.703125h131.472656v100.941406l40 20 40-20v-100.941406h131.46875l18.417969 30.6875c1.617187 2.695313 2.671875 5.648438 3.152344 8.757813l8.640625 57.023437c-32.953125-16.703125-56.890625-46.292968-65.914063-82.414062l-15.519531 3.878906c10.769531 43.082031 40.214844 78.128906 80.800781 96.160156l3.550781 1.578125 17.0625 112.589844c-54.796874 28.542969-116.085937 43.738281-177.902343 43.738281h-7.183594l-19.417969-121.371094c-1.351562-8.480468-8.574218-14.628906-17.15625-14.628906zm51.757813 200h-4.945313l-2.558594-16.019531c64.070313-.078125 127.601563-15.824219 184.417969-45.34375l2.574219 16.976563c-55.167969 29.058593-117.097656 44.386718-179.488281 44.386718zm0 0"/><path d="m240.753906 80.253906h16v16h-16zm0 0"/><path d="m240.753906 120.253906h16v16h-16zm0 0"/></svg>