<svg height="499pt" viewBox="0 -4 499.696 499" width="499pt" xmlns="http://www.w3.org/2000/svg"><path d="m113.847656 184.347656-40 176-64-16 73.855469-273.273437c3.871094-14.335938 14.167969-26.070313 27.871094-31.78125l74.273437-30.945313h128l74.265625 30.945313c13.710938 5.710937 24 17.445312 27.871094 31.78125l73.863281 273.273437-64 16-40-176zm0 0" fill="#aab2bd"/><path d="m217.847656 64.347656h64v400h-64zm0 0" fill="#fcd770"/><path d="m388.113281 39.292969-74.265625-30.945313h-12.296875l-19.703125 72v400l104-24v-313.351562c0-30.296875 8.191406-60.023438 23.671875-86.054688-5.191406-7.769531-12.566406-13.96875-21.40625-17.648437zm0 0" fill="#e6e9ed"/><path d="m191.960938 8.347656h-6.113282l-74.261718 30.945313c-8.832032 3.679687-16.210938 9.878906-21.410157 17.648437 15.480469 26.03125 23.671875 55.757813 23.671875 86.054688v313.351562l104 24v-400zm0 0" fill="#e6e9ed"/><path d="m289.847656 8.347656-40 56 56 32 8-88zm0 0" fill="#aab2bd"/><path d="m113.03125 127.410156c.488281 5.167969.816406 10.371094.816406 15.585938v33.191406l104 104.160156v-48l-104-104zm0 0" fill="#fcd770"/><path d="m281.847656 240.347656h104v32h-104zm0 0" fill="#fcd770"/><path d="m209.847656 8.347656h80l-40 56zm0 0" fill="#656d78"/><path d="m209.847656 8.347656 40 56-56 32-8-88zm0 0" fill="#aab2bd"/><path d="m81.128906 328.1875-7.28125 32.160156-64-16 8.640625-31.839844zm0 0" fill="#fcd770"/><path d="m481.207031 312.507812 8.640625 31.839844-64 16-7.28125-32.160156zm0 0" fill="#fcd770"/><path d="m499.695312 350.132812-75.984374-281.136718c-4.488282-16.609375-16.648438-30.472656-32.519532-37.082032l-75.742187-31.566406h-131.203125l-75.734375 31.558594c-15.878907 6.617188-28.039063 20.480469-32.527344 37.089844l-75.984375 281.136718 79.839844 19.960938 26.007812-114.449219v207.070313l120 27.6875v-18.054688h48v18.054688l120-27.6875v-207.070313l26.007813 114.449219zm-67.855468.472657-3.769532-16.570313 47.496094-11.871094 4.433594 16.398438zm-31.839844-292.984375c-14.457031 26.117187-22.152344 55.472656-22.152344 85.375v89.351562h-88v-135.925781l22.839844 13.046875 8.144531-89.542969 64.207031 26.75c5.816407 2.425781 10.921876 6.230469 14.960938 10.945313zm-150.152344-7.042969-24.457031-34.230469h48.90625zm-128 97.082031 88 88v25.375l-88-88zm78.839844-64.433594-6.078125-66.878906h11.117187l32.464844 45.449219zm93.28125-66.878906h11.121094l-6.082032 66.878906-37.503906-21.429687zm-4.121094 232h88v16h-88zm-175.183594-201.671875 64.207032-26.75 8.144531 89.542969 22.832031-13.046875v116.613281l-89.136718-89.136718c-2.535157-23.230469-9.65625-45.75-21.015626-66.277344 4.039063-4.714844 9.144532-8.519532 14.96875-10.945313zm-94.96875 291.886719 4.433594-16.398438 47.496094 11.871094-3.769531 16.570313zm55.472657-20.132812-46.863281-11.722657 62.511718-231.296875c9.816406 21.121094 15.03125 44.160156 15.03125 67.578125v40.457031zm46.679687 131.558593v-254.328125l88 88v186.632813zm104 6.359375v-369.070312l24-13.714844 24 13.714844v369.070312zm64 13.945313v-189.945313h88v169.640625zm104-327.296875c0-23.417969 5.214844-46.457032 15.03125-67.574219l62.511719 231.292969-46.863281 11.722656-30.679688-134.984375zm0 0"/><path d="m241.847656 136.347656h16v16h-16zm0 0"/><path d="m241.847656 192.347656h16v16h-16zm0 0"/><path d="m241.847656 248.347656h16v16h-16zm0 0"/><path d="m241.847656 304.347656h16v16h-16zm0 0"/><path d="m241.847656 360.347656h16v16h-16zm0 0"/><path d="m241.847656 408.347656h16v16h-16zm0 0"/></svg>