<svg height="496pt" viewBox="-80 0 496 496" width="496pt" xmlns="http://www.w3.org/2000/svg"><path d="m272 472h-208l-48-16-7.046875-28.175781c-.632813-2.542969-.953125-5.144531-.953125-7.761719v-148.796875c0-28.097656 18.328125-52.90625 45.175781-61.167969l58.824219-18.097656h112l58.816406 18.105469c26.855469 8.253906 45.183594 33.0625 45.183594 61.160156v148.796875c0 2.617188-.320312 5.21875-.953125 7.761719l-7.046875 28.175781zm0 0" fill="#a0d468"/><path d="m152 240-29.183594-32.433594c-27.570312-30.621094-42.816406-70.367187-42.816406-111.566406 0-48.601562 39.398438-88 88-88s88 39.398438 88 88c0 41.199219-15.246094 80.945312-42.816406 111.566406l-29.183594 32.433594-17 19zm0 0" fill="#a0d468"/><path d="m168 192 15.519531 62.089844c.3125 1.269531.480469 2.574218.480469 3.878906v6.03125c0 8.832031-7.167969 16-16 16-8.839844 0-16-7.167969-16-16v-6.03125c0-1.304688.160156-2.609375.480469-3.878906zm0 0" fill="#e6e9ed"/><path d="m72 423.175781h16l-16-156.054687zm0 0" fill="#8cc152"/><path d="m248 423.175781h16v-156.054687zm0 0" fill="#8cc152"/><path d="m272 456h48v32h-48zm0 0" fill="#fcd770"/><path d="m64 488h-48v-32h48zm0 0" fill="#fcd770"/><path d="m181.480469 188.449219-13.480469 11.550781-13.488281-11.550781c-26.984375-23.136719-42.511719-56.90625-42.511719-92.449219 0-30.929688 25.070312-56 56-56s56 25.070312 56 56c0 35.542969-15.527344 69.3125-42.519531 92.449219zm0 0" fill="#969faa"/><path d="m160 328h16v24h-16zm0 0"/><path d="m160 368h16v24h-16zm0 0"/><path d="m160 408h16v24h-16zm0 0"/><path d="m285.167969 202.457031-47.3125-14.5625c16.984375-27.4375 26.144531-59.160156 26.144531-91.894531 0-52.9375-43.0625-96-96-96s-96 43.0625-96 96c0 32.734375 9.160156 64.457031 26.144531 91.894531l-47.3125 14.5625c-30.40625 9.351563-50.832031 37.007813-50.832031 68.816407v148.789062c0 3.265625.398438 6.53125 1.191406 9.699219l6.808594 27.214843v39.023438h64v-16h192v16h64v-39.023438l6.816406-27.214843c.785156-3.167969 1.183594-6.433594 1.183594-9.699219v-148.789062c0-31.808594-20.425781-59.464844-50.832031-68.816407zm-117.167969-186.457031c44.113281 0 80 35.886719 80 80 0 39.296875-14.480469 77.015625-40.761719 106.214844l-22.253906 24.746094-6.375-25.511719 8.085937-6.929688c28.792969-24.6875 45.304688-60.589843 45.304688-98.519531 0-35.289062-28.710938-64-64-64s-64 28.710938-64 64c0 37.929688 16.511719 73.832031 45.3125 98.519531l8.085938 6.929688-6.320313 25.277343-22.316406-24.511718c-26.28125-29.199219-40.761719-66.917969-40.761719-106.214844 0-44.113281 35.886719-80 80-80zm8.28125 166.367188-8.28125 7.097656-8.28125-7.097656c-25.238281-21.640626-39.71875-53.121094-39.71875-86.367188 0-26.472656 21.527344-48 48-48s48 21.527344 48 48c0 33.246094-14.480469 64.726562-39.71875 86.367188zm-8.28125 89.632812c-4.414062 0-8-3.59375-8-8v-6.03125c0-.648438.089844-1.3125.230469-1.9375l7.769531-31.039062 7.761719 31.007812c.160156.65625.238281 1.320312.238281 1.96875v6.03125c0 4.40625-3.585938 8-8 8zm-112 208h-32v-16h32zm120-16v-16h-16v16h-88v-7.023438l6.71875-26.855468c29.539062-10.664063 49.28125-38.585938 49.28125-70.121094h-16c0 22.296875-12.566406 42.289062-32 52.167969v-148.167969h-16v156.0625c0 1.960938-.238281 3.921875-.710938 5.816406l-5.527343 22.121094h-35.515625l-5.527344-22.121094c-.480469-1.894531-.71875-3.855468-.71875-5.816406v-148.789062c0-24.738282 15.886719-46.25 39.527344-53.53125l52.136718-16.039063c2.921876 3.839844 5.953126 7.609375 9.199219 11.226563l29.472657 32.734374-1.632813 6.519532c-.464844 1.90625-.703125 3.847656-.703125 5.785156v6.03125c0 10.414062 6.710938 19.214844 16 22.527344v25.472656h16v-25.472656c9.289062-3.3125 16-12.113282 16-22.527344v-6.03125c0-1.9375-.238281-3.878906-.71875-5.824219l-1.6875-6.746093 29.535156-32.476563c3.246094-3.617187 6.277344-7.386719 9.199219-11.226563l52.136719 16.039063c23.648437 7.289063 39.535156 28.792969 39.535156 53.539063v148.789062c0 1.960938-.238281 3.921875-.710938 5.816406l-5.527343 22.121094h-35.515625l-5.527344-22.121094c-.480469-1.894531-.71875-3.855468-.71875-5.816406v-156.0625h-16v148.167969c-19.433594-9.886719-32-29.871094-32-52.167969h-16c0 31.535156 19.742188 59.457031 49.289062 70.121094l6.710938 26.855468v7.023438zm136 16h-32v-16h32zm0 0"/></svg>