<svg height="496pt" viewBox="0 0 496 496" width="496pt" xmlns="http://www.w3.org/2000/svg"><path d="m448 384v32h-48v72h-32v-72h-32v72h-32v-72h-32l-.960938-.640625 19.039063-31.359375h77.921875v-104h32v104zm0 0" fill="#b4dd7f"/><path d="m224.960938 415.359375-.960938.640625h-32v72h-32v-72h-80v72h-32v-208h32v104h125.921875zm0 0" fill="#b4dd7f"/><path d="m205.921875 384h-125.921875v-104h32v72h72l1.761719-1.039062zm0 0" fill="#b4dd7f"/><path d="m464 168c13.28125 0 24 10.71875 24 24s-10.71875 24-24 24h-96.160156c-1.121094-18.960938-6.640625-36.800781-15.519532-52.320312 2.078126-15.601563 15.441407-27.679688 31.679688-27.679688 9.601562 0 18.160156 4.320312 24 11.039062 5.839844-6.71875 14.398438-11.039062 24-11.039062 17.679688 0 32 14.320312 32 32zm0 0" fill="#69d6f4"/><path d="m143.679688 163.199219.242187.160156c-9.042969 15.601563-14.640625 33.519531-15.761719 52.640625h-96.160156c-13.28125 0-24-10.71875-24-24s10.71875-24 24-24c0-17.679688 14.320312-32 32-32 9.601562 0 18.160156 4.320312 24 11.039062 5.839844-6.71875 14.398438-11.039062 24-11.039062 16.078125 0 29.359375 11.839844 31.679688 27.199219zm0 0" fill="#69d6f4"/><path d="m142.800781 280c-9.679687-17.519531-14.800781-37.199219-14.800781-57.28125 0-2.238281.078125-4.480469.160156-6.71875 1.121094-19.121094 6.71875-37.039062 15.761719-52.640625 2.71875-4.71875 5.757813-9.28125 9.117187-13.519531 13.039063-16.800782 30.5625-30 50.722657-37.839844 4-1.519531 8.078125-2.878906 12.238281-4v36l-56 40v16h64l1.679688.398438-1.679688 7.601562v40h48v-40l-1.679688-7.601562 1.679688-.398438h64v-16l-56-40v-36c4.160156 1.121094 8.238281 2.480469 12.238281 4 25.441407 9.839844 46.640625 28.238281 60.082031 51.679688 8.878907 15.519531 14.398438 33.359374 15.519532 52.320312.082031 2.238281.160156 4.480469.160156 6.71875 0 20.082031-5.121094 39.761719-14.800781 57.28125-.71875 1.519531-1.597657 2.960938-2.480469 4.398438l-60.640625 99.601562-19.039063 31.359375h-.078124l-10.800782 17.839844c-2.558594 4.242187-7.199218 6.800781-12.160156 6.800781s-9.601562-2.558594-12.160156-6.800781l-10.800782-17.839844h-.078124l-19.039063-31.359375-20.160156-33.039062-40.480469-66.5625c-.882812-1.4375-1.761719-2.878907-2.480469-4.398438zm0 0" fill="#ff826e"/><g fill="#969faa"><path d="m336 184v16h-64l-1.679688.398438-7.199218-32.238282.878906-.160156 16-24zm0 0"/><path d="m232.878906 168.160156-7.199218 32.238282-1.679688-.398438h-64v-16l56-40 16 24zm0 0"/><path d="m360 88v24h-67.761719c-4-1.519531-8.078125-2.878906-12.238281-4v-36zm0 0"/><path d="m216 72v36c-4.160156 1.121094-8.238281 2.480469-12.238281 4h-59.761719v-24zm0 0"/></g><path d="m272 208v40h-48v-40l1.679688-7.601562 7.199218-32.238282 7.121094-32.160156h16l7.121094 32.160156 7.199218 32.238282zm0 0" fill="#fcd770"/><path d="m280 108v36l-16 24-.878906.160156-7.121094-32.160156h-16l-7.121094 32.160156-.878906-.160156-16-24v-98.640625c0-3.519531 1.121094-6.878906 3.199219-9.597656l16-21.363281c3.039062-4 7.761719-6.398438 12.800781-6.398438s9.761719 2.398438 12.800781 6.398438l16 21.363281c2.078125 2.71875 3.199219 6.078125 3.199219 9.597656zm0 0" fill="#e6e9ed"/><path d="m416 240h16v16h-16zm0 0"/><path d="m448 240h16v16h-16zm0 0"/><path d="m480 240h16v16h-16zm0 0"/><path d="m0 240h16v16h-16zm0 0"/><path d="m32 240h16v16h-16zm0 0"/><path d="m64 240h16v16h-16zm0 0"/><path d="m496 192c0-15.113281-10.527344-27.816406-24.640625-31.144531-3.375-18.664063-19.742187-32.855469-39.359375-32.855469-8.6875 0-17.105469 2.902344-24 8.144531-6.894531-5.242187-15.3125-8.144531-24-8.144531-13.953125 0-26.359375 7.375-33.542969 18.511719-7.609375-10.113281-16.753906-19.03125-27.097656-26.511719h44.640625v-38.558594l-80-16v-20.105468c0-5.160157-1.703125-10.273438-4.808594-14.398438l-15.992187-21.335938c-4.503907-6.007812-11.679688-9.601562-19.199219-9.601562s-14.695312 3.59375-19.191406 9.601562l-16 21.335938c-3.105469 4.125-4.808594 9.238281-4.808594 14.398438v20.25l-72 16v38.414062h36.640625c-10.34375 7.480469-19.496094 16.40625-27.105469 26.519531-7.207031-11.128906-19.65625-18.519531-33.535156-18.519531-8.6875 0-17.105469 2.902344-24 8.144531-6.894531-5.242187-15.3125-8.144531-24-8.144531-19.617188 0-35.984375 14.191406-39.359375 32.855469-14.113281 3.328125-24.640625 16.03125-24.640625 31.144531 0 17.648438 14.351562 32 32 32h88.046875c.167969 16.558594 3.578125 32.855469 9.976563 48h-90.023438v224h416v-224h-90.015625c6.398437-15.144531 9.800781-31.441406 9.976563-48h88.039062c17.648438 0 32-14.351562 32-32zm-144-97.441406v9.441406h-58.449219c-1.824219-.679688-3.6875-1.265625-5.550781-1.863281v-20.375zm-80.191406 76.152344 10.269531-15.398438 45.921875 32.808594v3.878906h-51.519531zm-47.808594-125.375c0-1.710938.566406-3.414063 1.601562-4.800782l16.007813-21.335937c2.984375-4 9.789063-4 12.789063 0l16 21.335937c1.035156 1.375 1.601562 3.082032 1.601562 4.800782v96.25l-4.96875 7.445312-4.617188-21.03125h-28.828124l-4.664063 20.96875-4.921875-7.394531zm-4.640625 146.664062h-51.359375v-3.878906l45.929688-32.808594 10.191406 15.289062zm-67.359375-88v-9.585938l56-12.445312v20.167969c-1.863281.597656-3.734375 1.183593-5.550781 1.863281zm53.542969 16h2.457031v19.878906l-56 40v28.121094h64.175781l-.175781 40h16v-39.121094l14.414062-64.878906h3.171876l14.414062 64.878906v39.121094h16v-40h64v-28.121094l-56-40v-19.878906h2.457031c41.503907 16.625 69.542969 57.097656 69.542969 102.710938 0 20.3125-5.574219 40.21875-16.144531 57.5625l-90.535157 148.734374c-2.230468 3.6875-8.410156 3.6875-10.640624 0l-90.535157-148.734374c-10.570312-17.34375-16.144531-37.25-16.144531-57.5625 0-45.613282 28.039062-86.085938 69.542969-102.710938zm154.457031 168v88h-55.671875l53.207031-87.40625c.121094-.195312.21875-.402344.335938-.59375zm32 192h-16v-72h-48v72h-16v-72h-27.152344l9.738282-16h81.414062v-104h16v104h48v16h-48zm-32 0h-16v-56h16zm-130.992188-42.671875c4 6.582031 11.28125 10.671875 18.992188 10.671875s14.992188-4.089844 18.992188-10.671875l8.113281-13.328125h20.894531v56h-96v-56h20.894531zm-141.007812-149.328125h16v72h77.9375l9.734375 16h-103.671875zm-72-96c0-8.824219 7.175781-16 16-16h8v-8c0-13.230469 10.769531-24 24-24 6.910156 0 13.296875 2.953125 17.976562 8.304688l6.023438 6.878906 6.023438-6.886719c4.679687-5.34375 11.066406-8.296875 17.976562-8.296875 11.113281 0 20.726562 7.839844 23.257812 18.480469-7.523437 13.910156-12.402343 29.328125-14.296874 45.519531h-88.960938c-8.824219 0-16-7.175781-16-16zm122.472656 96.59375 33.726563 55.40625h-52.199219v-56h18.136719c.109375.191406.214843.398438.335937.59375zm-82.472656-.59375h16v104h129.414062l9.738282 16h-27.152344v72h-16v-72h-96v72h-16zm96 192h-64v-56h64zm256 0v-56h32v56zm32-104h-32v-88h32zm24-168h-88.960938c-1.894531-16.191406-6.773437-31.609375-14.296874-45.519531 2.53125-10.664063 12.089843-18.480469 23.257812-18.480469 6.910156 0 13.296875 2.953125 17.976562 8.304688l6.023438 6.878906 6.023438-6.886719c4.679687-5.34375 11.066406-8.296875 17.976562-8.296875 13.230469 0 24 10.769531 24 24v8h8c8.824219 0 16 7.175781 16 16s-7.175781 16-16 16zm0 0"/><path d="m264 264h16v16h-16zm0 0"/><path d="m264 296h16v16h-16zm0 0"/><path d="m216 264h16v16h-16zm0 0"/><path d="m216 296h16v16h-16zm0 0"/></svg>