<svg height="496pt" viewBox="0 0 496 496" width="496pt" xmlns="http://www.w3.org/2000/svg"><path d="m488 424v24c0 22.078125-17.921875 40-40 40s-40-17.921875-40-40v-24zm0 0" fill="#969faa"/><path d="m448 360c11.039062 0 21.039062 4.480469 28.320312 11.679688 7.199219 7.28125 11.679688 17.28125 11.679688 28.320312v24h-80v-24c0-22.078125 17.921875-40 40-40zm0 0" fill="#ccd1d9"/><path d="m312 408h-272c-17.679688 0-32-14.320312-32-32v-40h336v40c0 17.679688-14.320312 32-32 32zm0 0" fill="#838f9b"/><path d="m344 152v184h-32v-184h-92l-20-8v-24h112c17.679688 0 32 14.320312 32 32zm0 0" fill="#aab2bd"/><path d="m152 120v24l-20 8h-92v184h-32v-184c0-17.679688 14.320312-32 32-32zm0 0" fill="#aab2bd"/><path d="m220 152h92v184h-272v-184h92l-20 8v16h128v-16zm0 0" fill="#69d6f4"/><path d="m136 296v-80l8-8h128c4.398438 0 8 3.601562 8 8v80c0 4.398438-3.601562 8-8 8h-128zm0 0" fill="#ffeaa7"/><path d="m136 216v80l-8 8h-48c-4.398438 0-8-3.601562-8-8v-80c0-4.398438 3.601562-8 8-8h48zm0 0" fill="#e6e9ed"/><g fill="#fcd770"><path d="m152 144 16 32h-56v-16zm0 0"/><path d="m240 160v16h-56l16-32zm0 0"/><path d="m280 72v16h-80v-32zm0 0"/><path d="m152 56v32h-80v-16zm0 0"/></g><path d="m200 120v24l-16 32h-16l-16-32v-112c0-13.28125 10.71875-24 24-24 6.640625 0 12.640625 2.71875 16.960938 7.039062 4.320312 4.320313 7.039062 10.320313 7.039062 16.960938zm0 0" fill="#e6e9ed"/><path d="m456 352.71875v-.71875c0-13.230469-10.769531-24-24-24h-80v-176c0-22.054688-17.945312-40-40-40h-104v-16h80v-30.558594l-80-16v-17.441406c0-17.648438-14.351562-32-32-32s-32 14.351562-32 32v17.441406l-80 16v30.558594h80v16h-104c-22.054688 0-40 17.945312-40 40v224c0 22.054688 17.945312 40 40 40h272c22.054688 0 40-17.945312 40-40v-16h-16v16c0 13.230469-10.769531 24-24 24h-272c-13.230469 0-24-10.769531-24-24v-32h416c4.40625 0 8 3.585938 8 8v.71875c-22.664062 3.824219-40 23.539062-40 47.28125v48c0 26.472656 21.527344 48 48 48s48-21.527344 48-48v-48c0-23.734375-17.335938-43.449219-40-47.28125zm-144-224.71875c13.230469 0 24 10.769531 24 24v176h-16v-184h-98.457031l-13.542969-5.414062v-10.585938zm-80 37.414062v2.585938h-35.054688l6.917969-13.839844zm40-86.855468v1.441406h-64v-14.238281zm-112-46.558594c0-8.824219 7.175781-16 16-16s16 7.175781 16 16v110.113281l-12.945312 25.886719h-6.109376l-12.945312-25.886719zm-40 133.414062 28.136719-11.253906 6.917969 13.839844h-35.054688zm-40-85.414062v-1.441406l64-12.796875v14.238281zm-64 248v-176c0-13.230469 10.769531-24 24-24h104v10.585938l-13.542969 5.414062h-98.457031v184zm32-168h56v24h144v-24h56v168h-256zm400 208c17.648438 0 32 14.351562 32 32v16h-24v-32h-16v32h-24v-16c0-17.648438 14.351562-32 32-32zm0 112c-17.648438 0-32-14.351562-32-32v-16h64v16c0 17.648438-14.351562 32-32 32zm0 0"/><path d="m304 368h16v16h-16zm0 0"/><path d="m272 368h16v16h-16zm0 0"/><path d="m272 200h-131.3125l-4.6875 4.6875-4.6875-4.6875h-51.3125c-8.824219 0-16 7.175781-16 16v80c0 8.824219 7.175781 16 16 16h51.3125l4.6875-4.6875 4.6875 4.6875h131.3125c8.824219 0 16-7.175781 16-16v-80c0-8.824219-7.175781-16-16-16zm-192 96v-80h44.6875l3.3125 3.3125v73.375l-3.3125 3.3125zm67.3125 0-3.3125-3.3125v-73.375l3.3125-3.3125h124.6875l.007812 80zm0 0"/><path d="m96 232h16v48h-16zm0 0"/><path d="m160 232h96v16h-96zm0 0"/><path d="m160 264h96v16h-96zm0 0"/></svg>