<svg height="491pt" viewBox="-13 0 491 491.128" width="491pt" xmlns="http://www.w3.org/2000/svg"><path d="m56.0625 11.128906-32 16 39.042969 104h37.917969zm0 0" fill="#fcd770"/><path d="m216.0625 249.046875v10.082031c0 4.398438-1.757812 8.398438-4.71875 11.277344-2.878906 2.960938-6.878906 4.722656-11.28125 4.722656-8.796875 0-16-7.199218-16-16v-64c0-4.402344-1.757812-8.402344-4.71875-11.28125-2.878906-2.960937-6.878906-4.71875-11.28125-4.71875-8.796875 0-16 7.199219-16 16v104c0 4.398438-1.757812 8.398438-4.71875 11.277344-2.878906 2.960938-6.878906 4.722656-11.28125 4.722656-8.796875 0-16-7.199218-16-16v-168h96zm0 0" fill="#8cc152"/><g fill="#e6e9ed"><path d="m248.0625 139.128906v16c0 4.398438-3.597656 8-8 8h-24v-32h24c4.402344 0 8 3.597656 8 8zm0 0"/><path d="m120.0625 131.128906v32h-104c-4.398438 0-8-3.601562-8-8v-16c0-4.402344 3.601562-8 8-8zm0 0"/><path d="m233.984375 173.046875c9.039063 9.042969 14.078125 21.199219 14.078125 34v44.082031c-10.238281 0-20.957031-.800781-32-2.082031v-85.917969h8zm0 0"/><path d="m184.0625 195.128906v48.960938c-10.796875-1.921875-21.519531-4.082032-32-6.160156v-42.800782c0-8.800781 7.203125-16 16-16 4.402344 0 8.402344 1.757813 11.28125 4.71875 2.960938 2.878906 4.71875 6.878906 4.71875 11.28125zm0 0"/><path d="m120.0625 163.128906v68.558594c-15.117188-2.71875-28.796875-4.558594-40-4.558594-40 0-72 16-72 16v-36.082031c0-12.800781 5.042969-24.957031 14.082031-34l9.917969-9.917969zm0 0"/></g><path d="m248.0625 251.128906v66.320313l-3.039062 5.597656c-8.480469 15.761719-12.960938 33.519531-12.960938 51.441406 0 17.519531 4.160156 34.160157 11.601562 48.800781-7.679687 16.480469-24.320312 27.839844-43.601562 27.839844h-144c-26.476562 0-48-21.519531-48-48v-160s32-16 72-16c11.203125 0 24.882812 1.839844 40 4.558594v67.441406c0 8.800782 7.203125 16 16 16 4.402344 0 8.402344-1.761718 11.28125-4.722656 2.960938-2.878906 4.71875-6.878906 4.71875-11.277344v-61.199218c10.480469 2.078124 21.203125 4.238281 32 6.160156v15.039062c0 8.800782 7.203125 16 16 16 4.402344 0 8.402344-1.761718 11.28125-4.722656 2.960938-2.878906 4.71875-6.878906 4.71875-11.277344v-10.082031c11.042969 1.28125 21.761719 2.082031 32 2.082031zm0 0" fill="#b4dd7f"/><path d="m208.0625 371.128906c0 8.835938-7.160156 16-16 16-8.835938 0-16-7.164062-16-16 0-8.835937 7.164062-16 16-16 8.839844 0 16 7.164063 16 16zm0 0" fill="#8cc152"/><path d="m112.0625 395.128906c0 8.835938-7.160156 16-16 16-8.835938 0-16-7.164062-16-16 0-8.835937 7.164062-16 16-16 8.839844 0 16 7.164063 16 16zm0 0" fill="#8cc152"/><path d="m72.0625 299.128906c0 8.835938-7.160156 16-16 16-8.835938 0-16-7.164062-16-16 0-8.835937 7.164062-16 16-16 8.839844 0 16 7.164063 16 16zm0 0" fill="#8cc152"/><path d="m248.0625 317.449219 15.523438-28.800781c16.078124-29.839844 24.476562-63.28125 24.476562-97.199219 0-7.839844 3.203125-14.882813 8.320312-20 5.121094-5.121094 12.160157-8.320313 20-8.320313 7.441407 0 14.640626 2.960938 20 8.320313l7.679688 7.679687 7.679688-7.679687c5.363281-5.359375 12.5625-8.320313 20-8.320313 7.84375 0 14.882812 3.199219 20 8.320313 5.121093 5.117187 8.320312 12.160156 8.320312 20 0 16.957031 2.082031 33.757812 6.242188 50.160156 4.078124 16.320313 10.238281 32.078125 18.238281 47.039063l18.5625 34.398437c8.480469 15.761719 12.957031 33.519531 12.957031 51.441406 0 30-12.160156 57.121094-31.839844 76.800781-19.679687 19.679688-46.796875 31.839844-76.796875 31.839844h-6.722656c-42.480469 0-79.199219-24.320312-97.039063-59.839844-7.441406-14.640624-11.601562-31.28125-11.601562-48.800781 0-17.921875 4.480469-35.679687 12.960938-51.441406zm0 0" fill="#a0d468"/><path d="m408.0625 371.128906c0 35.34375-28.652344 64-64 64-35.34375 0-64-28.65625-64-64 0-35.347656 28.65625-64 64-64 35.347656 0 64 28.652344 64 64zm0 0" fill="#ffeaa7"/><path d="m450.121094 319.222656-18.496094-34.351562c-15.410156-28.632813-23.5625-60.941406-23.5625-93.457032 0-20.007812-16.277344-36.285156-36.285156-36.285156-9.6875 0-18.808594 3.773438-25.65625 10.632813l-2.058594 2.054687-2.054688-2.054687c-6.855468-6.859375-15.96875-10.632813-25.65625-10.632813-20.007812 0-36.289062 16.277344-36.289062 36.285156 0 32.515626-8.152344 64.832032-23.558594 93.457032l-.441406.808594v-78.671876c0-13.398437-4.703125-26.054687-13.277344-36.160156 7.527344-1.296875 13.277344-7.824218 13.277344-15.71875v-16c0-8.824218-7.175781-16-16-16h-64v16h32v120c0 4.40625-3.589844 8-8 8-4.40625 0-8-3.59375-8-8v-64c0-13.234375-10.765625-24-24-24-13.230469 0-24 10.765625-24 24v104c0 4.40625-3.589844 8-8 8-4.40625 0-8-3.59375-8-8v-160h32v-16h-53.453125l-46.175781-123.128906-46.386719 23.191406 37.472656 99.9375h-35.457031c-8.824219 0-16 7.175782-16 16v16c0 7.894532 5.753906 14.421875 13.28125 15.726563-8.574219 10.097656-13.28125 22.761719-13.28125 36.152343v196.121094c0 30.878906 25.121094 56 56 56h144c16.953125 0 32.746094-7.824218 43.25-20.601562 20.878906 31.648437 56.703125 52.601562 97.367188 52.601562h6.769531c64.304687 0 116.613281-52.3125 116.613281-116.617187 0-19.230469-4.824219-38.359375-13.941406-55.289063zm-226.058594-144.78125 4.289062 4.285156c7.550782 7.554688 11.710938 17.601563 11.710938 28.28125v35.945313c-5.03125-.191406-10.34375-.578125-16-1.128906zm16-35.3125v16h-16v-16zm-72 48c4.410156 0 8 3.589844 8 8v39.296875c-5.375-1.027343-10.71875-2.042969-16-3.097656v-36.199219c0-4.410156 3.59375-8 8-8zm-132.6875-16h76.6875v51.117188c-13.335938-2.125-23.476562-3.117188-32-3.117188-27.253906 0-50.710938 6.984375-64 11.96875v-24.082031c0-10.679687 4.160156-20.726563 11.714844-28.289063zm12.234375-104h20.910156l9 24h-20.910156zm4.085937-44.871094 10.824219 28.871094h-20.910156l-7.53125-20.066406zm10.914063 84.871094h20.910156l6 16h-20.910156zm-46.546875 32h96v16h-96zm184 304h-144c-22.054688 0-40-17.945312-40-40v-154.808594c9.761719-4.089843 34.753906-13.191406 64-13.191406 8.027344 0 18.449219 1.117188 32 3.359375v60.640625c0 13.230469 10.769531 24 24 24 13.234375 0 24-10.769531 24-24v-51.503906c5.304688 1.054688 10.617188 2.085938 16 3.09375v8.410156c0 13.230469 10.769531 24 24 24 13.234375 0 24-10.769531 24-24v-1.207031c5.625.527344 10.929688.871094 16 1.054687v56.421876l-2.0625 3.832031c-9.113281 16.929687-13.9375 36.050781-13.9375 55.28125 0 17.28125 3.882812 33.640625 10.65625 48.410156-7.078125 12.34375-20.277344 20.207031-34.65625 20.207031zm147.386719 32h-6.769531c-55.480469 0-100.617188-45.136718-100.617188-100.617187 0-16.589844 4.160156-33.085938 12.027344-47.695313l18.496094-34.351562c16.671874-30.960938 25.476562-65.90625 25.476562-101.050782 0-11.183593 9.105469-20.285156 20.289062-20.285156 5.417969 0 10.511719 2.109375 14.34375 5.941406l13.367188 13.371094 13.371094-13.371094c3.832031-3.832031 8.925781-5.941406 14.34375-5.941406 11.183594 0 20.285156 9.101563 20.285156 20.285156 0 35.152344 8.808594 70.089844 25.480469 101.042969l18.496093 34.351563c7.863282 14.617187 12.023438 31.101562 12.023438 47.703125 0 55.480469-45.132812 100.617187-100.613281 100.617187zm0 0"/><path d="m344.0625 299.128906c-39.695312 0-72 32.304688-72 72 0 39.695313 32.304688 72 72 72 39.699219 0 72-32.304687 72-72 0-39.695312-32.300781-72-72-72zm0 128c-30.878906 0-56-25.121094-56-56 0-30.882812 25.121094-56 56-56 30.882812 0 56 25.117188 56 56 0 30.878906-25.117188 56-56 56zm0 0"/><path d="m344.0625 331.128906v16c13.234375 0 24 10.765625 24 24h16c0-22.058594-17.941406-40-40-40zm0 0"/><path d="m80.0625 299.128906c0-13.234375-10.765625-24-24-24v16c4.410156 0 8 3.589844 8 8 0 4.40625-3.589844 8-8 8-4.40625 0-8-3.59375-8-8h-16c0 13.230469 10.769531 24 24 24 13.234375 0 24-10.769531 24-24zm0 0"/><path d="m192.0625 379.128906c-4.40625 0-8-3.59375-8-8 0-4.410156 3.59375-8 8-8v-16c-13.230469 0-24 10.765625-24 24 0 13.230469 10.769531 24 24 24 13.234375 0 24-10.769531 24-24h-16c0 4.40625-3.589844 8-8 8zm0 0"/><path d="m96.0625 371.128906c-13.230469 0-24 10.765625-24 24 0 13.230469 10.769531 24 24 24v-16c-4.40625 0-8-3.59375-8-8 0-4.410156 3.59375-8 8-8 4.410156 0 8 3.589844 8 8h16c0-13.234375-10.765625-24-24-24zm0 0"/></svg>