<svg height="496pt" viewBox="0 0 496.008 496" width="496pt" xmlns="http://www.w3.org/2000/svg"><path d="m264 488.003906h-208c0-8.800781 3.601562-16.800781 9.359375-22.640625 5.839844-5.757812 13.839844-9.359375 22.640625-9.359375h144c17.679688 0 32 14.320313 32 32zm0 0" fill="#838f9b"/><path d="m181.519531 136.003906-2.558593 32h-130.722657c-.160156-1.039062-.160156-2.160156-.160156-3.28125-.078125-1.039062-.078125-2.160156-.078125-3.199218v-25.519532zm0 0" fill="#ccd1d9"/><path d="m272 136.003906v25.519532c0 2.160156-.078125 4.320312-.238281 6.480468h-92.800781l2.558593-32zm0 0" fill="#ccd1d9"/><path d="m240 168.003906h-191.761719c.800781 17.519532 5.042969 34.558594 12.402344 50.082032 8.160156 17.519531 20.160156 33.277343 35.359375 45.917968 17.679688 0 32 14.320313 32 32 0-17.679687 14.320312-32 32-32 3.921875 0 7.761719.71875 11.199219 2.082032 4.320312 1.597656 8.242187 4.078124 11.441406 7.277343 5.757813 5.839844 9.359375 13.839844 9.359375 22.640625 0-17.679687 14.320312-32 32-32 28.71875-24 46-58.800781 47.761719-96zm0 0" fill="#ffeaa7"/><path d="m192 296.003906c0-8.800781-3.601562-16.800781-9.359375-22.640625-3.199219-3.199219-7.121094-5.679687-11.441406-7.277343-3.4375-1.363282-7.277344-2.082032-11.199219-2.082032-17.679688 0-32 14.320313-32 32 0-17.679687-14.320312-32-32-32v192h128v-192c-17.679688 0-32 14.320313-32 32zm0 0" fill="#ffeaa7"/><path d="m48 161.523438c0 1.039062 0 2.160156.078125 3.199218h-.078125l-24.238281 24.160156c-9.839844-12.320312-15.761719-27.917968-15.761719-44.878906 0-39.761718 32.238281-72 72-72 16.960938 0 32.558594 5.921875 44.878906 15.761719l-48.160156 48.238281h-28.71875zm0 0" fill="#ff826e"/><path d="m440 184.003906c0 35.359375-28.640625 64-64 64h-8l-7.28125 2.320313c-.160156-.800781-.398438-1.601563-.71875-2.320313 0-35.359375 28.640625-64 64-64zm0 0" fill="#b4dd7f"/><path d="m367.921875 296.003906h.078125c5.121094 0 10-2 13.679688-5.679687l.082031-.082031c11.679687-11.679688 27.519531-18.238282 44-18.238282 17.199219 0 32.796875 6.960938 44 18.238282 11.277343 11.203124 18.238281 26.800781 18.238281 44 0 22-6.480469 43.523437-18.71875 61.84375l-8.882812 14.957031c-8.160157 13.839843-13.359376 29.199219-15.117188 45.199219-2 18.082031-17.28125 31.761718-35.519531 31.761718h-2c-10.082031 0-19.761719-4-26.882813-11.121094-3.117187-3.117187-7.359375-4.878906-11.757812-4.878906h-2.242188c-4.398437 0-8.640625 1.761719-11.757812 4.878906-7.121094 7.121094-16.800782 11.121094-26.882813 11.121094h-2c-9.117187 0-17.519531-3.441406-23.839843-9.121094-6.398438-5.679687-10.71875-13.597656-11.679688-22.640624-1.757812-16-6.957031-31.359376-15.117188-45.199219l-8.882812-14.957031c-12.238281-18.320313-18.71875-39.84375-18.71875-61.84375 0-17.199219 6.960938-32.796876 18.238281-44 11.203125-11.277344 26.800781-18.238282 44-18.238282 16.480469 0 32.320313 6.558594 44 18.238282l.082031.082031c3.679688 3.679687 8.480469 5.679687 13.601563 5.679687zm0 0" fill="#ff826e"/><path d="m425.777344 264.003906c-18.761719 0-36.394532 7.304688-49.769532 20.6875-.152343.152344-.375.207032-.542968.351563-.746094-9.863281-2.34375-19.574219-4.769532-29.039063h5.304688c39.695312 0 72-32.296875 72-72v-8h-24c-30.078125 0-55.878906 18.558594-66.632812 44.816406-9.855469-19.167968-23.382813-36.503906-40.160157-50.878906l-10.414062 12.144532c30.328125 26 49 62.605468 52.542969 102-13.199219-12.945313-30.601563-20.082032-49.113282-20.082032-38.71875 0-70.222656 31.503906-70.222656 70.222656 0 23.679688 6.945312 46.609376 19.847656 65.953126l8.855469 14.945312c7.65625 12.917969 12.375 27.046875 14.039063 41.96875 2.480468 22.183594 21.179687 38.910156 43.496093 38.910156h2c12.304688 0 23.867188-4.792968 32.554688-13.488281 1.605469-1.601563 3.816406-2.511719 6.070312-2.511719h2.273438c2.253906 0 4.464843.910156 6.054687 2.503906 8.703125 8.703126 20.265625 13.496094 32.570313 13.496094h2c22.316406 0 41.015625-16.726562 43.496093-38.910156 1.664063-14.914062 6.382813-29.042969 14.039063-41.960938l8.632813-14.585937c13.132812-19.703125 20.078124-42.632813 20.078124-66.3125-.007812-38.726563-31.511718-70.230469-70.230468-70.230469zm-1.777344-72h7.433594c-3.898438 27.105469-27.265625 48-55.433594 48h-7.433594c3.898438-27.105468 27.265625-48 55.433594-48zm38.382812 200.023438-8.855468 14.945312c-8.824219 14.886719-14.261719 31.160156-16.175782 48.34375-1.566406 14.078125-13.429687 24.6875-27.589843 24.6875h-2c-8.027344 0-15.578125-3.128906-21.257813-8.816406-4.648437-4.632812-10.816406-7.183594-17.367187-7.183594h-2.273438c-6.550781 0-12.71875 2.550782-17.375 7.191406-5.671875 5.679688-13.222656 8.808594-21.25 8.808594h-2c-14.160156 0-26.023437-10.609375-27.589843-24.679687-1.914063-17.191407-7.351563-33.464844-16.175782-48.351563l-9.082031-15.304687c-11.382813-17.0625-17.390625-36.921875-17.390625-57.441407 0-29.894531 24.328125-54.222656 54.222656-54.222656 14.488282 0 28.105469 5.640625 38.464844 16 3.152344 3.152344 7.097656 5.214844 11.3125 6.425782v16.703124c-6.816406-1.570312-10.246094-4.703124-10.433594-4.871093l-11.222656 11.40625c1.054688 1.054687 10.878906 10.335937 29.65625 10.335937s28.601562-9.28125 29.65625-10.34375l-11.222656-11.40625c-.1875.175782-3.625 3.308594-10.433594 4.871094v-16.722656c4.230469-1.222656 8.214844-3.308594 11.433594-6.519532 10.238281-10.238281 23.855468-15.878906 38.34375-15.878906 29.894531 0 54.222656 24.328125 54.222656 54.222656 0 20.519532-6.007812 40.378907-17.617188 57.800782zm0 0"/><path d="m232 448.003906v-180.320312c30.550781-26.855469 48-65.335938 48-106.167969v-33.511719h-89.871094l8.269532-104.855468c.441406-4.074219 3.867187-7.144532 7.953124-7.144532h81.648438v-15.99999975h-81.648438c-12.28125 0-22.535156 9.19921875-23.878906 21.64062475l-8.394531 106.359375h-78.078125l40.886719-40.886718-6.984375-5.585938c-14.328125-11.464844-31.582032-17.527344-49.902344-17.527344-44.113281 0-80 35.886719-80 80 0 18.3125 6.0625 35.566406 17.527344 49.910156l5.585937 6.976563 18.597657-18.597656c4.863281 32.902343 20.992187 63.152343 46.289062 85.390625v180.320312c-22.054688 0-40 17.945313-40 40v8h224v-8c0-22.054687-17.945312-40-40-40zm32-304v16h-24v16h23.136719c-3.59375 31.097656-18.695313 59.679688-42.648438 80.351563-11.664062 1.039062-21.855469 6.992187-28.488281 15.898437-3.320312-4.457031-7.542969-8.136718-12.398438-10.898437l6.734376-85.351563h37.664062v-16h-36.398438l1.261719-16zm-92.449219 16h-115.550781v-16h116.816406zm-155.550781-16c0-35.289062 28.710938-64 64-64 11.609375 0 22.6875 3.046875 32.496094 8.871094l-39.121094 39.128906h-33.375v33.375l-15.121094 15.121094c-5.832031-9.808594-8.878906-20.894531-8.878906-32.496094zm40.863281 32h113.425781l-6.34375 80.398438c-1.320312-.132813-2.59375-.398438-3.945312-.398438-13.128906 0-24.703125 6.449219-32 16.25-6.632812-8.90625-16.824219-14.859375-28.488281-15.898437-23.953125-20.671875-39.054688-49.253907-42.648438-80.351563zm47.136719 97.472656c9.289062 3.3125 16 12.113282 16 22.527344v96h16v-96c0-13.230468 10.769531-24 24-24 .921875 0 1.792969.167969 2.6875.273438l-10.664062 135.09375 15.953124 1.265625 10.121094-128.226563c3.628906 4.210938 5.902344 9.617188 5.902344 15.59375v48h16v-48c0-10.414062 6.710938-19.214844 16-22.527344v174.527344h-16v-88h-16v88h-48v-40h-16v40h-16zm-38.632812 206.527344c3.304687-9.3125 12.199218-16 22.632812-16h144c10.433594 0 19.328125 6.6875 22.632812 16zm0 0"/></svg>