<svg height="496pt" viewBox="0 0 496 496" width="496pt" xmlns="http://www.w3.org/2000/svg"><path d="m234.878906 439.601562-10.878906-7.601562 47.199219-33.039062c14.800781-10.402344 31.601562-17.441407 49.199219-20.722657 2.578124-.503906 5.195312-.789062 7.800781-1.117187l-.199219-1.121094v-304h-320v336c0 17.679688 14.320312 32 32 32h195.449219zm0 0" fill="#cf9e76"/><path d="m328 24v48h-320v-48c0-8.800781 7.199219-16 16-16h199.441406c5.359375 0 10.320313 2.640625 13.277344 7.121094l11.28125 16.878906 11.28125-16.878906c2.957031-4.480469 7.917969-7.121094 13.277344-7.121094h39.441406c8.800781 0 16 7.199219 16 16zm0 0" fill="#ccd1d9"/><path d="m168 160c53.039062 0 96 53.761719 96 120s-42.960938 120-96 120-96-53.761719-96-120 42.960938-120 96-120zm0 0" fill="#e6e9ed"/><g fill="#fcd770"><path d="m232 280c0 13.253906-10.746094 24-24 24s-24-10.746094-24-24 10.746094-24 24-24 24 10.746094 24 24zm0 0"/><path d="m192 344c0 13.253906-10.746094 24-24 24s-24-10.746094-24-24 10.746094-24 24-24 24 10.746094 24 24zm0 0"/><path d="m152 280c0 13.253906-10.746094 24-24 24s-24-10.746094-24-24 10.746094-24 24-24 24 10.746094 24 24zm0 0"/><path d="m192 216c0 13.253906-10.746094 24-24 24s-24-10.746094-24-24 10.746094-24 24-24 24 10.746094 24 24zm0 0"/><path d="m465.039062 359.199219c14.960938 21.359375 22.960938 46.800781 22.960938 72.800781 0 15.519531-6.238281 29.441406-16.398438 39.601562-10.160156 10.160157-24.082031 16.398438-39.601562 16.398438-9.519531 0-18.480469-2.398438-26.320312-6.558594-6.878907-3.679687-12.960938-8.800781-17.679688-14.882812 7.601562-9.519532 12-21.4375 12-34.558594 0-15.519531-6.238281-29.441406-16.398438-39.601562-1.28125-1.277344-2.5625-2.476563-4-3.597657l4.398438-1.121093c3.761719-10 8.71875-19.601563 14.960938-28.480469l33.039062-47.199219zm0 0"/><path d="m388 466.558594c-1.28125 1.761718-2.800781 3.441406-4.398438 5.042968-10.160156 10.160157-24.082031 16.398438-39.601562 16.398438-26 0-51.441406-8-72.800781-22.960938l-36.320313-25.4375-10.878906-7.601562 47.199219-33.039062c14.800781-10.402344 31.601562-17.441407 49.199219-20.722657 7.761718-1.519531 15.679687-2.238281 23.601562-2.238281 13.601562 0 25.921875 4.800781 35.601562 12.800781 1.4375 1.121094 2.71875 2.320313 4 3.597657 10.160157 10.160156 16.398438 24.082031 16.398438 39.601562 0 13.121094-4.398438 25.039062-12 34.558594zm0 0"/></g><path d="m288 96h16v16h-16zm0 0"/><path d="m256 96h16v16h-16zm0 0"/><path d="m32 96h96v16h-96zm0 0"/><path d="m32 128h96v16h-96zm0 0"/><path d="m168 152c-57.34375 0-104 57.425781-104 128s46.65625 128 104 128 104-57.425781 104-128-46.65625-128-104-128zm0 240c-48.519531 0-88-50.238281-88-112s39.480469-112 88-112 88 50.238281 88 112-39.480469 112-88 112zm0 0"/><path d="m168 248c17.648438 0 32-14.351562 32-32h-16c0 8.824219-7.175781 16-16 16s-16-7.175781-16-16 7.175781-16 16-16c4.542969 0 8.894531 1.945312 11.929688 5.335938l11.917968-10.671876c-6.054687-6.777343-14.75-10.664062-23.847656-10.664062-17.648438 0-32 14.351562-32 32s14.351562 32 32 32zm0 0"/><path d="m160 280c0-17.648438-14.351562-32-32-32-9.097656 0-17.792969 3.886719-23.847656 10.664062l11.917968 10.671876c3.035157-3.390626 7.386719-5.335938 11.929688-5.335938 8.824219 0 16 7.175781 16 16s-7.175781 16-16 16-16-7.175781-16-16h-16c0 17.648438 14.351562 32 32 32s32-14.351562 32-32zm0 0"/><path d="m224 280c0 8.824219-7.175781 16-16 16s-16-7.175781-16-16 7.175781-16 16-16c4.542969 0 8.894531 1.945312 11.929688 5.335938l11.917968-10.671876c-6.054687-6.777343-14.75-10.664062-23.847656-10.664062-17.648438 0-32 14.351562-32 32s14.351562 32 32 32 32-14.351562 32-32zm0 0"/><path d="m168 360c-8.824219 0-16-7.175781-16-16s7.175781-16 16-16c4.542969 0 8.894531 1.945312 11.929688 5.335938l11.917968-10.671876c-6.054687-6.777343-14.75-10.664062-23.847656-10.664062-17.648438 0-32 14.351562-32 32s14.351562 32 32 32 32-14.351562 32-32h-16c0 8.824219-7.175781 16-16 16zm0 0"/><path d="m344 448c-17.921875 0-35.152344-5.433594-49.832031-15.710938l-9.167969 13.109376c17.375 12.167968 37.785156 18.601562 59 18.601562 17.648438 0 32-14.351562 32-32h-16c0 8.824219-7.175781 16-16 16zm0 0"/><path d="m471.617188 354.640625-39.617188-56.59375-39.617188 56.59375c-5.246093 7.488281-9.671874 15.511719-13.292968 23.894531-10.089844-6.640625-22.136719-10.535156-35.089844-10.535156-2.679688 0-5.34375.144531-8 .304688v-344.304688c0-13.230469-10.769531-24-24-24h-39.441406c-8.039063 0-15.503906 3.992188-19.964844 10.6875l-4.59375 6.886719-4.59375-6.886719c-4.460938-6.695312-11.925781-10.6875-19.964844-10.6875h-199.441406c-13.230469 0-24 10.769531-24 24v384c0 22.054688 17.945312 40 40 40h192.902344l33.738281 23.617188c22.800781 15.949218 49.542969 24.382812 77.359375 24.382812 17.054688 0 32.527344-6.742188 44.015625-17.65625 11.777344 11.167969 27.449219 17.65625 43.984375 17.65625 35.289062 0 64-28.710938 64-64 0-27.816406-8.433594-54.558594-24.382812-77.359375zm-431.617188 77.359375c-13.230469 0-24-10.769531-24-24v-328h32v-16h-32v-40c0-4.414062 3.585938-8 8-8h199.441406c2.679688 0 5.167969 1.328125 6.65625 3.558594l17.902344 26.867187 17.902344-26.859375c1.488281-2.238281 3.976562-3.566406 6.65625-3.566406h39.441406c4.414062 0 8 3.585938 8 8v40h-256v16h256v290.214844c-19.078125 3.433594-37.214844 10.875-53.359375 22.167968l-56.59375 39.617188zm304 48c-24.511719 0-48.097656-7.433594-68.183594-21.496094l-37.863281-26.503906 37.855469-26.503906c20.09375-14.0625 43.679687-21.496094 68.191406-21.496094 26.472656 0 48 21.527344 48 48s-21.527344 48-48 48zm88 0c-12.800781 0-24.902344-5.191406-33.832031-14.078125 6.191406-9.851563 9.832031-21.457031 9.832031-33.921875 0-16.246094-6.136719-31.046875-16.144531-42.34375 3.472656-9.128906 8.023437-17.832031 13.632812-25.839844l26.511719-37.863281 26.503906 37.855469c14.0625 20.09375 21.496094 43.679687 21.496094 68.191406 0 26.472656-21.527344 48-48 48zm0 0"/><path d="m438.550781 363.214844-13.109375 9.167968 6.839844 9.785157c10.285156 14.679687 15.71875 31.910156 15.71875 49.832031 0 8.824219-7.175781 16-16 16v16c17.648438 0 32-14.351562 32-32 0-21.214844-6.433594-41.625-18.601562-59zm0 0"/></svg>