<svg height="496pt" viewBox="0 0 496 496" width="496pt" xmlns="http://www.w3.org/2000/svg"><path d="m240 128-.480469 2.078125c-4.640625-1.359375-9.839843-2.078125-15.519531-2.078125-2.800781 0-5.441406.160156-7.921875.558594l-.078125-.558594v-20.800781c0-28.238281-7.679688-56-22.238281-80.238281-1.121094-1.921876-1.761719-4.160157-1.761719-6.402344 0-6.957032 5.601562-12.558594 12.558594-12.558594h38.882812c6.957032 0 12.558594 5.601562 12.558594 12.558594 0 23.519531-2.558594 47.042968-7.679688 70.082031zm0 0" fill="#b27946"/><path d="m239.519531 130.078125c21.679688 5.683594 32.480469 21.921875 32.480469 21.921875l.160156.160156c-1.679687 1.441406-3.28125 2.960938-4.800781 4.480469l-2.398437 2.398437c-10.882813 10.882813-25.601563 16.960938-40.960938 16.960938s-30.078125-6.078125-40.960938-16.960938l-2.398437-2.398437c-1.519531-1.519531-3.121094-3.039063-4.800781-4.480469l.160156-.160156s13.359375-20 40.078125-23.441406c2.480469-.398438 5.121094-.558594 7.921875-.558594 5.679688 0 10.878906.71875 15.519531 2.078125zm0 0" fill="#b27946"/><path d="m428.71875 336.160156c-22.71875 10.160156-42.398438 25.917969-57.199219 45.761719-2.398437-2.082031-5.039062-4-7.839843-5.601563l.160156-.320312c18.480468-40.71875 28.160156-85.359375 28.160156-130.160156 0-16.078125-4.398438-31.839844-12.640625-45.601563-8.960937-14.957031-25.359375-24.238281-42.800781-24.238281-13.359375 0-25.839844 5.199219-35.277344 14.640625l-2.402344 2.320313c-14.160156 14.238281-31.757812 23.839843-50.878906 28.238281v132.800781l-6.398438-1.601562c-1.042968-.238282-2.160156-.398438-3.28125-.398438h-.71875c-7.523437 0-13.601562 6.078125-13.601562 13.601562 0 1.597657.238281 3.199219.800781 4.636719l11.4375 31.441407c6.320313 17.441406 15.921875 33.359374 28.082031 46.960937 5.917969 6.640625 12.480469 12.800781 19.601563 18.320313-8.082031-3.601563-15.203125-9.199219-20.960937-16.242188-4.722657-5.917969-10.640626-10.558594-17.359376-13.757812-6.640624-3.199219-14-4.960938-21.601562-4.960938s-14.960938 1.761719-21.601562 4.960938c-6.71875 3.199218-12.636719 7.839843-17.359376 13.757812-5.359374 6.722656-12.160156 12-19.757812 15.679688-7.519531 3.679687-15.839844 5.601562-24.480469 5.601562-18.722656 0-36.640625-5.121094-52.082031-14.480469-15.4375-9.28125-28.398438-22.640625-37.117188-39.199219l-1.441406-2.640624c-27.679687-52.320313-42.160156-110.640626-42.160156-169.839844 0-24.71875 6.71875-49.039063 19.441406-70.320313 8.878906-14.71875 21.277344-26.558593 35.757813-34.800781 14.480469-8.238281 31.039062-12.71875 48.242187-12.71875 13.039063 0 25.679688 2.558594 37.519532 7.441406 9.679687 4.078125 18.878906 9.679688 26.878906 16.71875 1.679687 1.441406 3.28125 2.960938 4.800781 4.480469l2.398437 2.398437c10.882813 10.882813 25.601563 16.960938 40.960938 16.960938s30.078125-6.078125 40.960938-16.960938l2.398437-2.398437c1.519531-1.519531 3.121094-3.039063 4.800781-4.480469 17.761719-15.519531 40.640625-24.160156 64.398438-24.160156 17.203125 0 33.761718 4.480469 48.242187 12.71875 14.480469 8.242188 26.878907 20.082031 35.757813 34.800781 12.722656 21.28125 19.441406 45.601563 19.441406 70.320313 0 30.558594-3.839844 60.800781-11.359375 90.160156zm0 0" fill="#ffeaa7"/><path d="m392 245.839844c0 44.800781-9.679688 89.441406-28.160156 130.160156l-.160156.320312c-8.71875-5.28125-18.960938-8.320312-29.917969-8.320312-12.082031 0-24.160157-.878906-36.082031-2.71875 5.921874-6.480469 10.242187-14.402344 12.398437-23.121094 24.082031-6.160156 41.921875-28.160156 41.921875-54.160156v-8h-8c-13.839844 0-26.398438 4.960938-36.160156 13.199219 2.71875-6.558594 4.160156-13.679688 4.160156-21.199219v-8h-8c-30.960938 0-56 25.039062-56 56v-98.800781c19.121094-4.398438 36.71875-14 50.878906-28.238281l2.402344-2.320313c9.4375-9.441406 21.917969-14.640625 35.277344-14.640625 17.441406 0 33.839844 9.28125 42.800781 24.238281 8.242187 13.761719 12.640625 29.523438 12.640625 45.601563zm0 0" fill="#ffc729"/><path d="m200 384v3.039062c-20.480469 5.199219-38.878906 16.800782-52.480469 33.679688-1.679687 2.082031-4.078125 3.28125-6.71875 3.28125-19.679687 0-37.601562-10.800781-46.800781-28.160156l-1.359375-2.558594c-24-45.28125-36.640625-96.242188-36.640625-147.441406 0-16.078125 4.398438-31.839844 12.640625-45.601563 8.960937-14.957031 25.359375-24.238281 42.800781-24.238281 13.359375 0 25.839844 5.199219 35.277344 14.640625l2.402344 2.320313c14.160156 14.238281 31.757812 23.839843 50.878906 28.238281v98.800781c0-30.960938-25.039062-56-56-56h-8v8c0 7.519531 1.441406 14.640625 4.160156 21.199219-9.761718-8.238281-22.320312-13.199219-36.160156-13.199219h-8v8c0 26 17.761719 47.921875 41.839844 54.160156 6.238281 24.078125 28.082031 41.839844 54.160156 41.839844zm0 0" fill="#ffc729"/><g fill="#e6e9ed"><path d="m140.238281 293.28125c8.320313 20.398438 28.320313 34.71875 51.761719 34.71875h8v48c0-30.960938-25.039062-56-56-56h-8v8c0 4.878906.640625 9.679688 1.839844 14.160156-24.078125-6.238281-41.839844-28.160156-41.839844-54.160156v-8h8c13.839844 0 26.398438 4.960938 36.160156 13.199219zm0 0"/><path d="m200 320v8h-8c-23.441406 0-43.441406-14.320312-51.761719-34.71875l-.078125-.082031c-2.71875-6.558594-4.160156-13.679688-4.160156-21.199219v-8h8c30.960938 0 56 25.039062 56 56zm0 0"/><path d="m136 320h8c30.960938 0 56 25.039062 56 56v8h-8c-26.078125 0-47.921875-17.761719-54.160156-41.839844-1.199219-4.480468-1.839844-9.28125-1.839844-14.160156zm0 0"/><path d="m312 320h-8c-23.199219 0-43.121094 14.078125-51.601562 34.238281l-.238282.800781-4.160156-1.039062v-26h8c23.441406 0 43.441406-14.320312 51.761719-34.71875l.078125-.082031c9.761718-8.238281 22.320312-13.199219 36.160156-13.199219h8v8c0 26-17.839844 48-41.921875 54.160156 1.28125-4.480468 1.921875-9.28125 1.921875-14.160156zm0 0"/><path d="m312 264v8c0 7.519531-1.441406 14.640625-4.160156 21.199219l-.078125.082031c-8.320313 20.398438-28.320313 34.71875-51.761719 34.71875h-8v-8c0-30.960938 25.039062-56 56-56zm0 0"/><path d="m304 320h8v8c0 4.878906-.640625 9.679688-1.921875 14.160156-2.15625 8.71875-6.476563 16.640625-12.398437 23.121094-7.601563-1.121094-15.121094-2.640625-22.558594-4.480469l-22.960938-5.761719.238282-.800781c8.480468-20.160156 28.402343-34.238281 51.601562-34.238281zm0 0"/><path d="m488 333.601562v.71875c0 1.121094-.160156 2.238282-.398438 3.28125l-8.402343 33.519532c-4.800781 19.199218-7.199219 38.878906-7.199219 58.640625 0 16.078125-6.558594 30.636719-17.039062 41.199219-10.5625 10.480468-25.121094 17.039062-41.199219 17.039062h-3.523438c-14.636719 0-28-5.441406-38.238281-14.320312 12.238281-10.640626 20-26.398438 20-43.917969v-3.523438c0-16.078125-6.558594-30.636719-17.039062-41.199219-1.121094-1.117187-2.242188-2.160156-3.441407-3.117187 14.800781-19.84375 34.480469-35.601563 57.199219-45.761719 3.121094-1.441406 6.320312-2.71875 9.601562-3.921875l31.441407-11.4375c1.4375-.5625 3.039062-.800781 4.636719-.800781 7.523437 0 13.601562 6.078125 13.601562 13.601562zm0 0"/><path d="m297.679688 365.28125c11.921874 1.839844 24 2.71875 36.082031 2.71875 10.957031 0 21.199219 3.039062 29.917969 8.320312 2.800781 1.601563 5.441406 3.519532 7.839843 5.601563 1.199219.957031 2.320313 2 3.441407 3.117187 10.480468 10.5625 17.039062 25.121094 17.039062 41.199219v3.523438c0 17.519531-7.761719 33.277343-20 43.917969-10.238281 8.878906-23.601562 14.320312-38.238281 14.320312-9.042969 0-18-2.078125-26.082031-6.160156-8.398438-4.160156-16.320313-9.121094-23.601563-14.800782-.078125 0-.15625-.078124-.15625-.078124-7.121094-5.519532-13.683594-11.679688-19.601563-18.320313-12.160156-13.601563-21.761718-29.519531-28.082031-46.960937l-11.4375-31.441407c-.5625-1.4375-.800781-3.039062-.800781-4.636719 0-7.523437 6.078125-13.601562 13.601562-13.601562h.71875c1.121094 0 2.238282.160156 3.28125.398438l6.398438 1.601562 4.160156 1.039062 22.960938 5.761719c7.4375 1.839844 14.957031 3.359375 22.558594 4.480469zm0 0"/></g><path d="m154.753906 187.3125-2.355468-2.351562c-10.941407-10.9375-25.496094-16.960938-40.957032-16.960938-20.226562 0-39.257812 10.777344-49.65625 28.121094-9.015625 15.015625-13.785156 32.214844-13.785156 49.726562 0 52.488282 12.984375 104.746094 37.542969 151.144532l1.367187 2.582031c10.585938 20 31.21875 32.425781 53.859375 32.425781 5.085938 0 9.832031-2.28125 13.007813-6.246094 12.335937-15.425781 28.992187-26.121094 48.167968-30.9375l6.054688-1.519531v-178.488281l-6.199219-1.433594c-17.847656-4.117188-34.121093-13.128906-47.046875-26.0625zm-26.683594 142.175781c-14.582031-8.382812-24.070312-23.929687-24.070312-41.488281 10.871094 0 21.367188 3.785156 29.832031 10.535156 2.214844 4.839844 4.992188 9.367188 8.289063 13.464844h-14.121094v16c0 .503906.0625.984375.070312 1.488281zm15.929688-57.488281c26.472656 0 48 21.527344 48 48-26.472656 0-48-21.527344-48-48zm48 104c-26.472656 0-48-21.527344-48-48 26.472656 0 48 21.527344 48 48zm-48-120h-16v16c0 1.632812.128906 3.230469.246094 4.832031-7.644532-3.128906-15.863282-4.832031-24.246094-4.832031h-16v16c0 27.753906 17.617188 51.9375 43.480469 60.640625 6.582031 19.253906 22.054687 34.421875 41.542969 40.488281-12.191407 6.65625-23.085938 15.65625-32.253907 26.871094-16.699219 0-31.914062-9.167969-39.722656-23.902344l-1.367187-2.585937c-23.335938-44.105469-35.679688-93.777344-35.679688-143.664063 0-14.617187 3.976562-28.96875 11.503906-41.503906 7.527344-12.542969 21.296875-20.34375 35.9375-20.34375 11.191406 0 21.726563 4.359375 29.648438 12.273438l2.351562 2.351562c13.535156 13.542969 30.222656 23.390625 48.558594 28.726562v50.457032c-11.734375-13.335938-28.878906-21.808594-48-21.808594zm0 0"/><path d="m474.398438 312c-2.550782 0-5.046876.449219-7.382813 1.304688l-27.351563 9.941406c5.425782-25.429688 8.335938-51.382813 8.335938-77.390625 0-26.207031-7.136719-51.953125-20.617188-74.429688-19.03125-31.722656-53.832031-51.425781-90.824218-51.425781-23.144532 0-45.085938 7.480469-63.277344 21.113281-4.832031-5.042969-12.9375-11.875-24.351562-16.394531l7.191406-32.351562c5.222656-23.542969 7.878906-47.703126 7.878906-71.839844 0-11.320313-9.207031-20.527344-20.527344-20.527344h-38.9375c-11.328125 0-20.535156 9.207031-20.535156 20.527344 0 3.71875 1.015625 7.375 2.929688 10.5625 13.78125 22.980468 21.070312 49.292968 21.070312 76.085937v14.746094c-16.199219 3.886719-27.28125 12.925781-33.28125 19.191406-18.191406-13.632812-40.132812-21.113281-63.277344-21.113281-36.992187 0-71.792968 19.703125-90.824218 51.425781-13.480469 22.476563-20.617188 48.222657-20.617188 74.429688 0 60.28125 14.902344 120.296875 43.113281 173.550781l1.382813 2.625c18.929687 35.761719 55.816406 57.96875 96.28125 57.96875 19.75 0 38.152344-8.839844 50.488281-24.257812 7.992187-10.007813 19.925781-15.742188 32.734375-15.742188s24.742188 5.734375 32.753906 15.742188c6.140625 7.671874 14.078125 13.859374 22.957032 18.042968 7.585937 5.773438 15.738281 10.886719 24.417968 15.222656 9.152344 4.578126 19.398438 6.992188 29.625 6.992188 14.230469 0 27.390625-4.550781 38.199219-12.214844 11.144531 7.902344 24.511719 12.214844 38.292969 12.214844h3.507812c36.527344 0 66.246094-29.71875 66.246094-66.246094 0-19.105468 2.351562-38.167968 6.976562-56.675781l8.382813-33.535156c.433594-1.71875.640625-3.480469.640625-5.941407 0-11.914062-9.6875-21.601562-21.601562-21.601562zm-213.246094-160.464844-1.839844 1.839844c-9.441406 9.433594-21.976562 14.625-35.3125 14.625s-25.871094-5.191406-35.3125-14.625l-1.832031-1.832031c5.984375-6.046875 18.375-15.542969 37.144531-15.542969 18.832031 0 31.183594 9.480469 37.152344 15.535156zm-60.503906-128.679687c-.425782-.703125-.648438-1.511719-.648438-2.328125 0-2.496094 2.03125-4.527344 4.527344-4.527344h38.9375c2.503906 0 4.535156 2.03125 4.535156 4.527344 0 22.960937-2.519531 45.960937-7.503906 68.359375l-7.0625 31.808593c-3.019532-.40625-6.121094-.695312-9.433594-.695312v-12.824219c0-29.6875-8.078125-58.847656-23.351562-84.320312zm-21.886719 422.886719c-9.28125 11.601562-23.128907 18.257812-37.984375 18.257812-34.511719 0-65.992188-18.953125-82.144532-49.449219l-1.386718-2.621093c-26.980469-50.96875-41.246094-108.394532-41.246094-166.074219 0-23.3125 6.34375-46.199219 18.335938-66.199219 16.160156-26.929688 45.703124-43.65625 77.105468-43.65625 24.023438 0 46.597656 9.351562 63.582032 26.335938l2.351562 2.351562c12.457031 12.457031 29.015625 19.3125 46.625 19.3125s34.167969-6.855469 46.625-19.3125l2.351562-2.351562c16.984376-16.984376 39.558594-26.335938 63.582032-26.335938 31.402344 0 60.945312 16.726562 77.105468 43.65625 11.992188 20 18.335938 42.886719 18.335938 66.199219 0 28.578125-3.550781 57.097656-10.382812 84.855469-16.121094 7.738281-30.695313 18.160156-43.160157 30.9375 14.101563-36.863282 21.542969-76.511719 21.542969-115.800782 0-17.511718-4.769531-34.710937-13.777344-49.734375-10.398437-17.335937-29.429687-28.113281-49.664062-28.113281-15.46875 0-30.015625 6.023438-40.941406 16.953125l-2.371094 2.359375c-12.925782 12.933594-29.199219 21.945312-47.046875 26.0625l-6.199219 1.433594v129.3125c-.753906-.066406-1.488281-.121094-2.398438-.121094-11.914062 0-21.601562 9.6875-21.601562 21.601562 0 2.550782.449219 5.046876 1.304688 7.382813l11.429687 31.429687c2.730469 7.507813 6.144531 14.640626 9.929687 21.53125-4.734374-1.242187-9.640624-1.945312-14.664062-1.945312-17.695312 0-34.175781 7.921875-45.238281 21.742188zm127.117187-133.742188c3.296875-4.105469 6.074219-8.632812 8.289063-13.464844 8.464843-6.75 18.960937-10.535156 29.832031-10.535156 0 17.558594-9.488281 33.105469-24.070312 41.488281.007812-.503906.070312-.992187.070312-1.488281v-16zm-49.878906 8c0-26.472656 21.527344-48 48-48 0 26.472656-21.527344 48-48 48zm48 8c0 10.457031-3.496094 20.328125-9.65625 28.566406-5.792969-.992187-11.558594-2.117187-17.265625-3.542968l-13.175781-3.289063c8.769531-13.390625 23.691406-21.734375 40.097656-21.734375zm12.535156 20.632812c25.855469-8.703124 43.464844-32.890624 43.464844-60.632812v-16h-16c-8.382812 0-16.601562 1.703125-24.246094 4.832031.117188-1.601562.246094-3.199219.246094-4.832031v-16h-16c-19.121094 0-36.265625 8.472656-48 21.808594v-50.457032c18.335938-5.335937 35.023438-15.175781 48.550781-28.710937l2.371094-2.359375c7.910156-7.921875 18.445313-12.28125 29.636719-12.28125 14.640625 0 28.417968 7.800781 35.945312 20.34375 7.519532 12.542969 11.496094 26.894531 11.496094 41.503906 0 40.695313-8.457031 81.792969-24.328125 119.441406-7.96875-3.402343-16.726563-5.289062-25.917969-5.289062-7.257812 0-14.507812-.449219-21.722656-1.121094 1.808594-3.277344 3.304688-6.710937 4.503906-10.246094zm-5.253906 126.0625c-31.503906-15.75-55.480469-42.65625-67.511719-75.75l-11.441406-31.464843c-.214844-.585938-.328125-1.214844-.328125-1.878907 0-3.089843 2.511719-5.601562 6.328125-5.601562.457031 0 .910156.054688 1.382813.167969l33.488281 8.367187c19.769531 4.960938 40.144531 7.464844 60.554687 7.464844 27.710938 0 50.246094 22.535156 50.246094 50.246094v3.507812c0 27.710938-22.535156 50.246094-50.246094 50.246094-7.753906 0-15.53125-1.832031-22.472656-5.304688zm168.550781-139.007812-8.375 33.503906c-4.953125 19.777344-7.457031 40.152344-7.457031 60.5625 0 27.710938-22.535156 50.246094-50.246094 50.246094h-3.507812c-9.269532 0-18.277344-2.601562-26.101563-7.359375 9.863281-11.570313 15.855469-26.527344 15.855469-42.886719v-3.507812c0-17.34375-6.753906-33.109375-17.703125-44.925782 15.550781-18.832031 35.703125-33.175781 58.757813-41.550781l31.464843-11.441406c3.296875-1.230469 7.480469 1.367187 7.480469 6 0 .457031-.054688.910156-.167969 1.359375zm0 0"/><path d="m432 429.753906c0 10.0625-8.183594 18.246094-18.246094 18.246094v16c18.878906 0 34.246094-15.367188 34.246094-34.246094 0-17.488281 1.742188-35.042968 5.167969-52.179687l-15.6875-3.140625c-3.640625 18.167968-5.480469 36.773437-5.480469 55.320312zm0 0"/><path d="m333.753906 392c-17.488281 0-35.042968-1.742188-52.179687-5.167969l-3.140625 15.6875c18.167968 3.640625 36.773437 5.480469 55.320312 5.480469 10.0625 0 18.246094 8.183594 18.246094 18.246094h16c0-18.878906-15.367188-34.246094-34.246094-34.246094zm0 0"/></svg>