<svg height="399pt" viewBox="0 -46 399.09275 399" width="399pt" xmlns="http://www.w3.org/2000/svg"><path d="m370.550781 262.03125c0 20.988281-17.011719 38-38 38s-38-17.011719-38-38 17.011719-38 38-38 38 17.011719 38 38zm0 0" fill="#ee5281"/><path d="m332.554688 306.859375c-24.71875 0-44.835938-20.109375-44.835938-44.828125s20.113281-44.828125 44.835938-44.828125c24.71875 0 44.828124 20.109375 44.828124 44.828125-.003906 24.71875-20.109374 44.828125-44.828124 44.828125zm0-76.003906c-17.195313 0-31.179688 13.984375-31.179688 31.175781s13.984375 31.175781 31.179688 31.175781c17.1875 0 31.171874-13.984375 31.171874-31.175781s-13.984374-31.175781-31.171874-31.175781zm0 0"/><path d="m353.148438 201.242188h-218.453126l-19.292968-129.214844h276.863281zm0 0" fill="#777"/><path d="m353.148438 208.070312h-218.453126c-3.382812 0-6.253906-2.472656-6.753906-5.820312l-19.296875-129.214844c-.292969-1.964844.289063-3.960937 1.582031-5.464844 1.300782-1.503906 3.1875-2.371093 5.171876-2.371093h276.867187c2.164063 0 4.195313 1.023437 5.480469 2.761719 1.289062 1.734374 1.679687 3.976562 1.054687 6.042968l-39.121093 129.214844c-.875 2.882812-3.527344 4.851562-6.53125 4.851562zm-212.574219-13.652343h207.503906l34.988281-115.566407h-259.746094zm0 0"/><path d="m353.148438 208.070312h-245.761719c-3.039063 0-5.707031-2.007812-6.554688-4.925781l-50.707031-174.632812-45.457031-15.15625c-3.574219-1.191407-5.507813-5.058594-4.316407-8.636719 1.195313-3.578125 5.027344-5.519531 8.636719-4.316406l48.859375 16.289062c2.125.707032 3.773438 2.417969 4.394532 4.570313l50.273437 173.15625h240.632813c3.773437 0 6.824218 3.054687 6.824218 6.824219 0 3.769531-3.050781 6.828124-6.824218 6.828124zm0 0"/><path d="m142.546875 296.003906c-.644531 0-1.300781-.09375-1.953125-.292968-3.613281-1.078126-5.667969-4.882813-4.585938-8.492188l26.277344-87.929688c1.082032-3.617187 4.859375-5.6875 8.496094-4.585937 3.609375 1.078125 5.664062 4.882813 4.585938 8.492187l-26.28125 87.929688c-.886719 2.964844-3.597657 4.878906-6.539063 4.878906zm0 0"/><path d="m332.554688 268.855469c-1.875 0-3.734376-.765625-5.082032-2.269531l-54.5-60.785157c-2.519531-2.808593-2.285156-7.125.519532-9.640625 2.8125-2.511718 7.121093-2.28125 9.640624.527344l54.5 60.789062c2.519532 2.804688 2.289063 7.121094-.519531 9.636719-1.304687 1.167969-2.933593 1.742188-4.558593 1.742188zm0 0"/><path d="m271.226562 119.324219h-18.679687c-3.773437 0-6.824219-3.058594-6.824219-6.828125 0-3.769532 3.050782-6.824219 6.824219-6.824219h18.679687c3.773438 0 6.828126 3.054687 6.828126 6.824219 0 3.769531-3.054688 6.828125-6.828126 6.828125zm0 0"/><path d="m212.726562 119.324219h-57.554687c-3.773437 0-6.824219-3.058594-6.824219-6.828125 0-3.769532 3.050782-6.824219 6.824219-6.824219h57.554687c3.773438 0 6.828126 3.054687 6.828126 6.824219 0 3.769531-3.054688 6.828125-6.828126 6.828125zm0 0"/></svg>