<svg height="410pt" viewBox="-144 0 410 410.09503" width="410pt" xmlns="http://www.w3.org/2000/svg"><path d="m61.488281 402.773438c-3.773437 0-6.828125-3.058594-6.828125-6.828126v-232.105468c0-3.769532 3.054688-6.828125 6.828125-6.828125 3.773438 0 6.824219 3.058593 6.824219 6.828125v232.105468c0 3.769532-3.050781 6.828126-6.824219 6.828126zm0 0"/><path d="m59.527344 8.78125 47.015625 47.015625-45.828125 45.828125-47.015625-47.015625zm0 0" fill="#fcad3a"/><path d="m60.714844 108.453125c-1.746094 0-3.492188-.667969-4.828125-2l-47.011719-47.015625c-2.667969-2.664062-2.667969-6.988281 0-9.652344l45.828125-45.828125c2.664063-2.664062 6.984375-2.664062 9.652344 0l47.011719 47.015625c2.667968 2.664063 2.667968 6.984375 0 9.652344l-45.828126 45.828125c-1.332031 1.332031-3.078124 2-4.824218 2zm-37.359375-53.839844 37.359375 37.359375 36.171875-36.171875-37.359375-37.363281zm0 0"/><path d="m109.273438 109.433594c0 30.914062-22.921876 55.96875-51.199219 55.96875-28.277344 0-51.199219-25.054688-51.199219-55.96875v-102.609375zm0 0" fill="#feda38"/><path d="m58.074219 172.226562c-31.992188 0-58.027344-28.167968-58.027344-62.792968v-102.609375c0-2.761719 1.667969-5.253907 4.222656-6.304688 2.542969-1.058593 5.484375-.4687498 7.4375 1.484375l102.402344 102.609375c1.269531 1.277344 1.992187 3.015625 1.992187 4.820313 0 34.625-26.035156 62.792968-58.027343 62.792968zm-44.375-148.898437v86.105469c0 27.097656 19.90625 49.140625 44.375 49.140625 23.632812 0 43.007812-20.566407 44.308593-46.386719zm0 0"/><path d="m102.449219 366.003906c0 20.582032-18.527344 37.265625-41.375 37.265625-22.851563 0-41.375-16.683593-41.375-37.265625v-174.859375zm0 0" fill="#9bfc1d"/><path d="m61.074219 410.09375c-26.578125 0-48.199219-19.777344-48.199219-44.089844v-174.859375c0-3.191406 2.214844-5.960937 5.332031-6.660156 3.140625-.710937 6.300781.855469 7.667969 3.742187l82.746094 174.859376c.425781.910156.652344 1.910156.652344 2.917968 0 24.3125-21.621094 44.089844-48.199219 44.089844zm-34.546875-188.5625v144.472656c0 16.785156 15.5 30.4375 34.546875 30.4375 18.5 0 33.648437-12.875 34.507812-28.980468zm0 0"/><path d="m6.875 109.433594c0 30.914062 24.449219 55.96875 54.613281 55.96875 30.160157 0 54.613281-25.054688 54.613281-55.96875v-102.609375zm0 0" fill="#feda38"/><path d="m61.488281 172.226562c-33.882812 0-61.441406-28.167968-61.441406-62.792968 0-1.882813.78125-3.683594 2.15625-4.976563l109.226563-102.609375c1.992187-1.863281 4.890624-2.359375 7.382812-1.289062 2.496094 1.082031 4.113281 3.542968 4.113281 6.265625v102.609375c0 34.625-27.558593 62.792968-61.4375 62.792968zm-47.707031-59.914062c1.453125 25.765625 22.292969 46.261719 47.707031 46.261719 26.347657 0 47.785157-22.042969 47.785157-49.140625v-86.828125zm0 0"/><path d="m19.699219 366.003906c0 20.582032 18.523437 37.265625 41.375 37.265625 22.851562 0 41.375-16.683593 41.375-37.265625v-174.859375zm0 0" fill="#83d816"/><path d="m61.074219 410.09375c-26.578125 0-48.199219-19.777344-48.199219-44.089844 0-1.007812.226562-2.007812.652344-2.917968l82.746094-174.859376c1.367187-2.886718 4.554687-4.453124 7.667968-3.742187 3.121094.699219 5.332032 3.46875 5.332032 6.660156v174.859375c0 24.3125-21.621094 44.089844-48.199219 44.089844zm-34.507813-42.632812c.859375 16.105468 16.007813 28.980468 34.507813 28.980468 19.046875 0 34.546875-13.652344 34.546875-30.4375v-144.472656zm0 0"/><path d="m61.488281 147.609375c-3.773437 0-6.828125-3.058594-6.828125-6.828125s3.054688-6.828125 6.828125-6.828125c13.632813 0 24.726563-11.09375 24.726563-24.726563 0-3.773437 3.050781-6.828124 6.824218-6.828124 3.773438 0 6.828126 3.054687 6.828126 6.828124 0 21.164063-17.21875 38.382813-38.378907 38.382813zm0 0"/></svg>