<svg height="409pt" viewBox="0 -82 409.6 409" width="409pt" xmlns="http://www.w3.org/2000/svg"><path d="m259.414062 225.578125h-238.933593c-7.539063 0-13.652344-6.113281-13.652344-13.652344 0-7.539062 6.113281-13.652343 13.652344-13.652343h238.933593c7.539063 0 13.652344 6.113281 13.652344 13.652343 0 7.539063-6.113281 13.652344-13.652344 13.652344zm0 0" fill="#83d816"/><path d="m259.414062 232.40625h-238.933593c-11.292969 0-20.480469-9.1875-20.480469-20.480469s9.1875-20.480469 20.480469-20.480469h238.933593c11.292969 0 20.480469 9.1875 20.480469 20.480469s-9.1875 20.480469-20.480469 20.480469zm-238.933593-27.304688c-3.761719 0-6.828125 3.058594-6.828125 6.824219s3.066406 6.828125 6.828125 6.828125h238.933593c3.765626 0 6.824219-3.0625 6.824219-6.828125s-3.058593-6.824219-6.824219-6.824219zm0 0"/><path d="m259.414062 177.792969h-238.933593c-7.539063 0-13.652344-6.113281-13.652344-13.652344s6.113281-13.652344 13.652344-13.652344h238.933593c7.539063 0 13.652344 6.113281 13.652344 13.652344s-6.113281 13.652344-13.652344 13.652344zm0 0" fill="#83d816"/><path d="m259.414062 184.621094h-238.933593c-11.292969 0-20.480469-9.1875-20.480469-20.480469s9.1875-20.480469 20.480469-20.480469h238.933593c11.292969 0 20.480469 9.1875 20.480469 20.480469s-9.1875 20.480469-20.480469 20.480469zm-238.933593-27.308594c-3.761719 0-6.828125 3.0625-6.828125 6.828125s3.066406 6.824219 6.828125 6.824219h238.933593c3.765626 0 6.824219-3.058594 6.824219-6.824219s-3.058593-6.828125-6.824219-6.828125zm0 0"/><path d="m232.105469 130.007812h-211.625c-7.539063 0-13.652344-6.113281-13.652344-13.65625 0-7.539062 6.113281-13.652343 13.652344-13.652343h211.625c7.542969 0 13.65625 6.113281 13.65625 13.652343 0 7.542969-6.113281 13.65625-13.65625 13.65625zm0 0" fill="#83d816"/><path d="m232.105469 136.832031h-211.625c-11.292969 0-20.480469-9.1875-20.480469-20.480469 0-11.292968 9.1875-20.476562 20.480469-20.476562h211.625c11.292969 0 20.480469 9.183594 20.480469 20.476562 0 11.292969-9.1875 20.480469-20.480469 20.480469zm-211.625-27.304687c-3.761719 0-6.828125 3.058594-6.828125 6.824218 0 3.769532 3.066406 6.828126 6.828125 6.828126h211.625c3.769531 0 6.828125-3.058594 6.828125-6.828126 0-3.765624-3.058594-6.824218-6.828125-6.824218zm0 0"/><path d="m22.226562 103.003906c9.550782-54.476562 57.09375-95.878906 114.308594-95.878906 50.6875 0 93.785156 32.5 109.597656 77.796875 7.820313 22.410156 18.191407 43.902344 31.039063 63.855469 9.214844 14.3125 19.785156 28.160156 30.027344 35.839844v34.132812c-61.441407-40.957031-91.332031-129.085938-91.332031-129.085938-13.074219-30.902343-43.671876-52.585937-79.335938-52.585937-39.917969 0-72.167969 28.769531-81.917969 65.621094zm0 0" fill="#9bfc1d"/><path d="m307.199219 225.578125c-1.324219 0-2.644531-.386719-3.785157-1.144531-62.65625-41.769532-92.761718-128.886719-94.015624-132.574219-12.253907-28.945313-40.929688-47.953125-72.863282-47.953125-34.917968 0-65.890625 24.890625-75.320312 60.539062-.789063 2.972657-3.464844 5.054688-6.539063 5.082032l-32.386719.304687c-1.992187-.269531-3.960937-.863281-5.269531-2.410156-1.3125-1.546875-1.867187-3.59375-1.519531-5.59375 10.3125-58.828125 61.214844-101.527344 121.035156-101.527344 52.207032 0 98.84375 33.101563 116.042969 82.367188 7.734375 22.164062 17.933594 43.160156 30.335937 62.417969 10.558594 16.398437 20.105469 27.867187 28.378907 34.074218 1.71875 1.285156 2.734375 3.3125 2.734375 5.460938v34.132812c0 2.519532-1.386719 4.832032-3.605469 6.019532-1.007813.539062-2.117187.804687-3.222656.804687zm-170.664063-195.324219c37.4375 0 71.046875 22.28125 85.617188 56.753906.441406 1.238282 26.527344 76.59375 78.222656 118.257813v-17.359375c-8.859375-7.433594-18.574219-19.332031-28.941406-35.433594-12.980469-20.160156-23.660156-42.125-31.746094-65.308594-15.289062-43.785156-56.746094-73.210937-103.152344-73.210937-50.390625 0-93.664062 34.082031-105.851562 82.148437l18.804687-.179687c12.519531-38.914063 47.617188-65.667969 87.046875-65.667969zm0 0"/><path d="m402.773438 216.550781-95.574219 22.683594v-75.09375l95.574219 29.507813zm0 0" fill="#288eea"/><path d="m307.199219 246.058594c-1.519531 0-3.011719-.503906-4.230469-1.472656-1.640625-1.292969-2.59375-3.265626-2.59375-5.351563v-75.09375c0-2.167969 1.027344-4.207031 2.773438-5.496094 1.738281-1.277343 4-1.671875 6.066406-1.027343l95.574218 29.507812c2.859376.882812 4.8125 3.527344 4.8125 6.519531v22.90625c0 3.160157-2.175781 5.914063-5.253906 6.640625l-95.574218 22.679688c-.519532.128906-1.046876.1875-1.574219.1875zm6.828125-72.664063v57.207031l81.917968-19.441406v-12.472656zm88.746094 43.160157h.066406zm0 0"/></svg>