<svg height="409pt" viewBox="-7 0 409 409.65027" width="409pt" xmlns="http://www.w3.org/2000/svg"><path d="m300.808594 328.136719c-3.769532 0-6.828125-3.058594-6.828125-6.828125v-271.28125c0-3.769532 3.058593-6.828125 6.828125-6.828125 3.769531 0 6.824218 3.058593 6.824218 6.828125v271.28125c0 3.769531-3.054687 6.828125-6.824218 6.828125zm0 0"/><path d="m116.488281 311.160156c-3.769531 0-6.828125-3.054687-6.828125-6.828125v-186.039062c0-3.769531 3.058594-6.828125 6.828125-6.828125s6.824219 3.058594 6.824219 6.828125v186.039062c0 3.773438-3.054688 6.828125-6.824219 6.828125zm0 0"/><path d="m376.292969 299.503906h-355.988281l14.402343 103.316406h327.183594zm0 0" fill="#8c6b37"/><path d="m361.890625 409.648438h-327.183594c-3.40625 0-6.292969-2.507813-6.761719-5.882813l-14.398437-103.320313c-.273437-1.957031.3125-3.9375 1.609375-5.425781s3.175781-2.347656 5.148438-2.347656h355.988281c1.972656 0 3.851562.859375 5.148437 2.347656s1.886719 3.46875 1.609375 5.425781l-14.398437 103.320313c-.46875 3.375-3.351563 5.882813-6.761719 5.882813zm-321.246094-13.652344h315.308594l12.496094-89.667969h-340.300781zm0 0"/><path d="m125.113281 140.214844s-12.914062-47.355469 30.132813-64.578125c0 0 12.917968 47.355469-30.132813 64.578125zm0 0" fill="#feda38"/><path d="m125.113281 147.039062c-1.042969 0-2.089843-.238281-3.042969-.714843-1.746093-.867188-3.03125-2.4375-3.542968-4.3125-5.019532-18.410157-4.339844-57.300781 34.183594-72.710938 1.804687-.722656 3.832031-.644531 5.582031.230469 1.742187.867188 3.027343 2.4375 3.542969 4.3125 5.019531 18.410156 4.335937 57.300781-34.1875 72.710938-.816407.320312-1.675782.484374-2.535157.484374zm24.960938-61.234374c-19.683594 11.980468-20.890625 32.683593-19.789063 44.246093 19.683594-11.984375 20.894532-32.6875 19.789063-44.246093zm0 0"/><path d="m82.0625 239.230469s-12.914062-47.355469 30.132812-64.574219c0-.003906 12.917969 47.355469-30.132812 64.574219zm0 0" fill="#feda38"/><path d="m82.0625 246.054688c-1.042969 0-2.085938-.238282-3.042969-.714844-1.742187-.867188-3.03125-2.4375-3.542969-4.3125-5.019531-18.410156-4.339843-57.304688 34.1875-72.714844 1.804688-.722656 3.832032-.640625 5.578126.230469 1.742187.867187 3.03125 2.4375 3.542968 4.3125 5.019532 18.414062 4.339844 57.304687-34.183594 72.714843-.820312.324219-1.679687.484376-2.539062.484376zm24.964844-61.230469c-19.539063 11.945312-20.8125 32.636719-19.75 44.21875 19.636718-11.988281 20.851562-32.664063 19.75-44.21875zm0 0"/><path d="m135.417969 149.871094s24.476562-42.546875 67.042969-24.164063c0 0-24.476563 42.550781-67.042969 24.164063zm0 0" fill="#feda38"/><path d="m156.246094 161.269531c-7.300782 0-15.179688-1.519531-23.535156-5.128906-1.785157-.769531-3.160157-2.269531-3.773438-4.117187-.613281-1.847657-.40625-3.867188.5625-5.554688 9.515625-16.542969 37.582031-43.464844 75.664062-27.023438 1.789063.769532 3.160157 2.269532 3.773438 4.113282.613281 1.847656.40625 3.867187-.5625 5.554687-7.425781 12.914063-26.152344 32.15625-52.128906 32.15625zm-9.925782-14.882812c22.332032 5.460937 37.863282-8.246094 45.277344-17.171875-22.25-5.410156-37.8125 8.261718-45.277344 17.171875zm0 0"/><path d="m34.851562 189.160156s24.472657-42.550781 67.039063-24.164062c0 0-24.472656 42.550781-67.039063 24.164062zm0 0" fill="#feda38"/><path d="m55.683594 200.558594c-7.304688 0-15.179688-1.523438-23.539063-5.132813-1.785156-.769531-3.160156-2.269531-3.773437-4.117187-.609375-1.84375-.40625-3.867188.566406-5.550782 9.515625-16.542968 37.574219-43.484374 75.660156-27.027343 1.789063.769531 3.164063 2.269531 3.773438 4.117187.613281 1.84375.40625 3.867188-.5625 5.550782-7.425782 12.914062-26.15625 32.160156-52.125 32.160156zm-9.929688-14.894532c22.226563 5.410157 37.773438-8.265624 45.230469-17.175781-22.1875-5.375-37.761719 8.273438-45.230469 17.175781zm0 0"/><path d="m124.851562 174.75s-13.628906 47.15625 29.152344 65.023438c0 .003906 13.632813-47.152344-29.152344-65.023438zm0 0" fill="#feda38"/><path d="m154.003906 246.601562c-.890625 0-1.785156-.179687-2.628906-.527343-38.285156-15.992188-38.378906-54.886719-33.078125-73.21875.539063-1.871094 1.847656-3.421875 3.605469-4.261719 1.746094-.84375 3.78125-.890625 5.578125-.144531 38.289062 15.996093 38.382812 54.886719 33.082031 73.21875-.539062 1.871093-1.851562 3.421875-3.605469 4.261719-.933593.445312-1.941406.671874-2.953125.671874zm-24.09375-61.578124c-1.230468 11.554687-.265625 32.246093 19.039063 44.476562 1.230469-11.546875.265625-32.238281-19.039063-44.476562zm0 0"/><path d="m83.304688 75.09375s-13.632813 47.15625 29.152343 65.023438c0 0 13.632813-47.152344-29.152343-65.023438zm0 0" fill="#feda38"/><path d="m112.457031 146.945312c-.890625 0-1.785156-.175781-2.628906-.527343-38.289063-15.992188-38.382813-54.886719-33.082031-73.222657.542968-1.871093 1.855468-3.417968 3.609375-4.257812 1.746093-.84375 3.78125-.898438 5.578125-.144531 38.289062 15.992187 38.382812 54.890625 33.082031 73.222656-.539063 1.871094-1.851563 3.421875-3.605469 4.261719-.929687.445312-1.941406.667968-2.953125.667968zm-24.09375-61.578124c-1.230469 11.554687-.269531 32.242187 19.039063 44.476562 1.230468-11.542969.269531-32.238281-19.039063-44.476562zm0 0"/><path d="m135.972656 163.628906s47.152344-13.628906 65.023438 29.15625c0 0-47.15625 13.628906-65.023438-29.15625zm0 0" fill="#feda38"/><path d="m184.410156 201.8125c-19.175781 0-43.0625-7.59375-54.738281-35.554688-.75-1.792968-.695313-3.824218.144531-5.578124.839844-1.757813 2.386719-3.066407 4.257813-3.609376 18.332031-5.308593 57.222656-5.207031 73.21875 33.085938.75 1.792969.699219 3.824219-.140625 5.582031-.839844 1.753907-2.390625 3.066407-4.261719 3.605469-4.945313 1.429688-11.390625 2.46875-18.480469 2.46875zm-38.199218-33.164062c12.28125 19.5 32.996093 20.417968 44.542968 19.117187-12.273437-19.492187-32.996094-20.394531-44.542968-19.117187zm0 0"/><path d="m36.316406 122.082031s47.152344-13.628906 65.023438 29.15625c0 0-47.15625 13.628907-65.023438-29.15625zm0 0" fill="#feda38"/><path d="m84.753906 160.261719c-19.175781 0-43.0625-7.589844-54.738281-35.546875-.75-1.792969-.695313-3.828125.144531-5.582032.839844-1.757812 2.386719-3.066406 4.257813-3.605468 18.332031-5.308594 57.226562-5.207032 73.21875 33.078125.75 1.796875.699219 3.828125-.140625 5.582031-.839844 1.757812-2.390625 3.066406-4.261719 3.605469-4.945313 1.429687-11.394531 2.46875-18.480469 2.46875zm-38.195312-33.160157c12.277344 19.5 33.023437 20.394532 44.539062 19.113282-12.28125-19.5-33.035156-20.410156-44.539062-19.113282zm0 0"/><path d="m138.027344 157.433594c0 9.511718-7.710938 17.21875-17.21875 17.21875-9.511719 0-17.222656-7.707032-17.222656-17.21875 0-9.511719 7.710937-17.21875 17.222656-17.21875 9.507812 0 17.21875 7.707031 17.21875 17.21875zm0 0" fill="#fcad3a"/><path d="m120.808594 181.480469c-13.261719 0-24.046875-10.789063-24.046875-24.046875 0-13.261719 10.785156-24.046875 24.046875-24.046875 13.261718 0 24.046875 10.785156 24.046875 24.046875 0 13.257812-10.789063 24.046875-24.046875 24.046875zm0-34.441407c-5.730469 0-10.394532 4.664063-10.394532 10.394532 0 5.730468 4.664063 10.394531 10.394532 10.394531 5.730468 0 10.394531-4.664063 10.394531-10.394531 0-5.730469-4.664063-10.394532-10.394531-10.394532zm0 0"/><path d="m309.433594 71.945312s-12.914063-47.351562 30.132812-64.574218c0 0 12.917969 47.355468-30.132812 64.574218zm0 0" fill="#feda38"/><path d="m309.429688 78.773438c-1.039063 0-2.085938-.242188-3.042969-.714844-1.742188-.867188-3.027344-2.4375-3.542969-4.316406-5.019531-18.40625-4.335938-57.296876 34.1875-72.707032 1.804688-.722656 3.832031-.644531 5.582031.230469 1.742188.863281 3.027344 2.433594 3.542969 4.3125 5.019531 18.40625 4.335938 57.296875-34.1875 72.710937-.816406.320313-1.675781.484376-2.539062.484376zm24.964843-61.238282c-19.683593 11.984375-20.894531 32.6875-19.789062 44.25 19.683593-11.984375 20.894531-32.6875 19.789062-44.25zm0 0"/><path d="m266.382812 170.964844s-12.914062-47.355469 30.132813-64.574219c0-.003906 12.917969 47.351563-30.132813 64.574219zm0 0" fill="#feda38"/><path d="m266.382812 177.789062c-1.042968 0-2.085937-.242187-3.042968-.714843-1.742188-.867188-3.03125-2.4375-3.542969-4.3125-5.019531-18.410157-4.339844-57.304688 34.1875-72.714844 1.800781-.714844 3.824219-.644531 5.578125.230469 1.742188.867187 3.03125 2.4375 3.542969 4.3125 5.019531 18.414062 4.335937 57.304687-34.183594 72.714844-.820313.324218-1.679687.484374-2.539063.484374zm24.964844-61.230468c-19.539062 11.945312-20.8125 32.636718-19.75 44.21875 19.636719-11.988282 20.851563-32.664063 19.75-44.21875zm0 0"/><path d="m319.738281 81.605469s24.476563-42.550781 67.042969-24.164063c0 0-24.476562 42.550782-67.042969 24.164063zm0 0" fill="#feda38"/><path d="m340.566406 93.003906c-7.300781 0-15.179687-1.519531-23.535156-5.128906-1.785156-.769531-3.160156-2.269531-3.773438-4.117188-.613281-1.847656-.40625-3.867187.5625-5.554687 9.515626-16.542969 37.578126-43.464844 75.664063-27.027344 1.785156.769531 3.160156 2.269531 3.773437 4.117188.613282 1.847656.40625 3.867187-.5625 5.554687-7.425781 12.910156-26.152343 32.15625-52.128906 32.15625zm-9.929687-14.882812c22.351562 5.460937 37.867187-8.246094 45.28125-17.171875-22.25-5.417969-37.8125 8.261719-45.28125 17.171875zm0 0"/><path d="m219.171875 120.890625s24.472656-42.546875 67.039063-24.160156c0 0-24.472657 42.546875-67.039063 24.160156zm0 0" fill="#feda38"/><path d="m240.003906 132.292969c-7.304687 0-15.179687-1.523438-23.539062-5.132813-1.785156-.769531-3.160156-2.269531-3.773438-4.117187-.613281-1.847657-.40625-3.867188.5625-5.554688 9.519532-16.542969 37.578125-43.464843 75.664063-27.027343 1.789062.769531 3.160156 2.273437 3.773437 4.117187.613282 1.847656.40625 3.867187-.5625 5.554687-7.425781 12.914063-26.15625 32.160157-52.125 32.160157zm-9.929687-14.894531c22.222656 5.398437 37.773437-8.265626 45.230469-17.175782-22.179688-5.371094-37.757813 8.269532-45.230469 17.175782zm0 0"/><path d="m309.171875 106.484375s-13.632813 47.152344 29.152344 65.023437c0 0 13.632812-47.152343-29.152344-65.023437zm0 0" fill="#feda38"/><path d="m338.324219 178.332031c-.890625 0-1.785157-.175781-2.628907-.527343-38.289062-15.988282-38.378906-54.882813-33.082031-73.21875.542969-1.871094 1.851563-3.417969 3.609375-4.257813 1.746094-.847656 3.777344-.894531 5.578125-.144531 38.289063 15.992187 38.378907 54.886718 33.082031 73.21875-.539062 1.871094-1.851562 3.421875-3.605468 4.261718-.933594.445313-1.941406.667969-2.953125.667969zm-24.09375-61.574219c-1.230469 11.554688-.269531 32.242188 19.039062 44.476563 1.230469-11.546875.265625-32.238281-19.039062-44.476563zm0 0"/><path d="m267.625 6.828125s-13.632812 47.15625 29.152344 65.023437c0 0 13.632812-47.15625-29.152344-65.023437zm0 0" fill="#feda38"/><path d="m296.777344 78.679688c-.890625 0-1.785156-.175782-2.628906-.527344-38.289063-15.992188-38.382813-54.890625-33.082032-73.222656.539063-1.871094 1.855469-3.421876 3.609375-4.261719 1.746094-.835938 3.777344-.890625 5.578125-.140625 38.289063 15.992187 38.378906 54.890625 33.082032 73.222656-.539063 1.871094-1.851563 3.417969-3.605469 4.257812-.929688.449219-1.941407.671876-2.953125.671876zm-24.09375-61.578126c-1.230469 11.554688-.269532 32.242188 19.039062 44.480469 1.230469-11.546875.269532-32.242187-19.039062-44.480469zm0 0"/><path d="m320.289062 95.363281s47.15625-13.628906 65.027344 29.15625c0 0-47.15625 13.628907-65.027344-29.15625zm0 0" fill="#feda38"/><path d="m368.730469 133.546875c-19.175781 0-43.0625-7.59375-54.738281-35.554687-.75-1.792969-.695313-3.824219.144531-5.582032.839843-1.753906 2.386719-3.066406 4.257812-3.605468 18.324219-5.308594 57.226563-5.214844 73.21875 33.085937.75 1.792969.699219 3.824219-.140625 5.578125-.839844 1.757812-2.390625 3.066406-4.261718 3.609375-4.945313 1.429687-11.390626 2.46875-18.480469 2.46875zm-38.199219-33.164063c12.28125 19.5 33.007812 20.40625 44.542969 19.117188-12.273438-19.492188-32.984375-20.386719-44.542969-19.117188zm0 0"/><path d="m220.632812 53.816406s47.15625-13.628906 65.023438 29.15625c.003906 0-47.152344 13.628906-65.023438-29.15625zm0 0" fill="#feda38"/><path d="m269.074219 91.996094c-19.175781 0-43.0625-7.59375-54.738281-35.550782-.75-1.792968-.695313-3.824218.144531-5.578124.839843-1.757813 2.386719-3.066407 4.257812-3.605469 18.324219-5.308594 57.226563-5.210938 73.21875 33.078125.75 1.792968.699219 3.828125-.140625 5.582031s-2.390625 3.066406-4.261718 3.605469c-4.945313 1.429687-11.394532 2.46875-18.480469 2.46875zm-38.195313-33.160156c12.277344 19.5 33.019532 20.398437 44.535156 19.113281-12.28125-19.5-33.019531-20.402344-44.535156-19.113281zm0 0"/><path d="m322.347656 89.167969c0 9.511719-7.710937 17.21875-17.21875 17.21875-9.511718 0-17.222656-7.707031-17.222656-17.21875s7.710938-17.222657 17.222656-17.222657c9.507813 0 17.21875 7.710938 17.21875 17.222657zm0 0" fill="#fcad3a"/><path d="m305.128906 113.210938c-13.261718 0-24.046875-10.785157-24.046875-24.046876 0-13.257812 10.785157-24.046874 24.046875-24.046874 13.261719 0 24.046875 10.789062 24.046875 24.046874 0 13.261719-10.789062 24.046876-24.046875 24.046876zm0-34.4375c-5.730468 0-10.394531 4.664062-10.394531 10.394531s4.664063 10.394531 10.394531 10.394531c5.730469 0 10.394532-4.664062 10.394532-10.394531s-4.664063-10.394531-10.394532-10.394531zm0 0"/><path d="m7.152344 280.351562h382.292968v40.265626h-382.292968zm0 0" fill="#eac583"/><path d="m389.445312 327.445312h-382.292968c-3.769532 0-6.828125-3.054687-6.828125-6.824218v-40.269532c0-3.773437 3.058593-6.828124 6.828125-6.828124h382.292968c3.769532 0 6.828126 3.054687 6.828126 6.828124v40.269532c0 3.769531-3.058594 6.824218-6.828126 6.824218zm-375.46875-13.652343h368.640626v-26.617188h-368.640626zm0 0"/><path d="m164.164062 375.921875h-48.292968c-3.769532 0-6.828125-3.054687-6.828125-6.824219 0-3.769531 3.058593-6.828125 6.828125-6.828125h48.292968c3.769532 0 6.828126 3.058594 6.828126 6.828125 0 3.769532-3.058594 6.824219-6.828126 6.824219zm0 0"/><path d="m87.117188 375.921875h-18.523438c-3.773438 0-6.828125-3.054687-6.828125-6.824219 0-3.769531 3.054687-6.828125 6.828125-6.828125h18.523438c3.769531 0 6.828124 3.058594 6.828124 6.828125 0 3.769532-3.058593 6.824219-6.828124 6.824219zm0 0"/></svg>