<svg height="418pt" viewBox="-53 0 418 418.90007" width="418pt" xmlns="http://www.w3.org/2000/svg"><path d="m151.40625 289.195312-136.535156-136.535156 136.535156-129.707031 143.359375 129.707031zm0 0" fill="#99783d"/><path d="m151.40625 296.023438c-1.746094 0-3.496094-.667969-4.828125-2l-136.53125-136.535157c-1.304687-1.300781-2.023437-3.074219-2-4.914062.023437-1.839844.789063-3.59375 2.121094-4.863281l136.539062-129.707032c2.585938-2.460937 6.640625-2.503906 9.277344-.113281l143.363281 129.707031c1.40625 1.273438 2.21875 3.078125 2.246094 4.976563.027344 1.898437-.75 3.722656-2.121094 5.03125l-143.359375 136.53125c-1.320312 1.257812-3.015625 1.886719-4.707031 1.886719zm-126.753906-143.234376 126.867187 126.871094 133.214844-126.871094-133.214844-120.523437zm0 0"/><path d="m7.273438 289.195312h144.132812v-129.394531zm0 0" fill="#ee5281"/><path d="m151.40625 296.023438h-144.128906c-2.828125 0-5.367188-1.746094-6.375-4.382813-1.011719-2.644531-.289063-5.636719 1.8125-7.523437l144.128906-129.398438c2.015625-1.792969 4.878906-2.25 7.34375-1.152344 2.460938 1.09375 4.042969 3.539063 4.042969 6.234375v129.394531c0 3.769532-3.050781 6.828126-6.824219 6.828126zm-126.308594-13.65625h119.480469v-107.265626zm0 0"/><path d="m151.40625 22.953125v136.847656l154.371094-136.847656zm0 0" fill="#ee5281"/><path d="m151.40625 166.625c-.949219 0-1.898438-.195312-2.800781-.601562-2.453125-1.101563-4.027344-3.539063-4.027344-6.226563v-136.84375c0-3.769531 3.054687-6.828125 6.828125-6.828125h154.371094c2.835937 0 5.375 1.753906 6.378906 4.40625 1.007812 2.652344.273438 5.648438-1.851562 7.53125l-154.371094 136.84375c-1.273438 1.128906-2.894532 1.71875-4.527344 1.71875zm6.824219-136.84375v114.84375l129.554687-114.84375zm0 0"/><path d="m14.871094 6.824219v145.355469h137.929687zm0 0" fill="#83d816"/><path d="m152.800781 159.007812h-137.929687c-3.769532 0-6.824219-3.058593-6.824219-6.828124v-145.355469c0-2.792969 1.703125-5.304688 4.296875-6.339844 2.59375-1.03125 5.554688-.382813 7.484375 1.640625l137.925781 145.355469c1.878906 1.980469 2.390625 4.886719 1.316406 7.394531-1.078124 2.507812-3.546874 4.132812-6.269531 4.132812zm-131.101562-13.652343h115.214843l-115.214843-121.417969zm0 0"/><path d="m294.765625 152.179688h-141.964844l141.964844 153.144531zm0 0" fill="#83d816"/><path d="m294.765625 312.152344c-1.859375 0-3.6875-.765625-5.007813-2.1875l-141.96875-153.140625c-1.84375-1.992188-2.332031-4.882813-1.246093-7.371094 1.082031-2.488281 3.542969-4.097656 6.253906-4.097656h141.96875c3.773437 0 6.828125 3.058593 6.828125 6.828125v153.144531c0 2.804687-1.722656 5.328125-4.335938 6.355469-.8125.3125-1.652343.46875-2.492187.46875zm-126.324219-153.144532 119.5 128.910157v-128.910157zm0 0"/><path d="m178.710938 152.660156c0 15.082032-12.222657 27.304688-27.304688 27.304688s-27.308594-12.222656-27.308594-27.304688c0-15.082031 12.226563-27.308594 27.308594-27.308594s27.304688 12.226563 27.304688 27.308594zm0 0" fill="#fcad3a"/><path d="m151.40625 186.796875c-18.820312 0-34.132812-15.316406-34.132812-34.136719 0-18.816406 15.3125-34.132812 34.132812-34.132812s34.132812 15.316406 34.132812 34.132812c0 18.820313-15.3125 34.136719-34.132812 34.136719zm0-54.617187c-11.292969 0-20.480469 9.1875-20.480469 20.480468 0 11.292969 9.1875 20.480469 20.480469 20.480469s20.480469-9.1875 20.480469-20.480469c0-11.292968-9.1875-20.480468-20.480469-20.480468zm0 0"/><path d="m151.40625 418.898438c-3.773438 0-6.828125-3.054688-6.828125-6.824219v-232.109375c0-3.769532 3.054687-6.824219 6.828125-6.824219s6.824219 3.054687 6.824219 6.824219v232.109375c0 3.769531-3.050781 6.824219-6.824219 6.824219zm0 0"/></svg>