<svg height="414pt" viewBox="0 -30 414.6405 414" width="414pt" xmlns="http://www.w3.org/2000/svg"><path d="m360.027344 177.8125c0 26.394531-21.394532 47.789062-47.789063 47.789062-26.390625 0-47.785156-21.394531-47.785156-47.789062 0-26.390625 21.394531-47.785156 47.785156-47.785156 26.394531 0 47.789063 21.394531 47.789063 47.785156zm0 0" fill="#777"/><path d="m312.238281 232.425781c-30.113281 0-54.613281-24.5-54.613281-54.613281s24.5-54.613281 54.613281-54.613281 54.613281 24.5 54.613281 54.613281-24.5 54.613281-54.613281 54.613281zm0-95.570312c-22.585937 0-40.957031 18.371093-40.957031 40.957031s18.371094 40.960938 40.957031 40.960938c22.585938 0 40.960938-18.375 40.960938-40.960938s-18.375-40.957031-40.960938-40.957031zm0 0"/><path d="m332.425781 177.671875c0 11.398437-9.238281 20.636719-20.636719 20.636719-11.394531 0-20.632812-9.238282-20.632812-20.636719 0-11.394531 9.238281-20.632813 20.632812-20.632813 11.398438 0 20.636719 9.238282 20.636719 20.632813zm0 0" fill="#fff"/><path d="m311.792969 205.132812c-15.140625 0-27.460938-12.320312-27.460938-27.460937 0-15.136719 12.320313-27.457031 27.460938-27.457031s27.460937 12.320312 27.460937 27.457031c0 15.140625-12.320312 27.460937-27.460937 27.460937zm0-41.265624c-7.613281 0-13.808594 6.191406-13.808594 13.804687s6.195313 13.808594 13.808594 13.808594 13.804687-6.195313 13.804687-13.808594-6.191406-13.804687-13.804687-13.804687zm0 0"/><path d="m129.195312 195.550781c0-14.21875-11.324218-25.742187-25.296874-25.742187-13.96875 0-25.296876 11.523437-25.296876 25.742187 0 14.214844 11.328126 25.738281 25.296876 25.738281 13.972656 0 25.296874-11.523437 25.296874-25.738281zm0 0" fill="#777"/><path d="m103.898438 228.113281c-17.710938 0-32.117188-14.605469-32.117188-32.566406 0-17.957031 14.40625-32.566406 32.117188-32.566406 17.714843 0 32.128906 14.609375 32.128906 32.566406 0 17.960937-14.414063 32.566406-32.128906 32.566406zm0-51.480469c-10.179688 0-18.464844 8.488282-18.464844 18.914063s8.285156 18.914063 18.464844 18.914063c10.1875 0 18.472656-8.488282 18.472656-18.914063s-8.285156-18.914063-18.472656-18.914063zm0 0"/><path d="m237.144531 211.945312h-81.917969c-3.773437 0-6.828124-3.050781-6.828124-6.824218 0-3.773438 3.054687-6.828125 6.828124-6.828125h81.917969c3.773438 0 6.828125 3.054687 6.828125 6.828125 0 3.773437-3.054687 6.824218-6.828125 6.824218zm0 0"/><path d="m309.746094 102.71875h-202.308594v39.410156c22.132812 3.246094 40.113281 20.167969 46.132812 42.511719h85.074219c-.066406-1.367187-.195312-2.714844-.195312-4.097656 0-42.296875 31.746093-76.644531 71.296875-77.824219zm0 0" fill="#fcad3a"/><path d="m238.644531 191.46875h-85.078125c-3.089844 0-5.789062-2.074219-6.59375-5.054688-5.371094-19.980468-21.28125-34.707031-40.527344-37.535156-3.347656-.492187-5.832031-3.367187-5.832031-6.75v-39.410156c0-3.773438 3.050781-6.824219 6.824219-6.824219h202.308594c3.734375 0 6.773437 2.992188 6.828125 6.726563.050781 3.726562-2.894531 6.8125-6.621094 6.925781-36.265625 1.082031-64.675781 32.265625-64.675781 71 0 .792969.054687 1.566406.101562 2.347656l.085938 1.414063c.089844 1.867187-.585938 3.683594-1.871094 5.039062-1.296875 1.351563-3.082031 2.121094-4.949219 2.121094zm-80.058593-13.65625h73.078124c.847657-28.691406 14.933594-53.660156 36.175782-68.265625h-153.574219v26.980469c20.339844 5.085937 37.007813 20.585937 44.320313 41.285156zm0 0"/><path d="m194.320312 135.242188h-42.167968c-3.773438 0-6.828125-3.054688-6.828125-6.828126 0-3.773437 3.054687-6.828124 6.828125-6.828124h42.167968c3.773438 0 6.824219 3.054687 6.824219 6.828124 0 3.773438-3.050781 6.828126-6.824219 6.828126zm0 0"/><path d="m338.320312 13.972656h-87.519531c-3.773437 0-6.828125-3.050781-6.828125-6.824218 0-3.773438 3.054688-6.828126 6.828125-6.828126h87.519531c3.773438 0 6.824219 3.054688 6.824219 6.828126 0 3.773437-3.050781 6.824218-6.824219 6.824218zm0 0"/><path d="m148.847656 88.6875c-3.773437 0-6.828125-3.054688-6.828125-6.828125v-51.972656c0-3.773438 3.054688-6.828125 6.828125-6.828125 3.773438 0 6.824219 3.054687 6.824219 6.828125v51.972656c0 3.773437-3.050781 6.828125-6.824219 6.828125zm0 0"/><path d="m91.40625 334.789062c15.800781 4.265626 32.824219 7.621094 50.800781 9.898438l75.230469-107.472656zm0 0" fill="#99783d"/><path d="m142.207031 351.511719c-.289062 0-.574219-.019531-.863281-.050781-18-2.289063-35.40625-5.679688-51.71875-10.082032-2.5-.675781-4.40625-2.710937-4.914062-5.25-.507813-2.542968.464843-5.15625 2.515624-6.742187l126.03125-97.574219c2.664063-2.050781 6.453126-1.871094 8.886719.460938 2.449219 2.328124 2.820313 6.09375.890625 8.855468l-75.234375 107.472656c-1.289062 1.839844-3.386719 2.910157-5.59375 2.910157zm-35.472656-19.957031c10.40625 2.359374 21.207031 4.304687 32.257813 5.820312l47.058593-67.230469zm0 0"/><path d="m6.828125 293.40625c11.953125 10.777344 27.90625 20.382812 46.820313 28.460938l118.300781-92.582032zm0 0" fill="#99783d"/><path d="m53.644531 328.691406c-.90625 0-1.820312-.175781-2.679687-.542968-19.925782-8.515626-36.3125-18.496094-48.710938-29.667969-1.761718-1.585938-2.570312-3.972657-2.140625-6.304688.425781-2.335937 2.03125-4.273437 4.238281-5.136719l165.125-64.125c3.167969-1.21875 6.734376.039063 8.410157 2.992188 1.671875 2.941406.9375 6.667969-1.726563 8.746094l-118.308594 92.589844c-1.21875.957031-2.707031 1.449218-4.207031 1.449218zm-33.414062-33.171875c9.066406 6.6875 19.914062 12.867188 32.414062 18.460938l78.746094-61.625zm0 0"/><path d="m407.8125 270.414062-90.875-15.847656 44.089844 58.375c22.105468-12.046875 38.46875-26.527344 46.785156-42.527344zm0 0" fill="#99783d"/><path d="m361.03125 319.765625c-2.085938 0-4.125-.953125-5.449219-2.710937l-44.089843-58.375c-1.691407-2.234376-1.839844-5.28125-.378907-7.671876 1.457031-2.386718 4.226563-3.628906 7-3.167968l90.875 15.847656c2.140625.375 3.976563 1.746094 4.945313 3.699219.964844 1.949219.941406 4.242187-.0625 6.175781-8.707032 16.75-25.851563 32.4375-49.578125 45.371094-1.035157.566406-2.152344.832031-3.261719.832031zm-28.214844-55.5 30.046875 39.785156c14.789063-8.699219 26.261719-18.4375 33.789063-28.652343zm0 0"/><path d="m271.28125 246.082031 3.824219 95.347657c17.394531-3.152344 33.679687-7.335938 48.578125-12.398438zm0 0" fill="#99783d"/><path d="m275.105469 348.253906c-1.539063 0-3.046875-.519531-4.273438-1.5-1.539062-1.234375-2.464843-3.082031-2.546875-5.054687l-3.824218-95.347657c-.128907-3.085937 1.839843-5.871093 4.792968-6.789062 2.953125-.902344 6.148438.257812 7.800782 2.871094l52.40625 82.953125c1.113281 1.765625 1.359374 3.953125.660156 5.921875-.695313 1.972656-2.261719 3.519531-4.242188 4.191406-15.386718 5.226562-32.066406 9.480469-49.558594 12.648438-.402343.074218-.808593.105468-1.214843.105468zm4.019531-76.980468 2.480469 61.953124c10.96875-2.226562 21.546875-4.898437 31.609375-7.984374zm0 0"/><path d="m186.113281 348c3.976563.105469 7.960938.199219 11.992188.199219 15.242187 0 30.046875-.832031 44.394531-2.253907l3.988281-103.664062zm0 0" fill="#99783d"/><path d="m198.105469 355.027344c-4.09375 0-8.132813-.09375-12.171875-.199219-2.402344-.066406-4.59375-1.386719-5.769532-3.480469-1.179687-2.09375-1.171874-4.648437.023438-6.734375l60.371094-105.71875c1.554687-2.734375 4.78125-4.007812 7.808594-3.179687 3.019531.867187 5.058593 3.6875 4.9375 6.828125l-3.984376 103.664062c-.128906 3.40625-2.753906 6.203125-6.148437 6.535157-15.324219 1.519531-30.492187 2.285156-45.066406 2.285156zm-.347657-13.652344h.347657c12.253906 0 24.941406-.5625 37.800781-1.675781l2.683594-69.832031zm0 0"/><path d="m284.234375 27.625h55.3125v75.09375h-55.3125zm0 0" fill="#ee5281"/><path d="m339.546875 109.546875h-55.3125c-3.773437 0-6.828125-3.054687-6.828125-6.828125v-75.09375c0-3.773438 3.054688-6.824219 6.828125-6.824219h55.3125c3.773437 0 6.824219 3.050781 6.824219 6.824219v75.09375c0 3.773438-3.050782 6.828125-6.824219 6.828125zm-48.488281-13.652344h41.660156v-61.441406h-41.660156zm0 0"/><path d="m250.800781 27.625-26.167969 75.09375h59.601563l.699219-75.09375zm0 0" fill="#fff"/><path d="m284.234375 109.546875h-59.601563c-2.214843 0-4.289062-1.074219-5.566406-2.875-1.28125-1.800781-1.605468-4.113281-.882812-6.199219l26.167968-75.09375c.953126-2.738281 3.539063-4.582031 6.445313-4.582031h34.132813c1.820312 0 3.566406.730469 4.847656 2.023437 1.289062 1.292969 2 3.046876 1.980468 4.871094l-.699218 75.09375c-.03125 3.742188-3.078125 6.761719-6.824219 6.761719zm-49.996094-13.652344h43.234375l.566406-61.441406h-22.386718zm0 0"/><path d="m127.917969 68.585938h40.960937v34.132812h-40.960937zm0 0" fill="#ee5281"/><path d="m168.878906 109.546875h-40.960937c-3.773438 0-6.824219-3.054687-6.824219-6.828125v-34.132812c0-3.773438 3.050781-6.824219 6.824219-6.824219h40.960937c3.773438 0 6.828125 3.050781 6.828125 6.824219v34.132812c0 3.773438-3.054687 6.828125-6.828125 6.828125zm-34.132812-13.652344h27.304687v-20.480469h-27.304687zm0 0"/></svg>