<svg height="402pt" viewBox="-48 0 402 402.77333" width="402pt" xmlns="http://www.w3.org/2000/svg"><path d="m287.214844 395.945312h-269.542969c-13.929687-130.425781-14.085937-260.140624 0-389.117187h269.542969c17.609375 127.953125 16.757812 257.746094 0 389.117187zm0 0" fill="#feda38"/><path d="m287.214844 402.773438h-269.546875c-3.484375 0-6.417969-2.632813-6.785157-6.101563-13.996093-131.019531-13.996093-262.429687 0-390.585937.378907-3.460938 3.300782-6.085938 6.785157-6.085938h269.546875c3.414062 0 6.300781 2.515625 6.761718 5.898438 17.179688 124.8125 17.179688 256.335937.011719 390.910156-.433593 3.410156-3.339843 5.964844-6.773437 5.964844zm-263.398438-13.652344h257.378906c16-129.195313 16.023438-255.441406.054688-375.46875h-257.449219c-13.019531 123.273437-13.011719 249.515625.015625 375.46875zm0 0"/><path d="m251.277344 197.941406c0 52.765625-42.777344 95.539063-95.542969 95.539063s-95.539063-42.773438-95.539063-95.539063 42.773438-95.542968 95.539063-95.542968 95.542969 42.777343 95.542969 95.542968zm0 0" fill="#fff"/><path d="m155.738281 300.308594c-56.449219 0-102.367187-45.921875-102.367187-102.367188 0-56.445312 45.917968-102.367187 102.367187-102.367187 56.445313 0 102.363281 45.917969 102.363281 102.363281 0 56.449219-45.917968 102.371094-102.363281 102.371094zm0-191.082032c-48.921875 0-88.714843 39.796876-88.714843 88.710938 0 48.917969 39.792968 88.714844 88.714843 88.714844 48.917969 0 88.710938-39.796875 88.710938-88.714844 0-48.914062-39.792969-88.710938-88.710938-88.710938zm0 0"/><path d="m261.050781 54.613281h-27.308593c-3.773438 0-6.824219-3.054687-6.824219-6.828125 0-3.769531 3.050781-6.824218 6.824219-6.824218h27.308593c3.773438 0 6.824219 3.054687 6.824219 6.824218 0 3.773438-3.050781 6.828125-6.824219 6.828125zm0 0"/><path d="m213.261719 54.613281h-191.144531c-3.773438 0-6.828126-3.054687-6.828126-6.828125 0-3.769531 3.054688-6.824218 6.828126-6.824218h191.144531c3.773437 0 6.828125 3.054687 6.828125 6.824218 0 3.773438-3.054688 6.828125-6.828125 6.828125zm0 0"/><path d="m261.050781 354.988281h-27.308593c-3.773438 0-6.824219-3.058593-6.824219-6.828125 0-3.769531 3.050781-6.828125 6.824219-6.828125h27.308593c3.773438 0 6.824219 3.058594 6.824219 6.828125 0 3.769532-3.050781 6.828125-6.824219 6.828125zm0 0"/><path d="m213.261719 354.988281h-191.144531c-3.773438 0-6.828126-3.058593-6.828126-6.828125 0-3.769531 3.054688-6.828125 6.828126-6.828125h191.144531c3.773437 0 6.828125 3.058594 6.828125 6.828125 0 3.769532-3.054688 6.828125-6.828125 6.828125zm0 0"/><path d="m174.90625 174.429688c0 11.167968-9.050781 20.21875-20.214844 20.21875-11.167968 0-20.214844-9.050782-20.214844-20.21875 0-11.164063 20.214844-42.675782 20.214844-42.675782s20.214844 31.515625 20.214844 42.675782zm0 0" fill="#83d816"/><path d="m154.691406 201.472656c-14.90625 0-27.042968-12.128906-27.042968-27.039062 0-12.535156 17.742187-40.824219 21.296874-46.367188 2.503907-3.914062 8.984376-3.914062 11.492188 0 3.550781 5.542969 21.292969 33.832032 21.292969 46.367188 0 14.910156-12.132813 27.039062-27.039063 27.039062zm0-56.628906c-7.160156 12.277344-13.386718 25.113281-13.386718 29.589844 0 7.378906 6.007812 13.386718 13.386718 13.386718s13.386719-6.007812 13.386719-13.386718c-.003906-4.484375-6.226563-17.320313-13.386719-29.589844zm0 0"/><path d="m123.378906 234.953125 28.445313 58.59375v-95.574219" fill="#fff"/><path d="m151.824219 300.375c-2.574219 0-4.980469-1.460938-6.140625-3.847656l-28.449219-58.597656c-1.644531-3.390626-.234375-7.472657 3.160156-9.121094 3.402344-1.648438 7.480469-.234375 9.121094 3.160156l15.480469 31.886719v-65.882813c0-3.769531 3.054687-6.824218 6.828125-6.824218 3.773437 0 6.824219 3.054687 6.824219 6.824218v95.574219c0 3.179687-2.199219 5.9375-5.296876 6.652344-.507812.117187-1.023437.175781-1.527343.175781zm0 0"/><path d="m182.542969 233.246094-30.71875 60.300781" fill="#fff"/><path d="m151.816406 300.375c-1.039062 0-2.097656-.238281-3.09375-.746094-3.359375-1.714844-4.691406-5.824218-2.980468-9.183594l30.722656-60.304687c1.699218-3.359375 5.796875-4.707031 9.179687-2.980469 3.359375 1.710938 4.691407 5.820313 2.980469 9.183594l-30.722656 60.300781c-1.199219 2.367188-3.597656 3.730469-6.085938 3.730469zm0 0"/><path d="m99.257812 228.726562c6.226563 9.265626 18.789063 11.722657 28.054688 5.496094 9.265625-6.230468 11.722656-18.792968 5.496094-28.058594-6.230469-9.265624-40.589844-24.132812-40.589844-24.132812s.808594 37.429688 7.039062 46.695312zm0 0" fill="#83d816"/><path d="m116.089844 244.496094c-1.746094 0-3.507813-.167969-5.253906-.511719-7.09375-1.390625-13.214844-5.453125-17.246094-11.449219-6.988282-10.402344-8.054688-43.769531-8.199219-50.355468-.046875-2.324219 1.085937-4.515626 3.019531-5.8125 1.925782-1.304688 4.378906-1.515626 6.519532-.605469 6.039062 2.617187 36.546874 16.195312 43.546874 26.589843 8.3125 12.378907 5.015626 29.214844-7.359374 37.535157-4.507813 3.035156-9.707032 4.609375-15.027344 4.609375zm-11.167969-19.578125c1.992187 2.964843 5.027344 4.980469 8.535156 5.664062 3.515625.695313 7.078125-.035156 10.039063-2.027343 6.132812-4.121094 7.765625-12.457032 3.648437-18.585938-2.496093-3.710938-14.828125-10.886719-27.621093-17.078125.90625 14.1875 2.898437 28.3125 5.398437 32.027344zm0 0"/><path d="m210.113281 228.730469c-6.234375 9.261719-18.792969 11.714843-28.058593 5.484375-9.261719-6.234375-11.714844-18.796875-5.484376-28.058594 6.234376-9.261719 40.601563-24.117188 40.601563-24.117188s-.824219 37.429688-7.058594 46.691407zm0 0" fill="#83d816"/><path d="m193.289062 244.492188c-5.324218 0-10.53125-1.574219-15.046874-4.613282-5.984376-4.035156-10.050782-10.15625-11.4375-17.246094-1.386719-7.089843.074218-14.292968 4.105468-20.289062 6.996094-10.398438 37.507813-23.960938 43.554688-26.574219 2.132812-.917969 4.585937-.691406 6.519531.605469 1.925781 1.296875 3.058594 3.492188 3.011719 5.8125-.144532 6.582031-1.21875 39.957031-8.210938 50.355469-4.03125 5.992187-10.160156 10.054687-17.253906 11.441406-1.746094.339844-3.503906.507813-5.242188.507813zm16.574219-51.597657c-12.792969 6.183594-25.132812 13.359375-27.628906 17.070313-4.125 6.125-2.492187 14.460937 3.636719 18.585937 2.964844 1.992188 6.550781 2.722657 10.039062 2.03125 3.511719-.683593 6.546875-2.695312 8.539063-5.664062 2.5-3.710938 4.5-17.839844 5.414062-32.023438zm0 0"/></svg>