<svg height="422pt" viewBox="-6 0 422 422.759" width="422pt" xmlns="http://www.w3.org/2000/svg"><path d="M403.152 415.934H7.207V258.918c260.461-76.906 349.18-51.008 395.945 0zm0 0" fill="#99783d"/><path d="M403.152 422.758H7.207a6.827 6.827 0 0 1-6.828-6.824V258.918a6.83 6.83 0 0 1 4.894-6.547c278.18-82.137 359.778-45.11 402.915 1.934a6.841 6.841 0 0 1 1.792 4.613v157.016a6.827 6.827 0 0 1-6.828 6.824zm-389.12-13.653h382.296V261.61c-40.562-42.726-119.21-74.593-382.297 2.418zm0 0"/><path d="M238.848 124.09c0 24.152-19.582 257.168-43.739 257.168s-43.734-233.016-43.734-257.168c0-24.156 19.578-43.738 43.734-43.738s43.739 19.582 43.739 43.738zm0 0" fill="#fcad3a"/><path d="M195.11 388.082c-8.036 0-21.485 0-37.692-125.473-8.008-61.976-12.867-126.636-12.867-138.52 0-27.878 22.68-50.562 50.558-50.562 27.883 0 50.563 22.684 50.563 50.563 0 11.887-4.86 76.547-12.863 138.52-16.211 125.472-29.66 125.472-37.7 125.472zm0-300.902c-20.348 0-36.907 16.554-36.907 36.91 0 31.578 19.242 228.941 36.906 249.484 17.664-20.539 36.91-217.906 36.91-249.484 0-20.352-16.558-36.91-36.91-36.91zm0 0"/><path d="M231.852 174.652h-34.993a6.827 6.827 0 0 1 0-13.652h34.993a6.823 6.823 0 0 1 6.824 6.824 6.824 6.824 0 0 1-6.824 6.828zm0 0M221.355 286.617h-34.992a6.827 6.827 0 0 1 0-13.652h34.992a6.827 6.827 0 0 1 0 13.652zm0 0M196.86 216.637H161.87a6.827 6.827 0 0 1 0-13.653h34.988a6.827 6.827 0 1 1 0 13.653zm0 0M193.352 87.18a6.828 6.828 0 0 1-6.809-6.446c-3.152-56.726-14.969-68.539-15.082-68.652-3.02-2.258-3.477-6.414-1.211-9.43 2.258-3.011 6.691-3.507 9.71-1.238 2.763 2.07 16.72 15.594 20.216 78.559a6.823 6.823 0 0 1-6.824 7.207zm0 0M172.367 90.684a6.835 6.835 0 0 1-6.539-4.871C156.84 55.84 137.172 52.25 136.34 52.108c-3.692-.613-6.238-4.09-5.668-7.785.574-3.695 3.996-6.25 7.676-5.719 1.175.165 28.945 4.56 40.562 43.286a6.823 6.823 0 0 1-4.582 8.5 6.839 6.839 0 0 1-1.96.293zm0 0M217.855 90.684a6.83 6.83 0 0 1-6.543-8.79C222.93 43.169 250.7 38.775 251.88 38.61c3.7-.504 7.187 2.055 7.723 5.79a6.825 6.825 0 0 1-5.727 7.714c-.98.164-20.527 3.848-29.48 33.7a6.831 6.831 0 0 1-6.54 4.87zm0 0M75.473 296.465c0 5.656-4.586 10.242-10.239 10.242-5.656 0-10.242-4.586-10.242-10.242 0-5.652 4.586-10.238 10.242-10.238 5.653 0 10.239 4.586 10.239 10.238zm0 0M54.992 351.078c0 5.656-4.582 10.242-10.238 10.242s-10.242-4.586-10.242-10.242c0-5.652 4.586-10.238 10.242-10.238s10.238 4.586 10.238 10.238zm0 0M123.258 330.598c0 5.656-4.582 10.242-10.238 10.242s-10.239-4.586-10.239-10.242c0-5.653 4.582-10.239 10.239-10.239s10.238 4.586 10.238 10.239zm0 0M130.086 269.16c0 5.656-4.586 10.238-10.238 10.238-5.657 0-10.243-4.582-10.243-10.238s4.586-10.242 10.243-10.242c5.652 0 10.238 4.586 10.238 10.242zm0 0M95.953 378.387c0 5.656-4.586 10.238-10.238 10.238-5.656 0-10.242-4.582-10.242-10.238s4.586-10.242 10.242-10.242c5.652 0 10.238 4.585 10.238 10.242zm0 0M157.395 378.387c0 5.656-4.586 10.238-10.243 10.238s-10.238-4.582-10.238-10.238 4.582-10.242 10.238-10.242 10.243 4.585 10.243 10.242zm0 0M266.621 378.387c0 5.656-4.586 10.238-10.242 10.238s-10.238-4.582-10.238-10.238 4.582-10.242 10.238-10.242 10.242 4.585 10.242 10.242zm0 0M300.754 323.773c0 5.657-4.586 10.239-10.242 10.239-5.653 0-10.239-4.582-10.239-10.239s4.586-10.242 10.239-10.242c5.656 0 10.242 4.586 10.242 10.242zm0 0M341.715 378.387c0 5.656-4.586 10.238-10.242 10.238s-10.239-4.582-10.239-10.238 4.582-10.242 10.239-10.242 10.242 4.585 10.242 10.242zm0 0M369.02 323.773c0 5.657-4.586 10.239-10.239 10.239-5.656 0-10.242-4.582-10.242-10.239s4.586-10.242 10.242-10.242c5.653 0 10.239 4.586 10.239 10.242zm0 0M266.621 282.813c0 5.656-4.586 10.238-10.242 10.238s-10.238-4.582-10.238-10.238 4.582-10.239 10.238-10.239 10.242 4.582 10.242 10.238zm0 0M321.234 255.508c0 5.652-4.586 10.238-10.242 10.238s-10.238-4.586-10.238-10.238c0-5.656 4.582-10.242 10.238-10.242s10.242 4.586 10.242 10.242zm0 0"/></svg>