<svg xmlns="http://www.w3.org/2000/svg" viewBox="0 0 44.246 44.246" width="512" height="512"><ellipse cx="18.455" cy="42.566" rx="12.92" ry="1.68" opacity=".15" fill="#45413c"/><path d="M34.375 6.466l-4.4 4.43c-7.417-6.119-18.39-5.067-24.509 2.35s-5.067 18.39 2.35 24.509 18.39 5.067 24.509-2.35a17.41 17.41 0 0 0 0-22.159l4.43-4.43-2.38-2.35z" fill="#87898c"/><path d="M32.785 8.056l-2.81 2.84C22.57 4.771 11.602 5.807 5.477 13.212a17.401 17.401 0 0 0-3.942 12.424c.708-9.584 9.051-16.779 18.635-16.071a17.396 17.396 0 0 1 8.165 2.741 2.5 2.5 0 0 0 3.12-.32l2.63-2.63-1.3-1.3z" fill="#bdbec0"/><path d="M18.879 42.227a17.822 17.822 0 0 1-11.382-4.086C-.12 31.856-1.205 20.546 5.08 12.927c6.188-7.499 17.245-8.667 24.858-2.703l4.082-4.111a.5.5 0 0 1 .706-.003l2.38 2.35a.497.497 0 0 1 .002.709l-4.112 4.113c5.162 6.589 5.067 15.954-.285 22.441-3.537 4.286-8.666 6.504-13.832 6.504zm.031-34.804c-4.878 0-9.719 2.094-13.059 6.141C-.083 20.756.941 31.436 8.134 37.37c7.193 5.933 17.872 4.91 23.805-2.283 5.145-6.235 5.145-15.287 0-21.522a.5.5 0 0 1 .032-.672l4.074-4.074-1.667-1.646-4.049 4.077a.502.502 0 0 1-.673.033 16.823 16.823 0 0 0-10.746-3.86z" fill="#45413c"/><path d="M41.915 1.306a2.8 2.8 0 0 0-3.96-.04l-.04.04-5.13 5.16a1.12 1.12 0 0 0-.006 1.584l.006.006 2.38 2.38a1.12 1.12 0 0 0 1.584.006l.006-.006 5.16-5.19a2.8 2.8 0 0 0 0-3.94z" fill="#ffe500"/><path d="M41.915 1.306a2.8 2.8 0 0 0-3.96-.04l-.04.04-5.13 5.16a1.12 1.12 0 0 0-.006 1.584l.006.006.85.85a.82.82 0 0 1 .13-.19l5.21-5.17a2.801 2.801 0 0 1 3.8-.14 2.753 2.753 0 0 0-.86-2.1z" fill="#fff48c"/><path d="M35.959 11.297a1.61 1.61 0 0 1-1.141-.47L32.431 8.44a1.622 1.622 0 0 1-.007-2.29L37.621.952A3.31 3.31 0 0 1 42.266.95a3.306 3.306 0 0 1 .047 4.666l-5.205 5.204a1.609 1.609 0 0 1-1.142.478l-.007-.001zM39.945.999c-.586 0-1.172.221-1.618.663L33.138 6.85a.623.623 0 0 0-.001.882l2.381 2.381a.62.62 0 0 0 .882.002l5.161-5.162c.925-.942.909-2.402.004-3.29l-.002-.001a2.29 2.29 0 0 0-1.618-.663z" fill="#45413c"/><circle cx="18.885" cy="24.336" r="14.04" fill="#656769"/><path d="M8.975 17.776c5.438-5.497 14.302-5.544 19.799-.106a13.999 13.999 0 0 1 4.061 8.346c.772-7.693-4.838-14.556-12.532-15.328S5.747 15.526 4.975 23.219c-.093.93-.093 1.867 0 2.796a13.994 13.994 0 0 1 4-8.239z" fill="#525252"/><path d="M18.884 38.876c-8.018 0-14.54-6.522-14.54-14.54 0-8.017 6.522-14.54 14.54-14.54 8.018 0 14.541 6.522 14.541 14.54 0 8.017-6.522 14.54-14.541 14.54zm0-28.08c-7.466 0-13.54 6.074-13.54 13.54s6.074 13.54 13.54 13.54c7.466 0 13.541-6.074 13.541-13.54s-6.074-13.54-13.541-13.54z" fill="#45413c"/><path d="M24.525 22.666a1.67 1.67 0 0 1-1.67-1.67 4.74 4.74 0 0 0-5.57-4.91 8.43 8.43 0 1 0 9.94 9.71 2.7 2.7 0 0 0-2.7-3.13z" fill="#f0f0f0"/><path d="M10.645 25.876a8.441 8.441 0 0 1 6.64-6.63 4.74 4.74 0 0 1 5.57 4.91 1.68 1.68 0 0 0 1.67 1.68 2.779 2.779 0 0 1 2.35 1.3c.153-.433.27-.878.35-1.33a2.7 2.7 0 0 0-2.7-3.13 1.67 1.67 0 0 1-1.67-1.67 4.74 4.74 0 0 0-5.57-4.91 8.42 8.42 0 0 0-6.64 6.63 8.825 8.825 0 0 0 0 3.2v-.05z" fill="#fff"/><path d="M18.9 33.289a8.874 8.874 0 0 1-4.953-1.514 8.876 8.876 0 0 1-3.79-5.688c-.462-2.34.015-4.72 1.342-6.701s3.348-3.328 5.688-3.79a5.246 5.246 0 0 1 6.166 5.427c.001.63.582 1.143 1.204 1.144a3.205 3.205 0 0 1 3.16 3.71c-.628 3.622-3.469 6.53-7.068 7.241a9.102 9.102 0 0 1-1.749.171zm-.777-16.778c-.251 0-.503.022-.75.067a7.873 7.873 0 0 0-5.042 3.364 7.876 7.876 0 0 0-1.191 5.951 7.874 7.874 0 0 0 3.365 5.051 7.879 7.879 0 0 0 5.952 1.192c3.197-.632 5.719-3.215 6.277-6.427a2.205 2.205 0 0 0-1.823-2.517 2.792 2.792 0 0 0-.379-.027h-.006a2.173 2.173 0 0 1-2.17-2.169c.121-2.36-1.681-4.358-4.015-4.479a4.02 4.02 0 0 0-.218-.006z" fill="#45413c"/><circle cx="17.795" cy="25.476" r="3.37" fill="#ffaa54"/><path d="M17.795 24.106a3.35 3.35 0 0 1 3.18 2.37c.107-.323.165-.66.17-1a3.37 3.37 0 0 0-6.74 0c.005.34.063.677.17 1a3.36 3.36 0 0 1 3.22-2.37z" fill="#fc9"/><path d="M17.795 29.346c-2.134 0-3.87-1.736-3.87-3.87s1.736-3.87 3.87-3.87 3.87 1.736 3.87 3.87-1.737 3.87-3.87 3.87zm0-6.74c-1.583 0-2.87 1.287-2.87 2.87s1.288 2.87 2.87 2.87 2.87-1.287 2.87-2.87-1.288-2.87-2.87-2.87z" fill="#45413c"/></svg>