<svg xmlns="http://www.w3.org/2000/svg" viewBox="0 0 46 46" width="512" height="512"><ellipse cx="23" cy="44.5" rx="10" ry="1.5" opacity=".15" fill="#45413c"/><path d="M21.2 28.67c1.08 4.32.72 11.58.72 11.58a.71.71 0 0 1-.67.71c-3 .2-5.26.9-5.72 1.78a.34.34 0 0 0 .152.456l.008.004c.71.36 2.95 1.3 7.31 1.3s6.6-.94 7.31-1.3a.34.34 0 0 0 .164-.452l-.004-.008c-.46-.88-2.75-1.58-5.72-1.78a.71.71 0 0 1-.67-.71s-.36-7.26.72-11.58h-3.6z" fill="#00b8f0"/><path d="M23 45c-4.388 0-6.732-.946-7.536-1.354a.843.843 0 0 1-.382-1.13c.828-1.583 4.904-1.974 6.134-2.056a.212.212 0 0 0 .203-.21c.004-.098.344-7.262-.705-11.46a.497.497 0 0 1 .485-.621H24.8a.503.503 0 0 1 .486.621c-1.05 4.2-.71 11.362-.707 11.435.001.137.088.229.199.235 1.235.083 5.313.476 6.136 2.048.209.446.027.947-.391 1.144C29.732 44.054 27.388 45 23 45zm-6.923-2.168C16.958 43.242 19.108 44 23 44c3.91 0 6.063-.765 6.927-1.17-.501-.544-2.394-1.182-5.211-1.371a1.21 1.21 0 0 1-1.137-1.209c-.014-.262-.319-6.716.594-11.08h-2.347c.913 4.364.607 10.819.593 11.104.001.617-.5 1.148-1.141 1.185-3.117.208-4.741.889-5.201 1.373zm14.007-.078l-.006.003a.016.016 0 0 0 .006-.003zm-14.178-.005s0 .001 0 0c0 .001 0 0 0 0z" fill="#45413c"/><path d="M16.16 1.94C16.88.86 19.22.5 23 .5s6.12.36 6.84 1.44c1.59 1.83 3.59 15 3.59 17.6 0 5.76-4.67 10.43-10.43 10.43S12.57 25.3 12.57 19.54c0-2.62 2-15.77 3.59-17.6z" fill="#00b8f0"/><path d="M15.68 27c9.7-4.51 13.92-14 15.72-20.59a13.91 13.91 0 0 0-1.56-4.47C29.12.86 26.77.5 23 .5s-6.12.36-6.84 1.44c-1.59 1.83-3.59 15-3.59 17.6A10.39 10.39 0 0 0 15.68 27z" fill="#4acfff"/><path d="M23 3.38c3.77 0 6.84-.65 6.84-1.44C29.12.86 26.77.5 23 .5s-6.12.36-6.84 1.44c0 .79 3.07 1.44 6.84 1.44z" fill="#00b8f0"/><path d="M23 30.47c-6.027 0-10.93-4.903-10.93-10.93 0-2.301 1.888-15.739 3.691-17.903C16.562.475 18.665 0 23 0c4.367 0 6.468.482 7.255 1.663C32.027 3.694 33.93 17.23 33.93 19.54c0 6.026-4.903 10.93-10.93 10.93zM23 1c-2.409 0-5.697.126-6.424 1.217a.383.383 0 0 1-.039.051C15.098 3.924 13.07 16.84 13.07 19.54c0 5.476 4.455 9.93 9.93 9.93s9.93-4.454 9.93-9.93c0-2.701-2.028-15.616-3.468-17.272C28.696 1.126 25.41 1 23 1zm-6.84.94h.01-.01z" fill="#45413c"/><path d="M23 3.88c-.751 0-7.34-.054-7.34-1.94a.5.5 0 0 1 1 0c.208.266 2.367.94 6.34.94 3.972 0 6.132-.674 6.357-1.017 0-.276.215-.461.491-.461s.491.262.491.539c0 1.885-6.588 1.939-7.339 1.939z" fill="#45413c"/><g><path d="M15.45 21s.71-2.88 4.67-2.88 5 2.88 5 2.88h-9.67z" fill="#e04122"/><path d="M31.63 19.54a8.63 8.63 0 0 1-17.26 0 14.111 14.111 0 0 0 5 1.44c2.16 0 5-2.88 7.2-2.88 1.762.159 3.478.647 5.06 1.44z" fill="#e04122"/><path d="M17.39 26.1A26.116 26.116 0 0 0 26 18.17c-2 .41-4.62 2.83-6.6 2.83a14.111 14.111 0 0 1-5-1.44 8.61 8.61 0 0 0 2.99 6.54z" fill="#ff6242"/></g><g fill="#e5f8ff"><circle cx="18.68" cy="7.31" r="1.44"/><circle cx="16.52" cy="9.47" r=".72"/></g></svg>