<svg xmlns="http://www.w3.org/2000/svg" viewBox="0 0 44.483 44.483" width="512" height="512"><path d="M11.534 24.09l5.67-7a19.539 19.539 0 0 0-8.5-.24c-3.12.77-3.61 6.66-3.66 9.45a.87.87 0 0 0 1.31.77l5.18-2.98z" fill="#ff6242"/><path d="M8.724 19.51a18.19 18.19 0 0 1 6.62-.13l1.86-2.28a19.539 19.539 0 0 0-8.5-.24c-3.12.76-3.61 6.65-3.66 9.44a.844.844 0 0 0 .14.48c.3-2.94 1.09-6.66 3.54-7.27z" fill="#ff866e"/><path d="M5.911 27.69h-.025a1.373 1.373 0 0 1-1.341-1.4c.061-3.348.666-9.092 4.041-9.924a20.186 20.186 0 0 1 8.742.24.5.5 0 0 1 .266.8l-5.67 7a.511.511 0 0 1-.139.119l-5.18 2.98a1.4 1.4 0 0 1-.694.185zm6.498-10.693c-1.212 0-2.424.114-3.609.344-2.882.711-3.221 7.044-3.255 8.968a.371.371 0 0 0 .362.381c.056-.008.137-.017.197-.051l5.102-2.936 5.107-6.306a19.23 19.23 0 0 0-3.904-.4zm-.875 7.093h.01-.01z" fill="#45413c"/><path d="M18.344 30.91l7-5.67c.702 2.778.784 5.677.24 8.49-.73 3.12-6.58 3.61-9.41 3.66a.87.87 0 0 1-.77-1.31l2.94-5.17z" fill="#ff6242"/><path d="M22.894 33.72c.454-2.183.498-4.431.13-6.63l2.28-1.85c.702 2.778.784 5.677.24 8.49-.73 3.12-6.58 3.61-9.41 3.66a.87.87 0 0 1-.48-.14c2.94-.26 6.66-1.09 7.24-3.53z" fill="#ff866e"/><path d="M16.153 37.89a1.372 1.372 0 0 1-1.179-2.065l2.936-5.162a.483.483 0 0 1 .12-.142l7-5.67a.5.5 0 0 1 .799.267 20.14 20.14 0 0 1 .247 8.706c-.796 3.402-6.54 4.006-9.893 4.065l-.03.001zm2.58-6.651l-2.894 5.088a.366.366 0 0 0-.054.202c.005.203.202.385.378.36 1.926-.034 8.254-.37 8.934-3.274a19.095 19.095 0 0 0-.061-7.482l-6.303 5.106z" fill="#45413c"/><path d="M36.964 19.07c5.42-5.7 3.71-12.73 2.86-15.2a2.002 2.002 0 0 0-.48-.78 2.138 2.138 0 0 0-.77-.48c-2.47-.85-9.51-2.56-15.21 2.9-7.04 6.66-11.88 18.5-11.88 18.5l7 7s11.78-4.9 18.48-11.94z" fill="#e8f4fa"/><path d="M25.534 9.38c5.53-5.27 12.31-3.8 15-2.94a17.243 17.243 0 0 0-.66-2.57 2.001 2.001 0 0 0-1.3-1.26c-2.47-.85-9.51-2.56-15.21 2.9-7.04 6.66-11.88 18.5-11.88 18.5l2.69 2.69c1.43-3.19 5.68-11.92 11.36-17.32z" fill="#fff"/><path d="M18.484 31.51a.504.504 0 0 1-.354-.146l-7-7a.498.498 0 0 1-.109-.543c.049-.119 4.962-12.017 11.999-18.674 5.837-5.59 12.934-3.967 15.717-3.009.363.13.683.329.956.594.278.281.485.618.605.982.955 2.771 2.58 9.862-2.972 15.701-6.695 7.035-18.532 12.007-18.651 12.057a.504.504 0 0 1-.191.038zm-6.408-7.615l6.522 6.522c1.889-.825 12.052-5.438 18.004-11.692 5.174-5.441 3.646-12.087 2.749-14.693a1.514 1.514 0 0 0-.361-.59 1.634 1.634 0 0 0-.584-.362C35.803 2.184 29.15.66 23.71 5.87c-6.257 5.921-10.822 16.134-11.634 18.025zm24.889-4.825h.01-.01z" fill="#45413c"/><ellipse cx="25.704" cy="41.72" rx="10" ry="1.5" opacity=".15" fill="#45413c"/><path d="M20.184 23.16a.68.68 0 0 0-.92-.93 22.13 22.13 0 0 0-5.31 3.8 17.84 17.84 0 0 0-3.87 5.86.34.34 0 0 0 .44.45 17.84 17.84 0 0 0 5.86-3.83 21.897 21.897 0 0 0 3.8-5.35z" fill="#ff6242"/><path d="M10.397 32.864a.839.839 0 0 1-.772-1.172 18.23 18.23 0 0 1 3.975-6.015 22.67 22.67 0 0 1 5.437-3.894c.348-.191.778-.19 1.137.015a1.18 1.18 0 0 1 .453 1.596 22.404 22.404 0 0 1-3.882 5.463 18.253 18.253 0 0 1-6.034 3.946.81.81 0 0 1-.314.061zm.153-.791a.017.017 0 0 1-.002.005l.002-.005zm9.042-9.427c-.03 0-.06.007-.087.022a21.611 21.611 0 0 0-5.203 3.722 17.212 17.212 0 0 0-3.608 5.339 17.248 17.248 0 0 0 5.34-3.575 21.363 21.363 0 0 0 3.704-5.219l.011-.021c.042-.073.006-.203-.068-.245a.176.176 0 0 0-.089-.023z" fill="#45413c"/><circle cx="31.214" cy="11.23" r="5.49" fill="#c0dceb"/><path d="M31.215 17.22a5.997 5.997 0 0 1-5.99-5.99c0-3.303 2.688-5.99 5.99-5.99s5.99 2.687 5.99 5.99a5.997 5.997 0 0 1-5.99 5.99zm0-10.98c-2.752 0-4.99 2.239-4.99 4.99s2.238 4.99 4.99 4.99 4.99-2.238 4.99-4.99-2.238-4.99-4.99-4.99z" fill="#45413c"/><circle cx="31.244" cy="11.2" r="3.8" fill="#00b8f0"/><path d="M28.554 8.51a3.8 3.8 0 0 0-.006 5.374l.006.006c.254.244.54.452.85.62l3.55-6.69a3.77 3.77 0 0 0-4.4.69z" fill="#4acfff"/><path d="M31.244 15.5c-2.371 0-4.3-1.929-4.3-4.3s1.929-4.3 4.3-4.3 4.301 1.929 4.301 4.3-1.93 4.3-4.301 4.3zm0-7.6c-1.819 0-3.3 1.48-3.3 3.3 0 1.82 1.48 3.3 3.3 3.3 1.82 0 3.301-1.48 3.301-3.3 0-1.82-1.481-3.3-3.301-3.3z" fill="#45413c"/><path d="M8.824 38.98c-.7.7-5.16 2.21-7.42 2.94-.42.14-1-.47-.89-.89.73-2.25 2.24-6.71 3-7.42.95-1 3.43-1 4.91.46s1.35 3.96.4 4.91z" fill="#ff8a14"/><path d="M1.276 42.441c-.28 0-.574-.125-.825-.359-.283-.265-.542-.713-.42-1.178 1.461-4.505 2.516-7.073 3.143-7.659.48-.508 1.313-.819 2.264-.835 1.25 0 2.491.468 3.339 1.306.799.787 1.259 1.933 1.263 3.141.003 1.01-.318 1.936-.86 2.478-.732.732-4.548 2.069-7.62 3.063a.983.983 0 0 1-.284.043zm4.236-9.032h-.059c-.673.011-1.263.215-1.576.545-.387.362-1.332 2.436-2.887 7.23.014.051.193.245.288.256 4.774-1.548 6.863-2.484 7.193-2.814.353-.353.57-1.029.567-1.767-.003-.944-.354-1.831-.965-2.434-.647-.638-1.601-1.016-2.561-1.016z" fill="#45413c"/><path d="M7.614 37.3c-.5.49-2.57 1-3 .56s.07-2.54.57-3a1.57 1.57 0 0 1 2.13.34 1.56 1.56 0 0 1 .3 2.1z" fill="#ffe500"/><path d="M5.252 38.527h-.031c-.444-.005-.759-.109-.964-.318-.217-.223-.317-.575-.304-1.077.022-.88.395-2.181.893-2.64.947-.651 2.153-.473 2.829.357.793.681.95 1.87.352 2.734a.536.536 0 0 1-.061.073c-.507.496-1.863.871-2.714.871zm.816-3.44a1.07 1.07 0 0 0-.602.186c-.273.26-.656 1.92-.474 2.263.288.13 1.831-.227 2.24-.563A1.065 1.065 0 0 0 7 35.59a.502.502 0 0 1-.082-.084 1.069 1.069 0 0 0-.85-.419zM7.615 37.3h.01-.01z" fill="#45413c"/><path d="M40.804 21.2l.8 1.51a.421.421 0 0 0 .32.22l1.69.2a.42.42 0 0 1 .25.71l-1.19 1.22a.391.391 0 0 0-.11.37l.33 1.67a.42.42 0 0 1-.59.46l-1.53-.76a.438.438 0 0 0-.39 0l-1.49.84a.43.43 0 0 1-.62-.43l.21-1.7a.41.41 0 0 0-.13-.36l-1.21-1.14a.42.42 0 0 1 .21-.72l1.68-.29a.41.41 0 0 0 .31-.23l.72-1.55a.41.41 0 0 1 .74-.02z" fill="#ffe500"/><path d="M38.014 24.82l1.06-.19a.398.398 0 0 0 .31-.23l.72-1.55a.42.42 0 0 1 .75 0l.79 1.51a.421.421 0 0 0 .32.22l1.07.13.83-.85a.42.42 0 0 0-.25-.71l-1.69-.2a.421.421 0 0 1-.32-.22l-.8-1.51a.41.41 0 0 0-.74 0l-.72 1.55a.41.41 0 0 1-.31.23l-1.68.29a.42.42 0 0 0-.21.72l.87.81z" fill="#fff48c"/><path d="M38.697 28.185a.921.921 0 0 1-.827-.514.941.941 0 0 1-.093-.515l.211-1.708-1.187-1.074a.911.911 0 0 1-.29-.64.914.914 0 0 1 .75-.935l1.688-.292.662-1.498a.9.9 0 0 1 .501-.473.91.91 0 0 1 1.135.432l.798 1.508 1.627.158a.92.92 0 0 1 .548 1.556l-1.157 1.187.321 1.626a.918.918 0 0 1-1.295 1.008l-1.538-.763-1.412.827a.954.954 0 0 1-.442.11zm-1.095-4.43l1.095 1.03a.908.908 0 0 1 .282.793l-.19 1.547 1.351-.761a.945.945 0 0 1 .855-.013l1.377.684-.298-1.509a.886.886 0 0 1 .254-.827l1.064-1.092-1.526-.182a.921.921 0 0 1-.703-.48l-.719-1.357-.646 1.393a.91.91 0 0 1-.689.514l-1.507.26zm5.433 1.651l-.002.002.002-.002zm.017-.089l.001.007-.001-.007zm-5.567-1.673zm6.069-.018h.01-.01zm-3.033-2.204l-.001.003.001-.003z" fill="#45413c"/><path d="M29.224 38.1l.26 1.35a.348.348 0 0 0 .2.24l1.27.54a.34.34 0 0 1 0 .6l-1.2.68a.32.32 0 0 0-.17.26l-.1 1.37a.34.34 0 0 1-.57.22l-1-.93c-.077-.08-.193-.111-.3-.08l-1.34.3a.34.34 0 0 1-.38-.47l.59-1.25a.312.312 0 0 0 0-.31l-.7-1.18a.34.34 0 0 1 .33-.51l1.36.16a.381.381 0 0 0 .3-.11l.9-1a.34.34 0 0 1 .55.12z" fill="#ffe500"/><path d="M26.244 40.26l.86.1a.348.348 0 0 0 .3-.11l.9-1a.34.34 0 0 1 .59.15l.27 1.35a.31.31 0 0 0 .19.24l.8.34.84-.47a.34.34 0 0 0 0-.6l-1.27-.54a.348.348 0 0 1-.2-.24l-.27-1.35a.34.34 0 0 0-.58-.16l-.9 1a.381.381 0 0 1-.3.11l-1.36-.16a.34.34 0 0 0-.33.51l.46.83z" fill="#fff48c"/><path d="M29.147 43.95a.847.847 0 0 1-.576-.228l-.933-.867-1.255.282a.84.84 0 0 1-.947-1.159L26 40.784l-.646-1.09a.834.834 0 0 1 .3-1.152.847.847 0 0 1 .514-.11l1.289.151.847-.939c.362-.346.896-.332 1.214.003a.849.849 0 0 1 .173.271c.011.028.02.058.025.087l.241 1.257 1.193.508c.448.238.603.748.386 1.155a.853.853 0 0 1-.34.344l-1.12.634-.093 1.273a.835.835 0 0 1-.297.577.827.827 0 0 1-.539.197zm.107-.959l.002.002-.002-.002zm-1.5-.161l-.025.005.025-.005zm-.18-.034l.009.008-.009-.008zm.125-.962c.204 0 .417.086.573.246l.738.686.075-1.032a.816.816 0 0 1 .435-.665l.915-.519-.946-.4a.853.853 0 0 1-.491-.583l-.19-.989-.662.737a.88.88 0 0 1-.71.273l-1.056-.123.534.9a.81.81 0 0 1 .003.815l-.428.908 1.016-.228a.782.782 0 0 1 .194-.026zm-1.352.559zm3.66-.451l-.006.004c.002-.003.004-.004.006-.004zm.077-.137zm-4.052-1.088l-.005.009.005-.009zm3.943-1.361h.01-.01z" fill="#45413c"/><path d="M9.344 4.51a3.059 3.059 0 1 1-6.064-.824 3.06 3.06 0 0 1 3.444-2.62l.03.004a3.06 3.06 0 0 1 2.59 3.44z" fill="#9ceb60"/><path d="M6.754 3.25a3.06 3.06 0 0 1 2.41 2 2.86 2.86 0 0 0 .18-.74 3.06 3.06 0 0 0-6.06-.85 3.23 3.23 0 0 0 .2 1.52 3.08 3.08 0 0 1 3.27-1.93z" fill="#c8ffa1"/><path d="M6.32 7.658a3.535 3.535 0 0 1-2.841-1.405 3.54 3.54 0 0 1-.695-2.635A3.57 3.57 0 0 1 6.792.57c1.958.286 3.31 2.082 3.048 4.007a3.536 3.536 0 0 1-1.372 2.354 3.535 3.535 0 0 1-2.148.727zm.004-6.118a2.563 2.563 0 0 0-2.548 2.213 2.54 2.54 0 0 0 .499 1.895 2.539 2.539 0 0 0 1.693.986 2.537 2.537 0 0 0 1.895-.499 2.542 2.542 0 0 0 .986-1.693 2.569 2.569 0 0 0-2.167-2.878 2.725 2.725 0 0 0-.358-.024z" fill="#45413c"/><path d="M1.678 7.956c-.3 0-.514-.11-.641-.363-.441-.882.259-1.987 2.025-3.195a.5.5 0 0 1 .565.825c-1.041.712-1.593 1.335-1.698 1.701 1.604-.378 7.92-4.138 9.066-5.394-.276-.016-.947.075-2.416.771a.499.499 0 1 1-.429-.902C9.769.631 10.867.378 11.509.625a.998.998 0 0 1 .578.555c.646 1.568-8.505 6.157-8.6 6.199-.776.353-1.38.577-1.809.577zm.253-.81h.01-.01z" fill="#45413c"/></svg>