<svg xmlns="http://www.w3.org/2000/svg" viewBox="0 0 46.292 46.292" width="512" height="512"><path d="M18.188 7.152a7.458 7.458 0 0 0 4.9 5 7.49 7.49 0 0 0-2.78-11.55 1 1 0 0 0-1.31.4 7.477 7.477 0 0 0-.81 6.15z" fill="#9ceb60"/><path d="M18.998 3.502a1 1 0 0 1 1.31-.4 7.508 7.508 0 0 1 4.1 4.66c.089.295.159.596.21.9a7.449 7.449 0 0 0-4.31-8.06 1 1 0 0 0-1.31.4 7.518 7.518 0 0 0-1 5.23 7.794 7.794 0 0 1 1-2.73z" fill="#c8ffa1"/><path d="M23.087 12.652a.522.522 0 0 1-.151-.023 7.954 7.954 0 0 1-5.228-5.333 7.98 7.98 0 0 1 .865-6.559 1.502 1.502 0 0 1 1.955-.584c.618.275 1.214.64 1.754 1.077 3.427 2.769 3.962 7.809 1.193 11.237a.496.496 0 0 1-.388.185zm-3.222-11.65a.498.498 0 0 0-.434.249 6.99 6.99 0 0 0-.766 5.755l.001.004a6.955 6.955 0 0 0 4.243 4.552c2.18-2.987 1.652-7.206-1.255-9.554a7.025 7.025 0 0 0-1.551-.95.542.542 0 0 0-.238-.056z" fill="#45413c"/><path d="M29.968 10.952a7.469 7.469 0 0 1-6.88 1.16 7.49 7.49 0 0 1 9-7.71 1 1 0 0 1 .82 1.09 7.483 7.483 0 0 1-2.94 5.46z" fill="#9ceb60"/><path d="M26.028 8.292a7.53 7.53 0 0 1 6-1.38.999.999 0 0 1 .58.28c.17-.553.277-1.123.32-1.7a1 1 0 0 0-.83-1.09 7.49 7.49 0 0 0-9 7.71c.1 0 .19 0 .29.08a7.456 7.456 0 0 1 2.64-3.9z" fill="#c8ffa1"/><path d="M25.43 12.989a7.973 7.973 0 0 1-2.5-.402.5.5 0 0 1-.343-.45c-.107-2.131.623-4.177 2.054-5.76s3.394-2.514 5.525-2.621a8.015 8.015 0 0 1 2.021.156 1.5 1.5 0 0 1 1.216 1.633 7.958 7.958 0 0 1-3.135 5.804 7.945 7.945 0 0 1-4.838 1.64zm-1.852-1.251a6.96 6.96 0 0 0 6.086-1.183l.002-.001a6.973 6.973 0 0 0 2.743-5.095.505.505 0 0 0-.408-.564 6.996 6.996 0 0 0-1.782-.139 6.952 6.952 0 0 0-4.835 2.292 6.938 6.938 0 0 0-1.806 4.69z" fill="#45413c"/><ellipse cx="22.608" cy="44.792" rx="11.5" ry="1.5" opacity=".15" fill="#45413c"/><path d="M32.128 10.682a13.539 13.539 0 0 0-9 1.43 13.43 13.43 0 0 0-7.57-1.62c-8 .62-13.59 8.35-12.18 16.28 2 11.2 15.38 16.76 18.57 17.94.439.159.921.159 1.36 0 3.54-1.29 19.66-7.86 19.82-20.58a13.351 13.351 0 0 0-11-13.45z" fill="#ff866e"/><path fill="#ffa694" d="M30.708 24.492v-.01.01zM32.128 10.682a13.539 13.539 0 0 0-9 1.43 13.43 13.43 0 0 0-7.57-1.62c-7.95.61-13.43 8.08-12.29 15.85 1.148-7.356 8.042-12.388 15.397-11.24a13.48 13.48 0 0 1 4.423 1.51c2.15 1.23 4.52 2.68 7.62 7.87 0-.5-.06-1-.12-1.53a14.001 14.001 0 0 0-3.44-7.78 13.104 13.104 0 0 1 2.46-.23 13.5 13.5 0 0 1 13.29 11.35c.119-.717.183-1.443.19-2.17a13.35 13.35 0 0 0-10.96-13.44z"/><path d="M22.628 45.331c-.288 0-.576-.05-.85-.149-3.926-1.451-16.881-7.06-18.892-18.321a14.655 14.655 0 0 1 2.841-11.518c2.438-3.149 5.916-5.049 9.792-5.35a13.88 13.88 0 0 1 7.609 1.551 14.067 14.067 0 0 1 9.089-1.354c6.771 1.209 11.569 7.077 11.41 13.953-.165 13.095-16.813 19.822-20.148 21.038-.275.1-.563.15-.851.15zM16.66 10.947c-.353 0-.707.014-1.062.043-3.594.278-6.818 2.042-9.081 4.964A13.656 13.656 0 0 0 3.87 26.683c1.967 11.015 15.549 16.559 18.251 17.559.325.117.687.117 1.016-.001 3.227-1.177 19.334-7.674 19.49-20.116.147-6.385-4.305-11.83-10.588-12.952l-.004-.001a13.08 13.08 0 0 0-8.668 1.377.496.496 0 0 1-.481 0 12.898 12.898 0 0 0-6.226-1.602z" fill="#45413c"/><path d="M26.108 38.952a.5.5 0 0 1-.404-.794 21.77 21.77 0 0 0 1.466-2.308.501.501 0 0 1 .877.483 22.873 22.873 0 0 1-1.534 2.413.5.5 0 0 1-.405.206zM28.677 34.452a.5.5 0 0 1-.452-.714A20.507 20.507 0 0 0 30.11 23a13.033 13.033 0 0 0-7.244-10.439.498.498 0 1 1 .442-.896 14.028 14.028 0 0 1 7.796 11.238 21.5 21.5 0 0 1-1.976 11.264.497.497 0 0 1-.451.285z" fill="#45413c"/></svg>