<svg xmlns="http://www.w3.org/2000/svg" viewBox="0 0 43.101 43.101" width="512" height="512"><ellipse cx="22.307" cy="41.121" rx="15.16" ry="1.98" opacity=".15" fill="#45413c"/><path d="M37.237 40.161a3.271 3.271 0 0 0 .92-2.81 3.331 3.331 0 0 0 2.81-.92 3.3 3.3 0 0 0-4.66-4.66c-.16.16-8.86-7.93-8.86-7.93l-2.83 2.8s8.08 8.7 7.92 8.86a3.3 3.3 0 1 0 4.66 4.66h.04z" fill="#fff"/><path d="M38.907 34.411a3.73 3.73 0 0 1-6.29 3.19 3.522 3.522 0 0 1-.71-1 3.289 3.289 0 1 0 6.29.78 3.331 3.331 0 0 0 2.81-.92 3.26 3.26 0 0 0 .91-2.89 3.761 3.761 0 0 1-3.01.84z" fill="#f0f0f0"/><path d="M34.745 41.758a3.776 3.776 0 0 1-2.833-1.264 3.773 3.773 0 0 1-.966-2.743 3.776 3.776 0 0 1 .951-2.315c-.957-1.191-5.042-5.651-7.646-8.455a.498.498 0 0 1 .015-.695l2.83-2.801a.503.503 0 0 1 .692-.011c2.829 2.632 7.349 6.776 8.488 7.683a3.794 3.794 0 0 1 4.771.242 3.776 3.776 0 0 1 1.258 2.622 3.776 3.776 0 0 1-.966 2.744 3.88 3.88 0 0 1-2.645 1.119 3.783 3.783 0 0 1-1.104 2.63.538.538 0 0 1-.125.092 3.763 3.763 0 0 1-2.72 1.152zm-9.431-15.102c8.076 8.699 8.016 8.761 7.577 9.198a2.799 2.799 0 0 0-.946 1.951 2.779 2.779 0 0 0 .711 2.021c.5.558 1.186.887 1.933.927a2.786 2.786 0 0 0 2.238-.928.505.505 0 0 1 .146-.111 2.78 2.78 0 0 0 .69-2.287.499.499 0 0 1 .566-.572 2.84 2.84 0 0 0 2.388-.781c.478-.534.73-1.253.689-1.999a2.777 2.777 0 0 0-.927-1.933 2.797 2.797 0 0 0-3.738 0c-.421.42-.479.482-9.183-7.61l-2.144 2.124zm11.924 13.505h.01-.01z" fill="#45413c"/><path d="M24.327 5.801l11.36 11.37a6.839 6.839 0 0 1 2.07 4.61c.08 2.4-.89 5.86-5.1 10.07-7.11 7.11-12 4.8-14.06 2.71-2.83-2.82-2.72-3.87-4.61-5.75s-2.81-.71-7.37-5.29l17.71-17.72z" fill="#bf8256"/><path d="M20.867 32.171c-3.25-3.26-3.25-4.38-5.41-6.56-1.84-1.88-2.84-1.26-6.46-4.51l-2.38 2.42c4.56 4.56 5.49 3.4 7.37 5.29s1.78 2.93 4.61 5.75c1.77 1.78 5.56 3.72 11-.13a8.47 8.47 0 0 1-8.73-2.26z" fill="#915e3a"/><path d="M23.578 37.158h-.029c-2.703-.01-4.486-1.411-5.308-2.246-1.589-1.583-2.277-2.631-2.884-3.555-.487-.741-.908-1.382-1.722-2.191-.673-.669-1.186-.903-1.895-1.229-1.171-.536-2.629-1.203-5.477-4.063a.5.5 0 0 1 .001-.706l17.71-17.72a.504.504 0 0 1 .708 0l11.359 11.37a7.307 7.307 0 0 1 2.217 4.941c.076 2.298-.771 5.971-5.246 10.446-3.288 3.286-6.462 4.953-9.434 4.953zM7.326 23.519c2.486 2.437 3.781 3.028 4.83 3.509.743.34 1.385.634 2.184 1.429.888.883 1.356 1.597 1.853 2.352.581.884 1.238 1.885 2.757 3.398.716.728 2.263 1.942 4.603 1.951h.025c2.697 0 5.633-1.567 8.726-4.66 4.221-4.221 5.023-7.604 4.953-9.7a6.31 6.31 0 0 0-1.918-4.268L24.328 6.508 7.326 23.519z" fill="#45413c"/><ellipse transform="rotate(-45.001 15.463 14.663)" cx="15.463" cy="14.663" rx="12.52" ry="8.1" fill="#dea47a"/><path d="M21.197 17.511c-4.89 4.89-11.42 6.29-14.58 3.12a5.788 5.788 0 0 1-1.58-3.13 6.797 6.797 0 0 0 1.58 6c3.16 3.16 9.69 1.76 14.58-3.13 3.6-3.6 5.3-8.08 4.69-11.46a16.104 16.104 0 0 1-4.69 8.6z" fill="#bf8256"/><path d="M11.118 25.693c-1.919 0-3.627-.59-4.861-1.823-3.353-3.353-1.951-10.212 3.125-15.288 2.432-2.432 5.339-4.107 8.187-4.718 2.925-.627 5.448-.062 7.101 1.593 3.353 3.353 1.951 10.211-3.125 15.288-3.209 3.208-7.13 4.948-10.427 4.948zM10.089 9.289C5.402 13.976 4 20.199 6.964 23.163c2.964 2.964 9.188 1.562 13.874-3.125s6.088-10.911 3.125-13.874c-1.405-1.406-3.601-1.876-6.185-1.322-2.661.57-5.392 2.149-7.689 4.447z" fill="#45413c"/><path d="M6.767.901a3.311 3.311 0 0 0-1.68 3.38 3.311 3.311 0 0 0-3.38 1.68c-.56.99-.56 2.2 0 3.19a3.29 3.29 0 0 0 5.2.71c.12-.12 3.87 3.24 5.83 5a1.65 1.65 0 0 0 2.28-.07l.56-.56a1.65 1.65 0 0 0 .07-2.28c-1.77-2-5.12-5.71-5-5.83a3.29 3.29 0 0 0-.71-5.2 3.241 3.241 0 0 0-3.17-.02z" fill="#fff"/><g fill="#f0f0f0"><path d="M11.617 3.831c-.06.08-.11.16-.17.23-.06.07 0 .1.14.24.02-.156.03-.313.03-.47zM15.617 14.241a2 2 0 0 1-1.17-.55c-2.27-2.07-6.61-6-6.72-5.9-1.49 1.49-4.29 1-5.7-1.2a4.09 4.09 0 0 1-.31-.63c-.56.99-.56 2.2 0 3.19a3.29 3.29 0 0 0 5.2.71c.12-.12 3.87 3.24 5.83 5a1.65 1.65 0 0 0 2.28-.07l.59-.55z"/></g><path d="M13.842 15.786a2.148 2.148 0 0 1-1.439-.554c-2.952-2.65-4.775-4.244-5.436-4.752a3.796 3.796 0 0 1-5.696-1.085 3.759 3.759 0 0 1 .001-3.68 3.827 3.827 0 0 1 3.281-1.968A3.83 3.83 0 0 1 6.526.464a3.763 3.763 0 0 1 4.486.652 3.766 3.766 0 0 1 1.104 2.682 3.759 3.759 0 0 1-.848 2.381c.589.76 2.505 2.913 3.709 4.265l1.044 1.175c.769.854.729 2.16-.094 2.968l-.557.557a2.131 2.131 0 0 1-1.528.642zM6.859 9.331c.448 0 1.511.935 6.212 5.158a1.15 1.15 0 0 0 1.59-.048l.563-.563a1.148 1.148 0 0 0 .052-1.592l-1.045-1.176c-4.37-4.91-4.37-4.91-3.937-5.343.529-.526.82-1.227.822-1.972a2.777 2.777 0 0 0-1.424-2.439 2.762 2.762 0 0 0-2.683-.019h-.001a2.823 2.823 0 0 0-1.426 2.87.5.5 0 0 1-.141.426.489.489 0 0 1-.426.143 2.824 2.824 0 0 0-2.87 1.426 2.773 2.773 0 0 0 1.676 4.024 2.78 2.78 0 0 0 2.731-.717c.1-.1.178-.178.307-.178zM6.767.901h.01-.01z" fill="#45413c"/></svg>