<svg xmlns="http://www.w3.org/2000/svg" viewBox="0 0 46.5 46.5" width="512" height="512"><path d="M19.42 3.69a1.81 1.81 0 0 1 1.8 1.8v3.62h-2.25l-1.22-2.93a1.8 1.8 0 0 1 1.67-2.49z" fill="#ff87af"/><path d="M21.22 9.61h-2.25a.5.5 0 0 1-.461-.308l-1.22-2.93a2.283 2.283 0 0 1-.001-1.761 2.283 2.283 0 0 1 1.244-1.246c.283-.118.616-.185.891-.176h.001a2.319 2.319 0 0 1 2.297 2.297V9.11a.5.5 0 0 1-.501.5zm-1.916-1h1.417V5.49a1.315 1.315 0 0 0-1.303-1.3 1.295 1.295 0 0 0-1.205.804 1.29 1.29 0 0 0 0 .995l1.091 2.621z" fill="#45413c"/><path d="M25.72 3.69a1.8 1.8 0 0 1 1.67 2.49l-1.22 2.93h-2.25V5.49a1.81 1.81 0 0 1 1.8-1.8z" fill="#ff87af"/><path d="M26.17 9.61h-2.25a.5.5 0 0 1-.5-.5V5.49a2.319 2.319 0 0 1 2.297-2.3h.011c.61 0 1.186.237 1.619.667a2.3 2.3 0 0 1 .505 2.516l-1.22 2.931a.501.501 0 0 1-.462.306zm-1.75-1h1.417l1.091-2.623a1.297 1.297 0 0 0-1.201-1.797h-.005a1.315 1.315 0 0 0-1.302 1.303V8.61z" fill="#45413c"/><path d="M22.57 3.24a2.301 2.301 0 0 1 2.26 2.67l-.46 2.74h-3.6l-.46-2.74a2.3 2.3 0 0 1 2.26-2.67z" fill="#ff87af"/><path d="M24.37 9.15h-3.6a.5.5 0 0 1-.493-.417l-.46-2.74a2.805 2.805 0 0 1 2.751-3.253h.004a2.805 2.805 0 0 1 2.752 3.251l-.46 2.742a.501.501 0 0 1-.494.417zm-3.177-1h2.754l.39-2.323a1.802 1.802 0 0 0-1.768-2.087 1.801 1.801 0 0 0-1.766 2.089l.39 2.321z" fill="#45413c"/><path d="M10.79 24.48a4.309 4.309 0 0 0 0-1.64 4.51 4.51 0 0 0-8.81 1.89 9.16 9.16 0 0 0 7.11 7c8.78 2.14 8.1.91 8.1.91l-6.4-8.16z" fill="#6dd627"/><path d="M2.09 25.3a5.16 5.16 0 0 1 3.85-3.19 5.171 5.171 0 0 1 4.91 1.44 4.892 4.892 0 0 0-.09-.66 4.51 4.51 0 0 0-8.81 1.89c.04.14.09.33.14.52z" fill="#9ceb60"/><path d="M16.238 33.494c-1.109 0-3.202-.287-7.267-1.278a9.66 9.66 0 0 1-7.479-7.378c-.433-2.594 1.143-5.031 3.662-5.694a4.974 4.974 0 0 1 3.8.517 4.975 4.975 0 0 1 2.32 3.053c.109.559.123 1.1.046 1.632l6.264 7.986c.135.23.173.51-.017.759-.123.159-.309.403-1.329.403zm.507-.626h.01-.01zM6.435 19.976c-.342 0-.687.044-1.027.134a3.993 3.993 0 0 0-2.935 4.538A8.659 8.659 0 0 0 9.19 31.24c4.735 1.154 6.567 1.285 7.258 1.25l-6.051-7.701a.499.499 0 0 1-.097-.403c.093-.48.093-.969 0-1.45a3.973 3.973 0 0 0-1.85-2.411 3.988 3.988 0 0 0-2.015-.549z" fill="#45413c"/><path d="M39.7 15.87a4.69 4.69 0 0 0-5 4.33v.36l-3.06 7s1.87 1.74 5.71 1.15c4.28-.64 6.53-4.95 6.75-7.83a4.69 4.69 0 0 0-4.35-5.007l-.05-.003z" fill="#6dd627"/><path d="M39.1 18.56a5.66 5.66 0 0 1 4.83 3.15c0-.28.09-.55.11-.81a4.7 4.7 0 0 0-9.35-.93 5.93 5.93 0 0 1 4.41-1.41z" fill="#9ceb60"/><path d="M35.798 29.333c-2.947 0-4.428-1.341-4.499-1.407a.5.5 0 0 1-.117-.566l3.019-6.904V20.2c.212-2.876 2.701-5.02 5.534-4.829l.06.004a5.15 5.15 0 0 1 3.546 1.772 5.165 5.165 0 0 1 1.259 3.768c-.231 3.032-2.61 7.606-7.175 8.289-.585.09-1.127.129-1.627.129zm-3.543-1.932c.613.408 2.26 1.239 5.019.815 4.023-.603 6.122-4.675 6.327-7.374a4.155 4.155 0 0 0-1.017-3.039 4.162 4.162 0 0 0-2.869-1.432l-.015-.501-.034.499a4.19 4.19 0 0 0-4.467 3.868l.001.323a.509.509 0 0 1-.042.2l-2.903 6.641z" fill="#45413c"/><ellipse cx="22.57" cy="43.61" rx="11.5" ry="1.5" opacity=".15" fill="#45413c"/><path d="M22.57 7.74c-7.279.064-13.128 6.016-13.064 13.295l.004.225c0 5.06 2.22 11.64 3.69 15.42a10.002 10.002 0 1 0 18.74 0c1.47-3.78 3.69-10.36 3.69-15.42.188-7.277-5.558-13.328-12.835-13.516l-.225-.004z" fill="#6dd627"/><path d="M22.57 12.36a13.12 13.12 0 0 1 12.91 11.39c.098-.826.148-1.658.15-2.49.172-7.294-5.602-13.345-12.896-13.517l-.164-.003c-7.279.064-13.128 6.016-13.064 13.295l.004.225c.002.832.052 1.664.15 2.49a13.07 13.07 0 0 1 12.91-11.39z" fill="#9ceb60"/><path d="M22.582 43.687c-4.261 0-8.277-2.612-9.85-6.832-1.389-3.57-3.722-10.353-3.722-15.595l-.003-.222a13.593 13.593 0 0 1 3.921-9.707 13.592 13.592 0 0 1 9.638-4.091h.008l.235.004a13.594 13.594 0 0 1 9.566 4.255 13.586 13.586 0 0 1 3.756 9.774c0 5.228-2.333 12.011-3.724 15.588a10.493 10.493 0 0 1-9.825 6.826zM22.569 8.24a12.6 12.6 0 0 0-8.928 3.792 12.594 12.594 0 0 0-3.635 8.998l.003.218c0 5.091 2.291 11.739 3.656 15.25 1.832 4.914 7.314 7.42 12.223 5.59a9.49 9.49 0 0 0 5.583-5.583c1.368-3.518 3.658-10.167 3.658-15.245a12.604 12.604 0 0 0-3.48-9.072 12.6 12.6 0 0 0-8.867-3.944l-.213-.004z" fill="#45413c"/><path d="M22.57 30.27a2 2 0 0 1-2-1.79l-.21-2.68a.45.45 0 0 1 .408-.488l.042-.002h3.52a.45.45 0 0 1 .452.448l-.002.042-.21 2.68a2 2 0 0 1-2 1.79z" fill="#ff866e"/><path d="M22.558 30.77a2.49 2.49 0 0 1-2.485-2.237l-.211-2.693a.95.95 0 0 1 .861-1.025l3.607-.004h.004a.947.947 0 0 1 .948.946l-.214 2.763a2.496 2.496 0 0 1-2.487 2.251l-.023-.001zm.012-1h.012c.77 0 1.41-.576 1.492-1.343l.209-2.666-3.473.049.258 2.631c.08.754.72 1.329 1.49 1.329h.012z" fill="#45413c"/><g fill="#45413c"><circle cx="16.84" cy="20.36" r="1.35"/><path d="M16.84 22.21c-1.02 0-1.85-.83-1.85-1.85s.83-1.85 1.85-1.85 1.85.83 1.85 1.85-.83 1.85-1.85 1.85zm0-2.7a.851.851 0 0 0 0 1.7.85.85 0 0 0 0-1.7z"/></g><g fill="#45413c"><circle cx="28.3" cy="20.36" r="1.35"/><path d="M28.3 22.21c-1.02 0-1.85-.83-1.85-1.85s.83-1.85 1.85-1.85c1.021 0 1.851.83 1.851 1.85s-.831 1.85-1.851 1.85zm0-2.7a.85.85 0 1 0 .001 1.701.85.85 0 0 0-.001-1.701z"/></g><path d="M16.84 25.11c0 .54-.74 1-1.64 1s-1.63-.45-1.63-1 .73-1 1.64-1 1.63.48 1.63 1zM28.3 25.11c0 .54.74 1 1.64 1 .9 0 1.63-.45 1.63-1s-.73-1-1.64-1-1.63.48-1.63 1z" fill="#c8ffa1"/><path d="M21.72 3.9a.5.5 0 0 1-.475-.343l-.5-1.51a.5.5 0 0 1 .949-.315l.5 1.51a.5.5 0 0 1-.474.658zM23.42 3.9a.5.5 0 0 1-.474-.657l.5-1.51a.5.5 0 0 1 .949.315l-.5 1.51a.501.501 0 0 1-.475.342zM14.55 11.03a.5.5 0 0 1-.353-.145l-1.44-1.43a.5.5 0 0 1 .706-.71l1.44 1.43a.5.5 0 0 1-.353.855zM10.771 15.88a.517.517 0 0 1-.123-.015l-1.71-.43a.5.5 0 1 1 .244-.97l1.71.43a.5.5 0 0 1-.121.985zM30.31 10.83a.5.5 0 0 1-.399-.802l1.271-1.68a.499.499 0 1 1 .797.604l-1.271 1.68a.497.497 0 0 1-.398.198zM33.71 14.64a.5.5 0 0 1-.279-.915l1.47-.99a.5.5 0 1 1 .558.829l-1.47.99a.495.495 0 0 1-.279.086zM40.54 16.51a.5.5 0 0 1-.474-.657l.5-1.51a.5.5 0 0 1 .949.315l-.5 1.51a.501.501 0 0 1-.475.342zM44.05 21.06a.5.5 0 0 1-.159-.974l1.95-.65a.501.501 0 0 1 .317.948l-1.95.65a.484.484 0 0 1-.158.026zM43.74 27.62a.496.496 0 0 1-.354-.147l-1.51-1.521a.5.5 0 0 1 .709-.705l1.51 1.521a.5.5 0 0 1-.355.852zM36.99 31.22a.503.503 0 0 1-.475-.342l-.63-1.89a.502.502 0 0 1 .316-.633.502.502 0 0 1 .633.316l.63 1.89a.502.502 0 0 1-.474.659zM5.97 19.79a.501.501 0 0 1-.485-.379l-.52-2.09a.501.501 0 0 1 .971-.241l.52 2.09a.501.501 0 0 1-.486.62zM1.98 23.2a.494.494 0 0 1-.277-.084l-1.48-.99a.5.5 0 1 1 .555-.831l1.48.99a.5.5 0 0 1-.278.915zM3.2 31.22a.5.5 0 0 1-.354-.853l1.35-1.35a.5.5 0 0 1 .707.707l-1.35 1.35a.498.498 0 0 1-.353.146zM9.061 33.92a.501.501 0 0 1-.486-.62l.4-1.61a.499.499 0 1 1 .971.24l-.4 1.61a.5.5 0 0 1-.485.38zM11.76 37.53a.5.5 0 0 1-.161-.974l1.39-.47a.5.5 0 0 1 .321.947l-1.39.47a.498.498 0 0 1-.16.027zM34.28 35.72a.49.49 0 0 1-.276-.083l-1.45-.96a.501.501 0 0 1 .552-.834l1.45.96a.502.502 0 0 1-.276.917zM38.79 21.31a.5.5 0 0 1-.416-.777l.9-1.35a.5.5 0 0 1 .832.554l-.9 1.35a.5.5 0 0 1-.416.223zM38.34 24.91a.501.501 0 0 1-.159-.975l1.351-.449a.501.501 0 0 1 .317.949l-1.351.449a.489.489 0 0 1-.158.026zM7.7 26.71a.497.497 0 0 1-.223-.053l-1.8-.9a.5.5 0 0 1 .447-.895l1.8.9a.5.5 0 0 1-.224.948zM27.07 14.1a.499.499 0 0 1-.484-.624l.46-1.8a.5.5 0 1 1 .968.248l-.46 1.8a.498.498 0 0 1-.484.376zM18.97 13.65a.5.5 0 0 1-.474-.342l-.45-1.35a.5.5 0 1 1 .948-.316l.45 1.35a.5.5 0 0 1-.474.658zM29.78 33.92a.5.5 0 0 1-.277-.916l1.35-.9a.5.5 0 0 1 .554.832l-1.35.9a.492.492 0 0 1-.277.084zM16.259 33.47a.497.497 0 0 1-.277-.084l-1.35-.9a.5.5 0 1 1 .554-.832l1.35.9a.5.5 0 0 1-.277.916zM26.17 35.72a.501.501 0 0 1-.474-.658l.45-1.35a.501.501 0 0 1 .949.317l-.45 1.35a.504.504 0 0 1-.475.341z" fill="#45413c"/></svg>