<svg xmlns="http://www.w3.org/2000/svg" viewBox="0 0 45.25 45.25" width="512" height="512"><ellipse cx="22.625" cy="43.44" rx="15.09" ry="1.81" opacity=".15" fill="#45413c"/><path d="M33.485 6.53h-21.72l.35 5.72a7.26 7.26 0 0 0 3.68 5.86l1.84 1a2.83 2.83 0 0 1 0 4.93l-1.84 1a7.26 7.26 0 0 0-3.68 5.86l-.35 5.72h21.72l-.35-5.72a7.26 7.26 0 0 0-3.68-5.86l-1.84-1a2.83 2.83 0 0 1 0-4.93l1.84-1a7.26 7.26 0 0 0 3.68-5.86l.35-5.72z" fill="#80ddff"/><path d="M29.455 25.09l-1.83-1.04a2.83 2.83 0 0 1 0-4.93l1.84-1a7.26 7.26 0 0 0 3.67-5.87l.35-5.73h-7.54l-9.15 30.19h9.34l3.49-11.52-.17-.1z" fill="#b8ecff"/><path d="M33.485 37.12h-21.72a.5.5 0 0 1-.499-.53l.35-5.72a7.734 7.734 0 0 1 3.933-6.266l1.847-1.004a2.333 2.333 0 0 0-.007-4.055l-1.833-.996a7.738 7.738 0 0 1-3.94-6.268l-.35-5.721a.503.503 0 0 1 .499-.531h21.72a.5.5 0 0 1 .499.531l-.351 5.72a7.733 7.733 0 0 1-3.934 6.265l-1.846 1.004c-.364.205-.67.511-.879.881a2.334 2.334 0 0 0 .885 3.174l1.834.996a7.734 7.734 0 0 1 3.939 6.268l.351 5.722a.496.496 0 0 1-.498.53zm-21.188-1h20.657l-.318-5.189a6.734 6.734 0 0 0-3.426-5.455l-1.834-.996a3.337 3.337 0 0 1-1.271-4.541 3.345 3.345 0 0 1 1.265-1.264l1.848-1.004a6.732 6.732 0 0 0 3.419-5.452l.318-5.188H12.297l.317 5.189a6.735 6.735 0 0 0 3.426 5.455l1.833.996a3.336 3.336 0 0 1 1.271 4.541 3.334 3.334 0 0 1-1.265 1.265l-1.847 1.004a6.73 6.73 0 0 0-3.419 5.453l-.316 5.186z" fill="#45413c"/><path d="M11.155.5h22.93c.668 0 1.21.542 1.21 1.21v3.62a1.21 1.21 0 0 1-1.21 1.21h-22.93a1.21 1.21 0 0 1-1.21-1.21V1.71c0-.668.542-1.21 1.21-1.21z" fill="#debb7e"/><path d="M34.095.5h-22.94a1.21 1.21 0 0 0-1.21 1.2v2.55c0-.668.542-1.21 1.21-1.21h22.94c.668 0 1.21.542 1.21 1.21V1.7a1.21 1.21 0 0 0-1.21-1.2z" fill="#f0d5a8"/><path d="M34.085 7.04h-22.93c-.943 0-1.71-.767-1.71-1.71V1.71c0-.943.767-1.71 1.71-1.71h22.93c.943 0 1.71.767 1.71 1.71v3.62c0 .943-.767 1.71-1.71 1.71zM11.155 1a.71.71 0 0 0-.71.71v3.62c0 .392.318.71.71.71h22.93a.71.71 0 0 0 .71-.71V1.71a.71.71 0 0 0-.71-.71h-22.93z" fill="#45413c"/><path d="M11.155 36.71h22.93c.668 0 1.21.542 1.21 1.21v3.62a1.21 1.21 0 0 1-1.21 1.21h-22.93a1.21 1.21 0 0 1-1.21-1.21v-3.62c0-.668.542-1.21 1.21-1.21z" fill="#debb7e"/><path d="M34.095 36.71h-22.94a1.21 1.21 0 0 0-1.21 1.21v2.57a1.21 1.21 0 0 1 1.18-1.24H34.095c.668 0 1.21.542 1.21 1.21v-2.54a1.21 1.21 0 0 0-1.21-1.21z" fill="#f0d5a8"/><path d="M34.085 43.25h-22.93c-.943 0-1.71-.767-1.71-1.71v-3.62c0-.943.767-1.71 1.71-1.71h22.93c.943 0 1.71.767 1.71 1.71v3.62c0 .943-.767 1.71-1.71 1.71zm-22.93-6.04a.71.71 0 0 0-.71.71v3.62c0 .392.318.71.71.71h22.93a.71.71 0 0 0 .71-.71v-3.62a.71.71 0 0 0-.71-.71h-22.93z" fill="#45413c"/><path d="M33.065 30.38c-1-1-4-3.06-10.44-3.06s-9.52 2.38-10.49 3.41c.005.087.005.173 0 .26l-.35 5.72h21.7l-.35-5.72c-.02-.21-.04-.41-.07-.61z" fill="#f7e5c6"/><path d="M19.625 27.51l-2.78 9.2h9.34l2.61-8.61a21.902 21.902 0 0 0-6.17-.78 23.329 23.329 0 0 0-3 .19z" fill="#fff5e3"/><path d="M33.485 37.21h-21.7a.5.5 0 0 1-.499-.53l.35-5.72a2.246 2.246 0 0 0 0-.201.5.5 0 0 1 .135-.371c.788-.837 3.898-3.567 10.854-3.567 7.041 0 10.042 2.454 10.794 3.206a.505.505 0 0 1 .142.281c.03.209.052.417.072.637l.352 5.735a.496.496 0 0 1-.5.53zm-21.168-1h20.637l-.318-5.189c-.013-.131-.025-.266-.043-.401-.85-.787-3.646-2.799-9.968-2.799-6.193 0-9.082 2.223-9.987 3.111a2.531 2.531 0 0 1-.004.087l-.317 5.191z" fill="#45413c"/></svg>