<svg xmlns="http://www.w3.org/2000/svg" viewBox="0 0 43.35 43.35" width="512" height="512"><ellipse cx="21.67" cy="40.075" rx="18.03" ry="2.35" opacity=".15" fill="#45413c"/><path d="M26.52 4.935h-9.7c-9 0-16.32 6.66-16.32 15.68 0 10.03 8.17 18.81 18.17 18.81h6c10 0 18.18-8.78 18.18-18.81-.01-9.02-7.32-15.68-16.33-15.68z" fill="#ff6242"/><path d="M24.67 34.065h-6c-9.11 0-16.62-7.22-18-16a15.627 15.627 0 0 0-.23 2.6c.06 9.98 8.23 18.76 18.23 18.76h6c10 0 18.18-8.78 18.18-18.81a15.627 15.627 0 0 0-.23-2.6c-1.34 8.83-8.85 16.05-17.95 16.05z" fill="#e04122"/><path d="M24.67 39.924h-6C8.55 39.924 0 31.082 0 20.615c0-9.073 7.388-16.18 16.82-16.18h9.7c9.428 0 16.82 7.107 16.83 16.18 0 10.467-8.555 19.309-18.68 19.309zM16.82 5.435C7.949 5.435 1 12.103 1 20.615c0 9.925 8.092 18.31 17.67 18.31h6c9.583 0 17.68-8.385 17.68-18.31-.009-8.512-6.963-15.18-15.83-15.18h-9.7z" fill="#45413c"/><path d="M21.86 11.355a31.792 31.792 0 0 1 8.65 3.78.779.779 0 0 0 1.18-.8 9.329 9.329 0 0 0-2.94-5.6.76.76 0 0 1 .08-1.24 14.908 14.908 0 0 1 4.14-1.35.78.78 0 0 0 .21-1.46 10.352 10.352 0 0 0-6-1.22 7.999 7.999 0 0 0-4.91 2.37.8.8 0 0 1-1.16 0 8.003 8.003 0 0 0-4.93-2.41 10.352 10.352 0 0 0-6 1.22.78.78 0 0 0 .21 1.46c1.439.245 2.834.7 4.14 1.35a.76.76 0 0 1 .08 1.24 9.333 9.333 0 0 0-2.94 5.64.781.781 0 0 0 1.18.8 31.792 31.792 0 0 1 8.65-3.78.81.81 0 0 1 .36 0z" fill="#6dd627"/><path d="M10.37 6.145c.38.07.79.17 1.2.27a9.58 9.58 0 0 1 4.61-.6 7.999 7.999 0 0 1 4.91 2.37.8.8 0 0 0 1.16 0 7.999 7.999 0 0 1 4.91-2.37 9.58 9.58 0 0 1 4.61.6c.41-.1.82-.2 1.2-.27a.78.78 0 0 0 .21-1.46 10.352 10.352 0 0 0-6-1.22 7.999 7.999 0 0 0-4.91 2.37.8.8 0 0 1-1.16 0 8.003 8.003 0 0 0-4.93-2.41 10.352 10.352 0 0 0-6 1.22.78.78 0 0 0 .19 1.5z" fill="#9ceb60"/><path d="M12.438 15.752a1.276 1.276 0 0 1-1.26-1.506 9.828 9.828 0 0 1 3.094-5.92l.083-.088a.26.26 0 0 0-.086-.357 14.344 14.344 0 0 0-3.963-1.283A1.28 1.28 0 0 1 9.952 4.2a10.776 10.776 0 0 1 6.278-1.272 8.51 8.51 0 0 1 5.24 2.561c.133.127.323.123.437.002a8.521 8.521 0 0 1 5.222-2.523 10.81 10.81 0 0 1 6.291 1.279c.342.175.587.503.661.893.064.335-.006.676-.198.959a1.27 1.27 0 0 1-.819.538 14.421 14.421 0 0 0-4.011 1.307c-.118.149-.101.313.011.403a9.863 9.863 0 0 1 3.122 5.92 1.282 1.282 0 0 1-1.94 1.294 31.23 31.23 0 0 0-8.505-3.719.291.291 0 0 0-.128.001 31.215 31.215 0 0 0-8.496 3.716 1.287 1.287 0 0 1-.679.193zm9.247-4.917c.098 0 .194.011.288.033l.017.004a32.249 32.249 0 0 1 8.786 3.839.28.28 0 0 0 .384-.091.27.27 0 0 0 .039-.197 8.863 8.863 0 0 0-2.786-5.32c-.516-.415-.602-1.209-.167-1.75.091-.113.2-.209.324-.285a15.406 15.406 0 0 1 4.316-1.417.277.277 0 0 0 .17-.116.283.283 0 0 0-.104-.406 9.793 9.793 0 0 0-5.722-1.167 7.51 7.51 0 0 0-4.602 2.222 1.3 1.3 0 0 1-1.833.042c-1.27-1.318-2.911-2.12-4.667-2.305a9.824 9.824 0 0 0-5.708 1.161.283.283 0 0 0-.133.383.28.28 0 0 0 .198.147c1.478.251 2.917.721 4.268 1.393.326.197.527.474.606.801a1.25 1.25 0 0 1-.435 1.276 8.831 8.831 0 0 0-2.758 5.317c-.017.096 0 .17.042.231a.277.277 0 0 0 .181.116.275.275 0 0 0 .198-.038 32.264 32.264 0 0 1 8.784-3.838c.106-.023.212-.035.314-.035z" fill="#45413c"/><path d="M20.1 8.565a9.868 9.868 0 0 1 2.37-6.73 1.46 1.46 0 0 1 1.05-.41 2.26 2.26 0 0 1 1 .22 1.1 1.1 0 0 1 .39 1.69 17.338 17.338 0 0 0-2.11 5.25" fill="#6dd627"/><path d="M22.8 9.085a.5.5 0 0 1-.489-.609 17.752 17.752 0 0 1 2.172-5.401c.068-.093.096-.135.116-.18a.601.601 0 0 0-.291-.797 1.916 1.916 0 0 0-.783-.173 1.031 1.031 0 0 0-.708.269 9.33 9.33 0 0 0-2.218 6.355.501.501 0 0 1-.484.516.497.497 0 0 1-.515-.484 10.34 10.34 0 0 1 2.49-7.071 2.048 2.048 0 0 1 1.441-.585 2.8 2.8 0 0 1 1.203.269c.384.179.678.499.824.9a1.59 1.59 0 0 1-.259 1.555 16.831 16.831 0 0 0-2.012 5.045.5.5 0 0 1-.487.391z" fill="#45413c"/></svg>