<svg xmlns="http://www.w3.org/2000/svg" viewBox="0 0 45.25 45.25" width="512" height="512"><ellipse cx="22.63" cy="37.145" rx="21.24" ry="1.77" opacity=".15" fill="#45413c"/><path d="M17 28.665a8.25 8.25 0 1 1-16.5 0 8.25 8.25 0 0 1 16.5 0z" fill="#656769"/><path d="M8.75 22.775a8.26 8.26 0 0 1 8.16 7.07c.055-.391.085-.785.09-1.18a8.25 8.25 0 0 0-16.5 0c.005.395.035.789.09 1.18a8.26 8.26 0 0 1 8.16-7.07z" fill="#87898c"/><path d="M8.75 37.415c-4.825 0-8.75-3.925-8.75-8.75s3.925-8.75 8.75-8.75 8.75 3.925 8.75 8.75-3.925 8.75-8.75 8.75zm0-16.5c-4.273 0-7.75 3.477-7.75 7.75s3.477 7.75 7.75 7.75 7.75-3.477 7.75-7.75-3.477-7.75-7.75-7.75z" fill="#45413c"/><path d="M44.75 28.665a8.25 8.25 0 1 1-16.5 0 8.25 8.25 0 0 1 16.5 0z" fill="#656769"/><path d="M36.5 22.775a8.26 8.26 0 0 1 8.16 7.07c.055-.391.085-.785.09-1.18a8.25 8.25 0 0 0-16.5 0c.005.395.035.789.09 1.18a8.26 8.26 0 0 1 8.16-7.07z" fill="#87898c"/><path d="M36.5 37.415c-4.825 0-8.75-3.925-8.75-8.75s3.925-8.75 8.75-8.75 8.75 3.925 8.75 8.75-3.925 8.75-8.75 8.75zm0-16.5c-4.273 0-7.75 3.477-7.75 7.75s3.477 7.75 7.75 7.75 7.75-3.477 7.75-7.75-3.477-7.75-7.75-7.75z" fill="#45413c"/><path d="M41.8 28.615a5.3 5.3 0 1 1-5.3-5.3 5.3 5.3 0 0 1 5.3 5.3z" fill="#e8f4fa"/><path d="M36.5 25.665a5.31 5.31 0 0 1 5.16 4.13 5.05 5.05 0 0 0 .14-1.18 5.3 5.3 0 0 0-10.6 0c0 .397.047.793.14 1.18a5.31 5.31 0 0 1 5.16-4.13z" fill="#c0dceb"/><path d="M36.5 34.415c-3.198 0-5.8-2.602-5.8-5.8s2.602-5.8 5.8-5.8 5.8 2.602 5.8 5.8-2.602 5.8-5.8 5.8zm0-10.6c-2.646 0-4.8 2.153-4.8 4.8s2.153 4.8 4.8 4.8 4.8-2.153 4.8-4.8-2.154-4.8-4.8-4.8z" fill="#45413c"/><path d="M41.8 29.165H31.2a.5.5 0 0 1 0-1h10.6a.5.5 0 0 1 0 1z" fill="#45413c"/><path d="M33.87 33.715a.5.5 0 0 1-.433-.75l5.3-9.18a.501.501 0 0 1 .866.5l-5.3 9.18a.5.5 0 0 1-.433.25z" fill="#45413c"/><path d="M39.13 33.715a.5.5 0 0 1-.433-.25l-5.3-9.18a.498.498 0 0 1 .183-.683.499.499 0 0 1 .683.183l5.3 9.18a.498.498 0 0 1-.433.75z" fill="#45413c"/><path d="M14.07 28.665a5.3 5.3 0 1 1-5.3-5.3 5.3 5.3 0 0 1 5.3 5.3z" fill="#e8f4fa"/><path d="M8.77 25.665a5.31 5.31 0 0 1 5.17 4.15c.084-.378.128-.763.13-1.15a5.3 5.3 0 0 0-10.6 0c.002.387.046.772.13 1.15a5.31 5.31 0 0 1 5.17-4.15z" fill="#c0dceb"/><path d="M8.77 34.465c-3.198 0-5.8-2.602-5.8-5.8s2.602-5.8 5.8-5.8 5.8 2.602 5.8 5.8-2.602 5.8-5.8 5.8zm0-10.6c-2.646 0-4.8 2.153-4.8 4.8s2.153 4.8 4.8 4.8 4.8-2.153 4.8-4.8-2.153-4.8-4.8-4.8z" fill="#45413c"/><path d="M14.07 29.165H3.47a.5.5 0 0 1 0-1h10.6a.5.5 0 0 1 0 1z" fill="#45413c"/><path d="M6.12 33.755a.5.5 0 0 1-.433-.75l5.3-9.18a.5.5 0 1 1 .866.5l-5.3 9.18a.501.501 0 0 1-.433.25z" fill="#45413c"/><path d="M11.42 33.755a.502.502 0 0 1-.434-.25l-5.3-9.18a.5.5 0 0 1 .866-.5l5.3 9.18a.5.5 0 0 1-.432.75z" fill="#45413c"/><path d="M29.32 11.845v2.14H14.83c0-.29.06-.57.07-.86l.28-4.64A1.18 1.18 0 0 0 14 7.235H7.25a1.179 1.179 0 1 0 0 2.36h4.86c.331 0 .6.268.601.599l-.001.031-.16 2.77a32.004 32.004 0 0 1-4.81 15.06 1.18 1.18 0 1 0 1.999 1.22 34.741 34.741 0 0 0 4.33-10.5.58.58 0 0 1 1-.24l8.45 10.85c.226.284.567.453.93.46H36.5a1.18 1.18 0 0 0 1.08-1.66l-5.9-13.27v-3.07h-2.36zm-1 5.33l-4.1 9.21-7.07-9.09a.59.59 0 0 1 .47-.95h10.16a.59.59 0 0 1 .54.83zm-2 10.31l4.18-9.41 4.18 9.41h-8.36z" fill="#6dd627"/><path d="M8.664 30.466c-.365 0-.732-.118-1.04-.361a1.668 1.668 0 0 1-.627-1.122 1.67 1.67 0 0 1 .351-1.237 31.584 31.584 0 0 0 4.703-14.78l.16-2.769a.1.1 0 0 0-.101-.102H7.25a1.68 1.68 0 0 1 0-3.36H14l.102.003a1.683 1.683 0 0 1 1.577 1.777l-.28 4.641a4.419 4.419 0 0 1-.026.33H28.82v-1.64a.5.5 0 0 1 .5-.5h2.359a.5.5 0 0 1 .5.5v2.964l5.857 13.172c.098.221.146.452.145.688a1.67 1.67 0 0 1-.494 1.185c-.317.316-.738.49-1.186.49H24.45a1.718 1.718 0 0 1-1.321-.648l-8.454-10.854c-.065-.015-.109.011-.121.055a35.16 35.16 0 0 1-4.39 10.642 1.402 1.402 0 0 1-.18.288 1.678 1.678 0 0 1-1.32.638zM7.25 7.735a.676.676 0 0 0-.679.68c0 .375.305.68.679.68h4.86c.606 0 1.1.493 1.101 1.099l-.162 2.831A32.568 32.568 0 0 1 8.164 28.32c-.144.188-.195.366-.174.547a.681.681 0 0 0 1.295.2 34.377 34.377 0 0 0 4.296-10.404 1.083 1.083 0 0 1 1.866-.454l8.466 10.869c.13.165.331.264.545.268h12.043a.681.681 0 0 0 .622-.958l-5.9-13.269a.507.507 0 0 1-.043-.203v-2.57h-1.36v1.64a.5.5 0 0 1-.5.5H14.83a.5.5 0 0 1-.5-.5c0-.177.019-.35.039-.524.014-.117.027-.234.032-.353l.281-4.654a.682.682 0 0 0-.639-.719L7.25 7.735zm27.43 20.25h-8.36a.5.5 0 0 1-.457-.704l4.18-9.41c.16-.361.754-.361.914 0l4.18 9.41a.5.5 0 0 1-.457.704zm-7.59-1h6.82l-3.41-7.678-3.41 7.678zm-2.87-.1a.5.5 0 0 1-.395-.193l-7.07-9.089a1.092 1.092 0 0 1 .863-1.757h10.164a1.092 1.092 0 0 1 .996 1.531l-.001.002-4.101 9.21a.5.5 0 0 1-.456.296zm3.561-10.04H17.62c-.097.049-.104.106-.074.146l6.556 8.429 3.76-8.445a.093.093 0 0 0 .009-.04.09.09 0 0 0-.09-.09zm.539.33h.01-.01z" fill="#45413c"/><path d="M27.5 28.615a3 3 0 1 1-6 0 3 3 0 0 1 6 0z" fill="#daedf7"/><path d="M24.5 27.485a3 3 0 0 1 2.84 2.07c.099-.304.153-.621.16-.94a3 3 0 1 0-6 0c.007.319.061.636.16.94a3 3 0 0 1 2.84-2.07z" fill="#e8f4fa"/><path d="M24.5 32.115c-1.93 0-3.5-1.57-3.5-3.5s1.57-3.5 3.5-3.5 3.5 1.57 3.5 3.5-1.57 3.5-3.5 3.5zm0-6c-1.378 0-2.5 1.121-2.5 2.5s1.122 2.5 2.5 2.5c1.379 0 2.5-1.121 2.5-2.5s-1.121-2.5-2.5-2.5z" fill="#45413c"/><path d="M25.19 11.845h9.44c2.14 0 2.26-4.13 0-4.13s-5.41 1.33-7.67 1.2c-4.15-.29-3.17 2.93-1.77 2.93z" fill="#debb7e"/><g fill="#f0d5a8"><path d="M26.96 10.295c2.26.07 5.41-.63 7.67-.63a1.59 1.59 0 0 1 1.57.73c.28-1.19-.21-2.68-1.57-2.68-2.26 0-5.41 1.33-7.67 1.18-2.64-.17-3.2 1.06-2.91 2 .24-.37 1.06-.67 2.91-.6zM34.63 11.845c.132-.001.263-.017.39-.05a2.325 2.325 0 0 1-.39.05z"/></g><path d="M34.63 12.345h-9.44c-.58 0-1.139-.363-1.458-.947-.34-.623-.329-1.356.029-1.916.361-.563 1.218-1.205 3.233-1.066 1.112.072 2.534-.269 3.908-.591 1.278-.3 2.601-.61 3.727-.61.673 0 1.259.297 1.648.837.325.448.503 1.047.503 1.685 0 1.296-.739 2.608-2.15 2.608zm-8.166-2.947c-.937 0-1.602.22-1.86.624-.242.378-.057.782.006.896.143.259.37.427.581.427h9.439c.844 0 1.15-.961 1.15-1.607 0-.424-.114-.825-.313-1.1a.981.981 0 0 0-.838-.422c-1.01 0-2.275.297-3.499.583-1.442.339-2.939.694-4.199.616a6.338 6.338 0 0 0-.467-.017z" fill="#45413c"/><path d="M8.18 6.835H6.04a4.93 4.93 0 0 0-2.62 9.08l.83.52a1.553 1.553 0 1 0 1.62-2.65l-.91-.54a1.89 1.89 0 0 1 1-3.5h2.22a1.18 1.18 0 0 0 1.18-1.18v-.55a1.18 1.18 0 0 0-1.18-1.18z" fill="#debb7e"/><path d="M8.18 6.835H6.04a4.94 4.94 0 0 0-4.94 4.94c.002.295.029.589.08.88a4.94 4.94 0 0 1 4.86-4h2.14c.414.006.795.23 1 .59.105-.179.16-.383.16-.59v-.64a1.18 1.18 0 0 0-1.16-1.18z" fill="#f0d5a8"/><path d="M5.056 17.164c-.373 0-.74-.102-1.067-.302l-.835-.523A5.416 5.416 0 0 1 .651 11.81c-.012-1.45.541-2.818 1.558-3.853s2.376-1.61 3.827-1.622H8.18c.926 0 1.68.754 1.68 1.68v.55c0 .926-.753 1.68-1.68 1.68H5.96c-.458-.024-.941.25-1.194.662a1.384 1.384 0 0 0-.168 1.051c.086.361.308.667.624.862l.904.536c.473.29.802.741.93 1.273a2.042 2.042 0 0 1-.244 1.552 2.04 2.04 0 0 1-1.756.983zm.984-9.829a4.404 4.404 0 0 0-3.118 1.323 4.4 4.4 0 0 0-1.271 3.143 4.415 4.415 0 0 0 2.039 3.693l.826.517a1.052 1.052 0 0 0 1.093-1.799l-.905-.537c-.55-.339-.932-.865-1.08-1.486s-.045-1.263.289-1.806a2.405 2.405 0 0 1 2.036-1.138H8.18a.68.68 0 0 0 .68-.68v-.55a.68.68 0 0 0-.68-.68H6.04z" fill="#45413c"/></svg>