<svg xmlns="http://www.w3.org/2000/svg" viewBox="0 0 44.5 44.5" width="512" height="512"><path d="M44.5 43.025c0 1-10 1.3-22.25 1.3S0 44.015 0 43.025s10-1.81 22.25-1.81 22.25.81 22.25 1.81z" opacity=".15" fill="#45413c"/><path d="M5.14.675h34.22a3.54 3.54 0 0 1 3.54 3.54v34.22a3.54 3.54 0 0 1-3.54 3.54H5.14a3.54 3.54 0 0 1-3.54-3.54V4.215A3.54 3.54 0 0 1 5.14.675z" fill="#fff"/><path d="M39.36 39.025H5.14a3.55 3.55 0 0 1-3.54-3.54v3a3.55 3.55 0 0 0 3.54 3.54h34.22a3.55 3.55 0 0 0 3.54-3.54v-3a3.55 3.55 0 0 1-3.54 3.54z" fill="#f0f0f0"/><path d="M39.36 42.475H5.14a4.045 4.045 0 0 1-4.04-4.04V4.215A4.045 4.045 0 0 1 5.14.175h34.22a4.045 4.045 0 0 1 4.04 4.04v34.22a4.045 4.045 0 0 1-4.04 4.04zM5.14 1.175a3.044 3.044 0 0 0-3.04 3.04v34.22a3.043 3.043 0 0 0 3.04 3.04h34.22a3.042 3.042 0 0 0 3.04-3.04V4.215a3.043 3.043 0 0 0-3.04-3.04H5.14z" fill="#45413c"/><path d="M5.73 3.625h33.04c.652 0 1.18.528 1.18 1.18v33.04a1.18 1.18 0 0 1-1.18 1.18H5.73a1.18 1.18 0 0 1-1.18-1.18V4.805c0-.652.528-1.18 1.18-1.18z" fill="#00b8f0"/><path d="M38.77 36.075h-33a1.18 1.18 0 0 1-1.219-1.139l-.001-.041v3a1.18 1.18 0 0 0 1.18 1.13h33a1.18 1.18 0 0 0 1.18-1.18v-3a1.18 1.18 0 0 1-1.128 1.23h-.012z" fill="#009fd9"/><path d="M38.77 39.525H5.73c-.926 0-1.68-.754-1.68-1.68V4.805c0-.926.754-1.68 1.68-1.68h33.04c.927 0 1.681.753 1.681 1.68v33.04a1.684 1.684 0 0 1-1.681 1.68zM5.73 4.125a.68.68 0 0 0-.68.68v33.04c0 .375.305.68.68.68h33.04a.682.682 0 0 0 .681-.68V4.805a.682.682 0 0 0-.681-.68H5.73z" fill="#45413c"/><path fill="#ff6242" d="M16.98 31.945h2.43v7.08h-2.43z"/><path fill="#e04122" d="M19.41 35.345l-2.43.28v-3.68h2.43z"/><path d="M19.41 39.525h-2.43a.5.5 0 0 1-.5-.5v-7.08a.5.5 0 0 1 .5-.5h2.43a.5.5 0 0 1 .5.5v7.08a.5.5 0 0 1-.5.5zm-1.93-1h1.43v-6.08h-1.43v6.08z" fill="#45413c"/><path fill="#ff6242" d="M8.94 30.195h2.43v8.83H8.94z"/><path fill="#e04122" d="M11.37 34.895l-2.43-.54v-4.16h2.43z"/><path d="M11.37 39.525H8.94a.5.5 0 0 1-.5-.5v-8.83a.5.5 0 0 1 .5-.5h2.43a.5.5 0 0 1 .5.5v8.83a.5.5 0 0 1-.5.5zm-1.93-1h1.43v-7.83H9.44v7.83z" fill="#45413c"/><path fill="#ff6242" d="M25.02 28.505h2.43v10.52h-2.43z"/><path fill="#e04122" d="M27.45 33.125l-2.43 1.48v-6.1h2.43z"/><path d="M27.48 39.525h-2.43a.5.5 0 0 1-.5-.5v-10.52a.5.5 0 0 1 .5-.5h2.431a.5.5 0 0 1 .5.5v10.52a.501.501 0 0 1-.501.5zm-1.93-1h1.431v-9.52H25.55v9.52z" fill="#45413c"/><path fill="#ff6242" d="M33.05 20.155h2.43v18.87h-2.43z"/><path fill="#e04122" d="M35.49 25.855l-2.44 2.18v-7.88h2.44z"/><path d="M35.48 39.525h-2.43a.5.5 0 0 1-.5-.5v-18.87a.5.5 0 0 1 .5-.5h2.431a.5.5 0 0 1 .5.5v18.87a.501.501 0 0 1-.501.5zm-1.93-1h1.431v-17.87H33.55v17.87z" fill="#45413c"/><path d="M25.17 19.205a1.52 1.52 0 1 1-.01-.009l.01.009z" fill="#fff48c"/><path d="M24.091 22.295l-.011-.001a2.003 2.003 0 0 1-1.426-.599 2.028 2.028 0 0 1 0-2.842c.38-.384.887-.596 1.426-.599h.01a2.01 2.01 0 0 1 1.422.585l.014.014a2.023 2.023 0 0 1-1.435 3.442zm-.001-3.04h-.005a1.012 1.012 0 0 0-.72.302 1.024 1.024 0 0 0 0 1.436c.191.193.447.301.72.302.245-.029.528-.103.722-.295.4-.396.403-1.043.008-1.443l-.007-.007a1.03 1.03 0 0 0-.718-.295z" fill="#45413c"/><path d="M27.36 17.085a1.52 1.52 0 1 1-.01-.009l.01.009z" fill="#fff48c"/><path d="M26.28 20.174a2.016 2.016 0 0 1-1.436-.597 2.027 2.027 0 0 1 0-2.843 2.02 2.02 0 1 1 2.856 2.857 2.012 2.012 0 0 1-1.42.583zm.003-3.04a1.022 1.022 0 0 0-.728 1.739 1.02 1.02 0 0 0 1.45-1.436l-.017-.016a.997.997 0 0 0-.705-.287z" fill="#45413c"/><path d="M31.25 13.255a1.52 1.52 0 1 1-2.161 2.14 1.52 1.52 0 0 1 2.161-2.14z" fill="#fff48c"/><path d="M30.17 16.344h-.01a2.008 2.008 0 0 1-1.426-.598 2.027 2.027 0 0 1 0-2.843c.38-.383.886-.596 1.426-.599.52.031 1.048.205 1.431.585l.015.014c.38.383.587.892.584 1.431a2.003 2.003 0 0 1-.599 1.426c-.38.377-.885.584-1.421.584zm0-3.04h-.005a1.022 1.022 0 0 0 0 2.04h.005c.271 0 .525-.104.717-.295a1.018 1.018 0 0 0-.717-1.745z" fill="#45413c"/><path d="M33.48 11.005a1.522 1.522 0 0 1 0 2.15 1.52 1.52 0 0 1-2.15-2.149 1.51 1.51 0 0 1 2.15-.001z" fill="#fff48c"/><path d="M32.405 14.098a2.014 2.014 0 0 1-1.429-.591 2.003 2.003 0 0 1-.592-1.428c0-.54.21-1.046.592-1.428a2.012 2.012 0 0 1 2.84-.017l.018.018a2.023 2.023 0 0 1-.001 2.856c-.394.394-.911.59-1.428.59zm.001-3.042c-.261 0-.522.1-.721.3a1.019 1.019 0 1 0 1.44 1.444 1.023 1.023 0 0 0 .001-1.443l-.015-.014a1.002 1.002 0 0 0-.705-.287z" fill="#45413c"/><path d="M31.16 20.835l-2.41-2.51a1.17 1.17 0 0 0-1.655-.005l-.005.005-3 2.88a2.395 2.395 0 0 0-.69 1.42l-.38 3.5a1.71 1.71 0 0 0 2.89 1.41l5.19-5a1.18 1.18 0 0 0 .06-1.7z" fill="#ff6242"/><path d="M23.43 24.895a2.395 2.395 0 0 1 .69-1.42l.81-.78a4.19 4.19 0 0 1 5.92.09l.28-.28a1.18 1.18 0 0 0 .001-1.669l-.001-.001-2.38-2.51a1.17 1.17 0 0 0-1.655-.005l-.005.005-3 2.88a2.395 2.395 0 0 0-.69 1.42l-.38 3.5c-.036.308.016.62.15.9l.26-2.13z" fill="#ff866e"/><path d="M24.723 28.517a2.214 2.214 0 0 1-2.2-2.445l.381-3.501a2.912 2.912 0 0 1 .834-1.721l3.006-2.886a1.567 1.567 0 0 1 1.183-.484c.446.001.865.176 1.179.493l2.416 2.516a1.678 1.678 0 0 1-.087 2.419l-5.177 4.988c-.415.4-.965.621-1.535.621zm3.197-10.038a.663.663 0 0 0-.472.195l-3.012 2.892c-.297.294-.49.693-.539 1.117l-.381 3.496a1.213 1.213 0 0 0 2.046.997l5.19-5.001a.686.686 0 0 0 .066-.973l.341-.367-.36.346-2.41-2.51a.662.662 0 0 0-.468-.192h-.001z" fill="#45413c"/><path d="M30.25 15.135l2.81-2.75a1.18 1.18 0 0 1 1.62-.06l2.66 2.22a1.18 1.18 0 0 1 .08 1.78l-3.3 3.24a1.19 1.19 0 0 1-1.75-.1l-2.12-2.75a1.18 1.18 0 0 1 0-1.58z" fill="#ff6242"/><path d="M30.71 17.375l.33-.31a4.37 4.37 0 0 1 5.86-.24l.52-.52a1.19 1.19 0 0 0-.006-1.683c-.024-.023-.048-.046-.074-.067l-2.66-2.23a1.18 1.18 0 0 0-1.58.06l-2.85 2.77a1.18 1.18 0 0 0 0 1.58l.46.64z" fill="#ff866e"/><path d="M33.295 20.412h-.019a1.673 1.673 0 0 1-1.299-.637l-2.122-2.733c-.555-.614-.555-1.581.023-2.221l.021-.023 2.81-2.75a1.679 1.679 0 0 1 2.295-.103l2.654 2.205a1.678 1.678 0 0 1 .101 2.541l-3.29 3.241c-.316.31-.732.48-1.174.48zM30.612 15.5a.678.678 0 0 0 .01.901l2.143 2.758c.171.179.341.251.522.253.18 0 .354-.067.483-.194l3.299-3.249a.681.681 0 0 0-.037-1.039l-2.672-2.22a.679.679 0 0 0-.939.042L30.612 15.5z" fill="#45413c"/><path d="M37.25 6.985a1.52 1.52 0 1 1-.01-.009l.01.009z" fill="#fff48c"/><path d="M36.17 10.074h-.01a2.008 2.008 0 0 1-1.426-.598 2.027 2.027 0 0 1 0-2.843c.38-.383.887-.596 1.426-.598h.01a2.01 2.01 0 0 1 1.422.585l.014.013c.38.383.587.892.584 1.431a2.003 2.003 0 0 1-.599 1.426c-.38.377-.885.584-1.421.584zm0-3.04h-.005a1.022 1.022 0 0 0 0 2.04h.005c.271 0 .525-.104.717-.295a1.018 1.018 0 0 0-.717-1.745z" fill="#45413c"/><g><path d="M39.56 4.735a1.52 1.52 0 1 1-2.161 2.14 1.52 1.52 0 0 1 2.161-2.14z" fill="#fff48c"/><path d="M38.48 7.824h-.011a2 2 0 0 1-1.425-.599 2.027 2.027 0 0 1 0-2.843c.38-.382.887-.595 1.426-.597h.01a2.01 2.01 0 0 1 1.422.585l.014.014c.38.383.587.892.585 1.431s-.216 1.045-.6 1.425c-.38.377-.885.584-1.421.584zm-.001-3.04h-.005a1.022 1.022 0 0 0 0 2.04c.275.04.529-.103.724-.295a1.016 1.016 0 0 0 0-1.449 1.018 1.018 0 0 0-.719-.296z" fill="#45413c"/></g><path d="M39.95 13.435v-7.66a1.181 1.181 0 0 0-.78.34l-2.8 2.75a1.17 1.17 0 0 0-.1 1.58l2.17 2.71a1.18 1.18 0 0 0 1.51.28z" fill="#ff6242"/><path d="M39.17 6.115l-2.8 2.75a1.17 1.17 0 0 0-.1 1.58l.6.75 2.3-2.25c.206-.21.486-.332.78-.34v-2.83a1.181 1.181 0 0 0-.78.34z" fill="#ff866e"/><path d="M39.355 14.096c-.492 0-.974-.218-1.305-.627l-2.172-2.711a1.66 1.66 0 0 1 .145-2.253l2.796-2.746a1.674 1.674 0 0 1 1.11-.482.485.485 0 0 1 .366.139.498.498 0 0 1 .154.361v7.66a.502.502 0 0 1-.249.433 1.698 1.698 0 0 1-.845.226zm.595-.661h.01-.01zm-.5-6.894l-2.729 2.681a.669.669 0 0 0-.063.909l2.173 2.711c.153.19.391.277.619.246V6.541z" fill="#45413c"/><g><path d="M4.55 27.995a19.508 19.508 0 0 0 12.88 5.39c7.08 0 9.81-3.47 22.52-17.52v-3.54c-12.7 14.1-15.93 18.43-22.12 18.37a17.39 17.39 0 0 1-13.28-6.2v3.5z" fill="#c0dceb"/><path d="M17.43 33.885a19.991 19.991 0 0 1-13.226-5.528.499.499 0 0 1-.155-.361v-3.5a.5.5 0 0 1 .883-.322 16.86 16.86 0 0 0 12.898 6.021l.123.001c5.309 0 8.355-3.401 18.277-14.477 1.039-1.159 2.151-2.401 3.348-3.729a.499.499 0 0 1 .871.335v3.54a.498.498 0 0 1-.129.335l-1.967 2.177C27.317 30.6 24.351 33.885 17.43 33.885zM5.05 27.779a18.983 18.983 0 0 0 12.396 5.105c6.461 0 9.093-2.914 20.167-15.178l1.838-2.035v-2.044c-.869.967-1.692 1.886-2.474 2.758-9.888 11.036-13.269 14.809-19.021 14.81l-.13-.001a17.848 17.848 0 0 1-12.775-5.402v1.987z" fill="#45413c"/></g></svg>