<svg xmlns="http://www.w3.org/2000/svg" viewBox="0 0 47.947 47.947" width="512" height="512"><path fill="#debb7e" d="M13.499 16.703h4.29v22.32h-4.29z"/><path d="M13.499 32.283c.402.195.843.297 1.29.3a3 3 0 0 0 2.76-1.82l.24.06v-14.12h-4.29v15.58z" fill="#b89558"/><path d="M17.789 39.523h-4.29a.5.5 0 0 1-.5-.5v-22.32a.5.5 0 0 1 .5-.5h4.29a.5.5 0 0 1 .5.5v22.32a.5.5 0 0 1-.5.5zm-3.79-1h3.29v-21.32h-3.29v21.32z" fill="#45413c"/><path d="M15.109 6.923a10.43 10.43 0 0 0-10.41 9.72A6.611 6.611 0 0 0 9.528 28.95a6.622 6.622 0 0 0 2.421-1.646 10.26 10.26 0 0 0 3.2.51c5.769-.179 10.3-5 10.122-10.768A10.45 10.45 0 0 0 15.149 6.923h-.04z" fill="#6dd627"/><path d="M4.699 19.423c.376-5.748 5.34-10.103 11.088-9.727a10.43 10.43 0 0 1 9.662 9.057c.064-.461.097-.925.1-1.39-.038-5.766-4.742-10.409-10.508-10.372a10.44 10.44 0 0 0-10.342 9.652 6.57 6.57 0 0 0-4.09 7.59 6.594 6.594 0 0 1 4.09-4.81z" fill="#9ceb60"/><path d="M7.112 29.911c-.966 0-1.93-.199-2.841-.597a7.065 7.065 0 0 1-3.775-3.92 7.06 7.06 0 0 1 .102-5.441 7.06 7.06 0 0 1 3.629-3.654c.539-5.563 5.257-9.876 10.878-9.876h.045c5.784.179 10.443 4.837 10.622 10.606a10.878 10.878 0 0 1-2.966 7.838 10.872 10.872 0 0 1-7.64 3.445h-.012c-1.047 0-2.071-.148-3.06-.441a7.186 7.186 0 0 1-2.382 1.544 7.102 7.102 0 0 1-2.6.496zm7.992-22.488c-5.201 0-9.552 4.064-9.906 9.254a.498.498 0 0 1-.316.431 6.073 6.073 0 0 0-3.368 3.244c-.653 1.496-.684 3.156-.088 4.676s1.749 2.716 3.244 3.368a6.066 6.066 0 0 0 4.676.087 6.14 6.14 0 0 0 2.238-1.521.492.492 0 0 1 .521-.134c.983.322 2.006.519 3.043.484 2.642-.082 5.107-1.193 6.927-3.13s2.777-4.466 2.695-7.123c-.162-5.242-4.396-9.475-9.637-9.637l-.024-.5v.5l-.005.001z" fill="#45413c"/><path d="M40.649 22.043l-11.7-6.82a1.73 1.73 0 0 0-1.73 0l-11.68 6.82a1.49 1.49 0 1 0 1.51 2.57l11-6.44 11.1 6.44a1.49 1.49 0 0 0 1.5-2.57z" fill="#ff6242"/><path d="M15.069 24.163c.126-.179.286-.332.47-.45l11.69-6.81a1.679 1.679 0 0 1 1.73 0l11.69 6.81c.187.115.347.269.47.45a.753.753 0 0 0 .12-.19 1.48 1.48 0 0 0-.59-1.93l-11.7-6.82a1.73 1.73 0 0 0-1.73 0l-11.68 6.82a1.5 1.5 0 0 0-.59 1.93c.034.067.075.131.12.19z" fill="#ff866e"/><path d="M16.298 25.32a1.98 1.98 0 0 1-1.719-.982 1.994 1.994 0 0 1 .708-2.725l11.681-6.821a2.24 2.24 0 0 1 2.232-.001l11.702 6.821c.008.005.016.009.023.015a1.991 1.991 0 0 1-2.004 3.432L28.05 18.752l-10.748 6.293a1.973 1.973 0 0 1-1.004.275zm11.787-9.828c-.213 0-.427.055-.616.164l-11.678 6.819a.992.992 0 0 0 .254 1.812.98.98 0 0 0 .75-.104l11-6.441a.502.502 0 0 1 .504-.001l11.101 6.44c.463.239 1.061.045 1.311-.44a.99.99 0 0 0-.326-1.273l-11.688-6.813a1.22 1.22 0 0 0-.612-.163z" fill="#45413c"/><ellipse cx="26.379" cy="40.023" rx="21.03" ry="1.5" opacity=".15" fill="#45413c"/><path fill="#fffacf" d="M38.399 39.023h-20.61v-14.84l10.31-6.01 10.3 6.01z"/><path fill="#fff48c" d="M28.099 18.173l-10.31 6.01v2.4l10.31-6.01 10.3 6.01v-2.4z"/><path d="M38.4 39.523H17.79a.5.5 0 0 1-.5-.5v-14.84c0-.178.095-.342.248-.432l10.31-6.01a.502.502 0 0 1 .504 0l10.301 6.01a.5.5 0 0 1 .248.432v14.84a.502.502 0 0 1-.501.5zm-20.111-1H37.9V24.47l-9.801-5.718-9.81 5.718v14.053z" fill="#45413c"/><path d="M20.369 36.873h8.16a.86.86 0 0 1 .86.86v1.29h-9.88v-1.29a.86.86 0 0 1 .86-.86z" fill="#e0e0e0"/><path d="M29.389 39.523H19.51a.5.5 0 0 1-.5-.5v-1.29c0-.75.61-1.359 1.36-1.359h8.16c.75 0 1.359.609 1.359 1.359v1.29a.5.5 0 0 1-.5.5zm-9.38-1h8.879v-.79a.36.36 0 0 0-.359-.359h-8.16a.36.36 0 0 0-.36.359v.79z" fill="#45413c"/><path d="M21.659 26.573h5.58a.86.86 0 0 1 .86.86v9.44h-7.3v-9.44a.86.86 0 0 1 .86-.86z" fill="#bf8256"/><path d="M27.239 26.573h-5.58a.86.86 0 0 0-.86.86v1.72a.85.85 0 0 1 .84-.86h5.6a.86.86 0 0 1 .86.86v-1.72a.87.87 0 0 0-.86-.86z" fill="#915e3a"/><path d="M28.099 37.374H20.8a.5.5 0 0 1-.5-.5v-9.44c0-.75.61-1.359 1.36-1.359h5.58c.75 0 1.359.609 1.359 1.359v9.44a.5.5 0 0 1-.5.5zm-6.799-1h6.299v-8.94a.36.36 0 0 0-.359-.359h-5.58a.36.36 0 0 0-.36.359v8.94z" fill="#45413c"/><path d="M31.529 26.573h3.43a.86.86 0 0 1 .86.86v3.43a.86.86 0 0 1-.86.86h-3.43a.86.86 0 0 1-.86-.86v-3.43a.86.86 0 0 1 .86-.86z" fill="#00b8f0"/><path d="M34.949 26.573h-3.42a.87.87 0 0 0-.86.86v3.43c0 .475.385.86.86.86h.61l3-5.11a.476.476 0 0 0-.19-.04z" fill="#4acfff"/><path d="M23.379 28.293h2.14a.86.86 0 0 1 .86.86v2.14a.86.86 0 0 1-.86.86h-2.14a.86.86 0 0 1-.86-.86v-2.14a.86.86 0 0 1 .86-.86z" fill="#00b8f0"/><path d="M25.519 28.293h-2.15a.85.85 0 0 0-.85.85v2.15a.85.85 0 0 0 .84.86h.22l2.23-3.8a.738.738 0 0 0-.29-.06z" fill="#4acfff"/><path d="M34.959 32.223h-3.43a1.36 1.36 0 0 1-1.36-1.359v-3.431c0-.75.61-1.359 1.36-1.359h3.43c.75 0 1.36.609 1.36 1.359v3.431a1.36 1.36 0 0 1-1.36 1.359zm-3.43-5.149a.36.36 0 0 0-.36.359v3.431a.36.36 0 0 0 .36.359h3.43a.36.36 0 0 0 .36-.359v-3.431a.36.36 0 0 0-.36-.359h-3.43zM25.52 32.654h-2.141c-.75 0-1.36-.61-1.36-1.36v-2.14c0-.75.61-1.36 1.36-1.36h2.141c.75 0 1.359.61 1.359 1.36v2.14c0 .75-.609 1.36-1.359 1.36zm-2.141-3.86a.361.361 0 0 0-.36.36v2.14c0 .198.162.36.36.36h2.141a.36.36 0 0 0 .359-.36v-2.14a.36.36 0 0 0-.359-.36h-2.141z" fill="#45413c"/><path d="M46.579 39.023a2.14 2.14 0 0 0-1.28-3.86 2.11 2.11 0 0 0-1.36.5 3.86 3.86 0 1 0-6.65 3.36h9.29z" fill="#6dd627"/><path d="M40.149 34.323a3.871 3.871 0 0 1 3.8 3.08 2.11 2.11 0 0 1 1.36-.51 2.15 2.15 0 0 1 2 1.27c.12-.271.185-.563.19-.86a2.14 2.14 0 0 0-2.14-2.14h-.01a2.11 2.11 0 0 0-1.36.5 3.87 3.87 0 0 0-7.65.78c0 .29.037.579.11.86a3.852 3.852 0 0 1 3.7-2.98z" fill="#9ceb60"/><path d="M46.579 39.523h-9.29a.503.503 0 0 1-.371-.165 4.347 4.347 0 0 1-1.03-2.038 4.329 4.329 0 0 1 .63-3.276 4.331 4.331 0 0 1 2.763-1.873 4.338 4.338 0 0 1 3.276.63 4.338 4.338 0 0 1 1.679 2.092 2.343 2.343 0 0 1 1.07-.229c.834 0 1.627.399 2.122 1.069.42.566.594 1.263.489 1.96a2.624 2.624 0 0 1-1.04 1.732.5.5 0 0 1-.298.098zm-9.057-1h8.881a1.62 1.62 0 0 0 .525-.978 1.626 1.626 0 0 0-.304-1.218 1.647 1.647 0 0 0-1.319-.664H45.3c-.38.001-.748.136-1.037.381a.498.498 0 0 1-.812-.28 3.36 3.36 0 1 0-5.929 2.759z" fill="#45413c"/></svg>