<svg xmlns="http://www.w3.org/2000/svg" viewBox="0 0 48 48" width="512" height="512"><ellipse cx="24" cy="46.5" rx="11" ry="1.5" opacity=".15" fill="#45413c"/><path d="M24 45.5c-5.782 0-10.47-4.688-10.47-10.47V11C13.513 5.218 18.188.517 23.97.5H24c5.782 0 10.47 4.688 10.47 10.47V35c.017 5.782-4.658 10.483-10.44 10.5H24z" fill="#daedf7"/><path d="M24 .5c-5.782 0-10.47 4.688-10.47 10.47V13.61c0-5.782 4.688-10.47 10.47-10.47s10.47 4.688 10.47 10.47V11C34.487 5.218 29.812.517 24.03.5H24z" fill="#fff"/><path d="M24.031 46H24c-6.049 0-10.97-4.921-10.97-10.97V11C13.013 4.953 17.92.018 23.968 0 30.049 0 34.97 4.921 34.97 10.97V35c.017 6.048-4.89 10.982-10.939 11zM24 1c-5.526.016-9.985 4.501-9.97 9.999V35c0 5.527 4.473 10 9.97 10h.03a9.909 9.909 0 0 0 7.04-2.94 9.908 9.908 0 0 0 2.899-7.059V11C33.97 5.472 29.497 1 24 1z" fill="#45413c"/><path d="M24 42.88a7.85 7.85 0 0 1-7.85-7.85V11a7.85 7.85 0 0 1 7.82-7.88H24a7.85 7.85 0 0 1 7.85 7.85V35a7.85 7.85 0 0 1-7.82 7.88H24z" fill="#87898c"/><path d="M24 3.12a7.85 7.85 0 0 0-7.85 7.85v2.78a7.85 7.85 0 0 1 7.853-7.847 7.85 7.85 0 0 1 7.847 7.847V11a7.85 7.85 0 0 0-7.82-7.88H24z" fill="#656769"/><path d="M24.032 43.38H24c-4.604 0-8.35-3.746-8.35-8.35V11c-.018-4.602 3.714-8.362 8.318-8.38 4.636 0 8.382 3.746 8.382 8.35V35a8.29 8.29 0 0 1-2.423 5.911 8.295 8.295 0 0 1-5.895 2.469zM24 3.62c-4.081.016-7.366 3.325-7.35 7.378V35c0 4.083 3.297 7.38 7.35 7.38h.03c1.961-.008 3.804-.779 5.187-2.173s2.141-3.242 2.133-5.205V11c0-4.083-3.297-7.38-7.35-7.38z" fill="#45413c"/><circle cx="24" cy="23.5" r="4.5" fill="#ffe500"/><path d="M24 19a4.49 4.49 0 0 0-1.92 8.56l5-7.31A4.49 4.49 0 0 0 24 19z" fill="#fff48c"/><circle cx="24" cy="12" r="4.5" fill="#6dd627"/><path d="M24 7.5a4.49 4.49 0 0 0-1.92 8.56l5-7.31A4.49 4.49 0 0 0 24 7.5z" fill="#9ceb60"/><circle cx="24" cy="35" r="4.5" fill="#ff6242"/><path d="M24 30.5a4.49 4.49 0 0 0-1.92 8.56l5-7.31A4.49 4.49 0 0 0 24 30.5z" fill="#ff866e"/><path d="M24 28.5c-2.757 0-5-2.243-5-5s2.243-5 5-5 5 2.243 5 5-2.243 5-5 5zm0-9c-2.206 0-4 1.794-4 4s1.794 4 4 4 4-1.794 4-4-1.794-4-4-4zM24 17c-2.757 0-5-2.243-5-5s2.243-5 5-5 5 2.243 5 5-2.243 5-5 5zm0-9c-2.206 0-4 1.794-4 4s1.794 4 4 4 4-1.794 4-4-1.794-4-4-4zM24 40c-2.757 0-5-2.243-5-5s2.243-5 5-5 5 2.243 5 5-2.243 5-5 5zm0-9c-2.206 0-4 1.794-4 4s1.794 4 4 4 4-1.794 4-4-1.794-4-4-4z" fill="#45413c"/><path d="M29 34.7c0 2.76-.81-2.5-5-2.5s-5 5.26-5 2.5a5 5 0 0 1 10 0z" fill="#bdbec0"/><path d="M19.142 36.005a.617.617 0 0 1-.178-.029c-.464-.145-.464-.694-.464-1.276 0-3.032 2.467-5.5 5.5-5.5 3.032 0 5.5 2.468 5.5 5.5 0 .582 0 1.131-.463 1.275-.444.138-.69-.229-1.011-.692C27.402 34.381 26.24 32.7 24 32.7c-2.239 0-3.401 1.681-4.026 2.583-.274.397-.499.722-.832.722zM24 30.2a4.507 4.507 0 0 0-4.471 3.983C20.307 33.144 21.673 31.7 24 31.7s3.693 1.443 4.471 2.483A4.507 4.507 0 0 0 24 30.2z" fill="#45413c"/><path d="M29 23.2c0 2.76-.81-2.5-5-2.5s-5 5.3-5 2.5a5 5 0 0 1 10 0z" fill="#bdbec0"/><path d="M19.143 24.521a.617.617 0 0 1-.178-.029c-.465-.145-.465-.677-.465-1.292 0-3.033 2.467-5.5 5.5-5.5 3.032 0 5.5 2.467 5.5 5.5 0 .582 0 1.131-.463 1.275-.444.135-.69-.229-1.011-.692C27.402 22.88 26.24 21.2 24 21.2c-2.233 0-3.396 1.687-4.021 2.593-.275.4-.501.728-.836.728zM24 18.7a4.507 4.507 0 0 0-4.473 4.001C20.304 21.657 21.671 20.2 24 20.2c2.327 0 3.693 1.443 4.471 2.483A4.508 4.508 0 0 0 24 18.7z" fill="#45413c"/><g><path d="M29 11.7c0 2.76-.81-2.5-5-2.5s-5 5.26-5 2.5a5 5 0 0 1 10 0z" fill="#bdbec0"/><path d="M19.142 13.005a.585.585 0 0 1-.178-.029c-.464-.145-.464-.694-.464-1.276 0-3.033 2.467-5.5 5.5-5.5 3.032 0 5.5 2.467 5.5 5.5 0 .582 0 1.131-.463 1.276-.444.138-.69-.23-1.011-.693C27.402 11.38 26.24 9.7 24 9.7c-2.239 0-3.401 1.68-4.026 2.583-.274.397-.499.722-.832.722zM24 7.2a4.508 4.508 0 0 0-4.471 3.983C20.307 10.144 21.673 8.7 24 8.7s3.693 1.443 4.471 2.483A4.508 4.508 0 0 0 24 7.2z" fill="#45413c"/></g></svg>