<svg xmlns="http://www.w3.org/2000/svg" viewBox="0 0 44.5 44.5" width="512" height="512"><path d="M44.5 43.185c0 1-10 1.3-22.25 1.3S0 44.175 0 43.185s10-1.81 22.25-1.81 22.25.81 22.25 1.81z" opacity=".15" fill="#45413c"/><path d="M4.87.515h34.76a3.59 3.59 0 0 1 3.59 3.59v34.76a3.59 3.59 0 0 1-3.59 3.59H4.87a3.59 3.59 0 0 1-3.59-3.59V4.105A3.59 3.59 0 0 1 4.87.515z" fill="#fff"/><path d="M39.62 39.485H4.88a3.6 3.6 0 0 1-3.63-3.57v-.05 3a3.6 3.6 0 0 0 3.58 3.62h34.79a3.6 3.6 0 0 0 3.6-3.6v-3a3.6 3.6 0 0 1-3.6 3.6z" fill="#f0f0f0"/><path d="M39.63 42.955H4.87a4.095 4.095 0 0 1-4.09-4.091V4.105A4.095 4.095 0 0 1 4.87.015h34.76a4.094 4.094 0 0 1 4.09 4.09v34.76a4.095 4.095 0 0 1-4.09 4.09zM4.87 1.015a3.093 3.093 0 0 0-3.09 3.09v34.76a3.094 3.094 0 0 0 3.09 3.091h34.76a3.094 3.094 0 0 0 3.09-3.091V4.105a3.093 3.093 0 0 0-3.09-3.09H4.87z" fill="#45413c"/><path d="M5.48 3.515h33.55a1.2 1.2 0 0 1 1.2 1.2v33.55a1.2 1.2 0 0 1-1.2 1.2H5.48a1.2 1.2 0 0 1-1.2-1.2V4.715a1.2 1.2 0 0 1 1.2-1.2z" fill="#bf8df2"/><path d="M39.03 39.965H5.48c-.938 0-1.7-.763-1.7-1.7V4.715c0-.938.763-1.7 1.7-1.7h33.55c.938 0 1.7.763 1.7 1.7v33.55c0 .937-.762 1.7-1.7 1.7zM5.48 4.015a.7.7 0 0 0-.7.7v33.55a.7.7 0 0 0 .7.7h33.55a.7.7 0 0 0 .7-.7V4.715a.7.7 0 0 0-.7-.7H5.48z" fill="#45413c"/><path d="M4.25 23.895h36v14.36a1.2 1.2 0 0 1-1.2 1.2H5.48a1.2 1.2 0 0 1-1.23-1.17V23.895z" fill="#6dd627"/><path d="M39.02 36.485H5.48a1.2 1.2 0 0 1-1.23-1.169v-.051 3a1.19 1.19 0 0 0 1.23 1.22h33.54a1.19 1.19 0 0 0 1.2-1.18v-3.02a1.2 1.2 0 0 1-1.2 1.2z" fill="#46b000"/><path d="M34.16 15.115a3.22 3.22 0 0 1 0-6.44c.143-.01.287-.01.43 0a4.811 4.811 0 0 0-3.05-1.08 4.869 4.869 0 0 0-4.849 4.89 4.869 4.869 0 0 0 9.249 2.109 3.216 3.216 0 0 1-1.78.521z" fill="#ffe500"/><path d="M31.561 17.835a5.377 5.377 0 0 1-5.37-5.347 5.378 5.378 0 0 1 5.348-5.393h.014c1.22 0 2.409.423 3.354 1.192a.5.5 0 0 1 .149.572.483.483 0 0 1-.501.314 2.658 2.658 0 0 0-.357 0c-1.536.001-2.756 1.222-2.756 2.721 0 1.5 1.22 2.72 2.72 2.72h.025a2.72 2.72 0 0 0 1.482-.439.5.5 0 0 1 .722.638 5.336 5.336 0 0 1-4.807 3.021l-.023.001zm-.008-9.74h-.012a4.376 4.376 0 0 0-4.351 4.389 4.376 4.376 0 0 0 4.37 4.351h.019a4.345 4.345 0 0 0 3.042-1.245c-.153.018-.308.02-.462.025a3.724 3.724 0 0 1-3.719-3.72 3.728 3.728 0 0 1 2.581-3.542 4.325 4.325 0 0 0-1.468-.258zM5.438 39.956a1.7 1.7 0 0 1-1.687-1.658V23.895a.5.5 0 0 1 .5-.5h36a.5.5 0 0 1 .5.5v14.36c0 .938-.763 1.7-1.7 1.7H5.48l-.042.001zM4.75 24.395v13.86c.01.403.347.718.717.7H39.05a.7.7 0 0 0 .7-.7v-13.86h-35z" fill="#45413c"/><path d="M22.25 19.775l-2.62 14.31 8.43-3.77a.59.59 0 0 0 .26-.86l-6.07-9.68z" fill="#ffaa54"/><path d="M19.63 34.585a.499.499 0 0 1-.492-.589l2.62-14.311a.5.5 0 0 1 .915-.175l6.07 9.681a1.084 1.084 0 0 1 .095.982 1.087 1.087 0 0 1-.58.602l-8.425 3.768a.51.51 0 0 1-.203.042zm2.88-13.454l-2.217 12.11 7.563-3.382.05-.121-5.396-8.607z" fill="#45413c"/><path d="M22.25 19.775L12 17.375a.6.6 0 0 0-.718.452l-.002.008c-.15.76-.51 2.35-1.31 5.39a33.965 33.965 0 0 1-2.54 6.84.59.59 0 0 0 .38.84l11.82 3.18 2.62-14.31z" fill="#ff8a14"/><path d="M21.52 23.765l.73-4-10.24-2.4a.599.599 0 0 0-.725.44l-.005.02c-.12.61-.38 1.76-.89 3.77l11.13 2.17z" fill="#ffaa54"/><path d="M19.63 34.585a.485.485 0 0 1-.13-.018l-11.82-3.18a1.085 1.085 0 0 1-.761-.718 1.084 1.084 0 0 1 .066-.832 33.519 33.519 0 0 0 2.5-6.735c.855-3.249 1.184-4.755 1.304-5.364a1.11 1.11 0 0 1 1.321-.851l10.253 2.401a.5.5 0 0 1 .378.577l-2.62 14.311a.497.497 0 0 1-.491.409zM11.866 17.86a.102.102 0 0 0-.097.079c-.121.614-.455 2.143-1.315 5.414a34.54 34.54 0 0 1-2.576 6.937c-.021.042 0 .105.038.125l11.321 3.048 2.437-13.308-9.786-2.292c-.009-.003-.015-.003-.022-.003z" fill="#45413c"/><path d="M24.319 32.485a.501.501 0 0 1-.492-.416l-2.07-12.21a.501.501 0 0 1 .987-.167l2.07 12.209a.501.501 0 0 1-.495.584z" fill="#45413c"/></svg>