<svg xmlns="http://www.w3.org/2000/svg" viewBox="0 0 46.67 46.67" width="512" height="512"><ellipse cx="25.05" cy="41.585" rx="17" ry="1.5" opacity=".15" fill="#45413c"/><path fill="#656769" d="M26.46 35.435h9.69v2.83h-9.69z"/><path d="M36.15 38.765h-9.69a.5.5 0 0 1-.5-.5v-2.83a.5.5 0 0 1 .5-.5h9.69a.5.5 0 0 1 .5.5v2.83a.5.5 0 0 1-.5.5zm-9.19-1h8.69v-1.83h-8.69v1.83z" fill="#45413c"/><path d="M40.67 36.685a3.9 3.9 0 1 1-3.91-3.89h.01a3.89 3.89 0 0 1 3.9 3.88v.01z" fill="#adc4d9"/><path d="M36.77 32.795a3.89 3.89 0 0 0-3.89 3.89 4.02 4.02 0 0 0 .06.71h7.67a4.02 4.02 0 0 0 .06-.71 3.89 3.89 0 0 0-3.89-3.89h-.01z" fill="#8ca4b8"/><path d="M29.61 36.685a3.9 3.9 0 1 1 0-.03v.03z" fill="#adc4d9"/><path d="M25.67 32.795a3.89 3.89 0 0 0-3.89 3.89 4.02 4.02 0 0 0 .06.71h7.66c.049-.233.072-.471.07-.71a3.9 3.9 0 0 0-3.9-3.89z" fill="#8ca4b8"/><path d="M36.77 41.095a4.404 4.404 0 0 1-4.399-4.389 4.405 4.405 0 0 1 4.389-4.411c1.145.023 2.285.451 3.117 1.277a4.364 4.364 0 0 1 1.294 3.102v.01a4.37 4.37 0 0 1-1.28 3.114 4.37 4.37 0 0 1-3.108 1.297h-.013zm.01-7.8h-.01a3.405 3.405 0 0 0-3.4 3.409 3.404 3.404 0 0 0 3.399 3.391h.01a3.371 3.371 0 0 0 2.401-1.002 3.374 3.374 0 0 0 .989-2.407v-.011a3.392 3.392 0 0 0-3.389-3.38zM25.709 41.095a4.369 4.369 0 0 1-3.103-1.281 4.372 4.372 0 0 1-1.296-3.108 4.412 4.412 0 0 1 4.355-4.41c1.159-.017 2.284.435 3.124 1.257s1.309 1.923 1.32 3.098l.001.034a4.407 4.407 0 0 1-4.39 4.411l-.011-.001zm.003-7.8h-.037a3.41 3.41 0 0 0-3.365 3.408 3.376 3.376 0 0 0 1.002 2.402 3.379 3.379 0 0 0 2.397.989h.01a3.406 3.406 0 0 0 3.392-3.409v-.001h.5l-.5-.004a3.391 3.391 0 0 0-1.021-2.415 3.383 3.383 0 0 0-2.378-.97z" fill="#45413c"/><path d="M27.53 36.685a1.82 1.82 0 1 1 0-.039v.039z" fill="#627b8c"/><path d="M25.71 39.005a2.324 2.324 0 0 1-2.32-2.32 2.332 2.332 0 0 1 2.269-2.319c.619.002 1.207.215 1.655.644.447.428.701 1.006.715 1.625l.001.051a2.324 2.324 0 0 1-2.32 2.319zm.001-3.64h-.03a1.326 1.326 0 0 0-1.29 1.319 1.321 1.321 0 0 0 1.32 1.32c.727 0 1.318-.593 1.319-1.32h.5-.5.5l-.5-.011a1.314 1.314 0 0 0-1.319-1.308z" fill="#45413c"/><path d="M38.6 36.685a1.83 1.83 0 1 1-1.84-1.82h.01a1.83 1.83 0 0 1 1.83 1.82z" fill="#627b8c"/><path d="M36.771 39.025c-.618 0-1.2-.239-1.64-.674a2.311 2.311 0 0 1-.691-1.645 2.31 2.31 0 0 1 .673-1.65 2.311 2.311 0 0 1 1.645-.691 2.337 2.337 0 0 1 2.342 2.316 2.31 2.31 0 0 1-.673 1.651 2.316 2.316 0 0 1-1.644.692l-.012.001zm-.001-3.66a1.324 1.324 0 0 0-.945.395c-.249.252-.386.587-.384.942s.142.688.395.938c.251.248.583.385.937.385h.007a1.331 1.331 0 0 0 1.321-1.338v-.001a1.334 1.334 0 0 0-1.331-1.321z" fill="#45413c"/><path d="M46.17 6.085a2 2 0 0 0-2-2c-13.4.06-19.32.86-22.81 3.24-3.67 2.5-7.57 7.54-12.94 10s-7.9 5.48-7.9 9.81 5.5 8.23 14.5 8.23h29.15a2 2 0 0 0 2-2V6.085z" fill="#fff"/><path d="M.76 24.995a9.3 9.3 0 0 0-.26 2.21c0 4.33 5.5 8.23 14.5 8.23h29.17a2 2 0 0 0 2-2v-1.81H15c-7.87 0-13.07-2.98-14.24-6.63z" fill="#e0e0e0"/><path d="M44.17 35.865H15.02c-9.848 0-15-4.392-15-8.73 0-4.503 2.526-7.669 8.192-10.264 3.299-1.512 6.09-4.072 8.553-6.331 1.5-1.376 2.918-2.677 4.313-3.627 3.557-2.426 9.383-3.266 23.09-3.327a2.503 2.503 0 0 1 2.502 2.5v27.28a2.502 2.502 0 0 1-2.5 2.499zm0-31.28c-13.476.061-19.16.856-22.528 3.153-1.336.91-2.728 2.187-4.201 3.538-2.517 2.309-5.369 4.926-8.812 6.503-5.262 2.41-7.608 5.295-7.608 9.355 0 3.747 4.907 7.73 14 7.73h29.15c.827 0 1.5-.673 1.5-1.5V6.085a1.503 1.503 0 0 0-1.501-1.5z" fill="#45413c"/><path d="M.5 27.205c0 3.48 3.55 6.68 9.62 7.81a14.269 14.269 0 0 0 2.28-7.81 13.942 13.942 0 0 0-3.93-9.84H8.4c-5.27 2.49-7.9 5.51-7.9 9.84z" fill="#00b8f0"/><path d="M.76 24.995a9.3 9.3 0 0 0-.26 2.21c0 3.48 3.55 6.68 9.62 7.81a13.983 13.983 0 0 0 1.66-3.57c-6.06-.69-10.01-3.36-11.02-6.45z" fill="#009fd9"/><path d="M10.12 35.515a.468.468 0 0 1-.091-.009C3.937 34.372 0 31.114 0 27.205c0-4.383 2.601-7.653 8.187-10.292.189-.088.497-.046.643.104a14.36 14.36 0 0 1 4.071 10.193 14.72 14.72 0 0 1-2.36 8.076.503.503 0 0 1-.421.229zM8.335 17.95C3.265 20.408 1 23.271 1 27.205c0 3.336 3.473 6.161 8.879 7.254a13.737 13.737 0 0 0 2.021-7.251 13.364 13.364 0 0 0-3.565-9.258z" fill="#45413c"/><path d="M13.08 40.585h9.1a1 1 0 0 0 .95-.68l1.54-4.47H13.52l-1.38 3.81a1 1 0 0 0 .94 1.34z" fill="#00b8f0"/><path fill="#009fd9" d="M23.93 37.565l.72-2.13H13.52l-.77 2.13z"/><path d="M22.183 41.085H13.08a1.493 1.493 0 0 1-1.358-.863 1.49 1.49 0 0 1-.052-1.146l1.38-3.811a.5.5 0 0 1 .47-.33h11.15a.5.5 0 0 1 .472.663l-1.54 4.471a1.497 1.497 0 0 1-1.419 1.016zm-8.312-5.15l-1.26 3.48a.499.499 0 0 0 .47.67H22.182a.5.5 0 0 0 .475-.34l1.313-3.811H13.871z" fill="#45413c"/><path d="M18.97 9.235c-1.93 1.69-4 3.75-6.32 5.54 7.3-.859 14.653-1.173 22-.94a1 1 0 0 0 .89-.5l1.92-3.31a1 1 0 0 0-.87-1.5h-8.25a77.914 77.914 0 0 0-9.37.71z" fill="#00b8f0"/><path d="M20.92 14.015c2.77-.16 5.39-.22 7.62-.24l3.95-5.25h-4.15c-1 0-2.07 0-3.13.1l-4.29 5.39z" fill="#4acfff"/><path d="M12.65 15.275a.501.501 0 0 1-.305-.896c1.546-1.193 2.971-2.499 4.349-3.762.667-.611 1.314-1.205 1.947-1.758a.505.505 0 0 1 .262-.12 78.563 78.563 0 0 1 9.43-.714H36.595a1.5 1.5 0 0 1 1.299 2.251l-1.92 3.311c-.273.475-.827.748-1.334.749a147.92 147.92 0 0 0-21.93.937l-.06.002zm6.537-5.565c-.592.521-1.196 1.075-1.818 1.645-.989.906-2.002 1.835-3.071 2.733 6.748-.714 13.59-.967 20.368-.752a.535.535 0 0 0 .44-.25l1.921-3.312a.5.5 0 0 0-.183-.682c-.077-.044-.18-.081-.253-.067H28.34a77.603 77.603 0 0 0-9.153.685z" fill="#45413c"/><g><path d="M17.59 26.185a1.42 1.42 0 1 1-1.43-1.41h.01c.78 0 1.415.63 1.42 1.41z" fill="#ffe500"/><path d="M16.172 28.115a1.923 1.923 0 0 1-1.922-1.906 1.91 1.91 0 0 1 .553-1.362c.36-.365.841-.568 1.354-.571 1.064 0 1.925.854 1.933 1.905.004.513-.192.997-.552 1.362a1.91 1.91 0 0 1-1.354.572h-.012zm-.002-2.84a.923.923 0 0 0-.655.273.911.911 0 0 0-.265.652c.003.508.4.956.927.914a.921.921 0 0 0 .913-.927.922.922 0 0 0-.92-.912z" fill="#45413c"/></g><g><path d="M28.27 30.355h17.9v-9.58h-14.5a.5.5 0 0 0-.47.31l-3.38 8.59a.5.5 0 0 0 .45.68z" fill="#00b8f0"/><path d="M46.17 30.854H28.261a.995.995 0 0 1-.889-.594.997.997 0 0 1-.019-.766l3.382-8.592c.16-.39.513-.619.941-.627H46.17a.5.5 0 0 1 .5.5v9.58a.5.5 0 0 1-.5.499zm-17.883-1H45.67v-8.58h-14l-3.383 8.58z" fill="#45413c"/></g><g><path d="M22.88 29.675l3.38-8.59a.488.488 0 0 1 .46-.31h1.36a.489.489 0 0 1 .46.68l-3.38 8.63a.481.481 0 0 1-.46.32h-1.36a.49.49 0 0 1-.46-.73z" fill="#00b8f0"/><path d="M23.282 30.907a.967.967 0 0 1-.626-.245.982.982 0 0 1-.337-.68.984.984 0 0 1 .106-.517l3.37-8.564c.148-.378.523-.619.929-.627h1.356c.534.004.988.428.998.973a.97.97 0 0 1-.077.4l-3.375 8.62c-.136.382-.474.67-.933.638H23.34a1.086 1.086 0 0 1-.058.002zm-.402-1.232l.436.244v-.005l1.384-.009 3.374-8.632-1.354.002-3.375 8.583-.465-.183zm0 0h.01-.01z" fill="#45413c"/></g></svg>