<svg xmlns="http://www.w3.org/2000/svg" viewBox="0 0 46.8 46.8" width="512" height="512"><ellipse cx="23.4" cy="45.3" rx="14.5" ry="1.5" opacity=".15" fill="#45413c"/><path d="M29.33 37.59a8 8 0 0 0-4.39 4.31v-7.86h-3.08v7.86a8.06 8.06 0 0 0-12.37-3.2 8.061 8.061 0 0 0 12.37 5.65h3.08a8.06 8.06 0 0 0 12.371-5.65 8.003 8.003 0 0 0-7.981-1.11z" fill="#6dd627"/><g fill="#46b000"><path d="M24.94 41.9a20.01 20.01 0 0 1 4.39-2.31 8.05 8.05 0 0 1 7.56.8 7.993 7.993 0 0 0 .42-1.69 8.06 8.06 0 0 0-12.37 3.2zM21.86 34.04h3.08v5.16h-3.08zM17.47 39.59c1.546.6 3.019 1.375 4.39 2.31a8.06 8.06 0 0 0-12.37-3.2c.078.577.219 1.144.42 1.69a8.05 8.05 0 0 1 7.56-.8z"/></g><path d="M17.467 46.149c-4.201 0-7.876-3.104-8.472-7.38a.5.5 0 0 1 .188-.464 8.576 8.576 0 0 1 1.909-1.124c3.731-1.586 7.975-.314 10.269 2.83V34.04a.5.5 0 0 1 .5-.5h3.08a.5.5 0 0 1 .5.5v5.973a8.56 8.56 0 0 1 3.701-2.886 8.519 8.519 0 0 1 8.478 1.18.5.5 0 0 1 .187.463 8.629 8.629 0 0 1-1.297 3.479c-2.542 3.917-7.768 5.066-11.714 2.602h-2.789a8.597 8.597 0 0 1-4.54 1.298zm-7.436-7.229c.709 3.975 4.452 6.712 8.485 6.156a7.59 7.59 0 0 0 3.072-1.146.498.498 0 0 1 .272-.081h3.08c.097 0 .191.028.272.08 3.494 2.27 8.188 1.272 10.456-2.227a7.618 7.618 0 0 0 1.101-2.785 7.509 7.509 0 0 0-7.25-.865l-.003.001a7.542 7.542 0 0 0-4.115 4.041.501.501 0 0 1-.961-.194v-7.36h-2.08v7.36a.5.5 0 0 1-.96.196c-1.633-3.836-6.08-5.629-9.917-3.995a7.538 7.538 0 0 0-1.452.819zm19.299-1.33h.01-.01z" fill="#45413c"/><path d="M17.94 6.21c2.55 2.55 5.64 8.92 3.62 11s-8.39-1.07-10.95-3.63-2.31-5.64-.29-7.67 5.08-2.25 7.62.3zM36.19 24.46c-2.56-2.55-8.93-5.66-10.95-3.66s1.07 8.43 3.62 11 5.6 2.32 7.62.3 2.26-5.09-.29-7.64z" fill="#ffe500"/><path d="M37.68 26.65a6.569 6.569 0 0 0-1.49-2.19c-2.15-2.15-7-4.67-9.69-4.22-.31.387-.486.864-.5 1.36 0 2.86 6.69 5.18 10.3 5.18a7.517 7.517 0 0 0 1.38-.13z" fill="#ebcb00"/><path d="M10.61 24.46c2.56-2.55 8.93-5.65 11-3.62s-1.12 8.39-3.67 10.96-5.6 2.32-7.62.3-2.26-5.09.29-7.64z" fill="#ffe500"/><path d="M10.5 26.8c3.61 0 10.3-2.32 10.3-5.18a2.278 2.278 0 0 0-.5-1.36c-2.69-.45-7.54 2.07-9.69 4.22a6.569 6.569 0 0 0-1.49 2.19c.455.086.917.129 1.38.13z" fill="#ebcb00"/><path d="M32.89 34.171h-.011c-1.555-.003-3.067-.701-4.374-2.019-2.1-2.116-4.431-6.513-4.417-9.439.004-.984.273-1.748.8-2.269 2.353-2.326 8.968.984 11.654 3.661l.001.001c2.583 2.583 2.699 5.938.29 8.347-1.108 1.109-2.508 1.718-3.943 1.718zm-5.744-13.514c-.662 0-1.204.152-1.555.499-.331.328-.5.853-.503 1.563-.012 2.563 2.209 6.798 4.126 8.729 1.116 1.125 2.385 1.722 3.667 1.724h.009c1.168 0 2.317-.506 3.236-1.425 1.653-1.653 2.205-4.438-.289-6.932-2.016-2.009-6.201-4.158-8.691-4.158zM13.91 34.171c-1.436 0-2.835-.609-3.943-1.718-1.113-1.112-1.722-2.524-1.715-3.977.007-1.555.701-3.065 2.005-4.37v-.001c2.684-2.672 9.315-5.963 11.703-3.623.535.524.809 1.284.815 2.259.02 2.866-2.346 7.259-4.48 9.411-1.308 1.317-2.82 2.016-4.375 2.019h-.01zm-2.947-9.357c-1.114 1.113-1.706 2.382-1.712 3.667-.005 1.183.5 2.342 1.422 3.265.921.921 2.076 1.437 3.244 1.425 1.283-.002 2.551-.598 3.667-1.724 1.992-2.007 4.208-6.154 4.19-8.699-.005-.699-.178-1.221-.516-1.552-1.697-1.665-7.747 1.08-10.295 3.618z" fill="#45413c"/><path d="M28.86 6.21c-2.55 2.55-5.64 8.92-3.62 11s8.39-1.07 11-3.63 2.31-5.59.29-7.62-5.13-2.3-7.67.25z" fill="#ffe500"/><path d="M10.32 8.66c2-2 5.06-2.26 7.62.29a17.646 17.646 0 0 1 4.08 7.47c.94-2.54-1.79-7.92-4.08-10.21-2.56-2.55-5.6-2.32-7.62-.3a4.921 4.921 0 0 0-1.36 5 5.22 5.22 0 0 1 1.36-2.25zM28.86 8.95c2.56-2.55 5.6-2.32 7.62-.29a5.234 5.234 0 0 1 1.36 2.22 4.921 4.921 0 0 0-1.36-5c-2-2-5.06-2.25-7.62.3-2.29 2.29-5 7.67-4.08 10.21a17.647 17.647 0 0 1 4.08-7.44z" fill="#fff48c"/><path d="M19.601 18.386c-2.885 0-7.231-2.339-9.344-4.453-2.587-2.585-2.704-5.952-.292-8.375 1.1-1.105 2.497-1.715 3.933-1.715h.001c1.562 0 3.081.697 4.394 2.015 2.671 2.671 5.962 9.293 3.625 11.701-.526.542-1.293.821-2.28.828l-.037-.001zM13.9 4.842h-.001c-1.168 0-2.313.505-3.224 1.42-1.657 1.666-2.21 4.464.289 6.964 1.971 1.97 6.072 4.159 8.636 4.16h.033c.708-.005 1.237-.181 1.569-.524 1.666-1.715-1.078-7.762-3.615-10.298-1.123-1.126-2.397-1.722-3.687-1.722zM27.199 18.386h-.063c-.975-.012-1.733-.29-2.255-.828-2.338-2.407.953-9.03 3.624-11.701 1.297-1.301 2.81-1.989 4.376-1.989h.001c1.465 0 2.886.618 4.002 1.74 1.129 1.134 1.746 2.555 1.737 3.999-.01 1.539-.712 3.037-2.031 4.331-2.157 2.115-6.526 4.448-9.391 4.448zm5.682-13.518c-1.295 0-2.563.586-3.667 1.695h-.001c-2.537 2.537-5.28 8.583-3.615 10.298.33.339.852.516 1.551.524h.053c2.548 0 6.673-2.187 8.688-4.163 1.126-1.104 1.725-2.356 1.732-3.623.007-1.176-.507-2.344-1.446-3.288-.927-.93-2.096-1.443-3.295-1.443zM28.86 6.21h.01-.01z" fill="#45413c"/><path d="M28.58 6.09c0 3.61-2.32 10.3-5.18 10.3s-5.18-6.69-5.18-10.3S20.54.5 23.4.5s5.18 1.98 5.18 5.59z" fill="#fff48c"/><path d="M23.4 3.13a4.94 4.94 0 0 1 5.08 4.37c.061-.468.094-.938.1-1.41C28.58 2.48 26.26.5 23.4.5s-5.18 2-5.18 5.59c.006.472.039.942.1 1.41a4.94 4.94 0 0 1 5.08-4.37z" fill="#fffacf"/><path d="M23.4 16.89c-3.281 0-5.68-7.103-5.68-10.8C17.72 2.447 20.003 0 23.4 0s5.68 2.447 5.68 6.09c0 3.697-2.399 10.8-5.68 10.8zM23.4 1c-2.843 0-4.68 1.998-4.68 5.09 0 3.599 2.313 9.8 4.68 9.8 2.367 0 4.68-6.201 4.68-9.8C28.08 2.998 26.243 1 23.4 1z" fill="#45413c"/><path d="M28.58 31.9c0-3.61-2.32-10.3-5.18-10.3s-5.18 6.69-5.18 10.3 2.32 5.6 5.18 5.6 5.18-1.99 5.18-5.6z" fill="#fff48c"/><path d="M23.4 27.8a6.157 6.157 0 0 0 4-1.49c-1-2.54-2.4-4.71-4-4.71s-3.08 2.2-4 4.71a6.157 6.157 0 0 0 4 1.49z" fill="#ffe500"/><path d="M23.4 38c-3.397 0-5.68-2.451-5.68-6.1 0-3.697 2.399-10.8 5.68-10.8s5.68 7.103 5.68 10.8c0 3.649-2.283 6.1-5.68 6.1zm0-15.9c-2.368 0-4.68 6.201-4.68 9.8 0 3.098 1.837 5.1 4.68 5.1s4.68-2.002 4.68-5.1c0-3.599-2.313-9.8-4.68-9.8z" fill="#45413c"/><path d="M10.5 13.8c3.61 0 10.3 2.32 10.3 5.18s-6.69 5.17-10.3 5.17S4.9 21.86 4.9 19s1.99-5.2 5.6-5.2zM36.3 13.8c-3.61 0-10.3 2.32-10.3 5.18s6.69 5.17 10.3 5.17 5.6-2.31 5.6-5.17-1.99-5.18-5.6-5.18z" fill="#fff48c"/><path d="M10.5 16.1c3.11 0 8.52 1.73 10 4 .218-.341.339-.735.35-1.14 0-2.86-6.69-5.18-10.3-5.18S4.9 16.14 4.9 19c.001.383.038.764.11 1.14.47-2.34 2.39-4.04 5.49-4.04zM36.3 16.1c3.12 0 5 1.73 5.49 4 .072-.376.109-.757.11-1.14 0-2.86-2-5.18-5.6-5.18S26 16.14 26 19c.026.41.164.804.4 1.14 1.38-2.34 6.79-4.04 9.9-4.04z" fill="#fffacf"/><path d="M10.5 24.65c-3.648 0-6.1-2.271-6.1-5.65 0-3.41 2.452-5.7 6.1-5.7 3.697 0 10.8 2.399 10.8 5.68 0 3.276-7.103 5.67-10.8 5.67zm0-10.35c-3.523 0-5.1 2.361-5.1 4.7 0 2.825 2.002 4.65 5.1 4.65 3.599 0 9.8-2.308 9.8-4.67 0-2.368-6.201-4.68-9.8-4.68zM36.3 24.65c-3.697 0-10.801-2.395-10.801-5.67 0-3.281 7.104-5.68 10.801-5.68 3.648 0 6.1 2.283 6.1 5.68 0 3.392-2.451 5.67-6.1 5.67zm0-10.35c-3.6 0-9.801 2.313-9.801 4.68 0 2.362 6.201 4.67 9.801 4.67 3.098 0 5.1-1.833 5.1-4.67 0-2.843-2.002-4.68-5.1-4.68z" fill="#45413c"/><circle cx="23.4" cy="19" r="6.21" fill="#ff8a14"/><path d="M23.4 15.39a6.21 6.21 0 0 1 6.07 4.91 6.21 6.21 0 1 0-12.14 0 6.21 6.21 0 0 1 6.07-4.91z" fill="#ffaa54"/><path d="M23.4 25.71c-3.7 0-6.71-3.01-6.71-6.71s3.01-6.71 6.71-6.71 6.71 3.01 6.71 6.71-3.01 6.71-6.71 6.71zm0-12.42c-3.148 0-5.71 2.562-5.71 5.71s2.562 5.71 5.71 5.71 5.71-2.562 5.71-5.71-2.562-5.71-5.71-5.71zM28.23 42.65a.5.5 0 0 1-.2-.958l4-1.75a.5.5 0 0 1 .4.916l-4 1.75a.489.489 0 0 1-.2.042zM18.569 42.65a.506.506 0 0 1-.2-.042l-4-1.75a.5.5 0 1 1 .4-.916l4 1.75a.5.5 0 0 1-.2.958z" fill="#45413c"/><path d="M23.4 13.29a.5.5 0 0 1-.5-.5V8.45a.5.5 0 0 1 1 0v4.34a.5.5 0 0 1-.5.5zM23.4 30.05a.5.5 0 0 1-.5-.5V25.2a.5.5 0 0 1 1 0v4.35a.5.5 0 0 1-.5.5zM19.01 15.11a.502.502 0 0 1-.354-.146l-3.07-3.07a.5.5 0 0 1 .707-.707l3.07 3.07a.5.5 0 0 1-.353.853zM30.86 26.96a.497.497 0 0 1-.354-.147l-3.07-3.08a.5.5 0 0 1 .709-.705l3.07 3.08a.5.5 0 0 1-.355.852zM17.19 19.5h-4.34a.5.5 0 0 1 0-1h4.34a.5.5 0 0 1 0 1zM33.95 19.5h-4.34a.5.5 0 0 1 0-1h4.34a.5.5 0 0 1 0 1zM15.94 26.96a.5.5 0 0 1-.354-.853l3.07-3.08a.5.5 0 0 1 .708.705l-3.07 3.08a.496.496 0 0 1-.354.148zM27.79 15.11a.5.5 0 0 1-.354-.853l3.07-3.07a.5.5 0 0 1 .707.707l-3.07 3.07a.498.498 0 0 1-.353.146z" fill="#45413c"/></svg>