<svg xmlns="http://www.w3.org/2000/svg" viewBox="0 0 43.274 43.274" width="512" height="512"><ellipse cx="22.463" cy="41.774" rx="14.5" ry="1.5" opacity=".15" fill="#45413c"/><path d="M16.253 42.164L.933 26.854a.69.69 0 0 1 .17-1.18l.94-.4c.257-.08.533-.08.79 0l7.63 1.57 5.82 5.82 1.59 7.61c.052.268.028.545-.07.8l-.38.93a.68.68 0 0 1-1.17.16z" fill="#4acfff"/><path d="M13.103 32.014l1.15-1.35-3.79-3.82-7.63-1.57a1.328 1.328 0 0 0-.79.07l-.94.37a.69.69 0 0 0-.17 1.18l1 1h.12c.25-.103.526-.128.79-.07l7.62 1.52 2.64 2.67z" fill="#80ddff"/><path d="M16.253 32.664l-.51-.51-6.22 3.3 3.2 3.19c.491.002.98-.068 1.45-.21a8.911 8.911 0 0 0 3-1.65l-.92-4.12z" fill="#00b8f0"/><path d="M16.793 42.93a1.175 1.175 0 0 1-.912-.432L.58 27.207c-.206-.158-.363-.44-.4-.757a1.183 1.183 0 0 1 .735-1.239l.933-.397a1.857 1.857 0 0 1 1.134-.018l7.582 1.559c.096.02.184.066.253.136l5.82 5.82a.496.496 0 0 1 .136.251l1.59 7.609c.072.368.039.74-.093 1.083l-.383.938c-.117.291-.341.52-.631.643-.15.063-.306.095-.463.095zM.822 25.884l.392.311c-.043.054-.044.111-.041.141s.017.084.07.126l15.363 15.35a.47.47 0 0 1 .042.047.182.182 0 0 0 .075.058c.08.033.204-.021.236-.098l.381-.933a.938.938 0 0 0 .042-.516l-1.559-7.457-5.608-5.608-7.483-1.541a.897.897 0 0 0-.541-.012l-.893.383-.476-.251z" fill="#45413c"/><path d="M38.81 24.103l1.98 1.98a1.4 1.4 0 0 1 0 1.98l-5.452 5.452-3.96-3.96 5.452-5.452a1.4 1.4 0 0 1 1.98 0z" fill="#c0dceb"/><path d="M35.338 34.015a.504.504 0 0 1-.354-.146l-3.96-3.96a.5.5 0 0 1 0-.707l5.452-5.452c.717-.717 1.968-.719 2.687 0l1.979 1.98c.741.74.741 1.946 0 2.687l-5.451 5.452a.5.5 0 0 1-.353.146zm-3.253-4.46l3.253 3.253 5.098-5.099a.9.9 0 0 0 0-1.272l-1.979-1.98a.92.92 0 0 0-1.272 0l-5.1 5.098z" fill="#45413c"/><path d="M17.01 2.317l1.98 1.98a1.4 1.4 0 0 1 0 1.98l-5.445 5.445-3.96-3.96 5.445-5.445a1.4 1.4 0 0 1 1.98 0z" fill="#c0dceb"/><path d="M13.545 12.222a.504.504 0 0 1-.354-.146l-3.96-3.96a.5.5 0 0 1 0-.707l5.445-5.445a1.903 1.903 0 0 1 2.687 0l1.979 1.98a1.902 1.902 0 0 1 0 2.687l-5.444 5.445a.5.5 0 0 1-.353.146zm-3.253-4.46l3.253 3.253 5.091-5.091a.901.901 0 0 0 0-1.273l-1.979-1.98a.901.901 0 0 0-1.273 0l-5.092 5.091z" fill="#45413c"/><path d="M36.313 38.064l-9.4-12-9.9-9.91-12-9.4a1.4 1.4 0 0 1 .341-2.4l1.91-.76a2.73 2.73 0 0 1 1.62-.14l15.58 3.33 11.87 11.89 3.29 15.51a2.895 2.895 0 0 1-.16 1.62l-.77 1.91a1.4 1.4 0 0 1-2.381.35z" fill="#4acfff"/><path fill="#00b8f0" d="M35.433 17.774l.9.89 1.13 5.33-7.72 5.69-2.82-3.59-.74-.73z"/><path d="M25.073 7.404l-1.84 2.21-14.3-3a2.748 2.748 0 0 0-1.63.14l-1.55.62-.7-.55a1.4 1.4 0 0 1 .341-2.4l1.91-.77a2.916 2.916 0 0 1 1.63-.14l15.53 3.26.609.63z" fill="#80ddff"/><path d="M37.4 39.081c-.245 0-.491-.049-.725-.146a1.891 1.891 0 0 1-.756-.564l-9.399-12-9.86-9.865L4.705 7.147a1.903 1.903 0 0 1 .462-3.258l1.912-.76a3.21 3.21 0 0 1 1.911-.164l15.578 3.33a.49.49 0 0 1 .249.136l11.87 11.89a.508.508 0 0 1 .136.25l3.29 15.51c.123.65.058 1.307-.186 1.91l-.77 1.91c-.195.474-.56.839-1.028 1.034a1.909 1.909 0 0 1-.729.146zm-.696-1.33a.9.9 0 0 0 1.528-.227L39 35.618c.172-.427.218-.89.133-1.341l-3.257-15.354L24.214 7.242l-15.435-3.3a2.23 2.23 0 0 0-1.327.115l-1.913.761a.901.901 0 0 0-.217 1.543l12 9.399 9.946 9.95 9.436 12.041z" fill="#45413c"/><path d="M7.463 32.274l18.14-21.82a8.855 8.855 0 0 1 1.51-1.43c4.44-3.84 11.14-6.55 14.17-3.52a4.35 4.35 0 0 1 1.09 1.91c.46-2.24.23-4.28-1.09-5.6-3-3-9.73-.31-14.17 3.53a8.397 8.397 0 0 0-1.51 1.42l-18.14 21.85a5.29 5.29 0 0 0-.94 5.29c.22-.592.538-1.143.94-1.63z" fill="#fff"/><path d="M37.763 15.994c3.84-4.44 6.56-11.14 3.52-14.18s-9.73-.31-14.17 3.53a8.397 8.397 0 0 0-1.51 1.42l-18.14 21.85a5.11 5.11 0 0 0 .11 6.89 5.12 5.12 0 0 0 6.89.12l21.88-18.13a8.733 8.733 0 0 0 1.42-1.5z" fill="#e8f4fa"/><path d="M11.087 37.406a5.613 5.613 0 0 1-3.857-1.538c-2.024-2.146-2.076-5.398-.142-7.586l18.13-21.838a8.908 8.908 0 0 1 1.601-1.504c4.739-4.1 11.566-6.732 14.818-3.48 3.256 3.255.636 10.076-3.483 14.847a9.243 9.243 0 0 1-1.491 1.571l-21.88 18.131a5.589 5.589 0 0 1-3.696 1.397zM37.698.999c-3.065 0-7.101 1.993-10.257 4.722a8.07 8.07 0 0 0-1.453 1.361l-18.14 21.85a4.593 4.593 0 0 0 .089 6.229 4.598 4.598 0 0 0 6.196.087l21.891-18.139c.5-.416.95-.891 1.338-1.414l.023-.029c3.886-4.493 6.273-10.771 3.545-13.5-.81-.809-1.934-1.167-3.232-1.167z" fill="#45413c"/><path d="M37.293 5.804a7.419 7.419 0 0 0-6.42-2l-.34 3a.7.7 0 0 0 .81.78c1-.17 2.63-.16 3.47.68s.86 2.51.68 3.48a.7.7 0 0 0 .78.81l3-.34a7.466 7.466 0 0 0-1.98-6.41z" fill="#00b8f0"/><path d="M30.873 3.784l-.34 3a.7.7 0 0 0 .81.78 6.469 6.469 0 0 1 1.73-.05l4.12-1.85a7.446 7.446 0 0 0-6.32-1.88z" fill="#4acfff"/><path d="M36.186 13.06a1.194 1.194 0 0 1-.98-.505A1.192 1.192 0 0 1 35 11.66c.158-.854.144-2.359-.541-3.042-.624-.625-1.974-.722-3.032-.541a1.191 1.191 0 0 1-1.15-.451 1.193 1.193 0 0 1-.24-.887l.339-2.992a.5.5 0 0 1 .413-.437 7.948 7.948 0 0 1 6.853 2.135l.012.012a8.003 8.003 0 0 1 2.112 6.839.5.5 0 0 1-.437.414l-3 .34a.944.944 0 0 1-.143.01zm-3.797-6.061c.885 0 2.032.166 2.777.911 1.029 1.028.999 2.951.818 3.925a.193.193 0 0 0 .036.14c.018.025.059.07.13.082l2.681-.297a7.002 7.002 0 0 0-1.893-5.604 6.945 6.945 0 0 0-5.612-1.912l-.295 2.616c-.011.08.02.131.038.156.02.024.062.067.133.076.19-.03.638-.093 1.187-.093z" fill="#45413c"/><path d="M37.763 16.494a.498.498 0 0 1-.395-.807 7.33 7.33 0 0 0-.44-9.542c-2.63-2.467-6.637-2.651-9.507-.408a.5.5 0 0 1-.615-.787 8.284 8.284 0 0 1 10.829.489c2.846 3.04 3.057 7.598.522 10.861a.495.495 0 0 1-.394.194z" fill="#45413c"/><g><path d="M7.593 35.504a1.41 1.41 0 0 1-.006-1.994l.006-.006 5.45-5.45a1.415 1.415 0 0 1 2 2l-5.45 5.45a1.41 1.41 0 0 1-2 0z" fill="#4acfff"/><path d="M8.594 36.419c-.487 0-.975-.185-1.347-.555l-.006-.006a1.894 1.894 0 0 1-.563-1.349 1.9 1.9 0 0 1 .556-1.353L12.69 27.7c.723-.723 1.984-.723 2.707 0a1.917 1.917 0 0 1 0 2.707l-5.45 5.45a1.904 1.904 0 0 1-1.353.562zm-.648-1.268c.393.355.948.344 1.292 0L14.69 29.7a.916.916 0 0 0 0-1.293.935.935 0 0 0-1.293 0l-5.45 5.45a.912.912 0 0 0-.001 1.292v.002z" fill="#45413c"/></g></svg>