<svg xmlns="http://www.w3.org/2000/svg" viewBox="0 0 47 47" width="512" height="512"><path d="M31.405 20.8v3.63h3.23c.889 0 1.61.721 1.61 1.61v4.8a3.23 3.23 0 0 1-2 3L31.405 35v4.44l4.56-2a6.44 6.44 0 0 0 3.92-5.93v-6.67a4 4 0 0 0-4-4l-4.48-.04z" fill="#e5feff"/><path d="M31.405 39.94a.498.498 0 0 1-.5-.5V35a.5.5 0 0 1 .311-.463l2.84-1.16a2.716 2.716 0 0 0 1.689-2.535V26.05c0-.622-.498-1.12-1.11-1.12h-3.229a.5.5 0 0 1-.5-.5V20.8a.504.504 0 0 1 .504-.5l4.479.04a4.504 4.504 0 0 1 4.495 4.5v6.67a6.928 6.928 0 0 1-4.225 6.391l-4.554 1.998a.49.49 0 0 1-.2.041zm.5-4.604v3.339l3.858-1.692a5.93 5.93 0 0 0 3.621-5.473v-6.67c0-1.93-1.57-3.5-3.5-3.5l-3.979-.036v2.625h2.729c1.164 0 2.11.946 2.11 2.11v4.8a3.71 3.71 0 0 1-2.31 3.462l-2.529 1.035z" fill="#45413c"/><path d="M32.615 41.87h-23a4.13 4.13 0 0 0 1.21-2.87V17.17h20.58V39a4.173 4.173 0 0 0 1.21 2.92v-.05z" fill="#ffe500"/><path d="M20.915 17.17h-10.09V39a4.127 4.127 0 0 1-1.21 2.92h11.3V17.17z" fill="#fff48c"/><ellipse cx="21.115" cy="45.5" rx="14.5" ry="1.5" opacity=".15" fill="#45413c"/><path d="M32.615 42.42a.504.504 0 0 1-.218-.05H9.615a.501.501 0 0 1-.354-.854 3.61 3.61 0 0 0 1.063-2.522V17.17a.5.5 0 0 1 .5-.5h20.58a.5.5 0 0 1 .5.5V39c.004.899.331 1.751.925 2.418a.5.5 0 0 1 .285.452v.05a.5.5 0 0 1-.499.5zm-21.971-1.05H31.56a4.648 4.648 0 0 1-.654-2.368V17.67h-19.58V39a4.623 4.623 0 0 1-.682 2.37z" fill="#45413c"/><circle cx="14.465" cy="26.45" r="1.21" fill="#ebcb00"/><circle cx="28.585" cy="23.22" r=".81" fill="#ebcb00"/><circle cx="31.815" cy="8.52" r="1.15" fill="#fff"/><path d="M31.815 10.17c-.91 0-1.65-.74-1.65-1.65s.74-1.65 1.65-1.65a1.65 1.65 0 0 1 0 3.3zm0-2.3c-.358 0-.65.292-.65.65s.292.65.65.65a.65.65 0 0 0 0-1.3z" fill="#45413c"/><circle cx="10.225" cy="8.33" r="1.01" fill="#fff"/><path d="M10.225 9.84a1.511 1.511 0 0 1 0-3.02c.833 0 1.51.678 1.51 1.51s-.677 1.51-1.51 1.51zm0-2.02a.51.51 0 1 0 .002 1.022.51.51 0 0 0-.002-1.022z" fill="#45413c"/><path d="M10.825 19.62c.143.009.287.009.43 0 .447 0 .889-.102 1.29-.3v2.88a1.08 1.08 0 1 0 2.15 0v-2.75c.417.136.852.207 1.29.21.289-.002.578-.036.86-.1v5.26a1.94 1.94 0 0 0 3.87 0v-5.16a5.52 5.52 0 0 0 3-.88 4.22 4.22 0 0 0 5.17 0 3 3 0 0 0 2.14.89c.126.01.254.01.38 0v-2.5h-20.58v2.45z" opacity=".15" fill="#45413c"/><g fill="#45413c"><path d="M15.535 1.61a.5.5 0 0 1-.5-.5V.5a.5.5 0 0 1 1 0v.61a.5.5 0 0 1-.5.5zM16.825 2.14a.5.5 0 0 1-.358-.849l.42-.43a.5.5 0 0 1 .716.698l-.42.43a.497.497 0 0 1-.358.151zM17.955 3.42h-.6a.5.5 0 0 1 0-1h.6a.5.5 0 0 1 0 1zM17.245 5.13c-.13 0-.26-.05-.357-.15l-.42-.43a.5.5 0 0 1 .715-.699l.42.43a.5.5 0 0 1-.358.849zM15.535 5.84a.5.5 0 0 1-.5-.5v-.6a.5.5 0 0 1 1 0v.6a.5.5 0 0 1-.5.5zM13.825 5.13a.5.5 0 0 1-.354-.853l.43-.43a.5.5 0 0 1 .707.707l-.43.43a.498.498 0 0 1-.353.146zM13.725 3.42h-.61a.5.5 0 0 1 0-1h.61a.5.5 0 0 1 0 1zM14.255 2.14a.502.502 0 0 1-.354-.146l-.43-.43a.5.5 0 0 1 .707-.707l.43.43a.5.5 0 0 1-.353.853z"/></g><g fill="#45413c"><path d="M25.146 5.48a.5.5 0 0 1-.5-.5V3.37a.5.5 0 0 1 1 0v1.61a.5.5 0 0 1-.5.5z"/><path d="M25.945 4.68h-1.61a.5.5 0 0 1 0-1h1.61a.5.5 0 0 1 0 1z"/></g><path d="M34.035 15.14a3 3 0 0 0-3-3 3.064 3.064 0 0 0-.75.1 4.3 4.3 0 0 0-4-2.68 4.532 4.532 0 0 0-.83.08 5.58 5.58 0 0 0-9.46-.08 4.3 4.3 0 0 0-4 2.68 3.064 3.064 0 0 0-.75-.1 3 3 0 0 0 0 6c.447 0 .889-.102 1.29-.3v2.88a1.079 1.079 0 0 0 2.15 0v-2.78c.417.136.852.207 1.29.21.289-.002.578-.036.86-.1v5.26a1.94 1.94 0 0 0 3.87 0v-5.16a5.52 5.52 0 0 0 3-.88 4.22 4.22 0 0 0 5.17 0 3 3 0 0 0 5.15-2.12l.01-.01z" fill="#fff"/><path d="M18.766 25.61a2.421 2.421 0 0 1-1.593-.595 2.421 2.421 0 0 1-.836-1.67l-.001-4.712c-.119.01-.238.016-.357.017a4.743 4.743 0 0 1-.793-.071v2.142c-.074.798-.672 1.396-1.423 1.469a1.588 1.588 0 0 1-1.725-1.42l-.002-2.221a3.43 3.43 0 0 1-.788.093h-.003a3.505 3.505 0 0 1-3.498-3.498c0-.935.363-1.814 1.023-2.476a3.478 3.478 0 0 1 2.934-.993 4.774 4.774 0 0 1 4.019-2.607 6.12 6.12 0 0 1 1.794-1.688 6.042 6.042 0 0 1 4.596-.732 6.037 6.037 0 0 1 3.583 2.45 4.74 4.74 0 0 1 .606-.038 4.775 4.775 0 0 1 4.273 2.613c.15-.021.303-.032.455-.033a3.505 3.505 0 0 1 3.505 3.5.567.567 0 0 1-.01.101 3.523 3.523 0 0 1-1.06 2.446 3.507 3.507 0 0 1-4.63.223 4.723 4.723 0 0 1-5.154-.041 6.003 6.003 0 0 1-2.477.762v4.68c-.087 1.237-1.058 2.208-2.259 2.294a3.532 3.532 0 0 1-.179.005zm-1.931-8.06a.5.5 0 0 1 .5.5v5.26c.026.348.202.698.492.95a1.41 1.41 0 0 0 1.046.347 1.447 1.447 0 0 0 1.333-1.332l-.001-5.125a.5.5 0 0 1 .5-.5h.01c.966 0 1.906-.276 2.719-.8a.501.501 0 0 1 .577.025 3.72 3.72 0 0 0 4.557 0 .5.5 0 0 1 .665.046 2.503 2.503 0 0 0 4.292-1.767c0-.033.003-.065.009-.096a2.503 2.503 0 0 0-2.499-2.418 2.58 2.58 0 0 0-.623.083.5.5 0 0 1-.59-.295 3.784 3.784 0 0 0-3.52-2.369h-.016a4.075 4.075 0 0 0-.739.071.498.498 0 0 1-.519-.229 5.047 5.047 0 0 0-3.148-2.283 5.048 5.048 0 0 0-3.839.612c-.652.4-1.214.953-1.625 1.598a.499.499 0 0 1-.421.231h-.017a3.782 3.782 0 0 0-3.52 2.369.5.5 0 0 1-.591.295 2.48 2.48 0 0 0-2.389.65 2.483 2.483 0 0 0-.731 1.768 2.504 2.504 0 0 0 2.499 2.499h.002c.367 0 .736-.086 1.066-.249a.5.5 0 0 1 .721.448v2.88c.029.27.31.498.631.474a.58.58 0 0 0 .521-.521l-.002-2.732a.5.5 0 0 1 .656-.475c.368.12.751.183 1.138.185a3.46 3.46 0 0 0 .746-.087.453.453 0 0 1 .11-.013zm17.2-2.41h.01-.01z" fill="#45413c"/><circle cx="26.565" cy="34.52" r="1.21" fill="#ebcb00"/><circle cx="16.885" cy="36.94" r=".81" fill="#ebcb00"/><circle cx="13.255" cy="30.75" r=".81" fill="#ebcb00"/><circle cx="24.145" cy="26.85" r=".81" fill="#ebcb00"/><g><path d="M20.335 31.3a1.61 1.61 0 1 1-3.21 0 10.45 10.45 0 0 1 1.36-3.08.32.32 0 0 1 .27-.16.3.3 0 0 1 .26.16 10.196 10.196 0 0 1 1.32 3.08z" fill="#fff"/><path d="M18.73 33.537a2.116 2.116 0 0 1-2.104-2.274 10.846 10.846 0 0 1 1.44-3.316.816.816 0 0 1 .676-.387c.314.005.58.169.716.428a10.566 10.566 0 0 1 1.363 3.193.534.534 0 0 1 .013.08 2.114 2.114 0 0 1-2.104 2.276zm-1.117-2.119c.006 0 .007.049.01.099a1.119 1.119 0 0 0 1.194 1.018 1.112 1.112 0 0 0 1.021-1.158 9.664 9.664 0 0 0-1.091-2.637 9.973 9.973 0 0 0-1.14 2.687l.006-.009zm.981-2.929a.03.03 0 0 0 .006.011c-.001-.004-.004-.007-.006-.011zm.324-.02z" fill="#45413c"/></g><g><path d="M34.235 43.68a1.79 1.79 0 0 1-1.75 1.82H9.765a1.82 1.82 0 0 1 0-3.63h22.72a1.79 1.79 0 0 1 1.75 1.81z" fill="#e5feff"/><path d="M9.765 46c-1.313-.096-2.273-1.211-2.179-2.487a2.333 2.333 0 0 1 2.142-2.142l22.757-.001a2.3 2.3 0 0 1 2.25 2.308A2.294 2.294 0 0 1 32.496 46H9.765zm22.71-3.63H9.765c-.609.047-1.133.57-1.182 1.217a1.32 1.32 0 0 0 1.219 1.414L32.485 45a1.291 1.291 0 0 0 1.25-1.312v-.015a1.294 1.294 0 0 0-1.26-1.303z" fill="#45413c"/></g></svg>