<svg xmlns="http://www.w3.org/2000/svg" viewBox="0 0 45.83 45.83" width="512" height="512"><path d="M36.647 10.98a4.52 4.52 0 0 1-.81-4.43 6.947 6.947 0 0 1 3.63-3.63A3.312 3.312 0 0 0 41.117.5s3.3 4.58 1.61 8.47c-1.61 3.69-4 2.82-4 2.82l-2.08-.81z" fill="#f7e5c6"/><path d="M39.467 2.92a6.998 6.998 0 0 0-3.59 3.55 5 5 0 0 1 3.71.08 5 5 0 0 1 3 2.59l.08-.17c1.72-3.89-1.55-8.47-1.55-8.47a3.31 3.31 0 0 1-1.65 2.42z" fill="#fff5e3"/><path d="M39.341 12.369c-.47 0-.775-.105-.784-.109l-2.091-.814a.499.499 0 0 1-.2-.143 5.039 5.039 0 0 1-.9-4.92 7.433 7.433 0 0 1 3.903-3.922c.709-.404 1.232-1.171 1.354-2.031a.5.5 0 0 1 .9-.223c.142.197 3.446 4.858 1.664 8.962-1.2 2.747-2.874 3.2-3.846 3.2zm-2.39-1.808l1.958.763c.064.019 1.974.624 3.36-2.554 1.13-2.603-.184-5.606-1.002-7.075a3.833 3.833 0 0 1-1.555 1.66c-1.566.678-2.763 1.874-3.417 3.392a4.026 4.026 0 0 0 .656 3.814z" fill="#45413c"/><path d="M38.417 12.06a.5.5 0 0 1-.32-.885 6.602 6.602 0 0 0 2.121-3.199.5.5 0 1 1 .957.288 7.608 7.608 0 0 1-2.439 3.681.5.5 0 0 1-.319.115z" fill="#45413c"/><path d="M37.437 11.75a.5.5 0 0 1-.493-.425 7.391 7.391 0 0 1 .472-3.926.5.5 0 1 1 .923.381 6.394 6.394 0 0 0-.407 3.395.499.499 0 0 1-.495.575z" fill="#45413c"/><ellipse cx="23.117" cy="44.33" rx="11.5" ry="1.5" opacity=".15" fill="#45413c"/><path d="M20.117 5.44c-9.67 0-17.5 4.72-17.5 13v.07a3.82 3.82 0 0 0 5.74 3.22l3.12-1.74a1.1 1.1 0 0 1 1.47 1.53l-4.32 7a3.46 3.46 0 0 0 1.39 4.93 19.587 19.587 0 0 0 8.63 2c9.66 0 17.5-6.71 17.5-15s-6.34-15.01-16.03-15.01zm-3 26.5c-1.66 0-3-1-3-2.25s1.34-2.25 3-2.25 3 1 3 2.25-1.32 2.25-3 2.25z" fill="#f0d5a8"/><path d="M20.117 8.44c9 0 15.15 5.87 15.91 13.41.055-.468.085-.939.09-1.41 0-8.28-6.34-15-16-15s-17.5 4.72-17.5 13v.07c.001.356.055.71.16 1.05 1.13-7.11 8.46-11.12 17.34-11.12z" fill="#f7e5c6"/><path d="M18.641 35.95c-3.05 0-6.107-.709-8.844-2.051a3.963 3.963 0 0 1-1.593-5.645l4.319-6.998a.598.598 0 0 0-.35-.876.6.6 0 0 0-.456.048l-3.115 1.737a4.327 4.327 0 0 1-2.072.581c-1.18.016-2.248-.401-3.081-1.2s-1.306-1.873-1.331-3.027c0-8.155 7.234-13.581 18-13.581 9.578 0 16.53 6.523 16.53 15.51 0 8.547-8.075 15.5-18 15.5-.003.002-.005.002-.007.002zm-6.64-16.594a1.59 1.59 0 0 1 1.407.836 1.607 1.607 0 0 1-.031 1.583l-4.325 7.006a2.965 2.965 0 0 0 1.189 4.222 19.194 19.194 0 0 0 8.399 1.946h.006c9.375 0 17-6.505 17-14.5 0-8.408-6.531-14.51-15.53-14.51-8.462 0-17 3.865-17 12.5.019.946.382 1.772 1.022 2.385.641.614 1.481.94 2.368.922a3.334 3.334 0 0 0 1.599-.449l3.127-1.744c.243-.131.505-.197.769-.197zm5.116 13.084c-1.962 0-3.5-1.208-3.5-2.75s1.538-2.75 3.5-2.75 3.5 1.208 3.5 2.75-1.537 2.75-3.5 2.75zm0-4.5c-1.378 0-2.5.785-2.5 1.75s1.122 1.75 2.5 1.75 2.5-.785 2.5-1.75-1.121-1.75-2.5-1.75z" fill="#45413c"/><ellipse cx="27.497" cy="26.19" rx="3.15" ry="2.25" fill="#ff6242"/><ellipse cx="28.897" cy="16.15" rx="2.75" ry="2.29" fill="#ff8a14"/><ellipse cx="10.347" cy="13.19" rx="2.7" ry="2.25" fill="#6dd627"/><ellipse cx="20.067" cy="10.69" rx="2.93" ry="2.25" fill="#ffe500"/><path d="M27.497 25.31a3.19 3.19 0 0 1 3 1.57c.106-.215.163-.45.17-.69 0-1.24-1.41-2.25-3.15-2.25s-3.15 1-3.15 2.25c.003.239.058.474.16.69a3.2 3.2 0 0 1 2.97-1.57z" fill="#e04122"/><path d="M28.897 15.23a2.72 2.72 0 0 1 2.61 1.6c.088-.216.135-.447.14-.68a2.55 2.55 0 0 0-2.75-2.32 2.55 2.55 0 0 0-2.778 2.299l-.002.021c0 .234.048.465.14.68a2.72 2.72 0 0 1 2.64-1.6z" fill="#eb6d00"/><path d="M10.347 12.31a2.68 2.68 0 0 1 2.56 1.57c.087-.22.135-.454.14-.69a2.51 2.51 0 0 0-2.7-2.25 2.51 2.51 0 0 0-2.7 2.25c.001.237.049.471.14.69a2.67 2.67 0 0 1 2.56-1.57z" fill="#46b000"/><path d="M20.117 9.83a2.94 2.94 0 0 1 2.78 1.57c.095-.218.146-.452.15-.69 0-1.24-1.31-2.25-2.93-2.25s-3 .99-3 2.23c.004.238.055.472.15.69a2.93 2.93 0 0 1 2.85-1.55z" fill="#ebcb00"/><path d="M27.497 28.94c-2.013 0-3.649-1.233-3.649-2.75s1.637-2.75 3.649-2.75 3.65 1.233 3.65 2.75-1.637 2.75-3.65 2.75zm0-4.5c-1.437 0-2.649.802-2.649 1.75s1.213 1.75 2.649 1.75 2.65-.802 2.65-1.75-1.213-1.75-2.65-1.75zM28.897 18.94c-1.792 0-3.25-1.251-3.25-2.79s1.458-2.79 3.25-2.79 3.25 1.251 3.25 2.79-1.458 2.79-3.25 2.79zm0-4.58c-1.24 0-2.25.803-2.25 1.79s1.01 1.79 2.25 1.79 2.25-.803 2.25-1.79-1.009-1.79-2.25-1.79zM10.347 15.94c-1.765 0-3.2-1.233-3.2-2.75s1.436-2.75 3.2-2.75 3.2 1.233 3.2 2.75-1.435 2.75-3.2 2.75zm0-4.5c-1.213 0-2.2.785-2.2 1.75s.987 1.75 2.2 1.75 2.2-.785 2.2-1.75-.986-1.75-2.2-1.75zM20.067 13.44c-1.892 0-3.43-1.233-3.43-2.75s1.539-2.75 3.43-2.75c1.891 0 3.43 1.233 3.43 2.75s-1.539 2.75-3.43 2.75zm0-4.5c-1.34 0-2.43.785-2.43 1.75s1.09 1.75 2.43 1.75 2.43-.785 2.43-1.75-1.09-1.75-2.43-1.75z" fill="#45413c"/><path d="M36.457 15.99a2.24 2.24 0 0 0-2.71 1.23l-.52 1.19a61.12 61.12 0 0 0-3.63 10.87l-2.91 12.47a1.62 1.62 0 0 0 3.08 1l4.73-11.92a62.057 62.057 0 0 0 3.24-11l.25-1.27a2.23 2.23 0 0 0-1.53-2.57z" fill="#4acfff"/><path d="M28.467 42.83l2.91-12.5a62.287 62.287 0 0 1 3.63-10.88l.52-1.18a2.23 2.23 0 0 1 2.16-1.33 2.194 2.194 0 0 0-1.23-.95 2.24 2.24 0 0 0-2.71 1.23l-.52 1.19a61.12 61.12 0 0 0-3.63 10.87l-2.91 12.47a1.62 1.62 0 0 0 1.09 1.91c.246.06.504.06.75 0a1.553 1.553 0 0 1-.06-.83z" fill="#80ddff"/><path d="M28.242 44.319a2.107 2.107 0 0 1-1.856-1.097 2.106 2.106 0 0 1-.18-1.611l2.903-12.444a61.718 61.718 0 0 1 3.66-10.959l.519-1.188a2.742 2.742 0 0 1 3.316-1.507 2.721 2.721 0 0 1 1.872 3.146l-.25 1.268a62.694 62.694 0 0 1-3.266 11.089l-4.729 11.919a2.115 2.115 0 0 1-1.989 1.384zm7.552-27.93a1.74 1.74 0 0 0-1.59 1.034l-.519 1.187a60.789 60.789 0 0 0-3.601 10.783l-2.91 12.47c-.09.313-.057.615.088.877s.383.452.67.535a1.121 1.121 0 0 0 1.364-.695l4.735-11.935a61.759 61.759 0 0 0 3.215-10.912l.25-1.271a1.725 1.725 0 0 0-1.188-1.995h-.001a1.713 1.713 0 0 0-.513-.078z" fill="#45413c"/><path d="M37.637 18.45a.49.49 0 0 0 .65-.43c.066-1.123.237-2.238.51-3.33a9.26 9.26 0 0 1 1-2.07c.23-.35-.08-.84-.63-1l-2.45-.79c-.55-.18-1.08.05-1.1.47a8.83 8.83 0 0 1-.33 2.29 18.062 18.062 0 0 1-1.49 3 .5.5 0 0 0 .29.73l3.55 1.13z" fill="#daedf7"/><path d="M35.257 17.33a17.758 17.758 0 0 0 1.49-3c.22-.751.344-1.527.37-2.31 0-.42.54-.64 1.09-.47l1.65.52a1.084 1.084 0 0 0-.62-.46l-2.52-.78c-.56-.18-1.08.05-1.1.47a8.83 8.83 0 0 1-.33 2.29 18.062 18.062 0 0 1-1.49 3 .5.5 0 0 0 .29.73l1.12.35a.514.514 0 0 1 .05-.34z" fill="#e8f4fa"/><path d="M37.797 18.977a.966.966 0 0 1-.316-.053l-3.545-1.128a1.003 1.003 0 0 1-.572-1.456 17.575 17.575 0 0 0 1.457-2.93 8.362 8.362 0 0 0 .297-2.117c.015-.329.177-.613.444-.798.35-.242.841-.296 1.311-.141l2.448.789c.465.135.84.458.987.861a.987.987 0 0 1-.093.89 8.782 8.782 0 0 0-.944 1.956 17.61 17.61 0 0 0-.484 3.199.992.992 0 0 1-.99.928zm.004-.999h.01-.01zm-1.46-6.71c-.125 0-.21.039-.228.064a9.195 9.195 0 0 1-.345 2.393 18.42 18.42 0 0 1-1.547 3.127l3.566 1.121h.001c.068-1.146.244-2.293.522-3.406a9.82 9.82 0 0 1 1.065-2.219c-.007-.031-.114-.181-.35-.249l-2.464-.794a.728.728 0 0 0-.22-.037z" fill="#45413c"/></svg>