<svg xmlns="http://www.w3.org/2000/svg" viewBox="0 0 43.5 43.5" width="512" height="512"><ellipse cx="22.5" cy="38" rx="19.5" ry="1.5" opacity=".15" fill="#45413c"/><path fill="#8ca4b8" d="M5.5 28H41v6H5.5z"/><path fill="#adc4d9" d="M5.5 28H41v2.56H5.5z"/><path d="M41 34.5H5.5A.5.5 0 0 1 5 34v-6a.5.5 0 0 1 .5-.5H41a.5.5 0 0 1 .5.5v6a.5.5 0 0 1-.5.5zm-35-1h34.5v-5H6v5z" fill="#45413c"/><path d="M39.5 28H24V9.5h17.5a3.612 3.612 0 0 0-2 3.24V28z" fill="#ff6242"/><path d="M41.5 9.5H24v3h15.52a3.61 3.61 0 0 1 1.98-3z" fill="#e04122"/><path d="M39.5 28.5H24a.5.5 0 0 1-.5-.5V9.5A.5.5 0 0 1 24 9h17.5a.499.499 0 1 1 .222.948 3.091 3.091 0 0 0-1.723 2.792V28a.499.499 0 0 1-.499.5zm-15-1H39V12.74A4.09 4.09 0 0 1 40.034 10H24.5v17.5z" fill="#45413c"/><path fill="#656769" d="M15.5 15.5H24V28h-8.5z"/><path fill="#87898c" d="M15.5 15.5H24v2.25h-8.5z"/><path d="M24 28.5h-8.5a.5.5 0 0 1-.5-.5V15.5a.5.5 0 0 1 .5-.5H24a.5.5 0 0 1 .5.5V28a.5.5 0 0 1-.5.5zm-8-1h7.5V16H16v11.5z" fill="#45413c"/><path d="M24 4.5h17.5a1 1 0 0 1 1 1V9a.5.5 0 0 1-.5.5H23.5A.5.5 0 0 1 23 9V5.5a1 1 0 0 1 1-1z" fill="#ff6242"/><path d="M41.5 4.5H24a1 1 0 0 0-1 1V8a1 1 0 0 1 1-1h17.5a1 1 0 0 1 1 1V5.5a1 1 0 0 0-1-1z" fill="#ff866e"/><path d="M42 10H23.5c-.552 0-1-.449-1-1V5.5c0-.827.673-1.5 1.5-1.5h17.5c.827 0 1.5.673 1.5 1.5V9c0 .551-.448 1-1 1zM24 5a.5.5 0 0 0-.5.5V9H42V5.5a.5.5 0 0 0-.5-.5H24z" fill="#45413c"/><path d="M7 14.5h8a.5.5 0 0 1 .5.5v13h-9V15a.5.5 0 0 1 .5-.5z" fill="#656769"/><path d="M15 14.5H7a.5.5 0 0 0-.5.5v2.25a.5.5 0 0 1 .5-.5h8a.5.5 0 0 1 .5.5V15a.5.5 0 0 0-.5-.5z" fill="#87898c"/><path d="M15.5 28.5h-9A.5.5 0 0 1 6 28V15c0-.551.449-1 1-1h8c.551 0 1 .449 1 1v13a.5.5 0 0 1-.5.5zm-8.5-1h8V15H7v12.5zm0-13l-.001.5H7v-.5z" fill="#45413c"/><path d="M8 5h6a.53.53 0 0 1 .53.53V9h-7V5.5A.53.53 0 0 1 8 5z" fill="#ffe500"/><path d="M14.53 9.5h-7a.5.5 0 0 1-.5-.5V5.5a1.033 1.033 0 0 1 .97-1h6c.568 0 1.03.462 1.03 1.03V9a.5.5 0 0 1-.5.5zM8.03 9h.01-.01zm0-.5h6V5.53L8.045 5.5a.033.033 0 0 0-.016.025L8.03 8.5z" fill="#45413c"/><path fill="#656769" d="M7.5 9L9 12v2.5h4V12l1.5-3z"/><path fill="#525252" d="M13.6 10.79L14.5 9h-7l.9 1.79z"/><path d="M13 15H9a.5.5 0 0 1-.5-.5v-2.382L7.053 9.224A.5.5 0 0 1 7.5 8.5h7a.5.5 0 0 1 .447.723L13.5 12.118V14.5a.5.5 0 0 1-.5.5zm-3.5-1h3v-2c0-.078.018-.154.053-.224L13.691 9.5H8.309l1.138 2.276c.035.07.053.146.053.224v2z" fill="#45413c"/><path d="M6.5 15.5A8.561 8.561 0 0 0 4 22c0 4.44 2.5 6 2.5 6V15.5z" fill="#656769"/><path d="M6.5 28.5a.496.496 0 0 1-.265-.076C6.124 28.355 3.5 26.664 3.5 22a9.06 9.06 0 0 1 2.646-6.854A.501.501 0 0 1 7 15.5V28a.503.503 0 0 1-.5.5zM6 16.859a8.069 8.069 0 0 0-1.5 5.115c0 2.553.842 4.075 1.5 4.875v-9.99zM15 7.5H7a.5.5 0 0 1 0-1h8a.5.5 0 0 1 0 1z" fill="#45413c"/><path d="M19.75 12A1.75 1.75 0 0 0 18 13.75v1.75h3.5v-1.75A1.75 1.75 0 0 0 19.75 12z" fill="#656769"/><path d="M19.75 12A1.75 1.75 0 0 0 18 13.75v1.75a1.75 1.75 0 0 1 3.5 0v-1.75A1.75 1.75 0 0 0 19.75 12z" fill="#87898c"/><path d="M21.5 16H18a.5.5 0 0 1-.5-.5v-1.75c0-1.241 1.009-2.25 2.25-2.25S22 12.509 22 13.75v1.75a.5.5 0 0 1-.5.5zm-3-1H21v-1.25c0-.689-.561-1.25-1.25-1.25s-1.25.561-1.25 1.25V15z" fill="#45413c"/><path fill="#ffe500" d="M15.5 15.5h2V28h-2zM22 15.5h2V28h-2z"/><path fill="#fff48c" d="M15.5 15.5h2v2.25h-2zM22 15.5h2v2.25h-2z"/><path d="M17.5 28.5h-2a.5.5 0 0 1-.5-.5V15.5a.5.5 0 0 1 .5-.5h2a.5.5 0 0 1 .5.5V28a.5.5 0 0 1-.5.5zm-1.5-1h1V16h-1v11.5zM24 28.5h-2a.5.5 0 0 1-.5-.5V15.5a.5.5 0 0 1 .5-.5h2a.5.5 0 0 1 .5.5V28a.5.5 0 0 1-.5.5zm-1.5-1h1V16h-1v11.5z" fill="#45413c"/><path d="M28.5 12h5a2 2 0 0 1 2 2v5.5a.5.5 0 0 1-.5.5h-8a.5.5 0 0 1-.5-.5V14a2 2 0 0 1 2-2z" fill="#00b8f0"/><path d="M32.47 12h-4a2 2 0 0 0-2 2v5.5a.5.5 0 0 0 .5.5h2.53l2.97-8z" fill="#4acfff"/><path d="M35 20.5h-8c-.552 0-1-.449-1-1V14c0-1.378 1.121-2.5 2.5-2.5h5c1.379 0 2.5 1.122 2.5 2.5v5.5c0 .551-.448 1-1 1zm-6.5-8c-.827 0-1.5.673-1.5 1.5v5.5h8V14c0-.827-.673-1.5-1.5-1.5h-5z" fill="#45413c"/><path fill="#ffe500" d="M24 22.5h15.5v3H24z"/><path d="M39.5 26H24a.5.5 0 0 1-.5-.5v-3a.5.5 0 0 1 .5-.5h15.5a.5.5 0 0 1 .5.5v3a.5.5 0 0 1-.5.5zm-15-1H39v-2H24.5v2z" fill="#45413c"/><circle cx="26.5" cy="33.5" r="4" fill="#ff6242"/><circle cx="34.5" cy="33.5" r="4" fill="#ff6242"/><path d="M26.5 30.93a4 4 0 0 1 3.93 3.28c.044-.234.067-.472.07-.71a4 4 0 0 0-8 0c.003.238.026.476.07.71a4 4 0 0 1 3.93-3.28zM34.5 30.93a4 4 0 0 1 3.93 3.28c.044-.234.067-.472.07-.71a4 4 0 0 0-8 0c.003.238.026.476.07.71a4 4 0 0 1 3.93-3.28z" fill="#ff866e"/><path d="M26.5 38c-2.481 0-4.5-2.019-4.5-4.5s2.019-4.5 4.5-4.5 4.5 2.019 4.5 4.5-2.019 4.5-4.5 4.5zm0-8c-1.93 0-3.5 1.57-3.5 3.5s1.57 3.5 3.5 3.5 3.5-1.57 3.5-3.5-1.57-3.5-3.5-3.5z" fill="#45413c"/><path d="M34.5 38c-2.481 0-4.5-2.019-4.5-4.5s2.019-4.5 4.5-4.5 4.5 2.019 4.5 4.5-2.019 4.5-4.5 4.5zm0-8c-1.93 0-3.5 1.57-3.5 3.5s1.57 3.5 3.5 3.5 3.5-1.57 3.5-3.5-1.57-3.5-3.5-3.5z" fill="#45413c"/><circle cx="15" cy="35" r="2.5" fill="#ff6242"/><circle cx="10" cy="35" r="2.5" fill="#ff6242"/><path d="M15 34a2.49 2.49 0 0 1 2.37 1.75c.084-.241.128-.495.13-.75a2.5 2.5 0 1 0-5 0c.002.255.046.509.13.75A2.49 2.49 0 0 1 15 34z" fill="#ff866e"/><path d="M10 34a2.49 2.49 0 0 1 2.37 1.75c.084-.241.128-.495.13-.75a2.5 2.5 0 1 0-5 0c.002.255.046.509.13.75A2.49 2.49 0 0 1 10 34z" fill="#ff866e"/><path d="M15 38c-1.654 0-3-1.346-3-3s1.346-3 3-3 3 1.346 3 3-1.346 3-3 3zm0-5c-1.103 0-2 .897-2 2s.897 2 2 2 2-.897 2-2-.897-2-2-2z" fill="#45413c"/><path d="M10 38c-1.654 0-3-1.346-3-3s1.346-3 3-3 3 1.346 3 3-1.346 3-3 3zm0-5c-1.103 0-2 .897-2 2s.897 2 2 2 2-.897 2-2-.897-2-2-2z" fill="#45413c"/><path fill="#8ca4b8" d="M41 28h2v4.5h-2z"/><path fill="#adc4d9" d="M41 28h2v1.5h-2z"/><path d="M43 33h-2a.5.5 0 0 1-.5-.5V28a.5.5 0 0 1 .5-.5h2a.5.5 0 0 1 .5.5v4.5a.5.5 0 0 1-.5.5zm-1.5-1h1v-3.5h-1V32z" fill="#45413c"/><path fill="#ff6242" d="M5.5 28v8h-5z"/><path fill="#ff866e" d="M.5 36h1.56l3.44-5.5V28z"/><path d="M5.5 36.5h-5a.498.498 0 1 1-.424-.765l5-8A.501.501 0 0 1 6 28v8a.5.5 0 0 1-.5.5zm-4.098-1H5v-5.757L1.402 35.5z" fill="#45413c"/><path d="M3 36.5a.5.5 0 0 1-.424-.764l2.5-4a.5.5 0 1 1 .848.529l-2.5 4A.5.5 0 0 1 3 36.5zM10 38a.5.5 0 0 1-.5-.5v-5a.5.5 0 0 1 1 0v5a.5.5 0 0 1-.5.5z" fill="#45413c"/><path d="M12.5 35.5h-5a.5.5 0 0 1 0-1h5a.5.5 0 0 1 0 1zM16.5 37a.502.502 0 0 1-.354-.146l-3-3a.5.5 0 0 1 .707-.707l3 3A.5.5 0 0 1 16.5 37z" fill="#45413c"/><path d="M13.5 37a.5.5 0 0 1-.354-.853l3-3a.5.5 0 0 1 .707.707l-3 3A.498.498 0 0 1 13.5 37z" fill="#45413c"/><path d="M16 28h6.5v5.5a1 1 0 0 1-1 1H17a1 1 0 0 1-1-1V28z" fill="#8ca4b8"/><path fill="#adc4d9" d="M16 28h6.5v2.56H16z"/><path d="M21.5 35H17c-.827 0-1.5-.673-1.5-1.5V28a.5.5 0 0 1 .5-.5h6.5a.5.5 0 0 1 .5.5v5.5c0 .827-.673 1.5-1.5 1.5zm-5-6.5v5a.5.5 0 0 0 .5.5h4.5a.5.5 0 0 0 .5-.5v-5h-5.5zM26.5 38a.5.5 0 0 1-.5-.5v-8a.5.5 0 0 1 1 0v8a.5.5 0 0 1-.5.5z" fill="#45413c"/><path d="M29.96 36a.491.491 0 0 1-.25-.067l-6.92-4a.5.5 0 1 1 .5-.866l6.92 4a.5.5 0 0 1-.25.933z" fill="#45413c"/><path d="M23.04 36a.501.501 0 0 1-.25-.933l6.92-4a.499.499 0 1 1 .5.866l-6.92 4a.491.491 0 0 1-.25.067zM34.5 38a.5.5 0 0 1-.5-.5v-8a.5.5 0 0 1 1 0v8a.5.5 0 0 1-.5.5z" fill="#45413c"/><path d="M37.96 36a.491.491 0 0 1-.25-.067l-6.92-4a.5.5 0 1 1 .5-.866l6.92 4a.5.5 0 0 1-.25.933z" fill="#45413c"/><path d="M31.04 36a.501.501 0 0 1-.25-.933l6.92-4c.235-.14.544-.057.683.183s.057.545-.183.683l-6.92 4a.491.491 0 0 1-.25.067z" fill="#45413c"/><g><path d="M35 33.5H22.5v-2H35a1 1 0 0 1 0 2z" fill="#ffe500"/><path d="M35 34H22.5a.5.5 0 0 1-.5-.5v-2a.5.5 0 0 1 .5-.5H35c.827 0 1.5.673 1.5 1.5S35.827 34 35 34zm-12-1h12c.275 0 .5-.225.5-.5s-.225-.5-.5-.5H23v1z" fill="#45413c"/></g></svg>