<svg xmlns="http://www.w3.org/2000/svg" viewBox="0 0 44.937 44.937" width="512" height="512"><ellipse cx="22.447" cy="42.977" rx="15.02" ry="1.96" opacity=".15" fill="#45413c"/><path d="M32.076 41.247a28.179 28.179 0 0 1-19.21 0 3.192 3.192 0 0 1-2-1.92l-1.89-6.84a22.883 22.883 0 0 1-.56-13l1-2h26.11l1 2a22.997 22.997 0 0 1-.56 13l-1.92 6.84a3.18 3.18 0 0 1-1.97 1.92z" fill="#f0d5a8"/><path d="M36.716 20.497c-.07-.35-.13-.7-.22-1l-1-2H9.447l-1 2c-.09.35-.16.7-.23 1.06 2.46 2.03 6.89 3.28 14.23 3.28s11.839-1.26 14.269-3.34z" fill="#debb7e"/><path d="M22.471 43.431a28.65 28.65 0 0 1-9.775-1.715 3.664 3.664 0 0 1-2.298-2.215L8.494 32.62a23.28 23.28 0 0 1-.562-13.255.483.483 0 0 1 .038-.102l1-2a.5.5 0 0 1 .447-.276h26.11a.5.5 0 0 1 .447.276l1 2a.472.472 0 0 1 .038.103c1.094 4.4.896 8.994-.573 13.283l-1.911 6.813a3.676 3.676 0 0 1-2.286 2.257 28.706 28.706 0 0 1-9.771 1.712zM8.888 19.661a22.325 22.325 0 0 0 .561 12.663l1.899 6.87a2.663 2.663 0 0 0 1.673 1.577 27.734 27.734 0 0 0 18.884.006l.011-.004a2.67 2.67 0 0 0 1.66-1.618l1.908-6.803a22.489 22.489 0 0 0 .57-12.692l-.837-1.674H9.726l-.838 1.675z" fill="#45413c"/><path d="M22.447 20.737c11.26 0 14.15-2.89 13.66-6.83-.37-2.92-5-5.57-13.66-5.57s-13.32 2.65-13.68 5.6c-.49 3.91 2.45 6.8 13.68 6.8z" fill="#f0d5a8"/><path d="M22.447 10.717c8.24 0 12.84 2.41 13.57 5.16.15-.656.18-1.333.09-2-.37-2.92-5-5.57-13.66-5.57s-13.32 2.68-13.68 5.63a5.323 5.323 0 0 0 .09 2c.74-2.82 5.39-5.22 13.59-5.22z" fill="#f7e5c6"/><path d="M22.447 21.237c-6.846 0-11.109-1.061-13.036-3.244-.962-1.09-1.346-2.476-1.14-4.118.448-3.667 6.013-6.038 14.176-6.038 9.887 0 13.805 3.236 14.156 6.007.207 1.667-.178 3.067-1.146 4.162-1.92 2.174-6.176 3.231-13.01 3.231zm0-12.4c-8.625 0-12.88 2.675-13.184 5.161-.171 1.366.123 2.456.898 3.334 1.702 1.928 5.835 2.905 12.286 2.905 6.44 0 10.566-.973 12.261-2.892.78-.883 1.076-1.988.903-3.376-.314-2.472-4.567-5.132-13.164-5.132z" fill="#45413c"/><ellipse cx="22.477" cy="14.067" rx="10.45" ry="3.12" fill="#ffe500"/><ellipse cx="22.477" cy="15.497" rx="9.29" ry="1.7" fill="#ebcb00"/><path d="M22.476 17.687c-5.441 0-10.95-1.244-10.95-3.62s5.508-3.62 10.95-3.62c5.442 0 10.951 1.243 10.951 3.62s-5.509 3.62-10.951 3.62zm0-6.24c-6.165 0-9.95 1.526-9.95 2.62s3.785 2.62 9.95 2.62c6.166 0 9.951-1.526 9.951-2.62s-3.785-2.62-9.951-2.62z" fill="#45413c"/><path d="M35.016 35.727l.89-3.24c.392-1.151.693-2.332.9-3.53-2.14 1.3-6.36 2.88-14.36 2.88s-12.23-1.61-14.36-2.9c.205 1.212.506 2.406.9 3.57l.89 3.22a35.77 35.77 0 0 0 12.6 2c4.266.088 8.514-.59 12.54-2z" fill="#ff8a14"/><path d="M21.667 38.235c-4.069 0-8.093-.685-11.955-2.037a.5.5 0 0 1-.317-.339l-.89-3.22a23.662 23.662 0 0 1-.911-3.619.497.497 0 0 1 .212-.496.504.504 0 0 1 .54-.015c2.131 1.29 6.307 2.827 14.101 2.827 7.833 0 11.992-1.526 14.101-2.808a.5.5 0 1 1 .753.513 23.766 23.766 0 0 1-.92 3.606l-.881 3.211a.5.5 0 0 1-.317.339 36.13 36.13 0 0 1-12.716 2.028c-.268.007-.534.01-.8.01zM10.288 35.34a35.119 35.119 0 0 0 12.177 1.887 35.289 35.289 0 0 0 12.139-1.887l.819-2.985c.275-.81.504-1.625.686-2.445-2.43 1.206-6.628 2.428-13.663 2.428-7.012 0-11.222-1.234-13.667-2.45.181.832.409 1.655.681 2.46l.828 2.992zm24.729.386h.01-.01z" fill="#45413c"/><path d="M31.507.557a2.611 2.611 0 0 0-2.29 4.49l-2.53 11.89c.932-.12 1.855-.307 2.76-.56l2.32-10.79a2.61 2.61 0 0 0-.26-5v-.03z" fill="#fff5e3"/><path d="M29.167 13.067a9.05 9.05 0 0 1-1.81.71l-.67 3.16c.932-.12 1.855-.307 2.76-.56l.83-3.89-1.11.58z" fill="#f7e5c6"/><path d="M26.687 17.437a.503.503 0 0 1-.368-.161.504.504 0 0 1-.121-.443L28.67 5.208a3.124 3.124 0 0 1-.746-2.742A3.086 3.086 0 0 1 29.27.503a3.097 3.097 0 0 1 2.34-.436.505.505 0 0 1 .181.078 3.097 3.097 0 0 1 2.042 1.946c.276.783.23 1.627-.128 2.377A3.088 3.088 0 0 1 32.2 5.95l-2.265 10.531a.498.498 0 0 1-.354.376c-.928.259-1.88.453-2.831.575a.446.446 0 0 1-.063.005zM30.962 1c-.404 0-.8.117-1.146.342-.473.307-.797.78-.913 1.332a2.12 2.12 0 0 0 .648 2.002.5.5 0 0 1 .154.475l-2.38 11.187a19.23 19.23 0 0 0 1.696-.363l2.256-10.492a.502.502 0 0 1 .323-.367c.531-.187.958-.57 1.201-1.079a2.094 2.094 0 0 0 .087-1.612 2.094 2.094 0 0 0-1.498-1.352.469.469 0 0 1-.133-.053 2.261 2.261 0 0 0-.295-.02z" fill="#45413c"/><path d="M15.597 15.037c-2.14-.48-3.22 0-3.91 2s.45 3.54.34 5.7c-.11 2.38 2.26 2.87 3.27 1.31.49-.76 0-2.61 1.3-2.61 2.21 0 .17 7.18 3.27 7.18s2.92-2.77 2.92-5.05c.017-2.206.238-4.405.66-6.57.44-1.84-3.32-.94-7.85-1.96z" fill="#ffe500"/><path d="M11.727 19.607c.82-2 2.09-2.44 4.63-2a55.21 55.21 0 0 0 6.85.68c.08-.55.16-1 .24-1.33.44-1.84-3.32-.94-7.84-2-2.15-.48-3.23 0-3.92 2a5.008 5.008 0 0 0 0 2.86c.006-.071.02-.142.04-.21z" fill="#fff48c"/><path d="M19.866 29.117c-2.142 0-2.343-2.497-2.504-4.504-.101-1.254-.215-2.676-.766-2.676-.311 0-.412.134-.528 1.079-.057.46-.115.936-.351 1.302-.6.927-1.656 1.344-2.63 1.027-.801-.257-1.631-1.082-1.56-2.631.042-.838-.122-1.597-.281-2.332-.236-1.087-.479-2.211-.032-3.508.759-2.196 2.062-2.87 4.492-2.325 1.692.381 3.296.49 4.585.577 1.782.121 2.959.2 3.465.889.22.299.279.668.176 1.098-.411 2.11-.63 4.29-.646 6.458l.001.351c.006 1.549.013 3.303-1.026 4.347-.561.563-1.366.848-2.395.848zm-3.27-8.18c1.473 0 1.62 1.829 1.762 3.596.169 2.099.376 3.584 1.508 3.584.763 0 1.315-.182 1.687-.555.746-.749.74-2.283.734-3.636l-.001-.359c.017-2.234.242-4.475.669-6.666.036-.151.033-.243-.005-.293-.231-.315-1.5-.401-2.727-.484-1.323-.09-2.97-.201-4.737-.599-1.93-.434-2.741-.026-3.328 1.675-.356 1.032-.161 1.93.064 2.97.173.798.353 1.624.303 2.593-.039.834.285 1.444.866 1.63.448.146 1.08.008 1.484-.617.112-.174.156-.533.199-.882.092-.732.243-1.957 1.522-1.957z" fill="#45413c"/></svg>