<svg xmlns="http://www.w3.org/2000/svg" viewBox="0 0 44.746 44.746" width="512" height="512"><ellipse cx="22.343" cy="43.246" rx="10" ry="1.5" opacity=".15" fill="#45413c"/><path d="M31.483 41.096c-.56-1.07-3.36-1.93-7-2.18a.87.87 0 0 1-.82-.87v-15h-2.64v15a.87.87 0 0 1-.82.87c-3.64.25-6.44 1.11-7 2.18-.1.21-.01.46.199.56h.001c.86.44 3.61 1.59 8.94 1.59s8.08-1.15 8.94-1.59a.421.421 0 0 0 .2-.56z" fill="#00b8f0"/><path d="M22.343 43.746c-5.376 0-8.202-1.15-9.168-1.645a.907.907 0 0 1-.459-.517.91.91 0 0 1 .035-.702c.785-1.501 4.345-2.255 7.417-2.466a.371.371 0 0 0 .354-.37V23.045a.5.5 0 0 1 .5-.5h2.64a.5.5 0 0 1 .5.5v15a.37.37 0 0 0 .348.371c3.079.211 6.64.965 7.415 2.448l.009.018a.915.915 0 0 1 .034.704.907.907 0 0 1-.472.521c-.951.488-3.778 1.639-9.153 1.639zm-8.646-2.501c.984.486 3.633 1.501 8.646 1.501 5.035 0 7.684-1.023 8.646-1.501-.52-.734-2.872-1.578-6.54-1.83a1.368 1.368 0 0 1-1.285-1.37v-14.5h-1.64v14.5a1.37 1.37 0 0 1-1.292 1.369c-3.662.252-6.015 1.096-6.535 1.831zm17.358-.035l-.003.002.003-.002zm-17.439-.005l.004.002c-.001-.002-.002-.002-.004-.002z" fill="#45413c"/><path d="M39.513 8.476c0-2.19-7.69-4-17.17-4s-17.17 1.77-17.17 4v1.84a2.642 2.642 0 0 0 1 2l14 11.53s0 1.76 2.2 1.76 2.2-1.76 2.2-1.76l14-11.53a2.642 2.642 0 0 0 1-2l-.06-1.84z" fill="#00b8f0"/><path d="M32.163 5.226a62.92 62.92 0 0 0-9.82-.71c-9.48 0-17.17 1.77-17.17 4v1.84a2.642 2.642 0 0 0 1 2l12.33 10.18a53.793 53.793 0 0 0 13.66-17.31z" fill="#4acfff"/><ellipse cx="22.343" cy="8.476" rx="17.17" ry="3.96" fill="#00b8f0"/><path d="M22.373 26.106c-1.924 0-2.573-1.2-2.683-2.01L5.855 12.702a3.124 3.124 0 0 1-1.182-2.373V8.476c0-2.954 8.889-4.5 17.67-4.5 8.557 0 17.651 1.574 17.67 4.491l.061 1.833a3.146 3.146 0 0 1-1.189 2.408l-13.83 11.388c-.109.81-.757 2.01-2.682 2.01zm-.03-21.13c-10.328 0-16.67 2.039-16.67 3.5v1.84a2.13 2.13 0 0 0 .811 1.608L20.491 23.46a.5.5 0 0 1 .182.386c.004.206.107 1.26 1.7 1.26s1.695-1.054 1.7-1.265a.507.507 0 0 1 .183-.381l14-11.53c.505-.402.801-.993.817-1.627l-.061-1.811v-.017c0-1.461-6.341-3.499-16.669-3.499zm17.669 3.5h.01-.01z" fill="#45413c"/><g><path d="M33.783 13.746l-9.68 7.92a3.072 3.072 0 0 1-1.76.88 3.072 3.072 0 0 1-1.76-.88l-9.68-7.92s3.08-1.75 11.44-1.75 11.44 1.75 11.44 1.75z" fill="#c8ffa1"/><path d="M27.913 12.306a44.88 44.88 0 0 0-5.57-.31c-8.36 0-11.44 1.75-11.44 1.75l9.14 7.48a49.312 49.312 0 0 0 7.87-8.92z" fill="#e4ffd1"/><path d="M33.783 13.746s-3.08 1.77-11.44 1.77-11.44-1.77-11.44-1.77 3.08-1.75 11.44-1.75 11.44 1.75 11.44 1.75z" fill="#9ceb60"/><path d="M25.593 15.416c.83-1 1.6-2.07 2.32-3.11a44.88 44.88 0 0 0-5.57-.31c-8.36 0-11.44 1.75-11.44 1.75s3.08 1.77 11.44 1.77c1.19 0 2.26-.04 3.25-.1z" fill="#c8ffa1"/></g><g><path d="M35.533 4.616a2.64 2.64 0 1 1-.716-3.664l.006.004a2.63 2.63 0 0 1 .71 3.66z" fill="#ff6242"/><path d="M30.753 3.646a2.643 2.643 0 0 1 5.19-1l-5.19 1z" fill="#ff866e"/><path d="M29.403 9.476a.498.498 0 0 1-.414-.78l2.47-3.65a.5.5 0 0 1 .828.56l-2.47 3.65a.502.502 0 0 1-.414.22z" fill="#45413c"/><path d="M30.843 13.136c-.82 1.21-2.78 1.3-4.4.22s-2.25-2.95-1.43-4.16 2.78-1.31 4.39-.22 2.26 2.95 1.44 4.16z" fill="#46b000"/><path d="M25.003 11.746l5.85-1.13a4.347 4.347 0 0 0-1.45-1.62c-1.61-1.09-3.58-1-4.39.22a2.46 2.46 0 0 0-.01 2.53z" fill="#6dd627"/><path d="M28.782 14.614c-.847 0-1.77-.277-2.617-.842-1.032-.688-1.743-1.692-1.951-2.753-.15-.769-.014-1.516.385-2.104.974-1.434 3.253-1.593 5.085-.354.868.588 1.516 1.4 1.823 2.285.325.939.236 1.851-.25 2.57-.537.793-1.452 1.198-2.475 1.198zm-1.708-5.898c-.697 0-1.305.255-1.647.76-.252.371-.332.838-.231 1.351.154.79.725 1.579 1.524 2.113 1.387.924 3.051.886 3.709-.085.306-.45.353-1.047.133-1.68-.237-.683-.748-1.317-1.438-1.785-.666-.451-1.397-.674-2.05-.674z" fill="#45413c"/><path d="M27.883 17.516c-.81 1.2-2.78 1.3-4.39.21s-2.26-2.98-1.44-4.16 2.78-1.3 4.39-.21 2.26 2.95 1.44 4.16z" fill="#46b000"/><path d="M22.043 16.106l5.85-1.13a4.192 4.192 0 0 0-1.45-1.62c-1.61-1.09-3.58-1-4.39.21a2.478 2.478 0 0 0-.01 2.54z" fill="#6dd627"/><path d="M25.818 18.984c-.873 0-1.792-.293-2.606-.845-1.029-.697-1.762-1.748-1.96-2.811-.141-.756-.002-1.483.39-2.048.986-1.419 3.265-1.569 5.081-.339.868.588 1.517 1.399 1.824 2.285.325.938.237 1.851-.25 2.57-.396.585-1.012.974-1.78 1.123a3.688 3.688 0 0 1-.699.065zm-1.702-5.885c-.696 0-1.305.252-1.653.752-.306.44-.293.947-.228 1.294.15.806.725 1.616 1.538 2.166.805.545 1.761.781 2.553.625.352-.068.834-.245 1.143-.701v-.001c.306-.45.353-1.047.133-1.68-.237-.683-.748-1.317-1.439-1.785-.662-.447-1.393-.67-2.047-.67z" fill="#45413c"/><path d="M22.012 20.415a.499.499 0 0 1-.413-.78l1.48-2.19a.5.5 0 0 1 .829.56l-1.48 2.19a.503.503 0 0 1-.416.22zM33.338 6.281a3.12 3.12 0 0 1-1.748-.534 3.143 3.143 0 0 1-.853-4.357A3.123 3.123 0 0 1 32.74.061a3.106 3.106 0 0 1 2.355.477 3.135 3.135 0 0 1 .859 4.347l-.007.011a3.14 3.14 0 0 1-2.609 1.385zm.008-5.28a2.123 2.123 0 0 0-1.779.946 2.142 2.142 0 0 0 .581 2.97c.977.658 2.31.398 2.97-.58a.772.772 0 0 1 .042-.057c.619-.928.358-2.254-.616-2.91a2.145 2.145 0 0 0-1.198-.369zm2.187 3.615h.01-.01z" fill="#45413c"/></g><path d="M22.343 12.976c-8.781 0-17.67-1.546-17.67-4.5a.5.5 0 0 1 1 0c0 1.461 6.342 3.5 16.67 3.5s16.67-2.039 16.67-3.5a.5.5 0 0 1 1 0c-.001 2.922-9.104 4.5-17.67 4.5z" fill="#45413c"/></svg>