<svg xmlns="http://www.w3.org/2000/svg" viewBox="0 0 43.85 43.85" width="512" height="512"><ellipse cx="22.175" cy="42.17" rx="18.5" ry="1.68" opacity=".15" fill="#45413c"/><path d="M38.435 24.53H4.795v15.7c0 .619.501 1.12 1.12 1.12h31.4a1.12 1.12 0 0 0 1.12-1.12v-15.7z" fill="#bf8256"/><path d="M37.315 41.85h-31.4c-.894 0-1.62-.727-1.62-1.619v-15.7a.5.5 0 0 1 .5-.5h33.64a.5.5 0 0 1 .5.5v15.7c0 .892-.727 1.619-1.62 1.619zM5.295 25.03v15.2a.62.62 0 0 0 .62.619h31.399a.62.62 0 0 0 .62-.619v-15.2H5.295z" fill="#45413c"/><g><path fill="#ffe3cf" d="M4.795 31.26h33.64v5.61H4.795z"/><path d="M38.435 37.37H4.795a.5.5 0 0 1-.5-.5v-5.61a.5.5 0 0 1 .5-.5h33.64a.5.5 0 0 1 .5.5v5.61a.5.5 0 0 1-.5.5zm-33.14-1h32.64v-4.61H5.295v4.61z" fill="#45413c"/></g><g><path d="M19.375 29.58a1.68 1.68 0 1 1 3.36 0v.56a1.12 1.12 0 0 0 2.24.002v-.561a.56.56 0 0 1 1.12 0v1.56a2.33 2.33 0 0 0 1.87 2.33 2.25 2.25 0 0 0 2.62-2.21v-2.8a1.68 1.68 0 1 0 3.36 0V27.9a1.13 1.13 0 1 1 2.25 0v1.12a3.368 3.368 0 0 0 1.73 2.94 1.12 1.12 0 0 0 1.63-1v-6.43c0-3.3-6.27-8.18-14.86-9.21a3.352 3.352 0 0 0-1.79.29l-17.93 8.32a2.25 2.25 0 0 0-1.3 2v8a.57.57 0 0 0 .67.56 3.37 3.37 0 0 0 2.69-3.19 1.79 1.79 0 0 1 1.35-1.76 1.69 1.69 0 0 1 2 1.65v.66a1.68 1.68 0 0 0 3.36 0V30.7a.56.56 0 1 1 1.12 0v1.561a2.33 2.33 0 0 0 1.87 2.33 2.25 2.25 0 0 0 2.62-2.21l.02-2.801z" fill="#ff6242"/><path d="M17.106 35.121c-.149 0-.301-.013-.453-.038a2.831 2.831 0 0 1-2.288-2.833V30.7h-.12v1.149c0 1.202-.978 2.18-2.179 2.18s-2.18-.978-2.181-2.18v-.659a1.186 1.186 0 0 0-1.408-1.158 1.28 1.28 0 0 0-.942 1.262 3.867 3.867 0 0 1-3.089 3.688 2.231 2.231 0 0 1-.199.019c-.59 0-1.07-.479-1.071-1.068V25.93a2.77 2.77 0 0 1 1.589-2.453l17.932-8.32a3.85 3.85 0 0 1 2.056-.333c8.76 1.05 15.304 5.991 15.304 9.707v6.43a1.624 1.624 0 0 1-1.122 1.544c-.411.133-.85.099-1.235-.099a3.88 3.88 0 0 1-2.003-3.385v-1.12a.908.908 0 0 0 .002-.164.631.631 0 0 0-.686-.57.63.63 0 0 0-.568.687l.002.606c0 1.202-.978 2.18-2.18 2.18-.435 0-.84-.128-1.18-.348v.968a2.738 2.738 0 0 1-1.152 2.229 2.728 2.728 0 0 1-2.05.474 2.83 2.83 0 0 1-2.288-2.833v-1.55h-.12v.56c0 .894-.727 1.621-1.62 1.621a1.624 1.624 0 0 1-1.62-1.621v-.56a1.18 1.18 0 0 0-2.36 0v.004l-.02 2.8a2.757 2.757 0 0 1-2.751 2.737zm7.21-19.323c-.412 0-.822.09-1.199.265l-17.932 8.32a1.76 1.76 0 0 0-1.01 1.556v7.991l.071.569.01-.501a2.859 2.859 0 0 0 2.279-2.715 2.274 2.274 0 0 1 1.727-2.228 2.186 2.186 0 0 1 2.586 1.744c.024.128.037.257.037.389v.661a1.18 1.18 0 0 0 2.36 0V30.7c0-.585.476-1.061 1.06-1.061s1.06.476 1.06 1.06v1.561a1.83 1.83 0 0 0 1.468 1.84 1.746 1.746 0 0 0 2.022-1.721l.02-2.801a2.183 2.183 0 0 1 2.18-2.177c1.202 0 2.18.978 2.18 2.18v.56a.62.62 0 0 0 1.24.001v-.562c0-.585.476-1.061 1.061-1.061.584 0 1.06.476 1.06 1.061v1.56a1.83 1.83 0 0 0 1.469 1.84 1.71 1.71 0 0 0 1.288-.305 1.735 1.735 0 0 0 .733-1.419V28.46a.5.5 0 0 1 1 0c0 .65.529 1.18 1.18 1.18.65 0 1.18-.529 1.18-1.18v-.56c-.082-.848.577-1.645 1.473-1.729.428-.04.856.089 1.191.367a1.616 1.616 0 0 1 .584 1.411l.002 1.071a2.874 2.874 0 0 0 1.474 2.504c.132.066.297.08.458.029a.613.613 0 0 0 .36-.308.61.61 0 0 0 .068-.282V24.53c0-2.781-5.751-7.674-14.42-8.714a2.874 2.874 0 0 0-.32-.018zM19.375 29.58h.01-.01z" fill="#45413c"/><path d="M36.195 25.03H9.285a.5.5 0 0 1 0-1h26.91a.5.5 0 0 1 0 1z" fill="#e04122"/></g><g><path d="M29.465 20.05v-9a1.12 1.12 0 0 0-1.12-1.12h-2.25a1.12 1.12 0 0 0-1.12 1.12v9a2.43 2.43 0 0 0 2.25 1.12 2.43 2.43 0 0 0 2.24-1.12z" fill="#fffef2"/><path d="M26.961 21.678c-.936 0-1.866-.507-2.408-1.36a.498.498 0 0 1-.078-.268v-9c0-.893.727-1.62 1.62-1.62h2.25c.894 0 1.62.727 1.62 1.62v9a.498.498 0 0 1-.078.268 2.924 2.924 0 0 1-2.701 1.351c-.074.006-.15.009-.225.009zm-1.486-1.782a1.935 1.935 0 0 0 1.709.776c.752.054 1.388-.243 1.781-.776V11.05a.62.62 0 0 0-.62-.62h-2.25a.62.62 0 0 0-.62.62v8.846zm3.99.154h.01-.01z" fill="#45413c"/><g><path d="M24.645 4.41a2.662 2.662 0 0 0 5.18 1.23c.46-1.94-2.5-2.26-2.43-5.14a5.629 5.629 0 0 0-2.75 3.91z" fill="#ffe500"/><path d="M27.236 8.188c-.241 0-.486-.028-.73-.086a3.144 3.144 0 0 1-1.962-1.417 3.145 3.145 0 0 1-.389-2.375A6.116 6.116 0 0 1 27.147.067a.5.5 0 0 1 .748.446c-.031 1.3.655 1.993 1.319 2.662.647.652 1.38 1.391 1.098 2.581a3.168 3.168 0 0 1-3.076 2.432zm-.268-6.794a5.122 5.122 0 0 0-1.831 3.103l-.006.029a2.143 2.143 0 0 0 .263 1.633c.304.492.78.836 1.342.97a2.17 2.17 0 0 0 2.604-1.604c.147-.621-.185-.991-.835-1.646-.596-.6-1.308-1.318-1.537-2.485zM24.645 4.41h.01-.01z" fill="#45413c"/></g></g></svg>