<svg xmlns="http://www.w3.org/2000/svg" viewBox="0 0 126.482 126.482"><path d="M96.118 124.982l27.973-103.688-50.578 30.015v.002c.049 7.236-3.611 14.318-10.273 18.271s-14.628 3.771-20.956.26l-26.658 15.82c15.752 17.014 41.815 21.377 62.544 9.076.193-.115.379-.24.57-.355l.199 1.646 17.179 28.953z" fill="#0af"/><path d="M63.239 69.582c-6.662 3.953-14.628 3.771-20.956.26L19.398 83.424c15.467 9.73 35.728 10.691 52.495.74 16.77-9.953 25.635-28.193 24.502-46.432L73.513 51.311c.048 7.236-3.612 14.318-10.274 18.271z" fill="#0086ff"/><path d="M31.635 51.902c-.049-7.238 3.609-14.318 10.271-18.271 6.662-3.953 14.632-3.773 20.958-.262l26.658-15.822C73.772.535 47.707-3.828 26.979 8.475 6.252 20.775-2.409 45.742 4.977 67.719l26.658-15.817z" fill="#0af"/><path d="M41.906 33.631c6.662-3.953 14.632-3.773 20.958-.262l22.885-13.582c-15.469-9.736-35.728-10.693-52.495-.742C16.483 28.998 7.616 47.238 8.751 65.479l22.884-13.576c-.049-7.239 3.609-14.319 10.271-18.272z" fill="#0086ff"/><path d="M4.977 69.219a1.495 1.495 0 0 1-1.421-1.023C-4.168 45.219 5.362 19.56 26.214 7.185s47.939-8.448 64.409 9.342a1.502 1.502 0 0 1-.335 2.309L63.63 34.659a1.499 1.499 0 0 1-1.493.021c-6.075-3.372-13.534-3.28-19.465.24-5.93 3.519-9.584 10.021-9.537 16.972a1.5 1.5 0 0 1-.734 1.3L5.742 69.009c-.234.139-.499.21-.765.21zM52.529 2.996c-8.527 0-17.104 2.21-24.784 6.769C8.637 21.105-.379 44.284 5.839 65.463l24.307-14.421c.245-7.682 4.401-14.788 10.995-18.701 6.598-3.915 14.827-4.159 21.682-.691L87.13 17.223C77.793 7.89 65.217 2.996 52.529 2.996z" fill="#33363a"/><path d="M61.997 46.012c3.092 5.207 1.377 11.93-3.832 15.018-5.202 3.09-11.928 1.377-15.019-3.832-3.088-5.203-1.372-11.932 3.834-15.019 5.205-3.091 11.929-1.372 15.017 3.833z" fill="#0af"/><path d="M43.146 57.197c-3.088-5.203-1.372-11.932 3.834-15.019 5.205-3.09 11.929-1.371 15.017 3.834" fill="#0086ff"/><path d="M52.594 64.07c-1.033 0-2.073-.13-3.101-.392a12.378 12.378 0 0 1-7.637-5.716 12.373 12.373 0 0 1-1.356-9.439 12.376 12.376 0 0 1 5.715-7.636 12.358 12.358 0 0 1 9.439-1.356 12.378 12.378 0 0 1 7.633 5.715 12.373 12.373 0 0 1 1.36 9.439 12.37 12.37 0 0 1-5.718 7.634 12.354 12.354 0 0 1-6.335 1.751zm-.039-21.93a9.39 9.39 0 0 0-4.809 1.328 9.399 9.399 0 0 0-4.34 5.798 9.396 9.396 0 0 0 1.03 7.166 9.396 9.396 0 0 0 5.798 4.34 9.376 9.376 0 0 0 7.165-1.032 9.389 9.389 0 0 0 4.341-5.795 9.393 9.393 0 0 0-1.033-7.167 9.396 9.396 0 0 0-5.796-4.34 9.481 9.481 0 0 0-2.356-.298zM21.278 71.678a1.5 1.5 0 0 1-.767-2.79l13.318-7.904a1.501 1.501 0 0 1 1.532 2.58l-13.318 7.904c-.24.142-.504.21-.765.21zM13.604 76.225c-.391 0-.771-.16-1.061-.44a1.483 1.483 0 0 1-.439-1.06c0-.39.16-.78.439-1.06.57-.561 1.561-.561 2.12 0a1.499 1.499 0 0 1-1.059 2.56zM6.613 80.375a1.502 1.502 0 0 1-1.061-2.561c.57-.56 1.561-.56 2.12 0 .28.28.44.67.44 1.061 0 .39-.16.779-.44 1.06-.278.28-.658.44-1.059.44zM70.551 42.436a1.5 1.5 0 0 1-.767-2.79l13.318-7.9a1.5 1.5 0 0 1 1.532 2.58l-13.318 7.9c-.241.142-.504.21-.765.21zM91.543 29.984c-.399 0-.79-.16-1.069-.439a1.548 1.548 0 0 1-.431-1.061c0-.399.16-.79.431-1.069.56-.551 1.56-.551 2.13 0 .279.279.439.67.439 1.069 0 .391-.16.771-.439 1.061-.281.279-.67.439-1.061.439zM98.529 25.834a1.5 1.5 0 0 1-.767-2.79L118 11.032a1.501 1.501 0 0 1 1.532 2.58L99.294 25.624c-.24.143-.504.21-.765.21z" fill="#33363a"/><path d="M96.118 126.482a1.5 1.5 0 0 1-1.29-.734l-17.18-28.953a.386.386 0 0 0-.013-.021c-20.666 11.459-46.982 7.329-63.111-10.092a1.502 1.502 0 0 1 .335-2.309l26.658-15.82a1.501 1.501 0 0 1 1.493-.021c6.077 3.371 13.534 3.281 19.463-.238 5.931-3.52 9.586-10.022 9.539-16.972a1.502 1.502 0 0 1 .734-1.3l50.578-30.016a1.5 1.5 0 1 1 2.214 1.681L97.566 125.373a1.5 1.5 0 0 1-1.448 1.109zM80.39 95.535l15.206 25.627 26.085-96.692-46.679 27.699c-.245 7.682-4.401 14.789-10.997 18.703-6.594 3.914-14.822 4.156-21.68.689L18.019 85.986c15.61 15.605 40.277 18.8 59.385 7.462l.563-.351a1.502 1.502 0 0 1 2.263 1.104l.16 1.334z" fill="#33363a"/><path d="M91.54 91.688a1.5 1.5 0 0 1-1.158-.547l-8.064-9.807a1.5 1.5 0 0 1-.342-.953v-7.83a1.5 1.5 0 0 1 .75-1.299l8.064-4.656a1.5 1.5 0 0 1 1.5 0l8.063 4.656a1.5 1.5 0 0 1 .75 1.299v7.83c0 .348-.121.685-.342.952l-8.063 9.807a1.5 1.5 0 0 1-1.158.548zm-6.564-11.844l6.564 7.982 6.563-7.982v-6.427l-6.563-3.79-6.564 3.79v6.427z" fill="#33363a"/></svg>