<svg xmlns="http://www.w3.org/2000/svg" viewBox="0 0 45.208 45.208" width="512" height="512"><ellipse cx="23.618" cy="43.428" rx="13.62" ry="1.78" opacity=".15" fill="#45413c"/><path d="M35.318 23.328a6.53 6.53 0 0 1-.2-5.12 8.228 8.228 0 0 0 .6-2.39 7.999 7.999 0 0 0-15.54-3.51 7.289 7.289 0 0 1-3.66 4 13.819 13.819 0 0 0-7.41 9.07c-2.298 7.321 1.774 15.117 9.095 17.415 7.321 2.298 15.117-1.774 17.415-9.095a13.798 13.798 0 0 0-.3-10.37z" fill="#9ceb60"/><path d="M35.618 29.508c-2.622 7.197-10.583 10.906-17.78 8.284a13.871 13.871 0 0 1-8.99-11.124c-1.142 7.586 4.082 14.661 11.668 15.803a13.889 13.889 0 0 0 15.052-8.803 13.817 13.817 0 0 0 .72-6.93 13.47 13.47 0 0 1-.67 2.77z" fill="#6dd627"/><path d="M22.357 43.933c-1.425 0-2.873-.214-4.303-.663-7.572-2.377-11.799-10.47-9.423-18.042a14.263 14.263 0 0 1 7.67-9.371 6.762 6.762 0 0 0 3.409-3.726c1.257-3.867 5.122-6.304 9.172-5.776 2.252.293 4.254 1.446 5.639 3.245s1.985 4.03 1.692 6.281a8.678 8.678 0 0 1-.63 2.508 6.06 6.06 0 0 0 .234 4.719 14.246 14.246 0 0 1 .268 10.766c-1.92 6.121-7.607 10.059-13.728 10.059zm5.425-36.649a7.502 7.502 0 0 0-7.127 5.179 7.774 7.774 0 0 1-3.919 4.296A13.285 13.285 0 0 0 9.594 25.5c-2.219 7.073 1.714 14.604 8.76 16.815 7.046 2.215 14.577-1.722 16.788-8.767a13.253 13.253 0 0 0-.231-10.021 7.05 7.05 0 0 1-.252-5.512c.3-.719.489-1.475.563-2.245a7.46 7.46 0 0 0-1.49-5.56 7.456 7.456 0 0 0-4.976-2.863 7.666 7.666 0 0 0-.974-.063z" fill="#45413c"/><path d="M29.088 8.708a13.435 13.435 0 0 1 2-3.82 5.2 5.2 0 0 1 2.44-1.94s1.44-.32 2 .75c.328.57.478 1.224.43 1.88a6.48 6.48 0 0 0-2.74 1.25 15.803 15.803 0 0 0-2.31 3.13 2.001 2.001 0 0 1-1.82-1.25z" fill="#b89558"/><path d="M29.858 9.648a13.29 13.29 0 0 1 1.61-2.79 5.21 5.21 0 0 1 2.44-1.93 1.94 1.94 0 0 1 2 .67h.11a3.287 3.287 0 0 0-.43-1.88c-.57-1.07-2-.75-2-.75a5.2 5.2 0 0 0-2.44 1.94 13.308 13.308 0 0 0-2 3.82c.141.37.388.69.71.92z" fill="#debb7e"/><path d="M30.909 10.458H30.9a2.495 2.495 0 0 1-2.275-1.563.505.505 0 0 1-.011-.345 13.798 13.798 0 0 1 2.075-3.963 5.636 5.636 0 0 1 2.66-2.106c.146-.038 1.893-.407 2.623.985a3.77 3.77 0 0 1 .485 2.149.502.502 0 0 1-.405.455 5.856 5.856 0 0 0-2.524 1.151 15.56 15.56 0 0 0-2.184 2.982.498.498 0 0 1-.435.255zm-1.283-1.78c.212.388.582.66 1.011.749a16.278 16.278 0 0 1 2.218-2.943 6.94 6.94 0 0 1 2.607-1.308 2.769 2.769 0 0 0-.367-1.229c-.389-.74-1.449-.514-1.458-.511a4.663 4.663 0 0 0-2.135 1.732 12.898 12.898 0 0 0-1.876 3.51z" fill="#45413c"/><path d="M29.388 6.478s.83-3.07-2.82-5c-3.15-1.59-4.95-.78-7.18-.7a.729.729 0 0 0-.65 1c1.6 3.43 5 7.73 10.65 4.7z" fill="#6dd627"/><path d="M19.618.758h-.24a.729.729 0 0 0-.65 1c1.6 3.36 5 7.7 10.65 4.67a4.003 4.003 0 0 0-.31-2.52c-4.58 2.3-7.65-.29-9.45-3.15z" fill="#46b000"/><path d="M25.723 8.006a6.158 6.158 0 0 1-1.953-.315c-2.764-.919-4.508-3.608-5.485-5.702a1.217 1.217 0 0 1 .229-1.318c.223-.241.527-.38.855-.393.509-.019.993-.076 1.477-.133 1.671-.197 3.399-.4 5.948.886 3.965 2.097 3.086 5.542 3.076 5.577a.5.5 0 0 1-.246.31c-1.35.725-2.656 1.088-3.901 1.088zm-2.982-7.005c-.61 0-1.188.068-1.778.138-.51.06-1.021.12-1.556.139a.23.23 0 0 0-.22.238c.737 1.62 2.345 4.377 4.899 5.227 1.477.489 3.111.29 4.857-.596.093-.663.144-2.772-2.607-4.227-1.431-.722-2.558-.919-3.595-.919zm6.647 5.477h.01-.01zm0 0h.01-.01z" fill="#45413c"/></svg>