<svg height="511pt" viewBox="-22 1 511 511.999" width="511pt" xmlns="http://www.w3.org/2000/svg"><path d="M8 447.746l37.25 37.25h80.527l47.532-47.531v-86.117l-92.11-36.407-50.191 44.227zm0 0" fill="#898ec9"/><path d="M173.3 351.348v86.12l-47.523 47.524H45.25l-20.02-20.02h80.528l47.523-47.523v-74.012zm0 0" fill="#6163aa"/><path d="M173.3 193.469l19.153 19.152h41.402l24.438-24.437v-44.278l-47.36-18.715-25.804 22.739zm0 0M259.46 456.29l19.153 19.151h41.399l24.437-24.437v-44.277l-47.355-18.72-25.805 22.74zm0 0" fill="#898ec9"/><g fill="#6163aa"><path d="M54.672 232.43c-6.996-6.996-6.996-18.34 0-25.336l18.531-18.528c6.996-6.996 18.34-6.996 25.336 0 6.996 6.996 6.996 18.34 0 25.336L80.008 232.43c-6.996 6.996-18.34 6.996-25.336 0zm0 0M394.742 309.27c-6.996-7-6.996-18.34 0-25.336l18.531-18.532c6.997-6.996 18.34-6.996 25.336 0s6.996 18.34 0 25.336l-18.53 18.532c-6.997 6.996-18.34 6.996-25.337 0zm0 0M176.309 56.602c-6.996-6.997-6.996-18.34 0-25.336l18.527-18.532c6.996-6.996 18.34-6.996 25.336 0s6.996 18.34 0 25.336l-18.527 18.532c-6.997 6.996-18.34 6.996-25.336 0zm0 0"/></g><path d="M22.094 393.492a7.487 7.487 0 0 0 1.886.242 7.502 7.502 0 0 0 7.254-5.617l6.453-24.84 45.024-39.672 29.836 11.793a7.502 7.502 0 0 0 9.734-4.214 7.505 7.505 0 0 0-4.219-9.735l-23.484-9.281 64.094-64.09a7.497 7.497 0 0 0 0-10.605 7.497 7.497 0 0 0-10.606 0l-72.004 72-50.015 44.07a7.5 7.5 0 0 0-2.3 3.742l-7.028 27.063a7.499 7.499 0 0 0 5.375 9.144zm0 0M105.98 444.05a7.475 7.475 0 0 0 5.301-2.198l25.883-25.883a7.499 7.499 0 0 0 2.2-5.301v-24.113a7.5 7.5 0 1 0-15 0v21.007l-23.688 23.684a7.502 7.502 0 0 0 5.304 12.805zm0 0"/><path d="M371.738 249.64a7.497 7.497 0 0 0 0-10.605 7.497 7.497 0 0 0-10.605 0L180.809 419.36v-68.011a7.507 7.507 0 0 0-4.743-6.977l-27.418-10.832a7.497 7.497 0 0 0-9.73 4.215 7.503 7.503 0 0 0 4.219 9.734l22.672 8.961v77.91l-43.137 43.137H48.359l-32.02-32.02 6.696-25.78a7.505 7.505 0 0 0-5.375-9.145 7.502 7.502 0 0 0-9.144 5.375L.742 445.859a7.5 7.5 0 0 0 1.953 7.188l37.25 37.25a7.504 7.504 0 0 0 5.305 2.195h80.523c1.989 0 3.899-.789 5.305-2.195zm0 0"/><path d="M275.133 254.93l-62.844 62.843c-2.926 2.926-2.926 7.676 0 10.606 1.465 1.465 3.387 2.195 5.305 2.195s3.84-.73 5.304-2.195l62.84-62.844a7.497 7.497 0 0 0 0-10.605 7.497 7.497 0 0 0-10.605 0zm0 0M214.34 439.16l-60.04 60.035a7.497 7.497 0 0 0 0 10.606c1.466 1.465 3.387 2.199 5.305 2.199s3.84-.734 5.305-2.2l60.035-60.034a7.497 7.497 0 0 0 0-10.606 7.497 7.497 0 0 0-10.605 0zm0 0M180.172 142.3a7.489 7.489 0 0 0-2.3 3.743l-11.829 45.543a7.502 7.502 0 0 0 1.953 7.187l19.152 19.153a7.504 7.504 0 0 0 5.305 2.195h41.399c1.992 0 3.898-.789 5.304-2.195l94.489-94.492a7.497 7.497 0 0 0 0-10.606 7.497 7.497 0 0 0-10.606 0l-57.25 57.25V143.91a7.501 7.501 0 0 0-4.742-6.976l-36.73-14.516 88.746-88.746a7.502 7.502 0 0 0 0-10.61c-2.93-2.925-7.68-2.925-10.606 0l-96.656 96.66zm70.621 42.778l-20.047 20.043H195.56l-13.918-13.918 10.168-39.164 20.64-18.184 38.34 15.153v36.07zm0 0M317.172 168.23a7.497 7.497 0 0 0-10.606 0l-32.312 32.31a7.497 7.497 0 0 0 0 10.605 7.484 7.484 0 0 0 5.305 2.199c1.918 0 3.84-.735 5.3-2.2l32.313-32.308a7.497 7.497 0 0 0 0-10.606zm0 0M465.195 330.258a7.497 7.497 0 0 0-10.605 0L351.95 432.895v-26.168a7.501 7.501 0 0 0-4.743-6.977l-36.73-14.516 44.644-44.644a7.497 7.497 0 0 0 0-10.606 7.502 7.502 0 0 0-10.61 0l-52.55 52.555-25.629 22.582a7.489 7.489 0 0 0-2.3 3.742l-1.825 7.016c-1.039 4.008 1.363 8.105 5.375 9.144a7.502 7.502 0 0 0 9.145-5.375l1.246-4.789 20.636-18.187 38.344 15.156v36.067l-20.043 20.043h-35.187L267.8 454.02l.816-3.149a7.5 7.5 0 1 0-14.52-3.77l-1.894 7.301a7.501 7.501 0 0 0 1.957 7.188l19.153 19.152a7.499 7.499 0 0 0 5.3 2.2h41.403a7.499 7.499 0 0 0 5.3-2.2L465.2 340.863a7.5 7.5 0 0 0-.004-10.605zm0 0M392.723 431.047l-32.313 32.308a7.51 7.51 0 0 0 0 10.61 7.48 7.48 0 0 0 5.305 2.195 7.48 7.48 0 0 0 5.305-2.195l32.308-32.313a7.497 7.497 0 0 0 0-10.605 7.497 7.497 0 0 0-10.605 0zm0 0M67.34 245.168c6.508 0 13.02-2.48 17.972-7.434l18.532-18.53c9.906-9.907 9.906-26.032 0-35.942-9.91-9.91-26.035-9.91-35.946 0l-18.527 18.531c-4.8 4.797-7.445 11.18-7.445 17.969 0 6.789 2.644 13.172 7.445 17.972 4.953 4.953 11.461 7.434 17.969 7.434zm-7.363-32.77l18.527-18.53a10.399 10.399 0 0 1 7.367-3.044 10.39 10.39 0 0 1 7.363 3.043c4.063 4.063 4.063 10.672 0 14.73L74.707 227.13c-4.062 4.059-10.672 4.059-14.73 0a10.344 10.344 0 0 1-3.051-7.367c0-2.782 1.082-5.395 3.05-7.364zm0 0M389.441 314.57c4.954 4.957 11.461 7.434 17.97 7.434 6.507 0 13.019-2.477 17.972-7.434l18.531-18.527c9.91-9.91 9.91-26.035 0-35.945-9.91-9.907-26.035-9.907-35.941 0l-18.532 18.53c-9.91 9.911-9.91 26.032 0 35.942zm10.606-25.336l18.531-18.527a10.37 10.37 0 0 1 7.363-3.047 10.37 10.37 0 0 1 7.364 3.047c4.062 4.059 4.062 10.668 0 14.727l-18.528 18.53c-4.062 4.06-10.668 4.063-14.73 0-4.059-4.062-4.059-10.667 0-14.73zm0 0M188.977 69.348c6.789 0 13.171-2.645 17.972-7.446l18.528-18.527c9.91-9.91 9.91-26.035 0-35.945-9.91-9.907-26.032-9.907-35.942 0l-18.531 18.53c-9.91 9.911-9.91 26.036 0 35.942 4.8 4.801 11.184 7.446 17.973 7.446zm-7.368-32.782l18.532-18.527a10.384 10.384 0 0 1 7.363-3.047c2.668 0 5.336 1.016 7.367 3.047 4.059 4.063 4.059 10.668 0 14.73L196.34 51.298c-1.969 1.969-4.582 3.05-7.363 3.05s-5.399-1.081-7.368-3.05c-4.058-4.059-4.058-10.668 0-14.73zm0 0"/><path d="M233.86 176.406h.14a7.5 7.5 0 1 0 .035-15h-.14a7.5 7.5 0 0 0-.036 15zm0 0M76.691 352.89H76.55a7.496 7.496 0 0 0-7.495 7.465c-.024 4.141 3.32 7.516 7.465 7.536H76.66a7.499 7.499 0 0 0 7.495-7.465 7.5 7.5 0 0 0-7.465-7.535zm0 0M106.816 357.73a7.5 7.5 0 0 0-7.5-7.5h-.101a7.5 7.5 0 0 0-7.5 7.5c0 4.145 3.355 7.5 7.5 7.5h.101c4.145 0 7.5-3.355 7.5-7.5zm0 0M210.918 170.555h-.035a7.503 7.503 0 0 0-.035 15.004h.14a7.503 7.503 0 0 0 .035-15.004zm0 0M159.61 98.145h.035a7.502 7.502 0 0 0 7.5-7.465l.015-2.887a7.503 7.503 0 0 0-7.465-7.54h-.039c-4.125 0-7.476 3.337-7.5 7.466l-.011 2.886a7.5 7.5 0 0 0 7.464 7.54zm0 0M159.605 109.64a7.498 7.498 0 0 0-7.539 7.465l-.011 2.887c-.024 4.14 3.32 7.516 7.46 7.54h.04a7.502 7.502 0 0 0 7.5-7.466l.011-2.886a7.502 7.502 0 0 0-7.46-7.54zm0 0M172.82 111.43l2.887.015h.035a7.5 7.5 0 1 0 .035-15l-2.886-.015h-.036a7.502 7.502 0 0 0-7.5 7.465 7.497 7.497 0 0 0 7.465 7.535zm0 0M143.434 111.34l2.886.015h.035a7.5 7.5 0 1 0 .035-15l-2.886-.015h-.035a7.5 7.5 0 1 0-.035 15zm0 0M439.242 408.465h.035a7.5 7.5 0 0 0 7.5-7.465l.012-2.887a7.496 7.496 0 0 0-7.46-7.535 7.476 7.476 0 0 0-7.54 7.465l-.012 2.887a7.5 7.5 0 0 0 7.465 7.535zm0 0M439.234 419.965h-.035a7.5 7.5 0 0 0-7.5 7.465l-.015 2.886a7.502 7.502 0 0 0 7.464 7.536h.04a7.499 7.499 0 0 0 7.496-7.465l.015-2.887a7.502 7.502 0 0 0-7.465-7.535zm0 0M455.41 406.766l-2.887-.016c-4.14.023-7.515 3.324-7.535 7.465a7.503 7.503 0 0 0 7.465 7.539l2.887.012h.035a7.5 7.5 0 0 0 7.5-7.465 7.5 7.5 0 0 0-7.465-7.535zm0 0M426.023 406.676l-2.886-.016h-.04a7.499 7.499 0 0 0-7.495 7.465 7.505 7.505 0 0 0 7.46 7.54l2.887.01h.04a7.499 7.499 0 0 0 7.5-7.46 7.5 7.5 0 0 0-7.466-7.54zm0 0M361.96 153.098h.04c4.125 0 7.477-3.336 7.5-7.465l.012-2.887a7.5 7.5 0 0 0-7.465-7.535 7.476 7.476 0 0 0-7.535 7.46l-.016 2.892a7.502 7.502 0 0 0 7.465 7.535zm0 0M361.957 164.598c-4.113-.063-7.516 3.32-7.539 7.46l-.012 2.887a7.502 7.502 0 0 0 7.461 7.54h.04a7.502 7.502 0 0 0 7.5-7.465l.015-2.887a7.502 7.502 0 0 0-7.465-7.535zm0 0M375.172 166.387l2.887.011h.039a7.5 7.5 0 0 0 .035-15l-2.887-.011h-.039a7.495 7.495 0 0 0-7.496 7.46 7.497 7.497 0 0 0 7.46 7.54zm0 0M345.785 166.297l2.887.012h.039a7.5 7.5 0 0 0 .035-15l-2.887-.016h-.035a7.502 7.502 0 0 0-7.5 7.465c-.023 4.144 3.32 7.515 7.461 7.539zm0 0"/></svg>