<svg height="512pt" viewBox="-1 0 512 512" width="512pt" xmlns="http://www.w3.org/2000/svg"><path d="M480.348 262.836H29.133c0-109.684 78.281-201.094 182.02-221.395a223.859 223.859 0 0 1 24.234-3.394 226.533 226.533 0 0 1 19.355-.817 226.256 226.256 0 0 1 51.89 5.997c99.587 23.437 173.716 112.875 173.716 219.609zm0 0" fill="#a7acd3"/><path d="M298.328 41.441V257.34h-87.176V41.44a224.832 224.832 0 0 1 24.235-3.394 228.143 228.143 0 0 1 19.355-.817c14.914 0 29.488 1.446 43.586 4.211zm0 0" fill="#7e18ea"/><path d="M480.348 262.836h-41.266c0-106.734-74.133-196.172-173.719-219.61a223.323 223.323 0 0 0-31.25-5.062c.422-.043.848-.086 1.274-.117a226.533 226.533 0 0 1 19.355-.817c17.863 0 35.235 2.079 51.89 5.997 99.587 23.437 173.716 112.875 173.716 219.609zm0 0" fill="#898ec9"/><path d="M29.148 273.84h451.188v195.39H29.148zm0 0" fill="#d82fea"/><path d="M29.148 273.84h451.188v44.23H29.148zm0 0" fill="#898ec9"/><path d="M491.098 504.5H18.387c-6.016 0-10.887-4.875-10.887-10.887V462.95c0-6.011 4.871-10.883 10.887-10.883h472.71c6.012 0 10.883 4.872 10.883 10.883v30.664c0 6.012-4.87 10.887-10.882 10.887zm0 0" fill="#a7acd3"/><path d="M491.098 284.02H18.387c-6.016 0-10.887-4.872-10.887-10.883v-7.64c0-6.013 4.871-10.888 10.887-10.888h472.71c6.012 0 10.883 4.875 10.883 10.887v7.64c0 6.012-4.87 10.884-10.882 10.884zm0 0" fill="#c5ee09"/><path d="M296.004 504.5h-82.527V377.441c0-6.011 4.875-10.886 10.886-10.886h60.758c6.012 0 10.887 4.875 10.887 10.886V504.5zm0 0" fill="#898ec9"/><g fill="#383c7c"><path d="M296.004 404.375h-82.527v-26.934c0-6.011 4.875-10.886 10.886-10.886h60.758c6.012 0 10.887 4.875 10.887 10.886v26.934zm0 0M29.148 415.055h55.555v37.011H29.148zm0 0M424.777 415.055h55.555v37.011h-55.555zm0 0"/></g><path d="M315.61 254.61h-42.372V18.386c0-6.012 4.875-10.887 10.887-10.887h20.598c6.011 0 10.886 4.875 10.886 10.887zm0 0" fill="#d82fea"/><path d="M230.887 173.258l142.691-41.922L362.52 93.69l-131.633 38.676zm0 0" fill="#6163aa"/><path d="M476.39 113.016l-103.695 30.468c-5.765 1.696-11.816-1.609-13.511-7.379l-11.356-38.64c-1.691-5.77 1.61-11.82 7.379-13.516l103.691-30.465zm0 0" fill="#c5ee09"/><path d="M481.883 79.055c-4.828-16.438-15.13-27.887-23.004-25.575s-10.344 17.516-5.516 33.954c4.832 16.441 15.133 27.89 23.008 25.578 7.875-2.317 10.344-17.516 5.512-33.957zm0 0" fill="#383c7c"/><path d="M236.242 254.61h-42.37V18.386c0-6.012 4.874-10.887 10.886-10.887h20.601c6.012 0 10.883 4.875 10.883 10.887zm0 0" fill="#d82fea"/><path d="M217.367 222.012h74.746v35.328h-74.746zm0 0" fill="#a7acd3"/><path d="M487.836 291.52h3.262c10.136 0 18.386-8.247 18.386-18.383v-7.64c0-10.138-8.25-18.388-18.386-18.388h-3.778a232.779 232.779 0 0 0-11.218-57.507c-1.301-3.934-5.543-6.063-9.477-4.766a7.505 7.505 0 0 0-4.77 9.476 217.332 217.332 0 0 1 10.426 52.797h-40.004v-8.652a7.5 7.5 0 0 0-7.5-7.5 7.5 7.5 0 0 0-7.5 7.5v8.652h-9.343v-15.183a7.5 7.5 0 0 0-7.5-7.5 7.497 7.497 0 0 0-7.5 7.5v15.183h-69.825V153.98l32.16-9.449a18.294 18.294 0 0 0 5.551 4.645 18.279 18.279 0 0 0 8.782 2.258c1.742 0 3.492-.25 5.21-.754l56.06-16.473a219.112 219.112 0 0 1 18.874 30.852 7.5 7.5 0 0 0 6.707 4.136 7.45 7.45 0 0 0 3.36-.8 7.5 7.5 0 0 0 3.335-10.07 233.456 233.456 0 0 0-17.043-28.59l32.41-9.524c3.903-1.152 10.739-4.977 12.801-17.672 1.215-7.5.43-16.586-2.218-25.594h.004c-2.649-9.004-6.903-17.074-11.98-22.722-8.61-9.567-20.337-7.934-20.337-7.934l-74 21.742a231.8 231.8 0 0 0-59.676-28.105v-21.54C323.11 8.247 314.86 0 304.723 0H284.12c-10.137 0-18.383 8.246-18.383 18.387v11.605c-7.308-.34-14.687-.34-21.996 0V18.387C243.742 8.247 235.496 0 225.36 0h-20.601C194.62 0 186.37 8.246 186.37 18.387v21.539c-38.77 11.883-73.93 33.844-101.82 63.636a7.495 7.495 0 0 0 .347 10.598 7.48 7.48 0 0 0 5.125 2.027c2.004 0 4-.796 5.477-2.375 25.047-26.75 56.344-46.753 90.871-58.152v191.453h-69.82V231.93a7.5 7.5 0 0 0-7.5-7.5 7.497 7.497 0 0 0-7.5 7.5v15.183h-9.348v-8.652c0-4.145-3.355-7.5-7.5-7.5a7.5 7.5 0 0 0-7.5 7.5v8.652H37.2c2.785-39.011 15.973-76.441 38.336-108.61a7.498 7.498 0 0 0-1.879-10.437 7.497 7.497 0 0 0-10.437 1.875c-24.11 34.684-38.242 75.086-41.059 117.172h-3.773C8.247 247.113 0 255.36 0 265.5v7.637c0 10.14 8.246 18.386 18.387 18.386h3.261v153.043h-3.261C8.247 444.566 0 452.816 0 462.953v30.664C0 503.754 8.246 512 18.387 512h90.023c4.145 0 7.5-3.355 7.5-7.5s-3.355-7.5-7.5-7.5H18.387A3.39 3.39 0 0 1 15 493.613V462.95a3.39 3.39 0 0 1 3.387-3.383h187.59V497H141.07c-4.14 0-7.5 3.355-7.5 7.5s3.36 7.5 7.5 7.5h350.028c10.136 0 18.382-8.246 18.382-18.387V462.95c0-10.136-8.246-18.383-18.382-18.383h-3.266V291.52zm-179.727-44.41h-8.492v-25.098a7.5 7.5 0 0 0-7.5-7.5h-11.379V166.43l27.371-8.043zm34.786-139.833l6.832 23.246-105.985 31.141v-25.258zm-99.153 70.024l21.996-6.465v43.676h-21.996zm40.875 52.21v17.602h-59.75v-17.601zm85.969-93.226a3.36 3.36 0 0 1-2.578-.273 3.364 3.364 0 0 1-1.625-2.02l-11.356-38.64a3.394 3.394 0 0 1 2.293-4.207l12.778-3.754 13.261 45.14zm75.602-46.73c2.44 8.304 6.261 15.789 10.824 21.34l-59.258 17.41-13.266-45.14 59.262-17.411c-.84 7.133-.004 15.496 2.438 23.8zm28.523-8.38c4.332 14.75 1.144 23.794-.398 24.637h-.008c-.024.004-.043.004-.063.004-1.933 0-9.379-5.914-13.66-20.492-4.332-14.734-1.152-23.773.39-24.633l.02-.004c.02 0 .04-.003.059-.003 1.93 0 9.375 5.918 13.66 20.492zm-111.27-7.46l-10.347 3.039c-7.36 2.164-12.34 8.547-13.098 15.738l-16.887 4.961V55.664a216.54 216.54 0 0 1 40.332 18.05zM284.125 15h20.598a3.39 3.39 0 0 1 3.386 3.387v83.472l-27.37 8.043V18.387A3.39 3.39 0 0 1 284.124 15zm-18.387 30.004v69.305l-21.996 6.464v-75.77c7.305-.358 14.692-.358 21.996 0zm-64.367-26.617A3.39 3.39 0 0 1 204.758 15h20.601a3.39 3.39 0 0 1 3.387 3.387v196.125h-11.379a7.497 7.497 0 0 0-7.5 7.5v25.101h-8.492V18.387zM15 273.137v-7.64a3.39 3.39 0 0 1 3.387-3.388h472.71a3.39 3.39 0 0 1 3.387 3.387v7.64a3.39 3.39 0 0 1-3.386 3.387H18.387A3.393 3.393 0 0 1 15 273.137zm457.836 18.383v19.05H36.648v-19.05zM36.648 444.566v-22.011h40.555v22.011zm55.555 0v-29.511c0-4.145-3.355-7.5-7.5-7.5H36.648V325.57h436.188v81.985h-48.059a7.497 7.497 0 0 0-7.5 7.5v29.511H303.504v-32.691h4.555a7.5 7.5 0 1 0 0-15h-4.555v-19.434c0-10.14-8.246-18.386-18.387-18.386h-60.754c-10.136 0-18.386 8.246-18.386 18.386v19.434h-4.551a7.5 7.5 0 0 0-7.5 7.5c0 4.145 3.355 7.5 7.5 7.5h4.55v32.691zm196.3-47.691h-67.526v-19.434a3.39 3.39 0 0 1 3.386-3.386h60.758a3.39 3.39 0 0 1 3.387 3.386v19.434zM220.978 497v-85.125h67.527V497zm273.503-34.05v30.663a3.388 3.388 0 0 1-3.382 3.387H303.504v-37.434h187.594a3.387 3.387 0 0 1 3.382 3.383zm-62.203-18.384v-22.011h40.559v22.011zm0 0"/><path d="M335.516 430.176h.113a7.5 7.5 0 1 0 0-15h-.113a7.497 7.497 0 0 0-7.5 7.5 7.5 7.5 0 0 0 7.5 7.5zm0 0M173.969 415.176h-.114a7.497 7.497 0 0 0-7.5 7.5 7.5 7.5 0 0 0 7.5 7.5h.114a7.5 7.5 0 1 0 0-15zm0 0M424.777 397.152h24.094c4.145 0 7.5-3.355 7.5-7.5a7.5 7.5 0 0 0-7.5-7.5h-24.094a7.5 7.5 0 0 0-7.5 7.5 7.5 7.5 0 0 0 7.5 7.5zm0 0M424.777 374.605h24.094c4.145 0 7.5-3.355 7.5-7.5a7.5 7.5 0 0 0-7.5-7.5h-24.094a7.5 7.5 0 0 0-7.5 7.5 7.5 7.5 0 0 0 7.5 7.5zm0 0M84.703 382.152H60.61a7.5 7.5 0 1 0 0 15h24.094c4.145 0 7.5-3.355 7.5-7.5a7.5 7.5 0 0 0-7.5-7.5zm0 0M84.703 359.605H60.61a7.5 7.5 0 1 0 0 15h24.094c4.145 0 7.5-3.355 7.5-7.5a7.5 7.5 0 0 0-7.5-7.5zm0 0"/></svg>