<svg height="512pt" viewBox="-16 0 512 512" width="512pt" xmlns="http://www.w3.org/2000/svg"><path d="M25.953 257.066c0 53.645 19.383 102.766 51.524 140.73.011.013.011.013.023.024 39.977 47.203 99.68 77.172 166.379 77.172 59.453 0 113.332-23.797 152.648-62.394 35.594-34.934 59.254-82 64.274-134.508a218.873 218.873 0 0 0 1.004-21.024c0-66.703-29.965-126.406-77.172-166.382a217.862 217.862 0 0 0-43.906-28.899c-29.176-14.496-62.059-22.648-96.848-22.648-90.633 0-168.348 55.324-201.2 134.05-10.773 25.829-16.726 54.153-16.726 83.88zm0 0" fill="#9bf2e5"/><path d="M25.953 257.066c0 53.645 19.383 102.766 51.524 140.73.011.013.011.013.023.024 39.977 47.203 99.68 77.172 166.379 77.172V39.141c-90.633 0-168.348 55.32-201.2 134.05-10.773 25.825-16.726 54.149-16.726 83.875zm0 0" fill="#5100cb"/><path d="M243.879 474.992c59.453 0 113.328-23.797 152.644-62.394 35.598-34.934 59.254-82 64.278-134.508a218.873 218.873 0 0 0 1.004-21.024c0-66.703-29.97-126.406-77.172-166.382h-.012c32.133 37.968 51.516 87.078 51.516 140.714 0 7.09-.336 14.098-1.004 21.024-5.02 52.508-28.68 99.574-64.274 134.512-39.32 38.582-93.195 62.39-152.648 62.39-53.648 0-102.746-19.383-140.715-51.504 39.977 47.203 99.684 77.172 166.383 77.172zm0 0" fill="#2de0c7"/><path d="M202.93 132.137v39.715c0 25.93 17.28 47.82 40.949 54.796a57.263 57.263 0 0 0 16.148 2.313h38.125a9.653 9.653 0 0 1 6.844 2.832l22.938 22.93a9.665 9.665 0 0 0 6.84 2.836h28.96a9.704 9.704 0 0 1 6.84 2.832l14.864 14.863a9.654 9.654 0 0 0 6.843 2.836h68.52a218.873 218.873 0 0 0 1.004-21.024c0-66.71-29.965-126.414-77.172-166.382h-.008a218.307 218.307 0 0 0-43.898-28.899v65.207a9.701 9.701 0 0 1-2.836 6.84l-16.957 16.945a9.637 9.637 0 0 1-6.84 2.832h-26.13a9.664 9.664 0 0 1-9.671-9.671v-43.293c0-5.356-4.344-9.688-9.688-9.688h-35.3a9.684 9.684 0 0 0-8.098 4.375l-20.687 31.492a9.606 9.606 0 0 0-1.59 5.313zm0 0" fill="#84e507"/><path d="M243.879 226.648V90.957h-10.574a9.68 9.68 0 0 0-8.098 4.371l-20.687 31.496a9.606 9.606 0 0 0-1.59 5.313v39.715c0 25.93 17.28 47.82 40.949 54.796zm0 0" fill="#898ec9"/><path d="M435.133 252.422a216.246 216.246 0 0 1-4.016 25.668h29.684a218.873 218.873 0 0 0 1.004-21.024c0-66.71-29.97-126.418-77.172-166.382h-.012c32.133 37.968 51.516 87.078 51.516 140.714 0 7.09-.336 14.098-1.004 21.024zm0 0" fill="#69cc00"/><path d="M25.953 257.066c0 53.657 19.395 102.786 51.547 140.754l.008.008c39.976 47.203 99.672 77.16 166.37 77.16 59.454 0 113.333-23.793 152.65-62.39h-80.919a9.665 9.665 0 0 1-6.84-2.836l-20.742-20.739a9.687 9.687 0 0 1-2.832-6.843v-74.848c0-5.336-4.343-9.676-9.687-9.676H159.492a9.659 9.659 0 0 1-6.84-2.836l-23.18-23.175a9.672 9.672 0 0 1-2.835-6.852v-51.61a9.665 9.665 0 0 0-2.836-6.84l-30.32-30.312a9.673 9.673 0 0 0-6.84-2.844H42.68c-10.774 25.829-16.727 54.153-16.727 83.88zm0 0" fill="#84e507"/><path d="M339.313 412.598c-34.633 23.191-76.282 36.726-121.102 36.726-53.649 0-102.734-19.383-140.703-51.492 39.976 47.203 99.672 77.16 166.37 77.16 59.454 0 113.333-23.797 152.65-62.394zm0 0" fill="#69cc00"/><path d="M243.879 297.66v177.332c-66.7 0-126.395-29.957-166.371-77.16l-.008-.012c-32.156-37.968-51.547-87.097-51.547-140.754 0-29.726 5.953-58.05 16.727-83.879h43.96a9.677 9.677 0 0 1 6.84 2.848l30.325 30.313a9.662 9.662 0 0 1 2.832 6.84v51.605a9.672 9.672 0 0 0 2.836 6.852l23.18 23.18a9.665 9.665 0 0 0 6.84 2.835zm0 0" fill="#898ec9"/><path d="M243.879 447.816v27.176c-66.7 0-126.395-29.957-166.371-77.16 37.969 32.11 87.055 51.492 140.703 51.492 8.68 0 17.25-.515 25.668-1.508zm0 0" fill="#6163aa"/><path d="M442.262 419.57c0 28.754-23.309 52.059-52.059 52.059-28.754 0-52.062-23.305-52.062-52.059 0-28.75 23.308-52.058 52.062-52.058 28.75 0 52.059 23.308 52.059 52.058zm0 0" fill="#fda736"/><path d="M442.262 419.57c0 28.754-23.305 52.063-52.059 52.063-5.246 0-10.3-.774-15.066-2.215 21.418-6.453 37.008-26.328 37.008-49.848s-15.59-43.394-37.008-49.847a51.943 51.943 0 0 1 15.066-2.211c28.754 0 52.059 23.304 52.059 52.058zm0 0" fill="#fd8f07"/><path d="M149.066 61.344c0 35.265-28.777 64.043-64.043 64.043-22.433 0-42.168-11.532-53.605-28.992-.73-1.118.45-2.493 1.66-1.93 8.192 3.808 17.324 5.933 26.957 5.933 35.469 0 64.043-28.574 64.043-64.043 0-9.632-2.125-18.765-5.933-26.96-.563-1.211.812-2.391 1.93-1.657 17.46 11.438 28.991 31.172 28.991 53.606zm0 0" fill="#fed370"/><path d="M306.125 318.254v24.777c0 4.14 3.36 7.5 7.5 7.5s7.5-3.36 7.5-7.5v-24.777c0-4.14-3.36-7.5-7.5-7.5s-7.5 3.36-7.5 7.5zm0 0M167.93 372.246v-.098a7.5 7.5 0 0 0-7.5-7.5 7.5 7.5 0 0 0-7.5 7.5v.098a7.5 7.5 0 0 0 7.5 7.5 7.5 7.5 0 0 0 7.5-7.5zm0 0M410.566 233.043a7.5 7.5 0 0 0 7.5-7.5v-.098a7.5 7.5 0 0 0-7.5-7.5 7.497 7.497 0 0 0-7.5 7.5v.098c0 4.144 3.356 7.5 7.5 7.5zm0 0M396.527 233.11a7.499 7.499 0 0 0-7.496 7.5v.1a7.499 7.499 0 1 0 14.996 0v-.1a7.5 7.5 0 0 0-7.5-7.5zm0 0M183.215 355.094v-.102a7.5 7.5 0 1 0-15 0v.102a7.5 7.5 0 1 0 15 0zm0 0M177.617 137.57c-4.14 0-7.5 3.36-7.5 7.5v24.868c0 4.14 3.36 7.5 7.5 7.5 4.14 0 7.5-3.36 7.5-7.5V145.07c0-4.14-3.36-7.5-7.5-7.5zm0 0M42.77 412.07h-.04a7.502 7.502 0 0 0-7.5 7.465l-.015 3.012a7.502 7.502 0 0 0 7.465 7.535h.039a7.495 7.495 0 0 0 7.496-7.46l.015-3.013c.02-4.144-3.32-7.52-7.46-7.539zm0 0M50.137 450.273a7.499 7.499 0 0 0-7.461-7.535h-.04a7.499 7.499 0 0 0-7.5 7.461l-.015 3.016a7.5 7.5 0 0 0 7.465 7.535h.039a7.499 7.499 0 0 0 7.496-7.465zm0 0M59.555 428.965l-3.016-.016c-4.16.012-7.516 3.324-7.535 7.465a7.499 7.499 0 0 0 7.46 7.535l3.016.016h.036a7.499 7.499 0 0 0 7.5-7.461c.02-4.145-3.32-7.52-7.461-7.54zm0 0M28.887 428.871l-3.012-.016h-.04a7.5 7.5 0 1 0-.035 15l3.012.016h.04a7.499 7.499 0 0 0 7.496-7.465 7.496 7.496 0 0 0-7.461-7.535zm0 0M65.898 465.875l-.015 3.012a7.499 7.499 0 0 0 7.46 7.535h.04a7.499 7.499 0 0 0 7.5-7.461l.015-3.012a7.5 7.5 0 0 0-7.464-7.539 7.475 7.475 0 0 0-7.536 7.465zm0 0M73.34 489.078h-.04a7.501 7.501 0 0 0-7.5 7.461l-.01 3.016a7.499 7.499 0 0 0 7.46 7.535h.04c4.124 0 7.476-3.336 7.5-7.465l.01-3.012a7.496 7.496 0 0 0-7.46-7.535zm0 0M90.219 475.305l-3.012-.016c-4.121-.023-7.52 3.324-7.539 7.465s3.32 7.516 7.465 7.535l3.012.016h.039a7.501 7.501 0 0 0 .035-15zm0 0M59.555 475.21l-3.016-.015H56.5a7.501 7.501 0 0 0-.035 15l3.015.016h.036a7.502 7.502 0 0 0 7.5-7.465 7.499 7.499 0 0 0-7.461-7.535zm0 0M27.29 389.004h.108a7.5 7.5 0 1 0 0-15h-.109a7.5 7.5 0 1 0 0 15zm0 0M153.621 479.488h-.11a7.5 7.5 0 1 0 0 15h.11a7.5 7.5 0 1 0 0-15zm0 0M7.64 125.297H7.5a7.5 7.5 0 0 0-.035 15H7.609a7.503 7.503 0 0 0 7.5-7.469c.016-4.14-3.324-7.516-7.468-7.531zm0 0M27.203 148.648H27.344a7.5 7.5 0 1 0 .035-15H27.234a7.502 7.502 0 0 0-7.5 7.465 7.505 7.505 0 0 0 7.47 7.535zm0 0M90.094 258.266H90.238a7.502 7.502 0 0 0 7.5-7.465 7.503 7.503 0 0 0-7.468-7.535H90.129a7.5 7.5 0 1 0-.035 15zm0 0M73.375 275.336h-.141a7.503 7.503 0 0 0-7.5 7.469 7.499 7.499 0 0 0 7.465 7.53H73.344a7.502 7.502 0 0 0 7.5-7.464 7.505 7.505 0 0 0-7.469-7.535zm0 0M127.668 140.48H127.523a7.502 7.502 0 0 0-7.5 7.465 7.503 7.503 0 0 0 7.47 7.535h.14a7.5 7.5 0 1 0 .035-15zm0 0"/><path d="M449.762 419.57c0-15.746-6.157-30.074-16.168-40.734 7.082-11.024 13.234-22.688 18.281-34.742a7.495 7.495 0 0 0-4.02-9.813 7.497 7.497 0 0 0-9.816 4.02 210.316 210.316 0 0 1-16.09 30.914 59.183 59.183 0 0 0-31.746-9.203c-27.851 0-51.293 19.218-57.773 45.09h-16.817a2.15 2.15 0 0 1-1.539-.641l-20.746-20.742a2.179 2.179 0 0 1-.637-1.543v-74.84c0-9.473-7.707-17.176-17.18-17.176H251.38v-54.3c2.832.382 5.715.597 8.648.597h38.125c.582 0 1.125.223 1.54.64l22.937 22.93a17.063 17.063 0 0 0 12.148 5.032h28.957c.57 0 1.141.238 1.543.64l14.844 14.844c3.188 3.207 7.621 5.047 12.16 5.047h60.098a210.764 210.764 0 0 1-4.336 22.59 7.494 7.494 0 0 0 5.46 9.09c.61.152 1.22.226 1.821.226a7.501 7.501 0 0 0 7.27-5.687 225.309 225.309 0 0 0 5.672-33c.687-7.133 1.039-14.45 1.039-21.747 0-35.93-8.68-71.695-25.102-103.437a7.5 7.5 0 1 0-13.32 6.895c15.539 30.039 23.422 62.523 23.422 96.542 0 4.524-.157 9.047-.442 13.524h-61.582a2.179 2.179 0 0 1-1.543-.637l-14.87-14.875c-3.255-3.234-7.563-5.015-12.134-5.015h-28.96a2.15 2.15 0 0 1-1.54-.641L310.31 226.5a17.033 17.033 0 0 0-12.16-5.047h-38.122a49.74 49.74 0 0 1-8.652-.77V98.462h17.23a2.18 2.18 0 0 1 2.18 2.18v43.293c0 9.472 7.707 17.18 17.18 17.18h26.125c4.605 0 8.922-1.794 12.144-5.032l16.961-16.95a17.311 17.311 0 0 0 5.032-12.148V74.293a210.743 210.743 0 0 1 31.558 22.113 212.005 212.005 0 0 1 34.047 36.563 7.488 7.488 0 0 0 6.059 3.074 7.499 7.499 0 0 0 6.047-11.926 226.877 226.877 0 0 0-36.458-39.156 225.613 225.613 0 0 0-45.417-29.895c-29.055-14.437-60.2-22.254-92.684-23.296V11.484c0-4.14-3.36-7.496-7.5-7.496a7.496 7.496 0 0 0-7.5 7.496v20.29c-28.04.902-55.149 6.882-80.785 17.82-3.23-19.57-14.465-37.032-31.406-48.13-3.336-2.187-7.602-1.902-10.618.704-3.011 2.602-3.906 6.777-2.23 10.39 3.476 7.477 5.238 15.481 5.238 23.801 0 15.149-5.867 29.36-16.523 40.016S75.188 92.898 60.039 92.898c-8.316 0-16.324-1.761-23.8-5.234-3.614-1.68-7.79-.781-10.391 2.227-2.606 3.015-2.891 7.28-.703 10.617 8.32 12.703 20.214 22.195 33.894 27.515-9.254 13.235-17.078 27.41-23.285 42.282-11.48 27.52-17.3 56.71-17.3 86.761 0 48.45 15.14 94.621 43.788 133.532a7.49 7.49 0 0 0 6.047 3.054 7.501 7.501 0 0 0 6.031-11.95c-26.734-36.311-40.867-79.409-40.867-124.636 0-26.382 4.805-52.046 14.285-76.37h38.899c.574 0 1.133.234 1.539.636l30.32 30.32c.41.41.637.957.637 1.54v51.605c0 4.59 1.785 8.902 5.031 12.148l23.184 23.184a17.063 17.063 0 0 0 12.148 5.031h76.883v162.188c-53.469-1.864-103.453-23.575-141.45-61.649a7.504 7.504 0 0 0-10.605-.012 7.502 7.502 0 0 0-.011 10.61c40.828 40.91 94.582 64.191 152.066 66.058v20.29a7.499 7.499 0 0 0 14.996 0v-20.29c32.621-1.09 64.809-9.285 93.79-23.87 10.929 12.632 27.058 20.648 45.034 20.648 32.844-.004 59.563-26.723 59.563-59.563zM236.379 215.445c-15.445-8.41-25.953-24.797-25.953-43.59v-39.718c0-.422.12-.828.363-1.2l20.688-31.5a2.165 2.165 0 0 1 1.82-.976h3.082zM333.23 66.508v60.476c0 .575-.234 1.137-.64 1.54l-16.973 16.964a2.137 2.137 0 0 1-1.527.625h-26.121a2.184 2.184 0 0 1-2.184-2.18v-43.292c0-9.473-7.703-17.18-17.176-17.18h-17.23V46.78c28.601.985 56.082 7.606 81.851 19.727zm-273.19 41.39c19.155 0 37.132-7.425 50.62-20.918 13.488-13.488 20.918-31.464 20.918-50.62 0-2.598-.137-5.169-.406-7.715 6.68 9.414 10.394 20.777 10.394 32.699 0 15.054-5.898 29.238-16.601 39.945-10.703 10.703-24.89 16.598-39.942 16.598-11.925 0-23.289-3.715-32.699-10.395 2.543.27 5.117.406 7.715.406zm99.456 182.262a2.163 2.163 0 0 1-1.539-.637l-23.184-23.187a2.183 2.183 0 0 1-.64-1.54v-51.605c0-4.59-1.785-8.902-5.031-12.148l-30.317-30.316a17.063 17.063 0 0 0-12.148-5.032H54.293a210.588 210.588 0 0 1 20.281-33.578c3.43.504 6.922.77 10.45.77 19.058 0 37.011-7.457 50.546-20.996 12.52-12.516 19.82-28.809 20.856-46.262 25.25-11.559 52.101-17.883 79.953-18.844v36.676h-3.082a17.13 17.13 0 0 0-14.36 7.746L198.27 122.68a17.08 17.08 0 0 0-2.844 9.457v39.718c0 27.274 17 50.641 40.953 60.098v58.207zm91.883 177.184V305.16h24.133c1.199 0 2.175.977 2.175 2.18v74.836c0 4.59 1.79 8.902 5.036 12.148l20.742 20.742a17.067 17.067 0 0 0 12.148 5.036h15.043a59.09 59.09 0 0 0 6.145 25.804c-26.473 13.035-55.75 20.375-85.422 21.438zm138.824-3.215a44.29 44.29 0 0 1-22.277-5.988l26.633-26.633a7.497 7.497 0 0 0 0-10.606 7.497 7.497 0 0 0-10.606 0L356.352 448.5c-6.668-7.79-10.711-17.895-10.711-28.93 0-22.742 17.132-41.547 39.164-44.222l-9.098 9.097a7.504 7.504 0 0 0 0 10.606c1.465 1.465 3.387 2.195 5.305 2.195s3.84-.73 5.304-2.195l17.801-17.805c17.774 5.863 30.645 22.613 30.645 42.324 0 24.57-19.989 44.559-44.559 44.559zm0 0M452.777 473.246a7.494 7.494 0 0 0-10.605-.031 7.497 7.497 0 0 0-.031 10.605l7.804 7.848a7.46 7.46 0 0 0 5.317 2.21 7.497 7.497 0 0 0 5.32-12.785zm0 0M475.5 452.125l-10.684-2.895a7.5 7.5 0 0 0-3.922 14.477l10.68 2.895c.656.18 1.317.265 1.969.265a7.501 7.501 0 0 0 1.957-14.742zm0 0M432.555 491.879a7.497 7.497 0 0 0-9.168-5.328 7.5 7.5 0 0 0-5.332 9.168l2.832 10.699a7.502 7.502 0 0 0 9.172 5.332 7.5 7.5 0 0 0 5.328-9.172zm0 0"/></svg>