<svg xmlns="http://www.w3.org/2000/svg" viewBox="0 0 460 460"><path d="M370.898 143.68c-.204-.108-.413-.212-.617-.32.009-.231.023-.464.031-.694 1.709-48.474-13.321-84.39-42.321-101.133-29.001-16.744-67.62-11.802-108.745 13.916-.196.122-.39.251-.586.375-.195-.123-.39-.252-.586-.375-41.125-25.717-79.744-30.659-108.745-13.916-29 16.743-44.03 52.66-42.321 101.133.008.23.023.464.031.694-.204.108-.413.212-.617.32C23.59 166.437 0 197.411 0 230.898s23.59 64.461 66.424 87.218c.204.108.413.212.617.32-.009.231-.023.464-.031.694-1.709 48.474 13.321 84.391 42.321 101.134 11.29 6.518 24.031 9.75 37.816 9.749 21.626-.001 45.813-7.958 70.929-23.665.196-.122.39-.251.586-.375.195.123.39.252.586.375 25.118 15.708 49.3 23.665 70.928 23.665 13.783 0 26.529-3.232 37.816-9.749 29-16.743 44.031-52.66 42.321-101.134-.008-.23-.023-.464-.031-.694.204-.108.413-.212.617-.32 42.834-22.756 66.424-53.731 66.424-87.218s-23.591-64.461-66.425-87.218zm-64.893 137.646c-9.593 16.616-20.186 32.157-31.485 46.323-17.917 2.702-36.673 4.105-55.859 4.105s-37.942-1.403-55.859-4.105c-11.299-14.166-21.892-29.707-31.485-46.323s-17.756-33.561-24.374-50.428c6.619-16.868 14.781-33.812 24.374-50.428s20.187-32.157 31.485-46.323c17.917-2.702 36.672-4.105 55.859-4.105s37.942 1.404 55.859 4.105c11.299 14.166 21.892 29.707 31.485 46.323s17.755 33.56 24.374 50.428c-6.618 16.868-14.78 33.812-24.374 50.428zm34.028-22.178c4.692 16.156 7.854 32.022 9.37 47.233-13.931 6.292-29.253 11.488-45.59 15.502 6.856-9.736 13.385-19.943 19.513-30.558s11.703-21.371 16.707-32.177zM218.661 381.865c-12.415-8.918-24.575-19.59-36.22-31.731 11.859 1.07 23.964 1.62 36.22 1.62s24.361-.55 36.22-1.62c-11.645 12.141-23.805 22.813-36.22 31.731zm-85.151-59.981c-16.337-4.015-31.659-9.209-45.59-15.502 1.516-15.211 4.678-31.078 9.37-47.233a403.326 403.326 0 0 0 16.707 32.178 403.806 403.806 0 0 0 19.513 30.557zM113.997 170.47a403.326 403.326 0 0 0-16.707 32.178c-4.692-16.156-7.854-32.023-9.37-47.233 13.931-6.292 29.253-11.487 45.59-15.502a403.406 403.406 0 0 0-19.513 30.557zm104.664-90.539c12.415 8.918 24.575 19.59 36.22 31.731-11.86-1.07-23.964-1.62-36.22-1.62s-24.36.55-36.22 1.62c11.646-12.141 23.806-22.812 36.22-31.731zm104.665 90.539a403.626 403.626 0 0 0-19.513-30.558c16.337 4.015 31.659 9.209 45.59 15.502-1.516 15.211-4.678 31.078-9.37 47.233a403.808 403.808 0 0 0-16.707-32.177zM290.073 51.786c10.331 0 19.734 2.341 27.918 7.067 20.821 12.021 32.21 38.575 32.447 75.224-19.76-8.177-41.788-14.386-65.229-18.444-15.232-18.268-31.62-34.238-48.578-47.261 19.33-10.992 37.496-16.586 53.442-16.586zm-170.742 7.067c8.186-4.726 17.585-7.067 27.918-7.067 15.946 0 34.114 5.595 53.442 16.586-16.958 13.023-33.347 28.993-48.578 47.261-23.44 4.058-45.469 10.267-65.229 18.444.238-36.649 11.626-63.203 32.447-75.224zM20 230.898c0-24.042 17.303-47.182 48.922-65.711 2.799 21.201 8.436 43.383 16.642 65.711-8.206 22.329-13.843 44.51-16.642 65.711C37.303 278.08 20 254.94 20 230.898zm99.331 172.046c-20.821-12.021-32.209-38.575-32.446-75.224 19.76 8.177 41.788 14.386 65.229 18.444 15.234 18.271 31.625 34.243 48.587 47.268-31.859 18.118-60.551 21.533-81.37 9.512zm198.661 0c-20.821 12.021-49.512 8.607-81.369-9.512 16.961-13.024 33.353-28.997 48.587-47.268 23.44-4.058 45.469-10.267 65.229-18.444-.238 36.648-11.626 63.203-32.447 75.224zM368.4 296.609c-2.799-21.201-8.436-43.382-16.642-65.711 8.206-22.329 13.843-44.51 16.642-65.712 31.619 18.53 48.922 41.669 48.922 65.711S400.02 278.08 368.4 296.609z" fill="#59595a"/><circle cx="427.322" cy="230.898" r="32.678" fill="#abcb57"/><circle cx="115.368" cy="409.808" r="32.678" fill="#e5c400"/><circle cx="114.331" cy="50.192" r="32.678" fill="#c8523b"/><circle cx="218" cy="231" r="32.678" fill="#808083"/></svg>