<svg xmlns="http://www.w3.org/2000/svg" viewBox="0 0 448 448"><path d="M224 264.007c-21.969.147-63.27 2.659-80 7.993l80 74 80-74c-16.729-5.333-58.031-7.846-80-7.993z" fill="#4e87bb"/><path d="M380.628 421.023l-10.126-81.012a32.001 32.001 0 0 0-21.634-26.389l-28.943-9.647c.077-.466 1.095-7.576-7.504-13.308-7-4.667 2.167-13.167-8.5-18.667l-26.835 24.151A15.985 15.985 0 0 1 272 284.467v-25.802l34.461-14.358A47.997 47.997 0 0 0 336 200v-8c13.255 0 24-10.745 24-24 0-7.062-3.051-13.41-7.905-17.802l3.03-57.573C357.775 42.277 317.665 0 267.247 0h-86.493c-50.418 0-90.529 42.277-87.879 92.625l3.03 57.573C91.051 154.59 88 160.939 88 168.001c0 13.255 10.745 24 24 24v8a48.002 48.002 0 0 0 29.538 44.308L176 258.667v25.801c0 4.551-1.933 8.757-5.125 11.72L144 272c-10.667 5.5-1.5 14-8.5 18.667-8.891 5.927-7.501 13.327-7.5 13.333l-28.868 9.623a32.001 32.001 0 0 0-21.634 26.389l-10.126 81.012C65.582 435.348 76.751 448 91.187 448h265.626c14.437 0 25.606-12.652 23.815-26.977z" fill="#f6b47b"/><path d="M180.754 0c-50.418 0-90.528 42.277-87.878 92.625L96 152h256l3.125-59.375C357.775 42.277 317.665 0 267.247 0h-86.493z" fill="#8d5f3d"/><path d="M92.875 92.625L96 152h60C186.5 57.5 256 0 256 0h-75.247c-50.417 0-90.528 42.276-87.878 92.625z" fill="#835438"/><path d="M380.628 421.024l-10.126-81.012a32.002 32.002 0 0 0-21.633-26.389l-45.166-15.056c-3.602-1.201-7.62.258-9.434 3.593C280.718 327.072 227.097 344 224 344s-56.718-16.928-70.268-41.84c-1.814-3.335-5.833-4.793-9.434-3.593l-45.166 15.056a31.999 31.999 0 0 0-21.633 26.389l-10.126 81.012C65.582 435.348 76.751 448 91.187 448h265.626c14.436 0 25.606-12.652 23.815-26.976z" fill="#8db9e2"/><path d="M84.168 324.168c-3.552 4.497-5.93 9.93-6.669 15.843l-10.126 81.012C65.582 435.348 76.751 448 91.187 448H136v-52.067a32.004 32.004 0 0 0-7.813-20.953l-44.019-50.812zM363.832 324.168c3.552 4.497 5.93 9.93 6.669 15.843l10.126 81.012C382.419 435.348 371.25 448 356.813 448H312v-52.067a32.004 32.004 0 0 1 7.813-20.953l44.019-50.812z" fill="#6aa2de"/><path d="M272 258.667l-96-21.334v47.135c0 5.759-3.186 10.831-8.017 13.659C235.077 309.871 272 258.667 272 258.667z" fill="#e2a071"/><path d="M336 144v-16c0-22.091-17.909-40-40-40H152c-22.092 0-40 17.909-40 40v16c-13.255 0-24 10.745-24 24s10.745 24 24 24v8a48.002 48.002 0 0 0 29.538 44.308l51.691 21.538a80.007 80.007 0 0 0 61.539 0l51.694-21.539A47.997 47.997 0 0 0 336 200v-8c13.255 0 24-10.745 24-24s-10.745-24-24-24z" fill="#fdc88e"/><path d="M168 176c-4.4 0-8-3.6-8-8v-8c0-4.4 3.6-8 8-8s8 3.6 8 8v8c0 4.4-3.6 8-8 8zM280 176c-4.4 0-8-3.6-8-8v-8c0-4.4 3.6-8 8-8s8 3.6 8 8v8c0 4.4-3.6 8-8 8z" fill="#623f33"/><path d="M224 232.219c-14.223 0-27.527-3.5-36.5-9.605a7.997 7.997 0 0 1-2.113-11.113c2.48-3.648 7.461-4.598 11.113-2.113 6.289 4.277 16.57 6.832 27.5 6.832s21.211-2.555 27.5-6.832a7.992 7.992 0 0 1 11.113 2.113 7.997 7.997 0 0 1-2.113 11.113c-8.972 6.105-22.277 9.605-36.5 9.605z" fill="#e2a071"/><path d="M189 152.001c45.333-27.333 69-63 69-63l-114-.194c-18.257 3.707-32 19.843-32 39.194v16c-13.255 0-24 10.745-24 24s10.745 24 24 24v8a48 48 0 0 0 29.538 44.308l51.69 21.538a80.115 80.115 0 0 0 7.727 2.749c-22.844-16.711-38.05-31.32-46.96-40.872-6.482-6.95-9.995-16.121-9.995-25.625v-71.431l45 21.333z" fill="#f6b47b"/><path d="M312.421 290.667c-7-4.667 2.167-13.167-8.5-18.667l-79.96 71.964L144 272c-10.667 5.5-1.5 14-8.5 18.667C126.606 296.597 128 304 128 304l95.921 47.96v.04l.04-.02.039.02v-.04L319.921 304s1.395-7.403-7.5-13.333z" fill="#6aa2de"/><path d="M120 104l32.027 16.013L176 112l-7.985 16.008L184 136s27.25-13.5 56-45v37s22-.5 32-8l8-32s8 23.333 16 40l16-8V72H120v32z" fill="#8d5f3d"/><path d="M120 72v32l32.027 16.014 19.235-6.43c7.208-15.234 15.193-29.138 23.3-41.583L120 72z" fill="#835438"/></svg>