<svg xmlns="http://www.w3.org/2000/svg" viewBox="0 0 464 464"><path d="M448 72c0-41.333-23.5-72-64-72-20.712 0-36.963 8.368-47.914 16.546a8 8 0 0 0-10.124.445 7.988 7.988 0 0 0-2.607 6.886C303.415 7.644 282.16 0 272 0c-26 0-40 8-40 8s-14-8-40-8c-10.16 0-31.415 7.644-51.355 23.877a7.984 7.984 0 0 0-2.607-6.886 8 8 0 0 0-10.124-.445C116.963 8.368 100.712 0 80 0 39.5 0 16 30.667 16 72c0 41.967 46.667 154.667 24 224 0 0 52.387-18.053 75.575-88.414 1.435.268 2.913.414 4.425.414v8a48.002 48.002 0 0 0 29.538 44.308L184 274.667v25.801a16 16 0 0 1-10.94 15.179l-32.343 11.9-.553-.885a8 8 0 0 0-10.9-2.62l-26.278 15.767c-3.555 2.133-4.842 6.581-3.128 10.241a39.96 39.96 0 0 0-7.047 17.87l-9.188 68.908C81.705 451.216 92.898 464 107.413 464h249.175c14.515 0 25.708-12.784 23.789-27.172l-9.188-68.908a39.944 39.944 0 0 0-7.047-17.87c1.714-3.661.426-8.108-3.128-10.241l-26.278-15.767a8 8 0 0 0-10.9 2.62l-.553.885-32.343-11.9A16 16 0 0 1 280 300.468v-25.802l34.461-14.359A47.997 47.997 0 0 0 344 216v-8c1.512 0 2.99-.146 4.425-.414C371.613 277.947 424 296 424 296c-22.666-69.333 24-182.033 24-224z" fill="#ffd7a3"/><path d="M280 274h-96v26.469c0 .391-.017.777-.046 1.161-.014.2-.04.396-.062.595-.018.16-.034.32-.057.478a16 16 0 0 1-.158.91l-.004.02a15.995 15.995 0 0 1-7.425 10.537C243.173 325.73 280 274 280 274z" fill="#fdc88e"/><path d="M320 32s23.5-32 64-32 64 30.667 64 72c0 41.967-46.667 154.667-24 224 0 0-60-20.667-80-104-18.34-76.418 8-128 8-128l-32-32z" fill="#d48f60"/><path d="M348 40s25.5-19 44-8c40.721 24.213 7.454 90.732 0 128-10 50-6 98 32 136 0 0-60-20.667-80-104-18.34-76.418 4-128 4-128V40z" fill="#c57e52"/><path d="M356.092 50.666a8 8 0 0 0 .628-11.296l-19.461-21.75a8 8 0 0 0-11.296-.628 8 8 0 0 0-.628 11.296l19.461 21.75a8 8 0 0 0 11.296.628z" fill="#43a0c5"/><path d="M144 32S120.5 0 80 0 16 30.667 16 72c0 41.967 46.667 154.667 24 224 0 0 60-20.667 80-104 18.34-76.418-8-128-8-128l32-32z" fill="#d48f60"/><path d="M117 40s-26.5-19-45-8c-40.721 24.213-7.454 90.732 0 128 10 50 6 98-32 136 0 0 60-20.667 80-104 18.34-76.418-3-128-3-128V40z" fill="#c57e52"/><path d="M107.909 50.666a8 8 0 0 1-.628-11.296l19.461-21.75a8 8 0 0 1 11.296-.628 8 8 0 0 1 .628 11.296l-19.461 21.75a8 8 0 0 1-11.296.628z" fill="#43a0c5"/><path d="M344 160v-16c0-22.091-17.909-56-40-56H160c-22.091 0-40 33.909-40 56v16c-13.255 0-24 10.746-24 24 0 13.255 10.745 24 24 24v8a48.002 48.002 0 0 0 29.538 44.308l51.691 21.538a80.007 80.007 0 0 0 61.539 0l51.694-21.539A47.997 47.997 0 0 0 344 216v-8c13.255 0 24-10.745 24-24s-10.745-24-24-24z" fill="#ffe1b2"/><path d="M176 192c-4.4 0-8-3.6-8-8v-8c0-4.4 3.6-8 8-8s8 3.6 8 8v8c0 4.4-3.6 8-8 8zM288 192c-4.4 0-8-3.6-8-8v-8c0-4.4 3.6-8 8-8s8 3.6 8 8v8c0 4.4-3.6 8-8 8z" fill="#623f33"/><path d="M232 248.219c-14.223 0-27.527-3.5-36.5-9.605-3.652-2.484-4.602-7.461-2.113-11.113 2.48-3.648 7.461-4.598 11.113-2.113 6.289 4.277 16.57 6.832 27.5 6.832s21.211-2.555 27.5-6.832a7.992 7.992 0 0 1 11.113 2.113 7.997 7.997 0 0 1-2.113 11.113c-8.972 6.105-22.277 9.605-36.5 9.605z" fill="#e4b07b"/><path d="M120 160c-13.255 0-24 10.745-24 24s10.745 24 24 24v8a48 48 0 0 0 29.538 44.308l51.69 21.538a80.115 80.115 0 0 0 7.727 2.749c-22.844-16.711-38.05-31.32-46.96-40.872-6.482-6.95-9.995-16.121-9.995-25.625v-44.711c22.9-7.993 87.178-34.248 88-77.387.192-10.066-.464-20.642-1.667-26-11.966 64.113-110.257 90-118.333 90z" fill="#ffd7a3"/><path d="M323.837 326.662L295.05 372.72A24 24 0 0 1 274.698 384h-85.396a24 24 0 0 1-20.352-11.28l-28.786-46.058a8 8 0 0 0-10.9-2.62l-26.278 15.767a8 8 0 0 0-2.668 11.1L136 408h192l35.682-57.092a8 8 0 0 0-2.668-11.1l-26.278-15.767a8 8 0 0 0-10.899 2.621z" fill="#57b9dd"/><path fill="#43a0c5" d="M136 408h192v56H136z"/><path d="M272 0c-26 0-40 8-40 8s-14-8-40-8-124.667 50.055-88 166.055c0 0 128-22.722 128-78.055 0 55.333 128 78.055 128 78.055C396.667 50.055 298 0 272 0z" fill="#d48f60"/><path d="M232 8.004V8s-14-8-40-8-124.666 50.055-88 166.055c0 0 15.495-2.757 35.69-8.67C117.089 53.368 207.192 8.084 232 8.004z" fill="#ca8357"/></svg>