<svg xmlns="http://www.w3.org/2000/svg" viewBox="0 0 464 464"><path d="M400 400s-58.904 24-168 24-168.001-24-168.001-24l21.157-264.465C91.28 58.994 155.182 0 231.967 0h.064c76.786 0 140.688 58.994 146.811 135.535L400 400z" fill="#e69f5f"/><path d="M274.813 6.378C261.245 2.26 246.891 0 232.031 0h-.063C155.182 0 91.279 58.994 85.156 135.535L63.999 400s28.876 11.71 83.467 18.769L274.813 6.378z" fill="#e09156"/><path d="M383.388 413.991l-1.526-5.227a5.275 5.275 0 0 0-5.727-3.751l-5.334-40.002a39.998 39.998 0 0 0-21.76-30.49l-17.232-8.616c-2.567-1.284-5.51-.145-6.766 2.29l-34.103-12.548A16 16 0 0 1 280 300.468v-25.802l34.461-14.359A47.997 47.997 0 0 0 344 216v-8c13.255 0 24-10.745 24-24s-10.745-24-24-24v-16c0-22.091-17.909-56-40-56H160c-22.091 0-40 33.909-40 56v16c-13.255 0-24 10.745-24 24s10.745 24 24 24v8a48 48 0 0 0 29.538 44.308L184 274.668v25.801a16 16 0 0 1-10.94 15.179l-34.101 12.547c-1.242-2.438-4.179-3.583-6.742-2.302l-15.714 7.857c-13.41 6.705-21.552 18.121-23.304 31.262l-5.334 40.002a5.275 5.275 0 0 0-5.727 3.751l-1.526 5.227a5.278 5.278 0 0 0 3.588 6.546l11.8 3.441V448c0 8.836 7.164 16 16 16h240c8.836 0 16-7.164 16-16v-24.021l11.799-3.442a5.28 5.28 0 0 0 3.589-6.546z" fill="#ffd7a3"/><path d="M280 274.667l-96 .001v25.801a15.995 15.995 0 0 1-7.752 13.701C243.173 325.733 280 274.667 280 274.667z" fill="#fdc88e"/><path d="M344 160v-16c0-22.091-17.909-56-40-56H160c-22.091 0-40 33.909-40 56v16c-13.255 0-24 10.745-24 24s10.745 24 24 24v8a48 48 0 0 0 29.538 44.308l51.691 21.538a80.007 80.007 0 0 0 61.539 0l51.694-21.539A47.997 47.997 0 0 0 344 216v-8c13.255 0 24-10.745 24-24s-10.745-24-24-24z" fill="#ffe1b2"/><path d="M288 192c-4.4 0-8-3.6-8-8v-8c0-4.4 3.6-8 8-8s8 3.6 8 8v8c0 4.4-3.601 8-8 8z" fill="#623f33"/><path d="M231.999 248.219c-14.223 0-27.527-3.5-36.5-9.605-3.652-2.484-4.602-7.461-2.113-11.113 2.48-3.648 7.461-4.598 11.113-2.113 6.289 4.277 16.57 6.832 27.5 6.832s21.211-2.555 27.5-6.832a7.992 7.992 0 0 1 11.113 2.113 7.997 7.997 0 0 1-2.113 11.113c-8.971 6.105-22.276 9.605-36.5 9.605z" fill="#e4b07b"/><path d="M161.995 243.723c-6.482-6.949-9.995-16.121-9.995-25.625v-34.422c43.629-3.305 102.53-32.204 137.824-59.856L280 113.996s-71 46-160 46V160c-13.255 0-24 10.745-24 24s10.745 24 24 24v8a48 48 0 0 0 29.538 44.308l51.69 21.538a80.115 80.115 0 0 0 7.727 2.749c-22.845-16.712-38.051-31.32-46.96-40.872z" fill="#ffd7a3"/><path d="M377.191 412.936l-6.39-47.925a39.998 39.998 0 0 0-21.76-30.49l-17.232-8.616c-2.919-1.46-6.327.212-7.184 3.362-11.09 40.761-48.352 70.736-92.627 70.736-44.285 0-81.555-29.99-92.635-70.767-.852-3.134-4.242-4.797-7.146-3.345l-15.714 7.857c-13.41 6.705-21.552 18.121-23.304 31.262l-6.512 48.836C107.821 421.124 143.999 432 143.999 432v32h176v-32l57.192-19.064z" fill="#ff6473"/><path d="M143.801 429.556c-.489-9.513-3.665-18.705-9.402-26.355l-37.557-50.076c-1.813 3.734-3.087 7.708-3.645 11.887l-6.341 47.561 56.945 16.983z" fill="#f05467"/><path d="M80.612 413.991a5.278 5.278 0 0 0 3.588 6.546l59.799 17.444V432c0-3.779-.594-7.481-1.461-11.113l-53.856-15.71a5.277 5.277 0 0 0-6.544 3.588l-1.526 5.226z" fill="#d4445a"/><path d="M320.198 429.556c.489-9.513 3.665-18.705 9.402-26.355l37.557-50.076c1.813 3.734 3.087 7.708 3.645 11.887l6.341 47.561-56.945 16.983z" fill="#f05467"/><path d="M383.388 413.991a5.278 5.278 0 0 1-3.588 6.546L320 437.981V432c0-3.779.594-7.481 1.461-11.113l53.856-15.71a5.277 5.277 0 0 1 6.544 3.588l1.527 5.226z" fill="#d4445a"/><path d="M175.999 192c-4.4 0-8-3.6-8-8v-8c0-4.4 3.6-8 8-8s8 3.6 8 8v8c0 4.4-3.6 8-8 8z" fill="#623f33"/><path d="M103.73 112.976l.27 53.078c75.501 0 138.099-23.591 179.168-44.834-12.761 13.843-31.957 32.686-59.169 54.78 0 0 71.23-28.324 111.132-63.501v-.003c0-52.191-42.309-94.5-94.5-94.5h-42.403c-52.378 0-94.765 42.603-94.498 94.98z" fill="#e69f5f"/><path d="M269.789 22.588a94.392 94.392 0 0 0-29.157-4.591h-42.403c-52.379 0-94.765 42.602-94.499 94.98l.27 53.079c22.016 0 42.926-2.016 62.534-5.385 72.271-55.346 103.138-137.769 103.255-138.083z" fill="#e09156"/></svg>