<svg xmlns="http://www.w3.org/2000/svg" viewBox="0 0 464.005 464.005"><path d="M104.002 184v.004c-17.673 0-32 14.327-32 32 0 3.041.56 5.924 1.352 8.711-14.479 3.063-25.352 15.897-25.352 31.289 0 5.534 1.532 10.66 4.004 15.201-7.264 5.866-12.004 14.735-12.004 24.8 0 12.687 7.443 23.551 18.148 28.727-1.33 3.518-2.147 7.29-2.147 11.273 0 17.673 14.327 32 32 32h144V184H104.002z" fill="#5e342e"/><path d="M424.002 296.004c0-10.064-4.74-18.933-12.004-24.8 2.472-4.541 4.004-9.667 4.004-15.201 0-15.391-10.873-28.226-25.352-31.289.792-2.787 1.352-5.67 1.352-8.711 0-17.673-14.327-32-32-32V184h-128v184.004h144c17.673 0 32-14.327 32-32 0-3.983-.818-7.755-2.147-11.273 10.704-5.176 18.147-16.04 18.147-28.727z" fill="#734a3e"/><path d="M380.379 436.832l-9.188-68.908a39.939 39.939 0 0 0-7.047-17.87c1.714-3.661.426-8.109-3.128-10.242l-26.278-15.767a8 8 0 0 0-10.9 2.62l-.553.885-32.343-11.9a16 16 0 0 1-10.94-15.179V274.67l34.461-14.359a48 48 0 0 0 29.539-44.308v-72c0-22.091-17.909-56-40-56h-144c-22.091 0-40 33.909-40 56v72a48 48 0 0 0 29.538 44.308l34.462 14.36v25.801a16 16 0 0 1-10.94 15.179l-32.343 11.9-.553-.885a8 8 0 0 0-10.9-2.62l-26.278 15.767c-3.555 2.133-4.842 6.581-3.128 10.242a39.95 39.95 0 0 0-7.047 17.87l-9.188 68.908c-1.918 14.388 9.275 27.172 23.789 27.172H356.59c14.515-.001 25.708-12.785 23.789-27.173z" fill="#f6b47b"/><path d="M280.002 274h-96v26.472a15.995 15.995 0 0 1-7.752 13.701C243.175 325.734 280.002 274 280.002 274z" fill="#e2a071"/><path d="M314.464 260.311L262.77 281.85a80.012 80.012 0 0 1-61.539 0l-51.691-21.538a48 48 0 0 1-29.538-44.308v-72c0-22.091 17.909-56 40-56h144c22.091 0 40 33.909 40 56v72a47.998 47.998 0 0 1-29.538 44.307z" fill="#fdc88e"/><path d="M176.002 192.004c-4.4 0-8-3.6-8-8v-8c0-4.4 3.6-8 8-8s8 3.6 8 8v8c0 4.4-3.6 8-8 8zM288.002 192.004c-4.4 0-8-3.6-8-8v-8c0-4.4 3.6-8 8-8s8 3.6 8 8v8c0 4.4-3.6 8-8 8z" fill="#623f33"/><path d="M232.002 248.223c-14.223 0-27.527-3.5-36.5-9.605-3.652-2.484-4.602-7.461-2.113-11.113 2.48-3.648 7.461-4.598 11.113-2.113 6.289 4.277 16.57 6.832 27.5 6.832s21.211-2.555 27.5-6.832a7.992 7.992 0 0 1 11.113 2.113 7.997 7.997 0 0 1-2.113 11.113c-8.972 6.105-22.277 9.605-36.5 9.605z" fill="#e2a071"/><path d="M232.002 64.004s-22.333 28.329-74 59.996c-15.884 9.735-38 30.649-38 50v42.004a48 48 0 0 0 29.538 44.308l51.69 21.538a80.115 80.115 0 0 0 7.727 2.749c-22.844-16.711-38.05-31.32-46.96-40.872-6.482-6.949-9.995-16.121-9.995-25.625V162.11c24.648-27.081 94.857-50.104 96-74.105.785-16.475-16-24.001-16-24.001z" fill="#f6b47b"/><path d="M323.839 326.666l-28.786 46.058a24 24 0 0 1-20.352 11.28h-85.396a24 24 0 0 1-20.352-11.28l-28.786-46.058a8 8 0 0 0-10.9-2.62l-26.278 15.767a8 8 0 0 0-2.668 11.1l35.682 57.092h192l35.682-57.092a8 8 0 0 0-2.668-11.1l-26.278-15.767a8 8 0 0 0-10.9 2.62z" fill="#ff8c51"/><path fill="#ff7941" d="M136.002 408.004h192v56h-192z"/><path d="M120.002 193v-.996c0-49.333 112-89.334 112-112v-72s-3.305-7.704-24-8c-10.846-.156-31.75 4.5-48 16C111.344 50.439 92.003 129.086 84.453 193h35.549z" fill="#5e342e"/><path d="M344.002 192.004V193h35.549c-7.55-63.914-26.89-142.561-75.549-176.996-16.25-11.5-37.154-16.156-48-16-20.695.296-24 8-24 8v72c0 22.666 112 62.667 112 112z" fill="#734a3e"/></svg>