<svg xmlns="http://www.w3.org/2000/svg" viewBox="0 0 464 464"><path d="M424 160s-33 4-48-48C355.304 40.252 309.319 0 232 0S108.696 40.252 88 112c-15 52-48 48-48 48s-18 40 24 64H48s9.726 48.573 58.703 55.176C112.928 293.241 132.401 312 192 312h80c59.599 0 79.072-18.76 85.297-32.824C406.274 272.573 416 224 416 224h-16c42-24 24-64 24-64z" fill="#9d6e48"/><path d="M312 160c-99-50-93-138-80-160-77.318 0-123.304 40.252-144 112-15 52-48 48-48 48s-18 40 24 64H48s9.726 48.573 58.703 55.176C112.928 293.241 132.401 312 192 312l120-152z" fill="#8d5f3d"/><path d="M380.377 436.829l-9.188-68.908a40 40 0 0 0-25.837-32.253l-54.412-20.02A16 16 0 0 1 280 300.469v-25.802l34.461-14.359A48 48 0 0 0 344 216v-8c13.255 0 24-10.745 24-24s-10.745-24-24-24v-16c0-22.092-17.909-40-40-40H160c-22.092 0-40 17.909-40 40v16c-13.255 0-24 10.745-24 24s10.745 24 24 24v8a48 48 0 0 0 29.538 44.308L184 274.667v25.801a16 16 0 0 1-10.94 15.179l-54.412 20.02a40 40 0 0 0-25.837 32.253l-9.188 68.908C81.705 451.216 92.897 464 107.412 464h249.176c14.515 0 25.708-12.784 23.789-27.171z" fill="#f6b47b"/><path d="M184 275v25.468a15.995 15.995 0 0 1-7.752 13.701c63.753 11.015 100.193-34.801 103.504-39.17H184V275z" fill="#e2a071"/><path d="M344 160v-16c0-22.092-17.909-40-40-40H160c-22.092 0-40 17.909-40 40v16c-13.255 0-24 10.745-24 24s10.745 24 24 24v8a48 48 0 0 0 29.538 44.308l51.691 21.538a79.988 79.988 0 0 0 61.539 0l51.694-21.539A47.997 47.997 0 0 0 344 216v-8c13.255 0 24-10.745 24-24s-10.745-24-24-24z" fill="#fdc88e"/><path d="M176 192c-4.4 0-8-3.6-8-8v-8c0-4.4 3.6-8 8-8s8 3.6 8 8v8c0 4.4-3.6 8-8 8z" fill="#623f33"/><path d="M232 248.219c-14.223 0-27.527-3.5-36.5-9.605-3.652-2.484-4.602-7.461-2.113-11.113 2.48-3.648 7.461-4.598 11.113-2.113 6.289 4.277 16.57 6.832 27.5 6.832s21.211-2.555 27.5-6.832a7.992 7.992 0 0 1 11.113 2.113 7.997 7.997 0 0 1-2.113 11.113c-8.972 6.105-22.277 9.605-36.5 9.605z" fill="#e2a071"/><path d="M323.837 326.662L295.05 372.72A24 24 0 0 1 274.698 384h-85.396a24 24 0 0 1-20.352-11.28l-28.786-46.058a8 8 0 0 0-10.9-2.62l-26.278 15.767a8 8 0 0 0-2.668 11.1L136 408h192l35.682-57.092a8 8 0 0 0-2.668-11.1l-26.278-15.767a8 8 0 0 0-10.899 2.621z" fill="#f23f44"/><path fill="#ff4f4f" d="M136 408h192v56H136z"/><path d="M161.996 243.723c-6.482-6.95-9.995-16.121-9.995-25.625v-84.862c27.793 19.478 66.24 34.71 138 38.764l-7-24S233.242 120.026 209 104h-49a40.08 40.08 0 0 0-8 .814v-.008c-.616.125-1.225.267-1.83.42-.056.014-.114.024-.17.038-.014.004-.026.015-.041.019C132.73 109.739 120 125.378 120 144v16c-13.255 0-24 10.745-24 24s10.745 24 24 24v8a48 48 0 0 0 29.538 44.308l51.69 21.538a80.115 80.115 0 0 0 7.727 2.749c-22.844-16.712-38.05-31.32-46.959-40.872z" fill="#f6b47b"/><path d="M288 192c-4.4 0-8-3.6-8-8v-8c0-4.4 3.6-8 8-8s8 3.6 8 8v8c0 4.4-3.6 8-8 8z" fill="#623f33"/><path d="M312 160l-8-16s25.313 15.97 41 15.97V100H156.153c30.228 28.941 67.915 60 155.847 60z" fill="#9d6e48"/><path d="M312 160c-33.613-16.976-55.111-38.333-68.352-60h-87.496c30.229 28.941 67.916 60 155.848 60z" fill="#8d5f3d"/></svg>