<svg height="511pt" viewBox="-95 0 511 511.999" width="511pt" xmlns="http://www.w3.org/2000/svg"><path d="M254.918 187.512c.098-2.047.148-4.114.148-6.192.012-57.925-37.472-105.004-85.441-107.168-50.621-2.28-92.254 46.563-92.254 107.137 0 .547.004 1.094.012 1.64.367 29.813-10.551 57.997-29.227 77.52C23.375 286.352 8.27 320.77 8.27 358.547c0 80.558 68.687 145.863 153.417 145.863s153.418-65.305 153.418-145.863c0-35.07-13.02-67.242-34.71-92.399-17.645-20.464-26.875-49.152-25.477-78.636zm0 0" fill="#6fd844"/><path d="M45.922 358.547c0-37.777 15.105-72.195 39.887-98.098 18.675-19.523 29.593-47.707 29.222-77.52-.008-.546-.008-1.093-.008-1.64 0-51.45 30.036-94.426 70.098-104.812a75.798 75.798 0 0 0-15.496-2.325c-50.621-2.28-92.254 46.563-92.254 107.137 0 .547.004 1.094.012 1.64.37 29.81-10.551 57.997-29.223 77.52-24.781 25.903-39.887 60.32-39.887 98.098 0 80.558 68.684 145.863 153.415 145.863 6.375 0 12.656-.379 18.828-1.094-75.852-8.828-134.594-70.273-134.594-144.77zm0 0" fill="#5fbf32"/><path d="M161.688 447.188c-42.083 0-76.32-34.239-76.32-76.32 0-42.083 34.237-76.321 76.32-76.321s76.32 34.238 76.32 76.32c0 42.082-34.238 76.32-76.32 76.32zm0 0" fill="#9e6b57"/><path d="M114.602 370.867c0-37.082 26.59-68.058 61.703-74.898a76.078 76.078 0 0 0-14.618-1.422c-42.082 0-76.32 34.238-76.32 76.32 0 42.082 34.238 76.32 76.32 76.32 5 0 9.883-.5 14.618-1.421-35.114-6.836-61.703-37.813-61.703-74.899zm0 0" fill="#875848"/><path d="M180.008 420.434a52.944 52.944 0 0 0 30.953-31.075 7.498 7.498 0 0 0-4.41-9.644 7.497 7.497 0 0 0-9.645 4.41 37.952 37.952 0 0 1-22.187 22.27 7.506 7.506 0 0 0-4.375 9.664 7.502 7.502 0 0 0 9.664 4.375zm0 0"/><path d="M145.633 303.984a7.498 7.498 0 0 0 5.582-9.02c-.95-4.034-4.992-6.534-9.02-5.581-37.183 8.762-64.601 42.226-64.601 81.574 0 46.219 37.601 83.82 83.82 83.82s83.82-37.601 83.82-83.82c0-39.348-27.414-72.812-64.601-81.574-4.024-.95-8.067 1.55-9.02 5.582a7.501 7.501 0 0 0 5.582 9.02c31.227 7.359 53.04 34.898 53.04 66.972 0 37.945-30.876 68.82-68.82 68.82-37.95 0-68.821-30.875-68.821-68.82.004-32.074 21.812-59.613 53.039-66.973zm0 0"/><path d="M.5 358.637C.5 443.203 72.688 512 161.414 512c86.43 0 157.066-64.902 160.758-146.668a7.502 7.502 0 0 0-7.156-7.832c-4.145-.227-7.645 3.016-7.829 7.156C303.837 438.867 239.805 497 161.415 497 80.957 497 15.5 434.93 15.5 358.637c0-34.434 13.426-67.43 37.805-92.914C73.59 244.52 85 214.34 84.609 182.926c-.668-58.485 38.868-103.235 84.407-101.192 45.57 2.059 80.785 49.13 78.14 105.512-1.496 31.473 8.45 62.047 27.285 83.89 15.07 17.477 25.477 38.36 30.09 60.395a7.508 7.508 0 0 0 8.88 5.805 7.505 7.505 0 0 0 5.804-8.883c-5.137-24.512-16.688-47.719-33.414-67.113-16.352-18.961-24.977-45.707-23.66-73.383 2.921-61.867-35.02-114.023-85.457-120.59C174.043 12.941 140.387.902 138.894.398c-3.921-1.324-8.218.766-9.546 4.688-1.328 3.922.738 8.168 4.664 9.496.61.223 8.597 3.3 15.86 13.688l-16.61 17.14a7.502 7.502 0 0 0 .164 10.606 7.502 7.502 0 0 0 10.605-.168l12.985-13.395c2.312 6.55 4.02 14.567 4.605 24.336-51.285 2.754-92.867 53.262-92.012 116.324.344 27.52-9.55 53.852-27.144 72.242C15.406 283.645.5 320.32.5 358.637zm0 0"/></svg>