<svg height="512pt" viewBox="-125 0 512 512" width="512pt" xmlns="http://www.w3.org/2000/svg"><path d="M163.137 436.633a12.707 12.707 0 0 0-.395-.02c-8.742-.379-15.668-7.504-15.668-16.258v-65.128a70.369 70.369 0 0 1-15.488 1.734 70.36 70.36 0 0 1-15.484-1.734v65.128c0 8.754-6.926 15.88-15.668 16.258-.133.004-.266.012-.395.02-17.352.945-31.328 15.187-31.96 32.555-.708 19.285 14.722 35.144 33.85 35.144 8.782 0 16.778-3.34 22.794-8.82 3.867-3.52 9.863-3.52 13.73 0a33.752 33.752 0 0 0 22.793 8.82c19.133 0 34.559-15.86 33.852-35.144-.633-17.368-14.61-31.61-31.961-32.555zm0 0" fill="#f7b594"/><path d="M100.074 469.188c.637-17.368 14.61-31.61 31.961-32.555.13-.008.262-.016.395-.02 7.367-.32 13.425-5.437 15.156-12.273a16.14 16.14 0 0 1-.512-3.985v-65.128a70.342 70.342 0 0 1-15.488 1.734 70.333 70.333 0 0 1-15.484-1.734v65.128c0 8.754-6.926 15.88-15.672 16.258-.133.004-.262.012-.395.02-17.351.945-31.324 15.187-31.957 32.555-.707 19.285 14.719 35.144 33.852 35.144 5.789 0 11.23-1.46 15.996-4.02-10.985-5.898-18.344-17.675-17.852-31.124zm0 0" fill="#f0a479"/><path d="M131.586 137.594c-67.156 0-121.82-26.543-123.758-62.14l2.336 78.573A207.145 207.145 0 0 0 45.91 264.352c10.82 15.918 13.524 28.394 17.848 44.007 8.441 30.493 36.191 51.602 67.832 51.602 31.637 0 59.387-21.11 67.832-51.602l3.766-13.593c3-10.84 7.757-21.114 14.078-30.414a207.183 207.183 0 0 0 35.75-110.325l2.332-78.574c-1.938 35.598-56.602 62.14-123.762 62.14zm0 0" fill="#9e6b57"/><path d="M93.754 308.36c-4.324-15.614-7.027-28.09-17.848-44.008A207.145 207.145 0 0 1 40.16 154.027l-1.113-37.476c-18.7-10.774-30.344-25.012-31.219-41.098l2.332 78.574a207.183 207.183 0 0 0 35.75 110.325c10.82 15.918 13.52 28.394 17.848 44.007 8.441 30.493 36.191 51.602 67.828 51.602 5.125 0 10.144-.563 15-1.621-25.117-5.473-45.758-24.426-52.832-49.98zm0 0" fill="#875848"/><path d="M255.402 73.5c0-36.5-55.433-66.09-123.816-66.09C63.207 7.41 7.77 37 7.77 73.5c0 36.504 55.437 66.094 123.816 66.094 68.383 0 123.816-29.59 123.816-66.094zm0 0" fill="#f25c5c"/><path d="M37.77 73.5c0-33.79 47.507-61.656 108.816-65.605a233.637 233.637 0 0 0-15-.485C63.207 7.41 7.77 37 7.77 73.5s55.437 66.09 123.816 66.09c5.078 0 10.082-.164 15-.485C85.277 135.156 37.77 107.293 37.77 73.5zm0 0" fill="#d83f3f"/><path d="M166.07 67.902c0-10.164-15.437-18.406-34.484-18.406-19.043 0-34.48 8.242-34.48 18.406 0 10.164 15.437 18.407 34.48 18.407 19.047 0 34.484-8.243 34.484-18.407zm0 0" fill="#f7b594"/><path d="M127.105 67.902c0-7.297 7.95-13.597 19.48-16.574-4.534-1.172-9.62-1.832-15-1.832-19.042 0-34.48 8.242-34.48 18.406 0 10.164 15.438 18.407 34.48 18.407 5.38 0 10.466-.657 15-1.829-11.53-2.98-19.48-9.28-19.48-16.578zm0 0" fill="#f0a479"/><path d="M111.563 91.004a7.503 7.503 0 0 0 9.406-4.899 7.496 7.496 0 0 0-4.899-9.406c-7.625-2.402-11.734-6.277-11.734-8.707 0-4.34 10.758-10.906 26.98-10.906 16.22 0 26.98 6.566 26.98 10.906 0 2.426-4.112 6.305-11.737 8.707-3.95 1.242-6.145 5.457-4.899 9.406s5.453 6.145 9.406 4.899c13.918-4.387 22.227-12.988 22.227-23.012 0-14.77-18.047-25.902-41.977-25.902-23.933 0-41.98 11.133-41.98 25.902 0 10.024 8.309 18.625 22.227 23.012zm0 0"/><path d="M244.98 159.71a7.499 7.499 0 1 0 14.973.88c.133-2.278.227-4.324.285-6.25.004-.215 2.395-80.531 2.395-80.75 0-42.504-60.5-73.59-131.317-73.59C60.31 0 0 31.184 0 73.59c0 .75.023 1.492.062 2.238l2.333 78.512c1.214 40.93 14.023 80.457 37.042 114.316 10.086 14.84 12.512 26.262 16.82 41.797 7.192 25.965 27.247 45.871 52.071 53.594v56.402c0 4.707-3.73 8.555-8.504 8.762l-.469.023c-21.12 1.153-38.27 18.621-39.046 39.77-1.329 36.363 41.992 56.91 69.187 32.144 1.004-.914 2.633-.914 3.633-.003a41.27 41.27 0 0 0 27.844 10.777c11.34 0 21.918-4.496 29.789-12.66 24.726-25.649 7.281-68.13-27.489-70.028l-.476-.023c-4.766-.207-8.496-4.059-8.496-8.766v-56.402c24.828-7.719 44.883-27.625 52.074-53.59 4.168-15.062 6.613-26.781 16.82-41.797 14.867-21.87 25.461-46.027 31.489-71.8a7.497 7.497 0 0 0-5.594-9.012c-4.024-.946-8.067 1.562-9.008 5.593-13.094 55.985-34.324 63.036-44.398 99.415l-3.766 13.597c-8.766 31.656-41.059 51.852-74.063 44.625-22.37-4.933-40.851-21.91-47.144-44.625-.414-1.5-.816-2.972-1.211-4.418-3.852-14.164-7.184-26.394-17.66-41.808-21.41-31.493-33.324-68.262-34.453-106.328l-1.325-44.543c50.247 51.363 182.97 48.593 230.504 0l-1.324 44.543c-.05 1.78-.137 3.683-.262 5.816zM139.305 367.134v53.312c0 12.766 10.03 23.196 22.836 23.75l.308.016h.008c13.457.734 24.383 11.863 24.875 25.34.55 15.02-11.422 27.37-26.355 27.37a26.292 26.292 0 0 1-17.747-6.866c-6.68-6.082-17.148-6.082-23.828 0-17.047 15.527-44.96 3.07-44.101-20.504.484-13.262 11.176-24.672 25.183-25.356 12.813-.554 22.848-10.988 22.848-23.75v-53.312c5.102.531 10.496.57 15.973 0zM131.316 15c63.051 0 116.317 26.832 116.317 58.59 0 31.879-53.54 58.59-116.317 58.59C80.98 132.18 15 111.477 15 73.59 15 41.832 68.266 15 131.316 15zm0 0"/></svg>