<svg height="511pt" viewBox="0 -20 511.998 511" width="511pt" xmlns="http://www.w3.org/2000/svg"><path d="M191.84 398.285l241.48-241.48c-29.191-26.008-67.867-43.645-109.03-45.809H175.702C82.18 115.914 6.625 195.5 7.828 290.117c1.223 96.738 80.027 174.785 177.059 174.785 18.812 0 36.937-2.937 53.945-8.37 5.508-1.762 13.332-2.18 18.992-1.27-23.41-7.68-45.64-19.953-65.281-36.832-6.059-5.207-6.352-14.496-.703-20.145zm0 0" fill="#f25c5c"/><path d="M43.59 290.117c-1.2-94.617 74.351-174.203 167.875-179.12h-35.762C82.18 115.913 6.63 195.5 7.828 290.116c1.227 96.738 80.027 174.785 177.059 174.785 6.031 0 11.988-.308 17.863-.894-88.645-8.899-158.012-83.176-159.16-173.89zm0 0" fill="#d83f3f"/><path d="M318.336 154.195c-29.813-21.304-11.988-34.652 3.184-41.175 5.761-2.48 5.148-9.13-1.098-10.75-12.313-3.192-25.008-3.446-35.988-2.54-11.028.91-20.063-8.472-18.848-19.468 3.371-30.485 18.601-51.813 26.277-60.832 2.172-2.555 2.399-6.344.29-8.95-2.618-3.234-7.383-3.421-10.231-.539-9.91 10.032-31.871 35.95-42.29 77.282-2.14 8.484-10.28 14.05-18.972 13.02-12.039-1.427-26.816-1.677-41.09 2.03-6.246 1.618-6.86 8.27-1.097 10.747 15.172 6.523 32.996 19.87 3.183 41.175-33.496 23.938 32.344-3.117 58.426 34.61 4.266 6.164 15.563 6.164 19.828 0 26.086-37.727 91.926-10.672 58.426-34.61zm0 0" fill="#6fd844"/><path d="M250.664 100.242c7.191.852 13.996-2.82 17.344-8.918a17.568 17.568 0 0 1-2.422-11.062c3.371-30.485 18.601-51.813 26.277-60.832 2.172-2.555 2.403-6.344.29-8.95-2.618-3.234-7.383-3.421-10.231-.539-9.91 10.032-31.871 35.95-42.29 77.282-1.491 5.91-5.894 10.394-11.362 12.23 7.945-.445 15.605-.016 22.394.79zm0 0M211.66 154.195c29.813-21.304 11.988-34.652-3.183-41.175-5.762-2.48-5.149-9.13 1.097-10.75a89.326 89.326 0 0 1 10.696-2.07c-11.965-1.388-26.579-1.595-40.7 2.07-6.246 1.62-6.86 8.27-1.097 10.75 15.172 6.523 32.996 19.87 3.183 41.175-33.5 23.938 32.34-3.117 58.426 34.606 4.262 6.168 15.563 6.168 19.828 0a44.302 44.302 0 0 1 5.086-6.098c-28.527-28.562-84.828-6.004-53.336-28.508zm0 0" fill="#5fbf32"/><path d="M462.43 147.918c-5.078-6.664-14.832-7.39-20.758-1.465L189.84 398.285c-5.649 5.649-5.356 14.938.703 20.145 75.168 64.605 188.293 61.847 260.219-8.274 70.004-68.242 70.062-185.61 11.668-262.238zm0 0" fill="#f25c5c"/><path d="M225.059 418.43c-6.059-5.207-6.352-14.496-.704-20.145L467.602 155.04a190.894 190.894 0 0 0-5.172-7.121c-5.078-6.664-14.832-7.39-20.758-1.465L189.84 398.285c-5.649 5.649-5.356 14.938.703 20.145 40.68 34.965 92.473 50.187 142.84 45.691-38.883-3.473-76.918-18.7-108.324-45.691zm0 0" fill="#d83f3f"/><path d="M462.102 259.082c.488-26.95-37.657-36.125-45.633-10.973-9.246 29.172-24.867 55.856-47.266 77.645-22.652 22.035-49.312 37.77-77.973 47.289-24.949 8.285-15.695 46.11 11.18 45.582 41.95-.82 82.598-16.219 113.758-46.531 30.367-29.543 45.152-70.34 45.934-113.012zm0 0" fill="#d83f3f"/><path d="M325.75 373.043c28.656-9.516 55.316-25.25 77.969-47.29 22.398-21.788 38.02-48.472 47.265-77.644.91-2.863 2.223-5.257 3.809-7.254-11.375-11.164-32.605-10.785-38.32 7.254-9.25 29.172-24.871 55.856-47.27 77.645-22.652 22.035-49.312 37.77-77.969 47.289-24.953 8.285-15.699 46.11 11.176 45.582a177.546 177.546 0 0 0 23.832-2.07c-18.168-7.942-21.765-36.45-.492-43.512zm0 0" fill="#c33"/><path d="M409.047 245.934c-19.477 61.449-66.313 102.101-120.453 120.078-14.067 4.672-21.805 17.808-19.246 32.691 2.363 13.77 14.168 27.52 32.23 27.52.235 0 .473-.004.703-.008 86.547-1.695 165.16-63.508 167.043-166.906.34-18.579-13.734-30.637-27.812-32.946-14.93-2.453-27.977 5.418-32.465 19.57zm45.281 13.101c-1.75 96.188-74.898 150.664-152.34 152.18-.133.004-.265.004-.394.004-10.215 0-16.207-7.758-17.461-15.055-.488-2.855-1.274-12.437 9.191-15.914 58.563-19.445 109.043-63.59 130.024-129.785 2.578-8.125 8.902-9.52 12.945-9.52 1.172 0 2.152.117 2.793.223 7.477 1.227 15.434 7.34 15.242 17.867zm0 0"/><path d="M392.367 338.75a7.497 7.497 0 0 0-10.605 0 7.497 7.497 0 0 0 0 10.605l6.234 6.239a7.5 7.5 0 0 0 10.606 0 7.506 7.506 0 0 0 .003-10.61zm0 0M424.742 308.188l-8.113-3.454a7.51 7.51 0 0 0-9.84 3.97 7.499 7.499 0 0 0 3.969 9.835l8.113 3.453a7.503 7.503 0 0 0 9.84-3.965 7.503 7.503 0 0 0-3.969-9.84zm0 0M361.555 367.746a7.502 7.502 0 0 0-9.84-3.969 7.503 7.503 0 0 0-3.965 9.84l3.45 8.113a7.502 7.502 0 0 0 9.84 3.97 7.503 7.503 0 0 0 3.964-9.84zm0 0"/><path d="M504.684 278.035a7.503 7.503 0 0 0 7.312-7.683c-1.137-46.188-16.715-91.25-43.875-126.891-7.86-10.313-22.93-11.316-32.023-2.223l-4.45 4.446c-28.464-23.485-63.308-38.02-99.503-41.512-1.372-4.344-5.098-7.77-10.114-9.07-11.515-2.989-24.465-3.918-38.488-2.758-6.453.523-11.457-4.973-10.773-11.168 3.097-27.977 16.699-47.594 24.53-56.797 7.962-9.352 1.74-23.281-10.073-23.863a14.405 14.405 0 0 0-10.91 4.242c-9.641 9.754-33.247 37.148-44.231 80.722-1.215 4.81-5.863 7.985-10.816 7.403-16.09-1.906-30.844-1.16-43.856 2.219-5.016 1.3-8.742 4.73-10.113 9.074-44.356 4.226-85.582 24.523-116.793 57.695-100.84 107.168-41.813 279.8 98.574 307.191a7.496 7.496 0 0 0 8.797-5.925 7.503 7.503 0 0 0-5.926-8.801C73.641 439.059 16.066 369.992 15.055 290.113c-1.125-88.886 69.418-165.14 157.843-171.36.582.38 1.508.892 2.34 1.247 8.824 3.793 14.336 8.34 14.746 12.156.028.25.036.508.02.77-.195 3.953-4.856 9.449-12.98 15.254-6.68 4.777-14.254 10.187-12.087 17.629 2.036 6.972 9.188 7.355 19.086 7.886 14.95.797 37.547 2.008 49.618 19.465 7.242 10.473 24.914 10.488 32.168 0 12.07-17.457 34.668-18.668 49.62-19.465 9.895-.53 17.048-.914 19.079-7.886 2.168-7.442-5.403-12.852-12.086-17.63-4.766-3.406-14.328-11.097-12.824-16.745.976-3.66 6.34-7.875 14.617-11.438a17.697 17.697 0 0 0 2.336-1.242c34.234 2.422 67.386 15.644 94.445 37.586L184.262 393.07c-8.625 8.63-8.356 22.996 1.12 31.137 12.99 11.164 27.56 20.668 42.114 27.813-13.648 3.554-27.742 5.39-42.016 5.46-4.14.02-7.48 3.395-7.46 7.54a7.499 7.499 0 0 0 7.5 7.46h.039c18.882-.093 37.48-3.027 55.285-8.718 4.152-1.325 8.62-1.688 12.96-1.078 109.762 35.671 237.579-28.61 256.051-156.07a7.505 7.505 0 0 0-6.347-8.5c-4.086-.598-7.906 2.25-8.5 6.347-21.215 146.422-195.664 197.918-299.852 108.367-2.683-2.305-2.91-6.523-.289-9.148l251.836-251.836c2.68-2.68 7.125-2.387 9.484.707 25.258 33.148 39.75 75.113 40.81 118.168.105 4.14 3.534 7.441 7.687 7.316zm-251.215-93.41c-1.293 1.867-6.235 1.816-7.489 0-13.261-19.176-34.917-24.395-58.18-25.746 12.532-9.465 18.134-18.746 17.102-28.328-1.097-10.176-9.66-17.328-18.84-22.031 10.016-1.934 21.239-2.184 33.442-.739 12.43 1.473 24.078-6.543 27.129-18.633 7.086-28.113 19.812-48.804 29.797-61.699-7.825 12.2-16.11 29.824-18.57 52.078-1.739 15.707 11.214 29.063 26.917 27.77 10.356-.856 19.953-.442 28.61 1.226-9.176 4.73-17.739 11.801-18.84 22.028-1.031 9.582 4.566 18.863 17.101 28.328-16.187.941-42.902 3.652-58.18 25.746zm0 0"/></svg>