<svg height="512pt" viewBox="-147 0 512 512" width="512pt" xmlns="http://www.w3.org/2000/svg"><path d="M172.594 49.758c-13.614-14.438 7.594-21.598-5.895-31.254-10.117-7.242-17.75 10.644-34.453 2.226-4.64-2.335-8.289-5.539-11.137-8.945-4.875-5.832-13.937-5.832-18.812 0-2.848 3.406-6.496 6.61-11.137 8.945-16.703 8.418-24.336-9.468-34.45-2.226-13.491 9.656 7.716 16.816-5.894 31.254-12.898 13.676 17.524 15.21 11.79 25.969-19.313 36.234 18.44 18.87 25.062 57.8h48.07c6.625-38.93 44.375-21.566 25.063-57.8-5.735-10.758 24.687-12.293 11.793-25.97zm0 0" fill="#6fd844"/><path d="M92.605 75.727c5.739-10.758-24.687-12.293-11.789-25.97 11.41-12.105-1.64-19.093 1.79-26.726-11.114.266-17.688-10.406-25.895-4.527-13.492 9.652 7.715 16.816-5.895 31.254-12.898 13.676 17.524 15.21 11.79 25.969-19.313 36.234 18.44 18.87 25.062 57.8h30c-6.621-38.93-44.375-21.566-25.063-57.8zm0 0" fill="#5fbf32"/><path d="M145.535 132.555h-67.66c-39.84 0-70.656 40.59-65.54 86.406C26.18 342.945 66.493 440.336 91.313 490.668c9.024 18.3 31.758 18.3 40.782 0 24.82-50.332 65.136-147.723 78.98-271.707 5.117-45.816-25.699-86.406-65.539-86.406zm0 0" fill="#feb644"/><path d="M121.313 490.668c-24.82-50.332-65.133-147.723-78.977-271.707-5.117-45.816 25.695-86.406 65.539-86.406H77.871c-39.84 0-70.652 40.59-65.539 86.406 13.848 123.984 54.16 221.375 78.98 271.707 7.555 15.316 24.708 17.805 35.391 7.48-2.078-2.011-3.918-4.496-5.39-7.48zm0 0" fill="#f9972d"/><path d="M111.703 157.418c26.965 0 48.992-9.922 50.469-22.418a57.64 57.64 0 0 0-16.637-2.445h-67.66c-5.766 0-11.336.851-16.64 2.445 1.48 12.496 23.507 22.418 50.468 22.418zm0 0" fill="#f9972d"/><path d="M103.723 149.332c-8.13-4.348-5.243-16.75 3.98-16.777h.172-30c-5.766 0-11.336.851-16.64 2.445 1.48 12.496 23.507 22.418 50.468 22.418 5.227 0 10.262-.375 15-1.07-8.992-1.313-16.91-3.77-22.98-7.016zm0 0" fill="#ef8720"/><path d="M0 248.883a7.5 7.5 0 0 0 7.5 7.5h2.04c5.487 34.71 12.886 66.996 21.108 96.285a7.498 7.498 0 0 0 .903 14.941h3.437a864.403 864.403 0 0 0 21.426 62.555c-3.312 5.598-13.02 13.215-13.02 29.375a7.5 7.5 0 1 0 15 0c0-4.648 1.606-9.215 4.524-13.043 7.824 19.059 15.227 35.066 21.398 47.578 11.786 23.903 42.45 23.899 54.235 0 11.832-24 25.988-56.125 39.32-95.058 8.762 11.101 4.965 13.507 7.305 23.925.906 4.04 4.918 6.579 8.96 5.672s6.583-4.918 5.677-8.96c-.442-1.962-.665-4.196-.665-6.633 0-13.133-9.996-24.688-15.867-30.344a858.546 858.546 0 0 0 13.13-45.297h2.109c4.14 0 7.5-3.36 7.5-7.5a7.496 7.496 0 0 0-5.895-7.324 841.345 841.345 0 0 0 8.117-37.242c.793-4.067-1.863-8-5.93-8.793a7.497 7.497 0 0 0-8.792 5.933 837.272 837.272 0 0 1-8.782 39.922H162.79a7.5 7.5 0 0 0-7.5 7.504 7.5 7.5 0 0 0 7.5 7.5h18.117a841.853 841.853 0 0 1-13.187 44.707 7.16 7.16 0 0 0-.383 1.168c-14.117 43.148-29.54 78.43-42.238 104.187-6.278 12.73-21.059 12.711-27.328 0C84.965 461.473 66.758 420.2 50.66 367.61h29.996c4.14 0 7.5-3.359 7.5-7.5s-3.36-7.5-7.5-7.5H46.22c-8.344-29.164-15.887-61.437-21.492-96.226H43.23a7.502 7.502 0 0 0 0-15.004H22.453a780.032 780.032 0 0 1-2.937-23.16c-3.817-34.172 13.793-63.012 37.242-73.551 5.765 8.887 18.597 15.758 35.89 18.758 4.075.707 7.965-2.028 8.672-6.106a7.504 7.504 0 0 0-6.105-8.675c-10.172-1.762-17.711-4.958-22.164-8.278 3.066-.281 2.984-.226 14.347-.226h48.07c11.247 0 11.262-.055 14.345.226-4.454 3.32-11.989 6.516-22.16 8.278a7.507 7.507 0 0 0-6.11 8.675 7.502 7.502 0 0 0 8.672 6.106c17.293-3 30.125-9.867 35.894-18.758 23.453 10.543 41.055 39.39 37.239 73.55a799.249 799.249 0 0 1-3.864 29.552 7.503 7.503 0 0 0 6.309 8.53c4.078.61 7.914-2.21 8.527-6.308a821.189 821.189 0 0 0 3.938-30.11c5.703-51.097-29.29-94.655-72.863-94.737 3.414-7.797 8.925-11.227 14.3-14.567 11.364-7.058 19.82-14.777 8.23-37.348 1.012-.765 2.497-1.699 3.512-2.335 4.739-2.977 10.637-6.684 11.504-13.598.555-4.39-1.191-8.746-5.183-12.945-3.672-3.864-3.078-5.336-1.313-9.711 1.852-4.598 5.711-14.164-5.675-22.25-8.282-5.883-16.032-2.145-21.157.328-5.644 2.719-8.84 4.011-14.281 1.289-3.273-1.637-6.219-3.992-8.754-7-7.879-9.352-22.422-9.336-30.285 0-2.54 3.008-5.48 5.363-8.754 7-5.45 2.722-8.644 1.43-14.281-1.29-5.13-2.472-12.88-6.21-21.16-.327-11.387 8.086-7.528 17.652-5.672 22.25 1.761 4.375 2.355 5.847-1.317 9.71-3.992 4.2-5.734 8.555-5.183 12.946.867 6.914 6.765 10.621 11.504 13.598 1.015.636 2.5 1.57 3.515 2.335-11.593 22.567-3.136 30.286 8.23 37.348 5.372 3.34 10.884 6.77 14.302 14.563-43.653.09-78.563 43.718-72.868 94.742a813.877 813.877 0 0 0 2.704 21.508c-4.06.105-7.313 3.414-7.313 7.492zM71.09 97.84c-3.098-1.922-6.02-3.738-6.54-5.285-.347-1.024-.609-4.414 4.391-13.72 5.883-10.952-4.921-17.741-9.535-20.64-1.203-.757-3.011-1.894-4.074-2.77a9.72 9.72 0 0 1 .648-.737c10.317-10.86 6.438-20.485 4.352-25.653-.39-.976-.965-2.398-1.082-3.074.176-.219.598-.676 1.531-1.34.746-.531 1.055-.754 5.957 1.61 6.063 2.921 15.219 7.34 27.508 1.195 5.11-2.555 9.656-6.172 13.516-10.754 1.883-2.23 5.46-2.23 7.343 0 3.856 4.582 8.407 8.2 13.516 10.754 12.29 6.144 21.445 1.726 27.504-1.196 4.906-2.363 5.207-2.14 5.957-1.609.934.664 1.36 1.121 1.531 1.34-.117.676-.691 2.102-1.082 3.074-2.086 5.168-5.965 14.793 4.356 25.652.265.282.48.528.648.735-1.066.879-2.875 2.016-4.078 2.773-4.613 2.899-15.418 9.688-9.535 20.64 5 9.306 4.738 12.696 4.394 13.72-.523 1.547-3.445 3.363-6.539 5.285-7.156 4.445-17.582 10.922-22.289 27.3h-10.554v-7c0-33.992 25.53-47.831 26.71-48.449 3.668-1.894 5.114-6.402 3.235-10.082a7.505 7.505 0 0 0-10.098-3.257c-.761.39-10.758 5.66-19.851 17.18V36.714c0-4.145-3.356-7.5-7.5-7.5a7.5 7.5 0 0 0-7.5 7.5V73.53c-9.09-11.52-19.086-16.789-19.848-17.18a7.505 7.505 0 0 0-10.098 3.258 7.501 7.501 0 0 0 3.262 10.094c.266.137 26.684 14.055 26.684 48.438v7H93.375c-4.707-16.38-15.129-22.856-22.285-27.301zm0 0"/><path d="M62.125 286.648c-4.14 0-7.5 3.36-7.5 7.5 0 4.141 3.36 7.5 7.5 7.5h35.73a7.5 7.5 0 0 0 7.5-7.5 7.5 7.5 0 0 0-7.5-7.5zm0 0M177.992 200.7a7.5 7.5 0 0 0-7.5-7.5h-43.676a7.5 7.5 0 0 0-7.5 7.5c0 4.144 3.356 7.5 7.5 7.5h43.676c4.145 0 7.5-3.356 7.5-7.5zm0 0M120.191 391.023a7.503 7.503 0 0 0-1.41 10.512l9.942 13.027a7.5 7.5 0 0 0 10.515 1.41 7.503 7.503 0 0 0 1.41-10.511l-9.941-13.024a7.502 7.502 0 0 0-10.516-1.414zm0 0"/></svg>