<svg height="512pt" viewBox="-37 0 512 512.001" width="512pt" xmlns="http://www.w3.org/2000/svg"><path d="M414.43 59.375c-14.313-16.805-32.176-25.656-53.09-26.309-26.89-.82-55.934 12.766-76.465 26.778-3.875 17.12-5.75 32.07-6.035 45.351 16.836-15.406 53.015-41.066 81.504-40.191 11.687.367 21.422 5.3 29.758 15.09 22.851 26.832 8.53 63.972-18.184 113.414h36.23c8.875-17.13 16.766-36.461 21.274-53.637 8.371-31.898 3.328-58.984-14.992-80.496zm0 0" fill="#d8dce5"/><path d="M361.34 33.066c-26.89-.82-55.934 12.766-76.465 26.778-3.875 17.12-5.75 32.07-6.035 45.351 8.21-7.511 21.023-17.457 35.297-25.582l.031-.187c1.945-12.899 9.895-24.168 21.43-30.266 12.117-6.402 25.656-11.785 39.293-14.41a73.382 73.382 0 0 0-13.551-1.684zm0 0M423.102 80.094c-13.27-15.582-29.418-18.055-49.22-12.254 1 .664 3.555 1.11 8.727 5.07 37.375 28.68 11.211 80.063-10.691 120.598h36.23c14.918-28.801 29.801-66.414 23.7-98.207v-.004c-1.856-5.395-4.711-10.465-8.746-15.203zm0 0" fill="#c3c8d1"/><path d="M39.367 27.61c56.309 23.972 56.95 92.288 56.95 92.288-2.95 40.43-21.954 64.356-41.602 90.72 21.89-6.833 57.77-10.985 101.14 10.448 31.063 15.352 63.938 16.118 88.579 11.965l-2.032-32.066a6.085 6.085 0 0 1 6.075-6.457h60.296c-22.652-32.348-38.656-70.985-19.34-145.164 1.426-5.485-3.921-10.301-8.984-8.04-36.605 16.352-79.437 1.321-124.8-21.527a107.55 107.55 0 0 0-27.192-9.398c-27.039-6.508-63.809-.945-87.95 4.25-6.394 1.375-7.175 10.41-1.14 12.98zm0 0" fill="#e4eaf8"/><path d="M96.316 119.898c-2.953 40.43-21.953 64.356-41.601 90.72 8.394-2.618 18.855-4.84 31-5.38.68-.941 1.363-1.879 2.047-2.812 18.902-25.942 36.707-50.188 39.554-90.192 0 0-.64-70.035-56.949-94.609-3.203-1.398-4.469-4.656-4.012-7.625-9.402 1.32-18.25 2.992-25.847 4.629-6.395 1.375-7.18 10.406-1.14 12.98 56.308 23.973 56.948 92.29 56.948 92.29zm0 0" fill="#d8dce5"/><path d="M259.156 471.578l-7.808-127.523-3.325-54.301-3.785-61.781c-23.957 4.84-57.562 5.03-89.203-10.606-42.52-21.015-77.52-16.304-98.277-9.488-23.633 31.64-48.985 65.871-48.985 135.996 0 52.68 27.903 98.617 51.09 127.7h200.293zm0 0" fill="#00c3ff"/><path d="M88.281 470.703h.008C65.434 440.801 38.773 394.63 38.773 341.84c0-71.887 25.352-106.98 48.989-139.414.047-.063.093-.125.136-.192-12.351.559-22.875 2.93-31.14 5.645-23.633 31.64-48.985 65.871-48.985 135.996 0 52.68 27.903 98.617 51.09 127.7h30.094l-.676-.872zm0 0" fill="#00aaf0"/><path d="M260.82 498.695l-1.785-29.117H57.281a303.42 303.42 0 0 0 11.852 14.219c11.633 13.129 28.082 20.613 45.344 20.613h151.55c.227 0 .45-.015.676-.02-3.129-.097-5.691-2.546-5.883-5.695zm0 0" fill="#00aaf0"/><path d="M89.875 472.754h-.012c0-.004-1.582-2.05-1.582-2.05h.008c-.281-.368-.566-.755-.848-1.126h-30.16a303.42 303.42 0 0 0 11.852 14.219c11.633 13.129 28.082 20.613 45.344 20.613h15.414c-19.657-5.312-31.086-20.172-40.016-31.656zm0 0" fill="#059adb"/><path d="M411.621 191.508H245.477a6.085 6.085 0 0 0-6.075 6.457l5.743 93.746c14.44-5.184 41.882-14.89 83.402 2.242 32.445 13.39 68.93 4.117 83.414-2.36l5.734-93.628c.211-3.5-2.57-6.457-6.074-6.457zm0 0" fill="#e4eaf8"/><path d="M269.402 197.965a6.084 6.084 0 0 1 6.07-6.457h-30a6.082 6.082 0 0 0-6.07 6.457l5.739 93.746c6.875-2.465 16.695-5.95 29.566-7.086zm0 0" fill="#d8dce5"/><path d="M256.559 478.14l1.261 20.555a6.084 6.084 0 0 0 6.075 5.715h129.304a6.084 6.084 0 0 0 6.074-5.715l1.262-20.554zm0 0" fill="#00aaf0"/><path d="M287.82 498.695l-1.25-20.386-.007-.168h-30.004l1.261 20.554a6.084 6.084 0 0 0 6.075 5.715h30a6.084 6.084 0 0 1-6.075-5.715zm0 0" fill="#059adb"/><path d="M328.547 291.957c-41.633-17.184-69.113-7.371-83.524-2.203l11.547 188.555h143.953l11.563-188.77c-14.402 6.48-51.004 15.844-83.54 2.418zm0 0" fill="#00c3ff"/><path d="M286.57 478.309l-11.547-188.555-.437-7.117c-12.887 1.152-22.707 4.66-29.563 7.117l11.547 188.555zm0 0M331.531 392.336c0 8.258-6.695 14.953-14.953 14.953-8.262 0-14.957-6.695-14.957-14.953 0-8.262 6.695-14.957 14.957-14.957 8.258 0 14.953 6.695 14.953 14.957zm0 0" fill="#00aaf0"/><path d="M316.305 369.969c-12.383 0-22.457 10.074-22.457 22.457 0 12.383 10.074 22.453 22.457 22.453 12.382 0 22.453-10.07 22.453-22.453s-10.07-22.457-22.453-22.457zm0 29.91c-4.11 0-7.457-3.344-7.457-7.453s3.347-7.457 7.457-7.457c4.11 0 7.453 3.347 7.453 7.457s-3.344 7.453-7.453 7.453zm0 0M349.2 331.688c-4.688-.915-8.973 2.68-8.973 7.351 0 4.215 3.421 7.5 7.5 7.5 4.097 0 7.5-3.32 7.5-7.5 0-3.465-2.36-6.566-6.028-7.351zm0 0"/><path d="M293.285 64.477c39.82-26.364 84.055-36.676 115.16-.149 8.055 9.453 13.32 20.219 15.668 31.992a7.498 7.498 0 0 0 8.817 5.895 7.502 7.502 0 0 0 5.894-8.82c-8.664-43.54-58.676-96.848-142.215-48.622-1.746-8.671-11.07-13.992-19.488-10.226-35.371 15.797-77.793-.942-118.371-21.379C121.848-5.418 79.488-1.406 38.66 7.387c-13.512 2.906-15.25 21.785-2.5 27.215 21.215 9.03 36.461 25.964 45.309 50.332 6.32 17.394 7.004 32.687 7.07 34.863-2.758 36.45-18.977 58.156-38.05 83.672-.005.004-.009.008-.009.011C26.816 235.156 0 271.06 0 343.965c0 53.234 27.8 104.894 63.246 144.898C76.277 503.566 94.852 512 114.207 512h64.875c4.145 0 7.5-3.355 7.5-7.5a7.5 7.5 0 0 0-7.5-7.5h-64.875c-14.844 0-29.18-5.973-41.266-19.832h175.766L249.922 497h-35.836a7.5 7.5 0 0 0 0 15H392.93c7.164 0 13.12-5.602 13.558-12.754.95-15.5 17.461-285.05 18.418-300.734a13.555 13.555 0 0 0-6.004-12.102c8.61-17.45 16.465-36.183 19.852-55.238a7.493 7.493 0 0 0-6.067-8.695c-4.07-.727-7.976 1.988-8.699 6.066-3.383 18.992-11.906 38.21-20.695 55.559h-19.152c22.152-42.364 36.12-79.754 11.398-108.778-28.406-33.363-71.605-14.101-106.187 12.781.898-7.898 2.265-15.855 3.933-23.628zM43.887 21.609C79.94 14.051 119.105 9.996 152 26.562 195.273 48.36 240.875 66.09 281.527 48.98c-13.148 51.325-13.144 92.41 13.059 135.118h-49.383c-7.219 0-13.262 5.687-13.574 13.023-.02.461-.016.926.012 1.395l1.43 23.324c-26.477 4.129-51.673.414-74.981-11.106-32.856-16.242-61.55-17.976-83.57-14.703 14.578-20.758 26.628-42.933 29.003-75.496.559-7.808-4.117-73.875-59.636-98.926zM393.195 470.9H263.352l-10.77-175.848c14.523-4.844 38.383-10.29 72.832 3.926 28.074 11.586 59.066 7.406 78.211 1.62zM15 343.964c0-64.195 21.195-96.254 46.055-129.574 20.457-6.223 52.117-9.125 90.386 9.789 25.746 12.722 53.477 16.988 82.551 12.71.672 10.919 13.133 214.407 13.797 225.278H60.703C39.574 434.445 15 391.898 15 343.965zM264.953 497l-.68-11.105h128.004l-.68 11.105zm144.89-297.898l-5.23 85.37c-15.629 5.848-46.234 11.883-73.476.641-36.317-14.988-63.055-10.476-79.496-5.5-.172-2.765-4.543-74.168-4.934-80.511zM359.837 72.59c9.586.3 17.3 4.258 24.281 12.457 18.422 21.633 8.942 50.562-16.957 99.055h-54.726c-12.895-18.915-24.317-40.79-24.305-75.524 20.59-18.246 49.476-36.633 71.707-35.988zm0 0"/></svg>