<svg height="512pt" viewBox="0 -24 512 512" width="512pt" xmlns="http://www.w3.org/2000/svg"><path d="M264.797 225c-74.524 4.336-144.922-19.672-193.899-42.664a60.768 60.768 0 0 1-1.695 4.195c-8.629 19.153-25.86 31.719-45.074 35.215 15.66 37.691 42.574 81.559 88.437 113.356 54.286 3.593 143.418 1.171 221.551-39.657C429.747 245.48 447.328 139.22 450.441 95.07c-23.144 41.114-82.28 123.918-185.644 129.93zm0 0" fill="#feb644"/><path d="M160.695 335.102c-39.238-27.2-64.605-63.239-80.922-96.684-3.914-8.027-.535-17.7 7.555-21.48a61.323 61.323 0 0 0 22.645-18.153 520.979 520.979 0 0 1-39.075-16.45 60.768 60.768 0 0 1-1.695 4.196c-8.629 19.149-25.86 31.719-45.074 35.215 15.66 37.691 42.574 81.559 88.437 113.356 16.907 1.12 37.196 1.652 59.473.628-3.922-.18-7.719-.386-11.344-.628zm0 0M445.285 89.465c.442-8.805.262-13.977.262-13.977l-13.188-59.031a7.372 7.372 0 0 1 1.383-6.168l-34.61 24.41c-4.105 2.895-4.468 8.844-.75 12.219zm0 0" fill="#f9972d"/><path d="M482.32 7.41h-43.945c-4.754 0-8.285 4.406-7.246 9.047l13.187 59.031h38.387L489.7 15.7c.516-4.41-2.933-8.289-7.379-8.289zm0 0" fill="#feb644"/><path d="M482.703 75.488h-38.387s5.434 153.903-115.156 216.914c-65.234 34.086-138.254 40.989-191.55 40.145.109 1.43.167 2.875.167 4.336 0 20.672-10.304 38.933-26.062 49.937 52.203 49.004 144.422 101.192 273.937 46.266 188.215-79.813 97.051-357.598 97.051-357.598zm0 0" fill="#ffc850"/><path d="M176.191 393.723c-5.71-5.094-6.199-13.868-1.152-19.625 10.016-11.438 16.121-26.715 16.074-43.496v-.004c-19.148 1.734-37.246 2.207-53.5 1.949.106 1.433.168 2.879.168 4.336 0 20.676-10.308 38.937-26.062 49.937 40.652 38.164 105.578 78.246 193.484 68.18-54.512-6.64-97.66-33.29-129.012-61.277zm0 0" fill="#feb644"/><path d="M139.777 339.93c0-2.496-.18-4.95-.496-7.36-20.273-.257-37.781-1.648-51.031-3.125-10.574-1.175-17.39 10.926-10.914 19.371a316.582 316.582 0 0 0 35.512 39.055c16.148-9.851 26.93-27.637 26.93-47.941zm0 0" fill="#707487"/><path d="M69.645 189.992a56.66 56.66 0 0 0 2.609-7.02c-18.66-8.695-34.29-17.285-45.938-24.179-9.3-5.504-20.66 2.86-18.187 13.379 3.242 13.8 8.426 31.605 16.582 50.969 19.062-2.387 36.46-14.352 44.934-33.149zm0 0" fill="#52586d"/><path d="M347.648 361.098c-47.96 22.261-95.476 29.808-141.23 22.425-4.094-.664-7.941 2.122-8.602 6.211s2.121 7.938 6.211 8.598c51.817 8.36 102.493-1.605 149.938-23.625 108.414-50.32 126.258-143.797 122.133-213.355a7.494 7.494 0 0 0-7.934-7.043 7.505 7.505 0 0 0-7.043 7.933c3.852 64.903-12.71 152.09-113.473 198.856zm0 0"/><path d="M504.379 208.188a7.505 7.505 0 0 0-7.41 7.59c1.281 106.906-37.25 177.726-114.516 210.492-119.285 50.582-206.113 7.382-257.922-37.707 14.16-11.946 22.403-29.38 22.469-48.301 95.48-.13 201.77-25.91 256.879-103.918 31.101-44.035 46.555-102.422 47.66-153.266h25.332c3.938 13.445 14.195 51.719 18.332 98.274.367 4.125 4.02 7.171 8.133 6.804a7.498 7.498 0 0 0 6.809-8.133c-4.817-54.207-17.348-96.445-20.079-105.18l6.809-58.179C497.91 7.797 490.973 0 482.047 0h-43.942c-4.171 0-8.07 1.727-10.886 4.742L393.305 28.66c-8.035 5.668-8.735 17.309-1.465 23.902L436.082 92.7c-.004.086-.012.176-.016.262-38.308 67.207-98.562 118.781-177.246 122.734a7.5 7.5 0 0 0-7.09 7.89c.207 3.95 3.122 7.376 9.325 7.02 71.172-4.144 129.047-44.55 170.738-103.128-8.402 46.03-27.258 90.472-59.828 123.804-32.676 27.387-73.86 41.551-122.43 42.094-52.84.594-99.293-12.055-137.973-37.582-3.457-2.285-8.109-1.328-10.394 2.125a7.506 7.506 0 0 0 2.133 10.394c51.426 33.938 115.004 44.598 170.808 38.649-51.23 16.133-107.25 20.574-160.824 17.234-38.863-27.504-63.27-64.21-78.5-97.437 17.856-5.067 32.567-17.602 40.406-34.871 40.024 17.925 92.118 35.285 148.582 38.644 4.133.239 7.688-2.906 7.93-7.039a7.5 7.5 0 0 0-7.039-7.933c-67.734-4.032-137.586-30.075-195.082-64.102C14.75 142.676-3.402 155.98.551 172.801c13.156 56.008 41.703 110.797 85.687 149.164-1.09.015-2.168.113-3.218.3-11.473 2.079-18.442 13.97-15.2 24.797 2.098 7.012 119.059 178.438 320.489 93.016 91.632-38.855 124.847-125.332 123.66-224.48-.051-4.141-3.442-7.43-7.59-7.41zm-475.555 4.636c-5.441-13.726-10.09-28.199-13.672-43.449-.922-3.93 3.297-7.078 6.79-5.008 12.3 7.281 25.745 14.5 39.648 21.203-6.242 13.84-18.254 23.727-32.766 27.254zm84.531 165.496a307.723 307.723 0 0 1-30.34-33.976c-1.663-2.172-.8-4.258-.35-5.055.917-1.629 2.605-2.508 4.483-2.3a536.109 536.109 0 0 0 44.856 3.085c-.016 15.156-6.89 29.078-18.649 38.246zM475.754 68.078h-25.7L438.196 15h43.774zm-73.805-27.16l23.035-16.246c4.961 22.2 8.555 38.293 10.567 47.289-.488-.441-34.14-30.664-33.602-31.043zm0 0"/></svg>