<svg height="496pt" viewBox="0 -48 496 496" width="496pt" xmlns="http://www.w3.org/2000/svg"><path d="M472 8H24C15.2 8 8 15.2 8 24v352c0 8.8 7.2 16 16 16h448c8.8 0 16-7.2 16-16V24c0-8.8-7.2-16-16-16zm0 0" fill="#b4dd7f"/><path d="M440 40v224H56V40zm0 0" fill="#69d6f4"/><path d="M320 200.16V232H176v-31.84c0-14.32 9.441-26.879 23.2-30.8L232 160v-12.398C222.48 142 216 131.84 216 120v-16c0-18.64 15.922-33.52 34.879-31.84C267.679 73.602 280 88.8 280 105.68V120c0 11.84-6.48 22-16 27.602V160l32.8 9.36c13.759 3.921 23.2 16.48 23.2 30.8zm0 0" fill="#ccd1d9"/><path d="M328 328v32h-32v-64h32zm0 0" fill="#fcd770"/><path d="M88 328l-48 24v-48zm0 0" fill="#ff826e"/><path d="M472 0H24C10.77 0 0 10.77 0 24v352c0 13.23 10.77 24 24 24h448c13.23 0 24-10.77 24-24V24c0-13.23-10.77-24-24-24zm8 376c0 4.414-3.594 8-8 8H24c-4.406 0-8-3.586-8-8V24c0-4.406 3.594-8 8-8h448c4.406 0 8 3.594 8 8zm0 0"/><path d="M448 32H48v240h400zm-16 224H64V48h368zm0 0"/><path d="M328 200.137c0-17.762-11.93-33.578-29.008-38.465L272 153.969v-2.13c9.969-7.51 16-19.327 16-31.831v-14.336c0-21.504-16.008-39.727-36.45-41.504-11.183-.969-22.335 2.8-30.581 10.352C212.727 82.07 208 92.824 208 104v16c0 12.504 6.031 24.328 16 31.832v2.129l-26.992 7.71C179.93 166.56 168 182.376 168 200.138V240h160zM312 224H184v-23.863c0-10.664 7.16-20.153 17.406-23.082L240 166.03v-23.07l-3.977-2.313C228.496 136.266 224 128.543 224 120v-16c0-6.71 2.84-13.16 7.785-17.695 5.016-4.594 11.504-6.809 18.383-6.207C262.406 81.16 272 92.383 272 105.664V120c0 8.543-4.496 16.266-12.023 20.648L256 142.961v23.07l38.594 11.024C304.84 179.992 312 189.48 312 200.137zm0 0M32 364.945L105.887 328 32 291.055zm16-48L70.113 328 48 339.055zm0 0M152 288h16v80h-16zm0 0M120 288h16v80h-16zm0 0M336 288h-48v32H184v16h104v32h48v-32h128v-16H336zm-16 64h-16v-48h16zm0 0"/></svg>