<svg height="496pt" viewBox="0 0 496 496" width="496pt" xmlns="http://www.w3.org/2000/svg"><path d="M488 200v240c0 8.8-7.2 16-16 16H280c0 8.8-3.602 16.8-9.36 22.64C264.8 484.399 256.8 488 248 488s-16.8-3.602-22.64-9.36C219.601 472.8 216 464.8 216 456H24c-8.8 0-16-7.2-16-16V200h32v224h168c10.078 0 19.52-4.719 25.602-12.8L248 392l14.398 19.2C268.48 419.28 277.922 424 288 424h168V200zm0 0" fill="#b4dd7f"/><path d="M352 136c30.96 0 56 25.04 56 56s-25.04 56-56 56H248v144l14.398 19.2C268.48 419.28 277.922 424 288 424h168V136zm0 0M248 360v32l-14.398 19.2C227.52 419.28 218.078 424 208 424H40V136h80l.48.238c-5.359 9.364-8.48 20.16-8.48 31.762-22.078 0-40 17.922-40 40v120h144v-80h32zm0 0" fill="#ccd1d9"/><path d="M216 248v80H72V208c0 22.078 17.922 40 40 40zm0 0" fill="#ff826e"/><path d="M197.2 107.602c5.359-14.32 14.878-26.641 26.878-35.602C237.441 61.922 254 56 272 56s34.559 5.922 47.922 16C339.359 86.559 352 109.84 352 136c30.96 0 56 25.04 56 56s-25.04 56-56 56H112c-22.078 0-40-17.922-40-40s17.922-40 40-40c0-11.602 3.121-22.398 8.48-31.762C131.441 116.961 152.238 104 176 104a64.087 64.087 0 0 1 21.2 3.602zm0 0" fill="#e6e9ed"/><path d="M448 40l-72 32V8zm0 0" fill="#838f9b"/><path d="M376 8v64h-56.078C306.559 61.922 290 56 272 56s-34.559 5.922-47.922 16H112V8zm0 0" fill="#fcd770"/><path d="M112 8v64H64c-8.8 0-16-7.2-16-16V24c0-8.8 7.2-16 16-16zm0 0" fill="#969faa"/><path d="M464 192v-64H359.617c-1.648-18.16-8.883-34.695-19.906-48h37.984l90-40-90-40H64C50.77 0 40 10.77 40 24v32c0 13.23 10.77 24 24 24h140.238c-4.543 5.465-8.476 11.488-11.613 18.016C187.281 96.742 181.727 96 176 96c-24.902 0-46.887 12.719-59.824 32H32v48h16v-32h60.2c-1.888 5.313-3.24 10.871-3.833 16.664C81.527 164.336 64 184.137 64 208v128h160v-64h-16v48H80v-76.32c8.504 7.632 19.695 12.32 32 12.32h112v-16H112c-17.648 0-32-14.352-32-32s14.352-32 32-32 32 14.352 32 32h16c0-23.559-17.07-43.16-39.48-47.2 3.543-27.48 27.046-48.8 55.48-48.8 30.879 0 56 25.121 56 56h16c0-28.23-16.375-52.648-40.09-64.441C220.063 79.679 244.84 64 272 64c39.695 0 72 32.305 72 72v8h8c26.473 0 48 21.527 48 48s-21.527 48-48 48H240v149.336l-12.8 17.062C222.694 412.406 215.511 416 208 416H48V192H0v248c0 13.23 10.77 24 24 24h184.809c3.71 18.23 19.879 32 39.191 32s35.48-13.77 39.191-32H472c13.23 0 24-10.77 24-24V192zM384 59.687V20.313L428.305 40zM56 56V24c0-4.406 3.594-8 8-8h40v48H64c-4.406 0-8-3.594-8-8zm165.594 8H120V16h248v48h-45.617C308.09 53.969 290.753 48 272 48c-18.367 0-35.887 5.848-50.406 16zM480 440c0 4.406-3.594 8-8 8H272v8c0 13.23-10.77 24-24 24s-24-10.77-24-24v-8H24c-4.406 0-8-3.594-8-8V208h16v224h176c12.52 0 24.488-5.984 32-16l8-10.664L256 416c7.512 10.016 19.48 16 32 16h176V224h-16v192H288c-7.512 0-14.695-3.594-19.2-9.602L256 389.336V256h96c35.29 0 64-28.71 64-64 0-19.121-8.465-36.266-21.8-48H448v64h32zm0 0"/><path d="M416 352h16v16h-16zm0 0M272 352h128v16H272zm0 0M272 320h160v16H272zm0 0M272 288h160v16H272zm0 0M64 352h16v16H64zm0 0M96 352h128v16H96zm0 0M64 384h128v16H64zm0 0M208 384h16v16h-16zm0 0M328 136c0-30.879-25.121-56-56-56v16c22.055 0 40 17.945 40 40zm0 0"/></svg>