<svg height="496pt" viewBox="0 0 496 496" width="496pt" xmlns="http://www.w3.org/2000/svg"><path d="M456 40v32H104V40c0-17.68 14.32-32 32-32h288c17.68 0 32 14.32 32 32zm0 0M344 451.2V488H136c-17.68 0-32-14.32-32-32v-32h227.2l5.76 7.2a31.928 31.928 0 0 1 7.04 20zm0 0" fill="#838f9b"/><path d="M316.719 405.922L331.199 424H104V232h32v160h174.32l.078.64a32.462 32.462 0 0 0 6.32 13.282zm0 0M424 232V104H136v32h-32V72h352v176c0-4.398-1.762-8.398-4.719-11.281C448.398 233.762 444.398 232 440 232c-8.8 0-16 7.2-16 16zm0 0" fill="#69d6f4"/><path d="M408 216c-8.8 0-16 7.2-16 16v-64c0-8.8-7.2-16-16-16-4.398 0-8.398 1.762-11.281 4.719C361.762 159.602 360 163.602 360 168v107.84c-4.16-4.719-9.762-8.238-16.238-9.918L304 256v-14.48c14.32-8.32 24-23.758 24-41.52v-14c0-26.238-20.238-49.2-46.559-50-27.12-.8-49.441 20.96-49.441 48v16c0 17.762 9.68 33.2 24 41.52V256l-39.762 9.922C202 269.52 192 282.32 192 296.96V328h106.879l11.441 64H136V232h32c8.8 0 16-7.2 16-16v-64c0-8.8-7.2-16-16-16h-32v-32h288v128c0-4.398-1.762-8.398-4.719-11.281C416.398 217.762 412.398 216 408 216zm0 0" fill="#e6e9ed"/><path d="M8 216v-64c0-8.8 7.2-16 16-16h144c8.8 0 16 7.2 16 16v64c0 8.8-7.2 16-16 16h-64v32l-40-32H24c-8.8 0-16-7.2-16-16zm0 0" fill="#ffeaa7"/><path d="M296 310.398c0 1.043.078 2.16.32 3.204L298.88 328H192v-31.04c0-14.64 10-27.44 24.238-31.038L256 256v-14.48c-14.32-8.32-24-23.758-24-41.52v-16c0-27.04 22.32-48.8 49.441-48 26.32.8 46.559 23.762 46.559 50v14c0 17.762-9.68 33.2-24 41.52V256l39.762 9.922c6.476 1.68 12.078 5.2 16.238 9.918V352c-9.441 0-17.602-6.398-19.922-15.52l-8.637-34.878c-2-8-9.203-13.602-17.441-13.602-4.96 0-9.441 2-12.719 5.281C298 296.56 296 301.04 296 306zm0 0" fill="#b4dd7f"/><path d="M424 232v16c0-8.8 7.2-16 16-16 4.398 0 8.398 1.762 11.281 4.719C454.238 239.602 456 243.602 456 248v16c0-4.398 1.762-8.398 4.719-11.281C463.602 249.762 467.602 248 472 248c8.8 0 16 7.2 16 16v118.32c0 6.32-1.84 12.48-5.36 17.758l-21.28 31.844A31.932 31.932 0 0 0 456 449.68V488H344v-36.8c0-7.278-2.48-14.321-7.04-20l-5.76-7.2-14.481-18.078a32.462 32.462 0 0 1-6.32-13.281l-.079-.641-11.441-64-2.559-14.398c-.242-1.043-.32-2.16-.32-3.204V306c0-4.96 2-9.441 5.281-12.719C304.56 290 309.04 288 314 288c8.238 0 15.441 5.602 17.441 13.602l8.637 34.878c2.32 9.122 10.48 15.52 19.922 15.52V168c0-4.398 1.762-8.398 4.719-11.281C367.602 153.762 371.602 152 376 152c8.8 0 16 7.2 16 16v64c0-8.8 7.2-16 16-16 4.398 0 8.398 1.762 11.281 4.719C422.238 223.602 424 227.602 424 232zm0 0" fill="#f0d0b4"/><path d="M299.902 336H184v-39.016a39.946 39.946 0 0 1 30.297-38.808L248 249.754v-3.844c-14.91-10.414-24-27.597-24-45.902v-16c0-15.281 6.04-29.551 17.008-40.192 10.96-10.632 25.289-16.152 40.71-15.785 29.93.899 54.282 26.907 54.282 57.985V200c0 18.313-9.09 35.504-24.008 45.91v3.832l33.711 8.434a39.85 39.85 0 0 1 20.395 12.449l-12.043 10.543c-3.23-3.695-7.461-6.273-12.239-7.48l-45.808-11.45-.024-25.316 4-2.313C312.328 227.465 320 214.2 320 200v-13.984c0-22.512-17.39-41.352-38.762-41.993-11.039-.449-21.261 3.672-29.086 11.266C244.32 162.887 240 173.09 240 184v16c0 14.191 7.664 27.457 20.008 34.602L264 236.91v25.336l-45.824 11.45A23.983 23.983 0 0 0 200 296.983V320h99.902zm0 0M32 160h16v16H32zm0 0M64 160h96v16H64zm0 0M32 192h128v16H32zm0 0M248 32h64v16h-64zm0 0M328 32h16v16h-16zm0 0M216 32h16v16h-16zm0 0M256 448h48v16h-48zm0 0"/><path d="M472 240c-2.816 0-5.488.574-8 1.473V40c0-22.055-17.945-40-40-40H136c-22.055 0-40 17.945-40 40v104h72c4.406 0 8 3.586 8 8v64c0 4.414-3.594 8-8 8H96v23.352L66.809 224H24c-4.406 0-8-3.586-8-8v-64c0-4.414 3.594-8 8-8h56v-16H24c-13.23 0-24 10.77-24 24v64c0 13.23 10.77 24 24 24h37.191L112 280.648V240h16v160h176.336c1.48 3.91 3.52 7.625 6.137 10.895L314.55 416H112V297.168H96V456c0 22.055 17.945 40 40 40h328v-46.312c0-4.75 1.39-9.352 4.031-13.313l21.25-31.871A39.91 39.91 0 0 0 496 382.32V264c0-13.23-10.77-24-24-24zM136 16h288c13.23 0 24 10.77 24 24v24H112V40c0-13.23 10.77-24 24-24zm-24 64h336v145.473c-2.512-.899-5.184-1.473-8-1.473s-5.488.574-8 1.473V96H128v32h-16zm32 160h24c13.23 0 24-10.77 24-24v-64c0-13.23-10.77-24-24-24h-24v-16h272v97.473c-2.512-.899-5.184-1.473-8-1.473s-5.488.574-8 1.473V168c0-13.23-10.77-24-24-24s-24 10.77-24 24v173.113a12.46 12.46 0 0 1-4.121-6.57l-8.719-34.863A25.925 25.925 0 0 0 313.97 280C299.649 280 288 291.648 288 305.969v4.437c0 1.54.137 3.067.406 4.57L300.754 384H144zm-8 240c-13.23 0-24-10.77-24-24v-24h215.352l3.382 4.23A24.047 24.047 0 0 1 336 451.223V480zm344-97.688c0 4.75-1.39 9.352-4.031 13.313l-21.25 31.871A39.954 39.954 0 0 0 448 449.687V480h-96v-28.777a40.126 40.126 0 0 0-8.77-24.993l-20.261-25.328c-2.32-2.902-3.953-6.351-4.672-9.695L304.16 312.16a9.186 9.186 0 0 1-.16-1.754v-4.437c0-5.496 4.473-9.969 9.969-9.969a9.96 9.96 0 0 1 9.672 7.543l8.718 34.863A28.43 28.43 0 0 0 360 360h8V168c0-4.414 3.594-8 8-8s8 3.586 8 8v160h16v-96c0-4.414 3.594-8 8-8s8 3.586 8 8v96h16v-80c0-4.414 3.594-8 8-8s8 3.586 8 8v80h16v-64c0-4.414 3.594-8 8-8s8 3.586 8 8zm0 0"/><path d="M160 352h16v16h-16zm0 0M192 352h88v16h-88zm0 0"/></svg>