<svg height="512pt" viewBox="0 0 512 512" width="512pt" xmlns="http://www.w3.org/2000/svg"><path d="M502 256c0 135.863-110.137 246-246 246S10 391.863 10 256 120.137 10 256 10s246 110.137 246 246zm0 0" fill="#494949"/><path d="M452 256c0 108.246-87.754 196-196 196S60 364.246 60 256 147.754 60 256 60s196 87.754 196 196zm0 0" fill="#686868"/><path d="M256 512c-68.379 0-132.668-26.629-181.02-74.98C26.63 388.668 0 324.379 0 256S26.629 123.332 74.98 74.98C123.332 26.63 187.621 0 256 0s132.668 26.629 181.02 74.98C485.37 123.332 512 187.621 512 256s-26.629 132.668-74.98 181.02C388.668 485.37 324.379 512 256 512zm0-492c-63.04 0-122.305 24.547-166.879 69.121C44.547 133.695 20 192.961 20 256s24.547 122.305 69.121 166.879C133.695 467.453 192.961 492 256 492s122.305-24.547 166.879-69.121C467.453 378.305 492 319.039 492 256s-24.547-122.305-69.121-166.879C378.305 44.547 319.039 20 256 20zm0 0"/><path d="M256 462c-113.59 0-206-92.41-206-206S142.41 50 256 50s206 92.41 206 206-92.41 206-206 206zm0-392C153.437 70 70 153.438 70 256s83.438 186 186 186 186-83.438 186-186S358.562 70 256 70zm0 0"/><path d="M256 412c-48.34 0-93.156-21.867-122.965-59.992-3.402-4.352-2.633-10.637 1.719-14.035 4.351-3.403 10.637-2.633 14.039 1.718C174.781 372.934 213.859 392 256 392c5.523 0 10 4.477 10 10s-4.477 10-10 10zm0 0M357.219 160.785a9.976 9.976 0 0 1-6.934-2.797C324.828 133.492 291.344 120 256 120c-5.523 0-10-4.477-10-10s4.477-10 10-10c40.54 0 78.95 15.477 108.152 43.578 3.98 3.828 4.106 10.16.274 14.14a9.97 9.97 0 0 1-7.207 3.067zm0 0M121.43 321.875c-5.524 0-10.004-4.477-10.004-10s4.472-10 9.996-10h.008c5.523 0 10 4.477 10 10s-4.477 10-10 10zm0 0M380.902 192.227c-5.52 0-10.004-4.477-10.004-10 0-5.524 4.473-10 9.997-10h.007c5.524 0 10 4.476 10 10 0 5.523-4.476 10-10 10zm0 0"/></svg>