<svg height="511pt" viewBox="-32 0 511 512" width="511pt" xmlns="http://www.w3.org/2000/svg"><g fill="#ea4253"><path d="M194.168 356.89l-56.621 56.57-115.36-115.257c-15.578-15.562-15.578-41.031 0-56.594l.024-.023c15.55-15.535 40.996-15.535 56.547 0zm0 0"/><path d="M436.496 150.98v215.618c0 33.242-26.894 60.191-60.066 60.187l-200.168-.02c-33.168-.003-60.059-26.949-60.059-60.187V84.891c-.043-22.036 17.977-40.094 40-40.094 11.012 0 21.024 4.516 28.281 11.789 7.254 7.273 11.762 17.305 11.762 28.336V50.828c0-21.738 16.969-40.058 38.649-40.805 11.558-.398 22.109 4.184 29.671 11.762 7.258 7.274 11.762 17.305 11.762 28.34v46.281c0-22.066 18.02-40.125 40.043-40.125 11.012 0 21.02 4.516 28.277 11.79 7.258 7.273 11.762 17.304 11.762 28.335v54.57c0-22.066 18.02-40.124 40.043-40.124 11.012 0 21.024 4.515 28.281 11.789s11.762 17.304 11.762 28.34zm0 0"/><path d="M370.46 502H182.243c-5.523 0-10-4.477-10-10v-65.234h208.219V492c0 5.523-4.477 10-10 10zm0 0"/></g><path d="M350.46 381.625H202.243c-16.57 0-30-13.434-30-30v-15.234c0-16.57 13.43-30 30-30h148.219c16.566 0 30 13.43 30 30v15.234c0 16.566-13.434 30-30 30zm0 0" fill="#ffea77"/><path d="M431.813 115.578c-9.473-9.5-22.032-14.73-35.364-14.73-11.258 0-21.66 3.75-30.039 10.07V96.41c0-13.34-5.21-25.91-14.68-35.402-9.48-9.5-22.03-14.73-35.359-14.73a49.685 49.685 0 0 0-30.039 10.07v-6.23c0-13.34-5.223-25.911-14.684-35.4-9.796-9.808-23.316-15.16-37.097-14.69-13.09.452-25.313 6.019-34.39 15.671a51.034 51.034 0 0 0-13.602 29.418c-8.688-6.699-19.258-10.32-30.36-10.32-13.32 0-25.87 5.223-35.34 14.71-9.48 9.493-14.68 22.071-14.66 35.384v169.976l-20.379-20.36c-19.48-19.468-51.191-19.468-70.699.032C5.691 243.95.5 256.508.5 269.91c0 13.39 5.191 25.95 14.621 35.367l115.36 115.254a10.063 10.063 0 0 0 4.238 2.528c8.043 5.949 17.383 10.222 27.52 12.3V492c0 11.031 8.972 20 20 20H370.46c11.031 0 20-8.969 20-20v-56.61c13.371-2.71 25.66-9.292 35.52-19.171 13.23-13.25 20.519-30.88 20.519-49.621V150.98c0-13.34-5.219-25.91-14.688-35.402zM29.25 291.128c-5.64-5.64-8.75-13.167-8.75-21.218 0-8.05 3.11-15.59 8.781-21.25 5.848-5.84 13.528-8.762 21.2-8.762 7.68 0 15.359 2.922 21.21 8.762l34.508 34.48v83.442c0 .477 0 .957.02 1.438zM370.46 492H182.239v-55.23h188.223v.02l.008 55.21h-.008zm56.04-125.398c0 13.41-5.21 26.007-14.68 35.488A50.054 50.054 0 0 1 395.602 413a50.004 50.004 0 0 1-17.922 3.77c-.41.011-.828.02-1.25.02l-200.168-.02c-8.09-.008-15.73-1.938-22.5-5.372a50.032 50.032 0 0 1-15.774-12.52c-7.347-8.737-11.789-20-11.789-32.296V84.872c-.008-7.981 3.121-15.52 8.813-21.231 5.687-5.7 13.218-8.84 21.187-8.84 7.98 0 15.512 3.14 21.211 8.847 5.7 5.711 8.84 13.27 8.84 21.27 0 .3.012.602.04.89l-.052 169.43c0 5.524 4.473 10 10 10.012 5.524 0 10-4.48 10-10l.051-170.32c0-.309-.008-.61-.039-.91V50.828c0-16.437 13-30.258 28.992-30.808 8.387-.301 16.278 2.851 22.25 8.832 5.7 5.707 8.84 13.27 8.84 21.27V96.41c0 .348.02.692.047 1.02l.05 157.82c0 5.52 4.47 10 10 10 5.52-.012 10-4.488 10-10.012l-.05-158.828c0-.262-.008-.512-.027-.77.398-16.261 13.718-29.359 30.02-29.359 7.98 0 15.507 3.149 21.198 8.86 5.7 5.71 8.84 13.257 8.84 21.27v54.57c0 .34.02.68.05 1.007V152l-.089 103.238c-.012 5.524 4.461 10 9.988 10.012h.012c5.508 0 9.988-4.48 10-10l.09-104.262c0-.258-.012-.52-.031-.777.402-16.262 13.722-29.36 30.02-29.36 7.98 0 15.51 3.149 21.21 8.86 5.7 5.707 8.84 13.258 8.84 21.27zm0 0"/><path d="M350.46 296.39H202.239c-14.726 0-27.629 8-34.566 19.891a39.728 39.728 0 0 0-5.434 20.11v2.738l.66.66c-.257.492-.488 1-.66 1.543v10.29c0 6.667 1.64 12.96 4.543 18.5A40.312 40.312 0 0 0 180.2 384.98a39.7 39.7 0 0 0 22.04 6.641H350.46c22.05 0 40-17.941 40-40v-15.23c0-22.063-17.95-40-40-40zm20 55.231c0 11.027-8.968 20-20 20H202.239a19.94 19.94 0 0 1-7.289-1.379c-6.578-2.582-11.469-8.55-12.5-15.762h79.371c5.52 0 10-4.48 10-10s-4.48-10-10-10h-79.488a19.75 19.75 0 0 1 .527-3.02c2.2-8.651 10.051-15.07 19.38-15.07H350.46c11.031 0 20 8.97 20 20zm0 0"/><path d="M296.867 354.48c-5.52 0-10.004-4.476-10.004-10 0-5.523 4.473-10 9.996-10h.008c5.524 0 10 4.477 10 10 0 5.524-4.476 10-10 10zm0 0"/></svg>