<svg height="512pt" viewBox="-156 0 512 512" width="512pt" xmlns="http://www.w3.org/2000/svg"><path d="M150 501.992H50c-22 0-40-18-40-40V361.88c0-11.043 8.953-20 20-20h140c11.047 0 20 8.957 20 20v100.113c0 22-18 40-40 40zm0 0" fill="#90f3ff"/><g fill="#53d8fb"><path d="M170 341.879H30c-11 0-20-9-20-20v-20.04c0-11 9-20 20-20h140c11 0 20 9 20 20v20.04c0 11-9 20-20 20zm0 0"/><path d="M170 281.84H30c-11 0-20-9-20-20v-20.043c0-11 9-20 20-20h140c11 0 20 9 20 20v20.043c0 11-9 20-20 20zm0 0M170 221.777H30c-11 0-20-9-20-20v-20.043c0-11 9-20 20-20h140c11 0 20 9 20 20v20.043c0 11-9 20-20 20zm0 0"/></g><path d="M190 130.355v11.364c0 11.008-9 20.015-20 20.015H30c-11.047 0-20-8.96-20-20.015v-11.364a30.04 30.04 0 0 1 4.598-15.972L55 50.035h90l40.402 64.348A30.04 30.04 0 0 1 190 130.355zm0 0" fill="#90f3ff"/><path d="M145 50.035H55V20.008c0-5.5 4.5-10 10-10h70c5.5 0 10 4.5 10 10zm0 0" fill="#0579bb"/><path d="M200 130.352a40.035 40.035 0 0 0-6.129-21.293L155 47.152V20.016C155 8.976 146.031 0 135 0H65C53.969 0 45 8.977 45 20.016v27.136L6.129 109.055A40.038 40.038 0 0 0 0 130.352v11.367c0 7.683 2.898 14.699 7.66 20.015C2.898 167.047 0 174.062 0 181.746v20.016c0 7.683 2.898 14.71 7.672 20.023A29.88 29.88 0 0 0 0 241.81v20.015c0 7.684 2.898 14.7 7.66 20.016C2.898 287.152 0 294.168 0 301.852v20.015c0 7.684 2.898 14.7 7.66 20.012C2.898 347.195 0 354.21 0 361.895v100.07C0 489.555 22.43 512 50 512h100c27.57 0 50-22.445 50-50.035v-100.07c0-7.684-2.898-14.7-7.66-20.012 4.762-5.317 7.66-12.332 7.66-20.016v-20.015c0-7.684-2.898-14.7-7.66-20.012 4.762-5.317 7.66-12.328 7.66-20.016V241.81a29.88 29.88 0 0 0-7.672-20.024A29.873 29.873 0 0 0 200 201.762v-20.016c0-7.684-2.898-14.7-7.66-20.012A29.893 29.893 0 0 0 200 141.72zM65 20.016h70v20.011H65zm115 441.949c0 16.55-13.46 30.02-30 30.02h-40v-59.68c0-5.524-4.48-10.008-10-10.008s-10 4.484-10 10.008v59.68H50c-16.54 0-30-13.47-30-30.02v-100.07c0-5.512 4.488-10.008 10-10.008h140c5.512 0 10 4.496 10 10.008zm0-140.098c0 5.512-4.488 10.004-10 10.004H30c-5.512 0-10-4.492-10-10.004v-20.015c0-5.512 4.488-10.008 10-10.008h140c5.512 0 10 4.496 10 10.008zm0-60.043c0 5.516-4.488 10.008-10 10.008H30c-5.512 0-10-4.492-10-10.008V241.81c0-5.512 4.488-10.004 10-10.004h140c5.512 0 10 4.492 10 10.004zm0-60.062c0 5.515-4.488 10.008-10 10.008H30c-5.512 0-10-4.493-10-10.008v-20.016c0-5.512 4.488-10.004 10-10.004h140c5.512 0 10 4.492 10 10.004zm0-60.043c0 5.515-4.488 10.008-10 10.008H30c-5.512 0-10-4.493-10-10.008v-11.367c0-3.774 1.059-7.454 3.07-10.649l37.461-59.66h78.938l37.46 59.66A19.951 19.951 0 0 1 180 130.352zm0 0"/><path d="M100.02 407.285c-5.524 0-10.004-4.48-10.004-10.008 0-5.523 4.472-10.004 9.996-10.004h.008c5.523 0 10 4.48 10 10.004 0 5.528-4.477 10.008-10 10.008zm0 0"/></svg>