<svg height="512pt" viewBox="0 0 512 512" width="512pt" xmlns="http://www.w3.org/2000/svg"><path d="M286.43 271.922L65.922 492.442c-12.77 12.769-33.477 12.769-46.242 0l-.106-.102c-12.765-12.77-12.765-33.473 0-46.242l220.512-220.524a2.692 2.692 0 0 1 3.812 0l42.532 42.531a2.704 2.704 0 0 1 0 3.817zm0 0" fill="#595959"/><path d="M502 206.441C502 97.95 414.055 10 305.57 10c-108.484 0-196.43 87.95-196.43 196.441 0 108.493 87.946 196.442 196.43 196.442 108.485 0 196.43-87.95 196.43-196.442zm0 0" fill="#595959"/><path d="M451.89 206.441c0-80.816-65.511-146.328-146.32-146.328-80.812 0-146.32 65.512-146.32 146.328S224.758 352.77 305.57 352.77c80.809 0 146.32-65.512 146.32-146.329zm0 0" fill="#fff"/><path d="M360.691 183.89c0 12.45-24.668 22.551-55.12 22.551-30.29 0-54.872-10-55.122-22.355v-.195c0-12.457 24.68-22.551 55.121-22.551 30.453 0 55.121 10.094 55.121 22.55zm0 0" fill="#757679"/><path d="M360.691 183.89v45.102c0 12.45-24.668 22.555-55.12 22.555-30.442 0-55.122-10.106-55.122-22.555v-44.906c.25 12.355 24.832 22.355 55.121 22.355 30.453 0 55.121-10.101 55.121-22.55zm0 0" fill="#595959"/><path d="M305.57 0C191.738 0 99.14 92.613 99.14 206.438c0 41.472 12.29 80.132 33.43 112.523L12.512 439.027C4.442 447.09 0 457.81 0 469.22s4.441 22.129 12.512 30.191l.097.098C20.93 507.84 31.871 512 42.801 512s21.87-4.16 30.187-12.488l120.063-120.067c32.39 21.14 71.05 33.442 112.52 33.442 113.827 0 206.429-92.614 206.429-206.45C512 92.613 419.398 0 305.57 0zM58.852 485.367c-8.852 8.852-23.25 8.852-32.102 0l-.102-.097A22.554 22.554 0 0 1 20 469.219c0-6.063 2.36-11.762 6.648-16.051L144.45 335.363a208.29 208.29 0 0 0 32.2 32.2zm246.718-92.48c-35.941 0-69.539-10.223-98.039-27.922-5.77-3.57-11.32-7.461-16.652-11.63a188.159 188.159 0 0 1-32.2-32.202 185.4 185.4 0 0 1-11.628-16.66c-17.692-28.5-27.91-62.094-27.91-98.036C119.14 103.633 202.77 20 305.57 20 408.37 20 492 103.633 492 206.437c0 102.817-83.629 186.45-186.43 186.45zm0 0"/><path d="M305.57 362.773c-86.195 0-156.32-70.128-156.32-156.332 0-86.199 70.125-156.328 156.32-156.328 86.196 0 156.32 70.13 156.32 156.328 0 86.204-70.124 156.332-156.32 156.332zm0-292.66c-75.168 0-136.32 61.157-136.32 136.328s61.152 136.332 136.32 136.332c75.168 0 136.32-61.16 136.32-136.332S380.739 70.113 305.57 70.113zm0 0"/><path d="M370.68 183.367c-.696-27.512-45.48-32.004-65.11-32.031-19.652-.027-64.707 4.594-65.11 32.242-.01.168-.01.34-.01.508v44.902c0 27.91 45.476 32.528 65.12 32.551 19.668.027 65.121-4.668 65.121-32.55v-45.102c0-.18 0-.352-.011-.52-.532-21.02.011.168 0 0zm-98.66-6.808c14.609-5.414 31.3-6.184 46.648-4.5 7.96.875 28.16 2.847 32.004 11.82 0 .008-.012.008-.012.02-.031.09-.09.199-.18.328-.062.101-.128.199-.199.289-.32.414-.676.793-1.062 1.14a9.686 9.686 0 0 1-.809.692c-1.277 1.152-3.144 2.136-4.64 2.87-20.817 11.485-57.692 10.66-78.23-.972a.715.715 0 0 0-.099-.059c-1.582-.988-4.27-2.398-4.98-4.261.309-.86 2.918-4.16 11.559-7.367 9.07-3.364-8.641 3.207 0 0zm78.671 52.37c-3.832 12.102-35.816 12.63-45.12 12.61-9.294-.02-41.18-.492-45.122-12.621v-20.84c16.735 7.527 36.078 9.137 54.2 8.07.042 0 .07-.011.113-.011 12.355-.805 24.527-3.254 35.93-8.149zm0 0M75.816 446.21a9.968 9.968 0 0 1-7.07-2.929c-3.906-3.902-3.906-10.234 0-14.14l63.777-63.786c3.907-3.902 10.239-3.902 14.145 0 3.902 3.907 3.902 10.239 0 14.145l-63.781 63.781a9.968 9.968 0 0 1-7.07 2.93zm0 0"/></svg>