<svg height="512pt" viewBox="-61 0 512 512" width="512pt" xmlns="http://www.w3.org/2000/svg"><path d="M129.66 10H380v360.738H129.66zm0 0" fill="#ffea77"/><path d="M281.023 257.473c-16.523 0-30.043 13.527-30.043 30.058v83.145H130.16V83.082c0-16.531-13.515-30.062-30.039-30.062-16.523 0-30.043 13.53-30.043 30.062v108.281c0-16.531-13.516-30.058-30.039-30.058-16.52 0-30.039 13.527-30.039 30.058v193.395c0 16.605 13.45 30.062 30.04 30.062h10.343v40.082h220.3V414.82h10.34c16.594 0 30.043-13.457 30.043-30.062V287.53c-.004-16.531-13.52-30.058-30.043-30.058zm0 0" fill="#ffe7b3"/><path d="M50.383 454.902H270.68V502H50.383zm0 0" fill="#0579bb"/><path d="M380 0H129.66c-5.52 0-10 4.48-10 10v38.121a39.757 39.757 0 0 0-19.539-5.101c-22.082 0-40.043 17.968-40.043 40.058v73.613a39.803 39.803 0 0 0-20.039-5.39C17.961 151.3 0 169.28 0 191.37v193.39c0 22.09 17.96 40.06 40.04 40.06h.339V502c0 5.52 4.48 10 10 10h220.3c5.52 0 10-4.48 10-10v-77.18h.34c22.083 0 40.04-17.968 40.04-40.058v-4.024H380c5.52 0 10-4.476 10-10V10c0-5.52-4.48-10-10-10zM260.68 492H60.379v-27.102h200.3zm40.379-107.238c0 11.058-8.989 20.058-20.04 20.058h-10.34c-5.519 0-10 4.48-10 10v30.078H60.38V414.82c0-5.52-4.469-10-10-10h-10.34c-11.05 0-20.039-9-20.039-20.058v-193.39C20 180.3 28.988 171.3 40.04 171.3c11.05 0 20.038 9 20.038 20.07v106.91c0 5.52 4.48 10 10 10 5.524 0 10-4.48 10-10V83.078c0-11.058 8.992-20.058 20.043-20.058 9.527 0 17.52 6.69 19.54 15.62.327 1.43.5 2.91.5 4.438v287.594c0 5.527 4.48 10 10 10h120.82c5.53 0 10-4.473 10-10v-83.14c0-11.063 8.988-20.063 20.039-20.063s20.039 9 20.039 20.062zM370 360.738h-48.941v-73.207c0-22.09-17.957-40.062-40.04-40.062-22.078 0-40.039 17.972-40.039 40.062v73.14H140.16V83.079c0-2.148-.172-4.258-.5-6.316V20H370zm0 0"/><path d="M254.824 184.031c-5.523 0-10-4.476-10-10V87.113c0-5.52 4.477-10 10-10 5.524 0 10 4.48 10 10v86.918c0 5.524-4.476 10-10 10zm0 0M254.855 223.633c-5.52 0-10.003-4.48-10.003-10 0-5.524 4.472-10 9.996-10h.007c5.524 0 10 4.476 10 10 0 5.52-4.476 10-10 10zm0 0"/></svg>