<svg height="512pt" viewBox="0 -116 512 512" width="512pt" xmlns="http://www.w3.org/2000/svg"><path d="M502 64.988V30c0-11.05-8.96-20-20-20H30c-11.05 0-20 8.95-20 20v34.988c41.422 0 75 33.582 75 75 0 41.422-33.578 75-75 75V250c0 11.05 8.95 20 20 20h452c11.04 0 20-8.95 20-20v-35.012c-41.422 0-75-33.578-75-75 0-41.418 33.578-75 75-75zM256 180c-22.09 0-40-17.91-40-40s17.91-40 40-40 40 17.91 40 40-17.91 40-40 40zm0 0" fill="#61d89d"/><g fill="#26b56a"><path d="M85 139.988c0 41.422-33.578 75-75 75v-150c41.422 0 75 33.582 75 75zm0 0M502 64.988v150c-41.422 0-75-33.578-75-75 0-41.418 33.578-75 75-75zm0 0M296 140c0 22.09-17.91 40-40 40s-40-17.91-40-40 17.91-40 40-40 40 17.91 40 40zm0 0"/></g><path d="M482 0H30C13.46 0 0 13.46 0 30v220c0 16.54 13.46 30 30 30h452c16.54 0 30-13.46 30-30V30c0-16.54-13.46-30-30-30zM20 75.762c71.3 11.023 71.781 117.36 0 128.457zM136 260H30c-5.512 0-10-4.488-10-10v-25.59c40.047-5.328 72.02-37.93 74.797-78.61C97.84 101.16 64.437 60.97 20 55.579V30c0-5.512 4.488-10 10-10h106zm110 0h-90V20h90v71.012c-51.91 10.562-51.922 87.414 0 97.976zm-20-120c0-38.676 60-38.652 60 0 0 38.637-60 38.71-60 0zm130 120h-90v-71.012c51.91-10.562 51.922-87.414 0-97.976V20h90zm136-10c0 5.512-4.488 10-10 10H376V20h106c5.512 0 10 4.488 10 10v25.578c-69.824 8.469-99.754 97.008-48.703 145.817 13.09 12.52 30.578 21.199 48.703 23.015zm0-45.781c-71.273-10.867-71.363-117.578 0-128.457zm0 0"/><path d="M256.02 150c-5.524 0-10.004-4.477-10.004-10s4.472-10 9.992-10h.012c5.523 0 10 4.477 10 10s-4.477 10-10 10zm0 0"/></svg>