<svg height="512pt" viewBox="0 -100 512 512" width="512pt" xmlns="http://www.w3.org/2000/svg"><path d="M502 10H255.746v25h-60V10H156C75.367 10 10 75.367 10 156s65.367 146 146 146 146-65.367 146-146c0-8.984-.816-17.777-2.371-26.316l161.726-44.496L502 74.004zm0 0" fill="#ea4253"/><path d="M252 156c0 53.02-42.98 96-96 96s-96-42.98-96-96 42.98-96 96-96 96 42.98 96 96zm0 0" fill="#ffea77"/><path d="M502 0H255.75c-5.52 0-10 4.48-10 10v15h-40V10c0-5.52-4.48-10-10-10H156C69.98 0 0 69.98 0 156s69.98 156 156 156 156-69.98 156-156c0-6.352-.39-12.719-1.16-19.031l193.808-53.32A10.004 10.004 0 0 0 512 74.011V10c0-5.52-4.48-10-10-10zM296.98 120.04c-5 1.382-8.12 6.339-7.19 11.44A136.62 136.62 0 0 1 292 156c0 74.988-61.012 136-136 136S20 230.988 20 156 81.012 20 156 20h29.75v15c0 5.52 4.48 10 10 10h60c5.52 0 10-4.48 10-10V20h180.46v58.988zM492 66.39l-25.79 7.09V20H492zm0 0"/><path d="M156 262c-58.45 0-106-47.55-106-106S97.55 50 156 50s106 47.55 106 106-47.55 106-106 106zm0-192c-47.422 0-86 38.578-86 86s38.578 86 86 86 86-38.578 86-86-38.578-86-86-86zm0 0"/><path d="M202 166c-5.523 0-10-4.477-10-10 0-19.852-16.148-36-36-36-5.523 0-10-4.477-10-10s4.477-10 10-10c30.879 0 56 25.121 56 56 0 5.523-4.477 10-10 10zm0 0M185.734 201.406c-5.523 0-10.007-4.476-10.007-10s4.472-10 9.996-10h.011c5.524 0 10 4.477 10 10s-4.476 10-10 10zm0 0"/></svg>