<svg height="512pt" viewBox="-16 0 512 512" width="512pt" xmlns="http://www.w3.org/2000/svg"><path d="M219.883 359.441h39.976v82.493h-39.976zm0 0" fill="#f7ba1b"/><path d="M327.828 501.988H151.914c-6.594 0-11.988-5.394-11.988-11.984v-.117c0-26.375 21.582-47.953 47.953-47.953h103.984c26.375 0 47.953 21.578 47.953 47.953v.117c0 6.594-5.394 11.984-11.988 11.984zm0 0M119.938 10.012v170.164c0 52.742 29.312 103.847 71.128 127.09a50.248 50.248 0 0 0-1.168 10.75c0 27.64 22.375 50.05 49.973 50.05 27.602 0 49.973-22.41 49.973-50.05 0-3.692-.41-7.286-1.168-10.75 41.82-23.243 71.129-74.348 71.129-127.09V10.012zm0 0" fill="#ffdb45"/><path d="M471.523 50.008c-16.23-17.875-50.382-17.278-89.93-16.594-3.886.07-7.835.129-11.792.18V10.012C369.8 4.484 365.32 0 359.805 0H119.938c-5.516 0-9.997 4.484-9.997 10.012v23.582c-3.867-.051-7.734-.121-11.535-.18-39.547-.691-73.699-1.281-89.93 16.594C1.75 57.426-.995 67.118.32 78.808 5.148 121.66 46.137 196.813 111.621 202.93c6.606 45.043 32.32 86.644 68.543 109.496a60.916 60.916 0 0 0-.262 5.594c0 22.183 12.075 41.59 29.985 52v61.902h-21.989c-31.96 0-57.968 26.043-57.968 58.055 0 12.144 9.867 22.023 21.988 22.023H327.82c12.125 0 21.989-9.879 21.989-22.023 0-32.008-26.004-58.055-57.965-58.055h-21.989V370.02c17.91-10.399 29.985-29.817 29.985-52 0-1.864-.09-3.735-.262-5.594 36.211-22.852 61.926-64.446 68.543-109.477 65.633-5.937 106.723-81.23 111.559-124.14 1.32-11.692-1.43-21.383-8.157-28.801zM50.914 144.66c-19.82-24.863-28.934-52.219-30.723-68.094-.878-7.73 1.34-11.171 3.079-13.086 10.144-11.167 43.003-10.597 74.796-10.046 3.91.058 7.88.129 11.875.18v126.562c0 .793.012 1.582.02 2.37-16.719-2.46-38.148-11.679-59.047-37.886zm240.93 307.281c20.937 0 37.976 17.067 37.976 38.036 0 1.082-.906 2.003-1.996 2.003H151.918c-1.078 0-1.996-.921-1.996-2.003 0-20.97 17.039-38.036 37.976-38.036zm-61.965-20.02v-54.683c3.246.551 6.586.84 9.992.84 3.41 0 6.746-.289 9.996-.84v54.684zm119.934-251.745c0 24.012-6.426 48.105-18.59 69.687-11.985 21.25-28.368 38.078-47.395 48.649a10.019 10.019 0 0 0-4.918 10.89 40.04 40.04 0 0 1 .938 8.618c0 13.164-6.375 24.863-16.2 32.16a39.718 39.718 0 0 1-23.777 7.879 39.718 39.718 0 0 1-23.777-7.88c-9.824-7.296-16.2-18.995-16.2-32.16 0-2.87.32-5.765.938-8.617.938-4.312-1.05-8.75-4.918-10.89-19.02-10.57-35.41-27.399-47.394-48.649-12.16-21.582-18.59-45.676-18.59-69.687V69.566h155.418c5.515 0 9.992-4.48 9.992-10.007s-4.477-10.012-9.992-10.012H128.28a9.59 9.59 0 0 0 1.649-3.613V20.02h219.883zm110-103.61c-1.79 15.875-10.907 43.23-30.723 68.094-21.012 26.348-42.559 35.528-59.309 37.93.008-.8.02-1.613.02-2.414V53.613c4.078-.043 8.144-.11 12.133-.18 31.793-.55 64.656-1.12 74.796 10.047 1.743 1.915 3.961 5.356 3.082 13.086zm0 0"/><path d="M272.602 235.621a9.984 9.984 0 0 1-4.653-1.148l-28.078-14.786-28.078 14.786a9.98 9.98 0 0 1-10.523-.762 10.012 10.012 0 0 1-3.977-9.79l5.363-31.312-22.718-22.175a10.023 10.023 0 0 1-2.528-10.262 9.997 9.997 0 0 1 8.067-6.813l31.394-4.57 14.04-28.488a9.987 9.987 0 1 1 17.922 0l14.038 28.488 31.395 4.57a10.003 10.003 0 0 1 8.066 6.813 10.023 10.023 0 0 1-2.527 10.262l-22.72 22.175 5.364 31.313a10.012 10.012 0 0 1-3.976 9.789 9.971 9.971 0 0 1-5.871 1.91zm-32.73-37.25c1.597 0 3.194.383 4.651 1.149l14.805 7.796-2.828-16.511a10.025 10.025 0 0 1 2.875-8.86l11.977-11.691-16.551-2.41a10.007 10.007 0 0 1-7.528-5.477l-7.402-15.023-7.402 15.023a10 10 0 0 1-7.524 5.477l-16.55 2.41 11.976 11.691a10.025 10.025 0 0 1 2.875 8.86l-2.828 16.511 14.805-7.796a9.97 9.97 0 0 1 4.648-1.149zm0 0M320.348 69.566c-5.52 0-10-4.48-10-10.007 0-5.532 4.472-10.012 9.992-10.012h.008c5.52 0 9.996 4.48 9.996 10.012 0 5.527-4.477 10.007-9.996 10.007zm0 0"/></svg>