<svg height="512pt" viewBox="0 -16 512 512" width="512pt" xmlns="http://www.w3.org/2000/svg"><path d="M89.77 110.371c0 25.8-22.418 47.809-48 56.25-.051.02-.098.04-.141.05-7.18 2.36-14.61 3.638-21.86 3.638-3.328 0-6.59-.27-9.769-.797v-29.64c0-27.59 22.39-49.95 50-49.95h26.191c.059.156.11.308.16.469a59.871 59.871 0 0 1 3.419 19.98zm0 0" fill="#ea4253"/><path d="M502 140.34v279.71c0 27.579-22.39 49.95-50 49.95H60c-27.61 0-50-22.371-50-49.95V169.98c3.18.532 6.441.801 9.77.801 7.71 0 15.09-1.453 21.859-4.11.043-.01.09-.03.14-.05 25.583-8.441 48-30.45 48-56.25 0-7.012-1.21-13.73-3.417-19.98H452c27.61 0 50 22.37 50 49.949zm0 0" fill="#f5fdff"/><g fill="#ea4253"><path d="M331 248.504h-43.75V204.8h-62.5v43.703H181v62.437h43.75v43.704h62.5V310.94H331zm0 0M422.23 110.367c0 33.098 36.872 59.938 70 59.938 3.329 0 6.59-.27 9.77-.797v-29.64c0-27.583-22.39-49.95-50-49.95h-26.191a59.999 59.999 0 0 0-3.579 20.45zm0 0M89.77 449.547c0-33.094-36.872-59.938-70-59.938-3.329 0-6.59.27-9.77.801v29.637c0 27.582 22.39 49.95 50 49.95h26.191a59.999 59.999 0 0 0 3.579-20.45zm0 0M422.23 449.547c0-33.094 36.872-59.938 70-59.938 3.329 0 6.59.27 9.77.801v29.637c0 27.582-22.39 49.95-50 49.95h-26.191a59.999 59.999 0 0 1-3.579-20.45zm0 0"/></g><path d="M287.25 364.645h-62.5c-5.523 0-10-4.477-10-10V320.94H181c-5.523 0-10-4.476-10-10v-62.437c0-5.524 4.477-10 10-10h33.75V204.8c0-5.524 4.477-10 10-10h62.5c5.523 0 10 4.476 10 10v33.703H331c5.523 0 10 4.476 10 10v62.437c0 5.524-4.477 10-10 10h-33.75v33.704c0 5.523-4.477 10-10 10zm-52.5-20h42.5V310.94c0-5.523 4.477-10 10-10H321v-42.437h-33.75c-5.523 0-10-4.477-10-10V214.8h-42.5v33.703c0 5.523-4.477 10-10 10H191v42.437h33.75c5.523 0 10 4.477 10 10zm0 0M316 440.566h-80c-5.523 0-10-4.476-10-10 0-5.523 4.477-10 10-10h80c5.523 0 10 4.477 10 10 0 5.524-4.477 10-10 10zm0 0M196.02 440.566c-5.524 0-10.004-4.476-10.004-10 0-5.523 4.472-10 9.996-10h.008c5.523 0 10 4.477 10 10 0 5.524-4.477 10-10 10zm0 0"/><path d="M452 80.39h-86V59.95C366 26.89 339.078 0 306 0H206c-33.078 0-60 26.89-60 59.95v20.44H89.2a9.688 9.688 0 0 0-3.009-.468H60c-33.078 0-60 26.887-60 59.95V420.05C0 453.1 26.922 480 60 480h392c33.078 0 60-26.898 60-59.95V140.34c0-33.059-26.922-59.95-60-59.95zM166 59.95C166 37.921 183.941 20 206 20h100c22.059 0 40 17.922 40 39.95v20.44H166zM20 139.87c0-22.031 17.941-39.95 40-39.95h18.672a50.157 50.157 0 0 1 1.098 10.45c0 21.328-19.532 39.457-40.93 46.64-6.27 2.098-12.7 3.259-18.84 3.29zM78.672 460H60c-22.059 0-40-17.922-40-39.95v-20.44c27.129.12 59.77 22.35 59.77 49.94 0 3.528-.372 7.028-1.098 10.45zM492 420.05c0 22.028-17.941 39.95-40 39.95h-18.672a50.296 50.296 0 0 1-1.098-10.45c0-12.44 6.7-24.73 18.88-34.62 11.75-9.54 27.019-15.258 40.89-15.32zm0-40.421c-18.59.09-38.078 7.25-53.5 19.781-8.469 6.871-15.04 14.77-19.488 23.262-4.453 8.488-6.782 17.59-6.782 26.879 0 3.52.258 7 .782 10.449H98.988c.524-3.45.782-6.93.782-10.45 0-18.581-9.329-36.39-26.27-50.14C58.078 386.88 38.59 379.72 20 379.63V180.78c8.559-.031 16.781-1.601 24.36-4.46h.011c10.41-3.36 20.41-8.743 29.129-15.81 16.941-13.761 26.27-31.57 26.27-50.14 0-3.36-.239-6.691-.711-9.98H412.94a70.13 70.13 0 0 0-.71 9.98c0 18.57 9.328 36.379 26.269 50.14 15.43 12.528 34.922 19.739 53.5 19.798zm0-219.328c-13.871-.063-29.14-5.781-40.89-15.32-6.09-4.942-10.81-10.481-14.008-16.352-3.204-5.86-4.872-12.05-4.872-18.258 0-3.383.34-6.71 1.008-9.98.024-.16.063-.313.09-.47H452c21.871 0 39.691 17.618 39.988 39.388.012.191.012.37.012.562zm0 0"/></svg>