<svg height="511pt" viewBox="-26 1 511 512" width="511pt" xmlns="http://www.w3.org/2000/svg"><path d="M231.656 502c240.649-42.137 226.106-206.39 212.328-260.523-2.48-9.743-6.48-19.008-11.543-27.7-16-27.464-44.515-118.336 4.747-167.492-66.383-9.406-129.41-22.957-167.758-31.906a167.98 167.98 0 0 0-75.688-.172C154.676 23.157 90.211 36.82 23.41 46.285c49.262 49.156 20.746 140.028 4.746 167.496-5.062 8.688-9.062 17.953-11.543 27.696C2.84 295.609-8.988 459.863 231.656 502zm0 0" fill="#805333"/><path d="M226.8 444.754c175.016-30.645 164.595-159.95 154.575-199.32-1.8-7.082-5.598-13.387-8.39-20.145-14.383-34.77-35.387-63.039-18.551-137.812-49.032-10.063-95.692-19.91-127.633-22.329-31.942 2.418-78.57 12.266-127.598 22.329 16.836 74.773-4.168 103.043-18.55 137.812-2.794 6.758-6.59 13.063-8.391 20.145-10.024 39.37-20.477 168.675 154.539 199.32zm0 0" fill="#894d25"/><g fill="#ffea77"><path d="M226.8 95.98l21.122 42.793 47.23 6.864-34.175 33.312 8.066 47.035-42.242-22.207-42.242 22.207 8.066-47.035-34.176-33.312 47.23-6.864zm0 0M117.77 266.27l31.289 10.609 26.48-19.758-.422 33.035 26.977 19.078-31.551 9.809-9.809 31.55-19.078-26.976-33.035.422 19.762-26.48zm0 0M334.43 266.27l-10.614 31.289 19.762 26.48-33.039-.422-19.078 26.977-9.805-31.551-31.554-9.809 26.976-19.078-.422-33.035 26.48 19.758zm0 0"/></g><path d="M231.656 512c-.574 0-1.152-.05-1.722-.148-95.121-16.657-161.93-53.82-198.57-110.465C-12.43 333.684 1.581 259.984 6.921 239.012c2.594-10.196 6.832-20.38 12.59-30.266 8.125-13.95 18.093-42.27 20.785-71.496 4.18-45.41-10.719-70.68-23.953-83.883a10.007 10.007 0 0 1-2.422-10.246 10.009 10.009 0 0 1 8.086-6.738c65.265-9.246 128.195-22.465 169.5-31.922 26.226-6.008 53.96-5.945 80.195.18 40.293 9.402 101.953 22.543 166.887 31.746a10.003 10.003 0 0 1 5.664 16.98C431.02 66.57 416.12 91.84 420.3 137.25c2.687 29.227 12.656 57.547 20.781 71.496 5.762 9.89 10 20.07 12.594 30.266 3.25 12.765 8.394 38.883 6.363 70.343-2.234 34.586-12.344 65.997-30.047 93.364-36.16 55.902-102.308 92.62-196.61 109.133-.57.097-1.148.148-1.726.148zM42.312 53.61c14.876 22.218 21.04 51.37 17.903 85.472-2.985 32.43-13.91 63.41-23.418 79.73-4.824 8.286-8.356 16.739-10.488 25.133-4.832 18.989-17.543 85.68 21.851 146.582 33.274 51.442 95.012 85.528 183.496 101.317 87.668-15.645 148.742-49.281 181.54-99.985 39.116-60.472 26.034-128.504 21.097-147.914-2.137-8.394-5.668-16.847-10.492-25.129-9.504-16.32-20.434-47.304-23.418-79.734-3.137-34.102 3.031-63.258 17.906-85.477-59.113-9.058-114.078-20.84-151.133-29.488-23.289-5.437-47.902-5.492-71.183-.16-37.977 8.7-94.094 20.547-153.66 29.652zm0 0"/><path d="M226.8 454.754c-.577 0-1.155-.05-1.726-.149-67.531-11.824-115.605-39.203-142.883-81.375C46.145 317.5 59.52 254.941 62.566 242.97c1.43-5.621 3.739-10.485 5.973-15.188 1.035-2.183 2.02-4.25 2.871-6.312 2.07-5.008 4.285-9.903 6.422-14.637 13.043-28.848 25.36-56.098 11.613-117.156a9.994 9.994 0 0 1 1.356-7.621 9.986 9.986 0 0 1 6.39-4.371l8.66-1.782c46.028-9.46 89.504-18.398 120.192-20.726a10.847 10.847 0 0 1 1.512 0c30.73 2.328 74.3 11.285 120.425 20.77l8.461 1.738a9.996 9.996 0 0 1 6.391 4.37 9.994 9.994 0 0 1 1.355 7.622c-13.746 61.062-1.43 88.308 11.614 117.156 2.137 4.734 4.351 9.629 6.422 14.637.851 2.062 1.832 4.129 2.87 6.312 2.235 4.703 4.544 9.567 5.973 15.188 3.047 11.968 16.418 74.504-19.636 130.242-27.285 42.184-75.364 69.57-142.907 81.394-.57.098-1.148.149-1.722.149zm-115.757-359.5c11.691 60.808-1.856 90.781-14.98 119.816-2.172 4.801-4.22 9.332-6.168 14.043-1.047 2.532-2.188 4.93-3.286 7.246-1.906 4.016-3.707 7.809-4.66 11.54-2.687 10.562-14.496 65.718 17.04 114.468 23.906 36.961 66.902 61.254 127.812 72.23 60.918-10.976 103.926-35.28 127.84-72.25 31.539-48.757 19.73-103.89 17.043-114.445-.95-3.734-2.75-7.527-4.657-11.543-1.101-2.316-2.238-4.714-3.285-7.246-1.949-4.71-3.996-9.242-6.168-14.043-13.125-29.035-26.672-59.008-14.984-119.816C298 86.086 255.94 77.48 226.8 75.176c-29.14 2.304-71.187 10.914-115.757 20.078zm0 0"/><path d="M269.043 235.984a9.972 9.972 0 0 1-4.652-1.148l-37.59-19.762-37.59 19.762a9.994 9.994 0 0 1-10.531-.762 9.991 9.991 0 0 1-3.98-9.781l7.179-41.852-30.41-29.644c-2.727-2.656-3.707-6.629-2.531-10.25s4.304-6.258 8.074-6.809l42.023-6.105 18.797-38.078a10 10 0 0 1 8.969-5.578 10.01 10.01 0 0 1 8.969 5.578l18.792 38.078 42.028 6.105c3.77.551 6.898 3.188 8.074 6.809a9.997 9.997 0 0 1-2.531 10.25l-30.41 29.644 7.175 41.852a10 10 0 0 1-9.855 11.691zm-42.242-42.207c1.597 0 3.195.383 4.652 1.149l24.309 12.777-4.645-27.062a10.017 10.017 0 0 1 2.875-8.856l19.668-19.168-27.176-3.945a10.009 10.009 0 0 1-7.53-5.473L226.8 118.574 214.648 143.2a10.009 10.009 0 0 1-7.53 5.473l-27.177 3.945 19.664 19.168a9.996 9.996 0 0 1 2.875 8.856l-4.64 27.062 24.305-12.777a10 10 0 0 1 4.656-1.149zm0 0M160.734 360.594a9.997 9.997 0 0 1-8.164-4.227l-16.043-22.683-27.78.355c-3.837.078-7.31-2.066-9.04-5.46a10 10 0 0 1 .898-10.52l16.618-22.266-8.926-26.313a9.998 9.998 0 0 1 2.402-10.28 9.992 9.992 0 0 1 10.281-2.403l26.313 8.922 22.266-16.614a10.007 10.007 0 0 1 10.523-.898 10.002 10.002 0 0 1 5.457 9.04l-.355 27.78 22.683 16.043a9.997 9.997 0 0 1-2.804 17.711l-26.532 8.25-8.246 26.531a10.004 10.004 0 0 1-9.55 7.032zm-19.078-46.977c3.246 0 6.29 1.57 8.168 4.227l7.375 10.43 3.793-12.2a9.995 9.995 0 0 1 6.582-6.582l12.2-3.793-10.43-7.375a10.004 10.004 0 0 1-4.227-8.293l.164-12.777-10.242 7.644a9.991 9.991 0 0 1-9.191 1.454l-12.102-4.102 4.106 12.098a10.002 10.002 0 0 1-1.457 9.195l-7.641 10.238 12.777-.164zm0 0M291.465 360.594a10.003 10.003 0 0 1-9.555-7.031l-8.246-26.532-26.531-8.25a9.997 9.997 0 0 1-2.805-17.715l22.684-16.039-.356-27.78a10.012 10.012 0 0 1 5.461-9.04 10 10 0 0 1 10.52.898l22.265 16.614 26.313-8.922a9.999 9.999 0 0 1 10.285 2.402 9.997 9.997 0 0 1 2.398 10.281l-8.921 26.313 16.617 22.266a10 10 0 0 1 .894 10.52 9.949 9.949 0 0 1-9.039 5.46l-27.781-.355-16.04 22.683a10.008 10.008 0 0 1-8.163 4.227zm-19.043-54.895l12.203 3.793a9.997 9.997 0 0 1 6.578 6.582l3.793 12.2 7.379-10.43a10 10 0 0 1 8.164-4.227h.129l12.777.164-7.64-10.242a9.993 9.993 0 0 1-1.457-9.191l4.101-12.102-12.097 4.106a10.002 10.002 0 0 1-9.196-1.457l-10.238-7.641.164 12.777c.043 3.29-1.539 6.39-4.227 8.293zm0 0M226.8 379.652c-5.523 0-10.003-4.476-10.003-10v-30c0-5.523 4.48-10 10.004-10 5.52 0 10 4.477 10 10v30c0 5.524-4.48 10-10 10zm0 0M226.82 414.656c-5.523 0-10.007-4.48-10.007-10 0-5.523 4.472-10.004 9.996-10.004h.011c5.524 0 10 4.48 10 10.004s-4.476 10-10 10zm0 0"/></svg>