<svg height="512pt" viewBox="-100 0 512 512" width="512pt" xmlns="http://www.w3.org/2000/svg"><path d="M235.41 502l-80-60.055-80 60.055V159.156h160zm0 0" fill="#ea4253"/><path d="M302 156.125C302 75.422 236.633 10 156 10S10 75.422 10 156.125 75.367 302.25 156 302.25s146-65.422 146-146.125zm0 0" fill="#ffea77"/><path d="M252 156.125c0-53.063-42.98-96.082-96-96.082s-96 43.02-96 96.082c0 53.066 42.98 96.082 96 96.082s96-43.016 96-96.082zm0 0" fill="#fff"/><path d="M184.297 119.55c4.828 8.376-7.828 24.75-28.297 36.579-20.355 11.762-40.762 14.582-45.723 6.367l-.074-.129c-4.832-8.383 7.84-24.754 28.297-36.578 20.469-11.824 40.96-14.617 45.797-6.238zm0 0" fill="#757679"/><path d="M184.297 119.55l17.5 30.34c4.828 8.372-7.828 24.747-28.297 36.575-20.46 11.82-40.969 14.613-45.797 6.238l-17.426-30.207c4.961 8.215 25.364 5.395 45.723-6.367 20.469-11.828 33.125-28.203 28.297-36.578zm0 0" fill="#595959"/><path d="M156 0C69.98 0 0 70.04 0 156.129c0 52.3 25.84 98.691 65.41 127.031V502c0 3.79 2.14 7.25 5.531 8.95a10.007 10.007 0 0 0 10.47-.95l74-55.55 74 55.55a10.006 10.006 0 0 0 10.468.95 10.01 10.01 0 0 0 5.531-8.95V284C285.648 255.73 312 208.95 312 156.129 312 70.039 242.02 0 156 0zm69.41 481.988l-60-45.039V419c0-5.52-4.48-10-10-10s-10 4.48-10 10v17.95l-60 45.038v-186.66c21.211 10.82 45.2 16.922 70.59 16.922 24.918 0 48.5-5.879 69.41-16.32zm20-223.367a136.617 136.617 0 0 1-20 14.527c-20.332 12.133-44.07 19.102-69.41 19.102-25.832 0-50-7.25-70.59-19.809a136.418 136.418 0 0 1-20-14.87C37.56 232.628 20 196.39 20 156.128 20 81.07 81.012 20 156 20s136 61.07 136 136.129c0 40.832-18.05 77.52-46.59 102.492zm0 0"/><path d="M156 262.207c-58.45 0-106-47.586-106-106.082C50 97.633 97.55 50.043 156 50.043s106 47.59 106 106.082c0 58.496-47.55 106.082-106 106.082zm0-192.164c-47.422 0-86 38.617-86 86.082 0 47.469 38.578 86.082 86 86.082 47.418 0 86-38.613 86-86.082 0-47.465-38.582-86.082-86-86.082zm0 0"/><path d="M210.46 144.89l-17.28-29.94-.211-.372c0-.008-.008-.02-.008-.02-19.941-33.269-110.613 19.493-91.41 52.82l.07.11.149.25 17.27 29.961c19.288 33.52 110.647-19.383 91.42-52.808zm-82.82 11.739c-2.226.414-4.617.71-6.878.562-.172 0-.332-.023-.492-.043a5.265 5.265 0 0 1-.442-.046c-.129-.02-.258-.04-.387-.063v-.008c5.848-16.77 38.153-35.46 55.61-32.152h.008a.667.667 0 0 0-.028.082c-.011.02-.011.039-.031.07a2.35 2.35 0 0 1-.102.258c-.082.23-.183.453-.296.672-.07.16-.16.34-.262.52-6.586 13.16-24.535 23.066-37.68 27.687-2.629 1.055-5.476 1.773-8.25 2.312-.262.06-.52.11-.77.149-.269.05.25-.04 0 0zm40.86 21.18c-16.73 9.66-29.36 10.55-32.469 9.312l-6.113-10.59c9.508-1.547 18.875-5.113 27.32-9.672 6.637-3.293 13.172-7.64 18.782-12.488.48-.39.953-.789 1.421-1.191.672-.618 1.403-1.192 2.047-1.84.422-.38.832-.77 1.242-1.172.098-.09.2-.18.301-.29.43-.41.848-.827 1.27-1.257a.697.697 0 0 0 .117-.121c.3-.3.602-.602.883-.91a58.518 58.518 0 0 0 1.93-2.13c.328-.358.648-.73.949-1.1.09-.102.18-.212.261-.32.09-.099.18-.212.258-.31l6.102 10.57c-.473 3.321-7.551 13.829-24.301 23.509-16.73 9.66 16.75-9.68 0 0zm0 0M155.43 393.848c-5.524 0-10.004-4.477-10.004-10 0-5.52 4.472-10 9.992-10h.012c5.523 0 10 4.48 10 10 0 5.523-4.477 10-10 10zm0 0"/></svg>