<svg height="511pt" viewBox="-45 0 511 511.999" width="511pt" xmlns="http://www.w3.org/2000/svg"><path d="M210.816 502.758c-88.132 0-160.238-157.422-160.238-236.371v-90.914c0-78.95 72.106-143.543 160.238-143.543 88.137 0 160.243 64.593 160.243 143.543v90.914c0 78.949-72.11 236.37-160.243 236.37zm0 0" fill="#fff"/><g fill="#595959"><path d="M311.375 277.36h-30.047c-27.539 0-50.074-22.532-50.074-50.075v-2.02c0-11.062 8.969-20.03 20.031-20.03h60.09c5.531 0 10.016 4.484 10.016 10.015v52.094a10.013 10.013 0 0 1-10.016 10.015zm0 0M110.07 277.36h30.047c27.54 0 50.074-22.532 50.074-50.075v-2.02c0-11.062-8.968-20.03-20.03-20.03h-60.09c-5.532 0-10.016 4.484-10.016 10.015v52.094a10.013 10.013 0 0 0 10.015 10.015zm0 0M170.758 10.016h80.12V80.14h-80.12zm0 0M371.059 186.2h40.062v70.124H371.06zm0 0M10.516 186.2h40.058v70.124H10.516zm0 0"/></g><path d="M311.375 287.375h-30.043c-33.137 0-60.094-26.957-60.094-60.09v-2.023c0-16.567 13.48-30.043 30.047-30.043h60.09c11.047 0 20.031 8.984 20.031 20.027v52.098c0 11.047-8.984 20.031-20.031 20.031zm-60.09-72.125c-5.523 0-10.015 4.492-10.015 10.016v2.02c0 22.089 17.972 40.062 40.062 40.062h30.043c.012 0 .016-.004.016-.004l-.016-52.094zm0 0M140.117 287.375H110.07c-11.043 0-20.027-8.984-20.027-20.031v-52.098c0-11.043 8.984-20.027 20.027-20.027h60.094c16.566 0 30.043 13.476 30.043 30.043v2.023c0 33.133-26.957 60.09-60.09 60.09zM110.07 215.25v52.098h30.047c22.09 0 40.063-17.973 40.063-40.063v-2.02c0-5.523-4.496-10.015-10.016-10.015zm0 0"/><path d="M411.121 176.188h-30.047v-.711c0-68.965-50.668-127.454-120.18-146.786V10.016C260.895 4.488 256.407 0 250.88 0h-80.121c-5.531 0-10.016 4.488-10.016 10.016V28.69C91.227 48.023 40.56 106.511 40.56 175.477v.71H10.516C4.988 176.188.5 180.673.5 186.2v70.13c0 5.526 4.488 10.015 10.016 10.015h30.043v.039c0 42.535 15.046 85.918 33.101 123.894 18.93 39.817 45.149 80.547 82.832 104.973 77.594 50.293 147.692-22.55 182.977-88.156 22.672-42.149 41.605-92.211 41.605-140.711v-.04h30.047c5.527 0 10.012-4.488 10.012-10.015V186.2c0-5.527-4.485-10.012-10.012-10.012zM40.56 246.313H20.53v-50.098H40.56zM180.773 20.03h60.09v50.094h-60.09zm180.27 246.352c0 63.863-33.273 136.031-74.691 183.414-19.075 21.82-45.043 42.953-75.536 42.945-45.515-.008-80.386-44.11-101.914-79.273C82.734 370.73 60.59 317.285 60.59 266.383v-90.906c0-59.551 45.207-108.54 100.152-125.891V80.14c0 5.527 4.485 10.015 10.016 10.015h80.12c5.528 0 10.017-4.488 10.017-10.015V49.586c54.94 17.352 100.148 66.336 100.148 125.89zm40.062-20.07h-20.03v-50.098h20.03zm0 0"/><path d="M210.836 187.2c-12.856 0-12.887-20.032-.008-20.032h.008c12.86 0 12.879 20.031 0 20.031zm0 0M230.867 147.129c-12.86 0-12.887-20.031-.012-20.031h.012c12.86 0 12.88 20.03 0 20.03zm0 0M190.809 147.129c-12.86 0-12.891-20.031-.012-20.031h.012c12.859 0 12.875 20.03 0 20.03zm0 0M230.867 457.676c-12.86 0-12.887-20.028-.012-20.028h.012c12.86 0 12.88 20.028 0 20.028zm0 0M190.809 457.676c-12.86 0-12.891-20.028-.012-20.028h.012c12.859 0 12.875 20.028 0 20.028zm0 0M230.867 417.605c-12.86 0-12.887-20.027-.012-20.027h.012c12.86 0 12.88 20.027 0 20.027zm0 0M190.809 417.605c-12.86 0-12.891-20.027-.012-20.027h.012c12.859 0 12.875 20.027 0 20.027zm0 0M230.867 377.535c-12.86 0-12.887-20.031-.012-20.031h.012c12.86 0 12.88 20.031 0 20.031zm0 0M190.809 377.535c-12.86 0-12.891-20.031-.012-20.031h.012c12.859 0 12.875 20.031 0 20.031zm0 0M230.867 337.465c-12.86 0-12.887-20.031-.012-20.031h.012c12.86 0 12.88 20.03 0 20.03zm0 0M190.809 337.465c-12.86 0-12.891-20.031-.012-20.031h.012c12.859 0 12.875 20.03 0 20.03zm0 0M150.746 357.5c-12.86 0-12.887-20.031-.008-20.031h.008c12.86 0 12.879 20.031 0 20.031zm0 0M130.715 397.57c-12.856 0-12.887-20.03-.008-20.03h.008c12.86 0 12.879 20.03 0 20.03zm0 0M270.93 357.5c-12.86 0-12.89-20.031-.012-20.031h.012c12.86 0 12.875 20.031 0 20.031zm0 0M290.957 397.57c-12.855 0-12.887-20.03-.008-20.03h.008c12.86 0 12.879 20.03 0 20.03zm0 0"/></svg>