<svg xmlns="http://www.w3.org/2000/svg" viewBox="0 0 460 460"><path fill="#59595a" d="M24.262 0h411.476v150.82H24.262z"/><path fill="#90c5ff" d="M61.967 37.705h336.066v75.41H61.967z"/><path fill="#d8d9dd" d="M24.262 150.82h411.476V460H24.262z"/><path fill="#abcb57" d="M61.967 188.525h149.181V290.8H61.967zM248.852 188.525h149.181V290.8H248.852zM61.967 320.02h149.181v102.275H61.967zM248.852 320.02h149.181v102.275H248.852z"/><path d="M159.222 232.176v14.972h-14.278v15.665h-16.635v-15.665h-14.417v-14.972h14.417v-15.665h16.635v15.665h14.278zM302.441 248.049v-16.773h42.004v16.773h-42.004zM162.411 385.228l-11.783 11.506-14.278-14.278-14.278 14.278-11.367-11.645 14.001-14.14-13.586-13.724 11.783-11.507 13.586 13.586 13.724-13.725 11.367 11.646-13.585 13.724 14.416 14.279zM295.51 378.574v-14.833h55.866v14.833H295.51zm20.1-24.259v-17.744h15.664v17.744H315.61zm0 51.43v-17.883h15.664v17.883H315.61zM273.131 100.989c0-13.163 3.272-18.927 13.021-23.693 6.119-2.988 12.808-5.194 12.808-11.883 0-4.269-2.704-6.973-7.4-6.973-5.407 0-9.747 3.344-12.237 6.048l-5.978-6.261c2.562-2.989 9.393-8.396 19.425-8.396 11.028 0 17.005 6.333 17.005 15.44 0 8.68-5.763 12.309-12.451 15.725-7.115 3.557-10.744 6.475-10.744 11.384h23.267v8.609h-36.716zM339.946 71.888v7.684h-7.328v8.04h-8.538v-8.04h-7.4v-7.684h7.4v-8.041h8.538v8.041h7.328zM376.022 92.38v8.609h-28.674V92.38h9.89V59.508c-1.564 2.206-7.684 6.119-11.526 6.119v-8.823c5.123 0 11.385-6.546 11.526-6.83h9.748V92.38h9.036z" fill="#fff"/><path opacity=".3" fill="#5b5b5f" d="M230 0h205.738v460H230z"/></svg>