<svg height="496pt" viewBox="-24 0 496 496" width="496pt" xmlns="http://www.w3.org/2000/svg"><path d="M440 44.96v.4c0 1.761-.32 3.44-1.04 5.12L425.923 80.88c-6.48 15.043-17.442 27.68-31.442 36.082-12.082 7.2-25.921 11.039-40 11.039H328l-.48-.078c.32-3.203.48-6.48.48-9.684 0-12.238-2.398-24.238-7.04-35.36-1.839-4.398-4-8.64-6.48-12.718l7.04-5.281A84.101 84.101 0 0 1 372.078 48c13.121 0 26-3.04 37.684-8.879l11.52-5.762A12.977 12.977 0 0 1 427.038 32C434.24 32 440 37.762 440 44.96zm0 0M126.48 64.879l7.04 5.281A92.018 92.018 0 0 0 120 118.238c0 3.203.16 6.48.48 9.684L120 128H93.52c-14.079 0-27.918-3.84-40-11.04-14-8.401-24.961-21.038-31.442-36.081L9.04 50.48A12.763 12.763 0 0 1 8 45.36v-.4C8 37.763 13.762 32 20.96 32c2 0 4 .48 5.759 1.36l11.52 5.761A84.207 84.207 0 0 0 75.921 48c18.238 0 36 5.922 50.558 16.879zm0 0" fill="#838f9b"/><path d="M319.922 256c.078.64.078 1.2.078 1.84 0 14.48-3.922 28.719-11.36 41.12L296 320v-.398c0-10.961-4.48-20.801-11.602-28-7.199-7.122-17.039-11.602-28-11.602a39.608 39.608 0 0 0-28 11.602L224 296l-4.398-4.398a39.608 39.608 0 0 0-28-11.602c-8.801 0-16.961 2.879-23.524 7.762l15.203-34.16C194.321 228.8 200 202 200 174.8c0-25.602-5.04-50.961-14.96-74.64L160 40l9.36-9.36a76.843 76.843 0 0 1 25.038-16.718C203.68 10.078 213.762 8 224 8c20.48 0 40.16 8.16 54.64 22.64l22.32 22.32c1.04 1.04 2 2.08 2.962 3.118L272.238 83.2C256.878 96.4 248 115.68 248 135.922c0 14.476 4.48 28.156 12.32 39.52 7.918 11.359 19.2 20.398 32.72 25.437L312 208h.238c.48 7.84 1.684 15.602 3.524 23.121l1.84 7.36c1.437 5.757 2.238 11.597 2.32 17.519zm0 0" fill="#e6e9ed"/><path d="M368 424.48l3.281 1.282-.082.238C363.84 445.84 360 466.8 360 488H88c0-11.922-1.2-23.762-3.602-35.36C109.762 444.16 128 420.239 128 392c0-18.078-7.52-34.32-19.602-46-3.52-3.441-5.437-8.32-4.718-13.281 1.039-7.84-.32-16.399-7.121-26.16-1.918-2.797-4.16-5.36-6.637-7.68l-1.684-1.277a114.971 114.971 0 0 1 11.203-13.043L128 256h.078c-.078.64-.078 1.2-.078 1.84 0 14.48 3.922 28.719 11.36 41.12L152 320c.238 13.281 11.121 24 24.398 24h95.204a23.987 23.987 0 0 0 17.199-7.2c4.398-4.32 7.12-10.241 7.199-16.8l12.64-21.04c7.438-12.401 11.36-26.64 11.36-41.12 0-.64 0-1.2-.078-1.84H320l28.559 28.559c4.64 4.64 8.8 9.52 12.562 14.8l-1.121.801c-19.281 12.88-32 34.88-32 59.84 0 28.238 16.32 52.719 40 64.48zm0 0" fill="#e6e9ed"/><path d="M133.52 70.16c3.761-6.16 8.32-12 13.52-17.2L160 40l25.04 60.16C194.96 123.84 200 149.2 200 174.8c0 27.2-5.68 54-16.719 78.802l-15.203 34.16c-1.598 1.199-3.117 2.476-4.476 3.84-7.122 7.199-11.602 17.039-11.602 28V320l-12.64-21.04C131.921 286.56 128 272.32 128 257.84c0-.64 0-1.2.078-1.84.082-5.922.883-11.762 2.32-17.52l1.84-7.359c2.48-10 3.762-20.32 3.762-30.723 0-16.078-3.04-32.078-9.04-47.039l-.32-.879c-3.199-7.921-5.28-16.16-6.16-24.558-.32-3.203-.48-6.48-.48-9.684a92.018 92.018 0 0 1 13.52-48.078zm0 0M312 200.398c0 2.563.078 5.122.238 7.602H312l-18.96-7.121c-13.52-5.04-24.802-14.078-32.72-25.438-7.84-11.363-12.32-25.043-12.32-39.52 0-20.241 8.879-39.523 24.238-52.722l31.684-27.12c4 4.401 7.52 9.12 10.558 14.081a94.967 94.967 0 0 1 6.48 12.719C325.603 94 328 106 328 118.239c0 3.202-.16 6.48-.48 9.683-.88 8.398-2.961 16.637-6.16 24.558l-.32.88c-6 14.96-9.04 30.96-9.04 47.038zm0 0" fill="#aab2bd"/><path d="M384 370.078c0 14.48-2.64 28.883-7.68 42.48l-5.039 13.204L368 424.48c-23.68-11.761-40-36.242-40-64.48 0-24.96 12.719-46.96 32-59.84l1.121-.8c5.52 7.6 10.078 15.84 13.68 24.48 6 14.48 9.199 30.238 9.199 46.238zm0 0M96.559 306.559c6.8 9.761 8.16 18.32 7.12 26.16-.718 4.96 1.2 9.84 4.72 13.281C120.48 357.68 128 373.922 128 392c0 28.238-18.238 52.16-43.602 60.64-1.84-9.038-4.398-17.921-7.597-26.64l-5.121-13.441c-5.04-13.598-7.68-28-7.68-42.48 0-26.317 8.559-51.68 24.238-72.477l1.684 1.277c2.476 2.32 4.719 4.883 6.637 7.68zm0 0" fill="#969faa"/><path d="M256.398 280c10.961 0 20.801 4.48 28 11.602 7.122 7.199 11.602 17.039 11.602 28V320c-.078 6.559-2.8 12.48-7.2 16.8a23.987 23.987 0 0 1-17.198 7.2h-95.204c-13.277 0-24.16-10.719-24.398-24v-.398c0-10.961 4.48-20.801 11.602-28 1.359-1.364 2.878-2.641 4.476-3.84 6.563-4.883 14.723-7.762 23.524-7.762a39.608 39.608 0 0 1 28 11.602L224 296l4.398-4.398a39.608 39.608 0 0 1 28-11.602zm0 0" fill="#b27946"/><path d="M176 304h16v16h-16zm0 0M256 304h16v16h-16zm0 0M160 144h16v16h-16zm0 0M272 144h16v16h-16zm0 0"/><path d="M427.055 24c-3.23 0-6.48.77-9.368 2.207l-11.472 5.738A76.655 76.655 0 0 1 372.105 40c-19.847 0-39.511 6.55-55.378 18.457l-.391.297c-2.961-3.992-6.129-7.86-9.711-11.441l-22.344-22.336C268.176 8.863 246.777 0 224 0s-44.176 8.863-60.281 24.977l-22.344 22.335c-3.574 3.575-6.75 7.442-9.71 11.442l-.384-.29C115.414 46.552 95.754 40 75.895 40a76.687 76.687 0 0 1-34.118-8.055l-11.465-5.738A21.164 21.164 0 0 0 20.945 24C9.398 24 0 33.39 0 45.344c0 2.84.566 5.617 1.695 8.25l13.059 30.46c7.148 16.665 19.14 30.41 34.68 39.731A85.659 85.659 0 0 0 93.52 136h20.105c1.191 6.633 3.008 13.145 5.543 19.465l.336.847A118.065 118.065 0 0 1 128 200.399c0 9.68-1.191 19.372-3.535 28.793l-1.832 7.313c-1.305 5.191-1.961 10.512-2.297 15.84L93.754 278.93C69.406 303.28 56 335.648 56 370.078c0 15.508 2.762 30.73 8.2 45.266l5.073 13.504A167.879 167.879 0 0 1 80 488v8h288v-8c0-20.273 3.61-40.176 10.727-59.152l5.074-13.512A128.711 128.711 0 0 0 392 370.078c0-34.43-13.406-66.797-37.754-91.14l-26.582-26.586c-.336-5.336-.992-10.649-2.297-15.84l-1.824-7.32A118.92 118.92 0 0 1 320 200.397c0-15.168 2.855-30 8.496-44.093l.336-.832c2.527-6.328 4.344-12.84 5.543-19.473h20.105a85.686 85.686 0 0 0 44.094-12.215c15.54-9.32 27.531-23.058 34.684-39.73l13.062-30.47c1.114-2.624 1.68-5.401 1.68-8.64C448 33.391 438.602 24 427.055 24zM224 16c18.496 0 35.887 7.2 48.969 20.29l19.261 19.26-25.207 21.61A77.285 77.285 0 0 0 240 135.91c0 32.074 20.176 61.195 50.207 72.465l14.52 5.45c.648 6.48 1.714 12.917 3.296 19.245l1.832 7.32A72.556 72.556 0 0 1 312 257.849a71.935 71.935 0 0 1-10.258 37.03l-2.484 4.145c-7.7-15.96-23.985-27.023-42.86-27.023-12.125 0-23.558 4.504-32.398 12.727-8.832-8.223-20.273-12.727-32.406-12.727-2.754 0-5.434.29-8.051.734l7.043-15.847c11.559-26 17.414-53.614 17.414-82.07 0-26.825-5.223-52.977-15.543-77.72l-23.008-55.226 5.582-5.582C188.113 23.2 205.504 16 224 16zm-32.398 272c8.437 0 16.367 3.29 22.335 9.258l10.07 10.055 10.048-10.055c5.968-5.969 13.906-9.258 22.343-9.258C273.824 288 288 302.176 288 319.602c0 9.039-7.36 16.398-16.406 16.398h-95.196C167.36 336 160 328.64 160 319.602 160 302.176 174.176 288 191.602 288zM152.687 58.625l4.52-4.52 20.48 49.141c9.497 22.785 14.313 46.867 14.313 71.57 0 26.207-5.398 51.641-16.04 75.575l-14.35 32.297c-5.419 4.41-9.801 9.992-12.868 16.343l-2.484-4.144A71.983 71.983 0 0 1 136 257.847c0-5.87.727-11.742 2.152-17.464l1.832-7.32A135.098 135.098 0 0 0 144 200.398c0-17.207-3.238-34.039-9.633-50.015l-.336-.856c-4-10-6.031-20.527-6.031-31.304 0-22.512 8.77-43.672 24.688-59.598zM93.52 120a69.623 69.623 0 0 1-35.856-9.938c-12.64-7.582-22.398-18.757-28.207-32.308l-13.05-30.457c-.27-.625-.407-1.281-.407-2.352-.008-3.496 4.055-6 7.16-4.425l11.473 5.738C47.375 52.633 61.648 56 75.895 56c16.41 0 32.664 5.414 45.785 15.266l1.449 1.078C115.887 86.367 112 101.992 112 118.223c0 .593.07 1.175.078 1.777zM79.184 409.719C74.426 396.992 72 383.656 72 370.079c0-21.52 6.078-42.063 17.238-59.84.25.327.563.577.793.913 4.864 6.97 6.68 13.48 5.703 20.496-1.023 7.313 1.649 14.84 7.137 20.137C113.921 362.441 120 376.72 120 392a55.958 55.958 0 0 1-30.04 49.633c-1.616-6.2-3.433-12.36-5.694-18.41zm289.632-.008l-1.855 4.937C347.793 403.09 336 382.68 336 360c0-19.152 8.559-37.047 23.121-49.16C370.047 328.48 376 348.8 376 370.078a112.76 112.76 0 0 1-7.184 39.633zM349.824 297.84C331.09 312.977 320 335.664 320 360c0 29.45 15.887 55.871 41.512 69.969-5.383 16.215-8.61 32.969-9.344 50.031H312v-4c0-14.617-4.832-29.105-13.602-40.8C291.695 426.257 288 415.175 288 404v-12h-16v12c0 14.617 4.832 29.105 13.602 40.8C292.305 453.743 296 464.825 296 476v4H152v-4c0-11.176 3.695-22.258 10.398-31.2C171.176 433.106 176 418.618 176 404v-12h-16v12c0 11.176-3.695 22.258-10.398 31.2C140.824 446.894 136 461.382 136 476v4H95.832c-.32-7.496-1.238-14.91-2.465-22.281C119.113 446.239 136 420.649 136 392c0-19.664-7.824-38.031-22.016-51.727-1.816-1.753-2.71-4.152-2.398-6.41 1.543-11.101-1.211-21.527-8.441-31.87a57.025 57.025 0 0 0-4.082-5.138c1.93-2.246 3.874-4.488 5.992-6.609l16.562-16.559c1.895 10.344 5.461 20.336 10.918 29.426l11.778 19.63C145.93 339.12 159.608 352 176.398 352h95.196c16.789 0 30.476-12.879 32.086-29.258l11.777-19.629c5.453-9.082 9.023-19.082 10.918-29.425l16.563 16.558c2.43 2.434 4.71 4.984 6.886 7.594zM313.97 149.535l-.336.832c-5.906 14.778-9 30.297-9.45 46.145l-8.343-3.13C272.008 184.458 256 161.36 256 135.91a61.316 61.316 0 0 1 21.441-46.605l25.461-21.832C313.945 82.03 320 99.64 320 118.223a83.975 83.975 0 0 1-6.031 31.312zM431.602 47.29l-13.059 30.465c-5.816 13.55-15.566 24.726-28.207 32.308A69.643 69.643 0 0 1 354.48 120h-18.558c.008-.594.078-1.176.078-1.777 0-16.23-3.887-31.856-11.129-45.88l1.457-1.085C339.441 61.414 355.695 56 372.105 56a92.759 92.759 0 0 0 41.27-9.742l11.473-5.738c3.113-1.551 7.152.824 7.152 4.824 0 .672-.137 1.328-.398 1.945zm0 0"/></svg>