<svg height="496pt" viewBox="-14 0 495 496" width="496pt" xmlns="http://www.w3.org/2000/svg"><path d="M240.5 408c5.2 0 10.48-.32 15.602-.96 19.117-2 37.52-8 54-17.438a99.58 99.58 0 0 0 10-6.16l.398.558h63.04c9.198 0 17.839-2.96 24.882-8.16l.078.16-16.48 20.078a184.859 184.859 0 0 1-64 50.082c-22.16 10.48-46.48 16.64-71.52 17.602-2.559.16-5.2.238-7.762.238-8.078 0-16.078-.559-24-1.602C169.461 455.2 119.86 423.2 90.422 374.801l-4-6.563C77.3 353.2 72.5 335.922 72.5 318.32c0-18.96 5.602-37.52 16.16-53.28 20.719-31.2 31.84-67.759 31.84-105.2V139.2c0-6.481-3.762-12.4-9.762-14.72A194.938 194.938 0 0 1 75.461 106l-2.961-2V48l10.879-13.602A70.175 70.175 0 0 1 138.262 8c19.36 0 36.957 7.84 49.68 20.559C200.66 41.28 208.5 58.879 208.5 78.239v173.683c-18.719 5.277-35.68 16.156-47.84 31.84-18.082 23.199-19.601 46.476-11.2 66.558C163.22 383.68 204.02 408 240.5 408zm0 0" fill="#e6e9ed"/><path d="M376.5 320h80c-2.398 9.441-7.762 17.441-14.96 23.04-5.04 3.92-10.88 6.722-17.278 8-2.801.64-5.762.96-8.723.96h-62.48c.64-.719 1.203-1.52 1.761-2.238zm0 0" fill="#ccd1d9"/><path d="M415.54 352c2.96 0 5.92-.32 8.722-.96l.238.96a42.378 42.378 0 0 1-16.078 23.84c-7.043 5.2-15.684 8.16-24.883 8.16H320.5l-.398-.559A139.694 139.694 0 0 0 353.059 352zm0 0" fill="#ccd1d9"/><path d="M362.738 317.281c-8.879-1.761-17.277-4.883-25.117-9.203L336.5 310l-5.68 7.762c-5.12 7.039-10.8 13.52-17.039 19.36a138.965 138.965 0 0 1-26.883 20 134.918 134.918 0 0 1-38.398 15.116 137.813 137.813 0 0 1-32 3.762c-11.2 0-22.8-2.32-33.922-6.48-11.039-4.079-21.68-10.16-30.879-17.52l-2.238-1.68C163.219 383.68 204.02 408 240.5 408c5.2 0 10.48-.32 15.602-.96 19.117-2 37.52-8 54-17.438a99.58 99.58 0 0 0 10-6.16A139.694 139.694 0 0 0 353.059 352c.64-.719 1.203-1.52 1.761-2.238L376.5 320zm0 0" fill="#fcd770"/><path d="M208.5 251.922c8.8-2.64 18.078-3.922 27.441-3.922 11.758 0 23.2 2.32 33.758 6.719a88.223 88.223 0 0 1 28.64 19.12l19.282 19.282c5.918 5.918 12.719 10.957 20 14.957L336.5 310l-5.68 7.762c-5.12 7.039-10.8 13.52-17.039 19.36a138.965 138.965 0 0 1-26.883 20 134.918 134.918 0 0 1-38.398 15.116 137.813 137.813 0 0 1-32 3.762c-11.2 0-22.8-2.32-33.922-6.48-11.039-4.079-21.68-10.16-30.879-17.52l-2.238-1.68c-8.402-20.082-6.883-43.36 11.2-66.558 12.16-15.684 29.12-26.563 47.839-31.84zm0 0" fill="#ccd1d9"/><path d="M72.5 48v56H18.82C13.14 104 8.5 99.36 8.5 93.68c0-3.52 1.84-6.801 4.8-8.72zm0 0" fill="#fcd770"/><path d="M377.293 312l-13.016-2.602a80.005 80.005 0 0 1-41.015-21.949l-19.25-19.25C285.82 250.008 261.652 240 235.942 240c-6.594 0-13.075.762-19.442 1.937V78.238C216.5 35.098 181.395 0 138.262 0c-23.899 0-46.168 10.703-61.09 29.36l-10.07 12.577L9.094 78.191C3.707 81.551.5 87.351.5 93.703.5 103.793 8.707 112 18.797 112h51.277l.938.625a196.752 196.752 0 0 0 36.793 19.262c2.808 1.113 4.695 4.043 4.695 7.281v20.656c0 35.977-10.543 70.817-30.496 100.742-11.45 17.16-17.504 37.145-17.504 57.786 0 19.039 5.215 37.718 15.09 54.007l4.015 6.625c29.133 48.055 78.286 80.77 132.895 90.16V496h16v-24.785c5.305.457 10.633.77 16 .777V496h16v-24.703c52.168-4.219 100.258-29.2 133.742-70.129l16.188-19.777c7.672-5.985 13.437-14.27 16.62-23.918 16.122-5.243 28.915-18.368 33.212-35.528l2.484-9.945zM64.5 96H18.797a2.296 2.296 0 0 1-2.297-2.297c0-.781.414-1.527 1.078-1.941L64.5 62.434zm298.184 229.398l-13.465 18.512c-8.453-.336-16.512-2.887-23.48-7.43a148.608 148.608 0 0 0 11.577-14l2.985-4.105a96.2 96.2 0 0 0 20.832 6.715zm-121.727 56.524c.574 6.101 1.848 12.11 3.734 17.95-1.398.05-2.793.128-4.191.128-21.016 0-43.465-9.047-60.39-22.879 12.03 4.445 24.519 6.879 36.39 6.879 8.258 0 16.426-.734 24.457-2.078zm20.094 16.414c-2.438-6.39-3.863-13.145-4.293-19.961 9.328-2.621 18.375-6.094 26.988-10.445 3.809 6.879 8.203 13.39 13.297 19.375a133.551 133.551 0 0 1-35.992 11.03zm50.449-18.922a101.536 101.536 0 0 1-13.895-19.453 149.959 149.959 0 0 0 16.391-12.227c6.961 5.153 14.824 8.778 23.223 10.672-7.696 8.09-16.352 15.121-25.719 21.008zm-18.809-99.91l19.25 19.25c4.399 4.406 9.215 8.293 14.313 11.726l-1.875 2.575C299.355 347.465 259.027 368 216.5 368c-20.145 0-42.496-8.312-60.031-22.406l-.418-.313c-5.313-14.25-6.504-34.273 10.898-56.601 15.934-20.465 41.719-32.68 68.992-32.68 21.43 0 41.59 8.344 56.75 23.504zM415.516 344H384.5v16h27.953c-6.137 9.742-16.914 16-28.937 16H352.5v16h31.016c.55 0 1.074-.121 1.625-.137C351.37 432.625 301.738 456 248.766 456c-61.532 0-119.57-32.688-151.48-85.313l-4.016-6.617a88.21 88.21 0 0 1-12.77-45.718c0-17.473 5.129-34.383 14.816-48.91 21.704-32.57 33.184-70.473 33.184-109.618v-20.656c0-9.742-5.953-18.656-14.809-22.16A180.644 180.644 0 0 1 80.5 99.695V50.81l9.168-11.45C101.539 24.512 119.254 16 138.262 16c34.316 0 62.238 27.922 62.238 62.238V246.07c-18.258 6.426-34.441 17.707-46.176 32.77-19.367 24.855-23.023 52.879-10.304 78.914C160.234 390.96 201.715 416 240.5 416c47.633 0 92.809-23 120.824-61.52L380.57 328h63.938a34.201 34.201 0 0 1-28.992 16zm0 0"/><path d="M128.5 56a8 8 0 1 1-16 0 8 8 0 0 1 16 0zm0 0"/></svg>