<svg height="496pt" viewBox="-32 0 496 496" width="496pt" xmlns="http://www.w3.org/2000/svg"><path d="M328 24v304h-32V24c0-8.8 7.2-16 16-16 4.398 0 8.398 1.762 11.281 4.719C326.238 15.602 328 19.602 328 24zm0 0" fill="#d3a06c"/><path d="M352 344v32h-80v-32c0-8.8 7.2-16 16-16h48c8.8 0 16 7.2 16 16zm0 0" fill="#969faa"/><path d="M424 392v80c0 8.8-7.2 16-16 16-4.398 0-8.398-1.762-11.281-4.719C393.762 480.398 392 476.398 392 472v-48c0-8.8-7.2-16-16-16-4.398 0-8.398 1.762-11.281 4.719C361.762 415.602 360 419.602 360 424v48c0 8.8-7.2 16-16 16-4.398 0-8.398-1.762-11.281-4.719C329.762 480.398 328 476.398 328 472v-48c0-8.8-7.2-16-16-16-4.398 0-8.398 1.762-11.281 4.719C297.762 415.602 296 419.602 296 424v48c0 8.8-7.2 16-16 16-4.398 0-8.398-1.762-11.281-4.719C265.762 480.398 264 476.398 264 472v-48c0-8.8-7.2-16-16-16-4.398 0-8.398 1.762-11.281 4.719C233.762 415.602 232 419.602 232 424v48c0 8.8-7.2 16-16 16-4.398 0-8.398-1.762-11.281-4.719C201.762 480.398 200 476.398 200 472v-80c0-8.8 7.2-16 16-16h192c8.8 0 16 7.2 16 16zm0 0" fill="#e6e9ed"/><path d="M104 24v304H72V24c0-8.8 7.2-16 16-16 4.398 0 8.398 1.762 11.281 4.719C102.238 15.602 104 19.602 104 24zm0 0" fill="#d3a06c"/><path d="M168 456v32H8v-32zm0 0" fill="#aab2bd"/><path d="M168 392v64H8v-64c0-35.36 28.64-64 64-64h32c35.36 0 64 28.64 64 64zm0 0" fill="#e6e9ed"/><path d="M104 376v16H72v-16c0-8.8 7.2-16 16-16 4.398 0 8.398 1.762 11.281 4.719C102.238 367.602 104 371.602 104 376zm0 0" fill="#838f9b"/><path d="M408 368h-48v-24c0-13.23-10.77-24-24-24V24c0-13.23-10.77-24-24-24s-24 10.77-24 24v296c-13.23 0-24 10.77-24 24v24h-48c-13.23 0-24 10.77-24 24v80c0 13.23 10.77 24 24 24s24-10.77 24-24v-48c0-4.414 3.586-8 8-8s8 3.586 8 8v48c0 13.23 10.77 24 24 24s24-10.77 24-24v-48c0-4.414 3.586-8 8-8s8 3.586 8 8v48c0 13.23 10.77 24 24 24s24-10.77 24-24v-48c0-4.414 3.586-8 8-8s8 3.586 8 8v48c0 13.23 10.77 24 24 24s24-10.77 24-24v-80c0-13.23-10.77-24-24-24zM304 24c0-4.406 3.586-8 8-8s8 3.594 8 8v296h-16zm112 448c0 4.414-3.586 8-8 8s-8-3.586-8-8v-48c0-13.23-10.77-24-24-24s-24 10.77-24 24v48c0 4.414-3.586 8-8 8s-8-3.586-8-8v-48c0-13.23-10.77-24-24-24s-24 10.77-24 24v48c0 4.414-3.586 8-8 8s-8-3.586-8-8v-48c0-13.23-10.77-24-24-24s-24 10.77-24 24v48c0 4.414-3.586 8-8 8s-8-3.586-8-8v-80c0-4.414 3.586-8 8-8h88v-16h-24v-24c0-4.414 3.586-8 8-8h48c4.414 0 8 3.586 8 8v24h-24v16h88c4.414 0 8 3.586 8 8zm0 0M88 352c-13.23 0-24 10.77-24 24v24h48v-24c0-13.23-10.77-24-24-24zm8 32H80v-8c0-4.414 3.586-8 8-8s8 3.586 8 8zm0 0"/><path d="M112 320.473V24c0-13.23-10.77-24-24-24S64 10.77 64 24v296.473C28.055 324.465 0 355 0 392v104h176V392c0-37-28.055-67.535-64-71.527zM88 16c4.414 0 8 3.594 8 8v296H80V24c0-4.406 3.586-8 8-8zm72 432h-24v16h24v16H16v-16h104v-16H16v-56c0-30.871 25.129-56 56-56h32c30.871 0 56 25.129 56 56zm0 0"/></svg>