<svg height="496pt" viewBox="0 -63 496 496" width="496pt" xmlns="http://www.w3.org/2000/svg"><path d="M336 87.176v2.32H192l96-80a86.88 86.88 0 0 1 35.04 32c8.32 13.52 12.96 29.281 12.96 45.68zm0 0" fill="#fcd770"/><path d="M350.238 89.496H376c5.121 0 9.68 2.399 12.559 6.16a15.811 15.811 0 0 1 3.441 9.84c0 4.399-1.762 8.399-4.719 11.281-2.883 2.957-6.883 4.72-11.281 4.72H184c-8.8 0-16-7.2-16-16 0-4.4 1.762-8.4 4.719-11.282 2.883-2.957 6.883-4.719 11.281-4.719zm0 0" fill="#aab2bd"/><path d="M408 57.496c44.16 0 80 46.559 80 104s-35.84 104-80 104l-1.922.399-6.957-33.68c2.879.883 5.84 1.281 8.879 1.281 26.48 0 48-32.238 48-72s-21.52-72-48-72c-6.879 0-13.52 2.16-19.441 6.16-2.88-3.761-7.438-6.16-12.559-6.16h-25.762c14.563-19.762 35.043-32 57.762-32zm0 0" fill="#969faa"/><path d="M88 33.496H48l-40 40v40l56 8 32-32zm0 0" fill="#e6e9ed"/><path d="M174.32 167.816l-24.48 117.598L64 121.496l32-32zm0 0" fill="#aab2bd"/><path d="M382.64 153.496l16.4 78.719h.081l6.957 33.68 9.043 43.203c.559 2.957.879 5.918.879 8.879 0 24-19.52 43.52-43.52 43.52H187.52a43.08 43.08 0 0 1-30.72-12.802 43.08 43.08 0 0 1-12.8-30.718c0-2.961.32-5.922.879-8.88l4.96-23.683 24.481-117.598 3.04-14.32 6.64-32h192zm0 0" fill="#e6e9ed"/><path d="M264.8 204.777c2-6.48 8-11.28 15.2-11.28s13.2 4.8 15.2 11.28c6.081-3.203 13.679-2.32 18.722 2.797 5.117 5.043 6 12.64 2.797 18.723 6.48 2 11.281 8 11.281 15.2 0 7.198-4.8 13.198-11.281 15.198 3.203 6.082 2.32 13.68-2.797 18.72-5.043 5.12-12.64 6-18.723 2.8-2 6.48-8 11.281-15.199 11.281s-13.2-4.8-15.2-11.281c-6.081 3.2-13.679 2.32-18.722-2.8-5.117-5.04-6-12.638-2.797-18.72-6.48-2-11.281-8-11.281-15.199 0-7.2 4.8-13.2 11.281-15.2-3.203-6.081-2.32-13.679 2.797-18.722 5.043-5.117 12.64-6 18.723-2.797zm0 0" fill="#ff826e"/><path d="M296 241.496c0 8.836-7.164 16-16 16s-16-7.164-16-16 7.164-16 16-16 16 7.164 16 16zm0 0" fill="#e6e9ed"/><path d="M347.14 179.113l15.653-3.265 3.336 16-15.652 3.265zm0 0M369.48 207.863l-15.656 3.266L376 317.984a3.514 3.514 0 0 1-3.512 3.512H360v16h12.488c10.75 0 19.512-8.754 19.512-19.512 0-1.367-.145-2.718-.414-3.976zm0 0"/><path d="M496 161.496c0-61.762-39.48-112-88-112-23.352 0-45.016 11.399-61.512 32h-2.687c-1.985-33.855-21.594-63.84-52.227-79.16L286.894 0l-97.789 81.496H184c-13.23 0-24 10.77-24 24 0 9.887 6.016 18.383 14.566 22.055l-5.03 24.168-65.993-65.992-8.605-60.23h-50.25L0 70.183v50.25l58.816 8.398 82.625 157.742-4.351 20.899a51.213 51.213 0 0 0-1.09 10.511c0 28.399 23.113 51.512 51.512 51.512H372.48c28.407 0 51.52-23.113 51.52-51.512 0-3.527-.367-7.074-1.09-10.504l-7.183-34.472C460.64 267.992 496 219.938 496 161.496zM288.96 19.106c22.575 13.152 36.825 36.359 38.673 62.39H214.098zM184 97.495h192c4.414 0 8 3.594 8 8s-3.586 8-8 8H184c-4.414 0-8-3.594-8-8s3.586-8 8-8zm216 8c0-2.183-.383-4.258-.938-6.273 2.922-1.102 5.907-1.727 8.938-1.727 21.68 0 40 29.313 40 64s-18.32 64-40 64c-.727 0-1.465-.09-2.2-.152l-20.374-97.785c8.558-3.68 14.574-12.176 14.574-22.063zM87.512 86.664l-26.344 26.344-36.2-5.168 57.376-57.375zm-36.2-45.168h17.376L16 94.184V76.809zm22.504 81.496L96 100.81l69.633 69.632-19.059 91.461zm298.672 230.504H187.512c-19.582 0-35.512-15.937-35.512-35.512 0-2.441.246-4.87.742-7.242l31.09-149.246H208v-16h-20.832l3.336-16h179l3.336 16H224v16h152.168l31.098 149.246c.496 2.371.742 4.801.742 7.242-.008 19.575-15.938 35.512-35.52 35.512zm39.953-96.297l-3.289-15.785c30.84-.855 54.848-35.613 54.848-79.918 0-44.855-24.602-80-56-80-6.344 0-12.488 1.457-18.336 4.32-3.879-2.71-8.586-4.32-13.664-4.32h-7.695c11.687-10.39 25.36-16 39.695-16 39.703 0 72 43.063 72 96 0 50.938-29.93 92.617-67.559 95.703zm0 0"/><path d="M280 217.496c-13.23 0-24 10.77-24 24s10.77 24 24 24 24-10.77 24-24-10.77-24-24-24zm0 32c-4.414 0-8-3.594-8-8s3.586-8 8-8 8 3.594 8 8-3.586 8-8 8zm0 0"/><path d="M326.336 222.305c1.105-7.352-1.258-14.922-6.742-20.41-5.489-5.48-13.059-7.848-20.403-6.735-4.414-5.984-11.437-9.664-19.191-9.664s-14.777 3.68-19.191 9.664a23.87 23.87 0 0 0-20.403 6.735 23.814 23.814 0 0 0-6.742 20.41A23.78 23.78 0 0 0 224 241.496c0 7.75 3.687 14.777 9.664 19.191a23.786 23.786 0 0 0 6.734 20.403 23.787 23.787 0 0 0 20.41 6.742c4.415 5.984 11.438 9.664 19.192 9.664s14.777-3.68 19.191-9.664c7.368 1.113 14.922-1.258 20.403-6.734a23.814 23.814 0 0 0 6.742-20.41A23.786 23.786 0 0 0 336 241.495a23.78 23.78 0 0 0-9.664-19.191zm-11.992 26.757l-9.184 2.86 4.488 8.512c1.649 3.125 1.106 6.886-1.359 9.343-2.465 2.453-6.219 3.008-9.344 1.352l-8.511-4.473-2.848 9.184c-1.066 3.383-4.106 5.656-7.586 5.656s-6.52-2.273-7.566-5.648l-2.848-9.184-8.516 4.473c-3.117 1.64-6.886 1.11-9.343-1.352-2.461-2.465-3.008-6.219-1.36-9.344l4.488-8.511-9.183-2.86c-3.399-1.054-5.672-4.093-5.672-7.574 0-3.48 2.273-6.52 5.656-7.566l9.184-2.86-4.488-8.511c-1.649-3.125-1.106-6.887 1.359-9.344 2.473-2.453 6.219-3.008 9.344-1.352l8.511 4.473 2.848-9.184c1.066-3.382 4.106-5.656 7.586-5.656s6.52 2.274 7.566 5.649l2.848 9.183 8.516-4.473c3.125-1.656 6.87-1.101 9.343 1.352 2.461 2.465 3.008 6.219 1.36 9.344l-4.488 8.511 9.183 2.86c3.399 1.055 5.672 4.094 5.672 7.574 0 3.48-2.273 6.52-5.656 7.566zm0 0"/></svg>