<svg height="496pt" viewBox="-48 0 496 496" width="496pt" xmlns="http://www.w3.org/2000/svg"><path d="M328 72v32h-72l-2.16-.559C255.28 98.56 256 93.36 256 88s-.719-10.559-2.16-15.441L256 72zm0 0M144 88c0 5.36.719 10.559 2.16 15.441L144 104H72V72h72l2.16.559C144.72 77.44 144 82.64 144 88zm0 0M248 392h80v32h-80zm0 0M72 392h80v32H72zm0 0" fill="#ccd1d9"/><path d="M152 360h96v32h-96zm0 0" fill="#fcd770"/><path d="M248 360h-96l48-40zm0 0" fill="#ffc729"/><path d="M248 424v64h-96v-96h96zm0 0" fill="#ff826e"/><path d="M216 440c0 8.836-7.164 16-16 16s-16-7.164-16-16 7.164-16 16-16 16 7.164 16 16zm0 0" fill="#fcd770"/><path d="M200 144c15.52 0 29.441-6.238 39.602-16.398L240 128l-6.879 41.281A7.996 7.996 0 0 1 225.2 176h-50.398a7.996 7.996 0 0 1-7.922-6.719L160 128l.398-.398C170.558 137.762 184.48 144 200 144zm0 0" fill="#ccd1d9"/><path d="M253.84 72.559C255.28 77.44 256 82.64 256 88s-.719 10.559-2.16 15.441c-2.64 9.278-7.602 17.52-14.238 24.16C229.442 137.762 215.52 144 200 144s-29.441-6.238-39.602-16.398c-6.636-6.641-11.597-14.883-14.238-24.16C144.72 98.558 144 93.358 144 88s.719-10.559 2.16-15.441C152.8 49.12 174.398 32 200 32s47.2 17.121 53.84 40.559zm0 0" fill="#ff826e"/><path d="M224 88c0 13.254-10.746 24-24 24s-24-10.746-24-24 10.746-24 24-24 24 10.746 24 24zm0 0" fill="#fcd770"/><g fill="#838f9b"><path d="M392 24l-32 32-32-32c0-8.8 7.2-16 16-16h32c8.8 0 16 7.2 16 16zm0 0"/><path d="M392 24v48l-32 32-32-32V24l32 32zm0 0"/><path d="M392 72v48l-32 32-32-32V72l32 32zm0 0"/><path d="M392 120v48c0 8.8-7.2 16-16 16h-32c-8.8 0-16-7.2-16-16v-48l32 32zm0 0M392 424v48c0 8.8-7.2 16-16 16h-32c-8.8 0-16-7.2-16-16v-48l32 32zm0 0M392 328v48l-32 32-32-32v-48l32 32zm0 0"/><path d="M392 376v48l-32 32-32-32v-48l32 32zm0 0M392 328l-32 32-32-32c0-8.8 7.2-16 16-16h32c8.8 0 16 7.2 16 16zm0 0M72 328v48l-32 32-32-32v-48l32 32zm0 0"/><path d="M72 328l-32 32-32-32c0-8.8 7.2-16 16-16h32c8.8 0 16 7.2 16 16zm0 0M72 392v32l-32 32-32-32v-48l32 32 32-32zm0 0"/><path d="M72 424v48c0 8.8-7.2 16-16 16H24c-8.8 0-16-7.2-16-16v-48l32 32zm0 0M72 24v48l-32 32L8 72V24l32 32zm0 0"/><path d="M72 104v16l-32 32-32-32V72l32 32 32-32zm0 0"/><path d="M72 120v48c0 8.8-7.2 16-16 16H24c-8.8 0-16-7.2-16-16v-48l32 32zm0 0M72 24L40 56 8 24c0-8.8 7.2-16 16-16h32c8.8 0 16 7.2 16 16zm0 0"/></g><path d="M200 56c-17.648 0-32 14.352-32 32s14.352 32 32 32 32-14.352 32-32-14.352-32-32-32zm0 48c-8.824 0-16-7.176-16-16s7.176-16 16-16 16 7.176 16 16-7.176 16-16 16zm0 0"/><path d="M344 192h32c13.23 0 24-10.77 24-24V24c0-13.23-10.77-24-24-24h-32c-13.23 0-24 10.77-24 24v40h-60.71C249.77 40.574 226.8 24 200 24s-49.77 16.574-59.29 40H80V24C80 10.77 69.23 0 56 0H24C10.77 0 0 10.77 0 24v144c0 13.23 10.77 24 24 24h32c13.23 0 24-10.77 24-24v-56h60.71c2.786 6.855 6.747 13.098 11.602 18.535l6.68 40.106A15.963 15.963 0 0 0 174.777 184H192v132.258l-48 40V384H80v-56c0-13.23-10.77-24-24-24H24c-13.23 0-24 10.77-24 24v144c0 13.23 10.77 24 24 24h32c13.23 0 24-10.77 24-24v-40h64v64h112v-64h64v40c0 13.23 10.77 24 24 24h32c13.23 0 24-10.77 24-24V328c0-13.23-10.77-24-24-24h-32c-13.23 0-24 10.77-24 24v56h-64v-27.754l-48-40V184h17.223c7.84 0 14.48-5.617 15.785-13.375l6.68-40.09c4.855-5.437 8.816-11.68 11.601-18.535H320v56c0 13.23 10.77 24 24 24zM240 368v16h-80v-16zm-65.902-16L200 330.414 225.902 352zM40 371.313l24-24v25.375l-24 24-24-24v-25.375zm-24 24l24 24 24-24v25.375l-24 24-24-24zM24 320h32c3.441 0 6.313 2.2 7.441 5.246L40 348.688l-23.441-23.442C17.687 322.2 20.559 320 24 320zm32 160H24c-4.414 0-8-3.586-8-8v-28.688l24 24 24-24V472c0 4.414-3.586 8-8 8zm24-64v-16h64v16zm80 64v-80h80v80zm200-108.688l24-24v25.375l-24 24-24-24v-25.375zm24 49.375l-24 24-24-24v-25.375l24 24 24-24zM376 480h-32c-4.414 0-8-3.586-8-8v-28.688l24 24 24-24V472c0 4.414-3.586 8-8 8zm-32-160h32c3.441 0 6.313 2.2 7.441 5.246L360 348.688l-23.441-23.442c1.128-3.047 4-5.246 7.441-5.246zm-24 80v16h-64v-16zm40-332.688l24-24v25.376l-24 24-24-24V43.311zm0 48l24-24v25.376l-24 24-24-24V91.311zM376 176h-32c-4.414 0-8-3.586-8-8v-28.688l24 24 24-24V168c0 4.414-3.586 8-8 8zM344 16h32c3.441 0 6.313 2.2 7.441 5.246L360 44.688l-23.441-23.442C337.687 18.2 340.559 16 344 16zM64 116.688l-24 24-24-24V91.311l24 24 24-24zM40 67.311l24-24v25.376l-24 24-24-24V43.311zM24 16h32c3.441 0 6.313 2.2 7.441 5.246L40 44.688 16.559 21.245C17.687 18.2 20.559 16 24 16zm32 160H24c-4.414 0-8-3.586-8-8v-28.688l24 24 24-24V168c0 4.414-3.586 8-8 8zm24-80V80h56.55c-.327 2.625-.55 5.29-.55 8s.223 5.375.55 8zm128 72h-33.223l-3.84-23.055c8.727 4.48 18.59 7.055 29.063 7.055s20.336-2.574 29.063-7.055L225.222 168zm-8-32c-26.473 0-48-21.527-48-48s21.527-48 48-48 48 21.527 48 48-21.527 48-48 48zm63.45-40c.327-2.625.55-5.29.55-8s-.223-5.375-.55-8H320v16zm0 0"/><path d="M200 416c-13.23 0-24 10.77-24 24s10.77 24 24 24 24-10.77 24-24-10.77-24-24-24zm0 32c-4.414 0-8-3.586-8-8s3.586-8 8-8 8 3.586 8 8-3.586 8-8 8zm0 0"/></svg>