<svg height="496pt" viewBox="0 0 496 496" width="496pt" xmlns="http://www.w3.org/2000/svg"><path d="M472 392v32h-58.8c-6.481-18.64-24.321-32-45.2-32s-38.719 13.36-45.2 32H173.2c-6.481-18.64-24.321-32-45.2-32s-38.719 13.36-45.2 32H24v-52.879c0-15.68 11.281-29.043 26.719-31.601l55.601-9.282c8.72-1.437 16.48-6.398 21.36-13.758l30.8-46.242C164.398 261.36 174.398 256 185.121 256h151.2c9.917 0 19.199 4.559 25.28 12.32l39.598 50.961c4.403 5.68 10.563 9.68 17.52 11.36l29.043 7.28c11.199 2.88 19.84 11.438 22.957 22.079.8 2.879 1.281 5.84 1.281 8.96zm0 0" fill="#fcd770"/><path d="M358.238 325.04c1.121 1.92 1.762 4.16 1.762 6.401A12.532 12.532 0 0 1 347.441 344H172.56A12.532 12.532 0 0 1 160 331.441c0-2.242.64-4.48 1.762-6.402l18.558-30.96c2.32-3.759 6.399-6.079 10.801-6.079H328.88c4.402 0 8.48 2.32 10.8 6.078zm0 0" fill="#69d6f4"/><g fill="#ccd1d9"><path d="M472 456h-58.8c1.84-5.04 2.8-10.398 2.8-16s-.96-10.96-2.8-16H472c8.8 0 16 7.2 16 16s-7.2 16-16 16zm0 0M322.8 456H173.2c1.84-5.04 2.8-10.398 2.8-16s-.96-10.96-2.8-16h149.6c-1.84 5.04-2.8 10.398-2.8 16s.96 10.96 2.8 16zm0 0M24 424h58.8c-1.84 5.04-2.8 10.398-2.8 16s.96 10.96 2.8 16H24c-8.8 0-16-7.2-16-16s7.2-16 16-16zm0 0"/></g><path d="M413.2 424c1.84 5.04 2.8 10.398 2.8 16s-.96 10.96-2.8 16c-6.481 18.64-24.321 32-45.2 32s-38.719-13.36-45.2-32c-1.84-5.04-2.8-10.398-2.8-16s.96-10.96 2.8-16c6.481-18.64 24.321-32 45.2-32s38.719 13.36 45.2 32zm0 0M173.2 424c1.84 5.04 2.8 10.398 2.8 16s-.96 10.96-2.8 16c-6.481 18.64-24.321 32-45.2 32s-38.719-13.36-45.2-32c-1.84-5.04-2.8-10.398-2.8-16s.96-10.96 2.8-16c6.481-18.64 24.321-32 45.2-32s38.719 13.36 45.2 32zm0 0" fill="#838f9b"/><path d="M384 440c0 8.836-7.164 16-16 16s-16-7.164-16-16 7.164-16 16-16 16 7.164 16 16zm0 0M144 440c0 8.836-7.164 16-16 16s-16-7.164-16-16 7.164-16 16-16 16 7.164 16 16zm0 0" fill="#e6e9ed"/><path d="M480 417.473v-48.489a39.954 39.954 0 0 0-30.297-38.808l-29.039-7.266a24.153 24.153 0 0 1-13.129-8.543l-39.605-50.926C360.297 253.633 348.785 248 336.344 248H185.129a39.915 39.915 0 0 0-33.281 17.816l-30.809 46.215a24.083 24.083 0 0 1-16.023 10.36l-55.582 9.265C30.054 334.88 16 351.473 16 371.113v46.367C6.71 420.785 0 429.586 0 440c0 13.23 10.77 24 24 24h53.48c9.008 18.887 28.239 32 50.52 32s41.512-13.113 50.52-32h138.96c9.008 18.887 28.239 32 50.52 32s41.512-13.113 50.52-32H472c13.23 0 24-10.77 24-24 0-10.414-6.71-19.215-16-22.527zm-427.945-70.04l55.586-9.265c10.863-1.809 20.597-8.106 26.71-17.266l30.81-46.215A23.946 23.946 0 0 1 185.128 264h151.223c7.464 0 14.367 3.375 18.945 9.266l39.613 50.925c5.465 7.024 13.235 12.082 21.867 14.25l29.047 7.262c4.32 1.082 8.078 3.32 11.063 6.297H440v16h23.922c.015.328.078.648.078.984V384h-24v16h24v16h-45.48c-9.008-18.887-28.239-32-50.52-32s-41.512 13.113-50.52 32H178.52c-9.008-18.887-28.239-32-50.52-32s-41.512 13.113-50.52 32H32v-44.887a23.925 23.925 0 0 1 20.055-23.68zM24 448c-4.406 0-8-3.594-8-8s3.594-8 8-8h48.64c-.374 2.625-.64 5.281-.64 8s.266 5.375.64 8zm104 32c-22.055 0-40-17.945-40-40s17.945-40 40-40 40 17.945 40 40-17.945 40-40 40zm55.36-32c.374-2.625.64-5.281.64-8s-.266-5.375-.64-8h129.28c-.374 2.625-.64 5.281-.64 8s.266 5.375.64 8zM368 480c-22.055 0-40-17.945-40-40s17.945-40 40-40 40 17.945 40 40-17.945 40-40 40zm104-32h-48.64c.374-2.625.64-5.281.64-8s-.266-5.375-.64-8H472c4.406 0 8 3.594 8 8s-3.594 8-8 8zm0 0"/><path d="M368 416c-13.23 0-24 10.77-24 24s10.77 24 24 24 24-10.77 24-24-10.77-24-24-24zm0 32c-4.406 0-8-3.594-8-8s3.594-8 8-8 8 3.594 8 8-3.594 8-8 8zm0 0M128 416c-13.23 0-24 10.77-24 24s10.77 24 24 24 24-10.77 24-24-10.77-24-24-24zm0 32c-4.406 0-8-3.594-8-8s3.594-8 8-8 8 3.594 8 8-3.594 8-8 8zm0 0M172.527 352h174.938c11.328 0 20.535-9.207 20.535-20.527a20.5 20.5 0 0 0-2.93-10.563l-18.558-30.933c-3.688-6.153-10.434-9.977-17.61-9.977H191.098c-7.168 0-13.922 3.824-17.602 9.969L154.93 320.91a20.48 20.48 0 0 0-2.93 10.563c0 11.32 9.207 20.527 20.527 20.527zm-3.879-22.855l18.567-30.946a4.532 4.532 0 0 1 3.883-2.199H328.91c1.586 0 3.074.84 3.883 2.2l18.559 30.937c.425.703.648 1.511.648 2.336a4.533 4.533 0 0 1-4.527 4.527H172.527a4.533 4.533 0 0 1-4.527-4.527c0-.825.223-1.633.648-2.328zm0 0M224 368h24v16h-24zm0 0M253.656 114.344l11.313-11.313c-9.067-9.07-24.871-9.07-33.938 0l11.313 11.313c3.023-3.024 8.289-3.024 11.312 0zm0 0M287.602 80.398C277.016 69.824 262.96 64 248 64s-29.016 5.824-39.602 16.398l11.313 11.313C227.273 84.16 237.32 80 248 80s20.727 4.16 28.29 11.71zm0 0"/><path d="M310.223 57.777C293.609 41.16 271.503 32 248 32s-45.61 9.16-62.223 25.777L197.09 69.09C210.687 55.488 228.77 48 248 48s37.312 7.488 50.91 21.09zm0 0"/><path d="M248 16c27.785 0 53.895 10.816 73.535 30.465l11.313-11.313C310.19 12.488 280.055 0 248 0s-62.191 12.488-84.848 35.152l11.313 11.313C194.105 26.816 220.215 16 248 16zm0 0M70.223 255.031l11.312 11.313c3.024-3.024 8.29-3.024 11.313 0l11.312-11.313c-9.055-9.07-24.87-9.07-33.937 0zm0 0M126.793 232.398C116.215 221.824 102.153 216 87.191 216c-14.96 0-29.015 5.824-39.597 16.398l11.308 11.313C66.465 236.16 76.512 232 87.192 232s20.73 4.16 28.288 11.71zm0 0"/><path d="M149.426 209.777C132.8 193.16 110.696 184 87.19 184s-45.605 9.16-62.222 25.777L36.28 221.09C49.88 207.488 67.953 200 87.191 200c19.235 0 37.313 7.488 50.914 21.09zm0 0"/><path d="M87.191 168c27.786 0 53.899 10.816 73.536 30.465l11.312-11.313C149.383 164.488 119.258 152 87.191 152c-32.046 0-62.183 12.488-84.847 35.152l11.312 11.313C33.305 178.816 59.414 168 87.191 168zm0 0M391.832 255.031l11.313 11.313c3.023-3.024 8.289-3.024 11.312 0l11.313-11.313c-9.06-9.07-24.875-9.07-33.938 0zm0 0M448.398 232.398C437.824 221.824 423.762 216 408.801 216c-14.961 0-29.016 5.824-39.602 16.398l11.313 11.313c7.558-7.55 17.61-11.711 28.297-11.711s20.726 4.16 28.289 11.71zm0 0"/><path d="M471.023 209.777C454.406 193.16 432.313 184 408.81 184s-45.61 9.16-62.223 25.777l11.309 11.313c13.601-13.602 31.68-21.09 50.914-21.09 19.23 0 37.312 7.488 50.91 21.09zm0 0"/><path d="M335.266 198.465C354.902 178.816 381.023 168 408.809 168c27.777 0 53.894 10.816 73.535 30.465l11.312-11.313C470.992 164.488 440.856 152 408.81 152c-32.055 0-62.192 12.488-84.848 35.152zm0 0M240 160h16v16h-16zm0 0M224 176h16v16h-16zm0 0M240 192h16v16h-16zm0 0M256 176h16v16h-16zm0 0"/></svg>