<svg height="496pt" viewBox="-75 0 495 496" width="496pt" xmlns="http://www.w3.org/2000/svg"><path d="M240.5 456v32h-144v-32zm0 0" fill="#b4dd7f"/><path d="M243.219 240.238C233.14 238.558 224.5 246.32 224.5 256v-31.121c0-2.48-.48-4.879-1.52-7.04-2.082-4.96-6.32-8.718-11.761-9.6C201.14 206.558 192.5 214.32 192.5 224v-15.121c0-4.238-1.52-8.32-4.238-11.36-2.16-2.718-5.364-4.64-9.043-5.28-6.957-1.118-13.2 2.16-16.48 7.523-1.438 2.398-2.239 5.199-2.239 8.238v-48c0-9.68-8.64-17.441-18.719-15.762-7.84 1.282-13.281 8.64-13.281 16.64V280c0-8.8-3.602-16.8-9.36-22.64-5.84-5.758-13.84-9.36-22.64-9.36-4.398 0-8 3.602-8 8v103.121c0 5.84 1.602 11.52 4.559 16.48L112.5 408v48h112v-48l24.96-31.2a31.928 31.928 0 0 0 7.04-20V256.88c0-8-5.441-15.36-13.281-16.64zm0 0" fill="#f0d0b4"/><path d="M211.219 208.238C201.14 206.558 192.5 214.32 192.5 224v-15.121c0-4.238-1.52-8.32-4.238-11.36 34.636-8.8 60.238-40.16 60.238-77.519 0-44.16-35.84-80-80-80s-80 35.84-80 80c0 29.602 16.078 55.441 40 69.281v35.36c-42.078-16.082-72-56.88-72-104.641 0-61.84 50.16-112 112-112s112 50.16 112 112c0 42.078-23.2 78.719-57.52 97.84-2.082-4.961-6.32-8.719-11.761-9.602zm0 0" fill="#ccd1d9"/><path d="M160.5 160c0-9.68-8.64-17.441-18.719-15.762-7.84 1.282-13.281 8.64-13.281 16.64v28.403c-23.922-13.84-40-39.68-40-69.281 0-44.16 35.84-80 80-80s80 35.84 80 80c0 37.36-25.602 68.719-60.238 77.52-2.16-2.72-5.364-4.641-9.043-5.282-6.957-1.117-13.2 2.16-16.48 7.524-.798 0-1.52-.082-2.239-.16zm0 0" fill="#e6e9ed"/><path d="M200.5 104c8.8 0 16 7.2 16 16 0 4.398-1.762 8.398-4.719 11.281-2.883 2.957-6.883 4.719-11.281 4.719h-64c-8.8 0-16-7.2-16-16 0-4.398 1.762-8.398 4.719-11.281 2.883-2.957 6.883-4.719 11.281-4.719zm0 0" fill="#fcd770"/><path d="M244.469 232.328a24.308 24.308 0 0 0-11.969 1.047v-8.52c0-1.085-.145-2.152-.281-3.207C267.066 199.762 288.5 161.391 288.5 120c0-66.168-53.832-120-120-120s-120 53.832-120 120c0 47.535 28.734 90.969 72 109.922v18.285c-6.703-5.078-14.96-8.207-24-8.207-8.824 0-16 7.176-16 16v103.137c0 7.246 1.969 14.36 5.703 20.582l18.297 30.496V448h-16v48h160v-48h-16v-37.191l23.23-29.04c5.649-7.082 8.77-15.953 8.77-24.992v-99.922c0-12.128-8.61-22.671-20.031-24.527zM64.5 120c0-57.344 46.656-104 104-104s104 46.656 104 104c0 35.273-17.938 68.047-47.258 87.168-3.422-3.512-7.797-6.031-12.773-6.84-2.961-.488-5.922-.367-8.778.215 7.305-3.191 14.2-7.262 20.496-12.414l-10.144-12.387c-7.102 5.817-15.102 10.043-23.75 12.785-2.871-2.12-6.2-3.617-9.832-4.199a24.4 24.4 0 0 0-11.969 1.047V160c0-5.992-2.328-11.617-6.289-16H200.5c13.23 0 24-10.77 24-24s-10.77-24-24-24h-64c-13.23 0-24 10.77-24 24 0 10.383 6.664 19.16 15.902 22.496-4.832 4.602-7.902 11.176-7.902 18.36v12.593c-15-13.52-24-32.883-24-53.449 0-16.559 5.777-32.742 16.258-45.55l-12.38-10.138C87.563 79.977 80.5 99.755 80.5 120c0 29.703 15.29 57.367 40 73.543v18.648c-33.895-17.734-56-53.382-56-92.191zm72 8c-4.414 0-8-3.594-8-8s3.586-8 8-8h64c4.414 0 8 3.594 8 8s-3.586 8-8 8zm96 352h-128v-16h128zm16-123.223c0 5.422-1.863 10.75-5.266 15L216.5 405.191V448h-96v-42.215L99.926 371.48a23.958 23.958 0 0 1-3.426-12.343V256c13.23 0 24 10.77 24 24v40h16V160.855c0-4.296 2.895-8.136 6.594-8.742 2.422-.37 4.765.246 6.582 1.79A7.992 7.992 0 0 1 152.5 160v160h16V208a7.992 7.992 0 0 1 2.824-6.098c1.824-1.55 4.153-2.183 6.574-1.789 3.707.606 6.602 4.446 6.602 8.742V320h16v-96a7.992 7.992 0 0 1 2.824-6.098c1.824-1.55 4.153-2.183 6.574-1.789 3.707.606 6.602 4.446 6.602 8.742V320h16v-64a7.992 7.992 0 0 1 2.824-6.098c1.824-1.543 4.16-2.183 6.574-1.789 3.707.606 6.602 4.446 6.602 8.742zm0 0"/><path d="M168.5 48c39.703 0 72 32.305 72 72 0 16.559-5.777 32.742-16.258 45.55l12.38 10.137C249.436 160.024 256.5 140.248 256.5 120c0-48.52-39.48-88-88-88-20.246 0-40.023 7.055-55.688 19.871l10.145 12.387C135.757 53.778 151.941 48 168.5 48zm0 0M46.563 318.055C37.492 327.12 32.5 339.175 32.5 352s4.992 24.879 14.063 33.945l11.312-11.32C51.828 368.585 48.5 360.551 48.5 352s3.328-16.586 9.375-22.625zm0 0"/><path d="M35.242 306.742l-11.308-11.308C8.82 310.543.5 330.64.5 352s8.32 41.457 23.434 56.566l11.308-11.308C23.156 385.168 16.5 369.098 16.5 352s6.656-33.168 18.742-45.258zm0 0M298.438 318.055l-11.313 11.32c6.047 6.04 9.375 14.074 9.375 22.625s-3.328 16.586-9.375 22.625l11.313 11.32c9.07-9.066 14.062-21.12 14.062-33.945s-4.992-24.879-14.063-33.945zm0 0"/><path d="M321.066 295.434l-11.308 11.308c12.086 12.09 18.742 28.16 18.742 45.258s-6.656 33.168-18.742 45.258l11.308 11.308C336.18 393.457 344.5 373.36 344.5 352s-8.32-41.457-23.434-56.566zm0 0"/></svg>