<svg height="496pt" viewBox="-15 0 495 496" width="496pt" xmlns="http://www.w3.org/2000/svg"><path d="M377.46 143.04c4.321 4.32 7.04 10.32 7.04 16.96 0 13.281-10.719 24-24 24h-32v-48h32c6.64 0 12.64 2.719 16.96 7.04zm0 0M136.5 136v48h-32c-13.281 0-24-10.719-24-24 0-6.64 2.719-12.64 7.04-16.96 4.32-4.321 10.32-7.04 16.96-7.04zm0 0" fill="#fcd770"/><path d="M312.5 451.36V488h-32v-32h3.04c10 0 19.76-1.602 28.96-4.719zm0 0" fill="#838f9b"/><path d="M360.5 304h96c0 8.8-3.602 16.8-9.36 22.64-5.84 5.758-13.84 9.36-22.64 9.36h-60.8l-3.2-16zm0 0M360.5 200h96c0 8.8-3.602 16.8-9.36 22.64-5.84 5.758-13.84 9.36-22.64 9.36h-64zm0 0M360.5 96v40h-32l-16-48-13.762-41.36c16.48 2.801 30.64 5.84 38.563 7.68zm0 0" fill="#b4dd7f"/><path d="M320.82 413.52C349.621 407.12 368.5 400 368.5 400c-10.64 24.8-31.281 43.2-56 51.281-9.2 3.117-18.96 4.719-28.96 4.719H181.46a92.344 92.344 0 0 1-50.882-15.281C115.781 431.039 103.781 416.96 96.5 400c0 0 18.879 7.121 47.68 13.52C168.422 418.96 199.62 424 232.5 424s64.078-5.04 88.32-10.48zm0 0M320.5 24l16.8 30.32c-7.921-1.84-22.081-4.879-38.562-7.68L288.5 16l.16-.64C307.14 19.52 320.5 24 320.5 24zm0 0" fill="#fcd770"/><path d="M328.5 304v56h-192V136h192zm0 0" fill="#b4dd7f"/><path d="M312.5 88l16 48h-192l16-48zm0 0M328.5 360l-7.68 53.52C296.578 418.96 265.38 424 232.5 424s-64.078-5.04-88.32-10.48L136.5 360zm0 0" fill="#69d6f4"/><path d="M298.738 46.64L312.5 88h-160l13.762-41.36L176.5 16l-.16-.64C192.898 11.601 213.62 8 232.5 8s39.602 3.602 56.16 7.36l-.16.64zm0 0" fill="#b4dd7f"/><path d="M176.34 15.36l.16.64-10.238 30.64c-16.48 2.801-30.64 5.84-38.563 7.68L144.5 24s13.36-4.48 31.84-8.64zm0 0" fill="#fcd770"/><g fill="#b4dd7f"><path d="M166.262 46.64L152.5 88l-16 48h-32V96l23.2-41.68c7.921-1.84 22.081-4.879 38.562-7.68zm0 0M363.7 336l-3.2-16V184h-32v176l-7.68 53.52C349.621 407.12 368.5 400 368.5 400v-40zm0 0M136.5 304V184h-32v136l-3.2 16-4.8 24v40s18.879 7.121 47.68 13.52L136.5 360zm0 0"/><path d="M104.5 304v16l-3.2 16H40.5c-8.8 0-16.8-3.602-22.64-9.36C12.101 320.8 8.5 312.8 8.5 304zm0 0M104.5 200v32h-64c-8.8 0-16.8-3.602-22.64-9.36C12.101 216.8 8.5 208.8 8.5 200zm0 0"/></g><path d="M424.5 240c22.055 0 40-17.945 40-40v-8h-96v-1.137c13.762-3.574 24-16 24-30.863s-10.238-27.29-24-30.863V93.93l-42.52-76.532-2.953-.984C321.02 15.742 273.332 0 232.5 0s-88.52 15.742-90.527 16.406l-2.953.985L96.5 93.93v35.207c-13.762 3.574-24 16-24 30.863s10.238 27.29 24 30.863V192H.5v8c0 22.055 17.945 40 40 40h56v56H.5v8c0 22.055 17.945 40 40 40h51.04l-2.888 14.434-.152 43.207.648 1.504A100.26 100.26 0 0 0 181.43 464h91.07v32h48v-39.047c24.426-9.656 44.602-28.695 55.352-53.808l.648-1.504V360l-3.137-16H424.5c22.055 0 40-17.945 40-40v-8h-96v-56zm22.633-32c-3.305 9.313-12.2 16-22.633 16h-56v-16zM360.5 360.793v33.512c-5.809 1.941-16.281 5.215-30.063 8.68l5.973-41.848.027-49.137H352.5v8zm-248.16-39.227l.015-9.566H128.5v48l6.078 42.984c-13.789-3.464-24.27-6.746-30.078-8.68v-33.511zM128.5 192v32h-16.047l.04-32zm22.777 214.855L145.723 368H280.5v-16h-136V144h136v-16H147.598l10.664-32H306.73l10.665 32H296.5v16h24v208h-24v16h22.777l-5.554 38.855C290.746 411.742 262.262 416 232.5 416s-58.246-4.258-81.223-9.145zM336.477 192H352.5v32h-16.031zm40.023-32c0 8.824-7.176 16-16 16h-24.016l.016-32h24c8.824 0 16 7.176 16 16zm-24-32h-18.23l-14.176-42.527-9.531-28.578a725.578 725.578 0 0 1 21.523 4.433L352.5 98.07zm-30.71-85.215a742.258 742.258 0 0 0-17-3.226l-4.36-13.07a374.569 374.569 0 0 1 14.613 4.167zm-39.688-20.68L301.395 80h-137.79l19.293-57.895C198.125 18.848 216.102 16 232.5 16s34.375 2.848 49.602 6.105zm-117.54 4.391l-4.359 13.07a709.425 709.425 0 0 0-17 3.227l6.738-12.121c2.985-.93 8.125-2.457 14.621-4.176zm-31.648 34.832c5.793-1.289 13.16-2.84 21.524-4.433l-9.532 28.578L130.73 128H112.5V98.07zM88.5 160c0-8.824 7.176-16 16-16h24v32h-24c-8.824 0-16-7.176-16-16zm-48 64c-10.434 0-19.328-6.688-22.633-16H96.5v16zm71.938 16H128.5v56h-16.129zM40.5 328c-10.434 0-19.328-6.688-22.633-16H96.5v7.207L94.738 328zm264 152h-16v-16.184c5.434-.265 10.785-.937 16-2.046zm-20.93-32H181.43a84.28 84.28 0 0 1-67.723-34.016C138.484 421.258 183.371 432 232.5 432s94.016-10.742 118.793-18.016A84.28 84.28 0 0 1 283.57 448zm163.563-136c-3.305 9.313-12.2 16-22.633 16h-54.281l-1.719-8.793V312zM352.5 296h-16.055l.024-56H352.5zm0 0"/></svg>