<svg height="640" viewBox="0 -48 480 480" width="640" xmlns="http://www.w3.org/2000/svg"><path d="M96 72h288c17.672 0 32 14.328 32 32s-14.328 32-32 32H96c-17.672 0-32-14.328-32-32s14.328-32 32-32zm0 0" fill="#abb1ba"/><path d="M96 8h288c17.672 0 32 14.328 32 32s-14.328 32-32 32H96c-17.672 0-32-14.328-32-32S78.328 8 96 8zm0 0" fill="#e9cfb7"/><path d="M24 120h432c8.836 0 16 7.164 16 16s-7.164 16-16 16H24c-8.836 0-16-7.164-16-16s7.164-16 16-16zm0 0" fill="#f7cc38"/><path d="M416 376H64L32 152h416zm0 0" fill="#fce666"/><g fill="#ac8168"><path d="M240 256a8 8 0 0 1-8-8v-32a8 8 0 0 1 16 0v32a8 8 0 0 1-8 8zm0 0M144 256a8 8 0 0 1-8-8v-32a8 8 0 0 1 16 0v32a8 8 0 0 1-8 8zm0 0M192 256a8 8 0 0 1-8-8v-32a8 8 0 0 1 16 0v32a8 8 0 0 1-8 8zm0 0M96 256a8 8 0 0 1-8-8v-32a8 8 0 0 1 16 0v32a8 8 0 0 1-8 8zm0 0M336 256a8 8 0 0 1-8-8v-32a8 8 0 0 1 16 0v32a8 8 0 0 1-8 8zm0 0M288 256a8 8 0 0 1-8-8v-32a8 8 0 0 1 16 0v32a8 8 0 0 1-8 8zm0 0M216 336a8 8 0 0 1-8-8v-32a8 8 0 0 1 16 0v32a8 8 0 0 1-8 8zm0 0M168 336a8 8 0 0 1-8-8v-32a8 8 0 0 1 16 0v32a8 8 0 0 1-8 8zm0 0M312 336a8 8 0 0 1-8-8v-32a8 8 0 0 1 16 0v32a8 8 0 0 1-8 8zm0 0M264 336a8 8 0 0 1-8-8v-32a8 8 0 0 1 16 0v32a8 8 0 0 1-8 8zm0 0M360 336a8 8 0 0 1-8-8v-32a8 8 0 0 1 16 0v32a8 8 0 0 1-8 8zm0 0M384 256a8 8 0 0 1-8-8v-32a8 8 0 0 1 16 0v32a8 8 0 0 1-8 8zm0 0M120 336a8 8 0 0 1-8-8v-32a8 8 0 0 1 16 0v32a8 8 0 0 1-8 8zm0 0"/></g><path d="M456 112h-32.922c.586-2.629.895-5.309.922-8a39.854 39.854 0 0 0-16.246-32c13.894-10.227 19.64-28.23 14.234-44.613C416.582 11 401.254-.051 384 0H96C78.746-.05 63.418 11 58.012 27.387 52.605 43.77 58.352 61.773 72.246 72A39.854 39.854 0 0 0 56 104c.027 2.691.336 5.371.922 8H24c-13.254 0-24 10.746-24 24s10.746 24 24 24h1.063l31.015 217.137A8.004 8.004 0 0 0 64 384h352a8.004 8.004 0 0 0 7.922-6.863L454.937 160H456c13.254 0 24-10.746 24-24s-10.746-24-24-24zM72 40c0-13.254 10.746-24 24-24h288c13.254 0 24 10.746 24 24s-10.746 24-24 24H96c-13.254 0-24-10.746-24-24zm0 64c0-13.254 10.746-24 24-24h288c13.254 0 24 10.746 24 24 0 2.734-.496 5.445-1.465 8H73.465A22.563 22.563 0 0 1 72 104zm337.063 264H70.938L41.222 160h397.554zM456 144H24a8 8 0 0 1 0-16h432a8 8 0 0 1 0 16zm0 0"/><path d="M240 256a8 8 0 0 0 8-8v-32a8 8 0 0 0-16 0v32a8 8 0 0 0 8 8zm0 0M144 256a8 8 0 0 0 8-8v-32a8 8 0 0 0-16 0v32a8 8 0 0 0 8 8zm0 0M192 256a8 8 0 0 0 8-8v-32a8 8 0 0 0-16 0v32a8 8 0 0 0 8 8zm0 0M96 256a8 8 0 0 0 8-8v-32a8 8 0 0 0-16 0v32a8 8 0 0 0 8 8zm0 0M336 256a8 8 0 0 0 8-8v-32a8 8 0 0 0-16 0v32a8 8 0 0 0 8 8zm0 0M288 256a8 8 0 0 0 8-8v-32a8 8 0 0 0-16 0v32a8 8 0 0 0 8 8zm0 0M216 336a8 8 0 0 0 8-8v-32a8 8 0 0 0-16 0v32a8 8 0 0 0 8 8zm0 0M168 336a8 8 0 0 0 8-8v-32a8 8 0 0 0-16 0v32a8 8 0 0 0 8 8zm0 0M312 336a8 8 0 0 0 8-8v-32a8 8 0 0 0-16 0v32a8 8 0 0 0 8 8zm0 0M264 336a8 8 0 0 0 8-8v-32a8 8 0 0 0-16 0v32a8 8 0 0 0 8 8zm0 0M360 336a8 8 0 0 0 8-8v-32a8 8 0 0 0-16 0v32a8 8 0 0 0 8 8zm0 0M384 256a8 8 0 0 0 8-8v-32a8 8 0 0 0-16 0v32a8 8 0 0 0 8 8zm0 0M120 336a8 8 0 0 0 8-8v-32a8 8 0 0 0-16 0v32a8 8 0 0 0 8 8zm0 0"/></svg>