<svg height="640" viewBox="0 -104 480.002 480" width="640" xmlns="http://www.w3.org/2000/svg"><g fill="#ced8dc"><path d="M104 8H8l66.953 44.633L88.945 264H327.06L344 8zm0 0"/><path d="M328 40h96c8.84 0 16 7.164 16 16l-8 96h32l8-112c0-17.672-14.324-32-32-32H328zm0 0"/><path d="M104 8H8l66.953 44.633L88.945 264H327.06L344 8zm0 0"/></g><path d="M320 72c-44.797 0-43.2 16-88 16-44.797 0-51.2-16-96-16-30.352 0-39.398 11.266-56 16h-2.703l11.648 176H327.06l12.71-192zm0 0" fill="#f6a7bd"/><path d="M128 112H78.883l1.062 16H128c4.422 0 8-3.582 8-8s-3.578-8-8-8zm0 0M128 160H82.059l1.062 16H128c4.422 0 8-3.582 8-8s-3.578-8-8-8zm0 0M128 208H85.234l1.063 16H128c4.422 0 8-3.582 8-8s-3.578-8-8-8zm0 0" fill="#7e8589"/><path d="M440 0H8a8 8 0 0 0-4.438 14.656l63.641 42.45 13.719 207.421a7.999 7.999 0 0 0 8 7.473h238.144a7.999 7.999 0 0 0 8-7.473L349.38 48H424a7.95 7.95 0 0 1 8 7.336l-8 96a8.01 8.01 0 0 0 2.098 6.094A8.005 8.005 0 0 0 432 160h32a7.995 7.995 0 0 0 8-7.43L480 40c-.023-22.078-17.918-39.973-40-40zM34.402 16h301.055l-3.2 48.488C328.396 64.2 324.396 64 320 64a115.991 115.991 0 0 0-46.781 8.496A100.805 100.805 0 0 1 232 80a133.668 133.668 0 0 1-45.598-7.633A148.769 148.769 0 0 0 136 64a116.029 116.029 0 0 0-46.79 8.496c-1.6.594-3.198 1.176-4.8 1.754l-1.465-22.145a7.994 7.994 0 0 0-3.543-6.128zm285.176 240H96.426l-2.121-32H128c4.422 0 8-3.582 8-8s-3.578-8-8-8H93.25l-2.121-32H128c4.422 0 8-3.582 8-8s-3.578-8-8-8H90.074L88 128h40c4.422 0 8-3.582 8-8s-3.578-8-8-8H86.898l-1.41-21.27a272.898 272.898 0 0 0 9.29-3.203A100.973 100.973 0 0 1 136 80a133.77 133.77 0 0 1 45.602 7.633A148.667 148.667 0 0 0 232 96a115.998 115.998 0 0 0 46.785-8.496A100.864 100.864 0 0 1 320 80c4.05 0 7.691.184 11.203.45zm136.977-112h-15.856L448 56c0-13.254-10.742-24-24-24h-73.598l1.055-16H440c13.047-.027 23.719 10.39 24 23.434zm0 0"/></svg>