<svg height="640" viewBox="0 -104 480 480" width="640" xmlns="http://www.w3.org/2000/svg"><path d="M24 8h432c8.836 0 16 7.164 16 16s-7.164 16-16 16H24c-8.836 0-16-7.164-16-16S15.164 8 24 8zm0 0" fill="#f7cc38"/><path d="M416 264H64L32 40h416zm0 0" fill="#fce666"/><g fill="#ac8168"><path d="M240 144a8 8 0 0 1-8-8v-32a8 8 0 0 1 16 0v32a8 8 0 0 1-8 8zm0 0M144 144a8 8 0 0 1-8-8v-32a8 8 0 0 1 16 0v32a8 8 0 0 1-8 8zm0 0M192 144a8 8 0 0 1-8-8v-32a8 8 0 0 1 16 0v32a8 8 0 0 1-8 8zm0 0M96 144a8 8 0 0 1-8-8v-32a8 8 0 0 1 16 0v32a8 8 0 0 1-8 8zm0 0M336 144a8 8 0 0 1-8-8v-32a8 8 0 0 1 16 0v32a8 8 0 0 1-8 8zm0 0M288 144a8 8 0 0 1-8-8v-32a8 8 0 0 1 16 0v32a8 8 0 0 1-8 8zm0 0M216 224a8 8 0 0 1-8-8v-32a8 8 0 0 1 16 0v32a8 8 0 0 1-8 8zm0 0M168 224a8 8 0 0 1-8-8v-32a8 8 0 0 1 16 0v32a8 8 0 0 1-8 8zm0 0M312 224a8 8 0 0 1-8-8v-32a8 8 0 0 1 16 0v32a8 8 0 0 1-8 8zm0 0M264 224a8 8 0 0 1-8-8v-32a8 8 0 0 1 16 0v32a8 8 0 0 1-8 8zm0 0M360 224a8 8 0 0 1-8-8v-32a8 8 0 0 1 16 0v32a8 8 0 0 1-8 8zm0 0M384 144a8 8 0 0 1-8-8v-32a8 8 0 0 1 16 0v32a8 8 0 0 1-8 8zm0 0M120 224a8 8 0 0 1-8-8v-32a8 8 0 0 1 16 0v32a8 8 0 0 1-8 8zm0 0"/></g><path d="M24 48h1.063l31.015 217.137A8.004 8.004 0 0 0 64 272h352a8.004 8.004 0 0 0 7.922-6.863L454.937 48H456c13.254 0 24-10.746 24-24S469.254 0 456 0H24C10.746 0 0 10.746 0 24s10.746 24 24 24zm385.063 208H70.938L41.222 48h397.554zM24 16h432a8 8 0 0 1 0 16H24a8 8 0 0 1 0-16zm0 0"/><path d="M240 144a8 8 0 0 0 8-8v-32a8 8 0 0 0-16 0v32a8 8 0 0 0 8 8zm0 0M144 144a8 8 0 0 0 8-8v-32a8 8 0 0 0-16 0v32a8 8 0 0 0 8 8zm0 0M192 144a8 8 0 0 0 8-8v-32a8 8 0 0 0-16 0v32a8 8 0 0 0 8 8zm0 0M96 144a8 8 0 0 0 8-8v-32a8 8 0 0 0-16 0v32a8 8 0 0 0 8 8zm0 0M336 144a8 8 0 0 0 8-8v-32a8 8 0 0 0-16 0v32a8 8 0 0 0 8 8zm0 0M288 144a8 8 0 0 0 8-8v-32a8 8 0 0 0-16 0v32a8 8 0 0 0 8 8zm0 0M216 224a8 8 0 0 0 8-8v-32a8 8 0 0 0-16 0v32a8 8 0 0 0 8 8zm0 0M168 224a8 8 0 0 0 8-8v-32a8 8 0 0 0-16 0v32a8 8 0 0 0 8 8zm0 0M312 224a8 8 0 0 0 8-8v-32a8 8 0 0 0-16 0v32a8 8 0 0 0 8 8zm0 0M264 224a8 8 0 0 0 8-8v-32a8 8 0 0 0-16 0v32a8 8 0 0 0 8 8zm0 0M360 224a8 8 0 0 0 8-8v-32a8 8 0 0 0-16 0v32a8 8 0 0 0 8 8zm0 0M384 144a8 8 0 0 0 8-8v-32a8 8 0 0 0-16 0v32a8 8 0 0 0 8 8zm0 0M120 224a8 8 0 0 0 8-8v-32a8 8 0 0 0-16 0v32a8 8 0 0 0 8 8zm0 0"/></svg>