<svg height="479pt" viewBox="0 -31 479.996 479" width="479pt" xmlns="http://www.w3.org/2000/svg"><path d="M388.074 136.5h-92.07l21.3-74.559C323.54 40.125 349.669 24.5 379.93 24.5h92.074l-21.305 74.563c-6.234 21.816-32.36 37.437-62.625 37.437zm0 0" fill="#60a2d7"/><g fill="#a3d4f7"><path d="M368.004 280.5c0 17.676-14.328 32-32 32-17.676 0-32-14.324-32-32 0-24 32-80 32-80s32 56 32 80zm0 0M272.004 376.5c0 17.676-14.328 32-32 32-17.676 0-32-14.324-32-32 0-24 32-80 32-80s32 56 32 80zm0 0M176.004 280.5c0 17.676-14.328 32-32 32-17.676 0-32-14.324-32-32 0-24 32-80 32-80s32 56 32 80zm0 0"/></g><path d="M100.074 136.5H8.004l21.3-74.559C35.54 40.125 61.669 24.5 91.93 24.5h92.074l-21.305 74.563c-6.234 21.816-32.36 37.437-62.625 37.437zm0 0" fill="#60a2d7"/><path d="M244.074 152.5h-92.07l24-96c5.836-28.328 31.008-48.488 59.926-48h92.074l-24 96c-5.836 28.328-31.012 48.492-59.93 48zm0 0" fill="#688cba"/><path d="M376.004 280.5c0-25.39-29.672-78.047-33.059-84a8.32 8.32 0 0 0-13.887 0c-3.382 5.953-33.054 58.61-33.054 84 0 22.094 17.906 40 40 40 22.09 0 40-17.906 40-40zm-64 0c0-14.14 13.902-43.91 24-63.246 10.094 19.336 24 49.105 24 63.246 0 13.258-10.746 24-24 24-13.258 0-24-10.742-24-24zm0 0M280.004 376.5c0-25.39-29.672-78.047-33.059-84a8.32 8.32 0 0 0-13.887 0c-3.382 5.953-33.054 58.61-33.054 84 0 22.094 17.906 40 40 40 22.09 0 40-17.906 40-40zm-64 0c0-14.14 13.902-43.91 24-63.246 10.094 19.336 24 49.105 24 63.246 0 13.258-10.746 24-24 24-13.258 0-24-10.742-24-24zm0 0M184.004 280.5c0-25.39-29.672-78.047-33.059-84a8.32 8.32 0 0 0-13.887 0c-3.382 5.953-33.054 58.61-33.054 84 0 22.094 17.906 40 40 40 22.09 0 40-17.906 40-40zm-64 0c0-14.14 13.902-43.91 24-63.246 10.094 19.336 24 49.105 24 63.246 0 13.258-10.746 24-24 24-13.258 0-24-10.742-24-24zm0 0M334.305 3.582A8.006 8.006 0 0 0 328.004.5H235.93a68.995 68.995 0 0 0-47.063 17.914 7.868 7.868 0 0 0-4.863-1.914H91.93c-34.13 0-63.047 17.785-70.328 43.25L.305 134.309a7.997 7.997 0 0 0 1.312 7.015 7.992 7.992 0 0 0 6.387 3.176h92.07a84.845 84.845 0 0 0 49.399-14.863l-5.23 20.93a7.995 7.995 0 0 0 7.76 9.933h92.071a68.966 68.966 0 0 0 47.063-17.91 7.865 7.865 0 0 0 4.867 1.91h92.07c34.13 0 63.047-17.781 70.32-43.246l21.297-74.559a8.002 8.002 0 0 0-7.688-10.195H379.93a84.877 84.877 0 0 0-49.399 14.867l5.23-20.93a7.996 7.996 0 0 0-1.456-6.855zM100.075 128.5H18.608l18.403-64.36C42.234 45.806 65.34 32.5 91.93 32.5h81.465l-18.399 64.363C149.77 115.2 126.668 128.5 100.074 128.5zm144 16H162.25l21.602-86.262c5.109-24.597 26.957-42.11 52.078-41.738h81.824l-21.559 86.266c-5.113 24.613-26.984 42.129-52.12 41.734zm135.855-112h81.465l-18.399 64.363C437.77 115.2 414.668 128.5 388.074 128.5H306.61l18.403-64.36c5.222-18.335 28.328-31.64 54.918-31.64zm0 0"/></svg>