<svg height="640" viewBox="0 -24 480 480" width="640" xmlns="http://www.w3.org/2000/svg"><path d="M472 136h-64V88c0-32 24-80 32-80s32 48 32 80zm0 0" fill="#e9cfb7"/><path d="M56 72h112c8.836 0 16 7.164 16 16s-7.164 16-16 16H56c-8.836 0-16-7.164-16-16s7.164-16 16-16zm0 0" fill="#60a2d7"/><path d="M56 40h112c8.836 0 16 7.164 16 16s-7.164 16-16 16H56c-8.836 0-16-7.164-16-16s7.164-16 16-16zm0 0" fill="#a3d4f7"/><path d="M56 8h112c8.836 0 16 7.164 16 16s-7.164 16-16 16H56c-8.836 0-16-7.164-16-16S47.164 8 56 8zm0 0" fill="#60a2d7"/><path d="M24 104h384v32H24c-8.836 0-16-7.164-16-16s7.164-16 16-16zm0 0" fill="#ee638c"/><g fill="#4f3328"><path d="M72 432a7.998 7.998 0 0 1-7.434-5.04 7.994 7.994 0 0 1 1.93-8.769l304-288a8.004 8.004 0 0 1 11.313.305 8.004 8.004 0 0 1-.305 11.313l-304 288A8.015 8.015 0 0 1 72 432zm0 0"/><path d="M376 432a8.015 8.015 0 0 1-5.504-2.191l-304-288a8.004 8.004 0 0 1-.305-11.313 8.004 8.004 0 0 1 11.313-.305l304 288a7.994 7.994 0 0 1 1.93 8.77A7.998 7.998 0 0 1 376 432zm0 0"/><path d="M472 128H24c-4.418 0-8-3.582-8-8a8 8 0 0 0-16 0c0 13.254 10.746 24 24 24h448a8 8 0 0 0 0-16zm0 0"/></g><path d="M440 0c-17.602 0-40 59.656-40 88v8H190.527a23.263 23.263 0 0 0-4.8-24c8.32-9.043 8.32-22.957 0-32A23.893 23.893 0 0 0 168 0H56a23.895 23.895 0 0 0-21.945 14.2A23.9 23.9 0 0 0 38.238 40c-8.32 9.043-8.32 22.957 0 32a23.27 23.27 0 0 0-4.797 24H24c-13.254 0-24 10.746-24 24s10.746 24 24 24h44.8l143.567 136-145.87 138.191a8.004 8.004 0 0 0-.306 11.313 8.004 8.004 0 0 0 11.313.305L224 291.016l146.496 138.793a8.004 8.004 0 0 0 11.313-.305 8.004 8.004 0 0 0-.305-11.313L235.633 280l143.566-136H472a8 8 0 0 0 8-8V88c0-28.344-22.398-88-40-88zM48 56a8 8 0 0 1 8-8h112a8 8 0 0 1 0 16H56a8 8 0 0 1-8-8zm8-40h112a8 8 0 0 1 0 16H56a8 8 0 0 1 0-16zm-8 72a8 8 0 0 1 8-8h112a8 8 0 0 1 0 16H56a8 8 0 0 1-8-8zm-32 32a8 8 0 0 1 8-8h376v16H24a8 8 0 0 1-8-8zm208 148.984L92.078 144h263.844zM464 128h-48V88a146.656 146.656 0 0 1 24-70.078A146.656 146.656 0 0 1 464 88zm0 0"/></svg>