<svg height="640" viewBox="0 -40 480.017 480" width="640" xmlns="http://www.w3.org/2000/svg"><path d="M376.02 56.008a79.682 79.682 0 0 0-10.696.8c-24.726-29.12-71.535-48.8-125.304-48.8-69.47 0-127.438 32.8-140.993 76.441-45.476 11.656-75.007 30.406-75.007 51.559 0 35.344 82.402 64 184 64 6.859 0 13.601-.145 20.273-.39 3.879.206 7.77.39 11.727.39 19.664.05 39.234-2.711 58.113-8.207a330.034 330.034 0 0 0 17.152-3.809c24.04 28.117 64.219 36.09 97.172 19.274 32.95-16.813 50.074-54.028 41.41-89.993-8.66-35.964-40.851-61.296-77.847-61.265zm0 0" fill="#abb1ba"/><path d="M456.02 128.008c0-39.766-35.817-72-80-72-44.18 0-80 32.234-80 72 0 39.765 35.82 72 80 72 44.183 0 80-32.235 80-72zm0 0" fill="#e9cfb7"/><path d="M360.02 132.008c0-33.137-75.215-60-168-60-92.782 0-168 26.863-168 60s75.218 60 168 60c92.785 0 168-26.863 168-60zm0 0" fill="#ac8168"/><path d="M24.02 136.008h432c8.84 0 16 7.164 16 16s-7.16 16-16 16h-432c-8.836 0-16-7.164-16-16s7.164-16 16-16zm0 0" fill="#f7cc38"/><path d="M416.02 392.008h-352l-32-224h416zm0 0" fill="#fce666"/><g fill="#ac8168"><path d="M240.02 272.008a8 8 0 0 1-8-8v-32a8 8 0 0 1 16 0v32a8 8 0 0 1-8 8zm0 0M144.02 272.008a8 8 0 0 1-8-8v-32a8 8 0 0 1 16 0v32a8 8 0 0 1-8 8zm0 0M192.02 272.008a8 8 0 0 1-8-8v-32a8 8 0 0 1 16 0v32a8 8 0 0 1-8 8zm0 0M96.02 272.008a8 8 0 0 1-8-8v-32a8 8 0 0 1 16 0v32a8 8 0 0 1-8 8zm0 0M336.02 272.008a8 8 0 0 1-8-8v-32a8 8 0 0 1 16 0v32a8 8 0 0 1-8 8zm0 0M288.02 272.008a8 8 0 0 1-8-8v-32a8 8 0 0 1 16 0v32a8 8 0 0 1-8 8zm0 0M216.02 352.008a8 8 0 0 1-8-8v-32a8 8 0 0 1 16 0v32a8 8 0 0 1-8 8zm0 0M168.02 352.008a8 8 0 0 1-8-8v-32a8 8 0 0 1 16 0v32a8 8 0 0 1-8 8zm0 0M312.02 352.008a8 8 0 0 1-8-8v-32a8 8 0 0 1 16 0v32a8 8 0 0 1-8 8zm0 0M264.02 352.008a8 8 0 0 1-8-8v-32a8 8 0 0 1 16 0v32a8 8 0 0 1-8 8zm0 0M360.02 352.008a8 8 0 0 1-8-8v-32a8 8 0 0 1 16 0v32a8 8 0 0 1-8 8zm0 0M384.02 272.008a8 8 0 0 1-8-8v-32a8 8 0 0 1 16 0v32a8 8 0 0 1-8 8zm0 0M120.02 352.008a8 8 0 0 1-8-8v-32a8 8 0 0 1 16 0v32a8 8 0 0 1-8 8zm0 0"/></g><path d="M463.684 129.375c-3.493-45.852-41.68-81.293-87.664-81.367a90.59 90.59 0 0 0-7.52.328C340.82 18.41 292.133.008 240.02.008c-69.024 0-129.743 32.297-147.008 77.441a235.288 235.288 0 0 0-22.977 7.649c-1.27.48-2.55.949-3.781 1.437-.555.235-1.121.457-1.664.7-27.77 11.3-44.192 25.703-47.77 42C5.512 132.75-1.523 144.014.277 155.722c1.805 11.707 11.899 20.332 23.743 20.285h1.058l31.024 217.137a8 8 0 0 0 7.918 6.863h352a8 8 0 0 0 7.921-6.863l31.024-217.137h1.055c11.746.031 21.777-8.465 23.68-20.055 1.905-11.586-4.88-22.848-16.016-26.578zM240.02 16.008c43.433 0 83.953 13.601 109.488 36.137A87.825 87.825 0 0 0 323.109 65.8 8.001 8.001 0 0 0 321.508 77a8.002 8.002 0 0 0 11.199 1.602 71.331 71.331 0 0 1 33.379-13.832h.254a86.597 86.597 0 0 1 5.074-.547c1.566-.118 3.078-.215 4.606-.215 2.402 0 4.8.129 7.113.36.8.081 1.535.226 2.305.327 1.55.211 3.093.41 4.617.707.902.184 1.78.43 2.672.637 1.351.328 2.703.64 4 1.043.925.277 1.832.613 2.742.934 1.238.425 2.48.855 3.687 1.343.914.38 1.809.801 2.711 1.22a76.342 76.342 0 0 1 3.418 1.644c.887.465 1.762.968 2.625 1.465a89.276 89.276 0 0 1 3.2 1.937 78.562 78.562 0 0 1 5.44 3.91 68.152 68.152 0 0 1 2.352 1.938c.914.8 1.817 1.62 2.703 2.465a65.758 65.758 0 0 1 2.168 2.136c.848.88 1.664 1.79 2.465 2.711.664.758 1.336 1.52 1.965 2.313.8.957 1.488 1.949 2.211 2.949.59.8 1.191 1.601 1.742 2.473.688 1.039 1.313 2.12 1.946 3.199.503.86 1.03 1.707 1.496 2.586.617 1.144 1.152 2.328 1.695 3.511.398.864.84 1.711 1.207 2.594.563 1.344 1.023 2.727 1.504 4.11.273.8.586 1.511.8 2.289a75.468 75.468 0 0 1 1.696 6.593c.137.672.207 1.36.32 2.024.274 1.52.528 3.039.703 4.582H34.34c.191-.367.32-.727.539-1.094.453-.762.988-1.512 1.55-2.273.7-.965 1.45-1.891 2.247-2.778.672-.726 1.418-1.445 2.183-2.175.97-.918 1.977-1.84 3.106-2.743.914-.746 1.914-1.472 2.93-2.199 1.183-.86 2.398-1.715 3.726-2.555s2.574-1.597 3.93-2.343c1.351-.743 2.597-1.473 4-2.2 1.652-.863 3.414-1.703 5.222-2.543a170.385 170.385 0 0 1 3.918-1.785c2.153-.918 4.41-1.824 6.723-2.71 1.2-.465 2.398-.93 3.64-1.376 2.637-.953 5.391-1.875 8.223-2.777 1.106-.352 2.207-.703 3.344-1.047a277.526 277.526 0 0 1 9.602-2.707A434.45 434.45 0 0 1 208.02 80.008a8 8 0 0 0 0-16 474.419 474.419 0 0 0-95.016 8.746C132.859 39.16 183.14 16.008 240.02 16.008zm169.066 368H70.957l-29.71-208h397.55zm46.934-224h-432a8 8 0 0 1 0-16h432a8 8 0 0 1 0 16zm0 0"/><path d="M240.02 272.008a8 8 0 0 0 8-8v-32a8 8 0 0 0-16 0v32a8 8 0 0 0 8 8zm0 0M144.02 272.008a8 8 0 0 0 8-8v-32a8 8 0 0 0-16 0v32a8 8 0 0 0 8 8zm0 0M192.02 272.008a8 8 0 0 0 8-8v-32a8 8 0 0 0-16 0v32a8 8 0 0 0 8 8zm0 0M96.02 272.008a8 8 0 0 0 8-8v-32a8 8 0 0 0-16 0v32a8 8 0 0 0 8 8zm0 0M336.02 272.008a8 8 0 0 0 8-8v-32a8 8 0 0 0-16 0v32a8 8 0 0 0 8 8zm0 0M288.02 272.008a8 8 0 0 0 8-8v-32a8 8 0 0 0-16 0v32a8 8 0 0 0 8 8zm0 0M216.02 352.008a8 8 0 0 0 8-8v-32a8 8 0 0 0-16 0v32a8 8 0 0 0 8 8zm0 0M168.02 352.008a8 8 0 0 0 8-8v-32a8 8 0 0 0-16 0v32a8 8 0 0 0 8 8zm0 0M312.02 352.008a8 8 0 0 0 8-8v-32a8 8 0 0 0-16 0v32a8 8 0 0 0 8 8zm0 0M264.02 352.008a8 8 0 0 0 8-8v-32a8 8 0 0 0-16 0v32a8 8 0 0 0 8 8zm0 0M360.02 352.008a8 8 0 0 0 8-8v-32a8 8 0 0 0-16 0v32a8 8 0 0 0 8 8zm0 0M384.02 272.008a8 8 0 0 0 8-8v-32a8 8 0 0 0-16 0v32a8 8 0 0 0 8 8zm0 0M120.02 352.008a8 8 0 0 0 8-8v-32a8 8 0 0 0-16 0v32a8 8 0 0 0 8 8zm0 0"/></svg>