<svg height="640" viewBox="0 -112 480 480" width="640" xmlns="http://www.w3.org/2000/svg"><path d="M472 64l-64 32V32h64zm0 0M24 216h352v32H8v-16c0-8.836 7.164-16 16-16zm0 0" fill="#ac8168"/><path d="M424 8H232C117.125 8 24 101.125 24 216h368c0-22.086 21.488-40 48-40zm-32 128H160c0-44.184 35.816-80 80-80h152zm0 0" fill="#e9cfb7"/><path d="M216 104h32c8.836 0 16 7.164 16 16v16h-64v-16c0-8.836 7.164-16 16-16zm0 0" fill="#ac8168"/><path d="M472 24h-38.398L432 7.238A8.001 8.001 0 0 0 424 0H232C115.34.148 19.832 92.82 16.168 209.426A23.945 23.945 0 0 0 0 232v16a8 8 0 0 0 8 8h368a8 8 0 0 0 8-8v-24h8a8 8 0 0 0 8-8c0-17.648 17.945-32 40-32a8.005 8.005 0 0 0 5.945-2.605 8.003 8.003 0 0 0 2.055-6.157l-8.246-86.168 35.82-17.87A7.997 7.997 0 0 0 480 64V32a8 8 0 0 0-8-8zM368 240H16v-8a8 8 0 0 1 8-8h344zm16.8-32H32.16C36.578 100.797 124.707 16.129 232 16h184.727l14.53 152.586c-22.269 1.976-40.878 17.766-46.456 39.414zM464 59.055L438.137 72l-3.047-32H464zm0 0"/><path d="M392 48H240c-48.578.059-87.941 39.422-88 88a8 8 0 0 0 8 8h232a8 8 0 0 0 8-8V56a8 8 0 0 0-8-8zm-184 80v-8a8 8 0 0 1 8-8h32a8 8 0 0 1 8 8v8zm176 0H272v-8c0-13.254-10.746-24-24-24h-32c-13.254 0-24 10.746-24 24v8h-23.55c4.113-36.418 34.898-63.957 71.55-64h144zm0 0"/></svg>