<svg height="640" viewBox="0 0 480.002 480" width="640" xmlns="http://www.w3.org/2000/svg"><path d="M472 136l-88-80h-96c0 26.512-21.488 48-48 48-26.508 0-48-21.488-48-48H96L8 128l56 88 32-29.086V472h288V189.816L416 216zm0 0" fill="#60a2d7"/><path d="M472 32H8a8 8 0 0 1 0-16h464c4.422 0 8 3.582 8 8s-3.578 8-8 8zm0 0" fill="#7e8589"/><path d="M136 80a8 8 0 0 1-8-8V8a8 8 0 0 1 16 0v64c0 4.418-3.578 8-8 8zm0 0M344 80a8 8 0 0 1-8-8V8a8 8 0 0 1 16 0v64c0 4.418-3.578 8-8 8zm0 0" fill="#e9cfb7"/><path d="M472 16H352V8a8 8 0 0 0-16 0v8H144V8a8 8 0 0 0-16 0v8H8a8 8 0 0 0 0 16h120v16H96c-1.844 0-3.633.64-5.063 1.809l-88 72a8 8 0 0 0-1.687 10.488l56 88a7.988 7.988 0 0 0 5.688 3.633 8.082 8.082 0 0 0 6.449-2.008L88 204.992V472a8 8 0 0 0 8 8h288c4.422 0 8-3.582 8-8V206.703l18.938 15.488a7.99 7.99 0 0 0 6.156 1.735 8.014 8.014 0 0 0 5.46-3.332l56-80a7.998 7.998 0 0 0-1.167-10.504l-88-80A8.013 8.013 0 0 0 384 48h-32V32h120c4.422 0 8-3.582 8-8s-3.578-8-8-8zm-91.094 48l80.504 73.184-47.015 67.203-25.329-20.715A8.001 8.001 0 1 0 376 189.824V464H104V186.914a8 8 0 0 0-13.383-5.922l-24.969 22.696-47.085-73.993L98.859 64H128v8a8 8 0 0 0 16 0v-8h40.57c3.957 27.574 27.578 48.047 55.43 48.047 27.855 0 51.477-20.473 55.434-48.047H336v8a8 8 0 0 0 16 0v-8zM336 48h-48a8 8 0 0 0-8 8c0 22.094-17.906 40-40 40-22.09 0-40-17.906-40-40 0-4.418-3.578-8-8-8h-48V32h192zm0 0"/></svg>