<svg height="479pt" viewBox="-16 0 479 479.991" width="479pt" xmlns="http://www.w3.org/2000/svg"><path d="M347.059 120.398L232.53 82.633V62.855c16.063-4.187 26.242-19.972 23.426-36.332C253.141 10.168 238.27-1.309 221.734.117c-16.539 1.426-29.226 15.278-29.203 31.875a8 8 0 0 0 16 0c0-8.836 7.164-16 16-16s16 7.164 16 16-7.164 16-16 16a8 8 0 0 0-8 8v26.64l-114.527 37.766a8.008 8.008 0 1 0 5.055 15.2L224.53 96.414l117.473 39.16c4.195 1.399 8.73-.875 10.129-5.07a8.012 8.012 0 0 0-5.074-10.129zm0 0" fill="#ac8168"/><path d="M440.531 183.992l-88-64-80-24c0 26.504-21.488 56-48 56s-48-29.496-48-56l-80 24-88 56 56 88 32-29.097v237.097h256V237.81l32 26.183zm0 0" fill="#60a2d7"/><path d="M224.531 47.992a8 8 0 0 0-8 8V82.23l-42.039 14.008-79.562 15.914a8.047 8.047 0 0 0-2.727 1.086l-88 56c-3.73 2.371-4.828 7.32-2.457 11.051l56 88a8.004 8.004 0 0 0 12.137 1.598l18.648-16.903v219.008a8 8 0 0 0 8 8h256a8 8 0 0 0 8-8V254.695l18.938 15.489a7.83 7.83 0 0 0 6.16 1.726 7.932 7.932 0 0 0 5.453-3.336l56-80c2.504-3.57 1.68-8.488-1.848-11.054l-88-64a7.93 7.93 0 0 0-3.132-1.368L274.57 96.238 232.531 82.23V62.855c16.063-4.187 26.242-19.972 23.426-36.332C253.141 10.168 238.27-1.309 221.734.117c-16.539 1.426-29.226 15.278-29.203 31.875a8 8 0 0 0 16 0c0-8.836 7.164-16 16-16s16 7.164 16 16-7.164 16-16 16zm0 48.43l39.442 13.168c-2.7 19.715-19.543 34.41-39.442 34.41s-36.738-14.695-39.441-34.41zm204.946 89.418l-46.547 66.504-25.325-20.727a7.998 7.998 0 0 0-8.503-1.043 8.002 8.002 0 0 0-4.57 7.242v226.176h-240V234.895a8 8 0 0 0-13.384-5.918L66.18 251.68l-46.61-73.23 80-50.907 69.762-13.953c4.656 26.836 27.941 46.43 55.176 46.43 27.234 0 50.52-19.594 55.176-46.43l69.535 13.914zm0 0"/></svg>