<svg height="640" viewBox="0 0 480 480.464" width="640" xmlns="http://www.w3.org/2000/svg"><path d="M8.23 256.23h464v24h-464zm0 0" fill="#ac8168"/><path d="M476.098 241.031L248.23 115.273V79.191c20.625-4.21 34.457-23.683 31.641-44.543C277.06 13.79 258.555-1.32 237.555.09c-21 1.41-37.32 18.851-37.325 39.902a8 8 0 0 0 16 0c0-13.254 10.747-24 24-24 13.258 0 24 10.746 24 24s-10.742 24-24 24a8 8 0 0 0-8 8v43.281L4.367 241.031A8.008 8.008 0 0 0 .23 248v32a8 8 0 0 0 8 8h464a8 8 0 0 0 8-8v-32a7.996 7.996 0 0 0-4.132-6.969zM464.23 272h-448v-19.273l224-123.59 224 123.59zm0 0" fill="#ac8168"/><path d="M96.23 247.992h288v208.48c0 8.837-7.16 16-16 16h-256c-8.835 0-16-7.163-16-16zm0 0" fill="#f6a7bd"/><path d="M96.23 391.992h288v32h-288zm0 0" fill="#fef1d8"/><path d="M476.098 241.031L248.23 115.273V79.191c20.625-4.21 34.457-23.683 31.641-44.543C277.06 13.79 258.555-1.32 237.555.09c-21 1.41-37.32 18.851-37.325 39.902a8 8 0 0 0 16 0c0-13.254 10.747-24 24-24 13.258 0 24 10.746 24 24s-10.742 24-24 24a8 8 0 0 0-8 8v43.281L4.367 241.031A8.008 8.008 0 0 0 .23 248v32a8 8 0 0 0 8 8h80v168.465c0 13.254 10.747 24 24 24h256c13.258 0 24-10.746 24-24V288h80a8 8 0 0 0 8-8v-32a7.996 7.996 0 0 0-4.132-6.969zM240.23 129.137L441.594 240.23H38.87zM16.23 272v-15.77h72V272zm360 184.465a8 8 0 0 1-8 8h-256a8 8 0 0 1-8-8V432h272zm0-40.465h-272v-16h272zm-272-32V256.23h272V384zm288-112v-15.77h72V272zm0 0"/></svg>