<svg height="640" viewBox="-56 0 480 480" width="640" xmlns="http://www.w3.org/2000/svg"><path d="M8 8h352v464H8zm0 0" fill="#ced8dc"/><path d="M184 384c-61.855 0-112-50.145-112-112s50.145-112 112-112 112 50.145 112 112c-.066 61.828-50.172 111.934-112 112zm0-208c-53.02 0-96 42.98-96 96s42.98 96 96 96 96-42.98 96-96c-.059-52.996-43.004-95.941-96-96zm0 0" fill="#fff"/><path d="M256 272c0 39.766-32.234 72-72 72s-72-32.234-72-72 32.234-72 72-72 72 32.234 72 72zm0 0" fill="#688cba"/><path d="M8 8h352v96H8zm0 0" fill="#7e8589"/><path d="M240 40h88v32h-88zm0 0" fill="#ced8dc"/><path d="M184 72c-8.836 0-16-7.164-16-16s7.164-16 16-16 16 7.164 16 16-7.164 16-16 16zm0-16" fill="#fff"/><path d="M8 8h112v96H8zm0 0" fill="#414649"/><path d="M88 64H40a8 8 0 0 1 0-16h48a8 8 0 0 1 0 16zm0 0M8 440h352v32H8zm0 0" fill="#7e8589"/><path d="M232 296c-13.254 0-24-10.746-24-24 0 13.254-10.746 24-24 24s-24-10.746-24-24c0 13.254-10.746 24-24 24s-24-10.746-24-24c0 39.766 32.234 72 72 72s72-32.234 72-72c0 13.254-10.746 24-24 24zm0 0M168 240a8 8 0 1 1-16 0 8 8 0 0 1 16 0zm0 0" fill="#a3d4f7"/><path d="M88 48H40a8 8 0 0 0 0 16h48a8 8 0 0 0 0-16zm0 0"/><path d="M360 0H8a8 8 0 0 0-8 8v464a8 8 0 0 0 8 8h352a8 8 0 0 0 8-8V8a8 8 0 0 0-8-8zM16 112h336v320H16zm336-16H128V16h224zM16 16h96v80H16zm0 448v-16h336v16zm0 0"/><path d="M240 80h88a8 8 0 0 0 8-8V40a8 8 0 0 0-8-8h-88a8 8 0 0 0-8 8v32a8 8 0 0 0 8 8zm8-32h72v16h-72zm0 0M200 56c0 8.836-7.164 16-16 16s-16-7.164-16-16 7.164-16 16-16 16 7.164 16 16zm0 0M184 160c-61.855 0-112 50.145-112 112s50.145 112 112 112 112-50.145 112-112c-.066-61.828-50.172-111.934-112-112zm0 208c-53.02 0-96-42.98-96-96s42.98-96 96-96 96 42.98 96 96c-.059 52.996-43.004 95.941-96 96zm0 0"/><path d="M184 192c-44.184 0-80 35.816-80 80s35.816 80 80 80 80-35.816 80-80c-.047-44.164-35.836-79.953-80-80zm0 16c35.328.04 63.96 28.672 64 64 0 8.836-7.164 16-16 16s-16-7.164-16-16a8 8 0 0 0-16 0c0 8.836-7.164 16-16 16s-16-7.164-16-16a8 8 0 0 0-16 0c0 8.836-7.164 16-16 16s-16-7.164-16-16c.04-35.328 28.672-63.96 64-64zm0 128a64.045 64.045 0 0 1-56-33.145 30.934 30.934 0 0 0 32-9.91 31.581 31.581 0 0 0 48 0 30.927 30.927 0 0 0 32.04 9.91A64.043 64.043 0 0 1 184 336zm0 0"/><path d="M168 240a8 8 0 1 1-16 0 8 8 0 0 1 16 0zm0 0"/></svg>