<svg height="511pt" viewBox="-4 0 511 511.999" width="511pt" xmlns="http://www.w3.org/2000/svg"><path d="M375.754 324.773l-9.324 29.5h68.703l-9.324-29.5zm0 0" fill="#c7d2e5"/><path d="M375.754 324.773l-9.324 29.5h35l9.324-29.5zm0 0" fill="#bac7db"/><path d="M451.18 380.098V366.03c0-7.14-5.84-12.984-12.98-12.984h-74.833c-7.14 0-12.984 5.844-12.984 12.984v14.067c0 7.14 5.844 12.98 12.984 12.98H438.2c7.14 0 12.98-5.84 12.98-12.98zm0 0" fill="#e4eaf8"/><path d="M385.383 380.098V366.03c0-7.14 5.844-12.984 12.984-12.984h-35c-7.14 0-12.984 5.844-12.984 12.984v14.067c0 7.14 5.844 12.98 12.984 12.98h35c-7.14 0-12.984-5.84-12.984-12.98zm0 0M70.988 324.773l-9.32 29.5h68.7l-9.321-29.5zm0 0" fill="#c7d2e5"/><path d="M70.988 324.773l-9.32 29.5h35l9.32-29.5zm0 0" fill="#bac7db"/><path d="M146.414 380.098V366.03c0-7.14-5.84-12.984-12.98-12.984H58.602c-7.141 0-12.98 5.844-12.98 12.984v14.067c0 7.14 5.839 12.98 12.98 12.98h74.832c7.14 0 12.98-5.84 12.98-12.98zm0 0" fill="#e4eaf8"/><path d="M80.621 380.098V366.03c0-7.14 5.84-12.984 12.98-12.984h-35c-7.14 0-12.98 5.844-12.98 12.984v14.067c0 7.14 5.84 12.98 12.98 12.98h35c-7.14 0-12.98-5.84-12.98-12.98zm0 0M405.695 167.094h-64.828c-4.605 0-9.152-.27-13.625-.778v30.43c0 12.441-10.086 22.524-22.523 22.524h-9.637c-8.11 0-15.594 4.359-19.594 11.41l-31.84 56.144h239.403V244.45c0-42.722-34.633-77.355-77.356-77.355zm0 0" fill="#c7d2e5"/><path d="M333.055 219.27h9.64c12.438 0 22.52-10.083 22.52-22.52v-29.652h-24.348c-4.605 0-9.148-.27-13.625-.782v30.434c0 12.438-10.082 22.52-22.523 22.52h-9.637c-8.11 0-15.59 4.359-19.59 11.414l-31.84 56.144h37.973l31.84-56.144a22.518 22.518 0 0 1 19.59-11.414zm0 0" fill="#bac7db"/><path d="M296.297 221.012h12.426c11.332 0 20.52-9.188 20.52-20.52v-33.957c-59.477-5.75-106.716-55.129-107.63-116.027-.011-1.04-.02-2.086-.02-3.14H21.442v239.46H247.02l31.425-55.418a20.514 20.514 0 0 1 17.852-10.398zm0 0" fill="#e4eaf8"/><path d="M21.441 47.363h35v239.461h-35zm0 0" fill="#c7d2e5"/><path d="M230.879 209.934l-12.246-6.918c-6.219-3.508-14.18-1.293-17.692 4.922l-44.543 78.89h45.97l33.433-59.207c3.512-6.219 1.297-14.176-4.922-17.687zm0 0" fill="#feca57"/><path d="M230.879 209.934l-12.246-6.918c-6.219-3.508-14.18-1.293-17.692 4.922l-44.543 78.89h31.551l43.29-76.664c-.122-.078-.235-.16-.36-.23zm0 0" fill="#f4b537"/><path d="M163.902 47.363H21.442v40.032h110.882c6.317 0 12.113-3.48 15.082-9.055zm0 0" fill="#54a0ff"/><path d="M21.441 47.363h35v40.032h-35zm0 0" fill="#2c80e5"/><path d="M142.586 211.027c0 25.715-20.852 46.567-46.566 46.567-25.72 0-46.57-20.852-46.57-46.567 0-25.718 20.85-46.57 46.57-46.57 25.714 0 46.566 20.852 46.566 46.57zm0 0" fill="#576574"/><path d="M83.8 211.027c0-19.652 12.18-36.445 29.395-43.285a46.472 46.472 0 0 0-17.175-3.285c-25.72 0-46.567 20.852-46.567 46.57 0 25.715 20.848 46.567 46.567 46.567 6.066 0 11.859-1.176 17.175-3.285-17.215-6.84-29.394-23.633-29.394-43.282zm0 0" fill="#3e4b5a"/><path d="M221.594 7.336H21.44c-7.14 0-12.984 5.84-12.984 12.98v16.067c0 7.14 5.844 12.984 12.984 12.984h200.153c7.14 0 12.98-5.844 12.98-12.984V20.316c0-7.14-5.84-12.98-12.98-12.98zm0 0" fill="#8ac2ff"/><path d="M221.594 22.05H21.44c-5.125 0-9.57-3.019-11.675-7.359a12.859 12.859 0 0 0-1.309 5.625v16.067c0 7.14 5.844 12.984 12.984 12.984h200.153c7.14 0 12.98-5.844 12.98-12.984V20.316c0-2.011-.476-3.918-1.304-5.625-2.11 4.34-6.551 7.36-11.676 7.36zm0 0" fill="#6fb1ff"/><path d="M483.05 284.824H21.442c-7.14 0-12.984 5.844-12.984 12.985v16.066c0 7.14 5.844 12.98 12.984 12.98h461.61c7.14 0 12.984-5.84 12.984-12.98v-16.066c0-7.141-5.844-12.985-12.984-12.985zm0 0" fill="#576574"/><path d="M483.05 299.543H21.442c-5.125 0-9.57-3.02-11.675-7.36a12.846 12.846 0 0 0-1.309 5.626v16.066c0 7.14 5.844 12.98 12.984 12.98h461.61c7.14 0 12.984-5.84 12.984-12.98v-16.066c0-2.016-.48-3.918-1.308-5.625-2.106 4.34-6.551 7.359-11.676 7.359zm0 0M115.402 211.027c0 10.703-8.68 19.383-19.382 19.383-10.707 0-19.387-8.68-19.387-19.383 0-10.707 8.68-19.386 19.387-19.386 10.703 0 19.382 8.68 19.382 19.386zm0 0" fill="#3e4b5a"/><path d="M103.816 211.027c0-5.41 2.22-10.297 5.793-13.812-3.5-3.445-8.293-5.574-13.59-5.574-10.707 0-19.386 8.68-19.386 19.386 0 10.703 8.68 19.383 19.387 19.383 5.296 0 10.09-2.129 13.59-5.574a19.309 19.309 0 0 1-5.794-13.809zm0 0" fill="#374451"/><path d="M68.676 211.191c0 14.825 12.058 26.883 26.883 26.883 14.824 0 26.886-12.058 26.886-26.883 0-14.824-12.062-26.886-26.886-26.886-14.825 0-26.883 12.062-26.883 26.886zm38.765 0c0 6.555-5.328 11.883-11.882 11.883-6.555 0-11.883-5.328-11.883-11.883 0-6.554 5.328-11.886 11.883-11.886 6.554 0 11.882 5.332 11.882 11.886zm0 0M443.418 424.227a7.497 7.497 0 0 0 0-10.606 7.497 7.497 0 0 0-10.605 0c-18.13 18.129-47.63 18.129-65.758 0a7.497 7.497 0 0 0-10.606 0 7.497 7.497 0 0 0 0 10.606c23.973 23.972 62.988 23.98 86.969 0zm0 0"/><path d="M331.848 438.219a7.497 7.497 0 0 0 0 10.605c37.632 37.633 98.535 37.637 136.172 0a7.497 7.497 0 0 0 0-10.605 7.497 7.497 0 0 0-10.606 0c-31.77 31.77-83.187 31.773-114.957 0a7.51 7.51 0 0 0-10.61 0zm0 0"/><path d="M307.14 462.926a7.497 7.497 0 0 0 0 10.605c51.165 51.164 134.419 51.168 185.587 0a7.497 7.497 0 0 0 0-10.605 7.497 7.497 0 0 0-10.606 0c-45.316 45.316-119.058 45.316-164.371 0a7.51 7.51 0 0 0-10.61 0zm0 0M139.043 424.227a7.497 7.497 0 0 0 0-10.606 7.497 7.497 0 0 0-10.606 0c-18.128 18.129-47.625 18.129-65.757 0a7.497 7.497 0 0 0-10.606 0 7.497 7.497 0 0 0 0 10.606c23.977 23.976 62.992 23.976 86.969 0zm0 0"/><path d="M27.473 438.219a7.497 7.497 0 0 0 0 10.605c37.543 37.543 98.629 37.543 136.172 0a7.497 7.497 0 0 0 0-10.605 7.497 7.497 0 0 0-10.606 0c-31.695 31.695-83.266 31.695-114.957 0a7.51 7.51 0 0 0-10.61 0zm0 0"/><path d="M2.766 462.926a7.497 7.497 0 0 0 0 10.605c51.289 51.29 134.293 51.29 185.586 0a7.497 7.497 0 0 0 0-10.605 7.497 7.497 0 0 0-10.606 0c-45.426 45.426-118.945 45.43-164.371 0-2.93-2.926-7.68-2.93-10.61 0zm0 0M503.074 314.04v-14.067c0-8.645-5.39-16.04-12.98-19.04v-36.316c0-46.789-38.067-84.855-84.856-84.855h-64.832c-59.785 0-109.215-47.496-111.66-106.211 7.531-3.031 12.871-10.399 12.871-19.004V20.484C241.617 9.188 232.43 0 221.133 0H20.98C9.687 0 .5 9.188.5 20.484v14.063c0 8.644 5.39 16.039 12.98 19.043v227.344C5.89 283.934.5 291.328.5 299.973v14.066c0 11.293 9.188 20.48 20.48 20.48h38.918l-4.03 11.329c-10.227 1.136-18.208 9.824-18.208 20.347v14.067c0 11.293 9.188 20.48 20.485 20.48h74.828c11.297 0 20.484-9.187 20.484-20.48v-14.067c0-10.523-7.98-19.21-18.21-20.347l-4.032-11.328h103.074a7.5 7.5 0 1 0 0-15H20.98a5.485 5.485 0 0 1-5.48-5.48v-14.067c0-3.02 2.457-5.48 5.48-5.48h461.61a5.49 5.49 0 0 1 5.484 5.48v14.066c0 3.024-2.46 5.48-5.484 5.48H269.285a7.5 7.5 0 1 0 0 15h94.988l-4.03 11.329c-10.227 1.136-18.208 9.824-18.208 20.347v14.067c0 11.293 9.188 20.48 20.48 20.48h74.833c11.293 0 20.48-9.187 20.48-20.48v-14.067c0-10.523-7.98-19.21-18.207-20.347l-4.031-11.328h47c11.297 0 20.484-9.188 20.484-20.48zM75.82 334.52h39.477l3.98 11.195H71.84zm57.153 26.195a5.488 5.488 0 0 1 5.484 5.48v14.067c0 3.023-2.46 5.48-5.484 5.48H58.145a5.488 5.488 0 0 1-5.485-5.48v-14.067c0-3.023 2.461-5.48 5.485-5.48zM15.5 34.547V20.484A5.488 5.488 0 0 1 20.98 15h200.153c3.023 0 5.48 2.46 5.48 5.484v14.063a5.488 5.488 0 0 1-5.48 5.484H20.98a5.488 5.488 0 0 1-5.48-5.484zM150.95 55.03l-10.622 19.95a9.566 9.566 0 0 1-8.46 5.078H28.48V55.03zm46.581 224.461h-28.746l38.23-67.699c1.473-2.61 4.844-3.559 7.47-2.082l12.25 6.918c2.613 1.476 3.55 4.855 2.074 7.469zm44.656 0h-27.43l27.114-48.02c5.555-9.831 2.07-22.355-7.766-27.906l-12.246-6.918c-9.836-5.55-22.351-2.066-27.906 7.77l-42.39 75.074H28.48V95.062h103.387a24.54 24.54 0 0 0 21.7-13.03l14.378-27h45.848c2.914 60.284 48.36 109.417 107.488 118.3v27.324c0 7.176-5.84 13.02-13.02 13.02h-12.425a28.073 28.073 0 0 0-24.375 14.195zm232.907 0h-215.66l25.078-44.219a13.038 13.038 0 0 1 11.324-6.597h12.426c15.449 0 28.02-12.57 28.02-28.02v-25.969c3.238.102-1.942.075 68.952.075 38.52 0 69.856 31.336 69.856 69.855v34.875zm-94.899 55.028h39.477l3.98 11.195h-47.437zm57.153 26.195a5.488 5.488 0 0 1 5.484 5.48v14.067c0 3.023-2.46 5.48-5.484 5.48h-74.832a5.487 5.487 0 0 1-5.48-5.48v-14.067c0-3.023 2.46-5.48 5.48-5.48zm0 0"/><path d="M131.766 196.512a7.5 7.5 0 1 0 13.898-5.645c-8.324-20.5-27.988-33.742-50.105-33.742-29.813 0-54.067 24.254-54.067 54.063 0 29.812 24.254 54.07 54.067 54.07 22.113 0 41.78-13.246 50.105-33.746a7.501 7.501 0 1 0-13.898-5.645c-6.016 14.817-20.227 24.39-36.207 24.39-21.54 0-39.067-17.527-39.067-39.07 0-21.539 17.528-39.062 39.067-39.062 15.98 0 30.191 9.57 36.207 24.387zm0 0"/></svg>