<svg height="512pt" viewBox="0 0 512.002 512" width="512pt" xmlns="http://www.w3.org/2000/svg"><path d="M45.918 377.32l25.398-11.289c6.434-2.86 13.555-1.77 18.098 2.778l54.074 54.074c4.543 4.543 5.637 11.664 2.778 18.097l-11.29 25.399zm0 0" fill="#3e4b5a"/><path d="M105.582 384.973l-16.168-16.168c-4.543-4.543-11.664-5.633-18.098-2.774l-25.398 11.29 20.121 20.116 23.8-12.882c6.032-3.262 12.224-3.098 15.743.418zm0 0" fill="#374451"/><path d="M140.52 468.402l-93.848-93.847c-5.656-5.66-15.086-5.489-20.953.379l-2.418 2.421c-5.867 5.864-6.035 15.293-.383 20.95l93.852 93.847c5.656 5.66 15.085 5.489 20.949-.379l2.422-2.418c5.867-5.867 6.035-15.296.379-20.953zm0 0" fill="#576574"/><path d="M132.176 476.746l-93.848-93.848c-3.473-3.472-5.05-8.05-4.637-12.195a15.365 15.365 0 0 0-7.972 4.23l-2.418 2.419c-5.867 5.867-6.035 15.296-.383 20.953l93.852 93.847c5.656 5.657 15.085 5.489 20.949-.379l2.418-2.418a15.31 15.31 0 0 0 4.23-7.972c-4.14.414-8.719-1.164-12.191-4.637zm0 0" fill="#3e4b5a"/><path d="M245.637 456.922l-28.09-119.973-81.711 81.707 80.11 80.106 24.98-24.98c4.37-4.372 6.148-10.727 4.71-16.86zm0 0" fill="#ff6b6b"/><path d="M227.582 379.809l-10.035-42.86-81.711 81.707 26.45 26.45zm0 0" fill="#ee5253"/><path d="M38.512 271.371l-24.98 24.98 81.452 81.45 81.707-81.707-121.218-29.336c-6.192-1.496-12.59.242-16.961 4.613zm0 0" fill="#ff6b6b"/><path d="M85.688 286.77c4.097-4.094 8.761-7.313 13.488-9.434l-43.703-10.578c-6.192-1.496-12.59.242-16.957 4.613l-24.985 24.98 31.29 31.29zm0 0" fill="#ee5253"/><path d="M280.746 185.25l46.297 46.297-189.156 189.152-46.297-46.297zm0 0" fill="#e4eaf8"/><path d="M91.586 374.406l189.156-189.152 25.496 25.492-189.156 189.156zm0 0" fill="#c7d2e5"/><path d="M367.004 56.23l89.055 89.055-84.258 84.258-89.055-89.055zm0 0" fill="#e4eaf8"/><path d="M282.746 140.496l84.258-84.262 24.453 24.453-84.258 84.258zm0 0" fill="#c7d2e5"/><path d="M387.89 124.398c-10.398-10.398-27.261-10.398-37.663 0-10.403 10.403-10.403 27.266 0 37.668 10.402 10.403 27.265 10.403 37.664 0 10.402-10.402 10.402-27.265 0-37.668zm0 0" fill="#54a0ff"/><path d="M384.234 162.066c-10.402-10.402-10.402-27.265 0-37.668.59-.59 1.204-1.14 1.832-1.664-10.464-8.699-26.023-8.148-35.836 1.664-10.402 10.403-10.402 27.266 0 37.668 9.813 9.813 25.372 10.364 35.836 1.664a27.086 27.086 0 0 1-1.832-1.664zm0 0" fill="#338def"/><path d="M282.746 140.492l-9.965 24.074c-2.523 6.094-1.21 12.996 3.332 17.543l54.074 54.075c4.543 4.543 11.446 5.851 17.543 3.328l24.07-9.965zm0 0" fill="#c7d2e5"/><path d="M298.309 187.8l9.293-22.452-24.856-24.856-9.96 24.074c-2.524 6.098-1.216 12.996 3.327 17.543L299.003 205c-2.726-5.184-3.062-11.477-.694-17.2zm0 0" fill="#bac7db"/><path d="M455.234 146.117l17.758-17.758c24.488-24.488 45.637-85.71 21.145-110.203-24.492-24.488-85.711-3.343-110.203 21.149l-17.758 17.758zm0 0" fill="#ff6b6b"/><path d="M405.785 66.516c20.383-20.387 62.36-38.801 95.434-37.696-1.715-4.027-4.047-7.625-7.082-10.66-24.492-24.492-85.711-3.347-110.203 21.145l-17.758 17.758 24.531 24.53zm0 0" fill="#ee5253"/><path d="M344.465 167.535c13.32 13.317 34.976 13.3 48.277 0 6.45-6.45 10-15.02 10-24.137 0-9.12-3.55-17.691-10-24.14-13.34-13.34-34.933-13.344-48.277 0-13.309 13.312-13.309 34.969 0 48.277zm10.61-37.668c7.48-7.476 19.581-7.476 27.058 0a19.01 19.01 0 0 1 5.605 13.531c0 5.11-1.988 9.915-5.605 13.528-7.457 7.46-19.598 7.46-27.059 0-7.46-7.457-7.46-19.598 0-27.059zm0 0"/><path d="M500.555 26.96a7.501 7.501 0 0 0-5.211 9.243c7.238 25.934-9.168 68.074-28.117 87.02l-12.45 12.453-78.449-78.45 12.453-12.453c18.946-18.945 61.086-35.355 87.02-28.117a7.493 7.493 0 0 0 9.238-5.207 7.496 7.496 0 0 0-5.207-9.242c-31.184-8.707-79.394 9.691-101.66 31.957L276.984 135.352a7.805 7.805 0 0 0-1.668 2.53l-9.43 23.532a23.512 23.512 0 0 0 3.856 23.938l-99.3 99.3-110.399-24.496 40.043-40.043a7.502 7.502 0 0 0-10.61-10.61c-5.027 5.028-83.878 83.88-87.28 87.278a7.51 7.51 0 0 0 0 10.61c2.687 2.683 7.343 3.27 10.874-.266l53.336 53.336-18.562 7.441c-8.653-6.168-20.672-5.324-28.356 2.36l-2.332 2.332c-8.593 8.597-8.593 22.586 0 31.18l93.852 93.851c8.597 8.594 22.578 8.594 31.18 0l2.332-2.336c8.593-8.594 8.593-22.582 0-31.176l-.29-.289 7.31-18.23 53.335 53.336-.266.265a7.502 7.502 0 0 0 10.61 10.61c32.191-32.196 54.719-54.723 87.277-87.282a7.502 7.502 0 0 0 0-10.609 7.51 7.51 0 0 0-10.61 0l-40.042 40.047-24.492-110.402 34.488-34.489a7.502 7.502 0 0 0-10.61-10.61l-37.398 37.395v.004l-76.402 76.403-12.543-12.54 76.406-76.402a7.51 7.51 0 0 0 0-10.61 7.502 7.502 0 0 0-10.61 0l-76.406 76.403-12.539-12.539 76.403-76.402c.004-.004.004-.008.004-.008l102.14-102.14 35.692 35.69-39.993 39.993c-2.93 2.93-2.93 7.676 0 10.605s7.68 2.93 10.61 0l40.062-40.058a23.523 23.523 0 0 0 15.16 5.555c2.95 0 5.926-.555 8.774-1.696l23.543-9.437a7.769 7.769 0 0 0 2.515-1.656l101.188-101.192c22.27-22.266 40.668-70.473 31.96-101.66a7.499 7.499 0 0 0-9.241-5.207zM214.773 354.138l23.239 104.73a10.532 10.532 0 0 1-2.832 9.758l-19.696 19.695-67.449-67.449zM133.91 484.68l-2.332 2.332c-2.746 2.746-7.219 2.746-9.96 0l-93.852-93.848c-2.727-2.727-2.735-7.227 0-9.96l2.332-2.333c2.73-2.73 7.234-2.73 9.96 0l1.008 1.008 92.844 92.84a7.052 7.052 0 0 1 0 9.96zm-30.238-86.957c-3.496 3.492-2.988 8.152-.27 10.875 2.72 2.714 7.375 3.234 10.88-.266 12.214 12.219 9.046 9.047 21.73 21.73a8.538 8.538 0 0 1 1.89 9.231l-5.207 12.992-72.98-72.976 12.996-5.211a8.54 8.54 0 0 1 9.226 1.89c5.141 5.145 3.266 3.27 21.735 21.735zm-12.543-33.758l-67.45-67.45 19.68-19.675a10.511 10.511 0 0 1 9.774-2.848l104.734 23.235zm253.879-131.778a8.536 8.536 0 0 1-9.23-1.89l-54.075-54.074a8.536 8.536 0 0 1-1.89-9.23l5.21-12.993L358 226.98zm26.336-13.082l-78.45-78.449 72.825-72.82 78.449 78.45zm0 0"/></svg>