<svg height="512pt" viewBox="-94 0 512 512.002" width="512pt" xmlns="http://www.w3.org/2000/svg"><path d="M252.816 17.082c-1.171-5.684-6.015-9.746-11.62-9.746H86.624c-5.602 0-10.445 4.062-11.617 9.746l-15.528 87.98h208.864zm0 0" fill="#54a0ff"/><path d="M121.629 7.336H86.625c-5.602 0-10.445 4.062-11.617 9.746l-15.528 87.98h35l15.528-87.98c1.176-5.684 6.015-9.746 11.62-9.746zm0 0" fill="#338def"/><path d="M252.816 494.469c-1.171 5.754-6.015 9.863-11.62 9.863H86.624c-5.602 0-10.445-4.11-11.617-9.863L59.48 405.414h208.864zm0 0" fill="#54a0ff"/><path d="M110.008 494.469L94.48 405.414h-35l15.528 89.055c1.172 5.754 6.015 9.863 11.617 9.863h35.004c-5.606.004-10.445-4.11-11.621-9.863zm0 0" fill="#338def"/><path d="M270.21 410.129H54.306c-25.555 0-46.344-20.79-46.344-46.344V147.883c0-25.555 20.789-46.344 46.344-46.344H270.21c25.55 0 46.34 20.79 46.34 46.344v215.906c0 25.55-20.79 46.34-46.34 46.34zm0 0" fill="#576574"/><path d="M42.96 363.79V147.882c0-25.555 20.79-46.344 46.345-46.344h-35c-25.555 0-46.344 20.79-46.344 46.344v215.906c0 25.55 20.789 46.34 46.344 46.34h35c-25.555 0-46.344-20.79-46.344-46.34zm0 0" fill="#3e4b5a"/><path d="M54.305 132.094c-8.707 0-15.79 7.082-15.79 15.789v215.906c0 8.707 7.083 15.79 15.79 15.79H270.21c8.703 0 15.789-7.083 15.789-15.79V147.883c0-8.707-7.086-15.79-15.79-15.79zm0 0" fill="#3e4b5a"/><path d="M73.516 363.79V147.882c0-8.707 7.082-15.79 15.789-15.79h-35c-8.707 0-15.79 7.083-15.79 15.79v215.906c0 8.707 7.083 15.79 15.79 15.79h35c-8.707 0-15.79-7.083-15.79-15.79zm0 0" fill="#374451"/><path d="M135.266 163.324H82.309c-6.723 0-12.223 5.5-12.223 12.223v52.957c0 6.723 5.5 12.223 12.223 12.223h52.957c6.722 0 12.222-5.5 12.222-12.223v-52.957c0-6.723-5.5-12.223-12.222-12.223zm0 0" fill="#feca57"/><path d="M242.203 163.324h-52.957c-6.723 0-12.223 5.5-12.223 12.223v52.957c0 6.723 5.5 12.223 12.223 12.223h52.957c6.723 0 12.223-5.5 12.223-12.223v-52.957c0-6.723-5.5-12.223-12.223-12.223zm0 0" fill="#1dd1a1"/><path d="M135.266 270.941H82.309c-6.723 0-12.223 5.5-12.223 12.223v52.957c0 6.723 5.5 12.223 12.223 12.223h52.957c6.722 0 12.222-5.5 12.222-12.223v-52.957c0-6.723-5.5-12.223-12.222-12.223zm0 0" fill="#ff6b6b"/><path d="M242.203 270.941h-52.957c-6.723 0-12.223 5.5-12.223 12.223v52.957c0 6.723 5.5 12.223 12.223 12.223h52.957c6.723 0 12.223-5.5 12.223-12.223v-52.957c0-6.723-5.5-12.223-12.223-12.223zm0 0" fill="#54a0ff"/><path d="M105.09 228.504v-52.957c0-6.723 5.496-12.223 12.219-12.223h-35c-6.723 0-12.223 5.5-12.223 12.223v52.957c0 6.723 5.5 12.223 12.223 12.223h35c-6.723 0-12.22-5.5-12.22-12.223zm0 0" fill="#f4b537"/><path d="M212.027 228.504v-52.957c0-6.723 5.5-12.223 12.22-12.223h-35c-6.724 0-12.224 5.5-12.224 12.223v52.957c0 6.723 5.5 12.223 12.223 12.223h35c-6.723 0-12.219-5.5-12.219-12.223zm0 0" fill="#15ba8b"/><path d="M105.09 336.121v-52.957c0-6.723 5.496-12.223 12.219-12.223h-35c-6.723 0-12.223 5.5-12.223 12.223v52.957c0 6.723 5.5 12.223 12.223 12.223h35c-6.723 0-12.22-5.5-12.22-12.223zm0 0" fill="#ee5253"/><path d="M212.027 336.121v-52.957c0-6.723 5.5-12.223 12.22-12.223h-35c-6.724 0-12.224 5.5-12.224 12.223v52.957c0 6.723 5.5 12.223 12.223 12.223h35c-6.723 0-12.219-5.5-12.219-12.223zm0 0" fill="#338def"/><path d="M53.844 124.758c-12.84 0-23.29 10.449-23.29 23.289v215.906c0 12.84 10.45 23.29 23.29 23.29H269.75c12.844 0 23.29-10.45 23.29-23.29V148.047c0-12.84-10.446-23.29-23.29-23.29zm224.195 23.289v215.906c0 4.57-3.719 8.29-8.289 8.29H53.844c-4.57 0-8.29-3.72-8.29-8.29V148.047c0-4.57 3.72-8.29 8.29-8.29H269.75c4.57 0 8.29 3.72 8.29 8.29zm0 0"/><path d="M134.809 155.988H81.848c-10.875 0-19.723 8.848-19.723 19.723v52.96c0 10.876 8.848 19.724 19.723 19.724h52.96c10.876 0 19.723-8.848 19.723-19.723V175.71c0-10.875-8.847-19.723-19.722-19.723zm4.722 72.684c0 2.558-2.164 4.723-4.722 4.723H81.848c-2.559 0-4.72-2.165-4.72-4.723V175.71c0-2.559 2.161-4.719 4.72-4.719h52.96c2.56 0 4.723 2.16 4.723 4.719zm0 0M241.746 155.988h-52.96c-10.876 0-19.724 8.848-19.724 19.723v52.96c0 10.876 8.848 19.724 19.723 19.724h52.961c10.875 0 19.723-8.848 19.723-19.723V175.71c0-10.875-8.848-19.723-19.723-19.723zm4.719 72.684c0 2.558-2.16 4.723-4.719 4.723h-52.96c-2.56 0-4.724-2.165-4.724-4.723V175.71c0-2.559 2.165-4.719 4.723-4.719h52.961c2.559 0 4.719 2.16 4.719 4.719zm0 0M134.809 263.605H81.848c-10.875 0-19.723 8.848-19.723 19.723v52.961c0 10.875 8.848 19.723 19.723 19.723h52.96c10.876 0 19.723-8.848 19.723-19.723v-52.96c0-10.876-8.847-19.724-19.722-19.724zm4.722 72.684c0 2.559-2.164 4.719-4.722 4.719H81.848c-2.559 0-4.72-2.16-4.72-4.719v-52.96c0-2.56 2.161-4.724 4.72-4.724h52.96c2.56 0 4.723 2.165 4.723 4.723zm0 0M241.746 263.605h-52.96c-10.876 0-19.724 8.848-19.724 19.723v52.961c0 10.875 8.848 19.723 19.723 19.723h52.961c10.875 0 19.723-8.848 19.723-19.723v-52.96c0-10.876-8.848-19.724-19.723-19.724zm4.719 72.684c0 2.559-2.16 4.719-4.719 4.719h-52.96c-2.56 0-4.724-2.16-4.724-4.719v-52.96c0-2.56 2.165-4.724 4.723-4.724h52.961c2.559 0 4.719 2.165 4.719 4.723zm0 0"/><path d="M86.168 15h58.129a7.5 7.5 0 1 0 0-15H86.168c-9.086 0-17.055 6.445-18.953 15.328-.016.07-.031.145-.043.219L52.762 94.23C23.574 94.812 0 118.723 0 148.047v215.906c0 29.328 23.574 53.235 52.762 53.817l14.41 78.687c.012.074.027.145.043.219 1.898 8.879 9.867 15.328 18.953 15.328h154.57c9.082 0 17.055-6.45 18.953-15.328.016-.074.032-.145.043-.219l14.438-78.855c27.629-2.258 49.422-25.446 49.422-53.645v-90.453a7.5 7.5 0 1 0-15 0v90.453c0 21.418-17.426 38.84-38.844 38.84H53.844c-21.418 0-38.844-17.422-38.844-38.84v-215.91c0-21.418 17.426-38.844 38.844-38.844H269.75c21.418 0 38.844 17.426 38.844 38.844V238.5c0 4.14 3.355 7.5 7.5 7.5s7.5-3.36 7.5-7.5v-90.453c0-28.2-21.793-51.387-49.422-53.645l-14.438-78.855a3.613 3.613 0 0 0-.043-.219C257.793 6.445 249.821 0 240.738 0h-61.441a7.5 7.5 0 1 0 0 15h61.441a4.406 4.406 0 0 1 4.266 3.383l13.883 75.82H68.02l13.882-75.82A4.403 4.403 0 0 1 86.168 15zm172.719 402.797l-13.883 75.82a4.406 4.406 0 0 1-4.266 3.383H86.168a4.4 4.4 0 0 1-4.266-3.383l-13.886-75.82zm0 0"/></svg>