<svg height="512pt" viewBox="-103 0 512 512.001" width="512pt" xmlns="http://www.w3.org/2000/svg"><g fill="#576574"><path d="M266.59 465.3c-7.078 0-13.332-3.628-17.168-9.175v41.625c0 3.637 2.84 6.586 6.344 6.586h17.847c3.504 0 6.34-2.95 6.34-6.586v-37.398c-3.64 3.09-8.293 4.949-13.363 4.949zm0 0M39.691 465.3c-5.07 0-9.718-1.859-13.363-4.948v37.398c0 3.637 2.84 6.586 6.34 6.586H50.52c3.5 0 6.34-2.95 6.34-6.586v-41.629c-3.837 5.55-10.087 9.18-17.169 9.18zm0 0M278.445 393.688h-27.308c-.582 0-1.153-.063-1.711-.153v41.336c3.832-5.812 10.086-9.613 17.164-9.613 5.074 0 9.722 1.949 13.363 5.187V393.57c-.496.07-.996.117-1.508.117zm0 0M27.836 393.688h27.309c.585 0 1.152-.063 1.714-.153v41.336c-3.836-5.812-10.086-9.613-17.168-9.613-5.07 0-9.722 1.949-13.363 5.187V393.57c.496.07.996.117 1.508.117zm0 0"/></g><path d="M176.191 412.102H86.465v80.582c0 6.433 5.219 11.652 11.652 11.652h108.488c6.434 0 11.649-5.219 11.649-11.652v-80.582zm0 0" fill="#e4eaf8"/><path d="M121.469 492.684v-80.582H86.465v80.582c0 6.433 5.219 11.652 11.652 11.652h35c-6.433 0-11.648-5.219-11.648-11.652zm0 0" fill="#c7d2e5"/><path d="M224.594 293.676H81.69c-8.058 0-14.586 6.531-14.586 14.586v91.254c0 8.054 6.528 14.586 14.586 14.586h142.903c8.054 0 14.586-6.532 14.586-14.586v-91.254c0-8.055-6.532-14.586-14.586-14.586zm0 0" fill="#54a0ff"/><path d="M102.105 399.516v-91.254c0-8.055 6.532-14.586 14.586-14.586h-35c-8.058 0-14.586 6.531-14.586 14.586v91.254c0 8.054 6.528 14.586 14.586 14.586h35c-8.054 0-14.586-6.532-14.586-14.586zm0 0" fill="#338def"/><path d="M251.137 293.676c-6.606 0-11.957 5.355-11.957 11.957v77.851c0 6.606 5.351 11.957 11.957 11.957h27.308c6.606 0 11.957-5.351 11.957-11.957v-50.543c0-21.683-17.578-39.265-39.265-39.265zm0 0M55.145 293.676c6.605 0 11.96 5.355 11.96 11.957v77.851c0 6.606-5.355 11.957-11.96 11.957h-27.31c-6.6 0-11.956-5.351-11.956-11.957v-50.543c0-21.683 17.582-39.265 39.266-39.265zm0 0" fill="#e4eaf8"/><path d="M274.18 383.488v-77.855c0-1.39.25-2.723.691-3.969a39.111 39.111 0 0 0-23.734-7.988c-6.606 0-11.957 5.355-11.957 11.957v77.855c0 6.602 5.351 11.957 11.957 11.957h27.308c1.348 0 2.637-.234 3.848-.644-4.715-1.606-8.113-6.059-8.113-11.313zm0 0M50.883 383.488v-50.547c0-12.765 6.094-24.105 15.531-31.277-1.637-4.648-6.059-7.988-11.27-7.988-21.683 0-39.265 17.582-39.265 39.27v50.542c0 6.602 5.355 11.957 11.957 11.957h27.309c1.347 0 2.64-.234 3.847-.644-4.715-1.606-8.11-6.059-8.11-11.313zm0 0" fill="#c7d2e5"/><path d="M287.723 445.61c0 11.671-9.461 21.136-21.133 21.136s-21.133-9.465-21.133-21.137 9.461-21.132 21.133-21.132 21.133 9.46 21.133 21.132zm0 0" fill="#3e4b5a"/><path d="M279.406 428.832c-3.558-2.723-7.992-4.355-12.816-4.355-11.672 0-21.133 9.46-21.133 21.132s9.461 21.137 21.133 21.137c4.824 0 9.258-1.637 12.816-4.355-11.094-8.489-11.09-25.075 0-33.559zm0 0" fill="#374451"/><path d="M60.828 445.61c0 11.671-9.465 21.136-21.137 21.136S18.56 457.281 18.56 445.61s9.46-21.132 21.132-21.132 21.137 9.46 21.137 21.132zm0 0" fill="#3e4b5a"/><path d="M52.508 428.832c-3.559-2.723-7.988-4.355-12.817-4.355-11.671 0-21.132 9.46-21.132 21.132s9.46 21.137 21.132 21.137c4.829 0 9.258-1.637 12.817-4.355-11.094-8.489-11.09-25.075 0-33.559zm0 0" fill="#374451"/><path d="M153.14 276.047c-8.765 0-17.327-.84-25.632-2.426v28.688c0 14.156 11.476 25.629 25.633 25.629s25.632-11.473 25.632-25.63v-28.687a136.83 136.83 0 0 1-25.632 2.426zm0 0" fill="#576574"/><path d="M161.012 298.047v-22.235c-2.606.149-5.227.235-7.871.235-8.766 0-17.328-.84-25.633-2.426v28.688c0 14.156 11.476 25.629 25.633 25.629 7.632 0 14.484-3.34 19.18-8.633-6.825-4.606-11.31-12.41-11.31-21.258zm0 0" fill="#3e4b5a"/><path d="M176.191 414.102c0 12.73-10.32 23.05-23.05 23.05s-23.051-10.32-23.051-23.05 10.32-23.051 23.05-23.051 23.051 10.32 23.051 23.05zm0 0" fill="#feca57"/><path d="M163.098 414.102c0-6.262 2.5-11.934 6.547-16.086-4.188-4.293-10.032-6.965-16.504-6.965-12.73 0-23.051 10.32-23.051 23.05 0 12.731 10.32 23.051 23.05 23.051 6.473 0 12.317-2.672 16.505-6.965-4.047-4.156-6.547-9.828-6.547-16.085zm0 0" fill="#f4b537"/><path d="M270.852 87.902h-4.375v115.13c0 .523-.012 1.042-.032 1.562h4.407c15.113 0 27.476-12.364 27.476-27.477V115.38c0-15.113-12.363-27.477-27.476-27.477zm0 0" fill="#e4eaf8"/><path d="M288.988 94.79c-4.847-4.278-11.199-6.888-18.136-6.888h-4.375v115.133c0 .52-.008 1.04-.032 1.563h4.407c6.937 0 13.289-2.61 18.136-6.891zm0 0" fill="#c7d2e5"/><path d="M39.805 203.031V87.902H35.43c-15.114 0-27.477 12.364-27.477 27.477v61.738c0 15.113 12.363 27.477 27.477 27.477h4.406c-.02-.52-.031-1.04-.031-1.563zm0 0" fill="#e4eaf8"/><path d="M39.805 197.707c-5.715-5.043-9.34-12.41-9.34-20.59V115.38c0-8.176 3.625-15.543 9.34-20.59v-6.887H35.43c-15.114 0-27.477 12.364-27.477 27.477v61.738c0 15.113 12.363 27.477 27.477 27.477h4.406c-.02-.52-.031-1.04-.031-1.563zm0 0" fill="#c7d2e5"/><path d="M260.64 60.137c-24.847-32.114-63.753-52.793-107.5-52.793s-82.652 20.68-107.5 52.793c-5.132 6.636-7.835 14.832-7.835 23.222v119.676c0 8.387 2.703 16.586 7.836 23.223 24.847 32.113 63.754 52.793 107.5 52.793s82.652-20.68 107.5-52.793c5.132-6.637 7.836-14.836 7.836-23.223V83.355c0-8.386-2.704-16.582-7.836-23.218zm0 0" fill="#e4eaf8"/><path d="M80.094 226.254c-5.133-6.633-7.836-14.832-7.836-23.223V83.355c0-8.386 2.703-16.585 7.836-23.218 21.531-27.828 53.629-47.063 90.273-51.7a136.969 136.969 0 0 0-17.226-1.097c-43.746 0-82.653 20.683-107.5 52.797-5.133 6.633-7.836 14.832-7.836 23.218v119.676c0 8.39 2.703 16.59 7.836 23.223 24.847 32.113 63.754 52.793 107.5 52.793 5.836 0 11.582-.379 17.226-1.094-36.648-4.64-68.742-23.871-90.273-51.7zm0 0" fill="#c7d2e5"/><path d="M237.285 107.7a106.896 106.896 0 0 0-29.863-26.427c-.992 4.184-2.984 8.098-5.887 11.356-11.867 13.324-29.148 21.715-48.394 21.715s-36.528-8.39-48.395-21.715c-2.902-3.258-4.894-7.172-5.887-11.356A106.896 106.896 0 0 0 68.996 107.7c-4.016 5.196-6.133 11.61-6.133 18.176v93.672c0 6.566 2.117 12.984 6.133 18.176 19.45 25.136 49.902 41.324 84.145 41.324 34.238 0 64.695-16.188 84.144-41.324 4.016-5.192 6.133-11.61 6.133-18.176v-93.672c0-6.566-2.117-12.98-6.133-18.176zm0 0" fill="#6fb1ff"/><path d="M104 237.727c-4.02-5.196-6.133-11.61-6.133-18.176v-93.676c0-6.566 2.113-12.98 6.133-18.176a107.21 107.21 0 0 1 7.438-8.582 65.602 65.602 0 0 1-6.692-6.488c-2.902-3.258-4.894-7.172-5.887-11.356A106.88 106.88 0 0 0 69 107.7c-4.02 5.196-6.137 11.61-6.137 18.176v93.672c0 6.566 2.117 12.984 6.137 18.176 19.445 25.136 49.902 41.324 84.14 41.324 5.965 0 11.81-.5 17.505-1.445-27.012-4.473-50.583-19.118-66.645-39.875zm0 0" fill="#54a0ff"/><path d="M205.535 158.137c0 8.254-6.687 14.941-14.941 14.941-8.25 0-14.942-6.687-14.942-14.941 0-8.254 6.692-14.942 14.942-14.942 8.254 0 14.941 6.688 14.941 14.942zm0 0M129.07 158.137c0 8.254-6.691 14.941-14.941 14.941-8.254 0-14.945-6.687-14.945-14.941 0-8.254 6.691-14.942 14.945-14.942 8.25 0 14.941 6.688 14.941 14.942zm0 0" fill="#576574"/><path d="M200.93 147.36a14.88 14.88 0 0 0-10.336-4.165c-8.25 0-14.942 6.688-14.942 14.942 0 8.254 6.692 14.941 14.942 14.941a14.88 14.88 0 0 0 10.336-4.164 14.906 14.906 0 0 1 0-21.555zm0 0M124.46 147.36a14.878 14.878 0 0 0-10.331-4.165c-8.254 0-14.942 6.688-14.942 14.942 0 8.254 6.688 14.941 14.942 14.941 4.012 0 7.648-1.59 10.332-4.164a14.906 14.906 0 0 1 0-21.555zm0 0" fill="#3e4b5a"/><path d="M153.14 7.344c-19.581 0-38.195 4.148-55.011 11.61v58.304a26.116 26.116 0 0 0 6.617 17.37c11.867 13.325 29.149 21.716 48.395 21.716s36.527-8.39 48.394-21.715a26.116 26.116 0 0 0 6.617-17.371V18.953c-16.816-7.46-35.425-11.61-55.011-11.61zm0 0" fill="#576574"/><path d="M139.75 94.629a26.116 26.116 0 0 1-6.617-17.371V8.82a134.911 134.911 0 0 0-35.004 10.133v58.305a26.116 26.116 0 0 0 6.617 17.37c11.867 13.325 29.149 21.716 48.395 21.716a64.96 64.96 0 0 0 17.5-2.395c-12.098-3.386-22.766-10.195-30.891-19.32zm0 0" fill="#3e4b5a"/><path d="M266.121 231.008c4.285-5.535 7.2-12.09 8.547-19.016 17.281-2.113 30.71-16.867 30.71-34.71v-61.739c0-17.57-13.03-32.156-29.933-34.61-.52-9.183-3.777-18.054-9.324-25.222-57.527-74.348-169.441-74.215-226.863 0-5.547 7.168-8.805 16.039-9.324 25.223C13.03 83.387 0 97.973 0 115.543v61.738c0 17.84 13.43 32.594 30.71 34.711 1.349 6.926 4.263 13.48 8.548 19.016 20.453 26.437 48.695 44.453 80.3 51.879v3.453h-38.32c-5.199 0-9.98 1.812-13.758 4.828-3.421-2.996-7.89-4.828-12.785-4.828-25.789 0-46.77 20.98-46.77 46.77v50.542c0 7.477 4.25 13.973 10.45 17.23v25.313c-10.355 11.028-10.367 28.121 0 39.16v32.805c0 7.633 6.21 13.84 13.84 13.84h17.851c7.633 0 13.84-6.207 13.84-13.84v-37.867a28.53 28.53 0 0 0 0-29.035v-17.91c3.52 4.449 8.703 7.515 14.61 8.246v71.258c0 10.558 8.59 19.148 19.148 19.148h37.524c4.144 0 7.5-3.355 7.5-7.5s-3.356-7.5-7.5-7.5H97.664a4.156 4.156 0 0 1-4.148-4.148v-71.086h29.554c3.457 13.511 15.618 23.05 29.621 23.05 13.957 0 26.153-9.5 29.618-23.05h27.996v71.086a4.156 4.156 0 0 1-4.149 4.148h-35.965c-4.144 0-7.5 3.355-7.5 7.5s3.356 7.5 7.5 7.5h35.965c10.559 0 19.149-8.59 19.149-19.148v-71.118c6.547-.34 12.343-3.55 16.168-8.386v17.91a28.538 28.538 0 0 0 0 29.039v37.863c0 7.633 6.207 13.84 13.84 13.84h17.851c7.629 0 13.84-6.207 13.84-13.84v-32.8c10.355-11.028 10.367-28.126 0-39.165v-25.312c6.203-3.254 10.45-9.754 10.45-17.23v-15.075a7.5 7.5 0 0 0-7.5-7.5 7.497 7.497 0 0 0-7.5 7.5v15.074c0 2.457-2 4.457-4.458 4.457h-27.312c-2.457 0-4.457-2-4.457-4.457v-77.855c0-2.457 2-4.457 4.457-4.457 17.52 0 31.77 14.254 31.77 31.77v.464a7.5 7.5 0 1 0 15 0v-.465c0-25.789-20.981-46.77-46.77-46.77-4.895 0-9.364 1.833-12.786 4.829a21.983 21.983 0 0 0-13.757-4.828h-38.32v-3.453c31.605-7.426 59.847-25.442 80.3-51.88zM200.2 24.094v51.328c0 22.7-52.398 49.039-87.222 15.555-3.16-3.04-7.797-7.61-7.797-15.555V24.094c30.351-12.125 64.668-12.125 95.02 0zm-47.508 97.914c30.07 0 51.348-18.645 57.747-29.34a99.129 99.129 0 0 1 20.464 19.785c2.942 3.809 4.563 8.633 4.563 13.59v93.672c0 4.953-1.621 9.781-4.563 13.586-39.613 51.199-116.773 51.246-156.422 0-2.945-3.805-4.566-8.633-4.566-13.586v-93.672c0-4.957 1.621-9.781 4.566-13.59a98.834 98.834 0 0 1 20.465-19.785c7.856 13.137 30.274 29.34 57.746 29.34zm137.688-6.465v61.738c0 9.246-6.313 17.043-14.852 19.313V96.234c8.54 2.27 14.852 10.067 14.852 19.309zm-36.121-50.652c4.043 5.226 6.27 11.843 6.27 18.632V203.2c0 11.137-5.09 17.57-10.864 24.238 1.106-5.28.8.395.8-101.394 0-8.262-2.734-16.348-7.698-22.766a113.747 113.747 0 0 0-27.649-25.582c.117-1.77.082 1.758.082-46.523 14.918 8.328 28.211 19.7 39.059 33.719zM15 177.285v-61.742c0-9.242 6.313-17.04 14.852-19.309v100.36C21.312 194.324 15 186.527 15 177.285zM44.855 203.2V83.523c0-6.789 2.223-13.406 6.266-18.632C61.97 50.87 75.266 39.5 90.18 31.17c0 48.099-.035 44.727.086 46.524a113.731 113.731 0 0 0-27.649 25.578c-4.969 6.422-7.703 14.508-7.703 22.77 0 101.828-.305 96.113.8 101.398-5.562-6.433-10.859-12.91-10.859-24.242zM32.793 433.77c12.832-6.921 25.762 8.407 17.535 19.915a13.759 13.759 0 0 1-6.43 4.89c-16.109 5.922-25.64-16.98-11.105-24.804zm.586-16.023V403.11h15.527v15.715a28.693 28.693 0 0 0-15.527-1.078zm-10.45-84.637c0-17.515 14.25-31.77 31.766-31.77 2.457 0 4.457 2 4.457 4.458v77.855c0 2.457-2 4.457-4.457 4.457H27.387c-2.461 0-4.457-2-4.457-4.457zM33.376 497v-23.195a28.682 28.682 0 0 0 15.531-1.078V497zm103.766-82.734c0-8.575 6.976-15.551 15.55-15.551 8.575 0 15.551 6.976 15.551 15.55s-6.976 15.551-15.55 15.551c-8.575 0-15.551-6.976-15.551-15.55zm142.632 31.507c0 5.07-2.796 9.649-7.207 12.02-9.12 4.902-20.062-1.863-20.062-12.02 0-5.226 3.281-8.921 2.562-7.921 7.66-10.676 24.707-5.329 24.707 7.921zM256.473 497v-24.273A28.617 28.617 0 0 0 272 473.805V497zm15.53-93.89v14.636a28.628 28.628 0 0 0-15.53 1.078V403.11zm-47.862-101.766c3.906 0 7.086 3.18 7.086 7.086v91.25c0 3.906-3.18 7.086-7.086 7.086h-41.832c-3.493-13.653-15.762-23.051-29.618-23.051-13.93 0-26.148 9.476-29.62 23.05H81.237c-3.906 0-7.086-3.18-7.086-7.085v-91.25c0-3.907 3.18-7.086 7.086-7.086h38.32c0 20.93 16 34.261 33.133 34.261 17.137 0 33.13-13.332 33.13-34.261zm-53.32 1.129c0 9.996-8.133 18.129-18.13 18.129-10 0-18.132-8.133-18.132-18.13v-16.898c6.043.754 12.164 1.14 18.132 1.14 5.954 0 12.082-.386 18.13-1.14zm0 0"/><path d="M190.145 180.742c12.37 0 22.44-10.066 22.44-22.437 0-12.375-10.07-22.442-22.44-22.442-12.375 0-22.442 10.067-22.442 22.442 0 12.37 10.067 22.437 22.442 22.437zm0-29.879c4.101 0 7.437 3.336 7.437 7.438 0 4.101-3.336 7.441-7.437 7.441-4.106 0-7.442-3.34-7.442-7.441 0-4.102 3.336-7.438 7.442-7.438zm0 0M113.676 180.742c12.375 0 22.441-10.066 22.441-22.437 0-12.375-10.066-22.442-22.441-22.442s-22.442 10.067-22.442 22.442c0 12.37 10.067 22.437 22.442 22.437zm0-29.879c4.101 0 7.441 3.336 7.441 7.438 0 4.101-3.34 7.441-7.441 7.441-4.106 0-7.442-3.34-7.442-7.441 0-4.102 3.34-7.438 7.442-7.438zm0 0M152.691 86.254a7.5 7.5 0 0 0 7.5-7.5V33.977a7.5 7.5 0 1 0-15 0v44.777c0 4.144 3.356 7.5 7.5 7.5zm0 0M121.117 216.84a7.5 7.5 0 0 0 7.5 7.5h46.586a7.5 7.5 0 1 0 0-15h-46.586a7.497 7.497 0 0 0-7.5 7.5zm0 0"/></svg>