<svg height="512pt" viewBox="-76 0 512 512" width="512pt" xmlns="http://www.w3.org/2000/svg"><path d="M69.477 205.79H21.414c-10.937 0-17.285 12.081-10.894 20.745l39.05 52.95c4.024-26.95 10.852-51.864 19.907-73.696zm0 0" fill="#e4eaf8"/><path d="M45.52 226.535c-6.391-8.664-.043-20.746 10.894-20.746h-35c-10.937 0-17.285 12.082-10.894 20.746l39.05 52.95c1.922-12.876 4.493-25.278 7.63-37.11zm0 0" fill="#c7d2e5"/><path d="M332.09 225.992a15.416 15.416 0 0 0-14.29-9.633h-53.534c3.492 9.77 6.566 20.07 9.18 30.828h33.706c16.246 46.172 18.946 101.083 11.141 148.094-1.395 8.395 4.285 16.336 12.684 17.73 8.398 1.395 16.335-4.288 17.73-12.683 9.238-55.652 5.074-120.734-16.617-174.336zm0 0" fill="#e4eaf8"/><path d="M339.734 395.281c7.356-44.32 5.375-95.66-8.484-140.078-1.48-4.75-5.84-8.016-10.816-8.016h-13.282c16.184 46.004 18.926 100.688 11.223 147.583-1.395 8.5 4.266 16.953 12.777 18.27 4.95.76 9.711-.935 13.059-4.177-3.5-3.402-5.34-8.402-4.477-13.582zm0 0M264.266 216.36c3.492 9.769 6.566 20.07 9.18 30.827h21.437c-2.613-10.757-5.688-21.058-9.176-30.828zm0 0" fill="#c7d2e5"/><path d="M165.125 140.828c4.996 0 9.918.414 14.754 1.219v-14.535c0-9.282-7.527-16.809-16.809-16.809-9.285 0-16.808 7.527-16.808 16.809v15.324a90.19 90.19 0 0 1 18.863-2.008zm0 0" fill="#ff6b6b"/><path d="M165.82 127.512c0-5.63 2.778-10.602 7.028-13.653a16.718 16.718 0 0 0-9.778-3.152c-9.28 0-16.808 7.523-16.808 16.805v15.324a90.19 90.19 0 0 1 18.863-2.008c.23 0 .46.012.691.016v-13.332zm0 0" fill="#ee5253"/><path d="M262.273 205.79c-21.953-40.61-57.289-66.962-97.148-66.962-39.855 0-75.191 26.352-97.145 66.961zm0 0" fill="#e4eaf8"/><path d="M182.625 140.559a90.153 90.153 0 0 0-17.5-1.73c-39.855 0-75.191 26.35-97.145 66.96h35c18.68-34.55 47.047-58.77 79.645-65.23zm0 0" fill="#c7d2e5"/><path d="M251.516 463.844H78.734c-.55 0-1.093-.04-1.632-.098 2.343 10.75 5.25 22.977 8.68 32.535 1.734 4.848 6.363 8.051 11.511 8.051h135.664c5.148 0 9.777-3.203 11.516-8.05 3.425-9.56 6.336-21.786 8.675-32.536a15.08 15.08 0 0 1-1.632.098zm0 0" fill="#e4eaf8"/><path d="M120.781 496.285c-3.418-9.535-6.32-21.715-8.66-32.441H78.734c-.55 0-1.093-.04-1.632-.094 2.343 10.746 5.25 22.973 8.68 32.535 1.734 4.844 6.363 8.05 11.511 8.05h35c-5.148 0-9.773-3.206-11.512-8.05zm0 0" fill="#c7d2e5"/><path d="M262.273 205.79H67.98c-14.726 36.394-23.437 81.355-23.437 130.026 0 44.196 7.184 85.332 19.531 119.774 2.211 6.172 8.106 10.254 14.664 10.254H251.52c6.554 0 12.449-4.082 14.664-10.254 12.343-34.442 19.527-75.578 19.527-119.774-.004-48.671-8.711-93.632-23.438-130.027zm0 0" fill="#576574"/><path d="M99.07 455.59c-12.343-34.442-19.527-75.578-19.527-119.774 0-48.671 8.707-93.632 23.437-130.03h-35c-14.73 36.398-23.437 81.359-23.437 130.03 0 44.192 7.18 85.332 19.527 119.774 2.215 6.172 8.11 10.254 14.664 10.254h35c-6.554 0-12.449-4.082-14.664-10.254zm0 0" fill="#3e4b5a"/><path d="M271.293 231.773c-2.684-9.054-5.688-17.75-9.02-25.984H67.98c-3.332 8.234-6.34 16.93-9.023 25.984zm0 0" fill="#3e4b5a"/><path d="M58.957 231.773h35c2.684-9.054 5.691-17.75 9.023-25.984h-35c-2.695 6.809-5.652 14.617-9.023 25.984zm0 0" fill="#374451"/><path d="M169.805 290.355h-13.47c-5.562 0-10.073-4.511-10.073-10.074v124.91c0 5.563 4.511 10.075 10.074 10.075h13.469c5.562 0 10.074-4.512 10.074-10.075v-124.91c0 5.563-4.512 10.074-10.074 10.074zm0 0" fill="#8ac2ff"/><path d="M168.598 405.191V290.355h-12.262c-5.563 0-10.074-4.511-10.074-10.074v124.91c0 5.563 4.511 10.075 10.074 10.075h13.469c1.593 0 3.093-.383 4.43-1.04-3.337-1.64-5.637-5.062-5.637-9.035zm0 0" fill="#6fb1ff"/><path d="M169.805 257.008h-13.47c-5.562 0-10.073 4.508-10.073 10.074v15.2c0 5.562 4.511 10.073 10.074 10.073h13.469c5.562 0 10.074-4.511 10.074-10.074v-15.199c0-5.566-4.512-10.074-10.074-10.074zm0 0" fill="#54a0ff"/><path d="M165.496 282.281v-15.199c0-4.562 3.035-8.41 7.191-9.652a10.167 10.167 0 0 0-2.882-.422h-13.47c-5.562 0-10.073 4.508-10.073 10.074v15.2c0 5.562 4.511 10.073 10.074 10.073h13.469c1.004 0 1.968-.152 2.882-.425-4.156-1.239-7.19-5.086-7.19-9.649zm0 0" fill="#338def"/><path d="M169.348 249.672h-13.473c-9.688 0-17.57 7.883-17.57 17.574v138.11c0 9.69 7.882 17.574 17.57 17.574h13.473c9.687 0 17.57-7.883 17.57-17.575V267.246c0-9.691-7.883-17.574-17.57-17.574zm2.57 155.683a2.576 2.576 0 0 1-2.57 2.575h-13.473a2.576 2.576 0 0 1-2.57-2.575V299.81c.84.125 1.695.21 2.57.21h13.473c.875 0 1.73-.085 2.57-.21zm0-122.91a2.573 2.573 0 0 1-2.57 2.575h-13.473a2.573 2.573 0 0 1-2.57-2.575v-15.199a2.576 2.576 0 0 1 2.57-2.574h13.473a2.576 2.576 0 0 1 2.57 2.574zm0 0M119.738 86.402a7.497 7.497 0 0 0 0 10.606 7.497 7.497 0 0 0 10.606 0c17.793-17.793 46.742-17.793 64.535 0a7.497 7.497 0 0 0 10.605 0 7.497 7.497 0 0 0 0-10.606c-23.64-23.64-62.105-23.64-85.746 0zm0 0"/><path d="M229.691 72.805a7.497 7.497 0 0 0 0-10.606c-37.078-37.078-97.082-37.078-134.16 0a7.497 7.497 0 0 0 0 10.606 7.502 7.502 0 0 0 10.61 0c31.21-31.215 81.73-31.215 112.941 0a7.502 7.502 0 0 0 10.61 0zm0 0"/><path d="M254.004 48.492a7.497 7.497 0 0 0 0-10.605c-50.516-50.516-132.266-50.516-182.785 0a7.497 7.497 0 0 0 0 10.605 7.502 7.502 0 0 0 10.61 0c44.648-44.652 116.913-44.656 161.566 0a7.502 7.502 0 0 0 10.609 0zm0 0M314.402 411.3c11.782 16.466 37.891 10.63 41.243-9.577 3.668-22.075 5.207-45.032 4.582-68.235-.114-4.14-3.563-7.414-7.7-7.293a7.496 7.496 0 0 0-7.297 7.7c.602 22.246-.875 44.238-4.382 65.37a7.907 7.907 0 0 1-9.106 6.512 7.907 7.907 0 0 1-6.508-9.101c8.543-51.48 4.368-106.813-11.464-151.809a7.504 7.504 0 0 0-7.079-5.012h-25.84a316.674 316.674 0 0 0-4.585-15.828h41.078a7.882 7.882 0 0 1 7.34 4.946c8.62 21.304 14.648 45.082 17.918 70.668.523 4.109 4.296 7.02 8.39 6.488a7.495 7.495 0 0 0 6.488-8.387c-3.433-26.867-9.789-51.898-18.894-74.398-3.52-8.7-11.86-14.317-21.242-14.317h-46.281c-.333-.875-2.211-5.824-2.653-6.64-17.496-32.364-45.367-59.785-81.492-68.278v-6.43c0-13.402-10.902-24.308-24.309-24.308-13.402 0-24.304 10.902-24.304 24.309v7.484c-32.64 9.14-58.242 33.781-75.192 63.29H20.63c-16.77 0-26.516 19.01-16.719 32.628l36.336 50.496c-7.957 58.05-3.152 122.434 16.305 176.707 2.34 6.528 7.496 11.504 13.804 13.809 2.215 9.379 4.868 18.406 7.907 26.886 2.793 7.786 10.254 13.02 18.57 13.02h48.277c4.145 0 7.5-3.355 7.5-7.5a7.5 7.5 0 0 0-7.5-7.5H96.832c-2 0-3.793-1.238-4.453-3.082-2.32-6.48-4.406-13.316-6.23-20.41h157.035c-1.82 7.094-3.907 13.93-6.23 20.41-.661 1.844-2.454 3.082-4.454 3.082h-52.39a7.5 7.5 0 1 0 0 15h52.39c8.316 0 15.781-5.23 18.574-13.02 3.04-8.48 5.688-17.507 7.903-26.89 6.308-2.3 11.464-7.278 13.804-13.805 22.598-63.035 25.34-139.344 11.63-203.433h16.905c13.61 41.757 16.95 92.203 9.122 139.363a22.756 22.756 0 0 0 3.964 17.086zM153.305 127.68c0-5.133 4.175-9.309 9.308-9.309 5.13 0 9.305 4.176 9.305 9.309v4.086c-6.262-.47-12.938-.27-18.613.402zm95.332 70.773H80.695c44.664-68.492 122.313-69.973 167.942 0zm-176.004 15h184.07c1.621 4.262 2.777 7.676 3.883 10.984H68.719c1.496-4.492 3.445-9.753 3.914-10.984zM43.719 260.72L16.086 222.32c-2.672-3.707-.027-8.867 4.543-8.867h36c-5.484 15.254-9.813 31.492-12.91 47.266zM258.66 453.223c-1.133 3.16-4.187 5.285-7.601 5.285H78.277c-3.414 0-6.468-2.125-7.605-5.285-23.527-65.641-24.824-147.743-6.543-213.785H265.16c18.692 67.515 16.625 149.28-6.5 213.785zm0 0"/></svg>