<svg height="512pt" viewBox="-76 0 512 512.001" width="512pt" xmlns="http://www.w3.org/2000/svg"><path d="M52.906 66.023V215.07c0 4.356 2.485 8.332 6.395 10.246l121.238 59.317V128.469zm0 0" fill="#54a0ff"/><path d="M180.54 128.469v156.164l121.233-59.317a11.405 11.405 0 0 0 6.395-10.246V66.023zm0 0" fill="#338def"/><path d="M185.305 9.527a11.41 11.41 0 0 0-9.532 0L52.906 66.023 180.54 128.47l127.629-62.446zm0 0" fill="#8ac2ff"/><path d="M185.305 9.527a11.41 11.41 0 0 0-9.532 0L52.906 66.023l35.582 17.41 128.77-59.21zm0 0" fill="#6fb1ff"/><path d="M52.906 66.023V215.07c0 4.356 2.48 8.332 6.395 10.246l28.61 13.996V83.149zm0 0" fill="#338def"/><path d="M302.559 399.504a12.37 12.37 0 0 1-6.621 1.93H65.14c-2.43 0-4.7-.715-6.621-1.93l-37.043 75.238h318.125zm0 0" fill="#c7d2e5"/><path d="M65.14 401.434c-2.43 0-4.699-.715-6.62-1.93l-37.043 75.238h40.25l36.093-73.308zm0 0" fill="#bac7db"/><path d="M340.64 472.742H20.435c-6.86 0-12.473 5.613-12.473 12.477v6.93c0 6.859 5.613 12.476 12.473 12.476H340.64c6.863 0 12.476-5.617 12.476-12.477v-6.93c0-6.863-5.613-12.476-12.476-12.476zm0 0" fill="#e4eaf8"/><path d="M42.96 492.148v-6.93c0-6.863 5.614-12.476 12.477-12.476h-35c-6.863 0-12.476 5.613-12.476 12.477v6.93c0 6.859 5.613 12.476 12.476 12.476h35c-6.863-.004-12.476-5.617-12.476-12.477zm0 0" fill="#c7d2e5"/><path d="M308.414 390.957v-6.93c0-6.863-5.617-12.476-12.476-12.476H65.14c-6.864 0-12.477 5.613-12.477 12.476v6.93c0 6.86 5.613 12.477 12.477 12.477h230.796c6.864 0 12.477-5.618 12.477-12.477zm0 0" fill="#e4eaf8"/><path d="M87.664 390.957v-6.93c0-6.863 5.617-12.476 12.477-12.476h-35c-6.864 0-12.477 5.613-12.477 12.476v6.93c0 6.86 5.613 12.477 12.477 12.477h35c-6.864 0-12.477-5.614-12.477-12.477zm0 0" fill="#c7d2e5"/><path d="M0 485.094v6.93C0 503.038 8.96 512 19.977 512h320.207c11.015 0 19.976-8.96 19.976-19.977v-6.93c0-9.75-7.023-17.874-16.277-19.616l-32.531-62.563c2.562-3.36 4.105-7.539 4.105-12.082v-6.93c0-11.015-8.96-19.976-19.977-19.976h-97.898a7.5 7.5 0 0 0-7.5 7.5c0 4.144 3.356 7.5 7.5 7.5h97.898c2.696 0 4.973 2.281 4.973 4.976v6.93c0 2.781-2.383 4.977-4.973 4.977H64.68c-2.614 0-4.973-2.211-4.973-4.977v-6.93c0-2.695 2.277-4.976 4.973-4.976h97.898c4.145 0 7.5-3.356 7.5-7.5a7.5 7.5 0 0 0-7.5-7.5H64.68c-11.016 0-19.977 8.96-19.977 19.976v6.93c0 4.543 1.543 8.723 4.106 12.082l-32.532 62.563C7.023 467.219 0 475.344 0 485.094zm61.727-74.508c.738.113 2.011.223 2.953.223h230.797c.945 0 2.218-.11 2.957-.223l28.355 54.531H33.371zm-41.75 69.535h320.207c2.695 0 4.972 2.277 4.972 4.973v6.93c0 2.699-2.277 4.976-4.972 4.976H19.977C17.28 497 15 494.723 15 492.023v-6.93c0-2.695 2.281-4.972 4.977-4.972zm0 0M172.578 317.71v28.419c0 4.144 3.356 7.5 7.5 7.5s7.5-3.356 7.5-7.5V317.71c0-4.14-3.355-7.5-7.5-7.5s-7.5 3.36-7.5 7.5zm0 0M86.79 274.637a7.5 7.5 0 0 0-3.044 10.16l34.953 64.89a7.504 7.504 0 0 0 10.16 3.047c3.645-1.964 5.012-6.515 3.047-10.16l-34.957-64.89c-1.96-3.649-6.511-5.012-10.16-3.047zm0 0M263.207 277.684l-34.953 64.89a7.5 7.5 0 0 0 3.047 10.16 7.503 7.503 0 0 0 10.16-3.046l34.953-64.891a7.498 7.498 0 0 0-3.047-10.16 7.5 7.5 0 0 0-10.16 3.047zm0 0"/><path d="M191.86 429.5h-23.563a7.497 7.497 0 0 0-7.5 7.5 7.5 7.5 0 0 0 7.5 7.5h23.562a7.5 7.5 0 0 0 0-15zm0 0M44.95 222.352a7.494 7.494 0 0 0 4.202 6.738l127.63 62.445c1.976.961 4.476 1.035 6.593 0l127.629-62.445a7.498 7.498 0 0 0 4.207-6.738v-58.715a7.503 7.503 0 1 0-15.004 0v54.035l-112.629 55.105V133.313l112.629-55.106v50.426a7.503 7.503 0 0 0 15.004 0V66.188c0-.016-.004-.036-.004-.051 0-.012.004-.028 0-.04-.031-2.843-1.742-5.495-4.332-6.706-.012-.004-.023-.012-.031-.016l-.008-.004s-.004 0-.008-.004L183.211.687a7.472 7.472 0 0 0-6.266 0L49.328 59.368l-.004.004-.008.004a7.546 7.546 0 0 0-4.367 6.813zM180.077 15.758l110.137 50.64c-5.227 2.555-104.727 51.239-110.137 53.883L69.945 66.398zM59.95 78.207l112.63 55.106v139.464l-112.63-55.105zm0 0"/></svg>