<svg height="512pt" viewBox="-118 0 512 512.001" width="512pt" xmlns="http://www.w3.org/2000/svg"><path d="M26.25 343.195l32.844 144.977c2.14 9.457 10.449 16.16 20.023 16.16h118.805c9.578 0 17.883-6.703 20.023-16.16l32.844-144.977zm0 0" fill="#ff6b6b"/><path d="M94.098 488.172L61.254 343.195H26.25l32.844 144.977c2.144 9.457 10.449 16.16 20.023 16.16h35c-9.574.004-17.879-6.703-20.02-16.16zm0 0" fill="#ee5253"/><path d="M175.367 50.805v-35.2c0-4.546-3.64-8.27-8.09-8.27h-4.824c-4.45 0-8.094 3.724-8.094 8.27v35.2zm0 0M122.68 50.805v-35.2c0-4.546-3.645-8.27-8.094-8.27h-4.82c-4.454 0-8.094 3.724-8.094 8.27v35.2zm0 0" fill="#e4eaf8"/><path d="M65.094 171.086h29.398c24.215 0 44.028 19.812 44.028 44.027v29.399a8.944 8.944 0 0 1-8.946 8.945h-29.398c-24.215 0-44.028-19.812-44.028-44.027V180.03c0-4.937 4.008-8.945 8.946-8.945zm0 0" fill="#29e5af"/><path d="M91.57 209.43v-29.395c0-4.297 3.028-7.879 7.063-8.746a43.935 43.935 0 0 0-4.14-.2h-29.4a8.946 8.946 0 0 0-8.945 8.946v29.395c0 24.215 19.813 44.027 44.028 44.027h29.398c.645 0 1.274-.07 1.883-.2-22.293-2.109-39.887-21.007-39.887-43.827zm0 0" fill="#1dd1a1"/><path d="M211.945 171.086h-29.398c-24.215 0-44.027 19.812-44.027 44.027v29.399a8.944 8.944 0 0 0 8.945 8.945h29.398c24.215 0 44.028-19.812 44.028-44.027V180.03a8.946 8.946 0 0 0-8.946-8.945zm0 0" fill="#29e5af"/><path d="M173.941 244.512v-29.395c0-22.82 17.594-41.722 39.887-43.828a9.084 9.084 0 0 0-1.883-.2h-29.398c-24.215 0-44.027 19.813-44.027 44.028v29.395a8.944 8.944 0 0 0 8.945 8.945h29.398c1.395 0 2.778-.07 4.14-.2-4.034-.866-7.062-4.448-7.062-8.745zm0 0" fill="#1dd1a1"/><path d="M260.832 306.14H16.207a8.245 8.245 0 0 0-8.246 8.247v22.722a8.245 8.245 0 0 0 8.246 8.246h244.625c4.555 0 8.25-3.69 8.25-8.246v-22.722c0-4.555-3.695-8.246-8.25-8.246zm0 0" fill="#ee5253"/><path d="M260.832 321.352H16.207c-4.336 0-7.887-3.352-8.215-7.606-.015.215-.031.426-.031.64v22.72a8.246 8.246 0 0 0 8.246 8.25h244.629a8.246 8.246 0 0 0 8.246-8.25v-22.72c0-.214-.016-.425-.031-.64-.328 4.254-3.88 7.606-8.219 7.606zm0 0" fill="#d83941"/><path d="M151.605 120.848h-26.171c-4.454 0-8.094 3.644-8.094 8.093v5.825c0 4.449 3.644 8.093 8.094 8.093h26.171c4.454 0 8.094-3.644 8.094-8.093v-5.825c0-4.449-3.64-8.093-8.094-8.093zm0 0" fill="#2388e2"/><path d="M144.719 134.766v-5.825c0-4.246 3.316-7.75 7.488-8.062-.2-.012-.398-.031-.602-.031h-26.171c-4.454 0-8.094 3.644-8.094 8.093v5.825c0 4.449 3.64 8.093 8.094 8.093h26.171c.204 0 .403-.02.602-.03-4.172-.313-7.488-3.817-7.488-8.063zm0 0" fill="#2d80e2"/><path d="M178.5 49.875H98.543a6.971 6.971 0 0 0-6.973 6.969v44.468c0 11.293 9.243 20.536 20.54 20.536h52.824c11.293 0 20.539-9.243 20.539-20.535v-44.47a6.976 6.976 0 0 0-6.973-6.968zm0 0" fill="#54a0ff"/><path d="M126.574 101.313v-44.47a6.974 6.974 0 0 1 6.973-6.972H98.543a6.974 6.974 0 0 0-6.973 6.973v44.468c0 11.293 9.243 20.536 20.54 20.536h35.003c-11.297 0-20.539-9.239-20.539-20.535zm0 0" fill="#2388e2"/><path d="M150.016 80.516c0 6.347-5.149 11.496-11.496 11.496-6.348 0-11.493-5.149-11.493-11.496s5.145-11.493 11.493-11.493c6.347 0 11.496 5.145 11.496 11.493zm0 0" fill="#2388e2"/><path d="M15.75 298.805c-8.684 0-15.75 7.066-15.75 15.75v22.718c0 8.684 7.066 15.747 15.75 15.747h4.07l31.504 137.214C54.266 503.051 65.508 512 78.656 512h41.903c4.144 0 7.5-3.355 7.5-7.5a7.5 7.5 0 0 0-7.5-7.5H78.656a12.978 12.978 0 0 1-12.71-10.125L35.21 353.02h205.7l-30.735 133.855A12.978 12.978 0 0 1 197.465 497h-41.903a7.497 7.497 0 0 0-7.5 7.5 7.5 7.5 0 0 0 7.5 7.5h41.903c13.148 0 24.39-8.953 27.332-21.77l31.508-137.21h4.07c8.684 0 15.746-7.063 15.746-15.747v-22.718c0-8.684-7.062-15.75-15.746-15.75H145.562V261.05c.477.043.958.074 1.446.074h29.394c28.414 0 51.532-23.117 51.532-51.531v-29.395c0-9.07-7.38-16.445-16.45-16.445H182.09c-14.262 0-27.188 5.828-36.528 15.223v-28.454h5.586c8.598 0 15.594-6.996 15.594-15.593v-4.82c0-.235-.027-.458-.035-.688a27.94 27.94 0 0 0 25.664-25.145c.41-4.125-2.594-7.8-6.715-8.21-4.117-.422-7.8 2.593-8.215 6.71-.656 6.582-6.355 11.739-12.968 11.739h-52.825c-7.187 0-13.035-5.852-13.035-13.04V57.54h78.899v10.988c0 4.141 3.355 7.5 7.5 7.5s7.5-3.359 7.5-7.5V57.012c0-6.457-4.25-11.938-10.102-13.797V15.594C182.41 6.996 175.414 0 166.816 0h-4.82c-8.598 0-15.594 6.996-15.594 15.594v26.945H129.72V15.594C129.719 6.996 122.727 0 114.125 0h-4.82C100.707 0 93.71 6.996 93.71 15.594v27.625c-5.848 1.855-10.102 7.336-10.102 13.793v44.465c0 14.707 11.387 26.8 25.805 27.941-.008.23-.035.457-.035.691v4.82c0 8.598 6.996 15.594 15.594 15.594h5.586v28.454c-9.336-9.399-22.262-15.227-36.528-15.227H64.637c-9.07 0-16.45 7.379-16.45 16.45v29.394c0 28.414 23.118 51.527 51.532 51.527h29.398c.485 0 .965-.027 1.442-.07v37.754zM161.402 15.594c0-.309.282-.594.594-.594h4.82c.313 0 .594.285.594.594v26.945h-6.008zm-52.691 0c0-.309.281-.594.594-.594h4.82c.313 0 .594.285.594.594v26.945h-6.008zm73.379 163.16h29.394c.801 0 1.446.648 1.446 1.445v29.395c0 20.144-16.383 36.527-36.528 36.527h-19.754l39.707-40.023a7.497 7.497 0 0 0-.042-10.606 7.497 7.497 0 0 0-10.606.043L145.563 236v-20.719c0-20.14 16.386-36.527 36.527-36.527zm-57.113-43.23a.617.617 0 0 1-.594-.594v-4.82c0-.313.281-.594.594-.594h26.171c.309 0 .594.28.594.593v4.82c0 .31-.285.59-.594.59h-26.171zm-34.563 60.011a7.497 7.497 0 0 0-10.605-.043 7.497 7.497 0 0 0-.043 10.606l39.71 40.023H99.72c-20.14 0-36.528-16.383-36.528-36.527v-29.395c0-.797.649-1.445 1.446-1.445h29.398c20.14 0 36.528 16.387 36.528 36.527V236zm169.961 118.27a.75.75 0 0 1 .746.75v22.718c0 .41-.336.747-.746.747H15.75a.746.746 0 0 1-.746-.747v-22.718c0-.414.332-.75.746-.75zm0 0"/><path d="M138.063 61.688c-10.473 0-18.997 8.523-18.997 18.996s8.524 18.992 18.996 18.992 18.993-8.52 18.993-18.992-8.52-18.996-18.993-18.996zm0 22.988a3.997 3.997 0 0 1-3.993-3.992c0-2.204 1.79-3.996 3.993-3.996s3.992 1.792 3.992 3.996c0 2.199-1.79 3.992-3.993 3.992zm0 0"/></svg>