<svg xmlns="http://www.w3.org/2000/svg" width="512" height="512"><path fill="#446fa4" d="M150.987 456.89h30V512h-30z"/><path fill="#2f5995" d="M331.013 456.89h30V512h-30z"/><path d="M438.059 327.324c0 92.87-81.671 168.426-182.059 168.426h-.969c-99.944-.485-181.089-75.855-181.089-168.426 0-44.238 19.067-87.002 52.56-118.392v-42.96h258.996v42.96c33.494 31.389 52.561 74.153 52.561 118.392z" fill="#2f5994"/><path d="M438.059 327.324c0 92.87-81.671 168.426-182.059 168.426h-.969V165.972h130.468v42.96c33.493 31.389 52.56 74.153 52.56 118.392z" fill="#183158"/><path fill="#fabc00" d="M127.963 50.482h84.712v65.95h-84.712z"/><path fill="#ff9600" d="M170.319 50.482h42.356v65.95h-42.356z"/><path fill="#fabc00" d="M212.675 50.482h84.712v65.95h-84.712z"/><path fill="#ff9600" d="M255.031 50.482h42.356v65.95h-42.356z"/><path fill="#fabc00" d="M297.387 50.482h84.712v65.95h-84.712z"/><path fill="#ff9600" d="M339.743 50.482h42.356v65.95h-42.356z"/><path fill="#fabc00" d="M170.319 0h84.712v50.482h-84.712z"/><path fill="#ff9600" d="M212.675 0h42.356v50.482h-42.356z"/><path fill="#446fa4" d="M105.816 100.965h298.43v95.943h-298.43zM334.07 263.71v30h-27.16c-6.49 22-26.87 38.09-50.93 38.09-.31 0-.61 0-.92-.01-23.67-.4-43.61-16.36-50.02-38.08h-27.11v-30h54.95v15c0 12.42 9.87 22.59 22.18 23.07.31.01.61.02.92.02 12.73 0 23.09-10.36 23.09-23.09v-15h55z"/><path d="M279.07 263.71h55v30h-27.16c-6.49 22-26.87 38.09-50.93 38.09-.31 0-.61 0-.92-.01v-30.01c.31.01.61.02.92.02 12.73 0 23.09-10.36 23.09-23.09v-15zM255.031 100.965h149.215v95.943H255.031z" fill="#2f5995"/></svg>