<svg xmlns="http://www.w3.org/2000/svg" viewBox="0 0 512.06 512.06" width="512" height="512"><path d="M512.06 114.3v283.46l-6.19 4.49c-67.7 49.12-156.42 76.16-249.84 76.16S73.89 451.37 6.19 402.25L0 397.76V114.3l6.19-4.49c67.7-49.12 156.42-76.16 249.84-76.16s182.14 27.04 249.84 76.16l6.19 4.49z" fill="#bd6100"/><path d="M512.06 256.03v141.73l-6.19 4.49c-67.7 49.12-156.42 76.16-249.84 76.16S73.89 451.37 6.19 402.25L0 397.76V256.03h512.06z" fill="#703700"/><path fill="#bd6100" d="M.03 310.28h512v30H.03z"/><path fill="#f80" d="M.03 171.78h512v30H.03zM145.697 226.03h57.333v30h-57.333zM223.565 226.03h28.986v30h-28.986z"/><g fill="#f80"><path d="M157.49 43.57v424.92l-18.78-4.9c-20.93-5.46-41.32-12.44-60.61-20.75l-9.07-3.9V73.12l9.07-3.9c19.29-8.31 39.69-15.29 60.61-20.75l18.78-4.9zM443.03 73.12v365.82l-9.07 3.9c-19.29 8.31-39.68 15.29-60.61 20.75l-18.78 4.9V43.57l18.78 4.9c20.92 5.46 41.32 12.44 60.61 20.75l9.07 3.9z"/></g><path d="M69.03 256.03h88.46v212.46l-18.78-4.9c-20.93-5.46-41.32-12.44-60.61-20.75l-9.07-3.9V256.03zM443.03 256.03v182.91l-9.07 3.9c-19.29 8.31-39.68 15.29-60.61 20.75l-18.78 4.9V256.03h88.46z" fill="#bd6100"/></svg>