<svg xmlns="http://www.w3.org/2000/svg" viewBox="0 0 511.94 511.94" width="512" height="512"><path fill="#ebded9" d="M401.59 218.86V439.8l-145.62 72.14-145.62-72.14V218.86z"/><path fill="#c9bbb6" d="M401.59 218.86V439.8l-145.62 72.14V218.86z"/><path d="M347.94 232.86v76.94c0 26.1-21.24 47.34-47.35 47.34h-89.24c-26.11 0-47.35-21.24-47.35-47.34v-76.94h183.94z" fill="#ffcebf"/><path d="M347.94 232.86v76.94c0 26.1-21.24 47.34-47.35 47.34h-44.62V232.86h91.97z" fill="#ffb99c"/><path fill="#bd6100" d="M215.146 260.276h29.294v29.294h-29.294z"/><path fill="#703700" d="M267.499 260.276h29.294v29.294h-29.294z"/><path d="M390.74 352.3l-.05 26.11-5.27 4.49c-18.05 15.39-44.78 26.25-71.49 26.25-15.94 0-31.86-3.86-45.93-12.93-4.42-2.84-8.46-6.28-12-10.14l-.03-.03c-3.55 3.87-7.6 7.32-12.03 10.17-14.07 9.07-30 12.93-45.93 12.93-26.71 0-53.44-10.86-71.49-26.25l-5.27-4.49v-26.09l18.31 4.19c3.04.43 13.64-3.76 24.07-11.61 1.12-.84 2.3-1.86 3.59-3.11 2.62-2.54 5.29-5.52 8.11-8.67 11.14-12.46 25.01-27.97 48.06-27.99h.05c12.21 0 23.79 4.53 32.53 12.41l.03-.03c8.74-7.86 20.3-12.38 32.5-12.38h.05c23.05.02 36.92 15.53 48.06 27.99 2.82 3.15 5.49 6.13 8.11 8.67 1.29 1.25 2.47 2.27 3.58 3.1 10.46 7.87 21.1 12.06 24.09 11.61l18.35-4.2z" fill="#fff1f1"/><path d="M401.967 235.86l30.309-71.541 12.491-29.486L299.273 15.442a66.278 66.278 0 0 0-5.202-3.866C282.608 3.865 269.314.01 256.001 0c-14.003-.01-28.015 4.256-39.89 12.789a70.007 70.007 0 0 0-3.444 2.652L67.172 134.833l12.491 29.486 30.309 71.541h291.995z" fill="#60da4d"/><path d="M401.967 235.86l30.309-71.541 12.491-29.486L299.273 15.442a66.278 66.278 0 0 0-5.202-3.866C282.608 3.865 269.314.01 256.001 0v235.86h145.966z" fill="#00b863"/><path d="M372.39 356.5l18.35-4.2-.05 26.11-5.27 4.49c-18.05 15.39-44.78 26.25-71.49 26.25-15.94 0-31.86-3.86-45.93-12.93-4.42-2.84-8.46-6.28-12-10.14v-68.57c8.74-7.86 20.3-12.38 32.5-12.38h.05c23.05.02 36.92 15.53 48.06 27.99 2.82 3.15 5.49 6.13 8.11 8.67 1.29 1.25 2.47 2.27 3.58 3.1 10.46 7.87 21.1 12.06 24.09 11.61z" fill="#ebded9"/><path d="M401.967 235.86l30.309-71.541H294.071V11.576C282.608 3.865 269.314.01 256.001 0c-14.003-.01-28.015 4.256-39.89 12.789v151.53H79.664l30.309 71.541h291.994z" fill="#fabc00"/><path d="M401.967 235.86l30.309-71.541H294.071V11.576C282.608 3.865 269.314.01 256.001 0v235.86h145.966z" fill="#ff9600"/></svg>