<svg xmlns="http://www.w3.org/2000/svg" width="512" height="512"><path fill="#f80" d="M0 133.765h512v244.47H0z"/><path fill="#bd6100" d="M257.76 133.765H512v244.47H257.76z"/><path fill="#fabc00" d="M47.81 133.765h419.9v119.87H47.81z"/><path fill="#ff9600" d="M257.76 133.765h209.95v119.87H257.76z"/><path fill="#bd6100" d="M0 314.635h512v63.6H0zM121 177.345h29.5v29.5H121z"/><path fill="#703700" d="M361.5 177.345H391v29.5h-29.5zM257.76 314.635H512v63.6H257.76z"/><path fill="#ebded9" d="M512 299.635v30h-60.83v48.6h-30v-48.6h-60.09v48.6h-30v-48.6H271v48.6h-30v-48.6h-60.08v48.6h-30v-48.6H90.83v48.6h-30v-48.6H0v-30z"/><path fill="#c9bbb6" d="M512 299.635v30h-60.83v48.6h-30v-48.6h-60.09v48.6h-30v-48.6H271v48.6h-13.24v-78.6z"/></svg>