<svg xmlns="http://www.w3.org/2000/svg" viewBox="0 0 511.991 511.991" width="512" height="512"><path d="M389.795 97.721c-7.85 12.35-21.28 19.72-35.92 19.72h-195.76c-14.64 0-28.07-7.37-35.92-19.72-7.86-12.34-8.86-27.63-2.66-40.89l15.08-32.28c5.85-12.53 17.48-21.46 31.1-23.89a42.65 42.65 0 0 1 37.45 11.66l52.83 52.34.5-.5 52.33-51.84a42.65 42.65 0 0 1 37.45-11.66c13.62 2.43 25.25 11.36 31.1 23.9l15.08 32.27c6.2 13.26 5.2 28.55-2.66 40.89z" fill="#60da4d"/><path d="M389.795 97.721c-7.85 12.35-21.28 19.72-35.92 19.72h-97.38v-53.28l52.33-51.84a42.65 42.65 0 0 1 37.45-11.66c13.62 2.43 25.25 11.36 31.1 23.9l15.08 32.27c6.2 13.26 5.2 28.55-2.66 40.89z" fill="#00b863"/><path fill="#fabc00" d="M219.325 28.491h73.34v88.95h-73.34z"/><path fill="#ff9600" d="M256.495 28.491h36.17v88.95h-36.17z"/><path fill="#ff7816" d="M53.505 177.441h404.98v334.55H53.505z"/><path fill="#ff4b00" d="M256.495 177.441h201.99v334.55h-201.99z"/><path fill="#ffe892" d="M25.405 87.441h461.18v120H25.405z"/><path d="M360.76 388.631c0 17.474-14.164 31.638-31.634 31.638-8.226 0-15.707-3.147-21.329-8.291l-.061.033c5.152 5.627 8.303 13.116 8.303 21.346 0 17.47-14.164 31.634-31.638 31.634-12.469 0-23.253-7.219-28.405-17.708-5.152 10.489-15.936 17.708-28.405 17.708-17.474 0-31.638-14.164-31.638-31.634 0-8.328 3.225-15.899 8.483-21.55l.303-.299-.02-.025-.303.303c-5.652 5.259-13.222 8.483-21.55 8.483-17.47 0-31.634-14.164-31.634-31.638 0-12.469 7.219-23.253 17.708-28.405-10.489-5.152-17.708-15.936-17.708-28.405 0-17.474 14.164-31.638 31.634-31.638 8.267 0 15.788 3.18 21.424 8.369l.041-.025c-5.193-5.639-8.377-13.161-8.377-21.432 0-17.47 14.164-31.634 31.638-31.634 12.469 0 23.253 7.219 28.405 17.708 5.152-10.489 15.936-17.708 28.405-17.708 17.474 0 31.638 14.164 31.638 31.634 0 8.23-3.151 15.715-8.299 21.342l.041.049c5.627-5.152 13.116-8.303 21.346-8.303 17.47 0 31.634 14.164 31.634 31.638 0 12.469-7.219 23.253-17.708 28.405 10.487 5.152 17.706 15.935 17.706 28.405z" fill="#60da4d"/><path d="M360.76 388.631c0 17.474-14.164 31.638-31.634 31.638-8.226 0-15.707-3.147-21.329-8.291l-.061.033c5.152 5.627 8.303 13.116 8.303 21.346 0 17.47-14.164 31.634-31.638 31.634-12.469 0-23.253-7.219-28.405-17.708V273.169c5.152-10.489 15.936-17.708 28.405-17.708 17.474 0 31.638 14.164 31.638 31.634 0 8.23-3.151 15.715-8.299 21.342l.041.049c5.627-5.152 13.116-8.303 21.346-8.303 17.47 0 31.634 14.164 31.634 31.638 0 12.469-7.219 23.253-17.708 28.405 10.488 5.152 17.707 15.935 17.707 28.405z" fill="#00b863"/><path fill="#ffc072" d="M256.495 87.441h230.09v120h-230.09z"/><path fill="#fabc00" d="M186.995 87.441h139v120h-139z"/><path fill="#ff9600" d="M256.495 87.441h69.5v120h-69.5z"/></svg>