<svg xmlns="http://www.w3.org/2000/svg" width="512" height="512"><path fill="#fff1f1" d="M322.77 92.568v140.46L256 201.948l-66.77 31.08V92.568z"/><path fill="#60da4d" d="M144.422 92.568H25.878v140.461l66.772-31.083 66.772 31.083V92.568z"/><path fill="#ff4b00" d="M471.122 92.568H352.578v140.461l66.772-31.083 66.772 31.083V92.568z"/><path fill="#ebded9" d="M322.77 92.568v140.46L256 201.948V92.568z"/><path fill="#2f5994" d="M0 77.568h512v30H0z"/><path fill="#183158" d="M256 77.568h256v30H256z"/><path fill="#fff1f1" d="M322.77 293.971v140.46L256 403.351l-66.77 31.08v-140.46z"/><path fill="#60da4d" d="M144.422 293.971H25.878v140.461l66.772-31.083 66.772 31.083V293.971z"/><path fill="#ff4b00" d="M471.122 293.971H352.578v140.461l66.772-31.083 66.772 31.083V293.971z"/><path fill="#ebded9" d="M322.77 293.971v140.46L256 403.351v-109.38z"/><path fill="#2f5994" d="M0 278.971h512v30H0z"/><path fill="#183158" d="M256 278.971h256v30H256z"/></svg>