<svg xmlns="http://www.w3.org/2000/svg" width="512" height="512"><path fill="#ff7816" d="M67.359 19.42h444V379h-444z"/><path fill="#ff4b00" d="M296.891 19.42h214.468V379H296.891z"/><path d="M419.672 232.503c0 20.47-16.6 37.07-37.071 37.07-9.645 0-18.411-3.684-25.004-9.707l-.072.031c6.044 6.592 9.738 15.379 9.738 25.024 0 20.471-16.6 37.07-37.081 37.07-14.613 0-27.259-8.466-33.293-20.75-6.034 12.284-18.68 20.75-33.293 20.75-20.481 0-37.081-16.6-37.081-37.07 0-9.77 3.788-18.639 9.945-25.262l.352-.352-.021-.031-.352.362c-6.624 6.158-15.503 9.935-25.262 9.935-20.47 0-37.07-16.6-37.07-37.07 0-14.623 8.455-27.26 20.75-33.293-12.295-6.044-20.75-18.68-20.75-33.293 0-20.481 16.6-37.081 37.07-37.081 9.687 0 18.504 3.726 25.107 9.811l.052-.031c-6.085-6.613-9.821-15.42-9.821-25.117 0-20.471 16.6-37.07 37.081-37.07 14.613 0 27.259 8.455 33.293 20.75 6.034-12.295 18.68-20.75 33.293-20.75 20.481 0 37.081 16.6 37.081 37.07 0 9.645-3.695 18.421-9.728 25.014l.041.052c6.603-6.034 15.379-9.728 25.024-9.728 20.471 0 37.071 16.6 37.071 37.081 0 14.613-8.455 27.249-20.75 33.293 12.296 6.032 20.751 18.669 20.751 33.292z" fill="#60da4d"/><path d="M398.922 199.21c12.295 6.033 20.75 18.67 20.75 33.293 0 20.47-16.6 37.07-37.071 37.07-9.645 0-18.411-3.684-25.004-9.707l-.072.031c6.044 6.592 9.738 15.379 9.738 25.024 0 20.471-16.6 37.07-37.081 37.07-14.613 0-27.259-8.466-33.293-20.75V97.178c6.034-12.295 18.68-20.75 33.293-20.75 20.481 0 37.081 16.6 37.081 37.07 0 9.645-3.695 18.421-9.728 25.014l.041.052c6.603-6.034 15.379-9.728 25.024-9.728 20.471 0 37.071 16.6 37.071 37.081.001 14.613-8.454 27.249-20.749 33.293z" fill="#00b863"/><path fill="#2f5994" d="M.641 0v512h79.554V0z"/><path fill="#183158" d="M40.418 0h39.777v512H40.418z"/></svg>