<svg xmlns="http://www.w3.org/2000/svg" width="512" height="512"><path fill="#ff7816" d="M153.692 0h70.5v171h-70.5z"/><path fill="#fabc00" d="M224.192 0h70.5v171h-70.5z"/><path fill="#ff9600" d="M259.234 0h35.458v171h-35.458z"/><path fill="#00b863" d="M294.692 0h70.5v171h-70.5z"/><path fill="#ff9600" d="M398.334 66.043h30v30h-30zM459.876 66.043h30v30h-30zM429.209 34.71h30v30h-30zM429.209 97.356h30v30h-30z"/><path fill="#fabc00" d="M22.124 89.453h30v30h-30zM83.666 89.453h30v30h-30zM52.999 58.12h30v30h-30zM52.999 120.766h30v30h-30z"/><path d="M436.742 348.67c0 90.06-79.2 163.33-176.55 163.33h-.94c-96.92-.47-175.61-73.56-175.61-163.33 0-42.9 18.49-84.37 50.97-114.81V192.2h251.16v41.66c32.48 30.44 50.97 71.91 50.97 114.81z" fill="#2f5994"/><path d="M436.742 348.67c0 90.06-79.2 163.33-176.55 163.33h-.94V192.2h126.52v41.66c32.48 30.44 50.97 71.91 50.97 114.81z" fill="#183158"/><path fill="#446fa4" d="M114.552 140h289.4v82.2h-289.4zM338.262 279.96v30h-27.16c-6.49 22-26.87 38.09-50.93 38.09-.31 0-.61 0-.92-.01-23.67-.4-43.61-16.36-50.02-38.08h-27.11v-30h54.95v15c0 12.42 9.87 22.59 22.18 23.07.31.01.61.02.92.02 12.73 0 23.09-10.36 23.09-23.09v-15h55z"/><path d="M283.262 279.96h55v30h-27.16c-6.49 22-26.87 38.09-50.93 38.09-.31 0-.61 0-.92-.01v-30.01c.31.01.61.02.92.02 12.73 0 23.09-10.36 23.09-23.09v-15zM259.252 140h144.7v82.2h-144.7z" fill="#2f5995"/></svg>