<svg xmlns="http://www.w3.org/2000/svg" width="512" height="512"><path fill="#60da4d" d="M39 102.03h436v233.84H39z"/><path fill="#00b863" d="M255.84 102.03H475v233.84H255.84z"/><path fill="#2f5994" d="M39 269.34h436v66.53H39z"/><path fill="#ff7816" d="M127.88 269.34h256.24v66.53H127.88z"/><g fill="#008040"><path d="M364.75 202.333h28.986v30H364.75zM410.75 202.333h28.986v30H410.75z"/></g><g fill="#00ab00"><path d="M72.264 202.333h28.986v30H72.264zM118.264 202.333h28.986v30h-28.986z"/></g><path fill="#183158" d="M255.84 269.34H475v66.53H255.84z"/><path fill="#ff4b00" d="M255.84 269.34h128.28v66.53H255.84z"/><path fill="#fabc00" d="M180.42 226.27h150.84v124.6H180.42z"/><path fill="#ff9600" d="M255.84 226.27h75.42v124.6h-75.42z"/><path fill="#60da4d" d="M0 320.87h512v89.1H0z"/><path fill="#00b863" d="M255.84 320.87H512v89.1H255.84z"/></svg>