<svg xmlns="http://www.w3.org/2000/svg" width="512" height="512"><path d="M355.559 512c-63.186 0-114.591-51.405-114.591-114.591V270.036h30v127.373c0 46.644 37.947 84.591 84.591 84.591v30z" fill="#00ab00"/><path d="M473.36 298.29c-20.35 20.36-49.74 26.17-75.26 17.47 8.7 25.52 2.89 54.9-17.47 75.26-28.51 28.52-74.75 28.52-103.27 0-13.59-13.59-20.69-31.21-21.32-49.02l-.03-71.96h-.02l-.03 71.96c-.01.42-.03.83-.06 1.25-.91 17.38-7.99 34.5-21.26 47.77-28.52 28.52-74.76 28.52-103.27 0-20.36-20.36-26.17-49.74-17.47-75.26-25.52 8.7-54.91 2.89-75.26-17.47-28.52-28.52-28.52-74.75 0-103.27 13.59-13.59 31.21-20.69 49.02-21.33l100.21-.02-50.88-50.91c-12.14-13.04-19.58-30.51-19.58-49.74C117.41 32.69 150.1 0 190.43 0c28.71 0 53.54 16.58 65.47 40.67.03.07.07.13.1.2C267.89 16.67 292.78 0 321.57 0c40.33 0 73.02 32.69 73.02 73.02 0 19.23-7.44 36.7-19.58 49.74l-50.88 50.91 100.21.02c17.81.64 35.43 7.74 49.02 21.33 28.52 28.52 28.52 74.75 0 103.27z" fill="#60da4d"/><path d="M473.36 298.29c-20.35 20.36-49.74 26.17-75.26 17.47 8.7 25.52 2.89 54.9-17.47 75.26-28.51 28.52-74.75 28.52-103.27 0-13.59-13.59-20.69-31.21-21.32-49.02l-.03-71.96h-.02l-.03 71.96c-.01.42-.03.83-.06 1.25V40.67c.03.07.07.13.1.2C267.89 16.67 292.78 0 321.57 0c40.33 0 73.02 32.69 73.02 73.02 0 19.23-7.44 36.7-19.58 49.74l-50.88 50.91 100.21.02c17.81.64 35.43 7.74 49.02 21.33 28.52 28.52 28.52 74.75 0 103.27z" fill="#00b863"/></svg>