<svg height="511pt" viewBox="0 1 511 511.999" width="511pt" xmlns="http://www.w3.org/2000/svg"><path d="M504.281 133.293c0 22.227-18.215 40.18-40.18 40.18h-13.917l-375.176.05c-8.797-.043-15.403-.101-20.414-.183-5.293-.07-8.805-.18-11.215-.324-16.934-.977-35.32-17.387-35.32-39.723V47.738c0-22.097 18.086-40.172 40.183-40.172h415.86c16.507 0 30.789 10.098 36.933 24.399.434.988.817 1.984 1.156 3.015 3.653 10.75 1.426 11.618 2.09 98.313zm0 0" fill="#60c8dd"/><path d="M504.281 133.293c0 22.227-18.215 40.18-40.18 40.18h-13.917l-375.176.05c-8.797-.043-15.403-.101-20.414-.183a39.623 39.623 0 0 1-3.207-15.653V72.133c0-22.098 18.082-40.168 40.18-40.168h409.468c.434.988.817 1.984 1.156 3.015 3.653 10.75 1.426 11.618 2.09 98.313zm0 0" fill="#7cd2e3"/><path d="M465.371 127.645v45.808c-1.2.027-417.09.027-418.39 0v-45.808a4.266 4.266 0 0 1 4.265-4.266h409.86a4.271 4.271 0 0 1 4.265 4.266zm0 0" fill="#5f6c75"/><path d="M335.414 486.492c0 9.91-8.035 17.945-17.945 17.945H194.953c-9.914 0-17.945-8.035-17.945-17.945V214.848c0-9.91 8.031-17.946 17.945-17.946H317.47c9.91 0 17.945 8.035 17.945 17.946zm0 0" fill="#60c8dd"/><path d="M250.836 196.902h-50.457l8.012 34.68a5.208 5.208 0 0 0 5.078 4.04h85.484a5.211 5.211 0 0 0 5.078-4.04l8.012-34.68zm0 0" fill="#2cb3cd"/><path d="M315.883 261.738v213.836a4.291 4.291 0 0 1-4.29 4.29H200.833a4.291 4.291 0 0 1-4.289-4.29V261.738a4.291 4.291 0 0 1 4.289-4.289h110.762a4.291 4.291 0 0 1 4.289 4.29zm0 0" fill="#c2eaf2"/><path d="M315.883 261.738v213.836a4.291 4.291 0 0 1-4.29 4.29H220.38a4.291 4.291 0 0 1-4.29-4.29V261.738a4.291 4.291 0 0 1 4.29-4.289h91.215a4.291 4.291 0 0 1 4.289 4.29zm0 0" fill="#def4f8"/><path d="M292.82 319.723c0 20.218-16.39 36.609-36.61 36.609s-36.608-16.39-36.608-36.61 16.39-36.609 36.609-36.609 36.61 16.39 36.61 36.61zm0 0" fill="#1ed688"/><path d="M292.82 417.586c0 20.219-16.39 36.61-36.61 36.61s-36.608-16.391-36.608-36.61 16.39-36.61 36.609-36.61 36.61 16.391 36.61 36.61zm0 0" fill="#fb5858"/><path d="M509.363 32.559C502.797 13.086 484.61 0 464.102 0h-343.38a7.564 7.564 0 1 0 0 15.129h343.38c14.007 0 26.437 8.945 30.93 22.277 3.1 9.137 1.034 10.621 1.687 95.883 0 14.926-10.082 27.531-23.79 31.39v-37.034c0-6.524-5.304-11.829-11.827-11.829H342.016a7.561 7.561 0 0 0-7.563 7.563 7.562 7.562 0 0 0 7.563 7.566h115.789v9.782H54.543v-9.782h260.242a7.562 7.562 0 0 0 7.563-7.566 7.561 7.561 0 0 0-7.563-7.563H51.246c-6.523 0-11.832 5.305-11.832 11.829v37.093a25.89 25.89 0 0 0-1.164-.414c-13.531-4.383-22.625-16.855-22.625-31.035V47.734c0-17.98 14.633-32.605 32.617-32.605h45.25a7.564 7.564 0 0 0 0-15.129h-45.25C21.918 0 .5 21.414.5 47.734v85.555c0 25.547 20.16 46.25 44.148 47.356 3.114 1.003 421.11.347 421.211.343 25.516-.93 45.989-21.965 45.989-47.758-.668-87.359 1.687-88.37-2.485-100.671zM457.801 165.89c-.14 0-390.57.086-403.258-.114v-9.922h403.258zm0 0"/><path d="M432.16 43.055c0 5.535-4.488 10.02-10.02 10.02a10.018 10.018 0 0 1-10.019-10.02c0-5.532 4.484-10.016 10.02-10.016 5.53 0 10.02 4.484 10.02 10.016zm0 0M465.367 43.055c0 5.535-4.484 10.02-10.02 10.02-5.53 0-10.019-4.485-10.019-10.02 0-5.532 4.488-10.016 10.02-10.016 5.535 0 10.02 4.484 10.02 10.016zm0 0M317.469 189.34H194.953c-14.066 0-25.508 11.441-25.508 25.508v271.64c0 14.067 11.442 25.512 25.508 25.512H317.47c14.066 0 25.511-11.445 25.511-25.512v-271.64c0-14.067-11.445-25.508-25.511-25.508zm-14.938 15.125l-5.449 23.59H215.34l-5.45-23.59zm25.32 282.027c0 5.723-4.656 10.38-10.382 10.38H194.953c-5.726 0-10.383-4.657-10.383-10.38V214.848c0-5.528 4.348-10.047 9.801-10.352l6.649 28.79a12.718 12.718 0 0 0 12.449 9.898h85.484c5.985 0 11.106-4.07 12.45-9.899l6.648-28.789c5.453.305 9.8 4.824 9.8 10.352zm0 0"/><path d="M224.828 223.441h39.828a7.564 7.564 0 1 0 0-15.129h-39.828a7.565 7.565 0 1 0 0 15.13zm0 0M287.594 215.879a5.916 5.916 0 1 1-11.832 0 5.916 5.916 0 0 1 11.832 0zm0 0M315.055 249.887H197.367c-4.625 0-8.39 3.765-8.39 8.39v220.754c0 4.625 3.765 8.39 8.39 8.39h117.688c4.625 0 8.386-3.765 8.386-8.39V258.277c.004-4.625-3.761-8.39-8.386-8.39zm-6.739 222.406h-104.21V265.016h104.21zm0 0"/><path d="M256.21 363.898c20.603 0 38.75-14.59 43.153-34.687a7.565 7.565 0 0 0-5.773-9.008c-4.082-.898-8.113 1.692-9.004 5.77-2.895 13.21-14.828 22.797-28.375 22.797-16.016 0-29.047-13.032-29.047-29.047 0-28.762 37.524-39.918 53.32-15.961a7.565 7.565 0 0 0 12.629-8.328c-8.207-12.454-22.004-19.887-36.902-19.887-24.36 0-44.176 19.816-44.176 44.176s19.817 44.175 44.176 44.175zm0 0"/><path d="M256.21 344.277a7.561 7.561 0 0 0 7.563-7.562v-9.426h9.426a7.565 7.565 0 1 0 0-15.129h-9.426v-9.426a7.562 7.562 0 1 0-15.125 0v9.426h-9.425a7.564 7.564 0 1 0 0 15.13h9.425v9.425a7.561 7.561 0 0 0 7.563 7.562zm0 0M256.21 461.762c24.356 0 44.177-19.817 44.177-44.176 0-24.36-19.817-44.176-44.176-44.176-24.36 0-44.176 19.817-44.176 44.176 0 24.36 19.817 44.176 44.176 44.176zm0-73.223c16.017 0 29.048 13.031 29.048 29.047s-13.031 29.047-29.047 29.047-29.047-13.031-29.047-29.047 13.031-29.047 29.047-29.047zm0 0"/><path d="M273.2 425.148a7.564 7.564 0 0 0 7.566-7.562 7.564 7.564 0 0 0-7.567-7.563h-33.976a7.564 7.564 0 0 0-7.567 7.563 7.564 7.564 0 0 0 7.567 7.562zm0 0M111.504 420.36c-61.516-35.5-60.281-125.13 2.676-158.618a7.566 7.566 0 0 0-7.106-13.36C33.578 287.48 32.22 392.07 103.941 433.466a7.566 7.566 0 0 0 10.332-2.77 7.57 7.57 0 0 0-2.77-10.336zm0 0"/><path d="M130.816 399.59c-46.691-25.188-45.843-92.516 1.875-116.317a7.565 7.565 0 0 0-6.75-13.539c-58.75 29.305-59.703 112.211-2.308 143.172 3.703 1.996 8.277.586 10.25-3.066a7.566 7.566 0 0 0-3.067-10.25zm0 0"/><path d="M151.676 305.395a7.566 7.566 0 0 0-6.348-13.735c-41.953 19.402-43.394 79.195-1.316 100.024a7.519 7.519 0 0 0 3.351.789c7.989 0 10.485-10.817 3.36-14.348-30.625-15.156-29.567-58.621.953-72.73zm0 0M408.48 248.512c-3.62-2.086-8.246-.848-10.332 2.77-2.085 3.616-.847 8.245 2.77 10.331 61.516 35.5 60.281 125.133-2.676 158.621a7.565 7.565 0 0 0-3.125 10.23 7.565 7.565 0 0 0 10.23 3.126c73.493-39.094 74.856-143.688 3.133-185.078zm0 0"/><path d="M388.79 269.066a7.566 7.566 0 0 0-7.185 13.317c46.688 25.187 45.844 92.515-1.875 116.316a7.566 7.566 0 0 0-3.394 10.145 7.57 7.57 0 0 0 10.148 3.394c58.746-29.304 59.696-112.21 2.305-143.172zm0 0"/><path d="M368.41 290.29a7.57 7.57 0 0 0-10.137 3.42 7.57 7.57 0 0 0 3.426 10.138c30.625 15.156 29.567 58.62-.953 72.734a7.564 7.564 0 0 0 6.348 13.73c41.953-19.402 43.398-79.195 1.316-100.023zm0 0"/></svg>