<svg height="512pt" viewBox="-65 0 511 512" width="512pt" xmlns="http://www.w3.org/2000/svg"><path d="M117.34 504.418H59.05a3.145 3.145 0 0 1-3.144-3.145v-62.835h64.578v62.835a3.142 3.142 0 0 1-3.144 3.145zm0 0M323.54 504.418h-58.29a3.145 3.145 0 0 1-3.145-3.145v-62.835h64.579v62.835a3.142 3.142 0 0 1-3.145 3.145zm0 0" fill="#2cb3cd"/><path d="M374.508 26.543v422.414c0 10.473-8.488 18.965-18.961 18.965H27.043c-10.473 0-18.961-8.492-18.961-18.965V26.543c0-10.473 8.488-18.961 18.961-18.961h328.504c10.473 0 18.96 8.488 18.96 18.961zm0 0" fill="#7cd2e3"/><path d="M374.508 26.543v422.414c0 10.473-8.488 18.965-18.961 18.965H53.586c-10.473 0-18.961-8.492-18.961-18.965V26.543c0-10.473 8.488-18.961 18.96-18.961h301.962c10.473 0 18.96 8.488 18.96 18.961zm0 0" fill="#a6e0ec"/><path d="M324.691 255.484c0 73.672-59.722 133.395-133.398 133.395-73.672 0-133.395-59.723-133.395-133.395S117.621 122.09 191.293 122.09c73.676 0 133.398 59.723 133.398 133.394zm0 0" fill="#dce6eb"/><path d="M286.902 255.484c0 40.473-25.277 75.153-60.879 89.082-10.761 4.215-22.476 6.528-34.73 6.528-45.828 0-84.227-32.406-93.477-75.504a95.517 95.517 0 0 1-2.132-20.106c0-52.722 42.89-95.609 95.609-95.609 2.59 0 5.148.102 7.684.313 47.464 3.78 85.27 42.394 87.796 90.21.09 1.692.13 3.38.13 5.086zm0 0" fill="#60c8dd"/><path d="M286.902 255.484c0 40.473-25.277 75.153-60.879 89.082-42.378-3.378-77.07-34.53-85.793-75.195a95.48 95.48 0 0 1-2.132-20.101c0-40.473 25.277-75.153 60.879-89.082 47.464 3.78 85.27 42.394 87.796 90.21.09 1.692.13 3.38.13 5.086zm0 0" fill="#7cd2e3"/><path d="M374.508 26.543v57.11H8.082v-57.11c0-10.473 8.488-18.961 18.961-18.961h328.504c10.473 0 18.96 8.488 18.96 18.961zm0 0" fill="#60c8dd"/><path d="M167.387 60.152H48.773c-7.812 0-14.148-6.336-14.148-14.152s6.336-14.148 14.148-14.148h118.614c7.812 0 14.148 6.332 14.148 14.148s-6.336 14.152-14.148 14.152zm0 0" fill="#dce6eb"/><g fill="#f44545"><path d="M238.14 46c0 8.746-7.09 15.836-15.835 15.836-8.746 0-15.836-7.09-15.836-15.836s7.09-15.836 15.836-15.836S238.14 37.254 238.14 46zm0 0M294.54 46c0 8.746-7.09 15.836-15.837 15.836S262.867 54.746 262.867 46s7.09-15.836 15.836-15.836S294.54 37.254 294.54 46zm0 0M350.938 46c0 8.746-7.09 15.836-15.836 15.836-8.747 0-15.836-7.09-15.836-15.836s7.09-15.836 15.836-15.836 15.836 7.09 15.836 15.836zm0 0"/></g><path d="M286.902 255.484c0 52.723-42.886 95.61-95.609 95.61-45.828 0-84.227-32.406-93.477-75.504l55.079-21.875a63.094 63.094 0 0 1 55.218 4.234 63.002 63.002 0 0 0 31.942 8.684 62.984 62.984 0 0 0 29.008-7.067l17.71-9.168c.09 1.692.13 3.38.13 5.086zm0 0" fill="#2cb3cd"/><path d="M335.332 444.5h-48.035c-4.746 0-8.594-3.848-8.594-8.59v-20.219c0-4.742 3.848-8.59 8.594-8.59h48.035a8.592 8.592 0 0 1 8.59 8.59v20.22a8.592 8.592 0 0 1-8.59 8.589zm0 0" fill="#269ab1"/><path d="M53.586 7.582c-10.473 0-18.961 8.488-18.961 18.961v57.11H8.082v-57.11c0-10.473 8.488-18.961 18.961-18.961zm0 0" fill="#2cb3cd"/><path d="M138.633 259.375L97.816 275.59c12.29 57.258 73.371 90.445 128.207 68.976-46.12-3.675-82.68-40.101-87.39-85.191zm0 0" fill="#269ab1"/><path d="M355.547 0H27.043C12.406 0 .5 11.906.5 26.543v422.414c0 14.637 11.906 26.543 26.543 26.543H48.32v28.918A7.582 7.582 0 0 0 55.902 512h64.586a7.582 7.582 0 0 0 7.582-7.582V475.5h126.45v28.918a7.582 7.582 0 0 0 7.582 7.582h64.586a7.582 7.582 0 0 0 7.582-7.582V475.5h21.277c14.637 0 26.543-11.906 26.543-26.543V26.543C382.09 11.906 370.184 0 355.547 0zM112.91 496.84H63.48V475.5h49.43zm206.2 0h-49.43V475.5h49.43zm47.816-47.883c0 6.277-5.102 11.383-11.38 11.383H27.044c-6.277 0-11.383-5.106-11.383-11.383V91.234h351.266zm0-372.887H15.66V26.543c0-6.277 5.106-11.383 11.383-11.383h328.504c6.277 0 11.379 5.106 11.379 11.383zm0 0"/><path d="M217.992 393.934a7.577 7.577 0 0 0 6.016-8.871c-.79-4.114-4.77-6.801-8.871-6.02C137.12 394 65.48 333.945 65.48 255.484c0-69.375 56.438-125.812 125.813-125.812s125.816 56.437 125.816 125.812c0 50.942-30.379 96.536-77.386 116.16a7.581 7.581 0 0 0 5.84 13.993c52.671-21.989 86.707-73.074 86.707-130.153 0-77.734-63.239-140.976-140.977-140.976-77.734 0-140.977 63.242-140.977 140.976 0 87.934 80.297 155.2 167.676 138.45zm0 0"/><path d="M237.879 180.82a7.582 7.582 0 1 0 8.05-12.852c-67.78-42.445-157.827 6.02-157.827 87.516 0 56.899 46.293 103.192 103.191 103.192 88.797 0 135.875-105.754 77.047-171.774a7.582 7.582 0 0 0-11.32 10.086 87.847 87.847 0 0 1 21.77 49.008c-9.063 3.961-19.895 13.063-38.731 13.063-27.192 0-31.946-17.375-63.891-17.375-21.465 0-31.566 8.332-72.379 23.375-7.95-73.145 72.273-122.957 134.09-84.239zm-61.711 76.028c27.402 0 31.805 17.37 63.887 17.37 21.66 0 35.316-9.78 38.949-11.257-3.809 45.055-41.688 80.555-87.711 80.555-39.969 0-73.797-26.778-84.496-63.336 45.723-17.118 52.152-23.332 69.371-23.332zm0 0M167.387 24.27H155.57a7.58 7.58 0 0 0-7.582 7.582 7.579 7.579 0 0 0 7.582 7.578h11.817a6.58 6.58 0 0 1 6.57 6.57c0 3.625-2.95 6.57-6.57 6.57H48.773a6.578 6.578 0 0 1-6.57-6.57 6.58 6.58 0 0 1 6.57-6.57h79.504a7.579 7.579 0 0 0 7.582-7.578 7.58 7.58 0 0 0-7.582-7.582H48.773c-11.98 0-21.73 9.75-21.73 21.73 0 11.984 9.75 21.73 21.73 21.73h118.614c11.98 0 21.73-9.746 21.73-21.73 0-11.98-9.75-21.73-21.73-21.73zm0 0M222.305 22.586c-12.91 0-23.418 10.504-23.418 23.414 0 12.914 10.508 23.418 23.418 23.418S245.723 58.914 245.723 46c0-12.91-10.508-23.414-23.418-23.414zm0 31.668c-4.551 0-8.254-3.703-8.254-8.254s3.703-8.254 8.254-8.254c4.55 0 8.254 3.703 8.254 8.254s-3.704 8.254-8.254 8.254zm0 0M278.703 22.586c-12.91 0-23.418 10.504-23.418 23.414 0 12.914 10.508 23.418 23.418 23.418 12.914 0 23.418-10.504 23.418-23.418 0-12.91-10.504-23.414-23.418-23.414zm0 31.668c-4.55 0-8.254-3.703-8.254-8.254s3.703-8.254 8.254-8.254 8.254 3.703 8.254 8.254-3.703 8.254-8.254 8.254zm0 0M335.102 22.586c-12.91 0-23.418 10.504-23.418 23.414 0 12.914 10.507 23.418 23.418 23.418 12.91 0 23.418-10.504 23.418-23.418 0-12.91-10.504-23.414-23.418-23.414zm0 31.668c-4.551 0-8.254-3.703-8.254-8.254s3.703-8.254 8.254-8.254c4.55 0 8.253 3.703 8.253 8.254s-3.703 8.254-8.253 8.254zm0 0M271.121 415.691v20.22c0 8.913 7.258 16.171 16.176 16.171h48.035c8.914 0 16.172-7.258 16.172-16.172v-20.219c0-8.914-7.258-16.171-16.172-16.171h-48.035c-8.918 0-16.176 7.257-16.176 16.171zm65.219 0v20.22a1.01 1.01 0 0 1-1.008 1.007h-48.035a1.011 1.011 0 0 1-1.012-1.008v-20.219c0-.554.453-1.007 1.012-1.007h48.035a1.01 1.01 0 0 1 1.008 1.007zm0 0"/></svg>