<svg height="512pt" viewBox="-115 0 512 512" width="512pt" xmlns="http://www.w3.org/2000/svg"><path d="M274.414 33.645v444.71c0 14.418-11.687 26.094-26.105 26.094H33.645c-14.418 0-26.094-11.676-26.094-26.094V33.645C7.55 19.227 19.227 7.55 33.645 7.55h214.664c14.418 0 26.105 11.676 26.105 26.094zm0 0" fill="#60c8dd"/><path d="M213.46 7.55l-6.67 38.716a6.114 6.114 0 0 1-6.02 5.074H82.09a6.114 6.114 0 0 1-6-4.942L68.5 7.551zm0 0" fill="#2cb3cd"/><path d="M247.188 89.777v374.727c0 7.16-5.81 12.969-12.97 12.969H47.743c-7.156 0-12.965-5.809-12.965-12.97V89.778c0-7.16 5.809-12.968 12.965-12.968H234.22c7.16 0 12.969 5.808 12.969 12.968zm0 0" fill="#c2eaf2"/><path d="M247.188 89.777v374.727c0 7.16-5.81 12.969-12.97 12.969h-154.1c-7.157 0-12.966-5.809-12.966-12.97V89.778c0-7.16 5.809-12.968 12.965-12.968H234.22c7.16 0 12.969 5.808 12.969 12.968zm0 0" fill="#def4f8"/><path d="M113.969 208.688H99.875a8.726 8.726 0 0 1-8.727-8.727v-52.348a8.728 8.728 0 0 1 8.727-8.726h14.094c4.816 0 8.722 3.906 8.722 8.726v52.348c0 4.82-3.906 8.726-8.722 8.726zm0 0" fill="#f44545"/><path d="M197.617 304.656h-14.094a8.726 8.726 0 0 1-8.726-8.726v-52.348c0-4.816 3.906-8.723 8.726-8.723h14.094a8.724 8.724 0 0 1 8.723 8.723v52.348c0 4.82-3.906 8.726-8.723 8.726zm0 0" fill="#2cb3cd"/><path d="M148.027 400.625h-14.093a8.724 8.724 0 0 1-8.723-8.723v-52.347c0-4.82 3.906-8.727 8.723-8.727h14.093a8.726 8.726 0 0 1 8.727 8.727v52.347c-.004 4.817-3.906 8.723-8.727 8.723zm0 0" fill="#1ab975"/><path d="M248.309 0H33.645C15.094 0 0 15.094 0 33.645v310.293a7.551 7.551 0 0 0 15.102 0V33.644c0-10.227 8.316-18.543 18.543-18.543H62.28l6.399 32.753c1.257 6.395 6.898 11.036 13.41 11.036h118.676c6.672 0 12.332-4.77 13.46-11.34l5.598-32.45h28.485c10.23 0 18.554 8.317 18.554 18.544v444.71c0 10.227-8.324 18.543-18.554 18.543H33.645c-10.227 0-18.543-8.316-18.543-18.543V374.137a7.551 7.551 0 0 0-15.102 0v104.218C0 496.906 15.094 512 33.645 512h214.664c18.554 0 33.652-15.094 33.652-33.645V33.645C281.96 15.094 266.863 0 248.309 0zm-48.754 43.79H83.273l-5.605-28.688H204.5zm0 0"/><path d="M180.66 69.262H47.738c-11.308 0-20.511 9.203-20.511 20.511v374.735c0 11.308 9.203 20.512 20.511 20.512h186.485c11.312 0 20.511-9.204 20.511-20.512V89.773c0-11.308-9.199-20.511-20.511-20.511H207.84a7.55 7.55 0 0 0-7.55 7.547 7.551 7.551 0 0 0 7.55 7.55h26.383a5.421 5.421 0 0 1 5.414 5.414v374.735a5.421 5.421 0 0 1-5.414 5.414H47.738a5.421 5.421 0 0 1-5.414-5.414V89.773a5.421 5.421 0 0 1 5.414-5.414H180.66a7.551 7.551 0 0 0 7.55-7.55 7.55 7.55 0 0 0-7.55-7.547zm0 0M188.46 29.746a7.551 7.551 0 0 1-15.1 0 7.548 7.548 0 0 1 7.55-7.547 7.55 7.55 0 0 1 7.55 7.547zm0 0M98.664 36.652h50.113a7.549 7.549 0 0 0 7.551-7.55 7.549 7.549 0 0 0-7.55-7.551H98.663a7.549 7.549 0 0 0-7.55 7.55 7.549 7.549 0 0 0 7.55 7.551zm0 0"/><path d="M219 166.234h-88.762V147.61c0-8.968-7.297-16.265-16.265-16.265H99.879c-8.98 0-16.277 7.297-16.277 16.265v18.625H62.965a7.554 7.554 0 0 0-7.55 7.551 7.549 7.549 0 0 0 7.55 7.55h20.637v18.622c0 8.98 7.296 16.277 16.277 16.277h14.094c8.968 0 16.265-7.297 16.265-16.277v-18.621H219a7.549 7.549 0 0 0 7.55-7.55 7.554 7.554 0 0 0-7.55-7.552zm-103.86 33.723c0 .656-.523 1.18-1.167 1.18H99.879c-.656 0-1.18-.524-1.18-1.18v-52.348c0-.644.524-1.168 1.18-1.168h14.094c.644 0 1.168.524 1.168 1.168zm0 0M219 262.21h-5.105v-18.624c0-8.977-7.31-16.277-16.278-16.277h-14.094c-8.98 0-16.277 7.3-16.277 16.277v18.625H62.965a7.546 7.546 0 0 0-7.55 7.55 7.554 7.554 0 0 0 7.55 7.551h104.281v18.622c0 8.972 7.297 16.27 16.277 16.27h14.094c8.969 0 16.278-7.298 16.278-16.27v-18.622H219a7.554 7.554 0 0 0 7.55-7.55c0-4.18-3.382-7.551-7.55-7.551zm-20.203 33.724c0 .644-.535 1.168-1.18 1.168h-14.094a1.175 1.175 0 0 1-1.175-1.168v-52.348c0-.652.53-1.176 1.175-1.176h14.094c.645 0 1.18.524 1.18 1.176zm0 0M133.934 408.18h14.093c8.97 0 16.278-7.309 16.278-16.278v-18.625H219c4.168 0 7.55-3.382 7.55-7.547a7.554 7.554 0 0 0-7.55-7.55h-54.695v-18.625c0-8.97-7.309-16.278-16.278-16.278h-14.093c-8.97 0-16.278 7.309-16.278 16.278v18.625H62.965a7.554 7.554 0 0 0-7.55 7.55c0 4.165 3.382 7.547 7.55 7.547h54.691v18.625c0 8.97 7.309 16.278 16.278 16.278zm-1.176-68.625c0-.645.531-1.176 1.176-1.176h14.093c.645 0 1.18.531 1.18 1.176v52.347c0 .645-.535 1.18-1.18 1.18h-14.093a1.185 1.185 0 0 1-1.176-1.18v-52.347zm0 0"/></svg>