<svg height="512pt" viewBox="-4 0 512 512.001" width="512pt" xmlns="http://www.w3.org/2000/svg"><path d="M447.773 462.387H447.426h.18-.329.125H446.25h.086-.133.008c-3.547-.004-14.242-.008-42.84-.02 5.649 0 10.227-4.578 10.227-10.226v-21.602c0-5.644-4.578-10.223-10.227-10.223h-24.027V181.793l44.535 44.621c5.738 5.738 15.039 5.738 20.777 0l5.52-5.52c5.738-5.738 5.738-15.039 0-20.777L262.277 11.88c-5.742-5.738-15.164-5.762-20.925 0L52.977 200.117c-5.739 5.738-5.739 15.04 0 20.778l5.52 5.523c5.737 5.738 15.038 5.738 20.776 0l44.536-44.504v238.402H99.785c-5.648 0-10.226 4.579-10.226 10.223v21.606c0 5.644 4.578 10.222 10.226 10.222-28.598.012-39.293.016-42.844.02h.012-.133.082H55.754h.121-.328.183-.351c-5.649 0-10.227 4.578-10.227 10.222v21.606c0 5.644 4.578 10.222 10.227 10.222h392.394c5.645 0 10.223-4.578 10.223-10.222v-21.606c0-5.648-4.578-10.222-10.223-10.222zm0 0" fill="#def4f8"/><path d="M379.344 148.516V504.28H123.809V148.516l127.77-117.703 20.187 18.593zm0 0" fill="#c2eaf2"/><path d="M379.344 148.516V504.28H160.707V188.31a57.018 57.018 0 0 1 15.824-39.422l95.235-99.48zm0 0" fill="#def4f8"/><path d="M450.176 200.117L262.277 11.88c-5.742-5.738-15.164-5.762-20.925 0L52.977 200.117c-5.739 5.738-5.739 15.04 0 20.778l5.52 5.523c5.737 5.734 15.038 5.734 20.776 0l172.54-172.402 172.066 172.402c5.738 5.734 15.039 5.734 20.777 0l5.52-5.523c5.738-5.739 5.738-15.04 0-20.778zm0 0" fill="#60c8dd"/><path d="M403.367 462.367H99.785c-5.648 0-10.226-4.578-10.226-10.226v-21.602c0-5.644 4.578-10.223 10.226-10.223h303.582c5.649 0 10.227 4.579 10.227 10.223v21.602c0 5.648-4.578 10.226-10.227 10.226zm0 0" fill="#44bfd7"/><path d="M55.379 504.438h392.394c5.649 0 10.223-4.579 10.223-10.223v-21.606c0-5.644-4.578-10.222-10.223-10.222H55.38c-5.649 0-10.223 4.578-10.223 10.222v21.606c-.004 5.644 4.574 10.222 10.223 10.222zm0 0" fill="#2cb3cd"/><path d="M250.527 338.934c-10.847 0-19.672-8.825-19.672-19.668 0-10.848 8.825-19.668 19.672-19.668 10.844 0 19.668 8.82 19.668 19.668 0 10.843-8.824 19.668-19.668 19.668zm0 0" fill="#1ab975"/><path d="M447.773 454.824h-26.84c.41-2.707.137-2.105.223-24.285 0-9.809-7.98-17.789-17.789-17.789h-16.46v-90.254a7.566 7.566 0 0 0-7.563-7.562c-4.176 0-7.567 3.386-7.567 7.562v90.254H131.375v-227.7l28.578-28.558c2.953-2.957 2.953-7.746.008-10.699a7.56 7.56 0 0 0-10.7 0c-11.265 11.258-70.984 70.902-75.335 75.277a7.132 7.132 0 0 1-10.086 0c-4.024-4.586-7.602-6.027-7.602-10.57 0-1.895.735-3.688 2.086-5.031C261.551 2.399 247.137 15.133 251.81 15.133c4.867 0-7.559-10.598 193.02 190.336a7.053 7.053 0 0 1 2.089 5.031c0 4.54-3.582 5.984-7.605 10.57-2.81 2.785-7.305 2.782-10.086 0C365.75 157.47 322.672 114.31 257.164 48.672c-2.93-2.95-7.726-2.961-10.7-.012l-76.519 76.461a7.568 7.568 0 0 0 0 10.7 7.568 7.568 0 0 0 10.7 0l71.164-71.106 119.968 120.203v107.324a7.57 7.57 0 0 0 7.567 7.567c4.172 0 7.562-3.391 7.562-7.567v-92.168l31.621 31.684c8.696 8.695 22.754 8.719 31.473 0l5.527-5.516c8.684-8.683 8.703-22.77 0-31.472L267.621 6.53c-8.695-8.695-22.894-8.722-31.613 0L47.625 194.77c-8.684 8.683-8.703 22.773 0 31.472 3.523 2.774 8.824 12.043 21.258 12.043 5.949 0 11.535-2.32 15.742-6.515l31.621-31.606V412.75h-16.46c-9.81 0-17.79 7.98-17.79 17.79.086 22.226-.187 21.577.223 24.284h-26.84c-9.809 0-17.79 7.977-17.79 17.785v21.606C37.59 504.02 45.57 512 55.38 512h312.61a7.564 7.564 0 0 0 0-15.125H55.378a2.663 2.663 0 0 1-2.66-2.66v-21.606a2.663 2.663 0 0 1 2.66-2.66c321.406 0 191.918-.015 178.484-.02 7.508 0 56.512.009 213.91.02a2.663 2.663 0 0 1 2.66 2.66v21.606a2.663 2.663 0 0 1-2.66 2.66h-50.539c-4.18 0-7.566 3.387-7.566 7.562s3.387 7.563 7.566 7.563h50.54c9.808 0 17.789-7.98 17.789-17.785v-21.606c0-9.808-7.981-17.785-17.79-17.785zM232.875 469.93h.152-.152zm.543 0h.434-.434zm172.613-17.79a2.667 2.667 0 0 1-2.664 2.665H99.785a2.667 2.667 0 0 1-2.664-2.664v-21.602a2.664 2.664 0 0 1 2.664-2.66h303.582a2.664 2.664 0 0 1 2.664 2.66zm0 0"/><path d="M345.363 263.375a7.56 7.56 0 0 0 3.125-10.227c-40.851-76.793-150.176-78.687-193.695-3.28a7.564 7.564 0 1 0 13.102 7.562c37.527-65.028 131.945-63.52 167.238 2.82a7.564 7.564 0 0 0 10.23 3.125zm0 0"/><path d="M322.668 283.094c3.738-1.864 5.254-6.406 3.39-10.145-30.199-60.547-116.835-63.285-149.671-2.41a7.56 7.56 0 0 0 3.062 10.246 7.555 7.555 0 0 0 10.246-3.062c26.766-49.61 97.782-48.23 122.828 1.98a7.562 7.562 0 0 0 10.145 3.39zm0 0"/><path d="M289.3 299.648a7.565 7.565 0 0 0 6.868 4.391c5.465 0 9.191-5.7 6.863-10.742-20.375-44.055-82.758-45.004-104.355-1.367a7.564 7.564 0 0 0 3.426 10.132c3.742 1.856 8.277.32 10.132-3.425 15.875-32.074 61.895-31.797 77.067 1.011zm0 0"/><path d="M223.293 319.266c0 15.015 12.219 27.23 27.234 27.23s27.23-12.215 27.23-27.23-12.214-27.235-27.23-27.235-27.234 12.219-27.234 27.235zm39.34 0c0 6.675-5.43 12.105-12.106 12.105-6.675 0-12.105-5.43-12.105-12.105s5.43-12.106 12.105-12.106c6.676 0 12.106 5.43 12.106 12.106zm0 0M60.426 424.598a7.562 7.562 0 0 0-2.77-10.332C-.05 380.965 1.106 296.879 60.168 265.46a7.56 7.56 0 0 0 3.125-10.227 7.565 7.565 0 0 0-10.23-3.125c-69.594 37.02-70.883 136.063-2.97 175.258a7.565 7.565 0 0 0 10.333-2.77zm0 0"/><path d="M70.86 272.234c-55.708 27.79-56.606 106.399-2.184 135.754a7.56 7.56 0 0 0 10.246-3.062 7.565 7.565 0 0 0-3.067-10.25c-43.714-23.582-42.925-86.617 1.758-108.906 3.739-1.864 5.254-6.407 3.39-10.145a7.567 7.567 0 0 0-10.144-3.39zm0 0"/><path d="M95.5 306.633a7.564 7.564 0 0 0-6.348-13.73c-39.882 18.44-41.254 75.285-1.25 95.085a7.562 7.562 0 0 0 3.348.785c7.988 0 10.488-10.812 3.363-14.34-28.55-14.128-27.562-54.644.887-67.8zm0 0M453.059 252.234c-3.621-2.086-8.246-.847-10.332 2.77a7.567 7.567 0 0 0 2.77 10.332c57.706 33.3 56.55 117.387-2.513 148.8-6.918 3.684-4.304 14.243 3.559 14.243 8.582 0 56.68-31.399 56.68-89.332 0-35.692-19.223-68.957-50.164-86.813zm0 0"/><path d="M432.293 407.367c55.703-27.789 56.605-106.398 2.184-135.758-3.676-1.984-8.262-.609-10.247 3.067s-.613 8.265 3.067 10.25c43.715 23.582 42.922 86.617-1.758 108.906a7.564 7.564 0 0 0 6.754 13.535zm0 0"/><path d="M407.652 372.969c-7.324 3.386-4.906 14.43 3.18 14.43 7.043 0 33.8-17.329 33.8-48.54 0-20.175-11.257-38.277-29.382-47.246a7.563 7.563 0 0 0-6.707 13.555c28.547 14.129 27.559 54.645-.89 67.8zm0 0"/></svg>