<svg height="512pt" viewBox="-1 0 511 512" width="512pt" xmlns="http://www.w3.org/2000/svg"><path d="M445.219 504.313H65.079c-31.423 0-56.891-25.47-56.891-56.891V64.578c0-31.422 25.468-56.89 56.89-56.89h380.14c31.423 0 56.895 25.468 56.895 56.89v382.844c0 31.422-25.472 56.89-56.894 56.89zm0 0" fill="#dce6eb"/><path d="M471.363 64.578v382.844c0 14.41-11.722 26.144-26.144 26.144H65.079c-14.419 0-26.145-11.734-26.145-26.144V64.578c0-14.41 11.726-26.148 26.144-26.148h380.14c14.423 0 26.145 11.738 26.145 26.148zm0 0" fill="#1ab975"/><path d="M471.363 64.578v382.844c0 14.41-11.722 26.144-26.144 26.144H111.242c-14.422 0-26.144-11.734-26.144-26.144V64.578c0-14.41 11.722-26.148 26.144-26.148H445.22c14.422 0 26.144 11.738 26.144 26.148zm0 0" fill="#1ed688"/><path d="M128.23 429.105l38.215-66.187c2.395-4.152 8.383-4.152 10.778 0l38.214 66.187c2.395 4.149-.597 9.336-5.386 9.336h-76.43c-4.789 0-7.785-5.187-5.39-9.336zm0 0M382.07 369.14l-38.215 66.188c-2.398 4.149-8.386 4.149-10.78 0l-38.216-66.187c-2.394-4.149.598-9.336 5.391-9.336h76.43c4.789 0 7.785 5.187 5.39 9.336zm0 0" fill="#31986b"/><path d="M445.223 0H145.129c-4.246 0-7.688 3.441-7.688 7.688s3.442 7.687 7.688 7.687h300.09c27.133 0 49.207 22.07 49.207 49.203v382.844c0 27.133-22.074 49.203-49.207 49.203H65.079c-27.134 0-49.204-22.07-49.204-49.203V64.578c0-27.133 22.07-49.203 49.203-49.203h52.379a7.689 7.689 0 0 0 0-15.375H65.078C29.468 0 .5 28.969.5 64.578v382.844C.5 483.032 29.469 512 65.078 512h380.14c35.614 0 64.583-28.969 64.583-64.578V64.578C509.8 28.968 480.832 0 445.223 0zm0 0"/><path d="M348.273 30.746H65.078c-18.652 0-33.832 15.18-33.832 33.832v382.844c0 18.652 15.18 33.832 33.832 33.832h138.55c4.243 0 7.685-3.441 7.685-7.688s-3.442-7.687-7.684-7.687H65.079c-10.177 0-18.458-8.281-18.458-18.457V64.578c0-10.176 8.281-18.457 18.457-18.457h283.195a7.687 7.687 0 1 0 0-15.375zm0 0M231.3 481.254H445.22c18.656 0 33.832-15.18 33.832-33.832V64.578c.004-18.652-15.176-33.832-33.828-33.832h-69.278c-4.242 0-7.683 3.442-7.683 7.688s3.441 7.687 7.683 7.687h69.278c10.175 0 18.457 8.281 18.457 18.457v382.844c0 10.176-8.282 18.457-18.457 18.457H231.3a7.687 7.687 0 1 0 0 15.375zm0 0"/><path d="M123.219 191.23v72.461c0 36.465 21.27 50.02 48.617 50.02 27.348 0 48.617-13.555 48.617-50.02v-72.46c0-36.231-21.27-49.79-48.617-49.79-27.348 0-48.617 13.559-48.617 49.79zm81.808 0v72.461c0 24.543-12.39 35.762-33.191 35.762-20.805 0-33.191-11.219-33.191-35.762v-72.46c0-24.31 12.386-35.528 33.19-35.528 20.802 0 33.192 11.219 33.192 35.527zm0 0M289.848 191.23v72.461c0 36.465 21.968 50.02 48.382 50.02 30.856 0 48.852-18.23 48.852-39.5 0-7.715-2.336-9.586-7.715-9.586-4.906 0-7.246 2.336-7.71 6.078-1.403 11.219-3.973 28.75-31.79 28.75-22.672 0-34.594-11.219-34.594-35.765V191.23c0-24.308 11.922-35.53 33.66-35.53 27.813 0 32.254 18.234 32.723 28.284.235 3.27 2.34 5.844 7.715 5.844s7.711-1.637 7.711-9.351c0-21.036-17.527-39.036-48.148-39.036-26.649 0-49.086 13.559-49.086 49.79zm0 0M237.887 127.43c16.968 0 30.777-13.809 30.777-30.778 0-16.972-13.809-30.78-30.777-30.78-16.973 0-30.782 13.808-30.782 30.78 0 16.97 13.81 30.778 30.782 30.778zm0-46.184c8.492 0 15.402 6.91 15.402 15.406s-6.91 15.407-15.402 15.407c-8.496 0-15.407-6.91-15.407-15.407s6.91-15.406 15.407-15.406zm0 0M133.621 446.129h76.43c10.71 0 17.375-11.637 12.047-20.863l-38.215-66.192c-5.352-9.27-18.735-9.281-24.094 0l-38.215 66.188c-5.34 9.238 1.344 20.867 12.047 20.867zm38.215-77.172l35.68 61.797h-71.36zm0 0M350.512 439.172c39.265-69.266 40.086-66.598 40.086-73.133 0-7.676-6.243-13.922-13.918-13.922h-76.43c-7.676 0-13.918 6.246-13.918 13.922 0 6.531.762 3.762 40.086 73.133 5.352 9.273 18.734 9.285 24.094 0zm-47.727-71.68h71.36l-35.68 61.797zm0 0"/></svg>