<svg height="494pt" viewBox="-2 0 494 494.944" width="494pt" xmlns="http://www.w3.org/2000/svg"><path d="M480.473 472l-13.04-11.2c-14-12-29.68-21.921-46.32-29.44s-34.402-12.801-52.64-15.36l1.68 3.36a135.435 135.435 0 0 1 14.32 60.64l-14.72-9.84a134.474 134.474 0 0 0-34.96-16.48 131.99 131.99 0 0 0-38.32-5.68l8 32-25.121-10.078a83.396 83.396 0 0 0-30.88-5.922c-10.562 0-21.038 2-30.878 5.922L192.473 480l8-32c-26.082 0-51.602 7.762-73.282 22.16L112.473 480c0-21.04 4.879-41.762 14.32-60.64l1.68-3.36c-36.563 5.2-70.88 20.8-98.961 44.8L16.472 472c4.962-44.719 32.962-83.52 73.758-102.32l30.801-14.239.082-.082C149.593 392.24 194.23 416 244.473 416c34.8 0 67.039-11.441 92.96-30.8 5.68-4.16 10.958-8.72 16-13.598 6-5.84 11.52-12.16 16.477-18.961l36.8 17.039c20.403 9.36 37.602 23.761 50.321 41.441 12.723 17.68 20.961 38.48 23.442 60.879zm0 0" fill="#ecc19c"/><path d="M128.473 240l.238.96c-13.918 3.438-24.238 16.08-24.238 31.04-7.121 0-13.762 2.398-19.121 6.398l-18.72-9.359a129.802 129.802 0 0 1-42.16-33.117c-.718-.883-1.519-1.762-2.242-2.723C13.352 222.08 8.473 208.24 8.473 194a62.86 62.86 0 0 1 18.398-44.398L32.473 144l1.68 7.602c5.6 25.199 20 47.039 39.917 62.078l.082-.078c11.282 12.32 26.399 20.796 42.961 24.16zm0 0" fill="#ef7385"/><path d="M107.352 334.398l-2.88 1.602H92.794c-9.121 0-17.922-1.762-26.16-5.2-8.242-3.44-15.762-8.402-22.16-14.8-12.801-12.8-20-30.16-20-48.32v-31.758a129.802 129.802 0 0 0 42.16 33.117l18.719 9.36c-7.84 5.761-12.88 15.12-12.88 25.601h22.321c3.117 10.64 7.36 20.8 12.559 30.398zm0 0" fill="#e6e9ed"/><path d="M160.473 208l.238.96c-13.918 3.438-24.238 16.08-24.238 31.04-2.641 0-5.282.32-7.762.96l-.238-.96-11.36-2.238c-16.562-3.364-31.68-11.84-42.96-24.16a50.44 50.44 0 0 1-3.923-4.403C61.352 198.08 56.473 184.24 56.473 170a62.86 62.86 0 0 1 18.398-44.398L80.473 120l1.68 7.602c8.8 39.437 39.12 70.558 78.32 80.398zm0 0" fill="#fcd770"/><path d="M136.473 240c0-14.96 10.32-27.602 24.238-31.04 2.48-.64 5.121-.96 7.762-.96h88c5.28 0 10.398.879 15.12 2.48a46.258 46.258 0 0 1 18.798 11.598c8.722 8.64 14.082 20.64 14.082 33.922 0 26.48-21.52 48-48 48h-184c0-10.48 5.039-19.84 12.879-25.602 5.359-4 12-6.398 19.12-6.398 0-14.96 10.321-27.602 24.239-31.04 2.48-.64 5.121-.96 7.762-.96zm0 0" fill="#ef7385"/><path d="M352.473 304c0 26.398-5.04 52.64-14.88 77.121l-1.12 2.879.96 1.2c-25.921 19.359-58.16 30.8-92.96 30.8-50.243 0-94.88-23.762-123.36-60.64a152.262 152.262 0 0 1-13.761-20.962c-5.2-9.597-9.442-19.757-12.559-30.398h161.68c26.48 0 48-21.52 48-48 0 26.398-5.04 52.64-14.88 77.121l-1.12 2.879 19.52-3.281A66.825 66.825 0 0 0 352.472 304zm0 0" fill="#fcd770"/><path d="M400.473 263.602l-.082.398c-.797 33.2-12 63.762-30.48 88.64a148.64 148.64 0 0 1-16.477 18.962c-5.043 4.878-10.32 9.437-16 13.597l-.961-1.199 1.12-2.879c9.84-24.48 14.88-50.723 14.88-77.121a66.825 66.825 0 0 1-44.48 28.719L288.472 336l1.12-2.879c9.84-24.48 14.88-50.723 14.88-77.121 0-13.281-5.36-25.281-14.082-33.922a46.258 46.258 0 0 0-18.797-11.598l.879-2.48v-72c0-11.52 3.039-22.398 8.48-31.762 11.68-20.398 34.238-33.758 59.758-32.078 21.922 1.36 40.48 14.32 50.8 32.399 5.762 9.921 8.962 21.52 8.962 33.601V200l15.52-8.879.48.879v1.922c0 14.637 2.32 29.117 6.96 43.039.72 2 1.04 4.16 1.04 6.32V244c0 11.04-8.961 20-20 20-1.36 0-2.72-.16-4-.398zm0 0" fill="#e6e9ed"/><path d="M392.473 40c17.68 0 32 14.32 32 32s-14.32 32-32 32l-.961.559c-10.32-18.079-28.88-31.04-50.801-32.399-25.52-1.68-48.078 11.68-59.758 32.078l-.48-.238c-17.68 0-32-14.32-32-32s14.32-32 32-32c0-17.68 14.32-32 32-32 9.597 0 18.16 4.32 24 11.04 5.84-6.72 14.398-11.04 24-11.04 17.68 0 32 14.32 32 32zm0 0" fill="#ef7385"/><path d="M400.473 136v64l56-32zm0 0" fill="#fcd770"/><path d="M344.473 120h16v16h-16zm0 0"/><path d="M490.664 491.281l-2.238-20.168c-5.25-47.175-35.281-88.84-78.38-108.746l-27.925-12.887c14.613-22.601 23.758-49.097 25.75-77.832 13.824-1.695 24.602-13.433 24.602-28.41 0-3.015-.489-5.992-1.442-8.847-4.191-12.575-6.344-25.664-6.504-38.918L472.602 168l-64.45-36.832c-.664-7.29-2.41-14.266-4.984-20.809 16.84-4.71 29.305-20.03 29.305-38.359 0-19.55-14.106-35.871-32.672-39.328C396.344 14.105 380.023 0 360.473 0c-8.696 0-17.106 2.902-24 8.152-6.899-5.25-15.305-8.152-24-8.152-19.551 0-35.871 14.105-39.328 32.672-18.57 3.457-32.672 19.777-32.672 39.328 0 18.176 12.254 33.383 28.886 38.23-3.136 8.168-4.886 16.891-4.886 25.77v64.64c-2.625-.374-5.282-.64-8-.64h-88c-2.114 0-4.137.305-6.16.625l.093-.387c-36.511-9.133-64.27-37.62-72.437-74.375l-4.848-21.832-15.93 15.938c-13.168 13.168-20.472 30.625-20.68 49.215-2.8-6.176-5.054-12.618-6.534-19.313l-4.848-21.832-15.938 15.93C7.832 157.329.473 175.098.473 193.992c0 16 5.504 31.696 15.504 44.192.152.199.336.367.496.558v28.977c0 20.379 7.933 39.527 22.343 53.937C53.223 336.063 72.375 344 92.754 344h10.95c1.679 2.793 3.448 5.512 5.28 8.184l-22.09 10.191C43.802 382.273 13.77 423.938 8.52 471.121L6.28 491.29l28.446-24.394c23.12-19.805 50.539-33.551 80.043-40.23C108 443.565 104.473 461.8 104.473 480v14.945l27.16-18.105c17.566-11.711 37.605-18.68 58.496-20.414l-9.2 36.804 39.665-15.855c17.832-7.145 37.949-7.145 55.781 0l39.664 15.855-9.2-36.804c20.88 1.734 40.923 8.703 58.497 20.414l27.137 18.105V480c0-18.2-3.528-36.434-10.29-53.344 29.505 6.68 56.922 20.434 80.032 40.223zm-82.191-341.488L440.343 168l-31.87 18.207zM256.473 72c0-13.23 10.765-24 24-24h8v-8c0-13.23 10.765-24 24-24 6.91 0 13.297 2.953 17.976 8.305l6.024 6.886 6.023-6.886C347.176 18.953 353.56 16 360.473 16c13.23 0 24 10.77 24 24v8h8c13.23 0 24 10.77 24 24 0 12.215-9.207 22.215-21.024 23.695-12.136-17.886-31.695-30.078-54.203-31.543-20.078-1.25-39.324 5.543-54.008 19.305-3.918 3.672-7.343 7.781-10.308 12.184-11.555-1.73-20.457-11.625-20.457-23.641zm24 64c0-15.648 6.289-30.168 17.71-40.863 11.419-10.703 26.376-16.074 42.032-15.008 29.305 1.894 52.258 27.398 52.258 58.062v75.594l16.414-9.387c.867 11.922 3.176 23.672 6.968 35.051.418 1.223.618 2.496.618 4.551 0 6.617-5.383 12-12 12-6.618 0-12-5.383-12-12v-12h-16v12c0 10.953 6.382 20.36 15.566 24.96-2.117 35.856-16.605 67.935-39.344 92.263 5.13-18.598 7.778-37.75 7.778-57.223v-26.414l-14.657 21.973c-8.953 13.425-23.199 22.64-39.113 25.289l-5.84.976c7.711-22.488 11.61-45.93 11.61-69.824 0-22.281-13.114-41.504-32-50.52zm28.855 204.633c12.496-2.082 24.184-7.344 33.985-15.082-1.946 18.015-6.336 35.64-13.137 52.625l-1.145 2.855.594.235C305.594 398.09 276.305 408 244.473 408c-61.633 0-117.106-38.984-138.551-96h150.55c13.231 0 25.391-4.64 34.985-12.344-2.32 10.352-5.289 20.567-9.273 30.528l-6.407 16.046zM256.473 216c22.054 0 40 17.945 40 40s-17.946 40-40 40H81.84c3.305-9.312 12.2-16 22.633-16h104v-16h-94.528c3.313-9.29 12.11-16 22.528-16h104v-16h-94.528c3.313-9.29 12.11-16 22.528-16zM76.105 136.23c9.68 33.754 33.903 60.692 65.903 74.008-6.336 5.64-10.969 13.145-12.727 21.762l-10.601-2.121a72.246 72.246 0 0 1-42.207-25.695 54.87 54.87 0 0 1-12-34.192c0-12.398 4.093-24.16 11.632-33.762zm-47.992 24c6.79 23.555 21.032 44.403 40.59 59.356a88.434 88.434 0 0 0 39.48 24.168c-5.59 5.605-9.472 12.879-10.976 20.973-4.398.816-8.473 2.433-12.246 4.562l-14.777-7.394c-16.063-8.024-30.496-19.68-41.711-33.72-7.746-9.663-12-21.8-12-34.183 0-12.398 4.093-24.16 11.64-33.762zM92.753 328c-16.105 0-31.233-6.273-42.624-17.656-11.387-11.39-17.656-26.52-17.656-42.625v-12.461c9.28 8.246 19.504 15.437 30.55 20.957l9.04 4.52c-4.727 6.578-7.59 14.57-7.59 23.265v8H89.03c1.832 5.473 3.914 10.816 6.29 16zM363 422.953c6.488 12.957 10.719 27.063 12.496 41.453l-1.312-.87C351.098 448.144 324.223 440 296.473 440h-10.25l6.699 26.77-10.617-4.25c-21.61-8.641-46.047-8.641-67.657 0l-10.617 4.25L210.72 440h-10.246c-27.754 0-54.625 8.145-77.72 23.527l-1.312.871c1.782-14.39 6.016-28.496 12.497-41.453l8.511-17.035-15.12 2.16c-36.114 5.168-69.97 19.899-98.306 42.746 10-32.273 33.418-59.535 64.563-73.914l25.293-11.672C149.48 401.488 195.19 424 244.473 424c52.129 0 98.175-23.816 128.136-61.281l30.743 14.183c31.152 14.38 54.558 41.641 64.558 73.907-28.336-22.832-62.191-37.57-98.3-42.739l-15.122-2.16zm0 0"/></svg>