<svg height="496pt" viewBox="0 0 496 496" width="496pt" xmlns="http://www.w3.org/2000/svg"><path d="M384 488H112c0-17.68 14.32-32 32-32h208c17.68 0 32 14.32 32 32zm0 0" fill="#838f9b"/><path d="M344 408v48H152v-48zm0 0" fill="#aab2bd"/><path d="M328 376v32H168v-32zm0 0" fill="#ccd1d9"/><path d="M208 8h80v120h104v80H288v168h-80V208H104v-80h104zm0 0" fill="#fcd770"/><path d="M352 448v-48h-16v-32h-40V216h104v-96H296V0h-96v120H96v96h104v152h-40v32h-16v48c-19.313 0-35.473 13.77-39.191 32H32v16h432v-16h-72.809c-3.718-18.23-19.878-32-39.191-32zM112 200v-64h104V16h64v120h104v64H280v168h-64V200zm64 184h144v16H176zm-16 32h176v32H160zm-16 48h208c10.414 0 19.215 6.71 22.527 16H121.473c3.312-9.29 12.113-16 22.527-16zm0 0"/><path d="M240 32h16v16h-16zm0 0M352 160h16v16h-16zm0 0M128 160h16v16h-16zm0 0M480 480h16v16h-16zm0 0M0 480h16v16H0zm0 0"/></svg>