<svg height="497pt" viewBox="0 0 497.76 497" width="497pt" xmlns="http://www.w3.org/2000/svg"><g fill="#b27946"><path d="M241.762 8.379l8 32h-176l8-32zm0 0M145.762 408.379h32v80h-32zm0 0M145.762 328.379h32v48h-32zm0 0M281.762 328.379l32 160h-32l-16-80-6.48-32.32-9.52-47.68zm0 0"/></g><path d="M259.281 376.059l6.48 32.32h-208l6.477-32.32 1.524.32h192zm0 0" fill="#dfb28b"/><path d="M73.762 328.379l-9.524 47.68-6.476 32.32-16 80h-32l32-160zm0 0" fill="#b27946"/><path d="M313.762 296.379v32h-304v-32zm0 0M313.762 40.379v32h-304v-32zm0 0" fill="#dfb28b"/><path d="M25.762 72.379v224h272v-224zm0 0" fill="#e6e9ed"/><path d="M473.762 168.379c8.797 0 16 7.2 16 16 0 4.402-1.762 8.402-4.723 11.281-2.879 2.961-6.879 4.719-11.277 4.719h-224v-32zm0 0" fill="#cf9e76"/><path d="M249.762 168.379v32l-2.961 2.96a44.625 44.625 0 0 1-31.52 13.04c-8.8 0-17.441-2.64-24.8-7.52l-12.72-8.48 24-16-16-16 15.598-10.399c5.442-3.68 11.922-5.601 18.563-5.601 8.879 0 17.36 3.52 23.68 9.84zm0 0" fill="#b4dd7f"/><path d="M473.762 160.379h-168v-80h16v-48h-65.754l-8-32H75.512l-8 32H1.762v48h16v208h-16v48H32l-32 160h48.32l16-80h73.442v80h48v-80h73.437l16 80h48.32l-32-160h30.243v-48h-16v-80h168c13.23 0 24-10.766 24-24 0-13.23-10.77-24-24-24zm-385.754-144h147.504l4 16H84.008zm-70.246 32h288v16h-288zm17.437 432H19.52l28.801-144H64zm208-144l6.403 32h-63.84v-32zm-73.437 32h-16v-32h16zm-32 0h-63.84l6.398-32h57.442zm32 112h-16v-64h16zm-102.242-80l3.199-16H252.8l3.199 16zm236.48 80h-15.68l-28.8-144h15.687zm1.762-160h-288v-16h288zm-16-32h-256v-208h256v80H253.07l-3.847-3.848c-7.832-7.84-18.246-12.152-29.328-12.152a41.376 41.376 0 0 0-23.008 6.969l-23.688 15.793 16 16-25.863 17.238 22.742 15.168a52.525 52.525 0 0 0 29.195 8.832c14.055 0 27.278-5.48 37.215-15.414l.582-.586h36.692zM198.32 169.62l7.45-4.96c9.832-6.587 23.75-5.208 32.14 3.175l3.852 3.855v25.375l-.586.586c-12.04 12.047-32.04 14.032-46.215 4.575l-2.777-1.848 22.136-14.758zm275.442 22.758h-216v-16h216c4.406 0 8 3.586 8 8 0 4.418-3.594 8-8 8zm0 0"/><path d="M89.762 176.379v-16c-13.235 0-24-10.766-24-24 0-13.23 10.765-24 24-24 13.23 0 24 10.77 24 24h16c0-22.055-17.946-40-40-40-22.059 0-40 17.945-40 40 0 22.059 17.941 40 40 40zm0 0"/><path d="M153.762 209.578a62.688 62.688 0 0 0-21.93-47.672L94.969 130.31 84.55 142.453l36.863 31.606a46.702 46.702 0 0 1 16.348 35.52c0 34.624 28.168 62.8 62.797 62.8h41.203v-16h-41.203c-25.805 0-46.797-20.992-46.797-46.8zm0 0M257.762 256.379h16v16h-16zm0 0"/><path d="M105.762 204.379c0 11.031-8.977 20-20 20-19.852 0-36 16.152-36 36v12h16v-12c0-11.031 8.972-20 20-20 19.847 0 36-16.152 36-36v-20h-16zm0 0M201.762 112.379h72v-16h-72c-30.883 0-56 25.129-56 56h16c0-22.055 17.941-40 40-40zm0 0"/></svg>