<svg height="660" viewBox="-79 0 495 495.76" width="660" xmlns="http://www.w3.org/2000/svg"><path d="M283.66 404.48c2.961 2.88 4.719 6.88 4.719 11.282 0 8.797-7.2 16-16 16h-32c-4.399 0-8.399-1.762-11.277-4.723-2.961-2.879-4.723-6.879-4.723-11.277 0-8.801 7.2-16 16-16h32c4.402 0 8.402 1.758 11.281 4.718zm0 0M96.379 399.762c8.8 0 16 7.199 16 16 0 4.398-1.758 8.398-4.719 11.277-2.879 2.961-6.879 4.723-11.281 4.723h-32c-8.8 0-16-7.203-16-16 0-4.403 1.762-8.403 4.723-11.282 2.878-2.96 6.878-4.718 11.277-4.718zm0 0" fill="#fcd770"/><path d="M328.379 396.64v59.122h-56v-24c8.8 0 16-7.203 16-16 0-4.403-1.758-8.403-4.719-11.282-2.879-2.96-6.879-4.718-11.281-4.718V344.8l20.402 5.437c20.957 5.602 35.598 24.64 35.598 46.403zm0 0M240.379 336.32v63.442c-8.8 0-16 7.199-16 16h-112c0-8.801-7.2-16-16-16V336.32l32-8.558s8 32 40 32 40-32 40-32zm0 0M64.379 431.762v24h-56V396.64c0-21.762 14.64-40.801 35.601-46.403l20.399-5.437v54.96c-4.399 0-8.399 1.759-11.277 4.72-2.961 2.878-4.723 6.878-4.723 11.28 0 8.798 7.2 16 16 16zm0 0" fill="#e6e9ed"/><path d="M272.379 344.8v54.962h-32V336.32zm0 0M272.379 455.762v32h-208v-56h32c4.402 0 8.402-1.762 11.281-4.723 2.961-2.879 4.719-6.879 4.719-11.277h112c0 4.398 1.762 8.398 4.723 11.277 2.878 2.961 6.878 4.723 11.277 4.723h32zm0 0M96.379 336.32v63.442h-32V344.8zm0 0" fill="#3bafda"/><path d="M272.379 455.762h56v32h-56zm0 0M8.379 455.762h56v32h-56zm0 0M128.379 307.602c30.8 11.68 35.36 12.16 40 12.16 14.8 0 28.562-4.48 40-12.16v20.16s-8 32-40 32-40-32-40-32zm0 0" fill="#f0d0b4"/><path d="M272.379 135.762v24h-208v-24zm0 0" fill="#e6e9ed"/><path d="M288.379 105.281A34.94 34.94 0 0 1 278.14 130l-5.762 5.762h-208L58.62 130a34.927 34.927 0 0 1-10.242-24.719c0-11.043 5.2-21.441 14-28l5.2-3.922C82.14 62.48 98.3 54 115.261 48.4a167.925 167.925 0 0 1 53.117-8.637 167.96 167.96 0 0 1 100.8 33.597l5.2 3.922c8.8 6.559 14 16.957 14 28zm0 0" fill="#ef7385"/><path d="M96.379 191.762v56c0 2.636.16 5.277.48 7.918l-.48.082c-17.68 0-32-14.32-32-32 0-17.684 14.32-32 32-32zm0 0M272.379 223.762c0 17.68-14.32 32-32 32l-.48-.082c.32-2.64.48-5.282.48-7.918v-56c17.68 0 32 14.316 32 32zm0 0" fill="#f0d0b4"/><path d="M102.46 183.762c21.68 0 42.56-8.64 57.919-24h80v88c0 2.636-.16 5.277-.48 7.918-2.32 21.68-14.32 40.398-31.52 51.922-11.438 7.68-25.2 12.16-40 12.16-4.64 0-9.2-.48-40-12.16-3.918-2.641-7.598-5.602-10.879-8.961-11.281-11.2-18.879-26.243-20.64-42.961-.32-2.64-.481-5.282-.481-7.918v-64zm0 0" fill="#f0d0b4"/><g fill="#b27946"><path d="M272.379 223.762c0-17.684-14.32-32-32-32v-32h32zm0 0M200.379 159.762h-104v24h6.082c11.809 0 23.344-2.649 33.918-7.465v7.465h6.082c11.809 0 23.344-2.649 33.918-7.465v7.465h6.082c21.68 0 42.559-8.64 57.918-24zm0 0"/><path d="M96.379 183.762v8c-17.68 0-32 14.316-32 32v-64h32zm0 0M200.379 263.762v16h-64v-16c0-8.801 7.2-16 16-16h32c8.8 0 16 7.199 16 16zm0 0"/></g><path d="M216.379 207.762a8 8 0 1 1-16-.001 8 8 0 0 1 16 0zm0 0M136.379 207.762a8 8 0 1 1-16-.001 8 8 0 0 1 16 0zm0 0"/><path d="M294.813 342.535l-78.434-20.926v-10.007c15.488-11.672 26.633-28.77 30.488-48.504 18.961-3.121 33.512-19.504 33.512-39.336V139.07l3.41-3.406c8.117-8.113 12.59-18.922 12.59-30.398 0-13.465-6.43-26.32-17.2-34.403l-5.206-3.902c-26.856-20.152-59.426-32.207-92.864-34.68 5.176-7.304 12.774-12.648 21.75-14.898l7.465-1.863L206.438 0l-7.458 1.863c-16.183 4.047-29.289 15.145-36.066 30.114C126.95 33.129 91.59 45.352 62.79 66.96l-5.2 3.894c-10.776 8.083-17.202 20.938-17.202 34.403 0 11.484 4.472 22.285 12.593 30.406l3.399 3.406v84.692c0 19.832 14.555 36.215 33.512 39.343 3.847 19.727 15 36.833 30.488 48.504v10.008l-78.43 20.918C17.477 349.055.38 371.297.38 396.633v99.129h336v-99.13c0-25.335-17.094-47.577-41.566-54.097zm25.566 54.098v51.129h-40v-9.473c9.289-3.312 16-12.113 16-22.527 0-10.418-6.711-19.219-16-22.532v-37.992l10.305 2.746c17.488 4.664 29.695 20.559 29.695 38.649zm-232-4.871h-16v-40.785l16-4.266zm-24 16h32a8 8 0 0 1 0 16h-32c-4.414 0-8-3.586-8-8 0-4.418 3.586-8 8-8zm8 32h24c10.418 0 19.219-6.715 22.527-16h98.953c3.313 9.285 12.114 16 22.528 16h24v40H72.379zm192-48h-16v-45.059l16 4.266zm-24 16h32a8 8 0 0 1 0 16h-32c-4.414 0-8-3.586-8-8 0-4.418 3.586-8 8-8zm-168-264h192v8h-192zm32 24h31.465c-9.664 4.91-20.352 7.62-31.465 7.902zm59.074 0h12.39a73.278 73.278 0 0 1-20.726 6.855 92.32 92.32 0 0 0 8.336-6.855zm40 0h12.39a73.278 73.278 0 0 1-20.726 6.855 92.32 92.32 0 0 0 8.336-6.855zm44.926 78.527v-45.05c9.289 3.312 16 12.113 16 22.53 0 10.415-6.711 19.208-16 22.52zm16-54.32c-4.672-3.535-10.055-6.184-16-7.395v-16.812h16zM67.179 83.656l5.2-3.894c27.512-20.633 61.61-32 96-32 34.394 0 68.488 11.367 96 32l5.2 3.894c6.76 5.07 10.8 13.153 10.8 21.602 0 7.11-2.879 14.07-7.902 19.094l-3.41 3.41H67.69l-3.406-3.41c-5.023-5.024-7.906-11.985-7.906-19.086 0-8.457 4.043-16.54 10.8-21.61zm21.2 84.106v16.804c-5.941 1.22-11.328 3.86-16 7.395v-24.2zm-16 56c0-10.418 6.715-19.219 16-22.532v45.051c-9.285-3.304-16-12.105-16-22.52zm32 24v-56.098c11.144-.23 21.953-2.441 32-6.527v6.625h6.066c11.832 0 23.301-2.29 33.934-6.625v6.625h6.066c18.047 0 35.278-5.29 49.934-15.114v71.114c0 35.285-28.711 64-64 64-35.285 0-64-28.715-64-64zm64 80c11.379 0 22.191-2.426 32-6.73v5.593c-1.367 4.422-9 25.137-32 25.137s-30.633-20.715-32-25.137v-5.594c9.809 4.305 20.625 6.73 32 6.73zm-45.031 9.62c5.968 13.337 20 30.38 45.03 30.38s39.067-17.043 45.032-30.38l18.969 5.06v50.788a23.993 23.993 0 0 0-14.527 14.532h-98.946a23.974 23.974 0 0 0-14.527-14.532v-50.789zm-77.274 20.602l10.305-2.746v37.992c-9.285 3.313-16 12.114-16 22.532 0 10.414 6.715 19.215 16 22.527v9.473h-40v-51.13c0-18.089 12.21-33.984 29.695-38.648zM16.38 463.762h40v16h-40zm264 16v-16h40v16zm0 0"/><path d="M128.379 263.762v24h80v-24c0-13.235-10.766-24-24-24h-32c-13.23 0-24 10.765-24 24zm16 0c0-4.418 3.586-8 8-8h32a8 8 0 0 1 8 8v8h-48zm0 0"/></svg>