<svg height="512pt" viewBox="-51 0 512 512" width="512pt" xmlns="http://www.w3.org/2000/svg"><path d="M403.2 17.5v477c0 5.52-4.47 10-10 10H17.5c-5.531 0-10-4.48-10-10v-477c0-5.52 4.469-10 10-10h375.7c5.53 0 10 4.48 10 10zm0 0" fill="#e3f4ff"/><path d="M403.2 17.5v477c0 5.52-4.47 10-10 10h-25.028c5.527 0 10-4.48 10-10v-477c0-5.52-4.473-10-10-10h25.027c5.531 0 10 4.48 10 10zm0 0" fill="#bddff4"/><path d="M403.2 17.5V88H7.5V17.5c0-5.52 4.469-10 10-10h375.7c5.53 0 10 4.48 10 10zm0 0" fill="#fc3e81"/><path d="M403.2 17.5V88h-25.028V17.5c0-5.52-4.473-10-10-10h25.027c5.531 0 10 4.48 10 10zm0 0" fill="#f01054"/><path d="M223.984 428.969c0 10.293-8.343 18.636-18.632 18.636-10.293 0-18.637-8.343-18.637-18.636s8.344-18.633 18.637-18.633c10.289 0 18.632 8.34 18.632 18.633zm0 0" fill="#fc3e81"/><path d="M353.43 139.422v86.406a7.57 7.57 0 0 1-7.57 7.57H223.808a7.57 7.57 0 0 1-7.57-7.57v-86.406a7.57 7.57 0 0 1 7.57-7.57h122.05a7.57 7.57 0 0 1 7.57 7.57zm0 0" fill="#1685fb"/><path d="M353.43 158.328v67.5a7.57 7.57 0 0 1-7.57 7.57H245.68V194a5 5 0 0 1 5-5h29.851v-11.5a5 5 0 0 1 5-5h10.489a5 5 0 0 1 5 5v26.281c0 2.758 2.238 5 5 5h11.671c2.758 0 5-2.242 5-5v-40.453c0-2.758 2.239-5 5-5zm0 0" fill="#364ec6"/><path d="M403.2 258.832a7.5 7.5 0 0 0-7.5 7.5V494.5c0 1.379-1.122 2.5-2.5 2.5h-53.52c-4.14 0-7.5 3.36-7.5 7.5s3.36 7.5 7.5 7.5h53.52c9.648 0 17.5-7.852 17.5-17.5V266.332c0-4.144-3.356-7.5-7.5-7.5zm0 0M393.2 0H17.5C7.852 0 0 7.852 0 17.5v477c0 9.648 7.852 17.5 17.5 17.5h289.52c4.14 0 7.5-3.36 7.5-7.5s-3.36-7.5-7.5-7.5H17.5a2.502 2.502 0 0 1-2.5-2.5v-399h380.7v65.168a7.5 7.5 0 0 0 7.5 7.5c4.144 0 7.5-3.356 7.5-7.5V17.5c0-9.648-7.848-17.5-17.5-17.5zM15 80.5v-63c0-1.379 1.121-2.5 2.5-2.5h375.7c1.378 0 2.5 1.121 2.5 2.5v63zm0 0"/><path d="M403.2 185.832a7.5 7.5 0 0 0-7.5 7.5v40.34a7.5 7.5 0 1 0 15 0v-40.34c0-4.144-3.356-7.5-7.5-7.5zm0 0M93.316 306.852a7.497 7.497 0 0 0-10.605 0l-5.703 5.703-5.707-5.703a7.497 7.497 0 0 0-10.606 0 7.497 7.497 0 0 0 0 10.605l5.703 5.703-5.703 5.703A7.502 7.502 0 0 0 66 341.668c1.918 0 3.84-.73 5.3-2.195l5.708-5.707 5.703 5.707a7.487 7.487 0 0 0 5.3 2.195 7.502 7.502 0 0 0 5.305-12.805l-5.703-5.703 5.703-5.703a7.497 7.497 0 0 0 0-10.605zm0 0M157.488 306.852a7.497 7.497 0 0 0-10.605 0l-5.703 5.703-5.707-5.703a7.497 7.497 0 0 0-10.606 0 7.497 7.497 0 0 0 0 10.605l5.703 5.703-5.703 5.703a7.502 7.502 0 0 0 5.305 12.805c1.918 0 3.84-.73 5.3-2.195l5.708-5.707 5.703 5.707a7.487 7.487 0 0 0 5.3 2.195 7.502 7.502 0 0 0 5.305-12.805l-5.703-5.703 5.703-5.703a7.497 7.497 0 0 0 0-10.605zm0 0M189.04 339.473a7.473 7.473 0 0 0 5.304 2.195 7.47 7.47 0 0 0 5.3-2.195l5.708-5.703 5.703 5.703a7.473 7.473 0 0 0 5.304 2.195 7.47 7.47 0 0 0 5.301-2.195 7.497 7.497 0 0 0 0-10.606l-5.703-5.707 5.703-5.703a7.497 7.497 0 0 0 0-10.605 7.497 7.497 0 0 0-10.605 0l-5.703 5.703-5.707-5.703a7.497 7.497 0 0 0-10.606 0 7.497 7.497 0 0 0 0 10.605l5.703 5.703-5.703 5.703a7.502 7.502 0 0 0 0 10.61zm0 0M285.832 306.852a7.497 7.497 0 0 0-10.605 0l-5.704 5.703-5.703-5.703a7.497 7.497 0 0 0-10.605 0 7.497 7.497 0 0 0 0 10.605l5.703 5.703-5.703 5.703a7.502 7.502 0 0 0 5.3 12.805 7.48 7.48 0 0 0 5.305-2.195l5.703-5.707 5.704 5.707a7.49 7.49 0 0 0 5.304 2.195 7.502 7.502 0 0 0 5.3-12.805l-5.702-5.703 5.703-5.703a7.497 7.497 0 0 0 0-10.605zm0 0M350.008 306.852a7.502 7.502 0 0 0-10.61 0l-5.703 5.703-5.703-5.703a7.497 7.497 0 0 0-10.605 0 7.497 7.497 0 0 0 0 10.605l5.703 5.703-5.703 5.703a7.502 7.502 0 0 0 5.3 12.805c1.922 0 3.84-.73 5.305-2.195l5.703-5.707 5.703 5.707c1.465 1.46 3.387 2.195 5.305 2.195s3.84-.73 5.305-2.195a7.51 7.51 0 0 0 0-10.61l-5.707-5.703 5.707-5.703c2.926-2.93 2.926-7.68 0-10.605zm0 0M93.316 359.754a7.497 7.497 0 0 0-10.605 0l-5.703 5.703-5.707-5.703a7.497 7.497 0 0 0-10.606 0 7.497 7.497 0 0 0 0 10.605l5.703 5.704-5.703 5.707A7.497 7.497 0 0 0 66 394.57c1.918 0 3.84-.73 5.3-2.195l5.708-5.703 5.703 5.703a7.47 7.47 0 0 0 5.3 2.195 7.497 7.497 0 0 0 5.305-12.8l-5.703-5.707 5.703-5.704a7.497 7.497 0 0 0 0-10.605zm0 0M157.488 359.754a7.497 7.497 0 0 0-10.605 0l-5.703 5.703-5.707-5.703a7.497 7.497 0 0 0-10.606 0 7.497 7.497 0 0 0 0 10.605l5.703 5.704-5.703 5.707a7.497 7.497 0 0 0 5.305 12.8c1.918 0 3.84-.73 5.3-2.195l5.708-5.703 5.703 5.703a7.47 7.47 0 0 0 5.3 2.195 7.497 7.497 0 0 0 5.305-12.8l-5.703-5.707 5.703-5.704a7.497 7.497 0 0 0 0-10.605zm0 0M189.04 392.375a7.477 7.477 0 0 0 5.304 2.2 7.475 7.475 0 0 0 5.3-2.2l5.708-5.703 5.703 5.703a7.477 7.477 0 0 0 5.304 2.2 7.475 7.475 0 0 0 5.301-2.2 7.497 7.497 0 0 0 0-10.605l-5.703-5.704 5.703-5.703a7.497 7.497 0 0 0 0-10.605c-2.926-2.934-7.676-2.93-10.605 0l-5.703 5.703-5.707-5.707a7.497 7.497 0 0 0-10.606 0 7.497 7.497 0 0 0 0 10.605l5.703 5.707-5.703 5.704a7.497 7.497 0 0 0 0 10.605zm0 0M285.832 359.754a7.497 7.497 0 0 0-10.605 0l-5.704 5.703-5.703-5.703a7.497 7.497 0 0 0-10.605 0 7.497 7.497 0 0 0 0 10.605l5.703 5.704-5.703 5.707a7.497 7.497 0 0 0 0 10.605c1.46 1.465 3.383 2.195 5.3 2.195s3.84-.73 5.305-2.195l5.703-5.703 5.704 5.703a7.473 7.473 0 0 0 5.304 2.195 7.47 7.47 0 0 0 5.301-2.195 7.497 7.497 0 0 0 0-10.605l-5.703-5.707 5.703-5.704a7.497 7.497 0 0 0 0-10.605zm0 0M339.398 392.375a7.477 7.477 0 0 0 5.305 2.2 7.475 7.475 0 0 0 5.3-2.2 7.497 7.497 0 0 0 0-10.605l-5.702-5.704 5.703-5.703a7.497 7.497 0 0 0 0-10.605 7.497 7.497 0 0 0-10.606 0l-5.703 5.703-5.703-5.703a7.497 7.497 0 0 0-10.605 0 7.497 7.497 0 0 0 0 10.605l5.703 5.703-5.703 5.704a7.497 7.497 0 0 0 0 10.605c1.46 1.465 3.383 2.2 5.3 2.2s3.84-.735 5.305-2.2l5.703-5.703zm0 0M93.316 412.656c-2.93-2.926-7.68-2.926-10.605 0l-5.703 5.707-5.707-5.707c-2.926-2.926-7.676-2.926-10.606 0a7.502 7.502 0 0 0 0 10.61l5.703 5.703-5.703 5.707a7.497 7.497 0 0 0 5.305 12.8c1.918 0 3.84-.73 5.3-2.195l5.708-5.707 5.703 5.707a7.47 7.47 0 0 0 5.3 2.196c1.923 0 3.84-.73 5.305-2.196a7.497 7.497 0 0 0 0-10.605l-5.703-5.707 5.703-5.703a7.502 7.502 0 0 0 0-10.61zm0 0M157.488 412.656c-2.93-2.926-7.68-2.926-10.605 0l-5.703 5.707-5.707-5.707c-2.926-2.926-7.676-2.926-10.606 0a7.502 7.502 0 0 0 0 10.61l5.703 5.703-5.703 5.707a7.497 7.497 0 0 0 5.305 12.8c1.918 0 3.84-.73 5.3-2.195l5.708-5.707 5.703 5.707a7.47 7.47 0 0 0 5.3 2.196c1.922 0 3.84-.73 5.305-2.196a7.497 7.497 0 0 0 0-10.605l-5.703-5.707 5.703-5.703a7.502 7.502 0 0 0 0-10.61zm0 0M205.352 455.105c14.41 0 26.132-11.726 26.132-26.136s-11.722-26.137-26.132-26.137c-14.415 0-26.137 11.727-26.137 26.137s11.722 26.136 26.137 26.136zm0-37.273c6.136 0 11.132 4.996 11.132 11.137s-4.996 11.136-11.132 11.136c-6.141 0-11.137-4.996-11.137-11.136s4.996-11.137 11.137-11.137zm0 0M179.27 199.191c0-9.699-4.555-18.347-11.633-23.937 4.035-4.492 6.496-10.426 6.496-16.926 0-13.984-11.38-25.363-25.363-25.363s-25.364 11.379-25.364 25.363c0 6.5 2.461 12.434 6.496 16.926-7.078 5.59-11.632 14.238-11.632 23.937 0 16.817 13.683 30.5 30.5 30.5 16.82 0 30.5-13.683 30.5-30.5zm-40.864-40.863c0-5.715 4.649-10.363 10.364-10.363 5.714 0 10.363 4.648 10.363 10.363s-4.649 10.363-10.363 10.363c-5.715 0-10.364-4.648-10.364-10.363zm10.364 56.363c-8.547 0-15.5-6.953-15.5-15.5s6.953-15.5 15.5-15.5 15.5 6.954 15.5 15.5-6.954 15.5-15.5 15.5zm0 0M85.137 207.078c16.574-16.976 24.633-30.621 24.633-41.719 0-16.543-13.457-30-30-30s-30 13.457-30 30c0 4.141 3.359 7.5 7.5 7.5s7.5-3.359 7.5-7.5c0-8.273 6.726-15 15-15 8.27 0 15 6.727 15 15 0 12.29-24.637 37.184-42.133 50.934a7.498 7.498 0 0 0-2.453 8.352 7.495 7.495 0 0 0 7.086 5.046h51c4.14 0 7.5-3.359 7.5-7.5s-3.36-7.5-7.5-7.5H77.348a253.087 253.087 0 0 0 7.789-7.613zm0 0M360.93 225.832v-86.418c0-8.309-6.758-15.066-15.067-15.066h-122.05c-8.31 0-15.07 6.757-15.07 15.066v86.418c0 8.309 6.76 15.07 15.07 15.07h122.046c8.313 0 15.07-6.761 15.07-15.07zm-15.067.07l-92.683-.054V196.5h27.351c4.14 0 7.5-3.36 7.5-7.5v-9h5.489v23.781c0 6.89 5.609 12.5 12.5 12.5h11.671c6.891 0 12.5-5.61 12.5-12.5v-37.953h15.739v60.004c0 .04-.032.07-.067.07zm-122.12-.07l.07-86.484 122.117.066v11.414H327.69c-6.894 0-12.5 5.61-12.5 12.5v37.953h-6.671V177.5c0-6.895-5.606-12.5-12.5-12.5H285.53c-6.894 0-12.5 5.605-12.5 12.5v4H250.68c-6.895 0-12.5 5.605-12.5 12.5v31.84zm0 0M57.27 263.5h19.734a7.5 7.5 0 1 0 0-15H57.27c-4.141 0-7.5 3.36-7.5 7.5s3.359 7.5 7.5 7.5zm0 0M133.27 275.32c0-4.14-3.36-7.5-7.5-7.5h-68.5a7.5 7.5 0 1 0 0 15h68.5a7.5 7.5 0 0 0 7.5-7.5zm0 0M360.605 275.32c0-4.14-3.359-7.5-7.5-7.5h-68.5a7.5 7.5 0 1 0 0 15h68.5a7.5 7.5 0 0 0 7.5-7.5zm0 0M46.992 22.75h-.078c-4.14 0-7.46 3.36-7.46 7.5s3.398 7.5 7.538 7.5a7.5 7.5 0 1 0 0-15zm0 0M75.793 22.75h-.078c-4.14 0-7.461 3.36-7.461 7.5s3.398 7.5 7.539 7.5 7.5-3.36 7.5-7.5-3.36-7.5-7.5-7.5zm0 0M104.594 22.75h-.078c-4.145 0-7.461 3.36-7.461 7.5s3.394 7.5 7.539 7.5c4.14 0 7.5-3.36 7.5-7.5s-3.36-7.5-7.5-7.5zm0 0M133.39 22.75h-.077c-4.141 0-7.461 3.36-7.461 7.5s3.398 7.5 7.539 7.5a7.5 7.5 0 1 0 0-15zm0 0M162.191 22.75h-.078c-4.144 0-7.46 3.36-7.46 7.5s3.394 7.5 7.538 7.5c4.141 0 7.5-3.36 7.5-7.5s-3.359-7.5-7.5-7.5zm0 0M190.988 22.75h-.078c-4.14 0-7.46 3.36-7.46 7.5s3.398 7.5 7.538 7.5a7.5 7.5 0 1 0 0-15zm0 0M219.79 22.75h-.08c-4.144 0-7.46 3.36-7.46 7.5s3.395 7.5 7.54 7.5c4.14 0 7.5-3.36 7.5-7.5s-3.36-7.5-7.5-7.5zm0 0M248.59 22.75h-.078c-4.145 0-7.461 3.36-7.461 7.5s3.394 7.5 7.539 7.5c4.14 0 7.5-3.36 7.5-7.5s-3.36-7.5-7.5-7.5zm0 0M277.387 22.75h-.078c-4.141 0-7.461 3.36-7.461 7.5s3.398 7.5 7.539 7.5 7.5-3.36 7.5-7.5-3.36-7.5-7.5-7.5zm0 0M306.184 22.75h-.079c-4.14 0-7.46 3.36-7.46 7.5s3.398 7.5 7.539 7.5a7.5 7.5 0 1 0 0-15zm0 0M334.984 22.75h-.078c-4.14 0-7.46 3.36-7.46 7.5s3.398 7.5 7.538 7.5a7.5 7.5 0 1 0 0-15zm0 0M363.785 22.75h-.078c-4.145 0-7.46 3.36-7.46 7.5s3.394 7.5 7.538 7.5c4.14 0 7.5-3.36 7.5-7.5s-3.36-7.5-7.5-7.5zm0 0"/></svg>