<svg height="512pt" viewBox="0 -49 512.001 512" width="512pt" xmlns="http://www.w3.org/2000/svg"><path d="M206.965 352.195h98.07v54.23h-98.07zm0 0" fill="#4e7693"/><path d="M206.969 352.195h98.062v16.883H206.97zm0 0" fill="#38627c"/><path d="M504.5 22.813V344.87c0 5.652-4.57 10.211-10.21 10.211H17.71c-5.64 0-10.21-4.559-10.21-10.21V22.811C7.5 14.364 14.36 7.5 22.809 7.5H489.19c8.457 0 15.309 6.863 15.309 15.313zm0 0" fill="#e3f4ff"/><path d="M504.5 22.813V344.87c0 5.652-4.57 10.211-10.21 10.211h-22.2c5.64 0 10.21-4.559 10.21-10.21V22.811c0-8.449-6.859-15.3-15.312-15.3L467 7.5h22.191c8.457 0 15.309 6.863 15.309 15.313zm0 0" fill="#bddff4"/><path d="M504.5 306.14v38.731c0 5.652-4.57 10.211-10.2 10.211H17.7c-5.63 0-10.2-4.559-10.2-10.21V306.14zm0 0" fill="#4e7693"/><path d="M504.5 306.14v38.731c0 5.652-4.57 10.211-10.2 10.211h-22.21c5.64 0 10.21-4.559 10.21-10.21V306.14zm0 0" fill="#38627c"/><path d="M46.379 64.148h58.402v199.043H46.38zm0 0" fill="#a7c7d3"/><path d="M46.379 64.148h58.402v24.055H46.38zm0 0" fill="#618baa"/><path d="M413.684 64.148h58.406v66.403h-58.406zm0 0" fill="#a7c7d3"/><path d="M413.684 64.148h58.406v24.055h-58.406zm0 0" fill="#618baa"/><path d="M413.684 170.473h58.406v66.398h-58.406zm0 0" fill="#a7c7d3"/><path d="M413.684 170.473h58.406v24.05h-58.406zm0 0" fill="#618baa"/><path d="M343.512 200.578L256 249.058v-87.507l87.512-48.485zm0 0" fill="#7884ea"/><path d="M168.488 200.578L256 249.058v-87.507l-87.512-48.485zm0 0" fill="#96a0ee"/><path d="M256 64.586l-87.512 48.48L256 161.551l87.512-48.485zm0 0" fill="#4a5be5"/><g fill="#3fefef"><path d="M270.375 161.55c0 7.938-6.438 14.372-14.375 14.372s-14.375-6.434-14.375-14.371c0-7.942 6.438-14.375 14.375-14.375s14.375 6.433 14.375 14.375zm0 0M270.375 64.586c0 7.937-6.438 14.371-14.375 14.371s-14.375-6.434-14.375-14.371c0-7.941 6.438-14.375 14.375-14.375s14.375 6.434 14.375 14.375zm0 0M357.887 113.066c0 7.938-6.438 14.375-14.375 14.375s-14.375-6.437-14.375-14.375 6.437-14.375 14.375-14.375 14.375 6.438 14.375 14.375zm0 0M182.863 113.066c0 7.938-6.437 14.375-14.375 14.375s-14.375-6.437-14.375-14.375 6.438-14.375 14.375-14.375 14.375 6.438 14.375 14.375zm0 0M357.887 200.625c0 7.938-6.438 14.371-14.375 14.371s-14.375-6.434-14.375-14.371c0-7.941 6.437-14.375 14.375-14.375s14.375 6.434 14.375 14.375zm0 0M182.863 200.625c0 7.938-6.437 14.371-14.375 14.371s-14.375-6.434-14.375-14.371c0-7.941 6.438-14.375 14.375-14.375s14.375 6.434 14.375 14.375zm0 0M270.375 249.059c0 7.937-6.438 14.375-14.375 14.375s-14.375-6.438-14.375-14.375 6.438-14.375 14.375-14.375 14.375 6.437 14.375 14.375zm0 0"/></g><path d="M489.188 0H230.421a7.5 7.5 0 1 0 0 15h258.77c4.304 0 7.808 3.504 7.808 7.813v228.343a7.5 7.5 0 1 0 15 0V22.812C512 10.235 501.77 0 489.187 0zm0 0M504.5 276.316a7.497 7.497 0 0 0-7.5 7.5v14.829H15V22.813C15 18.503 18.504 15 22.809 15h110.457a7.5 7.5 0 1 0 0-15H22.809C10.23 0 0 10.234 0 22.813V344.87c0 9.766 7.945 17.711 17.71 17.711H199.47v36.344H168.5a7.5 7.5 0 1 0 0 15h175c4.145 0 7.5-3.356 7.5-7.5a7.5 7.5 0 0 0-7.5-7.5h-30.969v-36.344H494.29c9.766 0 17.711-7.945 17.711-17.71v-61.056c0-4.144-3.355-7.5-7.5-7.5zm-206.969 122.61H214.47v-36.344h83.062zm196.758-51.344H17.711a2.712 2.712 0 0 1-2.711-2.71v-31.227h482v31.226a2.712 2.712 0 0 1-2.71 2.711zm0 0M165.926 15h31.836a7.5 7.5 0 1 0 0-15h-31.836a7.5 7.5 0 1 0 0 15zm0 0"/><path d="M46.375 56.648a7.5 7.5 0 0 0-7.5 7.5v199.043c0 4.141 3.36 7.5 7.5 7.5h58.406c4.14 0 7.5-3.359 7.5-7.5V64.148a7.5 7.5 0 0 0-7.5-7.5zm50.906 15v9.055H53.875v-9.055zM53.875 255.691V95.703h43.406v159.988zm0 0M413.684 138.047h58.406c4.144 0 7.5-3.356 7.5-7.5V64.148c0-4.144-3.356-7.5-7.5-7.5h-58.406a7.5 7.5 0 0 0-7.5 7.5v66.399a7.5 7.5 0 0 0 7.5 7.5zm7.5-15V95.699h43.406v27.348zm43.406-51.399v9.055h-43.406v-9.055zm0 0M406.184 236.871a7.5 7.5 0 0 0 7.5 7.5h58.406c4.144 0 7.5-3.355 7.5-7.5v-66.398c0-4.145-3.356-7.5-7.5-7.5h-58.406a7.5 7.5 0 0 0-7.5 7.5zm15-7.5v-27.348h43.406v27.348zm43.406-51.398v9.05h-43.406v-9.05zm0 0M146.613 200.625c0 12.059 9.817 21.871 21.875 21.871a21.757 21.757 0 0 0 14.356-5.39l51.547 28.558a22.113 22.113 0 0 0-.266 3.395c0 12.062 9.813 21.875 21.875 21.875 12.059 0 21.871-9.813 21.871-21.875 0-1.153-.09-2.29-.262-3.395l51.543-28.559a21.784 21.784 0 0 0 14.356 5.391c12.062 0 21.875-9.812 21.875-21.875 0-9.426-5.996-17.48-14.375-20.547v-46.457c8.379-3.07 14.375-11.12 14.375-20.55 0-12.063-9.813-21.876-21.875-21.876a21.775 21.775 0 0 0-14.324 5.364L277.605 67.98c.176-1.105.266-2.238.266-3.394 0-12.063-9.812-21.875-21.875-21.875-12.059 0-21.871 9.812-21.871 21.875 0 1.152.09 2.289.266 3.394l-51.579 28.575a21.775 21.775 0 0 0-14.324-5.364c-12.062 0-21.875 9.813-21.875 21.875 0 9.426 5.996 17.48 14.375 20.547v46.461c-8.379 3.067-14.375 11.121-14.375 20.551zM256 86.461a21.758 21.758 0 0 0 14.324-5.367l51.578 28.578c-.172 1.105-.265 2.238-.265 3.394s.093 2.293.265 3.399l-51.578 28.574c-3.84-3.336-8.847-5.363-14.324-5.363s-10.484 2.027-14.324 5.363l-51.578-28.574c.175-1.106.265-2.242.265-3.399s-.093-2.289-.265-3.394l51.578-28.574A21.775 21.775 0 0 0 256 86.46zm65.637 114.164c0 1.14.09 2.262.258 3.355l-51.57 28.57a21.752 21.752 0 0 0-6.825-4.038v-46.414c8.379-3.067 14.375-11.121 14.375-20.551 0-1.156-.094-2.29-.266-3.395l51.578-28.574a21.9 21.9 0 0 0 6.825 4.04v46.456c-8.38 3.067-14.375 11.121-14.375 20.551zm-58.762-39.078c0 3.793-3.086 6.875-6.875 6.875s-6.875-3.082-6.875-6.875c0-3.79 3.086-6.871 6.875-6.871s6.875 3.082 6.875 6.87zm-80.063-31.969l51.579 28.574a22.164 22.164 0 0 0-.266 3.399c0 9.426 5.996 17.48 14.375 20.547v46.414a21.9 21.9 0 0 0-6.824 4.039l-51.57-28.57a22.1 22.1 0 0 0 .257-3.356c0-9.43-5.996-17.484-14.375-20.55v-46.458a21.9 21.9 0 0 0 6.825-4.039zm-14.324 77.918c-3.789 0-6.875-3.082-6.875-6.871a6.883 6.883 0 0 1 6.875-6.875 6.88 6.88 0 0 1 6.875 6.875c0 3.79-3.082 6.871-6.875 6.871zM256 255.934c-3.79 0-6.875-3.086-6.875-6.875 0-3.79 3.086-6.875 6.875-6.875s6.875 3.086 6.875 6.875-3.086 6.875-6.875 6.875zm87.512-48.438c-3.79 0-6.875-3.082-6.875-6.871a6.883 6.883 0 0 1 6.875-6.875 6.883 6.883 0 0 1 6.875 6.875c0 3.79-3.086 6.871-6.875 6.871zm0-101.305c3.789 0 6.875 3.086 6.875 6.875 0 3.79-3.086 6.875-6.875 6.875-3.79 0-6.875-3.086-6.875-6.875s3.086-6.875 6.875-6.875zM256 57.711c3.79 0 6.875 3.086 6.875 6.875S259.789 71.46 256 71.46s-6.875-3.086-6.875-6.875c0-3.79 3.086-6.875 6.875-6.875zm-87.512 48.48a6.883 6.883 0 0 1 6.875 6.875 6.883 6.883 0 0 1-6.875 6.875c-3.789 0-6.875-3.086-6.875-6.875s3.086-6.875 6.875-6.875zm0 0"/></svg>