<svg height="512pt" viewBox="-106 0 512 512" width="512pt" xmlns="http://www.w3.org/2000/svg"><path d="M85.176 496.902l29.203-175.164H83.12L54.418 493.91c-.926 5.543 3.348 10.59 8.969 10.59h12.82a9.096 9.096 0 0 0 8.969-7.598zm0 0M213.926 496.902l-29.203-175.164h31.254l28.707 172.172c.921 5.543-3.352 10.59-8.97 10.59h-12.82a9.093 9.093 0 0 1-8.968-7.598zm0 0" fill="#aa6344"/><path d="M291.598 163.742v25.375c0 5.02-4.067 9.086-9.094 9.086H16.598c-5.028 0-9.094-4.066-9.094-9.086v-25.375a9.09 9.09 0 0 1 9.094-9.097h265.906a9.09 9.09 0 0 1 9.094 9.097zm0 0" fill="#c97f4c"/><path d="M23.332 154.645h252.434v43.558H23.332zm0 0" fill="#aa6344"/><path d="M282.508 405.398H16.594c-5.024 0-9.094-4.07-9.094-9.09V383.66c0-5.02 4.07-9.09 9.094-9.09h265.914a9.09 9.09 0 0 1 9.09 9.09v12.649a9.09 9.09 0 0 1-9.09 9.09zm0 0M164.96 16.594V67.23h-30.823V16.594c0-5.028 4.07-9.094 9.086-9.094h12.656c5.016 0 9.082 4.066 9.082 9.094zm0 0" fill="#c97f4c"/><path d="M134.137 31.79h30.824v35.44h-30.824zm0 0" fill="#aa6344"/><path d="M254.68 346.305H44.418c-5.023 0-9.094-4.07-9.094-9.09V52.879a9.092 9.092 0 0 1 9.094-9.094H254.68c5.02 0 9.093 4.07 9.093 9.094v284.336c0 5.02-4.074 9.09-9.093 9.09zm0 0" fill="#e3f4ff"/><path d="M263.777 52.883V337.21c0 5.027-4.074 9.09-9.093 9.09h-24.79c5.02 0 9.094-4.063 9.094-9.09V52.883a9.092 9.092 0 0 0-9.093-9.094h24.789a9.092 9.092 0 0 1 9.093 9.094zm0 0" fill="#bddff4"/><path d="M220.465 141.469c0 27.789-22.528 50.32-50.32 50.32-27.79 0-50.317-22.531-50.317-50.32s22.527-50.32 50.317-50.32c27.792 0 50.32 22.53 50.32 50.32zm0 0M156.063 279.508c0 16.11-13.063 29.172-29.176 29.172S97.71 295.617 97.71 279.508c0-16.113 13.062-29.176 29.176-29.176s29.175 13.063 29.175 29.176zm0 0" fill="#fc3e81"/><path d="M112.855 259.191c0 10.207-8.273 18.485-18.48 18.485s-18.484-8.278-18.484-18.485c0-10.207 8.277-18.484 18.484-18.484s18.48 8.277 18.48 18.484zm0 0" fill="#fd82ac"/><path d="M16.594 205.707h11.23v57.43a7.5 7.5 0 1 0 15 0V52.879c0-.879.715-1.594 1.594-1.594H254.68c.879 0 1.593.715 1.593 1.594V90.71c0 4.144 3.356 7.5 7.5 7.5a7.5 7.5 0 0 0 7.5-7.5V52.879c0-9.149-7.445-16.594-16.593-16.594h-82.215V16.594C172.465 7.44 165.02 0 155.87 0h-12.644c-9.149 0-16.594 7.441-16.594 16.594v19.691H44.418c-9.148 0-16.594 7.445-16.594 16.594v94.266h-11.23C7.445 147.145 0 154.59 0 163.738v25.375c0 9.153 7.445 16.594 16.594 16.594zM141.633 16.594c0-.88.715-1.594 1.594-1.594h12.644c.879 0 1.594.715 1.594 1.594v19.691h-15.832zM15 163.738c0-.879.715-1.593 1.594-1.593h11.23v28.562h-11.23A1.595 1.595 0 0 1 15 189.113zm0 0M254.68 353.805c9.148 0 16.593-7.442 16.593-16.59V205.707h11.235c9.148 0 16.594-7.441 16.594-16.594v-25.375c0-9.148-7.446-16.593-16.594-16.593h-11.235v-23.79a7.5 7.5 0 1 0-15 0v213.856c0 .879-.714 1.594-1.593 1.594H44.414c-.875 0-1.59-.715-1.59-1.594v-41.469a7.5 7.5 0 0 0-7.5-7.5 7.497 7.497 0 0 0-7.5 7.5v41.469c0 9.148 7.442 16.594 16.59 16.594h25.758l-2.211 13.261H16.594C7.445 367.066 0 374.512 0 383.66v12.649c0 9.148 7.445 16.593 16.594 16.593h43.722l-13.3 79.778a16.57 16.57 0 0 0 3.707 13.453A16.574 16.574 0 0 0 63.387 512h12.816a16.54 16.54 0 0 0 16.367-13.863l4.5-26.989a7.495 7.495 0 0 0-6.164-8.628c-4.09-.692-7.953 2.078-8.633 6.164l-4.496 26.984A1.59 1.59 0 0 1 76.203 497H63.387c-.614 0-1-.309-1.219-.563a1.548 1.548 0 0 1-.355-1.292l13.71-82.243h16.051L87.72 436.04a7.495 7.495 0 0 0 6.164 8.629c.418.07.832.105 1.242.105a7.506 7.506 0 0 0 7.39-6.27l4.27-25.6h35.266v21.788c0 4.145 3.355 7.5 7.5 7.5a7.5 7.5 0 0 0 7.5-7.5v-21.793h35.265l14.211 85.239A16.543 16.543 0 0 0 222.895 512h12.82c4.887 0 9.5-2.14 12.66-5.867a16.577 16.577 0 0 0 3.703-13.457l-13.297-79.778h43.727c9.148 0 16.594-7.441 16.594-16.593V383.66c0-9.148-7.446-16.594-16.594-16.594H231.14l-2.211-13.261zm27.828-191.66c.879 0 1.594.714 1.594 1.593v25.375c0 .88-.715 1.594-1.594 1.594h-11.235v-28.562zm-100.043 191.66l2.21 13.265h-70.253l2.21-13.265zm-97.086 0h16.05l-2.21 13.265H83.168zm151.906 141.34a1.548 1.548 0 0 1-.355 1.293 1.543 1.543 0 0 1-1.215.562h-12.82a1.59 1.59 0 0 1-1.57-1.332l-13.802-82.77h16.051zm46.817-111.485v12.649c0 .879-.715 1.593-1.594 1.593H16.594A1.595 1.595 0 0 1 15 396.31V383.66c0-.879.715-1.594 1.594-1.594h265.914c.879 0 1.594.715 1.594 1.594zm-68.168-16.594h-16.051l-2.211-13.261h16.05zm0 0"/><path d="M223.133 245.754a7.5 7.5 0 1 0 0 15h.074c4.145 0 7.465-3.356 7.465-7.5 0-4.14-3.395-7.5-7.54-7.5zm0 0M201.313 245.754a7.5 7.5 0 0 0-7.5 7.5c0 4.144 3.355 7.5 7.5 7.5h.074c4.14 0 7.46-3.356 7.46-7.5 0-4.14-3.394-7.5-7.535-7.5zm0 0M223.133 264.402a7.5 7.5 0 1 0 0 15h.074c4.145 0 7.465-3.355 7.465-7.5 0-4.14-3.395-7.5-7.54-7.5zm0 0M201.313 264.402a7.5 7.5 0 0 0-7.5 7.5c0 4.145 3.355 7.5 7.5 7.5h.074c4.14 0 7.46-3.355 7.46-7.5 0-4.14-3.394-7.5-7.535-7.5zm0 0M223.137 283.05c-.035 0-.067 0-.102.005a7.492 7.492 0 0 0-7.398 7.597c.05 4.106 3.398 7.399 7.496 7.399h.176c4.14-.055 7.418-3.457 7.363-7.598-.055-4.11-3.442-7.402-7.535-7.402zm0 0M201.313 283.05c-.032 0-.067 0-.098.005a7.495 7.495 0 0 0-7.403 7.597 7.5 7.5 0 0 0 7.497 7.399h.175c4.145-.055 7.418-3.457 7.364-7.598-.051-4.11-3.438-7.402-7.536-7.402zm0 0M97.715 176.504h.074c4.14 0 7.461-3.356 7.461-7.5 0-4.145-3.395-7.5-7.535-7.5a7.497 7.497 0 0 0-7.5 7.5c0 4.144 3.355 7.5 7.5 7.5zm0 0M75.89 176.504h.079c4.14 0 7.46-3.356 7.46-7.5 0-4.145-3.394-7.5-7.538-7.5a7.5 7.5 0 0 0-7.5 7.5 7.5 7.5 0 0 0 7.5 7.5zm0 0M97.715 195.152h.074c4.14 0 7.461-3.355 7.461-7.5 0-4.144-3.395-7.5-7.535-7.5a7.497 7.497 0 0 0-7.5 7.5c0 4.145 3.355 7.5 7.5 7.5zm0 0M75.89 195.152h.079c4.14 0 7.46-3.355 7.46-7.5 0-4.144-3.394-7.5-7.538-7.5a7.5 7.5 0 0 0-7.5 7.5 7.5 7.5 0 0 0 7.5 7.5zm0 0"/><path d="M227.965 141.469c0-31.883-25.938-57.82-57.817-57.82-27.386 0-50.375 19.148-56.312 44.753l-17.14 4.098c-.864.207-1.54-.066-2.016-.809-.48-.742-.45-1.472.09-2.171l29.707-38.5a7.498 7.498 0 0 0-1.356-10.52 7.501 7.501 0 0 0-10.52 1.355l-29.706 38.497c-4.434 5.746-4.75 13.394-.813 19.484 3.941 6.094 11.047 8.937 18.102 7.25l12.21-2.918c.672 14.527 6.735 27.664 16.227 37.473l-16.809 19.718c-4.699 5.512-5.39 13.13-1.761 19.403 3.625 6.27 10.566 9.468 17.695 8.144l60.645-11.261c.902-.168 1.582.16 2.011.972.645 1.23-.093 1.969-.336 2.207l-35.109 35.11c-6.734-8.004-16.812-13.106-28.066-13.106-3.809 0-7.512.586-11.067 1.711-4.687-6.836-12.55-11.332-21.445-11.332-14.328 0-25.984 11.652-25.984 25.98 0 13.051 9.671 23.88 22.218 25.708 2.617 17.675 17.887 31.285 36.278 31.285 20.222 0 36.671-16.453 36.671-36.676 0-3.344-.457-6.582-1.3-9.66l38.414-38.41c5.34-5.344 6.52-13.118 3-19.805-3.52-6.684-10.598-10.106-18.024-8.734l-60.644 11.261c-.867.164-1.531-.144-1.973-.906-.441-.766-.375-1.492.195-2.164l17.122-20.09a57.435 57.435 0 0 0 29.796 8.29c31.88.003 57.817-25.934 57.817-57.817zM83.39 259.19c0-6.054 4.93-10.98 10.984-10.98s10.984 4.926 10.984 10.98c0 6.055-4.93 10.98-10.984 10.98s-10.984-4.925-10.984-10.98zm43.496 41.989c-10.871 0-19.895-8.043-21.438-18.489 8.801-4.168 14.906-13.132 14.906-23.5 0-.117-.003-.234-.007-.351a21.581 21.581 0 0 1 6.539-1.008c11.953 0 21.675 9.727 21.675 21.676 0 11.953-9.722 21.672-21.675 21.672zm.441-159.711c0-.293.016-.582.02-.875l39.91-9.535c.879-.211 1.566.074 2.043.843.472.774.414 1.516-.172 2.207l-30.73 36.055c-6.88-7.598-11.07-17.664-11.07-28.695zm42.817 42.82a42.553 42.553 0 0 1-19.887-4.918l30.285-35.531c4.828-5.668 5.434-13.43 1.547-19.774-3.89-6.343-11.082-9.332-18.32-7.597l-32.848 7.847c6.629-15.093 21.71-25.668 39.223-25.668 23.613 0 42.82 19.211 42.82 42.82s-19.207 42.821-42.82 42.821zm0 0"/></svg>