<svg height="511pt" viewBox="-19 1 511 512" width="511pt" xmlns="http://www.w3.org/2000/svg"><path d="M253.504 41.3v311.595c0 19.609 15.898 35.507 35.508 35.507s35.508-15.898 35.508-35.507v-50.73c0-19.61 15.898-35.509 35.511-35.509 19.61 0 35.508 15.899 35.508 35.508v166.828c0 19.61 15.899 35.508 35.508 35.508 19.613 0 35.508-15.898 35.508-35.508V41.301c0-5.524-4.477-10-10-10H263.504c-5.524 0-10 4.476-10 10zm0 0" fill="#3fefef"/><path d="M456.555 31.3c5.523 0 10 4.477 10 10v427.688c0 9.813-3.973 18.68-10.403 25.11-6.418 6.422-15.3 10.402-25.101 10.402-3.688 0-7.25-.563-10.59-1.61a35.522 35.522 0 0 0 14.523-8.792c6.43-6.43 10.399-15.297 10.399-25.11V31.301zm0 0" fill="#1dd1d9"/><path d="M175.617 255.934l12.742-12.739-29.12-29.12-12.739 12.738c-25.441 25.44-54.375 47.054-85.469 65.363-8.054 4.742-16.129 10.965-23.676 18.508C9.992 338.047-.015 372.41 15.004 387.43c15.02 15.02 49.379 5.011 76.746-22.352 7.543-7.547 13.766-15.621 18.508-23.676 18.308-31.097 39.918-60.027 65.36-85.468zm0 0" fill="#64bdff"/><path d="M188.36 243.195l-12.743 12.739c-25.441 25.441-47.05 54.37-65.36 85.472-4.741 8.051-10.96 16.121-18.51 23.672-27.36 27.36-61.724 37.371-76.743 22.348-2.418-2.418-4.18-5.328-5.328-8.63 17.25 6.032 45.148-4.718 68.11-27.679 7.55-7.539 13.769-15.62 18.51-23.672 18.31-31.101 39.923-60.03 65.36-85.472l12.742-12.739zm0 0" fill="#43a3f9"/><path d="M285.95 265.977L136.456 116.484l105.246-105.25c4.996-4.992 13.094-4.992 18.09 0l131.402 131.407c4.996 4.992 4.996 13.093 0 18.086zm0 0" fill="#ffeb96"/><path d="M391.191 160.734L285.95 265.977l-14.851-14.852 105.254-105.242c4.941-4.95 4.988-12.922.148-17.93l14.691 14.688c5 4.992 5 13.093 0 18.093zm0 0" fill="#ffdf46"/><path d="M235.992 311.77L90.664 166.44c-4.996-4.996-4.996-13.093 0-18.09l39.793-39.792c4.996-4.997 13.094-4.997 18.09 0l145.328 145.328c4.996 4.996 4.996 13.093 0 18.09l-39.793 39.793c-4.996 4.996-13.094 4.996-18.09 0zm0 0" fill="#bddff4"/><path d="M456.555 23.8H398.18a7.497 7.497 0 0 0-7.5 7.5 7.5 7.5 0 0 0 7.5 7.5h58.375c1.379 0 2.5 1.122 2.5 2.5v293.86a7.5 7.5 0 1 0 15 0V41.3c0-9.652-7.848-17.5-17.5-17.5zm0 0"/><path d="M466.555 360.32a7.5 7.5 0 0 0-7.5 7.5v101.168c0 15.446-12.563 28.012-28.008 28.012s-28.008-12.566-28.008-28.012V302.164c0-23.715-19.297-43.008-43.012-43.008s-43.007 19.293-43.007 43.008v50.73c0 15.446-12.567 28.008-28.008 28.008-15.446 0-28.012-12.562-28.012-28.007v-37.438l38.176-38.18c5.21-5.207 6.965-12.562 5.316-19.238l92.008-92.008c7.91-7.91 7.91-20.785 0-28.695L297.96 38.8h67.556a7.5 7.5 0 0 0 7.5-7.5c0-4.145-3.356-7.5-7.5-7.5H282.96L265.098 5.934c-7.914-7.91-20.785-7.91-28.696 0l-92 91.996a20.16 20.16 0 0 0-19.25 5.324L85.36 143.05c-7.91 7.91-7.91 20.781 0 28.691l52.774 52.778c-23.172 22.632-50.363 43.21-80.906 61.19-8.883 5.231-17.352 11.849-25.176 19.669-14.11 14.113-24.399 30.523-28.969 46.21-5.02 17.243-2.672 31.856 6.617 41.145 6.196 6.196 14.7 9.227 24.52 9.227 14.375-.004 31.562-6.504 48.41-19.078 3.316-2.48 4-7.18 1.523-10.496-2.48-3.32-7.18-4.004-10.496-1.524-21.441 16-43.875 20.739-53.351 11.266-5.164-5.168-6.192-14.766-2.82-26.344 3.874-13.305 12.816-27.437 25.175-39.797 6.926-6.925 14.387-12.765 22.176-17.347 31.64-18.63 59.84-39.989 83.902-63.512l18.567 18.562c-23.528 24.067-44.883 52.266-63.512 83.907-2.328 3.953-5.066 7.933-8.145 11.828a7.503 7.503 0 0 0 5.883 12.148c2.215 0 4.41-.976 5.89-2.851 3.5-4.43 6.63-8.977 9.298-13.516 17.984-30.547 38.562-57.738 61.195-80.91l52.774 52.773a20.141 20.141 0 0 0 14.347 5.946c.324 0 .645-.032.965-.047v29.926c0 23.714 19.297 43.007 43.012 43.007s43.008-19.293 43.008-43.007v-50.73c0-15.442 12.566-28.009 28.011-28.009 15.442 0 28.008 12.563 28.008 28.008v166.824c0 23.719 19.293 43.012 43.008 43.012 23.719 0 43.012-19.293 43.012-43.012V367.82a7.503 7.503 0 0 0-7.504-7.5zM247.008 16.54a5.295 5.295 0 0 1 7.48 0l131.403 131.405a5.29 5.29 0 0 1 0 7.477l-89.938 89.937-35.082-35.082 15.195-15.195a7.502 7.502 0 0 0 0-10.61c-2.93-2.925-7.68-2.925-10.605 0l-15.2 15.196-53.116-53.117 15.199-15.196a7.497 7.497 0 0 0 0-10.605c-2.93-2.926-7.68-2.93-10.606 0l-15.199 15.195-8.082-8.082 59.813-59.812a7.502 7.502 0 0 0 0-10.61 7.497 7.497 0 0 0-10.606 0l-59.816 59.813-10.778-10.777zm-5.711 289.925L95.965 161.137a5.295 5.295 0 0 1 0-7.48l39.797-39.794c1-1 2.328-1.55 3.738-1.55 1.414 0 2.742.55 3.742 1.55L288.57 259.191a5.295 5.295 0 0 1 0 7.48l-39.793 39.794c-1 1-2.328 1.55-3.742 1.55a5.247 5.247 0 0 1-3.738-1.55zm0 0"/><path d="M148.273 174.82a7.502 7.502 0 0 0-10.609 0 7.497 7.497 0 0 0 0 10.606l79.344 79.344a7.49 7.49 0 0 0 5.304 2.195 7.502 7.502 0 0 0 5.3-12.805zm0 0M424.02 182.277h-.079c-4.144 0-7.46 3.356-7.46 7.5 0 4.145 3.394 7.5 7.539 7.5s7.5-3.355 7.5-7.5c0-4.144-3.356-7.5-7.5-7.5zm0 0M430.2 202.777c-4.145.055-7.419 3.453-7.368 7.594.05 4.11 3.438 7.406 7.535 7.406h.098a7.5 7.5 0 1 0-.094-15h-.094zm0 0M383.648 225.883c-4.144 0-7.46 3.355-7.46 7.5 0 4.14 3.394 7.5 7.539 7.5a7.5 7.5 0 0 0 7.5-7.5c0-4.145-3.356-7.5-7.5-7.5zm0 0"/></svg>