<svg height="511pt" viewBox="0 -26 512 511" width="511pt" xmlns="http://www.w3.org/2000/svg"><path d="M461.371 451.945c-14.137-2.234-25.226-16.539-19.969-32.218.118-.356.243-.704.371-1.055 3.047-8.172 9.051-14.379 16.34-17.867 7.657-3.672 16.739-4.34 25.317-1.133 16.754 6.258 25.258 24.91 19 41.66a.044.044 0 0 1-.012.031c-.664 1.782-2.504 2.828-4.387 2.535-6.566-1.023-14.246 1.762-20.922 5.317-5.23 2.785-10.683 3.531-15.738 2.73zm0 0" fill="#e29c6d"/><path d="M502.426 441.332c0 .008 0 .031-.008.031-.66 1.778-2.512 2.828-4.39 2.54-6.56-1.02-14.239 1.757-20.919 5.308-5.23 2.789-10.68 3.531-15.742 2.73-14.129-2.23-25.226-16.53-19.969-32.218.122-.352.25-.7.38-1.051.019-.05.042-.098.062-.149 3.3 8.02 10.84 13.95 19.527 15.329 5.063.8 10.512.05 15.742-2.73 6.68-3.56 14.36-6.34 20.918-5.321 1.88.293 3.73-.758 4.391-2.54.008 0 .008-.019.008-.03.293-.758.543-1.528.75-2.297 1.902 6.468 1.793 13.59-.75 20.398zm0 0" fill="#c97f4c"/><path d="M436.93 439.914a6.2 6.2 0 0 0 5.68-6.18V416.13a6.2 6.2 0 0 0-5.68-6.18l-92.516-7.808L17.88 414.164c-5.793.211-10.379 4.969-10.379 10.766s4.586 10.558 10.379 10.77l326.535 12.023zm0 0" fill="#43a3f9"/><path d="M442.61 417.008v16.73a6.204 6.204 0 0 1-5.68 6.18l-92.52 7.809L17.88 435.699c-5.79-.21-10.379-4.972-10.379-10.77 0-3.37 1.55-6.382 3.988-8.35 1.75 1.429 3.961 2.32 6.39 2.398l326.532 12.02 92.52-7.81a6.195 6.195 0 0 0 5.68-6.18zm0 0" fill="#1685fb"/><path d="M442.61 416.129v17.61a6.204 6.204 0 0 1-5.68 6.179l-92.52 7.809V402.14l92.52 7.808c3.21.27 5.68 2.961 5.68 6.18zm0 0" fill="#bddff4"/><path d="M442.61 417.008v16.73a6.204 6.204 0 0 1-5.68 6.18l-92.52 7.809v-16.73l92.52-7.81a6.195 6.195 0 0 0 5.68-6.18zm0 0" fill="#9cc6db"/><path d="M474.473 374.043H194.48c-5.523 0-10-4.477-10-10V18.547c0-5.524 4.477-10 10-10h279.993c5.523 0 10 4.476 10 10v345.496c0 5.523-4.477 10-10 10zm0 0" fill="#e3f4ff"/><path d="M474.473 374.043H194.48c-5.523 0-10-4.477-10-10V18.547c0-5.524 4.477-10 10-10h279.993c5.523 0 10 4.476 10 10v345.496c0 5.523-4.477 10-10 10zm0 0" fill="#e29c6d"/><path d="M484.473 18.543v345.5c0 5.52-4.48 10-10 10h-17.82c5.519 0 10-4.48 10-10v-345.5c0-5.52-4.481-10-10-10h17.82c5.52 0 10 4.48 10 10zm0 0" fill="#c97f4c"/><path d="M214.48 38.543h239.993v305.5H214.48zm0 0" fill="#e3f4ff"/><path d="M435.395 38.543h19.078v305.5h-19.078zm0 0" fill="#bddff4"/><path d="M373.484 243.27c0 29.035-23.535 52.57-52.57 52.57s-52.574-23.535-52.574-52.57c0-29.036 23.539-52.575 52.574-52.575 29.035 0 52.57 23.54 52.57 52.575zm0 0" fill="#43a3f9"/><path d="M140.063 365.21H51.05c-13 0-23.535-10.538-23.535-23.538V31.535C27.516 18.54 38.05 8 51.05 8h89.011c5.524 0 10 4.477 10 10v337.21c0 5.524-4.476 10-10 10zm0 0" fill="#e3f4ff"/><path d="M150.063 18.004v337.21c0 5.52-4.481 10-10 10h-18.7c5.528 0 10-4.48 10-10V18.005c0-5.531-4.472-10-10-10h18.7c5.519 0 10 4.469 10 10zm0 0" fill="#bddff4"/><path d="M103.758 306.953c0 12.18-9.871 22.05-22.051 22.05-12.18 0-22.05-9.87-22.05-22.05s9.87-22.05 22.05-22.05c12.18 0 22.05 9.87 22.05 22.05zm0 0" fill="#43a3f9"/><path d="M103.758 226.723c0 12.175-9.871 22.05-22.051 22.05-12.18 0-22.05-9.875-22.05-22.05 0-12.18 9.87-22.055 22.05-22.055 12.18 0 22.05 9.875 22.05 22.055zm0 0" fill="#fc3e81"/><path d="M103.758 146.488c0 12.18-9.871 22.051-22.051 22.051-12.18 0-22.05-9.871-22.05-22.05 0-12.18 9.87-22.052 22.05-22.052 12.18 0 22.05 9.872 22.05 22.051zm0 0" fill="#f9b200"/><path d="M103.758 66.258c0 12.176-9.871 22.05-22.051 22.05-12.18 0-22.05-9.874-22.05-22.05 0-12.18 9.87-22.055 22.05-22.055 12.18 0 22.05 9.875 22.05 22.055zm0 0" fill="#c0ff66"/><path d="M508.383 413.457c-4.418-9.691-12.348-17.082-22.328-20.812-10.246-3.829-21.32-3.333-31.176 1.394a39.94 39.94 0 0 0-12.727 9.648 13.691 13.691 0 0 0-4.593-1.21l-92.516-7.813a7.829 7.829 0 0 0-.91-.02L17.605 406.669A18.214 18.214 0 0 0 0 424.93c0 9.879 7.73 17.902 17.605 18.265l228.348 8.41c4.168.122 7.617-3.078 7.77-7.218s-3.078-7.621-7.22-7.774l-228.347-8.406A3.267 3.267 0 0 1 15 424.934a3.262 3.262 0 0 1 3.156-3.274l318.758-11.738v30.023l-57.75-2.129c-4.137-.125-7.617 3.082-7.77 7.22a7.5 7.5 0 0 0 7.22 7.773l65.523 2.41c.093.004.183.008.277.008.211 0 .422-.012.629-.028l92.52-7.808c.617-.051 1.218-.157 1.808-.286 5.094 6.489 12.547 10.942 20.828 12.247 1.672.265 3.348.398 5.02.398 5.304 0 10.554-1.324 15.418-3.914 6.61-3.524 12.379-5.129 16.246-4.527 5.344.832 10.586-2.196 12.52-7.207.019-.047.038-.098.058-.145 3.723-9.977 3.344-20.809-1.078-30.5zm-73.274 19.086l-83.199 7.023v-29.27l83.2 7.024zm61.086 3.664c-6.601-.262-14.187 1.902-22.613 6.39-3.492 1.86-7.305 2.532-11.039 1.942-5.191-.82-9.941-4.05-12.633-8.52.125-.746.2-1.503.2-2.285v-15.312a24.82 24.82 0 0 1 11.25-10.852c6.148-2.953 13.054-3.261 19.449-.875 6.222 2.328 11.171 6.938 13.93 12.985 2.39 5.246 2.886 11.023 1.456 16.527zm0 0M194.48 381.543h279.993c9.648 0 17.5-7.852 17.5-17.5V18.547c0-9.649-7.852-17.5-17.5-17.5H194.48c-9.648 0-17.5 7.851-17.5 17.5v227.82c0 4.145 3.356 7.5 7.5 7.5s7.5-3.355 7.5-7.5V18.547c0-1.379 1.122-2.5 2.5-2.5h279.993c1.379 0 2.5 1.121 2.5 2.5v345.496c0 1.379-1.121 2.5-2.5 2.5H194.48a2.502 2.502 0 0 1-2.5-2.5v-85.016c0-4.14-3.355-7.5-7.5-7.5s-7.5 3.36-7.5 7.5v85.016c0 9.648 7.852 17.5 17.5 17.5zm0 0"/><path d="M454.473 351.543c4.144 0 7.5-3.355 7.5-7.5V38.547c0-4.145-3.356-7.5-7.5-7.5H214.48a7.497 7.497 0 0 0-7.5 7.5v305.496c0 4.145 3.356 7.5 7.5 7.5zM221.98 46.043h224.993v290.5H221.98zm0 0"/><path d="M273.055 126.477a7.5 7.5 0 0 0-7.5-7.5h-.078c-4.145 0-7.461 3.355-7.461 7.5 0 4.144 3.394 7.5 7.539 7.5a7.5 7.5 0 0 0 7.5-7.5zm0 0M288.352 133.977a7.5 7.5 0 0 0 7.5-7.5 7.5 7.5 0 0 0-7.5-7.5h-.079c-4.144 0-7.46 3.355-7.46 7.5 0 4.144 3.394 7.5 7.539 7.5zm0 0M265.555 114.492a7.499 7.499 0 1 0 0-14.996h-.078c-4.145 0-7.461 3.356-7.461 7.5 0 4.14 3.394 7.496 7.539 7.496zm0 0M288.352 114.492a7.499 7.499 0 1 0 0-14.996h-.079c-4.144 0-7.46 3.356-7.46 7.5 0 4.14 3.394 7.496 7.539 7.496zm0 0M265.555 95.012a7.5 7.5 0 1 0 0-15h-.078c-4.145 0-7.461 3.355-7.461 7.5 0 4.14 3.394 7.5 7.539 7.5zm0 0M288.352 95.012a7.5 7.5 0 1 0 0-15h-.079c-4.144 0-7.46 3.355-7.46 7.5 0 4.14 3.394 7.5 7.539 7.5zm0 0M396.59 222c4.144 0 7.5-3.355 7.5-7.5a7.5 7.5 0 0 0-7.5-7.5h-.078c-4.145 0-7.461 3.36-7.461 7.5 0 4.145 3.394 7.5 7.539 7.5zm0 0M419.387 207h-.078c-4.141 0-7.461 3.36-7.461 7.5 0 4.145 3.398 7.5 7.539 7.5 4.144 0 7.5-3.355 7.5-7.5a7.5 7.5 0 0 0-7.5-7.5zm0 0M396.59 202.516c4.144 0 7.5-3.356 7.5-7.5a7.5 7.5 0 0 0-7.5-7.5h-.078c-4.145 0-7.461 3.359-7.461 7.5 0 4.144 3.394 7.5 7.539 7.5zm0 0M419.387 187.516h-.078c-4.141 0-7.461 3.359-7.461 7.5 0 4.144 3.398 7.5 7.539 7.5 4.144 0 7.5-3.356 7.5-7.5a7.5 7.5 0 0 0-7.5-7.5zm0 0"/><path d="M394.09 237.727l-13.164 3.144c-.61-15.363-7.008-29.258-17.078-39.559l17.754-20.832c4.816-5.652 5.527-13.457 1.812-19.886-3.719-6.43-10.844-9.703-18.14-8.352l-63.36 11.77c-1.367.261-2.098-.508-2.457-1.192-.363-.683-.582-1.71.41-2.699l71.266-71.27a7.502 7.502 0 0 0 0-10.609 7.504 7.504 0 0 0-10.606 0l-71.27 71.27c-5.476 5.476-6.683 13.441-3.073 20.297 3.605 6.851 10.851 10.359 18.468 8.953l63.364-11.77c1.324-.246 2.043.469 2.41 1.11.375.644.633 1.625-.238 2.648l-18.07 21.203a59.71 59.71 0 0 0-31.204-8.758c-33.125 0-60.07 26.95-60.07 60.075 0 33.12 26.945 60.07 60.07 60.07 28.527 0 52.457-19.992 58.555-46.7l18.105-4.327c1.313-.313 2.07.367 2.473.988.402.625.71 1.594-.11 2.66l-31.042 40.219c-2.528 3.28-1.922 7.992 1.355 10.52a7.459 7.459 0 0 0 4.578 1.566 7.489 7.489 0 0 0 5.942-2.918l31.039-40.223c4.543-5.887 4.87-13.723.832-19.969-4.04-6.242-11.328-9.16-18.551-7.43zm-28.106 5.543c0 .394-.02.785-.027 1.18l-41.945 10.023c-1.344.324-2.102-.387-2.5-1.036-.399-.648-.688-1.644.21-2.695l32.352-37.96c7.387 8.03 11.91 18.738 11.91 30.488zm-45.07 45.074c-24.855 0-45.074-20.223-45.074-45.074 0-24.852 20.219-45.075 45.074-45.075 7.703 0 14.957 1.95 21.309 5.368l-31.918 37.449c-4.946 5.804-5.567 13.761-1.582 20.265 3.988 6.504 11.355 9.559 18.773 7.785l34.98-8.359c-6.831 16.223-22.89 27.64-41.562 27.64zm0 0M51.05 372.71h89.013c9.648 0 17.5-7.85 17.5-17.5V199.536c0-4.144-3.356-7.5-7.5-7.5s-7.5 3.356-7.5 7.5v155.676c0 1.379-1.122 2.5-2.5 2.5H51.05c-8.844 0-16.035-7.195-16.035-16.04V31.536c0-8.844 7.191-16.035 16.035-16.035h89.011c1.38 0 2.5 1.121 2.5 2.5v148.875a7.5 7.5 0 1 0 15 0V18c0-9.648-7.851-17.5-17.5-17.5H51.052C33.937.5 20.016 14.422 20.016 31.535v310.137c0 17.113 13.922 31.039 31.035 31.039zm0 0"/><path d="M81.707 277.402c-16.293 0-29.55 13.254-29.55 29.551s13.257 29.55 29.55 29.55c16.297 0 29.55-13.253 29.55-29.55s-13.253-29.55-29.55-29.55zm0 44.102c-8.023 0-14.55-6.527-14.55-14.55s6.527-14.552 14.55-14.552 14.55 6.528 14.55 14.551-6.527 14.55-14.55 14.55zm0 0M81.707 197.168c-16.293 0-29.55 13.258-29.55 29.555 0 16.293 13.257 29.55 29.55 29.55 16.297 0 29.55-13.257 29.55-29.55 0-16.297-13.253-29.555-29.55-29.555zm0 44.105c-8.023 0-14.55-6.527-14.55-14.554 0-8.024 6.527-14.551 14.55-14.551s14.55 6.527 14.55 14.55c0 8.028-6.527 14.555-14.55 14.555zm0 0M81.707 116.938c-16.293 0-29.55 13.253-29.55 29.55s13.257 29.551 29.55 29.551c16.297 0 29.55-13.254 29.55-29.55s-13.253-29.552-29.55-29.552zm0 44.101c-8.023 0-14.55-6.527-14.55-14.55 0-8.024 6.527-14.552 14.55-14.552s14.55 6.528 14.55 14.551c0 8.024-6.527 14.551-14.55 14.551zm0 0M81.707 36.703c-16.293 0-29.55 13.258-29.55 29.555 0 16.293 13.257 29.55 29.55 29.55 16.297 0 29.55-13.257 29.55-29.55 0-16.297-13.253-29.555-29.55-29.555zm0 44.106c-8.023 0-14.55-6.528-14.55-14.555 0-8.02 6.527-14.55 14.55-14.55s14.55 6.526 14.55 14.55c0 8.027-6.527 14.555-14.55 14.555zm0 0"/></svg>