<svg height="512pt" viewBox="-73 0 512 512" width="512pt" xmlns="http://www.w3.org/2000/svg"><path d="M359.14 17.5v477c0 5.52-4.48 10-10 10H17.5c-5.52 0-10-4.48-10-10V117.18c0-1.461.32-2.89.93-4.192a9.832 9.832 0 0 1 2-2.879l99.68-99.68c.84-.84 1.82-1.519 2.882-2.007a9.97 9.97 0 0 1 4.188-.922h231.96c5.52 0 10 4.48 10 10zm0 0" fill="#e3f4ff"/><path d="M359.14 17.5v477c0 5.52-4.48 10-10 10h-21.878c5.52 0 10-4.48 10-10v-477c0-5.52-4.48-10-10-10h21.879c5.52 0 10 4.48 10 10zm0 0" fill="#bddff4"/><path d="M112.992 8.422l-.191 94.398c-.02 5.5-4.48 9.961-9.98 9.98l-94.391.188a9.832 9.832 0 0 1 2-2.879l99.68-99.68c.84-.84 1.82-1.519 2.882-2.007zm0 0" fill="#fd6096"/><path d="M309.32 196.348c0 47.457-38.472 85.933-85.93 85.933-23.734 0-45.214-9.62-60.761-25.172-15.55-15.55-25.172-37.027-25.172-60.761 0-47.457 38.477-85.934 85.934-85.934s85.93 38.477 85.93 85.934zm0 0" fill="#64bdff"/><path d="M243.305 216.266a86.978 86.978 0 0 1-17.813 13.718l-64.367 37.496c-5.766 3.36-12.227-3.101-8.867-8.867l37.496-64.367a86.978 86.978 0 0 1 13.719-17.812 87.157 87.157 0 0 1 17.816-13.723l64.363-37.492c5.766-3.36 12.227 3.101 8.868 8.867l-37.493 64.363a87.157 87.157 0 0 1-13.722 17.817zm0 0" fill="#e3f4ff"/><path d="M243.305 216.266l-39.832-39.832a87.157 87.157 0 0 1 17.816-13.723l64.363-37.492c5.766-3.36 12.227 3.101 8.868 8.867l-37.493 64.363a87.157 87.157 0 0 1-13.722 17.817zm0 0" fill="#fc3e81"/><path d="M7.5 183.172a7.5 7.5 0 0 0 7.5-7.5V120.48l87.848-.18c9.59-.034 17.418-7.866 17.453-17.464L120.48 15h28.511c4.14 0 7.5-3.36 7.5-7.5s-3.36-7.5-7.5-7.5h-31.808c-4.676 0-9.07 1.82-12.375 5.125l-99.68 99.68A17.38 17.38 0 0 0 0 117.18v58.488a7.503 7.503 0 0 0 7.5 7.504zm97.96-157.484l-.16 77.105a2.518 2.518 0 0 1-2.495 2.508l-77.114.16zm0 0"/><path d="M349.14 0H181.653a7.5 7.5 0 1 0 0 15h167.489c1.379 0 2.5 1.121 2.5 2.5v477c0 1.379-1.121 2.5-2.5 2.5H17.5a2.502 2.502 0 0 1-2.5-2.5V208.328a7.5 7.5 0 1 0-15 0V494.5c0 9.648 7.852 17.5 17.5 17.5h331.64c9.65 0 17.5-7.852 17.5-17.5v-477c0-9.648-7.85-17.5-17.5-17.5zm0 0"/><path d="M294.063 61.5a7.5 7.5 0 1 0 0-15h-.079c-4.14 0-7.46 3.36-7.46 7.5s3.398 7.5 7.538 7.5zm0 0M314.305 46.5h-.078c-4.145 0-7.461 3.36-7.461 7.5s3.394 7.5 7.539 7.5c4.14 0 7.5-3.36 7.5-7.5s-3.36-7.5-7.5-7.5zm0 0M267.258 61.5a7.5 7.5 0 1 0 0-15h-39c-4.14 0-7.5 3.36-7.5 7.5s3.36 7.5 7.5 7.5zm0 0M53.32 203.52h42.04a7.5 7.5 0 1 0 0-15H53.32c-4.14 0-7.5 3.359-7.5 7.5s3.36 7.5 7.5 7.5zm0 0M53.32 224.52h42.04a7.5 7.5 0 1 0 0-15H53.32c-4.14 0-7.5 3.359-7.5 7.5s3.36 7.5 7.5 7.5zm0 0M53.32 245.52h42.04a7.5 7.5 0 1 0 0-15H53.32c-4.14 0-7.5 3.359-7.5 7.5s3.36 7.5 7.5 7.5zm0 0M53.32 266.52h42.04a7.5 7.5 0 1 0 0-15H53.32c-4.14 0-7.5 3.359-7.5 7.5s3.36 7.5 7.5 7.5zm0 0M41.582 342a7.5 7.5 0 0 0 7.5 7.5h15.176c4.14 0 7.5-3.36 7.5-7.5s-3.36-7.5-7.5-7.5H49.082a7.5 7.5 0 0 0-7.5 7.5zm0 0M317.563 334.5H88.27c-4.141 0-7.5 3.36-7.5 7.5s3.359 7.5 7.5 7.5h229.293c4.14 0 7.5-3.36 7.5-7.5s-3.36-7.5-7.5-7.5zm0 0M317.563 359.5H49.082a7.5 7.5 0 1 0 0 15h268.48c4.141 0 7.5-3.36 7.5-7.5s-3.359-7.5-7.5-7.5zm0 0M325.063 392c0-4.14-3.36-7.5-7.5-7.5H49.082a7.5 7.5 0 1 0 0 15h268.48c4.141 0 7.5-3.36 7.5-7.5zm0 0M53.36 176.5a7.5 7.5 0 1 0 0-15h-.079c-4.14 0-7.46 3.36-7.46 7.5s3.398 7.5 7.538 7.5zm0 0M175.82 450.332v13a7.5 7.5 0 1 0 15 0v-13a7.5 7.5 0 0 0-7.5-7.5 7.5 7.5 0 0 0-7.5 7.5zm0 0M204.059 449.332a7.5 7.5 0 1 0 0 15h14.406c4.14 0 7.5-3.36 7.5-7.5s-3.36-7.5-7.5-7.5zm0 0M148.176 449.332c-4.14 0-7.5 3.36-7.5 7.5s3.36 7.5 7.5 7.5h14.406a7.5 7.5 0 1 0 0-15zm0 0M129.957 196.348c0 19.964 6.188 38.91 17.883 54.945l-2.063 3.539c-3.246 5.57-2.363 12.375 2.196 16.934 2.726 2.726 6.254 4.136 9.843 4.136 2.414 0 4.852-.636 7.09-1.941l3.52-2.05c16.027 11.702 34.945 17.87 54.965 17.87 19.828 0 38.785-6.152 54.82-17.793a7.502 7.502 0 0 0-8.813-12.14c-13.457 9.77-29.367 14.933-46.007 14.933-14.536 0-28.371-3.87-40.547-11.27l46.426-27.05a95.097 95.097 0 0 0 34.234-34.23l27.043-46.422c7.394 12.183 11.273 26.027 11.273 40.539 0 14.8-4.16 29.23-12.035 41.726a7.503 7.503 0 0 0 2.352 10.344 7.475 7.475 0 0 0 3.988 1.156 7.501 7.501 0 0 0 6.355-3.504 93.16 93.16 0 0 0 14.34-49.722c0-19.993-6.175-38.918-17.875-54.95l2.059-3.53c3.242-5.571 2.363-12.376-2.195-16.938-4.559-4.559-11.364-5.438-16.938-2.196l-3.531 2.059c-16.035-11.695-34.965-17.875-54.95-17.875-51.519 0-93.433 41.91-93.433 93.43zm91.762 27.152l-61.055 35.574 35.57-61.058a79.913 79.913 0 0 1 7.493-10.72l28.714 28.712a79.704 79.704 0 0 1-10.722 7.492zm28.824-28.82a79.953 79.953 0 0 1-7.492 10.722l-28.715-28.714a79.953 79.953 0 0 1 10.723-7.493l61.054-35.57zm-27.152-76.762c14.507 0 28.351 3.879 40.535 11.273l-46.418 27.043a95.108 95.108 0 0 0-34.235 34.235l-27.039 46.41c-7.39-12.188-11.277-26.035-11.277-40.531 0-43.246 35.184-78.43 78.434-78.43zm0 0"/></svg>