<svg height="511pt" viewBox="1 -18 511.999 511" width="511pt" xmlns="http://www.w3.org/2000/svg"><path d="M471.66 145.922c0 18.332-4.281 35.672-11.91 51.05-18.809 37.989-57.98 64.11-103.25 64.11-63.602 0-115.16-51.559-115.16-115.16 0-40.04 20.441-75.309 51.45-95.938 18.241-12.152 40.151-19.222 63.71-19.222 63.602 0 115.16 51.562 115.16 115.16zm0 0" fill="#fedfc5"/><path d="M459.75 196.973c-18.809 37.988-57.98 64.109-103.25 64.109-63.602 0-115.16-51.559-115.16-115.16 0-40.04 20.441-75.309 51.45-95.938 4.16 9.34 5.53 19.418 3.948 29.387a52.858 52.858 0 0 1-6.957 19.063c12.188 7 23.438 15.77 33.328 26.12a113.794 113.794 0 0 1 29.243-3.792c49.578 0 91.847 31.87 107.398 76.21zm0 0" fill="#edb48a"/><path d="M445.371 152.762a19.08 19.08 0 0 1-3.723 11.351c-3.488 4.739-9.109 7.82-15.449 7.82-10.59 0-19.168-8.581-19.168-19.171a19.124 19.124 0 0 1 6.32-14.23 19.144 19.144 0 0 1 12.848-4.938c10.582 0 19.172 8.578 19.172 19.168zm0 0" fill="#64bdff"/><path d="M441.648 164.113c-3.488 4.739-9.109 7.82-15.449 7.82-10.59 0-19.168-8.581-19.168-19.171a19.124 19.124 0 0 1 6.32-14.23 114.442 114.442 0 0 1 28.297 25.581zm0 0" fill="#43a3f9"/><path d="M188.078 387.793s134.508-20.52 178.211 66.023c4.125 8.172 12.406 13.414 21.563 13.414 18.168 0 29.773-19.378 21.195-35.394L345 312.226H220zm0 0" fill="#f01054"/><path d="M453.477 246.05c.425-3.777.652-7.616.652-11.51 0-56.212-45.57-101.782-101.781-101.782a101.641 101.641 0 0 0-33.028 5.484c-24.965-29.078-61.992-47.5-103.324-47.5-57.66 0-106.95 35.848-126.793 86.477C43.043 183.602 7.5 223.207 7.5 271.12c0 52.36 42.445 94.809 94.809 94.809 6.933 0 13.687-.754 20.199-2.168 14.805 33.07 47.996 56.11 86.57 56.11 39.184 0 72.813-23.77 87.258-57.677 14.824 9.606 32.504 15.188 51.48 15.188 22.368 0 42.922-7.75 59.133-20.707a61.271 61.271 0 0 0 35.973 11.613c34.008 0 61.578-27.57 61.578-61.582 0-30.406-22.047-55.648-51.023-60.656zm0 0" fill="#fd82ac"/><path d="M504.492 305.719c.524 33.433-26.258 61.535-59.68 62.539-14.156.426-27.269-3.942-37.863-11.582-16.21 12.96-36.758 20.71-59.129 20.71-18.98 0-36.66-5.59-51.48-15.19-14.45 33.902-48.078 57.679-87.262 57.679-38.578 0-71.77-23.04-86.566-56.11a95.152 95.152 0 0 1-18.246 2.141c-50.653 1.035-93.586-38.48-96.594-89.054a96.214 96.214 0 0 1 1.015-20.817c7.223 45.203 46.391 79.75 93.622 79.75 4.441 0 8.812-.305 13.093-.902 4.137-.574 8.239 1.383 10.227 5.055 16.02 29.648 47.379 49.789 83.45 49.789 35.585 0 66.597-19.61 82.812-48.61 2.629-4.699 8.488-6.406 13.296-3.98 12.813 6.46 27.297 10.101 42.633 10.101 20.004 0 38.551-6.199 53.844-16.77 3.133-2.163 7.246-2.433 10.543-.527a61.26 61.26 0 0 0 30.711 8.207c28.812 0 53-19.78 59.723-46.507a61.394 61.394 0 0 1 1.851 14.078zm0 0" fill="#fd6096"/><path d="M284.89 77.5c-3.6 22.79-26.66 40.668-51.94 32.188-.571-.188-1.13-.391-1.7-.598-13.172-4.91-23.18-14.59-28.8-26.34-5.919-12.34-7-26.98-1.829-40.813 10.09-27.007 40.16-40.718 67.16-30.628.02 0 .04.011.047.02 2.871 1.07 4.563 4.038 4.094 7.07-1.652 10.59 2.84 22.968 8.566 33.73 4.492 8.43 5.692 17.219 4.403 25.371zm0 0" fill="#e29c6d"/><path d="M284.89 77.5c-3.6 22.79-26.66 40.668-51.94 32.188-.571-.188-1.13-.391-1.7-.598-13.172-4.91-23.18-14.59-28.8-26.34 11.109-11.59 26.75-18.8 44.07-18.8 14.539 0 27.878 5.07 38.37 13.55zm0 0" fill="#f9b200"/><path d="M230.195 110.191h28.383c5.2 0 9.527 3.98 9.965 9.157l12.59 149.144h-73.488l12.59-149.144a9.992 9.992 0 0 1 9.96-9.157zm0 0" fill="#bddff4"/><path d="M281.129 268.492h-17.54l-13.359-158.3h8.344c5.2 0 9.528 3.98 9.965 9.156zm0 0" fill="#9cc6db"/><path d="M159.867 299.004c0-39.27 37.223-71.102 83.133-71.102s83.133 31.832 83.133 71.102zm0 0" fill="#fd82ac"/><path d="M351.66 82.75c0 10.586-8.582 19.168-19.172 19.168-10.586 0-19.168-8.582-19.168-19.168 0-10.59 8.582-19.172 19.168-19.172 10.59 0 19.172 8.582 19.172 19.172zm0 0" fill="#f01054"/><path d="M418.367 94.223c0 10.59-8.582 19.172-19.172 19.172-10.586 0-19.172-8.582-19.172-19.172 0-10.586 8.586-19.172 19.172-19.172 10.59 0 19.172 8.586 19.172 19.172zm0 0" fill="#9be058"/><path d="M461.48 240.164a109.316 109.316 0 0 0-2.059-27.523c12.911-19.875 19.74-42.883 19.74-66.72 0-9.745-1.153-19.472-3.434-28.898a7.5 7.5 0 0 0-9.051-5.53 7.503 7.503 0 0 0-5.531 9.054c2 8.273 3.015 16.812 3.015 25.375 0 16.441-3.7 32.433-10.777 46.992a108.921 108.921 0 0 0-10.43-19.41 26.616 26.616 0 0 0 9.914-20.742c0-14.707-11.965-26.672-26.672-26.672-9.183 0-17.488 4.762-22.308 12.11-15.364-8.255-32.914-12.942-51.543-12.942-10.438 0-20.73 1.465-30.656 4.363a145.503 145.503 0 0 0-38.38-29.652 48.742 48.742 0 0 0 6.305-11.39c3.606-9.274 4.207-19.071 1.899-28.477C310.125 46 333.05 38.262 356.5 38.262c38.445 0 74.242 20.73 93.418 54.11a7.5 7.5 0 0 0 6.512 3.765c1.265 0 2.55-.325 3.726-1a7.499 7.499 0 0 0 2.77-10.239C441.082 46.878 400.3 23.262 356.5 23.262c-25.379 0-50.227 7.949-70.836 22.52-5.187-10.489-7.379-19.52-6.336-26.235 1.02-6.527-2.71-12.938-8.926-15.27-30.836-11.515-65.289 4.196-76.808 35.032-5.73 15.34-4.715 31.578 1.543 45.441a142.324 142.324 0 0 0-42.45 13.16 7.504 7.504 0 0 0 3.317 14.235c1.11 0 2.238-.25 3.305-.774 14.054-6.91 29.09-11.133 44.703-12.574a59.302 59.302 0 0 0 12.195 10.926 17.365 17.365 0 0 0-3.453 8.992l-9.242 109.508a94.195 94.195 0 0 0-14.535 7.64 7.5 7.5 0 0 0 8.125 12.61c13.277-8.555 29.148-13.075 45.894-13.075 19.574 0 38.149 6.286 52.3 17.692a7.473 7.473 0 0 0 4.704 1.66 7.497 7.497 0 0 0 4.71-13.336c-5.878-4.742-12.39-8.715-19.347-11.906l-4.554-53.996c10.78-13.637 24.918-24.055 41.058-30.215 9.79-3.344 20.043-5.04 30.477-5.04 51.988 0 94.281 42.294 94.281 94.282 0 3.457-.2 6.992-.586 10.504-2.871 18.105-11.293 34.98-24.36 48.812-2.843 3.008-2.706 7.758.301 10.602a7.466 7.466 0 0 0 5.153 2.047 7.48 7.48 0 0 0 5.449-2.348c13.273-14.05 22.418-30.851 26.73-48.988 22.215 7.004 37.684 27.64 37.684 51.539 0 29.82-24.258 54.082-54.078 54.082-11.41 0-22.332-3.527-31.582-10.195a7.491 7.491 0 0 0-9.066.222c-15.61 12.473-34.442 19.063-54.454 19.063-16.894 0-33.285-4.832-47.402-13.98a7.494 7.494 0 0 0-6.27-.876 7.49 7.49 0 0 0-4.707 4.23c-10.94 25.669-33.66 44.704-60.785 50.915-4.035.922-6.558 4.945-5.636 8.984a7.508 7.508 0 0 0 7.304 5.828c.555 0 1.118-.062 1.684-.19 17.875-4.095 34.117-12.946 47.191-25.25 38.809 9.476 65.856 28.858 80.399 57.655 5.46 10.817 16.289 17.532 28.258 17.532 11.195 0 21.312-5.73 27.062-15.336 5.75-9.602 6.027-21.227.742-31.098l-27.668-51.668a102.08 102.08 0 0 0 19.25-10.77c10.754 6.516 22.98 9.934 35.684 9.934 38.09 0 69.078-30.992 69.078-69.082 0-31.371-20.871-58.344-50.52-66.543zM235.605 102.691c-.09-.035-.18-.078-.273-.109a49.665 49.665 0 0 1-1.457-.516c-9.453-3.53-17.008-9.949-22.043-17.875 9.66-8.254 21.79-12.742 34.688-12.742 10.859 0 21.132 3.149 29.976 9.153-.254.851-.531 1.699-.86 2.543-3.519 9.05-10.898 16.324-19.741 19.457-.075.023-.145.058-.22.085h-20.07zm-27.96-58.132c8.527-22.817 33.824-34.579 56.75-26.504-1.387 10.535 1.796 23.18 9.472 37.601a34.411 34.411 0 0 1 3.035 7.903c-9.39-4.633-19.804-7.11-30.382-7.11-14.88 0-28.946 4.68-40.633 13.336a44.429 44.429 0 0 1 1.758-25.226zM243 220.402c-8.219 0-16.27.95-24.008 2.782l8.711-103.204a2.486 2.486 0 0 1 2.492-2.289h28.383a2.515 2.515 0 0 1 2.492 2.29l8.774 103.945A103.63 103.63 0 0 0 243 220.402zm36.09-65.28l-3.074-36.403a17.28 17.28 0 0 0-1.98-6.664c11.952 6.066 23.042 14.086 32.609 23.57a110.85 110.85 0 0 0-27.555 19.496zm137.48-8.942c2.13-3.094 5.692-5.09 9.625-5.09 6.438 0 11.672 5.238 11.672 11.672 0 3.508-1.554 6.742-4.14 8.922a110.333 110.333 0 0 0-17.157-15.504zm-14.132 289.195c2.769 5.176 2.625 11.273-.391 16.313-3.02 5.035-8.32 8.042-14.192 8.042-6.277 0-11.976-3.562-14.87-9.296-15.606-30.903-43.337-52.192-82.497-63.414a102.31 102.31 0 0 0 9.094-14.208c14.781 7.918 31.297 12.07 48.238 12.07 8.739 0 17.407-1.152 25.79-3.343zm0 0M198.563 411.734c-30.06-3.609-56.454-22.98-69.004-50.597-10.98-30.106-4.348-63.477 17.328-87.125a7.502 7.502 0 0 0-.465-10.598 7.498 7.498 0 0 0-10.598.461c-23.449 25.59-31.902 60.867-23.027 93.914-3.48.418-6.988.64-10.492.64-48.14 0-87.305-39.167-87.305-87.308 0-43.367 32.34-80.543 75.23-86.473a7.497 7.497 0 0 0 5.954-4.691c7.754-19.785 20.5-37.547 36.855-51.367a7.494 7.494 0 0 0 .887-10.567 7.499 7.499 0 0 0-10.57-.886c-17.141 14.484-30.731 32.86-39.497 53.343-22.566 4.122-43.187 15.79-58.453 33.168A102.202 102.202 0 0 0 0 271.121c0 56.41 45.895 102.305 102.309 102.305 5.336 0 10.675-.414 15.945-1.242 15.492 29.77 45.074 50.43 78.523 54.441a7.504 7.504 0 0 0 8.34-6.55 7.5 7.5 0 0 0-6.555-8.34zm0 0"/><path d="M250.5 316.402c0-4.144-3.355-7.5-7.5-7.5h-.078c-4.145 0-7.461 3.356-7.461 7.5 0 4.141 3.394 7.5 7.539 7.5s7.5-3.359 7.5-7.5zm0 0M267.54 330.305a7.5 7.5 0 0 0-7.5-7.5h-.08c-4.144 0-7.46 3.36-7.46 7.5 0 4.144 3.395 7.5 7.54 7.5 4.144 0 7.5-3.356 7.5-7.5zm0 0M216 335.805h-.078c-4.145 0-7.461 3.36-7.461 7.5 0 4.144 3.394 7.5 7.539 7.5s7.5-3.356 7.5-7.5a7.5 7.5 0 0 0-7.5-7.5zm0 0M453.563 343.902c4.14-.027 7.48-3.406 7.453-7.547a7.482 7.482 0 0 0-7.547-7.453h-.078c-4.141.024-7.438 3.403-7.414 7.547.027 4.125 3.418 7.453 7.539 7.453zm0 0M412.016 219.313a7.505 7.505 0 0 0 7.453-7.547c-.028-4.145-3.453-7.48-7.547-7.453h-.078c-4.145.023-7.442 3.402-7.414 7.546.023 4.125 3.418 7.453 7.539 7.453zm0 0M93.922 267.313h-.078c-4.145.023-7.442 3.402-7.414 7.546.023 4.125 3.418 7.454 7.539 7.454h.047a7.5 7.5 0 1 0-.047-15h-.047zm0 0M166.781 164.605a7.5 7.5 0 0 0 7.453-7.546 7.499 7.499 0 0 0-7.496-7.454h-.129c-4.14.024-7.437 3.407-7.414 7.547.028 4.125 3.418 7.453 7.54 7.453zm0 0M332.488 56.078c-14.707 0-26.672 11.965-26.672 26.668 0 14.707 11.965 26.672 26.672 26.672s26.672-11.965 26.672-26.672c0-14.703-11.965-26.668-26.672-26.668zm0 38.34c-6.433 0-11.672-5.234-11.672-11.672 0-6.433 5.239-11.668 11.672-11.668 6.438 0 11.672 5.234 11.672 11.668 0 6.438-5.234 11.672-11.672 11.672zm0 0M372.523 94.223c0 14.707 11.965 26.672 26.672 26.672s26.672-11.965 26.672-26.672-11.965-26.672-26.672-26.672-26.672 11.965-26.672 26.672zm38.344 0c0 6.437-5.234 11.672-11.672 11.672-6.433 0-11.672-5.235-11.672-11.672s5.239-11.672 11.672-11.672c6.438 0 11.672 5.234 11.672 11.672zm0 0"/></svg>