<svg xmlns="http://www.w3.org/2000/svg" viewBox="0 0 460 460"><path d="M427.964 422.803l-130.602-247.74V73.39c16.238-4.013 28.279-18.671 28.279-36.148C325.642 16.673 308.969 0 288.401 0H171.599c-20.568 0-37.241 16.673-37.241 37.241 0 17.477 12.042 32.136 28.279 36.148v101.674L32.036 422.803C23.13 439.696 35.379 460 54.475 460h351.05c19.096 0 31.345-20.304 22.439-37.197z" fill="#d8d9dd"/><path d="M97.4 390.018l90.896-172.422h83.408L362.6 390.018c6.572 12.466-2.467 27.449-16.559 27.449H113.96c-14.092 0-23.131-14.983-16.56-27.449z" fill="#abcb57"/><circle cx="230" cy="296.599" r="26.398" fill="#fff"/><circle cx="178.432" cy="369.26" r="12.623" fill="#fff"/><circle cx="293.219" cy="360.294" r="17.167" fill="#fff"/><path opacity=".3" fill="#5b5b5f" d="M162.637 73.39h134.725v20H162.637z"/><path d="M230 0h58.401c20.568 0 37.241 16.673 37.241 37.241 0 17.477-12.042 32.136-28.279 36.148v101.674l130.602 247.74c8.905 16.893-3.343 37.197-22.44 37.197H230V0z" opacity=".3" fill="#5b5b5f"/></svg>