<svg height="512pt" viewBox="-73 0 512 512" width="512pt" xmlns="http://www.w3.org/2000/svg"><path d="M359.14 17.5v477c0 5.52-4.48 10-10 10H17.5c-5.52 0-10-4.48-10-10V117.18c0-1.461.32-2.89.93-4.192a9.832 9.832 0 0 1 2-2.879l99.68-99.68c.84-.84 1.82-1.519 2.882-2.007a9.97 9.97 0 0 1 4.188-.922h231.96c5.52 0 10 4.48 10 10zm0 0" fill="#e3f4ff"/><path d="M359.14 17.5v477c0 5.52-4.48 10-10 10h-21.878c5.52 0 10-4.48 10-10v-477c0-5.52-4.48-10-10-10h21.879c5.52 0 10 4.48 10 10zm0 0" fill="#bddff4"/><path d="M112.992 8.422l-.191 94.398c-.02 5.5-4.48 9.961-9.98 9.98l-94.391.188a9.832 9.832 0 0 1 2-2.879l99.68-99.68c.84-.84 1.82-1.519 2.882-2.007zm0 0" fill="#f9b200"/><path d="M322.758 204.406c0 52.188-42.309 94.5-94.5 94.5-26.098 0-49.719-10.582-66.82-27.68-17.098-17.101-27.68-40.722-27.68-66.82 0-52.191 42.312-94.5 94.5-94.5 52.191 0 94.5 42.309 94.5 94.5zm0 0" fill="#fd6096"/><path d="M322.758 204.406h-94.5v-94.5c52.191 0 94.5 42.309 94.5 94.5zm0 0" fill="#f9b200"/><path d="M322.758 204.406c0 52.188-42.309 94.5-94.5 94.5-26.098 0-49.719-10.582-66.82-27.68l66.82-66.82zm0 0" fill="#9be058"/><path d="M349.14 0H117.185c-4.676 0-9.07 1.82-12.375 5.125L5.125 104.809A17.385 17.385 0 0 0 0 117.184V494.5c0 9.648 7.852 17.5 17.5 17.5h331.64c9.65 0 17.5-7.852 17.5-17.5v-43.172a7.5 7.5 0 1 0-15 0V494.5c0 1.379-1.12 2.5-2.5 2.5H17.5a2.502 2.502 0 0 1-2.5-2.5V120.48l87.848-.18c9.59-.034 17.418-7.866 17.453-17.464L120.48 15h228.66c1.379 0 2.5 1.121 2.5 2.5v83.172c0 4.14 3.359 7.5 7.5 7.5s7.5-3.36 7.5-7.5V17.5c0-9.648-7.852-17.5-17.5-17.5zM102.806 105.3l-77.118.16 79.774-79.772-.16 77.105a2.518 2.518 0 0 1-2.496 2.508zm0 0"/><path d="M359.14 125.828c-4.14 0-7.5 3.36-7.5 7.5v31.344c0 4.14 3.36 7.5 7.5 7.5s7.5-3.36 7.5-7.5v-31.344c0-4.14-3.359-7.5-7.5-7.5zm0 0M359.14 189.828c-4.14 0-7.5 3.36-7.5 7.5v221.344c0 4.14 3.36 7.5 7.5 7.5s7.5-3.36 7.5-7.5V197.328c0-4.14-3.359-7.5-7.5-7.5zm0 0M228.258 102.406c-56.242 0-102 45.754-102 102 0 27.242 10.61 52.856 29.879 72.121 19.265 19.27 44.879 29.88 72.12 29.88 56.247 0 102-45.759 102-102 0-56.247-45.753-102-102-102zm86.676 94.5h-79.176V117.73c42.004 3.606 75.57 37.176 79.176 79.176zm-94.176-79.176v83.57l-59.078 59.083c-13.207-15.656-20.422-35.262-20.422-55.977 0-45.445 35.027-82.86 79.5-86.676zm7.5 173.676c-20.719 0-40.317-7.21-55.973-20.418l59.078-59.082h83.57c-3.816 44.473-41.23 79.5-86.675 79.5zm0 0M301.563 54c0-4.14-3.36-7.5-7.5-7.5h-.079c-4.14 0-7.46 3.36-7.46 7.5s3.398 7.5 7.538 7.5 7.5-3.36 7.5-7.5zm0 0M321.805 54c0-4.14-3.36-7.5-7.5-7.5h-.078c-4.145 0-7.461 3.36-7.461 7.5s3.394 7.5 7.539 7.5c4.14 0 7.5-3.36 7.5-7.5zm0 0M267.258 61.5a7.5 7.5 0 1 0 0-15h-39c-4.14 0-7.5 3.36-7.5 7.5s3.36 7.5 7.5 7.5zm0 0M53.32 203.52h42.04a7.5 7.5 0 1 0 0-15H53.32c-4.14 0-7.5 3.359-7.5 7.5s3.36 7.5 7.5 7.5zm0 0M53.32 224.52h42.04a7.5 7.5 0 1 0 0-15H53.32c-4.14 0-7.5 3.359-7.5 7.5s3.36 7.5 7.5 7.5zm0 0M53.32 245.52h42.04a7.5 7.5 0 1 0 0-15H53.32c-4.14 0-7.5 3.359-7.5 7.5s3.36 7.5 7.5 7.5zm0 0M53.32 266.52h42.04a7.5 7.5 0 1 0 0-15H53.32c-4.14 0-7.5 3.359-7.5 7.5s3.36 7.5 7.5 7.5zm0 0M41.582 342a7.5 7.5 0 0 0 7.5 7.5h15.176c4.14 0 7.5-3.36 7.5-7.5s-3.36-7.5-7.5-7.5H49.082a7.5 7.5 0 0 0-7.5 7.5zm0 0M317.563 334.5H88.27c-4.141 0-7.5 3.36-7.5 7.5s3.359 7.5 7.5 7.5h229.293c4.14 0 7.5-3.36 7.5-7.5s-3.36-7.5-7.5-7.5zm0 0M317.563 359.5H49.082a7.5 7.5 0 1 0 0 15h268.48c4.141 0 7.5-3.36 7.5-7.5s-3.359-7.5-7.5-7.5zm0 0M325.063 392c0-4.14-3.36-7.5-7.5-7.5H49.082a7.5 7.5 0 1 0 0 15h268.48c4.141 0 7.5-3.36 7.5-7.5zm0 0M53.36 176.5a7.5 7.5 0 1 0 0-15h-.079c-4.14 0-7.46 3.36-7.46 7.5s3.398 7.5 7.538 7.5zm0 0M175.82 450.332v13a7.5 7.5 0 1 0 15 0v-13a7.5 7.5 0 0 0-7.5-7.5 7.5 7.5 0 0 0-7.5 7.5zm0 0M204.059 449.332c-4.141 0-7.5 3.36-7.5 7.5s3.359 7.5 7.5 7.5h14.406c4.14 0 7.5-3.36 7.5-7.5s-3.36-7.5-7.5-7.5zm0 0M148.176 449.332c-4.14 0-7.5 3.36-7.5 7.5s3.36 7.5 7.5 7.5h14.406c4.14 0 7.5-3.36 7.5-7.5s-3.36-7.5-7.5-7.5zm0 0"/></svg>