<svg height="512pt" viewBox="-8 0 511 512" width="512pt" xmlns="http://www.w3.org/2000/svg"><path d="M224.719 21.004h49.523v471H224.72zm0 0" fill="#64bdff"/><path d="M19.75 90.785h459.46v85H19.75zm0 0" fill="#64bdff"/><path d="M76.93 101.703l-.008 63.164c0 6.031 4.887 10.918 10.918 10.918h27.687c6.032 0 10.918-4.887 10.918-10.918v-20.812h98.274v246.734h-70.172c-6.027 0-10.918 4.89-10.918 10.918v27.691c0 6.028 4.89 10.918 10.918 10.918h189.867c6.027 0 10.914-4.89 10.914-10.918v-27.691c0-6.027-4.887-10.918-10.914-10.918h-70.172V144.055h98.262v20.812c0 6.031 4.89 10.918 10.918 10.918h27.691c6.028 0 10.918-4.887 10.918-10.918v-63.164c0-6.027-4.89-10.918-10.918-10.918H87.843c-6.027 0-10.913 4.887-10.913 10.918zm0 0" fill="#fd6096"/><path d="M69.422 252.773a7.5 7.5 0 1 0 15 0v-2a7.5 7.5 0 1 0-15 0zm0 0M76.922 206.273c4.14 0 7.5-3.359 7.5-7.5v-2a7.5 7.5 0 1 0-15 0v2a7.5 7.5 0 0 0 7.5 7.5zm0 0M84.422 304.773a7.5 7.5 0 1 0-15 0v2a7.5 7.5 0 1 0 15 0zm0 0M69.422 225.773a7.5 7.5 0 1 0 15 0v-2a7.5 7.5 0 1 0-15 0zm0 0M69.422 279.773a7.5 7.5 0 1 0 15 0v-2a7.5 7.5 0 1 0-15 0zm0 0M76.922 45.008c4.14 0 7.5-3.36 7.5-7.5v-2a7.5 7.5 0 1 0-15 0v2a7.5 7.5 0 0 0 7.5 7.5zm0 0M76.922 72.008c4.14 0 7.5-3.36 7.5-7.5v-2a7.5 7.5 0 1 0-15 0v2a7.5 7.5 0 0 0 7.5 7.5zm0 0M76.922 18.008c4.14 0 7.5-3.36 7.5-7.5v-2a7.5 7.5 0 1 0-15 0v2a7.5 7.5 0 0 0 7.5 7.5zm0 0M126.445 243.273c-4.14 0-7.5 3.36-7.5 7.5v2a7.5 7.5 0 1 0 15 0v-2a7.5 7.5 0 0 0-7.5-7.5zm0 0M126.445 189.273c-4.14 0-7.5 3.36-7.5 7.5v2a7.5 7.5 0 1 0 15 0v-2a7.5 7.5 0 0 0-7.5-7.5zm0 0M126.445 216.273c-4.14 0-7.5 3.36-7.5 7.5v2a7.5 7.5 0 1 0 15 0v-2a7.5 7.5 0 0 0-7.5-7.5zm0 0M126.445 45.008a7.5 7.5 0 0 0 7.5-7.5v-2a7.5 7.5 0 1 0-15 0v2c0 4.14 3.36 7.5 7.5 7.5zm0 0M126.445 18.008a7.5 7.5 0 0 0 7.5-7.5v-2a7.5 7.5 0 1 0-15 0v2c0 4.14 3.36 7.5 7.5 7.5zm0 0M126.445 72.008a7.5 7.5 0 0 0 7.5-7.5v-2a7.5 7.5 0 1 0-15 0v2c0 4.14 3.36 7.5 7.5 7.5zm0 0M414.531 252.773c0 4.141 3.36 7.5 7.5 7.5s7.5-3.359 7.5-7.5v-2c0-4.14-3.36-7.5-7.5-7.5s-7.5 3.36-7.5 7.5zm0 0M422.031 206.273c4.14 0 7.5-3.359 7.5-7.5v-2c0-4.14-3.36-7.5-7.5-7.5s-7.5 3.36-7.5 7.5v2c0 4.141 3.36 7.5 7.5 7.5zm0 0M414.531 225.773c0 4.141 3.36 7.5 7.5 7.5s7.5-3.359 7.5-7.5v-2c0-4.14-3.36-7.5-7.5-7.5s-7.5 3.36-7.5 7.5zm0 0M414.531 279.773c0 4.141 3.36 7.5 7.5 7.5s7.5-3.359 7.5-7.5v-2c0-4.14-3.36-7.5-7.5-7.5s-7.5 3.36-7.5 7.5zm0 0M429.531 306.773v-2c0-4.14-3.36-7.5-7.5-7.5s-7.5 3.36-7.5 7.5v2c0 4.141 3.36 7.5 7.5 7.5s7.5-3.359 7.5-7.5zm0 0M422.031 45.008c4.14 0 7.5-3.36 7.5-7.5v-2c0-4.14-3.36-7.5-7.5-7.5s-7.5 3.36-7.5 7.5v2c0 4.14 3.36 7.5 7.5 7.5zm0 0M422.031 18.008c4.14 0 7.5-3.36 7.5-7.5v-2c0-4.14-3.36-7.5-7.5-7.5s-7.5 3.36-7.5 7.5v2c0 4.14 3.36 7.5 7.5 7.5zm0 0M422.031 72.008c4.14 0 7.5-3.36 7.5-7.5v-2c0-4.14-3.36-7.5-7.5-7.5s-7.5 3.36-7.5 7.5v2c0 4.14 3.36 7.5 7.5 7.5zm0 0M365.008 225.773a7.5 7.5 0 1 0 15 0v-2a7.5 7.5 0 1 0-15 0zm0 0M372.508 206.273c4.14 0 7.5-3.359 7.5-7.5v-2a7.5 7.5 0 1 0-15 0v2a7.5 7.5 0 0 0 7.5 7.5zm0 0M380.008 252.773v-2a7.5 7.5 0 1 0-15 0v2a7.5 7.5 0 1 0 15 0zm0 0M372.508 18.008c4.14 0 7.5-3.36 7.5-7.5v-2a7.5 7.5 0 1 0-15 0v2a7.5 7.5 0 0 0 7.5 7.5zm0 0M372.508 72.008c4.14 0 7.5-3.36 7.5-7.5v-2a7.5 7.5 0 1 0-15 0v2a7.5 7.5 0 0 0 7.5 7.5zm0 0M372.508 45.008c4.14 0 7.5-3.36 7.5-7.5v-2a7.5 7.5 0 1 0-15 0v2a7.5 7.5 0 0 0 7.5 7.5zm0 0M404.313 398.29h2a7.5 7.5 0 1 0 0-15h-2c-4.141 0-7.5 3.358-7.5 7.5a7.5 7.5 0 0 0 7.5 7.5zm0 0M431.313 398.29h2a7.5 7.5 0 1 0 0-15h-2c-4.141 0-7.5 3.358-7.5 7.5a7.5 7.5 0 0 0 7.5 7.5zm0 0M458.313 398.29h2a7.5 7.5 0 1 0 0-15h-2c-4.141 0-7.5 3.358-7.5 7.5a7.5 7.5 0 0 0 7.5 7.5zm0 0M377.313 398.29h2a7.5 7.5 0 1 0 0-15h-2c-4.141 0-7.5 3.358-7.5 7.5a7.5 7.5 0 0 0 7.5 7.5zm0 0M380.695 432.816h-2a7.5 7.5 0 1 0 0 15h2a7.5 7.5 0 0 0 7.5-7.5c0-4.144-3.355-7.5-7.5-7.5zm0 0M407.695 432.816h-2a7.5 7.5 0 1 0 0 15h2a7.5 7.5 0 0 0 7.5-7.5c0-4.144-3.355-7.5-7.5-7.5zm0 0M434.695 432.816h-2a7.5 7.5 0 1 0 0 15h2a7.5 7.5 0 0 0 7.5-7.5c0-4.144-3.355-7.5-7.5-7.5zm0 0M488.695 432.816h-2a7.5 7.5 0 1 0 0 15h2a7.5 7.5 0 0 0 7.5-7.5c0-4.144-3.355-7.5-7.5-7.5zm0 0M461.695 432.816h-2a7.5 7.5 0 1 0 0 15h2a7.5 7.5 0 0 0 7.5-7.5c0-4.144-3.355-7.5-7.5-7.5zm0 0M121.64 383.29h-2a7.5 7.5 0 0 0-7.5 7.5c0 4.144 3.356 7.5 7.5 7.5h2a7.5 7.5 0 1 0 0-15zm0 0M67.64 383.29h-2a7.5 7.5 0 0 0-7.5 7.5c0 4.144 3.356 7.5 7.5 7.5h2a7.5 7.5 0 1 0 0-15zm0 0M94.64 383.29h-2a7.5 7.5 0 0 0-7.5 7.5c0 4.144 3.356 7.5 7.5 7.5h2a7.5 7.5 0 1 0 0-15zm0 0M40.64 383.29h-2a7.5 7.5 0 0 0-7.5 7.5c0 4.144 3.356 7.5 7.5 7.5h2a7.5 7.5 0 1 0 0-15zm0 0M66.254 432.816h-2a7.5 7.5 0 1 0 0 15h2a7.5 7.5 0 0 0 7.5-7.5c0-4.144-3.356-7.5-7.5-7.5zm0 0M120.254 432.816h-2a7.5 7.5 0 1 0 0 15h2a7.5 7.5 0 0 0 7.5-7.5c0-4.144-3.356-7.5-7.5-7.5zm0 0M93.254 432.816h-2a7.5 7.5 0 1 0 0 15h2a7.5 7.5 0 0 0 7.5-7.5c0-4.144-3.356-7.5-7.5-7.5zm0 0M39.254 432.816h-2a7.5 7.5 0 1 0 0 15h2a7.5 7.5 0 0 0 7.5-7.5c0-4.144-3.356-7.5-7.5-7.5zm0 0M12.254 432.816h-2a7.5 7.5 0 1 0 0 15h2a7.5 7.5 0 0 0 7.5-7.5c0-4.144-3.356-7.5-7.5-7.5zm0 0"/><path d="M488.7 168.285h-59.5c.21-1.11.331-2.246.331-3.418v-63.164a18.27 18.27 0 0 0-.332-3.418h59.5c4.145 0 7.5-3.355 7.5-7.5a7.5 7.5 0 0 0-7.5-7.5H281.742V7.5a7.5 7.5 0 1 0-15 0v75.785H232.22V7.5a7.5 7.5 0 1 0-15 0v75.785H10.258a7.5 7.5 0 1 0 0 15h59.5a18.562 18.562 0 0 0-.328 3.414l-.008 63.168c0 1.16.113 2.301.32 3.418H8a7.5 7.5 0 1 0 0 15h209.219V383.29h-14.54a7.5 7.5 0 1 0 0 15h14.54v34.527h-62.672a3.424 3.424 0 0 1-3.418-3.418v-27.691a3.424 3.424 0 0 1 3.418-3.418h15.473a7.5 7.5 0 1 0 0-15h-15.473c-10.156 0-18.418 8.262-18.418 18.418v27.691c0 10.157 8.262 18.418 18.418 18.418h62.672V504.5a7.5 7.5 0 1 0 15 0v-56.684h34.523V504.5a7.5 7.5 0 1 0 15 0v-56.684h62.672c10.156 0 18.418-8.261 18.418-18.418v-27.691c0-10.156-8.262-18.418-18.418-18.418h-62.672V290a7.5 7.5 0 1 0-15 0v142.813H232.22V183.285h34.523V256a7.5 7.5 0 1 0 15 0v-72.715H488.7c4.145 0 7.5-3.355 7.5-7.5a7.5 7.5 0 0 0-7.5-7.5zM281.741 398.29h62.672a3.424 3.424 0 0 1 3.418 3.418v27.691a3.424 3.424 0 0 1-3.418 3.418h-62.672zM87.84 168.285c-1.235 0-2.043-.625-2.418-1s-1-1.183-1-2.418l.008-63.164a3.42 3.42 0 0 1 3.414-3.418h129.375v38.27h-90.774c-4.14 0-7.5 3.36-7.5 7.5v20.812a3.422 3.422 0 0 1-3.418 3.418zm45.773 0c.211-1.11.332-2.246.332-3.418v-13.312h83.274v16.73zm98.606 0v-70h34.523v70zm151.203 0a3.418 3.418 0 0 1-3.414-3.418v-20.812c0-4.14-3.36-7.5-7.5-7.5H332.68c-4.14 0-7.5 3.36-7.5 7.5 0 4.14 3.36 7.5 7.5 7.5h32.328v13.312c0 1.172.12 2.309.328 3.418h-83.594v-16.73h18.278c4.14 0 7.5-3.36 7.5-7.5 0-4.14-3.36-7.5-7.5-7.5h-18.278v-38.27h129.371a3.424 3.424 0 0 1 3.418 3.418v63.164a3.422 3.422 0 0 1-3.418 3.418zm0 0"/></svg>