<svg xmlns="http://www.w3.org/2000/svg" viewBox="0 0 398.87 398.87"><path d="M354.204 196.999c8.246-1.903 14.4-9.276 14.4-18.101v-1.859c0-10.269-8.324-18.593-18.593-18.593h-50.666c-10.269 0-18.593 8.324-18.593 18.593v1.859c0 8.824 6.154 16.197 14.4 18.101H25.056v36.706h350.521v-36.706h-21.373z" fill="#f7f1e6"/><path d="M387.224 58.13H232.955c-6.433 0-11.647 5.215-11.647 11.646 0 .084.011.165.013.248-.004.083-.013.164-.013.248v44.298h11.156V81.399c.164.007.325.024.491.024h142.622V233.705H25.056V128.27c0-6.919-5.609-12.528-12.528-12.528S0 121.351 0 128.27V328.213c0 6.919 5.609 12.528 12.528 12.528s12.528-5.609 12.528-12.528V259.06h350.521v70.035c0 6.432 5.215 11.646 11.646 11.646 6.433 0 11.647-5.215 11.647-11.646V69.774c.001-6.429-5.214-11.644-11.646-11.644z" fill="#2b3237"/><path d="M218.31 114.569c-7.273 0-13.17 5.897-13.17 13.171 0 7.272 5.896 13.169 13.17 13.169h15.495c7.273 0 13.17-5.896 13.17-13.169 0-7.273-5.896-13.171-13.17-13.171H218.31z" fill="#e6a123"/><path d="M97.125 120.424h17.889v17.89c0 6.225 5.047 11.271 11.271 11.271h7.535c6.226 0 11.269-5.046 11.269-11.271v-17.89h17.891c6.224 0 11.268-5.044 11.268-11.267v-7.539c0-6.222-5.044-11.267-11.268-11.267h-17.891v-17.89c0-6.224-5.043-11.269-11.269-11.269h-7.535c-6.224 0-11.271 5.045-11.271 11.269V90.35H97.125c-6.221 0-11.267 5.045-11.267 11.267v7.539c0 6.224 5.046 11.268 11.267 11.268z" fill="#d43d21"/></svg>