<svg xmlns="http://www.w3.org/2000/svg" viewBox="0 0 423.927 423.927"><path d="M261.818 263.927l4.354 4.316s.229 2.226.561 5.619c7.08 2.158 14.628 4.954 22.817 8.581-1.367-3.558-3.159-6.646-5.492-8.864-6.612-6.284-9.336-7.599-22.24-9.652z" fill="none"/><path d="M188.132 310.454c.216.169.429.343.641.517l-8.486-19.635a800.33 800.33 0 0 1-6.919 4.995c8.585 3.994 13.956 10.358 14.764 14.123zM157.314 292.148c.551-6.725 1.252-14.088 1.719-18.841-1.112.325-2.234.665-3.371 1.022.15 1.761.52 3.967.799 6.731.316 3.124.686 6.82.853 11.088z" fill="#f7f1e6"/><path d="M313.131 294.255a318.36 318.36 0 0 0-15.322-7.973c2.359 8.463 3.39 17.434 3.241 23.726l-.005.252c11.367 3.372 19.663 13.89 19.663 26.352 0 15.181-12.308 27.489-27.488 27.489-15.182 0-27.489-12.308-27.489-27.489s12.307-27.488 27.489-27.488c.048 0 .095.003.144.003.138-8.399-.755-18.725-3.813-26.685-8.189-3.626-15.737-6.422-22.817-8.581.502 5.127 1.241 12.925 1.786 19.779.906 11.388-9.044 7.409-13.788 4.345-.675-.436-2.231-1.535-4.346-3.056l-35.662 76.087-12.958-29.985a5.996 5.996 0 0 1-1.13 1.336c.078 1.209.122 2.43.122 3.663 0 9.967-2.527 19.415-7.12 26.596-2.668 4.175-5.948 7.369-9.642 9.484.022.22.036.442.036.668 0 3.403-2.617 6.162-5.843 6.162s-8.76-2.758-8.76-6.162c0-3.405 5.535-6.161 8.76-6.161 1.16 0 2.238.361 3.146.975 9.385-5.163 14.369-18.678 14.369-31.563 0-.813-.026-1.617-.063-2.418-2.263-.56-4.073-2.537-4.397-5.113-2.028-16.186-14.688-25.385-34.699-25.238h-.042c-.037 0-.066-.005-.101-.005-18.427.68-30.036 9.757-31.969 25.192-.322 2.575-2.132 4.553-4.394 5.113-.037.8-.063 1.604-.063 2.415 0 12.886 4.982 26.4 14.364 31.563a5.598 5.598 0 0 1 3.148-.977c3.227 0 8.764 2.759 8.764 6.164 0 3.401-5.537 6.162-8.764 6.162-3.226 0-5.844-2.76-5.844-6.162 0-.227.014-.45.036-.671-3.693-2.115-6.973-5.307-9.642-9.481-4.592-7.184-7.119-16.63-7.119-26.599 0-1.232.044-2.453.122-3.662-1.465-1.29-2.294-3.314-2.026-5.455 1.268-10.114 5.692-18.762 12.798-25.026a1.554 1.554 0 0 1-.065-.453c0-4.587 9.212-15.151 23.9-17.96-.134-4.4-.508-8.183-.851-11.589-.181-1.792-.348-3.458-.456-5.018-11.141 4.031-23.468 9.641-37.542 17.441-19.255 10.67-45.178 16.651-45.178 45.157v58.782c0 14.734 15.037 25.736 36.226 25.736h220.234c21.189 0 36.226-11.002 36.226-25.736v-58.782c.001-28.503-25.922-34.484-45.176-45.154z" fill="#f7f1e6"/><path d="M212.879 267.387l-.048.001-.058.043c-1.24.918-20.425 15.122-32.486 23.904l8.486 19.635c.339.277.679.553 1.009.842 7.154 6.267 11.609 14.944 12.879 25.097a6.315 6.315 0 0 1-.896 4.122l12.958 29.985 35.662-76.087c-10.701-7.697-36.015-26.438-37.446-27.498a1.415 1.415 0 0 1-.06-.044z" fill="#fff"/><path d="M212.773 267.321l.083.049.083-.049 32.577-19.555.101.1v-16.29c-10.089 5.96-21.166 9.428-32.76 9.428s-22.67-3.468-32.76-9.428v16.29l.1-.099 32.576 19.554zM212.856 267.37l-.025.019.048-.001-.023-.018z" fill="#dec8ae"/><path d="M245.616 231.575c23.996-14.176 42.407-42.454 48.939-71.723-1.467-3.202-3.114-8.455-5.035-15.843-.341 2.068-.542 3.873-.496 5.24.332 9.802-7.609 20.528-7.706-.279-.081-17.971-30.323-60.127-32.219-61.256-9.815 7.938-35.355 22.716-54.778 27.16-3.291.753-8.848.32-4.907-3.005 3.395-2.865 5.096-6.628 6.323-10.43 1.402-4.344-16.948 11.295-30.439 18.374-3.428 1.798-10.574 4.881-5.24-1.475 3.228-3.846 3.512-6.568 3.723-9.579-19.181 10.49-18.852 24.792-18.823 41.129.023 14.266-7.715 18.574-8.624 5.982-1.07 5.008-2.395 8.193-3.786 9.573 7.512 27.231 25.084 52.86 47.548 66.131 10.089 5.96 21.165 9.428 32.76 9.428s22.671-3.467 32.76-9.427z" fill="#f3dbbd"/><path d="M284.057 273.578c2.333 2.218 4.125 5.307 5.492 8.864 3.058 7.959 3.951 18.286 3.813 26.685 2.668.014 5.245.411 7.682 1.133l.005-.252c.149-6.292-.881-15.263-3.241-23.726-2.561-9.186-6.687-17.773-12.586-21.684-11.313-7.499-24.517-7.208-31.029-8.23l7.625 7.559c12.904 2.053 15.628 3.368 22.239 9.651z" fill="#2b3237"/><path d="M136.334 155.87c.909 12.592 8.647 8.284 8.624-5.982-.028-16.336-.357-30.639 18.823-41.129-.211 3.011-.496 5.733-3.723 9.579-5.334 6.356 1.813 3.273 5.24 1.475 13.491-7.079 31.842-22.717 30.439-18.374-1.227 3.802-2.928 7.565-6.323 10.43-3.941 3.325 1.616 3.758 4.907 3.005 19.423-4.444 44.963-19.222 54.778-27.16 1.896 1.129 32.138 43.285 32.219 61.256.096 20.807 8.037 10.081 7.706.279-.046-1.367.155-3.172.496-5.24 1.921 7.388 3.567 12.641 5.035 15.843 3.613 7.885 6.135 3.267 8.954-13.014 1.69-9.76 1.391-34.624-7.786-57.143-4.94-12.122-12.155-23.875-21.677-33.621l-.68 2.283c-2.902 9.741-10.965 17.248-24.493 17.248H180.597c-13.528 0-21.591-7.507-24.493-17.248-.554-1.858-1.25-4.202-2.014-6.774-8.913 7.409-15.919 16.538-20.866 26.862-10.436 21.779-10.229 51.652-9.397 63.419 1.355 19.163 5.245 27.029 8.722 23.58 1.39-1.38 2.715-4.565 3.785-9.574z" fill="#664b3a"/><path d="M180.597 75.605h68.277c13.528 0 21.591-7.507 24.493-17.248l.68-2.283c3.163-10.633 9.037-30.462 9.037-30.462C286.982 14.007 280.512 0 266.986 0H162.485c-13.527 0-19.997 14.007-16.097 25.612 0 0 4.461 15.062 7.702 25.971.764 2.572 1.46 4.916 2.014 6.774 2.902 9.74 10.966 17.248 24.493 17.248zm19.95-44.283h7.709v-7.708a4.856 4.856 0 0 1 4.856-4.856H216.359a4.855 4.855 0 0 1 4.856 4.856v7.708h7.709a4.855 4.855 0 0 1 4.856 4.855v3.248a4.854 4.854 0 0 1-4.856 4.855h-7.709v7.708a4.855 4.855 0 0 1-4.856 4.857H213.112a4.857 4.857 0 0 1-4.856-4.857V44.28h-7.709a4.855 4.855 0 0 1-4.855-4.855v-3.248a4.855 4.855 0 0 1 4.855-4.855z" fill="#f7f1e6"/><path d="M195.691 39.426a4.855 4.855 0 0 0 4.855 4.855h7.709v7.708a4.857 4.857 0 0 0 4.856 4.857H216.358a4.856 4.856 0 0 0 4.856-4.857v-7.708h7.709a4.855 4.855 0 0 0 4.856-4.855v-3.248a4.855 4.855 0 0 0-4.856-4.855h-7.709v-7.708a4.855 4.855 0 0 0-4.856-4.856H213.111a4.855 4.855 0 0 0-4.856 4.856v7.708h-7.709a4.855 4.855 0 0 0-4.855 4.855v3.248z" fill="#e74424"/><path d="M293.219 308.873c-15.32 0-27.739 12.419-27.739 27.738s12.419 27.739 27.739 27.739c15.319 0 27.738-12.419 27.738-27.739 0-12.575-8.371-23.189-19.841-26.591a27.78 27.78 0 0 0-7.752-1.144c-.049.001-.097-.003-.145-.003zm22.73 27.739c0 12.555-10.176 22.733-22.73 22.733-12.557 0-22.733-10.178-22.733-22.733s10.176-22.733 22.733-22.733c12.554 0 22.73 10.178 22.73 22.733z" fill="#e0dcd3"/><path d="M270.524 336.612c0 12.534 10.159 22.695 22.695 22.695 12.533 0 22.692-10.161 22.692-22.695s-10.159-22.695-22.692-22.695c-12.536 0-22.695 10.161-22.695 22.695zm33.445 0c0 5.937-4.815 10.75-10.75 10.75-5.938 0-10.751-4.813-10.751-10.75 0-5.938 4.813-10.75 10.751-10.75 5.935-.001 10.75 4.812 10.75 10.75z" fill="#2b3237"/><circle cx="293.218" cy="336.612" r="10.754" fill="#1b2327"/><path d="M117.974 343.676a5.59 5.59 0 0 1-2.932-1.36 56.835 56.835 0 0 0-.122 3.662c0 9.969 2.527 19.415 7.119 26.599 2.668 4.174 5.948 7.366 9.642 9.481.195-1.898 1.209-3.535 2.659-4.517-9.382-5.164-14.364-18.678-14.364-31.563 0-.812.026-1.615.063-2.415a5.48 5.48 0 0 1-2.065.113zM195.64 343.612c.037.801.063 1.605.063 2.418 0 12.885-4.984 26.4-14.369 31.563 1.452.981 2.466 2.618 2.661 4.518 3.693-2.115 6.974-5.309 9.642-9.484 4.592-7.182 7.12-16.629 7.12-26.596a56.89 56.89 0 0 0-.122-3.663 5.586 5.586 0 0 1-2.927 1.358 5.473 5.473 0 0 1-2.068-.114z" fill="#2b3237"/><path d="M131.681 382.057a6.756 6.756 0 0 0-.036.671c0 3.401 2.618 6.162 5.844 6.162 3.227 0 8.764-2.76 8.764-6.162 0-3.405-5.537-6.164-8.764-6.164-1.16 0-2.239.361-3.148.977-1.451.981-2.465 2.617-2.66 4.516zM181.334 377.592a5.598 5.598 0 0 0-3.146-.975c-3.226 0-8.76 2.756-8.76 6.161 0 3.403 5.535 6.162 8.76 6.162 3.226 0 5.843-2.758 5.843-6.162 0-.226-.013-.449-.036-.668-.195-1.9-1.21-3.537-2.661-4.518z" fill="#e6a123"/><path d="M157.267 292.725c7.02 1.595 5.645.72 16.101 3.605a800.33 800.33 0 0 0 6.919-4.995c12.061-8.783 31.246-22.986 32.486-23.904l.058-.043.025-.019-.083-.049-32.677-19.657-20.556 20.58s-.204 1.984-.507 5.064a1241.436 1241.436 0 0 0-1.719 18.841l-.047.577zM212.939 267.321l-.083.049.023.017.06.044c1.431 1.059 26.745 19.8 37.446 27.498 2.115 1.521 3.671 2.62 4.346 3.056 4.744 3.064 14.694 7.043 13.788-4.345-.545-6.854-1.284-14.652-1.786-19.779-.332-3.393-.561-5.619-.561-5.619l-4.354-4.316-7.625-7.559-8.578-8.674-32.676 19.628z" fill="#e0dcd3"/><path d="M149.649 293.421a39.31 39.31 0 0 1 7.346-.703c.091 0 .18.005.271.006l.047-.577c-.167-4.269-.537-7.964-.852-11.087-.28-2.764-.649-4.97-.799-6.731-.154-1.805-.077-3.142.569-4.116.84-1.266.326-1.996 3.309-1.971 5.413-5.365 8.309-8.094 8.309-8.094-1.921.551-5.158.327-6.895.304-3.298-.018-7.392-.068-10.608 4.787-2.096 3.164-2.325 6.879-2.003 11.574.107 1.56.275 3.227.456 5.018.342 3.408.716 7.19.85 11.59z" fill="#2b3237"/><path d="M158.643 301.061c.188 0 .38 0 .572.002.38 0 .75.045 1.112.123 11.245.5 20.572 3.61 27.805 9.267-.808-3.765-6.178-10.128-14.764-14.124-3.894-1.573-10.769-3.636-16.101-3.605-.091-.001-.18-.006-.271-.006a39.143 39.143 0 0 0-7.346.703c-14.688 2.809-23.9 13.373-23.9 17.96 0 .164.023.314.065.453.028-.024.053-.05.081-.074 8.104-7.101 19.12-10.699 32.747-10.699z" fill="#c3bfb8"/><path d="M202.66 336.909c-1.27-10.152-5.725-18.83-12.879-25.097-.33-.289-.67-.564-1.009-.842a35.306 35.306 0 0 0-.641-.517c-7.233-5.657-16.56-8.767-27.805-9.267a5.248 5.248 0 0 0-1.112-.123c-.192-.002-.384-.002-.572-.002-13.626 0-24.643 3.598-32.748 10.699-.028.024-.053.05-.081.074-7.106 6.264-11.531 14.912-12.798 25.026-.268 2.141.562 4.165 2.026 5.455a5.593 5.593 0 0 0 2.932 1.36 5.42 5.42 0 0 0 2.065-.114c2.262-.561 4.072-2.539 4.394-5.113 1.933-15.436 13.542-24.513 31.969-25.192.035 0 .064.005.101.005h.042c20.011-.147 32.67 9.052 34.699 25.238.324 2.576 2.134 4.553 4.397 5.113a5.45 5.45 0 0 0 2.067.113 5.578 5.578 0 0 0 2.927-1.358 5.97 5.97 0 0 0 1.13-1.336 6.302 6.302 0 0 0 .896-4.122z" fill="#e0dcd3"/></svg>