<svg xmlns="http://www.w3.org/2000/svg" viewBox="0 0 395.704 395.704"><path d="M246.119 149.458V38.588c-1.85.558-3.808.864-5.839.864h-84.856a20.21 20.21 0 0 1-5.839-.864v110.87c-46.675 19.047-79.574 64.882-79.574 118.406 0 70.604 57.236 127.84 127.841 127.84s127.841-57.236 127.841-127.84c-.001-53.525-32.899-99.36-79.574-118.406zm-47.356 220.647c-54.401 0-98.95-42.05-102.997-95.415H301.76c-4.047 53.365-48.596 95.415-102.997 95.415z" fill="#f7f1e6"/><path d="M240.28 40.452c2.031 0 3.99-.307 5.839-.864 8.323-2.507 14.388-10.222 14.388-19.361C260.507 9.057 251.45 0 240.279 0h-84.856c-11.171 0-20.228 9.057-20.228 20.227 0 9.14 6.065 16.855 14.388 19.361 1.85.558 3.808.864 5.839.864h84.858z" fill="#e0dcd3"/><path d="M95.766 274.69c4.047 53.365 48.596 95.415 102.997 95.415s98.95-42.05 102.997-95.415H95.766z" fill="#5a9794"/></svg>