<svg xmlns="http://www.w3.org/2000/svg" viewBox="0 0 425.772 425.772"><path d="M109.075 303.763C95.407 316.787-6.891 414.73.368 421.989c7.084 7.084 100.724-90.823 117.356-108.329a15.418 15.418 0 0 1-4.721-3.214 15.394 15.394 0 0 1-3.928-6.683z" fill="#2b3237"/><path d="M122.828 278.752l-9.823 9.823c-4.113 4.113-5.419 9.965-3.93 15.188a15.392 15.392 0 0 0 3.929 6.683 15.394 15.394 0 0 0 4.721 3.214c5.666 2.486 12.512 1.425 17.151-3.214l8.797-8.797c-3.765-2.163-8.314-4.842-11.532-8.059-4.391-4.392-6.827-9.438-9.313-14.838z" fill="#5a9794"/><path fill="#f7f1e6" d="M359.922 53.967l-17.708 17.65 12.348 12.348 1.139 1.135 17.707-17.647-6.336-6.336z"/><path d="M337.289 115.354a4.254 4.254 0 0 1-6.015 6.015l-6.972-6.972-16.979 16.921 7 7a4.253 4.253 0 0 1-6.015 6.016l-7.009-7.011-18.62 18.559 7.041 7.041a4.252 4.252 0 0 1-.002 6.015 4.252 4.252 0 0 1-6.014 0l-7.051-7.051-15.848 16.795 17.787 17.787c3.188 3.19 2.188 7.362-1 10.552-2.393 2.392-4.896 1.99-7.844.796l-73.149 74.149c-.046.047-.097.084-.143.129-.085.086-.163.176-.247.261-13.983 13.982-36.654 13.983-50.636 0-13.193-13.193-14.442-34.61-2.737-48.676l2.737-2.738 74.053-73.053c-1.397-3.02-.86-6.714 1.629-9.204 3.19-3.189 7.363-2.189 10.552 1l17.489 16.489 15.849-15.795-7.898-7.898a4.253 4.253 0 1 1 6.015-6.015l7.908 7.908 18.621-18.558-7.939-7.939a4.254 4.254 0 0 1 6.016-6.016l7.949 7.95 16.979-16.921-7.979-7.978a4.253 4.253 0 1 1 6.015-6.015l7.988 7.988 23.351-25.27 12.392 12.35-12.348-12.348-18.701-18.702c-6.04-6.04-15.83-6.04-21.871 0l-169.5 169.5-3.828 3.827c-12.535 15.064-14.483 36.137-6.486 53.509a51.248 51.248 0 0 0 10.313 14.837 50.315 50.315 0 0 0 10.532 8.059c19.206 11.032 44.138 8.353 60.549-8.059.12-.12.23-.246.349-.366.065-.063.136-.116.2-.18l169.5-169.5c6.039-6.04 6.039-15.831-.001-21.871l-18.57-18.57-24.372 24.291 6.96 6.962z" fill="#62a5a2"/><path d="M220.257 160.237a8.139 8.139 0 0 1-1.63-2.348l-73.053 73.053-2.737 2.738c-11.705 14.066-10.457 35.483 2.737 48.676 13.982 13.983 36.653 13.982 50.636 0 .084-.085.162-.175.247-.261.046-.045.097-.083.143-.129l73.149-73.149a8.165 8.165 0 0 1-2.708-1.796l-46.784-46.784z" fill="#f7f1e6"/><path d="M421.905 78.617l-35.666-35.666-35.666-35.667c-4.967-4.965-12.807-5.178-17.512-.473l-2.128 2.13c-4.705 4.703-4.493 12.543.472 17.508l28.517 28.517 7.15 7.15 6.336 6.336 29.33 29.33c4.967 4.965 12.806 5.178 17.509.473l2.131-2.129c4.704-4.704 4.492-12.543-.473-17.509z" fill="#2b3237"/><g fill="#5a9794"><path d="M294.817 118.81l13.507 13.508 16.979-16.921-13.508-13.508zM270.17 143.374l13.509 13.508 18.62-18.559-13.508-13.507zM261.806 178.682l15.848-15.795-13.508-13.508-15.849 15.795-16.489-16.489c-3.188-3.189-8.361-3.189-11.552 0-2.489 2.49-3.026 6.184-1.629 9.204.393.849.93 1.647 1.63 2.348l46.784 46.784a8.15 8.15 0 0 0 2.708 1.796 8.172 8.172 0 0 0 8.844-1.796 8.172 8.172 0 0 0 0-11.552l-16.787-16.787zM354.562 83.965l-12.392-12.35-24.351 24.27 13.508 13.507 24.372-24.29.002-.002z"/></g><path d="M263.262 136.466a4.253 4.253 0 1 0-6.015 6.015l6.898 6.898 13.508 13.508 6.051 6.051a4.252 4.252 0 0 0 6.014 0 4.252 4.252 0 0 0 .002-6.015l-6.041-6.041-13.509-13.508-6.908-6.908zM287.867 111.861a4.254 4.254 0 0 0-6.016 6.016l6.939 6.939 13.509 13.507 6.011 6.01a4.253 4.253 0 0 0 6.015-6.016l-6-6-13.508-13.508-6.95-6.948zM304.817 88.896a4.255 4.255 0 0 0 0 6.015l6.979 6.978 13.508 13.508 5.972 5.972a4.253 4.253 0 1 0 6.015-6.015l-5.962-5.961-13.508-13.508-6.988-6.988a4.254 4.254 0 0 0-6.016-.001z" fill="#f7f1e6"/></svg>