<svg xmlns="http://www.w3.org/2000/svg" viewBox="0 0 399.971 399.971"><path d="M303.065 68.767c-16.316 0-29.541-13.226-29.541-29.543V1.105l34.92 33.815L273.524 0H87.223C70.909 0 57.682 13.227 57.682 29.542v340.887c0 16.315 13.227 29.542 29.541 29.542h225.523c16.315 0 29.543-13.227 29.543-29.542V68.767H303.065zm-155.467 2.716c0-5.781 4.688-10.468 10.468-10.468h16.622v-16.62c0-5.782 4.688-10.47 10.47-10.47H192.159c5.785 0 10.472 4.688 10.472 10.47v16.621h16.62c5.783 0 10.47 4.687 10.47 10.468v7.004c0 5.781-4.687 10.468-10.47 10.468h-16.62v16.623c0 5.783-4.687 10.471-10.472 10.471H185.158c-5.781 0-10.47-4.688-10.47-10.471V88.956h-16.622c-5.78 0-10.468-4.687-10.468-10.468v-7.005zM96.96 145.371c0-5.277 4.275-9.555 9.553-9.555h31.531a9.554 9.554 0 0 1 9.555 9.555v31.528a9.554 9.554 0 0 1-9.555 9.555h-31.531c-5.277 0-9.553-4.277-9.553-9.555v-31.528zm210.533 174.75H103.931a4.82 4.82 0 0 1 0-9.639h203.562a4.82 4.82 0 1 1 0 9.639zm0-43.789H103.931a4.82 4.82 0 0 1 0-9.639h203.562a4.819 4.819 0 1 1 0 9.639zm0-45.902H103.931a4.819 4.819 0 1 1 0-9.639h203.562a4.819 4.819 0 1 1 0 9.639zm0-45.903H163.411a4.82 4.82 0 0 1 0-9.64h144.082a4.82 4.82 0 0 1 0 9.64z" fill="#f7f1e6"/><path d="M273.524 39.224c0 16.317 13.225 29.543 29.541 29.543h39.223l-33.845-33.846-34.92-34.92.001 39.223z" fill="#e0dcd3"/><path d="M106.512 186.454h31.531a9.554 9.554 0 0 0 9.555-9.555v-31.528a9.554 9.554 0 0 0-9.555-9.555h-31.531c-5.277 0-9.553 4.277-9.553 9.555v31.528c.001 5.278 4.276 9.555 9.553 9.555zM307.493 174.887H163.411a4.82 4.82 0 0 0 0 9.64h144.082a4.82 4.82 0 0 0 0-9.64zM307.493 220.79H103.931a4.82 4.82 0 0 0 0 9.639h203.562a4.818 4.818 0 0 0 4.819-4.819 4.819 4.819 0 0 0-4.819-4.82zM307.493 266.692H103.931a4.82 4.82 0 0 0 0 9.639h203.562a4.82 4.82 0 0 0 0-9.639zM307.493 310.481H103.931a4.819 4.819 0 1 0 0 9.639h203.562a4.82 4.82 0 0 0 0-9.639z" fill="#dec8ae"/><path d="M158.066 88.955h16.622v16.623c0 5.783 4.688 10.471 10.47 10.471H192.159c5.785 0 10.472-4.688 10.472-10.471V88.955h16.62c5.783 0 10.47-4.687 10.47-10.468v-7.004c0-5.781-4.687-10.468-10.47-10.468h-16.62v-16.62c0-5.782-4.687-10.47-10.472-10.47H185.158c-5.781 0-10.47 4.688-10.47 10.47v16.621h-16.622c-5.78 0-10.468 4.687-10.468 10.468v7.004c0 5.781 4.688 10.467 10.468 10.467z" fill="#d43d21"/></svg>