<svg xmlns="http://www.w3.org/2000/svg" viewBox="0 0 426.395 426.395"><path d="M342.678 143.279h-46.765v167.432h46.765c46.235 0 83.717-37.479 83.717-83.715s-37.482-83.717-83.717-83.717zm-20.556 136.248c-5.432 0-9.832-4.402-9.832-9.831a9.83 9.83 0 0 1 9.832-9.832c5.428 0 9.829 4.401 9.829 9.832 0 5.429-4.401 9.831-9.829 9.831zm0-42.21a9.83 9.83 0 0 1-9.832-9.831c0-5.429 4.4-9.83 9.832-9.83 5.428 0 9.829 4.401 9.829 9.83 0 5.43-4.401 9.831-9.829 9.831zm0-43.191a9.83 9.83 0 0 1-9.832-9.831c0-5.429 4.4-9.83 9.832-9.83 5.428 0 9.829 4.401 9.829 9.83s-4.401 9.831-9.829 9.831zm27.525 65.309c-5.428 0-9.83-4.401-9.83-9.832 0-5.427 4.402-9.828 9.83-9.828 5.43 0 9.832 4.401 9.832 9.828 0 5.43-4.403 9.832-9.832 9.832zm0-44.239c-5.428 0-9.83-4.402-9.83-9.831s4.402-9.83 9.83-9.83c5.43 0 9.832 4.401 9.832 9.83s-4.403 9.831-9.832 9.831zm26.872 64.331c-5.431 0-9.832-4.402-9.832-9.831 0-5.43 4.401-9.832 9.832-9.832 5.429 0 9.83 4.401 9.83 9.832 0 5.429-4.401 9.831-9.83 9.831zm.002-42.21c-5.429 0-9.83-4.401-9.83-9.831 0-5.429 4.401-9.83 9.83-9.83 5.431 0 9.831 4.401 9.831 9.83a9.83 9.83 0 0 1-9.831 9.831zm0-43.191c-5.429 0-9.83-4.401-9.83-9.831 0-5.429 4.401-9.83 9.83-9.83 5.431 0 9.831 4.401 9.831 9.83s-4.401 9.831-9.831 9.831zM129.481 143.279H83.716C37.48 143.279 0 180.76 0 226.996s37.479 83.715 83.716 83.715h45.765V143.279zM50.88 281.76c-5.429 0-9.83-4.401-9.83-9.83 0-5.43 4.401-9.832 9.83-9.832 5.431 0 9.831 4.402 9.831 9.832 0 5.429-4.4 9.83-9.831 9.83zm0-42.209c-5.429 0-9.83-4.402-9.83-9.831s4.401-9.832 9.83-9.832c5.431 0 9.831 4.402 9.831 9.832 0 5.429-4.4 9.831-9.831 9.831zm0-43.192c-5.429 0-9.83-4.4-9.83-9.832 0-5.427 4.401-9.829 9.83-9.829 5.431 0 9.831 4.402 9.831 9.829a9.83 9.83 0 0 1-9.831 9.832zm27.527 65.31c-5.43 0-9.83-4.402-9.83-9.831 0-5.428 4.4-9.83 9.83-9.83 5.431 0 9.831 4.402 9.831 9.83s-4.401 9.831-9.831 9.831zm0-44.24c-5.43 0-9.83-4.402-9.83-9.831s4.4-9.83 9.83-9.83c5.431 0 9.831 4.401 9.831 9.83s-4.401 9.831-9.831 9.831zm26.87 64.331c-5.429 0-9.829-4.401-9.829-9.83 0-5.43 4.4-9.832 9.829-9.832 5.431 0 9.832 4.402 9.832 9.832 0 5.429-4.402 9.83-9.832 9.83zm.005-42.209c-5.431 0-9.831-4.402-9.831-9.831s4.4-9.832 9.831-9.832c5.43 0 9.831 4.402 9.831 9.832 0 5.429-4.402 9.831-9.831 9.831zm0-43.192a9.83 9.83 0 0 1-9.831-9.832c0-5.427 4.4-9.829 9.831-9.829 5.43 0 9.831 4.402 9.831 9.829 0 5.432-4.402 9.832-9.831 9.832z" fill="#dbc7ac"/><circle cx="50.88" cy="186.529" r="9.83" fill="#e4dad1"/><circle cx="50.88" cy="229.72" r="9.831" fill="#e4dad1"/><circle cx="50.88" cy="271.93" r="9.831" fill="#e4dad1"/><circle cx="78.407" cy="251.838" r="9.831" fill="#e4dad1"/><circle cx="78.407" cy="207.599" r="9.83" fill="#e4dad1"/><circle cx="105.282" cy="186.529" r="9.83" fill="#e4dad1"/><circle cx="105.282" cy="229.72" r="9.831" fill="#e4dad1"/><circle cx="105.277" cy="271.93" r="9.831" fill="#e4dad1"/><circle cx="322.122" cy="184.295" r="9.831" fill="#e4dad1"/><circle cx="322.122" cy="227.486" r="9.831" fill="#e4dad1"/><circle cx="322.122" cy="269.696" r="9.831" fill="#e4dad1"/><circle cx="349.647" cy="249.605" r="9.83" fill="#e4dad1"/><circle cx="349.647" cy="205.366" r="9.83" fill="#e4dad1"/><circle cx="376.521" cy="184.295" r="9.831" fill="#e4dad1"/><circle cx="376.521" cy="227.486" r="9.831" fill="#e4dad1"/><circle cx="376.519" cy="269.696" r="9.831" fill="#e4dad1"/><path d="M151.083 412.597l24.072-10.805-24.112 10.758.04.047zM296.913 143.279V97.514c0-46.236-37.479-83.717-83.716-83.717S129.48 51.278 129.48 97.514v258.963c0 21.505 8.115 41.11 21.443 55.937-2.373-22.657 4.45-46.194 20.823-64.519 30.81-34.478 83.729-37.452 118.207-6.645l6.716 6.002.243-.109V143.279h.001zM163.67 257.276v-60.563c0-27.354 22.175-49.528 49.528-49.528s49.528 22.175 49.528 49.528v60.563c0 27.353-22.175 49.528-49.528 49.528s-49.528-22.175-49.528-49.528zm92.228-203.433c5.429 0 9.831 4.4 9.831 9.831 0 5.429-4.402 9.83-9.831 9.83-5.43 0-9.831-4.401-9.831-9.83a9.83 9.83 0 0 1 9.831-9.831zm0 54.397c5.429 0 9.831 4.401 9.831 9.83 0 5.431-4.402 9.831-9.831 9.831a9.83 9.83 0 0 1-9.831-9.831c0-5.429 4.401-9.83 9.831-9.83zm-20.093-27.527c5.431 0 9.831 4.402 9.831 9.831s-4.4 9.831-9.831 9.831c-5.428 0-9.829-4.402-9.829-9.831 0-5.428 4.401-9.831 9.829-9.831zm-22.117-26.874c5.429 0 9.831 4.402 9.831 9.831s-4.402 9.831-9.831 9.831-9.83-4.402-9.83-9.831 4.401-9.831 9.83-9.831zm0 54.401c5.429 0 9.831 4.401 9.831 9.83 0 5.431-4.402 9.831-9.831 9.831s-9.83-4.4-9.83-9.831c0-5.429 4.401-9.83 9.83-9.83zm-22.121-27.527c5.429 0 9.832 4.402 9.832 9.831s-4.403 9.831-9.832 9.831c-5.428 0-9.829-4.402-9.829-9.831 0-5.428 4.401-9.831 9.829-9.831zm-21.071-26.874c5.429 0 9.831 4.402 9.831 9.831s-4.402 9.831-9.831 9.831-9.83-4.402-9.83-9.831 4.402-9.831 9.83-9.831zm0 54.401c5.429 0 9.831 4.401 9.831 9.83 0 5.431-4.402 9.831-9.831 9.831s-9.83-4.4-9.83-9.831c0-5.429 4.402-9.83 9.83-9.83zm-1.206 236.502c-5.428 0-9.829-4.401-9.829-9.831s4.401-9.83 9.829-9.83c5.432 0 9.832 4.4 9.832 9.83s-4.4 9.831-9.832 9.831z" fill="#f3dbbd"/><path d="M171.747 347.894c-16.373 18.325-23.196 41.861-20.823 64.519.006.062.008.123.015.185l.104-.046 24.112-10.758 121.758-54.324-.243-.217-6.716-6.002c-34.477-30.809-87.397-27.835-118.207 6.643z" fill="#dbc7ac"/><path d="M213.199 306.805c27.354 0 49.528-22.175 49.528-49.528v-60.563c0-27.354-22.175-49.528-49.528-49.528s-49.528 22.175-49.528 49.528v60.563c-.001 27.352 22.174 49.528 49.528 49.528zM169.29 325.081c-5.428 0-9.829 4.4-9.829 9.83s4.401 9.831 9.829 9.831c5.432 0 9.832-4.401 9.832-9.831s-4.4-9.83-9.832-9.83z" fill="#f2e7dd"/><circle cx="170.496" cy="118.07" r="9.831" fill="#f2e7dd"/><circle cx="213.688" cy="118.07" r="9.831" fill="#f2e7dd"/><circle cx="255.898" cy="118.07" r="9.831" fill="#f2e7dd"/><circle cx="235.805" cy="90.545" r="9.831" fill="#f2e7dd"/><circle cx="191.567" cy="90.545" r="9.831" fill="#f2e7dd"/><circle cx="170.496" cy="63.67" r="9.831" fill="#f2e7dd"/><circle cx="213.688" cy="63.67" r="9.831" fill="#f2e7dd"/><circle cx="255.898" cy="63.674" r="9.831" fill="#f2e7dd"/></svg>