<svg xmlns="http://www.w3.org/2000/svg" viewBox="0 0 370.001 370.001"><path d="M322.821 122.055h-74.882V47.17c0-26.056-21.114-47.17-47.17-47.17h-31.543c-26.05 0-47.175 21.114-47.175 47.17v74.885H47.163c-26.035 0-47.161 21.121-47.161 47.166v31.55c0 26.049 21.126 47.163 47.161 47.163h74.889v74.887c0 26.056 21.125 47.18 47.175 47.18h31.543c26.056 0 47.17-21.124 47.17-47.18v-74.887h74.882c26.061 0 47.177-21.114 47.177-47.163v-31.55c-.001-26.045-21.117-47.166-47.178-47.166zm-76.449 56.098c-2.844 17.322-23.532 36.792-40.196 52.469 0 0-8.315 8.349-10.812 10.489-1.873 1.612-5.951 4.854-10.36 4.854-4.417 0-8.485-3.242-10.368-4.854-2.496-2.141-10.813-10.489-10.813-10.489-16.665-15.677-37.351-35.138-40.196-52.469-1.994-12.248-.048-22.347 5.795-30.015 5.896-7.742 14.867-12.159 27.431-13.504a33.622 33.622 0 0 1 3.414-.179c8.875 0 17.85 3.307 24.729 8.901 6.89-5.594 15.855-8.901 24.747-8.901 1.094 0 2.197.057 3.404.179 12.563 1.345 21.527 5.762 27.429 13.504 5.845 7.668 7.79 17.767 5.796 30.015z" fill="#e74424"/><path d="M213.147 134.634a33.432 33.432 0 0 0-3.404-.179c-8.892 0-17.857 3.307-24.747 8.901-6.88-5.594-15.854-8.901-24.729-8.901-1.104 0-2.196.057-3.414.179-12.563 1.345-21.535 5.762-27.431 13.504-5.843 7.668-7.789 17.768-5.795 30.015 2.846 17.331 23.531 36.792 40.196 52.469 0 0 8.316 8.349 10.813 10.489 1.883 1.612 5.951 4.854 10.368 4.854 4.409 0 8.487-3.242 10.36-4.854 2.496-2.141 10.812-10.489 10.812-10.489 16.664-15.677 37.353-35.146 40.196-52.469 1.994-12.248.049-22.347-5.796-30.015-5.901-7.742-14.865-12.159-27.429-13.504z" fill="#f7f1e6"/></svg>