<svg xmlns="http://www.w3.org/2000/svg" viewBox="0 0 410.585 410.585"><path d="M245.685 215.694c31.903-30.012 71.505-67.284 76.951-100.446 3.818-23.446.094-42.781-11.094-57.462-11.298-14.819-28.459-23.275-52.512-25.852a64.453 64.453 0 0 0-6.518-.342c-17.022 0-34.186 6.331-47.376 17.039-13.173-10.708-30.352-17.039-47.341-17.039-2.114 0-4.208.109-6.536.342-24.054 2.576-41.23 11.032-52.513 25.852-11.187 14.681-14.913 34.016-11.096 57.462 5.447 33.178 45.048 70.435 76.953 100.446 0 0 15.921 15.983 20.699 20.08 3.604 3.088 11.395 9.295 19.849 9.295 8.442 0 16.248-6.207 19.833-9.295 4.779-4.097 20.701-20.08 20.701-20.08z" fill="#d43d21"/><path d="M148.829 267.338c-1.736-1.334-15.503-11.746-53.69-14.293-2.096-.17-4.223-1.66-6.086-2.9-.454-.303-.911-.611-1.367-.922-1.924-1.316-3.816-2.73-5.275-4.463-2.915-3.492-6.22-6.426-8.998-10.305-18.558-25.883-36.76-31.066-39.479-32.105-3.614-1.736-6.082-2.244-6.887-4.717-.327-1.148-3.477-31.205-4.038-36.25-1.564-14.494-3.117-25.232-11.42-28.148-2.14-.762-3.662-.512-5.243 1.178-1.896 1.988-3.011 12.51-3.556 19.166 0 0-3.128 38.89-2.76 52.373s23.699 67.345 36.2 79.914 70.358 45.453 70.358 45.453c2.081 1.736 13.642 10.629 13.642 22.299v13.152s-1.649 12.17 11.686 12.17 31.834.053 45.001.053 10.598-11.891 10.608-16.057l.017-6.451.001-.711c.157-4.299.887-8.566 1.399-12.834 1.458-4.887.295-14.121-.389-17.705-7.822-34.867-36.592-55.459-39.724-57.897zM407.497 153.579c-.545-6.656-1.66-17.178-3.556-19.166-1.581-1.689-3.103-1.939-5.243-1.178-8.304 2.916-9.856 13.654-11.42 28.148-.561 5.045-3.711 35.102-4.038 36.25-.805 2.473-3.273 2.98-6.887 4.717-2.719 1.039-20.921 6.223-39.479 32.105-2.778 3.879-6.083 6.813-8.998 10.305-1.459 1.732-3.351 3.146-5.275 4.463-.456.311-.913.619-1.367.922-1.864 1.24-3.99 2.73-6.086 2.9-38.187 2.547-51.954 12.959-53.69 14.293-3.132 2.438-31.902 23.029-39.724 57.896-.684 3.584-1.847 12.818-.389 17.705.512 4.268 1.242 8.535 1.399 12.834l.001.711.017 6.451c.011 4.166-2.559 16.057 10.608 16.057s31.666-.053 45.001-.053 11.686-12.17 11.686-12.17v-13.152c0-11.67 11.561-20.563 13.642-22.299 0 0 62.396-35.971 70.358-45.453s34.675-66.764 36.2-79.914-2.76-52.372-2.76-52.372z" fill="#dec8ae"/></svg>