<svg xmlns="http://www.w3.org/2000/svg" viewBox="0 0 429.305 429.305"><path d="M214.652 0C131.177 0 63.506 67.671 63.506 151.146c0 83.476 103.891 278.159 151.146 278.159s151.146-194.684 151.146-278.159S298.127 0 214.652 0zm0 256.502c-56.819 0-102.881-46.062-102.881-102.881S157.833 50.742 214.652 50.742s102.881 46.06 102.881 102.879-46.062 102.881-102.881 102.881z" fill="#d43d21"/><path d="M214.652 50.742c-56.819 0-102.881 46.06-102.881 102.879s46.061 102.881 102.881 102.881 102.881-46.062 102.881-102.881S271.471 50.742 214.652 50.742zm51.499 107.269c0 7.251-5.878 13.129-13.132 13.129h-20.846v20.847c0 7.253-5.877 13.133-13.131 13.133h-8.78c-7.252 0-13.134-5.88-13.134-13.133V171.14h-20.846c-7.248 0-13.128-5.878-13.128-13.129v-8.784c0-7.25 5.88-13.129 13.128-13.129h20.846v-20.845c0-7.254 5.882-13.132 13.134-13.132h8.78c7.254 0 13.131 5.878 13.131 13.132v20.845h20.846c7.254 0 13.132 5.879 13.132 13.129v8.784z" fill="#f7f1e6"/><path d="M253.019 136.098h-20.846v-20.845c0-7.254-5.877-13.132-13.131-13.132h-8.78c-7.252 0-13.134 5.878-13.134 13.132v20.845h-20.846c-7.248 0-13.128 5.879-13.128 13.129v8.784c0 7.251 5.88 13.129 13.128 13.129h20.846v20.847c0 7.253 5.882 13.133 13.134 13.133h8.78c7.254 0 13.131-5.88 13.131-13.133V171.14h20.846c7.254 0 13.132-5.878 13.132-13.129v-8.784c0-7.25-5.878-13.129-13.132-13.129z" fill="#e74424"/></svg>