<svg height="512pt" viewBox="0 -72 512 511" width="512pt" xmlns="http://www.w3.org/2000/svg"><path d="M154.063 114.004h-44.965v-22.48c0-12.419 10.066-22.485 22.48-22.485 12.418 0 22.484 10.066 22.484 22.484zm0 0" fill="#a7acd3"/><path d="M446.254 257.137v42.797c0 11.37-9.219 20.601-20.606 20.601H47.203c-11.383 0-20.605-9.23-20.605-20.601v-42.797zm0 0" fill="#fd8f07"/><path d="M446.254 257.137v16.691a95.617 95.617 0 0 1-15.988 1.336H26.598v-18.027zm0 0" fill="#fd7504"/><path d="M143.754 325.598c0 22.609-18.328 40.933-40.934 40.933-22.605 0-40.933-18.324-40.933-40.933 0-22.606 18.328-40.934 40.933-40.934 22.606 0 40.934 18.328 40.934 40.934zm0 0" fill="#898ec9"/><path d="M118.129 325.598c0 8.457-6.856 15.308-15.309 15.308s-15.308-6.851-15.308-15.308c0-8.453 6.855-15.309 15.308-15.309s15.309 6.856 15.309 15.309zm0 0" fill="#fd8f07"/><path d="M278.742 325.598c0 22.609-18.324 40.933-40.933 40.933-22.606 0-40.93-18.324-40.93-40.933 0-22.606 18.324-40.934 40.93-40.934 22.609 0 40.933 18.328 40.933 40.934zm0 0" fill="#898ec9"/><path d="M253.117 325.598c0 8.457-6.851 15.308-15.308 15.308-8.454 0-15.305-6.851-15.305-15.308 0-8.453 6.851-15.309 15.305-15.309 8.457 0 15.308 6.856 15.308 15.309zm0 0" fill="#fd8f07"/><path d="M413.734 325.598c0 22.609-18.328 40.933-40.933 40.933s-40.934-18.324-40.934-40.933c0-22.606 18.328-40.934 40.934-40.934s40.933 18.328 40.933 40.934zm0 0" fill="#898ec9"/><path d="M388.11 325.598c0 8.457-6.856 15.308-15.31 15.308s-15.308-6.851-15.308-15.308c0-8.453 6.856-15.309 15.309-15.309s15.308 6.856 15.308 15.309zm0 0" fill="#fd8f07"/><path d="M512 181.07c0 22.57-9.148 43.008-23.941 57.793-14.793 14.793-35.223 23.942-57.793 23.942H10.3C4.613 262.805 0 258.187 0 252.504v-72.176c0-2.73 1.082-5.348 2.996-7.273L73.38 102.37a10.264 10.264 0 0 1 7.297-3.035h349.59c23.476 0 44.636 9.887 59.535 25.742C503.574 139.695 512 159.406 512 181.07zm0 0" fill="#6163aa"/><path d="M416.348 135.906c0 53.692-43.68 97.383-97.383 97.383-53.692 0-97.383-43.691-97.383-97.383 0-12.93 2.535-25.281 7.14-36.57h180.489c4.601 11.289 7.137 23.64 7.137 36.57zm0 0" fill="#4e5093"/><path d="M512 181.07c0 22.57-9.148 43.008-23.941 57.793-14.793 14.793-35.223 23.942-57.793 23.942H10.3C4.613 262.805 0 258.187 0 252.504V232.93c101.969-1.34 186.094-10.985 254.402-24.192 67.344-13.02 119.317-29.504 157.868-44.933 38.734-15.504 63.921-29.938 77.53-38.727 13.774 14.617 22.2 34.328 22.2 55.992zm0 0" fill="#383c7c"/><path d="M412.27 163.805c-12.012 40.144-49.297 69.484-93.305 69.484-24.746 0-47.356-9.27-64.563-24.547 67.344-13.023 119.317-29.508 157.868-44.937zm0 0" fill="#292e68"/><path d="M199.547 99.336v71.898c0 6.184-5.012 11.196-11.195 11.196H0v-2.102c0-2.73 1.082-5.348 2.996-7.273L73.38 102.37a10.264 10.264 0 0 1 7.297-3.035zm0 0" fill="#2de0c7"/><path d="M156.246 99.336L73.152 182.43H50.18l83.093-83.094zm0 0M195.043 99.336l-83.094 83.094H81.602l83.093-83.094zm0 0" fill="#9bf2e5"/><path d="M403.984 135.906c0 46.953-38.062 85.02-85.015 85.02-46.957 0-85.02-38.067-85.02-85.02 0-46.957 38.063-85.02 85.02-85.02 46.953 0 85.015 38.063 85.015 85.02zm0 0" fill="#2de0c7"/><path d="M377.305 135.906a58.125 58.125 0 0 1-4.82 23.25c-8.985 20.645-29.567 35.09-53.52 35.09-32.215 0-58.34-26.125-58.34-58.34 0-32.222 26.125-58.34 58.34-58.34 23.87 0 44.379 14.32 53.414 34.84a58.225 58.225 0 0 1 4.926 23.5zm0 0" fill="#6163aa"/><path d="M377.305 135.906a58.125 58.125 0 0 1-4.82 23.25h-5.958c-8.074 0-14.629-6.55-14.629-14.629v-17.48c0-8.086 6.555-14.64 14.63-14.64h5.85a58.225 58.225 0 0 1 4.927 23.5zm0 0" fill="#a7acd3"/><path d="M186.574 237.664h-6.18c-5.69 0-10.3-4.61-10.3-10.3v-12.88c0-5.687 4.61-10.3 10.3-10.3h6.18c5.692 0 10.305 4.613 10.305 10.3v12.88c0 5.69-4.613 10.3-10.305 10.3zm0 0" fill="#fd8f07"/><path d="M376.148 288.531h-6.18c-5.69 0-10.304-4.613-10.304-10.304v-21.118c0-5.691 4.613-10.304 10.305-10.304h6.18c5.69 0 10.3 4.613 10.3 10.304v21.118c0 5.691-4.61 10.304-10.3 10.304zm0 0M240.902 288.785h-6.183c-5.688 0-10.301-4.61-10.301-10.3v-21.122c0-5.687 4.613-10.3 10.3-10.3h6.184c5.688 0 10.301 4.613 10.301 10.3v21.121c0 5.692-4.613 10.301-10.3 10.301zm0 0M105.91 288.785h-6.18c-5.69 0-10.3-4.61-10.3-10.3v-21.122c0-5.687 4.61-10.3 10.3-10.3h6.18c5.692 0 10.305 4.613 10.305 10.3v21.121c0 5.692-4.613 10.301-10.305 10.301zm0 0" fill="#2de0c7"/><path d="M416.54 245.39h-.106a7.724 7.724 0 0 1-7.727-7.726 7.726 7.726 0 0 1 7.727-7.726h.105c4.27 0 7.727 3.46 7.727 7.726a7.724 7.724 0 0 1-7.727 7.727zm0 0M435.016 245.39h-.11a7.723 7.723 0 0 1-7.722-7.726 7.725 7.725 0 0 1 7.722-7.726h.11a7.726 7.726 0 1 1 0 15.453zm0 0" fill="#fd8f07"/><g fill="#898ec9"><path d="M497.648 321.89h-.023l-10.898-.03a7.724 7.724 0 0 1-7.704-7.75 7.723 7.723 0 0 1 7.723-7.704h.024l10.902.031a7.727 7.727 0 0 1-.023 15.453zm0 0M482.11 295.77a7.722 7.722 0 0 1-6.708-3.883 7.723 7.723 0 0 1 2.86-10.547l9.457-5.422a7.723 7.723 0 0 1 10.543 2.86 7.72 7.72 0 0 1-2.86 10.542l-9.457 5.422a7.682 7.682 0 0 1-3.836 1.028zm0 0M491.367 353.398a7.687 7.687 0 0 1-3.875-1.046l-9.426-5.48c-3.687-2.145-4.937-6.872-2.796-10.563a7.732 7.732 0 0 1 10.566-2.797l9.422 5.48a7.727 7.727 0 0 1-3.89 14.406zm0 0"/></g><path d="M430.27 137.258a7.724 7.724 0 0 1-7.727-7.727V8.227a7.725 7.725 0 0 1 15.45 0V129.53a7.723 7.723 0 0 1-7.723 7.727zm0 0M451.734 124.824a7.726 7.726 0 0 1-7.726-7.726V69.043c0-4.27 3.46-7.727 7.726-7.727s7.727 3.457 7.727 7.727v48.055a7.726 7.726 0 0 1-7.727 7.726zm0 0" fill="#2de0c7"/></svg>