<svg height="512pt" viewBox="0 0 512 512" width="512pt" xmlns="http://www.w3.org/2000/svg"><path d="M363.75 256c0 59.512-48.238 107.75-107.75 107.75S148.25 315.512 148.25 256c0-29.887 12.164-56.934 31.824-76.441 19.078-18.957 45.211-30.813 74.11-31.286.605-.023 1.21-.023 1.816-.023 59.512 0 107.75 48.238 107.75 107.75zm0 0" fill="#fda736"/><path d="M363.75 256c0 59.512-48.238 107.75-107.75 107.75-15.3 0-29.863-3.191-43.043-8.95 5.879 1 11.922 1.516 18.09 1.516 59.508 0 107.746-48.238 107.746-107.746 0-44.199-26.606-82.18-64.684-98.8C325 158.379 363.75 202.664 363.75 256zm0 0" fill="#fd8f07"/><path d="M256.594 162.023c0 22.235-18.031 40.266-40.27 40.266-15.949 0-29.742-9.277-36.25-22.73 19.078-18.957 45.211-30.813 74.11-31.286a40.098 40.098 0 0 1 2.41 13.75zm0 0" fill="#fd7504"/><path d="M256.59 162.02c0 22.242-18.031 40.27-40.262 40.27-3.36 0-6.617-.411-9.738-1.2 17.52-4.352 30.512-20.2 30.512-39.07 0-4.098-.614-8.051-1.762-11.782 6.11-1.187 12.41-1.86 18.84-1.968 1.57 4.3 2.41 8.921 2.41 13.75zm0 0" fill="#fc5921"/><path d="M256 435.582c-99.02 0-179.582-80.559-179.582-179.582S156.98 76.418 256 76.418 435.582 156.98 435.582 256c0 70.863-41.84 135.285-106.586 164.125a7.5 7.5 0 0 1-9.902-3.8 7.496 7.496 0 0 1 3.8-9.903c59.344-26.434 97.688-85.477 97.688-150.422 0-90.75-73.832-164.582-164.582-164.582S91.418 165.25 91.418 256 165.25 420.582 256 420.582c6.871 0 13.785-.426 20.559-1.27 4.101-.519 7.855 2.403 8.367 6.516a7.496 7.496 0 0 1-6.516 8.367 182.29 182.29 0 0 1-22.41 1.387zm0 0" fill="#7e18ea"/><path d="M256 512c-68.379 0-132.668-26.629-181.02-74.98C26.63 388.668 0 324.379 0 256c0-58.066 18.953-112.813 54.813-158.32 34.777-44.133 83.746-76.02 137.89-89.793a7.496 7.496 0 0 1 9.117 5.422 7.504 7.504 0 0 1-5.422 9.117c-50.96 12.96-97.058 42.984-129.8 84.539C32.844 149.8 15 201.335 15 256c0 64.375 25.066 124.895 70.586 170.414C131.106 471.934 191.625 497 256 497s124.895-25.066 170.414-70.586C471.934 380.894 497 320.375 497 256s-25.066-124.895-70.586-170.414C380.894 40.066 320.375 15 256 15a7.5 7.5 0 1 1 0-15c68.379 0 132.668 26.629 181.02 74.98C485.37 123.332 512 187.621 512 256s-26.629 132.668-74.98 181.02C388.668 485.37 324.379 512 256 512zm0 0" fill="#2500ad"/><path d="M422.707 148.254c0 17.969-14.566 32.535-32.535 32.535s-32.54-14.566-32.54-32.535 14.571-32.535 32.54-32.535 32.535 14.566 32.535 32.535zm0 0" fill="#6163aa"/><path d="M422.71 148.25c0 17.969-14.57 32.54-32.538 32.54-3.313 0-6.492-.49-9.5-1.411C394 175.32 403.71 162.922 403.71 148.25s-9.711-27.059-23.04-31.121a32.444 32.444 0 0 1 9.5-1.41c17.97 0 32.54 14.562 32.54 32.531zm0 0" fill="#4e5093"/><path d="M133.809 436.629c0 24.625-19.961 44.586-44.586 44.586s-44.586-19.961-44.586-44.586 19.96-44.59 44.586-44.59 44.586 19.965 44.586 44.59zm0 0" fill="#2de0c7"/><path d="M133.809 436.629c0 24.621-19.957 44.59-44.59 44.59-3.797 0-7.48-.469-11-1.36 19.312-4.898 33.59-22.398 33.59-43.23 0-20.84-14.278-38.328-33.59-43.23a44.966 44.966 0 0 1 11-1.36c24.633 0 44.59 19.961 44.59 44.59zm0 0" fill="#00c2cc"/><path d="M504.273 367.145c0 14.308-11.601 25.91-25.91 25.91-14.308 0-25.91-11.602-25.91-25.91 0-14.31 11.602-25.91 25.91-25.91 14.309 0 25.91 11.6 25.91 25.91zm0 0" fill="#d82fea"/><path d="M504.27 367.14c0 14.31-11.598 25.91-25.91 25.91-2.962 0-5.801-.491-8.438-1.41 10.168-3.492 17.476-13.14 17.476-24.5s-7.308-21.011-17.476-24.5a25.513 25.513 0 0 1 8.437-1.41c14.313 0 25.91 11.598 25.91 25.91zm0 0" fill="#b200bf"/><path d="M141.04 50.105c0 14.31-11.599 25.91-25.907 25.91-14.313 0-25.91-11.6-25.91-25.91 0-14.308 11.597-25.91 25.91-25.91 14.308 0 25.906 11.602 25.906 25.91zm0 0" fill="#edff85"/><path d="M141.04 50.11c0 14.3-11.599 25.902-25.911 25.902-2.207 0-4.348-.282-6.399-.801 11.22-2.852 19.508-13.012 19.508-25.102 0-12.097-8.289-22.257-19.508-25.109 2.051-.52 4.192-.8 6.399-.8 14.312 0 25.91 11.6 25.91 25.91zm0 0" fill="#c5ee09"/><path d="M261.137 292.965c0 13.273-10.762 24.031-24.035 24.031-13.274 0-24.036-10.758-24.036-24.031 0-13.277 10.762-24.035 24.036-24.035 13.273 0 24.035 10.758 24.035 24.035zm0 0" fill="#fd7504"/><path d="M261.14 292.96c0 13.278-10.761 24.04-24.038 24.04-3.243 0-6.332-.64-9.153-1.809 8.73-3.601 14.871-12.203 14.871-22.23 0-10.02-6.14-18.621-14.87-22.223a23.858 23.858 0 0 1 9.152-1.808c13.277 0 24.039 10.761 24.039 24.03zm0 0" fill="#fc5921"/><path d="M286.273 194.7H286.128a7.5 7.5 0 0 1-7.468-7.536 7.496 7.496 0 0 1 7.496-7.465H286.305c4.14.016 7.484 3.39 7.468 7.531a7.505 7.505 0 0 1-7.5 7.47zm0 0" fill="#fd8f07"/><path d="M297.395 265.117h-.114c-4.14 0-7.5-3.36-7.5-7.5 0-4.14 3.36-7.5 7.5-7.5h.114a7.5 7.5 0 1 1 0 15zm0 0" fill="#fd7504"/><path d="M286.219 283.504H286.07c-4.14-.016-7.484-3.39-7.468-7.531a7.503 7.503 0 0 1 7.5-7.47H286.246c4.145.02 7.488 3.392 7.469 7.532a7.497 7.497 0 0 1-7.496 7.469zm0 0" fill="#fd8f07"/><path d="M302.234 429.383H302.09a7.5 7.5 0 1 1 .031-15H302.266a7.497 7.497 0 0 1 7.468 7.531 7.5 7.5 0 0 1-7.5 7.469zm0 0" fill="#d82fea"/><path d="M225.29 17.203h-.114a7.5 7.5 0 1 1 0-15h.113c4.145 0 7.5 3.356 7.5 7.5a7.5 7.5 0 0 1-7.5 7.5zm0 0" fill="#7e18ea"/></svg>