<svg height="512pt" viewBox="0 -4 512.001 512" width="512pt" xmlns="http://www.w3.org/2000/svg"><path d="M278.965 326.09a7.615 7.615 0 0 1-7.613-7.613v-38.282a7.61 7.61 0 0 1 7.613-7.61 7.609 7.609 0 0 1 7.61 7.61v38.282a7.612 7.612 0 0 1-7.61 7.613zm0 0" fill="#fda736"/><path d="M299.7 326.09a7.612 7.612 0 0 1-7.61-7.613v-17.055a7.612 7.612 0 1 1 15.223 0v17.055a7.613 7.613 0 0 1-7.614 7.613zm0 0" fill="#fd8f07"/><path d="M248.523 223.535v107.68H128.176l18.043-37.313 41.168-85.168h46.328c8.176 0 14.808 6.625 14.808 14.801zm0 0" fill="#4e5093"/><path d="M248.523 293.902v37.313H128.176l18.043-37.313zm0 0" fill="#fda736"/><path d="M215.008 8.617c56.992 56.996 56.992 149.399 0 206.39C158.016 272 65.609 272 8.618 215.008zm0 0" fill="#fef5e3"/><path d="M215.012 215.004c-31.149 31.144-72.88 45.273-113.625 42.371 33.773-2.426 66.867-16.543 92.699-42.371 53.46-53.453 56.77-138.063 9.934-195.39L215.012 8.62c56.992 56.996 56.992 149.399 0 206.383zm0 0" fill="#ffe5c0"/><path d="M68.844 68.844a352.865 352.865 0 0 0-12.781 13.465C7.953 135.793-13.263 193.125 8.617 215.008c18.824 18.828 63.89 5.75 110.172-28.906 12.063-9.032 24.211-19.532 35.992-31.317 11.785-11.785 22.29-23.933 31.32-35.996 34.657-46.281 47.731-91.344 28.907-110.172-21.883-21.879-79.219-.664-132.7 47.445a352.865 352.865 0 0 0-13.464 12.782zm0 0" fill="#ffd4a1"/><path d="M.89 199.918c1.235 6.031 3.782 11.137 7.735 15.09 18.824 18.824 63.883 5.75 110.16-28.903 12.067-9.035 24.215-19.539 36-31.324s22.29-23.933 31.313-35.988c34.664-46.29 47.738-91.348 28.914-110.176-3.953-3.949-9.059-6.496-15.09-7.73 4.652 22.71-9.25 58.515-36.637 95.082-9.031 12.058-19.539 24.203-31.324 35.988s-23.93 22.29-36 31.324C59.395 190.668 23.59 204.571.89 199.918zm0 0" fill="#ffc183"/><path d="M30.84 40.57L56.063 82.31l62.726 103.793c12.063-9.032 24.211-19.536 35.992-31.32 11.785-11.786 22.29-23.934 31.32-35.993L82.31 56.062 40.57 30.84c-6.332-3.824-13.554 3.398-9.73 9.73zm0 0" fill="#fda736"/><path d="M109.121 170.113l9.664 15.989c12.07-9.036 24.215-19.536 36-31.313 11.778-11.789 22.29-23.941 31.313-36.004l-15.996-9.664c-8.387 10.879-17.965 21.797-28.579 32.402-10.605 10.618-21.523 20.196-32.402 28.59zm0 0M30.332 229.203a7.609 7.609 0 0 1-7.61-7.61V40.57c0-4.203 3.407-7.61 7.61-7.61s7.61 3.407 7.61 7.61v181.024a7.609 7.609 0 0 1-7.61 7.61zm0 0" fill="#fd8f07"/><path d="M221.156 38.45H40.062c-4.203 0-7.609-3.407-7.609-7.61s3.406-7.61 7.61-7.61h181.093a7.61 7.61 0 1 1 0 15.22zm0 0" fill="#fd8f07"/><path d="M23.684 45.156h12.183c5.13 0 9.29-4.16 9.29-9.289V23.684c0-5.13-4.16-9.29-9.29-9.29H23.684a9.288 9.288 0 0 0-9.29 9.29v12.183a9.288 9.288 0 0 0 9.29 9.29zm0 0" fill="#fef5e3"/><path d="M330.066 231.688h24.93V343.71h-24.93zm0 0" fill="#6163aa"/><path d="M389.191 242.46h-93.324c-9.336 0-16.902-7.57-16.902-16.905v-31.54c0-9.335 7.566-16.902 16.902-16.902h93.324c9.336 0 16.907 7.567 16.907 16.903v31.539c0 9.336-7.57 16.906-16.907 16.906zm0 0" fill="#fda736"/><path d="M406.098 194.016v31.543c0 9.336-7.57 16.898-16.907 16.898h-18.27c9.34 0 16.911-7.562 16.911-16.898v-31.543c0-9.336-7.57-16.907-16.91-16.907h18.27c9.335 0 16.906 7.57 16.906 16.907zm0 0" fill="#fd8f07"/><path d="M311.98 217.398h-.109a7.612 7.612 0 0 1 0-15.222h.11a7.612 7.612 0 0 1 0 15.223zm0 0M373.191 217.398h-.113a7.612 7.612 0 0 1 0-15.223h.113a7.612 7.612 0 0 1 0 15.223zm0 0" fill="#2de0c7"/><path d="M353.254 273.77h-21.445a7.612 7.612 0 0 1 0-15.223h21.445a7.609 7.609 0 0 1 7.61 7.61 7.61 7.61 0 0 1-7.61 7.613zm0 0M353.254 299.676h-21.445a7.612 7.612 0 0 1-7.61-7.614 7.61 7.61 0 0 1 7.61-7.613h21.445c4.203 0 7.61 3.41 7.61 7.614s-3.407 7.613-7.61 7.613zm0 0" fill="#4e5093"/><path d="M480.246 456.46H45.914c-7.266 0-12.441-7.054-10.281-13.983l4.383-14.028 3.804-12.176 28.176-90.234a10.757 10.757 0 0 1 10.281-7.559h361.606a10.76 10.76 0 0 1 10.281 7.56l28.172 90.233 3.809 12.176 4.382 14.028c2.16 6.93-3.015 13.984-10.28 13.984zm0 0" fill="#fef5e3"/><path d="M480.246 456.46H45.914c-7.266 0-12.441-7.054-10.281-13.983l4.383-14.028 3.804-12.176h438.516l3.805 12.176 4.386 14.028c2.16 6.93-3.015 13.984-10.28 13.984zm0 0" fill="#ffe5c0"/><path d="M480.246 456.46H45.914c-7.266 0-12.441-7.054-10.281-13.983l4.383-14.028H486.14l4.382 14.028c2.164 6.93-3.011 13.984-10.277 13.984zm0 0" fill="#fd8f07"/><path d="M166.18 461.598c0 23.636-19.16 42.8-42.797 42.8-23.637 0-42.801-19.164-42.801-42.8 0-23.637 19.164-42.797 42.8-42.797 23.638 0 42.798 19.16 42.798 42.797zm0 0" fill="#383c7c"/><path d="M139.387 461.598c0 8.84-7.164 16.007-16.004 16.007-8.84 0-16.008-7.168-16.008-16.007s7.168-16.004 16.008-16.004 16.004 7.164 16.004 16.004zm0 0" fill="#fd8f07"/><path d="M307.324 461.598c0 23.636-19.16 42.8-42.797 42.8-23.636 0-42.8-19.164-42.8-42.8 0-23.637 19.164-42.797 42.8-42.797 23.637 0 42.797 19.16 42.797 42.797zm0 0" fill="#383c7c"/><path d="M280.531 461.598c0 8.84-7.164 16.007-16.004 16.007s-16.007-7.168-16.007-16.007 7.167-16.004 16.007-16.004 16.004 7.164 16.004 16.004zm0 0" fill="#fd8f07"/><path d="M448.469 461.598c0 23.636-19.16 42.8-42.797 42.8-23.64 0-42.8-19.164-42.8-42.8 0-23.637 19.16-42.797 42.8-42.797 23.637 0 42.797 19.16 42.797 42.797zm0 0" fill="#383c7c"/><g fill="#fd8f07"><path d="M421.676 461.598c0 8.84-7.164 16.007-16.004 16.007s-16.008-7.168-16.008-16.007 7.168-16.004 16.008-16.004 16.004 7.164 16.004 16.004zm0 0M123.441 403.445h-.18a7.612 7.612 0 0 1-7.542-7.68 7.61 7.61 0 0 1 7.61-7.542h.179a7.612 7.612 0 0 1-.067 15.222zm0 0M264.582 403.445h-.18a7.612 7.612 0 0 1 .07-15.222h.18a7.615 7.615 0 0 1 7.543 7.68 7.616 7.616 0 0 1-7.613 7.542zm0 0M405.727 403.445h-.18a7.612 7.612 0 0 1 .066-15.222h.18a7.618 7.618 0 0 1 7.547 7.68 7.616 7.616 0 0 1-7.613 7.542zm0 0"/></g><path d="M465.469 287.809a7.612 7.612 0 0 1-7.61-7.614v-32.59a7.612 7.612 0 0 1 7.61-7.613h38.922c4.203 0 7.609 3.41 7.609 7.613s-3.406 7.614-7.61 7.614h-31.308v24.976a7.613 7.613 0 0 1-7.613 7.614zm0 0" fill="#4e5093"/><path d="M421.09 365.398a7.613 7.613 0 0 1-7.613-7.613v-77.59a7.61 7.61 0 0 1 7.613-7.613h72.527a7.612 7.612 0 0 1 0 15.223H428.7v69.98a7.61 7.61 0 0 1-7.61 7.613zm0 0" fill="#6163aa"/><path d="M437.738 280.195c0 9.196-7.453 16.649-16.648 16.649s-16.649-7.453-16.649-16.649c0-9.195 7.454-16.648 16.649-16.648s16.648 7.453 16.648 16.648zm0 0" fill="#fef5e3"/><path d="M474.074 374.18h-73.043c-8.414 0-15.234-6.82-15.234-15.235 0-8.414 6.82-15.234 15.234-15.234h73.043c8.414 0 15.235 6.82 15.235 15.234s-6.82 15.235-15.235 15.235zm0 0" fill="#fda736"/><path d="M165.68 369.563h-43.274c-5.601 0-10.148-4.543-10.148-10.149v-5.555c0-5.605 4.547-10.148 10.148-10.148h43.274c5.605 0 10.148 4.543 10.148 10.148v5.555c0 5.606-4.543 10.149-10.148 10.149zm0 0" fill="#2de0c7"/><path d="M244.766 353.477H200.41a7.61 7.61 0 0 1-7.61-7.614c0-4.203 3.41-7.61 7.61-7.61h44.356a7.612 7.612 0 1 1 0 15.224zm0 0M218.914 372.863h-18.5a7.612 7.612 0 1 1 0-15.222h18.5a7.612 7.612 0 0 1 0 15.223zm0 0" fill="#4e5093"/></svg>