<svg xmlns="http://www.w3.org/2000/svg" viewBox="0 0 129.217 129.217"><path fill="#fffbd7" d="M90.336 64.607l-25.728 63.11-25.728-63.11L64.608 1.5z"/><path fill="#f9f07d" d="M82.836 64.607l-18.228 63.11-18.228-63.11L64.608 1.5z"/><path fill="#ffd00b" d="M74.196 64.607l-9.588 63.11-9.588-63.11L64.608 1.5z"/><path d="M91.725 64.041L65.997.934c-.013-.033-.038-.058-.053-.089a1.434 1.434 0 0 0-.098-.165 1.714 1.714 0 0 0-.326-.356 1.423 1.423 0 0 0-.279-.165c-.049-.023-.093-.051-.144-.069-.156-.055-.319-.09-.489-.09s-.333.035-.488.089c-.051.018-.095.046-.144.069a1.529 1.529 0 0 0-.279.165 1.416 1.416 0 0 0-.134.122 1.495 1.495 0 0 0-.192.234 1.434 1.434 0 0 0-.098.165c-.015.031-.04.056-.053.089L37.492 64.041c-.148.363-.148.77 0 1.133l25.728 63.109c.013.033.038.058.053.089.029.059.062.111.098.165a1.714 1.714 0 0 0 .326.356c.086.067.18.119.279.165.049.023.093.051.144.069.155.054.318.089.488.089s.333-.035.488-.089c.051-.018.095-.046.144-.069.099-.047.193-.099.279-.165.049-.038.091-.079.134-.122.072-.071.135-.149.192-.234.036-.054.069-.106.098-.165.015-.031.04-.056.053-.089l25.729-63.109c.149-.363.149-.77 0-1.133zm-34.96-.932l7.843-51.623 7.843 51.623H56.765zm15.685 3l-7.842 51.621-7.842-51.621H72.45zm-18.72-3H41.111l20.115-49.342-7.496 49.342zm.001 3l7.496 49.339-20.114-49.339h12.618zm21.754 0h12.619l-20.115 49.34 7.496-49.34zm.001-3l-7.497-49.342 20.116 49.342H75.486zM118.774 66.111h-.992a1.5 1.5 0 1 1 0-3h.992a1.5 1.5 0 1 1 0 3zM108.741 66.111l-5.824-.001a1.5 1.5 0 1 1 0-3l5.824.001a1.5 1.5 0 1 1 0 3zM112.448 38.751a1.5 1.5 0 0 1-1.067-2.555l.701-.709a1.5 1.5 0 0 1 2.133 2.109l-.701.709a1.49 1.49 0 0 1-1.066.446zM101.932 49.263a1.5 1.5 0 0 1-1.06-2.562L105 42.579a1.5 1.5 0 0 1 2.119 2.123l-4.127 4.122a1.495 1.495 0 0 1-1.06.439zM113.149 94.175c-.384 0-.768-.146-1.061-.439l-.705-.705a1.5 1.5 0 1 1 2.121-2.121l.705.705a1.5 1.5 0 0 1-1.06 2.56zM106.057 87.08c-.384 0-.767-.146-1.06-.438l-4.127-4.12a1.5 1.5 0 1 1 2.119-2.123l4.127 4.12a1.5 1.5 0 0 1-1.059 2.561zM11.435 66.105h-.992a1.5 1.5 0 1 1 0-3h.992a1.5 1.5 0 1 1 0 3zM26.3 66.106l-5.824-.001a1.5 1.5 0 1 1 0-3l5.824.001a1.5 1.5 0 1 1 0 3zM16.068 94.175a1.5 1.5 0 0 1-1.067-2.555l.701-.709a1.5 1.5 0 0 1 2.133 2.109l-.701.709a1.492 1.492 0 0 1-1.066.446zM23.158 87.077a1.5 1.5 0 0 1-1.061-2.561l4.127-4.123a1.5 1.5 0 0 1 2.121 2.122l-4.127 4.123a1.493 1.493 0 0 1-1.06.439zM16.773 38.748c-.384 0-.769-.146-1.062-.44l-.705-.706a1.5 1.5 0 0 1 2.123-2.121l.705.706a1.5 1.5 0 0 1-1.061 2.561zM27.287 49.257c-.384 0-.767-.146-1.06-.438l-4.127-4.12a1.5 1.5 0 0 1 2.119-2.123l4.127 4.119a1.5 1.5 0 0 1-1.059 2.562z" fill="#33363a"/></svg>