<svg height="511pt" viewBox="0 0 512 511" width="511pt" xmlns="http://www.w3.org/2000/svg"><path d="M472.129 216.113c0 141.254-115.262 256.516-256.516 256.516-89.843 0-168.898-46.191-214.707-116.113-2.933-4.477 1.793-9.993 6.645-7.739 32.82 15.254 69.402 23.774 107.988 23.774 142.059-.004 256.512-114.457 256.512-256.516 0-38.582-8.52-75.164-23.774-107.984-2.254-4.852 3.262-9.578 7.739-6.645 69.925 45.809 116.113 124.86 116.113 214.707zm0 0" fill="#fed370"/><path d="M472.125 216.117c0 141.25-115.258 256.508-256.508 256.508-78.73 0-149.172-35.46-196.222-91.29 44.632 37.622 102.289 60.294 165.23 60.306 141.25 0 256.516-115.27 256.516-256.52-.008-62.941-22.68-120.598-60.301-165.23 55.824 47.05 91.285 117.492 91.285 196.226zm0 0M83.012 237.363h-.04a7.612 7.612 0 0 1-7.574-7.648l.016-2.883a7.612 7.612 0 0 1 7.61-7.578h.038a7.612 7.612 0 0 1 7.575 7.648l-.016 2.887a7.609 7.609 0 0 1-7.61 7.574zm0 0M82.922 266.738h-.04a7.612 7.612 0 0 1-7.573-7.648l.015-2.887a7.609 7.609 0 0 1 7.61-7.574h.039a7.612 7.612 0 0 1 7.574 7.648l-.016 2.887a7.609 7.609 0 0 1-7.61 7.574zm0 0M99.105 250.66h-.039l-2.886-.012a7.612 7.612 0 0 1 .035-15.222h.039l2.887.012a7.612 7.612 0 0 1-.036 15.222zm0 0M69.73 250.57h-.039l-2.886-.015a7.609 7.609 0 0 1-7.575-7.645 7.615 7.615 0 0 1 7.61-7.578h.039l2.887.016a7.612 7.612 0 0 1-.036 15.222zm0 0" fill="#fda736"/><path d="M159.797 194.074h-.035a7.61 7.61 0 0 1-7.578-7.644l.015-2.887a7.61 7.61 0 0 1 7.61-7.578h.035a7.615 7.615 0 0 1 7.578 7.648l-.016 2.887a7.609 7.609 0 0 1-7.61 7.574zm0 0M159.707 223.45h-.039a7.612 7.612 0 0 1-7.574-7.65l.011-2.886a7.612 7.612 0 0 1 7.614-7.574h.035a7.613 7.613 0 0 1 7.578 7.648l-.016 2.887a7.614 7.614 0 0 1-7.609 7.574zm0 0M175.887 207.371h-.04l-2.882-.016a7.61 7.61 0 0 1-7.578-7.644c.023-4.191 3.425-7.578 7.613-7.578h.04l2.882.015a7.612 7.612 0 0 1-.035 15.223zm0 0M146.512 207.281h-.035l-2.887-.015a7.612 7.612 0 0 1-7.574-7.649c.02-4.203 3.414-7.61 7.648-7.574l2.883.016a7.613 7.613 0 0 1 7.578 7.648c-.02 4.188-3.426 7.574-7.613 7.574zm0 0" fill="#fed370"/><g fill="#fda736"><path d="M472.168 379.082h-.04a7.61 7.61 0 0 1-7.573-7.648l.015-2.883a7.612 7.612 0 0 1 7.61-7.578h.039a7.615 7.615 0 0 1 7.574 7.648l-.016 2.887a7.609 7.609 0 0 1-7.609 7.574zm0 0M472.078 408.457h-.039a7.612 7.612 0 0 1-7.574-7.648l.012-2.887a7.612 7.612 0 0 1 7.613-7.574h.035a7.615 7.615 0 0 1 7.578 7.648l-.015 2.887a7.611 7.611 0 0 1-7.61 7.574zm0 0M488.258 392.379h-.035l-2.887-.012a7.612 7.612 0 0 1 .035-15.222h.04l2.886.011a7.612 7.612 0 0 1-.04 15.223zm0 0M458.887 392.29h-.04l-2.886-.017a7.609 7.609 0 0 1-7.574-7.644 7.615 7.615 0 0 1 7.61-7.578h.038l2.887.015a7.612 7.612 0 0 1-.035 15.223zm0 0M81.035 483.125H81a7.613 7.613 0 0 1-7.578-7.648l.016-2.883a7.61 7.61 0 0 1 7.609-7.578h.035a7.613 7.613 0 0 1 7.578 7.648l-.012 2.887a7.615 7.615 0 0 1-7.613 7.574zm0 0M80.945 512.5h-.035a7.613 7.613 0 0 1-7.578-7.648l.012-2.887a7.612 7.612 0 0 1 7.613-7.574h.035a7.613 7.613 0 0 1 7.578 7.648l-.015 2.883a7.612 7.612 0 0 1-7.61 7.578zm0 0M97.125 496.422h-.035l-2.887-.012a7.612 7.612 0 0 1-7.574-7.648 7.612 7.612 0 0 1 7.61-7.578h.038l2.883.015a7.61 7.61 0 0 1 7.578 7.645 7.613 7.613 0 0 1-7.613 7.578zm0 0M67.754 496.332h-.04l-2.882-.012a7.615 7.615 0 0 1-7.578-7.648 7.615 7.615 0 0 1 7.613-7.578h.035l2.887.015a7.609 7.609 0 0 1 7.574 7.645 7.615 7.615 0 0 1-7.61 7.578zm0 0"/></g><path d="M488.297 19.523h-.04a7.612 7.612 0 0 1-7.573-7.648l.015-2.887a7.609 7.609 0 0 1 7.61-7.574h.039a7.61 7.61 0 0 1 7.574 7.649l-.012 2.886a7.617 7.617 0 0 1-7.613 7.574zm0 0M488.207 48.895h-.039a7.61 7.61 0 0 1-7.574-7.649l.015-2.883a7.612 7.612 0 0 1 7.61-7.578h.039a7.612 7.612 0 0 1 7.574 7.649l-.016 2.886a7.611 7.611 0 0 1-7.609 7.575zm0 0M504.387 32.82h-.035l-2.887-.015a7.612 7.612 0 0 1 .035-15.223h.04l2.886.012a7.615 7.615 0 0 1-.04 15.226zm0 0M475.016 32.727h-.04l-2.886-.012a7.612 7.612 0 0 1 .039-15.223h.035l2.887.012a7.61 7.61 0 0 1 7.574 7.648 7.609 7.609 0 0 1-7.61 7.575zm0 0M478.707 94.137H478.555a7.612 7.612 0 0 1-7.578-7.645 7.607 7.607 0 0 1 7.609-7.578H478.738a7.606 7.606 0 0 1 7.578 7.64 7.613 7.613 0 0 1-7.609 7.583zm0 0" fill="#fed370"/><path d="M292.613 144.176h-.117a7.609 7.609 0 1 1 0-15.219h.117a7.609 7.609 0 1 1 0 15.219zm0 0" fill="#fda736"/><path d="M368.934 472.676h-.118a7.612 7.612 0 0 1 0-15.223h.118a7.612 7.612 0 1 1 0 15.223zm0 0" fill="#fed370"/><path d="M171.707 265.047H171.559a7.606 7.606 0 0 1-7.579-7.64 7.61 7.61 0 0 1 7.61-7.583h.035l.117.004a7.609 7.609 0 0 1-.035 15.219zm0 0M155.969 309h-.149a7.61 7.61 0 0 1-7.582-7.645 7.613 7.613 0 0 1 7.614-7.578H156a7.612 7.612 0 0 1 7.578 7.645 7.61 7.61 0 0 1-7.61 7.578zm0 0" fill="#fda736"/></svg>