<svg height="512pt" viewBox="-71 0 512 512" width="512pt" xmlns="http://www.w3.org/2000/svg"><path d="M75.75 308.504L55.477 241.18c-1.168-3.875-4.739-6.532-8.786-6.532s-7.617 2.653-8.78 6.532l-20.274 67.324zm0 0M351.418 308.504l-20.273-67.324c-1.168-3.875-4.739-6.532-8.786-6.532s-7.617 2.653-8.78 6.532l-20.274 67.324zm0 0" fill="#2de0c7"/><path d="M158.234 169.238v112.774c0 5.789-4.695 10.476-10.476 10.476h-24.086c-3.77 0-7.25-2.027-9.117-5.316l-15.38-27.238a10.425 10.425 0 0 1-1.144-7.282l17.801-85.547a10.466 10.466 0 0 1 10.25-8.343h21.676c5.781 0 10.476 4.687 10.476 10.476zm0 0" fill="#383c7c"/><path d="M158.234 169.238v112.774c0 5.789-4.695 10.476-10.476 10.476h-14.524V158.762h14.524c5.781 0 10.476 4.687 10.476 10.476zm0 0" fill="#292e68"/><path d="M269.879 259.934l-15.383 27.238a10.48 10.48 0 0 1-9.117 5.316h-24.086c-5.777 0-10.477-4.687-10.477-10.476V169.238c0-5.789 4.7-10.476 10.477-10.476h21.676c4.965 0 9.242 3.48 10.25 8.343l17.8 85.547a10.441 10.441 0 0 1-1.14 7.282zm0 0" fill="#383c7c"/><path d="M235.82 158.762v133.726h-14.527c-5.777 0-10.477-4.687-10.477-10.476V169.238c0-5.789 4.7-10.476 10.477-10.476zm0 0" fill="#292e68"/><path d="M369.05 306.035v87.207c0 5.79-4.687 10.477-10.476 10.477H221.11V270.566l18.727 5.77 91.101 28.082v-5.54c0-7.472 7.602-12.55 14.504-9.663l17.164 7.148a10.472 10.472 0 0 1 6.446 9.672zm0 0" fill="#898ec9"/><path d="M261.809 352.445l-28.586 34.328a22.68 22.68 0 0 1-12.118 7.559V270.566l18.73 5.77 24.981 51.531c3.907 8.055 2.723 17.695-3.007 24.578zm0 0" fill="#6163aa"/><path d="M147.945 270.566V403.72H10.477A10.473 10.473 0 0 1 0 393.242v-87.207c0-4.234 2.547-8.047 6.45-9.672l17.163-7.148c6.903-2.887 14.504 2.191 14.504 9.664v5.539l91.098-28.082zm0 0" fill="#898ec9"/><path d="M129.215 276.336l18.73-5.77v123.766a22.695 22.695 0 0 1-12.117-7.559l-28.586-34.328c-5.726-6.882-6.914-16.523-3.008-24.578zm0 0" fill="#6163aa"/><path d="M145.668 292.52l-28.566 8.808-58.114 17.902c-3.234 1-5.449 4-5.449 7.387v27.64a7.729 7.729 0 0 0 7.727 7.727h86.68V292.18c-.762 0-1.524.113-2.278.34zm-5.45 54.011H68.993v-14.215l38.887-11.98 32.34-9.965zm0 0" fill="#2de0c7"/><path d="M147.945 292.18v69.804h-32.761l-7.942-9.539a22.63 22.63 0 0 1-3.566-5.914h36.543v-36.156l-32.34 9.96 9.223-19.007 28.566-8.808a7.888 7.888 0 0 1 2.277-.34zm0 0" fill="#00c2cc"/><path d="M310.063 319.23l-58.114-17.902-28.566-8.808a7.849 7.849 0 0 0-2.278-.34v69.804h86.68a7.729 7.729 0 0 0 7.727-7.726v-27.64a7.731 7.731 0 0 0-5.45-7.388zm-10 27.301h-71.227v-36.16l32.336 9.965 38.887 11.98v14.215zm0 0" fill="#2de0c7"/><path d="M265.375 346.531a22.511 22.511 0 0 1-3.563 5.914l-7.945 9.54H221.11V292.18c.762 0 1.524.113 2.278.34l28.566 8.808 9.219 19.008-32.336-9.965v36.16zm0 0" fill="#00c2cc"/><path d="M171.938 512h25.175c4.606 0 8.668-3.004 10.016-7.402l16.402-53.489a10.48 10.48 0 0 0-1.969-9.777l-16.703-20.05h-40.668l-16.703 20.05a10.467 10.467 0 0 0-1.965 9.777l16.399 53.489A10.48 10.48 0 0 0 171.938 512zm0 0" fill="#4e5093"/><path d="M223.457 89.398v325.024c0 5.777-4.7 10.476-10.477 10.476h-56.906c-5.781 0-10.476-4.699-10.476-10.476V10.477c0-5.79 4.695-10.477 10.476-10.477h30.957c5.778 0 10.477 4.688 10.477 10.477v53.507c0 4.09 2.367 7.797 6.066 9.508l13.805 6.399a10.463 10.463 0 0 1 6.078 9.507zm0 0" fill="#6163aa"/><path d="M223.457 242.555V393.62a22.668 22.668 0 0 1-7.777 1.371h-7.418c-6.676 6.223-14.836 9.848-23.735 9.848-8.902 0-17.058-3.625-23.734-9.848h-7.418c-2.688 0-5.316-.472-7.777-1.37V242.554l9.836-20.293c3.793-7.82 11.859-12.88 20.554-12.88h17.078c8.696 0 16.762 5.06 20.551 12.88zm0 0" fill="#4e5093"/><path d="M252.313 344.535l-28.59 34.324a10.455 10.455 0 0 1-8.043 3.77H153.37c-3.11 0-6.055-1.379-8.043-3.77l-10.5-12.609-13.3-15.969-4.79-5.746c-.39-.473-.73-.969-1.039-1.484a10.506 10.506 0 0 1-.34-9.785l7.305-15.063 43.895-90.55a10.484 10.484 0 0 1 9.425-5.907h17.082c4.016 0 7.672 2.3 9.426 5.906l3.5 7.22 5.832 12.042 4.278 8.8 9.546 19.72 28.043 57.832a10.468 10.468 0 0 1-1.379 11.27zm0 0" fill="#2de0c7"/><path d="M211.824 246.914L115.7 343.051a10.506 10.506 0 0 1-.34-9.785l7.305-15.063 83.332-83.332zm0 0M225.652 275.43l-90.824 90.82-13.297-15.969 94.57-94.57zm0 0" fill="#9bf2e5"/><path d="M171.605 50.328a7.729 7.729 0 0 1-7.726-7.726v-7.684c0-4.266 3.46-7.727 7.726-7.727s7.727 3.461 7.727 7.727v7.684a7.726 7.726 0 0 1-7.727 7.726zm0 0M171.605 85.336a7.726 7.726 0 0 1-7.726-7.727v-7.68c0-4.269 3.46-7.726 7.726-7.726s7.727 3.457 7.727 7.727v7.68a7.724 7.724 0 0 1-7.727 7.726zm0 0M171.605 120.348a7.729 7.729 0 0 1-7.726-7.727v-7.683c0-4.266 3.46-7.727 7.726-7.727s7.727 3.46 7.727 7.727v7.683a7.726 7.726 0 0 1-7.727 7.727zm0 0M171.605 155.355a7.729 7.729 0 0 1-7.726-7.726v-7.684c0-4.265 3.46-7.722 7.726-7.722s7.727 3.457 7.727 7.722v7.684a7.726 7.726 0 0 1-7.727 7.726zm0 0M171.605 190.363a7.725 7.725 0 0 1-7.726-7.722v-7.684a7.726 7.726 0 1 1 15.453 0v7.684a7.723 7.723 0 0 1-7.727 7.722zm0 0" fill="#fef5e3"/><g fill="#383c7c"><path d="M213.488 349.09c0-23.965-12.965-43.39-28.96-43.39s-28.965 19.425-28.965 43.39 12.968 43.39 28.964 43.39 28.961-19.425 28.961-43.39zm0 0M90.871 403.719c0 13.219-10.715 23.933-23.933 23.933s-23.934-10.715-23.934-23.933 10.715-23.934 23.934-23.934S90.87 390.5 90.87 403.72zm0 0M326.05 403.719c0 13.219-10.718 23.933-23.937 23.933s-23.933-10.715-23.933-23.933 10.715-23.934 23.933-23.934 23.938 10.715 23.938 23.934zm0 0M24.305 380.652h-.106a7.726 7.726 0 0 1-7.726-7.726 7.724 7.724 0 0 1 7.726-7.727h.106c4.27 0 7.726 3.461 7.726 7.727s-3.457 7.726-7.726 7.726zm0 0M24.309 361.008h-.184a7.729 7.729 0 0 1-7.652-7.801 7.725 7.725 0 0 1 7.722-7.652h.184a7.726 7.726 0 0 1 7.652 7.797 7.728 7.728 0 0 1-7.722 7.656zm0 0M344.855 380.652h-.109a7.726 7.726 0 0 1-7.726-7.726c0-4.27 3.46-7.727 7.726-7.727h.11c4.265 0 7.726 3.461 7.726 7.727s-3.46 7.726-7.727 7.726zm0 0M344.855 361.008h-.18a7.726 7.726 0 1 1 .07-15.453h.181a7.729 7.729 0 0 1 7.656 7.797 7.729 7.729 0 0 1-7.727 7.656zm0 0"/></g></svg>