<svg height="512pt" viewBox="0 -46 512 512" width="512pt" xmlns="http://www.w3.org/2000/svg"><path d="M321.938 211.781c0 19.614-3.497 38.41-9.915 55.793a160.713 160.713 0 0 1-23.476 42.387c-29.426 38.203-75.617 62.797-127.57 62.797-66.473 0-123.532-40.278-148.094-97.766a160.292 160.292 0 0 1-5.649-15.347C2.535 244.523 0 228.449 0 211.78c0-.5 0-.988.012-1.504.355-39.89 15.242-76.32 39.613-104.254C69.129 72.2 112.563 50.82 160.973 50.82c88.898 0 160.964 72.067 160.964 160.961zm0 0" fill="#fda736"/><path d="M238.79 248.781H127.636a7.674 7.674 0 1 1 0-15.347h111.152a7.674 7.674 0 0 1 0 15.347zm0 0" fill="#fd8f07"/><path d="M321.941 211.785c0 19.613-3.504 38.403-9.921 55.785a160.697 160.697 0 0 1-23.473 42.395c-29.426 38.195-75.621 62.797-127.57 62.797-49.735 0-94.204-22.547-123.715-57.989 27.91 23.274 63.816 37.262 102.992 37.262 51.945 0 98.14-24.598 127.566-62.797a160.82 160.82 0 0 0 23.477-42.394c6.414-17.38 9.922-36.172 9.922-55.785 0-39.172-14.004-75.082-37.262-102.98 35.438 29.515 57.984 73.98 57.984 123.706zm0 0" fill="#fd8f07"/><path d="M312.02 267.57a160.709 160.709 0 0 1-23.477 42.395h-86.445c-11.7 0-21.196-9.488-21.196-21.2 0-11.706 9.496-21.195 21.196-21.195zm0 0M180.902 185.605a24.57 24.57 0 0 1-7.23 17.45 24.543 24.543 0 0 1-17.438 7.23H.012c.355-39.894 15.238-76.332 39.605-104.265h51.73c15.16 0 27.454 12.296 27.454 27.453 0 7.586 3.07 14.437 8.043 19.41 4.972 4.972 11.824 8.043 19.41 8.043h9.976c13.625 0 24.672 11.054 24.672 24.68zm0 0" fill="#fed370"/><path d="M508.477 211.79c0 78.241-63.426 141.667-141.664 141.667-78.243 0-141.668-63.426-141.668-141.668S288.57 70.121 366.812 70.121c78.239 0 141.665 63.426 141.665 141.668zm0 0" fill="#6163aa"/><path d="M508.48 211.785c0 78.242-63.425 141.668-141.671 141.668-45.715 0-86.364-21.64-112.27-55.246 23.922 18.457 53.906 29.434 86.457 29.434 78.242 0 141.672-63.418 141.672-141.66 0-32.54-10.965-62.524-29.41-86.434 33.59 25.906 55.222 66.547 55.222 112.238zm0 0" fill="#4e5093"/><path d="M113.906 317.637h-.164a7.677 7.677 0 0 1-7.648-7.703 7.675 7.675 0 0 1 7.676-7.645h.164a7.673 7.673 0 0 1 7.644 7.7 7.673 7.673 0 0 1-7.672 7.648zm0 0" fill="#fd8f07"/><path d="M91.063 311.527h-.168a7.674 7.674 0 0 1 .027-15.347h.167a7.674 7.674 0 0 1-.026 15.347zm0 0" fill="#fed370"/><path d="M218.844 113.695h-.028l-.136-.004c-4.239-.011-7.66-3.46-7.649-7.699.016-4.238 3.414-7.676 7.703-7.644h.137a7.676 7.676 0 0 1 7.649 7.699 7.676 7.676 0 0 1-7.676 7.648zm0 0" fill="#fd8f07"/><path d="M54.613 267.316a7.673 7.673 0 0 1-7.672 7.672H12.883a159.831 159.831 0 0 1-5.649-15.343h39.707a7.675 7.675 0 0 1 7.672 7.671zm0 0" fill="#fed370"/><path d="M54.64 144.629h-.163a7.677 7.677 0 0 1-7.649-7.703 7.675 7.675 0 0 1 7.676-7.645h.164a7.674 7.674 0 0 1 7.644 7.703 7.672 7.672 0 0 1-7.671 7.645zm0 0" fill="#fd8f07"/><path d="M451.285 163.563c0 13.757-11.156 24.91-24.914 24.91-13.758 0-24.91-11.153-24.91-24.91 0-13.762 11.152-24.915 24.91-24.915 13.758 0 24.914 11.153 24.914 24.915zm0 0" fill="#4e5093"/><path d="M451.281 163.563c0 13.75-11.152 24.914-24.914 24.914-13.75 0-24.902-11.16-24.902-24.915 0-3.117.574-6.105 1.629-8.859 3.57 9.383 12.644 16.043 23.273 16.043 10.64 0 19.715-6.66 23.285-16.043a24.724 24.724 0 0 1 1.63 8.86zm0 0" fill="#383c7c"/><path d="M389.785 232.105c0 8.907-7.219 16.125-16.125 16.125s-16.129-7.218-16.129-16.125 7.223-16.128 16.13-16.128 16.124 7.222 16.124 16.128zm0 0" fill="#4e5093"/><path d="M389.79 232.102c0 8.91-7.224 16.125-16.134 16.125-8.898 0-16.125-7.215-16.125-16.125 0-2.934.79-5.688 2.16-8.063 2.793 4.828 8 8.063 13.965 8.063a16.078 16.078 0 0 0 13.965-8.063 15.968 15.968 0 0 1 2.168 8.063zm0 0" fill="#383c7c"/><path d="M366.879 176.523h-.137a7.674 7.674 0 1 1 0-15.347h.137a7.674 7.674 0 0 1 7.672 7.676c.004 4.234-3.434 7.671-7.672 7.671zm0 0M378.406 153.508h-.027l-.14-.004a7.673 7.673 0 0 1 .027-15.344h.168a7.67 7.67 0 0 1 7.644 7.7 7.67 7.67 0 0 1-7.672 7.648zm0 0" fill="#4e5093"/><path d="M428.672 382.559h-.04a7.674 7.674 0 0 1-7.636-7.711l.016-2.946a7.673 7.673 0 0 1 7.672-7.636h.035a7.671 7.671 0 0 1 7.636 7.71l-.011 2.946a7.673 7.673 0 0 1-7.672 7.637zm0 0M428.578 412.555h-.039a7.676 7.676 0 0 1-7.637-7.711l.016-2.946a7.673 7.673 0 0 1 7.672-7.636h.039a7.676 7.676 0 0 1 7.637 7.71l-.016 2.946a7.67 7.67 0 0 1-7.672 7.637zm0 0M445.102 396.137h-.036l-2.945-.016a7.67 7.67 0 0 1-7.637-7.707 7.67 7.67 0 0 1 7.672-7.637h.035l2.946.012a7.671 7.671 0 0 1 7.636 7.711 7.67 7.67 0 0 1-7.671 7.637zm0 0M415.105 396.047h-.035l-2.949-.016a7.676 7.676 0 0 1-7.637-7.71c.024-4.223 3.454-7.637 7.672-7.637h.04l2.945.015c4.238.02 7.66 3.473 7.636 7.707a7.674 7.674 0 0 1-7.672 7.64zm0 0" fill="#6163aa"/><path d="M487.895 344.719h-.036a7.674 7.674 0 0 1-7.636-7.711l.011-2.945a7.675 7.675 0 0 1 7.672-7.637h.04a7.67 7.67 0 0 1 7.636 7.707l-.016 2.949a7.673 7.673 0 0 1-7.671 7.637zm0 0M487.805 374.715h-.04a7.674 7.674 0 0 1-7.636-7.711l.016-2.945a7.67 7.67 0 0 1 7.671-7.637h.036a7.67 7.67 0 0 1 7.636 7.707l-.011 2.95c-.024 4.222-3.454 7.636-7.672 7.636zm0 0M504.328 358.297h-.039l-2.945-.016a7.674 7.674 0 0 1 .035-15.347h.039l2.945.015a7.674 7.674 0 0 1-.035 15.348zm0 0M474.332 358.203h-.035l-2.95-.015a7.673 7.673 0 0 1 .035-15.344h.04l2.945.011a7.674 7.674 0 0 1-.035 15.348zm0 0" fill="#898ec9"/><g fill="#fda736"><path d="M34.082 52.836h-.035a7.674 7.674 0 0 1-7.637-7.711l.012-2.945c.02-4.239 3.484-7.645 7.71-7.637a7.67 7.67 0 0 1 7.638 7.707l-.012 2.95a7.679 7.679 0 0 1-7.676 7.636zm0 0M33.988 82.832h-.035a7.674 7.674 0 0 1-7.637-7.71l.012-2.946c.024-4.227 3.453-7.64 7.676-7.64h.035a7.676 7.676 0 0 1 7.637 7.71l-.016 2.95a7.673 7.673 0 0 1-7.672 7.636zm0 0M50.516 66.414h-.04l-2.945-.016a7.674 7.674 0 0 1 .035-15.347h.036l2.949.015a7.674 7.674 0 0 1-.035 15.348zm0 0M20.52 66.32h-.04l-2.945-.015a7.673 7.673 0 0 1 .035-15.344h.035l2.95.012a7.674 7.674 0 0 1-.035 15.347zm0 0"/></g><path d="M346.547 396.215a7.673 7.673 0 0 1-7.672-7.672v-.117c0-4.238 3.434-7.672 7.672-7.672s7.676 3.434 7.676 7.672v.117a7.676 7.676 0 0 1-7.676 7.672zm0 0M357.535 420.273a7.674 7.674 0 0 1-7.676-7.671v-.118a7.674 7.674 0 0 1 7.676-7.671 7.67 7.67 0 0 1 7.672 7.671v.118a7.67 7.67 0 0 1-7.672 7.671zm0 0" fill="#898ec9"/><path d="M273.234 52.89a7.674 7.674 0 0 1-7.675-7.671v-.114a7.674 7.674 0 0 1 15.348 0v.114a7.67 7.67 0 0 1-7.673 7.672zm0 0" fill="#4e5093"/><path d="M54.64 390.277a7.67 7.67 0 0 1-7.671-7.672v-.117c0-4.238 3.433-7.672 7.672-7.672s7.672 3.434 7.672 7.672v.117a7.67 7.67 0 0 1-7.672 7.672zm0 0M93.816 29.348a7.677 7.677 0 0 1-7.675-7.641v-.113a7.674 7.674 0 0 1 7.64-7.707h.035a7.674 7.674 0 0 1 7.672 7.64v.114a7.674 7.674 0 0 1-7.64 7.707h-.032zm0 0M111.574 15.46a7.673 7.673 0 0 1-7.672-7.67v-.118A7.673 7.673 0 0 1 111.574 0a7.674 7.674 0 0 1 7.676 7.672v.117a7.676 7.676 0 0 1-7.676 7.672zm0 0" fill="#fd8f07"/></svg>