<svg height="512pt" viewBox="-14 0 512 512" width="512pt" xmlns="http://www.w3.org/2000/svg"><path d="M26.156 255.063c0 54.07 19.535 103.574 51.93 141.84.008.011.008.011.02.019 40.289 47.574 100.46 77.777 167.687 77.777 59.918 0 114.219-23.98 153.844-62.883 35.87-35.207 59.718-82.644 64.777-135.562a219.783 219.783 0 0 0 1.012-21.192c0-67.222-30.2-127.394-77.774-167.683a219.429 219.429 0 0 0-44.254-29.129c-29.402-14.61-62.546-22.824-97.605-22.824-91.344 0-169.668 55.758-202.781 135.101-10.86 26.032-16.856 54.578-16.856 84.535zm0 0" fill="#9bf2e5"/><path d="M26.156 255.063c0 54.07 19.535 103.574 51.93 141.84.008.011.008.011.02.019 40.289 47.574 100.46 77.777 167.687 77.777V35.43c-91.348 0-169.668 55.755-202.781 135.102-10.86 26.028-16.856 54.574-16.856 84.531zm0 0" fill="#5100cb"/><path d="M245.793 474.7c59.918 0 114.219-23.981 153.844-62.884 35.87-35.207 59.718-82.644 64.777-135.562a219.783 219.783 0 0 0 1.012-21.191c0-67.223-30.2-127.395-77.774-167.684h-.011c32.382 38.266 51.918 87.758 51.918 141.816 0 7.145-.336 14.207-1.012 21.188-5.063 52.918-28.906 100.355-64.781 135.566-39.625 38.887-93.926 62.88-153.844 62.88-54.067 0-103.55-19.532-141.817-51.907 40.29 47.574 100.461 77.777 167.688 77.777zm0 0" fill="#2de0c7"/><path d="M204.52 129.152v40.028c0 26.132 17.417 48.199 41.273 55.23a57.701 57.701 0 0 0 16.273 2.328h38.426a9.702 9.702 0 0 1 6.895 2.86l23.117 23.105a9.755 9.755 0 0 0 6.894 2.856h29.192a9.776 9.776 0 0 1 6.89 2.859l14.98 14.98a9.735 9.735 0 0 0 6.895 2.856h69.06a219.762 219.762 0 0 0 1.01-21.188c0-67.238-30.202-127.41-77.777-167.687h-.007a219.856 219.856 0 0 0-44.246-29.125v65.715a9.768 9.768 0 0 1-2.856 6.894l-17.09 17.078a9.705 9.705 0 0 1-6.89 2.856h-26.336a9.74 9.74 0 0 1-9.75-9.75V97.414c0-5.398-4.375-9.762-9.762-9.762h-35.578a9.75 9.75 0 0 0-8.16 4.407l-20.848 31.738a9.707 9.707 0 0 0-1.605 5.355zm0 0" fill="#84e507"/><path d="M245.793 224.41V87.652h-10.66a9.748 9.748 0 0 0-8.156 4.407L206.125 123.8a9.68 9.68 0 0 0-1.602 5.351v40.028c-.003 26.132 17.415 48.199 41.27 55.23zm0 0" fill="#898ec9"/><path d="M438.547 250.383a217.945 217.945 0 0 1-4.05 25.87h29.917a219.783 219.783 0 0 0 1.012-21.19c0-67.235-30.203-127.407-77.778-167.684h-.007c32.382 38.266 51.918 87.758 51.918 141.816 0 7.149-.34 14.211-1.012 21.188zm0 0" fill="#69cc00"/><path d="M26.156 255.063c0 54.082 19.543 103.593 51.95 141.859l.011.012c40.29 47.574 100.45 77.765 167.676 77.765 59.918 0 114.219-23.98 153.844-62.883h-81.551a9.739 9.739 0 0 1-6.895-2.855l-20.902-20.902a9.739 9.739 0 0 1-2.855-6.895v-75.437c0-5.375-4.375-9.75-9.762-9.75h-116.93a9.742 9.742 0 0 1-6.894-2.86l-23.36-23.36a9.736 9.736 0 0 1-2.855-6.902V210.84a9.742 9.742 0 0 0-2.86-6.895l-30.558-30.547a9.75 9.75 0 0 0-6.895-2.867H43.012c-10.86 26.028-16.856 54.574-16.856 84.532zm0 0" fill="#84e507"/><path d="M341.973 411.816c-34.903 23.371-76.88 37.012-122.051 37.012-54.067 0-103.54-19.531-141.809-51.894 40.293 47.574 100.453 77.765 167.68 77.765 59.918 0 114.219-23.98 153.844-62.883zm0 0" fill="#69cc00"/><path d="M245.793 295.977v178.722c-67.227 0-127.387-30.191-167.676-77.765l-.012-.012c-32.406-38.266-51.949-87.777-51.949-141.86 0-29.957 5.996-58.503 16.856-84.53H87.32a9.75 9.75 0 0 1 6.895 2.866l30.558 30.547a9.755 9.755 0 0 1 2.856 6.895v52.015a9.74 9.74 0 0 0 2.86 6.903l23.359 23.36a9.736 9.736 0 0 0 6.894 2.859zm0 0" fill="#898ec9"/><path d="M245.793 447.313v27.386c-67.227 0-127.387-30.191-167.676-77.765 38.266 32.363 87.738 51.894 141.805 51.894 8.75 0 17.383-.515 25.871-1.515zm0 0" fill="#6163aa"/><path d="M316.086 349.266a7.564 7.564 0 0 1-7.563-7.563V316.73a7.563 7.563 0 0 1 7.563-7.558 7.562 7.562 0 0 1 7.559 7.558v24.973c-.004 4.176-3.387 7.563-7.56 7.563zm0 0" fill="#84e507"/><path d="M161.688 378.71a7.56 7.56 0 0 1-7.56-7.562v-.097a7.56 7.56 0 0 1 15.117 0v.097a7.563 7.563 0 0 1-7.558 7.563zm0 0" fill="#5100cb"/><path d="M413.785 230.855a7.56 7.56 0 0 1-7.558-7.558v-.102a7.557 7.557 0 0 1 7.558-7.558 7.557 7.557 0 0 1 7.559 7.558v.102a7.56 7.56 0 0 1-7.559 7.558zm0 0M399.64 246.14a7.56 7.56 0 0 1-7.562-7.558v-.102a7.56 7.56 0 0 1 7.563-7.558 7.56 7.56 0 0 1 7.558 7.558v.102a7.562 7.562 0 0 1-7.558 7.559zm0 0" fill="#69cc00"/><path d="M177.094 361.418a7.56 7.56 0 0 1-7.559-7.559v-.101a7.56 7.56 0 0 1 15.117 0v.101a7.557 7.557 0 0 1-7.558 7.559zm0 0" fill="#6163aa"/><path d="M179.012 174.813a7.56 7.56 0 0 1-7.563-7.56v-25.062a7.563 7.563 0 0 1 7.563-7.558 7.56 7.56 0 0 1 7.558 7.558v25.063a7.562 7.562 0 0 1-7.558 7.559zm0 0" fill="#898ec9"/><path d="M245.793 510.129a7.56 7.56 0 0 1-7.559-7.559V7.56a7.56 7.56 0 0 1 15.118 0V502.57a7.562 7.562 0 0 1-7.559 7.559zm0 0" fill="#ff5c3c"/><path d="M43.05 429.441h-.034a7.56 7.56 0 0 1-7.524-7.597l.016-3.035a7.557 7.557 0 0 1 7.558-7.524h.036a7.56 7.56 0 0 1 7.523 7.598l-.016 3.035a7.56 7.56 0 0 1-7.558 7.523zm0 0M42.957 460.348h-.039c-4.172-.02-7.54-3.422-7.52-7.598l.012-3.035c.024-4.16 3.403-7.524 7.559-7.524h.039a7.563 7.563 0 0 1 7.523 7.598l-.015 3.035a7.562 7.562 0 0 1-7.559 7.524zm0 0M59.984 443.43h-.039l-3.035-.016a7.56 7.56 0 0 1-7.523-7.594c.02-4.175 3.398-7.511 7.597-7.523l3.036.015a7.562 7.562 0 0 1 7.523 7.594 7.562 7.562 0 0 1-7.559 7.524zm0 0M29.074 443.336h-.035l-3.035-.016a7.559 7.559 0 0 1 .035-15.117h.035l3.04.016a7.556 7.556 0 0 1 7.519 7.594 7.557 7.557 0 0 1-7.559 7.523zm0 0" fill="#fed370"/><path d="M73.96 476.145h-.038a7.563 7.563 0 0 1-7.524-7.598l.016-3.035a7.533 7.533 0 0 1 7.598-7.524c4.172.02 7.539 3.422 7.52 7.598l-.016 3.035a7.559 7.559 0 0 1-7.555 7.524zm0 0M73.863 507.05h-.039a7.557 7.557 0 0 1-7.52-7.597l.012-3.035c.024-4.16 3.403-7.523 7.559-7.523h.04a7.56 7.56 0 0 1 7.522 7.597l-.015 3.035a7.56 7.56 0 0 1-7.559 7.524zm0 0M90.89 490.133h-.038l-3.036-.016a7.557 7.557 0 0 1-7.523-7.594c.02-4.175 3.445-7.546 7.598-7.523l3.035.016a7.559 7.559 0 0 1-.035 15.117zm0 0M59.984 490.04h-.039l-3.035-.017a7.559 7.559 0 0 1 .035-15.117h.04l3.035.016a7.56 7.56 0 0 1-.036 15.117zm0 0" fill="#fda736"/><path d="M27.613 388.04h-.11c-4.175 0-7.558-3.384-7.558-7.56s3.383-7.558 7.559-7.558h.11a7.56 7.56 0 0 1 0 15.117zm0 0M154.824 494.352h-.11a7.563 7.563 0 0 1-7.558-7.563 7.562 7.562 0 0 1 7.559-7.559h.11a7.56 7.56 0 0 1 7.558 7.56 7.56 7.56 0 0 1-7.559 7.562zm0 0" fill="#fed370"/><path d="M7.668 137.379H7.523a7.56 7.56 0 1 1 .035-15.121H7.7a7.563 7.563 0 0 1 7.528 7.594 7.563 7.563 0 0 1-7.559 7.527zm0 0" fill="#fda736"/><path d="M27.559 145.797h-.145a7.56 7.56 0 0 1 .035-15.117H27.59c4.176.015 7.543 3.418 7.527 7.59a7.563 7.563 0 0 1-7.558 7.527zm0 0" fill="#fed370"/><path d="M90.945 256.273H90.8a7.56 7.56 0 0 1 .036-15.117H90.977a7.563 7.563 0 0 1 7.527 7.594 7.562 7.562 0 0 1-7.559 7.523zm0 0" fill="#5100cb"/><path d="M73.918 288.598H73.773a7.56 7.56 0 0 1 .036-15.118h.14c4.176.016 7.543 3.418 7.528 7.59a7.563 7.563 0 0 1-7.559 7.528zm0 0" fill="#6163aa"/><path d="M128.633 152.684h-.031l-.11-.004a7.562 7.562 0 0 1-7.527-7.59 7.56 7.56 0 0 1 7.558-7.528h.145a7.56 7.56 0 0 1 7.523 7.594 7.558 7.558 0 0 1-7.558 7.528zm0 0" fill="#2500ad"/><path d="M445.734 418.844c0 28.976-23.492 52.469-52.468 52.469a52.24 52.24 0 0 1-27.977-8.075 52.821 52.821 0 0 1-11.52-9.855c-8.074-9.235-12.968-21.317-12.968-34.54 0-28.976 23.48-52.464 52.465-52.464.804 0 1.601.02 2.398.059a51.992 51.992 0 0 1 17.516 3.859c19.097 7.844 32.554 26.629 32.554 48.547zm0 0" fill="#fda736"/><path d="M445.73 418.844c0 28.98-23.488 52.469-52.468 52.469a52.35 52.35 0 0 1-15.184-2.231c21.586-6.504 37.3-26.531 37.3-50.238 0-23.703-15.714-43.735-37.3-50.239a52.35 52.35 0 0 1 15.184-2.23c28.98 0 52.468 23.492 52.468 52.469zm0 0" fill="#fd8f07"/><g fill="#fed370"><path d="M150.234 57.805c0 35.543-29.004 64.547-64.547 64.547-22.605 0-42.496-11.622-54.023-29.215-.738-1.13.45-2.516 1.672-1.95 8.258 3.84 17.46 5.985 27.172 5.985 35.746 0 64.543-28.8 64.543-64.547 0-9.71-2.145-18.914-5.98-27.172-.571-1.223.82-2.41 1.945-1.672 17.597 11.528 29.218 31.418 29.218 54.024zm0 0M458.836 493.738a7.542 7.542 0 0 1-5.363-2.23l-7.864-7.91c-2.941-2.961-2.93-7.746.032-10.688a7.554 7.554 0 0 1 10.687.031l7.867 7.91a7.557 7.557 0 0 1-.03 10.688 7.528 7.528 0 0 1-5.33 2.2zm0 0M477.258 466.512c-.656 0-1.32-.086-1.985-.266l-10.765-2.918c-4.028-1.094-6.41-5.246-5.317-9.273a7.562 7.562 0 0 1 9.274-5.32l10.765 2.917c4.028 1.094 6.41 5.246 5.317 9.274a7.56 7.56 0 0 1-7.29 5.586zm0 0M431.492 512a7.557 7.557 0 0 1-7.3-5.625l-2.856-10.785a7.558 7.558 0 0 1 5.371-9.242 7.564 7.564 0 0 1 9.242 5.375l2.856 10.78a7.558 7.558 0 0 1-7.313 9.497zm0 0M392.852 435.676l-27.563 27.562a52.821 52.821 0 0 1-11.52-9.855l28.403-28.399a7.544 7.544 0 0 1 10.68 0 7.559 7.559 0 0 1 0 10.692zm0 0M413.18 370.297l-23.836 23.836c-1.469 1.472-3.406 2.219-5.34 2.219s-3.871-.747-5.352-2.22a7.559 7.559 0 0 1 0-10.69l17.012-17.004a52.087 52.087 0 0 1 17.516 3.859zm0 0"/></g></svg>