<svg height="512pt" viewBox="-7 0 512 512" width="512pt" xmlns="http://www.w3.org/2000/svg"><g fill="#fda736"><path d="M148.633 263.227a7.52 7.52 0 0 1-7.52-7.52v-10.621a7.52 7.52 0 0 1 15.04 0v10.621a7.52 7.52 0 0 1-7.52 7.52zm0 0M173.836 263.227a7.518 7.518 0 0 1-7.52-7.52v-10.621a7.518 7.518 0 1 1 15.036 0v10.621a7.52 7.52 0 0 1-7.516 7.52zm0 0M329.914 263.227a7.517 7.517 0 0 1-7.516-7.52v-10.621a7.518 7.518 0 0 1 15.035 0v10.621a7.52 7.52 0 0 1-7.519 7.52zm0 0M355.117 263.227a7.52 7.52 0 0 1-7.52-7.52v-10.621a7.52 7.52 0 0 1 15.04 0v10.621a7.52 7.52 0 0 1-7.52 7.52zm0 0"/></g><path d="M109.316 227.691h285.118v19.145H109.316zm0 0M109.316 425.398h285.118v19.141H109.316zm0 0" fill="#4e5093"/><path d="M115.55 28.516v454.968c0 5.536-4.487 10.024-10.023 10.024H10.023C4.493 493.508 0 489.02 0 483.484V28.516c0-5.536 4.492-10.028 10.023-10.028h95.504c5.532 0 10.024 4.492 10.024 10.028zm0 0" fill="#2de0c7"/><path d="M38.758 18.488h38.035v475.024H38.758zm0 0" fill="#00c4ce"/><path d="M38.754 512a7.52 7.52 0 0 1-7.52-7.52V7.52a7.52 7.52 0 0 1 15.04 0v496.96a7.52 7.52 0 0 1-7.52 7.52zm0 0M76.797 512a7.518 7.518 0 0 1-7.52-7.52V7.52a7.518 7.518 0 1 1 15.035 0v496.96a7.52 7.52 0 0 1-7.515 7.52zm0 0" fill="#9bf2e5"/><path d="M498.258 28.516v454.968c0 5.536-4.492 10.024-10.024 10.024H392.73c-5.53 0-10.023-4.488-10.023-10.024V28.516c0-5.536 4.492-10.028 10.023-10.028h95.504c5.532 0 10.024 4.492 10.024 10.028zm0 0" fill="#2de0c7"/><path d="M421.465 18.488H459.5v475.024h-38.035zm0 0" fill="#00c4ce"/><path d="M421.465 512a7.518 7.518 0 0 1-7.52-7.52V7.52a7.518 7.518 0 1 1 15.035 0v496.96a7.517 7.517 0 0 1-7.515 7.52zm0 0M459.504 512a7.52 7.52 0 0 1-7.52-7.52V7.52a7.52 7.52 0 0 1 15.04 0v496.96a7.52 7.52 0 0 1-7.52 7.52zm0 0" fill="#9bf2e5"/><path d="M234.176 417.023a7.52 7.52 0 0 1-7.52-7.52v-23.421a7.52 7.52 0 0 1 15.04 0v23.422a7.52 7.52 0 0 1-7.52 7.52zm0 0M269.574 417.023a7.52 7.52 0 0 1-7.52-7.52v-23.421a7.52 7.52 0 0 1 15.04 0v23.422a7.52 7.52 0 0 1-7.52 7.52zm0 0" fill="#4e5093"/><path d="M291.535 102.852v273.652c0 5.281-4.289 9.574-9.574 9.574h-60.172c-5.293 0-9.582-4.293-9.582-9.574V102.852a9.58 9.58 0 0 1 9.582-9.582h60.172c5.285 0 9.574 4.289 9.574 9.582zm0 0" fill="#fda736"/><path d="M291.535 102.852v273.652c0 5.281-4.289 9.574-9.574 9.574h-13.684c5.282 0 9.575-4.293 9.575-9.574V102.852c0-5.293-4.293-9.582-9.575-9.582h13.684c5.285 0 9.574 4.289 9.574 9.582zm0 0" fill="#fd7504"/><path d="M268.98 461.938h-34.21c-4.52 0-8.618-2.653-10.465-6.778l-12.657-28.258c-3.398-7.586 2.153-16.152 10.461-16.152h59.532c8.308 0 13.859 8.566 10.46 16.152l-12.656 28.258a11.464 11.464 0 0 1-10.465 6.777zm0 0" fill="#fda736"/><path d="M210.633 123.652h-20.035a7.52 7.52 0 0 1 0-15.039h20.035a7.52 7.52 0 0 1 0 15.04zm0 0" fill="#4e5093"/><path d="M180.57 165.316h-16.093c-5.536 0-10.024-4.488-10.024-10.023v-65.64c0-5.54 4.488-10.024 10.024-10.024h16.093c5.54 0 10.028 4.484 10.028 10.023v65.641c0 5.535-4.489 10.023-10.028 10.023zm0 0" fill="#2de0c7"/><path d="M313.152 123.652h-20.035a7.52 7.52 0 0 1 0-15.039h20.035a7.52 7.52 0 0 1 0 15.04zm0 0" fill="#4e5093"/><path d="M323.176 165.316h16.097c5.536 0 10.024-4.488 10.024-10.023v-65.64c0-5.54-4.488-10.024-10.024-10.024h-16.097c-5.535 0-10.024 4.484-10.024 10.023v65.641c0 5.535 4.489 10.023 10.024 10.023zm0 0M266.465 352.742a7.523 7.523 0 0 1-7.52 7.52h-46.738v-15.035h46.738c4.149 0 7.52 3.367 7.52 7.515zm0 0" fill="#2de0c7"/><path d="M298.125 322.926h-92.5c-5.535 0-10.023-4.489-10.023-10.028v-9.586c0-5.535 4.488-10.023 10.023-10.023h92.5c5.535 0 10.023 4.488 10.023 10.024v9.585c0 5.54-4.488 10.028-10.023 10.028zm0 0" fill="#898ec9"/><path d="M234.23 274.402h-.109a7.52 7.52 0 0 1 0-15.039h.11a7.517 7.517 0 0 1 7.515 7.52 7.517 7.517 0 0 1-7.516 7.52zm0 0M234.23 256.617h-.07l-.105-.004a7.515 7.515 0 0 1-7.45-7.586c.04-4.152 3.446-7.468 7.586-7.449h.11a7.517 7.517 0 0 1 7.449 7.586 7.521 7.521 0 0 1-7.52 7.453zm0 0" fill="#4e5093"/><path d="M234.121 235.984a7.52 7.52 0 0 1-7.52-7.52v-68.276c0-4.157 3.368-7.52 7.52-7.52s7.52 3.363 7.52 7.52v68.277a7.52 7.52 0 0 1-7.52 7.52zm0 0" fill="#2de0c7"/></svg>