<svg xmlns="http://www.w3.org/2000/svg" viewBox="0 0 127.738 127.738"><path d="M63.875 126.238c-34.431-.02-62.362-27.951-62.374-62.373C1.508 29.414 29.429 1.5 63.869 1.5c34.451-.012 62.367 27.928 62.369 62.369.002 34.44-27.916 62.356-62.363 62.369z" fill="#2af42f"/><path d="M63.869 1.5c34.451-.012 62.367 27.928 62.369 62.369.002 34.439-27.916 62.355-62.363 62.369" fill="#1ad88f"/><path d="M8.516 35.145h110.71a62.424 62.424 0 0 0-6.158-9.586H14.673a62.343 62.343 0 0 0-6.157 9.586z" fill="#fdffdc"/><path d="M63.871 35.145h55.355l-.004-.006a66.257 66.257 0 0 0-1.355-2.469c-.012-.02-.023-.037-.033-.057a63.09 63.09 0 0 0-1.455-2.383l-.035-.055a62.387 62.387 0 0 0-1.568-2.32c-.006-.01-.014-.019-.021-.029a58.36 58.36 0 0 0-1.686-2.267h-49.2l.002 9.586z" fill="#e6ff2e"/><path d="M1.501 63.865a62.238 62.238 0 0 0 3.014 19.139h118.722a62.342 62.342 0 0 0 3.002-19.135 62.293 62.293 0 0 0-3.004-19.135H4.505a62.322 62.322 0 0 0-3.004 19.131z" fill="#fdffdc"/><path d="M126.107 60.004a64.185 64.185 0 0 0-.258-3.037 58.46 58.46 0 0 0-.211-1.656c-.057-.408-.105-.816-.17-1.221a57.094 57.094 0 0 0-.432-2.418 60.604 60.604 0 0 0-.371-1.691c-.068-.303-.135-.605-.209-.906a61.23 61.23 0 0 0-.662-2.481 61.296 61.296 0 0 0-.56-1.859H63.871l.002 38.27h59.363c.197-.617.381-1.24.561-1.863.068-.24.139-.479.205-.719.16-.584.313-1.17.457-1.762.072-.297.139-.596.207-.895.129-.566.26-1.133.373-1.705.158-.797.303-1.602.432-2.41.064-.408.113-.82.17-1.231.076-.547.148-1.094.209-1.646.043-.387.08-.775.115-1.166.057-.621.105-1.246.143-1.873.021-.324.043-.648.059-.975.043-.959.072-1.922.072-2.891 0-.971-.029-1.934-.072-2.891-.017-.326-.041-.65-.06-.974z" fill="#e6ff2e"/><path d="M14.698 102.18h98.366a62.435 62.435 0 0 0 6.16-9.586H8.532a62.491 62.491 0 0 0 6.166 9.586z" fill="#fdffdc"/><path d="M63.873 92.594v9.586h49.191a62.36 62.36 0 0 0 1.689-2.27l.018-.025a61.181 61.181 0 0 0 1.601-2.371c.504-.787.992-1.586 1.463-2.395l.024-.043a58.88 58.88 0 0 0 1.363-2.48l.002-.002H63.873z" fill="#e6ff2e"/><path d="M124.664 83.464c.04-.123.073-.248.112-.371.092-.292.177-.587.265-.881a61.625 61.625 0 0 0 1.216-4.704c.078-.358.161-.715.234-1.076.18-.896.342-1.795.483-2.698.044-.28.076-.564.116-.845.098-.686.188-1.373.263-2.062.038-.353.071-.708.104-1.063a63.27 63.27 0 0 0 .152-1.995c.019-.319.041-.637.056-.957.045-.979.074-1.96.074-2.944 0-.956-.027-1.909-.07-2.862-.016-.354-.041-.706-.062-1.06a65.558 65.558 0 0 0-.261-3.099 61.653 61.653 0 0 0-.149-1.212c-1.784-13.94-8.066-26.832-18.164-36.933C96.973 6.642 80.943 0 63.891 0h-.022C43.53 0 25.394 9.572 13.689 24.435a1.455 1.455 0 0 0-.198.202c-.236.302-.456.616-.686.922l-.209.281a64.799 64.799 0 0 0-3.492 5.215c-.389.647-.763 1.3-1.128 1.959-.139.25-.278.5-.413.752-.124.23-.258.456-.378.688-.028.054-.041.112-.062.169a63.439 63.439 0 0 0-4.006 9.575c-.011.028-.03.049-.04.078-.037.114-.067.229-.103.342-.099.313-.189.629-.284.944a65.386 65.386 0 0 0-.802 2.918 64.785 64.785 0 0 0-.404 1.744c-.078.358-.161.714-.234 1.075A66.344 66.344 0 0 0 .767 54c-.043.274-.074.552-.114.827a63.189 63.189 0 0 0-.265 2.08c-.038.351-.071.704-.103 1.057a63.488 63.488 0 0 0-.153 2.002c-.019.318-.041.635-.056.954-.045.98-.075 1.961-.076 2.945v.001c0 .985.03 1.968.076 2.949.015.315.036.628.055.942.041.671.092 1.342.154 2.011.033.352.065.705.103 1.055.075.684.164 1.365.261 2.046.041.289.074.581.12.87.14.894.301 1.785.48 2.673.078.392.169.779.255 1.168a60.51 60.51 0 0 0 .699 2.869 64 64 0 0 0 .458 1.608c.11.369.217.74.334 1.107.032.1.059.202.091.302.008.025.025.043.034.067a63.572 63.572 0 0 0 4.031 9.617c.018.046.027.093.05.137.095.183.202.361.299.544.195.364.396.725.597 1.085.299.535.604 1.067.918 1.595.191.319.385.635.581.95a64.04 64.04 0 0 0 1.616 2.475 62.305 62.305 0 0 0 1.724 2.392c.195.257.38.522.578.776.049.062.107.114.164.167 11.706 14.873 29.849 24.458 50.195 24.469h.002c20.337-.008 38.469-9.578 50.173-24.434.071-.062.14-.126.198-.202.239-.306.462-.625.696-.935.069-.091.137-.184.205-.276a61.699 61.699 0 0 0 1.816-2.575 62.276 62.276 0 0 0 1.672-2.634c.396-.659.778-1.324 1.149-1.995.128-.231.257-.462.382-.695.127-.237.265-.469.389-.707.029-.057.043-.118.064-.177a63.55 63.55 0 0 0 4.001-9.561c.012-.031.034-.054.044-.085zm.003-16.821c-.013.281-.03.562-.046.843-.04.681-.093 1.358-.155 2.033-.025.27-.046.54-.074.809a61.3 61.3 0 0 1-.33 2.591c-.042.281-.094.561-.14.842a64.615 64.615 0 0 1-.327 1.828 61.127 61.127 0 0 1-.633 2.854c-.065.263-.124.528-.192.79a60.137 60.137 0 0 1-.646 2.271H5.623a60.019 60.019 0 0 1-.636-2.233c-.083-.315-.154-.632-.231-.948a61.788 61.788 0 0 1-.611-2.76 58.45 58.45 0 0 1-.32-1.786c-.048-.289-.101-.576-.145-.865a59.554 59.554 0 0 1-.331-2.592c-.029-.264-.049-.53-.074-.796a62.711 62.711 0 0 1-.157-2.05c-.016-.276-.033-.553-.046-.83A62.379 62.379 0 0 1 3 63.866c0-.93.029-1.854.071-2.775.013-.282.03-.563.047-.844.04-.681.093-1.358.156-2.033.025-.27.046-.54.074-.809.092-.87.202-1.734.331-2.592.042-.28.094-.558.14-.838a61.835 61.835 0 0 1 .538-2.857c.132-.617.275-1.229.426-1.839.064-.259.122-.519.189-.778.199-.762.418-1.516.646-2.266h116.514a60.914 60.914 0 0 1 1.577 6.47l.045.261c.187 1.028.341 2.062.475 3.099.056.442.116.883.163 1.327.041.382.072.766.106 1.15.049.569.092 1.139.125 1.712.018.309.037.618.051.928.039.894.066 1.789.066 2.689a63.771 63.771 0 0 1-.073 2.772zm-6.384 24.451H9.467a60.255 60.255 0 0 1-2.849-6.59H121.13a60.605 60.605 0 0 1-2.847 6.59zm-5.985 9.586H15.456c-.109-.143-.225-.279-.332-.422l-.017-.023a61.103 61.103 0 0 1-1.624-2.281l-.095-.138a60.408 60.408 0 0 1-1.507-2.348l-.141-.237c-.226-.374-.437-.757-.655-1.136h105.581a61.081 61.081 0 0 1-4.368 6.585zM9.456 36.645h108.869a59.991 59.991 0 0 1 2.84 6.59H6.611a60.425 60.425 0 0 1 2.845-6.59zm5.983-9.586h96.891a60.982 60.982 0 0 1 4.367 6.586H11.073a61.029 61.029 0 0 1 4.366-6.586zM63.87 3h.021c16.25 0 31.529 6.331 43.021 17.825a62.186 62.186 0 0 1 2.987 3.233h-92.01C29.057 11.174 45.522 3 63.87 3zm.005 121.738c-18.339-.01-34.799-8.183-45.969-21.059h91.943c-11.168 12.879-27.63 21.052-45.974 21.059z" fill="#33363a"/><path d="M28.917 20.938a1.5 1.5 0 0 1-.963-2.651c5.855-4.891 12.49-8.49 19.721-10.697a1.5 1.5 0 1 1 .875 2.87c-6.845 2.09-13.127 5.498-18.672 10.131a1.507 1.507 0 0 1-.961.347zM53.11 9.309a1.503 1.503 0 0 1-1.5-1.5c0-.4.159-.78.439-1.06.55-.56 1.561-.56 2.12 0 .28.28.44.67.44 1.06s-.16.78-.44 1.06-.669.44-1.059.44z" fill="#cdffbb"/></svg>