<svg xmlns="http://www.w3.org/2000/svg" width="512" height="512"><path fill="#8c98a7" d="M221 7.5l-15 70h100l-15-70zM456.465 105.033l-49.498-49.498-60.104 38.891 70.711 70.711zM434.5 206v100l70-15v-70zM346.863 417.574l60.104 38.891 49.498-49.498-38.891-60.104zM221 504.5h70l15-70H206zM55.535 406.967l49.498 49.498 60.104-38.891-70.711-70.711zM77.5 206l-70 15v70l70 15zM55.535 105.033l38.891 60.104 70.711-70.711-60.104-38.891z"/><path d="M256.001 50.999c-113.04 0-205 91.97-205 205 0 113.04 91.96 205 205 205s205-91.96 205-205c0-113.03-91.96-205-205-205z" fill="#a6b0bd"/><path d="M256 416c-88.224 0-160-71.776-160-160S167.776 96 256 96s160 71.776 160 160-71.776 160-160 160z" fill="#728192"/><path d="M257.366 126.009v259.984c71.053-.739 128.635-58.768 128.635-129.992s-57.582-129.253-128.635-129.992z" fill="#ffeac3"/><path d="M257.366 126.009c-.455-.008-.91-.008-1.365-.008-71.679 0-130 58.321-130 130s58.321 130 130 130c.455 0 .91 0 1.365-.008 54.506-.902 98.635-58.874 98.635-129.992s-44.129-129.09-98.635-129.992z" fill="#fff"/><path d="M256 211v90c24.853 0 45-20.147 45-45s-20.147-45-45-45z" fill="#ffb739"/><path d="M271 256c0-24.853-6.716-45-15-45-24.853 0-45 20.147-45 45s20.147 45 45 45c8.284 0 15-20.147 15-45z" fill="#ffd17e"/><path d="M256 88.5c-38.886 0-76.803 13.685-106.769 38.532a7.5 7.5 0 0 0 9.575 11.547C186.086 115.958 220.603 103.5 256 103.5c84.089 0 152.5 68.411 152.5 152.5S340.089 408.5 256 408.5 103.5 340.089 103.5 256c0-35.397 12.458-69.914 35.079-97.193a7.5 7.5 0 1 0-11.547-9.575C102.185 179.197 88.5 217.114 88.5 256c0 92.36 75.14 167.5 167.5 167.5S423.5 348.36 423.5 256 348.36 88.5 256 88.5z"/><path d="M506.071 213.667l-43.953-9.418c-5.066-20.183-13.062-39.427-23.821-57.333l24.464-37.808a7.499 7.499 0 0 0-.994-9.377l-49.498-49.498a7.498 7.498 0 0 0-9.377-.994l-37.808 24.464a210.747 210.747 0 0 0-57.333-23.821L298.333 5.93A7.5 7.5 0 0 0 291 0h-70a7.5 7.5 0 0 0-7.333 5.929l-9.418 43.953c-20.182 5.066-39.425 13.062-57.332 23.821l-37.809-24.465a7.499 7.499 0 0 0-9.377.994L50.232 99.729a7.5 7.5 0 0 0-.994 9.377l24.465 37.81c-10.758 17.906-18.753 37.149-23.819 57.331l-43.956 9.419A7.502 7.502 0 0 0 0 221v70a7.5 7.5 0 0 0 5.929 7.333l43.955 9.419c5.066 20.182 13.062 39.425 23.819 57.332l-24.465 37.809a7.499 7.499 0 0 0 .994 9.377l49.498 49.498a7.502 7.502 0 0 0 9.377.994l37.809-24.465c17.906 10.758 37.15 18.753 57.332 23.819l9.419 43.955A7.5 7.5 0 0 0 221 512h70a7.5 7.5 0 0 0 7.333-5.929l9.419-43.955c20.182-5.065 39.426-13.061 57.333-23.819l37.808 24.464a7.5 7.5 0 0 0 9.377-.994l49.498-49.498a7.5 7.5 0 0 0 .994-9.377l-24.463-37.807c10.758-17.905 18.754-37.15 23.821-57.334l43.952-9.418a7.5 7.5 0 0 0 5.929-7.333v-70a7.501 7.501 0 0 0-5.93-7.333zM497 284.937l-42.647 9.139a7.502 7.502 0 0 0-5.743 5.673c-4.946 21.787-13.533 42.455-25.522 61.43a7.5 7.5 0 0 0 .043 8.08l23.742 36.693-40.923 40.923-36.693-23.743a7.5 7.5 0 0 0-8.08-.043c-18.977 11.989-39.645 20.575-61.428 25.52a7.497 7.497 0 0 0-5.673 5.743L284.937 497h-57.874l-9.139-42.65a7.502 7.502 0 0 0-5.673-5.743c-21.784-4.945-42.451-13.532-61.427-25.521a7.501 7.501 0 0 0-8.08.043l-36.695 23.744-40.923-40.923 23.744-36.695a7.5 7.5 0 0 0 .043-8.08c-11.989-18.976-20.575-39.643-25.521-61.427a7.499 7.499 0 0 0-5.743-5.673L15 284.937v-57.874l42.65-9.139a7.502 7.502 0 0 0 5.743-5.673c4.945-21.784 13.532-42.45 25.521-61.426a7.5 7.5 0 0 0-.043-8.08l-23.744-36.696 40.923-40.923 36.695 23.744a7.499 7.499 0 0 0 8.081.043c18.976-11.99 39.644-20.577 61.427-25.522a7.497 7.497 0 0 0 5.673-5.743L227.063 15h57.874l9.139 42.647a7.502 7.502 0 0 0 5.673 5.743c21.786 4.946 42.453 13.533 61.429 25.522a7.5 7.5 0 0 0 8.08-.043l36.693-23.743 40.923 40.923-23.743 36.693a7.5 7.5 0 0 0-.043 8.08c11.99 18.977 20.577 39.645 25.522 61.429a7.499 7.499 0 0 0 5.743 5.673L497 227.063v57.874z"/><path d="M256 393.5c75.818 0 137.5-61.682 137.5-137.5S331.818 118.5 256 118.5 118.5 180.182 118.5 256 180.182 393.5 256 393.5zm0-260c67.547 0 122.5 54.953 122.5 122.5S323.547 378.5 256 378.5 133.5 323.547 133.5 256 188.453 133.5 256 133.5z"/><path d="M188.5 263.5h15.544a52.234 52.234 0 0 0 9.925 23.924l-11.002 11.002a7.5 7.5 0 0 0 5.303 12.803 7.474 7.474 0 0 0 5.303-2.197l11.002-11.002a52.239 52.239 0 0 0 23.924 9.925V323.5a7.5 7.5 0 0 0 15 0v-15.544a52.234 52.234 0 0 0 23.924-9.925l11.002 11.002c1.464 1.464 3.384 2.197 5.303 2.197s3.839-.732 5.303-2.197a7.5 7.5 0 0 0 0-10.606l-11.002-11.002a52.234 52.234 0 0 0 9.925-23.924H323.5a7.5 7.5 0 0 0 0-15h-15.544a52.234 52.234 0 0 0-9.925-23.924l11.002-11.002a7.5 7.5 0 0 0 0-10.606 7.5 7.5 0 0 0-10.606 0l-11.002 11.002a52.239 52.239 0 0 0-23.924-9.925V188.5a7.5 7.5 0 0 0-15 0v15.544a52.234 52.234 0 0 0-23.924 9.925l-11.002-11.002a7.5 7.5 0 0 0-10.606 0 7.5 7.5 0 0 0 0 10.606l11.002 11.002a52.234 52.234 0 0 0-9.925 23.924H188.5a7.5 7.5 0 0 0 0 15.001zm67.5-45c20.678 0 37.5 16.822 37.5 37.5s-16.822 37.5-37.5 37.5-37.5-16.822-37.5-37.5 16.822-37.5 37.5-37.5z"/></svg>