<svg xmlns="http://www.w3.org/2000/svg" width="512" height="512"><path fill="#ff4e51" d="M429.5 421h-45l-20 15 20 15h45z"/><path fill="#ff7149" d="M219.5 421h165v30h-165z"/><path fill="#ff4e51" d="M429.5 331h-45l-20 15 20 15h45z"/><path fill="#ff7149" d="M219.5 331h165v30h-165z"/><path fill="#ff4e51" d="M429.5 241h-45l-20 15 20 15h45z"/><path fill="#ff7149" d="M219.5 241h165v30h-165z"/><path fill="#ff4e51" d="M429.5 151h-45l-20 15 20 15h45z"/><path fill="#ff7149" d="M219.5 151h165v30h-165z"/><path fill="#ff4e51" d="M429.5 61h-45l-20 15 20 15h45z"/><path fill="#ff7149" d="M219.5 61h165v30h-165zM414.5 7.5h30v497h-30z"/><path fill="#ff7149" d="M204.5 7.5h30v497h-30z"/><path fill="#ffb739" d="M174.5 61L121 7.5 67.5 61h30v90h47V61z"/><path d="M444.5 0h-30a7.5 7.5 0 0 0-7.5 7.5v46H242v-46a7.5 7.5 0 0 0-7.5-7.5h-30a7.5 7.5 0 0 0-7.5 7.5v497a7.5 7.5 0 0 0 7.5 7.5h30a7.5 7.5 0 0 0 7.5-7.5v-46h165v46a7.5 7.5 0 0 0 7.5 7.5h30a7.5 7.5 0 0 0 7.5-7.5V7.5a7.5 7.5 0 0 0-7.5-7.5zM242 233.5v-45h165v45H242zm165 15v15H242v-15h165zm-165-75v-15h165v15H242zm0 105h165v45H242v-45zm165-135H242v-45h165v45zm-165 195h165v15H264.5c-4.142 0-7.5 3.357-7.5 7.5s3.358 7.5 7.5 7.5H407v45H242v-75zm165-270v15H242v-15h165zM227 497h-15V15h15v482zm15-53.5v-15h165v15H242zM437 497h-15V15h15v482zM126.303 2.196a7.501 7.501 0 0 0-10.606 0l-53.5 53.5A7.5 7.5 0 0 0 67.5 68.5H90V151a7.5 7.5 0 0 0 7.5 7.5h47a7.5 7.5 0 0 0 7.5-7.5V68.5h22.5a7.499 7.499 0 0 0 5.303-12.804l-53.5-53.5zM144.5 53.5A7.5 7.5 0 0 0 137 61v82.5h-32V61a7.5 7.5 0 0 0-7.5-7.5H85.607L121 18.106 156.394 53.5H144.5z"/></svg>