<svg xmlns="http://www.w3.org/2000/svg" width="512" height="512"><path d="M256 7.5v497c137.243 0 248.5-111.257 248.5-248.5S393.243 7.5 256 7.5z" fill="#a6b0bd"/><path d="M474.5 256C474.5 118.757 376.674 7.5 256 7.5 118.757 7.5 7.5 118.757 7.5 256S118.757 504.5 256 504.5c120.674 0 218.5-111.257 218.5-248.5z" fill="#c0c8d2"/><circle cx="256" cy="256" r="188.5" fill="#8c98a7"/><path d="M256 97.5v317c87.537 0 158.5-70.963 158.5-158.5S343.537 97.5 256 97.5z" fill="#ffeac3"/><path d="M384.5 256c0-87.537-57.531-158.5-128.5-158.5-87.537 0-158.5 70.963-158.5 158.5S168.463 414.5 256 414.5c70.969 0 128.5-70.963 128.5-158.5z" fill="#fff"/><path fill="#a6b0bd" d="M287.82 224.18L256 256l31.82 31.82L384.5 256z"/><path fill="#ff4e51" d="M224.18 287.82L256 384.5l31.82-96.68L256 256z"/><path fill="#a6b0bd" d="M127.5 256l96.68 31.82L256 256l-31.82-31.82z"/><path fill="#1e8aff" d="M256 127.5l-31.82 96.68L256 256l31.82-31.82z"/><path d="M256 211v90c24.813 0 45-20.187 45-45s-20.187-45-45-45z" fill="#ffb739"/><path d="M271 256c0-24.813-6.729-45-15-45-24.813 0-45 20.187-45 45s20.187 45 45 45c8.271 0 15-20.187 15-45z" fill="#ffd17e"/><circle cx="256" cy="256" r="15" fill="#fff"/><circle cx="206.825" cy="137.281" r="7.5"/><circle cx="165.137" cy="165.137" r="7.5"/><circle cx="137.281" cy="206.825" r="7.5"/><circle cx="137.281" cy="305.175" r="7.5"/><circle cx="165.137" cy="346.863" r="7.5"/><circle cx="206.825" cy="374.719" r="7.5"/><circle cx="305.175" cy="374.719" r="7.5"/><circle cx="346.863" cy="346.863" r="7.5"/><circle cx="374.719" cy="305.175" r="7.5"/><circle cx="374.719" cy="206.825" r="7.5"/><circle cx="346.863" cy="165.137" r="7.5"/><circle cx="305.175" cy="137.281" r="7.5"/><path d="M437.02 74.98C388.668 26.629 324.38 0 256 0S123.333 26.629 74.98 74.98C26.629 123.333 0 187.62 0 256s26.629 132.667 74.98 181.02C123.333 485.371 187.62 512 256 512s132.668-26.629 181.02-74.98C485.371 388.667 512 324.38 512 256s-26.629-132.667-74.98-181.02zM256 497C123.112 497 15 388.888 15 256S123.112 15 256 15s241 108.112 241 241-108.112 241-241 241z"/><path d="M256 422c91.532 0 166-74.467 166-166S347.532 90 256 90 90 164.467 90 256s74.468 166 166 166zm0-317c83.262 0 151 67.738 151 151s-67.738 151-151 151-151-67.738-151-151 67.738-151 151-151z"/><path d="M256 278.5c12.406 0 22.5-10.093 22.5-22.5s-10.094-22.5-22.5-22.5-22.5 10.093-22.5 22.5 10.094 22.5 22.5 22.5zm0-30c4.136 0 7.5 3.364 7.5 7.5s-3.364 7.5-7.5 7.5-7.5-3.364-7.5-7.5 3.364-7.5 7.5-7.5z"/><path d="M125.155 263.124l93.085 30.636 30.636 93.084a7.501 7.501 0 0 0 14.248 0l30.637-93.084 93.084-30.636a7.5 7.5 0 0 0 0-14.248l-93.084-30.636-30.637-93.084a7.5 7.5 0 0 0-14.248-.001L218.24 218.24l-93.085 30.636a7.5 7.5 0 0 0 0 14.248zM256 218.5c20.678 0 37.5 16.822 37.5 37.5s-16.822 37.5-37.5 37.5-37.5-16.822-37.5-37.5 16.822-37.5 37.5-37.5zm0 142.01l-18.188-55.262A52.237 52.237 0 0 0 256 308.5a52.256 52.256 0 0 0 18.188-3.252L256 360.51zm49.248-86.322c2.101-5.67 3.252-11.797 3.252-18.188s-1.152-12.518-3.252-18.188L360.51 256l-55.262 18.188zM256 151.49l18.188 55.262A52.241 52.241 0 0 0 256 203.5a52.241 52.241 0 0 0-18.188 3.252L256 151.49zm-49.248 86.322c-2.101 5.67-3.252 11.796-3.252 18.188s1.152 12.518 3.252 18.188L151.49 256l55.262-18.188z"/><path d="M256 60c-46.574 0-91.721 16.63-127.121 46.826a7.5 7.5 0 0 0 9.734 11.412C171.302 90.355 212.99 75 256 75c99.804 0 181 81.196 181 181s-81.196 181-181 181S75 355.804 75 256c0-43.009 15.355-84.698 43.238-117.388a7.5 7.5 0 0 0-11.412-9.734C76.63 164.28 60 209.426 60 256c0 108.075 87.925 196 196 196s196-87.925 196-196S364.075 60 256 60z"/></svg>