<svg xmlns="http://www.w3.org/2000/svg" viewBox="0 0 127.485 127.485"><path d="M113.748 94.787c0 17.23-22.389 31.198-50.006 31.198s-50.004-13.968-50.004-31.198S36.125 48.75 63.742 48.75c27.617 0 50.006 28.807 50.006 46.037z" fill="#c0c0c4"/><path d="M113.748 95.497c0 10.499-22.389 19.011-50.006 19.011s-50.004-8.512-50.004-19.011c0-10.498 22.387-28.05 50.004-28.05 27.617 0 50.006 17.552 50.006 28.05z" fill="#2af42f"/><path d="M113.748 87.373c0 10.499-22.389 19.01-50.006 19.01s-50.004-8.511-50.004-19.01c0-10.5 22.387-28.051 50.004-28.051 27.617 0 50.006 17.551 50.006 28.051z" fill="#fff"/><path d="M92.787 99.109c0 10.5-13.004 7.273-29.045 7.273s-29.045 3.227-29.045-7.273c0-10.498 13.004-39.787 29.045-39.787s29.045 29.289 29.045 39.787z" fill="#e8e8ed"/><path d="M99.568 65.809C90.484 56.213 77.794 48.75 63.742 48.75c-14.053 0-26.742 7.463-35.826 17.059C37 71.631 49.69 75.254 63.742 75.254s26.742-3.623 35.826-9.445z" fill="#2af42f"/><path d="M31.71 68c8.678 4.524 19.84 7.254 32.031 7.254 12.193 0 23.355-2.729 32.031-7.254-8.676-7.756-19.838-13.377-32.031-13.377-12.191 0-23.353 5.621-32.031 13.377z" fill="#1ad88f"/><path d="M63.742 127.485c-28.399 0-51.504-14.668-51.504-32.698 0-18.338 23.571-47.537 51.504-47.537 27.934 0 51.506 29.199 51.506 47.537 0 18.03-23.106 32.698-51.506 32.698zm0-77.235c-26.306 0-48.504 27.356-48.504 44.537 0 16.375 21.759 29.698 48.504 29.698 26.746 0 48.506-13.323 48.506-29.698 0-17.181-22.199-44.537-48.506-44.537z" fill="#33363a"/><path d="M63.742 127.485c-28.399 0-51.504-14.668-51.504-32.698 0-18.338 23.571-47.537 51.504-47.537 27.934 0 51.506 29.199 51.506 47.537 0 18.03-23.106 32.698-51.506 32.698zm0-77.235c-26.306 0-48.504 27.356-48.504 44.537 0 16.375 21.759 29.698 48.504 29.698 26.746 0 48.506-13.323 48.506-29.698 0-17.181-22.199-44.537-48.506-44.537z" fill="#33363a"/><path d="M63.742 76.754c-13.883 0-26.894-3.438-36.636-9.683a1.498 1.498 0 0 1-.28-2.294c6.197-6.546 19.233-17.527 36.916-17.527s30.719 10.981 36.916 17.527a1.498 1.498 0 0 1-.28 2.294c-9.742 6.244-22.753 9.683-36.636 9.683zM30.3 65.512c9.076 5.325 20.866 8.242 33.441 8.242s24.366-2.917 33.441-8.242c-6.276-6.243-18.015-15.262-33.44-15.262S36.577 59.269 30.3 65.512z" fill="#33363a"/><path d="M50.839 86.664c-7.879 0-14.289-6.773-14.289-15.1a1.5 1.5 0 1 1 3 0c0 6.672 5.064 12.1 11.289 12.1a1.5 1.5 0 1 1 0 3zM76.646 86.664a1.5 1.5 0 1 1 0-3c6.225 0 11.289-5.428 11.289-12.1a1.5 1.5 0 1 1 3 0c0 8.327-6.41 15.1-14.289 15.1z" fill="#33363a"/><circle cx="63.742" cy="86.278" r="4.699" fill="#fa0"/><path d="M63.742 99.104c-7.523 0-13.645-6.122-13.645-13.646a1.5 1.5 0 1 1 3 0c0 5.87 4.775 10.646 10.645 10.646 5.871 0 10.646-4.775 10.646-10.646a1.5 1.5 0 1 1 3 0c0 7.524-6.121 13.646-13.646 13.646z" fill="#33363a"/><path d="M63.742 92.478a6.206 6.206 0 0 1-6.199-6.199c0-3.417 2.781-6.198 6.199-6.198s6.199 2.781 6.199 6.198a6.206 6.206 0 0 1-6.199 6.199zm0-9.398a3.202 3.202 0 0 0-3.199 3.198c0 1.764 1.435 3.199 3.199 3.199s3.199-1.435 3.199-3.199a3.202 3.202 0 0 0-3.199-3.198z" fill="#33363a"/><path d="M56.673 55.627c1.916 4.525 4.379 7.256 7.068 7.256s5.154-2.73 7.068-7.256c-1.914-7.754-4.379-13.375-7.068-13.375s-5.152 5.621-7.068 13.375z" fill="#2af42f"/><path d="M63.742 47.978c-2.244 0-4.33 3.92-6.07 9.719 1.742 3.262 3.824 7.24 6.07 7.24 2.246 0 4.328-3.979 6.07-7.24-1.74-5.799-3.826-9.719-6.07-9.719z" fill="#1ad88f"/><path d="M70.809 57.127a1.5 1.5 0 0 1-1.455-1.141c-2.389-9.677-4.716-12.234-5.612-12.234-.896 0-3.221 2.557-5.612 12.235a1.5 1.5 0 0 1-2.912-.72c2.414-9.767 5.202-14.515 8.524-14.515 3.325 0 6.114 4.748 8.524 14.516a1.498 1.498 0 0 1-1.457 1.859zM63.742 107.883c-28.881 0-51.504-9.009-51.504-20.51a1.5 1.5 0 1 1 3 0c0 8.456 19.49 17.51 48.504 17.51a1.5 1.5 0 1 1 0 3z" fill="#33363a"/><path d="M63.742 107.883a1.5 1.5 0 1 1 0-3c29.015 0 48.506-9.054 48.506-17.51a1.5 1.5 0 1 1 3 0c0 11.501-22.624 20.51-51.506 20.51z" fill="#33363a"/><g><path d="M63.742 116.461c-28.881 0-51.504-9.009-51.504-20.511a1.5 1.5 0 1 1 3 0c0 8.457 19.49 17.511 48.504 17.511a1.5 1.5 0 1 1 0 3z" fill="#33363a"/><path d="M63.742 116.461a1.5 1.5 0 1 1 0-3c29.015 0 48.506-9.054 48.506-17.511a1.5 1.5 0 1 1 3 0c0 11.502-22.624 20.511-51.506 20.511z" fill="#33363a"/></g><g><path d="M50.636 26.326c-7.71 0-13.982-6.272-13.982-13.981a1.5 1.5 0 1 1 3 0c0 6.055 4.927 10.981 10.982 10.981a1.5 1.5 0 1 1 0 3z" fill="#33363a"/><path d="M62.685 34.299a1.5 1.5 0 0 1-1.399-.958 10.942 10.942 0 0 0-2.36-3.678 1.499 1.499 0 0 1 .033-2.121 1.499 1.499 0 0 1 2.121.033 13.897 13.897 0 0 1 3.003 4.682 1.499 1.499 0 0 1-1.398 2.042zm-6.779-6.988c-.195 0-.394-.039-.584-.119a10.917 10.917 0 0 0-4.281-.865 1.5 1.5 0 1 1 0-3c1.89 0 3.724.371 5.451 1.103a1.5 1.5 0 0 1-.586 2.881z" fill="#33363a"/><g><path d="M50.636 15.481c-7.71 0-13.982-6.272-13.982-13.981a1.5 1.5 0 1 1 3 0c0 6.055 4.927 10.981 10.982 10.981a1.5 1.5 0 1 1 0 3z" fill="#33363a"/><path d="M62.685 23.455a1.5 1.5 0 0 1-1.399-.958 10.942 10.942 0 0 0-2.36-3.678 1.499 1.499 0 0 1 .033-2.121 1.499 1.499 0 0 1 2.121.033 13.897 13.897 0 0 1 3.003 4.682 1.499 1.499 0 0 1-1.398 2.042zm-6.779-6.989c-.195 0-.394-.039-.584-.119a10.917 10.917 0 0 0-4.281-.865 1.5 1.5 0 1 1 0-3c1.89 0 3.724.371 5.451 1.103a1.5 1.5 0 0 1-.586 2.881z" fill="#33363a"/></g></g></svg>