<svg xmlns="http://www.w3.org/2000/svg" viewBox="0 0 127.371 127.371"><path d="M47.534 50.154a2.265 2.265 0 0 1-2.266 2.264H3.764A2.264 2.264 0 0 1 1.5 50.154v-5.661a2.265 2.265 0 0 1 2.264-2.265h41.505a2.266 2.266 0 0 1 2.266 2.265v5.661z" fill="#ffbe08"/><path d="M3.764 42.228a2.258 2.258 0 0 0-2.248 2.098 2.259 2.259 0 0 0 2.248 2.1h41.505a2.26 2.26 0 0 0 2.249-2.1 2.258 2.258 0 0 0-2.249-2.098H3.764z" fill="#ffd00b"/><path d="M45.269 53.918H3.764A3.768 3.768 0 0 1 0 50.154v-5.661a3.768 3.768 0 0 1 3.764-3.765h41.505a3.77 3.77 0 0 1 3.766 3.765v5.661a3.77 3.77 0 0 1-3.766 3.764zM3.764 43.728a.765.765 0 0 0-.764.765v5.661c0 .421.343.764.764.764h41.505a.766.766 0 0 0 .766-.764v-5.661a.766.766 0 0 0-.766-.765H3.764z" fill="#33363a"/><path d="M8.092 49.959a1.5 1.5 0 0 1-1.5-1.5v-2.272a1.5 1.5 0 1 1 3 0v2.272a1.5 1.5 0 0 1-1.5 1.5zM13.62 49.959a1.5 1.5 0 0 1-1.5-1.5v-2.272a1.5 1.5 0 1 1 3 0v2.272a1.5 1.5 0 0 1-1.5 1.5zM19.148 49.959a1.5 1.5 0 0 1-1.5-1.5v-2.272a1.5 1.5 0 1 1 3 0v2.272a1.5 1.5 0 0 1-1.5 1.5zM24.677 49.959a1.5 1.5 0 0 1-1.5-1.5v-2.272a1.5 1.5 0 1 1 3 0v2.272a1.5 1.5 0 0 1-1.5 1.5zM30.204 49.959a1.5 1.5 0 0 1-1.5-1.5v-2.272a1.5 1.5 0 1 1 3 0v2.272a1.5 1.5 0 0 1-1.5 1.5zM35.732 49.959a1.5 1.5 0 0 1-1.5-1.5v-2.272a1.5 1.5 0 1 1 3 0v2.272a1.5 1.5 0 0 1-1.5 1.5zM41.261 49.959a1.5 1.5 0 0 1-1.5-1.5v-2.272a1.5 1.5 0 1 1 3 0v2.272a1.5 1.5 0 0 1-1.5 1.5z" fill="#33363a"/><path d="M47.534 60.344a2.265 2.265 0 0 1-2.266 2.264H3.764A2.264 2.264 0 0 1 1.5 60.344v-5.661a2.265 2.265 0 0 1 2.264-2.265h41.505a2.266 2.266 0 0 1 2.266 2.265v5.661z" fill="#ffbe08"/><path d="M3.764 52.418a2.258 2.258 0 0 0-2.248 2.098 2.259 2.259 0 0 0 2.248 2.1h41.505a2.26 2.26 0 0 0 2.249-2.1 2.258 2.258 0 0 0-2.249-2.098H3.764z" fill="#ffd00b"/><path d="M45.269 64.107H3.764A3.767 3.767 0 0 1 0 60.344v-5.661a3.768 3.768 0 0 1 3.764-3.765h41.505a3.77 3.77 0 0 1 3.766 3.765v5.661a3.77 3.77 0 0 1-3.766 3.763zM3.764 53.918a.765.765 0 0 0-.764.765v5.661c0 .421.343.764.764.764h41.505a.766.766 0 0 0 .766-.764v-5.661a.766.766 0 0 0-.766-.765H3.764z" fill="#33363a"/><path d="M8.092 60.148a1.5 1.5 0 0 1-1.5-1.5v-2.272a1.5 1.5 0 1 1 3 0v2.272a1.5 1.5 0 0 1-1.5 1.5zM13.62 60.148a1.5 1.5 0 0 1-1.5-1.5v-2.272a1.5 1.5 0 1 1 3 0v2.272a1.5 1.5 0 0 1-1.5 1.5zM19.148 60.148a1.5 1.5 0 0 1-1.5-1.5v-2.272a1.5 1.5 0 1 1 3 0v2.272a1.5 1.5 0 0 1-1.5 1.5zM24.677 60.148a1.5 1.5 0 0 1-1.5-1.5v-2.272a1.5 1.5 0 1 1 3 0v2.272a1.5 1.5 0 0 1-1.5 1.5zM30.204 60.148a1.5 1.5 0 0 1-1.5-1.5v-2.272a1.5 1.5 0 1 1 3 0v2.272a1.5 1.5 0 0 1-1.5 1.5zM35.732 60.148a1.5 1.5 0 0 1-1.5-1.5v-2.272a1.5 1.5 0 1 1 3 0v2.272a1.5 1.5 0 0 1-1.5 1.5zM41.261 60.148a1.5 1.5 0 0 1-1.5-1.5v-2.272a1.5 1.5 0 1 1 3 0v2.272a1.5 1.5 0 0 1-1.5 1.5z" fill="#33363a"/><g><path d="M47.534 70.533a2.265 2.265 0 0 1-2.266 2.264H3.764A2.264 2.264 0 0 1 1.5 70.533v-5.661a2.265 2.265 0 0 1 2.264-2.265h41.505a2.266 2.266 0 0 1 2.266 2.265v5.661z" fill="#ffbe08"/><path d="M3.764 62.607a2.258 2.258 0 0 0-2.248 2.098 2.259 2.259 0 0 0 2.248 2.1h41.505a2.26 2.26 0 0 0 2.249-2.1 2.258 2.258 0 0 0-2.249-2.098H3.764z" fill="#ffd00b"/><path d="M45.269 74.297H3.764A3.768 3.768 0 0 1 0 70.533v-5.661a3.768 3.768 0 0 1 3.764-3.765h41.505a3.77 3.77 0 0 1 3.766 3.765v5.661a3.77 3.77 0 0 1-3.766 3.764zM3.764 64.107a.765.765 0 0 0-.764.765v5.661c0 .421.343.764.764.764h41.505a.766.766 0 0 0 .766-.764v-5.661a.766.766 0 0 0-.766-.765H3.764z" fill="#33363a"/><g><path d="M8.092 70.339a1.5 1.5 0 0 1-1.5-1.5v-2.273a1.5 1.5 0 1 1 3 0v2.273a1.5 1.5 0 0 1-1.5 1.5zM13.62 70.339a1.5 1.5 0 0 1-1.5-1.5v-2.273a1.5 1.5 0 1 1 3 0v2.273a1.5 1.5 0 0 1-1.5 1.5zM19.148 70.339a1.5 1.5 0 0 1-1.5-1.5v-2.273a1.5 1.5 0 1 1 3 0v2.273a1.5 1.5 0 0 1-1.5 1.5zM24.677 70.339a1.5 1.5 0 0 1-1.5-1.5v-2.273a1.5 1.5 0 1 1 3 0v2.273a1.5 1.5 0 0 1-1.5 1.5zM30.204 70.339a1.5 1.5 0 0 1-1.5-1.5v-2.273a1.5 1.5 0 1 1 3 0v2.273a1.5 1.5 0 0 1-1.5 1.5zM35.732 70.339a1.5 1.5 0 0 1-1.5-1.5v-2.273a1.5 1.5 0 1 1 3 0v2.273a1.5 1.5 0 0 1-1.5 1.5zM41.261 70.339a1.5 1.5 0 0 1-1.5-1.5v-2.273a1.5 1.5 0 1 1 3 0v2.273a1.5 1.5 0 0 1-1.5 1.5z" fill="#33363a"/></g></g><g><path d="M47.534 80.723a2.265 2.265 0 0 1-2.266 2.264H3.764A2.264 2.264 0 0 1 1.5 80.723v-5.661a2.265 2.265 0 0 1 2.264-2.265h41.505a2.266 2.266 0 0 1 2.266 2.265v5.661z" fill="#ffbe08"/><path d="M3.764 72.797a2.258 2.258 0 0 0-2.248 2.098 2.259 2.259 0 0 0 2.248 2.1h41.505a2.26 2.26 0 0 0 2.249-2.1 2.258 2.258 0 0 0-2.249-2.098H3.764z" fill="#ffd00b"/><path d="M45.269 84.486H3.764A3.767 3.767 0 0 1 0 80.723v-5.661a3.768 3.768 0 0 1 3.764-3.765h41.505a3.77 3.77 0 0 1 3.766 3.765v5.661a3.77 3.77 0 0 1-3.766 3.763zM3.764 74.297a.765.765 0 0 0-.764.764v5.661c0 .421.343.764.764.764h41.505a.766.766 0 0 0 .766-.764v-5.661a.766.766 0 0 0-.766-.765H3.764z" fill="#33363a"/><g><path d="M8.092 80.527a1.5 1.5 0 0 1-1.5-1.5v-2.272a1.5 1.5 0 1 1 3 0v2.272a1.5 1.5 0 0 1-1.5 1.5zM13.62 80.527a1.5 1.5 0 0 1-1.5-1.5v-2.272a1.5 1.5 0 1 1 3 0v2.272a1.5 1.5 0 0 1-1.5 1.5zM19.148 80.527a1.5 1.5 0 0 1-1.5-1.5v-2.272a1.5 1.5 0 1 1 3 0v2.272a1.5 1.5 0 0 1-1.5 1.5zM24.677 80.527a1.5 1.5 0 0 1-1.5-1.5v-2.272a1.5 1.5 0 1 1 3 0v2.272a1.5 1.5 0 0 1-1.5 1.5zM30.204 80.527a1.5 1.5 0 0 1-1.5-1.5v-2.272a1.5 1.5 0 1 1 3 0v2.272a1.5 1.5 0 0 1-1.5 1.5zM35.732 80.527a1.5 1.5 0 0 1-1.5-1.5v-2.272a1.5 1.5 0 1 1 3 0v2.272a1.5 1.5 0 0 1-1.5 1.5zM41.261 80.527a1.5 1.5 0 0 1-1.5-1.5v-2.272a1.5 1.5 0 1 1 3 0v2.272a1.5 1.5 0 0 1-1.5 1.5z" fill="#33363a"/></g></g><g><path d="M47.534 90.912a2.265 2.265 0 0 1-2.266 2.264H3.764A2.264 2.264 0 0 1 1.5 90.912v-5.661a2.265 2.265 0 0 1 2.264-2.265h41.505a2.266 2.266 0 0 1 2.266 2.265v5.661z" fill="#ffbe08"/><path d="M3.764 82.986a2.258 2.258 0 0 0-2.248 2.098 2.259 2.259 0 0 0 2.248 2.1h41.505a2.26 2.26 0 0 0 2.249-2.1 2.258 2.258 0 0 0-2.249-2.098H3.764z" fill="#ffd00b"/><path d="M45.269 94.676H3.764A3.768 3.768 0 0 1 0 90.912v-5.661a3.768 3.768 0 0 1 3.764-3.765h41.505a3.77 3.77 0 0 1 3.766 3.765v5.661a3.77 3.77 0 0 1-3.766 3.764zM3.764 84.486a.765.765 0 0 0-.764.765v5.661c0 .421.343.764.764.764h41.505a.766.766 0 0 0 .766-.764v-5.661a.766.766 0 0 0-.766-.765H3.764z" fill="#33363a"/><g><path d="M8.092 90.717a1.5 1.5 0 0 1-1.5-1.5v-2.272a1.5 1.5 0 1 1 3 0v2.272a1.5 1.5 0 0 1-1.5 1.5zM13.62 90.717a1.5 1.5 0 0 1-1.5-1.5v-2.272a1.5 1.5 0 1 1 3 0v2.272a1.5 1.5 0 0 1-1.5 1.5zM19.148 90.717a1.5 1.5 0 0 1-1.5-1.5v-2.272a1.5 1.5 0 1 1 3 0v2.272a1.5 1.5 0 0 1-1.5 1.5zM24.677 90.717a1.5 1.5 0 0 1-1.5-1.5v-2.272a1.5 1.5 0 1 1 3 0v2.272a1.5 1.5 0 0 1-1.5 1.5zM30.204 90.717a1.5 1.5 0 0 1-1.5-1.5v-2.272a1.5 1.5 0 1 1 3 0v2.272a1.5 1.5 0 0 1-1.5 1.5zM35.732 90.717a1.5 1.5 0 0 1-1.5-1.5v-2.272a1.5 1.5 0 1 1 3 0v2.272a1.5 1.5 0 0 1-1.5 1.5zM41.261 90.717a1.5 1.5 0 0 1-1.5-1.5v-2.272a1.5 1.5 0 1 1 3 0v2.272a1.5 1.5 0 0 1-1.5 1.5z" fill="#33363a"/></g></g><g><path d="M47.534 101.101a2.265 2.265 0 0 1-2.266 2.264H3.764a2.264 2.264 0 0 1-2.264-2.264V95.44a2.265 2.265 0 0 1 2.264-2.265h41.505a2.266 2.266 0 0 1 2.266 2.265v5.661z" fill="#ffbe08"/><path d="M3.764 93.176a2.258 2.258 0 0 0-2.248 2.098 2.259 2.259 0 0 0 2.248 2.1h41.505a2.26 2.26 0 0 0 2.249-2.1 2.258 2.258 0 0 0-2.249-2.098H3.764z" fill="#ffd00b"/><path d="M45.269 104.865H3.764A3.768 3.768 0 0 1 0 101.101V95.44a3.768 3.768 0 0 1 3.764-3.765h41.505a3.77 3.77 0 0 1 3.766 3.765v5.661a3.77 3.77 0 0 1-3.766 3.764zM3.764 94.676A.765.765 0 0 0 3 95.44v5.661c0 .421.343.764.764.764h41.505a.766.766 0 0 0 .766-.764V95.44a.766.766 0 0 0-.766-.765H3.764z" fill="#33363a"/><g><path d="M8.092 100.906a1.5 1.5 0 0 1-1.5-1.5v-2.272a1.5 1.5 0 1 1 3 0v2.272a1.5 1.5 0 0 1-1.5 1.5zM13.62 100.906a1.5 1.5 0 0 1-1.5-1.5v-2.272a1.5 1.5 0 1 1 3 0v2.272a1.5 1.5 0 0 1-1.5 1.5zM19.148 100.906a1.5 1.5 0 0 1-1.5-1.5v-2.272a1.5 1.5 0 1 1 3 0v2.272a1.5 1.5 0 0 1-1.5 1.5zM24.677 100.906a1.5 1.5 0 0 1-1.5-1.5v-2.272a1.5 1.5 0 1 1 3 0v2.272a1.5 1.5 0 0 1-1.5 1.5zM30.204 100.906a1.5 1.5 0 0 1-1.5-1.5v-2.272a1.5 1.5 0 1 1 3 0v2.272a1.5 1.5 0 0 1-1.5 1.5zM35.732 100.906a1.5 1.5 0 0 1-1.5-1.5v-2.272a1.5 1.5 0 1 1 3 0v2.272a1.5 1.5 0 0 1-1.5 1.5zM41.261 100.906a1.5 1.5 0 0 1-1.5-1.5v-2.272a1.5 1.5 0 1 1 3 0v2.272a1.5 1.5 0 0 1-1.5 1.5z" fill="#33363a"/></g></g><g><path d="M47.534 111.291a2.265 2.265 0 0 1-2.266 2.264H3.764a2.264 2.264 0 0 1-2.264-2.264v-5.661a2.265 2.265 0 0 1 2.264-2.265h41.505a2.266 2.266 0 0 1 2.266 2.265v5.661z" fill="#ffbe08"/><path d="M3.764 103.365a2.258 2.258 0 0 0-2.248 2.098 2.259 2.259 0 0 0 2.248 2.1h41.505a2.26 2.26 0 0 0 2.249-2.1 2.258 2.258 0 0 0-2.249-2.098H3.764z" fill="#ffd00b"/><path d="M45.269 115.055H3.764A3.768 3.768 0 0 1 0 111.291v-5.661a3.768 3.768 0 0 1 3.764-3.765h41.505a3.77 3.77 0 0 1 3.766 3.765v5.661a3.77 3.77 0 0 1-3.766 3.764zm-41.505-10.19a.765.765 0 0 0-.764.765v5.661c0 .421.343.764.764.764h41.505a.766.766 0 0 0 .766-.764v-5.661a.766.766 0 0 0-.766-.765H3.764z" fill="#33363a"/><g><path d="M8.092 111.096a1.5 1.5 0 0 1-1.5-1.5v-2.272a1.5 1.5 0 1 1 3 0v2.272a1.5 1.5 0 0 1-1.5 1.5zM13.62 111.096a1.5 1.5 0 0 1-1.5-1.5v-2.272a1.5 1.5 0 1 1 3 0v2.272a1.5 1.5 0 0 1-1.5 1.5zM19.148 111.096a1.5 1.5 0 0 1-1.5-1.5v-2.272a1.5 1.5 0 1 1 3 0v2.272a1.5 1.5 0 0 1-1.5 1.5zM24.677 111.096a1.5 1.5 0 0 1-1.5-1.5v-2.272a1.5 1.5 0 1 1 3 0v2.272a1.5 1.5 0 0 1-1.5 1.5zM30.204 111.096a1.5 1.5 0 0 1-1.5-1.5v-2.272a1.5 1.5 0 1 1 3 0v2.272a1.5 1.5 0 0 1-1.5 1.5zM35.732 111.096a1.5 1.5 0 0 1-1.5-1.5v-2.272a1.5 1.5 0 1 1 3 0v2.272a1.5 1.5 0 0 1-1.5 1.5zM41.261 111.096a1.5 1.5 0 0 1-1.5-1.5v-2.272a1.5 1.5 0 1 1 3 0v2.272a1.5 1.5 0 0 1-1.5 1.5z" fill="#33363a"/></g></g><g><path d="M47.534 121.48a2.265 2.265 0 0 1-2.266 2.264H3.764A2.264 2.264 0 0 1 1.5 121.48v-5.661a2.265 2.265 0 0 1 2.264-2.265h41.505a2.266 2.266 0 0 1 2.266 2.265v5.661z" fill="#ffbe08"/><path d="M3.764 113.555a2.258 2.258 0 0 0-2.248 2.098 2.259 2.259 0 0 0 2.248 2.1h41.505a2.26 2.26 0 0 0 2.249-2.1 2.258 2.258 0 0 0-2.249-2.098H3.764z" fill="#ffd00b"/><path d="M45.269 125.244H3.764A3.768 3.768 0 0 1 0 121.48v-5.661a3.768 3.768 0 0 1 3.764-3.765h41.505a3.77 3.77 0 0 1 3.766 3.765v5.661a3.77 3.77 0 0 1-3.766 3.764zM3.764 115.055a.765.765 0 0 0-.764.765v5.661c0 .421.343.764.764.764h41.505a.766.766 0 0 0 .766-.764v-5.661a.766.766 0 0 0-.766-.765H3.764z" fill="#33363a"/><g><path d="M8.092 121.285a1.5 1.5 0 0 1-1.5-1.5v-2.272a1.5 1.5 0 1 1 3 0v2.272a1.5 1.5 0 0 1-1.5 1.5zM13.62 121.285a1.5 1.5 0 0 1-1.5-1.5v-2.272a1.5 1.5 0 1 1 3 0v2.272a1.5 1.5 0 0 1-1.5 1.5zM19.148 121.285a1.5 1.5 0 0 1-1.5-1.5v-2.272a1.5 1.5 0 1 1 3 0v2.272a1.5 1.5 0 0 1-1.5 1.5zM24.677 121.285a1.5 1.5 0 0 1-1.5-1.5v-2.272a1.5 1.5 0 1 1 3 0v2.272a1.5 1.5 0 0 1-1.5 1.5zM30.204 121.285a1.5 1.5 0 0 1-1.5-1.5v-2.272a1.5 1.5 0 1 1 3 0v2.272a1.5 1.5 0 0 1-1.5 1.5zM35.732 121.285a1.5 1.5 0 0 1-1.5-1.5v-2.272a1.5 1.5 0 1 1 3 0v2.272a1.5 1.5 0 0 1-1.5 1.5zM41.261 121.285a1.5 1.5 0 0 1-1.5-1.5v-2.272a1.5 1.5 0 1 1 3 0v2.272a1.5 1.5 0 0 1-1.5 1.5z" fill="#33363a"/></g></g><g><path d="M98.22 20.215a2.265 2.265 0 0 1-2.266 2.264H54.449a2.264 2.264 0 0 1-2.264-2.264v-5.661a2.265 2.265 0 0 1 2.264-2.265h41.505a2.266 2.266 0 0 1 2.266 2.265v5.661z" fill="#ffbe08"/><path d="M54.449 12.289a2.258 2.258 0 0 0-2.248 2.098 2.259 2.259 0 0 0 2.248 2.1h41.505a2.26 2.26 0 0 0 2.249-2.1 2.258 2.258 0 0 0-2.249-2.098H54.449z" fill="#ffd00b"/><path d="M95.954 23.978H54.449a3.768 3.768 0 0 1-3.764-3.764v-5.661a3.768 3.768 0 0 1 3.764-3.765h41.505a3.77 3.77 0 0 1 3.766 3.765v5.661a3.77 3.77 0 0 1-3.766 3.764zM54.449 13.789a.765.765 0 0 0-.764.765v5.661c0 .421.343.764.764.764h41.505a.766.766 0 0 0 .766-.764v-5.661a.766.766 0 0 0-.766-.765H54.449z" fill="#33363a"/><path d="M58.777 20.019a1.5 1.5 0 0 1-1.5-1.5v-2.272a1.5 1.5 0 1 1 3 0v2.272a1.5 1.5 0 0 1-1.5 1.5zM64.306 20.019a1.5 1.5 0 0 1-1.5-1.5v-2.272a1.5 1.5 0 1 1 3 0v2.272a1.5 1.5 0 0 1-1.5 1.5zM69.834 20.019a1.5 1.5 0 0 1-1.5-1.5v-2.272a1.5 1.5 0 1 1 3 0v2.272a1.5 1.5 0 0 1-1.5 1.5zM75.362 20.019a1.5 1.5 0 0 1-1.5-1.5v-2.272a1.5 1.5 0 1 1 3 0v2.272a1.5 1.5 0 0 1-1.5 1.5zM80.89 20.019a1.5 1.5 0 0 1-1.5-1.5v-2.272a1.5 1.5 0 1 1 3 0v2.272a1.5 1.5 0 0 1-1.5 1.5zM86.418 20.019a1.5 1.5 0 0 1-1.5-1.5v-2.272a1.5 1.5 0 1 1 3 0v2.272a1.5 1.5 0 0 1-1.5 1.5zM91.946 20.019a1.5 1.5 0 0 1-1.5-1.5v-2.272a1.5 1.5 0 1 1 3 0v2.272a1.5 1.5 0 0 1-1.5 1.5z" fill="#33363a"/><g><path d="M98.22 30.404a2.265 2.265 0 0 1-2.266 2.264H54.449a2.264 2.264 0 0 1-2.264-2.264v-5.661a2.265 2.265 0 0 1 2.264-2.265h41.505a2.266 2.266 0 0 1 2.266 2.265v5.661z" fill="#ffbe08"/><path d="M54.449 22.478a2.258 2.258 0 0 0-2.248 2.098 2.259 2.259 0 0 0 2.248 2.1h41.505a2.26 2.26 0 0 0 2.249-2.1 2.258 2.258 0 0 0-2.249-2.098H54.449z" fill="#ffd00b"/><path d="M95.954 34.168H54.449a3.768 3.768 0 0 1-3.764-3.764v-5.661a3.768 3.768 0 0 1 3.764-3.765h41.505a3.77 3.77 0 0 1 3.766 3.765v5.661a3.77 3.77 0 0 1-3.766 3.764zm-41.505-10.19a.765.765 0 0 0-.764.765v5.661c0 .421.343.764.764.764h41.505a.766.766 0 0 0 .766-.764v-5.661a.766.766 0 0 0-.766-.765H54.449z" fill="#33363a"/><g><path d="M58.777 30.209a1.5 1.5 0 0 1-1.5-1.5v-2.272a1.5 1.5 0 1 1 3 0v2.272a1.5 1.5 0 0 1-1.5 1.5zM64.306 30.209a1.5 1.5 0 0 1-1.5-1.5v-2.272a1.5 1.5 0 1 1 3 0v2.272a1.5 1.5 0 0 1-1.5 1.5zM69.834 30.209a1.5 1.5 0 0 1-1.5-1.5v-2.272a1.5 1.5 0 1 1 3 0v2.272a1.5 1.5 0 0 1-1.5 1.5zM75.362 30.209a1.5 1.5 0 0 1-1.5-1.5v-2.272a1.5 1.5 0 1 1 3 0v2.272a1.5 1.5 0 0 1-1.5 1.5zM80.89 30.209a1.5 1.5 0 0 1-1.5-1.5v-2.272a1.5 1.5 0 1 1 3 0v2.272a1.5 1.5 0 0 1-1.5 1.5zM86.418 30.209a1.5 1.5 0 0 1-1.5-1.5v-2.272a1.5 1.5 0 1 1 3 0v2.272a1.5 1.5 0 0 1-1.5 1.5zM91.946 30.209a1.5 1.5 0 0 1-1.5-1.5v-2.272a1.5 1.5 0 1 1 3 0v2.272a1.5 1.5 0 0 1-1.5 1.5z" fill="#33363a"/></g></g><g><path d="M98.22 40.594a2.265 2.265 0 0 1-2.266 2.264H54.449a2.264 2.264 0 0 1-2.264-2.264v-5.661a2.265 2.265 0 0 1 2.264-2.265h41.505a2.266 2.266 0 0 1 2.266 2.265v5.661z" fill="#ffbe08"/><path d="M54.449 32.668a2.258 2.258 0 0 0-2.248 2.098 2.259 2.259 0 0 0 2.248 2.1h41.505a2.26 2.26 0 0 0 2.249-2.1 2.258 2.258 0 0 0-2.249-2.098H54.449z" fill="#ffd00b"/><path d="M95.954 44.357H54.449a3.768 3.768 0 0 1-3.764-3.764v-5.661a3.768 3.768 0 0 1 3.764-3.765h41.505a3.77 3.77 0 0 1 3.766 3.765v5.661a3.77 3.77 0 0 1-3.766 3.764zM54.449 34.168a.765.765 0 0 0-.764.765v5.661c0 .421.343.764.764.764h41.505a.766.766 0 0 0 .766-.764v-5.661a.766.766 0 0 0-.766-.765H54.449z" fill="#33363a"/><g><path d="M58.777 40.398a1.5 1.5 0 0 1-1.5-1.5v-2.272a1.5 1.5 0 1 1 3 0v2.272a1.5 1.5 0 0 1-1.5 1.5zM64.306 40.398a1.5 1.5 0 0 1-1.5-1.5v-2.272a1.5 1.5 0 1 1 3 0v2.272a1.5 1.5 0 0 1-1.5 1.5zM69.834 40.398a1.5 1.5 0 0 1-1.5-1.5v-2.272a1.5 1.5 0 1 1 3 0v2.272a1.5 1.5 0 0 1-1.5 1.5zM75.362 40.398a1.5 1.5 0 0 1-1.5-1.5v-2.272a1.5 1.5 0 1 1 3 0v2.272a1.5 1.5 0 0 1-1.5 1.5zM80.89 40.398a1.5 1.5 0 0 1-1.5-1.5v-2.272a1.5 1.5 0 1 1 3 0v2.272a1.5 1.5 0 0 1-1.5 1.5zM86.418 40.398a1.5 1.5 0 0 1-1.5-1.5v-2.272a1.5 1.5 0 1 1 3 0v2.272a1.5 1.5 0 0 1-1.5 1.5zM91.946 40.398a1.5 1.5 0 0 1-1.5-1.5v-2.272a1.5 1.5 0 1 1 3 0v2.272a1.5 1.5 0 0 1-1.5 1.5z" fill="#33363a"/></g></g><g><path d="M98.22 50.783a2.265 2.265 0 0 1-2.266 2.264H54.449a2.264 2.264 0 0 1-2.264-2.264v-5.661a2.265 2.265 0 0 1 2.264-2.265h41.505a2.266 2.266 0 0 1 2.266 2.265v5.661z" fill="#ffbe08"/><path d="M54.449 42.857a2.258 2.258 0 0 0-2.248 2.098 2.259 2.259 0 0 0 2.248 2.1h41.505a2.26 2.26 0 0 0 2.249-2.1 2.258 2.258 0 0 0-2.249-2.098H54.449z" fill="#ffd00b"/><path d="M95.954 54.547H54.449a3.768 3.768 0 0 1-3.764-3.764v-5.661a3.768 3.768 0 0 1 3.764-3.765h41.505a3.77 3.77 0 0 1 3.766 3.765v5.661a3.77 3.77 0 0 1-3.766 3.764zm-41.505-10.19a.765.765 0 0 0-.764.765v5.661c0 .421.343.764.764.764h41.505a.766.766 0 0 0 .766-.764v-5.661a.766.766 0 0 0-.766-.765H54.449z" fill="#33363a"/><g><path d="M58.777 50.589a1.5 1.5 0 0 1-1.5-1.5v-2.273a1.5 1.5 0 1 1 3 0v2.273a1.5 1.5 0 0 1-1.5 1.5zM64.306 50.589a1.5 1.5 0 0 1-1.5-1.5v-2.273a1.5 1.5 0 1 1 3 0v2.273a1.5 1.5 0 0 1-1.5 1.5zM69.834 50.589a1.5 1.5 0 0 1-1.5-1.5v-2.273a1.5 1.5 0 1 1 3 0v2.273a1.5 1.5 0 0 1-1.5 1.5zM75.362 50.589a1.5 1.5 0 0 1-1.5-1.5v-2.273a1.5 1.5 0 1 1 3 0v2.273a1.5 1.5 0 0 1-1.5 1.5zM80.89 50.589a1.5 1.5 0 0 1-1.5-1.5v-2.273a1.5 1.5 0 1 1 3 0v2.273a1.5 1.5 0 0 1-1.5 1.5zM86.418 50.589a1.5 1.5 0 0 1-1.5-1.5v-2.273a1.5 1.5 0 1 1 3 0v2.273a1.5 1.5 0 0 1-1.5 1.5zM91.946 50.589a1.5 1.5 0 0 1-1.5-1.5v-2.273a1.5 1.5 0 1 1 3 0v2.273a1.5 1.5 0 0 1-1.5 1.5z" fill="#33363a"/></g></g><g><path d="M98.22 60.973a2.265 2.265 0 0 1-2.266 2.264H54.449a2.264 2.264 0 0 1-2.264-2.264v-5.661a2.265 2.265 0 0 1 2.264-2.265h41.505a2.266 2.266 0 0 1 2.266 2.265v5.661z" fill="#ffbe08"/><path d="M54.449 53.047a2.258 2.258 0 0 0-2.248 2.098 2.259 2.259 0 0 0 2.248 2.1h41.505a2.26 2.26 0 0 0 2.249-2.1 2.258 2.258 0 0 0-2.249-2.098H54.449z" fill="#ffd00b"/><path d="M95.954 64.736H54.449a3.768 3.768 0 0 1-3.764-3.764v-5.661a3.768 3.768 0 0 1 3.764-3.765h41.505a3.77 3.77 0 0 1 3.766 3.765v5.661a3.77 3.77 0 0 1-3.766 3.764zM54.449 54.547a.765.765 0 0 0-.764.765v5.661c0 .421.343.764.764.764h41.505a.766.766 0 0 0 .766-.764v-5.661a.766.766 0 0 0-.766-.765H54.449z" fill="#33363a"/><g><path d="M58.777 60.777a1.5 1.5 0 0 1-1.5-1.5v-2.272a1.5 1.5 0 1 1 3 0v2.272a1.5 1.5 0 0 1-1.5 1.5zM64.306 60.777a1.5 1.5 0 0 1-1.5-1.5v-2.272a1.5 1.5 0 1 1 3 0v2.272a1.5 1.5 0 0 1-1.5 1.5zM69.834 60.777a1.5 1.5 0 0 1-1.5-1.5v-2.272a1.5 1.5 0 1 1 3 0v2.272a1.5 1.5 0 0 1-1.5 1.5zM75.362 60.777a1.5 1.5 0 0 1-1.5-1.5v-2.272a1.5 1.5 0 1 1 3 0v2.272a1.5 1.5 0 0 1-1.5 1.5zM80.89 60.777a1.5 1.5 0 0 1-1.5-1.5v-2.272a1.5 1.5 0 1 1 3 0v2.272a1.5 1.5 0 0 1-1.5 1.5zM86.418 60.777a1.5 1.5 0 0 1-1.5-1.5v-2.272a1.5 1.5 0 1 1 3 0v2.272a1.5 1.5 0 0 1-1.5 1.5zM91.946 60.777a1.5 1.5 0 0 1-1.5-1.5v-2.272a1.5 1.5 0 1 1 3 0v2.272a1.5 1.5 0 0 1-1.5 1.5z" fill="#33363a"/></g></g><g><path d="M98.22 71.162a2.265 2.265 0 0 1-2.266 2.264H54.449a2.264 2.264 0 0 1-2.264-2.264v-5.661a2.265 2.265 0 0 1 2.264-2.265h41.505a2.266 2.266 0 0 1 2.266 2.265v5.661z" fill="#ffbe08"/><path d="M54.449 63.236a2.258 2.258 0 0 0-2.248 2.098 2.259 2.259 0 0 0 2.248 2.1h41.505a2.26 2.26 0 0 0 2.249-2.1 2.258 2.258 0 0 0-2.249-2.098H54.449z" fill="#ffd00b"/><path d="M95.954 74.926H54.449a3.768 3.768 0 0 1-3.764-3.764v-5.661a3.768 3.768 0 0 1 3.764-3.765h41.505a3.77 3.77 0 0 1 3.766 3.765v5.661a3.77 3.77 0 0 1-3.766 3.764zm-41.505-10.19a.765.765 0 0 0-.764.765v5.661c0 .421.343.764.764.764h41.505a.766.766 0 0 0 .766-.764v-5.661a.766.766 0 0 0-.766-.765H54.449z" fill="#33363a"/><g><path d="M58.777 70.967a1.5 1.5 0 0 1-1.5-1.5v-2.272a1.5 1.5 0 1 1 3 0v2.272a1.5 1.5 0 0 1-1.5 1.5zM64.306 70.967a1.5 1.5 0 0 1-1.5-1.5v-2.272a1.5 1.5 0 1 1 3 0v2.272a1.5 1.5 0 0 1-1.5 1.5zM69.834 70.967a1.5 1.5 0 0 1-1.5-1.5v-2.272a1.5 1.5 0 1 1 3 0v2.272a1.5 1.5 0 0 1-1.5 1.5zM75.362 70.967a1.5 1.5 0 0 1-1.5-1.5v-2.272a1.5 1.5 0 1 1 3 0v2.272a1.5 1.5 0 0 1-1.5 1.5zM80.89 70.967a1.5 1.5 0 0 1-1.5-1.5v-2.272a1.5 1.5 0 1 1 3 0v2.272a1.5 1.5 0 0 1-1.5 1.5zM86.418 70.967a1.5 1.5 0 0 1-1.5-1.5v-2.272a1.5 1.5 0 1 1 3 0v2.272a1.5 1.5 0 0 1-1.5 1.5zM91.946 70.967a1.5 1.5 0 0 1-1.5-1.5v-2.272a1.5 1.5 0 1 1 3 0v2.272a1.5 1.5 0 0 1-1.5 1.5z" fill="#33363a"/></g></g><g><path d="M98.22 81.351a2.265 2.265 0 0 1-2.266 2.264H54.449a2.264 2.264 0 0 1-2.264-2.264V75.69a2.265 2.265 0 0 1 2.264-2.265h41.505a2.266 2.266 0 0 1 2.266 2.265v5.661z" fill="#ffbe08"/><path d="M54.449 73.426a2.258 2.258 0 0 0-2.248 2.098 2.259 2.259 0 0 0 2.248 2.1h41.505a2.26 2.26 0 0 0 2.249-2.1 2.258 2.258 0 0 0-2.249-2.098H54.449z" fill="#ffd00b"/><path d="M95.954 85.115H54.449a3.768 3.768 0 0 1-3.764-3.764V75.69a3.768 3.768 0 0 1 3.764-3.765h41.505a3.77 3.77 0 0 1 3.766 3.765v5.661a3.77 3.77 0 0 1-3.766 3.764zM54.449 74.926a.765.765 0 0 0-.764.765v5.661c0 .421.343.764.764.764h41.505a.766.766 0 0 0 .766-.764V75.69a.766.766 0 0 0-.766-.765H54.449z" fill="#33363a"/><g><path d="M58.777 81.156a1.5 1.5 0 0 1-1.5-1.5v-2.272a1.5 1.5 0 1 1 3 0v2.272a1.5 1.5 0 0 1-1.5 1.5zM64.306 81.156a1.5 1.5 0 0 1-1.5-1.5v-2.272a1.5 1.5 0 1 1 3 0v2.272a1.5 1.5 0 0 1-1.5 1.5zM69.834 81.156a1.5 1.5 0 0 1-1.5-1.5v-2.272a1.5 1.5 0 1 1 3 0v2.272a1.5 1.5 0 0 1-1.5 1.5zM75.362 81.156a1.5 1.5 0 0 1-1.5-1.5v-2.272a1.5 1.5 0 1 1 3 0v2.272a1.5 1.5 0 0 1-1.5 1.5zM80.89 81.156a1.5 1.5 0 0 1-1.5-1.5v-2.272a1.5 1.5 0 1 1 3 0v2.272a1.5 1.5 0 0 1-1.5 1.5zM86.418 81.156a1.5 1.5 0 0 1-1.5-1.5v-2.272a1.5 1.5 0 1 1 3 0v2.272a1.5 1.5 0 0 1-1.5 1.5zM91.946 81.156a1.5 1.5 0 0 1-1.5-1.5v-2.272a1.5 1.5 0 1 1 3 0v2.272a1.5 1.5 0 0 1-1.5 1.5z" fill="#33363a"/></g></g><g><path d="M98.22 91.541a2.265 2.265 0 0 1-2.266 2.264H54.449a2.264 2.264 0 0 1-2.264-2.264V85.88a2.265 2.265 0 0 1 2.264-2.265h41.505a2.266 2.266 0 0 1 2.266 2.265v5.661z" fill="#ffbe08"/><path d="M54.449 83.615a2.258 2.258 0 0 0-2.248 2.098 2.259 2.259 0 0 0 2.248 2.1h41.505a2.26 2.26 0 0 0 2.249-2.1 2.258 2.258 0 0 0-2.249-2.098H54.449z" fill="#ffd00b"/><path d="M95.954 95.305H54.449a3.768 3.768 0 0 1-3.764-3.764V85.88a3.768 3.768 0 0 1 3.764-3.765h41.505a3.77 3.77 0 0 1 3.766 3.765v5.661a3.77 3.77 0 0 1-3.766 3.764zm-41.505-10.19a.765.765 0 0 0-.764.765v5.661c0 .421.343.764.764.764h41.505a.766.766 0 0 0 .766-.764V85.88a.766.766 0 0 0-.766-.765H54.449z" fill="#33363a"/><g><path d="M58.777 91.346a1.5 1.5 0 0 1-1.5-1.5v-2.272a1.5 1.5 0 1 1 3 0v2.272a1.5 1.5 0 0 1-1.5 1.5zM64.306 91.346a1.5 1.5 0 0 1-1.5-1.5v-2.272a1.5 1.5 0 1 1 3 0v2.272a1.5 1.5 0 0 1-1.5 1.5zM69.834 91.346a1.5 1.5 0 0 1-1.5-1.5v-2.272a1.5 1.5 0 1 1 3 0v2.272a1.5 1.5 0 0 1-1.5 1.5zM75.362 91.346a1.5 1.5 0 0 1-1.5-1.5v-2.272a1.5 1.5 0 1 1 3 0v2.272a1.5 1.5 0 0 1-1.5 1.5zM80.89 91.346a1.5 1.5 0 0 1-1.5-1.5v-2.272a1.5 1.5 0 1 1 3 0v2.272a1.5 1.5 0 0 1-1.5 1.5zM86.418 91.346a1.5 1.5 0 0 1-1.5-1.5v-2.272a1.5 1.5 0 1 1 3 0v2.272a1.5 1.5 0 0 1-1.5 1.5zM91.946 91.346a1.5 1.5 0 0 1-1.5-1.5v-2.272a1.5 1.5 0 1 1 3 0v2.272a1.5 1.5 0 0 1-1.5 1.5z" fill="#33363a"/></g></g></g><g><path fill="#fff" d="M109.798 123.744H40.607L24.533 30.142h101.338z"/><path fill="#ff900b" d="M32.006 73.656h86.392l7.473-43.514H24.533z"/><path fill="#dfe7e8" d="M93.152 123.744H57.251l-8.339-93.602h52.579z"/><path fill="#ff630d" d="M97.615 73.656l3.876-43.514H48.912l3.877 43.514z"/><path d="M127.018 29.175a1.497 1.497 0 0 0-1.146-.533h-16.333V7.829a5.71 5.71 0 0 0-5.703-5.702H46.569a5.709 5.709 0 0 0-5.703 5.702v20.813H24.533a1.497 1.497 0 0 0-1.478 1.754l16.074 93.603a1.5 1.5 0 0 0 1.479 1.246h69.19c.73 0 1.354-.526 1.479-1.246l16.073-93.603a1.503 1.503 0 0 0-.332-1.221zM43.866 7.829a2.706 2.706 0 0 1 2.703-2.702h57.266a2.706 2.706 0 0 1 2.703 2.702v20.813H43.866V7.829zm64.667 114.415H41.872l-15.56-90.603h14.554v7.447c-2.073.686-3.582 2.62-3.582 4.919 0 2.869 2.335 5.202 5.204 5.202s5.204-2.333 5.204-5.202c0-2.389-1.628-4.387-3.826-4.995v-7.371h80.226l-15.559 90.603zm-66.045-80.44c1.216 0 2.204.989 2.204 2.204a2.205 2.205 0 0 1-4.408 0c0-1.216.988-2.204 2.204-2.204z" fill="#33363a"/></g><g><circle cx="75.203" cy="76.07" r="27.611" fill="#ffd00b"/></g><g><path d="M75.202 48.46v55.222c15.249 0 27.611-12.362 27.611-27.611 0-15.248-12.362-27.611-27.611-27.611z" fill="#ffbe08"/></g><g><circle cx="75.202" cy="76.071" r="21.374" fill="#ffd00b"/></g><g><path d="M60.089 60.958l30.228 30.227c8.348-8.346 8.348-21.881-.001-30.227-8.346-8.347-21.88-8.348-30.227 0z" fill="#ffbe08"/></g><g><path d="M84.148 80.886c-.324 0-.624-.103-.87-.278a1.5 1.5 0 0 1-2.369-1.222c0-1.306 1.063-2.369 2.369-2.369s2.37 1.063 2.37 2.369a1.5 1.5 0 0 1-1.5 1.5z" fill="#33363a"/></g><g><path d="M84.609 84.185a2.334 2.334 0 1 1-4.669.001 2.334 2.334 0 0 1 4.669-.001z" fill="#e04038"/></g><g><path d="M82.275 81.853a2.334 2.334 0 0 1 0 4.667" fill="#ff6155"/></g><path d="M75.202 46.96c-16.052 0-29.11 13.059-29.11 29.11 0 16.052 13.059 29.111 29.11 29.111s29.111-13.059 29.111-29.111c0-16.051-13.059-29.11-29.111-29.11zm25.515 34.645a1.484 1.484 0 0 0-.718-.441l-1.516-.408a1.483 1.483 0 0 0-.903.041c.24-1.15.376-2.327.438-3.518.248.182.552.293.883.293h1.569c.299 0 .577-.09.811-.241a25.932 25.932 0 0 1-.564 4.274zm-2.881 5.802l-1.358-.785a1.49 1.49 0 0 0-.887-.193 22.5 22.5 0 0 0 1.353-3.267c.191.229.45.406.761.489l1.516.408c.13.035.262.052.391.052.157 0 .31-.029.456-.075-.443 1.379-1 2.706-1.655 3.974a1.517 1.517 0 0 0-.577-.603zM55.328 76.071c0-2.432.454-4.79 1.285-7 .031.106.07.21.104.315.033.103.065.206.101.308.079.227.166.45.258.671.019.046.034.094.054.14.006.013.016.024.022.037a12.888 12.888 0 0 0 2.709 4.017 12.908 12.908 0 0 0 5.443 3.233 127.21 127.21 0 0 0-1.922 2.939c-1.277 1.992-2.702 4.208-4.516 6.639a19.692 19.692 0 0 1-3.538-11.299zm-3.334 11.94a25.958 25.958 0 0 1-1.655-3.974 1.48 1.48 0 0 0 .846.023l1.516-.408c.311-.084.57-.26.761-.49a22.592 22.592 0 0 0 1.353 3.267 1.48 1.48 0 0 0-.886.193l-1.359.785a1.49 1.49 0 0 0-.576.604zm-2.87-10.68c.234.151.511.241.81.241h1.569c.332 0 .635-.111.884-.294a22.99 22.99 0 0 0 .438 3.52 1.478 1.478 0 0 0-.904-.041l-1.516.408a1.484 1.484 0 0 0-.718.441 26.066 26.066 0 0 1-.563-4.275zm.563-6.793c.187.206.43.364.718.441l1.516.407a1.462 1.462 0 0 0 .905-.046 23.044 23.044 0 0 0-.439 3.524 1.491 1.491 0 0 0-.884-.294h-1.569c-.299 0-.576.09-.81.241.069-1.459.263-2.885.563-4.273zm2.881-5.803l1.359.786c.236.137.495.202.75.202.048 0 .094-.014.141-.018a22.547 22.547 0 0 0-1.357 3.275 1.494 1.494 0 0 0-.762-.491l-1.516-.407a1.498 1.498 0 0 0-.846.023 25.858 25.858 0 0 1 1.655-3.974c.129.243.321.456.576.604zm38.331-6.482c-.239.238-.354.541-.399.851a22.955 22.955 0 0 0-2.828-2.203c.273-.125.516-.323.677-.603l.785-1.357c.147-.255.208-.535.196-.81a26.299 26.299 0 0 1 3.431 2.633c-.275.058-.541.166-.754.38l-1.108 1.109zm-4.361-4.815l-.785 1.357c-.162.28-.22.59-.192.889a22.643 22.643 0 0 0-3.274-1.356 1.48 1.48 0 0 0 .498-.761l.406-1.518a1.492 1.492 0 0 0-.023-.844c1.379.443 2.707 1 3.976 1.656a1.518 1.518 0 0 0-.606.577zm-6.245-2.163l-.406 1.518c-.083.31-.06.622.042.901a22.962 22.962 0 0 0-3.519-.438c.182-.248.292-.551.292-.883v-1.572c0-.299-.09-.576-.24-.81 1.459.07 2.887.263 4.274.564a1.493 1.493 0 0 0-.443.72zm-6.298 1.982a22.962 22.962 0 0 0-3.519.438c.103-.28.125-.592.042-.901l-.406-1.518a1.495 1.495 0 0 0-.442-.72 26.011 26.011 0 0 1 4.274-.564 1.488 1.488 0 0 0-.241.81v1.572c-.001.331.11.634.292.883zm-6.782-1.206l.406 1.518c.084.313.267.569.498.761a22.53 22.53 0 0 0-3.274 1.356 1.488 1.488 0 0 0-.192-.889l-.784-1.357a1.498 1.498 0 0 0-.606-.577 25.91 25.91 0 0 1 3.975-1.655c-.085.264-.1.554-.023.843zM61.27 54.94l.784 1.357c.162.28.404.478.677.603a23.107 23.107 0 0 0-2.828 2.203c-.044-.31-.16-.612-.399-.851l-1.109-1.109c-.213-.213-.479-.322-.754-.38a26.299 26.299 0 0 1 3.431-2.633c-.01.274.05.555.198.81zm7.923 13.581a12.5 12.5 0 0 1 2.745 4.143 1.5 1.5 0 0 0 2.038.785c.979-.471 2.014-.567 3.266-.567 2.975 0 8.258 2.385 10.442 6.863 1.945 3.987.884 8.77-3.069 13.831l-.007.011a19.764 19.764 0 0 1-9.406 2.359c-5.309 0-10.3-2.068-14.054-5.822-.116-.116-.215-.243-.328-.361.159-.209.312-.415.466-.621.247.062.51.068.772-.005 1.667-.476 2.591 1.191 2.694 1.39a1.5 1.5 0 0 0 2.679-1.351c-.535-1.073-1.927-2.724-3.988-3.067.299-.441.586-.871.865-1.294.053-.009.107-.013.16-.028 1.66-.478 2.591 1.188 2.695 1.388a1.5 1.5 0 0 0 2.679-1.351c-.502-1.005-1.757-2.514-3.608-2.982 1.604-2.497 2.933-4.515 4.528-6.076a1.5 1.5 0 0 0-.405-2.427 12.568 12.568 0 0 1-2.851-1.87c-.007-.006-.01-.014-.016-.02-.217-.188-.435-.376-.642-.583a12.576 12.576 0 0 1-1.073-1.225c-.098-.128-.177-.27-.27-.401a12.677 12.677 0 0 1-1.232-2.148l1.156-1.155a12.507 12.507 0 0 1 3.764 2.584zm-7.947.784c.413.229.814.483 1.193.771.055.091.124.172.182.261.225.353.463.696.715 1.03.098.129.194.258.296.384.34.422.695.832 1.08 1.218l.016.017h.001c.188.188.382.365.578.538.214.427.396.865.546 1.31a9.772 9.772 0 0 1-3.87-2.396 9.84 9.84 0 0 1-1.649-2.222l.912-.911zm-.939-6.358a1.49 1.49 0 0 0-.067.606v.006a15.85 15.85 0 0 0 .399 2.204c-.292-.1-.587-.189-.886-.268l-.059-.017a12.84 12.84 0 0 0-.778-.172c-.057-.011-.114-.026-.171-.037-.066-.012-.134-.019-.2-.03a19.78 19.78 0 0 1 1.762-2.292zm-.802 30.943c.238-.238.354-.54.398-.85.893.807 1.828 1.55 2.819 2.198a1.49 1.49 0 0 0-.669.608l-.784 1.357a1.486 1.486 0 0 0-.196.807 26.135 26.135 0 0 1-3.43-2.633c.274-.058.54-.166.753-.38l1.109-1.107zm4.362 4.815l.784-1.357c.161-.28.22-.59.192-.889 1.053.537 2.145.989 3.269 1.354a1.49 1.49 0 0 0-.493.762l-.406 1.515c-.077.289-.062.58.023.845-1.379-.443-2.706-1-3.975-1.656.244-.127.458-.318.606-.574zm6.244 2.162l.406-1.515a1.49 1.49 0 0 0-.043-.903 22.99 22.99 0 0 0 3.52.438 1.488 1.488 0 0 0-.293.883v1.569c0 .299.09.576.241.81a25.955 25.955 0 0 1-4.287-.567c.209-.187.378-.424.456-.715zm6.298-1.98a22.975 22.975 0 0 0 3.52-.438 1.49 1.49 0 0 0-.043.903l.406 1.515c.078.291.247.528.456.716a26.077 26.077 0 0 1-4.287.567c.151-.234.24-.511.24-.81v-1.57a1.482 1.482 0 0 0-.292-.883zm6.782 1.203l-.406-1.515a1.49 1.49 0 0 0-.492-.762 22.45 22.45 0 0 0 3.268-1.354c-.027.298.031.607.192.886l.785 1.359c.148.256.362.447.606.575a25.926 25.926 0 0 1-3.976 1.656c.085-.266.101-.556.023-.845zm5.945-2.886l-.785-1.359a1.48 1.48 0 0 0-.667-.608 23.047 23.047 0 0 0 2.817-2.197c.044.31.16.612.398.85l1.109 1.109c.213.213.479.321.753.38a26.215 26.215 0 0 1-3.43 2.632 1.48 1.48 0 0 0-.195-.807zm1.829-9.058c.938-3.041.789-5.628.187-7.704a2.568 2.568 0 0 0 .144-2.87 2.558 2.558 0 0 0-2.193-1.221c-3.003-4.043-8.147-6.469-11.86-6.469-1 0-2.054.05-3.133.336a15.379 15.379 0 0 0-2.795-3.818 15.646 15.646 0 0 0-5.695-3.621c-.012-.005-.023-.014-.035-.018-.33-.12-.665-.225-1.001-.322-.094-.027-.188-.049-.282-.074-.299-.08-.599-.151-.902-.213-.112-.023-.224-.046-.337-.067-.39-.071-.782-.133-1.176-.173a1.48 1.48 0 0 0-.75.123l.014-.015c3.754-3.754 8.744-5.821 14.053-5.821s10.3 2.067 14.053 5.821a19.74 19.74 0 0 1 5.822 14.052 19.717 19.717 0 0 1-4.114 12.074zm7.446-24.016a25.926 25.926 0 0 1 1.656 3.976 1.51 1.51 0 0 0-.847-.024l-1.516.407c-.311.083-.57.26-.761.49a22.535 22.535 0 0 0-1.357-3.274c.047.005.093.018.141.018.255 0 .514-.065.75-.202l1.359-.786c.256-.148.448-.361.575-.605zm2.06 10.441h-1.569c-.331 0-.635.111-.883.293a23.015 23.015 0 0 0-.439-3.523c.163.06.335.097.513.097.129 0 .26-.017.391-.052l1.516-.407c.288-.077.532-.236.719-.442.301 1.388.494 2.815.564 4.275a1.5 1.5 0 0 0-.812-.241zm-3.328-12.63a1.483 1.483 0 0 0-.809.197l-1.359.786c-.277.16-.481.396-.607.666a22.892 22.892 0 0 0-2.198-2.818c.31-.044.612-.16.85-.399l1.109-1.109c.213-.213.322-.479.38-.754a26.306 26.306 0 0 1 2.634 3.431zm-41.248-3.43c.058.275.166.541.38.754l1.109 1.109c.239.238.541.354.851.399a22.977 22.977 0 0 0-2.198 2.819 1.494 1.494 0 0 0-.607-.667l-1.359-.786a1.486 1.486 0 0 0-.808-.197 26.072 26.072 0 0 1 2.632-3.431zm-2.633 31.688c.02.001.039.008.059.008.255 0 .513-.065.749-.202l1.359-.785c.278-.16.483-.397.608-.667a23.046 23.046 0 0 0 1.623 2.185c.056.075.119.145.19.21.124.144.256.282.384.423-.309.044-.611.16-.85.398l-1.109 1.109c-.213.213-.321.478-.38.753a26.309 26.309 0 0 1-2.633-3.432zm41.248 3.432c-.058-.274-.167-.54-.38-.753l-1.109-1.109c-.238-.238-.54-.354-.85-.398a22.98 22.98 0 0 0 2.197-2.818c.125.27.33.507.607.668l1.358.785c.236.137.495.202.75.202.02 0 .039-.007.059-.008a26.271 26.271 0 0 1-2.632 3.431z" fill="#33363a"/></svg>