<svg height="496pt" viewBox="-77 0 496 496" width="496pt" xmlns="http://www.w3.org/2000/svg"><path d="M170.824 360l-40 128a240.971 240.971 0 0 1-119.566-31.754l-.434-.246 22.903-35.992a211.748 211.748 0 0 0 33.097-113.656c0-22.75-3.672-45.36-10.855-66.946l-5.176-15.496a155.22 155.22 0 0 1-7.969-49.11c0-15.12 2.2-30.16 6.543-44.632A413.323 413.323 0 0 0 66.824 11.273V8h64v26.55a244.925 244.925 0 0 0 40 134.137l7.344-.023V360zm0 0" fill="#fcd770"/><path d="M210.824 8v26.55a244.95 244.95 0 0 1-71.734 173.184 28.223 28.223 0 0 0-8.266 19.961c0 2.848.442 5.688 1.281 8.418L210.825 488a240.993 240.993 0 0 0 119.566-31.754l.433-.246-22.902-35.992a211.68 211.68 0 0 1-33.098-113.656c0-22.75 3.672-45.36 10.856-66.946l5.168-15.496a155.269 155.269 0 0 0 7.968-49.117c0-15.121-2.199-30.16-6.543-44.633a413.492 413.492 0 0 1-17.449-118.887V8zm0 0" fill="#b4dd7f"/><path d="M202.824 232c0 8.836-7.164 16-16 16s-16-7.164-16-16 7.164-16 16-16 16 7.164 16 16zm0 0M289.969 384.64c-6.235-15.64-10.68-31.945-13.04-48.64h-50.105v48l32 24zm0 0" fill="#fcd770"/><path d="M51.68 384.64L82.824 408l32-24v-48H64.727c-2.368 16.695-6.805 33-13.047 48.64zm0 0" fill="#b4dd7f"/><path d="M314.672 415.71c-20.84-32.733-31.848-70.55-31.848-109.358 0-21.938 3.512-43.61 10.457-64.414l5.168-15.497a163.352 163.352 0 0 0 1.488-98.57 405.65 405.65 0 0 1-17.113-116.598V0h-80v34.55c0 42.427-11.129 83.122-31.902 118.833-20.969-36.102-32.098-76.887-32.098-118.832V0h-80v11.273c0 39.512-5.762 78.743-17.113 116.59a163.399 163.399 0 0 0 1.488 98.586l5.168 15.496a202.954 202.954 0 0 1 10.457 64.407c0 38.808-11.008 76.625-31.847 109.359L4.07 451.703 0 459.031l7.29 4.168C44.847 484.656 87.565 496 130.823 496h5.88l34.12-109.176L204.945 496h5.88c43.253 0 85.976-11.344 124-33.07l7.237-4.168zm-34.434-33.772L258.824 398l-24-18v-36H270.2c2.25 12.93 5.535 25.633 10.04 37.938zM71.45 344h35.375v36l-24 18-21.418-16.063C65.91 369.634 69.2 356.93 71.45 344zm53.52 135.93c-35.703-.907-70.88-10.067-102.809-26.832l18.32-28.793a221.213 221.213 0 0 0 14.665-27.075L82.825 418l40-30v-60H73.632c.703-7.176 1.191-14.383 1.191-21.648 0-23.657-3.793-47.032-11.273-69.48l-5.168-15.497a147.024 147.024 0 0 1-7.559-46.574c0-14.352 2.086-28.594 6.215-42.336A421.703 421.703 0 0 0 74.801 16h48.023v18.55c0 47.548 13.383 93.68 38.528 133.93-8.192 11.895-17.48 23.16-27.91 33.59-6.848 6.832-10.618 15.938-10.618 25.625 0 3.664.551 7.297 1.649 10.801L162.44 360zm91.71 0l-76.937-246.203a20.383 20.383 0 0 1-.918-6.032 20.076 20.076 0 0 1 5.93-14.304c47.766-47.774 74.07-111.278 74.07-178.84V16h48.024a421.41 421.41 0 0 0 17.761 116.465 147.11 147.11 0 0 1 6.215 42.336c0 15.855-2.543 31.527-7.558 46.582l-5.168 15.496a219.299 219.299 0 0 0-11.274 69.473c0 7.265.488 14.472 1.192 21.648h-49.192v60l40 30 27.688-20.77a219.635 219.635 0 0 0 14.664 27.075l18.328 28.8A233.6 233.6 0 0 1 216.68 479.93zm0 0"/><path d="M186.824 208c-13.23 0-24 10.77-24 24s10.77 24 24 24 24-10.77 24-24-10.77-24-24-24zm0 32c-4.41 0-8-3.586-8-8s3.59-8 8-8c4.406 0 8 3.586 8 8s-3.594 8-8 8zm0 0"/></svg>