<svg height="497pt" viewBox="0 0 497.36 497" width="497pt" xmlns="http://www.w3.org/2000/svg"><path d="M200 432.18c0-8.801 7.2-16 16-16h8l.238-.078 14.16 32.078H216c-4.398 0-8.398-1.758-11.281-4.72-2.957-2.882-4.719-6.882-4.719-11.28zm0 0M168 368.18c0-8.801 7.2-16 16-16h12.16l14.078 32H184c-4.398 0-8.398-1.758-11.281-4.72-2.957-2.882-4.719-6.882-4.719-11.28zm0 0" fill="#838f9b"/><path d="M408 208.18h77.04c-3.759 15.36-10.88 29.601-20.802 41.68l-.238-1.68H320l-48 40h-4.559l-3.441-24 24-64h-24l1.36-8H408l5.2 1.922zm0 0M144 192.18h80l-8 40h24v32h-72v24H34.64C19.923 288.18 8 276.262 8 261.54c0-8.4 3.922-16.321 10.64-21.36l21.36-16h72zm0 0" fill="#e6e9ed"/><path d="M384 248.18l20 37.922c-6.8 1.359-13.762 2.078-20.719 2.078H272l48-40zm0 0" fill="#fcd770"/><path d="M488 56.18v127.28c0 8.481-1.04 16.72-2.96 24.72H408l5.2-14.078L464 56.18zm0 0M464.238 249.86L488 400.18h-24l-60-114.078-20-37.922h80zm0 0" fill="#969faa"/><path d="M267.441 288.18l28.559 200h-32L240.8 325.94 264 264.18zm0 0" fill="#fcd770"/><path d="M240.8 325.941L264 488.18h-8l-17.602-40-14.16-32.078-14-31.922-14.078-32-28.16-64v-24h72v64zm0 0" fill="#ccd1d9"/><path d="M288 200.18l-24 64-23.2 61.761-.8-5.761v-88h-24l16-80h40l-6.64 40-1.36 8zm0 0" fill="#fcd770"/><path d="M375.602 72.18H376c22.078 0 40 17.922 40 40 0 22.082-17.922 40-40 40H120c-22.078 0-40-17.918-40-40 0-22.078 17.922-40 40-40h.398c4-36 34.563-64 71.602-64 22.64 0 42.8 10.48 56 26.8 13.2-16.32 33.36-26.8 56-26.8 37.04 0 67.602 28 71.602 64zm0 0" fill="#e6e9ed"/><path d="M144 192.18l-32 32H40c7.52-10.078 17.281-18.078 28.238-23.52 10.961-5.52 23.121-8.48 35.762-8.48zm0 0" fill="#69d6f4"/><path d="M497.36 408.18l-24.665-156.246c15-19.602 23.305-43.739 23.305-68.473V48.18h-37.574L408 185.027v-.847h-96v16h90.414l-5.894 16h77.761c-3.066 8.535-7.394 16.601-12.754 24H317.105l-43.296 36.074-1.602-11.188 27.336-72.886h-26.102l5.329-32H376c26.473 0 48-21.528 48-48 0-24.274-18.121-44.336-41.535-47.512C375.184 27.477 342.585.18 304 .18c-21.16 0-41.105 8.25-56 22.906C233.105 8.43 213.16.18 192 .18c-38.586 0-71.184 27.297-78.465 64.488C90.121 67.844 72 87.906 72 112.18c0 26.472 21.527 48 48 48h102.238l-16 80H232v16h-72v24H34.664C24.375 280.18 16 271.805 16 261.516c0-5.84 2.793-11.43 7.465-14.938l19.2-14.398h72.648l32-32H200v-16h-96c-27.168 0-53.129 12.793-69.688 34.273l-20.457 15.328C5.175 240.293 0 250.661 0 261.516c0 19.12 15.543 34.664 34.664 34.664h128.121l21.125 48.008c-13.2.054-23.91 10.792-23.91 23.992 0 13.23 10.77 24 24 24h21.023l7.207 16.383C200.793 410.387 192 420.234 192 432.18c0 13.23 10.77 24 24 24h17.184l17.601 40h54.445l-28.566-200h106.617c5.438 0 10.864-.535 16.246-1.32l59.641 113.32zm-77.88-208l50.106-136H480v119.28a95.53 95.53 0 0 1-1.473 16.72zm-294.793 0l-16 16H58.88c12.68-10.176 28.617-16 45.121-16zm332.481 56l21.48 136h-9.816l-71.574-136zm-231.406-32l16-80H120c-17.648 0-32-14.352-32-32 0-17.649 14.352-32 32-32 10.16 0 19.496 4.664 25.602 12.808l12.796-9.61c-7.152-9.519-17.253-15.816-28.59-18.144C136.587 36.79 162.024 16.18 192 16.18c19.406 0 37.543 8.68 49.777 23.824L248 47.699l6.223-7.703C266.457 24.86 284.593 16.18 304 16.18c29.977 0 55.414 20.61 62.191 49.047-11.328 2.328-21.437 8.625-28.59 18.144l12.797 9.61C356.504 84.843 365.84 80.18 376 80.18c17.648 0 32 14.351 32 32 0 17.648-14.352 32-32 32H265.223l-10.672 64h21.898L248 284.059v-59.88zM184 376.18c-4.414 0-8-3.582-8-8 0-4.414 3.586-8 8-8h6.945l7.04 16zm32 64c-4.414 0-8-3.582-8-8 0-4.414 3.586-8 8-8h3.105l7.04 16zM176 286.5v-14.32h56V372.3l5.328-14.214 14.344 100.406zm94.945 193.68L249.04 326.86l11.465-30.575 26.273 183.895zm112.336-200h-89.176l28.797-24h56.274l12.418 23.586c-2.77.238-5.547.414-8.313.414zm0 0"/><path d="M152 216.18h16v16h-16zm0 0M184 216.18h16v16h-16zm0 0"/></svg>