<svg height="496pt" viewBox="0 0 496 496" width="496pt" xmlns="http://www.w3.org/2000/svg"><path d="M56 40h192v64H56zm0 0" fill="#ffeaa7"/><path d="M280 40v448h-32V40zm0 0" fill="#aab2bd"/><path d="M296 8v32H8V8zm0 0" fill="#838f9b"/><g fill="#aab2bd"><path d="M56 200v288H24V40h32zm0 0M320 408h160v32H320zm0 0M320 440h160v48H320zm0 0"/></g><path d="M440 344h40v64H320v-64zm0 0" fill="#ffeaa7"/><path d="M360 312h80v32h-80zm0 0" fill="#969faa"/><path d="M488 224v80c0 4.398-3.602 8-8 8H320c-4.398 0-8-3.602-8-8v-64h48l16 24 24-40zm0 0" fill="#69d6f4"/><path d="M488 192v32h-88l-24 40-16-24h-48v-48c0-4.398 3.602-8 8-8h160c4.398 0 8 3.602 8 8zm0 0" fill="#69d6f4"/><path d="M144 64h16v16h-16zm0 0M192 64h16v16h-16zm0 0M96 64h16v16H96zm0 0M440 368h16v16h-16zm0 0M408 368h16v16h-16zm0 0M376 368h16v16h-16zm0 0"/><path d="M480 176H320c-8.824 0-16 7.176-16 16v112c0 8.824 7.176 16 16 16h32v16h-40v144h-24V48h16V0H0v48h16v432H0v16h488V336h-40v-16h32c8.824 0 16-7.176 16-16V192c0-8.824-7.176-16-16-16zM272 480h-16V48h16zM240 48v48H64V48zM64 112h176v368H64zM16 16h272v16H16zm16 32h16v432H32zm448 144v24h-84.527l-19.825 33.04L364.281 232H320v-40zM328 416h144v16H328zm0 64v-32h144v32zm144-80H328v-48h144zm-40-64h-64v-16h64zm-112-32v-56h35.719l20.64 30.96L404.527 232H480l.008 72zm0 0"/><path d="M136 128h32v16h-32zm0 0M104 160h96v16h-96zm0 0M80 192h144v16H80zm0 0"/></svg>