<svg height="497pt" viewBox="0 0 497.36 497" width="497pt" xmlns="http://www.w3.org/2000/svg"><path d="M489.36 261.54c0 14.722-11.919 26.64-26.641 26.64h-133.36v-24h-96l-3.437 24h-4.563l-48-40h-144l-.238 1.68c-9.922-12.079-17.043-26.32-20.8-41.68h77.038l-5.199-14.078 5.2-1.922h264l32 32h72l21.359 16c6.722 5.039 10.64 12.96 10.64 21.36zm0 0" fill="#e6e9ed"/><path d="M225.36 288.18H114.077c-6.957 0-13.918-.72-20.719-2.078l20-37.922h64zm0 0" fill="#fcd770"/><path d="M457.36 224.18h-72l-32-32h40c12.64 0 24.8 2.96 35.761 8.48 10.957 5.442 20.719 13.442 28.238 23.52zm0 0" fill="#69d6f4"/><path d="M258.96 448.18l-17.6 40h-8l32-224h64v24l-28.16 64-14.079 32-14 31.922zm0 0" fill="#ccd1d9"/><path d="M313.36 352.18c8.8 0 16 7.199 16 16 0 4.398-1.758 8.398-4.72 11.28-2.878 2.962-6.878 4.72-11.28 4.72H287.12l14.078-32zm0 0M281.36 416.18c8.8 0 16 7.199 16 16 0 4.398-1.758 8.398-4.72 11.28-2.878 2.962-6.878 4.72-11.28 4.72h-22.4l14.161-32.078.238.078zm0 0" fill="#838f9b"/><path d="M265.36 264.18l-32 224h-32l28.562-200 3.437-24zm0 0" fill="#fcd770"/><path d="M113.36 248.18l-20 37.922-60 114.078h-24L33.12 249.86l.238-1.68zm0 0M84.16 194.102l5.2 14.078H12.32c-1.922-8-2.96-16.239-2.96-24.72V56.18h24zm0 0" fill="#969faa"/><path d="M483.496 233.781l-20.441-15.336c-16.567-21.472-42.528-34.265-69.696-34.265h-304v.855L38.938 48.18H1.359v135.28c0 24.735 8.305 48.864 23.313 68.474L0 408.18h38.191l59.641-113.32c5.383.785 10.816 1.32 16.246 1.32h106.625l-28.566 200h54.437l17.602-40h17.183c13.235 0 24-10.77 24-24 0-11.946-8.793-21.793-20.23-23.618l7.207-16.382h21.023c13.235 0 24-10.77 24-24 0-13.2-10.71-23.938-23.902-23.993l21.117-48.007h128.114c19.12 0 34.671-15.543 34.671-34.664 0-10.848-5.183-21.215-13.863-27.735zm-45.008-17.601h-49.816l-16-16h20.687c16.512 0 32.45 5.824 45.13 16zM17.36 183.46V64.18h10.426l50.102 136H18.824a96.416 96.416 0 0 1-1.465-16.72zm11.168 208.72H18.72l21.472-136h59.914zm77.25-112.414l12.414-23.586h56.282l28.8 24h-89.195c-2.765 0-5.543-.176-8.3-.414zm134.52-7.586h15.84l-29.711 208h-15.84zm41.062 152c4.41 0 8 3.586 8 8 0 4.418-3.59 8-8 8h-10.144l7.043-16zm32-64c4.41 0 8 3.586 8 8 0 4.418-3.59 8-8 8h-13.984l7.04-16zm8-73.68l-75.68 172 26.618-186.32h49.062zm141.336-6.32H337.36v-24H226.426l-2.875 20.082-43.293-36.082H35.832c-5.36-7.399-9.687-15.465-12.754-24h77.754l-5.894-16h255.109l32 32h73.09l18.758 14.398c4.671 3.508 7.464 9.098 7.464 14.938 0 10.289-8.375 18.664-18.664 18.664zm0 0"/><path d="M329.36 216.18h16v16h-16zm0 0M297.36 216.18h16v16h-16zm0 0M265.36 216.18h16v16h-16zm0 0M233.36 216.18h16v16h-16zm0 0M201.36 216.18h16v16h-16zm0 0M232.383 103.21l11.32 11.313c3.016-3.03 8.29-3.03 11.305 0l11.32-11.312c-9.055-9.063-24.879-9.063-33.945 0zm0 0M288.953 80.578c-10.586-10.574-24.64-16.398-39.594-16.398-14.96 0-29.015 5.832-39.597 16.41l11.308 11.308c7.563-7.55 17.61-11.718 28.29-11.718s20.73 4.16 28.288 11.71zm0 0"/><path d="M311.586 57.957C294.96 41.34 272.863 32.18 249.359 32.18s-45.597 9.16-62.222 25.777l11.312 11.313c13.598-13.594 31.68-21.09 50.91-21.09 19.235 0 37.313 7.496 50.914 21.09zm0 0"/><path d="M249.36 16.18c27.777 0 53.898 10.824 73.535 30.465l11.312-11.313C311.543 12.668 281.407.18 249.359.18s-62.183 12.488-84.847 35.152l11.312 11.313c19.64-19.641 45.762-30.465 73.535-30.465zm0 0M241.36 128.18h16v16h-16zm0 0"/></svg>