<svg height="496pt" viewBox="0 -32 496 496" width="496pt" xmlns="http://www.w3.org/2000/svg"><g fill="#cf9e76"><path d="M464 163.602c0 2.957-.32 5.84-1.04 8.636a231.2 231.2 0 0 0-6.96 56.403V232h-48l-2.96 1.121c-6.481-18.8-24.08-32.402-45.04-33.043V128h68.398c19.68 0 35.602 15.922 35.602 35.602zm0 0M168 128h160v72H168zm0 0M136 200v.078c-13.04.402-24.879 5.922-33.441 14.48-5.2 5.204-9.2 11.52-11.598 18.563L88 232H40v-3.36a231.2 231.2 0 0 0-6.96-56.402c-.72-2.797-1.04-5.68-1.04-8.636C32 143.922 47.922 128 67.602 128H136zm0 0M312 24v24c0 4.398-3.602 8-8 8H192c-4.398 0-8-3.602-8-8V16c0-4.398 3.602-8 8-8h112c4.398 0 8 3.602 8 8zm0 0"/></g><path d="M360 200v.078c-.559-.078-1.2-.078-1.762-.078H328V80c0-13.281-10.719-24-24-24 4.398 0 8-3.602 8-8V24c26.48 0 48 21.52 48 48zm0 0M184 48c0 4.398 3.602 8 8 8-13.281 0-24 10.719-24 24v120h-30.238c-.563 0-1.203 0-1.762.078V72c0-26.48 21.52-48 48-48zm0 0" fill="#ccd1d9"/><path d="M488 264v112c0 17.68-14.32 32-32 32h-29.68c13.282-11.68 21.68-28.879 21.68-48v-48c0-26.96-16.64-49.84-40.16-59.281.16-.957.16-2 .16-2.957 0-5.84-1.04-11.442-2.96-16.64L408 232h48c17.68 0 32 14.32 32 32zm0 0" fill="#cf9e76"/><path d="M426.32 408A64.516 64.516 0 0 1 392 423.52c-.238-17.442-14.48-31.52-32-31.52H136c-17.52 0-31.762 14.078-32 31.52A64.516 64.516 0 0 1 69.68 408C56.398 396.32 48 379.121 48 360v-48c0-26.96 16.64-49.84 40.16-59.281.399 8.242 3.04 16.32 7.36 23.36l17.84 28.562C122.48 319.199 138.397 328 155.601 328h184.796c17.204 0 33.122-8.8 42.243-23.36l17.84-28.562c4.32-7.039 6.96-15.117 7.359-23.36C431.36 262.16 448 285.04 448 312v48c0 19.121-8.398 36.32-21.68 48zm0 0" fill="#b27946"/><path d="M407.84 252.719c-.399 8.242-3.04 16.32-7.36 23.36l-17.84 28.562C373.52 319.199 357.603 328 340.399 328H155.602c-17.204 0-33.122-8.8-42.243-23.36l-17.84-28.562c-4.32-7.039-6.96-15.117-7.359-23.36-.16-.956-.16-2-.16-2.956 0-5.84 1.04-11.442 2.96-16.64 2.4-7.044 6.4-13.36 11.599-18.563C111.12 206 122.96 200.48 136 200.079c.559-.079 1.2-.079 1.762-.079h220.476c.563 0 1.203 0 1.762.078 20.96.64 38.559 14.242 45.04 33.043 1.92 5.2 2.96 10.8 2.96 16.64 0 .958 0 2-.16 2.958zm0 0" fill="#dfb28b"/><path d="M392 423.52c-2.64.32-5.281.48-8 .48H112c-2.719 0-5.36-.16-8-.48.238-17.442 14.48-31.52 32-31.52h224c17.52 0 31.762 14.078 32 31.52zm0 0M328 248H168c-4.398 0-8.398 1.762-11.281 4.719C153.762 255.602 152 259.602 152 264c0 8.8 7.2 16 16 16h160c4.398 0 8.398-1.762 11.281-4.719C342.238 272.398 344 268.398 344 264c0-8.8-7.2-16-16-16zm0 0" fill="#fcd770"/><path d="M88 232l2.96 1.121a47.877 47.877 0 0 0-2.96 16.64c0 .958 0 2 .16 2.958C64.64 262.16 48 285.039 48 312v48c0 19.121 8.398 36.32 21.68 48H40c-17.68 0-32-14.32-32-32V264c0-17.68 14.32-32 32-32zm0 0" fill="#cf9e76"/><path d="M464.113 224.832c.285-17.07 2.438-34.09 6.582-50.648A43.68 43.68 0 0 0 472 163.617c0-24.05-19.566-43.617-43.617-43.617H368V72c0-28.152-20.91-51.457-48-55.36V16c0-8.824-7.176-16-16-16H192c-8.824 0-16 7.176-16 16v.64c-27.09 3.903-48 27.208-48 55.36v48H67.617C43.567 120 24 139.566 24 163.617c0 3.551.441 7.11 1.305 10.567 4.144 16.55 6.297 33.578 6.582 50.648C13.71 228.602 0 244.727 0 264v112c0 22.055 17.945 40 40 40h26.84c12.36 9.984 28.062 16 45.16 16h272c17.098 0 32.793-6.016 45.16-16H456c22.055 0 40-17.945 40-40V264c0-19.273-13.71-35.398-31.887-39.168zM428.383 136C443.609 136 456 148.39 456 163.617c0 2.246-.281 4.496-.824 6.696-4.39 17.55-6.688 35.59-7.04 53.687h-38.273c-8.086-16.152-23.496-27.977-41.87-31.113V136zm-290.649 72h220.532C381.28 208 400 226.719 400 249.734a41.654 41.654 0 0 1-6.344 22.121l-17.832 28.528C368.152 312.664 354.922 320 340.441 320H155.56c-14.489 0-27.711-7.336-35.391-19.617l-17.832-28.528A41.736 41.736 0 0 1 96 249.735C96 226.718 114.719 208 137.734 208zM192 64h112c8.824 0 16 7.176 16 16v40H176V80c0-8.824 7.176-16 16-16zm-16 72h144v56H176zm176-64v120h-16V80c0-12.04-6.762-22.414-16.61-27.879.364-1.32.61-2.687.61-4.121V32.809c18.23 3.718 32 19.879 32 39.191zM192 16h112l.016 32H192zm-16 16.809V48c0 1.434.246 2.8.61 4.121C166.761 57.586 160 67.961 160 80v112h-16V72c0-19.313 13.77-35.473 32-39.191zM67.617 136H128v56.887c-18.375 3.136-33.785 14.96-41.871 31.113H47.855c-.343-18.098-2.648-36.137-7.03-53.688a27.905 27.905 0 0 1-.825-6.695C40 148.391 52.39 136 67.617 136zM16 376V264c0-13.23 10.77-24 24-24h40.887a57.036 57.036 0 0 0-.782 7.71C55.633 259.817 40 284.36 40 312v48c0 14.793 4.496 28.55 12.176 40H40c-13.23 0-24-10.77-24-24zm382.586 38.008C394.113 396.8 378.586 384 360 384h-24v16h24c10.414 0 19.215 6.71 22.527 16H113.473c3.312-9.29 12.113-16 22.527-16h184v-16H136c-18.586 0-34.113 12.8-38.586 30.008C73.602 407.566 56 385.824 56 360v-48c0-19.504 10.008-37.047 26.055-47.184 1.472 5.45 3.699 10.688 6.722 15.52l17.832 28.527C117.223 325.855 135.52 336 155.56 336h184.875c20.039 0 38.336-10.145 48.949-27.137l17.832-28.527c3.023-4.832 5.25-10.07 6.722-15.52C429.992 274.953 440 292.496 440 312v48c0 25.824-17.602 47.566-41.414 54.008zM480 376c0 13.23-10.77 24-24 24h-12.176c7.68-11.45 12.176-25.207 12.176-40v-48c0-27.64-15.633-52.184-40.105-64.29a56.909 56.909 0 0 0-.782-7.71H456c13.23 0 24 10.77 24 24zm0 0"/><path d="M168 288h160c13.23 0 24-10.77 24-24s-10.77-24-24-24H168c-13.23 0-24 10.77-24 24s10.77 24 24 24zm104-16h-16v-16h16zm16-16h16v16h-16zm-48 16h-16v-16h16zm-32 0h-16v-16h16zm128-8c0 4.414-3.586 8-8 8h-8v-16h8c4.414 0 8 3.586 8 8zm-168-8h8v16h-8c-4.414 0-8-3.586-8-8s3.586-8 8-8zm0 0"/></svg>