<svg height="496pt" viewBox="0 0 496.008 496" width="496pt" xmlns="http://www.w3.org/2000/svg"><path d="M264 488.004H56c0-8.8 3.602-16.8 9.36-22.64 5.84-5.759 13.84-9.36 22.64-9.36h144c17.68 0 32 14.32 32 32zm0 0" fill="#838f9b"/><path d="M181.52 136.004l-2.56 32H48.239c-.16-1.04-.16-2.16-.16-3.281-.078-1.04-.078-2.16-.078-3.2v-25.52zm0 0" fill="#ccd1d9"/><path d="M272 136.004v25.52c0 2.16-.078 4.32-.238 6.48H178.96l2.559-32zm0 0" fill="#ccd1d9"/><path d="M240 168.004H48.238c.801 17.52 5.043 34.559 12.403 50.082A132.486 132.486 0 0 0 96 264.004c17.68 0 32 14.32 32 32 0-17.68 14.32-32 32-32 3.922 0 7.762.719 11.2 2.082 4.32 1.598 8.241 4.078 11.44 7.277 5.758 5.84 9.36 13.84 9.36 22.64 0-17.679 14.32-32 32-32 28.719-24 46-58.8 47.762-96zm0 0" fill="#ffeaa7"/><path d="M192 296.004c0-8.8-3.602-16.8-9.36-22.64-3.199-3.2-7.12-5.68-11.44-7.278-3.438-1.363-7.278-2.082-11.2-2.082-17.68 0-32 14.32-32 32 0-17.68-14.32-32-32-32v192h128v-192c-17.68 0-32 14.32-32 32zm0 0" fill="#ffeaa7"/><path d="M48 161.523c0 1.04 0 2.16.078 3.2H48l-24.238 24.16C13.922 176.563 8 160.965 8 144.003c0-39.76 32.238-72 72-72 16.96 0 32.559 5.923 44.879 15.763l-48.16 48.238H48zm0 0" fill="#ff826e"/><path d="M440 184.004c0 35.36-28.64 64-64 64h-8l-7.281 2.32c-.16-.8-.399-1.601-.719-2.32 0-35.36 28.64-64 64-64zm0 0" fill="#b4dd7f"/><path d="M367.922 296.004H368c5.121 0 10-2 13.68-5.68l.082-.082a62.252 62.252 0 0 1 44-18.238c17.199 0 32.797 6.96 44 18.238 11.277 11.203 18.238 26.801 18.238 44 0 22-6.48 43.524-18.719 61.844l-8.883 14.957c-8.16 13.84-13.359 29.2-15.117 45.2-2 18.081-17.281 31.76-35.52 31.76h-2c-10.081 0-19.761-4-26.882-11.12a16.66 16.66 0 0 0-11.758-4.88h-2.242a16.66 16.66 0 0 0-11.758 4.88 38.028 38.028 0 0 1-26.883 11.12h-2a35.623 35.623 0 0 1-23.84-9.12c-6.398-5.68-10.718-13.598-11.68-22.64-1.757-16-6.956-31.36-15.116-45.2l-8.883-14.957C254.48 377.766 248 356.242 248 334.242c0-17.199 6.96-32.797 18.238-44 11.203-11.277 26.801-18.238 44-18.238 16.48 0 32.32 6.558 44 18.238l.082.082c3.68 3.68 8.48 5.68 13.602 5.68zm0 0" fill="#ff826e"/><path d="M425.777 264.004c-18.761 0-36.394 7.305-49.77 20.687-.152.153-.374.207-.542.352a167.953 167.953 0 0 0-4.77-29.04H376c39.695 0 72-32.296 72-72v-8h-24c-30.078 0-55.879 18.56-66.633 44.817-9.855-19.168-23.383-36.504-40.16-50.879l-10.414 12.145c30.328 26 49 62.605 52.543 102-13.2-12.945-30.602-20.082-49.113-20.082-38.72 0-70.223 31.504-70.223 70.223 0 23.68 6.945 46.609 19.848 65.953l8.855 14.945c7.656 12.918 12.375 27.047 14.04 41.969 2.48 22.183 21.179 38.91 43.495 38.91h2c12.305 0 23.867-4.793 32.555-13.488a8.65 8.65 0 0 1 6.07-2.512h2.274c2.254 0 4.465.91 6.054 2.504 8.704 8.703 20.266 13.496 32.57 13.496h2c22.317 0 41.016-16.727 43.497-38.91 1.664-14.914 6.383-29.043 14.039-41.961l8.633-14.586c13.133-19.703 20.078-42.633 20.078-66.313-.008-38.726-31.512-70.23-70.23-70.23zm-1.777-72h7.434c-3.899 27.105-27.266 48-55.434 48h-7.434c3.899-27.106 27.266-48 55.434-48zm38.383 200.023l-8.856 14.946c-8.824 14.886-14.261 31.16-16.175 48.343-1.567 14.079-13.43 24.688-27.59 24.688h-2c-8.028 0-15.578-3.129-21.258-8.817-4.649-4.632-10.816-7.183-17.367-7.183h-2.274c-6.55 0-12.718 2.55-17.375 7.191-5.672 5.68-13.222 8.809-21.25 8.809h-2c-14.16 0-26.023-10.61-27.59-24.68-1.914-17.191-7.351-33.465-16.175-48.351l-9.082-15.305C262.008 374.605 256 354.746 256 334.227c0-29.895 24.328-54.223 54.223-54.223 14.488 0 28.105 5.64 38.465 16 3.152 3.152 7.097 5.215 11.312 6.426v16.703c-6.816-1.57-10.246-4.703-10.434-4.871l-11.222 11.406c1.054 1.055 10.879 10.336 29.656 10.336s28.602-9.281 29.656-10.344l-11.222-11.406c-.188.176-3.625 3.308-10.434 4.871v-16.723c4.23-1.222 8.215-3.308 11.434-6.52 10.238-10.237 23.855-15.878 38.343-15.878 29.895 0 54.223 24.328 54.223 54.223 0 20.52-6.008 40.378-17.617 57.8zm0 0"/><path d="M232 448.004v-180.32c30.55-26.856 48-65.336 48-106.168v-33.512h-89.871l8.27-104.856a7.995 7.995 0 0 1 7.953-7.144H288v-16h-81.648c-12.282 0-22.536 9.2-23.88 21.64l-8.394 106.36H96l40.887-40.887-6.985-5.586C115.574 70.066 98.32 64.004 80 64.004c-44.113 0-80 35.887-80 80 0 18.312 6.063 35.566 17.527 49.91l5.586 6.977 18.598-18.598c4.863 32.902 20.992 63.152 46.289 85.39v180.32c-22.055 0-40 17.946-40 40v8h224v-8c0-22.054-17.945-40-40-40zm32-304v16h-24v16h23.137c-3.594 31.098-18.696 59.68-42.649 80.351-11.664 1.04-21.855 6.993-28.488 15.899-3.32-4.457-7.543-8.137-12.398-10.899l6.734-85.351H224v-16h-36.398l1.261-16zm-92.45 16H56v-16h116.816zm-155.55-16c0-35.29 28.71-64 64-64 11.61 0 22.688 3.047 32.496 8.871l-39.121 39.129H40v33.375L24.879 176.5C19.047 166.691 16 155.605 16 144.004zm40.863 32H170.29l-6.344 80.398c-1.32-.132-2.593-.398-3.945-.398-13.129 0-24.703 6.45-32 16.25-6.633-8.906-16.824-14.86-28.488-15.899-23.953-20.671-39.055-49.253-42.649-80.351zM104 273.477c9.29 3.312 16 12.113 16 22.527v96h16v-96c0-13.23 10.77-24 24-24 .922 0 1.793.168 2.688.273l-10.665 135.094 15.954 1.266 10.12-128.227c3.63 4.211 5.903 9.617 5.903 15.594v48h16v-48c0-10.414 6.71-19.215 16-22.527v174.527h-16v-88h-16v88h-48v-40h-16v40h-16zM65.367 480.004c3.305-9.313 12.2-16 22.633-16h144c10.434 0 19.328 6.687 22.633 16zm0 0"/></svg>