<svg height="496pt" viewBox="0 0 496 496" width="496pt" xmlns="http://www.w3.org/2000/svg"><path d="M232 8l-16 112h-32L200 8zm0 0" fill="#ffeaa7"/><path d="M184 120h40c22.078 0 40 17.922 40 40 0 11.04-4.48 21.04-11.68 28.32-7.28 7.2-17.28 11.68-28.32 11.68H48c-13.281 0-24-10.719-24-24 0-6.64 2.719-12.64 7.04-16.96C35.36 154.718 41.36 152 48 152h34.96c-7.44 0-14.16-3.04-19.038-7.922C59.039 139.2 56 132.48 56 125.04c0-12.398 8.398-23.117 20.398-26.16l4.801-1.2a111.553 111.553 0 0 0 34.961-15.44C126.8 75.198 136.238 66.398 144 56l9.36 9.36A77.332 77.332 0 0 1 176 120zm0 0" fill="#e6e9ed"/><path d="M280 208v16c0 4.398-3.602 8-8 8H16c-4.398 0-8-3.602-8-8v-16c0-4.398 3.602-8 8-8h256c4.398 0 8 3.602 8 8zm0 0" fill="#fcd770"/><path d="M252 360l-9.281 98.96c-1.52 16.481-15.36 29.04-31.84 29.04H77.12c-16.48 0-30.32-12.559-31.84-29.04L24 232h240l-1.52 15.84-7.44 80.082zm0 0" fill="#ffeaa7"/><path d="M144 272c44.16 0 80 35.84 80 80s-35.84 80-80 80-80-35.84-80-80 35.84-80 80-80zm0 0" fill="#e6e9ed"/><path d="M184 337.2c0 4.48-.879 8.96-2.719 13.038l-1.441 3.364L176 352l-16-16-16 16-16-16-16 16-3.84 1.602-1.441-3.364C104.879 346.16 104 341.68 104 337.2c0-9.199 3.68-17.437 9.762-23.437 6-6.082 14.238-9.762 23.437-9.762h13.602C169.12 304 184 318.879 184 337.2zm0 0" fill="#b4dd7f"/><path d="M179.84 353.602l-13.52 31.68C162.48 394.237 153.68 400 144 400s-18.48-5.762-22.32-14.719l-13.52-31.68L112 352l16-16 16 16 16-16 16 16zm0 0" fill="#ff826e"/><path d="M472 360l-12.48 100c-2 16-15.598 28-31.758 28H210.879c16.48 0 30.32-12.559 31.84-29.04L252 360zm0 0" fill="#b4dd7f"/><path d="M488 336v16c0 4.398-3.602 8-8 8H252l3.04-32.078.96.078h224c4.398 0 8 3.602 8 8zm0 0" fill="#a0d468"/><path d="M427.121 280H448c13.281 0 24 10.719 24 24 0 6.64-2.719 12.64-7.04 16.96-4.32 4.321-10.32 7.04-16.96 7.04H256l-.96-.078 7.44-80.082 1.52.16h92.879c28.48 0 56.723-5.441 83.121-16a96.042 96.042 0 0 1-12.879 48zm0 0" fill="#e6e9ed"/><path d="M440 176c0 35.36-28.64 64-64 64h-16c0-35.36 28.64-64 64-64zm0 0" fill="#b4dd7f"/><path d="M360 224c0 13.254-10.746 24-24 24s-24-10.746-24-24 10.746-24 24-24 24 10.746 24 24zm0 0" fill="#ff826e"/><path d="M144 408a32.218 32.218 0 0 0 29.656-19.55l15.016-35.036a41.076 41.076 0 0 0 3.328-16.23C192 314.48 173.52 296 150.816 296h-13.625C114.481 296 96 314.48 96 337.184c0 5.609 1.121 11.062 3.336 16.222l15.008 35.028A32.208 32.208 0 0 0 144 408zm14.945-25.855C156.383 388.137 150.512 392 144 392s-12.383-3.863-14.953-9.855l-10.758-25.114 9.711-9.719 16 16 16-16 9.71 9.711zM137.184 312h13.625C164.695 312 176 323.305 176 337.184c0 1.082-.184 2.12-.32 3.175L160 324.687l-16 16-16-16-15.68 15.68c-.136-1.055-.32-2.101-.32-3.183 0-13.88 11.305-25.184 25.184-25.184zm0 0"/><path d="M144 424c-39.695 0-72-32.305-72-72 0-16.559 5.777-32.742 16.258-45.55L75.87 296.311C63.055 311.978 56 331.755 56 352c0 48.52 39.48 88 88 88 20.246 0 40.023-7.055 55.688-19.871l-10.137-12.387C176.742 418.222 160.559 424 144 424zm0 0M144 264c-20.246 0-40.023 7.055-55.688 19.871l10.137 12.387C111.258 285.778 127.441 280 144 280c39.695 0 72 32.305 72 72 0 16.559-5.777 32.742-16.258 45.55l12.387 10.137C224.945 392.023 232 372.247 232 352c0-48.52-39.48-88-88-88zm0 0M192 144h16v16h-16zm0 0"/><path d="M480 320h-4.45c2.755-4.727 4.45-10.145 4.45-16 0-17.648-14.352-32-32-32h-8.023c5.261-12.633 8.023-26.238 8.023-40v-11.816l-10.977 4.382c-4.152 1.664-8.359 3.145-12.582 4.54C438.871 215.937 448 197.03 448 176v-8h-24c-26.863 0-50.297 14.816-62.664 36.672C355.48 197.023 346.352 192 336 192c-17.648 0-32 14.352-32 32 0 5.855 1.695 11.273 4.45 16H272c8.824 0 16-7.176 16-16v-16c0-8.824-7.176-16-16-16h-12.32c7.632-8.504 12.32-19.695 12.32-32 0-26.055-20.879-47.29-46.785-47.938L241.223 0h-48.16l-13.344 93.406a84.916 84.916 0 0 0-20.688-33.695l-15.886-15.895-5.543 7.383c-14.387 19.168-35.106 32.93-58.344 38.746l-4.785 1.192A34.9 34.9 0 0 0 48 125.047c0 6.992 2.113 13.48 5.664 18.953H48c-17.648 0-32 14.352-32 32 0 5.855 1.695 11.273 4.45 16H16c-8.824 0-16 7.176-16 16v16c0 8.824 7.176 16 16 16h.71l20.602 219.734C39.246 480.406 56.367 496 77.145 496h350.609c20.133 0 37.2-15.063 39.687-35.04L479.063 368H480c8.824 0 16-7.176 16-16v-16c0-8.824-7.176-16-16-16zm-56-136h7.434c-3.899 27.105-27.266 48-55.434 48h-7.434c3.899-27.105 27.266-48 55.434-48zm-104 40c0-8.824 7.176-16 16-16s16 7.176 16 16-7.176 16-16 16-16-7.176-16-16zm36.922 32c25.414 0 50.344-4.113 74.285-12.223-1.328 9.84-4.414 19.36-8.941 28.223H328v16h120c8.824 0 16 7.176 16 16s-7.176 16-16 16H263.785l6-64zM222.777 16l-13.714 96h-15.84l13.714-96zM32 176c0-8.824 7.176-16 16-16h128v-16H82.953C72.503 144 64 135.496 64 125.047c0-8.711 5.902-16.277 14.352-18.39l4.785-1.192c23.824-5.961 45.343-19.16 61.48-37.535l3.102 3.101c11.176 11.176 18.015 25.504 19.785 40.977H120v16h104c17.648 0 32 14.351 32 32 0 17.648-14.352 32-32 32H48C39.176 192 32 184.824 32 176zm-16 32h256l.008 16H16zm61.145 272c-12.465 0-22.739-9.352-23.899-21.762L32.786 240h222.429l-20.461 218.238C233.594 470.641 223.32 480 210.855 480zm374.421-21.023C450.07 470.96 439.832 480 427.754 480h-184.86a39.907 39.907 0 0 0 7.794-20.266L259.289 368h203.656zM480 352H260.785l1.504-16H480zm0 0"/><path d="M296 272h16v16h-16zm0 0"/></svg>