<svg height="496pt" viewBox="0 0 496 496" width="496pt" xmlns="http://www.w3.org/2000/svg"><path d="M288 280l2.238-.398c.403 2.796.801 5.597 1.364 8.398v.16L248 296.72c-5.602 1.922-11.121 4.242-16.48 6.8a154.903 154.903 0 0 0-53.84 43.36l-37.602 48c-2.637 3.281-4.078 7.441-4.078 11.68 0 5.921 2.8 11.52 7.602 15.12l31.359 23.52C212 472.961 257.039 488 303.28 488h-204C65.84 488 38 462.238 35.441 428.879L24 280zm0 0" fill="#e6e9ed"/><path d="M290.238 279.602L288 280H8v-32h280v.719c0 10.402.719 20.722 2.238 30.883zm0 0" fill="#ccd1d9"/><path d="M72 160L12.16 55.281C9.441 50.481 8 45.121 8 39.601 8 22.162 22.16 8 39.602 8h2.16c13.36 0 25.199 8.398 29.758 20.96L104 120l.8.078c-.562 2.563-.8 5.203-.8 7.922v.8c-15.762 3.2-28.078 15.598-31.2 31.36zm0 0" fill="#cf9e76"/><path d="M288 248H29.36A56.15 56.15 0 0 1 24 224c0-28.238 20.879-51.52 48.078-55.36 0-.242-.078-.402-.078-.64 0-2.64.238-5.281.8-7.84C75.923 144.398 88.239 132 104 128.8v-.8c0-2.719.238-5.36.8-7.922C108.48 101.762 124.64 88 144 88c12.238 0 23.2 5.52 30.48 14.16C182.16 98.238 190.72 96 200 96c26.559 0 48.8 18.48 54.48 43.36l.32.562C260 137.359 265.923 136 272 136c15.84 0 29.52 9.2 36 22.559a205.408 205.408 0 0 0-8.64 21.363C292 201.68 288.077 224.64 288 248zm0 0" fill="#ffeaa7"/><path d="M422.238 349.68C393.121 310.879 347.441 288 298.961 288c-.961 0-2 0-2.961.078-1.441 0-2.879 0-4.398.082V288c-.563-2.8-.961-5.602-1.364-8.398-1.52-10.16-2.238-20.48-2.238-30.883V248c.078-23.36 4-46.32 11.36-68.078a205.408 205.408 0 0 1 8.64-21.363c6.559-14.239 14.64-27.68 24.32-40.239L368 72a281.526 281.526 0 0 0 56 56l2.32 1.762C465.121 158.879 488 204.559 488 253.039c0 .961 0 2-.078 2.961a149.494 149.494 0 0 1-8.64 48c-1.36 4.16-2.962 8.16-4.723 12.16-8.72 19.442-21.52 37.121-37.758 51.602A267.34 267.34 0 0 1 424 352zm0 0" fill="#fcd770"/><path d="M298.96 288c48.481 0 94.161 22.879 123.278 61.68L424 352a267.34 267.34 0 0 0 12.8 15.762C449.68 382.64 464.239 396.16 480 408l-46.32 35.68c-18.72 14.398-39.52 25.441-61.602 32.96-22 7.438-45.2 11.36-68.797 11.36-46.242 0-91.281-15.04-128.32-42.8l-31.36-23.52c-4.8-3.602-7.601-9.2-7.601-15.121 0-4.239 1.441-8.399 4.078-11.68l37.602-48a154.903 154.903 0 0 1 53.84-43.36c5.359-2.558 10.878-4.878 16.48-6.8l43.602-8.559c1.52-.082 2.957-.082 4.398-.082.96-.078 2-.078 2.96-.078zm0 0" fill="#fcd770"/><path d="M448.063 368.176C478.625 337.84 496 296.359 496 253.078c0-50.773-24.246-99.262-64.855-129.719l-2.344-1.757a271.947 271.947 0 0 1-54.403-54.403l-6.32-8.43L326 113.48c-7.2 9.36-13.586 19.297-19.168 29.649C297.922 133.695 285.449 128 272 128c-4.16 0-8.207.633-12.113 1.648C250.687 104.778 227.145 88 200 88c-8.23 0-16.191 1.625-23.762 4.68C167.618 84.832 156.29 80 144 80c-15.91 0-29.992 7.809-38.727 19.77L79.031 26.297C73.406 10.559 58.426 0 41.727 0h-2.118C17.77 0 0 17.77 0 39.61c0 6.878 1.809 13.68 5.215 19.648l58.777 102.855C36.2 169.313 16 194.762 16 224c0 5.473.754 10.809 2.09 16H0v48h16.594L27.48 429.52C30.344 466.8 61.88 496 99.266 496h204.007c48.657 0 96.688-16.336 135.247-46l54.703-42.078-8.422-6.32c-13.297-9.977-25.512-21.243-36.739-33.426zM338.68 123.23l29.36-38.168a288.05 288.05 0 0 0 51.16 49.329l2.343 1.761c21.937 16.457 38.527 38.77 48.336 63.84H408v16h67.105a145.002 145.002 0 0 1 4.743 32H408v16h71.414c-.82 10.93-2.805 21.649-5.988 32H408v16h59.535c-7.168 16.266-17.414 31.106-30.11 43.903-2.362-2.887-4.784-5.72-7.027-8.704l-1.75-2.328C398.184 304.246 349.688 280 298.922 280c-.113 0-.219.008-.328.008C297 269.656 296 259.184 296 248.727c0-45.141 15.16-89.711 42.68-125.497zM16 39.61C16 26.593 26.594 16 39.61 16h2.117c9.953 0 18.89 6.297 22.234 15.664l32.398 90.719c-.015.113-.039.226-.046.336-10.504 3.648-19.184 10.832-24.899 20.12l-52.3-91.519A23.53 23.53 0 0 1 16 39.61zM32 224c0-23.71 17.703-44.113 41.191-47.457l7-1-.129-7.07-.062-.922c.168-12.047 7.184-22.688 17.55-27.977 1.528 6.168 4.138 12.028 8.044 17.227l12.797-9.61C114.207 141.625 112 134.984 112 128c0-17.648 14.352-32 32-32 15.16 0 28.344 10.77 31.36 25.594l15.68-3.188c-.895-4.422-2.544-8.511-4.552-12.367 4.375-1.305 8.88-2.039 13.512-2.039 20.703 0 38.512 13.078 45.145 32.273-7.391 4.993-13.426 12.008-17.145 20.528l14.664 6.406A32.006 32.006 0 0 1 272 144c11.113 0 21.297 5.754 27.098 14.977-11.266 25.503-17.61 53.062-18.73 81.023H34.753A47.543 47.543 0 0 1 32 224zm67.266 256c-29.082 0-53.61-22.71-55.832-51.71L32.64 288H184v-16H16v-16h264.168c.176 5.344.543 10.68 1.105 16H200v16h48.535c-30.101 9.785-56.926 28.273-77.11 53.969l-37.663 47.933A27.012 27.012 0 0 0 128 406.535c0 8.434 4.023 16.48 10.77 21.527l31.414 23.563c15.632 11.727 32.855 21.16 50.953 28.367H99.266zm329.504-42.688C392.992 464.84 348.426 480 303.273 480c-44.242 0-88.097-14.617-123.496-41.168l-31.418-23.559a10.993 10.993 0 0 1-4.359-8.738c0-2.437.832-4.824 2.336-6.734L184 351.855c15.121-19.238 34.367-33.984 56-43.503V368h16v-65.594a146.735 146.735 0 0 1 32-5.957V368h16v-71.848a145.002 145.002 0 0 1 32 4.743V368h16v-61.879c25.07 9.817 47.39 26.399 63.848 48.344l1.754 2.336a287.793 287.793 0 0 0 49.328 51.168zm0 0"/><path d="M240 384h16v32h-16zm0 0M336 384h16v32h-16zm0 0M360 200h32v16h-32zm0 0M224 176h16v16h-16zm0 0M256 208h16v16h-16zm0 0M168 168h16v16h-16zm0 0M135.605 120.203l15.997-.398.398 16-15.996.398zm0 0M112 192h16v16h-16zm0 0M56 208h16v16H56zm0 0"/></svg>