<svg height="496pt" viewBox="0 0 496 496" width="496pt" xmlns="http://www.w3.org/2000/svg"><path d="M296 168h-32c13.281 0 24-10.719 24-24 0-6.64-2.719-12.64-7.04-16.96-4.32-4.321-10.32-7.04-16.96-7.04h-24c0-12.16-2.879-24-8.32-34.719l.32-.16C244.96 58.398 272.32 40 304 40c44.16 0 80 35.84 80 80s-35.84 80-80 80v-24c0-4.398-3.602-8-8-8zm0 0" fill="#ffeaa7"/><path d="M80 367.04V400h-1.52c-14.16 0-27.52-4.16-38.8-11.68a69.707 69.707 0 0 1-26-31.039C9.922 348.56 8 339.04 8 329.52V230.8c0-8.16 6.64-14.8 14.8-14.8 5.68 0 10.802 3.2 13.278 8.16L40 232h40v32H40v54.48c0 6.32 1.2 12.56 3.52 18.399a49.716 49.716 0 0 0 14.558 19.84c6.242 5.203 13.762 8.722 21.922 10.32zm0 0" fill="#e6e9ed"/><path d="M304 396.238v.082c-8.96 2.399-18.16 3.68-27.602 3.68-18.878 0-37.68-2.16-56.078-6.398L144 376l-16 16 4.16 14.48c3.84 13.36 10 25.758 18.238 36.72 8.243 10.878 18.403 20.32 30.243 27.679 17.918 11.2 38.558 17.121 59.597 17.121H112c-17.68 0-32-14.32-32-32V176c0-4.398 3.602-8 8-8h88v96c0 8.8 7.2 16 16 16 4.398 0 8.398-1.762 11.281-4.719C206.238 272.398 208 268.398 208 264v-48c0-8.8 7.2-16 16-16 4.398 0 8.398 1.762 11.281 4.719C238.238 207.602 240 211.602 240 216v104c0 8.8 7.2 16 16 16 4.398 0 8.398-1.762 11.281-4.719C270.238 328.398 272 324.398 272 320V168h24c4.398 0 8 3.602 8 8zm0 0" fill="#ffeaa7"/><path d="M272 168v152c0 4.398-1.762 8.398-4.719 11.281C264.398 334.238 260.398 336 256 336c-8.8 0-16-7.2-16-16V216c0-4.398-1.762-8.398-4.719-11.281C232.398 201.762 228.398 200 224 200c-8.8 0-16 7.2-16 16v48c0 4.398-1.762 8.398-4.719 11.281C200.398 278.238 196.398 280 192 280c-8.8 0-16-7.2-16-16v-96zm0 0M240 120h24c6.64 0 12.64 2.719 16.96 7.04 4.321 4.32 7.04 10.32 7.04 16.96 0 13.281-10.719 24-24 24H120c-13.281 0-24-10.719-24-24 0-6.64 2.719-12.64 7.04-16.96 4.32-4.321 10.32-7.04 16.96-7.04h16c0-18.398 13.52-33.922 31.68-36.559l8-1.12a36.347 36.347 0 0 0 25.441-16.083L208 56l9.36 9.36a75.437 75.437 0 0 1 14.32 19.921A76.554 76.554 0 0 1 240 120zm0 0" fill="#ffc729"/><path d="M488 213.2c0 6.241-4.398 11.679-10.64 12.878l-17.52 3.524A23.74 23.74 0 0 0 453.28 232H408l-22-5.52c-5.922-1.44-10-6.718-10-12.8v-.48c0-7.278 5.922-13.2 13.2-13.2h85.6c7.278 0 13.2 5.922 13.2 13.2zm0 0" fill="#a0d468"/><path d="M440 253.84a65.38 65.38 0 0 0 9.281 33.601c.16.239.239.48.399.637 10.082 16.883 15.28 36.242 14.879 55.844v.637c-.399 20.48-6.797 40.402-18.559 57.203l-3.52 5.039c-22.48 32-54.16 56.398-90.96 69.758C330.64 484.16 308.64 488 286.48 488h-46.242c-21.039 0-41.68-5.922-59.597-17.121-11.84-7.36-22-16.8-30.243-27.68-8.238-10.96-14.398-23.36-18.238-36.719L128 392l16-16 76.32 17.602A249.755 249.755 0 0 0 276.398 400c9.442 0 18.641-1.281 27.602-3.68v-.082c4.32-1.117 8.559-2.558 12.719-4.238 12.64-5.281 24.242-12.96 34.082-22.8 16.558-16.56 28.558-36.962 34.96-59.438A87.602 87.602 0 0 1 408 272v-40h45.281a23.953 23.953 0 0 0-10.64 10.8c-1.762 3.438-2.641 7.2-2.641 11.04zm0 0" fill="#fcd770"/><path d="M360 112h-48V64h-16v64h64zm0 0"/><path d="M328 80h16v16h-16zm0 0M328 144h16v16h-16zm0 0"/><path d="M474.816 192h-85.632c-11.68 0-21.184 9.504-21.184 21.703a21.155 21.155 0 0 0 16.047 20.555L400 238.246v30.524c-10.23 10.992-17.785 24.335-21.902 38.789-6.035 21.097-17.418 40.457-32.938 55.968A96.993 96.993 0 0 1 312 385.238V207.594c44.785-4.059 80-41.77 80-87.594 0-48.52-39.48-88-88-88-28.938 0-56.055 14.559-72.336 37.953-2.617-3.586-5.441-7.043-8.64-10.242l-16.27-16.27-12.266 18.391a28.905 28.905 0 0 1-19.953 12.574l-7.992 1.145C151.824 77.656 139.672 87 133.16 99.559L118.938 0H56v16h49.063l13.738 96.121C101.719 112.77 88 126.77 88 144c0 5.855 1.695 11.273 4.45 16H88c-8.824 0-16 7.176-16 16v48H44.945l-1.687-3.383C39.359 212.832 31.528 208 22.832 208 10.238 208 0 218.238 0 230.832v98.703a78.076 78.076 0 0 0 6.344 30.914C17.855 387.33 43.207 405.145 72 407.527V456c0 22.055 17.945 40 40 40h174.45c23.198 0 46.015-4.016 67.816-11.945 38.496-14 71.261-39.145 94.742-72.688l3.512-5.008c12.71-18.168 19.648-39.488 20.066-62.289.383-21.14-5.172-41.918-16.441-60.703-5.329-8.894-8.145-19.11-8.145-29.543 0-2.578.61-5.152 1.762-7.457a16.556 16.556 0 0 1 11.636-8.887l17.57-3.511c9.864-1.977 17.032-10.723 17.032-20.785 0-11.68-9.504-21.184-21.184-21.184zM72 356.105c-9.48-4.402-17.031-12.242-21.023-22.218A41.237 41.237 0 0 1 48 318.465V272h24zm-50.953-1.96A62.1 62.1 0 0 1 16 329.535v-98.703A6.837 6.837 0 0 1 22.832 224c2.61 0 4.953 1.45 6.113 3.777L35.055 240H72v16H32v62.465a57.157 57.157 0 0 0 4.121 21.367C42.56 355.945 55.727 368.047 72 373.23v18.29c-22.367-2.32-41.953-16.391-50.953-37.375zM304 48c39.695 0 72 32.305 72 72 0 36.992-28.055 67.527-64 71.527V176c0-8.824-7.176-16-16-16h-4.45c2.755-4.727 4.45-10.145 4.45-16 0-17.648-14.352-32-32-32h-16.39a84.607 84.607 0 0 0-6.801-26.223C253.434 62.45 277.28 48 304 48zm-200 96c0-8.824 7.176-16 16-16h32v-16h-6.734c3.117-10.64 12.148-18.977 23.543-20.61l7.992-1.144a44.907 44.907 0 0 0 31-19.535l1.437-2.16 2.473 2.472C222.887 82.2 229.727 96.527 231.496 112H168v16h96c8.824 0 16 7.176 16 16s-7.176 16-16 16h-64v16h64v144c0 4.406-3.594 8-8 8s-8-3.594-8-8V216c0-13.23-10.77-24-24-24s-24 10.77-24 24v48c0 4.406-3.594 8-8 8s-8-3.594-8-8V160h-64c-8.824 0-16-7.176-16-16zm8 336c-13.23 0-24-10.77-24-24V176h80v88c0 13.23 10.77 24 24 24s24-10.77 24-24v-48c0-4.406 3.594-8 8-8s8 3.594 8 8v104c0 13.23 10.77 24 24 24s24-10.77 24-24V176h16v214.016A98.212 98.212 0 0 1 276.414 392c-18.246 0-36.52-2.078-54.309-6.184l-80.632-18.609-22.465 22.465 5.418 18.969c8.199 28.703 26.664 53.222 51.972 69.046 1.274.793 2.563 1.56 3.86 2.313zm363.832-261.719l-17.566 3.512c-9.97 1.992-18.282 8.344-22.817 17.422a32.78 32.78 0 0 0-3.449 14.61c0 13.335 3.602 26.39 10.809 38.405 9.336 15.579 14.101 33.403 13.757 52.176-.343 18.977-6.277 37.219-17.16 52.77l-3.511 5.008c-21.59 30.847-51.711 53.96-87.102 66.832A181.783 181.783 0 0 1 286.449 480h-46.203a104.376 104.376 0 0 1-55.36-15.879 104.298 104.298 0 0 1-45.07-59.875l-2.832-9.918 9.536-9.535 71.992 16.613A257.784 257.784 0 0 0 276.414 408c30.242 0 58.676-11.777 80.059-33.16 17.43-17.434 30.23-39.176 37-62.887a79.42 79.42 0 0 1 20.175-34.297l2.352-2.344v-49.558l-28.07-7.02c-2.313-.574-3.93-2.644-3.93-5.55a5.193 5.193 0 0 1 5.184-5.184h85.625c2.863 0 5.191 2.328 5.191 5.184a5.21 5.21 0 0 1-4.168 5.097zm0 0"/><path d="M413.2 378.832l-3.505 5c-17.824 25.457-42.656 44.512-71.832 55.113A150.069 150.069 0 0 1 286.457 448v16a166 166 0 0 0 56.879-10.023c32.281-11.73 59.762-32.809 79.473-60.97l3.504-5a78.69 78.69 0 0 0 5.054-8.253l-14.137-7.508a64.447 64.447 0 0 1-4.03 6.586zm0 0M424.566 344.008a62.2 62.2 0 0 1-1.863 14.031l15.512 3.906a78.359 78.359 0 0 0 2.351-17.648l.02-.824-16-.305zm0 0"/></svg>