<svg height="496pt" viewBox="0 0 496 496" width="496pt" xmlns="http://www.w3.org/2000/svg"><path d="M488 120v336H298.559c-9.04 18.879-28.239 32-50.559 32s-41.52-13.121-50.559-32H8V120h32v240h16v48h56.48c46 0 91.442 10.48 132.801 30.719.88.402 1.84.8 2.719 1.281.96-.48 1.922-.96 2.879-1.441 20.16-9.84 41.36-17.36 63.043-22.48A303.152 303.152 0 0 1 383.52 408H440v-48h16V120zm0 0" fill="#b4dd7f"/><path d="M440 360v48h-56.48c-23.52 0-46.88 2.719-69.598 8.078-21.684 5.121-42.883 12.64-63.043 22.48l-.64-1.359C290.718 388.4 350.878 360 414.48 360zm0 0M245.281 438.719c-41.36-20.239-86.8-30.719-132.8-30.719H56v-48h25.52c63.68 0 124 28.48 164.402 77.441zm0 0" fill="#aab2bd"/><path d="M456 8v352h-41.52c-63.601 0-123.761 28.398-164.242 77.2l.64 1.359c-.956.48-1.917.96-2.878 1.441V40a79.947 79.947 0 0 1 64-32zm0 0M245.922 437.441C205.52 388.481 145.199 360 81.52 360H40V8h144c12.64 0 24.8 2.96 35.762 8.48C230.719 21.922 240.48 29.922 248 40v400c-.879-.48-1.84-.879-2.719-1.281zm0 0" fill="#e6e9ed"/><path d="M144 72v72c-8.8 0-16.96 2.398-24.078 6.559l-6.64-86c0-.399-.083-.797-.083-1.278C113.2 54.88 120.08 48 128.641 48 137.12 48 144 54.879 144 63.36zm0 0M144 144V72h12.078c10.242 0 17.844 9.441 15.602 19.441L160 144l-.879 2.48zm0 0" fill="#b4dd7f"/><path d="M119.922 150.559C127.039 146.399 135.199 144 144 144l15.121 2.48a46.298 46.298 0 0 1 18.8 11.598C186.642 166.718 192 178.718 192 192v1.68c0 4.242-.559 8.398-1.602 12.398l-26.238 98.48C161.68 313.68 153.441 320 144 320s-17.68-6.32-20.16-15.441l-26.238-98.48a49.095 49.095 0 0 1-1.602-12.4V192c0-17.68 9.602-33.2 23.922-41.441zm0 0" fill="#fc6e51"/><path d="M384 128h16c0 17.68-14.32 32-32 32h-16c0-17.68 14.32-32 32-32zm0 0" fill="#b4dd7f"/><path d="M352 184c35.36 0 64 28.64 64 64s-28.64 64-64 64-64-28.64-64-64c0-31.121 22.16-56.96 51.52-62.8 4-.802 8.242-1.2 12.48-1.2zm0 0" fill="#ff826e"/><path d="M464 112V0H312c-24.223 0-47.496 10.176-64 27.617C231.496 10.176 208.223 0 184 0H32v112H0v352h192.64c11.36 19.594 32.551 32 55.36 32s44-12.406 55.36-32H496V112zM48 16h136c21.71 0 42.406 10.063 56 26.91V216h16V42.91C269.594 26.063 290.29 16 312 16h136v336h-33.543C354.32 352 297.512 376.168 256 418.863V232h-16v186.863C198.496 376.168 141.695 352 81.543 352H48zm16 352h17.543c49.61 0 96.746 17.734 133.648 49.496C182.238 406 147.336 400 112.45 400H64zm368 0v32h-48.45c-34.886 0-69.808 6-102.757 17.504C317.703 385.734 364.855 368 414.457 368zm48 80H293.488l-2.168 4.559C283.39 469.23 266.383 480 248 480s-35.39-10.77-43.313-27.441L202.512 448H16V128h16v240h16v48h64.45c45.581 0 91.214 10.777 131.976 31.16l3.574 1.785 3.574-1.793C292.336 426.777 337.97 416 383.551 416H448v-48h16V128h16zm0 0"/><path d="M116.152 306.602C119.512 319.199 130.97 328 144 328s24.488-8.8 27.848-21.398l26.257-98.465.008-.008A56.148 56.148 0 0 0 200 193.71V192c0-22.016-12.8-41.04-31.313-50.191l10.801-48.61c1.582-7.152-.136-14.52-4.71-20.222A23.907 23.907 0 0 0 156.054 64H152v-.617C152 50.496 141.504 40 128.617 40a23.453 23.453 0 0 0-17.168 7.496 23.46 23.46 0 0 0-6.16 17.68l6.254 81.273C97.32 156.617 88 173.223 88 192v1.71c0 4.849.633 9.704 1.887 14.435zM184 192v1.71c0 3.466-.457 6.938-1.344 10.306l-26.258 98.464c-1.503 5.61-6.597 9.52-12.398 9.52s-10.895-3.91-12.398-9.52L121.344 264H144v-16h-26.922l-4.262-16H128v-16h-19.457l-3.191-11.977c-.352-1.328-.582-2.68-.793-4.023H144v-16h-39.191c3.718-18.23 19.87-32 39.191-32 22.055 0 40 17.945 40 40zM156.055 80a7.937 7.937 0 0 1 6.234 2.992 7.938 7.938 0 0 1 1.566 6.742l-10.472 47.114c-.461-.078-.926-.145-1.39-.215V80zm-34.809-16.047a7.325 7.325 0 0 1 1.945-5.586A7.313 7.313 0 0 1 128.617 56c4.07 0 7.383 3.313 7.383 7.383v73.258c-3.078.449-6.105 1.086-9 2.015zm0 0M304.047 301.71c13.234 11.825 30.418 18.282 48.121 18.274 2.719 0 5.45-.152 8.176-.457 32.39-3.656 58.914-29.757 63.054-62.062 4.168-32.617-14.086-63.961-44.398-76.235l-6 14.833c23.574 9.546 37.777 33.96 34.52 59.37-3.207 25.087-23.817 45.352-48.977 48.184-16.223 1.895-31.8-3.09-43.84-13.847A56.08 56.08 0 0 1 296 248c0-26.68 18.96-49.785 45.09-54.945 10.957-2.16 18.91-12.008 18.91-23.414V168h8c22.055 0 40-17.945 40-40v-8h-24c-9.04 0-17.297 3.129-24 8.207V96h-16v73.648c0 3.786-2.52 7.032-6.008 7.72C304.391 183.991 280 213.694 280 248c0 20.48 8.77 40.055 24.047 53.71zM384 136h6.633c-3.305 9.313-12.2 16-22.633 16h-6.633c3.305-9.313 12.2-16 22.633-16zm0 0"/><path d="M352 224c13.23 0 24 10.77 24 24h16c0-22.055-17.945-40-40-40zm0 0M368 32h64v16h-64zm0 0M368 64h64v16h-64zm0 0"/></svg>