<svg height="532" viewBox="0 -46 399.093 399" width="532" xmlns="http://www.w3.org/2000/svg"><path d="M370.55 262.031c0 20.989-17.01 38-38 38s-38-17.011-38-38 17.012-38 38-38 38 17.012 38 38zm0 0" fill="#ee5281"/><path d="M332.555 306.86c-24.72 0-44.836-20.11-44.836-44.829s20.113-44.828 44.836-44.828c24.718 0 44.828 20.11 44.828 44.828-.004 24.719-20.11 44.828-44.828 44.828zm0-76.005c-17.196 0-31.18 13.985-31.18 31.176s13.984 31.176 31.18 31.176c17.187 0 31.172-13.984 31.172-31.176s-13.985-31.176-31.172-31.176zm0 0"/><path d="M353.148 201.242H134.695L115.402 72.027h276.864zm0 0" fill="#777"/><path d="M353.148 208.07H134.695a6.826 6.826 0 0 1-6.754-5.82L108.645 73.035a6.842 6.842 0 0 1 1.582-5.465 6.841 6.841 0 0 1 5.171-2.37h276.868a6.81 6.81 0 0 1 5.48 2.76 6.821 6.821 0 0 1 1.055 6.044L359.68 203.219a6.829 6.829 0 0 1-6.532 4.851zm-212.574-13.652h207.504l34.988-115.566H123.32zm0 0"/><path d="M353.148 208.07H107.387a6.825 6.825 0 0 1-6.555-4.925L50.125 28.512 4.668 13.355A6.83 6.83 0 0 1 .352 4.72 6.806 6.806 0 0 1 8.988.402l48.86 16.29a6.815 6.815 0 0 1 4.394 4.57l50.274 173.156h240.632a6.82 6.82 0 0 1 6.825 6.824c0 3.77-3.051 6.828-6.825 6.828zm0 0"/><path d="M142.547 296.004c-.645 0-1.3-.094-1.953-.293a6.821 6.821 0 0 1-4.586-8.492l26.277-87.93c1.082-3.617 4.86-5.687 8.496-4.586a6.827 6.827 0 0 1 4.586 8.492l-26.281 87.93a6.83 6.83 0 0 1-6.54 4.879zm0 0M332.555 268.855a6.797 6.797 0 0 1-5.082-2.27l-54.5-60.784a6.827 6.827 0 0 1 .52-9.64 6.83 6.83 0 0 1 9.64.527l54.5 60.789a6.819 6.819 0 0 1-5.078 11.378zm0 0M271.227 119.324h-18.68a6.824 6.824 0 0 1-6.824-6.828 6.82 6.82 0 0 1 6.824-6.824h18.68a6.824 6.824 0 0 1 6.828 6.824 6.828 6.828 0 0 1-6.828 6.828zm0 0M212.727 119.324h-57.555a6.824 6.824 0 0 1-6.824-6.828 6.82 6.82 0 0 1 6.824-6.824h57.555a6.824 6.824 0 0 1 6.828 6.824 6.828 6.828 0 0 1-6.828 6.828zm0 0"/></svg>