<svg height="397pt" viewBox="-14 0 397 397.326" width="397pt" xmlns="http://www.w3.org/2000/svg"><path d="M10.672 392.387c-3.055 0-4.953-.399-5.16-.45a6.818 6.818 0 0 1-5.184-8.14c.813-3.656 4.434-5.965 8.067-5.2.535.102 9.324 1.567 19.69-6.171 12.087-9.012 27.677-31.594 33.313-87.973a6.794 6.794 0 0 1 7.477-6.113 6.837 6.837 0 0 1 6.113 7.473c-4.976 49.746-18.218 82.726-39.355 98.015-10 7.227-19.399 8.559-24.961 8.559zm0 0"/><path d="M293.773 151.348c0 44.554-36.117 80.672-80.671 80.672-44.555 0-80.672-36.118-80.672-80.672 0-44.555 36.117-80.672 80.672-80.672 44.554 0 80.671 36.117 80.671 80.672zm0 0" fill="#feda38"/><path d="M213.102 238.852c-48.25 0-87.5-39.254-87.5-87.504 0-48.246 39.25-87.5 87.5-87.5 48.246 0 87.5 39.254 87.5 87.5 0 48.25-39.254 87.504-87.5 87.504zm0-161.348c-40.72 0-73.844 33.125-73.844 73.848 0 40.718 33.125 73.847 73.844 73.847s73.847-33.129 73.847-73.847c0-40.723-33.129-73.848-73.847-73.848zm0 0"/><path d="M172.637 207.852c7.61-7.106 12.39-17.2 12.39-28.43 0-21.508-17.437-38.945-38.945-38.945-6.242 0-12.125 1.503-17.355 4.117-3.305-18.16-19.168-31.934-38.282-31.934-21.507 0-38.945 17.438-38.945 38.945 0 .149.02.293.023.446-1.832-.262-3.687-.446-5.586-.446-21.511 0-38.949 17.438-38.949 38.946 0 13.77 7.164 25.844 17.953 32.77-7.605 7.109-12.386 17.199-12.386 28.433 0 21.508 17.437 38.945 38.945 38.945 6.73 0 13.063-1.71 18.586-4.715 5.055 15.645 19.723 26.97 37.05 26.97 19.79 0 36.09-14.77 38.579-33.88 1.941.297 3.91.496 5.933.496 21.508 0 38.946-17.437 38.946-38.945-.004-13.773-7.168-25.848-17.957-32.773zm0 0" fill="#f97da3"/><path d="M107.137 319.777c-17.383 0-32.922-9.703-40.668-24.77a45.907 45.907 0 0 1-14.969 2.516c-25.242 0-45.773-20.53-45.773-45.773 0-9.941 3.308-19.625 9.25-27.516C5.59 215.637.164 203.52.164 190.551c0-25.016 20.168-45.41 45.102-45.77 3.472-22.234 22.41-38.945 45.18-38.945 19.343 0 36.245 12.074 42.824 29.656a45.17 45.17 0 0 1 12.816-1.84c25.234 0 45.77 20.532 45.77 45.774 0 9.937-3.31 19.625-9.25 27.515 9.386 8.594 14.812 20.715 14.812 33.684 0 25.238-20.535 45.773-45.77 45.773-.16 0-.316 0-.476-.003-5.457 19.421-23.36 33.382-44.035 33.382zm-37.051-40.625c.86 0 1.719.16 2.535.489a6.815 6.815 0 0 1 3.961 4.242 32.02 32.02 0 0 0 30.555 22.238c16.058 0 29.734-12.008 31.808-27.937a6.844 6.844 0 0 1 2.668-4.575 6.766 6.766 0 0 1 5.137-1.289c1.598.246 3.227.422 4.895.422 17.71 0 32.117-14.41 32.117-32.12 0-10.97-5.54-21.071-14.817-27.028a6.83 6.83 0 0 1-3.11-5.125 6.84 6.84 0 0 1 2.142-5.606c6.59-6.156 10.218-14.484 10.218-23.441 0-17.711-14.402-32.121-32.113-32.121-4.977 0-9.789 1.144-14.309 3.402a6.842 6.842 0 0 1-6.101 0 6.829 6.829 0 0 1-3.664-4.883c-2.778-15.261-16.047-26.336-31.563-26.336-17.71 0-32.12 14.407-32.12 32.118 0 1.98-.845 4.085-2.34 5.382-1.5 1.293-3.489 2.11-5.438 1.82-1.508-.218-3.043-.378-4.61-.378-17.71 0-32.12 14.41-32.12 32.12 0 10.966 5.538 21.071 14.816 27.028a6.818 6.818 0 0 1 .969 10.727c-6.59 6.16-10.223 14.488-10.223 23.445 0 17.711 14.41 32.117 32.121 32.117 5.352 0 10.652-1.34 15.324-3.883a6.87 6.87 0 0 1 3.262-.828zm0 0"/><path d="M134.957 212.805c0 18.437-14.95 33.382-33.383 33.382-18.437 0-33.383-14.945-33.383-33.382s14.946-33.383 33.383-33.383c18.434 0 33.383 14.945 33.383 33.383zm0 0" fill="#fcad3a"/><path d="M101.574 253.012c-22.172 0-40.21-18.035-40.21-40.211 0-22.168 18.034-40.207 40.21-40.207 22.172 0 40.207 18.039 40.207 40.207 0 22.176-18.035 40.21-40.207 40.21zm0-66.762c-14.644 0-26.558 11.914-26.558 26.555 0 14.644 11.914 26.558 26.558 26.558 14.64 0 26.555-11.914 26.555-26.558 0-14.64-11.914-26.555-26.555-26.555zm0 0M211.387 307.2a6.827 6.827 0 0 1-6.828-6.825v-47.79c0-3.769 3.058-6.823 6.828-6.823s6.828 3.054 6.828 6.824v47.789a6.827 6.827 0 0 1-6.828 6.824zm0 0M211.387 54.613a6.828 6.828 0 0 1-6.828-6.828V6.828c0-3.773 3.058-6.828 6.828-6.828s6.828 3.055 6.828 6.828v40.957a6.828 6.828 0 0 1-6.828 6.828zm0 0M361.574 157.012h-47.789c-3.77 0-6.824-3.055-6.824-6.825s3.055-6.828 6.824-6.828h47.79a6.827 6.827 0 0 1 0 13.653zm0 0M285.277 285.14a6.822 6.822 0 0 1-5.886-3.359l-22.63-38.328a6.833 6.833 0 0 1 2.41-9.351 6.826 6.826 0 0 1 9.352 2.41l22.63 38.328a6.833 6.833 0 0 1-5.876 10.3zm0 0M158.004 69.54a6.827 6.827 0 0 1-5.887-3.356l-22.625-38.332a6.825 6.825 0 0 1 2.41-9.348c3.243-1.922 7.43-.84 9.348 2.406l22.629 38.332a6.833 6.833 0 0 1-2.41 9.352 6.819 6.819 0 0 1-3.465.945zm0 0M264.363 70.578a6.825 6.825 0 0 1-5.805-10.41l23.372-37.875a6.817 6.817 0 0 1 9.39-2.227 6.825 6.825 0 0 1 2.23 9.391l-23.37 37.879a6.816 6.816 0 0 1-5.817 3.242zm0 0M300.219 108.035a6.821 6.821 0 0 1-5.973-3.5 6.832 6.832 0 0 1 2.637-9.289l38.87-21.68c3.31-1.836 7.458-.652 9.29 2.637a6.832 6.832 0 0 1-2.637 9.29l-38.87 21.679a6.802 6.802 0 0 1-3.317.863zm0 0M122.34 104.746a6.802 6.802 0 0 1-3.54-.992L80.763 80.648a6.819 6.819 0 0 1-2.293-9.375 6.83 6.83 0 0 1 9.379-2.289l38.039 23.102a6.822 6.822 0 0 1 2.289 9.379 6.813 6.813 0 0 1-5.836 3.281zm0 0M336.328 234.707c-1.203 0-2.43-.32-3.535-.996l-38.043-23.102a6.818 6.818 0 0 1-2.29-9.375 6.815 6.815 0 0 1 9.376-2.293l38.043 23.106a6.819 6.819 0 0 1 2.293 9.375 6.821 6.821 0 0 1-5.844 3.285zm0 0"/><path d="M34.477 377.023s30.62-37.316 73.773-3.156c-22.86 20.11-47.313 22.688-73.773 3.156zm0 0" fill="#83d816"/><path d="M70.094 397.324c-13.047 0-26.293-4.937-39.672-14.808a6.834 6.834 0 0 1-1.223-9.825c.348-.43 35.422-42.074 83.29-4.18a6.826 6.826 0 0 1 2.585 5.176 6.82 6.82 0 0 1-2.312 5.305c-13.89 12.215-28.157 18.332-42.668 18.332zm-24.805-21.281c17.95 10.691 34.637 10.094 51.586-1.86-24.293-15.054-42.828-5.195-51.586 1.86zm0 0"/></svg>