<svg height="371pt" viewBox="0 -4 371.302 371" width="371pt" xmlns="http://www.w3.org/2000/svg"><path d="M252.398 70.707c-17.597 17.598-18.187 45.54-1.316 62.41 16.875 16.871 44.816 16.281 62.414-1.312 8.566-8.567 13.098-19.586 13.555-30.582L316.125 6.98zm0 0" fill="#ee5281"/><path d="M281.059 152.223c-13.254 0-25.57-5.047-34.801-14.278-9.485-9.488-14.551-22.238-14.266-35.906.281-13.555 5.813-26.398 15.582-36.16l63.727-63.727a6.819 6.819 0 0 1 7.074-1.62 6.826 6.826 0 0 1 4.531 5.66l10.926 94.245c.04.356.055.711.04 1.07-.552 13.173-6.075 25.641-15.552 35.122-9.761 9.766-22.601 15.297-36.16 15.582-.367.012-.734.012-1.101.012zm29.914-130.43l-53.746 53.742c-7.262 7.258-11.375 16.778-11.586 26.793-.207 9.91 3.441 19.129 10.273 25.961 6.649 6.649 15.55 10.281 25.152 10.281.274 0 .54-.004.809-.011 10.02-.211 19.531-4.32 26.793-11.582 6.926-6.926 11.012-15.973 11.539-25.524zm-58.575 48.914h.067zm0 0"/><path d="M300.75 119.059c-17.598 17.597-45.93 17.796-63.281.445-17.352-17.352-31.633-31.2-14.035-48.797C232 62.141 257.59 43.215 268.738 42.91l95.739 12.422zm0 0" fill="#ee5281"/><path d="M268.691 139.215c-13.652 0-26.437-5.278-36.043-14.887l-.613-.613c-8.82-8.817-17.148-17.137-21.062-26.055-4.887-11.137-2.317-21.828 7.636-31.781 8.047-8.05 35.59-29.399 49.946-29.793a5.76 5.76 0 0 1 1.066.055l95.734 12.422a6.81 6.81 0 0 1 5.582 4.57 6.823 6.823 0 0 1-1.632 7.027l-63.723 63.723c-9.785 9.789-22.754 15.234-36.512 15.328-.133.004-.25.004-.379.004zm-.199-89.453c-8.152.773-31.082 16.62-40.234 25.773-7.38 7.383-6.66 12.363-4.785 16.64 2.879 6.563 10.324 14.005 18.207 21.884l.617.617c7.027 7.027 16.387 10.883 26.402 10.883h.274c10.144-.07 19.718-4.094 26.953-11.329l53.906-53.914zm32.262 69.297h.066zm0 0"/><path d="M280.04 133.398c-16.716 16.715-43.622 16.915-60.095.446-16.468-16.473-16.27-43.375.446-60.094l50.836-50.836zm0 0" fill="#ee5281"/><path d="M249.578 152.867c-12.52 0-24.988-4.726-34.457-14.195-9.277-9.274-14.324-21.64-14.226-34.836.097-13.152 5.312-25.55 14.671-34.91l50.832-50.84a6.816 6.816 0 0 1 7.188-1.578 6.822 6.822 0 0 1 4.445 5.863l8.813 110.484a6.817 6.817 0 0 1-1.977 5.368 49.804 49.804 0 0 1-35.289 14.644zM265.598 38.2l-40.38 40.38c-6.812 6.808-10.597 15.816-10.671 25.362-.067 9.504 3.558 18.41 10.226 25.075 13.094 13.078 34.114 13.558 48.2 1.617zm0 0"/><path d="M299.219 149.39c-17.598 17.598-45.785 17.942-62.961.766-17.176-17.176-16.832-45.363.765-62.96 8.567-8.567 19.641-13.044 30.73-13.403l95.188 11.871zm0 0" fill="#ee5281"/><path d="M267.031 169.617c-12.965 0-25.832-4.867-35.597-14.633-19.805-19.812-19.465-52.386.765-72.613 9.5-9.5 22.047-14.969 35.34-15.398a7.47 7.47 0 0 1 1.066.047l95.188 11.875a6.832 6.832 0 0 1 5.613 4.558c.844 2.465.211 5.2-1.633 7.043l-63.726 63.723c-10.254 10.254-23.688 15.398-37.016 15.398zm.434-88.98c-9.617.441-18.7 4.472-25.613 11.386-14.907 14.907-15.254 38.82-.766 53.305 14.488 14.48 38.406 14.133 53.305-.766l53.855-53.847zm31.754 68.754h.066zm0 0"/><path d="M6.824 362.457a6.803 6.803 0 0 1-4.824-2 6.82 6.82 0 0 1 0-9.652L219.777 133.02a6.828 6.828 0 0 1 9.653 9.656L11.652 360.457a6.812 6.812 0 0 1-4.828 2zm0 0"/><path d="M248.773 249.54s-59.28 30.765-77.796 33.523c-18.516 2.757-35.758-10.016-38.516-28.528-2.758-18.515 10.016-35.758 28.527-38.515 18.516-2.758 87.785 33.52 87.785 33.52zm0 0" fill="#83d816"/><path d="M165.965 290.262c-19.824 0-37.246-14.54-40.258-34.723-1.602-10.758 1.078-21.496 7.55-30.238 6.477-8.738 15.97-14.434 26.727-16.04 19.676-2.925 80.063 27.997 91.953 34.231a6.836 6.836 0 0 1 3.665 6.063 6.852 6.852 0 0 1-3.68 6.047c-6.176 3.203-60.848 31.375-79.934 34.214-2.027.301-4.035.446-6.023.446zm-2.465-67.59c-.555 0-1.055.031-1.5.101-7.152 1.063-13.469 4.848-17.766 10.657-4.308 5.812-6.086 12.949-5.02 20.097 2.2 14.758 15.966 24.97 30.759 22.786 11.558-1.723 43.425-16.688 63.718-26.782-26.011-12.86-58.773-26.86-70.191-26.86zm0 0"/><path d="M154.813 105.25s22.496 43.348 24.515 56.887c2.016 13.539-7.324 26.148-20.863 28.164-13.54 2.02-26.149-7.32-28.164-20.86-2.02-13.539 24.512-64.191 24.512-64.191zm0 0" fill="#83d816"/><path d="M154.8 197.398c-15.39 0-28.913-11.285-31.253-26.953-2.172-14.605 18.754-56.02 25.219-68.367a6.836 6.836 0 0 1 6.047-3.66h.015a6.828 6.828 0 0 1 6.043 3.684c2.356 4.539 23.09 44.773 25.211 59.03 1.246 8.348-.84 16.684-5.863 23.466-5.024 6.789-12.395 11.207-20.746 12.453a31.17 31.17 0 0 1-4.672.347zm.012-76.984c-10.007 20.594-18.625 42.18-17.757 48.02 1.457 9.789 10.578 16.574 20.406 15.113a17.832 17.832 0 0 0 11.785-7.07 17.847 17.847 0 0 0 3.324-13.332c-1.05-7.102-9.898-26.711-17.757-42.73zm0 0M313.078 113.023c-.367 0-.738-.03-1.117-.09l-24-3.96c-3.723-.61-6.234-4.125-5.621-7.844.605-3.719 4.066-6.234 7.847-5.629l24 3.96a6.822 6.822 0 0 1 5.618 7.849c-.547 3.343-3.446 5.714-6.727 5.714zm0 0M267.207 105.45c-.367 0-.742-.032-1.113-.09l-7.668-1.262a6.824 6.824 0 0 1-5.625-7.848 6.808 6.808 0 0 1 7.84-5.629l7.664 1.266a6.822 6.822 0 0 1 5.629 7.847c-.547 3.344-3.442 5.715-6.727 5.715zm0 0"/></svg>