<svg height="388pt" viewBox="0 -23 388.561 388" width="388pt" xmlns="http://www.w3.org/2000/svg"><path d="M347.258 94.23c-9.41.758-16.426 9-15.668 18.41l-1.828-22.722c-.758-9.41-9.004-16.426-18.414-15.668s-16.426 9-15.668 18.414l-1.371-17.043c-.758-9.41-9.004-16.426-18.414-15.668-9.41.758-16.426 9-15.668 18.41l1.37 17.043c-.757-9.41-9-16.43-18.41-15.672s-16.425 9.004-15.667 18.414l8.363 103.872c-4.43-5.497-10.254-11.032-18.012-15.934-17.172-10.84-25.715-3.309-29.851 4.809-3.06 6.011-1.938 13.39 2.753 18.234 29.907 30.902 44.88 59.785 51.875 76.918l2.704 33.625c.757 9.41 9.003 16.426 18.414 15.668 9.41-.758 24.21-7.664 33.62-8.422 9.41-.758 25.13 3.695 34.54 2.937 9.41-.757 16.426-9 15.668-18.414.758 9.414 9.004 16.43 18.414 15.672 9.41-.758 16.426-9.004 15.668-18.414l-16.004-198.804c-.758-9.407-9-16.422-18.414-15.665zm0 0" fill="#83d816"/><path d="M262.352 342.227c-5.668 0-11.094-1.989-15.461-5.704-4.868-4.144-7.832-9.93-8.34-16.3l-2.625-32.563c-7.414-17.855-22.059-44.848-50.059-73.777-6.746-6.969-8.328-17.45-3.933-26.078 3.52-6.907 8.66-11.461 14.879-13.168 7.234-1.996 15.562-.09 24.699 5.68a84.474 84.474 0 0 1 6.113 4.245l-6.91-85.863c-.516-6.367 1.484-12.554 5.625-17.422 4.14-4.867 9.93-7.828 16.297-8.343 3.828-.313 7.496.3 10.832 1.644 1.136-11.266 10.203-20.488 21.883-21.426 11.691-.949 22.101 6.715 25.023 17.649a23.797 23.797 0 0 1 10.426-3.352c13.14-1.054 24.71 8.781 25.765 21.922l.098 1.172a23.74 23.74 0 0 1 10.05-3.117c13.161-1.04 24.704 8.781 25.763 21.926l16.003 198.804c.516 6.371-1.48 12.555-5.625 17.422-4.14 4.867-9.93 7.832-16.3 8.344-6.348.539-12.551-1.485-17.422-5.629a8.334 8.334 0 0 1-.192-.164c-.054.062-.109.129-.168.191-4.14 4.871-9.93 7.832-16.3 8.344-5.485.461-12.258-.555-18.817-1.52-5.793-.855-11.781-1.73-15.718-1.417-3.93.32-9.708 2.144-15.293 3.914-6.317 2-12.852 4.07-18.329 4.507-.66.055-1.312.079-1.964.079zm-59.75-154.7c-.774 0-1.5.09-2.168.27-2.454.676-4.579 2.762-6.332 6.203-1.72 3.383-1.075 7.652 1.574 10.387 30.031 31.027 45.55 60.133 53.289 79.086.27.648.433 1.332.484 2.03l2.707 33.63a10.183 10.183 0 0 0 3.582 6.992c2.09 1.781 4.77 2.621 7.48 2.418 3.938-.316 9.716-2.148 15.302-3.918 6.312-2 12.843-4.066 18.32-4.508 5.465-.472 12.25.555 18.805 1.52 5.804.855 11.835 1.726 15.734 1.418a10.204 10.204 0 0 0 7-3.578 10.226 10.226 0 0 0 2.418-7.48 6.826 6.826 0 0 1 6.254-7.352c3.761-.372 7.047 2.496 7.351 6.257a10.176 10.176 0 0 0 3.582 6.993c2.086 1.777 4.762 2.613 7.48 2.418a10.192 10.192 0 0 0 6.997-3.583 10.215 10.215 0 0 0 2.418-7.48l-16.004-198.805c-.457-5.644-5.367-9.832-11.063-9.414a10.198 10.198 0 0 0-7 3.586 10.212 10.212 0 0 0-2.414 7.48 6.82 6.82 0 0 1-6.257 7.348 6.817 6.817 0 0 1-7.352-6.254c-.004-.003-.004-.011-.004-.015l-1.82-22.707c-.457-5.645-5.367-9.817-11.063-9.414-5.644.457-9.867 5.418-9.414 11.062a6.822 6.822 0 0 1-6.258 7.352c-3.78.332-7.05-2.496-7.351-6.258l-1.367-17.04c-.461-5.64-5.352-9.843-11.063-9.413-5.644.457-9.867 5.418-9.414 11.062l1.367 16.993a6.821 6.821 0 0 1-6.25 7.398c-3.804.285-7.05-2.5-7.351-6.254v-.004a10.254 10.254 0 0 0-11.063-9.414 10.236 10.236 0 0 0-6.996 3.586 10.186 10.186 0 0 0-2.414 7.477l8.36 103.875a6.827 6.827 0 0 1-12.122 4.832c-4.488-5.575-9.984-10.434-16.336-14.446-4.546-2.867-8.511-4.336-11.628-4.336zm0 0"/><path d="M331.59 112.64l6.402 79.524" fill="#feda38"/><path d="M337.984 198.992a6.823 6.823 0 0 1-6.793-6.281l-6.406-79.524a6.83 6.83 0 0 1 6.258-7.351c3.727-.375 7.047 2.5 7.352 6.258l6.402 79.523a6.822 6.822 0 0 1-6.813 7.375zm0 0"/><path d="M295.68 92.664l7.773 96.563" fill="#feda38"/><path d="M303.445 196.055a6.823 6.823 0 0 1-6.793-6.282l-7.777-96.562a6.83 6.83 0 0 1 6.258-7.352c3.785-.347 7.047 2.5 7.351 6.258l7.774 96.563a6.822 6.822 0 0 1-6.813 7.375zm0 0"/><path d="M261.598 95.406l7.777 96.567" fill="#feda38"/><path d="M269.367 198.797a6.824 6.824 0 0 1-6.797-6.281l-7.773-96.563a6.818 6.818 0 0 1 6.258-7.348c3.757-.332 7.047 2.497 7.347 6.254l7.774 96.563a6.821 6.821 0 0 1-6.809 7.375zm0 0"/><path d="M41.3 41.441c9.41.758 16.427 9 15.669 18.41l1.828-22.722c.758-9.41 9-16.426 18.414-15.668 9.41.758 16.426 9 15.668 18.414l1.371-17.043c.758-9.41 9-16.426 18.41-15.668 9.414.758 16.43 9 15.672 18.41l-1.375 17.043c.758-9.41 9.004-16.43 18.414-15.672 9.41.758 16.426 9.004 15.668 18.414l-8.363 103.871c4.43-5.496 10.254-11.03 18.012-15.933 17.171-10.84 25.714-3.309 29.847 4.808 3.063 6.012 1.942 13.391-2.75 18.235-29.906 30.902-44.879 59.785-51.875 76.918l-2.707 33.625c-.758 9.41-9 16.426-18.41 15.668-9.41-.754-24.211-7.664-33.625-8.422-9.41-.758-25.125 3.695-34.535 2.937-9.41-.757-16.426-9-15.668-18.414-.758 9.414-9.004 16.43-18.414 15.672-9.41-.758-16.426-9.004-15.668-18.414L22.887 57.105C23.645 47.7 31.89 40.684 41.3 41.441zm0 0" fill="#83d816"/><path d="M126.203 289.441a25.21 25.21 0 0 1-1.957-.078c-5.476-.441-12.004-2.508-18.316-4.508-5.59-1.77-11.368-3.601-15.305-3.918-3.934-.304-9.934.563-15.738 1.422-6.555.957-13.332 1.957-18.801 1.516-6.668-.535-12.48-3.773-16.457-8.547l-.203.18c-4.867 4.137-11.094 6.12-17.426 5.62C8.855 280.075-.98 268.517.078 255.369L16.082 56.561c1.059-13.148 12.54-23.046 25.762-21.925h.004a23.735 23.735 0 0 1 10.047 3.133l.097-1.184c1.059-13.149 12.559-23.059 25.766-21.926 3.816.305 7.351 1.5 10.422 3.356C91.105 7.078 101.512-.605 113.21.363a23.768 23.768 0 0 1 16.302 8.344c3.187 3.746 5.105 8.277 5.586 13.07a23.628 23.628 0 0 1 10.824-1.629c13.144 1.059 22.98 12.614 21.922 25.762l-6.914 85.867c1.96-1.496 4-2.91 6.117-4.246 9.137-5.77 17.457-7.68 24.703-5.683 6.219 1.707 11.36 6.261 14.875 13.168 4.395 8.632 2.813 19.109-3.934 26.082-27.996 28.925-42.644 55.922-50.058 73.777l-2.621 32.559c-.512 6.37-3.473 12.16-8.34 16.3-4.367 3.72-9.8 5.707-15.469 5.707zm-37.355-22.218c.992 0 1.949.03 2.87.109 5.481.438 12.016 2.508 18.333 4.508 5.586 1.77 11.36 3.594 15.293 3.914 2.734.187 5.386-.637 7.48-2.414a10.212 10.212 0 0 0 3.578-7l2.707-33.621c.055-.7.22-1.387.485-2.035 7.734-18.954 23.261-48.067 53.285-79.086 2.652-2.739 3.297-7.004 1.578-10.391-1.75-3.437-3.879-5.523-6.328-6.195-3.348-.938-8.117.484-13.793 4.062-6.352 4.012-11.852 8.871-16.34 14.446-1.887 2.332-5.07 3.18-7.844 2.054a6.817 6.817 0 0 1-4.277-6.887l8.36-103.87a10.195 10.195 0 0 0-2.415-7.481 10.223 10.223 0 0 0-6.996-3.582c-2.77-.211-5.394.637-7.48 2.418a10.183 10.183 0 0 0-3.582 6.992c-.301 3.758-3.602 6.57-7.352 6.258a6.827 6.827 0 0 1-6.258-7.352v-.004l1.371-17.035a10.19 10.19 0 0 0-2.414-7.48 10.216 10.216 0 0 0-7-3.582c-5.554-.36-10.601 3.77-11.058 9.414L99.684 40.41c0 .004 0 .008-.004.012-.301 3.758-3.618 6.547-7.348 6.258a6.822 6.822 0 0 1-6.258-7.352c.453-5.644-3.77-10.605-9.418-11.062-5.515-.368-10.601 3.77-11.058 9.418l-1.825 22.703c0 .004 0 .011-.003.015-.301 3.758-3.563 6.586-7.348 6.254a6.818 6.818 0 0 1-6.258-7.347c.453-5.645-3.77-10.606-9.414-11.063a10.245 10.245 0 0 0-11.063 9.414L13.684 256.465c-.22 2.734.64 5.39 2.418 7.48a10.215 10.215 0 0 0 6.992 3.582c2.722.176 5.394-.636 7.484-2.418a10.223 10.223 0 0 0 3.582-6.996c.3-3.758 3.54-6.601 7.348-6.254a6.826 6.826 0 0 1 6.258 7.348c-.453 5.645 3.77 10.605 9.418 11.063 3.933.292 9.925-.567 15.714-1.418 5.457-.805 11.063-1.63 15.95-1.63zm0 0"/><path d="M56.969 59.852l-6.403 79.523" fill="#feda38"/><path d="M50.574 146.203a6.821 6.821 0 0 1-6.809-7.375l6.403-79.523c.3-3.762 3.574-6.61 7.352-6.258a6.821 6.821 0 0 1 6.253 7.351l-6.402 79.524a6.827 6.827 0 0 1-6.797 6.281zm0 0"/><path d="M92.879 39.875l-7.774 96.563" fill="#feda38"/><path d="M85.11 143.266a6.821 6.821 0 0 1-6.809-7.375l7.777-96.563c.3-3.762 3.582-6.582 7.352-6.258a6.821 6.821 0 0 1 6.254 7.352l-7.778 96.562a6.827 6.827 0 0 1-6.797 6.282zm0 0"/><path d="M126.957 42.621l-7.773 96.563" fill="#feda38"/><path d="M119.191 146.008c-.18 0-.363-.004-.55-.024a6.82 6.82 0 0 1-6.258-7.351l7.773-96.563c.301-3.757 3.54-6.625 7.352-6.254a6.816 6.816 0 0 1 6.258 7.348l-7.774 96.566a6.83 6.83 0 0 1-6.8 6.278zm0 0"/></svg>