<svg height="430pt" viewBox="0 -116 430.081 430" width="430pt" xmlns="http://www.w3.org/2000/svg"><path d="M423.254 136.574H6.828L24.973 68.31h380.132zm0 0" fill="#fff"/><path d="M423.254 143.402H6.828A6.827 6.827 0 0 1 .23 134.82L18.38 66.555a6.825 6.825 0 0 1 6.594-5.075h380.132a6.826 6.826 0 0 1 6.598 5.075l18.149 68.265a6.84 6.84 0 0 1-1.184 5.914 6.835 6.835 0 0 1-5.414 2.668zM15.707 129.746h398.668l-14.52-54.613H30.223zm0 0"/><path d="M122.879 68.309c0 18.851-15.281 34.132-34.133 34.132-18.851 0-34.133-15.28-34.133-34.132 0-18.852 15.282-61.442 34.133-61.442 18.852 0 34.133 42.59 34.133 61.442zm0 0" fill="#ffdd95"/><path d="M88.746 109.266c-22.586 0-40.957-18.371-40.957-40.957 0-20.27 15.895-68.27 40.957-68.27 25.067 0 40.961 48 40.961 68.27 0 22.586-18.375 40.957-40.96 40.957zm0-95.57c-12.289 0-27.305 36.558-27.305 54.613 0 15.058 12.25 27.304 27.305 27.304 15.059 0 27.309-12.246 27.309-27.304 0-18.055-15.02-54.614-27.309-54.614zm0 0"/><path d="M252.586 68.309c0 18.851-15.281 34.132-34.133 34.132S184.32 87.161 184.32 68.31c0-18.852 15.282-61.442 34.133-61.442s34.133 42.59 34.133 61.442zm0 0" fill="#ffdd95"/><path d="M218.453 109.266c-22.586 0-40.96-18.371-40.96-40.957 0-20.27 15.898-68.27 40.96-68.27 25.067 0 40.961 48 40.961 68.27 0 22.586-18.375 40.957-40.96 40.957zm0-95.57c-12.289 0-27.305 36.558-27.305 54.613 0 15.058 12.25 27.304 27.305 27.304 15.059 0 27.309-12.246 27.309-27.304 0-18.055-15.02-54.614-27.309-54.614zm0 0"/><path d="M382.293 68.309c0 18.851-15.281 34.132-34.133 34.132-18.851 0-34.133-15.28-34.133-34.132 0-18.852 15.282-61.442 34.133-61.442 18.852 0 34.133 42.59 34.133 61.442zm0 0" fill="#ffdd95"/><path d="M348.16 109.266c-22.586 0-40.96-18.371-40.96-40.957 0-20.27 15.898-68.27 40.96-68.27 25.067 0 40.961 48 40.961 68.27 0 22.586-18.375 40.957-40.96 40.957zm0-95.57c-12.289 0-27.305 36.558-27.305 54.613 0 15.058 12.25 27.304 27.305 27.304S375.47 83.367 375.47 68.31c0-18.055-15.02-54.614-27.309-54.614zm0 0"/><path d="M6.828 136.574l9.07 27.305 9.075 27.309h19.12l4.462-27.31h73.562l4.457 27.31h47.227l4.46-27.31h73.563l4.457 27.31h47.227l4.46-27.31h73.563l4.457 27.31h19.117l18.149-54.614zm0 0" fill="#fff"/><path d="M405.105 198.016h-19.117a6.83 6.83 0 0 1-6.738-5.727l-3.527-21.582H313.77l-3.524 21.582a6.827 6.827 0 0 1-6.738 5.727H256.28a6.826 6.826 0 0 1-6.734-5.727l-3.531-21.582h-61.95l-3.527 21.582a6.827 6.827 0 0 1-6.738 5.727h-47.227a6.83 6.83 0 0 1-6.738-5.727l-3.527-21.582h-61.95l-3.527 21.582a6.826 6.826 0 0 1-6.734 5.727H24.973a6.837 6.837 0 0 1-6.48-4.676L.347 138.727a6.83 6.83 0 0 1 6.48-8.98h416.426a6.82 6.82 0 0 1 5.535 2.835 6.83 6.83 0 0 1 .945 6.145l-18.148 54.613a6.83 6.83 0 0 1-6.48 4.676zm-13.316-13.657h8.39l13.61-40.957H16.29l13.613 40.957h8.391l3.523-21.578a6.827 6.827 0 0 1 6.739-5.726h73.558c3.348 0 6.2 2.425 6.739 5.726l3.523 21.578h35.621l3.527-21.578a6.823 6.823 0 0 1 6.735-5.726h73.562a6.826 6.826 0 0 1 6.735 5.726l3.527 21.578h35.621l3.527-21.578a6.823 6.823 0 0 1 6.735-5.726h73.562a6.826 6.826 0 0 1 6.735 5.726zm0 0"/></svg>