<svg xmlns="http://www.w3.org/2000/svg" viewBox="0 0 17441 11811">
  <g>
    <path fill="#f0f" stroke="#000" stroke-width="50" d="M6497 6729H3328V5144h3169z"></path>
    <path fill="#f0f" stroke="#000" stroke-width="50" d="M14460 6649h-3169V5064h3169z"></path>

  </g>
  <g>
    <path fill="#f0f" stroke="#000" stroke-width="50" d="M9686 7430v3169H8102V7430z"></path>
    <path fill="#f0f" stroke="#000" stroke-width="50" d="M9686 1092v3169H8102V1092z"></path>
    <path fill="#3C3" stroke="#000" stroke-width="50" d="M11271 4261v3169H9686V4261z"></path>
    <path fill="#3C3" stroke="#000" stroke-width="50" d="M8102 4261v3169H6517V4261z"></path>
  </g>
  <g>
    <path fill="#3C4" stroke="#000" stroke-width="50" d="M12855 1409h64l63 8 63 5 64 12 63 13 59 21 60 17 54 25 60 26 55 25 50 30 51 33 51 38 46 38 47 38 46 43 42 42 38 46 38 51 34 47 34 50 30 55 29 55 26 55 21 59 21 59 17 60 17 63 8 59 9 64 4 67 4 64-4 63-4 68-9 63-8 59-17 63-17 60-21 59-21 59-26 55-29 55-30 55-34 50-34 51-38 47-38 46-42 42-46 43-47 42-46 34-51 38-51 33-50 30-55 25-60 26-54 25-60 21-59 17-63 13-64 13-63 4-63 8h-131l-64-8-63-4-63-13-60-13-63-17-59-21-55-25-55-26-55-25-55-30-51-33-50-38-47-34-46-42-47-43-38-42-42-46-38-47-34-51-34-50-29-55-30-55-25-55-21-59-21-59-17-60-13-63-13-59-8-63-4-68v-127l4-67 8-64 13-59 13-63 17-60 21-59 21-59 25-55 30-55 29-55 34-50 34-47 38-51 42-46 38-42 47-43 46-38 47-38 50-38 51-33 55-30 55-25 55-26 55-25 59-17 63-21 60-13 63-12 63-5 64-8z"></path>
    <path fill="#3C4" stroke="#000" stroke-width="50" d="M5249 8064h64l63 9 63 4 64 12 63 13 59 21 60 17 54 26 60 25 55 25 50 30 51 34 51 38 46 38 47 38 46 42 42 42 38 47 38 50 34 47 34 51 30 55 29 54 26 55 21 60 21 59 17 59 17 63 8 59 8 64 5 67 4 64-4 63-5 68-8 63-8 59-17 64-17 59-21 59-21 59-26 55-29 55-30 55-34 51-34 50-38 47-38 46-42 43-46 42-47 42-46 34-51 38-51 34-50 29-55 26-60 25-54 25-60 22-59 16-63 13-64 13-63 4-63 8h-131l-64-8-63-4-63-13-60-13-63-16-59-22-55-25-55-25-55-26-55-29-51-34-50-38-47-34-46-42-47-42-38-43-42-46-38-47-34-50-34-51-29-55-30-55-25-55-21-59-21-59-17-59-13-64-13-59-8-63-4-68v-127l4-67 8-64 13-59 13-63 17-59 21-59 21-60 25-55 30-54 29-55 34-51 34-47 38-50 42-47 38-42 47-42 46-38 47-38 50-38 51-34 55-30 55-25 55-25 55-26 59-17 63-21 60-13 63-12 63-4 64-9z"></path>
  </g>
</svg>